<svg version="1.2" xmlns="http://www.w3.org/2000/svg" viewBox="0 0 730 1014" width="730" height="1014">
	<title>Levski-pdf</title>
	<style>
		.s0 { fill: #fafac2 } 
		.s1 { fill: #255829 } 
	</style>
	<path id="Path 1" class="s0" d="m27.6 27.5h674.9c0 462.8 0-156.8 0 633.4 0 179.9-147.2 327-327 327h-20.9c-179.8 0-327-147.1-327-327 0-707.2 0-227 0-633.4z"/>
	<path id="Path 2" class="s1" d="m367.6 909.3c159.1-9.4 229.8-103.2 251.5-243.8 1.1-0.6 0-0.4 2.4-0.9 5.6-1.1 13.1-0.7 18.6 0 5.1 0.7 7.7 2.2 11.5 4.4 13 7.5 10.9 24.2 10.9 36.2 0 18.2 1.2 23.2-7.1 34.7-2.7 3.7-7.1 6.6-11.4 8.7-9.5 4.5-11.3 4.5-18.3 12.1-6.9 10.9-34.7 61.5-44.8 72.7-2.8 3.1-4.9 8.3-3.8 12.9 1 4.3 4 10.8 5.5 15.2 1.5 4.1 1.3 7.5-5.1 14.4-66.6 60.9-65.7 15.3-82.4 26.9-13.8 9.5-53.7 22.5-71.5 29.5-7.2 3.3-12.3 7.5-16.5 14.1-2.3 3.5-3.9 10.1-8.1 12.6-2.9 1.7-17.3 2.6-31.3 2.7h-0.1c-14-0.1-28.4-1-31.3-2.7-4.2-2.5-5.8-9.1-8.1-12.6-4.2-6.6-9.3-10.8-16.5-14.1-17.8-7-57.7-20-71.5-29.5-16.8-11.6-15.8 34-82.4-26.9-6.4-6.9-6.6-10.3-5.2-14.4 1.6-4.4 4.6-10.9 5.6-15.2 1.1-4.6-1-9.8-3.8-12.9-10.1-11.2-37.9-61.8-44.9-72.7-6.9-7.6-8.7-7.6-18.2-12.1-4.3-2.1-8.7-5-11.4-8.7-8.4-11.5-7.1-16.5-7.1-34.7 0-12-2.1-28.7 10.9-36.2 3.8-2.2 6.4-3.7 11.5-4.4 5.5-0.7 13-1.1 18.6 0 2.4 0.5 1.3 0.3 2.4 0.9 21.7 140.6 92.4 234.4 251.4 243.8z"/>
	<path id="Path 3" fill-rule="evenodd" class="s1" d="m0.7 1.9h728.7v647.2c0 200.4-164 364.4-364.4 364.4-200.4 0-364.3-164-364.3-364.4zm348.5 457.6v-113.8h-204.8v-29.6h204.8v-31.1h-257.1v-23.9h257.1v-29.2h-320.8v429.6c0 179.9 147.1 327.1 327 327.1h20.8c179.9 0 327.1-147.2 327.1-327.1v-428.4h-316.7v29.2h257.1v23.8h-257.1v31.1h204.8v29.6h-204.8v113.9l132.5-67c-3.4 87.9-46.6 141.2-142.2 149.2l0.6-66.9h-0.6v-275.2h326.4v-172.7h-674.9v171.5h330.6v275.2h-0.7l0.7 66.9c-95.6-7.9-138.9-61.3-142.2-149.1zm5.9 127.3c4.7 5.8 4.2 8 4.2 17 0 15.5 0.8 74.1-0.2 84-89.8 11.5-167.2-81-169.3-162.7l-0.5-0.4v-128.1q0-1 0.4-1.9c0.2-1.2 1.1-2.1 2.2-2.3q1-0.4 2-0.4c2.6 0 4.7 2 4.7 4.6v123.1c27.6 9.2 117.8 23.5 156.5 67.1zm-207.8 85.7v-274.6c0-2.5 2.1-4.6 4.6-4.6 2.6 0 4.6 2.1 4.6 4.6v264.1c26.6 19.7 80.5 30.1 113.2 37.9 27.7 6.6 88.6 32.2 89.8 64.3 0.5 12.5 0.1 25.8 0.1 38.4 0 25.8 0 51.7 0 77.5-113.4 4.3-212.3-98-212.3-207.6zm389.5-151.5v-124.4c0-2.6 2.1-4.6 4.6-4.6 2 0 3.6 1.2 4.3 2.9q0.3 0.6 0.3 1.3v126.6c0 82.5-78.3 177.8-169.4 166.1-0.9-9.8-0.1-68.4-0.1-83.9-0.1-9-0.5-11.3 4.1-17 38.5-43.4 128.1-57.8 156.2-67zm-160.6 360.3c-0.1-25.9 0-51.7 0-77.5 0-12.6-0.4-26 0.1-38.5 1.2-32 62.1-57.6 89.7-64.2 32.8-7.8 86.6-18.3 113.2-38v-264c0-2.5 2.1-4.6 4.6-4.6 2.6 0 4.6 2.1 4.6 4.6v274.6c0 109.5-98.9 211.8-212.2 207.6z"/>
	<path id="Path 4" fill-rule="evenodd" class="s1" d="m162 167l-29.6-77.2-30.1 77.2h-21.7l41.3-105.1h20.7l41.2 105.1zm34.2-105.1h58.4v19.6h-38.2v19h38.2v19.2h-38.2v27.6h38.2v19.7h-58.4zm77.4 105.1v-105.1h16.8q14.6 0 21.4 1.9 9.6 2.5 15.3 9.2 5.7 6.8 5.7 16 0 6.1-2.6 10.9-2.6 4.9-8.4 9.2c6.5 3 11.2 6.8 14.2 11.3q4.5 6.7 4.6 15.9-0.1 8.9-4.7 16.2-4.7 7.3-12 10.9-7.4 3.6-20.3 3.6zm20.4-86v22.1h4.4q7.4 0 11-3.1 3.6-3 3.6-8.3 0-5-3.4-7.8-3.4-2.9-10.4-2.9zm0 40v26.9h5.1q12.6 0 17-3.1 4.4-3.2 4.4-9.2 0-6.8-5.1-10.7-5.2-3.9-17.2-3.9zm164.4-40.6l-14.2 13.4q-14.6-15.1-32.8-15.1-15.4 0-25.9 10.3-10.5 10.3-10.5 25.3 0 10.5 4.7 18.7 4.6 8.1 13.1 12.8 8.6 4.6 19 4.6 8.8 0 16.2-3.2c4.9-2.2 10.3-6.1 16.2-11.9l13.8 14.2q-11.9 11.3-22.4 15.7-10.6 4.4-24.1 4.4-25 0-40.9-15.5-15.9-15.6-15.9-39.8 0-15.8 7.3-28 7.2-12.2 20.7-19.6 13.5-7.4 29.1-7.4 13.2-0.1 25.5 5.5 12.2 5.5 21.1 15.6zm18-18.5h20.6v36.1l29-36.1h24.6l-37.4 46.9 41 58.2h-24.2l-33-46.7v46.7h-20.6zm170.3 0v105.1h-20.4v-65.8l-39.9 65.8h-17.8v-105.1h20.4v67.9l40.5-67.9z"/>
</svg>