<svg version="1.2" xmlns="http://www.w3.org/2000/svg" viewBox="0 0 640 851" width="640" height="851">
	<title>Kostenets-pdf</title>
	<style>
		.s0 { fill: #f25c19;stroke: #231f20;stroke-width: 10 } 
		.s1 { fill: #fff200 } 
		.s2 { fill: none;stroke: #231f20;stroke-width: 10 } 
		.s3 { fill: #ffffff;stroke: #231f20;stroke-width: 8 } 
		.s4 { fill: #ffffff;stroke: #231f20;stroke-width: 4 } 
		.s5 { fill: #73c82c;stroke: #231f20;stroke-width: 4 } 
		.s6 { fill: #ffffff;stroke: #231f20;stroke-width: 10 } 
		.s7 { fill: #231f20 } 
		.s8 { fill: #fff200;stroke: #231f20;stroke-width: 6 } 
		.s9 { fill: none;stroke: #231f20;stroke-width: 6 } 
	</style>
	<path id="Path 1" class="s0" d="m634.5 5.5v525.7c0 173.9-140.9 314.8-314.7 314.8-173.9 0-314.8-140.9-314.8-314.8v-525.7z"/>
	<path id="Path 2" class="s1" d="m10.1 10.5h619.5v122.3h-619.5zm601.8 501.6v19.9c-0.5 160.7-131.3 291.3-292.1 291.3-160.8 0-291.7-130.6-292.1-291.4v-19.8h83.4v37.2h83.5v-37.2h83.4v37.2h83.5v-37.2h83.5v37.2h83.4v-37.2z"/>
	<path id="Path 3" class="s2" d="m611.9 512.1v20c-0.5 160.6-131.3 291.2-292.1 291.2-160.8 0-291.7-130.6-292.1-291.3v-19.9h83.4v37.2h83.5v-37.2h83.4v37.2h83.5v-37.2h83.5v37.2h83.4v-37.2z"/>
	<path id="Path 4" class="s3" d="m467.7 783c-43.4 25.6-94 40.3-147.9 40.3-54 0-104.6-14.7-148-40.3z"/>
	<path id="Path 5" class="s3" d="m205.2 596l40.9 58 73.7-99.1 73.6 98.9 40.7-57.8 82.5 147.2h-393.4z"/>
	<path id="Path 6" class="s4" d="m319.8 707.9v75.1h-104.9v-75.1c0-28.9 23.5-52.4 52.4-52.4 29 0 52.5 23.5 52.5 52.4z"/>
	<path id="Path 7" class="s4" d="m309.6 707.9v75.1h-84.5v-75.1c0-23.2 19-42.2 42.2-42.2 23.3 0 42.3 19 42.3 42.2z"/>
	<path id="Path 8" class="s5" d="m299.4 707.9v75.1h-64.1v-75.1c0-17.6 14.4-32 32-32 17.7 0 32.1 14.4 32.1 32z"/>
	<path id="Path 9" class="s4" d="m424.6 707.9v75.1h-104.8v-75.1c0-28.9 23.4-52.4 52.4-52.4 29 0 52.4 23.5 52.4 52.4z"/>
	<path id="Path 10" class="s4" d="m414.4 707.9v75.1h-84.4v-75.1c0-23.2 18.9-42.2 42.2-42.2 23.3 0 42.2 19 42.2 42.2z"/>
	<path id="Path 11" class="s5" d="m404.2 707.9v75.1h-64v-75.1c0-17.6 14.3-32 32-32 17.7 0 32 14.4 32 32z"/>
	<path id="Path 12" class="s6" d="m5 137.7h629.5v43h-629.5z"/>
	<path id="КОСТЕНЕЦ" class="s7" aria-label="КОСТЕНЕЦ"  d="m38 111v-72.9h15.3v31q2.7 0 5.7-3.2 3.1-3.2 8-11.1l10.7-16.7h15.5l-13.7 20.9q-6.4 9.8-8.8 11.6l25.1 40.4h-16.7l-19.3-33.1q-1.1 0.6-3.1 1.2-2 0.6-3.5 0.6v31.3zm135.6-36.8q0 11.4-4.5 20-4.5 8.7-12.9 13.3-8.4 4.5-19.5 4.5-17.2 0-27-10.1-9.7-10.1-9.7-27.7 0-17.5 9.7-27.4 9.7-9.8 27.1-9.8 17.3 0 27 9.9 9.8 10 9.8 27.3zm-15.6 0q0-11.8-5.6-18.5-5.5-6.7-15.6-6.7-10.3 0-15.9 6.7-5.6 6.6-5.6 18.5 0 12 5.7 18.9 5.8 6.9 15.7 6.9 10.2 0 15.7-6.7 5.6-6.7 5.6-19.1zm61.2 25.8q13.8 0 19.2-13.8l13.3 5q-4.3 10.5-12.6 15.7-8.3 5.1-19.9 5.1-17.6 0-27.2-9.9-9.6-10-9.6-27.9 0-18 9.3-27.6 9.2-9.6 26.8-9.6 12.9 0 20.9 5.2 8.1 5.1 11.4 15.1l-13.5 3.7q-1.7-5.5-6.7-8.7-5-3.3-11.7-3.3-10.4 0-15.8 6.4-5.3 6.4-5.3 18.8 0 12.6 5.5 19.2 5.5 6.6 15.9 6.6zm96.4-50.1h-23.6v61.1h-15.3v-61.1h-23.5v-11.8h62.4zm67.7 61.1h-59.5v-72.9h57.4v11.8h-42.1v18.3h38.9v11.8h-38.9v19.2h44.2zm73.5 0h-15.2v-31.3h-31.8v31.3h-15.3v-72.9h15.3v29h31.8v-29h15.2zm73.7 0h-59.4v-73h57.3v11.8h-42.1v18.4h39v11.8h-39v19.2h44.2zm80.8 21.1h-12.9v-21.1h-56.6v-73h15.2v60.3h29.5v-60.3h14.7v60.3h10.1z"/>
	<path id="Path 14" class="s8" d="m307 270.6h25.6v235.6h-25.6z"/>
	<path id="Path 15" class="s8" d="m342.2 241.3c0 0 21.4 29.3-21.5 29.3-39.5 0-28.6-23.6-23-29.3 17.7-19.5 23-46.2 23-46.2 4.2 21.4 21.5 46.2 21.5 46.2z"/>
	<path id="Path 16" class="s8" d="m332.6 254.1c0 7.1-5.8 12.8-12.8 12.8-7.1 0-12.8-5.7-12.8-12.8 0-7 5.7-12.8 12.8-12.8 7 0 12.8 5.8 12.8 12.8z"/>
	<path id="Path 17" class="s8" d="m22.2 270.8c0-48.2 58.3-49.7 58.3-49.7 0 0 31.2-2.8 31.7 49 0 64-81.1 114.2-30.5 134.7 48.2 5.2 49.8-76.7 49.8-76.7 0 0-1.3-58.8-4.3-75.8-6.2-28.5-25.2-45.5-22.7-53.2 20.7-12 99.5 4 100.5 11.7 1 7.8-19.8 3-24 3.3-4.3 0.2-7.1 0.7-8.3 9.5-1.5 19.2 24.5 25.3 30.4 23.4 4.4-1.4 8.4-2.2 9.9 1.8 1.5 4-5.3 5.8-15.5 7.3 13.2 11 13 64 12 76.5 27.7 4.7 35.7 18.2 38.2 20.2 2.5 2 5.8 0.8 5.8-4.7 0-5.5 3.6-10 8.9-10 5.2 0 9.8 2.2 9.8 8.7 0 6.5 2.5 7.2 11.8 7.3 8.2 0.1 7.7 6.2 7.7 6.2 0 0 0.6 9.1-8.7 8.5-12.1-0.6-12 10.3-12 10.3 0 0 0.7 9.2-10 9.2-12.8 0-11.8-10.7-12-16-48.5-46.9-85.9-8.6-87.5 6.2 89.2 2.5 73.9 33.3 66 46.2-11.7 16.3-18.7 34.4-17.5 45.6 1.2 11.2 11.3-3.6 12.2-5.7 2.4-4.8 10.1-3.8 9.9 2.6-0.6 18.7 7.8 6.9 17.1 11.2 10.3 4.8 5.3 14.5-4.8 12.2-10.9-2.5-12.3 1.4-7.1 10.1 3.6 6.2-21.2-3.2-23.7-5.1-6.8-5.3-16.6-3.4-16.6-3.4-7.7-9.8-7-31-6.6-57.4 0.3-26.3-23.3-29.1-29.6-29.1-2.4 46.5-69.1 51.4-69.2 51.4-0.1 0 0.5 9.4 6 6.9 11.8-5.5 17.7-2.1 24.5-2.8 0.6 11.5 4.4 9.8 16.9 13.6 12.5 3.8-5.6 13.5-5.6 13.5-24.3 2.5-25 7.7-27.4 12.2-24.7-1-29.9-27.1-29.9-27.1 0 0-3.8 9.7-6.6 5.9-2.8-3.8 5.9-21.2 4.2-31.6 20.8-1 25.3-16.7 25.4-27.4-61.1-4.2-49.5-51.5-38.6-67.8 36.4-50.3 36.8-62.5 38.5-82.3 1.8-19.8-28.1-47.2-50.3-23.6-22.3 23.6 2.6 20.5 18.6 23.5-17.2 32-22.2 67.1-22.2 67.1 0 0-22.9-28.7-22.9-66.4z"/>
	<path id="Path 18" class="s8" d="m237.7 290.9c14.5 0 14-10.8 14-10.8 0 0 0.2-9.4 8.9-9.4 8.8 0 8.5 6.6 8.8 7.8 0.3 1.3-1.8 7 8.1 8.2 10 1.2 10.6 4.5 10.6 7.5 0 3.1-2.7 7-10.6 7-7.8 0-6.3 8.8-6.3 8.8 0 0 3.6 9.3-7.8 9.3-11.5 0-9.4-13.9-9.4-13.9 0 0-3-0.3-13.3 0.3-10.3 0.6-10.6 3.9-12.4 9.4-12.4-4.5-13-26-13-26 3.4 1.2 7.9 1.8 22.4 1.8z"/>
	<path id="Path 19" class="s8" d="m211.4 231.4c0 0 6.1-5.7 14.5 0 8.5 5.8 18.7-0.6 18.4-4.8-0.3-4.2-7.2-4.8-19-7.2 5.1-2.2 30.8-10.1 30.8 6.8 0 17-12.4 25.5-22.3 25.5-10 0-22.4-20.3-22.4-20.3z"/>
	<path id="Path 20" class="s9" d="m197.5 256.1c0 0-38.1-6.4-70.3-3.8m82.3 80.3c0 0-30.2-6.8-77.9-5.4m20.2-75.4c0 0 2.7 20 4.6 44.7 1.1 14.4-1.3 30.5-1.3 30.5m22-73.5c0 0 3 17.2 4.5 38.9 1 14.8 0.4 36.3 0.4 36.3m-15.6-114.7c1.4 6-5.4 10.5-12.1 10.5-6.8 0-12.3-4.3-12.3-10.5 0-6.2 5.9-11.9 12.3-9.8 6.3 2.1 11.2 5.9 12.1 9.8z"/>
	<path id="Path 21" class="s8" d="m594.4 337.5c0 0-4.9-35.1-22.1-67.1 16-3.1 40.8 0.1 18.6-23.5-22.3-23.7-52.1 3.8-50.4 23.6 1.8 19.8 2.1 31.9 38.6 82.3 10.9 16.3 22.4 63.5-38.7 67.7 0.1 10.8 4.6 26.4 25.5 27.5-1.8 10.4 7 27.7 4.2 31.6-2.8 3.8-6.7-5.9-6.7-5.9 0 0-5.2 26-29.8 27-2.5-4.5-3.2-9.7-27.5-12.1 0 0-18-9.7-5.5-13.6 12.5-3.8 16.2-2 16.8-13.5 6.8 0.7 12.7-2.8 24.5 2.8 5.6 2.4 6.2-7 6-7-0.1 0-66.8-4.8-69.2-51.4-6.2 0-29.9 2.8-29.5 29.2 0.3 26.4 1 47.6-6.6 57.3 0 0-9.8-1.8-16.7 3.5-2.5 1.9-27.3 11.3-23.6 5.1 5.1-8.8 3.8-12.7-7.2-10.1-10.1 2.3-15.1-7.4-4.8-12.2 9.3-4.4 17.7 7.4 17.1-11.2-0.2-6.4 7.6-7.5 9.9-2.6 1 2 11.1 16.9 12.2 5.7 1.2-11.2-5.8-29.3-17.4-45.7-7.9-12.8-23.3-43.7 66-46.2-1.7-14.8-39.1-53-87.6-6.2-0.2 5.3 0.8 16.1-12 16.1-10.6 0-10-9.3-10-9.3 0 0 0.2-10.9-12-10.2-9.3 0.5-8.7-8.5-8.7-8.5 0 0-0.5-6.2 7.7-6.3 9.3-0.1 11.8-0.7 11.8-7.2 0-6.5 4.6-8.8 9.8-8.8 5.3 0 8.9 4.5 8.9 10 0 5.5 3.3 6.8 5.8 4.8 2.5-2 10.5-15.5 38.2-20.3-1-12.5-1.2-65.5 12-76.5-10.2-1.5-17-3.2-15.5-7.2 1.5-4 5.6-3.3 9.9-1.9 5.9 1.9 31.9-4.1 30.4-23.4-1.1-8.7-4-9.2-8.3-9.5-4.2-0.2-25 4.5-24-3.2 1-7.8 79.8-23.8 100.5-11.8 2.5 7.8-16.4 24.7-22.7 53.3-3 17-4.3 75.7-4.3 75.7 0 0 1.6 81.9 49.8 76.8 50.6-20.5-30.5-70.8-30.5-134.8 0.5-51.7 31.7-49 31.7-49 0 0 58.3 1.5 58.3 49.8 0 37.7-22.9 66.4-22.9 66.4z"/>
	<path id="Path 22" class="s8" d="m424.2 289.4c0 0-0.6 21.4-13 25.9-1.8-5.4-2.1-8.7-12.4-9.3-10.2-0.6-13.3-0.3-13.3-0.3 0 0 2.2 13.9-9.3 13.9-11.5 0-7.9-9.4-7.9-9.4 0 0 1.5-8.7-6.3-8.7-7.9 0-10.6-4-10.6-7 0-3 0.6-6.3 10.6-7.5 10-1.3 7.9-7 8.1-8.2 0.4-1.2 0-7.8 8.8-7.8 8.8 0 8.9 9.3 8.9 9.3 0 0-0.4 10.9 14.1 10.9 14.5 0 19-0.6 22.3-1.8z"/>
	<path id="Path 23" class="s8" d="m405.8 251.9c-10 0-22.4-8.4-22.4-25.4 0-17 25.7-9 30.8-6.9-11.7 2.4-18.7 3-19 7.3-0.3 4.2 10 10.5 18.4 4.8 8.5-5.7 14.5 0 14.5 0 0 0-12.4 20.2-22.3 20.2z"/>
	<path id="Path 24" class="s9" d="m442 256.3c0 0 38.1-6.4 70.3-3.7m-82.3 80.2c0 0 30.2-6.7 77.9-5.3m-23.5-0.2c0 0-2.4-16.1-1.2-30.5 1.9-24.8 4.5-44.7 4.5-44.7m-30.2 76.9c0 0-0.6-21.5 0.4-36.4 1.6-21.6 4.5-38.9 4.5-38.9m22.9-49.2c6.4-2.2 12.3 3.5 12.3 9.7 0 6.2-5.6 10.5-12.3 10.5-6.8 0-13.5-4.5-12.1-10.5 0.9-3.8 5.8-7.6 12.1-9.7z"/>
</svg>