<svg version="1.2" xmlns="http://www.w3.org/2000/svg" viewBox="0 0 820 884" width="820" height="884">
	<title>Razgrad-pdf</title>
	<defs>
		<linearGradient id="g1" x1="3.3" y1="441.3" x2="817.7" y2="441.3" gradientUnits="userSpaceOnUse">
			<stop offset="0" stop-color="#d17857"/>
			<stop offset=".3" stop-color="#d17857"/>
			<stop offset=".5" stop-color="#ffffff"/>
			<stop offset=".8" stop-color="#e19454"/>
			<stop offset="1" stop-color="#e19454"/>
		</linearGradient>
	</defs>
	<style>
		.s0 { fill: #ffffff } 
		.s1 { fill: url(#g1);stroke: #ed1c24;stroke-width: .4 } 
		.s2 { fill: #dd1f2a } 
		.s3 { fill: none;stroke: #ed1c24;stroke-width: .4 } 
		.s4 { fill: #dd1f2a;stroke: #ed1c24;stroke-width: .4 } 
		.s5 { fill: #5dad34 } 
		.s6 { fill: #5dae40 } 
		.s7 { fill: #e0ab20 } 
		.s8 { fill: #ffffff;stroke: #fff200;stroke-width: .4 } 
		.s9 { fill: #231f20 } 
		.s10 { fill: none;stroke: #231f20;stroke-width: .4 } 
	</style>
	<path id="Path 1" class="s0" d="m19.1 309l10.1-9.8 15.5 15.8-10.3 5.4-8.3 6.2zm-11.3-34.1l24.9-25.9 35.7-18 46.1-12.8 33.3-1.8-5.6 20.5-23.2 3.3-26.8 5.5-28.2 11.3-22.9 16.6-14.4 16.3-12.4-5.7z"/>
	<path id="Path 2" class="s1" d="m244.2 2.9h82.5l1.3 23.8 37.9-0.1 0.8-23.9 82.1-0.9 1.2 23.3 37.7 1.1 0.4-21.8 3.2-2.9h74.9l6.4 3.2 0.1 71.7 2.5 6.6 14.2 2.5 8.6 6.4-1.4 15.9 4.2 5.4h11.8l26.4 2.9 17.4 4 19.5 6.6 4 3.6-2.3 20.4 1.4 24.7 33 6.9 54.5 20.3 31.8 22.2 17 23.7 2.4 8.3-19.3 17.2 7.2 13.7-5.3 23.7-6.6 48.7-3.6 18.9-9.5 10.8-21.7 8.1 0.1 29.3-1.5 50.9-1.1 57.4-3.6 17-13.5 17.5-23.5 9.4-0.9 21.1-1.7 52.6-6.7 36.2-15.5 33.3-33.1 43.2-27 24-57.2 37.1-75.6 29.1-87.9 25.1-46.5-12.7-33.5-12.2-41.3-15.2-59.1-28-44-32-22.6-20-23.2-29.9-17.7-31-12.7-37.6-1.4-46.5-1.4-42.4-16.8-6.1-14-12-9-19.9-1.7-53.5-2.5-86.2-10.2-2.9-19.1-12.6-4.6-13.9-2.7-26.5-9.4-53.2 7-12.7-20.5-19.7 3.8-11.2 27.3-29 39.7-20 22-8.1 43.8-11.3 0.5-6.9v-20.8l-2.2-18.1 10.8-5.7 16.8-5.9 14.2-2 41.7-2.2-2.3-10.6-1.2-5.2 1.5-7.5 8.5-4.1 15.4-4.4z"/>
	<path id="Path 3" class="s2" d="m263 339.3h299.8v233.2l-9.6 22.5-10.6 21.8-13.7 17.5-19.7 18.7-16.2 10.3-25.5 10.4-31 7.5-26 3-23.7-2.2-26.9-7.8-24.6-8.9-18.2-10.9-18.2-14.5-15.8-17.9-11.7-22.1-8.4-27.4zm-180.8 170l13-8.2 14.8-5.8 17.5-4.6 17.5-6.5 16.2-8.1 13.6-11.6 6.8-9.4 5.3 4.3-4.6 25-31.3 21.4-47.6 15.1-21.7 8.4-0.7-9.6z"/>
	<path id="Path 4" class="s3" d="m82.2 509.3l13-8.2 14.8-5.8 17.5-4.6 17.5-6.5 16.2-8.1 13.6-11.6 6.8-9.4 5.3 4.3-4.6 25-31.3 21.4-47.6 15.1-21.7 8.4-0.7-9.6z"/>
	<path id="Path 5" class="s4" d="m740.8 520.8l1.5 15.4-30.2-11.9-48.7-17-22.9-18.8-4.6-22.1 4-11 5 9.1 13.6 11.6 15.7 9.2 17.1 7.9 16.4 5.3 14.6 5.8 11.7 7.5z"/>
	<path id="Path 6" class="s5" d="m80.9 486.1l13.6-10.4 19.9-6.4 16.7-4.3 13.6-5.7 14-7.4 13.5-10 7.8-9.2 1.6 22.7-12.1 15-23.7 14-23.5 8.2-25.5 6.8-13.1 8.6-3.9-10.9zm659.8 10.9l1.4 8.6-0.7 12-17.3-12.5-19.3-7.6-29.5-10.8-13.3-7.7-11-8.6-12.1-15 1.6-22.7 7.8 9.2 13 10.7 14.3 8.7 13.6 7 15.4 5.8 18.1 6.3 12.7 7.9z"/>
	<path id="Path 7" class="s0" d="m77 463l13.9-8.5 45.9-17 29.9-17.4 15.2-12.8-1.4 25.1-8.7 8.2-9.5 9.4-19.8 10.3-21.4 7.9-20.6 6.1-19.6 9.2zm664.5 30.1l-9.3-5.9-13.2-8-32.6-12.2-16-8.7-12.5-8.2-9.2-8.3-8.3-9.4-1.4-25.1 15.2 12.9 29.9 17.3 45.9 17 13.8 8.5z"/>
	<path id="Path 8" class="s2" d="m37.2 329.3l11.2-8.1 14.4-5.7 13.3 2.7 16.4-8.3 10.2-3.3 17.6-4.1 23.4-8 6-4.5-0.8-4.6 21.4 2.8 5.4 8.2-10 14.1-31.7 11.4-46.8 8.9-23.2 9.4-23.6 13.7zm609.9-36.3l15.1-6.5 14.1 0.6-1.8 5.7 3 5.5 11.2 4 14.9 2.5 17.1 1.4 6.7 6.8 15.4 6.7 14.4-4.9 10.5 4.5 10.7 5.2 7.3 9.3-2.9 21.5-34.8-16.3-33.8-9.4-33.8-6.6-33.8-16.8z"/>
	<path id="Path 9" class="s5" d="m99.1 304.9l19.3-11.4 28.3-8.1 2.3 4.1-3.4 4.2-18.9 6.7-23.2 6.3zm581.1-17.4l15.4 4 12.8 6 9.1 8.5-18.6-2.2-14-2.8-7.8-3.4-2.4-6.3z"/>
	<path id="Path 10" class="s6" d="m34.3 307.2l8.3-7.4 9.4-4.9 11.8 20.1-13.9 5.2-10.6 6.4zm736.3-11.4l9.8 5.2 7.4 6.9-4.7 20-12.5-7.6-12.5-5.6z"/>
	<path id="Path 11" class="s0" d="m27.8 287.5l9.6-10.6 14.9 17.1-9.9 5.9-8 6.7zm759.4 19.2l-8-6.8-9.9-5.9 14.9-17.1 9.7 10.6z"/>
	<path id="Path 12" class="s2" d="m51.8 285.3l15.3-17 15.7-13.5 16.6-10.2 19.8-7.4 18.3-5.3 19.8-2.8 35.7-1 25.4 3.1 24.7 4.3 21.6 6.5 19.3 6.8 7.4 3 7.4-3.1 6 4.8-9 13.2-12 2.9-61.1-13.8-68.2 0.4-40.5 9.3-36.7 20.2-13.8 21.1zm705.7 21.5l-13.8-21.1-36.7-20.2-40.6-9.3-68.1-0.4-61.1 13.8-12.1-2.9-9-13.1 1.6-4.6 4.4-0.3 7.4 3.1 7.5-2.9 19.3-6.9 21.5-6.4 24.8-4.3 25.4-3.2 35.6 1 19.8 2.8 18.3 5.4 19.9 7.3 16.6 10.3 15.6 13.5 15.4 16.9z"/>
	<path id="Path 13" class="s5" d="m189.9 224l41.4-5.5 37 8.8 28.1 16.2 1.1 5.6-4.7 2.7-7.6-1.7-24.7-9.8-19.9-5.1-23.2-4.5-25.1-2.6zm436 5l-25.1 2.5-23.2 4.8-20.2 4.6-24.4 9.3-7.6 1.7-4.7-2.7 1.1-5.6 28.1-16.3 37-8.8 41.4 5.5zm-591.4 40.1l16.6-21.5 19.1-15.5 22-10.4 26.4-8.4 26.7-4.2 6.7 19.7-2.9 2.6-23 3.4-28.4 11.2-19.2 12.1-14.1 13.2-12.7 12.3zm735.2 16.7l-13.3-14.5-14.6-13.2-19.7-11.6-28.9-11.1-23.5-4-1.4-2.6 6.8-20.8 26.9 3.7 26.1 9.6 22 10.8 19.1 15.5 16.1 18.7z"/>
	<path id="Path 14" class="s0" d="m16.9 250.5l23.9-28.1 34.3-19.5 44.3-13.9 31.9-2-5.3 22.3-22.3 3.6-25.7 6-27.1 12.2-22 18-13.8 17.7-12-6.2zm779.9 10.2l-11.9 6.1-13.8-17.7-22-18-27.1-12.2-24.1-7.3-23.4-3.2-5.8-21.4 31.9 2 44.3 13.9 34.2 19.5 24 28.1z"/>
	<path id="Path 15" class="s4" d="m238.6 200h41.6l41.6-8.7 19.2 6.9-12.3 16.7-23 6.2-42.1-6.6z"/>
	<path id="Path 16" class="s4" d="m555.8 214.5l-42.2 6.6-26.6-6.6-8.6-16.3 19.1-6.9 41.6 8.7h45.8z"/>
	<path id="Path 17" class="s4" d="m668.8 199.7l-13.2-3.4-14.5-3.5-15.7-1.1-17.4 2.1-24.2 5.3 10-15.8-2.4-8.4 12.7-4 16.4-1.2 21.8 2.2 14.6 5.5 10.1 4.9z"/>
	<path id="Path 18" class="s4" d="m151.2 182.3l10.1-4.9 14.6-5.5 21.7-2.2 16.4 1.2 12.8 4-2.4 8.4 10 15.8-24.2-5.3-17.5-2.1-15.7 1.1-14.4 3.5-13.2 3.4z"/>
	<path id="Path 19" class="s5" d="m664.6 180.6l-13.2-5.8-14.2-3.3-15.2-2.1-17.7 0.5-10.3 3.6-6.8-23.2 12.8-4 16.3-1.2 21.8 3.1 24.7 9.5zm-508.5-23l24.7-10.3 21.8-2.2 16.4 1.1 12.7 4.1-7 24-10.1-3.6-17.7-1-15.2 1.8-14.2 3.3-13.2 5.8z"/>
	<path id="Path 20" class="s0" d="m664.8 158.4l-14.6-6.4-12.8-4.4-15.7-2.9-14.4 0.6-19.7 3.8-1.5-23.5 52.2-0.4 30.7 14zm-514.7-19.2l30.7-14 52.2 0.4-1.5 23.5-19.8-3.8-14.3-0.6-15.7 2.9-12.9 4.4-14.5 6.4z"/>
	<path id="Path 21" class="s4" d="m231.8 94.1l341.9-1.5 12.5 5.4-2.1 32.6 8.3 52.7-20.7-8.3h-328.9l-12.8 5.8-1.8-4.1z"/>
	<path id="Path 22" class="s7" d="m352.4 384.7l8.9-6.8 9.1-2.2-0.5 11.9 1.7 4.5 11.8 2.2 13.1 6 12.7 8.3 9.3 11.6 9.9 18 6.7 39.5 8.4-0.8 32.7-17.1 19-20.8 7.6-24 1.4-27 9.1 6.1 8.7 19.8-7 28.5 4.7 0.7 14.7-26.8 2.5 20.2-6.7 24.9 6.3 1.8 12.6-6.1-6.8 18.5-29.2 27 16.4-0.1-0.4 4.9-15.6 14-49.2 23.4-28.6 7.8-13.4 2.5-10.5 1.3-10.5-1.9-24.3 0.4-14.8-7.9-12.1-3.5-17.7-1.5-5.1 1.6-0.8-4.2-10.3-0.4-0.9 9.6-11.4 18.4 7.1 10.7-0.2 6.5 9.8 15.2-0.7 4.3-7.2-1.2-9.8-5.1-8 2.8-15.9-13.9-0.2-9.5-3-7 11.1-29.9 16.9-9.3 4.9-6.1 3.1-1.6 7.1 2.5 5-3.3-5.7-19.8 3.9-17.4 5.3-9.6 1.1-4.7 4.3-8 8.5-19-5-1.9-7.5 0.5-8.9 3.7-10.3 6.8-3-2.5-3.9 1.4-3.2-4.7-6.5-1-7.1-1.3-6.2-3.2 3.8-3.8 1.3-7.4 6.4-2.6 8.3-2.7 0.7-2.8 16.1-9.4 6.7-4.1 16.2-9.7 7.6-5.2 4.3-2.6z"/>
	<path id="Path 23" class="s8" d="m254.8 113.8l37.1-0.2 4.6 1.6 4.8 2.3 2.6 3.5-0.2 3.5-1.3 3-3.6 2.7-4.7 1.5-5.4-0.3-6-3.7 3.7-0.9 2.6-2.6-0.1-3.5-1.9-2.2-3.2-1-7.9 0.2 2.3 4.9-0.1 19.4-1.6 2.4-2.3 1.8-14.8 0.5 1.8-2.1 0.5-24.6-7-4.4z"/>
	<path id="Path 24" fill-rule="evenodd" class="s0" d="m305.1 114.2l23.3-0.2 13.3 31.7-2 0.9h-18.3v-1.1l2.7-3.1-3.4-6.6-11.7-0.2-4.6 5.5-4.9 3.8-5.2 1.2 0.7-2 3.6-3.1 10.6-21.8-3.5-3.5zm9.2 14.4l-1.8 2.6 0.6 0.9h5.6l-0.9-4.2-2-1.6zm22.4-14.7l38.6-0.2 0.4 1.8-9.3 16.1 1 0.5 13-0.2 1 0.9-5.6 8.3-5.5 5.9-5.2 3-3.8 1.6-3.9 0.4 0.3-2 9.4-13.4-1.9-0.9-10.5 0.6-11.7-0.5-0.1-1.6 15.2-16.5h-9.9l-3.2 4.4-1 2.3-2.2 3.4zm40.2-0.1h81.7l7.3 2.9 3.9 3.6 0.2 4.6-2.7 4.2-5.5 2.9-6.2-0.1-5.7-2.3-1.9-2.3 2.8-0.4 3.7-2.3 0.9-4.5-3.3-2.4-9.7-0.1 1.7 2.2 0.4 21.2-1 2.6-4.2 2.9-14.8-0.3 2.3-2.4 0.8-2.1v-19l-0.7-3.3-5.2-2.9-4.4 10.8-1.3 0.3-6.3-10-10.4 0.1 2.2 2.5 0.4 19.1-1.4 3.5-2.7 2.1-3.1 1.2-10.2 0.2-1.5-1 2.4-3.2-0.6-22.1-6.8-4z"/>
	<path id="Path 25" fill-rule="evenodd" class="s0" d="m471.9 114.3h23.5l12.9 27 2.5 0.4 12.7-22.6-0.1-1.6-2.9-3.6 23.6 0.4 14.3 27.2 7.7 0.6 0.9 1.7-7.9 10.3h-1.3l-4-7.6-40.7-0.3-5.4 8.2-1.5-1-3.8-6.8-15.3-0.2 3.4-4.1-3.1-6.5-11.6-0.3-5.1 7.1-4.6 3.1-5.9 0.8 0.4-2 3.7-3.2 11.7-21.9-3.1-2.9zm7.3 17.3l4.4 0.4 1.6-0.8-2.1-5.8-4.4 5zm45 1.6l-5.7 8 1.1 1.1 17.1-0.2 1.4-0.8-7.5-16.1-1.7 0.7z"/>
	<path id="Path 26" fill-rule="evenodd" class="s9" d="m241.8 5.4c0-0.8 1.2-2.8 2.6-3.5 28.7 0 53.2 0 81.9 0 0.9 0.1 1.5 1.4 1.6 2.4 0.6 7 0.8 16.5 1.3 21.7 11.9-0.1 23.4-0.5 35.4-0.4 0.1-6.8-0.4-14.3 0.2-21.1 0.1-1.5 1-3.3 2.7-3.9 28.4-0.1 52.5-0.2 80.9-0.2 1 0 1.8 1.1 1.8 1.7 0.5 7.7 0.1 14.9 0.7 22.7 11.6-0.5 24.4-0.1 35.9-0.6 0.5-6.7-0.2-13.3 0.3-20 0.1-1.2 1.5-3.2 2.8-3.8 26.5-0.1 51.8-0.1 78.4-0.1 3.3 0.4 5.3 1.4 5.1 3.3q0.5 35.5 0.9 71c-0.4 3.5 0.5 6.2 5.2 7.4 8.8 0.8 20.7 3.6 19.7 13.6-1 10-1 7.5-1.3 11.8 0.7 2.7 0.9 4 6.6 4.9 24.2-0.4 50.9 4 71.8 13.7 4.2 1.4 5.4 3.5 4.9 5.8-2 15.6-2.9 28.7-1.2 42.2 70.4 14.4 124.4 37.7 138.7 81.1 1.3 5.2-9.4 11.9-18.3 19.7 5 6.7 7.8 13.2 6.5 16.7-8.6 28.2-8.8 52.6-13.8 80.8-2.5 14.8-13 23.7-32.7 27.1-0.4 48-1.5 96-2.8 142.9-5 21.6-18.6 32.5-40.9 39.2 0.4 42.7 2.7 86-15.1 124.5-26.9 53.1-71.2 95.9-137.4 126.5-48.4 20.6-100 37.1-154.1 50.6-60.4-14.8-115.5-34.8-166.2-59.4-44.3-25.7-83.1-55.5-108.8-94.8-20.7-30.9-28-61.8-29.9-92.6 1.2-20.2 0.9-39.9 0.3-59.7-22.7-7.7-35.9-21.9-40.6-41.1q-0.7-24.6-1.4-49.3c-1.3-30.2-2.2-60-2.5-89.1-20.6-3.9-31.1-13.5-33.7-28.8-2-22.1-4.8-45-10.4-69.7-1.3-11-4.7-15.3 4.9-24.1-1-2.3-6.9-7.1-15.1-13.1-6.4-6.2-6.8-7.7-2.1-16.5 8.4-15.4 23.4-29 43.9-41 25.3-13 55.7-22.5 89.6-30.3 1.9-14.3 1.2-30.4-1.3-45.4 18.6-10.7 41.9-17.4 79.2-15.5 3.6 0 4.9 0.4 4.5-2-1.4-5.2-3.3-9.7-3.3-15.3 0.2-4.5 3.4-8.2 9.9-11 3.8-1.4 7.8-2.6 12.3-3.5q2.6-0.6 2.4-2.8c0-24.6-0.1-48.1 0-72.7zm3.4 74.7q0.3 2.2-2.3 2.8c-4.4 0.9-10 2-13.7 3.4-7.4 3-8.8 4.5-9.3 11.1 0.4 5.5 2.2 7.5 3.1 12.8 0.3 2.2-0.7 4.2-4.2 4.2-36.8-1.9-60 4.1-78.3 14.6-0.7 0.8-1 1.4-0.9 2.1 2.1 14.4 3.4 31.1 1.5 44.5-22.2 7.1-91.3 15.4-132.9 68.7-4.7 8.6-3.6 9.9 2.7 16 9.2 5.9 14.7 10.5 15.9 14.8-10.6 8.8-8.9 14.3-6.1 26.1 5.5 24.3 8.1 46.4 10.1 68.1 4.8 14.6 16.2 20.8 34.2 24.5 0.3 28.7 2.1 62 3.4 91.8-0.1 16.4-0.2 32.4 0.3 48.6 5.3 21 20.2 32.9 34.7 35.7 1.7 0.3 0.1-1.6-0.7-1.8-19.2-9.2-26.5-19.7-28.4-31.6 0.4-21.2-0.1-55.2-2.7-67.7-0.7-3.2 1.1-14.3 13.3-18.4 17.1-7.6 83.4-23.5 96.1-54.6 2.3-15.9-3.4-10.9-0.1-21.4 5 4 9 2.5 7.5 38.1-0.3 6.6-1.4 8.2-2.2 16.4-1.3 12.4 4.8 16.5 4.4 41.9-0.3 25.5-28.5 35.8-52.5 47.1-4.4 2.1-24.7 6.6-27.6 9.7-0.9 2-1.1 47-0.7 47.1 0.6 19.5 0.9 39-0.3 58.8 1.9 30.4 9.1 60.9 29.5 91.3 25.3 38.8 62.4 69.1 106.2 94.4 49.9 24.2 106.1 45.4 165.6 59.9 53.4-13.2 104.4-30.3 152.1-50.5 65.3-30.2 109.7-73.4 136.2-125.7 13.5-39.1 12-82.6 13.3-124.2 0-4.8-0.4-46.9-0.3-49.4-24-7.1-47.9-16.4-58.5-24.8-12.6-7.5-25.2-20-23.6-34.7 4.1-19.9 3.6-39.1 3-60.9-4.6-14.6 1.8-30.6 8-36.5 2.3-2.5 4.5-4 3.8 2.7-6.1 7.9-6.5 18.1-3 23 14.8 26.3 45.4 39.4 83 52.5 9.2 3.3 15.6 4.8 20.2 7.6 4.1 3.6 5.6 4.3 5.4 13.2-3.3 21.3-1.4 41.6-2.2 56.7-1.5 27.2-7.1 28.9-13 34.7-2.6 2.9-18.4 12.1-18.7 12.1-0.3 0.6 0.1 1.2 0.4 1.2 20-3.6 33-14.7 37.3-35.3 1.3-46.2 2.3-95.7 2.7-143.1 0.2-1.2 1.6-2.5 3-2.6 16.2-2 27-8.4 30.4-22.2 4.9-27.7 4.5-53.4 12.9-81.2 0.7-3.4-0.5-7.7-5.6-13.5-1.3-1.4-2.4-3.5-1.4-5 8.4-8.5 19.7-13.1 20.3-18.1-16.6-42.5-70.6-65.2-139.9-78.2-1.7-13.3-0.8-28.9 1.1-44.3 0.5-2.2-0.6-4.4-4.8-5.7-20.6-9.6-49-12.9-72.8-12.6-6.2-0.9-4.6-3.1-5-5.7 0.2-4.3 0.5-1.8 1.6-11.7 1.1-9.5-12.1-11.5-21.1-12.7-4.6-1.1-4.5-3.7-4.6-7.2-0.3-23.3 0.4-47.6 0.1-70.9 0.2-1.9-1.8-2.9-5.1-3.3-26.2 0-47.8 0-73.9 0.1-2.5 0-3.1 1.1-2.7 3.8-0.4 5.4-0.1 11.7-0.2 17.4 0 1.9-1.1 3.4-2.8 3.7-11.4 0.4-21.2 0.1-32.6 0.5-2.8 0.3-5-2.1-5-3.8-0.2-6.6 0-13.4-0.4-19.8-0.1-0.6-0.5-1.4-1.5-1.5-28 0-48.8 0.1-76.8 0.2-1.6 0.6-2.5 2.4-2.7 3.8-0.4 5.8-0.1 12.5-0.1 18.6 0.1 1-1.2 2.7-2.5 2.9-11.9-0.2-22.3 0.3-34 0.4-2.4-0.4-4-2-4-3.1-0.3-5.6-0.3-13.9-0.8-19.6-0.1-1 0-2.3-1.5-2.4-28.3 0-49.5 0-77.8 0-1.6 0.6-2.1 2.6-1.9 3.5-0.2 24.3 0.5 48.4 0.5 72.6zm-162.1 447.2c5.2-4.2 15.9-7.3 23.3-9.6 36.9-9.5 56.8-18.6 71.3-36 4.3-4.9 7.3-15.7 4.6-23.1-11.4 17.3-38.3 30-67 36.8-25.3 6.4-35.1 14.9-32.2 31.9zm22.3 34.1l-0.7-33.1c-26.1 3.8-24.6 21.5 0.7 33.1zm132.4-470.8h105.3q116.9-0.6 233.8-1.2c8.7 1.2 11.5 3.5 12.1 7.2-0.4 8.2-0.3 16.4-0.7 24.6 29.9-6.3 76.5 3.6 82.8 17-0.7 14-0.8 28.5 1.4 42.5 56.3 9.5 103.2 26.9 126.9 57 6.7 9.5 10.8 18.8 2.7 26.7-7.3 4.6-13.6 8.9-13.2 10.7 6.9 6.3 12.6 13.4 9.7 24.9-6.5 18.9-10.1 39.1-9.4 61.2-1.2 18.8-13.5 28.9-35 31.6q-2.2-3.1-1.5-6.3c23.5-6.1 31.2-15.3 22.4-27.4-25.2-25.2-51.4-18.5-116.7-39.5-16.3-5.2-22.4-17.5-18.7-28.3q6.7-15.8 13.4-31.6c-19.6-7.7-66.2 0.9-113.1 12.3q-29.9 2.7-32-15.1 2.6-15.8 5.2-31.6c-26.9-3-37.2-12-38.4-24.3l3.7-21.2-140.7 0.5q2.5 7.9 5.1 15.8c2.4 12.9-8.4 26-37.3 29.1 1.9 11.5 6.3 22.8 5.7 34.4-0.5 10.3-19.1 16.2-40.4 10.9-36.6-10.5-75.3-16.7-104.3-11.7l12.6 27.1c3.3 8.6 2.9 16-2.8 21.8q-14.6 14.1-50 19.2c-18.4 2.4-36.9 6.4-55.3 13.2q-3.3 1.5-6.3 3.1c-10.8 5.7-18.7 12.4-21.3 20.1-3.2 14.8 14.9 17.3 25.8 20.2 1 2.2 1.5 4.5 1 6.7-18.6-1.5-33.3-7.3-36.7-24.9-1.1-21.9-3-44-10.3-66.8-3.6-10.5 1.9-17.5 9.3-24-9.2-11.7-22.4-12.2-16.8-28.4 16-32.7 61.6-53.7 129.5-65.8 2-14.1 2.5-28.2 0.4-42.3 10.1-14.9 41.8-21 83.1-17.5-0.5-7-1.9-13.3-1.6-20.9 0-5.6 4-8.3 10.6-9zm-82.1 87.4c18.2-7.3 43.4-13 67-6 1.8-7 3.7-14.7 4.6-21.7-15.3-7.6-49.5-5.1-70.2 8.8-0.5 6.3-0.9 12.5-1.4 18.9zm-5.3 20.4c21.1-10.4 47.4-12 80.5-1.9-5.2-6.5-11-10.4-9.3-22.6-20.6-8.2-64.2 1.4-67 9.5-1.2 5.6-3 10.5-4.2 15zm100.1-4.3c18.9 6.1 37.3-0.3 54.9-3.5 10.2-1.8 19.5-2 27.2 0q-2.4-5.4-4.8-10.9-39.5 0.2-79 0.3c-16.5 1.4-16.3 8.3 1.7 14.1zm96-6.5q0-3.2 3.8-3.3 57.8-0.2 115.7-0.4 5.3-0.2 3.8 4.7c-8.1 17.1 0 30.9 31.7 40.4q3.6 0.5 4.2 4.1c-2.5 10.5-6.2 21.4-4.1 30.1 9.3 21.5 38.8 16.6 55.1 10.2 28.1-10.2 56.8-14.6 86.3-11.4 2 0.2 1.9 2.6 0.3 4.4q-5.3 15.5-10.6 31 4.9 33.7 9.9 67.4c-12 9.4-21.6 21.1-14 49.5 1.6 21-1 39.7-4.8 58.6 2.2 23.2 30.2 48.8 77.7 59.1 3.4 0.4 5.4 3.3 5.3 7.2q0.1 52.6 0.2 105.2c-4.2 32.2-6.9 64-48.7 109.1-26.2 27.8-60.5 53.5-107.7 76.2-43.3 18.3-90.8 32.6-141.1 44.2-50.9-12.9-98.5-30.6-144.3-51.1-54.1-25.1-87-54.7-113-85.7-23.2-29.2-33.3-59.6-37.5-90.5 0.1-39 0.1-77.1 0.2-116.1 0.2-1.3 1.2-2.4 2.8-2.8 34.6-8 57.6-20.1 70.7-35.7 15.3-19.6 7-22.4 4.4-46.4-2.3-14.2-1.2-27.7 0.6-41.1 2.3-15.4-2.5-29.7-16.2-42.6q5.2-33.1 10.4-66.1-6.4-15.6-12.8-31.2c-1-2.2 0.7-3.6 2.8-4.9 22.1-1 44.3 0.8 66.9 6.1 11.6 4.7 23.9 8.8 38.1 11.3 19.9 3 29.9-3.3 35.4-13.9q-3.2-15.1-6.4-30.3c-0.7-2.1 0.6-3.3 2.3-4.1 24.4-4.3 43.8-22.4 32.6-41.2zm-30.8 44.8c1.4 11 4.4 19.8 5.3 30.9-1.7 11.7-17.6 20.5-40.2 16.1-12.7-2.9-24.4-6.2-36.5-10.5-18.4-5.1-40.5-6.9-65.9-5.6 4.1 11.2 8.1 21.3 12.2 32.6-2.7 23-7.2 42.7-9.9 65.8 11.9 9 18.9 24.6 15.1 45-2.8 12.9-1 41.9 2.7 55.9 4 18.5 0 21.7-8 32-21.5 20.8-41.1 29.9-66.2 36.3q-0.1 56.5-0.2 113.1c3.2 30.7 14.7 59.3 34.8 87.5 25.1 31.9 63.3 59.5 109.9 84 44.4 20.5 91.7 36.5 140.7 49.7 48.3-10.9 95.2-23.8 137.6-43 40.3-20.3 75.8-44.7 105-74.3 29.4-33.5 44.8-69 47.5-106.4-0.1-34.2-0.1-71.7-0.2-105.9-40.2-9.3-72.9-30.4-78.8-61.3 4.8-21 6.8-41.9 5.1-59-7.1-20.7-2.7-39.7 13.5-51.1-3.2-22-7.5-43.7-10.8-65.6 3.7-11.6 8.4-22.6 12.1-34.1-29.8-2.2-56.3 2.3-85.5 11.8-29.6 11.3-54.3 4.6-57.2-17.5 1.4-9.8 3.4-17.2 4.7-27-28.2-5.9-46.1-24.1-35-44.5-37.6 0.2-78.1 0.3-115.7 0.5 6.5 16.8-3.3 38.6-36.1 44.6zm-290.3 24.9c2.7 2.1 6.2 4.5 8.9 6.6 18.1-25.1 48.8-50.1 107.4-55.5 0.3-6.2 2.6-12.3 2.9-18.5-35.5 4.5-72.1 14.1-102.2 37.8-15.4 12.1-26.6 24.3-17 29.6zm26.8 23.8q38.6-45.7 97.4-51.7c-6-3.2-8.2-9.6-7.7-18.3-48.4 5.7-84.5 23-104.3 55.6q8.1 6.5 14.6 14.4zm236.4-31.3c7.2 1.7 10.1-1.9 3.2-5.9-33.6-23.8-77.6-27-98.6-16.8 35.5 2.8 62.7 9 95.4 22.7zm-225.9 53.2c15.9-41.1 119-74.8 219.8-36.2 19 0.3 21.5-16.8 14.6-16.5-1.5 2.1-5.3 2.9-10 1.8-26-12.1-56.3-21.1-96.1-22.7-10.5 2.2-24.4 4.8-35.6 1.8-43.4 4.3-78.2 21-100.4 54.1 2.5 4.3 5.8 11.3 7.7 17.7zm24.7 5.4c19.9-22.6 45.3-32.9 77.6-28.6-2.2-8.1-6.4-13.9-10.5-19.8-21.7 3-42.2 11.4-62.6 24.9-35.8 23.5-20.6 39.1-4.5 23.5zm-52-5.2c4.6-3.6 9.4-6.7 14-9.2-2.7-5.2-7.3-9.9-11.4-13.8-5.2 2.5-8.5 6-7.3 11.9 1.7 3.7 4 6.5 4.7 11.1zm4.3 21.7c6.7-4.3 13.9-8.4 21.8-11.1-2.7-2.8-6.6-14.8-11.2-16.8-5.4 2.1-10.2 5.5-13.8 11 1.2 5.2 2.3 11.2 3.2 16.9zm1.2 26.1c17.5-15.3 40.4-24.7 76.7-29 64.6-11.1 67.2-35 33.2-34.3q0 4.5-5.6 7.1c-13.1 6-32.5 10.6-48.9 14.6-10.3 10.8-22.2 15.8-33.1 7.3-8.4 2-22.1 8.1-23.4 14.5 0.5 6.1 1.8 12.2 1.1 19.8zm101-57.1c4.3-0.9 7.9-6 2.7-6.6-18.5 3.7-32.1 9.7-42.3 17.3 13.2-2.6 26.4-6.4 39.6-10.7zm-59.4 188.1c5.2-4.1 11.8-8 19.2-10.3 36.9-9.5 66.1-20.5 75.6-41.8 2-5.8 2.6-13.7 2.3-20.1-14.1 22.2-48.4 32.3-74.5 42-22.2 6.6-30 11.1-22.6 30.2zm1.7 24.2c5.2-4.2 11.7-8 19.1-10.3 36.9-9.5 63-18.9 73.7-38.5 3.1-5.3 2.5-14.1 1.5-20.9-14 17.5-40.3 29.1-69 35.9-25.1 6.4-30.4 17-25.3 33.8zm167.1-491.5c0.1-3.1 2.2-4.4 5.3-5.1q30.8 0 61.5 0c2.2 0.2 3.9 1.5 4.8 4.1v18.8l48.5 0.4q0-9.3 0-18.5 0.4-4.6 7.2-5.5 30.2 0.1 60.5 0.1 2.8-0.4 5 4.1l0.3 18.8 48.5-0.2q-0.1-8.2-0.1-16.3 0-6.1 5.6-6.4 29.4 0 58.8 0.1c3.6-0.3 6.4 0.9 7.5 5.2q0.1 32.9 0.3 65.8-0.2 3.8-3 3.9-152.6 0-305.2 0-5.2 0.7-4.7-4-0.4-32.6-0.8-65.3zm8.5 62.7l296.8-0.5 0.3-61-55.3-0.2c0 5.2 0 12.9 0.1 18q-0.7 3.5-5.6 4.6-26.7 0.1-53.5 0.2c-3.2-0.6-5-2.4-5.6-4.8q-0.2-8.7-0.3-17.5l-57.7-0.2 0.1 17.5c-1.1 4.1-3.4 5.4-6.3 5.5q-25.1-0.1-50.2-0.2c-5 0.5-6.9-1.9-7.5-5.6q0-8.5 0-17l-56.1 0.1zm-103.6 78.3c22.7-11.8 47.1-14.2 71-8.7 1.5-5.6 1.8-11.6 1.6-17.9-24.6-5.2-54.7-1.7-76.1 11.9 1.6 2.7 2.3 8.3 3.5 14.7zm77.7-50.2c3.9 21.6 3.6 44.9-3.1 70.7 3-2.6 9.1-4.1 14.5-4.6 110.5 0.2 216.1 0.4 326.6 0.5 5.2 0.8 12.5 2.7 16.4 5.1-9-23.2-9.2-46.5-5.1-69.7 1.1-6.8-1.3-11.2-10.1-11.1q-165.2 0.2-330.3 0.4c-6 0.9-11.4 2.2-8.9 8.7zm430.5 35.1c-21.4-13.5-52.3-16.9-76.8-11.7-0.3 6.3-0.4 12.3 1 17.9 24-5.4 50-1.3 73.9 9.3 1.2-6.4 0.3-12.7 1.9-15.5zm-2.2 18.5c-20.7-13.3-57.8-15.9-73.2-8.8 0.9 7.1 3.3 13.5 5.1 20.6 23-7 52.4-0.3 69.6 8.5-0.6-6.4-1-13.9-1.5-20.3zm2.6 24.7c-9.6-7.4-51.2-19.5-69.6-9.8 3.8 13.5-2 18.4-9 23.8 33.6-12.2 60.6-10.6 81.1 2 0.5-4-3.1-10.1-2.5-16zm-94.2-3.8c-26.4-0.1-55.3-0.2-81.7-0.3q-2.3 5.5-4.7 11c7.7-2.1 19.5-1.9 29.8-0.1 17.6 3.2 36 9.6 54.9 3.6 17.9-5.9 18.2-12.8 1.7-14.2zm7.5 21.2c-41.2 6.3-56.8-4.5-81.2-5.6-14.2-0.6-19.5 7.3-5.4 15.7 19.4 11.6 52.2 4.6 86.6-10.1zm79.5 1.9c-15.5-6.7-38.5-8.9-61.4-0.5-23.4 8.6-45.8 18.9-70.6 21.8-4.4 5-5.7 8.5-6.9 14.8 25.1-14.5 50.1-22.3 75.2-23.7 29.7-2.1 50.2 13.4 68.6 10.3 10.7-4.1 11.1-14.5-4.9-22.7zm119.4 24.6c-30.9-23.9-68.4-32.3-103.4-37.2 0.3 6.2 1.7 9.8 2 16 58.6 5.4 93 33.3 111.1 58.5 2.7-2.1 4.6-4.2 7.3-6.3 11.1-5-1.6-19-17-31zm4.3 36.1c-22.7-32.6-59.3-49.1-105-54.8 0.5 8.7-0.1 17.7-6.1 20.9 39.2 3.9 73.8 22.3 99.5 52.8 2.4-3 7.2-7.1 9.9-10.6 2-2.7 3.5-4.7 1.7-8.3zm-157.2-35.6c-21-10.3-62.9-8-96.6 15.8-6.8 3.9-3.9 7.5 3.3 5.8 32.7-13.6 57.8-18.8 93.3-21.6zm141.9 59.3c-8-24.3-56.3-51.2-99.7-55.4-9.8 4.9-21.9 2.2-33.5-1.7-25.7 0.1-72.5 7.9-102.5 21.6-4.6 1.1-8.5 0-10-2.1-6.8-0.3-2 16.3 17 16 108.7-36.6 198.2-2.5 221.2 37.8 1.9-6.5 5-11.9 7.5-16.2zm-38.5-2.6c-20.5-13.4-41.6-21.5-63.3-24.4-4.1 5.9-7.6 11.2-9.8 19.3 28.6-3.7 52.5 6.9 78.7 28.4 11.7 19 32.3 1-5.6-23.3zm62.6 6.7c0.4-5.9-2.2-7.8-7.5-10.3-4.1 3.9-8.3 8.6-11 13.8 4.6 2.5 10.8 5 15.4 8.6 0.7-4.6 2.3-7.5 3.1-12.1zm-5 16.7c-2-5.2-8.5-8.4-14-10.5-4.5 2-8.4 14-11.1 16.8 7.9 2.7 15.1 6.9 21.7 11.1 0.9-5.7 2.2-12.2 3.4-17.4zm-4.6 23.1c-1.3-6.5-14.4-12.5-22.8-14.4-8.3 11.8-27.8 2.9-39.6-9.6-23-1.2-41.2-5.4-44.9-11.9-1.2-3.2 0.1-4.1 0.7-6.2-36.3-5.2-36.5 25.4 26.2 33.9 36.3 4.3 63.2 14.3 80.7 29.6-0.7-7.6-0.9-15.4-0.3-21.4zm-66.2-26.3c-10.2-7.6-15.7-11.1-34.2-14.8-5.2 0.6-4 6.3-0.1 7.6 13.2 4.3 20.7 5.1 34.3 7.2zm2.2 150.5c-26.1-9.7-60.3-19.8-74.5-42-0.2 6.4 0.4 14.3 2.4 20.1 10.4 17.5 33.5 31.2 70.4 42.7 7.2 2.3 20.1 8.5 25.2 13.4 2-18.5 7.4-26-23.5-34.2zm-5.8 21.5c-28-8.5-52.9-23.1-68-38.7-0.9 6.8-1.2 17.5 2 22.8 11.1 17.2 33.1 25.4 69.3 38.7 7.4 2.3 20.4 8.4 25.4 14.7 4.6-17.3-4.6-28.4-28.7-37.5zm-4.6 22.3c-28.5-7.9-54.4-21.8-66-38.7-2.8 7.4-0.4 19.9 3.9 24.8 14.5 17.4 34.3 26.5 71.2 36 7.5 2.3 19 7.3 24.2 11.5 1.4-13.8-11.7-27.2-33.3-33.6zm10.8 32.6l-0.6 34.1c25.2-11.6 26.7-30.2 0.6-34.1zm-653.3-185.3q1.8-1.7 3.6-3.3c4.3 4.5 7.9 25.7 13.4 42 0.7 0.1 2.2 0.3 3 0.4-8.4-15.4-7.9-29.7-3.9-45.2 4-0.1 6.6-0.6 10.2 0.9q-1.6-2.8-1.2-5.5c1.6-0.5 3.2-0.7 4.8-0.1 1.3 3.7 2.6 7.4 3.6 11.4 2.6 1.4 5.4 3.6 7.1 5.9-1.8-6-4-12.3-5-18.6 0.4-1.1 2.7-1.3 4-1.6 2.3 3.6 3.4 9.8 5.1 13.9 1-1.3 1.8-3.3 2.8-4.6-2-3-2.6-6.2-2.9-9.5q1.6-1.5 4.3-1.6c1.2-0.2 1.7 2.4 2.9 3.8 1.4-2.6 3-5 5.4-6.5q3.7-0.6 7.4-1.3c2.8 2.1 5 5.5 6.5 8.4 0.5-2.5 0.9-5.6 1.7-8.1 0.9-1.1 2.9-1.3 5.2-1.3-0.1 3.2-1 8-3.1 15.4 1.3 1.4 2.8 4 3.8 6.2 0.9-7.3 2.2-15.3 4-22.6q2.6-0.9 5.2-0.5c-0.2 5.6-1.8 14.1-2.7 21 1.5-1.3 3-2.8 4.5-3.2 1-6.5 2.3-13.2 4.3-19.7q2.1-0.8 4.2-1.6c-0.3 5.2-1.1 11.3-2.1 16.5 1-0.5 2.4-1.5 3.4-2 3.2-5.7 2.7-10.9 5.1-16.6q2.1-1.9 5.3-1.7c-0.9 7.8-4.5 16.1-5.5 23.8 4.6 17.7 1.6 34.2-7 49.9 3.4-2.5 6.8-4.4 10.2-4.7 3.1 4 3.5 8.3 2.9 12.9-3.3 8.5-8.5 9.4-7.8-3-10.4 3.4-16.5 11.8-20 23.6q-3 5.4-6.6 3.6c-4.1-9.6-8.4-19.6-12.8-23-9.1 9.7-10.1 22.3-7.2 33.4-2 1.4-4.1 2-6.4 0.7q-2.3-6.8-4.7-13.6c-8.9-13.1-17.5-23.9-27-26.4-4 8.9 6.9 30.6 21.4 45.5-2.3 1-3.8 1.1-6.1 2.1-5.4-3.1-12-6.3-17.6-6.4-2 3.3-0.5 7.4 0.3 11.3q-2.2 0-4.5 2.1c-2.8-5.5-3.7-12-2.2-19.5 3.3-0.2 7.2 0.3 11.5 1.4-8.7-15.3-12.7-30.4-10.5-45.2-2-15-10.8-33.4-10.3-39.2zm21.7 0.4c-5.6 5.8-2.1 38.7 21.1 54.1 6.3-16.6 1.7-45.6-21.1-54.1zm-2.5 53.2c-0.2-1.3 2-0.9 2.2 0.3 2.1 12.7 11.3 24.8 21.9 35.9 1.2 1.3 0 3.4-1.1 2.4-13-13-22-27.2-23-38.6zm43.2-7.2c14.1-18 15.3-39-1.9-58.9-14.5 20.1-14.3 46.7 1.9 58.9zm-1.8-51.8c1-1.3 3.3 1.5 4.2 3.1 6.8 13.1 7.5 27.6 0.3 42.8-0.6 1.3-2.7 1.8-3.5 1-10-9.5-11.8-33.5-1-46.9zm20.2 57.3c18.7-15.5 22.6-46.6 16.8-52.2-19.6 10.3-25.8 37.3-16.8 52.2zm-18 5.5c4.5 1.4 8 10.8 10.2 21.1 0.4 1.8-2.2 2.1-2.6 1.1-2.9-7.1-3.9-14.5-7.2-17.4-3.5 6.4-3.9 14.3-3.3 21.6 0.1 1.3-2 1.6-2.4 0.1-1.8-9.1-0.2-18.2 5.3-26.5zm32.6-0.4c-0.1-0.8 2.1-0.7 2.3 0 0.5 2.8 0 5.6-1.2 8.2-0.4 0.9-1.8 0.5-1.7 0 0.9-2.9 1-5.3 0.6-8.2zm-76.8 35.1c-0.9-0.2-0.3-1.7 0.5-1.6 3.3 0.5 7.4 2.6 9.9 4.4 0.9 0.6 0 1.6-0.5 1.3-3-1.6-6.5-3.5-9.9-4.1zm59.2-27.8c3.5-1.8-5.9-13.8-7.5-15.6-0.6 0.3-1.2 1.9-0.9 2.5 2.7 6 5.7 6.7 8.4 13.1zm-20.6-14.8c0.4-0.5-4.5-4.2-5.1-4.5-0.5 4.3-4.8 18.3-5.5 19.7 0.4 1.1 2.2 1.8 2.5 2.2 1.8-7.6 4.4-12.8 8.1-17.4zm5.7-11.1c3.3-9.7 6.2-24.3-1.3-37.9-7.3 12.8-7 29.3 1.3 37.9zm30.9-34.3c1.1-1 2.4 0.4 1.5 1.4-9.5 10.9-13 25.4-12.1 39.6 0.1 1.6-2.5 2.6-2.6 1.2-2.1-17.2 3-33.3 13.2-42.2zm-71.9 1.9c0.3-1.3 2.3-0.7 2.2 0.5-1 13.6 4.3 25.5 14.2 37 1.1 1.4-0.4 3.4-1.4 2.2-12.9-13.5-17.8-27.5-15-39.7zm557.9-18.3c-4-8.7-3.3-13.6 2.4-16.4 2.3-0.4 7.8 1.6 13.1 4.7 1.3 2 2.6 3.6 4.2 1.3q6.1 1.2 12.2 2.4c0.4 2 2.4 3.4 3.1 5.2 1.8 0.1 2.9-1.5 4.5-2.9 1.9-0.2 3.4-0.2 3.5 1.2-5.3 2.9-6 8-4.3 13 3.8 4.3 23.5 2.1 17.5-8.1 1.6-0.4 3.5-0.3 5.2-0.3q0.5 1.3 1 2.5c2.7-2.1 6.3-1.5 10.3 0.3 1.5-1.5 3.9-1.1 6.7 0.3-1.1 3.3-2.4 6.5-2.2 9.6-0.7 4.4-5.9 4.6-7.2-0.3-1.7-5.8-8.3-4.7-9.9 1.8-0.9 4.4-0.2 9.1 1.6 14q-0.1 1.3-1.7 1.5c-9.3-1.3-12.7 4.1-11.6 9.7 1 4.6 3.3 8.8 8.2 12.2 0.2-10.7 5.4-13 7.3-22.2q1.4-6.4-0.9-12.6 1.6-0.2 3.1-0.3c2.1 4.3 3.3 9.3 3.4 14.1 7.5-2.5 10.1-8.5 11.7-15.3 0.2-6 2-8.7 4.2-10.5q2.1-2 4.3 0.9c-4.7 5.2-2.7 11.3-6.1 17.7-2.9 5.5-9.4 8.7-14.3 12.7-3.6 1.8-4 3.9-3.8 6.1 5.9-4.6 12.5-1.9 4.2 3.1-3.6 2.1-6 4.4-5.3 7.1 3.7-1.9 7.7-1.9 11.6-0.2 3.9-3.6 10.4-5.3 17.1-7 6.1-2.8 4.8-6.8-2.1-3.9-6.3 2.5-11.3 2.1-14.5-2.3q-2.9-8.4 11.4-10.4c10.9 0 16.9-1.5 17-4.6-0.9-3.1-6.8-4.2-10.8-0.1-3.9 0.5-4.2-2.8-2.4-5.4 5.1-3.5 8-6.9 9.3-10.4 2.9 0.9 5.6 2.1 7.4 4.3-1 1.8-2.1 2.9-3.2 4.8 13.8 6.8 7.2 17.4-10.7 18.2-14-2.9-12.1 4.2-0.2 0.8 15.4-1.8 15.5 9.1 8.3 12.5 4.2 4.2 4.9 9.7 2.4 16.7-0.5 2.4 6.9-1.5 3.5 6.9 0.2 4.2 0 8.1 0.3 12.3-3.6-0.1-6.4 0.9-8.9 3.1-4.1 1.6-5.4-1-3.5-2.4 1.4-2.6 3.8-4.3 6.8-5.5 5.7-4.5 3.3-9.3-3.6-6.8-5.4 0.8-8.4-0.4-7.5-3.7 1-6.3 7.6-6.5 9.5-11.6 1.7-5.3-7.2-6.9-12.3-4-3 2.9-5.1 6.4-6.4 10.1-1.6 4.4-5.5 1.2-5.6-2.8-0.2-4.2-4.5-4.2-6.6-3.2-9.8 4.7-5.2 16-1.1 22.9 1.3 2.5-2.4 1.2-3.5 2.2-0.2 8.8 1.9 17.7 9.2 24.4-0.6 1.6-2.3 1.9-6.3-0.7-11.8-16.9-9.1-28.1-8.8-40.3-3.2-10.6-12.8-10.7-18.2-1.6-2.1 2.4-3.7 1.7-4.5-1.4-0.8-3.3-1.7-6.6-1.4-10 5-9.9-7.3-12.2-10-2.1-1.1 2.4-1.3 4.5-2.4 6.8-1.5 2-2.9 0.9-4.2-2.6-2.1-3.8-1-9.4-4.7-11.6-6.3-3.9-9.7 0.5-8.5 7.9 0.5 4.9 2.9 9.4 6.4 13.5 1.9 1.7 1.1 2.1-3 1.8-2.5-0.8-4.9-1.2-6.7-1.4-3.4-4-1.1-4.2 2-4-6.1-12.1-4.4-17.7-0.5-21.5-3-7.6 1.4-12.2 9.9-15.1-3.4-1.7-5.9-0.1-10-0.7-0.3-8.6-5.4-13.2-4.4-21.6 1.4-0.6 3.1-0.6 4.5-1.2-1.5-0.3-3.1-1.3-4.5-1.6zm10.2 0.4c3.9 3.7-0.3 8.1-4.8 7.9 0.6 2.7 0.6 6.7 2 11.2 6.5 0.3 13.9-0.8 13.2 2.7 3.4 2.3 2.9 5.5-6.6 8.7-4.4 2.9-3.6 5.4 0.7 4.5 2.5-2.4 6.8-3.9 13.2-4.4-4.4-8.4-9.3-15.9-13.7-23.1-0.4-3.4 0.2-5.2 2.8-3.3q1.5 4.2 3.1 3.3c2.9-4.7 1.9-8.8 3.8-7.1-1-1.7-0.3-3.3 1.2-4.8 0.9-1 2-1.8 1.6 1.2-1.6 2.2-2.1 5.1-4.3 8.3-2.2 9.2 5.6 19.1 14.8 30.5 0.6 2.4 2.6 3.8 4.1 5.1-1.3-4.2-0.6-8.2 2.1-12-16.4-6.4-21.7-16.2-12.6-23.8-2.3-13.9-7.5-15.6-10.9-4.7-0.5 2.1-1.8 2.6-4.9-0.4q-0.3-4.3-0.6-8.6c-2.9-7.5-14.5-3.4-8.4 3.2 2.2 2 4.1 4.1 4.2 5.6zm82.5 5c1.2 0 2.1 0.6 2.1 1.3 0 0.8-0.9 1.4-2.1 1.4-1.2 0-2.2-0.6-2.2-1.4 0-0.7 1-1.3 2.2-1.3zm-60.5 4.6c-0.8 0-1.5 0.9-1.5 1.9 0 1 0.7 1.8 1.5 1.8 0.9 0 1.6-0.8 1.6-1.8 0-1-0.7-1.9-1.6-1.9zm-0.4 7.4c0 0.6 0.6 1 1.2 1 0.7 0 1.2-0.4 1.2-1 0-0.6-0.5-1.1-1.2-1.1-0.6 0-1.2 0.5-1.2 1.1zm6.1-2.1c0 0.7 0.8 1.3 1.7 1.3 1 0 1.7-0.6 1.7-1.3 0-0.7-0.7-1.2-1.7-1.2-0.9 0-1.7 0.5-1.7 1.2zm7.1-1.2c0 0.4 0.6 0.8 1.4 0.8 0.8 0 1.5-0.4 1.5-0.8 0-0.4-0.7-0.8-1.5-0.8-0.8 0-1.4 0.4-1.4 0.8zm6.6 2.2c0.2 0.4 1 0.5 1.7 0.3 0.7-0.3 1.2-0.8 1-1.2-0.2-0.4-1-0.6-1.7-0.3-0.7 0.3-1.2 0.8-1 1.2zm-5.6 2.4c0 0.4 0.5 0.8 1.1 0.8 0.6 0 1.1-0.4 1.1-0.8 0-0.4-0.5-0.7-1.1-0.7-0.6 0-1.1 0.3-1.1 0.7zm3.5 3.9c0 0.5 0.4 1 1 1 0.6 0 1.1-0.5 1.1-1 0-0.5-0.5-0.9-1.1-0.9-0.6 0-1 0.4-1 0.9zm-6.2 2.6c0 0.6 0.8 1 1.9 1 1 0 1.8-0.4 1.8-1 0-0.6-0.8-1.1-1.8-1.1-1.1 0-1.9 0.5-1.9 1.1zm-4-4.4c0 0.7 0.7 1.2 1.7 1.2 0.9 0 1.6-0.5 1.6-1.2 0-0.6-0.7-1.1-1.6-1.1-1 0-1.7 0.5-1.7 1.1zm-4.1 2c0.4 0.6 1.1 0.8 1.5 0.5 0.5-0.2 0.5-0.8 0.1-1.4-0.4-0.5-1.2-0.8-1.6-0.5-0.5 0.2-0.5 0.9 0 1.4zm-11.1 22.3c3.3-3.5 7-5.7 10.6-5.1-1.7-6.5-13.2-7.4-17.9-3.8 1.6 3.1 6.7 2.7 7.3 8.9zm20.6 2.6c-1 1.4-1.5 3.2-0.5 5 0.9-0.4 1.6-0.6 2.6-1-1.4-0.8-1.7-2.5-2.1-4zm39.5 5.6c-1.9 0-4 0.5-5.4 2.1 0.8 0.5 1.4 0.9 2.3 1.4 0.1-1.4 1.8-2.5 3.1-3.5zm-73.8 0.6c0.3-2.3 3-2.8 4.4-0.3 2.7 5.1 5.4 10.4 10.6 15.1-0.3-5.9 0.6-11.5 3.3-16.5 0.5-1 4.3-0.8 3.5 0.8-3.1 6.7-3.6 13.4 1.2 21.7 3.6 4.2 8.1 8.9 13.7 12.6-1.2-7.7-2-15.5 0-22.1 0.6-1.8 3.8-2.7 3.9 0.4 0.4 9.3-0.1 19 5.1 29 2.5 2 5.2 3.8 7.5 6 1.9 1.9 2.5 4.4-0.9 3.3-4.9-1.6-8.6-5-14.9-6.1 0.7-0.7 1.3-0.8 2-1.5-1.4-2.7-3.9-4-6.9-4.6q-4.5 0.3-9 0.7c-4.6 0-3.9-2.4-3.2-2.7 2.8-0.6 6-0.8 8.8-1.4q-3.7-5.5-8.5-5.1c-4.4-0.7-8 0.1-11.1-0.5-6.6-1.3-7.4-5.2-6.2-5.4 5.1-0.4 9.5 1.7 15.3 1.4-6.1-4.6-11.3-9.8-15.1-14.6-1.7-3.8-3.9-6.7-3.5-10.2zm59.7 9.9c1.8-2.5 3-2.8 3.2 1.6 0.5 6.8 1.6 12.2 4.1 14.7 3.9-8.5 8.3-15.4 13.1-21.8 2.5-1.5 4-1.4 3.3 2.3-6.2 7.2-9.9 14.9-11.4 23 3-3.1 6.3-5.6 10.8-6.3 3.3-0.1 4.5 0.9 1 4-12.6 5.7-16.2 18.5-12.3 21.4 3.6-2.8 5.5-8.8 11.7-9 3.3-0.1 3.6 0.7 0.5 3.1-5.7 4.2-9.7 8.5-8.6 13.8-0.6 1.9-1.4 3.3-3.7 0.6-6.2-5.3-6.4-12.4-5.7-19.4-5.7-9.7-7.2-18.9-6-28zm21.7 41c2.2-6.3 8.9-9 16.3-11.4q0.3 1.7 0.6 3.5-3.2 2.9-0.5 4.3 0.2 4.6 0.5 9.2c-3 1.4-5.6 3-5.6 5.4 0 2.6-0.3 3.2-4.7 2.1-3-0.8-2.8-2.4-0.7-4.1 1.6-1.4 3.7-2.3 5.6-3.5 4.4-3.8 5.1-7.7-2-7.8-2.8 0.4-4.6 2.1-6.9 3.6-2.7 1.8-3.5 1.2-2.6-1.3zm-407.3-228.3c11.3-10.6 8.8-15.5-5.4-15.3-26.8 0.5-38.8 11.3-77.5 6.6 34.4 13.9 64.2 19.7 82.9 8.7zm-171 14.1c18.4 3.1 38.9-12.9 68.6-10.7 25.1 1.4 50.1 11.5 75.1 26.1q-1.6-9.5-8.2-16.9c-24.8-3.4-46.9-12.9-70.3-20.9-23.3-7.9-44.6-6.9-60.1-0.3-15.9 8.2-15.8 18.6-5.1 22.7zm87.6 93.2h336.4q0 128 0 256c-23.6 75.4-76.3 121.6-172.2 125.4-94.8-7.5-151.2-56.9-164.2-125.4zm9.7 254.4c12.3 64.5 65.4 111.1 154.8 118.1 90.2-3.5 139.9-47.1 162.1-118.1 0-80.4 0-163 0-243.4h-316.9zm7.2-235.2h302.6c0 76.8 0 158.6 0 235.4-21.2 67.8-68.7 109.4-154.9 112.8-85.3-6.7-136.1-51.2-147.7-112.8zm3.2 234.1c11.4 60.3 61.1 103.8 144.6 110.4 84.4-3.3 130.8-44.1 151.6-110.4 0-75.2 0-155.3 0-230.4h-296.2zm116.6-198.3c-6.2 5-11.3 10.2-8.9 16.2 57.8 12.8 59.1 53.8 65.7 85.5 59.1-17.6 67.1-52.5 60.9-91.4q32.2 9 21.2 54.5c5.9-7.4 8.9-19.5 7.9-35.9 9.9 7.3 15.8 31.8 5.3 59.1 6.8-2.7 13-6.4 18.9-11 5.1 6.4-11.9 36.4-31.8 50.4 4.9-0.6 9.8-2 14.8-3.8 3 6.5-16.2 28.9-43.8 37-16.8 10.1-35.5 17.4-56.5 21.1-3.6 2.4-8.3 3.5-15.1 1.9-5.7 2.4-11.4 2.5-17.9-0.6-18.1 4.4-34.5-0.4-49.8-10.2-5.5-0.7-11-0.9-16.5-1.6-4.9 2.8-9.2 3.6-12.2-0.2-0.4-3.2 0.5-6.1 1.6-8.9q2.6-1.3 3.8 1 0 2.3-0.1 4.6c1.1-1.4 1-4.2 3.4-4.1q1.5 1 3 2.1c15.5 3.2 29.6 1.4 44.9 5.8q1.9 2.2-2.4 3.7c-3.5-0.6-7-0.7-10.6-1.3 1.9 5.2 23.8 8.5 31.2 4.9 4.4-0.2 7.5-1.6 9.7-3.7q2.8-1.8 4.1 1.8-4.6 3.9-1.6 3.7c3 0.5 6.1-1.1 9.1-2.2 4.9 2.1 9.2 2.3 12.8-1.5 18.5-3.2 36-8.5 51.2-18 2.3-1.4 4.7-0.9 6.8-2.9 22.2-7.6 31-15.2 36.4-23.6-4.1-1-6.9 1.6-10.3 2.5-0.3 1.6-0.9 4.1-1.1 5.8-23.7 12.1-46.5 20.3-70.1 26.1-1.6-1.4-3-2.8-2.8-4.2 3.7-0.4 7.6-1.2 11.3-2.3-1 0-1.7-0.8-1.8-2.2 0.6-0.2 1.4-0.5 2.1-0.7 0.9-1.4 1.2-2.4 2.2-3.9 3.3-3 5-2.1 6 0.7-1 1.2-2.2 3-3.1 4.3 9.8-1.9 19.1-5.7 28-9.5-0.9-2.8 0.1-6 1.1-8.7-12.3 5.9-24.3 10.4-36.6 12.4-4.3-1.3-3.8-3.3-1.1-5.4 6.3-0.4 12.7-1.5 19-3.7q1.2-4.9 2.5-9.8c0.5-2.9 2.7-3.4 4-1.1q-0.4 4.1-0.8 8.3c1.4-0.2 2.7-0.6 4.1-1.4q1.3-5.9 2.5-11.9c0-2.9 1.7-3.7 4.1-1.6-0.6 3-0.7 6.4-0.5 9.4q2.2-0.4 4.3-1.7c1.5-4.6 2.2-8.9 1.6-12.6q1.8-4.7 4.4-0.5c0 2.8-0.2 5.7-0.6 8.7 1-0.4 2.1-1.1 3.4-2.7 0.9-3.3 1.1-6.7 1.1-10.1q0.9-3.3 4.3-1.1c0.3 2.4 0.5 4.8-0.1 7.5 10.7-9.4 21.9-19.7 31.1-29.4-5.9 3.6-12.2 7.9-18.6 16.7-4.7 1.7-7.9 2-9.3 2.1 18.7-19.1 30.7-39.1 25.2-61.7-2.3 6-4.6 11.9-8.9 17.9 4.1 9.7-5.6 21.7-18.3 34.2q2.2-0.1 4.4-0.1 3.2 1.4-0.5 4c-3.2 0.7-6.5 0.9-9.8 0.9q-19.7 15.6-45 28.9-4.6-1.2-3.6-4.1 1.5-2.2 5-2 6.3-3.6 12.6-7.1c1.3-4.1 2-7.9 1-11.1 0.2-3.8 1.5-5.4 5-2-0.3 2.4-0.1 5.4 0.1 8.7 1.1-0.3 2.3-1.2 3.4-2.2q1.3-5.4 0.4-9.7c1.5-2.3 3-1.6 4.5-0.3-0.1 2-0.3 4.1-0.4 6.6 1.6-0.2 3.2-1.3 4.9-2.6 0.4-3.1 0.5-6 0-8.4q1.9-2.7 4.6-0.8 0.2 1.8 0.4 4.3c4.5-1.3 8.5-5.7 12.5-9.8 0.5-2 0.3-4.1-0.2-6.1 0.2-2.6 2.7-3.2 4.5-2.3 0.3 0.9 0.9 1.7 1.2 2.7 5.8-4.9 7.7-10.2 9.1-15.3-10.4 10.1-22.4 18.5-34.1 26-4.7-0.6-6.4-1.7-7.1-3.9 1-1.7 3.3 0.2 5.4-0.8 43.9-31.2 39.6-67.2 22.4-78.3 0.5 10.5-0.4 20.9-3.1 31.4 0.9 1.5 1.6 3.1 2.1 4.8 3.7-8 4.2-17.1 3.4-26.6 3.1 0.1 4.9 2.9 5 9.5-1.6 27.1-14.4 43.9-31.3 56.9q-6-0.4-3-3.7c12-10.4 13.9-14.4 12.9-16.6-12.9 13.8-25.5 28.4-52.1 32.6q-6.8 2.2-13.6 4.3-16.2-8-36.6-6.5-3.8-1.3-0.8-4.4 3.1-0.4 6.2-0.8c0.6-5.8-0.4-11.2-1.7-16.7q-0.3-5.2 5-1c1.4 6 2.3 12 2.8 18q1.3-0.2 2.7-0.4c0.3-4.1 0.3-8.2-1.2-12.3q0.7-4.3 3.6-0.8c1.2 3.7 2.1 8.3 2.8 13.6q3.3 1.3 6.7 2.6c0.4-8.3-0.4-17-5-24.9-3.1 0.7-5.7 1.6-8.8 2.4-3.1-0.9-3.6-1.7-2-3.4q4.6-1.4 9.1-2.9c0.6-1.1 0.3-1.7-2.2-1.3q-2.9 0.9-5.7 1.8-5 0.1-2.7-3.8 4.6-0.2 7.6-2.4c1.4-1.2-1.2-3.2-1.8-4.6 0.7-3.1 2.5-3.3 5.5-1.3 3.4 5.3 6 10.9 8.7 16.4 1.3 1.2 6.3-1.8 9.4-2.2-4-29.8-32.2-55.4-57.2-54.8q-2.7 0.1-5.5 0.3-2.4-1.5-0.7-3c2.2-1.4 3.6-5.6 2.5-8.1-3.4 3.7-4.6 8.1-4.8 12.2 0.6 1.3 2.4 1.5 4.3 1.5 1.3 2.1 0.2 3.5-5.9 3.1-6.3-2.4-4.1-10.1 2.9-20.7-4.6 1.9-9.5 4.6-9.8 10.3 0 1.4-0.7 3.5-3.2 3.4-7.2-12.7 11.5-23.5 31-19.9zm-38.3 21.5c0.1-3.5 7.2-3.5 5.4 0-0.8 2.3-1.3 4.5 0.5 7-0.8 1.5-1.8 2.9-3.3 3.9 2.2-0.5 4.1 0 5.3 1.9 0.2 2.7 0.4 6.4-0.4 9.2-0.2 3.2-2.8 3.5-6.9 3-3.4 2.3-7 4.3-10.7 6.1 3.2 1.7 6.9-4.8 15.3-5.3 3 2.3 1.2 3.6-2.9 4.5-2.8 2.8-12.6 5.6-10.3 6 1.6 2.1 3.7 3.8 7.3 4.4 2.9-1.6 5.8-2.9 8.7-3.8 2.8-0.5 3.9 2.3 1.6 3.3-3.2 1.8-6.4 3.5-9.8 5 2.6 2.2 6 3.2 9.9 3.6 2.2-0.7 3.2 2 1.3 3.1-2.2 1.2-5.4 0.4-8.7-0.3-2.7 1.3-4.5 6.7-2.9 6.7 3.3 1.9 2.9-4.8 14.4 1-0.2 5.3-4.2 2-7.1 2.1-3.5 1.4-7 1.9-10.5 1-1.6 1.8-2.3 3.1-0.9 3.1 4.4 2.3 6.3-2.5 13.1-0.9q1.7 0.5 3.5 1 3.2 1.8 8.4 0.4c0.5-2.7 0.8-5.3-0.2-7.4-0.5-2.8 4.8-4.1 4.8-2.8 1.1 2.9 1.2 7.5 0.8 12.9-7.5 2.5-13.3 2.5-16.9-0.6-16.4 4.2-14.6-0.9-16.9 1.6-2.2 2.3-5.1 1.4-4.6-0.8 0.5-3.3 7.2-12.4 8-18.9-2.7 1.2-5.9 1.5-11.1 1-3.3 0.5-6.2 1.2-7.7 3-5.3 4.6-10 7.2-13.2 4.4-3.3 0.5-6.2 0.8-6.6-0.9-3.1 1.3-2.4-5.3-4.7-3.8-6.4 1.6-7.7-2.3-12-2.7-7.5-2.7-5.7-6.4-1.5-10.5 1.4 0.2-2.8-6 3.7-6.7 2.5-0.1 3.3 1.8 1 3.7 1 2.4 0.3 4.8-2 7.2-2.1 1.2-1.2 3.4 0.7 2.4-0.2-3.2 6.1-6.9 3.9-8.9q0.8-3.4 4.1-1.3c2.8 2.5 1.3 4.6-0.7 6.6-4 3.6-2.5 6 0.5 5 1.3-0.5 3-1.6 4.7-3.7q2-2.7 4.9-2.6c2.1 1 4.5 0.3 7.1-0.8 4.8 0.7-0.9 6.8-3.9 5.9-3.2-1.8-5.3 0.1-7 3.2 4.4-1.2 1.2 6.7 7.9 2.4 4.8 4.5 5.3 0.5 10.8-3.1 3.8-1.9 7.7-3.6 11.7-5.2 3.6 2.1 6.6 2.5 8.3-0.5-2.5-1.5-4.8-3.1-7.1-4.9-5.3 1.1-8.6 5.4-12.4 6.2-5 1.5-6 0.7-5.2-1.2-2.1-2 2.2-2.1 5.6-2.6 1.8-2.6 5.5-4.7 9.9-5.7-0.2-1.3-0.9-2.4-1.1-3.7-7.6 0.2-12.4 4.3-17.2 7.1-3.9 1.7-6.5-1.5-3.5-3.2 4.7-3.6 10.8-6.3 17.3-8.7q0.3-1.4-0.3-2.8c-4.6 1.6-8.9 3.5-13 5.9-3.4 2.4-6-1.6-3-3 4.7-2.5 9.5-4.8 14.2-6.9-2.8-5.2-1.6-13.1 11.2-13.5 2.6-1.4 4.8-3.2 6.5-5.5 1.2 0.1 1.9 2 2.3 4.7-3.3 1.7-5.4 5.1-10 5.3 3.5 0.4 5.6 1.5 4.6 3.9-0.2 0.4-1.7 0.1-1.9 0.5-0.3 0.5 0.6 1.8 0.3 2.4-9.7 3.8-5.9-4.1-8.9-3.9-0.4 3.7 0.3 6.5 8.3 5.6 3.8-0.7 3.6 2 0.4 4.3-9.3 0.2-4.9 1.9-3.6 2.5 1.5 0.2 4.2-0.6 7.2-1.8 2.2-3 4.8-5.2 8.3-4.8 0.5-1.7 0.6-3.1 0.4-4.4q-12.4-2.1-3.5-9c-1.1-0.6-1-3.1 0-6.9zm18.2 12.8c3.1 0.5 8-2.3 8.1-8.2 1.2-2.1 3.9-1.9 4 1.2-0.8 7.8-5.2 10.1-12.1 10.4-2.1-0.5-2.5-2.5 0-3.4zm4.7 4.6q6.7 0.2 9.8-7.8 0.3-2.4 3.3-0.6c8.9 6.5 16.6 13.1 22.7 20q-2.1 4.8-4.9 1.8c-6.2-6.4-12.5-13.1-18.3-15.9-3.3 4-7.1 6.8-11.9 6.5-2.7-1-2.6-3.3-0.7-4zm32.3 4.3c-3-0.3-3.7-2.1-1.4-2.8 1.9-0.3 2.6-1.3 4.7-3.2 2.2-1.6 3.8-0.2 3 2.6-2.1 2.4-3.4 3.4-6.3 3.4zm4.2 4.7c-3-0.3-3.7-2.1-1.4-2.8 1.8-0.3 2.4-0.8 4.5-2.8 2.2-1.6 3.8-0.1 3 2.7-2.1 2.4-3.2 2.9-6.1 2.9zm-45.6 8.8c-2.7 1.1-4.5-0.1-3-1.7 1.4-1.2 1.5-2.3 2.1-4.9 0.8-2.4 3.1-1.9 4.2 0.9-0.3 2.9-0.9 4.3-3.3 5.7zm40.6 10.7c-1.4-0.1-1.6-2.7-0.6-3 1.8-0.8 1.1-0.2 3.3-1.6 1.9-1.1 3.2 0.3 2.7 2.6-2.2 2-2.6 2.1-5.4 2zm-36.6 2.7c-1.9 1.4-3.9-1.3-1.9-2.4 1.5-0.7 1.9-2.1 4.4-3.8 2.3-1.5 4.4 0.7 2.3 3-2 2.1-2.7 1.7-4.8 3.2zm0.1 5.9c-2.2 1.1-3.6-1.9-1.4-2.6 1.6-0.6 2.3-1.9 5.1-3.1 2.6-1.1 4.2 1.4 1.6 3.3-2.4 1.8-3 1.3-5.3 2.4zm24 26.7c-0.2 2.2-4 1.5-3.4-0.5 0.4-1.4-0.5-2.7-0.2-5.3 0.3-2.4 3.7-2.2 4.2 0.7 0.4 2.7-0.5 2.8-0.6 5.1zm9.1-63.9c-3 0.2-4.1-1.4-2-2.5 1.7-0.7 2.1-1.7 3.7-4 1.8-2 3.7-0.9 3.6 2-1.4 2.7-2.4 3.9-5.3 4.5zm-17.8 10.8q0.4-2 2.8-2.3c7.1 1.8 12.9 13 18.2 28.5q-2.8 2.3-5.6-0.1c-4.7-13.7-9.8-21.8-15.4-26.1zm-6.7 12.1c-0.3-1.9 0.6-3.6 3.1-2.9 5.9 5.3 8.5 17.5 9.3 32q-3.2 1.8-5.4-1c-0.2-13.2-2.5-23-7-28.1zm9.5 5.4c-0.4-1.9 0.8-3.2 3.4-2.6 4.8 6.5 5.3 12.2 6.9 25.9q-3.3 1.8-5.5-1.1c-1-12.9-1.4-16.9-4.8-22.2zm91.5 29.4c2.1-0.9 4.2-0.6 4.1 1.7-4 7.8-27.6 14.7-44.5 16.9-2-1.4-3.4-2-1.7-3.6 16.2-2.2 38.2-9.2 42.1-15zm-45-14.2c3.7-0.8 4.2 2.6 0.4 3.7-7.3 1.4-5.4 3-1.1 1.8 3.6-0.5 3.9 3.1 1.2 4.1-7.6 1.7-4.7 2.7 0.1 1.2 2.8-0.5 3.7 2.6 1.8 3.9-2.1 0.7-4.2 1.3-6.3 2-0.3 1.5-0.6 3 0.3 4.3 1.2 0.4 2.6 0.9 4.6 1.6 1.6 0.4 3-0.2 4.4-1.4 2.3-3.7-1.2-22.3-2.6-23.5q-1.8 0.7-3.6 1.4c-6.3 1.6-5.9 2.3 0.8 0.9zm-28.5 22.9q6.1 0.7 2.4 3.6c-1.4 0.2-2 0.6-1.9 1.6 0.4 2.2-2.4 2.7-3.1-1.4-0.5-2.3 0.1-3.7 2.6-3.8zm36.5 15.9c6-0.1 12.3-2.2 18.7-5.2q5.4 1 1.8 3.7c-6.3 3.6-13 5.1-19.6 4.7-3.6-0.9-2.9-2.7-0.9-3.2zm-3.5 13.5c5.6-1.4 5.2-1.9 13-2.7 2.6 1 3.4 2.9 1.3 4.5-6.5 0.7-7.3 1.2-13.5 2-2.1 0.2-3.6-1.8-0.8-3.8zm-14 4.8c4.9-2.8 3.5-2.2 6-3.1 2.9 0.4 4 2.2 2.2 4.2-3.3 1-4 1.6-6.1 2.2-1.6 0.4-4-1-2.1-3.3zm82-70.4l2.2-3.6 0.1-5.8-2.6 4.3zm41.5 25.4c-0.4 3.2-35.8 35.9-47.5 43.5 5.3 1.8-1.7 4.7 1.2 8.1q1.2-0.4 2.3-0.8c0.9-2.5 0.4-4.6 1.4-6.8 1.5-4.1 5.1-4.3 5.1-0.2q-0.1 1.8-0.3 3.5c2.8-0.5 5.6-1.8 8.6-3.6 0.7-1.4 1.3-2.7 1-3.6-0.1-2.7-3.6 1.2-5.5 0.8-3.4 0.4-4.8-1.9-1.9-3 40.4-27.4 40.4-38.6 42.4-46.1-2.6 1.8-5 2.9-7.5 4.6 1.8 0.7 2.4 2.3 0.7 3.6zm-189.4-71.3c1.7-2.6 4.1-2.6 4.4-0.2q-0.2 4 1.3 6.1c1.1 1.8-0.9 2.7-3.3 1.1q-3.1-2.6-2.4-7zm-34.4 14.3c2.9-0.8 4.1 1.6 1.9 3.3-11.7 5.3-17.3 9.4-15.5 12.1-3.9 1-7.7 2.1-11 3.8-1.3-0.3-2.1-2.1-2.6-3.4q2.2-0.6 4.5-2.5c3.1 0.3 4.8-0.6 5.2-2.9 5.1-3.5 11.7-6.9 17.5-10.4zm20.6 58.5c3.5 0.6 9.6-4.3 14.7-2 3.2 0.4 2.5 3.3-0.6 3.9-2.8-0.8-5.4-0.3-8.2 0.7-1.2 1.8-3.4 1.7-5.7 1-3.1-1.1-3.2-3-0.2-3.6zm-8-1.4c2.7-0.2 4.1 0.5 4 2.1-1.6 3.3-3.2 6.6 0.4 7.3 2 2.6 5.3 0.7 9.1-2.7 3.7-1.7 7.3-1.7 11.5-1 1.4-0.8 2.4-2.8 2.7-4.8 2-1.2 4.7 0.2 4.5 1.9-2 2.8-1.9 6.5-4.5 8.1-3.7-0.1-6.7-1.8-9.3-1.3-3.8 0.7-5.6 3.6-10.2 4.7-3.2 0.3-6.1-0.3-8.6-3-4.7-1.5-3-5.5 0.4-11.3zm32.1 13.6c1.5 0 2.6 1.1 2.6 2.5 0 1.4-1.1 2.5-2.6 2.5-1.4 0-2.6-1.1-2.6-2.5 0-1.4 1.2-2.5 2.6-2.5zm2.4-13.5c1.4-2 5.4-2.2 5.2 0.2-0.5 3.5-1.2 7-2.7 10.6-2.1 0.7-5.2 1.1-5-0.6 1-3.3 1.8-6.8 2.5-10.2zm-40.1 13.1c1.4-0.7 2.5-0.9 2.7 2q2 12.4 7.8 5.1c4.1-3.8 10.7-5.9 18.3-7.3q2.9 1.2 0.3 4.8c-4.7 0-9 1.6-13.2 3.9-2.3 2.3-4.5 4.6-7.1 6-0.7 1.8-0.9 3.7-1 5.5-1.5 2.4-4 2.7-4.2-1q-0.1-2.1-0.2-4.2c-0.8-0.7-2-1.5-2.7-2.2-3 4.3-3.1 8.5-1.4 12.4q2.8 8.6 5.6 17.3c-2.3 1.9-5.4 2.9-8.4 3.8-5.9-3-10.5-2.9-12.9 4.5-1.8 0.5-3.6 1.5-5.1 2.6q-6.2 3.4-12.8 7.9-4.6 13-10.3 26c-1.3 4.9 1.5 5.7 4.9 5.8 1.7 0.3 2 1.2 0.9 3.5-1 0.2-2 0.6-2.8-0.2-0.5 2.5-0.5 5.1 0.3 7.7 4.6 4.6 9 9.4 14.3 12.9 3-0.7 6.4 0.6 4 3.3-2.2 0.9-4.8 1.1-8.1-0.4-4.4-4.8-9.7-9.1-15-13.4q-0.7-6-0.3-10.2-4.8-4.3-2.7-10.4 5.1-13.1 10.2-26.3 4.5-3.5 9.1-7.1c4.3-0.8 8.3-3.3 12.3-6 1.7-0.9 1.7-1.8 1-2.7 0.4-2.5 3.7-2.9 7.4-2.9q8.2 2.6 7.6-1.5-1.4-4.8-3.5-9.7c-4.2-8 0.3-18.2 5-29.5zm3.5 24.8c0.1-1.8 4.1-2.5 4.8-0.3 1 7.9 3.1 15.6 9.8 22.7q1.3 1.3-1.3 2.1-10.3 1.9-18 3.3c-10.2 3.2-16.6 8-21.1 13.6-3.3 4.6-3.2 9.4-6.1 14-0.4 1.9 0.1 3.7 1.4 5.4-2 2.8-2.3 5.5-3.4 8.2-0.9 1.6-0.2 2.9 1.3 4.1 1.9 5.5 6.8 9.3 12.7 12.8-0.5 1.8-0.6 3.7 0 5.5q4.8 3.7 10.5 4.3c0.4-1 0.7-2 0.7-3-0.9-3.1-2.3-6-4.2-8.5-1.9-2.7-3.9-3.1-5.8-3.3-2.7 0.6-2.8-1.2-1.2-3q1.2-1.8 2.4-3.5-5.2-5.1-6.5-11.7c-6 0.8-5.8-2.1-0.1-5.4 1.6-4.6 5.8-9.8 11.8-15.3-0.6-3.5-0.6-6.8-0.4-9.9 1.4-2.1 4.2-1.9 4.2 1.2-0.1 3.5 0.4 6.9 1.2 10.4-5.5 5.4-10.4 10.7-10.7 15.6-1.9 6.5 3.2 10.2 6.6 15q-0.3 1.9-1.9 3.2c0.8 0.8 2 1.4 3.3 2 2.5 4.2 4.7 8.5 6.4 12.8 0.5 3-0.4 5.9-1.5 8.8-6.6-0.6-13-2.9-19.2-7.1-1.2-1.4-1.2-3.7-0.9-6.3-6.5-3.9-10.4-8.6-12.5-13.9-1-1.4-1.9-2.9-1.2-4.9 0.8-3.6 3.3-8.2 2.4-10.9-1.7-1.8-1.3-3.5 0.2-5.1q2-3.5 3.3-8c2.2-5.7 7-11.1 14.1-16.3 6.9-3 16.1-5.4 26.9-7.3-5.4-7.1-7.9-14.2-8-21.3zm-7 31.6c0.2-0.8 0.5-0.6 1.7-1.1 1.3-0.4 2.6 2.8 2 4.1-0.7 1.2-1.8 1-2.5 0.8-0.8-0.2-1.5-3.1-1.2-3.8zm-6-9.5c0.9 0 1.7 0.5 1.7 1.2 0 0.6-1 1.4-2 1.4-0.9 0-1.6-0.6-1.6-1.2 0-0.7 1-1.4 1.9-1.4zm-13.3 48.2c-0.9 1.6-1.6 2.1-3.6 2.2-2 0.2-3.4-1.4-2.2-2.6 1.2-1.2 1.2-1.2 3.1-1.7 2-0.6 3.5 0.5 2.7 2.1zm36.7-71.5q4.6-0.1 3.9 1.8c0.1 6.1 2 10.8 5.1 14.5q0.6 2 2.4 0.9c-2.4-4.4-4.1-9-4.6-13.9 0.9-1.2 3.2-0.8 5.8-0.2 0.6 4.4 2.1 8.7 4.9 13 5.6-0.8 11.2-1.1 15.9-0.1 2-0.4 1.9 0.3 0.3 3.4-9.5 0-17.8 1.7-25.4 3.7-7.3-8-9.5-15.6-8.3-23.1zm23.5-7.6c1.1-1.2 3-2.1 5.1-1.8 2.7 0.3 3.6 1.4 1.4 2.4-1.1 0.6-2.2 1.9-3.7 2.8-2.7 1.7-4.5-1.5-2.8-3.4zm23.9-1.8c1.8-0.8 4.1 1.1 4.9 2.1 0.1 0.6-0.2 1.4-1.2 2.5-0.9 0.9-2.9 0.3-5-0.6-2.8-1.4-1.7-2.7 1.3-4zm9 7.2c-2.8-2.1 0.3-5 3.1-3.9 3.9 1.9 7.4 4.2 10.6 6.7 7.8 9.2 4.3 18.2-6.5 24.9-3.8 1.3-6 2.7-5.9 4.1-0.4 3.8-5.8 5.6-15.4 5.9-3.7-0.2-5.1-4.8 0.1-4.6 5.6 1.3 8.3-0.4 9.6-3.4 2.2 0 3.5-1.5 4.9-2.9 2-3 5.8-3.6 8.6-7.4 6.7-8.6 0.2-14.3-9.1-19.4zm43.4 34.7c3.9 0.4 3.4 4.4 0.1 4.6-19.1-0.8-25.5-8.2-26.3-19 1.1-1.1 2.1-2.8 3.4-2.1 2.3 10 8.2 16.9 22.8 16.5zm-37.3-2.9c0-2.7 2.7-3.1 5.8-1.2q1.3 0.8 2.7 1.6c1.1 4.1 0.2 6.7-1 9.1-2 1.2-3.3 0.9-3.9-0.5 1.1-2.9 1.5-4.9 0.1-5.4-0.6 0.5-1.3 1-2.5 1.3 1 3.2 0.3 5.9-0.6 8.4-3.8 1.7-4.7 0.8-4.2-1.2 0.3-1.2 0.2-2.1-0.1-2.8-3.2-0.6-1.3 2.7-1.8 4.8q-3.5 4.5-5.9 1.8 0.7-2.1 0.2-3.9c-5.4 1.3-7.2-2.3-2.5-3.7 3.4-1 8.3-4.2 13.7-8.3zm-145.2-420.7c13.3 0 25 0 38.2 0 28 6 4.2 29.9-11.3 13.6 9.1 1.8 10-7.5 4.1-8.8-3.7 0.1-3.4 0.1-7.2 0.1 1.2 1.3 0 2.6 1.2 3.9q0 10 0 20.1c-1 2.3-3.1 4.1-6.7 5q-7.4 0-14.9 0c2.1-1.6 3.6-3.2 3.7-5q0-10.9 0-21.9c-2.7-1.6-6-3.5-7.6-5.7-0.4-0.5 0.1-1.3 0.5-1.3zm8.4 6c0 6.8 0 15.2 0 22-0.1 1.7-0.4 3.2-0.5 4.6 4.6 0 6.3 0 10.9 0 3.3-0.8 4.1-2.5 5-4.6q0-9.3 0-18.6c-0.6-2-1.8-3.4-2.9-4-0.4-0.2-0.4-0.6-0.3-1.3 3.5 0 6.5-0.3 10-0.3 5.5 1.2 9.5 7.7-0.3 11.1 13.5 11.1 31.5-10.3 7-13.7-12.3 0-23.1 0.1-35.4 0.1 0.9 2.8 3.7 2.9 6.5 4.7zm42.1-6q12.1 0 24.3 0c0.7 0.4 1.5 1 1.7 1.9q6.3 15.1 12.5 30.2c0.2 0.6-0.4 1.8-1.2 1.8-7.6 0-13.3 0-20.9 0-1.4 0-1.2-0.9-0.6-1.6 3.4-1.9 3.5-3.5 2.7-4.9q-1.1-2.2-2.3-4.4-5.6-0.1-11.1-0.2c-4.5 5.9-9.4 11.1-16.4 11.1-0.2-2.4 2-3.5 3.6-4.9 3.9-7.6 8-15.3 11.9-23q-2.1-1.9-4.2-3.8c-1.1-0.9-1.2-1.5 0-2.2zm3.6 3.7c0.6 0.6 1.2 0.9 1.8 1.2 1.2 0.5 0.4 1.6-0.2 2.2-3.5 6.9-6.9 13.8-10.5 20.7-0.9 1.4-4.1 3.5-3.5 4.3 6.3-0.8 9.1-4.8 13.1-10.1 3.3 0.1 9.3 0.1 12.6 0.1 0.7 1.4 1.4 2.9 2.1 4.2 0.8 1.3 2.6 3.2-0.5 4.9-0.5 0.7-0.7 1.5 0.5 1.5 6.8 0 9 0 15.9 0 0.6 0 1.2-1.6 1-2.1q-5.6-13.6-11.2-27.2c-0.2-0.8-0.9-1.2-1.5-1.7-7.3 0-12.4 0-19.6 0-1.7 0.2-1.4 1 0 2zm7.6 8.2q1-0.3 1.7 0.5 1.2 2.8 2.4 5.6c0 0.6-0.1 1.2-1.2 1.3q-2.7 0-5.4 0-1.9-0.3-1-1.9c1.5-1.5 2.6-3.5 3.5-5.5zm-2.3 5.3c0 0.7-0.3 0.9 0.6 1q1.9 0 3.8 0c0.8 0 0.5-0.7 0.5-1.1-0.6-1.4-0.8-1.4-1.4-2.8q-0.4-0.5-1.2-0.4c-0.6 1.6-1.2 2.2-2.3 3.3zm144.8-17.2c27.9 6 4.1 30.3-11.4 14-0.4-0.6 0.2-1.3 0.9-1.1 7.7 1.9 9.8-7.5 3.3-8.1-3.8 0.1-3.5 0.1-7.3 0.1 1.2 1.3 1.1 2.1 1.2 3.9q0 10 0 20.1c-1 2.3-3.1 4.1-6.6 5-5 0-9.2 0-14.1 0-0.4 0-1.5-1.2-0.7-1.6 1.7-0.8 3.4-2.1 3.5-3.4q0-10.1 0-20.2c0-0.5-0.7-1.8-1.1-2.3-1.5-1-2.2-1.5-3.8-2.6q-2.1 5.2-4.2 10.5-1.8 1.7-2.7-0.2c-2.1-3-3.6-6.3-5.7-9.2-2.5-0.1-4.4-0.1-7-0.2-2.5 0.5-0.5 1.5 0 2.2q0.1 9.6 0.1 19.3c-0.7 3.6-3 6.4-8.9 7.7q-5 0-9.9 0c-2.3 0-3-1.1-1.4-2.2q1.3-1 2.2-2.4-0.2-10.5-0.4-21-0.2-1.5-1.5-2.1c-1.9-1-3.4-2.1-4.8-3.3q-1-0.6-1.3-1.1c0 0.4-0.2 0.9-0.5 1.3q-3.8 6.8-7.7 13.7c-1.1 1-1.1 1.8 0.3 1.7q5.6-0.2 11.2-0.4c2.5-0.2 2.7 1.2 1.9 2.2-5.3 10-13.3 17.2-22.9 19.1-2.4 0.6-3.4 0.2-2.1-1.8 3-4.4 5.9-8.8 8.7-13.2 0.9-1.1 0.1-1.5-2.3-1.5-6.8 0.6-13.5 0.7-20.4 0.2-0.9 0-1.7-0.8-0.7-1.8q7.1-8.5 14.8-16.3c-2.7-0.1-5.8-0.1-8.5 0.1-2.3 2.6-3.8 5.5-5.3 8.7-0.7 1.2-1.7 1.4-2.1-0.1-1.5-3.6-2.8-7.2-4.1-11-0.6-0.9-0.8-1.8-0.7-2.7q19.4 0 38.8 0c0.8 0 1.3 0.2 1.5 0.6q0.2-0.3 0.5-0.6 23.3 0 46.5 0c11.8 0 22.6 0 34.7 0zm-119.9 3.8c1.2 3.6 1.8 5 3.2 8.3 0.4 1.4 0.9 1.2 1.5 0.1 1.5-3 2.9-5.8 5.1-8.1 2.5-0.2 7.1-0.3 9.6-0.1 1.1-0.2 1.6 0.6 1.3 0.9-4.5 4.7-10.9 11.3-15 16.3-0.7 1 0 1.1 0.6 1.1 6.4 0.5 14.2 0.3 20.5-0.3 2.5-0.2 3.5 0.7 2.3 2.1-2.5 4.1-5.9 8.2-8.7 12.4-1.2 1.8-0.3 2.2 2 1.7 8.8-2.5 14.5-9.1 19.6-17.9 0.8-1 0.6-1.5-1.8-1.2-3.4 0.1-8.1 0.2-11.5 0.3-1.3 0.1-2.7-0.7-1.7-1.7 2.4-4.3 6.1-9.3 8.6-13.5 0.7-1.2 2.1-3 0.1-3q-18.2 0-36.4 0c0 0.9 0.2 1.7 0.7 2.6zm85-0.6c1.9 0.9 2.8 1.5 4.1 2.8 0.5 0.7 0.7 1.7 0.7 2.6 0.1 6.3 0.2 13.5 0.2 19.4 0 1.3-0.5 2.4-1.5 3.1-1 0.6-0.7 1.3-0.3 1.5 4.7 0 7.7 0 12.3 0 3.3-0.8 4-2.5 4.9-4.6q0-9.3 0-18.6c-0.4-2.4-1.6-4.1-2.9-4.3-0.5-0.1-0.4-0.5-0.3-1.2 3.5-0.1 6.5-0.1 10-0.1 6.4 0 8.9 8.1-0.5 10.5-0.4 0.2-0.8 0.5-0.5 1 14.2 11.3 32.7-10.5 7.7-14.1-12.3 0-65 0.1-77.4 0.1-1.3 0-0.4 1.1 0.1 1.6q3.2 1.9 6.3 3.7c0 7.4-0.5 14.7 0.1 22.1q-1 1.2-2 2.4 0.4 0.6 0.7 1.2 4.6 0 9.3 0.1c3.8-0.3 5.9-2.6 7-5.9q-0.2-9.3-0.4-18.6-0.2-1.8-2.6-2.4c-0.8-0.4-1.4-1.2 0-1.6q5.9-0.1 11.8-0.2c2.9 2.5 3.3 5.9 5.4 8.6q1.1 1.3 2.1 0 1.7-4.5 3.4-9 1.1-0.7 2.3-0.1zm78.7 30.7c-5 0-9.7 0-15 0-1.4 0-1.2-0.9-0.6-1.6 3.4-1.9 3.7-3.5 2.9-4.9-0.8-1.5-1.2-3-2-4.4q-5.5-0.1-11-0.2c-3.5 6.4-8.5 11.6-16.9 11.1-0.9 0-0.4-2.2-0.1-2.7 0.8-1.3 2.2-1.2 3.3-2.2 4.2-7.6 8.8-15.3 12.8-23-1.4-1.3-3.1-2.6-4.5-3.8-1.1-0.9-2.2-2.2 0.2-2.2q12.2 0 24.3 0c0.8 0.4 1.5 1 1.8 1.9 4.2 8.5 8.5 17.4 12.3 26.2q0.6-0.3 1.2-0.8 6.2-11.3 12.4-22.7c-1.5-0.7-2.7-1.6-4-2.3-0.7-0.8-1.1-2.3 0-2.3q11.7 0 23.3 0c2.5 0 2.5 0.8 3.5 2.1 4.1 8.7 8.2 17.4 13.7 26.1q3.2 0 6.4 0c2.7 0 3.1 1.7 2 2.9q-4 5.1-7.9 10.1c-1.2 0.9-2.2 1.1-2.9-0.3q-1.8-3.5-3.6-7-20 0-40 0-2.6 3.6-5.2 7.3c-1 1-1.9 1-2.9-0.4q-1.7-3.5-3.5-6.9zm-6.1-30.5c-0.2-0.8-0.9-1.2-1.6-1.7-7.2 0-12.3 0-19.6 0-1.6 0.2-1.3 1 0.1 2 0.6 0.6 1.5 0.9 2.1 1.2 1.3 0.5 0.4 1.6-0.2 2.2-3.5 6.9-7.7 13.8-11.3 20.7-1 1.9-5.5 4.1-3.5 4.6 5.8 1.1 9.4-4.2 13.5-10.4 3.3 0.1 9.3 0.1 12.6 0.1 0.7 1.4 1.5 2.9 2.2 4.2 0.7 1.3 2.5 3.2-0.5 4.9-0.6 0.7-0.8 1.5 0.5 1.5 5.7 0 8.2 0 12.9 0 1.2 2.2 2.5 4.7 3.6 6.9 0.4 1 1.2 0.5 1.5 0.1 1.3-1.8 2.5-4.1 3.7-6.2 0.2-0.5 1-1.2 2.3-1.4 12.6 0 25.8 0.2 38.3 0.2 0.6-0.1 2.3 1 2.2 1.6 1.3 2 2 3.9 2.9 5.8 0.1 0.5 1 0.5 1.2 0.3 2.5-3.2 4.7-6.3 7.2-9.5 0.7-0.8-0.1-1.2-1.9-1.2q-3 0-6 0c-5.1-8.1-9.6-17.9-13.5-26.1-0.9-1.2-0.4-1.5-2.6-2-7.3 0-12.4 0-19.7 0-1.1 0 0.4 1.3 1.1 2 1.1 1 1.5 1.2 1.3 2.4-3.9 7.1-8.1 14.2-12 21.3-0.4 1.8-3.3 3.3-4.8 2.2-3.6-8.6-7.8-17.3-12-25.7zm-13.6 7.9q1.1-0.3 1.7 0.5c0.8 1.9 1.5 4.1 2.1 6 0 0.7-0.3 1.2-1.4 1.3-1.8 0-3.9 0-5.7 0-1.3-0.2-1.6-0.8-0.9-1.8 1.5-1.5 3.3-3.9 4.2-6zm-2.5 5.7c0 0.8-0.3 0.9 0.6 1.1q1.9 0 3.8 0c0.9-0.1 0.5-0.7 0.5-1.2-0.6-1.4-0.7-1.4-1.3-2.7q-0.5-0.6-1.3-0.4c-0.6 1.5-1.2 2.1-2.3 3.2zm49.4-6c0.4-0.6 1.6-0.3 2.3 0.7q3.8 7.7 7.5 15.5c1.1 2.1-0.2 2.3-2.6 2.2q-7.8-0.2-16.1 0.3c-2.6 0-2.8-1-1.7-2.2 4.1-5.2 7.3-10.8 10.6-16.5zm-8.8 15.5c-0.9 1-1.2 1.9 1.1 1.9q7.1-0.4 13.8-0.2c1.9 0 2.3-0.2 1.5-2-2.1-4.4-3.5-7.7-5.7-12.1-0.6-0.9-1.6-1.1-1.9-0.6-2.9 4.9-5.2 8.5-8.8 13zm-100.5-26.5q1.9 0 3.7 0z"/>
	<path id="Path 27" class="s10" d="m241.8 5.4c0-0.8 1.2-2.8 2.6-3.5 28.7 0 53.2 0 81.9 0 0.9 0.1 1.5 1.4 1.6 2.4 0.6 7 0.8 16.5 1.3 21.7 11.9-0.1 23.4-0.5 35.4-0.4 0.1-6.8-0.4-14.3 0.2-21.1 0.1-1.5 1-3.3 2.7-3.9 28.4-0.1 52.5-0.2 80.9-0.2 1 0 1.8 1.1 1.8 1.7 0.5 7.7 0.1 14.9 0.7 22.7 11.6-0.5 24.4-0.1 35.9-0.6 0.5-6.7-0.2-13.3 0.3-20 0.1-1.2 1.5-3.2 2.8-3.8 26.5-0.1 51.8-0.1 78.4-0.1 3.3 0.4 5.3 1.4 5.1 3.3q0.5 35.5 0.9 71c-0.4 3.5 0.5 6.2 5.2 7.4 8.8 0.8 20.7 3.6 19.7 13.6-1 10-1 7.5-1.3 11.8 0.7 2.7 0.9 4 6.6 4.9 24.2-0.4 50.9 4 71.8 13.7 4.2 1.4 5.4 3.5 4.9 5.8-2 15.6-2.9 28.7-1.2 42.2 70.4 14.4 124.4 37.7 138.7 81.1 1.3 5.2-9.4 11.9-18.3 19.7 5 6.7 7.8 13.2 6.5 16.7-8.6 28.2-8.8 52.6-13.8 80.8-2.5 14.8-13 23.7-32.7 27.1-0.4 48-1.5 96-2.8 142.9-5 21.6-18.6 32.5-40.9 39.2 0.4 42.7 2.7 86-15.1 124.5-26.9 53.1-71.2 95.9-137.4 126.5-48.4 20.6-100 37.1-154.1 50.6-60.4-14.8-115.5-34.8-166.2-59.4-44.3-25.7-83.1-55.5-108.8-94.8-20.7-30.9-28-61.8-29.9-92.6 1.2-20.2 0.9-39.9 0.3-59.7-22.7-7.7-35.9-21.9-40.6-41.1q-0.7-24.6-1.4-49.3c-1.3-30.2-2.2-60-2.5-89.1-20.6-3.9-31.1-13.5-33.7-28.8-2-22.1-4.8-45-10.4-69.7-1.3-11-4.7-15.3 4.9-24.1-1-2.3-6.9-7.1-15.1-13.1-6.4-6.2-6.8-7.7-2.1-16.5 8.4-15.4 23.4-29 43.9-41 25.3-13 55.7-22.5 89.6-30.3 1.9-14.3 1.2-30.4-1.3-45.4 18.6-10.7 41.9-17.4 79.2-15.5 3.6 0 4.9 0.4 4.5-2-1.4-5.2-3.3-9.7-3.3-15.3 0.2-4.5 3.4-8.2 9.9-11 3.8-1.4 7.8-2.6 12.3-3.5q2.6-0.6 2.4-2.8c0-24.6-0.1-48.1 0-72.7zm3.4 74.7q0.3 2.2-2.3 2.8c-4.4 0.9-10 2-13.7 3.4-7.4 3-8.8 4.5-9.3 11.1 0.4 5.5 2.2 7.5 3.1 12.8 0.3 2.2-0.7 4.2-4.2 4.2-36.8-1.9-60 4.1-78.3 14.6-0.7 0.8-1 1.4-0.9 2.1 2.1 14.4 3.4 31.1 1.5 44.5-22.2 7.1-91.3 15.4-132.9 68.7-4.7 8.6-3.6 9.9 2.7 16 9.2 5.9 14.7 10.5 15.9 14.8-10.6 8.8-8.9 14.3-6.1 26.1 5.5 24.3 8.1 46.4 10.1 68.1 4.8 14.6 16.2 20.8 34.2 24.5 0.3 28.7 2.1 62 3.4 91.8-0.1 16.4-0.2 32.4 0.3 48.6 5.3 21 20.2 32.9 34.7 35.7 1.7 0.3 0.1-1.6-0.7-1.8-19.2-9.2-26.5-19.7-28.4-31.6 0.4-21.2-0.1-55.2-2.7-67.7-0.7-3.2 1.1-14.3 13.3-18.4 17.1-7.6 83.4-23.5 96.1-54.6 2.3-15.9-3.4-10.9-0.1-21.4 5 4 9 2.5 7.5 38.1-0.3 6.6-1.4 8.2-2.2 16.4-1.3 12.4 4.8 16.5 4.4 41.9-0.3 25.5-28.5 35.8-52.5 47.1-4.4 2.1-24.7 6.6-27.6 9.7-0.9 2-1.1 47-0.7 47.1 0.6 19.5 0.9 39-0.3 58.8 1.9 30.4 9.1 60.9 29.5 91.3 25.3 38.8 62.4 69.1 106.2 94.4 49.9 24.2 106.1 45.4 165.6 59.9 53.4-13.2 104.4-30.3 152.1-50.5 65.3-30.2 109.7-73.4 136.2-125.7 13.5-39.1 12-82.6 13.3-124.2 0-4.8-0.4-46.9-0.3-49.4-24-7.1-47.9-16.4-58.5-24.8-12.6-7.5-25.2-20-23.6-34.7 4.1-19.9 3.6-39.1 3-60.9-4.6-14.6 1.8-30.6 8-36.5 2.3-2.5 4.5-4 3.8 2.7-6.1 7.9-6.5 18.1-3 23 14.8 26.3 45.4 39.4 83 52.5 9.2 3.3 15.6 4.8 20.2 7.6 4.1 3.6 5.6 4.3 5.4 13.2-3.3 21.3-1.4 41.6-2.2 56.7-1.5 27.2-7.1 28.9-13 34.7-2.6 2.9-18.4 12.1-18.7 12.1-0.3 0.6 0.1 1.2 0.4 1.2 20-3.6 33-14.7 37.3-35.3 1.3-46.2 2.3-95.7 2.7-143.1 0.2-1.2 1.6-2.5 3-2.6 16.2-2 27-8.4 30.4-22.2 4.9-27.7 4.5-53.4 12.9-81.2 0.7-3.4-0.5-7.7-5.6-13.5-1.3-1.4-2.4-3.5-1.4-5 8.4-8.5 19.7-13.1 20.3-18.1-16.6-42.5-70.6-65.2-139.9-78.2-1.7-13.3-0.8-28.9 1.1-44.3 0.5-2.2-0.6-4.4-4.8-5.7-20.6-9.6-49-12.9-72.8-12.6-6.2-0.9-4.6-3.1-5-5.7 0.2-4.3 0.5-1.8 1.6-11.7 1.1-9.5-12.1-11.5-21.1-12.7-4.6-1.1-4.5-3.7-4.6-7.2-0.3-23.3 0.4-47.6 0.1-70.9 0.2-1.9-1.8-2.9-5.1-3.3-26.2 0-47.8 0-73.9 0.1-2.5 0-3.1 1.1-2.7 3.8-0.4 5.4-0.1 11.7-0.2 17.4 0 1.9-1.1 3.4-2.8 3.7-11.4 0.4-21.2 0.1-32.6 0.5-2.8 0.3-5-2.1-5-3.8-0.2-6.6 0-13.4-0.4-19.8-0.1-0.6-0.5-1.4-1.5-1.5-28 0-48.8 0.1-76.8 0.2-1.6 0.6-2.5 2.4-2.7 3.8-0.4 5.8-0.1 12.5-0.1 18.6 0.1 1-1.2 2.7-2.5 2.9-11.9-0.2-22.3 0.3-34 0.4-2.4-0.4-4-2-4-3.1-0.3-5.6-0.3-13.9-0.8-19.6-0.1-1 0-2.3-1.5-2.4-28.3 0-49.5 0-77.8 0-1.6 0.6-2.1 2.6-1.9 3.5-0.2 24.3 0.5 48.4 0.5 72.6zm-129.9 415.3c28.7-6.8 55.6-19.5 67-36.8 2.7 7.4-0.3 18.2-4.6 23.1-14.5 17.4-34.4 26.5-71.3 36-7.4 2.3-18.1 5.4-23.3 9.6-2.9-17 6.9-25.5 32.2-31.9zm-10.6 32.9l0.7 33.1c-25.3-11.6-26.8-29.3-0.7-33.1zm133.1-437.7h105.3q116.9-0.6 233.8-1.2c8.7 1.2 11.5 3.5 12.1 7.2-0.4 8.2-0.3 16.4-0.7 24.6 29.9-6.3 76.5 3.6 82.8 17-0.7 14-0.8 28.5 1.4 42.5 56.3 9.5 103.2 26.9 126.9 57 6.7 9.5 10.8 18.8 2.7 26.7-7.3 4.6-13.6 8.9-13.2 10.7 6.9 6.3 12.6 13.4 9.7 24.9-6.5 18.9-10.1 39.1-9.4 61.2-1.2 18.8-13.5 28.9-35 31.6q-2.2-3.1-1.5-6.3c23.5-6.1 31.2-15.3 22.4-27.4-25.2-25.2-51.4-18.5-116.7-39.5-16.3-5.2-22.4-17.5-18.7-28.3q6.7-15.8 13.4-31.6c-19.6-7.7-66.2 0.9-113.1 12.3q-29.9 2.7-32-15.1 2.6-15.8 5.2-31.6c-26.9-3-37.2-12-38.4-24.3l3.7-21.2-140.7 0.5q2.5 7.9 5.1 15.8c2.4 12.9-8.4 26-37.3 29.1 1.9 11.5 6.3 22.8 5.7 34.4-0.5 10.3-19.1 16.2-40.4 10.9-36.6-10.5-75.3-16.7-104.3-11.7l12.6 27.1c3.3 8.6 2.9 16-2.8 21.8q-14.6 14.1-50 19.2c-18.4 2.4-36.9 6.4-55.3 13.2q-3.3 1.5-6.3 3.1c-10.8 5.7-18.7 12.4-21.3 20.1-3.2 14.8 14.9 17.3 25.8 20.2 1 2.2 1.5 4.5 1 6.7-18.6-1.5-33.3-7.3-36.7-24.9-1.1-21.9-3-44-10.3-66.8-3.6-10.5 1.9-17.5 9.3-24-9.2-11.7-22.4-12.2-16.8-28.4 16-32.7 61.6-53.7 129.5-65.8 2-14.1 2.5-28.2 0.4-42.3 10.1-14.9 41.8-21 83.1-17.5-0.5-7-1.9-13.3-1.6-20.9 0-5.6 4-8.3 10.6-9zm-80.7 68.5c20.7-13.9 54.9-16.4 70.2-8.8-0.9 7-2.8 14.7-4.6 21.7-23.6-7-48.8-1.3-67 6 0.5-6.4 0.9-12.6 1.4-18.9zm-2.5 24.3c2.8-8.1 46.4-17.7 67-9.5-1.7 12.2 4.1 16.1 9.3 22.6-33.1-10.1-59.4-8.5-80.5 1.9 1.2-4.5 3-9.4 4.2-15zm94.2-3.4q39.5-0.1 79-0.3 2.4 5.5 4.8 10.9c-7.7-2-17-1.8-27.2 0-17.6 3.2-36 9.6-54.9 3.5-18-5.8-18.2-12.7-1.7-14.1zm97.7 7.6q0-3.2 3.8-3.3 57.8-0.2 115.7-0.4 5.3-0.2 3.8 4.7c-8.1 17.1 0 30.9 31.7 40.4q3.6 0.5 4.2 4.1c-2.5 10.5-6.2 21.4-4.1 30.1 9.3 21.5 38.8 16.6 55.1 10.2 28.1-10.2 56.8-14.6 86.3-11.4 2 0.2 1.9 2.6 0.3 4.4q-5.3 15.5-10.6 31 4.9 33.7 9.9 67.4c-12 9.4-21.6 21.1-14 49.5 1.6 21-1 39.7-4.8 58.6 2.2 23.2 30.2 48.8 77.7 59.1 3.4 0.4 5.4 3.3 5.3 7.2q0.1 52.6 0.2 105.2c-4.2 32.2-6.9 64-48.7 109.1-26.2 27.8-60.5 53.5-107.7 76.2-43.3 18.3-90.8 32.6-141.1 44.2-50.9-12.9-98.5-30.6-144.3-51.1-54.1-25.1-87-54.7-113-85.7-23.2-29.2-33.3-59.6-37.5-90.5 0.1-39 0.1-77.1 0.2-116.1 0.2-1.3 1.2-2.4 2.8-2.8 34.6-8 57.6-20.1 70.7-35.7 15.3-19.6 7-22.4 4.4-46.4-2.3-14.2-1.2-27.7 0.6-41.1 2.3-15.4-2.5-29.7-16.2-42.6q5.2-33.1 10.4-66.1-6.4-15.6-12.8-31.2c-1-2.2 0.7-3.6 2.8-4.9 22.1-1 44.3 0.8 66.9 6.1 11.6 4.7 23.9 8.8 38.1 11.3 19.9 3 29.9-3.3 35.4-13.9q-3.2-15.1-6.4-30.3c-0.7-2.1 0.6-3.3 2.3-4.1 24.4-4.3 43.8-22.4 32.6-41.2zm5.3 0.2c37.6-0.2 78.1-0.3 115.7-0.5-11.1 20.4 6.8 38.6 35 44.5-1.3 9.8-3.3 17.2-4.7 27 2.9 22.1 27.6 28.8 57.2 17.5 29.2-9.5 55.7-14 85.5-11.8-3.7 11.5-8.4 22.5-12.1 34.1 3.3 21.9 7.6 43.6 10.8 65.6-16.2 11.4-20.6 30.4-13.5 51.1 1.7 17.1-0.3 38-5.1 59 5.9 30.9 38.5 52 78.8 61.3 0.1 34.2 0.1 71.7 0.2 105.9-2.7 37.4-18.1 72.9-47.5 106.4-29.2 29.6-64.7 54-105 74.3-42.5 19.2-89.3 32.1-137.6 43-49-13.2-96.3-29.2-140.7-49.7-46.6-24.5-84.8-52.1-109.9-84-20.1-28.2-31.6-56.8-34.8-87.5q0.1-56.6 0.2-113.1c25.1-6.4 44.7-15.5 66.2-36.3 8-10.3 12-13.5 8-32-3.7-14-5.5-43-2.7-55.9 3.8-20.4-3.2-36-15.1-45 2.7-23.1 7.2-42.8 9.9-65.8-4.1-11.3-8.1-21.4-12.2-32.6 25.4-1.3 47.5 0.5 65.9 5.6 12.1 4.3 23.8 7.6 36.5 10.5 22.6 4.4 38.5-4.4 40.2-16.1-0.9-11.1-3.9-19.9-5.3-30.9 32.8-6 42.6-27.8 36.1-44.6zm-309.4 39.9c30.1-23.7 66.7-33.3 102.2-37.8-0.3 6.2-2.6 12.3-2.9 18.5-58.6 5.4-89.3 30.4-107.4 55.5-2.7-2.1-6.2-4.5-8.9-6.6-9.6-5.3 1.6-17.5 17-29.6zm-4.8 39c19.8-32.6 55.9-49.9 104.3-55.6-0.5 8.7 1.7 15.1 7.7 18.3q-58.8 6-97.4 51.7-6.5-7.9-14.6-14.4zm155.6-39.6c21-10.2 65-7 98.6 16.8 6.9 4 4 7.6-3.2 5.9-32.7-13.7-59.9-19.9-95.4-22.7zm-138.2 58.2c22.2-33.1 57-49.8 100.4-54.1 11.2 3 25.1 0.4 35.6-1.8 39.8 1.6 70.1 10.6 96.1 22.7 4.7 1.1 8.5 0.3 10-1.8 6.9-0.3 4.4 16.8-14.6 16.5-100.8-38.6-203.9-4.9-219.8 36.2-1.9-6.4-5.2-13.4-7.7-17.7zm36.9-0.4c20.4-13.5 40.9-21.9 62.6-24.9 4.1 5.9 8.3 11.7 10.5 19.8-32.3-4.3-57.7 6-77.6 28.6-16.1 15.6-31.3 0 4.5-23.5zm-61.2 7.2c-1.2-5.9 2.1-9.4 7.3-11.9 4.1 3.9 8.7 8.6 11.4 13.8-4.6 2.5-9.4 5.6-14 9.2-0.7-4.6-3-7.4-4.7-11.1zm5.8 15.9c3.6-5.5 8.4-8.9 13.8-11 4.6 2 8.5 14 11.2 16.8-7.9 2.7-15.1 6.8-21.8 11.1-0.9-5.7-2-11.7-3.2-16.9zm3.3 23.2c1.3-6.4 15-12.5 23.4-14.5 10.9 8.5 22.8 3.5 33.1-7.3 16.4-4 35.8-8.6 48.9-14.6q5.6-2.6 5.6-7.1c34-0.7 31.4 23.2-33.2 34.3-36.3 4.3-59.2 13.7-76.7 29 0.7-7.6-0.6-13.8-1.1-19.8zm62.5-26.6c10.2-7.6 23.8-13.6 42.3-17.3 5.2 0.6 1.6 5.7-2.7 6.6-13.2 4.3-26.4 8.1-39.6 10.7zm2.8 147.2c26.1-9.7 60.4-19.8 74.5-42 0.3 6.4-0.3 14.3-2.3 20.1-9.5 21.3-38.7 32.3-75.6 41.8-7.4 2.3-14 6.2-19.2 10.3-7.4-19.1 0.4-23.6 22.6-30.2zm4.4 20.6c28.7-6.8 55-18.4 69-35.9 1 6.8 1.6 15.6-1.5 20.9-10.7 19.6-36.8 29-73.7 38.5-7.4 2.3-13.9 6.1-19.1 10.3-5.1-16.8 0.2-27.4 25.3-33.8zm141.8-457.7c0.1-3.1 2.2-4.5 5.3-5.1q30.8 0 61.5 0c2.2 0.2 3.9 1.5 4.8 4.1v18.8l48.5 0.4q0-9.3 0-18.5 0.4-4.6 7.2-5.5 30.2 0.1 60.5 0.1 2.8-0.4 5 4.1l0.3 18.8 48.5-0.2q-0.1-8.2-0.1-16.3 0-6.1 5.6-6.4 29.4 0 58.8 0.1c3.6-0.3 6.4 0.9 7.5 5.2q0.1 32.9 0.3 65.8-0.2 3.8-3 3.9-152.6 0-305.2 0-5.2 0.7-4.7-4-0.4-32.6-0.8-65.3zm7.7 1.6l56.1-0.1q0 8.5 0 17c0.6 3.7 2.5 6.1 7.5 5.5q25.1 0.2 50.2 0.3c2.9-0.1 5.2-1.4 6.3-5.5l-0.1-17.5 57.7 0.2q0.1 8.8 0.3 17.5c0.6 2.4 2.4 4.2 5.6 4.8q26.8-0.1 53.5-0.2 4.9-1.1 5.6-4.6c-0.1-5.1-0.1-12.8-0.1-18l55.3 0.2-0.3 61-296.8 0.5zm-106.4 124.6c21.4-13.5 51.5-17.1 76.1-11.8 0.3 6.2 0 12.3-1.5 17.8-24-5.4-48.4-3-71.1 8.7-1.1-6.4-1.9-11.9-3.5-14.7zm90.1-44.2q165.2-0.2 330.3-0.4c8.8-0.1 11.2 4.3 10.1 11.1-4.1 23.2-3.8 46.5 5.1 69.8-3.9-2.4-11.2-4.3-16.4-5.2-110.5-0.1-216.1-0.3-326.5-0.4-5.5 0.4-11.6 2-14.6 4.5 6.7-25.8 7.1-49.1 3.2-70.7-2.5-6.4 2.8-7.8 8.8-8.7zm421.6 43.8c-21.4-13.5-52.2-16.9-76.8-11.6-0.2 6.2-0.4 12.3 1.1 17.8 23.9-5.4 50-1.3 73.8 9.3 1.2-6.4 0.3-12.7 1.9-15.5zm-2.2 18.5c-20.6-13.3-57.8-15.8-73.2-8.8 1 7.1 3.3 13.6 5.1 20.6 23-7 52.5-0.2 69.6 8.6-0.6-6.4-0.9-14-1.5-20.4zm2.6 24.8c-9.6-7.5-51.2-19.6-69.6-9.9 3.9 13.5-2 18.4-9 23.8 33.7-12.2 60.7-10.5 81.1 2.1 0.6-4.1-3-10.1-2.5-16zm-94.2-3.8c-26.4-0.1-55.3-0.2-81.6-0.3q-2.4 5.4-4.8 10.9c7.7-2.1 19.6-1.8 29.8 0 17.6 3.2 36 9.6 54.9 3.5 18-5.8 18.2-12.8 1.7-14.1zm7.6 21.2c-41.3 6.2-56.8-4.5-81.3-5.6-14.1-0.6-19.4 7.3-5.3 15.7 19.4 11.5 52.2 4.5 86.6-10.1zm79.5 1.8c-15.5-6.6-38.5-8.9-61.5-0.5-23.4 8.6-45.7 19-70.6 21.9-4.4 5-5.7 8.4-6.8 14.8 25-14.6 50.1-22.4 75.1-23.8 29.8-2 50.2 13.4 68.7 10.3 10.6-4.1 11-14.5-4.9-22.7zm119.3 24.7c-30.8-24-68.4-32.4-103.4-37.3 0.3 6.2 1.7 9.8 2 16 58.6 5.4 93 33.3 111.1 58.5 2.7-2.1 4.6-4.1 7.3-6.2 11.1-5-1.6-19.1-17-31zm4.3 36c-22.7-32.6-59.3-49.1-105-54.8 0.5 8.7 0 17.7-6 20.9 39.2 4 73.7 22.4 99.4 52.8 2.5-2.9 7.3-7.1 9.9-10.6 2.1-2.7 3.5-4.6 1.7-8.3zm-157.2-35.6c-21-10.3-62.9-8-96.5 15.8-6.9 4-4 7.6 3.2 5.9 32.7-13.7 57.8-18.9 93.3-21.7zm141.9 59.3c-7.9-24.2-56.3-51.2-99.7-55.4-9.8 4.9-21.8 2.2-33.5-1.7-25.6 0.1-72.5 7.9-102.4 21.6-4.6 1.1-8.5 0-10-2-6.9-0.3-2.1 16.2 17 15.9 108.7-36.5 198.1-2.5 221.2 37.8 1.8-6.5 5-11.8 7.4-16.2zm-38.5-2.5c-20.5-13.5-41.6-21.6-63.3-24.5-4.1 5.9-7.6 11.3-9.8 19.3 28.6-3.7 52.6 6.9 78.7 28.4 11.8 19 32.3 1-5.6-23.2zm62.7 6.7c0.3-6-2.3-7.8-7.5-10.3-4.1 3.8-8.4 8.5-11.1 13.7 4.6 2.6 10.9 5.1 15.5 8.6 0.7-4.5 2.3-7.4 3.1-12zm-5.1 16.7c-2-5.3-8.5-8.5-13.9-10.6-4.6 2-8.5 14.1-11.2 16.8 7.9 2.7 15.1 6.9 21.8 11.2 0.9-5.8 2.1-12.2 3.3-17.4zm-4.6 23c-1.3-6.5-14.3-12.5-22.8-14.4-8.2 11.8-27.8 3-39.6-9.6-23-1.1-41.1-5.3-44.9-11.8-1.2-3.2 0.2-4.2 0.7-6.2-36.2-5.3-36.4 25.4 26.3 33.8 36.2 4.3 63.1 14.3 80.7 29.6-0.7-7.6-0.9-15.4-0.4-21.4zm-66.2-26.3c-10.2-7.6-15.6-11.1-34.2-14.7-5.1 0.6-4 6.2-0.1 7.5 13.2 4.4 20.7 5.2 34.3 7.2zm2.2 150.5c-26-9.7-60.3-19.8-74.4-42-0.3 6.4 0.3 14.3 2.3 20.2 10.4 17.4 33.6 31.1 70.5 42.7 7.2 2.2 20 8.4 25.1 13.3 2-18.4 7.4-25.9-23.5-34.2zm-5.8 21.6c-28-8.6-52.9-23.2-68-38.7-0.9 6.8-1.1 17.5 2 22.7 11.2 17.2 33.1 25.4 69.3 38.7 7.5 2.3 20.4 8.4 25.5 14.7 4.5-17.3-4.7-28.3-28.8-37.4zm-4.6 22.3c-28.5-7.9-54.4-21.9-66-38.7-2.8 7.3-0.4 19.8 3.9 24.7 14.5 17.4 34.4 26.5 71.3 36 7.4 2.3 19 7.3 24.2 11.5 1.3-13.8-11.7-27.1-33.4-33.5zm10.9 32.6l-0.7 34.1c25.2-11.7 26.8-30.3 0.7-34.1zm-653.3-185.4q1.8-1.6 3.6-3.3c4.2 4.5 7.9 25.8 13.3 42 0.8 0.2 2.2 0.3 3 0.5-8.4-15.4-7.9-29.7-3.9-45.2 4-0.2 6.7-0.7 10.2 0.8q-1.6-2.7-1.2-5.5c1.6-0.5 3.2-0.7 4.9-0.1 1.3 3.7 2.5 7.5 3.5 11.4 2.7 1.5 5.4 3.6 7.1 5.9-1.7-6-3.9-12.2-5-18.5 0.5-1.2 2.8-1.4 4.1-1.7 2.3 3.6 3.3 9.8 5 13.9 1-1.2 1.9-3.3 2.8-4.5-1.9-3.1-2.6-6.3-2.9-9.6q1.7-1.4 4.3-1.6c1.3-0.2 1.7 2.4 2.9 3.8 1.5-2.6 3-5 5.4-6.4q3.7-0.7 7.4-1.3c2.9 2 5 5.4 6.5 8.3 0.5-2.4 0.9-5.6 1.7-8.1 0.9-1.1 3-1.2 5.2-1.2-0.1 3.1-0.9 8-3.1 15.3 1.4 1.4 2.8 4 3.8 6.2 0.9-7.3 2.2-15.2 4.1-22.5q2.6-0.9 5.1-0.6c-0.1 5.6-1.8 14.1-2.7 21 1.5-1.3 3-2.7 4.5-3.2 1.1-6.4 2.3-13.2 4.4-19.7q2.1-0.8 4.2-1.5c-0.4 5.2-1.2 11.2-2.2 16.4 1-0.5 2.4-1.5 3.4-2 3.2-5.7 2.7-10.9 5.2-16.5q2.1-1.9 5.2-1.8c-0.8 7.9-4.5 16.1-5.4 23.8 4.5 17.7 1.6 34.3-7.1 50 3.4-2.6 6.8-4.4 10.2-4.7 3.1 3.9 3.5 8.3 2.9 12.8-3.2 8.6-8.4 9.5-7.8-2.9-10.3 3.4-16.5 11.8-19.9 23.5q-3.1 5.4-6.7 3.7c-4.1-9.7-8.4-19.7-12.8-23-9 9.6-10.1 22.2-7.2 33.3-2 1.5-4 2.1-6.3 0.8q-2.4-6.8-4.7-13.6c-8.9-13.2-17.6-24-27.1-26.5-4 9 6.9 30.6 21.4 45.5-2.3 1.1-3.8 1.1-6.1 2.2-5.3-3.1-11.9-6.4-17.5-6.5-2.1 3.4-0.5 7.4 0.3 11.3q-2.3 0-4.6 2.1c-2.8-5.5-3.7-11.9-2.2-19.4 3.3-0.3 7.2 0.3 11.5 1.4-8.7-15.4-12.7-30.5-10.4-45.3-2-14.9-10.9-33.4-10.3-39.2zm21.6 0.5c-5.6 5.7-2 38.6 21.2 54 6.2-16.6 1.6-45.5-21.2-54zm-2.5 53.2c-0.1-1.3 2.1-1 2.3 0.2 2 12.8 11.2 24.9 21.8 35.9 1.2 1.3 0 3.5-1.1 2.4-12.9-13-22-27.2-23-38.5zm41.4-66.2c17.2 19.9 15.9 40.9 1.8 58.9-16.1-12.1-16.4-38.7-1.8-58.9zm0 7.1c1-1.2 3.4 1.6 4.2 3.2 6.8 13 7.6 27.5 0.4 42.7-0.6 1.3-2.8 1.8-3.6 1.1-9.9-9.5-11.8-33.6-1-47zm37 5.1c5.9 5.7 1.9 36.7-16.8 52.2-9-14.9-2.8-41.8 16.8-52.2zm-34.7 57.7c4.4 1.4 7.9 10.8 10.1 21.1 0.4 1.8-2.1 2.1-2.5 1.1-2.9-7.1-3.9-14.5-7.2-17.4-3.6 6.5-3.9 14.3-3.3 21.6 0.1 1.3-2.1 1.7-2.4 0.1-1.9-9.1-0.2-18.2 5.3-26.5zm32.6-0.3c-0.1-0.8 2.1-0.7 2.2 0 0.6 2.7 0 5.5-1.2 8.1-0.4 0.9-1.8 0.5-1.6 0 0.8-2.9 1-5.2 0.6-8.1zm-76.8 35c-1-0.1-0.4-1.6 0.4-1.5 3.3 0.4 7.5 2.6 10 4.3 0.9 0.7 0 1.7-0.6 1.4-2.9-1.7-6.5-3.5-9.8-4.2zm50.7-40.9c-0.3-0.6 0.3-2.1 0.9-2.5 1.6 1.9 11 13.8 7.5 15.6-2.6-6.4-5.6-7.1-8.4-13.1zm-12.2-1.7c0.4-0.5-4.5-4.1-5.1-4.5-0.4 4.3-4.7 18.4-5.5 19.8 0.4 1 2.2 1.7 2.5 2.1 1.8-7.6 4.4-12.8 8.1-17.4zm4.5-48.9c7.4 13.6 4.6 28.2 1.2 37.9-8.2-8.7-8.6-25.2-1.2-37.9zm32.1 3.5c1.1-0.9 2.4 0.5 1.6 1.4-9.6 11-13.1 25.5-12.2 39.6 0.1 1.7-2.4 2.7-2.6 1.2-2.1-17.2 3.1-33.2 13.2-42.2zm-71.9 1.9c0.3-1.2 2.4-0.7 2.3 0.5-1 13.6 4.3 25.6 14.1 37.1 1.2 1.3-0.4 3.3-1.4 2.2-12.8-13.5-17.7-27.6-15-39.8zm557.9-18.2c-4-8.8-3.3-13.6 2.4-16.5 2.4-0.3 7.8 1.6 13.2 4.7 1.3 2.1 2.6 3.6 4.1 1.3q6.1 1.2 12.3 2.5c0.3 2 2.3 3.4 3 5.1 1.8 0.2 3-1.5 4.5-2.8 1.9-0.3 3.4-0.3 3.6 1.2-5.4 2.9-6 8-4.4 13 3.9 4.2 23.5 2 17.5-8.2 1.7-0.3 3.5-0.3 5.2-0.3q0.5 1.3 1 2.5c2.7-2.1 6.3-1.5 10.3 0.3 1.5-1.5 3.9-1 6.7 0.4-1.1 3.3-2.3 6.5-2.2 9.6-0.6 4.3-5.9 4.5-7.1-0.3-1.7-5.8-8.4-4.7-9.9 1.7-1 4.5-0.3 9.2 1.6 14q-0.2 1.4-1.8 1.5c-9.3-1.3-12.7 4.1-11.5 9.7 1 4.6 3.2 8.8 8.1 12.3 0.2-10.7 5.5-13 7.4-22.3q1.4-6.4-0.9-12.5 1.5-0.2 3-0.4c2.1 4.4 3.3 9.3 3.4 14.1 7.5-2.4 10.2-8.4 11.7-15.3 0.2-6 2-8.7 4.2-10.5q2.2-2 4.4 1c-4.7 5.2-2.8 11.2-6.2 17.7-2.8 5.5-9.3 8.6-14.3 12.6-3.5 1.8-4 3.9-3.8 6.1 5.9-4.5 12.6-1.9 4.2 3.2-3.5 2-5.9 4.4-5.3 7.1 3.7-2 7.7-1.9 11.6-0.3 3.9-3.5 10.4-5.3 17.1-6.9 6.2-2.8 4.9-6.9-2-3.9-6.4 2.4-11.4 2.1-14.5-2.4q-2.9-8.4 11.3-10.4c10.9 0 16.9-1.4 17.1-4.6-0.9-3.1-6.9-4.1-10.9-0.1-3.9 0.6-4.2-2.8-2.4-5.4 5.1-3.4 8-6.9 9.4-10.4 2.8 1 5.5 2.1 7.4 4.3-1.1 1.9-2.2 3-3.3 4.8 13.8 6.8 7.2 17.4-10.7 18.2-13.9-2.9-12.1 4.3-0.1 0.8 15.4-1.8 15.4 9.2 8.2 12.5 4.3 4.3 5 9.7 2.5 16.7-0.5 2.4 6.9-1.4 3.4 7 0.2 4.2 0.1 8 0.3 12.2-3.5-0.1-6.3 1-8.9 3.1-4.1 1.6-5.4-1-3.5-2.3 1.5-2.7 3.8-4.4 6.8-5.6 5.7-4.4 3.3-9.2-3.6-6.7-5.4 0.8-8.4-0.5-7.5-3.7 1.1-6.4 7.6-6.6 9.5-11.6 1.7-5.4-7.2-7-12.2-4-3.1 2.9-5.2 6.3-6.5 10.1-1.6 4.4-5.4 1.1-5.6-2.8-0.2-4.2-4.5-4.3-6.6-3.3-9.8 4.8-5.1 16.1-1.1 22.9 1.3 2.5-2.3 1.3-3.4 2.3-0.3 8.7 1.9 17.7 9.1 24.3-0.6 1.6-2.2 1.9-6.3-0.7-11.7-16.8-9-28.1-8.7-40.2-3.2-10.6-12.9-10.8-18.3-1.7-2 2.4-3.6 1.7-4.4-1.3-0.9-3.4-1.8-6.6-1.5-10 5-10-7.2-12.3-10-2.1-1.1 2.3-1.3 4.4-2.4 6.8-1.5 1.9-2.9 0.8-4.1-2.7-2.2-3.8-1-9.3-4.8-11.6-6.2-3.8-9.7 0.5-8.4 7.9 0.5 5 2.9 9.4 6.3 13.5 1.9 1.7 1.1 2.2-2.9 1.8-2.6-0.8-4.9-1.2-6.8-1.3-3.3-4-1.1-4.3 2-4.1-6.1-12-4.4-17.7-0.5-21.5-2.9-7.5 1.4-12.1 9.9-15-3.4-1.7-5.8-0.2-10-0.8-0.2-8.6-5.3-13.2-4.3-21.5 1.4-0.7 3-0.7 4.4-1.3-1.4-0.3-3.1-1.2-4.5-1.5zm6-5.3c-6.1-6.6 5.5-10.6 8.4-3.1q0.3 4.3 0.7 8.6c3 2.9 4.3 2.4 4.9 0.3 3.3-10.9 8.6-9.1 10.8 4.7-9 7.6-3.8 17.5 12.7 23.9-2.8 3.8-3.4 7.7-2.2 11.9-1.4-1.3-3.5-2.7-4.1-5-9.1-11.4-17-21.3-14.7-30.5 2.1-3.3 2.7-6.1 4.3-8.3 0.3-3-0.8-2.3-1.7-1.3-1.5 1.5-2.2 3.1-1.2 4.9-1.8-1.7-0.9 2.4-3.8 7.1q-1.5 0.8-3.1-3.4c-2.6-1.8-3.2-0.1-2.8 3.4 4.5 7.1 9.3 14.6 13.7 23-6.4 0.5-10.7 2.1-13.1 4.5-4.3 0.8-5.1-1.7-0.8-4.5 9.5-3.2 10.1-6.5 6.6-8.7 0.7-3.6-6.6-2.5-13.2-2.8-1.4-4.5-1.4-8.4-1.9-11.2 4.4 0.2 8.6-4.2 4.7-7.9-0.1-1.5-2-3.6-4.2-5.6zm86.7 10.6c1.2 0 2.2 0.6 2.2 1.4 0 0.7-1 1.3-2.2 1.3-1.2 0-2.1-0.6-2.1-1.3 0-0.8 0.9-1.4 2.1-1.4zm-58.8 6.5c0 1-0.7 1.8-1.6 1.8-0.9 0-1.6-0.8-1.6-1.8 0-1 0.7-1.8 1.6-1.8 0.9 0 1.6 0.8 1.6 1.8zm-0.8 4.4c0.6 0 1.2 0.5 1.2 1.1 0 0.6-0.6 1.1-1.2 1.1-0.7 0-1.3-0.5-1.3-1.1 0-0.6 0.6-1.1 1.3-1.1zm6.5-2.2c1 0 1.8 0.6 1.8 1.3 0 0.7-0.8 1.3-1.8 1.3-0.9 0-1.7-0.6-1.7-1.3 0-0.7 0.8-1.3 1.7-1.3zm6.9-0.8c0.8 0 1.4 0.4 1.4 0.8 0 0.5-0.6 0.8-1.4 0.8-0.8 0-1.5-0.3-1.5-0.8 0-0.4 0.7-0.8 1.5-0.8zm6.1 1.8c0.8-0.2 1.5-0.1 1.7 0.3 0.2 0.4-0.2 0.9-1 1.2-0.7 0.3-1.5 0.1-1.6-0.3-0.2-0.4 0.2-0.9 0.9-1.2zm-5.5 3c0.6 0 1.1 0.3 1.1 0.7 0 0.4-0.5 0.7-1.1 0.7-0.6 0-1.1-0.3-1.1-0.7 0-0.4 0.5-0.7 1.1-0.7zm3.5 3.6c0.6 0 1 0.4 1 0.9 0 0.6-0.4 1-1 1-0.6 0-1.1-0.4-1.1-1 0-0.5 0.5-0.9 1.1-0.9zm-5.4 2.4c1 0 1.9 0.5 1.9 1.1 0 0.6-0.9 1.1-1.9 1.1-1 0-1.9-0.5-1.9-1.1 0-0.6 0.9-1.1 1.9-1.1zm-4.2-4.4c0.9 0 1.7 0.5 1.7 1.2 0 0.6-0.8 1.1-1.7 1.1-0.9 0-1.7-0.5-1.7-1.1 0-0.7 0.8-1.2 1.7-1.2zm-5.8 1.7c0.5-0.2 1.2 0 1.6 0.6 0.4 0.5 0.4 1.1 0 1.4-0.5 0.2-1.2 0-1.6-0.5-0.4-0.6-0.4-1.2 0-1.5zm-18.4 14.9c4.8-3.7 16.2-2.8 17.9 3.8-3.5-0.6-7.3 1.5-10.6 5.1-0.6-6.2-5.7-5.8-7.3-8.9zm30 15.4c-0.9 0.4-1.6 0.7-2.5 1-1-1.7-0.6-3.5 0.4-4.9 0.4 1.4 0.7 3.2 2.1 3.9zm34.3 5.1c-0.8-0.5-1.4-0.9-2.3-1.4 1.4-1.6 3.5-2.1 5.4-2-1.3 0.9-3 2-3.1 3.4zm-70.6-2.9c0.3-2.2 3-2.8 4.3-0.3 2.7 5.1 5.4 10.4 10.6 15.2-0.3-5.9 0.6-11.5 3.3-16.5 0.6-1 4.3-0.9 3.5 0.7-3.1 6.7-3.6 13.4 1.2 21.7 3.6 4.2 8.2 8.9 13.7 12.6-1.2-7.7-2-15.5 0-22 0.6-1.8 3.9-2.8 4 0.3 0.3 9.3-0.1 19.1 5 29 2.5 2 5.2 3.9 7.5 6.1 1.9 1.9 2.5 4.3-0.9 3.2-4.9-1.5-8.6-4.9-14.9-6.1 0.7-0.7 1.3-0.7 2-1.4-1.4-2.8-3.9-4.1-6.8-4.7q-4.6 0.4-9.1 0.7c-4.6 0.1-3.9-2.3-3.2-2.7 2.9-0.6 6.1-0.8 8.9-1.4q-3.7-5.5-8.6-5c-4.4-0.8-7.9 0-11.1-0.6-6.5-1.2-7.3-5.2-6.2-5.3 5.2-0.5 9.5 1.6 15.3 1.3-6.1-4.6-11.2-9.8-15.1-14.6-1.7-3.8-3.9-6.6-3.4-10.2zm59.7 10c1.7-2.5 2.9-2.9 3.2 1.6 0.5 6.7 1.6 12.1 4.1 14.6 3.8-8.4 8.2-15.4 13-21.8 2.5-1.5 4.1-1.4 3.3 2.3-6.2 7.2-9.9 14.9-11.4 23 3-3.1 6.3-5.6 10.8-6.3 3.4-0.1 4.6 0.9 1 4-12.5 5.8-16.1 18.6-12.3 21.4 3.6-2.7 5.5-8.8 11.7-9 3.3-0.1 3.7 0.7 0.5 3.1-5.6 4.3-9.7 8.5-8.6 13.8-0.6 2-1.3 3.3-3.7 0.6-6.2-5.2-6.4-12.4-5.6-19.4-5.8-9.6-7.2-18.9-6-27.9zm21.6 41c2.3-6.3 8.9-9.1 16.4-11.5q0.2 1.8 0.5 3.5-3.2 3-0.5 4.3 0.3 4.7 0.5 9.3c-2.9 1.3-5.5 2.9-5.6 5.3 0 2.6-0.3 3.3-4.6 2.1-3.1-0.8-2.9-2.3-0.8-4.1 1.6-1.3 3.7-2.3 5.6-3.4 4.4-3.9 5.1-7.7-2-7.8-2.8 0.3-4.6 2-6.8 3.5-2.7 1.9-3.6 1.2-2.7-1.2zm-490.2-237c38.7 4.6 50.8-6.1 77.6-6.6 14.1-0.3 16.6 4.6 5.3 15.3-18.6 10.9-48.5 5.2-82.9-8.7zm-83 0.1c15.5-6.7 36.9-7.7 60.1 0.2 23.4 8 45.5 17.5 70.4 20.9q6.5 7.5 8.2 16.9c-25.1-14.5-50.1-24.7-75.1-26-29.8-2.3-50.3 13.7-68.7 10.6-10.7-4.1-10.8-14.5 5.1-22.6zm82.5 115.8h336.4q0 128 0 256c-23.6 75.4-76.3 121.6-172.1 125.4-94.9-7.5-151.3-56.9-164.3-125.4zm9.8 11.1h316.8c0 80.4 0 163 0 243.3-22.2 71-71.8 114.6-162.1 118.2-89.3-7.1-142.5-53.7-154.7-118.2zm7.1 8.2h302.6c0 76.7 0 158.6 0 235.3-21.2 67.9-68.6 109.5-154.8 112.9-85.4-6.8-136.1-51.2-147.8-112.9zm3.2 3.7h296.2c0 75.2 0 155.3 0 230.4-20.7 66.4-67.2 107.1-151.6 110.5-83.5-6.6-133.2-50.2-144.6-110.5zm116.6 32.1c-6.2 5.1-11.3 10.3-8.9 16.2 57.9 12.9 59.1 53.8 65.7 85.6 59.1-17.6 67.1-52.6 60.9-91.4q32.2 8.9 21.2 54.4c6-7.3 9-19.4 8-35.8 9.9 7.2 15.8 31.7 5.3 59 6.7-2.6 13-6.3 18.8-10.9 5.1 6.3-11.9 36.4-31.8 50.4 4.9-0.7 9.9-2 14.8-3.9 3 6.6-16.2 28.9-43.8 37.1-16.8 10-35.4 17.3-56.5 21.1-3.6 2.3-8.2 3.4-15.1 1.8-5.6 2.5-11.3 2.6-17.9-0.5-18.1 4.3-34.5-0.5-49.8-10.3-5.5-0.6-10.9-0.9-16.4-1.6-4.9 2.9-9.2 3.7-12.3-0.1-0.3-3.2 0.5-6.1 1.6-8.9q2.6-1.3 3.8 1 0 2.3-0.1 4.5c1.2-1.3 1.1-4.1 3.4-4q1.5 1 3 2c15.5 3.3 29.6 1.4 44.9 5.9q1.9 2.1-2.4 3.7c-3.5-0.6-7-0.8-10.5-1.4 1.9 5.3 23.7 8.5 31.1 4.9 4.5-0.2 7.6-1.5 9.7-3.7q2.8-1.7 4.2 1.9-4.7 3.9-1.7 3.6c3.1 0.6 6.1-1 9.2-2.1 4.9 2.1 9.2 2.2 12.7-1.5 18.5-3.2 36-8.6 51.2-18.1 2.3-1.3 4.8-0.8 6.8-2.8 22.2-7.6 31-15.3 36.5-23.7-4.2-0.9-7 1.7-10.4 2.5-0.2 1.7-0.8 4.1-1.1 5.8-23.6 12.1-46.4 20.3-70.1 26.2-1.6-1.4-3-2.8-2.7-4.2 3.7-0.4 7.6-1.2 11.3-2.4-1.1 0-1.8-0.7-1.9-2.1 0.7-0.2 1.4-0.5 2.1-0.7 1-1.5 1.3-2.5 2.3-3.9 3.3-3.1 5-2.1 5.9 0.6-1 1.3-2.1 3.1-3.1 4.3 9.8-1.8 19.1-5.7 28-9.5-0.8-2.7 0.1-5.9 1.1-8.7-12.3 5.9-24.3 10.5-36.6 12.5-4.3-1.4-3.7-3.3-1-5.4 6.3-0.4 12.6-1.6 18.9-3.7q1.3-4.9 2.5-9.9c0.6-2.8 2.8-3.3 4-1.1q-0.4 4.2-0.7 8.4c1.3-0.2 2.7-0.6 4-1.4q1.3-6 2.5-11.9c0.1-2.9 1.8-3.8 4.1-1.6-0.6 3-0.7 6.4-0.4 9.4q2.1-0.4 4.2-1.7c1.5-4.7 2.2-9 1.6-12.6q1.9-4.7 4.4-0.6c0 2.8-0.1 5.7-0.5 8.7 1-0.3 2.1-1.1 3.3-2.6 0.9-3.4 1.1-6.8 1.1-10.2q1-3.3 4.4-1c0.3 2.4 0.5 4.8-0.2 7.4 10.7-9.3 21.9-19.6 31.2-29.4-6 3.6-12.3 7.9-18.7 16.7-4.7 1.7-7.8 2-9.3 2.2 18.8-19.2 30.7-39.1 25.3-61.7-2.4 5.9-4.7 11.9-8.9 17.9 4.1 9.7-5.7 21.7-18.4 34.1q2.2 0 4.4-0.1 3.3 1.5-0.4 4c-3.3 0.8-6.6 1-9.8 0.9q-19.8 15.6-45.1 28.9-4.6-1.1-3.6-4 1.5-2.2 5.1-2.1 6.3-3.5 12.5-7.1c1.4-4 2-7.8 1-11.1 0.2-3.7 1.5-5.3 5-2-0.2 2.5-0.1 5.5 0.1 8.7 1.2-0.2 2.3-1.1 3.5-2.1q1.2-5.5 0.3-9.7c1.5-2.4 3.1-1.6 4.6-0.4-0.2 2.1-0.3 4.2-0.5 6.6 1.6-0.2 3.3-1.2 4.9-2.6 0.4-3.1 0.5-6 0-8.3q2-2.8 4.6-0.9 0.2 1.9 0.4 4.3c4.5-1.3 8.5-5.6 12.6-9.7 0.4-2.1 0.2-4.1-0.3-6.2 0.2-2.6 2.7-3.1 4.6-2.2 0.3 0.9 0.9 1.7 1.2 2.6 5.7-4.8 7.6-10.1 9-15.2-10.3 10-22.4 18.5-34.1 26-4.7-0.6-6.3-1.7-7-3.9 0.9-1.8 3.3 0.2 5.4-0.8 43.9-31.2 39.5-67.2 22.3-78.3 0.5 10.4-0.3 20.9-3.1 31.4 1 1.5 1.6 3.1 2.1 4.7 3.7-7.9 4.2-17 3.4-26.6 3.1 0.2 4.9 2.9 5 9.5-1.5 27.2-14.4 44-31.3 57q-6-0.4-3-3.7c12-10.5 13.9-14.4 12.9-16.6-12.9 13.8-25.4 28.4-52 32.6q-6.9 2.1-13.7 4.3-16.2-8-36.5-6.5-3.9-1.4-0.8-4.4 3.1-0.4 6.2-0.8c0.6-5.8-0.5-11.3-1.7-16.7q-0.4-5.2 4.9-1.1c1.4 6 2.4 12 2.8 18q1.3-0.2 2.7-0.4c0.4-4.1 0.3-8.2-1.2-12.3q0.8-4.2 3.6-0.8c1.2 3.8 2.1 8.3 2.8 13.7q3.4 1.3 6.7 2.6c0.4-8.3-0.4-17.1-4.9-25-3.2 0.8-5.7 1.6-8.9 2.4-3.1-0.9-3.6-1.7-2-3.3q4.6-1.5 9.2-2.9c0.6-1.1 0.2-1.8-2.2-1.3q-2.9 0.9-5.8 1.7-5 0.2-2.7-3.8 4.7-0.1 7.6-2.3c1.4-1.2-1.2-3.2-1.7-4.7 0.6-3 2.5-3.3 5.4-1.3 3.4 5.4 6.1 10.9 8.8 16.4 1.2 1.3 6.2-1.8 9.3-2.1-4-29.9-32.1-55.4-57.1-54.8q-2.8 0.1-5.6 0.2-2.4-1.5-0.6-3c2.2-1.3 3.5-5.5 2.5-8.1-3.5 3.8-4.7 8.2-4.9 12.3 0.6 1.2 2.4 1.4 4.4 1.5 1.2 2.1 0.2 3.4-6 3-6.2-2.4-4-10 2.9-20.6-4.6 1.8-9.5 4.5-9.7 10.2-0.1 1.5-0.8 3.6-3.3 3.5-7.2-12.7 11.5-23.5 31-20zm-38.3 21.6c0.2-3.6 7.2-3.6 5.4 0-0.8 2.2-1.3 4.5 0.5 6.9-0.8 1.6-1.8 3-3.3 3.9 2.2-0.5 4.1 0.1 5.4 2 0.1 2.7 0.3 6.4-0.5 9.2-0.2 3.1-2.7 3.5-6.8 3-3.5 2.2-7.1 4.2-10.7 6 3.1 1.8 6.9-4.8 15.2-5.3 3.1 2.4 1.2 3.6-2.9 4.5-2.8 2.8-12.6 5.6-10.3 6.1 1.6 2.1 3.8 3.8 7.3 4.4 2.9-1.7 5.8-3 8.7-3.8 2.8-0.5 4 2.2 1.6 3.2-3.2 1.8-6.4 3.5-9.8 5 2.6 2.3 6.1 3.3 9.9 3.6 2.2-0.7 3.2 2 1.4 3.2-2.3 1.1-5.5 0.4-8.7-0.4-2.8 1.3-4.6 6.7-3 6.8 3.3 1.8 3-4.9 14.4 1-0.2 5.3-4.2 1.9-7 2.1-3.5 1.3-7 1.9-10.5 1-1.7 1.8-2.4 3-1 3.1 4.4 2.3 6.3-2.5 13.1-1q1.8 0.6 3.5 1.1 3.2 1.7 8.4 0.4c0.5-2.7 0.8-5.4-0.2-7.4-0.5-2.8 4.8-4.2 4.9-2.8 1.1 2.8 1.1 7.4 0.7 12.8-7.5 2.5-13.2 2.5-16.9-0.6-16.4 4.3-14.6-0.8-16.9 1.7-2.1 2.2-5 1.4-4.6-0.9 0.5-3.2 7.2-12.3 8.1-18.8-2.8 1.2-6 1.4-11.2 0.9-3.3 0.5-6.1 1.3-7.7 3-5.3 4.7-10 7.3-13.2 4.4-3.2 0.6-6.1 0.9-6.5-0.8-3.2 1.2-2.5-5.4-4.8-3.8-6.3 1.6-7.7-2.3-12-2.8-7.5-2.6-5.7-6.4-1.5-10.4 1.4 0.1-2.7-6.1 3.7-6.7 2.5-0.1 3.4 1.8 1 3.6 1 2.5 0.3 4.8-1.9 7.2-2.2 1.2-1.2 3.4 0.6 2.4-0.2-3.2 6.1-6.9 4-8.9q0.7-3.4 4-1.2c2.8 2.5 1.3 4.5-0.6 6.5-4.1 3.7-2.6 6 0.4 5 1.4-0.4 3.1-1.6 4.7-3.6q2-2.8 4.9-2.6c2.1 0.9 4.6 0.3 7.2-0.8 4.8 0.6-1 6.8-4 5.9-3.2-1.8-5.3 0-7 3.2 4.4-1.2 1.3 6.7 7.9 2.4 4.9 4.5 5.3 0.5 10.8-3.2 3.8-1.8 7.8-3.6 11.8-5.1 3.5 2.1 6.5 2.5 8.2-0.6-2.5-1.5-4.8-3.1-7-4.9-5.4 1.2-8.7 5.4-12.5 6.2-5 1.5-6 0.7-5.1-1.1-2.1-2 2.1-2.1 5.5-2.7 1.9-2.5 5.6-4.7 9.9-5.6-0.2-1.3-0.9-2.5-1-3.7-7.7 0.2-12.4 4.3-17.3 7-3.9 1.7-6.5-1.4-3.5-3.2 4.7-3.5 10.8-6.2 17.4-8.6q0.2-1.4-0.4-2.8c-4.5 1.6-8.9 3.5-13 5.9-3.4 2.3-5.9-1.6-2.9-3 4.6-2.6 9.5-4.9 14.1-7-2.8-5.1-1.5-13.1 11.3-13.5 2.6-1.3 4.8-3.1 6.5-5.4 1.1 0.1 1.8 1.9 2.2 4.6-3.3 1.8-5.4 5.2-9.9 5.3 3.4 0.5 5.5 1.6 4.6 4-0.3 0.4-1.8 0-2 0.4-0.3 0.6 0.6 1.9 0.3 2.4-9.7 3.8-5.8-4-8.8-3.8-0.4 3.7 0.3 6.5 8.2 5.5 3.8-0.6 3.6 2.1 0.5 4.4-9.4 0.1-4.9 1.9-3.7 2.4 1.5 0.3 4.2-0.6 7.2-1.8 2.2-3 4.8-5.1 8.3-4.8 0.6-1.6 0.6-3 0.4-4.3q-12.4-2.1-3.5-9c-1.1-0.6-0.9-3.1 0-6.9zm18.3 12.8c3 0.5 7.9-2.3 8-8.3 1.3-2 3.9-1.9 4 1.2-0.7 7.8-5.2 10.2-12 10.5-2.2-0.6-2.6-2.6 0-3.4zm4.7 4.5q6.6 0.3 9.7-7.8 0.3-2.3 3.3-0.5c8.9 6.4 16.6 13.1 22.7 20q-2.1 4.7-4.9 1.8c-6.2-6.4-12.5-13.1-18.2-15.9-3.4 3.9-7.2 6.8-11.9 6.4-2.7-1-2.7-3.3-0.7-4zm38.5 1c0.9-2.8-0.7-4.3-3-2.7-2.1 2-2.8 2.9-4.7 3.3-2.3 0.7-1.6 2.5 1.4 2.8 3 0 4.2-1 6.3-3.4zm4 5.1c0.9-2.8-0.7-4.2-3-2.6-2.1 1.9-2.6 2.4-4.5 2.8-2.3 0.7-1.6 2.5 1.4 2.8 2.9 0 4-0.6 6.1-3zm-48.4 6c-1.1-2.7-3.3-3.2-4.2-0.9-0.6 2.6-0.7 3.8-2.1 4.9-1.5 1.6 0.3 2.9 3 1.7 2.5-1.3 3-2.7 3.3-5.7zm42.7 14.4c0.5-2.3-0.8-3.7-2.7-2.6-2.2 1.5-1.5 0.9-3.3 1.6-0.9 0.3-0.8 3 0.7 3 2.8 0.1 3.1 0 5.3-2zm-37.2 1.6c2.1-2.3 0-4.5-2.3-3-2.5 1.6-2.9 3-4.3 3.8-2.1 1-0.1 3.8 1.9 2.4 2-1.5 2.7-1.1 4.7-3.2zm0.7 6.7c2.5-1.9 0.9-4.5-1.6-3.3-2.8 1.2-3.5 2.5-5.1 3-2.3 0.7-0.9 3.8 1.3 2.7 2.3-1.1 3-0.6 5.4-2.4zm19.2 24c-0.5-2.9-3.8-3.2-4.2-0.7-0.3 2.6 0.6 3.8 0.2 5.2-0.6 2 3.2 2.7 3.4 0.6 0.2-2.3 1-2.5 0.6-5.1zm13.9-63.3c0.1-2.9-1.9-4-3.6-2.1-1.6 2.3-2.1 3.4-3.8 4.1-2.1 1.1-0.9 2.7 2.1 2.4 2.8-0.5 3.8-1.7 5.3-4.4zm-23.1 15.3q0.3-2.1 2.8-2.4c7 1.8 12.8 13.1 18.1 28.6q-2.8 2.3-5.6-0.2c-4.6-13.6-9.8-21.7-15.3-26zm-6.7 12c-0.4-1.9 0.5-3.5 3.1-2.8 5.9 5.2 8.4 17.5 9.3 32q-3.3 1.8-5.5-1.1c-0.1-13.1-2.5-23-6.9-28.1zm9.4 5.5c-0.4-1.9 0.9-3.3 3.4-2.6 4.8 6.5 5.3 12.1 6.9 25.8q-3.3 1.8-5.4-1c-1.1-13-1.4-16.9-4.9-22.2zm91.6 29.3c2-0.8 4.1-0.5 4.1 1.8-4.1 7.8-27.7 14.7-44.6 16.9-1.9-1.5-3.4-2-1.6-3.7 16.1-2.1 38.1-9.1 42.1-15zm-45.8-15q1.7-0.7 3.5-1.4c1.5 1.2 4.9 19.8 2.6 23.5-1.3 1.1-2.8 1.8-4.4 1.3-1.9-0.7-3.4-1.1-4.6-1.5-0.8-1.4-0.5-2.9-0.2-4.4 2-0.6 4.2-1.3 6.2-1.9 2-1.4 1-4.4-1.7-3.9-4.9 1.5-7.7 0.5-0.2-1.3 2.7-0.9 2.4-4.5-1.1-4.1-4.4 1.3-6.3-0.3 1-1.8 3.8-1.1 3.3-4.4-0.3-3.6-6.7 1.3-7.1 0.7-0.8-0.9zm-27.8 23.8q6.2 0.7 2.4 3.6c-1.4 0.1-2 0.6-1.9 1.5 0.4 2.3-2.4 2.8-3-1.4-0.6-2.3 0.1-3.7 2.5-3.7zm36.5 15.8c6-0.1 12.4-2.2 18.7-5.2q5.4 1.1 1.8 3.7c-6.3 3.6-12.9 5.2-19.6 4.8-3.6-0.9-2.9-2.7-0.9-3.3zm-2.7 17.4c6.2-0.8 7-1.3 13.5-2 2.1-1.6 1.3-3.6-1.3-4.5-7.7 0.8-7.4 1.3-13 2.6-2.8 2.1-1.3 4.1 0.8 3.9zm-12.7 4.2c2.2-0.5 2.8-1.1 6.2-2.1 1.8-2.1 0.6-3.9-2.2-4.2-2.6 0.9-1.2 0.3-6 3-2 2.4 0.4 3.8 2 3.3zm79.6-78.7l2.6-4.4v5.9l-2.3 3.5zm41.1 26.8c2.5-1.7 4.9-2.8 7.5-4.6-2 7.5-2 18.8-42.4 46.1-2.9 1.1-1.5 3.4 1.9 3 1.9 0.4 5.4-3.5 5.5-0.8 0.3 0.9-0.3 2.2-1 3.6-3 1.8-5.8 3.1-8.6 3.6q0.2-1.7 0.3-3.5c0-4.1-3.6-3.9-5.1 0.2-1 2.2-0.5 4.3-1.4 6.8q-1.1 0.4-2.3 0.8c-2.9-3.3 4.1-6.3-1.2-8.1 11.7-7.6 47.1-40.3 47.5-43.5 1.7-1.3 1.1-2.9-0.7-3.6zm-188.7-67.7c1.7-2.5 4.1-2.6 4.4-0.2q-0.2 4 1.3 6.1c1.1 1.8-0.9 2.7-3.3 1.1q-3.1-2.6-2.4-7zm-34.4 14.4c2.9-0.9 4.1 1.5 1.9 3.2-11.7 5.3-17.3 9.4-15.5 12.1-3.9 1-7.7 2.1-11 3.8-1.3-0.3-2.1-2.1-2.6-3.4q2.2-0.6 4.5-2.5c3.1 0.3 4.8-0.6 5.2-2.9 5.1-3.5 11.7-6.9 17.5-10.3zm20.6 58.4c3.5 0.6 9.6-4.3 14.7-2 3.2 0.4 2.5 3.3-0.6 3.9-2.8-0.8-5.4-0.3-8.2 0.7-1.2 1.8-3.4 1.7-5.7 1-3.1-1.1-3.2-3-0.2-3.6zm-8-1.4c2.7-0.2 4.1 0.5 4 2.1-1.6 3.3-3.2 6.6 0.4 7.3 2 2.6 5.3 0.7 9.1-2.7 3.7-1.7 7.3-1.7 11.5-1 1.4-0.8 2.4-2.8 2.7-4.8 2-1.2 4.7 0.2 4.5 1.9-2 2.8-1.9 6.5-4.5 8.1-3.7-0.1-6.7-1.8-9.3-1.3-3.8 0.7-5.6 3.6-10.2 4.7-3.2 0.3-6.1-0.3-8.6-3-4.7-1.5-3-5.5 0.4-11.3zm32.1 13.6c1.5 0 2.6 1.1 2.6 2.5 0 1.4-1.1 2.5-2.6 2.5-1.4 0-2.6-1.1-2.6-2.5 0-1.4 1.2-2.5 2.6-2.5zm2.4-13.5c1.4-2 5.4-2.2 5.2 0.2-0.5 3.5-1.2 7-2.7 10.6-2.1 0.7-5.2 1.1-5-0.6 1-3.3 1.8-6.7 2.5-10.2zm-40.1 13.1c1.3-0.6 2.5-0.9 2.7 2q2 12.4 7.8 5.1c4.1-3.8 10.7-5.9 18.3-7.3q2.9 1.2 0.3 4.8c-4.7 0-9 1.6-13.2 3.9-2.3 2.3-4.5 4.6-7.1 6-0.7 1.9-0.9 3.7-1 5.5-1.5 2.4-4 2.7-4.2-1q-0.1-2.1-0.2-4.2c-0.8-0.7-2-1.5-2.7-2.2-3 4.3-3.1 8.5-1.4 12.4q2.8 8.6 5.6 17.3c-2.3 1.9-5.4 2.9-8.4 3.8-5.9-3-10.5-2.9-12.9 4.5-1.8 0.5-3.6 1.5-5.1 2.6q-6.2 3.4-12.8 7.9-4.6 13-10.4 26c-1.2 4.9 1.6 5.7 5 5.8 1.7 0.3 2 1.2 0.9 3.5-1 0.2-2 0.6-2.8-0.2-0.5 2.5-0.5 5.1 0.3 7.7 4.6 4.6 9 9.4 14.3 12.9 3-0.7 6.4 0.6 4 3.3-2.2 0.9-4.8 1.1-8.1-0.4-4.4-4.8-9.7-9.1-15-13.4q-0.7-6-0.3-10.2-4.8-4.3-2.7-10.3 5.1-13.2 10.2-26.4 4.5-3.5 9.1-7.1c4.3-0.8 8.3-3.3 12.3-6 1.7-0.9 1.7-1.8 1-2.7 0.4-2.5 3.7-2.9 7.4-2.9q8.2 2.6 7.6-1.5-1.4-4.8-3.5-9.7c-4.2-8 0.3-18.2 5-29.5zm3.5 24.8c0.1-1.8 4.1-2.5 4.8-0.3 1 7.9 3.1 15.6 9.8 22.7q1.3 1.3-1.3 2.1-10.3 1.9-18 3.3c-10.2 3.2-16.6 8-21.1 13.6-3.3 4.6-3.2 9.4-6.1 14-0.4 1.9 0.1 3.7 1.4 5.4-2 2.8-2.3 5.5-3.4 8.2-0.9 1.6-0.2 2.9 1.3 4.1 1.9 5.5 6.8 9.4 12.7 12.8-0.5 1.8-0.6 3.7 0 5.5q4.8 3.7 10.5 4.3c0.4-1 0.7-2 0.7-3-0.9-3.1-2.3-6-4.2-8.5-1.9-2.7-3.9-3.1-5.8-3.3-2.7 0.7-2.8-1.2-1.2-3q1.2-1.8 2.4-3.5-5.2-5-6.5-11.7c-6 0.8-5.8-2.1-0.1-5.4 1.6-4.6 5.8-9.8 11.8-15.3-0.6-3.5-0.6-6.8-0.4-9.9 1.4-2 4.2-1.9 4.2 1.2-0.1 3.5 0.4 6.9 1.2 10.4-5.5 5.4-10.4 10.7-10.7 15.6-1.9 6.5 3.2 10.2 6.6 15q-0.4 1.9-1.9 3.2c0.8 0.8 2 1.4 3.3 2 2.5 4.2 4.7 8.5 6.4 12.8 0.5 3-0.4 5.9-1.5 8.8-6.6-0.6-13-2.9-19.2-7.1-1.2-1.4-1.2-3.7-0.9-6.3-6.5-3.9-10.4-8.6-12.5-13.9-1-1.4-1.9-2.9-1.2-4.9 0.8-3.6 3.3-8.2 2.4-10.9-1.7-1.8-1.3-3.5 0.2-5.1q1.9-3.5 3.3-8c2.2-5.7 7-11.1 14.1-16.3 6.9-3 16.1-5.4 26.9-7.3-5.4-7.1-7.9-14.2-8-21.3zm-7 31.6c0.2-0.8 0.5-0.6 1.7-1 1.3-0.5 2.6 2.7 2 4-0.7 1.2-1.8 1-2.5 0.8-0.8-0.2-1.5-3.1-1.2-3.8zm-6-9.5c0.9 0 1.7 0.5 1.7 1.2 0 0.7-1 1.4-2 1.4-0.9 0-1.6-0.6-1.6-1.2 0-0.7 1-1.4 1.9-1.4zm-16 46.1c-1.9 0.5-1.9 0.5-3.1 1.7-1.2 1.2 0.2 2.8 2.2 2.6 2-0.1 2.7-0.6 3.6-2.2 0.8-1.6-0.7-2.7-2.7-2.1zm39.4-69.4q4.6-0.1 3.9 1.8c0.1 6.1 2 10.8 5.1 14.5q0.6 2 2.4 0.9c-2.4-4.4-4.1-9-4.6-13.9 0.9-1.1 3.2-0.8 5.8-0.2 0.6 4.4 2.1 8.7 4.9 13 5.6-0.8 11.2-1.1 15.9-0.1 2-0.4 1.9 0.3 0.3 3.4-9.5 0-17.8 1.7-25.4 3.7-7.3-8-9.5-15.6-8.3-23.1zm23.5-7.6c1.1-1.2 3-2.1 5.1-1.8 2.7 0.3 3.6 1.4 1.4 2.4-1.1 0.6-2.2 1.9-3.7 2.8-2.7 1.7-4.5-1.5-2.8-3.4zm23.9-1.8c1.8-0.8 4.1 1.1 4.9 2.1 0.1 0.6-0.2 1.4-1.2 2.5-0.9 0.9-2.9 0.3-5-0.6-2.8-1.4-1.7-2.7 1.3-4zm9 7.2c-2.8-2.1 0.3-4.9 3.1-3.9 3.9 1.9 7.4 4.2 10.6 6.8 7.8 9.1 4.3 18.1-6.5 24.8-3.8 1.3-6 2.7-5.9 4.1-0.4 3.8-5.8 5.7-15.4 5.9-3.7-0.2-5.1-4.8 0.1-4.6 5.6 1.3 8.3-0.4 9.6-3.4 2.2 0 3.5-1.5 4.9-2.9 2-3 5.8-3.6 8.6-7.4 6.7-8.6 0.2-14.3-9.1-19.4zm20.5 18.2c-1.2-0.6-2.2 1-3.3 2.1 0.8 10.8 7.2 18.2 26.3 19.1 3.3-0.3 3.8-4.3-0.1-4.7-14.6 0.4-20.5-6.5-22.9-16.5zm-14.4 13.6c0-2.7 2.7-3.1 5.8-1.2q1.3 0.8 2.7 1.6c1.1 4.2 0.2 6.7-1 9.1-2 1.2-3.3 0.9-3.9-0.5 1.1-2.9 1.5-4.9 0.1-5.4-0.6 0.5-1.3 1-2.5 1.3 1 3.2 0.3 5.9-0.6 8.4-3.8 1.7-4.7 0.8-4.2-1.2 0.3-1.2 0.2-2.1-0.1-2.8-3.2-0.6-1.3 2.7-1.8 4.8q-3.5 4.5-5.9 1.8 0.7-2.1 0.2-3.9c-5.4 1.3-7.2-2.3-2.5-3.7 3.4-1 8.3-4.2 13.7-8.3zm-145.2-420.7c13.3 0 25 0 38.2 0 28 6 4.2 29.9-11.3 13.6 9.1 1.8 10-7.5 4.1-8.7-3.7 0-3.4 0-7.2 0 1.2 1.3 0 2.6 1.2 3.9q0 10 0 20.1c-1 2.3-3.1 4.1-6.7 5q-7.4 0-14.9 0c2.1-1.6 3.6-3.2 3.7-5q0-10.9 0-21.9c-2.7-1.6-6-3.5-7.6-5.7-0.4-0.5 0.1-1.3 0.5-1.3zm1.9 1.3c12.3 0 23.1-0.1 35.4-0.1 24.5 3.4 6.5 24.8-7 13.7 9.8-3.4 5.8-9.9 0.3-11.1-3.5 0-6.5 0.3-10 0.3-0.1 0.7-0.1 1.1 0.3 1.3 1.1 0.6 2.3 2 2.9 4q0 9.3 0 18.6c-0.9 2.1-1.7 3.9-5 4.6-4.6 0-6.3 0-10.9 0 0.1-1.4 0.4-2.9 0.5-4.6 0-6.7 0-15.2 0-22-2.8-1.8-5.6-1.9-6.5-4.7zm48.6-1.3q12.1 0 24.3 0c0.7 0.5 1.5 1 1.7 1.9q6.2 15.1 12.5 30.2c0.2 0.6-0.4 1.8-1.2 1.8-7.6 0-13.3 0-20.9 0-1.4 0-1.2-0.9-0.6-1.6 3.4-1.9 3.5-3.4 2.7-4.9q-1.1-2.2-2.3-4.4-5.6-0.1-11.1-0.2c-4.5 5.9-9.4 11.1-16.4 11.1-0.2-2.4 2-3.5 3.6-4.9 3.9-7.6 8-15.3 11.9-23q-2.1-1.9-4.2-3.8c-1.1-0.8-1.2-1.5 0-2.2zm3.6 1.7c7.2 0 12.3 0 19.6 0 0.6 0.5 1.3 0.9 1.5 1.7q5.6 13.6 11.2 27.2c0.2 0.5-0.4 2.1-1 2.1-6.9 0-9.1 0-15.9 0-1.2 0-1-0.8-0.5-1.5 3.1-1.7 1.3-3.6 0.5-4.9-0.7-1.3-1.4-2.8-2.1-4.2-3.3 0-9.3 0-12.6-0.1-4 5.3-6.8 9.3-13.1 10.1-0.6-0.8 2.6-2.8 3.5-4.3 3.6-6.9 7-13.8 10.5-20.7 0.6-0.6 1.4-1.7 0.2-2.2-0.6-0.3-1.2-0.6-1.8-1.2-1.4-1-1.7-1.8 0-2zm7.6 10.2q1-0.3 1.7 0.5 1.2 2.8 2.4 5.6c0 0.6-0.1 1.2-1.2 1.3q-2.7 0-5.4 0-1.9-0.3-1-1.8c1.5-1.6 2.6-3.5 3.5-5.6zm0 2.1q0.8-0.2 1.2 0.3c0.6 1.4 0.8 1.4 1.4 2.8 0 0.4 0.3 1.1-0.5 1.1q-1.9 0-3.8 0.1c-0.9-0.2-0.6-0.4-0.6-1.1 1.1-1.1 1.7-1.7 2.3-3.2zm107.9-14c11.8 0 22.5 0 34.6 0 27.9 6 4.1 30.3-11.4 14.1-0.4-0.7 0.2-1.4 0.8-1.2 7.8 1.9 9.9-7.5 3.4-8-3.8 0-3.5 0-7.3 0 1.2 1.3 1.1 2.1 1.2 3.9q0 10 0 20.1c-1 2.3-3.1 4.1-6.6 5-5 0-9.2 0-14.2 0-0.3 0-1.4-1.2-0.6-1.6 1.7-0.8 3.4-2.1 3.5-3.4q0-10.1 0-20.1c0-0.6-0.7-1.9-1.1-2.4-1.5-1-2.2-1.5-3.8-2.6q-2.1 5.3-4.2 10.5-1.8 1.7-2.7-0.2c-2.1-3-3.6-6.3-5.7-9.2-2.5 0-4.4-0.1-7-0.2-2.5 0.5-0.5 1.5 0 2.2q0.1 9.6 0.1 19.3c-0.7 3.6-3 6.4-8.9 7.7q-5 0-9.9 0c-2.3 0-3-1.1-1.4-2.1q1.3-1.1 2.2-2.5-0.2-10.5-0.4-21-0.3-1.5-1.5-2.1c-1.9-1-3.4-2.1-4.8-3.3q-1-0.6-1.3-1.1c0 0.5-0.2 0.9-0.5 1.3q-3.8 6.8-7.7 13.7c-1.1 1-1.1 1.8 0.3 1.7q5.6-0.2 11.2-0.4c2.5-0.2 2.7 1.2 1.9 2.2-5.3 10-13.3 17.2-22.9 19.1-2.4 0.6-3.4 0.2-2.1-1.8 3-4.4 5.9-8.8 8.7-13.2 0.9-1.1 0.1-1.5-2.3-1.4-6.8 0.5-13.6 0.6-20.4 0.1-0.9 0-1.7-0.8-0.7-1.8q7.1-8.5 14.8-16.3c-2.7-0.1-5.8-0.1-8.5 0.1-2.3 2.6-3.8 5.5-5.3 8.7-0.7 1.2-1.7 1.4-2.1-0.1-1.5-3.6-2.9-7.2-4.1-11-0.6-0.9-0.8-1.8-0.7-2.7q19.4 0 38.8 0c0.8 0 1.3 0.2 1.5 0.6q0.2-0.3 0.5-0.6 23.3 0 46.5 0m-3.6 0q1.9 0 3.7 0m-86 1.2q18.2 0 36.4 0c2 0 0.6 1.8-0.1 3-2.5 4.2-6.2 9.2-8.6 13.5-1 1 0.4 1.8 1.7 1.7 3.4-0.1 8.1-0.2 11.5-0.3 2.4-0.2 2.6 0.2 1.8 1.2-5.1 8.8-10.8 15.4-19.6 17.9-2.3 0.5-3.2 0.1-2-1.7 2.8-4.1 6.2-8.3 8.7-12.4 1.2-1.4 0.2-2.3-2.3-2.1-6.3 0.6-14.1 0.8-20.5 0.3-0.6 0-1.3-0.1-0.6-1.1 4.1-5 10.5-11.6 15-16.3 0.3-0.3-0.2-1.1-1.3-0.9-2.5-0.2-7.1-0.1-9.6 0.1-2.2 2.3-3.6 5.1-5.1 8.1-0.6 1.2-1.1 1.3-1.5-0.1-1.4-3.3-2-4.7-3.2-8.3-0.5-0.9-0.7-1.7-0.7-2.6zm83.4 2.1q-1.7 4.5-3.4 9-1 1.4-2.1 0c-2.1-2.7-2.5-6-5.4-8.6q-5.9 0.1-11.8 0.2c-1.4 0.4-0.8 1.2 0 1.6q2.4 0.6 2.6 2.4 0.2 9.3 0.4 18.6c-1.1 3.3-3.2 5.6-7 5.9q-4.7-0.1-9.3-0.1-0.3-0.6-0.7-1.2 1-1.2 2-2.4c-0.6-7.4-0.1-14.7-0.1-22.1q-3.1-1.8-6.3-3.7c-0.5-0.5-1.4-1.6-0.1-1.6 12.4 0 65.1-0.1 77.4-0.1 25 3.6 6.5 25.4-7.7 14.1-0.4-0.5 0.1-0.8 0.5-0.9 9.4-2.5 6.9-10.6 0.5-10.6-3.5 0-6.5 0.1-10 0.1-0.1 0.7-0.2 1.2 0.3 1.2 1.3 0.2 2.5 1.9 2.9 4.3q0 9.3 0 18.6c-0.9 2.1-1.6 3.9-4.9 4.6-4.7 0-7.6 0-12.3 0-0.4-0.2-0.7-0.9 0.3-1.5 1-0.7 1.5-1.8 1.5-3.1 0-5.9-0.1-13.1-0.2-19.4 0-0.9-0.2-1.9-0.7-2.6-1.3-1.3-2.2-1.9-4.1-2.8q-1.2-0.6-2.3 0.1zm81 30.6c-5 0-9.7 0-15 0-1.4 0-1.2-0.9-0.6-1.6 3.4-1.9 3.7-3.4 2.9-4.9-0.8-1.5-1.2-2.9-2-4.4q-5.5-0.1-11-0.2c-3.5 6.4-8.5 11.6-16.9 11.1-0.9 0-0.4-2.2-0.1-2.7 0.8-1.3 2.2-1.2 3.3-2.2 4.2-7.6 8.8-15.3 12.8-23-1.4-1.3-3.1-2.6-4.5-3.8-1.1-0.8-2.2-2.2 0.2-2.2q12.2 0 24.3 0c0.8 0.5 1.5 1 1.8 1.9 4.2 8.5 8.5 17.4 12.3 26.2q0.6-0.3 1.2-0.8 6.2-11.3 12.4-22.7c-1.5-0.7-2.7-1.6-4-2.3-0.7-0.8-1.1-2.3 0-2.3q11.7 0 23.3 0c2.5 0 2.5 0.8 3.5 2.1 4.1 8.7 8.2 17.4 13.7 26.1q3.2 0 6.4 0c2.7 0 3.1 1.7 2 2.9q-4 5.1-7.9 10.1c-1.2 0.9-2.2 1.1-2.9-0.3q-1.8-3.5-3.6-7-20 0-40 0-2.6 3.6-5.2 7.3c-1 1-1.9 1-2.9-0.4q-1.7-3.4-3.5-6.9zm5.9-4.8c1.5 1.1 4.4-0.4 4.8-2.2 3.9-7.1 8.1-14.2 12-21.3 0.2-1.2-0.2-1.4-1.3-2.4-0.7-0.7-2.2-1.9-1.1-1.9 7.3 0 12.4 0 19.7 0 2.2 0.4 1.7 0.7 2.6 1.9 3.9 8.2 8.4 18 13.5 26.2q3-0.1 6-0.1c1.8 0 2.6 0.4 1.9 1.2-2.5 3.2-4.7 6.3-7.2 9.5-0.2 0.2-1.1 0.2-1.2-0.3-0.9-1.9-1.6-3.8-2.9-5.8 0.1-0.6-1.6-1.7-2.2-1.6-12.5 0-25.7-0.2-38.3-0.2-1.3 0.3-2.1 0.9-2.3 1.4-1.2 2.1-2.4 4.4-3.7 6.2-0.3 0.4-1.1 0.9-1.5-0.1-1.1-2.2-2.4-4.7-3.6-6.9-4.7 0-7.2 0-12.9 0-1.3 0-1.1-0.8-0.5-1.5 3-1.7 1.2-3.6 0.5-4.9-0.7-1.3-1.5-2.8-2.2-4.2-3.3 0-9.3 0-12.6-0.1-4.1 6.2-7.7 11.5-13.5 10.4-2-0.5 2.5-2.7 3.5-4.6 3.6-6.9 7.8-13.8 11.3-20.7 0.6-0.6 1.5-1.7 0.2-2.2-0.6-0.3-1.5-0.6-2.1-1.2-1.4-1-1.7-1.8-0.1-2 7.3 0 12.4 0 19.6 0 0.7 0.5 1.3 0.9 1.6 1.7 4.2 8.4 8.4 17.1 12 25.7zm-25.6-17.8q1.1-0.3 1.7 0.5c0.8 1.9 1.5 4.1 2.1 6.1 0 0.6-0.3 1.1-1.4 1.2-1.8 0-3.9 0-5.7 0-1.3-0.2-1.6-0.8-0.9-1.8 1.5-1.5 3.3-3.9 4.2-6zm-0.2 2.5q0.8-0.2 1.3 0.4c0.6 1.3 0.7 1.4 1.3 2.7 0 0.5 0.4 1.1-0.5 1.2q-1.9 0-3.8 0c-0.9-0.1-0.6-0.3-0.6-1.1 1.1-1.1 1.7-1.7 2.3-3.2zm47.1-2.7c0.4-0.7 1.6-0.4 2.3 0.6q3.8 7.7 7.5 15.5c1.1 2.1-0.2 2.3-2.6 2.2q-7.8-0.2-16.1 0.3c-2.6 0-2.8-1-1.7-2.1 4.1-5.3 7.3-10.9 10.6-16.5zm0 2.4c0.3-0.5 1.3-0.3 1.9 0.6 2.2 4.4 3.6 7.7 5.7 12.1 0.8 1.9 0.4 2-1.5 2q-6.7-0.2-13.8 0.2c-2.3 0-2-0.9-1.1-1.8 3.6-4.6 5.9-8.2 8.8-13.1z"/>
</svg>