<svg version="1.2" xmlns="http://www.w3.org/2000/svg" viewBox="0 0 400 524" width="400" height="524">
	<title>Velingrad-pdf</title>
	<style>
		.s0 { fill: #008940 } 
		.s1 { fill: #0994dc } 
		.s2 { fill: #f03c1f } 
		.s3 { fill: #231f20 } 
	</style>
	<path id="Path 1" fill-rule="evenodd" class="s0" d="m383.8 321.3h-0.2l0.2 13.1c0 0.5 0 0.8 0 1 0 0.5 0 0.9 0 1.2 0 47.4-20.6 90.5-53.8 121.7-9.9 9.3-20.8 17.5-32.7 24.5-54-82.2-85.5-199.8-82.2-372.6q15.4-14.3 30.8-28.5 69 0 137.9 0zm-137.2-32.4l48.9-11.5v5.3l-50.8 12-2.9 8.9h53.7v17.9h-54.2v6.2h133.7v-6.2h-56.7v-17.9h53.6l-65-200.6-18.3 56.5 6.9-1.7v5.4l-8.8 2-6.5 20.1 15.3-3.6v5.4l-17.2 4-6.5 20.1 23.7-5.6v5.4l-25.6 6-6.5 20.1 32.1-7.5v5.3l-34 8-6.5 20.1 40.5-9.5v5.3l-42.4 10zm-5.3 49.2h133.7v-6.2h-133.7z"/>
	<path id="Path 2" fill-rule="evenodd" class="s1" d="m15.1 81.7q68.9 0 137.8 0 15.5 14.2 30.9 28.5c3.3 172.8-28.3 290.4-82.2 372.6-11.9-7-22.9-15.2-32.7-24.5-33.3-31.2-53.8-74.3-53.8-121.7 0-0.3 0-0.7 0-1.2 0-0.2 0-0.5 0-1l0.1-13.1h-0.1zm142.4 239.8h-17.1l-29.1-18.8v-22c24.3-8.7 46.4-20.7 56.2-50.1h-15.1v-70.4c0-14.4-11.7-26.1-26-26.1q-2.3 0-4.5 0.4v-6.3c0-15.2-12.4-27.6-27.5-27.6-7.6 0-14.5 3.1-19.5 8.1-5 5-8.1 11.9-8.1 19.5v48.6c-6.3 0-12 2.6-16.1 6.8-4.2 4.2-6.8 10-6.8 16.4v30.6h-12.1c9.9 29.4 31.9 41.4 56.2 50.1v22l-29.1 18.8h-35v6.2h133.6zm-40.2-185.7c-3.5 1.3-6.7 3.4-9.3 6-4.7 4.7-7.7 11.2-7.7 18.4v70.5h-10.2v-30.7c0-11.3-8.1-20.7-18.7-22.7v-49.1c0-6.4 2.6-12.1 6.8-16.3 4.1-4.1 9.8-6.7 16.2-6.7 12.6 0 22.9 10.3 22.9 23zm9.1 2.7c11.9 0 21.7 9.8 21.7 21.7v70.5h-26.2v-91.8q2.2-0.4 4.5-0.4zm-21.8 92.2v-70.5c0-6 2.5-11.4 6.4-15.3 1.8-1.9 4-3.4 6.3-4.4v90.2zm-18.3-30.7v30.7h-14.9v-49.5c8.5 2 14.9 9.7 14.9 18.8zm-38.6 30.7v-30.7c0-5.3 2.2-10.1 5.7-13.6 3.4-3.5 8.2-5.7 13.4-5.7v50zm-23.7 107.5h133.6v-6.3h-133.6z"/>
	<path id="Path 3" class="s2" d="m132.3 497.4l56.5-113.3c6.3-12.8 16.8-12.8 23.1 0l56.2 112.7c-4.3 1.6-8.6 3.1-13 4.4q0.4-4.8-0.1-9.5c-4.7 1-9.3-1.8-10.6-6.5-1.2-4.6 1.4-9.4 5.9-10.8q-2.3-5.2-5.6-9.7c-3.5 3.1-9 3-12.3-0.4-3.4-3.4-3.5-8.8-0.4-12.3-3-2.2-6.2-4.1-9.6-5.6-1.5 4.5-6.3 7.1-10.9 5.9-4.6-1.3-7.5-6-6.5-10.6q-5.6-0.6-11.1 0c0.9 4.7-1.9 9.3-6.5 10.6-4.6 1.2-9.4-1.4-10.9-5.9-3.4 1.5-6.6 3.4-9.6 5.6 3.1 3.5 3 9-0.4 12.3-3.4 3.4-8.8 3.5-12.4 0.4q-3.2 4.4-5.5 9.6c4.4 1.5 7.1 6.3 5.8 10.9-1.2 4.7-5.9 7.5-10.5 6.5-0.3 3.2-0.4 6.4-0.1 9.5-3.9-1.2-7.7-2.4-11.5-3.8zm67.1-36.8c20.2 0 36.7 16.5 36.7 36.7q-0.1 4.5-1.1 8.7-2.9 0.5-5.9 1c1-3.1 1.6-6.3 1.6-9.7 0-17.2-14.1-31.2-31.3-31.2-17.2 0-31.2 14-31.2 31.2 0 3.4 0.6 6.6 1.6 9.7q-3-0.5-5.9-1c-0.7-2.8-1.1-5.7-1.1-8.7 0-20.2 16.5-36.7 36.6-36.7zm0 48.6c-5.7 0-21.6-1.2-21.7-1.4-1.5-3.2-2.4-6.7-2.4-10.5 0-13.3 10.9-24.2 24.1-24.2 13.3 0 24.2 10.9 24.2 24.2 0 3.7-0.9 7.1-2.3 10.3-0.3 0.5-16.2 1.6-21.9 1.6z"/>
	<path id="Path 4" fill-rule="evenodd" class="s3" d="m42.4 2.1h314.1c11.6 0 22.1 4.8 29.7 12.6 7.5 7.8 12.3 18.5 12.3 30.3 0 0.3 0 291.4 0 291.6 0 51.6-22.4 98.4-58.5 132.4-36 33.9-85.8 54.9-140.6 54.9-54.7 0-104.5-21-140.5-54.9-36.1-34-58.5-80.8-58.5-132.4q0-0.3 0-0.7v-290.9c0-11.8 4.7-22.5 12.3-30.3 7.6-7.8 18.1-12.6 29.7-12.6zm0 3.2c-10.7 0-20.3 4.5-27.4 11.7-7 7.2-11.3 17.1-11.3 28v287.7 1.6c0 0.3 0 0.6 0 0.9q0 0.7 0 1.4c0 50.7 22 96.7 57.4 130 35.4 33.3 84.4 54 138.3 54 54 0 102.9-20.7 138.4-54 35.4-33.3 57.4-79.3 57.4-130q0-0.7 0-1.4 0-0.4 0-0.9l-0.1-1.6h0.1v-287.7c0-10.9-4.3-20.8-11.4-28-7-7.2-16.7-11.7-27.3-11.7zm153.8 15.1h4.5v15.8h17.2v-15.8h4.6v38.5h-4.6v-18h-17.2v18h-4.5zm-63 38.5l-9.9-33-10 33h-4.6l12.2-38.5h4.9l12.3 38.5zm-32.4-33.7h-18.9v11.5h17.4v4.5h-17.4v12.9h19.3v4.8h-23.7v-38.5h23.3zm-68.2 28.3q-2-1.2-3.6-2.8c-3.3-3.2-5.3-7.7-5.3-12.6 0-8.9 6.6-16.3 15.3-17.6v-0.1h0.4q1.1-0.1 2.3-0.1v0.1h11.4q4.9 0 8.3 2.4 3.4 2.4 3.4 7.1 0 2.9-1.4 5-1.4 2.1-4 3.3c-0.6 0-1.3 0.1-2 0.2 6.3 2.9 10.6 9.1 10.6 16.4 0 9.9-8.2 18-18.3 18-6.8 0-12.8-3.7-16-9.2h5.2c2.6 3.1 6.5 5 10.8 5 7.7 0 14-6.2 14-13.8 0-7.7-6.3-13.9-14-13.9-2 0-3.9 0.4-5.6 1.2v16.8h-5.1v-34.5c-6.5 1.3-11.4 6.9-11.4 13.7 0 3.8 1.6 7.3 4.2 9.9v-0.1q0.4 0.5 0.8 0.8zm11.5-28.7v11.8h7.9c2.2 0 4-0.4 5.5-1.3 1.4-0.9 2.1-2.4 2.1-4.7 0-2.1-0.6-3.5-1.9-4.4q-1.9-1.4-5.3-1.4zm137.7 34.1v-31l-18 32v9h-4.5v-44.5c-6.2 1.3-11 7-11 13.7 0 3.9 1.5 7.3 4 9.9q0.4 0.4 0.9 0.7v4.8q-2-1.2-3.6-2.8c-3.2-3.2-5.2-7.7-5.2-12.6 0-8.9 6.5-16.3 14.9-17.6v-0.1h0.5q1-0.1 2.2-0.1v0.1h1.8v31l17.5-31h5.1v38.5zm113.6 12.4c-2.1-0.9-4-2.3-5.7-3.9-3.3-3.4-5.4-8-5.4-13.1 0-9.3 6.8-17 15.7-18.4v-6.2c0-5.9 4.8-10.7 10.7-10.7 5.9 0 10.7 4.8 10.7 10.7v29.3h-4.6v-18.6h-12.3v22.8h-4.5v-22.7c-6.4 1.4-11.2 7-11.2 13.8 0 3.8 1.6 7.4 4.2 9.9q1.1 1.1 2.4 2zm9.1-35.7h12.3v-6c0-3.3-2.7-6.1-6.1-6.1-3.4 0-6.2 2.8-6.2 6.1zm-49.6 2.5h5.4v-17.7h10.9q5.2 0 8.7 2.7 3.4 2.6 3.4 8.4 0 6-3.4 8.6-3.5 2.6-8.7 2.6h-1.6-4.8v16.2h-4.5v-16.2h-5.4zm23.8-6.4q0-3.4-1.8-5-1.9-1.5-4.9-1.5h-7.2v12.9h7.2q3.1 0 4.9-1.4c1.2-1 1.8-2.6 1.8-5zm77.7-9.9v31h-1.7c-6.9 0.4-11.8-0.7-15.2-3.2-3.7-2.8-5.4-7.1-5.6-13-0.1-5.9 1.6-10.9 5.3-14.4 3.5-3.3 8.6-5.1 15.2-5.1 6.4 0 11.5 2.7 15.2 7 3.9 4.5 6.1 10.9 6.2 17.3 0.1 7.7-2.2 15.7-8.7 21.2-5.1 4.3-12.8 7.1-23.8 6.8l0.1-4.6c9.8 0.3 16.4-2 20.7-5.7 5.3-4.5 7.2-11.1 7.2-17.7-0.1-5.4-1.9-10.6-5.2-14.4-2.4-2.8-5.7-4.8-9.7-5.2zm-4.7 26.5v-26.5c-4 0.4-7.2 1.7-9.4 3.7-2.6 2.6-3.9 6.4-3.8 11 0.1 4.4 1.2 7.6 3.7 9.4 2.1 1.6 5.2 2.4 9.5 2.4zm-118.6 10.7v-38.5h20.2v4.4h-15.7v34.1z"/>
</svg>