<svg version="1.2" xmlns="http://www.w3.org/2000/svg" viewBox="0 0 810 1300" width="810" height="1300">
	<title>Ruse-pdf</title>
	<style>
		.s0 { fill: #254aa5 } 
	</style>
	<path id="Path 1" fill-rule="evenodd" class="s0" d="m371.5 1277.9c-18.8-12-37.3-24.5-55.5-37.4-11.9-8.6-23.6-17.4-35.2-26.4-14.2-11.2-28.2-22.7-41.9-34.6-10.8-9.5-21.3-19.2-31.8-29.1-10.2-9.9-20.3-20-30.2-30.3-9.8-10.4-19.3-20.9-28.7-31.7-7.4-8.7-14.7-17.5-21.8-26.5l-7.7-10.5-7.2-10.6-6.8-10.8-6.4-11-6-11.1-5.6-11.4-5.3-11.5-4.9-11.7-8.8-23.9-7.7-24.7-6.5-25.3c-2.9-13.1-5.5-26.2-8-39.3l-4.3-27.1c-2.5-18.8-4.7-37.5-6.6-56.3-3.3-35.1-5.7-70.2-8-105.3l-25.6-419.4h95.7l-36.7-135.2-19.2-9.2-13.3-58.3c62.1-16.2 125.9-28.4 190.8-36.6q0.1 0 0.2 0 0.4 0 0.8-0.1 0.1 0 0.2 0 0.5-0.1 0.9-0.1 0.2 0 0.3-0.1 0.1 0 0.3 0 0.1 0 0.3 0 0 0 0 0 0.3-0.1 0.5-0.1 0 0 0.1 0 0.5-0.1 1.1-0.2l3 18.3 6.9 41.6-13.8 18.1 2.8 17.3q7.8-1 15.6-1.9 43.4-5.2 87.1-7.7l-0.5-17.6-16.9-15.3-1-42.1-0.4-18.5q0.5 0 1.1-0.1 0 0 0.1 0 0.2 0 0.4 0 0 0 0.1 0 0.1 0 0.3 0 0.1 0 0.3 0 0.1-0.1 0.3-0.1 0.4 0 0.8 0 0.2 0 0.3 0 0.4-0.1 0.8-0.1 0.1 0 0.1 0 47.6-3 94.9-3 47.2 0 94.8 3 0.1 0 0.2 0 0.3 0 0.7 0.1 0.2 0 0.3 0 0.5 0 0.9 0 0.1 0 0.3 0.1 0.1 0 0.3 0 0.1 0 0.3 0 0 0 0 0 0.3 0 0.5 0 0 0 0.1 0 0.5 0.1 1.1 0.1l-0.4 18.5-1 42.1-16.9 15.3-0.5 17.6q43.6 2.5 87.1 7.7 7.8 0.9 15.5 1.9l2.8-17.3-13.8-18.1 6.9-41.6 3.1-18.3q0.5 0.1 1.1 0.2 0 0 0 0 0.3 0 0.5 0.1 0 0 0.1 0 0.1 0 0.3 0 0.1 0 0.3 0 0.1 0.1 0.2 0.1 0.5 0 0.9 0.1 0.1 0 0.3 0 0.4 0.1 0.8 0.1 0.1 0 0.1 0c65 8.2 128.7 20.4 190.9 36.6l-13.3 58.3-19.2 9.2-36.7 135.2h95.7l-25.7 419.4c-2.2 35.1-4.6 70.2-7.9 105.3-1.9 18.8-4.1 37.5-6.7 56.3l-4.3 27.1c-2.4 13.1-5 26.2-8 39.3l-6.5 25.3-7.6 24.7-8.8 23.9-5 11.7-5.2 11.5-5.6 11.4-6 11.1-6.4 11-6.8 10.8-7.3 10.6-7.6 10.5c-7.1 9-14.4 17.8-21.9 26.5-9.3 10.8-18.9 21.3-28.6 31.7-9.9 10.3-20 20.4-30.3 30.3-10.4 9.9-21 19.6-31.8 29.1-13.7 11.9-27.6 23.4-41.8 34.6-11.7 9-23.4 17.8-35.2 26.4-18.3 12.9-36.7 25.4-55.6 37.4-9.3 5.8-24.3 15.6-33.7 21.3-9.4-5.7-24.5-15.5-33.8-21.3zm33.8-1.7c18.7-11.2 33.4-20 51.5-32.1 15.1-10.2 29.8-20.7 44.4-31.5 14.3-10.8 28.3-21.8 42.1-33.2 13.5-11.5 26.7-23.1 39.7-35.1 10.2-9.7 20.1-19.4 30-29.4 9.7-10.1 19.1-20.3 28.4-30.7 6.9-7.8 13.7-15.8 20.3-23.8l7.8-9.8 7.2-9.8 6.9-10.1 6.4-10.3 6.1-10.4 5.7-10.6 5.4-10.8 5-11 9.1-22.6 7.8-23.4 6.9-24.1 5.8-24.9c2.6-13 5-25.9 7.2-38.9 2-13.5 3.9-27.1 5.5-40.7q2.4-21.2 4.4-42.4c3-35.4 5.3-70.7 7.5-106.1l23.5-384h-769.2l23.5 384c2.1 35.4 4.4 70.7 7.5 106.1q1.9 21.2 4.3 42.4 2.5 20.4 5.6 40.7c2.2 13 4.5 25.9 7.1 38.9l5.9 24.9 6.8 24.1 7.9 23.4 9.1 22.6 5 11 5.4 10.8 5.7 10.6 6 10.4 6.5 10.3 6.8 10.1 7.3 9.8 7.7 9.8c6.7 8 13.4 16 20.3 23.8 9.3 10.4 18.8 20.6 28.5 30.7 9.8 10 19.8 19.7 30 29.4 13 12 26.2 23.6 39.7 35.1 13.8 11.4 27.7 22.4 42 33.2 14.6 10.8 29.4 21.3 44.4 31.5 18.2 12.1 32.9 20.9 51.6 32.1zm331.3-962.6l-24.4 381c-1.3 19.4-2.7 38.9-4.4 58.3q-1.5 17-3.3 34c-1.4 11-2.8 22.1-4.3 33.1l-3.5 21.6-4.1 21.3-4.7 20.8-2.7 10.3-2.8 10.1-3.1 10.1-3.3 9.9-3.5 9.8-3.8 9.7-4 9.6-4.2 9.5-4.5 9.3-4.9 9.2-5 9.1-5.4 9-5.7 8.8-6 8.6c-5.7 7.8-11.4 15.4-17.2 23-5.9 7.4-11.9 14.8-18 22q-9.2 10.7-18.7 21.1-9.6 10.2-19.4 20.2-10 9.8-20.2 19.3-10.3 9.4-20.9 18.4c-7.2 6-14.3 11.8-21.6 17.6q-11.1 8.5-22.4 16.7-11.4 8-23 15.8l-15.7 10.1c-7.8 4.8-18.7 11.4-26.6 16-7.9-4.6-18.9-11.2-26.7-16l-15.7-10.1q-11.6-7.8-23-15.8-11.3-8.2-22.3-16.7c-7.3-5.8-14.5-11.6-21.6-17.6-7.1-6-14-12.2-20.9-18.4q-10.3-9.5-20.2-19.3-9.9-10-19.5-20.2-9.5-10.4-18.7-21.1-9.1-10.9-17.9-22c-5.9-7.6-11.6-15.2-17.2-23l-6-8.6-5.7-8.8-5.4-9-5.1-9.1-4.8-9.2-4.5-9.3-4.3-9.5-4-9.6-3.7-9.7-3.6-9.8-3.2-9.9-3.1-10.1-2.8-10.1-2.7-10.3-4.8-20.8-4-21.3-3.5-21.6q-2.3-16.5-4.3-33.1-1.8-17-3.4-34c-1.6-19.4-3-38.9-4.3-58.3l-24.4-381zm-253.3 813.7v25.6q5.3-4.2 10.6-8.3 10.7-8.7 21.1-17.6 10.3-9.1 20.3-18.4 10-9.6 19.7-19.4c6.4-6.6 12.7-13.3 18.9-20.1q9.2-10.4 18.2-21.1c5.9-7.3 11.7-14.6 17.4-22l11.2-15.1 5.8-8.5 5.5-8.5 5.3-8.7 4.9-8.8 4.7-9 4.4-9.1 4.1-9.2 3.9-9.3 3.7-9.4 3.4-9.6 3.2-9.7 3-9.8 2.8-10 0.3-1c-4.2-2.9-8.3-5.4-13.1-7.2-1.7-0.5-3.3-0.9-5-1.3-4.4-0.7-8.1-0.5-12.5 0.3-16.8 3.8-30.6 14.3-45 23-5.2 3-10.5 5.7-15.9 8.3-5.4 2.2-10.7 4.2-16.3 6-5.4 1.6-10.8 2.9-16.4 3.9-5.6 0.8-11 1.4-16.6 1.7-5.6 0.1-11.1-0.1-16.7-0.6-5.6-0.6-11-1.5-16.5-2.7-4.2-1.1-8.3-2.2-12.4-3.5-3.6-1.3-3.6-1.2-6.4-2.4l0.1-6.2v-11.2c5.6 2.3 13 5 18.7 6.6 4.8 1.2 9.6 2.1 14.5 2.9 4.9 0.5 9.6 0.8 14.5 0.9 4.9-0.1 9.6-0.4 14.5-0.9 4.9-0.8 9.6-1.7 14.4-3 4.9-1.4 9.6-3 14.4-4.8 4.9-2.1 9.6-4.4 14.4-6.9 8.2-4.7 16-10.1 24.2-14.9 6-3.3 11.8-6.3 18.1-8.8 2.8-1 5.6-1.9 8.4-2.7 4.6-1 8.8-1.6 13.5-1.7 2.7 0.1 5.2 0.3 7.8 0.7 4.5 1 8.3 2.2 12.5 4q3.5 1.8 6.8 3.8l3-12.8 0.8-4.5c-5.7-3.2-11.5-6-17.6-8.6-3.3-1.2-6.5-2.2-9.9-3.2-4.6-1.1-8.9-1.7-13.7-1.8-2.5 0.1-4.8 0.4-7.3 0.8l-4.7 1.1c-15.3 5-28 15.5-41.2 24.5-4.1 2.7-8.3 5-12.7 7.1-4.5 2-8.9 3.6-13.5 5.1-4.7 1.3-9.2 2.2-14 3-4.8 0.6-9.5 1-14.4 1.1-4.9 0-9.7-0.3-14.6-0.8l-7.3-1.1c-10.7-2-17.5-3.8-27.2-7.8 0.4-1.6 0.8-3.2 1-5 0.4-4.7-0.3-8.9-2.3-12.8 6.8 2.6 16.4 6.1 21.6 7.5 5.3 1.4 10.6 2.4 16.1 3.1 4.2 0.4 8.3 0.7 12.6 0.7 6.2-0.2 12-0.8 18.1-2 4-0.9 7.7-2 11.5-3.4 4.8-1.9 9.2-4 13.6-6.6 5.1-3.2 9.9-6.7 14.8-10.2 6.8-4.7 13.6-9.1 21-13 4.1-1.9 8-3.5 12.2-4.9 3.3-0.9 6.4-1.6 9.7-2.1 3.5-0.4 6.8-0.5 10.2-0.4 3.7 0.2 7.2 0.7 10.8 1.3 3.9 1 7.7 2 11.5 3.3 4.2 1.5 8.3 3.2 12.4 5.1q3.3 1.6 6.5 3.3l3.4-21.1q0.2-1.2 0.4-2.4c-9.3-3.4-18.6-6.6-28.2-9.2-5.2-1.3-10.4-2.3-15.7-3-3.3-0.3-6.4-0.5-9.7-0.5-2.9 0.1-5.6 0.4-8.4 0.9-2.7 0.5-5.2 1.2-7.8 2.1-5.8 2.2-11 5-16.3 8.2-9.3 5.9-18.2 12.4-27.3 18.5-4.4 2.8-8.8 5.3-13.5 7.6-3.4 1.5-6.7 2.8-10.1 4-3.4 1.1-6.7 1.9-10.1 2.7-3.5 0.5-6.8 0.9-10.2 1.2-3.5 0-6.8 0-10.2-0.2-4.7-0.5-9.1-1.3-13.6-2.4-3.5-0.9-6.9-1.9-10.3-3.1-6.3-2.4-12.2-5.1-18.1-8.2 0.3-2.4 0.4-4.8 0.3-7.4-0.3-3.9-0.8-7.7-1.3-11.6 6.9 3.8 15.8 8.4 21.7 10.8 4.8 1.8 9.4 3.3 14.4 4.5 2.8 0.5 5.5 0.9 8.3 1.2 4.5 0.3 8.8 0.2 13.3-0.3 2.7-0.5 5.3-1 8-1.7 4.9-1.5 9.3-3.3 13.8-5.6 3-1.6 5.9-3.3 8.8-5.1 13.3-8.9 25.9-18.6 40.4-25.7 3.3-1.4 6.5-2.7 9.9-3.8 3.5-0.9 6.9-1.7 10.5-2.3 3.8-0.3 7.4-0.5 11.2-0.5 4.2 0.2 8.2 0.6 12.4 1.1 4.6 0.9 9.1 1.8 13.7 2.9 5.2 1.5 10.4 3 15.6 4.7q5.3 1.8 10.6 3.7 0.9-6.9 1.7-13.9c1.7-15 3.1-30.1 4.4-45.1q1.8-23.3 3.4-46.7l23.6-370.1h-640.8l23.6 370.1q1.6 23.4 3.4 46.7c1.3 15 2.7 30.1 4.3 45.1q0.4 3.2 0.8 6.3c9.2-3.7 18.5-6.4 28.3-8.1 2.6-0.4 5.1-0.7 7.6-1 7.9-0.5 15.1-0.3 22.9 1.2 4.3 0.9 8.2 2.1 12.3 3.8 6.1 2.8 11.7 6.5 17.5 10.1 14 8.7 27.7 17.9 42.6 25.1 3.5 1.6 7 3 10.7 4.2l6.9 1.8c3.6 0.6 6.9 0.9 10.5 1l7.4-0.5 8-1.5 8.7-2.7 9.6-4.1c5.5-2.7 10.8-5.6 16.1-8.7l3.6-2.2q0.9 8.7 2.1 17.5c-2.9 1.8-5.7 3.4-9.3 5.3l-11.2 5.3-10.5 3.9-10.1 2.5-9.7 1.3h-9.3l-9-1.2-8.7-2.2c-4.3-1.5-8.4-3.1-12.6-5-4.3-2-8.4-4.2-12.6-6.5-14.2-8.3-28-17.3-42-25.9l-3.5-1.8c-6.7-3.1-13.2-4.4-20.7-4.8h-4.1c-12.4 0.6-24.2 3.7-35.7 8.3l-3.6 2.4q0.7 4.5 1.3 9l1.6 10.3c6-2.4 12.2-4.3 18.6-5.6 4.7-0.8 9.3-1.2 14-1.4 3.9 0 7.6 0.2 11.5 0.6 5 0.7 9.6 1.8 14.4 3.4 4 1.4 7.6 3 11.3 5 6.1 3.6 11.6 8 17.4 12.1 5.9 4.1 11.8 7.9 17.9 11.5 4.3 2.3 8.5 4.5 12.9 6.6 4.2 1.8 8.3 3.3 12.5 4.8 4.2 1.2 8.2 2.1 12.4 2.9 4.2 0.6 8.3 0.9 12.5 1l8.5-0.4 8.8-1.4 9-2.3c4.9-1.7 9.6-3.5 14.4-5.5l10.1-5.1q3.7-2 7.2-4.1c1.1 5.6 2.3 11.4 3.4 16.8q-1.3 0.8-2.8 1.6l-11.2 5.6-10.9 4.4-10.7 3.3-10.5 2.1-10.2 1.1h-10.2l-9.9-1.1-9.8-2.1c-4.9-1.4-9.7-2.9-14.5-4.8-4.8-2.1-9.5-4.3-14.3-6.7-4.8-2.7-9.6-5.5-14.3-8.4-6.6-4.4-13-8.9-19.3-13.6-2.1-1.5-4.1-2.9-6.3-4.2-4.3-2.2-8.4-3.9-13.1-5.1-2.2-0.6-4.5-1-6.7-1.3-7.1-0.8-13.5-0.5-20.5 0.7-2.2 0.4-4.4 0.9-6.6 1.5-4.2 1.3-8.2 2.8-12.1 4.6l2.9 15.5 1.5 6.3c2.7-1.1 5.5-2.1 8.5-2.9 2.7-0.7 5.4-1.2 8.1-1.6 4.5-0.4 8.7-0.4 13.2 0.1 3.4 0.4 6.6 1.1 9.9 2 6.6 2 12.4 4.7 18.4 8 7.4 4.2 14.2 9 21.4 13.5 5.5 3.4 11.1 6.5 16.9 9.4 4.2 1.9 8.4 3.6 12.8 5.3 4.3 1.4 8.6 2.6 13 3.7 4.5 0.9 8.9 1.6 13.5 2.1 4.7 0.4 9.3 0.5 14 0.4 5-0.4 9.9-0.9 14.8-1.6 5.4-1.1 10.6-2.3 15.8-3.8 5.8-1.8 11.3-3.8 17-6.1l11.9-5.4c4.4-2.2 10.2-5.4 15.4-8.4l2.3 14.3c0.1 0.8 0.3 1.8 0.5 2.9-3.6 2-7.2 3.8-11 5.8l-12.9 5.8-12.5 4.7-12 3.6-11.7 2.5-11.4 1.5-11 0.5-10.7-0.5-10.4-1.4c-5.1-1.1-10.1-2.3-15.1-3.7-5-1.7-9.7-3.4-14.5-5.4-4.8-2.2-9.5-4.5-14.1-7-6.2-3.5-12.2-7.3-18.2-11.3-7.3-4.9-14.7-9.4-23-12.6-3.7-1.3-7.2-2.2-11.1-2.7-3.9-0.4-7.4-0.3-11.2 0.2-2.1 0.4-4 0.9-6 1.4-2.4 0.9-4.7 1.8-6.9 2.8l2.1 8.1 2.8 10 3 9.8 3.2 9.7 3.4 9.6 3.7 9.4 3.9 9.3 4.1 9.2 4.4 9.1 4.7 9 4.9 8.8 5.3 8.7 5.5 8.5 5.8 8.5 11.2 15.1c5.7 7.4 11.5 14.7 17.4 22 6 7.1 12 14.1 18.2 21.1q9.3 10.2 18.9 20.1 9.7 9.8 19.7 19.4 10 9.3 20.3 18.4 10.4 8.9 21.1 17.6c7 5.5 14 10.8 21 16.2h135.1q5.1-3.8 10.2-7.7h-155.2v-25.8zm-45.1-222.3c-8.1 5.8-18.1 5.2-28.7-0.4-10-5.2-19.9-10.5-30.4-13.4-7.9-2.3-8.7-0.2-1.7 4.3 7.6 5 14 9.9 20 14.9-11-5.7-22.1-11.4-29.2-12.9l-7.7-48.3-12.8 3.5c-4.1-19.8-6.6-40.7-8.3-62 3.6 2.2 20.4 53.3 43.9 67 23.8 14 35.5 21 72.7 20.7 8.8-0.1 15.4 3.7 15.4 11.4v13.4c-9.8-7.8-20.4-7.2-33.2 1.8zm-65.2-45.9c9.9 14.7 32.8 43.3 50 46.2 7.8 1.3 14.1-3.1 17.1-7.2 2.2-3 5-6.2 7.7-8.7 2.2-2 1.3-3.5-1.1-2.7-4.1 1.3-9.6 2.8-14.4 4.8-10 4.1-19.6 1.7-30.2-6.7-10.2-8-19.5-17-29.1-25.7zm70.9 13.5c-31.3-1.6-58-17.1-79.2-49.8-17.1-26.4-32.1-56.3-32.3-103 0.5-49.6 2.4-90.4 7.8-107.5 2.2 20.6 7.7 40.3 14.4 59.1 8.1 22.7 12.5 45.4 17.4 68.2 5.7 26.4 18.2 47.4 32.3 66.7-23.4-18.9-43.1-67.2-59.8-137.7-0.1 19.8 1 43.1 5.1 67.6 12 70.5 27.6 91.3 42.2 107.5 12.5 14 31.5 21.9 52.4 19.7-22.2-10.4-40-31.7-57.6-54.1 7.3 16.4 16 32 29.7 44.3-15.1-4.7-31.4-17.2-46.9-64.5-8.3-25.4-15.7-50.2-16.8-75.3 10.8 33.3 19.4 69.4 43.9 94.3 16.6 16.9 34 30.8 67.2 33.2 5.9 0.4 8.2 4 6.6 10.6-0.7 3.1-1.1 5.6 1.4 8.3 4.4 4.7 4 10.4 0.9 16.5-4.2-6.4-12.7-3.2-28.7-4.1zm23.8-62.9c0.4 8.1 3 17 1.7 25.2-7.9 1.4-16.3 1.3-25 0.3 20.7-8.3 22-15.6 23.3-25.5zm-77.1-35.2c-12.3-32.2-16.9-59.3-12.3-72.8 8.9 15.1 17.1 23.7 25 27.2-9.2-10.7-18-22.4-26.7-35-11.6-16.6-21.3-37.6-27.8-65.8-3-12.9-5.7-25.6-2.1-38.3 0.7-2.3 2.3-2.5 2.2-0.7-0.1 3.9 0.2 7.1 0.7 9.9 2.8-3.9 5.4-8 7.2-12.6 4.9 6.3 11.1 10.9 17.7 15.4 8 5.3 15.9 10 22.1 16.5 5.7 6 10.6 11.3 17.6 15 11 5.9 19.4 8.9 26.8 9.5 3.3 0.2 6.8-0.3 9.5-0.8 6.7-1.2 12.9-3.5 18.6-6.8l-7.2 37.9c-5.2 22.4-11.9 32.4-31.7 32.8q12.7 11 27.9-4.5c-0.2 5.9-1.5 12.1-9.6 14.8-8.6 2.9-16.9-0.6-25.2-5.6 6.6 7.1 14.6 12.1 28 9.9-3.3 16.3-9.7 23.1-17.4 25.6 4.9 2.2 9.4 1.8 13.6-1.7 0.9-0.7 2.6-0.5 3.6 0.6 1 1.1 0.6 3.2-0.5 3.7-3.1 1.6-6 1.9-8.9 3.9-8.8 6.1-21-1.5-37.1-17.4 2.4 5.6 5.1 10.2 7.6 12.5 1.6 1.4 2.4 3.2 3.2 5.5 1.3 4.2 5.5 8.5 12.4 11.2 3.3 1.2 6.9 1.6 8.9 4.9 1.2 2.1 3.2 3.1 6.1 3.2 9.1 0.3 13.8 5.2 16.9 12.1 4.3 9.7 7.3 26.3 0.1 34.2-14.2 15.7-32.4 7.5-44.3-5.4-9.7-10.5-19.1-23.6-24.9-38.9zm21.8-72.7c-10.3-14.1-18.7-19.9-25.5-32.3-7.1-12.7-7.1-15-4.5-40.1q-5.5 6.7-8.6 15.7c-2.6-11.7-5.4-19.3-7.5-32.8-0.8-5.5-2.9-6.8-5.1-13.9-0.8 5.7-2.3 11.6-1.7 17.4 2.2 21 10.8 37.2 19.5 51.8 10.5 17.1 21.8 26.9 33.4 34.2zm34.8 58.4c0.7 2.4 4.2 4.6 5 7.7-6.6 0.3-12.1-1.2-17.2-3.5 4.3-0.9 8.5-2.2 12.2-4.2zm-125-11.3c-5.5-3.1-10.5-6.8-14.6-11.4-3-3.4-2.9-6.4-0.7-10.2 3.1-5.5 9.4-11.6 18.6-17.4-4.1 8.7-5.8 20.8-3.3 39zm-3.9-48.3c3.3 2.1 6.5 4.3 2.8 6.9-2.9 2-6.9 2.5-9.2 4.4-0.5-4.6-1.1-9.3-2-14.1 3.2 0.4 6 1.4 8.4 2.8zm-11.6-21c1.6-13.6 4.5-25.9 9.9-35.7q0.4-10.5 5.5-18.2c4.4-16.1 9.7-32.1 13.3-48.3 1.2-3.5 3.2-4.1 2.4 0.6-8 54.1-11.3 90.5-10.6 119.2-8.2-9.3-14.5-10.6-20.5-17.6zm2-71.6c5.3-13.9 14.6-27.8 25.5-41.7-5.7 21.5-17.1 40.2-20.9 58.1-2-4.1-2.8-10.9-4.6-16.4zm6.8-36.5c3.5-2.6 6.5-5.9 10-9.8 4.3-5 8.6-6.6 12-6.6l-21.3 24.3c-0.6-2.7-0.8-5.3-0.7-7.9zm29.1-7.8c1.3-1.7 3.2-1.2 5.4 0.2l11.3 7.5 8.6 10.9q4.2 5.5 9.1 8.9c0-1.8-0.8-3.2-1.7-4.5-2.1-3-1.9-4.6-1.1-5.5 2.4 2.7 5.2 4.7 8 6.8 3.5 2.6 6.4 3.9 9.3 3.5-4.2-2.5-8.6-5.3-12.8-9.5-2.6-2.6-5.3-5.1-8.2-7.6l-16.5-14c-3.4-1.7-5.7-4.8-9.2-4.7-2.1 0.1-4.3 0-6.7-1 8.1-3.8 15.1-4.1 20.2 1.8 6.6 7.7 14.5 14.6 23.1 21.2 4.1 0.7 7 2.7 10.2 4.1 3.6 1.5 3.8-0.5-0.8-4.1l-16.2-12.8c19.4-10 41.6-16.5 67.2-18.7l-7.3 16.6-1 2.6c-2.3 6.5-3.7 13.2-3.6 20-0.3 0.3-0.6 0.6-0.8 0.8-9.6 6.5-9.7 15.2-3.4 23 4.9 6.2 12 7.9 21.4 5.5 2.8-1.9 6.7-2.7 11.1-3 6.6-0.6 11.5-2.4 15.5-4.6 1.3 5 2.4 10.2 1.6 16.3l4.3 2.3c-2.7 2.3-5.9 4-10.2 4.7-6.8 2.5-13.4 5.7-20.7 6.7-17 2.5-35.9-9.4-55.2-28.2-7.3-2.9-15.9-10.1-26.7-20.1-8.7-7.5-17.7-14.5-27.7-20.6zm89.6 34.9l3.4 6 8.2-2.2c1.8-1.1 3.5-2.3 5.1-3.7 0.2 5.2-1.9 9.7-6.7 11.2-7.2 2.3-15.4-3.7-16.1-8.5-0.6-4.5 1.3-7.3 4.5-9q0.5 3.1 1.6 6.2zm23.4-6.3c4.1-4.4 7.8-9.2 10.9-14.3 2.4 9.4 3.3 18.1 1.2 25.1l-12.5 3.7-2.8-11.2q1.7-1.6 3.2-3.3zm5.5-85.5c-1.4 1.4-4.2 0.1-3.2-1.7 1.2-2.2 4-3.8 5.5-4.9 1.5-1.1 1.3-2.3 0.5-2.7-0.5-0.4-1.3 0.1-2 0.7-1.5 1.2-2.3 2.3-4 3.4-2.2 1.5-3.9 0.9-2.6-1.4 1.3-2.6 3.8-4.4 6.3-6.2 2.7-2 1.4-3.7-1.4-2.1-2.1 1.2-3.8 3.2-6.1 4-1.4 0.6-4 0.1-0.4-3.5 2.2-2.3 4.9-3.4 7.1-5.7 2.9-2.9 0.8-4.1-1.8-3-2.1 0.8-4.5 3-7.1 4.9-2.1 1.4-3.5-0.2-1.2-3.4 5.4-7.8 14.2-10.6 24.5-9.1 14.6 2.1 25.2 7.4 34.2 14.5 6 4.7 12.1 7.5 18 8.4 10 1.7 22.5 4.3 29.3 7.7 7.7 3.9 13.3 9.8 13.3 18 0 5.2-0.5 14.5-1.4 15.5-3.1 3.6-7.8 4.2-13.3 2.9-7.3-1.6-14.8-3.3-22.5-5.4-6.1-1.6-11.1-5.6-15.9-11.3l-17.1-20.5c-1.7-2-6.3-4.8-9.1-6.6-2.1 0.2-4.2-0.1-6.3-0.6-5.1 1.3-10.4 2.9-16.2 3.6-3 0.3-4.7 2.1-7.1 4.5zm28.2-65.1l1.6-5.1 33 13.5-1.4 3.6c-5.1-2-7.9-0.7-9.5 2.9l-9.6 21.7q-3.5-2-7.4-3.7-5.9-2.4-12.2-3.9l9.5-20.2c1.7-3.6 0.1-6.2-4-8.8zm-22 67.6c0.4-0.4 1.3-1.3 1.8-1.4 5.2-0.6 10.4-0.9 15.4-2.1 1.4 0.3 2.8 0.5 4.3 0.5q0.9 0.6 1.8 1.2l-26.4 60.1c-5.2 11.7-18.1 26.4-25.2 29.5-3.1-8-3.2-20.2 2.4-32.9l23.2-52.4c1-0.8 1.8-1.7 2.7-2.5zm41.3 19.5c0 6.7 2.1 20.8 2.2 27.9-6.5-8.6-13.6-18.4-19-28.7l3.3-6.6c5.4 3.8 10.2 7.2 13.5 7.4zm11.9 17.2l-5.3 7.2-1.8-21.7c5.4 4.7 9.7 11 7.1 14.5zm16.2-64.2c9.2 5.7 15.6 12.1 20.8 17.7q-0.9-0.4-1.9-0.8c-8.8-3.3-18.2-5-27.5-6.6-2.4-0.4-4.6-1.2-6.7-2.2-2.8-1.3-5.3-2.9-7.8-4.8q-1.3-1-2.7-2 0.9-7.1 6.8-16.7c3.6 5.4 9.9 9.8 19 15.4zm-53-49.7c-4.2-1.3-5.7-5.2-4.4-8.8 1.6-4.7 5.9-7.2 10.8-4.4 2.2 1.2 3.1 3.9 3 7.1l11.6 4.4c4.3-10.6 9-20.8 14.7-29.7 2.9 2.3 6.1 4.2 10.3 5.3-3 10.6-7 20.4-12.1 29.7l12.7 5.1c1.6-1.1 3.8-1.9 6.3-0.9 3.7 1.5 4.8 6 3.5 8.3-1.8 3.5-4.7 5.1-8.1 4-3.2-1.1-4.1-4.1-4.2-6.6l-36.2-15.5c-2.2 2-4.8 2.9-7.9 2zm43.8-47.3c5.2-0.9 10.4 2.3 12 9.2 1.2 4.8-2.6 7.5-6.9 7.7-6.2 0.2-10.7-2.7-12.6-7.4-1.8-4.5 0.4-8.3 7.5-9.5zm-130.6 152.9c22-4.7 36.6-3 48.4 0.5q-1.7 2.8-2.9 5.8c-4.8-0.2-9.9 0.2-15.2 0.8 1.4-1 3.2-1.9 5.9-2.6-23.1-0.6-43.9 7.1-63.5 18.6l-11.2-9.1c10.7-6.3 23.9-11 38.5-14zm-30.8 4.9l-9.9 4.6-0.9-6.3c3 1.5 6.7 2 10.8 1.7zm23.3-29.3c-3.1-8.2-5.7-16.6-16.4-22.2-6.7-3.6-12.7-2-18.6 1.8-2.6-11.7-1.3-23.7 5.9-36.2 7.5-13 17.9-19.8 29.5-23.8l3.5 7.5c-10.9 4.6-21.9 13.3-21.9 32.1 0.1 10.8 8 20.4 22.9 31.2 13.1 9.5 30.8 16 57.7 14.5l-3.5 11.5c-24.4-2.4-46.3 0.1-66.3 6.1 6.4-5.3 9.9-12.2 7.2-22.5zm-12.2-13.8c5.5 5.9 6.7 16.5 3.6 24.9-4 10.7-11.8 14.9-20.7 13.5-6.9-1-12.3-8.2-12.9-20.8-0.5-10.8 4.3-18.1 12.4-20.7 7-2.2 13.3-1.5 17.6 3.1zm-20.3 6.4c-4.2 4-5.8 10.1-2 19 2.2 5.2 8.1 9.7 13.5 6.6 3.5-1.9 10.6-11.3 7.9-20-3.8-12-12.1-12.5-19.4-5.6zm12.4 12c-0.4 4.8-3.1 8.4-7.3 6.8-3.9-1.4-5.7-5.6-5.3-9.6 0.5-5.7 3-8 6-7 3.9 1.1 7 4.1 6.6 9.8zm104.6-49c-5.3-0.4-10.1 0-15.2 1.7-3.5 1.4-6.4 3.1-9.3 5.6-12.4 11.5-7.8 14.6 4.2 33.6-21.2 6.2-43 0.2-56.8-13.4 15.2 0.9 26.6-2.9 29.2-17 2-10.7-1.4-19.6-10.5-26.9-2.7-0.4-5 0-7.3 0.8 9.4 10.6 13.7 19.8 8.4 27.3-5.5 5.3-14.8 9.9-25.5 3.9-9-5-11-14.3-8-20.5 3.5-7.3 9.5-8.8 16-6.5 1.3-3.2 6-6.3 11.1-9.5q41.5-20.4 74.2 1.4l-9.8 19.6q-0.4 0-0.7-0.1zm-36.6-44l1.3 10.2c-9.5 1.8-18.6 4.4-27 8.5l-0.6-10.7c8.7-3 17.5-5.6 26.3-8zm-41.9 8.2l-1.7-8.8c-1.6-8.4 6.4-20.2 13-26.7 2.4-2.3 4.1-1.4 2 1.8-5 7.8-10.9 13-8 23.3 1.9 6.4 3.5 11.9 3.7 17.4 0.4 6.3-3.7 10.2-9.5 13.8l-11-4c9.3-4.1 13.3-7.3 11.5-16.8zm23-34.6c3.9-2.1 7.6-1.6 8.3 4l1.1 9.8c1.6 2.7 2.4 5.3 2.8 8l-21.8 6.1c-4.6-11.5-2.5-21.2 9.6-27.9zm12.6-12.7c-4.6 6.7-12.8 8.1-20.3 8.4-12.2 0.5-15.7-2.1-19.3-8.4-1.4-2.5-3.3-4.8-5.4-6.6-8.2-6.9-15.7-4.8-28.6-3.4-0.7 0.1-1.6 0.4-1.9-0.1-0.5-0.7-0.9-5.6-0.1-6.6 0.6-0.8 2-1 3.5-1.3 11.1-2.1 20.7-1.1 30.8-2.7 3.1-0.5 5.8-1.7 10.3 1.5 5.7 4.1 10.3 9.1 13.1 15.5-0.2-5.7-3.8-12.5-9.2-19.1 6 0.2 10.9-0.3 16-0.8 2-0.9 6 0.2 7.8 2.4 2.5 3 4.4 4.5 6.8 4.1 3.3-0.5 5.9 1 6.6 5.1 0.5 3.2 2.6 7.1 1.7 9.5-3.6 8.9-7.6 11.1-12.3 11.1 0.9-3.5 2.2-6 4.3-8.9 1.9-3.6 0.1-5.3-3.8 0.3zm-36.3 18.1c-0.7 6.9-3.2 11.8-7 15.2-4.3 3.8-7.8 4.4-11.1 2.9-2.1-1.1-2.6-3.2-3.2-5.6-0.2-0.8-0.1-0.7-1-0.8-1-0.2-2.3 0.1-2.9-0.7-0.8-1.3 0-2.6 1.6-2.5 1 0.1 2 0.4 3.1 0.1 2.7-0.5 2.4-2.2 1-3.8-1.6-1.6-3.1-0.1-4.3 1.1-2.6 2.4-3.2 0.9-3.9-1.2-0.3-0.8 0.2-1 0.4-1.3 0.5-0.8 1-1.4 0.7-2.4-0.4-1.6-2.2-1.9-4.8-1.6-2.6 0.3-2.8-1.4-2.6-3.4 0.4-4.3 1-8.5 0.8-13-0.1-2.2-0.7-4.3-1.4-6.4l20.4-0.2c3.3 1.4 4.2 4.4 4.6 8.8 0.6 6.1 4.7 9.8 8.7 11.1 0.7 1 1.1 2.1 0.9 3.7zm-25.2-20.2c-3.7 2.2-2.5 6.3 1.2 7.4 3.9 1.1 6.6-0.5 9.3-3.1 1.7-1.7 1.6-2.9-0.9-4-3.3-1.6-5.8-2.5-9.6-0.3zm-56.2 127.5c-0.9-6.9-1.9-14.2-4-22.4-1.1-4.1-1.9-8.4-1.4-13.5 0.1-3.3 1.7-3.3 2.7 0.7 1.8 6.9 3.3 13.9 6.3 20.6 2.3 6.6 3.3 3.4 3.6-1.3l1.8-32.5c0.9-7.1 2.4-13.7 5.3-19.3 2-3.8 0.5-4.1-2.7-1.1-6.8 6.4-8.5 15.6-8.2 26.2-18.7-0.5-37.3-1-55.4-4-18.1-3.1-34.7-11.3-50.4-23.6-6.9-5.4-13.9-10.4-21.1-15.3-3.2-2.2-7.4-2.1-10.2-1.6-1.3 7.9-4.9 7.9-11.1 9.2-4.6 0.9-8.4 3.6-12.4 7-1.8 1.6-5.3-1.1-3.4-3.4 2.6-2.9 6-5.2 10-7.1 3.2-1.5 6-3.3 4.3-7.4-1.6-4.2-4.8-4.9-10.9-4.4-5.2 0.5-9.4 1-13 2.1-5.2 1.7-10.6 1.8-16 0.6-2-0.5-1.2-3.5 0.8-3.1 4.4 1.1 10.6-0.3 18.3-3.3 3-1.1 6.2-1.8 9.6-1.8 6 0.1 11.7 0.1 18.4-0.5 10.9-0.9 20.9 1.7 31.3 5.6 15.7 5.9 31.1 8.8 44.7 12.6 6.8 1.9 13 3.9 18.1 7.2 5.8 3.8 11.8 5.8 18.8 5.4 6-1.4 11.2-1 17.1-2.2 9-1.7 18.5-2.3 29.1-3.2 14.2-1.1 28.1-2.2 40.5-1.5l-15.6 9.3c-24.8 3.6-28.6 29.8-10.7 45.2-10.8 8.8-22.3 15.5-34.2 20.8zm30-51.7c2.7-8.3 9.9-9 16.2-9.5-6.6 8-10.1 17.4-11.5 27.8-4.1-3.1-7.9-8.6-4.7-18.3zm83.4-110.3c3.1 0.7 2.5 1.9 2.3 3.9-0.3 3-1.1 3.4-2.4 3.9-2.2 0.8-4.3 0.7-6.2-0.8-0.7-0.5-1.6-1.6 0-3 1-0.8 1.4-1.3 1.7-3.1 0.2-1.6 2.1-1.5 4.6-0.9zm-15.6-7.3c-2.1-1.1-3-3.2-1.5-4.7 1.6-1.7 4-1.4 5.6 0 0.8 0.7 1.6 1.4 2.9 2.1 1.3 0.7 2.2 0.6 3.9 0 1.7-0.7 3.4-0.4 4.3 1.8 0.9 2.3 0.3 2.9-1.5 2.9-3.6-0.4-5.7 1-6.6 3.8q-1.7 0-3.5 0c0.5-2.7-0.8-4.4-3.6-5.9zm-0.5 10.1c2.7 0.2 3.8 1.3 3.4 3.5q-0.8 1.8-1.7 3.6c-3.3 0.4-5.7 0.2-6.4-1.3-0.8-1.4-1.8-1.3-3.1-2.1-1.2-0.7-1.6-2.7-0.1-2.7 1.5-0.1 2.5-0.2 3.4-0.5 1.7-0.6 3.2-0.6 4.5-0.5zm-13.6-12.1c-1.1-0.6-1.5-2-0.3-3 0.9-0.7 2.1-0.6 3.2 0 2.1 1 4.6 1.6 5.3 3.5 0.8 2.2 0.6 7-1.1 8.2-1.1 0.8-2.8 0.6-3-2.4-0.2-2.7-0.9-4.3-4.1-6.3zm-1.4 13.1c2.5 0.9 3.5 2.8 3.4 5.1-4.2-0.4-7.6 0.4-10.8 1.5q-1.2-2.1-2.4-4.2c2.6-2.7 5.9-3.9 9.8-2.4zm-18.4-4.4q-2.7 1.2-3.5-0.8c-0.7-0.8-1-2-1.1-3.3-0.1-1.4-0.2-2.9 0.5-3.1 1.3-0.4 2.6-0.7 3.7-2 0.9-1.1 2.1-1.4 3.2-1.4 1.6-0.1 2.4 0.9 2.1 2.6-0.2 0.8-0.1 1.3 0.9 1.4 0.7 0.1 1.3-0.3 1.5-1.7h4.5c1.7 0 3.7 0.3 2.6 1.9-1.3 1.8-1.7 3.8-2.4 5.6-0.6 1.4-5.7 0.7-12 0.8zm1.5 5.1c1.5-0.5 2.7-1.3 4.2 0.2 1.6 1.5 1.8 3.6 0.9 5.5-0.9 1.9-2.5 1.7-3.7-0.2-4.3-0.3-5.6-2.8-6-6.1 1.4 0.8 3.7 1 4.6 0.6zm-19.9-9.7c-1.3-1.5-0.9-3.1 0.8-3.7 1.8-0.6 4.2-1 5.1 1 1 2 1.8 3.9 3.8 5.4 1.7 1.4 1.2 2.6 0.1 3.4-2.5 1-4.3 1.3-4.7 0.4-1.1-2.3-3-4.2-5.1-6.5zm-14.7 8.4c-1.1-0.3-2.2-0.7-2.4-1.4-0.2-0.9-0.9-1.4-1.9-1.5-2-0.2-3.7-0.7-5.5-1.5-1.4-0.6-1.9-1.4-1.2-2.8 1.6-3.2 3-6 3.4-9.6 4.8 3.3 9.3 6.9 15.3 8.7 2.9 0.8 4.4 2.4 4.8 4.8 0.5 4.3-0.5 5.3-1.7 6.4-2 1.5-4.4 1.1-6.6-0.5-1.4-1-2.7-2.1-4.2-2.6zm-8.4 4.7c-1.1-0.8-1.9-2-1-3.5 0.6-1 2.2-1 4 0.2l13.2 9-2.9 3.7zm33.4-1.3c1.1 0.7 2.2 1.3 2.3 3 0 2-0.9 3.7-3.8 4.2-1.9 0.3-3.5-0.3-4.7-1.3-2-0.4-2.8-1.4-1.6-2.9 1.1-1.5 2.6-2.7 3.9-4 1.7-0.4 2.7 0.2 3.9 1zm-214.9 73.6c-4.3 3.7-8.4 7.1-13.2 9.6-3 1.6-5.3-0.3-2.9-1.8l6.4-4.2c3.5-3.1 0.8-2.9-2.9-0.8-3.1 1.8-6.3 2.6-9.8 2.6-4-0.6-4.7-3.2-0.8-3.2 5.6 0.1 11.4-1.6 16.2-4.9-3.8-0.1-8.8 0.6-14.9 1.7-3.4 0.5-6.7 0-7.7-1.7-0.5-1-0.8-2 2.7-1.8 5.4 0.4 11.7-0.3 16.1-1 4.6-0.8 11.7-2.7 13.7 0.3 1.6 2.4-0.9 3.5-2.9 5.2zm169.7 577.5v-38.5c6.2-3 10.1-8.7 10.1-20.2v-11.6h138.8v11.6c0 11.5 3.8 17.2 10 20.2v38.5zm79.4-774.8c-76.5 0-151.4 6.8-224.2 19.9h448.4c-72.8-13.1-147.7-19.9-224.2-19.9zm-290.8 14.7c35.4-8.2 71.3-15 107.8-20.2l-22.7-141.4 13.7-18.1-5.6-34.3c-53.7 7.2-106.4 17.2-158.1 30l7.3 31.9 18.8 9zm126.1-22.7q43.2-5.5 87.3-8.2l-3-106q-9.4 0.5-18.9 1.2-41.2 2.9-82.2 8.2zm105.8-9.1q29.3-1.4 58.9-1.4 29.5 0 58.8 1.4l4.1-143.2 16.8-15.3 0.9-34.8q-40.5-2.1-80.6-2.1-40.2 0-80.6 2.1l0.8 34.8 16.9 15.3zm136.2 0.9q44 2.7 87.3 8.2l16.8-104.7q-41-5.4-82.3-8.3-9.4-0.7-18.8-1.2zm105.6 10.7c36.5 5.2 72.4 12 107.8 20.2l38.9-143.1 18.7-9 7.3-31.9c-51.6-12.8-104.4-22.9-158.1-30l-5.6 34.3 13.7 18.1zm-252.4 694.5h138.8v7.4h-138.8zm117.4-15.1c5.9-0.1 9.9 3.1 12.1 8.4h-27c2.7-4 7-8.3 14.9-8.4zm-115.5 213.3c-8.5 0-14.7-4.1-16.5-12.3-2.4-10.8-8.8-12.2-16.9-9.8-1.4-3.5 0.3-6.5 3.8-7.7 3.5-1.2 7.4-0.5 10.8 0.9 2.2 0.9 3.5 1 5.3-1.3 2.8-3.7 6.4-4.6 10.1-4 2.9 0.5 4.8 1.8 5.5 4 1.5 4.3 3.2 4.8 6.4 1.8 3-2.7 7.3-1.5 12.3 3.9-4 1-5.7 8-3.2 13.4 2.9 6.5 14 9.2 19.5 2.7 6.4-7.4 0.9-17.1-6.7-17.2 1.4-4 3.8-7 7.9-7.8 2.7-0.5 5.1 0.7 6.5 2.4 1.8 2.3 3.6 3 4.9 0.5 3.9-7 8.1-12.1 17.8-12.1 9.7 0 13.9 5.1 17.8 12.1 1.3 2.5 3.1 1.8 4.9-0.5 1.4-1.7 3.8-2.9 6.5-2.4 4 0.8 6.5 3.8 7.9 7.8-7.6 0.1-13.1 9.8-6.8 17.2 5.5 6.5 16.7 3.8 19.6-2.7 2.5-5.4 0.8-12.4-3.3-13.4 5.1-5.4 9.4-6.6 12.4-3.9 3.2 3 4.9 2.5 6.4-1.8 0.7-2.2 2.6-3.5 5.5-4 3.7-0.6 7.3 0.3 10.1 4 1.8 2.3 3.1 2.2 5.2 1.3 3.5-1.4 7.4-2.1 10.9-0.9 3.5 1.2 5.1 4.2 3.8 7.7-8.2-2.4-14.5-1-16.9 9.8-1.9 8.2-8 12.3-16.6 12.3zm104.7-39.1c1.4-2.9 2.9-5.8 4.4-8.6 1.6-2.7 3.2-5.4 5-8q2-2.8 4.1-5.4 2.2-2.6 4.5-5c1.5-1.5 3.1-2.9 4.7-4.4 1.7-1.3 3.4-2.5 5.2-3.7 1.8-1.2 3.6-2.2 5.5-3.2l3.8-1.6 4-1.4 4.2-1.1 4.3-0.7c2-0.2 4-0.3 6.1-0.4 1.8 0 3.6 0 5.4 0.2 1.7 0.1 3.3 0.4 5 0.7 1.6 0.4 3 0.8 4.6 1.3 1.4 0.5 2.7 1.1 4.1 1.8 1.2 0.7 2.4 1.5 3.5 2.3 1.1 1 2.1 1.9 3.1 2.9 0.9 1.1 1.6 2.2 2.4 3.4 0.7 1.2 1.2 2.4 1.8 3.7 0.4 1.4 0.8 2.7 1.1 4.1l0.3 2.9c0.1 1.7 0.1 3.3 0 4.9l-0.5 3.2-0.9 3.1-1.2 2.8-1.5 2.5c-0.9 1.2-1.8 2.3-2.8 3.4-1 1-2.1 1.9-3.3 2.8-1.2 0.8-2.3 1.5-3.6 2.1-1.3 0.6-2.6 1.1-3.9 1.5-1.4 0.3-2.8 0.6-4.2 0.7l-2.8 0.1c-1.5-0.1-2.8-0.3-4.2-0.5-1.4-0.4-2.6-0.8-3.9-1.3-1-0.4-1.9-0.9-2.9-1.5-1.5-1-2.6-2.1-3.9-3.4-12-10.8-5.4-28.9 12.5-28.9 6.8 0 12.3 5.3 12.3 11.7 0 6.5-5.5 11.8-12.3 11.8-4.4 0-8.3-2.2-10.5-5.5l0.1 0.6c0.3 2.4 1.2 4.2 2.7 6 1 1.1 2 1.9 3.2 2.6l1.4 0.7c1.6 0.6 3 1 4.7 1.2 1 0 2 0 3 0 1.1-0.2 2-0.3 3-0.6 1.7-0.5 3.2-1.1 4.7-2 1.2-0.8 2.2-1.6 3.3-2.6 0.7-0.8 1.4-1.6 2-2.5 0.6-0.9 1.1-1.9 1.6-2.9 0.4-1.1 0.7-2.1 1-3.3 0.3-1.2 0.4-2.4 0.5-3.7 0-1.2 0-2.4-0.2-3.6-0.1-1.1-0.3-2.1-0.6-3.2-0.6-1.6-1.2-3-2.1-4.5-0.6-0.8-1.2-1.5-1.9-2.2-1.3-1.3-2.6-2.2-4.1-3.1-1.5-0.7-2.9-1.3-4.4-1.8-1.8-0.5-3.5-0.8-5.3-1.1-1.5-0.2-3-0.3-4.6-0.3-2.3 0-4.6 0.1-7 0.3-1.9 0.3-3.8 0.7-5.6 1.1-1.8 0.5-3.6 1-5.3 1.7-1.7 0.7-3.4 1.5-5 2.3-1.6 0.9-3.2 1.9-4.7 3-1.6 1.1-3 2.3-4.5 3.5-1.4 1.3-2.8 2.7-4.2 4.1-1.4 1.5-2.7 3.1-4 4.7-1.7 2.3-3.3 4.6-4.9 7q-1.7 2.9-3.4 5.9c-1 2-2 4-3 6.1zm37.9-24.8q-7.4 8.2-2.8 22.1l-22.2 6.9c5.9-13.9 14-24 25-29zm-31.2-0.8c-1.4-5-3.2-9.7-5.8-13.9h22.8c-5.8 2.7-11.4 7.6-17 13.9zm-49.7-24.1c0.5-5.2 2.4-8 5.8-10.7 3.3 2.7 5.4 5.9 5.9 10.8 4.8-2.2 8.2-1.9 12.2-0.3-0.6 4.2-2.3 7.6-6.3 10.4 4.3 2.9 5.8 6.1 6.5 10.3-3.9 1.6-7.7 1.9-12.3 0-0.6 4.9-2.7 8.1-6 10.8-3.4-2.7-5.3-5.5-6-10.8-5 1.9-8.4 1.6-12.4 0 0.7-4.2 2.5-7.6 6.6-10.4-4.2-3.2-5.7-6.4-6.2-10.6 4-1.5 7.8-1.7 12.2 0.5zm128.2 3.7h-98c0.7-2.8 1-5.7 1.5-8.5-5.1-1.8-9.7-4-15.2-3.5q-0.5-1.2-1.2-2.2h112.9zm-120.9 35.4c3.7-3.1 7.2-5.8 9.3-10.4 5.7 0.4 10.2-1.8 15.4-3.8-0.9-5.2-1.5-10.5-4.6-14.8q0.4-0.6 0.7-1.2c1 0.5 1.7 0.8 2 0.5 8.6 1 16.2 13.4 13.1 21.3l-7 18.1q-5.1-0.4-9.1 2.2c-5.1-6.8-11.1-10.9-18.2-11.4q-1-0.1-1.6-0.5zm-44.6 13.3c-1-2.1-2-4.1-3.1-6.1q-1.6-3-3.4-5.9c-1.5-2.4-3.2-4.7-4.9-7q-1.9-2.4-4-4.7c-1.3-1.4-2.7-2.8-4.2-4.1-1.4-1.2-2.9-2.4-4.4-3.5-1.6-1.1-3.1-2.1-4.7-3-1.7-0.8-3.3-1.6-5-2.3-1.8-0.7-3.5-1.2-5.3-1.7-1.9-0.4-3.7-0.8-5.6-1.1-2.4-0.2-4.7-0.3-7.1-0.3q-2.3 0-4.6 0.3c-1.8 0.3-3.5 0.6-5.3 1.1-1.5 0.5-2.9 1.1-4.3 1.8-1.6 0.9-2.8 1.8-4.2 3.1-0.6 0.7-1.2 1.4-1.8 2.2-1 1.5-1.6 2.9-2.1 4.5-0.3 1.1-0.5 2.1-0.7 3.2-0.1 1.2-0.2 2.4-0.2 3.6 0.1 1.3 0.3 2.5 0.5 3.7 0.3 1.2 0.7 2.2 1.1 3.3 0.5 1 1 2 1.6 2.9 0.6 0.9 1.2 1.7 2 2.5 1 1 2 1.8 3.2 2.6 1.6 0.9 3 1.5 4.7 2 1 0.3 2 0.4 3 0.6 1.1 0 2 0 3.1 0 1.6-0.2 3.1-0.6 4.7-1.2l1.3-0.7c1.3-0.7 2.3-1.5 3.2-2.6 1.6-1.8 2.4-3.6 2.8-6v-0.6c-2.2 3.3-6 5.5-10.4 5.5-6.8 0-12.4-5.3-12.4-11.8 0-6.4 5.6-11.7 12.4-11.7 17.9 0 24.4 18.1 12.5 28.9-1.3 1.3-2.5 2.4-3.9 3.4-1 0.6-2 1.1-3 1.5-1.2 0.5-2.5 0.9-3.8 1.3-1.4 0.2-2.8 0.4-4.2 0.5l-2.9-0.1c-1.4-0.1-2.7-0.4-4.1-0.7-1.4-0.4-2.6-0.9-3.9-1.5-1.3-0.6-2.5-1.3-3.7-2.1-1.1-0.9-2.2-1.8-3.3-2.8-1-1.1-1.8-2.2-2.7-3.4l-1.5-2.5-1.2-2.8-0.9-3.1-0.5-3.2c-0.1-1.6-0.2-3.2-0.1-4.9l0.4-2.9c0.3-1.4 0.6-2.7 1.1-4.1 0.5-1.3 1.1-2.5 1.8-3.7 0.7-1.2 1.5-2.3 2.4-3.4 1-1 1.9-1.9 3-2.9 1.2-0.8 2.3-1.6 3.6-2.3 1.4-0.7 2.7-1.3 4.1-1.8 1.5-0.5 3-0.9 4.5-1.3 1.7-0.3 3.4-0.5 5-0.7 1.9-0.2 3.7-0.2 5.5-0.2 2 0.1 4 0.2 6 0.4l4.4 0.7 4.1 1.1 4 1.4 3.9 1.6c1.9 1 3.7 2 5.5 3.2 1.8 1.2 3.4 2.4 5.1 3.7 1.7 1.5 3.2 2.9 4.8 4.4 1.5 1.6 3 3.3 4.4 5q2.1 2.6 4.1 5.4c1.8 2.6 3.5 5.3 5.1 8 1.5 2.8 3 5.7 4.4 8.6zm-7 1.5l-22.2-6.9q4.6-13.9-2.9-22.1c11.1 5 19.2 15.1 25.1 29zm-10.8-43.7h22.7c-2.6 4.2-4.3 8.9-5.8 13.9-5.5-6.3-11.2-11.2-16.9-13.9zm-61.6-20.7h113q-0.7 1-1.3 2.1c-5.5-0.5-10.1 1.8-15.2 3.6 0.5 2.8 0.8 5.7 1.6 8.5h-98.1zm119.3 50.1c-7.1 0.5-13 4.6-18.2 11.4q-3.9-2.6-9-2.2l-7-18.1c-3.1-7.9 4.5-20.3 13.1-21.3 0.2 0.3 1 0 1.9-0.5q0.4 0.6 0.8 1.2c-3.2 4.3-3.7 9.6-4.7 14.8 5.3 2 9.7 4.2 15.4 3.8 2.2 4.6 5.6 7.3 9.4 10.4q-0.6 0.4-1.7 0.5zm-62.8-155.3c1.2-2.8 5.1-2.5 10.2-3.7 7.8-1.9 15.6-6.7 23-10.6 3.1 4.2 7.4 7.8 12.6 10.8-9-1-15.2 1.7-20.6 5.4h-23c-1.5 0-2.6-1-2.2-1.9z"/>
</svg>