<svg version="1.2" xmlns="http://www.w3.org/2000/svg" viewBox="0 0 404 540" width="404" height="540">
	<title>Dolna-Banya-pdf</title>
	<style>
		.s0 { fill: #231f20 } 
	</style>
	<path id="Path 1" class="s0" d="m161.6 265.7c0-22.1 12.8-36.4 40.4-37.5 26.5-0.8 44.8 12 45.5 37.5v182.7h-12.4v-184.7c-0.7-15.4-12.8-25.5-31.5-24.5-19.6 0.8-28.9 9.5-29.1 24.5v184.7h-12.9zm33.1 9.2c0-13.6 3.3-16.8 9.8-17.4 6.3-0.6 10.4 3.5 10.5 17.4v173.5h-20.3zm-101.1-274.8v15.8h57.3v-15.8h51.3v11h-37.5v15.7h-85.2v-15.7h-68.8v78.2h191.5v11.3h-191.5v335.1c0 49.3 39.6 90 87.9 90h103.6v14.4h-109.3c-51.1 0-92.9-42.8-92.9-95.1v-444.9zm108.6-0.1h51.4v15.9h58.7v-15.9h92v445c0 52.3-41.7 95-92.7 95h-109.4v-14.3h103.5c48.4 0 88-40.7 88-90v-335.1h-191.5v-11.3h191.5v-78.2h-67.5l0.2 15.7h-86.2v-15.7h-38zm-162 77.2h-12.7l-6.9 0.2v-6.7h4.2l12.5-30.3h2.9v9.7l-7.8 20.6h7.8zm44.5-37.4v6.6c-2.3 0-4.5 0.6-6.5 1.6-2 1.2-3.6 2.6-4.8 4.5-1.1 2-1.8 4-1.8 6.3 0 2.3 0.7 4.5 1.8 6.3q1.8 3.1 4.8 4.8 3 1.7 6.5 1.7v6.6c-3.6 0-7.1-0.8-10.3-2.5-3-1.8-5.4-4.1-7.3-7.1-1.9-2.9-2.7-6.1-2.7-9.5 0-3.5 0.8-6.8 2.7-9.7 1.7-3 4.2-5.3 7.3-7q4.6-2.6 10-2.6zm-32 37.4h-12.5v-6.4h7.6l-7.6-20.6v-9.8h2.7l12.5 30.4h4.2v6.6zm97.9 0v-36.9h7.2v14.8h14v-14.8h7.2v36.9h-7.2v-15.4h-14v15.4zm-23.3-25.9l-0.1-1.5-0.3 1.5-9.4 25.9h-7.8l14.7-36.9h5.5l14.7 36.9h-7.8zm-42.6 26.9v-6.6c2.3 0 4.6-0.6 6.5-1.7 2-1.2 3.7-2.8 4.9-4.8 1.1-1.9 1.7-4 1.7-6.3 0-2.2-0.6-4.2-1.7-6.2-1.2-1.9-2.8-3.5-4.8-4.5-1.9-1.1-4-1.7-6.3-1.7h-0.3v-6.6c3.7 0 7 0.8 10.1 2.4 3.1 1.7 5.7 4 7.5 7.1 1.8 3 2.7 6.2 2.7 9.8q0 5.1-2.6 9.5c-1.9 3-4.3 5.3-7.5 7-3.2 1.7-6.5 2.6-10.2 2.6zm119.8-37.9v8.8l-0.1 1.2-4.7 11.5h4.8v6h-6.6l-4.5 9.4h-7.9l16.3-36.9zm0 27.5v-6h4.7l-4.6-11.5-0.1-1.3v0.1-8.8h2.8l16.5 36.9h-8l-4.1-9.4zm53-27.5v6.7h-5.5v7.9h2.4c1.2 0 2 0 3.1 0v6.3c-0.6 0-1.5 0-2.3 0h-3.2v9.5h3c0.9 0 1.7-0.1 2.5-0.1v6.6c-1.1 0-1.9 0-2.9 0h-9.8v-36.9zm0 6.7v-6.7h8.2v6.7zm0 30.2v-6.6h0.3c1-0.2 2.2-0.5 3.3-1.2 1.2-0.7 1.9-2 1.9-3.6 0-1.4-0.6-2.4-1.6-3.3-0.7-0.6-1.4-0.9-2.5-1.1-0.2 0-0.7-0.2-1.4-0.2v-6.3c3.5 0.3 6.1 1.1 7.9 2.3q2.2 1.7 3.5 3.9c0.8 1.6 1.3 3.1 1.3 4.9 0 1.8-0.5 3.4-1.3 5-0.9 1.6-2 2.7-3.5 3.7-1.8 1.3-4.6 2.2-7.9 2.5zm35.9-36.9v8.8l-0.2 1.2-4.6 11.5h4.8v6h-6.7l-4.3 9.4h-8.1l16.3-36.9zm25.5 36.9v-36.9h7.2v14.9h14v-14.9h7.3v36.9h-7.3v-15.4h-14v15.4zm-25.5-9.4v-6h4.8l-4.6-11.5-0.2-1.3v0.1-8.8h2.9l16.4 36.9h-7.9l-4.2-9.4zm74-27.3v5.9c-1.5 0.1-2.8 0.6-3.7 1.3-1.2 0.8-1.6 2-1.6 3.6 0 1.7 0.4 3 1.6 4 0.6 0.4 1.2 0.7 1.9 1 0.4 0.2 1.1 0.2 1.8 0.3v12l-5.4 8.6h-8.5l11.2-16.8c-6.6-0.5-9.9-3.7-9.9-9.4q0-3.5 1.7-6.1c0.9-1.1 1.9-2 3.2-2.7 1.3-0.7 2.6-1.3 3.9-1.4 0.8-0.2 2.1-0.3 3.8-0.3zm0 28.1v-12q1.3 0 3.1 0h2.4v-10.4h-2.4c-1.3 0-2.2 0.2-2.6 0.2q-0.2 0-0.5 0v-5.9c1.1 0 2.2-0.2 3.5-0.2h9.2v36.9h-7.2v-17.4zm-346 104.8l20.9-19v270.1l10.9-12.2v-271.3l20.9-19.7v197.7l5-8.7v19.1h-5v59.6l5-5.6v64.5h-57.7zm57.7 209.9l5.1-5.7v-48.3h-5.1v-19l5.1-8.6v-186.8l20.8 18.9v132.2l4.1-7v70.3h-4.1v24.9l4.1-4.4v98h-30zm30-33.5l4-4.5v-16h-4v-70.3l4-6.7v-108.2l20.9 16.9v55.6l9.5-16.3v-19.6h11.5l46.5-79.3 2.2 3.6v91.8c-37.7-1-75.3 17.3-76.6 58.2v193.4h76.6v-0.6h-94.6zm94.6 98.7h76.4v-194.3c-1.1-36.1-38.8-56.3-76.4-57.3v-91.9l44.8 75.8h12.5v21l10.8 18.3v-59.1l20.9-16.8v111l4 6.9v67.3h-4v24.7l4 4.2v89.6h-93zm93-90.1l4 4v-33h-4v-67.2l4 6.7v-135l20.9-18.9v189.2l5.1 8.5v16.7h-5.1v54.1l5.1 5.2v59.2h-30zm30 30.4l5 5v-64.3h-5v-16.7l5 8.5v-201.9l20.9 19.7v275.9l10.9 11.1v-273.6l20.9 19.1v275.7l0.7 0.7h-58.4zm52.4 70c-6.5 33.5-45.7 58.6-62.5 58.6h-227.8c-34.4 0-65.5-40.2-62.5-58.6z"/>
</svg>