<?xml version="1.0" encoding="UTF-8" standalone="no"?>
<!-- Created with Inkscape (http://www.inkscape.org/) -->
<svg xmlns:dc="http://purl.org/dc/elements/1.1/" xmlns:cc="http://web.resource.org/cc/" xmlns:rdf="http://www.w3.org/1999/02/22-rdf-syntax-ns#" xmlns:svg="http://www.w3.org/2000/svg" xmlns="http://www.w3.org/2000/svg" xmlns:xlink="http://www.w3.org/1999/xlink" xmlns:sodipodi="http://sodipodi.sourceforge.net/DTD/sodipodi-0.dtd" xmlns:inkscape="http://www.inkscape.org/namespaces/inkscape" width="200" height="299" id="svg2" sodipodi:version="0.32" inkscape:version="0.45" sodipodi:docbase="/home/nick/Desktop" sodipodi:docname="Burgas-coat-of-arms.svg" inkscape:output_extension="org.inkscape.output.svg.inkscape" version="1.0" sodipodi:modified="true">
  <defs id="defs4"/>
  <sodipodi:namedview id="base" pagecolor="#ffffff" bordercolor="#666666" borderopacity="1.0" gridtolerance="10000" guidetolerance="10" objecttolerance="10" inkscape:pageopacity="0.0" inkscape:pageshadow="2" inkscape:zoom="2" inkscape:cx="28.762979" inkscape:cy="127.83745" inkscape:document-units="px" inkscape:current-layer="layer1" inkscape:window-width="1280" inkscape:window-height="954" inkscape:window-x="0" inkscape:window-y="24" showgrid="false"/>
  <metadata id="metadata7">
    <rdf:RDF>
      <cc:Work rdf:about="">
        <dc:format>image/svg+xml</dc:format>
        <dc:type rdf:resource="http://purl.org/dc/dcmitype/StillImage"/>
      </cc:Work>
    </rdf:RDF>
  </metadata>
  <g inkscape:label="Layer 1" inkscape:groupmode="layer" id="layer1" transform="translate(-0.3610553,0.4061684)">
    <path style="fill:#fbc501;fill-opacity:1;stroke:#000000;stroke-width:1.10000014;stroke-linecap:round;stroke-linejoin:round;stroke-miterlimit:4;stroke-dasharray:none;stroke-opacity:1" d="M 99.001056,0.0938316 L 99.001056,9.3125816 L 87.063556,9.3125816 L 87.063556,13.218832 L 99.001056,13.218832 L 99.001056,34.031332 L 102.9073,34.031332 L 102.9073,13.218832 L 114.8448,13.218832 L 114.8448,9.3125816 L 102.9073,9.3125816 L 102.9073,0.0938316 L 99.001056,0.0938316 z " id="rect5107"/>
    <rect transform="matrix(0,1,-1,0,0,0)" style="fill:#fbc501;fill-opacity:1;stroke:#000000;stroke-width:1.10000014;stroke-linecap:round;stroke-linejoin:round;stroke-miterlimit:4;stroke-dasharray:none;stroke-opacity:1" id="rect5105" width="16.095251" height="22.489487" x="25.138628" y="-112.19892"/>
    <g id="g6165" transform="translate(0.4639197,0)">
      <g id="g6142">
        <path sodipodi:nodetypes="ccccc" id="path6096" d="M 91.492118,13.530963 C 86.332669,25.441704 85.026734,29.345258 82.110761,42.560636 L 72.379068,47.810545 C 74.010927,36.310252 82.41684,22.906195 88.674242,13.419303 L 91.492118,13.530963 z " style="fill:#ffffff;fill-opacity:1;stroke:#000000;stroke-width:1.10000002;stroke-linecap:round;stroke-linejoin:round;stroke-miterlimit:4;stroke-opacity:1"/>
        <path style="fill:#fbc501;fill-opacity:1;stroke:#000000;stroke-width:1.10000002;stroke-linecap:round;stroke-linejoin:round;stroke-miterlimit:4;stroke-opacity:1" d="M 66.020966,51.13487 C 73.593453,43.45826 88.826711,36.19562 98.906934,36.475703 L 100.87122,86.37025 L 66.020966,86.55334 L 66.020966,51.13487 z " id="rect6098" sodipodi:nodetypes="ccccc"/>
        <g id="g6121">
          <path sodipodi:nodetypes="cc" id="path6101" d="M 100.27752,45.448688 C 83.588893,46.020299 74.613489,53.47323 66.354469,57.594811" style="fill:none;fill-opacity:0.75;fill-rule:evenodd;stroke:#000000;stroke-width:1px;stroke-linecap:butt;stroke-linejoin:miter;stroke-opacity:1"/>
          <path style="fill:none;fill-opacity:0.75;fill-rule:evenodd;stroke:#000000;stroke-width:1px;stroke-linecap:butt;stroke-linejoin:miter;stroke-opacity:1" d="M 100.63466,52.469121 C 83.946036,53.424734 74.970632,61.084187 66.711612,65.395806" id="path6103" sodipodi:nodetypes="cc"/>
          <path sodipodi:nodetypes="cc" id="path6105" d="M 100.41145,61.129835 C 83.990679,61.371162 78.720632,66.084186 69.122327,71.55652" style="fill:none;fill-opacity:0.75;fill-rule:evenodd;stroke:#000000;stroke-width:1px;stroke-linecap:butt;stroke-linejoin:miter;stroke-opacity:1"/>
          <path style="fill:none;fill-opacity:0.75;fill-rule:evenodd;stroke:#000000;stroke-width:1px;stroke-linecap:butt;stroke-linejoin:miter;stroke-opacity:1" d="M 99.875737,68.719121 C 85.687108,69.45152 80.640275,72.021687 71.577684,76.913663" id="path6107" sodipodi:nodetypes="cc"/>
          <path sodipodi:nodetypes="cc" id="path6109" d="M 99.250741,77.424478 C 85.329965,77.710448 82.649204,78.807401 75.327685,82.538663" style="fill:none;fill-opacity:0.75;fill-rule:evenodd;stroke:#000000;stroke-width:1px;stroke-linecap:butt;stroke-linejoin:miter;stroke-opacity:1"/>
        </g>
        <path sodipodi:nodetypes="ccccc" id="path6128" d="M 44.186075,50.685927 C 34.30987,43.337753 24.57569,39.242981 14.57952,39.511081 L 27.5884,87.27094 L 51.422166,87.267626 L 44.186075,50.685927 z " style="fill:#fbc501;fill-opacity:1;stroke:#000000;stroke-width:1.10000002;stroke-linecap:round;stroke-linejoin:round;stroke-miterlimit:4;stroke-opacity:1"/>
        <g id="g6130" transform="matrix(-1,0,0,1,120.20342,4.8214286)">
          <path style="fill:none;fill-opacity:0.75;fill-rule:evenodd;stroke:#000000;stroke-width:1px;stroke-linecap:butt;stroke-linejoin:miter;stroke-opacity:1" d="M 100.27752,45.448688 C 91.088893,46.221192 87.76081,47.69198 80.818755,50.273382" id="path6132" sodipodi:nodetypes="cc"/>
          <path sodipodi:nodetypes="cc" id="path6134" d="M 100.63466,52.469121 C 90.776393,53.915805 86.354561,54.700259 79.300898,58.252949" style="fill:none;fill-opacity:0.75;fill-rule:evenodd;stroke:#000000;stroke-width:1px;stroke-linecap:butt;stroke-linejoin:miter;stroke-opacity:1"/>
          <path style="fill:none;fill-opacity:0.75;fill-rule:evenodd;stroke:#000000;stroke-width:1px;stroke-linecap:butt;stroke-linejoin:miter;stroke-opacity:1" d="M 100.41145,61.129835 C 90.642465,61.683662 85.015275,61.9324 76.577684,64.502948" id="path6136" sodipodi:nodetypes="cc"/>
          <path sodipodi:nodetypes="cc" id="path6138" d="M 96.215023,68.674478 C 86.401394,68.960449 80.818846,69.119901 74.300898,70.30652" style="fill:none;fill-opacity:0.75;fill-rule:evenodd;stroke:#000000;stroke-width:1px;stroke-linecap:butt;stroke-linejoin:miter;stroke-opacity:1"/>
          <path style="fill:none;fill-opacity:0.75;fill-rule:evenodd;stroke:#000000;stroke-width:1px;stroke-linecap:butt;stroke-linejoin:miter;stroke-opacity:1" d="M 93.491812,75.103049 C 80.687108,75.210448 75.193847,74.744901 70.908042,77.360092" id="path6140" sodipodi:nodetypes="cc"/>
        </g>
        <path style="fill:#fbc501;fill-opacity:1;stroke:#000000;stroke-width:1.10000014;stroke-linecap:round;stroke-linejoin:round;stroke-miterlimit:4;stroke-opacity:1" d="M 13.993011,35.358989 C 29.767799,50.233086 17.55096,67.559217 34.4486,86.569358 L 26.114842,86.695627 C 11.02401,65.070964 22.537218,51.587318 9.573594,40.283482 L 13.993011,35.358989 z " id="rect5115" sodipodi:nodetypes="ccccc"/>
        <path sodipodi:nodetypes="ccccc" id="path6094" d="M 46.809465,75.855195 C 56.341413,73.297 63.819043,70.752681 70.704003,68.53159 C 74.96227,75.216339 77.250888,79.605211 81.173258,86.082989 L 46.070459,86.082989 C 46.449857,82.423552 46.578201,79.545472 46.809465,75.855195 z " style="fill:#ffffff;fill-opacity:1;stroke:#000000;stroke-width:1.10000002;stroke-linecap:round;stroke-linejoin:round;stroke-miterlimit:4;stroke-opacity:1"/>
        <rect transform="matrix(0,1,-1,0,0,0)" style="fill:#fbc501;fill-opacity:1;stroke:#000000;stroke-width:1.10000014;stroke-linecap:round;stroke-linejoin:round;stroke-miterlimit:4;stroke-dasharray:none;stroke-opacity:1" id="rect5120" width="81.009865" height="5.0507627" x="5.4332199" y="-57.050762"/>
        <path transform="translate(0.3610553,-0.4061684)" style="fill:#ffffff;fill-opacity:1;stroke:#000000;stroke-width:1.10000002;stroke-linecap:round;stroke-linejoin:round;stroke-miterlimit:4;stroke-opacity:1" d="M 36.491761,45.325442 C 49.359881,29.123949 61.96469,20.821777 74.498751,14.642059 C 62.449262,45.191662 67.825964,62.586248 74.119943,75.37748 L 46.21448,81.438395 C 38.774749,69.697738 35.749598,58.485899 36.491761,45.325442 z " id="rect5122" sodipodi:nodetypes="ccccc"/>
      </g>
      <use height="299" width="200" transform="matrix(-1,0,0,1,200.98052,0)" id="use6163" xlink:href="#g6142" y="0" x="0"/>
    </g>
    <rect style="fill:#fbc501;fill-opacity:1;stroke:#000000;stroke-width:1.10000002;stroke-linecap:round;stroke-linejoin:round;stroke-miterlimit:4;stroke-dasharray:none;stroke-opacity:1" id="rect12092" width="147.43176" height="21.920311" x="27.238298" y="86.992126" rx="0" ry="0"/>
    <rect y="-103.98463" x="29.424343" height="6.0609155" width="57.523823" id="rect5103" style="fill:#fbc501;fill-opacity:1;stroke:#000000;stroke-width:1.10000014;stroke-linecap:round;stroke-linejoin:round;stroke-miterlimit:4;stroke-dasharray:none;stroke-opacity:1" transform="matrix(0,1,-1,0,0,0)"/>
    <g id="g12145" transform="translate(-240.00063,0)">
      <rect style="fill:#fbc501;fill-opacity:1;stroke:#000000;stroke-width:1.25982952;stroke-linecap:round;stroke-linejoin:round;stroke-miterlimit:4;stroke-dasharray:none;stroke-opacity:1" id="rect12061" width="12.79456" height="19.130096" x="365.20883" y="119.3838" transform="matrix(1,0,-0.6471498,0.7623628,0,0)" ry="4.0867386" rx="4.1072206"/>
      <use height="299" width="200" transform="translate(13.199321,0)" id="use12066" xlink:href="#rect12061" y="0" x="0"/>
      <use height="299" width="200" transform="translate(26.398643,0)" id="use12068" xlink:href="#rect12061" y="0" x="0"/>
      <use height="299" width="200" transform="translate(39.597969,0)" id="use12072" xlink:href="#rect12061" y="0" x="0"/>
      <use height="299" width="200" transform="translate(52.797294,0)" id="use12074" xlink:href="#rect12061" y="0" x="0"/>
      <use height="299" width="200" transform="translate(65.99662,0)" id="use12076" xlink:href="#rect12061" y="0" x="0"/>
      <use height="299" width="200" transform="translate(79.195945,0)" id="use12078" xlink:href="#rect12061" y="0" x="0"/>
      <use height="299" width="200" transform="translate(92.395271,0)" id="use12080" xlink:href="#rect12061" y="0" x="0"/>
      <use height="299" width="200" transform="translate(105.5946,0)" id="use12082" xlink:href="#rect12061" y="0" x="0"/>
      <path id="use12084" transform="translate(0.3610553,-0.4061684)" d="M 410.5,91.40625 C 408.2246,91.40625 405.21518,92.805223 403.75,94.53125 L 396.65625,102.875 C 395.19107,104.60103 395.84959,106 398.125,106 L 402.6875,106 C 404.9629,106 407.97232,104.60103 409.4375,102.875 L 414.3125,97.15625 L 414.3125,91.40625 L 410.5,91.40625 z " style="fill:#fbc501;fill-opacity:1;stroke:#000000;stroke-width:1.0999999;stroke-linecap:round;stroke-linejoin:round;stroke-miterlimit:4;stroke-dasharray:none;stroke-opacity:1"/>
      <path id="use12086" transform="translate(0.3610553,-0.4061684)" d="M 278.5,91.40625 C 276.2246,91.40625 273.21518,92.805223 271.75,94.53125 L 266.875,100.25 L 266.875,106 L 270.6875,106 C 272.9629,106 275.97232,104.60103 277.4375,102.875 L 284.53125,94.53125 C 285.99643,92.80522 285.33791,91.406253 283.0625,91.40625 L 278.5,91.40625 z " style="fill:#fbc501;fill-opacity:1;stroke:#000000;stroke-width:1.0999999;stroke-linecap:round;stroke-linejoin:round;stroke-miterlimit:4;stroke-dasharray:none;stroke-opacity:1"/>
      <path id="use12088" d="M 267.23606,91.00008 L 267.23606,99.37508 L 271.70481,94.12508 C 273.16999,92.39905 272.51146,91.00009 270.23606,91.00008 L 267.23606,91.00008 z " style="fill:#fbc501;fill-opacity:1;stroke:#000000;stroke-width:1.0999999;stroke-linecap:round;stroke-linejoin:round;stroke-miterlimit:4;stroke-dasharray:none;stroke-opacity:1"/>
      <path id="use12090" transform="translate(0.3610553,-0.4061684)" d="M 414.3125,97.625 L 409.84375,102.875 C 408.37857,104.60103 409.03709,106 411.3125,106 L 414.3125,106 L 414.3125,97.625 z " style="fill:#fbc501;fill-opacity:1;stroke:#000000;stroke-width:1.0999999;stroke-linecap:round;stroke-linejoin:round;stroke-miterlimit:4;stroke-dasharray:none;stroke-opacity:1"/>
    </g>
    <rect style="fill:#fbc501;fill-opacity:1;stroke:#000000;stroke-width:1.10000002;stroke-linecap:round;stroke-linejoin:round;stroke-miterlimit:4;stroke-dasharray:none;stroke-opacity:1" id="rect2188" width="156.09525" height="6.0609155" x="22.906557" y="84.441505"/>
    <use x="0" y="0" xlink:href="#rect2188" id="use5101" transform="translate(-6.7891e-8,21.428571)" width="200" height="299"/>
    <path sodipodi:nodetypes="ccczcscc" id="rect6188" d="M 2.438547,112.31258 C 1.561837,112.35946 1.029537,113.25554 1.126047,114.03133 C 1.126047,114.03133 1.790707,119.53189 13.407297,212.75008 C 19.050017,257.7876 43.664657,296.87508 100.78231,296.87508 C 157.90467,296.87508 182.83882,258.29367 188.50106,212.75008 C 200.11765,119.53189 200.7823,114.03133 200.78231,114.03133 C 200.87883,113.25554 200.34652,112.35946 199.46981,112.31258 L 2.438547,112.31258 z " style="fill:#ffffff;fill-opacity:1;stroke:#000000;stroke-width:1.10000002;stroke-linecap:round;stroke-linejoin:round;stroke-miterlimit:4;stroke-dasharray:none;stroke-opacity:1"/>
    <path style="fill:#00468c;fill-opacity:1;stroke:#000000;stroke-width:1.10000014;stroke-linecap:round;stroke-linejoin:round;stroke-miterlimit:4;stroke-dasharray:none;stroke-opacity:1" d="M 8.852367,117.56258 C 8.032727,117.60724 7.535087,118.46083 7.625317,119.19985 C 7.625317,119.19985 7.246707,124.43962 18.107007,213.2384 C 23.382357,256.14071 49.639457,293.37507 100.79349,293.37507 C 151.94692,293.37507 177.50775,258.18436 183.80135,213.2384 C 194.66165,124.43962 194.28303,119.19985 194.28304,119.19985 C 194.37327,118.46083 193.87561,117.60724 193.05598,117.56258 L 8.852367,117.56258 z " id="path11087" sodipodi:nodetypes="ccczcscc"/>
    <g id="g13146" transform="translate(0.2308166,0)"/>
    <g id="g29884" transform="translate(260,0)">
      <path sodipodi:nodetypes="czc" id="rect29861" d="M -182.51443,131.2305 C -179.14837,134.42372 -182.42556,140.43251 -184.61365,138.19108 C -186.80174,135.94965 -182.16462,135.38628 -182.51443,131.2305 z " style="fill:#fbc501;fill-opacity:1;stroke:#000000;stroke-width:1;stroke-linecap:round;stroke-linejoin:round;stroke-miterlimit:4;stroke-opacity:1"/>
      <path style="fill:#fbc501;fill-opacity:1;stroke:#000000;stroke-width:1;stroke-linecap:round;stroke-linejoin:round;stroke-miterlimit:4;stroke-opacity:1" d="M -200.70193,126.668 C -199.52337,129.61122 -195.67556,130.99501 -198.05115,132.87858 C -200.46531,134.79273 -201.78962,129.82378 -200.70193,126.668 z " id="path29868" sodipodi:nodetypes="czc"/>
    </g>
    <path sodipodi:nodetypes="ccc" id="path35729" d="M 86.67796,138.34577 C 82.29062,153.44696 94.48979,151.69314 99.40588,153.81372 C 81.8203,160.67372 73.89848,142.67177 86.67796,138.34577 z " style="fill:#fbc501;fill-opacity:1;stroke:#000000;stroke-width:1;stroke-linecap:round;stroke-linejoin:round;stroke-miterlimit:4;stroke-opacity:1"/>
    <path style="fill:#fbc501;fill-opacity:1;stroke:#000000;stroke-width:1;stroke-linecap:round;stroke-linejoin:round;stroke-miterlimit:4;stroke-opacity:1" d="M 107.44922,156.46538 L 101.96914,159.82413 C 95.782963,159.80432 94.73712,155.06703 95.554738,152.84605 C 97.691446,152.32275 101.86597,151.34715 107.44922,156.46538 z " id="rect35726" sodipodi:nodetypes="cccc"/>
    <path style="fill:#fbc501;fill-opacity:1;stroke:#000000;stroke-width:1;stroke-linecap:round;stroke-linejoin:round;stroke-miterlimit:4;stroke-opacity:1" d="M 103.73932,131.71663 L 120.70988,131.71663 L 133.43298,137.72704 L 148.82237,167.42131 L 145.68203,176.18539 L 92.95623,169.88531 L 92.6118,159.98281 C 95.07457,154.1452 102.88977,161.73567 104.36757,158.69192 L 104.38966,151.00568 C 104.45216,148.96212 103.11335,146.90477 100.72099,147.21727 C 98.192716,147.33527 94.414151,147.9891 93.13617,147.57126 L 92.59757,140.2903 L 103.73932,131.71663 z " id="rect33781" sodipodi:nodetypes="ccccccccccccc"/>
    <path style="fill:#fbc501;fill-opacity:1;stroke:#000000;stroke-width:1;stroke-linecap:round;stroke-linejoin:round;stroke-miterlimit:4;stroke-opacity:1" d="M 74.98606,177.96883 C 70.76694,172.92543 65.50044,166.98342 63.35841,154.38291 L 65.67876,152.71576 C 62.01646,155.28095 60.52155,157.59582 55.04975,155.61572 L 57.9792,133.9334 C 62.05497,129.19876 68.70589,129.34038 66.60266,138.47756 C 71.25158,132.75271 74.9804,134.2885 76.70697,137.10076 C 80.14818,142.70585 79.14336,146.51011 71.11106,146.71883 L 94.73606,171.21883 L 84.23606,177.93758 L 74.98606,177.96883 z " id="rect29888" sodipodi:nodetypes="ccccccscccc"/>
    <path style="fill:#fbc501;fill-opacity:1;stroke:#000000;stroke-width:1;stroke-linecap:round;stroke-linejoin:round;stroke-miterlimit:4;stroke-opacity:1" d="M 78.54856,164.40633 L 78.36106,171.84383 C 79.48527,172.90566 80.56791,173.80888 81.61189,174.57085 L 86.98606,184.34383 L 77.04856,184.28133 L 76.98606,188.71883 C 80.13635,192.19488 83.12907,194.58922 85.93499,196.13751 L 113.55243,195.79413 L 114.11106,165.71883 C 92.768753,159.69221 99.044553,175.61286 78.54856,164.40633 z " id="rect35731" sodipodi:nodetypes="cccccccccc"/>
    <g style="fill:none;stroke:#d75e5e;stroke-width:0.93250269;stroke-opacity:1" transform="matrix(1.2952078,0,0,0.8878924,324.08478,44.32442)" id="g22017">
      <rect transform="matrix(0.7720769,0,0,1.1262626,-49.478356,-49.920936)" y="141.55223" x="-231.72955" height="27.5" width="28.868717" id="rect12164" style="fill:#ffffff;fill-opacity:1;stroke:#000000;stroke-width:1.10000002;stroke-linecap:round;stroke-linejoin:round;stroke-miterlimit:4;stroke-dasharray:none;stroke-opacity:1"/>
      <path style="fill:#ffffff;fill-opacity:1;stroke:#000000;stroke-width:1.10000002;stroke-linecap:round;stroke-linejoin:round;stroke-miterlimit:4;stroke-dasharray:none;stroke-opacity:1" d="M -234.40625,131.25 L -234.40625,143.25 L -200.90625,143.25 L -200.90625,131.25 L -207.90625,131.25 L -207.90625,136.96875 L -211.15625,136.96875 L -215.59375,131.625 L -215.59375,131.25 L -221.25,131.25 L -221.25,136.96875 L -224.5,136.96875 L -228.9375,131.625 L -228.9375,131.25 L -234.40625,131.25 z " id="rect12162" transform="matrix(0.7720769,0,0,1.1262626,-49.199593,-50.378389)"/>
      <path transform="matrix(0.7720769,0,0,1.1262626,-49.478356,-49.920936)" style="fill:#ffffff;fill-opacity:1;stroke:#000000;stroke-width:1.10000002;stroke-linecap:round;stroke-linejoin:round;stroke-miterlimit:4;stroke-opacity:1" d="M -235.28718,168.33389 L -199.25901,168.33389 L -197.57963,205.68919 L -237.01075,205.68919 L -235.28718,168.33389 z " id="rect13152" sodipodi:nodetypes="ccccc"/>
      <g transform="matrix(0.7720769,0,0,1.1262626,-49.478356,-49.920936)" id="g16079" style="fill:none;stroke:#000000;stroke-opacity:1">
        <path sodipodi:nodetypes="cc" id="path15102" d="M -231.69183,147.84383 L -202.89856,147.84383" style="fill:none;fill-opacity:0.75;fill-rule:evenodd;stroke:#000000;stroke-width:1px;stroke-linecap:butt;stroke-linejoin:miter;stroke-opacity:1"/>
        <path style="fill:none;fill-opacity:0.75;fill-rule:evenodd;stroke:#000000;stroke-width:1px;stroke-linecap:butt;stroke-linejoin:miter;stroke-opacity:1" d="M -231.69183,151.96883 L -202.89856,151.96883" id="path16073" sodipodi:nodetypes="cc"/>
        <path sodipodi:nodetypes="cc" id="path16075" d="M -231.69183,156.34383 L -202.89856,156.34383" style="fill:none;fill-opacity:0.75;fill-rule:evenodd;stroke:#000000;stroke-width:1px;stroke-linecap:butt;stroke-linejoin:miter;stroke-opacity:1"/>
        <path style="fill:none;fill-opacity:0.75;fill-rule:evenodd;stroke:#000000;stroke-width:1px;stroke-linecap:butt;stroke-linejoin:miter;stroke-opacity:1" d="M -231.69183,161.78133 L -202.89856,161.78133" id="path16077" sodipodi:nodetypes="cc"/>
      </g>
      <path transform="matrix(0.7720769,0,0,1.1262626,-49.478356,-49.920936)" style="fill:#ffffff;fill-opacity:1;stroke:#000000;stroke-width:1.10000002;stroke-linecap:round;stroke-linejoin:round;stroke-miterlimit:4;stroke-dasharray:none;stroke-opacity:1" d="M -237.04519,160.43758 L -237.04519,170.78133 L -197.54519,170.78133 L -197.54519,160.43758 L -207.29519,160.43758 L -207.29519,165.56258 L -212.32644,165.56258 L -212.32644,160.43758 L -222.23269,160.43758 L -222.23269,165.56258 L -227.26394,165.56258 L -227.26394,160.43758 L -237.04519,160.43758 z " id="rect12168"/>
      <path style="fill:#ffffff;fill-opacity:1;fill-rule:evenodd;stroke:#000000;stroke-width:0.93250269px;stroke-linecap:butt;stroke-linejoin:miter;stroke-opacity:1" d="M -231.37818,147.28071 L -203.11571,147.28071" id="path18025" sodipodi:nodetypes="cc"/>
      <path sodipodi:nodetypes="cc" id="path18027" d="M -231.64358,151.99693 L -202.85031,151.99693" style="fill:#ffffff;fill-opacity:1;fill-rule:evenodd;stroke:#000000;stroke-width:0.93250269px;stroke-linecap:butt;stroke-linejoin:miter;stroke-opacity:1"/>
      <path style="fill:#ffffff;fill-opacity:1;fill-rule:evenodd;stroke:#000000;stroke-width:0.93250269px;stroke-linecap:butt;stroke-linejoin:miter;stroke-opacity:1" d="M -231.8366,156.71315 L -202.65729,156.71315" id="path18029" sodipodi:nodetypes="cc"/>
      <path sodipodi:nodetypes="cc" id="path18031" d="M -231.93311,161.42938 L -202.56078,161.42938" style="fill:#ffffff;fill-opacity:1;fill-rule:evenodd;stroke:#000000;stroke-width:0.93250269px;stroke-linecap:butt;stroke-linejoin:miter;stroke-opacity:1"/>
      <path style="fill:#ffffff;fill-opacity:1;fill-rule:evenodd;stroke:#000000;stroke-width:0.93250269px;stroke-linecap:butt;stroke-linejoin:miter;stroke-opacity:1" d="M -231.93311,166.1456 L -202.56078,166.1456" id="path18033" sodipodi:nodetypes="cc"/>
      <path sodipodi:nodetypes="cc" id="path18035" d="M -232.1682,170.86183 L -202.32568,170.86183" style="fill:#ffffff;fill-opacity:1;fill-rule:evenodd;stroke:#000000;stroke-width:0.93250275px;stroke-linecap:butt;stroke-linejoin:miter;stroke-opacity:1"/>
      <path style="fill:#ffffff;fill-opacity:1;fill-rule:evenodd;stroke:#000000;stroke-width:0.93250269px;stroke-linecap:butt;stroke-linejoin:miter;stroke-opacity:1" d="M -232.30926,175.57805 L -202.18463,175.57805" id="path18037" sodipodi:nodetypes="cc"/>
      <path style="fill:#ffffff;fill-opacity:1;stroke:#000000;stroke-width:0.93250275;stroke-linecap:round;stroke-linejoin:round;stroke-miterlimit:4;stroke-dasharray:none;stroke-opacity:1" d="M -221.63814,150.41312 C -225.20659,152.83466 -227.69443,158.12412 -227.71825,164.28022 L -227.66999,181.6669 L -222.00005,181.6669 L -222.02418,164.63218 C -222.01555,162.39602 -221.30143,160.41424 -220.1905,159.14165 L -221.63814,150.41312 z M -212.85576,150.44831 L -214.30341,159.14165 C -213.17499,160.4382 -212.46099,162.47142 -212.46973,164.73777 L -212.49385,181.6669 L -206.79979,181.6669 L -206.77566,164.4562 C -206.75165,158.2476 -209.25064,152.90167 -212.85576,150.44831 z " id="path19977"/>
    </g>
    <g id="g29878">
      <path sodipodi:nodetypes="czc" id="path29870" d="M 67.48557,179.918 C 67.10163,182.92372 70.26194,185.55751 67.88635,185.75358 C 65.45288,185.95443 65.71038,182.19878 67.48557,179.918 z " style="fill:#fbc501;fill-opacity:1;stroke:#000000;stroke-width:1;stroke-linecap:round;stroke-linejoin:round;stroke-miterlimit:4;stroke-opacity:1"/>
      <path style="fill:#fbc501;fill-opacity:1;stroke:#000000;stroke-width:1;stroke-linecap:round;stroke-linejoin:round;stroke-miterlimit:4;stroke-opacity:1" d="M 53.5154,187.09311 C 55.04912,189.70644 59.16023,189.85867 57.40014,191.46615 C 55.59717,193.11278 53.50494,189.98329 53.5154,187.09311 z " id="path29872" sodipodi:nodetypes="czc"/>
      <path sodipodi:nodetypes="czc" id="path29874" d="M 52.53994,211.39354 C 55.52078,210.8491 57.07372,207.03954 57.98007,209.24418 C 58.90849,211.50253 55.25125,212.39458 52.53994,211.39354 z " style="fill:#fbc501;fill-opacity:1;stroke:#000000;stroke-width:1;stroke-linecap:round;stroke-linejoin:round;stroke-miterlimit:4;stroke-opacity:1"/>
      <path style="fill:#fbc501;fill-opacity:1;stroke:#000000;stroke-width:1;stroke-linecap:round;stroke-linejoin:round;stroke-miterlimit:4;stroke-opacity:1" d="M 63.72497,214.60227 C 66.56928,213.55742 67.44973,209.53881 68.71881,211.55657 C 70.0188,213.62349 66.56729,215.12622 63.72497,214.60227 z " id="path29876" sodipodi:nodetypes="czc"/>
    </g>
    <path style="fill:#fbc501;fill-opacity:1;stroke:#000000;stroke-width:1;stroke-linecap:round;stroke-linejoin:round;stroke-miterlimit:4;stroke-opacity:1" d="M 146.34009,186.16385 C 161.00227,178.44846 160.09614,168.21848 159.77511,161.94544 C 172.4284,172.6902 171.74494,184.29385 163.90195,192.86617 C 171.96858,199.31122 176.87794,207.8963 173.56369,221.65177 C 165.3432,212.7873 158.61942,208.80432 141.74389,214.35973 L 131.82643,200.93184 L 140.00835,185.05378 C 141.5653,183.20929 143.84705,184.26403 146.34009,186.16385 z " id="rect37678" sodipodi:nodetypes="cccccccc"/>
    <g id="g44593">
      <path sodipodi:nodetypes="cccccccccccccccccccccccccccccccccccccccccccc" id="rect41571" d="M 70.11106,212.84383 L 78.61106,204.21883 L 113.20742,204.16899 L 113.21011,221.41905 C 101.16317,223.83104 100.50524,227.2784 98.42276,230.59625 L 98.48279,236.3074 C 101.3386,237.35939 103.37479,238.77565 104.1118,240.76932 L 110.11435,240.5074 C 111.29313,238.77261 113.23703,237.64992 115.59183,236.85594 L 116.01316,232.51827 L 135.35823,212.71113 L 149.8987,219.7533 C 150.85304,223.42678 148.6158,225.09422 146.9065,226.96782 L 148.3256,231.80604 L 152.11259,231.73644 C 155.54591,231.46262 152.23825,237.08715 152.3011,239.76251 C 155.11111,240.51545 155.16141,243.66807 155.16141,245.45665 L 149.83145,250.84068 L 149.63639,255.36813 L 146.36226,258.75788 L 146.17216,261.57059 L 133.55465,271.50676 L 121.08074,272.13294 L 118.18301,275.97982 L 110.68662,275.97223 L 108.33128,274.18863 L 101.89274,274.1917 L 100.75491,275.44343 L 93.73913,275.5741 C 93.322,274.49607 92.49211,273.62441 91.61038,272.77867 L 83.98816,272.69218 L 83.41851,270.02591 C 81.6955,269.31119 79.67898,269.08566 78.60702,267.28585 L 78.50123,263.61528 L 69.12071,263.70222 L 61.57531,254.28417 L 58.68426,254.00151 C 55.24479,250.68849 56.20415,239.92268 55.78822,228.38354 L 58.77004,228.26399 L 61.84372,231.32416 L 61.82552,222.31802 L 66.82594,224.42972 L 70.33702,220.55792 L 70.11106,212.84383 z " style="fill:#fbc501;fill-opacity:1;stroke:#000000;stroke-width:1;stroke-linecap:round;stroke-linejoin:round;stroke-miterlimit:4;stroke-opacity:1"/>
      <path sodipodi:nodetypes="cc" id="path42543" d="M 61.61987,230.75578 L 61.48728,254.22288" style="fill:#fbc501;fill-opacity:1;fill-rule:evenodd;stroke:#000000;stroke-width:1px;stroke-linecap:butt;stroke-linejoin:miter;stroke-opacity:1"/>
      <path style="fill:#fbc501;fill-opacity:1;fill-rule:evenodd;stroke:#000000;stroke-width:1px;stroke-linecap:butt;stroke-linejoin:miter;stroke-opacity:1" d="M 112.13379,219.08851 L 101.79195,220.34486 C 100.68702,217.85718 98.42492,216.8921 92.86608,220.26483 C 89.7016,217.39855 86.78541,219.24984 83.84882,220.71353 C 81.55522,219.64015 78.80211,219.25602 75.09831,220.29793 L 70.10513,220.06078" id="path43514" sodipodi:nodetypes="cccccc"/>
      <path style="fill:#fbc501;fill-opacity:1;fill-rule:evenodd;stroke:#000000;stroke-width:1px;stroke-linecap:butt;stroke-linejoin:miter;stroke-opacity:1" d="M 74.34779,211.22195 L 79.77892,214.66253 L 79.96044,219.48626" id="path43516" sodipodi:nodetypes="ccc"/>
      <path sodipodi:nodetypes="ccc" id="path43518" d="M 86.01506,206.71415 L 85.92524,212.07109 L 80.04884,214.71329" style="fill:#fbc501;fill-opacity:1;fill-rule:evenodd;stroke:#000000;stroke-width:1px;stroke-linecap:butt;stroke-linejoin:miter;stroke-opacity:1"/>
      <path style="fill:#fbc501;fill-opacity:1;fill-rule:evenodd;stroke:#000000;stroke-width:1px;stroke-linecap:butt;stroke-linejoin:miter;stroke-opacity:1" d="M 89.5506,213.78522 L 99.06018,213.78297 L 101.52721,210.73581" id="path43520" sodipodi:nodetypes="ccc"/>
      <path sodipodi:nodetypes="ccc" id="path43522" d="M 89.55059,218.29302 L 89.49694,213.84476 L 86.05925,211.88486" style="fill:#fbc501;fill-opacity:1;fill-rule:evenodd;stroke:#000000;stroke-width:1px;stroke-linecap:butt;stroke-linejoin:miter;stroke-opacity:1"/>
      <path style="fill:#fbc501;fill-opacity:1;fill-rule:evenodd;stroke:#000000;stroke-width:1px;stroke-linecap:butt;stroke-linejoin:miter;stroke-opacity:1" d="M 96.88682,207.77481 L 94.10258,213.56424" id="path43524" sodipodi:nodetypes="cc"/>
      <path sodipodi:nodetypes="cc" id="path43526" d="M 98.91976,213.8957 L 98.69878,217.78478" style="fill:#fbc501;fill-opacity:1;fill-rule:evenodd;stroke:#000000;stroke-width:1px;stroke-linecap:butt;stroke-linejoin:miter;stroke-opacity:1"/>
      <path style="fill:#fbc501;fill-opacity:1;fill-rule:evenodd;stroke:#000000;stroke-width:1px;stroke-linecap:butt;stroke-linejoin:miter;stroke-opacity:1" d="M 66.74639,224.32553 L 69.48431,227.44083 L 69.40954,234.3843 C 66.85869,236.49651 67.93984,238.46003 67.81832,243.81404 C 66.86439,244.69762 65.77338,245.46521 65.55139,246.96813 L 65.55124,252.67447 C 66.97716,254.64877 68.70942,256.25597 70.83577,256.24574 C 72.05276,261.0012 73.34174,261.92841 74.54665,263.68043" id="path43528" sodipodi:nodetypes="cccccccc"/>
      <path style="fill:#fbc501;fill-opacity:1;fill-rule:evenodd;stroke:#000000;stroke-width:1px;stroke-linecap:butt;stroke-linejoin:miter;stroke-opacity:1" d="M 74.92231,220.37015 L 74.9323,226.42481 L 69.619,227.5738" id="path43532" sodipodi:nodetypes="ccc"/>
      <path sodipodi:nodetypes="cccc" id="path43534" d="M 103.12909,245.71554 L 98.11576,245.67784 C 98.0667,243.79414 97.137,241.52107 95.94679,240.16357 L 98.62887,236.42828" style="fill:#fbc501;fill-opacity:1;fill-rule:evenodd;stroke:#000000;stroke-width:1px;stroke-linecap:butt;stroke-linejoin:miter;stroke-opacity:1"/>
      <path style="fill:#fbc501;fill-opacity:1;fill-rule:evenodd;stroke:#000000;stroke-width:1px;stroke-linecap:butt;stroke-linejoin:miter;stroke-opacity:1" d="M 147.00301,226.99928 L 144.44974,229.07646 L 137.54545,229.20899" id="path43536" sodipodi:nodetypes="ccc"/>
      <path style="fill:#fbc501;fill-opacity:1;fill-rule:evenodd;stroke:#000000;stroke-width:1px;stroke-linecap:butt;stroke-linejoin:miter;stroke-opacity:1" d="M 137.63385,224.74539 L 137.51125,232.21425 C 137.2953,234.17734 135.91374,235.98213 135.34508,235.99607 L 129.88694,236.1299 L 123.88945,231.10934" id="path43538" sodipodi:nodetypes="ccscc"/>
      <path style="fill:#fbc501;fill-opacity:1;fill-rule:evenodd;stroke:#000000;stroke-width:1px;stroke-linecap:butt;stroke-linejoin:miter;stroke-opacity:1" d="M 148.81497,231.72806 L 148.55204,235.01635 C 146.10118,237.54816 143.94344,238.32134 141.84228,238.75499 L 135.99865,235.52875" id="path43540" sodipodi:nodetypes="cccc"/>
      <path style="fill:#fbc501;fill-opacity:1;fill-rule:evenodd;stroke:#000000;stroke-width:1px;stroke-linecap:butt;stroke-linejoin:miter;stroke-opacity:1" d="M 152.56027,239.66093 C 151.66811,240.905 150.76552,242.10037 149.69986,242.53477 L 141.86799,242.60634 L 141.82867,238.59379" id="path43542" sodipodi:nodetypes="cccc"/>
      <path sodipodi:nodetypes="ccc" id="path43544" d="M 149.89873,250.86537 L 145.62449,250.95904 L 145.56308,242.46078" style="fill:#fbc501;fill-opacity:1;fill-rule:evenodd;stroke:#000000;stroke-width:1px;stroke-linecap:butt;stroke-linejoin:miter;stroke-opacity:1"/>
      <path style="fill:#fbc501;fill-opacity:1;fill-rule:evenodd;stroke:#000000;stroke-width:1px;stroke-linecap:butt;stroke-linejoin:miter;stroke-opacity:1" d="M 129.99915,236.19169 L 129.72408,242.08323 C 124.40723,241.91725 127.36607,243.0253 121.73755,242.84941 L 115.31217,236.82603" id="path43546" sodipodi:nodetypes="cccc"/>
      <path style="fill:#fbc501;fill-opacity:1;fill-rule:evenodd;stroke:#000000;stroke-width:1px;stroke-linecap:butt;stroke-linejoin:miter;stroke-opacity:1" d="M 142.19674,242.55566 C 140.92671,242.73493 139.65047,243.18155 138.32239,245.85718 L 133.75836,245.85461 L 129.74156,241.84207" id="path43548" sodipodi:nodetypes="cccc"/>
      <path sodipodi:nodetypes="cccc" id="path43550" d="M 121.95581,242.9313 L 120.29306,247.51488 L 113.67211,247.53399 C 109.52151,246.97287 110.12965,243.88271 109.98677,240.56043" style="fill:#fbc501;fill-opacity:1;fill-rule:evenodd;stroke:#000000;stroke-width:1px;stroke-linecap:butt;stroke-linejoin:miter;stroke-opacity:1"/>
      <path style="fill:#fbc501;fill-opacity:1;fill-rule:evenodd;stroke:#000000;stroke-width:1px;stroke-linecap:butt;stroke-linejoin:miter;stroke-opacity:1" d="M 145.75436,250.93045 L 144.3942,250.96854 L 144.32755,252.01729 C 141.37632,252.08334 137.56099,251.76535 135.56013,252.25379 C 134.95686,250.86131 134.18056,250.68006 133.4048,250.495 L 133.40967,245.59857" id="path43552" sodipodi:nodetypes="cccccc"/>
      <path style="fill:#fbc501;fill-opacity:1;fill-rule:evenodd;stroke:#000000;stroke-width:1px;stroke-linecap:butt;stroke-linejoin:miter;stroke-opacity:1" d="M 135.56761,252.12369 L 135.50402,258.27317 L 146.75631,258.30439" id="path43554" sodipodi:nodetypes="ccc"/>
      <path sodipodi:nodetypes="cccc" id="path43556" d="M 133.44629,250.35592 C 132.37906,250.70829 130.38809,250.06586 130.69016,251.89285 L 123.88096,251.90921 L 120.3282,247.52102" style="fill:#fbc501;fill-opacity:1;fill-rule:evenodd;stroke:#000000;stroke-width:1px;stroke-linecap:butt;stroke-linejoin:miter;stroke-opacity:1"/>
      <path style="fill:#fbc501;fill-opacity:1;fill-rule:evenodd;stroke:#000000;stroke-width:1px;stroke-linecap:butt;stroke-linejoin:miter;stroke-opacity:1" d="M 135.6118,258.27772 C 132.27693,258.2128 129.02836,258.23566 127.32811,258.63777 C 126.03667,257.55152 124.91082,256.18831 123.72688,255.63957 L 123.99632,251.98462" id="path43558" sodipodi:nodetypes="cccc"/>
      <path style="fill:#fbc501;fill-opacity:1;fill-rule:evenodd;stroke:#000000;stroke-width:1px;stroke-linecap:butt;stroke-linejoin:miter;stroke-opacity:1" d="M 123.37002,255.52664 C 122.1329,256.15585 121.04404,256.78506 120.04225,257.41427 L 115.30729,257.3009 C 113.96381,255.9288 112.02041,256.18507 112.20929,250.65371 L 113.89795,247.67569" id="path43560" sodipodi:nodetypes="ccccc"/>
      <path sodipodi:nodetypes="cccccc" id="path43562" d="M 137.35747,258.55394 L 137.41095,262.92621 C 135.63816,264.1003 134.88258,265.20173 133.88474,266.32047 L 129.61645,266.46859 C 128.98755,265.47874 127.9201,264.67684 126.46632,264.04051 C 126.18764,261.93302 126.84822,260.41258 127.48766,258.87891" style="fill:#fbc501;fill-opacity:1;fill-rule:evenodd;stroke:#000000;stroke-width:1px;stroke-linecap:butt;stroke-linejoin:miter;stroke-opacity:1"/>
      <path style="fill:#fbc501;fill-opacity:1;fill-rule:evenodd;stroke:#000000;stroke-width:1px;stroke-linecap:butt;stroke-linejoin:miter;stroke-opacity:1" d="M 126.79507,264.01192 C 121.1145,264.01545 125.00697,265.06728 119.16002,265.21665 L 115.41778,261.01321 L 115.40055,257.31002" id="path43564" sodipodi:nodetypes="cccc"/>
      <path sodipodi:nodetypes="cc" id="path43566" d="M 130.52948,266.33212 C 128.96628,267.91773 127.65653,269.9056 126.93036,271.86288" style="fill:#fbc501;fill-opacity:1;fill-rule:evenodd;stroke:#000000;stroke-width:1px;stroke-linecap:butt;stroke-linejoin:miter;stroke-opacity:1"/>
      <path style="fill:#fbc501;fill-opacity:1;fill-rule:evenodd;stroke:#000000;stroke-width:1px;stroke-linecap:butt;stroke-linejoin:miter;stroke-opacity:1" d="M 112.40988,250.6211 L 106.01626,250.60968 C 105.8081,248.99519 104.89392,247.38071 103.15391,245.76623 L 104.10895,240.58254" id="path43568" sodipodi:nodetypes="cccc"/>
      <path sodipodi:nodetypes="ccccc" id="path43570" d="M 90.13601,249.0301 C 89.56866,247.33544 89.29044,245.84731 87.95523,243.60418 C 86.82816,243.60553 85.24356,242.69182 83.53169,241.52358 C 81.74138,241.82106 81.04111,243.70111 80.59305,244.5064 C 80.83172,247.48573 81.07733,249.49308 81.12798,251.80786" style="fill:#fbc501;fill-opacity:1;fill-rule:evenodd;stroke:#000000;stroke-width:1px;stroke-linecap:butt;stroke-linejoin:miter;stroke-opacity:1"/>
      <path style="fill:#fbc501;fill-opacity:1;fill-rule:evenodd;stroke:#000000;stroke-width:1px;stroke-linecap:butt;stroke-linejoin:miter;stroke-opacity:1" d="M 86.86564,252.16789 L 81.14521,251.86502 L 79.18344,254.68048" id="path43572" sodipodi:nodetypes="ccc"/>
      <path style="fill:#fbc501;fill-opacity:1;fill-rule:evenodd;stroke:#000000;stroke-width:1px;stroke-linecap:butt;stroke-linejoin:miter;stroke-opacity:1" d="M 111.17243,269.80136 C 109.6232,268.22726 108.6605,266.65317 106.38007,265.07907 L 108.04223,260.95604" id="path43574" sodipodi:nodetypes="ccc"/>
      <path sodipodi:nodetypes="cccc" id="path43576" d="M 115.37087,261.00672 L 108.02852,260.94485 C 107.07211,259.35196 107.39428,257.93342 104.08197,256.01927 L 106.00929,250.83558" style="fill:#fbc501;fill-opacity:1;fill-rule:evenodd;stroke:#000000;stroke-width:1px;stroke-linecap:butt;stroke-linejoin:miter;stroke-opacity:1"/>
      <path style="fill:#fbc501;fill-opacity:1;fill-rule:evenodd;stroke:#000000;stroke-width:1px;stroke-linecap:butt;stroke-linejoin:miter;stroke-opacity:1" d="M 121.2487,272.32043 L 117.07506,269.54269 L 118.95818,265.15449" id="path43578" sodipodi:nodetypes="ccc"/>
      <path sodipodi:nodetypes="ccc" id="path43580" d="M 117.31542,269.75717 L 110.93207,269.80785 L 108.2632,274.30269" style="fill:#fbc501;fill-opacity:1;fill-rule:evenodd;stroke:#000000;stroke-width:1px;stroke-linecap:butt;stroke-linejoin:miter;stroke-opacity:1"/>
      <path sodipodi:nodetypes="cccc" id="path43582" d="M 101.89166,274.22077 C 100.59558,272.50165 100.15585,271.53183 97.98044,269.04328 C 98.79355,267.76607 99.28527,266.48886 99.75095,265.21165 L 106.80479,265.19868" style="fill:#fbc501;fill-opacity:1;fill-rule:evenodd;stroke:#000000;stroke-width:1px;stroke-linecap:butt;stroke-linejoin:miter;stroke-opacity:1"/>
      <path style="fill:#fbc501;fill-opacity:1;fill-rule:evenodd;stroke:#000000;stroke-width:1px;stroke-linecap:butt;stroke-linejoin:miter;stroke-opacity:1" d="M 104.01298,255.79181 L 97.8948,255.62152 L 95.27843,259.79489 C 97.66314,261.88795 98.77967,263.69237 99.86631,265.33127" id="path43584" sodipodi:nodetypes="cccc"/>
      <path sodipodi:nodetypes="ccc" id="path43586" d="M 98.22355,269.05006 C 95.25508,268.71291 93.8949,269.1799 88.61402,267.68653 L 83.2493,270.19263" style="fill:#fbc501;fill-opacity:1;fill-rule:evenodd;stroke:#000000;stroke-width:1px;stroke-linecap:butt;stroke-linejoin:miter;stroke-opacity:1"/>
      <path sodipodi:nodetypes="cccc" id="path43588" d="M 80.59007,259.85767 L 79.20066,254.69345 C 77.103,254.61211 75.37259,254.52828 72.74956,252.7441 L 70.91912,256.31566" style="fill:#fbc501;fill-opacity:1;fill-rule:evenodd;stroke:#000000;stroke-width:1px;stroke-linecap:butt;stroke-linejoin:miter;stroke-opacity:1"/>
      <path style="fill:#fbc501;fill-opacity:1;fill-rule:evenodd;stroke:#000000;stroke-width:1px;stroke-linecap:butt;stroke-linejoin:miter;stroke-opacity:1" d="M 87.19709,262.11158 C 85.10385,261.30086 83.00112,260.501 80.50438,260.15143 C 78.90722,261.58558 78.7471,262.62056 78.12277,263.78448" id="path43590" sodipodi:nodetypes="ccc"/>
      <path sodipodi:nodetypes="cccc" id="path43592" d="M 96.10222,249.11849 L 89.71887,249.03659 C 89.07557,250.07768 88.15195,251.11877 87.03764,252.15985 C 88.15659,256.21983 89.55217,257.65186 90.89489,259.58603" style="fill:#fbc501;fill-opacity:1;fill-rule:evenodd;stroke:#000000;stroke-width:1px;stroke-linecap:butt;stroke-linejoin:miter;stroke-opacity:1"/>
      <path style="fill:#fbc501;fill-opacity:1;fill-rule:evenodd;stroke:#000000;stroke-width:1px;stroke-linecap:butt;stroke-linejoin:miter;stroke-opacity:1" d="M 95.21833,259.76928 L 90.64694,259.68739 C 89.937,260.46501 88.75372,261.24263 86.98339,262.02025 C 89.41011,265.88952 88.17487,265.91375 88.5084,267.58517" id="path43594" sodipodi:nodetypes="cccc"/>
      <path sodipodi:nodetypes="ccc" id="path43596" d="M 98.24563,245.64925 C 97.3111,246.78426 96.59167,248.00531 95.95024,249.25756 C 96.7601,251.59127 97.26485,253.49782 97.78917,255.43178" style="fill:#fbc501;fill-opacity:1;fill-rule:evenodd;stroke:#000000;stroke-width:1px;stroke-linecap:butt;stroke-linejoin:miter;stroke-opacity:1"/>
      <path style="fill:#fbc501;fill-opacity:1;fill-rule:evenodd;stroke:#000000;stroke-width:1px;stroke-linecap:butt;stroke-linejoin:miter;stroke-opacity:1" d="M 72.68471,252.98359 L 72.2856,244.31769 C 73.32829,243.4313 74.07108,243.10859 75.51028,242.01859 L 80.81181,244.56336" id="path43598" sodipodi:nodetypes="cccc"/>
      <path sodipodi:nodetypes="cc" id="path43600" d="M 67.77916,243.87959 L 72.45911,244.2982" style="fill:#fbc501;fill-opacity:1;fill-rule:evenodd;stroke:#000000;stroke-width:1px;stroke-linecap:butt;stroke-linejoin:miter;stroke-opacity:1"/>
      <path style="fill:#fbc501;fill-opacity:1;fill-rule:evenodd;stroke:#000000;stroke-width:1px;stroke-linecap:butt;stroke-linejoin:miter;stroke-opacity:1" d="M 75.42475,242.11182 L 75.55596,235.30208 L 69.40971,234.26612" id="path43602" sodipodi:nodetypes="ccc"/>
      <path sodipodi:nodetypes="cccc" id="path43604" d="M 83.3797,241.22794 L 83.48164,236.089 C 82.0694,236.19553 80.69557,235.57228 79.40085,233.44593 L 75.33173,235.32678" style="fill:#fbc501;fill-opacity:1;fill-rule:evenodd;stroke:#000000;stroke-width:1px;stroke-linecap:butt;stroke-linejoin:miter;stroke-opacity:1"/>
      <path style="fill:#fbc501;fill-opacity:1;fill-rule:evenodd;stroke:#000000;stroke-width:1px;stroke-linecap:butt;stroke-linejoin:miter;stroke-opacity:1" d="M 96.06343,240.16728 L 90.89134,240.16345 C 89.3318,240.17782 88.75402,242.15572 87.83868,243.45852" id="path43606" sodipodi:nodetypes="ccc"/>
      <path sodipodi:nodetypes="ccc" id="path43608" d="M 98.49411,230.79811 C 96.60306,229.86079 94.66783,230.29319 92.6591,233.00399 L 92.56746,240.01136" style="fill:#fbc501;fill-opacity:1;fill-rule:evenodd;stroke:#000000;stroke-width:1px;stroke-linecap:butt;stroke-linejoin:miter;stroke-opacity:1"/>
      <path style="fill:#fbc501;fill-opacity:1;fill-rule:evenodd;stroke:#000000;stroke-width:1px;stroke-linecap:butt;stroke-linejoin:miter;stroke-opacity:1" d="M 92.61629,233.31718 C 91.58933,233.11372 90.5578,232.89198 89.30035,231.76655 C 86.61776,233.30034 85.13156,234.7012 83.46346,236.12227" id="path43610" sodipodi:nodetypes="ccc"/>
      <path sodipodi:nodetypes="ccc" id="path43612" d="M 101.89706,220.36828 L 97.56466,224.34192 C 97.64974,228.40625 96.43368,228.37311 96.36815,230.15606" style="fill:#fbc501;fill-opacity:1;fill-rule:evenodd;stroke:#000000;stroke-width:1px;stroke-linecap:butt;stroke-linejoin:miter;stroke-opacity:1"/>
      <path style="fill:#fbc501;fill-opacity:1;fill-rule:evenodd;stroke:#000000;stroke-width:1px;stroke-linecap:butt;stroke-linejoin:miter;stroke-opacity:1" d="M 97.56603,224.38995 L 93.10105,224.34192 L 93.0094,220.25656" id="path43614" sodipodi:nodetypes="ccc"/>
      <path sodipodi:nodetypes="cc" id="path43616" d="M 83.86447,225.3142 L 83.81701,220.74271" style="fill:#fbc501;fill-opacity:1;fill-rule:evenodd;stroke:#000000;stroke-width:1px;stroke-linecap:butt;stroke-linejoin:miter;stroke-opacity:1"/>
      <path style="fill:#fbc501;fill-opacity:1;fill-rule:evenodd;stroke:#000000;stroke-width:1px;stroke-linecap:butt;stroke-linejoin:miter;stroke-opacity:1" d="M 89.30172,231.7262 L 90.36101,225.3142 C 92.56506,225.20367 92.70653,224.68062 93.23037,224.23405" id="path43618" sodipodi:nodetypes="ccc"/>
      <path style="fill:#fbc501;fill-opacity:1;fill-rule:evenodd;stroke:#000000;stroke-width:1px;stroke-linecap:butt;stroke-linejoin:miter;stroke-opacity:1" d="M 79.22408,233.57851 L 79.57212,228.43235 C 80.84474,227.07338 82.17559,225.81631 83.91329,225.27121 L 90.40194,225.29471" id="path43620" sodipodi:nodetypes="cccc"/>
      <path style="fill:#fbc501;fill-opacity:1;fill-rule:evenodd;stroke:#000000;stroke-width:1px;stroke-linecap:butt;stroke-linejoin:miter;stroke-opacity:1" d="M 79.48925,228.27521 L 74.8014,226.35537" id="path43622" sodipodi:nodetypes="cc"/>
    </g>
    <path style="fill:#fbc501;fill-opacity:1;fill-rule:evenodd;stroke:#000000;stroke-width:1px;stroke-linecap:butt;stroke-linejoin:miter;stroke-opacity:1" d="M 76.64347,208.21858 L 94.43351,208.21858 C 107.55131,218.4146 116.51467,219.31174 116.04271,232.25975 L 125.16214,232.25975 C 126.80896,230.75821 127.71566,228.44861 128.00841,225.73512 L 137.07451,225.73512 C 139.74489,225.73512 140.55259,219.27715 136.45741,216.15038 C 142.15863,221.05692 149.41963,219.43397 149.34793,219.41087 C 145.84367,218.28185 138.03658,206.11796 137.16253,199.49982 C 125.33015,195.93699 113.59355,186.60104 110.73639,184.7065 C 106.2432,184.7065 98.90713,194.08713 96.10992,194.08713 L 81.41851,194.08713 L 81.41851,196.11648 L 73.33189,196.11648 C 73.22119,195.32379 70.32284,192.57305 70.34766,192.55374 C 80.05153,185.0034 58.27897,176.1917 65.59283,192.30094 C 58.13494,179.18114 44.31661,199.26299 61.74562,198.86481 C 42.9171,201.26218 61.25134,222.55403 65.03764,205.17128 L 64.85662,212.51136 C 71.09306,218.47625 81.13125,210.82721 74.4937,202.06593" id="path24016" sodipodi:nodetypes="ccccsscscccccccccccc"/>
    <path style="fill:#fbc501;fill-opacity:1;stroke:#000000;stroke-width:1;stroke-linecap:round;stroke-linejoin:round;stroke-miterlimit:4;stroke-opacity:1" d="M 80.73606,174.15633 C 92.42856,182.25195 102.38509,173.89086 106.92356,170.34383 L 112.36106,171.59383 L 110.75108,174.99816 C 107.63097,179.00787 100.09537,183.4954 95.83217,185.88909 L 84.63126,185.90526 C 82.4647,183.83659 80.63738,181.47348 78.48606,178.28133 L 80.73606,174.15633 z " id="rect36706" sodipodi:nodetypes="cccccccc"/>
    <g id="g24011" transform="translate(240.11262,0)">
      <path style="fill:#fbc501;fill-opacity:1;stroke:#000000;stroke-width:0.99999988;stroke-linecap:round;stroke-linejoin:round;stroke-miterlimit:4;stroke-dasharray:none;stroke-opacity:1" d="M -137.29519,123.21883 C -139.16018,123.21883 -140.01918,124.15334 -139.23269,125.31258 L -137.9202,127.28133 C -137.13372,128.44057 -135.00394,129.37508 -133.13895,129.37508 L -129.38895,129.37508 L -127.13895,129.37508 L -123.38895,129.37508 C -121.52397,129.37508 -119.39418,128.44057 -118.6077,127.28133 L -117.2952,125.31258 C -116.50871,124.15334 -117.36772,123.21883 -119.2327,123.21883 L -125.20145,123.21883 C -126.22719,123.21883 -127.34425,123.52188 -128.26394,123.96883 C -129.18364,123.52188 -130.30071,123.21883 -131.32645,123.21883 L -137.29519,123.21883 z " id="rect23007"/>
      <path style="fill:#fbc501;fill-opacity:1;stroke:#000000;stroke-width:0.99999982;stroke-linecap:round;stroke-linejoin:round;stroke-miterlimit:4;stroke-dasharray:none;stroke-opacity:1" d="M -130.10769,119.21883 L -132.85769,123.21883 L -128.26394,129.87508 L -123.67019,123.21883 L -126.42019,119.21883 C -127.0557,118.1181 -129.47487,118.12276 -130.10769,119.21883 z " id="rect23016" sodipodi:nodetypes="cccccc"/>
      <rect style="fill:#fbc501;fill-opacity:1;stroke:#000000;stroke-width:1;stroke-linecap:round;stroke-linejoin:round;stroke-miterlimit:4;stroke-dasharray:none;stroke-opacity:1" id="rect22036" width="18.119612" height="3.2261746" x="-137.32376" y="128.31367"/>
    </g>
    <path style="fill:none;fill-opacity:0.75;fill-rule:evenodd;stroke:#000000;stroke-width:1px;stroke-linecap:butt;stroke-linejoin:miter;stroke-opacity:1" d="M 94.40022,208.22387 L 110.10302,208.22387 L 118.97976,201.53983 L 126.97433,209.49622 L 124.29222,211.66788 L 116.33255,203.749" id="path25962" sodipodi:nodetypes="cccccc"/>
    <g id="g39625" style="stroke:#000000;stroke-opacity:1" transform="translate(260,0)">
      <path sodipodi:nodetypes="cc" transform="translate(0.3610553,-0.4061684)" id="path38650" d="M -119.14749,192.84559 C -111.10348,192.95739 -94.415665,182.80503 -95.061672,168.00847" style="fill:none;fill-opacity:0.75;fill-rule:evenodd;stroke:#000000;stroke-width:1px;stroke-linecap:butt;stroke-linejoin:miter;stroke-opacity:1"/>
      <path style="fill:none;fill-opacity:0.75;fill-rule:evenodd;stroke:#000000;stroke-width:1px;stroke-linecap:butt;stroke-linejoin:miter;stroke-opacity:1" d="M -121.13891,206.68744 C -111.33703,203.91788 -95.100843,203.05494 -85.362104,213.38142" id="path39621" sodipodi:nodetypes="cc"/>
      <path style="fill:none;fill-opacity:0.75;fill-rule:evenodd;stroke:#000000;stroke-width:1px;stroke-linecap:butt;stroke-linejoin:miter;stroke-opacity:1" d="M -87.055023,204.19507 C -95.030822,199.08365 -97.17259,197.62615 -111.93913,197.65564 C -102.29267,194.70734 -91.480391,184.18612 -90.546364,177.19244" id="path39623" sodipodi:nodetypes="ccc"/>
    </g>
    <path style="fill:#fbc501;fill-opacity:1;stroke:#000000;stroke-width:1;stroke-linecap:round;stroke-linejoin:round;stroke-miterlimit:4;stroke-opacity:1" d="M 127.36106,134.84383 L 127.36106,142.65633 C 122.33851,146.68546 117.17539,142.60081 119.32981,145.68758 C 126.65442,153.09282 137.34217,168.78133 141.86105,168.78133 L 147.79855,168.65633 C 149.88739,166.56748 152.3923,166.35577 152.3923,162.00008 L 152.2673,161.90633 L 153.7673,161.90633 L 157.92355,157.75008 L 157.92355,155.09383 L 154.0173,155.09383 L 133.76731,134.84383 L 127.36106,134.84383 z " id="rect25964"/>
    <path style="fill:#000000;fill-opacity:0;fill-rule:evenodd;stroke:#000000;stroke-width:1px;stroke-linecap:butt;stroke-linejoin:miter;stroke-opacity:1" d="M 127.17356,142.65633 L 145.25544,161.90633 L 152.79855,161.90633" id="path27921" sodipodi:nodetypes="ccc"/>
    <path style="fill:#fbc501;fill-opacity:1;stroke:#000000;stroke-width:1;stroke-linecap:round;stroke-linejoin:round;stroke-miterlimit:4;stroke-opacity:1" d="M 119.06038,156.46539 C 123.7389,164.87531 130.03692,170.99094 137.54249,175.39588 L 145.75366,175.29211 C 140.48631,187.0855 140.62011,195.17176 143.8329,200.12924 L 137.67672,200.23977 C 129.98381,195.1331 120.57752,193.88291 110.59889,184.13095 C 110.59607,172.87003 114.41624,167.05128 119.06038,156.46539 z " id="rect31829" sodipodi:nodetypes="ccccccc"/>
    <g id="g32807" style="stroke:#000000;stroke-opacity:1" transform="translate(260,0)">
      <path sodipodi:nodetypes="ccc" transform="translate(0.3610553,-0.4061684)" id="path32801" d="M -135.0574,165.79876 C -137.48939,169.45069 -140.12697,174.96652 -141.90408,179.97571 L -141.95168,190.63589" style="fill:none;fill-opacity:0.75;fill-rule:evenodd;stroke:#000000;stroke-width:1px;stroke-linecap:butt;stroke-linejoin:miter;stroke-opacity:1"/>
      <path style="fill:none;fill-opacity:0.75;fill-rule:evenodd;stroke:#000000;stroke-width:1px;stroke-linecap:butt;stroke-linejoin:miter;stroke-opacity:1" d="M -128.42077,171.18203 C -130.85276,174.83396 -132.56226,178.62622 -134.33937,183.63541 L -134.38697,194.29559" id="path32803" sodipodi:nodetypes="ccc"/>
      <path sodipodi:nodetypes="ccc" id="path32805" d="M -122.05681,175.42468 C -124.17944,179.38596 -125.53539,182.82467 -126.82636,186.0219 L -126.87396,197.74274" style="fill:none;fill-opacity:0.75;fill-rule:evenodd;stroke:#000000;stroke-width:1px;stroke-linecap:butt;stroke-linejoin:miter;stroke-opacity:1"/>
    </g>
    <path sodipodi:type="arc" style="fill:#00468c;fill-opacity:1;stroke:#000000;stroke-width:1.02829134;stroke-linecap:round;stroke-linejoin:round;stroke-miterlimit:4;stroke-dasharray:none;stroke-opacity:1" id="path35724" sodipodi:cx="-143.01234" sodipodi:cy="138.84032" sodipodi:rx="1.9445436" sodipodi:ry="1.9445436" d="M -144.95686,138.82927 A 1.9445436,1.9445436 0 1 1 -144.95689,138.84032" transform="matrix(1.1818182,0.4340157,0,0.8002339,275.93347,88.338355)" sodipodi:start="3.1472726" sodipodi:end="9.424778" sodipodi:open="true"/>
  </g>
</svg>