<svg version="1.2" xmlns="http://www.w3.org/2000/svg" viewBox="0 0 612 802" width="612" height="802">
	<title>Slivo-Pole-pdf</title>
	<style>
		.s0 { fill: #d6edfa;stroke: #2c2e35;stroke-width: 1.1 } 
		.s1 { fill: #c4a159 } 
		.s2 { fill: #30216b } 
		.s3 { fill: #8c2926 } 
	</style>
	<path id="Path 1" class="s0" d="m5.7 7.4c-3.9 0.2 88.1 0.4 88.1 0.4l-1.1 50 84 0.6 0.6-48 85.8-2.4 1.2 49.2 54 1.2 27.6 1.2 1.2-49.2 88.2-1.8 2.4 48 82.8 1.8-2.4-50.4h86.9l-12.5 154.2-573.4 2z"/>
	<path id="Path 2" class="s0" d="m20.1 190.4l573.6 1.2-7.2 415.2c0 0-48.2 98.8-92.4 113.4-44.2 14.7-166.8 73.8-183.6 70.8-16.8-3-168.6-51.6-193.8-72-25.2-20.4-86.8-73.8-94.8-136.8-8-63-1.6-113.3-1.6-113.3z"/>
	<path id="Path 3" fill-rule="evenodd" class="s1" d="m1.4 0.6q49.4 0 98.9 0c0.9 18-2.5 34.3-1 51.3 5.2 1.7 11.1 1 16.8 1 17.1 0 35.8 0 53.3 0 1.7-7.6 0.9-16.8 0.9-25.9 0-9-0.3-18.4 0.5-26.4q49.9 0 99.9 0c-0.1 0.4 0.2 0.4 0.4 0.4 1.4 16.1-0.4 35.4 1 51.4 21.8 1.1 45.6 0.2 68.2 0.5 2.5-7.1 1.4-16.3 1.4-25.5 0-8.9 0-18.4 0-26.8q50.2 0 100.3 0c-0.1 0.4 0.2 0.4 0.5 0.4 0.3 17-0.6 35.2 0.5 51.4 22.4 0.8 48.1 0.8 70.5 0 1.4-7.1 0.5-16.1 0-25-0.5-8.8-1.3-18-0.9-26.8q49.2 0 98.4 0 0 15.8 0 31.6c-0.3 0.2-0.9-1.1-1-0.9-1.7 2.6-1.1 11.5-1.4 17.3-1 18-3.1 35.6-4.3 51.8-0.9 11.8-2.4 23.4-2.9 34.6-0.6 12.1-0.9 23.9-3.4 34.5-190.9-0.3-391.2 0.6-583.7-0.5-4.8-56.3-10-111.9-12.9-168.4zm12.9 13.9c0.4 17.4 3.2 36 4.4 52.8 0.4 6.3 0.2 12.5 0.9 18.7 2.7 24.1 2.7 48.5 6.7 71 185.8 0.8 374.9 0.8 560.7 0 2.4-11.5 2-23.5 3.3-35.5 2.1-18.4 3-35.8 4.4-54.2 1.3-18.6 3.4-36.6 3.8-54.3-21 0-43.9 0-64.3 0-3.2 0-7.2-0.8-8.7 1-0.8 15.5 2.8 35.5 0.5 50.9-30.3 0.8-66.6 0.8-95 0-2.2-15.3-0.4-34.5-1-51.4-24.3-0.8-52-0.8-76.3 0-0.6 16.9 1.2 36.1-1 51.4-22.3 0.9-48.1 0.5-71 0.5-7.8 0-15.6 0.7-22.1-1-1.1-16-0.1-34.1-0.5-50.9-24.3-1.1-50.7-0.1-75.8-0.5-1.7 16.1 1.1 36.6-1.4 51.9-26.5 0.7-58.4 0.7-85.5 0.5-3.6-0.1-7.1 0.4-9.6-1-1.7-3.6-0.5-7.9-0.5-12 0.3-13.9 1.1-26.5 1.5-38.9-23.4-1.1-48.8-0.1-73-0.5-0.5 0.1-0.5 0.8-0.5 1.5zm0.5 168c194.9 0.3 391.1-0.7 585.1 0.5 0.9 110.7 0.5 228.4 0.5 341.2 0 28.1-1.6 55.2-7.2 78.3-1.9 7.7-4.7 14.7-6.2 22.1-6.1 13.3-11.5 26.4-19.2 37.9-7.6 11.2-16.7 21.1-26.4 30.2-38.6 36.5-93.4 58.3-148.8 78.7-10.3 3.8-21 7.7-31.7 11.6-14.9 5.3-31.5 11.4-47 16.8-2.6 0.8-4.4 2.1-8.2 1.9-2.7-0.2-6.7-2.5-10.6-3.9-20.7-7.4-42.2-14.3-62.8-22.5-3.4-1.4-6.9-2.7-10.1-3.9-29.1-10-55.1-20.8-80.7-33.1-51.7-24.9-94.2-58.3-113.7-113.7-11.4-27.8-13.9-62.3-13.9-99.9 0-112.1 0-229 0-340.8-0.1-0.8 0.3-1.2 0.9-1.4zm462.3 502.5c-16.7-1.5-32.6-3.5-48.5-6.2-7.4-1.3-14.8-3.7-22.1-5.3-20.6-4.5-40-10.6-60-14.9-1.9-0.4-4-1-5.8-1.4-13-2.5-30.7-3.5-44.6-2.9-16.3 0.8-31.3 4.2-44.2 7.2-2.5 0.6-4.3 1.6-5.7 1.9-4 1.1-8 1.8-12 2.9-5.9 1.7-12.3 3.5-17.3 4.8-31.9 8.3-71.1 17.9-110.9 13-4.5-0.6-9.4-0.3-13.9-1-2.8-0.4-5.7-2.8-10.1-1.4 0.7 2.1 2.8 3.4 4.3 4.8 8.1 7.4 16.9 13.6 26 19.7 3.6 2.4 7.5 5.6 11.5 6.7 5.7 1.5 14.8 0.4 22.5 0 15.6-0.9 28.9-3 41.8-5.3 5.1-0.9 12-2.4 16.3-3.8 2.4-0.8 5-0.8 7.7-1.5 4.1-1.1 8.7-3 13.4-4.3 15.6-4.4 31-9.1 46.6-12 3.3-0.6 6.5-1.8 9.6-2.4 4.5-0.8 9.2-0.8 13.9-1.4 5-0.7 10.2-1.3 14.9-1 11.7 0.8 23.3 3 34.1 5.8 21.8 5.6 42.5 10.9 64.3 15.8 2.6 0.6 5.1 1.9 7.7 2.4 11.5 2.3 22 3.6 33.6 5.3 7 1 14.6 2 23 2.4 5.7 0.2 12 1.3 16.3 0.5 3.1-0.6 7.6-4 11.1-6.3 9.1-6 17.6-12 24.9-18.7 1.2-1.1 4.7-3.4 2.9-4.3-18 0.9-35 2.5-51.3 0.9zm-447.4-489.1c-1 0-2 1-2.4 1-1.7 74.4-1 156.1-1 233.7 0 29.1-0.9 59.4 0 87.9 0.4 9.9-0.2 20 0.5 29.3 2.9 37.1 9.1 69.2 23.5 94 2.8 1.3 5.4 2.2 8.2 2.9 1.3 0.4 2.6 0.1 3.8 0.5 5.4 1.7 12.5 3.4 18.8 4.3 21.2 3.1 44.7 5.8 68.6 3.4 21.9-2.2 44.7-6 65.8-12.5 1.1-0.4 2.6-0.6 3.8-1 7.6-1.9 14.8-3.7 22.1-5.7 20.2-5.6 40-11.3 62.4-11.5 28.3-0.3 54 8.4 77.7 14.4 5.2 1.3 10.3 2.1 15.4 3.3 10 2.4 19.6 5.5 29.8 7.2 43 7.3 88.8 10.4 133.4 0 15.4-23.9 24.4-56 26.4-93.1 2-37.2 0.5-79 0.5-119 0-79.3 0.4-161.8-0.5-238.6-180.9-0.9-376.5-0.5-556.8-0.5zm350.4 531.4c-16-4.2-31.3-8.1-47.5-11.1-53.3-9.8-99.5 15.1-151.2 23.6 1.7 3.6 6.3 4.2 10.1 5.7 7.8 3.1 17.4 7.1 25.4 10.1 1 0.4 2 0.6 2.9 1 6.2 2.3 8.2 1.4 14.4-0.5 9.9-3 20-5.7 29.7-8.2 17.4-4.4 38.9-8 59.1-4.8 3.1 0.5 6.5 0.4 9.6 1 5.2 0.9 11.7 3.3 15.8 4.3 2 0.5 3.9 0.5 5.8 1 7.3 1.8 14.2 3.7 21.1 5.7 3.8 1.1 7.7 3.1 10.6 3.4 5.9 0.5 9.8-2.4 14.8-4.3 7.9-3 15.9-5.9 23.1-8.7 3.9-1.5 7.9-3.2 10.1-5.7-18.5-2.7-37.7-8.3-53.8-12.5z"/>
	<path id="Path 4" fill-rule="evenodd" class="s2" d="m380.1 727.3c-16-4.2-31.3-8.1-47.5-11.1-53.3-9.8-99.5 15.1-151.2 23.6 1.7 3.6 6.3 4.2 10.1 5.7 7.2 2.9 15.8 6.4 23.3 9.3-30.6-10.8-58-22.3-89.9-41.7 5.8 1.2 14.2 0.2 21.4-0.2 15.6-0.9 28.9-3 41.8-5.3 5.1-0.9 12-2.4 16.3-3.8 2.4-0.8 5-0.8 7.7-1.5 4.1-1.1 8.7-3 13.4-4.3 15.6-4.4 31-9.1 46.6-12 3.3-0.6 6.5-1.8 9.6-2.4 4.5-0.8 9.2-0.8 13.9-1.4 5-0.7 10.2-1.3 14.9-1 11.7 0.8 23.3 3 34.1 5.8 21.8 5.6 42.5 10.9 64.3 15.8 2.6 0.6 5.1 1.9 7.7 2.4 11.5 2.3 22 3.6 33.6 5.3 7 1 14.6 2 23 2.4 5.7 0.2 12 1.3 16.3 0.5q1.5-0.3 2.7-0.9c-39.2 24.1-80 37.7-97.4 44.3 1.9-0.9 3.8-1.8 5.9-2.6 7.9-3 15.9-5.9 23.1-8.7 3.9-1.5 7.9-3.2 10.1-5.7-18.5-2.7-37.7-8.3-53.8-12.5zm118.8-19c5.9-3.8 11.8-7.9 17.5-12.3-5.2 3.8-10.3 7.4-15.8 11.1q-0.9 0.6-1.7 1.2zm-6.7 4.2c2.5-1 4.6-2.6 6.7-4.2q-3.3 2.2-6.7 4.2zm-186.6 73.8c0 0 67.1-20.8 86.9-28.6-2 0.6-4.2 1-6.6 0.8-2.9-0.3-6.8-2.3-10.6-3.4-6.9-2-13.8-3.9-21.1-5.7-1.9-0.5-3.8-0.5-5.8-1-4.1-1-10.6-3.4-15.8-4.3-3.1-0.6-6.5-0.5-9.6-1-20.2-3.2-41.7 0.4-59.1 4.8-9.7 2.5-19.8 5.2-29.7 8.2-5.5 1.7-7.7 2.6-12.5 1.1 24.5 8.5 51.2 17 83.9 29.1zm-257.5-148.5c0 0 16.1 33.5 42.9 52.8q-2.4-2-4.7-4.1c-1.5-1.4-3.6-2.7-4.3-4.8 4.4-1.4 7.3 1 10.1 1.4 4.5 0.7 9.4 0.4 13.9 1 39.8 4.9 79-4.7 110.9-13 5-1.3 11.4-3.1 17.3-4.8 4-1.1 8-1.8 12-2.9 1.4-0.3 3.2-1.3 5.7-1.9 12.9-3 27.9-6.4 44.2-7.2 13.9-0.6 31.6 0.4 44.6 2.9 1.8 0.4 3.9 1 5.8 1.4 20 4.3 39.4 10.4 60 14.9 7.3 1.6 14.7 4 22.1 5.3 15.9 2.7 31.8 4.7 48.5 6.2 16.3 1.6 33.3 0 51.3-0.9 0.9 0.5 0.4 1.3-0.5 2.2 13.7-12.6 36.8-38 48.3-73.8-4.8 12.9-9.5 24.4-16.1 34.6-44.6 10.4-90.4 7.3-133.4 0-10.2-1.7-19.8-4.8-29.8-7.2-5.1-1.2-10.2-2-15.4-3.3-23.7-6-49.4-14.7-77.7-14.4-22.4 0.2-42.2 5.9-62.4 11.5-7.3 2-14.5 3.8-22.1 5.7-1.2 0.4-2.7 0.6-3.8 1-21.1 6.5-43.9 10.3-65.8 12.5-23.9 2.4-47.4-0.3-68.6-3.4-6.3-0.9-13.4-2.6-18.8-4.3-1.2-0.4-2.5-0.1-3.8-0.5-2.8-0.7-5.4-1.6-8.2-2.9q-1.1-2-2.2-4zm477.4 50.6q-1.8 1.7-3.8 3.3c1.5-1.2 3.3-2.7 5.3-4.5-0.6 0.5-1.1 0.9-1.5 1.2zm1.5-1.2q0.5-0.4 0.9-0.9-0.4 0.5-0.9 0.9z"/>
	<path id="Path 5" class="s1" d="m551.9 257.8c4.6 0.3 10.2-0.6 14 0.5 1.7 6.5 0.9 13.9 0.9 21.1 0 35.4 0 73.7 0 110 0 15.2 1.2 30.5 0 43.6-0.7 7.8-3.4 13.7-7.7 18.3-7.3 7.8-19.6 12.5-33.6 14.4-1.7-5.8-0.9-13.3-0.9-20.7 0-13.4-1-25 6.7-30.2 4.6-3.1 10-1.8 13.9-4.8 2.7-2 3-3.9 5.3-8.2 0.3-47.3-0.6-96 0.5-142.5 0-0.8 0.3-1.3 0.9-1.5zm-45.6 51.4c5.6 0.5 13.4-1.2 16.8 1.4 2.4 9.9-1.5 22.1 0.5 32.7 0.6 3 3.4 5.7 5.3 9.1 2.8 4.7 4.1 8.7 5.8 15.4 2.2 9.1 1.1 19.8-3.4 27.3-2 3.4-5 6.8-8.2 9.1-5.4 4.1-9.4 4.1-15.3 0-4.1-2.8-6.8-5.2-9.6-9.6-9.3-14.3-0.5-38.4 6.7-50.4 0.7-11.5-1.4-22.8 0-33.6q0.4-1 1.4-1.4zm-40.3 31.7c4 0.3 10.3-0.5 13.9 0.9 1 5.1 0.5 10.3 0.5 15.4 0 11.1 0 21.5 0 32.2 0 9.6 0.2 19.7 7.2 22.5 3.7 1.5 7.9 0.2 12 2.9 4 2.6 6.2 8.9 6.7 15.8 0.9 10.8-0.8 25.3-1.4 35.1-8.8-0.3-17.4-5.1-25.4-7.7-3.8-3.2-9.7-6.8-12.5-12.5-5.7-11.6-2.9-38.2-2.9-56.1 0-17.4-0.4-35 0.5-47.6 0.3-0.4 0.9-0.7 1.4-0.9zm100.8 127.7c-0.3 14.2 0.7 28.6-1.9 38.8-2.8 11.1-13.7 14.2-23.5 19.2-5.6 2.9-10.9 6.2-16.3 8.2-1.7-5.7-1-12.8-1-19.7 0-8-1.3-17.5 0.5-23.5 0.1-0.5 2.1-4.2 2.9-5.3 3.4-4.8 10.3-7 15.8-9.6 3.4-2.1 5-6.2 8.2-8.6 5.9 0.4 11-1 15.3 0.5zm-62.4 65.7c-3.2-0.5-6.1-2.3-9.1-3.8-5.7-2.9-11.8-5.7-18.2-9.1-5.7-3.1-9.2-5.9-11.6-12.5-3-8.9-2.2-26.8-2.4-39.9 1.2-0.9 12.2-1.8 14.9-0.9 3.6 1.1 5.1 7.4 8.7 9.1 8.4 2.1 14.4 6.7 18.2 13.4 0.9 4.5 0.8 9.7 0.5 14.9-0.6 9.7 1.2 20.5-1 28.8z"/>
	<path id="Path 6" class="s3" d="m326.3 529c1.1 4.6 0.3 9.3 0.5 13.5 0.1 2-0.1 5.2 0.5 6.7 2.2 5.3 10.2 2.2 14.4 5.8 6-4.7 8.2-13.2 13-19.2 3.6-0.1 6.6 2.3 9.6 3.8 2.8 1.5 5.8 2.9 8.6 4.3 5.6 2.9 11.4 5.7 16.3 9.6-2.5 7.1-5.9 13.3-8.6 20.2 0.9 2.4 3.1 3.8 5.3 5.7 4.3 3.9 5.3 6.2 11.5 2.4 0.7-0.4 1.1-1.4 1.9-1.9 1-0.6 2.2-0.5 2.9-0.9 3.3-2.1 6.1-5.1 9.6-5.8 2.1 1.8 4.3 4.5 6.2 7.2 3.6 5.1 6.4 9.5 10.6 15.4 1.5 2.1 4.9 6.3 4.8 8.1-0.2 3-5.8 6.2-8.2 8.2-3.5 2.8-6.4 4.2-8.6 7.2 0 2.8 2.7 5.1 0.9 8.1-3.6-1-3.7-5.5-5.7-8.1 4-6.2 11.2-9.3 16.3-14.4-0.3-6.3-5.2-10.2-8.2-14.4-2.9-4.3-5.1-9.4-9.6-12.5-4.7 2.2-8.8 5.6-13.9 8.6-1.5 1-3.9 2.5-4.8 2.4-2.5-0.1-5.8-5-7.7-6.7-2.9-2.6-5.7-4-7.6-6.7 1.8-7.6 5.7-13.1 8.1-20.2-2.9-4.1-8.1-4.8-13.4-7.6-0.5-0.3-0.9-1.1-1.5-1.5-0.4-0.3-1.3-0.1-1.9-0.5-2.4-1.4-3.3-2.2-6.7-3.8-1.8-0.9-2.9-1.6-3.8-1.4-2.8 0.4-4.8 6-6.3 8.6-2.1 3.7-3.7 6.4-5.7 9.1-6.7 0.5-13-3.2-20.2-3.8-2-6.8-0.1-17.5-3.4-23.1q-14.8 0-29.7 0c-2.6 6.3-0.7 17-3.4 23.1-6.5 1.3-13 2.7-18.7 4.8-5.4-4.8-7.5-13-12.5-18.3-5.4 1.2-10.2 4.3-14.9 6.8-4.4 2.3-9.7 4.2-12.9 8.1 2.3 6.8 5.6 12.7 8.1 19.2-2.9 3.9-7.3 6.6-11.5 10.6-1.2 1.2-2.8 3.2-3.8 3.3-2.4 0.4-7.4-3.4-9.6-4.8-3.1-1.9-5.8-4.3-9.1-5.2-7.6 6.8-12.5 16.3-18.3 24.9 1.4 4 5.6 5 8.2 7.7 2.7 2.4 5.8 4.4 8.1 7.2-1.9 3.7-2 9.2-6.7 10.1-1.6-4.3 2.4-5.1 1.9-8.7-0.4-3.3-5.5-5.1-8.6-7.6-3.5-2.8-6.6-5.5-8.2-8.2 5.6-8 10-14.3 16.4-23 2.1-2.9 3.6-6.9 5.7-7.2 3-0.5 6.1 3 9.6 5.2 2.8 1.8 7 5 9.6 4.8 2.8-0.2 4.7-3.8 5.8-4.8 1.1-1 5.2-2.3 5.7-4.8 0.5-2.3-2.7-8-3.8-10.5-1.5-3.5-3-5.9-4.3-9.6 5-5.8 13.7-8.3 20.6-12 3.7-2 8-4.9 12.5-6.7 5.6 4.7 7.9 12.9 12.5 18.7 5.6-0.4 9.5-2.3 14.9-2.9 2-6.3 0.7-15.9 2.4-22.6 3.7-1.6 13.4-0.9 21.1-0.9 6.6 0 13.1-0.7 17.7 0.9z"/>
	<path id="СЛИВО ПОЛЕ" class="s2" aria-label="СЛИВО ПОЛЕ"  d="m90.9 122.8v10.4q-3.6 1.9-7.5 2.8-3.9 1-8.1 1-12.5 0-19.9-7-7.3-7.1-7.3-19.1 0-12.1 7.3-19.1 7.4-7 19.9-7 4.2 0 8.1 0.9 3.9 1 7.5 2.8v10.4q-3.7-2.4-7.2-3.6-3.5-1.1-7.3-1.1-7 0-11 4.4-3.9 4.5-3.9 12.3 0 7.8 3.9 12.2 4 4.5 11 4.5 3.8 0 7.3-1.2 3.5-1.1 7.2-3.6zm7.5 13.2v-9.8q8.6-0.9 10.3-6.5 1.7-5.6 1.7-24.5v-9.5h35.8v50.3h-12.9v-40.5h-9.9v3.1q0 18.4-3.3 27-3.2 8.5-21.7 10.4zm91.1-50.3h14.5v50.3h-12.3v-34.5l-18.3 34.5h-14.5v-50.3h12.3v34.5zm40.1 19.5h7.2q3.1 0 4.7-1.4 1.5-1.3 1.5-4 0-2.5-1.5-3.9-1.6-1.4-4.7-1.4h-7.2zm0 22h7.6q4 0 5.9-1.6 2-1.7 2-5 0-3.3-2-4.9-1.9-1.6-5.9-1.6h-7.6zm19.7-18.1q4.2 1.2 6.5 4.4 2.3 3.3 2.3 8.1 0 7.2-5 10.8-4.9 3.6-14.9 3.6h-21.5v-50.3h19.4q10.5 0 15.2 3.1 4.7 3.2 4.7 10.2 0 3.7-1.7 6.3-1.7 2.5-5 3.8zm42.9-14.9q-5.9 0-9.2 4.3-3.2 4.4-3.2 12.4 0 7.9 3.2 12.3 3.3 4.4 9.2 4.4 6 0 9.3-4.4 3.2-4.4 3.2-12.3 0-8-3.2-12.4-3.3-4.3-9.3-4.3zm0-9.4q12.2 0 19 6.9 6.9 7 6.9 19.2 0 12.2-6.9 19.1-6.8 7-19 7-12.1 0-19-7-6.8-6.9-6.8-19.1 0-12.2 6.8-19.2 6.9-6.9 19-6.9zm59.7 0.9h45.1v50.3h-13v-40.5h-19.1v40.5h-13zm80.8 8.5q-6 0-9.2 4.4-3.3 4.3-3.3 12.3 0 7.9 3.3 12.3 3.2 4.4 9.2 4.4 5.9 0 9.2-4.4 3.3-4.4 3.3-12.3 0-8-3.3-12.3-3.3-4.4-9.2-4.4zm0-9.4q12.1 0 19 6.9 6.8 7 6.8 19.2 0 12.2-6.8 19.1-6.9 7-19 7-12.1 0-19-7-6.9-6.9-6.9-19.1 0-12.2 6.9-19.2 6.9-6.9 19-6.9zm32.5 51.2v-9.8q8.5-1 10.2-6.5 1.8-5.6 1.8-24.5v-9.5h35.8v50.3h-13v-40.5h-9.9v3.1q0 18.4-3.2 27-3.3 8.5-21.7 10.4zm60.4 0v-50.3h35.1v9.8h-22.1v9.4h20.7v9.8h-20.7v11.5h22.8v9.8z"/>
	<path id="Path 8" class="s1" d="m566.8 532.5c-0.3 14.1 0.7 28.6-1.9 38.8-2.8 11.1-13.7 14.2-23.5 19.2-5.6 2.9-10.9 6.2-16.3 8.2-1.7-5.7-1-12.8-1-19.7 0-8-1.3-17.5 0.5-23.5 0.1-0.5 2.1-4.2 2.9-5.3 3.4-4.8 10.3-7 15.8-9.6 3.4-2.2 5-6.2 8.2-8.6 5.9 0.4 11-1 15.3 0.5zm-88.3-1.1c3.2 2.4 4.7 6.5 8.2 8.6 5.4 2.6 12.3 4.8 15.8 9.6 0.8 1.1 2.7 4.8 2.9 5.3 1.8 6 0.5 15.5 0.5 23.5 0 6.9 0.6 14-1 19.7-5.5-2-10.7-5.3-16.3-8.1-9.8-5-20.7-8.1-23.5-19.2-2.6-10.3-1.6-24.7-2-38.9 4.4-1.5 9.5-0.1 15.4-0.5zm-206.4-288c2.2 0.9 1.6 4.5 1.9 7.2-0.1 1.6 1.9 1.1 1.9 2.4 1.6 11.2 10.4 30.9 8.2 44.2-1.5 9.3-12.8 8.2-19.2 3.4-2.6-2-4.9-5-7.7-7.7-4.9-4.7-10-9.6-14.9-14.9-1.8-2.1-3.3-4-5.2-6.2-0.7-0.8-2.3-0.4-1.5-2 1.7-1.5 1.9 1.3 2.9 2 7.8 5.2 14 11.8 22.1 16.8 12 2.7 16.5-5.6 15.3-18.3-0.2-2.6-1.4-5.3-1.9-8.1-0.4-2.8 0-5.5-0.5-7.7-0.8-4.2-3.2-7.8-1.4-11.1zm55.7 0c0.5 0 0.8 0.1 0.9 0.5 2 3.9-0.5 6.6-1.4 10.1-0.4 1.5-0.1 3.6-0.5 5.3-0.3 1.2-1.5 2.4-1.9 3.8-0.4 1.7 0 3.5-0.5 5.3-0.3 1.4-1.5 2.4-1.9 3.8-0.4 1.5-0.1 3.5-0.5 4.8-0.3 1-1.5 1.7-1.9 2.9-1.1 3.1-1.4 5.9-2.9 8.7-3 5.5-10.2 10.6-16.3 5.2-5.5-4.8-7.8-16.6-10.1-25.9-0.8-3.5-2.7-7.6-2.9-12.5-1.4-2.3-2.6-6-1.4-9.6 2.1 0.5 1.9 3.3 1.9 5.8 0.4 1.1 1.9 1.1 1.9 2.4 1.4 5 3.4 11.4 5.8 15.8 0.8 1.5 1.7 3.5 2.4 4.4 0 0 1.9 1.8 1.9 1.9 5.2 3.5 12.1 0.7 15.4-3.4 0.6-0.7 0.8-1.5 1.4-2.4 2.7-3.8 5.1-9.2 6.7-14.9 1.2-3.8 3.1-7.2 3.9-12zm12 4.8q0.7 0 1.4 0c1.2 12.7-6.2 22.8-1.9 34.1 1.9 5.1 6.9 8.1 13.4 6.3 4.2-1.2 9.5-5.8 13.5-9.2 4.5-3.8 8.1-8.6 12.9-9.6-7.4 8.2-16 18.5-24.9 26.4-1.4 1.3-3.2 2.7-4.8 3.9-4.3 3.1-11.6 7.3-16.8 1.9-2.6-2.6-3.6-7.8-2.9-13.9 0.2-1.6 1.1-3.1 1.4-4.8 0.5-2.1 0.1-4.2 0.5-6.3 0.4-1.9 1.9-3.8 2.4-5.7 0.4-1.4 0.2-3.1 0.5-4.3 0.4-1.6 1.5-2.9 1.9-4.4 0.4-1.5 0-3.2 0.5-4.8 0.4-1.1 1.6-2.2 1.9-3.3 0.6-2.1-0.1-4.7 1-6.3zm-116.2 28.4q0.7 0 1.5 0c8.4 8.4 21.1 19.9 29.7 30.2 3.9 4.7 9.6 15.8 1.5 20.6-4.9 0.8-11.1 1.4-17.3 0-1.5-0.3-2.8-1.5-4.3-1.9-1.9-0.4-4 0-5.8-0.5-1.2-0.3-2.3-1.6-3.4-1.9-1.5-0.4-3.2 0-4.8-0.5-1.6-0.5-3.1-1.9-4.8-2.4-2.2-0.6-5.1 0.9-6.2-2.4 11.4-1 25.1 6.2 32.2-0.4 10.5-10.1-7.3-26.5-12.5-32.7-1.4-1.7-2.3-3.6-3.9-5.3-0.4-0.4-1.5-0.3-1.9-1.4q0-0.7 0-1.4zm67.7 29.2c9.5-2.8 21.5-3.1 31.2 0 2.8 1 6.2 3 9.1 4.8 7.6 4.7 13.1 11 17.8 19.2 1 1.9 1.3 3 2.4 5.8 3.4 8.8 3 25.8-1 35-1.7 3.9-5.9 9.5-9.1 13-7.3 8-18.9 15.2-34.6 15.4-4.8 0-12.1-1.4-16.3-2.9-3.2-1.2-6.5-2.9-9.6-4.8-5-3.1-10.3-8.9-14.4-15.4-3.4-5.6-6.5-12.8-7.2-19.7-0.6-5.6 0.4-10.7 1.5-15.3 4-17.5 14.8-28.2 30.2-35.1zm-85 64.8c0.7-2 3.4-2 5.8-2.4 3.7-1.9 7.8-3.3 12-4.8 2.9-1.8 6-3.6 8.6-5.7 5.2-17.9-13.8-19.3-24-25-3-0.3-6.1-0.6-7.2-2.9-2.4 0.2-4.1-0.3-5.7-0.9 2.1-2.4 7.2-0.5 8.6 0.9 1.9-0.1 3.9 0.1 5.8 0.5 6 1.3 11.4 3.1 18.2 4.8 2.2 0.6 4.9 1.6 7.2 2.4 3.7 1.3 6.8 2.4 9.6 3.9 2.8 1.5 4.6 4 6.7 6.7 1.3 13.6-10.9 14.8-23 18.2-1.8 0.5-3.2 1.6-4.8 1.9-1.5 0.4-3.3 0.2-4.8 0.5-4.8 1.2-9 3.8-13 1.9zm212.2-42.2c-1 1.5-3.8 1.3-6.2 1.4-0.7 0.5-0.7 1.7-1.5 2-5.5 1.4-11.8 3.3-17.3 5.7-5.4 2.5-15 7.3-13.4 16.3 0.9 5.5 7.8 8.4 13 10.6 1.6 0.7 3.4 1.5 5.7 2.4 2.7 1 6.1 1.8 9.1 3.4-3.6 3-9.2-0.6-12.9-1.5-1.8-0.4-3.6 0-5.3-0.5-1.4-0.3-2.5-1.6-3.8-1.9-1.1-0.2-2.4 0.3-3.4 0-1.1-0.3-2.3-1.4-3.8-1.9-6.3-2.1-12.3-3.8-15.9-8.6-2.9-10.1 4-13.3 11.1-16.4 1.1-0.4 2.3-1.5 3.3-1.9 3.8-1.3 8.5-1.8 12.5-2.9 8.1-2.1 12.6-4.9 21.1-4.8 0.3-2.5 5.6-2.2 7.7-1.4zm-193 95c3.5-6.6 10.7-12.8 15.4-19.6 2.4-3.4 5.6-6.7 4.3-13-1.8-8.8-14.2-8.6-24-7.2-4.8 0.7-10.6 3.1-16.8 1.4 0.8-1.8 3.2-1.5 4.8-1.9 10.2-2.6 23.9-7.9 35.5-9.1 10.3-1.1 19.4 3.8 14.9 14.9-1.1 2.9-5.2 6.8-7.7 9.6-5.4 6.1-11.2 11.5-17.2 17.3-3.2 3-5.7 6.5-9.2 7.6zm49.5 25c-2.3-2-1.3-5.8-1-8.2 0.7-4.8 3.6-11.2 1.9-18.7-1.4-6.4-8.7-9.1-15.8-6.7-4.9 1.7-10.3 6.6-14.9 10.6-2.2 1.9-4.5 4-6.7 5.7-2.3 1.9-4.4 4.6-7.2 4.3-0.5-1.3 1-0.5 1.4-0.9 0.5-0.4 0.1-1.5 0.5-1.9 0.8-0.8 1.7-1.1 2.4-2 6.7-7.3 14.5-14.9 22.1-22 3-2.8 6.2-5.3 9.1-8.2 4.3-0.8 5.4-3.4 10.6-2.4 6.9 1.3 8.1 11.2 6.2 21.1-0.3 1.6-1.5 3.2-1.9 4.8-0.5 1.9-0.4 4-1 5.8-0.7 2.6-1.4 4.9-2.4 8.6-0.5 2.3-2.5 7.6-3.3 10.1zm107-12.5c-3.9-2-8.3-6.7-13.4-11-3.1-2.7-6.7-5.3-10.6-7.7-3.6-2.3-9.7-5.1-15.3-1.9-5.1 2.8-5 14.5-3.4 23.5 0.7 3.6 3.3 7.9 1.4 13-2.1-0.7-1.6-3.8-1.9-6.3-2.7-7.5-8-22.7-9.1-32.1-0.6-5.4 0.1-10.5 2.4-13 0.4-0.5 3.3-2.2 4.3-2.4 4-0.9 8.9 1.2 11.5 2.9 3 1.9 6.5 5.2 9.6 8.1 5.9 5.5 11.7 11.6 17.3 17.8 1.5 1.6 2.5 3.3 3.9 4.8 1.1 1.3 3.8 2.1 3.3 4.3zm-53.3 23.1c-1.8-0.8-1.7-3.5-1.9-5.8-0.6-0.8-1.5-1.4-1.9-2.4-1.8-5.9-4.3-14.8-8.2-20.2-2.7-3.7-9.5-8.3-15.3-4.3-5.5 3.8-8.5 13.4-10.6 21.1-0.7 1.2-1.4 2.5-2.4 3.4 0.4 2.6-0.5 3.9-0.9 5.8-3.6-2.5-0.3-6.2 0.4-9.2 0.5-2 0.1-4.2 0.5-6.2 0.3-1.3 1.6-2.6 1.9-3.8 1.4-4.7 1.8-9.7 2.9-14 3.4-7.5 7-20.4 17.8-16.3 3.6 1.4 7.4 9.6 9.6 15.4 0.8 2.2 1.1 3.9 1.9 7.2 0.4 1.6 1.5 2.9 1.9 4.3 1.4 5.1 1.8 10.4 2.9 14.4 0.8 2.8 3.3 6.6 1.4 10.6z"/>
	<path id="Path 9" class="s3" d="m319.1 535.3c1.6 5.7 1.2 13.6 2 20.1 3.4 3.7 11.9 3.5 16.8 4.8 2.3 0.7 4.8 3 7.2 2.4 3.4-0.7 4.6-6.4 6.2-9.1 1-1.7 2.6-3 3.4-4.3 1-1.6 1.1-3.5 2.8-4.3 4.7 0.5 8.4 3.3 12 5.3 3.6 1.9 7.7 3.3 10.6 6.2-0.7 3.8-2.3 6.6-3.8 10.1-1.3 3-4.3 6.8-3.9 9.6 0.4 2.5 7.1 6.8 9.1 8.6 3.7 3.3 6.4 5.7 9.2 8.7 6.8-3.2 12.2-8 19.2-11.1 4.4 3.7 7.1 9.8 11 15.4 1.4 2 3.6 3.3 3.4 5.3-0.3 2.5-5.6 5.6-7.7 7.2-3.3 2.5-5.8 4.2-8.2 6.7-0.4 3.8 1.6 5.1 2.4 7.7-8 1.6-57.3-11.3-63.8-14-1-2.2-3.7-3.3-5.8-4.8-3.2-2.1-5.1-3.3-9.1-5.2-2-1-3.4-1.4-6.2-2.4-14.2-5.4-35.8-2.8-48 3.8-1.8 1-3.2 2.7-4.8 3.8-1.6 1.1-3.5 2-5.3 3.4-5.6 4.3-60 20.5-65.8 17.8 0.4-4.3 3.8-6 2.9-9.6-0.4-1.6-5.9-5.4-7.7-6.8-3.1-2.4-6.4-4.3-7.7-6.7 1-4 4.1-6.8 6.8-10.5 1.8-2.7 5-10.2 8.1-10.1 2.8 0.1 9.8 5.7 13 7.7 1.5 0.9 3.1 1.5 4.3 2.4 4.1-2 6.8-5.8 10.1-8.7 3.2-2.8 7.3-4.8 9.6-8.6-2.3-6.9-6.3-12-7.7-19.7 1.4-1.4 3.5-2.4 5.3-3.4 4.9-2.6 10.7-5.6 16.3-8.1 5.7 4.4 7.1 13 12.5 17.7 8.6-1.8 16.8-4 24.9-6.2 0.7-6.8-0.3-15.4 1.5-21.1 8.1-1 17.6-0.3 24.9 0zm19.7 74.9c-1.9 1-3.4-0.5-5.3-1-1.8-0.5-4.1-0.3-6.2-1-1-0.3-2.2-1.6-3.4-1.9-1.9-0.4-4.3-0.1-6.2-0.5-1.7-0.3-3.2-1.1-4.8-1.4-14-2.3-27.4 4.2-38.4 5.3 1-1 2.3-1.5 2.4-3.4 9.4-5.1 24.8-9.9 39.4-7.2 7 1.3 16.9 5 21.1 9.1 0.7 0.7 2.2 0.7 1.4 2z"/>
	<path id="Path 10" class="s1" d="m390.7 274.6c2.5 1-1.2 2.3-0.5 3.4-5.4 6.5-13.4 15.5-18.7 23.5-4 5.9-1.5 16.2 4.3 18.3 8.4 3 20.1-4.2 28.3-1.5-1.2 2.3-4.2 1.7-6.7 2.4-2.2 0.7-4.8 1.4-8.2 2.4-6 1.8-16.6 5.4-24 5.3-2 0-5.5-0.1-7.2-1-5.5-2.7-5.4-11.1-1.9-16.8 3.1-2.5 4.6-6.2 7.2-9.1 1.2-1.4 3-2.5 4.3-3.8 5.1-5.2 10.7-11 16.3-16.3 1.4-1.3 3.5-2.3 3.9-4.4 2.5 0.8 2-1.4 2.9-2.4zm18.7 110c-1.1 1.5-5 1.2-7.7 0.9-6.5-0.7-17.9-5.2-26.4-1.9-1.5 0.6-2.3 2.5-4.3 2.9-2 4-3.1 7.1-1 12 3.8 8.7 15.3 17.8 19.2 25.4-2 0.6-1.5-1.3-2.4-1.9-3-1.2-5.3-4.6-8.1-7.2-2.6-2.4-5.1-4.7-7.7-7.2-6.5-6.3-14.3-12.7-17.3-21.1-3.2-8.8 6.3-13.6 15.8-12.5 1.7 0.2 3.2 1.1 4.8 1.4 2 0.4 4 0.1 5.8 0.5 1.6 0.4 2.7 1.5 4.3 1.9 5 1.3 10.2 1.8 14.9 3.4 2.5 0.8 6.9 2.2 10.1 3.4zm-345.5-125.3c1.1 46.5 0.1 95.2 0.4 142.5 2.3 4.3 2.6 6.2 5.3 8.2 4 3 9.3 1.7 13.9 4.8 7.8 5.2 6.8 16.8 6.8 30.2 0 7.4 0.7 14.9-1 20.7-13.9-1.9-26.3-6.6-33.6-14.4-4.3-4.6-7-10.5-7.7-18.3-1.2-13.1 0-28.4 0-43.6 0-36.3 0-74.6 0-110 0-7.2-0.7-14.6 1-21.1 3.7-1.1 9.4-0.2 13.9-0.5 0.6 0.2 1 0.7 1 1.5zm46 51.3c1.5 10.8-0.6 22.1 0 33.6 7.2 12 16 36.1 6.8 50.4-2.9 4.4-5.6 6.8-9.6 9.6-5.9 4.1-9.9 4.1-15.4 0-3.2-2.3-6.2-5.7-8.2-9.1-4.4-7.5-5.6-18.2-3.3-27.3 1.6-6.7 3-10.7 5.7-15.4 2-3.4 4.7-6.1 5.3-9.1 2-10.6-1.9-22.8 0.5-32.7 3.4-2.6 11.2-0.9 16.8-1.4q1 0.4 1.4 1.4zm40.4 31.2c0.8 12.6 0.4 30.2 0.4 47.6 0 17.9 2.8 44.5-2.8 56.1-2.8 5.7-8.8 9.3-12.5 12.5-8.1 2.6-16.6 7.4-25.5 7.7-0.5-9.8-2.3-24.3-1.4-35.1 0.6-6.9 2.7-13.2 6.7-15.8 4.1-2.7 8.3-1.4 12-2.9 7-2.8 7.2-12.9 7.2-22.5 0-10.7 0-21.1 0-32.2 0-5.1-0.5-10.3 0.5-15.4 3.6-1.4 9.9-0.6 13.9-0.9 0.6 0.2 1.1 0.5 1.5 0.9zm-86.9 126.3c3.2 2.4 4.7 6.5 8.1 8.6 5.5 2.6 12.4 4.8 15.9 9.6 0.8 1.1 2.7 4.8 2.9 5.3 1.7 6 0.4 15.5 0.4 23.5 0 6.9 0.7 14-0.9 19.7-5.5-2-10.8-5.3-16.3-8.2-9.8-5-20.7-8.1-23.6-19.2-2.6-10.2-1.6-24.6-1.9-38.8 4.4-1.5 9.5-0.1 15.4-0.5zm46.1 37.4c-0.3-5.2-0.5-10.4 0.4-14.9 3.8-6.7 9.8-11.3 18.3-13.4 3.6-1.7 5.1-8 8.6-9.1 2.8-0.9 13.8 0 14.9 0.9-0.2 13.1 0.7 31-2.4 39.9-2.3 6.6-5.8 9.4-11.5 12.5-6.5 3.4-12.6 6.2-18.3 9.1-3 1.5-5.9 3.3-9.1 3.8-2.1-8.3-0.4-19.1-0.9-28.8zm-46.1 26.5c3.2 2.4 4.7 6.4 8.1 8.6 5.5 2.6 12.4 4.8 15.9 9.6 0.8 1.1 2.7 4.8 2.9 5.3 1.7 6 0.4 15.5 0.4 23.5 0 6.9 0.7 14-0.9 19.7-5.5-2-10.8-5.3-16.3-8.2-9.8-5-20.7-8.1-23.6-19.2-2.6-10.2-1.6-24.7-1.9-38.8 4.4-1.5 9.5-0.1 15.4-0.5zm88.3-0.1c-0.3 14.2 0.7 28.6-1.9 38.9-2.8 11.1-13.8 14.2-23.5 19.2-5.6 2.8-10.9 6.1-16.4 8.1-1.6-5.7-0.9-12.8-0.9-19.7 0-8-1.3-17.5 0.5-23.5 0.1-0.5 2-4.2 2.8-5.3 3.5-4.8 10.4-7 15.9-9.6 3.4-2.1 4.9-6.2 8.1-8.6 5.9 0.4 11.1-1 15.4 0.5z"/>
</svg>