<svg version="1.2" xmlns="http://www.w3.org/2000/svg" viewBox="0 0 188 224" width="188" height="224">
	<title>Perushtitsa-pdf</title>
	<style>
		.s0 { fill: #fbc707;stroke: #231f20;stroke-width: 1.1 } 
		.s1 { fill: #d91920;stroke: #231f20;stroke-width: 1.1 } 
		.s2 { fill: #231f20 } 
		.s3 { fill: #ffffff;stroke: #231f20;stroke-width: 1.1 } 
		.s4 { fill: #fbc707;stroke: #231f20;stroke-linecap: round;stroke-linejoin: round;stroke-width: 1.1 } 
	</style>
	<path id="Path 1" fill-rule="evenodd" class="s0" d="m93.9 221.6c-15.7-6-29.2-7.4-42.6-13.3-27-11.9-42.4-29.7-46.3-56.1-2.5-13.8-3.3-28-2.4-43.4 7.6-21.9 5.4-50.9-0.7-71 2.6-9.1 2.5-19.1 0-29 26.8-4.6 59.1-7 92-7 32.9 0 65.2 2.4 92 7-2.5 9.9-2.5 19.9 0 29-6.1 20.1-8.2 49.1-0.6 71 0.9 15.4 0 29.6-2.5 43.4-3.9 26.4-19.2 44.2-46.2 56.1-13.5 5.9-27 7.3-42.7 13.3zm89.3-111.9c-1.7-0.4-3.4-1.4-5.1-2.6l-1.1 2.2-1.8-1.9-0.9 2.6-2.4-2c0.8 3.1-0.9 4.2-3.2 5.4 2.6 0 4.6 0.1 5.4 3.2l1.1-2.9 2.1 1.8 0.6-2.5 2.1 1.4c0.9-1.8 1.9-3.5 3.2-4.7zm-17.6 75.3c-0.7-1.6-0.9-3.6-1-5.6l-2.4 0.4 0.5-2.6-2.7 0.8 0.3-3.1c-2 2.5-4 1.8-6.3 0.6 1.6 2.1 2.6 3.8 0.6 6.3l3.1-0.9-0.3 2.8 2.4-1 0.1 2.5c2-0.4 4-0.5 5.7-0.2zm-67.9 27.4l-1.8-1.6 2.2-1.3-2.3-1.5 2.6-1.8c-3.2 0-3.9-1.9-4.5-4.5-0.6 2.6-1.2 4.5-4.4 4.5l2.6 1.8-2.3 1.5 2.2 1.3-1.8 1.6c1.5 1.4 2.9 2.8 3.7 4.3 0.9-1.5 2.2-2.9 3.8-4.3zm-69.2-27.2l0.1-2.5 2.3 1-0.2-2.8 3 0.9c-2-2.5-0.9-4.2 0.6-6.3-2.3 1.2-4.2 1.9-6.2-0.6l0.2 3.1-2.6-0.8 0.4 2.6-2.4-0.4c-0.1 2-0.3 4-0.9 5.6 1.7-0.3 3.6-0.2 5.7 0.2zm-20.1-70.8l2-1.4 0.6 2.5 2.1-1.8 1.1 2.9c0.8-3.1 2.8-3.2 5.4-3.2-2.3-1.2-4-2.3-3.1-5.4l-2.5 2-0.9-2.6-1.7 1.9-1.2-2.2c-1.7 1.2-3.3 2.2-5.1 2.6 1.3 1.2 2.4 2.9 3.3 4.7z"/>
	<path id="Path 2" fill-rule="evenodd" class="s1" d="m93.9 199.5c-7.5-3.1-15.4-3.8-25.4-6.4-29.4-6.6-52.4-32.4-46.8-84.2-6.7-5.1-12.2-5.4-19.9-0.4 8.5-18.7 6.7-45.5 0.1-70.9 10.9-0.4 15.4-5.2 18.3-10 23.5-3.1 47.5-4 73.7-4 26.3 0 50.2 0.9 73.8 4 2.9 4.8 7.3 9.6 18.3 10-6.7 25.4-8.4 52.2 0.1 70.9-7.8-5-13.3-4.7-19.9 0.4 5.6 51.8-17.4 77.6-46.9 84.2-10 2.7-17.8 3.3-25.4 6.4zm77.3-164.3c-1.7 0.6-3.6 0.7-5.7 0.6l0.3 2.5-2.5-0.6 0.6 2.6-3.1-0.4c2.4 2.2 1.6 4.1 0.3 6.3 2.1-1.4 4-2.4 6.3-0.2l-0.7-3.1 2.7 0.4-0.8-2.4h2.5c-0.3-2.1-0.3-4 0.1-5.7zm-153.9 5.7h2.4l-0.8 2.4 2.7-0.4-0.7 3.1c2.4-2.2 4.2-1.2 6.3 0.3-1.2-2.3-2-4.2 0.3-6.3l-3.1 0.3 0.6-2.6-2.4 0.6 0.2-2.5c-2.1 0.1-4 0-5.7-0.6 0.4 1.7 0.4 3.6 0.2 5.7zm21.8-6.9c0 2.3 1.8 4.2 4.1 4.2 2.3 0 4.1-1.9 4.1-4.2 0-2.2-1.8-4.1-4.1-4.1-2.3 0-4.1 1.9-4.1 4.1zm106-4.1c-2.2 0-4.1 1.9-4.1 4.1 0 2.3 1.9 4.2 4.1 4.2 2.3 0 4.2-1.9 4.2-4.2 0-2.2-1.9-4.1-4.2-4.1zm-51.2-4.1c-0.8 1.5-2.2 3-3.7 4.3l1.8 1.6-2.2 1.3 2.3 1.5-2.6 1.8c3.2 0 3.8 1.9 4.4 4.5 0.6-2.6 1.3-4.5 4.5-4.5l-2.6-1.8 2.3-1.5-2.2-1.3 1.8-1.6c-1.6-1.3-2.9-2.8-3.8-4.3zm-54.4 141.1c0 2.3 1.8 4.1 4.1 4.1 2.3 0 4.1-1.8 4.1-4.1 0-2.3-1.8-4.1-4.1-4.1-2.3 0-4.1 1.8-4.1 4.1zm104.8-4.1c-2.3 0-4.2 1.8-4.2 4.1 0 2.3 1.9 4.1 4.2 4.1 2.2 0 4.1-1.8 4.1-4.1 0-2.3-1.9-4.1-4.1-4.1z"/>
	<path id="Path 3" fill-rule="evenodd" class="s2" d="m29.8 22.4l-0.9-13.5 7.7-0.5 1 13.5-2.5 0.1-0.9-12.5-2.8 0.2 0.9 12.5zm15-9.4q-0.1-2.7 0.8-4.2 0.9-1.5 3.3-1.6 2.2-0.1 3.1 0.9 0.9 1 1 3.2l-2.5 0.1q-0.2-3.4-1.6-3.4-0.6 0.1-0.9 0.6-0.4 0.5-0.4 1.2l0.3 4.6q0.9-2.2 2.9-2.3 1.2 0 1.9 0.8 0.6 0.8 0.7 1.9l-2.2 0.2q-0.3-1-1-1.2-0.7-0.2-1.3 0.4-0.6 0.6-0.6 1.8 0.4 0.8 0.5 1.4 0.2 0.5 0.3 1.4 0 0.4 0 0.6-0.1 0.3-0.4 0.9 1.1-0.1 1.6-0.6 0.6-0.4 0.7-1.2 0.1-0.8 0-2.1l2.5-0.2q0.1 1.7-0.2 2.7-0.2 1-1 1.6-0.9 0.7-2.6 0.8-0.8 0-1.6-0.1-0.9-0.1-1.5-0.5-0.7-0.4-0.7-1.1 0-0.2 0.2-0.4 0.2-0.2 0.4-0.2 0.2 0.1 0.2 0.3-0.2 0.1 0 0.5 0.2 0.4 0.6 0.4 0.4 0 0.7-0.4 0.2-0.4 0-1-0.2-0.5-1.3-1.2-1.1-0.8-1.5-1.8-0.3-1-0.4-2.8zm16.2-6.1l5.2-0.1q0.7 0 1.2 0.3 0.6 0.4 0.9 0.9 0.3 0.6 0.3 1.3l0.1 4.4q0.1 0.3-0.2 0.4-0.3 0.2-1.1 0.2-1.3 0-2 0.5-0.6 0.5-0.6 1.1 0 0.5 0.3 0.7 0.5 0.2 0.5 0.5 0 0.1-0.1 0.3-0.1 0.1-0.2 0.1-0.8 0-1.5-1l0.2 3.9-2.5 0.1zm2.5 0.6l0.3 7.9q0.6-1.5 2.3-1.9l-0.1-4.7q-0.1-0.5-0.3-0.9-0.3-0.4-0.8-0.4zm19.2 7.7q1.3 0.2 2.2 0.9 0.9 0.6 0.9 1.8 0 1.1-1.4 1.6-1.4 0.5-3 0.5-1.5 0-2.7-0.5-1.2-0.5-1.2-1.8 0-1 0.6-1.5 0.7-0.6 1.7-0.8 0.9-0.2 2-0.2l0.4-1.5h-3.4q-0.4 0-0.6-0.5l-2-7h2.6l2 6.7h1.7l1.4-4.8q0.2-0.9 0.7-1.4 0.4-0.5 0.9-0.5 0.7 0 0.7 0.3v1.5q0 0.3-0.2 0.4-0.2 0.1-0.6 0.1-0.7 0-1 0.9zm-0.2 0.8l-0.8 2.5h-0.9l0.8-2.6q-2.2 0-2.2 1.5 0 1.5 2.2 1.5 1 0 1.7-0.4 0.6-0.4 0.6-1.1 0-0.4-0.4-0.8-0.4-0.4-1-0.6zm17.9 3.5l1.1 2.5q0.1 0.2 0 0.4-0.1 0.1-0.3 0.1h-2.3q-0.1 0-0.3-0.2-0.1-0.1 0-0.4l1-2.4h-5.7v-13.5h2.5v12.5h2.4v-12.5h2.5v12.4h2.5v-12.4h2.4v13.5zm18.1-7.8q1-0.9 1-1.6 0-0.2-0.2-0.4-0.2-0.3-0.5-0.4-0.2-0.1-0.2-0.5 0.1-0.3 0.4-0.3 0.3 0 0.7 0.4 0.4 0.5 0.5 1.1l0.1-3.6 2.5 0.1-0.5 13.5h-2.5l0.3-8.9q-0.3 0.8-1.3 1.7-0.5 0.4-0.7 0.8-0.2 0.3-0.2 0.9 0 0.4 0.2 0.6 0.2 0.2 0.5 0.3 0.3 0 0.2 0.3 0 0.2-0.1 0.4-0.2 0.1-0.4 0.1-0.4 0-0.7-0.4-0.4-0.3-0.5-1l-0.2 5.1-2.5-0.1 0.5-13.6 2.5 0.1-0.3 7q0.6-0.8 1.4-1.6zm12.6-4.6l2.5 0.1-0.7 12.6 2.4 0.1 0.7-12.6 2.5 0.2-0.7 12.6h0.6q0.2 0 0.3 0.1 0.1 0.2 0.1 0.3l-0.2 3.8h-0.7q0.1-1.4-0.4-2.4-0.5-1-1.6-1l-5.5-0.3zm19.3 4.9q1.6-1.2 1.6-2 0.1-0.4-0.5-0.9-0.1 0.1-0.2 0.1-0.2 0-0.4-0.2-0.2-0.1-0.1-0.3 0-0.2 0.2-0.4 0.3-0.1 0.6-0.1 0.5 0 0.8 0.3 0.3 0.2 0.6 0.8l0.1-0.8 2.5 0.1-0.9 13.6-2.6-0.2 0.5-6.4q-0.2 0.4-0.8 1-0.4 0.4-1.3 0.9-0.5 0.2-0.5 0.6 0 0.3 0.2 0.6 0.1 0.1 0.3 0.3 0 0 0 0.2 0 0.4-0.5 0.4-0.4 0-0.8-0.8-0.1 1.6 0.1 3l-2.5-0.2q-0.2-0.2-0.4-1.1-0.1-0.8 0-1.6 0.1-1.7 0.7-3 0.6-1.4 1.5-2.3 0.8-0.9 1.8-1.6zm1 3.7q0.7-0.4 0.7-1 0-0.4-0.3-0.6-0.5-0.4-0.2-0.8 0.3-0.3 1.1 0.3l0.2-3.2q-0.1 0.8-1.3 2.3-0.5 0.6-0.9 1.2-0.4 0.7-0.7 1.4-0.3 0.8-0.3 1.6 0.1-0.2 0.7-0.6 0.2-0.2 1-0.6z"/>
	<path id="Path 4" class="s0" d="m118.5 49.6c13.1-5.7 29.3-6.2 40.9-2.2-2.2 21.7 2.2 44.5 4 66 1.3 25.7-13.3 44.8-29.2 50.3-0.3 7.6 1.9 10.9 7 16.6-19.4 6.9-29.2 9.4-47.3 9.4-18.1 0-27.9-2.5-47.2-9.4 5-5.7 7.3-9 6.9-16.6-15.9-5.5-30.4-24.6-29.1-50.3 1.7-21.5 6.2-44.3 4-66 11.6-4 27.7-3.5 40.9 2.2 7.2-4.3 14.8-6 24.5-6 9.7 0 17.4 1.7 24.6 6z"/>
	<path id="Path 5" class="s3" d="m93.9 51.4c16.3 0 29.5 13.3 29.5 29.5q0 0.6 0 1.1 0.5 0 1.1 0c16.2 0 29.5 13.2 29.5 29.5 0 16.2-13.3 29.5-29.5 29.5q-0.6 0-1.1-0.1 0 0.6 0 1.1c0 16.3-13.2 29.5-29.5 29.5-16.2 0-29.5-13.2-29.5-29.5q0-0.5 0.1-1.1-0.6 0.1-1.1 0.1c-16.3 0-29.5-13.3-29.5-29.5 0-16.3 13.2-29.5 29.5-29.5q0.5 0 1.1 0-0.1-0.5-0.1-1.1c0-16.2 13.3-29.5 29.5-29.5z"/>
	<path id="Path 6" fill-rule="evenodd" class="s4" d="m124.3 110.7c2.1 0 3.8 1.7 3.8 3.8 0 2.1-1.7 3.9-3.8 3.9-2.1 0-3.8-1.8-3.8-3.9 0-2.1 1.7-3.8 3.8-3.8zm13 4v0.3h-1.5v4.1l-1.5-2v-9.8c0-0.5-0.1-1.2-0.3-1.7-0.2-0.5-0.4-0.9-0.7-1.2-0.5-0.4-1.2-0.8-1.8-1-0.6-0.1-1.2-0.1-1.9 0.1-0.5 0.2-0.9 0.5-1.2 0.9q-0.4 0.6-0.4 1.3c0.1 0.4 0.4 0.9 0.8 1.3 0.5 0.4 3.2 1.2 3.7 1.4-2.5 0.6-3.7 0.5-4.7-0.4-0.7-0.6-1-1.4-1.2-2.2q0 0 0 0c0-0.6 0-1.2 0.3-1.8q-0.3-0.1-0.7-0.2h0.1c-1-0.4-1.9-0.8-2.4-1.5-0.6-0.7-0.8-1.2-0.7-2.2 0.1-1.9 1.4-2.1 2.6-3.5-0.5 0.7-0.9 1.5-1.2 2.3-0.3 1.3 0.4 2 0.7 2.4 0.8 1 1.3 1.1 2.5 1.3 0.3-0.5 1.8-1.1 2.5-0.8l0.3-3.6c-0.8-0.2-2.5-0.9-3.1-1.6-0.6-0.7-1.5-2.5-1.3-3.4 0.3 0.1 1.5 0.2 1.8 0.6-1.2-3.5 0.2-4.7 0.1-5.2 1.1 0 1.7 1 2.2 2.1 0.1-0.5 0.1-2 2-3.1 1.2 1 1.3 2.9 1 4.1 0.8-0.7 1.9-2.4 3-2.3 0.5 1.9-0.4 4.1-0.9 5 0.6-0.1 0.9-0.3 1.7 0.2-1.2 1.7-1.1 2.6-3.3 3.4-0.9 0.3-1.4 0.1-1.8 0.1l-0.2 4q0 0 0 0c1.6-0.1 3.1 1.2 3.6 2.9 0.1 0.1 0.7-0.4 1.4-0.9-0.4-0.7-1.1-2.6-0.9-3.5 0.1-0.9 1-2.8 1.7-3.2 0.2 0.3 0.8 1.2 0.8 1.7 1.8-3.2 3.7-2.9 4-3.3 0.7 0.9 0.3 2-0.2 3.1 0.5-0.3 1.6-1.2 3.7-0.5 0 1.6-1.4 2.8-2.5 3.4 1 0.2 3-0.1 3.7 0.9-1.2 1.6-3.4 2.3-4.4 2.5 0.4 0.3 0.8 0.4 0.9 1.3-2 0.3-2.7 1-4.7-0.3-0.8-0.4-1-0.9-1.2-1.1l-2 1.5c0.2 2.2 0.1 4.7 0.1 7h1.4v0.1q0.2 0 0.4 0c0-0.6 0.5-2.9 1.3-3.6 0.6-0.6 2.3-1.7 3.2-1.7 0 0.4 0 1.5-0.4 1.9 3.4-1.6 4.7-0.3 5.2-0.4 0.1 1.1-0.9 1.8-1.8 2.4 0.4 0 1.9-0.1 3.2 1.7-0.8 1.3-2.7 1.6-4 1.4 0.8 0.7 2.6 1.6 2.6 2.8-1.9 0.6-4.2 0-5-0.4 0.1 0.5 0.3 0.7-0.1 1.6-1.8-0.9-2.7-0.7-3.7-2.9-0.4-1-0.2-1.5-0.3-1.8q-0.2 0-0.5 0zm-2.4 18.4c-0.8 0-1.5-0.7-1.5-1.4 0-0.8 0.7-1.4 1.5-1.4 0.8 0 1.4 0.6 1.4 1.4 0 0.7-0.6 1.4-1.4 1.4zm-4 0c-0.7 0-1.4-0.7-1.4-1.4 0-0.8 0.7-1.4 1.4-1.4 0.9 0 1.5 0.6 1.5 1.4 0 0.7-0.6 1.4-1.5 1.4zm5.8-3.4c-0.8 0-1.5-0.6-1.5-1.4 0-0.7 0.7-1.3 1.5-1.3 0.8 0 1.4 0.6 1.4 1.3 0 0.8-0.6 1.4-1.4 1.4zm-3.9 0c-0.8 0-1.5-0.6-1.5-1.4 0-0.7 0.7-1.3 1.5-1.3 0.8 0 1.4 0.6 1.4 1.3 0 0.8-0.6 1.4-1.4 1.4zm-3.8 0c-0.8 0-1.5-0.6-1.5-1.4 0-0.7 0.7-1.3 1.5-1.3 0.8 0 1.4 0.6 1.4 1.3 0 0.8-0.6 1.4-1.4 1.4zm7.1-4.7c0 0.7-0.6 1.4-1.3 1.4-0.8 0-1.5-0.7-1.5-1.4 0-0.8 0.7-1.4 1.5-1.4 0.7 0 1.3 0.6 1.3 1.4zm4 0c0 0.7-0.7 1.4-1.5 1.4-0.8 0-1.4-0.7-1.4-1.4 0-0.8 0.6-1.4 1.4-1.4 0.8 0 1.5 0.6 1.5 1.4zm-7.8-0.1c0 0.8-0.7 1.4-1.5 1.4-0.8 0-1.4-0.6-1.4-1.4 0-0.7 0.6-1.3 1.4-1.3 0.8 0 1.5 0.6 1.5 1.3zm-3.9 0c0 0.8-0.6 1.4-1.4 1.4-0.8 0-1.4-0.6-1.4-1.4 0-0.7 0.6-1.3 1.4-1.3 0.8 0 1.4 0.6 1.4 1.3zm9.7-3.3c0 0.7-0.6 1.4-1.4 1.4-0.8 0-1.5-0.7-1.5-1.4 0-0.8 0.7-1.4 1.5-1.4 0.8 0 1.4 0.6 1.4 1.4zm-3.9 0c0 0.7-0.6 1.4-1.4 1.4-0.8 0-1.5-0.7-1.5-1.4 0-0.8 0.7-1.4 1.5-1.4 0.8 0 1.4 0.6 1.4 1.4zm-3.8 0c0 0.7-0.6 1.4-1.4 1.4-0.8 0-1.5-0.7-1.5-1.4 0-0.8 0.7-1.4 1.5-1.4 0.8 0 1.4 0.6 1.4 1.4zm3.8 13.3c0 0.8-0.6 1.4-1.4 1.4-0.8 0-1.5-0.6-1.5-1.4 0-0.7 0.7-1.4 1.5-1.4 0.8 0 1.4 0.7 1.4 1.4zm-55.8-52.2c0-1.4-0.2-2.4 0.3-3.7 0.6-1.7 2.3-2.5 3-4.2 0.2-0.4 0.1-1.3-0.4-1.7 0.6 0.3 1.5-0.1 1.7-0.4 0.4-0.6-0.4-1.8 0.2-2.3 0.7-0.5 1.6-0.3 2.4-0.5 6.7-1.5 13.4-2.5 20-4.5 0.6-0.2-0.4-0.8 0.2-1.1 0.4-0.1 0.9 0.6 1.4 0.6 0.3 0 0.8-0.6 1-0.6 0.6 0.2 0.5 0.3 0.7 0.6 0.3 0.7 0.3 1.1 0.1 1.8-0.2 0.7-1.2 0.3-1.9 0.5l-15.4 3.5c-0.5 0.1-0.8 0.8-0.8 1.2l-0.1 5c0 1 0.2 1.9-1.3 1.6-1.2-0.3-0.9-2-2-1.5-1 0.4 0.4 2.5 0.3 3.4-0.2-0.3-1.7-2-2.2-2.1-0.3-0.1-1.1-0.2-1.2 0.1-0.1 0.9-0.3 1.2-0.1 2.1 0.2 0.9 0.8 2.5 0.6 3.4-0.1 0.8-1.1 1.4-1.5 2.1-1.2 1.6-5-0.5-5-3.3zm2.9-9.6q-0.1 0-0.1 0 0 0 0.1 0zm10.2 10.6v-6c0-1.4 0.8-2.5 1.9-2.5 1 0 1.8 1.1 1.8 2.5v6zm-10.4-19.8l7.7 3.8-3.4 1zm15.2 8.1l3.8 2.5c0.9-1.3 2.9 0 1.9 1.4l5.3 3.2h2.1l2.4 1.9c3.1 2.4-1.5 5.5-3.5 3.1l-2.2-2.4-5.4-3.6c-0.5 1-3.1 1.2-2.1-1.5l-6.3-4.3zm-2.4-16.1c1.1 0 2.1 0.8 2.1 1.8q0 0 0 0.1c1 0.4 1.6 1.1 1.6 1.9 0 0.7-0.6 1.5-1.7 1.9v2.5l0.7 0.6 4-1.7c0.9-0.3 2.2 1.3 0.7 1.7l-9.5 3-8.2-5 7.2 2.3 0.9-0.5v-2.9c-1-0.4-1.7-1.2-1.7-1.9 0-0.8 0.7-1.5 1.7-1.9q0-0.1 0-0.1c0-1 1-1.8 2.2-1.8zm-26.6 58.6c0 2.1-1.7 3.8-3.8 3.8-2.1 0-3.8-1.7-3.8-3.8 0-2.1 1.7-3.9 3.8-3.9 2.1 0 3.8 1.8 3.8 3.9zm-17.3 0.1c-0.1 0.3 0.1 0.8-0.3 1.8-1 2.2-1.9 2-3.8 2.9-0.4-0.8-0.1-1.1 0-1.6-0.9 0.4-3.1 1-5.1 0.4 0.1-1.2 1.9-2.1 2.6-2.8-1.2 0.2-3.1-0.1-3.9-1.4 1.3-1.7 2.7-1.6 3.2-1.7-0.9-0.6-1.9-1.3-1.8-2.4 0.5 0.1 1.8-1.2 5.1 0.4-0.3-0.3-0.3-1.5-0.3-1.8 0.8-0.1 2.6 1 3.2 1.6 0.8 0.7 1.3 3 1.3 3.6q0.1 0 0.3 0v-0.1h1.5c0-2.3-0.2-4.7 0.1-7l-2-1.5c-0.2 0.2-0.4 0.7-1.2 1.2-2.1 1.2-2.7 0.5-4.7 0.2 0.1-0.9 0.5-0.9 0.9-1.3-1-0.2-3.2-0.9-4.4-2.5 0.7-0.9 2.6-0.7 3.6-0.9-1-0.5-2.4-1.8-2.4-3.3 2.1-0.7 3.2 0.1 3.6 0.4-0.4-1.1-0.8-2.2-0.1-3.1 0.3 0.4 2.1 0.1 4 3.3-0.1-0.5 0.5-1.4 0.8-1.7 0.7 0.4 1.5 2.3 1.7 3.2 0.2 0.9-0.5 2.8-0.9 3.5 0.7 0.5 1.3 1 1.4 0.9 0.5-1.7 2-3 3.6-2.9q0 0 0 0l-0.3-4c-0.3 0-0.8 0.2-1.7-0.1-2.3-0.7-2.2-1.7-3.3-3.4 0.8-0.5 1.1-0.3 1.6-0.2-0.5-0.9-1.3-3-0.9-5 1.2-0.1 2.3 1.6 3 2.3-0.2-1.2-0.1-3.1 1.1-4 1.8 1.1 1.9 2.5 2 3 0.5-1 1.1-2.1 2.2-2.1-0.1 0.5 1.3 1.7 0.1 5.2 0.3-0.4 1.4-0.5 1.8-0.5 0.2 0.8-0.8 2.6-1.3 3.3-0.6 0.7-2.3 1.4-3.1 1.6l0.2 3.6c0.7-0.2 2.3 0.3 2.6 0.8 1.2-0.2 1.7-0.2 2.5-1.2 0.3-0.4 1-1.2 0.6-2.5-0.2-0.8-0.6-1.5-1.1-2.3 1.1 1.4 2.5 1.7 2.6 3.5 0 1.1-0.2 1.5-0.7 2.2-0.6 0.8-1.5 1.1-2.4 1.5q-0.3 0.1-0.7 0.2 0.5 0.9 0.3 1.9 0 0 0 0c-0.1 0.7-0.5 1.5-1.1 2.1-1 0.9-2.3 1-4.8 0.4 0.6-0.1 3.3-1 3.8-1.4 0.4-0.4 0.7-0.9 0.7-1.3 0.1-0.5 0-0.9-0.3-1.3-0.3-0.4-0.8-0.7-1.3-0.9-0.6-0.2-1.2-0.2-1.8 0-0.6 0.1-1.3 0.5-1.8 0.9-0.3 0.3-0.6 0.7-0.8 1.2-0.2 0.5-0.3 1.2-0.3 1.7v9.8l-1.4 2.1v-4.2h-1.5v-0.3q-0.3 0-0.5 0zm1.5 17c0-0.8 0.6-1.4 1.4-1.4 0.8 0 1.5 0.6 1.5 1.4 0 0.8-0.7 1.4-1.5 1.4-0.8 0-1.4-0.6-1.4-1.4zm3.9 0c0-0.8 0.6-1.4 1.4-1.4 0.8 0 1.4 0.6 1.4 1.4 0 0.8-0.6 1.4-1.4 1.4-0.8 0-1.4-0.6-1.4-1.4zm-5.8-3.3c0-0.8 0.7-1.4 1.5-1.4 0.8 0 1.4 0.6 1.4 1.4 0 0.7-0.6 1.3-1.4 1.3-0.8 0-1.5-0.6-1.5-1.3zm3.9 0c0-0.8 0.7-1.4 1.5-1.4 0.7 0 1.4 0.6 1.4 1.4 0 0.7-0.7 1.3-1.4 1.3-0.8 0-1.5-0.6-1.5-1.3zm3.9 0c0-0.8 0.6-1.4 1.4-1.4 0.8 0 1.5 0.6 1.5 1.4 0 0.7-0.7 1.3-1.5 1.3-0.8 0-1.4-0.6-1.4-1.3zm-4.4-4.8c0.8 0 1.5 0.6 1.5 1.4 0 0.8-0.7 1.4-1.5 1.4-0.8 0-1.4-0.6-1.4-1.4 0-0.8 0.6-1.4 1.4-1.4zm-3.9 0c0.8 0 1.5 0.6 1.5 1.4 0 0.8-0.7 1.4-1.5 1.4-0.8 0-1.4-0.6-1.4-1.4 0-0.8 0.6-1.4 1.4-1.4zm7.8 0c0.8 0 1.5 0.6 1.5 1.4 0 0.7-0.7 1.4-1.5 1.4-0.8 0-1.4-0.7-1.4-1.4 0-0.8 0.6-1.4 1.4-1.4zm3.9 0c0.8 0 1.4 0.6 1.4 1.4 0 0.7-0.6 1.4-1.4 1.4-0.8 0-1.4-0.7-1.4-1.4 0-0.8 0.6-1.4 1.4-1.4zm-9.7-3.4c0.8 0 1.4 0.6 1.4 1.4 0 0.8-0.6 1.4-1.4 1.4-0.8 0-1.5-0.6-1.5-1.4 0-0.8 0.7-1.4 1.5-1.4zm3.9 0c0.7 0 1.4 0.6 1.4 1.4 0 0.8-0.7 1.4-1.4 1.4-0.8 0-1.5-0.6-1.5-1.4 0-0.8 0.7-1.4 1.5-1.4zm3.8 0c0.8 0 1.5 0.6 1.5 1.4 0 0.8-0.7 1.4-1.5 1.4-0.8 0-1.4-0.6-1.4-1.4 0-0.8 0.6-1.4 1.4-1.4zm-3.8 13.3c0.7 0 1.4 0.7 1.4 1.4 0 0.8-0.7 1.4-1.4 1.4-0.8 0-1.5-0.6-1.5-1.4 0-0.7 0.7-1.4 1.5-1.4zm58.8-26.6c2.6 0 4.7 2.1 4.7 4.7v23.1h-7.8v-12.6c0-0.6-0.5-1.1-1.1-1.1-0.6 0-1 0.5-1 1.1v12.6h-4.3v-12.6c0-0.6-0.5-1.1-1.1-1.1-0.6 0-1 0.5-1 1.1v12.6h-6.6v-12.1c-0.9-1.4-2.2-2.8-2.3-4.5-0.1-1.3 0.5-2.8 1.8-3.6v-5.6c-1.3 0-2.2 0.3-2.5-2.4-1.7 0.4-2.6-0.1-2.6-0.7 0.2-1.6 10.2-5.4 11.9 1.6l0.7 5.6c0.6 1.2 1.1 2 2.2 2 0-1.6-0.1-4.6-0.5-6.2-0.1-2.2-1.9-4.2-3.7-5.5-1.6-1.2-3.9-2.9-6.8-2.9h-2.4c-1.1 0-1.9-0.9-1.9-1.9 0-1.1 0.8-2 1.9-2h5.8c0.9 0 1.9 0 2.8-0.2 1.3-1 1.8-3.1 3.7-3.8 1.5-0.5 2.4 0.3 3.8 1.2 0.7 0.4 1.7 2.1 1.8 3 0.3 4.2 0 8 0.9 12 0.8-1 2.2-1.8 3.6-1.8zm-38.3-5.3h1.2v-3.4c0-3.1 0.5-7.1 4.6-7.1 2.3 0 3.9 1.4 4.1 2.7v2.2q0 0 0 0l0.2-0.2c0.3-0.4 0.8-0.4 1.1-0.2 0.4 0.3 0.4 0.8 0.1 1.1l-1.3 1.6c0.8-0.6 1.9-0.7 2.6-0.1 0.9 0.7 1 2 0.3 2.8l-2.1 2.4c1 1.1 1.9 4.4-1.5 5.3v3.1l1.5 2.1h5.1l1 1.1v5.1l-1.3 3.7v10.9h-8v-12.7c0-0.6-0.5-1.1-1.1-1.1-0.6 0-1.1 0.5-1.1 1.1v12.7c-2.6 0-2.9 0-4.2 0v-12.7c0-0.6-0.5-1.1-1.1-1.1-0.6 0-1.1 0.5-1.1 1.1v12.7c-1.4 0-3.5 0-6.7 0v-11.9l1.3-1.7v-10.4l1.5-2q0.1-0.2 0.1-0.3v-2.1c0-2.6 2.2-4.7 4.8-4.7zm-7 45.2c2.2-1 4.5-2.4 7.1-2.2 3.3 0.2 6 3.1 9.1 2.9 3.3-0.2 5.5-3.4 9.1-3.3 3.7-0.1 5.9 3.1 9.1 3.3h0.1c3.1 0.2 5.7-2.7 9-2.9 2.7-0.2 4.9 1.2 7.2 2.2l-0.8 1.8c-1.9-0.9-4-2.2-6.2-2-3.4 0.2-5.7 3.1-9.4 2.9-4-0.2-5.7-3.2-9-3.2-3.2 0-4.9 3-8.9 3.2h-0.1c-3.6 0.2-5.9-2.7-9.3-2.9-2.2-0.2-4.3 1.1-6.2 2zm48 6.3c-1.4-0.6-2.8-1.2-4.3-1.1-3.4 0.3-5.7 3.2-9.3 3-4.1-0.3-5.8-3.2-9-3.2-3.3 0-5 2.9-9 3.2-3.7 0.2-6-2.7-9.4-3-1.4-0.1-2.9 0.5-4.2 1.1l-0.9-1.8c1.7-0.7 3.4-1.4 5.3-1.3 3.3 0.3 5.9 3.2 9 3h0.1c3.2-0.2 5.4-3.5 9.1-3.3 3.6-0.2 5.8 3.1 9.1 3.3 3.1 0.2 5.8-2.7 9.1-3 1.9-0.1 3.6 0.6 5.2 1.3zm-2.1 4.6c-0.7-0.2-1.4-0.3-2.2-0.2-3.3 0.2-5.6 3.1-9.3 2.9-4-0.2-5.8-3.2-9-3.2-3.2 0-5 3-9 3.2-3.7 0.2-6-2.7-9.3-2.9-0.8-0.1-1.5 0-2.2 0.2l-0.8-1.8c1-0.3 2-0.5 3.1-0.4 3.3 0.2 5.9 3.1 9.1 2.9 3.3-0.2 5.4-3.4 9.1-3.3 3.7-0.1 5.8 3.1 9.1 3.3 3.2 0.2 5.8-2.7 9.1-2.9 1.1-0.1 2.1 0.1 3.1 0.4z"/>
</svg>