<svg version="1.2" xmlns="http://www.w3.org/2000/svg" viewBox="0 0 362 576" width="362" height="576">
	<title>Veliko-Tarnovo-pdf</title>
	<style>
		.s0 { fill: none;stroke: #51369a;stroke-width: 6.8 } 
		.s1 { fill: #51369a } 
		.s2 { fill: #fff200 } 
	</style>
	<path id="Path 1" class="s0" d="m332.4 48h25.1v193.2c0 92.7-5.6 156.7-30.3 206.9-24.9 50.3-68.7 86.3-145.3 123l-1.2 0.5-1.1-0.5c-76.6-36.7-120.5-72.7-145.3-123-24.8-50.2-30.3-114.2-30.3-206.9v-193.2h25.1v-43.3h82.1v43.2h29.1v-43.2h82.1v43.2h27.9v-43.2h82.1z"/>
	<path id="Path 2" class="s1" d="m332.4 48h22 3.1v193.2c0 92.7-5.6 156.7-30.3 206.9-24.9 50.3-68.7 86.3-145.3 123l-1.2 0.5-1.1-0.5c-76.6-36.7-120.5-72.7-145.3-123-24.8-50.2-30.3-114.2-30.3-206.9v-193.2h3.1 22v-43.3h82.1v43.2h29.1v-43.2h82.1v43.2h27.9v-43.2h82.1z"/>
	<path id="Path 3" fill-rule="evenodd" class="s2" d="m332.4 48h22 3.1v193.2c0 92.7-5.6 156.7-30.3 206.9-24.9 50.3-68.7 86.3-145.3 123l-1.2 0.5-1.1-0.5c-76.6-36.7-120.5-72.7-145.3-123-24.8-50.2-30.3-114.2-30.3-206.9v-193.2h3.1 22v-43.3h82.1v43.2h29.1v-43.2h82.1v43.2h27.9v-43.2h82.1zm3.3 187.3c0 82.3-1.9 140.3-22.2 187.5-20.3 47.4-58.7 83.4-131.5 121.6l-1.3 0.7-1.2-0.7c-72.8-38.2-111.2-74.2-131.5-121.6-20.3-47.2-22.2-105.2-22.2-187.5v-130.8h3.1 38.1v-16.5h-37.9v-32.6h-18.8v185.8c0 91.5 5.3 154.4 29.4 203.2 23.9 48.4 66.6 83.4 141 119.2 74.5-35.8 117.2-70.8 141.1-119.2 24-48.8 29.4-111.7 29.4-203.2v-185.8h-18.8v32.6h-37.9v16.5h38.1 3.1zm-6.3 0v-123.4c-67.6 0.1-116.3 0.1-148.7 0.1-32.3 0-81 0-148.6-0.1v123.4c0 81.3 1.8 138.4 21.5 184.2 19.4 45.4 56.6 80.2 127.1 117.5 70.6-37.3 107.8-72.1 127.2-117.5 19.6-45.8 21.5-102.9 21.5-184.2zm-163.8 238.8q-1.7-0.9-3.5-1.9c0-3.6 2.6-4.5 2.2-7.7q-1.3-0.2-2.7-0.4c-1.1 1.9-2.3 4-3.3 6.1-0.9 0-2.2-0.9-3.9-1.1 0.7-3.2 2.3-4.1 2.7-6.9-0.9-0.1-1.8-0.3-2.7-0.3-1.1 1.6-2.3 3.1-3.4 4.8-1.3 0-3.5-0.9-3.9-1.5 8.6-12 14.9-3.8 18.2-18.8-5 0-8.3 4.9-13.1 4.9-11.5-3.5-11.5-3.5-12.8-3.5-2.1 2.2-4.1 3.6-4.6 6.7 1.3 1.1 2.5 2.3 4 3.5 0 1.6-2.4 3.9-3.8 5.5-4.6-1.8-9.5-4.1-13.6-4.5-0.9 1-0.9 1-4.1 8.8-0.5 0-1 0-1.5 0.2-4.9-4 0.1-7.2 0.6-11.8-1.5-1.6-2.8-0.9-3.8-0.8-1.1 2.2-2 4.5-2.9 6.8-2 0-3.3-2.1-4.1-2.6 0.7-3.7 5.7-7.2 3.1-10.2q-1.2 0-2.3 0c-1 2.1-2.1 4.4-3.1 6.8-0.8-0.4-1.4-0.8-2-1.1 0-5 3.3-8.2 5.5-12.2 6.4 0 21.6 13.3 21.6-1.3-5.2-5.1-5.2-16.3-5.3-21.8 12.1 2.3 20.9-3.6 25.7-14.2-7.6 1.1-18 6.5-24 10-2.9-0.8-3-2.1-3.3-3.1 3-1.9 6-3.9 9-5.7 0-8.2-9.7 1.1-11.7 2.4-3.5-1-9.7-10.3-9.7-11.7 5.6-4.7 12.8-7.4 18.7-11.9 4.7-12.4 13.9-2.8 23.5-9.5 3 1.3 6 2.7 9 4.1-1 2.4-1.6 3.9-1.9 7 32.9 24.1 24.8 20.3 68.1 6.2 10-0.9 14.6 5.2 24 6.8 0-22.8-21.6-27.1-37-14.6-1.5 3-4.5 11-9.4 9.7 0.7-1.7 0.7-1.7 1.3-6.4-12.1 0-20.5 9.2-31.3-3.8-5.4-10.8 0.6-18.7 12-14.2-9.2 15.5 7.9 15.9 19.7 12.2 27-16.7 50.3-18.1 50.3 20.8 4.3 7.2 4.5 17.6 5.1 26.7 6.6-1 5.6 6.2 7.7 13.1 1.4 0 3.8-0.3 5.6-1 1 2.4 1 2.4 1 3.7q-5.3 3.8-10.7 7.7 0 4 0 8.1c-1.2 0.3-2.2 0.5-3.3 0.9-0.6-5.7-0.6-5.7-1.2-6.3-1.1 0.1-2.1 0.3-3 0.4-0.8 2.3-0.3 4.6 0 8-2.6 1-2.6 1-4.2 0.8 0-1.9 0-3.7 0.1-5.5-0.9-0.1-1.8-0.2-2.7-0.2-1.3 1.2-0.8 4.9-0.8 7.5-0.9 0.7-1.8 1.3-2.7 2.1-0.6-4.5-1.3-8.9-1.9-13.2 3.3-2.2 6.8-4.4 10.3-6.5 0-1.7 0-1.7-2.3-7.9-12 0-12.1-2.1-18.5-9.9-9.9 1.4-7.3 2.4-5.4 9.2-2.1 3.1-7.7 9.3-7.7 13.3 2.8 1.8 2.8 1.8 4.5 2.2-0.7 2.1-0.7 2.1-3 6.1-4.7 0-8.6-4.2-12.8-4.2-0.9 1-0.9 1-2.6 6.2q-1.9-0.2-3.9-0.4c1.5-4.8 1.5-4.8 1.5-7.4-0.7-0.6-0.7-0.6-2.7-0.6-2.9 2.4-0.2 6.8-5.7 7.6 1.2-2.7 2.6-5.7 2.2-8-1-0.1-2.1-0.2-3-0.2-1.9 5.6-1.4 7.2-6.4 8.2 0.7-5.4 4-9.9 6.6-14.7 3.2-0.2 3.2-0.2 10.9 0.3 2.8-4 7.2-8.5 7.9-12.7-4.3-7.2-6.5-10.7-2.5-17.1q2.7-0.2 5.4-0.4c-0.4 2.4-2.3 10.9 2.9 11.7 3.5-3.5 3.5-3.5 7.1-5.8 0-0.5 0-0.9 0-1.3-4-3.9-5.8-9.7-7.5-13.3-10.5 0-22.2 24.3-32.6 24.3-9.2 19.5-9.2 19.5-9.2 20.8 1.1 0.6 1.1 0.6 6.3 1.2-5.2 7.4-3.5 5.2-13.4 7.1-4.9 8-4.9 8-5.5 10.2-0.1-0.3-0.3-0.4-0.4-0.6zm-6.8-33c0-3.3-4.8-6.5-6.2-7.9-4 0-5.1 8.1-0.7 9.9 2.3 0 4.2 0.3 6.9-2zm-18.1-4.1c3.2-10.4 3.2-10.4 3.8-14.6-2.8 0.4-12.3 3.4-13.1 4.2 0 4.3 0.8 7.1 5.8 10.4q1.7 0 3.5 0zm40.1-0.5c1.5-6.7 2.9-14.5-1.1-19.1-5.2 0-6.4 14.6-6.4 19.6 2.4-0.2 4.9-0.4 7.5-0.5zm-13.9-0.8c1.7-4.5 5.5-12.7 5.5-17-6.8 1.2-9.9 9.5-9.9 16.3 0.4 0.2 0.8 0.5 1.3 0.7q1.5 0 3.1 0zm82.3-24.8c-22.2-24.7-32.2-2-11.3 11.9 0.7-0.7 1.3-1.2 2.1-1.7 0-4.4-6.2-11.3-8-13.4 7.8-2.1 19 13.4 10.5 20.2 0 2.2 2.5 5.1 6.2 6.6 13 0 3.3-18.8 0.5-23.6zm-84.9-11.1c-0.9 0-1.7 0.1-2.4 0.2-2.7 7.4-11.1 16.5-4.5 24.7 9.9 0 11.9-18 6.9-24.9zm51 4.5c-8.2 2.3-8.2 2.3-27 9.2-0.2 3-0.2 7 2.1 10.7 3.1 0 23.7-14 24.9-19.9zm-66.8-10.7c-3.1-0.5-5.4 1.4-7.4 2.3-3.9 0-6.8-1.4-9.3-1.4 0.4 3.7 0.9 5.7 6.7 6.9 4.8-0.6 9-2 10-7.8zm-22.7 0.9c-4.3-0.5-4.9 1-7.7 2.6 0 1.5 0.2 1.8 2 4 5-1.7 7.2-1.8 5.7-6.6zm19.4-6.5c0-0.8 0-1.5 0-2.1-5-0.5-19.2-3.2-8.9 5.8 4.4-0.3 5.4-0.3 8.9-3.7zm-35.9-11c0-4.2-7.7-12.8-9.8-16.6-2.7 0-6.3 3.8-8.7 5.4q-0.9-1.9-1.9-3.8c2.1-2.1 4.3-4 6.4-5.9-0.1-0.9-0.1-1.8-0.1-2.7-0.5-0.2-0.9-0.3-1.3-0.3-2.3 1.8-5 4.3-7.3 4.6 0-2.8-1.5-3.7-1.5-4.7 2-1.4 4.1-2.8 6.3-4.1 0-0.8 0-1.6 0.1-2.3-8 0-6.9 7.5-10.3-1.7 3.4-1.8 11.3-8.5 14.4-8.5 2.1 3.1 4.2 6.3 6.4 9.5 9.5-1.3 9.5-1.3 12.5-2.2 0-0.5 0.1-1 0.2-1.4-9.9-3.8-14.9-7-19.9-14.9-0.6 0-1.3 0-1.8 0-1.6 1.7-2.2 2.3-3.8 2.6-4.5-3.7-16.7-13.9-20.6-13.1-3.2 8.2-3.2 8.2-4.7 10.5-4.3 0.4-4.3 0.4-6.8 1.2 0-8.1-2.1-16.5-3.8-22.8-3-6.2-9.6-7.5-12.8-11.5 0.8-1.2 1.5-2.3 2.4-3.5 3 0 9 7.9 11.7 5.2-0.7-6.1-4.8-6.3-8.3-8.4-0.2-0.5-0.3-1-0.3-1.5 0.8-1.2 1.6-2.3 2.5-3.4 1 0.8 9.2 8.8 12.2 6.5q0-1.8 0-3.5c-5.4-3.2-5.4-3.2-9.7-6.4 0.8-1.5 1.7-2.7 2.6-4 0.5 0 20.4 11.3 21.8 13.7-0.5 2.7-0.9 5.4-1.3 8.2 8.3 1.2 16.2 1.7 25.4 4.9 0 5.4 0.9 34.2 15.6 31.2-0.1-4.5-0.1-9-0.1-13.3 1.5 0 3.1 0 4.6 0.1 1.2 3.6 0.9 9.9 1 14.9 0.8 0.7 4.2 0.8 6.5 0 0-4.8 0-9.5 0-14.1 1.3-1.3 2.2-0.8 4.6-0.9 0.1 4 0.2 7.9 0.5 12 15.8 0 13.5-10.7 11.7-20.1 0.9-0.1 1.8-0.1 2.8-0.1 1.8 3.9 1.3 7 5.9 7.9 12.6-15.4 11.7-16.9-0.7-27.2 9.8 0 10.2 1.5 19.9 8.6 0 6.4-15.1 20-5.4 29.7 18.2 0 38.4-8.9 24.5-28 9.1 0 8.5-0.7 12.3 9 0.5 0 1.2 0.1 1.8 0.2 12.1-14 27.8-17.1 46-18.2 2.3-5.4-1.8-5.6-2.7-8.5 2.2-0.9 4.1-2.8 7.1-2.2 1.5 6.3 2.5 11.3 6.7 17.7 0.5 0 1 0 1.6 0 2.5-7.5 4.5-18.1 14.7-11.8-10.7 5.3-11.2 17.4-5.7 28.4 13.4 0 16.2-26.1 8.4-33.9-7.9-3.7-18.8-10.1-26.7-10.1-41.3 22.2-68.1 40-102.5-0.2 2.7-0.2 5.4-0.5 8-0.6 30 31.6 60.8 10.1 93.9-5.2 1.3-0.9 2.6-1.7 3.9-2.5 5.9 2.4 12.4 5.8 20.2 7.7 0-26.5-25.5-23.1-40.8-13.4-3.7 4.5-12.3 21-18.8 20.1 3.2-8.3 3.2-8.3 3.4-9.9-4 0-13.3 7.2-15.9 8.7-49.3 12.3-45.7-38.8-17.1-29.3-15 30.1 31.4 15.6 43.7 5.3 14.8-7.5 23.9-14.5 41.6-9.9 1.5 1.2 6.2 6 9.5 6 0.8-2.9 1.5-5.9 2.3-8.7 1-0.3 1-0.3 6.7 0.9-1.5 8.2-7.3 27.3-4.6 35.6 1.8 0.7 3.6 1.5 5.5 2.3 0.1 3.2-1.5 23.4-1.5 30.3 6.1 3.1 10.9 4.9 15.1 7.2 0 6.8-5.6 13.4-5.1 22.5 1.6 0 3.3 0.1 5.1 0.2-0.1 3.6-0.2 7.2-0.2 10.8-0.3 0.1-0.6 0.3-0.7 0.4-4.6-4.6-22.6 7.5-26.3 11.2-4.3 8.6-4.3 8.6-4.9 9-2.1-1.8-3.2-2.3-4.2-2.6 1.1-4.9 3.8-7.5 4.2-11.9-3.5 0.6-4.5 3.9-6.4 7.1-0.7 0-1.2 0.2-1.7 0.3-0.9-0.9-1.8-1.7-2.7-2.4 2.2-3.5 4.9-7.4 5.4-10.7-1.8-0.9-2.1-0.4-3.2-0.3-1 1.7-3.2 6.7-5.1 7.4q-2-1.2-3.9-2.3c-0.1-0.6-0.3-0.9-0.3-1.3 11.9-13.3 9.5-11.5 27.8-14.4 1.4-5.4 1.4-5.4 1.8-9.3-0.5-0.6-10.8-3.2-19.4-6.6-4.8-3.9-5.7-7.7-7.6-11.7-0.5-0.2-1-0.3-1.4-0.3-6.7 11.6-8.9 11.7-8.9 24.3-2.1 1.7-2.1 1.7-4.8 4.6-1.2-1.3-1.2-1.3-2.6-1.5-1.3 1.9-2.3 2.5-2.8 5 4.1 3.4 3.3 3.7-1.1 9.2-9-0.5-16.8-1.6-24.9-0.9-2.2 0.9-12.4 8.6-13.7 8.9-1.6-3.9-1.6-3.9-1.9-6 2.3-1.5 8.4-4.2 8.9-7-2.1-2.2-9.7 2.8-11.3 3.6-1.6-2-1.6-2-1.9-3.6 16.2-8.5 10.4-9-1.9-4.1-1.4-2.2-2.6-3.3-2.2-4.9 6.9-2.7 16.1-8.7 24-7.9 14.9 4.7 10.3 5.4 20.3-8.8-1.9-8.3-3.3-12.6-2.3-20.1-18 5.1-29.3 20.4-42.8 32.3-6.9 1.2-13.8 2.3-20.6 3.5-0.7 1-0.7 1-2.1 15-17.2 2-35.3 5.9-51.9 9 0 2.7 2.3 4.9 2.3 8.4-2.2 1.8-4.2 3.6-6.3 5.5q-0.2-0.2-0.4-0.4zm12.6-22.7c-0.4-4.3-0.4-4.3-1-5-7.7 1.2-7.7 1.2-14.1 3-0.3 1.4-0.3 1.6 1.3 3.9 1.8 0 12.7-0.8 13.8-1.9zm171.6-4.8c-0.1-0.6-0.1-1.3-0.1-1.9q-7.1 1-14.3 1.9c-0.2 1.3-0.6 1.7 1.3 3.6 3.1-0.4 3.1-0.4 13.1-3.6zm-138-18c-6.5-0.7-21.2 9.4-27.1 12.5 0.5 2.6 0.5 2.6 2 5.3 12.9 0 28.8-2.6 25.1-17.8zm69.7 11.9c-5.3-1.3-10.9-3.3-14.9-3.3 0.2 2 1.3 5.7 5 7.1 4.2-0.3 10.9 1.9 9.9-3.8zm6.3 0.2c4.5-4.9 8.3-7.7 5.6-13.1-3.6 0.9-7.4 6.7-7.9 10.9q0.9 1 1.9 2c0.1 0 0.3 0.1 0.4 0.2zm63.3-3.1c0.7-2.8 1-6.4 1-9-0.7 0-1.4 0-2 0-1.8 2.5-1.9 5.2-2.5 9 0.6 0.2 1.1 0.4 1.6 0.7 0.4 0.2 0.4 0.2 1.9-0.7zm2.6-17.6c-0.2-0.7-0.3-1.4-0.3-2-6.4-2.9-12.7-7.7-14.1 1.3 3.8 0.5 5.5 1.4 10.4 3 2.2-0.2 2.3-0.1 4-2.3zm-188.4 0.7q-2-1.8-3.9-3.5c-0.3-37.9-0.3-37.9-0.8-43.4-2.7-1.3-3.6-1.7-4.8-1.4-0.3 6-0.6 12.1-0.7 18.1-2.2 1.7-2.2 1.7-4.9 2.9-0.4-7.4-0.6-14.9-0.9-22.3 1.4-0.1 2.9-0.1 4.4-0.1 0-4.4-3.7-7.7-3.7-12.6-3.1-2.1-6.1-4.1-9-6.1 0.8-5.5 3.3-10.1 6.3-14 4.3 0 9.9 2.7 14.9 2.2 12-6.9 20.9-4.2 33.9 0.8 3.1-0.3 6.7-2.6 10.3-2.6 3.4 4.5 3.4 4.5 6.9 10.2-3.5 5.2-14.9 11.8-13.4 21.2 1.8 0 3.8 0.1 5.7 0.2 0.2 15.4-1.4 18.8 6.2 31.7-1.5 2-2.9 4-4.2 6.1-8.4-16.1-8-19.9-8.9-37.8-3.1 0-3 0.4-5.2 1.7 0 15.1 1.4 30.4 3.6 46.4-1.3 0.6-2.4 1.4-3.6 2.1-0.5-3.3-0.9-6.6-1.3-9.8-6.4-0.3-6.4-0.3-24.9 0.1-1.5 1.9-0.9 6.8-0.8 10.1-0.5-0.1-0.9-0.2-1.2-0.2zm142-16.1c-2.4-0.5-4.2 1.3-6.5 1.3-0.8-1.5-1.6-3.1-2.2-4.5-0.7 0-1.3 0.1-1.9 0.3-2.8 5.4-2.6 10.6 2.4 17.3 1.7 1 7.8-12.3 8.2-14.4zm-159.6 7.5c1-2.6 0.5-6.1 0-7.2-7.4-1.8-14.3-4.1-20.5-4.1-0.9 1.4-0.9 2-0.9 4.7q9.9 3.3 19.7 6.6c0.5 0 1 0 1.7 0zm-28.5-0.5c1.7-6.8 4.1-12.6 4.6-18.9-7.4-1.8-6.6 15.5-6.6 18.7 0.7 0 1.3 0 2 0.2zm68.9-12.5c-0.1-1.9-0.1-3.9-0.1-5.7-2.6 0-2.4 0.7-3.9 2.4-5.5-0.9-13.2-1.8-17.6-1.8 0 1.9 0 3.8 0.2 5.9 0.5 0.1 1 0.4 1.5 0.6 4.9 0 14.8 1.7 19.9-1.4zm-14.5-8.6c-0.1-1-0.3-1.9-0.3-2.8-2.9-0.9-2.9-0.9-6.4-0.9-0.1 1.9-0.2 3.8-0.4 5.9 6.5-1.6 6.5-1.6 7.1-2.2zm13.5 1c0.9-1.8 0.5-4.7 0-5.5-1.7 0-1.7 0-6.9 1.5 0 1.1 0 2.1 0.1 3.1 1.7 0.3 3.3 0.5 5.1 0.9 0.5 0 1 0 1.7 0zm-6.4-10.6c0.6-3.3-2.2-7.4-3-9.2-0.8 0-1.4 0.2-2 0.3-2.1 3.6-3.1 4.4-3.1 8.9q4 0 8.1 0zm6-2.2c0.5-1.9 0.5-1.9 1.3-13.9 5.5-0.4 7.7-3.3 7.7-8.6-13-1.3-17.5 12.5-10.8 22.5 0.5 0 1.2 0 1.8 0zm-17.6-1.3c7.7-12.6 0.7-20.3-11.2-20.3 0 5.7 1.2 8 8.6 8.5 0.6 8.6 0.6 8.6 1.3 12 0.4-0.1 0.8-0.2 1.3-0.2zm81.1-6.1c0-0.5 0-1 0.1-1.4-15.4-8.3-16.6-4.6-13.5-24-11.3 2.2-7.3 24.2 8.6 25.8 1.5-0.1 3.1-0.2 4.8-0.4zm-57.8-21.5c-0.4-1.1-0.8-2.1-1.1-3.1-10.4-4.8-19-5-28.1 1.3 0 0.6 0 1.4 0 2.2 4.1 1.5 8.2 4.8 13.6 7.4 2.1-0.6 12.7-6.2 15.6-7.8zm-39.5 1.3c1.7-2.6 1.6-3.5 1.6-5.4-3.4-1.8-3.4-1.6-5.4-1.6-1.3 2.5-1.4 3-1.4 6.3 0.5 0.3 1 0.5 1.6 0.8 1.2-0.1 2.3-0.1 3.6-0.1zm23 0.1c-1.8-0.8-3.5-1.6-5.1-2.3 4.1-0.4 8.3-1.6 13.3-0.5-2.5 1.1-5.6 2.8-8.2 2.8zm29.8-2.3c-0.1-2.9-0.1-2.9-1-4.4-3.4-0.3-3.6 0-5.4 1.4 0 1.9 0 2.5 1.9 5.3 1.4-0.3 3-0.4 4.5-2.3zm76.6-15.1c1.4-4.6 3.3-13.3 6.4-15.6 7.8-2.1 7.8-2.1 8.3-2.7-0.7-3.5-1.5-7-2.1-10.3-18.2-10.7-25.7-11.2-27.4 13.7 2.2 1.4 4.5 2.9 6.8 4.3-0.3 2.1-0.4 4.5-2.3 6.4-7.1-4-15.7-0.5-21.8 1.4-0.7-0.9-1.2-1.8-1.7-2.7 2.2-2.2 5.4-2.6 9-3.7 0.1-0.5 0.2-1 0.4-1.4-5.3 0-7.9 1.1-11.6 2.3-0.6-1.4-0.6-1.4-0.5-2.3 2.6-1.2 5.1-2.2 7.8-3.2-0.1-0.6-0.1-1.1-0.1-1.6-4.2 0-6.8 1.6-9.8 1.6-0.9-1.3-0.9-1.3-0.9-2.9 5.3-2.3 9.4-2.4 15.7-2.9 2.8-13.3-14.3-33.4 10.5-35.5 8.1 2.6 8.1 2.6 9.2 2.5 0-0.7 0-1.3 0-1.8-3.9-3.2-7.1-5.8-11-5.8-16.9 9.5-49.3 30.2-42.6 52.5-1.2 2-2.2 4-3.2 6.1-0.5 0-0.9 0-1.3 0.1-12.7-11.6-15.9-6.4-28.8-10 3.1-3.5 6.3-6.8 9.5-10.2 2.2 0 2.2 0 9.4 2.2 1.3-2.7 1.7-3.8 1.9-5.8-2.7-0.2-16 1.6-23.3 2-2.7-3.1-3.4-3.5-5.6-3.5-2.3 2.8-4.1 3.1-4.1 7.2 0.7 0.6 2.2 1.3 2.2 3.4-3.5 3.5-13.2 0.2-17.8 0.2-1.6 1.5-3.1 3.1-4.7 4.7-2.4-0.9-3.3-1.6-3.8-2.4 1.8-2.1 3.2-3.4 3.6-5.9-0.8-0.1-1.6-0.3-2.3-0.3-1.3 1.3-3.1 3.5-4.4 3.5-0.6-0.7-1.2-1.3-1.7-1.9 1.4-1.7 3-3.3 4.5-4.8-0.2-0.8-0.5-1.5-0.6-2.2-0.8-0.1-1.6-0.2-2.2-0.2-3.5 3.4-4.1 5-7.2 1.9 11.6-17.3 10.3-6.2 21.3-4.9 3.5-3.5 3.5-3.5 6.7-7.8-5.5-18.6-1.1-18.3 14.4-24.3 0.8 1 1.7 2.2 2.6 3.3 5.1-0.7 9.3-10.1 10.6-14.6 5.9 12.5-3.7 15.5-7.9 28.3-0.2 4.2-0.3 8.4-0.4 12.8 0.5 0.5 3.3 0.9 5.1 0 0-19.1-0.1-19.3 12.1-32.1 0.5-4.9-5.4-15.2-8-15.8-3.3 4.7-3.3 4.7-7.2 8.6-2.5 1.7-25.3 13.5-27.1 13.1-0.9-1.3-1.8-2.6-2.5-3.8 0.9-1.1 0.9-1.1 8.2-4.5-0.2-0.7-0.2-1.3-0.2-2-4.2 0-8 2.3-11 2.3-2.1-3.7-7.1-10.5-6.5-13.8 8.6-4.8 16.4-7.5 21.5-16 6.1-6 13.6-0.1 20.2-6.6 3 1 5.9 2 9 3 0.1 2.1-1.9 4.8-1.3 7.8 0.8-0.2 1.7-0.3 2.6-0.4 15.3 35.7 27.3 26 62.1 9.7 8.1 1.7 18.7 5.7 28.3 5.7 2.7-4.1 0.6-8.4-1-11.3-18.9-16.5-35.4 0.9-50 11.9 0-1.3 1-2.9 1.3-5.5-12 1.8-20.6 3.2-28.8-5.9-3.7-9.4 0.8-11.2 9.5-11.7 2.6 23.9 35.3 2.2 45.9-2.1 25-4.4 32.3 10.3 30.2 32.9 1.9 5.9 3.4 13.5 3.8 20.7-2 2.3-10.3 9.8-1 8.7 4 16.1 4 16.1 4.7 17.1 2.5-0.4 5-0.8 7.6-1 0 2.4-0.9 4.9-2 8-3.4 0.5-6.7 1-9.9 1.6-1.4 2.2-3.5 7-7.7 5.8 0.9-1.9 0.9-3.2 0.9-4.2-0.9-0.2-1.8-0.3-2.6-0.3-0.7 0.7-0.7 0.7-2.2 6.4-1.7 0.4-3.2 0.8-4.7 1.2 1.5-5.2 1.5-5.2 1.2-6.3-0.7 0-1.4 0-2 0-3.7 5.6-0.8 6.8-8.2 9.6zm-71.1-13.6c-0.1-0.5-0.1-1-0.1-1.5-6.8-4.8-7.4-4.4-11.8-0.7 0 0.7 0.1 1.3 0.3 2 7.7 0 7.7 0 9.3 0.3 0.8-0.1 1.6-0.1 2.3-0.1zm6.5-1.3c2.5-3.6 4.7-10.9 5.6-15-5.6-0.5-10.5 11.6-7.4 15.2 0.5-0.2 1.1-0.2 1.8-0.2zm-48.6-5.4c1-4.1-7-5.2-8.8-5 0.3 2 2 3 4.4 5 1.5 0 2.9 0 4.4 0zm136.9-1.1c-0.4-3.4-0.4-3.4-1.8-8-2.3 0-2.4-0.1-3.3 0.8 0 2.2-0.1 4.7 2 7.8 2.6 0 2.6 0 3.1-0.6zm-127.5-9.7c-4.4-3.2-9.3 6.1-5.9 7.8 4.5 0 5.9-3.3 5.9-7.8zm31.1-3.2c-7.7-10.8-0.9-19.2 7.7-24.8-0.2-0.9-0.2-1.6-0.2-2.4-12.9 1.5-20 19.4-11.1 30.1 2-0.6 3.6-0.3 3.6-2.9zm64.3-6.8c-2.6-10.5-14.2-5.9-10.5 7.5 0.4 0.2 0.4 0.2 10.5-7.5zm-90.3-11.7c-11.8 1.5-6.5 11-0.4 17.5 5.9 0 2.5-14 0.4-17.5zm40.4-3.2c-9.2 1.4-17.4 14.8-4.7 19.8 9.5 0 5.7-15.5 4.7-19.8zm70.7 16.3c7.1-10.4 5.4-11.4 3.9-23.1-7.2-5-18.8-10-26-10-0.7 3.5-0.6 5.5-0.6 9.6 1 0.7 9 7.2 11.3 4.9-1.2-3.7-5-5.1-6.9-6.4 4.3-3.6 10.2-1.7 12.9 4.4 0 12.2-13.3 12 2.9 20.6 0.7 0 1.6 0 2.5 0zm-30.8-29.8c-4.1-0.6-27.6 10.8-31.3 12.2-0.3 3 0.3 5.7 1.2 9.6 6 0 30.6-14.6 30.1-21.8zm-92.9-4.2c-0.3-1.7-0.6-3.2-0.9-4.8-4.1-0.3-5.2 0-7.7 2.2 0.4 2.2 0.4 2.2 2 4.9 2.1-0.4 4.1-0.9 6.6-2.3zm22.1-7.7c-7.5 0.4-11.8 3.3-16.7-2.8-0.5 0-0.9 0-1.3 0-2.9 4.5 1.2 8.6 6.5 10.6 5.5-0.2 11.5 0 11.5-7.8zm-1.8-9.2c-4.1-1.1-6.1-0.7-9.6-0.7-1.2 1.6-1 2.6-1.3 5.1 1 0.8 2.1 1.6 3.2 2.4 5 0 7.7-1.8 7.7-6.8zm-30.1-133.9h-69.5v68.3h69.5zm-13.8 12.6v43.2h-42v-43.2zm125-12.6h-69.5v68.4h69.5zm-13.8 12.5v43.2h-42v-43.2zm123.8-12.5h-69.5v68.3h69.5zm-13.7 12.6v43.2h-42v-43.2zm-90 55.7h27.9v-25.1h-27.9zm-46.1 364c-2 0.2-3.9 0.3-5.8 0.6-1.8 3-1.8 6.9-2 11 6.1-0.5 7.8-6.2 7.8-11.6zm-103-340h49.3v-16.5h-49.3zm55.6 0h49.3v-16.6h-49.3zm55.5 0h48.2v-16.5h-48.2zm54.5 0h49.3v-16.5h-49.3zm-17.6 338.2c-3.7-2.8-8.1 6.5-8.1 9.6 0.6 0.2 1.1 0.4 1.7 0.7 3.7-0.9 6.4-6.7 6.4-10.3zm-110.1-362.2h29.1v-25.1h-29.1zm-26.4-48.3h-29.4v28.3h29.4zm111.2 0h-29.4v28.2h29.4zm110.1 0h-29.5v28.3h29.5zm-44.6 405.3c-2.1 0.2-2.1 0.2-3.6 1 0.4 3.1 0.4 3.1 2.9 9.6 5.7-0.4 1.4-8.7 0.7-10.6z"/>
</svg>