<svg version="1.2" xmlns="http://www.w3.org/2000/svg" viewBox="0 0 555 733" width="555" height="733">
	<title>Gabrovo-svg</title>
	<style>
		.s0 { fill: #ffffff;stroke: #000000;stroke-width: 1 } 
		.s1 { fill: #fcc94a;stroke: #fcc94a } 
		.s2 { fill: #fcc94a;stroke: #000000;stroke-linecap: square;stroke-width: 3 } 
		.s3 { fill: #ffffff;stroke: #000000 } 
		.s4 { fill: #000000;stroke: #ffffff;stroke-width: 1.2 } 
		.s5 { fill: none } 
		.s6 { opacity: .7;fill: none;stroke: #000000;stroke-width: 3 } 
		.s7 { fill: #e42f34;stroke: #fcc94a;stroke-width: 20 } 
		.s8 { fill: #ffffff;stroke: #ffffff;stroke-linecap: square;stroke-linejoin: round } 
		.s9 { fill: #e42f34;stroke: #e42f34 } 
		.s10 { fill: #000000 } 
		.s11 { fill: #ffffff;stroke: #ffffff } 
		.s12 { fill: #3b64af } 
		.s13 { fill: #fcc94a;stroke: #fcc94a;stroke-width: 1 } 
		.s14 { fill: #e42f34;stroke: #e42f34;stroke-width: 2 } 
	</style>
	<g id="layer1">
		<g id="g5830">
			<g id="g4936">
				<path id="path8481" fill-rule="evenodd" class="s0" d="m109.7 162.6l-65-35.3 32.1-11.9-8.1-33.6 64.9 35.3z"/>
				<path id="path8488" fill-rule="evenodd" class="s0" d="m418.7 117.9l65-35.3-8.1 33.7 32 11.8-64.9 35.3z"/>
				<path id="path7595" fill-rule="evenodd" class="s1" d="m183.2 58.4l64-6.6 6.9 120.1-51.4 5.4z"/>
				<path id="path8470" fill-rule="evenodd" class="s1" d="m353.2 176.3l-51.4-5.3 6.9-120.1 64 6.6z"/>
				<path id="path10257" fill-rule="evenodd" class="s2" d="m166.1 64.7l15-11.8 26.4-2.5-1.2-12.2 5.7-0.6 5.7-0.5 1 12.3 26.4-2.5 17 8.8-48.6 4.6z"/>
				<path id="path10380" fill-rule="evenodd" class="s2" d="m341.7 60.3l-48.6-4.6 17-8.8 26.4 2.5 1-12.3 5.7 0.5 5.7 0.6-1.3 12.2 26.5 2.5 15 11.8z"/>
				<path id="path10289" fill-rule="evenodd" class="s2" d="m439.8 47.4l-48.7 164.8-21.9-5.1-21.8-5.1 29.7-169.3"/>
				<path id="path10301" fill-rule="evenodd" class="s2" d="m310.5 24.7l-9.8 171.5h-22.4-22.4l-9.8-171.5"/>
				<path id="path10376" fill-rule="evenodd" class="s2" d="m177.7 32.7l29.7 169.3-21.9 5.1-21.8 5.1-48.7-164.8"/>
				<path id="path10291" fill-rule="evenodd" class="s2" d="m410.5 39.9l-47.5-11.1 5.2-22.4 15.6 3.7-2.8 12.2 25.8 6.1 2.8-12 5.5 1.3 5.6 1.3-2.9 11.9 25.8 6.1 2.9-12.2 15.6 3.7-5.2 22.3z"/>
				<path id="path10303" fill-rule="evenodd" class="s2" d="m229.2 24.3v-22.9h16l0.1 12.5h21.1l-0.1-12.3h12 12l-0.1 12.3h21.1l0.1-12.5h16v22.9h-49.6z"/>
				<path id="path10378" fill-rule="evenodd" class="s2" d="m99.8 50.8l-5.3-22.3 15.6-3.7 2.9 12.2 25.9-6.1-2.9-11.9 5.5-1.3 5.6-1.3 2.7 12 25.8-6.1-2.8-12.2 15.6-3.7 5.2 22.4-47.4 11.1z"/>
				<path id="path12148" fill-rule="evenodd" class="s3" d="m276.8 146.5c-45.5 0.1-79.6 13-118.1 19.4-38.4 6.3-47.7 4.1-68.5 5.2 1.3-11.3 6-44.8 7.7-54.2 20.7-1 30 1.2 68.4-5.2 38.4-6.4 71.7-19.2 111.1-19.4 39.4 0.2 72.7 13 111.1 19.4 38.4 6.4 47.7 4.2 68.4 5.2 1.7 9.4 6.4 42.9 7.7 54.2-20.8-1.1-30.1 1.1-68.5-5.2-38.5-6.4-80.6-19.3-119.3-19.4z"/>
				<path id="text11088" fill-rule="evenodd" class="s4" d="m107.4 160.3l-0.3-28.7-6 0.2-0.1-5.9 16-0.4 0.1 5.9-6 0.1 0.4 28.7zm12.6-0.1l-0.7-34.5 6.5-0.3q3.7-0.1 4.8 0.3 1.8 0.8 3 3.3 1.3 2.6 1.3 6.7 0.1 3.7-0.8 6.3-1 2.6-2.5 3.7-1.4 1-5.1 1.2l-2.7 0.1 0.3 13zm3.4-28.8l0.2 9.8 2.3-0.1q2.2-0.1 3-0.6 0.8-0.5 1.3-1.6 0.5-1.2 0.5-2.9 0-1.7-0.6-2.9-0.6-1.2-1.4-1.5-0.7-0.4-3.3-0.3zm20 17.5l-8.9-23.8 4.6-0.5 5.7 17.2 3-18.3 4.1-0.5-5.1 26.9q-0.9 5-2 7.1-1 2-2.7 2.2-1.5 0.2-2.8 0l-0.3-5.2q1 0 1.5-0.1 1.5-0.1 2-1.1 0.6-0.9 0.9-3.9zm27.6-0.5l1.7-0.3 1.2 13.2-3.3 0.6-0.7-7.4-12.6 2.2 0.7 7.5-3.3 0.6-1.2-13.3 1.6-0.3q0.7-3.7 0.8-8.9 0-5.2-0.9-15.3l-0.4-4.5 13.8-2.5zm-6.1-22l-6 1.1q1.4 15.2 0.5 23l7.6-1.4zm6.3-1.2l-0.6-5.7 9.9-2.2 1.5 13.6 5.7-1.2q3.1-0.7 5.3 1.8 2.2 2.5 2.7 7.1 0.4 3.9-0.8 7.3-1.2 3.5-5 4.3l-9.7 2.1-3-28.4zm11.4 11.5l1 9 4.2-0.9q1.7-0.4 2.4-0.9 0.7-0.5 1.1-1.7 0.4-1.2 0.2-2.7-0.5-4.6-4.5-3.7zm25.2 9.5l-3.6-34.1 3.8-0.8 2.4 22.8 5.6-24.4 4.1-0.9 3.6 34.1-3.9 0.8-2.3-22.2-5.7 23.9zm31.8-6.2l-4 0.6-2.6-34.3 16-2.3 2.6 34.2-4 0.6-2.2-28.5-7.9 1.2zm14.7-19.3q-0.3-6.1 0.9-10.2 1.1-4.1 3.1-6.2 2.1-2.1 5-2.3 4.3-0.3 7.2 4.1 2.9 4.4 3.2 13 0.4 8.6-2.3 13.7-2.4 4.5-6.7 4.8-4.4 0.3-7.1-3.7-3-4.7-3.3-13.2zm4.1-0.5q0.3 5.9 2 8.8 1.7 2.8 4.1 2.7 2.3-0.2 3.8-3.3 1.5-3 1.2-9.1-0.2-6-1.8-8.8-1.7-2.7-4.1-2.6-2.5 0.2-4 3.2-1.4 3-1.2 9.1zm32.2 3.6l3.9 2.2q-1 5.8-3.2 8.4-2.1 2.6-5.3 2.6-3.9-0.1-6.3-4.4-2.8-4.9-2.7-13.3 0.1-8.8 3-13.8 2.5-4.2 6.6-4.2 3.4 0.1 5.7 3.4 1.6 2.3 2.3 6.9l-4.1 1.5q-0.3-2.8-1.5-4.3-1.1-1.5-2.6-1.5-2.3-0.1-3.7 2.6-1.4 2.7-1.5 9 0 6.5 1.3 9.3 1.3 2.8 3.5 2.8 1.6 0.1 2.8-1.7 1.2-1.7 1.8-5.5zm11.8 13.5l1.3-28.6-5.9-0.5 0.2-5.9 16 1.5-0.3 5.8-5.9-0.5-1.4 28.6zm13.2-15.8q0.5-6.1 2-9.9 1.7-3.8 3.9-5.4 2.2-1.6 5.2-1.1 4.3 0.6 6.6 5.6 2.4 5.1 1.7 13.6-0.7 8.6-3.9 13-2.9 3.9-7.2 3.2-4.3-0.7-6.5-5.3-2.5-5.3-1.8-13.7zm4.2 0.4q-0.5 5.9 0.9 9.1 1.3 3.2 3.7 3.6 2.4 0.4 4.2-2.3 1.8-2.7 2.2-8.8 0.5-6-0.8-9.1-1.3-3-3.8-3.4-2.4-0.4-4.2 2.2-1.8 2.7-2.2 8.7zm29 22.6l1.4-14.3-0.8-0.2q-1.4-0.2-2 0-0.7 0.3-1.4 1.2-0.6 0.9-2.6 4.6l-3.7 6.9-4.8-1 3.1-6.2q1.9-3.7 2.9-5.1 1-1.3 2.4-2.4-2.5-1.1-3.6-3.8-1.1-2.8-0.7-6.8 0.3-3.1 1.4-5.2 1.2-2.1 2.7-2.8 1.4-0.6 4.7 0l8.5 1.7-3.5 34.2zm2.9-28.4l-3.2-0.6q-2.7-0.6-3.3-0.4-0.8 0.2-1.4 1.1-0.5 0.9-0.7 2.5-0.2 1.7 0.2 2.8 0.4 1.2 1.1 1.6 0.7 0.5 3.4 1.1l3 0.6zm5.2 30l3.7-34.1 4 0.9-1.4 13.4 7.9 1.7 1.4-13.4 4 0.9-3.7 34-4-0.8 1.6-14.9-7.8-1.7-1.7 14.9zm34.1-5.6l3.7 2.9q-1.5 5.6-3.9 7.8-2.4 2.2-5.5 1.5-3.9-0.8-5.9-5.5-2.2-5.4-1.4-13.7 0.9-8.7 4.2-13.1 2.9-3.7 7-2.9 3.4 0.7 5.3 4.4 1.4 2.6 1.6 7.2l-4.1 0.8q-0.1-2.8-1.1-4.5-1-1.7-2.5-2-2.2-0.5-3.9 1.9-1.6 2.4-2.3 8.6-0.7 6.5 0.4 9.5 1.1 3 3.2 3.4 1.6 0.4 3-1.1 1.3-1.5 2.2-5.2zm10.5 14.8l2.6-28.4-6-1 0.5-5.8 15.9 2.8-0.5 5.8-5.9-1.1-2.5 28.4zm14.5-32.1l8 0.9q3.3 0.4 4.6 1.3 1.3 1 2.1 3.3 0.8 2.2 0.6 4.9-0.1 2.5-1 4.4-0.9 1.9-2.2 2.8 1.7 1 2.6 3.3 0.9 2.3 0.7 5.4-0.2 3.7-1.6 6.2-1.5 2.4-3.3 2.8-1.2 0.3-5.6-0.2l-6.9-0.8zm3.7 6.2l-0.4 8 2.7 0.3q2.4 0.3 2.9 0.2 1.1-0.1 1.7-1 0.7-1 0.8-2.7 0-1.5-0.4-2.5-0.4-1-1.1-1.3-0.6-0.3-3.8-0.7zm-0.8 13.7l-0.5 9.2 3.7 0.4q2.5 0.3 3.2 0 0.7-0.3 1.3-1.3 0.5-1 0.6-2.7 0.1-1.7-0.4-2.8-0.4-1.2-1.2-1.7-0.8-0.5-3.4-0.8zm14.7-0.4q0.1-6.2 1.5-10.1 1.3-4 3.4-5.9 2.2-1.9 5.1-1.8 4.4 0.1 7 4.8 2.7 4.7 2.5 13.3-0.1 8.6-3 13.4-2.6 4.3-6.9 4.1-4.4-0.1-6.9-4.4-2.8-4.9-2.7-13.4zm4.2-0.2q-0.1 6 1.5 9 1.6 3 3.9 3.1 2.4 0.1 4-2.8 1.7-3 1.7-9.1 0.1-6-1.4-8.9-1.5-2.9-3.9-3-2.5 0-4.1 2.8-1.6 2.9-1.7 8.9z"/>
				<path id="path11116" class="s5" d="m51.8 162.4c24.9-1.1 36.1 1.1 82.3-5.3 46.3-6.3 85.3-14.9 132.7-15.1 47.4 0.2 88.6 8.8 134.9 15.1 46.2 6.4 57.4 4.2 82.3 5.3"/>
				<path id="path3226" class="s6" d="m204 171.7l49.9-6.5"/>
				<path id="path4101" class="s6" d="m303.1 165.5l49.8 6.9"/>
			</g>
			<path id="path39827" class="s7" d="m275.4 722.1c-40.9-12.9-58.3-19.3-94.5-40.7-35.6-20.9-117.7-97-130.8-144.9-5.5-36.9 2.2-113.1 0.9-159.6-0.5-21.8-0.8-73-38.3-127.8l53.7-60.7c37.2 9.7 57.5 7.7 80.2 4.2 32.8-5.1 82.4-17.9 130.7-17.9 48.4 0 97.9 12.8 130.7 17.9 22.8 3.5 43.1 5.5 80.3-4.2l53.6 60.7c-37.4 54.8-37.7 106-38.3 127.8-1.2 46.5 6.5 122.7 1 159.6-13.1 47.9-95.3 124-130.8 144.9-36.3 21.4-53.6 27.8-98.4 40.7z"/>
			<path id="path9363" fill-rule="evenodd" class="s8" d="m107.1 432.4v-22.7h67.2l62.5-6.5 9.7-11.2 29.4-11.5 29.4 11.5 6.8 10.8 64.7 6.9h67.9v22.7h-169z"/>
			<path id="path1516" class="s1" d="m113 409.6c-0.8-0.8-0.9-11 0-14.2 0.6-2.3 0.8-2.4 9.4-1.7l8.7 0.6 1.6-6.4c0.9-3.6 1.6-7.2 1.6-7.9 0-1-2.6-2.1-7.7-3.3-9.1-2.2-9.5-3-6.2-11.7 2-5.4 2.3-5.7 5.4-5.7 1.9 0 4.7 0.5 6.2 1.1 8.2 3.2 7.9 3.3 11.8-3.7 1.9-3.6 3.5-6.9 3.5-7.3 0-0.5-2.9-2.4-6.5-4.3-7.7-3.9-8.1-5.7-3.3-12.4 3.9-5.5 6-5.6 14.4-0.9l6.3 3.5 5.1-5.7c2.8-3.2 4.9-6 4.8-6.4-0.5-1.3-35-33.4-36.2-33.7-0.7-0.2-5.2 3.3-10.1 7.7-5 4.4-9.8 8.1-10.8 8.1-3 0-17.7-13.8-17.7-16.5 0-1.8 4.9-6.6 20.3-20.1 11.1-9.8 21-18.4 22-19.3 1.2-1 4.1-1.6 8.5-1.7 3.7 0 10.8-0.4 15.8-0.9 9.7-0.8 13.4 0.1 13.4 3.3 0 1-5.9 6.9-13.5 13.7-7.4 6.5-13.4 12.1-13.2 12.4 0.8 1.8 35.7 35.2 36.4 34.9 2.5-1 13.3-8.2 13.3-8.8 0-0.4-1.5-2.8-3.5-5.3-5.3-6.9-4.8-8.9 2.9-12.7 7.8-3.9 9.1-3.4 13.8 4.5 1.8 3 3.8 5.5 4.4 5.5 2.6 0 13.6-4.4 14.1-5.6 0.3-0.7-0.2-3.6-1.2-6.3-2.7-8.3-2.1-9.3 6.4-11.4 8.9-2.2 9.4-1.9 11.4 6.8l1.3 6 7.2-0.1c10.3-0.2 10.2-0.2 10.2-8.3 0-5.9 0.3-7.2 2-8.1 2.7-1.4 19.3-1.3 20.8 0.2 0.7 0.7 1.2 4 1.2 7.9 0 3.7 0.5 7 1 7.4 0.5 0.3 4.5 0.8 8.9 1.2l7.9 0.6 1.1-5.2c0.6-2.9 1.1-5.8 1.1-6.6 0-0.8 0.9-1.9 2-2.5 2.6-1.4 15.9 1.5 16.7 3.7 0.3 0.8-0.2 4.2-1.3 7.6-1 3.4-1.9 6.6-1.9 7 0 0.9 11.8 5.7 14.1 5.7 0.7 0 2.9-2.7 4.9-6 2-3.2 4.5-6.2 5.6-6.5 2.5-0.8 14.3 5.4 14.8 7.8 0.1 1-1.5 4.2-3.8 7.1-2.2 2.9-4.1 5.5-4.1 5.8 0 0.8 12.7 8.8 13.8 8.8 1.9 0 27.2-26.8 27.2-28.7 0-2.9-1.8-3.4-16.5-4.2-11.5-0.6-13.3-0.9-16.2-3.1-2-1.5-3.3-3.3-3.3-4.7 0-2.2 0.3-2.3 12.8-2.5 10.5-0.3 12.7-0.6 12.7-1.8 0-1.3-3-1.6-19.5-2-18.3-0.5-19.7-0.6-22.7-2.8-3.5-2.5-4.3-5.6-1.7-6.6 0.9-0.3 11.3-0.6 23.1-0.6 19.9 0 21.5-0.1 21.1-1.8-0.3-1.6-2.6-1.7-29.6-2l-29.4-0.2-4.4-3.2c-3-2.2-4.4-3.9-4.4-5.5v-2.3h48.1 48.1l3.4 3.3c1.8 1.9 3.6 4.7 3.9 6.3 2.7 12.5 8.1 12.3 11.5-0.4 0.8-3 1.9-4.6 4-5.7 3.4-1.7 11.2-2 14.1-0.5 2.7 1.5 5.9 8.2 5.9 12.4 0 4.3-4.6 8.6-9.1 8.6-3.2 0-9.5 2.5-10.5 4.2-1.4 2.3 7.3 8.1 16.4 10.9 8.6 2.5 8.2 0.6 8.2 47.6 0 46.7 0.2 45.8-7 38.7l-3.9-3.8-0.3-26-0.3-26.1-2.2-0.3-2.3-0.3v20.4c0 19.5-0.1 20.5-1.9 21-1.4 0.3-3-0.6-5.4-3.3l-3.5-3.8-0.7-17.1c-0.6-15.1-0.9-17.2-2.4-16.9-1.3 0.3-1.7 2.2-2.1 10.8-0.5 10.3-0.5 10.5-3 10.8-1.9 0.2-3.2-0.7-5.7-3.9-3.7-4.8-4.2-9.4-2.1-17.4 1.3-4.8 0.8-6.9-2.4-8.9-2.6-1.6-7.7 1.4-20.8 12.4-6.5 5.5-12.1 10.4-12.3 10.8-0.3 0.4 1.9 3.3 4.9 6.4l5.5 5.6 6.1-3.4c8.5-4.8 10-4.6 14.4 2.1 2 3 3.4 6.1 3.1 6.9-0.3 0.8-3 2.7-5.9 4.2-8.3 4.1-8.1 3.7-4.2 11.5 1.9 3.8 3.6 6.9 3.8 6.9 0.2 0 3-0.9 6.2-2 11.1-3.8 11.8-3.5 15 6.3 2.1 6.2 1.2 7.2-7.5 9.3-3.5 0.8-6.7 1.6-7.1 1.9-0.4 0.3-0.4 2 0 3.7 0.5 1.8 1.4 5.2 2 7.5l1.1 4.3 8.4-0.7c8.3-0.6 8.4-0.6 8.9 1.8 1.5 7 1.7 12.1 0.6 13.5-1 1.2-10.8 1.4-65.4 1.4-48.6 0-64.5-0.3-65.4-1.2-0.6-0.7-1.2-2.1-1.2-3.3 0-4.1-4.7-12.3-8.6-14.9-10.8-7.1-33.1-7.3-43.5-0.3-4.3 2.9-7.7 7.9-8.4 12.6-1.1 7.2 4.7 6.6-67.2 6.8-35.7 0.2-65.2 0-65.6-0.4z"/>
			<path id="path1510" class="s9" d="m197.6 395.3c-24.9 0-28.4-0.2-28.9-1.6-1-2.5 2.4-13.1 7.2-22.4 4.6-8.9 16.7-25 18.7-25 0.7 0 6.2 4.5 12.2 10 6.1 5.5 11.8 10 12.8 10 2.3 0 6.7-4.4 6.7-6.7 0-1-4.6-6.4-10.2-12.1l-10.3-10.3 3-2.5c4.7-3.8 17.8-10.3 27.3-13.5 11.8-4 26.2-6.5 27.4-4.7 1 1.6 1.1 48.9 0.1 50.4-0.4 0.6-3.5 1.9-6.8 2.8-10.9 3.2-20.4 10.1-25.2 18.5-1.4 2.5-3.3 5.2-4.1 5.8-1.2 1-8.7 1.3-29.9 1.3z"/>
			<path id="path1506" class="s9" d="m352.6 395.3h-28.3l-3.4-5.3c-3.8-6-11.7-13.7-16.6-16.2-1.9-1-6.4-2.8-9.9-4l-6.6-2.2v-25.9-25.9l4.5 0.3c6.9 0.5 19.8 3.7 28.6 7.2 7.4 2.9 22.9 11.3 23.9 12.9 0.2 0.4-4.5 5.1-10.5 10.5-6.7 5.9-11 10.5-11 11.6 0 1.1 1.3 3.4 2.9 5.2 2.6 2.8 3.3 3.1 5.5 2.3 1.4-0.6 7.3-5.2 13.1-10.4 6.3-5.6 11.1-9.1 12-8.8 2.7 1.1 13.5 15.3 17.9 23.7 5.8 11 9.5 22.8 7.5 24.1-0.8 0.5-14.1 0.9-29.6 0.9z"/>
			<path id="path1560" class="s10" d="m264.4 666.7l-4.3-4.3-10.9-1.3c-19.1-2.2-62.5-8.1-71.6-9.7-6.2-1.2-9.1-2.2-9.7-3.4-1.2-2.1 15.1-103.3 17-105.5 1.4-1.8 16.9-6.9 28.9-9.6 4.7-1.1 14.2-2.2 21.1-2.6 15.3-0.7 24.6 1 35.4 6.6l7.2 3.7 4.4-2.8c2.4-1.5 7.6-3.8 11.4-5 6.2-2 9-2.3 22.5-2.3 13.4 0.1 17 0.5 26.4 2.8 12.8 3.2 25.7 7.4 27.4 9 1.1 1.1 17.2 97 17.2 102.8 0 1.5-0.4 3-0.9 3.3-0.5 0.3-21.7 3.7-47.2 7.5-32.6 4.9-46.4 7.3-46.7 8.2-0.3 0.8-1.7 2.6-3.2 4.1-2.6 2.6-3.3 2.8-11.5 2.8h-8.7z"/>
			<path id="path1554" class="s11" d="m269.4 647.1c-0.7-0.1-4.5-1-8.5-2-21.3-5.6-63-5.6-82.1 0-2.1 0.6-4 0.8-4.4 0.5-0.6-0.6 14.4-91.1 16.3-98.3 0.9-3.4 1.7-4.1 6.7-6 12.2-4.4 26.5-6 42-4.5 12.6 1.2 24.2 4.3 28.5 7.6l2.9 2.2v50.3c0 39.7-0.3 50.3-1.4 50.2z"/>
			<path id="rect5820" class="s12" d="m60.2 429.7c84.1 0.4 373.7-0.5 434.2-0.3 1.8 44.3 2.3 69.4 1.5 93.6-53.7 0.1-333.9-0.5-437-0.4-1.8-24 0.1-61 1.3-92.9z"/>
			<g id="g7570">
				<path id="path1524" class="s13" d="m161.8 486.3c-6.9-1.7-23.4-8.8-34.3-14.7-12-6.5-21.3-10.5-29.6-12.8-6.6-1.8-8.6-1.9-19.5-1.4-15.9 0.8-16.1 0.7-16.1-9.7 0-5.1 0.5-8.1 1.3-8.9 2.2-1.9 27.2-2.1 35.2-0.3 8.4 2 20.9 7.3 33.3 14.2 11.7 6.4 23.8 11.7 32.1 13.9 4.6 1.2 8.4 1.4 17 1 14.7-0.6 22.5-3 49-15.1 27.1-12.3 32.6-14 47-14 14.2 0 21.1 2.1 47.2 14.2 24.9 11.5 34.3 14.4 48.4 15 9.1 0.3 11.8 0.1 18-1.6 8.6-2.3 19.2-7.1 33.8-15 5.8-3.1 15.3-7.4 21.1-9.6l10.5-3.9h16.3c19.5 0 19.1-0.2 19.1 10.5 0 9.8-0.4 10.1-15.6 9.3-9.4-0.4-13.1-0.2-18.2 0.9-8.5 2.1-20.2 7.1-34.4 14.8-20.3 11-32.3 14.7-47.7 14.6-17.1 0-28.7-3.4-59-17.3-10.2-4.7-21.6-9.4-25.5-10.5-16.3-4.5-29.6-1.7-58.6 12.6-22.1 10.9-38 15.3-54.8 15.2-5.8-0.1-13-0.7-16-1.4z"/>
				<path id="path3556" class="s13" d="m162.5 513.7c-6.8-1.6-23.4-8.7-34.3-14.6-12-6.5-21.3-10.5-29.6-12.8-6.6-1.8-8.6-2-19.5-1.4-15.9 0.8-16.1 0.7-16.1-9.8 0-5.1 0.5-8.1 1.3-8.8 2.2-2 27.2-2.2 35.2-0.3 8.4 1.9 20.9 7.3 33.3 14.1 11.7 6.5 23.8 11.8 32.1 13.9 4.6 1.2 8.4 1.5 17 1.1 14.7-0.6 22.5-3 49-15.1 27.1-12.4 32.6-14 47-14 14.2 0 21.1 2.1 47.2 14.2 24.9 11.5 34.3 14.4 48.5 14.9 9 0.4 11.7 0.2 17.9-1.5 8.6-2.4 19.3-7.1 33.8-15 5.8-3.2 15.3-7.5 21.1-9.6l10.5-3.9h16.3c19.5 0 19.1-0.2 19.1 10.4 0 9.9-0.4 10.1-15.6 9.4-9.4-0.5-13.1-0.3-18.2 0.9-8.5 2-20.2 7-34.4 14.8-20.3 10.9-32.3 14.6-47.7 14.6-17.1 0-28.7-3.4-59-17.3-10.2-4.7-21.6-9.4-25.5-10.5-16.3-4.6-29.6-1.7-58.6 12.6-22.1 10.9-38 15.3-54.8 15.1-5.8 0-13-0.6-16-1.4z"/>
			</g>
			<path id="path8475" class="s11" d="m282.5 596.9v-50.3l2.9-2.2c4.3-3.3 15.9-6.4 28.5-7.6 15.5-1.5 29.8 0.1 42 4.5 5 1.9 5.8 2.6 6.7 6 1.9 7.2 16.9 97.7 16.3 98.3-0.4 0.3-2.3 0.1-4.3-0.5-19.2-5.6-60.9-5.6-82.2 0-3.9 1-7.8 1.9-8.5 2-1.1 0.1-1.4-10.5-1.4-50.2z"/>
			<path id="path12021" fill-rule="evenodd" class="s14" d="m164.4 321.7l31.1 25.7"/>
			<path id="path12023" fill-rule="evenodd" class="s14" d="m181.8 307.6l24.2 29.1"/>
			<path id="path13771" fill-rule="evenodd" class="s14" d="m385.6 322.7l-31.1 25.7"/>
			<path id="path13773" fill-rule="evenodd" class="s14" d="m368.8 309.1l-25.4 28.1"/>
			<path id="path4955" class="s6" d="m153.1 181.2c0 0 79.8-17.8 121.9-17.7 61.5 0.2 126.7 18.1 126.7 18.1"/>
		</g>
	</g>
</svg>