<svg version="1.2" xmlns="http://www.w3.org/2000/svg" viewBox="0 0 633 875" width="633" height="875">
	<title>Svilengrad-pdf</title>
	<style>
		.s0 { fill: #d3d2d2 } 
		.s1 { fill: #4f4c4c } 
		.s2 { fill: #ffffff } 
		.s3 { fill: #918f8f } 
		.s4 { fill: #77a5dd } 
		.s5 { fill: #588ed2 } 
		.s6 { fill: #2b66ba } 
		.s7 { fill: #f47216 } 
		.s8 { fill: #b45427 } 
		.s9 { fill: #00a650 } 
		.s10 { fill: #6ac748 } 
	</style>
	<path id="Path 1" class="s0" d="m52.4 710.9v-146.5h15.4v-435.7h-30.8l-29-123.1h144.6v36.6h92.5v-36.6h150.4v36.6h92.5v-36.6h144.6l-28.9 123.1h-30.8v435.7h15.4v146.5l-267.9 163.9z"/>
	<path id="Path 2" class="s1" d="m44.8 706v-146.5h15.4v-435.7h-30.9l-28.9-123.1h144.6v36.6h92.5v-36.6h150.4v36.6h92.5v-36.6h144.6l-28.9 123.1h-30.8v435.7h15.4v146.5l-267.9 163.9z"/>
	<path id="Path 3" class="s2" d="m65.9 694.6v-114.1c121.4 0 479.5 0 493.7 0v114.1l-246.8 151zm15.3-570.6h221v435.5h-221z"/>
	<path id="Path 4" class="s3" d="m253.9 233.7c-4.6 2.6-31.1 0.5-30.8 2.2 46.6 1.6 25 30.6 12.4 22.8-3.8 0.6-23.3 8.3-24.1 10.4-4 10.7 14.8 31.3 22.1 28.9 7.7-2.6-12.4 10.4-14.4 7.3-7.2-10.4-18.8-33.6-19.6-33.4-10.4 4.8-12.6 2.7-24.8-2.6-2.9 10.4-24.4 24.6-28.8 6.4-32.5-20.7 0.9-32.7 0.7-32.6l-16.2-3.4c-9.9-4.1-8.2-31.1 2-34.2 10.7-3.4 19.5 5.1 31.2 7.9-41.3-41.6 13.6-28.7 11.4-40 3.1-10.8 17-1.1 28.7-3.1 5.2-9.1 32.7 1.3 33.4 10.6 0.6 9.3-11.3 19.5-13.5 25.8 0.2 1.5 19.5-15.7 26.9-15.1 12 0.9 11.1 38 3.4 42.1z"/>
	<path id="Path 5" class="s4" d="m187.5 749.8c16.5 6.7 38.1 10.9 75.3-3.1 24.6 14.1 55.9 19 97 0.8 21.8 13.4 45.2 17.7 78.4 3.2 1.5 1.2 4.6 4.4 6.5 6.3-36.6 18-61.7 14.1-84.9-0.1-41.1 18.1-72.4 13.2-97-0.9-42.5 16-64.6 8.3-82.1-0.1 2.2-2.1 4.6-4.5 6.8-6.1z"/>
	<path id="Path 6" class="s5" d="m187.5 731.1c16.5 6.8 38.1 11 75.3-3 24.6 14 55.9 19 97 0.8 21.8 13.3 45.2 17.7 78.4 3.2 1.5 1.2 4.6 4.4 6.5 6.3-36.6 18-61.7 14-84.9-0.2-41.1 18.2-72.4 13.3-97-0.8-42.5 16-64.6 8.3-82.1-0.1 2.2-2.1 4.6-4.5 6.8-6.2z"/>
	<path id="Path 7" class="s6" d="m187.5 713.6c16.5 6.8 38.1 11 75.3-3 24.6 14 55.9 19 97 0.8 21.8 13.3 45.2 17.6 78.4 3.1 1.5 1.3 4.6 4.5 6.5 6.4-36.6 18-61.7 14-84.9-0.2-41.1 18.2-72.4 13.2-97-0.8-42.5 16-64.6 8.2-82.1-0.2 2.2-2.1 4.6-4.5 6.8-6.1z"/>
	<path id="Path 8" class="s0" d="m317.3 593c70.7 0 120.3 5.6 211.9 36.1v65.9q-18.7 0-37.4 0c-0.1-65.9-89-65.9-89.1 0h-36.9c-0.6-54.8-32.3-59.7-48.6-59.7-16.2 0-47.7 4.9-48.3 59.7h-36.9c-0.1-65.9-89-65.9-89.1 0q-18.7 0-37.4 0v-65.9c91.6-30.5 141.1-36.1 211.8-36.1z"/>
	<path id="Path 9" class="s7" d="m371.9 15.2v34.7h125.2v-34.7h105l-19.7 96.2c-177.2 0-361.8 0-539 0l-19.7-96.2h104.9v34.7h125.3v-34.7z"/>
	<path id="Path 10" class="s2" d="m323.3 124h221v435.5h-221z"/>
	<path id="Path 11" fill-rule="evenodd" class="s0" d="m365.9 246.5c0-0.7-0.2-1.2-0.3-1.5-5.8-2.3-6.6-3.1-8.5-5-0.5-0.5-1.1-1.2-2-1.9-3.6-3.3-4.2-10.3-4.5-14.1v-0.1c0-0.9 0.3-1.2 0.8-1.7 0.4-0.3 0.9-0.9-0.3-2.5-0.9-1.2-0.7-2.1-0.4-3.1 0-0.3 0.1-0.6 0.1-0.8l0.1-1.4h1.3c1.9 0.1 3.7 0.5 5.5 0.9 1.6 0.4 3.3 0.8 4.9 0.9h0.6l0.3 0.3c2.1 2.1 3.6 7.3 4.7 11.4l0.7 2.3c0.9-2.3 2-5.5 2.6-8.7 0.5-2.1 0.7-4.2 0.7-5.8-0.1-1.3-0.3-2.3-0.7-2.6q-0.1 0-0.2-0.1l-1.1-0.2v-1.2c0.2-5.2 0.3-6.6 2.9-6.5 0.7 0 1.5 0.2 2.6 0.5q0.6 0.2 1.4 0.5l0.5 0.1 0.3 0.4c2.7 3.6 1.3 8.1-0.3 13-1.3 4.4-2.8 9-1.1 12.9 2 4.6 6.8 9.6 10.7 13.6 3.3 3.4 5.9 6.1 5.9 8 0 1.2-0.8 1.9-2.4 3.2-0.8 0.8-1.9 1.7-3.2 3.1-1 0.9-1.8 2-2.3 3-0.5 0.8-1.1 1-1 1.2l0.8 1.1c1.4 2.1 2.8 4.1 2.6 5.5l-0.1 0.5-0.3 0.4c-1.3 1.4-2.7 1-4.2-0.6-1.3-1.3-2.7-3.7-4.2-6.3-1.2-2.1-2.5-4.3-3.9-6.2-1.3-1.8-4.5-2-6.6-2.1-1.4-0.1-2.4-0.1-3-0.7q-0.4-0.4-0.7-0.8c-0.6-0.8-0.9-1.7-1-2.5-0.2-1.1 0-2 0.7-2.7l0.1-0.1 0.1-0.1 0.1-0.1q0.2-0.2 0.5-0.4c0.7-0.9 0.9-2 0.8-3zm3.5-32.8c0.5 2.1 1.1 4.2 1 6.9l-0.1 1.4h-1.3c-1.2 0-3.1-2.3-4.7-4.9-1.7-2.9-3.3-6.3-3.3-7.6v-1.4h1.4c0.8 0 1.5-0.1 2.2-0.2 0.9-0.1 1.7-0.2 2.6-0.2h1.4v1.5c0 1.6 0.3 3 0.8 4.5zm58.1 5.9c-3.2 0.2-5.7 0.4-7.1-1.7l-0.2-0.4v-0.4c0-0.7-0.1-2.5-0.3-3.8-0.1-0.4 0-0.7-0.1-0.7-0.7-0.3-1.1-0.9-1.2-1.7q-0.1-0.6 0-1.2 0.1-0.6 0.3-1.3c0.5-1.3 1.6-2.7 3.5-3l0.2-0.1h0.1c2 0.1 4.6-0.2 7.2-0.9 2.7-0.7 5.4-1.6 7.3-2.7l0.7-0.4 0.7 0.6c0.5 0.3 1.4 0.9 2.2 1.3 0.7 0.3 1.3 0.6 1.4 0.6h1.4v1.4c0 1.4 0.2 2.5 0.6 3.3 0.4 0.9 0.9 1.6 1.4 2 0.6 0.3 1.1 0.5 1.6 0.5q0.4 0 0.6-0.1c1.1-0.5 1.9-2.3 2.5-3.7q0.4-1 0.8-1.7c-0.6-0.8-1.3-1.4-2.1-1.8-1.6-0.8-3.4-1.1-4.9-1.1h-1.4v-1.5l-0.1 0.1q0 0.1 0 0.1v-0.1q-0.3-0.2-0.5-0.5c-0.5-0.8-0.5-1.6 0.4-2.2 0.3-0.1 0.4-0.6 0.4-0.6v-0.1-0.1c1.6-4.3 10-2.4 18.4-0.5 2.2 0.5 4.5 1.1 6.5 1.4q0.4-0.6 0.8-1.1 1.3-1.5 2.8-1.7 1.5-0.3 3.1 0.6 1.1 0.6 2.1 1.6l0.1 0.1c0.6 0.6 1.1 1.6 1.4 2.8 0.4 1.5 0.7 3.5 0.5 5.3-0.2 1.9-0.8 3.7-2 4.9q-0.8 0.8-1.9 1.2c-0.9 0.3-1.7 0.5-2.4 0.7-2.9 0.8-4 1.2-3.6 3.3 0.3 1 0.9 1.2 1.7 1 0.9-0.2 1.9-0.7 2.9-1.1 2.7-1.2 5.2-2.4 7-0.4v0.1c0.6 0.9 1.1 2.9 1.3 5.9 0.2 3.1 0.3 7.6 0.2 12.8-0.1 16.7-1.7 41.3-6.6 56.1-2.9 8.6-3 16.7-3.1 21.7-0.1 4.1-0.2 6.5-2.2 6.5-3.1 0.1-5-3.5-6.8-6.6-0.9-1.7-1.8-3.3-2-3.3-0.6 0-1.9 2-2.9 3.5-1 1.5-1.8 2.7-2.7 2.9-2.2 0.4-3.3-0.7-3.6-2.7-0.5-2.6 0.6-7 1.7-11.2 0.8-3.1 1.6-6.2 1.7-7.6-0.4 0.3-0.8 0.8-1.3 1.3 0 0-0.2 0.8-0.6 1.9-1.2 3.5-3.1 9.1-5.6 9.1-2.1 0.1-4 1-5.6 1.8-1.4 0.8-2.6 1.4-3.7 1.1-1.9-0.3-2.5-2.3-1.4-7.9 0.2-1.2 2.4-3.8 4.9-6.2 2.6-2.4 5.5-4.8 6.6-4.9 3-0.5 6.2-1.2 9.1-2.3 2.8-1.1 5.2-2.6 6.9-4.7 1.7-2 2.7-4.3 3.1-6.2 0.1-0.8 0.2-1.6 0.1-2.2-0.1-0.3-0.1-0.5-0.2-0.5-0.5 0 0.1 0.6-0.2 1.3-0.6 1.5-1.3 3.1-2.4 3.7-0.4 0.1-1 0.9-1.6 1.7-1 1.4-2.2 2.9-3.7 3.2-3.3 0.5-5 0.9-6.3 1.2-1.1 0.2-1.9 0.4-2.8 0.5h-0.2-0.2c-0.8-0.2-1.2-0.8-1.3-1.6 0-0.3 0-0.7 0-1.1 0.1-0.7 0.2-1.6 0.4-2.1 0.7-2.1 2.2-3.2 3.7-4.4 1.6-1.1 3.4-2.4 3.5-5v-0.5l0.3-0.4c1.1-1.3 2.6-2.7 4.1-4 1.4-1.3 2.8-2.6 4-3.8 0.3-0.4 0.7-1.4 0.9-2.5 0.1-0.6 0.2-1.2 0.1-1.6 0-0.2-0.1-0.4-0.1-0.4q-0.1-0.1-0.3-0.1c-0.5 0 0.2 0.8-0.1 1.8-0.9 2-1.8 4.4-3.4 4.6-1.3 0.1-2.7 0.3-4.2 0.5-3 0.5-6 0.9-8 0.8l-1.4-0.1 0.1-1.4c0.1-1.5 0-3-0.3-4-0.5 0.8-1 2-1.5 3.3-0.8 1.8-1.4 3.7-1.6 4.9 1.8 1 4.5 0.8 6.1 0.7 1.2-0.1 2-0.1 2.5 0.6l0.1 0.1c0.5 0.8 0.5 2.2 0.2 3.4-0.2 1.2-0.8 2.5-1.5 3.1q-0.1 0.2-0.3 0.3l-0.5 0.4-0.5-0.1c-1.3-0.3-3.3 0.6-5.1 1.4-2.4 1.1-4.5 2.1-5.9 0.8-0.6-0.5-1.2-1.3-1.7-2.2-0.4-0.8-0.7-1.7-0.8-2.6 0-1.1 0.2-2.1 0.9-3.1q0.6-0.6 1.5-1.2c0.1-0.1 0 0-0.3 0.1-0.2 0.1-0.6 0.2-0.6 0.2-0.1-0.5-0.3-1.1-0.5-1.7v-0.2c-2 5.4-3.8 7.3-4.5 8l-0.2 0.2v0.1c-0.6 0.5-3.2 1-6.3 1.2-3 0.3-6.5 0.4-8.9 0.3h-1.3v-1.4c0-6.6 3.1-7.9 6.7-9.4 2-0.8 4.2-1.7 5.8-4.1 0.6-0.9 1-1.9 1.1-2.7q0.1-0.7 0-1-0.1-0.1-0.2-0.2-0.1 0-0.5 0c-0.4 0.1-1.4 1.5-2.4 2.9-1 1.5-2 3.1-3.3 4.1l-0.2 0.2-0.2 0.1c-2.4 0.7-5.1 0.4-7.4-0.2-3.2-0.9-6-2.7-6.6-3.9l-0.2-0.4v-0.4c0.1-1.6 1.7-3 3.1-4.2 0.9-0.8 1.8-1.6 1.9-1.9 0 0-0.5 0.1-1.8-0.1-0.4 0.3-1.6 1.5-3 2.9-1.3 1.3-2.5 2.8-3 3.7l0.6 0.6c0.9 0.9 2.1 2.1 3.2 2.7 0.4 0.2 1 0.5 1.5 0.8 1.2 0.6 2.4 1.2 2.7 1.9 0.3 0.5 0.3 1.6 0.3 2.6-0.1 1.2-0.5 2.5-0.8 2.9-0.5 0.5-2.9 0.4-5.8-0.1-2.8-0.5-6.2-1.1-8-1.5-0.9-0.3-1.3-1.1-1.5-2-0.1-0.4-0.1-0.8-0.1-1.1 0.1-0.4 0.1-0.8 0.2-1.1 0.3-0.7 0.8-1.2 1.5-1.2q0.3 0 0.4-0.1 0-0.1 0-0.2 0-0.3-0.1-0.6c-0.1-0.3-0.2-0.5-0.4-0.6-1.1-0.1-3.4 1.2-4.6 1.9-0.9 0.5-1.5 0.9-2.1 0.5q-1.2-0.6-1.7-1.6c-0.7-1.3-0.6-2.7 0.1-4.2 0.5-1.2 1.4-2.4 2.4-3.6 2.4-2.8 5.9-5.3 7.3-5.7l0.3-0.1 0.3 0.1c3 0.6 8.4-1.5 14.2-3.8 5.5-2.1 11.5-4.4 16.5-4.8h0.2c4 0.2 7.8 1.3 11.2 2.3 3.8 1 6.9 2 8.9 1.3 3.5-1.2 5.3-5.2 5.9-8.8 0.2-1.2 0.2-2.3 0.2-3.3-0.1-0.7-0.2-1.4-0.4-1.8-0.5 0.5-1.2 2.2-1.8 4-1 2.5-1.9 5-3.7 5.6-1.2 0.5-4.1 0-7.9-0.6-7-1.1-17.1-2.7-22.1-0.1l-0.8 0.4-0.7-0.6c-1.2-1.1-2.2-3-2.7-5-0.3-1.3-0.4-2.6-0.2-3.7 0.2-1.3 0.8-2.5 2-3.3 0.8-0.5 1.8-0.9 3.1-0.9h1.4v1.5c0.3 0.4 1.3 0.8 2.5 1.2 1.5 0.4 3.2 0.6 4.9 0.7 2.7 0.1 5.3-0.1 6-0.8 0.7-0.5 1.4-1.6 2-2.9 0.4-0.9 0.7-2 0.7-2.9-0.1-1.2-0.3-2.3-0.6-3.3l-0.1 2.4-2.3-2.7c-3.3-3.9-8.1-3.5-11.9-3.3zm28.5 184c0-5.9-0.1-11.2-1.6-13.2-0.9-1.2-1.7-3.5-2.7-6.7-0.8-2.2-1.7-4.9-2.9-7.9 0.6 1.8 0.8 3.9 0.4 6.2l-0.6 3.7c0.9 0.2 1 0.9 1.2 1.8 0 0.1-0.1-0.2 0.2-0.2l1.3 0.2v1.4l-0.2 3.1-0.1 1.9-1.3-0.5c-0.5 0.9-1.3 1.7-3.8 0.3l-0.9-0.4 0.1-1c0.1-0.7 0.1-1.6 0.1-2.5v-1c-0.6 1.9-1.1 4.1-1.1 6 0 1.2 0.2 2.3 0.6 3.2 0.4 0.8 1 1.5 1.9 1.9q1 0.5 2.8 0.5h1.5l-0.1 1.6-0.2 2.2-0.1 1.4h-1.3c-3.6-0.2-7.5 0.8-11.1 2.1-5 1.9-9.1 4.5-10.4 6-1.5 1.7-2.1 5.4-2.1 9.7 0 3.9 0.5 8.2 1.2 11.7 0.7 3.2 1.5 5.7 2.2 6.5h1.2v1.5l-0.2 7.6v1.6l-1.5-0.2c-0.1 0-2 2.7-4.1 5.5-1.5 1.9-2.8 3.8-3.2 5-1.4 3.7-4 5.8-6.1 7.5-1 0.8-1.9 1.5-2.3 2.2-0.2 0.2 0 0.8 0.2 1.5 0.4 1.4 0.9 3.1 0.5 5.5q-0.1 0.4-0.2 0.8c-0.4 0.8-1 1.8-1.9 2.5-1 0.7-2.2 1.2-3.7 1q-0.6-0.1-1.2-0.4-0.6-0.3-1-0.2-0.2 0-0.4 0.2-0.2 0.2-0.2 0.6-0.1 0.6 0.2 1.5 0.4 1.1 0.6 2.1c0.6 2.7 0.1 5.2-1.3 7.2-1.2 1.9-3.3 3.4-5.9 4.5q-1.7 0.7-3.7 1.1c-7.5 2.2-8.9-3-9.7-6-0.1-0.4 0.4-0.5 0.1-0.6-0.5-0.3-1.6-0.4-2.7-0.6-0.9-0.1-1.7-0.2-2.6-0.4-2.7-0.6-4.8-1.7-4.2-4.7l0.2-1.1 1-0.1c2-0.2 4.7-0.6 6.2-1.3h0.1q-0.4-0.3-1.2-0.6c-1.2-0.6-2.9-0.7-4.4-0.3-1.3 0.3-2.4 1.1-3.1 2.2-0.3 0.7-0.5 1.5-0.8 2.3-0.4 1.6-0.8 3-2 4q-0.9 0.7-1.8 0.8c-0.8 0.1-1.5-0.1-2.2-0.5-0.6-0.3-1.2-0.9-1.7-1.5-0.6-0.9-1-2-1.1-3.1v-0.1-0.1-0.1c-0.1-1.7 0.8-3.6 2.1-5.2 1.3-1.5 3-2.7 4.3-2.9h0.1 0.1c4-0.2 6.5-0.6 8.1-0.9q-0.4-0.1-0.8-0.2c-0.8-0.1-1.7-0.2-2.5-0.4-3.5-0.6-7.8-1.4-8.9 0.3-1.2 1.7-2.1 2.7-2.9 3.3-0.6 0.4-1.1 0.6-1.6 0.7-0.7 0-1.3-0.3-1.6-0.7q-0.4-0.4-0.5-0.8c-0.5-1.7-0.7-3.5-0.5-5 0.2-1.7 0.9-3 2.1-3.5 2.8-1.2 6.6-1 10.5-0.9 2.9 0.1 6 0.2 8.6-0.3 2.7-0.4 5-1.6 7-3.3 2-1.7 4-4.1 6-6.8 4.7-6.4 6.5-11.3 6.4-15.9 0-4.5-2-8.8-4.9-13.8-0.8-1.5-1.9-3-3.1-4.5-3-3.9-6.3-8.3-7.6-16-3.4-20.4 16.7-29.1 33.4-36.2l2.8-1.3c2.9-1.2 8.8-2 14.1-1.3 2.7 0.3 5.3 1.1 7.3 2.3q0.6 0.4 1.1 0.8l-0.5-0.9c-1.8-3.5-3.7-7-3.7-10.8v-1.4h1.4c0.6 0 1.1 0.2 1.6 0.4h0.1c-4-6.9-9.5-14.4-17.4-21.1-0.3-0.2-1.4-1-3-2.2-5.5-4-16-11.6-16.4-13.9-0.3-2.3 0.7-3.3 2.7-3.7 1.5-0.3 3.7 0.1 6 0.4 3.4 0.6 7.1 1.1 8.7-0.1 2.1-1.5 2.8-6.5 3.4-10.8 0.6-4.9 1.2-9.2 4.2-8.7 2.2 0.3 2.8 1.4 2.6 3-0.1 0.9-0.5 1.8-0.9 2.6-0.5 0.9-0.9 1.9-0.8 2.1 0.2 0.5 5.2 0.5 9.5 0.6 3.2 0 6 0 7.2 0.4 1 0.4 1.9 2.2 2.8 4.3 1.1 2.2 2.3 4.8 2.8 4.8 0.9 0 2.1-1.1 3.2-2 2-1.8 3.9-3.4 5.8-1 0.7 0.8 1.2 3.4 2 7.2 2.9 13.8 9.4 44.4 27.5 44.7 5.2 0.1 8.2-4.3 10-9.3 1.9-5.3 2.4-11.5 2.4-14.5v-0.2c0.1-11.4-4.4-22.6-8.9-33.6-3.5-8.8-7-17.5-8.3-26.5-1.1-7.1-0.2-18.4 2.5-28.6 2.3-8.4 5.8-16.2 10.6-20.3 3.8-3.2 7.9-6.1 12.6-6.9 4.7-0.8 9.9 0.5 16 5.9 3.8 3.3 5.9 7.4 7 11.9 1 4.4 1.1 9.3 0.8 14.3-0.2 3.7-3.5 18.8-9.1 30-3.4 6.9-7.7 12.5-12.8 13.4l-1.7 0.3 0.1-1.8v-0.5c0-1.5 0-3.7 1.1-5.2l0.6-0.7c2.8-3.6 8.2-10.5 7.9-14.9-1.6 1.4-3.2 4-4.7 6.6-2.3 3.9-4.6 7.9-7.8 8.9l-1.2 0.4-0.5-1.3c-0.9-2.8-1.3-5.5-1.2-7.7 0.2-2.6 0.9-4.6 2.2-5.6 0.6-0.6 2.1-2.5 3.8-4.7l2.3-2.9c1.1-1.5 2.4-2.8 3.8-4.2 1.2-1.3 2.5-2.5 3.4-3.8 1.3-1.6 2-3.2 1-4.5-3.8 1.3-11.7 12.3-14.3 15.9-0.5 0.6-0.8 1.1-0.9 1.2l-0.5 0.5h-0.6q-0.5 0-0.9-0.3c-0.9-0.4-1.9-1.6-2.5-3.2-0.7-1.4-1.2-3.2-1.2-5.1 0-1.3 0.3-2.7 0.9-4 0.7-1.4 2.9-3.9 5.6-7 6.2-7.3 15.5-17.9 12.7-22-3.3-2.6-6.6-2.9-9.5-2.1-3.2 0.8-6.2 3-8.7 5.4-4.1 3.8-6.9 10.1-8.7 16.9-2.1 8.1-2.6 16.9-1.7 23.5 1.3 9.2 4.9 18.2 8.4 27.2 3.8 9.7 7.6 19.3 8.8 29.5 0.8 6 0.5 15.2-3.1 23.6-2.6 6.1-6.9 11.7-13.7 15.6q-0.2 0.1-0.2 0.2c-2 1.6-2.4 7.8-2.2 14.1 0.3 6.4 1.3 12.8 2.2 14.6v0.1c3.1 4.1 19.8 7.2 26.5 8.4q1.5 0.2 2.4 0.4 1 0.3 1.6 1c1 1 1.4 2.7 1.4 4.5 0 1.5-0.3 3.2-0.5 4.4-0.2 1.3-0.7 2.4-0.8 2.5-2.2 2.2-3 5.7-4 10.2-0.8 3.7-1.8 8.1-3.8 12.9-2.6 6.1-4 10.9-4.7 14.6-1 5.6-0.5 8-0.1 8.4 1.4 1.5 2.3 2.9 2.9 4.2 0.9 1.8 1.1 3.4 1.1 4.5 0 1.4-0.6 2.4-0.7 2.5l-0.1 0.2-0.2 0.1c-0.9 0.5-1.8 0.9-2.5 1.3-1.5 0.7-2.5 1.2-2.8 1.6q0 0 0 0.1 0 0.2 0.3 0.5c0.8 1 0.6 2 0.4 3.3-0.1 0.8-0.3 1.8 0 2.7 0.3 0.8 0.3 1.6-0.1 2.5-0.6 1.8-2.6 4-5.1 6.1-2.4 1.9-5.3 3.7-8 4.8-2.7 1.1-5.3 1.5-7.2 0.7q-0.5-0.2-0.9-0.8c-0.2-0.4-0.5-0.9-0.6-1.5l-0.8 0.2c-0.2 0-0.9 0.3-1.8 0.7-2.3 1.1-5.5 2.5-7.2 1.1l-0.4-0.3-0.1-0.4c-0.6-1.8-0.2-3.7 0.6-5.3 0.9-1.8 2.4-3.4 3.9-4.1l0.1-0.1h0.2c0.2-0.1 2 0.6 3.4 1.7 0.7 0.5 1.5 1.1 2 1.7l0.4 0.4v0.5 0.8q0.3-0.5 0.8-0.8c0.2-0.2 0.3-0.5 0.1-0.9-0.2-0.8-1-1.7-2-2.5-1.1-0.8-2.4-1.5-3.7-1.8-1.8-0.4-3.7 0-4.8 2.1l-0.4 1-1-0.2c-1.7-0.3-2.7-1.2-3.1-2.3-0.2-0.7-0.2-1.4 0-2.1 0.1-0.6 0.3-1.2 0.6-1.8 0.9-1.7 2.6-3.2 3.7-3.1 3 0.1 4.2 0.1 4.2 0 0.1-0.5-1.7-1.6-4.1-2.7-2.6-1.3-5.9-2.4-8.5-2.5-1.6-0.1-2.8 0.3-2.8 1.3l-0.1 0.8-0.7 0.4-0.1 0.1c-1.1 0.5-4.5 2.2-5.9-0.5q-0.3-0.6-0.4-1.3c-0.1-1 0-2.2 0.4-3.3 0.3-1.2 1-2.3 1.9-2.9q0.5-0.3 1-0.3c2.1-0.3 4.9-0.1 8 0.1 8.3 0.5 18.8 1.2 19.7-7.3l0.1-0.2c0.7-2.7 1.9-14 0.3-24.1-0.9-5.9-2.7-11.3-6-14.2-4.1-3.6-9.8-4.7-14.8-5.7-4.5-0.9-8.5-1.7-10.9-4-4.8-4.9-4.9-14.6-4.9-23.1zm-13.3-202.5c0-0.1 0 0 0 0zm-77.3 109.7c-1.7 0.7-3.2 2.1-3.7 3.6l-0.3 1h-1c-3.9 0-8.8-0.6-13.3-1.5-5.9-1.1-11.2-2.6-12.5-3.4-1.6-1.1-1.2-3-0.8-4.7q0.1-0.5 0.2-0.9c0.2-1.6 1.2-1.6 2.3-1.5 0.2 0 0.2 0.2 0.3 0.1 0.2-0.2 0.4-0.6 0.6-1.1 0.6-1.3 1.4-2.9 3.3-4.1 1.2-0.7 1.8-0.6 2.8-0.3 0.9 0.2 2.4 0.6 6.2-0.5q-0.4-0.3-0.6-0.9c-1-2.5-3.2-4.9-5.3-6.8l-0.2 1.7c-0.1 0.5-0.1 1 0 1.6q0 0.6 0 1.1v1.4h-1.4c-1.6 0-2.8 0.4-3.6 0.6-0.7 0.2-1.3 0.4-1.8 0.3-2-0.1-2.3-1.4-2.1-6.5l0.1-1.4h1c0.4-0.8 1.1-1.4 3.7-0.5l0.9 0.4v1c0 0.4 0.2-0.4 0.4-0.3 0.6 0.3 1.2 0.6 1.4 0.6h1.6c-0.8-0.8-1.7-1.5-2.4-2.1-1.2-1-2.1-1.9-2.6-2.5l-0.2-0.4v-0.4c0-1.4 0-3.1 0.4-4.6 0.4-1.8 1.3-3.4 2.9-4 1.1-0.4 2.1-0.6 3.1-0.5 1 0 1.9 0.3 3 0.7 3.1 1.3 4.3 5.1 5.5 8.9 1.2 3.6 2.3 7.1 4.8 7.6 5.7 1 17.8-1.1 26.7-2.6 5.3-0.8 9.5-1.5 11-1.4 2.6 0.4 5 0.4 7.1 0.4 6.5 0 10.8 0 11.1 6.9 3.3 2.5 6 1.9 8.1 1.5 2.3-0.5 4.1-0.8 5.9 1.1l0.2 0.2 0.1 0.3q0.1 0.5 0.2 1c0.2 1.7-0.2 4.1-1 6-0.8 2.1-2.1 4-3.5 4.5q-0.4 0.1-0.6 0.2l-16.7 2.4h-0.1c-4 0.1-8-0.4-11.7-1-6.2-0.8-11.7-1.5-14.3 1-2.6 2.5-4.8 3.8-6.4 4.3-1 0.3-1.8 0.3-2.5 0.2-0.9-0.2-1.5-0.7-1.8-1.4q-0.4-0.6-0.4-1.4c0.1-1.9-0.2-3-0.9-3.6q-0.5-0.5-1.3-0.6c-0.6 0-1.3 0.1-1.9 0.3zm37.5-88.2c1 1.6 2.1 2.9 3 3.4l5.4 2.8h-6q-1.1 0-2.2-0.5c-1.7-0.8-3.3-2.5-4.5-4.4-1.1-1.9-1.9-4.1-1.9-5.9q0-1 0.4-1.9l1.5-3.9 1.1 4.1c0.2 1 1.5 3.8 3.2 6.3zm3.6 83.4c4.8 0.1 8.8 0 10.3-0.7-0.1-1.4-0.8-1.9-1.7-1.9-0.8-0.1-1.8 0.1-2.8 0.2-1.1 0.2-2.3 0.3-3.3 0.3q-12.2 0-18.2 0.3c4.4 0.8 10.4 1.5 15.7 1.8zm39.5 29c-0.2 0.9-0.6 1.6-1.5 2.2-1.8 1.2-2.6 2.2-2.6 2.8q0 0.1 0.1 0.2c0.4 0.2 1 0.3 1.7 0.2 1.6-0.3 3.5-1.6 4.3-4.2 0.3-0.8 0.4-1.7 0.4-2.7 0-2.9-0.8-6.5-2.1-9.4-1.2-2.9-2.7-5.1-4.1-5.6q-0.2-0.1-0.5-0.1h-0.1q-0.5-0.1-1 0.1c-0.6 0.2-1.1 0.6-1.5 1-0.3 0.4-0.5 0.9-0.5 1.3q0 0.1 0 0.2c0.1 0.3 0.5 0.5 0.9 0.7 0.4 0.2 0.9 0.4 1.4 0.9 1.2 1.2 1.4 2.7 1.1 4.2-0.2 1-0.6 1.9-0.9 2.6 0.7-0.1 1.5-0.1 2.5 0.1 0.6 0.2 1.2 0.7 1.6 1.4 0.3 0.5 0.6 1.2 0.7 1.8 0.2 0.8 0.3 1.6 0.1 2.3zm-11.7-2.2c1.2 0.5 2.1-0.2 2.9-1-1 0.3-2.1 0.7-2.9 1zm12.3 37.9q-0.9-1.9-1.8-3.8c0.3 0.9 0.9 2 1.5 3.1zm70.5 55.6q-0.3-0.6-0.8-1c-1.4 0.5-1.9 3.6-2.3 6.8l-0.2 1.6c-0.3 1.9-1.2 3.4-2 4.8-0.9 1.6-1.8 3.1-0.9 5.2 0.8-0.9 2-2.9 3.2-5.3 1.1-2.2 2.1-4.6 2.7-6.9 0.6-2.1 0.7-4 0.3-5.2zm-120-153.4c1.4 1 3 2.1 3 4.5v0.2q-0.1 0.7-0.4 1.3c-1 1.7-3.2 2.7-5.8 3.2-2.3 0.4-5 0.5-6.9 0.2-1.1-0.1-2-0.4-2.6-0.7l-0.7-0.5v-0.8c0-2.2 1.2-2.7 2.4-3.2 0.1 0 0.2 0.6 0.2 0.3v-0.8l0.6-0.5c0.3-0.2 0.8-0.6 1.5-1.1 2-1.6 5-4.1 6.5-4.1h1.4v1.5c0 0.1 0.4 0.2 0.8 0.5zm5.2 8.6c0.3-0.8 0.5-1.7 0.5-2.4v-1.5h1.4c2.4 0 4.4 0.9 6.4 1.7 1.6 0.7 3.3 1.4 4.9 1.4h1.4v4.6l-1.5-0.1c-1.9-0.1-3.9 0.2-6 0.5-2.1 0.3-4.2 0.6-6.4 0.5h-1.3v-1.5c0-1.1 0.3-2.1 0.6-3.2zm33.6 0.6v1.5q0 0.8-0.3 1.6h0.9c0.2 0 1.4-0.5 2.7-1 1.5-0.6 3.1-1.3 3.6-1.6l2.1-1.3v2.6c0 0.9 0.2 1.9 0.4 2.9 0.3 1.1 0.5 2.3 0.5 3.5v0.2c-0.2 1.2-1.8 2.2-3.6 3.4-2 1.2-4.4 2.7-4.4 3.4v1.5h-1.4c-2.9-0.2-3.5-2.4-3.4-5.1 0.1-1.1 0.3-2.3 0.4-3.4 0.2-0.7 0.3-1.4 0.3-1.9q-0.3 0.4-0.7 0.8c-0.5 0.5-1 1-1 1.2l-0.2 1.1h-1.1c-1.2 0-2.8 0.4-4.4 0.9-2.2 0.5-4.5 1.1-6.7 1h-1.4l0.1-1.5 0.1-3.6 0.1-1.5 1.4 0.1c0.1 0 0-0.5 0.2-1 0.4-0.8 0.7-1.8 0.7-2.3l0.1-0.2 0.1-1.3zm-0.8 4.4l-0.2 0.4h0.2c0 0 0-0.2 0-0.2zm11.6 97.3q-0.2 1-0.6 2.1 0.1 0 0.2 0 0.4-0.1 0.7-0.2zm-98.6-115.7c3.1 0.2 4.7 0.4 4.5 4.8l-0.1 1.4h-1.3c-1.3 0-2.5-0.5-3.4-1.3-0.8-0.8-1.4-2-1.4-3.4v-1.6l1.5 0.1zm22.2 21.7c-4.5 0.9-9.8 2.1-12.4-1.3l-1.7-2.2 2.7-0.2c0.5 0 1.2 0 2.1 0 2.4-0.1 5.8-0.2 8.6-0.6 1.1-0.2 2.1-0.5 3-0.8 1.1-0.4 2-0.7 3-0.6l1.3 0.1v1.3c0 0.4-0.2 0.9-0.3 1.4l-0.2 0.7v1.5l-1.4-0.1c-1.1 0-2.8 0.4-4.7 0.8zm87.2 209.4l-1.1-0.2v-1h-1v-1.5l0.2-2.9 0.1-1.4h0.8v-1.4h1.4c1.8 0 3 1.3 3.6 2.9 0.2 0.6 0.3 1.2 0.3 1.9 0 0.7-0.2 1.4-0.5 2-0.7 1.1-1.9 1.9-3.8 1.6zm15.9-1c-0.2 1.2 0 2.7 0.5 4.9l0.5 1.8h-1.8c-1.1 0-2.7-0.7-4.1-1.6-1.3-1-2.4-2.2-2.8-3.4-0.2-0.9-0.2-2.2 0-3.4 0.2-1.3 0.6-2.7 1.1-3.7 0.8-1.7 2.9-1.7 5.4-1.6 0.8 0 1.7 0 2.6 0l3-0.2-1.8 2.5c-1.5 2-2.3 3.3-2.6 4.7zm-100-29.2l-0.1 0.1v1.5l-1.4-0.1q-1.8 0-3.2 0c-3.8-0.1-5.8-0.1-6.8-0.7-2.2-1.3-1.1-2.6 1.1-5.3l0.6-0.7 0.4-0.5h0.7 0.3c1.2 0.1 3.2 0.7 4.9 1.5 1.9 1 3.5 2.5 3.5 4.2zm-13.5 15.4c0 2.6-0.7 4-4.6 4h-1.4v-1.5c0-1.2 0.1-2.7 0.6-4 0.6-1.6 1.7-2.8 3.9-2.8h1.4v1.5c0 0.6 0 1.1 0 1.6 0 0.5 0.1 0.9 0.1 1.2zm24.3 17.1l-1.5-0.1c-0.5 0-1.4 0.1-2.2 0.3-1.4 0.2-2.8 0.5-3.9 0.1-1.4-0.5-2.1-1.5-1.4-3.8 1.1-3.5 2.8-3.8 4.7-3.1 0.6 0.2 1.1 0.5 1.6 0.8 0.6 0.3 1.1 0.6 1.3 0.6h1.4zm-19.2-4c-0.6 1.1-2 1.9-3.8 1.8l-1.3-0.1v-1.4c0-0.6 0-1.3 0.1-2.1 0-0.6 0-1.2 0-1.8v-1.6l1.5 0.1c1.9 0.1 3.1 0.9 3.7 2 0.3 0.5 0.4 1 0.3 1.6 0 0.5-0.2 1-0.5 1.5zm53.7-46.4c0.5 0.3 1.3 0.4 2.5-0.2 1.2-1.3 1.7-2.8 1.7-4.2 0-1.6-0.4-3-0.8-4-0.2 0.5-0.3 1.2-0.5 1.9-0.4 2-0.8 4.3-2.9 6.5zm7.5-220z"/>
	<path id="Path 12" fill-rule="evenodd" class="s8" d="m93.5 94.5l0.7 0.6q-0.7 1.3-1.2 2.7-3.1 1.7-5.9 2.4-2.9 0.7-6.6 0.7-6.9-0.1-11.7-2.5-4.8-2.5-7.4-7-2.6-4.5-2.6-10.3 0-8.3 5.8-13.7 5.9-5.3 16.2-5.3 3.4 0 6.8 0.6 3.3 0.6 6.6 1.9l0.2 0.4q-0.5 1.5-0.7 2.8-0.3 2.3-0.5 5.8h-2.2q-0.2-4.2-0.3-4.7-0.2-0.4-1.5-1.4-1.3-1-3.5-1.6-2.2-0.7-4.9-0.6-6.4 0-10.1 3.9-3.8 4-3.8 11.1 0 7.7 4.5 12.4 4.2 4.5 11.5 4.4 2.8 0 5.2-0.5 2.5-0.6 5.4-2.1zm20 5.8v-1.2q1.6-1 2.4-1.7 0.3-3.7 0.3-16.4 0-9.2-0.3-13-0.1-2.1-0.6-2.4-0.5-0.6-4-0.7v-2.3l5.1 0.1 3.9 0.1q1.8 0 5.3-0.1 3.3-0.2 4.8-0.2 5.9 0 8.4 2 2.6 2 2.6 5.5 0 3.6-2.6 5.8-2.5 2.3-7.1 3.3v0.2q4.8 0.5 6.7 1.4 1.9 1 3 3 1.2 2.1 1.2 4.7 0 3.2-1.9 6-1.9 2.9-5.1 4.4-3.2 1.5-8.9 1.5-1.2 0-3.4-0.1-2.2-0.1-3.5-0.1-1.5 0-6.3 0.2zm10.2-22.2h1.4q4.5 0 6.3-1.6 1.8-1.6 1.8-5.1 0-3.1-1.5-4.5-1.4-1.5-4.8-1.5-1.3 0-3.1 0.2-0.1 8.3-0.1 10.1zm0 19.1q1.6 0.4 2.9 0.4 3.8 0 5.8-2.2 2-2.1 2-6.4 0-2.8-0.9-4.5-0.9-1.8-2.5-2.6-1.6-0.9-4.6-0.9h-2.7v0.7 7 7zm79.5-34.6v2.2q-3.8 0.2-4.4 0.8-0.6 0.6-0.6 12.2 0 12.7 0.2 15.9 0.1 3.2 0.6 3.6 0.4 0.4 4.2 0.7v2.3q-0.1 0-1.6-0.1-4.5-0.1-6.6-0.1-1.4 0-9.2 0.2v-2.3q3.7-0.1 4.3-0.7 0.6-0.5 0.6-8.5l0.1-15.1q0-1.2-0.1-4.7l-3.5 5.9q-7.6 13-10.4 17.3-2.9 4.2-6.3 8.1-3.5 0.5-4.5 0.8l-0.5-0.4q0.4-4.2 0.4-21.5 0-12.7-0.4-13.5-0.4-0.7-4.5-0.9v-2.2q5.6 0.2 7.5 0.2 5.7 0 9.8-0.2v2.2q-3.7 0.2-4.3 0.8-0.6 0.7-0.6 11.9 0 2.1 0.3 14l3.4-5.3q8.1-12.8 13.8-23.4h2.4q5.7 0 9.9-0.2zm42.3 3.3l-3.3-0.2q-0.4 0-1.2 0h-3.7l-1.4 0.1q-2.2 0-2.9 0.1-0.1 1.2-0.3 6.1-0.3 9.4-0.7 14.3-0.4 5-1.6 8.2-1.2 3.2-3.4 4.8-2.2 1.5-5.2 1.5-1.3 0-3-0.4 0.2-0.9 0.2-1.7 0-1.4-0.2-3.4l0.8-0.4q2.1 2.4 4 2.4 2.6 0 3.8-3.1 1.3-3.1 1.7-12 0.5-8.9 0.5-13.7 0-2.6-0.6-3-0.5-0.4-4.3-0.7v-2.2q5 0.2 9.2 0.2h14.7q3.7 0 9.7-0.2v2.2q-3.3 0.2-3.8 0.4-0.5 0.3-0.7 0.7-0.2 0.5-0.3 5.5-0.2 5-0.2 7 0 0.5 0.1 6.4l0.1 8.6q0 2.6 0.2 3.2 0.1 0.6 0.4 0.8 0.2 0.2 0.7 0.3 0.6 0.1 3.5 0.3v2.3q-0.7 0-3-0.1-3.3-0.1-5-0.1-4.1 0-9.4 0.2v-2.3q3.6-0.1 4.1-0.6 0.5-0.5 0.6-4.5 0.2-3.9 0.2-17.6zm31.7 34.4v-1.5q1.4-0.6 2.6-1.5 0.5-4.2 0.5-17.6 0-9.2-0.1-12.2-0.1-1.6-0.6-2-0.5-0.4-3.9-0.7v-2.2q6.2 0.2 9.9 0.2l14.6-0.2q2.3 0 4.1 0.2l0.2 0.3q-0.6 3-0.8 7.8h-2.1q-0.2-3.9-0.3-4.2-0.2-0.2-1.2-0.5-2.2-0.5-6.8-0.5-2.2 0-5.2 0.2-0.3 8.3-0.4 13.2 2.9 0.2 5.4 0.2 3.6 0 4.4-0.2 0.4-0.2 0.6-0.8 0.2-0.5 0.4-3.4h2.3q-0.2 4.6-0.2 5.9l0.2 6.1h-2.3q-0.2-3.5-0.5-4.1-0.1-0.3-0.7-0.4-1.3-0.3-6-0.3-1.4 0-3.4 0.1 0 1.5 0 2.9 0 7.7 0.2 11.9h5.3q4.5 0 8.2-0.5 0.6-2.4 1.2-5.6h2.3q-0.7 4.8-0.8 9.1-2.4 0.3-4.6 0.3-1.5 0-5.8-0.1-4-0.1-7.3-0.1-4.5 0-9.4 0.2zm45 0v-2.3q3.5-0.2 3.9-0.5 0.5-0.3 0.6-1.2 0.3-1.5 0.3-7.5v-14.7q0-7.4-0.3-8.1-0.1-0.4-0.4-0.6-0.6-0.4-4.1-0.6v-2.2q5.3 0.1 8.4 0.1 4.9 0 8.9-0.1v2.2q-3.2 0.2-3.8 0.5-0.3 0.2-0.5 0.5-0.3 0.5-0.4 3.1-0.1 3.9-0.1 7.8v2.3q2.7 0.1 8.7 0.1 5.3 0 7.9-0.1 0-8.8-0.2-11.6-0.1-1.6-0.6-1.9-0.6-0.5-4.1-0.7v-2.2q6.6 0.1 8.9 0.1 4 0 8.5-0.1v2.2q-3.4 0.2-4 0.5-0.3 0.2-0.4 0.5-0.3 0.6-0.4 4.4-0.2 5.8-0.2 9.5l0.2 12.2q0 4.1 0.2 4.7 0.2 0.7 0.6 0.9 0.4 0.3 4 0.5v2.3l-3-0.1q-3.3-0.1-5.2-0.1-3.9 0-9.2 0.2v-2.3q3.5-0.1 4-0.6 0.5-0.4 0.6-2.2 0.2-3 0.3-12.9-3-0.1-6.6-0.1-5.7 0-10 0.1v1.8q0 7 0.1 10.5 0.2 2.4 0.7 2.8 0.5 0.4 4 0.6v2.3l-3.1-0.1q-3-0.1-5.3-0.1zm58.9 0v-2.3q1.6 0 2.7-0.1 1.1-0.2 1.3-0.5 0.3-0.3 0.4-0.8 0.1-0.5 0.2-4.4 0.2-3.8 0.2-8.7 0-8.6-0.2-13-0.2-4.5-0.6-5-0.5-0.4-4-0.7v-2.2q4.3 0.2 8.1 0.2 4.8 0 10.1-0.2 3.5-0.1 6.3-0.1 1.6 0 3 0.1l0.2 0.6q-0.6 3.3-0.7 8h-2.2q-0.2-3.8-0.4-4.3-0.1-0.5-2-0.9-1.9-0.3-4.7-0.3-2.8 0-5.1 0.2-0.5 5.3-0.5 14.1 0 3.6 0.2 9.9 0.1 6.3 0.4 6.9 0.3 0.6 0.8 0.8 0.5 0.2 4.3 0.4v2.3q-3.9-0.2-8-0.2-3.4 0-9.8 0.2zm43.9 0v-2.3q3.2-0.2 3.6-0.5 0.3-0.2 0.5-0.6 0.2-0.6 0.3-5.5 0.2-4.9 0.2-9.5 0-8.6-0.2-12.3-0.2-3.6-0.6-4.1-0.3-0.4-2.3-0.5l-1.5-0.2v-2.2l3 0.1q2.8 0.1 4.4 0.1 2.3 0 7.3-0.2 2.7-0.1 4-0.1 4.7 0 7 0.9 2.3 0.9 3.4 2.8 1.2 1.8 1.2 4.6 0 5-3.5 8.4-3.5 3.3-8.8 3.3-0.7 0-1.5-0.1-0.8-0.1-1.6-0.3-0.5-0.9-1-1.9l0.6-0.6q0.6 0.1 1.1 0.2 0.5 0.1 0.9 0.1 2.7 0 4.4-1.9 1.6-1.9 1.6-5.2 0-3.8-1.7-5.6-1.8-1.8-5.2-1.8-1.3 0-3.2 0.3-0.3 8.3-0.3 14.1 0 1.9 0.2 12.3 0.1 4.1 0.3 4.7 0.1 0.5 0.5 0.7 0.6 0.3 4.5 0.5v2.3q-4.7-0.2-7.9-0.2-1.4 0-9.7 0.2zm46.4-2.5q2.4-0.1 3-0.5 0.4-0.3 1.3-2 1.6-3.5 4.1-9.7l9.4-23.3h3.9l12 28.8q2.3 5.7 2.9 6.2 0.5 0.5 3.3 0.7v2.3q-4.3-0.2-8.2-0.2-4.5 0-8.7 0.2v-2.3q3.2-0.1 3.7-0.4 0.5-0.2 0.5-0.8 0-0.5-1.2-3.5l-1.7-4.6q-3.3 0-7.3 0-3.6 0-6.5 0l-1.1 3.1q-0.5 1.3-1.2 3.8-0.2 0.6-0.2 1 0 0.6 0.6 0.9 0.5 0.2 3.7 0.5v2.3q-2.6-0.2-6.5-0.2-3.7 0-5.8 0.2zm17.4-26.1l-5.6 13.8q2.4 0.1 5.3 0.1 3.1 0 5.9-0.1zm77.4 26.2q-1.1 5-1.3 12.3h-2.7v-1.1q0-2.9-0.5-7.1-1.5-1.3-3.4-1.6-1.8-0.4-9.3-0.4h-7.4q-7.2 0-11.6 1.3l-2.3 8.9h-2.6q0.6-5.5 1-12.3 3.2-0.5 5.1-4.2 1.8-3.8 2.7-12.2 0.8-8.5 0.8-13.8 0-1.6-0.4-2.2-0.3-0.6-4.3-0.7v-2.3q4.9 0.2 9.1 0.2h15.6q3.7 0 9.7-0.2v2.3q-3.6 0.1-4.3 0.6-0.7 0.6-0.7 12.8 0 0.4 0.1 6.3l0.1 8.7q0 3 0.3 3.5 0.2 0.6 0.5 0.7 0.3 0.1 0.9 0.2 0.5 0.2 4.9 0.3zm-14.5-1.1q0.2-1.7 0.2-3.3l-0.1-3.6 0.2-13.9q0-5.1-0.2-10.3-1.6-0.1-2.5-0.1h-8.7q-0.7 0-1.2 0.1l-1.2 0.1q-0.3 1.8-0.5 6.8-0.9 18.7-5.4 24.1 3 0.1 4.4 0.2 2.8 0.1 5.2 0.1h6.5q1.3 0 3.3-0.2z"/>
	<path id="Path 13" fill-rule="evenodd" class="s2" d="m91.2 92.8l0.6 0.6q-0.6 1.4-1.2 2.8-3.1 1.6-5.9 2.3-2.9 0.7-6.6 0.7-6.9 0-11.7-2.5-4.8-2.5-7.4-6.9-2.6-4.5-2.6-10.3 0-8.4 5.9-13.7 5.8-5.4 16.1-5.4 3.4 0 6.8 0.7 3.3 0.6 6.6 1.8l0.2 0.4q-0.5 1.5-0.6 2.8-0.4 2.4-0.6 5.8h-2.2q-0.2-4.2-0.3-4.6-0.2-0.4-1.5-1.4-1.3-1.1-3.5-1.7-2.2-0.6-4.9-0.6-6.3 0-10.1 4-3.7 3.9-3.7 11 0 7.7 4.5 12.5 4.1 4.4 11.4 4.4 2.8 0 5.3-0.6 2.4-0.6 5.4-2.1zm20 5.8v-1.2q1.5-0.9 2.3-1.7 0.3-3.7 0.3-16.4 0-9.2-0.3-13-0.1-2-0.5-2.4-0.6-0.5-4.1-0.7v-2.3l5.1 0.2h3.9q1.8 0 5.3-0.1 3.4-0.1 4.8-0.1 5.9 0 8.4 2 2.6 2 2.6 5.4 0 3.6-2.5 5.9-2.5 2.2-7.1 3.2v0.2q4.7 0.5 6.6 1.5 1.9 0.9 3.1 3 1.1 2 1.1 4.6 0 3.2-1.9 6.1-1.9 2.8-5.1 4.3-3.1 1.5-8.9 1.5-1.1 0-3.4-0.1-2.1-0.1-3.5 0-1.5 0-6.2 0.1zm10.1-22.1h1.4q4.5 0 6.3-1.7 1.8-1.6 1.8-5.1 0-3.1-1.5-4.5-1.4-1.5-4.8-1.5-1.2 0-3 0.3-0.2 8.2-0.2 10.1zm0 19.1q1.6 0.4 2.9 0.4 3.8 0 5.8-2.2 2-2.2 2-6.5 0-2.7-0.9-4.5-0.9-1.8-2.5-2.6-1.6-0.9-4.6-0.9l-2.7 0.1v0.6 7 7zm79.5-34.6v2.3q-3.7 0.1-4.3 0.7-0.6 0.7-0.6 12.2 0 12.7 0.1 15.9 0.1 3.2 0.6 3.6 0.5 0.5 4.2 0.7v2.3q-0.1 0-1.6 0-4.4-0.2-6.6-0.2-1.4 0-9.2 0.2v-2.3q3.7-0.1 4.3-0.6 0.6-0.6 0.6-8.6l0.1-15q0-1.3-0.1-4.8l-3.4 5.9q-7.6 13.1-10.5 17.3-2.8 4.2-6.3 8.1-3.5 0.6-4.5 0.8l-0.5-0.4q0.4-4.2 0.4-21.4 0-12.8-0.4-13.5-0.4-0.8-4.5-0.9v-2.3q5.7 0.2 7.6 0.2 5.6 0 9.8-0.2v2.3q-3.8 0.1-4.4 0.7-0.5 0.7-0.5 12 0 2.1 0.2 13.9l3.4-5.3q8.1-12.8 13.9-23.4h2.3q5.7 0 9.9-0.2zm42.4 3.3l-3.4-0.2q-0.4 0-1.1 0h-3.8l-1.4 0.1q-2.2 0.1-2.9 0.1-0.1 1.3-0.3 6.1-0.3 9.4-0.7 14.4-0.4 5-1.6 8.2-1.2 3.2-3.4 4.7-2.2 1.5-5.1 1.5-1.4 0-3-0.3 0.1-0.9 0.1-1.7 0-1.5-0.1-3.5l0.7-0.4q2.1 2.4 4.1 2.4 2.6 0 3.8-3.1 1.2-3.1 1.6-12 0.5-8.9 0.5-13.7 0-2.5-0.6-3-0.5-0.4-4.2-0.6v-2.3q4.9 0.2 9.1 0.2h14.7q3.7 0 9.7-0.2v2.3q-3.2 0.2-3.8 0.4-0.5 0.2-0.7 0.7-0.2 0.4-0.3 5.4-0.2 5-0.2 7.1 0 0.4 0.1 6.3l0.1 8.6q0 2.6 0.2 3.2 0.2 0.6 0.4 0.8 0.2 0.2 0.8 0.3 0.5 0.2 3.4 0.3v2.3q-0.7 0-2.9-0.1-3.4-0.1-5.1-0.1-4.1 0-9.4 0.2v-2.3q3.6-0.1 4.1-0.6 0.5-0.5 0.6-4.4 0.2-4 0.2-17.7zm31.8 34.4v-1.5q1.4-0.6 2.5-1.5 0.6-4.1 0.6-17.6 0-9.2-0.2-12.1-0.1-1.6-0.6-2-0.4-0.5-3.9-0.8v-2.2q6.2 0.2 9.9 0.2l14.6-0.1q2.3 0 4.1 0.2l0.2 0.3q-0.5 2.9-0.8 7.7h-2.1q-0.1-3.9-0.3-4.1-0.2-0.3-1.2-0.6-2.2-0.4-6.7-0.4-2.3 0-5.2 0.1-0.4 8.4-0.4 13.3 2.8 0.2 5.3 0.2 3.7-0.1 4.4-0.3 0.5-0.1 0.7-0.8 0.1-0.4 0.3-3.4h2.3q-0.1 4.6-0.1 6l0.1 6h-2.3q-0.2-3.5-0.5-4.1-0.1-0.3-0.7-0.4-1.3-0.3-5.9-0.3-1.5 0-3.5 0.2 0 1.4 0 2.9 0 7.6 0.3 11.8l5.2 0.1q4.5 0 8.2-0.5 0.7-2.5 1.3-5.6h2.2q-0.6 4.7-0.8 9-2.4 0.3-4.6 0.3-1.4 0-5.7-0.1-4-0.1-7.4-0.1-4.4 0-9.3 0.2zm44.9 0v-2.3q3.5-0.1 3.9-0.4 0.5-0.3 0.7-1.3 0.2-1.5 0.2-7.5v-14.7q0-7.4-0.3-8.1-0.1-0.4-0.4-0.6-0.5-0.3-4.1-0.6v-2.2q5.3 0.2 8.4 0.2 4.9 0 9-0.2v2.2q-3.3 0.3-3.9 0.5-0.3 0.2-0.5 0.5-0.2 0.5-0.4 3.1-0.1 3.9-0.1 7.9v2.2q2.7 0.1 8.7 0.1 5.4 0 7.9-0.1 0-8.7-0.2-11.6-0.1-1.5-0.6-1.9-0.6-0.5-4.1-0.7v-2.2q6.6 0.2 8.9 0.2 4.1 0 8.5-0.2v2.2q-3.4 0.3-4 0.6-0.3 0.1-0.4 0.4-0.3 0.6-0.4 4.4-0.2 5.9-0.2 9.5l0.2 12.2q0.1 4.1 0.2 4.8 0.2 0.6 0.6 0.8 0.5 0.3 4 0.5v2.3l-2.9-0.1q-3.4-0.1-5.2-0.1-4 0-9.3 0.2v-2.3q3.6-0.1 4.1-0.6 0.4-0.4 0.6-2.1 0.1-3.1 0.2-13-3-0.1-6.6-0.1-5.7 0-10 0.1v1.8q0 7 0.2 10.5 0.1 2.4 0.6 2.8 0.5 0.4 4.1 0.6v2.3l-3.2-0.1q-2.9-0.1-5.3-0.1zm59 0v-2.3q1.6 0 2.7-0.1 1-0.2 1.3-0.4 0.2-0.3 0.3-0.9 0.1-0.5 0.2-4.3 0.2-3.9 0.2-8.8 0-8.5-0.2-13-0.1-4.5-0.6-5-0.4-0.4-3.9-0.6v-2.3q4.2 0.2 8 0.2 4.8 0 10.2-0.2 3.4-0.1 6.3-0.1 1.6 0 2.9 0.1l0.3 0.6q-0.6 3.3-0.7 8h-2.3q-0.2-3.8-0.3-4.3-0.2-0.5-2.1-0.8-1.9-0.4-4.7-0.4-2.7 0-5.1 0.3-0.4 5.3-0.4 14 0 3.6 0.1 9.9 0.2 6.3 0.4 6.9 0.3 0.6 0.8 0.8 0.5 0.3 4.3 0.4v2.3q-3.9-0.2-7.9-0.2-3.5 0-9.8 0.2zm43.8 0v-2.3q3.2-0.2 3.6-0.5 0.3-0.1 0.5-0.5 0.3-0.7 0.4-5.6 0.1-4.9 0.1-9.5 0-8.6-0.2-12.2-0.2-3.7-0.5-4.2-0.4-0.4-2.3-0.5l-1.6-0.1v-2.3l3 0.1q2.8 0.1 4.5 0.1 2.2 0 7.2-0.2 2.7-0.1 4-0.1 4.8 0 7 0.9 2.3 0.9 3.5 2.8 1.1 1.8 1.1 4.6 0 5-3.4 8.4-3.5 3.4-8.9 3.4-0.7 0-1.5-0.2-0.7-0.1-1.6-0.2-0.5-1-1-1.9l0.6-0.7q0.6 0.1 1.1 0.2 0.5 0.1 0.9 0.1 2.7 0 4.4-1.9 1.7-1.8 1.7-5.2 0-3.7-1.8-5.6-1.7-1.8-5.1-1.8-1.4 0-3.3 0.4-0.2 8.2-0.2 14 0 1.9 0.2 12.3 0 4.1 0.2 4.7 0.2 0.5 0.5 0.7 0.6 0.3 4.5 0.5v2.3q-4.7-0.2-7.9-0.2-1.4 0-9.7 0.2zm46.4-2.4q2.5-0.2 3.1-0.6 0.4-0.2 1.2-2 1.6-3.5 4.1-9.7l9.4-23.3h3.9l12 28.9q2.4 5.6 2.9 6.1 0.5 0.6 3.3 0.7v2.3q-4.3-0.2-8.1-0.2-4.6 0-8.8 0.2v-2.3q3.2-0.1 3.7-0.3 0.5-0.3 0.5-0.9 0-0.5-1.1-3.4l-1.8-4.6q-3.3-0.1-7.3-0.1-3.5 0-6.4 0.1l-1.2 3.1q-0.5 1.2-1.2 3.7-0.1 0.6-0.1 1 0 0.7 0.5 0.9 0.5 0.3 3.7 0.5v2.3q-2.6-0.2-6.5-0.2-3.6 0-5.8 0.2zm17.4-26.1l-5.6 13.8q2.4 0.2 5.4 0.2 3 0 5.8-0.2zm77.4 26.2q-1.1 5-1.3 12.3h-2.6v-1.1q-0.1-2.9-0.6-7.1-1.5-1.3-3.4-1.6-1.8-0.4-9.3-0.4h-7.4q-7.2 0-11.6 1.3l-2.3 8.9h-2.5q0.5-5.4 1-12.3 3.2-0.4 5-4.2 1.8-3.7 2.7-12.2 0.8-8.5 0.8-13.7 0-1.7-0.3-2.3-0.4-0.5-4.4-0.7v-2.3q4.9 0.3 9.1 0.3h15.6q3.7 0 9.7-0.3v2.3q-3.6 0.1-4.2 0.7-0.7 0.5-0.7 12.8 0 0.4 0 6.2l0.2 8.8q0 2.9 0.2 3.5 0.2 0.5 0.5 0.6 0.3 0.2 0.9 0.3 0.5 0.1 4.9 0.2zm-14.5-1q0.2-1.7 0.2-3.4l-0.1-3.6 0.2-13.8q0-5.2-0.2-10.3-1.6-0.1-2.5-0.1h-8.7q-0.7 0-1.2 0l-1.2 0.1q-0.3 1.9-0.5 6.8-0.8 18.7-5.4 24.1 3 0.1 4.5 0.2 2.7 0.2 5.1 0.2h6.6q1.2 0 3.2-0.2z"/>
	<path id="Path 14" class="s3" d="m312.7 590.7c70.7 0 120.3 5.6 211.9 36v66q-18.7 0-37.4 0c-0.1-66-89.1-66-89.1 0h-36.9c-0.6-54.8-32.4-59.8-48.6-59.8-16.2 0-47.7 5-48.4 59.8h-36.8c-0.1-66-89.1-66-89.1 0q-18.7 0-37.4 0v-66c91.6-30.4 141.1-36 211.8-36z"/>
	<path id="Path 15" class="s9" d="m188.6 308.3c4.1 9.3 8.9 17 12.3 27.8 3.4 10.9-0.4 30.2-12.3 30.4-6.9-0.9-17.4-12-11.2-30 6.2-18.1 6.7-18.4 11.2-28.2z"/>
	<path id="Path 16" class="s10" d="m188.6 308.3c1.3 3 2.7 5.8 4.1 8.6-0.9 19-4.8 33.1-9.4 33.1-2.5 0-4.8-4.3-6.6-11.4q0.3-1 0.7-2.1c6.2-18.1 6.7-18.4 11.2-28.2z"/>
	<path id="Path 17" class="s9" d="m261.9 489.4c-9.6 7.4-17.3 15.3-29 22.4-11.7 7-35.2 7.8-38.6-6.3-0.8-8.4 9.1-23.9 31.8-21.6 22.7 2.4 23.1 2.8 35.8 5.5z"/>
	<path id="Path 18" class="s10" d="m194.4 506l-0.1-0.5c-0.8-8.4 9.1-23.9 31.8-21.6 15 1.6 20.3 2.3 25.8 3.4-15.4 9.8-35.3 16.5-57.5 18.7z"/>
	<path id="Path 19" class="s9" d="m152.5 483.9c22.7-2.3 32.6 13.2 31.8 21.6-3.5 14.1-26.9 13.3-38.6 6.3-11.7-7.1-19.4-15-29.1-22.4 12.8-2.7 13.2-3.1 35.9-5.5z"/>
	<path id="Path 20" class="s10" d="m126.7 487.3c5.5-1.1 10.8-1.8 25.8-3.4 22.7-2.3 32.6 13.2 31.8 21.6l-0.2 0.5c-22.1-2.2-42-8.9-57.4-18.7z"/>
	<path id="Path 21" class="s9" d="m255.1 455.4c-8.7 6.7-15.6 13.8-26.1 20.2-10.5 6.3-31.6 7-34.7-5.7-0.8-7.5 8.2-21.5 28.6-19.4 20.4 2.1 20.7 2.6 32.2 4.9z"/>
	<path id="Path 22" class="s10" d="m194.4 470.4l-0.1-0.5c-0.8-7.5 8.2-21.5 28.6-19.4 13.5 1.4 18.2 2.1 23.2 3.1-13.9 8.8-31.8 14.8-51.7 16.8z"/>
	<path id="Path 23" class="s9" d="m155.7 450.5c20.4-2.1 29.3 11.9 28.6 19.4-3.1 12.7-24.2 12-34.7 5.7-10.5-6.4-17.4-13.5-26.1-20.2 11.4-2.3 11.8-2.8 32.2-4.9z"/>
	<path id="Path 24" class="s10" d="m132.5 453.6c5-1 9.7-1.7 23.2-3.1 20.4-2.1 29.3 11.9 28.6 19.4l-0.1 0.5c-20-2-37.8-8-51.7-16.8z"/>
	<path id="Path 25" class="s9" d="m248.7 421.9c-7.5 6.5-13.4 13.2-22.6 19.5-9.2 6.3-28.3 7.9-31.8-3.4-1-6.8 6.4-19.9 25-19 18.6 0.9 19 1.3 29.4 2.9z"/>
	<path id="Path 26" class="s10" d="m194.5 438.4l-0.2-0.4c-1-6.8 6.4-19.9 25-19 12.3 0.6 16.6 1 21.2 1.6-12.1 8.7-28.1 15-46 17.8z"/>
	<path id="Path 27" class="s9" d="m159.5 419c18.6-0.6 25.9 12.7 24.7 19.4-3.6 11.3-22.6 9.4-31.8 2.9-9.1-6.4-14.9-13.2-22.3-19.8 10.5-1.5 10.8-1.8 29.4-2.5z"/>
	<path id="Path 28" class="s10" d="m138.3 420.3c4.6-0.5 8.9-0.8 21.2-1.3 18.6-0.6 25.9 12.7 24.7 19.4l-0.1 0.4c-17.9-3-33.8-9.6-45.8-18.5z"/>
	<path id="Path 29" class="s9" d="m244 392.1c-7 5.7-12.6 11.6-21.1 17-8.5 5.4-25.8 6.4-28.6-3.9-0.8-6.2 6.3-17.9 23.1-16.5 16.8 1.3 17.2 1.7 26.6 3.4z"/>
	<path id="Path 30" class="s10" d="m194.4 405.5l-0.1-0.3c-0.8-6.2 6.3-17.9 23.1-16.5 11.1 0.9 15 1.3 19.1 2-11.2 7.5-25.8 12.8-42.1 14.8z"/>
	<path id="Path 31" class="s9" d="m161.5 388.7c16.8-0.9 23.7 10.9 22.8 17-3.1 10.3-20.4 9-28.8 3.3-8.4-5.6-13.7-11.7-20.6-17.5 9.5-1.5 9.8-1.8 26.6-2.8z"/>
	<path id="Path 32" class="s10" d="m142.4 390.3c4.1-0.6 8-1 19.1-1.6 16.8-1 23.7 10.9 22.8 17l-0.2 0.4c-16.2-2.4-30.7-8-41.7-15.8z"/>
	<path id="Path 33" class="s9" d="m237.8 360.1c-5.4 6.4-9.5 12.7-16.4 19.1-6.9 6.4-22.5 10.2-26.8 1.2-1.7-5.5 2.8-17.4 18.4-19 15.6-1.5 15.9-1.3 24.8-1.3z"/>
	<path id="Path 34" class="s10" d="m194.8 380.7l-0.2-0.3c-1.7-5.5 2.8-17.4 18.4-19 10.3-1 13.9-1.2 17.8-1.3-9 8.7-21.4 16-36.1 20.6z"/>
	<path id="Path 35" class="s9" d="m165.6 361.4c15.6 1.6 20.1 13.5 18.4 19-4.3 9-20 5.2-26.9-1.2-6.8-6.4-10.9-12.7-16.3-19.1 8.9 0 9.2-0.2 24.8 1.3z"/>
	<path id="Path 36" class="s10" d="m147.8 360.1c3.8 0.1 7.5 0.3 17.8 1.3 15.6 1.6 20.1 13.5 18.4 19l-0.2 0.3c-14.6-4.6-27-11.9-36-20.6z"/>
	<path id="Path 37" class="s9" d="m189.3 370.6h0.5c1 0 1.8 0.7 1.8 1.6v143.1c0 1-0.8 1.7-1.8 1.7h-0.5c-1 0-1.8-0.7-1.8-1.7v-143.1c0-0.9 0.8-1.6 1.8-1.6z"/>
	<path id="Path 38" fill-rule="evenodd" class="s7" d="m364.1 245c-0.1-0.7-0.2-1.2-0.4-1.5-5.8-2.3-6.6-3.1-8.4-5-0.6-0.5-1.2-1.2-2-1.9-3.6-3.3-4.2-10.3-4.5-14.1v-0.1c-0.1-0.9 0.3-1.2 0.8-1.7 0.3-0.3 0.9-0.9-0.4-2.5-0.9-1.2-0.7-2.1-0.4-3.1 0.1-0.3 0.1-0.6 0.1-0.8l0.1-1.4h1.4c1.9 0.1 3.6 0.5 5.4 0.9 1.7 0.4 3.3 0.8 5 0.9h0.5l0.3 0.3c2.1 2.1 3.6 7.3 4.7 11.4l0.7 2.3c0.9-2.3 2-5.5 2.6-8.7 0.5-2.1 0.8-4.2 0.7-5.8 0-1.3-0.3-2.3-0.7-2.6q-0.1 0-0.2-0.1l-1.1-0.2v-1.2c0.2-5.2 0.3-6.6 2.9-6.5 0.7 0 1.5 0.2 2.6 0.5q0.6 0.2 1.5 0.5l0.4 0.1 0.3 0.4c2.7 3.6 1.3 8.1-0.2 13-1.4 4.4-2.9 9-1.2 12.9 2 4.6 6.8 9.6 10.7 13.6 3.3 3.4 5.9 6.1 5.9 8 0 1.2-0.8 1.9-2.3 3.2-0.9 0.8-2 1.7-3.3 3.1-1 0.9-1.8 2-2.3 3-0.5 0.8-1 1-1 1.2l0.8 1.1c1.4 2.1 2.8 4.1 2.6 5.5v0.5l-0.4 0.4c-1.3 1.4-2.7 1-4.2-0.6-1.3-1.3-2.7-3.7-4.2-6.3-1.2-2.1-2.5-4.3-3.8-6.2-1.3-1.8-4.6-2-6.7-2.1-1.4-0.1-2.4-0.1-3-0.7q-0.4-0.4-0.7-0.8c-0.5-0.8-0.9-1.7-1-2.5-0.1-1.1 0.1-2 0.7-2.7l0.1-0.1 0.1-0.1 0.1-0.1q0.3-0.2 0.5-0.4c0.8-0.9 0.9-2 0.9-3zm3.4-32.8c0.5 2.1 1.1 4.2 1 6.9l-0.1 1.4h-1.3c-1.2 0-3.1-2.3-4.7-4.9-1.7-2.9-3.2-6.3-3.2-7.6v-1.4h1.3c0.8 0 1.5-0.1 2.3-0.2 0.8-0.1 1.7-0.2 2.5-0.2h1.4v1.5c0 1.6 0.4 3 0.8 4.5zm58.1 5.9c-3.2 0.2-5.7 0.4-7-1.7l-0.3-0.4v-0.4c0-0.7 0-2.5-0.3-3.8-0.1-0.4 0-0.7-0.1-0.7-0.6-0.3-1-0.9-1.2-1.7q0-0.6 0-1.2 0.1-0.6 0.3-1.3c0.5-1.3 1.6-2.7 3.6-3l0.1-0.1h0.2c1.9 0.1 4.5-0.2 7.1-0.9 2.8-0.7 5.4-1.6 7.3-2.7l0.8-0.4 0.7 0.6c0.4 0.3 1.3 0.9 2.2 1.3 0.6 0.3 1.2 0.6 1.4 0.6h1.3v1.4c0 1.4 0.3 2.5 0.6 3.3 0.4 0.9 0.9 1.6 1.5 2 0.5 0.3 1 0.5 1.5 0.5q0.4 0 0.7-0.1c1-0.5 1.8-2.3 2.4-3.7 0.3-0.7 0.5-1.2 0.8-1.7-0.6-0.8-1.3-1.4-2.1-1.8-1.5-0.8-3.4-1.1-4.9-1.1h-1.3v-1.5l-0.1 0.1q-0.1 0.1-0.1 0.1v-0.1q-0.3-0.2-0.5-0.5c-0.5-0.8-0.5-1.6 0.4-2.2h0.1c0.2-0.1 0.3-0.6 0.3-0.6v-0.1l0.1-0.1c1.5-4.3 9.9-2.4 18.3-0.5 2.3 0.5 4.5 1.1 6.5 1.4q0.4-0.6 0.8-1.1 1.3-1.5 2.8-1.7 1.5-0.3 3.2 0.6 1 0.6 2.1 1.6v0.1c0.6 0.6 1.1 1.6 1.4 2.8 0.5 1.5 0.7 3.5 0.5 5.3-0.1 1.9-0.7 3.7-2 4.9q-0.7 0.8-1.8 1.2c-1 0.3-1.8 0.5-2.5 0.7-2.8 0.8-4 1.2-3.5 3.3 0.2 1 0.8 1.2 1.6 1 0.9-0.2 1.9-0.7 2.9-1.1 2.7-1.2 5.3-2.4 7-0.4v0.1c0.6 0.9 1.1 2.9 1.3 5.9 0.2 3.1 0.3 7.6 0.3 12.8-0.2 16.7-1.8 41.3-6.7 56.1-2.8 8.6-3 16.7-3.1 21.7-0.1 4.1-0.1 6.5-2.2 6.5-3 0.1-5-3.5-6.7-6.6-1-1.7-1.9-3.3-2.1-3.3-0.6 0-1.9 2-2.9 3.5-0.9 1.5-1.7 2.7-2.7 2.9-2.2 0.4-3.3-0.7-3.6-2.7-0.5-2.6 0.7-7 1.7-11.2 0.9-3.1 1.6-6.2 1.8-7.6-0.4 0.3-0.9 0.8-1.4 1.3 0 0-0.2 0.8-0.6 1.9-1.2 3.5-3 9.1-5.6 9.1-2 0.1-4 1-5.6 1.8-1.4 0.8-2.6 1.4-3.7 1.1-1.8-0.3-2.4-2.3-1.4-7.9 0.2-1.2 2.5-3.8 4.9-6.2 2.6-2.4 5.5-4.8 6.6-4.9 3-0.5 6.2-1.2 9.1-2.3 2.8-1.1 5.3-2.6 7-4.7 1.6-2 2.6-4.3 3-6.2 0.2-0.8 0.2-1.6 0.1-2.2 0-0.3-0.1-0.5-0.2-0.5-0.4 0 0.2 0.6-0.1 1.3-0.7 1.5-1.4 3.1-2.5 3.7-0.4 0.1-0.9 0.9-1.5 1.7-1.1 1.4-2.2 2.9-3.8 3.2-3.2 0.5-5 0.9-6.2 1.2-1.2 0.2-1.9 0.4-2.9 0.5h-0.2-0.2c-0.8-0.2-1.2-0.8-1.3-1.6 0-0.3 0-0.7 0-1.1 0.1-0.7 0.2-1.6 0.4-2.1 0.7-2.1 2.2-3.2 3.7-4.4 1.7-1.1 3.4-2.4 3.5-5v-0.5l0.3-0.4c1.1-1.3 2.6-2.7 4.1-4 1.4-1.3 2.8-2.6 4-3.8 0.3-0.4 0.7-1.4 0.9-2.5 0.1-0.6 0.2-1.2 0.1-1.6 0-0.2-0.1-0.4-0.1-0.4q-0.1-0.1-0.2-0.1c-0.6 0 0.2 0.8-0.2 1.8-0.9 2-1.8 4.4-3.4 4.6-1.2 0.1-2.7 0.3-4.2 0.5-2.9 0.5-6 0.9-8 0.8l-1.3-0.1v-1.4c0.1-1.5 0-3-0.3-4-0.5 0.8-1 2-1.5 3.3-0.7 1.8-1.3 3.7-1.6 4.9 1.9 1 4.6 0.8 6.1 0.7 1.2-0.1 2-0.1 2.6 0.6v0.1c0.5 0.8 0.6 2.2 0.3 3.4-0.3 1.2-0.9 2.5-1.6 3.1q-0.1 0.2-0.3 0.3l-0.4 0.4-0.6-0.1c-1.3-0.3-3.3 0.6-5.1 1.4-2.3 1.1-4.4 2.1-5.9 0.8-0.6-0.5-1.2-1.3-1.7-2.2-0.4-0.8-0.7-1.7-0.7-2.6-0.1-1.1 0.1-2.1 0.9-3.1q0.5-0.6 1.4-1.2c0.2-0.1 0 0-0.2 0.1-0.3 0.1-0.7 0.2-0.7 0.2-0.1-0.5-0.3-1.1-0.4-1.7l-0.1-0.2c-2 5.4-3.8 7.3-4.5 8l-0.1 0.2-0.1 0.1c-0.5 0.5-3.2 1-6.3 1.2-3 0.3-6.5 0.4-8.9 0.3h-1.3v-1.4c0-6.6 3.1-7.9 6.7-9.4 2-0.8 4.2-1.7 5.8-4.1 0.6-0.9 1-1.9 1.1-2.7q0.1-0.7 0-1-0.1-0.1-0.2-0.2-0.1 0-0.5 0c-0.4 0.1-1.3 1.5-2.3 2.9-1 1.5-2.1 3.1-3.3 4.1l-0.2 0.2-0.3 0.1c-2.4 0.7-5 0.4-7.4-0.2-3.2-0.9-6-2.7-6.6-3.9l-0.2-0.4 0.1-0.4c0.1-1.6 1.6-3 3.1-4.2 0.9-0.8 1.7-1.6 1.8-1.9 0 0-0.5 0.1-1.7-0.1-0.4 0.3-1.7 1.5-3 2.9-1.3 1.3-2.6 2.8-3.1 3.7l0.6 0.6c0.9 0.9 2.1 2.1 3.3 2.7 0.3 0.2 0.9 0.5 1.4 0.8 1.2 0.6 2.4 1.2 2.7 1.9 0.3 0.5 0.4 1.6 0.3 2.6-0.1 1.2-0.4 2.5-0.8 2.9-0.4 0.5-2.9 0.4-5.7-0.1-2.8-0.5-6.3-1.1-8.1-1.5-0.9-0.3-1.3-1.1-1.5-2 0-0.4 0-0.8 0-1.1 0-0.4 0.1-0.8 0.2-1.1 0.2-0.7 0.7-1.2 1.4-1.2q0.4 0 0.4-0.1 0.1-0.1 0.1-0.2 0-0.3-0.1-0.6c-0.1-0.3-0.3-0.5-0.5-0.6-1-0.1-3.4 1.2-4.6 1.9-0.9 0.5-1.4 0.9-2.1 0.5q-1.2-0.6-1.7-1.6c-0.7-1.3-0.6-2.7 0.1-4.2 0.5-1.2 1.4-2.4 2.4-3.6 2.4-2.8 5.9-5.3 7.4-5.7l0.3-0.1 0.3 0.1c2.9 0.6 8.3-1.5 14.1-3.8 5.6-2.1 11.5-4.4 16.6-4.8h0.1c4 0.2 7.9 1.3 11.3 2.3 3.7 1 6.9 2 8.8 1.3 3.5-1.2 5.3-5.2 5.9-8.8 0.2-1.2 0.2-2.3 0.2-3.3-0.1-0.7-0.2-1.4-0.4-1.8-0.5 0.5-1.2 2.2-1.8 4-1 2.5-1.9 5-3.7 5.6-1.2 0.5-4.1 0-7.9-0.6-6.9-1.1-17.1-2.7-22.1-0.1l-0.8 0.4-0.7-0.6c-1.2-1.1-2.2-3-2.7-5-0.3-1.3-0.4-2.6-0.2-3.7 0.3-1.3 0.9-2.5 2-3.3 0.8-0.5 1.8-0.9 3.1-0.9h1.5l-0.1 1.5c0.4 0.4 1.3 0.8 2.6 1.2 1.4 0.4 3.1 0.6 4.8 0.7 2.7 0.1 5.3-0.1 6.1-0.8 0.6-0.5 1.4-1.6 1.9-2.9 0.4-0.9 0.7-2 0.7-2.9 0-1.2-0.3-2.3-0.6-3.3l-0.1 2.4-2.3-2.7c-3.3-3.9-8.1-3.5-11.9-3.3zm28.5 184c0-5.9 0-11.2-1.6-13.2-0.9-1.2-1.6-3.5-2.7-6.7-0.8-2.2-1.7-4.9-2.9-7.9 0.6 1.8 0.8 3.9 0.4 6.2l-0.6 3.7c1 0.2 1.1 0.9 1.2 1.8 0 0.1 0-0.2 0.2-0.2l1.3 0.2v1.4l-0.2 3.1-0.1 1.9-1.2-0.5c-0.6 0.9-1.4 1.7-3.9 0.3l-0.8-0.4 0.1-1c0-0.7 0-1.6 0-2.5v-1c-0.6 1.9-1.1 4.1-1.1 6 0 1.2 0.2 2.3 0.6 3.2 0.4 0.8 1 1.5 1.9 1.9q1.1 0.5 2.8 0.5h1.5l-0.1 1.6-0.1 2.2-0.1 1.4h-1.4c-3.6-0.2-7.5 0.8-11 2.1-5 1.9-9.2 4.5-10.5 6-1.5 1.7-2.1 5.4-2.1 9.7 0 3.9 0.5 8.2 1.3 11.7 0.6 3.2 1.4 5.7 2.2 6.5h1.1v1.5l-0.2 7.6v1.6l-1.5-0.2c-0.1 0-2 2.7-4.1 5.5-1.5 1.9-2.8 3.8-3.2 5-1.4 3.7-3.9 5.8-6 7.5-1.1 0.8-2 1.5-2.4 2.2-0.1 0.2 0 0.8 0.2 1.5 0.4 1.4 0.9 3.1 0.5 5.5q0 0.4-0.2 0.8c-0.3 0.8-1 1.8-1.9 2.5-1 0.7-2.2 1.2-3.6 1q-0.6-0.1-1.3-0.4-0.6-0.3-1-0.2-0.2 0-0.4 0.2-0.1 0.2-0.2 0.6-0.1 0.6 0.2 1.5 0.4 1.1 0.6 2.1c0.6 2.7 0.1 5.2-1.2 7.2-1.3 1.9-3.3 3.4-5.9 4.5q-1.7 0.7-3.8 1.1c-7.5 2.2-8.9-3-9.7-6-0.1-0.4 0.5-0.5 0.1-0.6-0.5-0.3-1.6-0.4-2.7-0.6-0.8-0.1-1.7-0.2-2.6-0.4-2.7-0.6-4.8-1.7-4.2-4.7l0.2-1.1 1-0.1c2-0.2 4.7-0.6 6.2-1.3h0.1q-0.4-0.3-1.1-0.6c-1.3-0.6-3-0.7-4.5-0.3-1.2 0.3-2.4 1.1-3 2.2-0.4 0.7-0.6 1.5-0.8 2.3-0.4 1.6-0.8 3-2.1 4q-0.9 0.7-1.8 0.8c-0.8 0.1-1.5-0.1-2.2-0.5-0.6-0.3-1.2-0.9-1.6-1.5-0.6-0.9-1.1-2-1.2-3.1v-0.1-0.1-0.1c-0.1-1.7 0.8-3.6 2.1-5.2 1.3-1.5 3-2.7 4.3-2.9h0.1 0.1c4-0.2 6.5-0.6 8.1-0.9q-0.4-0.1-0.7-0.2c-0.9-0.1-1.7-0.2-2.6-0.4-3.5-0.6-7.7-1.4-8.9 0.3-1.2 1.7-2.1 2.7-2.8 3.3-0.7 0.4-1.2 0.6-1.7 0.7-0.7 0-1.3-0.3-1.6-0.7q-0.3-0.4-0.5-0.8c-0.5-1.7-0.7-3.5-0.5-5 0.2-1.7 0.9-3 2.2-3.5 2.7-1.2 6.5-1 10.4-0.9 3 0.1 6 0.2 8.7-0.3 2.7-0.4 4.9-1.6 6.9-3.3 2.1-1.7 4-4.1 6-6.8 4.8-6.4 6.6-11.3 6.5-15.9-0.1-4.5-2.1-8.8-4.9-13.8-0.9-1.5-2-3-3.2-4.5-2.9-3.9-6.3-8.3-7.6-16-3.4-20.4 16.7-29.1 33.4-36.2l2.8-1.3c2.9-1.2 8.9-2 14.1-1.3 2.7 0.3 5.3 1.1 7.3 2.3q0.6 0.4 1.1 0.8l-0.5-0.9c-1.8-3.5-3.7-7-3.7-10.8v-1.4h1.4c0.6 0 1.2 0.2 1.7 0.4-3.9-6.9-9.5-14.4-17.4-21.1-0.3-0.2-1.4-1-3-2.2-5.5-4-16-11.6-16.3-13.9-0.4-2.3 0.7-3.3 2.6-3.7 1.5-0.3 3.7 0.1 6.1 0.4 3.3 0.6 7 1.1 8.6-0.1 2.1-1.5 2.8-6.5 3.4-10.8 0.7-4.9 1.2-9.2 4.3-8.7 2.1 0.3 2.7 1.4 2.5 3-0.1 0.9-0.5 1.8-0.9 2.6-0.4 0.9-0.9 1.9-0.8 2.1 0.3 0.5 5.2 0.5 9.5 0.6 3.2 0 6.1 0 7.2 0.4 1.1 0.4 1.9 2.2 2.9 4.3 1 2.2 2.3 4.8 2.7 4.8 1 0 2.1-1.1 3.2-2 2.1-1.8 3.9-3.4 5.9-1 0.6 0.8 1.2 3.4 2 7.2 2.9 13.8 9.3 44.4 27.4 44.7h0.1c5.1 0.1 8.2-4.3 9.9-9.3 1.9-5.3 2.4-11.5 2.4-14.5l0.1-0.2c0.1-11.4-4.4-22.6-8.9-33.6-3.6-8.8-7.1-17.5-8.4-26.5-1.1-7.1-0.2-18.4 2.5-28.6 2.3-8.4 5.8-16.2 10.7-20.3 3.8-3.2 7.8-6.1 12.5-6.9 4.7-0.8 10 0.5 16 5.9 3.8 3.3 5.9 7.4 7 11.9 1 4.4 1.1 9.3 0.8 14.3-0.2 3.7-3.5 18.8-9 30-3.5 6.9-7.8 12.5-12.9 13.4l-1.6 0.3v-1.8-0.5c0-1.5 0-3.7 1.2-5.2l0.5-0.7c2.8-3.6 8.3-10.5 7.9-14.9-1.6 1.4-3.2 4-4.7 6.6-2.3 3.9-4.5 7.9-7.8 8.9l-1.2 0.4-0.4-1.3c-1-2.8-1.4-5.5-1.2-7.7 0.1-2.6 0.9-4.6 2.1-5.6 0.6-0.6 2.1-2.5 3.8-4.7l2.3-2.9c1.1-1.5 2.5-2.8 3.8-4.2 1.2-1.3 2.5-2.5 3.4-3.8 1.3-1.6 2-3.2 1-4.5-3.7 1.3-11.7 12.3-14.3 15.9-0.5 0.6-0.8 1.1-0.9 1.2l-0.4 0.5h-0.6q-0.5 0-1-0.3c-0.9-0.4-1.8-1.6-2.5-3.2-0.7-1.4-1.1-3.2-1.1-5.1 0-1.3 0.2-2.7 0.8-4 0.7-1.4 2.9-3.9 5.6-7 6.3-7.3 15.5-17.9 12.7-22-3.3-2.6-6.5-2.9-9.5-2.1-3.2 0.8-6.2 3-8.7 5.4-4 3.8-6.9 10.1-8.7 16.9-2.1 8.1-2.6 16.9-1.7 23.5 1.3 9.2 4.9 18.2 8.4 27.2 3.8 9.7 7.6 19.3 8.9 29.5 0.7 6 0.4 15.2-3.2 23.6-2.6 6.1-6.9 11.7-13.7 15.6q-0.1 0.1-0.2 0.2c-1.9 1.6-2.4 7.8-2.2 14.1 0.3 6.4 1.3 12.8 2.2 14.6v0.1c3.1 4.1 19.8 7.2 26.5 8.4q1.5 0.2 2.4 0.4 1 0.3 1.7 1c1 1 1.3 2.7 1.3 4.5 0 1.5-0.2 3.2-0.5 4.4-0.2 1.3-0.7 2.4-0.7 2.5h-0.1c-2.1 2.2-2.9 5.7-3.9 10.2-0.9 3.7-1.9 8.1-3.9 12.9-2.6 6.1-4 10.9-4.6 14.6-1.1 5.6-0.6 8-0.2 8.4 1.4 1.5 2.3 2.9 2.9 4.2 0.9 1.8 1.1 3.4 1.1 4.5 0 1.4-0.5 2.4-0.7 2.5l-0.1 0.2-0.2 0.1c-0.9 0.5-1.7 0.9-2.5 1.3-1.5 0.7-2.4 1.2-2.8 1.6q0 0 0 0.1c0 0.1 0.1 0.3 0.3 0.5 0.8 1 0.7 2 0.5 3.3-0.2 0.8-0.3 1.8 0 2.7 0.2 0.8 0.2 1.6-0.1 2.5-0.7 1.8-2.7 4-5.1 6.1-2.4 1.9-5.4 3.7-8.1 4.8-2.7 1.1-5.3 1.5-7.1 0.7q-0.6-0.2-1-0.8c-0.2-0.4-0.4-0.9-0.6-1.5l-0.7 0.2c-0.3 0-1 0.3-1.9 0.7-2.3 1.1-5.5 2.5-7.2 1.1l-0.4-0.3-0.1-0.4c-0.5-1.8-0.2-3.7 0.6-5.3 0.9-1.8 2.5-3.4 3.9-4.1l0.1-0.1h0.2c0.3-0.1 2 0.6 3.4 1.7 0.8 0.5 1.5 1.1 2 1.7l0.4 0.4v0.5 0.8q0.3-0.5 0.8-0.8c0.3-0.2 0.3-0.5 0.2-0.9-0.3-0.8-1-1.7-2.1-2.5-1-0.8-2.4-1.5-3.7-1.8-1.8-0.4-3.7 0-4.7 2.1l-0.5 1-1-0.2c-1.7-0.3-2.6-1.2-3-2.3-0.2-0.7-0.3-1.4-0.1-2.1 0.1-0.6 0.3-1.2 0.6-1.8 0.9-1.7 2.6-3.2 3.7-3.1 3.1 0.1 4.3 0.1 4.3 0 0-0.5-1.8-1.6-4.1-2.7-2.7-1.3-6-2.4-8.5-2.5-1.7-0.1-2.9 0.3-2.9 1.3v0.8l-0.8 0.4-0.1 0.1c-1.1 0.5-4.4 2.2-5.9-0.5q-0.3-0.6-0.4-1.3c-0.1-1 0.1-2.2 0.4-3.3 0.4-1.2 1-2.3 1.9-2.9q0.5-0.3 1.1-0.3c2-0.3 4.8-0.1 7.9 0.1 8.3 0.5 18.8 1.2 19.8-7.3v-0.2c0.8-2.7 1.9-14 0.3-24.1-0.9-5.9-2.7-11.3-6-14.2-4.1-3.6-9.8-4.7-14.8-5.7-4.5-0.9-8.5-1.7-10.8-4-4.9-4.9-5-14.6-5-23.1zm-13.2-202.5c0-0.1-0.1 0-0.1 0zm-77.3 109.7c-1.7 0.7-3.2 2.1-3.7 3.6l-0.3 1h-1c-3.8 0-8.8-0.6-13.3-1.5-5.9-1.1-11.1-2.6-12.4-3.4-1.6-1.1-1.2-3-0.9-4.7q0.1-0.5 0.2-0.9c0.3-1.6 1.2-1.6 2.3-1.5 0.2 0 0.2 0.2 0.4 0.1 0.1-0.2 0.3-0.6 0.5-1.1 0.6-1.3 1.4-2.9 3.3-4.1 1.2-0.7 1.9-0.6 2.9-0.3 0.9 0.2 2.3 0.6 6.2-0.5q-0.4-0.3-0.7-0.9c-0.9-2.5-3.1-4.9-5.2-6.8l-0.3 1.7c-0.1 0.5 0 1 0 1.6q0 0.6 0 1.1v1.4h-1.4c-1.5 0-2.7 0.4-3.6 0.6-0.7 0.2-1.2 0.4-1.8 0.3-2-0.1-2.3-1.4-2-6.5v-1.4h1c0.5-0.8 1.1-1.4 3.7-0.5l0.9 0.4v1c0 0.4 0.2-0.4 0.5-0.3 0.5 0.3 1.1 0.6 1.3 0.6h1.6c-0.8-0.8-1.6-1.5-2.4-2.1-1.2-1-2.1-1.9-2.6-2.5l-0.2-0.4v-0.4c0-1.4 0-3.1 0.4-4.6 0.4-1.8 1.3-3.4 2.9-4 1.2-0.4 2.2-0.6 3.1-0.5 1 0 1.9 0.3 3 0.7 3.1 1.3 4.3 5.1 5.6 8.9 1.1 3.6 2.3 7.1 4.7 7.6 5.7 1 17.8-1.1 26.7-2.6 5.3-0.8 9.5-1.5 11-1.4 2.6 0.4 5 0.4 7.2 0.4 6.4 0 10.8 0 11 6.9 3.3 2.5 6 1.9 8.2 1.5 2.2-0.5 4-0.8 5.8 1.1l0.2 0.2 0.1 0.3q0.1 0.5 0.2 1c0.2 1.7-0.2 4.1-0.9 6-0.8 2.1-2.1 4-3.6 4.5q-0.3 0.1-0.6 0.2l-16.7 2.4h-0.1c-4 0.1-8-0.4-11.7-1-6.2-0.8-11.6-1.5-14.3 1-2.6 2.5-4.8 3.8-6.3 4.3-1 0.3-1.9 0.3-2.6 0.2-0.8-0.2-1.5-0.7-1.8-1.4q-0.4-0.6-0.3-1.4c0-1.9-0.3-3-0.9-3.6q-0.6-0.5-1.4-0.6c-0.6 0-1.2 0.1-1.9 0.3zm37.5-88.2c1 1.6 2.2 2.9 3 3.4l5.4 2.8h-6q-1.1 0-2.1-0.5c-1.8-0.8-3.4-2.5-4.5-4.4-1.2-1.9-2-4.1-2-5.9q0-1 0.4-1.9l1.6-3.9 1 4.1c0.2 1 1.6 3.8 3.2 6.3zm3.6 83.4c4.8 0.1 8.9 0 10.3-0.7-0.1-1.4-0.8-1.9-1.7-1.9-0.8-0.1-1.8 0.1-2.8 0.2-1.1 0.2-2.2 0.3-3.3 0.3-8.1 0-14.2 0.1-18.1 0.3 4.3 0.8 10.3 1.5 15.6 1.8zm39.5 29c-0.2 0.9-0.6 1.6-1.4 2.2-1.9 1.2-2.6 2.2-2.7 2.8q0 0.1 0.2 0.2c0.3 0.2 0.9 0.3 1.6 0.2 1.6-0.3 3.5-1.6 4.4-4.2 0.2-0.8 0.3-1.7 0.3-2.7 0-2.9-0.8-6.5-2.1-9.4-1.2-2.9-2.7-5.1-4.1-5.6q-0.2-0.1-0.4-0.1h-0.1q-0.6-0.1-1.1 0.1c-0.6 0.2-1.1 0.6-1.4 1-0.4 0.4-0.6 0.9-0.6 1.3q0 0.1 0 0.2c0.1 0.3 0.5 0.5 0.9 0.7 0.5 0.2 1 0.4 1.4 0.9 1.2 1.2 1.4 2.7 1.1 4.2-0.2 1-0.6 1.9-0.9 2.6 0.7-0.1 1.6-0.1 2.5 0.1 0.6 0.2 1.2 0.7 1.6 1.4 0.3 0.5 0.6 1.2 0.8 1.8 0.1 0.8 0.2 1.6 0 2.3zm-11.7-2.2c1.2 0.5 2.1-0.2 3-1-1.1 0.3-2.2 0.6-3 1zm12.3 37.9q-0.8-1.9-1.8-3.8c0.3 0.9 0.9 2 1.5 3.1zm70.5 55.6q-0.2-0.6-0.8-1c-1.4 0.5-1.8 3.6-2.3 6.8l-0.2 1.6c-0.3 1.9-1.2 3.4-2 4.8-0.9 1.6-1.7 3.1-0.9 5.2 0.8-0.9 2-2.9 3.2-5.3 1.2-2.2 2.2-4.6 2.8-6.9 0.5-2.1 0.7-4 0.2-5.2zm-119.9-153.4c1.3 1 2.9 2.1 2.9 4.5v0.2q-0.1 0.7-0.4 1.3c-0.9 1.7-3.2 2.7-5.8 3.2-2.3 0.4-4.9 0.5-6.9 0.2-1-0.1-2-0.4-2.6-0.7l-0.7-0.5v-0.8c0-2.2 1.3-2.7 2.4-3.2 0.1 0 0.2 0.6 0.2 0.3v-0.8l0.7-0.5c0.2-0.2 0.8-0.6 1.4-1.1 2-1.6 5-4.1 6.5-4.1h1.4v1.5c0 0.1 0.4 0.2 0.9 0.5zm5.2 8.6c0.2-0.8 0.4-1.7 0.4-2.4v-1.5h1.4c2.4 0 4.4 0.9 6.4 1.7 1.7 0.7 3.3 1.4 4.9 1.4h1.4v4.6l-1.4-0.1c-2-0.1-4 0.2-6 0.5-2.1 0.3-4.3 0.6-6.4 0.5h-1.4v-1.5c0.1-1.1 0.4-2.1 0.7-3.2zm33.5 0.6v1.5q0 0.8-0.2 1.6h0.8c0.2 0 1.4-0.5 2.8-1 1.5-0.6 3-1.3 3.5-1.6l2.1-1.3v2.6c0 0.9 0.2 1.9 0.4 2.9 0.3 1.1 0.5 2.3 0.5 3.5v0.2c-0.2 1.2-1.8 2.2-3.6 3.4-2 1.2-4.3 2.7-4.3 3.4v1.5h-1.5c-2.8-0.2-3.5-2.4-3.3-5.1 0-1.1 0.2-2.3 0.4-3.4 0.1-0.7 0.2-1.4 0.2-1.9q-0.3 0.4-0.7 0.8c-0.5 0.5-0.9 1-1 1.2l-0.2 1.1h-1.1c-1.2 0-2.7 0.4-4.4 0.9-2.1 0.5-4.5 1.1-6.7 1h-1.4l0.1-1.5 0.1-3.6 0.1-1.5 1.4 0.1c0.1 0 0-0.5 0.2-1 0.4-0.8 0.7-1.8 0.8-2.3v-0.2l0.1-1.3zm-0.8 4.4l-0.2 0.4h0.2c0 0 0-0.2 0-0.2zm11.6 97.3q-0.2 1-0.6 2.1 0.1 0 0.2 0 0.4-0.1 0.7-0.2zm-98.5-115.7c3 0.2 4.6 0.4 4.4 4.8l-0.1 1.4h-1.3c-1.3 0-2.5-0.5-3.4-1.3-0.8-0.8-1.3-2-1.3-3.4v-1.6l1.5 0.1zm22.1 21.7c-4.5 0.9-9.8 2.1-12.4-1.3l-1.7-2.2 2.7-0.2c0.5 0 1.3 0 2.2 0 2.3-0.1 5.7-0.2 8.5-0.6 1.1-0.2 2.2-0.5 3-0.8 1.1-0.4 2.1-0.7 3-0.6l1.3 0.1v1.3c0 0.4-0.1 0.9-0.3 1.4l-0.1 0.7v1.5l-1.5-0.1c-1.1 0-2.8 0.4-4.7 0.8zm87.3 209.4l-1.2-0.2v-1h-1l0.1-1.5 0.1-2.9 0.1-1.4h0.8v-1.4h1.4c1.8 0 3.1 1.3 3.6 2.9 0.2 0.6 0.3 1.2 0.3 1.9 0 0.7-0.2 1.4-0.5 2-0.7 1.1-1.9 1.9-3.7 1.6zm15.9-1c-0.3 1.2-0.1 2.7 0.5 4.9l0.4 1.8h-1.8c-1.1 0-2.7-0.7-4-1.6-1.3-1-2.5-2.2-2.8-3.4-0.3-0.9-0.3-2.2-0.1-3.4 0.2-1.3 0.6-2.7 1.1-3.7 0.8-1.7 2.9-1.7 5.4-1.6 0.8 0 1.7 0 2.6 0l3-0.2-1.8 2.5c-1.5 2-2.3 3.3-2.5 4.7zm-100.1-29.2v0.1l-0.1 1.5-1.3-0.1q-1.9 0-3.3 0c-3.8-0.1-5.8-0.1-6.8-0.7-2.2-1.3-1.1-2.6 1.2-5.3l0.5-0.7 0.5-0.5h0.6 0.3 0.1c1.2 0.1 3.1 0.7 4.8 1.5 1.9 1 3.5 2.5 3.5 4.2zm-13.5 15.4c0 2.6-0.6 4-4.6 4h-1.3v-1.5c0-1.2 0-2.7 0.5-4 0.6-1.6 1.7-2.8 3.9-2.8h1.4v1.5c0 0.6 0 1.1 0 1.6 0.1 0.5 0.1 0.9 0.1 1.2zm24.4 17.1l-1.5-0.1c-0.6 0-1.4 0.1-2.3 0.3-1.4 0.2-2.8 0.5-3.8 0.1-1.4-0.5-2.1-1.5-1.4-3.8 1-3.5 2.8-3.8 4.6-3.1 0.6 0.2 1.1 0.5 1.7 0.8 0.5 0.3 1 0.6 1.3 0.6h1.4zm-19.2-4c-0.7 1.1-2 1.9-3.8 1.8l-1.4-0.1v-1.4c0-0.6 0.1-1.3 0.1-2.1 0-0.6 0.1-1.2 0.1-1.8v-1.6l1.4 0.1c1.9 0.1 3.2 0.9 3.7 2 0.3 0.5 0.4 1 0.4 1.6-0.1 0.5-0.2 1-0.5 1.5zm53.6-46.4c0.6 0.3 1.4 0.4 2.5-0.2 1.2-1.3 1.7-2.8 1.7-4.2 0.1-1.6-0.3-3-0.8-4-0.2 0.5-0.3 1.2-0.4 1.9-0.4 2-0.9 4.3-3 6.5zm7.5-220z"/>
</svg>