<svg version="1.2" xmlns="http://www.w3.org/2000/svg" viewBox="0 0 2652 3556" width="2652" height="3556">
	<title>Zlatograd-pdf</title>
	<style>
		.s0 { fill: #fbc707;stroke: #ed1c24;stroke-width: .4 } 
		.s1 { fill: #99d420;stroke: #231f20;stroke-width: .4 } 
		.s2 { fill: #ed1d29;stroke: #231f20;stroke-width: .4 } 
		.s3 { fill: #ffffff;stroke: #231f20;stroke-width: .4 } 
		.s4 { fill: #fbc707;stroke: #231f20;stroke-width: .4 } 
		.s5 { fill: none;stroke: #231f20;stroke-width: 1.1 } 
	</style>
	<path id="Path 1" class="s0" d="m654.7 2.6l-2.2 196.8 251.5 0.5 2.5-196.7 821.4 2.9-2.2 190.2 289.3 0.5v-189.7l636.3 2.2-0.3 2830.1-1340 715-1292.8-698.6-17.7-2855.4z"/>
	<path id="Path 2" class="s1" d="m2224.9 2601.5c-127.3-23.8-203.2-74.9-188.2-235.3l29.6 7.7c78 31.9 117.1 76.7 163.9 146.6 0.6-11.5 12-143.6 4.7-146.1-63.3-7.7-130.3-29.8-172.1-86.3-20.4-27.6-31.2-65.8-38-132.2 111.1 14.2 145.2 52.8 198.7 121.2 30.7 39.3 16.2-8.1 15.7-39.2-0.5-31.1-1.4-36.7-1.4-36.7v-52.9c-105.5-21.5-208.2-30.2-223-220 101.5 8.1 177 32.6 223.5 145.6l1.9-124.7c-104.6-30.5-162.7-84-206.8-192.5-10.9-27-13.3-46.3-13.3-46.3 106.1 18.9 165.8 46.9 228.2 140.5 0 0-1-21.9-0.5-61.1 0.5-39.2-1-67.7-1-67.7-104.5-4-206.7-46.6-233.9-163-5.7-24.4-9.5-32-9.5-32 109.6 21.8 166.6 14.3 238.7 117.1 33.9 48.3 7.8-47.3 14.5-85.7 6.6-38.5-5.3-17.5-33.6-24.8-32.7-8.5-50.9-15.4-79.5-36.7l-16.2-36.1-24.5-6.4c-4.5-1.2 6 28.3-17.9 30.3l-20.8 1.7-20.1-19.8-10.6-13-16.7 3.6c0 0-24.6 2.1-31.3-22.8-6.7-25 22.3-32.5 11.3-52l-10-17.9 4.5-24.9 18.9-10.7c0 0 5.5-2.4 22.2 4.7 16.7 7.2 17.8 6 17.8 6l3.5-24 13.2-18.8c0.8-1.2 25.5-24.6 33.3 7.1l6.7 27.1 30 8.6 14.9 12.6 2.9 26.6-20.5 28.5 19.4 17.8c-4.1-3.7 62.2 26.4 73.3 35.7l23.4 28.5 7.5-28.5c-13.9-18.8-46-50.1-17.5-99.8l-26.3 3.1-20.2-23.3 7.6-26.2 7.5-19.7-26-14-6-37.6 23.4-17.8 30-3.5 3.3-25 16.7-14.2h43.3l16.7 32 16.7 7.2 23.3 14.2 10 17.8-6.6 21.4-10 21.4 3.3 21.4-3.3 24.9-23.4 10.7-34.9 3.6c38.5 50.1 21.3 59.7 14.9 124.8l16.7-14.3 23.3-10.7c0 0 0 0 23.4-7.1 23.3-7.1 44.3 5.1 30-21.4l-17.4-32.1 7.4-24.9c0 0 6.9-7.6 24.4-6.9 17.6 0.7 3.6 2.7 8.9-25.2l3.4-17.6 20.4-11.6 22.9 4.2c0 0 8.1 44.5 26.7 25l13.8-14.5 19.5 0.2 16.7 7.2 6.7 24.9-7.8 21.6 14.5 21.2 3.3 17.8-6.7 17.8-16.6 14.3c0 0-30.3-14.5-37.6 9.5l-5.8 19-16.7 7.1-20-3.5-9.3-14.3-22 7.1-4.9 21.4c-30.9 38.6-75.3 30.7-120.5 35.7l-3.4 135.4 16.7-24.9c69.7-74.6 142.9-90.1 237.7-111-53 136.7-76.3 211-256.7 196.5l2.3 135.4c82.3-78.1 120-114.7 236.8-106.9l-10 46.4c-28 74.9-92.2 124.8-166.7 142.5l-72.9 12.3-0.5 105.3c70.9-88.4 139.6-98.2 236.8-110.4 0 136-133.4 191.6-238.7 198.5l2.4 134.5c56.6-98.7 117.7-118 226.3-126.3-24.4 110.6-108.3 223.3-227.8 216.4l-2.8 138.5c33.4-97.4 124.8-126.7 210.6-137.5 0 149.1-77.7 204-201.6 224.6l1 114-59.6-2.5z"/>
	<path id="Path 3" class="s2" d="m54.1 69.7h525.1v152.4h-525.1z"/>
	<path id="Path 4" class="s2" d="m776.7 267v165.6l-722.6-0.4v-165.2z"/>
	<path id="Path 5" class="s2" d="m54.1 489h336.1v176.1h-336.1z"/>
	<path id="Path 6" class="s2" d="m944.4 489l-292.7 176.1-211 0.5-0.1-176.6z"/>
	<path id="Path 7" class="s2" d="m538.7 707.4l-484.6 280.9v-280.9z"/>
	<path id="Path 8" class="s2" d="m1856.2 267v165.6h-286l-258.6-138.5-254.1 138.5-228.1-1.5 0.9-164.1z"/>
	<path id="Path 9" class="s2" d="m1004.1 69.7h640.2v152.4h-640.2z"/>
	<path id="Path 10" class="s2" d="m2062.2 69.6h522.5v152.5h-522.5z"/>
	<path id="Path 11" class="s2" d="m1899.2 267h685.5v165.6h-685.5z"/>
	<path id="Path 12" class="s2" d="m2225.2 489v176.1h-242.8l-338.1-176.1c-2-1.1 580.9 0 580.9 0z"/>
	<path id="Path 13" class="s2" d="m2275.4 489h309.3v176.1h-309.3z"/>
	<path id="Path 14" class="s2" d="m2584.7 707.4v276.5l-522.5-276.5z"/>
	<path id="Path 15" class="s3" d="m762.7 1067.7h1153.8v1764.6h-1153.8z"/>
	<path id="Path 16" class="s4" d="m957.1 1558.4l765.4-1.2v1088.5h-765.4z"/>
	<path id="Path 17" class="s3" d="m1013.2 1611.3h291.4l1.3 340.3-292.7 2.2z"/>
	<path id="Path 18" class="s3" d="m1349.3 1611.1l318.9 0.2v342.5l-316.6-3.6z"/>
	<path id="Path 19" class="s3" d="m1013.2 2163.6v-167.4h655v167.4z"/>
	<path id="Path 20" class="s3" d="m1668.2 2215.5v161.3h-655v-161.3z"/>
	<path id="Path 21" class="s3" d="m1013.2 2429.5h655v165.7h-655z"/>
	<path id="Path 22" class="s4" d="m957.1 1474.3l-2.7-117c53.3 7.8 111.6-15.9 110.8-39.9-0.9-30.1-34.4-36.3-52-37.8v-50.5h655v50.5c-52.8 9.3-56.7 24.9-55.7 42.6 1.7 30.9 46 39 55.7 35.9h54.3v116.2z"/>
	<path id="Path 23" class="s3" d="m1013.2 1430.9v-39.6c84 9.7 109.4-47.8 108-73.7-1-17.7-15.1-33.1-24.2-38.8l472.3 0.8c-7.5 6.9-15 23.9-16.9 36.1-8 52.5 44.9 87.1 115.8 75.6v39.6z"/>
	<path id="Path 24" class="s1" d="m392.1 2632.4c-127.3-23.8-203.2-74.9-188.2-235.3l29.6 7.7c78 31.9 117.1 76.8 163.9 146.6 0.6-11.5 12-143.6 4.7-146.1-63.3-7.7-130.3-29.8-172.1-86.2-20.4-27.7-31.2-65.9-38-132.3 111.1 14.2 145.2 52.9 198.7 121.2 30.7 39.3 16.2-8.1 15.7-39.2-0.5-31.1-1.4-36.6-1.4-36.6v-53c-105.5-21.5-208.2-30.2-223-220 101.5 8.1 177 32.6 223.5 145.7l1.9-124.8c-104.5-30.5-162.7-84-206.8-192.5-10.9-27-13.3-46.3-13.3-46.3 106.1 18.9 165.8 46.9 228.2 140.5 0 0-1-21.9-0.5-61.1 0.5-39.2-1-67.7-1-67.7-104.5-4-206.7-46.6-233.9-162.9-5.7-24.5-9.5-32.1-9.5-32.1 109.6 21.8 166.6 14.3 238.7 117.1 33.9 48.3 7.8-47.3 14.5-85.7 6.6-38.5-5.3-17.4-33.6-24.8-32.7-8.5-50.9-15.4-79.5-36.7l-16.2-36.1-24.5-6.4c-4.5-1.2 6 28.3-17.9 30.3l-20.8 1.8-20.1-19.9-10.6-12.9-16.7 3.5c0 0-24.6 2.2-31.3-22.8-6.7-24.9 22.3-32.5 11.3-52l-10-17.8 4.5-25 18.9-10.7c0 0 5.5-2.4 22.2 4.8 16.7 7.1 17.8 5.9 17.8 5.9l3.5-24 13.2-18.8c0.8-1.2 25.5-24.6 33.3 7.2l6.7 27 30 8.6 14.9 12.6 2.9 26.6-20.5 28.5 19.4 17.8c-4.1-3.7 62.2 26.4 73.3 35.7l23.4 28.5 7.5-28.5c-13.9-18.8-46-50-17.5-99.8l-26.3 3.1-20.2-23.3 7.6-26.1 7.5-19.8-26-14-6-37.5 23.4-17.9 30-3.5 3.3-25 16.7-14.2h20 23.3l16.7 32 16.7 7.2 23.3 14.2 10 17.9-6.6 21.3-10 21.4 3.3 21.4-3.3 25-23.4 10.7-34.9 3.5c38.5 50.1 21.3 59.7 14.9 124.8l16.7-14.3 23.3-10.7c0 0 0 0 23.4-7.1 23.3-7.1 44.3 5.2 30-21.4l-17.4-32.1 7.4-24.9c0 0 6.9-7.6 24.4-6.9 17.6 0.7 3.6 2.7 8.9-25.2l3.4-17.6 20.4-11.6 22.9 4.3c0 0 8.1 44.4 26.7 24.9l13.8-14.5 19.6 0.2 16.6 7.2 6.7 24.9-7.8 21.7 14.5 21.1 3.3 17.8-6.7 17.8-16.6 14.3c0 0-30.3-14.5-37.6 9.5l-5.8 19-16.7 7.1-20-3.5-9.3-14.3-22 7.1-4.9 21.4c-30.9 38.6-75.3 30.7-120.5 35.7l-3.4 135.4 16.7-24.9c69.7-74.6 142.9-90.1 237.7-111-53 136.7-76.3 211-256.7 196.5l2.3 135.5c82.3-78.2 120-114.8 236.8-107l-10 46.4c-28 74.9-92.2 124.9-166.7 142.5l-72.9 12.3-0.5 105.4c70.9-88.5 139.6-98.3 236.8-110.5 0 136-133.4 191.6-238.7 198.6l2.4 134.4c56.6-98.7 117.7-118 226.3-126.3-24.4 110.7-108.3 223.3-227.8 216.4l-2.8 138.5c33.4-97.4 124.8-126.7 210.6-137.5 0 149.1-77.7 204-201.6 224.6l1 114.1-59.6-2.6z"/>
	<path id="Path 25" class="s3" d="m253.5 1390.4l16.2 25-19.4 28.5-19.3-14.3 3.2-32z"/>
	<path id="Path 26" class="s3" d="m2066.2 1369.1l16.2 24.9-19.4 28.6-19.4-14.3 3.3-32.1z"/>
	<path id="Path 27" class="s3" d="m466.5 1277.1v17.8l-9.7 17.8-16.2 7.2-22.5-14.3 3.2-32.1z"/>
	<path id="Path 28" class="s3" d="m2278.9 1269v17.8l-9.7 17.8-16.1 7.2-22.6-14.3 3.2-32.1z"/>
	<path id="Path 29" class="s3" d="m646.9 1395.8l11.1 15.3-2.8 24.4-24.9 12.3-13.8-6.2-8.3-21.3 11.1-21.4z"/>
	<path id="Path 30" class="s3" d="m2459.4 1379.3l11 15.2-2.7 24.5-24.9 12.2-13.9-6.1-8.2-21.4 11-21.4z"/>
	<path id="Path 31" class="s3" d="m1310.4 3500.8l605.9-669.2 671.8-9z"/>
	<path id="Path 32" class="s3" d="m2588.1 1073.2l-671.6-5.5-607.7-687.9z"/>
	<path id="Path 33" class="s3" d="m1313 374.6l-550.3 693.1h-703.9z"/>
	<path id="Path 34" class="s3" d="m59.6 2822.6l703.1 9.7 547.9 668.7z"/>
	<path id="Path 35" class="s5" d="m2589 1072.4l-0.7 1751m-2527.9-0.9l0.7-1756"/>
</svg>