<svg version="1.2" xmlns="http://www.w3.org/2000/svg" viewBox="0 0 182 198" width="182" height="198">
	<title>Kotel-pdf</title>
	<style>
		.s0 { fill: #fff540 } 
		.s1 { fill: #b4351e } 
	</style>
	<path id="Path 1" class="s0" d="m182.3 37.5c-0.1 0-9.6 2.5-10.8 6.5-1.3 4-2 14-2 14l-0.5 41c0 0-14.8 3.5-13.3 10 1.5 6.5 12.8 12.8 12.8 12.8 0-0.1 6.7 75.7-76.8 75.9v0.3c-84.7 0.5-78-76-78-76 0 0 11.5-7 13-13.5 1.5-6.5-13.5-9.3-13.5-9.3l-0.5-41c0 0-0.7-10.2-2-14.2-1.2-4-10.7-6.3-10.7-6.3l11.7-17.7 34.8-0.5-2.8-19.3c0 0 32.8 1 37.8 1.8 3.8 0.6 7.8 2.1 9.5 3.2 1.4-0.9 5.6-2.8 9.7-3.5 5-0.7 37.8-1.7 37.8-1.7l-2.8 19.2 34.8 0.5z"/>
	<path id="Path 2" class="s1" d="m94 40.8l0.3-29.9c0 0-1.1-3.7 2.7-5 3.8-1.2 8.3-1.5 8.3-1.5l29.4-0.2-4.4 34.5c0 0-19-0.3-27-0.1-8 0.3-9.3 2.2-9.3 2.2zm-14.7-2c-8-0.3-26.8-0.1-26.8-0.1l-4.5-34.5 29.5 0.2c0 0 4.5 0.3 8.2 1.5 3.8 1.3 2.8 5 2.8 5v30.1c0 0-1.2-2-9.2-2.3zm97.5-3c0 0-7 1.5-8.8 7.3-1.7 5.8-1.5 12.8-1.5 12.8l-0.2 39.4c0 0.1-16 5.6-15 13.3 1 7.8 13.2 16.5 13.2 16.5 0 0 1.8 34.8-21.2 53.3-21.3 17.1-52 15.5-52 15.5 0 0-30.8 1.6-52-15.5-23-18.5-21.3-53.3-21.3-53.3 0 0 12.3-8.8 13.3-16.5 1-7.8-15-13.3-15-13.3l-0.3-39.5c0 0.1 0.3-6.9-1.5-12.7-1.7-5.8-8.7-7.3-8.7-7.3l8.7-11.7 32.5-0.3 3 17.8c0 0 25.8-0.8 32.8 0.7 7 1.5 8.5 4 8.5 4 0 0 1.5-2.5 8.5-4 7-1.5 32.7-0.7 32.7-0.7l3-17.8 32.5 0.3z"/>
	<path id="Path 3" fill-rule="evenodd" class="s0" d="m144 41.8h5.3v8h5l-5 14.5h5v5.2h-5l5 16.3h-5v9h-5.3v-8.8h-5l5-16.5h-5v-5.2h5l-5-14.5h5zm-110.8-0.3h5.3v8h5l-5 14.5h5v5.3h-5l5 16.2h-5v9h-5.3v-8.7h-5l5-16.5h-5v-5.3h5l-5-14.5h5zm92.6 102.2l3.9-9.1 1.2 0.5-0.5 1.3 1.7 0.7 19.8 2.4q0.4 0 0.7-0.1 0.3-0.2 0.4-0.4l0.4-0.9 1 0.5-3.5 8.4-1.1-0.5 0.6-1.3-18.6-2.2q0.5 1.5 1.3 2.8 0.7 1.3 1.6 2.3 0.9 1.1 1.8 1.7 1.3 1 3 1.7 1.6 0.7 4.1 1.5 2.5 0.8 3.7 1.3 0.1 0.1 0.2 0.3 0.1 0.2 0 0.3l-2.1 5q-0.1 0.3-0.5 0.4-0.4 0.2-0.6 0.1-2.7-1.1-4.6-2.7-2-1.7-3.2-3.2-1.2-1.6-2.3-3.5-1.9-3-4-7.4l-0.9-0.9-1-0.4q-0.2-0.1-0.5 0.3-0.4 0.3-0.5 0.7l-0.4 0.8zm-16.4 31.2q-0.6-0.8-1-1.7-0.9-1.9-1.3-5.1-0.6-3.9 1.3-7 0.6-1.1 1.8-2.3 1.1-1.1 2.1-1.7 1.4-0.9 2.6-1.4 1.3-0.6 2.3-0.8 1-0.2 1.9-0.3 0.9 0 1.4 0.1 2 0.3 2.5 0.4 0.6 0.1 1.1 0.3 0.4 0.2 1.1 0.1 0.6-0.1 0.9-0.3l0.5-0.3 0.5 0.7-10.6 6.8-0.5-0.7 1.1-0.7q0.6-0.4 0.9-1 0.3-0.6 0-1.1l-0.6-1q-0.4-0.5-1.2-0.7-0.8-0.2-1.6-0.2-0.9 0.1-1.3 0.4l-1.7 1.1q-0.9 0.6-1.2 1.4-0.3 0.8-0.3 2.3 0 2.8 2.7 7l1.2 2 0.5-2.1q0.1-0.7 0.7-1.6 0.6-0.9 1.5-1.8 0.9-0.8 1.8-1.5 1.2-0.7 2.9-1.3 1.7-0.6 2.6-0.6 1.3-0.1 2.5 0.1 0.2 0.1 1 0.4 0.8 0.4 1.5 0.4l1-0.7 0.5 0.7-9 5.8-0.3-0.5q0.7-0.6 0.7-1.3-0.1-1-0.8-1.2-0.6-0.3-1.3-0.1-0.7 0.1-1.3 0.5-2.2 1.4-2.9 3.3l-0.9 2.4 1.1 1.7q1.7 2.7 3.4 3.8 1.7 1.1 3.4 0.9 1.6-0.2 3.4-1.4 0.9-0.6 1.4-1.8 0.4-1.2 0.1-1.7l-0.6-0.9q-0.7-1.2-2.3-0.1l-1 0.6-0.5-0.7 10.5-6.8 0.5 0.8q-0.8 0.6-1.2 1-0.4 0.4-0.5 0.9-0.7 3.1-0.8 3.7-0.2 1-0.9 2.2-0.6 0.9-1.8 2-1.1 1.1-2.2 1.8-1.3 0.8-2.6 1.4-1.4 0.6-2.9 0.8-1.6 0.3-3.3 0.1-2-0.3-3.6-0.9-1.6-0.7-2.9-2.1-1.3-1.4-2-2.5zm-13.1 13.2l-11.1-0.1v-0.9h1.6q0.5 0 0.8-0.4 0.4-0.5 0.4-1l0.2-21h-2.7q-0.7 0-1.3 0.8-0.6 0.8-1 2.1-0.5 1.5-0.8 2.4-0.2 0.9-0.4 2.5l-1-0.1q-0.6-2.5-1.2-4.1-0.5-1.7-1.3-3.2v-1.6l25 0.3v1.6q-0.9 1.6-1.5 3.2-0.5 1.6-1.2 4.1h-0.9q-0.2-1.4-0.4-2.4-0.3-1-0.8-2.6-0.4-1.2-1-2.1-0.6-0.8-1.3-0.8h-2.7l-0.2 21q0 0.4 0.3 0.9 0.4 0.5 0.9 0.5h1.6zm-40.3-10.7q-2.6-1.8-3.9-4-1.4-2.2-1.6-4.6-0.3-2.4 0.4-4.6 0.6-2.2 1.8-4 1.2-1.8 2.8-3.2 1.7-1.5 3.8-2.3 2.2-0.8 4.8-0.4 2.6 0.4 5.6 2.4 3 2 4.3 4.3 1.4 2.3 1.5 4.6 0.1 2.2-0.6 4.3-0.8 2.1-1.9 3.9-1.8 2.5-4.4 4.2-2.6 1.7-5.9 1.7-3.3 0-6.7-2.3zm0.5-1.2q1.4 0.9 2.5 1.2 1.2 0.3 2.4-0.3 1.2-0.5 2.6-2.1 1.5-1.5 3.4-4.4 2.1-3.1 3.2-5.1 1-1.9 1-4.1-0.1-2.2-2.4-3.8-2.4-1.6-4.5-0.8-2 0.8-3.4 2.5-1.4 1.7-3.5 4.8-1.9 2.8-2.8 4.8-0.9 2-0.9 3.3-0.1 1.3 0.5 2.2 0.6 0.9 1.9 1.8zm-5.3-46.8l3.9 9.6-0.8 0.3-0.5-1.2q-0.2-0.4-0.7-0.7-0.4-0.2-0.8 0l-6.8 2.8q0.8 0.8 1.5 1.7 0.8 0.9 1.7 1.8 0.9 0.9 1.8 1.8l6-2.4 3.3 7.4-0.8 0.3-0.6-1.5q-0.2-0.5-0.6-0.6-0.4-0.1-0.8 0.1l-5.6 2.3-1-2.5q-0.3-0.8-1-2-0.7-1.1-1.6-2.2-0.8-1.1-1.5-1.7l-2.1-2.1-1.6 0.7-0.5 2.4q-0.2 0.9-0.1 2.4 0.1 1.5 0.5 2.5l2.1 5.1q0.1 0.2 0 0.5-0.1 0.3-0.3 0.4l-5.7 2.3q-0.4 0.2-0.7 0.8-0.3 0.6-0.1 1l0.4 1.1-0.8 0.3-2.9-7.6 6.8-2.7q-0.5-1.4-0.6-2.6-0.1-1.2 0.1-2.4l0.4-2.9-8.1 3.3q-0.3 0.1-0.4 0.6 0 0.5 0.2 0.9l0.5 1.2-0.8 0.3-4.1-9.9 0.8-0.3 0.4 0.9q0.3 0.7 0.8 1 0.5 0.2 1.1 0l18.5-7.6q0.3-0.1 0.6-0.6 0.3-0.5 0.1-0.9l-0.4-1.1zm43.8-27v40.2h-7.8v-40.3c-8.8-1.4-15.5-7.1-15.7-13.9h39.7c-0.3 7-7.2 12.7-16.2 14z"/>
	<path id="Path 4" fill-rule="evenodd" class="s0" d="m153.8 111h-25.9c-3.1 24.7-17.9 43.5-35.7 43.5-17.9 0-32.8-19.2-35.7-44.3h-26.3v-6h25.9q-0.1-1.4-0.1-2.8c0-29.3 16.3-53.2 36.2-53.2 20 0 36.3 23.9 36.3 53.2q0 1.8-0.1 3.6h25.3zm-31.2-9.6c0-26-13.6-47.2-30.3-47.2-16.6 0-30.2 21.2-30.2 47.2 0 26 13.6 47.1 30.2 47.1 16.7 0 30.3-21.1 30.3-47.1zm-48.3-15.7c0 0-2.6-4.3 1.1-10 3.8-5.8 4.7-1.7 7.9-9.2 1.5-3.3 0.1-5.8 0.1-5.9 0 0 2.4 2.8 3.2 5.9 1.5 5.5 2.5 8 2.5 8 0 0 2-0.3 1.5-7.5-0.5-7.3-1.3-10.5-1.3-10.5 0 0 1 0.5 3.8 5.5 2.7 4.9 3.8 8.7 4.1 10.2 0.2-0.7 0.6-2.1 1.6-4.7 2.5-6.3 4.8-5.8 4.8-5.8 0 0-1.9 3.2-0.5 8 1.8 6.3 7 13.5 7 13.5l0.2 2zm22.9-13.5c-0.2 0.9 0.1 0.5 0.1 0.5q0.1 0-0.1-0.5z"/>
</svg>