<svg version="1.2" xmlns="http://www.w3.org/2000/svg" viewBox="0 0 1076 1472" width="1076" height="1472">
	<title>Razlog-pdf</title>
	<style>
		.s0 { fill: #231f20 } 
		.s1 { fill: #fee103 } 
		.s2 { fill: #c40d3e } 
		.s3 { fill: #1c63b7 } 
	</style>
	<path id="Path 1" class="s0" d="m652.9 1.5v119.7h196.4v-119.7h226l-53.7 991.6c-3 263.6-219 477.8-483.6 477.8-264.3 0-480.2-214.2-483.3-477.8l-53.7-991.6h229.4l-0.1 119.7h196.4v-119.7z"/>
	<path id="Path 2" class="s1" d="m625.4 1033.3c-6.3-0.2-15.5-2.7-18.5-8.9-0.4-1-1-2.6-1.3-3.7-10.9-37.4-17.3-74-27.6-112h0.7l15.1 19.4c3 3.8 5.8 10 6.8 15.1l0.7 0.3 2.9-14.6 6.6 7.2c3.2 3.9 5.3 9 4.6 13.3-2.9 9.6-6.2 20.1-0.6 29.7 3.5 5.7 10.7 7.7 17.5 9.8 1.5 0.4 3.2 0.7 4.8 0.2-4.6-3-9.3-9-8.8-15.9l1.9-10.5 0.7 0.2 8.4 9.9c4.9 5.8 13.7 9.7 21.6 7.1l14.4-4.9v-1.3c-11.8-1.1-21.1-8.9-27.6-17.2 7.5 2.6 17.9 3.3 23.1-3.8 3.4-4 6.4-9.1 7.6-13.7-10.7 6.2-22.4 3.3-33.6-0.8-0.8-2.4 1.6-4.3 3.3-5.6 2.9-2.3 7.1-3.7 10.8-2.1l4.1 1.4c-1.5-5.5-5.3-9.2-9.7-12.4-4.5-2.6-9.8-2.6-14.3-0.5-4.4 2.5-7.3 6.6-10.7 9.9l-10.4-12.9 18.6-1.7c-4.8-3.7-9.2-7-12.7-12.5l9.1 3.4 19.2 7.5-2.3-10.8-4.5-18.8c6.5 4.2 11.5 11.7 14.8 20.8l0.6 0.4c1.9-5.6 1.6-11.2 1.1-17l11.6 11.2c-6.7 4.4-15 10-14.3 19.5 1.4 7.4 6.3 14.3 11.4 18.5-1.7-8 0-18.5 8.8-22.4l0.5 0.3c-3.7 6.8-5.8 13.7-2.9 20.8 2.9 5.9 11.1 10.4 18.5 12l0.2-0.3c-4.1-4.5-4.9-10.8-3.9-16.4l3.4-12.5c5.4 7.4 15.9 14.3 15.2 25.5-0.2 0.8-1.3 1.8-1 2.9 4.1-1.3 6.9-5.5 9.1-9.3 3.3-5.6 3.9-11.9 0.9-17.6-2.4-5-7.8-8.4-10.9-11.9 6.3 0 16.3 2.1 20.5 7.6l3.4 4.3 0.5-0.2c0-8.2-1.8-19.4-8.5-25.3-9.1-6.3-20.8-2.5-31.2-3.4l-7.5-5.7-11.6-10.6 10.7-1.9c1.3-0.9 3-0.2 3.4-1.6-8.3-5.2-14.7-11.8-21.3-19.4 14.6 10.9 34.2 22.3 53.7 33.3 33.9 19.1 68.4 37.2 78.9 46.2 1.9 1.6 5.3 5.5 5.4 10.4 0.1 4.9-8.3 14.1-13.8 18.5-0.6 0.5-2.2 1.6-3 2.2-3.9 2.4-8.8 3.4-12.4 1.5-3.4-1.6-6.9-3.8-9.9-5.7-1.5-1-3.3-2.1-4.7-3l-24.7-16.2-0.6 0.7 0.2 0.7c10.5 11.6 37.3 24.5 34.6 33.7-0.6 2-1.4 3.5-2.7 5-2.2 2.6-6.4 6.2-10.3 8.5-4.9 3-11.1 7.6-17.7 3.8-12.7-7.5-22.9-20.8-35.5-30.7l-0.8 0.1 23.7 29.2q3.7 5.9 1 10.8c-1.3 2.4-5 4.3-7 5.9-4.9 3.6-12.2 7.3-17.7 6.1-9.6-1.9-14.4-8.8-20.5-16.5-4.4-5.4-9.3-11.6-13.7-16.4l-0.8 0.6c6.5 10.5 16.9 22.8 20.5 31.3 0.8 2.2 0.8 4.9-0.4 7.4-1 1.9-4.2 3.9-6.6 5-6.1 2.9-15.4 3.3-21.5 2.4-5-0.7-9.2-5.4-11.6-9.8-4.7-8.5-9.2-17.1-14.3-25.4l-0.4 0.4 5.7 13.9c3.1 7.5 8.5 15.3 4 22.4-1.6 2.6-6.6 4.6-9.6 5.2-3 0.5-6.2 0.5-8.9 0.4zm-326.5-38.6l-0.7-0.2c9.1-7.6 18.7-15.1 27.9-23l22.9-20.1c21.1-4 45.5-15.3 60.3-29.9-7.6 9.7-16.9 18.7-26.6 27l-18.1 14.4-14 9.9-17.5 9.7c-11.2 5.2-22.5 10-33.7 12.2zm-48-3.6l-0.5-0.5 28.4-16.6 40-28.7c17.3-7.2 41.4-11.2 57.1-25.5l-0.3 0.9-6.3 6.3-8.5 8.2-14.1 12.1c-10.7 8.4-21.6 16.2-34.7 23.4-20.6 10.8-40.7 17-61 20.4zm373.8-9.6c-3.3-2-5.7-5.1-7-9.1-1.5-9 0.2-13.3 1.5-19.2 1.3-5.8 2.8-11.2-1.6-17.3-3.3-4.7-6.8-9.2-11.3-14.4l-3-12.2 4.7 2.9c8.1 6.1 12.6 17.5 20.5 24.4 5.8-6.1 11.5-18 22.5-13.1 0.8 0.4 2.1 0.6 2.8 1.4-8.3 0.8-14.2 7.5-16.5 15.4 10.6 3.8 21.9 8 32.7 6.3-0.6 2.8-5 5-8 6.6-0.5 0.1-1.1 0-1.9 0.1-8.2 0.8-15.8-2.6-23-3.9 6.8 9.7 13.3 19.2 25.4 25.6-13.5 4.3-22.4-8.1-29.6-16.1l-4.5-4.8c-3.7 7.8-5.8 16.6-4.1 24.9 0.3 0.5 1.3 2 0.5 2.5zm-417.7-1.9l50.1-22.8 50.1-28.5 17.5-10.5 25.8-12.3-11.6 10.4-30.9 28.3c2-0.3 3.7-0.3 5.5-0.6l-4.9 3.4c-11.1 6.9-24.2 13.4-35.6 17.5-19.5 7.9-39.1 12.9-58.8 14.6zm-34.5-23.7c16.6-3.5 36.9-12.1 53.7-18.8 15-6 29-9.5 43.5-14.2 18.9-6.3 17-5.5 25.4-5.2 7.1 0.4 14.3 0.4 21.9-0.4l0.2 0.4-28.6 14.6c-30.5 16.3-63 25.5-93.8 25.8-7.7-0.6-14.4-1.2-22.3-2.2zm276.4-10.2c15.3-29.4 21.7-61.5 28-91.7l10.6 18.7 0.5-0.1 7.2-12.2c-2.6 23.5-12.9 51-28.9 69-5.5 5.7-9.8 11.5-16.5 15.7zm-43.4-0.4c15.2-22.9 28.8-48.9 42.1-75.2h0.7l5.9 10.1 0.5 0.3c8.7-10.8 14.5-26.9 17.4-40 2.1 15.6-6.5 31.7-12.5 47.6l-10.7 18.3-13.9 17.2c-6.3 6.2-13.5 12.1-21.9 17.7zm-46.3-1.4l-0.4-0.4c20.3-17 36-37.9 52.4-59.6l0.6 0.1c0.5 0.9 0.5 2.1 1.7 2.7 7.4-6.5 13.7-13.2 19.2-21.8 2.9-4.2 5.7-9.2 7.4-14.7l0.7 0.5c7.3 11.3 1.9 23-5.6 33.2l-6.7 9.7-12.6 15.1c-6.1 6.2-12.4 11.2-19.5 16.2l-9.1 6.1c-7.5 4.3-15.2 7.4-22.8 10.9zm328.1-4.5c-3.3-2-6.2-5.5-6.8-9.7-0.7-7.2 3.4-14.8 6.3-22.3l-0.5-0.6c-7.3 2.9-15.3 6.7-19.5 13.3-0.3 1-0.3 1.9-0.9 3.1-1.6-1.7-2.4-4.9-2.1-7.3 1.9-8.5 10.4-11.2 17.3-16 1-1.5-1-2.9-2.1-3.8-8-7.1-17.6-13.1-19.9-25.8 8.3 4.9 15.8 11.8 23.4 17.3 4 2.8 5.1 5.6 10.7 6.6 7 1.4 12.4-1.1 25.7 2.8 3.4 2 6.8 5.3 7.6 9.8-1-0.4-2.5-1-3.5-1.3-8.7-2.9-16.9-2.6-25.2-1.9 7.3 7.9 23.2 16.6 16.8 31.6-0.3 0.4-0.4 0.6-1.2 0.9-4.1-11.2-12.8-17.8-19.9-25.9-3.8 8.8-8.8 18.3-6.4 27.4 0.2 0.5 0.6 1 0.5 1.7zm-362.6-2.1c16.2-17.5 35.1-31.8 51.6-50.1 0.7-0.5 1.4-0.2 2.3 0.1 12.4-8.4 22.6-17.8 29.9-32.7 6.4 20.5-4.5 35.5-19.8 47.7-13.2 12-29.9 24.6-49.7 30.9zm168-3.4c10.8-34.4 9.9-69.1 8.4-103.6l0.6-0.5c20.2 10.7 27.2 31.2 20.1 54.1-2 8.8-4.6 18.7-9.8 26.8l-2.6 4.4c-5 7.1-10.6 12.7-16.3 18.6zm-289.3-2.5c-13.3-0.2-29.2-2.6-42.9-7.1 1.3-0.4 5.6-0.4 7.2-0.8l20.6-3.8c33.9-7.8 67.9-17.5 101.9-28.7l25.7-5 23.1-7-6 4.2-5 3.6c-33.8 24.2-71.2 39.9-111 43.6zm327.5-2.6c1.4-13.8 2.3-28.6 1.3-43l-3.3-34c6.8 5.7 19.3 8.3 22.6 17 1.2 20.8-6 44.2-20.6 60zm68.5-1.1l-6.9-9.8c-10.6-13.7-21.9-27-30-45.4l0.4-0.3c18.7 7.2 28 21.8 36.5 39.2 1.2 5.4 1.6 11.2 0 16.3zm-306-14.9c9.7-4.2 18.2-8.5 27.2-14.2 19.6-13.5 40-25.9 55.7-42.5-0.4 8.3-1.6 17.4-0.3 26.1l-6.7 5.4-8 5.8c-15.4 10.2-34.2 16.7-51.4 19.6-5.5-0.1-11-0.2-16.5-0.2zm330-0.7c-13.6-1.2-24.1-11.2-32.1-20.4l-6.6-7.8 0.1-0.5c16.9 6.4 32.3 13.9 41.1 28-0.4 0.8-1.5 0.5-2.4 0.7zm21.7-6.6c-9.9-6.7-25.2-7.9-33-17.1-0.3-10.6-2-22.5-5.5-33.2l29.4 10.2zm-446.1-2.1q-22.6-0.9-45.5-11.9c26.6 0.3 53.5-7.8 79.5-10.2 13.3-1.3 14.3 0.7 21.2 2.4 6.5 1.6 13.5 3.6 23.9 6.5l-7.2 2-15.7 4.2c-18.9 5-37.2 7.1-55.4 7zm458.5-13.4c-10.5-10.5-17.2-23.7-18.5-39.7 4.4 4.3 8.3 8.7 11.9 14.1 4.3 7.7 7.1 17.8 6.6 25.6zm-51.6-3l-26.1-12.7c0-10.3-2.1-20.4-5.2-30.7 8 3.7 16.9 7.8 25.9 10.2 4.5 10.5 4.2 21.8 5.8 33.1zm-322.4-1.9l-16.4-2.7-16.6-5.5c29.1-3.4 59.7-14.2 88.4-27.1l9.9-3.5c-4.2 7.7-8.7 17.1-9.4 25.8-11.4 5.3-23.7 8.8-35.5 11.1-7 0.8-13.4 2-20.1 1.9zm97.8-6.2c-2-8.8 0.2-18.8 2.6-27.9 4.8-14.2 13-28.5 20.5-42.1 0.1-0.8-0.1-1-0.3-1.8-1-0.6-2.4 0.3-3 1.3l-20.5 34.2c-6.5 9.1-12.5 16.2-21.7 22.9l-6.2 4.6-8 5.5c0.1-15.7 10.8-33 20.5-44.2l18-20.9c0.4-0.5 0.7-1.5 0.7-2.3l-0.8-0.3c-10.3 6.8-17.1 17.8-27.5 26-10 8.5-24.2 15.9-38 17.8 2.4-11.5 11.4-19.4 18.5-26.1 6.6-4.6 13.9-9.3 22.3-12.4 0.4-0.1 0.8-0.9 0.5-1.4-0.1-0.7-0.5-0.8-1.3-1.3-16.2 6.2-32.3 11-48.6 5.5l-6-2 0.3-0.8 6-3.9c51.2-23.6 105.4-19.4 154.6-47.8 0.6-0.8 2-1.1 2.6-2.6h1.2l1.6 9.2 3.8 13.7c3.9 10.2 8.2 21.2 14.2 29.6 13.4 11.4 10.5 28.6 4.5 44.5l-3.6 7.7c-17-23.3-15.2-51.7-19.1-76.7-1-0.2-1 0.6-1.9 1.1l0.5 33.5c1.1 14.6-2 28.6-8 42.1l-4.1 7.1c-14.5-20.9-9.9-45.6-7.9-68 0.5-2.2 0.9-4.3 0.7-7-0.2-0.2-0.3-0.5-1-0.9l-1.1 0.1c-5.7 22.4-4 45.7-17.7 67.8-3.8 5.8-7.5 9.9-11.8 13.8-2-3.9-2.1-8.7-2.8-13-2.9-19 6.5-38.9 11.5-57.9 0.4-0.9 1.1-2.2 0.9-3.4-0.4-0.4-0.5-0.7-1.1-0.9-2.9 0.5-3.5 4.3-4.6 7.1-0.1 1.9-1.5 3.7-1.7 5.6-8.1 20.2-13.5 45.1-30.1 58.6zm-175.1-2.8c-13.1-0.6-27.4-3.4-40-9.2l-14.5-7.2 0.2-0.6c24.6 1.7 48.6-1.7 71.7-4 6.9-0.7 14.9-4.4 22.7-1.5 3.1 1.1 7 2.6 10.7 3.9 10.4 3.7 27 3.1 37.6 3.2-1.9 0.6-5 2-7 2.6-15.9 4.9-32 7.4-47.4 10.1-11 2.1-22.5 2.7-33.8 2.7zm368.3-4l-24-14-4.6-3c-0.8-9-2.5-17.9-5.7-26.7 6.7 2.5 14.7 6.9 21.5 8.4 6.7 0.3 7.4 8 9.3 12.9 2 7.3 3.2 14.6 3.7 22.1zm100.6-2.9c-11.7 0.3-20.4-8.7-28.2-15.7-9.3-5.1-11.1-17-13.5-27.2 1.7 0 3 1.7 4.7 2.5l11.2 9.3c10 9.6 17.9 21.6 28.6 30.5-0.7 0.2-2.1 0.3-2.8 0.6zm-40.5-9.8l-27.3-10.4-5-28.5c8.1 5.1 18.2 7.9 27 11.2zm-351.2-2.9c-14.5-0.6-30.7-5.4-44.1-14.4 0.8-0.7 2.5 0 3.8 0 28.1-0.6 56.3-8.7 84.5-16.2l-7.8 9.6c-3.8 4.8-7 11.4-9.2 17.7-8.4 3.5-18 2.8-27 3.3zm257.2-4.7l-5.8-3.7-17.9-13.4c-0.1-6.9-1.3-13.7-4.5-20.7l0.4-0.2c6.1 4.2 13.8 6 20.7 8.4 4 9.3 5 19.7 7.5 29.6zm61.1-2.8c-10.8-3.8-22.7-8-32.5-14.7 0.8-10.4-2.5-20.9-5.6-31.3 9.5 4.4 19.7 8.1 29.7 10.8 6.3 11.1 6.9 23.4 9 35.1zm-37-16.4c-9.1-3.3-20.8-6.9-28.3-14.4-0.3-9.3-2.9-18.8-5.5-28.5 8.5 8 25.9 4.9 29.5 17.5 2.2 8.1 3.1 16.6 4.3 25zm104.5-0.3c-11.7-1.3-24.9-5.3-36.1-12.5l-11-34.7 13.3 9.7 11.3 8.3 5.1 3 7 4.4c12 7.2 25.1 15 38.8 18.8-9.5 2-19.1 3-28.4 3zm-157.2-1.7c-7.7-5.8-13.2-13.3-19.3-21.6-3.5-5.6-8-12.1-9.9-18.9 4.8 4.7 12.2 8.8 18.9 12.5 5.8 8.3 8.7 18.6 10.3 28zm115.5-5.5c-9.6-2.5-19.5-6.5-27.9-12-1.5-10-4.4-20.1-8.2-30.3 22.9 5.7 35.4 17.7 36.9 42.1zm-96.6-8.4c-7.8-2.7-15.2-6.4-21.6-11.2-12-6.7-4.2-22.4-9.6-33.6l0.5-0.4c18 9.4 34.2 22.1 31.2 45.2zm182.5-1.5c-23.8-0.1-50.4-7.1-72-22.2l-21.7-15.7 15.7 3.3 21.4 2.4-5-11.9 7.9 4.9 4.5 3.2 23.4 12.6 12.9 6.7c13.5 6.2 26.2 11.8 39.1 13.4-8.6 1.9-16.9 3.2-25.6 3.2zm-121.4-7.3c-9.8-2.3-19.5-5.6-28.7-11.4-0.8-9.3-2-18.8-6.3-28.4 8 3.2 17.3 6.3 26 8.2 4.9 9.8 7.8 20.9 10.3 31zm-34.1-12.7c-8.9-2.4-18.9-5.6-27.1-10.9-0.6-0.7-2-1.1-2.2-2.1 1.1-9.3 0-18.8-3.8-28.4 7.5 4.5 17.9 7.7 26.1 11 4.7 9.7 5.4 20.3 7.3 30.4zm-60.3-0.6l-9-5.2c-8.4-4.8-13.1-15.5-15.1-25.8l-0.9-8.9c8.6 3.5 15.7 8.9 21.3 13.9 3.5 3.3 4.4 15.2 3.8 25.8zm235.1 0c-26.4 0.6-56.1-12.8-79.6-28.2-1.3-1.3-2.7-1.8-4.3-3.1l-9.6-10.7c5.1 2.1 11.2 3.7 16.8 4.9 10.4 2.3 20.6 0.1 31.1 0l20 9.8 17.5 7.7 12.3 5c11.5 3.8 22.7 6.5 33.7 6.9l-0.1 0.6c-12.5 4.2-24.9 6.8-37.5 7.1zm-118.7-8c-9.3-5.2-16.7-8.3-25.2-11.8l-7.1-21.8 22.6 5.8c5.3 8.4 9.5 19.5 13.2 28.5zm-90.5-6.6c-11.6-5-21.6-10.7-27.8-19.5 0-8-2.6-17-6.4-24.8 7.3 5.5 18.8 10.7 28.5 11.7 4.6 10.3 6.3 21.8 5.9 32.6zm122.7-3.9c-9.6-1.9-20.2-1.3-29.3-6.8-11.6-30.2-31-47.7-60.8-61l11.6-6.3 14-10.5 23.8-20.9 23.2-21.3 12-11.6 27.9-27.6c7.5-6.6 13.4-13.8 22.5-19.5l5-3.6 14.2-7.2c-6.8 22.8-22.3 40-36.7 53.9 0.2 0.7 0.4 1 1.2 1.5 19.1-11.2 41.3-22.1 62.1-19.1l0.4 0.7c-0.4 0.4-0.7 0.9-1.3 1.4-8.2 10.5-19 19.1-32.3 25.3-8.5 5.1-18.9 7.1-28.4 9.6l-6.9 1.6-17.9 3.8v1.2c29.2-0.8 59.6-12.8 89.3 0.1l-16.6 8.4c-30.6 11.9-61.6 4.1-90.9 8.2v0.8c0.1 0.5 0.3 0.6 0.9 0.9 21.6 1.2 43.2 0 64.9 3.9 8 3.2 18 6.9 24.1 12.8l-11.5 4.5c-31.8 9-63.2-5.6-93.8-7.7 0.1 0.7 0 1.1 0.4 2 27 7.4 62.1 8.7 79.9 32.9-5.4 1.7-12.1 1.4-18.1 0.9-26.1-1.1-52.2-15.6-77.6-21.8-0.2 1.3 0.8 2.2 2.1 2.7l10.2 3.7 33.7 14.9 9.4 5.7c7.8 5.5 14.5 11.5 20.3 19.3-11.6 2.9-25-0.8-37.1-4.9-15.4-5.8-27.9-15.4-41.6-23.3-3.5-1.9-7.8-4.6-12-5.5 0 0.7 0.7 1.6 0.7 2.3l21.4 13.8c8.7 5.6 17.4 11.4 24.4 18.4 5.6 6.1 12.3 13.7 15 23.4zm-63.8-4.7c-8.9-2.5-18-4.3-26.6-9.1-0.9-8.4-2.5-16.6-6.5-25.1 6.8 2.9 14.4 4 21.9 5.1 5.8 8.7 9.1 19.9 11.2 29.1zm157.9-5.1c-19.5-3-42.5-6.5-60-18.5-4.2-6.4-9.1-11.7-15.7-16 3.3 0.6 7.5 1.3 10.6 1.2 6-0.2 11.1 0.7 17 0.1 1.9-0.1 6 0 7.5 0.4 15.6 4.6 31.6 8.4 48.6 11.6 10.4 2.1 20.7 3.8 31.2 4.6l19.6 0.1v0.5l-20.5 10.1c-6.7 2.1-13.6 4.2-20.3 4.8zm-249.2-6.5c-10.5-4.1-19.6-9-22.9-20.2-5.4-15.9-15.9-26.7-25.8-37.9 4-1.1 8-3.4 10.3-7.2 4.6-7.7 3.1-16.2-0.4-24.4l-4.4-7.4 11.7 3.9c-1.7 5.4-2.9 13.6 2.8 17.4 2.2 1.8 5.5 2.6 8.4 1.7 4-1 5.5-4.1 8.4-6.6l10.4 7.7c1 1 2.1 1.9 4 2.9-4.5-8.9-12.1-14.9-20.2-21.1-8-5.5-17.5-9.5-26.3-10.7 5.2-3.2 12-3.9 17.9-2.9 9.8 2 17.9 7.8 26.6 13.2 17.8 14.9 37.8 26.6 46.8 51.7-7.1-1.1-13.6-3.4-19.6-6.6l-7.7-3.9-5.9-3.8-7.1-3.9c5.3 6.5 10.3 14.5 13.8 23.6l4.5 17.2-9.1-2.1c-12.1-5.3-22.4-12.6-30.3-20.9l-0.5 0.2c8 11.5 13.4 26.3 14.7 39.6zm59-0.9l-8.8-3c-6.4-2.1-12.7-4.8-19-8.8-1.5-10.4-4.6-22.3-10.7-33l5.3 3c8 5.5 19.3 6.8 23.1 12.2 5.6 9 9 19.8 10.3 29.6zm51.1-5.4c-7.6-2.7-18.4-3.2-24.1-10.3-1.4-6.6-3.5-14.4-8.2-20.3l0.5-0.1c14.3 7.6 24.7 16.7 32.5 30.2zm-31.6-15.7c-10.2-0.7-22.1-4.2-29.5-12l4.9-0.7-5.4-15.2-4.2-7.1 18.7 10.5c3.7 2.5 7.4 5 9.6 9.4l7.5 14.7zm176.2-0.9c-4.4 0.2-30.6-1.2-42.4-11.2-5.4-6.9-11.7-12.9-20-17.5 24.5-1.1 49.4 3 74 3.8 17.3 1 34.7 2.2 52.2 1.4l5.7-0.6-10.8 8.3c-17.5 11.4-37.1 15.5-55.6 15.8zm68.4-15.3l11-10.5 5.9-5.6v-0.8c-13 2.9-26.2 2.8-39.2 3.2l-24.4-0.5 12.1-2.1c32.8-9.6 65.3-10.8 98.2-20l29.1-7.1c-6.8 6.6-15 12.5-24.1 18.1-20.9 12-45.3 21.1-68.4 25.3zm-93.4-17l-6.3-0.5 19.2-7.6 0.1-0.7-18.1-11.2 0.3-0.5c14.6-0.1 29.2-1.7 43.9-4.2l35-7.5c11.6-3.7 23.4-5.8 34.7-12l0.3 0.3c-7.8 11.8-17.8 21.4-30.1 30.2-25.6 13.7-52.9 12.3-78.7 13.7zm-280.1-6.7c-9.1-8.9-17-18.7-29.2-25.9 7.8-0.9 16.8 5.1 23.7 9.7 4.3 3.9 9.8 6.5 11.9 12.7-1 1.5-3.5 3.4-5.9 3.5zm364.7-4.1l-0.2-0.2c7-3.7 11.7-9 16.7-14.4 7.8-15 26.4-13.7 41.7-19.1 24.7-5.5 50.7-11.3 75.4-20.9-13.6 14.9-33.3 27-54.9 35.4-12.7 4.9-25.1 7.5-37.6 11zm-355.9-3.7c-7.9-10.8-22.7-23.4-38.6-22.5-3.5 0.6-7.7 2.4-10.6 4.8 0-5.9 3.5-12.7 7.9-16.6 8.5-4.9 17.3-2.1 26 2.1 8.8 4.6 15.3 13.7 16.2 24.3zm16.8-8c-2.2-0.4-4.2-2.2-4.3-5-0.8-2.5 0-5.6 2-7.7 0.9 0 1.8 0 2.7 0.8 0 2.1-3 4.2-0.9 6.9 0.8 1.2 3 2 4.6 1.3 1.3-0.6 2.1-2.6 2.5-4.2h0.9c0.5 1.2 2.5 2.1 1.5 4-1.8 2.2-5.5 4.6-9 3.9zm239.4-1.8c-0.7 0-1.2-0.4-2-0.8 14-1.2 29.9-8 41.6-17.1 0.5-0.9 1.8-1.7 3-2.8l-0.1-0.8-13.6-6.1 11.9-4.7c25-11.7 52.3-23.2 72.7-39.6l0.7 0.6c-5.2 16.4-15 31.5-26.7 41l-3.4 2.7c-8.7 6.8-18.9 11.8-29.7 16.5-11.8 4.8-23.6 7.1-35.8 9.1zm57.2-5.8v-1.1c10.3-3.1 20-8.7 28.3-14.6 43.9-27.1 100.1-33.9 148.9-58.5l15.6-7.4 13.9-7.3 0.4 0.3c-19.5 28.3-50.9 47.5-87.6 62.9-15.3 4.9-30.9 10.4-46.6 13.6 1.3-4.2 5.7-8.1 6.5-12.9-9.3 4.2-18.2 7.7-27.8 10.9l-33.5 9.3zm-35.8-24.5c-6.8-1.7-13.4-2.1-20.4-1.7 18.1-5.8 26.4-20.3 38.4-31.3 2.1-1.9 4.8-4.6 7.2-5.7 5.5-2.5 7.6-4.2 14.4-7.8 13.7-8.3 27.5-16.4 38.6-26.5l0.5 0.1c-4.3 18.2-15.4 34.1-28.3 44.8l-10 7.6-5.8 4.1-6.7 3.7c-8.9 4.7-17.5 10.1-27.1 12.7zm80.4-6.3l5.1-6.4c4.4-5.7 7.7-13.7 11.2-20.6l49.1-24.3c28.3-15 58.8-28.6 85.1-45.7l8.9-7.3-10.2 18.9c-0.6 0.5-1.3 2.4-2.2 3.2-7.9 10-16.7 18.4-27.1 25.7-18.8 13.6-40 26-63.4 35.3-18.5 8.2-37.3 14.6-56.1 20.9zm-23.6-19c4.8-5.5 9.9-10 13.8-16.7 2.6-4.2 4.4-8.9 9.2-11.7l11-6.3c36.6-23.7 73.4-46.6 108.2-72.2l18.3-15.2c-2.7 8.3-6 16.9-10.6 24.4-12.6 20.3-28.9 34.7-47.3 48.3-17.9 13.2-40.7 25.5-61.7 36.1l4.5-17.2c-5.9 5.5-14 11.1-21.5 15.9l-13 7.9zm-88.7-5.8c21.7-18.3 43-35.6 62.5-55.5l8.8-9.1c2.7-2.5 5.1-5.3 7.2-8.5l7.5-9.2-4 25.8c-5.6 21.4-19.4 37.3-35.4 48.2-7-0.9-14.1-0.6-21.3-0.2-9.1 0.9-17.3 5-25 8.5zm65.6-17.1l13-14.8c33.1-23.5 62.6-47.7 93.7-71.6l14-11.3 19.1-16.1 7.1-8c-1.8 13-10.6 27.2-17.7 38.8-6 8.3-11.7 15-18.1 21.7l-7.7 7.6c-10 9.8-21.5 18.5-33.5 27.5-7.3 5.4-15.3 10.3-23.2 15.3l-0.6-0.1c3.3-9 5.5-18.1 6.2-27.1-6.9 6.4-14.4 12.7-22.4 18.6zm17.8-24.2c3.8-10.7 5.5-21 7.1-32.1 22.8-21 47.1-41.2 68.2-63.7l14-17.3 0.7 0.1c-3 15.1-7.4 31.2-17 44.7-5.5 8.3-11.7 16.1-18.7 23.1-1.1 0.5-1.8 1.4-2.7 2.4-10.3 10.1-20.8 19.8-32.3 28.2z"/>
	<path id="Path 3" fill-rule="evenodd" class="s2" d="m1010.6 1030.1c-3.7 94-36.7 179.1-89 248.8l-2.7-2.3-112.2-139.3-111 158-156.6-223.9-160.4 229.5-119.8-178.1-93.3 159.4c-54.3-69.3-90.5-153.2-99.8-243.4l-32.1-643.3h1011.1zm-382.5 8.6c7.9-0.3 18-2.2 21.2-10.4 7.9 6.6 18.3 4.2 27.8 2.4 4.5-1.5 9.2-3.3 12.9-5.9 2.7-1.6 4.5-6 3.9-9.1 2.1 1.3 3.9 2.5 6.1 2.6 10.8 0.5 23.3-5.5 30.8-13.1 2.5-2.9 2.9-7.3 2-10.8 2.3 1.1 4.7 2.3 7 3 9.4 2.9 19.6-5.1 26.7-10.5 5.5-3.6 9.9-11.1 8.4-17.5 4.8 2.5 9.8 1.6 14-1.3 2.8-1.7 5-3.5 7.5-5.7 4.9-4.7 10.4-10.8 12-18.4 1.8-13-8.9-20.5-19.4-26.3-24.9-14.2-50-28.5-75.1-42.6-9.5-5.5-19.5-11.5-29.2-17-11.4-7.7-26.6-13.3-33.7-23.1 17.9 5.7 36.1 3.1 54.5-1.8 3.2-0.9 7.5-1.1 10-3.4-10.6-2.4-21.3-6.2-31.7-11.2l-0.5-0.4c10.6 1.2 22.2 3.8 33 2.5 12.8-0.9 26.6-2.9 38.6-8.8l-12.2-2.8c-8.5-2.5-18-4.3-25.7-8.9 12.9-0.2 25.9 0.5 39.7-3.2l5.8-1.6c8.1-2.6 16.4-6.1 23.2-11.1-11.6-1-24-2.8-35.8-5.7-7.9-2.9-16.6-3.7-23.7-8 10 1.5 19.4 2.9 29.1 1.5 20.8-1.5 44.4-13.9 59.4-27.2l-14.4 0.6c-14.6 0-29.1-1.1-43.4-3v-0.5c19.2 1.7 38.3-11.9 56.7-14.5l8.1-1.4c25-4.1 52.4-16.2 73-31.3l11.4-8.7 20.1-19.4-27.1 7.8-0.5-0.7 16.8-8.2c5.4-4 10.8-8 15.2-12.2l12.1-13.3 3.7-4.5 4.4-8.5c-11.7 6.9-24.1 10.9-36 14.5l-8.5 2.1 0.4-0.7c9.1-4.4 18.1-9.7 26.4-15.1l11.8-9.2c9.6-7.4 17.3-16.2 24.5-26.2 4.6-7.2 10.3-14.6 12.5-22.9l-4.2 3.4c-24 16-51.3 28.1-78.3 37.9 7.7-4.4 16.2-8.9 23-14l5-3.7 9.4-7.2c7.1-5.6 12.7-11.6 18.5-19.3 9-11.8 16.9-28 20.7-42.5-11.5 11.2-25.7 20.2-40.8 29.1-12.5 7.1-26.9 16.2-39.7 21.3 7.3-5.5 13.2-10.5 19.1-15.9 8.2-7.5 15.1-16.9 21.4-26.8 4.2-6.8 7.7-15.4 10.8-24l5.9-22.6-0.4-0.1-3.9 5c-19.9 19.6-44.4 35.6-68.5 52.6l-14.3 8.9c1.3-1.4 4-3.7 5.2-5 16.5-18.8 30.8-32 40-60.4 2-6.4 5.5-16.3 4.1-22.7l-5.1 5.9c-0.7 0.4-1.2 0.9-1.5 1.4-4.1 4.9-8.7 9.5-13.3 13.5l-52.7 43.4-0.5-0.1c0.9-1.5 1.5-2.5 2.8-2.9l7-8.7 5.1-7.4c12.4-18.5 17.4-40.4 14.7-59.5l-6.3 8.9c-8.8 12.3-19.1 22.9-29.7 33.5-16 16.1-33.9 30.5-49.7 46.4l-1 0.3-0.7-15.9-3.3 3.9c-5.1 6.8-10.5 14.8-16.1 20.9-8.5 9.2-17.6 18.4-27.1 26.8l-33.7 29.8v-0.9c6.7-7.6 9.5-19.2 12.1-28.9l1.3-4.2c-9.2 3.8-18.8 10.1-27.1 15.2-7.9 5.4-15 11.2-21.7 17.1l-9.1 8.8-43.1 42.7c-21.2 18.1-37.1 37.5-63.9 51.5-6-0.2-12.2-5.5-17.5-8.9l-22.2-16.8c-13.7-10.6-27-23.1-45.1-28.1-14.9-3.4-25.4 6.3-42.4-1.4-7.1-1.5-14.2-2-20.6 2.6-7.9 7.1-9.7 20-9.7 29.8 0.7-0.2 0.7-0.8 0.8-1 3.1-2.6 5.7-5.9 9.9-6 9 1.2 13.8 8.8 19.9 14.3 13.7 16.1 28.4 31.7 38.3 53.8 1.3 4 3.2 7.8 1.3 11.5-38.7 25.5-86.1 26.7-128.5 39.2-10.7 2.8-22.4 7.7-32.3 13.7l-9.6 7.1c8.6 5.5 18.4 7.6 27.4 7.4l0.4 0.2c-31.6 10.3-64.4 15.3-95.3 14.6 2.7 4.4 6.3 6.9 9.8 9.9l-0.3 0.7-15.7 3c-25 3.9-50.1 4.5-74.8 3.6h-7.7c12.8 16 36.8 25.6 57.5 27.7-16.9 3.3-34.8 4.7-52.7 3.9l-8.4-1c6.5 5.5 14.3 10.4 22.2 15 16.9 8.2 34.1 11.2 51.1 9.9l-0.3 0.2c-22.8 5-45.8 11.7-68.3 9.6 11.7 9.2 27.4 13.5 42 16.7 12.1 1.6 27.3 0.6 39.1-1.3l-3.8 2c-7.3 2.8-14.6 5.6-22.1 8.4-14.5 5-29.8 8.4-43.6 9.7 29.9 12.8 59.9 10.3 91.1 2.6 0.9-0.3 4.4-1.2 5.8-1.5-9.6 5-19.6 9.8-29.9 14.1l-24.9 9.3c-2.9 1.5-6.4 1-8.4 3.1 17.6 4 35.4 1.9 52.9-1 12.8-1.9 25.1-5.3 38.1-11l-11.1 6.4-27 14.9-9.6 5.1c27 2 54.8-5.1 81.2-18l-18.5 14.5-12.4 8.5c23.7 0 48.2-7.7 70.5-21.3 15.1-9.2 28.4-18.7 40.4-29.4l10-9.9 8.4-8.7 0.2 0.4-7.8 11.8-11.6 15.2 0.1 0.5 26.1-13 11.9-8.6c14.6-11.2 26-25 35.4-44.1 0.1 5.8-3.7 12.9-5.7 19.1l-19.5 46.3c11.4-5.9 20.3-13.9 29.1-21.8 13.7-13 25.2-34.9 29.6-54.8l-1.5 17.2c-2.4 14.8-5.5 30-12.1 44.8-0.3 0.7-0.5 1.2-0.5 1.7l11-6.7 10.5-8.7 9.9-11.7c7.3-10.4 12.3-23.5 13.2-35.5l0.5-0.1c1.3 20 0.7 39.6-4.8 59.2 7.2-6.9 14.2-12.9 20-20.8l5.8-9.7c4.8-9.6 7.7-20.2 8.3-31l0.9-10.5c7.8 14.2 14.7 28.9 17.8 43.7 8.1 37.6 17.8 74.4 26.8 110.9 0 0.3 0.7 1.7 1.4 2.9 4.3 6.8 16.6 9.2 25 9.2z"/>
	<path id="Path 4" class="s3" d="m909.5 1276.4c-37.8 51.7-82 91.7-137.8 123.4l-71.4-101.4 105.8-150.2zm-147.8 128.7c-66.5 39.1-140.7 61.4-222.6 61.4-82.1 0-156-22.5-222.7-61.5l222.7-323.1zm-455.6-2.5c-52-29.3-97.7-69.8-134-118l87-150.1 114.1 170.9z"/>
	<path id="Path 5" fill-rule="evenodd" class="s1" d="m644.7 9.4v120.8h215.7v-120.8h205.8l-19.5 376.6h-1014l-20.5-376.6h209.6v120.8h214.4v-120.8zm-559.5 182.8v118c-0.1 2.9-1.3 5.4-1.9 6.9l-5.9 11.7c-0.4 1.3-1.4 3.9 1.4 3.9h59.1c0.6-10-9.6-10.3-9.6-21.7v-39.9c12.9-0.1 24.6 0.3 42.8-4.4 18.1-4.7 33.4-17 38.2-26.8 4.7-9.8 8.1-24.9 0-44.6-8.2-19.8-46-24-46-24h-88.3c1.1 20.3 10.2 20.9 10.2 20.9zm796-5c4.1 5.3 4.4 8.8 4.4 15.5l-0.3 95c0 9.4-2.8 17-3.8 18-6 5.7-6 15.6-6 15.6h61.6c0.4-4.1 0.8-6.5-4.2-11.4-5.5-5.2-5-15.8-5-15.8v-105.5c0 0 34.4-0.7 43.3-0.3 8.8 0.3 13.2 3.3 13.2 3.3 0 0 6.3 4.1 8.9 6.4 2.5 2.4 9.1 3 9.1 3l-6.5-38.9c0 0-108.8-0.8-114.3-0.8-5.6 0-4.7 5.6-4.7 5.6 0.8 2.8 2.3 7.6 4.3 10.3zm-199.3 65.4c0 46.7 40.7 84.8 90.8 84.8 49.9 0 90.6-38.1 90.6-84.8 0-46.7-40.7-84.8-90.6-84.8-50.1 0-90.8 38.1-90.8 84.8zm91.2-57.4c25.9 0 46.9 25.5 46.9 56.7 0 31.3-21 56.9-46.9 56.9-26 0-47-25.6-47-56.9 0-31.2 21-56.7 47-56.7zm-345.2 24.7c-1-1.6-2.2-3.1-1.9-6.4 0.4-5 5.3-12.7 11.4-15.7 16.8-8.1 23.3-4.2 28.1-3.1 4.4 1.1 15.2 6.3 12.7 20.4-2.4 14-14.2 17.3-14.2 17.3-9.1 1.8-20.6 1.1-29.6 1.4l1 22.1c7.2-0.4 13.7-0.8 21.7 1.4 21.5 5.9 24.2 15.4 25.3 26.4 1.2 11-6.8 19.6-10.2 22.2-3.5 2.6-22.1 9.3-34.8 4.3-12.8-5.1-16.3-14.9-17.4-19.8-1.1-4.7 4.1-12.5 4.1-12.5l-13.6-10.4-29.8 33.8c10.3 18.1 39.7 31.2 43.6 32.4 15.7 5.1 34.3 7.5 52.7 2.8 17.5-4.5 31.6-13.9 39.6-23.9 6.9-8.6 10-22.9 9.1-31.5-1-8.6 0.3-9.3-9.3-21.8-9.9-9.4-17.2-12.1-27.2-14.7 6.1-0.5 19.8-9.3 25.4-17 7.6-10.6 5.3-30.2 1.4-35.1-7.2-9.4-12.1-15-28.8-20.2-20.9-6.7-49.9-3.6-62.1 1.1-18.3 7.1-38.7 28.6-38.7 28.6l26.2 25.4c-0.4 0.4 15.3-7.5 15.3-7.5zm206.2 83.1c3.3 7.6 4.4 14.5 3.6 19.9-0.3 2.4-2 3.4-2.1 5.2-0.1 1.7 1.8 2.1 2.4 2.1 0.6 0 39.7 0 59.1 0 0.2-2.6-2.4-7-3.6-8.8-4.6-5-6.8-7-10.1-15.5l-53.8-137.2h-43.3l-56.4 141.9c-0.3 0.9-3.5 7.8-6.1 9.7-5.7 4.1-5 10.9-5 10.9 0 0 52.2 0.2 49.1 0-0.2-7.4-3.2-7.3-3.5-10.2-0.5-5.1 1.8-10.2 1.7-10.3l36.8-104.2zm-375.4 29.7c0.2-6.2-3.5-6.4-3.5-9.4 0-5.1 2.6-10.1 2.6-10.1l9.6-25.4 50.6 0.2 7.2 17.3c3.1 7.7 4.5 14.5 3.4 20-0.4 2.6-2 3.3-2.1 5.1 0 1.8 1.8 2.1 2.4 2.1 0.6 0 39.8 0.1 59.2 0.1 0.2-2.6-1.3-5.2-2.5-7-4.1-5.5-7.7-8.5-11.2-17.3l-53.9-137.2h-43.3l-56.5 141.9c0 1.2-3.1 7.6-6.1 9.7-5.9 4.4-4.7 10-4.7 10 0 0 51.9 0.1 48.8 0zm49.1-80.3h-27.2l13.2-43.6zm-179.6-54.8c0 0 14.3-0.7 24.7 1.1 10.5 1.8 15.7 5.3 19.3 8.9 3.6 3.6 7.1 14.7 2.3 23.7-2.7 5.1-5.9 7.5-10.7 9.6-4.8 2.1-9.4 2.7-11.5 3.4-7 2-16.1 1.9-24.1 1.9z"/>
</svg>