<svg version="1.2" xmlns="http://www.w3.org/2000/svg" viewBox="0 0 537 835" width="537" height="835">
	<title>Dolni-Chiflik-pdf</title>
	<style>
		.s0 { fill: #007e46 } 
		.s1 { fill: #3c2e92 } 
		.s2 { fill: #1e7e40 } 
		.s3 { fill: #d72f1d } 
		.s4 { fill: #ffffff } 
	</style>
	<path id="Path 1" class="s0" d="m419.9 606.7l1.7 4.1-1.6 2.3z"/>
	<path id="Path 2" fill-rule="evenodd" class="s1" d="m34.9 406.6h227v137.2c-60.1 1.3-62.3 12.5-126.9 1.5-71.3-12.2-66.5-5-116.7 9.5v-110.6c9.1 0 16.6-7.2 16.6-16.6zm227 158.6v12c-41.1 19.6-136.8-26.6-218.2 0.6-6.6 2.2-17.6 6.9-25.4 8.8v-14.7c32.8-18.1 78.2-24 116.4-18.9 44.8 6 79.5 17.4 127.2 12.2zm0 30.9v9.9c-11.3-1-22.7-3.7-34.2-2.5-51.6 5.2-29.8 11.4-93.6-1.8-27.1-5.6-34.9-7.7-62-0.8-17.2 4.3-42.7 15-53.8 18.5v-12.6c12.2-7.9 35-16.2 46.8-20.2 61-21.2 141.2 9.5 196.3 9.3zm0 22.4v12.9c-39.4-0.9-65.4 15.3-127.5 5.6-29.1-4.5-63.8-15.6-90.2-7-5.9 2-16.7 6.4-24 9.2-1.4-4.4-1.8-7.4-1.8-8.6v-5c13.6-5.8 41.9-10.5 55.7-11.3 23-1.4 39 5.1 60.3 8.6 48 7.9 82.5-8.2 127.5-4.4zm0 29.8v16.6c-105.1 8.4-105.5-8.2-171.7-6.7-19.4 0.4-37.2 7.1-53.1 9.6-4.5-5.1-7.9-9.9-10.5-14.4 12.5-6.1 43.5-10 56.4-10.5 21-0.7 39.7 6.7 60.7 8.6 48.7 4.6 60.1-20.9 118.2-3.2zm0 30.7v156.6c0-27.7-104.9-93.5-187.5-138.8-10.4-5.6-18.8-11.6-25.8-17.6 40.5-19.9 117.6-4.8 155.7-0.8 18.8 1.9 38.7 0.6 57.6 0.6zm-146.7-156.8l53.8-17.5-5-6.5c42.5-26.4 26.7-4.5 76.2 4.9l-29.1-19.3c-9.7-5.8-20.3-13.7-30-18.2-10.2 4.6-28.2 22.6-39.2 29.9-7.2-1.4-20-7.3-27-10.1-14.5-5.9-12.2-7.6-27.7-1.4-15.3 6.2-37 13.1-51.4 20.7 13.5 6.9 60.5-17.1 88.2 3.6-2.9 6.7-5.4 5.6-8.8 13.9z"/>
	<path id="Path 3" fill-rule="evenodd" class="s2" d="m18.3 87.1h243.6v306.6h-227v-67.4c0-9.4-7.5-16.6-16.6-16.6zm124.6 197.2c8.1-7.7 26.2 2.1 35 6.1l3.1-5 16.1 1.4-2.4-4.2c-2.2-6.8 14.9-10.1 22.2-10.5l1.7-5.4c24-2.1-3.1-2.4 28.1-6.7-4-1.9-4.6-1.6-8.5-2.6l-23-4.9c-3.7-0.3-5 0.1-5.4 0.6-0.3-0.6-1-1.4-2.2-2.7l-13.3-1.5c-1.7-9.1 1.6-8.5 4.4-15.6-12.4 3.7-29.7 24.4-44.6 7.5 2.2-10.9 22.3-20.8 22.3-20.8 2-1.7 1.3-2.5 5.1-5.6 7.6-6.1 15.3-6.2 17.7-12.9-4.1-1.5-17.2-7.4-18.8-10.2-7.6-13.6 32.5-29 22.3-41.4l-6-3.7 4.7-18.7c1.8-6.7-1-3.8 3.2-11.5 2.8-5.3 2.4-1.4 2.6-8.5l-15.4 13.6c-3 2-6.9 2.9-9.3 5.1-6 5.2 0.8 3.3-8.5 6.4l-9.8-14.2c-0.9 12.4-12.8 40-20.5 45.1-7.6-4.5-5.3-8.3-12.9-11.7 0.2 2.3 1.1 8.2 1.1 9-0.3 2.7-0.5 1.3-1.2 3.1-2.1 5.9-4.5 40.6-17.4 46.7-11.8-6-6.2-20.3-2.9-30.5l-4.1-8.9c-1.5-0.5-0.8-0.2-2.6-0.4-1.2-0.1-0.2 0.3-3.7-0.2l-2.6-16-6.9 0.5c0.6-16.9-2.8-13.5-7.1-16-0.6-7.6 0-6.2-4-10.6-2.4 4.9-4.1 16-3.3 22.8 2.2 18.8-2.6-6.7-2.5 21.7-0.4 0.2-1.5-0.7-6.4 3.5 2.1 6.7 6.1 12.9 4.5 20.9l-12 4.1c1.3 11.3 17.8 14 23.3 26.8 1 2.2 1.6 3.9 1.1 6.7-2.6 12.9-18.6-2.9-20.3-3.6l-4.9-2.1c-8.8-5.1-5.8-0.7-15.9-3.2 3.2 11 1.5 15.6 9.1 20.6-1.4 6.6-0.7 0.1-1.9 5.5 16.9 12.5-2.4 9.4 21.5 19.7 0 2.7-0.2 2-0.4 3.6l-0.8 4.9 31.2-1.2c-9.1 25.6 0.7 42.2 25.4 60.2 20.1 14.7 41.6 12.5 54 15.7 10.1 2.6 7.4 4.7 13.9 6.6 0-0.5 0.2-4.6 0.2-4.6-0.2-4.3-0.6-3.9-0.9-4.7-15-7.9-40.9-3.9-62.3-16.1-4-2.3-18-15.6-20.4-18.8-6.2-8.5-10.5-16.4-9.1-30.8 8.7 4.6 0.8 3.3 11.4 19.5 4.2 6.5 7.2 12.3 12.9 15.8l0.2-9.9c7.9 0.7 6.9 0.6 11.3 5.6 5-2-1.7-3.3 9.2-0.1 10 2.9 15.3-1.8 24.5 3.8 0.1-11.3-2-11.3-8.8-16.4 1.6-3.4-1.1-0.9 3.1-4.8-10.1-5.6-22.6-9-23.4-15.9zm358.7 143.4c0 9.4 7.6 16.6 16.6 16.6v186.3c0 4.7-6.4 39.1-56 66.3-82.6 45.2-187.5 111.1-187.5 138.7v-428.9h226.9zm-51.2 203.6c14.1-19.5 19.1-13.8 27.7-20.3-0.5-6.9-3.5-3.3-3.2-15.2 4-3.7 5.4-3.8 8-9-5.1-10.8-14.8-6.1-36.4-5.7 7.9-6.3 29.5-10.5 28-23.6-9.3 1.5-16.4 10.9-27 14-12.8 3.8-25.7-1.3-26.9-13.2 6.3-11.7 15.4-7 20.5-14.3-10.4-5.4-18.8 4.3-24.9 7l-2.9 1.9 0.5-3.5c19.4-14.4 18.6-7.6 22-14.6-10.9-6.5-24.1 10.5-32.6 13.5-16.6 5.9-30.7 0.8-29.6-16.8 9.8-10.2 26.3-8.9 27.1-24.7-12.8 1.7-7 12.4-28.7 14 6.4-6.4 21.9-9.5 18.1-20.1-5.7-0.5-11 11.6-27.8 13.7-15.6 2-26.1 0-26.3-15 10.2-17.5 42-3 35-36.2-8.3 2.4-5.2 2.5-9.4 9.8-2.2 3.9-3.7 5.8-8.4 7.7-18.2 7.5-14.4 8.5-22.5 11.8 1.9-7.9 4-7.4 10.7-11.2 5.2-2.9 9.4-5.6 12.8-8 1.1-8.9 3.3-28.6-5.1-32.3-3.1 8.3 0.2 19.4-5.6 28-9.6 14.1-38 25.7-40.7 5-1.4-10.2 6.8-16.5 8.4-24.2-6 1.4-7.6 4-11.7 8.4l-1.8-7.9c-2.6 1.7-6.6 4.7-8.7 6.6-0.6 14.9-2.7 19.5 11.5 35.5 3.2 3.5 4.5 5.2 7.4 8.7l32.2 30.2c11.2 9.1 24 18.7 37.3 27 14.9 9.2 46.4 22.2 30.1 26.5-5.6 1.5-21.8-0.6-29.7 2.3 5.1 9.9 12.8 6.8 25.8 7.4-2.3 11.3-17.9 13.3-30.9 15.9 10.8 45.7-3.8 78.8 21 82.4l6.9-5.7-0.3-12.4c-4.6-14.8-16.7-31.4-16.3-41.5 0.8-9.4 0.3-3.3 2.3-4.7 1.1 4.8 0.2 7.9 1.9 13.3 1.8 5.5 9 11.8 13.7 33.7l4.3 9.8 12.4-9.4c0.8-7.3 0.8-10.6-1.9-16.2-4.3-6.2-7.9-12-10.9-19.3-1.7-4.1-2.6-7.7-3.7-12.1-3.9-14.8-0.9-9.8 0.2-11.4l15.5 42.1 3.9 9.4 3.2 1.5 8.7-6.7c1.7-27.3-9-28.5-13.6-50.1l-0.1-6.4 1.7 4.1 14 30.5c10.4 0 6.5 1.6 14.8-10z"/>
	<path id="Path 4" fill-rule="evenodd" class="s3" d="m518.2 309.7c-9 0-16.6 7.2-16.6 16.6v67.5h-226.9v-306.7h243.5zm-62.7-93.8c5.4 1 7.3 1.2 12.9 0.9 6.8-6.3 6.1-6.2 15.4-11.3-13.9-6.1-29.3-9.7-38.8 5.7l-12.4 3c-0.4-5.5-3.8-16.2-5.2-5.5l1.3 11c3.8 25.3-7.8 13.4-21 13-6.8-0.2-13 1.6-18.1 4.1-42.6 21.7 0.8 80.8 35.9 82.7 31.6 1.7 34.4-5.8 46.2-25.6 9.1-15.4 25.2-31.8 12-50.7-8.5-12.3-32.3-8.4-46.5-7.4l-2.5-16.8 11.5-6.3zm-10.5-4.6l1.1-0.3 0.9 1.3-0.8 0.4-1.8-0.5q0.3-0.5 0.6-0.9zm-4.9 20.3c5.1 0 12.6-0.2 17.7-0.5 7.5-0.6 6.4-1.9 6.3-9.5-16.7-4.4-26.3-10.2-24 10zm-109 64.2c16.6 15.7 33.9 19 63.6 15.7-2.2-6.7-14.4-14.8-19.4-22.4-10.7-16.6-12.3-44.1 13.8-56.2 16.5-7.7 21.9-1.8 36.5-1 0-9.9-3.6-20.4-1.6-30.3l9.6 0.1 3.6 7.6c4.9-1.5 5.9-1.6 6.8-2.7 5.5-6.1 8.7-6.4 13.8-9.4-17.1-15.1-41.2-12.5-67.7-10.5l-2.1-19.2 7.2-6.7c10.6 0.2 30.5 8.3 39.9 3.8 3.6-1.8 8.5-8.5 12.2-11 6.1-4.2 11.1-2.2 17-5.7-6.8-5.7-31.4-15.2-43.9-12.4-16.4 3.7-20.9 20.2-36.6 18.6l-1-12.3-12.7 4.7c-1.1 8.7 5.4 25.1 2.6 39.7-11 2-32.7-14-62.6 6.8-17.8 12.5-23.2 31.5-15 58.7 5.3 17.5 25.2 34 36 44.1z"/>
	<path id="Path 5" fill-rule="evenodd" class="s1" d="m396.5 18.5c11.6 0 20.1-10.2 21.4-18.1h118.8c-10.5 19.7-16.5 44.6-18.5 74.3h-499.9c-1.9-29.7-7.9-54.6-18.4-74.3h118.8c1.3 7.9 9.8 18.1 21.4 18.1zm-303 46.5c3.4 0 4.2 1.4 4.5 3.3h0.7l2-8.3h-3.4l-10.4-28.2h-12.4v0.1c1.1 0.7 1.9 2 1.9 3q0 1.1-0.6 3l-7.8 22.3h-2.5l-1.9 8.1h0.7c1.6-2.3 3.3-3.3 5.8-3.3zm-19.8-5l6.7-19.7 6.9 19.7zm26.5-11.7c0 10.6 8 17.3 18.3 17.3 10.2 0 19-6.4 19-17.4 0-11.1-7.8-17.2-18.3-17.2-10.3 0-19 6.5-19 17.3zm9.8-1.4c0-5.2 2.6-10.9 8.5-10.9 6.9 0 9.2 8.3 9.2 14 0 2.5-0.4 5-1.9 7-1.6 2.2-4 3.6-6.6 3.6-3 0-5.5-1.9-6.8-4.3-1.5-2.6-2.4-6.5-2.4-9.4zm48.7 12.9c0.3 0.9 0.4 1.1 0.4 2 0 1.6-0.9 2.3-2 3v0.2h15.2v-0.2c-2.9-2.6-3.2-3.8-4.4-7l-9.4-26h-12.4v0.1c1 0.7 1.9 1.6 1.9 3 0 1-0.7 3-1.1 4l-7 20.1c-0.8 2.6-1.5 4.1-3.4 5.8v0.2h10.3v-0.2c-0.9-0.7-1.8-1.4-1.8-2.8 0-1.1 0.5-2.6 0.9-3.6l6-18.1zm25.7-10h9.1v8c0 2.6 0.3 5.5-2.2 7v0.2h13.6v-0.2c-2.5-1.5-2.1-4.4-2.1-7v-18.8c0-2.6-0.4-5.5 2.1-7.1v-0.1h-13.6v0.1c2.5 1.6 2.2 4.5 2.2 7.1v5.8h-9.1v-5.8c0-2.6-0.3-5.5 2.2-7.1v-0.1h-13.6v0.1c2.5 1.6 2.1 4.5 2.1 7.1v18.8c0 2.6 0.4 5.5-2.1 7v0.2h13.6v-0.2c-2.5-1.5-2.2-4.4-2.2-7zm42.8 15.1h11.4v-0.1c-2.5-1.6-2.1-4.4-2.1-7.1v-18.8c0-2.6-0.4-5.5 2.1-7v-0.2h-13.5v0.2c2.5 1.5 2.1 4.4 2.1 7v12.2c0 3.3-0.3 8.7-4.9 8.7-1.3 0-2.5-0.5-3.3-1.5-1.2-1.7-1.1-3.6-1.1-5.6v-13.8c0-2.6-0.4-5.5 2.1-7v-0.2h-13.4v0.2c2.5 1.5 2.1 4.4 2.1 7v16c0 3 0.2 5.5 2.4 7.8 2 2 4.6 2.9 7.4 2.9 3.7 0 6.8-1.9 8.7-4.8zm58.4-26c0-2.5-0.4-5.5 2.1-7v-0.2q-6.7 0-13.5 0v0.2c2.4 1.5 2.1 4.5 2.1 7v2.5c0 5.4-1.5 7.3-5.2 7.3-3 0-3.9-3.1-3.9-5.4v-4.4c0-2.5-0.4-5.5 2.1-7v-0.2c-4.5 0-9 0-13.5 0v0.2c2.4 1.5 2 4.5 2 7v5.9c0 7.4 5.8 9.7 10.5 9.7 2.6 0 5.9-0.7 8-3.1v8.9c0 2.3-0.7 3.8-2.2 4.6h13.5v-0.2c-1.5-0.8-2-2.3-2-4.4zm24.3 26h11.4v-0.2c-2.5-1.5-2.1-4.4-2.1-7v-18.8c0-2.6-0.4-5.5 2.1-7v-0.2h-13.5v0.2c2.5 1.5 2.1 4.4 2.1 7v12.1c0 3.4-0.3 8.8-4.9 8.8-1.3 0-2.5-0.6-3.3-1.5-1.2-1.7-1.1-3.6-1.1-5.6v-13.8c0-2.6-0.4-5.5 2.1-7v-0.2h-13.4v0.2c2.5 1.5 2.1 4.4 2.1 7v15.9c0 3.1 0.2 5.6 2.4 7.9 2 2 4.6 2.9 7.4 2.9 3.7 0 6.8-1.9 8.7-4.8zm41 0h0.6c10.1 0 18.6-6.5 18.6-17.4 0-11.1-7.7-15.8-18.3-15.8h-0.9c0-2.7 0.3-4.5 2.1-5.6v-0.2h-13.5v0.2c1.8 1.1 2.1 2.9 2.1 5.6h-0.6c-10 0-18.6 6.7-18.6 17.3 0 10.7 8 15.9 18.3 15.9h0.9c0.1 2.7-0.1 4.8-2.1 6.1v0.1h13.5v-0.1c-1.9-1.3-2.2-3.4-2.1-6.1zm-9.3-4.8h-0.6c-2.7 0-5.1-1.6-6.4-3.9-1.5-2.5-2.4-5.9-2.4-8.8 0-5.2 2.6-10.9 8.5-10.9h0.9zm9.3 0v-23.7h0.6c6.7 0 8.8 7.8 8.8 13.5 0 2.5-0.3 5-1.8 7-1.6 2.2-4.1 3.2-6.7 3.2zm40.6-0.4c0.3 0.9 0.5 1.1 0.5 1.9 0 1.6-0.9 2.4-2.1 3.1v0.1h15.2v-0.1c-2.8-2.6-3.1-3.8-4.3-7.1l-9.5-25.9h-12.4v0.1c1 0.7 1.9 1.6 1.9 3 0 1-0.7 3-1.1 4l-6.9 20.1c-0.9 2.6-1.6 4-3.5 5.8v0.1h10.3v-0.1c-0.9-0.7-1.8-1.4-1.8-2.8 0-1.1 0.6-2.6 0.9-3.6l6-18.1zm35.2 5.2h11.4v-0.2c-2.5-1.6-2.1-4.4-2.1-7v-18.8c0-2.6-0.4-5.5 2.1-7.1v-0.1h-13.5v0.1c2.5 1.6 2.1 4.5 2.1 7.1v12.1c0 3.4-0.3 8.8-4.9 8.8-1.3 0-2.5-0.6-3.2-1.6-1.3-1.6-1.2-3.6-1.2-5.5v-13.8c0-2.6-0.3-5.5 2.1-7.1v-0.1h-13.4v0.1c2.5 1.6 2.1 4.5 2.1 7.1v15.9c0 3.1 0.2 5.5 2.4 7.8 2 2.1 4.6 2.9 7.4 2.9 3.7 0 6.8-1.8 8.7-4.7zm33.2-19.7l11.1-13.4v-0.1h-12.4v0.1c1 0.6 2.1 1.5 2.1 2.8 0 1.4-1.5 2.9-2.3 4l-6.3 8v-7.7c0-2.6-0.4-5.5 2.1-7.1v-0.1h-13.6v0.1c2.5 1.6 2.1 4.4 2.1 7.1v18.8c0 2.6 0.4 5.5-2.1 7v0.2h13.6v-0.2c-2.5-1.5-2.1-4.4-2.1-7v-7.6l5.2 9c3.3 5.8 4.1 5.8 15.7 5.8v-0.2c-1.1-0.8-2.1-2.1-2.9-3.4z"/>
	<path id="Path 6" class="s4" d="m444.5 212.2q0.2-0.5 0.5-0.9l1.1-0.3 0.9 1.3-0.8 0.5z"/>
</svg>