<svg version="1.2" xmlns="http://www.w3.org/2000/svg" viewBox="0 0 494 777" width="494" height="777">
	<title>Slivnitsa-svg</title>
	<style>
		.s0 { fill: #991a36 } 
	</style>
	<g id="Layer">
		<g id="Изображение_на_герба">
			<path id="Основа_на_герба" fill-rule="evenodd" class="s0" d="m493.1 616.4c0 9.5-0.7 18.8-1.4 27.9-0.7 9.4-1 18.4-2.8 26.5-6.9 31.6-26.5 51.5-52.9 64.2-13.6 6.5-29 10.3-45.9 12.6-17.2 2.3-36.6 0.8-56.4 1.6-18.1 0.7-36.9 2.1-52.9 5.6-7.5 1.6-15.7 3.8-22.2 7-6.3 3.2-12.2 7.7-14 15-2.7-6.9-9-10.8-15.7-13.6-20.5-8.4-48.5-9.7-76.1-11-9.8-0.4-19.3-0.1-28.3-0.7-27.4-1.9-50-6.9-70.2-16.9-25.8-12.8-45.3-32.9-51.5-64.9-3.2-16.5-2.1-36.4-2.1-56 0-173.3 0-349.3 0-522.9-0.1-0.3-0.1-0.7 0.2-0.7q246 0 492 0c0.9 0.4 0.5 2.1 0.5 3.3 0.6 37.3 0 75.5 0 113.3 0 136.1 0 273.4-0.3 409.7zm-39.5-179c-2.5 7.3-7 13.6-10.8 20.6-3.5 6.5-6.5 13.8-9.1 21.3-2.7 7.6-4.7 16.2-4.9 25.5-0.2 9.4 0.1 19.5 0 30.7 4.3-0.7 7.9-2.1 12.2-2.8 0.1-4.3-1.7-6.9-2.3-10.1-1.5-8 1.2-13.9 5.9-17.1 5.1-3.5 12.4-3.3 20.8-3.3 0.6-10.6 2.7-23.4 3-34.7 0.1-4.1 0.7-9 0-12.6-0.2-0.9-1.1-2.3-1.6-3.5-3-6.5-5.3-13.1-13.2-14zm-388.1-130.3c4.4 2.5 12.5 1.2 19.4 1.2 0.7 0.3 0.1 1.3 1.2 1.6 0.6 0.5 1.6 0.6 1.9 1.4-5 6.1-13.9 8.3-19.9 13.8-1.2 1.2-4.8 5-4.9 6.6-0.1 0.7 0.5 2.3 0.9 3.5 0.4 1.1 1 2.3 1.2 3.5 0.7 4.1-0.2 8.2 1.4 10.5 1.9 2.7 12.6 2.6 16.2 1.2 3.4-1.2 3.6-5.8 5.9-9.1 2.4-3.6 6.5-4.5 11.7-5.2-0.3 1.5-1.9 2.4-2.3 4.4-0.5 2.4-0.2 5.8-0.2 8.9 0 3.2 0 6.5 0 9.4 2 1.8 6.4 1.6 8 3.3 1.5 1.7 0.9 4.4 2.1 6.8 6.5 0.1 11.3 0.3 14.3-2.6 6.3-5.9 4.1-19.3 5.4-30.2 6.3 4.6 11.1 10.6 22.5 10.1 0-2.3 0.5-4 0.7-6.1 2.7-3.5 6.5-5.8 9.1-9.4-1.6-3.2-3.6-6.2-4.9-9.8 9.5-4.4 19.2-8.9 28.6-13.1 1.3-0.5 2.5-1.6 4-1.6 0 8.3 0 16.5 0 24.8 9.6-0.3 12.8-7 19.9-9.8-2.2 5.3-3 12-2.6 19.9 2.7-0.3 4.9 0.1 6.6-0.5 2.5-0.8 3.5-3.7 5.9-4.4 4.2 5.7 9.9 8.7 15.9 11.7 4.7 2.4 9.6 4.5 15.2 5.4 2 0.4 4.2 0.2 6.6 0.5 4.7 0.5 9.2 2.8 12.9 4.9 8 4.6 13 10.1 16.9 18.7 2 4.3 3.8 9.1 3.3 14.8-0.7 8.2-6.1 13.3-11.5 18.7-5.2 5.2-11.4 10.2-12.2 18.3-0.6 6.1 2 12.8 4.4 15.7 4.8 5.9 14.8 9.9 22.7 13.6 3.7 1.7 8 3.8 12.2 6.1 3.8 2 8.7 4.7 9.8 8.4 0.9 3.1 0.3 8.2-0.2 11.9-1.2 9.6-4.2 16.3-15.2 15.2-8-0.8-16.7-5.2-23.9-5.4-0.9-2.5-1-4.7-3-6.1-4.8-3.3-14.5-0.4-19 1.2-1.4 4.4-3 6.8-5.9 9.6-1.4 1.3-3.9 3.2-4.2 4.9-0.3 1.6 0.4 3.8 0.9 5.2 1.4 3.9 4.7 9.1 8.7 10.1 1.6 0.4 4.2 0 6.3-0.2 6.4-0.7 13.2-1.6 19-2.1-1.9 5.1-4.9 9.6-10.8 10.3-4.6 0.6-8.5-0.8-12.6 0.7-4.1 1.5-8.2 5.9-8.9 10.3-0.9 5.6 0.6 11.7 0 18.7 3.1 1.9 6.5 3.3 9.6 5.2 9.9 1.5 13.1-3.8 17.6-7.7 0.1-3.1-0.3-6.7 0.2-9.4 5.1-0.6 10.3-2.4 14.8-2.8q0 5 0 9.6c0 3.1-0.4 6.5 0.5 9.1 0.6 1.5 2.5 2.2 3.3 4 1.1 2.5 0.7 4.5 1.4 7.3 5.3 0.1 11 0.3 14.5-0.9 1.8-0.6 7-3.1 7.5-4.4 0.7-2 0-5.3 0-8 0-2.6-0.2-5.2 0.2-7.7-0.3-1.2-1.5-1.6-1.6-3 1.4-2.4 2.8-4.7 4.4-7 1.5-2.3 3.1-4.6 4.9-6.6 1.1 0.3 2.7 0.2 4.2 0.2 1 2.4 2.1 4.7 2.8 7.3 5.7 0.2 10.9-0.2 16.4-0.2 1.1-3.8 3-8.6 4.4-12.6 0.5-1.4 1.5-3.4 1.4-4.4-0.1-1.1-1.4-2.3-2.1-3.3-1-1.4-1.3-2.1-2.6-2.8-2.3-1.2-5.2-1.1-8.2-1.6 3.6-7.4 7.1-15 11-22.2 4.9-1.6 9.3-3.7 14.3-5.2-3.1-5.9-10.7-8.5-9.6-17.8 4.8 1.5 11.1 3.2 17.3 2.3 2.6-0.3 5-2 7.3-2.3-0.7-5.9-5.7-8.4-8-12.9-2-3.7-2.1-8.1-1.9-14.5-4.9-4-9.9-8.6-18-9.6-2.7-0.3-6.8 0.2-9.4-0.7-7.5-2.4-5.8-16.4-5.2-25.3 0.1-2.6 0.1-5.8 0.9-7.3 1.5-2.8 5.9-2.8 10.1-2.8 9.3 0 19.2 0 27.2-1.2 21.6-3.3 37.3-14.6 43.1-33.7 3-9.8 2.6-22.4 0-33.7-2.3-9.9-6.2-19.2-10.1-28.3-7.9-18.3-16.9-34-24.4-52.5-3.8-9.3-7.8-19.1-7.7-30.9 0-13.7 7.8-21.7 17.3-26.5 3.3-1.7 7.2-3.9 10.5-4.2 6.7-0.6 13.1 4 16.4 8 4.1 4.9 6.6 10.7 7 17.3 0.5 7.7-2.4 14.4-8.2 17.8-5.3 3-12.2 2.2-22 2.3-0.2 9.3 3.7 17.6 4.7 25.8 0.1 1.4-0.1 2.9 0.2 4.2 0.5 2.2 2.3 5 3.5 7.5 3.2 6.4 8.2 11.7 18.3 10.1 1.4-0.3 2.9-1.2 4.4-1.9 4.6-2 9.1-3.7 13.3-5.9-0.9-2.2-1.4-4.4-2.3-6.6-0.8-2-2.3-4-2.8-6.1-0.9-3.8-0.5-8.5-0.2-12.4 0.3-4.1 1.1-7.8 2.1-11 2-6.9 5.1-13.3 5.6-20.6 1-15.6-3.7-28.5-11.5-36.3-6.2-6.2-16.7-11.6-29.7-10.8-20.5 1.2-34.9 13.3-42.1 26.9-1.9 3.6-3.7 7.9-4.7 12.4-1 4.8-1.7 10.5-0.9 15.7 0.7 4.6 2.5 8.8 4.2 12.9 8.2 19.1 20 36.2 30.2 55 3.8 7 7.8 14.5 11.2 22.9 3.2 7.9 6.8 17.8 6.1 28.1-0.5 8-3.5 13.1-7.5 16.9-10 9.7-29.4 11.6-49.6 11.5-12.3-7.8-21-19.4-29.3-31.1-7.2-10.2-14.6-21.1-20.6-32.1-0.9-1.6-1.4-3.6-2.8-4.9-13.6 0-27.6-0.2-40.7 0.2-13.7 0.4-26.2-0.9-37-4.2-21-6.4-36.3-19.3-53.6-28.6-12.5 8.2-21.8 15-37 19.9-7.1 2.3-16.9 4-24.4 1.4-3.6-1.2-6.2-3.3-8.7-5.6-3.8-3.6-11.1-11.2-19-7.3-2.8 1.5-3.7 5.5-7 7.3-2.3 1.3-4.8 1.6-8.2 1.9-0.2 8.9-0.7 15.3 4.8 18.2zm280.7-88.2c-7 6.4-12.5 14.3-19.4 20.6-5.3 4.8-11.1 8.3-17.3 11.7-2.1 1.1-4.5 2-6.6 3.3-2.1 1.3-4.1 3.2-6.3 4.7-6.5 4.6-13.3 9.2-19.4 14-7.7 6-15.7 12.9-20.4 21.5-0.2 0.3-1.3 1-0.5 1.4 9.8 0 18.8 0 28.3 0 3.1 0 6.8 0.6 9.6 0 1-0.2 3.2-1.7 4.9-3 11.1-8.1 19.3-18.8 26.9-29.5 9.7-13.6 17.8-27.4 20.4-44.5 0-0.2 0-0.3-0.2-0.2zm-0.1-62.8c-20.1 15.2-31.8 38.3-56.7 48.2-8 3.2-17.1 5.2-26.9 7.7-8.9 2.3-18 5-26.9 7.7-8.8 2.7-17.5 5.7-25.3 9.4-15.8 7.5-27.2 18.9-35.1 34.4 2.7 2.7 6.6 5.1 11 7.5 1.6 0.8 3.7 2 6.1 3 2 0.8 5.6 2.3 7.3 2.1 0.9-0.1 3.2-2 4.9-3.3 4.9-3.8 9.7-7.6 14.3-10.8 19.8-13.9 40.1-27 65.1-34.9 16.5-5.2 30.6-14.5 41.4-25.3 11.3-11.3 20.4-25.5 21.1-45.7 0-0.1 0-0.3-0.3 0zm-120.7 15.8c0.9 2.4 2.9 4.2 5.4 5.6 1.9 1 4.7 2.7 6.6 3 1.6 0.3 4.6 0 7 0 5.8 0 8.6-0.7 11-3.7 2.2-2.8 2.8-7.3 4.4-11.2 5.9 1.5 12.5 3.2 14.3 9.1 0.9 3 1.4 9.4-0.7 11.9-2.2 2.7-9.4 1.9-14.5 1.9-5.9 0-11.2 0-16.6 0 0.5 9.3 3 16.7 11.9 17.3 6.2 0.4 12.7-0.8 18.7-2.3 5.7-1.4 11.1-3.3 15.5-5.6 7.8-4.1 14.7-10.3 21.3-15.5 4.2-3.3 7.6-7.3 11-11.5 5.2-6.5 9.6-12.6 14.5-19.7 2.2-3.3 6-7.8 6.3-10.8 0.4-3.7-1.5-8-3-10.5-4-6.6-14-13.5-24.1-14.3-7.9-0.6-10.3 3.6-15.5 4.7-2.3 0.4-4.7 0.1-7 0.2-12 0.6-20.8 3.3-28.6 8-3.3 2-6.6 4.1-10.1 4.7-2.9 0.4-5.6-0.7-8.4-0.5-1.6 0.1-3.2 0.9-4.9 1.4-5.1 1.4-9.8 2.6-15 4 0 5.2 0 11.2 0 17.1 0 5.1-1 12.7 0.5 16.7zm-33.1-8.6c1 3.3 2 6.5 3 9.8-4.4 8.8-3.6 19.8 3 25.1 1 0.7 3 2 4.9 2.3 2.8 0.4 9 0.5 11.5 0 1.4-0.3 3.6-1.7 5.4-2.6 4.5-2.2 7.7-4.7 9.4-9.1-5.9-0.8-11.5-2-17.3-3-2.6-11.4-6.9-21.3-19.9-22.5zm-103.1 36.4c1.8 3.8 7.6 9.9 12.2 10.8 7.9 1.4 9.4-5.6 14.5-8 4.7 2 9.9 3.5 14.5 5.6-1.5 3.7-6.5 5.7-7.3 10.3-0.7 3.7 0.5 7.6 0 12.2 2.9 0.7 4.8 0.2 7.3 1.4 1.6 0.8 2.1 2.8 3.3 3.3 1 0.5 3.2 0.5 4.4 0.5 6.1-0.3 7.8-5.4 11.9-7.3 5 8.2 10.1 16.3 15 24.6 11.7-7.3 17.2-20.8 32.3-24.8-2.1-5.8-5.9-9.6-9.4-13.3-7.3-7.8-15-15-21.5-23.9-3.1-4.3-6.7-9.6-7-15.9-0.3-5.5 1-11.4 1.6-17.3 0.2-2.6 0.6-5.7 0.9-8.7 0.3-2.8 1.1-6.2 0.7-8.9-0.4-2.9-3.8-4.2-5.4-7-0.6-1-0.8-1.9-1.2-2.8-0.3-0.8-0.6-1.8-1.4-2.6-5.1 0.6-16.1 4.4-16.9 8.7-0.3 1.5 0.5 3.5 0.7 5.4 0.7 5.9 1.3 10.8 1.6 16.2-5.3-0.8-8.8-3.7-12.2-7.7-2.3-2.6-5.8-9.7-9.6-10.3-1.8-0.3-4.1 0.4-6.3 0.7-6.6 0.8-12.5 1.5-19 2.1 0 6.6 0 13.3 0 19.9 5.3 3 11.3 5.4 19.7 5.2 2.5 4.4 5.3 8.5 7.5 13.3-5.7-1-11.6-2-17.3-3-1.8 1.9-4.8 2-6.1 4.4-1.2 2.2-0.5 5.1-1.4 8.2-3 0.5-6.1 0.6-7 2.8-0.6 1.7 0.2 4.9 0.9 5.9zm259.6-18.6c-9.3 11.6-18.1 22.1-28.3 32.1-9.9 9.8-22.1 16.9-37.2 22-7.2 2.4-14.2 5.3-21.1 8.4-20.5 9.1-38.9 20.9-49.4 39.8 3.9 4.8 11 9.1 19.2 10.5 2.8 0.5 6.4 1.3 9.1 0.5 1.9-0.5 5.1-3.5 7.5-5.4 7.4-5.9 14.6-11.8 21.5-17.3 9.8-7.8 18.7-15.7 28.8-22.9 5-3.6 10.4-6.2 15.7-10.1 13.6-10.1 24-23.3 32.3-38.9 0.8-1.5 1.9-3.2 2.1-4.4 0.8-4.5-0.5-10.8-0.2-14.3zm76.5 303.1c1.5-10.4-6.8-17.7-15.7-16.4-2.2 0.3-3.6 0.7-4.9 1.4-3.5 1.9-7.6 6.1-7.3 13.1 0.3 6.3 5.6 12.4 11.5 13.3 8 1.2 15.4-4.5 16.4-11.4zm-9.3 21c0 0-0.1 0-0.2 0-11.3 6.9-19.7 17.4-26.5 31.1-5.5 11-10.3 22.8-15.5 34.2-0.9 2-2 3.9-2.1 5.2-0.1 1.9 0.8 4 1.2 5.9 0.5 2.2 0.6 4.1 1.2 5.9 9.2-6.1 15.6-15.7 23.4-23.9 6.8-7.3 14.3-13.9 22.9-19 1.2-0.7 2.7-1.4 3.5-2.6-2.8-12.1-5-24.9-7.9-36.8zm-64.7 69.8c-6 0.7-9.7 4.9-11 7.7-2.9 6.1-0.9 12.8 2.8 16.4 7.9 7.7 23.9 3.1 23.9-10.3 0-8.5-7.2-14.9-15.7-13.8zm-280.3-67.6c-3.6 4.8-5.5 11.3-5.2 19.9 14.7 4.5 25 13.9 35.1 25.1 8 8.9 15.3 19.8 23.2 29.3 0.9 1.1 2.8 3.5 4.2 3.5 1.7 0 3.5-2.5 4.4-4.2 0.9-1.8 2.3-4.5 2.6-6.1 0.3-1.8 0-4.2 0-6.3-0.1-5.7-1.2-9.8-2.6-13.3-5 0-9.9 0-14.8 0 0.4-1.6 1.7-2.5 2.1-4.2 0.6-2.3 0.8-12.4-0.2-15-0.4-0.9-4.2-5.9-4.7-5.9 0.1 0-2.2 1.6-2.8 2.1-1.2 1-1.5 1.9-2.8 2.3-2.3 0.8-4 0.2-6.6 0.5 1.4-4.6 3.3-12.1 2.3-18-0.2-0.9-0.7-2.3-1.4-3-1.5-1.5-6.7-2.2-9.6-1.2-1.2 0.4-2.2 2-3.5 2.8-1.7 1.1-3.2 1.6-5.4 1.9q0-3.7 0-7.5c-4.2-1.4-8.2-3.2-14.3-2.7zm3.8-14.1c1.1 2.3 3.7 4.9 6.3 6.1 10.6 5 20.1-3.9 20.1-12.9 0-8.2-7-14.5-15.2-13.8-9.2 0.8-16.4 10.7-11.2 20.6zm72.5 9.9c3.3-2.5 3-7.3 5.2-10.8 2.1-3.4 5.1-4.2 9.8-4.9 1.8 5 3.7 9.8 5.4 14.8 3.7 0.9 8.3 4.1 12.9 1.9 1.3-1.7 1-3.7 2.1-5.2 1.7-2.4 4.9-3.1 8-4.2-1-4.8-1.9-9.6-2.8-14.5 3.4-2.7 6.4-5.7 10.1-8 6.1 3.7 12.4 7.3 22 7.5-0.6-6.1-1.7-11.7-2.6-17.6 6.7 3.3 11 9 22.5 7.5 0.1-3.7-1.4-6.1-2.3-9.4-0.8-2.8-0.3-7.3 0.2-10.3 0.4-2.6 2.1-5.8 2.1-8 0-0.9-0.6-2.9-0.9-4.2-1.4-5.5-5-5.6-9.1-8.4 0.1-4.1-0.3-8.8 0.2-12.6 4.6 0.1 8.9-2 13.8-2.3 5.9-0.4 11.9 0.3 18.3 0 3.9-6.4 9.6-12.3 13.6-18.7 1.8-2.8 4.2-7.1 3-11.2-0.8-2.9-5.6-6.3-8.9-8.4-7.7-5.1-16-7.6-26.5-8.7-12-1.3-22.3-0.2-32.3 1.6-4.8 0.8-9.4 2.2-13.6 3-2.1 0.4-5 0.6-6.1 1.9-1.4 1.8-1.2 5.6-1.4 8.7-0.3 3.5-0.8 7.1-0.7 9.6 0.1 2.8 1.1 6 1.6 9.1 1.5 9.5 2.7 19.4 4.4 28.3-2.5 4.2-5.3 8.5-8.9 11.7-3.5 3.2-8.1 6.1-14.8 5.9-4.4-3.1-6.7-7.9-9.1-12.9-1.8-3.9-3.3-7.6-4.4-11.9-0.3-1.5-0.3-3.3-0.9-4.7-0.5-1.2-3.7-5.1-4.7-5.4-1.8-0.5-3.9 0-5.6 0-1.6-0.1-3.8 0.1-5.4-0.5-1.4-0.5-2.1-2.1-3.3-2.8-1.3-0.7-2.4-1-4.4-1.4-1.3 2.1-1.9 4-2.8 6.1-0.9 2-2.4 3.9-2.8 6.1-0.6 3.4-0.4 7.5 0.9 9.8 1.2 2.1 4 2.9 6.1 4.4 2.1 1.5 4.6 3 5.4 5.2 0.5 1.4 0.5 2.9 0.9 4.2 0.5 1.4 1.3 2.4 1.2 3.7-3.6-0.9-6.6-2.2-9.8-3.7-3.9-1.8-8.2-5-12.9-3-4.4 1.8-10.3 9.3-11.5 15-1.1 5.1 1.7 9.8 5.6 11.2 1.8 0.6 6.8 1.1 9.8 0.2 1.3-0.4 1.8-1.5 3.5-1.9 3.2-0.8 6.3 0.3 10.1-0.5 0.3 1.2 1.7 2.1 3 2.8-2.1 2.7-4.7 4.6-7.7 7-2.3 1.8-6.7 4.7-7.3 7.5-0.3 1.2 0 2.8 0.2 4 0.5 4.5 2.6 6.4 3.7 10.1 0.7 2.6 0.9 5.3 0.9 8.9 6.5-0.5 13.1 1.1 17-1.6zm3.4 96.6c8.1-0.1 14.9-7.4 13.8-16.2-1-7.5-8-12.8-15.5-11.9-6.8 0.8-11.8 5.9-12.4 12.4-0.9 9.1 6.1 15.8 14.1 15.7zm4.7 15.5c7.3 0.3 14.1-0.4 20.8 0 14.7 0.9 25.9 7 35.6 13.6 9.9 6.7 18.3 15.1 28.1 21.3 2.4-0.8 5-1.4 7.3-2.3 0-3.2 0-6.5 0-9.8-7.9-2.2-11-9.6-14.3-16.2-1.8-3.5-4.3-8.4-7.3-8.9-4.9-0.8-7.5 2.8-9.6 4.7-1.1 1.1-2.3 2.4-3.7 2.6 0.8-4.1 3.7-7.9 2.1-11.9-0.9-2.2-4.2-4.3-6.8-5.4-3.1-1.3-6.9-2-10.1-2.3-0.2 2.8-0.1 4.5 0 7.3-2.2 0.4-4 2.3-5.4 2.6-1.6-5-3.2-10-4.7-15-4.1 0-8.1 0-12.2 0-0.1 3.3 0.3 7.2-0.2 10.1-4.8-1.6-12.1-4.2-16.4-0.7-2.7 2.2-2.8 5.9-3.2 10.3zm92.5 10.5c9.5 4.5 20.1-2.8 20.1-12.9 0-3.2-2-7.8-3.7-9.6-2.3-2.5-7.2-4.8-11.9-4.2-2.6 0.4-4.4 1-5.9 1.9-3.6 2.2-6.6 6.3-6.6 12.2 0 4.7 3 10.3 8 12.6zm-0.5 32.1c0 2.2 1.6 3.3 2.6 5.4 13.7-4.7 21.7-14.4 32.5-22 9.6-6.8 19.5-12 34.4-13.1 2.1-0.2 4.6 0.1 6.6-0.5 3.6-1 6.5-6.7 8.2-10.3 2.1-4.6 3.8-9.6 4.7-14-0.9-0.2-2.1 0.1-2.6 0.2-19.9 2.4-34.7 9.5-49.4 20.8-9.6 7.4-20.2 14.8-29.3 23.4-2.6 2.5-7.7 7.3-7.7 10.1zm-219.1-170.5c4 0.1 8.7-0.3 12.4 0.2-1.1 2.5-0.2 5.7-2.3 7-1.9 1.2-4.7-0.1-7.5 0.7 0.2 3.4-0.4 8.3 1.4 10.5 2.1 2.5 6.6 1.1 10.1 2.3 1.4 0.5 2.6 2.2 4 3.5 3.2 3.2 6.8 6.3 9.8 9.1 0.6 0.6 1.6 1.9 1.9 1.2 2.2-9.2 5.6-17.2 14.8-19.4-0.7-1.9-1.4-3.5-2.3-5.2-0.8-1.6-2.2-3.2-2.6-5.2-0.5-2.9-0.4-14.1 0.7-16.6 1.1-2.3 4-3.4 5.2-4.9 2-2.5 2.2-13.3 1.6-18-0.7-5.2-4.8-4.9-10.1-5.4-0.4-6.6 1.4-12.5-2.6-14.3-1.9-0.9-12.4-0.9-15-0.5-6.4 1.1-3.8 8.6-4.7 14.8-3.8 0.7-7.7-0.4-10.1 1.2-3.9 2.6-1.3 9.7-1.6 15.2 1.9 2.4 4.9 3.9 6.8 6.3-3.2 0-6.5 0-9.8 0 0 5.7 0 11.5-0.1 17.5zm18.9 42.2c0-4.5-3.1-9-4.9-10.5-2.3-1.9-6.7-3.6-11-3-2.2 0.3-3.6 0.7-4.9 1.4-3.4 1.8-7.4 5.9-7.3 12.6 0.1 8.2 6.8 13.7 13.8 13.8 6.9 0.1 14.3-5.5 14.3-14.3zm75.6 110.4c-0.8-7.3-7.6-13-15.7-11.9-4.9 0.7-8.4 3.3-10.1 6.1-5.5 8.8 0.8 20.5 9.4 21.8 10.8 1.6 17.3-7.4 16.4-16zm22.5-19.5c0-3.2 0-6.5 0-9.8-18.7-1.2-23.7-16.1-27.2-32.5-1.6 0-3.3 0-4.9 0-1.2 2.3-0.2 5.8-2.6 7-1.9 0.9-4.9 0.1-7.5 0.2 0.7-2.1 0.8-3.6 1.9-5.4 0.7-1.2 2.3-1.9 2.8-3.3 0.3-1 0.4-3.4 0.2-4.7-0.5-3.3-3.6-7.4-5.9-9.4-1.2-1-3.1-2.2-4.4-2.1-2.3 0.2-3.5 3.2-4.7 4.9-1.5 2.2-2.8 3.9-4.9 4.9-0.4-1.6-2.7-3.3-2.6-5.6 0.1-2.7 4-3.2 4.9-5.4 0.5-1.2 0.2-3.3 0-4.9-0.7-5.3-2.8-7.9-4.7-11.5-4.3 0.2-7.9-0.3-12.2-0.2-0.7-2.6-1.9-4.9-2.8-7.3-3.7 0.4-8.5-0.7-10.8 0.5-5.7 2.9-11 5.8-11.5 13.1-0.2 2.1-0.1 3.8 0.7 6.3 1.4 0.8 3.1 1.3 4.2 2.3-0.6 2.3-3.2 3.4-4.2 5.6-1.2 2.5-0.5 5.4-0.7 9.4 4.8 3.5 10.5 5.9 19.4 5.2 0.3 1.5 2.2 1.5 2.8 2.8-1.2 1.4-1.8 3.3-2.8 4.9-2.6-0.2-4.3-0.1-7 0 0.9 5.4 2.2 10.6 5.6 13.3 5.7 4.5 14.7-1.2 21.8-0.9-1.4 2.3-3.2 3.9-5.2 6.1-1.3 1.4-4.6 4.8-4.7 6.8-0.3 5.4 8.5 4.8 13.8 5.2 17.6 1.4 36.8 3.3 53.2 4.5zm57.3 50.8c0.1 2.5-1.9 4.8-2.3 7-0.3 1.4-0.5 3.4 0.2 4.7 1.8 3.7 10.1 1.2 14 0.2 8.4-2.2 16.1-5.4 23.2-8.2 1.5-0.6 3.3-0.8 4.4-1.9-1.8-12-9.3-21.9-17.3-29-2-1.8-6.5-6-10.1-5.6-2.5 0.3-4.1 3.8-6.6 5.4-1.9 1.2-3.5 2-5.9 2.1-0.9-5.9 2-13.3-1.6-16.2-3.8-3.1-11.6-0.1-18-1.2 0 3.2 0 6.5 0 9.8-1.8 0-3.5 0-5.2 0-1.6-5.9-3.6-11.4-5.2-17.3-5.7 0-11.3 0-16.9 0-0.1 3.2 0.3 7-0.2 9.8-3.4-1.4-6.5-3.2-9.6-4.9-3.5 2-7.4 2.4-10.3 5.6-2.4 2.6-3.5 9.8-1.6 13.8 0.4 0.9 1.4 1.9 2.1 2.8 0.6 0.8 1.9 2.4 2.6 2.6 3.4 1 8.1-1 11.9 0.2-0.8 4.3-2 8.1-2.8 12.4 6.1 0.2 6.6 5.9 14 4.9 1.4-1.3 2.3-2.9 4.4-3.7 2.6-1 5.8-1.1 9.4-1.2-0.8 2.1-1 3.7-2.1 5.6-0.9 1.6-3 2.4-3 4.4-0.1 2.6 2.3 3.6 4.2 4.7 2 1.1 4.1 2.5 6.1 2.8 3.3 0.5 6.9 0.2 8.9-0.7 2.6-1.2 3.9-4.3 6.1-6.1 2.1-1.8 4-2.8 7.2-2.8zm168.2-32.9c-7.4-0.8-14.3-1.2-21.3-1.9-7-0.7-14.1-1.9-22-1.4-14.2 0.8-26.2 5.9-37 11.9-30.7 17.1-53.9 44.6-90.4 54.3 0.7 2.3 1 5.1 2.3 6.8 2.6 0.8 5.1 1.9 7.7 2.8 15.1-8 31.2-18 48.2-24.8 5.9-2.4 12.6-4.8 19.2-5.2 5.8-0.3 11.1-0.2 16.2-0.9 5-0.7 9.8-1.4 14.5-2.6 17.8-4.4 34.1-12 46.6-21.8 5.7-4.5 11.9-10.2 15.7-16.2 0.1-0.1 1.1-0.9 0.3-1zm-49.3 57.7c-12.1-2.3-20.9-8.9-34.2-9.8-3.3-0.2-7.5 0-10.8-0.5-3.1 2.4-6.7 4.3-9.8 6.8 10.1 3 22.5 9.3 33.3 13.1 5.6 1.9 12.5 4.2 16.2 0.9 2.6-2.3 4.2-6.7 5.3-10.5zm69.9-72.3c-8.3 0.7-13 6.7-12.9 14 0.1 15 20.6 18.7 26.7 6.1 4.9-10.4-3.8-21.1-13.8-20.1zm59.3-83.3c-0.1-0.4-0.3 0-0.7 0-15.9 5-29.4 12.8-41.7 21.3-4.1 2.9-8.4 5.9-11.7 9.4-1.9 2-3.3 4.6-4.9 7-11.6 17.1-20.7 35.8-50.1 34.9-0.8 4.1-1.7 8.1-2.3 12.4 31.3-0.1 56.7-8.4 75.9-22.2 18.7-13.3 33.3-34 35.5-62.8zm22.3-21.2c0-8.6-7.2-14.5-15.2-13.8-6 0.6-9.8 4.5-11.2 7.3-5.1 9.8 2.3 20.8 12.4 20.8 7.7 0 14.1-6.1 14-14.3z"/>
			<path id="Окоот_на_лъва" fill-rule="evenodd" class="s0" d="m271.7 148.1c-0.8-5.2-2-9.9-2.8-15.2 6.4 2.7 12.8 5.3 19 8.2 0.2 1.3-0.6 1.6-0.5 2.8-5.4 1.3-10.4 2.9-15.7 4.2z"/>
		</g>
		<path id="Сливница" fill-rule="evenodd" class="s0" d="m493.4 68h-13.2l-5.2-15h-23.9l-4.9 15h-12.8l23.3-66h12.8zm-22.2-26.1l-8.2-24.5-8.1 24.5zm-223.6-39.9h12.9v26h25.3v-26h12.9v66.3h-12.9v-29h-25.3v29h-12.9zm-60.3-0.1h25c4.9 0 8.6 0.2 11.1 0.7 2.4 0.4 4.6 1.3 6.5 2.7 1.9 1.4 3.5 3.2 4.8 5.6 1.3 2.3 1.9 4.9 1.9 7.8 0 3.1-0.8 6-2.4 8.6-1.6 2.6-3.7 4.6-6.4 5.9 3.8 1.2 6.7 3.2 8.8 6 2.1 2.8 3.1 6.2 3.1 10 0 3-0.7 6-2 8.8-1.3 2.9-3.1 5.1-5.4 6.8-2.3 1.7-5.1 2.8-8.5 3.2-2.1 0.2-36.5 0.4-36.5 0.4zm12.6 26.5h8.3c4.9 0 8-0.1 9.2-0.2q3.3-0.5 5.1-2.4c1.2-1.3 1.8-3.1 1.8-5.2 0-2.1-0.5-3.7-1.6-5-1.1-1.3-2.7-2.1-4.8-2.3-1.3-0.2-4.8-0.2-10.8-0.2h-7.2zm0 11.1v17.8h11.7c4.6 0 7.4-0.1 8.7-0.4 1.9-0.4 3.4-1.3 4.6-2.6q1.8-2.1 1.8-5.7c0-2-0.5-3.7-1.4-5.1-0.9-1.4-2.2-2.4-3.9-3.1-1.7-0.6-5.5-0.9-11.2-0.9zm-143.3-15.4c-4.4 0-8.7 0-13.1 0-1.4-4.5-2.9-8.4-6.7-10.1-5.7-2.6-12.1-0.6-15.4 2.1-10.4 8.2-10.4 42.2 9.4 41.3 7.7-0.3 10.6-5.6 12.7-12.4 4.4 0 8.7 0 13.1 0-1.4 11.1-7.2 19.1-16.1 22.8-10.9 4.5-24.6 0.9-31.3-6.7-11.6-13.2-10.6-41 1.1-52.7 3.8-3.8 9.8-7 16.6-7.6 17.7-1.5 28.1 8.3 29.7 23.3zm25.5-22.1q7.4 0 14.7 0c7.1 22.3 14.8 44 21.9 66.3-4.7 0-9.4 0-14 0-5.2-16.8-10.5-33.4-15.4-50.4-5.6 16.5-10.6 33.6-15.9 50.4q-6.9 0-13.8 0c7.3-22.3 14.8-44.5 22.5-66.3zm42.1 0q6.5 0 12.9 0 0 25.2 0 50.4c8-16.6 15.6-33.6 23.5-50.4q8 0 15.9 0 0 33.2 0 66.3c-4.4 0-8.7 0-13.1 0 0-16.3 0-32.5 0-48.8-7.8 15.2-15.4 32.7-23.2 48.8-5.4 0-10.7 0-16.1 0 0-21.9 0-43.7 0-65.6-0.1-0.4-0.1-0.7 0.1-0.7zm184.8 0h13.1v50.2l23.2-50.2h16.1v66.3h-13.3c0-16.2 0-32.4 0-48.5l-23.2 48.5h-16.1v-65.6zm76.1 0v55.2h26v-55.2h13.6v55.2c2.5 0 5.1 0 7.6 0q0 12.9 0 25.8-4.5 0-9 0c-0.8-6.3-0.6-12.1-5.5-14-2.7-1.1-6.8-0.7-11-0.7h-34.8v-66.3z"/>
	</g>
</svg>