<svg version="1.2" xmlns="http://www.w3.org/2000/svg" viewBox="0 0 704 995" width="704" height="995">
	<title>Ivaylovgrad-pdf</title>
	<style>
		.s0 { fill: #008700 } 
		.s1 { fill: #ffff66 } 
		.s2 { fill: #c4c445 } 
		.s3 { fill: #c40000 } 
		.s4 { fill: #ffff87 } 
		.s5 { fill: #0000ff } 
	</style>
	<path id="Path 1" class="s0" d="m693.2 507.9l-2 41.2-6.9 100.8-4.7 31.5c-45 164-140.4 253.7-311.5 313.5-142.9-36.4-251.6-127.3-303.4-239.1-18.4-39.7-29.6-79.3-34.7-135.6l-11.6-203.8-4.3-161-1-22.9h684.5l-2.4 218.6z"/>
	<path id="Path 2" class="s1" d="m196.5 63v-62.4h131.4v62.4h56.8v-62.4h130.5v62.4h56.8v-62.4h131.3l-6.3 213h-686.6l-10.1-213h139.3v62.4z"/>
	<path id="Path 3" class="s2" d="m306.1 680.6l2.3 0.2 2.3 0.3 4.3 1.4 3.9 2.1c2.6 2 4.9 4 6.6 6.9 1.2-1.9 2.9-3.5 4.5-4.9l3.6-2.5 4.2-1.8 2.2-0.5 2.2-0.4 2.4-0.1 2.3 0.1 2.3 0.4 4.3 1.3 3.9 2.1c2.3 1.8 4.7 3.8 6.3 6.3 1.5-2.5 3.9-4.5 6.2-6.3l3.9-2.1 4.3-1.3 2.3-0.4 2.4-0.1 2.3 0.1 2.3 0.4 4.3 1.3 3.9 2.1c2.6 2 4.9 4 6.6 6.9 1.7-2.8 3.9-4.9 6.6-6.9l3.9-2.1 4.3-1.3 2.3-0.4 2.3-0.1 2.3 0.1 2.3 0.4 4.3 1.3 3.9 2.1 3.4 2.8 2.8 3.4 2.2 3.9 1.3 4.4 0.4 2.2 0.1 2.4-0.1 2.3-0.4 2.3-1.3 4.3-2.2 3.9-2.8 3.4-3.4 2.8-3.9 2.1-4.3 1.4-2.2 0.3c0.9 1.9 1.5 3.7 2 5.8l0.3 2.2 0.2 2.4-0.2 2.3-0.3 2.3-1.4 4.3-2.1 3.9-2.8 3.4-3.4 2.8-3.9 2.1c-2.4 0.9-4.8 1.6-7.4 1.8 0.9 1.9 1.5 3.6 2 5.7l0.3 2.2 0.2 2.4-0.2 2.3-0.3 2.3-1.4 4.3-2.1 3.9-2.8 3.4-3.4 2.8-3.9 2.1c-2.1 0.8-4.4 1.6-6.7 1.7 0.9 1.9 1.5 3.7 2 5.7l0.4 2.3 0.1 2.4-0.1 2.3-0.4 2.3-1.3 4.3-2.1 3.9-2.8 3.4-3.4 2.8-3.9 2.1-4.3 1.4-2.3 0.3-2.4 0.1-2.3-0.1-2.3-0.3-4.3-1.4-3.9-2.1-3.4-2.8-2.8-3.4-2.1-3.9-1.4-4.3-0.3-2.3-0.1-2.3c0.1-3.4 0.6-6.5 2.1-9.6l-4-0.5-4.4-1.3-3.9-2.1-3.4-2.8-2.8-3.4-2.1-3.9-1.3-4.3-0.4-2.3-0.1-2.4 0.1-2.3 0.4-2.3 1.3-4.3 1-2-4.4-0.4-4.3-1.4-3.9-2.1-3.4-2.8-2.8-3.4-2.2-3.9-1.3-4.3-0.4-2.3-0.1-2.3 0.1-2.4 0.4-2.2 1.3-4.4 1-1.9-4.3-0.5-4.4-1.3-3.9-2.1-3.4-2.8-2.8-3.4-2.1-3.9-1.3-4.4-0.4-2.2-0.1-2.4 0.1-2.3 0.4-2.3 1.3-4.3 2.1-3.9 2.8-3.4 3.4-2.8 3.9-2.1 4.4-1.4 2.2-0.3z"/>
	<path id="Path 4" class="s3" d="m306.1 686.3c9.5 0 17.3 7.8 17.3 17.3 0 9.5-7.8 17.3-17.3 17.3-9.6 0-17.3-7.8-17.3-17.3 0-9.5 7.7-17.3 17.3-17.3zm38.5 0.7c9.5 0 17.3 7.8 17.3 17.3 0 9.5-7.8 17.3-17.3 17.3-9.5 0-17.3-7.8-17.3-17.3 0-9.5 7.8-17.3 17.3-17.3zm77 0c9.5 0 17.3 7.8 17.3 17.3 0 9.5-7.8 17.3-17.3 17.3-9.5 0-17.3-7.8-17.3-17.3 0-9.5 7.8-17.3 17.3-17.3zm-38.8 0c9.5 0 17.3 7.8 17.3 17.3 0 9.5-7.8 17.3-17.3 17.3-9.6 0-17.3-7.8-17.3-17.3 0-9.5 7.7-17.3 17.3-17.3zm-56.8 33.2c9.5 0 17.3 7.7 17.3 17.3 0 9.5-7.8 17.3-17.3 17.3-9.5 0-17.3-7.8-17.3-17.3 0-9.6 7.8-17.3 17.3-17.3zm38.6 0c9.5 0 17.3 7.7 17.3 17.3 0 9.5-7.8 17.3-17.3 17.3-9.6 0-17.3-7.8-17.3-17.3 0-9.6 7.7-17.3 17.3-17.3zm38.9 0c9.5 0 17.3 7.7 17.3 17.3 0 9.5-7.8 17.3-17.3 17.3-9.5 0-17.3-7.8-17.3-17.3 0-9.6 7.8-17.3 17.3-17.3zm-57.5 33.8c9.5 0 17.3 7.8 17.3 17.3 0 9.6-7.8 17.3-17.3 17.3-9.5 0-17.3-7.7-17.3-17.3 0-9.5 7.8-17.3 17.3-17.3zm38.5-0.6c9.5 0 17.3 7.7 17.3 17.3 0 9.5-7.8 17.3-17.3 17.3-9.5 0-17.3-7.8-17.3-17.3 0-9.6 7.8-17.3 17.3-17.3zm-18.3 33.2c9.6 0 17.3 7.7 17.3 17.3 0 9.5-7.7 17.3-17.3 17.3-9.5 0-17.3-7.8-17.3-17.3 0-9.6 7.8-17.3 17.3-17.3z"/>
	<path id="Path 5" fill-rule="evenodd" class="s2" d="m693.2 507.9l-2 41.2-6.9 100.8-4.7 31.5c-45 164-140.4 253.7-311.5 313.5-142.9-36.4-251.6-127.3-303.4-239.1-18.4-39.7-29.6-79.3-34.7-135.6l-11.6-203.8-4.3-161-1-22.9h684.5l-2.4 218.6zm-258.7 434.7q-1.8-0.4-3.5-0.8l-8.6-2.3q-0.1 0-0.3 0.1-0.2-0.1-0.4-0.1l-12.2 3.3c-13.5 2.9-28 4-43 4-17.5 0-34.3-3.1-49.8-7.3h-0.1q-0.3 0.1-0.6 0.2l-7.6 2.1q-6.8 1.6-13.8 2.7c19.8 9.4 67 22.6 71.9 22.7 5.9 0 49.4-15.1 68-24.6zm-120.8-13.7c16.4 4.5 34.2 7 52.8 7 18.5 0 36.2-2.5 52.5-6.9 9.6 2.6 19.7 4.5 30.1 5.7l2.2-1.2q8.6-5 17-10.1c-12.9-0.3-25.5-2.2-37.3-4.9l-8.6-2.4q-0.1 0-0.3 0.1-0.2-0.1-0.4-0.1l-12.2 3.4c-13.5 2.8-28 3.9-43 3.9-17.5 0-34.3-3.1-49.8-7.3h-0.1q-0.3 0.1-0.6 0.2l-7.6 2.1c-14.8 3.6-30.9 5-47.7 5q-3.2 0-6.4-0.1 1.9 1.1 3.8 2.2 9 5 18 9.8c13.1-1 25.7-3.2 37.6-6.4zm-53-14.2c18.7 0 36.5-2.5 53-7 16.4 4.5 34.2 7 52.8 7 18.5 0 36.2-2.5 52.5-6.9 16.4 4.4 34.1 6.9 52.5 6.9q5.5 0 10.9-0.3 5.6-3.7 11.2-7.5 4.7-3.3 9.4-6.7c-10.1 1.4-20.6 2-31.5 2-14.1 0-27.7-2-40.5-4.9l-8.6-2.4q-0.1 0-0.3 0.1-0.2-0.1-0.4-0.1l-12.2 3.4c-13.5 2.8-28 3.9-43 3.9-17.5 0-34.3-3.1-49.8-7.3h-0.1q-0.3 0.1-0.6 0.2l-7.6 2.1c-14.8 3.6-30.9 5-47.7 5-17.5 0-34.3-3.1-49.8-7.3h-0.1q-0.1 0-0.1 0 5.1 3.8 10.3 7.4l14.9 9.8q1 0.7 2.1 1.3 11.1 1.3 22.7 1.3zm-52.9-28.8c16.5 4.5 34.3 7 52.9 7 18.7 0 36.5-2.5 53-7 16.4 4.5 34.2 7 52.8 7 18.5 0 36.2-2.4 52.5-6.9 16.4 4.5 34.1 6.9 52.5 6.9 17.3 0 33.9-2.1 49.3-6q7.2-5.7 14.3-11.6l-7.7-2.2q-0.2 0.1-0.4 0.2-0.2-0.1-0.4-0.2l-12.2 3.4c-13.5 2.9-27.9 4-42.9 4-14.1 0-27.7-2-40.5-5l-8.6-2.4q-0.1 0.1-0.3 0.2-0.2-0.1-0.4-0.2l-12.2 3.4c-13.5 2.9-28 4-43 4-17.5 0-34.3-3.1-49.8-7.4v0.1l-0.1-0.1q-0.3 0.1-0.6 0.3l-7.6 2c-14.8 3.7-30.9 5.1-47.7 5.1-17.5 0-34.3-3.1-49.8-7.4v0.1l-0.1-0.1q-0.5 0.2-1 0.3l-6.9 1.9q-6.8 1.7-13.9 2.8 5.9 4.9 12 9.6 3.4-0.9 6.8-1.8zm347-28.1c-5.7-0.8-11.3-1.8-16.8-3h-21.6l-2 0.5c-13.5 2.9-27.9 4-42.9 4-13.3 0-26.2-1.8-38.5-4.5h-21.6l-1.9 0.5c-13.5 2.9-28 4-43 4-13.3 0-26.2-1.8-38.4-4.5h-22c-14.2 3.2-29.5 4.5-45.4 4.5-13.3 0-26.2-1.8-38.4-4.5h-22c-10.4 2.3-21.4 3.7-32.8 4.2q5.4 5.2 11 10.2 0.6 0.5 1.2 1c9.7-1.1 19.1-3 28.1-5.5 16.5 4.5 34.3 7 52.9 7 18.7 0 36.5-2.5 53-7 16.4 4.5 34.2 7 52.8 7 18.5 0 36.2-2.4 52.5-6.9 16.4 4.5 34.1 6.9 52.5 6.9 18.5 0 36.2-2.4 52.5-6.9q9 2.5 18.5 4.1 6.3-5.4 12.3-11.1zm-402.7-12h422.5c28.7-26.6 81.7-118.9 90.6-179.8l2.2-17.8 6.9-100.2c1.8-33.5 3.1-67.1 4.1-100.7l2.1-197.9h-649.5c2.6 54.3 2.2 111.9 4.5 166.2 3.4 80.7 7.2 142.4 13.2 222.9 12.5 91.5 49.7 144.1 103.4 207.3zm439.7-686.9h3.2q3.2-1.4 4.5-4.7 1.4-3.3 1.4-9.2v-33.4h42.4v47.3h5.4v6q0.1 3.8-3.6 4.6h-49.3zm36.4 0v-36.6h-12.3v19.7c0 4-0.5 7.4-1.7 10.4-1.1 2.9-2.6 5.1-4.4 6.5z"/>
	<path id="Path 6" fill-rule="evenodd" class="s2" d="m501.6 169.5v-57.8h22.1c5.4 0 10 1.6 13.5 4.8 3.5 3.2 5.3 7.8 5.3 13.9q-0.1 8.9-5.4 13.7-5.4 4.9-13.5 4.9h-8.4v20.5zm25.4-39.2q0-4.3-2.2-6.4-2.3-2.1-6.4-2.1h-3.2v16.7h2.6q4.3 0 6.8-2 2.4-1.9 2.4-6.2zm-63.1-17.8h29.1v9.6h-15.7v48.2h-13.4zm-65.4 28.2q0 13.5-6.4 21.9-6.5 8.5-17.8 8.5-11.3 0-17.6-8.5-6.5-8.4-6.5-21.9 0-13.4 6.5-21.9 6.3-8.6 17.6-8.6 11.3 0 17.8 8.5 6.4 8.5 6.4 22zm-33 0q0 8.3 2.2 14.2 2.2 5.9 6.6 5.9 4.6 0 6.8-5.8 2.2-5.6 2.2-14.3 0-9.3-2.4-14.7-2.4-5.5-6.7-5.5-4 0-6.4 5.5-2.3 5.6-2.3 14.7zm-33.9 28.9l-11.6-35.8-11.3 35.8h-15l19.9-57.9h13.3l19.9 57.9zm-58.6 0v-32.2l-21.4 32.2h-14.4v-57.9h15.3v34.8l21.8-34.8h13.1v57.9zm-16.3-52.8l9.9-16.5h10l-11 16.5zm-41.5 52.7l-3.9-9.7h-16.3l-3.7 9.7h-14l19.9-57.8h13.2l20.3 57.8zm-5.5-19l-6.9-19.4-6.7 19.4z"/>
	<path id="Path 7" fill-rule="evenodd" class="s2" d="m576.2 169.5l-3.9-9.7h-16.3l-3.6 9.7h-14l19.8-57.8h13.3l20.2 57.8zm-5.5-19l-6.9-19.3-6.7 19.3zm-119.1-24.1q0 4-1.6 7-1.6 3.1-4.8 4.9 4.3 2.2 6.3 5.4 1.9 3.3 1.9 8.6 0 8.7-5.5 13-5.6 4.3-14.1 4.2h-23.3v-57.8h24.2q7.5 0 12.2 3.5 4.7 3.5 4.7 11.2zm-16.3 1.4q0-3.6-2.1-4.8-2.2-1.2-5.7-1.2h-1.7v12.3h1.7c2.5 0 4.3-0.4 5.7-1.3 1.4-0.9 2.1-2.5 2.1-5zm1.5 23.8q0-4.4-2.3-6-2.3-1.6-6.6-1.6h-2.1v15.1h2.2c2.7 0 4.8-0.6 6.4-1.7 1.6-1.1 2.4-3 2.4-5.8zm-265.7-25.2q0 4-1.6 7-1.6 3.1-4.8 4.9 4.3 2.2 6.3 5.4 1.9 3.3 1.9 8.6 0 8.7-5.4 13-5.7 4.3-14.1 4.2h-23.4v-57.8h24.2q7.5 0 12.2 3.5 4.7 3.5 4.7 11.2zm-16.3 1.4q0-3.6-2.1-4.8-2.2-1.2-5.7-1.2h-1.7v12.3h1.7c2.5 0 4.3-0.4 5.7-1.3 1.4-0.9 2.1-2.5 2.1-5zm1.5 23.8q0-4.4-2.3-6-2.3-1.6-6.6-1.6h-2.1v15.1h2.2c2.7 0 4.9-0.6 6.5-1.7 1.5-1.1 2.3-3 2.3-5.8zm-76.2 17.9h-12.3v-57.8h13.6v34.5l23.3-34.5h12.4v57.8h-13.5v-32.6z"/>
	<path id="Path 8" fill-rule="evenodd" class="s2" d="m196.5 63v-62.4h131.4v62.4h56.8v-62.4h130.5v62.4h56.8v-62.4h131.3l-6.3 213h-686.6l-10.1-213h139.3v62.4zm-73.8 17.1v-62.5h-104.5l8.5 179h653.8l5.4-179h-96.8v62.5h-90.8v-62.5h-96.5v62.5h-90.8v-62.5h-97.5v62.5zm236 188.6l16.5 36.2 39.1 4.6-29 26.6 7.9 38.9-34.5-19.5-34.5 19.5 7.8-38.9-29-26.6 39.1-4.6z"/>
	<path id="Path 9" class="s3" d="m358.6 285.3l11.8 26 28.3 3.3-21 19.3 5.7 28-24.8-14-24.9 14 5.7-28-21-19.3 28.3-3.3z"/>
	<path id="Path 10" class="s2" d="m399.6 466.9l13.4 180-50.9 15.8-48.9-15.5 10.5-181.6 38.4-27.8z"/>
	<path id="Path 11" class="s4" d="m320.2 642.4l9.4-171.8 29.1 6.6v177.1zm45.3 11.8v-177.1l27.9-5.3 13.3 169.8zm-0.4-206.5l23.5 17.6-23 4.9zm-6.6 22.4l-23.8-5.8 24.6-17.1z"/>
	<path id="Path 12" fill-rule="evenodd" class="s2" d="m177.7 332.7c-1.7 15.9 10.9 12.5 22.9 7.8 1-0.3 4.4 0.2 8.7 1.1-0.6 3.1-1.1 6.2-1.4 9.1l-19.8 1.1v3.8c0 0.7 16.5 1.1 21.2 4.5 6.2 3.6 11.8 7.9 17.6 12.2l1.1 0.8c2 1.5 4.1 2.4 6.5 2.9 2 0.1 3.5 0 5.4-0.7 1.6-0.7 2.9-1.6 4.2-2.7 4.5-3.7 9.5-6.5 14.5-9.5 1.7-1.8 3.5-3.7 5-5.7 1.3-2.1 1.9-3.9 2.2-6.4 0.1-2.1 0.1-4.1 0.1-6.2-3.1-6.3-6.4-12.9-6-20.2l0.2-1.8c1-4.9 3.4-9.1 6.3-13.2 2.3-1.6 4.5-2.2 7.3-2.1 1.5 0.2 2.8 0.6 4.2 1.1l-4.8 6.2c-1.6 1.9-1.8 4.4-0.5 5.4 1.3 1 3.6 0.2 5.2-1.8l5.4-6.9c2.4 1.6 4.5 3.4 6.6 5.4l-5.2 6.6c-1.5 1.9-1.7 4.4-0.4 5.4 1.3 1 3.6 0.2 5.1-1.7l4.7-6q1.6 1.8 3.2 3.7 1.2 1.5 2.4 3.1l-4.9 9c-1.2 2.2-0.9 4.6 0.5 5.4 1.4 0.8 3.6-0.4 4.8-2.5l3.6-6.8q1.5 1.8 3 3.6c1.4 1.6 2.6 3.1 3 5.3 0.3 2.6 0.2 5.4 0.2 8-0.6 5.5-1 11-1.1 16.5-0.6 1.8-1.3 3.1-2.7 4.4-2.6 2.1-5.5 4.1-8.4 5.6-1.7 0.8-3.4 0.8-5.2 0.9l-5.8 0.4q-0.9 5.4-1.7 10.9c-0.5 1.7-1 3.3-1.9 4.8-1 1.3-2.1 2.5-3.2 3.7q-0.3 0.2-0.5 0.4v-6.7c0-2.5-1.3-4.5-2.9-4.6-1.7 0-3 2.1-3 4.5l-0.3 12.2c-0.8 0.7-3.7 3.4-4.3 2.6-1.5-1.9-0.4-9-0.8-8.8-3.7 1.3-8.6 8.7-12.2 12.6l-5.1 7.3c3.1 1.5 6.2 2.8 9.3 4.4 3.3 1.7 6.4 3.6 9.6 5.6 2.4 1.1 4.7 2.2 7.4 2.7l1.5 0.1 1.7-0.2 1.6-0.7c1.2-0.8 2-1.5 3-2.5 0.9-1.1 1.8-2.2 2.7-3.3 5-5.6 10.1-11 15.8-15.9l1.9-1.2c3.6-1.9 6.9-2.7 10.9-2.3l2.1 0.3c3.4 1.1 5.7 2.6 7.8 5.6 1.1 1.8 1.6 3.4 2.1 5.4 0.1 0.5 0.5 4.6 0.5 4.6l-8.6-2.4c-2.4-0.7-4.7 0-5.2 1.6-0.4 1.6 1.2 3.4 3.6 4.1l10.6 3c0-0.1 0 3.4 0 3.5q-0.2 2.6-0.6 5.2l-12.1-3.4c-2.4-0.7-4.7 0-5.2 1.6-0.4 1.6 1.2 3.4 3.6 4.1l11.7 3.3c-1.4 2.4-2.9 4.8-4.6 7.2q-0.7-0.3-1.6-0.4l-12.6-1.3c-2.4-0.3-4.6 0.8-4.8 2.4-0.2 1.7 1.7 3.2 4.2 3.5l10.7 1.1q-0.2 0.3-0.4 0.5c-4.8 3.5-9.4 7-13.7 11.2-4 1.1-8.2 2.1-12.4 1.5-5.3-1.1-11.3-7.8-15.4-11-3.4 1.9-6 5.1-8.6 8.4-1 0.3-2 0.4-3.1 0.4l-3.6-0.6 1.8-3.7c1.1-2.2 0.8-4.6-0.7-5.3-1.5-0.8-3.5 0.5-4.6 2.7l-2.6 5.2-3-0.5q-3.4-0.4-6.7-0.8l-1.7-0.4 7-7c-5.3-0.8-8.1-1.1-12.6-2.9l-2.2-0.1-1.8 0.5-1.5 0.8c-1.1 0.8-1.8 1.6-2.7 2.6-1.2 1.7-2.1 3.5-2.9 5.4-1.8 1.4-3.7 2.6-5.6 3.8-6.2 3.4-12.9 5.5-19.5 7.9q-7.7 2.2-15.4 4.4l-3 2.8-5.8 0.9c-5.5 3-8.4 4.5-11 11.9l15.7 0.2c11.5 0.8 22.9 1.6 34.2 4.1 3.9 0.9 7.7 2 11.5 3.5q2.7 1.1 5.5 2.4c5.6 3 10.7 6.4 15.5 10.6 1 1.9 2 3.9 2.6 6.1 0.7 2.7 0.8 5.5 0.9 8.3q-0.4 3.3-1.1 6.6l-6.3 15.8c-2.1 3.7-4.4 7.3-5.9 11.2-0.9 2.7-1.2 5-1 7.9l0.4 2.4c1.2 4.8 3.5 9 5.9 13.4q2.4 3.9 4.9 7.9l3.3 2.1c2.5 1.4 4.4 2.2 7.3 2.2 2.5-0.3 4.7-1.2 7.1-2l1.9-0.6q3.6-2.3 7.3-4.6c4.8-3 10.1-7 16.1-6.4 5.1 0.9 9.1 4.9 12.6 8.4 0.6 0.6 1.7 1.5 2.1 2.4 0.3 1.1-0.1 2.8-0.4 3.9-0.6 2.1-1.4 4.2-2.1 6.3l-3.9-4.2c-1.8-1.8-4.1-2.3-5.3-1.2-1.2 1.2-0.8 3.6 1 5.3l5.6 6c-1.6 3.3-3.5 6.4-6 9.1l-6.8-7.1c-1.7-1.8-4.1-2.3-5.3-1.2-1.1 1.1-0.7 3.5 1 5.3l6.6 7c-2.8 2.1-5.9 3.9-9 5.7q-0.2 0.1-0.4 0.2l-6.4-6.6c-1.7-1.8-4-2.4-5.2-1.3-1.2 1.2-0.8 3.6 0.9 5.4l5.2 5.4q-1.1 0.6-2.3 1.2c-4.7 2.4-9.5 4.4-14.6 5.9-4.2 0.4-9.1 0.8-13.2-0.9-3.7-1.8-5.5-5.4-7-9.1-0.6-1.4-1.1-2.8-1.5-4.3q-1.3-4.6-2.5-9.2c-2.7 0-5.3 0-7.9 0-3.3-0.2-6.3-0.3-9-2.2q-0.7-0.7-1.5-1.3l5.8-5.1c1.8-1.7 2.5-4 1.4-5.2-1.1-1.3-3.5-0.9-5.4 0.7l-5.9 5.3q-0.1 0-0.1-0.1c-3.1-3.2-6-6.6-8.9-9.9l-0.6-0.8 0.8-0.1 11.9-1.8q-8.4-8.9-16.8-17.8c-1.9-2-4.6-4.8-4.2-7.7 0.4-2.2 2.1-4.2 3.6-5.8 1.8-1 3.1-2.2 4.4-3.9l0.9-1.7 0.6-2v-2l-0.5-1.9-0.9-1.6-1-1.3c-1.1-1.1-2.1-1.9-3.5-2.7-1.6-0.8-3.2-1.5-4.9-1.9-6.1-1.6-12.2-2.3-18.5-2.5q-3.3-0.1-6.7-0.1c-2.4 0.9-4.7 1.7-6.9 3l-1.2 0.9-1 1.3-0.9 1.4c-0.4 1.3-0.6 2.4-0.7 3.8-0.1 1.5-0.1 3-0.1 4.6-2.1 6.2-4.5 12.5-9.3 17.2-4.9 4.4-11.1 6.8-17.1 9.1-3.4 1.3-7.5 1.7-11.1 2.4-2.6 0.5-4.8 1.7-6.8 3.4-2.7 2.6-4 5.6-5.8 8.8-2 5.5-4 11-5.1 16.8-1.1 7.4 2.6 12.9 9.8 13.3 4 0.2 7.9 1 11.7 1.9 4 1 7.6 2.3 11.2 4.3 3.4 2 6.3 4.4 9.1 7.1 2.7 2.8 2.7 5.1 2.7 9 0 2.6-0.1 5.5-0.9 8-1.4 1.2-2.7 2.4-4.5 3-1.6 0.4-3.2 0.7-4.9 1q-0.3 0-0.7 0v-8.6c0-2.5-1.3-4.5-3-4.5-1.6 0-3 2-3 4.5v8.6q-5.1-0.1-10.3-0.1v-8.5c0-2.5-1.4-4.5-3-4.5-1.6 0-3 2-3 4.5v8.5q-5.2 0-10.5 0v-8.5c0-2.5-1.3-4.5-3-4.5-1.6 0-2.9 2-2.9 4.5v8.5q-8.3 0-16.7-0.1c-2.2-1.7-4.5-3.5-6.2-5.7-3.4-4.6-6.7-11.4-5.1-17.3q1.2-5.6 2.4-11.2c-2.1-1.4-4.2-2.6-6.1-4.2-0.8-0.7-0.7-0.6-0.8-1.8 0-1.7 0-3.4 0-5h7.7c2.5 0 4.5-1.4 4.5-3 0-1.6-2-3-4.5-3h-6.9c0.6-4.7 0.2-9.5 1.5-14 6 9.4 11.9 5.1 11.9-4.5 0.9-5 0.6-10.2 0.4-15.3q-0.5-9.2-0.9-18.3c-0.1-1.5-0.2-3.1 0.5-4.4 1.3-1.7 2.9-3.1 4.5-4.4 1.9-1.5 4-3.4 6.2-4.3 1.7 0.5 3.2 1.2 4.8 1.9 10.2 4.1 16.5-2.5 16.6-11.7l-1.3-30c1.3-5.8 2.3-8.2 5.5-13.3-12-1.8-18.3-0.5-26.2-10.2-8-10.2-9.2-20.6-4.3-32.5 4.8-21.2 15.8-39.7 18.7-61.8 3.8-29.9 1.1-62.4-23.6-64.2-15.5 10.7 9.3 37.7 16.8 46.2 0.2 5.4-0.4 12.5-1.3 17.7-1.1 10-6.5 27.7-12.3 36.5-1.3-3-2.8-6-4.4-8.9-2.3-4-4.8-7.9-7.5-11.7-5.9-8.2-12.6-15.8-18.1-24.3-2.7-4.3-4-8.6-5-13.5 0.2-4.1 0.5-8.1 1.1-12.2 0.7-4.6 1.9-9 3.2-13.5 5.8-14.4 20.9-33.4 42.8-21.7 4.7 4.1 7.7 9.2 10.3 14.7 3.8 8.6 4.5 13.7 5.2 23q0.3 10 0.6 20-0.3 6.6-0.6 13.2c-0.8 9.9-2 19.8-4 29.5-1.8 9.8-4.7 19.1-8.2 28.3-2.5 6.2-2.6 13-1.5 19.4 2.6 7.5 5.9 13.4 15.6 12.9 22.6-4.6 20.8-29.1 19.3-46.9-2.4-9.6-4.4-19.3-5.9-29.1-1.2-8.8-2-17.6-2.4-26.4-0.3-10.5-0.4-21.1 0.7-31.5q0.5-4.2 1.4-8.4c1-4.6 2.2-9.1 3.6-13.6 3.8-5 6.2-10.6 7.9-16.7q0.8-3 1.5-6c0.5-2.3 1.1-4.8 2.3-6.9 2.5-3.5 7.3-5.8 11.5-4.5 2.1 0.7 2.8 2 4.3 3.8q2.3 0.1 4.6 0.1c6.8 0.1 13.5-0.7 20.2-0.6 2.1 0.1 4.4 0 6.5 0.3l0.1 0.7 0.9 6.5c3.6-0.3 7.2-0.7 10.8-0.7 4 0 7.9 0.3 11.8 1 1.1 0.3 2.2 0.5 3.3 0.9-0.3 1.9-0.8 3.6-0.5 5.7 0.6 3.6 1.3 7.4 1.1 11.1-0.2 2.3-1.1 4.5-2 6.7q-0.5 2.1-1 4.2c-3.2-0.5-6.1-1.3-8.2-2.5-6.3-3.4-20.4-10.6-26.2 6.9zm150.9 86.6q0 0 0 0zm-252.1 193.7q0 0 0 0 0 0 0 0zm122-280.4c-4.1-0.8-13.3 7.9-14.8 5.7-0.3-6.3 5.6-7.7 8.5-9 11-3.4 30.4 7.4 39.4 0.8l2-2.3 0.7-1.5c0.6-1.9 0.4-3.5 0-5.6 0.2-4.7-9-9.3-0.7-8.5 5.3 1.2 8 7.5 8.9 12.3 0.6 5.1-0.5 10.6-5.3 13.6-4.4 2.3-9.4 2.4-14.1 1.3-3.2-0.7-15.4-7.2-24.6-6.8zm-35.3 162.4c-2.7 6.1-4.6 13.3-5.8 18.9-1.2 5.4-0.9 11 0.4 16.4 1.7 7 14.8 5 13.6-5.2-0.4-4.4-3.4-5.1-7-6.9-0.2-7.8 2.2-14.8 5.3-21.4 0.7-1.5-5.3-4-6.5-1.8zm-101.5-145.3l26.6 35.5 1.9-9.4c-2.3-3.1-8.6-10.6-14.1-17.8-3.5-4.6-7.1-9-7.6-12.4-0.6-3.4-1-6.7-0.7-10.1l-3.5-0.7c-2.4 3.4-4.7 8.4-2.6 14.9zm-4.6 11.3c-0.2 2.1-0.6 5.8 0.7 7.6l25.7 35.5 1.5-9.5c-3.8-5.2-19.4-23.4-23.3-31.4-0.5-1.1-0.7-2.2-0.8-2.9-0.1-1.2-3.7-0.9-3.8 0.7zm114.2-50h16.3c-0.5-3.2-4.6-11.3-7.8-11.9zm-22.3 33.1l0.3 2 0.5 1.9 0.5 1.9 0.7 1.6 0.8 1.6 0.8 1.5 1 1.3 1.1 1.2 2.3 2.1 2.5 1.6c1.8 0.9 3.5 1.6 5.3 2.2 1.8 0.5 3.6 0.9 5.4 1.2 3.7 0.6 7.6 0.9 11.2 1.8l5.2 1q1.1 0.3 2.3 0.6 2.4 0.7 4.7 1.4c2.3 0.8 4.4 1.6 6.6 2.5 2.1 1 4.1 2 6.2 3.1 1.9 1.1 3.7 2.3 5.5 3.5 1.8 1.2 3.4 2.5 5.1 3.9 1.5 1.4 3 2.8 4.5 4.3 1.3 1.4 2.6 2.9 3.9 4.5 1.1 1.6 2.2 3.1 3.2 4.8 1 1.6 1.8 3.2 2.6 4.9q0 0 0.1 0c0.7 1.6 1.3 3.3 1.9 5l1.4 5.3c4.2-6.4 5.9-6.1 2.8-13.1l-1.9-3.8c-1.1-1.9-2.2-3.7-3.4-5.5-1.4-1.8-2.7-3.5-4.2-5.2-1.5-1.7-3.1-3.3-4.8-4.8-1.7-1.6-3.5-3.1-5.3-4.5-2-1.4-4-2.7-6-4-2.2-1.3-4.3-2.4-6.5-3.5-2.4-1.1-4.7-2.1-7.1-3-2.5-0.9-5-1.6-7.5-2.4-2.6-0.6-5.2-1.1-7.8-1.6-2-0.5-4-0.8-6.1-1.1q-2.1-0.3-4.3-0.6c-2.7-0.5-5.2-1-7.8-2-1-0.4-1.9-0.8-2.8-1.4-0.8-0.6-1.6-1.2-2.3-1.9-0.7-0.8-1.3-1.6-1.9-2.6l-0.9-2.2-0.8-2.7q-0.2-1.5-0.3-3-0.1-0.9-0.1-1.9c-3.8-10.4-7-2.9-6.6 4.1zm-7.6-23.3l-5.1 4.3-0.4 3.9-0.4 7.4v6.7l0.5 5.9 0.5 2.6 0.5 2.6 0.7 2.3 0.8 2.2 0.9 2.1 1 1.9 1.1 1.7 1.2 1.6 1.4 1.5 1.4 1.3 1.5 1.2 3.2 2.1c1.7 0.8 3.4 1.5 5.2 2.2l3.7 1.1c4.5 1.1 9.1 1.8 13.7 2.5q3.9 0.8 7.8 1.8l4.9 1.6c2.4 0.8 4.7 1.7 7.1 2.6 2.2 1 4.3 2.1 6.4 3.2 1.9 1.1 3.8 2.2 5.7 3.5 1.7 1.2 3.3 2.4 4.8 3.7 1.4 1.3 2.7 2.6 4 4l2.1 2.7 1.6 2.7 1.1 2.7 0.6 2.7 2 10 5-9.1-0.2-1.9-0.4-1.9-0.5-1.9-0.7-1.8-0.9-1.8-0.9-1.8-2.3-3.4-2.8-3.2-3.2-3.1c-1.7-1.5-3.6-2.9-5.5-4.2l-4.1-2.7c-2.2-1.2-4.4-2.4-6.7-3.5-2.5-1.1-4.9-2.1-7.4-3.1-2.6-0.9-5.2-1.8-7.9-2.5-2.8-0.8-5.6-1.4-8.4-2-3.8-0.6-7.7-1.2-11.5-2-1.6-0.4-3.2-0.8-4.9-1.3-1.4-0.6-2.8-1.1-4.2-1.8l-2.4-1.5-2.1-1.9-1.8-2.2-1.6-2.7-1.3-3.4-1.1-4-0.6-4.9-0.3-5.7 0.2-6.6 0.7-7.4zm-10.7 37.5c-2 7.7-4.9 10.1 0.6 16.2 1 1.1 2.1 2.1 3.2 3.1 1.5 1.3 3.1 2.4 4.7 3.5 2.1 1.3 4.2 2.4 6.5 3.5 2.7 1.2 5.4 2.2 8.2 3q3.4 1 6.8 1.8 3.8 0.9 7.8 1.7l2.7 0.3 4.8 0.7 4.4 1.1c2.1 0.6 4 1.3 6 2.1 1.7 0.8 3.4 1.7 5.1 2.7 1.5 0.9 2.9 1.9 4.3 3.1 1.2 1.1 2.4 2.2 3.5 3.4 1 1.2 1.9 2.4 2.7 3.7 0.8 1.3 1.4 2.6 2 3.9 0.5 1.4 0.9 2.6 1.2 4 0.3 1.4 0.5 2.7 0.6 4q0 1.1-0.1 2.1 0 0.9-0.1 1.7l-1 4.1 8-6.4-1.7-10.3-1.3-3.4-1.8-3.2-2.1-3.1-2.6-3-2.9-2.7-3.3-2.5-3.7-2.3-4.1-2-4.4-1.7-4.8-1.4-5.2-1-5.2-0.6c-6.4-1.3-12.6-2.7-18.7-5q-1.8-0.7-3.5-1.6c-2.7-1.3-5.1-2.8-7.4-4.6q-1.5-1.1-2.8-2.4c-1.4-1.5-2.7-3.1-3.9-4.8zm1.7 26.3c-1.3 12.1 6.1 11.5 17.2 15.7q1.5 0.5 3.1 1c4.3 1.5 8.7 2.8 13.3 3.6q2 0.4 3.9 0.7c2.4 0.5 4.7 1.1 7 1.9 1.2 0.4 2.3 0.9 3.4 1.4 1.7 0.9 3.1 1.9 4.6 3 0.8 0.7 1.4 1.4 2.1 2.2 1.1 1.3 2 2.7 2.8 4.2 0.6 1.3 1.1 2.6 1.6 4.1 0.7 2.4 2.3 8.2 2.5 10.4l6.2-3.5-0.9-3.3c-0.5-2.4-1-4.6-1.8-6.9-0.4-1.3-0.9-2.6-1.5-3.8-0.7-1.2-1.3-2.4-2.1-3.5-0.8-1.1-1.6-2.1-2.5-3.1-1-1-2-1.9-3.1-2.8-1.1-0.8-2.3-1.6-3.5-2.3-1.3-0.7-2.6-1.4-4-1.9-2-0.8-4-1.5-6.1-2-3.6-0.8-7.1-1.3-10.6-2.1q-5-1.2-9.8-2.9c-6.8-2.4-13.3-5.4-19.7-8.7zm3 17.1c-0.9 7.8 4.9 7.8 13.4 10.5q1.1 0.4 2.3 0.7c5.8 1.7 11.6 3.3 17.2 4.9q1.3 0.5 2.6 1c4.7 2.1 8.9 6.2 9.8 10.6 0.6 3.1 0.9 5.5 0.9 8.8l5.8-4.2-0.6-3.5-0.3-1.7c-0.3-1.6-0.7-3-1.3-4.5-0.4-0.8-0.8-1.6-1.2-2.4-0.5-0.8-1-1.5-1.6-2.3-0.6-0.7-1.2-1.3-1.9-2-0.8-0.6-1.5-1.2-2.3-1.8-0.9-0.5-1.8-1-2.7-1.5-7.7-3.4-15.2-5-23.2-7.1-5-1.5-13.3-2.1-16.9-5.5zm3.5 16.7c-0.7 5.4 2 6.8 7.7 8.7q0.8 0.2 1.6 0.5c4 1.2 7.9 2 11.9 3.3q0.9 0.2 1.8 0.6c3.5 1.6 3.3 6.4 3.3 9.5l7.9-1 0.3-2-0.2-1.2c-0.2-1.1-0.5-2.1-0.9-3.1q-0.4-0.8-0.8-1.7-0.5-0.8-1.1-1.5-0.6-0.7-1.3-1.4c-0.5-0.4-1-0.8-1.5-1.2-0.6-0.4-1.2-0.7-1.9-1.1q-1-0.4-2-0.8c-1.1-0.4-2.1-0.7-3.2-0.9-1.8-0.4-3.6-0.6-5.4-0.9q-2.5-0.6-5-1.3c-3.5-1.1-6.8-2.4-10.1-3.9zm2.4 15l-0.1 10.7 16.3-0.4c-0.5-3.3-3.7-8.7-6.9-9.3zm374.7-107.5c-2.1 1.1-5 2-8.2 2.4q-0.5-2.1-1-4.1c-0.9-2.2-1.8-4.4-2-6.8-0.2-3.7 0.5-7.4 1.1-11.1 0.3-2-0.2-3.7-0.5-5.7 1.1-0.4 2.2-0.6 3.3-0.8 3.9-0.7 7.8-1 11.8-1.1 3.6 0.1 7.2 0.5 10.8 0.8l0.9-6.5 0.1-0.7c2.1-0.4 4.4-0.3 6.5-0.3 6.7-0.2 13.4 0.6 20.2 0.6q2.3-0.1 4.6-0.2c1.5-1.8 2.2-3 4.3-3.8 4.2-1.3 9 1 11.5 4.5 1.2 2.1 1.8 4.6 2.3 6.9q0.7 3.1 1.5 6.1c1.7 6 4.1 11.6 7.9 16.7 1.4 4.5 2.7 9 3.6 13.6q0.9 4.1 1.4 8.3c1.2 10.4 1 21.1 0.7 31.5-0.4 8.9-1.2 17.6-2.4 26.4-1.5 9.8-3.5 19.5-5.9 29.2-1.5 17.7-3.3 42.2 19.3 46.8 9.7 0.5 13-5.3 15.6-12.8 1.1-6.4 1-13.2-1.5-19.4-3.5-9.3-6.4-18.6-8.2-28.3-2-9.8-3.2-19.6-4-29.6q-0.3-6.6-0.6-13.2 0.3-10 0.6-20c0.7-9.2 1.4-14.3 5.2-22.9 2.6-5.6 5.6-10.7 10.3-14.7 21.9-11.8 37 7.2 42.8 21.6 1.3 4.5 2.5 9 3.2 13.6 0.6 4 0.9 8.1 1.1 12.1-1 5-2.3 9.3-5 13.5-5.5 8.5-12.2 16.1-18.1 24.4-2.7 3.8-5.2 7.6-7.5 11.7-1.6 2.9-3.1 5.8-4.4 8.9-5.8-8.9-11.2-26.6-12.3-36.6-0.9-5.2-1.5-12.2-1.3-17.6 7.5-8.6 32.3-35.6 16.8-46.3-24.7 1.8-27.4 34.3-23.6 64.2 2.9 22.2 13.9 40.6 18.7 61.8 4.9 11.9 3.7 22.4-4.3 32.5-7.9 9.7-14.2 8.5-26.2 10.3 3.2 5.1 4.2 7.5 5.5 13.3l-1.3 29.9c0.1 9.3 6.4 15.9 16.6 11.7 1.6-0.7 3.1-1.4 4.8-1.9 2.2 0.9 4.3 2.8 6.2 4.3 1.6 1.3 3.2 2.7 4.5 4.4 0.7 1.3 0.6 2.9 0.5 4.4q-0.4 9.2-0.9 18.3c-0.2 5.1-0.5 10.3 0.4 15.3 0 9.7 5.9 13.9 11.9 4.5 1.3 4.6 0.9 9.3 1.5 14.1h-6.9c-2.5 0-4.5 1.3-4.5 2.9 0 1.7 2 3 4.5 3h7.7c0 1.7 0 3.3 0 5-0.1 1.2 0 1.1-0.8 1.9-1.9 1.5-4 2.8-6.1 4.1q1.2 5.6 2.4 11.2c1.6 5.9-1.7 12.7-5.1 17.3-1.7 2.3-4 4.1-6.2 5.7q-8.3 0.1-16.7 0.1v-8.5c0-2.5-1.3-4.5-2.9-4.5-1.7 0-3 2-3 4.5v8.5q-5.3 0-10.5 0v-8.5c0-2.5-1.4-4.5-3-4.5-1.6 0-3 2-3 4.5v8.6q-5.2 0-10.3 0v-8.6c0-2.5-1.4-4.5-3-4.5-1.6 0-3 2-3 4.5v8.6q-0.4 0-0.7 0.1c-1.7-0.3-3.3-0.6-4.9-1.1-1.8-0.6-3.1-1.7-4.5-3-0.8-2.5-0.9-5.4-0.9-8 0-3.8 0-6.2 2.7-8.9 2.8-2.8 5.7-5.2 9.1-7.2 3.6-2 7.2-3.3 11.2-4.2 3.8-1 7.7-1.8 11.7-2 7.2-0.4 10.9-5.9 9.8-13.2-1.1-5.9-3.1-11.3-5.1-16.9-1.8-3.1-3.1-6.2-5.8-8.8-2-1.7-4.2-2.9-6.8-3.4-3.6-0.6-7.7-1-11.1-2.3-6-2.4-12.2-4.7-17.1-9.1-4.8-4.7-7.2-11.1-9.3-17.3 0-1.5 0-3-0.1-4.6-0.1-1.4-0.3-2.4-0.7-3.8l-0.8-1.4-1.1-1.2-1.2-0.9c-2.2-1.4-4.5-2.2-6.9-3.1q-3.4 0-6.7 0.1c-6.3 0.2-12.4 1-18.4 2.5-1.8 0.5-3.4 1.1-5 1.9-1.4 0.9-2.4 1.6-3.5 2.7l-1 1.3-0.9 1.6-0.4 1.9-0.1 2.1 0.6 1.9 0.9 1.7c1.3 1.7 2.6 2.9 4.4 4 1.5 1.5 3.2 3.5 3.7 5.7 0.3 2.9-2.4 5.8-4.3 7.7q-8.4 8.9-16.8 17.8l11.9 1.8 0.8 0.2-0.6 0.7c-2.9 3.4-5.8 6.7-8.9 9.9q0 0.1-0.1 0.2l-5.9-5.3c-1.9-1.7-4.3-2-5.4-0.8-1.1 1.2-0.4 3.6 1.4 5.2l5.8 5.1q-0.8 0.7-1.5 1.3c-2.7 2-5.7 2.1-9 2.2-2.6 0.1-5.2 0.1-7.9 0.1q-1.2 4.6-2.5 9.2c-0.4 1.4-0.9 2.9-1.5 4.3-1.5 3.6-3.3 7.3-7 9.1-4.1 1.6-9 1.2-13.2 0.9-5.1-1.5-9.9-3.6-14.6-5.9q-1.2-0.6-2.3-1.2l5.2-5.5c1.7-1.8 2.1-4.2 0.9-5.3-1.2-1.2-3.5-0.6-5.2 1.2l-6.4 6.6q-0.2-0.1-0.4-0.2c-3.1-1.8-6.2-3.6-9-5.7l6.6-6.9c1.7-1.8 2.1-4.2 1-5.3v-0.1c-1.2-1.1-3.6-0.5-5.3 1.3l-6.8 7.1c-2.5-2.8-4.3-5.9-6-9.1l5.6-6c1.8-1.8 2.2-4.2 1-5.3-1.2-1.2-3.5-0.6-5.3 1.2l-3.9 4.1c-0.7-2.1-1.5-4.2-2-6.3-0.3-1.1-0.8-2.7-0.5-3.9 0.4-0.9 1.5-1.7 2.1-2.4 3.5-3.5 7.5-7.5 12.6-8.4 6-0.6 11.3 3.4 16.1 6.4q3.7 2.3 7.3 4.6l1.9 0.6c2.4 0.8 4.6 1.7 7.1 2 2.9 0 4.8-0.7 7.3-2.1l3.3-2.1q2.5-4 4.9-8c2.4-4.3 4.7-8.6 5.9-13.4l0.4-2.4c0.3-2.8 0-5.1-1-7.8-1.5-4-3.8-7.6-5.9-11.2l-6.3-15.8q-0.7-3.4-1.1-6.7c0.1-2.8 0.2-5.6 0.9-8.3 0.6-2.1 1.6-4.1 2.6-6.1 4.8-4.2 9.9-7.6 15.5-10.5 1.9-0.9 3.7-1.7 5.5-2.5 3.8-1.4 7.6-2.6 11.5-3.5 11.3-2.5 22.7-3.2 34.2-4.1l15.7-0.1c-2.6-7.4-5.5-9-11-12l-5.8-0.9-3-2.8q-7.7-2.2-15.4-4.4c-6.6-2.3-13.3-4.4-19.5-7.9-1.9-1.1-3.8-2.3-5.6-3.7-0.8-2-1.7-3.7-2.9-5.5-0.9-1-1.6-1.8-2.7-2.6l-1.5-0.7-1.8-0.5-2.2 0.1c-4.5 1.7-7.3 2.1-12.6 2.8l7 7-1.7 0.4q-3.3 0.4-6.7 0.8l-3 0.6-2.6-5.3c-1-2.2-3.1-3.4-4.6-2.7-1.5 0.7-1.8 3.1-0.7 5.4l1.8 3.6-3.6 0.6c-1.1 0-2.1-0.1-3.1-0.4-2.6-3.3-5.2-6.4-8.6-8.4-4.1 3.2-10.1 9.9-15.4 11-4.2 0.7-8.4-0.4-12.4-1.5-4.3-4.1-8.9-7.7-13.7-11.1q-0.2-0.3-0.4-0.5l10.7-1.2c2.5-0.3 4.4-1.8 4.2-3.4-0.2-1.7-2.4-2.8-4.8-2.5l-12.6 1.4q-0.9 0-1.6 0.3-2.5-3.5-4.6-7.2l11.7-3.3c2.4-0.7 4-2.5 3.6-4.1-0.5-1.6-2.8-2.3-5.2-1.6l-12.1 3.4q-0.4-2.6-0.6-5.2c0-0.1 0-3.6 0-3.5l10.6-3c2.4-0.6 4-2.5 3.6-4.1-0.5-1.5-2.8-2.3-5.2-1.6l-8.6 2.4c0 0 0.4-4.1 0.5-4.5 0.5-2.1 1-3.7 2.1-5.5 2.1-2.9 4.4-4.5 7.8-5.5l2.1-0.4c4-0.3 7.3 0.5 10.9 2.3l1.9 1.3c5.7 4.9 10.8 10.2 15.8 15.8q1.4 1.7 2.7 3.4c1 1 1.8 1.7 3 2.5l1.6 0.6 1.7 0.3 1.5-0.1c2.7-0.6 5-1.7 7.5-2.7 3.1-2 6.2-4 9.5-5.7 3.1-1.5 6.2-2.9 9.3-4.4l-5.1-7.3c-3.6-3.9-8.5-11.3-12.2-12.6-0.4-0.1 0.7 7-0.8 8.8-0.6 0.8-3.5-1.9-4.3-2.5l-0.3-12.2c0-2.5-1.3-4.5-3-4.5-1.6 0-2.9 2-2.9 4.5v6.7q-0.2-0.2-0.5-0.4c-1.1-1.2-2.2-2.3-3.2-3.7-0.9-1.4-1.4-3.1-1.9-4.8-0.6-3.6-1.1-7.3-1.7-10.9l-5.8-0.4c-1.8-0.1-3.5 0-5.2-0.8-2.9-1.6-5.8-3.6-8.4-5.7-1.4-1.2-2.1-2.6-2.7-4.4-0.1-5.5-0.5-11-1.1-16.5 0-2.6-0.1-5.3 0.2-8 0.4-2.1 1.6-3.6 3-5.3q1.5-1.8 3-3.6l3.6 6.8c1.2 2.2 3.4 3.3 4.8 2.5 1.4-0.7 1.7-3.2 0.5-5.3l-4.9-9.1q1.2-1.5 2.4-3.1 1.6-1.8 3.3-3.7l4.6 6c1.5 1.9 3.8 2.7 5.1 1.7 1.3-1 1.1-3.4-0.4-5.4l-5.2-6.6c2.1-2 4.2-3.8 6.6-5.4l5.4 7c1.6 1.9 3.9 2.7 5.2 1.7 1.3-1 1.1-3.4-0.5-5.4l-4.8-6.2c1.4-0.5 2.7-0.9 4.2-1 2.8-0.1 5 0.5 7.3 2.1 2.9 4 5.3 8.3 6.3 13.2l0.2 1.8c0.4 7.2-2.9 13.8-6 20.2 0 2 0 4.1 0.1 6.1 0.3 2.5 0.9 4.3 2.2 6.5 1.5 2 3.3 3.8 5 5.6 5 3 10 5.8 14.5 9.5 1.3 1.1 2.6 2 4.2 2.7 1.9 0.7 3.4 0.9 5.4 0.7 2.4-0.5 4.5-1.3 6.5-2.9l1.1-0.8c5.8-4.2 11.4-8.6 17.6-12.2 4.7-3.3 21.2-3.8 21.2-4.4v-3.9l-19.8-1c-0.3-3-0.8-6-1.4-9.1 4.3-1 7.7-1.5 8.7-1.1 12 4.6 24.6 8.1 22.9-7.9-5.8-17.5-19.9-10.3-26.2-6.8zm-124.7 93.4q0 0 0 0zm212.4 229q0 0 0 0 0 0 0 0zm39.7-35.3q0 0 0 0 0 0 0 0zm-146.6-273.5c-4.7 1.1-9.7 0.9-14.1-1.4-4.8-2.9-5.9-8.4-5.3-13.5 0.9-4.9 3.6-11.1 8.9-12.4l3.5-0.3c0.3 2.4-4.3 6-4.2 8.9-0.4 2-0.6 3.6 0 5.5l0.7 1.5 2 2.4c9 6.5 28.4-4.3 39.4-0.9 2.9 1.3 8.8 2.7 8.5 9.1-1.4 2.1-10.7-6.6-14.8-5.7-9.2-0.4-21.4 6-24.6 6.8zm53.4 157.4c3.1 6.6 5.5 13.5 5.3 21.4-3.6 1.8-6.6 2.5-7 6.8-1.2 10.2 11.9 12.2 13.6 5.2 1.3-5.4 1.6-11 0.4-16.4-1.2-5.5-3.1-12.7-5.8-18.8-1.2-2.3-7.2 0.3-6.5 1.8zm105.4-162.1l-3.5 0.7c0.3 3.4-0.1 6.7-0.7 10.1-0.5 3.4-4.1 7.8-7.6 12.5-5.5 7.2-11.8 14.7-14 17.8l1.8 9.4 26.6-35.6c2.1-6.5-0.2-11.4-2.6-14.9zm3.4 25.5c-0.1 0.7-0.3 1.9-0.8 3-3.9 8-19.6 26.2-23.3 31.3l1.5 9.5 25.7-35.5c1.3-1.8 1-5.4 0.7-7.6-0.1-1.6-3.7-1.9-3.8-0.7zm-118.9-61.2c-3.2 0.6-7.3 8.7-7.8 12h16.3zm24.2 40.9q-0.1 1-0.1 2-0.2 1.4-0.4 2.9l-0.7 2.8-1 2.2c-0.5 0.9-1.1 1.7-1.8 2.6-0.8 0.7-1.5 1.3-2.4 1.9-0.9 0.5-1.8 1-2.8 1.4-2.5 1-5.1 1.5-7.8 1.9q-2.1 0.4-4.3 0.6c-2 0.3-4 0.7-6 1.1-2.6 0.5-5.2 1.1-7.8 1.7-2.6 0.7-5.1 1.5-7.6 2.4-2.4 0.9-4.7 1.8-7 2.9-2.2 1.1-4.4 2.3-6.5 3.5-2.1 1.3-4 2.6-6 4.1-1.9 1.4-3.6 2.9-5.4 4.4-1.7 1.6-3.2 3.2-4.8 4.9-1.4 1.7-2.8 3.4-4.1 5.2-1.2 1.8-2.4 3.6-3.5 5.5l-1.9 3.7c-3.1 7.1-1.3 6.8 2.9 13.2l1.4-5.3c0.6-1.8 1.2-3.4 1.9-5q0 0 0-0.1c0.8-1.7 1.7-3.3 2.6-4.9 1.1-1.6 2.1-3.2 3.3-4.8 1.3-1.5 2.5-3 3.9-4.5 1.4-1.5 2.9-2.9 4.5-4.2 1.6-1.4 3.3-2.7 5-4 1.9-1.2 3.7-2.3 5.6-3.5 2-1 4-2 6.1-3 2.2-0.9 4.4-1.8 6.6-2.5q2.4-0.8 4.8-1.4 1.1-0.3 2.3-0.6l5.1-1c3.7-0.9 7.5-1.2 11.3-1.8 1.8-0.4 3.5-0.8 5.3-1.3 1.9-0.6 3.6-1.3 5.3-2.2l2.6-1.6 2.3-2 1.1-1.2 0.9-1.4 0.9-1.4 0.8-1.6 0.6-1.7 0.6-1.8 0.4-1.9 0.3-2.1c0.4-6.9-2.8-14.5-6.5-4.1zm12.5-14.1l0.6 7.4 0.2 6.6-0.2 5.7-0.7 4.8-1 4.1-1.3 3.3-1.6 2.8-1.9 2.2-2.1 1.8-2.4 1.5c-1.4 0.7-2.7 1.3-4.2 1.8-1.6 0.6-3.2 1-4.9 1.4-3.8 0.8-7.6 1.4-11.5 2-2.8 0.6-5.5 1.2-8.3 1.9-2.7 0.8-5.3 1.6-7.9 2.6-2.5 0.9-5 1.9-7.4 3-2.3 1.2-4.5 2.3-6.8 3.6l-4.1 2.6c-1.9 1.4-3.7 2.8-5.5 4.3l-3.2 3.1-2.7 3.2-2.3 3.4-1 1.8-0.8 1.8-0.7 1.8-0.5 1.9-0.4 1.9-0.2 1.9 5 9 1.9-9.9 0.7-2.7 1.1-2.7 1.6-2.7 2.1-2.7c1.2-1.4 2.5-2.7 3.9-4 1.6-1.3 3.2-2.6 4.9-3.8 1.8-1.2 3.7-2.4 5.7-3.5q3.1-1.6 6.4-3.1c2.3-1 4.6-1.9 7-2.7l5-1.5c2.6-0.7 5.1-1.3 7.7-1.8 4.6-0.7 9.2-1.4 13.7-2.5l3.7-1.1c1.8-0.7 3.5-1.4 5.2-2.3l3.3-2 1.5-1.2 1.4-1.3 1.3-1.5 1.3-1.6 1.1-1.8 1-1.9 0.9-2 0.8-2.2 0.7-2.4 0.5-2.5 0.4-2.7 0.6-5.9v-6.6l-0.5-7.5-0.4-3.9-5.1-4.2zm9.8 40.1c-1.2 1.7-2.4 3.2-3.9 4.7q-1.3 1.3-2.8 2.5c-2.3 1.8-4.7 3.3-7.4 4.6q-1.7 0.8-3.5 1.6c-6.1 2.3-12.3 3.7-18.6 4.9l-5.3 0.6-5.2 1.1-4.8 1.3-4.4 1.7-4 2-3.7 2.3-3.3 2.5-3 2.8-2.5 2.9-2.2 3.1-1.8 3.3-1.3 3.3-1.7 10.4 8.1 6.3-1-4q-0.2-0.9-0.2-1.7 0-1 0-2.1c0.1-1.4 0.2-2.7 0.5-4 0.3-1.4 0.7-2.7 1.2-4 0.6-1.4 1.3-2.6 2-3.9 0.9-1.3 1.7-2.5 2.7-3.7 1.2-1.2 2.3-2.4 3.5-3.5 1.4-1.1 2.8-2.1 4.3-3.1 1.7-0.9 3.4-1.8 5.1-2.6 2-0.8 3.9-1.5 6-2.2l4.4-1 4.8-0.8 2.7-0.2q4-0.8 7.9-1.7 3.4-0.8 6.7-1.8c2.8-0.9 5.6-1.9 8.3-3.1 2.2-1 4.3-2.1 6.4-3.4 1.7-1.1 3.2-2.3 4.7-3.5 1.2-1 2.2-2 3.3-3.1 5.4-6.2 2.6-8.5 0.5-16.2zm-1.2 20c-6.5 3.3-12.9 6.3-19.7 8.7-3.3 1.1-6.5 2.1-9.8 2.9-3.5 0.8-7.1 1.3-10.6 2.1-2.1 0.5-4.1 1.2-6.1 1.9-1.4 0.6-2.7 1.3-4 2-1.3 0.7-2.4 1.5-3.6 2.3-1 0.9-2 1.8-3 2.8-0.9 1-1.7 2-2.5 3.1-0.8 1.1-1.5 2.3-2.1 3.5-0.6 1.2-1.1 2.5-1.6 3.7-0.7 2.3-1.3 4.6-1.7 7l-1 3.3 6.3 3.5c0.2-2.2 1.8-8 2.5-10.5 0.4-1.4 0.9-2.7 1.6-4 0.8-1.6 1.7-2.9 2.7-4.2 0.7-0.8 1.4-1.5 2.2-2.2 1.4-1.2 2.9-2.1 4.5-3q1.7-0.8 3.4-1.4c2.4-0.8 4.6-1.4 7-1.9q2-0.3 4-0.7c4.6-0.9 9-2.1 13.3-3.6q1.5-0.5 3-1c11.1-4.3 18.5-3.6 17.3-15.7zm-17.7 21.1c-8.1 2.1-15.5 3.7-23.2 7.2-0.9 0.4-1.8 0.9-2.7 1.5-0.8 0.5-1.6 1.1-2.3 1.7-0.7 0.7-1.3 1.3-1.9 2.1-0.6 0.7-1.1 1.4-1.6 2.2-0.4 0.8-0.8 1.6-1.2 2.4-0.6 1.5-1 2.9-1.3 4.5l-0.3 1.7-0.7 3.5 5.9 4.2c0-3.3 0.3-5.7 0.9-8.7 0.9-4.5 5.1-8.6 9.8-10.7q1.2-0.5 2.6-0.9c5.5-1.6 11.4-3.3 17.2-5q1.2-0.3 2.3-0.7c8.5-2.7 14.3-2.7 13.3-10.5-3.5 3.4-11.8 4-16.8 5.5zm12.3 11.8c-3.3 1.5-6.6 2.8-10.1 3.9q-2.5 0.8-5 1.3c-1.8 0.3-3.7 0.6-5.5 0.9q-1.6 0.4-3.1 0.9-1.1 0.4-2.1 0.9c-0.6 0.3-1.2 0.6-1.8 1-0.5 0.4-1 0.8-1.5 1.2q-0.7 0.7-1.4 1.4-0.5 0.8-1 1.6-0.5 0.8-0.8 1.7c-0.4 1-0.7 2-0.9 3l-0.2 1.3 0.3 2 7.9 1c0-3.2-0.2-8 3.3-9.6q0.9-0.3 1.8-0.6c4-1.3 7.9-2.1 11.9-3.3q0.8-0.2 1.5-0.5c5.7-1.8 8.4-3.3 7.8-8.7zm-10.6 15.3c-3.2 0.7-6.4 6.1-6.9 9.3l16.3 0.4-0.1-10.7z"/>
	<path id="Path 13" class="s5" d="m542.4 869q-9.5-1.6-18.5-4.1c-16.3 4.5-34 6.9-52.5 6.9-18.4 0-36.1-2.4-52.4-6.9-16.4 4.5-34.1 6.9-52.5 6.9-18.6 0-36.5-2.5-52.9-7-16.5 4.5-34.3 7-52.9 7-18.7 0-36.5-2.5-52.9-7-9.1 2.5-18.5 4.3-28.2 5.5q-0.6-0.5-1.2-1.1-5.6-4.9-11-10.1c11.4-0.6 22.4-1.9 32.8-4.3h22c12.2 2.8 25.1 4.5 38.5 4.5 15.9 0 31.1-1.2 45.4-4.5h21.9c12.2 2.8 25.1 4.5 38.5 4.5 14.9 0 29.4-1.1 42.9-3.9l2-0.6h21.6c12.2 2.8 25.1 4.5 38.4 4.5 15 0 29.4-1.1 42.9-3.9l2-0.6h21.6c5.5 1.3 11.1 2.3 16.8 3q-6 5.7-12.3 11.2zm-175.9 98.2c-5 0-52.2-13.2-72-22.6q7.1-1.1 13.8-2.8l7.6-2q0.3-0.1 0.6-0.3l0.1 0.1v-0.1c15.5 4.3 32.3 7.4 49.9 7.4 14.9 0 29.4-1.1 42.9-4l12.2-3.4q0.2 0.1 0.4 0.2 0.2-0.1 0.3-0.2l8.6 2.4q1.7 0.4 3.5 0.8c-18.5 9.5-62.1 24.6-67.9 24.5zm-90.5-31.8q-9-4.8-18-9.8-1.9-1.1-3.8-2.2 3.2 0.1 6.5 0.1c16.7 0 32.8-1.4 47.6-5l7.6-2.1q0.3-0.1 0.6-0.2h0.1c15.5 4.2 32.3 7.3 49.9 7.3 14.9 0 29.4-1.1 42.9-4l12.2-3.3q0.2 0 0.4 0.1 0.2-0.1 0.3-0.1l8.6 2.3c11.9 2.8 24.4 4.7 37.3 5q-8.4 5.1-17 10.1l-2.1 1.1c-10.5-1.1-20.5-3-30.1-5.7-16.4 4.5-34.1 7-52.5 7-18.6 0-36.5-2.5-52.9-7.1-11.9 3.3-24.5 5.5-37.6 6.5zm-38.1-21.9q-1-0.6-2.1-1.3l-14.9-9.8q-5.2-3.7-10.3-7.4 0.1 0 0.1 0h0.1c15.5 4.2 32.3 7.3 49.9 7.3 16.7 0 32.8-1.4 47.6-5.1l7.6-2q0.3-0.1 0.6-0.2h0.1c15.5 4.2 32.3 7.3 49.9 7.3 14.9 0 29.4-1.1 42.9-4l12.2-3.3q0.2 0 0.4 0.1 0.2-0.1 0.3-0.1l8.6 2.3c12.8 3 26.4 5 40.5 5 10.9 0 21.4-0.6 31.5-2q-4.7 3.4-9.4 6.7-5.6 3.8-11.2 7.5-5.4 0.3-10.9 0.3c-18.4 0-36.1-2.5-52.4-7-16.4 4.5-34.1 7-52.5 7-18.6 0-36.5-2.5-52.9-7.1-16.5 4.6-34.3 7.1-52.9 7.1q-11.7 0-22.8-1.3zm-37-25.8q-6.1-4.6-12-9.5 7.1-1.1 13.9-2.8l6.9-1.9q0.5-0.1 1-0.3h0.1c15.5 4.3 32.3 7.3 49.9 7.3 16.7 0 32.8-1.3 47.6-5l7.6-2.1q0.3-0.1 0.6-0.2h0.1c15.5 4.3 32.3 7.3 49.9 7.3 14.9 0 29.4-1.1 42.9-3.9l12.2-3.4q0.2 0.1 0.4 0.1 0.2 0 0.3-0.1l8.6 2.4c12.8 3 26.4 4.9 40.5 4.9 15 0 29.4-1.1 42.9-3.9l12.2-3.4q0.3 0.1 0.5 0.1 0.1 0 0.3-0.1l7.7 2.1q-7 5.9-14.3 11.6c-15.4 4-32 6.1-49.3 6.1-18.4 0-36.1-2.4-52.4-6.9-16.4 4.5-34.1 6.9-52.5 6.9-18.6 0-36.5-2.5-52.9-7-16.5 4.5-34.3 7-52.9 7-18.7 0-36.5-2.5-52.9-7q-3.4 0.9-6.9 1.7z"/>
</svg>