<svg version="1.2" xmlns="http://www.w3.org/2000/svg" viewBox="0 0 397 543" width="397" height="543">
	<title>Pernik-pdf</title>
	<style>
		.s0 { fill: #f8d50f } 
		.s1 { fill: #0b0c0b } 
		.s2 { fill: #ffffff } 
		.s3 { fill: #ed1c2a } 
	</style>
	<path id="Path 1" class="s0" d="m394.9 344.8l-0.3 10-0.7 9.9-1.3 10-1.6 9.7-2.4 9.6-2.6 9.3-3 9-3.4 9-3.9 8.6-4.4 8.7-4.6 8-5.3 7.9-5.4 7.7-6 7.6-5.9 7-6.7 7-14 12.6-7.3 5.7-7.6 5.6-8 5-8.3 5-8.7 4.3-8.6 3.7-9 3.7-9 3-9.3 2.6-9.6 2.3-9.7 1.7-9.6 1.3-10 0.7-10.3 0.3-10-0.3-9.9-0.7-10-1.3-9.7-1.7-9.6-2.3-9.3-2.6-9-3-9-3.7-8.6-3.7-8.7-4.3-7.9-5-8-5-7.7-5.6-7.6-5.7-7-6.3-7-6.3-6.3-7-6.3-7-5.7-7.6-5.6-7.7-5-7.9-4.7-8-4.3-8.7-4-8.6-3.6-9-3-9-2.7-9.3-2.3-9.6-1.7-9.7-1.3-10-0.7-9.9-0.3-10 0.3-6h-0.3v-337.2h393z"/>
	<path id="Path 2" fill-rule="evenodd" class="s1" d="m396.6 0v355.1l-1 10-1.3 10-1.7 9.6-2 9.7-3 9.3-3 9.3-3.6 8.9-4 8.7-4.3 8.6-4.7 8.4-5.3 7.9-5.3 7.7-6 7.6-6.3 7.3-6.4 6.7-6.9 6.6-7.4 6.4-7.3 5.9-8 5.4-7.9 5.3-8.3 4.6-8.7 4.4-8.6 4-9 3.6-9.3 3-9.3 2.7-9.7 2.3-9.6 1.7-10 1.3-10 0.7-10.3 0.3-10-0.3-10.3-0.7-9.9-1.3-9.7-1.7-9.6-2.3-9.3-2.7-9.4-3-8.9-3.6-8.7-4-8.6-4.4-8.3-4.6-8-5.3-7.7-5.4-7.6-5.9-7.3-6.4-13.3-13.3-6.3-7.3-5.7-7.6-5.7-7.7-5.3-7.9-4.6-8.4-4.4-8.6-3.9-8.7-3.7-8.9-3-9.3-2.7-9.3-2.3-9.7-1.6-9.6-1.4-10-0.6-10-0.4-10.3v-344.8zm-392.7 3.6v351.2l1 10 1 9.6 1.7 9.6 2.3 9.4 2.6 9.3 3 8.9 3.7 9 3.7 8.7 4.3 8.3 4.6 8 5.4 7.9 5.3 7.7 5.6 7.3 6.3 7.3 6.4 6.7 7 6.3 6.9 6.3 7.3 5.7 7.7 5.3 8 5.3 8 4.7 8.3 4.3 8.6 3.6 9 3.7 9 3 9.3 2.6 9.3 2.4 9.6 1.6 9.7 1.4 10 0.6 9.9 0.4 10-0.4 10-0.6 9.6-1.4 9.7-1.6 9.3-2.4 9.3-2.6 9-3 9-3.7 8.6-3.6 8.3-4.3 8.3-4.7 15.3-10.6 7.3-5.7 7.4-6.3 6.6-6.3 6.3-6.7 6.3-7.3 5.7-7.3 5.6-7.7 5-7.9 4.7-8 4.3-8.3 4-8.7 3.3-9 3-8.9 2.7-9.3 2.3-9.4 1.7-9.6 1.3-9.6 0.7-10 0.3-10-0.3-4v-0.7l0.3-1.3v-335.2zm369.1 79.8l-17.9 263.4-51.3 0.3-10.9-201.5-94.5-1.6-94.4 1.6-11 201.5-50.9-0.3-17.9-263.4h58.8v40.3h12v-103.1h61.2v45.9h12v-45.9h60.8v45.9h12v-45.9h60.9v103.1h11.9v-40.3zm-73.1 257.7v5.4l-0.7 5.3-0.7 5-1 5.3-1 5-1.3 5-1.6 4.6-2 5-2 4.7-4.7 9.3-2.7 4.3-3 4.3-2.9 4.3-3 4-3.4 4-3.6 3.7-3.7 3.3-3.6 3.3-4 3.4-4.3 3-4 2.6-4.4 2.7-4.6 2.3-4.7 2-4.6 1.7-4.7 1.6-5 1.4-5 1-4.9 0.6-5 0.7h-10.3l-5.4-0.7-5-0.6-4.9-1-5-1.4-4.7-1.6-4.6-1.7-4.7-2-4.3-2.3-8.7-5.3-4-3-7.9-6.7-3.7-3.3-3.3-3.7-3.3-4-3.4-4-3-4.3-3-4.3-2.6-4.3-4.7-9.3-2-4.7-1.6-5-1.7-4.6-1.7-5-1-5-1-5.3-0.6-5-0.3-5.3-0.4-5.4z"/>
	<path id="Path 3" class="s2" d="m260.9 382.4l3-1.7 2.7-1.6 3.3-1.7 3.7-1 4-0.7 4.3-0.3v13.6h-3l-3 0.7-2.3 0.7-2.4 1-2.3 1.3-2 1.3-4 3-4.6 3.7-2.4 1.6-2.6 1.7-3 1-3 1-3.7 0.6-3.6 0.4h-3.7l-3-0.7-3-1-2.6-1-2.7-1.3-2-1.3-4.3-2.7-4-3-2.3-1.3-2.3-1-2.4-1-3-0.7-3.3-0.3-3.6-0.3-4 0.3-3.4 0.3-2.6 0.7-2.7 1-2.3 1-2.3 1.3-4 3-4 2.7-4.7 2.6-2.6 1-3 1-3.4 0.7h-3.6l-3.7-0.4-3.6-0.6-3-1-3-1-2.7-1.7-2.3-1.6-4.7-3.7-3.9-3-2-1.3-2.4-1.3-2.3-1-2.3-0.7-2.7-0.7h-3.3v-13.6l4.6 0.3 4 0.7 3.4 1 3.3 1.7 3 1.6 2.6 1.7 5 3.6 3.7 3 3.6 2.4 2 1 2 0.6 4.7 0.7 4.6-0.7 1.7-0.3 2-0.7 3.3-2 3.3-2.3 4.7-3.7 3-1.3 3-1.7 3.3-1.3 4-1 4.7-0.6h9.9l4.4 0.6 4 1 3.3 1.3 3.3 1.7 2.7 1.3 4.6 3.7 3.7 2.3 3.3 2 1.7 0.7 2 0.3 2 0.4 2.3 0.3 4.6-0.7 2.4-0.6 1.6-1 4-2.4 3.7-3z"/>
	<path id="Path 4" class="s3" d="m52.4 237.1l0.4-7.4 0.3-7.6 1-7.3 1.3-7 1.7-7.3 2-6.7 2.3-6.9 2.3-6.7 3-6.3 3.4-6.3 7.3-12 4-6 4.3-5.3 4.6-5.3 10-10 5.3-4.7 5.4-4.3 5.9-4 5.7-3.6 6.3-3.7 6.3-3.3 6.4-2.7 6.6-2.6 7-2.4 6.6-2 7.4-1.6 6.9-1.4 7.4-1 7.6-0.3 7.3-0.3 7.7 0.3 7.3 0.3 7.3 1 7.3 1.4 7 1.6 7 2 6.6 2.4 6.7 2.6 6.6 2.7 6 3.3 6.3 3.7 6 3.6 5.7 4 5.6 4.3 5 4.7 5.3 5 4.7 5 4.6 5.3 4.4 5.3 4 6 3.9 6 3.4 6 3.3 6.3 3 6.3 2.7 6.7 2.3 6.9 2 6.7 1.3 7.3 1.3 7 1 7.3 0.7 7.6v117.4h-56.9v-107.4h-0.3l0.3-2.6-0.3-4.7-0.3-4.3-0.7-4.7-0.7-4.3-1-4.3-1-4.3-1.6-4-1.3-4-2-4-2-4-2-3.7-2.4-3.6-2.6-3.3-2.7-3.4-2.6-3.3-6-6-3.4-3-3.3-2.3-3.3-2.7-3.7-2.3-3.6-2-4-2-4-2-4-1.3-4-1.7-4.3-1-4.3-1-4.4-1-4.3-0.3-4.6-0.3-4.7-0.4-4.6 0.4-4.4 0.3-4.6 0.3-8.7 2-4 1-4.3 1.7-4 1.3-4 2-3.6 2-3.7 2-3.6 2.3-3.7 2.7-3.3 2.3-3.3 3-6 6-2.7 3.3-2.6 3.4-2.7 3.3-2 3.6-2.3 3.7-2 4-1.7 4-1.6 4-1.4 4-1.3 4.3-1 4.3-0.7 4.3-0.6 4.7-0.4 4.3v114.7h-57.2z"/>
	<path id="Path 5" fill-rule="evenodd" class="s1" d="m50.1 229.4l0.3-7.3 1-7.7 1.4-7.3 1.6-7 2-7.3 2.3-6.6 2.7-7 3-6.3 3.3-6.7 3.7-6 4-6.3 4-5.6 4.3-5.7 4.6-5.3 5-5.3 5.4-5 5.3-4.7 5.6-4.3 5.7-4 6.3-4 6-3.6 6.6-3.4 6.4-2.9 6.9-2.7 6.7-2.3 7.3-2 7-1.7 7.3-1.3 7.7-0.7 7.3-0.7 7.6-0.3 7.7 0.3 7.6 0.7 7.3 0.7 7.3 1.3 7.4 1.7 6.9 2 7 2.3 6.7 2.7 6.6 2.9 6.3 3.4 6.4 3.6 5.9 4 5.7 4 5.7 4.3 5.6 4.7 5 5 5 5.3 4.6 5.3 4.4 5.7 4.3 5.6 3.6 6.3 3.7 6 3.3 6.7 3 6.3 2.7 7 2.3 6.6 2 7.3 1.7 7 1.3 7.3 1 7.7 0.7 7.3v120.4h-62.2l-0.4-110.1 0.4-2.6-0.4-4.4-0.3-4.6-0.3-4.3-1-4-1-4.4-1-3.9-1.3-4-3.4-8-2-3.7-2-3.6-2.3-3.4-5-6.6-5.3-6.3-6.3-5.3-6.7-5-3.3-2.4-7.3-4-4-1.6-4-1.7-4-1.3-4-1-4.3-1-4-1-4.3-0.3-4.3-0.4-4.7-0.3-4.3 0.3-4.3 0.4-4.4 0.3-4.3 1-4.3 1-4 1-4 1.3-4 1.7-3.6 1.6-7.3 4-3.7 2.4-6.7 5-5.9 5.3-5.7 6.3-5 6.6-2.3 3.4-2 3.6-2 3.7-1.7 4-1.6 4-1.4 4-0.9 3.9-1 4.4-0.7 4-0.7 4.3-0.3 4.6v117.1h-62.5v-112.7zm5 115h51.8v-112l0.4-4.7 0.6-4.7 1-4.6 1-4.3 1-4.4 1.7-4.3 1.7-4 1.6-4 2-4 2.3-3.9 2.4-3.7 2.6-3.7 2.7-3.3 3-3.3 3-3.3 3-3 3.3-2.7 3.6-3 3.4-2.3 4-2.3 3.6-2.4 8-4 4.3-1.6 4-1.4 4.3-1.3 4.7-1 4.3-0.6 4.7-0.7 4.6-0.3h9.3l4.7 0.3 9.3 1.3 4.3 1 4.4 1.3 4.3 1.4 4 1.6 7.9 4 4 2.4 7.3 4.6 3.4 3 3.3 2.7 3.3 3 3 3.3 2.7 3.3 3 3.3 4.6 7.4 2.4 3.9 1.9 4 2 4 1.7 4 1.3 4.3 1.4 4.4 1 4.3 1.3 9.3 0.3 4.7v112h51.9v-114.7l-0.7-7.3-0.6-7-1.4-7.3-1.6-6.7-2-7-4.7-13.3-3-6.3-6.6-11.9-3.7-6-4-5.7-4.3-5.3-4.6-5.3-4.7-5-5-4.7-5.3-4.3-5.3-4.3-5.7-4-5.6-4-6-3.3-12.7-6-6.6-2.7-6.7-2.3-6.6-1.7-7-1.6-7-1.4-7.3-0.9-7.3-0.7h-14.6l-7.3 0.7-7 0.9-7.4 1.4-6.6 1.6-7 1.7-6.6 2.3-6.7 2.7-6.3 3-6 3-6 3.3-6 4-5.6 4-5.3 4.3-5.4 4.3-4.9 4.7-4.7 5-4.7 5.3-3.9 5.3-4 5.7-4 6-3.3 5.9-3.4 6-2.6 6.3-2.7 6.7-2.3 6.6-2 7-1.4 6.7-1.3 7.3-1 7-0.6 7.3z"/>
	<path id="Path 6" class="s3" d="m158.5 83.4h84.1l-10.9 70.9h-61.2z"/>
	<path id="Path 7" fill-rule="evenodd" class="s1" d="m245.6 80.8l-11.6 76.1h-65.5l-13-76.1zm-83.8 5l11 65.8h56.5l10.3-65.8zm55.6 28.2l-11 11 14.6 14.6-5 5-14.6-14.6-14.3 14.3-5-5 14.7-14.3-10.7-10.6-8.6 8.6-3.4-13.3h0.4l15.6-15.6 8.3 8-7.3 7.6 10.3 10.3 11-10.6-7.3-7.7 7.9-8 16 15.7h0.3l-3.3 13.3z"/>
	<path id="Path 8" class="s3" d="m140.6 200.8h137.3l-0.7 0.3-1 0.7-0.6 1-1 1.7-1 2.6-1 4-0.7 5-3 26.6-4 43.9-5.3 59.5v2.7l-0.3 2-1 1.6-1.4 1.7-1 0.7-1.3 0.3-1.3 0.7-1.7 0.3h-6.6l-12.7 0.3h-33.9l-46.5-0.3h-2l-2 0.3-2-0.3-2.4-1-0.9-0.7-1-1-1-1.3-0.7-1.6-0.3-1.7-0.4-2.3-6.6-95.5-0.4-4.3-0.6-4.3-1-5.7-1.7-5.6-1.3-2.7-1.3-3-2-2.3-1.7-2.3-2.3-2-2.7-1.7v-0.3l0.7-0.7 2.6-2 7.7-5.3z"/>
	<path id="Path 9" fill-rule="evenodd" class="s1" d="m281.9 200.1l-3.3 3.4-0.7 0.3-1 2-1.3 3.7-0.7 3-0.7 3.9-2.6 26.3-4 43.6-5.3 59.5v3l-0.7 3-0.7 1.3-1 1.3-1.6 1.7-1.7 1.3-2.3 0.7-2.3 0.3-6.7 0.4-12 0.3h-32.9l-48.5-0.7-1.4 0.4-2.6 0.3-1.7-0.3-1.3-0.4-1.7-0.6-1.6-1-2-1.7-1.4-2.3-1-3-0.6-3-6.3-95.8-0.4-4-0.6-4.3-1-5-2-5.3-1-2.7-1.4-2.6-1.3-2.3-2-2.4-2-1.6-2-1.7-1.6-0.7-1.7-0.3-2-0.3h-0.3v-0.4l1-1.3 2.6-2 9.3-5.6 15.3-9.7 0.7-0.3h138zm-140.3 3.3l-11.7 7.7-8.3 5.6 2.3 2 2 2.3 1.7 2.4 1.7 2.6 1.3 2.7 1 3 1.7 5.3 0.9 5 0.7 4.3 0.3 4.3 6.7 95.5 0.3 2.3 0.4 1.7 1 1.3 1 1 1 0.7 0.9 0.3 2.4 0.3 1.6-0.3h1.4l46.9 0.3h45.8l6.7-0.3 2-0.3 1.3-0.7 1.7-1.7 0.3-1 0.4-1.3 0.3-1.7v-1l5.3-61.2 4-42.8 2.7-26 0.6-4.3 0.7-3 1-2.7 0.6-2.3z"/>
	<path id="Path 10" class="s3" d="m229 253.4l2 4.3 1 4.6 0.3 5-0.3 3-0.3 3.3-0.7 3-1.3 3-1.4 2.7-1.3 2.6-2 2.4-2 2.3-2.3 2-2.3 1.7-2.7 1.6-2.7 1.3-2.9 1-6 1.4h-6.7l-6-1.4-3-1-2.6-1.3-2.7-1.6-2.3-1.7-2.3-2-2-2.3-1.7-2.4-1.7-2.6-1.3-2.7-1-3-1-3-0.3-3.3-0.3-3 0.3-4.3 1-4.3 1.3-4 2-3.7 2.3-3.3 2.7-3 3-2.7 3.6-2.3-13.6-73.1h56.5l-11.9 73.5-0.4 0.3-0.6 0.7-22 20.6 9.3 11.6 24-23.9z"/>
	<path id="Path 11" fill-rule="evenodd" class="s1" d="m231.3 163.9l-12.3 75.8v1l-0.6 0.7-1 1.3-20.3 19.3 6 7.6 24.2-24.2 1.7 2.6 2.7 4.4 1.6 4.6 1.4 5 0.3 5.3-0.3 3.3-0.4 3.4-1 3.3-1 3.3-1.6 2.7-1.7 3-2 2.6-2 2.4-2.6 2.3-2.7 2-2.7 1.6-5.9 2.7-3.4 0.7-3.3 0.6h-7l-3.6-0.6-3-0.7-3.4-1.3-2.9-1.4-2.7-1.6-2.7-2-4.6-4.7-2-2.6-1.7-3-1.3-2.7-1.3-3.3-0.7-3.3-0.7-3.4v-7.6l1-4.3 1.4-4 1.6-4 2.3-3.3 2.7-3.4 3.3-2.9 3.4-2.4-13.7-74.8zm-56.2 5.3l13.3 71.9-1.6 0.9-3.4 2-3 2.7-2.3 2.7-2.3 3.3-1.7 3.3-1.3 3.7-0.7 3.6-0.3 4 0.3 3 0.4 2.7 0.6 2.6 1 2.7 1.4 2.7 1.3 2.3 1.6 2.3 4 4 2.4 1.7 4.6 2.6 2.7 1 3 0.7 2.6 0.3 3 0.3 3-0.3 3-0.3 2.7-0.7 2.6-1 2.7-1.3 2.3-1.3 2-1.7 2.3-2 1.7-2 3.3-4.6 1-2.7 1-2.7 0.7-2.6 0.7-2.7v-3l-0.4-3.6-0.6-3.4-1-3.3-1.7-3.3-23.3 23.6-12.9-15.6 23.9-22.6 11.6-69.9z"/>
	<path id="Path 12" class="s3" d="m211.1 269.3l-0.4 2.3-0.3 2-1 1.7-1.3 1.7-1.7 1.3-1.7 1-2 0.7-2.3 0.3-2-0.3-2-0.7-2-1-1.6-1.3-1.4-1.7-1-1.7-0.6-2v-4.3l0.6-2 1-2 1.4-1.3 1.6-1.3 2-1 2-0.7 2-0.3 2.3 0.3 2 0.7 1.7 1 1.7 1.3 1.3 1.3 1 2 0.3 2z"/>
	<path id="Path 13" fill-rule="evenodd" class="s1" d="m187.4 266.7l0.7-2.4 1.3-2.3 1.7-2 2-1.7 2-1 2.6-0.9 2.7-0.4 2.7 0.4 2.6 0.9 2 1 2 1.7 1.7 2 1.3 2.3 0.7 2.4 0.3 2.6-0.3 2.7-0.7 2.6-1.3 2.4-1.7 2-2 1.6-2 1-2.6 1h-5.4l-2.6-1-2-1-2-1.6-1.7-2-1.3-2.4-0.7-2.6-0.3-2.7zm5 4.3l0.7 1.7 0.6 1.3 1 1.4 1 1 1.7 0.6 1.3 0.4 1.7 0.3 1.6-0.3 1.4-0.4 1.6-0.6 1-1 1-1.4 0.7-1.3 0.7-1.7v-3l-0.7-1.6-0.7-1.4-1-1.3-1-1-1.6-0.6-1.4-0.4-1.6-0.3-1.7 0.3-1.3 0.4-1.7 0.6-1 1-1 1.3-0.6 1.4-0.7 1.6z"/>
	<path id="Path 14" class="s3" d="m300.5 487.1l-6.6 4.7-6.7 4.3-7.3 4-7 3.6-7.6 3.4-7.7 3-7.6 2.6-8 2.4-17.6-24.3-5.7 1.3-5 1-5.3 1-5 0.3-9 0.4-8-0.4-6.6-0.6-5-1-4-1-17.3 22.9-8-2.3-7.6-2.7-7.6-3-7.4-3.3-7.3-3.6-7-4-6.6-4.7-6.7-4.6 8.7-28.3-4.7-3.3-4.3-3.7-4-3.6-3.6-3.7-3.4-3.7-3-3.3-4.6-6.6-3.7-5.7-2.6-4.3-2-4h-28.3l-3.3-8-2.7-8-2.3-8.3-2-8.6-1.7-8.3-1-9-0.6-8.7-0.4-8.9 0.4-4.7h83.4v9.3l0.4 4.3 0.6 4.4 0.7 4.6 1 4.3 1.3 4 1.4 4.4 1.3 3.9 2 4 2 3.7 2 3.7 2.3 3.6 2.7 3.7 2.3 3.3 3 3 3 3.3 3 3 3.3 2.7 3.3 2.6 3.3 2.3 7.4 4.7 3.9 2 4 1.7 4 1.6 4 1.4 4.3 1.3 4.4 1 4.3 0.6 4.3 0.7 4.7 0.3h8.9l4.7-0.3 4.3-0.7 4.3-0.6 4.4-1 4.3-1.3 4-1.4 4.3-1.6 3.7-1.7 3.9-2 7.4-4.7 3.3-2.3 3.3-2.6 3.3-2.7 3-3 3-3.3 3-3 2.7-3.3 4.6-7.3 2-3.7 2-3.7 2-4 1.3-3.9 1.7-4.4 1-4 1-4.3 0.7-4.6 0.6-4.4 0.4-4.3 0.3-4.6-0.3-4.7h83.4l0.4 4.7-0.4 8.9-0.6 8.7-1 9-1.7 8.3-2 8.6-2.3 8.3-2.7 8-3.3 8h-29.3l-2 4-2.3 4.3-3.6 5.7-5 6.6-3 3.3-3.4 3.7-7.3 7.3-4.3 3.7-5 3.3z"/>
	<path id="Path 15" fill-rule="evenodd" class="s1" d="m370.3 341.1l2.7 0.4 0.3 7-0.3 8.9-0.7 8.7-1 8.6-1.6 9-2 8.3-2.4 8.7-2.9 8.3-3.4 8.3-0.6 1.7h-29.3l-1.3 2.6-2 3.7-3 4.6-3.7 5.3-4.6 5.7-5.7 6-6.6 6.3-3.7 3-3.6 3 8.6 28.9-1.3 1-7 5-7 4.3-7.3 4-7.3 4-7.7 3.3-7.6 3-7.7 2.7-8 2.3-1.6 0.3-18-24.2-4.6 1-4.4 1-8.6 1-8 0.3h-7.3l-6-0.3-5.3-0.7-7-1.3-17.3 22.9-1.6-0.3-8-2.3-7.7-2.7-7.6-3-7.7-3.7-7.3-3.6-7-4-6.9-4.7-7-4.6-1.4-1.3 8.7-28.3-4-3-3.7-3-6.6-6.3-5.7-6-4.3-5.7-4-5.3-2.6-4.6-2.4-3.7-1.3-2.6h-28.3l-0.6-1.7-3.4-8.3-2.9-8.3-2.4-8.7-2-8.3-1.6-8.6-1-9-0.7-8.7-0.3-8.9 0.3-3.4v-4h86.1l2.7 0.4-0.3 7 0.3 4.3 0.3 4.3 0.4 4.3 2 8.7 0.9 4 1.4 4 1.6 3.9 1.7 3.7 2 3.7 2 3.6 2.3 3.7 5 6.6 5.3 6 6.3 5.7 6.7 5 3.3 2.3 3.7 2 3.6 2 4 1.6 12 4 4 1 4.3 0.7 4.3 0.6 4.4 0.4h8.9l4.4-0.4 4.3-0.6 4.3-0.7 4-1 4.3-1.3 4-1.3 3.7-1.4 4-1.6 3.6-2 3.7-2 3.3-2.3 6.7-5 6.3-5.7 5.3-6 5-6.6 2.3-3.7 2-3.6 2-3.7 1.7-3.7 1.6-3.9 1.4-4 1.3-4 0.6-4.4 1-4.3 0.4-4.3 0.3-4.3 0.3-4.3-0.3-7.4zm-80.8 5.4v6.6l-0.3 4.7-0.7 4.6-0.7 4.3-1 4.4-1.3 4.3-1.3 4.3-1.7 4.3-2 4-2 4-2 3.7-2.6 3.6-2.4 3.7-2.6 3.6-3 3.4-3 3-6.7 6-3.3 2.6-3.6 2.7-3.7 2.3-4 2.3-3.6 2-4.4 1.7-4 1.6-4.3 1.4-4.3 1.3-4.3 1-4.7 1-4.3 0.3-4.7 0.7h-9.6l-4.3-0.7-4.7-0.3-4.6-1-4.4-1-4.3-1.3-4.3-1.4-4-1.6-4.3-1.7-3.7-2-4-2.3-3.6-2.3-3.7-2.7-3.3-2.6-6.7-6-2.9-3-3-3.4-2.7-3.6-2.3-3.7-2.7-3.6-2-3.7-2-4-2-4-1.6-4.3-1.4-4.3-1.3-4.3-1-4.4-0.7-4.3-0.6-4.6-0.4-4.7v-6.6h-78.4v2l0.3 8.3 0.7 8.3 1 8.3 1.3 8.3 2 8 2 8.3 2.6 7.7 3 7.9h28.6l0.7 1.7 2 4 2.3 4.3 3.7 5.7 4.6 6.3 6 6.6 3.7 3.7 3.6 3.3 4.4 3.3 4.3 3.7 1.6 1-8.6 28.3 6.3 4.3 6.3 4 6.7 3.6 6.6 3.7 7 3 7 3 7 2.3 7.3 2.3 17.3-22.9 1.7 0.3 4.3 1 4.6 1 6.7 0.7 7.6 0.3 9-0.3 4.7-0.4 5-0.6 4.9-1 5.4-1.3 1.6-0.7 17.6 24.3 7.4-2.4 6.9-2.3 14-6 6.7-3.3 6.6-3.7 6.7-4.3 6.3-4.3-9-28.6 1.7-1 4.6-3.7 4-3.3 4-3.3 3.3-3.7 6-6.6 5-6.3 3.3-5.7 2.7-4.3 2-4 0.6-1.7h29.3l3-7.9 2.7-8 2-8 2-8 1.3-8.3 1-8.3 0.7-8.3 0.3-8.3v-2z"/>
</svg>