<svg version="1.2" xmlns="http://www.w3.org/2000/svg" viewBox="0 0 1902 1776" width="1902" height="1776">
	<title>Sopot-pdf</title>
	<style>
		.s0 { fill: #fbc707;stroke: #231f20;stroke-width: 2 } 
		.s1 { fill: #ffffff;stroke: #231f20;stroke-width: 2 } 
		.s2 { fill: #e9ad17;stroke: #231f20;stroke-width: 1 } 
		.s3 { fill: #2d3393 } 
		.s4 { fill: #ffffff } 
		.s5 { fill: none;stroke: #231f20;stroke-width: 2 } 
		.s6 { fill: #e9ad17 } 
		.s7 { fill: #f7ad17 } 
		.s8 { fill: #00894d } 
		.s9 { fill: #fbc707;stroke: #231f20;stroke-width: 1 } 
		.s10 { fill: #000000 } 
		.s11 { fill: none;stroke: #231f20;stroke-width: 1 } 
		.s12 { fill: #171a19 } 
		.s13 { fill: #231e1f;stroke: #231f20;stroke-width: .4 } 
		.s14 { fill: #101211;stroke: #231f20;stroke-width: .4 } 
		.s15 { fill: #141717;stroke: #231f20;stroke-width: 1 } 
		.s16 { fill: #131515 } 
		.s17 { fill: none;stroke: #231f20;stroke-width: 3 } 
		.s18 { fill: none;stroke: #000000;stroke-width: 2 } 
		.s19 { fill: #fbc707 } 
		.s20 { fill: #9e4029;stroke: #231f20;stroke-width: 1 } 
		.s21 { fill: none;stroke: #000000;stroke-width: .4 } 
		.s22 { fill: #b8dd1d } 
		.s23 { fill: #4fc6ee } 
		.s24 { fill: #ffffff;stroke: #231f20;stroke-width: .4 } 
		.s25 { fill: none;stroke: #000000;stroke-width: 1 } 
		.s26 { fill: #ffffff;stroke: #000000;stroke-width: 1 } 
		.s27 { fill: #0b0c0b } 
	</style>
	<path id="Path 1" class="s0" d="m204.6 2.3q163.6 0 327.2 0 0 54.2 0 108.4 128.3 0 256.6 0 0-54.2 0-108.4 168.6 0 337.2 0 0.5 54.7 1 109.4c-0.8-1 58.4-1 249.7-1 0-36.8 0-72.6 0-108.4q163.6 0 327.2 0 0 296 0 592c0.5 141.7 0.5 285.3 0.5 428.9-19.1 334.1-262.6 557.6-738.5 569.4-463.4-18.6-732.7-209.1-758.4-581.7-2.5-336.5-2.5-673-2.5-1008.6z"/>
	<path id="Path 2" class="s1" d="m271.7 56.5c81.3 0 139 2.8 220.3 2.8-0.1 38.6 1.3 69.8-1 107.2 108.1 0 235.7-1.5 343.8-1.5q0-57.9 0-115.9c83.7-2.4 151.8 0.3 235.5 0.3 0 37.8 2.6 75.6 2.6 113.4 111.4 0 233.2 0 344.5 0 0-37 0-74.2 0-108.7 78.9-2.5 147.3 0.2 226.1 0.2 0 111 2.6 202.7 2.6 313.6-462.5 0-909.3-2.7-1371.8-2.7 1.4-103.2-0.7-191.5-2.6-308.7z"/>
	<path id="Path 3" fill-rule="evenodd" class="s2" d="m1282.9 204.7h164.4v33.4h-55.2v101.6h-54.1v-101.6h-55.1zm-198.3 67.5c0-22 8-39.2 23.9-51.4q23.9-18.4 66.5-18.4 43.7 0 67.4 18.1c15.7 12 23.7 28.9 23.7 50.6q-0.1 23.7-10.4 38.9-10.3 15.1-29.8 23.5c-13.1 5.6-29.3 8.4-48.7 8.4q-29.6 0-49-7.2-19.4-7.3-31.5-23.1-12.1-15.7-12.1-39.4zm54.2 0.2c0 13.7 3.2 23.4 9.8 29.4 6.5 5.9 15.5 8.9 26.8 8.9q17.4 0 27-8.7c6.3-5.8 9.6-16.3 9.6-31.4 0-12.7-3.4-22-10-27.9q-10-8.8-27.1-8.7c-10.9 0-19.6 2.9-26.2 8.9q-9.9 8.9-9.9 29.5zm-83.4 67.2h-54v-101.8h-59.4v101.8h-54.1v-134.9h167.5zm-378.2-67.5c0-22 7.9-39.1 23.8-51.4q24-18.4 66.6-18.4 43.7 0 67.4 18.1c15.7 12 23.6 28.9 23.6 50.7 0 15.7-3.5 28.7-10.4 38.8q-10.3 15.1-29.8 23.5c-13 5.7-29.2 8.5-48.7 8.5q-29.6 0-49-7.3c-12.9-4.9-23.4-12.5-31.5-23q-12-15.8-12-39.5zm54.1 0.2c0 13.7 3.2 23.4 9.8 29.4 6.6 6 15.5 8.9 26.8 8.9q17.5 0 27-8.7c6.4-5.8 9.6-16.3 9.6-31.4 0-12.7-3.3-22-10-27.9q-9.9-8.7-27.1-8.7c-10.8 0-19.6 2.9-26.2 8.9q-9.9 8.9-9.9 29.5zm-121 12.1l47.4 11.1q-4.8 15.3-15 25.6-10.3 10.4-25.5 15.6c-10.2 3.5-23.1 5.3-38.8 5.3-19 0-34.6-2.2-46.6-6.4q-18.1-6.4-31.3-22.6c-8.7-10.7-13.1-24.4-13.1-41.2 0-22.3 7.7-39.5 23.1-51.5q23.1-18 65.4-18 33.1 0 52 10.3 19 10.3 28.1 31.7l-47.7 8.2q-2.5-6.2-5.3-9.1-4.5-4.7-11.1-7.3-6.6-2.6-14.7-2.6c-12.2 0-21.6 3.8-28.2 11.4q-7.4 8.5-7.4 26.6c0 15 3 25.3 8.9 30.8q8.8 8.4 24.8 8.3 15.5 0.1 23.5-6.7 7.9-6.7 11.5-19.5z"/>
	<path id="Path 4" class="s3" d="m959.7 592.6c0 316 0 637 0 953q-649.3-47.6-687.3-522.5c0.3-143.1 0.3-285.5 0.3-427.9 239.2-200.7 467.5-203.9 687-2.6z"/>
	<path id="Path 5" class="s4" d="m1806.6 658.1q31.7-22.2 63.4-44.3c0 163.4 7.9 326.9 0 488q-37.6 479.3-620.7 667.9c-19.4 1.2-24.4-18.7-5-30.8 21.5-7.3 44.2-9.5 64.5-18.6 5.6-2.7 8.5-5.1 8.1-17.2-7.1-32.9-11.4-67.4-19-100.2 267.3-99 405.2-266.2 445.3-506.3 12.8-156.1-0.3-311.7-0.3-467.2 23.6 8.2 47.1 16.4 68.4 27.1"/>
	<path id="Path 6" class="s5" d="m1806.6 658.1q31.7-22.2 63.4-44.3c0 163.4 7.9 326.9 0 488q-37.6 479.3-620.7 667.9c-19.4 1.2-24.4-18.7-5-30.8 21.5-7.3 44.2-9.5 64.5-18.6 5.6-2.7 8.5-5.1 8.1-17.2-7.1-32.9-11.4-67.4-19-100.2 267.3-99 405.2-266.2 445.3-506.3 12.8-156.1-0.3-311.7-0.3-467.2 23.6 8.2 47.1 16.4 68.4 27.1z"/>
	<path id="Path 7" class="s1" d="m953.9 1774.5c-105.3-1.2-220.5-19.8-345.2-55.6q-16.7-2.3-12.3-19.8c8-33.3 15.9-66.6 24.4-99.4q4-36.4 36.8-21c78.6 29.1 177.3 46.6 295.6 51.8 103.9 3.4 207-12.6 309.4-47.9 17.7-7.4 24.3-8.2 28.1 9.4q9.9 57.2 19.7 114.3c2.9 9.6 0.1 17.1-8.9 21.7-105.5 31.3-221.6 46.5-347.6 46.5z"/>
	<path id="Path 8" class="s5" d="m1530.1 1614.4l-21.4 14.3-13.8-22.5-23.4 15.7 13.8 22.5-21.5 14.4-39.3-64.4 21.5-14.4 15.9 26 23.4-15.6-15.9-26.1 21.4-14.3z"/>
	<path id="Path 9" class="s6" d="m1530.1 1614.4l-21.4 14.3-13.8-22.5-23.4 15.7 13.8 22.5-21.5 14.4-39.3-64.4 21.5-14.4 15.9 26 23.4-15.6-15.9-26.1 21.4-14.3z"/>
	<path id="Path 10" class="s5" d="m1518.3 1532l49.1-36.8 9.1 13.3-30.8 23 6.8 9.9 28.5-21.3 8.6 12.7-28.5 21.3 8.3 12.3 31.7-23.7 9.6 14.1-50.1 37.4z"/>
	<path id="Path 11" class="s6" d="m1518.3 1532l49.1-36.8 9.1 13.3-30.8 23 6.8 9.9 28.5-21.3 8.6 12.7-28.5 21.3 8.3 12.3 31.7-23.7 9.6 14.1-50.1 37.4z"/>
	<path id="Path 12" class="s5" d="m1763.2 1254.7l-18.5 31.5 46.9 30.2-11.8 20.1-62.1-40 30.2-51.7z"/>
	<path id="Path 13" class="s6" d="m1763.2 1254.7l-18.5 31.5 46.9 30.2-11.8 20.1-62.1-40 30.2-51.7z"/>
	<path id="Path 14" class="s5" d="m1819.2 1193.1l-5.4 26.4 11 6.5-4.9 23.7-65.1-46.1 5.2-25.2 76.7-10.2-5 24.2zm-16.3 1l-27.2 1.8 23.8 14.7z"/>
	<path id="Path 15" fill-rule="evenodd" class="s6" d="m1819.2 1193.1l-5.4 26.4 11 6.5-4.9 23.7-65.1-46.1 5.2-25.2 76.7-10.2-5 24.2zm-16.3 1l-27.2 1.8 23.8 14.7z"/>
	<path id="Path 16" class="s5" d="m1821.4 1086.5l7.4-20.2q8.2 2.7 13.4 7.6 5.3 4.9 7.6 11.7 2.4 6.9 1.7 17.1-0.9 12.5-4.8 20.1-4 7.6-13.1 12.7-9.1 5-22.7 4-18-1.4-27-12.2-9-10.8-7.8-29.2 1-14.4 7.2-22.2 6.1-7.9 17.9-11l3 21.1q-3.4 0.9-5.1 2-2.7 1.7-4.3 4.5-1.6 2.8-1.8 6.3-0.6 8 5.3 12.7 4.4 3.6 14.1 4.4 12.1 0.9 16.9-2.6 4.8-3.6 5.2-10.5 0.5-6.8-2.9-10.5-3.4-3.7-10.2-5.8z"/>
	<path id="Path 17" class="s6" d="m1821.4 1086.5l7.4-20.2q8.2 2.7 13.4 7.6 5.3 4.9 7.6 11.7 2.4 6.9 1.7 17.1-0.9 12.5-4.8 20.1-4 7.6-13.1 12.7-9.1 5-22.7 4-18-1.4-27-12.2-9-10.8-7.8-29.2 1-14.4 7.2-22.2 6.1-7.9 17.9-11l3 21.1q-3.4 0.9-5.1 2-2.7 1.7-4.3 4.5-1.6 2.8-1.8 6.3-0.6 8 5.3 12.7 4.4 3.6 14.1 4.4 12.1 0.9 16.9-2.6 4.8-3.6 5.2-10.5 0.5-6.8-2.9-10.5-3.4-3.7-10.2-5.8z"/>
	<path id="Path 18" class="s5" d="m1851.1 940.9v26.6l-25.5 0.1v29.1l25.6-0.1v26.8l-73 0.1v-26.7l29.5-0.1v-29.1l-29.5 0.1-0.1-26.7z"/>
	<path id="Path 19" class="s6" d="m1851.1 940.9v26.6l-25.5 0.1v29.1l25.6-0.1v26.8l-73 0.1v-26.7l29.5-0.1v-29.1l-29.5 0.1-0.1-26.7z"/>
	<path id="Path 20" class="s5" d="m1778.5 901.3l-0.1-63.3 15.6-0.1v39.7l11.6-0.1v-36.7l14.9-0.1v36.8h14.4l-0.1-40.8h16.5l0.2 64.4z"/>
	<path id="Path 21" class="s6" d="m1778.5 901.3l-0.1-63.3 15.6-0.1v39.7l11.6-0.1v-36.7l14.9-0.1v36.8h14.4l-0.1-40.8h16.5l0.2 64.4z"/>
	<path id="Path 22" class="s5" d="m710 1637l67.6 14.7-3.8 18.3-22.7-5-11.5 55.7-22.2-4.9 11.5-55.6-22.7-5zm67.7 13.7l24.4 4 5.3 32.3 14.6-29.1 22.9 3.7-32.7 53.7q-4.1 6.5-6.8 9.6-2.7 3.1-7.3 4.6-4.6 1.5-12.1 0.3-4-0.6-13.4-3.4l2.3-15.4q5.6 1.6 8.3 2 7.7 1.2 10.3-4.4zm140 17.8l-6.4 75.2-21.3-1.9 3.5-41.3-31 38.9-21.3-1.9 6.4-75.3 21.3 1.9-3.5 41.7 31.1-39.2zm-15-20q-1.6 6.4-6.9 9.9-5.4 3.5-12.3 2.9-6.9-0.6-11.7-5.1-4.7-4.4-5.1-11l8.7 0.8q1.5 6.7 8.5 7.3 7.5 0.7 10.1-5.6zm22.5 75.1l21.8 0.8-0.6 17.2q-0.3 9.6-4.4 14.9-4 5.4-13.5 9.3l-4.4-9.3q5.9-2.6 8.2-5.3 2.2-2.7 2.6-6.4l-10.4-0.4zm212.3 25.7l-18.2 2-1.6-16.4-88.1 9.5-7.7-75.1 22.6-2.4 5.8 56.6 15.2-1.6-5.8-56.7 22.6-2.4 5.8 56.7 15.4-1.7-5.8-56.7 22.6-2.4 5.9 57.8 7.9-0.8zm-1.4-53.7q-3.1-18.2 5-30.1 8.2-12 25.8-15.2 18.1-3.2 29.6 5 11.4 8.1 14.5 26.1 2.3 13.1-0.6 22.2-2.8 9.1-10.1 15.2c-4.8 4.1-11.3 6.8-19.3 8.3q-12.3 2.2-21-0.3-8.7-2.6-15.2-10.4-6.5-7.8-8.7-20.8zm22.4-3.9q1.9 11.2 6.8 15.4 5 4.2 12 2.9 7.2-1.3 10.3-6.8 3.2-5.6 1-18-1.8-10.5-6.8-14.7-4.9-4-12-2.8-6.7 1.3-10 6.9-3.2 5.7-1.3 17.1z"/>
	<path id="Path 23" fill-rule="evenodd" class="s7" d="m710 1637l67.6 14.7-3.8 18.3-22.7-5-11.5 55.7-22.2-4.9 11.5-55.6-22.7-5zm67.7 13.7l24.4 4 5.3 32.3 14.6-29.1 22.9 3.7-32.7 53.7q-4.1 6.5-6.8 9.6-2.7 3.1-7.3 4.6-4.6 1.5-12.1 0.3-4-0.6-13.4-3.4l2.3-15.4q5.6 1.6 8.3 2 7.7 1.2 10.3-4.4zm140 17.8l-6.4 75.2-21.3-1.9 3.5-41.3-31 38.9-21.3-1.9 6.4-75.3 21.3 1.9-3.5 41.7 31.1-39.2zm-15-20q-1.6 6.4-6.9 9.9-5.4 3.5-12.3 2.9-6.9-0.6-11.7-5.1-4.7-4.4-5.1-11l8.7 0.8q1.5 6.7 8.5 7.3 7.5 0.7 10.1-5.6zm22.5 75.1l21.8 0.8-0.6 17.2q-0.3 9.6-4.4 14.9-4 5.4-13.5 9.3l-4.4-9.3q5.9-2.6 8.2-5.3 2.2-2.7 2.6-6.4l-10.4-0.4zm212.3 25.7l-18.2 2-1.6-16.4-88.1 9.5-7.7-75.1 22.6-2.4 5.8 56.6 15.2-1.6-5.8-56.7 22.6-2.4 5.8 56.7 15.4-1.7-5.8-56.7 22.6-2.4 5.9 57.8 7.9-0.8zm-1.4-53.7q-3.1-18.2 5-30.1 8.2-12 25.8-15.2 18.1-3.2 29.6 5 11.4 8.1 14.5 26.1 2.3 13.1-0.6 22.2-2.8 9.1-10.1 15.2c-4.8 4.1-11.3 6.8-19.3 8.3q-12.3 2.2-21-0.3-8.7-2.6-15.2-10.4-6.5-7.8-8.7-20.8zm22.4-3.9q1.9 11.2 6.8 15.4 5 4.2 12 2.9 7.2-1.3 10.3-6.8 3.2-5.6 1-18-1.8-10.5-6.8-14.7-4.9-4-12-2.8-6.7 1.3-10 6.9-3.2 5.7-1.3 17.1z"/>
	<path id="Path 24" class="s1" d="m165.9 615c0 155.6-7.8 311.1-0.2 467.3 47.5 270.9 187 402.8 448.4 507.9-7.7 32.8-15.3 65.7-22.5 98.5q-6.2 17.6 6.3 21.9c21.8 5.9 43.5 11.7 64.8 17.6 14.4 16.4 11.8 24.8-7.9 25.5-388.7-125.7-598.2-351.1-620.7-667.9-5.2-161 0-324.5 0-488q31.7 22.2 63.5 44.4c21.3-10.7 44.8-18.9 68.3-27.2z"/>
	<path id="Path 25" class="s5" d="m133.8 862.8v23.4h-25.8v25.5h25.8v23.4h-73.6v-23.4h29.8v-25.5h-29.8v-23.4zm-0.6 86.2l1.1 62.5-15.7 0.3-0.7-39.2-11.7 0.2 0.6 36.3-15 0.3-0.6-36.3-14.5 0.3 0.7 40.2-16.6 0.3-1.1-63.6zm-9.2 290.4l0.5 21.3q-8.6 0.7-15.3-1.7-6.7-2.5-11.4-7.8-4.7-5.3-7.7-15-3.7-11.7-2.8-20.2 1-8.5 7.6-16.7 6.7-8.2 19.7-12.6 17.4-5.7 29.7 0.6 12.3 6.4 17.8 23.7 4.3 13.6 1.4 23.2-2.9 9.5-12.7 17l-10.5-18.2q2.9-2.1 4-3.7 1.9-2.7 2.4-5.8 0.5-3.2-0.6-6.5-2.4-7.6-9.6-9.6-5.3-1.6-14.7 1.5-11.7 3.9-14.8 9-3.2 5.1-1.1 11.6 2 6.4 6.5 8.5 4.5 2.1 11.6 1.4zm48.2 8.5l25.8 56.7-14.3 6.8-16.1-35.5-10.6 5.1 15 32.9-13.6 6.5-15-32.9-13.1 6.3 16.6 36.5-15.1 7.2-26.2-57.7zm126.5 216l-25.2-25.8-39.2 40.3-16.1-16.5 52.1-53.4 41.1 42.3zm11.3 66.7l-20.4-16.4-10.2 7.6-18.3-14.7 67-42 19.5 15.7-23.4 77-18.8-15.1zm6.1-15.9l9.8-26.5-22.6 16.3zm71 49.8l13.1 16.6q-6.3 6-13.1 8.3-6.7 2.3-13.6 1-6.9-1.2-15.1-6.9-9.9-6.9-14.3-14.2-4.3-7.3-4-18 0.4-10.6 8-22.3 10.2-15.5 23.8-18.3 13.5-2.8 28.2 7.4 11.5 8 15 17.4 3.4 9.3 0.1 21.4l-19.1-7.7q1-3.4 0.9-5.4-0.1-3.4-1.6-6.1-1.5-2.8-4.3-4.8-6.4-4.4-13.3-1.5-5.2 2.2-10.7 10.6-6.9 10.4-6.3 16.4 0.5 6 6.1 9.9 5.4 3.7 10.2 2.5 4.8-1.2 10-6.3zm106.2 10.5l-34.5 66.7-18.9-10.3 19-36.7-43.3 23.4-18.9-10.4 34.5-66.6 18.9 10.3-19.1 36.9 43.6-23.6z"/>
	<path id="Path 26" fill-rule="evenodd" class="s7" d="m133.8 862.8v23.4h-25.8v25.5h25.8v23.4h-73.6v-23.4h29.8v-25.5h-29.8v-23.4zm-0.6 86.2l1.1 62.5-15.7 0.3-0.7-39.2-11.7 0.2 0.6 36.3-15 0.3-0.6-36.3-14.5 0.3 0.7 40.2-16.6 0.3-1.1-63.6zm-9.2 290.4l0.5 21.3q-8.6 0.7-15.3-1.7-6.7-2.5-11.4-7.8-4.7-5.3-7.7-15-3.7-11.7-2.8-20.2 1-8.5 7.6-16.7 6.7-8.2 19.7-12.6 17.4-5.7 29.7 0.6 12.3 6.4 17.8 23.7 4.3 13.6 1.4 23.2-2.9 9.5-12.7 17l-10.5-18.2q2.9-2.1 4-3.7 1.9-2.7 2.4-5.8 0.5-3.2-0.6-6.5-2.4-7.6-9.6-9.6-5.3-1.6-14.7 1.5-11.7 3.9-14.8 9-3.2 5.1-1.1 11.6 2 6.4 6.5 8.5 4.5 2.1 11.6 1.4zm48.2 8.5l25.8 56.7-14.3 6.8-16.1-35.5-10.6 5.1 15 32.9-13.6 6.5-15-32.9-13.1 6.3 16.6 36.5-15.1 7.2-26.2-57.7zm126.5 216l-25.2-25.8-39.2 40.3-16.1-16.5 52.1-53.4 41.1 42.3zm11.3 66.7l-20.4-16.4-10.2 7.6-18.3-14.7 67-42 19.5 15.7-23.4 77-18.8-15.1zm6.1-15.9l9.8-26.5-22.6 16.3zm71 49.8l13.1 16.6q-6.3 6-13.1 8.3-6.7 2.3-13.6 1-6.9-1.2-15.1-6.9-9.9-6.9-14.3-14.2-4.3-7.3-4-18 0.4-10.6 8-22.3 10.2-15.5 23.8-18.3 13.5-2.8 28.2 7.4 11.5 8 15 17.4 3.4 9.3 0.1 21.4l-19.1-7.7q1-3.4 0.9-5.4-0.1-3.4-1.6-6.1-1.5-2.8-4.3-4.8-6.4-4.4-13.3-1.5-5.2 2.2-10.7 10.6-6.9 10.4-6.3 16.4 0.5 6 6.1 9.9 5.4 3.7 10.2 2.5 4.8-1.2 10-6.3zm106.2 10.5l-34.5 66.7-18.9-10.3 19-36.7-43.3 23.4-18.9-10.4 34.5-66.6 18.9 10.3-19.1 36.9 43.6-23.6z"/>
	<path id="Path 27" class="s8" d="m1646.6 595.2c0 142.4 0 284.8 0.3 427.9q-38 474.9-687.3 522.5c0-316 0-637 0-953 219.5-201.3 447.8-198.1 687 2.6z"/>
	<path id="Path 28" class="s9" d="m1438.9 1066.1c-0.4 2.8-4.3 39.2-9.9 72.6-3.2 18 12.2 36.5 41 34.2 20.5 2.3 33.3 19.4 27.9 41-5.1 18.9 12.2 37.3 31.5 39.1-6.9 11-24.4 15.3-36.3 9.2 7 10.5 23.7 15.6 33.3 10.3-0.5 10.4-21 17.5-45.4 14.3 6 3.5 8.2 8.9 1.6 10.7 6.7 9 8.8 14.6 6.1 20.7-3.3 7.5-22.6 6.5-32.2 2.1-1.6 5.1-4.5 10.5-9.7 13.2-34.5 26.5-68.7 6.3-45.3-25.6-24.1 38.1-50.8 15.6-32.5-5.6-8.4 19.7-24.2 0.4-22.8-9.7 10.1-16.6 36-31.4 58.5-18.1 25 11.2 37.9 0.3 44-26.7 2.8-16.5-10.5-25.9-26.4-31.9-17.7 4.7-68.6-0.5-86.6-14.8-31.3-19.9-39-44.6-37.8-73.1-15.9-2.4-49.6 1.8-68.7 10.3-13.9 2.4-22.9 20.8-17.1 39 4 16 14 38.7-2.5 52.2-10.2 2.8-5.6 18.8 10.6 32.2-5.6 6.6-23.4 6.6-35.6 0 0.9 7.8 9.7 16.7 17.8 18.2-8.2 7.8-25.6 7.5-38.1-3.8 0.2 6.3-7.4 15.3-14 17.6 3.6 23.7-7.4 25.1-23.9 11.2-9.8-10.3-31.2-10.6-43.3-0.7-36.4-2.3-35.8-16.6-13.7-34.8-4.5 3.9-8.9 8-13.3 12.2-22.7 4-30.3-15.9-5.8-28.1-3.9 1.7-3.7 2.6-7.4 4.5-12.5 5.5-13.6-17.3-0.5-21.4 6.7-5.6 24.3-4.3 34 2.7 15.8 10.4 44.9 9.4 52.2-2 18.3-10.3 16.8-44.3 7-79.5-10.1-29.5-5.3-72.5 9.1-86 8.6-14.5 31.7-35.1 52.9-40.4 27.5-11.4 70.5-17.7 83.1-17-31.2-14.1-53.4-49.1-48.3-66.7-4.9 4-9.1 7.6-13.3 11.3-0.6-7.8-1-15.2-1.3-22.6-7.1 14.2-24.8 28.8-34.9 28.6 3.1-12.3 9.3-14.8 3.6-22.8-7.2 3.4-36.2 4.8-69.1 7.9-6.2 12-18.9 11.3-26.9 0.1-10.4 14.8-26.1 22.8-31.4 15.8-4.1-5.5-7.5-14.6 1.6-22.3-18.2-3.6-20.1-21.6-8.8-29.2-15-0.7-17.5-12.9-4.6-18.9 5.7-4.1 20.8-3 30.4 2.5 9.1 2.5 34.5-0.6 51.6-11.5 25.3-12.6 61.7-22.9 71.2-19.9-23.7-14.6-49.2-30.2-73.6-45.1-1.7 19.5-19.8 30.5-35.6 20.9 8.8-4 13.3-19.1 8.8-29.1-6.6 13.4-15.5 18.1-34.4 10.4 2.9-3.9 14.3-13.4 22.9-18.6-10.2-8.2-21.7-15.4-33.6-15.9-19.4 13.2-27.6 4.1-13.5-17.5-33.3 11.4-31.8-26.7-13.6-24.4-7.8-10.2-3.2-26.2 8-30.4-26.4-7.2 24.9-55 44.9 22.1-0.4-2.9 42.1 21.4 88.9 35.7-1.3-33.5 40.3-67.3 78.6-72.9-23.1-0.9-38.8 3.2-22.7-35.7 1.9-6.1 10.4-5.5 15.5 1 16.5 4.6 16.4-4.2 20.3-10.2 6-11.2 4.4-17.9-5.1-18.5-12.6-3.4-23.1 8.6-38-4.1-0.7-6.6-2.3-12.3-3.4-18.4-0.9-15.9 6.1-11.7 17.5-9.9-12.4-5.6-18.9-12.4-7.7-16.4 5.6-3.4 22.7-7.4 31.9-7.7-5.3-13.4 11.1-23 34.7-23.2 33.1 3.8 69.7 7.4 68.8 10 6-5.1 18.7-9.2 25.3-7.7 9.6 9.2 13.6 30.4 0.7 42.6 20.3-2.9 30.3 24.3 26.6 51.7-0.6 24.3 19.3 40.2 47.3 40.7-13.5 16.6-36.9 24.8-50.8 16.4 8.6 14.7 31.3 23.1 47 17.2 3.5 13.7-17.6 26.9-42.9 26.3 6.3 12.1 21.2 17.1 30.8 9.3 1.5 9-2 13.9-32.2 18.8 10 21.7 29 34.5 37.9 25.2-12.5 21.8-34.6 27.7-44.5 10.9-4 33.1 15.4 51.7 38.5 40.4-5.5 22.9-29.1 36.9-43.6 28.1-6.5-1.9-15.3-10.1-18.5-16 0.5-4 2.3 38.5 7.3 84 7.4 33.7 12.2 55.4 49 61.4 60.7 4 56-125.8 45.5-161.4-9.6-60.1-20.3-145.4-12-180.9-0.1-35.1 34-100.5 73.8-48.5 4 4 11.1 14.5 13.9 23.5 19-8.8 40.6 10.8 42.9 39.7-2.8-7.7-14.5-16.6-23.8-17.5 34.6 34.7 13.6 103-30.8 137 4.5-25.8 0.9-60.6-7.3-68.7-8.9-11.8-5.8-37.4 8.2-49.1-8 10.9-26.7 17-31.7 14.2 11.4-7.9 22.7-23.3 22.3-30.3-2.5 6.3-13.4 10.1-21.3 7 14.8-12.8 23.9-31.3 13.7-38.6-4.9-14-24.4-7.1-30.9 7.1-3.7 8.5-6.2 26-5.7 33.7-1.2 18.6-1 66.2-0.5 96.9 0.4 27.9 6.7 54.8 15.1 58.6 10.3 7.4 25.7 8.7 31.3 2.7 1.8 12.8-11.6 25.3-27.3 24.2 12.3 8 27.1 12.3 32.5 8.2-5.5 11.2-21.7 20.5-32.8 18.5 6.1 43.9-6.3 110-24.1 131.6-6.5 16.4-31.8 36.4-50.1 40.1z"/>
	<path id="Path 29" class="s10" d="m1083.2 1304.3c-11.4 2.1-20.9 2.7-20.5 22.7-10-11.6-19.4-28.2-10.5-42-14 10.4-15.4 19.3-13.3 25.7-11.9-8-13.1-43.6 3-51.9-10.5 12.1-1.2 29.4 16.8 20.7-12.1 19.1 2.9 22.4 24.5 24.8zm-60.6-31.4c-1.7-16.8 4.2-25.7 14.9-33.3-9 11.3-2 19.2 2 19.5-5.6 0.3-8.5-1.8-16.9 13.8zm340.4 37.3c-13.9 3.5-22.4 13.9-24.6 24.9-5.5-12.5-3.2-26.1 7.8-43.1-1 6.8 4.9 20.5 16.8 18.2z"/>
	<path id="Path 30" class="s11" d="m1281 1014.7c34.4 4.9 39.9 59.4 26.8 150.4"/>
	<path id="Path 31" class="s5" d="m1304.3 1106.4q-20 3.8-17-15.4c7.7-8 9.2-27.2 3.6-57.6 2.8-2.4 6.6-4.7 10.3-6.9"/>
	<path id="Path 32" class="s11" d="m1051.8 914.5c4.8 0.1 6-8.4 26.4-3.2m242.2-191.8c4.6 2.8-20.9 9.9-77.5 20.2-42.4 13.6-55.5 46.8-39.4 100.7-33.8-33.5-43-66-23.5-97.4 21.3-29.9 53-42.5 95.1-44.7 28.9 6.1 49.9 0.9 63.8-15.5m9.9 55.7q2.5 17.3-73.3 25.3-55.3 17.5-60.2 59.4-21.1-20.9-5-63.9m178.9 21.4c-5.5 21.7-26.9 28.5-64.9 20.2 18.3-5.8 31-18.2 37.2-36.4-10.8 11.6-27.3 17.1-49.5 17.5-29.4-2.7-51.5 2.8-65.7 18.2-1.7-11.2 6.4-22.3 21.4-33.6m116.8-205q-9.1 13.6-18.2 27.3m-85.6 77.4q-5.1 16.7-24.3 2.1"/>
	<path id="Path 33" class="s12" d="m1339.4 617.4q3.3 12-20.6 28c-5.9-0.8-11.9 3.2-18.6 11 0.3-10.4 1.5-19.8 2.7-29.2q8.8 10.1 20.5 1.4c17-13.4 22.6-17.4 16-11.2z"/>
	<path id="Path 34" class="s13" d="m1479.2 1190.5c8.2 7.2 9.8 15.9 5.5 27q-22.3-23.9-33.6-22.3c6.9-9.9 16-11.2 28.1-4.7z"/>
	<path id="Path 35" class="s14" d="m1378.6 1106.8q12.7-37.1 11.6-56.2c13 7.9 14.5 22.5 3.6 43.9-3.2-2.4-8.5 2.3-15.2 12.3z"/>
	<path id="Path 36" class="s15" d="m1192.6 1186c6.2 5.8 2.4 17.8-10.4 37.2 2-12.8 1.4-22.7-0.9-28.5q-9.4-8.7 0.2-33.2c-4 2.9-0.4 11.3 11.1 24.5z"/>
	<path id="Path 37" class="s16" d="m1281.9 877.1q22.7-12.6 19.9-46c13.7 14.5 16 26.4 7.6 35.6-0.8 8.2-10 12-27.5 10.4z"/>
	<path id="Path 38" class="s5" d="m1241.2 925.6q107.9-27.2 94.7-95"/>
	<path id="Path 39" class="s16" d="m1281.5 925.5q35.1 11.9 43.1-0.8c4.6 12.6-5.9 17.6-31.4 13.9 9.8 12.1 23.4 14.3 40 6.6-13.8 20.2-29.2 22-45.2 5.4-6.4-12.4-8.3-20.5-6.5-25.1z"/>
	<path id="Path 40" class="s17" d="m1299.7 591.9q0.5 0 0.9 0l-4.4-0.3-0.9-1-0.9-0.1 0.1-0.9-4.5-0.3v0.9l-10.7-0.7v-0.9l-1.8-0.2-0.8-1 0.1-0.9-2.7-0.2-1.7-2-0.9-0.1 0.9 1-0.1 1h0.9l-0.3 3.8h-0.8l-0.1 0.9-0.9-0.1-0.8-1h-0.9v-1l-0.8-1 0.4-5.6m5.9 5.1l-2.7 0.8-0.9-0.1 0.2-3.8 2.7 0.2-0.1 1 1.8 0.1v0.9l-1 0.9-1.8-0.1-0.2 3.8-0.9-0.1-0.1 1.9 1.8 0.1v-0.9h0.9l0.1-0.9q0.9 0 1.8 0.1"/>
	<path id="Path 41" class="s11" d="m1282.8 663.3c2.4 3.3 10.5 3.2 15.1 2.3l5.5-3.4h14.4 0.4l6.3 0.5 0.8 1h0.9l0.8 1.1 4.5 0.3q0.4 0.5 0.8 1"/>
	<path id="Path 42" class="s5" d="m1564.8 683.2l0.7 2.9 1.8 0.1 1.7 2-0.1 1.9h0.8l1.7 2.1v0.9l0.8 1-1.5 23.6 0.9 0.1-0.4 5.7 0.9 1-0.4 5.6 0.9 0.1-0.3 4.7 0.9 0.1-0.4 6.6-0.9-0.1-0.5 8.5 0.4-6.6 0.9-0.9 0.5-7.5 1.9-1.8 0.1-1.9 0.9 0.1 0.1-1.9 0.9 0.1 0.2-2.9 0.9 0.1 0.5-8.5-0.8-1 0.1-1-0.9-1 0.2-1.9h-0.9l0.1-2.9h-0.9l0.3-3.8-0.9-0.1 0.2-3.7-0.9-0.1 0.1-0.9-0.8-1.1c-0.2 2.5 0.2 5.2 0.4 7.7l-0.3 4.7h0.9l-0.4 5.7 0.9 1-0.1 1 0.8 1h0.9l-0.3 4.8-0.9-0.1-0.9 0.9-0.1 0.9 0.9-14.1v0.9l-1 0.9-1 15.1-0.9 0.9q-0.1 0.9-0.1 1.9"/>
	<path id="Path 43" class="s10" d="m1030.2 713.9c-14.2-11.7-22.7-1.1-23.1 0.4 1.7-18.1 17.8-26.9 45.5-17.8-12.3-1.3-28 3.8-22.4 17.4zm11.7 57.9c-18.4 5.7-33.8-1.2-37.3 16.7-9.7-19.4 12.3-44.5 22.5-41-16 0.5-19.2 34 14.8 24.3zm7.3 21.2c-19.4 11.1-27.3 13.2-12.1-14.1-4.4 18 3.5 15.3 12.1 14.1zm101 500.4c7.6 12.4 13.2 23.9 10.5 40.2-4.3-13.3-12.8-17.7-21.2-20.2 10.2-0.9 12.5-2.1 10.7-20zm263.6 52.5c-9.4 4.4-15.2 11.7-12.9 21.5-16.2-11.2-13.2-31.7-5.5-48.6-1.6 9.8-5.7 21.9 18.4 27.1zm-43.1 7.6c-10.2-9.7-10.4-33.1-7.1-43.7-2.6 14.3 3.2 22 19.3 16.9-10.6 8.5-13.6 16-12.2 26.8zm112.2-56c14.4 1.7 24.6 16 18.4 34.4-3.4-10.8-7.9-15.4-11.6-15.5 1.1-6.6-1.1-12.3-6.8-18.9zm-488.2-553.2c5.3-18 20-28 40.6-27.5-10.1 7.2-12.5 16.9-7.2 30.7-10-9.8-23.8-10-33.4-3.2zm55.8 170.2c-14.7 2.9-19.3 5.8-22.6 18.4-2.8-12.1 2.9-30.7 20.9-38.5-10.9 5.9-15.3 16.3 1.7 20.1zm10.7 29.1c-13.9-0.2-30.8 13.1-30.5 22.6-6-16.3 9-41 20.3-50.9-9.3 10.6-8.5 23.5 10.2 28.3zm16.8 19.6c-6.4 5.2-20.5 10.1-19.8 33.7-19.2-22.6-5.8-46.1 1.8-53.1-11.7 14.2-1 29.4 18 19.4zm39.5-13.1c-7 10.5-7.7 7.1-6.7 31.1-8.6-4.6-16.3-18.1-20.1-30.5 3.6 4.4 14 15.5 26.8-0.6z"/>
	<path id="Path 44" class="s18" d="m1188.1 612.6c7.5 10.4 10.8 18.5 18.6 24.6 16.9 7.3 33.2 8.1 49.1 2.4 3.3-1.2 6.2-0.3 8.2 4.8-9 23.2-34.2 18.8-59.8 12.6-21.9-6.3-25.8-17.1-16.7-43.3z"/>
	<path id="Path 45" class="s19" d="m1188.1 612.6c7.5 10.4 10.8 18.5 18.6 24.6 16.9 7.3 33.2 8.1 49.1 2.4 3.3-1.2 6.2-0.3 8.2 4.8-9 23.2-34.2 18.8-59.8 12.6-21.9-6.3-25.8-17.1-16.7-43.3m-1119.9 9.1c-5.4-24.4-18.7-46-40.6-70.4-22.6-25.2-27.1-45.6-14.4-62.5 12.7-8.3 23.3-8.3 31.9-1.1 7.9 4.7 29 21.1 21.6 16.2-51.3-34.4-71.3-61.8-61.7-79.8q4.1-23.7 37-12.9 10.3 9.7 20.6 19.4-74.6-59.3-56.6-92.7c11.7-13.7 23.7-14 35-2.2q10.2 9.2 20.5 18.3c-24-38.4-25.7-66.1-6.1-83 18.1-15.8 35.6-12.5 52.4 8.7 5.5 22.6-1.7 47.7-20.6 74.3 19.6-25.5 35.7-32.7 48.4-22.6 17.8 11.5 15.1 30.5-8.2 56.1-11.4 9.3-22.7 19.7-34 30.1q33.4-35.5 52.5-10.7c8.5 8.6 5.1 24.7-9.3 47.4q-19 22.1-38 44.2c21.5-26.2 38.3-29.8 50.3-11.9 9.3 16.6 2.4 34.9-19.5 53.9-8.6 5.8-21.8 28.2-42.7 65.6-5.1 1.1-12.6 9.4-18.5 15.6z"/>
	<path id="Path 46" class="s11" d="m67.6 622.8c-5.4-24.4-18.7-46-40.6-70.4-22.6-25.1-27.1-45.6-14.4-62.5 12.7-8.3 23.3-8.3 31.9-1.1 7.9 4.7 29 21.1 21.6 16.2-51.3-34.4-71.3-61.8-61.7-79.8q4.1-23.7 37-12.9 10.3 9.7 20.6 19.4-74.6-59.3-56.6-92.7c11.7-13.7 23.7-14 35-2.2q10.2 9.2 20.5 18.3c-24-38.4-25.7-66.1-6.1-83 18.1-15.8 35.6-12.5 52.4 8.7 5.5 22.6-1.7 47.7-20.6 74.3 19.6-25.5 35.7-32.7 48.4-22.6 17.8 11.5 15.1 30.5-8.2 56.1-11.4 9.3-22.7 19.7-34 30.1q33.4-35.5 52.5-10.7c8.5 8.6 5.1 24.8-9.3 47.4q-19 22.1-38 44.2c21.5-26.2 38.3-29.8 50.3-11.9 9.3 16.6 2.4 34.9-19.5 53.9-8.6 5.8-21.8 28.2-42.7 65.6-5.1 1.1-12.6 9.4-18.5 15.6z"/>
	<path id="Path 47" class="s20" d="m80.3 610c8.5-6.3 12.5-3.5 9.4 4-0.7 21.7 11.7 33.4 37.7 34.9 5.6 1.3 6.7 5.3 2.9 11.7-4.2 3.9-8.3 7.9-13.4 10.8q-53 14-50.4-45.3c0.2-4 1.6-7.1 13.7-16.1z"/>
	<path id="Path 48" class="s9" d="m89.3 614.8q25.2-37.9 45.3-42.8c13.6-5.1 22.8 0.2 27 15.1 9.2 6.4 6.7 18.7-7.6 36.2-4.1 5.1-13.4 14.3-27.6 27-25.3-4.6-37.7-16.9-37.1-35.5z"/>
	<path id="Path 49" class="s21" d="m85.3 608.2l-15.6 45.7m21.5-25.9l-12.4 39.8m23.1-27.2l-10.6 32.6m21.9-26.4l-6.7 26.7m-39.8-45.4l25.5 1.7m-24.1 17.4l36.2-4.1m-29 21.1l45.4-15.2m-31.1 23.9l42.4-16.1m-56-358.9l1.5 305.3"/>
	<path id="Path 50" class="s22" d="m959.6 407.6q343.6 0 687.2 0c0 62.4 0 127.4 0 189.8-228.2-198.4-457.1-192.5-687.2 8.2 0-66.2 0-135.6 0-198z"/>
	<path id="Path 51" class="s23" d="m959.7 605.7c-230.1-200.8-459-206.7-687.2-8.3 0-62.3 0-127.4 0-189.8q343.6 0 687.2 0c0 62.4 0 131.9 0 198.1z"/>
	<path id="Path 52" fill-rule="evenodd" class="s24" d="m409.7 1319c-22.5-8.5-12.4-31.3-0.8-32.5 20.7 0.9 40.9-7.6 47.2-22.1 33.1-20.9 48.2-66.7 12.3-116.4-16.9-6.7-44.4-2.5-70.8 8.2 0.2-21.5 6.5-30.1 16.6-35.3-27.7-11.3-43.4-19.9-43.5-29.7 15.9-3.3 28.7-7.5 45.7-9-41.3-10.3-64-36.6-57.8-89.2 1.6-37.9 36.2-65.9 80.2-77.9-31.8 1-59.9-14.8-91.5-88.8 49.2 1.3 67.6 7.5 78.1 23.4 0.2-3.5 0.7-4.8 1-7.6 38.6 40.5 55.8 45.1 66.4 81.9-3.1-17.9-6.8-24-18.1-38-11.5-14.2-25.8-28.8-35.6-41.3-18-19-19-31.6-11.9-48.1-39.3-15.4-43.5-56.3-39-92.3 12.1 6.3 20 8.1 31 10.8 4.9 3 10.9 7.9 18.2 21.3-10.9-32.1-6.8-30.4-13.2-45.2l-63 0.1c-5.4 13.4-33.5 15-35.2-7.7-1.4-19.6 25.4-27.7 35-9.9 18.8 0 40.5-0.3 60.1-0.3-8.9-40.8-18.1-57.6-29.3-53.2-9.8 26.2-30.8 26-47.8 8.5-9.1-10.5-12.1-26.2-1.5-45.3 12-17.3 31.5-23 46.7-23.3 12.5-1.4 20.8 3.7 31 11.9 15.4 19.3 26.4 21.3 42.2 25.9 5.7 1.1 19.3 20.3 24.4 33.2 4.4 9.4 8.3 22.7 14.5 42.1l43.1 0.1 0.1-40.7c-6.4-4.5-7.4-16.2 0-20.5 5.4-3.7 13-2.1 16.3 1.7 4.9 6.9 4.1 13.3-2 18.7l-0.1 40.9 23.4-0.1v-40.8c-6.7-5.7-7.1-13.9-0.5-19.9 3.3-3.7 13.7-4.2 18.2 3.2 4.2 7.8 0.8 13.5-3.1 16.5l0.4 40.9 23.1 0.1-0.2-40.8c-8.3-6.8-6.7-16.6 1.9-21.6 5.5-2.2 12.5-1.3 17 7.2 1.8 5.4-1.1 12.4-4.7 14.5l0.2 40.6 23.4 0.1 0.2-40.7c-9.1-8-6.2-21.4 6.9-23 12.7 1.2 16.7 14.7 7.4 22.9l0.1 40.7h22.3c0.2-14.5 0-26 0.2-40.6-9.6-8.2-5.6-21.7 7.2-23 10.8 0.7 17.4 14.1 7.1 22.6l0.1 41c15.9 0 34.2-0.2 50.1-0.2 6-26 10.1-48.8 20.3-67.3 3.2-5.5 8.4-11.8 15.4-12 19.6-3.1 37.4-12.3 48.9-23 19.2-8 45.8-8 60.6 9 14.4 17 4.9 31.8-1.7 40.6-24.8 19.9-35.4 3.5-38.3-16.2-21.2 20.2-26.4 48.4-27 69 17.5 0 27.6 0.1 45.1 0.1 1.7-3.2 10.5-15.3 27.1-6.2 8.2 7.6 8.4 12.8 6.4 22.7-9.1 17.2-26.7 12.2-33.5 1.5l-55.2-0.4-3 36.2c20.4-20.1 33.4-26.1 43.4-30.5 4.7 43.5-8.1 75.5-37.1 95.8 2.5 30.5-7.5 45.3-23.7 69.1 14.9-13.5 12.1-10 17-14.4 0.8 6.3 1.1 6.1 1.5 12.9 13.2-14.5 21.6-24.3 32.5-24.5 20.2-4.4 42.2-8 58-19.2-12.5 47.2-49.1 71.8-90.6 95.2 49.9 11.7 87.3 70.1 66.9 123.8-3.8 8.3-9.9 16.4-17.1 23-15 13.6-35.8 22.6-59.2 27.8 22.4 2.6 43.1 7.3 74 19.4-13.7 5.2-24.1 10-39 16.1 5.5 10.2 9.6 18.4 15.3 31.6-36.5-19-59.7-16-83.2-2.8-38.1 57-31.7 103.9 15.2 118.8 7.4 14.6 22.9 18.9 37.7 17.7 16.4 2.6 15.1 29 0 32-140.5-0.3-287.4 0.4-426.4 0.2zm136.9-269.5c6.6-20.4 8.1-37-6.2-41.9l-12.2-1.2c-12.7-4.3-10.6-17.8 0-21.9l15.6-0.1 0.1-293.7-45.7 0.7 3.3 17.8c9-5 18.1-8.4 27.5-7.4 4.9 46.5-15.9 63.8-40.9 71.6-2.3 7.4-5.3 13.9-8.8 19.9 3.5 8.1 4.2 16.2 4.3 24.7 10.9-13.9 25.7-22.8 37.1-25 1 53.6-9.1 87.9-32.8 99.9 19-2.9 30.2-7.2 33.3-12.8 2.5 5.1-7.9 23.2-17 38.4 6.5-2.9 15.8-10.5 19.4-17.2 6.4 43.5-1.6 72.6-21.6 89.4q3.7 6.3 7 13.8c6.9 0.2 22.8 23.5 37.6 45zm171 4.4c10.9-8.1 19.7-24.4 27.9-43.2 4.6 2.8 9.3 5.5 14 7.8-15.9-19-41.1-54.3-26.6-116.5l15.3 9.6c-2.6-10.5-5.5-20.4-13.1-27.1 8.9 2 17.6 6.9 26.2 11.8-25.4-28.6-34.4-52.8-28.4-72.9 3.3-9.8 3-19.6 0.8-29.5 6.4 2.7 12.9 5.9 19.5 9.3-4.8-6.4-8-12.7-9.2-22.4-11.4-9.2-19.3-18.8-21.1-29.4 2-22.4 1.8-41.3-4.4-51.1 11.5 0 27.7 10.4 49.7 33.7-7.1-14.2-10.8-28.4-9.1-42.9h-50.2l0.5 293.4h17.1c10.2 2.4 8.9 16.9 0.7 20.9-24.7 8.1-29.7 25.4-9.6 48.5zm-45.3-362.8l0.1 293.4h22.5l1.3-293.4zm-37.9-0.1v293.5h23.3v-293.4zm-37.9 0c0 100.3 0 193.2 0 293.4l23.3 0.1c0-99.7 0-193.9 0-293.6zm-37.8 0v293.5l23.3 0.1c0-98.2 0.1-195.3 0.1-293.6z"/>
	<path id="Path 53" class="s25" d="m591.1 1106.1q-38.4 15.2-89.4 61.6c-2.8-18.1-5.7-36.2-7.8-54.2q37.2-10.7 88.6-37.8c3.4 4.1 6.2 13.7 8.6 30.4z"/>
	<path id="Path 54" class="s26" d="m551.5 1115.3l37.4-44.6 32.8 27.8-18.7 52z"/>
	<path id="Path 55" class="s26" d="m631.1 1106.1q-21.2-17.7-42.4-35.4c2.9-15.8 7.4-30.9 11.8-46q28.6 0 57.2 0 7.5 26.3 14.9 52.6c-12.5 8.2-25.1 16.4-41.5 28.8z"/>
	<path id="Path 56" class="s25" d="m699.1 1121.9c-10.7 9.9-23.6 22-34.3 31.8-9.4-17.5-18.5-34.4-27.9-51.9"/>
	<path id="Path 57" class="s26" d="m683.4 1069.4c30.1 19.7 59.5 34.2 92.7 40.8-8.9 5.4-16.8 24.3-23.6 55.8q-34.4-46.4-90.9-55c16.7-34 21.8-41.4 21.8-41.6z"/>
	<path id="Path 58" class="s25" d="m709.1 1057.6c11.8-3.8 24.9-19.7 36.4-46.8 15.9 9.6 29.2 15.3 40 20.5q-29 1.2-33 63.3-21.5-18.5-43.1-37c-3.9 7.4-7.1 13.5-11.1 20.9m54.3 16.4c30.8-15.2 85.4-11.2 137.1 10.3q-19.2 8.3-38.4 16.5 7.4 15.6 14.9 31.2-47.8-25.1-83.1-2.5-56.4 91.6 15.7 119.1c6.5 12.6 18.8 18.7 36.8 17.3 12.8 0 19.3 25.5 0.8 32q-213.2 0-426.3 0c-16.6-3.2-20.2-27.1-1.6-32 18-0.4 38-4.4 47.5-22.2 37.4-24.8 47.2-72.1 12-116.6-16.1-6.1-39.9-3.6-70.5 8.2-0.3-17.8 5.2-29.3 16.5-35.3-30.6-12.1-44.7-22-43.1-29.6 77.8-20 130.4-14.1 150 13m-10-10c0.3-25.5-8.8-51.2-26.3-73.4-39.7-6-72.2-32.6-72.2-82.2 41.3 3.6 79.9 24.8 96.4 65.8-9.2 4.9-16.2 10.7-25.3 16.4m10.2 13.2c-39.2 22.2-68.6 10.4-91.1-34.3 21.7 5.2 35.5 9.5 41.5 5.1m4.4 74.2c1-8-4.2-17.1-15.7-30.5 8.6-1.1 14.1-2.6 22.7-3.7m51.7 47.2q18.1-25.1 42.4-35.3c8.1 8.7 14.6 16.7 21.1 24.6m-108.5 64.5c15.8 4.4 26.1 9.9 36.8 6.6m255.5 5c8.9-7.9 21-12.3 34.1-10.4m-30.1-129.6c6.8-33.6 34.5-64.1 83.1-87.1 5.2 53.9-13 87.6-55.9 101m110.3-46.9c10.7 51.2-15.7 86.1-78.6 101.7-3.7-9.3 0.3-20.4 12.8-31.9-25.1 1.9-49.5-7.6-57.1-17.8 49.5 23 74.6 9.9 91.6-49.6-15.1 8.9-31.6 12.3-41.9 23.3-10.6 11.4-14.1 12.1-33.3 20m35.9-170.8c13.1-14.2 22.6-24 33.5-24.3 20.3-3.7 39-7.3 57.2-19-8.1 38-41.2 70.1-90.1 95.3 34.3 9 61.1 35 71.3 78m-124.1-5c-7.6-29.3-7.3-54.8 1.6-76.4 2.5-14.1 21.6-39.5 49.4-60.8q9 75.1-11.8 99.4m-52.6 72.4c-29.7-35.3-38.1-73.7-26.8-116.7 14.6 7.4 26.8 18.7 35.2 31.6m-20.3-22.2c-2.2-12.1-6.8-21.9-13.4-27.4 10.5 2.5 20.1 8 30.6 16 3.7 12.8 1.4 19.7-7.5 20.2m16.4-11.3c-23.8-23.1-47.9-54.6-41.8-82.5 3.6-10.9 4.4-21.6 1.5-32.8 27.2 12 40.5 21.9 40.8 29.6m7.8 67.3c-13.8-56.8-10-94 11.6-111.5 16.8-12.8 28.2-23.4 34.7-33.6 2.7 55.6 2.7 66.3-0.3 77.8m1.1-4c-3.6 12.9-16.9 37.5-29.3 49.3m7.2-122.6c22.7-27.4 41.6-42.2 60.4-49.3 4.8 41.9-8.3 74.5-37.1 95.6m-63.1-54.5c0.3-8 6.2-22.1 16.4-47.3 25.1 22.4 30.1 50.9 15.5 84.3m-90.2-142.7v41c15.7 0 35.2 0.6 50.4-0.2 9.4-49 19.9-75.6 32.1-78.9 21.2-3 38.7-10.9 51.8-23 16.4-7.9 33.3-8 49.7-0.4 17.9 9.9 25.9 30.6 9.8 49.7-20.9 15.6-34.5 9.9-38.4-16.4-16.7 13.7-25 37.9-27.1 69.1m27.1-69.1q9-29.2 25.9-14m-527.5 28.4q-14.1-10.7 3.2-18.1c14.3-4.1 23 2.5 25.8 18.9-8.6 22.5-22.6 27.9-43.5 14.4-12.5-10.2-16.4-27.1-9.4-43.2 8.7-21.6 33.2-31.5 58.4-30.4 2.2 0.7 4.1 1.2 5.8 1.7 9.2 2.8 12.4 5.1 19.3 14 15 14.6 28.7 20.2 40 22.1 15.4 11 28.2 36 38.4 75.5m-82.3 41.5c12.3 7.1 19.4 17.8 29 50.6m0-0.3c-1.5-48.5 3.9-51.1 24.3-72.5 24 33.7 27 66.6 7.2 101.2m7.5-74.6c14.7-12.4 30.4-18.3 42-17.8 4.9 38.7-9.5 63-40.7 72m-57.9 60.3c-7-8.2-8.3-19.7-4.7-33.7q10.2-16.8 7.9-45.1c21.1 14.8 36.6 27.4 45.4 37.8q11.4 18.9-3.9 93.6c-15.1-17.2-30.3-35.3-44.7-52.6zm-1.9-36.7c-32.9-12.1-46-42.7-40-92.9 7.3 4.1 17.6 8 31.2 11m6.9 126.9c14.9 14.7 29.8 29.5 44.7 43.5 16.2 13.7 30.6 51.1 25.9 93.2-45-31.5-79.6-83.3-70.6-136.7zm12.9 72.5c-33.7 4.7-66-25.2-91.8-87.9 42.8-0.2 68.6 7.1 78 23.2m58.2-31.8c9.9-12.9 22.9-22 37-25 1.5 65.7-15.3 96.9-39.3 101.3m0.2 0c15.3-3.8 34.2-5 39.9-14.6m0-0.1c1.5 9-10.6 27.1-17.4 39.4m-11.8 4.8c14.4-4.3 24.4-11.7 31.5-22.6 6 42.5-3 73.9-21.7 89.6m-85.7 91.1c-44.4-10.6-63.7-39.5-58-88.5 1.3-36.7 33-63.8 81-78.3m86 315.7q25.4-25 43.1-61.6m-12.5 22.6c22-11.5 32.6-19.3 33.6-24.2m-40 34.2q5.1-6.2 33.7-14m-182.6-129.5c-23.2-15.9-27.1-27.4-10.1-34.5-8.1 11.5-6.3 16.4 5.4 15.6 9.2-5.7 10.5-13.1 3.2-22.2-6-7.1-13.6-5.4-22 5-0.5-21.7 6.3-36.2 20.4-42.8-7.3-2.1-15.7-1.1-24.3 3.3q1.2-20.5 32.2-34.5m449-3.3q31 14 29 34.5-20.3-22.5-28.2-10.6c20.9 8.2 29 23.8 25.1 47.6-2.6-1.1-6.2-2.2-8.8-3.3m-6.9 14.8c8.6-6.3 11.5-4.4 9.4 8.2-11 3.6-16.7 1.1-16.4-5.7q-0.8-19.3 14.1-17.3m2.1 23.2c-10.9 13.6-19.9 18.2-35 18.7m-48.6-442q26.2 11.1 50.9-12.3m-47.8 23.8q-1.2 29.6 14.9 36.2c5.7 4.4 7.3 11.8 4.7 23m-402.8-80.5q49.7 20.1 47.8 35.3m-21.2 50.1q18-49.3 29.8-42.7m-74.4-26c10.4-4 19.9 12.4 28.9 53.2h-60.3m0.3 17.9l63.6 0.1c4.1 9.5 4.2 24.7 15.5 52m104.3-110.9v41h-43.5m0.1 35.8c-0.9-6.6-1.4-10.9-2.4-17.4 14.4-1 29.8-1 45.2-1v293.8q-8 0-16 0c-12 5.2-10.4 18.5 0 21.7q7 0.9 14.1 1.9m0 0q16.4 6.9 4.7 41.4c-20.6-30.8-28.1-45-38.4-45.2m73.9-372v41c-8.1 0-15.2 0-23.3 0 0-14.6 0-26.5 0-41m61 0v41h-23.2c0-13.7 0-27.3 0-41m61.3 0l-0.2 40.9-23.4 0.1v-41m83 421.2c-18.8-22.5-15.7-38.4 8.6-47.7 10-3.2 10.9-19.4 0.4-21.4-2.7 0-12.4 0.1-17.1 0.1 0-98.9 0-194.6 0-293.4 16.7 0 33.3 0.1 49.9 0.1-1.6 12.3 1.3 27.4 8.9 42.9m69.5-60.8l45.2-0.1m-0.5 17.9c-18.8 0-36.3-0.2-55.2-0.2-0.7 11.4-1.6 24.7-2.3 36.1m-180.2 439.1c-11.1 19.9-26.6 32.1-46.4 37q-27 2.4-61.1 29.5m129.3-57.2c-4.5 2.6-17.3 7.4-41.1 15.4q34.9-24.4 40.5-22.8m-81.1 40q70.5 10.8 98.7-9.2m-32.9 11.7q27.6 6.8 43.5 1.2m-73.7 0q73.8 14.7 75.8 9.8m48.7-57.5c-17.2 3.1-32.9 8.2-45.8 16.6-18.6 5-31.3 7.4-36.4 7.4q-35 2.5-50 9.9m84.9-15.8q38.2 19.8 43.5 17.3m1.2-12.3q-7.1 4.6-32.9 0.6 14.7-7.1 31.7-8m-266 67.8c1.8-1.5 6.7-2.7 9.6-3.1 95 0 183.4 1.3 278.4 1.3 0.3 0.1 2.4 0.6 4.5 2 2.2 2.9 5.9 6.8 7 7.7q-2.7 13.3-13.5 15.4-140.7-0.3-281.5-0.6c-6.4-0.2-10.7-7.5-11.7-15.1m7-7.2c97.3 0 195.2-0.1 292.6-0.1m2.8 17.5c-99.5 0-199.4 0-298.9 0m20-17.2c0.8 3.3-0.8 12.3-3.2 17.2m12.5 0c5.5-8.4 8.9-14.3 15.6-17.4m20.4 0.1c-2.7 5.5-5.9 11.9-8.7 17.5m26.2-17.5c-4.7 5.6-7.1 11.9-11.8 17.4m39.5-17.3c-3 4.9-7.3 12.3-10.3 17.3m22.6-17.4c-2.9 4.1-7.6 13.2-10.5 17.3m36.5-17.3c-2 4.3-7.3 13.1-9.3 17.4m20.7-17.6c-1.9 4.3-3.2 13.2-7.9 17.5m30.8-17.3c-2.5 4.3-5.3 13.1-7.8 17.4m22.5-17.4c-3.1 3.7-3.9 13.7-7.1 17.4m28.1-17.4c-2.5 3.7-4.7 13.7-7.3 17.4m23.9-17.4c-3.2 3.7-4.1 13.7-7.2 17.4m28.3-17.3c-2.3 4.4-4.2 12.8-6.6 17.1m21.7-17c-2.3 4.5-5.6 12.5-8 17m30.8-17.3c-3.2 4.2-8.3 15.4-8.3 17.4m-141-240.9q-8.7 27.5-17.4 54.9m31.5-54.3c-6.6 20.2-14.2 42.9-20.8 63.1m36.3-63.4c-8.3 23.7-17.2 48.8-25.5 72.5m40.3-61.3c-8.9 22.9-17.2 44.7-26.1 67.6m32.3-46.5c-4.5 11.3-8.3 21.3-12.7 32.5m-28.5-64.5c14.8 18.8 28.5 36 43.3 54.8m-29.4-54.8c7.8 10.2 20.6 26.2 28.4 36.5m-65.9-32.9c17.4 21.4 33 40.5 50.5 61.9m-57.6-41.4c14.8 17.7 28.4 34.1 43.2 51.8m56.6-468.6v41h-22.4q0-20.5 0-41m-327.8 39.1c5.9 0 10.6 5 10.6 11.1 0 6.2-4.7 11.1-10.6 11.1-5.9 0-10.6-4.9-10.6-11.1 0-6.1 4.7-11.1 10.6-11.1z"/>
	<path id="Path 59" class="s27" d="m344.6 671.4c5.9 0 10.6 5 10.6 11.1 0 6.2-4.7 11.1-10.6 11.1-5.9 0-10.6-4.9-10.6-11.1 0-6.1 4.7-11.1 10.6-11.1z"/>
	<path id="Path 60" class="s25" d="m463.8 834.6c5.9 0 10.6 4.9 10.6 11.1 0 6.1-4.7 11.1-10.6 11.1-5.8 0-10.5-5-10.5-11.1 0-6.2 4.7-11.1 10.5-11.1z"/>
	<path id="Path 61" class="s27" d="m463.8 834.6c5.9 0 10.6 4.9 10.6 11.1 0 6.1-4.7 11.1-10.6 11.1-5.8 0-10.5-5-10.5-11.1 0-6.2 4.7-11.1 10.5-11.1z"/>
	<path id="Path 62" class="s25" d="m494.1 850.4c5.9 0 10.6 5 10.6 11.1 0 6.2-4.7 11.1-10.6 11.1-5.8 0-10.6-4.9-10.6-11.1 0-6.1 4.8-11.1 10.6-11.1z"/>
	<path id="Path 63" class="s27" d="m494.1 850.4c5.9 0 10.6 5 10.6 11.1 0 6.2-4.7 11.1-10.6 11.1-5.8 0-10.6-4.9-10.6-11.1 0-6.1 4.8-11.1 10.6-11.1z"/>
	<path id="Path 64" class="s25" d="m759 766.3c5.8 0 10.6 5 10.6 11.1 0 6.2-4.8 11.1-10.6 11.1-5.9 0-10.6-4.9-10.6-11.1 0-6.1 4.7-11.1 10.6-11.1z"/>
	<path id="Path 65" class="s27" d="m759 766.3c5.8 0 10.6 5 10.6 11.1 0 6.2-4.8 11.1-10.6 11.1-5.9 0-10.6-4.9-10.6-11.1 0-6.1 4.7-11.1 10.6-11.1z"/>
	<path id="Path 66" class="s25" d="m793.8 837.7c5.8 0 10.6 5 10.6 11.1 0 6.2-4.8 11.1-10.6 11.1-5.9 0-10.6-4.9-10.6-11.1 0-6.1 4.7-11.1 10.6-11.1z"/>
	<path id="Path 67" class="s27" d="m793.8 837.7c5.8 0 10.6 5 10.6 11.1 0 6.2-4.8 11.1-10.6 11.1-5.9 0-10.6-4.9-10.6-11.1 0-6.1 4.7-11.1 10.6-11.1z"/>
	<path id="Path 68" class="s25" d="m759 856.8c5.8 0 10.6 4.9 10.6 11.1 0 6.1-4.8 11.1-10.6 11.1-5.9 0-10.6-5-10.6-11.1 0-6.2 4.7-11.1 10.6-11.1z"/>
	<path id="Path 69" class="s27" d="m759 856.8c5.8 0 10.6 4.9 10.6 11.1 0 6.1-4.8 11.1-10.6 11.1-5.9 0-10.6-5-10.6-11.1 0-6.2 4.7-11.1 10.6-11.1z"/>
	<path id="Path 70" class="s25" d="m760.9 782.2c9.1 2.4 15.8 23.7 13.5 39.7m22.1 33.3c-8 2.6-15.2 22.3-14.1 35.2m-19.2-19.3c5.9 11.1 7 49.8 5.3 60.6m-301.9-82.1c5 6.8 8.7 25 7.6 36.5m18.2-21.4c0.9 9.7-5.5 23.6-12.9 27.8m-2.1 27.7c5.9 0 10.6 4.9 10.6 11.1 0 6.1-4.7 11.1-10.6 11.1-5.8 0-10.6-5-10.6-11.1 0-6.2 4.8-11.1 10.6-11.1z"/>
	<path id="Path 71" class="s27" d="m477.4 920.2c5.9 0 10.6 4.9 10.6 11.1 0 6.1-4.7 11.1-10.6 11.1-5.8 0-10.6-5-10.6-11.1 0-6.2 4.8-11.1 10.6-11.1z"/>
	<path id="Path 72" class="s25" d="m480.3 932.9c-1.2 12.5 1.3 33.8 7.7 39.1m265.6-168.5c-5.2-5.8-8.3-13.8-9.7-22.8-13.3-10.4-19.8-20.8-21.1-28.7 2.3-27.7 1-44.9-4.7-51.8 13.3 0.6 29.4 11.1 49.5 33.8-0.7 21.3 3.5 41.9 13.2 62.1m-236.4-163.6c-3.1-2.3-5.2-6.1-5.2-10.2 0-6.8 5.5-12.3 12.4-12.3 6.8 0 12.3 5.5 12.3 12.3 0 4.1-2 7.9-5.1 10.1m23.3 0.1c-3.1-2.3-5.3-6.1-5.3-10.2 0-6.8 5.6-12.3 12.4-12.3 6.9 0 12.4 5.5 12.4 12.3 0 4.1-2.1 7.9-5.2 10.1m23.4 0.1c-3.1-2.2-5.2-6-5.2-10.1 0-6.9 5.5-12.4 12.4-12.4 6.8 0 12.4 5.5 12.4 12.4 0 4.1-2.1 7.8-5.2 10.1m23.8-0.1c-3.1-2.3-5.3-6-5.3-10.2 0-6.8 5.6-12.3 12.4-12.3 6.8 0 12.4 5.5 12.4 12.3 0 4.2-2.1 7.9-5.2 10.2m22.5 0c-3.1-2.3-5.2-6.1-5.2-10.2 0-6.8 5.5-12.4 12.4-12.4 6.8 0 12.3 5.6 12.3 12.4 0 4.1-2.1 7.9-5.2 10.1m-348 58.7c-3.1 6-9.3 10.1-16.5 10.1-10.3 0-18.6-8.3-18.6-18.6 0-10.3 8.3-18.6 18.6-18.6 6.9 0 13 3.9 16.2 9.4m521.8-0.1c3.2-5.6 9.3-9.4 16.2-9.4 10.3 0 18.6 8.3 18.6 18.6 0 10.2-8.3 18.6-18.6 18.6-7.2 0-13.4-4.1-16.5-10.1m17.3-19.4c5.9 0 10.6 4.9 10.6 11.1 0 6.1-4.7 11.1-10.6 11.1-5.8 0-10.6-5-10.6-11.1 0-6.2 4.8-11.1 10.6-11.1z"/>
	<path id="Path 73" class="s27" d="m899.6 671.5c5.9 0 10.6 4.9 10.6 11.1 0 6.1-4.7 11.1-10.6 11.1-5.8 0-10.6-5-10.6-11.1 0-6.2 4.8-11.1 10.6-11.1z"/>
	<path id="Path 74" class="s25" d="m522.6 1248c-4.7 5.6-7.1 11.9-11.8 17.4m53.7-17.4c-4.7 5.6-7.1 11.9-11.8 17.4m-61.6-17.4c-4.7 5.6-7 11.9-11.7 17.4m130.1-17.4c-1.9 4.3-7.3 13.1-9.3 17.4m40.7-17.4c-1.9 4.3-7.3 13.1-9.3 17.4m30.3-17.4c-2 4.3-7.3 13.1-9.3 17.4m30.3-17.4c-2 4.3-7.4 13.1-9.3 17.4m40.7-17.4c-2 4.3-7.4 13.1-9.3 17.4m51.2-17.4c-2 4.3-7.3 13.1-9.3 17.4m-147.9-17.4c-1.9 4.3-7.3 13.1-9.3 17.4m-11.6-17.4c-2 4.3-7.4 13.1-9.3 17.4m-19.4-208.6l-2.8-7.4"/>
	<path id="Path 75" class="s18" d="m672.5 1077.3l2.4 7.4"/>
	<path id="Path 76" class="s9" d="m1815.8 607.2c-20.9-37.4-34.1-59.8-42.7-65.6-21.9-19-28.8-37.3-19.5-53.9 12-17.9 28.8-14.3 50.4 11.9q-19.1-22.1-38.1-44.2c-14.4-22.7-17.8-38.8-9.3-47.4q19.1-24.8 52.5 10.7c-11.3-10.4-22.6-20.8-33.9-30.1-23.4-25.6-26.1-44.6-8.3-56.1 12.7-10.1 28.8-2.9 48.4 22.6-18.9-26.6-26.1-51.7-20.6-74.3 16.8-21.2 34.3-24.5 52.4-8.7 19.6 16.9 17.9 44.6-6.1 83q10.3-9.1 20.5-18.3c11.4-11.8 23.3-11.5 35 2.2q18 33.4-56.6 92.7 10.3-9.7 20.6-19.4 32.9-10.8 37 12.9c9.6 18-10.4 45.4-61.7 79.8-7.4 4.9 13.7-11.5 21.6-16.2 8.6-7.2 19.2-7.2 31.9 1.1 12.7 16.9 8.2 37.3-14.4 62.5-21.9 24.4-35.1 46-40.6 70.4-5.9-6.2-13.4-14.5-18.5-15.6z"/>
	<path id="Path 77" class="s20" d="m1835.4 626.1q2.6 59.3-50.4 45.3c-5.1-2.9-9.2-6.9-13.4-10.8-3.8-6.4-2.7-10.4 2.9-11.7 26-1.5 38.4-13.2 37.7-34.9-3.1-7.5 0.9-10.3 9.5-4 12.1 9 13.5 12.1 13.7 16.1z"/>
	<path id="Path 78" class="s9" d="m1775.5 650.3c-14.2-12.7-23.5-21.9-27.6-27-14.3-17.5-16.8-29.8-7.6-36.2 4.2-14.9 13.4-20.2 27-15.1q20.1 4.9 45.3 42.8c0.6 18.6-11.8 30.9-37.1 35.5z"/>
	<path id="Path 79" class="s21" d="m1816.6 608.2l15.6 45.7m-21.5-25.9l12.5 39.8m-23.2-27.2l10.6 32.6m-21.9-26.4l6.7 26.7m39.8-45.4l-25.5 1.7m24.1 17.4l-36.2-4.1m29 21.1l-45.4-15.2m31.1 23.9l-42.4-16.1m56-358.9l-1.5 305.3"/>
</svg>