<svg version="1.2" xmlns="http://www.w3.org/2000/svg" viewBox="0 0 570 764" width="570" height="764">
	<title>Simitli-pdf</title>
	<style>
		.s0 { fill: #da193b } 
		.s1 { fill: #66ccce } 
		.s2 { fill: #51a96b } 
		.s3 { fill: #ffffff } 
		.s4 { fill: #cbbd3e } 
		.s5 { fill: #2aabe8 } 
		.s6 { fill: #cceccd } 
	</style>
	<path id="Path 1" class="s0" d="m280.2 0.4c226.1-5 286.6 209.4 288.5 255.2v508.3h-566.9v-508.3c-0.1-55.7 79.2-255.2 278.4-255.2z"/>
	<path id="Path 2" class="s1" d="m280.4 12.5c218.9-4.8 277.5 202.8 279.4 247.1v62.3l-101.5-158.9-54.5 96.6-120-194.4-114.3 194.4-58.6-93.8-100.1 162.7v-68.9c-0.1-53.9 76.7-247.1 269.6-247.1z"/>
	<path id="Path 3" class="s2" d="m110.9 165.8l58.6 93.8 115.8-194.4 118.5 194.4 54.5-96.6 101.5 158.9v18.8l-109.4 0.6-165.1 149.1-160.8-148.9-113.7 0.2v-13.2z"/>
	<path id="Path 4" class="s3" d="m10.9 323.5l98.1-159.4 2.8-4.6 2.8 4.6 55.7 89.1 112-189.7 2.8-4.7 2.9 4.7 116.6 189.6 51.7-91.7 2.7-4.9 3 4.7 97.7 152.9-0.1 12.2-100.2-156.9-50.9 90.3 47.2 81.6h-5.3l-1.5 1.5-47.6-82.3-116-188.9-110.9 187.7-48.3 83.7-1.6-1.5-5.2-0.1 47.2-81.7-54.7-87.5-101 164.2z"/>
	<path id="Path 5" fill-rule="evenodd" class="s4" d="m285.3 513.9l179.2-164.8h28.1l-195.6 179.9 0.1 132.9h-23.6l0.1-132.9-195.7-180 28.2 0.1zm274.5 239.5v-404.3h-26.8v320.8l-247.7-0.6-247.7 0.6v-320.8h-26.8v404.3z"/>
	<path id="Path 6" class="s1" d="m47.2 350l211.3 191.6v120.3h-211.3z"/>
	<path id="Path 7" class="s5" d="m523.4 661.9h-211.3v-120.3l211.3-191.6z"/>
	<path id="Path 8" class="s3" d="m324.9 552.5c8.9 10.3 30.1 3.8 51.9-2.9 14.5-4.4 29.4-9 42-9 12.8 0 26.8 4.8 41 9.5 21.2 7.2 42.7 14.4 58 4.6l3.5 5.6c-17.9 11.5-40.9 3.8-63.6-3.9-13.7-4.6-27.2-9.1-38.9-9.1-11.6 0-26 4.4-40.1 8.7-23.9 7.3-47.1 14.4-58.8 0.8zm0 31.5c8.9 10.2 30 3.8 51.8-2.9 14.6-4.5 29.5-9 42.1-9 12.8 0 26.8 4.7 41 9.5 21.2 7.1 42.7 14.4 57.9 4.6l3.6 5.6c-18 11.5-40.9 3.7-63.6-3.9-13.7-4.6-27.2-9.2-38.9-9.2v0.1-0.1c-11.6 0-26 4.4-40.1 8.8-23.9 7.3-47.1 14.3-58.8 0.8zm0 26.4c8.9 10.3 30 3.8 51.8-2.8 14.6-4.5 29.4-9 42.1-9 12.8 0 26.8 4.7 40.9 9.5 21.3 7.1 42.7 14.3 58 4.6l3.6 5.6c-18 11.5-41 3.7-63.7-3.9-13.6-4.6-27.2-9.2-38.8-9.2-11.7 0-26 4.4-40.2 8.7-23.9 7.3-47 14.4-58.8 0.9zm0 30.7c8.9 10.3 30.1 3.8 51.9-2.9 14.6-4.4 29.4-9 42.1-9 12.7 0 26.8 4.8 40.9 9.5 21.2 7.2 42.7 14.4 58 4.6l3.6 5.6c-18 11.5-41 3.8-63.7-3.9-13.6-4.6-27.2-9.1-38.8-9.1-11.7 0-26.1 4.4-40.2 8.7-23.9 7.3-47.1 14.4-58.8 0.8zm1.7-106.8c19.5 3.7 30.7-2.9 42.2-9.8 10.4-6.1 21.1-12.5 38-12.8 16.1-0.3 30.7 4.9 45.3 10 13.8 4.8 27.6 9.7 42.4 9.7h0.1c3.1 0 7.2-0.4 11.5-1.4q1.2-0.2 2.1-0.4c3.6-0.9 7.1-2.1 9.8-3.5l3.1 5.9c-3.3 1.7-7.3 3-11.3 4q-1.2 0.3-2.3 0.6c-4.7 1-9.4 1.5-12.9 1.5h-0.1c-15.8 0-30.2-5.1-44.6-10.1-14.1-5-28.1-9.9-42.9-9.6-15.2 0.3-25.1 6.2-34.8 11.9-12.6 7.5-24.8 14.7-46.8 10.6z"/>
	<path id="Path 9" class="s0" d="m104.2 717.3l10.3 0.9q-1.7 6.6-8.6 10.3-7 3.8-17.1 3.8-12.6 0-20.3-5.2-7.7-5.1-7.7-14.8 0-6.2 3.3-10.9 3.3-4.7 10.1-7 6.7-2.4 14.7-2.4 10 0 16.4 3.2 6.4 3.2 8.2 9l-10.2 1q-1.4-3.9-5.1-5.8-3.7-2-8.9-2-7.9 0-12.8 3.5-5 3.6-5 11.2 0 7.8 4.8 11.3 4.8 3.5 12.4 3.5 6.2 0 10.3-2.3 4.1-2.4 5.2-7.3zm19.2-24.4h10.5v29.4l28.9-29.4h11.3v38.5h-10.5v-29.2l-28.9 29.2h-11.3zm66.7 0h16.3l16.2 30.8 17.9-30.8h15.1v38.5h-10.5v-31l-18.2 31h-9.3l-17.3-32.5v32.5h-10.2zm81.4 0h10.5v29.4l28.9-29.4h11.3v38.5h-10.5v-29.1l-28.9 29.1h-11.3zm60.8 0h50.1v5.4h-19.9v33.1h-10.4v-33.1h-19.8zm62.5 0h48.6v38.5h-10.4v-33.1h-27.7v19.2q0 6.7-0.7 8.9-0.7 2.1-3.8 3.7-3.2 1.6-9.1 1.6-3.6 0-8.4-0.3v-5.4h4.6q3.2 0 4.6-0.4 1.4-0.5 1.9-1.4 0.5-0.9 0.4-5.9zm64.3 0h10.4v29.4l29-29.4h11.3v38.5h-10.5v-29.2l-28.9 29.2h-11.3z"/>
	<path id="Path 10" fill-rule="evenodd" class="s6" d="m78.6 636.6c-4.2-0.1-18.5-6.1-18.5-31.1h136.7c0 25-14.3 31-18.5 31.1zm22.8-155.1c0.1-4.6 2.7-19.6 27.8-19.6 25.1 0 28.4 15.2 28.5 19.8-12.3-2.2-21.3 2.7-28.5 10.7-7.2-8-15.5-13.1-27.8-10.9zm23.9 23.8q0 46.7 0 93.3l-11.9-9.7 0.3-61.6c0.3-9.3-18.3-8.8-18.7 0l0.3 48-32.9-34v-7.5c4.9-22.8 14.4-40.9 40.3-42 18.2 0 22.1 5.7 22.6 13.5zm29.7-13.5c25.9 1.1 35.4 19.2 40.3 42v7.5l-32.9 34 0.4-48c-0.5-8.8-19.1-9.3-18.7 0l0.2 61.6-11.8 9.7q0-46.6 0-93.3c0.4-7.8 4.3-13.5 22.5-13.5z"/>
	<path id="Path 11" fill-rule="evenodd" class="s3" d="m79.1 638.2q-0.2 0-0.5 0c-0.8-0.1-1.8-0.3-2.9-0.7-1-0.3-2.2-0.9-3.5-1.6-5.9-3.7-13.2-12.3-13.2-30.4v-1.6h140v1.6q0 1.2-0.1 2.2c-0.1 3.4-0.5 6.5-1.1 9.2-0.5 2.7-1.4 5.2-2.3 7.3-4.8 10.8-13.4 14-16.7 14h-99.7zm-0.2-3.3h0.2 99.7c2.6 0 9.6-2.7 13.7-12 0.8-1.9 1.6-4.2 2.1-6.7 0.6-2.5 0.9-5.4 1-8.6v-0.4h-133.3c0.5 15.4 6.6 22.7 11.7 25.8 1 0.7 2 1.1 2.8 1.4 0.8 0.3 1.6 0.5 2.1 0.5zm63.2-150.2c-4.4 1.9-8.2 5-11.7 8.8l-1.2 1.4-1.3-1.4c-3.4-3.8-7.2-6.9-11.6-8.8-4.4-1.8-9.3-2.4-15.2-1.4l-1.9 0.3v-2c0.1-16 14.6-21.2 30-21.2 12.4 0 29.8 6.6 29.9 21.2l0.1 2-2-0.3c-5.8-1-10.8-0.4-15.1 1.4zm-12.9 5.4c3.4-3.6 7.2-6.6 11.6-8.4 4.4-1.9 9.3-2.6 14.8-2-1.9-11.6-16.4-16-26.4-16-13.5 0-24.4 3.4-26.5 16 5.6-0.6 10.5 0.1 14.9 2 4.3 1.8 8.1 4.8 11.6 8.4zm-57 13.5c6.5-7.8 15.7-12.9 29.2-13.5h2c9.5 0 13.4 1.6 17 4.2 3.8 2.7 5 6.5 5.3 10.9v0.1 96.8l-2.7-2.2-11.9-9.7-0.6-0.5v-0.8l0.2-61.6v-0.1c0.1-2.2-1.4-3.7-3.5-4.5-1-0.3-2.1-0.5-3.3-0.5-1.2-0.1-2.3 0-3.5 0.3-2.7 0.7-4.9 2.4-5 4.9l0.3 47.9-2.8 1.2-32.9-34-0.5-1.2v-7.5-0.3c2.5-11.7 6.2-22.1 12.7-29.9zm29.2-10.1c-12.3 0.5-20.8 5.1-26.7 12.2-6 7.3-9.5 17.2-11.9 28.3v6.6l29.6 30.6-0.3-43.9v-0.1c0.2-4.2 3.5-6.8 7.5-7.9 1.4-0.3 2.9-0.5 4.4-0.5 1.5 0.1 3 0.3 4.3 0.8 3.4 1.2 5.9 3.8 5.8 7.8l-0.3 60.7 8.6 7v-89.8c-0.2-3.4-1.2-6.3-4-8.3-3-2.2-8.2-3.5-17-3.5zm97.2 40v0.3 7.5l-0.4 1.2-32.9 34-2.9-1.2 0.4-47.9c-0.2-2.5-2.4-4.2-5.1-4.9-1.1-0.3-2.3-0.4-3.5-0.3-1.1 0-2.2 0.2-3.2 0.5-2.1 0.8-3.7 2.3-3.6 4.5v0.1l0.2 61.6v0.8l-0.6 0.5-11.8 9.7-2.8 2.2v-96.8l0.1-0.1c0.2-4.4 1.5-8.2 5.3-10.9 3.6-2.6 7.4-4.2 16.9-4.2h2.1c13.4 0.6 22.7 5.7 29.2 13.5 6.4 7.8 10.1 18.2 12.6 29.9zm-58.9-36.5c-2.8 2-3.7 4.9-3.9 8.3v89.8l8.5-7-0.2-60.7c-0.2-4 2.3-6.6 5.8-7.8 1.3-0.5 2.8-0.7 4.2-0.8 1.5 0 3 0.2 4.4 0.5 4.1 1.1 7.4 3.7 7.6 7.9v0.1l-0.3 43.9 29.5-30.6v-6.6c-2.4-11.1-5.9-21-11.9-28.3-5.9-7.1-14.3-11.7-26.7-12.2-8.7 0-13.9 1.3-17 3.5z"/>
</svg>