<svg version="1.2" xmlns="http://www.w3.org/2000/svg" viewBox="0 0 730 1135" width="730" height="1135">
	<title>Haskovo-pdf</title>
	<style>
		.s0 { fill: #e9e9e9 } 
		.s1 { fill: #7b7979 } 
		.s2 { fill: #fff200 } 
		.s3 { fill: #000000 } 
		.s4 { fill: #ed1c24 } 
		.s5 { fill: #d3d2d2 } 
		.s6 { fill: #bdbcbc } 
	</style>
	<path id="Path 1" class="s0" d="m618.6 224.1l-4 14h-494.5l-3.7-14.8 6.2-2-35.4-137.7-8.3 2.3-10.5-42.8c54.7-15 110.4-25.3 166.8-32.2l3.1 42.8c-2.9 0.7-6.2 1.2-10.3 1.7 3.3 22.7 6.4 45.6 9.4 68.4 20.3-2.5 40.6-4.3 60.9-5.9l-3.7-69.5q-0.5 0-1 0.1c-2.3 0.1-4.6 0.3-7 0.2h-1.4l-0.1-1.4-3.1-39.9-0.2-1.6 1.6-0.1c56.1-4.1 112.6-4 168.7 0.3l1.6 0.1-0.2 1.6-3.2 41.5c-2.9 0.1-5.6-0.2-8.5-0.5q-1.5 34.5-3 69l59.3 6 7.7-68.4c-0.1-0.2-8.3-1-8.5-1.1l3.6-43.3c54.2 6.8 115 16.9 167 33.9l-11.4 42.4-8.1-2.8q-17.7 68.9-35.9 137.7zm104 789c1.4 4.1 1.3 7.4 0.4 10-1.3 3.8-4.2 6.3-6.2 7.5-52 32-108.2 56.8-167.8 73.6-57.9 16.2-119 24.8-182.5 24.8-64.3 0-126.1-8.7-184.5-25.2-59.4-16.9-115.4-41.8-167.2-74-0.7-0.4-1.3-0.8-2-1.2-8.2-6.3-5.5-14.8-5.1-16.2q0.1 0 0.1-0.1l47.3-124.2c4 18.3 21.6 34.5 47.9 48.2 29.2 15.2 69.4 27.4 113.3 36 48.7 9.5 102 14.6 150.2 14.4h0.1c65.5 0 155.9-11 222-34 45.1-15.7 79.1-37.1 86.8-64.8l47.2 125.2c0.1 0.2-0.3-0.7 0 0z"/>
	<path id="Path 2" fill-rule="evenodd" class="s1" d="m630.5 782.4c6.3-13.5 11.6-27.5 15.9-41.7q0-0.1 0.1-0.2 0.2-0.4 0.5-0.8c1.1-1.6 3-3.2 5.3-4.2 2.3-1.1 4.9-1.7 7.6-1.6 2.6 0.2 5.2 1.1 7.4 3.2 2.3 2.1 4.2 5.3 5.2 10 3.5 18.2-6.4 33.1-20.3 44.9-12.8 11-29 19.3-41.2 25.1 7.3-11 13.8-22.7 19.5-34.7zm-508.5 38.1c-12.5-6-30.7-14.9-44.9-27-14.4-12.2-24.7-27.7-21-46.8 1.1-5.2 3.1-8.7 5.5-11.1 2.6-2.4 5.6-3.5 8.6-3.7 2.9-0.2 5.9 0.4 8.6 1.6 3.1 1.5 5.7 3.7 7 6.1q0.3 0.5 0.2 0.9c4.2 13.9 9.4 27.6 15.7 40.8 6.2 13.1 13.4 25.8 21.6 37.7zm386.1 92.3c58.5-14.1 95.8-29 119.5-38.4 8.6-3.5 15.5-6.2 20.7-7.9 0.6-0.1 3.9-1.1 6.5-1.6 1-0.2 1.3-0.5 1.5-0.4l1.3 0.2c3.5-0.2 5.9 0.5 7.8 1.8 1.7 1.3 3 3.2 3.9 5.5 1.3 3.7 1.5 4.4 1.6 6.6 0 8.9-4.6 18.9-13.7 28.9-8.7 9.5-21.4 18.8-38.2 26.8-7.9 3.8-17.3 7.6-27.3 11.2-10.9 3.8-22.5 7.4-34 10.6-6.6 1.8-13.2 3.4-19.5 4.8-5.4 1.3-10.6 2.4-15.6 3.5zm-300.7 51.9c-5-1-10.1-2.2-15.5-3.5-6.7-1.7-12.9-2.9-19.5-5-11.4-2.9-23-6.9-33.9-10.7-10-3.6-19.3-7.6-27.2-11.4-16.8-8-30.2-16.9-38.9-26.4-9.3-9.8-12.8-19.8-12.5-29 0.2-2.2 0-2.5 1-6.4 0.7-1.9 2.1-4.5 3.9-5.8 1.7-1.4 4.2-2.3 7.7-2.1 1.3 0 1.8 0.2 2.9 0.2 2.7 0.5 6 1.4 6.5 1.6l0.1 0.1c5.3 1.6 12.1 4.3 20.7 7.8 23.7 9.5 60.8 24.4 119.3 38.4z"/>
	<path id="Path 3" class="s2" d="m659.7 234.4v424.5c0 32.1-5.2 63-14.8 91.7-19.2 57.4-56 106.4-104.1 141-24.1 17.3-51.1 31-80 40.4-29 9.4-59.9 14.5-92.2 14.5q-1 0-2 0h-1.2c-1.1 0-2.3 0-3.2 0-80.8 0-153.9-31.8-206.7-83.9-52.4-51.7-84.8-123.4-84.8-203.6v-424.6z"/>
	<path id="Path 4" fill-rule="evenodd" class="s3" d="m14.2 692.7c-6.5-29-10.2-59.2-11.1-90.4v-1.8l1.6-0.8 66-33.7v-331.6h47.7l-3-11.8-0.2-0.9 0.9-0.3 5.3-1.7-34.9-135.8-7.3 2-1 0.3-0.2-1-10.6-42.7-0.2-1 0.9-0.2c27.4-7.6 55-13.9 82.9-19.2 27.8-5.4 55.9-9.7 84.1-13.1l1-0.1 0.1 1 3.1 42.8 0.1 0.9-0.8 0.1q-2.2 0.5-4.8 1-2.2 0.3-4.7 0.7 2.4 16.3 4.7 33.1 2.3 16.6 4.5 33.2 14.6-1.7 29.4-3.1 15.1-1.4 29.6-2.5l-3.7-67.6q-0.1 0-0.1 0.1c-2.3 0.1-4.5 0.3-6.9 0.2h-1.4-0.9l-0.1-0.9-0.1-1.5-3.1-39.9-0.2-1.6v-1h1l1.6-0.2c28-2 56.2-3 84.3-2.9 28.2 0 56.4 1.1 84.4 3.3l1.6 0.1 1 0.1-0.1 1-0.1 1.6-3.2 41.5-0.1 0.8-0.9 0.1q-2.2 0-4.3-0.1c-1-0.1-2.1-0.2-3.2-0.3l-3 67 57.4 5.8 7.6-66.7c-1.1-0.1-4-0.3-5.9-0.5-1-0.1-1.7-0.2-1.8-0.2l-0.8-0.2v-0.9l3.6-43.3 0.1-1 1 0.1c27.1 3.4 55.9 7.6 84.4 13.1 28.6 5.5 56.8 12.3 82.8 20.9l0.9 0.3-0.2 0.9-11.4 42.3-0.3 1.1-1-0.4-7.1-2.4-35.4 135.7 5.2 1.7 1 0.3-0.3 0.9-3.2 11h43.3v331.5l66 33.8 1.6 0.8v1.8c-0.9 31.2-4.6 61.4-11.1 90.4-6.5 28.9-15.7 56.5-27.5 82.8 1.8 4.7 3.7 9.5 5.5 14.4 11.8 30.5 24.1 62.6 32.7 79.4 1.9 3.6 3.3 8.8 2.6 13.8-0.6 4-2.5 7.8-6.5 10.6q-8.3 5.9-16.6 11.4-7.3 4.8-14.9 9.5l36.4 96.4 0.1 0.3c1.8 5.4 1.6 9.9 0.4 13.6-1.9 5.4-5.9 8.8-8.7 10.5-52.3 32.2-109 57.2-169.1 74.1-58.4 16.5-120 25.1-184 25.1-64.9 0-127.2-8.7-186.1-25.5-60.2-17-116.8-42.3-169.3-74.9-1.3-0.8-2.5-1.8-3.6-2.7-9.2-8.4-5.8-19-5.2-20.8q0-0.1 0.1 0 0 0 0 0 0 0.1 0 0.1v-0.1-0.4l36.5-95.8q-7.6-4.8-14.9-9.6-8.3-5.5-16.5-11.3c-4-2.9-5.9-6.7-6.5-10.7-0.7-4.9 0.6-10.1 2.5-13.8 8.6-16.7 21-48.8 32.7-79.4 1.8-4.7 3.7-9.5 5.5-14.1-11.9-26.3-21.1-54-27.6-82.9zm488.6 222c-13.4 6.8-27.5 12.6-42 17.3-29 9.4-59.9 14.5-92.2 14.5q-1 0-2 0h-1.2c-1.1 0-2.3 0-3.2 0-48.7 0-94.5-11.5-134.8-32.1l0.6-2-5.5-1.5-0.4 1.6c-58.7-14.1-95.4-28.8-118.8-38.3-13.2-5.2-22.2-8.8-28.3-9.6-4-0.5-6.9-0.1-9 1.1-2.1 1.2-3.5 3.1-4.6 5.6l-0.9 2.5q-0.6 3.3-0.6 6.4c0.1 19.2 17.6 36.4 45.7 51 26.5 13.8 62.3 25.1 101.8 33.5l-1 3.5 5.5 1.6 1.1-4q2.2 0.5 4.4 0.9c48.3 9.5 101.2 14.5 149.2 14.3 43.9 0 99.2-5 150.6-15.2zm-278-1.6q-1.4-0.3-2.8-0.6l-14.6 52.2q2.7 0.6 5.5 1.1l14.5-51.4q-1.3-0.6-2.6-1.3zm-142.6-172.7c-0.5-1.1-1.5-2.1-2.6-2.9-1.8-1.4-4.1-2.2-6.5-2.5-2.4-0.3-4.8-0.1-6.8 1-1.3 0.6-2.4 1.5-3.4 2.7-0.6 0.9-1.3 2.4-2 3.7-5.8 18 3 33 16.4 45.1 10.9 9.9 25 17.9 37.1 24-13.8-21.8-24.7-45.7-32.2-71.1zm-62.5-49c5.9 26.7 14.3 52.3 24.9 76.8 1.9-5 3.8-9.9 5.7-14.5l4.1-10.6c0.1-0.1 0.1-0.2 0.1-0.3 0.4-0.9 2.4-5.3 3.8-7.3h0.1c1.4-2.1 3.3-3.6 5.4-4.6 3.1-1.5 6.6-2 10-1.5 2 0.2 4 0.8 5.9 1.6q-0.6-2.1-1.1-4.1 0-0.3-0.2-0.9-0.4-1.9-0.9-3.8-0.1-0.5-0.2-1c-0.3-1.5-0.6-2.7-0.7-3.1q-0.1-0.5-0.2-1c-2-10.1-3.5-17.6-4.5-30.6q-1.3-13.6-1.3-27.5v-86.7l-61.8 31.6c0.9 30.3 4.6 59.5 10.9 87.5zm633.6 96.2c13.3-12 21.9-26.8 16.3-44.6-0.6-1.5-1.5-3.3-2.3-4.3h0.1c-1-1.2-2.1-2.1-3.4-2.7-2-1.1-4.4-1.3-6.8-1-2.4 0.3-4.7 1.1-6.5 2.5-1.1 0.8-2 1.7-2.6 2.8q-1.5 5.2-3.2 10.3c-7.3 21.7-17.1 42.2-29 61.2 12.3-6.3 26.4-14.3 37.4-24.2zm57.3-96.2c6.3-28 10-57.2 10.9-87.5l-61.8-31.6v86.5 0.1q0 0.6-0.1 1.2 0 12.7-1.1 25.2c-1.1 13.7-2.6 21.4-4.6 31.8q-0.1 0.5-0.2 1c-0.1 0.4-0.4 1.6-0.7 3.1q-0.1 0.2-0.1 0.4-0.6 2.9-1.3 5.7-0.3 1-0.5 2-0.2 0.8-0.4 1.7c1.8-0.8 3.8-1.4 5.8-1.6 3.4-0.5 6.9 0 10 1.5 2.1 1 3.9 2.5 5.4 4.6h0.1c0.9 1.2 2 3.4 2.7 5.1h0.1q0.2 0.5 0.4 1.1c0.3 0.5 0.5 0.9 0.6 1.1 0 0.1 0 0.2 0.1 0.3l1.1 2.8c2.7 6.7 5.7 14.2 8.8 22.1 10.5-24.4 18.9-49.9 24.8-76.6zm-56.6-451.4h-577.7v419c0 58.9 17.8 113.2 48.4 158q0 0 0 0 3.5 5.1 7.1 9.9c8.4 11.3 17.6 21.8 27.6 31.7q2.3 2.2 4.7 4.5 3.4 3.2 7 6.3 7.8 6.9 16.2 13.3c12.3 9.3 25.4 17.7 39.3 25q0.3 0.1 0.6 0.3c40.2 21 86.1 32.9 134.9 32.9 0.8 0 2-0.1 3.2-0.1h0.1 1.2q1 0.1 2 0.1c31.6 0 62-5 90.4-14.2 28.4-9.2 54.8-22.7 78.4-39.7 47.2-33.9 83.3-81.9 102.1-138.2 9.4-28.1 14.5-58.4 14.5-90zm-28.6 32.5h2.8v2.8 376.2c-0.1 71.7-29 135.8-75.8 182-47 46.5-112.1 74.9-184.2 74.9q-0.9 0-1.8 0c-0.4 0-0.8 0-1.1 0l-2.3-5.6q0.6 0 1.2 0c0.4 0 0.7 0 1.1 0h0.1c0.4 0 0.7 0 1.1 0q0.9 0 1.7 0c70.6 0 134.3-27.8 180.3-73.3 45.7-45.2 74-107.9 74.1-178v-373.4h-514.9v1.2l-2.8-6.8zm-517.7 6.8v372.3c0 70.1 28.3 132.7 74.1 177.9 46.1 45.5 110 73.3 180.6 73.3q0.3 0 0.6 0l2.3 5.6c-0.3 0-0.7 0-1 0q-0.9 0-1.9 0c-72.1 0-137.4-28.4-184.6-74.9-46.8-46.2-75.7-110.2-75.7-181.9v-379.2h2.8zm0 0l255.3 623.5q0 0 0 0l-255.3-623.5zm414.8 685c5-1 10.3-2.2 15.7-3.4 6.3-1.4 12.9-3 19.5-4.9 11.4-3.1 23.1-6.7 33.9-10.6 4.5-1.5 8.8-3.2 12.9-4.8 14.9-6.1 28-13 38.5-20.6 5.5-4.1 10.2-8.3 14.1-12.5 9.2-10 13.8-20.1 13.8-28.9-0.2-2.3-0.4-2.9-1.6-6.6-0.9-2.3-2.2-4.3-4-5.5-1.8-1.3-4.3-2-7.7-1.8l-1.3-0.3c-0.2 0-0.6 0.3-1.5 0.5-2.7 0.5-5.9 1.4-6.5 1.6-5.3 1.7-12.1 4.4-20.8 7.9-23.7 9.4-60.9 24.2-119.5 38.4zm-466.4-95.2v-0.1c1.6-3.6 3.8-6.5 7.1-8.3 3.1-1.7 7.2-2.4 12.5-1.8 6.8 0.9 16 4.6 29.6 10.1 21 8.4 52.6 21.1 101.3 33.7-13.9-8.6-27-18.3-39.3-29.2-17.5-15.5-33.1-33.2-46.8-52.7-13.8-6.7-32.8-16.3-47-29.1-10-9.1-17.7-19.7-19.6-31.9-3.9 9.8-8.1 20.8-12.4 31.9-11.8 30.6-24.2 62.9-32.9 80-1.5 2.7-2.6 6.7-2 10.4 0.4 2.5 1.6 5 4.2 6.8q8 5.7 16.4 11.2 6.9 4.6 13.8 8.9l4.1-10.6zm618.2 0.1l2.4 6.4h0.1l12.6 33.5q6.9-4.3 13.8-8.9 8.4-5.5 16.4-11.2c2.6-1.8 3.8-4.3 4.2-6.9 0.5-3.7-0.5-7.6-2-10.4-8.7-17.1-21.1-49.3-32.9-79.9-4.3-11.1-8.5-22-12.4-31.9-1.9 12.2-9.4 22.7-19.4 31.7-14.2 12.8-33.2 22.4-47.2 29.3-13.7 19.5-29.4 37.2-46.9 52.7-12.2 10.8-25.3 20.6-39.3 29.2 48.7-12.6 80.4-25.3 101.4-33.8 13.6-5.4 22.8-9.1 29.6-10 5.3-0.7 9.4 0 12.5 1.8 3.3 1.8 5.5 4.7 7.1 8.3zm-3.7-124.2c0 0.1 0 0.2 0 0.2zm51.9 267.8l-47.1-125.2c-7.7 27.7-41.7 49.1-86.9 64.8-66.1 23-156.5 34-222 34-48.3 0.2-101.6-4.9-150.2-14.4-44-8.6-84.1-20.8-113.4-36-26.3-13.7-43.9-29.9-47.9-48.2l-47.3 124.2q0 0.1 0 0.1c-0.4 1.4-3.2 9.9 5.1 16.2 0.7 0.4 1.2 0.8 1.9 1.2 51.8 32.2 107.8 57.1 167.2 74 58.5 16.5 120.2 25.2 184.6 25.2 63.5 0 124.6-8.6 182.5-24.8 59.5-16.8 115.7-41.6 167.7-73.6 2-1.2 4.9-3.7 6.2-7.5 0.9-2.6 1.1-5.9-0.3-10l2.4-0.8 0.2-0.2zm-593-41l-28.6 70.6q-1.3 3.3-3.9 4.1-2.7 0.9-6.1-0.5l-5.8-2.4q-4.4-1.8-5.2-4.9-0.6-2 0.5-4.6l28.5-70.6q1.5-3.7 4.7-4.4 2.4-0.4 5.4 0.8l5.7 2.3q3.2 1.3 4.5 3.1 1.9 2.5 0.3 6.5zm-12-8.3l-30.9 76.5 5.7 2.4 30.9-76.6zm37.5 49.7l-14.9 43.3q-1.2 3.4-3.7 4.4-2.6 1-6.2-0.3l-5.8-2q-4.5-1.5-5.5-4.6-0.7-2 0.2-4.7l24.8-72q1.3-3.8 4.5-4.6 2.3-0.5 5.4 0.5l5.9 2q3.2 1.2 4.6 2.9 2 2.4 0.6 6.5l-4.8 13.9-7.6-2.6 5.9-17-5.9-2-26.9 78.1 5.9 2 16-46.4zm20.8-33.9l24.5 7-1 3.7-8.5-2.4-23.8 83.1-7.7-2.2 23.8-83.1-8.4-2.4zm56.4 21.8l-18.4 73.8q-0.9 3.6-3.4 4.7-2.5 1.2-6.1 0.3l-6-1.5q-4.7-1.2-5.9-4.1-0.9-2-0.2-4.7l18.5-73.9q0.9-3.9 4-5 2.3-0.7 5.4 0.1l6 1.5q3.4 0.8 4.9 2.4 2.2 2.2 1.2 6.4zm-13-6.6l-20 80.1 6 1.5 20-80.1zm51.1 4.5l-17.6 90.6-7.9-1.5 13.7-70.6-7.9 8.5-11.9 60.9-7.8-1.5 17.2-88.7 7.9 1.5-4.1 20.7zm-16.8-7.4l1.3-6.8 13.5 2.6-1.4 6.8zm28.8 10.3l8 1-3.4 27.5 6.1 0.8 3.4-27.5 8 0.9-11 89.7-8-1 7.2-58.3-6.2-0.7-7.1 58.3-8-1zm57.4 42.7l-4 45.6q-0.3 3.6-2.6 5.1-2.3 1.6-6 1.3l-6.2-0.6q-4.7-0.4-6.4-3.1-1.2-1.8-0.9-4.6l6.6-75.9q0.3-4 3.2-5.5 2.2-1.1 5.4-0.9l6.2 0.6q3.4 0.3 5.1 1.6 2.6 1.9 2.2 6.1l-1.3 14.7-7.9-0.7 1.5-17.9-6.2-0.5-7.1 82.3 6.1 0.5 4.3-48.8zm12.9-38.6l25.5 0.9-0.1 3.9-8.8-0.3-3 86.4-8-0.3 3-86.4-8.8-0.3zm33.5 0l14.2-0.5q3.5-0.1 5.3 1 2.8 1.6 3 5.8l0.5 15.5q0.1 2.7-0.9 4.3-1.3 2.1-4.4 3 2.9 0.4 4.3 2.2 1.4 1.8 1.5 4.7l1.6 46.4q0.1 3.6-1.9 5.4-2.1 1.8-5.8 2l-14.2 0.5zm9.1 31.3l1.9 54.8 6.2-0.2-1.9-54.8zm-1-27.7l0.8 23.8 6.2-0.2-0.8-23.9zm51.5 0.4l6.6 75.9q0.3 3.6-1.7 5.5-1.9 1.9-5.6 2.3l-6.2 0.5q-4.8 0.4-6.9-2-1.5-1.5-1.7-4.4l-6.6-75.8q-0.4-4 2.1-6 2-1.5 5.2-1.8l6.2-0.5q3.4-0.3 5.4 0.7 2.8 1.4 3.2 5.6zm-14.5-1.9l7.2 82.2 6.2-0.5-7.2-82.3zm68.6-16l17.6 90.6-7.9 1.5-13.7-70.5-4.2 10.8 11.8 60.9-7.8 1.5-17.3-88.6 7.9-1.6 4 20.7zm34.4-5.2l13.7-3.9q3.3-0.9 5.4-0.3 3 0.9 4.2 5l4.3 14.8q0.7 2.6 0.2 4.4-0.8 2.4-3.6 4 2.9-0.3 4.7 1.1 1.8 1.4 2.6 4.2l12.8 44.6q1 3.5-0.6 5.8-1.5 2.2-5.1 3.3l-13.7 3.9zm16.4 28.1l15.1 52.8 6-1.7-15.1-52.8zm-7.7-26.6l6.6 22.9 6-1.7-6.6-22.9zm46.4-19l30.8 84.9-7.5 2.7-20.1-55.1-5.8 2.1 20.1 55.2-7.5 2.7-18.1-49.7q-1.3-3.5-0.7-5.7 0.5-2.1 3.9-3.7-6.2 1.3-8.3-4.6l-5.3-14.5q-1.3-3.8 0.6-6.4 1.5-1.9 4.5-3zm-6.2 6.4l-5.8 2.1 8.2 22.4 5.8-2.1zm21.4-11.9l13.1-5.4q3.3-1.3 5.4-0.9 3.1 0.6 4.7 4.5l17.3 42.7q1.4 3.6-0.4 6.3-1.4 2-4.4 3.2l-5.8 2.3 11.3 28-7.4 3zm34.3 46.8l-19.7-48.5-5.7 2.3 19.6 48.6zm37.9 22.5l-35.1-75.4q-1.7-3.6 0-6.4 1.3-2 4.2-3.4l5.6-2.6q3.2-1.5 5.3-1.2 3.2 0.4 5 4.2l35.1 75.5-7.2 3.3-24.8-53.2-5.6 2.7 24.8 53.2zm-29.3-81.8l10.1 21.7 5.6-2.6-10.1-21.7zm-609.9 67.4l3.5 1.7 33.5-71.9q1.7-3.7 5-4.2 2.4-0.3 5.3 1.1l5.6 2.6q3.2 1.5 4.3 3.3 1.8 2.7 0 6.5l-33.6 72 3.5 1.6-1.6 3.5-27.1-12.6zm45.6-69.9l-34.9 74.9 5.6 2.6 34.9-74.9zm28.8-802.9q14.4-3.8 28.8-7.1 14.5-3.4 28.9-6.3l-5.8-31.6q-15.1 3-30 6.4-15 3.5-29.9 7.4zm66.4-15.2q12.6-2.4 25.5-4.5 12.8-2 25.6-3.8l-4.1-31.7q-13.3 1.8-26.5 3.9-13.2 2.1-26.4 4.6zm128.1-15.8q6.5-0.4 13.1-0.7 7.1-0.4 14.3-0.6 7-0.2 14.2-0.3 6.6-0.1 13.3-0.2v-32.3q-6.5 0.1-13.4 0.2c-5 0.1-10 0.2-15.1 0.4-5.1 0.2-10.1 0.5-15.1 0.8-4.6 0.3-9.2 0.7-13.4 1.2l0.3 3.9c0.3 4.2 0.8 9.9 1.1 15.3 0.4 4.8 0.6 9.3 0.7 12.3zm63.6-1.8c10.1 0.1 20.2 0.2 30.3 0.4q15.2 0.4 30.3 1.4l1.6-32q-15.6-1.1-31.2-1.6-15.7-0.6-31.3-0.5zm135.7 9.7c2.3 0.1 5.2 0.4 8.6 0.9 4.7 0.7 10.2 1.6 15.7 2.6 6 1.1 11.9 2.2 16.7 3.2 4.4 0.8 8 1.5 10.3 2l5.5-32q-6.5-1.3-12.7-2.4-6.8-1.3-13.7-2.4-6.7-1.1-13.7-2.2-6.5-0.9-12.8-1.7zm59.9 10.4q14.7 3 29.1 6.4 14.5 3.5 28.9 7.3l8-31.2c-10-2.7-20.2-5.3-30.6-7.8-10-2.4-20-4.6-29.8-6.6zm55.9 21.7q-6.3-1.7-12.7-3.3-6.2-1.6-12.6-3.1l-5.3 26q6 1.4 12 3 6 1.5 12 3.1zm-34-8.5q-6.4-1.5-13-2.9-6.9-1.5-13.9-2.9-7.3-1.4-14-2.7-6.5-1.2-13-2.3l-3.8 26.2q13.2 2.3 26.3 4.9 13.1 2.7 26.1 5.7zm-62.5-12.3q-14.2-2.3-28.4-4.2-14.2-1.9-28.5-3.4l-1.8 26.4q13.8 1.5 27.5 3.3 13.7 1.9 27.4 4.1zm-65.2-8.7q-13.7-1.3-27.7-2.1-13.9-0.8-27.7-1.3l-0.2 26.4q13.4 0.5 26.8 1.5 13.2 0.9 26.8 2.2zm-63.8-3.8q-7-0.2-13.9-0.3-7.5-0.1-14.9-0.1-7.3 0-14.8 0.1-6.9 0.1-13.9 0.2l0.8 26.4q14.2-0.3 28.3-0.3 14.1 0 28.2 0.5zm-65.9 0.1q-6.6 0.3-13.3 0.6-7.1 0.3-14.3 0.8-7.2 0.4-14.4 1-7 0.6-13.2 1.1l2.4 26.4q13.6-1.3 26.8-2.1 13.4-0.9 26.8-1.4zm-63.7 4.3q-6.8 0.7-13.7 1.5-7.4 0.9-14.6 1.8-7.1 0.9-14.5 2-6.9 1-13.6 2l4.3 26.2q13.5-2.2 27.1-4 13.6-1.7 27.2-3.1zm-65 8.7q-6.6 1.1-13 2.3-6.9 1.2-14.1 2.7-7.1 1.4-13.9 2.8-6.6 1.4-13 2.9l6.4 25.7q12.9-3 25.9-5.5 12.9-2.6 26-4.8zm-62.8 12.7q-6.3 1.5-12.3 3-6.1 1.5-12.3 3.2l6.6 25.6q6.1-1.6 12.1-3.1 6.2-1.5 12.3-3zm43.9 82.4c60.1-12.4 121.5-18.7 182.9-18.7 61.4 0 122.9 6.2 183 18.7h60.6l0.7-2.5c-78.8-21.8-160.4-32.8-242.1-32.9-81.6-0.2-163.3 10.4-242.2 31.8l0.8 3.6zm-52.4-13.4q13.1-3.5 26.2-6.5 13.1-3.1 26.2-5.7l-5.8-29.4q-6.7 1.4-13.1 2.7-7 1.6-14 3.2-7 1.6-13.9 3.3-6.5 1.6-13 3.3zm108.4-21.7l-3.7-29.9q-5.6 0.8-11.5 1.7-6.5 1-12.8 2-6.6 1.1-13.1 2.3-5.9 1-12.1 2.2l6.1 29.8c10.9-3.7 24-5.3 36.3-6.7 3.7-0.5 7.4-0.9 10.8-1.4zm70.6-7q13-0.8 26.1-1.2 13-0.5 26.1-0.5v-30.1q-6.4 0-12.8 0.1-6.9 0.2-13.8 0.4-6.9 0.2-13.8 0.5-6.4 0.3-12.9 0.7zm60.5-1.7q14 0.1 28 0.6 14 0.4 27.9 1.3l0.9-30.1q-14.2-0.9-28.4-1.3-14.2-0.5-28.4-0.6zm64.3 2.5q13.2 1 26.8 2.3 13.3 1.4 26.6 3.1l4-29.7q-14-1.9-28.1-3.3-14-1.4-28.4-2.5zm62.1 6.7q11.9 1.7 23.8 3.7 12 2 23.8 4.4l6.2-29.4q-12.4-2.5-24.8-4.6-12.5-2.1-25-3.9zm56.4 9.8q13.4 2.8 26.5 5.9 13.2 3.1 26.4 6.7l7.6-29.1q-13.5-3.6-27-6.8-13.7-3.2-27.2-6zm-468-130.7c24.3-6 48.3-11.5 72.5-16.3 24.2-4.9 48.5-9.2 73.2-12.8l-2.2-28.6c-25.5 3.2-50.8 7.4-75.9 12.4-25.1 5-50 10.9-74.8 17.6zm207.6-35.1c25.2-1.4 50.5-2.2 75.8-2.3 25.2 0 50.5 0.8 75.7 2.6l2.3-28.6c-26-1.9-52.1-2.8-78.1-2.9-25.9 0-52 0.8-77.9 2.6zm213.4 6.3c24.5 3.7 49.1 8 73.5 12.9 24.4 5 48.6 10.7 72.5 17.3l6.9-28.2c-24.7-6.8-49.6-12.7-74.8-17.7-25.2-5.1-50.5-9.3-75.9-12.6zm135.8 35.8q-7.1-1.9-14.2-3.7-7-1.8-14.3-3.5l-5.8 26.5 13.8 3.4 13.7 3.7zm-37.1-9.3q-14.8-3.4-29.8-6.4-14.9-2.9-29.8-5.5l-3.8 26.7q14.5 2.4 28.9 5.4 14.4 2.9 28.6 6.2zm-68.1-13.3q-5.3-0.8-11-1.7-5.6-0.8-11-1.6l-3.2 26.9q5.5 0.7 10.7 1.5 5.2 0.7 10.7 1.6zm-101.9-11.4q-7-0.5-13.9-0.9-6.9-0.3-13.8-0.6l0.2 27q6.6 0.3 13.1 0.6 6.6 0.4 13.1 0.8zm-36-1.7q-15.4-0.5-30.8-0.5-15.3 0-30.7 0.4l0.7 27c10-0.3 20.3-0.5 30.5-0.5 10.2 0.1 20.4 0.3 30.5 0.6zm-69.8 0.1q-6.5 0.3-12.9 0.6-6.5 0.3-12.9 0.7l1.5 27.8q6.3-0.7 12.4-1.1 6.2-0.5 12.5-0.8zm-124.9 39.4q5.5-0.8 10.5-1.6 5.1-0.7 10.5-1.4l-3.6-27.2q-5.4 0.7-11 1.6-5.7 0.8-11 1.6zm-13.3-25.5c-9.8 1.6-19.6 3.5-29.2 5.4-9.7 2-19.4 4.2-29.1 6.4l5.9 26.2q14.3-3.2 28.5-6 14.2-2.7 28.5-5.1zm-67 13.8c-8.1 2-16.1 4.1-24.2 6.2q-1.8 0.5-3.7 1l6.6 25.7q6.8-1.7 13.6-3.4 6.9-1.7 13.6-3.3zm124.4 120.1q13.3-1.7 26.7-3 13.6-1.3 26.8-2.2l-1.1-30.1q-6.8 0.4-13.7 1-7.7 0.7-14.4 1.3-7.2 0.7-14.5 1.6-6.9 0.8-13.6 1.6zm423.4 550.7q0 0 0 0z"/>
	<path id="Path 5" class="s4" d="m622.6 651.5c-0.1 70.1-28.3 132.8-74.1 178-46 45.5-109.7 73.3-180.2 73.3q-0.9 0-1.8 0c-0.3 0-0.7 0-1.1-0.1-0.5 0.1-0.8 0.1-1.2 0.1q-0.9 0-1.7 0c-70.6 0-134.5-27.8-180.6-73.3-45.8-45.2-74.1-107.8-74.1-177.9v-373.5h514.8z"/>
	<path id="Path 6" fill-rule="evenodd" class="s2" d="m364.4 287.4c73 1.1 131 59.3 131 130.5 0 64.8-47.5 118.8-109.5 128.9v129.9 61.8 19.8l46.6-46.4h12.7v-14.7h-42.1v14.7h8.9l-26.1 26.6v-61.8h81.1v73.3h-21.8v-14.4h-12.7v61.2h12.7v-16.3h21.8v75.5h-81.1v-61.7l26.3 26h-9.1v14.7h42.1v-14.7h-12.7l-46.6-46.7v-15.3 15.3 20.7-0.1 61.8 16.2h-17.6-7.6-18.2v-16.2h-80.9v-75.5h21.5v16.3h12.7v-61.2h-12.7v14.4h-21.5v-73.3h80.9v61.6l-25.9-26.4h8.6v-14.7h-42.1v14.7h12.7l46.7 46.4v-20l0.1-61.6h-0.1v-129.9c-61.9-10.1-109.5-64.1-109.5-128.9 0-71.3 58.2-129.5 131.4-130.5zm-68.6 532.9h-12.7v14.7h42.1v-14.7h-9l26.3-25.9v-20.7zm67-532.9c1.2 0 1.6 0 2.8 0zm10.6 164.5v-24.9h25.4v-17.4h-25.4v-25c-6.2 0-12.3 0-18.5 0v25h-25.4v17.4h25.4v24.9c6.2 0 12.3 0 18.5 0zm-9.3-139.4c-57.2 1-106 48-106 105.4 0 50.9 36.3 93.6 84.4 103.4v-83.4h-35.9c2.1 1.8 3.4 4.5 3.4 7.5 0 5.4-4.4 9.9-9.9 9.9-5.4 0-9.9-4.5-9.9-9.9q0-0.5 0.1-1-2 0.3-4.1 0.3c-15.4 0-28-12.6-28-28 0-15.5 12.6-28.1 28-28.1q2.1 0 4.1 0.3-0.1-0.2-0.1-0.4c0-5.4 4.5-9.9 9.9-9.9 5.5 0 9.9 4.5 9.9 9.9 0 2.6-1 5-2.7 6.8h35.2v-33.3c-1.8 1.5-4 2.4-6.4 2.4-5.5 0-9.9-4.5-9.9-9.9 0-5.4 4.4-9.9 9.9-9.9q0.2 0 0.4 0-0.3-2-0.3-4c0-14.6 11.2-26.6 25.5-27.9l2.4-0.2 2.4 0.2c14.4 1.2 25.6 13.3 25.6 27.9q0 2-0.3 4 0.2 0 0.5 0c5.4 0 9.8 4.5 9.8 9.9 0 5.4-4.4 9.9-9.8 9.9-2.5 0-4.7-0.9-6.4-2.4v33.3h35.1c-1.6-1.8-2.7-4.2-2.7-6.8 0-5.4 4.5-9.9 9.9-9.9 5.4 0 9.9 4.5 9.9 9.9q0 0.2 0 0.4 2-0.3 4-0.3c15.5 0 28.1 12.6 28.1 28.1 0 15.4-12.6 28-28.1 28q-2.1 0-4.1-0.3 0.1 0.5 0.1 1c0 5.4-4.5 9.9-9.9 9.9-5.4 0-9.9-4.5-9.9-9.9 0-3 1.4-5.7 3.5-7.5h-35.9v83.4c48-9.8 84.3-52.5 84.3-103.4 0-57.5-48.8-104.4-106.1-105.4q0 0 0 0 0 0 0 0zm0 0q0 0 0 0 0 0 0 0zm1.5-25.1h0.8zm-3.4 0h0.6z"/>
	<path id="Path 7" fill-rule="evenodd" class="s3" d="m366.4 284.6c36.4 1.1 69.1 16.1 92.7 39.7 24.2 24.1 39.1 57.2 39.1 93.6 0 32.9-11.9 63-31.7 86.2-19.6 23.1-46.9 39.4-77.8 45.1v124.7h-5.6v-129.5l2.4-0.4c30.5-5 57.4-20.9 76.7-43.5 18.9-22.3 30.4-51.1 30.4-82.6 0-34.8-14.3-66.5-37.4-89.6-23.1-23.1-55.2-37.5-90.8-38.1-35.8 0.5-67.9 15-91 38-23.3 23.1-37.5 54.8-37.5 89.7 0 31.5 11.4 60.3 30.3 82.6 19.3 22.6 46.2 38.5 76.8 43.5l2.3 0.4v2.4 127.1h-2.7-2.9v-124.7c-30.9-5.7-58.2-22-77.8-45.1-19.7-23.2-31.7-53.3-31.7-86.2 0-36.4 14.9-69.6 39.2-93.7 23.7-23.6 56.5-38.6 92.9-39.6 0 0 0.2 0 0.6 0 0.7 0 1.9 0 2.8 0 0.4 0 0.7 0 0.7 0zm-21.1 584.8h12.9 2.5 7.6 0.1 14.7v-10.6h5.6v13.4 2.8h-2.8-17.6-0.1-4.9-2.6-18.2-2.8v-2.8-13.4h5.6zm43.4-16.3h75.4v-69.8h-16.1v16.4h-18.3v-66.9h18.3v14.4h16.1v-67.7h-75.4v-5.6h81.1v78.9h-27.4v-14.4h-7.1v55.6h7.1v-16.4h27.4v81.2h-81.1zm0-60.1l25.5 25.2-2 4.9h-6.3v9h36.5v-9h-11.1l-0.8-0.9-41.8-41.9v-7.9l44.9 45h14.4v20.3h-47.7v-20.3h5.1l-16.7-16.5zm0 8v52.1-52.1zm0-69.4l16.6-16.9h-5v-20.4h47.7v20.4h-14.4l-44.9 44.7v-7.9l41.8-41.7 2-0.8h9.9v-9h-36.5v9h12.8l-4.7 4.8-25.3 25.8zm-0.8 8.9l0.8-0.8v11.8l-4.8 4.8-0.8 0.9v-18.6zm-4.9 16.6v16.5-16.5zm0.9 18.4l4.8 4.9v12.7l-0.9-0.9-4.8-4.7v-13.9zm4.9-96v52-52zm-0.1 79.9v12.9-12.9zm-127.1-85.6h78.1v5.7h-75.3v67.6h15.9v-14.4h18.4v66.9h-18.4v-16.4h-15.9v69.9h75.3v-3.7 9.3h-80.9v-81.1h27.2v16.4h7.1v-55.7h-7.1v14.4h-27.2v-78.9zm78.1 106.6l-41.9 41.8-2 0.8h-9.8v9.1h36.4v-9.1h-6.2l-2-4.8 25.5-25v-12.8l4.8-4.8 0.8-0.8v12.8l-4.8 4.7-0.8 0.9v7.9l-16.6 16.3h4.9v20.3h-47.7v-20.3h14.4l45-45v-13l-45-44.8h-14.4v-20.3h47.7v20.3h-4.7l16.4 16.7v8.1l-25.1-25.6-4.7-4.8h12.5v-9.1h-36.4v9.1h9.8l2 0.8 41.9 41.6zm0-49v-51.9 51.9zm0 20v-12l0.8 0.8 4.8-1.9v18.8l-0.8-0.9zm5.6-13.2v-64.4h0.1v2.8zm-5.7 111.2v-48.3h0.1zm25.9-565c-0.9 0-2.5 0-2.8 0 0.6 0 1 0 1.4 0 0.4 0 0.8 0 1.4 0zm-1.3 25.2h0.1c29.5 0.5 56.8 13 76.6 32.7 19.7 19.5 32.1 46.2 32.1 75.5 0 25.9-9.2 49.7-24.4 68.3-15.6 19.1-37.4 32.7-62.3 37.8l-3.4 0.7v-89.6h38.8l1.8 4.9c-0.7 0.7-1.4 1.5-1.8 2.4-0.4 0.9-0.6 1.9-0.6 3 0 1.9 0.8 3.7 2 5 1.3 1.2 3.1 2 5 2 2 0 3.7-0.8 5-2 1.3-1.3 2.1-3.1 2.1-5q0-0.1 0-0.4c-0.1-0.3-0.1-0.3-0.1-0.3l-0.3-3.6 3.5 0.5q0.8 0.1 1.9 0.2 1 0 1.8 0.1c7 0 13.3-2.9 17.8-7.4q0.1 0 0.1 0c4.5-4.6 7.3-10.9 7.3-17.9 0-6.9-2.8-13.2-7.3-17.8q0 0-0.1 0c-4.5-4.5-10.8-7.4-17.8-7.4q-0.8 0-1.8 0.1-1 0.1-1.8 0.2l-3.4 0.5 0.2-3.4c0-0.1 0-0.1 0-0.1 0-0.1 0-0.2 0-0.2 0-2-0.8-3.7-2.1-5-1.3-1.3-3-2.1-5-2.1-1.9 0-3.7 0.8-5 2.1-1.2 1.3-2 3.1-2 5 0 0.9 0.1 1.8 0.5 2.6 0.3 0.8 0.8 1.6 1.4 2.2l4.5 4.8h-44.6v-42.2l4.7 3.9q1 0.9 2.1 1.3 1.2 0.4 2.5 0.4c1.9 0 3.7-0.8 4.9-2 1.3-1.3 2.1-3.1 2.1-5 0-2-0.8-3.7-2.1-5-1.2-1.3-3-2.1-4.9-2.1q-0.1 0-0.2 0c-0.1 0 0 0-0.1 0l-3.4 0.2 0.5-3.4q0.1-0.8 0.1-1.8 0.1-1 0.1-1.8c0-6.6-2.5-12.6-6.6-17-4.1-4.6-9.9-7.6-16.4-8.1l-2.1-0.2-2.4 0.2c-6.4 0.6-12.1 3.6-16.2 8.1-4.1 4.5-6.6 10.4-6.6 17q0 0.8 0.1 1.8 0.1 1 0.2 1.8l0.5 3.4-3.4-0.2c-0.2 0-0.2 0-0.2 0q-0.1 0-0.1 0c-2 0-3.7 0.8-5 2.1-1.3 1.3-2.1 3-2.1 5 0 1.9 0.8 3.7 2.1 5 1.3 1.2 3 2 5 2q1.3 0 2.4-0.4 1.2-0.4 2.1-1.2l4.7-4v42.2h-44.5l4.5-4.8q0.9-0.9 1.4-2.2 0.5-1.2 0.5-2.6c0-1.9-0.8-3.7-2.1-5-1.3-1.3-3-2.1-5-2.1-1.9 0-3.7 0.8-4.9 2.1h-0.1c-1.2 1.3-2 3-2 5q0 0 0 0.2c0 0 0 0 0 0.1l0.2 3.4-3.4-0.5q-0.8-0.1-1.9-0.2-1-0.1-1.8-0.1c-6.9 0-13.2 2.9-17.8 7.4q0 0 0 0c-4.6 4.6-7.4 10.9-7.4 17.8 0 7 2.8 13.3 7.4 17.9q0 0 0 0c4.6 4.5 10.9 7.4 17.8 7.4q0.8-0.1 1.9-0.1 1-0.1 1.8-0.2l3.6-0.5-0.4 3.6q0 0.2 0 0.7c0 1.9 0.8 3.7 2.1 5 1.2 1.2 3 2 4.9 2 2 0 3.7-0.8 5-2 1.3-1.3 2.1-3.1 2.1-5 0-1.1-0.2-2.1-0.6-3-0.5-0.9-1.1-1.7-1.9-2.4l1.9-4.9h38.7v89.6l-3.4-0.7c-24.9-5.1-46.7-18.7-62.2-37.7-15.3-18.7-24.4-42.5-24.4-68.4 0-29.3 12.4-55.9 32-75.4 19.8-19.8 47.1-32.2 76.6-32.8h0.1q0 0 0.1 0l0.1 2.3v-2.3q0.1 0 0.1 0zm11.9 120.1v24.9h-24.1v-24.9h-25.4v-23h25.4v-25h24.1v25h25.4v23zm-5.6 19.3v-25h25.3v-11.7h-25.3v-25h-12.9v25h-25.4v11.7h25.4v25zm14.3-131.3q1 0.9 2 1.9c5 5.5 8.1 12.8 8.1 20.9q0 0.8-0.1 1.5c2.5 0.5 4.7 1.7 6.3 3.4 2.3 2.3 3.8 5.5 3.8 9 0 3.5-1.5 6.7-3.8 9-2.3 2.3-5.4 3.7-8.9 3.7q-1.9 0-3.6-0.5v25.7h27.5q-0.7-1.8-0.7-3.9c0-3.5 1.4-6.7 3.7-9 2.3-2.3 5.5-3.7 9-3.7 3.5 0 6.7 1.4 9 3.7q0 0 0 0c1.7 1.7 2.9 3.9 3.4 6.3q0.7 0 1.6 0c8.4 0 16.2 3.5 21.7 9v0.1q0.5 0.4 1 0.9c-4.4-18.9-14.3-36-27.8-49.4-14.2-14.1-32.3-24.2-52.2-28.6zm80.8 118.7q-0.8 1-1.8 1.9c-5.5 5.6-13.3 9.1-21.7 9.1q-0.8 0-1.5 0c-0.4 2.6-1.7 5-3.5 6.9-2.3 2.2-5.5 3.7-9 3.7-3.5 0-6.7-1.5-9-3.7-2.3-2.4-3.7-5.5-3.7-9 0-1.7 0.3-3.2 0.9-4.7h-27.7v77.1c22.2-5.4 41.6-18 55.6-35.1 10.7-13.1 18.2-28.9 21.4-46.2zm-122.2-118.7c-20 4.4-38.1 14.6-52.2 28.6-13.6 13.5-23.4 30.5-27.8 49.4q0.4-0.5 0.9-0.9v-0.1c5.6-5.5 13.3-9 21.8-9q0.8 0 1.5 0c0.6-2.4 1.8-4.6 3.5-6.3q0 0 0 0c2.3-2.3 5.5-3.7 8.9-3.7 3.5 0 6.7 1.4 9 3.7 2.3 2.3 3.7 5.5 3.7 9q0 2.1-0.6 3.9h27.5v-25.7q-1.8 0.5-3.6 0.5c-3.5 0-6.7-1.4-9-3.7-2.3-2.3-3.7-5.5-3.7-9 0-3.5 1.4-6.7 3.7-9 1.7-1.7 3.9-2.9 6.3-3.4q0-0.7 0-1.5c0-8 3-15.3 8.1-20.8q0.9-1.1 2-2zm-80.9 118.7c3.2 17.3 10.8 33.1 21.5 46.2 14 17.2 33.4 29.7 55.6 35.1v-77.1h-27.8c0.6 1.5 0.9 3 0.9 4.7 0 3.5-1.4 6.6-3.7 9-2.3 2.2-5.5 3.7-9 3.7-3.5 0-6.6-1.5-8.9-3.7-1.9-1.9-3.1-4.3-3.6-6.9q-0.6 0-1.4 0c-8.5 0-16.2-3.5-21.8-9.1q-0.9-0.9-1.8-1.9zm103-152h0.1q0 0-0.1 0z"/>
	<path id="Path 8" class="s5" d="m27.2 900.2q-8.3-5.5-16.3-11.2c-2.6-1.8-3.9-4.3-4.2-6.9-0.6-3.7 0.5-7.6 1.9-10.4 8.8-17.1 21.2-49.3 33-80 4.3-11.1 8.4-22 12.3-31.9 2 12.3 9.6 22.9 19.7 31.9 14.2 12.8 33.2 22.4 47 29.1 13.7 19.6 29.3 37.3 46.8 52.8 12.2 10.8 25.3 20.6 39.3 29.2-48.7-12.6-80.3-25.3-101.3-33.8-13.6-5.4-22.8-9.1-29.6-10-5.4-0.7-9.4 0-12.6 1.8-3.2 1.8-5.4 4.7-7 8.3l-0.1 0.1-15 39.9q-6.9-4.3-13.9-8.9zm647.2-31c-1.7-3.6-3.8-6.4-7.1-8.3-3.1-1.7-7.2-2.4-12.5-1.7-6.8 0.8-16 4.5-29.6 10-21 8.4-52.7 21.1-101.4 33.8 14-8.6 27.1-18.4 39.3-29.3 17.5-15.5 33.2-33.2 46.9-52.7 14-6.8 33-16.4 47.2-29.2 9.9-9 17.5-19.6 19.4-31.8 3.9 9.9 8.1 20.8 12.4 31.9 11.7 30.6 24.1 62.9 32.9 80 1.5 2.8 2.5 6.7 2 10.4-0.4 2.5-1.6 5-4.2 6.8q-8 5.7-16.4 11.3-6.9 4.6-13.9 8.9l-15-39.9z"/>
	<path id="Path 9" class="s6" d="m8.8 603.9l61.9-31.6v86.5 0.1c0.8 33.1 2.7 42.7 5.8 58.2q0.1 0.5 0.2 1c0.1 0.4 0.3 1.6 0.7 3.1 0.6 2.8 1.1 5 1.3 5.7q0.5 2 1 4.1c-1.8-0.8-3.8-1.4-5.9-1.6-3.4-0.5-6.9 0-10 1.5-2 1-3.9 2.5-5.4 4.6-1.4 2-3.4 6.4-3.8 7.3 0 0.1-0.1 0.2-0.1 0.3l-9.9 25.1c-10.6-24.5-18.9-50.1-24.9-76.8-6.3-28-9.9-57.2-10.9-87.5zm667.1 139.2c0-0.1-0.1-0.2-0.1-0.3-0.4-0.9-2.4-5.3-3.8-7.3-1.5-2.1-3.4-3.6-5.4-4.6-3.1-1.5-6.6-2-10-1.5-2.1 0.2-4.1 0.8-5.9 1.6q0.5-2.1 1-4.1c0.2-0.7 0.7-2.9 1.3-5.7 0.4-1.5 0.6-2.7 0.7-3.1q0.1-0.5 0.2-1c3.1-15.5 5-25.1 5.8-58.2v-0.1-86.5l61.9 31.6c-1 30.3-4.6 59.5-10.9 87.5-6 26.7-14.3 52.3-24.9 76.8z"/>
</svg>