<svg version="1.2" xmlns="http://www.w3.org/2000/svg" viewBox="0 0 638 726" width="638" height="726">
	<title>Lovech-pdf</title>
	<style>
		.s0 { fill: #701d70 } 
		.s1 { fill: #ffffff } 
	</style>
	<path id="Path 1" class="s0" d="m159.6 0v69h81.8v-69h156.3v69h81.1v-69h157.8v576.9c-24.1 59.6-114.8 83.8-189.6 107.1-57.5 18-105.8 34.1-127.9 40.2-42.9-14.5-36.6-17.8-115.3-38.1-73.3-24-170.1-37.3-201.9-109.2q0-288.5 0-576.9z"/>
	<path id="Path 2" fill-rule="evenodd" class="s1" d="m611.1 160.7v398.9c-22.1 54.9-105.5 77.1-174.3 98.6-52.9 16.6-97.3 31.3-117.7 36.9-39.5-13.3-33.6-16.3-106-35-67.4-22.1-156.5-34.3-185.7-100.5 0-176.8 0-222 0-398.9zm-562.4 288.9c0 164 0-55.9 0 108.1 27 61.3 109.6 66.5 172.1 87 67.1 17.3 61.7 20.1 98.2 32.5 18.9-5.3 60.1-18.9 109.2-34.3 63.7-19.9 141.1-34.3 161.6-85.2v-108.1h-78.4v49.5h-64.6v-49.5h-94.6v49.5h-64.6v-49.5h-94.7v49.5h-64.6v-49.5zm1-117.6h538.6v-154.2h-538.6zm0 39h538.6v-13.4h-538.6zm20.1 45.1h24v-28.9h-24zm78.4 0h23.9v-29h-23.9zm81.2 0h24v-28.9h-24zm157.1 0h23.9v-28.9h-23.9zm80.5 0h24v-29h-24zm80.9 0h24v-28.9h-24zm-251.6 0h46.3v-29h-46.3zm-226.2 105.5c30.2 0 54.8-12.9 84.6-11.7 26.2 1 57.8 16.2 84.5 14.5 25.8-1.6 53.6-15 79.5-15 27.7 0 57.8 15.2 87.8 15.2 27.7-0.1 55.4-15.7 81.1-14 30 2.1 51.4 11 81.4 11q0 9.9 0 19.8c-30 0-51.5-8.9-81.5-10.9-25.9-1.8-52.9 13.8-80.9 13.9-29.8 0.1-60.6-15.2-88.2-15.2-25.9 0-53.6 13.4-79.5 15.1-26.6 1.7-58.1-13.5-84.3-14.6-29.8-1.1-54.3 11.7-84.5 11.7q0-9.9 0-19.8zm0 39.2c30.2 0 54.8-12.9 84.6-11.7 26.2 1 57.8 16.2 84.5 14.5 25.8-1.6 53.6-15.1 79.5-15.1 27.7 0 57.8 15.3 87.8 15.2 27.7 0 55.4-15.6 81.1-13.9 30 2.1 51.4 11 81.4 11q0 9.9 0 19.8c-30 0-51.5-8.9-81.5-10.9-25.9-1.8-52.9 13.8-80.9 13.9-29.8 0.1-60.6-15.2-88.2-15.2-25.9 0-53.6 13.4-79.5 15.1-26.6 1.7-58.1-13.5-84.3-14.6-29.8-1.1-54.3 11.7-84.5 11.7q0-9.9 0-19.8zm81.6 27.4q1.5 0 3 0.1c26.2 1 57.8 16.2 84.5 14.5 25.8-1.6 53.6-15.1 79.5-15.1 27.7 0 57.8 15.3 87.8 15.2 27.7-0.1 55.4-15.6 81.1-13.9l1.2 0.1v19.9q-0.7-0.1-1.3-0.1c-25.9-1.8-52.9 13.8-80.9 13.9-29.8 0.1-60.6-15.2-88.2-15.2-25.9 0-53.6 13.4-79.5 15.1-26.6 1.7-58.1-13.6-84.3-14.6q-1.5 0-2.9-0.1zm24.7-500.6h44.1v63h-12.7v-52.3h-18.9v26.9q0 11.6-0.8 16.1-0.8 4.6-3.8 7.2-3 2.5-9.3 2.5-2.2 0-8.1-0.4v-9.9l2.8 0.1q4 0 5.4-1.1 1.4-1 1.4-5.3l-0.1-10.8zm54.4 31.9q0-15.4 8.1-24.2 8.1-8.8 22.4-8.8 14.4 0 22.5 8.9 8.1 8.9 8.1 23.8 0 14.8-8.1 23.7-8.1 8.8-21.5 8.8-10.5 0-17.1-3.7-6.6-3.7-10.5-11.1-3.9-7.4-3.9-17.4zm13.1-0.4q0 10.9 5.1 16.3 5.1 5.4 12.4 5.4 7.3 0 12.3-5.3 5.1-5.3 5.1-16.6 0-10.6-4.7-16-4.6-5.5-12.7-5.5-8.2 0-12.8 5.6-4.7 5.5-4.7 16.1zm58.1-31.5h25.2q8.9 0 13.3 1.1 4.4 1.1 7.8 5.2 3.4 4.1 3.4 9.6 0 4.4-2.4 8.1-2.5 3.8-6.5 5.5 5.8 1.6 8.9 5.7 3.1 4.1 3.1 9.5 0 6.6-4 11.5-3.9 4.9-8.8 5.9-4.9 0.9-18.6 0.9h-21.4zm12.7 10.5v14.5h13.7q5.5 0 8.2-1.8 2.7-1.9 2.7-5.5 0-3-1.7-4.8-1.6-1.9-4.2-2.1-2.6-0.3-11.4-0.3zm0 25v16.9h11.8q6.9 0 9.3-0.5 2.4-0.5 4.1-2.5 1.7-2.1 1.7-5.3 0-3.2-1.8-5.3-1.7-2.2-4.8-2.7-3-0.6-10-0.6zm50.8 27.5v-63h46.7v10.7h-34v13.9h31.6v10.6h-31.6v17.2h35.2v10.6zm57.7-63h12.7v15q0 7.3 0.6 9.7 0.5 2.4 3.2 4.2 2.6 1.7 7.8 1.7 4.1 0 7.3-0.8 3.1-0.9 5.5-2.6v-27.2h12.7v63h-12.7v-25.4q-3.9 1.8-7.6 2.6-3.8 0.9-7.4 0.9-9.4 0-15.7-4.4-6.4-4.5-6.4-15.4zm-108.4 161.5c-9.8-1-19.4-3.2-25.5-12-11.9-18.3 29.7-49.3 29.7-49.1 9.4 5.8 38.2 35.7 29.5 49.1-6.2 8.9-15.8 11.1-25.3 12h0.8v52c8-2.2 15.9-9.2 23.8-12.9-6.1-6.8-11-14.5-9.9-24.4 3.2-21.6 54.9-17.4 54.7-17.3 3.3 10.6 5.2 52-10.3 56.4-10.4 2.6-19.1-2.1-26.9-7.7-10.4 1.1-20.9 12.3-31.4 15.1v14.1h-9.2v-14.1c-10.6-2.9-21.2-14.3-31.8-15.2-7.7 5.6-16.3 10.1-26.7 7.6-15.4-4.4-13.5-45.9-10.3-56.4-0.1-0.2 51.6-4.3 54.8 17.3 1.1 10-3.9 17.7-10.1 24.5 8 3.7 16.1 10.8 24.1 13z"/>
</svg>