<svg version="1.2" xmlns="http://www.w3.org/2000/svg" viewBox="0 0 400 488" width="400" height="488">
	<title>Smolyan-pdf</title>
	<style>
		.s0 { fill: #ffffff } 
		.s1 { fill: #2e3192 } 
		.s2 { fill: #ed1c24 } 
		.s3 { fill: none;stroke: #f68712;stroke-width: 9.3 } 
		.s4 { fill: #f68712 } 
		.s5 { fill: #496762;stroke: #f68712;stroke-width: 7 } 
		.s6 { fill: none;stroke: #f68712;stroke-width: 7 } 
		.s7 { fill: #ffffff;stroke: #f68712;stroke-linejoin: bevel;stroke-width: 9.3 } 
		.s8 { fill: #496762 } 
	</style>
	<path id="Path 1" class="s0" d="m189.6-0.2h20.7l20.8 143.8 20.9-143.8h20.6l34.5 237.9h-212.1l34.5-237.9h20.7l19.7 135.7zm-123.7 24.1h265.4v21.6h-265.4zm43.3 33.1l1.5 3.7 1.4 3.7 1.5 3.6 1.4 3.5 1.5 3.4 1.3 3.2 0.2 0.6 16.2-21.3-40.3 321h212l-34.7-277.1 40.7-96.8h87.9l-42.4 100.6 37.2 382.9h-389.4l37.2-382.9-42.4-100.6h87.9l4.1 9.8 1 2.4 1 2.5 1.1 2.8 1.2 3 1.3 3.1 1.3 3.3 1.4 3.5 1.4 3.5 1.5 3.6 1.4 3.7 1.5 3.8z"/>
	<path id="Path 2" class="s1" d="m76.9 282.7h248.2v120.6h-248.2z"/>
	<path id="Path 3" class="s2" d="m76.9 41.8h249.4v239.9h-249.4z"/>
	<path id="Path 4" class="s3" d="m85.7 41.8h226.3"/>
	<path id="Path 5" class="s4" d="m79.4 17.2c8.3 19.8 35.5 90.1 36.2 85.9l-36.2 288.1h240.9l-36.1-288.1 36.1-85.9h60.3l-36.2 85.9 36.2 372.1h-361.4l36.2-372.1-36.2-85.9z"/>
	<path id="Path 6" class="s5" d="m170 224.9h-60.2l30.1-207.6zm60 0h-60.2l30.1-207.6zm62.3 0h-60.2l30.1-207.6z"/>
	<path id="Path 7" class="s6" d="m148 225l2.5 12h-24.1l2.4-12m79.3 0l2.4 12h-24.1l2.5-12m82.1 0l2.5 12h-24.2l2.5-12"/>
	<path id="Path 8" class="s7" d="m93.8 273.1l106-24.1 105.9 24.1 14.5 118.1c-49.4-142.2-190.3-142.2-240.9 0z"/>
	<path id="Path 9" class="s3" d="m260.3 337l-18.6 7.8-21.1-6.6-20.1 7-22-8.2-20 6.7-18.6-6.7m120.4 14.5l-18.6 7.9-21.1-6.6-20.1 7-22-8.3-20 6.8-18.6-6.8"/>
	<path id="Path 10" fill-rule="evenodd" class="s8" d="m277.1 428.8h-15.7c-7.2-1.3-6-9.7 0-10.9h15.7zm18-15.6h6.1v13.3l3.6 2.3h14.4v-15.6h6v36.2h-6v-13.3h-14.4l-3.6-2.4v15.7h-6.1zm-12.1 0v36.1h-5.9v-13.2h-13.3l-7.3 13.2h-7.2l9.7-16.9c-10.8-2.3-10.8-16.9 0-19.2zm-53 0l15.7 36.1h-7.3l-10.8-22.8-10.8 22.8h-8.5l15.7-31.3-2.4-4.8zm-39.8 37.3c-10 0-18-8.3-18-18.7 0-10.3 8-18.6 18-18.6 10 0 18.1 8.3 18.1 18.6 0 10.4-8.1 18.7-18.1 18.7zm10.8-18.7c0-7.6-4.8-13.8-10.8-13.8-5.9 0-10.7 6.2-10.7 13.8 0 7.6 4.8 13.8 10.7 13.8 6 0 10.8-6.2 10.8-13.8zm-72.2-18.6l12.1 20.5c1.2 2.4 2.4 2.4 3.6 0l7.2-15.7-1.2-4.8h6.1l14.4 36.1h-7.2l-9.7-22.8-9.6 18c-1.2 2.4-3.6 2.4-4.8 0l-10.9-18-9.6 22.8h-7.2l13.2-31.3-2.4-4.8zm-37.3 7.2c-7.3 3.6-9.7 15.7-2.5 20.5 4.9 2.4 8.5 2.4 14.5 1.2 3.6-1.2 4.8 0 3.6 3.6-2.4 3.6-10.9 6-21.7 1.2-12-9.6-12-25.3 1.2-31.4 7.3-3.6 16.9-2.3 21.7 0v6.1c-4.8-1.2-10.8-3.6-16.8-1.2z"/>
</svg>