<svg version="1.2" xmlns="http://www.w3.org/2000/svg" viewBox="0 0 234 344" width="234" height="344">
	<title>Svishtov-pdf</title>
	<style>
		.s0 { fill: #48aee6 } 
	</style>
	<path id="Path 1" fill-rule="evenodd" class="s0" d="m2.5 285.2l-0.1-159.9 114.8-70.7 115.4 70.7v159.4l-115 58.5zm229.3-284.1l-0.1 109.1c-2-0.3-54.6-31.8-57.6-33.6-14.7-8.8-36.9-21-50.4-29.7-2.2-1.4-4.7-2.9-7-4.1-2.5 1-11.4 6.7-14.5 8.5-27.6 15.7-58.1 34.4-86 50.9-4.7 2.8-9.4 5.9-14.2 8.3v-109.4h54.3v30.2l31-0.1v-30.1h59v30.2h30.9v-30.2zm-114.5 297l73.8-35.7v-119.8l-74.1-42-72.5 42v120.1zm48.3-83.2l15.4-3.3-0.5 27.3c-0.2 8.4-1.7 16.4-4.8 23-1.2 2.5-3.7 7.4-5.2 8.8-1.3 1.3-8.8 2.4-11.2 2.8-8.1 1.4-16.8 2.9-24.9 3.4-10.8 0.8-43.6 3.2-51.5-1.4-7.9-4.6-14-32.2-14.9-41.2l-13.6-0.2c0.7-1.3 2.5-3.7 3.5-4.8-1.2-1.7-2.8-2.1-4.4-4.8h17.4c1.3 8.7-2.2 7.2 3.6 13.4 5.6 5.9 2 2.5 8.4 8.5-1.2-6.1-4.5-11.8-5.2-22.3-0.3-5.7 0.3-13.2 2.4-18.4 1.2-3 1.1-2 0-5.1-3-8.3-4.6-25.9 3.4-33.7 1.3-1.2 1.8-2.2 3.5-3.3 2.1-1.4 3.3-1.9 3.9-2.2l0.1-5.7-22.9 5.7 4.6-7.4-4.5-5.8 27.4-6.3v18.3l13.7 2.2c0.5-5.3 3.8-20.6 6.4-23.8l2.8 0.9v-13.5l-19.2 1.8 7.6-7.9-4.5-8 22.1-0.2v29.3c1.4 0.7 11.3 4.4 12.9 4.7 4.9 0.8 12.6-0.7 17.5 0.3v3.5l-12.1 0.4c0 8.2 6.2 39.2 8.1 46.7 2.1 8.6 6.7 22.8 11.4 30.3 1.8 2.9 3.9 5.8 5.4 8.7-10.6 0-23 1.8-27.1 11.9-1.5 3.7 0.4 7.7 0.6 11.5 9.1-1.7 12.2-6 16.1-12.5 3.8-6.1 1.7-4.9 7.5-7 3.8-1.3 6.9-2.6 10.7-3.6l0.1-11.7-10.4 2.1zm-27.8 44.7c-1.7-1.6-3.9-3.3-5.8-4.8-5.3-4.4-11-11.6-14.7-17.9-3.4-5.8-8.4-22.2-9.1-30.1-0.2 9.8 1.4 19.9 4.1 28.4l10 22.2c0 0.1 0.8 1.5 0.8 1.5 0.6 1 0.4 0.8 1.3 1.3zm-29.4-56.3c-0.2 0.7-0.3 1.9-0.1 3.5q0-1.8 0.1-3.5zm-1.4-2.9c-5.1-3.8-13.2-8.1-20.1-3.3-1.5 1-3.7 3.5-4.3 5.2 6.3-3.3 16.8-3.6 24.4-1.9zm0.8-0.6q0 0 0-0.1 0 0.1 0 0.1zm0-0.1c0.5-4.2-0.5-12.3-0.2-17.4 0.3-5.4 1.2-11.7 1.4-17.2h-3.5c-2.4 3.9-3.6 8-1.8 17.8 0.6 3 4.1 16 4.1 16.8zm13 60.3c-2.8-5.7-7.4-10.1-14-12.1-7-2.1-15.3-2.5-22.5-0.5 8.2 6.9 21.9 12.6 36.5 12.6z"/>
</svg>