<svg version="1.2" xmlns="http://www.w3.org/2000/svg" viewBox="0 0 492 584" width="492" height="584">
	<title>logo_mz_vector-svg</title>
	<style>
		.s0 { fill: #ffffff } 
		.s1 { fill: #201b19 } 
		.s2 { fill: #fadd55 } 
		.s3 { fill: #221a19 } 
		.s4 { fill: #201a1a } 
		.s5 { fill: #221b1a } 
		.s6 { fill: #ebdd87 } 
		.s7 { fill: #e8dd94 } 
		.s8 { fill: #ebd994 } 
		.s9 { fill: #010101 } 
		.s10 { fill: #d92e27 } 
		.s11 { fill: #2f2a6c } 
		.s12 { fill: #fffffd } 
		.s13 { fill: #fffffc } 
		.s14 { fill: #231c1a } 
		.s15 { fill: #fdfdfc } 
		.s16 { fill: #f3f1f0 } 
		.s17 { fill: #fade57 } 
		.s18 { fill: #f9de57 } 
		.s19 { fill: #eedc99 } 
		.s20 { fill: #f0d791 } 
		.s21 { fill: #e4d192 } 
		.s22 { fill: #231d1b } 
		.s23 { fill: #211a1a } 
		.s24 { fill: #221e1b } 
		.s25 { fill: #221d1b } 
		.s26 { fill: #231e1a } 
		.s27 { fill: #221c1a } 
		.s28 { fill: #211c1a } 
		.s29 { fill: #fdfdfe } 
		.s30 { fill: #fbfeff } 
	</style>
	<path id="Layer" class="s0" d="m258.6 146.5h204.3v178h-204.3z"/>
	<path id="Layer" class="s0" d="m26.8 346.8h204.3v178h-204.3z"/>
	<path id="Layer" fill-rule="evenodd" class="s1" d="m491.3 535.9c-0.1 0.8 0.1 1.3-0.3 1.9-0.3 0.6-0.8 1.1-1.1 1.7q-1.5 2-2.9 4c-1.9 2.5-3.7 5.1-5.6 7.6-0.9 1.2-2.1 1.7-3.4 2.3q-2.1 1.2-4.2 2.3c-2.5 1.3-5 2.6-7.8 3.4-5.8 1.7-12.1 1.2-18.1 1.2q-9.4-0.1-18.7 0-38.2 0-76.3 0-19 0-38 0-4.6 0-9.3 0c-3.2 0-6.4-0.3-9.5 0-2.9 0.4-5.8 2.3-8.4 3.5q-4.2 2-8.4 4-8.5 4.1-17 8.1-4.3 2.1-8.6 4.1-2.1 1-4.1 2-1 0.5-2 1-0.5 0.2-0.9 0.3c-0.5 0.3-0.6 0.3-1.2 0.1-1.3-0.3-2.8-1.3-4-1.9q-2.2-1-4.3-2.1-4.2-2-8.4-4-8.5-4.2-17.1-8.3-4.1-2-8.3-4c-2.6-1.3-5-2.8-7.9-2.8-6.4 0-12.8 0-19.3 0q-19 0-38 0-38.1 0-76.2-0.1-9.5 0-19 0-4.7 0-9.4 0c-1.4 0-2.9 0.2-4.3-0.1-1.4-0.3-2.8-1.4-4.1-2.1q-4-2.4-8.1-4.9c-1.2-0.7-2.5-1.4-3.6-2.2-1.1-0.7-1.8-1.8-2.6-2.8q-2.8-3.7-5.6-7.3-1.4-1.8-2.7-3.6c-0.9-1.3-1.9-2.3-2-3.9-0.3-6.3 0-12.7 0-19q0-9.5 0-19 0-19.1 0-38.1 0-38 0-76.1 0-38 0-76.1 0-38.1 0-76.3 0-38 0-76.1 0-38.1 0-76.3 0-19 0-38 0-9.4 0-18.8 0-4.8 0-9.6 0-2.3 0-4.6 0-1.2 0-2.3c0-0.4-0.2-2.3 0.1-2.5 0.3-0.3 1.6 0 1.9 0q1.2 0 2.4 0 2.4 0 4.8 0 4.7 0 9.4 0 9.7 0 19.3 0 19 0 38.1 0 38 0 76.1 0 38 0 76.1 0 38.1 0 76.1 0 38.1 0 76.1 0 38.2 0 76.4 0 9.1 0 18.3 0 4.5 0 9.1 0 2.1 0 4.2 0c0.6 0 1.3-0.1 1.8 0 0.8 0.1 0.3-0.1 0.4 0.4 0.1 0.3 0 0.9 0 1.2m-10.1 125.2c0.3-5.9 0.1-12 0.1-17.9q0-9 0-18 0-18.1 0-36.2 0-17.9 0-35.9 0-2.3 0-4.6 0-1 0-2c0-0.4 0.2-1.8-0.1-2.1-0.2-0.2-1.6 0-2 0q-1.1 0-2.3 0-2.4 0-4.8 0-9 0-18 0-36.2 0-72.3 0-36.2 0-72.3 0-36.2 0-72.3 0-36.3 0-72.6 0-36 0-72 0-36.3 0-72.5 0-2.2 0-4.3 0-1.2 0-2.3 0c-0.4 0-2.4-0.2-2.6 0-0.1 0.2 0 1.4 0 1.7 0 0.6-0.1 1.3-0.1 2 0 1.6 0 3.2 0 4.8q0 9 0 18 0 18.1 0 36.2 0 18.1 0 36.2 0 2 0 4.1 0 1.1 0 2.2c0 0.2-0.1 0.7 0 0.9 0.2 0.5 0.2 0.4 0.8 0.4q4.6 0 9.2 0.1 9 0 18 0 36.3 0.1 72.5 0.2 36.1 0.1 72.1 0.3 36.3 0.1 72.5 0.2 36.1 0.1 72.3 0.2 36.1 0.1 72.3 0.2 36.1 0.1 72.2 0.2 2.2 0 4.3 0 1.2 0 2.3 0.1c0.3 0 0.8-0.2 1 0 0.4 0.1 0.3 0.4 0.4 1 0 0.7 0 1.4 0 2.1 0 0.3 0.2 1.6 0 1.9-0.5 0.5-3.1 0.1-3.8 0.1q-9.1-0.1-18.2-0.1-17.9-0.1-35.9-0.1-36.2-0.2-72.4-0.3-36-0.1-72.1-0.2-36.2-0.1-72.4-0.2-36-0.1-72-0.2-36-0.2-72.1-0.3-18.1 0-36.2-0.1-4.4 0-8.9 0c-1.5 0-3-0.1-4.5 0-0.3 0-0.6-0.1-0.8 0-0.6 0.2-0.3-0.3-0.5 0.6-0.1 0.8 0 1.7 0 2.5q0 9.1 0 18.3 0 36 0 72 0 36.2 0 72.5 0 36.1 0 72.2 0 36.1 0 72.2 0 36.1 0 72.2 0 9 0 18 0 2.3 0 4.6c0 1.3-0.3 3.3 0.3 4.4 1.5 2.4 3.6 4.6 5.2 6.9 1.5 2 3 3.9 5 5.3 2.2 1.5 4.6 2.6 6.9 4 1 0.7 2 1.5 3.2 1.8 1.3 0.5 2.7 0.4 4.1 0.4q4.4 0 8.8 0 36.3 0 72.6 0 36 0 72.1 0c3 0 6.1-0.1 9.1 0 2.8 0.1 5.3 1.7 7.7 2.9q8.2 3.9 16.4 7.9 7.9 3.8 15.8 7.7 2 0.9 4 1.9 0.9 0.4 1.8 0.9c0.5 0.2 1.6 1 2.2 1 0.4 0 1.3-0.6 1.7-0.8q1-0.5 2-1 2.1-0.9 4.1-1.9 16.1-7.7 32.2-15.3c2.5-1.2 5.1-3 7.9-3.3 2.9-0.3 6 0 8.9 0q9 0 18 0 36.2 0 72.3 0 18.1 0 36.3 0 9-0.1 18 0 4.5-0.1 9.1 0 2.2 0 4.3 0c1.6-0.1 2.6-0.5 4-1.1 2.5-1.4 5.1-2.7 7.7-4.1 2.3-1.3 3.7-3.9 5.2-6q1.3-1.8 2.6-3.7c0.9-1.2 0.8-2.5 0.8-4q0-4.6 0-9.1 0-18 0-36 0-36.3 0-72.5 0-36.2 0-72.3 0-36.2 0-72.3 0-36.1 0-72.3 0-17.3 0-34.7c0.1-11.6 0.4-23.2 0-34.7z"/>
	<path id="Layer" fill-rule="evenodd" class="s2" d="m480.9 534.4c-2.1 3-4.2 6-6.4 8.9-0.9 1.2-2.2 1.7-3.5 2.4q-2.6 1.3-5.1 2.7c-1.4 0.7-2.8 1.5-4.4 1.6-1.8 0.1-3.7 0-5.5 0q-5.6 0-11.1 0-21.8 0-43.7 0-43.8 0-87.7 0.1-5.5 0-10.9 0-2.7 0-5.3 0c-1.7 0-3.4-0.2-5 0.4-1.6 0.5-3.1 1.4-4.6 2.1q-2.7 1.2-5.3 2.5-4.8 2.2-9.5 4.5-9.9 4.7-19.8 9.4-2.3 1.1-4.7 2.3c-0.6 0.3-1.3 0.7-2 0.9-0.6 0.2-0.7 0.1-1.3-0.2q-0.6-0.3-1.3-0.7-4.9-2.3-9.8-4.7-9.7-4.7-19.5-9.5-4.8-2.3-9.5-4.5c-1.6-0.8-3.2-1.8-4.8-2.2-1.7-0.5-3.4-0.3-5.1-0.3q-21.8 0-43.7 0-43.9-0.1-87.7 0-11 0-21.9 0-2.8 0-5.5 0c-1.6 0-3.3 0.1-4.9-0.4-1.4-0.4-2.6-1.4-3.8-2.2-1.5-0.9-3.1-1.8-4.7-2.7-2.6-1.4-4.6-3.4-6.3-5.8q-1.4-2.1-2.9-4.1-0.9-1-1.7-2.1-0.2-0.3-0.5-0.7c-0.6-0.7-0.6-0.9-0.6-1.8q0-10.9 0-21.8 0-43.8 0-87.7 0-43.7 0-87.4 0-43.7 0-87.5 0-43.8 0-87.7 0-10.9 0-21.8 0-5.6 0-11.1c0-0.8-0.2-1.9 0-2.6 0.2-0.6-0.1-0.5 0.6-0.5q0.6-0.1 1.1-0.1c1.9 0 3.7 0.1 5.6 0.1q22 0 44 0.1 43.7 0.1 87.3 0.3 43.6 0.1 87.2 0.2 43.9 0.2 87.8 0.3 43.8 0.1 87.6 0.3 21.8 0.1 43.5 0.1 10.9 0.1 21.8 0.1c0.7 0 1.7-0.1 2.4 0.2 0.8 0.4 1 0.9 1 1.7q0 2.7 0 5.4 0 5.4 0 10.9 0 43.7 0 87.5 0 43.8 0 87.7 0 43.9 0 87.7 0 43.9 0 87.8c0.1 13.9-0.2 27.9 0.1 41.9zm-226.1-394.6c-0.5 3.1-0.3 6.3-0.3 9.4q0 4.8 0 9.6 0 9.6 0 19.2 0 19.3 0 38.5 0 38.4 0 76.8 0 9.5 0 19 0 4.8 0 9.6 0 2.3 0 4.5c0 0.4-0.1 0.9 0 1.3 0.2 0.5-0.4 0.2 0.5 0.4 0.8 0.1 1.8 0 2.6 0q19.2 0 38.5 0 38.3 0 76.7 0 38.3 0 76.6 0 4.8 0 9.6 0 2.3 0 4.6 0 0.6 0 1.3 0c0.7 0 0.5 0.1 0.7-0.5 0.3-0.7 0-1.8 0-2.6q0-9.6 0-19.2 0-19.2 0-38.5 0-38.1 0-76.3 0-9.6 0-19.2 0-2.2 0-4.5 0-1.3 0-2.5c0-0.2 0.1-0.9 0-1.1-0.1-0.3-0.7-0.8-1-1.1q-3.2-3.6-6.4-7.1c-2-2.2-3.8-4.6-6.4-6.2-2.6-1.7-5.3-3.2-8-4.9q-1.9-1.1-3.8-2.3c-1.3-0.8-2.7-1.9-4.2-2.4-1.3-0.4-2.9-0.2-4.2-0.2q-2.6 0-5.1 0-38.4 0-76.8 0-38.4 0-76.8 0-4.5 0-9.1 0c-3 0-6.1-0.3-9 0.3zm0.2 394.9c3.2 0.3 6.3 0.1 9.5 0.1q4.8 0 9.6 0 9.7 0 19.3 0 19.2 0 38.5 0 38.5 0 77 0 9.5 0 19 0 2.4 0 4.8 0c1.4 0 3 0.2 4.3-0.4 1.3-0.5 2.5-1.4 3.8-2.1q2.1-1.3 4.2-2.5 4-2.4 8-4.8c2.5-1.5 4.4-4.4 6.3-6.5q3.1-3.5 6.2-6.9c0.6-0.7 0.7-1 0.7-1.9q0-1.1 0-2.2 0-2.4 0-4.8 0-38.6 0-77.1c0-25.7 0.2-51.5 0-77.2 0-0.4 0.2-1.6-0.1-1.9-0.3-0.4-1.5-0.4-1.9-0.4-1.7 0-3.3 0-5 0q-4.7 0-9.4 0-9.6 0-19.3 0-19.1 0-38.2 0-38.5 0-77 0-19.3 0-38.6 0c-6.4 0-12.8-0.1-19.2 0-0.6 0-1.2 0-1.7 0.2-0.9 0.3-0.9 0.9-1 1.7-0.2 1.7-0.1 3.4-0.1 5q0 4.8 0 9.7 0 38.4 0 76.8 0 38.4 0 76.9 0 4.5 0 9.1 0 2.4 0 4.8c0 1.5-0.1 3 0.3 4.4zm-230-189.2q0 38.5 0 77.1 0 38.4 0 76.8 0 2.4 0 4.8c0 1.6-0.3 3.5 0 5.1 0.1 0.5-0.1 0.3 0.3 0.9 0.2 0.2 0.5 0.5 0.7 0.7q0.8 0.9 1.7 1.9 1.7 1.9 3.3 3.7c2 2.2 3.9 4.8 6.2 6.7 2.3 1.9 5.2 3.3 7.8 4.8q4 2.4 8.1 4.8c1.1 0.7 2.1 1.4 3.5 1.5 1.6 0.2 3.3 0 4.9 0q9.6 0 19.2 0 38.6 0.1 77.1 0.1 38.5 0 77.1 0c0.3 0 2.1 0.2 2.3 0 0.2-0.3 0-1.7 0-2.1q0-2.5 0-5 0-4.8 0-9.6 0-9.7 0-19.3 0-19.2 0-38.4 0-38.6 0-77.2 0-9.6 0-19.2 0-4.8 0-9.6 0-2.4 0-4.8 0-1.1 0-2.1c0-0.5 0.1-0.8-0.2-1-0.3-0.3-0.9-0.3-1.3-0.4-1.4-0.4-3-0.2-4.5-0.2q-2.4 0-4.8 0-4.8 0-9.6 0-9.7 0-19.5 0-38.5 0-77 0-38.5 0-76.9 0-9.2-0.1-18.4 0zm212.1-206q-38.2 0-76.4 0-38.5 0-77.1 0-9.6 0-19.2 0-2.3 0-4.6 0c-1.4 0-3.1-0.2-4.5 0.3-1.3 0.4-2.4 1.3-3.6 2q-2.1 1.2-4.2 2.5-3.8 2.2-7.6 4.4c-2.4 1.4-4.3 4-6.1 6-2.1 2.3-4.1 4.6-6.2 6.9-0.4 0.5-1.1 1-1.4 1.6-0.3 0.6-0.1 1.5-0.1 2.2q0 2.5 0 5.1 0 38.4 0 76.9 0 38.4 0 76.8 0 1 0 2c0 0.3-0.2 1 0 1.2 0.2 0.4 0.4 0.3 1 0.3q2.5 0 5 0 4.8 0 9.7 0 9.4 0 18.9 0 19.3 0 38.5 0 38.4 0 76.9 0 19.1 0 38.2 0 9.6 0 19.2 0 1.3 0 2.6 0c0 0 0.9 0 1 0 0.1-0.1 0-1.1 0-1.3q0-2.4 0-4.8 0-4.8 0-9.6 0-38.4 0-76.9 0-38.4 0-76.9 0-9.3 0-18.7z"/>
	<path id="Layer" fill-rule="evenodd" class="s0" d="m480.6 119.7c0-0.6 0.1-1-0.3-1.2-0.4-0.2-1.4 0-1.8 0q-1.8 0-3.6 0-3.5 0-7.1 0-6.9 0-13.9-0.1-14.2 0-28.4 0-28.2-0.1-56.3-0.2-28.3-0.1-56.6-0.2-28.1-0.1-56.2-0.1-28.3-0.1-56.6-0.2-28.1-0.1-56.3-0.2-28.3 0-56.6-0.1-28.1-0.1-56.3-0.2-7.1 0-14.2 0-1.7 0-3.3 0c-0.6 0-1.2 0.1-1.8 0-0.4-0.1-0.3 0.1-0.5-0.2-0.1-0.2-0.1-0.8-0.1-1-0.1-2.2 0-4.4 0-6.7q0-14.1 0-28.4 0-28.1 0-56.2 0-3.5 0-7.1 0-1.6 0-3.3 0.1-0.8 0.1-1.7c0-0.1 0-0.7 0.1-0.8 0.1-0.1 1 0 1.2 0 4.7 0.1 9.3 0 14 0q14.2 0 28.4 0 28.1 0 56.3 0 28.3 0 56.6 0 28.2 0 56.3 0 28.3 0 56.6 0 28.2 0 56.3 0 28.3 0 56.6 0 28.2 0 56.4 0 14 0.1 28.1 0c0.5 0 2.8-0.2 3.1 0.2 0.2 0.2 0 1.2 0 1.4q0 0.9 0 1.8 0 3.4 0 6.8 0 7.2 0 14.3 0 28.1 0 56.3 0 6.8 0 13.7c0 4.4 0.3 9-0.2 13.4zm-441-76.5c0.6-0.1 0.5 0.4 0.7 0.9q0.2 0.7 0.4 1.4 0.5 1.5 0.9 3.1 0.9 2.9 1.8 5.8 1.9 6 3.7 12 3.7 11.8 7.4 23.7 0.2 0.8 0.5 1.7c0 0.2 0.1 0.5 0.2 0.7 0.3 0.3 0.1 0.2 0.5 0.2 1 0.2 2.1 0.1 3.1 0.1 2 0 4 0 6 0q1.4 0 2.9 0c0.8 0 2.6 0.3 3.1-0.2 0.5-0.6 0.6-2.1 0.9-2.9q0.5-1.6 0.9-3.2 3.8-12.2 7.6-24.4 1.9-6 3.8-12 0.9-3.1 1.9-6.1c0.1-0.5 0.4-1.4 0.7-0.6 0.2 0.3 0 1.1 0 1.5q0 1.6 0 3.2 0 12.6 0 25.1 0 6.4 0 12.8 0 1.5 0 3c0 1-0.2 2.3 0 3.3 0.1 0.4-0.1 0.3 0.3 0.5 0.1 0 0.5 0 0.7 0q0.8 0 1.5 0 1.6 0 3.1 0 3.1 0 6.1 0c0.5 0 2.6 0.3 2.9 0 0.1-0.2 0-1.3 0-1.5q0-1 0-2.1 0-6.2 0-12.5 0-12.7 0-25.4 0-6.3 0-12.6 0-3.1 0-6.3 0-1.5 0-3c0-0.2 0.1-0.6 0-0.8-0.2-0.4 0-0.1-0.5-0.2-0.5-0.1-1.2 0-1.7 0q-6.2 0-12.3 0-3.1 0-6.2 0c-0.8 0-2.2-0.3-2.9 0-0.7 0.2-1 2.1-1.2 2.9q-4 12.1-7.9 24.2-2 6-3.9 12.1-0.5 1.4-1 2.9c-0.1 0.3-0.2 1.2-0.6 1.1-0.3 0-0.5-1.1-0.6-1.4q-1-3.2-2.1-6.3-3.9-12-7.9-24-1-3-1.9-6-0.6-1.6-1.1-3.1-0.2-0.7-0.4-1.5c-0.3-0.7-0.2-0.9-1.1-0.9q-6.2 0-12.4 0-3.1 0-6.1 0-1.5 0-3 0c-0.2 0-1.3-0.2-1.4 0-0.2 0.2 0 1.5 0 1.8q0 6.4 0 12.9 0 12.6 0 25.3 0 6.4 0 12.9 0 3.2 0 6.3 0 1.5 0 3c0 0.5-0.1 1.1 0 1.6 0.1 0.4-0.2 0.3 0.2 0.5 0.2 0.1 0.8 0 1 0q6.2 0 12.4 0c0.1 0 0.6 0.1 0.7 0 0.4-0.2 0.2-0.1 0.3-0.5 0-0.5 0-1.1 0-1.6q0-1.6 0-3.2 0-3.2 0-6.4 0-12.7 0-25.5 0-6.2 0-12.3zm212.7 63.5q4 0 8 0 1.8 0 3.6 0c0.3 0 0.8 0 1 0 0.8-0.2 0.4 0.1 0.5-0.5 0.2-0.6 0-1.6 0-2.2q0-4.1 0-8.1 0-0.9 0-1.9c0-0.9-0.1-1 0.8-1q2.1 0 4.3 0 16.3 0 32.7 0 4 0 8.1 0 1 0 2 0c0.3 0 1.8-0.2 2 0 0.2 0.1 0 1.7 0 2q0 1.1 0 2.2 0 3.9 0 7.8 0 0.5 0 1c0 0.5-0.1 0.5 0.3 0.7 0.3 0.2 1.5 0 2 0q2 0 4.1 0 1.9 0 3.7 0 0.9 0 1.9 0c0.3 0 0.8 0.1 1 0 0.4-0.2 0.2-0.5 0.2-1q0-4 0-8.1 0-4.1 0-8.3 0-1.9 0-3.8 0-1 0-2c0-0.2 0.1-0.7 0-1-0.1-0.7 0-0.5-0.6-0.5q-1.8 0-3.6 0-0.9 0-1.9 0c-0.1 0-0.6 0.1-0.7 0-0.1-0.1 0-1.4 0-1.5q0-4.1 0-8.1 0-8.2 0-16.5 0-8.2 0-16.4 0-4 0-8.1 0-1 0-2c0 0.1 0.1-0.9 0-1-0.1-0.1-0.8 0-1 0q-2.2 0-4.3 0-16.2 0-32.4 0-4.1 0-8.3 0-1.8 0-3.7 0c-1.4 0-3.1-0.3-4.5 0-0.5 0.1-0.3-0.2-0.5 0.3-0.1 0.1-0.1 0.4-0.1 0.5q0 1 0 2-0.1 2.1-0.1 4.2-0.2 4-0.3 7.9c-0.1 5.4-0.1 10.7-0.7 16-0.6 5.3-2 10.3-3.7 15.4-0.8 2.3-1.7 4.5-2.9 6.6-0.4 0.8-0.5 0.8-1.4 0.8q-1 0-1.9 0-0.9 0-1.8 0-0.5 0-0.9 0c-0.5 0-0.7-0.1-0.9 0.3-0.2 0.4 0 1.6 0 2q0 0.9 0 1.8 0 2.2 0 4.5 0 4 0 8 0 4 0 8zm-119-53.3q0-5.1 0-10.2 0-1.2 0-2.5c0-0.1-0.2-1.3 0-1.4 0-0.1 1 0 1 0q2.7 0 5.5 0 10.4 0 20.8 0 5.1 0 10.2 0 1.3 0 2.5 0c0.4 0 2.3 0.3 2.5 0 0.3-0.3 0-2 0-2.4q0-1.4 0-2.9 0-2.3 0-4.6 0-0.3 0-0.5 0.2-0.7-0.5-0.5c-0.2-0.1-0.8 0-1 0q-1.6 0-3.1 0-5.3 0-10.6 0-20.9 0-41.8 0c-0.3 0-1-0.1-1.3 0-0.3 0.2-0.2 0.5-0.2 1q0 1.3 0 2.6 0 2.7 0 5.5 0 5.3 0 10.6 0 10.4 0 20.7 0 10.5 0 21.1c0 0.8-0.2 1.8 0 2.5 0.2 0.9-0.1 0.3 0.5 0.5 0.4 0.1 1.1 0 1.5 0q2.8 0 5.5 0 5.2 0 10.3 0 10.5 0 20.9 0 5.3 0 10.5 0 2.5 0 5 0 1.3 0 2.5 0c0.6 0 2.7 0.3 3 0 0.8-0.6 0.6-3.2 0.7-4.1 0-1.8 0.1-3.8-0.2-5.7 0-0.2 0-0.7-0.1-0.9-0.3-0.3-1.3-0.1-1.7-0.1q-2.7 0-5.5 0-5.2 0-10.5 0-10.4 0-20.8 0c-1.6 0-3.2 0.1-4.8-0.2-0.1 0-0.7 0-0.9-0.2-0.1-0.1 0-1 0-1.2q0-1.3 0-2.7 0-5 0-10.1 0-1.2 0-2.4c0-0.5-0.1-0.7 0.3-0.9 0.3-0.2 1 0 1.3 0q2.7 0 5.5 0 5.3 0 10.6 0 10.2 0 20.4 0c0.2 0 1.4 0.1 1.5 0 0-0.1 0-0.9 0-1q0-1.3 0-2.5 0-2.7 0-5.4c0-0.4 0.1-1.1 0-1.5-0.2-0.6 0.4-0.3-0.5-0.5-0.8-0.2-1.8 0-2.6 0q-2.7 0-5.5 0-10.4 0-20.8 0c-3.3-0.1-6.7-0.1-10.1-0.1zm262.2 39.4q4.8 0 9.6 0 2.3 0 4.6 0 1 0 2 0c0.7 0 0.5 0.1 0.9-0.4 0.3-0.4 0.5-1 0.7-1.4q2-4.5 4-9 0.5-1 1-2c0.1-0.4 0.2-0.9 0.5-1.2 0.4-0.7 0-0.3 0.6-0.5 1.4-0.4 3.5-0.2 4.9-0.2q9.8 0 19.5 0c1.7 0 3.4 0 5 0 1.2 0 2 0.3 2.6 1.4 1.6 2.9 2.9 6.1 4.3 9.1 0.4 0.9 0.8 1.8 1.2 2.6q0.2 0.4 0.4 0.8c0.4 0.6 0.2 0.5 0.9 0.6 1.7 0.3 3.7 0 5.4 0q5.7 0 11.4 0-13.9-28.1-27.7-56.2-1.7-3.4-3.4-6.9c-0.1-0.3-0.2-0.7-0.4-0.9-0.3-0.3-0.2-0.1-0.6-0.2-0.7-0.1-1.4 0-2 0q-2 0-4 0-3.7 0-7.5 0-0.9 0-1.9 0c-0.2 0-0.5 0-0.7 0-0.7 0.1-0.3 0-0.7 0.5-0.7 1-1.2 2.4-1.7 3.6q-6.8 14.2-13.6 28.3-7.6 16-15.3 32zm-55.9-64.4q0 24.3 0 48.6 0 6.1 0 12.1c0 0.9-0.3 2.3 0 3q0 0.3 0 0.6 0.5 0 1 0 0.7 0 1.5 0 3 0 6 0 2.8 0 5.7 0c0.4 0 1 0.1 1.3 0q0.2 0 0.5 0 0-0.5 0-1 0-1.8 0-3.6 0-6 0-12 0-2.7 0-5.5c0-0.4-0.1-1.1 0-1.5 0.2-0.6 0-0.5 0.8-0.5 1-0.1 2 0 3.1 0 4 0 8 0 11.9-0.2 7.2-0.2 14.9-0.5 21-4.9 5.3-3.9 8.1-10 7.8-16.6-0.3-6.6-4.1-12.3-9.9-15.4-7.4-3.9-16.3-3.1-24.4-3.2q-6.8 0-13.6 0c-4.2 0-8.5-0.1-12.7 0.1zm-152.8 14.6q4 0.7 7.9 1.5 1.9 0.3 3.9 0.7 0.9 0.2 1.9 0.4 0.4 0.1 0.9 0.1c0.7 0.2 0.6 0.2 1-0.2 0.8-0.8 1.3-2.1 1.9-3 0.6-0.9 1.3-1.6 2.1-2.3 1.5-1.2 3.3-1.8 5.3-2 2.6-0.2 5.3 0 7.9 0.3 2.2 0.3 4.2 0.7 5.7 2.4 2.8 2.9 2.9 8 0.1 10.9-4 4.1-9.4 4-14.6 4q0 2.3 0 4.7c0 1.4-0.3 3.1 0 4.4 0.1 0.6 0.1 0.5 0.7 0.5q0.6 0.1 1.2 0.2 1.3 0.1 2.5 0.2c1.5 0.1 3.1 0.2 4.7 0.4 4.7 0.5 10.1 3.2 9.9 8.5-0.1 2.1-1 3.7-2.5 5.2-0.5 0.4-1 1-1.5 1.4-0.6 0.3-1.5 0.5-2.2 0.7-1.4 0.5-2.9 0.9-4.4 1.1-3.2 0.4-6.4 0.3-9.5-0.4-2.4-0.6-4.9-1.4-6.5-3.4-1-1.2-1.8-2.7-2.6-4-0.1-0.3-0.3-0.8-0.6-1-0.4-0.3-0.9 0-1.5 0.1q-1.1 0.3-2.2 0.7-5.4 1.4-10.7 2.8c2.4 6.1 6.1 10.8 12.3 13.4 6.6 2.8 14 2.5 21.1 2.2 3.6-0.2 7.3-0.2 10.8-1 3.3-0.8 6.5-2.1 9.2-4 5.7-3.8 8.4-10.1 7.1-16.9-0.7-3.4-3-6.3-5.8-8.4-2.8-2.1-6.1-3.1-9.2-4.4 5.2-2.8 10.8-6 12.4-12.3 1.5-5.8-2.5-11.5-7.2-14.5-5.2-3.4-11.6-4.3-17.6-4.6-6.8-0.4-13.9 0.2-20.2 2.9-5.6 2.4-9.5 7-11.7 12.7z"/>
	<path id="Layer" fill-rule="evenodd" class="s3" d="m255 346.7c0.7-0.7 2.8-0.3 3.7-0.3q2.4 0 4.8 0 4.8 0 9.6 0 9.6 0 19.3 0 19.2 0 38.5 0 38.6 0 77.2 0 19.3 0 38.5 0 4.8 0 9.6 0 2.3 0 4.6 0 1.1 0 2.3 0c0.6 0 2.2-0.2 2.8 0 0.4 0.2 0.2 0.5 0.3 1q0 0.5 0 1 0 1.2 0 2.3 0 2.5 0 5.1 0 4.8 0 9.6 0 38.6 0 77.1 0 19.3 0 38.6 0 9.6 0 19.3c0 3 0.3 6.2 0 9.2-0.2 1.3-0.9 2.2-1.7 3.1q-1.7 1.9-3.4 3.7c-2.1 2.4-4.2 4.8-6.3 7.1-2 2.1-5.1 3.4-7.5 4.9-5.1 3.1-10 5.7-16 6.3-3.1 0.3-6.2 0.1-9.3 0.1q-4.8 0-9.6 0-9.6 0-19.3 0-38.4 0-76.9 0-19.3 0-38.5 0-9.7 0-19.3 0c-0.7 0-1.5 0-2.3 0-0.2 0-1 0-1.1-0.1 0-0.1 0-1 0-1q0-2.6 0-5.1 0-4.8 0-9.6 0-38.5 0-77 0-38.5 0-77c0-6.1 0.1-12.2 0-18.3zm206 56c-1.5 1.1-2.6 2.9-3.8 4.4q-2.1 2.6-4.2 5.2c-1.3 1.7-2.6 3.4-4 5.1-1.1 1.4-2.3 1.8-4.1 1.8q-6.7-0.1-13.3 0-3.3 0-6.5 0c-2.3 0-3 0.6-4.3 2.3-2.9 3.6-5.7 7.1-8.5 10.7q18.6 0 37.2 0-3.9 4.9-7.8 9.8-2 2.4-4 4.8-0.9 1.2-1.8 2.3c-0.4 0.5-0.6 0.8-1.2 0.9-0.6 0.1-1.2 0-1.8 0q-6.3 0-12.6 0-3.3 0-6.5 0c-1 0-2-0.1-3 0-0.6 0.1-0.7 0.3-1.1 0.8q-0.5 0.6-1 1.2-4.4 5.5-8.8 11 9.1 0 18.1 0 2 0 4 0c0.4 0 1.9-0.3 2.2 0 0.6 0.4-0.7 1.5-1 1.9q-2.9 3.6-5.8 7.2-2.8 3.5-5.6 7.1c-0.4 0.5-0.8 1.1-1.3 1.5-0.5 0.5-0.2 0.3-0.8 0.4-0.3 0.1-0.8 0-1.2 0q-2.3 0-4.7 0-9 0-17.9 0c-0.4 0-0.9 0.1-1.3 0-0.6-0.1-0.6-0.2-1-0.7q-0.8-0.9-1.5-1.8-1.5-1.8-3-3.7-3.2-3.9-6.4-7.9c0 5.9 0 11.8 0 17.7 0 1.3 0.1 2.6-0.4 3.8-0.6 1.2-1.7 2.3-2.5 3.3q-2.8 3.4-5.6 6.9-1.4 1.7-2.7 3.4c-0.4 0.5-0.9 1.4-1.5 1.8-0.4 0.4 0 0.3-0.8 0.4-0.4 0.1-1 0-1.4 0q-4.6 0-9.2 0-1.1 0-2.2 0c-0.2 0-1.1 0.1-1.2 0-0.1-0.1 0-1 0-1q0-2.5 0-5 0-4.5 0-9.1 0-10.6 0-21.2c-1.5 1.3-2.6 2.9-3.9 4.5q-2.2 2.7-4.4 5.5c-1.2 1.5-2.2 3.3-4.2 3.6-2.2 0.4-4.6 0.1-6.8 0.1-4.8-0.1-9.6 0.1-14.4 0.1-1.6-0.1-3.2-0.4-4.5-1.4-1.6-1.3-2.8-3.4-4.1-5-1.6-2-3.2-4-4.8-6-1.5-1.8-3.6-3.7-4.3-6q12.2 0 24.4 0-3.1-3.8-6.2-7.7-1.6-2-3.1-3.9c-0.6-0.7-0.8-1.2-1.7-1.2q-1.4 0-2.7 0-10 0-20 0c-1.1 0-1.4 0.2-2.1-0.7q-0.8-1-1.5-2-1.6-1.9-3.2-3.8-3.1-3.9-6.2-7.8-0.7-0.9-1.5-1.9c-0.3-0.4-1.2-1.2-1.2-1.7 0.1-0.6 1.1-0.3 1.6-0.3q1.5 0 3 0 4.9 0 9.9 0 11.2 0 22.4 0-4.5-5.6-8.9-11.1c-0.4-0.5-0.8-1.1-1.2-1.4-0.5-0.5-0.6-0.4-1.3-0.4q-2 0-4 0-3.6 0-7.2 0-3.6 0-7.2 0-2 0-4 0c-0.3 0-1.1 0.2-1.4 0-0.4-0.2-0.9-1.1-1.2-1.5q-4.5-5.5-9-11.1 0 43.5 0 87.1 0 10.7 0 21.5 0 5.4 0 10.8c0 0.9-0.1 1.9 0 2.8 0.2 0.8-0.1 0.3 0.5 0.5 0.3 0.1 0.9 0 1.2 0q2.7 0 5.4 0 21.8 0 43.6 0 43.9 0 87.8 0 10.9 0 21.8 0 5.4 0 10.9 0c1.4 0 2.8 0.1 4.2-0.4 1.4-0.4 2.6-1.5 3.8-2.2 2.6-1.4 5.1-2.9 7.7-4.4 2.4-1.5 4.7-3.2 6.5-5.3 1-1.2 2-2.5 3.1-3.7 1.2-1.3 2.7-2.4 3.6-3.9 0.7-1.2 0.7-2.4 0.7-3.8q0-2.8 0-5.5 0-43.9 0-87.8c-0.1-3.3 0.2-6.6-0.1-9.9zm-200.8-1.2q18.6 0 37.2 0 9.2 0 18.4 0 4.7 0 9.3 0 2.1 0 4.3 0 1.2 0 2.5 0 0.5 0 1 0 0.2 0 0.5 0 0.6-0.2 0.8 0.4c1 0.8 1.8 2.2 2.6 3.2q1.5 1.8 2.9 3.6 1.4 1.7 2.8 3.4 0.6 0.7 1.2 1.5c0.3 0.4 1.2 1.9 1.5 1.1 0.3-0.5 0-1.7 0-2.3q0-1 0-2 0-2.5 0-5 0-4.6 0-9.1 0-4.7 0-9.3 0-2.2 0-4.3 0-1.2 0-2.3c0-0.3-0.2-2.6 0-2.8 0.5-0.4 2.8-0.1 3.3-0.1q2.4-0.1 4.7-0.1 2.2 0 4.4 0c1.7 0 2.3 0.6 3.3 1.9q3.3 3.9 6.5 7.8 1.4 1.8 2.8 3.5c0.8 1.1 2.6 2.6 2.6 4.1q0 10.1 0 20.3 2.9-3.7 5.8-7.3 1.4-1.8 2.9-3.5 0.7-0.9 1.4-1.7 0.3-0.5 0.7-1c0.4-0.5 0.5-0.5 1.2-0.5q9.7 0 19.5 0 19.2 0 38.4 0 4.8 0 9.6 0 2.3 0 4.6 0 1.2 0 2.5 0c0.2 0 0.8 0.1 1 0q0.8 0.2 0.5-0.5 0-0.3 0-0.5 0-9.7 0-19.4 0-9.7 0-19.4 0-2.2 0-4.5 0-1 0-2c0-0.4 0.3-2.7 0-3-0.2-0.2-1.6 0-2 0q-1.3 0-2.6 0-2.5 0-5 0-38.7 0-77.3 0-38.8 0-77.6 0-9.6 0-19.2 0-5 0-9.9 0-2.3 0-4.6 0c-0.6 0-1.8-0.2-2.3 0-0.3 0.2-0.2 0.4-0.2 1q0 0.7 0 1.5 0 18.8 0 37.7 0 4.8 0 9.6zm113.4 62.4q4.6 5.8 9.2 11.5 0.6 0.8 1.2 1.6c0.3 0.3 0.8 1.3 1.3 1.5 0.4 0.2 1.5 0 2 0q0.7 0 1.5 0 3.8 0 7.6 0 3.7 0 7.4 0 1.9 0 3.7 0 0.5 0 1 0 0.6 0.2 0.8-0.4c0.4-0.3 0.7-0.9 1-1.3q4.6-5.6 9.1-11.3-12.4 0-24.8 0 3.9-4.9 7.8-9.8 2-2.5 4-4.9 0.9-1.2 1.8-2.3c0.5-0.5 0.6-0.8 1.3-1 0.5 0 1.2 0 1.7 0q6.4 0 12.7 0 3.3 0 6.5 0c0.9 0 2 0.2 3 0 0.6 0 0.6-0.2 1-0.7q0.6-0.6 1.1-1.2 4.4-5.5 8.8-11-18.7 0-37.4 0 4-4.9 8-9.9 1.9-2.3 3.8-4.7 1-1.2 2-2.5c0.3-0.4 0.5-0.8 1-0.9 0.5-0.2 1.2 0 1.7 0q6.4 0 12.7 0 3.1 0 6.3 0 1.6 0 3.2 0c0.7 0 0.8-0.1 1.2-0.6q0.6-0.7 1.1-1.3 4.4-5.5 8.8-11-26.5 0-53 0-6.6 0-13.2 0-1.6 0-3.2 0c-0.5 0-1-0.1-1.5 0-0.7 0.1-0.9 0.5-1.4 1.1q-2 2.5-4 5-2.1 2.6-4.2 5.2-0.9 1.1-1.8 2.3c-0.4 0.5-0.7 0.7-0.7 1.4-0.1 0.6 0 1.2 0 1.8q-0.1 6.6 0 13.3c-0.1 10.1-0.1 20.1-0.1 30.1zm-50 2.2q-12.4 0-24.9 0 3 3.7 5.9 7.3 1.4 1.8 2.8 3.5c0.5 0.6 0.9 1.2 1.4 1.7 0.5 0.5 0.2 0.2 0.8 0.4 0.4 0.1 1 0 1.5 0q9.3 0 18.7 0c0.7 0 1.7 0.1 2.4 0 0.7-0.2 0.3 0.1 0.9-0.4 0.3-0.3 0.5-0.7 0.8-1q1.5-1.9 3-3.8 3-3.7 6-7.5c0.4-0.5 1.4-1.3 1.6-1.9 0.2-0.6 0-1.7 0-2.3q0-2.4 0-4.8 0-4.8 0-9.5 0-9.5 0-19.1 0-2.3 0-4.7c0-1.5 0.2-3.3 0-4.8-0.2-1.3-1.8-2.7-2.6-3.8q-1.5-1.8-3-3.6-1.4-1.8-2.9-3.6c-0.9-1.1-1.8-2.7-2.8-3.6-0.5-0.4-0.5-0.4-1.1-0.4q-0.6 0-1.3 0-1.1 0-2.2 0-2.4 0-4.8 0-9.5 0-19.1 0-21.6 0-43.2 0 4 5 7.9 9.9 1 1.2 1.9 2.3c0.4 0.6 0.5 0.6 1.2 0.6q0.9 0 1.7 0 3.2 0 6.3 0 6.3 0 12.7 0c0.9 0 2-0.1 2.9 0 0.7 0.1 0.7 0.3 1.1 0.8q0.6 0.6 1.1 1.3 1.9 2.4 3.8 4.8 4.5 5.6 9 11.2-18.6 0-37.3 0 4 4.9 7.9 9.8 0.9 1.2 1.9 2.4c0.4 0.5 0.5 0.6 1.1 0.7 0.6 0.1 1.2 0 1.7 0q3.3 0 6.5 0 6.4 0 12.7 0c0.9 0 2-0.1 3 0 0.6 0.1 0.8 0.4 1.2 0.9q0.5 0.7 1.1 1.3 1.8 2.4 3.7 4.7 4.5 5.6 9 11.2zm24.3-86q0 26.9 0 53.7 0 26.8 0 53.5 0 6.7 0 13.4c0 0.2 0 0.6 0 0.8 0.2 0.4 0.1 0.1 0.5 0.2 0.6 0.1 1.3 0 1.8 0q1.6 0 3.3 0 1.6 0 3.2 0c0.4 0 1.1 0.1 1.5 0 0.5-0.1 0.9-0.9 1.3-1.3q4.1-5.1 8.2-10.3 1-1.1 1.9-2.2c0.4-0.6 0.6-0.9 0.6-1.6q0-0.8 0-1.7 0-3.4 0-6.8 0-26.6 0-53.2 0-13.4 0-26.8c0-0.9 0.2-2.4-0.2-3.2-0.4-0.9-1.4-1.7-2-2.5q-2.1-2.6-4.2-5.2-2-2.5-4-5c-0.3-0.5-0.7-1-1.1-1.4-0.4-0.4-0.6-0.4-1.2-0.4q-1.7 0-3.4 0-3.1 0-6.2 0z"/>
	<path id="Layer" fill-rule="evenodd" class="s4" d="m25 345.5q38.4 0 76.8 0 38.5-0.1 77 0 19.4 0 38.8 0 4.8 0 9.6 0c3 0 6.2-0.4 9.2 0.4 0.1 0 0.7 0.1 0.8 0.2 0.1 0.1 0 0.8 0 1q0 1.3 0 2.6 0 2.5 0 5 0 4.8 0 9.6 0 38.5 0 76.9 0 38.5 0 77 0 4.8 0 9.6 0 2.3 0 4.5 0 0.7 0 1.3c0 0.8 0.2 0.6-0.5 0.8-0.6 0.2-1.6 0-2.3 0q-9.7 0-19.3 0-19.2 0-38.5 0-38.7 0-77.3 0-19.3 0-38.6 0c-1.4 0-3 0.1-4.5-0.1-1.4-0.2-2.6-1.2-3.8-1.9q-4-2.4-8.1-4.8c-2.4-1.5-5.4-2.8-7.5-4.8-2.3-2.1-4.3-4.7-6.4-7q-1.5-1.7-3-3.4-0.7-0.8-1.4-1.5c-0.2-0.3-0.6-0.6-0.8-1-0.3-0.4-0.2-1.1-0.2-1.7q0-4.8 0-9.5 0-9.6 0-19.2 0-19.2 0-38.4 0-38.5 0-76.9 0-9.4 0-18.7zm6.1 92.9c0 18.3-0.1 36.6-0.1 54.9q0 6.8 0 13.6c0 0.7-0.1 1.5 0.1 2.1 0.1 0.9 1.2 1.5 1.9 2.1 1.6 1.4 2.9 3 4.3 4.5 1.3 1.5 2.7 3.1 4.3 4.4 1.5 1.2 3.2 2.1 4.8 3q2.9 1.7 5.8 3.4c1.8 1 3.5 2.1 5.6 2.4 1.9 0.2 3.9 0 5.9 0q3.6 0 7.1 0 6.9 0 13.7 0 14 0 28 0 27.6 0 55.3 0 27.8 0 55.6 0 3.3 0 6.6 0c-0.4-0.6 0.3-0.3 0.6-0.6 0.4-0.4 0.3-0.5 0.3-1.2q0-1.2 0-2.5 0-3 0-6 0-5.8 0-11.6 0-11.2 0-22.5c0-15.1 0.2-30.1 0.2-45.2 0-1.7-0.2-3.4-0.2-5.1q0-3.1 0-6.1 0.1-5.8 0.1-11.6c0-7.5 0.1-15 0.1-22.5q0-11.4 0-22.7 0-5.9 0-11.7 0-2.7 0-5.5c0-0.6 0.2-1.7 0-2.3q-0.1-0.2-0.1-0.4-0.5 0-1 0-1 0-2 0-45.8 0-91.6 0-45.8 0-91.6 0-5.6 0-11.2 0-0.7 0-1.5 0-0.2 0-0.5 0-0.7-0.3-0.5 0.4c-0.2 0.5 0 1.5 0 2.1q0 3 0 6 0 11.4 0 22.8 0 11.4 0 22.9 0 2.7-0.1 5.3c0 0.9 0.2 2.2 0 3.1-0.2 0.9-0.5 1.2-0.4 2.2 0.6 3.7 0.4 7.5 0.4 11.3q0 5.5 0.1 11z"/>
	<path id="Layer" fill-rule="evenodd" class="s5" d="m436.1 139.9c5.4 3.2 10.9 6.2 16.1 9.7 2.5 1.6 4.4 4.1 6.3 6.3q3.2 3.5 6.4 7.1c0.7 0.7 0.7 1 0.7 2q0 1.1 0 2.3 0 2.5 0 5 0 4.8 0 9.6 0 9.6 0 19.2 0 38.2 0 76.3 0 19.3 0 38.5 0 4.8 0 9.6c0 0.6 0.2 1.5 0 2-0.2 0.7 0 0.6-0.8 0.6q-0.6 0-1.2 0-2.4 0-4.8 0-9.7 0-19.3 0-38.3 0-76.6 0-38.3 0-76.5 0-9.6 0-19.2 0-4.9 0-9.7 0-1.1 0-2.2 0c-0.7 0-0.6 0.1-0.8-0.5-0.1-0.1 0-0.6 0-0.8q0-2.4 0-4.9 0-19.1 0-38.3 0-38.3 0-76.7 0-19.2 0-38.5 0-9.5 0-19 0-2.3 0-4.5 0-1.2 0-2.3c0-0.6-0.2-2 0.2-2.6 0.4-0.5 3.5-0.2 4.3-0.2q2.5 0 5.1 0 38.4 0 76.8 0 38.2 0 76.5 0 9.4 0.1 18.7 0.1zm24.5 182.9q0-36.7 0-73.4 0-36.5 0-73.1 0-4.5 0-9c0-0.9-0.1-1.2-0.6-1.9q-0.6-0.7-1.2-1.4-1.1-1.5-2.3-2.9c-3.1-3.6-6.8-6.9-10.8-9.6q-3-2.1-6.4-3.7c-1.1-0.6-2.1-1.2-3.2-2-0.8-0.5-1.1-0.6-2-0.6q-1.3 0-2.6 0-9.1 0-18.2 0-36.7 0-73.5 0-36.8 0-73.5 0-2.3 0-4.6 0c-0.3 0-1.8-0.2-2 0-0.3 0.2 0 2.1 0 2.5q0 4.6 0 9.1 0 9.3 0 18.5 0 18.4 0 36.7 0 36.7 0 73.4 0 18.2 0 36.4c0 0.5-0.2 0.8 0.2 1 0.3 0.1 1 0 1.3 0q1 0 2 0 2.4 0 4.8 0 4.6 0 9.2 0 9.3 0 18.5 0 36.8 0 73.5 0 36.8 0 73.6 0 8.9 0 17.8 0z"/>
	<path id="Layer" fill-rule="evenodd" class="s4" d="m237.1 139.5q0 38.4 0 76.9 0 38.4 0 76.9 0 9.6 0 19.2 0 4.8 0 9.6 0 2.3 0 4.6c0-0.1 0 0.9 0 1-0.2 0.1-1.3 0-1.6 0q-1.2 0-2.5 0-19.2 0-38.4 0-38.5 0-76.9 0-38.5 0-77 0-4.8 0-9.6 0-1 0-2 0c-0.7 0-1.9 0.2-2.6 0-0.6-0.2-0.3 0.4-0.5-0.5 0-0.3 0-0.7 0-1.1q0-1.5 0-3 0-9.5 0-18.9 0-19.2 0-38.4 0-38.4 0-76.9 0-9.6 0-19.2 0-2.3 0-4.6c0-0.8-0.1-1.5 0.3-2.1 0.5-0.6 1.1-1.2 1.6-1.8 2.1-2.3 4.1-4.6 6.2-6.8 1.9-2.1 3.7-4.6 6.2-5.9 2.6-1.4 5.1-3 7.6-4.5q2-1.2 4-2.3c1.2-0.7 2.4-1.7 3.8-2.1 1.4-0.3 3-0.1 4.4-0.1q2.4 0 4.8 0 38.5 0 77 0 38.5 0 77.1 0 9 0 18.1 0zm-205.9 25.8q0 36.7 0 73.5 0 36.5 0 73.1 0 4.6 0 9.3c0 0.3-0.1 0.7 0 1 0.1 0.6-0.4 0.3 0.5 0.5 0.7 0.1 1.6 0 2.2 0q2.5 0 4.9 0 9.1 0 18.2 0 18.5 0 37.1 0 36.7 0 73.5 0 18.3 0 36.7 0 9.3 0 18.5 0 2.2 0 4.3 0 1.2 0 2.3 0c0.4 0 2.3 0.2 2.6 0 0.2-0.2 0-1.6 0-2q-0.1-1.2 0-2.3-0.1-2.4 0-4.8-0.1-36.7 0-73.4-0.1-36.7 0-73.4-0.1-9.3 0-18.5-0.1-1.2 0-2.3c0-0.3 0-0.7 0-1-0.2-0.9 0.1-0.4-0.5-0.5-0.5-0.2-1.4 0-1.9 0q-1.5 0-2.8 0-4.6 0-9.2 0-18.4 0-36.8 0-36.8 0-73.5 0-18.4 0-36.8 0-4.6 0-9.2-0.1c-1.3 0-2.6 0-3.9 0.3-1.2 0.3-2.3 1-3.4 1.7-2.2 1.2-4.2 2.6-6.4 3.9-2.1 1.2-4.3 2.3-6.1 3.8-1.9 1.6-3.3 3.5-4.9 5.3-1.7 2-3.6 3.9-5.4 5.9z"/>
	<path id="Layer" class="s6" d="m466.1 346.5q-41.3 0-82.5 0-41.2 0-82.4 0-11.5 0-23 0c-7.6 0-15.2 0.2-22.8-0.1 3.3-0.6 6.8-0.3 10.2-0.3q5.1 0 10.1 0 10.4 0 20.8 0 20.5 0 41 0 41.4 0 82.6 0 11.7 0 23.4 0 5.8 0 11.6 0 2.8 0 5.6 0c1.8 0 3.6-0.1 5.4 0.4z"/>
	<path id="Layer" class="s7" d="m255 346.7c0.2 12.2 0 24.4 0 36.6q0 18.2 0 36.4 0 36.8 0 73.5 0 20.7 0 41.5c-0.7-2.7-0.3-5.9-0.3-8.7q0-4.7 0-9.4 0-9.2 0-18.5 0-18.3 0-36.5 0-36.8 0-73.6 0-10.4 0-20.8 0-5.1 0-10.1c0-3.5-0.2-7 0.3-10.4z"/>
	<path id="Layer" class="s8" d="m436.1 139.9q-35.4 0-70.9 0-35.2 0-70.4 0c-13.4 0-26.7 0.1-40-0.1 2.7-0.5 5.7-0.3 8.5-0.3q4.3 0 8.6 0 9 0 18 0 17.7 0 35.5 0 35.6 0 71.2 0 9.9 0 19.8 0 5 0 10.1 0c3.2 0.1 6.5-0.3 9.6 0.4z"/>
	<path id="Layer" class="s9" d="m39.6 43.2q0 12.7 0 25.5 0 6.3 0 12.6 0 3.1 0 6.3 0 1.5 0 3.1c0 0.4 0.1 1 0 1.5-0.1 0.5 0.1 0.3-0.2 0.5-0.2 0.1-0.8 0-1 0q-6.2 0-12.4 0c-0.2 0-0.6 0.1-0.8 0-0.3-0.2-0.1 0-0.2-0.5-0.1-0.5 0-1.1 0-1.5q0-1.7 0-3.3 0-3.2 0-6.3 0-12.8 0-25.6 0-12.8 0-25.6c0-0.2-0.1-1.4 0-1.5 0.2-0.2 1.2 0 1.5 0q1.6 0 3.2 0 3 0 6.1 0 3.1 0 6.2 0 1.5 0 2.9 0c1.1 0 2.3-0.2 3.3 0 0.4 0.1 0.3-0.1 0.6 0.2 0.1 0.2 0.2 0.6 0.2 0.7q0.3 0.8 0.5 1.5 0.5 1.7 1.1 3.3 1 3 2 6 1.9 6 3.9 12 2 6.2 4.1 12.3 0.9 3 1.9 6c0.1 0.3 0.3 1.2 0.6 1.3 0.4 0 0.5-0.9 0.6-1.2q0.5-1.6 1-3.1 4-12.2 7.9-24.3 2-6.1 3.9-12.1c0.3-0.7 0.5-2.4 1.1-2.6 0.8-0.3 2.4 0 3.2 0q3.1 0 6.2 0 6.1 0 12.3 0c0.5 0 1-0.1 1.5 0 0.4 0.1 0.3-0.1 0.5 0.2 0 0.2 0 0.6 0 0.8q0 1.6 0 3.3 0 3.1 0 6.3 0 12.7 0 25.4 0 12.7 0 25.4c0 0.5 0.3 2.7 0 3-0.4 0.3-2.7 0-3.2 0q-3 0-6 0-1.5 0-3 0-0.7 0-1.4 0c-0.9 0-1 0.1-1-0.8q0-3.1 0-6.2 0-12.7 0-25.4 0-6.2 0-12.5 0-1.5 0-3c0-0.3 0.1-1.1 0-1.5-0.5-0.9-0.7 0.4-0.8 0.9q-1 3-1.9 6-3.8 12.1-7.5 24.2-1.9 6.2-3.9 12.3-0.4 1.5-0.9 2.9-0.2 0.7-0.4 1.5c-0.1 0.3-0.3 1.5-0.5 1.7-0.3 0.1-1.3 0-1.5 0q-0.8-0.1-1.5 0-1.6-0.1-3.2 0-3 0-6 0c-0.9-0.1-1.9 0.1-2.8-0.1-0.4-0.1-0.3 0.1-0.5-0.3-0.1-0.1-0.2-0.5-0.3-0.7q-0.2-0.9-0.6-1.9-1.8-6-3.6-11.9-3.7-11.9-7.4-23.8-0.8-2.8-1.7-5.6-0.5-1.4-0.9-2.8-0.2-0.7-0.4-1.4c-0.2-0.6-0.2-1.3-0.8-1.2z"/>
	<path id="Layer" fill-rule="evenodd" class="s9" d="m252.3 106.7q0-8.1 0-16.3 0-2 0-4 0-0.9 0-1.7c0-0.5-0.3-2.3 0-2.5 0.3-0.4 2.9 0 3.4 0q0.9 0 1.9 0c0.3 0 0.7 0.1 1 0 0.3-0.2 0.4-0.4 0.6-0.8 4.9-9.2 6.9-19.8 7.2-30.1q0.2-8.1 0.4-16.1 0.1-1.9 0.1-3.7 0-1 0.1-2c0-0.9-0.1-1.1 0.8-1.1q4.1 0 8.2 0 16.2 0 32.4 0 4.1 0 8.3 0 1.9 0 3.8 0c0.3 0 0.8-0.1 1 0 0.4 0.2 0.3 0.3 0.3 0.8q0 1.1 0 2.2 0 8.3 0 16.5 0 16.4 0 32.8c0 0.3-0.2 0.8 0 1.1 0.2 0.3 0 0.1 0.4 0.2 0.6 0.1 1.3 0 1.9 0q1.9 0 3.8 0c0.5 0 0.5-0.1 0.7 0.3 0.1 0.2 0 0.7 0 1q0 1 0 2 0 2.1 0 4.3 0 8 0 16.1c0 0 0 1 0 1-0.1 0.1-0.8 0-1 0q-1 0-2 0-2 0-4.1 0-1.8 0-3.7 0c-0.6 0-1.4 0.2-2 0-0.8-0.2-0.3 0.1-0.5-0.5 0-0.4 0-1 0-1.4q0-3.9 0-7.8 0-1 0-2c0-0.4 0.3-1.8 0-2-0.1-0.2-1.4 0-1.7 0q-1.2 0-2.3 0-16.3 0-32.7 0-4 0-8.1 0-2 0-4 0c0 0-1-0.1-1.1 0 0 0.1 0 1 0 1q0 1.1 0 2.2 0 4 0 8 0 0.9 0 1.8c0 0.4 0.2 0.5-0.2 0.7-0.2 0.1-0.7 0-1 0q-2.1 0-4.1 0-3.9 0-7.8 0zm53.3-24.7q0-11.1 0-22.1 0-5.5 0-11 0-2.5 0-5 0-1.3 0-2.5c0-0.5 0.1-1.2 0-1.5q0.3-0.8-0.5-0.5-0.3 0-0.7 0-5.4 0-10.7 0-2.7 0-5.4 0-1.3 0-2.5 0c-0.8 0-2.2-0.3-3 0q-0.2 0-0.5 0 0 0.4 0 0.9 0 0.5-0.1 0.9 0 1.5-0.1 2.9 0 2.6-0.2 5.2c-0.2 3.4-0.4 6.8-0.8 10.2-0.8 7.7-2.3 15.3-5.3 22.5q14.9 0 29.8 0z"/>
	<path id="Layer" class="s9" d="m133.3 53.4q10.4 0 20.9 0 5.3 0 10.5 0 2.5 0 5.1 0c0.7 0 1.8-0.2 2.5 0 0.6 0.2 0.3-0.4 0.5 0.5 0.1 0.5 0 1.2 0 1.7q0 2.5 0 4.9 0 1.3 0 2.5c0 0.3 0.1 1.2 0 1.3-0.2 0.1-1.2 0-1.5 0q-5.2 0-10.4 0-10.5 0-21.1 0-2.5 0-5 0c-0.2 0-0.8-0.1-1 0q-0.3 0-0.5 0 0 0.5 0 1 0 1.3 0 2.6 0 4.9 0 9.9 0 1.2 0 2.4c0 0.2-0.2 1.3 0 1.5 0 0 0.5 0.1 0.7 0.1 1.6 0.4 3.4 0.2 5.1 0.2q5.3 0 10.6 0 10.5 0 21.1 0 2.4 0 4.9 0c0.4 0 1.4-0.1 1.6 0.1 0.2 0.2 0.2 0.8 0.2 1 0.3 1.9 0.3 3.9 0.2 5.8q-0.1 1.3-0.3 2.6c-0.1 0.8 0 1.3-0.8 1.4-1.7 0.1-3.4 0-5.1 0q-2.7 0-5.5 0-10.4 0-20.8 0-10.4 0-20.8 0-2.6 0-5.1 0-0.6 0-1.2 0c-0.8 0-0.6 0.1-0.8-0.5-0.2-0.8 0-2.3 0-3.1q0-5.2 0-10.5 0-20.9 0-41.8 0-2.6 0-5.1 0-1.2 0-2.5c0 0-0.1-1 0-1 0.2-0.2 1.7 0 2 0q5.2 0 10.4 0 10.4 0 20.9 0 10.6 0 21.2 0 1.2 0 2.5 0c0.3 0 0.7-0.1 1 0 0.7 0.2 0.5 0.1 0.5 0.9q0 2.5 0 4.9 0 1.2 0 2.4c0 0.6 0.3 1.9 0 2.4-0.2 0.4-0.4 0.3-1 0.3q-0.6 0-1.2 0-1.4 0-2.8 0-10.5 0-21 0-5.2 0-10.5 0-2.5 0-5 0c-0.2 0-0.9-0.1-1 0-0.1 0.1 0 1.2 0 1.4q0 1.4 0 2.7 0 5 0 10z"/>
	<path id="Layer" fill-rule="evenodd" class="s9" d="m395.5 92.8q13.6-28.3 27.2-56.7 1.7-3.5 3.3-7c0.4-0.8 0.5-0.7 1.3-0.7q1 0 1.9 0 1.9 0 3.9 0 3.8 0 7.5 0 1 0 2 0c0.8 0 0.9 0.2 1.2 0.9q0.9 1.8 1.8 3.6 6.9 14 13.7 28 7.9 15.9 15.7 31.7-4.9 0-9.9 0-2.4 0-4.9 0c-0.7 0-1.6 0.2-2.2 0-0.6-0.1-1-1.2-1.3-1.8-1.5-2.9-2.8-6-4.2-9-0.5-1.1-0.9-2.7-1.9-3.3-1.1-0.7-3-0.4-4.3-0.4q-9.7 0-19.5 0c-1.6 0-3.2 0-4.7 0.1q-1.1 0-2.2 0.1c-0.2 0-0.8 0-0.9 0.1-0.3 0.1-0.5 1-0.6 1.3q-2.1 4.6-4.1 9-0.6 1.4-1.3 2.8c-0.1 0.2-0.2 0.6-0.4 0.9-0.4 0.6-0.3 0.4-1.1 0.4q-2.5 0-5.1 0-5.4 0-10.9 0zm28.4-25.5q10.9 0 21.7 0-2.7-6.1-5.5-12.2-1.4-2.8-2.7-5.7-0.6-1.3-1.2-2.7c-0.3-0.5-0.9-2.6-1.5-2.6-0.7 0-1.1 1.8-1.4 2.4q-0.6 1.5-1.3 2.9-1.3 2.9-2.6 5.8-2.7 6-5.5 12.1z"/>
	<path id="Layer" fill-rule="evenodd" class="s9" d="m339.6 28.4c7.7-0.5 15.5-0.1 23.3-0.1q6 0 12.1 0.1c3.6 0.1 7.3 0.2 10.8 1.3 6.2 1.8 11.4 6 13.4 12.2 2.1 6.2 0.8 13.7-3.5 18.6-2.2 2.4-5 4.3-8 5.6-3.4 1.3-7.2 1.7-10.8 2-4 0.3-8 0.4-12 0.5q-2.7 0-5.4 0-1.4 0-2.8 0c-0.2 0-1-0.1-1.1 0-0.2 0.2 0 1.7 0 2q0 5.9 0 11.7 0 2.9 0 5.8 0 1.5 0 3c0 0.2 0.1 1.4 0 1.5-0.2 0.2-1.2 0-1.5 0q-6 0-12 0-0.8 0-1.5 0-0.3 0-0.5 0-0.8 0.3-0.5-0.5c-0.3-0.8 0-2.2 0-3q0-3 0-6.1 0-27.3 0-54.6zm16 11q0 4.5 0 9 0 2.2 0 4.4 0 1.1 0 2.2c0 0.5-0.3 2 0 2.4 0.3 0.4 1.5 0.2 1.8 0.2q1.1 0 2.2 0 2.4 0 4.8 0c3 0 6-0.1 9-0.5 4.3-0.6 9-2.1 10.1-6.9 0.2-1.1 0.2-2.2 0-3.3-0.1-0.6-0.2-1.3-0.5-1.9-0.2-0.7-0.7-1.2-1.2-1.7-1.8-1.9-3.8-3.1-6.3-3.6-3.1-0.6-6.4-0.4-9.6-0.4-3.4 0-6.9 0.1-10.3 0.1z"/>
	<path id="Layer" class="s9" d="m186.8 43c1.9-5 5.1-9.3 9.9-11.8 5.9-3.2 13-4.1 19.6-3.9 6.2 0.1 12.9 0.8 18.4 3.7 4.7 2.5 9.3 7.5 9.1 13.1-0.2 7.5-6.9 11.6-12.8 14.6 5.7 2.3 12 4.6 14.5 10.8 2.4 6.2 0.4 13.3-4.5 17.5-2.5 2.2-5.5 3.7-8.6 4.7-3.4 1.2-6.9 1.4-10.5 1.6-7.2 0.4-14.9 1-22-1.3-3.4-1.1-6.6-2.9-9.1-5.5-2.5-2.4-4-5.4-5.3-8.6q4.7-1.2 9.4-2.5 1.1-0.3 2.3-0.6c0.6-0.2 1.5-0.7 2.2-0.6 0.7 0 0.2-0.4 0.7 0.2 0.3 0.3 0.4 0.7 0.6 1q0.7 1.1 1.3 2.1c1.5 2.4 3.2 3.8 5.9 4.6 2.8 1 5.9 1.4 8.9 1.2 4.8-0.3 11.5-1.7 12.8-7.2 1.2-5.1-3.1-8.5-7.6-9.6-3.3-0.8-6.9-0.8-10.3-1.1q-0.2 0-0.4 0-0.7 0.2-0.5-0.5c-0.1-0.4 0-1 0-1.3q0-1.1 0-2.2 0-2.8 0-5.6c4.7 0 9.3 0.1 13.3-2.9 3.4-2.6 4.5-7.3 2.1-11-2.6-3.9-8.4-3.9-12.6-3.8-2.1 0-4.1 0.2-5.9 1.2-2 1.1-3.1 2.8-4.3 4.6-0.3 0.5-0.6 1.2-1 1.6-0.5 0.5-0.1 0.2-0.7 0.2-0.5 0-1.1-0.1-1.5-0.2q-2.1-0.4-4.3-0.8-4.5-0.9-9.1-1.7z"/>
	<path id="Layer" class="s10" d="m461 402.7c0.4 3.4 0.1 6.9 0.1 10.4q0 5.5 0 10.9 0 11.1 0 22.1-0.1 21.8 0 43.6 0 5.3 0 10.6 0 2.8 0 5.6c0 1.5-0.1 2.9-1 4.1-0.9 1.2-2.1 2.3-3.1 3.4-1.3 1.3-2.3 2.7-3.5 4.1-1.9 2.1-4.2 3.8-6.7 5.3-2.5 1.5-5.1 3-7.7 4.4-1.1 0.7-2.2 1.6-3.5 2-1.4 0.5-2.9 0.4-4.4 0.4q-10.9 0-21.8 0-43.9 0-87.8 0-21.8 0-43.6 0-5.6 0-11.1 0-2.5 0-4.9 0-0.5 0-1 0c-0.8 0-0.5 0.1-0.7-0.5-0.3-0.9 0-2.2 0-3.1q0-10.8 0-21.5 0-43.5 0-87 0-5.3 0-10.6 4.5 5.6 9 11.1c0.2 0.4 0.7 1.3 1.1 1.5 0.3 0.1 1.2 0 1.5 0q2 0 4 0 3.6 0 7.2 0 3.6 0 7.2 0 2 0 4 0c0.6 0 0.8 0 1.3 0.3 0.4 0.4 0.8 1 1.1 1.5q4.5 5.5 9 11.1-10 0-20 0-4.9 0-9.9 0-2.4 0-4.9 0c-0.5 0-1.7-0.2-2 0.1-0.5 0.5 0.7 1.5 1.1 1.9q6.2 7.7 12.4 15.4c0.1 0.1 0.5 0.7 0.6 0.8 0.3 0.2 1.2 0 1.5 0q1.2 0 2.3 0 2.6 0 5.2 0 5 0 10 0c1.7 0 3.7-0.2 5.4 0 0.8 0.1 0.3 0 0.8 0.4 0.4 0.3 0.8 0.9 1.1 1.4q0.9 1 1.7 2.1 3.6 4.4 7.1 8.9-12.2 0-24.3 0c0.5 2 2.2 3.5 3.5 5.1 1.5 1.7 3 3.5 4.4 5.3 1.5 1.8 2.8 3.8 4.3 5.6 1.1 1.2 2.4 2 4.1 2.2 2.1 0.3 4.3 0 6.5 0q3.6 0 7.2 0c2.5 0 4.9 0.1 7.3 0.1 2 0 3.3-0.6 4.6-2.2q2.4-3.1 4.8-6.1c1.5-1.9 2.9-3.9 4.7-5.5q0 9.5 0 19 0 4.6 0 9.2 0 2.2 0 4.4 0 1.1 0 2.2c0 0.2-0.1 0.8 0 1q-0.3 0.8 0.5 0.5 0.2 0 0.5 0 4.5 0 9.1 0 1.2 0 2.5 0c0.5 0 1.5 0.2 1.9 0 0.5-0.2 1.1-1.4 1.5-1.8q0.7-0.9 1.5-1.9c1.9-2.4 3.7-4.8 5.7-7.1 1.5-1.9 4-4 4.2-6.6 0.3-3.4 0.1-7 0.1-10.4q0-4.7 0-9.5 2.8 3.6 5.7 7.1 1.2 1.5 2.5 3.1c0.9 1.1 1.8 2.7 2.9 3.6 0.5 0.3 0.1 0.2 0.8 0.3 0.3 0.1 0.7 0 1 0q1.1 0 2.2 0 2.3 0 4.7 0 4.5 0 9.1 0 2 0 4.1 0 1.2 0 2.3 0 0.6 0 1.2 0c0.7 0 0.8 0.1 1.3-0.4 1-0.8 1.8-2.2 2.6-3.2q1.5-1.8 2.9-3.6 2.8-3.5 5.6-7 0.8-1 1.5-2c0.2-0.2 1.3-1.2 1.3-1.5-0.1-0.8-3.7-0.4-4.3-0.4q-10.1 0-20.2 0 3.8-4.8 7.6-9.5 0.9-1.2 1.9-2.4c0.2-0.3 0.5-0.9 0.8-1.1 0.4-0.2 1.4 0 1.8 0q3.2 0 6.5 0 6.3 0 12.7 0 1.4 0 2.9 0c0.8 0 1 0 1.5-0.5q0.5-0.7 1-1.4 1.9-2.3 3.8-4.7 4.5-5.6 9.1-11.3-18.7 0-37.3 0c2.5-3.1 5-6.2 7.4-9.2 1-1.3 2-3.3 3.8-3.7 2-0.4 4.3 0 6.4 0 4.4 0 8.8 0 13.3 0 1.6 0 3.5 0.3 4.9-0.8 1.5-1.2 2.7-3.2 3.9-4.7q2.2-2.8 4.5-5.6c1.4-1.7 2.8-4 4.6-5.3z"/>
	<path id="Layer" class="s10" d="m260.2 401.5q0-19.2 0-38.3 0-4.7 0-9.4c0-0.4-0.2-1.8 0-2 0.3-0.3 2.1 0 2.6 0q2.5 0 5 0 9.6 0 19.3 0 38.7 0 77.5 0 38.7 0 77.3 0 5 0 9.9 0 2.3 0 4.6 0 1.1 0 2.3 0 0.6 0 1.2 0 0.3 0 0.5 0 0.8-0.3 0.5 0.5c0.2 0.6 0 1.6 0 2.2q0 1.2 0 2.3 0 2.5 0 5 0 4.8 0 9.5 0 9.6 0 19.1 0 4.8 0 9.6c0 0.6 0.2 0.8-0.2 1-0.3 0.2-1 0-1.3 0q-1.1 0-2.2 0-2.6 0-5.1 0-19.3 0-38.7 0-9.6 0-19.2 0-2.3 0-4.6 0c-1.6 0-3.4-0.2-5 0-0.8 0.1-0.3 0-0.8 0.4-0.4 0.3-0.7 0.8-0.9 1.1q-0.6 0.8-1.2 1.5-1.5 1.9-3 3.8-3 3.6-5.9 7.2 0-9.1 0-18.1 0-1 0-1.9c0-1.1-0.2-1.3-0.9-2.1q-1.3-1.6-2.5-3.3-2.8-3.4-5.6-6.8-1.3-1.7-2.7-3.3c-1.1-1.3-1.7-2.1-3.5-2.1q-4.4 0-8.8 0.1c-0.6 0-3.1-0.3-3.6 0.2-0.2 0.2 0 2 0 2.3q0 1.2 0 2.5 0 4.7 0 9.3 0 9.2 0 18.4c0 1.3 0.4 3.1 0 4.3-0.1 0.5 0.1 0.8-0.5 0.4-0.3-0.1-0.5-0.6-0.7-0.9q-0.8-0.9-1.5-1.9-2.8-3.3-5.5-6.7c-0.9-1.2-1.7-2.5-2.8-3.5-0.5-0.5-1-0.4-1.8-0.4q-1.4 0-2.8 0-4.6 0-9.3 0-9.2 0-18.4 0c-13.9 0-27.8 0-41.7 0z"/>
	<path id="Layer" class="s2" d="m373.6 463.9q0-13.3 0-26.6 0-6.6 0-13.3 0-1.6 0-3.2 0-0.8 0-1.6c0-0.8 0.1-1.1 0.6-1.7q2-2.5 4-5 2-2.6 4.1-5.2 0.9-1.1 1.9-2.3c0.2-0.3 0.7-1.2 1.1-1.3 0.4-0.2 1.3 0 1.7 0q6.6 0 13.2 0 13.2 0 26.4 0 15 0 30 0-3.8 4.8-7.7 9.7-0.9 1.1-1.8 2.2c-0.4 0.4-0.6 0.8-1 1-0.5 0.1-1.3 0-1.8 0q-3.2 0-6.4 0-6.4 0-12.7 0-1.5 0-3 0c-0.7 0-0.8 0-1.2 0.5q-0.6 0.7-1.1 1.4-2 2.4-4 4.9-4.5 5.6-9 11.2 18.7 0 37.3 0-3.8 4.8-7.6 9.5-0.9 1.2-1.9 2.4c-0.2 0.2-0.5 0.9-0.9 1.1-0.3 0.1-1.3 0-1.7 0q-3.2 0-6.5 0-6.3 0-12.7 0-1.4 0-2.9 0c-0.8 0-1-0.1-1.5 0.5q-0.5 0.7-1.1 1.4-1.9 2.3-3.8 4.7-4.5 5.7-9.1 11.3 12.5 0 24.9 0-4.5 5.6-9 11.2c-0.3 0.4-0.7 1.1-1.1 1.4q-0.2 0.6-0.8 0.4-0.5 0-1 0-1.7 0-3.4 0-3.9 0-7.7 0-3.7 0-7.4 0-0.9 0-1.7 0c-0.5 0-1.6 0.2-2 0-0.5-0.2-0.9-1.2-1.3-1.5q-0.5-0.7-1-1.3-4.7-5.9-9.4-11.8z"/>
	<path id="Layer" class="s2" d="m323.6 466.1q-3.9-4.9-7.8-9.7-1.9-2.4-3.9-4.9-0.9-1.1-1.8-2.2c-0.2-0.3-0.6-1.1-1-1.3-0.4-0.1-1.3 0-1.8 0q-6.3 0-12.6 0-3.2 0-6.5 0-1.5 0-3 0c-0.6 0-0.8 0.1-1.3-0.3-0.4-0.4-0.7-0.9-1-1.3q-4.5-5.7-9-11.3 18.6 0 37.3 0-4-4.9-8-9.9-1.9-2.3-3.8-4.7-0.9-1.2-1.8-2.3c-0.3-0.3-0.6-1-0.9-1.2-0.4-0.1-1.4 0-1.8 0q-6.3 0-12.7 0-3.1 0-6.2 0-1.5 0-3 0c-0.5 0-1 0.1-1.4-0.1-0.4-0.3-0.7-1-1.1-1.4q-4.5-5.6-9-11.2 19.1 0 38.3 0 9.5 0 19 0 4.8 0 9.6 0 1.2 0 2.5 0c0.6 0 1.6-0.2 2.1 0.2 0.5 0.3 1 1.1 1.4 1.7q0.8 0.9 1.5 1.8 2.9 3.7 5.8 7.3c0.9 1 2.5 2.5 2.8 3.7 0.3 1.4 0 3.3 0 4.8q0 9.5 0 19 0 9.6 0 19.1c0 0.7 0.3 1.9 0 2.5-0.2 0.6-1 1.3-1.4 1.8q-1.5 1.9-3 3.7-3 3.8-6 7.5c-0.3 0.4-0.6 0.9-1 1.2-0.5 0.4-0.6 0.4-1.3 0.4q-1.2 0-2.5 0-2.7 0-5.4 0-5.1 0-10.3 0-1.3 0-2.5 0-0.6 0-1.2 0c-0.7 0-0.8 0-1.2-0.5q-1.6-2-3.2-3.9-3.4-4.3-6.7-8.5 12.4 0 24.8 0z"/>
	<path id="Layer" class="s2" d="m347.9 380.1q3.1 0 6.2 0 1.5 0 3.1 0c0.7 0 1-0.1 1.5 0.4 0.4 0.4 0.7 0.9 1.1 1.3q4.1 5.2 8.2 10.3c0.6 0.7 1.3 1.5 1.9 2.3 0.5 0.9 0.3 2.4 0.3 3.4q0 3.4 0 6.8 0 6.7 0 13.4 0 26.6 0 53.2 0 6.7 0 13.4c0 1.1 0.2 2.2-0.5 3.1q-1 1.2-2 2.4-2.1 2.6-4.1 5.2-2.1 2.5-4.1 5.1c-0.3 0.3-0.7 1.2-1.1 1.3-0.3 0.2-1.1 0-1.5 0q-1.7 0-3.5 0-1.5 0-3 0-0.8 0-1.7 0c-0.9 0-0.8-0.1-0.8-1q0-3.4 0-6.8 0-26.8 0-53.5 0-26.8 0-53.7 0-3.3 0-6.6z"/>
	<path id="Layer" class="s11" d="m230.9 463.9q0 25.7 0 51.3 0 3.7 0 7.3 0 1.9 0 3.8c0 0.4 0.2 1.5 0 1.7-0.3 0.5-1.4 0.2-0.9 0.8q-49.9 0-99.8 0-25 0-50 0-6.2 0-12.4 0c-2 0-4 0-5.9 0-1.9 0.1-3.8 0.2-5.6-0.3-1.6-0.5-3.1-1.6-4.6-2.4q-2.7-1.5-5.3-3.1c-1.5-0.8-3-1.6-4.3-2.6-1.6-1.2-2.9-2.6-4.2-4.1-1.3-1.4-2.5-2.8-3.8-4.1q-0.9-0.9-1.9-1.7c-0.7-0.7-1.1-0.9-1.2-1.8-0.2-3.9 0-7.8 0-11.6q0-12.3 0-24.6c0-2.1-0.1-4.1 0-6.1 0-0.4-0.1-1 0-1.4q0-0.2 0.1-0.4 0.4 0 0.9 0c1.1 0.1 2.2 0.1 3.3 0.2 3.8 0.3 7.6 0.9 11.3 1.9 7.2 2 13.3 5.9 19.3 10.2 5.7 4.1 12.3 6 19.3 5.3 3.3-0.4 6.5-1.4 9.3-3.2 3.3-2.2 6.4-4.8 9.7-7.2 5.7-4.1 11.9-7 19-7.8 7.3-0.8 14.6 0.7 21.4 3.5 6.9 2.8 13.3 6.8 19.3 11.1 2.8 2.1 5.6 5 9.1 5.9 1.7 0.5 3.5 0.3 5.3 0.1 1.9-0.2 3.9-0.3 5.8-0.6 6.9-1.3 11.3-7 16.7-10.9 5.9-4.2 12.5-7 19.6-8.2 3.5-0.6 7-0.9 10.5-1z"/>
	<path id="Layer" class="s11" d="m31 413.9c1.7 0.6 3.6 0.3 5.3 0.5q3.1 0.2 6.3 0.8c3.7 0.8 7.4 2 10.8 3.6q5.1 2.2 9.6 5.5c3 2.2 5.9 4.5 9.4 5.8 6 2.3 13.6 2.6 19.4-0.1 5.9-2.6 10.3-7.6 15.7-10.9 5.9-3.6 12.6-5.8 19.6-5.8 7.6-0.1 15 2.3 21.8 5.6 6.5 3.2 12.6 7.4 18.4 11.8 2.5 2 5.1 3.6 8.4 3.5 3.8-0.1 7.7-0.6 11.3-1.5 1.8-0.5 3.2-1.5 4.7-2.6q2.7-2.1 5.4-4.3c3.2-2.6 6.4-5.1 10.1-7.1 7.3-3.8 15.6-5.2 23.8-5.3q-0.1 6.2-0.1 12.4 0 3 0 6c0 1.9-0.2 3.8 0.2 5.7-1.8 0.1-3.6 0.1-5.4 0.6-1.7 0.5-3.3 1.4-4.8 2.5-2.9 2.1-5.4 4.7-8.3 7-2.8 2.2-5.9 4.2-9.3 5.6-3.3 1.4-6.8 2.4-10.3 3.2-13 2.9-27.5 3-39.4-3.4-6.5-3.5-11.9-8.8-18.3-12.5q-2.5-1.4-5.1-2.4c-1.3-0.5-2.5-1.2-3.7-0.4-3.2 2.2-6.1 4.7-9.2 7-5.9 4.1-12.3 7.5-19.3 9.2-7.5 2-15.3 2.3-22.9 1.5-8.1-0.8-16.2-3-23.3-7.1-3.6-2-6.8-4.6-10.3-6.8-3.1-2.1-6.6-3.8-10.4-3.1q0-6.5-0.1-13c0-2.1 0-4.2 0-6.3-0.1-1.8-0.7-3.5 0-5.2z"/>
	<path id="Layer" class="s0" d="m31.1 438.4c3.8-0.7 7 0.8 10.1 2.9 3.2 2 6.1 4.3 9.4 6.3 5.9 3.5 12.5 5.9 19.3 7.1 14.3 2.5 29.5 0.8 42.2-6.7 3-1.7 5.8-3.7 8.5-5.8q2.2-1.7 4.3-3.3c0.6-0.4 1.7-1.6 2.3-1.7 0.8-0.2 2.3 0.6 3 0.9 3.2 1.2 6.1 3 9 4.9 3.2 2.2 6.3 4.4 9.4 6.7 11.6 8.7 26.9 9.8 40.8 7.3 8.2-1.4 15.8-3.9 22.4-8.8 3.1-2.3 5.7-5 8.7-7.3 1.4-1.1 2.8-2 4.4-2.6 2-0.7 4.1-0.7 6.2-0.8q0 7.4 0 14.8 0 3.8 0 7.5c0 1.1 0.1 2.4-0.1 3.5-0.1 0.7-0.3 0.7-1 0.7q-0.9 0-1.8 0c-8.5 0.4-17 2.5-24.3 7.1-3.8 2.4-7 5.3-10.4 8.2-3 2.4-6.4 4.3-10.2 4.8-2.3 0.3-4.6 0.6-6.9 0.7-2.1 0.2-4-0.2-5.8-1.2-2-1.1-3.6-2.7-5.4-4q-2.6-2-5.4-3.8c-7.4-4.9-15.5-9.3-24.2-11.1-8.3-1.8-17.1-0.8-24.7 3-4.1 2.1-7.7 4.9-11.4 7.7-3.5 2.6-6.7 5.2-11.1 6.3-3.9 1-8.3 0.9-12.4 0.1-4-0.9-7.5-2.9-10.7-5.3-7.3-5.4-15-9.4-24-10.9q-3.4-0.6-6.9-0.8-0.9 0-1.7-0.1c-0.2 0-1.4 0.1-1.6-0.1-0.2-0.1 0-1.4 0-1.7q0-1.2 0-2.3 0-7.4 0-14.8 0-3.8 0-7.4z"/>
	<path id="Layer" fill-rule="evenodd" class="s11" d="m460.6 322.8q-36.8 0-73.6 0-36.7 0-73.5 0-18.4 0-36.8 0-4.7 0-9.4 0-2.1 0-4.3 0-1.1 0-2.3 0c-0.1 0-0.9 0.1-1 0-0.1-0.1 0-1.4 0-1.5q0-9.1 0-18.2 0-36.7 0-73.4 0-36.7 0-73.4 0-4.6 0-9.1 0-0.5 0-1c0-0.6-0.1-0.8 0.3-1 0.4-0.3 1.8 0 2.2 0q2.3 0 4.6 0 9.3 0 18.5 0 18.4 0 36.8 0 36.8 0 73.5 0 18.2 0 36.5 0c0.8 0 1.7-0.2 2.5 0 0.7 0.1 1.1 0.4 1.7 0.8 1.2 0.8 2.3 1.4 3.6 2q3.2 1.7 6.2 3.7c4 2.7 7.6 6 10.7 9.7q1.2 1.3 2.2 2.7 0.6 0.7 1.1 1.5c0.5 0.7 0.5 1.3 0.5 2.2q0 4.5 0 9 0 9.1 0 18.1 0 18.4 0 36.8 0 36.7 0 73.3 0 8.9 0 17.8zm-115.5-125c0 0.6 0.1 0.3-0.4 0.6-0.3 0.2-0.7 0.2-1 0.3q-1.2 0.3-2.4 0.6-2.3 0.6-4.7 1.3c-2.9 0.7-5.6 1.8-8.4 3.1-3 1.4-5.9 2.6-8.8 4-2.2 1.1-4.4 2.2-6 4.1-1.5 1.8-2.2 3.9-2.5 6.2-0.1 0.8-0.3 1.7-1 2.3-0.9 0.9-2.6 1-3.8 1.3-2.7 0.8-5.4 1.9-7.8 3.3-2.6 1.6-4.6 3.7-6.7 5.8-1.2 1.2-2.3 2.4-3.5 3.5-1.2 0.9-2.8 1.4-4.2 1.9-1.7 0.6-3.5 1.1-5.2 1.5q-1.3 0.4-2.7 0.8-0.5 0.1-0.9 0.3c-0.8 0.2-0.9 0.4-1.3-0.3-2.5 3.1-4.3 6.8-6 10.3-0.9 1.8-1.7 3.6-1.9 5.5-0.3 2.2-0.4 4.4-0.5 6.6-0.2 4.4-0.4 8.8-0.1 13.1 0.2 4.4 0.5 8.7 0.7 13.1 0.1 4.3 0.3 8.7 0.3 13q0 3.4 0 6.7c0 0.8-0.3 1.6-0.3 2.4 0 0.6 0.1 0.5 0.7 0.7 0.5 0.1 1 0.2 1.5 0.2 4.5 0 8.9-0.3 13.3-0.4 4.4-0.1 8.9-0.1 13.3 0 8.9 0 17.8 0.4 26.7 0.5 8.9 0 17.8-0.2 26.7-0.6 8.8-0.4 17.6-0.3 26.4-0.2q6.7 0.1 13.4 0.1c4.1 0.1 8.2 0.8 12.3 1.3 4.2 0.7 8.5 0.5 12.8 0 1.9-0.3 3.8-1 5.7-1.5 2.1-0.4 4.3-0.3 6.5-0.3 9-0.1 17.9-0.1 26.9-0.1 2.1 0 4.2 0 6.3-0.1-0.4-3.4-0.3-6.8-0.4-10.2q-0.1-5.2-0.2-10.5-0.1-5.1-0.2-10.3c0-1.6 0-3.3-0.1-4.9 0-0.2 0-0.8-0.1-1-0.1-0.2-0.5-0.2-0.7-0.4-0.4-0.3-0.4-0.5-0.4-1.1q-0.1-0.7-0.1-1.4c-0.3-3.3-0.5-6.6-1.2-9.9-0.3-1.6-0.4-3.2-0.7-4.7-0.4-1.7-0.8-3.4-1.1-5.1-0.6-2.9-2.3-5.2-3.3-7.9-1.2-3-2.3-6.1-3.7-9-1.5-3.1-2.9-6.4-4.8-9.2-1.6-2.3-4.1-4.8-7-5.3q0 0.7-0.1 1.3c0 0.6 0 0.7-0.4 1-0.5 0.6-1.1 1-1.5 1.7-0.8 1.4-1.3 3.1-1.9 4.7q-0.2 0.6-0.5 1.3c-0.2 0.5-0.2 0.7-0.7 0.9-0.9 0.3-1.6-1.1-2.1-1.7q-2-2.4-4.1-4.8c-2.6-3.1-5.3-6.1-7.8-9.3-2.4-3.3-4.9-6.5-7.4-9.7-2.5-3.2-4.8-6.6-7.4-9.7-1.2-1.5-2.6-2.8-3.8-4.3-1.1-1.4-2.2-2.9-3.4-4.2-2.5-2.7-5.1-4.9-8-7.1-1.3-0.9-2.6-2-3.5-3.3-0.3-0.4-0.4-0.7-0.8-0.8-0.4-0.2-1 0-1.5 0-1 0-2.1-0.1-3.2-0.1-1.9 0-4.2-0.1-5.9 0.9-1.5 0.9-2.8 2.7-4.2 3.9-1.1 0.9-10.2 7.2-10.6 6.5q-3.6 3.1-7.1 6.2c-0.3 0.2-0.8 0.5-1 0.8-0.1 0.2 0 0.4-0.1 0.6-0.2 0.6-0.6 1.2-1 1.7-0.4 0.5-0.8 1-1.1 1.6-0.2 0.6-0.2 1.2-0.3 1.9z"/>
	<path id="Layer" fill-rule="evenodd" class="s10" d="m31.2 165.3c1.8-2.1 3.8-4 5.6-6.1 1.7-1.9 3.1-3.9 5.2-5.4 1.9-1.5 4-2.6 6.1-3.8 2.2-1.3 4.4-2.7 6.5-4 2.4-1.5 4.5-1.6 7.3-1.6q4.5 0 9.1 0 9.3 0.1 18.5 0.1 36.8 0 73.6 0 18.4 0 36.8 0 9.3 0 18.5 0 4.6 0 9.2 0 1.1 0 2.3 0c0.5 0 1.2-0.2 1.7 0 0.6 0.2 0.4 0 0.4 0.7q0 0.5 0 1 0 1.4 0 2.8 0 36.8 0 73.5 0 36.7 0 73.4 0 9.1 0 18.2 0 2.3 0 4.6 0 1 0 2 0 0.6 0 1.3c0 0.8 0.1 0.7-0.7 0.7q-4.6 0-9.2 0-18.3 0-36.7 0-36.8 0-73.5 0-36.9 0-73.8 0-2.2 0-4.3 0c-0.6 0-1.9 0.3-2.3 0-0.4-0.1-0.3-0.2-0.3-0.7q0-0.8 0-1.5 0-4.7 0-9.4 0-9 0-18.1 0-18.3 0-36.6 0-36.7 0-73.4c0-5.9 0-11.8 0-17.7zm9.8 147.2q35.4 0 70.9 0 35.2 0 70.4 0 20 0 40 0c-0.4-6.9-1.2-13.7-1.7-20.6-0.4-7.1-1.1-14.1-1.8-21.1-1.2-14-2.3-28-3.5-42-0.7-7.8-1.1-15.6-1.8-23.5q1.1 0 2.1-0.1c0.4 0 1.8 0.1 2-0.1 0.2-0.2 0-2.1 0-2.4q0-1.3 0-2.5 0-4.7 0-9.5c0-0.1 0.1-0.8 0-0.9-0.1-0.1-1.3 0-1.4 0q-1.2 0-2.4 0-1.2 0-2.4 0c-0.6 0-1.7-0.3-2.2 0-0.4 0.2-0.3 0.5-0.3 0.9q0 0.6 0 1.2 0 1.2 0 2.4c0 0.3 0.1 0.9 0 1.2-0.1 0.6 0.1 0.5-0.7 0.6q-1.2 0.1-2.5 0.2 0-2.1 0-4.3c0-0.5 0.2-1.6 0-2-0.2-0.4-1.6-0.2-2.2-0.2q-2.2 0-4.4 0c-0.3 0-1.9-0.2-2.1 0-0.3 0.2 0 1.9 0 2.3q0 1.1 0 2.1 0 0.5 0 1c0 0.7 0.1 0.5-0.5 0.7-0.4 0.2-1.2 0-1.7 0-0.2 0-0.8 0.1-1 0-0.4-0.2-0.3-0.7-0.3-1.2q0-2 0-4c0-0.6 0.2-0.8-0.2-1-0.2-0.1-0.7 0-1 0q-1.3 0-2.6 0-2 0-3.9 0c-0.8 0-0.5-0.1-0.7 0.5-0.1 0.2 0 0.7 0 0.9q0 1.2 0 2.4c0 0.5 0.2 1.8 0 2.2-0.2 0.4-0.4 0.2-1 0.2q-0.4 0-0.8 0-0.5 0-0.9 0c-0.6 0-0.8 0.2-1-0.2-0.2-0.5 0-1.9 0-2.4q0-1.1 0-2.1c0-0.2 0.1-0.8 0-1-0.2-0.6 0-0.4-0.7-0.4q-2.3 0-4.5 0-1 0-2 0c-0.2 0-0.9-0.2-1.2 0-0.3 0.1-0.2 0.4-0.2 0.9q0 2.2 0 4.3c0 0.5 0.1 0.8-0.2 0.9-0.3 0.2-0.9 0-1.3 0q-0.5 0-1 0c-0.4 0-0.7 0.2-0.8-0.2-0.3-0.5 0-2.1 0-2.7q0-1.2 0-2.3c0 0 0-0.9 0-1-0.1-0.1-1.3 0-1.4 0q-1.2 0-2.3 0-2.5 0-5.1 0c0.1 3.6 0 7.2 0 10.8q0 1.2 0.1 2.4c0 0.4-0.2 2.1 0.1 2.4 0.2 0.3 1.8 0 2.2 0q0.6 0.1 1.2 0c0.5 0 1-0.1 1.2 0.3 0.3 0.6 0 2.1 0 2.7q0 1.3 0 2.5 0 2.7 0 5.4 0 2.5 0 5 0 1.3 0 2.7c0 0.2 0.1 1.1 0 1.2-0.2 0.2-1.4 0-1.7 0q-1.3 0-2.6 0c-0.4 0-2.2-0.2-2.4 0-0.3 0.3-0.1 2.1-0.1 2.4q-0.1 1.4-0.2 2.8c0 0.2 0.1 1.3 0 1.4-0.1 0-0.8 0-0.9 0-0.3 0-1.5 0.2-1.7 0-0.3-0.2 0-2.4 0-2.8q0-1.6 0-3.3 0-10.8 0-21.6 0-10.9 0-21.7 0-2.5 0-5c0-0.8-0.2-1.8 0-2.5 0.1-0.8 0.1-0.5 0.9-0.5q0.7 0 1.4 0c0.4 0 1 0.1 1.4 0 0.6-0.3 0.5 0 0.5-0.8q0-1.3 0-2.7 0-2.7 0-5.4 0-2.4 0-4.8c0-0.4 0.1-1 0-1.4-0.2-0.9 0.1-0.3-0.5-0.6-0.7-0.3-1.9-0.1-2.7-0.1-1.4-0.1-2.8 0-4.2 0.3-0.3 0-0.9 0.1-1.1 0.3-0.5 0.5-0.2 1.9-0.2 2.5q0 1.2 0 2.5 0 0.2 0 0.5 0.2 0.7-0.4 0.5c-0.2 0.1-0.6 0-0.8 0-0.3 0-1.8 0.2-2.1 0-0.3-0.3 0-2.3 0-2.8q0-1.4 0-2.7c0-0.2 0.1-0.8 0-0.9-0.1-0.1-1.3 0-1.4 0q-2.7 0-5.3 0-0.6 0-1.2 0c-0.7 0-0.5-0.2-0.7 0.4-0.2 0.7 0 1.7 0 2.4q0 1.2 0 2.5c0 0.1 0.1 1 0 1.1-0.1 0.1-1.3 0-1.5 0q-0.5 0-1.1 0-0.2 0-0.4 0-0.7 0.2-0.4-0.5c-0.2-0.6 0-1.7 0-2.3q0-1.2 0-2.3c0-0.2 0.1-1.2 0-1.3-0.2-0.2-1.3 0-1.5 0q-2.3 0-4.7 0-0.7 0-1.4 0c-0.5 0-0.7-0.2-0.9 0.2-0.4 0.6 0 2.3 0 3 0 0.8 0.1 1.9 0 2.7-0.2 0.9 0.1 0.3-0.5 0.5-0.3 0.1-1 0-1.3 0q-0.6 0-1.2 0c-0.7 0-0.5 0.1-0.7-0.5-0.2-0.7 0-2 0-2.8q0-1.1 0-2.2 0-0.3 0-0.5 0.3-0.7-0.4-0.5c-0.4-0.1-0.9 0-1.3 0q-2.7 0-5.4 0c-0.3 0-0.7 0-1 0-0.7 0.2-0.4 0.2-0.4 1q0 1.1 0 2.3 0 1.1 0 2.3c0 0.7 0.2 0.7-0.5 0.9-0.3 0-0.9 0-1.2 0-0.4 0-1 0-1.3 0-0.8-0.2-0.3 0.1-0.5-0.5-0.2-0.7 0-1.8 0-2.6q0-1.2 0-2.5c0-0.1 0.1-0.8 0-0.9-0.1-0.1-1.7 0-2 0q-2.3 0-4.7 0c-0.4 0-1-0.1-1.4 0-0.6 0.2-0.3-0.3-0.5 0.5-0.2 0.9 0 2 0 2.9q0 5.4 0 10.7c0 0.2 0 0.8 0 1q0 0.3 0 0.5 0.5 0 0.9 0 1.1 0 2.2 0c0.3 0 1-0.1 1.3 0 0.6 0.2 0.3-0.4 0.5 0.5 0.2 0.9 0 2.1 0 3.1q0 10.7 0 21.5 0 10.8 0 21.7 0 2.6 0 5.2 0 1.3 0 2.5c0 0.5 0.2 2.8 0 3-0.2 0.2-1.9 0.1-2.2 0-0.7-0.1-0.5-0.2-0.5-0.9q0-0.5 0-1 0-1.2 0-2.5 0-0.6 0-1.2c0-0.9 0.2-1-0.7-1q-2.4 0-4.8 0c-0.3 0-2 0.2-2.2 0-0.3-0.2 0-2.5 0-3q0-5.4 0-10.8 0-2.4 0-4.9c0-0.5-0.2-0.8 0.2-1 0.3-0.1 0.9 0 1.2-0.1 0.7 0 2.1 0.2 2.8-0.1q0.2 0 0.4 0 0-0.5 0-1 0-0.5 0-1 0-1.3 0-2.7 0-2.7 0-5.5 0-1.2 0-2.4c0-0.6 0.2-1.8 0-2.3q0-0.3 0-0.5-0.4 0-0.9 0-0.5 0-1 0-1.4 0-2.8 0-1.1 0-2.2 0c-0.2 0-1.2-0.1-1.4 0-0.1 0.1-0.1 0.8-0.1 1-0.2 1.5 0.2 3-0.2 4.5-0.1 0.2-0.2 0.6-0.3 0.8-0.4 0.5-0.5 0.3-1.1 0.2-0.3 0-1.9-0.1-2.1-0.4-0.2-0.2 0-1.8 0-2.3q0-1.3 0-2.6c0-0.2 0.1-1.1 0-1.2-0.1-0.2-1 0-1.2 0q-1.3 0-2.6 0-1.2 0-2.3 0-0.5 0-1 0-0.4 0-0.9 0-0.7-0.3-0.5 0.4c-0.3 1.3 0 3.1 0 4.5 0 0.2 0.1 1.3 0 1.4-0.1 0-0.6 0-0.8 0.1q-1.3 0.1-2.5 0.2 0-2.2 0-4.3c0-0.6 0.1-1.3 0-1.9-0.2-0.7 0.1-0.3-0.5-0.4-0.4-0.1-1 0-1.5 0q-1.9 0-3.9 0-1 0-2 0c-0.2 0-0.9-0.1-1 0-0.1 0.1 0 1 0 1.1q0 1.9 0 3.8c0 0.2 0.1 0.7 0 1-0.2 0.6 0.1 0.4-0.6 0.4q-0.9 0-1.8 0c-0.5 0-0.7 0.2-0.9-0.2-0.1-0.3 0-0.7 0-1q0-1.1 0-2.2 0-1 0-1.9c0 0 0.1-0.9 0-1-0.1-0.1-1.2 0-1.4 0q-1.9 0-3.9 0-1 0-2.1 0c-0.3 0-0.7 0-0.9 0q-0.3 0-0.5 0 0 0.5 0 1 0 1.8 0 3.6c0 0.6 0.1 1.6-0.3 1.8-0.4 0.2-1.5 0-2 0-1 0-1 0.1-1-0.9q0-1 0-1.9 0-0.9 0-1.8 0-0.4 0-0.9c0-0.8 0.2-0.7-0.4-0.9-1.3-0.3-2.8 0-4.1 0q-1 0-2.1 0-0.4 0-0.9 0c-0.8 0-0.7-0.2-0.9 0.5-0.3 1.5 0 3.4 0 4.9q0 2.4 0 4.9 0 2.3 0 4.7c0 0.7-0.1 0.5 0.5 0.7 0.3 0.1 0.8 0 1.1 0q1.2 0 2.5 0c-0.9 14-2.4 27.9-3.4 41.8-1 14-2.4 27.9-3.5 41.9-0.7 7.7-1.3 15.5-2 23.3z"/>
	<path id="Layer" class="s12" d="m305.6 82q-14.9 0-29.8 0c5.3-12.9 5.9-26.8 6.4-40.5q0.1-0.6 0.1-1.2c0-0.8-0.2-0.8 0.5-0.9 0.7-0.2 1.7 0 2.5 0q2.7 0 5.4 0 5.5 0 10.9 0 1.3 0 2.5 0c0.2 0 1.4-0.2 1.5 0 0.1 0.1 0 1.2 0 1.5q0 2.7 0 5.5 0 5.5 0 11 0 12.3 0 24.6z"/>
	<path id="Layer" class="s13" d="m423.9 67.3q2.8-6.1 5.5-12.2 1.3-2.8 2.6-5.7 0.6-1.3 1.2-2.7c0.2-0.5 0.8-2.6 1.5-2.6 0.6 0 1.1 1.8 1.4 2.4q0.6 1.4 1.3 2.9 1.3 2.9 2.6 5.7 2.8 6.1 5.6 12.2-10.8 0-21.6 0z"/>
	<path id="Layer" class="s0" d="m355.6 39.4c6 0 12-0.4 17.9 0.1 2.5 0.2 5 0.8 6.9 2.4 0.8 0.7 2 1.7 2.5 2.6 0.6 1.1 0.8 2.9 0.8 4.2-0.2 4.6-4 7.2-8.2 8-5.9 1.2-11.9 0.9-17.8 0.9-0.7 0-1.8 0.2-2.1-0.4-0.2-0.6 0-1.8 0-2.4q0-2.6 0-5.1 0-5.2 0-10.3z"/>
	<path id="Layer" fill-rule="evenodd" class="s1" d="m345.1 197.8c0.1-0.7 0.1-1.3 0.4-1.9 0.3-0.6 0.7-1.1 1.1-1.6 0.3-0.5 0.8-1 1-1.6 0-0.2 0-0.5 0.1-0.7 0.1-0.3 0.7-0.6 0.9-0.8q3.6-3.1 7.1-6.2c0.2 0.3 1.9-0.9 2.3-1.1q1.4-0.8 2.8-1.5 2.3-1.3 4.4-3c1.4-1.1 2.7-2.3 4-3.5 1.2-1.3 2.4-1.9 4.1-2 2-0.2 4.1-0.1 6.1-0.1 0.5 0 1-0.1 1.5 0 0.6 0.1 0.6 0.2 0.9 0.7q0.7 1 1.7 1.9c2.5 2.3 5.4 4.1 7.8 6.5 1.4 1.3 2.7 2.6 3.8 4.1 1.2 1.4 2.2 2.9 3.5 4.3 2.7 2.9 5 6.2 7.5 9.4 4.9 6.5 9.7 13.1 15.1 19.1q2.3 2.6 4.6 5.3 1 1.3 2.1 2.6c0.4 0.5 0.6 0.9 1.2 1 0.6 0.2 0.7-0.1 0.9-0.7 0.7-1.9 1.4-3.8 2.2-5.6 0.3-0.7 0.8-1.4 1.4-2 0.4-0.3 0.7-0.3 0.8-0.9 0.1-0.5 0.1-1.1 0.1-1.7 2.6 0.4 4.8 2.5 6.4 4.4 1.8 2.4 3 5.3 4.4 7.9q2.1 4.4 3.8 8.9c0.6 1.4 1.1 2.8 1.8 4.1 0.8 1.3 1.4 2.7 1.9 4.1 1 3 1.3 6.3 1.9 9.4 0.2 1.6 0.7 3.2 0.9 4.8 0.3 1.6 0.4 3.4 0.5 5.1q0.1 1.2 0.2 2.3c0 0.6-0.1 2 0.2 2.4 0.1 0.2 0.6 0.3 0.7 0.4 0.4 0.4 0.3 0.2 0.4 0.8 0.2 0.7 0.1 1.7 0.1 2.5q0.1 5.3 0.2 10.6 0.1 5.7 0.2 11.5c0.1 3.9 0 7.8 0.4 11.7-8.8 0.4-17.7 0.1-26.6 0.1q-3.3 0-6.6 0.1c-2.1 0-4.4-0.1-6.5 0.3-1.9 0.4-3.8 1.2-5.7 1.4-2.2 0.3-4.4 0.5-6.6 0.6-4.1 0.1-8-0.8-12.1-1.3-4.3-0.4-8.6-0.5-13-0.5-8.9-0.1-17.7-0.3-26.6-0.1-9 0.2-17.8 0.7-26.8 0.7-8.9 0.1-17.7-0.3-26.6-0.4-8.8-0.1-17.6-0.2-26.4 0.1-2.2 0.1-4.5 0.3-6.7 0.3q-0.7 0-1.3-0.2c-0.2 0-0.5-0.1-0.6-0.1-0.5-0.3-0.3 0.2-0.3-0.6 0-0.8 0.2-1.6 0.2-2.4 0.1-4.4 0.1-8.8-0.1-13.2-0.2-8.7-1.1-17.5-0.9-26.2 0.1-4.4 0.1-8.8 0.6-13.1 0.5-3.9 2.9-7.8 4.8-11.1 1-1.7 1.9-3.2 3.1-4.7 0.4 0.6 0.2 0.4 0.8 0.4 0.3 0 0.7-0.2 1-0.3q1.2-0.3 2.4-0.7c1.6-0.4 3.2-0.9 4.8-1.4 1.3-0.4 2.7-0.9 4-1.4 1.2-0.6 2.1-1.7 3.1-2.6 2.2-2.2 4.2-4.6 6.7-6.3 2.2-1.6 4.8-2.9 7.4-3.8 1.3-0.5 2.7-0.8 4.1-1.2 1.2-0.3 2.1-0.6 2.6-1.8 0.3-0.9 0.3-2 0.5-3q0.4-1.7 1.3-3.1c2.8-4.6 8.8-6.3 13.5-8.4 3.1-1.5 6.2-3.1 9.5-3.9 1.7-0.4 3.5-0.9 5.2-1.4q1.3-0.3 2.6-0.7 0.4-0.1 0.9-0.2c0.7-0.2 0.9-0.1 0.9-0.8zm35.8-19.9c-1.5 4.1-3 8-4.3 12.1q-1.9 6.3-3.7 12.6c-2.4 8.4-4.8 16.9-6.5 25.5-0.8 4.1-1.4 8.3-1.4 12.6-0.1 4.4 0.1 8.8 0.1 13.2-0.1 4.4-0.1 8.8 0 13.2 0.1 4.2 0.1 8.2-0.9 12.3-1.1 4.7-3.4 9.1-5.1 13.5-1.8 4.6-3.6 9.3-5.4 13.9q10.3 0 20.7 0 5.2 0 10.6 0c0.8 0 1.7 0.1 2.5 0 0.8-0.2 0.3 0 0.7-0.4 0.3-0.4 0.5-1 0.7-1.4q1.2-2.2 2.3-4.4 2.5-4.6 4.9-9.2c1.4-2.8 3.3-5 5.3-7.3 4.1-4.6 8.6-8.7 13.4-12.5q1.6-1.4 3.3-2.7c0.1-0.2 0.8-0.9 1-0.9 0.1 0 0.6 0.6 0.6 0.6 0.3 0.2 0.6 0.6 0.9 0.8q0.1 0.1 0.3 0.2 0.7 0.2 0.5-0.5c0.2-0.6 0-1.7 0.1-2.4q0-1.1 0.1-2.3 0.2-2.5 0.4-5c0.7-6.3 1.9-12.6 3.7-18.8q0.6-2.1 1.3-4.2 0.4-1.1 0.8-2.3c0.2-0.3 0.5-0.9 0.5-1.3 0.1-0.5 0.2-0.5-0.3-1q-3-3.7-6-7.3c-4.4-5.2-8.7-10.4-12.9-15.7-4.6-5.8-8.9-11.8-13.6-17.5-4.3-5.1-8.9-10-14.6-13.4zm-112.4 129.5q11.9-0.2 23.7-0.4 2.9-0.1 5.9-0.1 1.2 0 2.4-0.1 0.7 0 1.4 0 0.5 0 1 0 0.1-0.5 0.1-1c0.2-3.9 0.6-7.8 0.6-11.7-0.1-7.6-1.3-15.3-0.9-22.9 0.2-4 0.8-8 0.9-12 0.1-4 0-8-0.1-12-0.1-4.2-0.5-8.6 0.3-12.7 0.6-3.8 2.8-7.3 4.5-10.7-3.1 0.4-6.1 1.6-8.6 3.5-2.7 2.1-5.1 4.5-7.6 6.7-2.6 2.3-5.1 3.9-8.3 4.9q-2.3 0.8-4.6 1.4-1.1 0.3-2.2 0.6c-0.7 0.2-2.3 0.3-2.7 0.8-0.5 0.3-0.7 1.3-1 1.9q-0.6 1.2-1.3 2.5c-0.8 1.5-1.6 3-2.2 4.6-1.2 3.2-1.5 6.5-1.5 9.9 0 7.4-0.5 14.8-0.2 22.2 0.3 8.2 0.4 16.4 0.4 24.6zm83.7-116.5c1.1 1.3 0.6 3.9 0.5 5.5-0.1 2.2-0.2 4.4-0.4 6.6-0.3 4.1-1 8.2-2.1 12.2-1.1 3.9-3.2 7.5-4 11.5-0.8 4.2-0.7 8.6-0.9 12.9-0.2 3.5-0.4 7.3-2.2 10.4-0.4 0.8-1 1.4-1.6 2.1-0.5 0.8-0.6 1.7-0.7 2.5q-0.6 3.2-1.2 6.4-0.5 3.2-1.1 6.4c-0.2 0.9-0.2 1.9-0.6 2.8-0.3 0.9-0.9 1.7-1.5 2.4-2.5 3.5-5.2 6.8-7.7 10.2-1.1 1.6-2.1 3.4-2.6 5.2-0.5 2-0.4 4-0.7 5.9-0.1 1.1-0.6 2.1-0.9 3.2-0.3 1.1-0.4 2.3-0.5 3.4-0.1 2.2 0 4.5-0.4 6.7q7.7 0 15.4 0 1.7 0 3.5 0c0.2 0 0.7 0 1 0 0.8-0.2 0.2 0.1 0.6-0.4 0.4-0.6 0.5-1.5 0.7-2.1 0.9-2.4 2-4.7 3-7.1 3.9-9.2 8.2-18.6 9.8-28.5 0.8-5 1.2-10.1 1.8-15.1q0.9-7.5 2.1-15.1c1.6-10 4.1-19.8 6.7-29.5 3-11.1 6.4-22 10.3-32.8-2.1-0.4-4.3-0.5-6.2 0.4-1 0.4-1.8 1-2.5 1.7-0.3 0.5-0.6 1-1 1.4-0.5 0.4-1.1 0.7-1.7 1.1-5 3.2-10 6.4-14.9 9.7zm66.9 80.1c-5.8 5.2-11.9 10-17 15.9-1.1 1.4-2.2 2.8-3.1 4.2-1 1.6-1.6 3.3-2.5 5-2 3.6-3.9 7.2-5.8 10.9 4.1 0.5 8.1 1.3 12.2 1.5q6.4 0.3 12.6-1.2c4.3-1 8.5-0.9 12.8-0.9q6.7 0.1 13.3 0.1 7.1 0.1 14.3 0.1-0.3-14.4-0.6-28.9c0-1 0.2-2.3-0.1-3.3 0-0.4 0.1-0.3-0.2-0.6-0.2-0.2-0.6-0.2-0.9-0.3q-0.8-0.4-1.7-0.6c-2.1-0.5-4.3-0.6-6.4-0.4-4.7 0.4-9.4 1.3-14.1 1.5-1.4 0.1-2.8 0.1-4.2 0.2-1.2 0-2.4 0.3-3.7 0.2-2.2-0.1-3.6-1.7-4.9-3.4zm-112.7 36.2q3.1 0 6.2 0 1.6 0 3.2 0 0.8 0 1.5 0c0.3 0 0.6 0 0.8 0 0.6-0.2 0.4 0 0.5-0.5 0.5-2 0.2-4.3 0.3-6.3 0.1-2.2 0.7-4.2 1.2-6.3 0.5-2 0.4-3.9 0.7-6 0.2-1.7 0.9-3.4 1.7-5 1.9-3.5 4.5-6.7 6.9-9.8 1.2-1.5 2.7-3.1 3.6-4.8 0.5-0.8 0.6-2 0.8-2.9q0.3-1.7 0.7-3.4c0.4-2.2 0.8-4.3 1.1-6.4 0.3-1.7 0.4-3.4 1-5q0.3-1.1 1-2.1c0.6-0.7 1.3-1.3 1.6-2.2 0.6-1.8 0.5-4.1 0.7-6.1 0.3-4.1 0.6-8.2 1-12.3 0.5-4 1.9-7.7 3.6-11.3 1.7-3.5 1.8-7.4 2.4-11.1 0.1-1.1 0.3-2.1 0.5-3.1q0.1-0.7 0.1-1.5c0.1-0.4 0.4-1.3 0.3-1.7-0.3-0.6-0.5-0.1-0.7 0.4q-0.3 0.8-0.6 1.6-0.5 1.5-0.9 3c-1.2 4.1-2.2 8.2-3.4 12.4-1.1 3.9-2.5 7.8-3.9 11.7-0.7 1.9-1.4 3.8-1.9 5.7-0.5 2-0.8 3.5-2.3 4.9-6 5.3-7.5 13.3-9.9 20.6-1.2 4-2.3 8.2-4.1 12-0.8 1.7-1.9 3.3-3.3 4.6-1.2 1.3-2.7 2.4-3.8 3.8-4.6 6.1-6.5 13.4-6.6 20.9 0 2.1 0 4.1 0 6.2zm37.1-105.7c-3 0.9-6.1 1.5-9.1 2.6-3.3 1.1-6.4 2.4-9.5 3.8-2.9 1.2-5.8 2.4-8.3 4.3-2.3 1.9-2.5 4.2-3.3 6.9-0.9 3-2.6 5.5-4 8.3-0.7 1.3-1.3 2.6-1.9 3.9-0.4 0.7-0.5 1.1-0.4 2q0.2 1.4 0.4 2.8c0.8 6.3 1.7 12.6 2.6 18.9 1.1 7.3 0.1 14.8 2.7 21.9 1.6-1.6 3.3-3 4.4-5 1.3-2.5 1.9-5.5 2.8-8.1 1.9-5.6 3.8-11.2 5.7-16.8 0.8-2.2 1.8-4.3 3.2-6.2q1.1-1.4 2.4-2.6c0.9-0.8 1.7-1.4 2.2-2.6 0.9-2.4 1.1-5.2 2-7.6 1-2.6 2.2-5.2 3-7.8 2.1-6.1 3.6-12.4 5.1-18.7zm110.5 69c-0.6-4.6-1.3-9.2-2-13.8-0.6-4.2-1.5-8.4-3.2-12.3-0.8-1.9-1.9-3.7-2.7-5.7q-1.3-2.8-2.5-5.7c-1.7-3.8-3.4-7.6-6.2-10.8 0 4.6 0.1 9.1 0 13.7 0 2.1-0.7 3.9-1.3 5.9-0.7 1.9-1.5 3.7-2.3 5.6-0.9 1.7-2.2 3.4-2.9 5.2-0.8 1.9-0.5 4.4-0.5 6.5-0.2 4.2-0.4 8.5-0.1 12.8 4-0.5 8.1-0.8 12.1-1.4 3.9-0.7 7.7-0.6 11.6 0zm-91.4-13.8q-0.1-0.1-0.2-0.1-1 6.8-2 13.5c-0.2 2-0.4 3.9-0.8 5.8-0.4 2.1-1.2 4.1-2 6.1-3.1 8.2-6.3 16.4-9.5 24.6q0.7 0 1.4 0c0.7 0 0.7 0.1 1.1-0.3 0.7-0.7 1.1-2 1.5-2.8 1-2.1 1.8-4.3 2.6-6.4q2.6-6.6 5.2-13.2c0.9-2.1 1.9-4.2 2.5-6.4 0.6-2 0.2-4.6 0.2-6.7q0-7.1 0-14.1zm-56.4-9.5q0 5.3 0 10.6c0 1.5 0.1 3 0 4.6-0.2 1.7-0.5 3.4-0.7 5.1-0.7 6.7-0.1 13.2 0.5 19.9q1.1-2.2 2.3-4.4c0.6-1.2 2.2-3.3 2-4.6-0.2-1.6-0.9-3.3-1.3-4.8-0.5-1.7-0.5-3.3-0.6-5-0.3-7.2-0.7-14.4-2.2-21.4zm121.8 4.1c0.6 0.1 0.4 0.1 0.8-0.3 0.3-0.3 0.5-0.9 0.7-1.3q0.7-1 1.3-2.2c0.8-1.5 1.6-3 2.3-4.6 1.2-3.2 2-6.5 1.8-10 0-0.4 0-2.3-0.5-2.5-0.4-0.1-0.4 0.8-0.6 1.2q-0.2 0.8-0.5 1.7-0.8 2.9-1.7 5.8c-1.2 4.1-2.4 8.1-3.6 12.2zm-0.2 20.2c0-1.7 0.4-17.3-0.1-17.3q-0.9 8.8-1.7 17.6 0.9-0.2 1.8-0.3z"/>
	<path id="Layer" fill-rule="evenodd" class="s14" d="m41 312.5c1.3-13.9 2.2-27.8 3.4-41.6 0.7-7.1 1.4-14.1 1.9-21.1 0.5-7 1-13.9 1.6-20.9 0.7-7.8 1.4-15.6 1.9-23.4q-1 0-2 0c-0.3 0-1.9 0.2-2 0-0.2-0.2 0-1.6 0-2q0-1.2 0-2.4 0-4.3 0-8.6c0-0.6-0.2-1.5 0-2.2 0.1-0.6-0.3-0.3 0.4-0.5 0.3 0 0.6 0 0.9 0q2.1 0 4.2 0 1.1 0 2.2 0c0.7 0 0.5-0.1 0.7 0.5 0.1 0.2 0 0.7 0 0.9q0 2 0 4.1c0 0 0 0.9 0 0.9 0.1 0.1 0.7 0 0.8 0q0.9 0 1.8 0c0.7 0 0.5 0.2 0.7-0.4 0-0.2 0-0.7 0-0.9q0-1.1 0-2.3 0-0.9 0-1.8c0 0-0.1-0.9 0-1 0 0 0.8 0 0.9 0q2.2 0 4.4 0 1.1 0 2.1 0c0.3 0 0.7 0 0.9 0 0.6 0.2 0.3-0.2 0.5 0.5 0.3 1.3 0 3 0 4.4 0 0.2-0.1 0.7 0 0.9 0.2 0.7-0.1 0.5 0.7 0.5q0.8 0 1.6 0c0.2 0 0.9 0.1 1 0 0.1 0 0-0.9 0-0.9q0-1.1 0-2.3 0-1.1 0-2.2c0-0.2-0.1-0.8 0-0.9 0.1-0.1 1.2 0 1.4 0q2.3 0 4.6 0 1 0 2.1 0c0.7 0 0.5-0.2 0.7 0.5 0.1 0.3 0 0.8 0 1.1q0 2.5 0 5 1.2-0.1 2.4-0.2c0.2 0 0.9 0 1-0.1 0.1-0.1 0-1.2 0-1.4q0-1.1 0-2.3c0-0.4-0.3-2.4 0-2.6 0.2-0.2 2 0 2.3 0q1.2 0 2.4 0 1.2 0 2.3 0c0.2 0 1.3-0.2 1.5 0 0.1 0.1 0 1.2 0 1.5q0 1.2 0 2.3c0 0.5-0.3 2.1 0 2.3 0.2 0.3 1.7 0.3 2 0.4 0.5 0.1 0.7 0.2 1 0 0.3-0.3 0.5-1 0.6-1.4 0.2-1.3-0.1-2.6 0-3.9 0-0.3 0-1.1 0.2-1.2 0.1-0.1 0.9 0 1.1 0q1.4 0 2.7 0 1.3 0 2.6 0 0.5 0 1 0c0.7 0 0.7-0.2 0.9 0.5 0.2 0.7 0 1.6 0 2.3q0 1.4 0 2.9 0 2.4 0 4.8 0 1.3 0 2.7 0 0.6 0 1.2c0 1 0.1 1-0.9 1q-1.2 0.1-2.3 0.1c-0.2 0-0.8 0-1 0.1q-0.2 0-0.5 0 0 0.5 0 1 0 2.7 0 5.4 0 5.4 0 10.8c0 0.4-0.2 2.3 0 2.5 0.4 0.3 1.9 0 2.3 0q1.1 0 2.2 0c0.9 0 2-0.2 2.8 0 0.7 0.2 0.5 0.2 0.5 1q0 0.5 0 1 0 1.2 0 2.5 0 0.6 0 1.2 0 0.2 0 0.5-0.2 0.7 0.5 0.5c0.2 0 0.7 0 0.8 0q0.5 0 0.9 0 0.7 0.2 0.5-0.5c0.1-0.8 0-1.8 0-2.5q0-1.3 0-2.5 0-2.8 0-5.5 0-5.5 0-10.9 0-10.8 0-21.5 0-5.3 0-10.6c0-0.8 0.2-2.2 0-3-0.2-0.6 0.3-0.3-0.5-0.5-0.4-0.1-0.9 0-1.3 0q-1.1 0-2.2 0c-0.5 0-0.7 0.1-0.9-0.3-0.2-0.3 0-1.3 0-1.7q0-5.2 0-10.5c0-0.7-0.2-1.9 0-2.6 0.2-0.6-0.3-0.3 0.5-0.5 0.4-0.1 1 0 1.4 0q2.6 0 5.2 0c0.2 0 1.4-0.1 1.5 0 0 0.1 0 0.9 0 0.9q0 1.1 0 2.3 0 1.2 0 2.5c0 0.7-0.2 0.5 0.4 0.7 0.5 0.2 1.1 0 1.6 0 0.3 0 0.7 0.1 1 0q0.2 0 0.4 0 0-0.4 0-0.9 0-1.1 0-2.2 0-1.2 0-2.4 0-0.2 0-0.4-0.2-0.7 0.5-0.5c0.4-0.1 1.1 0 1.5 0q2.4 0 4.9 0c0.4 0 0.9-0.1 1.2 0q0.3 0 0.5 0 0 0.5 0 0.9 0 1.4 0 2.8c0 0.7-0.1 1.6 0 2.3 0.2 0.8-0.1 0.3 0.5 0.4 0.4 0.2 1 0 1.4 0q0.5 0 1.1 0c0.7 0 0.4 0.2 0.6-0.4 0.3-0.8 0-2.1 0-3 0-0.7-0.2-1.8 0-2.5q0-0.2 0-0.5 0.5 0 1 0 0.6 0 1.2 0 2.7 0 5.4 0c0.1 0 0.9 0 1 0 0.1 0.1 0 1.2 0 1.4q0 1.1 0 2.3c0 0.7-0.2 1.6 0 2.3 0.1 0.7 0.1 0.4 0.8 0.4q0.6 0 1.3 0c0.1 0 1.2 0.1 1.3 0 0.1 0 0-0.7 0-0.8q0-1.4 0-2.8c0-0.7-0.2-1.6 0-2.3 0.2-0.8-0.1-0.3 0.5-0.5 0.5-0.1 1.3 0 1.9 0q2.3 0 4.7 0c0.2 0 1.4-0.1 1.5 0 0 0.1 0 0.9 0 0.9q0 1.4 0 2.8c0 0.6-0.3 2 0 2.5 0.2 0.4 0.4 0.3 0.9 0.3q0.6 0 1.2 0c0.2 0 0.6 0 0.7 0q0.3 0 0.5 0 0-0.5 0-1 0-1.5 0-3c0-0.5-0.2-1.6 0.1-2 0.2-0.2 0.9-0.3 1.2-0.3 1.3-0.3 2.8-0.4 4.1-0.3q1.3 0 2.5 0.1c0.7 0.1 0.5-0.1 0.7 0.6 0.1 0.3 0 1 0 1.4q0 2.7 0 5.3 0 2.5 0 4.9 0 1.3 0 2.5 0 0.2 0 0.5 0.3 0.7-0.5 0.5c-0.4 0.1-1.1 0-1.6 0q-0.6 0-1.2 0-0.2 0-0.4 0-0.7-0.3-0.5 0.5c-0.2 0.7 0 1.8 0 2.5q0 2.8 0 5.6 0 5.4 0 10.8 0 10.9 0 21.9 0 5.3 0 10.6 0 1.2 0 2.5c0 0.7-0.3 2.1 0 2.8 0.2 0.3 0.2 0.2 0.7 0.2q0.6 0 1.1 0c0.1 0 0.8 0.1 0.8 0 0.2-0.1 0.1-1.6 0.1-1.8q0.1-1.2 0.1-2.3c0-0.4-0.1-2.2 0.1-2.4 0.3-0.3 2 0 2.4 0q1.5 0 2.9 0c0.2 0 1.3 0.1 1.4 0 0.1-0.1 0-0.9 0-1q0-1.4 0-2.8 0-2.8 0-5.6 0-2.5 0-5 0-1.2 0-2.4c0-0.5 0.3-2.7 0-3-0.2-0.2-1.8 0-2.1 0-0.5 0-2.2 0.2-2.5 0-0.3-0.3-0.1-2.1-0.1-2.5q0-1.4-0.1-2.9c0-3.4 0.1-6.8 0-10.3q2.2 0 4.3 0 1 0 2 0c0.5 0 1.8-0.2 2.3 0 0.4 0.2 0.2 0.5 0.2 1q0 0.5 0 0.9 0 1.1 0 2.2c0 0.2-0.2 1.9 0 2.2 0.2 0.2 1.7 0 2.1 0 0.2 0 0.6 0 0.8 0 0.6-0.2 0.4-0.1 0.4-0.8q0-1 0-2.1 0-0.9 0-1.9c0-0.3-0.1-0.9 0-1.2 0.2-0.4 0.7-0.2 1.3-0.2q2 0 4 0 1.1 0 2.2 0c0.2 0 1.1-0.1 1.2 0 0.1 0.1 0 1.2 0 1.4q0 2 0 4c0 0.7-0.2 0.5 0.5 0.7 0.2 0.1 0.7 0 0.9 0 0.4 0 2 0.3 2.2 0 0.2-0.2 0-1.9 0-2.2q0-1 0-2.1 0-0.5 0-0.9c0-0.5-0.1-0.8 0.3-1 0.4-0.2 1.8 0 2.3 0q2.1 0 4.3 0 0.4 0 0.9 0c0.7 0 0.5-0.1 0.7 0.5 0.3 0.6 0 1.6 0 2.3q0 1 0 1.9c0 0.3-0.1 1 0 1.3 0.2 0.3 0.4 0.2 0.9 0.2q0.9 0 1.7 0c0.5 0 0.7 0.1 0.9-0.2 0.1-0.3 0-0.9 0-1.2q0-1.3 0-2.6 0-0.6 0-1.2c0-0.4-0.2-0.7 0.2-0.9 0.5-0.3 2.1 0 2.7 0q1.2 0 2.4 0 1.2 0 2.4 0c0 0 1-0.1 1 0 0.2 0.1 0 1 0 1.3q0 2.6 0 5.1 1.2-0.1 2.3-0.1c0.6-0.1 0.7 0 0.9-0.4 0.2-0.2 0-0.8 0-1.2q0-1.2 0-2.4c0-0.3-0.2-2.1 0-2.4 0.2-0.2 2.1 0 2.5 0q1.2 0 2.4 0 1.2 0 2.3 0c0.4 0 1-0.1 1.2 0 0.4 0.2 0.3 0.4 0.3 1q0 4.6 0 9.3 0 1.2 0 2.4c0 0.6 0.2 1.9 0 2.4-0.2 0.4-0.3 0.3-0.8 0.3q-0.5 0.1-1 0.1-1.2 0.1-2.3 0.1c0.6 6.9 0.9 13.9 1.5 20.8 0.6 7.1 1.3 14.1 1.9 21.2 0.7 7 1.1 14 1.7 20.9 0.6 7 1.3 14 1.8 21 0.6 7.8 1.4 15.5 1.9 23.3q-35.5 0-70.9 0-35.2 0-70.4 0c-13.3-0.1-26.7-0.1-40-0.1zm68.3-151q-1.7-0.2-3.3-0.4 0 4.2 0 8.3c0 0.5-0.2 1.5 0 1.9 0.2 0.5 0.9 0.3 1.5 0.3q2.3 0 4.5 0 8.6 0 17.2 0 8.9 0 17.7 0 4.3 0 8.6 0c0.5 0 1.2 0.1 1.7-0.2 0.5-0.3 0.2-0.1 0.3-0.6 0.1-0.3 0-0.7 0-1q0-2.3 0-4.5c0-0.8 0.4-3.7-0.2-4-0.3-0.2-1.3 0-1.7 0-0.3 0-0.8-0.1-1 0-0.6 0.2-0.5 0-0.5 0.7q0 2.1 0 4.1c0 0.3 0.1 0.7 0 1-0.1 0.6 0.3 0.3-0.5 0.5-0.7 0.1-1.6 0-2.4 0q-1.9 0-3.7 0c-0.3 0-1.8 0.1-2 0-0.2-0.3 0-2.1 0-2.5q0-0.9 0-1.9c0-0.3 0.2-1.8 0-1.9-0.2-0.2-1.6 0-1.9 0q-0.4 0-0.8 0c-0.7 0-0.6-0.1-0.7 0.5-0.3 1.2 0 2.8 0 4.1q0 0.5 0 1c0 0.4 0.1 0.5-0.2 0.7-0.5 0.2-1.9 0-2.4 0q-2.1 0-4.1 0c-0.3 0-1.7 0.2-1.9 0-0.2-0.2 0-2.2 0-2.4q0-1 0-2c0-0.2 0.2-1.7 0-1.9-0.2-0.2-1.5 0-1.8 0q-0.4 0-0.9 0c-0.7 0-0.7-0.2-0.9 0.5-0.2 1.2 0 2.7 0 3.9q0 0.4 0 0.9c0 0.5 0.2 0.7-0.2 0.9-0.4 0.2-1.7 0-2.2 0q-2.3 0-4.7 0c-0.3 0-0.7 0.1-0.9 0q-0.3 0-0.5 0 0-0.5 0-1 0-1.1 0-2.1 0-1.2 0-2.4c0-0.4 0.1-0.6-0.2-0.7-0.3-0.1-0.8 0-1.1 0-0.4 0-2-0.2-2.2 0-0.3 0.2 0 2 0 2.4q0 1.2 0 2.4c0 0.3 0 0.7 0 1-0.2 0.5 0 0.4-0.8 0.4q-2.2 0-4.5 0-1.2 0-2.4 0c0 0-0.9 0.1-1 0-0.1-0.1 0-1.2 0-1.4q0.1-2.3 0.1-4.6zm57.1 76.5q0-2.5 0-5 0-1.3 0-2.5 0-0.8 0-1.5 0-0.3 0-0.5 0.3-0.8-0.5-0.5c-0.6-0.2-1.7 0-2.4 0-0.3 0-2.2-0.2-2.4 0-0.2 0.2 0 2.1 0 2.4q0 1.4 0 2.9c0 0.1 0.1 0.9 0 0.9-0.1 0.1-1.3 0-1.4 0q-1.2 0-2.4 0-2.5 0-5 0c-0.4 0-0.9 0.1-1.3 0-0.6-0.2-0.5 0-0.5-0.7q0.1-1.1 0-2.2 0.1-1.2 0-2.4c0-0.7 0.3-0.8-0.4-0.9-0.4-0.1-1 0-1.4 0q-1.1 0-2.2 0c-0.2 0-1.2-0.2-1.3 0-0.1 0 0 1 0 0.9q0 1.3 0 2.4c0 0.4 0.2 2.7 0 2.9-0.3 0.3-2.1 0-2.4 0q-1.2 0-2.4 0-1.2 0-2.4 0c-0.9 0-2.1 0.3-2.9 0-0.6-0.2-0.3 0.4-0.5-0.5-0.1-0.3 0-0.8 0-1.2q0-1.2 0-2.4 0-0.6 0-1.2c0-0.5 0.2-0.8-0.2-0.9-0.6-0.3-1.9 0-2.5 0-0.6 0-1.6-0.2-2.2 0q-0.3 0-0.5 0 0 0.5 0 0.9 0 0.5 0 1 0 1.2 0 2.4c0 0.4 0.1 1.1 0 1.5q0 0.2 0 0.5-0.5 0-1 0-2.5 0-5 0-1.2 0-2.5 0-0.6 0-1.2 0c-0.9 0-0.8-0.1-0.8-1q0-1.2 0-2.4c0-0.7 0.2-1.8 0-2.4-0.2-0.7 0.4-0.3-0.4-0.5-0.4-0.1-1 0-1.4 0q-1.2 0-2.5 0c-0.2 0-1-0.1-1.1 0-0.1 0.1 0 1 0 1.2q0 1.1 0 2.2c0 0.7 0.2 1.7 0 2.4q0 0.2 0 0.5-0.5 0-1 0-0.8 0-1.5 0-2.5 0-5 0c-0.7 0-1.9 0.2-2.5 0-0.7-0.3-0.5 0-0.5-0.8q0-0.8 0-1.7 0-1.2 0-2.4c0-0.2 0.1-0.7 0-1q0-0.2 0-0.4-0.5 0-1 0-1.1 0-2.3 0-0.5 0-0.9 0c-0.9 0-0.9-0.2-0.9 0.7q0 2.4 0 4.8 0 1.1 0 2.3 0 0.6 0 1.2c0 0.8-0.1 0.8 0.4 1.1 0.7 0.3 1.7 0.2 2.4 0.2q1.3 0 2.6 0 2.8 0 5.6 0 5.3 0 10.6 0 11.7 0 23.4 0 5.8 0 11.6 0 3.1 0 6.1 0c2.1-0.1 4.1 0 6-0.3zm0 71.7c0.2-4.4 0-8.9 0-13.3q0-6.7 0-13.4 0-13.5 0-27c0-4.5 0.1-8.9 0-13.4 0-0.2 0.1-1.1 0-1.3-0.2-0.2-1-0.2-1.2-0.3-1.1-0.1-2.3 0-3.4 0q-3.4 0-6.8 0-13.4 0-26.8 0-15.2 0-30.4 0 0 21.3 0 42.6 0 10.6 0 21.3 0 1.3 0 2.5c0 0.4-0.3 2.3 0 2.5 0.3 0.3 2.1 0 2.5 0q1.5 0 3 0 2.4 0 4.9 0 1.3 0 2.5 0 0.5 0 1 0c0.9 0 1 0.2 1-0.8 0-6.9 0-13.8 0-20.8 0-3.5 0-7 0-10.5 0-3 1-5.5 2.7-8 1.6-2.2 3.7-4.4 6-5.8 1.2-0.8 3.2-0.7 4.6-0.9 1.7-0.3 3.4-0.5 5.2-0.6 5.3-0.2 11.3 1.2 15.3 4.9 2.2 2 3.7 4.9 4.4 7.7 0.4 1.8 0.2 3.7 0.2 5.5q0 2.8 0 5.7c-0.1 7.9 0 15.8 0 23.7q4 0 7.9 0 2 0 3.8 0c1.1 0 2.8 0.4 3.6-0.3zm-71.4 0.3q0-49.3 0-98.5 0-1.5 0-3c0-0.5 0.3-2.8 0-3.1-0.3-0.3-2.6 0-3.1 0q-1.5 0-3 0-6.3 0-12.6 0-6.1 0-12.2 0-3 0-6 0-1.3 0-2.6 0-0.7 0-1.5 0-0.5 0-1 0-0.7-0.2-0.5 0.5c-0.4 0.8-0.2 2.2-0.3 3q-0.1 1.5-0.2 3-0.3 3.3-0.6 6.6-0.5 6-1 12-1 12.3-2.1 24.6-2.2 27.5-4.5 54.9 25.6 0 51.2 0zm124.5-0.1q-2.5-29.5-4.9-59.1-1.2-14.7-2.5-29.4-0.6-7.3-1.2-14.7c0-0.3 0.1-0.8-0.1-1-0.2-0.4 0-0.2-0.5-0.3-0.5-0.1-1.2 0-1.8 0q-2 0-4 0-3.6 0-7.3 0-7.3 0-14.7 0-3.6 0-7.2 0-1.8 0-3.5 0-0.9 0-1.8 0-0.5 0-1 0c-0.6 0-0.6-0.1-0.7 0.5-0.2 1.1 0 2.4 0 3.5q0 1.8 0 3.7 0 3.5 0 7.1 0 1.7 0 3.4c0 0.5-0.1 1.2 0.2 1.6 0.2 0.3 0.4 0.2 0.6 0.6 0.1 0.3 0 1 0 1.3q0 3.6 0 7.3 0 29.7 0 59.4 0 7.4 0 14.9c0 0.2-0.1 0.5 0 0.7 0.1 0.7-0.4 0.4 0.5 0.5 0.5 0.2 1.2 0 1.7 0q1.9 0 3.8 0 3.7 0 7.3 0 14.9 0 29.8 0 3.6 0 7.3 0zm-82.3-78.2q2.3 0 4.6 0 0.2 0 0.4 0 0.7 0.2 0.4-0.5c0.1-0.2 0-0.8 0-1q0-1.4 0-2.9 0-0.6 0-1.2c0-0.8-0.1-0.5 0.5-0.8 0.7-0.2 1.9 0 2.6 0q2.7 0 5.4 0 0.5 0 1 0 0.3 0 0.5 0 0.8 0.3 0.5-0.5c0.2-0.7 0-1.8 0-2.5q0-2.7 0-5.3 0-5.2 0-10.4 0-10.6 0-21.2 0-5 0-10 0-0.3 0-0.5 0.3-0.8-0.5-0.5c-0.3-0.1-0.7 0-1 0q-1.3 0-2.6 0-2.7 0-5.5 0-10.4 0-20.9 0-5.1 0-10.2 0c-0.2 0-1.4-0.2-1.5 0-0.1 0 0 1 0 1q0 1.2 0 2.5 0 2.8 0 5.6 0 10.3 0 20.7 0 5.3 0 10.6 0 2.5 0 5 0 1.3 0 2.5c0 0.6-0.3 2.8 0 3.1 0.3 0.3 2.3 0 2.8 0q1.3 0 2.7 0 1.4 0 2.9 0c0.4 0 1.1-0.2 1.5 0q0.2 0 0.5 0 0 0.5 0 1 0 1.4 0 2.9 0 0.5 0 0.9c0 0.6-0.2 1.3 0.2 1.4 0.5 0.3 1.8 0 2.5 0 0.5 0 2.3 0.3 2.7 0 0.2-0.1 0-2.5 0-2.9 0-0.8-0.3-2.1 0-2.9 0.2-0.6-0.4-0.2 0.5-0.4 0.5-0.2 1.2 0 1.7 0q1.4 0 2.8 0 1.5 0 2.9 0 0.8 0 1.5 0 0.3 0 0.5 0 0.8-0.3 0.5 0.5c0.2 0.8 0 2 0 2.8 0.1 1 0.1 2 0.1 3zm-14.3 34.4c-2.6 2.3-5.4 4.5-6.9 7.8-0.7 1.7-0.7 3.4-0.7 5.2q0 3.2 0 6.3 0 12.2 0 24.5 10.2 0 20.4 0 4.9 0 9.8 0c0.8 0 1.7 0.2 2.5 0 0.6-0.1 0.5 0 0.5-0.7 0.1-0.3 0-0.7 0-1q0.1-2.7 0.1-5.5c0-6.6 0-13.3-0.1-20 0-3 0.4-6.5-0.7-9.4-1-2.3-2.9-4.2-4.9-5.7-2.8-1.9-6.2-2.1-9.4-2.5-3.6-0.5-7.1 0.5-10.6 1zm-74.7-63.5q17.8 0 35.7 0 4.4 0 8.8 0 2 0 4 0 1.2 0 2.3 0c0.8 0 0.5 0.2 0.8-0.5 0.1-0.3 0-0.8 0-1.2q0-2.1 0-4.1 0-1 0-2c0-0.3 0.2-2.1 0-2.4-0.2-0.1-1.4 0-1.7 0q-0.4 0-0.9 0c-0.5 0-0.6-0.1-0.8 0.3-0.2 0.4 0 1.5 0 1.9q0 1.2 0 2.4c0 0.4 0.1 0.9 0 1.2-0.2 0.6 0.4 0.3-0.5 0.5-0.6 0.1-1.3 0-1.9 0q-2.2 0-4.3 0c-0.3 0-1.7 0.2-1.9 0-0.2-0.2 0-1.9 0-2.2 0-0.8 0.3-3.8-0.2-4.1-0.5-0.2-1.5 0-2 0-0.2 0-0.6 0-0.8 0-0.8 0.2-0.4-0.1-0.5 0.5-0.3 1.3 0 3 0 4.3 0 0.2 0.1 0.8 0 1-0.2 0.6 0 0.5-0.7 0.5q-1 0-2 0-2.2 0-4.5 0c-0.3 0-0.7 0-0.9 0-0.7-0.2-0.3 0.3-0.5-0.5-0.2-0.6 0-1.4 0-2q0-1 0-2.1 0-0.5 0-1c0-0.7 0.1-0.5-0.5-0.7-0.4-0.1-1.3 0-1.9 0-0.2 0-0.6-0.1-0.8 0-0.4 0.2-0.3 0.6-0.3 1q0 2.2 0 4.4c0 0.1 0.1 0.8 0 0.9 0 0-1 0-0.9 0q-1 0-1.9 0-2.3 0-4.5 0c-0.9 0-1.2 0.2-1.2-0.8q0-1 0-2.1 0-1 0-1.9c0-0.3 0-0.7 0-1-0.2-0.6-0.2-0.4-0.9-0.4-0.7 0-1.5-0.2-2.2 0-0.6 0.1-0.3-0.3-0.5 0.4-0.1 0.5 0 1.1 0 1.5q0 1.1 0 2.2 0 0.6 0 1.2c0 0.4 0.2 0.7-0.2 0.9-0.5 0.2-1.8 0-2.4 0q-1.2 0-2.3 0-1.1 0-2.2 0c-0.3 0-0.9 0.1-1.2 0-0.3-0.2-0.2-0.5-0.2-1 0-1.5 0.3-3.3 0-4.8-0.1-0.8 0.1-0.4-0.4-0.5-0.4-0.1-0.9 0-1.3 0q-0.4 0-0.8 0c-0.8 0-0.7-0.2-0.9 0.5-0.3 1.5 0 3.3 0 4.8q0 2.5 0 4.9zm130.7-10.2q-0.9 0-1.9 0-0.5 0-0.9 0c-0.7 0-0.5-0.2-0.7 0.4-0.1 0.6 0 1.4 0 2q0 1.2 0 2.4c0 0.3 0.1 0.7 0 1-0.1 0.6 0.3 0.3-0.4 0.4-0.6 0.2-1.4 0-2 0q-2.2 0-4.5 0-0.5 0-0.9 0c-0.5 0-0.6 0.1-0.8-0.2-0.2-0.5 0-1.7 0-2.2q0-1 0-2 0-0.4 0-0.9c0-0.8 0.2-0.8-0.4-1-0.6-0.1-1.2 0-1.7 0-0.2 0-0.7 0-0.8 0-0.6 0.2-0.4 0.1-0.4 0.8q0 2.1 0 4.3 0 2.1 0 4.1c0 0-0.1 0.9 0 1 0 0 0.8 0 1 0q1.2 0 2.5 0 4.5 0 9 0 8.8 0 17.6 0 8.7 0 17.5 0 1.1 0 2.2 0 0.5 0 1 0c0.5 0 0.6 0.1 0.8-0.3 0.2-0.4 0-1.6 0-2.2q0-1.2 0-2.4 0-1.9 0-3.8c0-0.2 0-0.8 0-1-0.2-0.6 0-0.4-0.7-0.4q-1 0-1.9 0c-0.6 0-0.8-0.2-0.9 0.2-0.2 0.3 0 0.7 0 1q0 1.1 0 2.2 0 0.9 0 1.9c0 0 0 0.9 0 0.9-0.2 0.1-1.3 0-1.5 0q-2 0-4 0-0.9 0-1.8 0c-0.2 0-1.1 0.1-1.2 0-0.2-0.1 0-1 0-1.2q0-2.1 0-4.1c0 0 0-0.9 0-1-0.1 0-0.8 0-0.9 0-0.7 0-1.5-0.1-2.1 0-0.8 0.2-0.4-0.1-0.5 0.5-0.1 0.3 0 0.7 0 1q0 1.1 0 2.2c0 0.6 0.1 1.5 0 2.1-0.1 0.6 0.3 0.3-0.5 0.5-0.4 0.1-1 0-1.4 0q-2.3 0-4.6 0-0.6 0-1.2 0c-0.4 0-0.8 0.1-0.9-0.2-0.3-0.5 0-2 0-2.5q0-1.1 0-2.2c0-0.2 0.1-0.9 0-1.1-0.2-0.4-0.5-0.3-0.9-0.3-0.7 0-1.6-0.1-2.2 0-0.8 0.2-0.2-0.1-0.4 0.5-0.2 0.4 0 1 0 1.5q0 1.2 0 2.4 0 0.5 0 1c0 0.7 0.2 0.8-0.5 0.9-1.5 0.3-3.3 0-4.8 0q-1.1 0-2.3 0c-0.2 0-0.9 0.1-1 0-0.1-0.1 0-1.2 0-1.4q0-2.4 0-4.8z"/>
	<path id="Layer" class="s0" d="m380.9 177.9c10.5 6.2 17.7 17.2 25 26.8 4.1 5.4 8.5 10.7 12.9 15.9q3.2 3.9 6.5 7.8 1.3 1.7 2.7 3.4c0.6 0.7 0.3 1 0 1.8q-0.5 1.3-0.9 2.5c-2.1 6-3.6 12.3-4.5 18.6q-0.7 4.8-1 9.6-0.1 1.2-0.1 2.4c-0.1 0.7 0 1.7-0.1 2.4-0.2 0.3 0 0.6-0.5 0.5-0.3-0.1-0.7-0.6-0.9-0.8-0.1-0.1-0.4-0.5-0.6-0.6q-0.3-0.6-0.7 0-0.2 0.3-0.5 0.5c-4.7 3.9-9.5 7.6-13.8 12-2.1 2.2-4.1 4.5-6 6.9-2 2.5-3.3 5.5-4.8 8.3q-2.7 5.1-5.3 10.2c-0.4 0.6-0.3 0.5-0.9 0.7-0.4 0.1-1 0-1.5 0q-1.5 0-3 0-2.9 0-5.8 0-11.7 0-23.5 0c1.6-4.1 3.2-8.2 4.8-12.3 1.6-4 3.4-8 4.9-12 2.8-8.1 1.7-16.8 1.7-25.1 0-8.7-0.6-17.5 0.8-26 1.3-8.6 3.7-17.1 6.1-25.4q2-7.2 4.2-14.3c1.4-4.7 3.1-9.2 4.8-13.8z"/>
	<path id="Layer" class="s0" d="m352.2 190.9c4.9-3.3 9.9-6.5 15-9.7 1.1-0.7 1.7-1.3 2.5-2.3 0.7-0.8 1.5-1.4 2.4-1.9 2-0.9 4.3-0.8 6.4-0.4-3.5 9.6-6.6 19.3-9.3 29.2-2.7 9.7-5.2 19.6-7 29.5-1.8 10-2.8 20.1-4 30.1-0.7 5.1-1.7 10-3.4 14.8-1.7 4.7-3.6 9.4-5.5 14q-1.7 4-3.4 8c-0.5 1.3-1.1 2.6-1.5 3.9-0.1 0.2-0.1 0.5-0.2 0.7-0.4 0.6-0.4 0.4-1.2 0.4q-1 0-2 0-8.7 0-17.4 0c0.4-1.9 0.3-3.9 0.4-5.8 0.1-2.1 0.5-3.9 1.1-6 0.6-1.7 0.4-3.6 0.7-5.4q0.3-2.5 1.5-4.8c1.8-3.5 4.8-6.6 7.1-9.8 1.2-1.5 2.8-3.2 3.5-5 0.8-1.8 0.9-4.2 1.2-6.1q0.6-3.2 1.1-6.4c0.3-1.7 0.3-4.1 1.3-5.6 1-1.5 2.1-2.7 2.7-4.6 0.5-1.6 0.7-3.3 0.9-5 0.4-4.2 0.3-8.5 0.7-12.7 0.2-2.1 0.6-4.1 1.2-6.1 0.6-1.9 1.6-3.7 2.2-5.6 1.6-4.4 2.5-8.9 3-13.6q0.4-3.6 0.5-7.3 0.1-1.7 0.1-3.4c0-1.1 0.1-2.3-0.6-3.1z"/>
	<path id="Layer" class="s0" d="m419.1 271.1c1.1 1.4 2.3 2.8 4.2 3.3 1 0.2 1.9 0 2.9-0.1q1.9-0.1 3.7-0.2c4.8-0.1 9.5-0.7 14.3-1.4 2.1-0.3 4.3-0.4 6.4-0.1q1.6 0.2 3.1 0.7c0.3 0.1 1.3 0.3 1.5 0.6 0.3 0.3 0.1 1.5 0.1 1.9q0.1 7.2 0.2 14.3 0.2 8.2 0.4 16.5c-8.5 0-17.1-0.1-25.6-0.1-4.2 0-8.7-0.4-12.9 0.4-4.3 0.8-8.4 1.7-12.8 1.7-4.7-0.1-9.3-1-13.9-1.6 1.9-3.6 3.7-7.2 5.7-10.7 0.9-1.6 1.6-3.4 2.5-5 1-1.5 2.1-3 3.2-4.4 5.1-5.9 11.1-10.7 17-15.9z"/>
	<path id="Layer" class="s0" d="m343.6 201.5c-1.4 5.6-2.8 11.2-4.5 16.6q-1.2 4-2.8 7.9c-1.1 2.6-1.7 5.1-2.4 7.8-0.3 1.1-0.5 2.2-1.2 3.1-0.8 0.9-1.8 1.5-2.6 2.4-1.6 1.7-2.9 3.8-3.8 6-2.3 5.3-3.8 10.9-5.7 16.4-1 3.1-1.8 6.3-3.1 9.3-1 2.4-3 4.1-4.8 5.9-2.3-6.3-1.8-13-2.4-19.6-0.3-3.2-1-6.4-1.4-9.7q-0.7-4.6-1.2-9.1-0.3-2.4-0.7-4.7c-0.1-0.9-0.2-1.4 0.2-2.2q0.5-1.1 1.1-2.2c1.3-2.8 3.1-5.4 4.3-8.2 0.9-2.5 0.9-5.5 2.6-7.6 1.8-2.2 4.8-3.6 7.4-4.7 3.4-1.5 6.9-3 10.4-4.3 3.5-1.3 7-2.1 10.5-3.1z"/>
	<path id="Layer" class="s0" d="m306.4 307.2c0-4-0.2-7.9 0.3-11.8 0.5-3.7 1.7-7.3 3.4-10.6 0.8-1.6 1.8-3.2 2.9-4.7 1.1-1.4 2.6-2.5 3.8-3.8 3-2.8 4.2-6.7 5.4-10.5q2.1-6.2 4.1-12.6c1.1-3.6 2.1-7.2 4.3-10.3 1-1.4 2.2-2.7 3.4-3.8 1.6-1.4 1.8-2.9 2.4-4.9 1.1-3.9 2.7-7.6 3.9-11.5 1.4-4 2.5-8.1 3.6-12.3q0.8-3 1.7-6.1 0.4-1.4 0.8-2.7 0.3-0.8 0.6-1.6c0.2-0.5 0.5-1.4 0.8-0.6 0.1 0.4-0.2 1.1-0.2 1.5q-0.1 0.8-0.2 1.7-0.3 1.5-0.5 3.1c-0.3 1.8-0.5 3.7-0.8 5.6-0.7 4-2.7 7.3-3.9 11.1-1.2 3.8-1.4 7.7-1.8 11.7q-0.2 3.2-0.5 6.4c-0.2 1.9-0.1 4.2-0.7 6-0.3 0.9-1 1.4-1.5 2.1q-0.7 1-1.2 2.2c-0.5 1.6-0.7 3.3-0.9 5-0.3 2.2-0.8 4.4-1.2 6.6q-0.3 1.5-0.6 2.9c-0.2 1.1-0.3 2.3-0.8 3.3-0.9 1.7-2.4 3.2-3.6 4.7-1.3 1.7-2.5 3.3-3.7 4.9-2.2 3-4.4 6.2-4.9 10-0.3 2-0.2 3.9-0.7 5.9-0.5 2.1-1.1 4.2-1.2 6.3-0.1 2 0.2 4.4-0.3 6.3-0.1 0.5 0.1 0.3-0.3 0.5-0.1 0.1-0.6 0-0.7 0q-0.8 0-1.5 0-1.8 0-3.5 0-3.1 0-6.2 0z"/>
	<path id="Layer" class="s15" d="m362.6 256.7q0 6.9 0 13.9c0 2.1 0.4 4.7-0.1 6.7-0.5 2.2-1.7 4.5-2.6 6.6q-2.5 6.5-5.1 13c-0.9 2.1-1.6 4.3-2.6 6.4-0.4 0.9-1 1.8-1.5 2.7-0.4 0.7-0.5 0.6-1.2 0.6q-0.7 0-1.4 0c3.2-8.2 6.4-16.4 9.5-24.6 0.8-2 1.6-4 2-6.1 0.4-1.9 0.6-3.8 0.8-5.8q1-6.7 2-13.5 0.1 0.1 0.2 0.1z"/>
	<path id="Layer" class="s12" d="m306.2 247.2c1.5 7 1.9 14.2 2.3 21.4 0 1.6 0 3.1 0.4 4.7 0.5 1.6 1.2 3.4 1.4 5.1 0.2 1.3-1.4 3.4-2 4.6q-1.2 2.2-2.3 4.4c-0.5-6.7-1.1-13.2-0.5-19.9 0.2-1.6 0.4-3.2 0.6-4.9 0.3-1.6 0.1-3.2 0.1-4.8q0-5.3 0-10.6z"/>
	<path id="Layer" class="s16" d="m427.8 271.5q-0.9 0.1-1.8 0.3 0.8-8.8 1.7-17.7c0.5 0.1 0.1 15.7 0.1 17.4z"/>
	<path id="Layer" fill-rule="evenodd" class="s2" d="m95 310q-25.6 0-51.2 0 4.1-49 8.2-98.1 0.1-1.5 0.2-3c0.1-0.8-0.1-2.2 0.3-3q0-0.2 0-0.5 0.5 0 1 0 0.8 0 1.5 0 1.6 0 3.1 0 6.3 0 12.6 0 6.1 0 12.1 0 3.1 0 6.1 0 1.3 0 2.5 0 0.8 0 1.6 0c0.3 0 1.8-0.2 2 0 0.3 0.3 0 2.6 0 3.1q0 1.5 0 3 0 3.3 0 6.6 0 6.1 0 12.1 0 12.4 0 24.8 0 27.5 0 55zm-26.9-24.3q3.9 0 7.8 0 1 0 2 0c0.2 0 0.7 0.1 0.9 0 0.5-0.1 0.3 0.2 0.5-0.2 0.2-0.4 0-1.6 0-2q0-1.2 0-2.3 0-8 0-15.9 0-4.1 0-8.1c0-0.9-0.1-0.7-1-0.7q-1 0-2 0-1.9 0-3.9 0c-1.1 0-2.7-0.3-3.9 0-0.6 0.1-0.3-0.3-0.5 0.4 0 0.3 0 0.8 0 1q0 1 0 2 0 4 0 8 0.1 8.9 0.1 17.8zm11.3-74q-4 0-7.9 0-0.9 0-1.7 0-0.5 0-1 0c-0.5 0-0.5-0.1-0.7 0.3-0.2 0.4 0 1.3 0 1.7q0 1.2 0 2.3 0 7.9 0 15.9 0 4 0 8c0 0.2-0.1 0.9 0 1 0 0 1 0 1 0q0.8 0 1.7 0 2 0 3.9 0 1.9 0 3.7 0c0 0 1 0 1 0 0.1-0.1 0-0.9 0-1q0-1.2 0-2.3 0-3.9 0-7.8 0-9 0-18.1z"/>
	<path id="Layer" fill-rule="evenodd" class="s2" d="m219.5 309.9q-14.9 0-29.8 0.1-7.3-0.1-14.6 0-1.7-0.1-3.5 0c-0.6 0-1.4 0.1-2 0-0.5-0.2-0.3 0.1-0.5-0.3-0.2-0.2 0-1 0-1.3q0-3.6 0-7.3 0-29.7 0-59.4 0-7.4 0-14.9c0-0.2 0-0.5 0-0.7-0.2-1 0-0.2-0.4-0.8-0.2-0.3-0.3-0.1-0.4-0.5-0.1-0.2 0-0.6 0-0.9q0-1.9 0-3.7 0-3.7 0-7.4 0-1.7 0-3.4 0-0.9 0-1.7c0-0.5-0.2-1.6 0-2 0.2-0.4 0-0.2 0.5-0.3 0.3 0 0.7 0 1 0q0.9 0 1.7 0 1.9 0 3.8 0 7.3 0 14.7 0 7.4 0 14.7 0 1.8 0 3.6 0 0.8 0 1.7 0c0.1 0 0.7 0 0.8 0 0.1 0.1 0.1 1.1 0.1 1.3q0.3 3.6 0.6 7.2 1.2 14.8 2.5 29.6 2.4 29.6 4.9 59.1 0.3 3.7 0.6 7.4zm-35.6-24.4q3.9 0 7.9 0 0.9 0 1.8 0 0.5 0 1 0c0.4 0 0.5 0.1 0.7-0.3 0.2-0.3 0-1.3 0-1.7q0-1.2 0-2.3 0-7.9 0-15.8 0-4.1 0-8.1c0-0.2 0.1-0.9 0-1 0 0-1 0-1 0q-0.9 0-1.7 0-2 0-4 0-1.9 0-3.7 0c0 0-1 0-1 0-0.1 0.1 0 0.8 0 1q0 1.2 0 2.3 0 3.9 0 7.8 0 9 0 18.1zm11.4-44.7q0-7.9 0-15.9 0-3.9 0-7.9 0-1.7 0-3.5c0-0.2 0.2-1.8 0-1.9-0.2-0.2-1.9 0-2.3 0q-3.9 0-7.8 0c-0.3 0-0.8-0.1-1 0-0.4 0.2-0.2 0-0.3 0.5-0.1 0.6 0 1.4 0 2q0 2 0 4.1 0 8 0 16.1 0 2.3 0 4.5c0 0.3-0.2 1.8 0 2.1 0.3 0.2 2.1 0 2.5 0q4.4-0.1 8.9-0.1z"/>
	<path id="Layer" fill-rule="evenodd" class="s2" d="m166.3 309.7c-0.7 0.6-2.2 0.3-3.2 0.3q-2 0-4 0-4 0-8 0c0-7 0-14 0-21q0-5.2 0-10.5c0.1-3-0.7-5.8-2.3-8.4-2.7-4.4-7.9-6.7-12.9-7.4-3.3-0.5-6.6-0.1-9.9 0.3-1.4 0.2-3.4 0.2-4.6 0.9-1.2 0.8-2.3 1.9-3.3 2.9-2 1.8-3.8 4.3-4.7 6.8-1.2 3.1-0.7 6.5-0.7 9.7 0.1 7 0 14.1 0 21.1q0 2.4 0 4.7c0 0.8 0.2 0.6-0.4 0.8-0.3 0.1-0.8 0-1 0q-1.5 0-3 0-2.5 0-5 0-1.2 0-2.5 0c-0.4 0-2.7 0.3-3 0-0.2-0.2 0-2 0-2.5q0-1.2 0-2.5 0-2.7 0-5.5 0-5.3 0-10.5 0-24 0-47.9 27 0 54 0 3.3 0 6.5 0c2.3 0 4.6-0.2 6.8 0 0.2 0 1.2 0.1 1.3 0.3 0.1 0.2-0.2 1.1-0.2 1.3-0.1 1.2-0.1 2.3-0.1 3.5q0 3.4 0 6.8 0 13.4 0 26.7 0 7.6 0 15.1 0 3.8 0 7.6c0 2.5-0.1 5 0.2 7.4zm-62.5-42q3 0 6 0 1.5 0 2.9 0 0.7 0 1.4 0c0.2 0 0.5 0.1 0.7 0 0.5-0.1 0.3 0.1 0.4-0.5 0.2-0.9 0-2 0-2.9q0-1.7 0-3.3 0-3.1 0-6.1 0-3.1 0-6.1c0-0.3 0.2-0.8 0-1-0.1-0.4 0-0.2-0.5-0.3-0.4-0.1-1 0-1.5 0q-1.6 0-3.2 0-1.5 0-3 0c-0.5 0-2.9-0.3-3.2 0-0.3 0.3 0 2.5 0 3q0 1.6 0 3.2 0 7 0 14zm56.1 0.1q0-8 0-15.9 0-1 0-2c0-0.5 0.2-1.4 0-1.9q0.3-0.8-0.5-0.5-0.5 0-1 0-1 0-2 0-1.9 0-3.9 0-0.9 0-1.9 0c-0.3 0-1.8-0.2-1.9 0-0.2 0.2 0 1.7 0 2q0 1 0 2 0 2 0 3.9 0 4 0 7.9 0 1 0 2c0 0.6-0.2 1.5 0 2q-0.3 0.7 0.4 0.5 0.5 0 1 0 1 0 2 0 3.9 0 7.8 0z"/>
	<path id="Layer" fill-rule="evenodd" class="s2" d="m137.2 231.7q0-2.4 0-4.8c0-0.2 0.2-1.3 0-1.5 0 0-1 0-1 0q-1.5 0-2.9 0-2.5 0-5 0c-0.3 0-1-0.1-1.3 0-0.4 0.2-0.2 0.4-0.2 1q0 1.4 0 2.8c0 0.5 0.2 2.2 0 2.5-0.3 0.2-1.9 0-2.3 0q-1.1 0-2.2 0c-0.2 0-0.9 0-1 0-0.1-0.1 0-1.4 0-1.7q0-1.2 0-2.4c0-0.3 0.3-2 0-2.2-0.2-0.3-2 0-2.4 0q-1.5 0-3 0-1.2 0-2.4 0c-0.4 0-2.2 0.3-2.5 0-0.3-0.2 0-2.1 0-2.5q0-1.6 0-3.1 0-5.3 0-10.6 0-10.3 0-20.7 0-5.3 0-10.6 0-1.2 0-2.5c0-0.2-0.1-0.9 0-1 0.1-0.1 1.3 0 1.5 0q2.6 0 5.2 0 10.4 0 20.8 0 5.2 0 10.4 0 1.2 0 2.5 0c0.3 0 0.9-0.1 1.2 0 0.7 0.2 0.6 0 0.6 0.7q0 2.7 0 5.3 0 10.6 0 21.2 0 5.8 0 11.6 0 2.9 0 5.8 0 1.4 0 2.8c0 0.9 0.2 2.1 0 3q0 0.3 0 0.6-0.5 0-1 0-0.8 0-1.5 0-1.5 0-3 0-1.4 0-2.8 0-0.6 0-1.2 0-0.5 0-1 0 0 0.2 0 0.4c-0.3 0.8 0 2.1 0 3 0 0.3 0.2 2.7 0 2.9-0.4 0.3-2.3 0-2.7 0q-1.4 0-2.8 0zm0.5-21.9q0-7.9 0-15.9 0-4 0-8 0-1.9 0-3.8c0-0.3 0.1-0.7 0-1-0.1-0.6 0.3-0.3-0.5-0.5-0.6-0.1-1.3 0-1.9 0q-3.9 0-7.8 0c-0.2 0-0.9-0.1-1 0-0.1 0 0 1 0 1q0 0.9 0 1.8 0 2 0 4 0 8 0 15.9 0 2.3 0 4.5 0 0.5 0 1c0 0.5-0.1 0.8 0.3 1 0.4 0.3 1.7 0 2.2 0q4.3 0 8.7 0z"/>
	<path id="Layer" class="s0" d="m122.8 266.1c3.3-0.5 6.5-1.4 9.8-1.1 1.4 0.1 2.7 0.4 4.1 0.6 1.6 0.3 3 0.4 4.5 1.1 2.2 1 4.4 2.9 5.7 4.9 1.7 2.7 1.6 5.6 1.6 8.7 0.1 6.6 0.1 13.3 0.1 19.9q0 2.5-0.1 5 0.1 1.3 0 2.5 0.1 0.5 0 1 0.1 0.5 0 0.9 0.1 0.6-0.5 0.3c-0.7 0.2-1.6 0-2.3 0q-1.1 0-2.2 0-2.7 0-5.4 0-11.4 0-22.8 0 0-12.2 0-24.5 0-3 0-6c0-1.9 0-3.7 0.7-5.5 1.5-3.3 4.3-5.5 6.8-7.8z"/>
	<path id="Layer" class="s17" d="m97.7 237.9q0-3.1 0-6.1 0-1.6 0-3.1c0-0.7 0-0.8 0.7-0.8q0.8 0 1.6 0 0.8 0 1.6 0c0.5 0 1-0.1 1.2 0.3 0.2 0.3 0 1.1 0 1.4q0 1 0 2 0 0.7 0 1.4c0 0.2 0 0.5 0 0.7 0.1 0.5-0.1 0.3 0.3 0.5 0.4 0.2 1.3 0 1.7 0q0.9 0 1.8 0 1.6 0 3.2 0 0.7 0 1.5 0c0.4 0 1.4 0.2 1.8 0 0.3-0.2 0.1 0 0.2-0.4 0-0.3 0-0.6 0-0.8q0-0.8 0-1.7 0-0.7 0-1.4c0-0.4-0.2-1.4 0-1.7 0.2-0.4 0.8-0.2 1.4-0.2q0.6 0 1.3 0 0.7 0 1.4 0 0.3 0 0.7 0c0.7 0 0.5-0.1 0.7 0.4 0.2 0.9 0 2.1 0 2.9q0 0.7 0 1.5c0 0.2-0.1 0.7 0 1 0.1 0.5-0.1 0.3 0.5 0.4 0.9 0.2 2 0 3 0q1.7 0 3.4 0 0.8 0 1.5 0c0.4 0 1.4 0.2 1.7 0 0.4-0.1 0.2 0 0.3-0.4 0-0.3 0-0.5 0-0.8q0-0.8 0-1.6 0-0.9 0-1.7c0-0.4-0.2-1.2 0-1.5 0.2-0.4 0.6-0.2 1.1-0.2q0.8 0 1.6 0 0.8 0 1.6 0c0.5 0 0.9-0.2 1.1 0.2 0.2 0.3 0 1.1 0 1.4q0 1 0 1.9 0 0.8 0 1.5c0 0.5-0.1 1 0.3 1.2 0.3 0.2 1.3 0 1.7 0q0.8 0 1.6 0 3.2 0 6.3 0c0.7 0 0.7 0 0.7-0.7q0-0.8 0-1.7 0-1.5 0-3.1c0-0.8 0.1-0.7 0.9-0.7q0.6 0 1.3 0c0.5 0 2.8-0.3 3.2 0 0.1 0.1 0 1.4 0 1.6q0 0.9 0 1.7 0 1 0 1.9c0 0.9-0.2 1 0.7 1q3.5 0 6.9 0 1 0 2 0c0.8 0 0.9 0.2 0.9-0.7q0-1.8 0-3.6c0-0.4-0.2-1.3 0-1.7 0.2-0.4 0.1-0.1 0.5-0.2 0.3-0.1 0.7 0 1 0q1.9 0 3.8 0 0 5 0 10c-8.8-0.4-17.8-0.1-26.7-0.1q-13.4 0-26.8 0-7.6 0-15.2 0z"/>
	<path id="Layer" class="s18" d="m48.2 202.6q0-4.3 0-8.7c0-0.3 0-0.7 0-1 0.1-0.6-0.3-0.3 0.4-0.5 0.5-0.1 1.2 0 1.7 0 0.2 0 0.7-0.1 0.9 0 0.5 0.2 0.4 0 0.4 0.7q0 1.1 0 2.2 0 1.1 0 2.2c0 0.3-0.1 0.7 0 1 0.2 0.3 0.4 0.2 0.9 0.2q2.2 0 4.3 0 0.9 0 1.9 0c0.2 0 0.7 0.1 0.9 0 0.9-0.2 0.3 0.1 0.5-0.5 0.2-0.5 0-1.5 0-2.1q0-1.2 0-2.4c0-0.3-0.1-0.8 0-1 0.2-0.3 0.2-0.3 0.7-0.3q1 0 2 0c0.1 0 0.8 0 0.9 0 0 0.1 0 1 0 1q0 1.2 0 2.4 0 0.9 0 1.9c0 0-0.1 0.9 0 1 0 0 0.7 0 0.9 0q2.2 0 4.5 0 1.1 0 2.1 0c0.2 0 0.9 0 1 0 0-0.1 0-1 0-1q0-2.1 0-4.3c0 0-0.1-0.9 0-1 0.1 0 0.7 0 0.9 0q0.9 0 1.9 0c0.9 0 0.6 0.4 0.6 1.2q0 1.2 0 2.4c0 0.6-0.1 1.5 0 2.2 0.2 0.6-0.3 0.3 0.5 0.5 0.3 0 0.7 0 1 0q2.1 0 4.3 0 0.9 0 1.9 0c0.5 0 0.8 0.1 1-0.3 0.1-0.2 0-0.7 0-0.9q0-2.2 0-4.4c0-0.7-0.2-0.5 0.4-0.7 0.2-0.1 0.7 0 0.9 0 0.5 0 1.1-0.1 1.7 0 0.7 0.2 0.3-0.1 0.4 0.5 0.1 0.2 0 0.6 0 0.9q0 1.2 0 2.4c0 0.6-0.2 1.8 0 2.2 0.2 0.4 0.3 0.3 0.7 0.3q0.5 0 1 0 2.2 0 4.5 0c0.6 0 1.4 0.1 1.9 0 0.6-0.2 0.4 0.3 0.5-0.5 0.1-0.3 0-0.7 0-0.9q0-1.1 0-2.2c0-0.6-0.2-1.6 0-2.2 0.2-0.6-0.1-0.5 0.7-0.5q0.4 0 0.8 0c0.3 0 1.7-0.1 1.9 0 0.2 0.2 0 1.6 0 1.9q0 1.2 0 2.5 0 1.9 0 3.9 0 0.4 0 0.9c0 0.6 0.1 0.8-0.3 1-0.5 0.3-1.9 0-2.5 0q-4.4 0-8.8 0c-13.3 0-26.6 0-39.9 0z"/>
	<path id="Layer" class="s18" d="m178.9 192.4q0 2.1 0 4.3c0 0.3-0.2 1.7 0 1.9 0.2 0.3 2 0 2.4 0q1.9 0 3.8 0c0.5 0 1.7 0.2 2.1 0 0.4-0.1 0.3-0.2 0.3-0.7q0-0.7 0-1.4 0-1 0-2c0-0.3-0.2-1.9 0-2.2 0.2-0.2 1.4 0 1.7 0q0.5 0 0.9 0c0.7 0 0.7-0.2 0.9 0.5 0.2 1.2 0 2.8 0 4.1q0 0.5 0 1c0 0.7-0.2 0.5 0.5 0.7 0.5 0.2 1.5 0 2.1 0q2 0 4.1 0c0.3 0 1.7 0.2 1.9 0 0.2-0.2 0-2 0-2.4q0-1.1 0-2.1c0-0.6-0.1-1.6 0.2-1.8 0.5-0.2 1.5 0 2 0 0.2 0 0.6 0 0.8 0 0.7 0.2 0.5 0.3 0.5 1q0 1.9 0 3.9c0 0.2-0.1 0.7 0 1 0.2 0.6-0.1 0.4 0.7 0.4q1.2 0 2.4 0 1.9 0 3.9 0c0.3 0 0.7 0.1 1 0 0.6-0.1 0.3 0.3 0.5-0.4 0.1-0.7 0-1.6 0-2.4q0-1 0-1.9c0-0.2-0.1-0.8 0-1 0.2-0.7-0.1-0.5 0.6-0.5q0.9 0 1.8 0c0.2 0 1-0.1 1.1 0 0.1 0.1 0 1 0 1.2q0 2 0 4c0 1.3 0.3 3.1 0 4.4-0.2 0.8 0.1 0.3-0.5 0.5-0.4 0.1-0.9 0-1.3 0q-1 0-2 0-2.4 0-4.7 0-4.3 0-8.5 0-8.9 0-17.8 0-4.4 0-8.8 0-2.1 0-4.3 0-1.1 0-2.2 0c-0.3 0-0.8 0-1 0q-0.3 0-0.5 0 0-0.5 0-1 0-2.3 0-4.5c0-0.9-0.4-4.3 0.2-4.7 0.3-0.1 1.4 0 1.8 0 0.3 0 0.9-0.1 1.1 0 0.4 0.2 0.3 0.5 0.3 1q0 1.2 0 2.4c0 0.8-0.2 1.7 0 2.5 0.1 0.8-0.2 0.3 0.4 0.5 0.4 0 1.1 0 1.5 0q1.2 0 2.4 0 1.1 0 2.3 0 0.5 0 1 0c0.8 0 0.8 0.2 0.9-0.5 0.2-0.7 0-1.7 0-2.4q0-1.3 0-2.5c0-0.1 0-0.9 0-0.9 0.1-0.2 1 0 1.1 0q1.2 0 2.4 0z"/>
	<path id="Layer" class="s0" d="m109.3 161.5q0 2.3 0 4.6c0 0.3-0.2 1 0 1.2 0.1 0.4 0.4 0.3 0.9 0.3q1.4 0 2.7 0 1 0 2.1 0c0.7 0 1.8 0.2 2.4 0q0.3 0 0.5 0 0-0.5 0-1 0-0.5 0-0.9 0-1.5 0-2.9c0-0.3-0.1-0.7 0-1 0.2-0.7 0.1-0.5 0.9-0.5q1 0 2 0c0.6 0 0.5-0.2 0.6 0.5 0.1 0.3 0 0.7 0 1q0 1.4 0 2.8 0 0.6 0 1.2c0 0.7-0.2 0.6 0.5 0.8 0.7 0.1 1.6 0 2.3 0q2.4 0 4.8 0 0.2 0 0.4 0 0.8 0.2 0.5-0.5c0.1-0.2 0-0.7 0-0.9q0-1.2 0-2.4c0-0.4-0.2-2.3 0-2.5 0.4-0.2 2 0 2.4 0 0.2 0 1.1-0.1 1.2 0 0 0.1 0 0.8 0 1q0 1.2 0 2.4c0 0.7-0.2 1.7 0 2.4 0.1 0.7 0 0.5 0.7 0.5q0.9 0 1.7 0 2.3 0 4.5 0c0.4 0 0.9 0.1 1.2 0 0.9-0.2 0.3 0.1 0.5-0.5 0.2-0.7 0-2.1 0-2.9 0-0.7-0.2-1.7 0-2.4 0.2-0.9-0.1-0.3 0.4-0.5 0.4-0.1 1 0 1.3 0 0.6 0 1.5-0.2 1.7 0.3 0.3 0.5 0 1.9 0 2.6 0 0.8-0.2 2.1 0 2.9 0.2 0.9-0.1 0.3 0.5 0.5 0.4 0.1 1.2 0 1.7 0q2.7 0 5.5 0c-0.1 0 0.9 0 0.9 0 0.2-0.2 0-1.4 0-1.7q0-1.3 0-2.6c0-0.4-0.1-1.1 0-1.5q0-0.2 0-0.5 0.4 0 0.9 0 1.3 0 2.5 0 0 4 0 8c0 0.5 0.2 1.1 0 1.5q0.3 0.8-0.5 0.5-0.5 0-1 0-2 0-4 0-7.5 0-15.1 0-15.3 0-30.6 0 0-3.3 0-6.6c0-0.4-0.3-2.9 0-3.2 0.3-0.3 2.5 0 3 0z"/>
	<path id="Layer" class="s19" d="m97.7 237.9q26.8 0 53.6 0c5 0 10.1-0.2 15.1 0.1-2.1 0.4-4.3 0.2-6.5 0.2q-3.4 0-6.8 0-6.7 0-13.5 0-13.4 0-26.9 0-3.6 0-7.3 0c-2.6 0-5.2 0.3-7.7-0.3z"/>
	<path id="Layer" class="s20" d="m166.3 309.7c-0.6-4.2-0.2-8.7-0.2-12.9q0-6.9 0-13.7 0-13.3 0-26.7 0-3.8 0-7.5c0-2.6-0.1-5.1 0.2-7.6 0.3 4.3 0.1 8.6 0.1 12.9q0 6.8 0 13.7 0 13.3 0 26.7c0 5 0.2 10.1-0.1 15.1z"/>
	<path id="Layer" class="s21" d="m109.3 161.5c-0.4 0-2.8-0.2-3 0-0.1 0.1 0 1.3 0 1.5q0 0.8 0 1.7 0 3.3 0 6.6 25.6 0 51.2 0c-2.3 0.7-5.1 0.3-7.6 0.3q-4 0-8 0-7.9 0-15.7 0-7.8 0-15.7 0-1 0-2 0c-0.5 0-1.5 0.2-2 0-0.7-0.2-0.5-0.2-0.5-1q0-0.9 0-1.8 0-3.9 0-7.7 1.6 0.2 3.3 0.4z"/>
	<path id="Layer" fill-rule="evenodd" class="s22" d="m68.1 285.7q0-7.9 0-15.9 0-3.9 0-7.9 0-1.7 0-3.5c0-0.3-0.2-1.8 0-2 0.2-0.2 1.8 0 2.2 0q3.9 0 7.8 0c0.3 0 0.7-0.1 1 0 0.4 0.2 0.1 0.1 0.2 0.5 0.2 0.7 0 1.4 0 2.1q0 2 0 4 0 8.1 0 16.1 0 2.3 0 4.6c0 0.3 0.2 1.8 0 2-0.2 0.3-2 0-2.4 0q-4.4 0-8.8 0zm8.7-2.6q0-7.6 0-15.3 0-3.6 0-7.3 0-0.5 0-1 0.3-0.7-0.5-0.5c-0.5-0.1-1.4 0-1.9 0q-1 0-1.9 0c-0.4 0-1.3-0.1-1.7 0-0.4 0.2-0.2 1-0.2 1.6q0 1 0 2 0 2 0 4 0 3.8 0 7.5 0 3.8 0 7.5 0 0.5 0 1-0.3 0.8 0.4 0.5c0.5 0.2 1.4 0 2 0q1.9 0 3.8 0z"/>
	<path id="Layer" fill-rule="evenodd" class="s23" d="m79.4 211.7q0 8 0 15.9 0 4 0 8 0 1.9 0 3.8c0 0.3 0.1 0.7 0 1-0.1 0.6 0.3 0.3-0.5 0.5-0.6 0.1-1.4 0-2 0q-3.9 0-7.8 0c-0.2 0-1 0.1-1 0-0.1-0.1 0-1 0-1q0-0.9 0-1.8 0-2 0-4 0-7.9 0-15.8 0-2.3 0-4.5 0-0.5 0-1c0-0.5-0.2-0.9 0.2-1.1 0.4-0.2 1.7 0 2.2 0q4.4 0 8.9 0zm-2.6 26.7q0-7.6 0-15.3 0-3.7 0-7.4 0-0.5 0-1 0.2-0.7-0.5-0.5c-0.5-0.1-1.4 0-2 0q-0.9 0-1.9 0c-0.4 0-1.3-0.2-1.6 0-0.4 0.2-0.3 1-0.3 1.5q0 1.1 0 2.1 0 2 0 4 0 3.8 0 7.6 0 3.7 0 7.5 0 0.5 0 1-0.2 0.8 0.5 0.5c0.5 0.2 1.4 0 1.9 0q2 0 3.9 0z"/>
	<path id="Layer" fill-rule="evenodd" class="s24" d="m183.9 285.6q0-7.9 0-15.9 0-4 0-8 0-1.9 0-3.8c0-0.3-0.1-0.7 0-1 0.1-0.6-0.3-0.4 0.5-0.5 0.6-0.2 1.3 0 1.9 0q4 0 8 0c0.2 0 0.9-0.1 1 0 0 0 0 1 0 1q0 0.9 0 1.7 0 2.1 0 4.1 0 7.9 0 15.8 0 2.3 0 4.5 0 0.5 0 1.1c0 0.4 0.1 0.8-0.3 1-0.4 0.2-1.7 0-2.2 0q-4.5 0-8.9 0zm2.5-26.7q0 7.7 0 15.3 0 3.7 0 7.4 0 0.5 0 1-0.2 0.7 0.5 0.5c0.6 0.1 1.4 0 2 0q0.9 0 1.9 0c0.4 0 1.3 0.1 1.6 0 0.5-0.2 0.3-1 0.3-1.6q0-1 0-2 0-2 0-4 0-3.8 0-7.5 0-3.8 0-7.6 0-0.5 0-1 0.2-0.7-0.5-0.5c-0.5-0.1-1.4 0-1.9 0q-2 0-3.9 0z"/>
	<path id="Layer" fill-rule="evenodd" class="s25" d="m195.3 240.9q-4 0-7.9 0-1 0-2 0c-0.3 0-0.7 0.1-1 0-0.4-0.1-0.3 0.2-0.4-0.2-0.2-0.4 0-1.6 0-2q-0.1-1.2 0-2.3-0.1-7.9 0-15.9-0.1-4 0-8.1c0-0.9 0.1-0.7 0.9-0.7q1-0.1 2 0 2-0.1 3.9 0c1.3 0 2.8-0.3 4 0 0.6 0.1 0.3-0.3 0.5 0.4 0.1 0.3 0 0.8 0 1q0 1 0 2 0 4 0 7.9 0 9 0 17.9zm-8.9-26.8q0 7.7 0 15.4 0 3.7 0 7.4 0 0.5 0 1-0.2 0.7 0.5 0.5c0.5 0.1 1.4 0 1.9 0q1 0 1.9 0c0.4 0 1.4 0.2 1.7 0 0.4-0.2 0.3-1 0.3-1.5q0-1.1 0-2.1 0-2 0-4 0-3.8 0-7.6 0-3.7 0-7.5 0-0.5 0-1 0.2-0.8-0.5-0.5c-0.5-0.2-1.4 0-1.9 0q-1.9-0.1-3.9-0.1z"/>
	<path id="Layer" fill-rule="evenodd" class="s26" d="m103.8 267.7q0-6.1 0-12.3 0-3.1 0-6.2c0-0.3-0.1-1.1 0-1.4 0.2-0.4 0.7-0.3 1.3-0.3q1.6 0 3.2 0 3.1 0 6.2 0c0.9 0 0.8 0.2 0.8 1q0 0.7 0 1.5 0 1.6 0 3.2 0 6.1 0 12.3c0 0.5 0 1.2 0 1.7-0.1 0.5 0.1 0.3-0.3 0.5-0.2 0.1-0.7 0-0.9 0q-1.7 0-3.3 0-3.5 0-7 0zm2.6-2.5q2.6 0 5.3 0c0.8 0 0.8 0.2 1-0.5 0.1-0.4 0-0.9 0-1.3q0-1.3 0-2.7 0-2.7 0-5.4 0-1.3 0-2.6c0-0.5 0.2-2.4 0-2.7-0.2-0.2-2.1 0-2.5 0q-1.4 0-2.8 0c-0.5 0-0.8-0.1-1 0.2-0.2 0.3 0 0.9 0 1.3q0 1.4 0 2.9 0 5.4 0 10.8z"/>
	<path id="Layer" fill-rule="evenodd" class="s27" d="m159.9 267.8q-3.9 0-7.8 0-1 0-2 0-0.5 0-1 0-0.7 0.2-0.4-0.5c-0.2-0.5 0-1.4 0-2q0-1 0-2 0-3.9 0-7.9 0-2 0-3.9 0-1 0-2c0-0.3-0.2-1.8 0-2 0.1-0.2 1.6 0 1.9 0q1 0 1.9 0 2 0 3.9 0 1 0 2 0 0.5 0 1 0 0.8-0.2 0.5 0.5c0.2 0.5 0 1.4 0 1.9q0 1 0 2 0 7.9 0 15.9zm-8.7-17.9q0 5.5 0 10.9 0 1.3 0 2.7c0 0.3-0.1 0.8 0 1.2q-0.3 0.6 0.2 0.4 0.4 0 0.8 0 1.3 0 2.6 0c0.5 0 2.3 0.3 2.6 0 0.2-0.1 0-2.1 0-2.4q0-1.5 0-3 0-2.7 0-5.4 0-1.2 0-2.4c0-0.4 0.1-1.1 0-1.5-0.1-0.6 0-0.5-0.7-0.5q-2.8 0-5.5 0z"/>
	<path id="Layer" fill-rule="evenodd" class="s28" d="m137.7 209.8q-3.9 0-7.8 0-0.8 0-1.7 0-0.5 0-1 0c-0.4 0-0.5 0.1-0.7-0.2-0.2-0.4 0-1.3 0-1.8q0-1.1 0-2.2 0-8 0-15.9 0-4 0-8.1c0-0.2-0.1-0.9 0-1 0-0.1 1 0 0.9 0q0.9 0 1.7 0 2 0 3.9 0 1.8 0 3.7 0c0 0 0.9-0.1 1 0 0.1 0.1 0 0.8 0 1q0 1.1 0 2.3 0 3.9 0 7.8 0 9.1 0 18.1zm-8.8-26.6q0 7.8 0 15.6 0 3.7 0 7.5c0 1 0 1 1 1q0.8 0 1.5 0 0.9 0 1.9 0c0.3 0 1.7 0.2 1.9 0 0.2-0.2 0-1.7 0-2q0-1.1 0-2.1 0-1.7 0-3.5 0-3.8 0-7.5 0-3.8 0-7.5 0-0.5 0-1 0.2-0.8-0.5-0.5c-0.5-0.2-1.4 0-2 0q-1.9 0-3.8 0z"/>
	<path id="Layer" class="s0" d="m76.8 283.1q-1.9 0-3.8 0c-0.5 0-1.4 0.2-1.9 0q-0.8 0.3-0.5-0.5 0-0.5 0-1 0-3.7 0-7.5 0-3.7 0-7.5 0-2 0-4 0-1 0-2c0-0.6-0.2-1.3 0.2-1.5 0.4-0.2 1.3 0 1.7 0q0.9 0 1.9 0c0.6 0 1.4-0.2 1.9 0q0.8-0.3 0.5 0.5 0 0.4 0 0.9 0 3.7 0 7.4 0 7.6 0 15.2z"/>
	<path id="Layer" class="s0" d="m76.8 238.4q-2 0-3.9 0c-0.5 0-1.4 0.2-1.9 0q-0.7 0.3-0.5-0.5 0-0.5 0-1 0-3.8 0-7.5 0-3.8 0-7.6 0-2 0-4 0-1.1 0-2.1c0-0.5-0.1-1.3 0.3-1.5 0.4-0.2 1.2 0 1.6 0q1 0 1.9 0c0.6 0 1.5-0.1 2 0q0.7-0.2 0.5 0.5 0 0.5 0 1 0 3.7 0 7.4 0 7.7 0 15.3z"/>
	<path id="Layer" class="s0" d="m186.4 258.9q2 0 3.9 0c0.5 0 1.4-0.1 1.9 0q0.7-0.2 0.5 0.6 0 0.5 0 1 0 3.7 0 7.5 0 3.7 0 7.5 0 2 0 4 0 1 0 2c0 0.6 0.2 1.4-0.3 1.6-0.3 0.1-1.2 0-1.6 0q-1 0-1.9 0c-0.6 0-1.5 0.1-2 0q-0.7 0.2-0.5-0.5 0-0.5 0-1 0-3.7 0-7.4 0-7.6 0-15.3z"/>
	<path id="Layer" class="s0" d="m186.4 214.1q2 0 3.9 0c0.5 0 1.4-0.1 1.9 0q0.7-0.2 0.5 0.5 0 0.6 0 1.1 0 3.8 0 7.5 0 3.8 0 7.6 0 2 0 4 0 1 0 2c0 0.6 0.2 1.4-0.3 1.6-0.3 0.1-1.2 0-1.7 0q-0.9 0-1.9 0c-0.5 0-1.4 0.1-1.9 0q-0.7 0.2-0.4-0.5-0.1-0.5 0-1-0.1-3.7 0-7.4-0.1-7.7-0.1-15.4z"/>
	<path id="Layer" class="s29" d="m106.4 265.2q0-5.4 0-10.8 0-1.3 0-2.7c0-0.4-0.1-0.8 0-1.2q-0.3-0.6 0.2-0.5 0.4 0 0.7 0 1.4 0 2.7 0c0.5 0 2.3-0.3 2.6 0 0.3 0.2 0 2.1 0 2.4q0.1 1.5 0 3 0.1 2.6 0 5.3 0.1 1.3 0 2.5c0 0.4 0.1 1.1 0 1.5-0.1 0.6 0.1 0.5-0.7 0.5q-2.7 0-5.5 0z"/>
	<path id="Layer" class="s0" d="m151.2 249.9q2.6 0 5.2 0 0.4 0 0.8 0 0.5-0.1 0.2 0.5c0.1 0.4 0 0.9 0 1.3q0 1.3 0 2.6 0 2.7 0 5.4 0 1.4 0 2.7c0 0.5 0.3 2.4 0 2.8-0.2 0.2-2 0-2.4 0q-1.4-0.1-2.8 0c-0.5 0-0.8 0.1-1-0.3-0.2-0.3 0-0.9 0-1.2q0-1.4 0-2.9 0-5.4 0-10.9z"/>
	<path id="Layer" class="s30" d="m128.9 183.2q1.9 0 3.8 0c0.6 0 1.5-0.2 2 0q0.7-0.3 0.5 0.5 0 0.5 0 1 0 3.7 0 7.5 0 3.8 0 7.5 0 1.8 0 3.5 0 1.1 0 2.1c0 0.2 0.2 1.8 0 2-0.2 0.2-1.6 0-1.9 0q-0.9 0-1.9 0-0.7 0-1.5 0c-1 0-1 0-1-1q0-3.8 0-7.5 0-7.8 0-15.6z"/>
</svg>