<svg version="1.2" xmlns="http://www.w3.org/2000/svg" viewBox="0 0 787 1142" width="787" height="1142">
	<title>Madzharovo-pdf</title>
	<defs>
		<clipPath clipPathUnits="userSpaceOnUse" id="cp1">
			<path d="m42.61 546.33l1.9 0.57c41.49 11.22 77.33 42.3 120.64 44.37 45.34 2.16 94.11-48.96 113.31-48.96 19.21 0 24.13 7.65 49.58 23.46 25.44 15.81 53.44 31.11 74.82 29.58 41.98-3.01 82.24-43.86 113.28-43.86 9.4 0 31.79 10.71 51.13 20.91 19.35 10.2 58.54 26.01 82.97 23.97 24.09-2.01 59.54-19.88 94.19-39.43v191.03h0.02c-0.01 96.48-39.5 184.21-103.11 247.82-63.61 63.61-151.32 103.09-247.8 103.09h-0.03c-96.49 0-184.21-39.48-247.82-103.09-63.61-63.61-103.09-151.33-103.1-247.81h0.02z"/>
		</clipPath>
		<clipPath clipPathUnits="userSpaceOnUse" id="cp2">
			<path d="m407.73 1098.59v-492.54h336.7v141.92h0.02c-0.01 96.48-39.5 184.21-103.11 247.82-60.47 60.48-142.75 99.14-233.61 102.8z"/>
		</clipPath>
	</defs>
	<style>
		.s0 { fill: #231f20 } 
		.s1 { fill: #ffffff } 
		.s2 { fill: #0b904b } 
		.s3 { fill: #fab20b } 
		.s4 { fill: #00adef } 
		.s5 { fill: #231f1f } 
	</style>
	<path id="Path 1" class="s0" d="m786.7 0.5v747.5c0 216.3-176.8 393.2-393.2 393.2-216.3 0-393.2-176.9-393.2-393.2v-747.5z"/>
	<path id="Path 2" class="s1" d="m767.9 19.3v728.7c0 205.9-168.4 374.4-374.4 374.4-205.9 0-374.4-168.5-374.4-374.4v-728.7z"/>
	<path id="Path 3" class="s2" d="m42.6 546.3l1.9 0.6c41.5 11.2 77.3 42.3 120.6 44.4 45.4 2.1 94.2-49 113.4-49 19.2 0 24.1 7.7 49.5 23.5 25.5 15.8 53.5 31.1 74.9 29.6 41.9-3.1 82.2-43.9 113.2-43.9 9.4 0 31.8 10.7 51.2 20.9 19.3 10.2 58.5 26 82.9 24 24.1-2 59.6-19.9 94.2-39.5v191.1c0 96.5-39.4 184.2-103.1 247.8-63.6 63.6-151.3 103.1-247.8 103.1-96.5 0-184.2-39.5-247.8-103.1-63.6-63.6-103.1-151.3-103.1-247.8z"/>
	<g id="Mask" clip-path="url(#cp1)">
		<path id="Path 5" class="s1" d="m326.3 723.1c7.2 6.5 9.5 8.2 12.3 12.4-14.1 0.4-29.1-0.8-45.9-1.5-9.5-0.4-12-10.8-12-10.8l-16.1 4.2 6.6 6.6c0 0-3.3 6.2-16.5 16.6-13.3 10.3-19.9 21.1-20.3 32.7-0.4 11.6 8.8 25.1 18.1 35 9.3 9.9 20.2 16.6 26.5 16.6 6.2 0 16.8-5 26.1-9.9 9.3-4.9 30.3-4 52.7 15.4 22.5 19.3 40.2 49.5 40.2 84.3 0 34.8-10.8 61.1-17.7 76.6-7 15.4-21.7 28.6-30.2 30.9-8.5 2.3-25.5 8.5-43.3 19.3-17.8 10.9-36.4 30.2-36.4 30.2 0 0-67.3-15.5-76.6-17.8-9.2-2.3-54.4-17.9-66.8-27-12.4-9.1-67.8-66.2-83.6-86-15.7-19.9 11.3-84.4 18-96.5 6.7-12.1 9.6-10 14.6-10 5 0 10.5 2 17.1-4.2 6.7-6.3 7.6-6.7 15.1 0.8 7.5 7.5 14.6 10.9 22.5 6.7 8-4.2 10.1-12.1 5.9-22.1-4.2-10.1-24.2-18.4-35.9-53.1-11.7-34.6-14.2-68 11.2-93.5 25.5-25.5 70.6-37.6 91.5-37.6 20.9 0 49 14.6 64.7 25 43.6 28.8 95.5 4.7 96.1 86.6-7.2-24.7-26.6-29.2-37.9-29.9z"/>
		<path id="Path 6" fill-rule="evenodd" class="s0" d="m279.1 871.4c1.5 0 14.2 5.9 16 6.8v5.7l-4.5 2.3-5.8-2.3c-1.2 1.1-9.8 5.7-11.4 5.7h-1.1c-2.7 0-4.6-1.9-4.6-4.6 0-6.6 5.7-13.6 11.4-13.6zm-2.2-35.1c16 0.2 29.7 9.4 36.4 19.2 4.3 6.2 7 10.5 10.7 17.8 4.4 8.9 4.7 9.8 9.8 17.4-1.1 14.3 2.3 19.6 2.3 34.1v2.2c0 4 2.3 1.8 2.3 5.7v2.3c0 3-1.6 3.4-3.4 4.5v2.3c0 5.9-4.8 20.6-6.8 25-4.3 9.3-8.8 12.2-12.6 19.3 2.7 3.1 5.7 6.8 5.7 12.5 0 3.7-6.9 7.9-11.4 7.9-1.4 0-3.4-2.3-3.4-4.5 0-3.4 2-3.9 4.5-4.5l-3.9-7.3c-4.3 2.2-10 3.9-15.4 3.9h-3.4c-6.8 0-8.6-2.2-14.9-2.3-1.3-2.1-2.2-2-2.2-4.6v-3.4l3.4-1 2.3-0.1 10.2 1.4c3.6 0.2 1.8-0.5 4.6 0.9 1.8-0.9 1.6-1.2 4.5-1.2h4.6v-5.6c2.1-1.4 2-2.3 4.6-2.3 4.2 0 2.1 0.7 6.8 1.1 0.9-3.5 4.3-7.5 6.5-12.8 1.9-4.8 3.7-8.3 4.9-13.3h-14.8l-17.1 1.1c-4.4 0.4-3.3 0.3-6.9 1.2l-4.5-2.4v-2.2-3.4c2.2-1.2 3.3-2.3 6.8-2.3h1.2l19.3-0.8 17.1-1.6c1-4.1 2.3-6.9 2.3-12.3v-9.1l-1.3-10.2-6.7 1.1c-7.2-1.7-16.6-6.8-22.8-6.8-4.5 0-9.1 5.2-9.1 10.2v1.2c0 2.6-0.8 3.4-3.4 3.4h-3.4c-1.2-2.3-2.3-3.4-2.3-6.9 0-12.7 11.3-15.7 21.6-18.1 3.2 1.5 15.6 6.8 19.4 6.8h1.2c10.6 0-9.7-32.3-11.7-34.9-8.6-10.8-15.3-19.2-33.9-19.6l-2.4-4.5 1.3-3.3zm-135.9 3.4c6 5.7 15.9 12.1 19.6 14.7 8.9 6.3 16.7 13 26.2 19.4 8.9 5.8 17.9 12.5 23.6 21.9 3.6 6.1 8.4 27.3 8.4 37.1v15.9l-3.6 36.3 9.2-2.3 4.5 4.7-6.9 13.4c3.2-1.3-0.8-1 3.6-1h2.3c3.7 0 4.4 3.2 5.7 5.7 4-0.9 3.8-2.3 8-2.3h1.1c4.7 0 7 8.4 8 12.5l4.8-1.8 3.1 0.9c1.7-2.5 2.7-3.6 6.9-3.6h1.1c3.6 0 9.1 6.7 9.1 11.3 0 5.6-10 6.8-15.9 6.8-7.8 0-16.6-6.4-18.2-12.5h-2.3c-1.3 5.4-3.7 10.3-10.3 10.3-2.1 0-3.4-4.2-3.4-6.8v-5.7c-6.8 0.5-7 6.8-14.8 6.8h-2.3c-1.2-2.2-2.3-3.4-2.3-6.8v-1.2c0-8 4.2-10.6 5.7-17-6.8-3.6-3.7-1.5-6.8-7.9l2.7-13.6 1-42.1-1.3-11.4c-3.2-25.8-13.8-32.2-31.4-43.8-15.3-10.2-27.9-22.3-42.8-32.2-5.8-1.8-1.4-14.3 7.7-5.7zm81.1-131c-13.5 3.7-20.2 1.4-30.3-2.3-10-3.7-13.2-9-3.5-14.5 9.7-5.5 22-5.5 22-5.5 24.1 0.7 43.6 13.6 11.8 22.3zm-139.3 135.1c0.8-2.4 3.4-3.8 5.8-3.1l13.2 4.2h0.3c3.1 1.1 5.2 2.1 6.9 3.3 2 1.6 3.2 3.3 4 5.3 0.9 2.1 1.8 4 3.1 5.3 1.3 1.3 3.1 2.3 5.9 3 2.5 0.7 4 3.2 3.3 5.8-0.6 2.5-3.2 4-5.7 3.3-4.5-1.2-7.7-3.1-10.1-5.5-2.4-2.4-3.9-5.2-5.2-8.4-0.2-0.5-0.4-0.8-0.9-1.2-0.9-0.6-2.2-1.3-4.3-2l-0.2-0.1c-5.3-1.7-9.5-3.1-12.9-4.2-2.9-1.3-3.8-3.7-3.2-5.7zm-25.6 13.1c0.8-2.5 3.4-4.1 5.9-3.5l13.1 3.1h0.3c3.1 0.9 5.2 1.7 6.9 2.8 2 1.4 3.2 3 4 4.9 0.9 2.1 1.8 3.9 3.1 5.1 1.3 1.2 3.1 2.1 5.9 2.6 2.5 0.4 4 2.9 3.3 5.5-0.6 2.5-3.2 4.2-5.7 3.7-4.5-0.8-7.7-2.4-10.1-4.7-2.4-2.2-3.9-4.9-5.2-8-0.1-0.4-0.4-0.8-0.9-1.1-0.9-0.6-2.2-1.1-4.3-1.7h-0.2c-5.3-1.4-9.5-2.4-12.9-3.3-2.9-1-3.8-3.4-3.2-5.4zm82.1-91.6c-0.8-2.8 0.9-5.8 3.8-6.5 2.8-0.8 5.8 0.9 6.5 3.8 0 0 4.8 18.3 24.5 16.8 11.3-0.9 19.5-3.1 26.1-6.2 6.7-3.1 12-7.1 17.5-11.4 11.2-8.9 21-19.1 21.1-19.1 2-2.1 5.4-2.2 7.5-0.2 2.2 2.1 2.2 5.4 0.2 7.6 0 0-10.6 11-22.2 20.1-5.9 4.7-11.8 9.1-19.6 12.7-7.7 3.6-17.1 6.2-29.8 7.2-28.6 2.2-35.6-24.7-35.6-24.8zm137.4-83.7c0-2.6 2.1-4.7 4.7-4.7 2.6 0 4.7 2.1 4.7 4.7 0 0 0 7.1-3.4 10.4q-0.1 0.1-0.3 0.2-0.1 0.2-0.3 0.4-0.3 0.3-0.6 0.8c-1.1 1.5-2.2 3.6-3.1 5.6q1.1 0.2 2.3 0.4c6.5 1.2 11.9 2.5 14.7 3.2l6.1-4.1c2.2-1.4 5.1-0.9 6.5 1.3 1.5 2.1 0.9 5-1.2 6.5l-7.9 5.3c-1.1 0.7-2.4 1-3.8 0.7 0-0.1-7-2-16.2-3.7-1.6-0.3-3.2-0.4-4.8-0.3-2.2 4-5.2 8.1-9.1 9.7-2.8 1.1-5.7 1.6-7.7 1.4-1.5-0.2-2.8-0.7-3.8-1.6-1.4-1.3-2.1-3-1.8-5.2 0.2-1.4 1-3 2.6-4.8l0.1-0.1q1-1.2 2.4-2.3 1.3-1.1 2.9-2.1c2.3-1.4 5.1-2.6 8.1-3.4 0.4-1 0.8-1.9 1.1-2.6l0.2-0.4 0.1-0.2c1.2-3 2.9-6.3 4.6-8.7q0.6-0.8 1.2-1.5 0.5-0.6 1-1.1l0.1-0.1 0.1-0.1h0.1c0.4-0.4 0.4-3.6 0.4-3.6z"/>
		<path id="Path 7" class="s1" d="m747.8 606.1v141.9c0 190-151.7 346.4-340.1 353.9v-495.8z"/>
	</g>
	<g id="Mask" clip-path="url(#cp2)">
		<path id="Path 10" class="s0" d="m456.2 764.3h37.4v182.1h-37.4zm193.9 0h37.5v182.2h-37.5zm-164.6-24h172.8v24h-172.8z"/>
		<path id="Path 11" fill-rule="evenodd" class="s0" d="m528.8 810.4h86.2v136h37.3v42.4h-232.7v-42.4h38.5v31.7h31.5v-31.7h39.2zm79.6 136.1h-76.4v31.6h76.4zm-128.6 61.3h180.3v24.6h-180.3zm61.6-358.4v-11.7h24.6v-25.9h11.8v25.9h24.6v11.7h-24.6v12.7c19.3 0.6 73 5.8 114.3 69.8v9.3h-240.4v-9.4c41.3-64 95-69.1 114.3-69.7v-12.7zm30.5 20.6c-0.5 0-1.2 0-2 0-14 0.2-67.6 1.1-109.4 63.1h222.8c-41.8-62-95.4-62.9-109.3-63.1-0.8 0-1.6 0-2.1 0z"/>
	</g>
	<path id="Path 13" fill-rule="evenodd" class="s3" d="m751.1 748c0 98.3-40.2 187.7-105 252.5-64.8 64.8-154.2 105.1-252.6 105.1-98.3 0-187.8-40.3-252.6-105.1-64.8-64.8-105-154.2-105-252.5v-711.9h715.2zm-708.5-574.7h701.8v-22.5h-701.8zm701.8 97.7h-70.3v61.8c4.4 0.8 20.4 2.4 32.2-10.8v147.3l-32.2 16.8v3.7h-60.9v-3.7l-32.2-10.9v-153.2c11.8 13.2 27.8 11.6 32.2 10.8v-61.8h-184.2v61.8c4.4 0.8 20.4 2.4 32.2-10.8v147.3l-32.2 16.8v3.7h-60.9v-3.7l-32.2-16.8v-147.3c11.8 13.2 27.8 11.6 32.2 10.8v-61.8h-174.3v61.8c4.4 0.8 20.4 2.4 32.2-10.8v147.3l-32.2 16.8v3.7h-60.9v-3.7l-32.2-16.8v-147.3c11.8 13.2 27.8 11.6 32.2 10.8v-61.8h-90.3v477c0 96.5 39.5 184.2 103.1 247.8 63.6 63.6 151.3 103.1 247.8 103.1 96.5 0 184.2-39.5 247.8-103.1 63.7-63.6 103.1-151.3 103.1-247.8zm-701.8-126.8h701.8v-101.3h-701.8z"/>
	<path id="Path 14" class="s4" d="m163.3 555.2c45.4 2.2 94.2-48.9 113.4-48.9 19.2 0 24.1 7.6 49.6 23.4 25.5 15.8 53.5 31.1 74.9 29.6 42-3 82.2-43.8 113.3-43.8 9.4 0 31.8 10.7 51.2 20.9 19.3 10.2 58.5 26 83 23.9 24.4-2 60.6-20.4 95.7-40.3v14.9c-35.1 19.9-71.3 38.3-95.7 40.3-24.5 2.1-63.7-13.8-83-24-19.4-10.2-41.8-20.9-51.2-20.9-31.1 0-71.3 40.9-113.3 43.9-21.4 1.5-49.4-13.8-74.9-29.6-25.5-15.8-30.4-23.4-49.6-23.4-19.2 0-68 51.1-113.4 48.9-43.3-2-79.2-33.1-120.7-44.4v-14.8c41.5 11.2 77.4 42.3 120.7 44.3zm0-36c45.4 2.2 94.2-49 113.4-49 19.2 0 24.1 7.7 49.6 23.5 25.5 15.8 53.5 31.1 74.9 29.6 42-3 82.2-43.9 113.3-43.9 9.4 0 31.8 10.7 51.2 20.9 19.3 10.2 58.5 26 83 24 24.4-2.1 60.6-20.4 95.7-40.3v14.9c-35.1 19.9-71.3 38.2-95.7 40.3-24.5 2-63.7-13.8-83-24-19.4-10.2-41.8-20.9-51.2-20.9-31.1 0-71.3 40.8-113.3 43.9-21.4 1.5-49.4-13.8-74.9-29.6-25.5-15.8-30.4-23.5-49.6-23.5-19.2 0-68 51.1-113.4 49-43.3-2.1-79.2-33.2-120.7-44.4v-14.9c41.5 11.2 77.4 42.3 120.7 44.4zm0-36.1c45.4 2.2 94.2-48.9 113.4-48.9 19.2 0 24.1 7.6 49.6 23.5 25.5 15.8 53.5 31.1 74.9 29.5 42-3 82.2-43.8 113.3-43.8 9.4 0 31.8 10.7 51.2 20.9 19.3 10.2 58.5 26 83 23.9 24.4-2 60.6-20.3 95.7-40.2v14.9c-35.1 19.8-71.3 38.2-95.7 40.2-24.5 2.1-63.7-13.7-83-23.9-19.4-10.2-41.8-20.9-51.2-20.9-31.1 0-71.3 40.8-113.3 43.8-21.4 1.5-49.4-13.7-74.9-29.6-25.5-15.8-30.4-23.4-49.6-23.4-19.2 0-68 51.1-113.4 48.9-43.3-2-79.2-33.1-120.7-44.3v-14.9c41.5 11.2 77.4 42.3 120.7 44.3z"/>
	<path id="Path 15" fill-rule="evenodd" class="s5" d="m116.7 64.9l2.6 37.5 18.6-37.5h23.9l-12.9 60.2h-17.7l3.9-18.4c1.4-6.8 3.3-13.3 5.6-20.3h-0.2l-19.2 38.7h-13.7l-2.7-38.7h-0.2c-0.6 5.3-1.6 13.4-2.6 18.3l-4.4 20.4h-17.7l12.9-60.2zm93.5 0l8.7 60.2h-19.7l-0.6-8h-19.6l-4.1 8h-19.3l34.5-60.2zm-12.3 39.7l-1.9-21.6-10.6 21.6zm98.1-39.7l-9.8 46.1h5.2l-5.9 28h-18.9l2.9-13.9h-28.1l-2.9 13.9h-18.9l5.9-28h4.8c5.9-8.1 9.1-17.2 12-30.7l3.2-15.4zm-34.5 14l-1.4 6.5c-2.1 10-5.1 19.4-10.3 25.6h16.7l6.8-32.1zm100.4-14l-4.4 20.6 20.7-20.6h22.1l-26.4 24 15.6 36.2h-23.4l-8.6-22.5-4.5 4.3-3.9 18.2h-17.8l4-18.2-2.7-4.3-18.3 22.5h-23.5l31.2-36.2-16.2-24h22.2l11.8 20.6 4.4-20.6zm83.2 0l8.7 60.2h-19.6l-0.6-8h-19.7l-4 8h-19.3l34.4-60.2zm-12.2 39.7l-1.9-21.6-10.6 21.6zm47.5 20.5h-19.7l12.8-60.2h29.1c14.9 0 21.9 5.8 21.9 15.4 0 15.6-11.5 26.1-30.1 26.1h-10zm7-32.8h8.2c4.6 0 9.7-2.8 9.7-8.1 0-4.7-5.2-5.3-9.4-5.3h-5.6zm105-5.2c0 24.7-20.2 39.6-39.4 39.6-15.9 0-25.6-8.4-25.6-23.4 0-22.9 17.2-40 39.2-40 18.1 0 25.8 10.8 25.8 23.8zm-45 14.1c0 5.7 2 10.7 8.8 10.7 9.6 0 16.2-11.1 16.2-23 0-6-2.5-10.9-9.2-10.9-11.2 0-15.8 14-15.8 23.2zm59.6-36.4h28.8c12.1 0 21.5 2.6 21.5 11.8 0 7.5-5.8 13.8-11.1 16.5 5 1.4 7.5 5.4 7.5 10.4 0 16-14.3 21.6-30.2 21.6h-29.4zm14.6 24.1h8.2c3.9 0 8.1-2 8.1-6.7 0-3-3-3.4-7.2-3.4h-7zm-4.6 22.1h8.6c4.8 0 9.8-1.2 9.8-7.1 0-3.5-3.6-4-9.8-4h-6.3zm110.1-23.9c0 24.6-20.2 39.5-39.3 39.5-16 0-25.7-8.3-25.7-23.3 0-22.9 17.2-40.1 39.2-40.1 18.1 0 25.8 10.9 25.8 23.9zm-45 14.1c0 5.7 2.1 10.7 8.8 10.7 9.7 0 16.3-11.1 16.3-23 0-6-2.5-11-9.2-11-11.2 0-15.9 14.1-15.9 23.3zm1006-100.8v747.5c0 216.3-176.9 393.2-393.2 393.2-216.3 0-393.2-176.9-393.2-393.2v-747.5z"/>
</svg>