<svg version="1.2" xmlns="http://www.w3.org/2000/svg" viewBox="0 0 476 725" width="476" height="725">
	<title>Karnobat-ai</title>
	<style>
		.s0 { fill: #2c2e35 } 
	</style>
	<path id="&lt;Compound Path&gt;" fill-rule="evenodd" class="s0" d="m167 141.7h-12.1v-39.1h20.1q6.6 0 9.9 3.1 3.2 3.2 3.2 8.9 0 6-3.5 9.3-3.6 3.3-10.9 3.3h-6.7zm0-22.4h3q3.5 0 5-1.2 1.4-1.2 1.4-3.1 0-1.8-1.2-3.1-1.3-1.3-4.7-1.3h-3.5z"/>
	<path id="&lt;Compound Path&gt;" fill-rule="evenodd" class="s0" d="m120.9 141.7h-12.3l14.7-39.1h13.2l14.7 39.1h-12.7l-2-6.4h-13.7zm4.6-14.9h8.5l-4.2-14.1z"/>
	<path id="&lt;Compound Path&gt;" fill-rule="evenodd" class="s0" d="m306.2 141.7h-20.7v-39.1h32.9v7.9h-20.9v7.2h6.5q8.9 0 13.2 3.1 4.3 3.2 4.3 9.8 0 5.4-4 8.3-3.9 2.8-11.3 2.8zm-2.5-8.4q5.7 0 5.7-4.1 0-3.6-5.7-3.6h-6.2v7.7z"/>
	<path id="&lt;Path&gt;" class="s0" d="m206.5 141.7h-12v-39.1h12v13.7h13.3v-13.7h12.1v39.1h-12.1v-15.8h-13.3z"/>
	<path id="&lt;Compound Path&gt;" fill-rule="evenodd" class="s0" d="m241.1 133.6q-2.7-4.5-2.7-11.4 0-9.6 5.3-14.9c3.6-3.6 8.5-5.3 14.9-5.3q9.7 0 15 5.2 5.3 5.2 5.3 14.7 0 6.8-2.3 11.2-2.3 4.4-6.7 6.8-4.3 2.5-10.8 2.5-6.7 0-11-2.1-4.3-2.1-7-6.7zm9.4-11.4q0 5.9 2.2 8.5 2.2 2.6 6 2.6 3.9 0 6-2.5 2.1-2.6 2.1-9.1 0-5.5-2.2-8.1-2.2-2.5-6-2.5-3.7 0-5.9 2.6-2.3 2.5-2.2 8.5z"/>
	<path id="&lt;Path&gt;" class="s0" d="m380 112.3h-12.3v-9.7h36.7v9.7h-12.3v29.4h-12.1z"/>
	<path id="&lt;Path&gt;" class="s0" d="m84.7 141.7h-12.1v-39.1h12.1v15c1 0 1.9-0.4 2.4-1.1q0.9-1 2.8-6 1.3-3.6 2.7-5.2 1.4-1.6 4.5-2.3 3.2-0.7 9.8-0.7v8.3h-0.6q-3.1 0-4.6 1.2-1.5 1.1-2.4 3.8-1 2.6-2.1 3.9-1.1 1.3-3 2.1 2.6 0.8 4.5 2.9 2 2.1 4.2 6.5l5.3 10.7h-13.6l-4.8-10.1q-1.7-3.5-2.6-4.4-0.9-0.9-2.5-0.9z"/>
	<path id="&lt;Compound Path&gt;" fill-rule="evenodd" class="s0" d="m336.3 141.7h-12.3l14.7-39.1h13.2l14.7 39.1h-12.7l-1.9-6.4h-13.7zm4.5-14.9h8.6l-4.3-14.1z"/>
	<path id="&lt;Compound Path&gt;" fill-rule="evenodd" class="s0" d="m288.5 495.8l-30.8-46.1 26.1 8.2 5-8.3 5.1 8.1 26-8-31.1 46.6zm9.4-22.9c0-2.6-1.1-4.9-2.7-6.6-1.6-1.7-3.9-2.7-6.4-2.7-2.5 0-4.7 1-6.4 2.7-1.6 1.7-2.6 4-2.6 6.6 0 2.6 1 5 2.6 6.6 1.7 1.7 3.9 2.8 6.4 2.8 2.5 0 4.8-1.1 6.4-2.8 1.6-1.6 2.7-4 2.7-6.6z"/>
	<path id="&lt;Compound Path&gt;" fill-rule="evenodd" class="s0" d="m310 481.3l26.1 8.2 4.9-8.3 5.2 8.1 25.9-8-31.1 46.6-0.3-0.5zm40.1 23.3c0-2.6-1-4.9-2.6-6.6-1.7-1.7-3.9-2.7-6.4-2.7-2.5 0-4.8 1-6.4 2.7-1.6 1.7-2.6 4-2.6 6.6 0 2.6 1 4.9 2.6 6.6 1.6 1.7 3.9 2.7 6.4 2.7 2.5 0 4.7-1 6.4-2.7 1.6-1.7 2.6-4 2.6-6.6z"/>
	<path id="&lt;Compound Path&gt;" fill-rule="evenodd" class="s0" d="m394.8 495.2l-30.8-46.2 26.1 8.3 5-8.3 5.1 8.1 26-8c-10.4 15.5-20.8 31-31.1 46.5zm9.3-22.8c0-2.6-1-4.9-2.6-6.6-1.6-1.7-3.9-2.7-6.4-2.7-2.5 0-4.7 1-6.4 2.7-1.6 1.7-2.6 4-2.6 6.6 0 2.6 1 4.9 2.6 6.6 1.7 1.7 3.9 2.8 6.4 2.8 2.5 0 4.8-1.1 6.4-2.8 1.6-1.7 2.6-4 2.6-6.6z"/>
	<path id="&lt;Compound Path&gt;" fill-rule="evenodd" class="s0" d="m295.1 535.5l25.9-8-31 46.6-0.3-0.5-30.8-46.1 26.1 8.2 5-8.3zm3.9 15.3c0-2.6-1-4.9-2.7-6.6-1.6-1.7-3.9-2.8-6.4-2.8-2.5 0-4.7 1.1-6.3 2.8-1.7 1.7-2.7 4-2.7 6.6 0 2.6 1 4.9 2.7 6.6 1.6 1.7 3.8 2.7 6.3 2.7 2.5 0 4.8-1 6.4-2.7 1.7-1.7 2.7-4 2.7-6.6z"/>
	<path id="&lt;Compound Path&gt;" fill-rule="evenodd" class="s0" d="m397.8 535.5l25.9-8.1q-15.5 23.3-31 46.6l-0.4-0.5-30.7-46.1 26.1 8.2 5-8.2zm3.9 15.2c0-2.6-1.1-4.9-2.7-6.6-1.6-1.7-3.9-2.7-6.4-2.7-2.5 0-4.8 1-6.4 2.7-1.6 1.7-2.6 4-2.6 6.6 0 2.6 1 4.9 2.6 6.6 1.6 1.7 3.9 2.8 6.4 2.8 2.5 0 4.8-1.1 6.4-2.8 1.6-1.7 2.7-4 2.7-6.6z"/>
	<path id="&lt;Compound Path&gt;" fill-rule="evenodd" class="s0" d="m349.8 576.2l25.9-8q-15.5 23.3-31 46.6l-0.4-0.5-30.7-46.1 26.1 8.2 5-8.3zm3.9 15.3c0-2.6-1.1-4.9-2.7-6.6-1.6-1.7-3.9-2.7-6.4-2.7-2.5 0-4.7 1-6.4 2.7-1.6 1.7-2.6 4-2.6 6.6 0 2.6 1 4.9 2.6 6.6 1.7 1.7 3.9 2.7 6.4 2.7 2.5 0 4.8-1 6.4-2.7 1.6-1.7 2.7-4 2.7-6.6z"/>
	<path id="&lt;Compound Path&gt;" fill-rule="evenodd" class="s0" d="m293.8 614.6l26-8-31.1 46.6-0.3-0.5-30.8-46.1 26.1 8.2 5-8.2zm0.1 7.2c-1.6-1.7-3.8-2.7-6.3-2.7-2.5 0-4.8 1-6.4 2.7-1.7 1.7-2.7 4-2.7 6.6 0 2.6 1 4.9 2.7 6.6 1.6 1.7 3.9 2.7 6.4 2.7 2.5 0 4.7-1 6.3-2.7 1.7-1.7 2.7-4 2.7-6.6 0-2.6-1-4.9-2.7-6.6z"/>
	<path id="&lt;Compound Path&gt;" fill-rule="evenodd" class="s0" d="m475.3 417.9c0 84.5-26.4 161-69.1 216.5-42.9 55.9-102.4 90.4-168.2 90.4-65.8 0-125.2-34.5-168.2-90.4-42.7-55.5-69.1-132-69.1-216.5l0.5-2.3 1.6-258.9v-3.8h3.8l47.4-0.2v-64.6l-48.5 0.3h-4.9v-86.4h86.6v5l0.6 45.6 43.4-0.3 0.2-45.2 0.1-5.1h4.7l76.5-0.1h4.7v5.1 45.7l42.6-0.7-0.4-46.3v-5.2h86.1l0.1 5.1 0.2 46.1h42.1l-0.3-46v-5.2h87l0.1 5.1 0.6 76.7v5.2h-4.8l-49.8 0.1v63.8l49.1-0.1h3.8v1.7h1v5.2l0.8 258.8zm-231.2 296.2c29.4-1 57.3-9.3 82.9-23.6 26.6-14.9 50.6-36.2 70.8-62.5 20.7-26.9 37.5-59.1 49.1-94.7 11-34.2 17.3-71.7 17.7-111.1l-220.5 0.8v45.2l0.8 0.9-0.8 0.6zm-108.1-651.5l-52.9 0.3h-4.7l-0.1-5.1-0.5-45.5h-67.5v65.8l51.2-0.2 404.4-0.6-0.5-66.5h-67.9l0.2 46.1v5.2h-61.2v-5.2l-0.3-46.1h-67l0.4 46.2v5.1l-4.7 0.1-52.2 0.9-4.8 0.1v-5.3-45.7l-66.9 0.1-0.3 45.2v5.1zm-74.7 25.5v64.6l177.7-0.6 174.8-0.6v-63.9l-352.2 0.5zm130.5 324.8l41.2-0.1 1.3-250.1v-1.9l-223.7 0.8-1.6 252 46.3-0.2v-42.2c-5.5-0.3-10.8-1.7-15.4-4.6-5.4-3.5-9.7-8.7-11.7-15.8l3.7-1.1h-3.9v-167.2h7.8v21.3l7.4 3.2v-18.9h3.7v20.4l7.7 3.4c1.5-1.9 2.5-3 2.6-3l0.1 0.1v-21.9h3.7v23.6l1.9-1.6c0 0 0.6 0.6 1.4 1.8l6.6-2.9v-19.7h3.7v18.2l5-2.1v-24.2h7.7v169.1h-3.8l1.7 0.5 1.9 0.7c-2.5 7.5-7.4 13-13.4 16.5-3.3 1.9-7 2.9-10.7 3.6v42.8l40.4-0.2c-4.1-3-7.3-7.1-9.3-12.4h-0.4v-0.8c-0.2-0.5-0.6-0.9-0.7-1.4l0.7-0.2v-166h7.7v15.9l4.5 2v-18.7h5.2v20.9l9.4 4v-23.7h5.1v22.8l7.9-3.3h-0.3v-20.3h5.2v18.2l5.1-2.2v-16.2h7.7v166.1l1 0.3c-0.3 0.7-0.7 1.2-1 1.8v0.2h-0.1c-0.2 0.5-0.4 0.8-0.6 1.2q-0.8 1.8-1.8 3.3c-1 1.6-2 3-3.2 4.3q-1.7 1.9-3.7 3.4c-0.3 0.2-0.5 0.5-0.7 0.7l43-0.2v-42.8c-4.9-0.4-9.7-1.7-13.8-4.4-5.4-3.4-9.7-8.7-11.7-15.7l0.7-0.2v-175.7h7.7v22.4l5.1 2.2v-20h5.2v22.2l10 4.3v-19.8h5.2v21l9.4-4v-23.4h5.1v21.2l2.7-1.1v-24.4h7.7v23l0.8 1.7-0.8 0.3v149.8h-0.2l0.3 0.1c-2.5 7.6-7.5 13.1-13.5 16.6-3.7 2.1-7.9 3.2-12.2 3.8zm3.1-203.6c3.5 4.5 18.2 25.9 3.7 47.4l11.1-4.7v-49l-2.7 1.1v1.4h-3.1zm-6.1 47.3c15.6-17.4 4.9-35.8 0.8-41.5-5 6.7-14.8 23.9-0.8 41.5zm20.9-0.7l-16 6.8c5.8 7.9 16.7 27.4 2.3 46.1l13.7-5.8zm-23 51.7c14.8-14.9 6.9-31.4 1.7-39.1-4.6 6.4-14.5 23.4-1.7 39.1zm0.2-46.7l1.1 0.5 0.2-0.2-0.7-0.8zm-4.1 2.2l-15.8-6.8v46.9l10.3 4.4c-11.4-18.9 0.5-38 5.5-44.5zm6 96.6c13.5-22.1 2.6-35.8-2.4-40.5-4.4 6-12.5 21.8 2.4 40.5zm8.5 0.8c1-0.4 2-0.6 2.8-1.1 4.3-2.5 7.6-6.4 9.6-11.5v-41l-17.4 7.4c6.5 6.4 18 22.2 5 46.2zm-7.3-150.4l0.9 0.8 1-0.8zm-23 139.7c1.6 4 4.1 7.2 7.4 9.3 1.9 1.3 4.1 2.1 6.3 2.7-16.5-23.1-4.3-42.4 0.5-48.5l-14.2-6.1zm0-149.4v52l13.2 5.7c-15.3-22.8 0.3-44.2 5-49.9zm-131.2 7.3v45.7l14.9 6.4c-12.3-18.6-4.2-36.1 1.8-45zm30.6 6.2c5.2 8.4 13.1 26.4 0.3 44.4l12.9-5.5v-44.5zm-9.1 106c-4.4 6.7-10.7 21.5 2.8 38.9 12.1-20.8 2.3-34-2.8-38.9zm0.5-50.8c-4.9 7.2-13.3 23.6-0.3 38.8 13.9-15.1 5.4-31.6 0.3-38.8zm2-51.2c-5 6.8-13.3 22.6-1.7 39 13.4-15.6 6.2-31.8 1.7-39zm-8 46.4l-16-6.9v44.2l11.1 4.8c-9.8-17.3-0.5-34.5 4.9-42.1zm-16 41.3v43.4c1.5 4.9 4.5 8.6 8.3 11 2.8 1.9 6.2 2.8 9.7 3.2-17.7-22.9-6.7-42.5-1.5-49.6-0.4-0.5-1-1-1.4-1.5zm43.8 0.4l-16.2 6.9c-0.4 0.4-0.7 0.8-1.1 1.1 6.4 6 19.1 22.2 5.5 47.1 0.7-0.3 1.4-0.5 2-0.8 4.4-2.6 7.9-6.6 9.8-11.9zm0-49.3l-16.2 6.9c5.4 7.3 15.9 25.4 4.6 43.3l11.6-4.9zm21.8 44.2l12.4 5.4c-12.5-20.5-0.9-39.5 4.7-46.7l-17.1-7.4zm21.5 4.9c16.1-17.2 6.2-35.4 1.9-41.8-4.8 6-15.9 23.6-1.9 41.8zm20.6-1.1l-14.9 6.3c5.7 7.5 17.6 27.7 2.7 46.9l12.2-5.2zm-20.8 100.8c11.1-19.3 3.6-32-1.6-37.6-4.3 6.4-10.6 20.6 1.6 37.6zm0.1-96l-0.2 0.1 0.2-0.1zm-0.6 47.1c15.8-16 5.5-33.9 0.5-40.6-4.7 6.5-15.1 24.4-0.5 40.6zm-5.7-45.2l-15-6.4v48l12 5.2c-14-19.3-2.5-39.2 3-46.8zm-15 45.6v40.9c1.6 4.3 4.2 7.8 7.6 10 2.4 1.5 5.1 2.3 7.9 2.9-16.2-21.6-7.2-40.1-1.7-47.9zm27.2 53.5c2.1-0.6 4.1-1.3 5.9-2.4 3.9-2.2 6.9-5.8 8.9-10.3v-41l-15.9 6.8c6.7 7.8 15.2 23.8 1.1 46.9zm14.8-158.5l-13.7 5.9c3.6 4.7 18 25.8 3.7 47.2l10-4.3zm-17.8 7.6l-0.4 0.2-0.1 0.3zm116.9 153.1l223.6-0.8-0.9-248.6-221.4 0.8-0.6 113.9h22.3c0.8-7.2 2.6-14.1 5-20.7l-19.1-11-0.5-0.3 0.3-0.4 12.7-22.1 0.3-0.5 0.4 0.3 19 10.9c2.4-3 4.9-5.9 7.7-8.6 1.3-1.3 2.8-2.5 4.2-3.7l-12.2-17.4-0.3-0.4 0.4-0.3 20.7-14.5 0.4-0.3 0.3 0.4 12.9 18.5c7.4-3.3 15.2-5.5 23.4-6.7v-25.3h26.6v25.3c6.9 1 13.6 2.8 19.9 5.3l-0.3-0.2-0.5-0.3 0.3-0.5 14-19.9 0.3-0.4 0.4 0.3 20.9 14.6 0.4 0.3-0.3 0.5-12.9 18.4c2.6 2 5.1 4.1 7.4 6.3 1.8 1.8 3.4 3.6 5.1 5.5l19.8-11.5 0.4-0.2 0.3 0.4 12.7 22.1 0.3 0.5-0.5 0.2-18.8 10.9c3.3 7.7 5.5 15.9 6.5 24.5h20.6v25.3h-21.6c-1.1 6.3-2.9 12.3-5.3 17.9l20 11.6 0.4 0.2-0.2 0.5-12.8 22.1-0.3 0.4-0.4-0.2-20.8-12q-2.5 3-5.4 5.8c-2.5 2.5-5.2 4.7-8 6.9l12.4 17.7 0.3 0.4-0.4 0.3-20.7 14.5-0.4 0.3-0.3-0.4-13.8-19.7-0.2-0.3q-8.3 3.1-17.3 4.5v20.7h-26.5v-20.3q-9.1-1.2-17.5-4l-12.8 18.3-0.3 0.4-0.4-0.3-20.9-14.6-0.4-0.3 0.3-0.5 10.8-15.4c-3.5-2.5-6.9-5.2-9.9-8.2-1.6-1.5-3-3.1-4.4-4.7l-20.5 11.9-0.5 0.2-0.2-0.4-12.8-22.1-0.3-0.5 0.5-0.2 19.3-11.2c-2.7-6.1-4.7-12.5-6-19.3h-23.3zm51.5-125.1c0 16.1 6.7 30.7 17.5 41.2 10.9 10.6 26 17.2 42.7 17.2 16.8 0 31.9-6.6 42.8-17.2 10.8-10.5 17.5-25.1 17.5-41.2 0-16-6.7-30.6-17.5-41.1-10.9-10.6-26-17.2-42.8-17.2-16.7 0-31.8 6.6-42.7 17.2-10.8 10.5-17.5 25.1-17.5 41.1zm-266.8 238.8l130.7-103.1-146.5 0.6c0.5 36.1 6.2 70.6 15.8 102.5zm9.9 28.3l45.7-36.3c1.1-3.2 2.3-6.4 4-9.6 2.1-3.9 4.7-7.6 8-10.5 3.6-5.3 13-13.2 23.3-19.3 8.5-4.9 17.8-8.7 25.5-9l59-46.8-28.1 0.1-144 113.6c2 6.1 4.3 12 6.6 17.8zm97.1-68.4q1.1-2.4 2-4.5c-4.1 1.4-8.6 3.6-12.9 6.1-9.4 5.5-17.7 12.4-20.3 16.5l-0.4 0.7-0.5 0.5c-2.5 2.1-4.5 5-6.2 8.1-2.3 4.2-3.9 9-4.9 13-0.7 2.5-1.1 5.1-1.3 7.8-0.2 2.7-0.3 5.5-0.3 8.4q0 2.4 0.3 4.7c0.1 1.5 0.4 3.1 0.8 4.6 0.3 1.2 0.6 2.3 0.8 3.2q0.6 1.7 1.2 3.1 2.1 5.2 5.6 10 3.6 4.8 8.3 8.8c3.6 3.2 7.7 5.9 12.2 8.3 4.5 2.3 9.4 4.2 14.5 5.6q5.1 1.4 10.3 2 5.1 0.7 10.7 0.7 4.7 0 9.1-0.5 4.6-0.5 8.9-1.5 0.4 0 1.5-0.3 0.3-0.1 1.5-0.4c5-1.4 9.7-3.6 14.1-6.3 4.2-2.7 8.1-5.7 11.7-8.8l0.3-0.4c3.4-5.1 6.5-9.8 8-16l0.1-0.3 0.1-0.3c0.6-1.6 1.1-5.2 1.3-10.4 0.2-4.3 0.1-9.6-0.5-15.4-2.9-9.7-5.3-20.3-6.8-29.4-0.6-3.5-1-6.7-1.3-9.7-7 7.7-12.8 16-17.1 24.3-5.9 11.4-9.1 23-9.1 33.5v12.1l-8.7-8.4q-0.5-0.4-0.8-0.9c-3.6-4.7-4.2-22-2.1-39.4 1.4-11.4 3.9-23.1 7.5-31.9-1.8 0.7-3.7 1.7-5.4 2.8l-0.3 0.2-0.5 0.2c-2.5 1.1-4.7 3.1-7.1 5.4l-0.8 0.8c-6.4 8.5-12.3 18.9-17.1 28.9-6.4 13.3-10.8 25.5-12 31.3l-1.7 8.7-6.7-5.8c-12.9-11.2 4.4-48.8 14-69.7zm-86.2 92.9l32.2-25.9c-0.3-1.5-0.6-3-0.8-4.5q-0.3-3-0.3-5.9c0-2.9 0.1-5.8 0.3-8.7l-38.2 30.4q3.2 7.4 6.8 14.6zm12.2 22.1l31.4-24.8c-0.5-0.7-1.3-1.3-1.8-2-2.5-3.3-4.4-7-6.1-10.8l-30.9 24.8c2.4 4.3 4.9 8.6 7.4 12.8zm15.3 22.8l37.5-30c-4.8-2.6-9.4-5.6-13.4-9-0.3-0.3-0.6-0.7-0.9-1l-33.1 26c3.2 4.8 6.5 9.5 9.9 14zm18.8 22.9l53.1-43.2c-1.8-0.1-3.6-0.1-5.3-0.3-4-0.6-7.9-1.4-11.6-2.4-2.4-0.6-4.4-1.7-6.7-2.5l-42 33.7c4.1 5 8.2 10 12.5 14.7zm140-60.5l-111.9 86.3c16.7 13 34.8 23.3 53.9 30.3 18.5 6.9 37.9 10.7 58 11.1zm0-40.2l-14.1 11.5c-0.3 1.9-0.7 3.5-1.1 4.6-1.9 7.7-5.5 13.1-9.3 18.9l-0.7 1.1-0.4 0.6-0.5 0.4c-4.1 3.5-8.6 7.1-13.6 10.2-5.2 3.2-10.8 5.9-16.8 7.5q-0.4 0.1-1.7 0.5-0.5 0.1-1.7 0.4-4.9 1.1-10.1 1.7-0.2 0-0.5 0l-62.1 50.5c3.9 3.9 7.8 7.9 12 11.5l120.6-93zm0-36.3l-16.2 13c0.7 2.6 1.4 5.3 2.1 7.8l0.2 0.5v0.5c0.5 4.3 0.6 8.3 0.6 12.1l13.3-10.9zm0-32.6l-21.8 17.1c0.3 2.4 0.6 4.9 1 7.7 0.6 3.1 1.3 6.4 2 9.7l18.8-15.1zm0-34.5l-51.7 41.5c-3.2 6.2-5.6 16-7.2 26.3l4.2-3.3c6.2-10.3 14.2-20.3 23.9-29.3l11-10.1-2.2 13.7 22-17.4zm0-10.5v-9.3l-15.1 0.1-70.9 56.3c-1 2.7-2.6 6.4-4.8 11.1-2.4 5.3-5.4 11.9-8.2 18.6l0.5-0.4c4.2-7.9 8.9-15.8 13.9-22.5l0.3-0.3 0.3-0.3c0.5-0.5 0.9-0.8 1.2-1.1 3-2.8 5.7-5.3 9.6-7.1 6.6-4.2 14.7-6.3 18.7-7.1 0.8-0.1 1.5-0.2 2-0.3 0.8-0.1 1.4 0 2.1 0.1l49.1-39.4z"/>
</svg>