<svg version="1.2" xmlns="http://www.w3.org/2000/svg" viewBox="0 0 568 568" width="568" height="568">
	<title>Shabla-pdf</title>
	<style>
		.s0 { fill: #fff200 } 
		.s1 { fill: #ed1c24;stroke: #ed2127;stroke-width: .4 } 
		.s2 { fill: #ffffff } 
		.s3 { fill: #00adef } 
		.s4 { fill: none;stroke: #ed2127;stroke-width: .4 } 
		.s5 { fill: #ed1c24 } 
	</style>
	<path id="Path 1" class="s0" d="m106.5 102.6l1.2-11.1 5.6-4.4-0.6 18.4c1.3 3 2.8 5.3 5.8 6.8l1.3-29.6 5.6-2.4 0.5 24.8 10.1-17.1v-11.7l6-0.7v15.1c4.1 5.1 7.2 11.4 9.6 18.5l1.5-33.8 5.7 1.9-1.1 35.5c4-1.5 5.5-4.1 8.3-7.8l1.2-22.9c-3.1-11.5 42.6-34.1 116.5-36.4 43 0.6 82.3 9.5 109.6 26.2 5.2 3.2 8.1 8.2 10.1 12.7 0.4 6.7 1 15.8 1.1 24.9q3.9 6.3 7.9 5.8l-2-35.4 5.7-1.9 2.2 33.9c2.4-7.1 5-12.2 9.1-17.4l0.3-16.1 6 0.8v12.2l11.3 16.2-0.5-24.8 5.6 2.5 1.3 29.5c3-1.5 5-3.1 6.4-6.2l-1.4-20.1 5.6 4.3 1.7 13.1c12.7-18.1 42-22.9 58.7-3.8 14.2 17.9 23.2 24.2 42.3 21.7-6.4 8.6-14 16-22.9 22.4 6.3 8.6 14.7 14.6 23.5 22.1-12.9 8.5-27.3 10.2-40 2.4-9.4-7.3-18.8-26.2-30.4-29-0.1 7.7-0.9 10.8 0.4 20.7 1.7 12.4 3.5 21.9 6.3 34.1-0.6-0.4 2.1 9.1-3 16-5.5 6.1-5.4 5.9-13.5 9.6-6.2 0.8-11.5 0.6-16.4-0.4l6.6 143.4c-15.1 112.3-112.4 98.5-192.3 158.4-85.6-60.7-181.3-56.1-193.4-160.1l10.2-143c-5.4 0.8-11.4 0.2-17.2-1.1-6.3-2.5-7.3-3.7-12.8-9.8-4.1-6.2-3-6-3.3-11.8 2.9-12.2 4-24.4 5.7-36.7 0.9-10.1 0.9-11.8 1.7-19.5-14.6 3.7-19.7 21-30.8 28-11 9.3-27.1 6.6-40-1.9 8.7-7.5 17.2-14.1 23.4-22.6-8.9-6.4-16.6-14.6-23.1-23.2 15.5 1.9 25.8 0.7 42.2-19.6 21.3-19.4 41.1-22.2 60.9 0.4z"/>
	<path id="Path 2" class="s1" d="m489.5 192.4l6 4.1c2.8 9.7-1 17.5-11.3 20.8-5.4 0.1-10.7-0.4-15.7-2.1l-1.4-35.5z"/>
	<path id="Path 3" class="s1" d="m488.6 142.3c0.7 15.4 2.1 31 5.9 46.8-22.5-11.6-30.9-21.5-29.5-28.7 0.4-4.3 3.8-8.3 4.6-10.9 5.5-4.4 11.4-7.8 19-7.2z"/>
	<path id="Path 4" class="s1" d="m38.1 166.6c-8.7 5.1-16.1 4.6-25.4 0.8 8.2-7.3 16.9-14.9 23.3-23.5-7.1-5.1-13.8-10.6-19.5-17 18.7-1.2 27-10.9 35.6-22.4 8.1-7.1 17.8-11.4 29.8-10 8.7 1.6 22.8 9 23.5 23.2l-1.6 26.8c-9.7-10.2-25-15.2-37.7-7.2-10.5 4.8-18.7 21.5-28 29.3z"/>
	<path id="Path 5" class="s1" d="m101.3 178l-1.7 35.3c-4.7 1.5-9.7 1.7-15.1 1.3-12.8-4.1-15.4-16.3-4.1-24z"/>
	<path id="Path 6" class="s1" d="m98.8 147.9c0.8 2.6 4.2 7.1 3.6 11.4 0.2 16.2-12.2 15.2-27.6 28.2 3.7-15.9 5.1-31.1 5.8-46.5 7.7 0.8 12.1 1.7 18.2 6.9z"/>
	<path id="Path 7" class="s2" d="m458.4 190.2c-7.8 9.5-14.7 13.2-20.4 16.3-0.7-5.6-1.6-11.5 2.5-20.7 5.4-8.1 12.2-11.8 20.9-16.9 0.3 7.1-0.6 13.2-3 21.3zm-52.1-22.9c9 4.6 16.3 9.6 22.3 17.4 3 8.4 3.7 12.1 3.4 17.7-5.1-2.7-12.7-6.2-21.2-15.2-3.8-7.9-5.9-13.3-4.5-19.9zm-0.5-25.9c9.1 4.5 16.2 11.5 22.1 19.2 3.1 8.5 3.8 12.2 3.5 17.8-6-2.8-12.4-6.6-20.8-15.6-3.8-7.9-6.1-14.8-4.8-21.4zm50.6 22c-7.2 9.8-13.8 13.8-19.4 17.1-1-5.5-0.6-12 1.3-20.7 4.9-8.4 11.8-14 20.2-19.4 2.2 6.4 0.7 14.7-2.1 23zm-2-27.3c-7.4 9.6-12.9 14.1-18.5 17.3-0.9-5.5-1-9.4 1.1-18 5.1-8.3 12-14.5 20.5-19.8 1 7.3 1 12.5-3.1 20.5zm-49.8-19.2c9 4.6 16.5 10.2 22.5 18 3 8.5 3.3 12.3 3 17.9-6-2.7-11.9-6.7-20.3-15.7-3.9-7.9-6.6-13.5-5.2-20.2zm26.3-20.5q8.7 8.1 9.8 20.6c-1.9 7.8-5.1 13.1-8.1 17.3-4.3-4.2-7.8-9.2-9.8-19.5q1.5-11.5 8.1-18.4z"/>
	<path id="Path 8" class="s1" d="m191.2 120c-1.6 10.2-0.4 26.3-1.1 31.5-2.2 0.4-10.7-3.3-11.6-3.8-10.7-3.7-7.9-10-6.9-14.2 3.4-4.3 7-7.3 11.2-9.7q3.8-1.9 8-3.7 0.2 0 0.4-0.1z"/>
	<path id="Path 9" class="s1" d="m398 134.7c0.9 4.1 2.4 10-8.3 13.8-3.3 1.9-7.3 2.7-10.6 4.6l0.3-31.9c8.5 3.3 13.1 6.6 18.6 13.5z"/>
	<path id="Path 10" class="s1" d="m398.9 150.7l1.4 37.1c-3.7-1.1-6.8-3.9-9.5-6-8.8-5.1-11.1-12-11.6-17.5-0.5-1.6 1.1-4.1 2.6-5.2 6.5-3.5 12.4-5.4 17.1-8.4z"/>
	<path id="Path 11" class="s1" d="m187.5 158.3c0.9 1.6 2.4 3.3 2 4.9 0.9 4.2-3.3 11.2-11.6 17.5-2.7 2-5.4 3.5-9.1 5.3l0.9-34.7c1.5 0.6 12.8 3.6 17.8 7z"/>
	<path id="Path 12" class="s2" d="m431.3 211.5c2.3 2.7 2.2 5.5 1.9 8.2-7.4-2.2-16.4-6.7-23.3-10.2-0.8-6.5-1.7-10.6-1.9-16.7 7.8 6.2 16.4 6.2 23.3 18.7zm30.9-15.4c0.4 7.2 0.4 12.1-2.1 20.2-2 3.5-5.4 7.5-7.3 8.1-4.8-0.6-9.1-2-13.7-3.1q0-0.2 0-0.4 0 0 0 0 0-0.1 0-0.2 0-0.1 0-0.1 0.1-0.4 0.1-0.8 0 0 0 0c0.2-1.3 0.6-2.7 1.1-4.3q0 0 0.1 0 0.1-0.5 0.4-1.1 0-0.1 0-0.1 0.2-0.6 0.5-1.2c5.4-8.1 12.2-11.9 20.9-17z"/>
	<path id="Path 13" class="s1" d="m465.7 145.5l-1.4-28c2.3-16 15.5-20.3 24.2-21.8 12-1.5 19.7 2.9 27.7 10.1 10.6 11.1 17.4 22.1 36.1 23.3-5 6.6-10.8 10.5-19.5 15.3 6.4 8.6 14.7 17 22.9 24.3-9.3 3.7-15.7 4.5-24.4-0.7-9.3-7.8-18.5-24.7-29-29.4-12.8-8.1-26.8-2.6-36.6 6.9z"/>
	<path id="Path 14" class="s1" d="m284.3 51.5c40 2 74.8 7.4 106.6 25.9 3.8 3.6 5.5 8.2 5.8 13.6l1 33.3c-25.4-19.7-81.5-26.3-116.5-25.2-34.3 0.8-89 5.9-109.6 24.1l1.8-37c2.4-8.5 2.8-7.6 10-13.3 33-14.9 66.2-19.8 100.9-21.4z"/>
	<path id="Path 15" class="s2" d="m107.6 168.7c8.7 5 15.1 8 20.5 16.1 4.1 9.2 3.2 15.1 2.5 20.7-5.7-3.1-12.6-6.8-20.4-16.3-2.4-8.1-3-13.4-2.6-20.5zm50.1 17.5c-8.4 9-16 12.5-21.1 15.2-0.3-5.6 0.4-9.3 3.4-17.7 6-7.8 13.3-12.9 22.3-17.4 1.4 6.6-0.7 12-4.6 19.9zm0.3-24.4c-8.5 9-14.8 12.8-20.8 15.6-0.3-5.6 0.4-9.3 3.4-17.8 6-7.7 13.9-16 22.9-20.6 1.4 6.7-1.7 14.9-5.5 22.8zm-47.9-22.4c8.3 5.4 15.3 11 20.2 19.4 1.9 8.7 2.3 15.2 1.3 20.7-5.6-3.3-12.2-7.3-19.4-17.1-2.8-8.3-4.4-16.6-2.1-23zm1.4-25c8.6 5.3 14.9 11.7 20.1 20 2.1 8.6 2 12.5 1.1 18-5.6-3.2-11.1-7.7-18.6-17.3-4-8-3.5-13.4-2.6-20.7zm47.3 21.7c-8.4 9-14.4 13-20.3 15.7-0.3-5.6 0-9.4 3-17.9 6-7.8 14.6-13.8 23.6-18.4 1.4 6.7-1.1 13.8-6.3 20.6zm-13-22.3c-2 10.3-5.5 15.2-9.8 19.5-3-4.2-4.9-9.5-6.8-17.3 0.7-8.3 3.6-14.4 9.4-19.8 4.4 4.6 6.2 9.9 7.2 17.6z"/>
	<path id="Path 16" class="s3" d="m461.4 349.3l0.9 15.2c-3.5 21.8-6.8 36.5-21.1 55.5-24.2 27-63.1 42-97.5 56.5l1.3-58.6-23.6-0.3-4.8-68.7z"/>
	<path id="Path 17" class="s2" d="m285.9 197.9c23.5 0 47-3.7 69.6-11.3 20.8 21.3 65.6 48.8 99.3 51.4l6.2 106.2-144.7 0.1-6.4-91.2-2.5-1.1-0.2-13.8-10.2-3.6 0.2-7.1 5.1-1.6 0.1-0.7-16.9-13.1zm-180.2 145l8.6-105.2c39.5-5.1 72.4-26.9 98-51.8 23.2 7.7 46 12 70.3 12.2l0.2 13.6-17 13.7v0.6l4.7 1.3-0.2 6.7-9.8 3.5-0.3 14.5-1.7 0.8-6.7 91.1z"/>
	<path id="Path 18" class="s3" d="m220.4 475.1c-28.4-12.6-53.9-22.2-78.5-40-7-5.7-12.7-11.2-18.5-17.9l-7.3-10.8c-7.6-14.4-10-27.4-12.3-43.1l0.9-15.7 147 1.2-4.4 67.9-25.8-0.2z"/>
	<path id="Path 19" fill-rule="evenodd" class="s2" d="m137.8 209c6-7.8 13.8-12.6 22.8-17.2 1.4 6.7 0 9.7-3.8 17.8-8 3.7-14.4 6.4-20.8 8.5 0.2-2.7 0.3-4.9 1.8-9.1zm-28.4 7.5c-3.7-8.8-2.4-12.9-2-20 8.6 5 14.5 7.5 19.9 15.6 1.2 2.9 1.9 5.1 2.3 7.1-5.8 1.9-9.7 2.8-14.2 3.3-2.3-1.9-3.6-3.1-6-6zm248.6-120.3c-1.3 2.4-0.7 2.5-1.9 5-1.7-0.6-5.4-1.2-7.2-1.6 5.2-8.2 8.1-16.4 13.8-25.9 1.4 0.6 9.2 2.7 10.7 3l7 32.2c-3.2-1.4-7.6-2.2-10.9-3.4l-1-6.8zm9.7-3.2l-1.9-10.9-0.8-0.2c-1.7 2.8-3.3 6.2-4.8 9.2 3.5 1.1 4 0.7 7.5 1.9zm-28.6-26l5.7 23.6 2.9 8.5-12.5-2.5v-6.1l-2.2-10.7-1.9-6.2h-0.7c-1.8 3.1-2.6 6.7-4.1 9.5-1.7 3.1-2.3 9.1-3.5 11.6-0.8-0.1-4.8-0.8-5.6-0.9-0.8-0.1-1.8-0.3-2.6-0.2 2.1-3.9 5-11.1 7.3-16.1 1.7-3.7 3.1-6.7 4.6-10.5 0.2-0.6 0.2-2.1 0.5-2.8zm-86 20.3c-1.8 2.9-0.7 3.4-1.4 6.5-1.8 0.1-7.4 0.6-9.2 0.9 5.2-9.9 8.9-23 12-32.7l10.4-0.4c5.3 9 7.8 21.3 12.7 30.4-3.3 0-7.7 0.2-11 0.4-1.1-2.7-0.5-3.4-1.9-6-4.3 0.4-7.3 0.5-11.6 0.9zm9.7-6.4c-1.6-3-2.8-7.5-4.5-10.5-1.7 3.3-2.1 7.8-3.8 11.1 3.3-0.4 5-0.3 8.3-0.6zm-53.9 13.5c-0.1-7.4 0.4-15 0.6-22.2 2.6-0.9 7.8-2.4 10.5-3.2-0.1 7.9-1.1 15.3-1 23.4 2.9-0.8 4.5-1.4 7.5-2.1 0-4.1 0.8-7.3 0.8-11.4 0-4.1 0.1-7.7 0.1-11.8 2.7-0.6 7.5-1.7 10.2-2.2 0 9.7-0.8 20.6-0.5 30.7-15.7 2.4-30.5 5.1-45.4 10.4 0.4-9 1.4-19.3 1.7-28.6 2.5-1.1 6.4-2.4 9.1-3.3-0.2 7.6-1.5 3.4-1.4 22.7 2.4-0.8 4.9-1.1 7.2-1.9 1.1-0.4 0.4-0.5 0.6-0.5zm84.5-29.1c0 3 0.1 2.3 0.1 5.3 4.3 0 13.7 2.4 16.4 5.6 1 1.1 2.6 3.7 2.6 5.2-0.1 2.9 1.2 5.6-6.3 10.9-1.2 0.6-19.2-0.2-23-0.1 0.1-4.6-0.3-12.6-0.3-17.2 0-4.6 0.1-9.8 0-14.4 8.1 0 19.5 0.5 27.5 0.9l0.4 7.2-6.5-2.5zm-0.2 21.4c1.9 0.1 3.8 0.2 4.7 0.1 1.7-0.3 3-0.7 3.9-1.7 0.9-0.9 1.1-1.1 1-2.5-0.2-3.2-2.2-4.8-5.8-5.8-1.3-0.3-2.6-0.4-3.9-0.4q0 2.8 0 5.6c-0.1 1.8 0.2 2.9 0.1 4.7zm-65.6 357.9h110.5v28.4h-110.5zm27-56.9l8.8 0.9-1.1 28.1-9.4-0.4zm13.3 1.5h30.4l0.4 27.7-10.2-0.2-0.8-16.8c-2.6-4.3-6.5-4.4-9.4-0.5l-0.7 17.1-11-0.2zm34.4-0.1l10.9-0.7 2.5 28.6h-13zm-1.6-54.7l9.1 0.3 2.3 27.5-10.8-0.4zm-1.7-55.3l7 1.2 1.8 27.8-8.4-1.3zm3.5-40.4l2.9 0.8v12.4l-2.8-0.6zm-37.4 12.5l-2.8 0.5v-12.5l2.9-0.8zm32.4-14.3l3.2 0.9-0.2 13.5-3.2-0.1zm-27.3 13.7l-3.2 0.1-0.1-13.4 3.1-0.8zm6.5 0.5l-3.8-0.2 0.3-14.3 3.6 0.1zm5.7 0l-3.8-0.1 0.3-14.3 3.5 0.1zm6.4 0l-3.8-0.1 0.3-14.4 3.5 0.2zm5.6 0l-3.8-0.1 0.3-14.4 3.5 0.2zm-23.9 83.4l26.1 0.2 0.5 27.5-28.5-0.6zm2.7-55.4l22.1 0.2 0.5 27.9-24.2-0.6zm-8.4 82.3l-8.2-0.5 1.8-26.4h8.1zm3.6-54.3l-8 1 1.5-27.9 7.3-0.9zm4.9-82h21.2v9.7h-21.2z"/>
	<path id="Path 20" class="s4" d="m227.6 444.4h110.5v28.4h-110.5zm27-56.9l8.8 0.9-1.1 28.1-9.4-0.4zm13.4 1.5h30.3l0.4 27.7-10.1-0.2-0.9-16.8c-2.6-4.3-6.5-4.4-9.4-0.5l-0.7 17.1-11-0.2zm34.4-0.1l11-0.7 2.5 28.6h-13zm-1.7-54.7l9.2 0.3 2.2 27.5-10.8-0.4zm-1.7-55.3l7 1.2 1.9 27.7-8.5-1.2zm3.5-40.4l2.9 0.8v12.4l-2.8-0.6zm-37.2-0.3l-3 0.8v12.5l2.8-0.5zm32.2-1.4l3.2 0.8-0.2 13.5-3.2-0.1zm-27.5-0.4l-3.1 0.9 0.1 13.3 3.2-0.1zm6.9 0.2l-3.6-0.2-0.3 14.3 3.8 0.2zm5.7 0l-3.5-0.2-0.3 14.4 3.8 0.1zm6.3 0l-3.5-0.1-0.4 14.3 3.8 0.1zm5.6 0l-3.6-0.1-0.3 14.3 3.8 0.1zm-24 97.7l26.1 0.3 0.6 27.5-28.6-0.6zm2.8-55.5l22 0.3 0.5 27.9-24.1-0.6zm-6.8 55.4h-8.1l-1.8 26.4 8.3 0.5zm2.7-55.3l-7.3 0.9-1.5 27.9 8-1zm4.1-54.3h21.2v9.7h-21.2z"/>
	<path id="Path 21" fill-rule="evenodd" class="s5" d="m285 509q0 0 0 0 0 0 0 0zm-64.6-33.9l1.1-58.6 25.8 0.2 4.5-72.7 6.7-91.2 1.7-0.8 0.3-14.5 9.8-3.4 0.1-6.8-4.7-1.3v-0.6l17.1-13.7-0.3-14 3 0.2v14.2l16.9 13.1-0.1 0.7-5.1 1.6-0.2 7.1 10.2 3.6 0.2 13.8 2.5 1.1 6.7 95.8 4.8 68.7 23.6 0.3-1.3 58.6c0.5-0.2-48 23.9-58.7 32.5 0.3-1.1-64.4-35.2-64.6-33.9zm32.5-59.1l9.4 0.4 1.1-28.1-8.8-0.9zm13.6 0l11 0.2 0.8-17c2.9-3.9 6.7-3.8 9.4 0.5l0.8 16.8 10.2 0.1-0.4-27.7h-30.4zm36.3 0.7h13l-2.5-28.6-10.9 0.8zm-1.5-55.2l10.8 0.4-2.3-27.5-9.1-0.2zm-1.9-55l8.4 1.3-1.8-27.7-7-1.3zm3.1-55.5l2.8 0.5v-12.3l-3-0.9zm-37.4-13l-2.9 0.9-0.1 12.5 2.9-0.6zm32 12.9l3.2 0.1 0.1-13.5-3.1-0.9zm-27.3-14.5l-3.1 0.8 0.2 13.3 3.2-0.1zm6.8 0.2l-3.5-0.2-0.4 14.4 3.8 0.1zm5.8 0l-3.6-0.1-0.3 14.3 3.8 0.1zm6.3 0l-3.5-0.1-0.3 14.3 3.8 0.2zm5.5 0l-3.5-0.2-0.3 14.3 3.7 0.2zm-25.9 124.8l28.6 0.6-0.5-27.5-26.2-0.2zm3.1-55l24.1 0.6-0.4-27.9-22.1-0.2zm-5.1 27.8h-8.1l-1.8 26.4 8.3 0.5zm2.7-55.2l-7.3 0.9-1.5 27.8 8-1zm4.1-44.6h21.1v-9.7h-21.1zm-45.7 238.5h110.6v-28.5h-110.6z"/>
	<path id="Path 22" class="s2" d="m167.9 195.8c10.2-7.7 15.5-12 21.6-17.5 9.3-8.3 8-19.5 6.6-27.2-0.2-11.1 0.2-22.2 1.4-33.3 20-7.1 47.1-10.9 87.7-11.7 32.7 1.1 63.2 3.8 87.9 13.6 1.5 10.3 1.5 20.6-0.1 30.7-1.6 7.6-4.5 19.9 5.7 28.7 4 6.6 12.1 9.8 22.1 17.5l0.1 8.1c-16-9-25.8-17.9-39.3-33.2-51.3 20.5-102.7 18.7-154 0-13 13.3-26.2 24.4-40.1 32.6-0.4 0.1 0.7-8.5 0.4-8.3z"/>
</svg>