<svg version="1.2" xmlns="http://www.w3.org/2000/svg" viewBox="0 0 846 1176" width="846" height="1176">
	<title>Vidin-pdf</title>
	<style>
		.s0 { fill: #0994dc } 
	</style>
	<path id="Path 1" fill-rule="evenodd" class="s0" d="m156.1 216.5q0-0.2 0.2-0.2 0.3-0.2-0.2 0.2zm261 58.5c162.2 2.4 267.9-68.1 267.9-68.1l119.9 91.6c0 0-70.5 108.1-58.8 188 11.8 79.9 54.1 138.7 61.1 159.8 7.1 21.2 51.7 115.2 32.9 202.1-18.8 87-86.9 117.5-115.1 136.3-28.2 18.8-65.8 11.7-65.8 11.7 0 0 7 25.9-9.4 42.3-16.5 16.5-44.7 37.6-75.2 47-30.6 9.4-68.2 21.2-87 32.9-18.8 11.8-63.4 56.4-63.4 56.4 0 0-51.7-44.6-72.9-56.4-21.1-11.7-110.4-28.2-131.6-47-21.1-18.8-37.6-65.8-37.6-65.8 0 0-110.4-7-145.7-79.8-35.2-72.9-42.3-141-28.1-190.4 14.1-49.4 58.7-124.5 70.5-166.8 11.7-42.3 25.8-70.5 14-129.3-11.7-58.7-61-131.6-61-131.6 0 0 117.9-85.7 124.3-91.4 0.4 4.6 102.7 56.2 261 58.5zm-251.6-17.3q-0.2 0.1-0.1 0.3 0.5-0.4 0.1-0.3zm-0.1 0.3c-5.2 4.7-85.4 64.6-85.4 64.6 0 0 38 64.1 48.8 117.7 10.7 53.6-9.2 100.5-20 139.1-10.7 38.6-51.4 107.3-64.3 152.3-12.9 45-6.4 107.2 25.7 173.7 32.2 66.5 133 72.9 133 72.9 0 0 15 42.9 34.3 60.1 19.3 17.1 100.8 32.2 120.1 42.9 19.3 10.7 66.5 51.4 66.5 51.4 0 0 40.7-40.7 57.9-51.4 17.2-10.7 51.5-21.5 79.3-30 27.9-8.6 53.7-27.9 68.7-42.9 15-15.1 8.6-38.6 8.6-38.6 0 0 34.3 6.4 60-10.8 25.7-17.1 87.9-45 105.1-124.4 17.1-79.3-23.6-165.1-30-184.4-6.5-19.3-49.8-96.4-60.5-169.3-10.7-72.9 44.2-171.6 44.2-171.6l-71.8-55.4c0 0-120 59.6-267.9 57.5-144.3-2.1-251-49.1-252.3-53.4zm58-98l-23.7-66.8 53-17.4 11.8 32.4 36.2-10.6-4.4-33.1 54.3-10 4.3 36.2 37.4-4.9v-34.4l60.5-1.9-2.5 33.8 39.3 5 7.5-36.9 55.5 9.4-6.9 32.4 35.6 9.4 7.8-33 56.4 20.5-18.1 51.8-6.3 17.6c0 0-69.8-37.5-195.1-35-125.3 2.5-202 34.3-202.6 35.5z"/>
	<path id="Path 2" fill-rule="evenodd" class="s0" d="m231.5 171.9q0 0 0 0 0 0 0 0zm192-36.8c109.8 1.2 194.5 33.1 194.5 33.1l-20.5 48.7c0 0-87.3-28.1-174-26.3-86.7 1.9-173.3 33.1-173.3 33.1 0 0-17.7-51.1-18.7-51.8 1.9-0.6 84-38.1 192-36.8zm-138.1 44.2c0 5.4 6.5 9.8 14.6 9.8 8.1 0 14.6-4.4 14.6-9.8 0-5.5-6.5-9.9-14.6-9.9-8.1 0-14.6 4.4-14.6 9.9zm166.3-16.6c-1 5.3 4.5 10.9 12.5 12.5 7.9 1.5 15.2-1.5 16.2-6.9 1.1-5.4-4.5-11-12.4-12.5-8-1.6-15.2 1.5-16.3 6.9zm-83.7 2.8c0 5.5 6.5 9.9 14.6 9.9 8.1 0 14.6-4.4 14.6-9.9 0-5.5-6.5-9.9-14.6-9.9-8.1 0-14.6 4.4-14.6 9.9zm166.3 9.2c-1 5.4 4.5 11 12.5 12.5 7.9 1.6 15.2-1.5 16.2-6.9 1.1-5.3-4.5-10.9-12.4-12.5-8-1.5-15.2 1.6-16.3 6.9zm-362.7-123.9l80.5-23.1 8.7 33.1-76.1 26.2c0 0-11.2-35.6-13.1-36.2zm100.4-30l86-16.2 1.9 39.9-79.8 13.2c0 0-8.7-36.9-8.1-36.9zm108.5-18.1l88.5-1.8-1.8 38.7-84.8 1.2c0 0-3.2-37.5-1.9-38.1zm109.1-1.2l85.4 16.2-8.7 36.2-81.7-15.6zm106.6 18.7l79.2 28.1-13.1 33.7-79.8-24.9c0 0 13.7-37.5 13.7-36.9zm-415.1 327.1l-0.1 0.1q0-0.1 0.1-0.1zm69.1-24.3l66.1 24.4c0 0-130.7-0.6-135.2-0.1zm124.3 24.3l-0.2 0.1q0-0.1 0.2-0.1zm69.6-27.4l64.2 25.6c0 0-127.1 0.6-133.8 1.8zm-258.1 38.7h127.2l-0.6 76.1 24.3-1.2 0.6 15c0 0-3.7 10.6 9.4 11.2 13.1 0.6 8.7-11.2 8.7-11.2v-16.3h24.3v-74.9l127.2-0.6-0.6 76.2 21.2-0.7 1.9 25c0 0 18 1.9 21.2-1.2 3.1-3.2 0-22.5 0-22.5l43-1.9 1.2 15c0 0-2.5 10 8.8 10 11.2 0 10.6-11.3 10.6-11.3l1.2-12.4 20.6-1.9 0.6-22.5 38-0.6c0 0 3.3 33.7 5.6 54.9 2.4 21.3 18.1 131.7 18.1 131.7l-114.1 1.3 21.9-51.8-87.3-57.5c0 0-36.2 40.6-92.9 41.2-56.8 0.7-96.1-37.4-96.1-37.4l-92.2 64.3 29.3 48.7-113.5 1.9 15.6-124.9 18.7-15.6c0 0-1.9-105.5-1.9-106.1zm104.4 48.8l-0.7-23.2c0 0-0.9-11.7-8-11.5-7 0.2-7.1 11.7-7.1 11.7l0.6 23.4c0 0.2 15.2-0.4 15.2-0.4zm-34.3 0l-0.7-23.2c0 0-0.9-11.7-7.9-11.5-7.1 0.2-7.2 11.7-7.2 11.7l0.6 23.4c0 0.2 15.2-0.4 15.2-0.4zm-31.2 0l-0.7-23.2c0 0-0.9-11.7-7.9-11.5-7 0.2-7.2 11.7-7.2 11.7l0.6 23.4c0 0.2 15.2-0.4 15.2-0.4zm258.1 0l-0.6-23.2c0 0-1-11.7-8-11.5-7 0.2-7.1 11.7-7.1 11.7l0.5 23.4c0.1 0.2 15.2-0.4 15.2-0.4zm-33 0l-0.7-23.2c0 0-0.9-11.7-7.9-11.5-7.1 0.2-7.2 11.7-7.2 11.7l0.6 23.4c0 0.2 15.2-0.4 15.2-0.4zm-30.5 0l-0.7-23.2c0 0-1-11.7-8-11.5-7 0.2-7.1 11.7-7.1 11.7l0.6 23.4c0 0.2 15.2-0.4 15.2-0.4zm219.3-9.7c0 0.3 0 0.4-0.1 0.2q-0.1-0.1 0.1-0.2zm16.7-17.3c19.5-0.8 19.5 16.4 19.5 16.4 0 0-34-0.7-36.2 0.9 0-2.4-0.2-16.6 16.7-17.3zm-192.7 601.8l7.5-15 13.1-22.4c0 0 15-24.4 20-31.2 5-6.9 13.7-22.5 21.2-29.4 7.5-6.9 13.1-15.6 28.6-25.6 15.6-10 13.8-12.5 31.9-23.1 18-10.6 10.5-7.5 32.4-20 21.8-12.4 19.9-8.1 35.5-18.7 15.6-10.6 11.2-8.1 24.3-18.7 13.1-10.6 8.7-5 12.4-16.9 3.7-11.8 7-11.2-1.1-21.2-8.2-10-9.4-10-16.9-6.9-7.5 3.2-11.8 8.1-14.3 14.4-2.5 6.2-1.3 20-1.3 20 0 0-10.6-0.7-17.4-10.6-6.9-10-3.8-20.6-3.8-25.6 0-5-17.4-9.4-21.2-20-3.7-10.6-5-11.2-3.1-18.7 1.9-7.5 5-10 5-10 0 0 4.4 6.2 11.9 9.3 7.4 3.2 4.1 3.8 16.8 6.9 12.7 3.1 15.6 3.7 26.8 1.9 11.2-1.9 15-1.3 25.6-1.3 10.6 0 17.3-0.6 24.8 6.9 7.5 7.5 11.5 13.5 14.6 22.1 3.1 8.6 7.3 15.3 6.7 28.5-0.6 13.1-0.6 21.2-3.1 33.7-2.5 12.5-3.1 24.3-11.2 40.5-8.2 16.3-11.3 30-22.5 43.1-11.2 13.1-15 17.5-30.5 32.5-15.6 15-20.6 16.8-35 29.3-14.3 12.5-21.8 11.3-31.1 20-9.4 8.7-17.5 8.1-22.5 8.7-5 0.7 3.1-26.2-5-40.5-8.1-14.4-13.1-20-23-27.5-10-7.5-11.9-4.4-11.9-4.4 0 0 21.8 18.8 23.1 35.6 1.2 16.9 3.7 30.6-1.9 40-5.6 9.3-14.3 14.3-25.5 19.9-11.3 5.7-15 5.7-27.5 8.2-12.5 2.5-14.9 6.8-27.4 6.8-12.5 0-14.3 4.4-21.2 0-6.9-4.3-8.1-5.6-8.1-10 0-4.3 5.6-10.6 4.3-10.6zm42.6-43.3c0 5.2 4.3 9.4 9.5 9.4 5.2 0 9.5-4.2 9.5-9.4 0-5.3-4.3-9.5-9.5-9.5-5.2 0-9.5 4.2-9.5 9.5zm-335.6-197.7c11.7 0 21.2 9.6 21.2 21.3 0 11.7-9.5 21.2-21.2 21.2-11.7 0-21.2-9.5-21.2-21.2 0-11.7 9.5-21.3 21.2-21.3zm-40.5 35.6c11.7 0 21.2 9.5 21.2 21.3 0 11.7-9.5 21.2-21.2 21.2-11.7 0-21.3-9.5-21.3-21.2 0-11.8 9.6-21.3 21.3-21.3zm10.6 53.1c11.7 0 21.2 9.5 21.2 21.2 0 11.7-9.5 21.3-21.2 21.3-11.7 0-21.3-9.6-21.3-21.3 0-11.7 9.6-21.2 21.3-21.2zm34.3 40c11.7 0 21.2 9.5 21.2 21.2 0 11.7-9.5 21.2-21.2 21.2-11.8 0-21.3-9.5-21.3-21.2 0-11.7 9.5-21.2 21.3-21.2zm33.6 39.3c11.8 0 21.3 9.5 21.3 21.2 0 11.7-9.5 21.2-21.3 21.2-11.7 0-21.2-9.5-21.2-21.2 0-11.7 9.5-21.2 21.2-21.2zm48 21.8c11.8 0 21.3 9.5 21.3 21.3 0 11.7-9.5 21.2-21.3 21.2-11.7 0-21.2-9.5-21.2-21.2 0-11.8 9.5-21.3 21.2-21.3zm56.2 14.4c11.7 0 21.2 9.5 21.2 21.2 0 11.7-9.5 21.2-21.2 21.2-11.8 0-21.3-9.5-21.3-21.2 0-11.7 9.5-21.2 21.3-21.2zm-64.3-69.9c11.8 0 21.3 9.5 21.3 21.2 0 11.7-9.5 21.2-21.3 21.2-11.7 0-21.2-9.5-21.2-21.2 0-11.7 9.5-21.2 21.2-21.2zm-34.2-41.2c11.7 0 21.2 9.5 21.2 21.2 0 11.7-9.5 21.2-21.2 21.2-11.8 0-21.3-9.5-21.3-21.2 0-11.7 9.5-21.2 21.3-21.2zm-33.1-41.2c11.7 0 21.2 9.5 21.2 21.2 0 11.7-9.5 21.2-21.2 21.2-11.7 0-21.2-9.5-21.2-21.2 0-11.7 9.5-21.2 21.2-21.2zm39.3-31.2c11.7 0 21.2 9.5 21.2 21.2 0 11.7-9.5 21.2-21.2 21.2-11.7 0-21.2-9.5-21.2-21.2 0-11.7 9.5-21.2 21.2-21.2zm33.7 37.4c11.7 0 21.2 9.5 21.2 21.2 0 11.8-9.5 21.3-21.2 21.3-11.8 0-21.3-9.5-21.3-21.3 0-11.7 9.5-21.2 21.3-21.2zm31.8 42.5c11.7 0 21.2 9.5 21.2 21.2 0 11.7-9.5 21.2-21.2 21.2-11.8 0-21.3-9.5-21.3-21.2 0-11.7 9.5-21.2 21.3-21.2z"/>
	<path id="Path 3" fill-rule="evenodd" class="s0" d="m278.2 561.5l50.5-37.5c0 0 25.6 33.1 94.2 32.5 68.6-0.7 101.6-34.4 101.6-34.4l45.5 32.5c0 0-18 34.3-17.4 66.8 0.2 11 1.5 19.3 3.4 25.9l222.3-3.6 8.5 19.8-222.6 3.8c1.1 2.2 2.1 4.4 2.7 6.5 3.1 10.6 22.5 50.6 16.8 74.3-5.6 23.7-26.8 43.7-48 53.7-7.9 3.7-16.6 5.4-21.8 8.9-8.8 6-15.3 18.6-33.7 24.2-26.9 8.3-40.8 18.6-45.2 22.3l-0.1 276.2-17.7 0.3-1.8-276.3h-0.6l-35.6-18.8c0 0-19.9 0-35.5-19.3-15.6-19.4-55.5-8.8-69.8-46.8-14.4-38.1-6.3-51.2-0.7-71.8 3.1-11.3 6.4-19.8 9.7-28.7l-216.8 0.3c0 0 5.7-18 8.7-18l214.7-2.1q0.6-2.2 1.2-4.6c5.6-21.2 8.7-28.7 1.9-51.8-6.9-23.1-14.4-33.7-14.4-34.3zm37 46.2c2.5 21.2-2.6 26.8-7.5 45.3-4.9 18.5-10.4 28.4-15.3 46.4-4.9 18-15.1 28.8-2.5 62.1 12.5 33.3 50.5 24.6 64.1 41.5 13.6 16.9 31.1 16.9 31.1 16.9l38.5 21.4 8.8-3.9c-5.1 2.3 11.8-11.8 40.9-20.7 16-5 21.8-15.9 29.4-21.1 4.6-3.2 12.2-4.6 19.1-7.9 18.5-8.7 37.1-26.1 42-46.9 4.9-20.7-12-55.6-14.8-64.9-2.7-9.3-15.7-19.9-16.2-48.3-0.6-28.4 12.7-67.1 12.7-67.1l-22.3-13.4c0 0-40.1 30.7-100 31.2-59.9 0.6-96.6-29.6-96.6-29.6l-25.4 20.3c-0.5 0.3 10 16.8 14 38.7zm117.3 229.7h-0.1q0.1 0 0.1 0zm9.9-239.6c0.9 1.3 1.9 2 2.8 2.3 2.6 1.1 4 3.1 5.6 6.6 0.1 0.6-0.6 1.3 4.2 5.2 1 0.9 4.8 2.8 4.5 8.5-0.5 10.1 6.5 10 6.5 10-1.6 3.3-3.9 1.6-3.9 1.6 0.8 2 0.5 6.7 0.2 9-0.2 2.7-0.2 4-0.9 7.6-0.3 2.2 0 7.9 0 7.9-4.1-2.5-2.2-12.1-2.2-12.1 0 0-0.7 0-2.1 10-1.5 10.2 2.6 11.8 2.6 11.8-11.9 0.2-7.2-19.4-7.2-19.4-3.4 11.7 3.1 24.6 3.1 24.6 0 0-5.5 1.9-9.1-1.7 0.4 0.6 0.6 0.9 0.6 0.9 0 0-0.9 0.2-2.4 0.1q0 0 0 0 0 0 0 0c-2.1-0.2-5.2-1.1-7.8-4.5 2.5 3.4 5.7 4.4 7.8 4.5-1.6 9.3 0 20.8 1.2 27.2 1.2 6.3 7.3 12.2 10 13.5 2.5 1.3 3.8 2.8 5 4.8q1.1 1.6 1.6 3.3c0.6 0.7 4.5 5.3 11.2 5 7.2-0.3 13.4-5.2 12.4-13.1-0.3-2.5 0.4-8-8.3-21.9-9.6-15.2-13.8-26.9-14.1-37.3-0.2-9.9 3.6-17.3 7.1-20.2 3.2-2.6 9.8-3.3 15.9-0.5 4.1 1.8 8.7 6 10 18.6 0 0 3.8 3.3 4.3 8.1 0.6 3.7 0 6.9 1 10 1 3.1 3.8 9.2 3.3 11.1 0 0-3-3.1-4.5-3.8-1.6-0.7-6.4-1.7-9.3-7-2.9-5.5-2.9-6.1-2.9-7.6 0-1.7-1.2-6.2 0.8-12 0.5-1.8-0.5-8.1-2.7-10.1-2.1-2-5.4-3.8-9.9-2.5-3.1 0.8-7 6.9-6.3 15.6 0.8 10.3 5.1 20.3 9.9 27.9 4.7 7.7 13.6 18.8 13 31.5-0.5 12.1-6.3 15.5-10.7 18.4-4.4 3-15.5 2.3-19.8-1.2-0.2 1.4-0.6 2.5-1 3.3-1.4 2.6 2.8 9.9 3.4 12.1 1.4 4.2 11.5 9.6 12.8 9.9 4.6 1.2 2.5 1.5 1.7 7.7-1 6.1 2.2 16.9 2.2 16.9 1.9 0.3 0.6 3.1 0.6 3.1 0 0 0 0 1 1.4 1 1.3 0.5 4.4-0.7 5.4-1.3 0.9-3.5 0.9-4.4 1.5-1 0.7-3.4 2.4-5.2 2.8-2.5 0.7-3.8-0.8-5.6-0.5-2 0.2-4 0.9-4.8 0.9-1 0-3.7-0.7-3.7-0.7-1.5 1-1.8 2.3-1.8 2.3-2.2-1.6-2.2-3.8-2.2-3.8-0.9 0-1.3-2.3-1.3-2.3-1.3 0.7-1 3.6-1 3.6-5.8-4.3-1.8-7.9-1.8-7.9-1.4-2.4 1.5-5.2 4.1-6.5 2.5-1.3 3.8 0 6 0.7 2.3 0.6 4.5 0.3 4.5 0 0-0.3 0-0.3 0.3-8.3 0.4-8-4.4-10-8-11.3-3.5-1.2-12.7-4.3-15.9-6-7.5-3.8-11-10.8-12.7-15.6q-0.5-1.3-0.9-2.6 0.3 1 0.5 1.7c0 0-14.7 2.6-18.3 6.1-3.7 3.5-4.9 4.8-5.2 9.1-0.3 2 0.1 3.5 0.4 5.7 0.4 3.3-0.1 4.5-2.5 7.4-2.4 3.1-3.8 5.9-4.5 10.4-0.2 1.2-1.3 5.5-1.2 7.1 0.2 1.5-0.4 2.1-0.4 2.1 0 0-1.4-0.3-1.4-1.3 0 0-0.8 2.4-8.2 2.1-7.4-0.3-8.4-1.2-9.5-1.2-1.2 0-6.1-1.2-6.9-2.4 0 0-2.6-0.9-2.8 1.1 0 0-3.6-4.4 0-6.2 0 0-3.1 0-2.7 2.2 0 0-3.7-1.9 0.7-7.1 0 0 1.7-4.1 4.8-4.1 2 0 4.2 2.4 8 4.2 2.4 1.3 5.8 0 6.1-0.5 0.7-1 1.1-8.5 1.2-9.5 0.3-5.7 0.9-5.7 1.4-11.4 0.2-1.1-1.4-3.5-2.1-10.1-0.8-7.8 2.4-13.1 3.5-15.2 2.6-4.9 13.3-8.9 23-9.4 10.8-0.7 11-0.5 11-0.5 0 0 0.9 2.7 1.6 5.6-0.4-1.5-0.7-2.9-1.1-4-2.5-7.3-4.6-11.1-16.7-21.3-7.1-5.7-13.4-19-13.4-19 7.8 0 12.7-2 13.5-2.3q0 0 0-0.1c0 0-5.1 2.3-13.6 2.3-8.6 0-18.2-0.3-21 0.7-4 1.1-3.7 3.1-4.9 3-1.9-0.3-0.7-3.6-1.9-2.9-7.6 4.3-9 0.6-11.8-1.8-3-2.5-4-5.8-4.3-8.2-0.7-0.8-1.9-0.9-1.9-0.9-0.3-0.6 1.8-2 1.8-2 0 0.7 0 1.5 0.1 2.1-0.1-1.5 0.1-2.5 0.1-2.5l4.2-9.9c-0.1-0.3-0.3-0.7-0.4-1.1-0.3-0.5-1-1.3-2.1-1.3-0.9-0.1 2.1-0.8 3.3-1 2.3-1.8 6.2-2.1 7.8 3.1 0.7 2 1.4 7.9 6 9.2 3.1 0.8 13.7-2.8 13.7-2.8 0.7-0.2 1.6-0.5 2.6-1.1-0.6-2-5.7-19.7-8.4-22.7-2.9-3.3-5.2-2.7-5.3-3.3-0.6-1.8 2.9-2.2 1.7-2.8-8.1-3.9-8.5-14.6-8.5-14.6 0.4 0.1 0.7 0 1-0.3-0.6 0.5-1 0.3-1 0.3 0-0.7-0.5-1.7-0.5-1.7 0.1-0.6 2.6-0.1 2.6-0.1 0.2-0.1 0.6-0.2 1.1-0.2 0.1-0.2 0.3-0.6 0.5-1.4 0.3-1.1-0.6-2-0.6-2-0.1-0.4 3.5 0.2 3.5 0.2 0 0 0.7-0.2 1.7-0.1l-0.4-0.2 0.3-1 1.2-1c-0.9 0.5-1.2 0.7-1.2 0.7 0-0.5-1.1-1.8-1.1-1.8 0-0.5 3.1 0.3 3.7 0.4 0.7-0.2 1.8-0.4 2.9 0-0.3-0.5-1.2-2-0.7-2.1 0.6-0.1 2.3 0.3 2.7 0.4 0.4-0.1 0.9 0 1.5 0.2 2.8 1.3 7.3 4.5 6.5 10.3-1.3 8-5.5 5-4.8 9.8 0.5 3.1 11.8 15.2 12.8 16.4q0.5-0.5 0.8-0.9c7.9-9 17.8-12 17.8-12-2.3 0.2-2.8-0.5-4.1-0.5-1.3 0-0.3 0.5-4 0.5-3.3 0-2.3-3.5-2.3-3.5 0 0 0.5-1-0.5-3.2-1.5-4 0-4.4 1.7-4.4 1.6 0 3.7 1.8 5.1 1.8 1.5 0 2.5 0.7 4.5-0.8 0.4-0.4 0.9-0.8 1.3-1.3-0.1-0.1-0.4-0.4-2.6-1.1-3.9-1.1-6.3-0.4-7.9-0.3-1.6 0.3-5 0.6-7.3 0.7-2.1 0.2-4.5 0-6-4.8-2-6 2.4-8.8 2.4-8.8-1.6 3.8 0 7.4 0.8 9 1.7 3.5 9.6 1 13.8 1.3 6.1 0.2 7.3 1.4 7.3 1.4 0.5 0.8-0.1 2-0.4 2.4 1-1.3 1.3-3-1.4-5.3-3.7-2.8-4.2-0.2-9.6-1.2-5.5-1-2.2-10.3-2.2-10.3-1-0.1-0.7-2.3-0.7-2.3 0 0 0.9-0.2 3.2-0.5 2.2-0.3 9.6-2.8 9.6-2.8 0 0-1.9-2.1 6-3.4 7.9-1.3 6.9-1.1 6.9-1.1 0 0 1.6-5.4 5.1-5.2 3.2 0.4 6.7 4.5 6.5 9.3 0 0 1.1 1.8 2.4 3zm-21.3 63.5l0.1 0.2c0.7 0.2 1.4 0.5 2 0.7-12.9-4.5-10.8-18.1-10.8-18.1 0 0-2.3 11.7 8.6 17.2h0.1c1.8 5.8 3.1 14.4-5.1 16.8 8.3-2.4 7.1-11 5.1-16.8zm-14.9-6.9c-0.7-1-1.4-2.5-1.1-4.2 0.4-1.8-0.2-5.5-0.2-5.5 0.1 1 0.2 2.1 0.2 3.3 0 0.7 0 1.3-0.1 1.8q-0.1 0.4-0.1 0.8c-0.1 1.6 0.6 2.9 1.1 3.8 0.7 1 4.1 2.6 5.2 3-0.9-0.4-4.5-2-5-3zm-5.8-6q0 0.2-0.1 0.4c-0.3 2.5-0.3 5.4 1.2 6.3-1.5-1-1.4-4.1-1.1-6.7zm-4.9 0q-0.2 0.5-0.4 1c-0.5 2.7-0.4 3.3 0.2 5.2q0 0 0.2-0.1c-0.9-2-0.9-2.5 0-6.1zm-17.1-41.2l0.3-0.7c-0.2 0.3-0.3 0.5-0.3 0.7q0 0 0 0zm14.2 39.6c-3.3 5-3.3 9-3.3 9.3q0 0 0 0c0.6-4.1 1.9-7.1 3.3-9.3zm3.2 0.4q0.2-0.7 0.5-1.3-0.2 0.5-0.4 0.9 0 0.2-0.1 0.4zm2.5-3.9c0 0-1.1 0.8-2 2.6 0.8-1.3 2-2.6 2-2.6zm-2.8 5.1q0 0 0 0 0.1-0.5 0.3-1.2 0 0.1 0 0.1-0.1 0.4-0.3 0.8 0 0.1 0 0.3zm4.9 0c0.3-1 0.5-2.2 0.9-4q-0.2 0.5-0.3 1c-0.2 0.7-0.4 1.8-0.6 3zm42.6 15.3c-2.8-8.1-0.6-16.7-0.6-16.7-1.3 4.6-0.9 9.4-0.3 13.9 0.1 0.8 0.5 1.7 0.9 2.8zm2.7 5.1q0.4 0.5 0.8 0.9c-0.8-1.3-2.4-3.8-3.5-6 0.7 1.7 1.5 3.5 2.7 5.1zm-67.4-61.5c6.2 3 6.1 7.3 5.5 9.5 0.8-2.7 0.6-6.3-4.9-9.4q-0.3-0.1-0.5-0.2zm5.4 9.5q-0.2 0.8-0.5 1.5c0 0 0.3-0.6 0.5-1.5zm-9.8-6.4c5.4 0.3 5.6 6.5 5.4 9 0.6-8.2-4-9.4-6.5-9.4zm5.4 8.9q0 0.5-0.1 1c0 0 0.1-0.3 0.1-1zm-11.8-6q0.5-0.1 0.9 0-0.4-0.1-0.8-0.1-0.1 0.1-0.1 0.1zm8.2 9.5q0.2 0.9 0.4 1.9c0 0-0.1-0.7-0.4-1.9zm-2.2-5.6c-1.2-2.1-2.8-3.8-5.1-3.9 1.5 0.1 3.4 1 5.1 3.9zm0 0c1.1 1.9 1.8 4.1 2.2 5.6-0.6-2.4-1.4-4.2-2.2-5.6zm5.1-10.8c0.4-0.2 0.7-0.8 1.4-1-0.6 0-1 0.5-1.4 1zm46.9 117.3q0.1 0.3 0.1 0.6 0-0.5-0.1-1.1-0.2-1-0.4-2c0.2 0.9 0.3 1.7 0.4 2.5zm1.8 6.9c-0.7-2.6-1.3-5.1-1.8-7.4 0.3 1.5 1 4.5 1.6 6.8q0.1 0.3 0.2 0.6zm-75.7-74.9c-0.4-1.4-2.2-1.6-2.2-1.6 1.5-1.1 4.2-0.3 4.2-0.3-2.1 0.3-2 1.9-2 1.9zm-2.4 4.8c-0.3-1-1.5-1.2-1.5-1.2-0.2-0.5 3.5-1.2 3.5-1.2-1.8 1.2-2 2.4-2 2.4zm5.1-9.7c-0.7 0.5-0.8 1.1-0.7 1.6 0-0.5 0.1-1 0.7-1.6zm-57.4 238.8c11.8 0 21.3 9.5 21.3 21.2 0 11.7-9.5 21.2-21.3 21.2-11.7 0-21.2-9.5-21.2-21.2 0-11.7 9.5-21.2 21.2-21.2z"/>
</svg>