<svg version="1.2" xmlns="http://www.w3.org/2000/svg" viewBox="0 0 226 316" width="226" height="316">
	<title>Sapareva-Banya-pdf</title>
	<style>
		.s0 { fill: #00adef;stroke: #00adef;stroke-width: .4 } 
	</style>
	<path id="Path 1" fill-rule="evenodd" class="s0" d="m1.6 203.3v-203.1h223.5v203.1c0 61.7-50 111.9-111.8 111.9-61.7 0-111.7-50.2-111.7-111.9zm111.7 109.1c59.5 0 107.9-49.2 107.9-109.8v-199.5h-215.7v199.5c0 60.6 48.4 109.8 107.8 109.8zm-63.9-220.6c0-55.4 39-51.8 53.7-31.9-6.3-19.5-10.2-25.4-36.9-25.1-20.7 0.1-31.9 24.9-28.8 67v96.7h-8.3l-0.6-114.6c0-40.5 22.6-74.4 69.1-49.7-21-24.3-48.2-20-64.2-2.7-9.5 10.2-11.1 40.2-11.5 52.1v116.1h-8.2v-105.3c0-34 5.9-66.5 25.3-77.3 24.9-14 62.5-7.5 72.9 35.4 25.9-34.4 98.1-26.1 98.1 19.2v88.5h5.9v4.6c-1.1 14.4-7.4 27.4-19.8 34.6l-0.3 5c-4.3 49-46.6 76.5-90.1 72.6-39.6-3.5-70.4-33.7-72.6-76.9h16.3zm-11.7 159.7l1.8-0.3 0.5 0.7-5.6 3.9-0.6-0.8c1.5-1.3 2.5-2.6 2.8-3.9 0.3-1.3 0.1-2.5-0.6-3.5-0.7-1-1.7-1.6-3.3-1.6-1.5 0-3.3 0.6-5.5 2-2.3 1.6-3.7 3.1-4.5 4.6-0.4 1.2-0.2 2.4 0.5 3.6 0.8 1.2 2 1.9 3.3 2.2 1.1 0.2 2.3 0 3.7-0.6l0.6 0.9c-1.7 0.9-3.4 1-5 0.6-1.6-0.5-2.9-1.3-3.9-2.9-1.3-1.9-1.6-4-1.2-6.2 0.6-2.2 1.9-4 4.1-5.3 2.3-1.6 4.7-2 7.2-1.5 2 0.5 3.6 1.6 4.7 3.3q0.7 1.1 0.9 2.2c0.1 0.7 0.1 1.6 0.1 2.6zm8.8 7.5l-7 14.8c-0.2 0.4-0.3 0.7-0.2 1 0 0.3 0.2 0.6 0.3 0.9l0.4 0.4-0.7 0.7-5.3-5.9 0.7-0.7 0.6 0.6c0.4 0.4 0.7 0.7 1 0.7 0.1 0.2 0.4 0 0.6-0.1 0.1 0 0.1-0.2 0.2-0.5l1.5-3-4.2-4.7-1.4 0.5c-0.7 0.2-1 0.5-1.3 0.6-0.5 0.3-0.6 0.7-0.6 1.2 0 0.5 0.3 1 0.7 1.4l0.3 0.4-0.7 0.8-4.3-4.8 0.8-0.7 0.2 0.3c0.3 0.3 0.7 0.4 1 0.5 0.6 0 1.1 0 1.7-0.2l14.8-5.1zm-4.4 1.6l-6.5 2.2 3.6 4zm17.9 11.8l-5.1-3.9-8.3 11c-0.3 0.4-0.3 0.8 0.1 1.1l1 0.9-0.6 0.8-6.3-4.7 0.6-0.9 1.1 0.9c0.5 0.3 0.9 0.1 1.2-0.3l7.8-10.2c0.4-0.6 0.3-1-0.3-1.5l-0.9-0.7 0.7-0.8 14.3 10.8-0.7 0.8-0.8-0.5c-0.5-0.5-1.1-0.5-1.4 0l-7.8 10.2c-0.4 0.5-0.3 1 0.2 1.4l1 0.7-0.7 0.9-6.2-4.8 0.5-0.8 1.1 0.7c0.4 0.4 0.8 0.3 1.3-0.1zm13.1 5.4l-1.2 16.4c0 0.5 0 0.9 0.1 1.1 0.2 0.2 0.3 0.4 0.6 0.5l0.6 0.3-0.4 1-7.1-3.6 0.4-1 0.8 0.4c0.4 0.3 0.8 0.3 1.1 0.3 0.3 0 0.4-0.1 0.4-0.3 0.2-0.1 0.2-0.2 0.2-0.5l0.3-3.3-5.6-2.9-1.2 1c-0.4 0.4-0.9 0.7-1 1q-0.2 0.6 0 1.3c0.1 0.4 0.6 0.7 1.2 1l0.4 0.3-0.4 1-5.8-3 0.4-0.9 0.5 0.2c0.3 0.1 0.7 0.2 1.1 0.1 0.6-0.1 1-0.4 1.5-0.7l12-10.2zm-3.4 3l-5.3 4.4 4.7 2.5zm9.7 0.4l9.5 2.8c1.7 0.4 2.8 1.3 3.6 2.4 0.7 1.2 0.8 2.3 0.5 3.6-0.2 1-0.8 1.7-1.5 2.3-0.9 0.4-1.8 0.7-2.8 0.9-1 0-2-0.2-3-0.3l-3-0.9-1.5 5.2c-0.1 0.3-0.1 0.6 0 0.7 0.2 0.3 0.3 0.5 0.6 0.5l1.9 0.5-0.3 1-8.6-2.4 0.2-1 1.5 0.4q0.4 0 0.8 0c0.2-0.1 0.3-0.4 0.5-0.7l3.4-12.4c0.2-0.1 0.2-0.4 0-0.7-0.1-0.2-0.3-0.3-0.5-0.4l-1.6-0.5zm3.6 9.8l2 0.6c0.7 0.1 1.4 0.1 2 0 0.6-0.1 1.2-0.4 1.5-0.7 0.4-0.5 0.7-1 1-2 0.4-1.3 0.2-2.3-0.3-3.1-0.5-0.5-1.3-1-2.5-1.4-0.7-0.1-1.3-0.3-1.4-0.1-0.3 0-0.4 0.2-0.4 0.5zm10.9-5.4l14.5 1.8-0.4 5.9-1-0.1c0-1.4-0.1-2.5-0.4-3.2-0.3-0.5-0.7-1.1-1.3-1.4-0.5-0.4-1.2-0.7-2.2-0.7l-2.3-0.3c-0.3-0.2-0.6 0-0.7 0-0.2 0.1-0.3 0.4-0.3 0.6l-0.7 5.9h0.7q1.3 0.2 2.2-0.5c0.5-0.4 1-1.3 1.3-2.4l1 0.1-1 7.8-1.1-0.1c0-1.3-0.1-2.2-0.5-2.8-0.5-0.6-1.2-1-2.2-1.1h-0.6l-0.7 6.2c-0.1 0.2 0 0.4 0.2 0.5 0.1 0.2 0.5 0.3 1 0.5l2 0.1c1.3 0.3 2.6-0.1 3.4-0.9 1.1-0.7 1.8-2 2.2-3.7l1 0.1-1 6.4-15.3-1.9 0.2-1.1 1.6 0.2c0.3 0 0.5 0 0.7-0.2 0.3-0.2 0.4-0.3 0.4-0.6l1.6-13c0-0.3 0-0.4-0.3-0.6-0.1-0.1-0.4-0.2-0.8-0.2l-1.3-0.2zm15.8 1.9l10.2-0.3c1.6-0.1 2.9 0.3 3.8 1 1 0.7 1.4 1.6 1.4 2.7 0.1 1.1-0.3 1.9-1 2.6-0.6 0.8-1.7 1.3-3.2 1.8 2 0.1 3.3 0.7 4.2 1.4 0.9 0.6 1.3 1.6 1.3 2.6 0 1-0.1 1.9-0.7 2.6-0.5 0.6-1.2 1-2.2 1.4-1 0.5-2.1 0.7-3.6 0.7l-9.6 0.3v-1h1.4c0.3 0 0.6-0.1 0.7-0.3 0.2-0.2 0.2-0.5 0.2-0.8l-0.5-13c0-0.3-0.1-0.4-0.2-0.6-0.2-0.1-0.5-0.1-0.9-0.1l-1.3 0.1zm6.3 7.5l1.9-0.1c1.3 0 2.2-0.3 2.7-0.9 0.6-0.6 0.9-1.4 0.8-2.7 0-1.2-0.3-1.9-0.9-2.3-0.6-0.5-1.6-0.7-3-0.6-0.7 0-1.3 0-1.5 0.1-0.1 0.2-0.3 0.5-0.3 0.8zm0 1l0.2 6.2c0 0.3 0.1 0.5 0.3 0.7 0.1 0.1 0.3 0.1 0.6 0.1h2.1c1.2 0 1.9-0.4 2.5-1 0.7-0.6 0.8-1.4 0.8-2.6 0-1.1-0.4-2.1-1-2.7-0.7-0.6-1.7-0.9-2.9-0.9zm17.5-11.2l9.5 13.2c0.2 0.5 0.5 0.8 0.8 0.8 0.2 0.1 0.5 0.1 0.9 0.1l0.6-0.1 0.3 1-7.8 1.7-0.3-1 0.7-0.1c0.6-0.2 1-0.3 1.2-0.5 0.1-0.3 0.2-0.4 0.2-0.6-0.1-0.2-0.1-0.4-0.2-0.5l-2.1-2.8-6.1 1.5-0.3 1.4c0 0.7-0.2 1.2 0 1.5 0.1 0.4 0.4 0.8 0.8 1 0.5 0.2 0.9 0.2 1.5 0.1l0.5-0.1 0.3 1-6.3 1.4-0.1-1 0.2-0.1c0.5 0 0.8-0.3 1-0.6 0.3-0.5 0.6-1 0.8-1.6l2.6-15.4zm-0.9 4.6l-1.2 6.8 5.2-1.2zm22.1-3.2l1.7-0.8c2.6-1.5 4.7-2 6.3-1.8 1.5 0.2 2.6 0.9 3.2 2.2 0.9 1.5 0.9 2.9 0.1 4-0.8 1.2-2.1 2.2-3.9 3.2l-8.6 4.3-0.4-0.8 1.3-0.8c0.3-0.1 0.4-0.2 0.4-0.5 0.1-0.3 0-0.6-0.1-0.7l-5.9-11.7c-0.2-0.4-0.6-0.4-1.3-0.2l-1.2 0.6-0.4-0.8 13.1-6.8 2.7 5-0.8 0.5c-0.5-0.8-1.1-1.3-1.8-1.9-0.6-0.6-1.3-0.9-1.9-0.9-0.5-0.1-1.4 0.2-2.3 0.6l-2.3 1.1c-0.5 0.3-0.7 0.8-0.5 1.3zm0.4 0.9l2.9 5.8c0.3 0.5 0.7 0.7 1.1 0.4l1.9-1c0.9-0.4 1.5-1 1.9-1.7 0.3-0.9 0.3-1.8-0.3-2.9q-1.7-3.5-5.2-1.7zm12.4-17.3l13.8 8.8c0.5 0.3 0.7 0.4 1 0.4 0.3 0 0.6-0.1 0.9-0.3l0.4-0.4 0.6 0.8-6.5 4.7-0.6-0.9 0.6-0.4q0.9-0.5 0.9-0.9c0.1-0.3 0.1-0.4 0-0.6q0-0.2-0.5-0.4l-2.8-1.9-5.2 3.8 0.4 1.4c0 0.6 0.3 1.1 0.4 1.3 0.3 0.4 0.6 0.7 1.2 0.7 0.4 0 0.9-0.1 1.4-0.6l0.5-0.3 0.5 0.9-5.1 3.8-0.6-0.9 0.3-0.3c0.3-0.1 0.4-0.4 0.5-0.9 0.2-0.5 0.2-1.1 0.2-1.7l-3.5-15.3zm0.9 4.6l1.6 6.8 4.3-3zm5.2-7.9l5.5-5.6 0.7 0.7-0.7 0.8c-0.3 0.3-0.3 0.5-0.5 0.8 0 0.1 0.2 0.4 0.3 0.5l4 3.9 4.5-4.6-3.7-3.7q-0.5-0.5-0.9-0.5c-0.1 0-0.4 0.3-0.7 0.6l-0.7 0.6-0.8-0.7 5.5-5.6 0.7 0.7-0.7 0.8c-0.3 0.3-0.4 0.5-0.4 0.8 0 0.3 0.1 0.4 0.3 0.7l9.2 8.8c0.3 0.3 0.6 0.4 0.7 0.4 0.3 0 0.6-0.1 0.7-0.4l0.9-0.7 0.7 0.7-5.5 5.6-0.7-0.7 0.9-0.9c0.1-0.3 0.3-0.4 0.3-0.7 0-0.2-0.2-0.5-0.5-0.6l-4.3-4.3-4.4 4.6 4.3 4.3c0.3 0.2 0.4 0.3 0.7 0.3 0.1 0 0.4 0 0.6-0.1l0.8-1.1 0.9 0.8-5.5 5.6-0.7-0.7 0.9-0.9c0.1-0.3 0.3-0.4 0.3-0.7-0.2-0.2-0.2-0.4-0.5-0.6l-9.2-8.9c-0.3-0.3-0.6-0.3-0.7-0.3q-0.4 0-0.9 0.4l-0.5 0.7zm21.4-26.3l0.9 0.6-0.7 1.1c-0.3 0.6-0.3 1 0.2 1.3l10.8 7.1c0.5 0.3 1.1 0.1 1.3-0.5l0.8-1 1 0.6-4.8 7.1-0.9-0.6 0.9-1.2c0.2-0.3 0.2-0.5 0.2-0.8 0-0.3-0.2-0.5-0.5-0.6l-4.9-3.2-0.7 1c-0.4 0.8-0.6 1.3-0.3 2 0.3 0.6 1 1.5 2 2.6 0.9 0.9 1.5 1.6 1.8 2.1 0.3 0.4 0.4 0.8 0.4 1.4 0 0.4-0.1 1-0.6 1.6-0.6 0.8-1.1 1.4-2 1.6-0.9 0-1.9-0.3-3.2-0.9l0.6-0.9c0.4 0.2 0.7 0.5 1.3 0.5 0.4 0.1 0.7 0.1 0.9-0.2 0.3-0.3 0-0.8-0.7-1.9-0.9-0.8-1.3-1.5-1.8-2.1-0.3-0.6-0.4-1.3-0.4-1.9 0-0.7 0.1-1.4 0.6-2.3-2.3 3-4.5 3.8-6.7 2.3-1.2-0.7-1.8-1.9-1.8-3.1 0.1-1.5 0.6-2.9 1.6-4.4zm3.4 9.4l-4.7-3.2c-0.5-0.3-0.8-0.3-1-0.3-0.3 0.2-0.6 0.5-0.9 1-0.7 1-1 1.9-0.9 2.8 0 0.7 0.6 1.4 1.6 2.1 1.3 0.8 2.3 1 3 0.6 0.9-0.4 1.6-1 2.2-1.9zm-29.1-141.4c0.1-17.4 4.8-41.6-14-48.8-20.1-7.6-41.4 3.2-39.7 19.2h3.4v81.8h50.2zm-50.3 75v16.5h15.1c-6.2-3.8-11.1-9.6-15.1-16.5zm-61.5-104.4h42.8c-0.4-33.7-43.6-32.6-42.8 0zm22.3 89v-56.6c-10.2-2-18-8.2-23.1-16.7v104.9c15.5-3 22.6-21 23.1-31.6zm123 64.5c1.6 0 2.9 1.3 2.9 2.9 0 1.5-1.3 3-2.9 3-1.7 0-3-1.5-3-3 0-1.6 1.3-2.9 3-2.9zm1.4-150.2c0-25.4-10.9-41.2-38.5-42.6 19.4 6 28.9 11.5 28.9 51.8v69h9.6zm-15.4 18.7c2.8-47.9-18-70.1-67.6-46.8 39.4-8.9 52.5-4 53.4 38.2v68.1h14.2zm-167.6 131.5c1.6 0 3 1.3 3 2.8 0 1.6-1.4 3.1-3 3.1-1.6 0-2.8-1.5-2.8-3.1 0-1.5 1.2-2.8 2.8-2.8z"/>
</svg>