<svg version="1.2" xmlns="http://www.w3.org/2000/svg" viewBox="0 0 360 524" width="360" height="524">
	<title>Elhovo-pdf</title>
	<style>
		.s0 { fill: #cfc500;stroke: #fff200;stroke-width: 12.3 } 
		.s1 { fill: #00a650 } 
		.s2 { fill: #231f20 } 
		.s3 { fill: #fff200 } 
		.s4 { fill: #0b8ed8;stroke: #0b8ed8;stroke-width: 2.4 } 
	</style>
	<path id="Path 1" class="s0" d="m25 6.1h309.9c0 0 0 19.9 0 45.5 0 24.3 18.5 27 18.5 27l-6.2 284.7c0 22.4 3.4 62.3-45.5 86.4-51.8 25.6-118.1 64.9-118.1 64.9l-4.2 2.2-3.5-2.2c0 0-66.2-39.3-118-64.9-54.6-26.8-45.5-64-45.5-86.4 0 0-6.2-276.2-6.2-284.7 19.1-5.6 18.5-27 18.5-27v-45.5z"/>
	<path id="Path 2" class="s1" d="m88.7 454.4v-371.2h105.8c0 0-35.5 4.7-49.4 33.2-13.9 28.6-7 47.1-10.8 65.6-3.9 18.5-11.6 40.9-17.8 49.4-6.2 8.5-11.6 17-11.6 20.8 0 3.9 4.9 7.3 12.6 7.3 7.7 0 15.5 0.4 15.2 8.2-0.3 8.8-4.3 8.3-9 9-4.6 0.8-4.9 4.8-4.9 7.2 0 2.3 1.8 3.1 8.3 3.1 6.4 0 15.6-0.6 15.4 3-0.2 4.2-2.1 5.8-7 5.8-4.9 0-10.5 0-10.5 0-4.2 0.6-6.5 0.3-6.5 6 0 5.2 12 6.4 10.2 13.8-1.8 7.5-6 20.7-6 29.2 0 8.5 3.1 16.2 17 16.2 13.9 0 40.1 0 40.1 0v141.2z"/>
	<path id="Path 3" fill-rule="evenodd" class="s2" d="m63.2 28.9h28.4v4.8h-23.1v12.3h21.6v4.7h-21.6v13.8h24v4.8h-29.3zm43.8 4.7v24.7q0 6.5-1.7 9.1-1.8 2.5-6 2.5h-2.3v-4.8h0.7q2.5 0 3.3-1.2 0.7-1.3 0.6-5.5v-29.5h26.8v40.3h-5.4v-35.6zm42.6 14.6l-13.7-19.3h6.1l7.1 10.3q1.9 2.7 3.1 5 1.3-2.2 3.1-4.7l7.9-10.6h5.6l-14.1 19 15.2 21.3h-6.5l-9.8-14.3q-0.8-1.4-1.6-2.8h-0.1q-0.8 1.6-1.9 3.2l-9.7 13.9h-6.2zm21.7 1.4q0.1-10.5 5.4-15.6 5.1-5.6 13.3-5.7 8 0 13.4 5.7 5.3 5.6 5.3 15.2-0.1 10-5.3 15.3-5.3 5.3-13.4 5.4-2.3-0.1-4.4-0.6-2.1-0.5-3.9-1.3-3.5-1.8-5.7-4.5-4.5-4.9-4.7-13.9zm5.5 0.1q0 3.9 1 6.7 1 2.8 2.8 4.8 3.7 4.1 9.4 4.1 5.8 0 9.6-4.2 1.8-1.9 2.8-4.8 0.9-2.8 0.9-7.1 0-4.3-0.9-7.1-1-2.9-2.7-4.8-3.5-4.3-9.6-4.4-6.5 0-10.6 5.4-0.9 1.2-1.4 2.8-0.5 1.7-0.9 3.3-0.4 3.4-0.4 5.3zm39.7-20.8h14.7q7.1 0 9.9 3 1.5 1.6 2.3 3.5 0.7 2 0.7 3.7 0 0.6 0 1.6-0.2 1-0.7 2.2-0.5 1.2-1.6 2.5-1.1 1.3-3 2.3 2.3 0.7 3.7 1.8 1.5 1.1 2.2 2.5 1.4 3 1.4 5.4-0.1 3.5-1.7 6.3-1.7 2.9-4.5 4.1-2.5 1-4.6 1.2-2.1 0.2-3.8 0.2h-15zm5.3 16.9h8.4q1.9 0.1 3.6-0.1 1.5-0.2 2.8-1 1-0.6 1.8-1.8 0.7-1.2 0.7-3-0.1-2-0.7-3.1-0.6-1.2-1.3-1.7-1.3-1.1-3.5-1.3-2.1-0.1-4-0.1h-7.8zm0 18.7h9.6q3.8 0.1 6.3-1.3 1.3-0.8 2.1-2.3 0.8-1.6 0.8-3.5 0-1.8-0.7-3.1-0.6-1.2-1.6-2-1.2-1.1-3.4-1.5-2.2-0.3-4.1-0.3h-9zm30.8-14.9q0.1-10.5 5.4-15.6 5.1-5.6 13.3-5.7 8 0 13.4 5.7 5.3 5.6 5.3 15.2-0.1 10-5.3 15.3-5.3 5.3-13.4 5.4-2.3-0.1-4.4-0.6-2.1-0.5-3.9-1.3-3.5-1.8-5.7-4.5-4.5-4.9-4.7-13.9zm5.5 0.1q0 3.9 1 6.7 1 2.8 2.8 4.8 3.7 4.1 9.4 4.1 5.8 0 9.6-4.2 1.8-1.9 2.7-4.8 0.9-2.8 0.9-7.1 0-4.3-0.9-7.1-0.9-2.9-2.6-4.8-3.5-4.3-9.6-4.4-6.5 0-10.6 5.4-0.9 1.2-1.4 2.8-0.5 1.7-0.9 3.3-0.5 3.4-0.4 5.3z"/>
	<path id="Path 4" class="s3" d="m213.5 83.4h20.6v102.7c0 0-2.1 26.8 12.3 38.1 14.4 11.3 24.7 14.4 24.7 14.4v64.8c0 0-7.2-7.2-18.5-11.3-8.9-3.3-24.9-12.1-28.8-15.4-7.7-6.7-10.3-15.5-10.3-15.5zm120.9 177.9c0 0-2.6 8.7-10.3 15.4-3.9 3.4-19.9 12.2-28.8 15.4-11.3 4.1-18.5 11.3-18.5 11.3v-64.8c0 0 10.2-3.1 24.7-14.4 14.4-11.3 12.3-38 12.3-38v-102.8h20.6zm-80.9-67.6c8-9.7 10-29.3 10-29.3v-81.1h18.6c0 0 0 47.1 0 81.1 0 33.9 23.9 41.6 23.9 41.6l-30.9 29.3-33.9-28.5c0 0 5.4-4.6 12.3-13.1z"/>
	<path id="Path 5" class="s2" d="m156.6 181.2c0 0 13.9 2.3 22.4 6.2 8.5 3.9 16.2 7 16.2 7l-16.9 2.3c0 0-0.8 7.2-9.3 7.7-12.4 0.8-9.3-15.4-9.3-15.4z"/>
	<path id="Path 6" class="s3" d="m255.8 83.2c0 0 0.8 50.2 0 74.9-0.7 24.7-14.6 36.3-14.6 36.3v-111.2zm48.1 0v111.2c0 0-13.8-11.6-14.6-36.3-0.8-24.7 0-74.9 0-74.9zm-89.1 194.5c0 0 14.3 12.3 31.2 20 9.6 4.4 26.3 14.7 26.3 14.7v63.3c0 0-11.6-8.5-19.3-11.6-7.7-3.1-15.5-6.2-27.8-17-10.7-9.3-10.4-18.5-10.4-18.5zm120 50.9c0 0 0.3 9.2-10.5 18.6-12.3 10.8-20 13.9-27.7 16.9-7.8 3.1-19.3 11.6-19.3 11.6v-63.3c0 0 16.7-10.3 26.2-14.6 17-7.7 31.3-20.1 31.3-20.1zm-120 21.6c0 0 14.3 12.4 31.2 20.1 9.6 4.3 26.3 14.6 26.3 14.6v67.9c0 0-9.6-5.7-20.9-11.5-7.3-3.9-14.2-7.5-26.2-21.6-9.2-10.9-10.4-18.6-10.4-18.6zm120 41.7c0 0-1.8 18.2-13 28.3-12.2 10.9-14.8 11.4-25.2 17.6-7.2 4.2-19 9-19 9l-0.3-61.8c0 0 16.7-10.3 26.2-14.7 17-7.7 31.3-20.1 31.3-20.1zm-119.3 25.5c0 0 12.6 16.3 25.9 26.2 14.2 10.6 26 12.6 26 12.6l-51.9 27z"/>
	<path id="Path 7" class="s4" d="m71.6 240.2c-2.8 4.8-5.1 8.5-5.1 14.3 0 5.8 2.3 9.6 5.1 14.3 3.2 5.5 6.9 11.8 6.9 21.3 0 9.6-3.7 15.8-6.9 21.4-2.8 4.7-5.1 8.5-5.1 14.2 0 5.8 2.3 9.6 5.1 14.3 3.2 5.5 6.9 11.8 6.9 21.3 0 9.6-3.7 15.9-6.9 21.4-2.8 4.7-5.1 8.5-5.1 14.3 0 5.7 2.3 9.5 5.1 14.3 3.2 5.5 6.9 11.7 6.9 21.3 0 5.4-1.2 9.7-2.8 13.5l-11.9-7.7c0.5-1.7 0.8-3.6 0.8-5.8 0-5.8-2.2-9.6-5-14.3-3.2-5.5-6.9-11.8-6.9-21.3 0-9.6 3.7-15.8 6.9-21.4 2.8-4.7 5-8.5 5-14.3 0-5.7-2.2-9.5-5-14.2-3.2-5.6-6.9-11.8-6.9-21.4 0-9.5 3.7-15.8 6.9-21.3 2.8-4.7 5-8.5 5-14.3 0-5.8-2.2-9.5-5-14.3-3.2-5.5-6.9-11.7-6.9-21.3 0-9.5 3.7-15.8 6.9-21.3 2.8-4.8 5-8.5 5-14.3 0-5.8-2.2-9.5-5-14.3-3.2-5.5-6.9-11.8-6.9-21.3 0-9.6 3.7-15.8 6.9-21.3 2.8-4.8 5-8.5 5-14.3 0-5.8-2.2-9.6-5-14.3-3.2-5.5-6.9-11.8-6.9-21.3 0-9.6 3.7-15.8 6.9-21.4 1.6-2.7 3.1-5.1 4-7.8h14.3c-1.2 6.1-3.9 10.7-6.3 14.9-2.8 4.7-5.1 8.5-5.1 14.3 0 5.7 2.3 9.5 5.1 14.3 3.2 5.5 6.9 11.7 6.9 21.3 0 9.5-3.7 15.8-6.9 21.3-2.8 4.8-5.1 8.5-5.1 14.3 0 5.8 2.3 9.5 5.1 14.3 3.2 5.5 6.9 11.7 6.9 21.3 0 9.6-3.7 15.8-6.9 21.3z"/>
	<path id="Path 8" class="s4" d="m46.5 240.2c-2.8 4.8-5 8.5-5 14.3 0 5.8 2.2 9.6 5 14.3 3.2 5.5 6.9 11.8 6.9 21.3 0 9.6-3.7 15.8-6.9 21.4-2.8 4.7-5 8.5-5 14.2 0 5.8 2.2 9.6 5 14.3 3.2 5.5 6.9 11.8 6.9 21.3 0 9.6-3.7 15.9-6.9 21.4-2.8 4.7-5 8.5-5 14.3 0 5.7 2.2 9.5 5 14.3 3.2 5.5 6.9 11.7 6.9 21.3q0 0.4 0 0.7l-16.2-10.3c-0.8-1.5-1.7-3.1-2.7-4.7-3.2-5.5-6.9-11.8-6.9-21.3 0-9.6 3.7-15.8 6.9-21.4 2.8-4.7 5.1-8.5 5.1-14.3 0-5.7-2.3-9.5-5.1-14.2-3.2-5.6-6.9-11.8-6.9-21.4 0-9.5 3.7-15.8 6.9-21.3 2.8-4.7 5.1-8.5 5.1-14.3 0-5.8-2.3-9.5-5.1-14.3-3.2-5.5-6.9-11.7-6.9-21.3 0-9.5 3.7-15.8 6.9-21.3 2.8-4.8 5.1-8.5 5.1-14.3 0-5.8-2.3-9.5-5.1-14.3-3.2-5.5-6.9-11.8-6.9-21.3 0-9.6 3.7-15.8 6.9-21.3 2.8-4.8 5.1-8.5 5.1-14.3 0-5.8-2.3-9.6-5.1-14.3-3.2-5.5-6.9-11.8-6.9-21.3 0-9.6 3.7-15.8 6.9-21.4 1.7-2.7 3.1-5.1 4-7.8h14.3c-1.2 6.1-3.9 10.7-6.3 14.9-2.8 4.7-5 8.5-5 14.3 0 5.7 2.2 9.5 5 14.3 3.2 5.5 6.9 11.7 6.9 21.3 0 9.5-3.7 15.8-6.9 21.3-2.8 4.8-5 8.5-5 14.3 0 5.8 2.2 9.5 5 14.3 3.2 5.5 6.9 11.7 6.9 21.3 0 9.6-3.7 15.8-6.9 21.3z"/>
</svg>