<svg version="1.2" xmlns="http://www.w3.org/2000/svg" viewBox="0 0 400 546" width="400" height="546">
	<title>General-Toshevo-pdf</title>
	<style>
		.s0 { fill: #231f20 } 
		.s1 { fill: #fdd71c } 
		.s2 { fill: #36aee8;stroke: #36aee8;stroke-width: 2.3 } 
		.s3 { fill: #ffffff } 
		.s4 { fill: #231f20;stroke: #231f20;stroke-width: 2.3 } 
		.s5 { fill: #ed1c24 } 
	</style>
	<path id="Path 1" class="s0" d="m363.1 82.5l-324 2.5-22.5 0.7-15.2-49.5 108.5-32.8 19.3 30.3 140.9-1.4v0.1l18.3-29.7 109.7 30.8-13.6 48.9z"/>
	<path id="Path 2" fill-rule="evenodd" class="s0" d="m16.4 86l-0.1-0.2-15.2-49.8 0.2-0.1 108.8-32.8v0.2l19.3 30.2 140.7-1.4 18.2-29.7 0.1 0.1 110 30.8-0.1 0.2-13.6 49.1-21.6 0.1-324 2.6zm-14.8-49.7l15.1 49.2 22.3-0.7 324.1-2.5 21.2-0.2 13.5-48.5-109.4-30.7-18.5 30.3v-0.7l-140.8 1.4-0.1-0.1-19.2-30.1z"/>
	<path id="Path 3" class="s1" d="m27 111.6h347.8l2.4 218.8c-2.5 14-5.8 27.8-11.5 40.7-16.9 38-41 74.6-70.8 105.3-26 26.8-57.5 49.7-91.1 64.4-92.4-37.8-146.9-116.6-174.4-211.8z"/>
	<path id="Path 4" fill-rule="evenodd" class="s0" d="m203.8 543l-0.8-0.3c-85.9-35.2-144.9-106.9-175.6-213.2v-0.5l-2.4-219.4h351.9l2.3 221v0.2c-3.1 17.2-6.6 29.9-11.6 41.1-17.5 39.3-42.1 75.9-71.2 105.9-27.2 28-58.9 50.5-91.8 64.9zm-172.4-214.3c30.2 104.5 88.2 175.1 172.3 209.9 32.1-14.2 63.1-36.2 89.7-63.7 28.8-29.6 53.1-65.8 70.4-104.7 4.8-10.8 8.4-23.2 11.3-40l-2.3-216.5h-343.8z"/>
	<path id="Path 5" class="s1" d="m9.4 39.5l97.1-29c1.3 2.6 2.5 5.3 3.8 7.9q-28.7 9.3-57.5 18.7c-4.9 1.7-9.8 3.4-14.8 5-2.7 1.7-5.4 3.4-8.1 5.1-2.1 2.6-3.5 4.8-5 7.8-0.2 0.9-0.4 1.8-0.6 2.6-0.2 1.1-0.3 2.1-0.5 3.1v2.6c0.2 1.1 0.3 2.2 0.5 3.3q0.3 1.8 0.6 3.5l1.1 4.1 1.3 4.9 0.7 1.9-5.7 0.5z"/>
	<path id="Path 6" fill-rule="evenodd" class="s0" d="m22.1 81.7l-12.9-42.3 0.2-0.1 97.3-29 0.1 0.1q1.8 4 3.7 7.9l0.1 0.2-0.3 0.1-57.3 18.7-14.9 5.1-8 4.9c-2.1 2.7-3.5 4.8-5 7.9l-0.6 2.5-0.5 3 0.1 2.6 0.4 3.3 0.6 3.5 1.1 4.1 1.3 4.8 0.7 2.2zm-12.4-42l12.8 41.6 5.2-0.5-0.6-1.7-1.3-4.8-1.1-4.1-0.6-3.5-0.5-3.3v-2.6l0.5-3.1 0.6-2.7c1.5-3.1 3-5.3 5.1-7.9v-0.1l8.1-5 14.9-5.1 57.2-18.7q-1.8-3.6-3.5-7.4z"/>
	<path id="Path 7" class="s1" d="m377.3 79.2l-5.7-0.5 0.7-1.9 1.3-4.8 1.1-4.2 0.6-3.5 0.5-3.2v-2.7l-0.5-3-0.6-2.6-1.8-3.8-6.6-6.8c-1.2-1.3-3.1-1.7-4.7-2.3l-14.9-5.1-57.4-18.7 3.7-7.9 97.2 29z"/>
	<path id="Path 8" fill-rule="evenodd" class="s0" d="m377.4 79.4l-6.1-0.5 0.8-2.2 1.3-4.8 1.1-4.1 0.6-3.5 0.4-3.3v-2.6l-0.4-3-0.6-2.6-1.8-3.6-6.5-6.9c-1-1-2.5-1.5-3.9-2-0.3 0-0.5-0.1-0.8-0.2l-14.8-5-57.7-18.9 0.1-0.2 3.8-8h0.2l97.4 29.1-0.1 0.2zm-5.6-0.8l5.2 0.4 12.8-41.5-96.7-29-3.6 7.5 57.2 18.7 14.9 5q0.4 0.2 0.7 0.3c1.6 0.4 3.1 0.9 4.1 2.1l6.7 6.9 1.7 3.7 0.7 2.7 0.4 3v2.7l-0.4 3.3-0.7 3.5-1.1 4.1-1.3 4.8zm-333.1 7.7l-3.9-23.8 0.4-0.1 3.9 23.8z"/>
	<path id="Path 9" class="s1" d="m38.6 84.2l-3.7-21.8 37.3-8.3 29.5-5.4 24.6-3c49.6-5.7 99.1-4.5 148.7-1.1l29.6 3.5 21 4.1 20.6 4 19 4.4-2 21.6c-1.4 8.5-2.7 17-4 25.5-103.9-32.3-222.5-30.3-316 0.5z"/>
	<path id="Path 10" fill-rule="evenodd" class="s0" d="m41.6 110.9l-5-26.4-4-23.7 39.2-8.6 29.6-5.5 24.7-3.1c23.1-2.6 47.3-3.9 73.7-3.9 22.8 0 46.7 0.9 75.4 2.9l29.6 3.5 41.7 8 20.9 5-2.2 23.3-4.4 28-2.3-0.7c-49-15.3-103.7-23.4-158-23.4-55.2 0-109.4 8.3-156.7 23.9zm-4.3-47l3.3 20 4.1 21.7c47.2-15.3 101-23.3 155.8-23.3 53.9 0 108.1 7.9 157.1 22.8l3.5-23.2 1.9-19.7-17.4-4.1-41.4-8-29.4-3.4c-28.5-2-52.3-2.9-75-2.9-26.3 0-50.3 1.3-73.3 3.8l-24.5 3-29.4 5.6z"/>
	<path id="Path 11" class="s2" d="m45.7 129.1l309.8 3.5 0.6 192.8-310.7 0.3z"/>
	<path id="Path 12" class="s3" d="m96.2 189.6c5-4.4 12.5-10.5 15.7-11.4 9.7-2.8 16.3 1.7 24.3 6.2 6.3-7.7 12-15.7 20.1-21.6 8.1-6 16.9-10.8 27.7-12.2 10.6-1.4 26.4-2.7 35.8-0.9l13.3 2.6 49.9 14.2c-15.5-2-41.9-4.8-60.2-1.2-9.7 1.9-18.5 3.9-21.1 4.5-6.1 1.5-9.6 2.6-15.1 6.7-0.8 0.6-7.2 4.5-11.1 9.4-5 6.2-5.3 13.1-4.7 13.7l16.3 13.9c4.6 4 10.5 6.8 15.9 9.8 2.5 1.4 4.9 2.7 7.5 3.7 2.5 1 5.5 2 8 3.2 2.1 1.1 5.5 2.2 8.8 3.2 5.6 1.7 11.7 3.6 15.7 4.4 4.8 1 12 3 16.8 2.9 4.5-0.1 8.1 1 11.6 1.5l56.9 3-74.7 2.5 56.6 46c-26.1-12.9-53.5-40.1-71.6-45.1-10.2-2.8-20.1-6.1-30.4-8.2l-12.8-2.5c-2-0.5-13-1.9-23.7-2.1-4.2-0.1-8.3-0.3-11.9-0.1-3.1 0.2-5.9 0.9-7.9 0.5-3-0.5-1.5 25 1.6 31.1l3.9 7.4 8.9 10.4 32.1 26.2c-42.4-19.2-58.1-28.4-66.9-45.3-6.4-12.4-11.4-27-12.3-57.4-4.9-6.6-16.4-12.5-23-19z"/>
	<path id="Path 13" class="s4" d="m45.5 325.5l310.6-0.5c-2.4 8.1-5.2 21.8-7.5 29.9-3.4 9.4-7.1 18.7-11.1 27.8-6.4 14.2-14.2 27.7-22.2 40.5-25.2 40.2-58.8 73-101.2 94.6l-12.3 6.5-28.4-14.2-12.7-7.4-27.6-20.4-22.9-24-14.9-19-13.5-20.6-8-12-1.8-3.1-11.9-26.1c0 0-10.8-29.4-11.5-33-0.7-3.5-3.1-19-3.1-19z"/>
	<path id="Path 14" class="s1" d="m118.5 440c-7.6 0-13.8-6.2-13.8-13.8 0-7.7 6.2-13.9 13.8-13.9 7.6 0 13.7 6.2 13.7 13.9 0 7.6-6.1 13.8-13.7 13.8zm0.6-82.5l-9.8-0.1c0-7.2 4.5-13 10-13 5.4 0.1 9.7 6 9.6 13.2zm-15.2-10.2l-0.1 10c-5.5-0.1-10-4.6-9.9-10.2 0.1-2.4 1-4.9 2.7-6.7zm37.4-6.4c1.7 1.9 2.6 4.3 2.6 6.9 0 5.5-4.6 9.9-10.2 9.9l0.2-10.1zm-22.5 40.1l-9.8-0.1c0.1-7.2 4.5-13 9.9-12.9 5.5 0 9.8 5.9 9.7 13.1zm-15.1-10.2l-0.1 10.1c-5.6-0.1-10.1-4.6-10-10.2 0-2.5 1-4.9 2.8-6.8zm37.3-6.4c1.7 1.9 2.6 4.4 2.6 6.9-0.1 5.5-4.6 10-10.2 9.9l0.1-10zm-22.4 40.6l-9.9-0.1c0.1-7.2 4.6-13 10-12.9 5.4 0 9.8 5.9 9.7 13.1zm-15.2-10.2l-0.1 10.1c-5.6-0.1-10-4.6-9.9-10.2 0-2.5 0.9-4.9 2.7-6.7zm37.3-6.4c1.7 1.9 2.7 4.3 2.6 6.8 0 5.6-4.6 10-10.1 10l0.1-10.1zm-45.3 26l6.3 2.7c-0.6 3-1.8 5.8-1.8 9 0.1 0.7 0.1 1.2 0.3 2.2 0.1 1.1 0.4 1.7 1 2.9l3.8 8.7-6.2-4.4c-0.2-0.3-0.5-0.5-0.7-0.8l-0.2-0.2c-0.2-0.3-0.4-0.4-0.7-0.7l-0.8-1.2-0.7-0.9-0.7-1.2-0.6-1.3q-0.1-0.3-0.2-0.7l-0.2-1c-0.3-1.2-0.4-2.5-0.5-3.7-0.1-0.6 0-1.2 0-1.8 0-0.5 0.1-1 0.2-1.5l0.3-1.7zm47.5 4.9l0.3 1.7c0.1 0.5 0.1 1 0.1 1.5 0 0.6 0 1.2 0 1.8-0.1 1.2-0.3 2.5-0.6 3.7l-0.3 1c0 0.2-0.1 0.4-0.2 0.7l-0.6 1.3-0.7 1.1-0.7 1-0.9 1.2c-0.2 0.2-0.5 0.3-0.7 0.6l-0.2 0.2c-0.2 0.3-0.4 0.5-0.7 0.8l-6.2 4.2 4-8.6c0.5-1.2 0.8-1.7 1-2.8 0.1-1.1 0.2-1.5 0.3-2.3 0.2-3.1-1-6-1.5-9l6.3-2.5zm58.7 83.4c-7.6 0-13.7-6.2-13.7-13.9 0-7.7 6.1-13.9 13.7-13.9 7.6 0 13.7 6.2 13.7 13.9 0 7.7-6.1 13.9-13.7 13.9zm0.7-82.6l-9.9-0.1c0.1-7.2 4.6-13 10-12.9 5.5 0 9.8 5.9 9.7 13.1zm-15.2-10.2l-0.1 10c-5.5 0-10-4.6-10-10.2 0.1-2.4 1.1-4.8 2.7-6.7zm37.4-6.4c1.7 1.9 2.6 4.3 2.6 6.9 0 5.5-4.6 9.9-10.2 9.9l0.1-10.1zm-22.5 40.1l-9.8-0.1c0.1-7.2 4.6-13 10-12.9 5.4 0 9.7 5.9 9.6 13.1zm-15.2-10.2v10c-5.6-0.1-10.1-4.6-10-10.2 0-2.4 1-4.9 2.7-6.7zm37.4-6.4c1.7 1.9 2.6 4.3 2.5 6.8 0 5.6-4.6 10-10.1 10l0.1-10.1zm-22.5 40.7l-9.8-0.1c0.1-7.3 4.6-13 10-13 5.4 0.1 9.7 6 9.7 13.2zm-15.2-10.2l-0.1 10c-5.6-0.1-10-4.6-9.9-10.1 0-2.6 1-5 2.7-6.8zm37.3-6.4c1.7 1.9 2.6 4.3 2.6 6.8-0.1 5.6-4.6 10-10.2 10l0.2-10zm-45.3 26l6.2 2.7c-0.5 2.9-1.8 5.8-1.7 8.9 0.1 0.8 0.1 1.2 0.3 2.3 0.1 1.1 0.4 1.7 1 2.8l3.8 8.8-6.2-4.5c-0.2-0.2-0.5-0.5-0.7-0.8l-0.2-0.2c-0.2-0.3-0.4-0.4-0.7-0.6l-0.8-1.2-0.8-1-0.6-1.1-0.6-1.3c0-0.3-0.2-0.5-0.2-0.7l-0.2-1c-0.3-1.2-0.5-2.5-0.6-3.8q0-0.8 0-1.7c0-0.5 0.2-1 0.2-1.6l0.4-1.7zm47.5 4.9l0.3 1.7c0 0.6 0.2 1.1 0.1 1.6 0 0.6 0 1.1 0 1.7-0.1 1.3-0.3 2.6-0.6 3.8l-0.3 1c-0.1 0.2-0.1 0.4-0.2 0.6l-0.6 1.4-0.7 1.1-0.7 0.9-0.9 1.2c-0.3 0.2-0.4 0.3-0.7 0.6l-0.2 0.3c-0.2 0.2-0.5 0.5-0.7 0.7l-6.3 4.3 4.1-8.6c0.5-1.2 0.8-1.8 1-2.9 0.1-1 0.1-1.4 0.3-2.2 0.2-3.1-1-6-1.5-9l6.3-2.6zm57-40.1c-7.6 0-13.8-6.2-13.8-13.8 0-7.7 6.2-13.9 13.8-13.9 7.5 0 13.7 6.2 13.7 13.9 0 7.6-6.2 13.8-13.7 13.8zm0.6-82.6h-9.8c0.1-7.3 4.5-13 9.9-13 5.5 0.1 9.8 5.9 9.7 13.2zm-15.1-10.3l-0.1 10.1c-5.6 0-10-4.6-10-10.1 0.1-2.5 1-5 2.7-6.8zm37.4-6.3c1.7 1.8 2.6 4.3 2.6 6.8-0.1 5.5-4.7 10-10.3 9.9l0.2-10.1zm-22.4 40.1l-9.8-0.1c0-7.2 4.5-13 9.9-12.9 5.4 0 9.7 5.9 9.7 13.1zm-15.2-10.2l-0.1 10c-5.6 0-10-4.6-9.9-10.1 0-2.5 1-4.9 2.7-6.8zm37.4-6.3c1.6 1.9 2.5 4.3 2.5 6.8 0 5.5-4.6 10-10.1 9.9l0.1-10zm-22.5 40.6l-9.8-0.1c0-7.2 4.5-13 9.9-12.9 5.5 0 9.8 5.9 9.7 13.1zm-15.2-10.2l-0.1 10c-5.5 0-10-4.6-9.9-10.1 0-2.5 1-4.9 2.7-6.8zm37.4-6.3c1.6 1.8 2.6 4.3 2.6 6.8-0.1 5.5-4.6 10-10.2 9.9l0.1-10zm-45.3 26l6.2 2.6c-0.5 3-1.8 5.9-1.7 9 0.1 0.8 0.1 1.2 0.3 2.3 0.1 1.1 0.4 1.7 0.9 2.9l3.9 8.6-6.2-4.4c-0.2-0.2-0.4-0.5-0.7-0.8l-0.2-0.2c-0.3-0.3-0.4-0.4-0.6-0.6l-0.9-1.3-0.8-0.8-0.6-1.2-0.6-1.3c-0.1-0.3-0.1-0.5-0.2-0.8l-0.3-0.9c-0.2-1.2-0.4-2.5-0.5-3.7 0-0.6 0-1.2 0-1.8 0-0.5 0.2-1.1 0.3-1.6l0.3-1.7zm47.4 4.9l0.3 1.7c0.1 0.5 0.2 1.1 0.2 1.6-0.1 0.6 0 1.2-0.1 1.8 0 1.2-0.3 2.5-0.5 3.7l-0.3 0.9q-0.2 0.4-0.2 0.7l-0.6 1.3-0.8 1.2-0.7 0.9-0.9 1.2c-0.2 0.2-0.4 0.4-0.7 0.6l-0.2 0.3c-0.2 0.2-0.4 0.5-0.7 0.7l-6.2 4.3 4-8.6c0.5-1.2 0.8-1.8 1-2.9 0.2-1 0.2-1.5 0.3-2.2 0.2-3.1-1-6-1.5-9l6.3-2.6z"/>
	<path id="Path 15" class="s5" d="m257.2 446.1l9.9 0.1 0.2 35-9.1 7.6zm20.9-1.1l8.7 0.1 0.7 15-8.4 8.6zm-136.4 43.1l-9.4-7 1.4-37 10 0.1zm-20.4-19.5l-8.2-8.3 1-17.3h8.7z"/>
	<path id="Path 16" fill-rule="evenodd" class="s0" d="m157.9 49.2l4.8-0.1 9.9 24.6-4.9 0.1-2-5.1-10.1 0.2-1.9 5.1-4.9 0.1zm2.6 6.6l-3.3 8.5 6.7-0.1zm-116.2 17.2l11.1-5.2 2 4.2-6.9 3.2 8.5 18.3-4.2 2zm17-7.3l12.7-4.5 1.6 4.3-8.3 3 1.5 4.2 8.3-3 1.6 4.2-8.3 3.1 2.2 6.1 8.3-3 1.6 4.3-12.7 4.7z"/>
	<path id="Path 17" class="s5" d="m102.5 448.3l-4.3-5.6 4.3 0.2zm190.5-3.8h7.6l-7.9 9.6z"/>
	<path id="Path 18" fill-rule="evenodd" class="s0" d="m84.2 58.9l4.7-0.9 1.6 9.3 8.2-1.5-1.6-9.2 4.7-0.9 4.3 24.5-4.7 0.8-1.9-10.7-8.2 1.5 1.9 10.7-4.7 0.8zm25.4-4.5l13.5-1.2 0.4 4.6-8.8 0.8 0.4 4.4 8.8-0.7 0.4 4.5-8.8 0.8 0.6 6.5 8.7-0.8 0.5 4.6-13.5 1.2zm22.8-2.6l5-0.4c2.6-0.3 4.6-0.2 5.9 0.2 1.2 0.4 2.2 1.1 3 2.2q1.1 1.5 1.3 3.9c0.2 1.7-0.1 3.2-0.9 4.4-0.8 1.2-2 2.1-3.5 2.7-0.8 0.3-2.5 0.6-4.9 0.8l0.9 10.5-4.7 0.4zm5.5 9.3l1.6-0.2c1.1-0.1 1.9-0.2 2.4-0.4 0.4-0.3 0.8-0.6 1-1 0.2-0.4 0.3-0.9 0.3-1.4-0.2-1-0.6-1.6-1.3-2q-0.9-0.4-3.1-0.2l-1.3 0.1zm58.6 11.2l-7.5-18-6.3 18.5-5 0.1 8.7-25.1 4.7-0.1 10.4 24.4zm15.9-23.5l13.8 0.3-0.1 4.6h-4.6l-0.3 20.1-4.8-0.1 0.3-20.1-4.3-0.1zm138.1 18.7c3.4 0.9 5.9 2.9 7.7 6q2.7 4.7 1.3 10c-1 3.4-3 6.1-6.1 7.9-3 1.8-6.2 2.2-9.7 1.3-3.5-1-6.2-3.1-7.9-6.2q-2.6-4.7-1.2-9.8c0.7-2.3 1.7-4.2 3.4-5.8 1.6-1.7 3.5-2.8 5.7-3.4q3.4-0.9 6.8 0zm-1.2 4.5c-2.3-0.6-4.4-0.4-6.3 0.8-1.9 1.1-3.2 2.8-3.8 5.2-0.7 2.7-0.3 5 1.1 7 1.2 1.7 2.7 2.7 4.6 3.3 2.2 0.5 4.2 0.3 6.2-0.9 1.9-1.2 3.2-2.9 3.8-5.2q1-3.4-0.7-6.4-1.7-3-4.9-3.8zm-79.3 2.9l2.5-20.4 4.7 0.6-2.5 20.4 6.7 0.8 2.5-20.4 4.7 0.6-3 24.6-27.5-3.4 3-24.6 4.8 0.6-2.5 20.4zm26.9-17.7l13.3 2.6-0.9 4.5-8.7-1.7-0.9 4.4 8.7 1.7-0.8 4.5-8.7-1.7-1.3 6.4 8.7 1.7-0.8 4.5-13.3-2.6z"/>
	<path id="Path 19" fill-rule="evenodd" class="s0" d="m314.1 86l5.6-24.2 3.7 0.9c2.3 0.5 3.8 1 4.8 1.5 1.3 0.8 2.3 1.7 2.9 3 0.7 1.2 0.8 2.6 0.4 4q-0.3 1.4-1.1 2.3c-0.6 0.7-1.3 1.3-2.4 1.7 1.3 1 2.2 2.2 2.7 3.4q0.6 1.7 0.1 3.8c-0.3 1.4-1 2.5-1.9 3.5-1 1-2 1.6-3.3 1.9-1.2 0.3-2.8 0.2-4.7-0.2zm9.1-18.7l-1.2 5.1 1.1 0.2c1.1 0.2 2 0.2 2.6-0.2 0.7-0.3 1.1-0.8 1.2-1.7 0.2-0.7 0.1-1.4-0.3-2-0.4-0.5-1.1-0.9-2.2-1.2zm-2.1 9.2l-1.4 6.2 1.1 0.3c1.9 0.4 3.3 0.5 4 0.2 0.8-0.4 1.3-1 1.5-1.9 0.3-1 0-1.9-0.6-2.7-0.6-0.8-1.9-1.4-3.7-1.8zm-77.8-25.9c3.6 0.4 6.4 1.9 8.8 4.6 2.2 2.8 3.2 6 2.9 9.6-0.3 3.6-1.8 6.6-4.5 8.8q-4.1 3.4-9.3 3c-3.8-0.3-6.8-1.9-9-4.7-2.2-2.7-3.2-5.9-2.9-9.4q0.3-3.6 2.3-6.4c1.3-1.8 3-3.3 5.2-4.3q3.1-1.5 6.5-1.2zm-0.4 4.6c-2.3-0.1-4.3 0.4-6 1.9-1.7 1.5-2.6 3.4-2.8 5.9-0.3 2.7 0.5 5 2.3 6.7 1.5 1.4 3.1 2.2 5.1 2.3q3.3 0.3 5.9-1.9c1.7-1.4 2.7-3.4 2.9-5.7 0.2-2.4-0.4-4.5-1.8-6.2q-2.2-2.7-5.6-3z"/>
	<path id="Path 20" class="s5" d="m83.6 327.9l-1.7 88.6 0.1 1.7-9.1-13.1 0.8-77.2zm-22.9 0l0.7 52.6-10-28.5-0.7-24.1zm42 0l-0.1 10.2-9.2-0.2 0.1-10zm20.5 0v10.2l-9.3-0.1 0.1-10.1zm20.8-0.1l-0.1 10.2-9.2-0.2 0.1-10zm22.4 0l-2.8 176.8-9.6-7.1 2.4-169.7zm19.1 0l-0.6 65.3-8.5-0.1 0.7-65.2zm22.3 0l-0.6 65.6-8.4-0.2 0.6-65.4zm19.3-0.1l-0.6 65.7-8.5-0.1 0.7-65.6zm20.1 0l-1.3 170.7-9.4 6.5 0.8-177.2zm20.4 0l-0.1 10.4-9.2-0.2 0.1-10.2zm20 0l-0.1 10.2-9.1-0.2v-10zm20.5 0l-0.1 10.3-9.2-0.3 0.1-10zm20.1 0l-1 76.3-8.8 14.9-0.1-91.2zm21.3-0.1l-0.7 27.4-10.9 26.6 0.8-54z"/>
</svg>