<svg version="1.2" xmlns="http://www.w3.org/2000/svg" viewBox="0 0 1544 1782" width="1544" height="1782">
	<title>Madzharovo-cdr</title>
	<style>
		.s0 { fill: #da251c } 
		.s1 { fill: #ffeb3d } 
		.s2 { fill: #00ab4f } 
		.s3 { fill: #00ab4f;stroke: #2c2e35;stroke-width: 2.4 } 
	</style>
	<g id="Group 2">
		<path id="Object 3" class="s0" d="m418.4 57.3v82.3h231.3v-82.3h240.2v82.3h227.2v-82.3h180.7v279.8h-1060v-279.8z"/>
		<path id="Object 4" class="s0" d="m1297.8 403.3v916.7c0 118.2-99 214.9-220 214.9-69.6 0-156.6-7.9-208.6 0-52.1 7.9-73 46.4-97.1 46.4-24.1 0-50.4-38.5-103.8-46.4-53.5-7.9-140.3 0-210.5 0-121 0-220-96.7-220-214.9v-916.7z"/>
		<path id="Object 5" fill-rule="evenodd" class="s1" d="m474.9 0.5v80.6h118.7v-80.6h348.3v80.6h118.7v-80.6h287.6v1368.5c0 128.5-108.4 233.6-241 233.6-76.1 0-171.4-8.6-228.4 0-57 8.6-79.9 50.5-106.2 50.5-26.5 0-55.3-41.9-113.8-50.5-58.5-8.6-153.6 0-230.5 0-132.5 0-240.9-105.1-240.9-233.6v-1368.5zm-237.1 60.8v279.8h1059.9v-279.8h-180.6v82.3h-227.2v-82.3h-240.2v82.3h-231.3v-82.3zm0 342v916.7c0 118.2 99 214.9 220 214.9 70.2 0 157-7.9 210.5 0 53.4 7.9 79.7 46.4 103.8 46.4 24.1 0 45-38.5 97.1-46.4 52-7.9 139 0 208.6 0 121 0 220-96.7 220-214.9v-916.7z"/>
		<path id="Object 6" fill-rule="evenodd" class="s2" d="m1526.9 639.1v683.5c0 240-176.2 436.3-391.4 436.3h-57.9c26.1-5.6 51.9-12.1 77.5-19.5l0.8-0.2 0.6-0.3c12.9-6.5 17.8-18.3 13.9-32l-12.8-72.4c133.3-25.9 236.3-174.6 236.3-352.9v-642.5h5l44.8 41.1v-55.5c-6.6-10.4-15.1-20.8-25.5-31.8-11.5-12-20.2-22.9-22.3-32.8-2.5-11.8 1.1-21.8 8.8-27.2 18-12.6 60.3 21.1 24.6-6.8-21-16.4-33.5-29.6-35.9-41.3-1.3-6.1 0.1-14 3.9-19.9 8.6-13.4 25.7-7.6 37 0.1 14 9.4 17 9.5 1.4-2.8-13.1-10.3-28-24-36.3-37.7-8.2-13.7-10.6-24.1-5-33.9 17.4-19.3 32.6-7.9 47 4.3q5.6 4.7 11.1 9.3-12.7-19.2-17.2-34.7c-7.6-25.6-3.1-49.9 28.2-52.5q1.7-0.1 3.3-0.2h0.9q1.7 0.1 3.3 0.2c31.4 2.6 35.8 26.9 28.3 52.5q-4.5 15.5-17.2 34.7 5.5-4.6 11.1-9.3c14.4-12.2 29.6-23.6 47-4.3 5.6 9.8 3.2 20.2-5.1 33.9-8.2 13.7-23.1 27.4-36.2 37.7-15.6 12.3-12.6 12.2 1.4 2.8 11.3-7.7 28.4-13.5 36.9-0.1 3.8 5.9 5.3 13.8 4 19.9-2.5 11.7-14.9 24.9-36 41.3-35.6 27.9 6.7-5.8 24.7 6.8 7.7 5.4 11.2 15.4 8.8 27.2-2.2 9.9-10.8 20.8-22.3 32.8-13.7 14.4-24 27.8-31.2 41.4v36.2l34.3-31.4zm-70.7 52.5l3 2.8 3-2.8zm-1361.4-15.8l40.1-36.7h7.8v634.5c0 191.4 116.2 349.6 262.5 363.9-5.2 20.6-10.3 41.2-15.3 61.8-4.2 16.3 2.7 28.2 19.4 30.7 38.6 10.9 77.8 20.6 117.4 28.9h-118c-219.4 0-399-200.2-399-444.7v-675.1h4.6l39 35.8v-50.2c-6.6-10.4-15.1-20.8-25.6-31.8-11.4-12-20.1-22.9-22.2-32.8-2.5-11.8 1.1-21.8 8.7-27.2 18.1-12.6 60.4 21.1 24.7-6.8-21-16.4-33.5-29.6-35.9-41.3-1.3-6.1 0.1-14 3.9-19.9 8.6-13.4 25.7-7.6 37 0.1 14 9.4 17 9.5 1.4-2.8-13.1-10.3-28-24-36.3-37.7-8.2-13.7-10.6-24.1-5-33.9 17.4-19.3 32.6-7.9 47 4.3q5.5 4.7 11.1 9.3-12.7-19.2-17.2-34.7c-7.6-25.6-3.1-49.9 28.2-52.5q1.7-0.1 3.3-0.2h0.9q1.7 0.1 3.3 0.2c31.4 2.6 35.8 26.9 28.3 52.5q-4.5 15.5-17.2 34.7 5.5-4.6 11-9.3c14.5-12.2 29.7-23.6 47.1-4.3 5.6 9.8 3.2 20.2-5.1 33.9-8.3 13.7-23.2 27.4-36.2 37.7-15.6 12.3-12.6 12.2 1.4 2.8 11.3-7.7 28.4-13.5 36.9-0.1 3.8 5.9 5.2 13.8 4 19.9-2.5 11.7-14.9 24.9-36 41.3-35.6 27.9 6.7-5.8 24.7 6.8 7.7 5.4 11.2 15.4 8.7 27.2-2.1 9.9-10.7 20.8-22.2 32.8-13.7 14.4-24 27.8-31.2 41.4zm-20.2 18.5l3-2.7h-6z"/>
		<path id="Object 7" class="s3" d="m780.7 1780.2c-112.8-1.4-236.2-20.7-369.7-58.2q-17.8-2.5-13.2-20.7c7.5-30.4 14.9-60.7 22.7-90.6q3.9 0.1 7.8 0.1c27.1 0 54.2-1 81.2-1.9 21.6-0.8 45.1-1.9 68.6-2.2q56.3 11.3 121.3 17.4c8 4 15.9 8.7 23.8 13.8 13.8 8.9 32.4 23.3 49.4 23.3 16.9 0 33.2-14.1 46.3-23.5q5.9-4.2 11.8-7.9 88.9-2.1 177.2-21.6 9.6 0.4 18.7 0.7c26.8 0.9 53.7 1.9 80.6 1.9 12.7 0 25.2-0.9 37.4-2.8l17.8 100.8c3 10.1 0.1 17.9-9.5 22.7-113 32.8-237.3 48.7-372.2 48.7z"/>
		<g id="Group 8">
			<g id="Group 9">
				<g id="Group 10">
					<path id="Object 11" class="s1" d="m388.3 1282.5q-21.1-1.9-23.1-23.1 2-21.2 23.1-23.2 21.2 2 23.2 23.2-2 21.2-23.2 23.1z"/>
					<path id="Object 12" class="s1" d="m450.1 1282.5q-21.2-1.9-23.2-23.1 2-21.2 23.2-23.2 21.1 2 23.1 23.2-2 21.2-23.1 23.1z"/>
					<path id="Object 13" class="s1" d="m511.8 1282.5q-21.2-1.9-23.1-23.1 1.9-21.2 23.1-23.2 21.2 2 23.2 23.2-2 21.2-23.2 23.1z"/>
					<path id="Object 14" class="s1" d="m573.6 1282.5q-21.2-1.9-23.2-23.1 2-21.2 23.2-23.2 21.1 2 23.1 23.2-2 21.2-23.1 23.1z"/>
				</g>
				<g id="Group 16">
					<path id="Object 17" class="s1" d="m419.2 1345.6q-21.2-2-23.1-23.2 1.9-21.2 23.1-23.1 21.2 1.9 23.2 23.1-2 21.2-23.2 23.2z"/>
					<path id="Object 18" class="s1" d="m480.9 1345.6q-21.1-2-23.1-23.2 2-21.2 23.1-23.1 21.2 1.9 23.2 23.1-2 21.2-23.2 23.2z"/>
					<path id="Object 19" class="s1" d="m542.7 1345.6q-21.2-2-23.2-23.2 2-21.2 23.2-23.1 21.2 1.9 23.1 23.1-1.9 21.2-23.1 23.2z"/>
				</g>
				<g id="Group 21">
					<path id="Object 22" class="s1" d="m450.1 1409.9q-21.2-2-23.2-23.2 2-21.2 23.2-23.1 21.1 1.9 23.1 23.1-2 21.2-23.1 23.2z"/>
					<path id="Object 23" class="s1" d="m511.8 1409.9q-21.2-2-23.1-23.2 1.9-21.2 23.1-23.1 21.2 1.9 23.2 23.1-2 21.2-23.2 23.2z"/>
				</g>
				<path id="Object 25" class="s1" d="m480.9 1478q-21.1-1.9-23.1-23.1 2-21.2 23.1-23.2 21.2 2 23.2 23.2-2 21.2-23.2 23.1z"/>
			</g>
			<g id="Group 27">
				<g id="Group 28">
					<path id="Object 29" class="s1" d="m675.2 1336.6q-21.2-2-23.2-23.2 2-21.2 23.2-23.2 21.1 2 23.1 23.2-2 21.2-23.1 23.2z"/>
					<path id="Object 30" class="s1" d="m736.9 1336.6q-21.2-2-23.1-23.2 1.9-21.2 23.1-23.2 21.2 2 23.2 23.2-2 21.2-23.2 23.2z"/>
					<path id="Object 31" class="s1" d="m798.7 1336.6q-21.2-2-23.2-23.2 2-21.2 23.2-23.2 21.1 2 23.1 23.2-2 21.2-23.1 23.2z"/>
					<path id="Object 32" class="s1" d="m860.4 1336.6q-21.2-2-23.1-23.2 1.9-21.2 23.1-23.2 21.2 2 23.1 23.2-1.9 21.2-23.1 23.2z"/>
				</g>
				<g id="Group 34">
					<path id="Object 35" class="s1" d="m706 1399.6q-21.1-2-23.1-23.2 2-21.2 23.1-23.1 21.2 1.9 23.2 23.1-2 21.2-23.2 23.2z"/>
					<path id="Object 36" class="s1" d="m767.8 1399.6q-21.2-2-23.2-23.2 2-21.2 23.2-23.1 21.2 1.9 23.1 23.1-1.9 21.2-23.1 23.2z"/>
					<path id="Object 37" class="s1" d="m829.5 1399.6q-21.1-2-23.1-23.2 2-21.2 23.1-23.1 21.2 1.9 23.2 23.1-2 21.2-23.2 23.2z"/>
				</g>
				<g id="Group 39">
					<path id="Object 40" class="s1" d="m736.9 1463.9q-21.2-2-23.1-23.2 1.9-21.1 23.1-23.1 21.2 2 23.2 23.1-2 21.2-23.2 23.2z"/>
					<path id="Object 41" class="s1" d="m798.7 1463.9q-21.2-2-23.2-23.2 2-21.1 23.2-23.1 21.1 2 23.1 23.1-2 21.2-23.1 23.2z"/>
				</g>
				<path id="Object 43" class="s1" d="m767.8 1532.1q-21.2-2-23.2-23.2 2-21.2 23.2-23.1 21.2 1.9 23.1 23.1-1.9 21.2-23.1 23.2z"/>
			</g>
			<g id="Group 45">
				<g id="Group 46">
					<path id="Object 47" class="s1" d="m962 1287.7q-21.2-2-23.1-23.2 1.9-21.2 23.1-23.1 21.2 1.9 23.2 23.1-2 21.2-23.2 23.2z"/>
					<path id="Object 48" class="s1" d="m1023.8 1287.7q-21.2-2-23.2-23.2 2-21.2 23.2-23.1 21.1 1.9 23.1 23.1-2 21.2-23.1 23.2z"/>
					<path id="Object 49" class="s1" d="m1085.5 1287.7q-21.2-2-23.1-23.2 1.9-21.2 23.1-23.1 21.2 1.9 23.1 23.1-1.9 21.2-23.1 23.2z"/>
					<path id="Object 50" class="s1" d="m1147.2 1287.7q-21.1-2-23.1-23.2 2-21.2 23.1-23.1 21.2 1.9 23.2 23.1-2 21.2-23.2 23.2z"/>
				</g>
				<g id="Group 52">
					<path id="Object 53" class="s1" d="m992.9 1350.7q-21.2-2-23.2-23.2 2-21.1 23.2-23.1 21.2 2 23.1 23.1-1.9 21.2-23.1 23.2z"/>
					<path id="Object 54" class="s1" d="m1054.6 1350.7q-21.1-2-23.1-23.2 2-21.1 23.1-23.1 21.2 2 23.2 23.1-2 21.2-23.2 23.2z"/>
					<path id="Object 55" class="s1" d="m1116.4 1350.7q-21.2-2-23.2-23.2 2-21.1 23.2-23.1 21.1 2 23.1 23.1-2 21.2-23.1 23.2z"/>
				</g>
				<g id="Group 57">
					<path id="Object 58" class="s1" d="m1023.8 1415q-21.2-2-23.2-23.1 2-21.2 23.2-23.2 21.1 2 23.1 23.2-2 21.1-23.1 23.1z"/>
					<path id="Object 59" class="s1" d="m1085.5 1415q-21.2-2-23.1-23.1 1.9-21.2 23.1-23.2 21.2 2 23.1 23.2-1.9 21.1-23.1 23.1z"/>
				</g>
				<path id="Object 61" class="s1" d="m1054.6 1483.2q-21.1-2-23.1-23.2 2-21.1 23.1-23.1 21.2 2 23.2 23.1-2 21.2-23.2 23.2z"/>
			</g>
		</g>
		<g id="Group 64">
			<path id="Object 65" class="s1" d="m745.1 438.1h16.8l5.2-16.1 5.2 16.1h16.9l-13.6 9.9 5.2 16-13.7-9.9-13.6 9.9 5.2-16z"/>
			<path id="Object 66" class="s1" d="m683.9 456.3h16.8l5.2-16.1 5.2 16.1h16.9l-13.6 9.9 5.2 16-13.7-9.9-13.6 9.9 5.2-16z"/>
			<path id="Object 67" class="s1" d="m806.3 456.3h16.8l5.2-16.1 5.2 16.1h16.9l-13.6 9.9 5.2 16-13.7-9.9-13.6 9.9 5.2-16z"/>
			<path id="Object 68" class="s1" d="m636.8 500.1h16.8l5.2-16 5.3 16h16.8l-13.6 9.9 5.2 16.1-13.7-10-13.6 10 5.2-16.1z"/>
			<path id="Object 69" class="s1" d="m857.4 500.1h16.8l5.2-16 5.2 16h16.9l-13.6 9.9 5.2 16.1-13.7-10-13.6 10 5.2-16.1z"/>
			<path id="Object 70" class="s1" d="m620.6 561.5h16.9l5.2-16.1 5.2 16.1h16.9l-13.6 9.9 5.2 16-13.7-9.9-13.6 9.9 5.2-16z"/>
			<path id="Object 71" class="s1" d="m870.8 561.5h16.9l5.2-16.1 5.2 16.1h16.8l-13.6 9.9 5.2 16-13.6-9.9-13.7 9.9 5.2-16z"/>
			<path id="Object 72" class="s1" d="m857.4 623.5h16.8l5.2-16.1 5.2 16.1h16.9l-13.6 9.9 5.2 16-13.7-9.9-13.6 9.9 5.2-16z"/>
			<path id="Object 73" class="s1" d="m636.8 623.5h16.8l5.2-16.1 5.3 16.1h16.8l-13.6 9.9 5.2 16-13.7-9.9-13.6 9.9 5.2-16z"/>
			<path id="Object 74" class="s1" d="m683.9 668.7h16.8l5.2-16.1 5.2 16.1h16.9l-13.6 9.9 5.2 16-13.7-9.9-13.6 9.9 5.2-16z"/>
			<path id="Object 75" class="s1" d="m745.1 684.8h16.8l5.2-16 5.2 16h16.9l-13.6 10 5.2 16-13.7-9.9-13.6 9.9 5.2-16z"/>
			<path id="Object 76" class="s1" d="m806.3 668.7h16.8l5.2-16.1 5.2 16.1h16.9l-13.6 9.9 5.2 16-13.7-9.9-13.6 9.9 5.2-16z"/>
		</g>
		<g id="Group 78">
			<path id="Object 79" fill-rule="evenodd" class="s1" d="m557.7 1103.3v-383h420.2v383c0 21.1-10.9 40-28.6 53.5-16.8 12.9-39.8 20.9-65 20.9-7.5 0-17.7-0.3-27.9-0.5-18.4-0.5-36.8-1-49.2 0.4-8.9 1.1-15.2 4.7-20.2 7.6h-0.1c-5.9 3.4-10.7 6.2-17.5 6.2-6.5 0-11.6-2.7-18-6-5.7-3-12.8-6.7-22.3-7.8-12.8-1.4-31.3-0.9-49.8-0.4-10.3 0.2-20.5 0.5-28.1 0.5-25.1 0-48.2-8-64.9-20.9-17.7-13.5-28.6-32.4-28.6-53.5zm21.7-361.3v361.3c0 14 7.6 26.8 20 36.3 13.2 10.2 31.5 16.4 51.8 16.4 10.1 0 18.8-0.2 27.5-0.4 19.5-0.6 38.9-1.1 52.9 0.5 13.3 1.6 22.5 6.4 29.8 10.2 3.7 1.9 6.7 3.5 8 3.5 1.1 0 3.7-1.5 6.7-3.3 6.8-3.9 15.3-8.8 28.5-10.4 13.7-1.6 33-1.1 52.4-0.5 8.7 0.2 17.5 0.4 27.3 0.4 20.4 0 38.7-6.2 51.9-16.4 12.3-9.5 20-22.3 20-36.3v-361.3z"/>
			<path id="Object 80" class="s2" d="m956.2 742v361.3c0 14-7.7 26.8-20 36.3-13.2 10.2-31.5 16.4-51.9 16.4-9.8 0-18.6-0.2-27.3-0.4-19.4-0.6-38.7-1.1-52.4 0.5-13.2 1.6-21.7 6.5-28.5 10.4-3 1.8-5.6 3.3-6.7 3.3-1.3 0-4.3-1.6-8-3.5-7.3-3.8-16.5-8.6-29.8-10.2-14-1.6-33.4-1.1-52.9-0.5-8.7 0.2-17.4 0.4-27.5 0.4-20.3 0-38.6-6.2-51.8-16.4-12.4-9.5-20-22.3-20-36.3v-361.3z"/>
			<path id="Object 81" fill-rule="evenodd" class="s1" d="m711.2 786.5c1.1 1.6 2 3.1 2.9 4.4 1.7 2.8 3.2 5 5.4 6.8q2 0.8 3.9 1.4l-0.3-0.2-0.4-0.4-0.1-0.6c-0.2-2.1-0.6-4-1.1-5.9q-0.2-1.3-0.5-2.6v-0.1-0.2c-0.3-4.9 0.9-6.7 3.2-7.1q-1-1.1-1.3-2.3c-0.2-1 0.1-2 0.9-2.8q0.9-1 2.7-1.6c1.4-0.9 4.1-1.8 7-2.5 2.3-0.5 4.7-1 6.8-1.2q-0.1-0.4-0.1-0.9c0-1.8 0.7-3.5 2-5 1.3-1.3 3-2.4 5.1-3.3 3-1.2 6.9-1.8 11.2-1.9h0.2c2.8 0.3 5.3 0.6 7.7 0.9 11.2 1.3 21.6 2.4 24.4 3.4l0.1 0.1c1.6-1.1 3.6-2 5.6-2.6 2.4-0.7 5-1.1 6.7-0.7l0.5 0.1 0.3 0.3q0.2 0.2 0.4 0.4c2.3 2.5 3.9 6.2 4.2 10.2 0.2 3.1-0.4 6.4-2.1 9.2 3 0.5 5.4 2.3 7.2 5 1.8 2.7 3 6.3 3.6 10.2 0.5 3.4 0.5 7.1 0 10.7v0.2c0 5.1 2 9.3 5.5 12.3 3.6 3.1 8.8 4.9 14.9 5h0.4l2.7 0.1c0.3-3.1 0.6-5.9 1.2-8.3 0-6.9 2.7-16.2 7.2-23.1 2.3-3.6 5.1-6.6 8.2-8.3 3.4-1.9 7-2.5 11-1.2 3.6 1.2 7.3 4 11.1 9 1.1 1.1 2.6 3.1 4 5.4 0.8 1.5 1.6 3.1 2.3 4.6q1.3-0.4 2.6-0.5c3.1-0.2 6.3 0.8 9 2.8 2.7 2 5 4.9 6.7 8.5 1.3 2.9 2.2 6.2 2.5 9.9l0.4 5.4-1.5 0.4-1.9-5.2c-0.6-1.5-2.1-3.3-4-4.7q-0.5-0.4-1-0.7c5.1 7.8 6 17.8 3.8 27.9-2.3 10.6-8.3 21.4-16.5 29.6q-2.7 2.7-5.7 4.9l-2.4-1.5c1-5.9 1.1-13 0.5-18.9-0.6-5.8-1.8-10.4-3.5-12.1h-0.1l-0.1-0.1c-2.4-3.2-3.1-8.3-2.3-13.2q0.4-2.1 1.1-4.2l-0.2 0.1c-3.7 1.7-7.5 2.2-9.1 1.2l-0.2-2.6c2.6-1.8 5.1-4.4 7-6.9q0.5-0.7 0.9-1.4l-0.1 0.1c-2.2 0.7-4.8 0.8-7-0.1l-0.4-2.6c1.8-1.6 3.5-3.4 4.8-5.3 1.5-2.1 2.6-4.2 3-6 0.3-1.6 0.2-3-0.7-3.9q-0.2-0.3-0.6-0.6l-0.4-0.3-0.1-0.4q-0.5-1.3-1.3-1.9c-0.7-0.5-1.6-0.7-2.7-0.7-1.2 0.2-2.4 0.6-3.6 1.4-1.7 1.1-3.2 2.7-4.1 4.7-0.8 1.8-1.5 4.5-1.9 7.3-0.5 3-0.8 6-0.6 7.8v0.1 0.1c-0.3 3.9-0.4 10.5-0.5 17.8 0 9.2 0 19.7 0.2 27.8 0.1 6.6 0.9 13 2.2 18 1.1 4.4 2.5 7.5 4 8.2l0.1 0.1h0.2c2.2 1.6 4.9 2.6 7.4 2.8 2.3 0.2 4.3-0.2 5.3-1.3l2.6 0.9q0.2 1 0.1 2c-0.2 2.7-1.5 5.3-3.6 7.2-1.6 1.5-3.6 2.7-5.8 3.4 1.5 0.7 3 1.3 4.4 1.6 2.3 0.6 4.1 0.7 4.9 0l2.4 1.9c-1.5 3-4.3 5.7-7.4 7.4-2.5 1.4-5.2 2.3-7.7 2.4 1.1 10.1 0.3 22.3-1.7 33.3-2.1 11.8-5.8 22.4-10.1 27.8-1.7 4-5.5 8.4-10 12.1-4.3 3.4-9.2 6.1-13.6 7.3v0.7c-0.6 4.9-2.3 19.2-4.5 32.5q-0.3 1.4-0.1 2.9c0.2 2.5 1.3 5 3.2 7 2 2 4.9 3.5 8.5 4.2q2.7 0.5 6.1 0.2h0.1 0.2q1.4 0.2 2.6 0.5c4.1 1 7.4 3.3 9.6 6.4 2.2 3.2 3.2 7.1 2.8 11.5q-0.2 1.4-0.6 2.9-0.2 0.9-0.3 1.8c-0.3 3.2 0.9 6.3 3 8.8 2.1 2.6 5.1 4.6 8.4 5.5q1.2 0.3 2.5 0.4l2.5 0.2-1.4 2.2c-1.8 2.9-5 4.9-8.5 5.8-1.4 0.4-2.8 0.6-4.2 0.5q1 0.6 2.1 0.9c2.6 0.8 5.3 0.8 7.2-0.2l2.4-1.3-0.2 2.7q0 0.2 0 0.4c-0.4 2.8-2.8 5-6.6 6.4-3.2 1.3-7.6 1.9-12.4 1.8q0.3 0.6 0.3 1.3 0 0.5-0.2 1c2.5 0.9 4.7 2.7 6.1 5 1.5 2.4 2.2 5.4 1.8 8.8q-0.2 1.8-0.9 3.7h-2.9c-0.7-2.2-1.5-3.8-2.3-4.9q-0.5-0.7-1-1c-1.2 2.1-4.2 3-7.6 3.1-2.6 0.1-5.5-0.3-7.9-1.1q-0.5 1.2-1.2 2.4c-0.9 1.2-2 2.3-3.4 3.1-5.6 4.3-11.2 6.1-15.9 6-1.9 1-3.5 2.2-4.4 3.7-0.8 1.3-1.1 2.8-0.7 4.6l-2.4 1.6c-3.8-2.6-5.6-6.2-6-10.2-0.4-3.3 0.1-6.8 1.2-10.2q-0.8 0.6-1.5 1l-0.3 0.2c-2.3 1.8-3.8 3.5-4.5 5.3h-0.1c-0.7 1.7-0.9 3.7-0.6 5.9l-2.6 1.3c-2.4-2.2-3.7-5.8-4.3-9.5-0.6-3.4-0.5-6.9-0.1-9.8-1.8 0.8-3.4 1.9-4.6 3.1-1.9 2-3.1 4.3-3.6 6.8l-3 0.3c-1.4-3.3-1.8-6.6-1.1-10.3 0.6-3.5 2.2-7.3 4.9-11.5l3.6-4.1c2.8-2.8 6.4-5.1 10.4-6.3l0.6-0.2c4.8-1.3 10-1.1 15 1.8 5.3 2.4 9.3 2.4 12.2 0.6 2.9-2 5-6.1 6.3-12.1 0.6-3.3-0.5-5.9-2.5-8-2-2.2-5.1-3.8-8.5-5.2-4.9 1.2-14 1-22.7-0.5-7.5-1.3-14.8-3.5-18.9-6.7-7.6-4.9-12.4-10.4-15.2-16.4-2.6-5.6-3.4-11.6-3.3-18-3.8-0.4-9.2-0.1-14.6 0.8-5.7 0.8-11.4 2.2-15.6 4.1l-0.2 0.1h-0.1q-0.5 0.1-1 0.2c-2.2 0.7-4.1 2.6-5.3 5-1.2 2.6-1.7 5.7-1.1 9q0.2 1.1 0.5 2.2v0.1c0.3 1 0.6 2.2 1 3.5 2.1 7.5 4.7 16.6-2.7 22.7l-0.2 0.2h-0.3q-0.7 0.2-1.1 0.6-0.3 0.4-0.4 1.1 0 0.8 0.2 1.8c0.8 2.6 3.1 5.9 6.8 9l1.2 1-1 1.2c-1.6 1.9-4.8 2.9-8.4 2.9-2.2 0-4.5-0.3-6.8-1q0.6 0.7 1.3 1.5c1.3 1.3 3 2.4 4.6 2.7l3 0.6-2.2 2.1c-2.3 2.2-6 3.2-9.8 2.8-2.8-0.3-5.6-1.2-8.2-3-0.5 1-1.1 2-1.8 2.9-1 1.3-2.3 2.4-3.6 3.2 1.5 2.5 2.7 5 3.5 7.6 1 3.3 1.4 6.8 0.7 10.9l-3 0.2c-0.9-2.8-2.2-4.7-3.8-5.9-1.5-1.3-3.3-2.1-5.2-2.6l-4.5-2.7q-1.1-0.7-2.2-1.6v-0.1h-0.1c-3.5-3.7-9.8-4-14.4-2.4-5.6 3.2-13.1 4-13 11.7l-2.7 1c-2.8-3.2-5.5-7.3-6.5-11.5q-0.6-2-0.5-4.1-0.9 1.1-1.3 2.2c-0.7 1.6-0.6 3.1-0.2 4.2l-2.4 1.8c-1.2-0.8-2.2-2-2.9-3.5-1.4-2.7-2.1-6.4-2-10 0-3.2 0.7-6.4 2.1-9-0.7 0.9-1.6 2.1-2.6 4.2l-2.9-0.6c-0.5-4.3 0.1-7.6 1.4-10.3 3-6.1 10.3-10.6 17.1-10.1 3.2 0.2 6.7 1.3 9.2 3.1l0.1 0.1c3.5 2.2 8.4 3.2 12.8 3 4.3-0.2 8.1-1.4 9.5-3.6v0.1l0.1-0.1 0.2-0.3 0.3-0.2c3.5-2 5.2-6.2 5.7-11.7 0.6-6.7-0.7-15.2-3.1-23.9-2.4-7.2-3.1-15.9-2.3-23.7 0.9-7.8 3.2-14.8 6.8-18.3 2.3-3.8 6.6-8.5 11.6-12.3 4.4-3.3 9.3-6.1 14.1-7.3 5.7-2.4 12.8-4.3 19.4-5.6 5.5-1.1 10.6-1.9 14.6-2.3-5.2-3.2-9.6-7.6-12.9-12.1-3.6-4.9-5.8-10.1-6.1-14.4q-1.7 1.4-3.3 2.8l-0.1 0.1-2.3 2-0.2-3q-0.2-2.7-0.4-5.5v-0.4c-1.6 2.1-3.5 4-5.4 5.6-3.4 2.7-7 4.6-9.8 4.5h-1.9l0.4-1.9c0.6-2.2 1.3-3.7 1.9-5 0.7-1.4 1.1-2.3 0.6-3.5-3.5 1-10.9 1.6-19.9 2.4-3.6 0.3-7.5 0.6-11 0.9q-0.4 0.7-0.9 1.2v0.1c-1.8 2.5-2 2.7-1.6 11.8l-2.3 1.5c-2.1-1.2-4.1-3.3-5.8-5.9-1.3-2-2.5-4.3-3.4-6.6l-2.6 2.2q-0.8 0.7-1.6 1.3l-0.3 0.3c-0.5 0.4-1.2 0.9-1.9 1.4-3 2-7.1 4.8-6.9 13.2l-2.7 1.1c-3.9-4.6-5.2-9.3-5-13.5 0.1-4 1.6-7.6 3.2-10.2-1.6 0.6-3.1 1.5-4.5 2.5-2.3 1.8-3.9 3.9-4 5.6v0.1l-3 0.5c-1.3-3.7-0.6-8.2 1.1-12.5 1.4-3.6 3.5-7 5.7-9.7-0.9 0.3-1.7 0.7-2.4 1.2-1.2 1-2.5 0.9-3.9 3.6-2.8-0.8-2.6-1.9-2.5-3.2 0.2-2.2 1-4.2 2.5-7.1 3.3-6 8.8-9.2 15.5-8.7 1.7 0.2 3.4 0.5 5.1 1l1.2 0.5q1 0.4 2 0.9c2.2 0.5 6.5 0.3 11.2-0.7 4-0.9 8.2-2.4 11.7-4.6l0.1-0.1c6-3 13.5-5.7 19.9-7.5 3.3-1 6.4-1.6 9-2-3.9-2.4-8.2-5-12.7-7.7l-15.5-9.5c-0.4 1.6-1 3.1-1.8 4.4-1.2 2.1-2.9 3.7-4.9 4.7-1.9 1.1-4.2 1.6-6.5 1.4-1.8-0.1-3.7-0.7-5.5-1.9l0.1-2.7c1.7-0.7 2.9-2.6 3.6-4.8 0.3-1.1 0.5-2.3 0.5-3.4-1.3 1.7-2.8 2.9-4.7 3.5-2.9 1.1-6.6 0.7-11.4-1.3l-0.7-2.3c0.8-1.1 2.7-2.9 5-4.7 1.4-1.1 2.9-2.3 4.4-3.3-1.8-1.4-3.7-2.6-5.6-3.6-2.3-1.2-4.6-2-6.9-2.2l-2.6 1.5c-5 2.9-8.7 4.6-10.5 3.5-2.1-1.2-1.4-4.8 2.7-12.2l0.1-0.2h-0.1c-1.4 0.2-2.8 0.3-4.1 0.5-4.3 0.4-7.5 0.7-8.4 5.3l-2.9 0.4c-1.7-3.5-1.6-7.2-0.4-10.6 0.7-2.3 2-4.5 3.5-6.3 1.4-1.8 3.1-3.2 4.8-4q0.2-0.1 0.5-0.3-1.8-0.8-3.7-1c-1.3-0.1-2.6 0-3.8 0.3l-1.2 0.5q-1.1 0.4-2.1 1.1l-2.3-1.7c1-3.6 2.8-6.6 5.3-8.9l0.4-4.9q0.2-1.8 0.7-3.3c0.9-2.9 2.8-5.1 5.4-6.6 2.5-1.3 5.8-1.9 9.7-1.6 6.5 0.6 12.2 3.4 16.2 8.7 2.5 3.3 4.1 7.9 5.6 13.2 1.4 0.4 3.6 1.5 6.5 2.8 7.3 3.5 19.5 9.2 32.6 13.3 0.3-3.6 1.4-7.2 3.3-10.6q0.8-1.6 1.8-3.1v-0.1c5.2-7.3 11.7-12.4 19.4-15.9q1.9-0.9 4-1.6-0.8-0.2-1.5-0.5c-4.4-1.8-5.4-6.1-0.6-17.8q0.1-0.2 0.2-0.4c-3-0.5-6.1-1.2-9.2-1.9h-0.1c-5.6-1.6-9-3.9-10.4-7.7-1.3-3.5-0.7-8.2 1.6-14.8v-0.1l0.1-0.1 0.3-0.5 1.2-2.1zm87.3 320.6c-2.7 6.2-3.8 4.8-4.6 11.4q-0.1 1.3 0.2 2.3c0.3 0.8 0.8 1.4 1.4 1.9q0.4 0.2 0.8 0.4h0.3q1.5 0.3 4-0.4c3.9-1.6 5.8-5.5 9.1-8l2.1 1.3q-0.6 0.9-1.2 1.7-1 1.7-1.5 3.2l-0.2 0.7c-0.6 3.6-1.3 7.8 7.1 9.8 4.1 0.3 9.5-1.3 14.9-5.4l0.1-0.1 0.1-0.1c1-0.5 1.8-1.3 2.4-2.2 0.6-0.9 1.1-2 1.5-3.1l0.5-1.6 1.6 0.7h0.1v0.1c2.1 0.9 5.2 1.4 7.9 1.4 2.5-0.1 4.6-0.6 5.1-1.7 0.5-1.1 0.5-2.1 0.1-3.3-0.4-1.4-1.4-3-2.8-4.9l-1-1.4-1.4-1.6 3.5 0.5q0.3-0.2 0.5-0.3-0.1-0.1-0.2-0.4c-0.3-0.5-0.9-1-1.7-1.5l-6.7-3.9 7.7 1.1q1.6 0.2 3.2 0.3c4.6 0.2 8.8-0.4 11.8-1.5q1.8-0.7 2.9-1.5c-1.8 0.1-3.7-0.1-5.5-0.7-3.3-1-6.4-3.1-8.2-5.8l-3.4-5 5.4 2.7c2.4 1.3 5.5 1.5 8.4 0.7 1.9-0.4 3.7-1.3 5.1-2.6h-0.2c-3.9-1.1-7.5-3.4-10.1-6.5-2.5-3.1-4-7-3.6-11.1q0.1-1.1 0.4-2.3 0.3-1.2 0.5-2.4c0.4-3.6-0.5-6.9-2.2-9.4-1.8-2.5-4.5-4.3-7.8-5.2q-1.1-0.2-2.1-0.4-3.7 0.3-6.8-0.2c-4.3-0.8-7.7-2.7-10.1-5.1-2.5-2.5-3.9-5.7-4.1-9q-0.2-1.8 0.1-3.6c2.2-13.2 3.9-27.4 4.5-32.4 0.1-0.9 0.1-1.4 0.2-1.8l0.1-1.1 1.1-0.2c4.1-0.8 9-3.5 13.3-6.9 4.2-3.4 7.8-7.4 9.2-11l0.1-0.3 0.1-0.2c4.1-4.9 7.5-15 9.7-26.5 2-11.5 2.8-24.2 1.4-34.3l-0.3-2.1 2.1 0.4c2.2 0.4 5-0.4 7.6-1.8 1.5-0.9 2.9-1.9 4.1-3.2q-1.5 0-3.2-0.5c-2.9-0.7-6.4-2.3-9.5-4.3l-5-3.3 6 0.5q1.2 0 2.4-0.1c2.4-0.4 4.6-1.5 6.1-3 1.3-1.1 2.1-2.5 2.5-4-1.5 0.5-3.2 0.6-5 0.5-3-0.3-6.2-1.4-8.9-3.2-2.3-1.2-4.2-5-5.5-10.2-1.4-5.2-2.2-11.9-2.3-18.7-0.2-8.1-0.2-18.6-0.2-27.9 0.1-7.4 0.2-14 0.4-17.9-0.1-2 0.2-5.2 0.7-8.4 0.5-3 1.3-6 2.1-8v-0.1c1.2-2.5 3.1-4.6 5.3-6 1.6-1 3.3-1.7 5-1.8 1.8-0.2 3.5 0.2 4.9 1.3 0.9 0.7 1.6 1.6 2.1 2.8q0.4 0.4 0.8 0.8c1.5 1.7 1.8 4 1.3 6.6-0.5 2.2-1.7 4.7-3.5 7.1q-1.3 1.9-3 3.6 1.1 0 2.1-0.4c1.5-0.5 2.8-1.3 3.2-2.4l2.6-6.6 0.4 7.1c0.1 2-1.4 5.1-3.5 8-1.2 1.6-2.7 3.3-4.2 4.7q1.3-0.3 2.7-1c1.6-0.7 3.1-1.6 4.5-2.7q1-1.4 2.4-2.5l2.2 2.1q-1 1.4-2.4 2.5c-1.7 2.3-2.8 5.2-3.3 8.1-0.7 4-0.1 8.1 1.7 10.6 2.2 2.2 3.7 7.5 4.4 13.8 0.5 5 0.5 10.6 0 15.9q1.2-1.1 2.3-2.2c7.8-7.8 13.4-18 15.7-28.1 2.2-9.9 1-19.7-4.5-27q-1-1.3-2.2-2.5l-3-3 4.3 0.4c2.4 0.2 5.1 1.5 7.4 3.1q0.5 0.4 0.9 0.7-0.5-1.4-1.1-2.7c-1.4-3.1-3.4-5.6-5.6-7.2-2.2-1.6-4.6-2.4-7-2.3q-1.6 0.2-3.1 0.9l-1.6 0.7-0.5-1.7c-0.6-1.7-1.6-3.7-2.6-5.5-1.3-2.1-2.7-4-3.6-4.9l-0.1-0.1c-3.4-4.5-6.7-7-9.7-8-3-1.1-5.9-0.6-8.4 0.9-2.7 1.5-5.2 4.1-7.2 7.3-4.3 6.5-6.8 15.2-6.8 21.6v0.2 0.2c-1.6 7-1.7 18.3-0.8 31.1 1.1 17.3 3.9 37.3 6.5 53.5 2.1 7.2 3.7 22.3 2.7 37.2-0.6 8.9-2.1 17.9-5.1 25.1-3 7.4-7.6 13-14.1 15q-3.1 0.9-6.6 0.7l-0.1-0.1c-9.2-1.4-14.4-4.9-17.8-10.2-3.4-5.1-4.8-11.8-6.6-19.9v-0.1c-1.5-13.1-2.4-25.6-2.9-33-0.1-1.9 0.5-3.3 0.9-4.2q-0.8-1-1.3-1.9l-0.2-0.4v-0.5c0.2-1.1 0.8-1.6 1.7-1.5h0.1q0.6 0.1 1 1h0.1c0.7 1.2 2.1 2.8 3.6 4.2 1.4 1.2 3 2.2 4.2 2.6h0.2l0.2 0.1q0.9 0.6 1.9 0.8c2.3 0.6 4.9 0.1 7.4-1.3 2.6-1.4 5-3.6 6.7-6.5q0.7-1.1 1.2-2.3-2.7 0.7-5.2 0.4c-2.2-0.3-4.1-1.1-5.9-2.4-1.6-1.3-3.1-3.1-4.1-5.2-1.9-3.8-2.7-8.8-2-14.6l2.9-0.6c0.8 1.3 1.8 2.3 2.9 2.9 1.1 0.7 2.5 0.9 3.9 0.8 1.5-0.1 3.1-0.6 4.6-1.5 1.5-0.9 2.9-2.1 4.3-3.6q-1.3-0.1-2.7-0.7c-2-0.7-4-2.1-5.9-3.9-2.5-2.4-4.9-5.7-6.7-9.6l1.2-2.2c6.8-1.1 10.6-2.2 12.5-3.5q0.8-0.5 1.1-1.1c-2 0.7-4.1 0.7-6.2 0.2-2.4-0.7-4.7-2.2-6.4-4.3q-0.9-1.1-1.5-2.3l1.4-2.3c2.9 0.1 5.6-0.3 8.2-0.9 3.2-0.8 5.9-2.1 7.8-3.7 1.5-1.3 2.5-2.7 2.8-4.2-3.7 0.8-7.7 0.4-11.5-1-4.4-1.6-8.4-4.6-10.6-8.4l2.1-2.1c2.8 1.7 6.7 1.8 10.6 0.5 3.3-1.1 6.5-3 9.2-5.6-5.6-0.6-10.4-2.5-13.9-5.5-4.2-3.6-6.7-8.6-6.6-14.7v-0.3-0.1h0.1c0.4-3.5 0.4-6.9-0.1-10-0.5-3.5-1.5-6.6-3.1-8.9-1.4-2.1-3.3-3.5-5.5-3.8q-1-0.2-2.1 0l-1.3-2.7q0.2-0.1 0.3-0.3c2.4-2.5 3.2-5.8 3-9-0.2-2.7-1.2-5.3-2.6-7.2l-7.7 11.5-2.6-1.7 7.2-10.7q-1.2 0.2-2.4 0.6c-2.1 0.6-4.1 1.6-5.4 2.7l-2.9-0.4c-3.4-0.9-12.9-2-23.1-3.1-2.6-0.3-5.2-0.6-7.6-0.9-3.9 0.1-7.3 0.7-9.9 1.7-1.8 0.7-3.1 1.6-4 2.5-0.8 0.9-1.2 1.9-1.2 2.9q0 0.8 0.3 1.8l0.9 2-2.3 0.1c-2.1 0.1-5.1 0.6-8 1.2-2.7 0.7-5.1 1.5-6.3 2.2l-0.1 0.1h-0.2q-1.2 0.5-1.6 0.9-0.1 0.1 0 0.2 0 0.3 0.5 0.8c0.9 0.9 2.7 2 4.9 3l10.4 4.7-11.3-1.8q-1.3-0.2-2.4-0.4c-1.2-0.3-2.2-0.5-2.9-0.4-0.9 0-1.3 0.8-1.2 3.8q0.3 1.2 0.6 2.4c0.3 1.8 0.7 3.6 1 5.6 3.5 2.8 6.6 2.2 9.6 1.6 2.3-0.5 4.5-1 7.1-0.3q1.7 0.1 2.9 0.7 1.3 0.7 1.9 2 0.6 1.1 0.5 2.7-0.1 2.3-1.8 5.5l-0.1 0.1c-0.3 0.4-0.5 1-0.7 1.5-0.4 0.8-0.8 1.6-1.3 2.3q2.3 1.7 4 2.2 1.2 0.4 2.1 0.1 0.7-0.2 1.3-0.9 0.6-0.8 1-2.1l1.6 0.5q-0.2-0.2-0.4-0.5l2.4-1.9c0.3 0.3 0.9 0.5 1.7 0.6 1.2 0.2 2.6 0.1 3.7 0l0.1-2.9c0.1-2.5 0.2-4.9 0.5-7.2 0.2-2.2 0.5-4.5 0.8-6.8l0.4-3.4 2.3 2.6q1.6 1.9 3.4 2 1.8 0.2 4.1-1.5c4-3.1 6.7-5.2 8-6.2q1.7-1.1 3.1-2.1 1.4-1.1 2.5-1.7c6-4 7-3.9 2.8 0.4-0.6 1-2 2.5-4.3 4.2q-0.9 0.9-1.9 1.9 0.4 3.1-2.1 6.5-2.6 3.5-8.5 7.4l-0.4 0.3-0.6-0.1q-1.5-0.1-3.2 0.9c-1.3 0.8-2.7 2.1-4.2 3.8l-0.2 0.3 0.1-0.1h0.5 6.7 0.1 0.2l3 0.2 0.6 0.1 0.4 0.4 0.5 0.1 0.4 0.4 1.4 0.1 0.7 0.1 0.4 0.5 0.4 0.5-1.7 1.3v0.7l-2.1-0.1-0.7-0.1-0.4-0.4-0.4-0.1-0.4-0.4-2.3-0.2h-0.2-6.2l-2.3 1.4-0.2 0.1-0.3 0.1c-1.3 0.2-3.3 0.4-5 0.1q-1.1-0.1-2-0.5-0.5 1.6-1.4 2.7-1.2 1.6-2.9 2-1.7 0.5-3.8-0.2-2.5-0.7-5.6-3.1c-1.5 0.6-3.6 0.6-6.8-0.3l-0.5-0.2-0.3-0.4c-0.7-0.8-1.5-1.4-2.3-1.7q-0.6-0.2-1.2-0.1-0.4 0-0.7 0.3-0.2 0.2-0.4 0.6v0.1c-4 9.5-3.7 12.8-1.2 13.9 1.6 0.6 4.2 0.7 7.3 0.7q1 0.1 2.1 0.1 6.4-1.3 13.6-1.7h0.2l0.2 0.1q9.9 2 17 0.3 7-1.7 11.6-7.2l2.3 2.1q-5.2 6.1-13.1 8.1-7.8 1.9-18.2-0.3-0.9 0.1-1.7 0.1l-10.6 1.6c-9.1 1.3-18.6 6.1-25.5 12.6-3 2.7-5.4 5.7-7.2 8.9-3 6.1-3.7 12.3-2.1 18.6 1.5 5.9 5 12 10.4 18.2q-3.5-15.6 0.6-26 1.5-3.9 4.1-7.1l0.1-0.2h0.1q5.7-6.8 16.3-10.2h0.1 0.1c16.9-3.1 27.8-5.6 33-7.3 3-1 2.5-0.9 4.6-2.1q0.5 0.3 0.7 0.8 0.9 1.7-1.2 3-1 0.5-3.1 1.2c-5.3 1.8-16.4 4.3-33.4 7.4q-9.5 3-14.5 9-3.5 9.3-2.9 16.3 0.4 5.2 3 9 1.9-8.3 8.2-14.4 7.3-7.3 20.7-11.5l0.2-0.1h0.1q5.2-0.5 9.5-1.2 12.7-1.8 18.8-4.4 5.1-2.2 4.9-4.5v-0.1l3.1-0.4v0.2q0.5 4.6-6.8 7.7-6.5 2.7-19.6 4.6-4.3 0.6-9.4 1.2-1.6 0.5-3.1 1c-3.4 2.6-6 5.1-7.6 7.6q-1.1 1.6-1.6 3.2 4.5-3.6 10.6-5.2c5.3-1.4 11.6-1.8 18.7-1.1q7.5-0.2 13.1-2.1 5.4-1.9 9-5.7l4.9-5.2-2.3 6.8c-1.5 4.5-3.9 8.3-7 11.4q-2.9 2.8-6.6 4.7 9.4 1.4 15.2-0.4 6.8-2.1 8.5-9l3 0.8q-2.2 8.5-10.6 11.1-8 2.5-21.8-0.5l-5.8-1.2 5.6-1.8c4.1-1.2 7.6-3.3 10.3-6q2-1.9 3.6-4.3-2.3 1.3-5 2.2-6.1 2.1-14.2 2.3h-0.1c-6.8-0.7-12.7-0.3-17.7 1-4.9 1.3-8.9 3.6-12 7.1l-2.2 2.4-0.5-3.3c-0.5-3 0.4-6 2.3-8.9q0.6-0.9 1.2-1.7-4.2 2.5-7.3 5.5-6.7 6.6-7.8 15.9l-0.3 3.2-2.3-2.2q-5.4-5.4-6-13.5v-0.1q-0.4 8.7 3 20.1l1.7 5.8-4.3-4.2c-8.1-8.1-13.3-16.2-15.3-24.1q-0.9-3.4-0.9-6.8c-13.7-4.3-26.4-10.2-34-13.7-5.4-2.6-7.8-3.5-10.3-9.1-2.2-4.9-4.9-12.1-10.1-13.7l-0.4-0.1c-2-0.1-4 0.2-5.7 0.8-0.8 0.4-1.5 0.8-2 1.3v0.1l-0.1 0.1-0.1 0.1q-0.5 0.6-0.6 1.5-0.1 0.8 0.2 1.8 0.5 0.5 1.5 0.9l3.2 0.8-0.1 1.2-2.6 1q-0.2 0.1-0.3 0.1l-0.9 0.7q-2 1.8-2.5 4.1-0.7 2.9 0.7 7l1.1 2.9 0.7 1.7-0.6 1-3-3c-1.7 0.1-2.9 1.4-3.5 2.9-0.3 0.8-0.4 1.8-0.3 2.6 0.1 0.9 0.5 1.6 1.1 2.3 1.4 1.2 3.9 1.9 8 1l0.3-0.1 2.1-0.7 1.5 1.2-1 1.5q-1.3 2-2 3.6c-0.8 3.2-0.6 4.2 0.1 4.4 0.7 0.2 1.8 0 3-0.2h0.4q1.2-0.7 2.7-1.6l0.4-0.3h0.5q2.1 0.1 4.2 0.7l0.5 0.1q2.1 0.7 4.2 1.8c2.7 1.4 5.4 3.3 7.8 5.3l1.8 1.4-1.9 1.1c-1.9 1.1-4.1 2.7-6 4.3-1.1 0.9-2.1 1.7-2.9 2.5 3 1 5.3 1.1 7 0.4 2.2-0.7 3.7-2.6 5.1-5.4l2.8 0.1c1.2 2.7 1.2 6 0.4 9-0.6 1.9-1.6 3.7-2.9 5q1 0.4 2 0.4c1.6 0.2 3.3-0.2 4.7-1 1.5-0.8 2.8-2 3.8-3.6 0.9-1.5 1.5-3.4 1.7-5.4l0.2-2.5 2.1 1.3c5.8 3.5 11.7 7.1 17.5 10.6 5.4 3.3 11.1 6.8 17.3 10.6l-1.3 2.8c-2-0.6-7 0.3-13.1 2-6.2 1.7-13.4 4.4-19.3 7.3-3.8 2.4-8.3 4-12.5 4.9-10.1 2.2-12.2-0.9-20.5-1.6-2.3-0.2-4.5 0.1-5.5 0.8l-0.1 0.1-0.1 0.1q-0.5 0.2-1 0.5-1 0.8-1.5 1.6-0.5 0.7-0.5 1.3c0.3 4.3 5.2 1.4 7 1.9l1.2 3c-1 1.3-4.9 3.2-5.2 4.4q-0.3 1.4 0 2.6 0.4 1.2 1.5 2.2 1.3 1.1 3.6 1.9l4 1-3.4 1.9c-1 1.5-1.2 3.8-1.1 5q0.1 1.1 0.7 1.8 0.6 0.8 1.7 1.1c1.4 0.4 3.4 0.2 5.8-1l0.4-0.3c1.6-1.2 3.3-2.9 4.8-4.9l-0.3-1.1 0.1-0.1 1.9-1.1 1.2 1.7q0.4 0.6 0.9 1.1l0.7 0.7q0.8 0.6 1.5 1 0.2 0.1 0.5 0.2 0.2 0.1 0.4 0.2c1.6 0.4 3.6-0.1 6-2.9l0.1-0.2 0.3-0.7 0.9-0.1c4.5-0.4 8.3-0.7 11.8-1 10.1-0.8 18-1.5 20.3-2.6l1.1-0.5 0.8 1c2.3 3.2 1.5 4.9 0.2 7.7q-0.5 0.9-0.9 2c1.7-0.6 3.6-1.8 5.5-3.4 2.9-2.4 5.7-5.6 7.3-8.8l2.7-5.4 0.2 6c0.1 1.7 0.2 3.4 0.3 5.3q0 1.1 0.1 2.3c1.2-1.1 2.5-2.2 4-3.4l3.8-3.2-1.4 4.8c-1.1 3.9 1.1 9.9 5.3 15.8 4 5.5 9.9 10.8 16.7 13.9l0.2 0.1q4.2 0.7 7.2 3.2l0.1 0.1c4.2 3.5 6.9 9.7 8.2 18.1 2 12.2 1.1 29.5-2 51.1l-2-0.2q0.2 0.3 0.3 0.6c2.6 5.5 7 10.6 14.1 15.1l0.1 0.1c3.7 2.9 10.5 5 17.6 6.2 8.6 1.4 17.5 1.6 21.9 0.5l0.5-0.2 0.5 0.2c3.9 1.5 7.5 3.4 10 6.1 2.7 2.7 4.1 6.2 3.4 10.7h-0.1c-1.5 6.8-3.9 11.6-7.6 14.1-3.9 2.5-8.8 2.5-15.2-0.4h-0.1l-0.1-0.1c-4.4-2.5-9-2.7-13.3-1.4q-0.4 0.2-0.9 0.3c-4.2 1.9-8.9 5.5-11.1 8.8 0 1.6 0.9 3.7 2.3 5.1q0.2 0.2 0.4 0.4c0.5 0.4 1.2 0.7 1.9 0.8q0.4 0.1 0.9 0.1c0 0 5.2-8.9 7.1-7.7zm-56.6-297.4c-1.6 1.1-3.5 1.8-5.6 2.2 3.9 0.8 4.9-0.6 5.6-2.2zm-74.4 141.8q0.9 1.8 2 3.4 1.1 1.7 2.3 3c-0.1-2.8-0.1-4.6 0.1-5.9q-0.5 0.1-1 0.1-1.7 0.1-3.4-0.6zm44-159q-0.6-0.8-1.2-1.8c-1.4 4.6-1.7 7.9-0.8 10.4 1 2.6 3.7 4.4 8.4 5.7 5.9 1.4 11.7 2.7 16.5 2.2 4.2-0.4 7.7-2.2 9.6-6.6q-0.4-0.7-0.7-0.9c-0.3-0.1-0.6-0.1-1 0.1q-5.9 2.1-12 1.8-6.1-0.3-12.3-3l-0.2-0.1-0.1-0.1c-2.7-2.1-4.3-4.7-6.2-7.7zm-65.3 159.6c-0.4 1.2-0.6 2.6-0.7 4 0 2.5 0.4 5.1 1.9 7.8 0.5-3.2 1.7-5.6 3.2-7.3q-1-0.2-1.8-0.8-0.6-0.4-1-0.9c-0.6-0.8-1.2-1.8-1.6-2.8zm-5.2-14.5c-1.1 1.7-2.1 3.6-2.9 5.6-0.7 1.7-1.2 3.4-1.4 5.1q1.1-1.3 2.6-2.4c1.6-1.2 3.4-2.3 5.3-3q-1.4-1-2.3-2.4-0.9-1.4-1.3-2.9zm-2.7-10.6c-1.6 2.2-3.5 4.3-4.3 7.1 1.2-1.1 4.5-4.2 6-4.7l-0.3-0.2q-1-1-1.4-2.2zm-11.8-86q-1.1 0.7-2.1 1.6l-0.8 3.2q1.7-0.2 3.3-0.1 2.1 0.2 4.2 1.1c-0.2-1.5-0.1-3.1 0.3-4.6 0.4-1.4 1.1-2.7 1.9-3.9-2.6 0.5-4.9 1.3-6.8 2.7zm-1-3.1q3.3-2 7.5-2.7-1.2-0.7-2.3-1c-1.2-0.2-2.2-0.1-2.9 0.2-0.8 0.4-1.3 0.9-1.7 1.3 0 0.1 0-0.1 0 0zm229.8 278.1c-0.6-1.1-1.6-2.1-2.6-2.8q0.2 0.5 0.3 0.9 0.7 1.9 0.7 3.9 1.3 0.6 2.5 2.2 0.3 0.4 0.6 0.9c-0.1-2-0.6-3.7-1.5-5.1zm-61.8 11.7c0.3 1.3 0.6 2.6 1 3.8q0.2-1.1 0.7-2.2 0.7-1.5 1.8-2.9-0.8-0.1-1.5-0.4-1.3-0.3-2.3-1 0.1 1.4 0.3 2.7zm16.1 8.9q1-1.6 2.5-2.8-2-0.7-3.5-2-0.3-0.3-0.6-0.5-1.1-0.9-1.7-2c-0.2 1.6-0.2 3.1-0.1 4.5 0.3 2.1 1 4.1 2.3 5.7q0.3-1.5 1.1-2.9zm-114.8-19.1q-0.5-1.4-1.1-2.8-0.2 0.6-0.3 1.2-0.5 1.4-1.4 2.3 0.8 0.5 1.6 1.2 1 0.8 2 2-0.3-2-0.8-3.9zm-7.4-1.4c1.5-0.1 2.5-0.3 2.8-0.9 0.6-0.9 0.6-2.9 0.2-6.8v-0.5l-0.1-0.5-0.5-5.6 2.8 4.6c1-0.6 2-1.5 2.8-2.5 1-1.3 1.7-2.7 1.6-3.7l-0.1-3.7 2.7 2.5c2.6 2.3 5.6 3.5 8.5 3.8 1.8 0.2 3.6 0 5-0.5-1.1-0.7-2.2-1.5-3.1-2.5-1.8-1.8-3.1-4.1-3.4-6.3l-0.4-2.9 2.7 1.4c2.6 1.4 5.9 2.1 8.8 2.1 1.9 0 3.6-0.3 4.8-0.8-3.4-3.2-5.6-6.6-6.3-9.4q-0.5-1.6-0.3-3 0.1-1.5 1-2.6 0.9-1 2.3-1.5c5.5-4.8 3.3-12.7 1.4-19.3q-0.5-1.8-1-3.5-0.4-1.3-0.6-2.5c-0.7-4-0.1-7.8 1.4-10.9 1.6-3.2 4.1-5.6 7.2-6.6q0.6-0.2 1.2-0.3c4.4-2 10.3-3.4 16.1-4.3 6.5-1 12.8-1.2 16.9-0.6l1.4 0.2-0.1 1.4c-0.2 5.4 0.3 10.5 1.9 15.2 2.8-20.4 3.6-36.7 1.8-48.2-0.8-5.4-2.2-9.6-4.2-12.8q-0.7 0.4-1.2 0.8-0.8 0.5-1.4 0.9 1.7 10.3 1.3 16.9-0.4 7-3.3 10.4-0.2 1.6 0 2.8 0.3 1.1 0.9 1.6 0.6 0.6 1.7 0.8 1.5 0.2 3.7-0.2l0.6 3q-2.8 0.6-4.7 0.3-2.2-0.4-3.5-1.6-1.3-1.3-1.7-3.4-0.3-1.8 0-4.3l0.1-0.5 0.4-0.3q2.3-2.5 2.7-8.8 0.4-6.6-1.5-17l-0.1-0.9 0.7-0.6q1.1-0.9 2.4-1.7 0.5-0.3 0.9-0.6-2.9-3.1-7.2-3.8v-0.1c-3.3-0.2-11 0.7-19.5 2.4-6.6 1.4-13.5 3.2-19 5.5l-0.1 0.1h-0.1c-4.4 1.1-9 3.7-13.1 6.8-4.8 3.6-8.8 8-10.9 11.5l-0.1 0.2-0.2 0.2c-3.1 2.9-5.2 9.2-6 16.5-0.8 7.4-0.2 15.7 2.1 22.4l0.1 0.1c2.5 9 3.9 18 3.2 25.1-0.5 6.3-2.7 11.3-7 13.9-2.1 2.9-6.7 4.5-11.8 4.7-5 0.2-10.6-1-14.5-3.5l-0.2-0.1v-0.1c-2.1-1.4-5-2.3-7.8-2.5-2.7-0.2-5.1 0.2-6.4 1.2l-0.2 0.2-0.3 0.1q-0.9 0.3-1.6 0.9c-1.1 1.4-1.6 2.7-1.7 3.7-0.1 0.6 0.1 1.2 0.3 1.7 0.2 0.4 0.4 0.8 0.7 1l0.2 0.1q0.5 0.1 1.2-0.2h0.1q0.8-0.6 1.7-1.2c0.4-0.3 0.9-0.6 1.6-0.9h0.1l0.2 0.4 0.6 1.2 0.5 1.2-0.3 0.1-3.6 2.6c-1 1.3-1.4 2.8-1.2 4 0 0.8 0.3 1.6 0.7 2.2 0.5 0.5 1.1 1 1.8 1.2 1.2 0.5 2.7 0.4 4.6-0.4q1.2-1.1 2.4-2.2 1.3-1.3 2.9-2.6h0.1l2 2.3q-1.5 1.3-2.9 2.6-1.4 1.4-2.4 2.7c-1.5 2.6-1.5 4.3-0.6 5.4q0.5 0.5 1.3 0.9 0.4 0.2 1 0.5c2.1 0.8 5.1 1.2 8.5 1.6 3.1-2.3 7.2-3.4 11.2-3.4 4.1 0.1 8.2 1.5 10.8 4.2 2.2 1.8 4.1 3 5.6 3.5zm-60.7-259.2c-0.9 1.4-1.8 2.9-2.3 4.5-0.4 1.3-0.7 2.6-0.7 4 1.3-1.6 3.2-2.3 5.3-2.7-1.3-1.3-2-3-2.2-4.7q-0.1-0.5-0.1-1.1zm4.7-25.7q0.8 0.2 1.7 0.6 0.3-1.1 1-2.2 0.3-0.6 0.8-1.2l0.2-0.1q0.7-0.8 1.6-1.4l0.2-0.2c-2.6 0-4.7 0.5-6.4 1.4q-2.2 1.1-3.3 3.2c1.2-0.3 2.6-0.5 4.2-0.1zm257.5-11l0.1 0.3h0.3l0.5 0.5 0.7 1 0.4 0.5v0.4l0.8 1 0.4 0.4v0.5l0.4 0.5-0.1 0.6-0.1 1.6 0.4 0.5 0.4 0.4 0.8 0.1-0.1 1.5v0.2l0.5 0.1-0.1 1.5-0.1 0.2 0.5 0.1-0.1 1.3h0.4l-0.1 1.6v0.3l0.4 0.4-0.1 0.5h0.1l0.3 0.5v0.6l-0.2 4-0.1 1.5h-0.5v1.3h-0.5v0.9h-0.5l-0.4 0.3-0.4 0.4-0.2 2.5-0.1 1.6h-0.4l-0.2 2.4-3.1-0.2 0.2-3.1 0.1-0.6v-0.3l0.1-1.5h0.4-0.4l0.1-1.6v-0.7h-0.4l0.1-1.5 0.1-2.1-0.4-0.5 0.1-0.6 0.1-1.1-0.5-0.1 0.1-1.5 0.7-10.5-0.4-0.5v-0.4l-1.2-0.1 0.1-1.5v-0.3h-0.2l-1.1-0.1-0.3-1.1-0.3-1.3 1.9-0.5v-0.1h0.3zm-141.3-47.9l1.6 0.1 1.3 0.1 1.5 0.1v0.5h0.8v0.5h0.4l-0.1 0.9 1.3 0.1v0.4l1.9 0.2 0.1-0.5 1.5 0.1 2.1 0.2 1.6 0.1-0.1 0.9 1.4 0.1-0.2 3h-0.4l-1.7-0.1h-0.7l-0.4-0.5h-0.3l-1.5-0.1-5.1-0.4h-0.5l-0.1 1.3h-0.4v0.4l-1.6-0.1h-0.8l-1.6-0.1 0.1-1.4-1.3-0.1 0.1-1.3-0.4-0.5 0.1-0.6 0.1-2.5-0.7-0.9zm6.7 161.1q8 2.7 12.8 2.6 4.2-0.1 5.7-2.4l1.6-2.7 1.1 3q0.8 2.1 0.6 3.9-0.3 1.6-1.4 2.8-1 1-2.7 1.7-2.9 1-8.2 0.7 1.8 1.2 3.9 1.5 4.3 0.7 9.8-1.8l1.9 2.3q-1.8 2.6-3.7 4.4-3.8 3.6-7.9 4-4.1 0.5-8.3-2.4-1.9-1.3-3.8-3.3l-0.1-0.1-0.2-0.2c-1.5-3.1-2.5-5.6-3.1-7.7-0.5-2.2-0.5-4 0-5.4l0.5-1.4zm12.9 5.7q-4.8 0.1-12.1-2.2 0 0.9 0.3 2.1c0.5 1.8 1.4 4 2.8 6.8q1.6 1.6 3.1 2.7 3.3 2.2 6.3 1.9 3-0.3 5.9-3-3.3 0.7-6.2 0.2c-3.5-0.6-6.6-2.4-9.1-5.6l-2.5-3.1 3.9 0.6q8 1.1 11.4-0.1 1-0.4 1.6-0.9 0.3-0.4 0.4-0.8-2.2 1.3-5.8 1.4zm-32.7-5.7q25-6.3 35.8-17.2 10.6-10.6 7.7-25.8l3-0.6q3.3 16.8-8.5 28.6-11.4 11.5-37.3 18zm18.8-22.7q4.9-2.7 7.1-7.7 2.1-5 1.5-12.5l-0.4-4.5 3.1 3.3q5.1 5.4 6.1 10 1 4.8-2.2 8.5-0.6 3.5-4.5 5c-2.4 0.9-5.7 1.2-10.1 0.8l-5-0.4zm9.9-6.5q-1.6 3.7-4.5 6.4 2.5-0.1 4.2-0.8 2.4-0.9 2.6-2.9v-0.5l0.4-0.3q2.4-2.7 1.7-6.2-0.5-2.4-2.5-5.2-0.1 5.4-1.9 9.5zm-55 142.4q-0.3 0.8-0.6 1.6l0.1 0.2q0.4 1.6 2.2 4.2 1.3 1.7 3.2 4c1.9 1.8 2.3 4.3 1.3 7.8-0.9 3.1-2.9 6.9-6.1 11.6l-2.8-1.1c0.5-2.8 0.6-5.3 0.6-7.5q-0.1-3-0.8-4.8-2.4-2.5-2.4-6.9 0-3.3 1.6-7.8-0.1-1.8 1.1-2.9 0.1-0.1 0.3-0.2zm-1.9 6.1q-0.3 1.7-0.3 3-0.1 3.3 1.6 4.8l0.3 0.3 0.1 0.3c0.7 1.6 1 3.7 1.1 6.2q0 0.7 0 1.4 1.6-3 2.2-5.2 1-3.4-0.4-4.8l-0.1-0.1h-0.1q-1.9-2.3-3.3-4.3-0.6-0.8-1.1-1.6zm91.9-33q2.9-8.6 4.3-15.1 1.3-6.5 1.1-10.8l2.3-1.4c3.5 2.2 5.5 5.3 5.8 9.3q0.5 5.5-3.5 13.5l-0.9 1.6-1.4-1.1h-0.1q0 0-0.5 0.3c-0.8 0.5-1.7 1.4-2.7 2.7q-0.8 1-1.7 2.4zm7.4-14.6q-0.8 3.9-2.1 8.4l0.1-0.2q1.3-0.8 2.4-0.8 3-6.3 2.7-10.6-0.3-2.9-2-4.9-0.2 3.6-1.1 8.1zm34 60.3q-3.4-2.3-5.5-2l-3.5 0.5 2-2.9c1.9-2.7 4.1-4.2 6.7-4.7 2.6-0.4 5.4 0.3 8.5 2l0.2 0.1 0.1 0.1c2.2 1.9 3.5 4.1 4 6.5 0.5 2.4 0.2 5-1 7.9l-0.9 2.3-1.6-1.8q-5.2-5.5-9-8zm-2.6-4.7q2 0.6 4.3 2.1 3.4 2.3 7.7 6.6 0.4-2 0.1-3.8-0.5-2.5-2.9-4.6-3.7-2-6.4-1.6-1.5 0.2-2.8 1.3zm-58.7-266q1-1.4 1.4-2.6-2 1.5-5.1 3.9-3.2 2.4-6.2 2.2-1.7-0.1-3.2-1.1-0.3 1.9-0.5 3.9-0.1 1.4-0.2 2.9 1-0.9 1.9-1.5c1.6-0.9 3.1-1.4 4.7-1.3q5-3.5 7.2-6.4zm5.3 324.6q1.5-1.6 3.5-2.7-0.2-0.2-0.4-0.3-0.9-0.7-1.6-1.6c-0.6-0.8-1.1-1.8-1.5-2.7q-1.9 3.6-2.4 6.7-0.4 2.1-0.2 4.1 1-1.9 2.6-3.5zm-149-29.6c-1.8 0.2-2 5.7-2.2 6.9 0.9-1.1 4.9-4 3.5-5.6q-0.3-0.6-0.4-1.2-0.2-0.6-0.2-1.3-0.4 0.6-0.7 1.2zm2.6 11.2q-0.3 1.6-0.4 3.2c0 2.7 0.4 5.3 1.2 7.5q0.2-0.6 0.4-1.2c0.8-1.9 2.3-4 4.9-6.1-1.9-0.2-3.4-0.8-4.5-1.7q-1-0.7-1.6-1.7zm8.5 8.4q-0.1 1.7 0.3 3.5c0.6 2.4 1.9 4.8 3.5 7 0.5-3.2 1.8-4.9 3.5-6q-1.8-0.4-3.2-1.1-1.1-0.4-2-1-1.4-1-2.1-2.4zm195.1-283.6l-1.6 1.8c-3.4 4.2-8 7.4-12.7 8.9-2.6 0.8-5.2 1.2-7.7 1 1.7 1.3 3.6 2.4 5.7 3.2 3.8 1.3 7.9 1.6 11.2 0.4l1.6-0.6 0.5 1.7q0.2 0.9 0.2 1.9c-0.1 2.6-1.5 5.1-4 7.1-2.2 1.8-5.4 3.3-9 4.3-1.9 0.4-3.9 0.8-6.1 0.9 1.3 1.4 2.9 2.4 4.5 2.8 1.7 0.5 3.5 0.4 5.1-0.4q0.5-0.3 1.1-0.7l2-1.7 0.5 2.6c0.4 2.8 0.1 4.9-2.7 6.7-2 1.4-5.6 2.6-11.7 3.7 1.5 2.7 3.3 5 5.1 6.8 1.7 1.6 3.3 2.7 4.9 3.3 1.3 0.5 2.5 0.6 3.5 0.1q0.5-0.2 0.9-0.6l2.5 1.8c-2.2 3.9-5.1 6.8-8 8.5-2 1.2-4 1.8-6 2-2 0.1-3.9-0.3-5.7-1.3q-0.7-0.4-1.3-0.9c0 3.6 0.6 6.7 1.8 9.2 0.9 1.7 2 3.1 3.3 4.1 1.3 1 2.8 1.6 4.4 1.8 2 0.2 4.3-0.2 6.7-1.4l2.1 1.8c-0.5 2.2-1.4 4.3-2.5 6.2-2.1 3.3-4.9 6-7.9 7.6-3.2 1.7-6.6 2.3-9.6 1.6q-1.4-0.4-2.7-1.1c-1.6-0.5-3.5-1.7-5.1-3.1q-0.5-0.4-0.9-0.8l0.1 1.5c0.5 7.4 1.4 19.8 2.8 32.8 1.7 7.8 3.1 14.1 6.1 18.8 3 4.5 7.5 7.5 15.6 8.8q3 0.2 5.5-0.5c5.5-1.7 9.5-6.6 12.2-13.2 2.8-6.9 4.2-15.5 4.8-24.2 1-14.6-0.6-29.2-2.6-36.2h-0.1v-0.2c-2.6-16.2-5.4-36.4-6.5-53.8-0.6-8.6-0.8-16.5-0.3-23z"/>
		</g>
		<g id="Group 83">
			<path id="Object 84" class="s1" d="m263.9 870.7q0-5.9 0-11.8c18-5.8 35.9-9.8 53.9-9.8 26.2 0 48.1 11.8 73.6 11.8 32.5 0 60.1-16.7 93.1-16.7 17.9 0 35.9 4 53.9 9.8q0 5.9 0 11.8 0 5.9 0 11.8c-18-6.4-36-10.8-53.9-10.8-32.6 0-60.1 16.6-93.1 16.6-25.3 0-48.2-11.7-73.6-11.7-18 0-35.9 4.4-53.9 10.8q0-5.9 0-11.8z"/>
			<path id="Object 85" class="s1" d="m263.9 919.7q0-5.9 0-11.8c18-5.7 35.9-9.7 53.9-9.8 26.2 0 48.1 11.8 73.6 11.8 32.5 0 60.1-16.7 93.1-16.7 17.9 0 35.9 4 53.9 9.8q0 5.9 0 11.8 0 5.9 0 11.8c-18-6.4-36-10.8-53.9-10.8-32.6 0-60.1 16.7-93.1 16.7-25.3 0-48.2-11.8-73.6-11.8-18 0-35.9 4.4-53.9 10.8q0-5.9 0-11.8z"/>
			<path id="Object 86" class="s1" d="m263.9 968.7q0-5.9 0-11.7c18-5.8 35.9-9.8 53.9-9.8 26.2 0 48.1 11.7 73.6 11.7 32.5 0 60.1-16.6 93.1-16.6 17.9 0 35.9 4 53.9 9.8q0 5.8 0 11.7 0 5.9 0 11.8c-18-6.4-36-10.8-53.9-10.8-32.6 0-60.1 16.7-93.1 16.7-25.3 0-48.2-11.8-73.6-11.8-18 0-35.9 4.4-53.9 10.8q0-5.9 0-11.8z"/>
			<path id="Object 87" class="s1" d="m997.2 868.7q0-5.8 0-11.7c17.9-5.8 35.9-9.8 53.9-9.8 26.1 0 48.1 11.7 73.5 11.7 32.6 0 60.1-16.6 93.1-16.6 18 0 36 4 54 9.8q0 5.8 0 11.7 0 5.9 0 11.8c-18-6.4-36-10.8-54-10.8-32.5 0-60.1 16.7-93.1 16.7-25.2 0-48.1-11.8-73.5-11.8-18 0-36 4.4-53.9 10.8q0-5.9 0-11.8z"/>
			<path id="Object 88" class="s1" d="m997.2 917.7q0-5.8 0-11.7c17.9-5.8 35.9-9.8 53.9-9.8 26.1 0 48.1 11.8 73.5 11.8 32.6 0 60.1-16.7 93.1-16.7 18 0 36 4 54 9.8q0 5.9 0 11.7 0 5.9 0 11.8c-18-6.4-36-10.8-54-10.8-32.5 0-60.1 16.7-93.1 16.7-25.2 0-48.1-11.8-73.5-11.8-18 0-36 4.4-53.9 10.8q0-5.9 0-11.8z"/>
			<path id="Object 89" class="s1" d="m997.2 966.8q0-5.9 0-11.8c17.9-5.8 35.9-9.8 53.9-9.8 26.1 0 48.1 11.8 73.5 11.8 32.6 0 60.1-16.7 93.1-16.7 18 0 36 4 54 9.8q0 5.9 0 11.8 0 5.8 0 11.7c-18-6.4-36-10.8-54-10.8-32.5 0-60.1 16.7-93.1 16.7-25.2 0-48.1-11.8-73.5-11.8-18 0-36 4.4-53.9 10.8q0-5.9 0-11.7z"/>
		</g>
		<path id="Object 91" fill-rule="evenodd" class="s1" d="m1121.7 274.4h12.6v-70.8q0-1.7-0.6-2.8-0.6-1.1-1.6-1.6l-2.5-0.7q-1.3-0.4-2.1-1.2-0.8-0.9-0.9-2 0-1.8 1.4-2.7c1-0.6 2.3-1 4.1-1h39.6q3 0 4.5 1 1.6 0.9 1.6 2.7c0 0.8-0.3 1.5-0.8 2q-0.9 0.9-2.3 1.2-2.3 0.7-3.4 1.3-1.1 0.6-1.3 1.4c-0.2 0.6-0.3 1.4-0.3 2.4v66q0.1 1.7 1.2 2.8c0.7 0.8 1.4 1.3 2.2 1.7q1.2 0.6 1.6 0.6c0.9 0.3 1.6 0.7 2.2 1.2q0.9 0.8 0.9 1.9v19.6q0.1 2.8-0.9 3.9-1 1.1-3.4 1.1-1.4 0-2.4-0.9-1-0.8-2-2.8-3.3-7.8-9.2-12-5.9-4.1-15.2-5.1h-23zm-740.9-10.2l-0.4 3c0 1.7 0.4 3.1 1.1 4.2 0.8 1.1 1.9 1.8 3.3 2.3l2.5 0.9c1 0.2 1.7 0.7 2.2 1.3 0.5 0.5 0.8 1.2 0.8 2 0 1.1-0.6 2-1.8 2.7-1.1 0.7-2.8 1-4.9 1h-19.1c-2.6 0.1-4.3-0.2-5.3-0.7q-1.5-0.8-1.4-2.9 0-1 0.6-1.8c0.5-0.5 1.1-0.9 2.1-1.3l4.2-1.7c1.6-0.6 3.2-2 4.7-3.9q2.3-2.8 3.7-6.7l12.6-38.5 4.2 12.5zm15.3-72.6h20.9l28 78.8q0.5 1.6 1.1 2.3 0.5 0.7 1.8 1c1.7 0.6 2.9 1.2 3.4 1.7 0.6 0.5 0.8 1.2 0.8 2.1 0 1.3-0.6 2.3-1.9 3q-1.8 1.1-5.8 1.1h-34.9q-2.1 0-3.3-0.1-1.2 0-1.9-0.1c-0.4-0.1-0.8-0.2-1.1-0.3-0.6-0.3-1.1-0.7-1.6-1.3q-0.7-0.9-0.7-2 0-1.1 0.7-1.9c0.5-0.6 1.2-1 2.2-1.4q1.9-0.9 2.6-1.9c0.5-0.6 0.8-1.5 0.8-2.5l-0.2-1.7-18.3-53.9zm161.4 8.6q-1.6 2.1-1.6 6v59.1c0 2.3 0.2 4.2 0.7 5.7q0.7 2.1 2.3 3.3 1.6 1.3 4.3 1.9v7c-8.8-0.6-16.5-2.7-23-6.4-6.5-3.8-11.6-8.7-15.4-15.1q-5.6-9.4-6.5-21.9h-12.4v-7.4h12.4q0.8-9.2 4.4-16.8c2.3-5.1 5.5-9.5 9.4-13.3 3.9-3.7 8.4-6.7 13.7-8.8q7.9-3.3 17.4-3.7v7.2q-4.1 1.1-5.7 3.2zm-53.4 74.5q3 0.7 3 3.4 0 1.8-1.4 2.6-1.4 0.9-4.3 0.9h-39.4q-3 0-4.4-0.9-1.5-0.9-1.5-2.7 0-1.3 0.8-2.1c0.6-0.6 1.3-1 2.3-1.2q2.2-0.5 3.3-1.1c0.6-0.3 1.1-0.8 1.4-1.4 0.2-0.6 0.3-1.5 0.3-2.6v-66c0-1.1-0.1-1.9-0.3-2.5-0.3-0.5-0.8-1-1.4-1.4q-1.1-0.5-3.3-1.2c-1-0.2-1.7-0.6-2.3-1.2q-0.8-0.9-0.8-2.1 0-1.7 1.5-2.7c1-0.6 2.5-0.9 4.4-0.9h39.4q2.9 0.1 4.3 1 1.4 0.9 1.4 2.6 0 1.4-0.7 2.2-0.8 0.7-2.3 1.1l-2.5 0.7q-1 0.5-1.6 1.6-0.6 1.1-0.6 2.8v66c0 1.3 0.2 2.3 0.6 3q0.6 1.1 1.6 1.4zm71.2-1.8c1.1-1.7 1.7-4.2 1.6-7.5v-59.1q0.1-3.9-1.6-6c-1.1-1.5-3-2.5-5.6-3.2v-7.3q10.1 0.5 18.2 4.1 8.3 3.5 14.2 9.8 5.9 6.2 9 14.5c2.2 5.6 3.2 11.8 3.3 18.5q0 10.1-3.2 18.3c-2.1 5.5-5 10.3-8.9 14.4q-5.9 6.1-14.1 9.7-8.3 3.5-18.5 4.2v-7.1c2.6-0.5 4.5-1.6 5.6-3.3zm92-81.1v89.8h-37.4q-2.9 0-4.3-0.8-1.4-0.9-1.4-2.8 0-1.2 0.8-2.1 0.7-0.8 2.4-1.2c1.3-0.3 2.4-0.7 3.1-1 0.7-0.4 1.2-0.9 1.4-1.5q0.4-0.9 0.4-2.5v-65.9q0-1.6-0.4-2.5c-0.2-0.5-0.7-1-1.4-1.3q-1.1-0.6-3.1-1.3-1.7-0.4-2.4-1.2-0.8-0.8-0.8-2.1 0-1.7 1.5-2.7 1.4-0.9 4.2-0.9zm34.3 87.9c-2.4 0.7-5.1 1.2-8.1 1.5q-4.5 0.4-10.6 0.4h-9.1v-6.7c3.8-0.2 6.6-1.1 8.2-2.8q2.5-2.4 2.5-7.5v-15c0-3.5-0.9-6.1-2.5-7.9q-2.6-2.6-8.2-3.3v-6.7h8.9q6.2 0 10.8 0.5 4.4 0.5 8 1.5 3.5 1.1 6.8 2.8 5.9 3.1 8.9 8.5 3.1 5.4 3.1 12.8 0 6.5-3 11.3-3 4.8-8.8 7.8c-2.3 1.2-4.6 2.1-6.9 2.8zm10.6-61.6c-0.9 0.6-2 1-3.5 1-0.9 0-1.5-0.3-2.1-0.8q-0.7-0.7-1.3-1.8c-0.4-0.7-0.8-1.5-1.1-2.2-1.7-3.7-3.7-6.6-6.3-8.6q-3.8-3.1-9.8-4.5-6-1.3-14.7-1.5v-7.9h40v23.2q0 2-1.2 3.1zm27.6 63.5q-3 0-4.3-0.8-1.4-0.9-1.4-2.8 0-1.2 0.7-2.1 0.8-0.8 2.4-1.2 2.2-0.5 3.3-1c0.6-0.4 1.1-0.9 1.4-1.5 0.2-0.6 0.3-1.4 0.3-2.6v-65.9c0-1.1-0.1-1.9-0.3-2.5-0.3-0.6-0.8-1-1.4-1.4q-1.1-0.5-3.3-1.2-1.6-0.4-2.4-1.3-0.7-0.8-0.7-2 0-1.8 1.4-2.7c1-0.6 2.4-1 4.3-1h39.4q3 0.2 4.4 1.1c0.9 0.5 1.3 1.4 1.3 2.6 0 0.9-0.2 1.6-0.7 2.1q-0.6 0.8-2.3 1.2l-2.5 0.6q-1 0.5-1.6 1.6-0.6 1.1-0.6 2.9v65.9c0 1.3 0.2 2.3 0.6 3q0.6 1.1 1.6 1.5l2.5 0.6q1.7 0.4 2.3 1.3c0.5 0.5 0.7 1.3 0.7 2.2 0 1.1-0.4 2-1.3 2.6q-1.4 0.8-4.4 0.8zm59.9-67.6v-10.3q-0.1-1.8-0.6-2.9-0.6-1.1-1.6-1.6l-2.8-0.6q-1.3-0.4-2-1.2-0.7-0.8-0.7-2.1 0-1.8 1.3-2.7 1.4-0.9 4.2-1h39.6q2.9 0.2 4.4 1.1 1.5 0.8 1.5 2.6c0 0.8-0.3 1.5-0.8 2q-0.9 0.9-2.4 1.3c-1.4 0.4-2.6 0.8-3.2 1.2q-1.1 0.6-1.4 1.4-0.3 0.8-0.3 2.5v65.9c0 1.2 0.1 2 0.2 2.6 0.2 0.6 0.7 1.1 1.4 1.5q1 0.5 3.3 1 1.5 0.4 2.4 1.2c0.5 0.6 0.8 1.3 0.8 2.1q0 1.9-1.6 2.8c-1 0.5-2.5 0.8-4.3 0.8h-39.6q-2.8 0-4.2-0.8-1.3-0.9-1.3-2.6 0-1.3 0.7-2.2 0.7-0.9 2-1.3l2.8-0.6q1-0.4 1.6-1.5c0.4-0.7 0.6-1.7 0.6-3v-40.8l-17.8 26v-14zm51.4-21.3c1-0.7 2.4-1 4.2-1h37l15.6 37 6.6-19.9v21.7l-18.3 51.2h-3.9l-30.7-75.9c-0.6-1.5-1.2-2.6-1.8-3.5-0.6-0.9-1.2-1.5-2.1-2q-1.1-0.7-3-1.1-2.7-0.3-3.9-1.3c-0.8-0.7-1.2-1.6-1.2-2.6 0-1.1 0.5-2 1.5-2.6zm111.8 0q1.5 0.8 1.5 2.6 0 1.2-0.8 2.1-0.8 0.8-2.4 1.2-2.2 0.7-3.3 1.2-1 0.6-1.3 1.4-0.3 0.9-0.3 2.5v65.9q0 1.7 0.3 2.7 0.3 0.8 1.3 1.4 1.1 0.5 3.3 1 1.6 0.4 2.4 1.3 0.8 0.8 0.8 2 0 1.9-1.5 2.8-1.5 0.9-4.4 0.9h-40.2q-3.6 0-5.3-0.9-1.8-1-1.8-2.9 0-1.3 1-2.2 1-0.8 2.9-1.1c1.7-0.3 3-0.6 3.8-1q1.2-0.6 1.6-1.6c0.3-0.7 0.4-1.6 0.4-2.8v-77.5h37.6q2.9 0.1 4.4 1zm-93.1 69.2c0 2.9 0.5 5.3 1.5 7.1 0.9 1.9 2.5 3.4 4.7 4.6l2.9 1.3q1.5 0.9 2.2 1.7 0.8 0.8 0.8 1.9-0.1 1.6-1.6 2.4c-1 0.5-2.5 0.8-4.3 0.8h-19.7q-3 0-4.6-0.8-1.6-0.9-1.6-2.7 0-0.9 0.6-1.5c0.4-0.4 1.2-0.7 2.2-1.1q4.3-2 6.5-5.4 2.2-3.5 2.2-8.3v-39.8l8.2 19.9zm170.5 7.4c3.9-2.7 7-6.7 9.2-12q0.9-1.9 1.9-2.7 1-0.9 2.6-0.9 2.3 0 3.2 1 1 1 0.9 3.8v23.1h-33.1v-7q9.4-1.1 15.3-5.3zm-9-26.3c-1.6-1.6-3.7-2.6-6.3-3.1v-7.9c2-0.7 3.6-1.5 4.9-2.4 1.3-0.8 2.4-1.9 3.1-3 0.8-1.2 1.4-2.6 1.9-4.2 0.3-1.7 0.9-2.9 1.5-3.5q1.1-1 3.2-1 2.2 0 3 1.2 0.8 1.2 0.7 4.4v25.1c0.1 2.1-0.2 3.5-0.8 4.3-0.6 0.8-1.5 1.2-2.9 1.2q-1.9 0-2.9-1-1.1-1-1.8-3.2-1.2-4.5-3.6-6.9zm-13 38.6h-37.4q-2.9 0-4.3-0.8-1.4-0.9-1.4-2.8 0-1.2 0.8-2.1 0.7-0.8 2.4-1.2 2.1-0.5 3.2-1c0.7-0.4 1.2-0.9 1.4-1.5 0.2-0.6 0.3-1.4 0.3-2.6v-65.8c0-1-0.1-1.9-0.3-2.4q-0.4-0.9-1.4-1.4-1.1-0.6-3.2-1.3-1.7-0.4-2.4-1.2-0.8-0.8-0.8-2.1 0-1.7 1.5-2.7 1.4-0.9 4.2-0.9h37.4zm38.6-89.8v23.5c0.1 1.3-0.2 2.2-0.8 2.8q-0.9 1-2.9 0.9-1.9 0.1-2.8-0.5-0.8-0.6-1.5-2.2-3.1-7.9-8.8-11.8c-3.9-2.7-8.9-4.3-15.1-4.8v-7.9zm58.1 89.8h-37.4c-1.9 0-3.3-0.3-4.4-0.9q-1.5-0.9-1.5-2.7 0-1.2 0.9-2.1 0.8-0.8 2.5-1.2c1.3-0.3 2.4-0.7 3.1-1.1 0.7-0.3 1.2-0.8 1.4-1.4q0.4-0.9 0.4-2.6v-66q0-1.6-0.4-2.4-0.4-0.9-1.4-1.4c-0.7-0.4-1.8-0.8-3.1-1.3q-1.7-0.3-2.5-1.2-0.9-0.8-0.9-2.1 0-1.7 1.5-2.6 1.5-1 4.4-1h39.6q3 0 4.3 1 1.4 0.9 1.4 2.6 0 1.3-0.7 2.1-0.8 0.9-2.4 1.2l-2.6 0.7q-1 0.5-1.6 1.6-0.6 1.1-0.6 2.8z"/>
		<path id="Object 92" class="s1" d="m488.7 491.5v122.2l-130.3-112.4 57-65.1zm-0.2 172.9h-146.2v-140.3l13.1 11.4 20.8 18.1 112.3 95.8z"/>
		<path id="Object 93" class="s1" d="m1194.7 493v122.1l-130.3-112.4 57-65.1zm-0.2 172.9h-146.2v-140.3l13.1 11.4 20.8 18.2 112.3 95.8z"/>
	</g>
</svg>