<svg version="1.2" xmlns="http://www.w3.org/2000/svg" viewBox="0 0 2395 2714" width="2395" height="2714">
	<title>Hadzhidimovo-cdr</title>
	<style>
		.s0 { fill: #00ab4f } 
		.s1 { fill: #ff2e17 } 
		.s2 { fill: #00ab4f;stroke: #2c2e35;stroke-width: .9 } 
	</style>
	<path id="Object 3" class="s0" d="m12.4 1095.1c1.4-188.1 82.1-401.1 188.6-564.1 106.3-162.7 250.3-291.9 432.3-387.3 181.4-95.4 378.4-142.9 589.9-143.1q314.8-0.2 584.8 141.8c180 94.6 322.7 222.6 428.2 384.1 105.3 161.4 159.4 335.6 157.9 523.2l-9.6 1156.3-236.9 7.3 16.8-1007.7c1.9-110-12-207.1-39.6-314.5-197.9-770.5-1329-878.8-1738.9-220-67.2 108.1-139.4 242-142.2 395l-20 1133-219 1.6z"/>
	<path id="Object 4" class="s1" d="m297.2 1165.5c2.5-148.7 62.6-317.2 143.9-446.2 81.1-128.6 191.1-230.8 330-306.2 138.5-75.5 288.9-113.1 450.3-113.2q240.4-0.2 446.5 112.1c137.4 74.8 246.3 176.1 326.8 303.8 80.4 127.7 122.1 265.4 120.6 413.9l-11.2 1070-180.8 5.9 16.7-952.7c1.5-87-9.2-163.8-30.3-248.8-151.1-609.4-1014.5-695-1327.4-173.9-51.3 85.5-105.5 191.4-108.5 312.4l-27 1070.6-167.1 1.3z"/>
	<path id="Object 5" class="s1" d="m1874.9 1456.1l-9 194.7c-295.1-12.7-472.9 196.1-479.6 424.4-5.1 177.5 88.5 358.7 341.4 414.1 41.8 9.2 87.5 6.6 135.6 9.6 171.5 10.4 372.1-3.5 526-2.7l-2.4 212.1-640.7-7.9c-99.5-1.2-191.4-42.7-275.9-98.7-84.7-56-151.1-131-199.6-224.8q-72.7-140.9-69.5-303.4c2.1-109.2 29.2-210.4 81.5-303.1 52.4-93 124.8-169.2 209.5-227.2 83.5-57.2 193.4-88.6 293.1-87.8z"/>
	<path id="Object 6" class="s0" d="m1647.4 1724.5c58.3-30.5 135.5-30.7 215.9-35l-1.2 232.9c-37.8-1.1-69.8 4.3-97.7 6.7-179.4 15.4-173.6 309.3-9.4 319.6 206.9 13.1 426.3 7 633.8 8.9l-2.4 199.5-609.3-5.7c-426.4-3.9-464.4-552.2-129.7-726.9z"/>
	<path id="Object 7" class="s1" d="m604.1 1460.9c99.7-0.8 209.5 30.5 293.1 87.8 84.6 58 157.1 134.1 209.5 227.1 52.3 92.8 79.4 194 81.5 303.2q3.2 162.5-69.5 303.3c-48.5 93.9-115 168.9-199.6 224.9-84.5 56-176.4 97.5-275.9 98.7l-640.7 7.9-2.4-212.1c153.9-0.8 354.5 13 526 2.6 48.1-2.9 93.8-0.4 135.6-9.5 252.9-55.4 346.5-236.6 341.3-414.2-6.6-228.2-184.4-437.1-479.6-424.3l-8.9-194.7z"/>
	<path id="Object 8" class="s0" d="m612.2 2456.9l-609.2 5.6-2.4-199.5c207.5-1.8 426.9 4.2 633.8-8.8 164.2-10.4 170-304.3-9.5-319.7-27.8-2.4-59.8-7.8-97.6-6.6l-1.2-233c80.4 4.3 157.5 4.6 215.9 35 334.7 174.8 296.7 723-129.8 727z"/>
	<path id="Object 9" fill-rule="evenodd" class="s2" d="m1059.3 813.6c40.5-56.2 92.2-111.8 116.1-136.3 24.8-25.5 42.3-67 58-65.2 8.5 1 9.5 27.9 26.8 46.9 43.3 47.7 105 115.3 143.5 200.1 1.7 3.7 0.3 0.6 0.5 0.9 0.5 0.9 31.7-49.8 67.1-96.1 46.5-61 100.7-121.1 105-112.5 1.2 2.6 35.9 63.4 54.9 95.4 14.7 24.8 100.3 121.6 148 185.4 16.3 21.8 25.6 42.4 29.6 51.3 4.7 10.2 17.9 86.6 14.5 93.7-0.5 1.1-2.9 38.2-12.9 75.4-6 22.3-16.6 41.3-25.9 61.9-27.2 60.5-147.4 233-153.2 247.5-2 5-37.5 10.4-68.8 25-25.1 11.6-47.2 33.7-48.9 32-33.7-34.2-63.5-79.3-83.4-129.4l25.8-50.2c1.4-2.8 63.7 119.9 68.8 105.6 12.8-36.1 3.5-84.7 8.8-111.8 0.8-3.8-43.6-44-42.8-48.6 2.3-13.7 7.5-28.7 14.5-44 0.8-1.8 30 47.8 30.9 46 13.8-28.5-8.2-70 0.4-107.1 0.9-3.7-26.2-15.9-23.6-19.9 1.9-3-6.5-45-2.6-47.5 4.5-2.9 22.9 28.7 29.6 29.5 1.8 0.3 5-36.9 8.1-77.8 0.2-2.4-69.3-58.7-69.2-61 0.5-6-13.6-46.1-11.3-50.6 9.6-18.2 66.2 88.3 76 67 1-2.2 4.4-22.1 6.7-41.5 5.8-49.4 12.3-126.6 12.7-126.4 2 0.9 10.3 69 16.8 115.6 2.3 16.9-6.6 43.2-0.5 44.7 10.4 2.6 57.4-51.3 58.5-38.4 0.2 2.7-57.4 69.9-57.3 72.7 2.1 45-10.1 90.2-7.2 88.4 4.7-2.7 7.9-5.5 9.1-6.8 0.8-0.7 99.3-90.3 99.2-68.9 0 7.7-98.6 121.8-98.6 130.4-0.4 36.4-0.8 75.4 0.4 74.3 38.5-38 87.1-76.1 94.3-72.4 3.6 2-87.3 112.8-94.2 121 8-7.9-2.3 93-5.4 110.7 11.6-23.9 148.2-195.7 163-240.7 14.8-44.8 19.2-116.3 19.2-125.1-0.1-10.6-0.2-35.7-11.9-59.8-50.9-104.5-193.4-296.7-194-295.6-41.4 73.7-126.1 202.8-119.7 215.4 64.9 130.4 101.9 273.9 43.8 374.8-120.8 209.7-142.5 339.4-209.4 416.3-5.8 6.7-37.7 64.1-41 72.1-5.1 12.1-14 24.8-15.3 19.2-14.7-62.6-17 0.1-19.9 2.7-14.2 13.5-28.7-80.3-45.8-95.1-50.6-43.9-50.9-136.4-79.2-211.4-15.8-41.7-34.9-79.2-53.3-115.1l-81.3 133.2-18.8 0.5-97.5-36.8c-60.1-22.7-50.9-103.8-79.3-160.9-34.2-68.9-84.2-122.9-108.5-181.6-25.9-62.7-11.2-137-0.7-205.3 4.2-27.5 51.6-71.2 67.2-92.6 38.9-53.4 118.1-118.7 149.6-143.2 24.8-19.4 42.3-51 58-49.6 8.5 0.7 9.5 21.2 26.7 35.6 39 32.7 86.4 80.1 129.3 134zm524.2 498.3q-0.2 0.2-0.4 0.4-0.1 0.2 0.4-0.4zm-5.4 110.7c-0.7 1.4-0.9 2.3-0.7 2.7 0.2 0.1 0.4-0.8 0.7-2.7zm-618.8-165.8q-3.8-12.2-6.4-24.7c-20.5 30.1-44.5 64.2-45.3 68.9-15 87.4 5.3 84.5-0.8 120.5-1.4 8.3-11.6 15-15.7 20-2.7 3.2-4 5-4.6 5.9q-0.7 0-1.5-0.1l1.3 0.4c-0.4 0.9 0 0.7 0.7 0.3l3.3 1.1c17.4 5.8 79.2-105.5 79.4-106.4 2.3-9.4 6.6-18.9 12.1-28.5-8.6-19-16.4-38-22.5-57.4zm-70.3 190.2c-0.2 0.3-0.6 0.4-1.2 0.5 0.7-0.5 1.4-1 1.2-0.5zm-4 0.3l-26-8.8 7.4-139.1c-0.2-7.9-89.4-108.5-89.6-116.7-0.2-10.6 88.8 71.3 88.7 60.3-0.2-19.6-0.2-39.7 0-59.9 0.1-9.6-107.9-139.8-107.7-149.4 0.2-10.2 108.6 100.1 108.9 90 0.8-27 2.1-53.6 4-78.7 0.3-5.1-66.2-85.2-66-90.2 0.2-5.6 71 63.5 71.2 58 4-87.3 12.2-243.3 24.5-217.2 2.8 5.8 12.5 149.2 8.5 215.3-0.2 2.4 50.8-47.9 60.5-55.6 14.9-30 40.8-63.7 53.6-85-11.4-19.7-22.3-39.5-32.4-58.1-14.1-25.8-8.6 0.1-46.8-52.2-9.9-13.6-37.8-55.6-49.1-58-8.8 20.8-20.8 21-29.4 41.6-17.3 41.9-78.5 61.8-104.8 100.2-22.4 32.8-56.9 67.8-69.2 100.3-24.6 64.9-32.8 134-5.8 196 28.9 66.5 85.6 99.8 105.7 144.6 17.7 39.5-8.2 97.1 32.4 142.1 13.3 14.7 29.7 33.4 41.8 24.9 2.9-2.1-7.3-7.7-1.2-8.6 2-0.3 14.3 3.3 20.8 4.2zm2.8 0.2q-0.4 0.2-0.8 0.5l-0.7-0.3q0.1-0.1 0.2-0.3 0.7 0.1 1.3 0.1zm59.2-351.2c2.6-36.7 7.5-73.6 11.6-109.2 0.9-7.5 3.6-15.9 7.6-24.8-14.6 21.9-56.7 81.4-56.8 83.7-1.9 29.2-2.1 51-1.8 86.6 0.1 5 20.2-16.3 39.4-36.3zm2.3 116.3c-4.5-30-5.2-61.4-3.7-93.1-18.9 27.4-38.3 55.5-38.4 58.4-0.4 11.6-1.2 23-2.3 34.1-1.4 13 6.6 24.3 5 36.8-0.5 4.2 20.1-16.9 39.4-36.2zm246.3 169.8c0 0-122.6-203.5-121.3-201.9 15.4 18.9 113.8 139.8 113.5 135-1.4-25.3-5.7-99-7.4-102.3-16.5-32.3-92-180-90.1-177.5 17.9 23 99.8 128.2 100 125.1 0.9-21.6 4-98.5 2-102.7-14.3-29.2-63.9-131.3-60.2-126.5 18.5 23.7 67.2 85.7 68.3 80.2 8.1-41.2 35.8-190.7 36.6-185.2 4.1 27.5 4.4 106.1 1.1 176.7-0.2 3.4 64.2-34.8 64-31.3-0.1 3.5-63.4 73.8-63.5 77.4-1.9 38.4-2.1 67-1.8 113.8 0.1 12.4 75.2-57.5 75-45.1 0 7.4-75.2 97.3-75.4 104.6-0.5 15.3-1.2 30.3-2.3 44.8-1.4 17 6.6 31.9 5 48.4-1 10.3 73.6-52.4 73.6-41.3 0.1 12.6-74.5 98.9-75.9 109.9-15.1 114.8 6.3 201.9 0.1 249.2-1.4 10.9-11.5 19.7-15.7 26.2-2.6 4.3-4 6.6-4.6 7.9q-0.7-0.1-1.5-0.3l-26-11.5 3.3-136.8zm23.4 284.9c-0.1 0.3-0.5 0.5-1.1 0.5 0.7-0.6 1.4-1.2 1.1-0.5zm-3.9 0.3l1.3 0.6q0.1-0.2 0.2-0.4 0.7 0.1 1.3 0-0.4 0.4-0.8 0.7l3.3 1.4c17.4 7.7 79.1-138.5 79.4-139.7 12-63.2 75.1-130.6 87.7-196.6 4.4-23.4 30.7-78 35.9-98.4 24.9-98.3 24.3-143.7-13.9-210.9-32.1-56.5-62.9-128.5-88.8-191.1-14.1-34-8.6 0.1-46.8-68.7-9.9-17.8-37.8-73-49.1-76.1-8.8 27.3-20.8 27.5-29.4 54.7-7.2 23.1-22.8 45.1-40.3 66.7-17.4 21.3-36.2 41.5-51.3 62.4-0.1 0.2-0.8 1.1-1 1.2-0.7-0.9-38.7 62.8-39.4 61.8-17 22.9-33.8 42.8-42 71.3-24.6 85.3-32.8 176-5.8 257.5 0.1 0.4 27.1 61.3 27.2 61.7 14.1 24.1 30.2 45.6 44.4 66.4 14.3 20.8 26.9 40.8 34.1 61.8 17.7 51.9-8.3 127.6 32.4 186.8 13.3 19.3 29.7 43.8 41.8 32.7 2.9-2.8-7.4-10.1-1.3-11.3 2.1-0.4 14.4 4.3 20.9 5.5zm1.3 0.6c-0.5 1.1 0 0.8 0.7 0.3z"/>
</svg>