<svg version="1.2" xmlns="http://www.w3.org/2000/svg" viewBox="0 0 532 532" width="532" height="532">
	<title>Byala2-pdf</title>
	<style>
		.s0 { fill: #2e3091 } 
		.s1 { fill: #b0de70 } 
		.s2 { fill: #211e1e } 
		.s3 { fill: #ffffff;stroke: #211e1e;stroke-width: .4 } 
		.s4 { fill: #66ccf5 } 
		.s5 { fill: #ffffff } 
		.s6 { fill: #eb1923 } 
		.s7 { fill: none;stroke: #211e1e;stroke-width: 1.7 } 
	</style>
	<path id="Path 1" class="s0" d="m530.8 266.2h-194v-35.6h-31.2v-83.8h31.2l-53.9-51.3v-38.5h22.7l-31.2-27.4v-28.9c142 4.5 256.4 121.7 256.4 264.7q0 0.4 0 0.8zm-335.8 0h-194q0-0.4 0-0.8c0-143 114.4-260.2 256.4-264.7v0.2 28.7l-31.2 27.4h22.7v38.5l-53.9 51.3h31.2v83.8h-31.2z"/>
	<path id="Path 2" class="s1" d="m265.9 0.5c145.9 0 264.9 119 264.9 264.9 0 146-119 265-264.9 265-145.9 0-264.9-119-264.9-265 0-145.9 119-264.9 264.9-264.9z"/>
	<path id="Path 3" fill-rule="evenodd" class="s2" d="m530.7 271.8h-193.9v9.4h94.5c16.3-1 15.9 32.1 27.3 33.1 10.6-2.3 9-34.7 27.4-33.1h44.3q-0.1 2.9-0.4 5.7h-38.2v45.1h0.3c6.5-13.5 22.6-27.8 36.6-33.5l0.1-0.1c-0.4 3.5-0.8 6.1-1.3 9.6v-0.2c-18.8 10.1-35.2 32.2-35.7 54.8v2.6q0 0.1 0 0.2v38.3q-3.9 6.3-8.1 12.4h-58v-50.7q0 0 0-0.1v-2.7c-0.5-22.6-13.3-42.5-32.1-52.2-16.5-8.5-35.6-8.8-56.7-2.4v191h-141.8v-191c-21.1-6.4-40.3-6.1-56.7 2.4-18.9 9.7-31.6 29.6-32.1 52.2v2.7q0 0.1 0 0.1v50.7l-58.2-0.1c-2.9-4.1-5.6-8.2-7.9-12.3v-38.3q0-0.1 0-0.2v-2.6c-0.5-22.6-16.9-44.7-35.7-54.8v0.2l-1.2-9.5c14 5.7 30 20 36.6 33.5h0.3v-45.1h-38.3l-0.4-5.7h44.4c18.4-1.6 16.8 30.8 27.3 33.1 11.4-1 11.1-34.1 27.4-33.1h94.5v-9.4h-193.9l-0.1-5.6h529.8q0 2.8-0.1 5.6zm-193.9 28.3c18.5-6.7 37.4-6.2 56.7 2 13.9 5.6 25.3 16.4 31.8 29.9h0.3v-45.1h-88.8zm149.2-12.9c-15.2-0.5-12 32.8-27.4 32.8-15.3 0-14.9-33-27.3-33.1 0 36.6 0 86.9 0 123.6h54.7zm-6.7 44.6l-0.1 36.3h-13.9v-36.3c0-3.3 2.8-6.1 6.1-6.1h1.7c3.4 0 6.2 2.8 6.2 6.1zm-28.4 0v36.3h-13.9l-0.1-36.3c0-3.3 2.8-6.1 6.2-6.1h1.7c3.3 0 6.1 2.8 6.1 6.1zm-6.8 0.4h-0.3c-0.7 0-1.2 0.5-1.2 1.2v28.2h2.6v-28.2c0-0.7-0.5-1.2-1.1-1.2zm28.3 0h-0.3c-0.6 0-1.1 0.5-1.1 1.2v28.2h2.6v-28.2c0-0.7-0.5-1.2-1.2-1.2zm-277.3-45.3h-88.8v45.1h0.3c6.5-13.5 17.9-24.2 31.8-29.9 19.2-8.2 38.1-8.6 56.7-2zm-149.3 123.5h54.8c0-36.7 0-87 0-123.6-12.5 0.1-12 33.1-27.4 33.1-15.4 0-12.1-33.3-27.3-32.8zm13-84.7h1.7c3.4 0 6.2 2.8 6.2 6.1l-0.1 36.3h-13.9v-36.3c0-3.3 2.8-6.1 6.1-6.1zm28.4 0h1.7c3.3 0 6.1 2.8 6.1 6.1v36.3h-14v-36.3c0-3.3 2.8-6.1 6.2-6.1zm-0.5 7.7v28.2h2.6v-28.2c0-0.7-0.5-1.2-1.1-1.2h-0.3c-0.7 0-1.2 0.5-1.2 1.2zm-28.3 0v28.2h2.6v-28.2c0-0.7-0.5-1.2-1.2-1.2h-0.3c-0.6 0-1.1 0.5-1.1 1.2z"/>
	<path id="Path 4" fill-rule="evenodd" class="s2" d="m263.1 0.6v31.6l-21.9 19.1h13.4v46.6l-45.5 43.2h22.8v95.2h-31.2v29.9h130.4v-29.9h-31.2v-95.2h22.7l-45.4-43.2v-46.6h13.3l-21.8-19.1v-31.7q1 0 2.1 0 1.8 0 3.6 0.1v29l31.2 27.4h-22.7v38.5l53.9 51.3h-31.2v83.8h31.2v268.4h-141.8v-268.4h31.2v-83.8h-31.2l53.9-51.3v-38.5h-22.7l31.2-27.4v-28.7q2.8-0.2 5.7-0.3zm-24.6 409.8h54.8c0-36.6 0-86.9 0-123.5-12.5 0-12 33.1-27.4 33.1-15.4 0-12.2-33.3-27.3-32.8zm-37.8-100.1v182.9h130.4v-182.9c-18.8 10.1-31.7 29.7-32.2 52.2v2.7q0 0.1 0 0.2v50.7h-66.1c0-0.1 0-53.5 0-53.6-0.5-22.5-13.4-42.1-32.1-52.2zm79.2 15.3h1.6c3.4 0 6.2 2.8 6.2 6.2v36.3h-14v-36.3c0-3.4 2.8-6.2 6.2-6.2zm-0.5 7.7v28.3h2.6v-28.3c0-0.7-0.5-1.2-1.2-1.2h-0.3c-0.6 0-1.1 0.5-1.1 1.2zm-27.9-7.7h1.7c3.4 0 6.1 2.8 6.1 6.2v36.3h-13.9v-36.3c0-3.4 2.7-6.2 6.1-6.2zm79.6-38.7h-32.2v45h0.4c6.5-13.5 17.8-24.2 31.8-29.9zm-130.4 15.1c13.9 5.7 25.3 16.5 31.8 30h0.3v-45.1h-32.1zm50.3 31.3v28.3h2.6l0.1-28.3c0-0.7-0.6-1.2-1.2-1.2h-0.3c-0.7 0-1.2 0.5-1.2 1.2zm-50.3-52.2h37.9c18.4-1.6 16.7 30.8 27.3 33.1 11.4-1 11-34 27.4-33.1h37.8v-9.3h-130.4z"/>
	<path id="Path 5" class="s3" d="m232.8 362.6v2.6q0 0.1 0 0.2v50.7h66.1v-50.7h0.1q0 0-0.1-0.1v-2.7c0.5-22.6 13.4-42.2 32.2-52.2v182.9h-130.4v-182.9c18.7 10 31.7 29.6 32.1 52.2z"/>
	<path id="Path 6" class="s3" d="m200.7 271.8h130.4v9.4h-37.8c-16.4-1-16 32.1-27.4 33.1-10.5-2.3-8.9-34.7-27.3-33.1h-37.9z"/>
	<path id="Path 7" class="s3" d="m200.7 286.9h32.1v45.1h-0.3c-6.5-13.5-17.9-24.2-31.8-29.9z"/>
	<path id="Path 8" class="s3" d="m331.1 302.1c-14 5.6-25.3 16.4-31.8 29.9h-0.4v-45.1h32.2z"/>
	<path id="Path 9" fill-rule="evenodd" class="s3" d="m238.6 287.2c15.2-0.5 11.9 32.8 27.3 32.8 15.4 0 14.9-33.1 27.4-33.1 0 36.6 0 86.9 0 123.5h-54.8zm6.8 44.7v36.3h13.9v-36.3c0-3.4-2.7-6.1-6.1-6.1h-1.7c-3.4 0-6.1 2.7-6.1 6.1zm28.3 0v36.3h14v-36.3c0-3.4-2.8-6.1-6.2-6.1h-1.6c-3.4 0-6.2 2.7-6.2 6.1zm6.8 0.4h0.4c0.6 0 1.1 0.5 1.1 1.1v28.3h-2.6v-28.3c0-0.6 0.5-1.1 1.1-1.1zm-28.3 0h0.3c0.6 0 1.2 0.5 1.2 1.1v28.3h-2.7v-28.3c0-0.6 0.6-1.1 1.2-1.1z"/>
	<path id="Path 10" class="s4" d="m40.1 362.6v2.6q0 0.1 0 0.2v38.3c-17.7-28.8-30.1-61.1-35.7-95.7v-0.2c18.8 10.1 35.2 32.2 35.7 54.8zm8.1 53.5h58v-50.7q0 0 0-0.1v-2.7c0.5-22.6 13.2-42.5 32.1-52.2 16.4-8.5 35.6-8.8 56.7-2.4v191h70.9v31.4c-90 0-169.8-45.3-217.7-114.3z"/>
	<path id="Path 11" class="s5" d="m1 271.8h194v9.4h-94.5c-16.3-1-16 32.1-27.4 33.1-10.5-2.3-8.9-34.7-27.3-33.1h-44.4q-0.2-4.7-0.4-9.4zm0.8 15.1h38.3v45.1h-0.3c-6.5-13.5-22.6-27.8-36.6-33.5l-0.3-1q-0.6-5.3-1.1-10.6zm193.2 13.2c-18.6-6.7-37.4-6.2-56.7 2-13.9 5.6-25.3 16.4-31.8 29.9h-0.3v-45.1h88.8z"/>
	<path id="Path 12" fill-rule="evenodd" class="s5" d="m45.8 287.2c15.2-0.5 11.9 32.8 27.3 32.8 15.4 0 14.9-33.1 27.4-33.1 0 36.6 0 86.9 0 123.5h-54.8zm6.8 44.7v36.3h14v-36.3c0-3.4-2.8-6.1-6.2-6.1h-1.6c-3.4 0-6.2 2.7-6.2 6.1zm28.4 0v36.3h13.9v-36.3c0-3.4-2.7-6.1-6.1-6.1h-1.7c-3.4 0-6.1 2.7-6.1 6.1zm6.8 0.4h0.3c0.6 0 1.2 0.5 1.2 1.1v28.3h-2.7v-28.3c0-0.6 0.6-1.1 1.2-1.1zm-28.4 0h0.4c0.6 0 1.1 0.5 1.1 1.1v28.3h-2.6v-28.3c0-0.6 0.5-1.1 1.1-1.1z"/>
	<path id="Path 13" class="s4" d="m527.4 307.8v0.2c-5.7 34.6-18 66.9-35.7 95.7v-38.3q0-0.1 0-0.2v-2.6c0.5-22.6 16.9-44.7 35.7-54.8zm-261.5 222.6v-31.4h70.9v-191c21.1-6.4 40.2-6.1 56.7 2.4 18.8 9.7 31.6 29.6 32.1 52.2v2.7q0 0.1 0 0.1v50.7h58c-48 69-127.7 114.3-217.7 114.3z"/>
	<path id="Path 14" class="s5" d="m530.3 281.2h-44.3c-18.4-1.6-16.8 30.8-27.4 33.1-11.3-1-11-34.1-27.3-33.1h-94.5v-9.4h193.9q-0.1 4.7-0.4 9.4zm-1.4 16.3l-0.3 1c-14 5.7-30.1 20-36.6 33.5h-0.3v-45.1h38.2q-0.4 5.3-1 10.6zm-192.1-10.6h88.8v45.1h-0.3c-6.5-13.5-17.9-24.2-31.8-29.9-19.3-8.2-38.2-8.7-56.7-2z"/>
	<path id="Path 15" fill-rule="evenodd" class="s5" d="m486 410.4h-54.7c0-36.6 0-86.9 0-123.5 12.4 0 12 33.1 27.3 33.1 15.4 0 12.2-33.3 27.4-32.8zm-13.1-84.8h-1.6c-3.4 0-6.2 2.8-6.2 6.2v36.3h14v-36.3c0-3.4-2.8-6.2-6.2-6.2zm-28.3 0h-1.7c-3.4 0-6.1 2.8-6.1 6.2v36.3h13.9v-36.3c0-3.4-2.7-6.2-6.1-6.2zm0.5 7.7v28.3h-2.7v-28.3c0-0.7 0.6-1.2 1.2-1.2h0.3c0.6 0 1.2 0.5 1.2 1.2zm28.3 0v28.3h-2.6v-28.3c0-0.7 0.5-1.2 1.1-1.2h0.4c0.6 0 1.1 0.5 1.1 1.2zm-204.8-332.8v31.6l21.8 19.2h-13.3v46.5l45.4 43.3h-22.7v95.1h31.2v29.9h-130.4v-29.9h31.2v-95.1h-22.8l45.5-43.3v-46.5h-13.4l21.9-19.2v-31.5q2.8-0.1 5.6-0.1z"/>
	<path id="Path 16" fill-rule="evenodd" class="s2" d="m265.9 153.9c17.3 0 31.4 14.1 31.4 31.4 0 17.3-14.1 31.4-31.4 31.4-17.3 0-31.4-14.1-31.4-31.4 0-17.3 14.1-31.4 31.4-31.4zm2.8 32.6h-20.9v-5.7h15.3v-21.1c-12.9 1.4-23 12.4-23 25.6 0 14.2 11.6 25.7 25.8 25.7 14.2 0 25.7-11.5 25.7-25.7 0-13.2-10-24.2-22.9-25.6z"/>
	<path id="Path 17" class="s6" d="m268.7 159.7c12.9 1.4 22.9 12.4 22.9 25.6 0 14.2-11.5 25.7-25.7 25.7-14.2 0-25.8-11.5-25.8-25.7 0-13.2 10.1-24.2 23-25.6v21.1h-15.3v5.7h20.9z"/>
	<path id="Path 18" fill-rule="evenodd" class="s5" d="m365.5 159v7.3h-23v9.2h9.4q5.7 0 8.9 0.8c2.2 0.6 4 1.5 5.5 3 2.4 2.2 3.6 5.2 3.6 8.9 0 2.2-0.4 4-1.2 5.7q-1.2 2.5-3.5 4.1c-1.5 1.2-3.4 2.1-5.7 2.7q-3.3 0.9-7.6 0.8h-18.9v-42.5zm-23 35h9.4c2.6 0 4.6-0.5 6-1.5 1.4-1 2.1-2.4 2.1-4.3 0-1.9-0.6-3.3-2-4.2-1.3-0.9-3.3-1.4-6.1-1.4h-9.4zm40.3 7.5h-10.9l15-18.9q-3.3-0.8-5-1.5c-1-0.4-1.9-1-2.7-1.7q-1.5-1.3-2.4-3.4c-0.6-1.4-0.8-2.8-0.8-4.4q0-4.8 3.5-8.5c0.9-0.9 2-1.8 3.3-2.3 1.3-0.6 2.8-1.1 4.4-1.4 1.8-0.3 3.8-0.4 6.3-0.4h17.5v42.5h-9.5v-17.3h-6.5zm18.7-35.2h-8.9c-2.2 0-3.9 0.4-5.1 1.5-1.3 1-2 2.3-2 4 0 1.6 0.7 3.1 2 4.2 1.3 1.2 2.9 1.7 4.8 1.7h9.2zm45.3 35.2v-35.3h-14v11.9c0 7.1-0.4 12.5-1.1 16.1-0.1 1.1-0.7 2.2-1.4 3.4q-1 1.7-2.2 2.6c-0.7 0.6-1.7 1-2.8 1.3-1.1 0.3-2.3 0.5-3.4 0.5q-1.1 0-2.3-0.2c-1.2-0.1-2.3-0.5-3.3-0.9v-6.2c1.5 0.7 2.9 1.1 4 1.1 2.7 0 4-2.6 4-7.9v-28.9h32v42.5zm30.1-43.2h10.9l16.6 43.2h-10.1l-3.2-8.7h-17.9l-3 8.7h-9.7zm4.9 8l-6.1 19.4h12.8z"/>
	<path id="Path 19" class="s7" d="m365.5 159.1v7.3h-23v9.1h9.3c3.9 0 6.9 0.3 9 0.9 2.2 0.6 3.9 1.5 5.4 2.9 2.4 2.3 3.7 5.2 3.7 9 0 2.1-0.4 3.9-1.3 5.6-0.7 1.6-1.9 3.1-3.4 4.2-1.5 1.1-3.5 2-5.7 2.6q-3.4 0.9-7.7 0.8h-18.7v-42.4zm-23 35h9.3q3.9-0.1 6-1.6 2.1-1.5 2.1-4.2c0-2-0.6-3.4-2-4.3-1.3-0.9-3.3-1.3-6.1-1.3h-9.3zm40.3 7.5h-11l15-19c-2.2-0.5-3.8-1-4.9-1.4-1.1-0.5-2-1-2.8-1.7-1-0.9-1.8-2-2.3-3.4-0.6-1.4-0.9-2.8-0.9-4.4q0-4.9 3.5-8.5c0.9-0.9 2-1.7 3.3-2.3 1.3-0.6 2.8-1.1 4.5-1.4 1.7-0.3 3.7-0.4 6.2-0.4h17.5v42.5h-9.5v-17.4h-6.5zm18.7-35.1h-8.9c-2.2 0-3.8 0.5-5.1 1.5-1.3 1-1.9 2.3-1.9 4 0 1.7 0.6 3.1 1.9 4.3 1.3 1.1 2.9 1.7 4.8 1.7h9.2zm45.3 35.1v-35.3h-14v11.9c0 7.1-0.4 12.4-1.1 16-0.1 1.1-0.7 2.2-1.4 3.4-0.7 1.2-1.4 2.1-2.2 2.7-0.7 0.5-1.7 0.9-2.8 1.3-1.1 0.3-2.2 0.4-3.4 0.4q-1 0-2.3-0.1c-1.1-0.2-2.2-0.5-3.2-0.9v-6.3c1.4 0.8 2.8 1.1 3.9 1.1q4 0.1 4-7.8v-28.9h32v42.5zm30.1-43.2h10.9l16.6 43.2h-10.2l-3.2-8.8h-17.8l-3 8.8h-9.7zm4.9 7.9l-6.1 19.4h12.8z"/>
	<path id="Path 20" fill-rule="evenodd" class="s5" d="m60.3 201.5v-42.5h24.7v7.5h-16v35zm37.9-15.1v15.1h-8.7v-42.5h18.1c2.2 0 4.2 0.3 6 0.9 1.7 0.7 3.2 1.6 4.4 2.8 1.2 1.2 2.2 2.6 2.8 4.3 0.7 1.7 1 3.6 1 5.6 0 2.8-0.6 5.2-1.7 7.3q-1.8 3.1-5 4.8c-2.2 1.1-4.6 1.7-7.5 1.7zm0-7.7h8c2.4 0 4.1-0.5 5.2-1.5 1.1-1 1.6-2.5 1.6-4.6 0-4.2-2.1-6.2-6.4-6.2h-8.4zm39.9-20.5h10l15.2 43.3h-9.3l-2.9-8.8h-16.4l-2.8 8.8h-8.9zm4.5 7.9l-5.6 19.4h11.8zm21 44.4v-16.8c0.8 0 1.3 0.1 1.6 0.1 1 0 1.9-0.5 2.9-1.5q2.4-2.3 2.4-8.8v-24.6h30.3v34.8h4.2v16.8h-5.1l-2.3-9h-26.6l-2.1 9zm10.3-16.7h18.2v-27.6h-13.5v15.1c0 3.2-0.7 6.1-1.9 8.8-0.4 0.7-0.7 1.3-1 1.8-0.4 0.5-1 1.1-1.8 1.9z"/>
	<path id="Path 21" class="s7" d="m60.3 201.5v-42.4h24.7v7.5h-16v34.9zm37.9-15.1v15.1h-8.7v-42.4h18.1c2.2 0 4.2 0.3 6 0.9 1.7 0.7 3.2 1.6 4.4 2.8 1.3 1.2 2.2 2.6 2.8 4.3 0.7 1.6 1 3.5 1 5.6 0 2.8-0.6 5.1-1.7 7.3-1.2 2-2.8 3.6-5 4.7-2.2 1.2-4.7 1.7-7.5 1.7zm0-7.6h8c2.4 0 4.1-0.6 5.2-1.5 1.1-1 1.6-2.5 1.6-4.7 0-4.1-2.1-6.1-6.4-6.1h-8.4zm39.8-20.5h10.1l15.2 43.2h-9.3l-2.9-8.7h-16.4l-2.8 8.7h-8.9zm4.5 7.9l-5.6 19.4h11.7zm21.1 44.3v-16.8c0.8 0.1 1.3 0.1 1.6 0.1 0.9 0 1.9-0.5 2.9-1.5 1.6-1.5 2.4-4.4 2.4-8.7v-24.6h30.3v34.7h4.1v16.8h-5.1l-2.2-9h-26.7l-2.1 9zm10.4-16.7h18.1v-27.5h-13.5v15c0 3.2-0.6 6.2-1.8 8.8-0.4 0.8-0.7 1.4-1 1.8-0.4 0.5-1 1.1-1.8 1.9z"/>
</svg>