<svg version="1.2" xmlns="http://www.w3.org/2000/svg" viewBox="0 0 744 995" width="744" height="995">
	<title>Troyan-svg</title>
	<defs>
		<linearGradient id="g1" x1="249.3" y1="256.2" x2="713.5" y2="448" gradientUnits="userSpaceOnUse">
			<stop offset="0" stop-color="#b51313"/>
			<stop offset=".5" stop-color="#ff0101"/>
			<stop offset="1" stop-color="#e10606"/>
		</linearGradient>
		<radialGradient id="g2" cx="374" cy="850.1" r="280.2" gradientUnits="userSpaceOnUse">
			<stop offset="0" stop-color="#00a44f"/>
			<stop offset="1" stop-color="#008942"/>
		</radialGradient>
		<radialGradient id="g3" cx="221.3" cy="268.8" r="434" gradientUnits="userSpaceOnUse">
			<stop offset="0" stop-color="#ffffff" stop-opacity=".6"/>
			<stop offset=".5" stop-color="#ffffff" stop-opacity=".1"/>
			<stop offset="1" stop-color="#000000" stop-opacity=".2"/>
		</radialGradient>
	</defs>
	<style>
		.s0 { fill: #eecd9d } 
		.s1 { fill: url(#g1) } 
		.s2 { fill: #ffffff;stroke: #000000;stroke-linecap: round;stroke-linejoin: round;stroke-width: 0 } 
		.s3 { fill: url(#g2) } 
		.s4 { fill: #2c2f90 } 
		.s5 { fill: #000000 } 
		.s6 { fill: url(#g3) } 
	</style>
	<g id="layer1">
		<g id="g1908">
			<g id="g3712">
				<path id="path1916" class="s0" d="m301.3 989.9c-143.8-26.3-245.1-114.9-283.6-247.9-16.3-56.3-17.6-90.8-16.4-426.3l1.1-313.8 741.1-1.9-1.2 350.1c-1.2 348.5-1.2 350.1-9.5 381.1-34.6 130-131.5 213.1-256.5 251.8-44.5 11.6-130.6 15-175 6.9z"/>
				<path id="path1914" class="s1" d="m249.3 29.8h464.2v646.1h-464.2z"/>
				<path id="path1924" class="s2" d="m363 137c-0.2 14.4-11.9 25.9-26.2 25.7-14.3-0.1-25.8-11.8-25.7-26.1 0.1-14.3 11.8-25.8 26.2-25.7 14.3 0.1 25.8 11.8 25.7 26.1l-26-0.2z"/>
				<path id="path1912" class="s3" d="m329.2 965.3c-56.5-6.7-120.2-31.4-167.6-65-25.3-18-72.8-66-67.4-70.4l98.3-80.9 96.6 38.9c32.1-15.6 60.1-39.9 92.2-56.3l90.4 60.7 70.7-46.6 111.4 81.3c4 2.9-23.6 35-49.3 57.4-49.8 43.4-119.4 73.1-189.1 80.9-39.7 4.4-48.4 4.4-86.2 0z"/>
				<path id="path1910" class="s4" d="m30.2 30.1h70.5l-13.9 21.4c-21.9 29-17.3 63.9-1.5 100.7 15.8 36.8 20.8 49.6 0.7 91.3-20.1 36.1-16.4 56.7 0.5 92.6 16.7 32.6 17.1 56.8 1.3 91-16.1 34.1-14.4 86 0.1 120.3 15.5 34.7 15.3 67.2 0.3 101.9l-10.7 26.6h-47.3zm88.1 619.3c18.8-36.6 18.5-59-1.1-102-19.9-43.5-19.8-77.3 0.4-120.2 19.6-41.7 19.7-51.7 0.5-91-18.1-36.9-18.5-58.5-1.8-92.7 17-34.8 17-58.6-0.6-91.3-17.7-32.6-16.8-67.1-0.4-99.1 6.2-11.5 9.4-20 13-23h31.1c-22.5 46.3-33.3 78.1-11.9 122.1 21.5 44 20.2 53 0 91.3-20.3 38.3-20 52.7 1.4 92.7 21.4 36.7 16.7 53.8-0.4 91-18.5 34.4-14.7 85.3 0.1 120.2 18.3 40.9 18.1 62.4-1.1 102-3.5 7.2-9 18.6-13.3 26.6h-29zm49.3 26.6c0-0.9 5-13.7 11.2-26.6 15.5-33 15.4-62.3-0.5-102-19.2-48-18.8-69.1 2.6-120.2 14.5-34.9 13.7-55.5-3.9-91-18.6-37.7-18.7-54.9-0.5-92.7 18-37.5 19.2-54.2 0.3-91.3-18.8-37-25.3-84.6 13.6-122.1h32.9v645.9z"/>
				<path id="path1926" class="s2" d="m364.4 303.3c-0.1 5.3-4.4 9.5-9.6 9.4-5.3-0.1-9.5-4.4-9.4-9.6 0.1-5.2 4.4-9.4 9.6-9.4 5.2 0.1 9.4 4.4 9.4 9.6h-9.5z"/>
				<path id="path1928" class="s2" d="m387.8 308c-0.1 7.6-4.4 13.7-9.6 13.6-5.2-0.1-9.4-6.3-9.4-14 0.1-7.6 4.4-13.7 9.6-13.6 5.2 0.1 9.4 6.3 9.4 14l-9.5-0.1z"/>
				<path id="path1930" class="s2" d="m373.3 331.9c-0.1 3.8-5.4 6.8-11.8 6.7-6.5 0-11.7-3.1-11.6-6.8 0-3.8 5.3-6.8 11.8-6.8 6.4 0 11.6 3.1 11.6 6.9l-11.7-0.1z"/>
				<path id="path1920" fill-rule="evenodd" class="s5" d="m527.3 55.1c11.8 2.4 25.1 4.4 29.6 4.4 4.4 0 8.3 2.1 8.6 4.6 0.4 2.6 0.8 6.7 1 9.3 0.2 2.5 6.2 9.9 13.3 16.3 16.9 15.5 22.2 31.9 22.2 69.1 0.1 24.8 1.2 30.7 5.7 30.7 6.7 0 7.3 7.9 1.1 14.1-2.5 2.5-4.6 9.1-4.7 14.7-0.1 7.6-2.2 10.5-8.5 11.3-4.6 0.7-8.4 3.6-8.4 6.5 0 3-1.3 5.3-3.1 5.3-9.2 0-15.5 62-8.1 79.9 2.8 6.8 3.3 6.9 5.7 0.9 1.4-3.5 1.8-8.8 0.7-11.6-3-7.7 8.1-21.5 15.4-19.2 13.7 4.2 17.3-3.6 17.9-39.6 0.3-19 2-50.3 3.7-69.7l3.1-35.2 8.1 10.2c4.6 6 8.6 8.4 9.4 5.8 0.9-2.4 4.4 1.8 8 9.3 3.6 7.6 8.1 12.8 10 11.6 1.9-1.2 3.5 0.1 3.5 2.8 0 2.7-3.1 5.2-7 5.5-5 0.4-7.7-2.6-9.2-10.6-1.4-6.9-3.8-10.1-6.4-8.5-2.3 1.4-5.5 0.6-7-1.9-1.5-2.5-3.9 5.5-5.3 18-1.4 12.4-4.4 27.7-6.6 34-7.7 22.3 10.1 38.5 27.4 24.9 6.6-5.3 12.7-32.5 7.2-32.5-2 0-1.7-3.9 0.8-9.2l4.3-9.1 2.6 9.8c4.4 16.4-2.5 36.8-17 50.5-14.4 13.6-18.6 33.2-8 37.2 4.3 1.7 4.6 4.3 1.4 13.5-3 8.7-9.5 14-27.7 23.1-13.1 6.5-23.8 13-23.8 14.5 0 1.4 5.1 14.4 11.2 28.8 18.3 43 14.4 69.9-13.4 92.3-11.8 9.5-13.4 12.4-11.1 21.3 3.3 13.1 21.6 31.7 31.1 31.7 3.9 0 10.1 3.4 13.8 7.5 5.9 6.5 6.1 8.7 1.9 17.6-2.7 5.6-4.5 14.7-4.1 20.1 1 11.1-6.1 40.3-9.7 40.3-1.3 0-5.1-2.6-8.6-5.7-3.4-3.1-8.7-4.7-11.6-3.6-7 2.7-18 21.4-18 30.5 0 7.6-8.2 27.2-11.2 26.7-1-0.2-6.8-1.9-13-3.8-6.1-1.9-14.3-2.6-18.1-1.7-12.9 3.1-27.5-1.8-25.7-8.6 0.9-3.5-2.5-10.7-7.6-16.2l-9.1-9.8 9.1-6c6.5-4.2 8.5-8.1 6.8-13.2-2.4-7.6-1.1-8.1 23.8-8.7 9.1-0.3 14.6-3.2 20.2-10.7 7.4-9.7 7.5-10.9 1.8-20.4-7.4-12.5-49.6-37.9-62.9-37.9-5.3 0-11.7-2.4-14.1-5.4-3.6-4.2-2.9-6.1 3.4-9.5 6.2-3.3 7-5.4 3.8-9.3-3.3-3.9-2.4-6 4.1-9.5 8-4.3 8.1-4.6 1.4-9.5-7.5-5.5-7.4-5.9 4.7-12.2 17.1-8.9 6.3-16.5-16.3-11.4-24.2 5.5-35.2 28.9-21.9 46.5 8.9 11.8 6.6 19.2-8 26.4-9.5 4.7-15 10.7-17.8 19.3-3.7 11.3-14.2 22.8-20.8 22.8-1.4 0-3.7-4.3-5.1-9.6-2-8.3-3.8-9.3-12.4-7.3-5.5 1.3-15.2 7.7-21.4 14.4l-11.4 12-21.1-15.6c-11.6-8.5-23-16.2-25.3-16.9-3.1-1-2.8-3.8 0.8-9.7 4.3-6.7 4.3-9.5 0.3-15.9-4.2-6.7-3.9-8.5 1.9-12.9 3.7-2.8 8.1-5.1 9.8-5.2 4.4-0.2 13.6-10.1 13.6-14.6 0-7 17.5 3.5 21.8 13.1 3.8 8.4 4.8 8.6 16.2 4 18.1-7.4 23.6-21.6 18.3-47.3-2.3-11.4-4.3-26.5-4.4-33.5-0.1-7.1-2.6-16-5.6-20-8.8-11.7-7-19.9 3.9-17.8 5.5 1 9.3 0 9.3-2.5 0-2.6 3.4-3.3 9.2-1.9 6.1 1.5 9.9 0.6 11.2-2.7 1.4-3.8 12.9-5.3 45.3-6 23.8-0.6 44.1-1.8 45-2.8 1-0.9-0.2-8.5-2.6-16.7-3.2-10.4-11.9-21.9-28.9-38-13.5-12.8-27.1-29.1-30.3-36.2-4.2-9.5-6.1-11.3-7.2-6.5-1.7 7.7-5.1 8.2-11.5 1.8-3.6-3.6-5.2-3.5-7.7 0.5-2.4 3.9-4.4 2.5-8.3-5.6-4.4-9.2-7.8-11-25.1-13.1-29.8-3.7-35.5 0.6-35.5 23 0 17.2-1.5 18.5 5.7 14.6 5.7-3 9.1-3 13 0.3 4 3.3 6.6 3.4 10.5 0.2 10.6-8.8 17.7-0.7 16.9 19.6-0.3 10.5 0.6 22 2.1 25.7 3.7 8.8-0.3 12.2-7.4 6.3-4.7-3.9-6.9-3.6-12.5 1.4-8.5 7.7-14.9 7.7-23.4-0.1-6.4-5.7-6.8-5.7-6.8 0 0 3.4-1.7 6.1-3.7 6.1-2.1 0-3.8-5.1-3.8-11.4 0-14.2-8.7-13-10.4 1.5-2.4 20.3-8.1 9-8.1-16 0-14.9 1.6-26 3.7-26 2 0 3.7 4.1 3.7 9.2 0 5.8 2.1 9.3 5.6 9.3 8.1 0 8.1-57.6 0-62.1-3.5-2-6.4-11.4-7.8-25.3-2.1-19.5 1-21.1 5.5-29.2 4.8-8.7 5.5-17.6 5.7-29.9-14.7-2.4-25.9-15.2-25.8-30.5 2.6-16.3 12.3-30.9 30.8-30.4 17 0.1 30.6 13.9 30.5 30.8-0.2 15.5-8.9 27.9-23.7 29.9-0.5 9.9-3.7 19.2 2.4 21.7 3.4 1.4 3.3 2-0.4 2.2-4.2 0.2-4.3 1.3-0.3 6.1 4.2 5.1 3.4 5.7-6 4.6-8.8-0.9-10.9 0.3-11.3 6.7-0.2 4.3-1.6 9.8-3.1 12.2-1.5 2.5-0.9 6.7 1.4 9.4 2.3 2.8 3.7 7.3 3.1 10-1.6 7.7 15.4 8.4 23.7 0.9 5.8-5.3 7.9-5.6 10.3-1.8 2.1 3.4 9.5 4.5 23.7 3.6 20-1.2 20.7-1 18.7 7.1-2.4 9.3 5 11.8 8.5 2.7 3.3-8.6 8.3-6.5 6.4 2.8l-1.7 8.4 6.2-8.4c7.8-10.5 11.5-10.6 11.2-0.3-0.4 10.9 8.1 13.1 9.6 2.4 1-6.9 3.7-8.7 14.2-9.4 9.7-0.6 11.2-0.1 5.6 2.2-6.1 2.5-4 4.1 12.3 9.6 10.8 3.5 21.6 9.7 24 13.5 2.5 3.9 6.5 7.1 9.1 7.1 2.6 0 4.7 1.9 4.7 4.1 0 2.3 2.1 3.3 4.7 2.3 2.5-0.9 6.8 0.5 9.4 3.3 3.9 4.3 3.6 5.2-2.1 5.2-3.8 0-13.9-6-22.3-13.2-17.8-15.2-47.6-27-53.5-21.1-8.1 8.2 1 25.3 24.8 46.6 16.7 14.9 25.2 25.6 28.2 35.5l4.2 14.2 20.7-12.4c11.4-6.9 22.5-12.5 24.7-12.6 11.9-0.1 13.8-5.9 9.2-28.1-3.8-18.6-3.5-25.6 1.7-45.7 3.4-13.1 5-24.8 3.7-26-1.3-1.2-3.2-0.1-4.1 2.4-1.3 3.6-3.4 3.6-9.7 0.2-11-6-33-3.8-38.8 3.8-4.5 5.7-5.5 5.5-12-3-6.6-8.6-7.2-8.7-7.4-1.9-0.1 6.9-0.6 6.9-6.9-1.4-6-7.9-7-8.1-9.2-2.4-2 5.1-3.7 5.5-7.7 2.2-3.8-3.2-5.9-3.2-7.8-0.2-1.7 2.7-4 2-7.1-2.2-4.3-5.9-4.8-5.9-7.3 0.7-2.7 6.8-2.9 6.8-8.3-0.4-3-4.1-7.4-7.4-9.9-7.4-2.5 0-4.5-2.6-4.5-5.6 0-4.5-6.4-5.7-33.4-6.1-31-0.4-33.5-1.1-34.6-8.4-0.6-4.3-3-7.8-5.3-7.8-2.2 0-2.9-1.1-1.6-2.5 1.4-1.4 6.5 1.2 11.4 5.8 6.9 6.5 12.3 8 25 7.1 9-0.6 16-2.8 15.7-4.8-0.3-2.1 1.3-5 3.7-6.6 2.9-1.8 3-3.6 0.4-5.5-2.1-1.5-3.6-8.7-3.4-15.8 0.6-19.6-7.1-35.7-18.3-38.5-5.4-1.4-9.7-4.8-9.7-7.6 0-2.8-2.9-6.2-6.4-7.5-5.5-2.1-5.6-3-0.9-5.8 3.4-2.2 5-7.8 4.2-15.2-1-9.6-0.1-11.4 4.6-9.6 8.8 3.4 17.1-1.1 17.1-9.1 0-6.9 0.4-6.8 10.8 0.9 7.7 5.6 13.6 7.2 20.4 5.5 7.6-1.9 9.6-1 9.6 4.2-0.1 3.6-1.6 9-3.5 11.9-2.2 3.6-0.9 10.2 4 19.7 7.4 14.6 8.5 15.4 26.7 19.4 8.4 1.8 9.9 3.7 8 9.8-1.9 5.7-0.5 8.1 5.5 9.7 5 1.2 7.2 4 6 7.3-1.1 2.8 0.6 6.2 3.7 7.4 3.2 1.2 5 4.2 4 6.7-2.1 5.4 10.2 16.8 18.1 16.8 3.5 0 5.5 3.6 5.5 9.7 0 8.3 0.8 9.1 5.7 5.1 3.1-2.6 6.7-3.6 8-2.3 2.5 2.5-9.4 13.2-14.7 13.4-1.6 0-3.9-4.8-5.1-10.8q-2.1-10.8-7.3-8.9c-3.1 1.2-5.2-0.4-5.2-4 0-3.2-2.5-5.9-5.5-5.9-3.1 0-5.6-3.3-5.6-7.4 0-4.3-2.5-7.5-5.8-7.5-4.2 0-5.2-2.1-3.4-7.6 1.9-6.1 1-7.4-4.4-6.5-5.4 0.9-6.6-0.9-5.8-8.6 0.8-7.7-0.9-10.1-7.7-11.4-10.7-2.1-24.3 2.1-18.5 5.7 2.2 1.3 3.2 5.8 2.1 9.9-1.2 4.4-0.1 7.4 2.6 7.4q4.6 0 2.2 9.6c-2.1 8.4-1.5 9.3 5.1 7.2 5.5-1.8 7.6-0.8 7.6 3.4 0 3.2 3.1 5.8 7 5.8 3.9 0 7.9 3.3 8.9 7.4 1.1 4.3 5.1 7.4 9.2 7.4 5.8 0 6.9 2 5.5 9.3-1.9 10 2.3 12.1 9.5 4.9 2.5-2.5 4.5-2.9 4.5-1 0.1 2 1.6 5.9 3.4 8.7 2.7 4.3 5 3.9 13.1-2.5 5.5-4.3 12.2-6.9 14.9-5.9 2.7 1 6.1 0 7.6-2.3q2.6-4.3 8.4 4c5.5 7.8 5.9 7.9 10.7 1.4 4.8-6.6 5.1-6.6 9.9 0 4.7 6.3 5.2 6.3 7.5 0.4 1.6-4.3 4.8-5.6 9.9-3.9 7.9 2.5 10.3-3.4 3.2-7.8-2.8-1.7-1.2-4.9 4.6-9.5 6.2-4.7 7.6-7.7 4.5-9.7-2.4-1.6-4.9-9.4-5.5-17.4-1.4-15.8-8.4-21.8-11.6-9.7-2.1 8-10.1 10.7-10.1 3.3 0-2.3-3.4-1.2-7.6 2.7-6.1 5.5-8.3 5.9-10.7 2-2.5-3.9-4.9-3.6-12.8 1.5-5.8 3.8-9.7 4.7-9.7 2.3 0-2.3-3.4-4.2-7.5-4.2-4.8 0-7.4-2.4-7.4-7 0-5.3-1.9-6.6-7.4-5.2-5.2 1.4-7.4 0.1-7.4-4.1 0-3.3-1.3-6-2.8-6-1.6 0-5.2-1.6-8.1-3.4-4.4-2.8-4.5-4.4-0.6-9.2 6.7-8-2.2-11.3-16.1-6.1-7.9 3.1-9.9 2.9-8.7-0.7 0.9-2.6 8.9-5.5 17.9-6.5 12.7-1.5 16.7-3.6 17.8-9.3 2.2-12.3 8-15.6 8-4.5 0 6.4 2 10 5.6 10 3 0 5.5 1.7 5.5 3.8 0 12.4 40.4 11.8 43.7-0.6 0.9-3.8 3.2-6.9 5-6.9 1.8 0 3.3-3.3 3.3-7.4 0-4.1 1.7-7.4 3.7-7.4 5.4 0 4.6-10-1-12.2-5.7-2.2-22.1 10.1-18.3 13.9 1.4 1.4-0.4 4.8-4 7.5-3.7 2.6-6.2 7-5.6 9.6 1.6 7.2-9.2 8.2-17.6 1.6-7-5.5-6.9-5.6 2.9-3.4 8.4 1.9 9.9 1.3 8-3.6-1.6-4.1-0.2-6 4.1-6 5.3 0 5.6-1 1.8-5.6-3.7-4.5-3.6-5.5 0.6-5.5 2.9 0 8-3.3 11.5-7.4 5-5.9 5.3-7.8 1.3-10.2-2.8-1.6-4.8-7-4.5-12.1 0.3-7.4-1.5-9.5-8.9-10.2-5.1-0.5-18.2-2-29.2-3.3-10.9-1.3-20.9-0.9-22.2 0.9-1.4 1.8-5.8 5.1-9.8 7.3-10.3 5.7-12.2 20.1-2.6 20.1 4 0 9.5 2.9 12.3 6.5 4.6 5.9 4.5 6-1.4 1.5-3.5-2.8-8.9-4.1-12-3-3.2 1.3-7.1-0.8-9.3-4.9-5-9.3 1.4-26.1 9.8-26.1 3.5 0 9.4-2.8 13.2-6.3 3.5-3.1 6-4.5 11-4.5 3.8 0 9.1 1 17.4 2.7zm-14.1 11c12.9 1.9 13.4 3 3.7 8.2-5.8 3-8.1 2.5-11-2.9-2.2-4.2-2.4-5.7 0.7-5.9 1.5 0 3.6 0.2 6.6 0.6zm-62.2 26.2c4.8 4.4 12.4 8 17.1 8 12 0 33.7 11.1 33.7 17.2 0 2.9-3.8 5.1-8.9 5.1-5 0-11.7 1.1-14.9 2.3-3.8 1.4-5.9 0.2-5.9-3.5 0-7.2 6.1-11.3 9.3-6.3 1.3 2.1 4.9 3.8 8.1 3.8 4.8 0 5-1 1.2-5.6-2.6-3-10.2-5.5-17-5.5-17.4 0-31.3-7.2-31.3-16.1 0-3.7 0.1-5.5 1.2-5.4 1.1 0 3.2 2 7.4 6zm-42.1 2.3c-22.4 1.8-27.8 4.6-22.2 11.3 2.9 3.5 2.9 5.3-0.3 6.3-2.7 0.9-3.4 4.6-1.8 9.7 1.9 5.8 5.6 8.2 12.9 8.2 11.7 0 19.8 12.6 16.4 25.6-3.1 12 7.2 9.6 17.3-4l8.8-11.9-8.3-14.4c-6.5-11.2-7.4-15.6-4.1-19.6 6.4-7.7 2-11.7-12.1-11.5q-3 0-6.6 0.3zm174.6 25.8c0 6.1-2 9.7-5.5 9.7-3.5 0-5.6 3.5-5.6 9.2 0 9.8-3.5 11.8-9.7 5.6-2.6-2.6-7.7-2.4-15.9 0.4-10.9 3.8-13 3.3-22.4-5.7-9.7-9.3-10.9-9.6-16.5-3.9-7.6 7.5-7.8 12.9-0.5 12.9 3.1 0 5.6 2.7 5.6 6 0 3.8 2 5.2 5.6 3.8 3.6-1.4 5.5 0.1 5.5 4.6 0 9.1 4 12.3 9.5 7.7 3.3-2.7 5.1-2.4 6.3 1 1.3 3.8 2.9 3.7 7.9-0.4 4.8-4 7.4-4.2 10.6-1 6 6 10.3 5.4 10.3-1.5 0-4.2 2.1-5.1 7.7-3.4 5.8 1.9 8.2 0.5 9.7-5.3 1.1-4.3 3.4-7.8 5.1-7.8 5.1 0 2.2-38.2-3-39.9q-0.6-0.2-1.1-0.2c-2.2 0-3.6 3-3.6 8.2zm-267.2 10.7h14.9v-13.9c-6.9 2-12.5 7.2-14.9 13.9zm28.9 0h13.4c-2.3-6.2-7.2-11.1-13.4-13.3zm62.2 14.9c1.4 3.6 3.5 5.7 4.6 4.5 1.2-1.1 0-4.1-2.5-6.6-1.6-1.6-2.6-2.4-3-2.4-0.6 0-0.2 1.5 0.9 4.5zm-76.2 14.5v-15h-15.4c2.3 7.2 8.1 12.9 15.4 15zm14-0.5c6.6-2.4 11.7-7.8 13.8-14.5h-13.8zm80.5 3.4c-10.8 10.2-11.8 14.9-3 14.9 5.5 0 5.4 0.7-0.9 5.8-6.2 5-6.3 5.6-0.7 3.8 6.9-2.1 9 3.2 2.8 7.1-4.5 2.7-5 9.3-0.7 9.3 1.6 0 5.7-2.1 9-4.7 3.4-2.6 7.2-9.2 8.6-14.8 1.9-8 1.1-10.3-3.7-10.3-5 0-5.3-1.3-1.9-7.7 3.5-6.5 3.3-9.9 0.7-9.8-2 0-5.6 2.1-10.2 6.4zm160.3 25c1 2.5-0.7 8-3.7 12.3-5.2 7.5-5.7 7.6-9.3 1.1-3.6-6.5-3.9-6.5-6.4-0.2-1.8 4.9-3.7 5.5-7.3 2.6-3.3-2.8-5.5-2.9-7.2-0.1-3.9 6.2-8.1 4.5-15.2-6.3l-6.6-10.1 9.4 6.2c7.2 4.7 10.5 5.1 13.8 1.8 3.4-3.4 5-3.3 7.3 0.4 2.4 3.8 4 3.6 7.8-1 3.6-4.4 6-4.8 9.9-1.6 4 3.3 5.1 2.7 5.3-2.7 0.1-2.4 0.6-3.7 1.1-3.8q0.5 0 1.1 1.4zm-147.2 11.9c-5.1 9.6-4.8 11.4 2 11.4 3.2 0 4.8 1.7 3.5 3.7-4.5 7.3 2.4 11.7 7.7 4.9 3.5-4.7 5.1-5.2 5.2-1.7 0 3.1 2.4 4.1 6.3 2.6 3.4-1.3 7.5-0.2 9.2 2.4 2.2 3.7 4.4 3.3 9.5-2 6.4-6.5 6.4-6.8-0.5-5.6-5.1 0.9-7.9-1.5-9.5-8-1.5-6.3-3.1-7.8-5.1-4.6-4.3 7-9.8 5.4-9.8-2.9 0-5.2-3.8-7.6-8-7.4-3.8 0.3-8 2.6-10.5 7.2zm183.1 61.3c1.4 3.5 4.6 4.7 8.4 3.3 5.8-2.2 5.7-2.8-0.5-7.4-3.4-2.5-5.9-3.6-7.4-3.3-2 0.3-2.2 2.8-0.5 7.4zm-1.2 16.9c0 4.1 1.6 7.4 3.7 7.4 2 0 3.7-3.3 3.7-7.4 0-4.1-1.7-7.4-3.7-7.4-2.1 0-3.7 3.3-3.7 7.4zm-23.9 25.8c-6.5 5.3-6.9 5.3-4.7-0.9 1.5-4 1-5.8-1.2-4.4-2 1.2-2.7 6-1.6 10.6 2.9 11.5-7.4 22.1-29.2 30-24.7 9-47.6 27.2-56.2 44.7-8.4 17.1-12.6 53.9-6.2 53.9 2.3 0 4.1-5.1 4.1-11.4 0-6.2 1.7-14.5 3.7-18.2 5.2-9.8 27-22.4 38.6-22.4 11.5 0 12.9-5.9 2.2-9.3-4.6-1.5-13.4 0.6-22.3 5.2-8.1 4.3-14.7 7-14.7 6 0-0.9 5-7.4 11.2-14.4 7.7-8.8 22.4-17.5 48-28.3 20.3-8.6 38.9-17.9 41.3-20.8 2.4-2.9 7.4-5.2 11.2-5.2 8.2 0 18.1-15.6 11.4-17.8-2.4-0.8-4.3-3.8-4.3-6.7 0-2.9-0.8-5.2-1.7-5.2-4.1 0-23.1 9.3-29.6 14.6zm-244.7 1.4c4.2 4.3 8.6 2.8 8.6-3 0-3.1-2.5-5.6-5.5-5.6-5.8 0-7.4 4.4-3.1 8.6zm23.5 0.7c0 5.7 2.1 9.2 5.6 9.2 3.4 0 5.5-3.5 5.5-9.2 0-5.8-2.1-9.3-5.5-9.3-3.5 0-5.6 3.5-5.6 9.3zm-33.4 5.5c0 2.1 1.7 3.7 3.9 3.7 2.2 0 2.9-1.6 1.6-3.7-1.2-2-3-3.7-3.9-3.7-0.9 0-1.6 1.7-1.6 3.7zm13.6 23.6c4.3 4.3 11.5 2.6 13.7-3.1 1.6-4.1-0.4-5.6-7-5.6-8.9 0-11.7 3.6-6.7 8.7zm201.4 19.3l-11.1 5.8 9.4 11.2c12.6 15 12 18.1-3.7 18.1-15.3 0-33.4 8.4-38.2 17.7-1.8 3.6-4.5 13.1-6 21.3-1.4 8.2-5.8 20.3-9.6 26.9-6.9 11.9-6.9 12.1 0 12.1 3.9 0 8.2-1.7 9.4-3.7 3.5-5.6 9.3-4.5 9.3 1.8 0 9.6 10.4 6.2 14-4.6 3.3-10 3.4-10.1 6.1-1.9 3.6 11.2 8.1 10.6 13-1.8l4.1-10.2-2.1 11.1c-2.5 13.3-12.7 22.9-17 16-2.1-3.4-4.9-2.6-10.8 2.7-7.8 7.1-8 7.1-13.1 0.1-4.4-5.9-6.6-6.4-14.6-2.8-5.1 2.4-9.3 6.9-9.3 10.1 0 4.6 1.5 4.9 7.4 1.8 5.9-3.2 7.4-2.8 7.4 1.7 0 6.7 1.8 7 11.4 1.8 5.7-3 7.2-2.6 7.2 1.9 0 6.8 7.9 7.5 14.1 1.2 3.3-3.3 4.5-3.3 4.5-0.1 0 4.5-11.5 12-18.3 12-2.2 0-4-2.5-4-5.5 0-6.2-2-6.5-13-2.1-4.1 1.7-9.2 1.6-11.5-0.2-2.5-2-6.6-0.5-10.8 4.1-6.6 7.3-6.4 7.4 6.7 7.4 7.3 0 14.3 1.7 15.5 3.6 1.2 2 12.1 8.8 24.1 15.2 32.7 17.5 37.3 36.9 13.8 58.7-7.2 6.7-12.6 8.5-22.4 7.3-11.2-1.3-12.5-0.7-9.6 4.8 2.4 4.4 1.7 6.9-2.1 8.4-9 3.4-6.9 17.2 2.6 17.2 6 0 7.1 1 4 4.1-2.3 2.3-3.3 6.5-2.2 9.3 2.3 6 14.5 6.9 18 1.2 1.7-2.6 4-2.5 7.5 0.3 5.8 4.8 17.6 2.1 23.9-5.5 3.2-3.9 3.2-7.3 0.2-12.9-8.7-16.2 16.5-35.4 35.3-26.8 9.8 4.4 11.9 1.4 4.5-6.7-3.8-4.1-3.5-4.6 1.8-2.7 9.4 3.3 8.4-7.4-1.2-12.5-4.3-2.3-6.9-5-5.9-6 1-1 5.5 0.1 9.9 2.5 7 3.7 7.9 3.4 6.8-2.5-0.8-4.1-5.5-7.5-12.1-8.6-5.9-1.1-11.4-3.7-12.1-5.9-1.8-5.4 13-22.1 16.5-18.6 1.5 1.5-0.2 4.9-3.7 7.5-9.4 6.9-8 10.2 3.7 8.8 8-0.9 10.5-3.3 11.4-11.4 1.2-10.2-2.6-12-24.4-11.2-2.5 0.1-3.8-1.1-2.9-2.6 1-1.5-3.3-7.4-9.3-13.2-10-9.6-11-12.8-11-34.5 0-22.1 1-25 13-38.3 16-17.7 17-13.8 1.7 6.9-13.7 18.6-8.2 25.3 7.3 8.8 18.4-19.7 18-41.3-1.4-83-7-14.9-11.1-20.9-18-20.6-3.7 0.1-8.1 1.9-14.1 5zm-22.7 12.1c-3.4 3.5-2.4 4.4 4.5 4.4 6.9 0 7.9-0.9 4.4-4.4-1.7-1.7-3.1-2.6-4.4-2.6-1.4 0-2.7 0.9-4.5 2.6zm-113.1 13.7c0.6 2.1 6.5 6.3 13 9.4 11.1 5.4 11.4 6.1 5.5 12-8.6 8.6-4 11.9 9.8 7.1l11.3-3.9-5.6 10.7c-7.5 14.6-7.1 16.1 4 13.3 6.3-1.6 8.8-1.1 7.2 1.4-2.6 4.3-13 5.1-22.2 1.6-5.5-2.2-5.5-2.9-0.1-8.9 5.5-6.1 5-6.7-7.3-9-14.2-2.6-17-7.2-6.8-11.2 5.4-2 4.8-3.7-4.6-11.4-10.8-8.8-27.7-12.4-27.7-5.9 0 1.8-2.1 3.2-4.7 3.1-2.5-0.1-7.8 0.1-11.8 0.4-6.7 0.6-6.6 1.2 1.4 9.7 6.1 6.5 8.8 14.1 9.3 26.9 0.4 9.8 2 25.4 3.6 34.6 3.6 21.4-1.6 35-17.2 44.5-16.3 9.9-24.6 9.4-28.9-1.8-4-10.6-22.3-13.6-22.3-3.7 0 3.1-3.3 5.5-7.4 5.5q-7.4 0-7.4 7.5c0 4 1.4 7.4 3.2 7.4 1.7 0 2.4 4.2 1.4 9.3-2 10.6 4.7 20.9 11.9 18.1 2.7-1.1 5.7 1.6 6.9 6.3 1.5 5.6 3.9 7.4 8.2 5.8 3.3-1.3 8.6-2.4 11.8-2.4 3.3 0 4.8-2.1 3.6-5.3-2.6-6.8 14-17.8 24.6-16.3 4.6 0.7 10.5 6 13.7 12.3 5.3 10.7 5.5 10.8 6.8 2.6 0.7-4.7-0.1-10.6-1.8-13.1-1.7-2.6 0.7-0.4 5.3 4.8 7 8 8.3 8.4 8.3 2.7 0-3.7-1.9-10.4-4.3-14.9-3.9-7.3-3.7-7.6 1.9-2.9 8.2 6.8 11.6 3.1 6.3-6.7-3.4-6.4-3-8.3 1.9-10.2 3.3-1.2 7.4-5.8 9.2-10.1 3.1-7.8 3.1-7.7 3.4 0.6 0.1 4.7-2.3 9.4-5.4 10.6-3 1.2-5.5 3.6-5.5 5.5 0 4.9 8.8 4 16.8-1.9 6.9-5.1 6.9-5.5 0.1-18-12-22.3-2.2-47.8 20.2-52.4 30.1-6.2 28.5-5.2 26.8-17.3-1-6.3 0.4-18.9 3-28.1 2.5-9.1 3.5-17.8 2.1-19.2-1.8-1.8-16-2.7-31.3-2.7-19.6 0-41 1.3-40.2 3.6zm-9.1 15.9c7.5 2.7 7.3 3.1-3.2 7.1-6.2 2.3-12 2.9-13 1.3-2.8-4.5 4.2-9.3 11.4-9.3 1.6 0 3.2 0.3 4.8 0.9zm3.8 21.7c-4.2 5.1-3.9 6.7 2.1 11.1 5.4 3.9 5.7 5.2 1.5 5.2-3.1 0-8.7-2.3-12.6-5.1-6.4-4.8-6.5-5.6-0.9-11.2 4.1-4.1 8.2-6.1 10.5-6.1 2.3 0 2.8 2-0.6 6.1z"/>
				<path id="path1922" fill-rule="evenodd" class="s0" d="m511.8 637.4c-1.1-2.8-0.1-7 2.2-9.3 3.1-3.1 2.1-4.2-4-4.2-9.5 0-11.6-13.7-2.7-17.2 3.9-1.5 4.6-3.9 2.2-8.4-2.9-5.4-1.6-6 9.6-4.7 9.8 1.1 15.2-0.6 22.4-7.3 23.5-21.8 18.9-41.3-13.8-58.7-12.1-6.4-22.9-13.3-24.1-15.2-1.2-2-8.2-3.6-15.5-3.6-13.2 0-13.3-0.1-6.7-7.4 4.2-4.6 8.3-6.2 10.8-4.2 2.2 1.8 7.4 1.9 11.5 0.3 11-4.4 13-4.1 13 2 0 3.1 1.8 5.6 4 5.6 6.8 0 18.3-7.5 18.3-12 0-3.2-1.2-3.2-4.5 0.1-6.2 6.3-14.1 5.6-14.1-1.2 0-4.5-1.5-4.9-7.2-1.9-9.6 5.2-11.4 4.9-11.4-1.8 0-4.6-1.5-4.9-7.4-1.8-5.9 3.2-7.4 2.9-7.4-1.8 0-3.1 4.2-7.7 9.3-10 7.9-3.6 10.2-3.2 14.6 2.8 5 7 5.3 7 13.1-0.1 5.9-5.4 8.7-6.1 10.8-2.8 4.3 7 14.5-2.6 17-15.9l2.1-11.2-4.1 10.3c-4.9 12.4-9.4 13-13 1.8-2.6-8.2-2.8-8.1-6.1 1.9-3.7 10.7-14 14.2-14 4.6 0-6.3-5.8-7.5-9.3-1.8-1.2 2-5.5 3.7-9.4 3.7-6.9 0-6.9-0.2 0-12.1 3.9-6.6 8.2-18.7 9.6-26.9 1.5-8.2 4.2-17.8 6-21.3 4.8-9.3 22.9-17.7 38.2-17.7 15.7 0 16.3-3.1 3.7-18.1l-9.4-11.2 11.1-5.8c17.5-9.1 21.4-7.2 32.1 15.6 19.4 41.7 19.8 63.2 1.3 83-15.4 16.5-20.9 9.8-7.2-8.8 15.2-20.7 14.3-24.6-1.7-6.9-12 13.3-13 16.2-13 38.3 0 21.7 1 24.9 11 34.5 6.1 5.8 10.2 11.7 9.3 13.2-0.9 1.5 0.4 2.7 2.9 2.6 21.8-0.8 25.6 0.9 24.4 11.2-0.9 8-3.4 10.5-11.4 11.4-11.7 1.3-13.1-2-3.7-8.8 3.5-2.6 5.2-6 3.7-7.5-3.5-3.5-18.3 13.2-16.5 18.6 0.7 2.1 6.2 4.8 12.1 5.8 6.6 1.2 11.3 4.6 12.1 8.7 1.1 5.9 0.2 6.2-6.8 2.4-4.4-2.3-8.9-3.4-9.9-2.4-1 1 1.6 3.7 5.9 6 9.6 5.1 10.6 15.8 1.2 12.5-5.3-1.9-5.6-1.4-1.8 2.7 7.4 8 5.4 11.1-4.5 6.6-18.7-8.5-44 10.7-35.3 26.9 3 5.6 3 9-0.2 12.8-6.4 7.7-18.1 10.4-23.9 5.6-3.5-2.9-5.8-3-7.5-0.3-3.5 5.6-15.7 4.8-18-1.2zm-175.9-83.7c-1.2-4.7-4.2-7.4-6.9-6.3-7.2 2.7-13.9-7.5-11.9-18.1 1-5.2 0.3-9.3-1.4-9.3-1.8 0-3.2-3.4-3.2-7.5q0-7.4 7.4-7.4c4.1 0 7.4-2.5 7.4-5.6 0-9.8 18.3-6.8 22.3 3.7 4.3 11.3 12.6 11.8 28.9 1.9 15.6-9.5 20.8-23.1 17.2-44.6-1.6-9.1-3.2-24.7-3.6-34.5-0.5-12.8-3.2-20.4-9.3-26.9-8-8.6-8.1-9.1-1.4-9.7 4-0.3 9.3-0.5 11.8-0.4 2.6 0.1 4.7-1.3 4.7-3.1 0-6.5 16.9-2.9 27.7 5.9 9.4 7.7 10 9.3 4.6 11.4-10.2 3.9-7.4 8.5 6.8 11.2 12.3 2.3 12.8 2.9 7.3 9-5.4 6-5.4 6.7 0.1 8.8 9.2 3.5 19.6 2.8 22.3-1.5 1.5-2.5-1-3-7.2-1.5-11.2 2.8-11.6 1.4-4.1-13.2l5.6-10.8-11.3 4c-13.8 4.8-18.4 1.4-9.8-7.1 5.9-6 5.6-6.7-5.5-12-6.5-3.1-12.4-7.4-13-9.4-1.4-4.2 67.3-5.1 71.5-0.9 1.4 1.4 0.4 10.1-2.1 19.2-2.6 9.2-3.9 21.8-3 28.1 1.8 12.1 3.3 11.1-26.8 17.3-22.4 4.6-32.2 30.1-20.2 52.4 6.8 12.5 6.8 12.9-0.1 18-8 5.8-16.8 6.8-16.8 1.8 0-1.8 2.5-4.2 5.5-5.4 3.1-1.2 5.5-6 5.4-10.6-0.3-8.4-0.3-8.4-3.4-0.7-1.8 4.4-5.9 8.9-9.2 10.2-4.9 1.9-5.3 3.8-1.9 10.1 5.3 9.9 1.9 13.5-6.2 6.8-5.7-4.7-5.9-4.4-2 2.9 2.4 4.5 4.3 11.2 4.3 14.9 0 5.7-1.3 5.3-8.3-2.7-4.6-5.2-7-7.4-5.3-4.9 1.7 2.6 2.5 8.5 1.8 13.2-1.3 8.2-1.6 8.1-6.8-2.6-3.2-6.3-9.1-11.6-13.7-12.3-10.6-1.5-27.2 9.5-24.6 16.3 1.2 3.2-0.3 5.3-3.6 5.3-3.1 0-8.4 1-11.8 2.3-4.2 1.7-6.7-0.1-8.2-5.7zm82.3-124.3c-6-4.4-6.3-6.1-2.1-11.2 6.8-8.1-1.8-8.1-9.9 0.1-5.6 5.5-5.5 6.4 0.9 11.1 3.9 2.8 9.6 5.2 12.6 5.2 4.2 0 3.9-1.3-1.5-5.2zm-5.9-32.9c-4.8-1.7-10-1.2-13 1.3-8.2 6.8-2.3 10.4 9.8 5.9 10.5-4 10.7-4.4 3.2-7.2zm82.8 22.1c3.2-37.7 25.1-64.4 65-78.9 21.8-7.9 32.1-18.5 29.2-30-1.1-4.6-0.4-9.4 1.6-10.7 2.2-1.3 2.7 0.4 1.3 4.5-2.3 6.1-1.9 6.2 4.6 0.9 6.5-5.3 25.5-14.7 29.6-14.7 0.9 0 1.7 2.4 1.7 5.3 0 2.9 1.9 5.9 4.2 6.7 6.8 2.2-3.2 17.7-11.3 17.7-3.8 0-8.8 2.4-11.2 5.3-2.4 2.9-20.9 12.2-41.2 20.8-25.7 10.8-40.4 19.5-48.1 28.3-6.2 7-11.2 13.5-11.2 14.4 0 0.9 6.6-1.8 14.7-6 8.9-4.6 17.7-6.7 22.3-5.3 10.7 3.5 9.3 9.4-2.2 9.4-11.6 0-33.4 12.6-38.6 22.3-2 3.8-3.7 12-3.7 18.3 0 6.2-1.8 11.4-4.1 11.4-2.8 0-3.7-6.6-2.6-19.7zm39.4-51.6c3.5-3.5 5.5-3.5 8.9 0 3.5 3.4 2.5 4.4-4.4 4.4-7 0-7.9-1-4.5-4.4zm-28.6-22c-3-9.9-11.5-20.6-28.2-35.5-23.8-21.3-32.9-38.5-24.8-46.6 5.9-5.9 35.7 5.9 53.5 21.1 8.4 7.2 18.5 13.2 22.3 13.2 5.6 0 6-0.9 2.1-5.1-2.6-2.9-6.9-4.3-9.4-3.4-2.6 1-4.7 0-4.7-2.3 0-2.2-2.1-4.1-4.7-4.1-2.5 0-6.6-3.2-9.1-7.1-2.4-3.8-13.2-10-24-13.5-16.3-5.4-18.4-7.1-12.3-9.6 5.6-2.3 4.1-2.8-5.6-2.2-10.4 0.7-13.2 2.5-14.2 9.4-1.5 10.7-10 8.5-9.6-2.4q0.5-15.4-11.2 0.3l-6.2 8.4 1.7-8.4c1.9-9.3-3.1-11.4-6.4-2.7-3.5 9-10.9 6.5-8.5-2.8 2-8.1 1.3-8.3-18.6-7.1-14.3 0.9-21.7-0.2-23.8-3.6-2.4-3.8-4.5-3.5-10.4 1.8-8.2 7.5-25.2 6.8-23.6-0.9 0.6-2.7-0.8-7.2-3.1-10-2.3-2.7-2.9-6.9-1.4-9.4 1.5-2.4 2.9-7.9 3.1-12.2 0.4-6.4 2.5-7.6 11.3-6.7 9.4 1.1 10.2 0.5 6-4.6-4-4.8-3.9-5.8 0.3-5.8 7.7 0.1 13.3 4.8 14.8 12.5 1.2 6.1 5.4 7 34.8 7.4 27 0.4 33.4 1.6 33.4 6.1 0 3 2.1 5.5 4.5 5.5 2.5 0 7 3.4 10 7.5 5.3 7.2 5.5 7.2 8.1 0.4 2.6-6.6 3.1-6.6 7.4-0.7 3.1 4.2 5.4 4.9 7.1 2.2 1.9-3 4-3 7.8 0.2 4.1 3.3 5.7 2.9 7.6-2.2 2.3-5.7 3.2-5.5 9.3 2.4 6.3 8.2 6.8 8.3 6.9 1.4 0.2-6.8 0.8-6.7 7.4 1.8 6.5 8.6 7.5 8.8 11.9 3.1 5.9-7.6 27.9-9.8 38.9-3.8 6.3 3.4 8.4 3.4 9.7-0.2 0.9-2.6 2.8-3.6 4.1-2.4 1.3 1.2-0.3 12.9-3.7 26-5.2 20.1-5.5 27.1-1.7 45.7 4.6 22.2 2.7 28-9.2 28.1-2.2 0.1-13.3 5.7-24.7 12.6l-20.7 12.4zm114.8-66.4c0-4.1 1.7-7.4 3.7-7.4 2.1 0 3.8 3.3 3.8 7.4 0 4.1-1.7 7.4-3.8 7.4-2 0-3.7-3.3-3.7-7.4zm1.3-17c-3.1-8.1 0.1-9.7 7.9-4 6.2 4.5 6.2 5.1 0.5 7.3-3.9 1.5-7.1 0.3-8.4-3.3zm-1.8-18c-3-6.5-3-12.2-0.1-20.5 2.2-6.3 5.1-21.6 6.5-34 1.4-12.5 3.8-20.5 5.4-18 1.5 2.4 4.6 3.3 6.9 1.9 2.6-1.6 5.1 1.7 6.5 9 1.5 7.6 4 10.9 7.3 9.7 7.6-3 9 2.8 3.3 13.8-2.8 5.5-3.5 10-1.5 10 5.6 0-0.3 27.1-7 32.4-9.8 7.7-22.8 5.7-27.3-4.3zm-112.9-13.7c-1.8-5.6-3.5-6.7-6.5-3.7-6.9 6.9-11 4.6-9.1-5.2 1.4-7.3 0.2-9.3-5.5-9.3-4.2 0-8.1-3.2-9.2-7.4-1.1-4.1-5.1-7.4-9-7.4-3.8 0-6.9-2.6-6.9-5.8 0-4.2-2.2-5.2-7.6-3.5-6.7 2.2-7.3 1.3-5.2-7.1q2.4-9.6-2.1-9.6c-2.8 0-3.8-3-2.6-7.4 1-4.1 0.1-8.6-2.1-10-5.8-3.5 7.8-7.7 18.4-5.7 6.9 1.3 8.5 3.8 7.7 11.5-0.8 7.7 0.5 9.5 5.8 8.6 5.4-1 6.4 0.4 4.4 6.5-1.7 5.5-0.8 7.6 3.4 7.6 3.4 0 5.8 3.2 5.8 7.5 0 4.1 2.5 7.4 5.6 7.4 3.1 0 5.6 2.7 5.6 6 0 3.5 2.1 5.1 5.1 3.9q5.2-2 7.4 8.9c1.2 6 3.4 10.8 5 10.8 5.4-0.2 17.2-11 14.8-13.4-1.3-1.3-5-0.3-8.1 2.3-4.8 4-5.6 3.2-5.6-5.1 0-6.1-2.1-9.7-5.6-9.7-7.9 0-20.1-11.4-18-16.8 0.9-2.5-0.9-5.5-4-6.7-3.2-1.2-4.8-4.6-3.7-7.4 1.2-3.3-1.1-6.1-6.2-7.4-5.8-1.5-7.4-3.9-5.6-8.5 1.4-3.7 0.4-7.7-2.2-9.3-3.2-2-1.2-4.2 6.1-7 13-4.9 24.1-2 17.5 4.5-6.2 6.3-5.4 9.5 3.1 12.2 4.1 1.3 7.4 4.9 7.4 8.1 0 3.9 2.4 5.1 7.4 3.8 5.5-1.4 7.5-0.1 7.5 5.1 0 4.6 2.6 7.1 7.4 7.1 4.1 0 7.4 1.9 7.4 4.2 0 2.4 3.9 1.5 9.8-2.3 7.8-5.1 10.3-5.4 12.7-1.5 2.4 3.9 4.6 3.5 10.7-2 4.3-3.9 7.7-5.1 7.7-2.7 0 7.3 8 4.7 10.1-3.3 3.1-12.1 10.2-6.1 11.5 9.7 0.7 8 3.2 15.8 5.6 17.4 3 2 1.6 4.9-4.5 9.7-5.9 4.6-7.5 7.8-4.7 9.5 7.1 4.4 4.7 10.2-3.2 7.7-5.1-1.6-8.2-0.3-9.9 4-2.2 5.9-2.8 5.9-7.4-0.4-4.8-6.6-5.1-6.6-9.9 0-4.8 6.5-5.3 6.4-10.8-1.4q-5.8-8.3-8.4-4c-1.4 2.3-4.8 3.3-7.6 2.3-2.7-1.1-9.1 1.3-14.1 5.3-11.5 9-12.5 9-15.6-0.6zm44.8-25.8c1.7-2.7 3.9-2.6 7.3 0.1 3.5 3 5.4 2.3 7.3-2.6 2.4-6.2 2.7-6.2 6.4 0.2 3.6 6.5 4 6.5 9.3-1 3-4.3 4.6-9.9 3.6-12.4-1-2.5-2-1.4-2.1 2.4-0.2 5.5-1.4 6.1-5.4 2.8-3.9-3.2-6.2-2.9-9.9 1.6-3.8 4.5-5.4 4.8-7.7 1-2.3-3.7-4-3.8-7.4-0.5-3.3 3.4-6.5 3-13.8-1.8l-9.4-6.1 6.7 10.1c7 10.8 11.3 12.5 15.1 6.2zm-107.6 19c-1.4-2.2-1.4-5.6-0.2-7.6 1.3-2.1-0.3-3.8-3.5-3.8-6.8 0-7.1-1.7-1.9-11.3 5.2-9.7 18.4-9.6 18.4 0.2 0 8.3 5.5 9.9 9.9 2.8 1.9-3.1 3.5-1.6 5.1 4.7 1.6 6.5 4.3 8.9 9.4 8 6.9-1.2 6.9-1 0.6 5.6-5.2 5.2-7.3 5.7-9.6 2-1.6-2.7-5.7-3.7-9.2-2.4-3.9 1.5-6.2 0.5-6.3-2.7-0.1-3.4-1.7-2.9-5.2 1.7-3.2 4.3-6 5.3-7.5 2.8zm-24.3-22.3c0-1.9 1.7-4.5 3.7-5.8 6.3-3.8 4.1-9.2-2.8-7-5.5 1.8-5.4 1.2 0.7-3.8 6.4-5.2 6.5-5.9 1-5.9-8.8 0-7.9-4.7 3-14.8 10.5-9.9 15.6-8.1 9.4 3.4-3.4 6.3-3.1 7.7 2 7.7 4.8 0 5.6 2.2 3.6 10.2-3.2 13.4-20.6 26.9-20.6 16zm106.4-28.7c-1.3-1.3-2.4-5.5-2.4-9.1 0-4.5-1.9-6-5.6-4.6-3.5 1.4-5.6 0-5.6-3.8 0-3.3-2.5-6-5.5-6-7.3 0-7.1-5.4 0.5-12.9 5.6-5.7 6.8-5.4 16.4 3.9 9.5 9 11.5 9.5 22.5 5.7 8.2-2.8 13.3-3 15.8-0.5 6.3 6.3 9.8 4.3 9.8-5.5 0-5.8 2.1-9.3 5.5-9.3 3.5 0 5.6-3.5 5.6-9.6 0-6 1.7-9 4.6-8 5.2 1.7 8.2 39.9 3.1 39.9-1.7 0-4 3.5-5.2 7.8-1.5 5.9-3.9 7.2-9.7 5.3-5.5-1.8-7.7-0.8-7.7 3.4 0 6.9-4.2 7.5-10.2 1.5-3.3-3.3-5.8-3-10.6 0.9-5.1 4.2-6.7 4.3-8 0.5-1.1-3.4-3-3.7-6.2-1-2.6 2.1-5.7 2.7-7.1 1.4zm-112.7-16.4c3.4-13-4.6-25.7-16.3-25.7-7.4 0-11.1-2.3-12.9-8.1-1.6-5.1-1-8.8 1.7-9.7 3.2-1.1 3.3-2.8 0.4-6.3-5.6-6.7-0.3-9.5 22.2-11.3 19.2-1.6 26 2.5 18.7 11.2-3.3 4-2.4 8.4 4 19.6l8.3 14.4-8.7 11.8c-10.1 13.7-20.5 16.1-17.4 4.1zm-6.5-9.7c-2-5.3-1.5-5.7 2.1-2.1 2.6 2.5 3.7 5.5 2.6 6.7-1.2 1.1-3.3-1-4.7-4.6zm125.1-8.6c-4.6-1.9-8.3-5.1-8.3-7.2 0-2.1-2.4-3.9-5.3-3.9-3 0-6-4.4-6.8-10.2-1.3-10-2.6-8.8-7.9 7.4-1.5 4.9-6.1 6.5-18 6.5-11.6-0.1-14.4-1-10.3-3.7 3.1-2 10.2-3.6 15.8-3.6 9.1-0.1 10.2-1.5 10.2-12.3 0-13.8-5.5-21.2-15.9-21.2-9.3 0-7.2-14.5 2.9-20 4.1-2.3 8.5-5.6 9.8-7.4 1.3-1.8 11.4-2.2 22.3-0.9 10.9 1.3 24.1 2.8 29.2 3.3 7.3 0.7 9.2 2.8 8.8 10.1-0.2 5.1 1.8 10.6 4.5 12.2 4 2.4 3.8 4.3-1.3 10.2-3.4 4.1-8.6 7.3-11.5 7.3-4.2 0-4.3 1.1-0.5 5.6 3.8 4.6 3.5 5.6-1.8 5.6-4.4 0-5.7 1.9-4.2 6 1.9 4.9 0.5 5.5-7.9 3.6-9.8-2.2-10-2.1-2.9 3.4 8.4 6.6 19.1 5.6 17.6-1.6-0.6-2.6 1.9-7 5.5-9.7 3.7-2.6 5.5-6 4-7.4-3.7-3.8 12.6-16.1 18.3-13.9 5.6 2.1 6.5 12.2 1.1 12.2-2.1 0-3.7 3.3-3.7 7.4 0 4.1-1.7 7.4-3.7 7.4-2.1 0-3.8 2.4-3.8 5.4 0 2.9-1.2 6.1-2.7 7-7.1 4.1-25.9 5.5-33.5 2.4zm-8.3-68.3c0-0.8-4.9-2.1-10.9-2.9-9.6-1.5-10.5-0.8-7.3 5.2 2.9 5.4 5.1 6 10.9 2.9 4-2.2 7.3-4.5 7.3-5.2z"/>
			</g>
		</g>
	</g>
	<g id="layer3">
		<path id="path2815" class="s6" d="m301.3 989.9c-143.8-26.3-245.1-114.9-283.6-247.9-16.3-56.3-17.6-90.8-16.4-426.3l1.1-313.8 741.1-1.9-1.2 350.1c-1.2 348.5-1.2 350.1-9.5 381.1-34.6 130-131.5 213.1-256.5 251.8-44.5 11.6-130.6 15-175 6.9z"/>
	</g>
</svg>