<?xml version="1.0" encoding="UTF-8"?>
<!DOCTYPE svg PUBLIC "-//W3C//DTD SVG 1.1//EN" "http://www.w3.org/Graphics/SVG/1.1/DTD/svg11.dtd">
<!-- Creator: CorelDRAW -->
<svg xmlns="http://www.w3.org/2000/svg" xml:space="preserve" width="170.9mm" height="229.4mm" style="shape-rendering:geometricPrecision; text-rendering:geometricPrecision; image-rendering:optimizeQuality; fill-rule:evenodd; clip-rule:evenodd" viewBox="0 0 170.9 229.4" xmlns:xlink="http://www.w3.org/1999/xlink">
 <defs>
  <style type="text/css">
   <![CDATA[
    .fil1 {fill:#EF9A48}
    .fil0 {fill:white}
   ]]>
  </style>
 </defs>
 <g id="Layer_x0020_1">
  <metadata id="CorelCorpID_0Corel-Layer"/>
  <g id="_41957504">
   <path id="_42463296" class="fil0" d="M1.8569 20.9318l0 206.162 167.507 0 0 -206.162c0,-10.4888 -62.9377,-18.0392 -79.8878,-18.0392l-7.7311 0c-16.9506,0 -79.8878,7.5504 -79.8878,18.0392z"/>
  </g>
  <path class="fil1" d="M65.9778 27.1641l-29.8275 2.5937 -0.1902 -13.6635 -32.9085 8.685 5.8653 19.2435c23.5186,-5.4791 47.2744,-9.0777 76.5132,-9.0777 29.2388,0 52.9946,3.5986 76.4553,9.06l5.1604 -19.1239 -32.3359 -8.0918 0.0647 12.3404 -29.8917 -1.9657 0 -15.562 -38.9051 0 0 15.562z"/>
  <path class="fil1" d="M23.1819 152.957c0,-3.5878 3.8908,-4.1471 3.8908,-1.1559 0,3.8432 0.0975,6.1864 0.0191,10.3203 -0.0118,0.6265 -0.8912,1.7706 -1.829,1.7892 -0.998,0.0196 -2.0809,-1.1755 -2.0809,-1.8436l0 -9.11zm12.9684 0c0,-4.8001 5.1873,-3.8202 5.1873,-0.5696l0 7.0535c0,2.1226 -0.7765,3.8908 -2.5936,3.8908 -1.8172,0 -2.5937,-1.7682 -2.5937,-3.8908l0 -6.4839zm-4.6236 -12.239c0.648,0 2.0299,0.3863 2.0299,1.9893l0 16.7336c0,4.9099 -3.8903,4.5864 -3.8903,0 0,-4.5388 -0.274,-11.1492 -0.2284,-16.5905 0.0108,-1.2917 1.0412,-2.1324 2.0888,-2.1324zm17.7557 22.1225l-5.4923 -0.0049c0.0196,-4.3986 0.178,-12.7659 -3.4383,-15.266 -0.3637,-0.2514 -0.8064,-0.4049 -1.399,-0.3652 -0.7486,0.05 -1.3996,0.4167 -2.0594,0.853l-0.7113 0.825c0.1344,-2.8201 0.1231,-4.252 -0.1264,-8.0938 -0.1074,-1.6559 -3.1584,-2.903 -4.8374,-2.924 -0.5122,0.0049 -4.1456,0.4328 -4.1456,3.4206l0.3279 7.4693c-0.3902,-0.1942 -3.5442,-3.8128 -6.1526,2.1431 -0.9657,2.7672 -0.7377,5.7497 -0.5887,12.3792l-6.555 0.0549c1.6466,6.1678 10.4693,7.781 18.1557,7.781 6.5119,0 13.2493,-2.6383 17.0224,-8.2722z"/>
  <path class="fil1" d="M59.0301 66.3707c3.6937,0.1196 7.1678,2.6054 9.5561,2.2491l6.4324 -0.9599 3.9276 -0.2941c3.5025,0 7.1521,0.2113 10.0604,-0.4662 -2.7064,1.9937 -6.1702,5.5825 -6.1702,12.138 0,7.1609 5.1918,12.1306 9.5031,14.0856 -6.9168,0 -25.9617,1.1323 -26.3617,0.1794 -0.2142,-0.5103 6.0266,-2.3932 6.4903,-2.6986l7.7624 -5.1114 -11.3502 0.1187c1.1417,-0.8055 2.1574,-1.8295 3.4251,-2.4153 2.5093,-1.1593 7.2123,-4.1481 4.9706,-4.2873l-14.0497 -0.8716c1.7574,-1.2417 3.3873,-1.5245 6.8437,-2.6025l5.8859 -1.8353c2.2643,-0.7059 -5.2952,-1.8417 -9.9374,-2.5609 -4.2761,-0.6627 -8.0693,-4.7025 -6.9884,-4.6677zm-0.8652 -5.5207c-19.7298,0.0157 -14.0218,5.407 -29.425,-5.1555l1.422 6.5521 -1.7926 12.9003 2.0181 15.439c0.0236,0.1784 1.7486,-0.5952 1.7697,-0.777l0.3078 -2.6265c1.0275,0.3451 3.329,2.4995 4.3967,2.527 1.0676,0.0274 2.0588,-0.2084 1.7647,-0.9236l-2.2564 -5.477 -0.0226 -1.752 5.6497 -4.6771c1.0662,6.0129 1.9343,3.9844 1.9343,7.3453 0,10.731 -14.2331,16.0091 -14.2331,29.9299l0 7.781c-5.232,-1.0181 -10.5095,-6.5721 -13.2326,-6.4138 -0.9039,0.0524 -1.6309,-0.1608 -2.0285,1.3593 -0.1343,0.5128 -0.3328,1.2123 -0.3328,2.3579l0 1.2971 0.6328 9.2766 2.0599 9.6787 -0.3677 5.5427c1.8613,-0.6299 2.8623,-0.1613 2.8623,-3.7491 0,-6.0006 -2.1225,-8.6016 -2.5936,-14.265l1.5382 -3.7976c4.056,0.9084 8.7012,4.53 11.76,7.358 7.1575,6.6173 9.2904,3.7922 12.8571,6.5952 1.8006,1.4152 10.1561,24.2446 10.1561,28.7496 0,3.0799 -2.0196,0.0186 -3.8907,5.1873l10.3374 -1.5186 -11.8713 -32.1055c9.5997,-5.0477 17.2582,-1.3907 30.0643,-1.3907 2.5451,0 15.6865,-6.4742 18.1557,-7.7811 2.8001,1.8751 20.7582,20.6259 9.0781,19.4528l-18.1297 -1.5573 -3.0687 5.1677 5.3584 -0.9495c2.8207,0.2554 3.704,1.0882 7.9987,0.6578 1.0848,-0.1088 2.4834,-0.5505 3.5746,-0.5206l13.334 0.3721 4.1785 -2.8922 9.9635 2.8157c0.471,3.5565 1.4304,4.107 1.4304,8.5776l0 2.5937c0,4.5682 -5.2104,5.5692 -7.7811,9.0781l6.5835 0.4113 -0.049 -1.8672 5.0868 1.6147 1.6412 -14.3875 -0.9431 -11.683c-2.102,-1.8672 -5.8349,-2.8398 -5.8349,-6.5095 0,-3.8397 3.8275,-10.5261 5.2413,-14.2105 2.298,-5.9874 -1.03,-13.0228 5.1334,-13.0228l3.8902 0c-0.1764,7.9291 -5.1873,13.5723 -5.1873,22.046 0,25.1201 10.6468,27.9466 14.2655,41.4988l2.5936 0c0.3373,-4.0565 1.2966,-4.607 1.2966,-9.0776l0 -2.5937 0.6015 -44.115 0.6956 -2.5712 -1.0726 -8.6021c-0.4495,-3.6044 -2.4412,-4.3662 -5.4118,-4.3662 -6.9536,0 -16.0768,6.4844 -18.1558,6.4844 -0.1142,0 -13.9409,-7.9114 -15.562,-7.781 -5.8795,0.473 -15.0282,6.4839 -19.4523,6.4839l-3.8908 0c-9.2908,0 -26.5166,-1.5363 -28.5304,-9.0776l88.1742 -2.1623 -2.2172 -0.8348c-9.509,-1.2574 -10.6649,-4.0261 -18.5215,-4.0261l-5.502 1.2123c-8.3467,0 -13.7664,2.1677 -17.4111,-2.8064 5.354,-0.2294 10.834,-1.7378 15.1811,-1.1304 4.6124,0.6446 8.7649,0.8162 10.4997,0.1255 5.8943,-2.3466 8.3164,-1.0103 12.3988,-2.0378l5.8109 -1.4628c-13.4458,-0.1598 -27.3883,0.0373 -40.8218,-0.5181 -0.5917,-0.024 0.5117,-1.6898 0.976,-1.8805 4.9064,-2.0152 10.6605,0.4515 15.4154,-1.5171 4.7957,-1.9859 10.0203,-3.0628 15.6126,-4.4697l7.2933 -1.8349c-11.6723,0.3858 -25.2368,1.9697 -36.9017,1.428 -0.927,-0.0426 -1.278,-2.9069 -0.3608,-3.0613l13.4483 -2.2643c2.925,-0.4926 9.2649,1.2897 11.2379,1.1113 1.9731,-0.1784 6.1212,-2.3878 8.086,-2.8447l4.4903 -2.15 -39.1571 1.4853c0.7686,-3.9716 7.0388,-5.376 10.6266,-5.376 6.1467,0 8.8575,1.1554 13.9052,1.1554 5.7251,0 9.6889,0.0975 13.3282,-5.0457l-55.7569 1.5118c-13.8062,0.2495 -22.6823,-1.5545 -36.3502,-1.5437z"/>
  <path class="fil1" d="M29.1354 183.343l4.6364 4.4016c-1.7334,3.0961 -4.1055,6.5535 -4.1055,10.6012l0 3.8907 3.8903 0c-0.8574,-3.6795 -1.2966,-2.2172 -1.2966,-5.1873 0,-0.3559 0.8932,-2.3697 1.2966,-3.8908l2.5937 0c0.476,5.7192 0.5662,7.8443 5.1873,9.0781 -0.3431,-4.1256 -3.3466,-19.4528 -7.781,-19.4528l-4.4212 0.5593z"/>
  <path class="fil1" d="M50.4157 193.159l0.7353 6.5045 -4.5549 -2.5868 1.4676 -3.8246 2.352 -0.0931zm-6.4844 -10.3747c0.6446,0.8397 3.8908,4.8947 3.8908,5.1874 0,1.6794 -3.8908,2.7618 -3.8908,9.0781l0 2.5936c0,6.8291 4.331,1.3133 10.3747,2.5937l-3.8868 -19.4533 -6.4879 0.0005z"/>
  <path class="fil1" d="M60.7904 191.862c2.1824,-9.3693 3.1359,-1.3961 5.1874,-9.0781l-7.781 0 0 19.4528c1.9147,-0.5113 3.8902,-0.2314 3.8902,-2.5937 0,-3.95 -0.5892,-4.7437 -1.2966,-7.781z"/>
  <path class="fil1" d="M82.8364 186.675c5.082,-0.5319 3.8604,1.0799 5.1874,-3.8908l-3.8903 0c-2.9883,0 -3.8907,0.9025 -3.8907,3.8908l0 10.3747c0,2.5049 2.3122,5.1873 3.8907,5.1873 1.7795,0 3.0971,-2.7059 3.8903,-3.8907l-5.1874 0c0.4221,-5.0693 -0.7848,-3.9388 3.8908,-5.1874l0 -2.5937 -3.8908 -3.8902z"/>
  <path class="fil1" d="M95.5146 199.851l-1.2486 -5.3021 4.1599 1.1334 1.7354 3.7452 -4.6467 0.4235zm-1.0064 -14.4728l3.8903 0 -1.58 5.1133 -2.3103 0.074 0 -5.1873zm5.1874 3.8907c0,-2.6848 2.0122,0.4976 2.5936,-6.4844l-10.3747 0 -1.2466 10.3796c-0.2323,1.8824 -1.3137,9.0732 3.8403,9.0732l9.0776 0c-0.5956,-7.1555 -3.8902,-6.6918 -3.8902,-12.9684z"/>
  <path class="fil1" d="M115.87 183.727l-0.7746 -1.5584 -10.3438 2.7118c0.8084,3.406 1.4275,3.4795 1.4275,6.982l0 10.3747 3.8908 0 0 -7.781c0,-3.5025 -0.6197,-3.5761 -1.1275,-6.2237l6.9276 -4.5054z"/>
  <path class="fil1" d="M131.587 191.511l2.1158 7.4369 -5.6962 -2.0441 3.5804 -5.3928zm-5.1069 -8.4462l3.0584 4.8972c-1.5339,2.8794 -3.906,6.3368 -3.906,10.3845 0,6.505 8.1134,2.8623 12.9684,3.8907 -0.3892,-4.6726 -2.5388,-6.0663 -3.8898,-11.6727 -1.651,-6.8492 -0.1564,-7.61 -8.231,-7.4997z"/>
  <path class="fil1" d="M17.3392 193.2c5.6687,2.9995 4.7966,1.1005 5.4741,7.2893l-4.8187 -0.8461 -0.6554 -6.4432zm0.6554 -5.2285c0.3063,-0.3741 2.3765,-1.2966 3.8907,-1.2966l5.1874 0 0 -2.5937c-2.9089,-0.6775 -2.982,-1.2971 -6.4845,-1.2971l-1.2966 0c-3.0358,0 -5.1873,2.152 -5.1873,5.1874l0 2.5936 1.452 11.6483c2.753,0.701 2.826,1.3201 6.329,1.3201l5.1874 0c-3.5722,-15.3321 -3.4501,-7.1575 -9.0781,-15.562z"/>
  <path class="fil1" d="M119.148 186.675c0.9946,0.6912 2.5936,0.697 2.5936,2.5936 0,1.7496 -1.4392,1.9452 -2.5936,2.5937l0 -5.1873zm0 11.6713c0,-4.1281 3.7799,-3.9668 6.4844,-9.0777 -1.4809,-2.2118 -2.8221,-5.1873 -6.4844,-5.1873 -1.5785,0 -3.8903,2.6824 -3.8903,5.1873l0 9.0777c0,3.5025 0.6191,3.576 1.2966,6.4844l2.5937 0 0 -6.4844z"/>
  <path class="fil1" d="M75.0554 194.456l-1.5388 3.7976 -2.4064 0.8584c-0.8412,-2.1525 -3.2961,-5.0658 -2.4681,-7.2227l1.4676 -3.8246c3.4197,0.2118 4.9457,-0.123 4.9457,3.7976 0,0.8642 0.324,1.7927 0,2.5937zm-5.0177 11.6223c5.5339,-1.4736 7.6114,-7.1909 7.6114,-14.216 0,-2.9976 -1.4496,-7.781 -3.8903,-7.781 -5.3398,0 -5.9496,4.3197 -7.8482,7.8001l4.1271 14.1969z"/>
  <path class="fil1" d="M145.085 198.346c0,-4.9992 -0.1407,-4.1109 3.8908,-5.1874l1.7196 5.1874 -5.6104 0zm-0.2416 -14.1724l1.4676 3.8251c-0.7426,1.5098 -6.4133,13.1743 -6.4133,14.238l0 6.484 2.5936 0 0 -6.484 10.3747 0 0 5.1874 2.5937 0 0 -6.4845c0,-2.0706 -5.9413,-10.333 -6.4839,-16.8586l-4.1324 0.0926z"/>
  <path class="fil1" d="M11.5106 53.1009l147.839 0 0 165.995 -147.839 0 0 -165.995zm-2.6995 -5.9394l0.1058 174.528 153.027 0 0.1053 -174.528 -55.8696 -7.029 -41.6135 -0.8152 -55.7549 7.8442z"/>
  <path class="fil1" d="M2.4325 21.9768c0,-10.5571 63.3443,-18.1558 80.4039,-18.1558l5.1874 0c17.0596,0 80.4039,7.5987 80.4039,18.1558l0 204.9 -165.995 0 0 -204.9zm-1.2966 -1.2971l0 207.494 168.589 0 0 -207.494c0,-10.5566 -63.3443,-18.1557 -80.4039,-18.1557l-7.7811 0c-17.0601,0 -80.4039,7.5991 -80.4039,18.1557z"/>
 </g>
</svg>