<svg version="1.2" xmlns="http://www.w3.org/2000/svg" viewBox="0 0 818 1173" width="818" height="1173">
	<title>Bansko-pdf</title>
	<style>
		.s0 { fill: #4a0607 } 
		.s1 { fill: #ffffff } 
	</style>
	<path id="Path 1" class="s0" d="m812.6 53.9l5.1 939.7q0 0.4 0 0.9c0 48.9-21.3 93.4-55.7 125.7-34.3 32.3-81.7 52.5-133.6 52.7q-0.5 0-0.9 0h-436.6c-52.4 0-99.9-20.2-134.4-52.7-34.5-32.5-55.9-77.3-55.9-126.6v-946.4h7.1q0.5 0 1 0c100.8 0.2 188.7-15.8 262.1-29.2 53.9-9.8 100-18.2 138.2-17.9 35.6 0.3 72 7.6 116 16.4 67.6 13.6 153.3 30.7 280.5 30.7h7.1z"/>
	<path id="Path 2" fill-rule="evenodd" class="s1" d="m794.5 77.8l4.8 897.5q0 0.4 0 0.8c0 46.8-20.4 89.3-53.2 120.1-32.8 30.9-78 50.1-127.6 50.3q-0.4 0-0.9 0h-416.9c-50 0-95.4-19.2-128.4-50.3-32.9-31-53.3-73.8-53.3-120.9v-903.8h6.7q0.5 0 1 0c96.3 0.1 180.2-15.1 250.3-27.9 51.5-9.4 95.5-17.4 132-17.1 34 0.3 68.8 7.2 110.7 15.7 64.7 12.9 146.5 29.3 267.9 29.3h6.8zm-221.6 190.3v390.2c0 6 5.2 11.2 11.8 11.2h185.5c6.5 0 11.8-5.1 11.8-11.2v-374.4c-70.7-36.8-92.1-33.1-137.2-25.2-18.7 3.2-41.2 7.1-71.9 9.4zm-341.7 865.6c3.8 0 6.9-1.9 8.6-3.3 2-1.6 3.2-4 3.2-6.9v-430c0-3.1-1.3-5.9-3.5-7.9-2.1-2-5-3.3-8.3-3.3h-185.5c-8.9 0-13.1 6-13.1 11.2v281.7c0 43.6 18.9 83.3 49.4 112 30.5 28.7 72.5 46.5 118.7 46.5zm-198.5-863.7c70.7-36.1 93.7-32.1 140.9-23.9 56 9.8 84.2 9.7 137.1-9.5 31.3-11.3 64.2-23.7 98.4-23.7 34 1.4 64.9 12.3 96.2 23.7 52.9 19.2 81.1 19.3 137.1 9.5 46.9-8.1 69.9-12.2 139.6 23.2l-1-185.1c-119-0.6-199.9-16.8-263.9-29.6-41.2-8.3-75.4-15.1-108.1-15.4-35.3-0.3-78.7 7.6-129.3 16.9-69.3 12.6-152 27.6-247 28.1zm751.6 423.5c0-4-4.4-11.2-14-11.2h-185.6c-6.5 0-11.8 5.1-11.8 11.2v430c0 2.9 1.3 5.3 3.2 6.9 2.5 2 4.6 3.3 8.6 3.3 0.3 0 33.6 0 33.9 0 45.9-0.2 87.7-18 118-46.5 30.4-28.6 49.2-67.9 49.2-111.1q0-0.4 0-0.9zm-541.2-35.1v-390.2c-30.7-2.3-53.3-6.2-72-9.5-45-7.8-66.4-11.6-137.1 25.2v374.5c0 3.1 1.3 5.9 3.5 7.9 2.1 2 5 3.3 8.2 3.3h185.6c3.3 0 6.2-1.3 8.3-3.3 2.2-2 3.5-4.8 3.5-7.9zm304.5 475.3c3.2 0 6.2-1.2 8.3-3.2 2.2-2 3.5-4.9 3.5-8v-855.2c-19.6-4.5-39.2-11.6-58.9-18.7-28.8-10.5-59.4-22.5-91.4-22.7-32-0.2-63.7 11.8-93.5 22.7-19.7 7.1-39.3 14.2-58.9 18.7v855.2c0 3.1 1.3 6 3.4 8 2.2 2 5.1 3.2 8.3 3.2z"/>
	<path id="Path 3" fill-rule="evenodd" class="s1" d="m112.6 380.3c-4.3-32.9-43.9-54.8 0.7-84-3.1 38.9 33.1 60.1-0.7 84zm33.6 1.2c-4.4-33-44-54.8 0.6-84-3 38.9 33.2 60.1-0.6 84zm31.7-0.9c-4.4-32.9-44-54.8 0.6-83.9-3 38.8 33.2 60-0.6 83.9zm21.4 4.5c-4.5 15-18.4 27.3-36.9 33.2h-39.8c-16.2-5.3-46-22.8-46-42 0-7.2 5.8-13.1 12.8-13.1 7.1 0 12.9 5.9 12.9 13.1 0 2.9-0.9 5.5-2.4 7.7zm-131 63q12.3-22.6 26.6-22.2v175c-16.7-0.8-18.4 16.7-0.5 25.1l111.1 0.2 1.6 6.9-120.9 1.4q-15.1-8.4-17.9-26.4zm133.8 162.4h-113.3l7-7.2h109.5zm3.1 11.1h-109.5l-7-7.2h112.2zm-103.2-195.6h103.9v173h-103.9zm10.5 13.9v145.1h86.1v-145.1zm79.3 138.7h-72.5v-132.3h72.5zm-52-92.8v53.2h31.6v-53.2zm24.8 46.9h-18v-40.5h18zm-15.4-37v33.4h12.8v-33.4zm10.1 29.4h-7.3v-25.4h7.3zm-76.4-148.8c0 3.7 2.9 6.6 6.5 6.6 3.6 0 6.5-2.9 6.5-6.6 0-3.6-2.9-6.6-6.5-6.6-3.6 0-6.5 3-6.5 6.6zm543.9 336.7c7.4 7.1 25.9 19 13.9 44.7-3.8-0.9-7.2 0.5-10.8 0.2-0.5-0.1-1.8-4.6-0.5-9.9 2.6-11.2 2.5-22.9 1.3-21.3-2.8-2.4-5.5 30.3-3.5 31.4 1.7 1-4.1 0.9-4.4 1.2-10.2-17.5-1.6-23.2 4-46.3zm82.2 357.6c-4.4 6.3-4.4 10.9-9.5 14.1-8.6 5.4-23 7-33.1 7-16.2 0-31.6-3.6-43.3-19.5 11.7 6 26.1 9.5 41.5 9.5 16.8 0 32.2-4.1 44.4-11.1zm11.3-175.6c6.7-0.7 15.4-0.3 20.9 1.4 7.1 2.2 12.7 6.4 15.9 13.2 2.9 6.1 3.6 14.1 1.5 24.3-2.8 13.1-10.4 30.3-24.7 52.4-0.8 26.6-6.8 50.9-16.3 70-2 1.9-4.2 3.7-6.6 5.4-11.8 8.4-28.2 13.6-46.4 13.6-18.1 0-34.5-5.2-46.4-13.6q-1.7-1.2-3.3-2.5c-11.1-21-17.9-48.8-17.9-79.3 0-28.6 6-54.9 15.9-75.3 0.6 0.4 1.1 0.8 1.7 1.2 13 9.2 30.8 14.9 50.4 14.9h0.1c19.6 0 37.5-5.7 50.5-14.9 0.7-0.5 1.5-1.1 2.3-1.7 7.8 16 13.3 35.7 15.3 57.3 6.5-12.1 10.3-22 12-30 1.6-7.4 1.2-12.9-0.5-16.7-1.5-3.1-4.2-5.1-7.6-6.2-3.6-1-7.9-1.2-12.8-0.7zm-49.5 73.9q-0.6-0.4-1.2-0.9c-1.6-1.1-3.4-1.7-5.4-1.7-3.3 0-6.3 1.8-8.8 5-0.4 0.6-0.8 1.2-1.2 1.9q0 0-0.1 0.1c-3.2-0.8-6.2-1-8.6-0.3q-1 0.3-1.8 0.7-0.9 0.4-1.7 1.1-0.2 0.2-0.3 0.2c-2.3 2.2-3 5.3-2.4 9.1q0.1 1 0.4 2.1c0.1 0.1 0.1 0.3 0.2 0.5q-2.9 1.5-4.7 3.4-0.5 0.4-0.9 1c-1.2 1.6-1.9 3.3-1.9 5.1 0 3.1 2 5.9 5.4 8.2q0.9 0.6 1.9 1.2 0.1 0 0.2 0c-0.9 3.1-1.1 5.9-0.4 8.1q0.3 1 0.8 1.8c0.3 0.5 0.7 1.1 1.1 1.6 0.2 0.1 0.3 0.2 0.3 0.2 2.3 2.2 5.7 2.9 9.7 2.3q1.1-0.1 2.2-0.4 0.2-0.1 0.5-0.2 1.7 2.7 3.6 4.4c0.3 0.3 0.7 0.6 1.1 0.9 1.7 1.1 3.5 1.8 5.4 1.8 3.3 0 6.4-1.9 8.8-5.1q0.6-0.9 1.2-1.8 0-0.1 0.1-0.2c3.2 0.9 6.2 1 8.6 0.4q1-0.3 1.9-0.7 0.9-0.5 1.6-1.1 0.2-0.2 0.3-0.3c2.3-2.2 3.1-5.3 2.5-9q-0.2-1.1-0.5-2.1 0-0.3-0.1-0.6 2.8-1.5 4.6-3.3 0.5-0.5 1-1c1.2-1.6 1.8-3.3 1.9-5.1 0-3.2-2-6-5.4-8.3-0.7-0.4-1.3-0.8-2-1.1q0-0.1-0.1-0.1c0.9-3 1-5.8 0.3-8.1q-0.3-0.9-0.7-1.8-0.5-0.8-1.2-1.5c-0.1-0.1-0.2-0.2-0.3-0.3-2.3-2.1-5.6-2.8-9.6-2.3q-1.1 0.2-2.2 0.5-0.3 0-0.6 0.1-1.6-2.7-3.5-4.4zm15.4 22q0.9 0.5 1.5 0.9c2.1 1.4 3.3 2.9 3.3 4.4 0 0.7-0.4 1.5-0.9 2.2-0.2 0.2-0.4 0.4-0.6 0.7-1.1 1.1-2.8 2.2-4.9 3.1 0.6-1.9 1-3.9 1-6 0-2.1-0.4-4.2-1-6.1 0.6 0.3 1.1 0.6 1.6 0.8zm-3 14.7q0.3 0.8 0.6 1.8 0.2 0.8 0.4 1.6c0.3 2.2 0 3.9-1.1 4.9-0.1 0.1-0.1 0.1-0.1 0.1-0.2 0.2-0.4 0.3-0.6 0.4-0.3 0.2-0.6 0.3-0.9 0.4-1.8 0.5-4.4 0.2-7.4-0.8 3.8-2 7.1-4.9 9.1-8.6q0 0.1 0 0.2zm-13.4 11.2c-0.3 0.5-0.6 1-0.9 1.4-1.5 2-3.1 3.1-4.7 3.1q-1.2 0-2.4-0.9-0.3-0.2-0.7-0.5c-1.2-1-2.3-2.6-3.3-4.6 2 0.6 4.2 0.9 6.4 0.9 2.3 0 4.4-0.3 6.4-0.9-0.2 0.5-0.5 1-0.8 1.5zm-15.6-2.8q-0.9 0.3-1.9 0.6c-0.6 0.1-1.2 0.2-1.7 0.3-2.3 0.3-4.2 0-5.3-1q-0.1-0.1-0.1-0.1-0.2-0.2-0.4-0.6h-0.1q-0.1-0.4-0.3-0.8c-0.5-1.7-0.2-4.2 0.9-7 2 3.7 5.2 6.6 9.1 8.6-0.1 0-0.2 0-0.2 0zm-12-12.6q-0.8-0.4-1.5-0.9c-2-1.4-3.2-2.9-3.2-4.3 0-0.8 0.3-1.5 0.9-2.3q0.2-0.3 0.5-0.6c1.2-1.2 2.8-2.2 4.9-3.2-0.6 1.9-0.9 4-0.9 6.1 0 2.1 0.3 4.1 0.9 6-0.5-0.2-1-0.5-1.6-0.8zm3-14.7c-0.2-0.5-0.4-1.1-0.5-1.7q-0.3-0.9-0.4-1.6c-0.4-2.2 0-4 1-5 0.1-0.1 0.1-0.1 0.1-0.1q0.3-0.2 0.7-0.4 0.4-0.2 0.8-0.3c1.9-0.5 4.5-0.2 7.5 0.8-3.9 1.9-7.1 4.9-9.1 8.5q-0.1-0.1-0.1-0.2zm12.6-9.7q0.4-0.8 0.8-1.5c0.4-0.5 0.7-1 1-1.4 1.5-1.9 3.1-3 4.6-3 0.8 0 1.6 0.3 2.4 0.8q0.3 0.2 0.7 0.5c1.2 1.1 2.3 2.7 3.3 4.6-2-0.6-4.1-0.9-6.4-0.9-2.2 0-4.4 0.3-6.4 0.9zm6.4 5.9c7.8 0 14.2 6 14.2 13.3 0 7.3-6.4 13.2-14.2 13.2-7.8 0-14.1-5.9-14.1-13.2 0-7.3 6.3-13.3 14.1-13.3zm10.1-4.6c0.6-0.2 1.2-0.3 1.8-0.5q1-0.2 1.7-0.4c2.4-0.3 4.3 0 5.3 1 0.1 0.1 0.1 0.1 0.1 0.1q0.3 0.3 0.5 0.6c0.1 0.3 0.2 0.5 0.3 0.8 0.6 1.8 0.2 4.2-0.8 7-2-3.6-5.3-6.6-9.1-8.5q0.1-0.1 0.2-0.1zm37.2-85.5q1.7 2.6 3.3 5.4c-1.1 0.9-2.2 1.7-3.4 2.5-11.8 8.4-28.2 13.6-46.3 13.6-18.2 0-34.6-5.2-46.4-13.6-0.9-0.7-1.9-1.4-2.7-2q1.6-2.9 3.3-5.6c12.4 7.5 28.4 11.9 45.8 11.9 17.6 0 33.9-4.6 46.4-12.2zm-0.1-181.8c4.5 8.2 17 23 3.2 46.2-2.8-1.4-5.7-0.7-8.4-1.6-0.4-0.1-0.6-4.8 1.2-9.8 4-10.6 5.9-22.1 4.7-20.7-1.8-2.9-9.4 28.8-8.1 30.2 1.2 1.3-3.3 0.3-3.6 0.4-5.1-18.9 2.6-23 11-44.7zm5.8 52.7c0.3 4-0.3 11.3-0.5 16.5-0.2 0.3-0.4 0.7-0.6 0.9-1.7 2.6-4.8 4.3-8.1 4l-5.9-0.4q-0.6-0.1-1.2-0.2c-1.7-0.3-3.1-1.3-4.1-2.6q-0.8-1-1.1-2.3c0.7-4.3 2.1-10.9 2.9-14.4 1.8-2.5 4.8-4.1 8-3.9l6 0.4q0.6 0.1 1.1 0.2c1.4 0.3 2.6 0.9 3.5 1.8zm-0.7 21.5c-1 15.9-3.6 35.4-5.5 53.7-2.3 22.8-5.9 43-9.7 56-0.2 0.5-0.1 1.3-0.6 1.5-7.8 3.7-12.9 5.9-13.5 0.1-1-9.4 1.6-50 2.6-60.2 1.7-17.4 3.1-36.3 5.2-51.9 1.3 1.6 3.2 2.8 5.4 3.3q0.7 0.1 1.4 0.2l6 0.4c3.2 0.3 6.3-1 8.7-3.1zm-45.9-71.5c6 7.7 21.9 21.1 8.7 45.7-3.3-1.2-6.6-0.1-9.8-0.7-0.5-0.1-1.2-4.7 0.4-9.9 3.4-10.9 4.2-22.6 3-21.1-2.4-2.6-7.6 29.6-5.9 31 1.5 1.1-3.8 0.6-4.1 0.8-7.8-18.3 0.5-23.3 7.7-45.8zm12.3 51.8c0.9 4 0.9 11.3 1.3 16.5q-0.3 0.5-0.5 1c-1.8 2.8-5.2 4.7-8.9 4.9l-6.8 0.2q-0.7 0-1.3 0c-2.1-0.2-3.8-1-5-2.2-0.7-0.6-1.2-1.3-1.6-2.2 0.3-4.3 1.2-11 1.8-14.6 1.7-2.7 5-4.7 8.7-4.8l6.9-0.2c0.5 0 0.9 0 1.3 0 1.6 0.2 3 0.7 4.1 1.4zm1.5 21.5c0.7 15.9-0.2 35.6-0.3 54-0.1 23-2.1 43.5-5 56.8-0.6 2.6-0.8 3.3-1.4 5.3-3.8-0.9-12.7 2-15.6-0.4-1.1-0.9-2.6-51.9-2.6-61.9 0.2-17.6-0.3-36.5 0.4-52.2 1.7 1.4 3.9 2.4 6.5 2.6q0.8 0.1 1.6 0.1l6.9-0.2c3.7-0.2 7.1-1.8 9.5-4.1zm-39.2-23.5c1.3 3.9 2.1 11.1 2.9 16.3q-0.2 0.5-0.4 1c-1.7 2.9-5.2 5.2-9.2 5.7l-7.5 0.8q-0.7 0.1-1.4 0.1c-2.2 0-4.2-0.6-5.7-1.7q-1.1-0.8-1.8-2c-0.1-4.4 0.2-11.1 0.5-14.8 1.6-2.8 5.1-5.1 9.1-5.5l7.5-0.9q0.7-0.1 1.4-0.1c1.7 0 3.3 0.4 4.6 1.1zm3.7 21.2c2.2 15.8 3.1 35.4 4.7 53.8 2.1 22.9 1.9 43.5 0 57-0.4 2.7-0.7 5.5-1.2 7.6-4.1-0.5-14.6-2.6-15.9-7-3.9-13.1-7.9-35.4-9.6-55.5-1.8-20.1-3.9-36.4-4.6-52.1 2 1.3 4.5 2.1 7.3 2.1q0.9 0 1.8-0.1l7.5-0.9c4-0.5 7.6-2.3 10-4.9zm-65.2-576.2c-3.1-6.2 0.7-16.2-3.1-22.6-3.6-6.4-11.5-17.2-22.8-22.5-0.6 0.5-1.2 1.1-1.8 1.7 0 3.2 0.5 30-2.9 33.2-4.2 3.9-22.1 1.3-24.8-1.9-2-2.4 1.5-93.3 7.4-95.5 4.9-1.8 13.9-0.3 24 3.5q0.9 0.8 1.8 1.7v26.1h1.8q1-0.8 1.9-1.7 10.1-9.5 20.3-19.1c2.2-1.4 2.2-1.7 3.8-1.7h1.8c4.1 0 25.8 1.9 25.8 5.2-8.2 7.7-31.1 25.3-32 34.1 0.4 4.1 14.7 20.7 20.9 26.6 5.1 12 2 20.6 2 31.2-0.8 0.6-1.4 1.2-2 1.7zm92.5-100.8c31.1 0 56.3 24.8 56.3 55.1 0 30.3-25.2 55.1-56.3 55.1-31 0-56.3-24.8-56.3-55.1 0-30.3 25.3-55.1 56.3-55.1zm-25.8 54.5c0 16.1 13.5 29.3 29.9 29.3 16.5 0 29.9-13.2 29.9-29.3 0-16.1-13.4-29.2-29.9-29.2-16.4 0-29.9 13.1-29.9 29.2zm-453.1-8.7c4.8-7.3 19.4-19.1 23.9-27.8 4.6-8.7-4-17.7-1.8-24.2 2.3-6.5 24.2-7.2 27.7-6.9q0 0 0.1 0 0.6 0.7 1.7 1.7c10.7 10.1 53.4 78.7 48.1 92-0.4 1-1.3 1.4-2 1.7-0.6 0.3-20.2 5.7-20.3 5.2-0.3-1.6-3.8-5.2-5.5-5.2-1.7 0-1.2-0.3-1.8 0-2.5 1.1-6.1 5.6-7.4 6.9-30.7 28.9-86.1-7.7-62.7-43.4zm41.8-11.3c-27.3 17.9-27.5 38.5-5.6 41.6 21.9 3.2 25.9-25.4 5.6-41.6zm-146 71.6c-1.5 0.1-2.1-0.5-2-1.8 0-34.7-3.6-69.2-3.6-104 0-1.9-0.2-1.7 1.8-1.7 27.5-0.7 54.1 0 81.2 0 2 0 1.9-0.2 1.9 1.7v5.2c0 8.4-0.1 16.9-0.1 25.3-16.1 12.1-24.1-2.9-22-6.2v-3.5c-5.3-4.9-29-5.7-35.1 0 0 3.8 0.5 6.8 0.5 10.4 17.7 16.6 62.3 10.1 62.3 39.9 0 43.7-49.7 34.7-84.9 34.7zm54.7-25.5c2.5-2.7 3.1-7.9 0.6-12.7-1.8-3.6-21.9-9.4-28-7.7-6.5 1.8-1.6 22.3-1.1 22.8 3.7 3.7 22 4.6 28.5-2.4zm162.3-99.2c2.2-2.1 23.9-3.4 27.8 0.6 2.2 2.1-1.6 26.2 2.5 31.1 1.8 2.2 25.5 9.9 27.8 6.7 2.4-3.3-1.5-34.5 1-39.4 2.6-4.8 24.6-2.5 27-1.1 2.4 1.5 5.9 92.7 3 96.8-2.8 4.2-24 0.3-28.4 0.1-4.5-0.2 2.3-29.5-1.4-31.7-3.7-2.3-22.3-12.2-27.8-6.6-3.9 4.1 3.1 34.5 1.1 39.3-2 4.8-19.7 3.7-26.3 0.9-6.6-2.7-8.6-94.6-6.3-96.7zm124.5 93.7c-9.8-9.1-17.1-21.8-18.7-34.6-5.4-41.4 26.9-69.1 69.9-59 9.3 2.2 20.5 12.1 29.7 17.3 0 7.9-2 19.5-3 28.3-6.7 0-17.1-1.6-24-1.6 0.1-12.3 1-16.1-5.7-19.1-14.7-6.6-40.9 3.7-40.9 26.3 0 10.9 16.6 30 28.9 30 11.7 0 19.6-7.7 28.9-7.7 4.4 6.6 6.4 11 10.2 16.8-19 21.8-55 19-75.3 3.3z"/>
	<path id="Path 4" fill-rule="evenodd" class="s1" d="m353.2 335.7l22.7-21.2 12.2 11.5 20.8-19.6 20.9 19.6 12.2-11.5 22.7 21.2-0.1 101.6h-111.3zm-48.9 521.3h11.1v243.8h-11.1zm191.8 243.8h-175.9v-243.8h175.9zm-105.1-161.1v68.4h35.6v-68.4zm28.9 62h-22.1v-55.6h22.1zm-18.8-51v46.5h15.5v-46.5zm110.9 150.2h-11.1v-243.8h11.1zm-98.3-108h-9.6v-37.8h9.6zm-109.3-152.1h207.6v11.2h-207.6zm0-130.4h207.6v11.2h-207.6zm0 16.6h11.1v109.1h-11.1zm191.8 109.3h-175.9v-109.3h175.9zm-115.2-80.5c-7 6.6-11.3 15.8-11.3 25.9 0 10.1 4.3 19.3 11.3 26 7 6.6 16.6 10.7 27.2 10.7 10.7 0 20.3-4.1 27.3-10.7 7-6.7 11.3-15.9 11.3-26 0-10.1-4.3-19.3-11.3-25.9-7-6.7-16.6-10.8-27.3-10.8-10.6 0-20.2 4.1-27.2 10.8zm49.7 4.5c5.7 5.5 9.3 13.1 9.3 21.4 0 8.3-3.6 15.9-9.3 21.4-5.8 5.5-13.7 8.9-22.5 8.9-8.7 0-16.7-3.4-22.4-8.9-5.8-5.5-9.3-13.1-9.3-21.4 0-8.3 3.5-15.9 9.3-21.4 5.7-5.4 13.7-8.8 22.4-8.8 8.8 0 16.7 3.4 22.5 8.8zm-36.2 8.3c-3.5 3.4-5.7 8-5.7 13.1 0 5.1 2.2 9.7 5.7 13.1 3.5 3.4 8.4 5.4 13.7 5.4 5.4 0 10.3-2 13.8-5.4 3.5-3.4 5.7-8 5.7-13.1 0-5.1-2.2-9.7-5.7-13.1-3.5-3.3-8.4-5.4-13.8-5.4-5.3 0-10.2 2.1-13.7 5.4zm117.5 67.7h-11.1v-109.2h11.1zm-92.4-65.3c2.9 2.7 4.7 6.5 4.7 10.7 0 4.2-1.8 8.1-4.7 10.8-2.9 2.8-7 4.5-11.4 4.5-4.4 0-8.4-1.7-11.3-4.5-2.9-2.8-4.7-6.6-4.7-10.8 0-4.2 1.8-8 4.7-10.7 2.9-2.8 6.9-4.5 11.3-4.5 4.4 0 8.5 1.7 11.4 4.5zm76.6-65.9h-26.2v-141.4q0-1.4-0.1-2.7 0-0.5-0.1-1.4c-0.1-0.4-0.2-0.9-0.3-1.4-0.3-1.8-0.7-3.6-1.2-5.4q-0.1-0.1-0.1-0.1-0.2-0.8-0.4-1.4-0.3-0.7-0.6-1.5-1.4-3.8-3.6-7.4 0 0 0 0-2.1-3.5-4.8-6.9-2.8-3.4-6-6.5c-11.2-10.5-26.8-18.4-43.8-19.6-15.6-1-34.7 9.6-45.3 19.6q-3.3 3.1-6 6.5-2.7 3.4-4.8 6.9 0 0 0 0-2.2 3.6-3.7 7.4-0.3 0.8-0.5 1.5-0.2 0.6-0.5 1.4 0 0 0 0.1c-0.6 1.8-1 3.6-1.3 5.4-0.1 0.5-0.1 1-0.2 1.4q-0.1 0.9-0.1 1.4-0.1 1.3-0.1 2.7v141.4h-26.2v-226.3h175.9zm-103.1-179.6c-12.4 4.7-22.7 13.5-28.5 23.1v0.1q-0.3 0.5-0.6 1-0.3 0.6-0.6 1.1-1.4 2.8-2.3 5.6-0.4 1.4-0.7 2.9-0.2 0.8-0.2 1.5-0.1 0.1-0.1 0.7-0.1 1.1-0.1 2.2v141.4h-10.2v-141.4q0-1.2 0.2-2.5 0-0.8 0.1-1.3 0-0.7 0.2-1.2 0.3-2.5 1.1-5 0 0 0-0.1 0.2-0.5 0.5-1.3c0.2-0.5 0.3-1 0.5-1.4q1.4-3.5 3.4-6.9 0 0 0 0 0 0 0-0.1c1.3-2.2 2.9-4.4 4.6-6.5q2.6-3.2 5.7-6.1c11-10.4 27.6-18.6 42.9-18.6 15.3 0 31.2 9 41.4 18.6q3.1 2.9 5.7 6.1 2.6 3.2 4.5 6.5h0.1q0 0.1 0 0.1 0 0 0 0 2 3.4 3.4 6.9 0.2 0.6 0.5 1.4 0.2 0.8 0.4 1.3 0 0.1 0 0.1 0.8 2.5 1.2 5 0.1 0.5 0.2 1.2 0 0.5 0.1 1.3 0.1 1.3 0.1 2.5v141.4h-10.1v-141.4q0-1.1-0.1-2.2-0.1-0.6-0.1-0.7-0.1-0.7-0.2-1.5-0.3-1.5-0.8-2.9-0.8-2.8-2.2-5.6-0.3-0.5-0.6-1.1-0.3-0.5-0.7-1v-0.1c-5.7-9.6-16.1-18.4-28.5-23.1-4.3-1.6-9.2-3.2-14.2-3.2-5.1 0-10.9 1.4-16 3.2zm32.4 135.5h6.7v26.2h-6.7zm-10.5 0h6.7v26.2h-6.7zm-10.4 0h6.7v26.2h-6.7zm-10.5 0h6.8v26.2h-6.8zm-10.4 0h6.7v26.2h-6.7zm-10.4 0h6.7v26.2h-6.7zm-10.5 0h6.7v26.2h-6.7zm0 29.8h91.7v6.5h-91.7zm0-40h91.7v6.6h-91.7zm-58.4-172.1h11.1v226.3h-11.1zm207.6 226.3h-11.1v-226.3h11.1zm-65.6-44h6.7v26.1h-6.7zm-10.5 0h6.7v26.2h-6.7zm-142.6-197.2h231.4l-11.1 10h-209.2zm17.2-4.7l37.6-17.7h121.9l37.5 17.7zm33.9-135.9l23.1-28.7 35.9-5.9v-19.2h-8.9v-10.6h8.9v-16.1h11.3v16.1h9v10.6h-9v19.2l35.9 5.9 23.2 28.7-7.1 10-22.1-20.8-2.4-2.2-2.5 2.2-9.8 9.3-18.4-17.3-2.4-2.3-2.4 2.3-18.4 17.3-9.9-9.3-2.4-2.2-2.4 2.2-22.1 20.8zm77.2 102.4v-23.3h-25v23.3zm0-40.5v-47.6l-12.6-11.7-12.5 11.7v47.6zm29.3-40.8l-10-9.4-8 7.5-0.1 41.9 18.1 5.7zm-32.6 61.2v17.1h-18.5v-17.1zm32.5 3l-18.2-5.7 0.2 22.5 18.1 5.7zm-15.8 14.9l0.1-17.3 1.3 0.4 11.7 3.7 0.8 0.3v17.3l-13.3-4.2zm-67.7-33.4l18.2-5.8-0.2-41.9-7.9-7.4-10.1 9.4zm0 41.1l18.2-5.8 0.2-22.5-18.2 5.7zm2.2-3.2l0.1-17.4 13.8-4.3-0.2 17.4zm267.2 219.1l0.2-230.1c0-14.4-7-24.2-11.9-37 16.8 1.8 43.4 8.5 43.5 43.3l0.3 224.7-8.6 0.6-1.1-220.2c0-6.9-3.6-14.3-8.7-22.3 3.7 7.1 5.5 16.5 5.6 32.4l0.7 210zm13.7-241.1c-1.1-2-2.4-3.9-3.8-5.7q2 2.9 3.8 5.7zm-28.1-73.4h32.9c1.7 3.5 3.5 7 5.2 10.5l-22.1 24.1 25.5-20.6q5.6 2.4 11.2 4.8v30.9c0 4.3-13.6 4.3-13.6 0v-17l-15.3 12.4c-3.2 2.6-11.3-5.9-9.3-9.2-3.6 1.6-12.3-5.8-9.5-8.7l13.1-14.4h-18.1c-4.5 0-4.5-12.8 0-12.8zm54.8-11.1c6.5 0 11.7 5 11.7 11 0 6.1-5.2 11.1-11.7 11.1-6.5 0-11.7-5-11.7-11.1 0-6 5.2-11 11.7-11zm-2.1-41.1v30.9q-5.6 2.4-11.2 4.8l-26.4-21.4 22.7 24.9q-2.6 5.3-5.1 10.5h-32.9c-4.6 0-4.6-12.7 0-12.7h18.1l-13.2-14.4c-2.8-3.2 6.8-11.1 10-8.6-2.6-3 5.8-12.1 9.1-9.4l15.3 12.4v-17c0-4.3 13.6-4.3 13.6 0zm55.6 49.7h-32.9q-2.5-5.2-5.1-10.5l21.9-23.9-25.6 20.7q-5.6-2.4-11.2-4.9v-30.9c0-4.2 13.6-4.2 13.6 0v17l15.3-12.4c3.2-2.5 11 5.7 9.3 9.1 3.5-1.9 12.6 5.6 9.8 8.7l-13.2 14.4h18.1c4.6 0 4.6 12.7 0 12.7zm-0.2 15.3h-18.1l13.2 14.4c2.7 2.9-5.8 10.1-9.5 8.8 1.4 3.5-6.3 11.4-9.4 8.9l-15.3-12.4v17c0 4.2-13.6 4.2-13.6 0v-30.9q5.6-2.4 11.2-4.8l24.6 19.9-21.2-23.2c1.7-3.5 3.5-7 5.2-10.5h32.9c4.5 0 4.5 12.8 0 12.8zm-29.4 303l0.7-209.9c0-16 1.9-25.3 5.6-32.4-5.1 8-8.7 15.4-8.7 22.2l-1 220.3-8.7-0.7 0.3-224.7c0.1-34.7 26.6-41.5 43.5-43.2-4.9 12.7-11.9 22.5-11.9 37l0.2 230.1zm10.1-248.1c-1.4 1.8-2.7 3.7-3.8 5.7q1.8-2.8 3.8-5.7zm-76.6 496.4h0.1c0.2 0.9 0.7 1.7 1.5 2.4-5.3-1.7-10.6-4.3-15.3-7 2.8-2.7 6.4-4.1 11.4-4.2q1 4.4 2.3 8.8zm-453 131.4c-12-16.4-19.5-38.5-19.5-64.7v-149.6c3.2 0 5.8-1.3 9-0.8 1.4 0.2 2.8 1.2 4.7 2.5 1.7 1.2 3.9 1.8 5.8 2zm18.3-227.5h-5.6c-1.6 0-3.4-0.7-5.2-1.3-2.1-0.8-4.2-1.7-6.4-1.7-2.2 0-4.3 0.8-6.3 1.6-1.7 0.7-3.4 1.4-4.9 1.4h-3.9v-46.1c17.2-18.9 11.7-17.8 0-14.3-8.1 2.5-14.9-7.8-14.9-16.6 0-8.7 8.2-16.8 18.2-16.8 10 0 29.7 3.4 29.1 24.3zm-29.4-11.3v3.5l25.9-18.2v-3.9zm-109.5 164.2q-0.4 0.4-1 0.3c-1.4 0-2.6-1.7-2.6-3.9 0-2.2 1.1-3.9 2.5-4v-0.1c0-1.7 0.1-3.4 0.5-5 2.4 4.5 5.1 8.8 9.5 11.3 2.2 1.2 4.8 1.7 6.7 2.3l0.1-10.2c-3.5-1.4-7.6-2.1-9.9-4.3-1.3-2.6 0-8.3 1.9-12.7 2-1.3 4.3-2.1 6.7-2.1q0.7 0 1.3 0.1l0.1-4.1h9.2l-0.2 36.4v0.7c0.1 6.7 0.7 13.2 1.8 19.6 1.2 6.3 2.9 12.4 5 18.3 11.1 30.2 34.4 55.2 62.5 74.5-2 2.6-6.8 12.2-10.3 9.7-24.9-17.5-48.8-44.2-60.6-77.9-2.3-6.7-4.2-13.8-5.5-21.3q-1.3-7.4-1.8-14.8-0.7 0.1-1.5 0.1c-6.4 0-12-5.3-14.4-12.9zm109.6-188.4l25.8-18.1v-3.9l-25.8 18.1zm0 13.7l25.8-18v-4l-25.8 18.1zm-49-10.1l-0.1 22.6h-44.2l0.1-22.6zm-0.2 28.2l-0.3 96h-19.6l0.4-96zm76.1 258.7c10.1 5.6 10.7 20.5 1.6 33.6 3.2-1.3 5.6-2 8.4 0.2 2.8 2.2 2.7 9.4-2 14.8-4.7 5.3-12 7-15 4.7-3.1-2.3-2.9-5.6-1.3-9.5-9 6.5-18.1 9.4-27 4.6-8.8-4.9-10.7-21.2-1-34.5 9.7-13.3 26.1-19.5 36.3-13.9zm-75.8-84.5c2-0.3 3.8-0.8 5.6-2.1 7.6-5.4 3.5-10.7 12.9-5.6-2.6 4.1-4.9 6.4-8.6 9.1q-4 2.9-8.9 4.5 0.1 0.6 0.2 1.2c1.5 0.6 3.1 0.9 4.7 0.9 7.8 0 14.2-6.6 14.2-14.6 0-8-6.4-14.5-14.2-14.5-1.8 0-3.5 0.3-5.1 1l0.1-27.6q0.2 0 0.4 0c9.4 0 12.7 12.7 12.7 19.2 8.6 3.3 14.8 11.9 14.8 21.9 0 12.9-10.3 23.5-22.9 23.5q-1 0-2-0.1 0.3 0.8 0.6 1.6c8.2 23.7 25 42.9 42.9 56 6.9 5.2-6.4 15.3-11 21.2-27.3-18.9-50-43.1-60.7-72.2q-3.1-8.6-4.8-17.7-1.6-9-1.7-18.7v-0.7l0.2-36.4h29.8v2.7l-0.1 28.1q0 0 0 0v5.6 0.7c0 4.6 0.3 8.9 0.9 13zm-0.7-75.3l-0.1 22.3h-44.1v-22.3zm-44.1-2.9l0.3-96h19.6l-0.4 96zm0.5-129.8l0.2-43.4h19.5l-0.2 43.4zm84.8 48.4h-3c-3.9 0-4.6 4.8-9.9 4.8-5.3 0-11.6-4.4-11.6-9.9 0-5.5 6.1-9.9 11.6-9.9 5.5 0 6.1 5.7 10.5 5.7h11.7c3.5 0 7.3-2.7 11.2-2.7 4 0 7.8 2.7 11.6 2.7h11.6c4.5 0 5-5.7 10.5-5.7 5.5 0 11.6 4.4 11.6 9.9 0 5.5-6.3 9.9-11.6 9.9-5.2 0-5.9-4.8-9.9-4.8h-2.9c-1.4-0.1-2.8-0.2-4.2-0.4-2.9-0.3-5.9-0.6-8.2-0.2h-0.1c-3 0.5-5.5 4.5-8.3 4.5-5.9 0-8.6-4.2-11-4.6-2.3-0.3-3.6 0.3-6.7 0.6q-1.5 0.1-2.9 0.1zm41.4 2.2v149.6c0 26.2-7.5 48.3-19.5 64.7v-210.7c1.4-0.4 2.5-1.3 3.6-2.2 1.1-0.9 2.3-1.9 3.7-2.1h0.1c2.1-0.4 4.9-0.1 7.7 0.2 1.4 0.2 3 0.4 4.4 0.5z"/>
</svg>