<svg version="1.2" xmlns="http://www.w3.org/2000/svg" viewBox="0 0 592 870" width="592" height="870">
	<title>Krumovgrad-pdf</title>
	<style>
		.s0 { fill: #54a689;stroke: #a4835b;stroke-width: 6.1 } 
		.s1 { fill: #fcd339;stroke: #a4835b;stroke-linejoin: round;stroke-width: 3.8 } 
		.s2 { fill: none;stroke: #a4835b;stroke-linejoin: round;stroke-width: 3.8 } 
		.s3 { fill: #fffccc } 
		.s4 { fill: #54a689 } 
		.s5 { fill: none;stroke: #a4835b;stroke-width: 6.1 } 
		.s6 { fill: #a4835b } 
	</style>
	<path id="Path 1" class="s0" d="m65.7 620q0-1.9 0-3.8h-0.6l-24.4-311.8h507l-14.6 311.6q0.1 2 0.1 4c0 128.8-105 233.8-233.8 233.8-128.7 0-233.7-105-233.7-233.8z"/>
	<path id="Path 2" class="s1" d="m131.6 317.5c4.2 3.7 9.8 6.4 14.8 9 7.4 3.7 15.2 4.5 22.6 8.2 7.1 3.6 14.7 6.8 20.9 11.9 5.5 4.6 10.6 11.6 13.3 18.3 2.9 7.4 2.6 16.1 0.3 23.7-2.4 8.2-13.6 14.6-21.5 15.9-5.7 0.8-11.5-1-17.3-1.1-0.8 0-1.8-0.1-2.5 0.3-0.5 0.4-0.9 1.2-0.7 1.8 0.3 1.3 1.3 2.3 2.1 3.3 1.5 1.6 2.7 3.7 4.7 4.6 4.2 2.1 8.7 3.7 13.3 4.4 5.5 0.7 11 0.1 16.5 0 0.8-0.1 1.5-0.7 2.2-0.4 0.6 0.3 1.1 1.1 1.1 1.8 0.1 3.6 0.7 7.5-0.8 10.8-0.5 1.3-2.8 0.8-4.3 0.7-9-0.5-18.4 0.5-26.9-2.5-6.3-2.3-10.6-8.1-15.5-12.6-2.1-2-3.6-4.5-5.4-6.8-0.5-0.7-1-1.5-1.8-1.1-1.9 0.8-2 2.7-3.9 3.6-7.5 3.6-15.1 8.4-23.4 8.6-8.4 0.3-18.3-1.1-24.1-7.2-6-6.4-6.5-16.7-6.8-25.5-0.2-5.2 1.8-9.8 3.6-14.7 4.4-12 12.6-22.9 19-34.5 3.5-6.2 8.9-12.5 11.6-19.1 1.2-3 1.5-6.5 1.8-9.7 2.3 2.8 4.4 5.8 7.1 8.3z"/>
	<path id="Path 3" class="s2" d="m147.2 407.7c-1.8-2-4.6-3.9-6.2-6.1-1.9-2.5-4-5-5-7.9-1.4-3.9-1.8-8.1-2.2-12.3-0.6-6.5-0.6-13.1-0.7-19.7-0.1-4.6 0.7-9.2 0-13.7-0.6-3.6-2.4-6.9-3.6-10.4m33.8 70.4c-1-1.2-2-2.3-2.9-3.5-0.9-1.4-1.6-3-2.5-4.4-1.3-1.9-2.7-3.8-4-5.7"/>
	<path id="Path 4" class="s1" d="m283.7 317.5c4.2 3.7 9.8 6.4 14.8 9 7.4 3.7 15.2 4.5 22.6 8.2 7.1 3.6 14.7 6.8 20.9 11.9 5.5 4.6 10.6 11.6 13.3 18.3 2.9 7.4 2.6 16.1 0.3 23.7-2.4 8.2-13.6 14.6-21.5 15.9-5.7 0.8-11.5-1-17.3-1.1-0.8 0-1.8-0.1-2.5 0.3-0.6 0.4-0.9 1.2-0.7 1.8 0.3 1.3 1.3 2.3 2.1 3.3 1.5 1.6 2.7 3.7 4.7 4.6 4.2 2.1 8.7 3.7 13.3 4.4 5.4 0.7 11 0.1 16.5 0 0.8-0.1 1.5-0.7 2.2-0.4 0.6 0.3 1 1.1 1.1 1.8 0.1 3.6 0.7 7.5-0.8 10.8-0.5 1.3-2.8 0.8-4.3 0.7-9-0.5-18.4 0.5-26.9-2.5-6.3-2.3-10.6-8.1-15.5-12.6-2.1-2-3.6-4.5-5.4-6.8-0.5-0.7-1-1.5-1.8-1.1-1.9 0.8-2 2.7-3.9 3.6-7.5 3.6-15.1 8.4-23.4 8.6-8.4 0.3-18.3-1.1-24.1-7.2-6-6.4-6.5-16.7-6.8-25.5-0.2-5.2 1.8-9.8 3.6-14.7 4.4-12 12.6-22.9 19-34.5 3.5-6.2 8.9-12.5 11.5-19.1 1.3-3 1.6-6.5 1.8-9.7 2.4 2.8 4.5 5.8 7.2 8.3z"/>
	<path id="Path 5" class="s2" d="m299.3 407.7c-1.8-2-4.6-3.9-6.2-6.1-1.9-2.5-4-5-5.1-7.9-1.3-3.9-1.7-8.1-2.1-12.3-0.6-6.5-0.6-13.1-0.7-19.7-0.1-4.6 0.6-9.2 0-13.7-0.6-3.6-2.4-6.9-3.6-10.4m33.8 70.4c-1-1.2-2-2.3-2.9-3.5-1-1.4-1.6-3-2.5-4.4-1.3-1.9-2.7-3.8-4-5.7"/>
	<path id="Path 6" class="s1" d="m434.4 321.7c4.2 3.7 9.8 6.5 14.7 9 7.4 3.7 15.3 4.5 22.7 8.2 7.1 3.6 14.7 6.9 20.8 11.9 5.6 4.6 10.7 11.6 13.3 18.3 2.9 7.4 2.6 16.2 0.4 23.8-2.4 8.1-13.6 14.6-21.6 15.8-5.7 0.8-11.5-1-17.2-1.1-0.9 0-1.8-0.1-2.5 0.4-0.6 0.3-0.9 1.1-0.8 1.8 0.4 1.2 1.4 2.2 2.2 3.2 1.4 1.7 2.7 3.7 4.7 4.7 4.1 2 8.7 3.6 13.3 4.3 5.4 0.8 11 0.1 16.5 0 0.7 0 1.5-0.7 2.2-0.4 0.6 0.3 1 1.1 1 1.8 0.1 3.6 0.8 7.5-0.7 10.8-0.6 1.3-2.8 0.8-4.3 0.7-9-0.5-18.4 0.5-26.9-2.5-6.3-2.2-10.6-8.1-15.5-12.6-2.1-2-3.6-4.5-5.4-6.8-0.5-0.7-1-1.4-1.8-1.1-1.9 0.9-2 2.7-3.9 3.6-7.5 3.6-15.1 8.4-23.4 8.6-8.4 0.3-18.3-1.1-24.1-7.2-6-6.4-6.5-16.7-6.8-25.5-0.2-5.2 1.8-9.8 3.6-14.7 4.4-12 12.5-22.9 19-34.5 3.5-6.2 8.8-12.5 11.5-19.1 1.3-3 1.6-6.4 1.8-9.7 2.4 2.8 4.5 5.9 7.2 8.3z"/>
	<path id="Path 7" class="s2" d="m450 411.9c-1.8-2-4.6-3.9-6.2-6.1-1.9-2.5-4-5-5.1-7.9-1.4-3.9-1.8-8.1-2.1-12.2-0.6-6.6-0.6-13.2-0.7-19.8-0.1-4.5 0.6-9.2 0-13.7-0.6-3.6-2.4-6.9-3.6-10.4m33.7 70.5c-0.9-1.2-2-2.4-2.8-3.6-1-1.4-1.6-2.9-2.6-4.3-1.2-2-2.6-3.9-3.9-5.8"/>
	<path id="Path 8" class="s3" d="m154.4 569.8c-0.8-0.1-2.1 0.1-2.3 0.8-0.2 1.2 1 2.3 1.4 3.4 1.6 4.6 4 9 4.5 13.8 0.2 1.8-1.2 3.5-2.5 4.8-1.5 1.5-3.5 3-5.6 3.3-4.8 0.9-10.2 2.1-14.6 0-4.4-1.9-7.9-6.3-9.3-10.9-1.8-6 2.1-12.8 0.3-18.9-1.1-3.5-6.3-4.4-8.2-7.6-3.9-6.6-6.4-14-9-21.3-0.5-1.4 0.5-3.2-0.3-4.5-0.3-0.6-1.3 0.4-1.9 0.8-1.4 1-2.6 2.3-4 3.4-1.8 1.5-3.3 3.9-5.6 4.5-3.6 1-7.6 0.7-11.2 0-4-0.8-8.7-1.4-11.3-4.5-1.3-1.6 1.7-4 3.4-5.1 1.8-1.2 4.3-0.9 6.5-1.4 0 0 3-1.7 3.3-3.3 0.3-1.7 1.4-18.9 1.4-18.9-0.3-6.2-1.6-12.4-1.1-18.7 0.3-3.5 1.5-7.2 3.6-10.2 3-4.1 7-7.5 11.2-10.4 7.5-5 16.6-7.4 23.7-13 3.5-2.8 5.5-7.4 7.2-11.6 1-2.5-0.8-5.7 0.6-8 1.2-2 4-3 6.4-3.4 1.9-0.3 3.9 0.7 5.6 1.6 1 0.6 1.5 1.9 2.2 2.8 1.1 1.5 2.4 2.9 3.2 4.6 1.1 2.4 1.1 5.3 2.6 7.4 0.5 0.7 2.1 0.7 2.6 0 0.9-1.3 0.7-3.2 0.8-4.8 0.2-4-1.7-8.5 0.2-12 1.2-2.1 4.7-1.5 7.2-1.6 1.8 0 3.6 0.4 5.2 1.2 1.3 0.7 2.2 1.8 3 3 1.7 2.6 2.7 5.5 4.2 8.2 0.6 1.1 0.9 2.5 2 3.2 0.6 0.4 1.4-0.2 1.8-0.8 1.3-2.1 1.5-4.8 3-6.8 1.3-1.8 3.1-3.3 5.2-4.2 1.3-0.5 2.9-0.4 4.2 0.2 1.4 0.7 2.5 2 3 3.4 0.8 2.3 0.6 4.8 0.8 7.2 0.2 2-0.1 4.1 0.4 6 0.2 0.8 1.1 2.3 1.8 1.8 1.7-1 2.2-3.1 3.2-4.8 1.6-2.5 1.9-6.2 4.4-7.8 1.9-1.2 4.7-0.1 6.8 0.6 0.7 0.2 0.9 1.3 1 2 0.2 0.9 0 1.7 0 2.6-0.1 4-1 7.9-0.4 11.8 0.2 1 1.4 1.9 2.4 1.8 1.2-0.1 2.2-1.3 2.8-2.4 1.4-2 1.2-5.1 3.1-6.7 1.4-1.1 3.6-0.9 5.3-0.4 2.2 0.6 4.7 1.6 5.7 3.6 1.2 2.3-0.1 5.2-0.1 7.8 0 0-2.6 2.2-2.6 3.6 0 1.4 0.1 4.2 0.1 4.2 0.6-0.5 1.2-0.8 1.8-1.3 0.9-0.9 1.5-2.1 2.5-2.9 1.9-1.6 3.7-3.5 6-4.3 1.4-0.5 3 0.5 4.5 0.7 0 0 2.7 1.8 2.7 2.5 0 0.7-0.5 6.8-0.5 6.8-0.7 2.6-1.3 5.2-2.2 7.7-0.4 1-1.5 1.6-1.6 2.6-0.1 0.4 0.8 0.2 1.1 0 1-0.6 1.6-1.6 2.5-2.4 0 0 5.1-8 6.2-8 1.2 0 6.2 0.1 6.2 0.1 0.2 2 0.6 3.9 0.7 5.9 0.1 2 0.2 4 0 6-0.2 1.9-0.4 3.9-1.3 5.6-0.7 1.3-2.3 2-3.3 3.2-0.5 0.7-1 1.5-1 2.3 0 0.4 0.7-0.2 1-0.3 0 0 2.9-2.2 3.6-2.8 0.7-0.6 3.3-4.3 4-4.4 0.7-0.2 7-2 8-0.9 1 1.1 1.1 7.6 1 8.6-0.1 1-1.3 3-2.1 4-0.9 1-2.8 3-3.6 3.8-0.9 0.9-1.4 5.2-1.4 5.2 1 1.1 1.9 2.2 3 3.3 7 6.6 15.1 12.4 21.5 19.7 2.2 2.6 3.1 6.3 4 9.6 0.3 1.5 0.8 3.6-0.4 4.6-1.9 1.5-4.7 1.4-7.1 1.7-4.1 0.5-8.2 0.2-12.2 0.7-0.4 0.1-0.8 0.6-0.7 1 0.1 0.5 0.8 0.4 1 0.7 1.3 2 1.8 4.4 3.3 6.2 2 2.2 4.3 4.4 7 5.7 3.9 1.9 8.2 3.5 12.5 3.7 7.7 0.3 15.3-0.9 22.9-1.9 11.1-1.6 22.4-2.8 33.2-6 7.8-2.3 14.4-7.6 22-10.4 5.9-2.2 12-3.7 18.3-4.6 4.5-0.7 9.3-1.3 13.7 0 6.1 1.7 11.6 5.3 17 8.6 3.4 2 6.1 5 9.4 7.2 1.2 0.9 2.5 1.9 4 1.9 1 0 1.5-1.2 2.3-1.9 5.1-4.2 9.5-9.7 15.5-12.8 5.7-2.9 12.2-4.6 18.7-4.9 6.1-0.4 13-0.5 18.1 2.8 5.8 3.8 9.2 10.7 11.9 17 2 4.9 2.1 10.4 2.1 15.7 0 7.6-1.5 15.2-2.2 22.8-1 12.1-2 24.2-2.8 36.3-0.9 12-1.6 24-2.3 35.9-0.3 5.8-1.3 11.6-1 17.4 0.3 3.7 0.8 7.6 2.6 10.9 1.5 2.6 5.7 3.2 6.7 6.1 0.8 2.2-0.5 5-2.2 6.7-2.6 2.6-6 4.5-9.6 5.2-5.7 1-11.6 0.1-17.4-0.4-3.2-0.2-6.9 0-9.6-1.9-4.9-3.6-9.5-8.2-11.9-13.8-2-4.8-0.6-10.5-0.6-15.7 0-14.6-0.9-29.2 0.6-43.7 0.8-7.2 5.3-13.6 6.5-20.8 1.8-11.8 2.8-23.7 2.5-35.6-0.1-4.5-1.1-9.1-3.5-12.9-1.6-2.5-4.8-3.8-7.7-4.8-1.9-0.7-4.3-0.9-6.1 0-2.2 1.2-3.8 3.5-4.8 5.8-0.9 2-1 4.3-0.7 6.4 0.4 2 2.1 3.5 2.6 5.5 1.2 4.6 2.3 9.3 2.6 14.1 0.3 5 0.6 10.2-0.7 15.1-0.9 3.9-3.4 7.3-5.7 10.6-2.7 3.8-6.1 6.9-9 10.5-2.1 2.6-4.4 5.1-5.8 8.1-1.5 3.3-2.2 6.9-2.6 10.6-0.4 4.8-1.3 9.9 0.4 14.4 1.6 4.3 6 6.8 8.9 10.3 3.4 3.9 6.4 8.2 10 11.8 2 2.1 4.9 3 6.7 5.2 1 1.2 1.3 2.9 1.3 4.5 0.1 3.3-0.1 6.7-1 9.9-0.4 1.7-2.5 2.8-2.8 4.5-0.8 4.9-0.2 9.8-0.4 14.8-0.2 6.9-0.9 13.9-0.9 20.8 0 2.2 0.6 4.3 0.9 6.4 0.4 2.6 1.3 5.2 1 7.7-0.2 1.9-0.8 4-2.2 5.2-2.6 2.2-6.1 2.8-9 4.5-1.3 0.7-2.4 1.8-3.6 2.9-2 1.8-4.7 3.2-5.7 5.7-0.7 1.7 0.5 3.6 1.2 5.2 0.6 1.2 2 2 2.6 3.2 0.7 1.2 1.1 2.5 1.3 3.8 0.2 1.6 0.4 3.3 0 4.8-0.2 0.8-0.8 1.6-1.6 1.6-11.1 0.4-22.3 0.3-33.4-0.3-0.7 0-1.4-0.8-1.6-1.6-0.2-0.9 0.2-2 0.7-2.9 0.9-1.8 2-3.6 3.5-5.1 2.1-2.1 4.6-3.8 7-5.5 3.8-2.5 8.5-3.8 11.6-7 4.3-4.5 7.6-10.1 10.3-15.7 1.7-3.6 2.4-7.6 2.9-11.6 1.2-12 1.8-24.1 2.2-36.3 0.1-3.4 0.6-7-0.6-10.2-1-2.5-3.6-3.9-5.5-5.8-7.7-7.7-15-15.9-23.4-22.8-2.4-1.9-5.7-2.2-8.7-3.2-2.7-0.9-6-0.5-8.3-2.2-3.5-2.6-5.4-6.9-8.4-10-1.4-1.5-2.8-3.2-4.8-3.8-1.1-0.4-2.3 0.5-3.2 1.3-0.8 0.6-1.5 1.5-1.6 2.5-0.1 1.7 1.5 3.5 1 5.2-0.5 1.5-3 1.9-3.6 3.5-1.1 3-1.3 6.4-1.2 9.6 0.1 4.1 0.7 8.3 1.9 12.2 0.5 1.8 2.2 3.2 3.2 4.8 0.4 0.6 0.8 1.2 1 1.9 0.6 2.8 1.2 5.6 1.2 8.4 0 2.9 0 6-1.2 8.6-1.3 2.7-3.9 4.5-6.1 6.5-2.2 1.8-5.1 2.7-7.1 4.8-1.8 1.9-2.5 4.6-4.2 6.7-4.7 6-10.4 11.1-14.7 17.3-2.1 3.1-2.6 7-4.2 10.3-0.7 1.4-1.2 3.1-2.6 3.9-1.9 1-4.3 0.7-6.4 1.2-3 0.9-6.6 0.9-9 2.9-1.9 1.7-2.3 4.6-2.5 7.1-0.3 3 0.7 6 1.2 9 0.5 2.5 2.3 4.8 2 7.4-0.2 1.1-2.1 1.2-3.2 1.2-10.5 0.4-21.1 1.1-31.5 0-1.6-0.1-3.4-1.9-3.2-3.5 0.3-2.2 2.7-3.8 4.5-5.1 5.2-3.9 11.1-6.8 16.4-10.6 2.5-1.8 5.1-3.8 6.7-6.4 2-3.4 1.4-8.2 3.9-11.3 10.1-12.6 23.3-22.5 33.3-35.3 1.8-2.2 0.7-5.5 1-8.3 0.2-2.7 0.7-5.3 0.6-8-0.1-2.9 0.3-6.2-1.3-8.7-1.6-2.6-5.4-3.1-7.3-5.4-4.5-5.4-9.4-10.8-11.6-17.4-1.8-5.3 0-11.3 0-17 0-1.1 0.2-2.4 0-3.5-0.3-1.7 0-4.3-1.6-4.8-2.8-1-5.9 0.4-8.7 1.3-2.9 0.9-5.4 2.9-8.3 4.1-4.6 2-9.2 4.5-14.1 5.5-6.4 1.2-13.1 1-19.6 1-8.2-0.1-16.4-1.3-24.7-1.5-4.6-0.1-9.2-0.5-13.7 0.4-2.8 0.6-5.6 1.9-7.5 4-2.7 3-3.6 7.3-5.8 10.7-1.6 2.6-4.4 4.4-5.4 7.3-1.4 4.2-1.5 8.8-1.8 13.2-0.3 4.4 0 8.7 0.2 13.1 0.1 2.2 0.9 4.3 0.9 6.5 0.1 3.4 0.1 6.9-0.4 10.3-0.5 2.8-1.5 5.6-2.4 8.3-0.4 1.4-1.5 2.6-1.6 4-0.3 5.4 0 10.9 0.5 16.3 0.3 4 0.6 8.1 1.8 11.9 0.8 2.4 3.8 3.8 4.2 6.3 0.3 1.4-1.1 2.8-2.3 3.5-2.3 1.3-5.3 1.2-7.7 2.3-1.9 0.9-3.4 2.5-5.1 3.7 0 0-1.9 5.4-1.9 7.3 0 1.8 4 7.4 4 7.4 1.3 1.9 3.2 3.4 4 5.6 0.3 1.2-0.1 2.8-1 3.7-0.7 0.8-2 0.5-3 0.5-10.4 0.2-20.8 0.3-31.2 0-0.6 0-1.3-0.4-1.4-0.9-0.4-1.8 0-3.6 0-5.4 0 0 7-5.6 7.7-7 0.7-1.4 12.3-11.9 12.3-11.9 2.8-3.8 7.3-6.8 8.4-11.4 1.6-6.6-0.8-13.6-0.9-20.5-0.1-5.6 0.4-11.3 0.2-17-0.1-2.7-0.7-5.4-0.9-8.1-1.3-12.5-1.5-25-3.8-37.3-0.4-2.5-3.2-4-4.2-6.3-1.8-4.4-1.4-9.6-3.9-13.6-1.7-2.6-4.9-4.3-7.9-5-4.5-1-9.2 1-13.6 0-2.9-0.6-4.7-3.5-7.5-4.4-2.5-0.9-5.4-1.1-8.1-1-2.7 0.1-5.8-0.2-7.9 1.5-1.4 1.1 0.3 3.9-0.8 5.4-1.3 2-4.2 2.5-5.9 4.2-3.2 3.4-5.8 7.3-8.6 10.9 0 0-1.5 1.2-1.5 4.2 0 3 0.7 15.6 0.7 15.6-1.1 3.3-2.3 6.5-3.4 9.9-0.5 1.3-1.4 2.7-1.3 4.2 0.1 2.2 0.5 4.6 1.7 6.4 1.4 1.9 3.5 3.2 5.7 3.9 3.2 1 6.6 0.8 9.9 1 2 0.2 4.1-0.5 6 0.3 0.9 0.4 1.6 1.7 1.4 2.7-0.6 3.1-2 6-3.7 8.7-3.9 6.3-8.3 12.5-13.1 18.2-0.7 0.9-2 1.4-3.2 1.5-1.2 0.2-2.6 0.1-3.7-0.5-0.9-0.5-1.6-1.5-1.7-2.4-1.2-7.5-0.6-15.2-2.3-22.5-0.6-2.9-2.7-5.3-4.4-7.7-1.9-2.6-4.3-4.8-6.2-7.4-1.2-1.6-2.9-3.2-3.2-5.2-0.5-3.5-0.1-7.3 1-10.6 0.8-2.4 3.5-3.8 4.4-6.2 2.6-6.8 4.3-13.9 6-21 1.4-6.2 1.7-12.7 3.4-18.8 1.1-3.5 2.1-7.6 5-9.9 3.2-2.6 7.7-3.4 11.8-4 6.4-0.8 12.9 0.1 19.3-0.2 3.3-0.2 6.8-0.1 9.9-1.2 1.5-0.6 2.7-2 3.2-3.5 0.7-2 0.4-4.3 0.3-6.4-0.4-8.5-0.3-17.1-1.6-25.6-1-6.3-2.8-12.6-5.3-18.6-1.4-3.4-3.7-6.4-6.2-9.2-0.9-1-2.3-1.7-3.7-1.9z"/>
	<path id="Path 9" class="s4" d="m171.6 533.8c1.1-0.5 2.3-0.8 3.4-1.2q0.5 0.5 0.9 1c0.3 0.3 0.6 0.6 0.8 0.9 0.6 1.3 1 2.6 1.1 3.9l0.1 1.3c-0.1 2.2 0 4.5-0.1 6.8l-0.1 1.8-0.2 1.9-0.3 1.7-0.3 0.9-0.2 0.8-0.4 0.9-0.3 0.5-0.6 1.1-0.9 1q-0.7 0.7-1.5 1.3l-1.1 0.9q-1.2 0.8-2.4 1.4c-0.5 0.3-0.9 0.6-1.5 0.8h-0.2l-0.4-0.1-0.4-0.1-0.9-0.4q-2.2-1.3-4.3-2.9-0.5-0.5-1.1-1-0.7-0.7-1.3-1.5l-0.6-0.9-0.2-0.7-0.3-0.6-0.2-0.7-0.1-0.7v-0.7l-0.1-0.7 0.1-0.7v-0.5l0.2-0.4 0.1-0.5 0.3-0.4 0.5-0.9 0.7-0.8 0.6-0.5 0.7-0.4 0.7-0.4q1.3-0.6 2.6-1.3l0.8-0.6 0.8-0.7 0.4-0.5q0.9-1 1.7-2.1 1-1.4 1.8-2.8 0.9-1.6 1.7-3.2z"/>
	<path id="Path 10" class="s5" d="m436.3 823.2l-9.9 6.4-10.3 5.9-10.6 5.4-10.8 4.9-11.1 4.4-11.4 3.9-11.6 3.3-11.9 2.7-12 2.2-12.3 1.6-12.4 0.9-12.6 0.3-12.5-0.3-12.5-0.9-12.2-1.6-12.1-2.2-11.8-2.7-11.6-3.3-11.4-3.9-11.1-4.4-10.9-4.9-10.6-5.4-10.2-5.9-10-6.4-9.6-6.9-9.2-7.3-8.9-7.7-8.6-8.1-8.1-8.5-7.7-8.9-7.3-9.3-6.8-9.6-6.4-9.9-5.9-10.3-5.4-10.6-5-10.8-4.4-11.1-3.8-11.4-3.3-11.6-2.8-11.9-2.1-12-1.6-12.3-1-12.4-0.3-12.1-0.3-0.5-25.6-327h531.1l-15 323.3c0.2 13.8-1.1 27.3-2.8 41l-2.2 12-2.7 11.9-3.3 11.6-3.9 11.4-4.4 11.1-4.9 10.8-5.4 10.6-6 10.3-6.3 9.9-6.9 9.6-7.3 9.3-7.7 8.9-8.1 8.5-8.5 8.1-8.9 7.7-9.3 7.3zm75.5-549.4c-60.1-31.1-123.8-51.4-212.3-50.7-87.3 2-142.3 19.6-214.2 56.1l-13.4-30.1c72-36.4 140.3-56.4 227.6-58.4 88.5-0.8 164.4 22 224.4 53.1zm-91.2-133.9c33.8 7.2 66.4 17.8 97.6 30.8l-10.9 30.1c-31.2-12.7-63.9-21.5-97.7-29.1zm-248.1 4.6c-33.8 7.3-66.4 17.8-97.6 30.9l11 30.5c31-13 62.9-23.9 96.7-31.5zm268.8-65.2c33.8 7.2 66.9 17.3 98.4 31.1l-10.9 30.7c-31-13-63.1-23.2-96.9-30.9zm-194.9-11c34.5-3.2 69.1-3.4 103.3 0.4l-1.3 32.6c-33.5-3.2-67.2-3.4-101.7-0.6zm-95.3 15.6c-33.9 7.3-65.6 20-96.8 34.5l9.9 27.4c31-13.1 63.2-23.3 97-30.9zm283-71c25.1 4.9 50.3 11.4 75.3 19.3 27.2 8.6 53.5 18.8 78.8 30.3l-8.3 31.1c-25.7-11.9-52.4-22.3-80.1-31.1q-38.2-12.1-76.8-19.5zm-57-5.5c-25.5-2.9-51.4-4.3-77.6-4.3-28.6 0-56.8 1.7-84.4 5l-1.4 32.1c28.1-3.5 56.7-5.4 85.8-5.4q40.1 0 79 4.7zm-219.6 9.2c-25 5.8-49.9 13-74.7 21.8-26.9 9.5-52.9 20.5-77.8 32.8l9.3 30.8c25.3-12.7 51.7-24 79.1-33.7q37.8-13.3 76.1-21.9zm87.8 115.6c34.5-3.2 68.1-2.9 101.8 0.3l-1.4 30.8c-33.4-3.2-66.7-1.6-101.2 1.2zm0.8-31.4c34.5-3.2 68.7-2.9 102.4 0.3l-1.4 31.8c-33.4-3.3-67.2-3.4-101.7-0.7zm185.2 9.4c33.8 7.3 66.4 17.8 97.6 30.9l-10.8 29.9c-31-13.1-63.1-23.3-96.9-30.9zm-269.4 4.7c-33.9 7.2-66.5 17.7-97.6 30.8l10.7 29.9c31-13.1 63.1-23.2 96.9-30.9zm409.5 10.1c-26-12.1-52.8-23.3-81-32.2-25.9-8.2-52.4-14.8-78.5-19.6l11.2-30c55.6 10.3 105.8 26.7 157.1 50.4zm-547.3 8.1c25.6-12.9 52.1-25 79.9-34.8 25.7-9.1 51.9-16.5 77.9-22.1l-12.2-29.7c-55.2 12.1-104.8 30.2-155.4 55.5zm188.6-60.3c28.4-3.7 57.4-6.2 86.9-6.2 27.2 0 54.5 1.8 80.8 5.1l-1.7-32c-56-7-108.8-6.5-164.9 0.6zm269.1 220.2c-53.4-23.4-103.7-38.8-182.1-38.1-72.1 2.2-116 12.6-171.8 38.1h-36.9l-5.6-14c72.1-36.4 127-54 214.3-56 88.5-0.7 152.2 19.6 212.2 50.6l-6.1 19.4zm42.5-49.3c-60.2-31.1-136-53.9-224.6-53.1-87.3 2-155.6 22-227.6 58.5l-14-30.2c72.1-36.4 154.3-57.1 241.6-57.1 88.6-2.8 177.7 23.3 237.8 52.4z"/>
	<path id="Path 11" fill-rule="evenodd" class="s6" d="m218.9 452.8c0.3-1 0.6-1.9 1.1-2.8 0.5-0.7 0.9-1.2 1.5-1.8l1-0.6 1.1-0.5 1.1-0.2 2-0.1 1.8 0.3c1.3 0.3 2.5 0.7 3.7 1.2l2.1 1.1 0.9 0.8 0.9 1 0.7 1.1c0.4 0.7 0.6 1.4 0.7 2.2 0.2 1.1 0.1 2.1 0 3.3-0.1 0.8-0.3 1.7-0.4 2.6l1.8-1.3 1.1-0.6 1.2-0.5 1-0.2h1.1c1 0.1 1.9 0.3 2.9 0.6l1.3 0.4c1.2 0.7 2.3 1.5 3.3 2.4l0.7 0.9 0.5 1.3c0 2-0.2 4-0.3 6 0.4-0.5 0.9-0.9 1.4-1.3l1.2-0.4c3 0.1 6.1 0.2 9.1 0.3 0.4 3 0.9 6.1 1.1 9.2 0.1 2 0.1 4-0.1 6.1 2.4-0.6 4.8-1.2 7.4-1.2l0.8 0.1 1.1 0.4 1 0.7 0.6 0.9 0.7 2.2c0.4 2.4 0.6 5 0.5 7.4-0.3 2.2-1.6 4.2-2.9 5.9q-1.7 2-3.5 3.8l-0.6 2.5c0.6 0.7 1.2 1.4 1.9 2.1 6.1 5.6 12.6 10.6 18.5 16.5 1.4 1.5 2.9 3 4.2 4.8 1 1.5 1.7 3 2.3 4.8 0.6 1.7 1 3.5 1.5 5.3 0.1 0.8 0.2 1.6 0.3 2.5v1l-0.3 1.1-0.5 1.1-0.8 0.9c-0.7 0.5-1.2 0.9-1.9 1.3-0.6 0.2-1.2 0.4-1.8 0.6-2 0.4-3.9 0.5-5.9 0.7-2.6 0.2-5.2 0.2-7.8 0.3 0.6 1.3 1.1 2.5 1.9 3.6 1.7 1.8 3.4 3.5 5.6 4.8q3 1.4 6.2 2.5c1.6 0.5 3.2 0.8 5 1 4.8 0.3 9.7-0.1 14.5-0.7q2.8-0.4 5.6-0.7c9.6-1.4 19.3-2.5 28.8-4.5 2.8-0.6 5.5-1.3 8.3-2.2 6.1-2.2 11.5-6 17.4-8.8 5.2-2.3 10.9-3.9 16.5-5 3.5-0.7 7.1-1.3 10.7-1.6 2.6-0.1 5.1-0.1 7.6 0.3 2 0.4 3.8 1 5.6 1.7l2.4 1c4.3 2.1 8.3 4.6 12.4 7.1q1 0.7 2 1.4c2.8 2.2 5.4 4.8 8.5 6.6l0.2 0.1 0.9-1c3.6-3 6.8-6.4 10.4-9.4q1.6-1.2 3.3-2.4c1.5-0.9 3-1.8 4.7-2.5 3.2-1.4 6.4-2.4 9.9-3.2q3.1-0.6 6.3-0.9l1.3-0.1c5.7-0.3 11.5-0.4 16.9 1.8 0.8 0.3 1.6 0.7 2.4 1.2l1.8 1.2c1.2 1 2.2 1.9 3.2 3 1 1.1 1.8 2.2 2.7 3.4 1.1 1.6 2 3.2 2.9 4.8 1.4 2.7 2.7 5.5 3.7 8.3 0.6 2.2 1 4.2 1.2 6.4 0.5 5.5 0.4 11-0.1 16.4-0.5 4.8-1.2 9.5-1.7 14.3-1.3 15.6-2.6 31.3-3.6 47q-0.8 12.9-1.6 25.8c-0.1 2.6-0.4 5.1-0.6 7.7-0.5 5.5-0.8 11.5 1 16.9 0.3 0.9 0.6 2 1.4 2.7 0.8 0.6 1.7 1.1 2.6 1.7 0.9 0.5 1.6 1.1 2.4 1.8l0.5 0.7 0.5 0.8 0.4 0.9c0.2 0.8 0.4 1.4 0.4 2.2l-0.1 1.4c-0.3 1.8-1 3.2-2 4.7-2.2 2.8-5.2 4.9-8.5 6.2q-1.1 0.5-2.3 0.8c-2 0.5-4.1 0.7-6.2 0.8q-1.7 0.1-3.5 0c-4.1-0.1-8.2-0.7-12.3-0.9q-1 0-2-0.1c-1.9-0.2-3.5-0.6-5.2-1.3-1.6-0.9-2.9-2-4.3-3.2-4-3.3-7.5-7.2-9.7-12 0 2.9-0.4 5.6-1 8.4l-0.5 1-0.5 1c-0.6 0.6-1.2 1.3-1.8 2-0.1 0.2-0.1 0.6-0.2 0.9-0.5 4.5 0 9-0.1 13.6-0.3 6.9-1 13.8-1 20.7 0 1.9 0.6 3.7 0.9 5.6 0.3 2.1 0.8 4.2 1 6.4l0.1 1.2c-0.1 1.7-0.4 3.2-0.9 4.8l-1 1.8-0.6 0.8-1.4 1.3c-1.3 0.9-2.5 1.6-3.9 2.2l-4.9 2.1c-1.4 0.9-2.6 2.2-3.9 3.3l-4 3.5v1.1c0.3 0.8 0.7 1.6 1.1 2.4 0.3 0.4 0.7 0.7 1 1.1 0.7 0.8 1.2 1.5 1.7 2.4 0.5 1.2 0.9 2.3 1.2 3.6 0.4 2.4 0.6 4.8-0.2 7.2-0.4 0.9-0.8 1.5-1.5 2.1l-0.7 0.5-0.8 0.3c-1.4 0.3-2.8 0.2-4.2 0.3q-11 0.3-22-0.1-4.3-0.1-8.6-0.4l-0.8-0.1-0.8-0.3-0.6-0.5-1-1-0.7-1.2-0.3-1.5c0-0.7 0.1-1.3 0.3-2 0.6-2 1.8-3.9 3-5.7 0.6-0.7 1.1-1.4 1.8-2.1 2.5-2.4 5.3-4.4 8.3-6.3 2.4-1.5 5.1-2.6 7.5-4.1 0.8-0.5 1.6-1 2.3-1.6 1.5-1.5 2.7-3.1 4-4.7 2.5-3.6 4.7-7.4 6.5-11.4 0.8-1.9 1.3-3.8 1.7-5.8 0.5-2.5 0.7-5 1-7.6 1-10.8 1.5-21.7 1.9-32.7 0.1-2.9 0.5-5.9-0.3-8.7-0.3-0.8-0.7-1.2-1.2-1.9-1.2-1.1-2.5-2.1-3.8-3.3-7.6-7.6-14.8-15.7-23.2-22.5-1.5-1.2-3.5-1.6-5.3-2.1-1.4-0.4-2.8-0.8-4.2-1.1q-1.1-0.1-2.2-0.3c-1.6-0.3-3-0.7-4.5-1.5-1.4-0.9-2.4-1.9-3.5-3-1.8-2.2-3.3-4.5-5-6.7q-1.4-1.6-3-3.1c-0.3-0.3-0.8-0.7-1.2-0.9-0.3 0.2-1.5 1-1.4 1.3 0.1 0.7 0.4 1.4 0.7 2.1l0.2 1 0.1 1.2-0.2 1.4-0.6 1.3-0.8 0.9c-0.7 0.5-1.3 1-2 1.4 0 0.1-0.2 0.2-0.3 0.2-0.4 1.3-0.7 2.6-0.8 4-0.5 4.3-0.1 8.8 0.9 13.1 0.2 1 0.4 2.1 0.8 3.1 0.5 0.9 1.1 1.6 1.8 2.4 0.9 1.3 1.9 2.6 2.3 4.2 0.6 2.6 1.2 5.1 1.3 7.8q0.1 2 0 4.1c-0.1 2.7-0.5 5.2-1.8 7.6q-0.6 0.9-1.2 1.8c-1.7 2-3.8 3.7-5.8 5.3-0.8 0.7-1.7 1.2-2.6 1.7-1.6 0.9-3.3 1.8-4.4 3.3-0.8 1.2-1.3 2.5-2 3.7-1.4 2.4-3.3 4.5-5.1 6.6-2.9 3.1-5.8 6.1-8.5 9.4-1 1.3-2.1 2.7-3 4.2-1.2 2.3-1.8 5-2.7 7.5-0.7 1.5-1.3 3.1-2.2 4.5l-0.6 0.7-0.7 0.7-0.8 0.6c-0.8 0.4-1.5 0.7-2.3 0.9-1.2 0.3-2.4 0.3-3.6 0.5-1.1 0.1-2.1 0.4-3.2 0.6-1.9 0.4-4 0.6-5.7 1.7-0.7 0.6-1 1.2-1.3 2.1-0.3 1.2-0.5 2.4-0.5 3.7-0.1 2.6 0.7 5.1 1.2 7.7 0.3 1.1 0.8 2.2 1.2 3.3 0.4 1.2 0.7 2.3 0.8 3.6v1.7l-0.5 1.2-0.9 1.1-1 0.5-1.7 0.5c-1.6 0.2-3.2 0.2-4.8 0.3-7.3 0.3-14.5 0.6-21.8 0.3q-3.6-0.1-7.2-0.5l-1.1-0.2-1.1-0.5-0.9-0.6-0.8-0.7-0.8-0.9-0.5-1.1-0.4-1.3v-1.3l0.4-1.5 0.6-1.2 0.7-1 1.6-1.7q2.1-1.6 4.4-3.2c4.8-3.3 10-6 14.7-9.4 2.3-1.7 4.8-3.5 6-6.2 0.6-1.8 0.9-3.7 1.3-5.5l0.5-1.7c0.4-0.9 0.7-1.7 1.2-2.6 1.1-1.5 2.4-3 3.6-4.4 7.1-8 15.1-15.1 22.6-22.8 2.7-2.9 5.3-5.8 7.7-8.8 0.6-0.8 0.5-1.9 0.5-2.8-0.1-1.4-0.1-2.7 0-4.1 0.2-2.6 0.7-5.2 0.6-7.7q0-1.7-0.1-3.4c0-1.6-0.1-3.4-1.3-4.5-0.9-0.7-2-1.2-3-1.8l-3-2.1c-0.8-0.9-1.6-1.7-2.3-2.6-2.3-2.8-4.6-5.6-6.6-8.7-0.8-1.2-1.5-2.4-2.1-3.6l-1.7-4-0.6-2.4c-0.2-1.2-0.3-2.4-0.3-3.6 0-3 0.4-5.9 0.6-8.9 0.2-1.6 0.2-3.3 0.3-4.9q0-0.4 0-0.9l-0.4-3-3.6 0.6c-1.5 0.5-3 0.9-4.5 1.6-2.1 1.1-4.1 2.4-6.3 3.3l-9.7 4.3-2.9 0.9-14.8 1.5c-4.8 0.1-9.7 0-14.5-0.3l-16.9-1.2-5.9-0.1-8.8 0.7-5.1 2.9c-1.6 1.9-2.5 4.3-3.6 6.6l-2.7 4.9q-0.8 1-1.6 1.9c-1 1-1.9 2-2.6 3.3-0.6 1.7-1 3.6-1.2 5.4-0.4 2.7-0.5 5.5-0.6 8.2-0.2 4 0 7.9 0.2 11.9 0.2 1.9 0.7 3.7 0.9 5.6l0.1 1c0.1 4 0 8-0.7 12-0.6 2.6-1.4 5.1-2.3 7.7-0.3 0.9-0.8 1.8-1.3 2.7-0.1 0.2-0.1 0.3-0.2 0.6-0.2 5.5 0.1 11 0.6 16.5 0.3 3.6 0.5 7 1.6 10.4 0.3 0.9 1 1.5 1.7 2.2 0.5 0.6 1 1.2 1.5 1.8 0.4 0.7 0.6 1.2 0.9 2l0.3 0.9v1.1l-0.2 1.2-0.5 1-0.5 0.8-1.2 1.3c-0.7 0.5-1.3 0.9-2 1.3-1.1 0.5-2.3 0.8-3.5 1.1-1.2 0.2-2.3 0.4-3.5 0.8-1.5 0.7-2.9 2-4.2 3.1-0.6 1.6-1.1 3.3-1.4 5.1 0 0.3 0 0.3 0.1 0.7 0.9 1.9 2.1 3.7 3.3 5.5 0.7 0.8 1.4 1.7 2.1 2.5 0.7 0.9 1.3 1.7 1.8 2.7l0.5 1.2 0.2 0.9v0.9l-0.2 1.7-0.6 1.6-0.5 0.7-0.6 0.8-0.8 0.6-0.9 0.4c-0.8 0.2-1.4 0.3-2.1 0.3q-0.6 0-1.2-0.1c-10.5 0.2-20.9 0.3-31.4 0-0.6 0-1.1-0.1-1.6-0.4-0.7-0.3-1.1-0.6-1.6-1.1l-0.5-0.7-0.3-0.8c-0.1-0.9-0.2-1.8-0.2-2.8q0-1.3 0.1-2.7l0.1-2c2.5-2 5.1-4.1 7.5-6.4 0.4-0.4 0.6-0.8 1-1.3 1.6-1.9 3.5-3.6 5.3-5.4q3.4-3.2 6.9-6.3c2-2.5 4.4-4.6 6.3-7.2 0.5-0.8 0.9-1.5 1.3-2.3 1.2-4.2 0.4-8.8-0.2-13-0.3-2.5-0.6-4.9-0.7-7.4 0-5.7 0.4-11.3 0.3-17-0.1-2.7-0.7-5.3-1-7.9-1.1-11.7-1.4-23.3-3.3-34.9l-0.3-2.1c-0.3-0.9-1-1.6-1.6-2.3-0.8-0.9-1.5-1.8-2.2-2.9-1.2-2.6-1.6-5.4-2.1-8.1-0.5-2.2-1-4.5-2.4-6.3-1.9-2.1-4.8-3.2-7.6-3.3-2.2 0-4.4 0.3-6.6 0.5h-2c-1.3 0-2.5-0.1-3.8-0.5-1-0.4-1.8-0.8-2.6-1.3-1.2-0.8-2.3-1.8-3.5-2.6l-3.8-1.1-6.8-0.1c-1 0-2.2 0-3.2 0.5q0.2 1.1 0.2 2.3l-0.1 1.3-0.6 1.4-1 1.2-1.1 0.9c-1.1 0.7-2.2 1.3-3.4 1.9-1.2 0.8-2.1 2-3 3.1-2.2 2.8-4.3 5.6-6.5 8.4-0.9 0.9-0.7 2.6-0.7 3.7 0.2 4.9 0.5 9.7 0.8 14.6-1.2 3.4-2.5 6.9-3.7 10.4-0.3 0.8-0.6 1.6-0.9 2.5-0.1 0.2-0.1 0.4-0.1 0.7 0 1.6 0.2 3.3 1 4.6l0.5 0.7c1.3 1.3 2.6 2.1 4.4 2.6 2.8 0.7 5.8 0.5 8.7 0.7 1.2 0 2.4-0.1 3.6-0.1l2.1 0.2 1.1 0.4 0.9 0.4 0.7 0.6 0.6 0.6 0.4 0.7 0.4 0.8 0.2 0.8 0.1 1c-0.2 2.7-1.3 5.4-2.6 7.8-1.2 2.2-2.5 4.3-3.9 6.4q-5.1 7.8-11.1 15l-1.1 1.1c-0.7 0.4-1.2 0.6-2 0.9l-1.2 0.3c-1.6 0.3-3 0.3-4.6-0.1-0.8-0.3-1.4-0.5-2.1-1-0.6-0.5-1-0.9-1.5-1.5-0.4-0.6-0.6-1.2-0.9-1.9-0.3-1.7-0.5-3.4-0.7-5.1-0.4-6-0.4-12-1.6-17.9-0.6-2.3-2.3-4.3-3.7-6.2l-0.6-0.9c-1.8-2.4-4-4.5-5.8-6.9-0.9-1.1-1.8-2.2-2.6-3.3l-0.5-1-0.4-1c-0.2-0.9-0.4-1.8-0.5-2.7-0.1-1.8 0-3.5 0.2-5.3 0.2-1.8 0.6-3.5 1.1-5.2l0.6-1.3 0.7-1.1c0.9-1 1.8-1.9 2.6-2.9 0.4-0.5 0.6-1 0.8-1.5 2.5-6.7 4.1-13.7 5.7-20.6 1.2-5.5 1.6-11.1 2.9-16.6 0.7-2.8 1.6-5.6 2.8-8.3 0.4-0.7 0.8-1.4 1.2-2.2 0.7-1 1.5-1.8 2.4-2.6 0.8-0.6 1.5-1.1 2.4-1.6 1.1-0.6 2.2-1 3.3-1.4 4.5-1.4 9.3-1.9 13.9-2 4.4 0 8.8 0.4 13.2 0.2 3-0.2 6.1-0.1 9-1.1 2-0.9 1.9-3.2 1.8-5-0.3-3.4-0.3-6.8-0.4-10.1-0.2-6.6-0.5-13.1-1.7-19.5q-1.4-7.5-4.2-14.6l-0.5-1.1c-1.2-2.9-3-5.3-5-7.7 0.4 1.3 1 2.5 1.5 3.8 1.1 2.7 2 5.4 2.5 8.4l0.2 1.1v1.1l-0.3 1.2-0.4 1-1 1.7c-0.9 1.3-1.9 2.3-3.1 3.3l-1.6 1.2c-1 0.6-1.9 1-3 1.4-1.6 0.4-3.2 0.6-4.9 0.9-2 0.3-4 0.5-6.1 0.5l-2.1-0.2c-1.2-0.2-2.2-0.4-3.3-0.7-1-0.5-1.9-0.9-2.9-1.5-0.9-0.6-1.8-1.2-2.6-1.9-0.8-0.8-1.5-1.5-2.3-2.4-0.6-0.8-1.2-1.7-1.8-2.6-0.8-1.2-1.4-2.4-1.9-3.8l-0.5-1.7c-0.5-2.1-0.5-4.1-0.3-6.2 0.3-2.9 1-5.8 1.1-8.8 0-1.1 0-2.3-0.4-3.4-0.7-1.1-2.1-1.8-3.1-2.5q-1.1-0.6-2.1-1.4c-0.8-0.6-1.4-1.2-2-1.9-0.9-1.4-1.7-2.8-2.4-4.2-3.1-6.1-5.2-12.4-7.5-18.7l-0.1-0.3q-1 0.9-2.1 1.9c-0.9 0.9-1.8 1.8-2.8 2.7l-0.9 0.7-1.1 0.7-1.3 0.4c-1.3 0.3-2.6 0.6-4.1 0.7-2.1 0.1-4.1 0-6.2-0.2-1.6-0.3-3.1-0.6-4.6-0.9-2-0.4-3.9-0.8-5.9-1.6l-1.6-0.9c-0.9-0.5-1.6-1.1-2.4-1.7l-0.9-1-0.8-1.7 0.2-1.9 0.6-1.4 0.8-1.1 1.8-1.7c0.7-0.6 1.4-1.1 2.2-1.6 1.4-0.7 2.7-0.9 4.2-1.1 0.8-0.1 1.5-0.1 2.2-0.3 0.6-0.3 1.3-0.8 1.7-1.3q0.1-1 0.1-1.9l1.2-16v-0.3c-0.3-5.3-1.2-10.5-1.2-15.8q0-1.2 0.1-2.5c0.2-3.1 0.9-5.9 2.2-8.8l0.7-1.4c1.4-2.5 3.3-4.7 5.3-6.7l1.5-1.5q3.3-2.9 6.9-5.3 0.1 1 0 2.1 0 0.7 0 1.4c-3.8 2.7-7.4 5.8-10.2 9.6-2.1 3-3.3 6.7-3.6 10.2-0.5 6.3 0.8 12.5 1.1 18.7 0 0-1.1 17.2-1.4 18.9-0.3 1.6-3.3 3.3-3.3 3.3-2.2 0.5-4.7 0.2-6.5 1.4-1.7 1.1-4.7 3.5-3.4 5.1 2.6 3.1 7.3 3.7 11.3 4.5 3.6 0.7 7.6 1 11.2 0 2.3-0.6 3.8-3 5.6-4.5 1.4-1.1 2.6-2.4 4-3.4 0.6-0.4 1.6-1.4 1.9-0.8 0.8 1.3-0.2 3.1 0.3 4.5 2.6 7.3 5.1 14.7 9 21.3 1.9 3.2 7.1 4.1 8.2 7.6 1.8 6.1-2.1 12.9-0.3 18.9 1.4 4.6 4.9 9 9.3 10.9 4.4 2.1 9.8 0.9 14.6 0 2.1-0.3 4.1-1.8 5.6-3.3 1.3-1.3 2.7-3 2.5-4.8-0.5-4.8-2.9-9.2-4.5-13.8-0.4-1.1-1.6-2.2-1.4-3.4 0.2-0.7 1.5-0.9 2.3-0.8 1.4 0.2 2.8 0.9 3.7 1.9 2.5 2.8 4.8 5.8 6.2 9.2 2.5 6 4.3 12.3 5.3 18.6 1.3 8.5 1.2 17.1 1.6 25.6 0.1 2.1 0.4 4.4-0.3 6.4-0.2 0.7-0.6 1.3-1 1.9q0 0 0 0-1.8 0-3.6 0c0 0-2.2 1.8-2.8 2.5-1.8 0.2-3.8 0.2-5.7 0.3-6.4 0.3-12.9-0.6-19.3 0.2-4.1 0.6-8.6 1.4-11.8 4-2.9 2.3-3.9 6.4-5 9.9-1.7 6.1-2 12.6-3.4 18.8-1.7 7.1-3.4 14.2-6 21-0.9 2.4-3.6 3.8-4.4 6.2-1.1 3.3-1.5 7.1-1 10.6 0.3 2 2 3.6 3.2 5.2 1.9 2.6 4.3 4.8 6.2 7.4 1.7 2.4 3.8 4.8 4.4 7.7 1.7 7.3 1.1 15 2.3 22.5 0.1 0.9 0.8 1.9 1.7 2.4 1.1 0.6 2.5 0.7 3.7 0.5 1.2-0.1 2.5-0.6 3.2-1.5 4.8-5.7 9.2-11.9 13.1-18.2 1.7-2.7 3.1-5.6 3.7-8.7 0.2-1-0.5-2.3-1.4-2.7-1.9-0.8-4-0.1-6-0.3-3.3-0.2-6.7 0-9.9-1-2.2-0.7-4.3-2-5.7-3.9-1.2-1.8-1.6-4.2-1.7-6.4-0.1-1.5 0.8-2.9 1.3-4.2 1.1-3.4 2.3-6.6 3.4-9.9 0 0-0.7-12.6-0.7-15.6 0-3 1.5-4.2 1.5-4.2 2.8-3.6 5.4-7.5 8.6-10.9 1.7-1.7 4.6-2.2 5.9-4.2 1.1-1.5-0.6-4.3 0.8-5.4 2.1-1.7 5.2-1.4 7.9-1.5 2.7-0.1 5.6 0.1 8.1 1 2.8 0.9 4.6 3.8 7.5 4.4 3.9 0.9 8.1-0.6 12.2-0.2q0 0-0.1 0c-0.9 0.2 1.1 0.4 2.6 0.6 2.7 0.8 5.3 2.3 6.8 4.6 2.5 4 2.1 9.2 3.9 13.6 1 2.3 3.8 3.8 4.2 6.3 2.3 12.3 2.5 24.8 3.8 37.3 0.2 2.7 0.8 5.4 0.9 8.1 0.2 5.7-0.3 11.4-0.2 17 0.1 6.9 2.5 13.9 0.9 20.5-1.1 4.6-5.6 7.6-8.4 11.4 0 0-11.6 10.5-12.3 11.9-0.7 1.4-7.7 7-7.7 7 0 1.8-0.4 3.6 0 5.4 0.1 0.5 0.8 0.9 1.4 0.9 10.4 0.3 20.8 0.2 31.2 0 1 0 2.3 0.3 3-0.5 0.9-0.9 1.3-2.5 1-3.7-0.8-2.2-2.7-3.7-4-5.6 0 0-4-5.6-4-7.4 0-1.9 1.9-7.3 1.9-7.3 1.7-1.2 3.2-2.8 5.1-3.7 2.4-1.1 5.4-1 7.7-2.3 1.2-0.7 2.6-2.1 2.3-3.5-0.4-2.5-3.4-3.9-4.2-6.3-1.2-3.8-1.5-7.9-1.8-11.9-0.5-5.4-0.8-10.9-0.5-16.3 0.1-1.4 1.2-2.6 1.6-4 0.9-2.7 1.9-5.5 2.4-8.3 0.5-3.4 0.5-6.9 0.4-10.3 0-2.2-0.8-4.3-0.9-6.5-0.2-4.4-0.5-8.7-0.2-13.1 0.3-4.4 0.4-9 1.8-13.2 1-2.9 3.8-4.7 5.4-7.3 2.2-3.4 3.1-7.7 5.8-10.7q1-1 2.1-1.8 0.1 0 0.1 0.1c0.8 1 2.6-0.6 3.8-1.2 0.3-0.2 0.5-0.5 0.6-0.9q0.5-0.1 0.9-0.2c4.5-0.9 9.1-0.5 13.7-0.4 8.3 0.2 16.5 1.4 24.7 1.5 6.5 0 13.2 0.2 19.6-1 4.9-1 9.5-3.5 14.1-5.5 2.9-1.2 5.4-3.2 8.3-4.1 1.9-0.6 3.9-1.4 5.8-1.6 0.7 1 2.8 1.8 4.1 1.9 0.3 1 0.2 2.3 0.4 3.2 0.2 1.1 0 2.4 0 3.5 0 5.7-1.8 11.7 0 17 2.2 6.6 7.1 12 11.6 17.4 1.9 2.3 5.7 2.8 7.3 5.4 1.6 2.5 1.2 5.8 1.3 8.7 0.1 2.7-0.4 5.3-0.6 8-0.3 2.8 0.8 6.1-1 8.3-10 12.8-23.2 22.7-33.3 35.3-2.5 3.1-1.9 7.9-3.9 11.3-1.6 2.6-4.2 4.6-6.7 6.4-5.3 3.8-11.2 6.7-16.4 10.6-1.8 1.3-4.2 2.9-4.5 5.1-0.2 1.6 1.6 3.4 3.2 3.5 10.4 1.1 21 0.4 31.5 0 1.1 0 3-0.1 3.2-1.2 0.3-2.6-1.5-4.9-2-7.4-0.5-3-1.5-6-1.2-9 0.2-2.5 0.6-5.4 2.5-7.1 2.4-2 6-2 9-2.9 2.1-0.5 4.5-0.2 6.4-1.2 1.4-0.8 1.9-2.5 2.6-3.9 1.6-3.3 2.1-7.2 4.2-10.3 4.3-6.2 10-11.3 14.7-17.3 1.7-2.1 2.4-4.8 4.2-6.7 2-2.1 4.9-3 7.1-4.8 2.2-2 4.8-3.8 6.1-6.5 1.2-2.6 1.2-5.7 1.2-8.6 0-2.8-0.6-5.6-1.2-8.4-0.2-0.7-0.6-1.3-1-1.9-1-1.6-2.7-3-3.2-4.8-1.2-3.9-1.8-8.1-1.9-12.2-0.1-3.2 0.1-6.6 1.2-9.6 0.6-1.6 3.1-2 3.6-3.5 0.5-1.7-1.1-3.5-1-5.2 0.1-1 0.8-1.9 1.6-2.5 0.9-0.8 2.1-1.7 3.2-1.3 2 0.6 3.4 2.3 4.8 3.8 3 3.1 4.9 7.4 8.4 10 2.3 1.7 5.6 1.3 8.3 2.2 3 1 6.3 1.3 8.7 3.2 8.4 6.9 15.7 15.1 23.4 22.8 1.9 1.9 4.5 3.3 5.5 5.8 1.2 3.2 0.7 6.8 0.6 10.2-0.4 12.2-1 24.3-2.2 36.3-0.5 4-1.2 8-2.9 11.6-2.7 5.6-6 11.2-10.3 15.7-3.1 3.2-7.8 4.5-11.6 7-2.4 1.7-4.9 3.4-7 5.5-1.5 1.5-2.6 3.3-3.5 5.1-0.5 0.9-0.9 2-0.7 2.9 0.2 0.8 0.9 1.6 1.6 1.6 11.1 0.6 22.3 0.7 33.4 0.3 0.8 0 1.4-0.8 1.6-1.6 0.4-1.5 0.2-3.2 0-4.8-0.2-1.3-0.6-2.6-1.3-3.8-0.6-1.2-2-2-2.6-3.2-0.7-1.6-1.9-3.5-1.2-5.2 1-2.5 3.7-3.9 5.7-5.7 1.2-1.1 2.3-2.2 3.6-2.9 2.9-1.7 6.4-2.3 9-4.5 1.4-1.2 2-3.3 2.2-5.2 0.3-2.5-0.6-5.1-1-7.7-0.3-2.1-0.9-4.2-0.9-6.4 0-6.9 0.7-13.9 0.9-20.8 0.2-5-0.4-9.9 0.4-14.8 0.3-1.7 2.4-2.8 2.8-4.5 0.9-3.2 1.1-6.6 1-9.9 0-1.6-0.3-3.3-1.3-4.5-1.8-2.2-4.7-3.1-6.7-5.2-3.6-3.6-6.6-7.9-10-11.8-2.9-3.5-7.3-6-8.9-10.3-1.7-4.5-0.8-9.6-0.4-14.4 0.4-3.7 1.1-7.3 2.6-10.6 1.4-3 3.7-5.5 5.8-8.1 2.9-3.6 6.3-6.7 9-10.5 2.3-3.3 4.8-6.7 5.7-10.6 1.3-4.9 1-10.1 0.7-15.1-0.3-4.8-1.4-9.5-2.6-14.1-0.5-2-2.2-3.5-2.6-5.5-0.3-2.1-0.2-4.4 0.7-6.4 1-2.3 2.6-4.6 4.8-5.8 1.8-0.9 4.2-0.7 6.1 0 2.9 1 6.1 2.3 7.7 4.8 2.4 3.8 3.4 8.4 3.5 12.9 0.3 11.9-0.7 23.8-2.5 35.6-1.2 7.2-5.7 13.6-6.5 20.8-1.5 14.5-0.6 29.1-0.6 43.7 0 5.2-1.4 10.9 0.6 15.7 2.4 5.6 7 10.2 11.9 13.8 2.7 1.9 6.4 1.7 9.6 1.9 5.8 0.5 11.7 1.4 17.4 0.4 3.6-0.7 7-2.6 9.6-5.2 1.7-1.7 3-4.5 2.2-6.7-1-2.9-5.2-3.5-6.7-6.1-1.8-3.3-2.3-7.2-2.6-10.9-0.3-5.8 0.7-11.6 1-17.4 0.7-11.9 1.4-23.9 2.3-35.9 0.8-12.1 1.8-24.2 2.8-36.3 0.7-7.6 2.2-15.2 2.2-22.8 0-5.3-0.1-10.8-2.1-15.7-2.7-6.3-6.1-13.2-11.9-17-5.1-3.3-12-3.2-18.1-2.8-6.5 0.3-13 2-18.7 4.9-6 3.1-10.4 8.6-15.5 12.8-0.8 0.7-1.3 1.9-2.3 1.9-1.5 0-2.8-1-4-1.9-3.3-2.2-6-5.2-9.4-7.2-5.4-3.3-10.9-6.9-17-8.6-4.4-1.3-9.2-0.7-13.7 0-6.3 0.9-12.4 2.4-18.3 4.6-7.6 2.8-14.2 8.1-22 10.4-10.8 3.2-22.1 4.4-33.2 6-7.6 1-15.2 2.2-22.9 1.9-4.3-0.2-8.6-1.8-12.5-3.7-2.7-1.3-5-3.5-7-5.7-1.5-1.8-2-4.2-3.3-6.2-0.2-0.3-0.9-0.2-1-0.7-0.1-0.1 0-0.4 0.1-0.6q0.3 0.1 0.6 0c0.3-0.2 0.7-0.3 1.1-0.5 3.6-0.4 7.4-0.1 11.1-0.6 2.4-0.3 5.2-0.2 7.1-1.7 1.2-1 0.7-3.1 0.4-4.6-0.9-3.3-1.8-7-4-9.6-6.4-7.3-14.5-13.1-21.5-19.7-1.1-1.1-2-2.2-3-3.3 0 0 0.5-4.3 1.4-5.2 0.8-0.8 2.7-2.8 3.6-3.8 0.8-1 2-3 2.1-4 0.1-1 0-7.5-1-8.6-1-1.1-7.3 0.7-8 0.9-0.7 0.1-3.3 3.8-4 4.4-0.7 0.6-3.6 2.8-3.6 2.8-0.3 0.1-1 0.7-1 0.3 0-0.8 0.5-1.6 1-2.3 1-1.2 2.6-1.9 3.3-3.2 0.9-1.7 1.1-3.7 1.3-5.6 0.2-2 0.1-4 0-6-0.1-2-0.5-3.9-0.7-5.9 0 0-5-0.1-6.2-0.1-1.1 0-6.2 8-6.2 8-0.9 0.8-1.5 1.8-2.5 2.4-0.3 0.2-1.2 0.4-1.1 0 0.1-1 1.2-1.6 1.6-2.6 0.9-2.5 1.5-5.1 2.2-7.7 0 0 0.5-6.1 0.5-6.8 0-0.7-2.7-2.5-2.7-2.5-1.5-0.2-3.1-1.2-4.5-0.7-2.3 0.8-4.1 2.7-6 4.3-1 0.8-1.6 2-2.5 2.9-0.6 0.5-1.2 0.8-1.8 1.3 0 0-0.1-2.8-0.1-4.2 0-1.4 2.6-3.6 2.6-3.6 0-2.6 1.3-5.5 0.1-7.8-1-2-3.5-3-5.7-3.6-1.7-0.5-3.9-0.7-5.3 0.4-1.9 1.6-1.7 4.7-3.1 6.7-0.6 1.1-1.6 2.3-2.8 2.4-1 0.1-2.2-0.8-2.4-1.8-0.6-3.9 0.3-7.8 0.4-11.8 0-0.9 0.2-1.7 0-2.6-0.1-0.7-0.3-1.8-1-2-2.1-0.7-4.9-1.8-6.8-0.6-2.5 1.6-2.8 5.3-4.4 7.8-1 1.7-1.5 3.8-3.2 4.8-0.7 0.5-1.6-1-1.8-1.8-0.5-1.9-0.2-4-0.4-6-0.2-2.4 0-4.9-0.8-7.2-0.5-1.4-1.6-2.7-3-3.4-1.2-0.6-2.9-0.7-4.2-0.2-2 0.9-3.9 2.4-5.2 4.2-1.5 2-1.7 4.7-3 6.8-0.3 0.6-1.2 1.2-1.8 0.8-1.1-0.7-1.4-2.1-2-3.2-1.5-2.7-2.5-5.6-4.2-8.2-0.8-1.2-1.7-2.3-3-3-1.6-0.8-3.4-1.2-5.2-1.2-2.5 0.1-6-0.5-7.2 1.6-1.9 3.5 0 8-0.2 12-0.1 1.6 0.1 3.5-0.8 4.8-0.5 0.7-2.1 0.7-2.6 0-1.5-2.1-1.5-5-2.6-7.4-0.8-1.7-2.1-3.1-3.2-4.6-0.7-0.9-1.2-2.2-2.2-2.8-1.7-0.9-3.7-1.9-5.6-1.6-2.4 0.4-5.2 1.4-6.4 3.4-1.4 2.3 0.4 5.5-0.6 8-1.7 4.2-3.7 8.8-7.2 11.6-4.6 3.7-10.1 6-15.4 8.5q-0.9-0.6-1.8-1.1-0.7-0.3-1.3-0.5c3.8-1.9 7.7-3.6 11.5-5.7 2.2-1.2 4.4-2.6 6.2-4.3 1.2-1.3 2.1-2.7 3-4.3l2.3-5.2c0.2-0.7 0.1-1.5 0.1-2.2q-0.1-0.9-0.2-1.8c-0.1-1.3 0.1-2.4 0.5-3.7 0.4-0.7 0.8-1.3 1.3-1.9l1-0.9c1.5-1.2 3.1-1.9 4.9-2.4 1-0.2 1.8-0.3 2.8-0.4l1.1 0.1 2 0.4c1.4 0.6 2.7 1.2 3.9 2l1.1 1.2c0.5 0.6 0.8 1.3 1.3 2 1.5 1.9 3.1 3.8 3.9 6.2q-0.1-1.2-0.3-2.4c-0.2-1.9-0.3-3.6 0-5.4l0.5-2 0.5-1 0.5-0.7 0.6-0.7 0.7-0.5 1.5-0.7 1.4-0.3c1.9-0.2 3.8-0.1 5.8-0.1l1.7 0.2c1.7 0.3 3.2 0.8 4.7 1.7 0.6 0.4 1.2 0.9 1.7 1.4 2.7 3 4 6.7 5.7 10.1l0.2 0.3c0.3-1 0.7-2 1.1-2.9 1-1.9 2.3-3.3 3.8-4.6l1.7-1.2c0.9-0.5 1.8-1 2.7-1.3l1.7-0.3 1.7 0.1c0.9 0.2 1.6 0.4 2.4 0.8 0.8 0.4 1.4 0.9 2.1 1.5 0.6 0.6 1.1 1.2 1.5 1.9 0.5 0.9 0.9 1.7 1.1 2.7 0.4 1.7 0.5 3.4 0.5 5.1 0.1 1.2 0.2 2.4 0.2 3.6 0.8-1.5 1.3-3.1 2-4.6 0.3-0.7 0.7-1.3 1-1.9l1-1.3c0.7-0.6 1.3-1 2.1-1.5 0.7-0.3 1.3-0.4 2.1-0.5 1.1-0.1 2 0 3.1 0.2 1.5 0.4 3 0.8 4.3 1.5l0.7 0.7 0.5 0.7c0.5 1.2 0.8 2.5 0.8 3.8 0 2.1-0.2 4.2-0.4 6.3-0.1 1.8-0.3 3.5-0.2 5.2 0.6-0.9 0.8-2 1.2-3zm104.8 194c-0.3-0.3-0.3-0.7 0-1.1 2.1-2.8 6.3-3 9.6-4.2 2.6-0.9 5.4-1.1 7.9-2.1 3-1.3 5.8-3.2 8.7-4.8 1.2-0.7 2.6-1.2 3.6-2.1 0.7-0.7 1.6-1.7 1.4-2.6-0.7-3.9-2.3-7.7-2.6-11.6-0.6-7.8-0.4-15.7 0.3-23.5 0.4-3.9 1.3-7.7 2.7-11.2 0.3-0.7 1.4-0.9 2.1-0.9 1.2-0.1 3.1-0.5 3.4 0.6 0.6 2.2-1.1 4.6-1.2 6.9-0.3 7.1-0.4 14.1 0 21.1 0.3 7.2 0.5 14.5 2.1 21.4 1.3 6 3.5 12 6.6 17.2 1.3 2.3 4.6 2.6 6.3 4.6 0.5 0.4 0.1 1.7-0.6 1.8-1.5 0.2-3.2-0.4-4.5-1.2-2.1-1.4-4.1-3-5.4-5.2-0.8-1.3-0.8-3.9-2.4-4.1-1.5-0.2-1.7 2.8-3 3.5-2.5 1.4-5.4 2-8.2 2.8-2.1 0.6-4.2 1.3-6.3 1.5-1.8 0.1-3.9 0.2-5.4-0.6-1-0.6-0.7-2.1-1.3-3.1-0.8-1.3-1.6-2.8-3-3.6-0.9-0.5-2 0-3 0.3-1.3 0.5-2.2 2.3-3.6 2.1q0 0-0.1 0c-0.2-0.7-0.5-1.4-1.2-1.6-0.9-0.3-1.9-0.4-2.9-0.3zm-143.5 12.4c3.3-0.5 6.8 0.1 10.2-0.2 3.2-0.3 6.4-1.1 9.6-1.5 1.9-0.2 3.9-0.3 5.9-0.2q5.7 0.4 11.2 1.4c2 0.4 4 0.8 5.8 1.7 0.5 0.2 0.8 0.9 0.7 1.4-0.1 0.6-0.7 1-1.2 1.2-0.8 0.3-1.8 0.3-2.6 0.3-2.3-0.1-4.5-0.5-6.7-0.7-4.7-0.5-9.4-1.1-14.1-1.5-3.6-0.3-7.3-0.2-11-0.5-1.3-0.1-2.7-0.4-4-0.7-0.3 0-0.8-0.1-1.3-0.1q-0.5-0.2-1.1-0.4-0.7-0.1-1.4-0.2zm-10.3-25.8q2.1 0 4.1 0c2.3 0 4.7 0.2 7 0 3-0.3 6.1-0.9 9.1-1.4 2-0.3 4.2-0.4 6.1-1.1 0.8-0.3 1.1-1.6 1.9-1.7 1-0.1 2.8 0.1 2.8 1.1 0.1 2.1-0.6 4.8-2.5 5.8-2.7 1.6-6.2 1-9.4 1.2-4.2 0.2-8.3 0.1-12.5 0-4.3-0.2-8.7-1.3-13-1.2-0.1 0.1-0.1-0.1 0-0.2 1.5-0.2 2.9-0.5 4.2-0.9 0.8-0.3 1.6-0.9 2.2-1.6zm-67.8-167.2q0-0.9 0-1.8c0-0.4-0.2-0.8 0-1.1 0.6-0.7 1.3-1.6 2.1-1.6 1.4 0 2.8 0.5 4.1 1.1q-1.9 0.9-3.7 1.9-1.3 0.7-2.5 1.5zm172.6 80.7q-0.2 0-0.4 0c-0.8-0.1-1.6-0.4-2.3-0.6q-0.4-0.1-0.9-0.2c-1.6-0.5-3.1-1.2-4.5-2.1-1.3-0.8-2.6-1.8-4-2.4q-0.3-0.2-0.7-0.3c-0.8-0.1-1.5-0.1-2.4 0.1-0.7 0.2-1.4 0.6-2.1 0.9-2.3 1.3-4.4 2.8-6.4 4.4-3.6 3.1-6.9 6.5-10.1 10.1-2.3 2.7-4.5 5.4-6.9 8.1-1.5 1.7-3 3.4-4.8 4.8-1.9 1.7-4.2 2.9-6.3 4.3-1.3 0.9-2.6 2-3.9 3-4.5 3.6-8.9 7.4-13.5 10.9-4.4 3.3-8.9 6.3-13 9.8q-0.9 0.6-1.6 1.3c-1.8 1.7-3.3 3.5-4.8 5.4-0.3 0.3-0.4 0.8-0.5 1.2q-0.2-2.9-0.1-5.7c0.7-0.9 1.4-1.8 2.2-2.5 2.3-2.1 4.8-4.1 7.3-6 3-2.4 6.2-4.5 9.3-6.9 5.3-4.1 10.3-8.5 15.6-12.5 1.9-1.4 3.9-2.5 5.8-3.8q0.9-0.7 1.8-1.5c1.1-0.9 2.1-2 3.1-3.1 3.3-3.6 6.3-7.5 9.6-11 3.1-3.5 6.4-6.7 10-9.6 1.8-1.3 3.6-2.6 5.6-3.7 0.9-0.5 1.8-0.9 2.9-1.1q0.6-0.2 1.2-0.3c0.7-0.1 1.4-0.1 2.1 0q0.7 0.1 1.3 0.3c0.6 0.2 1.2 0.5 1.7 0.8 0.5 0.3 1.8 1.4 1.5 0.9-1.4-2.2-2.7-4.4-3.8-6.7-1.5-3.3-2.8-6.7-4.5-9.9q-0.5-0.9-1.1-1.8c-3.9-6.5-7.6-13.2-11.8-19.5q-1.9-2.8-4-5.4-2-2.7-4.3-5-1.9-2-4-3.8-2.2-1.8-4.4-3.3c-3.1-2.2-6.3-4.1-9.6-5.9-5-2.7-10-5.2-15.2-7.3q-5.1-2.1-10.4-3.7-4.5-1.3-9-2.2-4.2-0.8-8.4-1.1-2.1-0.2-4.2-0.2c-6.4-0.2-12.8 0.1-19 1.3-2.5 0.5-5 1.2-7.5 1.9-4 1.2-7.9 2.7-11.7 4.3q-1.1 0.4-2.1 1-0.7 0.4-1.4 0.8c-2.5 1.8-5 3.6-7.3 5.6-1.2 1-2.2 2.2-2.8 3.5-0.5 1.1-0.2 2.4-0.2 3.6 0 2.4 0.9 5.2-0.3 7.1-0.9 1.5-3.1 1.4-4.7 1.2-2-0.2-4.3-0.5-5.5-2.3-1.2-1.6-0.7-4.2-0.6-6.3 0-0.9 0.2-2.5 0.9-2.3 0.9 0.2 0.9 2 1.4 3 0.5 0.8 0.7 2.2 1.5 2.4 1 0.3 2.2-0.5 2.9-1.4 0.7-1.1 1.1-2.6 1.1-4 0.2-2.9 0.6-6.1-0.4-8.7-1.1-2.9-3.3-5-5.5-6.9-0.8-0.7-1.6-1.3-2.5-1.9q1.6-0.8 3.3-1.6 0.8 0.6 1.4 1.4c2.5 2.9 5.4 5.7 6.7 9.5 0.2 0.5 0 1.1 0.4 1.4 0.2 0.2 0.6-0.3 0.9-0.5 2.3-1.6 4.4-3.5 6.7-5.1 1-0.7 2-1.3 3.1-1.9 1.7-0.9 3.6-1.6 5.4-2.3 3.5-1.3 7-2.5 10.7-3.5q3.5-1 7-1.6 3.4-0.5 6.7-0.8 4.4-0.4 8.8-0.4 4.5 0 8.9 0.5 3.5 0.3 6.9 1 2.8 0.5 5.6 1.2 6 1.6 11.9 3.8 4.8 1.9 9.6 4.1c5.2 2.5 10.3 5.2 15.2 8.3q3.3 2.1 6.3 4.5c1.6 1.2 3 2.5 4.4 3.8q2.4 2.3 4.5 4.9 2.3 2.6 4.3 5.5c2.2 3.1 4.3 6.4 6.2 9.7 2.4 3.9 4.7 7.9 7 11.8q1.2 2 2.2 4 0.7 1.5 1.4 3.1c1.4 3.2 2.7 6.5 4.6 9.5q0.6 1.1 1.5 2.1c0.7 0.9 1.4 1.7 2.2 2.5 0.6 0.5 1.2 0.6 1.8 0.9q0.4 0.2 0.7 0.3 0.4 0.2 0.7 0.5 0.4 0.2 0.7 0.6c0.3 0.3 0.6 0.6 0.7 1 0.2 0.5 0.5 1.2 0.3 1.7q-0.2 0.3-0.4 0.5-0.6 0-1.1 0.1c-0.2 0-0.4 0.2-0.6 0.4zm-89.1 58.7q0 1.6 0.2 3.2c0.1 1.4 0.9 2.7 1.4 4 0.2 0.6 0.7 1 0.8 1.6 0 0.4 0 1.2-0.4 1.2-0.8 0.1-1.6-0.4-2.2-1-1.2-1.2-2.3-2.6-3-4.2-1.2-2.9-2.5-6-2.8-9.2-0.4-4.4 0.3-8.9 0.8-13.3 0.5-4.1 1.5-8.1 2-12.2 1.1-8.5 1.8-17.1 2.8-25.7 0.3-2.6 1.1-5.1 1-7.8-0.2-4.6-0.9-9.2-2-13.7-0.3-1.2-1.5-2-2-3.2-0.1-0.3 0.1-0.9 0.4-1 1-0.3 2.2-0.5 3 0 1.3 0.9 2.3 2.3 2.8 3.8 1.2 3.8 1.8 7.8 2.2 11.8 0.3 3.6-0.1 7.3-0.2 10.9-0.2 5.9-0.3 11.7-0.8 17.6-0.4 4.1-1.4 8.1-2 12.1-0.8 5.5-1.7 10.9-2 16.4q-0.1 1.5-0.1 3c-0.6 0.7-1.2 1.5-1.9 2.1-0.4 0.5-1.8 0.5-1.5 1.1 0.4 1.3 1.6 2.5 2.9 2.9 0.3 0.1 0.4-0.1 0.6-0.4zm-81.1-137.6q0 0.4 0 0.6c-0.2 1.6-0.3 3.2-0.4 4.8-0.3 3.1-0.3 6.1-0.8 9.2-0.2 1.6-1.4 3.1-1.3 4.8 0 2.5 0.9 5 1.6 7.4 0.4 1.2 1.4 2.1 1.6 3.3 0.2 0.8 0.4 2.6-0.2 2.3-1.8-0.8-3.2-2.6-4.4-4.4-1-1.5-2-3.3-2-5.3 0-3.3 1.4-6.3 2-9.5 0.5-2.1 1-4.1 1.2-6.2 0.2-1.8 0.3-3.6 0.3-5.3q0.5-0.4 1-0.8 0.7-0.4 1.4-0.9zm0.6-2.7c1-0.2 2 0.2 3 0.7q-1.8 1-3.6 2c0-1.1-0.2-2.6 0.6-2.7zm365.9 87.1c0.8-0.1 1.6-0.1 2.4-0.1q1.2 0 2.4 0.1c1.3 0.1 2.6 0.3 3.9 0.7q1.5 0.4 3 0.9 1.1 0.5 2.2 1c1.3 0.7 2.6 1.4 3.8 2.3q1.3 0.9 2.4 2 0.8 0.8 1.5 1.7c0.5 0.7 0.9 1.3 1.3 2.1q0.1 0.3 0.3 0.6 0.2 0.7 0.4 1.4c0.1 0.7 0.2 1.4 0.2 2.1 0 1.5-0.2 3-0.4 4.5-0.1 1.6 0 3.2 0 4.8 0 2.6-0.1 5.3-0.1 7.9 0.1 8.8 1 17.6 1.1 26.4 0.1 3.2 0 6.5-0.3 9.7-0.3 4.6-1 9.2-1.7 13.8-0.6 3.7-1.3 7.4-1.9 11.1-0.7 4-1.7 8-2.6 12q-0.4 2.1-0.8 4.3c-0.9 6.7-1.6 13.4-1.4 20.2 0.1 2.2 0.4 4.4 0.6 6.6 0.3 2.3 0.8 4.5 1.3 6.7 0.1 0.5 0.3 1 0.5 1.5 0.6 1.2 1.3 2.4 2 3.5 0.9 1.6 1.8 3.3 2.9 4.8 0.4 0.6 2.3 1.4 1.5 1.5-5.7 0.7-7.5-4.7-9.1-7.7-0.4-0.7-0.7-1.4-0.9-2.1-0.5-1.6-0.8-3.4-1.1-5.1-0.4-2.3-0.8-4.6-0.9-7-0.4-5.2-0.1-10.4 0.4-15.6 0.2-3 0.6-6 1.1-8.9 0.8-4.8 2.1-9.5 2.9-14.2q0.2-1 0.4-1.9c1.2-7.4 2.6-14.7 3.3-22.1q0.3-3.6 0.4-7.1 0.1-2 0-3.9c-0.1-8.9-1-17.6-1.1-26.4 0-3.8 0.1-7.5 0.1-11.2 0-1.6 0.2-3.3 0.3-5q0.1-0.8 0.1-1.6c-0.1-0.6 0-1.3-0.4-1.7-2.4-2.5-5-4.8-7.7-7-0.5-0.4-1.2-0.6-1.8-0.8-1.6-0.6-3.1-1-4.7-1.3q-0.7-0.1-1.4-0.1c-1.3-0.2-2.6-0.2-3.9 0q-1 0.1-1.9 0.4c-2.5 0.7-4.9 1.7-7.4 2.5-0.7 0.1-1.4 0.3-2.1 0.8 2.7-4.5 7.7-6.5 10.9-7.1zm-8.8 6.3c1.8-0.2 3.6 0.3 5.4 0.6 0.8 0.1 1.4 0.3 2.1 0.6q1.3 0.4 2.4 1.1c0.9 0.4 1.6 0.9 2.3 1.5 0.6 0.4 1.1 0.9 1.6 1.4 0.4 0.5 0.9 1 1.3 1.6q0.4 0.7 0.7 1.3 0.3 0.7 0.6 1.5c0.3 0.7 0.4 1.4 0.6 2.2 0.2 1.5 0.3 2.9 0.4 4.4 0.1 2.3 0.3 4.6 0.4 6.9 0.3 5.3 0.3 10.6 0.2 15.9-0.3 6.8-1 13.7-1.8 20.5q-1 8.6-2.3 17.2c-1 6.4-2.1 12.7-3 19.1-1.1 7.7-2.6 15.3-2.9 23.1q-0.1 2.3 0.2 4.6c0.2 1.6 0.5 3.1 0.9 4.6q0.2 1.1 0.6 2.2c2.2 6.2 5.6 11.8 9.4 17.2 0.3 0.4 1.5 1.3 1.1 1.1-9.6-4.5-11.7-12.1-13.1-15.6q-0.8-2-1.3-4-0.5-1.8-0.8-3.6c-0.2-1.7-0.4-3.4-0.4-5.1 0-2.9 0.2-5.8 0.6-8.7 0.6-5.8 1.6-11.5 2.4-17.2 1.4-9.7 3.2-19.3 4.5-29 0.8-6.9 1.7-13.7 2.1-20.6 0.3-4.2 0.5-8.5 0.5-12.7q-0.2-6.5-0.5-12.9-0.2-3.4-0.6-6.8c0-0.6-0.2-1.1-0.4-1.7-0.3-0.7-0.6-1.4-1-2-0.3-0.4-0.6-0.8-0.9-1.2-0.7-0.6-1.3-1.2-2.1-1.7q-0.4-0.3-0.9-0.5c-1.1-0.6-2.2-1.1-3.4-1.4q-0.6 0-1.1-0.1c-2.4-0.1-4.7 0.3-7.1 0.5-0.6 0-2.2 1.1-1.9 0.5 0.9-2.1 2-3.3 3.1-4q-0.1 0.2-0.3 0.4c-0.4 0.8 1.6-0.9 2.4-1.2q0 0 0 0zm-104 98.1c0.5-0.3 1.2-0.8 1.7-0.5 0.7 0.5 0.9 1.5 1 2.3 0 2-0.7 3.9-0.8 5.8-0.1 4.7-0.2 9.3 0 14 0.3 4.2 0.6 8.4 1.5 12.5 0.4 2 1.7 3.6 2.4 5.5 0.3 0.6 0.5 1.3 0.5 2 0 0.3-0.2 0.6-0.5 0.6-0.5 0.1-1-0.2-1.3-0.5-1.7-1.3-3.6-2.5-4.8-4.3-2-2.9-3.6-6.1-4.5-9.4-1-3.7-1-7.6-1-11.5 0-1.9 0.6-3.8 1-5.6 0.5-2.2 1.2-4.3 1.9-6.4 0.4-1 0.7-1.9 1.2-2.8 0.5-0.7 1.1-1.3 1.7-1.7zm-241.6-127.1c0.7-2.2 3.2-3.5 5-5.6 1.9-2 4.5-4.9 6.1-6.9 1.7-1.9 2.7-4 3.9-4.7 1.3-0.7 0.7 0 0.8 2.2 0.2 2.3 0.3 8.2 0.3 11.1 0.1 2.9 0 4.8 0 6.4 0 1.6-1.5 1.3 0 3 1.5 1.7 5.9 4.6 8.3 6.4 2.5 1.9 5 3 6.4 4.7 1.4 1.7 1.8 3.8 1.7 5-0.2 1.3-0.5 1.7-2.2 0.3-1.8-1.4-5.3-6-7.8-8-2.5-2.1-5-3.7-6.9-4.2-2-0.5-2.9 0.7-3.9 1.4-1 0.7-0.5 2.5-2 2.8-1.4 0.2-3.7-0.3-5.2-1.7-1.5-1.4-2.3-4.1-3.1-6.1-0.7-2.1-2-3.9-1.4-6.1zm10-4.2c-1 1.3-2.2 2.4-3.3 3.6-0.8 0.9-2 1.4-2.2 2.5-0.3 1.4 0 3 0.8 4.2 0.7 1 1.9 1.7 3.1 1.7 1.2-0.1 2.6-0.9 3.3-2 0.9-1.2 1-2.9 1.1-4.4 0.2-2.4 0.5-4.9 0-7.2-0.1-0.6-1.2-0.3-1.7 0-0.5 0.3-0.6 1.1-1.1 1.6zm86.4 141.5c0.7 0 1.3 0.6 1.5 1.3 0.2 0.9-0.2 1.9-0.4 2.8-0.5 1.9-1.2 3.7-1.5 5.6-0.6 3.8-1.1 7.7-1.3 11.6-0.3 4 0.2 8.1 0 12.1-0.1 0.8-0.2 1.8-0.8 2.4-0.4 0.4-1.2 0.3-1.8 0.1-0.4-0.1-1-0.4-1-0.9-0.2-4.5 0-9 0.3-13.4 0.2-4 0.6-8.1 1.2-12 0.4-2.9 1-5.8 2.1-8.5 0.2-0.6 1-1.2 1.7-1.1zm23.6-8.9c-1.5 0.5-3.1 1.1-4.5 2-1.1-1.5-0.1-3.9 0.1-5.9 0.3-3 0.8-6 1.7-8.8 1-3.3 2.2-6.6 4-9.6 1.2-1.9 2.6-3.8 4.5-5 1.1-0.6 2.6-0.7 3.6 0 0.7 0.4 0.5 1.7 0 2.4-0.6 0.9-2 1.1-2.8 1.9-1 0.9-2.1 1.9-2.7 3.1-1.1 2.3-1.9 4.9-2.6 7.4-0.6 2.2-1 4.4-1.2 6.7-0.2 1.8 0.2 3.7 0 5.5q0 0.2-0.1 0.3zm-85.3-12c3.4-0.6 7-0.1 10.5-0.2 4.1-0.3 8.2-0.7 12.4-1 3.2-0.2 6.3-0.6 9.5-0.5 4.3 0.2 9-0.4 12.9 1.5 1.6 0.7 1.7 3.5 1.2 5.2-0.3 1-1.9 1.1-2.9 1-2.1-0.5-3.8-2.2-5.9-2.7-2.2-0.4-4.5 0.1-6.7 0-2.1-0.1-4.1-0.5-6.2-0.7-3.4-0.3-6.7-0.8-10-0.9-2.2-0.1-4.3 0.2-6.5 0.2-1.6 0-3.3 0.1-5 0-1-0.1-2.2 0-3.1-0.5-0.4-0.2-0.7-1.3-0.2-1.4zm18.8-117.5c0.2-2.5 0.5-5.1 0-7.5-0.4-2.3-1.2-4.6-2.7-6.4-2.4-2.7-5.4-4.9-8.6-6.6-1.5-0.8-3.3-0.5-5-0.6q-1.7-0.1-3.3 0c-1.3 0.1-2.6 0.7-3.9 0.6-0.7-0.1-1.8-0.5-1.7-1.1 0.2-1.2 1.1-2.6 2.2-2.8 3-0.6 6.3-0.5 9.2 0.5 5.2 2 10.4 4.5 14.4 8.4 3.4 3.4 5.2 8.2 6.9 12.7 0.8 2.2 0.5 4.6 0.6 6.9q0.1 0.1 0.1 0.2l0.4 0.5 0.2 0.5 0.3 0.7 0.5 1.4 0.3 1.5 0.1 1.5 0.1 0.7c-0.1 2.3-0.1 4.5-0.1 6.8q-0.1 1.5-0.2 3l-0.3 2-0.2 1-0.3 1-0.3 0.9-0.4 1-0.4 0.7-0.4 0.7-0.4 0.6-0.5 0.6-0.5 0.6-1.1 1.1q-0.9 0.8-1.9 1.4l-1.3 0.9q-1.3 0.8-2.7 1.5l-0.7 0.2h-0.8l-0.7-0.1-0.7-0.1-0.7-0.3c-1.5-0.8-2.9-1.8-4.3-2.8q-0.7-0.5-1.3-1-0.9-0.8-1.7-1.6-0.5-0.7-1-1.4l-0.5-0.8-0.4-0.8-0.3-0.9-0.2-0.8-0.1-0.9-0.1-0.9v-0.9-0.9l0.1-0.7 0.2-0.7 0.3-0.6 0.3-0.7 0.4-0.6 0.4-0.5 0.4-0.5 0.5-0.5 0.8-0.7 0.8-0.5 0.9-0.5q1.2-0.6 2.4-1.2l0.6-0.5 0.6-0.5 0.3-0.4q1-1.2 1.9-2.4c1-1.4 1.8-2.8 2.5-4.3l0.5-1c0.1-1.4 0.5-2.7 0.5-4.1zm184.6 110.2q-2.4 1.3-5.1 2.1c-2.1 0.6-4.4 0.5-6.3 1.5-0.7 0.3-0.7 1.4-0.6 2.1 0.1 1.4 0.1 3 1.2 3.9 0.8 0.8 2.2 0.3 3.3 0 2.8-0.7 5.5-1.7 8.1-3 1.7-0.8 4.2-1.3 4.7-3.2 0.4-1.9-0.8-4.3-2.5-5.5-0.9-0.6-1.7 1.5-2.8 2.1zm99.2 54.4c0-2.8 0.3-5.6 0.5-8.3q0-1.8 0-3.6c-0.1-11-0.6-22 0-33 0.1-3 0.3-6 0.7-9 0.4-2.7 1.2-5.3 2.2-7.8 1.5-4.1 3.4-8.1 4.2-12.5 1-6.9 1.8-13.8 2.2-20.8 0.3-5 0.4-10 0.3-15-0.2-2.1-0.5-4-1-6l-0.5-1.4c-0.6-1.4-1.2-2.9-2.3-4.1-1.4-1.3-3.2-2-5-2.6-1.3-0.5-2.7-0.9-4.1-0.5-0.7 0.3-1.2 0.8-1.8 1.3-1.1 1.3-2.1 2.9-2.4 4.6-0.3 1.2-0.3 2.5 0 3.7 0.4 1.1 1.1 2 1.7 3l0.4 0.9c0.5 1.5 0.9 3 1.2 4.6 0.9 3.7 1.5 7.3 1.8 11.1 0.4 6.2 0.7 12.6-1.5 18.5-0.7 1.5-1.5 3-2.3 4.4-1.7 2.6-3.4 5.2-5.4 7.5-2.2 2.7-4.6 5.1-6.8 7.8-1.5 1.9-3.1 3.6-4.4 5.6-1.6 2.6-2.4 5.4-2.9 8.3q-0.3 1.6-0.4 3.2-0.2 1.4-0.3 2.8c-0.4 3.6-0.8 7.5 0.6 11l2 2.7c1.8 1.9 3.8 3.5 5.6 5.4 2.8 3.1 5.3 6.5 8 9.7 1.2 1.4 2.3 2.7 3.7 3.8 2.1 1.4 4.5 2.5 6 4.7zm-284-156.2q-0.8 1.4-1.8 2.8-0.8 1.1-1.7 2.1l-0.4 0.5-0.8 0.7-0.8 0.6q-1.3 0.7-2.6 1.3l-0.7 0.4-0.7 0.4-0.6 0.5-0.7 0.8-0.5 0.9-0.3 0.4-0.1 0.5-0.2 0.4v0.5l-0.1 0.7 0.1 0.7v0.7l0.1 0.7 0.2 0.7 0.3 0.6 0.2 0.7 0.6 0.9q0.6 0.8 1.3 1.5 0.6 0.5 1.1 1 2.1 1.6 4.3 2.9l0.9 0.4 0.4 0.1 0.4 0.1h0.2c0.6-0.2 1-0.5 1.5-0.8q1.2-0.6 2.4-1.4l1.1-0.9q0.8-0.6 1.5-1.3l0.9-1 0.6-1.1 0.3-0.5 0.4-0.9 0.2-0.8 0.3-0.9 0.3-1.7 0.2-1.9 0.1-1.8c0.1-2.3 0-4.6 0.1-6.8l-0.1-1.3c-0.1-1.3-0.5-2.6-1.1-3.9-0.2-0.3-0.5-0.6-0.8-0.9q-0.4-0.5-0.9-1c-1.1 0.4-2.3 0.7-3.4 1.2q-0.8 1.6-1.7 3.2z"/>
</svg>