<svg version="1.2" xmlns="http://www.w3.org/2000/svg" viewBox="0 0 852 1271" width="852" height="1271">
	<title>Gorna-Oryahovitsa-cdr</title>
	<style>
		.s0 { fill: #e12f22;stroke: #2c2e35;stroke-width: 2.1 } 
		.s1 { fill: #00ab4f } 
		.s2 { fill: #ffffff } 
		.s3 { fill: #c9ac45 } 
	</style>
	<path id="Object 2" class="s0" d="m17.2 20.1l172.1-2.9-1.7 102.7 159.6-0.1 2-101.8 159.6 0.4-0.3 97.2 167.2 2.6 0.3-100.6 155.5 2.6 3.1 932.2 0.1 6.8-0.1 6.6v6.5l-0.2 6.3-0.1 6.2-0.3 6.1-0.3 6-0.4 5.8-0.6 5.6-0.6 5.5-0.7 5.4-0.9 5.2-0.9 5.1-1.1 4.9-1.3 4.7-1.3 4.6-1.6 4.5-1.7 4.2-1.8 4.2-2 3.9-2.2 3.8-2.4 3.7-2.6 3.5-2.8 3.4-3 3.2-3.2 3.1-3.5 3-3.7 2.9-4 2.7-4.3 2.6-4.5 2.5-5.1 2.4-334.8 155.2-347-144.9-2.9-1.5-3.2-1.6-3.2-1.7-3.2-1.7-3.2-1.8-3.2-1.9-3.2-1.9-3.2-2-3.1-2.1-3.2-2.2-3-2.2-3-2.3-3-2.4-2.9-2.5-2.8-2.6-2.7-2.7-2.7-2.8-2.5-2.8-2.5-3-2.3-3.1-2.2-3.2-2.1-3.3-2-3.5-1.9-3.5-1.6-3.7-1.6-3.8-1.4-4-1.2-4.1-1.1-4.3-0.8-4.4-0.7-4.6-0.5-4.6z"/>
	<path id="Object 3" class="s1" d="m292.2 344l13.1-54.3 278.9 1.4 41.3 25.4-36.2 25.3z"/>
	<path id="Object 4" class="s1" d="m18.3 249.6l252.3 4.2-6.3 34.7-247.1-2.1z"/>
	<path id="Object 5" class="s1" d="m634.3 250.7h199.7l-1.1 38.9h-227z"/>
	<path id="Object 6" class="s2" d="m303.8 290.4l11.6-55.1h8l2.1-11.5h-44.5l-6.7 13.3-257.3-2.2 1.1-37.9h813.1v37.9l-195.3 0.4-45.2 55.1z"/>
	<path id="Object 7" fill-rule="evenodd" class="s3" d="m0.5 3.5l206-3.6-1.7 103.1 126-0.1 2-101.9 192.9 0.4-0.3 97.4 133.7 2.1 0.3-100.6 189 3.2 3.1 948.7 0.1 6.8-0.1 6.7v6.6c-0.4 22.3-1.7 44.1-6.6 65.9-1.8 7.1-4 13.8-6.7 20.6-6.9 15.3-15.6 27.4-28.4 38.3l-4.4 3.5-4.8 3.2-5 3-5.4 2.9-5.4 2.6-341.7 158.4-354.4-148-3.5-1.7-3.3-1.7-3.3-1.8-3.4-1.9-3.5-1.9-3.4-2-3.5-2.1-3.4-2.2-3.5-2.3-3.4-2.3-6.8-5.1-3.3-2.7-3.3-2.8c-11.5-10.6-20.4-21.8-27.6-35.7l-2-4.4-1.8-4.6-1.7-4.7-1.4-4.9-1.3-5-1-5.2-0.8-5.4-0.6-5.8c-0.8-339.7-1.6-676.2-2.4-1013zm249.4 357.7l-231.8-3.1 1.6 657.5 0.4 4.6 0.7 4.6 0.9 4.4 1.1 4.3 1.2 4.1 1.4 4 1.5 3.8 1.7 3.7 1.9 3.6 1.9 3.4 2.1 3.3 4.6 6.3 2.4 3 2.6 2.9 2.6 2.7c7.4 7.2 15.2 13.3 23.8 19l3.2 2 3.2 1.9 3.2 1.9 3.2 1.8 3.2 1.8 3.2 1.6 3.2 1.7 2.9 1.4 346.9 144.9 334.9-155.2 5-2.4 4.6-2.5 4.3-2.6 4-2.7 3.7-2.8c9.4-8.1 16.1-16.7 21.7-27.7 2.5-5.7 4.6-11.4 6.4-17.4l1.3-4.8 1.1-4.9 0.9-5 0.9-5.3c1.8-13.5 2.6-26.9 3-40.5l0.2-6.4v-6.5l0.1-6.6-0.1-6.8-2-596-225.8 0.7 38.1 42-356.8-1.1h-0.1l-2.3 9.5-2.4 9.4c-8.1 30.6-17 61-27.4 90.9l-3.1 8.8-3.2 8.7-3.4 8.9 1.9 2 2.1 2.5 2.1 2.6 1.9 2.7 1.7 2.9 1.6 3 1.5 3.2 1.3 3.3 1.1 3.4 0.9 3.6 0.7 3.7 0.5 3.8 0.3 4 0.1 4.2-0.2 4.3v0.2l2.8 1.6 3.1 1.8 3.1 1.9 3.1 1.9c16.4 10.3 31.9 21.7 46.7 34.2l2.7 2.4 2.7 2.4 2.7 2.4 2.6 2.5 2.7 2.4 2.6 2.5 2.6 2.6 2.6 2.5 2.5 2.6 2.5 2.6 0.5 0.5 3.4-1.9 4.9-2.6 4.8-2.7 5-2.5 4.9-2.5 5.1-2.5 5-2.5 5.1-2.4 5.1-2.3 5.1-2.3 1.9-0.9 1.5-9.8h-0.4-3.5c-8.6-0.5-16.7-3-25-3.7h-0.3-0.5-0.4-0.4-0.5l-0.5 0.1h-0.5l-0.6 0.1h-0.6l-0.6 0.1-0.6 0.1c-5.9 0.8-11.1 0.8-17 0.1l-6.8-26.7-3.9 0.6-3.9 0.4-3.9 0.2c-9.9-0.6-17.5-4.1-24.3-12-10.9-16.4-12.8-36.7-16.7-55.5 10.5 12.3 19.1 27.1 35.1 32.5l2.8 0.7 3 0.4 3.1 0.3 3.2 0.1h2.1l-0.8-0.4-1.3-0.8-1.4-1.3-1.1-1.7-0.6-1.6-8.6-37.6-0.2-1.9 0.3-2.2 0.8-1.9 1.1-1.6 1.1-1.2 1.2-1.1 1.3-0.9 1.4-0.8 1.3-0.7c11.3-5.2 24.1-6.8 36.3-7.7l2.1-0.2h2.1l1.5-0.1 0.1-0.6 0.2-1.4 0.2-1.5 0.3-1.4c2-9.7 8.2-20 19.2-23.6l1.9-0.5c4.5-0.9 8.8-1 13.4-0.7l4.1 0.4v-1.5-1.8l0.1-1.7 0.1-1.8 0.2-1.7 0.2-1.7 0.2-1.7 0.3-1.7c2.2-11.3 7.1-21.6 13.4-31.1l4.5-6.5 6.8 3.9c7 4.1 13.5 8.6 18.8 14.8l1 1.3 1 1.3 0.9 1.3 0.3 0.6 0.9-0.6 3.7-2.3 3.8-1.9 3.7-1.7 3.8-1.4 3.8-1.2c24.4-5.4 45.5 3.6 61.5 22.1l2.2 2.9 2.2 2.9 1.9 3.1 1.9 3.1 1.6 3.3 1.8 3.9 1 0.8c12.8 13.9 18.8 30.4 22.3 48.7l1.2 1.8 1.5 2.1 1.3 2.2c5 9.4 7 18.7 7.2 29.3l-0.1 3.1-0.3 4.8-3.1 4.4-4.7 0.3-2.4-0.6-0.9-0.4c-4.1 26.4-8.2 52.6-12.7 78.9l7.5-7.4 3.1-2.9 3.6-2.5 3.9-2.1c12.5-4.4 23.4-3 36 0.5l6.7 2.3 0.6 0.3 0.3 0.2 0.3 0.2 0.5 0.3 0.6 0.3 0.6 0.3 0.6 0.3 0.6 0.2 0.1 0.1 1.6-1.7 3.7-3.4 3.6-2.9 3.7-2.4 3.7-1.8 3.7-1.4 3.7-0.8 3.6-0.3 3.6 0.2 3.4 0.6 3.3 1 3.1 1.4 2.9 1.6 2.7 1.8 2.7 2 2.5 2.1 2.5 2.2c4.6 4.4 8.9 9 13.4 13.5l2.1 2 2.1 1.8 2 1.7 2 1.5 1.9 1.2 1.8 1 1.8 0.8 1.6 0.5 2.1 0.3 0.6 0.1 1 0.2 0.7 0.3 0.7 0.3 0.7 0.3 0.7 0.4 0.6 0.4 0.7 0.3 0.6 0.5 0.6 0.4 0.7 0.5 0.6 0.4 0.7 0.5 0.6 0.5 0.6 0.6 0.7 0.5 0.6 0.6 0.6 0.5 0.5 0.6 0.6 0.7 0.6 0.6 0.5 0.7 0.5 0.8 0.5 0.8 0.4 0.9 0.4 1.1 0.3 1.2 0.2 1.5-0.2 1.7-0.7 1.7-1 1.6-1.2 1.1-3.6 2.5-3.5 2.1-3.6 1.7-3.6 1.4-3.7 1.1-3.6 0.8-3.6 0.6-3.6 0.2-3.5 0.1-3.5-0.2-3.4-0.4-3.4-0.6-3.3-0.7-3.1-0.9c-8.5-2.7-16.5-6.7-23.7-11.9l-2-1.5-1.8-1.4-1.6-1.5-1.5-1.5-1.4-1.4-1.2-1.4-1-1.5-0.9-1.6-3-8 12.6-3.2 2.2 5.7v0.2l0.4 0.5 0.6 0.7 0.9 1 1.1 1 1.2 1.1 1.5 1.2c7.9 6.1 16.7 10.3 26.5 12.4l2.7 0.5 2.7 0.3 2.6 0.1h2.7l2.8-0.2 2.7-0.4 2.6-0.6 2.7-0.8 2.7-1.1 2.7-1.3 0.8-0.5-0.1-0.1-0.5-0.3-0.4-0.3-0.4-0.3-0.4-0.3-0.4-0.3-0.3-0.2-0.4-0.2-0.2-0.1-0.2-0.1-2.6-0.4-3.2-0.9-3-1.3-2.9-1.5-2.7-1.8-2.5-1.9-2.5-2.1-2.4-2.2-2.3-2.2-2.3-2.3c-2.9-2.9-5.8-5.9-8.8-8.9l-2.1-2-2.1-1.9-2.1-1.8-2.1-1.5-2-1.3-2-1.1-1.9-0.8-1.8-0.6-1.8-0.3-1.9-0.1-1.9 0.1-2 0.5-2.1 0.8-2.4 1.2-2.6 1.6-2.8 2.2-3 2.8-3.7 4-1.9 1.3-2.4 0.7h-1.8l-1.5-0.2-1.3-0.3-1.2-0.3-1.1-0.4-1-0.5-0.9-0.4-0.9-0.4-0.8-0.4-0.7-0.4-0.6-0.3-0.4-0.2-5.2-1.8-5.2-1.5c-8.6-1.7-16.2-2.4-24.2 1.8l-2.1 1.5-1.9 1.7-1.8 2.1c-12.7 12.7-10.3 35.2-6 55.4 3.7 22.9 11.3 45 12.6 68.3l-0.6 10.7-1.8 9.5-3 8.3-4 7.3-4.9 6-5.7 4.8-6.4 3.6-6.7 2.4-7 1.2-7 0.1-7-0.8c-21-5.4-34.2-16.7-41.5-37.2-4.4-24.9 4.7-42 20.8-61.8l9.6-9.6 11.4-9.7 11.2-8.1 4.5-32.6-26.7-14.3-7.9 47.6-126.4 84.6-7.2-10.7 121.7-81.5c7.8-50.6 15.5-98.3 23-148.9 12.6 9.9 26.1 16.2 39.1 25.6l1.4-9.2-0.6-0.4-2.9-1.8-3.1-1.9-3.2-2.1c-15.5-10-30.7-20.5-46-30.8-8.5-5-5.1-4.8-5 1.4l-15.8 103.3-92.4 64.2-7.2-10.8 90.8-61.8 14.7-105.4-0.3-0.1 0.3-0.4-10.4-9.8-5.5 66.6h-13l6-72.5 1.1-14.6h8.8l-4.8-7.2 8.3-6.5 3.7-2.6 3.8-2.3 3.8-2 3.8-1.8 3.9-1.5 3.9-1.2 3.9-0.8 4-0.6 3.9-0.3h3.9l3.8 0.4 3.8 0.7h0.1l-0.5-0.6-2.1-2.1-2.1-2-2.2-1.9-2.3-1.8c-12.7-8.6-25.8-11.2-40.6-6.8l-3 1.1-3 1.3-3 1.6-3.1 1.9-2.9 2c1.2 5.6 1.4 11.2 1.8 16.9h-13c-0.8-13.1-2-22-12.2-30.6l-1.1-0.8-1.1-0.9-1.2-0.8-1.2-0.8-1.3-0.9-0.6-0.3-0.4 0.7-0.9 1.4-0.7 1.4-0.8 1.4c-4.4 8.5-6.8 16.8-7.1 26.1l-0.1 1.5 0.1 1.4v1.2l11.5 1v13c-11.2-1-24.9-3.6-36.5-2.7l-1.4 0.2-1.2 0.2-1.2 0.3-1 0.4-0.9 0.3-0.9 0.5-0.4 0.2h1.7l1.9-0.1 1.8 0.1 1.9 0.1c13.2 1.2 23.6 6.9 33.9 15l2 1.7 2 1.7 7.1 6.3-9.1 9.2-6.5-5.8-1.8-1.5-1.8-1.5-0.6-0.5-0.1 0.6-0.1 0.9-0.2 0.9-0.2 0.9-0.2 0.9-0.3 0.8-0.3 0.9-0.4 0.8c-9.8 18.4-44.4 8.6-33.2-16l0.5-1 0.6-0.9 0.3-0.4-1.3 0.1-1.5 0.2-1.6 0.3-1.6 0.3h-0.1l-0.1 0.5-0.1 1.2-0.2 1.1-0.1 1.2-0.1 1.3v0.5l-0.1 0.6-0.1 0.7-0.2 0.9-0.4 1-0.6 1.2-1 1.2-1.3 1-1.2 0.6-1.1 0.3-0.9 0.2-0.8 0.1h-0.6-0.6-0.6c-11.6 0-23.7 1.5-34.8 4.9l-1.3 0.5-1.2 0.4-1.1 0.4-0.9 0.5-0.8 0.4-0.1 0.1 7.2 31.1 6.9-3c18.7-6.8 36.9-10.5 55.8-2.5l4.1 2.4c10.7 8.4 14.5 17.3 10.9 30.4l-0.4 0.7v0.2h-0.1l-1.4 3.2c-14.2 20.9-40.4 22.7-63.1 22.2h-0.3l1.4 5.6h0.2 0.5l0.6-0.1 0.6-0.1 0.6-0.1h0.6l0.6-0.1 0.7-0.1 0.6-0.1 0.7-0.1 0.7-0.1 0.7-0.1 0.7-0.1h0.7l0.8-0.1h0.7c10.2-0.4 20.3 3.5 30.7 3.7l2.5-0.1 0.3-2.2 6.1 1.5 1.3-0.2 2.1-0.5c12.6-3.8 17.2-12 18.4-23.7l0.4-9.4 12.8-1.7-0.1 9.3c-1.1 19.7-9.9 32.5-28.1 38l-1.9 0.5-3 20.2-8.4 3.7-5 2.3-5 2.3-5 2.3-5 2.4-4.9 2.4-4.8 2.5-4.8 2.5-4.8 2.5-4.7 2.6c-22.8 13-44 27.5-63.2 45.5l-3.6 3.6-3.6 3.6-3.4 3.7-3.4 3.8-3.3 3.9-3.2 4-5.8 7.4-58.1-14-1.7-6.4-0.8-2.5-0.8-2.3-1-2.3-1.1-2.2-1.1-2.1-1.3-2-1.3-2-1.4-1.9-1.5-1.8-1.6-1.8-1.7-1.7-1.7-1.6-1.6-1.4-2.7-0.7 0.3-1.3-1.7-1.3-2-1.4-2-1.4-2.2-1.4-2.1-1.3-2.2-1.3-2.3-1.2-2.3-1.2-2.3-1.2-2.3-1.1-2.4-1.1-2.4-1.1-1.1-0.5-1.3-0.6-1.9-0.8-3 22.1 32.2 12.5-3.2 12.7-30.8-12-2.4 17.9 32 9.5-3.1 12.6-30.7-9.1-2.3 17.1 113.9 34.4-31.2 29-9.2-9.2 15-13.9-48.2-14.6-13.7 95.5-47.2-4.9 16.2-104.1-9.9-3 4.1-30.1 1.8-13 2.5-18.9 1.8-13.2 4.9-35.6 10.1 4.1 2.5 1 2.5 1.1 2 0.8 13.2-49.4-11-7.5 7.9-28.9 2.3-8.7 5.1-18.4 1.9-7.1 10-36.7 9.9 5.2 2.8 1.5 2.8 1.4 0.5 0.3 0.3-0.9 3.1-8.6 2.9-8.8 2.8-8.8 2.6-8.8 2.6-8.9c5.8-21.1 10.9-42.3 15.5-63.7l1.9-9.2 1.9-9.3 1.9-9.3 1.8-9.3zm-231.9-19.9l235 3.1 1.4-7.4 1.8-9.4 1.7-9.3 1.7-9.4 0.9-4.6-242.5-1.5zm248.1 3.4l-3.2 16.7-1.1 6.1-1.9 9.4-1.8 9.3-1.9 9.4-2 9.3c-4.7 21.6-9.8 43.1-15.7 64.4l-2.6 9.1-2.7 9-2.8 9-3 8.9-3.1 8.9-1.1 2.8 2 1.2 2.8 1.7 2.7 1.7 2.7 1.8 2.3 1.7 1.7-4.5 3.2-8.6 3.1-8.6 3-8.7c8.9-26.8 16.9-53.9 24-81.2l2.4-9.3 2.4-9.4 1.9-8 1.4-5.8 1.2-5.2 2.2-9.5 2.2-9.6 1.6-7.2 1.8-8.2 0.9-4.1 2.1-9.7 2.1-9.9 2.1-9.9 0.6-3.3 3.5-16.8 2-9.9 2-10.2 2-10.1 1.3-6.3 3.3-16.8 0.1-0.9h-0.1-0.9-1-1-1.1-1l-1 0.1h-1.1-1l-1.1 0.1h-1.1l-1.1 0.1h-1.1-1.1l-1.2 0.1h-1.1-1.2-1.2l-1.2-0.1h-1.2l-1.1-0.1-0.8 3.5 0.6 0.5-4.3 16.8-0.2 1.1-1.9 9.2-1.9 9.3-1.8 9.3-0.9 4.4-3.1 16.8-1.3 6.8-1.8 9.4-1.7 9.4-1.7 9.3zm173.3 738.1l-4.9-20.9-30.2 31.3-20.9-0.8-0.6 1.5-7.5-1.8-13.4-0.6-0.3 0.7-3-0.8-18.4-0.7-0.6 1.5-7.3-1.8-29.8-1.2 15.4-40.8 0.3-1.1 0.4-1.5 0.5-1.6 0.5-1.5 0.6-1.4 0.7-1.4 0.7-1.4 0.8-1.3 0.8-1.3 0.9-1.2 1-1.2 1-1.1 1-1 1.2-1 1.2-0.9 1.2-0.9 1.3-0.8 1.3-0.7 1.4-0.7 1.4-0.6 1.4-0.5 1.5-0.4 1.5-0.4 1.5-0.4 1.6-0.2 1.6-0.2 1.6-0.2 1.7-0.1h1.7 1.7l1.8 0.1 2 0.1 23 3.9 18.5-21.9-1.8-3.2-3.7-6.9-3.4-6.7c-8.6-18.1-15.2-35.9-16.2-56.1v-4.9l0.3-4.7 0.6-4.6 0.8-4.5c3.5-14 9.7-25.6 17.8-37.5l2.9-4 3-4.1 3.2-4.1 3.3-4.1 2.3-2.8-4.8-2.1-6.3-2.7c-19-8.2-38.4-15.9-56.2-26.5l-4.2-2.8-3.8-2.9-1.4-1.2-1.3-1.1-1.2-1.1-1.1-1.1-1-1.1-1-1.1-0.9-1.2-0.8-1.3-0.7-1.3-0.5-1.1-32.5 27.6-9.2-9.2 50.9-43.1c14.4 0 18.3 0.6 17.4 2.6-1 2.1-6.8 5.7-11.9 11.8l-0.7 0.9-0.6 0.8-0.4 0.7-0.4 0.7-0.3 0.5-0.2 0.4-0.1 0.4v0.3l-0.1 0.1v0.2 0.1l0.1 0.2v0.2l0.2 0.2 0.2 0.4 0.3 0.5 0.4 0.5 0.5 0.6 0.6 0.7 0.8 0.8 0.9 0.8 1 0.9 1 0.9 3.3 2.4 3.6 2.4 4.1 2.5 4.5 2.4 4.9 2.5 5.2 2.5c16 7.4 32.4 14.1 48.5 21.3l1.8 0.8 0.7-0.9 2.1 2.2 1.7 0.8 6.3 3 6.2 3 6.1 3.2c16.8 9.3 31.9 19.2 43 35.1l2.8 5 2.1 5.2 1.5 5.5 0.8 5.7v5.5 0.1 0.1l0.1 0.1 0.1 0.1 0.1 0.2 0.1 0.2 0.2 0.2 0.2 0.2 0.2 0.2 0.1 0.2 0.4-0.3 0.7 1.5 0.3 0.3 0.3 0.3 0.3 0.3 0.3 0.3 0.4 0.4 0.3 0.4 0.3 0.4 0.4 0.4 0.3 0.4 0.3 0.4 2.5 3.4 2.6 3.1 2.7 3 2.8 2.9 2.8 2.7 3 2.6c18.4 15.4 40.1 25.1 60.4 37.5l3.4 2.2 3.4 2.2 3.3 2.3 3.3 2.5 3.2 2.5 3.1 2.7 3.1 2.7 5.3 5.2-5.7 32.6-11-3.8-3.5-1-3.4-0.7-3.3-0.6-3.3-0.2-3.1-0.1-3 0.1-2.9 0.3-2.8 0.5-2.7 0.6-2.5 0.8-2.5 1-2.4 1.1-2.2 1.2c-5.8 3.7-10.1 8-13.8 13.8l-1.1 2-1 2.1-0.8 2.2-0.7 2.1-0.6 2.2-0.4 2.2-0.2 2.1-0.1 2.2v2.1l0.2 2.3 0.1 0.7 0.1 0.9 0.1 0.8v0.8l0.1 0.7v0.8 0.4l16.1 0.1 12.2-30.8 13.7-0.1-12.1 30.9 9 0.1 12-31.9 14 0.9-12.1 31 10.8 0.1 12.6-30.6 13.4-0.5-12.2 31.1 20.2 0.1h1.1 1l0.9-0.1 0.9-0.1 0.8-0.1 0.8-0.2 0.8-0.2 0.7-0.2 0.6-0.2 0.6-0.3 0.6-0.3 0.5-0.3 0.5-0.3 0.5-0.3 0.4-0.4 0.5-0.4 0.4-0.5 0.5-0.5 0.4-0.5 0.4-0.6 0.4-0.7 0.4-0.7 0.4-0.8c1.9-4 2.9-8.3 3.5-12.7l0.2-1.6 0.1-1.6 0.2-1.6 0.1-1.7v-1.8l0.1-1.7v-1.8-1.7-1.8l-0.1-1.7v-1.7l-0.1-1.7-0.1-1.7v-1.6l-0.1-1.5-0.1-1.6-0.1-1.4-0.1-1.4-0.1-1.3v-1.3l-0.1-1.1-0.1-1.1v-1-1-0.9l0.1-1 0.2-1.2 0.7-2.3 3.7-3.7 4.8 1.1 26.5 17.6-7.2 10.8-15.3-10.2v0.2l0.1 1.7 0.1 1.6v1.8l0.1 1.7 0.1 1.9v1.8 1.9 1.9 1.9 1.9l-0.1 2-0.1 1.9-0.2 1.9-0.1 1.9c-0.8 6.5-2.2 12.7-4.9 18.6l-0.7 1.3-0.7 1.2-0.7 1.1-0.8 1.1-0.8 1.1-0.9 1-1 1-0.9 0.9-1.1 0.9-1.1 0.8-1.1 0.7-1.2 0.7-1.2 0.6-1.2 0.5-1.3 0.5-1.3 0.4-1.4 0.3-1.3 0.3-1.4 0.2-1.4 0.2-1.4 0.1-1.5 0.1h-1.4l-102.2-0.5h-0.6l-0.7-0.1-0.7-0.1-0.9-0.2-0.9-0.3-1-0.5-1-0.8-0.8-0.8-0.7-1-0.5-1-0.3-0.9-0.2-0.8-0.1-0.7-0.1-0.6v-0.6-0.5-0.4l0.1-0.4v-0.4-0.4-0.4-0.4-0.5-0.4-0.4-0.5-0.5-0.5-0.5l-0.1-0.6v-0.6l-0.1-0.8-0.3-2.9-0.1-3.1 0.1-3 0.4-3.1 0.6-3 0.7-3 1-2.9 1.1-2.9c5.9-12.5 14.8-21.2 27.3-27l3.3-1.3 3.4-1.1 3.5-0.8 3.6-0.6 3.8-0.4 3.8-0.2 4 0.1 4 0.4 4.1 0.6 4.2 0.9 1.2 0.4 2-11.1-0.3-0.3-2.7-2.4-2.8-2.4-2.9-2.2-3-2.2-3-2.2-3.1-2.1-3.2-2-3.3-2c-17.5-10.3-35.7-19.1-52.1-31.2l-3.4-2.7-3.3-2.7-3.3-3-3.2-3-3.1-3.2-3-3.4-2.9-3.5-1 0.5-4 2.4-3.6 2.5-3 2.4-2.6 2.4-2 2.4-1.7 2.4-1.4 2.4-1 2.3-0.8 2.4-0.5 2.5-0.2 2.5-0.1 2.7 0.2 2.8 0.3 2.8 0.6 3c3.1 13.3 8.6 25.8 12.5 38.9l1.1 4 0.9 4.1 0.8 4.1 0.7 4.3 0.7 4.2-10.7 11.9-2.9-14.6-0.5-3.6-0.7-3.6-0.9-3.6-1-3.7-1.1-3.6-1.1-3.6c-3.3-9.6-7-19.1-9.6-28.9l-0.9-3.6-0.7-3.7-0.4-3.7-0.2-3.7v-3.7l0.4-3.7 0.8-3.7 1.1-3.7 1.6-3.6 2-3.6 2.5-3.4 2.9-3.3 3.3-3.2 3.9-3.1 4.2-3 3.8-2.2-0.3-0.4-0.4-0.6-0.3-0.5-0.3-0.6-0.3-0.7-0.2-0.7-0.3-0.7-0.1-0.8-0.2-0.7-0.1-0.9v-0.8-0.5-4.5l-0.5-4-1-3.8-1.6-3.8-2.1-3.7-2.5-3.7-3.1-3.6c-8.1-8.2-17-14.3-26.9-20.2l-5.6-3.1-5.8-3-6-3-1.7-0.8-0.9 1.2-3.4 4.1-3.2 4.1-3.1 3.9c-8.6 11.5-16.1 22.9-20.4 36.8l-0.9 3.7-0.7 3.7-0.5 3.9-0.3 3.9v4.1c0.8 15.9 5.7 30.1 12 44.6l2.9 6.1 3.3 6.4 3.5 6.7 6.2 10.9-29 34.4-29.8-5-1.2-0.1h-1.3l-1.3-0.1-1.3 0.1h-1.2l-1.2 0.1-1.1 0.2-1 0.2-1 0.2-1 0.2-0.9 0.3-0.8 0.3-0.8 0.3-0.8 0.4-0.7 0.4-0.7 0.4-0.7 0.5-0.6 0.5-0.6 0.5-0.5 0.5-0.6 0.6-0.5 0.6-0.5 0.7-0.4 0.7-0.5 0.8-0.4 0.8-0.4 0.9-0.4 0.9-0.3 1-0.4 1-0.3 1.1-0.4 1.7-9.3 24.8 10.5 0.4 12.5-32.3 12.7 3.2-11.5 29.6 8 0.3 12.8-33.1 12.7 3.2-11.8 30.5 7.8 0.3 12.5-32.2 13.3-0.5-12.2 33.3 10.7 0.4 43.4-45.1 6.9 35.7zm-147.3-701.7l314.7 1.1-22.7-25-286.7 0.9-0.3 1.5-2.2 9.7-2.3 9.6zm9-39.9l281.8-0.9 25.8-16.9-36.2-18.1-263.6-0.8-1.2 5.9-2.1 9.9-2.1 9.9-2.1 9.8zm11.2-53.5l272.2 0.8 28.5-37.5-293.4 0.1-1.8 8.8-2 10.2-2 10.1zm10.6-53.4l509.3-0.1-0.1-34.8-814.5-1.6 0.1 34.9 256.1 4.7 0.7-3.1 3.5-15.3 7.1 1.3 0.9 0.2 0.9 0.1 0.9 0.1 1 0.1h1l0.9 0.1h1 1 1 1 1l1.1-0.1h1 1.1l1.1-0.1h1.1l1.1-0.1h1.1 1.1l1.1-0.1h1.2 1.1 1.2l1.2 0.1h1.2l1.2 0.1 1.2 0.1 1.3 0.1 1.2 0.2 1.3 0.2 7.6 1.4zm-52.7 19.8l-252.5-4.7 0.1 36.7 245.8 1.5 1.3-6.7 1.8-9.4 1.9-9.3zm562-3.2l-198.1 0.1-28.6 37.5 226.8 0.7zm0.2 55l-222.2-0.6 32.1 16-28.6 18.8 218.8-0.8zm-814.8-125.1l814.4 1.6-0.5-162.4-155.5-2.6-0.3 100.6-167.3-2.6 0.3-97.3-159.5-0.3-2.1 101.8-159.5 0.1 1.7-102.7-172.1 2.9zm386.1 316c0 4.9 3.3 8.8 7.3 8.8 4.1 0 7.4-3.9 7.4-8.8 0-4.9-3.3-8.9-7.4-8.9-4 0-7.3 4-7.3 8.9zm-12 235.2l-6.8-10.2 82.9-54.2 5.5-3.6 16.5-10.8 21.5-124.7 10.1 6.1-19.6 126.3-77 50.3zm-176.2-204.6l-8.3-4.6-2-1-1.2-0.7-5.1 18.6 34.4 19.5-7.2 10.8-30.7-17.4-3.8 14.2 33.9 19.2-7.2 10.8-30.3-17.1-4.5 16.8 35.7 24.1 0.2 0.1v0.1l49.8 33.6-30.9 32.8-9.2-9.1 20.2-21.5-33.1-22.4-11.6 48.3 0.4 0.4 2.1 2.1 1.9 2.1 1.9 2.3 1.7 2.3 1.7 2.5 1.6 2.5 1.5 2.7 1.3 2.8 1.2 2.8 1.1 3 0.8 2.3 42.4 10.3 0.7-0.9 3.4-4.3 3.5-4.1 3.6-4 3.7-3.9 3.8-3.9 3.8-3.7 3.9-3.7 4-3.6c12.4-10.7 25.3-20.2 39.1-29l4-2.5-0.8-0.9-2.5-2.5-2.4-2.4-2.5-2.5-2.6-2.4-2.5-2.4-2.6-2.3c-14.7-13.3-30.3-25.3-46.9-36.2l-3-1.9-3-1.9-3-1.9-3-1.8-3-1.8-3.1-1.7-6.7-3.8 0.6-8.2 0.2-3.6-0.1-3.5-0.3-3.3-0.4-3.1-0.5-2.9-0.8-2.9-0.8-2.6-1-2.6-1.1-2.4-1.3-2.4-1.4-2.2-1.4-2.1-1.7-2.1-1.7-2-1.8-1.9-2-1.9-2-1.8-2.1-1.8-2.3-1.7-2.3-1.7-2.4-1.6-2.4-1.6-2.6-1.5-2.6-1.5zm27.2 162.5l29.3-33 9.2 9.2-29 32.3zm438.5 17.4l4.2 0.1 4.5-0.2 4.5-0.5 4.8-0.7 4.9-0.9 5-1.2 5.2-1.4 5.4-1.6 5.5-1.9 5.6-2 5.8-2.3 5.9-2.5 11.8-5.1 5.8 11.6-12.5 5.5-6.1 2.5c-11.5 4.5-22.8 8.3-34.7 11.1-47.5 9.1-73.7-9.6-91.1-52.6l-2.4-6.6-1.1-3.4c-10.1-1.5-18.5-0.9-21.9 10.3l-0.4 1.9-0.3 2.1c-2.6 30.4 19.8 72.2 27 98.5 4.7 18.2 8.2 36.3 6.7 55.2l-0.5 4.2c-1.8 9.6-4.8 17.3-10.9 25l-2.7 2.8-3 2.6-3.2 2.3-1 0.5-1.8 7.5c-3.9 19.6-5.6 38.5 6.3 55.7l2.4 2.9c14.9 15.7 36.1 22.8 53.1 35.9l3.5 3.1 3.3 3.2 3.2 3.6 6.7 9.1-10.8 7.2-6.1-8.2-2.4-2.8-2.7-2.6-2.9-2.5-3.1-2.4-3.3-2.3-3.5-2.3c-11.5-6.9-23.4-12.9-34.3-20.8l-3.6-2.9-3.5-3.2-3.3-3.5-3.1-3.8-2.8-4.1c-11.3-20-10.1-40.2-5.8-62.1l0.7-2.7h-0.2l-0.7-0.1-0.7-0.1-0.7-0.2-0.7-0.1-0.7-0.1-0.7-0.1-0.7-0.1-0.7-0.1-0.6-0.2-0.7-0.1-0.6-0.1-0.6-0.1-0.6-0.2-0.5-0.1-0.6-0.2-9.2-0.8-1.8-12.8 13.3 0.9h0.4l0.3 0.1 0.4 0.1h0.4l0.5 0.1 0.6 0.1 0.6 0.1 0.6 0.1 0.7 0.1 0.7 0.1 0.7 0.1 0.8 0.1 0.8 0.1 0.7 0.1 0.8 0.2 0.8 0.1 0.7 0.1 0.7 0.1h0.7l0.7 0.1 0.6 0.1 0.6 0.1h0.3l1.4-0.8 2.2-1.6 2.1-1.8 1.8-1.9 1.6-2.1 1.5-2.2 1.3-2.5 1.1-2.6 1-2.9 0.8-3 0.6-3.3 0.5-3.5c1.2-17.2-2.1-33.9-6.4-50.5l-1.5-5.6c-7.5-25.6-38.9-85.6-20-114l1.9-2.2c4-3.7 7.7-5.6 13-7.1l3.1-0.5 3.3-0.3h3.5l3.6 0.4 3.8 0.5 7.5 1.7 3.2 10.3 2.2 6.1 2.4 5.7c11 23.9 24.7 39 51.1 41zm-128.9-59.1l1.8-14-26-16.7-3 15.3zm4.1-26.4l2.2-13.9-27-19.6-2.1 13.8zm4.3-28.2l2.4-15.7-26.9-19.5-2.4 15.5zm-0.1 85.9l-3.4 21.6-15.1 11c-21 17.7-42.4 38.8-37.3 67.5l1.9 5.3c5.9 10.7 12.9 16.6 24.2 21.2l5.3 1.3 5.2 0.7 5.2-0.2 4.9-0.8 4.6-1.7 4.3-2.4 3.9-3.3 3.5-4.2 2.9-5.2 2.2-6.4 1.5-7.8 0.5-9c-1.2-21.2-7.8-40.6-11.6-61.2l-0.8-5.3-0.7-5.2-0.6-5.2-0.4-5.2-0.2-5.1zm-69.5-194.2c9.2 8.7 19.2 16.1 29.7 23.1 17.3 11.6 34.4 23.6 52.1 34.6l2.6 1.5 1.8 1.1v-1.2l-0.3-2.3-0.3-2.2-0.4-2.1-0.6-2.1c-6.8-22.4-25.9-32-48.4-34.9l-0.9-0.1-0.8-0.1-0.9-0.2-0.9-0.2-1-0.2-4.2-14.3c8.4 2 18.4 1.7 26.3 4.6 3.4 1.3 6.6 2.7 9.9 4.2l2.3 1.3c10.2 5.6 2.1-4.4-0.8-10l-2-3.2-2.1-3-2.2-2.8c-2.1-2.2-4.3-4.3-7.1-6.5l-2.4-1.7-2.6-1.4-2.5-1.1-2.7-1-2.7-0.7-2.7-0.5-2.8-0.2-2.8-0.1-2.9 0.2-3 0.5-3 0.7-3 0.9-3.1 1.1-3.1 1.4-3.1 1.7-3.1 1.9-3.2 2.2-7.1 5.6-0.8 10.3zm-25.4 21.1l-7.1 86.4-10.5 0.3 7.2-87zm-106.4 74.6l-0.9 0.3 0.9 0.1 8.2 0.1c12-0.5 22.7-1.8 33.6-7.2l3.2-2.1 2.6-2.2 0.6-0.6-1.1 0.1-5.1 0.6c-11.3 1.8-22.3 4.8-33.2 8.2l-4.4 1.4zm-6.3-29.4l1.4-0.2 3.6-0.7 3.8-0.7 3.8-0.7c7.9-1.5 15.7-2.8 23.8-3.5l4.1-0.2 4.1 0.1 3 0.1-0.9-0.4-3.6-1-4.1-0.7c-9.8-0.7-18.2 0.8-27.6 3.5l-6.9 2.4zm37.9 7.2h-0.7l-3.6 0.3-3.7 0.4-3.6 0.5c-20.4 3.4-41.4 9.6-61.7 2.8l-3.8-1.7-0.2-0.1 1.7 3.2 1.7 2.6c9.9 11.6 26 5.6 38.4 1.8 7.7-2.3 15.3-4.7 22.9-6.9l5.1-1.3 5.2-1.2zm-186.3 67.8l-13.8-9.3-12.7 47.3 1.2 0.6 2.5 1.3 2.4 1.4 2.5 1.4 2.4 1.5 2.4 1.5 1.9 1.3zm50.6 72.5l27.6-31 9.2 9.2-27.6 31zm-98.8 70.4l-13.8 88.8 21.2 2.3 12.3-85.1zm92.5 48.5l36.9-30.1 9.2 9.2-36.9 30.1zm387.7-170.9l5.5 9.4 2 3.2 2.1 3.1 2.1 2.8 2.1 2.8 2.3 2.5c6.5 6.9 13.6 12.1 22.5 15.7l5.7 1.7 3 0.6 3 0.5 3.2 0.2 3.3 0.1h3.3l3.5-0.3 3.5-0.4 3.7-0.6 3.8-0.9 3.9-1 4-1.2 4.1-1.4 4.3-1.6 4.3-1.9 10.2-4.7 5.8 11.6-10.8 4.9-4.7 2.1-4.6 1.7-4.6 1.6-4.5 1.4-4.4 1.1-4.3 1-4.3 0.7-4.2 0.5-4.1 0.3-4 0.1-4-0.1-3.9-0.4-3.8-0.5c-20.3-4.2-34.4-15.6-46-31.5l-2.4-3.4-2.2-3.6-5.2-8.9zm37.1 367.4l-35.6-22.8 7.2-10.8 35.6 22.8zm-217.5 50.2l-9.6-40.6 12.3-3.1 7.9 31.9z"/>
</svg>