<svg version="1.2" xmlns="http://www.w3.org/2000/svg" viewBox="0 0 1029 1217" width="1029" height="1217">
	<title>60cc82b092f4d-cdr</title>
	<style>
		.s0 { fill: #bc9a50 } 
		.s1 { fill: #057624 } 
		.s2 { fill: #ffffff } 
		.s3 { fill: none;stroke: #000000;stroke-width: 11.8 } 
		.s4 { fill: none;stroke: #000000;stroke-width: 8.9 } 
		.s5 { fill: #026423 } 
		.s6 { fill: #b58b56 } 
		.s7 { fill: #bc9a50;stroke: #000000;stroke-width: 5.9 } 
	</style>
	<g id="Group 2">
		<path id="Object 3" class="s0" d="m519.5 1216.7c-287.3-10.6-556.1-68.6-515-1018.3l117.2-0.1v-197.9h772.9l-0.6 197.8h131.5c21.7 779-78.9 997.9-506 1018.5z"/>
		<path id="Object 4" class="s1" d="m186.4 71l88.4-0.2 2.7 84.6 87-0.4 1.5-84.4 89.5 0.3-0.6 84.9 93.5 0.4 0.7-84.6 95.2-0.8-0.8 82.7 92-0.8-2.4-82.2 97.2 0.5c8.1 595.3 90.8 975.6-320.1 950.2-431.6 4.7-303-381-323.8-950.2z"/>
		<g id="Group 5">
			<path id="Object 6" fill-rule="evenodd" class="s2" d="m440.2 807.5c-79.5 17.7-228.2-72.5-201.2-206.6 45.6 21-31.8 24.5 149 29 105.4 2.7 90.6 20.1 121.5 59.6 32.9-36 6.7-55.7 120-63.2l124.9-9.9c12.8-6.3 9.7-15.7 27.1-21.7 17.6 86.9-34.5 150.7-88.7 184.7-137.4 86.3-172.5-30.1-183.3-41.5-18.2 37.5-23.2 59.4-69.3 69.6zm135-164.3c-45.7 14-70.2 78.2-32.7 126 61.6 78.7 220.1-69.9 214.5-139.4-45.7 5.5-144.8 2.2-181.8 13.4zm-98.9 130.1c37.7-43 12.6-114.4-30.2-127.6-31.3-9.6-142.7-5.5-184.9-8-0.8 64.2 149.2 211.1 215.1 135.6z"/>
			<path id="Object 7" class="s2" d="m420.3 607.2c0-50.7 42.5-90.5 93.8-89.9 49.3 0.6 91.1 37.9 92.2 87.2z"/>
			<path id="Object 8" class="s2" d="m498.1 387.8c12.2 26.4 6.6 82.5 6.2 114.8l-41.2 10.8c-15.7-22.1-58-81.5-54.5-107.5 19.4-12.9 62.7-24.9 89.5-18.1z"/>
			<path id="Object 9" class="s2" d="m283.5 595.3c-5.4-22.9 8.8-60.1 20.1-78.2 29.5-3.9 85.2 38.3 110 48.8-7.4 42.6-1.5 43-44.1 43.3-24.3 0.2-62.2 5.8-80.6-2.8-3.8-5-3.2-1.7-5.4-11.1z"/>
			<path id="Object 10" class="s2" d="m597 397.3c30.9 13.9 9.6 35.4-2.3 55-9.5 15.5-23.5 42.4-33.1 61.5l-41.7-11.2-1-23.4c-0.2-71.1-23.4-127.6 78.1-81.9z"/>
			<path id="Object 11" class="s2" d="m614.4 563.6c15.1-11.7 86.5-55.5 105.6-56.3 14.3 14 35.6 71.8 18.3 88.6-16 11.7-91 8.4-117 7.3z"/>
			<path id="Object 12" class="s2" d="m576.1 521.3c8-21.9 48.4-89.4 59.7-100.8 25 1.1 76.3 51.3 61.8 72.9-5.5 8.2-82.9 51.7-94.5 56-8.8-9.7-18.7-20.8-27-28.1z"/>
			<path id="Object 13" class="s2" d="m448 526c-10.4 10.7-18.6 16.8-27.4 26.3-3.8-1.6-89.6-47.7-93-51.2-24.3-24.2 38.9-71.9 60.3-73.1 15.9 9.6 57.4 86.4 60.1 98z"/>
			<path id="Object 14" class="s2" d="m649.2 731.4c-90.1 68-109.4-42.1-55.2-55.6 21-5.2 75.7-4.8 99.7-4.5-6.5 25.2-28.7 48.1-44.5 60.1z"/>
			<path id="Object 15" class="s2" d="m445.1 746.9c-37.2 38.3-110.3-41.2-119.1-70.8 21-0.1 85.9-2 102.3 2.5 22.4 6.1 39.5 44.9 16.8 68.3z"/>
			<path id="Object 16" fill-rule="evenodd" class="s2" d="m466.1 763.2c-50.1 63.5-180-61-187-110.6 46.2 2.3 118.8-4.5 159.5 5 40.2 9.3 58.1 66.8 27.5 105.6zm-28.7-94.8c-24.3-8.6-98.6-6-128.3-5.9-2.7 47.2 99.2 140 144.8 93.2 27.7-28.4 13.1-76.7-16.5-87.3z"/>
			<path id="Object 17" fill-rule="evenodd" class="s2" d="m711.4 657.9c-4 39.4-33.4 65.4-54 81.6-108.1 85.5-136.9-57.8-71.1-75.4 24.6-6.6 97.6-7.3 125.1-6.2zm29.4-11.6c-39.3 1.9-130.8-0.3-163 9.8-36.2 11.4-56.4 71.8-23.9 106.1 56.9 60.1 174.8-63.4 186.9-115.9z"/>
		</g>
		<path id="Object 19" class="s2" d="m118.4 821.7c-0.6-39.6 19.8-61.4 45.6-82.4 12.9 67.5 0.8 113.5-41.2 133.9-41.2-10.1-66.1-47.3-72.1-116.2q57.4 20.6 67.7 64.7z"/>
		<path id="Object 20" class="s2" d="m103.5 701.8c-0.6-39.6 19.8-61.3 45.6-82.3 12.9 67.4 0.8 113.5-41.2 133.8-41.2-10.1-75.1-47.6-70.8-115.7 38.2 13.7 59.5 34.8 66.4 64.2z"/>
		<path id="Object 21" class="s2" d="m166.3 936.1c-11.2-38 2.6-64.4 21.7-91.6 30.6 61.4 31.4 109-3.5 140-42.4 1.4-76.5-27.7-100.8-92.4q60.8 4.3 82.6 44z"/>
		<path id="Object 22" class="s2" d="m258.2 1034.7c-30.1-31.4-30-64.2-25-100.3 66.9 53.5 71.3 90.7 67.1 138.3-43.7 11.2-88.6 11.6-144.9-39.4q61.5-26.4 102.8 1.4z"/>
		<path id="Object 23" class="s3" d="m46.2 645.5l-5.4-401.8"/>
		<path id="Object 24" class="s3" d="m93.4 614.5l-4.3-370.8"/>
		<path id="Object 25" class="s3" d="m131.6 614.5l-4.3-370.8"/>
		<path id="Object 26" class="s4" d="m353 1061.4c118.6 38.9 227.1 41.6 329-2.7"/>
		<path id="Object 27" class="s4" d="m353 1097.4c118.6 38.9 227.1 41.6 329-2.7"/>
		<path id="Object 28" class="s4" d="m307.8 1119.2c117 46.7 305 69.7 424.1-7.4"/>
		<path id="Object 29" class="s5" d="m420.2 993.6l193-2.5c2.6 41-34.3 40.4-73.2 72.6l-11.3 137-22.7 0.5c-7.5-11.7-5.8-13.3-7.3-30.5l-7-106.7-75.1-39.9z"/>
		<path id="Object 30" class="s6" d="m550 893.8l-51.8 60.6c-67.2 56-219.9-42.7-71.5-76.6 54.2-12.4 90-2.6 143.8-2.7-5.5 7.1-12.4 10.4-20.5 18.7z"/>
		<path id="Object 31" class="s6" d="m564.1 904.2c22-5.7 102.6-3.9 127.2-0.8-20.3 8.3-67.9 28.7-85.6 41.5-32.5 23.5-50 31-102.8 25.1 1.2-3.4 47.9-62.4 61.2-65.8z"/>
		<path id="Object 32" class="s3" d="m489.4 1063l-85.9-49.9-0.7-18.7 223.6-2.1 0.2 20-87.8 49.2-8.2 137.2h-30.7z"/>
		<path id="Object 33" class="s7" d="m307.3 885.8c-10.3-56 146.4-48.2 219.8-43.2-82.7 42.1-186.8 145.6-219.8 43.2z"/>
		<path id="Object 34" class="s7" d="m470.4 925.8c-12.5-67.8 178-29.4 258.8-28.8-111.6 32.3-218.9 152.8-258.8 28.8z"/>
		<path id="Object 35" class="s7" d="m355.8 925.8c-12.5-67.8 158.2-49.9 243.2-60.8-77.3 86.9-203.4 184.8-243.2 60.8z"/>
		<path id="Object 36" fill-rule="evenodd" class="s2" d="m308.5 290.5h-16.9l-34.2-48.2-15 14.7v33.5h-12.8v-96.5h12.8v47.8l47.1-47.8h17.2l-40.4 39.6zm90.3 0h-14.4l-11.2-29.4h-40.4l-10.7 29.4h-13.5l37.1-96.5h13.7zm-29.3-39.5l-17-44.8-16.2 44.8zm130.7 39.5h-12.1v-82.1l-27.5 82.1h-11.5l-27.5-82.1v82.1h-12.1v-96.5h19.2l26.1 80.4 26.3-80.4h19.1zm93.6 0h-72v-96.6h69.7v11.5h-56.9v29.5h53.3v11.5h-53.3v32.6h59.2zm93.7 0h-12.8v-45.4h-50.2v45.4h-12.7v-96.5h12.7v39.6h50.2v-39.6h12.8zm63.4-98.2c13.5 0 24.6 4.6 33.2 13.7q12.9 13.7 12.9 36.2c0 15-4.3 27.1-12.9 36.2-8.6 9.2-19.7 13.7-33.2 13.7q-20.3 0-33.3-13.7-12.9-13.7-13-36.2 0.1-22.5 13-36.2 13-13.7 33.3-13.7zm-0.1 88.9q14.5 0 23.7-10.3 9.3-10.2 9.3-28.7 0-18.4-9.2-28.7-9.2-10.2-23.5-10.2-14.6 0-23.9 10.2-9.3 10.3-9.3 28.7c0 12.3 3.1 21.8 9.3 28.7q9.3 10.3 23.6 10.3z"/>
		<g id="Group 37">
			<path id="Object 38" class="s2" d="m976.3 757c-6 68.9-30.9 106.1-72.1 116.2-42-20.4-54.1-66.4-41.2-133.9 25.8 21 46.2 42.8 45.6 82.4q10.3-44.1 67.7-64.7z"/>
			<path id="Object 39" class="s2" d="m989.9 637.6c4.3 68.1-29.6 105.6-70.8 115.7-42-20.3-54.1-66.4-41.2-133.8 25.8 21 46.2 42.7 45.6 82.3 6.9-29.4 28.2-50.5 66.4-64.2z"/>
			<path id="Object 40" class="s2" d="m943.3 892.1c-24.3 64.7-58.4 93.8-100.8 92.4-34.9-31-34.1-78.6-3.5-140 19.1 27.2 32.9 53.6 21.6 91.6q21.9-39.7 82.7-44z"/>
			<path id="Object 41" class="s2" d="m871.6 1033.3c-56.3 51-101.2 50.6-144.9 39.4-4.2-47.6 0.2-84.8 67.1-138.3 5 36.1 5.1 68.9-25 100.3q41.3-27.8 102.8-1.4z"/>
			<path id="Object 42" class="s3" d="m980.8 645.5l5.4-401.8"/>
			<path id="Object 43" class="s3" d="m933.6 614.5l4.3-370.8"/>
			<path id="Object 44" class="s3" d="m895.4 614.5l4.3-370.8"/>
		</g>
	</g>
</svg>