<svg version="1.2" xmlns="http://www.w3.org/2000/svg" viewBox="0 0 567 674" width="567" height="674">
	<title>Nova-Zagora-pdf</title>
	<style>
		.s0 { fill: #029426 } 
		.s1 { fill: #ddcd31 } 
	</style>
	<path id="Path 1" class="s0" d="m0 0.8h123.5v44h102.2v-44h115.5v44h102.3v-44h123.4v389.7c0 156.3-127.1 283.5-283.4 283.5-75.8 0-146.9-29.5-200.5-83-53.5-53.6-83-124.7-83-200.5z"/>
	<path id="Path 2" class="s1" d="m553.7 89.8h-540.4v-75.7c44.7 0 90.7 0 96.9 0 0 9.6 0 44 0 44h128.8c0 0 0-34.4 0-44 10.8 0 78.1 0 88.9 0 0 9.6 0 44 0 44h128.8c0 0 0-34.4 0-44 6.2 0 52.2 0 97 0zm0 13.3c0 15 0 121.3 0 200.3l-22.8 38.2c-24.2-99.1-110.3-175.1-216.5-187.6-18-1.5-33.4-7.8-43.8-17.4q0 0 0 0-2.9-2.7-5.2-5.7-0.2-0.3-0.4-0.5-0.6-0.8-1.2-1.6-0.3-0.5-0.6-1c-1.8-2.7-3.3-5.7-4.4-8.8-106 0-206.5 0-229.6 0 0 28.7 0 121.5 0 190.6 34.7-93.4 122.4-162.2 228-172.1l10.7 15.2c-110.1 6.5-201.3 80.8-229.6 180.3l-25 25.9c0-70.7 0-236.8 0-255.8 24.7 0 515.6 0 540.4 0z"/>
	<path id="Path 3" fill-rule="evenodd" class="s1" d="m533.8 355l19.9-22.5c0 34.1 0 58 0 58q-0.1 2.1-0.1 4.1 0 1.9 0.1 3.9h-0.2c-4.2 145.3-123.7 262.2-270 262.2-72.2 0-140.1-28.1-191.1-79.1-49.1-49.2-77-113.9-79-183.1h-0.1q0-1.9 0-3.8 0-2.1 0-4.2c0 0 0-5.8 0-15.8l19.1-15.1c-1.9 11.3-2.9 22.8-3.1 34.5 0.6 46.9 13.9 91.8 38.2 130.7h431.8c23.7-38.1 37.7-82.8 38.4-130.7-0.3-13.3-1.6-26.4-3.9-39.1zm-385.9 250.8h270.8c9.8-6.3 19.2-13.1 28.1-20.6h-326.9c8.9 7.5 18.3 14.4 28 20.6zm135.6 39c34.2 0 66.8-6.8 96.6-19.1h-193.7c30.4 12.5 63.2 19.1 97.1 19.1zm202-100.1h-404.3q8.2 10.7 17.6 20.6h369.2q9.3-9.8 17.5-20.6z"/>
	<path id="Path 4" fill-rule="evenodd" class="s1" d="m405.2 420.3c9.2-39.5 4.9-60.9-9.5-68.6 0 0 7 15.3 7 25.3 0 60.2-25.6 59.3-25.6 82.9 0 22.6 38 37.2 38 50.1h-9.7l-7.1-8.2c-1.3-0.8-2.6-0.9-4 0l-1.5 7.3-7.8 0.2-1.7-8.6c-1.5-0.6-3-1.2-5.3 0v10.6l-11.3-1.6-0.5-24.5c0 0-17-22.4-17-31.9 0-9.1 6.6-15.7 6.6-28.3 0-8.2-4-23-4-35.4 0-34.5 31.5-35.2 31.5-39 0-2-1.1-3.5-3.6-3.5-37.6 0-34.9 38.7-34.9 48.7 0 15.5 3.9 29.4 3.9 29.4-19.6 0.8-38.7 0.7-61.7-4.9-26.6-7.6-52-16.5-76.6-26.3 0 0 0.9-6 0.9-17.7 0-23.5-13.9-41.4-34.7-41.4-38.1 0-29.7 43.8-35.9 74.1 6.6-5.2 9.3-11.9 9.3-25.6 0-7.3-1.7-20.4-1.7-20.4l3.3-4.8c0 0 2.2 15.2 2.2 19 0 7.9 2 12.8 5.7 12.8 3.8 0 6.9-2.6 6.9-4.9 0-5.5-9.7-15.4-9.7-15.4-0.2-5.1 0.1-10.2 1.3-15.3l-3.5-3.6c0 0 4.9-11.5 17.4-11.5 14.4 0 34.6 11.8 34.6 28.1 0 51.6-59.2 65.4-69.1 71.3-8.1 4.9-26.8 25.9-26.8 33.6 0 7.8 18.6 30.4 18.6 36.1l-11.7 0.4-4.6-11.2c-1.3-0.5-2.6-0.7-3.8 0v10.8h-8.6l-4-10c-1.1-0.6-2.2-0.8-3.3 0l-1.1 8.7h-9.6c-0.2-14.2 4.3-26.5 10.9-37.9v-40.9c10.5-5.1 19.4-17 24.7-31.1 5.8-15.7 5.6-33.6 15.6-35.1 1.5 31-7.2 50.8-21.1 64.6 18.3-1.7 74.2-14.1 74.2-58.8 0-4.4-4.7-13.1-8.2-13.1-6.2 0-4.9 10.2-4.9 10.2 0 0-6.4-1.1-6.4-6.4 0-2.2 2.9-9.7 9.7-9.7 9.3 0 16.4 7.9 16.4 21 0 34.6-48 56.4-48 56.4 0 0 54-11.7 54-56.9 0-12.8-8.4-23.4-21.5-23.4-13.3 0-17.2 9.5-17.2 13.3 0 7 2.8 13.5 8.8 13.5 3.1 0 8.4-4 8.4-4 0 0 1.9 0.4 1.9 1.9 0 6-7.3 7.3-7.3 7.3 0 0 1.7 2.3 1.7 7.6 0 6.6-4.5 13-9.3 13-2.7 0-9.1-2.2-9.1-2.2-3.5 17.5-14.2 22.2-28.8 25 17.8-24.2 0.1-72.4 35.4-92.2-2.9-2.1-5.4-2.8-7.7-2.9 0 0-31.2 50.9-61.8 50.9-11.5 0-38.2-8.9-38.2-45.2 0-46 51.3-51.1 98.2-51.1 27.9 0 42.5-10.6 42.5-22.8 0-13.9-9.1-19.9-10.6-19.9-6.9 0-10.9 19.7-38.1 19.7-15 0-40.5-6.4-40.5-6.4 0 0 19.5-35.9 51.1-35.9 27.9 0 50.9 20.6 50.9 42.5 0 30.8-41.4 38.5-72.1 38.5-25.9 0-59.5 5.1-59.5 29.7 0 13.3 10.1 29 21.6 29 11.3 0 29.5-16.6 39.2-30.1 9.8-13.5 55.3-16.4 76.6-16.4 38 0 64.2 9.1 64.2 9.1 1.8-2.6 1.5-5.2 0-7.8 4.1 0.2 9.3 4.2 12.8 8 0.5-4.1-0.1-8.1-1.1-12.2 5.4 1.5 9.4 4.3 12.4 8.2 0.3-3.1-0.1-6.2-1.4-9.3 4.8 0.8 8.1 3 9.8 6.9l2.4-2c0 0 22.8 1.3 31.9-1.8 9.1-3.1 19.2-6.2 19.2-25.2 0-23.2-23.9-27.7-23.9-27.7 5.4-25.6 0.9-33.2-6.8-34.7 0 0 1.7 6.9 1.7 9.1 0 11.7-2.4 17.9-4.4 20.3-2 2.5-15.9 14.4-15.9 14.4 0 0-16.4 17.9-22.4 17.9-6.8 0-11.7-7.3-11.7-9 0-9.6 15.1-20.6 15.1-20.6 0 0 2.4-2.9 2.4-5.8 0-7.1-5.1-10.6-8.2-10.6-8.4 0-13.9 11.7-16 16-2.1 4.4-13.9 20.7-33.1 20.7-2.2 0-7.1-0.6-7.1-4.8 0-25 18.6-61.5 32.1-64.4 0-12.4 3.1-26.8 3.1-26.8 9.5 4.1 16.5 10.7 20.3 20.4 0 0 8.9-1.6 31.7-1.6 63 0 151.1 40.3 151.1 127 0 78.6-67 97.8-67 97.8zm-117.5-204.9c0 0-23.9 0.9-29 2.2-3.3 0.9-6.2 5.8-6.2 11.1 0 5.3 4 10.4 10.6 10.4 12 0 24.6-23.7 24.6-23.7zm-41.4-23.7c5.2 2.2 9.2 4.5 12.2 10l-12.5 10.5c0 0-2.1-5.8-2.1-11.6 0-5.8 2.4-8.9 2.4-8.9zm17.9 85c0-3.5 15.1-18.6 16.6-18.6 0 0 1.3 1.1 1.3 3.8 0 2.6-6.4 4.9-6.4 10.2 0 4 6.3 13.2 6.3 18 0 3-3 5.4-5.4 5.4-6.6 0-12.4-16.3-12.4-18.8zm187.4 193.6c22.7 11.2 38.2 24 48.9 37.8h-9.8c-2.1-4.5-5.9-7.5-10.1-10.1l-0.4 8-4.3 0.5c-3.1-2.3-6-4.8-8.1-8.1l-4.4 8.9-9.1-0.2c-5.2-18.3-17.6-32-38.3-38.7-1.1-12.5-4.4-25-11.9-37.7 16.8-8.9 29.4-23.4 44.4-28.1-6 22.9-2.4 45.3 3.1 67.7zm-240.1-69c11.6 1.1 23.9 6 25.9 11.7-8 12.4-19 19.3-28.8 26 0 0-26 32.2-26 38.4 0 12.9 20.5 25.7 20.5 28.1 0 1.4-0.6 2.7-0.6 2.7h-9.1l-4.4-8.2c-1.3-1-2.5-1.2-3.8 0.2l0.5 10-9.6 0.2-4.4-10.8c-1.4-1.3-2.8-1.4-4.2 0v11.5h-12.4v-18.6l10.6-27.2-2.6-26.8c12.5-8.9 24.2-18.6 34.7-29.5q6.8-6 13.7-7.7zm55.1-172.8c0 2.4-1.6 4.4-3.7 4.4-2.1 0-3.8-2-3.8-4.4 0-2.5 1.7-4.4 3.8-4.4 2.1 0 3.7 1.9 3.7 4.4zm12-23.5c0 0 4.9 0 4.9-6.6 0-5.1-10.9-10.9-10.9-10.9-1.5 8-1.4 15.2 6 17.5zm-30.1 55.7c-1-0.7-2.9 0.1-4.2 1.9-1.3 1.7-1.6 3.7-0.6 4.5 0.9 0.7 2.8-0.1 4.1-1.9 1.4-1.7 1.6-3.8 0.7-4.5zm22.8-37.1c0 0 1.5-4.7 4.8-4.7 3.2 0 2.9 2.3 2.9 2.3-2.5 2-5.1 2.4-7.7 2.4zm-146.7 14.2c13.8-4.9 26.1-8.2 36.5-9.8 0 0-1.1-6.2-6.2-6.2-16.6 0-30.3 16-30.3 16zm-1.8 7.9c14.4 0 28.8-6.4 43.2-6.4 0.9-2.7 0.6-5-1.4-6.4-21.3 1.9-37.4 7.1-41.8 12.8zm45.8 1.1c0-3.1-3.3-3.3-3.3-3.3-7.6 3.9-19 5.3-32.3 5.3 0 0 1.3 3.6 16.1 3.6 8 0 19.5-2.5 19.5-5.6zm141.1 167c-6-6.4-8.3-16.3-5.9-30.6 0 0-8.2 2.4-8.2 16.1 0 7.5 4.7 17.5 11.1 17.5 1.8 0 3-3 3-3zm17.8 3.7c-10.4-12.3-10.7-26.7-3.3-42.8 0 0-12.6 4.7-12.6 25.7 0 21.7 15.9 17.1 15.9 17.1zm13.5 0c-2.7-14.9-3.7-29.9-3.1-44.7 0 0-9.5 13-9.5 26.5 0 21.3 12.6 18.2 12.6 18.2zm121-103.2h5.1c0.5-12.8-0.6-15.6-4.8-16.6q0.2 8.3-0.3 16.6zm-4.5 18.7c2.6 0 3.7-1 3.7-3.6 0-6.9-22.8-43.8-69.3-43.8-17.9 0-19.9 7.3-19.9 10.6 0 1.5 15.5-2.4 22.3-2.4 32.8 0 60.7 39.2 63.2 39.2zm-18.3-58.3c1.3 7 1.7 13.9 0.9 20.8l4.9 2.2c1.6-14.8-0.2-20.3-5.8-23zm-14.8-11.3c2.3 7.8 4 15.5 3.8 23.3l6.2 1.7c0.2-16-3-20.5-10-25zm-15.9-4.2c4 7.9 6.8 15.8 8.4 23.7h6.2c-2.7-15.6-7-20.2-14.6-23.7zm-17.5-6.8c2.5 8.4 5.7 16.8 12.4 25.4h5.5c-4.1-13.4-8.8-19.9-17.9-25.4zm-16.4 0c5.3 8.2 9.8 16.5 12.6 25h8.2c-3.5-11.7-9.3-19.8-20.8-25zm-2.4 25.6l7.3-0.6c-5.8-18.3-11.4-22.7-21.5-25 6.3 8.5 11.2 17.1 14.2 25.6zm79.2 23.7l5.1 5.6c1.3-12.9 0.4-18.4-4.2-20.8-1.5 5-1.6 10.1-0.9 15.2z"/>
</svg>