<svg version="1.2" xmlns="http://www.w3.org/2000/svg" viewBox="0 0 2771 3332" width="2771" height="3332">
	<title>Batak-cdr</title>
	<style>
		.s0 { fill: #004b20 } 
	</style>
	<path id="Object 3" fill-rule="evenodd" class="s0" d="m391.7 112.5c46.7-42.1 91-109.4 159.3-109.9h1c542.8 0.9 1148.9-4.2 1713.3-0.5 75 56.4 152.4 155.1 197.9 237.7 36.8 62.3 47.5 135.2 62.8 205.1 37.4-45.5 84.1-83.4 142-98.4 9.6 61.1 19.4 122.5 16.5 184.5-4.8 47.3-19.9 92.6-33.7 137.7 23.9 0.5 47.9 1 72 1.5 19 81.6 13 166.2-14.3 245.5 0.4 14.3 37.7 14.8 33.1 33.9 1.4 129.5-21 257.5-53.9 382.3 23.6-9.3 47.1-18.5 70.8-27.5-2.7 117.1-34.1 231.4-81.6 337.9 23.9-2.9 47.8-6.2 71.8-9.1-31.3 91.9-59.4 185-94.4 275.6 38.8-11.2 77.6-22.5 116.8-32.6-10.9 153.3-82.1 293.4-178 410.8 49.2-9.6 98.4-19.1 147.9-26.8-36.9 120.2-91.5 234.4-168.1 334.5 28 1.2 56.8 3 85 4.4-36.4 79.4-80.2 159.8-151.7 212.8-50.7 42.8-113 67.8-173.7 92.6 27.9 27.9 56.9 54.9 83.8 84-157.9 102.7-351.2 159.2-539.1 119.2 34.8 34.8 69.6 69.8 104.7 104.2-46.2 39.7-93 79-139 119.2-119.8-117.3-276.9-192.4-441.5-220.4-175.5 4.6-344.9 85.2-471.8 204.8-46.9-36.5-92.4-74.6-138.6-112 32.4-35.9 65.8-70.9 98.9-106.1-73.9 4.5-148.2 10.2-222.1 3.9-113.4-17.6-219.4-68.5-315.6-129.8 29.1-26.8 58.3-53.7 88.9-79-61.1-25.8-123.2-51.6-175.5-93.6-69.2-53.6-116.6-129.4-154.5-207.2 29.5-4.2 59-8.5 88.5-12.8-75.9-98.7-136.3-211.1-166.1-332.5 47.3 8.6 94.6 17.4 142.1 24.9-97.1-115.9-159.1-258.2-175.2-408.8 39.3 10.4 78.5 21.2 116.9 35-30-90.6-64-179.9-92.1-271.3 23.7-0.5 47.3-1 70.9-1.4-49.9-102.5-74.1-215.6-83-328.8 22.6 6.4 45.3 12.9 67.8 19.5-30.2-133.5-49-269.4-53.7-406.2 15.2 2.4 30.3 4.9 45.4 7.6-13.5-41.5-28.3-82.8-37-125.6-5.7-47.3 6.8-94.1 17.3-139.9 23.3 3.5 46.7 7.3 70 10.6-35.9-103.2-43.5-215.6-22.5-322.9 58.6 8.6 106.3 47.4 146.1 89.1 16.6-116.8 58.6-232.7 145.2-315.7zm161.6-10.5c0 100.4 0 200.7 0 301.1 560.3 1.9 1120.6-3.7 1680.8 3-191.8 98.1-406.2 157.5-622.5 152-192-3-384.5 20.7-576.1-0.1-170.7-15-334.6-70.7-487.9-145.7-8.6 302.5 3.3 605.3-6.8 907.8 566.5-94.4 1145.4-73.2 1713.9-8.3-4.5 18.6-9.1 37.2-13.7 55.8-104.4-8.1-209.2-10.4-313.8-8 70.8 18.2 141.6 36.1 211.9 55.9-64.7 18-130.5 31.6-195.3 49 93.8 11.6 188.3 17.6 281.5 33.5-93 23.7-187.4 41.2-280.8 63.4 90.4 11.1 181.5 15.4 272.1 24.7-74.1 19.1-148.7 35.7-222.4 55.9 47.6 15.9 96.6 26.8 145.1 39.7-46.2 19.8-94 35.4-141.1 52.8 79.4 4.1 158.8 9.6 238.3 14.6 1.3 13.4 2.5 26.8 3.9 40.3-564.2 82.4-1140.4 72-1704-10.1 1.3 152.2-2.1 304.4-4.7 456.6-2 55.8 10.5 111.3 30.1 163.4 53.3 112.8 153.3 194.8 257.5 259 142.1 84.6 304.6 139.2 470.9 142 135.5-4.2 274.7 0.1 405-43.4 190.4-61.4 384.7-153 507.5-317.1 59.2-73.9 77.8-171.6 71.3-264.2-17.3-312.4-3.1-625.4-10.4-938.1-17.7-381.2-0.4-762.8 2.2-1144.2zm370.2 1854.8c80.3 10.7 141.7-63.7 223.3-48.7 60.7-10 105.2 41.1 163.9 41.5 105 7 215 11.7 314.6-28.3 63.9-13.1 156.6-37.7 203.9 23.2 67.9 4.8 135.8 7 203.9 9 18 25.7 43.7 47.4 54.8 77.1 5 81.5-9.6 164.6 8.9 245.1 12 53.4 28.2 105.9 48.3 156.7-238.1 69.6-480.4 146.4-731.5 139.4-149.6-3-299.4-12.8-447.3-35.4-128-18-247.2-71.6-364.5-123.3 17.5-57.9 41.4-113.5 59.1-171.4 23.3-80.6 33.1-164.1 40.8-247.4 65.8-44.9 146-40.9 221.8-37.5zm130.2-13.9c-3.3 110.3-11.2 220.5-23.2 330.2-32.5-89.3-67.3-183-41.2-279.1-65.8 4.3-131.5 9.1-197.3 13.7-19.4 135.7-116 244.5-129.1 382.2 157.2 0.9 314.4 3.3 471.6-4 310.6-12.4 621.9 7.1 932.3-12.5-52.5-115.8-70.8-243.4-70.5-369.9-58.8-0.1-117.5 0-176.2 0.2-6.7 76.6-9.8 154.4-27.3 229.7-25.5-87.4-23-179.5-31.1-269.4-46.9 3.7-94.2 4.8-141.2 6.5-0.1 98.8-0.5 197.8-6.1 296.6-20.7-40.7-42.3-82-50.9-127.3-5.6-47.8-4.1-96.1-6.1-144-104.7-4.2-209.4-10.8-314.3-10.4-5.2 88.7-8.7 178.3-30.2 264.9-22-95.8 11-192.5 13.6-288.7-57.6-6.3-115.3-12.6-172.8-18.7zm600.8 370.3c11.5 0 22.9 0 34.5 0 0 12.9 0 38.7 0 51.6-11.6 0-23 0-34.5 0 0-12.9 0-38.7 0-51.6zm-494.8 3.3c21.7-1.3 43.7-2.5 65.6-3.6-1.6 10.7-3.3 21.4-4.9 32.2-22.1-1.3-43.9-2.1-65.8-3.4 1.2-6.3 3.8-18.9 5.1-25.2zm-210.4-13.9c22.9 1.9 46.7 5.2 69.8 8-1.4 6.2-4.1 18.6-5.4 24.9q-32.3 2-64.6 4.2c0-12.4 0.1-24.8 0.2-37.1zm363.9-2.8c22.9-1.2 68.9-3.5 91.7-4.6q0 17.9 0 35.9c-22.8-1.1-68.8-3.4-91.7-4.6-0.1-9-0.1-17.8 0-26.7zm-239.2-1.6c21.7 0.9 43.6 2.2 65.4 3.6-1.4 6.5-4.2 19.7-5.6 26.3-21.9-1.4-43.6-2.1-65.3-3.6 1.3-6.5 4.1-19.7 5.5-26.3zm-333 38.5c-7.9-58.7 62.6-58.7 54.7 0q-27.3 0.2-54.7 0zm1231.9-58c11.4 0 22.9 0 34.4 0 0 15.1 0 45.2 0 60.3-11.5 0-23 0-34.4 0 0-15.1 0-45.2 0-60.3zm-202.1 3c20.1-0.3 40.2-0.5 60.5-0.5 1.7 11.1 3.3 22.2 4.9 33.3-24.3-3.1-47.2-4.2-71.1-7.2 1.5-6.4 4.3-19.2 5.7-25.6zm-255.3 22.5c24.9-12.6 49.2-26 74-38.7 15.1 27.8 15 58.8 0 86.7-24.8-12.7-49.1-26.2-74-38.7zm44.8-9.7c0 7.1 0 21.6 0 28.7 10.2-2.1 20.3-4 30.6-6.1 0-4.1 0-12.4 0-16.5-10.3-2.2-20.4-4.1-30.6-6.1zm103.6-23.4c11.3-3.6 22.6-7.3 34-10.8 3.4 11.6 6.9 23.2 10.2 34.9-15.1 0.3-30.2 0.6-45.2 0.8 0.2-6.2 0.8-18.7 1-24.9zm-845.2-9.8q32.9 1.3 65.8 2.8c1.3 6 3.7 18 4.9 23.9-21.7 1.8-43.6 3.3-65.3 5.2-1.8-10.7-3.6-21.4-5.4-31.9zm1076.7-8.4c15.1 0 45.2 0 60.3 0 0 6.5 0 19.4 0 25.8-15.1 0-45.2 0-60.3 0 0-6.4 0-19.3 0-25.8zm-580.7 3.9c21.3-1.6 42.8-3.1 64.3-4.5 0.1 6.6 0.2 20 0.3 26.7-23.3-0.3-46.6-0.5-69.9-0.7 1.3-5.4 3.9-16.2 5.3-21.5zm140-30.9c6 1.3 18 4 24.2 5.4 1 14 3.1 41.9 4.1 55.9-12.1-0.1-24.3-0.1-36.4-0.2 2.5-20.4 5.2-40.8 8.1-61.1zm-373.2 5.5c21.6-1.7 43.5-3.4 65.3-5.1 0 7 0 20.9 0 27.7-21.8-1.3-43.5-2.8-65.2-4.3-0.1-4.5-0.1-13.7-0.1-18.3zm186.3-22.5c5.4 1.3 16.2 3.9 21.5 5.3 1.5 21.3 2.9 42.8 4.5 64.3-6.6 0.1-20 0.2-26.7 0.3 0.2-23.3 0.4-46.6 0.7-69.9zm-499.4 1c22.9 0 45.8 0 68.8 0 0 6.5 0 19.4 0 25.8-23 0-45.9 0-68.8 0 0-6.4 0-19.3 0-25.8zm569.4-14.5c24.1 5.8 48.9 12.3 72.7 20.3-24.9 4.6-49.8 9.3-74.6 13.8 0.4-8.5 1.3-25.6 1.9-34.1zm566.2-2.7c22.9 0 45.9 0 68.9 0 0 6.4 0 19.4 0 25.8-23 0-46 0-68.9 0 0-6.4 0-19.4 0-25.8zm-973.7 49.4c-7.9-58.8 62.6-58.8 54.7 0q-27.4 0.1-54.7 0zm922.1-58c4.3 0 12.9 0 17.2 0q0 25.8 0 51.6c-4.3 0-12.9 0-17.2 0q0-25.8 0-51.6zm-392.4 4c22.8-1.2 68.4-3.7 91.2-5 0 7 0 20.8 0 27.8-22.8-1.3-68.4-3.8-91.2-5 0-4.5 0-13.3 0-17.8zm-579.5-5.2c10.6 1.7 21.3 3.5 32 5.3 0.1 14.4 0.1 28.8 0 43.3-10.7 1.9-21.3 3.8-31.9 5.7 0-13.5-0.1-40.7-0.1-54.3zm378.3-7.4c22.9 0 45.8 0 68.8 0 0 6.4 0 19.3 0 25.8-23 0-45.9 0-68.8 0 0-6.5 0-19.4 0-25.8zm163.7-18.3c5.6 1.4 16.6 4.2 22.2 5.6 0.3 19.8 0.5 39.7 0.8 59.7-5.7 1.4-17.1 4.5-22.7 6-0.2-23.8-0.3-47.6-0.3-71.3zm-336.8-0.3c23.2 1.6 47.5 4.7 71.1 7.2-1.4 6.4-4.3 19.2-5.7 25.6-20.2 0.2-40.3 0.3-60.4 0.5-1.8-11.1-3.4-22.2-5-33.3zm565 1.3c17.8 2.3 35.8 1.9 53.6-0.4-1.6 21.6 1.8 43 6.2 64.2-20.3 1.6-40.5 2.5-60.7 1.8 1.4-21.9 2.3-43.8 0.9-65.6zm22.5 36.6c-14 3.2-7.9 25.8 5.7 21.6 14-3.2 7.9-25.9-5.7-21.6zm306.2-53.8c5.9 0.3 17.6 0.9 23.5 1.3-5.2 17.9-10.4 35.9-16.3 53.7-2.5-18.4-4.9-36.7-7.2-55zm-66.8-111.9c22.9 0 45.9 0 69 0.1-0.1 24.4-0.4 73.2-0.5 97.6-22.6 1-45.2 1.3-67.9 0.9-0.1-24.7-0.5-74-0.6-98.6zm-1118.4-0.7c21.8 1.1 43.6 2.2 65.5 3.4 0.8 23.9 2.5 71.7 3.3 95.5-22.7 0.8-45.5 0.9-68.2 0.2-0.2-24.8-0.4-74.4-0.6-99.1zm1038.1-8.8c15.2 1 45.7 3.2 60.9 4.2-1 33.6-2.1 67.4-3.4 101.1-15.3-1-45.7-3.2-61-4.2 0.9-33.8 2-67.4 3.5-101.1zm-937.8 0c15.2 1 45.7 3.2 60.9 4.2-0.9 33.6-2.1 67.4-3.4 101.1-15.3-1-45.7-3.2-60.9-4.2 0.8-33.8 1.9-67.4 3.4-101.1zm571.6 2c18.9-6.1 39-6.8 58.7-8.8 0 26.9 0.1 80.7 0.2 107.6-25.2-1.3-50.3-4-75.1-8.1 6.2-29.8 3-62.5 16.2-90.7zm-181.2-7.3c19.8 1.2 39.9 1.3 59.1 6.3 6.4 32.1 11.1 64.6 14.2 97.4-24.3 1.2-48.8 1.7-73.1 1.2 0-26.2-0.1-78.7-0.2-104.9zm-196.5 79.7c6.1-37.3-1-119.3 66.8-102.5 6.4 36.8 7.7 74.1 11.4 111.3-26.2-1.6-52.3-4.7-78.2-8.8zm587.6-119.1q26.3 6 51.8 15c2.1 22.6 6.1 68 8.1 90.6-16.3 0.1-49 0.3-65.4 0.3 1.6-35.3 3.4-70.6 5.5-105.9zm-950.7 381c23.3 0.2 46.5 0.4 69.9 0.7-1.4 5.4-3.9 16.2-5.3 21.5-21.4 1.5-42.9 2.9-64.3 4.5-0.1-6.7-0.2-20-0.3-26.7zm718.2-13.8c23-0.9 68.8-2.5 91.8-3.4-1.7 11-3.4 22-5.2 33.1-30.5-1-60.8-1.9-91.2-4.5 1.2-6.3 3.5-18.9 4.6-25.2zm-65.1-1700c21.6-9.7 43.7-22.7 68.1-21.9 63 38.1 115.5 91.2 178.4 129.7 74.3 13.7 150.2-6.7 224 2.3 72.2 42.2 141.6 90.5 205.9 144.1-16.5 66.4-31.3 133.3-33.1 202.2-155.3 27.3-310.5 56.3-465.9 82.9-47.4 14.6-99.2-9.5-144.6 13-62.1 29.5-131.8 37.6-199.2 46.5-65.9 13.4-133.6-18.8-171.9-72.2-21.4 1.4-43.7 6.5-64.4-1.2-63-25.4-122.5-58.8-181.5-92.2 8-51.7 15.3-103.6 22.8-155.5-17.6-13.9-33.9-29.3-49-45.9 65.1-30.1 131.2-57.6 197.1-85.7 70.4-31 150.2-17.8 224.6-27.3 31.5 13.7 44.6-12.7 59.4-30.6 31.3-43.8 83.3-64.1 129.3-88.2zm135.7 222.8c-38.8 29.8-67 71.1-101.4 105.5-71.4 0.4-142.8 0.6-214.2 0.7 0 74.1 0.1 148.3 0.4 222.5 57.6-11 115.4-20.4 173.5-27.8 4.8-43.6 7.4-87.4 13.7-130.7 9.6-33.1 55.6-33.7 79.5-47.8 27.8 50.4 34.3 107.8 44.3 163.6 123.4-26.9 248.9-42.3 372.6-67.5 8.9-34.9-2.1-89.1 39.5-102.9 46.7-16.1 40.1 60.9 50.4 83.8 4.3 0.3 12.9 0.9 17.2 1.2-4.5-44.6-8.9-89.3-12.9-133.9-95.6 4.9-191.7 9.6-287.3 2.2-68.8 4.6-105.3-92.9-175.3-68.9zm227.1 149c-5.1-27.3 44.9-19.9 50-37.8-1.2 32.7-2.4 65.7-6 98.4-22.5-13.8-67-18.1-44-60.6zm-162.8-24.9c16.3 0.5 49.1 1.6 65.5 2.1 0.1 31.2 0.5 62.7-0.5 94-69.9 18-51.4-57.7-65-96.1zm93.3-26.6h43.1c-0.4 25.6 0 51.7 0 77.4h-43.1c-0.3-26 0.1-51.5 0-77.4zm-264.9 90.1c0 26.3 0.5 52.4 1.1 78.9 14.3 0.9 42.8 2.9 57.1 3.9 0.1-21.8 0.2-65.6 0.2-87.5-14.7 1.2-43.8 3.5-58.4 4.7zm-285.7-38.5c0 23 0 45.9 0 68.8 6.5 0 19.4 0 25.8 0 0-22.9 0-45.9 0-68.8-6.4 0-19.3 0-25.8 0zm-94.6-17.2c0 40.2-0.1 80.3 0 120.4 12.9 0 38.7 0 51.6 0 0-40.1-0.1-80.3 0-120.4-12.9 0-38.7 0-51.6 0zm-77.5-25.8c0 12.9 0 38.7 0 51.6 11.5 0 22.9 0 34.5 0 0-12.9 0-38.7 0-51.6-11.6 0-23 0-34.5 0zm-85.7-18.4c0 13.6 0.1 40.8 0.1 54.3 10.6-1.9 21.2-3.8 31.9-5.7 0.1-14.5 0.1-28.9 0-43.3-10.7-1.8-21.4-3.6-32-5.3zm444.2 44.8c13.7 5.2 40.9 15.6 54.6 20.7-4.2 41.5 19.4 114.5-53.1 107.7-2.6-42.7-5-85.6-1.5-128.4zm-420.5-115c80.8 18.2 162.4 33.3 244.3 46.1-23.6-39.1-47.5-77.9-71.6-116.5-58.4 21.3-115.6 45.9-172.7 70.4zm409.6-111.4c24.8 32.5 54.8 62.8 97.5 70.6 8.4-66.2-53.1-68.1-97.5-70.6zm143.9-94.7c-0.2 16-0.5 48-0.7 64 23.5-3.9 47.4-7.8 71-11.9-23.2-17.8-46.5-35.2-70.3-52.1zm-208.1 319.4c56.5 13.8 40.6 76.5 46.9 121.4-14.3 0-43.1 0-57.4 0 3.1-40.5 5.3-81.2 10.5-121.4zm-143 2025.3c-67.9 57.3-132.9 118.6-187.8 188.6 27.6-6.2 58.7-7.8 79.5-29.3 60.7-59.7 123.5-117.2 185-175.9-25.8 3.9-55.4-0.8-76.7 16.6zm982.7-35.1c-44.2 2.8-88-3.9-131.8-7.2-6.4 14-12.9 27.9-19.2 41.9 69.2 7.7 139.6 22.1 208.8 7.5 51.3-19.8 98.7-48.3 145.9-76.2-32-9.9-64.4-19.5-96.4-28.8-35 22.1-69.2 46.5-107.3 62.8zm-990.8-76.7c-1.3 13.1-2.6 26.2-3.9 39.4 133.5 18.3 267.9 39.7 394.1 89.1 120.3 44.3 225 120.3 338.5 178.2 27.3 16.5 53.3-9.2 76.1-21.7-99.8-64-202.8-122.8-309-175.5-153.3-73.8-323-135.6-495.8-109.5zm-522.9-11.5c33.9 49.9 79 91.5 129.6 124.2 59.3 34.2 130.7 32.3 196.7 30-101.5-65.1-207.8-126.3-326.3-154.2zm1478.7 30.9c20.4-9.5 42.5-16.7 62.8-27.1-11.9-11.9-23.9-23.8-35.7-35.7-9.8 20.8-19.4 40.6-27.1 62.8zm-348 62.1c56.5-53 94.6-124.4 112-199.6-54 55-96.9 123.3-112 199.6zm125.8-5.9c51.6-15.7 100.2-41.7 139-79.9 50.5-54.9 68.2-128.5 88.6-198.1-99.1 71.2-165.3 175.5-227.6 278zm-1604.4-308.8c74.8 57.6 155.7 117.7 253.8 122-8.2-25-8.9-55.4-27.8-75.2-67.9-39.5-147.4-61.4-226-46.8zm515.4-22.3c4 64.5-0.7 134.9 34.3 192.5 27.1 54.9 82 87.4 129 123.2-41.4-111.2-85-224.3-163.3-315.7zm1609.4 46.8c-2.5 24.4-4.8 48.8-7.4 73.4 96.5-6.2 173.1-65 245-123.6-83.6-15.9-162.8 17.4-237.6 50.2zm-1794.2-202c-44.7 116.5-44 261.1 52.6 351.8-5.4-118.6-2.2-241.4-52.6-351.8zm1704.1-32.4c-45.4 113.7-55.6 236.9-47.1 358 30.9-43.6 63.2-89 74.3-142.1 19.6-73.2-10.2-145.4-27.2-215.9zm-2107.5-121.7c53.2 86.2 127.4 160.1 212.4 214.9-27.4-102.7-108.4-188.6-212.4-214.9zm2303.6 186.8c84.8-52.4 156-126.1 206.8-211.7-103.1 24.3-182.1 110.1-206.8 211.7zm-2134.9-224.9c-20.9 10.1-28.4 41.4-9.9 57.2 19 23.1 62 5.2 59.2-24.5 1.8-25.1-27.1-42.1-49.3-32.7zm2147.4-38.6c-10.5 18-20.9 36.1-31.2 54.1 24.5 14.7 52.3 22 80.8 23.1-9.2-30.7-13.3-66.2-49.6-77.2zm-2057.7 86.9c-8.4 48-0.5 97.4 11.9 144 53.3-86.7 84.8-184.9 93.4-286.5-46.6 37.1-90.9 82.8-105.3 142.5zm1893.5-165.4c6.8 100.1 40.9 196 88.8 283.5 17.9-51.4 19.8-107.6 9.1-160.8-14.7-52.1-62.3-85.4-97.9-122.7zm-2171.3-196.6c25.2 88.7 76.9 168.2 141.9 233-2.3-95.7-61.7-183.6-141.9-233zm2415.5 207.9c60.8-68.1 108.7-148 137.7-234.6-78.7 51.7-144.9 135.4-137.7 234.6zm-2091-252.9c-81.6 64.5-134.9 163.4-120.4 269.9 86-61.4 118.8-168.1 120.4-269.9zm1899.8-33.7c6.4 98.6 30.4 199.9 102.7 272 7-1.9 21.1-5.6 28.1-7.4-8.7-52.6-15.5-106.5-38.9-155-24.1-41.6-57.3-76.9-91.9-109.6zm-2214-145.9c44.6 65.3 102.1 123.2 171 162.8-25.4-79.8-90.9-140.1-171-162.8zm2358.7 138c71.1-36.6 126.2-96.6 169.8-162.7-82.1 17.3-140.7 87.5-169.8 162.7zm-2124.2-161.3c-29.5 43.5-19.1 96.2-15.4 145 80.8-49.1 108.7-147.7 128.7-234.6-42.8 21.9-93.1 42-113.3 89.6zm1951.6-114.7c11.3 85.4 49.7 163.4 103.1 229.9 7.2-1.9 21.6-5.7 28.7-7.7-5.5-41.2 3.1-86.4-17.3-124.4-21-48.5-69.3-75.5-114.5-97.8zm-2063.2-115c15.1 5.8 30.3 11.8 45.6 17.5 6.6-17.7 12.8-35.5 18.6-53.5-27.6-0.7-51.9 10.3-64.2 36zm2225-66.2c8.2 20.2 18.2 41.3 28.1 61.1q16.5-16.5 33-33c-19.7-10-41.4-19.6-61.1-28.1zm-2380.8-50.6c35 101.7 86.5 199.1 162.9 276 4.9-115.3-71.1-214.7-162.9-276zm234.1 253.8c97.3-55.3 119-172.4 127.4-274.2-86.6 62.8-130.3 168.5-127.4 274.2zm2202.1-3.6c74.2-76.6 124.8-174.8 158.2-275.3-89.7 61.7-168.2 160.6-158.2 275.3zm-199.1-294c7.1 100.4 29.2 214.4 124.5 268.5 9.2-105.3-42.4-204.8-124.5-268.5zm-1001.6-0.9c-38.8 9.5-75.6 31.1-102.2 61.1-75.5 80.8-62.4 225.3 29.8 287.6 68 55.2 175.5 47.6 240.4-8.9 91.3-69 91.8-223.6 3.5-295.3-44.8-43.9-111.7-54.4-171.5-44.5zm-795-22.6c-5 149.7 17.2 304.5-23.5 450.7 12.4-13.1 23.4-27.8 37.3-39.4 99.2-10 199.2-5.4 298.7-9.8-67.8-8.5-135.7-15.4-203.4-24.3 47.4-18.7 95.1-36.7 142.5-55.5-70.9-2.3-141.8-3.9-212.6-7.8 84.5-27.8 170.4-51.2 255.5-76.8-95.5-19.9-192.1-34.2-288.3-50.1 90.2-20.3 181.1-37 270.8-59.7-67.8-19.1-136-37.2-202.8-60 78.8-15.5 158.6-24.6 237.9-36.6-103.7-13.4-207.6-25-312.1-30.7zm-232.3 25.4c71.7-69.9 142.1-151 167.5-250.2-90.4 52.7-163.9 141.7-167.5 250.2zm2010.8-276c30.4 96.5 97.4 176.9 165 250.1 6.4-110.3-76-198.4-165-250.1zm-2225.5-27.2c33.7 117.7 94.6 234.2 188.8 314-5.2-129-80.4-246.5-188.8-314zm2424.7 294.2c43.6-35.1 71.1-84.6 99.9-131.6 34.5-59.1 69-119.7 84.4-187.1-109 68.7-186.4 186.8-184.3 318.7zm-2228.6-454.1c18.6-2.1 36.9-6.5 55-11.3q-11.8-24.2-23.7-48.3c-27.8 9.1-48.6 30.2-31.3 59.6zm38.4 234.5c25.4-21.1 46.5-47.2 60.6-77.2 34.8-73.5 74.3-147.1 85.1-228.8-97.5 66.5-160.2 187.5-145.7 306zm2131.9-299.3c-11.3 33.5 25.4 41 52.2 47 0.7-22.3 0.7-44.7 0-66.9-13.1 5-39.2 14.9-52.2 19.9zm-131.3-32.6c12.8 113.7 66.2 221.6 138.4 309.1 21.1-119.5-49.1-235.4-138.4-309.1zm-2196.1-8.3c16.2 80.7 62 150.4 107.6 217.4 12.7 20.4 29.9 37.1 48.7 51.8 2.8-110.7-64.4-211.8-156.3-269.2zm2378.9 242.2c67.8-78.6 131.5-167.1 154.4-270.2-89 59.1-161 159.3-154.4 270.2zm-2184.8-241c68.5-80.4 133.3-170.7 155.6-275.9-86.6 63.4-167.2 161.8-155.6 275.9zm1992.2-294.8c21.6 102.9 80.9 197.6 158 268.2-5.9-110.3-65.8-208.9-158-268.2zm-2141.3-8.2c10.9 100.4 49.4 194.4 87.9 286.7 7.2 0.1 21.5 0.4 28.7 0.5-2.6-106.7-36.4-213.3-116.6-287.2zm2328.2 202.6c11.1 9.8-12.7 64.6 19.2 59.6 48.9-86 80.1-181.9 88.4-280.8-56.8 61.1-103.4 135.4-107.6 221.2zm-2146.9-133.4c80.5-77.4 96.4-197.1 94-303.3-66.9 85.8-104.1 194.1-94 303.3zm1980-328.6c4.5 104.7 19.1 222.7 97.5 299.6 12.5-108.2-21.4-220.7-97.5-299.6zm-490.7 2104.1c23.7 0 71 0 94.7 0 0 6.4 0 19.3 0 25.8-23.7 0-71 0-94.7 0 0-6.5 0-19.4 0-25.8zm-978.6-4.4c10.5-2 21.2-3.9 31.8-5.7 0.1 13.5 0.2 40.7 0.2 54.3-10.7-1.8-21.4-3.5-32-5.4-0.1-14.4-0.1-28.9 0-43.2z"/>
	<path id="Object 4" fill-rule="evenodd" class="s0" d="m704.1 231.9h34.9q48.1 0 71.4 17 23.2 17 23.2 52.8 0 29.4-21.3 44.9-21.3 15.5-61.1 15.5h-112.5v-211.8h178.4v42.9h-113zm0 84.7h33.5q30.7 0 30.7-22.3 0-19.5-30.7-19.5h-33.5zm408.8 10.6h-74.5l-10.3 34.9h-66.9l79.6-211.8h71.4l79.6 211.8h-68.5zm-13.7-45.8l-23.4-76.1-23.3 76.1zm212.7-131h199v52.3h-66.8v159.5h-65.5v-159.5h-66.7zm472.9 176.9h-74.6l-10.2 34.9h-66.9l79.6-211.8h71.3l79.7 211.8h-68.5zm-13.7-45.8l-23.4-76.1-23.3 76.1zm420.1 80.8h-73.6l-25.5-54.8c-6.1-12.9-10.8-21-14.1-24.2-3.4-3.2-8.1-4.8-14-4.8v83.8h-65.4v-211.8h65.4v81.3q8.5-0.4 13.2-6.1c3.2-3.7 8.2-14.5 14.9-32.3 4.9-13.2 9.9-22.7 14.9-28.4 5-5.7 13.1-9.8 24.4-12.4 11.3-2.5 29-3.7 53-3.7v44.8h-3.3q-16.8 0-24.8 6.3c-5.5 4.3-9.8 11.1-13.3 20.6-3.5 9.5-7.2 16.6-11.2 21.3-4 4.6-9.5 8.4-16.4 11.1q14.1 4.7 24.7 16c7 7.6 14.5 19.4 22.4 35.3z"/>
</svg>