<svg version="1.2" xmlns="http://www.w3.org/2000/svg" viewBox="0 0 566 800" width="566" height="800">
	<title>Karlovo-pdf</title>
	<style>
		.s0 { fill: #99d420 } 
		.s1 { fill: #fbc707 } 
		.s2 { fill: #008a5b } 
	</style>
	<path id="Path 1" class="s0" d="m471.3 117.1c20.7 24.4 52.5 32.6 82.8 41v100.1l-0.3 32.9c-18.9 11.6-32.2 33.1-27.6 56.3 3 16.2 14.7 27.9 27.3 36.8l0.5 88.1-0.2 72.3c-4.5 86.5-66 156.5-138.2 195.3-40.9 23.9-85.6 39.4-133.1 48.1-68.2-12-131.8-40.6-184.5-83.6-15.1-12.6-29.1-27.7-41.5-42.1-2.3-3.9-6-7.1-8.4-11.3-0.8-0.2-0.9-1.5-1.3-2-2.2-4.3-6.3-7.2-7.4-12.1-15.7-26.7-24.6-56.5-26-89.2v-161c17-11 31.5-30.5 27.6-53.9-2.5-16.9-14.4-29.6-28-39.2l-0.4-50.8-0.2-51.8-0.4-30.5c29.1-9.3 60.2-16.1 81.3-41.2 50.9-54.5 107.7-104.4 188-106.9 80.2 0.6 140.4 52.9 190 104.7z"/>
	<path id="Path 2" class="s1" d="m466 140.4c19 17.6 44.4 25.7 69.3 32.7l0.4 22.8v85.5c-22 15.6-34.6 43.8-27.7 72.1 4 16.7 13.4 30.3 27.3 41.2l-0.2 147c-3.2 83.6-64.8 146.2-133.1 183.5-36.7 20.2-76.5 35-118.8 42.8-67.3-12.7-130.1-41.6-180.2-85.9-40.7-35.3-72-84.1-71.6-142.6l0.4-66.5-0.4-76.2c21.5-16.3 32.8-43.1 27.6-70.4-3.4-17.5-15.3-33.2-28.2-42.9l-0.4-30.4v-71.2l-0.1-6.2c26.4-8 54.3-17.7 73.1-37.8 48.6-52.5 101-101.9 176.1-105.7 80 0.4 134.6 55.1 186.5 108.2z"/>
	<path id="Path 3" class="s2" d="m461.6 146.6c18.7 16.6 42.7 25.9 66.7 32.4l0.5 86.5v12.1c-22.1 16-35.9 46.8-28.6 76.7 3.9 17.9 14.5 33.1 28.1 44.3l-0.5 146.7c-4.9 84.2-73 144.3-140.8 179.4-32.7 16.7-67.4 28.9-104.2 35.8-81.9-16.4-158.8-56.8-208.9-120.5-20.1-26.7-34.3-58.4-35.3-94.5v-120.2l-0.2-24.6c24.1-19.3 35.4-51.6 26.4-82.3-4.7-15.1-14.9-29.4-27-38.4l-0.4-56.2-0.2-42.5c31.8-8.4 62.5-23.9 82.9-50.2 44.1-47 101.4-95.8 174.3-90.8 71.5 7 121.5 60 167.2 106.3z"/>
	<path id="Path 4" fill-rule="evenodd" class="s1" d="m412.2 180.6c5.7 0.7 9.8-0.8 15.1-2 2.5-0.5 3.9 2.3 6.2 3.3 5.9 2.4 10.8 5.2 16.1 8.5 10.1 6.3 21.7 8.8 32.4 13.6 6.7 3 14.4 4 20.9 7 2.2 1 4.6 1.6 6.8 2.7 5.2 2.4 10.2 7.3 10.9 13.5-0.4 15.8 0.5 31.5 0.7 46.5-16 14.2-25.4 29.5-29.4 50.4-0.8 4.4-1.1 8.8-1.6 13.2-46.2-23.9-99.4-43.4-150.9-52.4-28.6-5-76.9-6.1-106.1-1.4-43 6.9-94.5 22.3-126.4 36.8-10.8 5-22.3 10-31.9 16.5-0.2-11.9-3.9-24.2-7.5-32.5-3-6.8-9.4-17.1-14.1-21.4l-8.2-7.3 0.2-44.5c5.7-12.6 11.1-18.2 23.5-23.3 10.2-4.1 25.7-3.4 36.6-5.9 16.4-3.7 28.2-8.5 44.1-0.6 5.7 0.2 10.4-1.8 15.5-3.9 4.8-2 10-4.2 15.3-6.6 11.4-5.1 41.9 9.4 52.6 11.1 6.9 0.3 13.6 1.3 19.7 3.7 5.3 2.7 8.9 8 15.2 9.3 2.9 1.4 6.1 2.6 8.1 5.4 1.9 2.9 3.7 4.7 5.6 7.9 4.1 5.9 4.9 13.6 9.4 19.3 2.9 2.7 4.6 5.4 8.5 6.1 3.3 4.1 9.4 5.5 9.1 11.9 1.8 3.8 4.7 5.5 6.8 9.3 0.7 0.9 1.5 1.5 2.7 1.4 1.3-1.3-0.2-3.8 1.3-4.9-1.1-2.4 0.6-4.4-0.8-6.6 1.7-6.6-2.3-13.2 1.2-19.4 3.8-5.6 5.3-12.6 7-19.1l-0.2-0.3c-10.8 3.4-15.3 14.9-23.5 17.5-3 0.9-6.5-1.3-8.1-3.7-1.6-2.3-2-5.3-0.4-7.7 0.4-0.2 3.9-6.2 4.7-7 2-3.8 6.3-7.4 9.9-9.4 0.3-1.2 3.3-4.4 6.2-6.4 4.3-1.9 8.3-2.5 13.4-2.9 1.6-1.4 5.4-1.7 5.4-4.3 11.2-7.1 28.2-12.8 41.1-17 10.7-4.4 24.7-9.7 36.9-4.4zm-11.7 6.3c-3.8 14.5-25.1 53.2-22.5 65.2 0.6 2.7 1 4.9 1.5 7.6 1.8 8.7 4.4 16.8 5.8 25.2 0.1 0.2 5.6 9 6.5 9.1 1.2 0.3 0.1-4 0.2-5.2-2.3-7.6-2.9-20.9-1.2-31.8 9.4-26.2 14.1-45.8 12.6-69.8-0.9-1.1-1.8-2.2-2.9-0.3zm-8.4 102.3c0.1 0.2-0.1-0.5-0.1-0.4q0 0 0 0 0.1 0.2 0.1 0.4zm30.5-102.3l-0.2 0.6c2.2 2.7 3.8 3.4 5.6 6.4 5.3 8.9 13.6 17.1 19.1 25.6 5.4 8.2 7.9 18.3 7.3 28-0.2 3.1 10.4 16.2 11.6 18 3.5 5.9 8 8.7 11.9 14.1 4.7 3.5 7.2 8.5 10.5 13.5 1 0.7 2.3 3 4.3 1.9 1.2-1.9-0.5-4.6-1.7-6.2-0.3-4.2-3.6-7.1-4.6-11.1-13.1-18.9-21.5-34.7-17.7-57.6 0.1-0.5 0.6-1.3 1-1.9 1-1.7 0.2-3.7-1.1-4.6-6-4.5-14.9-3.6-21.5-7.3-8.1-8.6-15.3-14.1-24.5-19.4zm-235.6 17.1c-3 1.3-6.4 1.5-9.3 2.8-4.4 3.4-10.6 3.1-15.2 6.3-6.1 0.8-11.7 4.9-17.8 4.1-0.8-0.2-1.9-1.2-2.8-0.4-1.7-1-3.8-1.9-6.1-2.2-7 0.5-14.3 0.9-19.2 5.7 1 0.7 2.3 0.9 3.5 1.3 1 0.8 2.3-0.7 3.3 0.7 30.7 2.9 19.9 59 14.5 76.9 5-4.3 6.6-10 9.5-15.3 0.3-0.2 5.1-14.3 10.2-25.8 2.8-6.5 5.9-10.5 7.3-14.2 2.9-5.1 0.7-11.3 2.5-16.4-1.3-4.9 4.2-7.6 5.6-11 4-4.6 9.6-6.7 14.7-8.8 1-1 3.2-0.6 3.7-2.1-1-1.2-2.6-1.9-4.4-1.6zm21.7 9.9c-0.9-0.8-2.8-1-3.5-0.6 1.7 1.3 2.6 3.4 4.1 5.2 2.1 6.3 4.9 12.2 6.6 18.7-2.3 12.8 10.6 17.1 15.2 25.2 3.3 5 9.2 7.1 12.3 11.8 0.7 1.2 1.9 1.8 2.9 2.4-0.1-2.9-1.1-5.4-2.3-7.8 0.5-7.3-7.2-10.4-9.3-17.1-1.2-1.9-0.7-4.4-1.9-6.4-1.2-4.1-0.8-8.8-2.7-12.6-5.4-10.3-7-12.1-21.4-18.8zm92.5 0.6c-0.2 0.1-1 3.1-1.2 3.3-2.4 1.2-9.7 11-10.5 12.5-3.5-3.1-6.2-7.7-9.6-10.9 0.6-3.3 3-4.9 6-5.5 5.7-0.1 10 1 15.3 0.6zm-11.7 15.8q0 0 0.1 0.1c-0.2 0.2-0.3 0.1-0.1-0.1zm196.6-15c1.4 3.6 5.8 6.6 8.1 10.2 0.1 0 7.2 10.1 8.4 11.1l-0.2 0.2c2.2 1.3 3.6 4.4 6.7 3 0.7-1.1-0.6-2.3-0.4-3.4-3.2-6.5-8.3-13.9-15.1-16.9-2.4-1.6-4.9-3.6-7.5-4.2zm-381.8 10c-11.6 2.8-37.5 24.9-41.7 34.8-0.3 0-1.4 3.2-1.9 4-0.6 4.3-4.5 7.1-4.1 11.6 0.1 0.8 1.3 1 2.2 0.9 5.6-0.5 9-5.4 12.6-9.7 2.5-1.6 8.6-13.6 9.9-15.9 0.1-0.1 23.6-24.7 23-25.7z"/>
	<path id="Path 5" fill-rule="evenodd" class="s1" d="m297.5 289.2h6.1l0.2 4.8-6.5 0.2-0.2 14h-4.9v-13.8l-6.5-0.2v-4.9h6.4l0.1-6.4 5.1 0.3zm-123.3 246.9c-3.2 3.4-10.3 4.7-14.2 1.9-2.6-2-2.8-4.9-4.8-6.8-2.7 3.3-5.3 7.2-5.8 11.4 2 1.8-0.6 6.7 0 8.7-3.2-0.4-5.6 1.6-7-2.4 1.7-0.4 4-1.8 3.9-4.3-3.3 2.3-10.2 4-14.1 2.1-3.8-1.9-3.2-7.5-2.1-11.1 2.3-7.2 10.1-8.4 14.7-13.7-8.6 1-20.1 10.5-20.4 15.5-3.6 1.1-5.9 0.2-8.4-1.6 0.9 2.5 2.6 3.7 4.7 5.2-2 0.4-5.5 1.4-7.9 1.8-0.4-2.5 1.1-5.4 2.2-7.5-1.7-4.3-3.8-9.8 1.2-15.6 5.9-6.9 14.5-1.6 14.9-4-3.7-0.7-6.7-2.2-7.9-5.9-0.8-2.3-0.5-3.9 0.7-6 6-1.9 13.2-8.4 19.6-6 4.6 1.6 4.9 6 6.8 9.6 26.9-4.2 51.8-14.4 77-22l12.5-17.1c4.3-5.9 13.1-5.2 20.9-5.2 14.1-0.7 31 2.5 40.9-7.1 8.9-8.7 12.5-33.7 8-38.7-2.4 12.6-9.7 25.2-19.1 33.2-5.7 4.6-12.9 8.6-20.7 8.5-8-0.1-15.5-4.5-23.7-2.9-11.3 1-18.9 9.7-23.5 19.6-2.1 4.5-6.2 7.1-11.2 7.2 4.9-4.1 5.3-11 4.2-17.2-0.8-5.1 2.8-9.7 6.3-11.9 5.5-3.6 30.5-3.6 30.5-3.9-15.5-5.5-31.8-6-39 2.2-8.8 9.8-3.8 25.4-13.8 34-2 1.8-5.4 2.5-8.5 1.9-4.5-1-5.9-4.4-8.6-7.2 4.1 1.9 7.8-0.5 10.1-3.2 7.3-8.8 3.9-22.2 9.7-32.3 4.4-7.8 12.1-9.2 19.1-10.6 8.4-1.6 18.4-1.5 27.2-0.5 10.1 1.1 18.9 6.6 29.1 8 5.5 0.7 9.5-3.1 12.6-6.5 3.4-3.8 4.2-7.7 7.5-11.6 0.8-1.1 1.7-2 2.8-3.3-3.4-0.2-10.6 6.3-12.6 8.5-3.2 3.7-8.3 7.6-13.5 6.6-6-1.1-11.3-3.4-17.3-4.2-10.8-1.5-20.5-1.3-31.2-0.8-3.9-4.2-6.3-11-3.4-16.6 0.2-0.4 1-1.7 1.4-1.7 1.5 4.9 5.3 9.2 10.3 10.5 7.8 1.6 13.5-4.4 21-5 9.9-0.6 18.1 5.7 28.6 4.2 13.4-1.6 25.4-9.7 31.1-21.6 3.4-7.3 2.6-17.6-3.2-23.2-1.7 14-1.9 31.2-16.5 36.9-17.7 6.8-26.1-0.7-33.9-1.1-4.4-0.3-6.6 2-9.5 2.9-0.4-1.8-1.4-5.2 0.5-6.2 9.1-5.1 20.2 3.8 30.4-1.2 2.4-1.3 6.1-3.6 6.2-6.6 0.1-2.9-2.4-5.2-4.8-6-14.6-4.9-25 7.2-38.3 9.1-5.8 0.9-12.1 1.2-16.1-3.6-1.9-2.5-4.3-4.8-4.5-8.2-0.1-2.1 0.7-4.3 2.6-4.9 9.5-2.8 14.4 7.8 24.6 4.7 9.4-3 25.2-9.8 32.6-1.6 1.5 1.2 2.3 2.8 3.5 4.2 0.7-4.8-0.3-10-2.9-13.9-5.4-7.7-16.6-3.9-25.6-5-2.6-0.3-5-0.9-7.4-1.7-1.6-4.4-3.4-10.9 0-14.6 1.9-2.1 6.9 0.8 7.5-2.4l0.3-1.9-6.7 0.1c-0.8 0-1.3-0.7-1.3-1.7-0.2-6.9 5.3-7.3 11.6-7.4 1-3.8 3.9-8.2 7.4-11.2-6.5-3.7-9.6-11.2-8.4-18.6 0.7-3.7 3.2-7 6.1-8.9 0.1 4.5-0.7 11.1 4.1 13.2 1 0.5 2.7 0.8 3.6 0.2-0.4-2.7-1.2-7.6-0.7-10.8 0.8-5.4 5.5-10.6 10.9-12.1-3.5 10.4 1.5 17.8 7.2 17.9 5.8 0.2 11.8-6.2 8.1-18.1 9.5 2.3 11.1 10 11.4 13 0.3 3.8-0.3 7.9-1 11.6 7.4 1.4 8.2-8.7 7.8-13.3 4.6 3 7.5 8.5 6.2 14.7-0.9 4.4-3.1 7.5-6.6 10.5 4.6-0.4 11.2-1.9 15.1 4 1.7 2.5-1.6 7.6-4.1 8.7 5.6 0.6 12.1 15.7 19.1 16-1.8 3.4-4.7 2.2-7.7 2.3 0.6 1.8 3.2 3.3 5.1 4.2 7.5 3.4 9.4 13 16.4 13.6-2.3 3.9-8.8 2.6-12.1 1-1.9 5.6 0.4 11.7 4.1 15.5 1.4 1.4 2.8 2.6 4.6 3.6-4.5 3.4-10.8 0.8-13.5-3.2-1.3 2.1 0.4 4.2 1.5 5-2.7 20.1-22 33.7-17.2 55.6 1 4.7 3.8 8.8 6.7 12.9-3.2 0.6-9.1-0.4-11.6-3.3-3.2 5.9 9.3 14 16 14.4-5.4 3-15.4 2.8-20.5-1.2-8.7-6.8-11.4-15.2-12.5-25.4-6.8 5.5-3.8 21.4 2 26 6 4.6 13.9 6.4 21.4 7.2 2.9 8.6 2.3 19.3 5 26.2 5.4 14.4 10.1 23.5 22.4 33.5 7 1.1 13.7-0.7 20-3.3 11.7-4.7 18-17 19.9-29 1.6-10-2.7-18.6-9.3-23.5-13.4-10.3-32.9-10.3-44-23.3-6.3-7.3-7.7-20.2-3.5-29.5 7.5-16.6 24.8-26.9 44-25.4 9.9 0.9 19.1 5.2 25.8 12 2.8 1.2 6.1-0.4 9.3-0.2 6.6 0.3 12.4 3.3 15.7 8.7 7.5 12.1 9.7 34.7-4.5 44.6 3.5-8.9 5.2-20.4 0.8-30-1.4-3-6.3-5.1-8.3-3.1 6.1 9.1 4.9 22.5 2.1 32.6-1 2.4-1.6 4.5-3.4 6.6 1.2-8.8 0.7-19.3-6.8-24.1-1.8-1.1-4.5-2-6.7-0.9 0.3 11.4 11.7 17.6 9.6 31.4-4.9-10.9-12.1-10.7-18.6-16.1-7.8-6.4-14.3-16.9-12.4-27.9 1.1-6.9 7.8-10.2 13.8-12.2 2-0.6 2.3-2.7 2.7-4.3-5.8-6.7-20.5-12.2-31.6-8.3-10.7 3.8-21.5 12.5-23.2 25-1.2 9.1 4.8 17.1 13.4 21.3 17.4 8.5 44 12.3 46.4 36.4 0.6 6.6-0.3 13.5-1.6 20.1 1.3 0.7 5.5 5.7 4.5 9.6-1.6-2.4-4.6-4.2-8.3-2.7 4.9 1.6 7.1 5.4 6.4 12.7-3.5-5.1-6.6-5.6-12.3-2.2 6.2 0.4 11.6 0.7 11.5 12.1-2.7-3.9-6.8-6-11.5-4.8-9 2.6-22.1 10.5-33.7 11.2l4.1 14.5 0.7 0.1c9.1-2.5 21.9-8.9 30.3-0.3 3.7 4.3 4.9 10.9 4.2 16.8 3.2 1.4 6.8 3.1 8 6.7 1 3.1 1 5.8-0.4 8.8-2.8-2.3-4.9-4.6-8.3-5.8 0.1 4.1 3 7.5 6.3 9.9 1.2 0.7 2.6 1.2 4.1 1.2-1.2 3.5-5 6.8-9.6 3.6-0.9-0.6-3.5-4-3.8-5.1-1.4 1.7-1.6 4.5-1 6.7 1.5 6 6 5.9 11.2 5.7-2.9 9.2-2.8 22.1-2.8 31.7-3 0.7-10.9 0.7-12.4 4.8 6 0 13.6-1.5 16.1 7.3 0.9 3.2 5.9 9 5.7 12.1-2.9-0.9-8.6 1.9-11.1-1.1 0.7-2.6 2.9-4.7 5.6-5.8-2-1.5-5.8 0.5-6.9 1.7-1.2 1.2-2.1 3.9-2.6 5.7-3.5 0.1-6.2-1.4-9.3-1.9l-1.4 1.3c2.1 0.7 2.6 2.9 3.1 4.8 0.6 3.8-2.9 7.9-5.6 9.4-2.5 2-1.2 6.8-3.8 8.7-3.1-1.4-7.1-3.4-7.4-5.8 2.3 0.4 5.6 0.8 6.9-1-2.5-0.8-6.1-1.1-8.9-2.9-1.4-1.4-2.6-4.5-2.3-8.9 0.5-5.5 4.6-7.5 8-9.2-12-1.4-13.9 9.1-12.2 15.3-0.1 1.7-2.8 3.3-4.7 2.8-0.2 1.5-4.7 6.2-8.5 5-0.8-1.9-0.9-4.8-0.5-6.9 1.9 1.2 3.5 1.6 5.5 0.8-4.9-3-5.2-5.8-5.1-8.8 0.1-3.3 2.3-6.8 4.8-8.6l4.2-2.5c-2.1-0.4-4.5 0.1-5.8 0.6-5.7 2.2-3.4 8.5-9.7 10.8-0.7 0.3-2 0.3-2.8 0-0.6-2-0.4-4.5 0.1-6.1 1.1-0.1 4.1 1.1 5.8-0.6-2.1-0.5-4.2-0.5-5.1-3.1 1.1-4.9 5.2-9.4 10.3-10.5 5.5-1.3 11.1 0.4 16.7 0.6 1.8-3.7 1.9-8.3 2.9-12.4 1-7.7-0.7-15.4-2.9-22.2-0.8-1.6-1.8-2.9-3.6-3.4-2.7-0.7-5.2 0-7.1 1.5-5.7 4.6-4.7 12.9-9.5 18.4-4.2 4.9-9.3 0.5-10.2-1-2.2 3.6-1 9.5 0.3 11.7-3.8 0.5-8.6-3-9.5-7.6-0.5-2.8-0.9-5.8-0.6-9-5.3 7.6-3.7 18.8-0.4 24-16.3-7.2-12.4-28.7-8.9-38.1-5.3 1.7-6.8 8.1-6.8 12.9-5.5-7.7-8.3-17.7-7.7-28.3 0.6-12.3-2-22.7-3.9-34.7-1.2-8-6.2-14.1-10.9-20.1-10.7-13.7-10.8-13.4-27.7-17.5-14.5-3.5-28.5-8.9-40.8-16.7 0-0.3 35.3-10.8 38.2-11.7 7 9.6 28.4 13 37.6 4.7-9.2 1.4-17.7 0.9-23.8-2.9-1.6-1.1-2.4-2.6-1.7-4.7 8.2 0.3 16.8-1.9 19.9-9.4 6.4-14.9-11.9-28.1-16.4-26.1 3.8 4.7 7.5 11.3 5 18.1-3.6 9.8-15.7 11.1-24.7 14.7-13.2 5.3-27.1 8.5-40.7 12.7-3 2.1 0.3 5.6-1.6 8-4.7-2.4-7.9-5.9-8.6-12.4-2 2.9-2.8 7.2-0.8 10.3 1.4 2 3.9 3.3 6.2 4.1-7.7 5.2-23.2-8.2-25-13.8-1.1 4.2 0.9 6.5 3.2 9.1-5 1.1-11.4 0.9-14.1-2.7-3.3-4.3-8.6-5.9-12.6-4.1 6.1 1.4 12.3 9.1 5.1 16.6zm1.4 1.8c0.2 3.1-0.3 5.6-3 9.2-2.1 0.4-5.7-2.2-6.4-4.1 1.6 0.2 8.6-3.4 9.4-5.1zm139.2-198.6c-5.2 1.1-10.1 4.2-11.1 8-0.9 3.5 2.4 8.7 10.6 9.1 0.3-0.2 0.2-0.7-0.1-1.1l-3.3-4.5c-4.9-8.1 12.2-11.4 15.7-9.4 5.1-2.6-3.8-3.7-11.8-2.1zm-41.5 5.7c-2.2 2.9-1.7 5.7-0.1 6.8 3.1 2.2 9.6 1.3 12.9-0.5-4.2-4.2-4.5-4.7-9.8-5.6 0.4-1.9 2.9-5.4 5.4-6.1-3-1.5-7.3 3.8-8.4 5.4zm-87.2 2.8c-1.8 0.3-4 2-4.3 4.3 2.7-1.5 5.3-2.1 7.6-1.4 3 0.8 4.4 3.4 4.9 6.1 0.8 5 1 11.4-1.5 15.8-1.9 3.2-4.7 6.2-4.3 10.2 0.9 6.2 5.5 10.6 8.2 16 8 10.8 15.9 22.1 22 33.8-8.5-0.8-18.9 5.9-22.2 10.3-4.1 5.4-7.3 12.9-6.4 20.4-7-18.7-14.1-40.1-20.3-59.1 3.4-1.5 9.2-6.1 7.9-12.2-2.3 3.5-5.3 7.8-10.4 8.3-4.6 0.7-10.9 0.6-14.5-3.2-2.8-2.9-3.1-7-2.9-11-1.7 0.8-2.6 5-2.2 6.4-1.8-1.2-7.2-2.3-8.4-4.9 3.2-4.4 9.9-7.5 16.6-7.1 1.2 0.1 4.4-0.7 5.1-2.5-1.1 0.1-3.3 0.5-4.5 0.7-9.4 1.8-11.7-7.6-15.9-11.4 2.3-1.8 5.6-1.6 7-1.3-0.9 1.5-0.7 5.2 0.1 6 0.6-1.9 1-3.4 1.7-4.8 0.6-1.6 1.9-2.9 3.8-3.8 3.3-1.4 8.6 1.1 10.7-2.7 0 0-2.9 0.6-4 0.5-2.6-0.3-5.4-2.2-6.5-4.6-1.2-2.6 0.4-6.2-0.2-8.5 2.1-0.5 4.8 0.4 6.4 1.6-1.6 0.8-3.6 3-3.7 6.1 0.1-0.7 5.8-6.2 10.2-7.4 2.2-0.6 4.4-1.1 6.7 0 3.4 1.6 1.4 6.5 5 6.7-1.8-2.9-2.6-6.4 0.4-9.9l2.7-3.1c2.6 1.2 4.5 3 5.2 5.7zm-30.2 8q0 0.1 0 0.1 0 0 0-0.1zm114.5 9.1c0 5.7 7 9.2 13.5 6.9-4-1.4-7.4-3-9.1-6.4-1.6-3.4-0.5-6.5 0.8-7.6-4.9 0.8-5.2 4.9-5.2 7.1zm-9.5 21.4c-1.7-1.5-2.3-3.8-2.5-6.2l5.9 0.4zm69.4 42.1c10.9-19.8 7.7-39.8-1.3-43.2 2.8 5.9 6.1 29.2 1.3 43.2zm-65.5-22.6c-2.4 0.1-4.5-0.1-6.6-0.7 0.3-1.6 1.1-3.6 2.7-4zm-134.1 91.3c-2.1 1.6-5.1 3.9-6.7 6.4-1.7-2.4-2.6-4-2-7.2 2.3-1.1 7.5 0.2 8.7 0.8zm159.5 33.5c-5.1-1.3-10.3-4.8-12.2-6.9-1.9 5.6 2 9.3 7.5 10.5 6.8 1.4 15.9-0.6 18.6-3.7-1.2 0.2-7.2 1.8-13.9 0.1zm7.8 38.9c-1.1 1.8-4.7 4.7-5.5 7.3-0.5 1.6-0.5 3.1 0 4.6 2.3 6.5 6.3 8.9 1.2 14.8-1.8 2.1-1.9 5.8-0.5 8.5-3.2 8.4-27.9 11.3-23.3 23.3 2.5 6.5 13.7 6.1 14.3 14.5 0.6 7.2-5.1 11.9-5.8 19.2-0.3 2.9-3.1 5.8-6 6.5 0-3.2 1.8-17.7-2.9-18.4 1.7 9.1-2.9 17.5-9.2 23.2-0.1-3.5 2.7-6.5 2.6-10.1-0.1-1.2-0.3-4.3-2.6-6.4 0.6 1.2-1.6 12-5.4 14.2-4.4-3.2-17.9 6.5-22.3 8.4-2.6 1.1-5.7 1.7-8.7 2.2-1.8-4.1-4.6-7.1-10.5-7.5 4.3 3.8 6.9 7.9 7.5 13 0.5 3.8-4 8-6.1 9.9-0.7-3-2.7-4.7-5.5-5.2 0.8 1 2.4 3.7 2 6.9-2.6-0.2-5.9 1.2-8.3 0.6-0.5-2 0.1-7.6 3-9.3-8.4 0-9.7 7.5-11 10.3-2.8 1.1-9.4 2-9.5-3.4-0.1-4.9-3.1-6.5-6.2-5.4 1.4 1.3 4.5 2.3 2.3 8.4-2.2 1.2-6.5 2.8-10.3 0.6 2.7-5.8 5-12.9 10.7-16.3 2.3-0.8 4.7-1.8 7.2-2.4 0.8 0.2 1.6-0.1 2.2-0.5-0.6-1.9-2.9-1.8-4.6-2.2-6.6 0.8-12.2 4.2-13.9 11-4.2 0.1-5.5-1.8-7.2-4.9-0.6 2.5-0.8 4.9 1.7 6.8-0.6 1.2-4.4 3.5-8.5 1.5 1.9-7.7 6.7-17.4 15.3-20.6 3.2-1.2 7.1-1.2 10.3 0-0.2-1.2-1.8-2.9-3.8-3.5-6.9-2.1-15.5 5.4-15.8 5.4-8-5.9-2.2-9.7 2.1-12.3 6.1-3.6 16-4.3 21.5 0l8.2 6.2c5.4 4.1 12.8-2.4 18.2-5.7 9.1-5.5 9.9-16.3 14.4-24.4-6.4-0.2-13.3 6.6-19.4 2 1.3-1.2 3.4-2.4 4.9-2.6 5.4-0.6 13.2-9.1 9.8-15.7-3 3.3-8.6 17.8-16.8 12.5 2.3-1.2 3.7-3.7 5-5.9 2.9-5 0.3-12.4 3.7-17.1 6.3-9 13.1-12 22.5-14.9 5.3-25.4 33.5-28.4 53.9-35.3zm10.5 42c-5.6 2.1-10.2 0.1-11.1-5.6-0.8-5.5 6.3-8.8 3.6-14-1.3-2.4-2.5-5.2-3.6-7.9-1.6-4-1-8.1 2.6-9.5 5.5 5.5 7.9 29.2 8.5 37zm-253.3 49.7v0.4l-0.4-0.6c0.2 0 0.3 0.1 0.4 0.2zm109 14.1c-1.9 2.6-7.5 3.9-10.7 2 1.4-1.9 2.1-4.6 4-6.5 0.7 1.5 4.8 4.4 6.7 4.5zm-98.1-487.3q0.4 1.1 0.2 2-0.2 1.1-0.9 1.9 1.4 0.1 2.3 0.8 0.9 0.7 1.4 2.1 0.8 2.4-0.4 4.1-1.2 1.7-3.7 2.6l-6.9 2.4-5.4-15.8 7.1-2.4q2.2-0.8 3.9-0.3 1.7 0.5 2.4 2.6zm-3.1 1.5q-0.4-1-1.1-1.1-0.8-0.1-1.8 0.2l-3.3 1.2 1.1 3.4 3.4-1.2q1-0.4 1.5-0.9 0.5-0.6 0.2-1.6zm2.6 6.3q-0.4-1.2-1.2-1.4-0.8-0.2-2.1 0.3l-3.5 1.1 1.5 4.2 3.4-1.2q1.3-0.5 1.8-1.2 0.5-0.6 0.1-1.8zm9 1.7l-7-15.1 6.5-3q2.2-1.1 4.2-0.5 2 0.6 3.1 3 1.1 2.3 0.2 4.2-0.8 2-3 3l-3.4 1.6 2.5 5.3zm3.7-14.1q-0.5-1.2-1.4-1.4-0.9-0.3-2 0.2l-3 1.4 2.1 4.4 2.8-1.4q1.2-0.5 1.6-1.3 0.4-0.8-0.1-1.9zm12.5-12.8l1.5 2.5-7.4 4.2 1.8 3.1 6.7-3.9 1.4 2.5-6.7 3.9 2.1 3.7 7.8-4.5 1.5 2.7-10.7 6.1-8.3-14.4zm11.9 12.2l-9.3-13.8 4.2-2.8 9.8 8.6-4.3-12.3 4.2-2.9 9.3 13.8-2.7 1.8-7.2-10.7-0.5-0.8 0.4 0.8 4.5 12.6-2.9 2-9.8-8.8-0.8-0.8 0.6 0.9 7.2 10.6zm15.6-33.2l1.9 2.1-6.3 5.7 2.3 2.7 5.8-5.2 1.9 2.1-5.8 5.2 2.9 3.2 6.6-6 2.1 2.3-9.2 8.2-11.1-12.4zm6-2.4l-3.4 3.6-2.2-2.1 9.1-9.7 2.1 2.1-3.3 3.6 10 9.3-2.3 2.5zm20.5-14.1q2.8 2.7 3.1 5.9 0.2 3.3-2.4 6-2.7 2.7-5.9 2.6-3.3-0.1-6.1-2.8-2.8-2.7-3-6-0.3-3.2 2.4-5.9 2.6-2.8 5.9-2.7 3.2 0.2 6 2.9zm-8.8 9.2q1.7 1.6 3.7 2 2 0.3 3.6-1.3 1.7-1.7 1.3-3.7-0.4-2-2.2-3.7-1.9-1.9-3.9-2.1-2-0.2-3.5 1.4-1.5 1.5-1.2 3.5 0.3 2 2.2 3.9zm19.1-30.7l1.9 2.1-6.2 5.8 2.4 2.6 5.7-5.3 2 2.1-5.7 5.3 2.9 3.1 6.5-6.1 2.1 2.3-9 8.3-11.3-12.1zm20.8-12.5q0.7 0.8 0.9 1.8 0.2 1-0.3 2.1 1.5-0.4 2.5-0.1 1.1 0.4 2 1.6 1.6 1.9 1.1 4-0.6 2-2.7 3.7l-5.6 4.5-10.4-12.9 5.8-4.7q1.8-1.5 3.5-1.6 1.8-0.2 3.2 1.6zm-2.4 2.4q-0.7-0.8-1.4-0.6-0.8 0.1-1.6 0.8l-2.8 2.3 2.3 2.7 2.7-2.2q0.9-0.7 1.2-1.4 0.2-0.7-0.4-1.6zm4.6 5.1q-0.8-1-1.6-0.9-0.9 0.1-1.9 0.9l-2.9 2.3 2.8 3.4 2.9-2.3q0.9-0.8 1.2-1.6 0.3-0.9-0.5-1.8zm10.3-14.6l5.7-3.9-3.4-5.1 2.8-2 9.3 13.8-2.9 1.9-4.1-6.1-5.7 3.9 4.1 6.1-2.8 1.9-9.3-13.8 2.8-1.9zm26.7-4.6l-2.7-2.4-5.6 3.1 0.7 3.5-3.2 1.8-2.8-17.5 3.4-1.9 13.3 11.7zm-4.8-4.5l-5.5-5 1.5 7.3zm8.5-17q3-1.4 5.5-0.8 2.5 0.7 3.6 3.2l-3 1.4q-0.9-1.3-2.1-1.5-1.2-0.2-2.7 0.5-2.1 1-2.3 2.9-0.3 2 0.7 4.2 1 2.1 2.7 3.1 1.7 1.1 3.7 0.2 1.5-0.8 2.1-1.9 0.5-1.1 0.2-2.6l3-1.4q1.2 2.4 0.1 4.8-1.1 2.4-4.2 3.8-3.3 1.6-6.1 0.3-2.9-1.2-4.6-4.9-1.8-3.7-0.8-6.7 0.9-3 4.2-4.6zm26.5 7.6l-3.5 1-4.6-15.9 3.3-1 3.1 11 3.6-12.9 3.5-1 4.6 16-3.3 0.9-3.1-11zm21.6-15.5l6.9-0.6-0.6-6.2 3.5-0.3 1.4 16.5-3.4 0.3-0.7-7.3-6.8 0.6 0.6 7.3-3.4 0.3-1.4-16.5 3.4-0.3zm18.5 9.4l-3.7-0.2 0.6-16.6 3.4 0.1-0.4 11.5 7.4-11.2 3.7 0.1-0.6 16.6-3.4-0.1 0.4-11.4zm28.6-13l-0.5 2.8-8.4-1.6-0.7 3.5 7.7 1.5-0.6 2.8-7.6-1.5-0.8 4.2 8.8 1.7-0.6 3-12.1-2.3 3.2-16.4zm19.9 5.8q3.2 1.2 4.5 3.4 1.2 2.1 0.3 4.7l-3.2-1.1q0.3-1.5-0.4-2.5-0.7-1-2.3-1.6-2.1-0.8-3.7 0.4-1.5 1.2-2.3 3.5-0.8 2.2-0.3 4.1 0.4 2 2.4 2.7 1.6 0.6 2.8 0.2 1.2-0.4 2-1.7l3.2 1.1q-1 2.6-3.4 3.5-2.5 0.9-5.7-0.3-3.4-1.2-4.5-4.1-1.2-2.9 0.2-6.7 1.4-3.9 4.2-5.4 2.8-1.4 6.2-0.2zm2.8 19.6l7.5-14.8 4.5 2.3-2.8 12.8 8.7-9.8 4.5 2.3-7.5 14.8-2.9-1.5 5.9-11.5 0.4-0.8-0.5 0.7-8.8 10.1-3.1-1.6 2.9-12.9 0.3-1-0.5 0.9-5.8 11.5zm37.2 2.3l-1.6 2.4-7.1-4.6-1.9 3 6.5 4.2-1.6 2.4-6.5-4.2-2.3 3.6 7.5 4.8-1.7 2.6-10.3-6.7 9-13.9zm18.3 19q-0.7 0.9-1.6 1.3-1 0.4-2 0.2 0.6 1.3 0.5 2.4-0.1 1.1-1 2.3-1.6 2-3.7 1.9-2.1-0.1-4.2-1.7l-5.6-4.5 10.2-13.1 5.9 4.6q1.8 1.5 2.4 3.2 0.5 1.7-0.9 3.4zm-3-1.8q0.7-0.8 0.4-1.5-0.3-0.7-1.2-1.4l-2.8-2.2-2.2 2.8 2.8 2.2q0.9 0.7 1.6 0.8 0.8 0.1 1.4-0.7zm-3.8 5.7q0.8-1 0.5-1.8-0.3-0.8-1.4-1.7l-2.8-2.2-2.7 3.4 2.9 2.3q1 0.8 1.9 0.8 0.8 0.1 1.6-0.8zm12.3 3.1l2.4 2.1q2.3 2 2.7 4.2 0.4 2.1-1.2 4-1.7 1.9-3.9 1.8-2.1-0.1-4.5-2.2l-4.8-4.2 8.9-10.2-2.6-2.3 2-2.3 5.1 4.4zm-2 2.3l-2.9 3.3 2.4 2.1q1.1 0.9 2 1 0.9 0.1 1.6-0.8 0.8-0.8 0.6-1.7-0.2-0.9-1.3-1.8zm21.1 12.4q-0.7 0.8-1.7 1.1-1 0.3-2.1 0 0.6 1.4 0.4 2.5-0.2 1.1-1.2 2.2-1.7 1.9-3.8 1.6-2.1-0.3-4-2.1l-5.3-4.9 11.3-12.2 5.5 5.1q1.7 1.6 2.1 3.4 0.3 1.7-1.2 3.3zm-2.8-2.1q0.7-0.7 0.5-1.5-0.3-0.7-1.1-1.4l-2.6-2.4-2.4 2.6 2.6 2.4q0.8 0.8 1.6 0.9 0.7 0.2 1.4-0.6zm-4.3 5.4q0.9-1 0.6-1.8-0.2-0.8-1.1-1.7l-2.7-2.5-3 3.1 2.7 2.6q1 0.8 1.8 1 0.9 0.1 1.7-0.7zm23.9 13.2q-0.8 0.8-1.7 1.1-1 0.3-2.1 0 0.5 1.4 0.3 2.5-0.2 1-1.3 2.1-1.7 1.9-3.8 1.5-2.1-0.3-4-2.1l-5.2-5 11.6-12 5.4 5.2q1.6 1.6 2 3.4 0.3 1.7-1.2 3.3zm-2.8-2.1q0.8-0.8 0.5-1.5-0.2-0.7-1-1.5l-2.6-2.4-2.4 2.5 2.5 2.5q0.8 0.8 1.6 0.9 0.7 0.2 1.4-0.5zm-4.4 5.2q0.9-0.9 0.7-1.7-0.2-0.8-1.2-1.8l-2.6-2.5-3 3.1 2.6 2.6q1 0.8 1.8 1 0.9 0.2 1.7-0.7zm1.1 9l11.8-11.8 5 5.1q1.8 1.7 1.9 3.8 0.1 2.1-1.7 3.9-1.8 1.8-3.9 1.7-2.2-0.1-3.9-1.8l-2.6-2.7-4.2 4.2zm14.6-1.4q0.9-0.9 0.8-1.8 0-0.9-0.9-1.7l-2.3-2.4-3.4 3.4 2.2 2.3q0.9 0.9 1.8 1 0.9 0.1 1.8-0.8zm16.2 8.2l-2.1 2.1-6-6.1-2.5 2.6 5.5 5.5-2 2-5.5-5.5-3 3 6.3 6.3-2.2 2.2-8.7-8.7 11.8-11.8zm-7.6 15.3l8.8-14.1 4.3 2.7-3.9 12.5 9.5-9 4.3 2.7-8.8 14.1-2.8-1.7 6.9-11 0.5-0.8-0.6 0.7-9.6 9.3-3-1.9 4-12.5 0.4-1.1-0.5 1-6.8 10.8zm35.9 1.6l-1.2 2.6-7.7-3.6-1.5 3.2 7 3.3-1.2 2.6-7-3.3-1.8 3.8 8.1 3.8-1.3 2.8-11.2-5.2 7-15.1zm4.3 5.5l-4.6-1.8 1.1-2.8 12.3 5-1.1 2.8-4.5-1.9-5.1 12.7-3.2-1.3zm21.1 13.6q-1.3 3.7-4.1 5.2-2.8 1.7-6.5 0.4-3.5-1.2-4.8-4.2-1.2-3 0-6.7 1.3-3.7 4.1-5.3 2.9-1.6 6.4-0.3 3.7 1.2 4.9 4.2 1.3 3 0 6.7zm-12.1-4.2q-0.8 2.3-0.2 4.3 0.5 2 2.7 2.7 2.3 0.8 3.9-0.4 1.6-1.2 2.4-3.5 0.9-2.6 0.2-4.4-0.6-1.9-2.8-2.7-1.9-0.6-3.6 0.5-1.7 1.1-2.6 3.5z"/>
</svg>