<svg version="1.2" xmlns="http://www.w3.org/2000/svg" viewBox="0 0 1064 1572" width="1064" height="1572">
	<title>riffData-cdr</title>
	<style>
		.s0 { fill: #a42511 } 
		.s1 { fill: #ffffff } 
		.s2 { fill: #ffeb3d } 
		.s3 { fill: #00b9f2 } 
	</style>
	<path id="Object 4" class="s0" d="m219.8 1440.4v-3.8l-16.3-9.5-16.4-10.2-16.4-10.5-16-11-15.7-11.4-15.5-11.9-15.1-12.4-14.7-12.9-14.3-13.5-14-14.1-13.5-14.7-13.1-15.3-12.4-15.9-12.1-16.7-0.7-1.2-0.5-1-0.6-1.1-0.6-1-0.5-1-0.6-1-0.5-1.1-0.5-1-0.5-1.1-0.5-1.1-0.5-1-0.5-1.1-0.5-1.1-0.4-1.2-0.5-1.1-0.4-1.2-0.4-1.1-0.4-1.2-0.4-1.2-0.4-1.3-0.4-1.2-0.4-1.3-0.3-1.3-0.3-1.4-0.4-1.3-0.3-1.4-0.3-1.5-0.3-1.4-0.3-1.5-0.2-1.5-0.3-1.6-0.3-1.9 2.7-240.7 0.1-10 7.3-635.7h1052.9l-4.2 636.8v8.9l-1.6 254.6v0.2 0.2 0.2 0.2 0.2 0.3 0.2l-0.1 0.2v0.2 0.2 0.2 0.2 0.3l-0.1 0.2v0.2 0.3l-0.1 0.2v0.3l-0.1 0.2v0.3l-0.1 0.2-0.1 0.3-0.1 0.2-0.1 0.3v0.2l-0.1 0.3-0.1 0.2-0.1 0.3-0.2 0.2-0.1 0.2-0.1 0.3-0.1 0.2-0.3 0.4-0.2 0.5-0.3 0.4-0.3 0.5-0.2 0.4-0.3 0.5-0.4 0.5-0.3 0.4-0.3 0.5-0.3 0.5-0.4 0.5-0.3 0.5-0.4 0.5-0.3 0.5-0.4 0.5-0.3 0.5-0.4 0.5-0.3 0.5-0.4 0.5-0.3 0.5-0.4 0.5-0.3 0.5-0.4 0.5-0.3 0.4-0.4 0.5-0.3 0.5-0.3 0.4-0.3 0.5-0.3 0.4-0.2 0.4-0.3 0.4-0.3 0.5-10.1 14-11 13.7-11.7 13.3-12.4 13.1-13.1 12.7-13.7 12.4-14.3 12.3-14.9 11.9-15.4 11.6-16 11.4-16.4 11.1-16.9 10.9-17.3 10.6-17.6 10.4-17.9 10.2-18.4 10-18.5 9.8-18.9 9.4-18.9 9.4-19.2 9.1-19.4 8.9-19.5 8.8-19.4 8.4-19.5 8.4-19.6 8.2-19.5 8-19.6 7.8-19.3 7.6-19.2 7.5-19.1 7.3-25.3 9.6-22.3-9.8-16.2-7.1-16.3-6.9-16.6-7.1-16.8-7.1-16.8-7.1-17-7.2-17.3-7.3-17.2-7.5-17.2-7.6-17.3-7.8-17.3-8-17.3-8.3-17.2-8.6-17.1-8.7-17.1-9.1-10.2-5.8z"/>
	<path id="Object 5" class="s1" d="m6.5 63l34.7 1 16.8 0.3h16.5l16.6-0.3 16.2-0.5 16.1-0.6 16.1-1 15.8-1.1 15.8-1.4 15.5-1.4 15.6-1.8 15.3-1.8 15.3-2 15.2-2.3 15.2-2.2 15-2.5 15-2.4 14.9-2.6 14.9-2.8 14.9-2.7 14.7-2.9 14.9-2.9 14.7-2.9 14.7-3 14.7-3.1 14.9-3 14.7-3 14.7-2.9 14.8-3 14.9-3 14.9-2.9 1.2-0.2 1.3-0.2 1.2-0.2 1.3-0.2 1.2-0.1 1.3-0.2 1.2-0.1 1.3-0.1 1.2-0.1 1.2-0.1 1.3-0.1 1.2-0.1h1.3l1.2-0.1h1.3 1.2 1.3 1.2 1.3l1.2 0.1h1.3l1.2 0.1 1.3 0.1 1.2 0.1 1.3 0.1 1.3 0.1 1.2 0.2 1.3 0.1 1.2 0.2 1.3 0.2 1.2 0.2 1.2 0.2 19 2.7 18.8 2.9 18.5 3 18.1 2.9 17.9 3.2 17.6 3.1 17.2 2.9 17.1 3.2 16.8 3.1 16.7 3.1 16.3 3 16.1 2.9 16.1 2.9 15.9 2.9 15.6 2.7 15.5 2.6 15.5 2.5 15.3 2.5 15.2 2.2 15.1 2.1 15 1.8 15.1 1.8 14.9 1.6 15 1.4 14.9 1.1 15 0.8 15 0.8 15 0.3 15 0.2 15.2-0.2 32.9-0.8v249h-1051.2z"/>
	<g id="Group 6">
		<path id="Object 7" fill-rule="evenodd" class="s0" d="m188.3 214.1l-1.7 5.9-0.4 1.4-0.5 1.3-0.4 1.4-0.5 1.3-0.5 1.3-0.5 1.3-0.5 1.3-0.6 1.2-0.5 1.3-0.6 1.2-0.6 1.1-0.6 1.2-0.7 1.1-0.6 1.2-0.7 1.1-0.7 1-0.7 1.1-0.7 1-0.7 1.1-0.8 1-0.8 0.9-0.8 1-0.8 0.9-0.8 0.9-0.9 0.9-0.8 0.9-0.9 0.8-0.9 0.8-1 0.8-0.9 0.8-1 0.7-1 0.8-1 0.6-1 0.7-1 0.6-1 0.7-1.1 0.6-1.1 0.5-1 0.6-1.2 0.5-1.1 0.5-1.1 0.5-1.1 0.5-1.2 0.4-1.2 0.4-1.2 0.4-1.2 0.4-1.2 0.3-1.2 0.3-1.3 0.3-1.2 0.3-1.3 0.2-1.3 0.3-1.3 0.2-1.3 0.2-1.3 0.1-1.4 0.2-1.3 0.1-1.4 0.1-1.4 0.1h-1.4l-1.4 0.1h-1.4l-1.7-0.1h-1.8l-1.7-0.1-1.7-0.1-1.7-0.2-1.7-0.2-1.7-0.3-1.6-0.2-1.6-0.4-1.7-0.3-1.5-0.4-1.6-0.5-1.6-0.4-1.5-0.5-1.5-0.6-1.5-0.6-1.5-0.6-1.5-0.7-1.4-0.7-1.4-0.8-1.4-0.7-1.4-0.9-1.4-0.8-1.3-0.9-1.4-1-1.2-1-1.3-1-1.3-1-1.2-1.1-1.2-1.1-1.2-1.2-1.2-1.2-1.1-1.2-1.1-1.3-1.1-1.2-1-1.4-1-1.3-1-1.4-0.9-1.4-0.9-1.4-0.9-1.5-0.8-1.4-0.8-1.5-0.7-1.6-0.7-1.5-0.7-1.6-0.7-1.6-0.6-1.7-0.5-1.6-0.5-1.7-0.5-1.7-0.5-1.7-0.4-1.8-0.4-1.8-0.3-1.8-0.3-1.8-0.3-1.9-0.2-1.9-0.2-1.8-0.2-2-0.1-1.9-0.1-2v-2l-0.1-2 0.1-2.1v-2.2l0.1-2 0.1-2.1 0.2-2 0.2-2 0.2-2 0.3-1.9 0.3-2 0.3-1.9 0.4-1.8 0.4-1.9 0.5-1.8 0.5-1.8 0.5-1.7 0.5-1.7 0.6-1.7 0.7-1.7 0.7-1.7 0.7-1.6 0.7-1.6 0.8-1.5 0.8-1.5 0.9-1.5 0.9-1.5 0.9-1.5 1-1.4 1-1.3 1.1-1.4 1.1-1.3 1.1-1.3 1.1-1.3 1.2-1.2 1.2-1.1 1.2-1.2 1.3-1.1 1.2-1 1.3-1.1 1.4-1 1.3-0.9 1.4-0.9 1.4-0.9 1.4-0.8 1.4-0.8 1.5-0.8 1.5-0.7 1.5-0.7 1.5-0.6 1.6-0.6 1.5-0.6 1.6-0.5 1.6-0.5 1.7-0.4 1.6-0.5 1.7-0.3 1.7-0.3 1.7-0.3 1.7-0.3 1.8-0.2 1.8-0.2 1.8-0.1 1.8-0.1h1.8l1.8-0.1h1.7l1.6 0.1 1.6 0.1 1.5 0.1 1.6 0.1 1.5 0.2 1.5 0.2 1.5 0.2 1.5 0.2 1.5 0.3 1.5 0.3 1.4 0.4 1.4 0.4 1.4 0.4 1.4 0.4 1.4 0.5 1.3 0.5 1.4 0.5 1.3 0.6 1.3 0.6 1.3 0.6 1.2 0.7 1.3 0.7 1.2 0.7 1.2 0.7 1.2 0.8 1.1 0.8 1.2 0.9 1.1 0.9 1.1 0.9 1.1 0.9 1 1 0.7 0.6 0.6 0.6 0.6 0.6 0.6 0.7 0.6 0.7 0.6 0.6 0.6 0.8 0.6 0.7 0.5 0.7 0.6 0.7 0.5 0.8 0.5 0.8 0.5 0.8 0.5 0.7 0.5 0.9 0.5 0.8 0.5 0.8 0.4 0.9 0.5 0.8 0.4 0.9 0.4 0.9 0.4 0.9 0.4 0.9 0.4 1 0.4 0.9 0.3 1 0.4 1 0.3 0.9 0.4 1 0.3 1.1 0.3 1 1.7 5.9-36.4 8.6-1.3-5.3-0.2-0.5-0.1-0.5-0.2-0.6-0.2-0.5-0.1-0.5-0.2-0.5-0.2-0.5-0.2-0.5-0.2-0.5-0.2-0.4-0.2-0.5-0.3-0.4-0.2-0.5-0.5-0.8-0.3-0.5-0.2-0.4-0.3-0.4-0.3-0.4-0.3-0.3-0.3-0.4-0.3-0.4-0.3-0.4-0.3-0.3-0.4-0.4-0.3-0.3-0.3-0.3-0.4-0.4-0.4-0.3-0.3-0.3-0.4-0.3-0.4-0.3-0.4-0.3-0.4-0.3-0.4-0.2-0.4-0.3-0.4-0.3-0.4-0.2-0.4-0.2-0.5-0.2-0.8-0.4-0.9-0.4-0.5-0.2-0.5-0.1-0.4-0.2-0.5-0.1-0.5-0.2-0.5-0.1-0.5-0.1-0.5-0.1-0.5-0.1-0.5-0.1-0.5-0.1-0.6-0.1h-0.5l-0.6-0.1h-0.5l-0.6-0.1h-0.6-0.5-0.6-0.8-0.8l-0.8 0.1h-0.8l-0.7 0.1-0.8 0.1-0.7 0.1-0.7 0.2-0.7 0.1-0.7 0.2-0.7 0.2-0.7 0.2-0.7 0.2-0.6 0.2-0.7 0.2-0.6 0.3-0.6 0.3-0.7 0.3-0.6 0.3-0.6 0.3-0.6 0.4-0.5 0.3-0.6 0.4-0.6 0.4-0.5 0.4-0.6 0.5-0.5 0.4-0.6 0.5-0.5 0.5-0.5 0.5-0.5 0.5-0.5 0.6-0.4 0.5-0.5 0.6-0.4 0.6-0.5 0.6-0.4 0.6-0.4 0.7-0.4 0.7-0.3 0.8-0.4 0.7-0.3 0.8-0.4 0.8-0.3 0.9-0.3 0.8-0.3 0.9-0.3 1-0.3 0.9-0.2 1-0.3 1-0.2 1-0.2 1.1-0.2 1.1-0.1 1.1-0.2 1.2-0.1 1.2-0.2 1.2-0.1 1.2-0.1 1.3-0.1 1.3v1.3l-0.1 1.3v1.4 1.4 1.5 1.5l0.1 1.4v1.4l0.1 1.4 0.1 1.3 0.1 1.4 0.2 1.3 0.1 1.2 0.2 1.2 0.1 1.2 0.2 1.2 0.2 1.1 0.2 1.1 0.3 1.1 0.2 1 0.3 1 0.3 1 0.3 1 0.3 0.9 0.3 0.8 0.3 0.9 0.4 0.8 0.3 0.8 0.4 0.7 0.4 0.8 0.4 0.7 0.4 0.6 0.4 0.6 0.4 0.6 0.5 0.6 0.4 0.6 0.5 0.5 0.5 0.5 0.5 0.6 0.5 0.5 0.6 0.4 0.5 0.5 0.6 0.5 0.5 0.4 0.6 0.4 0.5 0.4 0.6 0.4 0.6 0.3 0.6 0.4 0.6 0.3 0.6 0.3 0.6 0.3 0.6 0.2 0.6 0.3 0.7 0.2 0.6 0.2 0.7 0.3 0.6 0.1 0.7 0.2 0.7 0.2 0.7 0.1 0.7 0.1 0.8 0.1 0.7 0.1h0.7l0.8 0.1h0.8 0.8 0.5 0.6 0.5l0.6-0.1h0.5l0.6-0.1 0.5-0.1h0.5l0.5-0.1 0.5-0.1 0.5-0.2 0.5-0.1 0.5-0.1 0.5-0.2 0.5-0.1 0.4-0.2 0.5-0.2 0.5-0.2 0.4-0.2 0.5-0.2 0.4-0.2 0.5-0.2 0.4-0.3 0.5-0.3 0.4-0.2 0.4-0.3 0.5-0.3 0.4-0.3 0.4-0.3 0.4-0.3 0.4-0.4 0.4-0.3 0.4-0.3 0.4-0.4 0.4-0.4 0.3-0.4 0.4-0.4 0.4-0.4 0.3-0.4 0.4-0.5 0.3-0.4 0.4-0.5 0.3-0.5 0.3-0.5 0.4-0.5 0.3-0.5 0.3-0.6 0.3-0.6 0.3-0.6 0.3-0.6 0.3-0.6 0.3-0.6 0.3-0.7 0.2-0.7 0.3-0.7 0.3-0.7 0.2-0.7 0.3-0.7 0.2-0.8 0.2-0.8 0.3-0.7 0.2-0.8 0.2-0.9 1.4-5.9zm100.5 48.4l-11.7-30.1h-46.7l-11 30.1h-39.4l56.1-141.9h35.3l57.5 141.9zm41.9-141.9h49.2l20.5 76.1 20.2-76.1h49.4v141.9h-35v-69.9l-17.9 69.9h-33.7l-17.8-69.9v69.9h-34.9zm150.9 70.6v-1.3-1.3-1.3l0.1-1.3 0.1-1.2v-1.2l0.1-1.3 0.1-1.2 0.2-1.2 0.1-1.2 0.1-1.1 0.2-1.2 0.2-1.1 0.1-1.2 0.2-1.1 0.2-1.1 0.3-1.1 0.2-1.1 0.2-1.1 0.3-1.1 0.3-1 0.2-1.1 0.3-1 0.4-1 0.3-1 0.3-1 0.4-1 0.3-1 0.4-0.9 0.4-1 0.4-0.9 0.3-0.7 0.7-1.3 0.3-0.7 0.3-0.7 0.4-0.6 0.3-0.7 0.4-0.6 0.4-0.7 0.3-0.6 0.4-0.6 0.4-0.7 0.4-0.6 0.8-1.3 0.4-0.6 0.4-0.6 0.5-0.6 0.4-0.6 0.9-1.2 0.9-1.2 0.5-0.5 0.5-0.6 0.5-0.6 0.5-0.5 0.5-0.6 0.5-0.6 0.5-0.5 0.5-0.6 0.5-0.5 0.6-0.5 0.5-0.6 1.1-1 0.6-0.5 0.5-0.5 0.6-0.5 1.1-0.9 0.6-0.5 0.5-0.4 0.6-0.5 0.6-0.4 0.6-0.4 0.6-0.5 0.6-0.4 0.6-0.4 0.6-0.4 0.6-0.4 0.6-0.3 0.6-0.4 1.2-0.7 0.6-0.4 0.7-0.3 0.6-0.3 0.6-0.4 0.7-0.3 0.6-0.3 0.6-0.3 0.7-0.2 0.6-0.3 0.9-0.4 0.8-0.3 0.9-0.3 0.9-0.3 0.8-0.3 0.9-0.3 0.9-0.3 0.9-0.3 0.9-0.2 0.9-0.3 1-0.2 0.9-0.2 0.9-0.3 1-0.2 0.9-0.1 1-0.2 0.9-0.2 1-0.2 1-0.1 1-0.1 1-0.2 1-0.1 1-0.1 1-0.1h1l1-0.1 1.1-0.1h1l1.1-0.1h1 1.1 1.1 1.9l1.9 0.1 1.9 0.1 1.9 0.1 1.8 0.2 1.9 0.2 1.8 0.2 1.8 0.3 1.7 0.3 1.8 0.4 1.7 0.4 1.7 0.4 1.7 0.5 1.6 0.5 1.7 0.6 1.6 0.6 1.6 0.6 1.5 0.7 1.6 0.7 1.5 0.7 1.5 0.8 1.5 0.9 1.4 0.8 1.4 0.9 1.4 1 1.4 1 1.3 1 1.3 1 1.3 1.1 1.3 1.1 1.2 1.2 1.2 1.2 1.2 1.3 1.2 1.2 1.1 1.3 1.1 1.4 1 1.3 1 1.4 1 1.4 0.9 1.5 0.9 1.5 0.8 1.5 0.8 1.5 0.8 1.6 0.7 1.6 0.7 1.6 0.7 1.6 0.6 1.7 0.6 1.7 0.5 1.7 0.5 1.8 0.5 1.8 0.4 1.8 0.4 1.8 0.4 1.9 0.3 1.8 0.3 1.9 0.2 2 0.2 1.9 0.2 2 0.1 2 0.1 2.1 0.1 2v2.1 2.1l-0.1 2.1-0.1 2-0.1 2-0.2 2-0.2 1.9-0.2 1.9-0.3 1.9-0.3 1.9-0.3 1.9-0.4 1.8-0.4 1.8-0.5 1.8-0.5 1.7-0.5 1.7-0.6 1.7-0.6 1.7-0.7 1.6-0.7 1.7-0.7 1.6-0.8 1.5-0.8 1.6-0.8 1.5-0.9 1.4-0.9 1.5-1 1.4-1 1.4-1 1.4-1.1 1.3-1.1 1.3-1.2 1.3-1.1 1.2-1.2 1.2-1.3 1.2-1.2 1.1-1.3 1.1-1.3 1-1.3 1.1-1.4 0.9-1.4 1-1.4 0.9-1.4 0.8-1.5 0.9-1.5 0.8-1.5 0.7-1.5 0.7-1.6 0.7-1.6 0.6-1.6 0.6-1.6 0.5-1.7 0.6-1.6 0.4-1.7 0.5-1.7 0.4-1.8 0.3-1.7 0.3-1.8 0.3-1.8 0.3-1.8 0.2-1.9 0.1-1.8 0.2h-1.9l-1.9 0.1h-2-1.9l-1.9-0.1h-1.9l-1.9-0.2-1.9-0.1-1.8-0.2-1.8-0.3-1.8-0.3-1.8-0.3-1.8-0.3-1.7-0.4-1.7-0.5-1.7-0.4-1.7-0.6-1.6-0.5-1.6-0.6-1.6-0.6-1.6-0.7-1.5-0.7-1.6-0.7-1.5-0.8-1.4-0.8-1.5-0.9-1.4-0.9-1.4-0.9-1.4-1-1.3-1-1.4-1.1-1.3-1.1-1.2-1.1-1.3-1.2-1.2-1.2-1.1-1.2-1.2-1.3-1.1-1.3-1-1.3-1.1-1.3-1-1.4-0.9-1.4-0.9-1.4-0.9-1.5-0.8-1.5-0.8-1.5-0.8-1.6-0.7-1.5-0.7-1.6-0.6-1.6-0.6-1.7-0.6-1.7-0.5-1.7-0.5-1.7-0.5-1.7-0.4-1.8-0.4-1.8-0.3-1.8-0.3-1.9-0.3-1.9-0.2-1.8-0.2-2-0.2-1.9-0.1-2-0.1-2v-2-2zm37.6 1.6v1.3l0.1 1.3v1.3l0.1 1.2 0.1 1.2 0.2 1.2 0.1 1.1 0.2 1.2 0.1 1.1 0.2 1.1 0.3 1 0.2 1.1 0.2 1 0.3 1 0.3 1 0.3 0.9 0.3 0.9 0.4 0.9 0.3 0.9 0.4 0.9 0.4 0.8 0.4 0.8 0.4 0.8 0.4 0.8 0.5 0.7 0.4 0.7 0.5 0.7 0.5 0.7 0.5 0.7 0.6 0.6 0.5 0.6 0.6 0.7 0.6 0.6 0.6 0.6 0.6 0.5 0.6 0.6 0.6 0.5 0.7 0.5 0.6 0.5 0.6 0.5 0.7 0.4 0.7 0.4 0.6 0.4 0.7 0.4 0.7 0.3 0.7 0.4 0.7 0.3 0.7 0.3 0.7 0.3 0.8 0.2 0.7 0.3 0.8 0.2 0.7 0.2 0.8 0.2 0.8 0.2 0.8 0.1 0.8 0.1 0.8 0.1 0.9 0.1 0.8 0.1 0.9 0.1h0.8 0.9 0.9 0.9l0.9-0.1 0.8-0.1 0.9-0.1 0.8-0.1 0.8-0.1 0.8-0.1 0.8-0.2 0.8-0.2 0.7-0.2 0.8-0.2 0.7-0.3 0.8-0.2 0.7-0.3 0.7-0.3 0.7-0.3 0.7-0.3 0.6-0.4 0.7-0.4 0.7-0.4 0.6-0.4 0.7-0.4 0.6-0.5 0.6-0.4 0.7-0.5 0.6-0.5 0.6-0.6 0.6-0.5 0.6-0.6 0.5-0.6 0.6-0.6 0.6-0.7 0.5-0.6 0.5-0.7 0.5-0.6 0.5-0.7 0.4-0.8 0.5-0.7 0.4-0.8 0.4-0.8 0.4-0.8 0.4-0.8 0.3-0.9 0.4-0.9 0.3-0.9 0.3-0.9 0.3-1 0.3-1 0.3-1 0.2-1 0.3-1.1 0.2-1.1 0.2-1.1 0.1-1.1 0.2-1.2 0.1-1.2 0.2-1.2 0.1-1.2 0.1-1.3v-1.3l0.1-1.3v-1.3-1.4-1.3-1.3l-0.1-1.3v-1.3l-0.1-1.2-0.1-1.2-0.1-1.2-0.2-1.2-0.1-1.1-0.2-1.1-0.2-1.1-0.2-1.1-0.2-1-0.3-1-0.2-1-0.3-1-0.3-0.9-0.3-1-0.3-0.8-0.4-0.9-0.3-0.9-0.4-0.8-0.4-0.8-0.4-0.8-0.4-0.7-0.4-0.8-0.5-0.7-0.4-0.7-0.5-0.6-0.5-0.7-0.5-0.6-0.5-0.6-0.6-0.6-0.5-0.6-0.6-0.5-0.6-0.5-0.6-0.6-0.5-0.4-0.7-0.5-0.6-0.5-0.6-0.4-0.6-0.4-0.7-0.4-0.6-0.4-0.7-0.3-0.7-0.4-0.7-0.3-0.7-0.3-0.7-0.3-0.7-0.2-0.7-0.3-0.8-0.2-0.8-0.2-0.8-0.2-0.8-0.2-0.8-0.1-0.8-0.2-0.9-0.1-0.8-0.1-0.9-0.1h-0.9l-0.9-0.1h-0.9-1-0.9-0.9l-0.9 0.1h-0.9l-0.9 0.1-0.8 0.1-0.9 0.1-0.8 0.2-0.8 0.1-0.8 0.2-0.8 0.2-0.8 0.2-0.7 0.3-0.8 0.2-0.7 0.3-0.7 0.3-0.8 0.3-0.7 0.3-0.6 0.4-0.7 0.3-0.7 0.4-0.6 0.4-0.7 0.5-0.6 0.4-0.7 0.5-0.6 0.4-0.6 0.5-0.6 0.6-0.5 0.5-0.6 0.6-0.6 0.5-0.6 0.7-0.5 0.6-0.5 0.6-0.5 0.6-0.5 0.7-0.4 0.7-0.5 0.7-0.4 0.7-0.5 0.8-0.4 0.7-0.3 0.8-0.4 0.9-0.4 0.8-0.3 0.9-0.4 0.9-0.3 0.9-0.3 0.9-0.2 1-0.3 1-0.2 1-0.3 1.1-0.2 1.1-0.2 1.1-0.2 1.1-0.1 1.1-0.2 1.2-0.1 1.2-0.1 1.2-0.1 1.3v1.2l-0.1 1.3v1.4 1.3zm164.2 31.5v-0.1l-0.1-0.1-0.1-0.1v-0.1l-0.1-0.1v-0.1l-0.1-0.1v-0.1l-0.1-0.1-0.1-0.2-0.1-0.1-0.1-0.2v-0.1l-0.1-0.1-0.1-0.3-0.1-0.1-0.2-0.3-0.1-0.2-0.1-0.1-0.1-0.2-0.1-0.2-0.1-0.2-0.1-0.2-0.2-0.4-0.1-0.2-0.2-0.3-0.1-0.2-0.1-0.3-0.3-0.5-0.2-0.3-0.2-0.3-0.3-0.7-0.3-0.6-0.2-0.4-0.4-0.6-0.3-0.5-0.3-0.6-0.3-0.5-0.2-0.5-0.3-0.5-0.3-0.5-0.3-0.5-0.3-0.4-0.2-0.5-0.3-0.4-0.2-0.4-0.3-0.4-0.3-0.4-0.2-0.3-0.2-0.4-0.3-0.3-0.2-0.3-0.2-0.3-0.2-0.3-0.2-0.2-0.2-0.3-0.2-0.2-0.2-0.2-0.2-0.2-0.1-0.2-0.2-0.1-0.1-0.2-0.2-0.1-0.1-0.1h-0.1l-0.1-0.1-0.1-0.1-0.1-0.1h-0.1l-0.1-0.1-0.1-0.1h-0.1l-0.1-0.1h-0.2l-0.1-0.1-0.2-0.1h-0.2l-0.1-0.1h-0.2l-0.2-0.1-0.2-0.1h-0.2v57.4h-36.8v-142h36.8v55.4l0.1-0.1 0.3-0.1 0.3-0.1 0.3-0.1 0.3-0.1 0.2-0.1 0.3-0.1 0.2-0.1 0.2-0.1 0.2-0.1 0.2-0.1 0.1-0.1 0.2-0.1 0.1-0.1 0.2-0.1 0.1-0.1 0.1-0.1 0.1-0.1 0.1-0.1v-0.1l0.1-0.1 0.2-0.1 0.1-0.2 0.2-0.3 0.1-0.2 0.2-0.3 0.2-0.4 0.2-0.3 0.3-0.4 0.2-0.4 0.2-0.5 0.3-0.5 0.5-1 0.3-0.6 0.3-0.6 0.3-0.6 0.3-0.7 0.3-0.7 0.3-0.7 0.4-0.7 0.3-0.8 0.3-0.8 0.4-0.8 0.3-0.8 0.4-0.9 0.4-0.9 0.7-1.9 0.4-1 0.4-1 0.4-1 0.6-1.4 0.5-1.3 0.6-1.3 0.5-1.3 0.6-1.2 0.5-1.2 0.6-1.2 0.5-1.2 0.6-1.1 0.5-1.1 0.6-1 0.6-1.1 0.5-1 0.6-0.9 0.6-1 0.5-0.9 0.6-0.9 0.6-0.8 0.6-0.9 0.5-0.8 0.6-0.7 0.6-0.8 0.6-0.7 0.6-0.7 0.7-0.6 0.6-0.7 0.6-0.6 0.6-0.6 0.7-0.5 0.7-0.5 0.6-0.5 0.7-0.4 0.7-0.5 0.7-0.3 0.7-0.4 0.7-0.4 0.8-0.3 0.7-0.4 0.8-0.3 0.8-0.3 0.8-0.2 0.8-0.3 0.9-0.3 0.8-0.2 0.9-0.2 0.9-0.2 0.9-0.2 0.9-0.2 0.9-0.2 1-0.1 1-0.2 0.9-0.1 1.1-0.1 1-0.1 1-0.1 1.1-0.1 1-0.1 1.1-0.1h1.1l1.2-0.1h1.1 1.2 1.2 1.1 0.1 0.1 0.1l0.2-0.1h0.1 0.1 0.2 0.1 0.1 0.2 0.2 0.2 0.1 0.2 0.3 0.2 0.1 0.2l0.2-0.1h0.4 0.2 0.2 5.1v29.7l-8.8-0.3h-0.4-0.5-0.4-0.5-0.4l-0.8 0.1h-0.5-0.3-0.4l-0.4 0.1h-0.4l-0.3 0.1h-0.4-0.3l-0.3 0.1h-0.3l-0.3 0.1-0.3 0.1h-0.3l-0.2 0.1h-0.3l-0.2 0.1-0.3 0.1h-0.2l-0.2 0.1-0.2 0.1h-0.1l-0.2 0.1-0.2 0.1h-0.1l-0.2 0.1-0.5 0.3-0.1 0.1-0.5 0.3-0.1 0.2-0.3 0.2-0.1 0.1-0.2 0.1-0.1 0.2-0.4 0.3-0.1 0.2-0.2 0.1-0.1 0.2-0.1 0.1-0.2 0.2-0.1 0.1-0.1 0.2-0.1 0.1-0.1 0.2-0.1 0.2-0.2 0.1-0.1 0.2-0.1 0.2-0.1 0.2-0.1 0.2-0.2 0.3-0.1 0.2-0.1 0.2-0.2 0.3-0.1 0.3-0.2 0.3-0.1 0.3-0.2 0.4-0.2 0.3-0.1 0.4-0.2 0.4-0.2 0.5-0.2 0.4-0.2 0.5-0.2 0.5-0.2 0.5-0.2 0.5-0.2 0.5-0.3 0.6-0.2 0.6-0.2 0.6-0.3 0.6-0.2 0.6-0.3 0.7-0.2 0.6-0.3 0.7-0.2 0.7-0.3 0.8-0.3 0.7-0.3 0.7-0.2 0.8-0.3 0.8-0.2 0.4-0.1 0.5-0.2 0.4-0.2 0.4-0.1 0.5-0.2 0.4-0.3 0.9-0.2 0.4-0.2 0.4-0.3 0.8-0.2 0.4-0.2 0.4-0.1 0.4-0.4 0.8-0.5 1.1-0.2 0.4-0.4 0.7-0.2 0.4-0.2 0.3-0.2 0.4-0.2 0.3-0.2 0.3-0.2 0.4-0.2 0.3-0.2 0.3-0.2 0.4-0.2 0.4-0.3 0.4-0.3 0.3-0.2 0.4-0.3 0.4-0.3 0.3-0.3 0.4-0.3 0.3-0.4 0.4-0.3 0.3-0.3 0.3-0.4 0.4-0.3 0.3-0.4 0.3-0.2 0.3 0.6 0.4 0.5 0.3 0.6 0.4 0.5 0.4 0.6 0.4 0.5 0.4 0.5 0.5 0.5 0.4 0.5 0.4 0.5 0.5 0.5 0.5 0.5 0.5 0.4 0.4 0.5 0.5 0.4 0.6 0.5 0.5 0.4 0.5 0.4 0.6 0.4 0.5 0.4 0.5 0.4 0.6 0.4 0.5 0.4 0.6 0.4 0.5 0.4 0.6 0.4 0.6 0.4 0.6 0.5 0.7 0.4 0.6 0.4 0.6 0.4 0.7 0.4 0.7 0.4 0.6 0.4 0.7 0.5 0.8 0.4 0.7 0.4 0.7 0.4 0.7 0.5 0.8 0.4 0.8 0.4 0.7 0.5 0.8 0.4 0.8 0.4 0.8 0.5 0.9 0.4 0.8 0.5 0.9 0.4 0.8 0.5 0.9 0.4 0.9 21.8 43.3h-42.8l-17.4-37-0.1-0.1v-0.1l-0.1-0.1v-0.1l-0.1-0.1v-0.1l-0.1-0.2-0.1-0.1v-0.1l-0.1-0.1v-0.1zm57.8-33.2v-1.3l0.1-1.3v-1.2l0.1-1.3v-1.2l0.1-1.3 0.1-1.2 0.1-1.2 0.1-1.2 0.2-1.2 0.1-1.2 0.1-1.1 0.2-1.2 0.2-1.1 0.2-1.2 0.2-1.1 0.2-1.1 0.2-1.1 0.3-1 0.2-1.1 0.3-1.1 0.3-1 0.3-1 0.3-1.1 0.3-1 0.4-1 0.3-0.9 0.4-1 0.4-1 0.4-0.9 0.4-1 0.3-0.7 0.3-0.7 0.4-0.6 0.3-0.7 0.4-0.7 0.3-0.6 0.4-0.7 0.3-0.6 0.4-0.6 0.8-1.3 0.3-0.6 0.4-0.7 0.4-0.6 0.5-0.6 0.4-0.6 0.4-0.6 0.8-1.2 0.5-0.6 0.4-0.6 0.5-0.6 0.4-0.6 0.5-0.5 0.5-0.6 0.5-0.6 0.9-1.1 0.5-0.6 0.5-0.5 0.6-0.6 0.5-0.5 0.5-0.6 0.6-0.5 0.5-0.5 0.6-0.5 0.5-0.5 0.6-0.5 0.5-0.5 0.6-0.5 0.6-0.5 1.1-0.9 0.6-0.4 0.6-0.5 0.5-0.4 0.6-0.4 0.6-0.4 0.6-0.4 0.6-0.4 0.6-0.4 0.6-0.4 0.6-0.4 1.3-0.7 0.6-0.3 0.6-0.4 0.6-0.3 0.7-0.3 0.6-0.3 1.3-0.6 0.6-0.3 0.7-0.2 0.8-0.4 0.9-0.3 0.9-0.4 0.8-0.3 1.8-0.6 0.9-0.2 0.9-0.3 0.9-0.3 0.9-0.2 1-0.3 0.9-0.2 0.9-0.2 1-0.2 0.9-0.2 1-0.2 0.9-0.1 1-0.2 1-0.1 1-0.2 1-0.1 1-0.1 1-0.1 1-0.1 1-0.1 1-0.1h1.1l1-0.1h1.1 1 1.1l1-0.1 2 0.1h1.9l1.9 0.1 1.8 0.2 1.9 0.1 1.8 0.2 1.8 0.3 1.8 0.3 1.8 0.3 1.7 0.3 1.8 0.4 1.7 0.5 1.7 0.5 1.6 0.5 1.6 0.5 1.7 0.6 1.6 0.7 1.5 0.6 1.6 0.7 1.5 0.8 1.5 0.8 1.4 0.8 1.5 0.9 1.4 0.9 1.4 0.9 1.4 1 1.3 1 1.4 1.1 1.3 1.1 1.2 1.1 1.3 1.2 1.2 1.2 1.2 1.2 1.1 1.3 1.2 1.3 1 1.3 1.1 1.4 1 1.4 0.9 1.4 0.9 1.5 0.9 1.4 0.9 1.5 0.8 1.6 0.7 1.5 0.8 1.6 0.7 1.7 0.6 1.6 0.6 1.7 0.6 1.7 0.6 1.7 0.5 1.8 0.4 1.7 0.4 1.8 0.4 1.9 0.4 1.8 0.3 1.9 0.3 1.9 0.2 1.9 0.2 2 0.2 2 0.1 2 0.1 2v2.1 2.1 2.1 2l-0.1 2-0.1 2-0.2 2-0.2 2-0.2 1.9-0.3 1.9-0.3 1.9-0.4 1.8-0.4 1.8-0.4 1.8-0.4 1.8-0.5 1.8-0.6 1.7-0.5 1.7-0.7 1.7-0.6 1.6-0.7 1.6-0.7 1.6-0.8 1.6-0.8 1.5-0.8 1.5-0.9 1.5-0.9 1.4-1 1.5-0.9 1.3-1.1 1.4-1 1.3-1.1 1.3-1.2 1.3-1.1 1.3-1.3 1.2-1.2 1.1-1.3 1.2-1.3 1.1-1.3 1-1.3 1-1.4 1-1.4 0.9-1.4 0.9-1.4 0.9-1.5 0.8-1.5 0.8-1.5 0.8-1.6 0.7-1.5 0.6-1.6 0.7-1.6 0.5-1.6 0.6-1.7 0.5-1.7 0.5-1.7 0.4-1.7 0.4-1.7 0.4-1.8 0.3-1.8 0.3-1.8 0.2-1.8 0.2-1.8 0.2-1.9 0.1-1.9 0.1-1.9 0.1h-1.9-1.9l-2-0.1-1.9-0.1-1.9-0.1-1.8-0.2-1.9-0.2-1.8-0.2-1.8-0.3-1.8-0.3-1.7-0.4-1.7-0.4-1.8-0.4-1.6-0.5-1.7-0.5-1.6-0.5-1.7-0.6-1.6-0.7-1.5-0.6-1.6-0.7-1.5-0.8-1.5-0.8-1.5-0.8-1.4-0.9-1.4-0.9-1.4-0.9-1.4-1-1.3-1-1.3-1-1.3-1.1-1.3-1.2-1.2-1.1-1.2-1.2-1.2-1.2-1.1-1.3-1.1-1.3-1.1-1.3-1-1.4-1-1.3-1-1.4-0.9-1.5-0.9-1.4-0.8-1.5-0.8-1.5-0.8-1.6-0.7-1.6-0.7-1.6-0.6-1.6-0.6-1.6-0.6-1.7-0.6-1.7-0.4-1.7-0.5-1.8-0.4-1.8-0.4-1.7-0.3-1.9-0.3-1.8-0.3-1.9-0.3-1.9-0.2-1.9-0.1-2-0.1-1.9-0.1-2-0.1-2v-2.1zm37.6 1.7l0.1 1.3v1.3l0.1 1.2 0.1 1.3 0.1 1.2 0.1 1.1 0.2 1.2 0.1 1.1 0.2 1.2 0.2 1 0.2 1.1 0.2 1 0.3 1.1 0.3 1 0.3 0.9 0.3 1 0.3 0.9 0.3 0.9 0.4 0.9 0.3 0.8 0.4 0.9 0.4 0.8 0.4 0.7 0.5 0.8 0.4 0.8 0.5 0.7 0.5 0.7 0.5 0.7 0.5 0.6 0.5 0.7 0.6 0.6 0.5 0.6 0.6 0.6 0.6 0.6 0.6 0.6 0.7 0.5 0.6 0.6 0.6 0.5 0.6 0.4 0.7 0.5 0.6 0.4 0.7 0.5 0.7 0.4 0.7 0.3 0.6 0.4 0.7 0.3 0.7 0.4 0.8 0.3 0.7 0.2 0.7 0.3 0.8 0.2 0.7 0.3 0.8 0.2 0.8 0.2 0.7 0.1 0.8 0.2 0.8 0.1 0.9 0.1 0.8 0.1 0.9 0.1h0.8 0.9l0.9 0.1 0.9-0.1h0.9 0.8l0.9-0.1 0.8-0.1 0.8-0.1 0.9-0.1 0.8-0.2 0.7-0.1 0.8-0.2 0.8-0.2 0.7-0.3 0.8-0.2 0.7-0.3 0.7-0.2 0.7-0.3 0.7-0.3 0.7-0.4 0.7-0.3 0.7-0.4 0.6-0.4 0.7-0.4 0.6-0.4 0.7-0.5 0.6-0.5 0.6-0.5 0.6-0.5 0.6-0.5 0.6-0.6 0.6-0.6 0.6-0.6 0.6-0.6 0.5-0.6 0.5-0.6 0.5-0.7 0.5-0.7 0.5-0.7 0.5-0.7 0.4-0.8 0.5-0.7 0.4-0.8 0.4-0.8 0.4-0.9 0.3-0.9 0.4-0.8 0.3-0.9 0.4-1 0.3-0.9 0.2-1 0.3-1 0.3-1.1 0.2-1 0.2-1.1 0.2-1.1 0.2-1.2 0.2-1.1 0.1-1.2 0.1-1.2 0.1-1.3 0.1-1.2 0.1-1.3v-1.3l0.1-1.4v-1.3-1.3l-0.1-1.4v-1.2l-0.1-1.3-0.1-1.2-0.1-1.2-0.1-1.2-0.1-1.2-0.2-1.1-0.2-1.1-0.1-1.1-0.3-1.1-0.2-1-0.2-1.1-0.3-1-0.3-0.9-0.3-1-0.3-0.9-0.3-0.9-0.3-0.9-0.4-0.8-0.4-0.8-0.3-0.8-0.4-0.8-0.5-0.8-0.4-0.7-0.4-0.7-0.5-0.7-0.5-0.7-0.5-0.6-0.5-0.7-0.5-0.5-0.5-0.6-0.6-0.6-0.5-0.5-0.6-0.6-0.6-0.5-0.6-0.5-0.6-0.4-0.6-0.5-0.7-0.4-0.6-0.4-0.7-0.4-0.6-0.4-0.7-0.3-0.7-0.4-0.7-0.3-0.7-0.3-0.7-0.3-0.7-0.3-0.8-0.2-0.7-0.2-0.8-0.2-0.8-0.2-0.8-0.2-0.8-0.2-0.9-0.1-0.8-0.1-0.9-0.1-0.9-0.1-0.9-0.1h-0.9l-0.9-0.1h-0.9-1l-0.9 0.1h-0.9l-0.9 0.1-0.8 0.1-0.9 0.1-0.8 0.1-0.8 0.1-0.9 0.2-0.8 0.2-0.8 0.2-0.7 0.2-0.8 0.2-0.7 0.3-0.8 0.3-0.7 0.3-0.7 0.3-0.7 0.3-0.7 0.3-0.7 0.4-0.6 0.4-0.7 0.4-0.6 0.4-0.7 0.4-0.6 0.5-0.6 0.5-0.6 0.5-0.6 0.5-0.6 0.6-0.6 0.5-0.5 0.6-0.6 0.6-0.6 0.6-0.5 0.6-0.5 0.7-0.4 0.6-0.5 0.7-0.5 0.7-0.4 0.8-0.4 0.7-0.4 0.8-0.4 0.8-0.4 0.8-0.3 0.9-0.4 0.8-0.3 0.9-0.3 1-0.3 0.9-0.3 1-0.3 1-0.2 1-0.2 1-0.2 1.1-0.2 1.1-0.2 1.1-0.2 1.2-0.1 1.2-0.1 1.2-0.1 1.2-0.1 1.2-0.1 1.3v1.3l-0.1 1.3v1.4zm201.4 68.2l-0.7 0.1-0.7 0.1-0.7 0.1-0.7 0.1-0.7 0.1-0.8 0.1-0.5 0.1h-0.5l-0.6 0.1h-0.5l-0.7 0.1h-0.6-0.7l-0.7 0.1h-0.8-0.8l-0.8 0.1h-0.9-0.9l-0.9 0.1h-1-1l-1.1 0.1h-1-1.2-1.1-1.2l-1.3 0.1h-1.2-1.3-1.4-1.4l-1.4 0.1h-1.4-1.5-1.5-1.6-1.6-50.5v-141.9h59.4 1 0.9 1 0.9 0.9 1l0.8 0.1h0.9 0.9 0.8l0.9 0.1h0.8l0.8 0.1h0.8 0.8l0.7 0.1h0.8l0.7 0.1h0.7l0.7 0.1 0.7 0.1h0.7l0.6 0.1 0.7 0.1h0.6l0.6 0.1 0.6 0.1 0.6 0.1h0.6l0.5 0.1 0.6 0.1 0.5 0.1 0.6 0.1 0.5 0.1 0.5 0.1 0.6 0.1 0.5 0.2 1 0.2 0.6 0.2 1 0.3 0.5 0.1 0.5 0.2 0.5 0.2 0.5 0.2 0.5 0.2 0.5 0.2 0.5 0.2 0.5 0.2 0.5 0.2 0.5 0.2 0.5 0.3 0.5 0.2 0.9 0.5 0.5 0.3 0.5 0.2 0.4 0.3 0.5 0.3 0.5 0.3 0.4 0.3 0.4 0.3 0.5 0.3 0.4 0.3 0.4 0.3 0.4 0.3 0.5 0.3 0.4 0.3 0.4 0.4 0.4 0.3 0.4 0.4 0.4 0.3 0.3 0.4 0.4 0.3 0.4 0.4 0.4 0.4 0.7 0.7 0.8 0.8 0.3 0.4 0.4 0.4 0.3 0.5 0.3 0.4 0.4 0.4 0.3 0.4 0.3 0.5 0.3 0.4 0.4 0.5 0.3 0.4 0.3 0.5 0.6 0.9 0.3 0.5 0.3 0.5 0.3 0.5 0.2 0.6 0.3 0.5 0.3 0.5 0.2 0.5 0.3 0.6 0.2 0.5 0.2 0.5 0.2 0.6 0.2 0.5 0.2 0.6 0.4 1.1 0.3 1.1 0.2 0.6 0.1 0.5 0.1 0.6 0.1 0.6 0.2 0.6 0.1 1.1 0.1 0.6 0.1 0.6v0.6l0.1 0.6v0.6l0.1 0.6v0.6 0.6 0.6 0.7 0.6 0.7l-0.1 0.7v0.6l-0.1 0.7-0.1 0.6v0.6l-0.1 0.7-0.1 0.6-0.2 0.7-0.1 0.6-0.1 0.6-0.2 0.6-0.2 0.7-0.1 0.6-0.2 0.6-0.2 0.6-0.2 0.6-0.2 0.6-0.3 0.6-0.2 0.6-0.3 0.6-0.2 0.6-0.3 0.6-0.3 0.6-0.3 0.5-0.3 0.6-0.4 0.6-0.3 0.6-0.3 0.5-0.4 0.6-0.4 0.5-0.4 0.6-0.3 0.5-0.4 0.6-0.4 0.5-0.5 0.5-0.4 0.5-0.4 0.5-0.5 0.5-0.4 0.5-0.5 0.4-0.4 0.5-0.5 0.5-0.5 0.4-0.9 0.9-0.3 0.2 0.7 0.4 0.7 0.4 0.7 0.4 0.7 0.4 0.6 0.5 0.7 0.4 0.6 0.5 0.6 0.4 0.7 0.5 0.6 0.5 0.6 0.5 0.5 0.5 0.6 0.5 0.6 0.6 0.5 0.5 0.6 0.6 0.5 0.5 0.5 0.6 0.5 0.6 0.5 0.6 0.5 0.7 0.4 0.6 0.5 0.6 0.4 0.7 0.4 0.6 0.4 0.7 0.4 0.6 0.3 0.7 0.4 0.7 0.3 0.6 0.3 0.7 0.3 0.7 0.3 0.7 0.3 0.7 0.3 0.7 0.2 0.8 0.2 0.7 0.2 0.7 0.2 0.7 0.2 0.8 0.2 0.7 0.1 0.8 0.2 0.7 0.1 0.8 0.1 0.8 0.1 0.7 0.1 0.8v0.8l0.1 0.8v0.8l0.1 0.8v0.8 0.6l-0.1 0.6v0.7 0.6l-0.1 0.6v0.7l-0.1 0.6v0.6l-0.2 1.2-0.1 0.7-0.1 0.6-0.1 0.6-0.1 0.6-0.2 0.6-0.1 0.7-0.2 0.6-0.1 0.6-0.2 0.6-0.2 0.6-0.1 0.6-0.2 0.6-0.2 0.6-0.3 0.6-0.2 0.6-0.2 0.6-0.3 0.6-0.2 0.6-0.3 0.6-0.5 1.2-0.3 0.7-0.3 0.6-0.3 0.6-0.4 0.5-0.3 0.6-0.3 0.6-0.4 0.5-0.3 0.6-0.4 0.5-0.3 0.5-0.4 0.6-0.4 0.5-0.4 0.5-0.3 0.5-0.8 1-0.9 1-0.4 0.4-0.4 0.5-0.5 0.4-0.4 0.5-0.5 0.4-0.4 0.5-0.5 0.4-0.5 0.4-0.5 0.4-0.5 0.4-0.5 0.4-0.5 0.4-0.5 0.4-0.5 0.4-0.5 0.3-0.5 0.4-0.5 0.3-0.6 0.4-0.6 0.3-0.5 0.4-0.6 0.3-0.6 0.3-0.6 0.3-0.6 0.3-0.6 0.3-0.6 0.3-0.6 0.2-0.6 0.3-0.6 0.2-0.7 0.3-0.6 0.2-0.7 0.2-0.6 0.2-0.7 0.2-0.6 0.2-0.7 0.2-0.6 0.2-0.7 0.1-0.7 0.2-0.7 0.1zm-51.1-87.8h15.7 0.9 0.9 0.8 0.8 0.9 0.7 0.8 0.7 0.7l0.7-0.1h0.7 0.6 0.6 0.6 0.6 0.5l0.5-0.1h0.5 0.5 0.4 0.4l0.4-0.1h0.4 0.3 0.3l0.3-0.1h0.2 0.3 0.2l0.4-0.1h0.4l0.3-0.1h0.3l0.4-0.1 0.3-0.1h0.3l0.3-0.1 0.3-0.1 0.2-0.1h0.3l0.3-0.1 0.3-0.1 0.2-0.1 0.3-0.1 0.2-0.1 0.3-0.1 0.2-0.1 0.4-0.2 0.3-0.2 0.2-0.1 0.2-0.1 0.2-0.1 0.2-0.2 0.2-0.1 0.3-0.3 0.2-0.1 0.2-0.2 0.1-0.1 0.1-0.1 0.2-0.2 0.1-0.1 0.2-0.2 0.1-0.2 0.2-0.2 0.1-0.2 0.3-0.3 0.1-0.2 0.1-0.2 0.1-0.2 0.2-0.4 0.1-0.2 0.1-0.2 0.1-0.2 0.1-0.2v-0.2l0.1-0.2 0.1-0.3 0.1-0.4v-0.3l0.1-0.5 0.1-0.2v-0.3-0.3-0.3l0.1-0.3v-0.3-0.6-0.3-0.3l-0.1-0.2v-0.3-0.3l-0.1-0.5v-0.2l-0.1-0.2v-0.3l-0.1-0.2v-0.2l-0.1-0.2-0.1-0.5-0.2-0.3v-0.2l-0.1-0.2-0.1-0.2-0.1-0.2-0.1-0.2-0.2-0.3-0.1-0.2-0.1-0.1-0.1-0.2-0.1-0.2-0.2-0.1-0.1-0.2-0.1-0.2-0.2-0.1-0.1-0.1-0.1-0.2-0.2-0.1-0.1-0.1-0.1-0.1-0.2-0.2-0.1-0.1-0.2-0.1-0.2-0.1-0.1-0.1-0.2-0.1-0.2-0.1-0.4-0.2-0.2-0.1-0.2-0.1-0.2-0.1-0.3-0.1-0.2-0.1h-0.3l-0.2-0.1-0.5-0.2-0.6-0.1-0.3-0.1h-0.3l-0.3-0.1h-0.4l-0.3-0.1h-0.4-0.3l-0.2-0.1h-0.2-0.3-0.4l-0.4-0.1h-0.4-0.4-0.5l-0.5-0.1h-0.5-0.6-0.6-0.7l-0.6-0.1h-0.7-0.7-0.8-0.8-0.8-0.9-0.9-0.9-0.9l-1-0.1h-1-1-1.1-1-14.1zm0 57.5h21.9 0.9 0.8l0.8-0.1h0.8 0.8 0.7 0.7 0.7 0.7 0.7l0.6-0.1h0.6 0.6 0.6l0.5-0.1h0.5 0.5l0.5-0.1h0.4 0.5l0.4-0.1h0.4 0.3l0.3-0.1h0.3 0.3l0.2-0.1h0.2l0.2-0.1h0.3l0.4-0.1h0.3l0.3-0.1 0.2-0.1 0.6-0.1 0.2-0.1 0.3-0.1 0.2-0.1 0.3-0.1 0.2-0.1 0.2-0.1 0.5-0.2 0.4-0.2 0.3-0.1 0.2-0.1 0.2-0.2 0.2-0.1 0.2-0.1 0.2-0.2 0.2-0.1 0.2-0.1 0.3-0.3 0.2-0.2 0.2-0.2 0.3-0.3 0.2-0.2 0.1-0.1 0.2-0.1 0.1-0.2 0.3-0.4 0.1-0.2 0.2-0.2 0.1-0.2 0.1-0.2 0.1-0.2 0.2-0.4 0.1-0.2 0.1-0.3 0.1-0.2 0.1-0.2 0.2-0.5v-0.3l0.2-0.5v-0.3l0.1-0.3 0.1-0.2v-0.3-0.4l0.1-0.3v-0.3-0.3l0.1-0.3v-0.4-0.3-0.7-0.3-0.3l-0.1-0.2v-0.3-0.3-0.3l-0.1-0.2v-0.3-0.2l-0.1-0.5-0.1-0.3v-0.2l-0.1-0.2-0.1-0.3v-0.2l-0.1-0.2-0.1-0.2-0.1-0.2v-0.2l-0.2-0.4-0.2-0.4-0.2-0.4-0.2-0.4-0.1-0.2-0.1-0.2-0.1-0.1-0.1-0.1-0.1-0.2-0.2-0.1-0.1-0.2-0.2-0.2-0.1-0.1-0.2-0.2-0.1-0.2-0.2-0.1-0.1-0.2-0.2-0.1-0.2-0.2-0.2-0.1-0.1-0.1-0.2-0.2-0.2-0.1-0.2-0.1-0.2-0.2-0.2-0.1-0.2-0.1-0.2-0.2-0.2-0.1-0.2-0.1-0.5-0.3-0.2-0.1-0.3-0.1-0.2-0.1-0.3-0.1-0.2-0.1-0.3-0.1-0.2-0.1h-0.2l-0.2-0.1-0.3-0.1-0.3-0.1h-0.4l-0.4-0.1-0.4-0.1-0.5-0.1-0.5-0.1h-0.5l-0.6-0.1-0.6-0.1h-0.6l-0.6-0.1-0.7-0.1h-0.7l-0.7-0.1h-0.8l-0.8-0.1h-0.8l-0.8-0.1h-0.9-0.9l-0.9-0.1h-0.9-1-1-1l-1.1-0.1h-1.1-1.1-18zm-675.7-60.2l-11.2 30.1h22.5z"/>
		<path id="Object 8" fill-rule="evenodd" class="s2" d="m9 63l34.8 1 16.8 0.3h16.5l16.5-0.3 16.2-0.5 16.2-0.6 16-1 15.8-1.1 15.8-1.4 15.6-1.4 15.5-1.8 15.3-1.8 15.3-2 15.2-2.3 15.2-2.2 15.1-2.5 14.9-2.4 15-2.6 14.8-2.8 15-2.7 14.7-2.9 14.8-2.9 14.8-2.9 14.6-3 14.8-3.1 14.9-3 14.7-3 14.7-2.9 14.7-3 14.9-3 15-2.9 1.2-0.2 1.3-0.2 1.2-0.2 1.2-0.2 1.3-0.1 1.2-0.2 1.3-0.1 1.2-0.1 1.3-0.1 1.2-0.1 1.3-0.1 1.2-0.1h1.3l1.2-0.1h1.3 1.2 1.2 1.3 1.3l1.2 0.1h1.3l1.2 0.1 1.3 0.1 1.2 0.1 1.3 0.1 1.2 0.1 1.3 0.2 1.2 0.1 1.3 0.2 1.2 0.2 1.3 0.2 1.2 0.2 18.9 2.7 18.8 2.9 18.6 3 18 2.9 17.9 3.2 17.6 3.1 17.3 2.9 17 3.2 16.9 3.1 16.6 3.1 16.4 3 16.1 2.9 16.1 2.9 15.9 2.9 15.5 2.7 15.6 2.6 15.5 2.5 15.3 2.5 15.2 2.2 15 2.1 15.1 1.8 15.1 1.8 14.9 1.6 15 1.4 14.9 1.1 14.9 0.8 15.1 0.8 15 0.3 15 0.2 15.1-0.2 33-0.8v249h-1051.3zm1022.7 225v-191.6l-3.8 0.1-15.7 0.2-15.6-0.2-15.6-0.5-15.4-0.6-15.3-1-15.4-1.1-15.4-1.4-15.4-1.6-15.3-1.8-15.4-2-15.4-2.1-15.4-2.2-15.5-2.5-15.6-2.5-15.7-2.6-15.9-2.9-15.9-2.7-16.1-3-16.2-3-16.4-3-16.6-3.1-16.7-3-17-3.1-17.3-3.1-17.5-3.1-17.7-3-18-2.9-18.2-3-18.6-2.9-18.9-2.7-1.1-0.1-1.1-0.1-1.1-0.1-1.1-0.1-1.1-0.1-1.1-0.1-1.1-0.1-1-0.1-1.1-0.1h-1l-1-0.1h-1l-1-0.1h-0.9-1l-0.9-0.1h-1-0.9-0.9l-0.9 0.1h-0.9-0.9l-0.8 0.1-0.9 0.1h-0.8l-0.9 0.1-0.8 0.1-0.8 0.1-0.9 0.1-0.8 0.2-0.8 0.1-0.8 0.2-14.7 2.8-14.7 3-29.5 6-29.4 5.9-14.9 3-14.7 3-14.9 3-14.9 3-14.9 2.8-15 2.8-15 2.7-15.1 2.8-30.5 4.9-15.5 2.4-15.4 2.1-15.6 2.1-15.7 1.9-15.8 1.8-16 1.5-16.1 1.3-16.2 1.3-16.4 0.9-16.6 0.7-16.7 0.5-16.8 0.2h-17l-17.4-0.2-5.3-0.2v195.9z"/>
		<path id="Object 9" fill-rule="evenodd" class="s2" d="m219.8 1440.4v-3.8l-16.3-9.5-16.4-10.2-16.4-10.5-16-11-15.7-11.4-15.5-11.9-15.1-12.4-14.7-12.9-14.3-13.5-14-14.1-13.5-14.7-13.1-15.3-12.4-15.9-12.1-16.7-0.7-1.2-0.5-1-0.6-1-0.6-1.1-0.5-1-1.1-2.1-0.5-1-0.5-1.1-0.5-1.1-0.5-1-0.5-1.1-0.5-1.1-0.4-1.2-0.5-1.1-0.4-1.2-0.4-1.1-0.4-1.2-0.4-1.2-0.4-1.3-0.4-1.2-0.4-1.3-0.3-1.3-0.3-1.4-0.4-1.3-0.3-1.4-0.3-1.5-0.3-1.4-0.3-1.5-0.2-1.5-0.3-1.6-0.3-1.9 2.7-240.7 0.1-10 7.3-635.7h1052.9l-4.2 636.8v8.9l-1.6 254.6v0.6 0.2 0.5 0.2l-0.1 0.4v0.4 0.2 0.3l-0.1 0.2v0.2l-0.1 0.5v0.3l-0.1 0.5-0.1 0.2-0.1 0.3-0.2 0.5v0.2l-0.1 0.3-0.1 0.2-0.1 0.3-0.2 0.2-0.1 0.2-0.1 0.3-0.1 0.2-0.3 0.4-0.2 0.5-0.3 0.4-0.3 0.5-0.2 0.4-0.3 0.5-0.4 0.5-0.3 0.4-0.6 1-0.4 0.5-0.3 0.5-0.4 0.5-0.3 0.5-0.7 1-0.4 0.5-0.3 0.5-0.4 0.5-0.7 1-0.3 0.5-0.4 0.5-0.3 0.4-0.4 0.5-0.3 0.5-0.3 0.4-0.3 0.5-0.3 0.4-0.2 0.4-0.3 0.4-0.3 0.5-10.1 14-11 13.7-11.7 13.3-12.4 13.1-13.1 12.7-13.7 12.4-14.3 12.3-14.8 11.9-15.5 11.6-16 11.4-16.4 11.1-16.9 10.9-17.3 10.6-17.6 10.4-17.9 10.2-18.4 10-18.5 9.8-18.9 9.4-18.9 9.4-19.2 9.1-19.4 8.9-19.5 8.8-19.4 8.4-19.5 8.4-19.6 8.2-19.5 8-19.6 7.8-19.3 7.6-19.2 7.5-19.1 7.3-25.3 9.6-22.3-9.8-16.2-7.1-16.3-6.9-16.6-7.1-16.8-7.1-16.8-7.1-17-7.2-17.3-7.3-17.2-7.5-17.2-7.6-17.3-7.8-17.3-8-17.3-8.3-17.2-8.6-17.1-8.7-17.1-9.1-10.2-5.8zm704.6-492.8l-383-144.5-25.4-271.4-45.3 271.3-346.5 144.6z"/>
		<path id="Object 10" class="s1" d="m775.5 1411h-525.5v-423h525.5z"/>
		<path id="Object 11" class="s0" d="m529.3 359.5h505.5l-3.7 597.3-462.3-174.4z"/>
		<path id="Object 12" class="s2" d="m317 1400.1v-285.5l4.8-9.7 3.7-6.3 4.1-6 4.5-5.6 4.8-5.2 5.1-4.9 5.2-4.5 5.5-4.4 5.6-4 5.8-3.7 5.9-3.5 6.1-3.4 6.2-3.1 6.1-2.9 6.4-2.9 6.4-2.7 6.4-2.6 6.5-2.5 6.2-2.4 6.5-2.5 6.5-2.3 6.2-2.3 6.3-2.4 6.3-2.3 6.1-2.4 6-2.3 5.8-2.4 5.7-2.5 5.6-2.6 5.4-2.5 5.2-2.8 13.8-7.8 14.3 7.8 5.6 2.9 5.7 2.8 5.8 2.8 6.2 2.8 6.1 2.8 6.1 2.7 6.4 2.8 6.3 2.7 6.4 2.6 6.6 2.7 6.4 2.8 6.5 2.7 6.5 2.7 19.4 8.7 6.4 3 6.2 3.1 6.2 3.2 6.2 3.3 5.9 3.4 5.9 3.4 5.9 3.7 5.6 3.8 5.5 3.9 5.3 4.3 5 4.2 5 4.6 4.7 4.8 4.3 5.1 7.5 9.4 0.8 286.2z"/>
		<path id="Object 13" class="s3" d="m472.1 1191l2-3.8 2.6-3.3 3.3-3.2 3.7-2.8 4.3-2.3 4.7-2.1 5.2-1.4 5.3-0.9 5.4-0.5 5.3 0.1 5.1 0.7 4.9 1.1 4.3 1.7 4 2 3.2 2.3 2.6 2.7 2 2.9 1.6 3.5 1 4 0.4 5-0.5 5.8-1.7 6.9-3 8.2-4.4 9.1-8.8 14.3 0.5 73.3h153.2v17.7l-2.5 0.7-2.9 0.8-3 0.8-2.9 0.7-2.9 0.7-2.9 0.6-2.8 0.6-2.8 0.5-2.9 0.5-5.6 0.7-5.6 0.5-5.6 0.2h-2.7l-5.6-0.2-2.9-0.3-2.8-0.2-5.5-0.7-2.9-0.6-2.8-0.5-2.8-0.7-3-0.7-2.8-0.8-3-1-3-1-2.9-1-4-1.6-4.6-1.2-4.5-0.9-4.4-0.5-4.4-0.1-4.2 0.1-4.3 0.4-4 0.5-4.1 0.7-4.1 0.7-3.9 0.9-4 0.9-4 1-3.8 1-4 0.9-3.9 1-3.9 0.8-3.9 0.7-4.1 0.8-4 0.6-4 0.4-8.2 0.5h-4.1l-4.4-0.2-4.3-0.4-4.3-0.6-4.6-0.8-4.6-1.1c-36-10.9-92.5-14.6-126.3 3.3v-25.1h135.8l2.6-72.9-7.7-13.6-3.7-8.2-2.2-7.5-1.2-6.4v-5.5l0.8-4.9z"/>
		<path id="Object 14" class="s3" d="m363.2 1354l3.1-0.9 3-0.8 3.1-0.7 3.1-0.8 2.9-0.7 2.9-0.6 2.8-0.6 2.8-0.5 5.6-0.7 3-0.2 5.5-0.5h8.6l2.9 0.2 3 0.2 3 0.3 3.1 0.4 3.1 0.4 3.1 0.6 3.3 0.8 3.3 0.7c21.1 5.2 37.9 8.1 60.6 9.1 26.8 0 63.4-18.5 88.8-8.7 33.3 12.5 60.1 7.5 94.8-0.2l-0.3 8.6v11.7h-332v-11.7l0.3-0.1 3.5-1.1 3.5-1.2 3.2-1.1 3.2-0.9z"/>
		<path id="Object 15" class="s2" d="m657.8 459.9h148l2.8-3.4 6.3-7.4 6.3-6.6 6.3-5.9 6.2-5.3 6.2-4.6 6.3-3.9 6.1-3.2 6.2-2.6 6-1.9 6-1.4 6.1-0.5h5.8l5.8 0.7 5.4 1.2 5.2 2 5 2.4 4.6 2.9 4.3 3.3 4 3.8 3.5 4 3.3 4.3 2.9 4.6 2.7 4.9 2.3 5.1 2 5.2 1.7 5.5 1.4 5.6 1.1 5.6 0.8 5.9 0.4 5.9 0.1 5.9-0.2 6.6-0.6 6.5-0.9 6.5-1.3 6.4-1.4 6.3-1.9 6.4-2.2 6-2.3 5.8-2.8 5.7-2.9 5.5-3.3 5.2-3.5 5-3.8 4.6-4.1 4.3-4.3 3.9-4.8 3.5-5 3-5.3 2.4-5.7 1.6-5.7 1-6.1 0.3-6.2-0.7-6.2-1.7-5.9-2.3-6-3.3-5.7-4-5.6-4.9-5.5-5.7-5.3-6.4-5.3-7.3-5.2-8.2-1.5-2.8h-154.6z"/>
		<path id="Object 16" class="s2" d="m939.6 593.2l-36.6 89.5 44.2 35.8 3.8 81h-229.7l7.4-77.9 38.6-38.1-35.8-87z"/>
		<path id="Object 17" class="s3" d="m774.8 624.8l121-1.9-28.1 68.7 50.8 41.1 1.8 37.9h-166.8l3.4-35.9 44.9-44.3z"/>
		<path id="Object 18" class="s3" d="m687 512.3v-23.4h133.1l11.1-14.1 5.5-6.4 5.3-5.5 5.2-4.9 4.8-4.1 4.6-3.4 4.3-2.7 4.1-2.2 3.8-1.5 3.3-1.1 3-0.6 2.8-0.2h2.7l2.3 0.2 2.2 0.5 2.1 0.8 2.1 1.1 2.1 1.2 2 1.6 2.1 1.9 1.9 2.1 1.8 2.6 1.9 2.9 1.7 3 1.5 3.4 1.4 3.6 1.2 3.7 0.9 3.9 0.8 4.3 0.6 4.1 0.3 4.4 0.1 4.4-0.1 4.9-0.5 5.1-0.7 5-1 5.1-1.2 5-1.4 4.7-1.7 4.8-1.8 4.5-2 4.3-2.3 4-2.3 3.8-2.4 3.4-2.5 3-2.5 2.7-2.3 2.1-2.5 1.7-2.4 1.5-2.1 0.9-2.1 0.6-1.8 0.4h-2l-2.1-0.2-2.2-0.6-2.6-1-2.9-1.6-3.2-2.3-3.5-3-3.8-4-3.9-4.8-4.3-5.8-4.2-6.6-9.5-17.2z"/>
		<path id="Object 19" class="s0" d="m32 954.5l6.8-595h476.4l-70.8 423.1z"/>
		<path id="Object 20" class="s2" d="m344.9 430.8l-29.3 87.2h57.1v290.2h-282.2v-377.4z"/>
		<path id="Object 21" class="s3" d="m281.5 680l6-6.9 2.5-7.4 1.4-6 0.6-6 0.2-5.9-0.4-6.1-1-5.7-1.1-5.8-1.5-5.9-1.8-5.6-1.9-5.9-2.2-5.7-2.3-5.8-2.6-5.8-2.5-5.9-2.7-6-2.6-5.8-2.8-6.1-2.6-5.9-2.6-6.2-2.7-6.1-2.4-6.1-2.4-6.2-2.2-6.3-2.1-6.2-1.9-6.2-1.7-6.2-1.5-6.2-1.1-6.3-0.8-6.3-0.6-6.2-1.5-31.5h63.6l-29.4 87h68.6v232.2h-62z"/>
		<path id="Object 22" class="s3" d="m206.2 490.6l-0.7 6.5-1 6.2-1.2 6.1-1.4 6.1-1.5 6-1.6 5.9-1.8 5.8-1.9 5.9-1.9 5.7-2 5.6-2.1 5.5-2.1 5.6-2.1 5.6-2.2 5.4-2.1 5.6-2.1 5.5-2 5.3-3.8 11.1-1.7 5.5-1.5 5.6-1.5 5.6-1.3 5.8-0.9 5.7-0.8 5.8-0.4 6-0.1 5.9 0.1 6 0.6 6.2 1 6.1 2 8.6v106.2h-48.4v-319.2h89.2z"/>
		<path id="Object 23" class="s3" d="m245.5 594l5 11.2 2.4 5.3 2.1 5.1 1.8 5 1.8 4.7 1.4 4.7 1.2 4.2 0.8 4.2 0.6 3.8 0.2 3.5-0.1 3.3-0.3 3.2-0.5 2.1h-67.6l-0.3-4.3-0.3-4.3 0.1-4.3 0.4-4.5 0.6-4.5 0.7-4.5 1.1-4.7 1.1-4.7 1.5-4.8 1.5-4.9 1.6-5 1.8-5 1.9-5.3 2-5.2 2.1-5.4 2.2-5.5 2.1-5.6 2.2-5.8 2.1-5.9 2.2-6 2-6 1.3-3.9 2.4 6.4 2.6 6.7 2.7 6.4 2.6 6.4 2.8 6.2 2.8 6.1 2.8 5.8z"/>
		<path id="Object 24" class="s3" d="m197.5 760.5v-62.5h54.6v62.5z"/>
		<path id="Object 25" class="s0" d="m1030.9 976.5l-1.6 248.5v0.3 0.2 0.2 0.1 0.2 0.1 0.2 0.1 0.1 0.1 0.1 0.1h-0.1v0.1 0.1l-0.1 0.1v0.1l-0.1 0.1v0.1l-0.1 0.1-0.1 0.1v0.1l-6.3 9.5-9.3 12.9-10.1 12.8-10.8 12.3-11.7 12.2-12.3 12.1-13 11.8-13.6 11.6-14.3 11.3-14.8 11.2-15.4 10.9-15.9 10.8-16.3 10.6-16.8 10.3-17.1 10.1-17.6 10-8.8 4.8v-436.4z"/>
		<path id="Object 26" class="s0" d="m663.9 1480.8l-19.4 8.1-19.3 8.1-19.4 8-19.3 7.8-19.3 7.6-19.1 7.4-18.9 7.2-14.4 5.5-11.8-5.3-16.2-7.1-16.6-7-16.6-7-16.7-7.1-16.9-7.1-17-7.2-17.1-7.3-34.2-14.9-16.9-7.8-17.1-7.9-16.9-8-12.7-6.4h463.3l-11.2 5.5-18.8 8.9-19.1 8.8-19.2 8.7z"/>
		<path id="Object 27" class="s0" d="m29.2 1210.7l2.6-234.2h188v426.9l-1.8-1-15.8-9.8-15.7-10.1-15.5-10.6-15.1-11-14.7-11.4-14.4-11.8-14.1-12.3-13.6-12.8-13.2-13.3-12.7-13.8-12.4-14.5-11.7-15-11.6-16.1-0.9-1-0.6-0.5-0.5-0.5-0.5-0.6-0.4-0.6-0.5-0.6-0.4-0.6-0.4-0.7-0.4-0.7-0.4-0.7-0.4-0.7-0.3-0.8-0.3-0.7-0.3-0.9-0.3-0.8-0.3-0.9-0.3-0.9-0.2-0.9-0.2-0.9-0.2-1-0.1-1-0.2-1.1-0.1-1-0.1-1.1-0.1-1.2-0.1-1.1v-1.2-1.2-1.3-1.3l0.1-1.3z"/>
		<path id="Object 28" class="s1" d="m346.3 1284.2v-162.9l1.3-2.7 2.7-4.4 3-4.4 3.3-4.1 3.5-3.9 3.8-3.8 4.1-3.5 4.3-3.3 4.6-3.3 4.8-3.1 5-3 5.2-2.9 5.4-2.7 5.6-2.7 5.7-2.5 12-5 6.1-2.4 6.1-2.4 6.2-2.3 6.4-2.2 6.4-2.4 6.4-2.4 6.4-2.4 6.3-2.4 6.3-2.5 6.4-2.6 6.2-2.7 6.2-2.8 6.1-3.1 5.9-3h0.1l6.1 3.2 6.2 3.1 6.2 3 6.4 2.9 6.3 2.9 6.5 2.7 6.4 2.9 6.5 2.7 6.5 2.8 6.5 2.7 6.4 2.6 6.5 2.7 6.2 2.8 6.3 2.7 6.3 2.8 6.1 2.8 5.9 2.8 5.9 2.9 5.9 3 5.6 2.9 5.4 3 5.2 3.2 5.1 3.2 4.8 3.2 4.6 3.4 4.5 3.5 4.2 3.5 3.8 3.7 3.7 3.7 3.4 3.9 0.8 1v161.6h-122.9l-0.2-35 4.9-8.1 5.8-11.7 4.2-11.3 2.5-10.8 1-10.3-0.7-9.9-2.4-9.3-3.9-8.4-5-7.2-6.2-6.4-7-5-7.5-4-8.1-3-8.2-1.9-8.3-1-8.6-0.3-8.4 0.7-8.5 1.6-8.1 2.3-8 3.2-7.6 4.3-7 5.1-6.4 6.2-5.4 7.1-4.4 8.2-2.9 9.1-1.5 9.6 0.1 10.3 1.8 10.6 3.3 11 5 11.5 4.2 7.3-1.3 35.5z"/>
	</g>
</svg>