<svg version="1.2" xmlns="http://www.w3.org/2000/svg" viewBox="0 0 338 405" width="338" height="405">
	<title>Dolna-Mitropolia-pdf</title>
	<style>
		.s0 { fill: #231f20 } 
		.s1 { fill: #e9e9e9 } 
		.s2 { fill: #c9322a } 
		.s3 { fill: #a6e2f9 } 
		.s4 { fill: #e9e9e9;stroke: #231f20;stroke-width: 1 } 
		.s5 { fill: #a6e2f9;stroke: #231f20;stroke-width: 1 } 
		.s6 { fill: #fff200;stroke: #231f20;stroke-width: 1 } 
		.s7 { fill: #cd7f4b } 
		.s8 { fill: #a14b2a } 
		.s9 { fill: #ed1c24;stroke: #231f20;stroke-width: 1 } 
		.s10 { fill: #ffffff;stroke: #231f20;stroke-width: 1 } 
		.s11 { fill: #33b540;stroke: #231f20;stroke-width: 1 } 
		.s12 { fill: #c9322a;stroke: #231f20;stroke-width: 1 } 
	</style>
	<path id="Path 1" class="s0" d="m315.8 176.5l6.2 22.7v60.2c0.1 52.9-31.4 101-80.4 125.1-11.5 5.6-24 9.2-36.4 12.4-12 3-24.2 5.4-36.3 8.1-12.1-2.7-24.3-5.1-36.3-8.1-12.4-3.2-24.9-6.8-36.3-12.4-49-24.1-80.5-72.2-80.5-125.1l0.1-60.2 6.2-22.7q-0.1-24.4-0.1-48.7v-6.6c-7.4 1.8-14.7 3.7-22 5.7v-66.4l6.9-2.2c5-1.6 10.1-2.9 15.1-4.2v-34.4c48.1-13.4 96.8-19.7 146.9-19.6 50.2-0.1 98.9 6.2 146.9 19.6v34.4c5.1 1.3 10.1 2.6 15.1 4.2l7 2.2v66.4c-7.4-2-14.7-3.9-22.1-5.7v6.6q0 24.3 0 48.7z"/>
	<path id="Path 2" fill-rule="evenodd" class="s1" d="m166.8 399l-32.7-7.4-24.4-7.2-10.8-4.8-10.3-5.5-9.7-6.4-9.2-7-8.5-7.8-7.8-8.4-7.1-9-6.3-9.5-5.5-10.1-4.6-10.5-3.6-11-2.7-11.3-1.6-11.7-0.5-12.1v-59.4l6.2-22.7c0-20.3 0-42.7 0-63-8.4 2-14 3.4-22 5.5v-55.3c8.3-2.7 14.3-4.2 22-6.1v-34.5c45.9-13.1 93.5-18.2 141.2-18.3 47.8 0.1 95.3 5.2 141.3 18.3v34.5c7.7 1.9 13.7 3.4 22 6.1v55.3c-8.1-2.1-13.6-3.5-22-5.5 0 20.3-0.1 42.7-0.1 63l6.2 22.7 0.1 59.4-0.6 12.1-1.6 11.7-2.6 11.3-3.7 11-4.6 10.5-5.4 10.1-6.3 9.5-7.1 9-7.9 8.4-8.5 7.8-9.1 7-9.8 6.4-10.2 5.5-10.8 4.8-24.5 7.2-32.6 7.4-2.2 0.5zm-132-370.3v28q3.7-0.8 7.4-1.5c34.4-6.5 69.4-9.8 104.4-10.9q5.5-0.2 11.2-0.3 5.6-0.1 11.2-0.1 5.6 0 11.2 0.1 5.7 0.1 11.2 0.3c35 1.1 70 4.4 104.4 10.9q3.7 0.7 7.4 1.5v-28c-44.1-9.6-88.8-16.7-134.2-16.6-45.3-0.1-90.2 7-134.2 16.6zm126.2 71.7c-16 0.2-31.9 0.9-47.8 2l-12.1 1c-22.3 2.1-44.4 5-66.3 9.4q0 32.6 0 65.2l-6.2 22.7v58.4l0.5 11.6 1.5 11.1 2.5 10.8 3.5 10.4 4.4 10 5.1 9.6 6 9.1 6.8 8.5 7.4 8 8.1 7.4 8.7 6.7 9.3 6 9.7 5.3 10.2 4.5 23.7 7 33 7.4 33-7.4 23.8-7 10.1-4.5 9.7-5.3 9.3-6 8.7-6.7 8.1-7.4 7.4-8 6.8-8.5 6-9.1 5.2-9.6 4.3-10 3.5-10.4 2.5-10.8 1.5-11.1 0.5-11.6v-58.4l-6.2-22.7q0-32.6 0-65.2c-21.9-4.4-43.9-7.3-66.3-9.4l-12.1-1c-15.9-1.1-31.8-1.8-47.8-2q-4-0.1-8-0.1-4 0-8 0.1z"/>
	<path id="Path 3" class="s2" d="m288.9 327.2l-6.4 8.9-7.1 8.2-7.8 7.7-8.4 7.1-9 6.3-9.5 5.7-10 4.9-10.3 4.1-18.5 5-32.6 7.6-33.4-7.5-23.7-7.1-10.1-4.4-9.8-5.3-9.2-6.1-8.7-6.7-8.1-7.4-7.5-7.9-6.7-8.6-6-9.1-5.2-9.5-4.4-10-3.4-10.4-2.6-10.8-1.5-11.1-0.5-11.7v-58.4l6.3-22.6q-0.1-32.6-0.1-65.3c41.3-8.3 84-11.8 126.2-12.3v-0.1q4 0 8 0 4.1 0 8.1 0v0.1c42.2 0.5 84.8 4 126.1 12.3q0 32.7 0 65.3l6.2 22.6-0.1 64.4-1 11.3-2 10.9-3 10.6-3.9 10.2-4.8 9.8zm-254.2-270.5v-27.9c47-10.3 91.2-16.7 139.5-16.6 44.8 0.5 85.3 8.1 129 16.6v27.9q-3.8-0.8-7.5-1.5c-41.6-7.8-84.3-11.2-126.8-11.2-42.4 0-85.1 3.4-126.8 11.2q-3.7 0.7-7.4 1.5z"/>
	<path id="Path 4" class="s3" d="m40.1 117.5c21.4 3.9 42.8 1.8 64.2-2.2 21.4-4.1 42.6-9.6 64.6-9.8 21.8-0.1 43.1 4.7 64.5 8.5 21.4 3.8 42.9 6 64.4 3.5v20.3c-10.8 1.6-21.6 2-32.3 1.3-32.5-2.1-63.9-12.4-96.6-12.2-32.8 0.3-64.1 11.9-96.7 13.4-10.7 0.5-21.4-0.3-32.1-2.5z"/>
	<path id="Path 5" fill-rule="evenodd" class="s4" d="m131.8 30.2q0.2 1.9-0.4 3.5-0.5 1.5-1.7 2.7-1.1 1.2-2.8 1.9-1.7 0.7-3.7 0.9-2.1 0.1-3.9-0.4-1.7-0.4-3.1-1.5-1.3-1-2.1-2.5-0.7-1.5-0.9-3.3-0.1-1.8 0.4-3.4 0.6-1.6 1.8-2.8 1.2-1.3 2.8-2 1.7-0.7 3.7-0.9 2.1-0.1 3.8 0.4 1.8 0.5 3.1 1.6 1.3 1 2.1 2.5 0.8 1.5 0.9 3.3zm-4.5 0.4q-0.1-1.4-0.5-2.4-0.4-1.1-1.1-1.8-0.7-0.8-1.6-1.1-0.9-0.4-2-0.3-1.4 0.1-2.4 0.9-1.1 0.8-1.6 2.1-0.5 1.4-0.3 3.1 0.1 1.8 0.8 3.1 0.7 1.3 1.8 1.9 1.1 0.7 2.6 0.6 1.4-0.1 2.4-0.9 1.1-0.8 1.5-2.1 0.5-1.4 0.4-3.1zm5.8-8.3l12.9-0.4 0.1 3.8h-1.2q-0.1-1.4-1.8-1.4l-4.6 0.2 0.1 2.6h0.3q2.5 0.5 4.3 1.1 1.9 0.6 3 1.4 1.2 0.8 1.8 1.8 0.6 1 0.7 2.2 0 1.2-0.5 2.1-0.6 1-1.6 1.5-1.5 0.7-4.4 0.8l-8.5 0.3-0.1-1.2q0.6-0.1 0.8-0.3 0.2-0.2 0.2-0.8l-0.4-11.4q0-0.5-0.3-0.8-0.2-0.2-0.8-0.3zm5.6 7.2l0.3 6.3q0.9 0.1 1.2 0.1 1.8-0.1 2.9-0.5 0.5-0.3 0.9-0.8 0.3-0.6 0.3-1.2 0-1-0.7-1.7-0.7-0.8-1.9-1.4-1.3-0.5-3-0.8zm13.4-6.9v-1.2h6.5v1.2q-0.8 0.1-1.3 1-0.8 1.2-1.4 3.1-0.6 1.9-0.6 3.5 0 2.3 1.3 3.5 1.4 1.2 3.9 1.2h0.8v-11q0-0.5-0.1-0.7 0-0.2-0.3-0.4-0.2-0.1-0.6-0.2v-1.2h6.1v1.2q-0.1 0-0.2 0.1-0.5 0.1-0.7 0.3-0.1 0.3-0.1 0.9v11h4.7v-11.1q0-0.6-0.2-0.8-0.1-0.3-0.7-0.4 0 0-0.2 0v-1.2h6.2v1.2q-0.2 0-0.2 0-0.5 0.1-0.7 0.4-0.2 0.2-0.2 0.8v11.1h2.3v4.7h-1.2q-0.1-0.4-0.3-1-0.3-0.5-0.9-0.9-0.5-0.4-1.2-0.4h-11.2q-1.1 0-2.5 0-3.9-0.2-6-2.1-0.7-0.6-1.2-1.4-0.5-0.9-0.8-1.9-0.3-0.9-0.3-1.9 0-1.5 0.6-3.1 0.6-1.3 1.1-2.4 0.6-1 0.6-1.3 0-0.4-1-0.6zm38.4 3.1v-1.6q0-0.5 0-0.7-0.1-0.2-0.3-0.4-0.3-0.1-0.7-0.2v-1.2l6.4 0.1v1.2q-0.5 0.1-0.7 0.3-0.2 0.1-0.3 0.3-0.1 0.1-0.1 0.7l-0.2 10.9v0.4q0 0.2 0.1 0.4 0.1 0.3 0.2 0.4 0.1 0.1 0.6 0.2 0 0 0.1 0 0 0 0 0v1.2l-6.4-0.2v-1.1q0.7 0 0.9-0.3 0.2-0.2 0.2-1l0.1-5.2-6.5 7.6-6.5-0.1v-1.2q0.7-0.1 0.9-0.3 0.2-0.2 0.2-0.7v-0.3l0.2-11q0-0.5 0-0.7-0.1-0.2-0.3-0.3-0.2-0.2-0.7-0.3l0.1-1.2 6.4 0.1-0.1 1.3q-0.4 0-0.6 0.2-0.3 0.1-0.3 0.3-0.1 0.2-0.1 0.7l-0.2 10zm18-3.4l6.3 0.2v1.2q-1 0.1-1.1 1.1l-0.4 11.4q0 0.5 0.2 0.8 0.2 0.2 0.8 0.3v0.1q0.9-0.3 1.3-1.1l6.4-13.2 4.3 0.2 4.4 14.1q0.2 0.7 1 1.1l-0.1 1.2-6.2-0.4 0.1-1.2q0.3 0 0.6-0.2 0.2-0.1 0.2-0.3v-0.1-0.1-0.2l-1-3.3-5.3-0.4-1.4 3.2q0 0-0.1 0.1 0 0.2 0 0.3 0 0.2 0.2 0.4 0.2 0.1 0.6 0.2l-0.1 1.2-5-0.3v-0.1l-6.3-0.2v-1.2q0.6-0.1 0.8-0.3 0.3-0.2 0.3-0.7l0.2-5.5-6.4-0.2-0.2 5.4q0 0.6 0.1 0.8 0.2 0.2 0.9 0.3l-0.1 1.2-6.3-0.2v-1.2q0.6 0 0.8-0.2 0.2-0.2 0.3-0.8l0.4-11.4q0-0.6-0.2-0.8-0.2-0.3-0.8-0.4v-1.2l6.4 0.3v1.2q-1.1 0-1.1 1l-0.1 3.7 6.4 0.2 0.1-3.7q0-0.5-0.2-0.8-0.2-0.2-0.8-0.3zm16.2 9.2l-1.5-5.2-2.2 5z"/>
	<path id="Path 6" class="s4" d="m121.9 255.5q0.3-0.3 0.4-0.3c2.1-1.7 1.4 0.2-0.9 2.4q0 0 0 0c-0.4 1.7-0.6 2.9-0.7 3.3-0.1 0.7-0.8 2.6-1.9 2.7l-4.1 0.1c0 0-0.7-19.4-0.9-21.4-1.8-0.5-3.7-2.5-4.5-3.2-0.2-0.2-0.6-1.3-1.5-1.4-0.7 0-1.5 0.1-2.4-0.2-2.9 2-2.7 0.9-1.9-1.4 0 0-19.4 3.5-23.8 4.2 0-1.6 7.1-9.6 9.2-10.4l17.3-8.4c0 0-4.9-6.9-5.8-8.2-0.8-1.6 1.4-6 2.7-7.4l3.1 0.2q0.3-0.3 0.5-0.6c2-1.9 1.4-0.3 0.7 0.6q-0.1 0-0.2 0l14.8 0.8c0 0 2.7-3.1 3.8-4.5l-0.2-0.2c0 0-20.5-0.3-22.7-0.4 0.1-2.4 2.1-6.8 3.6-8 0 0 37.3-16 40.7-17.5 0.8-0.8 4.4-4.5 7.2-7.2 0 0 1.2-0.1 1.8-0.2 2.4-3.5 11.3-9 14.7-10.5 1.8-1.3 4-2.8 6.2-4.4q0 0 0 0c1.5-0.9 3-1.9 4.6-2.9 4.3-2.7 8.8-5.1 12.3-6.5q0 0 0-0.1c0.5-0.5 2.5-2.6 6.2-6-0.2 0.3-0.8 0.9-1.5 1.7-1.6 2.1-3 3.5-4.3 4.8q-0.1 0.1-0.1 0.2c-4 9.3-18.8 25.2-25.5 32.8-1.2 2.1-1.8 5.6-1.2 6.8-0.6 0.7-4.6 7.1-6.2 9.3-0.7 1-7.2 9-10.4 12.4 0 0-16 43-19.8 52.9-0.3 0.8-0.8 2.5-2.5 3.2-0.4 0.2-3.9 0.8-6.5 0.4 0 0 6-25.6 6.4-27.9-0.3 0.4-2.4 2.3-2.8 2.8 0 0-2.4 10.8-3.9 17.6z"/>
	<path id="Path 7" class="s5" d="m45.4 264.2l0.1-22.7h-0.1v-31.7l7.2-24.4v-34c10.2 1.7 9.7 1.4 17.7 0.3v46.4l-7.1 21.6v61.7c2 24 9 46.7 14.7 60.1-19.3-21-32-47.2-32.5-77.3z"/>
	<path id="Path 8" class="s5" d="m260 341.5c5.6-13.4 12.6-36.1 14.7-60.1v-61.7l-7.2-21.6v-46.4c8.1 1.1 7.6 1.4 17.8-0.3v34l7.1 24.4v31.7h-0.1l0.1 22.7c-0.4 30.1-13.2 56.3-32.4 77.3z"/>
	<path id="Path 9" fill-rule="evenodd" class="s6" d="m220.3 138.7l-29.8 56.9 4.8 33.8 52.3-86q1.5 0.2 3.1 0.5l-52.8 86.9 33-12.6 27.7-39.6v4.7l-24.5 34.9-2.7 3.9-48.6 69.2-27.9 39.8-17.8 2.6q-1.2-0.6-2.2-1.2 0 0 0 0-0.1-0.1-0.1-0.1 0 0 0 0 0 0 0 0 0 0 0 0 0 0-0.1 0 0 0 0 0 0 0 0 0 0 0 0 0 0 0 0-0.1 0 0-0.1 0 0 0 0 0 0 0 0 0 0 0 0 0 0 0 0 0-0.1 0-0.1 0 0 0 0 0 0 0 0-0.1 0 0 0 0 0 0-0.1 0 0 0 0 0 0 0 0 0 0 0 0 0 0 0 0 0-0.1 0-0.1 0 0 0 0-0.1 0 0 0 0 0 0 0 0 0 0-0.1 0 0 0 0 0 0 0 0 0-1.1-0.6-2.2-1.2l-6.4-16.2 22.3-42.8 38.8-74.7 2.2-4.2 28.5-54.8q1.4 0.2 2.9 0.5zm19.1 3.3l-42 72.6-0.6-4.5 39.7-68.6q1.5 0.3 2.9 0.5zm19.2 3v4.8l-45 70.7-4.3 1.7 49.1-77.2q0.1 0 0.2 0zm0 21.7l-32.5 48.9-4.5 1.7 37-55.5zm-28.9-26.4l-34 61.5-0.6-4.6 31.7-57.4q1.5 0.2 2.9 0.5z"/>
	<path id="Path 10" fill-rule="evenodd" class="s7" d="m175.1 262.8l-4.2-27.8 16.4-31.2 4.5 31.4zm-3.5 5.8l-4.7-25.8-16.4 31.2 4.3 22.2zm-20.2 33.3l-4.9-20.1-16.4 31.2 5.1 13.7 0.9 0.4zm-12.8 26.7l0.8 0.4 15.2-2.3 20.4-29-21.1 5.7zm18.7-30.9l22.7-7.2 20.3-29-26.2 8.6zm20.3-33.5l27.7-9.9 20.3-29.1-31.3 11.5z"/>
	<path id="Path 11" class="s8" d="m111.3 360.4v-37.8c5 2.9 9.8 5.9 15 8.4 25.7 12.8 56.1 15.2 82.5 2.7 6.6-3.1 12.2-7.1 18.2-11v37.5c-2.5 1.7-4.9 3.3-7.5 4.8-27.5 15.7-64.7 15.8-93.5 3.3-5.2-2.3-9.8-5-14.7-7.9z"/>
	<path id="Path 12" fill-rule="evenodd" class="s7" d="m115 358.4v-29.5c33.1 20.4 75 23.6 108.3 0.5v29c-29.5 20.6-76.7 20.2-108.3 0zm34.8 9.7c-15-8.7-11.6-19.9 4.6-20.3-6.2-1.1-12-3.1-17.9-5.1-4.8-1.7-15.1-6.9-16.8 1.2-3 14.4 19.6 21.6 30.1 24.2zm1.1-8.2c0 6.1 8.2 11 18.3 11 10.1 0 18.3-4.9 18.3-11 0-6.1-8.2-11-18.3-11-10.1 0-18.3 4.9-18.3 11zm67.8-16c-1.7-8.1-12-2.9-16.8-1.2-5.9 2-11.8 4-17.9 5.1 16.2 0.4 19.6 11.6 4.6 20.3 10.5-2.6 33-9.8 30.1-24.2z"/>
	<path id="Path 13" fill-rule="evenodd" class="s1" d="m169.2 351.7c8.6 0 15.6 3.7 15.6 8.2 0 4.5-7 8.2-15.6 8.2-8.6 0-15.6-3.7-15.6-8.2 0-4.5 7-8.2 15.6-8.2zm34.1-6.5c8.3-3.6 12-4 12.6 0.7 1.1 8-11.5 13.7-16.6 15.9 2-3.1 2.4-5.7 1.6-8.1-0.7-2.4-2.1-4.5-6-5.8 3-0.8 5.5-1.5 8.4-2.7zm-59.8 2.7c-3.9 1.3-5.3 3.4-6.1 5.8-0.7 2.4-0.3 5 1.7 8.1-5.1-2.2-17.8-7.9-16.7-15.9 0.7-4.7 4.4-4.3 12.7-0.7 2.9 1.2 5.3 1.9 8.4 2.7z"/>
	<path id="Path 14" class="s9" d="m5.6 101.3q25.2-7.2 50.3-11.6v18.9c-16.9 3.2-33.5 6.5-50.3 11.1z"/>
	<path id="Path 15" class="s10" d="m5.6 82.8v-18.4c15.4-4.9 32.1-8.6 50.3-11.6v17.6q-25.1 5.2-50.3 12.4z"/>
	<path id="Path 16" class="s11" d="m5.6 101.3v-18.5q25.2-7.2 50.3-12.4v19.1q-3.1 0.6-6.1 1.3-22.1 4.2-44.2 10.5z"/>
	<path id="Path 17" class="s9" d="m332.2 119.7c-16.7-4.6-33.4-7.9-50.2-11.1v-18.9q25.1 4.4 50.2 11.6z"/>
	<path id="Path 18" class="s10" d="m282 70.4v-17.6c18.2 3 34.8 6.7 50.2 11.6v18.4q-25.1-7.2-50.2-12.4z"/>
	<path id="Path 19" class="s11" d="m288.1 90.8q-3.1-0.7-6.1-1.3v-19.1q25.1 5.2 50.2 12.4v18.5q-22-6.3-44.1-10.5z"/>
	<path id="Path 20" fill-rule="evenodd" class="s12" d="m189.8 64.5c0.1 1.4 0.3 1.3 1.7 1.6v1.4l-8.3-0.3 0.1-1.5c1.2 0 1.6 0.1 1.8-1.1 0.1-3.3 0.3-6.5 0.4-9.8 0-1.8-0.2-1.7-1.7-2v-1.5l8.3 0.3-0.1 1.5c-2.1 0.1-1.8 0.7-1.9 2.5l6.6 0.2c0-1.9 0.3-2.4-1.7-2.5v-1.6l8.3 0.3-0.1 1.5c-1.6 0.1-1.8 0.1-1.8 1.9-0.1 3-0.3 6-0.4 9.1 0 1.3 0.1 1.7 1.6 1.9l-0.1 1.5-8.1-0.3 0.1-1.5c1.5 0 1.6 0.1 1.8-1.3l0.3-6.6-6.5-0.2c-0.1 2.2-0.3 4.3-0.3 6.5zm13.7 1.9c1.4 0.2 2.1-1.3 2.7-2.3 1.6-3 3.3-6.1 5-9.2 0.5-0.9 0.6-0.9-0.5-1.2l0.1-1.3 7.8 0.4-0.1 1.4c-1 0.1-1 0-0.7 0.9 1.3 3.6 2.7 7.4 4.1 11 0.3 1.1 0.5 1.1 1.6 1.5l-0.1 1.4-7.9-0.5 0.1-1.3c2.8-0.5 0.9-2.9-0.5-3.9-1.1-0.8-2.6-1.3-4-1.5-0.5 1.1-1.1 2.1-1.6 3.2-0.7 1.4-0.4 1.6 1.1 1.7l-0.1 1.5q-3.6-0.2-7.1-0.3zm8.8-7c0.9 0.2 1.9 0.4 2.7 0.8l-1.3-3.4zm-41.8-5.6c-2.9 1.4-4.9 7.7-4.4 10.4 0.4 1.4 1.1 1.3 2.3 1.4l0.1 1.5-6.6 0.1c0.1-5.1 1.4-9.9 4.8-13.8 0.5-0.7-0.2-0.7-0.7-0.8v-1.4l13.7-0.1v1.5c-1.6 0.2-1.7 0.4-1.7 2.1q0 4.6 0 9.1c0.1 1.6 0.4 1.6 1.8 1.8l0.1 1.4-8.3 0.1v-1.5c1.7-0.2 1.8-0.4 1.8-2.1q-0.1-4.4-0.1-8.9c0-1.5-1.8-1.2-2.8-0.8zm-27.6 12.5c-2.6-1.4-4.2-3.8-4.2-6.7 0.8-9.2 15.5-11.5 20.2-3.9 4 8.3-6.6 13.6-13.9 11.5-0.7-0.2-1.4-0.5-2.1-0.9zm7.8-1.3c7.5-1.4 4.2-11.3-2.2-11.2-3.4 0-5.4 2.7-4.9 5.8 0.6 3.4 3.5 5.8 7.1 5.4zm-28.7 3.9c-2.7 0.5-3.9 1.8-4.9 4.2l-1.8-0.3 1.3-6.1c0.4 0.2 0.9 0.5 1.3 0.7 0.4-0.5 0.7-1.2 0.8-1.9 0.3-3.7 1.4-7.2 3.7-10.4 0.4-0.8-0.3-0.6-0.8-0.7l-0.1-1.4 13.7-1.1 0.1 1.4c-1.6 0.4-1.7 0.6-1.6 2.3 0.2 3 0.5 6 0.8 9 0.1 1.9 0.6 1.4 1.8 0.6l2.3 5.7-1.6 0.6c-1.4-2.2-3.2-3.5-6-3.3-3 0.2-6 0.4-9 0.7zm6.6-3c1-0.1 1.3-0.2 1.2-1.2-0.2-2.9-0.5-5.9-0.8-8.8 0-0.5 0-1-0.6-1-4.8-0.5-6.4 7.6-5.9 10.8 0.1 0.6 0.2 0.6 0.7 0.6zm143.8 20c-0.4 0.3-0.6 1.2-0.6 1.6-0.4 3-0.8 6-1.2 8.9-0.2 1.7 0 1.7 1.5 2.2l-0.2 1.4-8.2-1c0.2-1.4-0.1-1.5 1.3-1.5 1.4-0.1 1.3-4.5 1.4-5.3l-1.9-0.8c-0.8 0.7-5.6 5.1-4.7 5.5 1.2 0.4 0.8 0.5 0.6 1.7l-7.4-1 0.2-1.3c1.6-0.2 2-1.3 3-2.5 1.3-1.6 2.7-3.1 4.3-4.4-1.4-0.9-2.9-1.8-3.2-3.5-0.2-3 3.1-3.3 5.4-3.1 3.8 0.5 7.6 1 11.3 1.5-0.3 2.1-0.2 0.9-1.6 1.6zm-5.6-0.1c-0.9-0.2-3.5-0.8-4.4-0.2-1.6 1.5 3.3 3.8 4.4 4.2 0-0.4 0.7-3.9 0.4-4q-0.2 0-0.4 0zm-27 7.8c0 1.3 0.6 1.2 1.6 1.5l-0.1 1.4-8.2-0.8 0.1-1.4c1.3 0 1.6 0.1 1.9-1.1 0.4-3.2 0.7-6.5 1-9.7 0.2-1.8-0.1-1.8-1.5-2.1l0.1-1.5 8.2 0.8c-0.2 1.8 0.2 1.2-1.4 1.5-1 0.3-1 4.2-1 4.9l6.9-3.9c-0.1-0.6-1.2-0.7-1.7-0.7l0.2-1.5 8.2 0.8-0.2 1.4c-1.2 0-1.6-0.1-1.9 1.1-0.3 3.3-0.7 6.5-1 9.8-0.1 1.5 0 1.7 1.6 2l-0.2 1.5-8.2-0.8 0.2-1.5c1.7 0.1 1.8 0 2-1.7q0.3-3.6 0.7-7.2l-7 4c-0.1 1-0.2 2.1-0.3 3.2zm-17-11.9c-3 1.2-5.5 7.3-5.3 10 0.3 1.4 1.1 1.4 2.3 1.6l-0.1 1.5-6.6-0.4c0.5-5 2.3-9.7 5.9-13.4 0.6-0.7-0.1-0.7-0.6-0.8l0.1-1.4 13.7 0.9-0.1 1.4c-1.7 0.2-1.8 0.4-1.9 2.1-0.3 3-0.5 6-0.7 9-0.1 1.6 0.2 1.6 1.6 1.9l-0.1 1.5-8.2-0.6 0.1-1.4c1.8-0.1 1.8-0.4 1.9-2 0.2-3 0.5-6 0.7-8.9 0.1-1.5-1.7-1.3-2.7-1zm-28.8 8.9c-2.1-2.1-2.9-4.8-2-7.6 3.5-8.5 18.2-6.8 20.5 1.8 1.3 9-10.4 11.2-16.8 7.3-0.6-0.4-1.2-0.9-1.7-1.5zm7.9 0.9c7.5 0.7 7.4-9.6 1.2-11.4-3.3-0.9-6 1.1-6.4 4.3-0.4 3.4 1.6 6.5 5.2 7.1zm-11.5-13.9v1.4c-1.7 0.2-1.8 0.4-1.8 2.1-0.1 3-0.2 6.1-0.3 9.1 0 1.5 0.3 1.6 1.8 1.8v1.5l-8.3-0.2v-1.4c1.8-0.3 1.8-0.4 1.9-2.1 0-3 0.2-5.9 0.2-8.9 0-0.3 0-0.6-0.1-0.9-0.3-0.4-4.6-0.3-5-0.3-1.2 0-1.4 0.1-1.4 1.3-0.1 2.9-0.2 5.9-0.3 8.9 0 1.6 0.3 1.7 1.8 1.9v1.4l-8.3-0.2v-1.4c1.2-0.1 1.6 0 1.9-1.2 0-3.3 0.1-6.6 0.2-9.8 0-1.6-0.2-1.7-1.7-2v-1.4zm-39.3 13.5c-2.3-1.8-3.5-4.4-3.1-7.3 2.3-9.2 18.1-9.3 20.9-0.2 1.4 8.3-9.2 11.6-15.8 8.7-0.7-0.3-1.4-0.7-2-1.2zm8-0.3c7.6-0.4 5.8-10.5-0.5-11.4-3.4-0.4-5.8 1.9-5.7 5.1 0.1 3.5 2.6 6.2 6.2 6.3zm-17.6-13.3c1.6 0 3.5 0 4.6 1.4 2.6 4.5-6 7.1-8.7 7.9 0.1 1.3 0.2 2.6 0.3 3.9 0.1 1.5 0.6 1.3 1.9 1.4l0.1 1.5-8.3 0.5-0.1-1.5c1.2-0.2 1.6-0.1 1.7-1.3-0.2-3.3-0.5-6.5-0.7-9.8-0.1-1.5-0.2-1.7-1.9-1.8l-0.1-1.4zm-3.2 6.4c1.1-0.5 4.2-1.7 3.5-3.4-0.5-0.7-4.7-0.7-4.7 0.1-0.1 1.1 0.1 2.5 0.2 3.7zm-20.5 9.2c0.5-0.2 0.4-1.2 0.4-1.5-0.3-3.4-0.6-6.8-0.9-10.3-3 0.4-3.8 1.2-4.9 3.6l-1.7-0.4 1.4-6.3c0.4 0.3 0.9 0.9 1.4 0.9 3.9-0.3 7.8-0.6 11.7-0.9 0.7 0 0.9-0.7 1.4-1.3l2.5 6.2c-1.9 0.7-1.4 0.8-2.5-0.6-1.2-1.3-2.7-1.6-4.6-1.5 0.3 3.3 0.6 6.7 0.8 10 0.2 1.7 0.4 1.7 2 1.6l0.1 1.6-8.2 0.6c-0.2-2-0.4-1.2 1.1-1.7zm-20.5 0.4c0.3 1.4 0.8 1.2 1.9 1.2l0.2 1.4-8.2 0.9-0.2-1.5c1.2-0.2 1.6-0.2 1.7-1.4-0.4-3.2-0.8-6.5-1.1-9.7-0.2-1.8-0.5-1.7-2-1.8l-0.1-1.4 8.2-0.8c0.2 1.8 0.4 1.1-1.1 1.7-1 0.5-0.1 4.2 0 5l6-5.2c-0.2-0.6-1.3-0.4-1.8-0.4l-0.2-1.4 8.2-0.8 0.2 1.4c-1.2 0.3-1.6 0.2-1.7 1.4q0.6 4.9 1.1 9.8c0.2 1.5 0.3 1.7 2 1.7l0.1 1.4-8.2 0.9-0.1-1.5c1.6-0.3 1.7-0.3 1.5-2.1-0.2-2.4-0.5-4.8-0.7-7.1l-6 5.2c0.1 1 0.2 2.1 0.3 3.1zm-30.4 4.2c0.2-0.3 0.2-0.6 0.2-0.9-0.4-3.2-0.8-6.5-1.2-9.7-0.2-1.8-0.5-1.7-2-1.8l-0.2-1.4 8.6-0.9c0.1 0.6 0.4 1.3-0.2 1.5 0.8 1.3 2.1 2.5 3.1 3.6 0.7-1.2 2.1-2.9 2.4-4.2-0.8-0.2-0.5-0.7-0.6-1.4l8.2-0.9 0.1 1.4c-1.1 0.3-1.5 0.2-1.5 1.5 0.3 3.2 0.8 6.5 1.1 9.7 0.2 1.4 0.4 1.7 2 1.7l0.2 1.4-8.2 0.9-0.2-1.4c1.1-0.3 1.6-0.2 1.6-1.4l-1-8.6-4.4 7.3-5.4-6.1c0.3 2.6 0.6 5.2 0.9 7.8 0.2 1.4 0.4 1.7 2 1.7l0.2 1.4-7 0.8-0.1-1.5c0.4-0.1 1.1-0.1 1.4-0.5z"/>
	<path id="Path 21" class="s4" d="m80.5 342.3l-1.1-2.3 3.2-4.3 3.2-4.1 4.8 0.4 6.5 3.5q4.2-4.5 8.9-8.5l-3.7-6.2-0.4-4.6 4.3-3.1 4.4-3 4.5 1.8 5 5.3q5.4-3.1 11.2-5.5l-1.5-7 1.1-4.5 5.1-1.6 5.2-1.6 3.6 3.1 3.1 6.4q6.1-1.3 12.4-1.9l0.8-7 2.5-4h10.8l2.5 4 0.8 7q6.4 0.6 12.5 1.9l3-6.4 3.7-3.1 5.1 1.6 5.2 1.6 1 4.5-1.5 7q5.9 2.4 11.2 5.5l5.1-5.3 4.4-1.8 4.4 3 4.4 3.1-0.5 4.6-3.7 6.2q4.8 4 8.9 8.5l6.5-3.5 4.8-0.5 3.2 4.2 3.2 4.2-1 2.3-7.4 6.2-8 5.7-8.5 5-1 0.5q-2.6-4.1-5.7-7.8v-29.1c-6 3.9-11.6 7.9-18.2 11q-1.1 0.5-2.2 1c-11.1-6.2-23.9-9.8-37.6-9.8-13.1 0-25.5 3.3-36.2 9.1q-3.3-1.4-6.5-3c-5.2-2.5-10-5.5-15-8.4v28.8q-3.3 3.9-5.9 8.2l-5.5-2.9-8.3-5.4-7.8-6z"/>
</svg>