<svg version="1.2" xmlns="http://www.w3.org/2000/svg" viewBox="0 0 2045 2868" width="2045" height="2868">
	<title>Chiprovtsi-pdf</title>
	<style>
		.s0 { fill: #ff2e17 } 
		.s1 { fill: #ffeb3d;stroke: #595b61;stroke-width: .4 } 
	</style>
	<path id="Path 1" class="s0" d="m2.2 374.1v-25-24.9-25-24.9-24.8-24.9-24.8-24.8-24.9-24.8-24.7-24.8-24.6-24.7-24.8h32 31.9 31.9 32 31.9 31.9 32 31.7 31.9 32 31.9 32 31.9 31.9 32 31.9v14.4 14.4 14.6 14.4 14.4 14.6 14.5 14.6 14.4 14.6 14.6 14.6 14.8 14.6 14.7 14.8h14.2 14.1 14.2 14.4 14.2 14.3 14.2 14.4 14.3 14.4 14.2 14.6 14.3 14.6 14.4 14.5v-14.8-14.7-14.6-14.8-14.6-14.6-14.6-14.4-14.6-14.5-14.6-14.4-14.4-14.6-14.4-14.4h34.2 33.9 34.1 34.2 34.1 34.3 34.2 34.3 34.1 34.4 34.3 34.3 34.4 34.3 34.3 34.4v14.4 14.4 14.6 14.4 14.4 14.6 14.5 14.6 14.4 14.6 14.6 14.6 14.8 14.6 14.7 14.8h14.1 14.4 14.2 14.1 14.4 14.2 14.4 14.1 14.4 14.4 14.3 14.4 14.4 14.6 14.5 14.6v-14.8-14.7-14.6-14.8-14.6-14.6-14.6-14.4-14.6-14.5-14.6-14.4-14.4-14.6-14.4-14.4h32.5 32.6 32.7 32.5 32.8 32.5 32.7 32.8 32.7 32.8 32.7 32.7 32.8 32.9 32.9 33v26 26.1 26.1 26.2 26.1 26.2 26.2 26.3 26.2 26.3 26.4 26.2 26.5 26.2 26.4 26.3l-3.6 2083.3c27.7 307.3-473.7 207.7-722.6 224.3-119.2-4.8-217.8 16.7-290.8 120.1-12 13.7 2.6 14.4-17.8 16.9l-2.7-5.2c-35.3-48.4-83.1-102.1-147.8-120.9l-7.4-1.6-7.2-1.7-7.3-1.5-7.2-1.3-7.2-1.1-13.6-2.2c-175.9-29.9-379.3 11.9-557.7-4.1l-6.4-0.7-6.7-0.7-13.4-2.1c-82.8-12-161.2-53-201.8-123.4l-3-5.6-3-5.7-5.8-11.3-4.7-16.5-1.7-12.3-0.4-17.6-0.2-17.5z"/>
	<path id="Path 2" fill-rule="evenodd" class="s1" d="m2042.8 658.7l-0.1 38h-23.5c-9.7 20.8-38.2 61.3-48.4 74.3-2.9 3.8-5.9 6.8-8.8 10.6-10.1 13.2-42.2 52.1-55.5 62-14.3 10.6-30.3 25.1-46.3 32.2-13.5 6-20.2-0.4-29-6-10.7-6.9-43.4-19.6-56.8-21.3-16-1.9-10.2-3.3-34.9-4-33.8-1-52.1 0.4-82.5 14.8-4.3 2-9.8 4.4-13.6 6.6 0 5 2.9 6 6.9 8.9 8 5.6 20.2 16.2 31.6 19.2 8.4 2.3 17.3 5.6 27.3 6.5 16 1.5 8.7 2.4 30.6 3.3l18.4 1.7c7.3 0.8 57.6 1.4 59 2.2 0.9 1.2 1.9-0.8-0.1 2.2-1.8 2.7-5.3 4.7-7.5 6.6-9.7 8.9-19.4 17.3-30.9 24.6-22.1 14.1-27.4 16.6-51.6 23.5-9.9 2.8-25.3 2.3-35.6 0.6l-32-5c-21.3-2.7-38.7-10.3-58.6-16.7l-52.1-22.7c-31.1-15.2-90.2-27.9-125.5-22.4l-61.6 12.4c-0.5 5.1 0.4 4.8 3.3 7 14.1 10.5 29.8 18.1 45.1 26.7 20.7 11.5 69 28.2 94.7 29.1 24.1 0.8 97-4 114.5 7.7-21.2 17.6-44 38.5-76.2 46-6.7 1.5-16.6 5.3-23.6 6.2-5.2 0.6-9.6 0.3-14.2 1.3-5.1 1.2-7.2 1.4-13.5 1.5-18 0.2-49.2-5.1-67.4-8.6-5.2-1-7.6-1.2-12.4-2.5-4.2-1.1-8.9-1.1-13.1-2.2-2.4-0.7-2.8-1.2-6-1.9l-116.5-42.9c-14.9-5-22.9-6.8-37.6-9-4-0.6-7.8-1.8-12.6-2.3-31.9-3.9-75.7-0.8-99.8 20.7-1.7 1.5-2.3 2.1-3.9 3.7l-11.3 11.4c-9.5 12.1-14.6 27.8-18.9 42.5-1.6 5.5-5.7 18.6-6.2 23.4-2.3 18.8-1.5 73.2-0.5 91.3 1.1 18.5 1 40.6 1 60 0 19.6 1.5 38.8 1.6 58.8 0.2 40.8 1.6 81.6 1.3 122l1.5 13.5c1.3 9.2 0.1 34.8 0.3 45.3 1.6 101.2-1.1 203.2 1.4 304l2.6 89.3c0.2 10.6 1.4 18.8 1.9 28.3 1 19.2-0.2 41.1 1.9 59.6 1.1 9.2 2 17.5 2.1 28.6 0.3 27 13 67.2 32.2 89.2 5.6 6.4 9.7 10.3 14.8 15.7 25.1 26.7 44.5 36.4 46.1 68.5h34.6c5.9-10.9 19-27.3 22.9-31.6l17.3-23.1c5.3-1.1 10.7-1.3 16-0.3l13.3 3.9c19.7 6.8 21-2.9 31.7-14.3 13.5-14.4 33.6 2.7 72.6-48.1l13.1-20.7c3.5-6.6 15.1-27.8 1-27.8-2.2-0.1-3.8 0.5-5.6 1.3-32 13.7-34.8 39.1-51 40.7 0.4-4.9 2.8-6.7 4.7-9.5 7-10.3 6.6-15.5 17.8-26.9 3.9-3.9 27.6-19.2 24.8-33.8-5.6-0.8-5.7 0.5-9.9 1.9-9.9 3.4-4.6-1.4-18.3 8.9-1.3 1-2.5 2.1-3.5 3.1l-3.3 3c-5.4 4.3-26.1 24-31.1 24.3 0-6.1 15.9-33.1 23.8-40.2 6-5.4 12.4-8.4 18.9-13.7 5.8-4.6 14.6-9.3 14.5-14q0-0.5 0-0.9c-0.1-0.2-0.3-0.7-0.7-1.8-1.5-4.9-36.1-3.2-51.1 22.9-1.9 3.4-2.8 7-5.1 10.2-2.5 3.6-10.3 14.9-13.6 16-0.9-9.7 2.7-26.2 5.1-34.3l4.7-16.1c5.1-14.8 13.4-26.1 25.4-35.5 11.7-9.2 14.8-9 27.4-14 1.8-5.2 1.1-5.1 1.9-10.5 2-13.1 8.1-22.6 17.8-30.6 10.1-8.4 59.5-36 75.1-44.4l25.8-13.2c0.2-0.2 0.5-0.3 0.7-0.4l8.3-2.9c5.6-2.2 13-5.6 18.4-7.4 20.9-7.1 52.1-1.5 40.8-31.8-5.6-14.9-37.1-28.2-37.8-40.8 6.6 0.8 8.2 3.1 12.1 6.7 20.2 18.4 51.5 29.9 49.3 46.4-2.9 22.8-46 25.6-21.3 80.2 3.2 7.1 23.1 45.9 24.7 52.1-6.7 4-14 4.2-21.1 7.8l-40.3 20.4c-16.1 9.1-39 29.6-42.7 47.6-1 5.1-2.3 7-2.6 12.3-1 25.1 6.6 25.3 9.1 36.2 2.7 12.2-9.4 21.8-17.5 26.6-6.1 3.6-4.3 1-9.6-0.5-13.5-3.9-13.6 14.9-22 23.4-2.6 2.6-6.2 2.8-9.7 5.4-3.8 2.6-22.4 26.1-28 32-15.3 16.2-13.2 21.8-19.2 41.8-6.9 2.1-15.5 4.7-17.4-4.7-1.3-6-3.4-16.1-9.2-18.7-1.8 9.4 3.4 19-1.8 26.3l-4.4 0.6c-4.6-7-15.2-23.9-29.7-16.3-4.6 2.5-15.1 17-18.4 26.8h456.5l15.6-16.2c9.1-8.4 39.5-39.3 48.3-45.2 15.8-10.5 21.3-2.5 38.9-3.7 6-13.6 27.4-32.2 4.8-71.9-4.3-7.6-8.9-12.9-13.7-18.2-15.5-16.8-16.6-17.8-46-17.7-10.6 0-19.6-0.7-30.4-0.8-12.7 0-17.8-2.6-31.1-2.6l4.9 2.5c4.4 1.4 5.5 3.4 9.2 7.7 7.5 8.5 15.2 18.6 16.5 30.8 0.9 8.6 2.9 15.2 3 22.4-10.8-0.7-24.5-13.7-30.9-21-9.1-10.4-11.9-27.9-14.2-31.5-2.7-4-0.2-1.9-4.9-3.4-4 16.5-0.3 33.9 6.9 48.1l7 12.7c-14.4-0.7-23.6-11.8-29.5-22.8-9.3-17.4-9.7-35.6-12.3-39.8-5.3 0.4-3.9-0.8-6.2 4.9-11.8 29 3.7 42.9 4.8 55.8-20.4-3.6-31.2-60.8-23.8-66.7 2.5-2.1 5 1.1 8.9-2.7-20.1-0.6-31.7-12.9-45.5-25.4-12.6-11.4-23.8-23.7-32.9-37.8-4.4-6.8-9.1-14.9-12.5-22.1l-11.6-24.7c-6.5-15-19.4-34.1-21.8-49.8-5.7-36.3 26.6-38.2 27.4-60.9 0.7-20.8-32-32.3-44.7-43.7-13.8-12.4-43.1-42-56.3-51.3-0.3-8.4 3.2-9 5.9-16 2.1-5.7 2.8-11.5 7.7-14.2 8.8 3.8 19.9 28.5 47.7 39.3 7.4 2.8 12.9 6.5 23 6.5-0.5-4.4 1.5-2.6-3.5-4l-17-6c-14.4-5.7-24.9-15.9-35.2-26.8-6.3-6.6-14.9-22.1-21.2-9.8l-9.1 19.3c-3.8 6.7-3.4 2.9-6.1 12.5-1.3 4.9-4 9.3-7.1 12.3-1.7 1.6-7.5 6.1-10.9 7.5-21 8.8-23 22.4-31.1 25.5-0.5-18.2 13.7-29.9 20.2-45.2 2.6-6.2 14.6-44.7 13.7-53.1-6.3 1.4-7.1 10.7-9.1 15.5-2.2 5.6-5 11.1-7.3 17.6-2.3 6.9-12.3 26.3-17.9 32.1-20.3 20.6-27.9 13.5-51.5 32.4-0.1 0.2-0.4 0.4-0.6 0.5l-3.4 3.9c-2.8 3.4-0.4 1.5-4.5 3.3-0.3-12.8 3.6-30.8 8.3-39.9l17.2-29.4c9.6-18.2 45.2-39.1 45.7-48.9-6.4-0.2-8.7 3.7-13.6 7l-22.7 18.7c-14.5 14.4-20 18.4-42.1 22.1-27.6 4.7-39.3 10.2-65.7 19.1-5.5 1.8-8.8 4.3-14.6 5.9-12.4 3.3-37.4 10.8-43.4 21.1-7.6 13.3-3.7 21.7-4.3 38.1-5.7-1.4-13.7-9.9-17-14.8-5.6-8 0-19.5-13.6-18-8 15.4-7.9 23-2.1 40.2-7.4-1.5-21.5-13.6-24.3-21-6-15.9 1-31-1.3-38.7-0.9-2.7 0-1-1.5-2.8-4 0.8-4.7 2.2-6.3 8.4-1.1 4.1-0.8 8.7-1.3 12.8-4.1 0.4-11.9-4.9-18.5-5.5-7.2-0.7-19.3 1-25-1.1-3.9-1.5-13-9.3-14.4-11.4-7.7-11.3-2.4-59.6-1.4-73.5 0.7-11.9 11.4-20.9 19.3-11.1 3.8 4.7 1 5.2 3.4 10.6 4.2 4.5 13.4-2.1 17.9 6.8 4.7 9.4 4.6 10.6 16.5 10.3 25.9-0.7 10 15.4 35.8 15.9 6.5 0.1 19.9 0.8 25.1-1.1 12-4.4 23.8-10.9 35.2-16.7 3-1.5 6.7-2.5 9.4-3.7 3.2-1.6 5.9-2.7 8.8-4 23.7-10.8 49-20.2 72.4-31.2 6.2-2.9 12.7-5 18.6-7.5 28.4-12.5 45.8-2.4 71.4-6.8 0-6.1-4.6-6.3-9.9-8-15.1-5-36.8-4.9-52.4-1-13.9 3.5-29.5 10-42.6 15.9-3.9 1.7-9.9 5.1-14.7 5.8 1.2-9 16.1-28.5 22.6-34.5l48-38c13.1-6.8 28.2-12.1 42.5-16.5 8.7-2.7 19.3-4.5 19.8-9.4-6.1-3.8-19.9 0.7-25.1 1.8-5.3 1.1-9 0.3-13.7 1.9-37 12.9-49.9 11.2-79.3 42.3-10.7 11.3-20.8 34.3-33.9 42.3 0.2-6.5 7.2-21.8 9.5-27.5 11.8-28.5 21.2-50.4 41.9-72.5 3.1-3.3 5.6-6.7 8.8-9.6 3.6-3.2 6.9-6.4 10.3-9.4 13.7-11.9 29.6-21.8 46-29.9 17.6-8.7 38.9-14 59.3-16l65-10.9c32.7-9.5 50.7-14.6 74.2-40.1 2.8-3.1 6.3-6.7 8.5-10 10.1-15.3 15.2-22.9 14.1-43.6 18.8 4.2 31.4 11 50.2 1.3 9.6-5 29-26.9 24-34.6-8.7 5.1-6.8 26.6-34.1 34.4-8.9 2.6-22.3-0.8-30-2.7-6.6-1.7-17.5-8.2-26.8-7.5-5.6 15.8-6.6 29.8-20 40l-28.4 15.7c-5.3 0.7-9.1 0.4-13.3-1.1 9.3-4.8 15.6-15.8 21.8-23.7 3-3.8 6.1-6.4 4.2-11-3.4-1.2-7.2 3.6-9.5 5.6-3 2.7-5.8 5.4-9.2 8.2-8.5 7.2-14.4 9.6-25.9 10.1 1.4-7.7 9-9 16.5-18.3 4.8-5.9 12.3-14 13.2-23.4-10.5-0.6-16.4 2-30.2 2.3-7.5 0.2-7.8 0.5-11.9-3.6-2.1-2.1-7.8-6.2-8.7-7.7 9.6-4.2 33.5-5.9 35.7-16.1-6.7-0.1-23.3 12.3-42.3 10.7-3.8-6.8-3.9-9.8-3.1-18.6 1.1-12.8 9.9-18.3 14.3-29.2 5.8-14.3 3.8-15.5 22.5-20.9 13.2-3.8 27.8-7.6 40.3-14 13.6-7.1 7.8 1.9 36.2-19.3 29.1-21.8 57.3-21.7 84 2.1 2.7 2.4 2.9 3.6 7.4 3.5-0.1-6.8-17.7-17.7-24.3-20.3-4.1-1.7-5.9-2.8-11.3-3.8-1.5-8.4-2.3-12.7 4.9-15.3 11.4-4.1 20.5-6.8 28.8-16 5.4-5.9 7.5-5.7 16.6-6.1 8.1-0.3 24.1-8.9 30-14.7 19.8-19.3 12-5.1 33-7.8 9.9-1.3 48.4-26.9 55.4-34.3 13.7-14.4 16.5-13.2 24-20.5 4.6-4.4 6.8-8.2 10.7-12.2 4.3-4.6 7-7.3 10.9-11.1 2.7 3 3.4 1.5 4.1 6.8 1.8 13.2-12 30.7-18.3 41.4-7.1 12-11.8 17.3-20.9 26.9-6.2 6.4-29.8 36.3-34.4 37.5-5.3-0.3-8.6-4.1-11.8 1-7.1 11.7 4.7 4.5-23.6 11.3-14.5 3.4-31.4 5.7-44.9 11.6l-16.5 4.9c-4.4 1.7-4.6 0.6-5.1 6 0.3 0.2 0.8 0 1 0.5 0.8 1.7 6 1.2 7.5 1.1 2.5-0.1 6.1-0.4 8.6-0.8 4.1-0.5 10.3-2.3 14.6-3.4 14.3-3.6 29.1-5.9 43.1-10.6l72.8-18.1c9.3-1.4 20.8-4.7 29.8-7.3 10.9-3.2 21.7 1.3 32-3.9 4.7-2.4 21-12.5 23.7-12.8-0.5 4.2-3.5 7.1-6 9.8l-4.3 4.4c-24.7 27.7-25.3 24.5-55.7 40-20.5 10.5-24-0.9-43.1 9.1-6.4 3.4-15.2 11-23.1 11.7-21.7 2.2-21.3-6.3-31.1-2.8-3.8 1.4-4.7 4-11.5 5.6-2.7 0.7-4.4 0.9-6.4 2.4-3.2 2.3-3 1.6-2.7 6.7 2.3 1.5 0 0.8 3.8 1.7 11 2.5 16.3-8.5 27.8-6.1 4.9 1.1 6.1 2.7 15.7 3.6 10 1 26.1-4.2 15.5 9.8-11.3 15-30.1 19-47.9 22.5-8.9 1.8-19.4-0.3-28.7 0.8 0 5.8 4.4 13.8 5.9 20.9 4.7 21.5 8 49.6 6 72-0.4 4.6-1.4 4.8-1.7 10.8-0.2 4.4-0.3 8.8-0.5 13.2-1 20.3-10.1 41.6-18.8 59.4-16.3 33.5-27 52.2-50.2 80.2-6.1 7.3-12.4 13.7-17 22-4.9 8.6-10.9 17.6-12.5 28-2.5 14.9-4.3 31.6-2.7 48.7 4.8 52.5 11.5 53.7 34 96.1 11.9 22.4 34.4 63.1 56.7 75.1 13.7 7.3 27.9 3.2 35.3-10.3 10.3-18.7 4.5-28.7 4.8-46.5 18 4.2 29.5 35.3 15.9 52.2-3.6 4.4-4.3 1.5-4.1 7.9 7 3 14.3-3.8 17.5-7.7 2.2-2.6 3.6-5.1 5.6-8.9 1.9-3.5 2.4-6.3 6.4-7.2 3.6 6.4-2.5 19.7-5.8 23.4-2.5 2.8-5.4 6-8 8.4-1.9 1.6-2.4 1.5-4.3 3.2-1.6 1.5-2.8 3.6-2.1 5.8 7.4 3.7 15-3.6 21.9-5.6 0.2 8-5.1 17-10.8 22-7 6.1-12.5 8.8-22.6 12.2-25.9 8.9-39.9-12.6-51.5-12.4-1.1 7.3 5 22.4 6.6 30 2 11.5 2.5 20.7 2.5 33.8 0 10.7-2.2 26.8 2.7 34 1.8 4.5 9.6 13.6 13.7 17.3 2.5 2.2 6.5 4.8 9.1 6 4.2 1.9 6.2 2.5 11.1 4.2 14.1 4.7 29.3 18.6 48.2 9.1 7.4-3.8 10.8-8.1 20.2-10.2 8-1.7 20.5-2.4 28.3 0.1 6.1 1.9 12.1 9.9 15.5 14.8 17.7 25.3-3.1 38.5 9.1 80.3 9.9 34 2.1 24.6 21.6 55.7 4.2 6.8 7.4 10.1 11.9 18.4l6.3 9.8c4.1 9.9 7.9 10.2 3 22.4l-7.1 16.2q-0.2 0.5-0.4 0.9-0.1 0.2-0.3 0.4c-0.1 0.1-0.3 0.4-0.4 0.5l-3.2 2.1c-7.5-6.5-12-16.9-17.6-24.7-3.9-5.3-2.2-5.9-8.7-6.1 0.7 7.3 4.1 12.5 2.3 23.2-0.5 2.4-5.8 16-7.5 17.5-5.1 0-6.4-3.1-8.6-6.6-2.3-3.9-3.1-6.9-5.1-11.4-3.7-8.4-13.3-11-21.4-5.2-6.8 4.9-7.6 16.2-18.6 32.1h150.1l-0.1 38h-2037l-0.1-38h177.5l-3.9-9.4c-2.8-4.9-5.5-11.7-9.1-14.9-3.3-3.1-4.2-3.1-9.9-3.2-5.2-0.1-6.9 0.3-11 1.9-1.4 0.6-3.5 1.3-4.9 1.9-4.7 2-8.2 3.9-12.9 1.2-7.8-4.5-22.6-17.8-15.7-27.9 2.9-4.2 7.4-8.6 11-12.7 6-7.1 12.2-23.6 13-34 2.2-30.2 8.8-55.2-4.3-84-5.6-12.4-14-19.7-8.1-34 2-4.8 4.4-11.3 7-15.8 3.2-5.6 15.9-24.9 22.3-24.4 3 0.3 6 1.6 10 2 11.4 0.9 24 0.5 34.4-1.9l18.3-5.7c29.1-12.4 42.9-11.2 59.7-41.8l5.2-12.4c4.4-11.5 3-30.1 2.1-44.3-0.4-7.5-0.2-15.9-1.5-22.4-2.8-13.7 2.8-31.5-17.1-31.6-31.7-0.1-61.2-18.8-73.7-44.2-5.3-10.8-3.8-30.4-0.7-42.1 4.2-15.7 9.3-18.9 14.5-32.3 7.4-18.8-33.3-27.9-15.3-66.7 4.2-8.8 32.1-49.5 41.2-59.7 0.8-0.9 1.9-2.4 2.4-3.1l22.8-31.5c17.8-26.1 32-64 6.6-91.4-12-12.9-16.8-15.1-31.5-7.6-23.5 12-50.4-2.3-69.3-16.7-17.7-13.5-25.3-11-31.6-15 0.8-6.1 8.4-8.4 13.4-11.5 25.2-15.9 37.5 10.5 52.9 9.6-5.5-12.4-23.6-17.7-31.5-29.7-4.4-6.6-15.4-34.7-15.6-44.9 8.6-0.5 19.1 1 27.3 2.6 14.4 2.9 22.5 16.1 30 26.5 5 6.8 7.8 13.7 15.2 14.2-2.2-9.7-10.7-17.4-13.2-29.3-2.1-10.3 1.2-28 6.1-33.5 6.1 1.3 7 13.8 20.5 26.4 4.2 4 7.4 7.4 11.5 11.4 2.6 2.7 3.6 4 5.6 6.4 13 16 5.9 28.5 8.2 47.6 1.7 13.8 31.2 30.5 41.2 50.9 9.7 19.8 8.4 55.7-3.4 75.3-2.8 4.6-5.7 9.3-8.8 14l-14.5 19.2c-3.5 4.6-6.8 8.5-9.6 14.2-6.2 12.8-21 31.4-30 49.4-19.9 39.9 23.3 56.3 47.5 33.6l3.9-3.7c0.2-0.1 0.5-0.3 0.6-0.5l6-8.2c11.9-16.3 16.4-33.7 7.6-52.9-4.3-9.4-10.7-15.5-18.6-21.7-6.4-5-1.2-8.2 5.3-18.1 2.2-3.3 7.1-9.5 9.6-12 7.3 2.3 20.4 15.6 24.7 22.8 4.2 7.3 9.3 16.4 11 25.1 1.1 5.4 0.5 4.9 2.3 9.7 4.2 11.5 1.5 30.4-3.3 42.4-4.7 11.6-10.2 20.8-17.5 30.3-41.4 53.4-66.9 21.9-79.2 40.4-1.9 2.9-6.5 13.2-7.1 16.6-2.7 15.9-6.3 24.8 3.9 38 7.2 9.3 19.5 12.3 35.9 12.6 21.4 0.3 21.6-4.5 33.3-15.2l17-18.8c1.7-1.9 3.2-4.7 4.8-7.1 13.1-19 26.5-36.9 37.4-57.5 1.1-2.1 3.6-5.3 4.5-7.2 15-32.7 15.9-55.4 11.3-91.9-2.2-16.9-1.8-9.2-3.8-17.8-1-11.8-12.9-33.3-13-42.9 2.3 0.4 10.3 8.1 13.7 10.7 15.6 11.7 31.2 32.9 36.7 51.6 1.1 3.9 2 4.6 2.8 9.2 0.9 5 1.6 6.1 2.6 10.3l3.9 33.3c0.2 6.7-0.3 15.8 2 21h4.7l12.8-71.2-5.3-27.2c-0.8-3.2-1-3.9-2.1-6.6-1.3-3.4-1.1-2.4-1.2-6.4 3.2 1.2 12.7 11.3 17.8 15.7 6.7 5.9 10.8 8.5 19.3 13.4 5.6 3.3 22.4 11.2 29 12.7 7.5 1.8 14.2 6.6 20.6 1.7-2.3-2.9 2.2-0.8-4.4-2.6-1.3-0.4-3.6-0.3-5-0.6-2.9-0.5-4-1.6-8-2.6-5.4-1.4-10.8-3.8-15.5-6-25.5-12.1-31.2-17.6-49.3-36.5-24.6-25.6-19-28.5-33.7-52.2-4.9-8-12.3-16.5-18.1-24.4-12.4-16.8-13.3-22.1-28-36.2-6-5.8-8.1-7.5-14.9-7.6 1.4 10.1 10.1 8.6 20.8 23.4l14 20.9c7.4 11.5 24.1 30.3 28.1 40 4.3 10.8 9.8 22.9 15.9 32.3 5.4 8.1 6.1 14.9 8.7 20.9 7.4 16.4 6.8 56.2-1.6 71.9l-1-1.8q-0.3-0.7-0.5-1.2-0.1-0.3-0.2-0.7l-1-8.2c-0.7-4.5-1.6-6.8-2.2-10.8-6.7-43.3-19.2-57.2-48.6-83.3l-23.3-22.4c-2.1-2.2-1.8-1.9-3.7-3.3-5.1-8.1-11.6-14.4-17.1-24.9-12.3-24.1-19.1-35.3-19.7-64.9-0.3-13-2.8-26.8-1.1-38.3 1-7.1 1.1-12.4 3.1-18.3 4.3-13 10.6-34 17.5-44.5 5.3-8.1 29.9-39.9 39.9-43.5 4.1 5.9 4.3 13.9 9 19.1 7.3 8.5 12 2.6 23.1 4.8 1.1 21.4-2.4 22.6 6.8 39.1 4.7 8.5 9.8 12.6 17.4 17.7 3.5 2.3 3.3 3 8.2 3.7 1.2 3.8 0 2.5 4.9 4.9 5.5 2.7 9.1 1.1 14.2 2 13.4 2.5 20.4 10.3 27 12.2 4.7 1.3 8.3 2.9 13.2 3.2 24 1.5 7.5-4.4 35.1 12.5l80.8 47.6c14.8 10.5 21.6 18.7 33.8 30.4 9.2 8.9 44.6 35.3 55.7 41.3 52.2 28.2 61.8 7.7 72.4 6.7 0.1 8-5 21.4-8.2 27.2l-15.9 14.5c-11.4 2.2-16 6.3-29.6 2.5-9.6-2.7-14-5.9-22.4-10.4-18.3-9.9-22.5-14.8-37.9-27.3-11.5-9.5-25.2-18.7-37.5-27.8-6.1-4.5-32.3-27.9-38.1-24.8 0.5 4.8 9.6 10.4 13.3 13.8 13.6 12.7 30.7 23.6 44.6 34.7 0.2 0.1 0.4 0.3 0.6 0.5l7.9 5.2c15.3 11.3 21 17 38.4 28.1 4.9 3.1 14.3 5 15.2 11.9-24.4 6.1-62.7-4.8-82.7-20.6l-18.9-14.9c-11.9-11.9-17.4-29.1-29.8-39.7l-29.4-22.9c-2.9-2.5-6.9-5-11.4-2.7-0.1 5.8 3.8 5.7 8.1 8.4 31.5 19.8 34.3 30.3 52.7 54.5 15.6 20.4 42.6 33 66.6 42.6 3.9 1.5 8.1 2.3 9.5 5.5-11.2 3.4-24.4 3.5-38.1 3.5-12.8 0-21.7-2.6-33.5-7.1-29.3-11.2-61.3-55.5-84.3-77.4l-24.6-25.4c-3.7-3-16-9.6-19.9-9.4-0.6 4.6-0.3 3.7 2.4 6.1l65 64.5c0.2 0.2 0.4 0.4 0.5 0.6 18.1 17.8 34.3 34.4 56.7 47.7 4 2.4 7.5 4.1 11.2 6.2 3.1 1.6 9.6 3.6 11.6 6.1-3.5 4.8-14.8 4.2-20.5 2.8-6.3-1.5-13.3-1.3-19.6-3-35.9-9.9-61.2-26.3-86.9-52.5l-19.6-21.8q-0.4-0.4-0.5-0.6c-0.1 0-0.3-0.3-1.1-1-7.8-7.6-14.8-18.2-21.1-26.8-7.2-9.6-12.7-19-19.3-27.5-3.9-5.1-17.1-20.1-25.3-19.6-0.8 7.2 12.3 16.2 17.2 21.2 13.9 14.3 24.3 33.9 37.5 49.4 0.1 0.2 0.4 0.4 0.5 0.6 1.9 2.4 1.8 3.3 4 5.9 8.7 10.6 17.6 21.2 27.9 30.9l42.5 35.7c8.2 4.9 17.7 7.2 25 12.5-6.5 2.5-17.2 0.8-24.7 0.7l-8.2 1.8c6.4 5.1 42 2.6 47.5 1.2l-12-8c-3-1.4-5.1-0.8-6.2-3 4.8-2.2 5.9 0.4 8.9 1.7 4.2 1.8 5.2 0.3 9.6 2.4 12.3 5.8 31.4 6.2 44.9 4.3 10.7-1.4 14.9-1.3 16.6-8.4l-14.2-4.3c-1.7-0.6-2.8-0.6-4.3-1.2 5.1-3 27.9-0.9 35.9-1.1 9.2-0.3 23.3-1.6 29.8-7-1.6-7.8-0.9-1-3.4-5.5 13.8-0.7 24.1 0.6 36.8-2.3 7.6-1.7 27.2-2.4 35.6-2.6 16-0.2 63.3 2.7 73.1-2.8 28.4-12 41.8-46.4 62.2-67.5 11.2-11.6 38.1-24.2 54.5-20.8 1.8 8.4 2.5 20.5-3.1 25.5-2.5 2.3-6.2 2.9-9.3 4.7-5.2 2.8-6.4 2.5-7.3 8.1 10.5 0.2 5.3-3.9 14.3-3.4 0.1 6.8-1.8 10.3-3.3 15.8-2.1 7.8-4 4.9-11.5 7.6-7.7 2.6-21.5 7.6-21.8 17.5 11.2 1.1 17.7-13.4 28.3-11.9 2 10.4-6.9 28.4-12 37.1-7.6 0.7-21.6-0.4-21.7 9.7 9.3 1.4 9.4-2.3 17.2-1.8-2.5 11.9-15.1 17.1-24.3 21.8-12.8 6.4-28.8 8.4-32.7 13.1-1.3 1.5-1.4 2-2.9 3.7l-9 8.4c-5.8 4.3-7.7 6.2-16.1 3.2-6.1-2.2-11.5-4.4-16.4-6.3-38-14.3-45.6-2.5-78.7-0.8-17.8 0.9-21.9 1.8-34.5 12.4-23 19.5-14.5 31.1-39.6 29.1-8.3-12.2-43-53.2-61.5-50.9-0.6 6.6 5.2 6.8 13.7 13 9.9 7.4 17.5 10.9 12.1 16.2-0.1 0-2.9 1.9-3.1 1.9l-20.2 11.6c-4.2 2.8-8.2 5.6-11.8 9-2.3 2.3-5.8 7-6.6 10.2-0.9 3.1-0.6 1.7-0.7 5.4 4.6-1.3 5.5-2.5 8-5.3 1.6-1.9 3-3.5 5.2-5.5 7-6.6 34.7-25 41.1-23.4 5.1 2.3 13.4 10.3 12.6 17.8-4.4 2.6-7.1 4.3-10.4 7.7-3.2 3.4-5.7 5.9-9 9.5-8.7 9.4-53.2 41.5-64 47.1-4.6 2.3-6.4 4.3-11.3 6.9-8.4 4.4-14.6 9.1-21.3 15.8-3.3 3.2-6.1 5.9-9.1 9.3-28.2 31.2-30 24.8-22 42.9 10.7 24.2 6.2 65.4 0.6 90.6-1.3 6-0.5 0.5-2.6 5.9-2 5-3.2 8.8-5.3 13.2-2.5 4.9-3.3 8.4-5.4 13.2-4.1 9.2-13.3 28.7-19.1 36.3l-8.4 10.1c-14.6 18.1-48.9 50.1-70.1 58.4l-21.4 6.5c-3.9 0.6-4.4 0.4-7.6 1.4-10.6 3.5-20.7 3.9-31.4 5.7-4.7 0.8-2 1.2-7.5 2.1-2.4 0.4-4.8 0.5-7.5 0.8-13.1 1.7-19.6 2.8-34 3-13.1 0.2-19.6 3.5-26.7 10.6-1.9 1.9-2.9 3.1-4.5 5.3l-3.5 5.4q-0.4 0.5-0.5 0.8-0.4 0.5-0.8 1.1l-1 1.2c-0.4 0.6-1.1 1.6-1.8 2.5-19.6 25.6-17.8 33.2-18.2 63.8-0.2 17.1 0.8 18.2 7.1 30.4 3.8 7.5 10.2 15 20.6 16.7 50.7 8.2 71.2-9.4 117.4 30.1 4.1 3.5 8.4 9.4 11 15.6h290.6c-7.4-11.8-19.5-27.9-31.5-23.4-7.7 2.9-11.6 21.7-22.6 5.9-8.5-12.3-7.7-13.3-12.3-20.3-8.5-13 1.1-26.6-6.7-42.2-5.1-10.2-41-39.4-51-47l-36.4-27.8c-8.7-10.2 13.9-23.8 22.1-31.5 2.6-2.4 16.7-11.8 21.8-18.3 5.7-7.1 4.1-16.4 1.6-25.1-5.1-17.8-15.2-27.4-28.1-37.3-5.4-4.1-21.5-18.1-27.7-21.2-4.4-2.2-6.2-2.8-10.1-5-1.4-7.3 6-23.1 9.2-30 4.6-9.9 8.7-14.7 9.4-28.8 0.9-18.1 3.1-16.4 3.1-36 0-5.9 0.4-13.5-0.4-19.2-2.3-15.4-6.7-13.8 5.7-18.5 8.9-3.4 38.9-36.9 46.7-35.5l83.8 76.3c9.7 10.4 29.9 32.7 37.2 43.4 6.7 9.9 4.1 4.6 10 16 14.8 28.6 18.3 55 6.1 85.9-3.3 8.3-14.2 24.6-18.4 33.9-1.5 3.3-2.4 6.4-4.3 9.8-5.4 10.2-4.1 11.9-6.4 19.5-1.3 4.2-1.2 6.4-1.3 11.7-0.3 34.3 2.4 26.4 3 37 1.3 19.9 9.4 30.5 23.3 43.2 9.1 8.3 17.9 20.4 28.6 23.8 33.3 10.6 59.7-1.8 110.6 23 11.6 5.6 27.9 25.3 31.1 37.7h15c0.8-13.6 6.7-35.5 11.9-41.6l30-32c9.5-9.1 22.6-22.5 28.3-33.9 7.7-15.7 9.6-31.3 13.2-47.9 2-9.1 2.1-19 3.9-27.6 3.7-16.7 2.6-72.2 5.7-85.4 2.8-12.2 1.9-43.9 2.3-59.6 0.5-20.5 1.4-38.9 1.4-60l-1.1-368.1c-0.4-40.5 0.5-82.3-1.1-122-0.4-10.5 0-21.2-0.4-31.7-0.3-9.3-1.6-18-1.8-28.3-0.5-19 0.1-41.1-1.4-59.7-2.9-34.4-1.8-96.2-14.2-124.9-1.9-4.5-2.8-6.5-4.8-10.5-3.7-7.3-7.3-11.8-11.8-18.6-8.4-12.6-18.8-21.2-31.1-29.9-23.3-16.5-72.5-20-103.7-9.9-15.1 4.9-30.2 11.5-43.5 18.4-14 7.2-25.7 15.3-37.8 23.1-14.4 9.4-21.2 16-39.3 22.7-18.2 6.7-39.7 16.1-58.9 18.1-5.5 0.5-7.9 1.7-12.5 2.6-6 1.2-21.8 2.7-27.7 2.6-21-0.3-40.1-5.4-58-10.9-16.1-4.9-22.6-6.7-37.5-16.1-7.1-4.4-20.1-13.9-25.9-19.6-2.6-2.6-5.7-5.5-6.8-8.4 19.7-1.4 48.5 2.8 77.3 0.3 36.2-3.3 34.3-4.9 66.6-12.8 4.4-1 4.6-0.3 8.8-2.2 6.7-3 15.5-4.7 22.1-7.2 9.8-3.7 19.1-6.5 29.1-10.3 4.6-1.7 9.1-4.3 14.5-6.1 3-1.1 4.5-1.9 6.8-2.9l31-13.4c0.3-0.1 0.6-0.3 0.8-0.4l2.2-1.7c-1.2-5.6-0.2-3.4-5.5-5.4-22-8.6-23.4-10.8-50.2-17.8-24.9-6.5-78.8 2.5-104.4 10.4-4.6 1.4-10.3 3.1-14.9 4.4-14.8 4.4-28.9 10.4-43.1 15.7l-26.8 11.3c-12.7 6.1-42 20-56.6 21.1-7.4 0.6-9.7 2.3-17.4 2.6-6.4 0.3-13.2 0.3-19.6 0.1-9.8-0.3-23.7-3.2-32.3-5.6l-29.7-9.5c-4.3-1.5-11.7-3.3-15-4.8-1.7-0.8-4.1-2.2-6.3-3.3-2.3-1.1-3.8-1.9-5.7-3-13.8-7.8-22.5-14.8-32.4-26.4-2.9-3.4-7.1-5.8-7.4-10 11.1-0.3 17.1 3.2 27.7 3.4 11.4 0.1 20.6 1.3 31.6 1.6 22.1 0.6 41.1-1.2 63-1.6 20.4-0.5 68.9-16.8 88-24.6 5.4-2.2 7.8-0.6 8.3-6.6-2-1.2-61.3-16.8-66.8-17.8-22.3-3.9-48.6-13.8-74.2-8.3-11.7 2.5-24.5 3.6-35 7-3.5 1.2-5.4 1.1-9.4 1.7-7.6 1.3-33.2 10.6-39.8 13.6-14.3 6.7-16.1 10.4-32.2-0.3l-9.3-5.8c-19.2-10.6-55.9-39.2-73.2-54.2-15.4-13.2-28.8-27.9-41.2-43.5-6.3-7.8-11.4-17-17.1-25.3-4.1-5.9-17.5-32.8-22.3-49.3h-38.5l-0.1-38zm-1609.9 602.3q-0.1-0.3-0.2-0.7 0.3 0 0.6 0 0.1 0.4 0.1 0.8-0.2-0.1-0.5-0.1zm-5.4-7.7c-6.8-3.9-8-5-13.1-10.9-14-16-8.1-33.1-9.8-49-8.2-0.3-12.4 4.4-19.7 2.4-8.3-2.4-12-22.9-12-31.5-0.1-16.5 4.1-37.2 20.4-44.7 21.9-10 40 9.7 50 10.8 5.1 0.5 16.6 0 21.3-1.5 9.2-2.8 27.6-4.9 36.5 3.8 5.6 5.5 8.2 17.5 20 23.4 11.6 5.8 17-0.9 38.4 5.4-1.5-2.5-2.2-3.2-3.4-4.8l4.5-2.5c5.9-2.8 9.6-2 16.3-1.9 7.5 1 7.2 12.8 4 18.3-3.1 1.2-2 0.9-4.9 1.7-2.5-1.8-1.4-1.3-3.5-3.3l-2.8-2.2c-0.2-0.4-0.6-0.4-0.9-0.5 3.3 10.3 6.5 4.2 6.7 20.9 0.4 44.5-31.4 12.4-51.5 18.6-4.9 1.5-11.9 8.7-13.2 14.4-1.7 8.2 3.1 15.9 7.5 19.4 12.2 9.8 34.8-8.4 46.9 1 1.4 1.7 6 29.5-11.5 34.4-14.1 3.9-14.3-5.9-42.5 3.1-11 3.6-32.2-1.8-39.5-7.2-5.6-4.2-7.6-5.8-16.7-7.2-3.7-0.5-8 0-11.5-0.6-5.3-0.8-2.5-2.3-10.2-2.8-1.1-4.8-1.8-4.6-5.8-7zm1228.1-63.9q0.4 0.3 1.2 0.7c0.8 6.4 8 11.4 16.7 11.4 9.3 0 16.8-5.7 16.8-12.6 0-7-7.5-12.6-16.8-12.6q-1.9 0-3.7 0.3c-4.7 0.6-9.6 2.5-13.9 5.2zm1.1 0.7q-0.1-0.6-0.1-1.2c0-6 5.6-11.1 13.1-12.3 7.8-1 14.8 1.9 17.6 12.1 4.3 16.1-23.7 5.2-30.6 1.4zm114.8 1217.4h-77.2l20.2 48.3h-53.2l16.6 53.5h-57.4l13.3 49.7h-97.2l12.9-49.7h-60.6l23.2-53.5h-59.8l15-48.3h-73.8v-45.2h73.8l-15-48.2h59.8l-23.2-53.6h60.6l-12.9-49.7h97.2l-13.3 49.7h57.4l-16.6 53.6h53.2l-20.2 48.2h77.2zm-233.3 18.5h91.1v-82.5h-91.1zm24.9-59.2h43.4v36.2h-43.4zm-969.8 40.8h-77.2l20.2 48.3h-53.2l16.6 53.5h-57.4l13.3 49.8h-97.2l12.9-49.8h-60.6l23.2-53.5h-59.8l15-48.3h-73.8v-45.1h73.8l-15-48.3h59.8l-23.2-53.5h60.6l-12.9-49.7h97.2l-13.3 49.7h57.4l-16.6 53.5h53.2l-20.2 48.3h77.2zm-233.3 18.4h91.1v-82.5h-91.1zm24.9-59.2h43.4v36.3h-43.4zm701.6-1399.7c17-29.1 41.8-60.5 73.9-72.9 13.3-5.2 28.4-11.6 40.8-17.9 1.9-1 2.3-1.1 4.5-2.1 3-1.4 0.4-0.1 2.2-1.1 18.3-10.3 47.5-31.9 60.5-47.1 11.4-13.2 15.9-23.3 19.2-39.4 4.5-21.6 5.6-34.9 5.6-59 0-8.5 1.4-21.7-1.1-28.5-7.6 1.5-5.5 7.5-11.1 19.9-11.5 25.2-16.3 50.4-37.7 72-1.3 1.2-2.2 2.1-3.8 3.8l-22 17.1c-31.4 20.6-52 27.4-83.1 42.3-19.4 9.4-38.7 26.5-48.3 46-2.1 4.2-3.1 5.9-4.8 10.4-1.6 4.4-2 8.2-3.5 12.9-2.5 7.7-5.4 49.7-4.7 59.4 6.8-0.6 6.2-3.6 13.4-15.8zm-1084.3-620.4v-38h2041v38zm466.4 820.6c0 7 7.5 12.6 16.8 12.6 9.3 0 16.8-5.6 16.8-12.6 0-6.9-7.5-12.6-16.8-12.6-9.3 0-16.8 5.7-16.8 12.6zm1300.4-470.6h-34.7c-7.4 3.4-15.4 7.5-22.2 12.1-16 10.8-24.6 16.2-38 29.5-12 12-20 21.6-30.1 36.2l-20.1 30c-2.8 3.7-5.2 5.8-5 12.2 21.2 2.2 44.6-3.4 60.5-9.7 32.5-13 55.9-37.7 73.1-68.8 10.4-18.8 14.2-32.5 16.5-41.5zm-220.2 0h-10.2c-0.6 1-1.2 2.1-1.9 3.1l-29.5 34.6c-10.5 11-14.2 16.6-25.1 27-20.5 19.4-35.6 36.2-60.1 57.4-9.2 7.9-13.6 12.1-21.3 21.2l-17.4 20.6c-2.4 4-0.8-3.5-2 5 9.8 0.4 11.8-1.7 18.6-2.9 3.4-0.6 6.9-0.5 10.3-1 14.6-2.2 47-10.1 59.7-16.8 4.4-2.3 9.6-5.1 14-7.5l19.7-12.9c22.3-17.6 39.1-36.4 44.3-64.9 2.8-15.5 3.3-8.2 3-29.8-0.1-10.1-0.6-22.9-2.1-33.1zm-386.5 0h-50c-1.2 12.2-3.9 30.2-4.9 35.8-1.5 9-14.1 36.2-20.1 44.9-4.2 6.2-12.4 17-14.4 24.5-2.2 8.5-8.9 35.5-8.7 42.9 6-0.1 8.8-6.8 16.1-14.5 10.7-11.4 17.8-21.4 33-31 28.3-17.8 41.5-50.8 47.1-82.5 1.6-9 1.8-15.2 1.9-20.1zm-123.2 0h-45.9c0.1 11.9-1 29.3-0.9 36.3 0.1 15.4 2.6 27.8 6.3 39.8l3.3 8.7c1.7 4.1 2 4.4 3.4 7.6l18.2 50.6c5.3-3.6 10.1-22.6 12.3-31.2 6.3-25.1 7.5-55.3 5.1-81.7-0.8-9.1-1.9-19.8-1.8-30.1zm-134.3 0h-32.6c-0.2 3.8-0.6 7.8-0.7 10.2-0.1 12.4-1.7 29.9 1.7 41.5 6.3 20.8 13.9 40.3 29.2 55.8l47.1 37.9c31.7 26.4 21.6 22.7 39.4 44.3 4 4.8 4.7 9.7 11.3 10.6 0.8-10.1-3.8-25.1-5.8-34.3-6.5-29.8-16.4-49.4-33.9-72l-13.3-15c-16-15.2-37.5-29.6-39.7-54.6-0.6-5.8-2.6-15.9-2.7-24.4zm-207 0h-4c-1.9 8.5-0.7 38.2 0.1 45.6 1.2 11 6.7 31.4 9.4 41.5 5 19.2 31.3 43.2 45.6 55.7 21.3 18.7 40.7 24.2 66.2 33.8 7.6 2.8 18.6 5.1 26.5 7.2 21.3 5.8 29.9 7.2 51.3 16.1 14.5 6 19.4 9.4 31.4 18.7l39.9 36.2c3.2 2.9 2 2.4 6.6 3.3 0.6-18.3-15.1-53.8-30.4-71-17.6-19.7-20.7-15.7-37-29.4-3.6-3-18.6-8.7-22.9-10.6-47-21.2-93.7-31.8-131.9-69.4-23.7-23.3-31.8-39.4-46.7-69.7-1.6-3.3-2.5-6.3-4.1-8zm-386.3 0h-18.9l11.5 18.9c16.2 24.7 33.6 55 57.4 73.2 19.7 15.1 45.1 30.8 69 41l46.5 18.7c0.4-6.7-3.2-10.6-6.2-15.6-15.7-27-26.6-40.2-49.3-59.5-33.7-28.8-69.6-57.4-110-76.7zm-81.3 1446h4.6c-1.1-0.6-2.5-1-4.6-1zm56 0h6.3c-1.6-1.6-3.6-2.6-6.4-3q-0.1 1.6 0.1 3zm38.6 0h2.8c-0.2-0.2-0.7-0.4-2.7-0.9q0 0.5-0.1 0.9zm392.7 0h8.1c-2.1-3.2-5-6.3-9.6-7.5 0.1 3.4 0.7 5.7 1.5 7.5zm48.2 0h8.1c-0.9-1.3-2-2.4-3.3-3.2-1.3-3.2-3.6-5-6.4-7.1-3.1-2.3-4.3-4.2-9.7-3.5 0 5.2 4.2 6.5 7.3 9.3 1.8 1.6 3 3.1 4 4.5zm41.5 0h8.7l-2.3-2.1c-4.8-4.2-3.5-7.1-11.6-8.5 0.4 5.9 2.6 8.3 5.2 10.6zm122.6 0h47.9c0.3-11.5 6.7-32.2 8.8-37.3 5.3-12.5 9.7-27.3 12.9-40.2 1.9-7.5 2.9-15.7 4.5-22.8 1-4.5 1.7-4.8 2.6-10.5 1.9-13.2 8.7-52.1 2.8-61.5-4.2 0.5-3.1-0.3-4.3 4.5l-4 20c-4.6 15.5-9.6 46.8-17.8 63.8-7.3 15-24.8 34.5-35.4 46.3-7.3 8.3-8.4 8.2-13.4 19.3-1.1 2.6-3.1 11.7-4.6 18.4zm163.8 0h41.4c-3.9-12.8-11-38.1-14.4-46.3-7.3-17.6-20.3-27.2-31.6-39.3-5.1-5.4-5.1-13.9-6.4-20.9-0.5-2.5-1.4-3.7-2-6.3-2.8-10.7-4.2-34.4-8.2-49.4 0-0.3-0.1-0.6-0.2-0.9l-4.4-32.3c-0.1-0.8-0.6-3.4-0.8-3.9-1.5-3.7 1-0.9-2.3-3.1-3.7 3.1-2.3 8.6-2.3 13.9l0.5 45.3c0.3 4.8 0.2 9.8 0.7 14.6 0.7 6.7 5.2 32.8 7.3 38.5 2.9 7.6 3.6 16.9 6.2 24.5 2.5 7.5 5 14.9 7.4 22.8 3.5 11.4 8.2 27.9 9.1 42.8zm153 0h7.1c1.6-1.7 3-3.9 3-7.4-4.5 0.5-7.1 3.6-9.3 6.4q-0.3 0.4-0.8 1zm561.9 0h9.3c0.6-0.9 0.9-2 1-3.6 0.1-7.3-6.6-3.7-8.2 1.7-0.7 0.3-1.4 1-2.1 1.9zm-1156.4-1302.2c-2.3-1.4-4.4-3.2-6.4-4.2-3.4-1.9-3.9-2-6.9-4.1-16.8-11.5-31.7-25.5-45.5-41.6l-25.2-29.2c-3.9-4.4-2.7-4.9-7.1-9.1l-25.1-34.6c-4.2-7.7-3.7-10.9-10.7-12.7-0.7 20 9.5 68.5 19.2 90.1 13.9 31.1 52.2 56.1 83.8 68.5 8.1 3.1 25.5 7.1 35.3 8.1 7 0.7 11.1 2.4 18.6 3.4 7 0.8 10.3 4.1 18.4 2.7 0.6-8.4-12.4-14.2-21-21.1-2-1.6-3.4-3.2-6.1-4.8-3-1.8-4-2.3-6.7-4.2-4.8-3.5-9.6-4.2-14.6-7.2zm-175.7 319c7.4-5 27.4 6.2 17.1 14-3.4 2.5-13 2-16.5-0.5-3.7-2.7-4.7-10.7-0.6-13.5zm882.7 137.3c40.5 0.3 24-5.7 57.4 38.8 4.5 6.1 8.3 12 13.5 18.1 2.3 2.9 4.7 6.1 7.2 9.2l15.1 17.5c3.7 4.3 4.2 3.8 6.3 9.5l-9.4 4.6c-16.5 4.3-44.1 24.3-56.7 34.3-20.1 15.8-9.5 11.8-29.1 23-13.4 7.5-27 18.7-31.5 21 0-7.4 4.4-18.4 7.9-23.9 19.1-29.9 45.4-32.7 48.7-43.7-4.7-4.1-15-1.8-20.9-1.1-10 1.1-31.3 12.7-39 19.5-1.6 1.3-4.5 3-6.2 4.2 0.6-8.2 19.7-23.7 25-26.8 19.5-11.6 34.3-11.3 38.4-14.4-1.2-13.2-34.6-35.8-47.8-39.6-1.8-0.5-13.1-2.5-14.7-2.6-8.4-0.7-26.4-3.1-32.6-2.3l-10.9 26.4c-9.4-2.1-6.3-16.9-18.5-18.9-3.7 13.6 2.3 22.3 1.7 27.8-4-0.6-16.8-8-20.9-13.8-3-4.2-4.8-7.3-7.5-11.1-3-4.4-4.1-6.7-11.3-5.9-10.1 10.9 3.3 17.4-16.8 31.8-6 4.3-9.4 4.4-16.5 7.5-8.7 3.8-11.9 2-19.3-1-9.1-3.8-26-10.1-32.9-16.1-4.7-4.1-22-22.6-15.1-29.6 4.6-4 16.1 1.8 25.8-4.7l18.1-11c7.3-4.3 11.5-6.3 17.4-12.2 11.5-11.8 15.5 1.2 40.4-18.3 5.7-4.5 11.1-8.7 19.5-9.7 11.3-1.3 15.6-4.3 25.7-0.9 9.1 3.2 11.9 7.2 19.7 10.2 2.3 0.7 5.3 1.1 6.9 2.2 6.6 3.6 55.4 1.9 62.9 2zm-538-41.7c1.8 13.6 8 14.2-1.5 30.7l-19.2 32.1c-12.1 19.2-35.4 37.1-57.6 44.5-11.7 3.9-21.8 19.2-25.9 24.2l-13.3 14.9c-5.2 5.6-6.5 9.9-14.5 3.3-3.9-3.2-54.5-40-55.7-46.8-0.8-4.3 2.5-4.4 5.9-6.7l54.6-48.8c11.7-11.3 39.2-27.8 45.9-43.3 3.9-9.1 0.8-13.5-0.4-21.7-3.6-23.5-4.6-45.7 10.3-62.2 4.1-4.5 8.7-8.2 14.1-11.9 8.4-5.8 8.3-7 13.9 2.2 11.4 18.5-2.3 13.6-7.1 30-0.1 0.5-0.2 0.7-0.3 0.8 0 0.3 0 0.8 0 1.8l0.2 1.9c0.3 0 0.7 0 0.9-0.1l4.4-2.7c3.2-3.5 10.2-13 11.8-13.2 2.5-0.3 18.2 14.4 11.6 27.6l-5.5 7.8c-3.1 3.8-6.3 6.4-6.1 12.3 6 0.1 5.9-2 9.8-6.4 2.4-2.7 4.5-6.6 8.7-7.6 0.2 0.2 12.1 16.4 3.6 25.5-4.2 4.4-4.3 2.2-4.5 9.2 11-0.6 4.5-3.4 11.7-6.5 3.6 3.8 3.3 3.1 4.2 9.1zm-667.7 159.6c-9.1-10.5-10.1-22.4-10-36.7 3.7 0 6.4 0.3 9.2 0.9 2.1 0.5 1.6 0.2 3.6 1.1 10.9 5 13 3 21.6 12.4 5.7 6.2 1.6 0 6.9 8.6 3.7 6.1 10.4 8.7 14.6 32.5 3.1 17.4 10.9 6.5 29.9 7.1 7.3 0.2 15.6 2 24 2.7-0.9 3.5-5.1 9.4-7.9 12.8-3.7 4.5-6.1 6.5-8.9 11.8-21.8 1-29.8-5.3-38.2 5.5-5.8 7.5-9.8 19.3-18.4 24.8-7.7 5-24.4 8.4-35.8 6.2-10.2-1.9-24-5.1-31.7-11 0.1-6 12.6-14.7 17.3-16.9 7.4-3.6 19.2-5.8 26.6-8.3-1.9-5.3 2.5-2.1-4.6-5.2-4.1-1.8-14.9-2-19.8-2.9-12.3-2.2-11.9-2.4-20.9-8.4-7.1-4.8-24.1-25.5-25.2-33.5 10.4-7.9 42.4-3.4 52.4 2.1 0.8 0.5 0.9 0.5 0.9 0.5 0.1 0 0.4 0.2 1.1 0.7l20.5 16.4c3.4 3.2 4.3 5 9.9 4.3-0.7-8.4-11.5-20.9-17.1-27.5zm142.9 595.1c-0.6-16.9-1.8-23 4.7-34.8 10.5-19.1 11.4-13.8 23.1-16.3l53.4-11.8c4.8-1.2 12.8-5.3 17.6-8.2l15.5-9.5c7.4 7.4 8.4 38.5 5.5 52.6-1.1 5.6-2.2 5.2-2.8 12.7l-7.1 37.2c-6.4-2.5-20.6-16.7-23.2-22.5-5.4-12.4-1.8-29.7-5.2-39.6-5.9-0.3-5.1 0.2-5.3 6.2-0.3 12.2 1.3 22-6.8 28.1-8.9 6.7-16.2 13.3-19.2 27.1-2.9-0.2-1.4 0.9-4-2-1.4-1.5-13.5-19.7-14.2-23.7-1.2-7.7 0.6-13.3 2.1-19.2 3.3-12.3 4-14.3-1.3-14.2-1.9 2.8-2.6 9.9-5 14.5-6.2 11.8-14.4 18.9-18 24.1l-0.8 1.2c-1.9 4-0.1 6-5.5 8.5-2.7-1.9-3.2-0.6-3.5-10.4zm353.5-784.2c-19 7.5-22.3 18.7-30.3 21.6-8.3 3.1-20.9 4.5-29.9 1.3-8.8-3.1-14.9-12.1-21.5-13.6-10.1-2.3-24.7-0.3-33 2.1-11.3 3.3-20.6-4.5-19.4-14.9 1.1-9.4 14.9-13.7 22.7-11.4 3.1 0.9 7.2 4 12.2 5.1 12.1 2.7 35.4-0.7 45.8 0.7 3.5 0.5 6.6 2.1 9.6 3.7 2.8 1.5 5.9 2.7 8.9 4.2 4.1 2 6.9 2.3 13 1.4 10.6-1.7 19.9-9 31-9.4-0.9 6.5-4.1 7.2-9.1 9.2zm-527.1 845.6c-16.9 1.4-20-1.4-38.3 21.1-3.9 4.9-1.2 3-4.3 5.4l-3.1 1.6c-3.1-24-10.9-31.3 8.5-52.8 14.7-16.2 24.1-25.9 47.8-25.6-0.1 5-0.1 10.1-0.3 15zm377.3 4.2c6.8-12.3 12.7-21.5 25-30.5 28.8-20.9 22.7-15.2 32.7-6 5 4.6 13.9 7 5.5 14.8-0.2 0.2-0.5 0.4-0.6 0.5l-21.4 27.5c-6.1 8.3-7 9.1-20.8 9.2-9 0-18.6-0.2-26.1-2.6-0.2-6.7 2.8-7.8 5.7-12.9zm249.4-100.6l-1.5-1.3c-6.5-5.9-9.2-10.5-14.1-18.5l-14.7-25.8c-8.1-15.1-14.2-17.3-19-22.3-4.5-4.8-0.2-8.8 0.7-14.9 1.1-7.5 1.9-9.1 3.2-16.3 2.8-0.6 11.6 9.3 16.1 13.5 9.7 9 33 37.3 33.5 48.6 0.4 9.3 0.6 28.7-0.2 37.7-1.4-0.2-2.7-0.1-4-0.7zm-30.6 16.9c-3.2-3.9-6.3-5.6-9-9.5-2.4-3.4-2.7-8.5-5-13.5l-13.3-23.7c-1.6-2.3-6.9-9.1-7.6-11.2-2.1-5.9 8.4-20.3 11.4-24.1 5.5 2.2 13.6 12.6 16.8 17.9l15.7 26.8c8 15.5 3.5 43.3-0.9 48.3-3.3-3.9-4.4-6.5-8.1-11zm-248.1 64c7.6-9.6 7.8-13.7 17.1-24.2 11.2-12.7 24.6-16.9 32.6-22.9l22.4 16.4c-1.3 4.1-4.7 5.2-7.5 7.2-2.9 2.1-5.7 3.8-9.2 6.1l-12.7 10.1c-14.3 10.8-28.7 22.6-48.5 15.9 1-4.5 2.9-5 5.8-8.6zm312.6-462.3c-7.1-2.4-9.1-3.7-13.4-8.1-2.9-3.1-6.7-10-8.5-14.4-2.1-5.1-4.5-9.2-7.5-14.2-16.9-28.4-15.8-22.1 6.6-24.6 5.3-0.6 15.8-4.7 27.6 1.1-0.1 1.6-1.9 5.6-2.8 7.9-4.3 12.6-2.3 17.2 0.1 28.5 4.9 24.2 10.9 19.1 16 28-4.6 0.3-14.3-2.9-18.1-4.2zm-230.4 71c0.5 15.7-5 12.8-20.2 26.5-6.3 5.7-11.4 9.5-16.9 14.7-4.5 4.2-12.8 14.1-18.8 5.3-7-10.2-3.2-12.9 3.7-20.6 4.3-4.7 36-37.3 40.1-39.2 3.9-1.8 8.6-3.2 11.4-2.2 1.9 4.8 0.5 9.5 0.7 15.5zm-466.2 352.8c16.3-18.7 3.1-6.6 26.7-24.5 3.3-2.5 16.9-13 21.8-8.5 2.3 2.4 1.2 26 0.8 29.1-33.8 10.9-25.3-2.4-56 33.1-2.4 2.7-3.3 5.4-5.9 6.8-2.2-15.8 3-24.9 12.6-36zm36-65.1c4.2 7.9 10.2 15.7 9.9 25-2 1.1-6 2.3-8.4 3.5-37.7 18.6-39 33.4-47.2 39-2.8-38.1 33.5-68 45.7-67.5zm682.7-358.8c-13.4-7.7-15.7-21.4-16-35.6-0.5-17.7 2.4-12.9 4.1-21.5 7.3 0.3 3.2 0.8 7.8 1.9l19.3 6.2c0.5 10.2-8.3 16-5.2 30.4 3.7 17.3 8.9 16 11.6 23.5-6.5 0.2-17.2-2.4-21.6-4.9zm-254.1 483.2c1.4-1.9 2.1-2.5 3.5-4 19.3-21.4 16.5-23.2 25.5-13.9 9.1 9.6 6 16.3-4.2 28.8-8.9 10.9-39.3 24.7-47 24.8 1.4-7.6 16.8-28.3 22.2-35.7zm138-80.2c-13.5-31-27.2-24.6-14.8-49.8 2.5-4.9 1.3-5.7 5.6-8.5 13.1 14.2 25.5 37.3 25.9 58.7 0.1 5.2-3.3 18-7.4 20.5-3.4-5.6-6.6-14.8-9.3-20.9zm90.8-649.2c8.4-4 4.4 8.4 7.8 16.6 8.5 20.3 25.3 14.3 32.5 19.7-5.9 4.7-8.2 7.2-15.9 5.2-6.2-1.7-24 2.3-32.2-14.8-2.5-5.4-4.6-11.5-7-15.5 1.6-1.6 12.6-10.1 14.8-11.2zm-29.6 17.5c11.2-5.1 11.7-1.3 14.1 3.7 13.3 28 19.6 19.3 29.5 24.9-7.4 6.6-25 5.3-33.9 0.2-8.5-4.9-16.1-15.1-17-25.3zm1042.2-958.7c0 15.1-1.3 101.4 1 103.8 1.2 0.8 1.2 2.3 4.5 0.5 1.9-0.9 13-23.6 15.4-27.8 3.3-5.8 5.3-11.4 8.6-16.5 3.2-5.1 5.1-10.2 8.8-16.2l35.7-64.5c5.2-2.6 58.8-1.3 69.3-1.1-0.3 4-3.3 8.6-5.2 11.5-3.6 5.3-3.9 4-3.8 12.2 0.1 28.1-1.1 176.9 0.1 188.2 0.8 7.7 10.1 15.4 10.6 22.2-10.1 0.6-71.6 1.5-76.2-0.6-0.1-0.2-0.3-0.8-0.3-0.7 0 0.2-0.2-0.5-0.3-0.7l-0.2-1.6c-0.1-2.8 1.8-6.1 2.8-9.2 2-5.7 2.8-5.9 2.8-13.3q0-16.2 0-32.4c0-10.4 0-20.9 0-31.3l-1.6-31.6c-5.3 0.3-3.5 0.2-8.1 8.4l-22.5 41.5c-6.3 12.2-36.9 70.6-39.4 72.8-3.7 3.3-24.2 1.6-31.2 1.6-7 0-28.8 2.8-30.7-3-1.5-4.6-0.4-161.2-0.3-188.7 0.1-16.6-19.1-40.2-18.5-45.5 8.6-1.3 86.7-1.3 90.1 0.5 3.8 3.4-11.4 8.5-11.4 21.5zm-1381.5 98l26-48.3c1.4-3.8 2-5.6 3.7-8.6 2.8-5.1 6.2-11 8.7-16.3l25.5-47.2 67.7 0.2c0.8 6.2-3.6 8-3.6 16.3v161.7c0 13.7-1.9 27.5 3.5 36.6 2.5 4.2 7.1 10 7.4 14.3l-77.9-0.1c0.1-3.7 3.1-11.6 4.5-15.2 3.5-8.9 1.8-71 1.8-83.6 0-7.1 2.1-18.9-2.3-23.5-5 1.7-7.4 10-10.3 14.8-3.4 5.7-5.2 9.5-8.4 15.8-2.6 5.3-5.6 10-8.8 15.1l-8.1 16c-6.7 12-27.9 53.5-34.1 62.1h-60.1c-1.6-15.8-0.3-156.9-0.4-185.6 0-4.3 1.2-10.4-1.4-13.7-7.6-9.4-2.4-3.7-6.2-10-4.9-7.9-10.9-14.4-10.9-20.6 24.9-0.3 63-0.8 85.2 0.1-0.3 12-6.8 4-6.8 25.6l-0.1 88.2c0 4.5-0.1 10.2 5.4 5.9zm1032.8-56.8c-0.6 11.9-5.9 21.4-12.3 28.7-4.1 4.7-11.5 9.7-17.7 12.5-6.1 2.8-5.8 2.1-6.1 5.8 6.7 6 30.2-0.8 43.5 42 3.4 10.9 1.8 26.7-0.8 36.8-3 11.8-5.1 19.8-14 28.9-5.7 5.8-18.8 12.3-28.5 14-20.7 3.8-123.2 3.9-129.1 1.9-1.8-21.9-0.5-99-0.5-126.5 0-20.8 0.9-43.3 0.1-63.8-0.4-9.2-10.6-19.2-18.3-31.2-2.3-3.7-5.2-7.3-5.6-12 34.3-1.5 89.8-0.3 127.7-0.2 45.8 0 63.7 21.4 61.6 63.1zm-97.2 27.1c13.7-0.1 32.5 3.5 32.5-22.2 0-6.1-2.1-12-5.7-15.3-6.5-5.8-18.2-4.5-28.8-4.5-7.9 0-5.9 1.7-5.9 9 0 31.5-3.4 33.2 7.9 33zm39.5 69.9c0-11.2-2.2-18.7-11.9-22.2-7.6-2.7-25.3-2.5-34.8-1.4-1.3 6.4-1.3 39.8 0.2 45.9 23.8 2.8 46.5 2.4 46.5-22.3zm-795.8-93.1c0-28.8 3-21.6-6.5-41.6-14.8-31.3-23.5-25.9 24.8-25.9l157.4 0.4 0.4 189.6c0 11.1-2.1 25.6 3 33.3 2.8 4.1 4.2 4.7 5.9 11.5-22.8 0.4-53.1 0.8-74.6-0.1-0.6-9.1 5.3-13.6 5.3-23.2v-141.1c0-6.7-2.7-11-9-14.6-10.9-6.3-27.6-6.4-38.7 0.5-6.2 3.9-7.5 6.2-7.5 15.1v134.2c0 23.2 7 16 7.1 28.7-12.4 0.5-25.4 0.1-37.9 0.1-32.1 0-29.8 2.9-29.8-8.2l0.1-62.7q0-48 0-96zm1107.2 106.8l-0.2 62.8c-9.4-1.5-12.7-15.9-40.5-16.2-18.8-0.2-37.7 0.4-56.4 0.4-14.5 0-104.9 3.4-109.6 1-1.8-4-3-21.8 0.6-24.9 2.5-2.1 1.7-0.1 7.6-1.3 3.9-0.8 1.1 0 2.6-0.9 2.3-2.5 0.8-117.1 0.8-138.5 0-12.6 2.1-15.3-4.8-23.1-1.4-1.6-24.8-28.5-24.9-30.2 4.4-2.6 32.1-1 40-1q10.4-0.1 20.9 0c4.2 0 16.2-1.7 19 1.2 3 2.5 1.2 36.7 1.2 43.3v88.2q0 11.3 0 22.5c0 7.6-1.7 20.7 2.9 21.7l25.9 0.4c5.1 0 25.6 2.1 27-1.8 0.1-0.2 0.3-0.5 0.4-0.8l0.7-4.7c0.5-22.1 0.7-130.8-1.1-135.9l-8.3-15.9c-2.9-4.3-7.4-10.8-7.6-17.3l88.3 0.3c-1.1 9-6.5 4.4-6.6 16.8-0.3 24.7-1.2 146.7 1 151.4 4.6 1.8 12.7 0.3 18.4 1zm-664-94.4c17.6-56.8 53.8-89.8 119.3-76.2 29.7 6.2 51.6 32.6 61.8 58.2 12 30 11.7 73.1 3 102.1-6.8 22.8-17.2 39.2-35.6 53.6-2 1.5-3.8 2.5-6.2 4-5.2 3.4-6.7 4.2-13.4 7-9.7 4-21.2 6.3-33.9 6.3-72.8 0-99.6-62.6-99.6-120.4 0-10.4 1.9-25.9 4.6-34.6zm64.2 79.2c4.8 10.9 14.1 21.1 28.7 21.3 42.9 0.8 40.3-81.6 28.5-104.3-2.2-4.3-7.1-10.4-10.3-13-18.2-15.5-53.5-5.6-53.5 51.4 0 18.2 0 29.7 6.6 44.6zm-190-153.8c46.1-21.6 91.1 19.3 95 62.2 2.6 29-2.3 68-22.7 84.9-20.4 16.9-43.9 17.8-66.5 17.4-22.7-0.4-15.6-5.1-22.6-5.9-3.3 13.8-1.1 31.6 3.9 41.5 2.1 4.3 6.9 11.5 9.5 14.7 3.7 4.6 9.1 9.8 9.2 14.8h-90.1c-1.4-9.7-0.5-145.1-0.5-158.6 0.1-39 5.5-32.7-13.7-66.7-6.4-11.3-9.3-9.6 23.9-9.6 7.5 0 37-1.3 41.5 0.8 2.9 5.7 0.7 20.3 0.9 27.9 10.5-0.7 14.1-14.9 32.2-23.4zm0.5 127.5c37.1 1 37.1-41.9 31.7-67.3-3.5-16.5-15.1-23.1-33.8-22.6-22.3 0.5-29.6 24.4-29.5 44.2 0 24.4 11.8 45.2 31.6 45.7zm-760-132.4c8.3 0 16.9-0.2 25.2-0.1 6.7 0.1 6.5 0 6.6 6.3l0.1 56.9c0.1 17.7-1.4 26.9 5.8 39.9 3 5.4 6.2 10.3 12.8 11.9 7.7 1.9 15.4 0.3 20-3.2 10.3-7.7 10.8-19.8 10.8-35.8 0-14.4 1-32-0.1-46.1-0.7-9.4-15-24.2-13.6-30.6 11.6-0.5 24-0.1 35.8-0.1 43 0 36.2-4.6 36.2 19.9 0 26.9-1.7 191.4 0.5 197.5 1.9 5.5 5.7 9 7.5 13.1 3.2 7.4-8.1 4.9-15 4.9l-62.6-0.1c-0.3-5.3 3.9-10.6 6.2-15.5 3.2-7 2-55.8 1.6-64.3-6.9 0.2-9.8 3.4-14.9 5.7-13.4 6.1-37.2 4.9-48.9 0.3l-13.3-6.2c-0.6-0.4-9.5-8-10.3-8.8-6.1-5.9-12.9-14.2-15.9-21.1-7.4-16.8-5.9-46.8-5.9-68.2 0-14 2.2-22.2-4.7-31.8-3.3-4.5-13-19.3-13.4-24.4 16.4-0.3 33.1-0.1 49.5-0.1zm908.5 1867.6l24.8-24.7c19.8-19 13.5-19.5 35.1 2.2l54.8 53.1c12.3 12.6 25 23.2 36.6 35.8 11.2 12.1 9.4 3.8 9.5 26.7 0.1 11.5 1.2 23.4 0.8 35.9-13.9 1.1-37.2-0.3-52.6-1-7.5-0.4-8.1-3.4-11.8-7l-1-0.9c-0.2-0.1-0.4-0.3-0.6-0.5l-16.3-16.3c-6.7-5.6-11.9-11.1-18.8-18-14.4-14.4-40.5-40.9-54.6-53.4-3.2-2.8-5.8-6.4-8.6-9.2l-4.3-4.7c-2.2-2.3-2.6-1.4-5-4.6 0.9-4.4 9-10.4 12-13.4zm-274.5 95c0.7-3.4 19.6-22.6 22.2-25.1l24.4-25.1c5.5-5.5 10.1-11.9 15.6-17.1l35.5-36.8c1.5-1.8 2.3-2.6 3.9-4.1 25.1-25.4 21.2-30.8 32.7-19.6l37.8 36.6c2.2 2.3 7.9 6.8 8 9.6 0.1 3 1 0.6-5.2 6.5l-114.5 121.4c-2.4 2.5-4.3 6.1-7.7 4.8-0.8-0.4-6.6-6-7.9-7.1-2.8-2.2-4.8-4.7-7.3-7.4-2.5-2.8-5.1-4.9-7.6-7.3zm111.7 1c1-5.5 10.9-13.6 14.8-17.5 0.9-0.9 12.5-16.5 16.3-16.5 2.8 0 10.6 9 13.4 11.4 0.3 0.2 0.9 0.8 1.1 1l48 46.1c8.9 6.9 18.2 17.3 25.4 23.2 5.2 4.3 8.2 7.7 12.8 12 28.7 26.4 59.4 57.4 87.6 82.9 1.1 0.9 11.7 11.2 11.6 13.7l-3.4 5c-7.7 9.2-20.5 21.4-26.7 29.2-5-1.9-19.8-17.6-25.5-22.5l-62.4-59.5c-3.7-3.9-8.5-7.5-12.8-11.9l-40.9-38.4c-1.2-1.2-2-1.9-3-3-9.7-9.8-37.9-34.9-43.9-42.5-1.5-1.9-0.9-1.2-2.9-2.7zm26.9 116.2c1.8-1.6 3.3-2.6 5.4-4.6l16.3-16.4c3.4-3.3 7.3-6.5 11-9.8 14.6-13 6.8-14.9 31.6 8.4 22.5 21.2 16.7 7.8-30.4 56.6l-43.9 40.6c-4.5 1.3-7-4.1-15.5-12.7-3.7-3.9-16.2-16.6-17.8-20 2-4.6 38.3-37.4 43.3-42.1zm95.5-89.9c12-10.5 34.9-34.7 47.1-44.9 3.7-3.1 15.4-15.8 19.6-17.6 2.2 0.9 29.8 30.2 31.7 34.2-2.6 5-25.4 26-29.6 29.1-7.3 5.3-28.1 27.6-36.9 35.3-9.6 8.4-5.1 7.4-28.1-14-3.1-2.8-12-10.5-12.8-13.6 2-2.3 6.3-6.1 9-8.5z"/>
</svg>