<svg version="1.2" xmlns="http://www.w3.org/2000/svg" viewBox="0 0 130 185" width="130" height="185">
	<title>Sredets-pdf</title>
	<style>
		.s0 { fill: #00a650 } 
		.s1 { fill: #fff200 } 
		.s2 { fill: #231f20 } 
		.s3 { fill: #ed1c24 } 
	</style>
	<path id="Path 1" class="s0" d="m130.1 123.1v2.6h-0.1c-1.5 33-30 59.3-65 59.3-34.9 0-63.5-26.3-64.9-59.3h-0.1v-125.7h130.1z"/>
	<path id="Path 2" class="s1" d="m97.6 98.8l11.4 5.3v17.2h-11.5zm-0.1-20.8l11.5 5.6v17.3l-11.5-5.5zm0-19.6l11.5 5.7v17.3l-11.5-5.5zm27.3 63h-11.6v-17.2l11.4-5.3zm0-25.9l-11.5 5.4v-17.2l11.5-5.7zm0-19.6l-11.5 5.4v-17.2l11.5-5.7zm-9.7-41.3h3.9v24.3l-3.9 1.9zm-5.9 0h4v27.1l-2.1 1-1.9-0.9zm-5.8 0h3.9v26.2l-3.9-1.9zm-5.8 0h3.9v23.3l-3.9-1.9zm23.3 0h3.9v21.6l-3.9 1.9zm-113.8 64.3l11.4 5.3v17.2h-11.5zm-0.1-20.8l11.5 5.6v17.3l-11.5-5.4zm0-19.7l11.5 5.7v17.3l-11.5-5.5zm27.3 63.1h-11.5v-17.3l11.4-5.3zm0-25.9l-11.5 5.4v-17.2l11.5-5.7zm0-19.6l-11.5 5.4v-17.2l11.5-5.7zm-9.8-41.3h3.9v24.4l-3.9 1.8zm-5.8 0h3.9v27.1l-2.1 1-1.8-0.9zm-5.9 0h3.9v26.2l-3.9-1.9zm-5.8 0h3.9v23.3l-3.9-1.9zm23.4 0h3.9v21.6l-3.9 1.9z"/>
	<path id="Path 3" class="s2" d="m124.8 124.2c0 5.4-0.8 10.7-2.5 15.9l-11.6-0.7-3.4 5.9 8.4 7.3c1.3 1.2-10.5 12.5-11.8 13.7l-6.2-5.4-10 3 1 12.6c-4.6 1.9-9.3 3.2-15.1 3.9l-1.9-9.8-12 0.1-1.7 9.3c-6.1-0.6-11.4-1.9-16.1-3.8l1.3-11.9-9.4-3.6-7 5.8c-4.4-4.1-8.2-8.9-11.4-13.9l8.2-7.4-4-5.5-11 1c-1.7-4.9-1.7-10.4-1.7-16.2 0-0.5 23.1-0.3 26.1-0.3 1.4 16.3 15.4 29.2 32.6 29.2 17.2 0 31.2-12.9 32.6-29.2z"/>
	<path id="Path 4" class="s3" d="m65.5 89.4l26.4 11v34.5l-26.4 10.7-26.8-10.2-0.5-35.5zm-14.5-45.4c0-1.1 1-2 2.3-2h2.1c0.1-5.3 4.4-9.5 9.7-9.5 5.3 0 9.7 4.2 9.8 9.5h2c1.3 0 2.4 0.9 2.4 2 0 1.1-1.1 2-2.4 2h-1.9l0.6 41.7h-20.9l0.4-41.7h-1.8c-1.3 0-2.3-0.9-2.3-2zm44.6 16.5c0 1.2-1.1 2.1-2.5 2.1h-2l0.4 30.7-13.4-4.8v-39.6q1.2-0.3 2.6-0.3c5.6 0 10.1 4.4 10.3 9.9h2.1c1.4 0 2.5 0.9 2.5 2zm-56.7 2.1h-2.1c-1.3 0-2.4-0.9-2.4-2.1 0-1.1 1.1-2 2.4-2h2.2c0.1-5.5 4.7-9.9 10.2-9.9q1.4 0 2.7 0.3v39.6l-13.5 4.8zm-19.8-44.1h5.7q-0.3 2.1-0.8 3.2-0.7 1.5-1.9 2.5-1.2 1-2.8 1.6-1.6 0.5-3.5 0.5-2.3 0-4-0.7-1.8-0.7-3.1-2-1.2-1.3-1.9-3.1-0.7-1.9-0.7-4.1 0-2.3 0.7-4.1 0.7-1.8 2-3.1 1.2-1.3 3-1.9 1.8-0.7 4-0.7 1.6 0 3 0.3 1.5 0.4 2.5 1.1 1.3 0.8 2.1 2.2 0.6 0.8 0.8 1.7 0.3 0.8 0.5 2.3h-5.8q-0.2-1-0.4-1.5-0.9-1.5-2.7-1.4-1.8 0-2.7 1.3-0.9 1.3-0.9 3.8 0 2.5 0.9 3.9 1 1.4 2.7 1.4 1.3 0 2-0.7 0.4-0.3 0.7-0.8 0.4-0.5 0.6-1.7zm73.4 2.7h9.4v4.6h-15.4v-18.7h15v4.5h-9v2.6h7.6v4.2h-7.6z"/>
	<path id="Path 5" fill-rule="evenodd" class="s3" d="m42.3 8.8q1.9 1.7 1.9 4.8 0 2-0.8 3.5-0.9 1.4-2.5 2.2-1.6 0.7-3.9 0.7h-3.6v5.8h-6v-18.8h7.7q0.4 0 0.8 0 1.4 0.1 2.4 0.2 1.3 0.2 2.3 0.6 0.9 0.3 1.7 1zm-3.8 4.7q0-0.9-0.6-1.4-0.5-0.5-1.5-0.5h-3v3.9h3.2q0.8-0.1 1.3-0.6 0.6-0.6 0.6-1.4zm43.9 8h1.9v4.3h-4.3-12.4-4.3v-4.3h1.1q0.6-0.1 1.1-0.4 0.6-0.5 0.8-1 0.3-0.6 0.3-1.6v-11.5h15.8zm-6 0v-10.2h-4.5v5.1q0 1.8-0.4 3-0.5 1-1.9 2.1zm-23.8-0.3h9.3v4.6h-15.3v-18.8h14.9v4.6h-8.9v2.6h7.5v4.1h-7.5zm71.3 0.3v4.3h-4.3-15v-18.7h6v13.6h5.5v-13.6h6v14.4z"/>
</svg>