<svg version="1.2" xmlns="http://www.w3.org/2000/svg" viewBox="0 0 138 220" width="138" height="220">
	<title>Dobrich-pdf</title>
	<style>
		.s0 { fill: #ffffff } 
		.s1 { fill: none;stroke: #cfa550;stroke-width: 1.4 } 
		.s2 { fill: #870e12;stroke: #870e12;stroke-width: 1.7 } 
		.s3 { fill: #cfa550 } 
	</style>
	<path id="Path 1" class="s0" d="m68.8 1c19.9 0 24.7 11.8 44.5 3.2l13.9 18.6c-23.7 8.6-16.8 23.3 9.7 15v102.7c0.2 22.3-14.4 58.4-49.4 69.6-10.5 2.1-17 6.2-18.7 8.3-1.3-2.1-7.9-6.2-18.4-8.3-34.9-11.2-49.4-47.3-49.4-69.6v-102.7c26.5 8.3 33.4-6.4 9.8-15l13.9-18.6c19.7 8.6 24.5-3.2 44.1-3.2z"/>
	<path id="Path 2" class="s1" d="m68.8 1c19.9 0 24.7 11.8 44.5 3.2l13.8 18.6c-23.6 8.6-16.7 23.3 9.8 15v102.7c0.2 22.3-14.4 58.4-49.4 69.6-10.5 2.1-17 6.2-18.7 8.3-1.3-2.1-7.9-6.2-18.4-8.3-34.9-11.2-49.4-47.3-49.4-69.6v-102.7c26.5 8.3 33.4-6.4 9.8-15l13.9-18.6c19.7 8.6 24.5-3.2 44.1-3.2z"/>
	<path id="Path 3" class="s2" d="m54.7 205.6c-28.7-7.5-48.4-36.4-48.8-65.7v-95.7c6.7 1.1 11.6 1.1 18-0.4 10.9-8.1 4.1-18.2-5.3-23.1l7.2-10.3c11.8 3.7 18 1.9 29.1-2.3 4.5-1.3 9.6-1.5 13.7-1.5 4.5 0 9.6 0.2 14.1 1.5 11 4.2 17.2 6 29.1 2.3l7.1 10.3c-9.4 4.9-16.2 15-5.3 23.1 6.4 1.5 11.3 1.5 18.1 0.4v95.7c-0.2 29.3-20.1 58.2-48.8 65.7-4.6 1.2-9.3 3.4-13.8 5.7-4.1-2.3-9.9-4.5-14.4-5.7z"/>
	<path id="Path 4" fill-rule="evenodd" class="s3" d="m38.1 67.2c-0.7-1.3-3-0.9-3-5.6 0-2.5 1.3-5.9 1.9-9 0.3-1.6 0.3-2.6 1.1-2.6 0.8 0 0.8 1 1.2 2.6 0.7 3.8 1.9 6.5 1.8 9-0.1 4.9-2.5 4.3-3 5.6zm-0.4 7.4c-1-0.3-2.1 0.1-4.6-2.2-1.3-1.2-2.2-2.7-2.2-5.5-0.1-5.1 0-5.6 0.6-5.6 0.6 0 0.5 0.2 0.7 1.5 0.6 2.8 2.7 2 4.9 4.9 0.6 0.7 0.8 1.6 1 2.2 0.1-0.6 0.3-1.5 0.9-2.2 2.2-2.9 4.3-2.1 4.9-4.9 0.2-1.3 0.1-1.5 0.7-1.5 0.6 0 0.7 0.5 0.6 5.6 0 2.8-0.9 4.3-2.2 5.5-2.5 2.3-3.6 1.9-4.6 2.2 0.2-0.6-0.2-0.5-0.3-1.4-0.2 0.9-0.6 0.8-0.4 1.4zm0.1 10.6c-1-0.3-2.1 0.1-4.6-2.2-1.3-1.2-2.2-2.7-2.2-5.5-0.1-5.2 0-5.6 0.6-5.6 0.6 0 0.5 0.2 0.7 1.4 0.6 2.8 2.7 2.1 4.9 5 0.6 0.7 0.8 1.5 0.9 2.2 0.2-0.7 0.4-1.5 1-2.2 2.2-2.9 4.3-2.2 4.9-5 0.2-1.2 0.1-1.4 0.7-1.4 0.6 0 0.7 0.4 0.6 5.6 0 2.8-0.9 4.3-2.2 5.5-2.5 2.3-3.6 1.9-4.6 2.2 0.2-0.6-0.2-0.5-0.4-1.4-0.1 0.9-0.5 0.8-0.3 1.4zm0 10.7c-1-0.3-2.1 0.1-4.6-2.2-1.3-1.2-2.2-2.7-2.2-5.5-0.1-5.1 0-5.6 0.6-5.6 0.6 0 0.5 0.2 0.7 1.5 0.6 2.8 2.7 2 4.9 4.9 0.6 0.7 0.8 1.6 0.9 2.2 0.2-0.6 0.4-1.5 1-2.2 2.2-2.9 4.3-2.1 4.9-4.9 0.2-1.3 0.1-1.5 0.7-1.5 0.6 0 0.7 0.5 0.6 5.6 0 2.8-0.9 4.3-2.2 5.5-2.5 2.3-3.6 1.9-4.6 2.2 0.2-0.6-0.2-0.5-0.4-1.4-0.1 0.9-0.5 0.8-0.3 1.4zm0 10.6c-1-0.3-2.1 0.1-4.6-2.3-1.3-1.1-2.2-2.6-2.2-5.5-0.1-5.1 0-5.6 0.6-5.6 0.6 0 0.5 0.3 0.7 1.5 0.6 2.8 2.7 2.1 4.9 5 0.6 0.7 0.8 1.5 0.9 2.2 0.2-0.7 0.4-1.5 1-2.2 2.2-2.9 4.3-2.2 4.9-5 0.2-1.2 0.1-1.5 0.7-1.5 0.6 0 0.7 0.5 0.6 5.6 0 2.9-0.9 4.4-2.2 5.5-2.5 2.4-3.6 2-4.6 2.3 0.2-0.6-0.2-0.5-0.4-1.4-0.1 0.9-0.5 0.8-0.3 1.4zm16-39.3c-0.8-1.3-3.1-0.9-3.1-5.6 0-2.5 1.3-5.9 1.9-9 0.4-1.6 0.4-2.6 1.2-2.6 0.8 0 0.8 1 1.1 2.6 0.7 3.8 1.9 6.5 1.8 9-0.1 4.9-2.5 4.3-2.9 5.6zm-0.5 7.4c-1-0.3-2.1 0.1-4.6-2.2-1.3-1.2-2.1-2.7-2.2-5.5 0-5.1 0-5.6 0.6-5.6 0.7 0 0.5 0.2 0.8 1.5 0.5 2.8 2.6 2 4.8 4.9 0.6 0.7 0.9 1.6 1 2.2 0.1-0.6 0.4-1.5 0.9-2.2 2.2-2.9 4.4-2.1 4.9-4.9 0.2-1.3 0.1-1.5 0.7-1.5 0.7 0 0.7 0.5 0.6 5.6 0 2.8-0.8 4.3-2.1 5.5-2.6 2.3-3.7 1.9-4.7 2.2 0.2-0.6-0.2-0.5-0.3-1.4-0.2 0.9-0.5 0.8-0.4 1.4zm0.1 10.6c-1-0.3-2.1 0.1-4.6-2.2-1.3-1.2-2.2-2.7-2.2-5.5 0-5.2 0-5.6 0.6-5.6 0.7 0 0.5 0.2 0.7 1.4 0.6 2.8 2.7 2.1 4.9 5 0.6 0.7 0.8 1.5 1 2.2 0.1-0.7 0.4-1.5 0.9-2.2 2.2-2.9 4.4-2.2 4.9-5 0.2-1.2 0.1-1.4 0.7-1.4 0.7 0 0.7 0.4 0.6 5.6 0 2.8-0.8 4.3-2.1 5.5-2.6 2.3-3.7 1.9-4.7 2.2 0.2-0.6-0.2-0.5-0.3-1.4-0.2 0.9-0.5 0.8-0.4 1.4zm0 10.7c-1-0.3-2.1 0.1-4.6-2.2-1.3-1.2-2.2-2.7-2.2-5.5 0-5.1 0-5.6 0.6-5.6 0.7 0 0.5 0.2 0.7 1.5 0.6 2.8 2.7 2 4.9 4.9 0.6 0.7 0.8 1.5 1 2.2 0.1-0.7 0.4-1.5 0.9-2.2 2.2-2.9 4.4-2.1 4.9-4.9 0.2-1.3 0.1-1.5 0.7-1.5 0.7 0 0.7 0.5 0.6 5.6 0 2.8-0.8 4.3-2.1 5.5-2.6 2.3-3.7 1.9-4.7 2.2 0.2-0.6-0.2-0.5-0.3-1.4-0.2 0.9-0.5 0.8-0.4 1.4zm0 10.6c-1-0.3-2.1 0.1-4.6-2.3-1.3-1.1-2.2-2.6-2.2-5.5 0-5.1 0-5.6 0.6-5.6 0.7 0 0.5 0.3 0.7 1.5 0.6 2.8 2.7 2.1 4.9 5 0.6 0.7 0.8 1.5 1 2.2 0.1-0.7 0.4-1.5 0.9-2.2 2.2-2.9 4.4-2.2 4.9-5 0.2-1.2 0.1-1.5 0.7-1.5 0.7 0 0.7 0.5 0.6 5.6 0 2.9-0.8 4.4-2.1 5.5-2.6 2.4-3.7 2-4.7 2.3 0.2-0.6-0.2-0.5-0.3-1.4-0.2 0.9-0.5 0.8-0.4 1.4zm16.1-39.3c-0.7-1.3-3-0.9-3-5.6 0-2.5 1.3-5.9 1.9-9 0.3-1.6 0.3-2.6 1.1-2.6 0.8 0 0.8 1 1.2 2.6 0.7 3.8 1.9 6.5 1.8 9-0.1 4.9-2.5 4.3-3 5.6zm-0.4 7.4c-1-0.3-2.1 0.1-4.6-2.2-1.3-1.2-2.2-2.7-2.2-5.5-0.1-5.1 0-5.6 0.6-5.6 0.6 0 0.5 0.2 0.7 1.5 0.6 2.8 2.7 2 4.9 4.9 0.6 0.7 0.8 1.6 1 2.2 0.1-0.6 0.3-1.5 0.9-2.2 2.2-2.9 4.3-2.1 4.9-4.9 0.2-1.3 0.1-1.5 0.7-1.5 0.6 0 0.7 0.5 0.6 5.6 0 2.8-0.9 4.3-2.2 5.5-2.5 2.3-3.6 1.9-4.6 2.2 0.2-0.6-0.2-0.5-0.3-1.4-0.2 0.9-0.6 0.8-0.4 1.4zm0.1 10.6c-1-0.3-2.1 0.1-4.6-2.2-1.3-1.2-2.2-2.7-2.2-5.5-0.1-5.2 0-5.6 0.6-5.6 0.6 0 0.5 0.2 0.7 1.4 0.6 2.8 2.7 2.1 4.9 5 0.6 0.7 0.8 1.5 1 2.2 0.1-0.7 0.3-1.5 0.9-2.2 2.2-2.9 4.3-2.2 4.9-5 0.2-1.2 0.1-1.4 0.7-1.4 0.6 0 0.7 0.4 0.6 5.6 0 2.8-0.9 4.3-2.2 5.5-2.5 2.3-3.6 1.9-4.6 2.2 0.2-0.6-0.2-0.5-0.4-1.4-0.1 0.9-0.5 0.8-0.3 1.4zm0 10.7c-1-0.3-2.1 0.1-4.6-2.2-1.3-1.2-2.2-2.7-2.2-5.5-0.1-5.1 0-5.6 0.6-5.6 0.6 0 0.5 0.2 0.7 1.5 0.6 2.8 2.7 2 4.9 4.9 0.6 0.7 0.8 1.5 1 2.2 0.1-0.7 0.3-1.5 0.9-2.2 2.2-2.9 4.3-2.1 4.9-4.9 0.2-1.3 0.1-1.5 0.7-1.5 0.6 0 0.7 0.5 0.6 5.6 0 2.8-0.9 4.3-2.2 5.5-2.5 2.3-3.6 1.9-4.6 2.2 0.2-0.6-0.2-0.5-0.4-1.4-0.1 0.9-0.5 0.8-0.3 1.4zm0 10.6c-1-0.3-2.1 0.1-4.6-2.3-1.3-1.1-2.2-2.6-2.2-5.5-0.1-5.1 0-5.6 0.6-5.6 0.6 0 0.5 0.3 0.7 1.5 0.6 2.8 2.7 2.1 4.9 5 0.6 0.7 0.8 1.5 1 2.2 0.1-0.7 0.3-1.5 0.9-2.2 2.2-2.9 4.3-2.2 4.9-5 0.2-1.2 0.1-1.5 0.7-1.5 0.6 0 0.7 0.5 0.6 5.6 0 2.9-0.9 4.4-2.2 5.5-2.5 2.4-3.6 2-4.6 2.3 0.2-0.6-0.2-0.5-0.4-1.4-0.1 0.9-0.5 0.8-0.3 1.4zm16.1-39.3c-0.8-1.3-3.1-0.9-3.1-5.6 0-2.5 1.3-5.9 1.9-9 0.4-1.6 0.4-2.6 1.2-2.6 0.8 0 0.8 1 1.1 2.6 0.7 3.8 1.9 6.5 1.8 9-0.1 4.9-2.5 4.3-2.9 5.6zm-0.5 7.4c-1-0.3-2.1 0.1-4.6-2.2-1.3-1.2-2.2-2.7-2.2-5.5 0-5.1 0-5.6 0.6-5.6 0.7 0 0.5 0.2 0.8 1.5 0.5 2.8 2.6 2 4.8 4.9 0.6 0.7 0.9 1.6 1 2.2 0.1-0.6 0.4-1.5 0.9-2.2 2.2-2.9 4.4-2.1 4.9-4.9 0.2-1.3 0.1-1.5 0.7-1.5 0.7 0 0.7 0.5 0.6 5.6 0 2.8-0.8 4.3-2.1 5.5-2.6 2.3-3.7 1.9-4.7 2.2 0.2-0.6-0.2-0.5-0.3-1.4-0.2 0.9-0.5 0.8-0.4 1.4zm0.5 9.2c-0.2 0.9-0.5 0.8-0.4 1.4-1-0.3-2.1 0.1-4.6-2.2-1.3-1.2-2.2-2.7-2.2-5.5 0-5.2 0-5.6 0.6-5.6 0.7 0 0.5 0.2 0.7 1.4 0.6 2.8 2.7 2.1 4.9 5 0.6 0.7 0.8 1.5 1 2.2 0.1-0.7 0.4-1.5 0.9-2.2 2.2-2.9 4.4-2.2 4.9-5 0.2-1.2 0.1-1.4 0.7-1.4 0.7 0 0.7 0.4 0.6 5.6 0 2.8-0.8 4.3-2.1 5.5-2.6 2.3-3.7 1.9-4.7 2.2 0.2-0.6-0.2-0.5-0.3-1.4v-0.8zm0 10.7c-0.2 0.9-0.5 0.8-0.4 1.4-1-0.3-2.1 0.1-4.6-2.2-1.3-1.2-2.1-2.7-2.2-5.6 0-5.1 0-5.6 0.6-5.6 0.7 0 0.5 0.3 0.8 1.5 0.5 2.8 2.6 2.1 4.8 5 0.6 0.7 0.8 1.5 1 2.2 0.1-0.7 0.4-1.5 0.9-2.2 2.2-2.9 4.4-2.2 4.9-5 0.2-1.2 0.1-1.5 0.7-1.5 0.7 0 0.7 0.5 0.6 5.6 0 2.9-0.8 4.4-2.1 5.6-2.6 2.3-3.7 1.9-4.6 2.2 0.1-0.6-0.3-0.5-0.4-1.4v-0.8zm0 10.6c-0.2 0.8-0.5 0.8-0.4 1.3-1-0.3-2.1 0.2-4.6-2.2-1.3-1.2-2.1-2.7-2.2-5.5 0-5.1 0-5.6 0.6-5.6 0.7 0 0.5 0.3 0.8 1.5 0.5 2.8 2.6 2 4.8 4.9 0.6 0.7 0.8 1.6 1 2.2 0.1-0.6 0.4-1.5 0.9-2.2 2.2-2.9 4.4-2.1 4.9-4.9 0.2-1.2 0.1-1.5 0.7-1.5 0.7 0 0.7 0.5 0.6 5.6 0 2.8-0.8 4.3-2.1 5.5-2.6 2.4-3.7 1.9-4.6 2.2 0.1-0.5-0.3-0.5-0.4-1.3v-0.9zm15.5-37.9c-0.7-1.2-3-0.8-3-5.6 0-2.5 1.3-5.8 1.9-8.9 0.3-1.7 0.4-2.7 1.1-2.7 0.8 0 0.9 1 1.2 2.7 0.7 3.7 1.9 6.4 1.8 8.9-0.1 4.9-2.5 4.4-3 5.6zm0 6.1c-0.2 0.8-0.5 0.8-0.4 1.3-1-0.3-2.1 0.2-4.6-2.2-1.3-1.2-2.2-2.6-2.2-5.5 0-5.1 0-5.6 0.6-5.6 0.7 0 0.5 0.3 0.7 1.5 0.6 2.8 2.7 2 4.9 4.9 0.6 0.8 0.8 1.6 1 2.2 0.1-0.6 0.4-1.4 0.9-2.2 2.2-2.9 4.4-2.1 4.9-4.9 0.2-1.2 0.1-1.5 0.7-1.5 0.7 0 0.7 0.5 0.6 5.6 0 2.9-0.8 4.3-2.1 5.5-2.6 2.4-3.7 1.9-4.7 2.2 0.2-0.5-0.2-0.5-0.3-1.3v-0.9zm-0.3 12c-1-0.3-2.1 0.1-4.6-2.2-1.3-1.2-2.2-2.7-2.2-5.5-0.1-5.1 0-5.6 0.6-5.6 0.7 0 0.5 0.2 0.7 1.5 0.6 2.8 2.7 2 4.9 4.9 0.6 0.7 0.8 1.6 1 2.2 0.1-0.6 0.4-1.5 0.9-2.2 2.2-2.9 4.3-2.1 4.9-4.9 0.2-1.3 0.1-1.5 0.7-1.5 0.7 0 0.7 0.5 0.6 5.6 0 2.8-0.9 4.3-2.1 5.5-2.6 2.3-3.7 1.9-4.7 2.2 0.2-0.6-0.2-0.5-0.3-1.4-0.2 0.9-0.5 0.8-0.4 1.4zm0 10.7c-1-0.3-2.1 0.2-4.6-2.2-1.3-1.2-2.2-2.7-2.2-5.5-0.1-5.1 0-5.6 0.6-5.6 0.7 0 0.5 0.2 0.7 1.5 0.6 2.8 2.7 2 4.9 4.9 0.6 0.7 0.8 1.6 1 2.2 0.1-0.6 0.4-1.5 0.9-2.2 2.2-2.9 4.3-2.1 4.9-4.9 0.2-1.3 0.1-1.5 0.7-1.5 0.7 0 0.7 0.5 0.6 5.6 0 2.8-0.9 4.3-2.1 5.5-2.6 2.4-3.7 1.9-4.7 2.2 0.2-0.5-0.2-0.5-0.3-1.4-0.2 0.9-0.5 0.9-0.4 1.4zm0 10.6c-1-0.3-2.1 0.1-4.6-2.2-1.3-1.2-2.2-2.7-2.2-5.5-0.1-5.1 0-5.6 0.6-5.6 0.7 0 0.5 0.2 0.7 1.5 0.6 2.8 2.7 2 4.9 4.9 0.6 0.7 0.8 1.6 1 2.2 0.1-0.6 0.4-1.5 0.9-2.2 2.2-2.9 4.3-2.1 4.9-4.9 0.2-1.3 0.1-1.5 0.7-1.5 0.7 0 0.7 0.5 0.6 5.6 0 2.8-0.9 4.3-2.1 5.5-2.6 2.3-3.7 1.9-4.7 2.2 0.2-0.6-0.2-0.5-0.3-1.4-0.2 0.9-0.5 0.8-0.4 1.4zm-63.6 3h2.8v64.6h-2.8zm7.5 0h3v64.6h-3zm7.9 0h2.8v64.6h-2.8zm7.5 0h3.5v64.6h-3.5zm8.2 0h3v64.5h-3zm7.9 0h2.8v64.6h-2.8zm16 0h3v64.6h-3zm-8.1 0h3v64.6h-3zm16 0h2.6v64.5h-2.6zm-60.6-73.1q0.9-2.6 1.7-5.2c0.1-0.5 0.1-0.8-0.5-1.2-0.5-0.4-0.4-0.9 0.3-0.8q1.3 0 2.5 0c0.5 0.1 0.7 0.3 0.6 1.2q0.9 2.8 1.8 5.7c0.1 0.5 0.4 1 1.1 1.1q0.6 0 1.3 0c0.4 0 0.7 0.2 0.7 0.5-0.4 1.4-0.7 2.7-1.1 4.2-0.1 0.7-0.6 0.6-0.7-0.1-0.1-0.8-0.1-1.6-0.2-2.4 0-0.5-0.3-0.8-0.8-0.8q-3 0-6 0c-0.7 0.1-1.1 0.2-1.2 1.2-0.2 0.8-0.4 1.5-0.6 2.3-0.1 0.6-0.7 0.9-0.7 0q0-2-0.1-3.9c-0.2-0.8 0.3-1 0.9-1 0.5 0 0.9-0.3 1-0.8zm2.3-3.3l-1 3.2c-0.2 0.5 0.1 1 0.6 0.9h1.9c0.4 0 0.8-0.4 0.6-0.9l-1.1-3.2c-0.2-0.6-0.7-0.8-1 0z"/>
	<path id="Path 5" fill-rule="evenodd" class="s3" d="m54.8 28.2c3.2 0 5.8 2.4 5.8 5.4 0 2.9-2.6 5.3-5.8 5.3-3.1 0-5.6-2.4-5.6-5.3 0-3 2.5-5.4 5.6-5.4zm2.6 2.2c-0.4-0.8-0.8-0.5-1 0q-0.4 1.2-1.6 1.1-1.1 0.1-1.5-1.1c-0.2-0.5-0.6-0.8-1 0-0.5 0.9-0.7 2-0.8 3.2 0.1 1.2 0.3 2.2 0.8 3.2 0.4 0.7 0.8 0.5 1 0q0.4-1.2 1.5-1.2 1.2 0 1.6 1.2c0.2 0.5 0.6 0.7 1 0 0.5-1 0.7-2 0.8-3.2-0.1-1.2-0.3-2.3-0.8-3.2zm-3-0.5c0 0.2 0.2 0.5 0.5 0.5 0.2 0 0.5-0.3 0.5-0.5 0-0.3-0.3-0.5-0.5-0.5-0.3 0-0.5 0.2-0.5 0.5zm0 7.3c0 0.3 0.2 0.5 0.5 0.5 0.2 0 0.5-0.2 0.5-0.5 0-0.2-0.3-0.5-0.5-0.5-0.3 0-0.5 0.3-0.5 0.5zm9.2-8.1q3.2 0 6.6 0c0.6 0 0.8 0.2 0.4 0.9-0.3 0.7-0.6 1.5-0.8 2.4-0.3 0.8-0.7 0.7-0.8 0q-0.2-0.7-0.3-1.4-0.1-0.7-0.9-0.7-1 0-2 0-0.8 0.1-0.9 0.9 0 0.9-0.1 1.8c0.1 0.7 0.3 0.9 0.9 1.1 1.6 0.2 2.3 0.6 3.1 1.2 1.7 1.5 0.4 3.4-1.8 3.4-1.5 0-2.9 0-4.2 0 0-2.7 0-5.5 0-8.1-0.4-1.1-0.6-2.2 0.8-1.5zm1.3 6.8c0 0.3 0 0.5 0 0.8-0.1 0.4 0.1 0.7 0.5 0.8 0.5 0 0.9 0 1.4 0 0.8 0 1.1-0.6 0.7-1.4-0.4-0.3-1-0.6-1.6-0.8-0.7-0.2-1 0-1 0.6zm8.6-6.4c0.7 0 1.1 0 1.7 0 0 0.5 0 1.3 0 1.7 0 1.1 0.7 1.6 2.1 0.5 0.8-0.9 0.5-2-0.7-2.5-2-0.7-2.9-0.9-4-1.6q-1.4-1.4-0.3-2.8c0.8-0.4 1.3 0.4 0.8 0.8q-0.3 0.9 0.5 1.4c1.5 0.6 2.3 0.8 3.9 1.1 3.7 0.9 2.7 5.2-1.3 5.3-0.7 0.3-1 0.7-1.1 1.4 0.1 0.7 0.1 1.4 0.1 2.2 0 0.4 0 0.7 0.2 0.8 0.3 0.5 0.3 0.8-0.3 0.9q-1 0-1.9 0c-0.6-0.1-0.6-0.4-0.1-0.9 0-0.3 0-0.5 0-0.7 0-2.1 0-4.3 0-6.2-0.4-1.1-0.3-1.8 0.4-1.4zm8.5-0.5c0.5 0 0.9 0 1.4 0 0.6-0.1 0.6 0.5 0.1 1.3 0 0.9 0 1.9 0 2.9 0.2 0.9 0.8 1 1.3 0.1q1.3-1.8 2.6-3.5c0.2-0.5 0.8-0.8 1.1-0.8 0.6 0 0.6 0.1 1.2 0.1 0.7-0.1 0.7 0.6 0.5 1.5q0 3 0 6-0.1 0.4 0.2 0.9c0.1 1 0 1.2-0.4 1.2-0.6-0.1-1.4-0.1-2-0.1-0.3-0.1-0.3-0.5-0.1-1.1 0.1-0.2 0.1-0.4 0.1-0.9 0.1-1.2 0.1-2.3 0.1-3.6 0-0.8-0.9-0.8-1.4 0-1.1 1.8-1.9 3.1-3 4.9-0.2 0.5-0.6 0.8-0.8 0.7q-0.7 0-1.3 0c-0.2-0.1-0.5-0.4-0.1-0.8 0.1-0.4 0-0.8 0-1.1 0-2.2 0-4.2 0-6.3-0.4-1.1-0.4-1.8 0.5-1.4zm12.4 0.1c0.4-0.1 0.4 0.2 0.1 0.7-0.1 1.3 0.4 2.2 1.5 2.7 0.8 0.3 1.7 0.4 1.7-0.5 0.1-0.8 0-1.4-0.2-2.1-0.2-0.7-0.1-0.9 0.6-0.8q0.7 0 1.6 0c0.3 0 0.5 0.1 0.1 1.2-0.1 2.5-0.1 5 0 7.5q0.5 0.7 0 0.9-1 0-2.1 0-0.4-0.2 0-0.9c0-1 0-2 0-2.9-0.1-0.4 0.1-0.8-1-0.8-2.2 0.1-4.1-0.4-4.4-4.3-0.3-0.6-0.2-0.9 0.4-0.7q0.8 0 1.7 0z"/>
</svg>