<svg version="1.2" xmlns="http://www.w3.org/2000/svg" viewBox="0 0 446 559" width="446" height="559">
	<title>Sandanski-pdf</title>
	<style>
		.s0 { fill: #ffffff;stroke: #0a6b38;stroke-width: 2 } 
		.s1 { fill: #fcd205 } 
		.s2 { fill: #0a6b38 } 
		.s3 { fill: #00adef } 
		.s4 { fill: #ed1c24 } 
	</style>
	<path id="Path 1" class="s0" d="m445 413c0 65-47.2 93.1-66.3 102.3-22.7 11-152.4 42.7-152.4 42.7 0 0-102.3-17-165.3-46-63-29-60-84-60-95 0-59.5 14-416 14-416 0 0 337-1 415 0 3.9 35.4 15 347 15 412z"/>
	<path id="Path 2" fill-rule="evenodd" class="s1" d="m289.4 360.8c0 35.5-31.1 64.4-69.4 64.4-38.3 0-69.3-28.9-69.3-64.4 0-35.6 31-64.4 69.3-64.4 38.3 0 69.4 28.8 69.4 64.4zm-51.9 23.3c-2.1 0.4-8.6 1.9-10.6 0-1.5-1.4-1.3-1-2.5-3-1.2-2-2.9-1.6-3.4 0-0.5 1.7 0.1 3.2-1.4 3-1.4 0.2-0.8-1.3-1.3-3-0.6-1.6-2.2-2-3.4 0-1.2 2-1 1.6-2.5 3-2 1.9-8.5 0.4-10.6 0-2.2-0.3-7-1.3-2.7 2.4 4.3 3.6 15 4.5 11.3 4.5-3.6 0-4.6 2.5-4.4 2.8 0.5 0.9 2.4 5.5 13.6 5.2 11.3 0.3 13.2-4.3 13.7-5.2 0.2-0.3-0.8-2.8-4.4-2.8-3.7 0 6.9-0.9 11.3-4.5 4.3-3.7-0.5-2.7-2.7-2.4zm-37.1-47.7h-23.4c0 0 1 14.2 11.2 14.2 10.2 0 12.2-14.2 12.2-14.2zm-22.3-8.8h30.5v47.5h21.5v-48h31v-4h-36.8v47.5h-9.7v-47.5h-36.5zm85.5 8.8h-23.4c0 0 1 14.2 11.2 14.2 10.1 0 12.2-14.2 12.2-14.2zm-75.4 90.1l-19.2 41.1v-52.6c5.7 4.7 12.2 8.5 19.2 11.5zm-40.3-39.1l-49.4 17.8 44.1-40.2c0.5 7.9 2.3 15.4 5.3 22.4zm71.1 45.4l-42 43.9 18.9-47.4c7.3 2.2 15.1 3.4 23.1 3.5zm-52.2-19.6h-61.2l44.6-20.9c4.2 7.9 9.8 14.9 16.6 20.9zm130.6-47.2l42.9 39.2-48.4-17.4c3-6.8 4.9-14.1 5.5-21.8zm-27.5 50v54.6l-19.4-43.5c7-2.9 13.6-6.6 19.4-11.1zm19.7-23.3l43.7 20.5h-60.1c6.7-5.8 12.2-12.8 16.4-20.5zm-45.5 36.6l18.9 47.4-42-43.9c8.1-0.1 15.8-1.3 23.1-3.5zm-23-140.5l39.9-43.8-17 47.3c-7.2-2.2-14.9-3.4-22.9-3.5zm29.4 5.7l19.4-43.4v54.5c-5.8-4.5-12.3-8.3-19.4-11.1zm20.8 12.2l-0.3-0.3h61.3l-44.3 19.7c-4.4-7.4-10-13.9-16.7-19.4zm-128.5 47l-46.3-40.5 51.9 19.9c-2.9 6.4-4.8 13.3-5.6 20.6zm199.5-40.5l-45.2 39.5c-0.8-7-2.7-13.7-5.6-20zm-168-10.6l-5.3 2.7v-55.3l19.9 44.8c-5.2 2.1-10.1 4.7-14.6 7.8zm-22.8 23.8l-44.9-20h61.3l-3.4 4.1c-4.5 4.3-8.4 9.1-11.7 14.3zm44.5-34.1l-17-47.3 39.9 43.8c-8 0.1-15.7 1.3-22.9 3.5zm-37.1-29.4l1 35.6-35.7-1.3-1.6-36.5zm-55.7 73.6l26.7 23.6-25.5 25.1-27.6-23.9zm21.8 86.2l35.6-1.7-0.8 35.8-36.4 2.2zm70.6 47l24.1-26.3 24.7 25.9-24.3 27.2zm84.3-13.1l-0.6-35.6 35.8 1.9 1 36.5zm57.2-72.4l-26.5-23.8 25.6-25 27.5 24zm-23.7-84.8l-35.6 1.6 0.8-35.7 36.4-2.2zm-68.7-48.8l-24.2 26.1-24.5-26.1 24.5-27z"/>
	<path id="Path 3" fill-rule="evenodd" class="s2" d="m97.4 114h-7.7v-17h7.7zm22-35.7l8.6 13.7h-21.6zm-38.7 13.6h-21.7l8.7-13.6zm25.7-43.9l-12.7 36.8-13-36.8 13-23.1zm14 21.1c-8.9 3-19.9 15.7-19.9 15.7l10.1-36.8h30.2c-6.3 9-11.5 18-20.4 21.1zm-74.3-21.1h30.3l10.1 36.8c0 0-11-12.7-19.9-15.7-8.9-3.1-14.1-12.1-20.5-21.1zm310.3 65.9h-7.7v-17h7.7zm22-35.7l8.7 13.7h-21.7zm-38.7 13.7h-21.6l8.6-13.7zm25.7-43.9l-12.7 36.8-13-36.8 13-23.1zm14.1 21.1c-9 3.1-20 15.7-20 15.7l10.1-36.8h30.3c-6.4 9-11.5 18-20.4 21.1zm-44.1-21.1l10.1 36.8c0 0-11-12.6-19.9-15.7-8.9-3.1-14.1-12.1-20.4-21.1z"/>
	<path id="Path 4" class="s3" d="m223.6 26.3c8.9-8 16.3-7.6 18.4-7.7 20-0.6 28.9 21.2 29.4 32 0.2 6.5 0 26 0 26h-25c0 0 0-15 0-24.5-0.3-9.5-9.2-9.3-9 0v35.2h-28.1v-35.2c-0.2-9.4-9.4-9.4-9 0 0 9.5 0 24.5 0 24.5h-25c0 0-0.3-19.5 0-26 0.4-10.8 9.3-32.6 29.3-32 2.2 0.1 9.5-0.3 18.4 7.7z"/>
	<path id="Path 5" class="s4" d="m237.4 89.3c0 0 23.6 0.3 35.6 0-22.1 33.4-70.6 39.4-99.4 0 12 0.3 35.7 0 35.7 0z"/>
	<path id="Path 6" fill-rule="evenodd" class="s2" d="m445 413c0 65-47.2 93.1-66.3 102.3-22.7 11-152.4 42.7-152.4 42.7 0 0-102.3-17-165.3-46-63-29-60-84-60-95 0-59.5 14-416 14-416 0 0 337-1 415 0 3.9 35.4 15 347 15 412zm-411-398.7c-1.4 38.9-2.7 76.3-3.9 111.7h120.6v-112c-65.5 0.1-116.7 0.3-116.7 0.3zm378.1 0c-22.3-0.3-67-0.4-118.1-0.4v112.1h123.1c-1.8-55.3-3.7-99.9-5-111.7zm-248.1 111.7h116.7v-112.1c-38.3 0-79.3 0-116.7 0.1zm253.6 13h-387.9q-0.8 24.5-1.5 47.5h390.9c-0.5-16.2-1-32.2-1.5-47.5zm6.4 263.7c0-30.7-2.1-119.6-4.6-205h-391.6c-2.6 89.8-4.2 161.4-4.6 205-0.5 62.8 27.4 84 51.4 95.3 58.3 27.3 151.7 41.4 151.7 41.4 0 0 121.3-29.9 142.3-40.3 17.7-8.7 55.4-29.2 55.4-96.4zm-331.3-255.7l2.3 7.1h-6.7q-3.9 0-5.8 1.3-2 1.3-2 4.5 0 1.6 0.3 3 1.1 4.5 5.5 6.6 3.7 1.8 9.2 1.8l-2.5 7.1h-0.5q-8.1 0-13.7-3.9-5.7-3.9-7.4-10.9-1.4-5.8 0.8-10.2 2.5-4.7 8.3-5.9 2.6-0.5 6.6-0.5zm29.2 0h5.8l2.1 7q-0.8 0-2.8 0-1.8 0-2.8 0-6.1 0.1-9.2 1.4-3.8 1.6-5.6 5.8h9.2v-5.9h9.8l-0.2 23.1h-9.7l0.1-9.9h-10.2q0.1 1.5 0.4 3 0.9 3.6 3.2 6.9l-7.7 4.4q-3.8-5.1-5.1-10.5-1.7-7.3 1.2-13.7 5.3-11.6 21.5-11.6zm22.5 0v9.8h9.7v-9.8h9.7l-0.1 31.4h-9.7l0.1-14.3h-9.7q-0.1 3.2-0.2 6.5 0 6.2 0.6 7.8l-8.4 4.6q-0.8-1.2-1.3-3.1-0.5-2.4-0.5-6.6l0.1-26.3zm23.6 31.4l-1.8-6.9h5q-0.2-1.1-0.4-1.8-2.4-10.1 4.4-16.5 6.6-6.2 18.2-6.2h4.9l2.1 7q-0.8 0-2.5 0-1.7 0-2.6 0-8.8 0-12.1 3-2.6 2.4-3.1 6.5-0.6 3.5 0.5 7.6l0.1 0.4h8.6v-16.2h9.7l-0.1 16.2h5l-1.9 6.9zm62-31.4h5.8l2.1 7q-0.8 0-2.8 0-1.8 0-2.8 0-6.1 0.1-9.2 1.4-3.8 1.6-5.6 5.8h9.2v-5.9h9.8l-0.2 23.1h-9.7l0.1-9.9h-10.2q0.1 1.5 0.4 3 0.9 3.6 3.2 6.9l-7.7 4.4q-3.8-5.1-5-10.5-1.8-7.3 1.1-13.7 5.3-11.6 21.5-11.6zm22.5 0v9.8h9.7v-9.8h9.7l-0.1 31.4h-9.7l0.1-14.3h-9.7q-0.1 3.2-0.2 6.5 0 6.2 0.6 7.8l-8.4 4.6q-0.8-1.2-1.3-3.1-0.5-2.4-0.5-6.6l0.1-26.3zm44.9 0l2.3 7.1h-6.7q-3.9 0-5.8 1.3-2 1.3-2 4.5 0 1.6 0.3 3 1.1 4.5 5.5 6.6 3.7 1.8 9.2 1.8l-2.5 7.1h-0.5q-8.1 0-13.7-3.9-5.7-3.9-7.4-10.9-1.4-5.8 0.8-10.2 2.5-4.7 8.3-5.9 2.6-0.5 6.6-0.5zm26.7 31.4l-9.4-17.3 8.6-14.1h10.9l-9 13.8 10.2 17.6zm-19.5-31.4h9.8l-0.2 31.4h-9.7zm64.6 0l-0.1 31.4h-9.7l0.1-20.6-11.5 9.6-0.1 11h-9.6l0.2-31.4h9.6v9.7l11.5-9.7z"/>
</svg>