<svg version="1.2" xmlns="http://www.w3.org/2000/svg" viewBox="0 0 415 414" width="415" height="414">
	<title>Mizia-svg</title>
	<style>
		.s0 { fill: #336633 } 
		.s1 { fill: #ffffcc } 
		.s2 { fill: #e7b903 } 
		.s3 { fill: #e7ba03 } 
	</style>
	<g id="Layer_x0020_1">
		<g id="_40853840">
			<path id="_41000352" fill-rule="evenodd" class="s0" d="m202.9 0.2h6.1c109.7 0 205.1 97.4 205.1 205.1 0 110.4-93.9 208.2-205.1 208.2h-6.1c-102.5 0-202.1-91-202.1-190.1v-33.2c0-99.1 99.7-190 202.1-190zm153.9 325.8c-15.8 1.3-23.9 7-27.2 21.1 18.3-0.4 23.7-6 27.2-21.1zm21.1-33.2c-16.3 1.4-25.8 7.4-27.1 24.1 15-1.2 25.9-9.1 27.1-24.1zm-24.1-48.3c0 14.8 3.4 26.8 11.7 32.5l3.4-14.4c1.4-6.4-0.7-14.9-15.1-27.1zm18.1 33.2c17.1-4 23.2-13.2 27.1-30.2-11.6 1-27.1 9.9-27.1 21.1zm-164.9-255.8c0 0 0.1-6.7 0.1-6.7 20.9 3.1 34.5 4.7 53.1 9.1 0.2-3.3 0-3.5 0.4-8-12-5.8-42.4-10.1-57.7-10.1-100.2 0-196.1 92.8-196.1 193.1v12c0 105.2 95 196.1 199.1 196.1 67.5 0 135.8-65.2 135.8-132.7v-30.2c0-58.7-58.9-123.7-117.7-123.7h-18.1c-43.1 0-84.4 43.3-84.4 87.5 0 43.8 40 78.8 82.2 80.1 35.7 1.2 79.8-38.6 80.7-77.1h-72.4c0 16.8-5.7 30.2-21.1 30.2-21.4 0-39.3-21.8-39.3-45.2 0-29.6 30-57.4 60.4-57.4 84.3 0 138.8 129.6 41 188.9-82.2 49.9-185.8-31.4-185.8-122.5 0-78.2 58.7-135.7 138.6-135.7l0.1-8.7 53.9 9.6c0.2-4.3 0.1-1.4 0.1-8.5-13.9-2.5-34.9-4.7-53.7-8.9-0.2-2.6 0.1-3.8 0.1-7.6l53.9 8.9v-7.9l-53.3-7.7c-0.2 0 0-5.1 0-8.3 24 3.6 33.6 5.1 53.3 8.4v-8.6zm167.9 213.6v-15.1c0-10.5-11-18.8-21.1-21.1 0 22 6.7 28.5 21.1 36.2zm27.1-36.2c-13.3 7-21.1 15.6-21.1 36.2 16.5-3.9 28.5-20.8 21.1-36.2zm-57.3-42.3v9.1c0 12.6 18.7 21.4 30.2 24.1-0.5-21.1-13-29.2-30.2-33.2zm36.2 30.2c8.7-5.8 15.1-12.8 15.1-27.2 0-11.3-0.3-5.6-3-18.1-11.8 3.2-15.1 15.8-15.1 30.2 0 8.2 1.4 8.3 3 15.1zm-15.1-60.3c0 11.1 3 13.6 9.1 18.1 2.4-10.6 6-10.2 6-21.2v-6c0-11.2-2.9-13.6-9-18.1-2.5 10.5-6.1 10.2-6.1 21.1zm-33.2-6c1.3 14.8 1.9 21.9 15.1 24.1l18.1 3c-1.4-17.4-14.4-26.7-33.2-27.1zm-9 235.3c-11.7 5.6-14.3 0.7-18.1 15.1 12.1-1 15.3-4.7 18.1-15.1zm-132.7-150.8c-7.1 0-12.1 5-12.1 12 0 7.1 5 12.1 12.1 12.1 7 0 12-5 12-12.1 0-7-5-12-12-12z"/>
			<path id="_41409488" fill-rule="evenodd" class="s1" d="m207.2 22.1l53.2 8.4v8.6c-19.8-3.3-29.4-4.8-53.4-8.4 0.1 3.2-0.2 8.3 0 8.3l53.4 7.7v7.9l-54-8.9c0 3.8-0.2 5-0.1 7.6 18.9 4.2 39.8 6.4 53.7 8.9 0 7.1 0.1 4.2-0.1 8.5l-53.9-9.6v8.7c-79.9 0-138.7 57.4-138.7 135.7 0 91.1 103.6 172.4 185.9 122.5 97.7-59.3 43.3-188.9-41.1-188.9-30.3 0-60.3 27.8-60.3 57.3 0 23.5 17.8 45.3 39.2 45.3 15.4 0 21.1-13.4 21.1-30.2h72.4c-0.8 38.5-45 78.2-80.6 77.1-42.2-1.3-82.3-36.3-82.3-80.1 0-44.2 41.3-87.5 84.5-87.5h18.1c58.7 0 117.6 65 117.6 123.7v30.2c0 67.5-68.3 132.7-135.7 132.7-104.1 0-199.1-90.9-199.1-196.1v-12c0-100.3 95.9-193.1 196.1-193.1 15.3 0 45.6 4.3 57.6 10.1-0.4 4.5-0.2 4.7-0.3 8-18.7-4.4-32.3-6-53.2-9.1 0 0 0 6.7 0 6.7z"/>
			<path id="_40839856" fill-rule="evenodd" class="s2" d="m366 148.2l-18.1-3c-13.3-2.3-14.2-10-15.4-24.8 18.7 0.4 32 10.3 33.5 27.8z"/>
			<path id="_41419072" fill-rule="evenodd" class="s2" d="m371.9 99.7c7 4.5 10.2 8.2 10.2 19.4 0 10.7-4.3 17.2-6.9 27.2-7-4.5-7.8-7-10.4-18.1-2-10.5 0.7-18.7 7.1-28.5z"/>
			<path id="_40681344" fill-rule="evenodd" class="s2" d="m378 172.3c-0.2-14.9 2.8-28.2 15-30.5 2.8 12.5 3.1 7.1 3.1 18.4 0 14.4-6.4 21.4-15 27.2-1.6-6.8-3.1-6.9-3.1-15.1z"/>
			<path id="_41427344" fill-rule="evenodd" class="s2" d="m375 190.4c-11.5-2.7-30.2-11.5-30.2-24.1v-9.1c17.2 4 29.7 12.1 30.2 33.2z"/>
			<path id="_40938896" fill-rule="evenodd" class="s2" d="m380.9 235.5c0-20.6 7.8-29.2 21.1-36.2 7.4 15.4-4.6 32.3-21.1 36.2z"/>
			<path id="_40950216" fill-rule="evenodd" class="s3" d="m353.8 199.3c10.2 2.3 21.3 10.8 21.2 21.3v15.1c-14.4-7.7-21.2-14.4-21.2-36.4z"/>
			<path id="_40734584" fill-rule="evenodd" class="s1" d="m203.1 217.6c0 7-5.1 12-12.1 12-7.1 0-12.1-5-12.1-12 0-7.1 5-12.1 12.1-12.1 7 0 12.1 5 12.1 12.1z"/>
			<path id="_40853064" fill-rule="evenodd" class="s3" d="m371.8 268.8c-0.2-11.6 15.5-21 27.3-21.4-3.9 17.1-10.1 26.3-27.2 30.3z"/>
			<path id="_40910792" fill-rule="evenodd" class="s3" d="m353.7 235.2c14.5 12.2 16.8 21.2 15.3 27.6l-3.4 14.4c-13.3-9.1-11.8-27.8-11.9-42z"/>
			<path id="_40909544" fill-rule="evenodd" class="s3" d="m350.8 316.9c1.3-16.7 10.8-22.7 27.1-24.1-1.2 15-12.1 22.9-27.2 24.1z"/>
			<path id="_40044608" fill-rule="evenodd" class="s3" d="m329.6 347.1c3.3-14.1 11.4-19.8 27.2-21.1-3.5 15.1-8.9 20.7-27.2 21.1z"/>
			<path id="_40910816" fill-rule="evenodd" class="s3" d="m305.5 371.2c3.8-14.4 6.4-9.5 18.1-15.1-2.8 10.4-6 14.1-18.1 15.1z"/>
			<path id="_40949272" fill-rule="evenodd" class="s2" d="m348.7 108.9l-18.4 0.1c-13.4 0.1-15.2-6.8-19-21.1 18.5-2.9 32.9 4 37.4 21z"/>
			<path id="_41053720" fill-rule="evenodd" class="s2" d="m343.1 59.3c6.7 3.7 11.5 6.6 13 17.7 1.4 10.8-1.4 17.3-2.4 27.7-6.6-3.6-7.7-6-11.4-16.7-3.1-10.2-3.4-18.2 0.8-28.7z"/>
			<path id="_40890040" fill-rule="evenodd" class="s2" d="m321.2 74l-17.3 5.9c-12.8 4.4-16.7-1.6-24.8-14.1 16.7-8.5 32.6-6.5 42.1 8.2z"/>
			<path id="_40984400" fill-rule="evenodd" class="s2" d="m297.2 30.1c7.5 0.4 13.2 1 19.3 10.3 5.9 8.9 6.4 16.4 9.9 26-7.5-0.4-9.5-2.1-17.5-10.2-7.2-7.7-10.9-14.9-11.7-26.1z"/>
			<path id="_41069016" fill-rule="evenodd" class="s0" d="m59.6 215.9l-42.4-2.6 0.8-12.8 29.4-6-28.4-9.3 0.8-12.9 42.3 2.6-0.5 8-33.3-2.1 32.8 10.5-0.5 8.2-33.9 6.4 33.4 2zm-34.7-68.2l3.2-7.4 25.9 11.3-19-27.1 3.4-7.8 38.9 16.9-3.2 7.4-25.4-11.1 18.6 26.8-3.4 7.9zm38.5-48.1l-7.2 4.7q-5.7-9.1 3-18.2 5.2-5.4 10.2-5.9 5-0.5 8.2 2.5 2.2 2.1 2.8 5.1 0.6 2.9-0.5 6.7 4-2.1 7.4-1.8 3.3 0.3 6.2 3 4 3.8 3.7 9.2-0.3 5.3-6 11.2-4.5 4.9-8.8 6.1-4.3 1.3-10-1.5l3.5-7.4q3.6 1.7 5.8 1 2.2-0.7 4.3-2.8 2.8-2.9 2.8-5.5 0-2.5-1.7-4.1-1.9-1.8-4.5-1.4-2.6 0.5-5.5 3.5l-1.3 1.4-4.6-4.4 0.6-0.7q2.7-2.8 2.9-5.6 0.2-2.7-2-4.7-1.7-1.6-4-1.5-2.3 0.2-4.5 2.5-3.7 3.9-0.8 8.6zm19-40.2l6.9-4.2 14.7 24.1-0.1-33.1 7.3-4.4 22.2 36.2-6.8 4.2-14.5-23.7-0.2 32.7-7.3 4.4zm87.1 4.8l-5-17-1.7 0.5q-3.9 1.1-5.1 2.8-1.3 1.6-3.4 8.6l-3.3 10.6-9.9 2.9 2.6-9.4q1.6-5.6 2.8-8 1.2-2.4 3.4-4.7-6 0.8-9.4-1.6-3.5-2.3-4.7-6.6-1.1-3.7-0.1-7.1 1-3.4 3.8-5.3 2.8-1.9 8.9-3.7l17.3-5.1 12 40.7zm-10-33.9l-6.4 1.9q-4.9 1.5-6.4 2.2-1.4 0.6-2.2 2.2-0.7 1.7-0.1 3.7 0.6 2.1 2.1 3.1 1.4 0.9 3.2 0.8 1.7-0.2 6.8-1.7l6.1-1.8z"/>
		</g>
	</g>
</svg>