<svg version="1.2" xmlns="http://www.w3.org/2000/svg" viewBox="0 0 699 901" width="699" height="901">
	<title>Dupnitsa-svg</title>
	<defs>
		<linearGradient id="g1" x1=".1" y1="450.3" x2="711.5" y2="742.6" gradientUnits="userSpaceOnUse">
			<stop offset="0" stop-color="#008000"/>
			<stop offset="1" stop-color="#636563"/>
		</linearGradient>
		<linearGradient id="g2" x1="64.4" y1="519.6" x2="639.9" y2="519.6" gradientUnits="userSpaceOnUse">
			<stop offset="0" stop-color="#c52600"/>
			<stop offset="1" stop-color="#772100"/>
		</linearGradient>
		<linearGradient id="g3" x1="85.6" y1="145.8" x2="618.7" y2="145.8" gradientUnits="userSpaceOnUse">
			<stop offset="0" stop-color="#008000"/>
			<stop offset=".5" stop-color="#2a542a"/>
			<stop offset="1" stop-color="#007f00"/>
		</linearGradient>
		<radialGradient id="g4" cx="273" cy="418.4" r="169.4" gradientUnits="userSpaceOnUse">
			<stop offset="0" stop-color="#ffffff" stop-opacity=".5"/>
			<stop offset="1" stop-color="#ffffff" stop-opacity="0"/>
		</radialGradient>
	</defs>
	<style>
		.s0 { fill: #ffcc00;stroke: url(#g1);stroke-linecap: square;stroke-width: 39.7 } 
		.s1 { fill: url(#g2);stroke: #008000;stroke-linecap: square;stroke-width: 0 } 
		.s2 { fill: #ffcc00 } 
		.s3 { fill: #ffcc00;stroke: #ffcc00;stroke-linecap: round;stroke-linejoin: round;stroke-width: 5.7 } 
		.s4 { fill: url(#g3) } 
		.s5 { fill: #008000;stroke: #000000;stroke-linecap: round;stroke-linejoin: round;stroke-width: 0 } 
		.s6 { fill: #ffff00 } 
		.s7 { fill: #ffff00;stroke: #000000;stroke-linecap: round;stroke-linejoin: round;stroke-width: 0 } 
		.s8 { fill: url(#g4) } 
	</style>
	<g id="layer1">
		<g id="g1874">
			<g id="g3653">
			</g>
		</g>
		<g id="g5461">
		</g>
		<g id="g9145">
		</g>
		<g id="g9229">
			<g id="g5553">
				<path id="rect1892" class="s0" d="m20 700.3l3.5-680.3h120.4 30.7v53.2h105.6v-53.2h138.6v53.2h105.6v-53.2h151.1l3.5 680.3c-77.5 101.6-204.6 180.4-329.5 180.4-124.9 0-252-78.8-329.5-180.4z"/>
				<path id="rect4574" class="s1" d="m639.9 193.6v495.7c-43.3 71-177.5 156.2-279 156.2h-17.4c-101.4 0-235.8-85.2-279.1-156.2v-495.7z"/>
				<path id="path4549" fill-rule="evenodd" class="s2" d="m421 386.1c0 0-101.5 0-132.7 0 3.8-20.7 33.5-59.7 28.4-63.6-22.2-7.7-36.1-18.9-24.2-18.9 27.9 0 30.4-5.4 32.2-11.2 3.6-11.7-35.2-16.8-44.9 2.2-15.5-13.5 3.4-32.8 21.3-31.6 8.8 0 16.7 1.7 20.1-4.7 1.8-3.5 7.2-6 14.3-6.3 68.2 0 69.2 73.2 85.5 134.1zm-87.9-120.8c-13.2 7.6 18.2 11.6 11.4-0.2-0.7-1.2-5.2-3.4-11.4 0.2z"/>
				<g id="g8241">
					<path id="rect5497" fill-rule="evenodd" class="s3" d="m264.3 304.8l-25 79.1h112.1v400.3l-68.4-38.9 29.6-63.3-16.3-9.7-32.1 62.6-57.3-33.4 32.6-63.5-42.7-25.7v-89l2.1 1.2v-13.6c-15.7 48.7-34.9 108.4-40.4 130-33.1-30.5-40.3-11.7 23-200.8 5.4 1.5 11.4 3.5 17.4 5.5v-16.8l-12.3-4.1 16.7-48.1-17-5.8-15.8 44.8-36-12 15.6-45.4-16.1-5.7-15.6 44-36-12.1c16.3-61 50.4-97 101.6-98.9 23.3-0.9 50.1 5.2 80.3 19.3zm-152.5 109.2c0 0-41.1 126.5-55.5 175.8v-129.5c5.5-16.7 11.6-35.4 19-57.4 11.3 3 25 8.1 36.5 11.1zm53.2 19.7c0 0-50.8 155.6-59.6 189.4-33-30.4-40.2-11.7 23.1-200.7 11.3 3 25 8.2 36.5 11.3zm57.3 295.7v21.4h42.4v30.5h-3.7c-2.6-9.4-11.1-16.4-21.3-16.5-10.4 0-19.1 7-21.7 16.5h-8.6c-2.6-9.4-11.1-16.4-21.3-16.5-10.4 0-19.1 7-21.7 16.5h-4.6v-30.5h42.4v-21.4z"/>
					<path id="rect5497" fill-rule="evenodd" class="s3" d="m520.3 285.5c51.2 1.9 85.2 37.9 101.6 98.9l-36 12.1-15.6-44-16.2 5.7 15.6 45.4-36 12-15.7-44.8-17.1 5.8 16.7 48.1-12.2 4.1v16.8c6-2 11.9-4 17.4-5.5 63.2 189.1 56.1 170.3 23 200.8-5.6-21.6-24.8-81.3-40.4-130v13.6l2.1-1.2v89l-42.7 25.7 32.6 63.5-57.3 33.4-32.1-62.6-16.3 9.7 29.6 63.3-68.5 38.9v-400.3h112.1l-25-79.1c30.3-14.1 57.1-20.2 80.4-19.3zm108.7 117.4c7.4 22 13.4 40.7 19 57.4v129.5c-14.4-49.3-55.5-175.8-55.5-175.8 11.5-3 25.2-8.1 36.5-11.1zm-53.2 19.5c63.3 189 56.1 170.3 23 200.7-8.7-33.8-59.6-189.4-59.6-189.4 11.6-3.1 25.3-8.3 36.6-11.3zm-75.8 307v21.4h42.4v30.5h-4.6c-2.5-9.5-11.3-16.5-21.6-16.5-10.2 0.1-18.8 7.1-21.3 16.5h-8.7c-2.5-9.5-11.3-16.5-21.6-16.5-10.3 0.1-18.8 7.1-21.3 16.5h-3.7v-30.5h42.4v-21.4z"/>
				</g>
				<path id="text9159" fill-rule="evenodd" class="s4" d="m152.1 101.4v65.3h14.7v23.6h-16.9v-8h-47.5v8h-16.8v-23.6h8.5c3.7-2.1 6.3-5.3 7.6-9.6 2.5-8.2 3.9-21.6 3.9-40.3v-15.4zm37.3 0l14.3 36.9 14.2-36.9h17.7l-25.7 67.6c-1.1 3-2.7 5.5-4.4 7.4-4.4 5-11.1 7.5-20 7.5h-8.4v-15.8h9.9q3.9 0 7.1-5 0.7-1.1 1.1-1.9l-23.6-59.8zm115.8 0v80.9h-16.8v-65.1h-25v65.1h-16.9v-80.9zm33.4 0v30.9h25v-30.9h16.8v80.9h-16.8v-34.3h-25v34.3h-16.9v-80.9zm74.3 0v55.5l23.8-55.5h19v80.9h-16.2v-55.4l-23.7 55.4h-18.8v-80.9zm76.1 0v65.3h24.8v-65.3h16.8v65.3h16.9v23.6h-16.9v-8h-58.5v-80.9zm105.5 0l24.3 80.9h-17l-4.1-14.7h-26.4l-4.1 14.7h-17l24.3-80.9zm-471.9 20.8c0 17-2 31.9-5.9 44.5h18.6v-49.5h-12.7zm452.9 30.5h17.9l-9-32.3z"/>
				<path id="rect9133" class="s5" d="m496.1 397.9v208.6c-42.6 31.2-120.8 64.2-144 64.2-23.2 0-101.9-31.5-143.9-64.4l-0.1-208.4z"/>
				<g id="g9206">
					<path id="path9193" class="s6" d="m284.7 632.8v-90.4h68.2v118zm-45.1-120.5l-31.5 17.5v-70.9l36.7-25.9 30.3 15.1 69.2-42.4-2.6 16.4-12.1 13.1v25.5l-60.2 31.4 10 8.7 0.5 39.5z"/>
					<path id="path9193" class="s6" d="m351.4 660.4v-118h68.1v90.4zm72.9-120.1l0.6-39.5 10-8.8-60.2-31.3v-25.5l-12.1-13.1-2.6-16.4 69.1 42.4 30.4-15.1 36.7 25.9v70.9l-31.5-17.5z"/>
				</g>
				<path id="rect9204" class="s5" d="m350.6 585.2h3v9.1h-3z"/>
				<path id="rect9204" class="s5" d="m137.9 100.2h3v9.2h-3z"/>
				<path id="rect9204" class="s5" d="m350.6 571.9h3v9.1h-3z"/>
				<path id="rect9214" class="s7" d="m340.3 495.8h23.6v24.8h-23.6z"/>
				<path id="rect9216" class="s7" d="m343.6 440.8h17.1v20.7h-17.1z"/>
			</g>
			<path id="path6469" class="s8" d="m443.9 420.7c68.3 163.8 47.3 295.4-47.2 294.1-94.4-1.3-226.4-135.2-294.8-298.9-68.4-163.8-47.3-295.5 47.1-294.2 94.4 1.3 226.4 135.1 294.8 298.9l-170.8-2.2z"/>
		</g>
	</g>
</svg>