<svg version="1.2" xmlns="http://www.w3.org/2000/svg" viewBox="0 0 388 524" width="388" height="524">
	<title>Yambol-svg</title>
	<style>
		.s0 { fill: none } 
		.s1 { fill: #ffffff } 
		.s2 { fill: #00bf00;stroke: #000000;stroke-linecap: round;stroke-linejoin: round;stroke-dasharray: 1,1 } 
		.s3 { fill: #00bf00;stroke: #000000;stroke-linecap: round;stroke-linejoin: round;stroke-width: .5 } 
	</style>
	<g id="layer1">
		<g id="layer2">
		</g>
		<g id="g4467">
			<path id="rect3377" class="s0" d="m-7-7h401.1v538.3h-401.1z"/>
			<path id="path3121" class="s1" d="m145.7 516.3c-87.6-22.1-130-94.1-138.5-138.1l-5.2-27.3-1.2-153.5v-153.6l41.8-0.1v-13.9h-17.8l-0.1-28.8h93v21.4h27.7v-21.4h96.9l0.1 21.4c9.2 0 27.6 0 27.6 0v-21.4h92.9v28.8c-6 0-17.7 0-17.7 0 0.1 4.8 0.1 13.9 0.1 13.9l41.5 0.1-0.2 153.6c-0.1 0.1 0.3 99.8-0.6 149.1-0.2 10.7-6 32.4-6 32.4-19.1 67.6-75.3 120.8-136.4 137.2-11.2 3-29.6 6.2-48.6 6.4-13.7 0-33.8-1.7-49.3-6.2z"/>
			<path id="path3008" fill-rule="evenodd" class="s2" d="m0.8 333.1c0-112.1 0-289.3 0-289.3l41.7-0.1 0.1-13.9h-17.9v-28.8h93v21.4h27.7v-21.4h96.9l0.1 21.4h27.6v-21.4h92.9v28.8h-17.7l0.1 13.9 41.5 0.1c0 98.3-0.2 191.6-0.1 290 0 3.9-0.2 8.3-0.5 12.2-3.8 45.6-24.2 89.1-57.2 121.9-29.5 29.4-70.9 51.1-120.3 55-19.3 1.5-32.2-0.2-39.3-1-84.3-10.4-160.9-78.1-168.1-178.1-0.2-3.6-0.3-6.9-0.5-10.7zm378.3-282h-41.3v-28.6l17.7-0.1v-13.9l-78.1 0.4 0.1 20.9h-42.6l-0.1-21.3h-82v21.3h-42.6v-21.2l-78.2-0.1 0.2 13.9h17.7l-0.1 28.8h-41.3c0 0 0 120.1 0 219.7 0 22.3 0 43.5 0 62.2 0 3.6-0.1 7.8 0.2 11.3 7.7 90.4 74.6 156.6 160.9 169.9 15.3 1.9 26.5 1.9 38.4 0.8 105.5-9 170.2-97.9 170.6-181.1zm-240.9 73.1h198.5c0 0 0.1 143 0.2 207.5-0.8 10.7-0.7 11.5-1.3 16.2-6.2 58.4-56.4 123.1-137.8 125.8-6.9 0.1-8.6 0.2-15.2-0.3-15.5-1.2-27.2-4.4-39-8.6 1.2-3.7 3.6-9 3.6-13.4 0-11.5-12-23.1-12-34.7 0-11.6 12-23.1 12-34.7 0-11.6-12-23.1-12-34.7 0-11.6 12-23.2 12-34.7 0-11.6-12-23.2-12-34.7 0-11.6 12-23.2 12-34.7 0-11.7-12-23.3-12-34.7 0-11.7 12-23.3 12-34.7 0-11.8-13-23.4-13-34.7 0-5 4-14.9 4-14.9zm103.6 286.6c0.4-4.9 2.1-8.8 5.1-11.6 5.5-5 5.7-9.7 0.9-15.9l-3.6-4.5 5.3-3.1c2.8-1.7 6.7-6.3 8.5-10.2 1.8-3.8 4.4-8.3 5.8-10 2.9-3.2 3.1-8 1.5-24-1.6-15.7-2-16.2-8-10.5-2.8 2.7-6.1 4.9-7.3 4.9-3 0-4.4 2.9-5.4 11.7-1.2 10.2-3.6 14.3-9.8 16.5-13 4.5-16.9 21.6-6.4 28l5 3-4.5 2.4c-9.5 5-10 13.2-1.2 18.6l6 3.7h-5c-5.6 0-8 2.5-6.3 6.7 0.8 2.1 3.3 2.7 9.9 2.2l8.9-0.5zm-14.3-13.4c0.6-3 14.6-9 14.6-6.2 0 1.5-11.5 9.2-13.9 9.2-0.7 0-1-1.3-0.7-3zm7.2-24c0-0.5 0.4-0.9 0.9-0.9 0.5 0 0.9 0.4 0.9 0.9 0 0.5-0.4 0.9-0.9 0.9-0.5 0-0.9-0.4-0.9-0.9zm3.7-1.6c0-0.6 0.8-1.5 1.8-2.1 1.1-0.7 1.9-0.8 1.9-0.2 0 0.5-0.8 1.4-1.9 2-1 0.7-1.8 0.8-1.8 0.3zm10.8-9.4c1.6-3.6 3.5-6.1 4.3-5.7 2.3 1.5-1.3 11.1-4.4 11.7-2.6 0.5-2.6 0 0.1-6zm-17.8 2.3c0.4-1.2 2.3-3.1 4.3-4.1 2-1.1 5.9-3.5 8.7-5.3 2.9-1.9 5.2-2.6 5.2-1.6 0 1.6-15.7 13.2-18 13.2-0.5 0-0.6-1-0.2-2.2zm7.4-17.2c0.8-1.1 1.4-4.7 1.4-8 0-3.2 0.9-8.1 1.9-10.9 1.7-4.3 1.2-5.6-3.7-10.1-6.3-5.9-7.9-18.2-2.9-22.3 2.3-1.9 2.8-0.7 3.3 8.6 0.4 8.8 1.2 10.9 4 11.5 3.1 0.6 3.4-0.2 2.3-5.9-1.6-8.3 2-17.1 5.7-14.1 2 1.7 3.4 1.4 6.3-1.2 2-1.8 3.6-2.4 3.6-1.3 0 1.1-0.8 2.6-1.8 3.2-1 0.6-1.9 2.9-1.9 5 0 3.2-0.5 3.4-2.7 1.6-6.2-5.2-8.9 2.8-2.8 8.4 4.7 4.2 5.6 3.4 13.9-13.7 6.8-14.1 6.8-17.1 0.1-22.6-4-3.4-3.6-5.1 1.6-6.4 2.4-0.6 7.1-4.2 10.4-7.9l5.9-6.8-9-5c-4.9-2.8-9.3-4.8-9.6-4.6-1.7 1.2 2.1 8.2 4.5 8.2 3.5 0 3.3 3.6-0.5 7.8-3.8 4.3-7.9 4.3-10.9 0.2-2.3-3.1-2.6-3.1-6.3 0.2-4.3 4-5.2 10.4-1.5 10.4 5.7 0 9.4 4.8 7.1 9-2.2 4.2-9.4 5.3-18.3 2.9-6.2-1.6-5.5-8.8 1.1-13.6 3-2.1 5.9-5.7 6.5-8 0.6-2.3 4-5.8 7.6-7.8 3.7-1.9 6.6-4.8 6.6-6.5 0-2.1-0.7-1.7-2.9 1.3-2.1 3.1-4.7 4.1-10.2 4.1-6.6 0-7.6 0.6-10.1 6.7-1.9 4.6-3.8 6.5-6 6-5.2-1-5.2-6.8 0-8.8 2.5-1 5-3.1 5.6-4.7 0.7-1.7 3.4-2.9 6.5-2.9 5.8 0 9.4-3.2 14.1-12.5 5.1-10-0.4-12.2-5.9-2.4-1.7 3.1-5.3 6.2-7.8 6.9-2.6 0.6-5.7 2.5-6.9 4.1-1.7 2.3-2.7 2.5-4.5 0.7-3.1-3.1 0.5-7.2 7.4-8.6 8.9-1.8 16.6-18 8.6-18-1.3 0-4.2 3-6.3 6.6-2.5 4.2-5.1 6.5-7 6.1-4.5-0.9-5.4-5.3-1.1-5.3 3.4 0 9.8-7 12.2-13.5 1.5-4.2 0.3-4.1-6.2 0.5-7.8 5.6-8.6 1.1-0.9-4.8 6.4-4.9 7.1-8.3 1.7-8.3-1.5 0-5.2 1.8-8.1 4-3.2 2.3-6.7 3.5-8.5 2.8-3.9-1.5-2.6-5.8 1.7-5.8 1.8 0 4.1-1.5 5.1-3.3 2.9-5.2-2.5-5.9-11.5-1.6-7.8 3.8-11.1 3.7-11.1-0.1 0-1.1 1.2-1.5 2.7-0.9 1.5 0.6 3.2 0.2 3.9-0.7 2.1-3.6-5.1-4.1-11.1-0.8-6.5 3.4-13.2 2.6-11.8-1.5 0.5-1.3 2.7-2.1 5-1.8 3 0.3 3.9-0.4 3.5-2.8-1.1-5.4-8.4-5.1-13.6 0.6-3 3.2-7.2 5.3-11.6 5.8-8.9 0.9-9.8 2.6-9.9 17.3 0 8-1.9 18.4-5.7 30.8-7.1 23.7-3.6 36.1 7.6 26.1 3.7-3.4 12.4-0.8 10.1 3-0.8 1.3-1.9 1.3-3.3-0.1-3.8-3.8-5.2-2-4.6 5.8 0.2 2.3-0.5 5.7 0.8 5.3 1.4-0.3 3.2 0.1 4.5 0.2 1.4 0.2 2.3 0 2.3 0.2-0.1 0.6-3.8-0.5-5.8 1.5-0.5 0.6-0.2 2 0.7 2.3 0.5 0.1 1.7-0.2 2.1-0.1 4.8 1.3 5.2 7.4 1.4 14.7-11.4 22.1 25 33.6 46.5 14.6 5.9-5.1 6.8-5.4 6.8-2.3 0 2-2.1 4.7-4.6 6-6.6 3.6-6.9 6.1-2.8 19.5 4.4 14.2 10.9 17.2 17.1 7.8zm13-10.4c1.3-2 3.4-4.1 4.8-4.6 1.5-0.6 1.2 0.7-0.9 3.6-4 5.5-7.2 6.3-3.9 1zm47.1 42c0-5.3-0.8-7.3-3-7.7-4.1-0.6-10.6-4.4-7.7-4.5 4.9-0.1 2.1-4.9-4.6-7.9l-7-3.3 7.4 0.5c5.8 0.3 7.6 1.2 8.1 4.2 1.2 7.9 2 8.9 5 6.5 7-5.9 1.9-14.1-11.8-18.8-11.3-4-18.2 8-8.8 15.3 2.5 2 4.8 5.9 5.1 8.6 0.4 3.6 1.8 5.3 4.6 5.7 2.5 0.4 4.5 2.4 5.2 5.3 1.9 7.7 7.5 4.9 7.5-3.9zm-42.4-32.9c1.3-1.3 2.8-1.9 3.4-1.3 0.5 0.6-0.5 1.6-2.3 2.3-2.7 1-2.9 0.8-1.1-1zm-79.6-83.7c0-1 0.8-1.8 1.9-1.8 1 0 1.8 0.8 1.8 1.8 0 1.1-0.8 1.9-1.8 1.9-1.1 0-1.9-0.8-1.9-1.9zm8.8-34.8c-0.9-0.3-2.4 0.6-2.9-0.2-1.3-2.5 0.2-8.2 2.7-10.7 2.8-2.8 10.3-4.1 16.7-0.9 1.8 0.9 9.9 0.4 9.9 0.4 0 0-2.6 4.9-3 5.6-3.1 5.2-13.5 8.4-23.4 5.8zm5.9-5.5c-0.3-1.2-0.5-3.6-1.2-4-1.8-1.3-5 0.4-5.7 3.8-0.4 2 0.6 3.3 3.1 3.3 1.6 0 5.5 0.9 6.2-0.1 0.5-0.7-2.1-1.8-2.4-3zm13.3 1.7c2.8-1.5 2.5-4.8 2.5-4.8 0 0-5.1-0.2-7.2-0.6-1.4-0.3-0.5 2.3-0.5 3.1 0 1.6-2.5 3.4-0.6 3.9 2.7-0.2 4-0.5 5.8-1.6zm90.3 120.7c1.4-4.5-1.9-11.3-5.6-11.3-3.4 0-3.7 5-0.4 6.2 1.2 0.4 1.7 1.4 1.1 2.1-2.4 2.6-9.1-2.8-11.9-9.5-1.5-3.8-2.4-7.2-1.8-7.7 0.5-0.6 0.9 0.1 0.9 1.4 0 1.5 1.7 2.1 4.7 1.5 2.6-0.5 5.5 0.2 6.7 1.6 2.5 3 5.4 3.4 5.4 0.8 0-6.4-18.8-17.4-24.2-14.1-3.9 2.4-2.1 15.4 3 21.4 8.1 9.6 20.1 13.8 22.1 7.6zm25.2-6.3c0-2.5 1.7-6.7 3.8-9.4 3.9-4.9 3.7-10.3-0.6-15.6-3.7-4.7-5.4-2.3-4.1 5.6 1.5 9.1-0.1 8.3-5.7-2.9-4.1-8.1-9.4-11.1-11.2-6.3-0.6 1.5 1.1 5.8 3.7 9.7 3.3 4.9 4.8 9.5 4.8 15.1 0 7.5 0.4 8.2 4.6 8.2 3.7 0 4.7-1 4.7-4.4zm-37.3-24.9c0-2.3-10-11.7-12.5-11.7-3.4 0-3 4.5 0.9 7.8 4.7 4.2 11.6 6.5 11.6 3.9zm-1-11.1c-1.9-1.3-2.8-3-2.2-3.7 0.7-0.6 2.5-0.2 3.9 1 3.6 3 5.7-0.4 3.2-5-4.6-8.6-13.2-8.1-13.2 0.8 0 4.4 6.2 11.5 9.1 10.4 2.1-0.8 1.9-1.5-0.8-3.5zm32-3.6c2.3-3.5 2.7-5.7 1.4-7.8-3.2-5-5.7-4.6-8.1 1.4-1.3 3.1-3.1 5.6-4 5.6-2.3 0-2.1-1.2 1.1-7.3 1.7-3.3 2.3-7.7 1.6-12-1.3-8.1-6.2-9.3-6.2-1.5 0 2.9-1.3 6.8-2.9 8.8-2.8 3.5-2.9 3.4-1.9-1.5 1.2-5.5-1.9-7-6-2.9-3.5 3.6-2.7 5.6 5.3 14.1 9 9.3 15 10.3 19.7 3.1zm7.2-18.4c0-3.7-5.6-8.1-7.7-6.1-2 2.1 2.8 11.1 5.4 10.2 1.3-0.4 2.3-2.3 2.3-4.1zm-71.7-0.9c0-2-0.9-4.2-2.1-4.9-2.8-1.7-6.1 2.1-4.8 5.6 1.6 4.2 6.9 3.6 6.9-0.7zm41-5.7c4-2 9.3-3.7 11.8-3.7 7.8 0 9.7-4.7 4.2-10.2-8.6-8.6-19.4-6.2-28 6.2-8 11.5-2.4 15.1 12 7.7zm27-10.5c-2.3-3.4-3.3-9.2-3.5-19.1-0.2-10.5-1.5-16.8-4.8-24.2l-4.5-10.1-2.6 7.3c-5.9 16.5-2.8 29.7 10.3 43.9 7.7 8.3 9.6 9.2 5.1 2.2zm-51.3-4.4c0-1-0.8-1.9-1.8-1.9-1.1 0-1.9 0.9-1.9 1.9 0 1 0.8 1.9 1.9 1.9 1 0 1.8-0.9 1.8-1.9zm61.5-5.5c2.4-4.4 2.5-12.5 0.2-14-2.4-1.4-7.6 6.3-7.6 11.2 0 7.1 4.2 8.7 7.4 2.8zm-29.8-5.3c0-14-18.2-32.1-32.3-32.1-13 0 4.2 30.8 18.8 33.7 11.6 2.2 13.5 2 13.5-1.6zm-35.4-5c0-0.5-0.4-1-0.9-1-0.5 0-1 0.5-1 1 0 0.5 0.5 0.9 1 0.9 0.5 0 0.9-0.4 0.9-0.9zm69-10.1c0-3.9-2.5-7.6-4.9-7.6-3.2 0-3.5 6.8-0.3 8 3.7 1.5 5.2 1.4 5.2-0.4zm-35.4-19.5c0-8.8-0.6-10.2-5.8-14.1-3.2-2.3-7.4-7.9-9.4-12.4-4-9-7-10.6-7.5-4-0.6 8.6 0.6 12.9 6 21.4 3 4.7 5.5 9.7 5.5 11.1 0 3.4 7.2 10.2 9.4 8.9 0.9-0.6 1.8-5.5 1.8-10.9zm33.5 2.7c0-12-1-13.1-8.4-9.7-7.2 3.4-7.5 6.1-0.8 7.7 3 0.7 3.8 1.5 2.2 2.5-4.1 2.5-2.6 6.8 2.3 6.8 4.2 0 4.7-0.8 4.7-7.3zm-48.5-3.2c0-5.1-7.6-15.8-12.7-17.7-9.4-3.6-22-5.5-26.1-4-6.6 2.5 11.2 21 20.4 21.2 3.5 0 8 0.8 10.1 1.7 5.8 2.5 8.3 2.1 8.3-1.2zm41.5-10c9.2-7.2 7.7-23.9-1.9-21.5-2.8 0.7-6.4 2.5-8.1 4-1.7 1.5-6.1 3.2-9.8 3.9-6.4 1-8.9 4.6-4.9 7.1 2.6 1.6 17.1-2.6 21-6.1 1.8-1.6 3.8-2.4 4.4-1.7 1.8 1.7-6.9 8.4-12.8 9.7-4.9 1.1-6.6 4.3-3.9 7.1 2.5 2.5 11.4 1.1 16-2.5zm-81-13.8c1-1.1-9.1-10.1-15.2-13.6-6.3-3.6-22.4-3-27.4 1.1l-4.4 3.5 9.3 4.2c5.1 2.3 11.3 4.9 13.9 5.8 4.6 1.5 22 0.7 23.8-1zm26.5-1.2c0-3.4-5.9-13.5-10-17.1-6.8-5.8-19.9-13.1-21.3-11.8-3.3 3.4-1.1 16.1 3.7 20.9 6.3 6.3 27.6 12.5 27.6 8zm-99.1-4.2l4.1-4.4-4.5-4.2c-5.9-5.5-11.2-4.5-12 2.4-1.2 11 5 14.1 12.4 6.2zm140.1-1.2c13-3.6 17.2-9.6 7.7-11-7.4-1-30.1 7.1-30.1 10.8 0 4.6 2.2 6.1 6.5 4.7 2.1-0.6 9.2-2.7 15.9-4.5zm-109.1-9.7c5.8-2.7 5.9-4.3 0.6-8-4.6-3.2-28.4-4.1-30.2-1.2-5.1 8.1 16.9 15 29.6 9.2zm97.1-0.5c5.1-1.5 11.7-3 14.8-3.3 6.1-0.6 6.8-3.3 1.5-6.2-1.8-1-6-3.7-9.3-6-6.3-4.4-12.6-5.5-14.6-2.3-1.6 2.5-10.9 2.3-13.5-0.4-3.1-3-10.9 0.7-12.6 6-2.3 7.3 2.6 9.8 11.3 5.7 8.5-4.1 26.1-7.1 24.3-4.2-0.6 1.1-5.7 2.9-11.3 4-10.4 2.2-13.3 4.1-11.2 7.5 1.6 2.6 9.9 2.3 20.6-0.8zm-66.3-4c0-9.9-15.7-19.7-21.8-13.6-3.6 3.6 2.9 14.7 8.7 14.7 2.6 0 6 0.8 7.5 1.8 4.4 2.9 5.6 2.2 5.6-2.9zm31.1-12.8c4.3-3.6 4.8-5 2.9-6.9-3.6-3.7-18.7 5.7-16 10 1.7 2.8 8 1.4 13.1-3.1zm-12.3-3.9c3-1.6 5.5-4.1 5.5-5.6 0-3.2-4.8-3.7-6.7-0.6-0.8 1.2-4.2 1.6-8.9 1-7.5-1-14.3 1-14.3 4.3 0 0.9 3.6 2 8 2.4 4.3 0.4 8.6 0.8 9.4 1 0.8 0.2 3.9-0.9 7-2.5zm-49.6-0.7c1.9-3.1-1.7-3.7-5.4-0.9-3.5 2.5-3.5 2.6 0.4 2.6 2.1 0 4.4-0.8 5-1.7zm86.3-0.6c-0.5-1.3-1.9-2.4-3.3-2.4-1.4 0-2.8 1.1-3.3 2.4-0.4 1.3 0.9 2.3 3.3 2.3 2.4 0 3.7-1 3.3-2.3zm-174.9-26.2l19.3 0.1c0.1 0-4 9.9-4 14.8 0 11.6 13.2 23.2 13.2 34.7 0 11.7-12 23.2-12 34.8 0 11.6 12 23.2 12 34.7 0 11.6-12 23.2-12 34.7 0 11.6 12 23.1 12 34.6 0 11.7-12 23.3-12 34.8 0.1 11.6 12.1 23.2 12.1 34.6 0 11.7-12 23.3-12 34.8 0 11.6 12.1 23.3 12.1 34.7 0 3.5-1.8 8-3 10.8-7.2-3.1-12.5-5.8-19.8-10.4 1.2-11.8-9.5-24.4-9.9-35.1-0.1-11.7 12-23.2 12-34.7 0-11.7-12-23.2-12-34.7 0-11.7 12-23.2 12-34.8 0-11.6-12-23.1-12-34.6 0-11.7 12-23.2 12-34.7 0-11.7-12-23.3-12-34.7 0-11.7 12-23.3 12-34.7 0-11.7-12-23.3-12-34.8 0-5 2.8-9.6 4-14.8zm-27.7 0.1h20.5c0.8 0-4 9.8-4 14.8 0 11.5 12 23.1 12 34.7 0 11.6-12 23.1-12 34.7 0 11.6 12 23.2 12 34.7 0 11.6-12 23.2-12 34.7 0 11.7 12 23.2 12 34.7 0 11.7-12 23.3-12 34.8 0 11.6 12 23.2 12 34.6 0 11.7-12.2 23.3-12 34.7 0.2 10.6 10.6 26.7 9.5 30-2.8-2.3-7-4.8-16.8-14.5-9.8-9.6-10.6-11.6-11.1-12.7-0.4-0.8-2.6-4.6 0.7-11.9 3.5-7.7 9.1-18.9 9.1-25.6 0-11.6-12-23.2-12-34.7 0-11.6 12-23.2 12-34.6 0-11.7-12-23.3-12-34.8 0-11.6 12-23.2 12-34.7 0-11.6-11.9-23.2-11.9-34.6 0-11.7 12-23.3 12-34.8 0-11.6-12-23.2-12-34.7 0-4.9 2.8-10 4-14.8zm-33.2 206.9c0-87 0.2-206.9 0.2-206.9h25.8c0.9 0-4 9.8-4 14.8 0 11.5 12 23.1 12 34.7 0 11.6-12 23.1-12 34.7 0 11.6 12 23.2 12 34.7 0 11.6-12 23.2-12 34.7 0 11.7 12 23.2 12 34.8 0 11.6-12.1 23.2-12.1 34.7 0 11.6 12.4 23.2 12.4 34.6 0 3.7-2.4 10.5-7.9 21.5-2.3 4.8-1.8 7.5-1.8 7.4-0.1-0.1-18.5-24.4-23.2-60-1.3-8.7-1.5-13-1.4-19.7z"/>
			<g id="g3192">
				<path id="path3081" fill-rule="evenodd" class="s3" d="m86.9 92h-13.2l-10.7 17.2h-12.1l12.3-18.9q-10.7-2.8-10.7-10.9 0-6 5.6-9.4 5.5-3.5 14.7-3.5h26.5v42.7h-12.4zm0-18.2h-12.4q-4.6 0-6.9 1.4-2.3 1.5-2.3 3.9 0 2.4 2.4 4.1 2.4 1.7 7.6 1.7h11.6z"/>
				<path id="path3083" class="s3" d="m170 109.2h-10.6v-36.2l-15.3 36.2h-6.9l-15.3-36.3v36.3h-10.4v-42.7h17.9l11.3 26.9 11.3-26.9h18z"/>
				<path id="path3085" fill-rule="evenodd" class="s3" d="m182.4 109.2v-42.7h38.1v7.3h-25.8v9.5h9.1q7.7 0 12.3 1 4.7 1 7.6 4.3 3 3.2 3 7.5 0 5.8-5.1 9.4-5.2 3.7-14.9 3.7zm12.3-7.7h10.7q8.8 0 8.8-5.6 0-2.4-1.9-3.9-1.9-1.5-8-1.5h-9.6z"/>
				<path id="path3087" fill-rule="evenodd" class="s3" d="m257.8 109.1q-12 0-18.6-6.2-6.7-6.2-6.7-15.3 0-8.9 7.1-15.1 7-6.1 18.7-6.1 11.7 0 18.5 6.2 6.8 6.1 6.8 15.1 0 9.5-7.1 15.5-7 5.9-18.7 5.9zm0.1-7q5.2 0 8.8-3.1 3.7-3 3.7-11.3 0-6.8-3.1-10.5-3-3.7-9.2-3.7-12.4 0-12.4 14.4 0 7.1 3.2 10.6 3.2 3.6 9 3.6z"/>
				<path id="path3089" fill-rule="evenodd" class="s3" d="m309.7 75.8l-13.9 33.4h-10.7l18.5-42.7h14.7l18.4 42.7h-12.8l-14.2-33.4m0 0"/>
			</g>
			<g id="text3109">
			</g>
			<g id="g4082">
				<path id="path3987" class="s3" d="m38.4 144q1.3-0.1 1.4-0.2 0.2-0.1 0.3-1.4l0.1-0.6q0.1-0.3 0.1-0.5 0.3-0.1 0.6-0.1 0.1 0.6 0.1 0.8l-0.1 2.3q-0.1 0.4-0.1 2.3 0 0.7 0.2 3.2-0.3-0.1-0.6-0.1-0.2-0.5-0.3-1.6-0.1-0.9-0.3-1.1-0.3-0.2-1.3-0.2h-0.9-3.2-1.7-3l-3-0.1-2.6 0.1q-3.9 0-4.2 0.2-0.3 0.2-0.5 1.4-0.3 1.3-0.4 1.6-0.2 0.2-0.5 0.2-0.1 0-0.2 0 0-0.1 0-0.1 0-0.1 0-0.2 0.4-2 0.4-4 0-2.4-0.5-5.3 0.3 0 0.4 0 0.1 0 0.3 0 0.3 0.4 0.4 1.7 0.2 1.7 1.5 1.7h2.6l0.6 0.1h0.8l12.3-0.1-7.5-6.7q-1-0.8-2.4-2.1-1.5-1.3-3.4-2.8l-1.8-1.4q-1.2 0-1.7 0.1-0.5 0.2-0.6 0.4-0.1 0.2-0.3 1.1-0.3 1.3-0.4 1.6-0.2 0.2-0.5 0.2-0.1 0-0.2 0 0-0.1 0-0.1 0-0.1 0-0.2 0.4-2 0.4-4 0-2.4-0.5-5.3 0.3 0 0.4 0 0.1 0 0.3 0 0.3 0.4 0.4 1.7 0.2 1.7 1.5 1.7h2.6l0.6 0.1h0.8l1.8-0.1h2 6.1q2.8 0 3.8 0 0.9 0 1.1-0.1 0.3-0.1 0.3-0.2 0.1-0.1 0.2-1.3l0.1-0.6q0.1-0.3 0.1-0.5 0.3-0.1 0.6-0.1 0.1 0.6 0.1 0.7l-0.1 2.3q-0.1 0.5-0.1 2.3 0 0.8 0.2 3.2-0.3 0-0.6 0-0.2-0.5-0.3-1.6-0.1-1-0.4-1.1-0.2-0.2-1.2-0.2h-0.9-3.2-1.7-3l-3-0.1-3.3 0.1 3.9 3.2 2.7 2.5 3.7 3.2q2.5 2.2 4.7 4.1z"/>
				<path id="path3989" fill-rule="evenodd" class="s3" d="m19.4 177q-0.2 0.6-0.2 0.9-0.2 0.6-0.4 0.7-0.3 0.1-1.8 0.1-1.9 0.2-3.7 0.8-0.1-0.2-0.1-0.3 0-0.4 0.7-0.8 2.5-1.1 3.3-1.9 0.8-0.8 1.1-2.4 0.2-1.5 0.2-8.7v-2.8-1.3q-0.1-2.1-0.4-2.9-0.4-0.7-1-1.4-0.6-0.6-3.1-1.7-0.7-0.3-0.7-0.7 0-0.1 0.2-0.3 2.3 0.7 4.2 0.8 1 0 1.2 0.1 0.3 0.1 0.3 0.4v0.2q0 0.1 0 0.3 0 1.3 0.4 1.8 0.5 0.5 2.1 1.2 1.7 0.7 5.9 2.2l1.1 0.4 3.6 1.4 6.6 2.4q1.7 0.6 3.1 1.1l0.1 0.7q0 0.1-0.1 0.4-1.3 0.7-6.9 2.7l-10.4 3.8q-1.9 0.6-3 1.1-1.2 0.5-1.5 0.6-0.4 0.2-0.8 1.1zm0.2-4.1q0.3 0.1 0.5 0.1 0.5 0 2.3-0.7l2.7-1q6.4-2.2 9.9-3.7 0.7-0.3 1.9-0.8 1.1-0.3 1.1-0.4-2.7-1.4-7.3-2.8l-1.1-0.4-7.5-2.4q-0.8-0.3-1-0.4-0.9-0.3-1.3-0.3-0.2 0-0.2 0.3v0.7q0 0.1 0 0.5-0.1 0.3-0.1 2v4.9 3z"/>
				<path id="path3991" fill-rule="evenodd" class="s3" d="m19 182.5q0.2 0.2 0.2 0.4v0.4q0 0.2 0 0.5 0.1 1.3 0.2 1.6 0.4 0.6 1.2 1 1.8 0.9 5.1 2.1 1.5 0.5 1.9 0.7 1 0.4 2.2 0.8l4.6 1.7q1.1 0.3 5 1.8 1 0.4 2.6 0.9l0.1 0.5-0.1 0.6q-1.5 0.8-3.2 1.4-0.9 0.3-2.7 1l-7.2 2.7-3.9 1.4q-3.4 1.1-4.2 1.5-0.7 0.3-1 0.6 0 0.1-0.2 0.7-0.1 0.6-0.2 0.8-0.2 0.8-0.4 1.1-0.2 0.1-0.3 0.1-0.1 0-0.2-0.1-0.1-0.5-0.1-0.8 0-0.8 0.1-3.1l0.1-1.8-0.1-2.1q0-0.2 0-0.4 0.1-0.3 0.1-0.4v-0.4q0-0.2 0.1-0.3 0.2 0 0.5 0 0.1 0.3 0.1 0.4l0.1 1.9q0 0.7 0.2 1.1 0.3 0.1 0.5 0.1 0.3 0 1.6-0.5 0.9-0.3 1.7-0.5 0.8-0.3 5.2-1.9 0.1-0.7 0.1-1.3v-3.7-1.1q0-0.6-0.1-1.4-0.5-0.2-0.8-0.3l-4.8-1.5q-2.8-1-3-1-0.2 0-0.6 0.2-0.1 0.3-0.2 0.9l-0.2 2.4q-0.1 0.2-0.3 0.2 0 0-0.2 0 0-0.8 0-1.2 0-1.4 0.1-3.3 0-0.9 0-1.2 0-0.4 0-1.3-0.1-0.6-0.1-0.9 0-0.4 0.1-1.1h0.1q0.1 0 0.3 0.1zm10.6 8.4q-0.1 1.9-0.1 4.3 0 1.3 0 2.4 0.7-0.2 1.3-0.4 3.1-1.2 3.4-1.3l4.1-1.6 0.3-0.2q-0.2-0.1-1.8-0.7-2.8-1.2-4.3-1.7-0.7-0.2-1.4-0.4-0.6-0.3-0.9-0.3-0.3-0.1-0.6-0.2z"/>
				<path id="path3993" fill-rule="evenodd" class="s3" d="m29.7 241.7q1.8 0 3.2 0.5 1.4 0.4 3 1.4 1.6 1 2.7 2.5 1.1 1.4 2 4 0.6 1.8 0.6 4.5 0 1.9-0.5 3.6-0.5 1.8-1.4 3.2-0.9 1.5-2.7 2.9-1.3 1-2.7 1.5-2 0.7-4 0.7-2.3 0-3.8-0.5-1.6-0.4-3.1-1.5-1.1-0.8-2.6-2.8-1.1-1.3-1.7-3.3-0.6-2-0.6-4.3 0-2.3 0.5-4.2 0.6-1.8 1.4-3 0.8-1.2 2.3-2.5 1.5-1.3 3.4-2 1.8-0.7 4-0.7zm-11 12.2q0 1.5 0.5 3.1 0.4 1.6 1.3 2.8 1 1.3 2.2 2 1.2 0.7 3.2 1.1 1.9 0.4 3.8 0.4 2.4 0 4.7-0.7 1.8-0.6 3.2-1.8 1.4-1.2 2.1-3 0.8-1.7 0.8-3.7 0-1.6-0.5-3.1-0.5-1.5-1.4-2.5-0.8-1-2.3-1.8-1.5-0.9-3.3-1.3-1.8-0.5-3.2-0.5-1.5 0-3.3 0.5-1.8 0.4-3.2 1.2-1.4 0.8-2.4 1.9-1 1.1-1.6 2.5-0.6 1.4-0.6 2.9z"/>
				<path id="path3995" class="s3" d="m38.3 272.8l2.7 0.8q0.5 0 0.6 0.2 0.2 0.1 0.2 0.2 0 0.4-0.8 0.8-0.5 0.3-0.7 0.5-0.1 0.2-0.2 0.5l0.1 0.2-0.1 0.8-0.1 4.1 0.1 4.9v1.4 2.8q0 0.1 0 0.4-0.1 1.2-0.1 1.5 0 0.3 0.1 0.4 0.1 0.1 1.2 0.6 0.5 0.2 0.5 0.6 0 0.1 0 0.3-0.4 0.1-0.7 0.1h-0.7-1.5q-0.5 0-3.5-0.1-0.2 0-0.3-0.1-0.1-0.2-0.1-0.3 0-0.1 0.1-0.2 0.1-0.2 0.8-0.3 1.6-0.4 2.3-0.9 0.4-0.3 0.6-1 0.2-0.7 0.2-3.2 0-2-0.1-2.9-0.7-0.1-1.3-0.1l-10.9 0.2q-0.6 0-2.4-0.1h-2.4-1.3q-0.6 0-0.8 0.2-0.3 0.2-0.6 1.2-0.4 1.6-0.5 2.1 0 0.4-0.1 0.6h-0.5l0.1-2.5q0-2.1 0-3.1l-0.1-2.6-0.1-1.9q0-0.8 0-0.9l0.2-0.3q0.4 0.1 0.5 0.2 0.1 0.1 0.2 0.6 0.1 0.8 0.3 1.8 0.3 1 0.6 1.3 0.1 0.2 0.5 0.2 0.8 0.2 3.1 0.2h2.9l6.6-0.1 1.4-0.1h4.7q0.1-1.1 0.1-2.8 0-2.5-0.3-3.1-0.5-0.8-2.9-2.5-0.9-0.6-0.9-1v-0.2q0.1-0.1 0.2-0.1 0.2 0 1.3 0.3 1.3 0.4 1.8 0.4z"/>
				<path id="path3997" fill-rule="evenodd" class="s3" d="m19.4 349.2q-0.2 0.6-0.2 0.9-0.2 0.7-0.4 0.7-0.3 0.1-1.8 0.1-1.9 0.3-3.7 0.8-0.1-0.2-0.1-0.3 0-0.4 0.7-0.7 2.5-1.2 3.3-2 0.8-0.8 1.1-2.3 0.2-1.6 0.2-8.8v-2.8-1.3q-0.1-2.1-0.4-2.8-0.4-0.8-1-1.4-0.6-0.6-3.1-1.8-0.7-0.3-0.7-0.6 0-0.2 0.2-0.4 2.3 0.7 4.2 0.8 1 0 1.2 0.1 0.3 0.1 0.3 0.4v0.2q0 0.2 0 0.4 0 1.2 0.4 1.7 0.5 0.6 2.1 1.3 1.7 0.7 5.9 2.2l1.1 0.4 3.6 1.3 6.6 2.5q1.7 0.6 3.1 1l0.1 0.7q0 0.2-0.1 0.4-1.3 0.7-6.9 2.8l-10.4 3.8q-1.9 0.6-3 1-1.2 0.5-1.5 0.7-0.4 0.2-0.8 1zm0.2-4q0.3 0 0.5 0 0.5 0 2.3-0.7l2.7-0.9q6.4-2.3 9.9-3.8 0.7-0.3 1.9-0.7 1.1-0.4 1.1-0.4-2.7-1.4-7.3-2.9l-1.1-0.3-7.5-2.5q-0.8-0.2-1-0.3-0.9-0.4-1.3-0.4-0.2 0-0.2 0.3v0.7q0 0.1 0 0.5-0.1 0.4-0.1 2.1v4.9 2.9z"/>
				<path id="path3999" class="s3" d="m42.7 351.7q0.1 0.3 0.1 0.4 0.1 0.5 0.2 1.9 0.1 0.7 0.2 1 0 0.4 0.3 1.6l0.6 2.9q0.3 1.2 0.6 2.7 0.4 2.7-0.1 4.5-0.5 1.7-2.1 2.8-1.5 1.2-3.1 1.4-2.7 0.5-5-1.1-2.3-1.6-2.8-4.9-0.1-0.9-0.1-1.5 0.1-0.6 0.5-1.5 0.2-0.4 0.4-0.5 0.2 0.1 0.2 0.2 0.1 0.2 0 0.5-0.1 0.6 0 1.5 0.3 1.4 1.1 2.5 0.9 1.1 2.2 1.6 1.4 0.4 2.8 0.2 1.3-0.2 2.5-1.1 1.2-0.9 1.8-2.1 0.3-0.6 0.4-1.9 0.1-1.3 0-2-0.3-2.2-0.7-2.5h-0.3l-1.9 0.4h-0.4q-0.4 0-1.4 0.2-3.6 0.6-4.4 0.8l-1 0.1-7.9 1.5q-0.2 0.1-0.6 0.1-0.5 0-0.9 0.1-0.8 0.1-1.2 0.3-0.1 0.5-0.2 2.5-0.1 1-0.1 1.1 0 0.1-0.2 0.3-0.2 0-0.3-0.1-0.1-0.1-0.2-0.5 0-0.2-0.1-1 0-1.5-0.2-2.3l-0.6-3.1-0.2-1.8q0-0.2-0.2-1l0.4-0.1 0.8 2.2q0.3 0.5 0.5 0.6 0.2 0.2 0.9 0 0.2 0 0.7 0 0.4-0.1 1-0.2 2.1-0.3 8.7-1.5 3.1-0.6 6.4-1.1l0.3-0.1q1.2-0.2 1.5-0.6 0.5-0.7 0.4-3.4 0.2-0.1 0.3-0.1 0.2 0 0.4 0.1z"/>
				<path id="path4001" class="s3" d="m25.7 377.6q0.2 0.1 0.2 0.2 0.2 0.3 0.5 1 0.6 1.5 0.9 1.9 0.4 0.1 1-0.1l1.2-0.4 4.3-1.4 2-0.6 4.2-1.4 4.7-1.6q1.7-0.6 1.9-0.9 0.2-0.4-0.3-1.9-0.2-0.6-0.2-1.1 0-0.3 0.2-0.3 0.1-0.1 0.3-0.1 0.2 0.2 0.2 0.3 0.1 0.2 0.2 0.6 0.2 1 0.6 2l0.4 1.2 0.9 3q0.7 2.2 1.2 3.4 0.4 1.3 0.6 1.7 0.1 0.4 0.5 1.9l0.8 2.4v0.3l0.5 1.4v0.2q-0.1 0.1-0.2 0.2-0.3 0-0.8 0.1-0.5 0.1-0.6 0.1-1.7 0.6-2.9 1.1-0.1 0-0.2 0 0-0.2 0-0.4 0.2-0.3 0.9-0.8 0.7-0.6 1.6-1.6 0.5-0.6 0.6-0.9 0.1-0.3-0.2-1 0-0.2-0.4-1.5-0.1-0.4-0.3-0.8l-1.6-4.7-0.1-0.4q-0.3-0.9-0.6-1.1-0.5-0.1-2.5 0.5-0.2 0.1-4 1.4l-2.3 0.8q0 0.2 0.1 0.4l0.1 0.3q0.1 0.3 0.2 0.8 0.3 0.9 0.4 1.2 0 0.2 0.1 0.3 0.7 1.8 1.6 4.7 0.4 0.8 0.7 0.9 0.4 0.1 1.7-0.1 1.3-0.3 1.6 0 0.1 0.3 0 0.5-0.1 0.1-0.2 0.1-0.1 0-0.4 0.1-0.6 0.1-3.9 1.2-0.9 0.2-1.9 0.7-1.1 0.4-1.1 0.4-0.2 0.1-0.5 0.1-0.1-0.1-0.1-0.2v-0.1q0.4-0.4 1.3-1 1.5-1 1.8-1.6 0.2-0.6-0.1-1.7-0.1-0.2-0.3-0.8-0.2-0.6-0.6-1.8l-0.4-1.1q-0.7-2.3-1.1-3l-0.5 0.1-3.1 1.1-1.9 0.6-1.9 0.6q-1.7 0.6-1.9 0.9-0.3 0.4 0 1.3l0.4 1q0 0.2 0.3 1.1 0.2 0.9 0.7 2.2 1 3.3 1.6 4.2 0.7 1 1.6 1.5 0.9 0.5 3.6 0.7 0.8 0.1 0.9 0.5 0 0.1 0 0.3-1.9 0.1-2.4 0.2-1.2 0.2-2.5 0.6-0.5 0.1-1 0l-0.1-0.4-1.6-4.7-0.6-2.1-1.7-5-0.7-2q-0.1-0.4-0.2-0.7-1.1-3-1.6-4.4-0.1-0.3 0-0.4 0-0.1 0.2-0.2z"/>
				<path id="path4003" fill-rule="evenodd" class="s3" d="m53.5 393.1l0.5-0.3q0.2 0.3 0.3 0.4l0.8 1.5q1.1 1.7 2.4 3.9 0.5 0.9 1.5 2.9 1.3 2.7 1.6 4.1 0.3 2.1-0.4 3.6-0.7 1.4-2.2 2.2-2.3 1.2-5.5-1.3l-0.2-0.1q0.4 2 0.1 3.5-0.2 1.5-1.1 2.6-0.6 0.9-2 1.6-2.4 1.2-5.3 0-2.9-1.2-4.8-4.9l-1.2-2.4-1.3-2.3q-1.6-3.1-1.9-3.6-0.2-0.6-0.5-1.1l0.2-0.1q0.2-0.1 0.3-0.1 0.2 0.1 0.4 0.3 1.4 1.8 1.6 1.9 0.3 0.2 0.7 0.1 0.7-0.1 3.3-1.4 0.3-0.1 0.6-0.3 1-0.6 1.2-0.7l1.6-0.8q4.2-2.1 7.2-3.8l3.1-1.6 0.4-0.2q-0.5-1.4-0.9-2.5-0.4-0.6-0.5-1.1zm-4.7 10.3q0.2 0.8 0.7 1.7 1.7 3.4 3.8 3.8 2.1 0.5 3.6-0.3 0.6-0.3 1.2-0.9 0.6-0.5 0.8-1.4 0.3-0.8 0.2-1.7-0.3-1.6-1-3-0.7-1.4-1.6-2.4-0.3 0.2-0.5 0.3-0.1 0-0.8 0.5-0.5 0.2-1 0.5l-1.9 0.9-1.1 0.6-2.2 1.2zm-8.7 9.1q0.9 1.5 2 2.3 0.5 0.3 1.4 0.7 1 0.3 2.1 0.2 1.1-0.1 2-0.5 0.6-0.4 1.4-1.1 0.8-0.7 1.2-1.7 0.4-1 0.3-2.5-0.2-1.4-1-2.9-1.4-2.8-1.7-3.1-0.4 0.1-0.5 0.2l-0.6 0.3-1.2 0.6-1.3 0.7q-3.7 1.9-4.3 2.4-0.6 0.5-0.7 1.4-0.1 1 0.9 3z"/>
				<path id="path4005" class="s3" d="m45.2 423.6l0.3-0.2q0.6 0.3 1.1 0.9 0.9 0.9 1.2 1.1 0.4 0.2 0.7 0.1 0.6-0.1 1.1-0.5l1-0.8 1.1-0.7 1.1-0.9q0.7-0.5 1.8-1.3 1.2-0.7 1.2-0.8l3.9-2.8q0.9-0.6 2-1.4 1.1-0.7 1.6-1 1.2-0.9 1.3-1.1 0.2-0.2 0.2-0.4-0.1-0.3-0.6-1.2-0.4-0.7-0.6-1 0.1-0.2 0.2-0.2 0.1-0.1 0.3-0.2 0.3 0.3 0.4 0.5l1 1.3q1 1.5 2.3 3 0.6 0.7 1.8 2.3-0.1 0.1-0.2 0.2-0.2 0.1-0.3 0.1-0.1 0-0.3-0.2-1.5-1.7-2-1.8-0.6-0.1-1.8 0.8-2.3 1.6-4.7 3.5l-1.3 1q0 0.1 1.2 2 0.3 0.5 0.4 0.6l1.5 2 1 1.4 2.7 3.6q0.5 0.6 0.7 0.7 2.5-1.7 4.8-3.4 2.2-1.6 2.6-2 0.2-0.2 0.1-0.4 0-0.1-0.8-1.7-0.1-0.2-0.3-0.5 0.2-0.2 0.5-0.4 0.4 0.4 0.5 0.6l0.6 1q0.9 1.3 1.8 2.6 0.6 0.8 2.2 2.7-0.3 0.2-0.6 0.3-0.6-0.4-1.2-1.1-0.4-0.5-0.7-0.7-0.4-0.1-1 0.3-0.2 0.1-0.3 0.3-0.5 0.3-0.7 0.5l-1.6 1.1-1 0.8-1.4 0.9-2.4 1.8-2.4 1.7q-0.7 0.5-2.1 1.6l-2 1.4q-0.9 0.7-1.2 1.2-0.2 0.2-0.1 0.5l0.6 1.3q0.4 1 0.4 1.3 0 0.3-0.2 0.4l-0.2 0.1-0.1-0.1q-0.1-0.1-0.1-0.2-0.8-1.8-2.1-3.5-1-1.3-1.4-1.8-0.5-0.6-2-2.1 0.1-0.2 0.2-0.3 0.1 0 0.3-0.1 0.6 0.2 1.4 1.1 0.6 0.7 1.3 0.8 0.4 0.1 0.9-0.3l2-1.5q1-0.6 1.1-0.7 1.2-0.9 3.5-2.6 0.1-0.2 0.1-0.3-0.1-0.5-2.8-3.8-0.5-0.6-0.8-0.9-0.2-0.4-1-1.5-0.7-1.1-1.4-2-0.4-0.5-0.6-0.9-0.5-0.6-0.6-0.7-0.2-0.3-0.4-0.3-0.2-0.1-0.6 0.2l-1 0.7q-0.2 0.2-2.7 1.9-0.5 0.3-0.8 0.6-2 1.4-2.5 2-0.3 0.3-0.3 0.6 0 0.2 0.5 1.3 0.4 0.7 0.5 1.2l-0.1 0.2q-0.1 0-0.1 0-0.2 0-0.3-0.2-0.1-0.1-0.2-0.3-0.1-0.1-0.4-0.6-0.5-0.7-1.2-1.9-0.5-0.7-0.8-1.3-0.7-0.9-2.3-2.8-0.2-0.4-0.4-0.7z"/>
				<path id="path4007" fill-rule="evenodd" class="s3" d="m70.3 439.2q1.3-1.3 2.6-1.9 1.3-0.7 3.2-1.2 1.8-0.4 3.6-0.2 1.8 0.3 4.2 1.5 1.7 0.9 3.7 2.8 1.3 1.3 2.2 2.9 0.9 1.6 1.3 3.2 0.4 1.7 0.1 4-0.2 1.6-0.9 3-0.9 1.8-2.3 3.2-1.6 1.7-3 2.5-1.4 0.7-3.2 1-1.4 0.3-3.9-0.1-1.7-0.2-3.5-1.2-1.9-0.9-3.5-2.6-1.7-1.6-2.6-3.3-0.9-1.7-1.2-3.1-0.3-1.4-0.1-3.4 0.1-2 1-3.8 0.8-1.7 2.3-3.3zm0.9 16.4q1.1 1 2.5 1.8 1.4 0.9 3 1.1 1.5 0.2 2.9-0.2 1.3-0.4 3-1.4 1.6-1.1 3-2.5 1.7-1.6 2.8-3.8 0.9-1.6 1-3.5 0.1-1.8-0.6-3.6-0.6-1.8-2-3.2-1.2-1.1-2.6-1.8-1.5-0.7-2.8-0.9-1.2-0.1-2.9 0.4-1.6 0.5-3.2 1.4-1.6 1-2.6 2-1 1-2 2.6-1 1.6-1.4 3.1-0.5 1.5-0.4 3.1 0 1.5 0.6 2.9 0.6 1.3 1.7 2.5z"/>
				<path id="path4009" class="s3" d="m112.7 462.1q-0.6 1.3-1.4 2.4-0.2 0.2-0.5 0.6-0.2-0.1-0.3-0.2-0.1 0-0.2-0.2 0.6-2.1-0.1-3.9-0.7-1.9-2.7-3.4-1.1-0.7-2-1-1.6-0.5-3.1-0.4-1.5 0-3 0.6-1.4 0.6-2.9 1.9-1.5 1.2-2.7 2.8-2.2 3-2.7 5.7-0.5 2.7 0.5 4.7 0.9 2 2.6 3.2l0.7 0.4q1.2 0.7 1.7 0.9 1.3 0.5 2.2 0.5 1 0.1 2.2-0.1 1.2-0.3 2.3-1l0.2 0.1q0.1 0.1 0.2 0.2-0.3 0.4-0.4 0.5-2.3 1.9-3.2 2.6-0.3-0.1-0.7-0.2-2.1-0.7-4.9-2.7-2.2-1.6-3.1-2.7-0.9-1.2-1.7-2.8-0.9-1.6-1.1-3.4-0.2-1.7 0.3-3.8 0.6-2.1 2-4 1.3-1.8 2.8-2.8 1.5-1 3.5-1.7 2-0.7 4.1-0.6 2 0.1 4 0.9 1.3 0.6 3.5 2.2 1.6 1.1 2.7 2.6 1 1.4 1.2 2.1z"/>
				<path id="path4011" class="s3" d="m114.3 463.8l1.8-2.1q0.3-0.4 0.5-0.5 0.2-0.1 0.3 0 0.3 0.1 0.3 1 0 0.6 0.1 0.8 0.1 0.3 0.4 0.5h0.2l0.6 0.4 3.7 2 4.4 2.2 1.3 0.6 2.4 1.2q0.2 0.1 0.4 0.3 1 0.6 1.3 0.7 0.2 0.1 0.4 0.1 0.1-0.1 1.1-0.8 0.4-0.4 0.7-0.2 0.1 0 0.3 0.2-0.1 0.3-0.2 0.6l-0.3 0.6-0.7 1.3q-0.3 0.5-1.7 3.1-0.1 0.2-0.2 0.3-0.2 0-0.4 0-0.1-0.1-0.1-0.3 0-0.1 0.1-0.8 0.4-1.6 0.3-2.4-0.1-0.6-0.6-1-0.5-0.5-2.8-1.6-1.8-1-2.6-1.3-0.4 0.6-0.7 1.1l-4.8 9.8q-0.3 0.6-1.2 2.1l-1 2.1-0.6 1.2q-0.3 0.5-0.2 0.9 0 0.3 0.8 0.9 1.2 1.1 1.7 1.5 0.2 0.1 0.4 0.3l-0.3 0.5-2.2-1.2q-1.8-0.9-2.7-1.5l-2.3-1-1.7-0.8q-0.7-0.4-0.9-0.5l-0.2-0.2q0.3-0.3 0.4-0.4 0.2 0 0.7 0.2 0.7 0.2 1.7 0.4 1 0.2 1.4 0.1 0.3 0 0.5-0.3 0.5-0.6 1.5-2.7l1.4-2.6 2.9-5.9 0.5-1.3 2.2-4.1q-1-0.7-2.5-1.4-2.3-1.2-2.9-1.2-1 0.1-3.6 1.4-0.9 0.6-1.3 0.4l-0.1-0.1q0-0.1 0-0.2 0.1-0.2 0.9-1 0.9-1.1 1.2-1.4z"/>
				<path id="path4013" class="s3" d="m135.5 474.5l1.5-2.3q0.2-0.5 0.4-0.6 0.2-0.1 0.3-0.1 0.3 0.1 0.5 1 0.1 0.6 0.2 0.8 0.2 0.2 0.5 0.4h0.2l0.7 0.3 3.9 1.3 4.7 1.5 1.3 0.5 2.6 0.8q0.2 0 0.4 0.1 1.2 0.5 1.4 0.6 0.3 0.1 0.5 0 0-0.1 0.9-1 0.4-0.4 0.7-0.3 0.1 0 0.3 0.2 0 0.3-0.1 0.6l-0.2 0.7-0.5 1.4q-0.2 0.5-1.2 3.3 0 0.2-0.1 0.3-0.3 0.1-0.4 0-0.1 0-0.2-0.2 0-0.1 0-0.8 0.2-1.7-0.1-2.5-0.2-0.5-0.8-0.9-0.6-0.4-2.9-1.1-1.9-0.7-2.9-0.9-0.2 0.7-0.4 1.2l-3.2 10.4q-0.2 0.7-0.9 2.4l-0.7 2.2-0.4 1.2q-0.2 0.6-0.1 0.9 0.2 0.3 1 0.9 1.4 0.8 1.9 1.1 0.3 0.1 0.4 0.3l-0.1 0.5-2.4-0.8q-1.9-0.7-2.9-1.1l-2.5-0.7-1.8-0.4q-0.7-0.3-0.9-0.4l-0.2-0.1q0.2-0.4 0.3-0.5 0.2-0.1 0.7 0 0.7 0.2 1.8 0.2 1 0.1 1.4-0.1 0.2-0.1 0.4-0.4 0.4-0.7 1.1-2.9l0.9-2.8 1.9-6.2 0.4-1.4 1.4-4.5q-1-0.4-2.6-1-2.4-0.7-3-0.6-1 0.2-3.4 1.9-0.8 0.7-1.2 0.6l-0.1-0.1q0-0.1 0-0.2 0-0.2 0.6-1.1 0.8-1.2 1-1.6z"/>
				<path id="path4015" fill-rule="evenodd" class="s3" d="m154.1 501.2q0.3-0.1 0.4 0h0.4q0.2 0 0.5 0.1 1.3 0.1 1.6 0 0.6-0.3 1.2-1 1.2-1.6 2.8-4.7 0.8-1.5 1-1.8 0.6-0.9 1.2-2l2.3-4.3q0.6-1 2.7-4.7 0.5-0.9 1.3-2.4h0.5l0.6 0.1q0.5 1.6 0.8 3.4 0.2 1 0.6 2.9l1.5 7.5 0.8 4.1q0.6 3.5 0.8 4.3 0.2 0.8 0.5 1.1 0.1 0.1 0.6 0.3 0.6 0.2 0.8 0.3 0.7 0.4 1 0.6 0.1 0.2 0 0.3 0 0.1-0.1 0.3-0.5-0.1-0.7-0.2-0.9-0.1-3.2-0.5l-1.7-0.3-2.1-0.3q-0.2-0.1-0.4-0.1-0.2-0.1-0.4-0.1l-0.4-0.1q-0.1 0-0.3-0.1 0-0.3 0.2-0.5 0.2 0 0.4 0l1.8 0.1q0.7 0.1 1.1 0 0.2-0.3 0.2-0.4 0-0.4-0.2-1.7-0.2-0.9-0.3-1.8-0.1-0.8-1-5.4-0.7-0.2-1.2-0.3l-3.8-0.6-1.1-0.2q-0.6-0.1-1.3-0.1-0.3 0.5-0.4 0.7l-2.3 4.6q-1.4 2.5-1.4 2.8 0 0.2 0.1 0.5 0.3 0.2 0.9 0.4l2.3 0.6q0.2 0.2 0.2 0.3 0 0.1-0.1 0.2-0.8-0.1-1.2-0.1-1.4-0.3-3.2-0.6-0.9-0.2-1.3-0.3-0.3 0-1.2-0.1-0.6-0.1-0.9-0.1-0.4-0.1-1-0.3v-0.1q0-0.1 0.1-0.3zm9.9-9.1q1.9 0.4 4.2 0.8 1.4 0.2 2.4 0.3 0-0.7-0.2-1.3-0.6-3.2-0.7-3.6l-0.9-4.2-0.2-0.4q-0.1 0.2-1 1.7-1.5 2.5-2.3 4-0.3 0.6-0.7 1.2-0.3 0.7-0.4 0.9-0.1 0.3-0.3 0.5z"/>
			</g>
			<g id="g3258">
				<g id="g4206">
					<g id="g4247">
						<path id="path4017" class="s3" d="m199.2 497.1h-10.7v-2.5h10.7z"/>
						<g id="g4227">
							<path id="path3179" fill-rule="evenodd" class="s3" d="m209 495.3q-0.2-1.8 0-3.3 0.2-1.5 0.9-3.3 0.8-1.8 2-3.2 1.3-1.3 3.7-2.6 1.6-0.9 4.3-1.3 1.9-0.3 3.7-0.1 1.8 0.2 3.4 0.9 1.5 0.7 3.2 2.3 1.2 1.1 2 2.5 0.9 1.8 1.2 3.9 0.4 2.4 0.2 4-0.2 1.6-1 3.3-0.7 1.3-2.4 3.2-1.2 1.2-3 2.2-1.9 0.9-4.2 1.3-2.3 0.4-4.2 0.1-1.8-0.2-3.2-0.8-1.3-0.6-2.8-2-1.5-1.3-2.5-3.1-0.9-1.8-1.3-4zm13.8 9.2q1.4-0.3 3-0.9 1.5-0.7 2.5-1.9 1.1-1.2 1.6-2.5 0.5-1.4 0.6-3.4 0.1-2-0.2-3.9-0.4-2.5-1.4-4.7-0.8-1.7-2.3-3-1.4-1.2-3.2-1.7-1.9-0.5-3.8-0.2-1.6 0.3-3 1.1-1.5 0.8-2.3 1.7-0.8 1-1.4 2.7-0.6 1.7-0.8 3.6-0.1 1.9 0.1 3.3 0.2 1.5 0.9 3.3 0.7 1.8 1.7 3 1 1.3 2.2 2.2 1.3 0.8 2.8 1.2 1.4 0.3 3 0.1z"/>
							<path id="path3181" class="s3" d="m233.7 481.4l-0.2-2.7q-0.1-0.5-0.1-0.7 0.1-0.2 0.3-0.2 0.3-0.1 0.9 0.4 0.5 0.5 0.7 0.5 0.2 0.1 0.6 0h0.1l0.8-0.2 3.9-1.3 4.7-1.6 1.3-0.5 2.6-0.9q0.1-0.1 0.4-0.1 1.2-0.3 1.4-0.4 0.3-0.1 0.4-0.3 0-0.1 0.1-1.3 0.1-0.6 0.4-0.7 0.1 0 0.4 0 0.2 0.3 0.2 0.5l0.3 0.7 0.5 1.4q0.1 0.5 1 3.4 0.1 0.1 0.1 0.3-0.2 0.2-0.3 0.2-0.1 0.1-0.3 0-0.1-0.1-0.5-0.7-0.8-1.4-1.6-1.9-0.4-0.3-1.1-0.2-0.7 0-3.1 0.8-1.9 0.7-2.8 1 0.2 0.7 0.4 1.3l3.7 10.3q0.2 0.6 0.7 2.3l0.8 2.2 0.4 1.2q0.2 0.6 0.5 0.8 0.3 0.2 1.2 0.1 1.7-0.1 2.3-0.2 0.3-0.1 0.5-0.1l0.2 0.5-2.4 0.8q-1.9 0.6-3 0.9l-2.3 1-1.8 0.7q-0.7 0.2-0.9 0.2h-0.3q-0.1-0.4 0-0.5 0.1-0.2 0.6-0.4 0.6-0.3 1.5-0.9 0.8-0.6 1.1-1 0.1-0.2 0-0.6-0.1-0.7-0.8-2.9l-1-2.8-2.2-6.2-0.5-1.3-1.6-4.4q-1 0.2-2.7 0.8-2.4 0.8-2.8 1.3-0.6 0.8-1.5 3.6-0.2 1-0.6 1.1l-0.2 0.1q-0.1-0.1-0.1-0.2-0.1-0.2-0.1-1.3-0.1-1.4-0.2-1.9z"/>
							<path id="path3183" class="s3" d="m272 465.1q-0.6-1.1-0.9-1.1-0.2-0.1-1.3 0.3l-0.6 0.2q-0.3 0.1-0.5 0.2-0.2-0.2-0.4-0.5 0.5-0.4 0.7-0.4l2.1-1q0.4-0.1 2.1-1 0.6-0.3 2.7-1.6 0.2 0.3 0.2 0.6-0.3 0.4-1.2 1-0.8 0.5-0.9 0.8-0.1 0.3 0.4 1.2l0.4 0.8 1.5 2.9 0.7 1.5 1.4 2.7 1.3 2.7 1.3 2.2q1.7 3.5 2.1 3.7 0.3 0.1 1.5-0.3 1.2-0.3 1.5-0.3 0.3 0.1 0.5 0.3 0 0.1 0 0.3-0.1 0-0.1 0-0.1 0-0.2 0.1-1.9 0.5-3.7 1.5-2.1 1-4.5 2.8-0.1-0.2-0.2-0.3-0.1-0.1-0.1-0.3 0.3-0.5 1.3-1.2 1.5-0.9 0.9-2.1l-1.2-2.3-0.2-0.5-0.4-0.7-5.6-11-2.6 9.7q-0.3 1.3-0.8 3.2-0.5 1.9-0.9 4.2l-0.5 2.3q0.6 1.1 0.9 1.4 0.4 0.4 0.6 0.4 0.2 0 1.2-0.3 1.2-0.3 1.5-0.3 0.3 0 0.5 0.3 0 0.1 0 0.2 0 0.1-0.1 0.1 0 0-0.2 0.1-1.8 0.5-3.7 1.5-2.1 1-4.5 2.7-0.1-0.1-0.2-0.3 0-0.1-0.1-0.2 0.3-0.5 1.3-1.2 1.5-1 0.9-2.1l-1.2-2.3-0.2-0.6-0.4-0.7-0.8-1.5-1-1.9-2.7-5.3q-1.3-2.6-1.7-3.5-0.5-0.8-0.7-0.9-0.2-0.2-0.3-0.2-0.1 0-1.2 0.4l-0.6 0.2q-0.3 0.1-0.5 0.2-0.2-0.2-0.4-0.5 0.5-0.4 0.7-0.5l2.1-0.9q0.4-0.2 2.1-1 0.6-0.4 2.7-1.6 0.2 0.3 0.3 0.6-0.4 0.4-1.3 1-0.8 0.5-0.9 0.8 0 0.3 0.4 1.2l0.4 0.7 1.5 3 0.7 1.4 1.4 2.8 1.4 2.6 1.5 3 1.1-5 1-3.6 1.2-4.7q0.8-3.2 1.5-6.1z"/>
							<path id="path3185" fill-rule="evenodd" class="s3" d="m278.3 459.3l-0.3-0.4q0.2-0.2 0.3-0.3l1.3-1.1q1.6-1.3 3.6-2.9 0.8-0.7 2.6-1.9 2.4-1.8 3.8-2.3 2-0.6 3.6-0.1 1.5 0.4 2.5 1.7 1.5 2.1-0.5 5.7l0.1 0.2q1.8-0.7 3.3-0.7 1.5 0.1 2.8 0.7 1 0.5 1.9 1.8 1.5 2.1 0.8 5.2-0.7 3-4.1 5.5l-2.1 1.5-2.1 1.7q-2.8 2.1-3.3 2.4-0.5 0.4-1 0.7l-0.1-0.2q-0.2-0.1-0.1-0.3 0-0.1 0.2-0.3 1.5-1.7 1.6-2 0.2-0.3 0-0.7-0.2-0.7-1.9-3-0.2-0.2-0.4-0.6-0.7-0.9-0.9-1l-1-1.5q-2.8-3.8-4.9-6.5l-2.1-2.8-0.2-0.4q-1.4 0.7-2.3 1.3-0.6 0.5-1.1 0.6zm10.9 3.1q0.8-0.3 1.6-0.9 3.1-2.2 3.2-4.4 0.1-2.1-0.9-3.5-0.4-0.6-1-1-0.7-0.5-1.5-0.7-0.9-0.1-1.8 0.2-1.5 0.5-2.8 1.4-1.2 0.9-2.1 1.9 0.2 0.3 0.3 0.5 0.1 0.1 0.7 0.8 0.3 0.4 0.6 0.8l1.2 1.7 0.8 1.1 1.5 1.9zm10.4 7.2q1.3-1.1 1.9-2.3 0.3-0.5 0.5-1.6 0.1-1-0.1-2.1-0.3-1-0.9-1.8-0.4-0.6-1.2-1.3-0.9-0.6-1.9-0.9-1.1-0.2-2.5 0.2-1.4 0.4-2.7 1.3-2.6 1.9-2.8 2.2 0.2 0.4 0.3 0.5l0.4 0.5 0.7 1.1 0.9 1.2q2.5 3.3 3.1 3.9 0.5 0.5 1.5 0.5 1-0.1 2.8-1.4z"/>
							<path id="path3187" fill-rule="evenodd" class="s3" d="m308.4 463.6q0.1-0.3 0.2-0.4l0.3-0.3q0.1-0.1 0.3-0.3 0.9-1 1-1.3 0.2-0.7-0.1-1.6-0.6-1.9-2.2-5-0.7-1.5-0.8-1.8-0.4-1.1-1-2.2l-2.1-4.4q-0.5-1.1-2.2-4.9-0.4-0.9-1.2-2.5l0.3-0.4 0.5-0.4q1.6 0.5 3.2 1.3 0.8 0.5 2.6 1.2l7 3.3 3.8 1.7q3.2 1.6 4 1.9 0.8 0.3 1.1 0.2 0.1 0 0.7-0.3 0.5-0.3 0.7-0.4 0.7-0.4 1-0.5 0.2 0.1 0.3 0.1 0.1 0.1 0.1 0.3-0.3 0.4-0.5 0.5-0.6 0.7-2.3 2.2l-1.3 1.2-1.4 1.6q-0.2 0.1-0.4 0.3-0.1 0.1-0.2 0.2l-0.3 0.3q-0.2 0.1-0.3 0.1-0.2-0.1-0.3-0.3 0.1-0.3 0.2-0.4l1.2-1.4q0.5-0.5 0.6-0.9-0.1-0.3-0.2-0.4-0.3-0.2-1.5-0.9-0.9-0.3-1.6-0.7-0.7-0.4-5-2.4-0.6 0.4-1 0.8l-2.6 2.7-0.8 0.8q-0.4 0.4-0.9 1 0.2 0.5 0.3 0.7l2.4 4.5q1.2 2.7 1.4 2.9 0.1 0.1 0.5 0.2 0.3-0.2 0.8-0.5l1.9-1.6q0.2 0 0.3 0.1 0.1 0 0.2 0.2-0.6 0.6-0.9 0.9-1 1-2.3 2.2-0.7 0.6-0.9 0.9-0.3 0.2-0.9 0.9-0.4 0.5-0.6 0.6-0.3 0.3-0.8 0.8l-0.1-0.1q-0.1-0.1-0.2-0.3zm-1.5-13.4q1.4-1.2 3.1-2.9 1-1 1.6-1.8-0.6-0.4-1.2-0.6-2.9-1.4-3.2-1.5l-4-1.7-0.4-0.1q0.1 0.2 0.7 1.8 1.2 2.7 1.9 4.1 0.3 0.7 0.7 1.3 0.3 0.7 0.4 0.9 0.2 0.3 0.3 0.6z"/>
							<path id="path3189" class="s3" d="m326.9 444.9q0-0.7 0.7-1.9 0.7-0.9 0.7-1.2 0-0.2-0.1-0.3-0.4-0.6-2.7-2.4-2.9-2.3-7.7-6.3-3.7-3-4.6-3.7l-0.4-0.2q-1 0.8-2.8 2.9-0.3 0-0.5-0.1 0-0.1-0.1-0.3 0-0.3 0.1-0.4 0.1-0.2 0.5-0.5 0.6-0.6 1.5-1.8 0.2-0.4 0.9-1.5 0.4-0.7 0.5-0.8 0.2-0.2 0.5-0.4 0.2-0.1 0.4 0l1.8 0.3 11.8 2.5 4.9 1q-2.4-4.8-4.7-8.1-0.2-0.2-0.3-0.5-0.1-0.3-0.3-0.6-0.3-0.3-1.7-2.6-0.5-0.9-0.9-1.5-1.7-2.5-1.9-2.8 0.1-0.4 0.2-0.6 0.2-0.2 0.4-0.5 0.7-0.8 2-2.6 0.8-1.1 1.3-1.8 0.1 0 0.2 0.1 0.1 0.1 0.3 0.2-0.1 0.7-0.6 1.3-0.8 1.3-0.9 1.8-0.2 0.4 0 0.6 0.1 0.3 1.2 1.2l0.6 0.4 0.7 0.5q2.1 1.6 7.2 5.1l2.8 2.1 1.8 1.3q1.1 0.7 1.3 0.8 0.3 0 0.8-0.3 0.8-0.6 2.4-2.2 0.1 0 0.2 0.1 0.2 0.1 0.3 0.2l-0.5 0.6q-0.6 0.9-1.4 1.8-0.7 1-0.8 1-2.1 3-2.7 3.9-0.4 0.7-0.5 0.8-0.1 0.1-0.2 0.2l-0.2-0.1q-0.1-0.1-0.2-0.3 0.1-0.6 0.6-1.5 0.4-1 0.4-1.6-0.4-0.6-2.1-1.8l-2.9-2q-0.4-0.4-1.7-1.3-1.2-1-4.1-3.1-2.3-1.7-3.6-2.4 0.4 0.6 1.5 2.5l0.4 0.6 0.1 0.1 3.4 5.7 1.4 2.2 1.6 2.6q1.1 1.9 2 3.2 0.5 0.6 0.7 1l-0.2 0.3q-5.9-1.8-12.5-3.2-6.5-1.3-8.7-1.6 0.5 0.6 3.3 2.9 3.5 2.8 7.8 5.9 1.3 1 3.2 2 0.5 0.3 1 0.1 0.5-0.2 1.6-1.6 0.4-0.6 0.9-1.1 0.2 0.1 0.3 0.2 0.1 0 0.2 0.2l-3.3 4.3q-0.4 0.5-1.1 1.6-0.3 0.6-1.1 1.7z"/>
							<path id="path3191" fill-rule="evenodd" class="s3" d="m334 395l-0.5-0.2q0.1-0.3 0.1-0.4l0.6-1.6q0.6-2 1.5-4.4 0.3-0.9 1.1-3 1.2-2.7 2.1-3.8 1.4-1.7 2.9-2.1 1.6-0.4 3.1 0.2 2.4 1 2.7 5.1l0.1 0.1q1.2-1.6 2.5-2.4 1.3-0.7 2.7-0.8 1.1-0.1 2.5 0.5 2.5 1 3.5 3.9 1 3-0.6 6.9l-1 2.4-0.9 2.5q-1.3 3.3-1.5 3.8-0.3 0.6-0.5 1.1h-0.2q-0.2-0.1-0.3-0.2 0-0.2 0-0.5 0.4-2.2 0.4-2.5-0.1-0.3-0.4-0.6-0.5-0.4-3.2-1.5-0.3-0.1-0.7-0.3-1.1-0.4-1.2-0.4l-1.7-0.7q-4.3-1.8-7.6-3l-3.2-1.3-0.5-0.2q-0.7 1.3-1.2 2.4-0.3 0.7-0.6 1zm10.9-3.1q0.5-0.7 0.9-1.6 1.4-3.5 0.4-5.4-1.1-1.9-2.6-2.5-0.7-0.3-1.5-0.4-0.8 0-1.6 0.3-0.8 0.3-1.4 1.1-1 1.2-1.6 2.7-0.6 1.3-0.8 2.7 0.4 0.1 0.5 0.2 0.2 0 1 0.3 0.5 0.2 0.9 0.4l2 0.9 1.2 0.4 2.3 0.8zm12.6 0.7q0.6-1.6 0.5-3-0.1-0.6-0.5-1.5-0.4-1-1.2-1.8-0.8-0.7-1.6-1.1-0.7-0.3-1.8-0.4-1.1-0.1-2.1 0.2-1 0.3-2 1.4-1 1.1-1.6 2.6-1.2 3-1.2 3.4 0.3 0.2 0.5 0.2l0.6 0.3 1.2 0.5 1.4 0.5q3.9 1.6 4.6 1.7 0.8 0.2 1.6-0.4 0.8-0.5 1.6-2.6z"/>
							<path id="path3193" fill-rule="evenodd" class="s3" d="m346.3 346.7q0.2-0.1 0.4-0.1 0.2 0.1 0.6 0.2 0.6 0.2 0.7 0.2 1.8 0.3 3.1 0.4 0.1 0 0.1 0.2 0 0.1-0.1 0.2-0.2 0.1-1.2 0.3-0.7 0.2-1.8 0.6-1.2 0.4-1.3 0.7-0.2 0.3-0.3 1l-0.3 1.5q-0.1 0.4-0.1 0.8l-0.3 2.1-0.3 1.7q-0.1 0.4-0.1 1.1l4.4 0.8q0.9 0.1 3.1 0.3l0.4 0.1 0.7 0.1q-0.1-0.1 0.1-1.9l0.1-0.6q0.1-1 0.3-2.2 0.4-2.7 1.2-4.3 0.7-1.7 2.4-2.5 1.6-0.8 3.8-0.4 2.8 0.4 4.3 3.2 1.6 2.7 0.9 6.6l-0.4 2.6-0.1 0.8q-0.1 1.3-0.3 2.2l-0.5 3.7q-0.1 0.7-0.2 1.2-0.1 0-0.2 0-0.4-0.1-0.4-0.6-0.1-2.2-0.3-2.6-0.1-0.3-0.9-0.6-0.7-0.2-3-0.6l-2.1-0.2-7.6-1.2-3.3-0.5-0.9-0.1q-1.2-0.2-1.6 0-0.3 0.1-0.6 1-0.3 1.3-0.9 2.6-0.2 0.1-0.4 0l0.2-1.8 1-5.3 0.2-1.8 0.4-2.6q0.1-0.4 0.1-0.7l0.3-1.2 0.4-2.5 0.1-0.3 0.1-1.4q0.1-0.1 0.1-0.2zm8.7 12.4l1.8 0.3q6.3 1 7.1 0.9 0.8-0.1 1.5-0.8 0.6-0.8 0.9-2.9 0.4-2.3-0.9-4.2-1.4-2-3.6-2.3-2.5-0.4-4.2 1-1.7 1.4-2.2 4.4l-0.2 1.6-0.2 1.6q0 0.2 0 0.4z"/>
							<path id="path3195" fill-rule="evenodd" class="s3" d="m355.9 331.5h0.4q-0.1-0.4-0.1-1.9l-0.1-1.2q0-1.4 0-2.1 0-7.8 6.2-7.8 2.8 0 4.7 2.5 2 2.5 2 6.4v2.6 0.9q0.1 1.2 0.1 2.2v3.7q0 0.7 0 1.2h-0.2q-0.4 0-0.5-0.5-0.5-2.2-0.7-2.5-0.2-0.3-0.9-0.5-0.8-0.1-3.2-0.1l-13.1 0.2h-0.9q-1.3 0-1.6 0.2-0.3 0.3-0.4 1.9-0.1 1.5-0.1 1.8 0 0.3 0 0.6v1.6q0 0.6 0.1 0.9 0.1 0.4 1.2 1 1.1 0.6 1.7 0.8 1 0.4 1.2 0.5 0 0.1 0 0.4 0 0-0.1 0.1-0.5-0.1-2.2-0.1l-0.9-0.1q-0.1 0-0.7 0.1-0.5 0.1-0.7 0.1-0.2 0-0.3-0.1-0.1-0.2-0.1-0.2l0.1-1.5-0.1-0.3v-2.5-1.2q0-0.4 0-0.8 0-0.4 0-1.2v-0.5-6.7-1.8q0.3 0 0.5 0.1 0.3 1 0.5 2.6 0.1 1 0.5 1.2 0.3 0.1 3.9 0.1 2.2 0 3.8-0.1zm1.4 0h1.9q5.9 0 6.8-0.1 1-0.2 1.6-1 0.5-0.8 0.5-2.7 0-2.9-1.7-4.5-1.6-1.6-3.8-1.6-2.5 0-4 1.7-1.4 1.7-1.4 4.5 0 2.9 0.1 3.7z"/>
							<path id="path3197" fill-rule="evenodd" class="s3" d="m368.1 290.9q0.2-0.6 0.3-0.9 0.1-0.6 0.4-0.7 0.2-0.1 1.7-0.1 1.9-0.2 3.7-0.8 0.1 0.2 0.1 0.3 0 0.4-0.7 0.8-2.5 1.1-3.3 1.9-0.8 0.8-1 2.4-0.3 1.5-0.3 8.7l0.1 2.8-0.1 1.3q0.1 2.1 0.4 2.9 0.4 0.7 1 1.4 0.6 0.6 3.1 1.7 0.7 0.3 0.7 0.7 0 0.1-0.1 0.3-2.4-0.7-4.3-0.8-0.9 0-1.2-0.1-0.3-0.1-0.3-0.4v-0.2q0-0.1 0-0.3 0-1.3-0.4-1.8-0.5-0.5-2.1-1.2-1.6-0.8-5.8-2.2l-1.1-0.4-3.7-1.4-6.6-2.4q-1.7-0.6-3.1-1.1v-0.7q0-0.1 0-0.4 1.3-0.7 6.9-2.7l10.5-3.8q1.8-0.6 3-1.1 1.2-0.5 1.5-0.6 0.3-0.2 0.7-1.1zm-0.2 4.1q-0.3-0.1-0.5-0.1-0.5 0-2.3 0.7l-2.7 1q-6.4 2.2-9.9 3.7-0.7 0.3-1.9 0.8-1 0.3-1.1 0.4 2.7 1.4 7.3 2.8l1.1 0.4 7.5 2.4q0.8 0.3 1 0.4 1 0.3 1.3 0.3 0.3 0 0.3-0.3l-0.1-0.7q0-0.1 0.1-0.5 0-0.3 0-2l0.1-4.9-0.1-3z"/>
							<path id="path3199" class="s3" d="m368.8 284.3q-0.2-0.1-0.2-0.3-0.1-0.3-0.1-1-0.1-1.7-0.4-2.1-0.3-0.2-0.9-0.2h-1.3-4.4-2.1-4.5l-5 0.1q-1.8 0-2 0.2-0.3 0.3-0.4 1.9 0 0.6-0.1 1.1-0.1 0.3-0.3 0.3-0.1 0-0.3-0.1-0.1-0.2-0.1-0.3 0-0.2 0-0.6 0.1-1 0.1-2.1v-1.3-3.1q0-2.4 0-3.7-0.1-1.3-0.1-1.7 0-0.4 0.1-2v-2.5-0.3-1.5l0.1-0.1q0.1-0.1 0.3-0.2 0.2 0 0.7 0.1 0.5 0.1 0.6 0.1 1.9 0 3.1-0.1 0.1 0 0.2 0.1 0 0.2-0.1 0.3-0.3 0.2-1.2 0.5-0.8 0.4-1.9 1-0.7 0.5-0.9 0.7-0.1 0.3-0.1 1 0 0.2-0.1 1.6 0 0.4 0 0.8l0.1 5v0.4q0 1 0.3 1.2 0.4 0.3 2.5 0.3 0.2 0 4.2-0.1h2.4q0.1-0.2 0.1-0.4v-0.3q0-0.3 0-0.9 0-0.9 0-1.2 0-0.2 0-0.4-0.1-1.9-0.1-4.9-0.1-0.9-0.3-1.1-0.4-0.2-1.7-0.4-1.3-0.1-1.5-0.6 0-0.2 0.1-0.4 0.1 0 0.3 0 0.1 0 0.4 0 0.6 0.1 4 0.1 1 0 2.1-0.1 1.1-0.1 1.2-0.1 0.1 0 0.4 0.1 0.1 0.1 0.1 0.2v0.1q-0.5 0.3-1.5 0.6-1.8 0.4-2.3 0.9-0.4 0.5-0.4 1.6 0 0.3 0 0.9 0 0.7 0 2v1.1q0 2.5 0.1 3.2h0.6 3.3 2 2q1.8 0 2.1-0.2 0.3-0.3 0.3-1.3v-1.1q0-0.1 0-1.1 0.1-0.9 0.1-2.3 0-3.4-0.3-4.6-0.3-1.1-1-1.8-0.8-0.7-3.2-1.9-0.7-0.3-0.7-0.6 0-0.2 0.1-0.4 1.7 0.5 2.3 0.6 1.2 0.2 2.5 0.2 0.6 0 1 0.3v0.4 4.9 2.3l0.1 5.2v2.2q0 0.4 0 0.7 0.1 3.2 0.1 4.7 0 0.3-0.1 0.3-0.1 0.1-0.2 0.1z"/>
							<path id="path3201" class="s3" d="m368 237.7q0.1-0.9 0.1-4.9v-2.9q0-1.1-0.2-2.5-1-0.1-1.6-0.1l-4.2 0.1-5.2-0.1-4.6-0.1h-1q-2.1 0-2.8 0.1-0.7 0.1-0.8 0.3-0.2 0.2-0.5 1.5-0.2 0.9-0.3 1.2-0.1 0.1-0.2 0.1-0.2 0-0.2-0.4 0-0.1 0-0.3v-0.8q0-0.9 0.2-2.2 0-0.9 0-1.5l-0.1-3.6v-0.8h0.4q0.3 0.5 0.4 1.4 0.2 1.5 0.6 1.9 0.4 0.4 1.7 0.4 0.3 0 1-0.1h2.9q0.7 0 2.1 0.1h3.6 2.5l3.1 0.1h1.3q1.7 0 1.8-0.1 0.2-0.1 0.4-1.4l0.3-1q0-0.4 0.1-0.6 0.2-0.1 1-0.1 1.9-0.1 4.3-0.8 0.1 0.2 0.1 0.3 0 0.4-0.7 0.7-2.2 0.9-2.8 1.5-0.7 0.5-1.1 1.4-0.4 0.9-0.4 1.9l-0.1 2.3v3.3 11.2 2.3l0.1 5.4 0.1 2.7q0 0.9 0.1 3.2-0.3 0-0.6-0.1-0.3-0.6-0.3-1.6-0.1-0.7-0.2-1-0.7-0.3-3.1-0.3h-3.1l-10.8-0.1q-2.1 0-2.8 0.1-0.7 0.1-0.8 0.3-0.2 0.2-0.5 1.5-0.2 0.9-0.3 1.2-0.1 0.1-0.2 0.1-0.2 0-0.2-0.4 0-0.1 0-0.3v-0.8q0-0.9 0.2-2.2 0-0.9 0-1.5l-0.1-3.6v-0.8h0.4q0.3 0.5 0.4 1.4 0.2 1.5 0.6 1.9 0.4 0.4 1.7 0.4 0.4 0 1-0.1 0.4 0 1.1 0l4.6 0.1h2.4 9.2q0.1-0.9 0.1-1.6v-2.1-2.8l0.1-1.6q0-1-0.2-2.2-0.6-0.2-2.1-0.2h-3.1l-11.5-0.1q-2.1 0-2.8 0.2-0.7 0.1-0.8 0.3-0.2 0.1-0.5 1.4-0.2 0.9-0.3 1.2-0.1 0.1-0.2 0.1-0.2 0-0.2-0.3 0-0.2 0-0.4v-0.7q0-0.9 0.2-2.2 0-0.9 0-1.6l-0.1-3.6v-0.8h0.4q0.3 0.6 0.4 1.4 0.2 1.5 0.6 1.9 0.4 0.4 1.7 0.4 0.4 0 1 0 0.4 0 1.1 0l4.6 0.1h8.3z"/>
							<path id="path3203" class="s3" d="m368.8 215.5q-0.2-0.2-0.2-0.3-0.1-0.3-0.1-1-0.1-1.7-0.4-2.1-0.3-0.3-0.9-0.3l-1.3 0.1-4.4-0.1-2.1 0.1h-4.5-5q-1.8 0.1-2 0.3-0.3 0.3-0.4 1.8 0 0.7-0.1 1.2-0.1 0.3-0.3 0.3-0.1 0-0.3-0.1-0.1-0.2-0.1-0.3 0-0.3 0-0.6 0.1-1 0.1-2.2v-1.3-3.1q0-2.3 0-3.6-0.1-1.3-0.1-1.7 0-0.4 0.1-2v-2.5-0.3-1.5l0.1-0.2q0.1-0.1 0.3-0.1 0.2 0 0.7 0.1 0.5 0.1 0.6 0.1 1.9 0 3.1-0.2 0.1 0.1 0.2 0.2 0 0.1-0.1 0.3-0.3 0.2-1.2 0.5-0.8 0.3-1.9 1-0.7 0.4-0.9 0.7-0.1 0.2-0.1 1 0 0.2-0.1 1.6 0 0.4 0 0.8l0.1 5v0.4q0 1 0.3 1.2 0.4 0.3 2.5 0.3 0.2 0 4.2-0.1h2.4q0.1-0.2 0.1-0.4v-0.3q0-0.3 0-0.9 0-0.9 0-1.3 0-0.2 0-0.3-0.1-1.9-0.1-4.9-0.1-0.9-0.3-1.1-0.4-0.3-1.7-0.4-1.3-0.1-1.5-0.6 0-0.2 0.1-0.4 0.1 0 0.3 0 0.1 0 0.4 0 0.6 0.1 4 0.1 1 0 2.1-0.1 1.1-0.1 1.2-0.1 0.1 0 0.4 0 0.1 0.2 0.1 0.3v0.1q-0.5 0.3-1.5 0.5-1.8 0.5-2.3 1-0.4 0.5-0.4 1.6 0 0.3 0 0.9 0 0.7 0 2v1.1q0 2.4 0.1 3.2h0.6 3.3 2 2q1.8 0 2.1-0.2 0.3-0.3 0.3-1.3v-1.1q0-0.1 0-1.1 0.1-1 0.1-2.4 0-3.4-0.3-4.5-0.3-1.1-1-1.8-0.8-0.8-3.2-1.9-0.7-0.3-0.7-0.6 0-0.2 0.1-0.4 1.7 0.5 2.3 0.6 1.2 0.2 2.5 0.2 0.6 0 1 0.3v0.4 4.9 2.2l0.1 5.3v2.2q0 0.4 0 0.7 0.1 3.2 0.1 4.7 0 0.2-0.1 0.3-0.1 0.1-0.2 0.1z"/>
							<path id="path3205" class="s3" d="m349.2 188.1l-2.6-0.7q-0.6-0.1-0.7-0.2-0.2-0.1-0.2-0.3 0-0.3 0.8-0.7 0.5-0.3 0.7-0.5 0.1-0.2 0.2-0.5v-0.2-0.8l0.1-4.1v-4.9-1.5l-0.1-2.7q0-0.2 0.1-0.4 0.1-1.2 0.1-1.5 0-0.3-0.2-0.4-0.1-0.1-1.2-0.6-0.5-0.2-0.5-0.6 0-0.1 0.1-0.3 0.3-0.1 0.6-0.1h0.7 1.5q0.5 0 3.5 0.1 0.2 0 0.3 0 0.2 0.2 0.2 0.4 0 0.1-0.2 0.2-0.1 0.1-0.8 0.3-1.6 0.3-2.2 0.9-0.5 0.3-0.7 1-0.2 0.6-0.2 3.1 0 2 0.1 3 0.7 0 1.3 0l10.9-0.1q0.6 0 2.5 0.1h2.3 1.3q0.6 0 0.9-0.2 0.2-0.3 0.5-1.2 0.4-1.6 0.5-2.1 0-0.4 0.1-0.6h0.5v2.5q0 2.1-0.1 3.1l0.1 2.6 0.1 1.8q0 0.8 0 1l-0.1 0.3q-0.4-0.1-0.5-0.2-0.2-0.1-0.2-0.6-0.1-0.8-0.4-1.8-0.3-1-0.6-1.3-0.1-0.2-0.5-0.3-0.8-0.1-3-0.1h-3l-6.5 0.1h-1.4-4.7q-0.2 1.2-0.2 2.9 0 2.5 0.4 3.1 0.4 0.8 2.8 2.5 0.9 0.6 0.9 1v0.2q-0.1 0-0.2 0-0.2 0-1.3-0.3-1.3-0.3-1.8-0.4z"/>
							<path id="path3207" fill-rule="evenodd" class="s3" d="m357.8 161q-1.7 0-3.1-0.5-1.4-0.4-3.1-1.4-1.6-1-2.7-2.5-1.1-1.4-2-4-0.5-1.8-0.5-4.5 0-1.9 0.5-3.6 0.4-1.8 1.3-3.2 0.9-1.5 2.7-2.9 1.3-1 2.8-1.5 1.9-0.7 3.9-0.7 2.3 0 3.9 0.5 1.5 0.4 3 1.5 1.1 0.8 2.7 2.8 1 1.3 1.6 3.3 0.6 2 0.6 4.3 0 2.3-0.5 4.2-0.6 1.8-1.3 3-0.8 1.2-2.4 2.5-1.5 1.3-3.3 2-1.9 0.7-4.1 0.7zm11-12.2q0-1.5-0.4-3.1-0.4-1.6-1.4-2.8-1-1.3-2.2-2-1.2-0.6-3.1-1.1-1.9-0.4-3.9-0.4-2.3 0-4.7 0.7-1.8 0.6-3.2 1.8-1.4 1.2-2.1 3-0.8 1.7-0.8 3.7 0 1.6 0.5 3.1 0.6 1.5 1.4 2.5 0.8 1 2.3 1.8 1.5 0.9 3.3 1.3 1.8 0.5 3.2 0.5 1.5 0 3.3-0.5 1.9-0.4 3.2-1.2 1.4-0.7 2.4-1.9 1.1-1.1 1.6-2.5 0.6-1.4 0.6-2.9z"/>
							<g id="g4202">
								<path id="path3209" class="s3" d="m364 126.8l-16 1.3c0 0-1.1-0.2-1.4-0.5q-0.5-0.4-0.5-1.1 0-0.6 0.5-1.1c0.3-0.3 1.3-0.5 1.3-0.5 5.4 0.4 16.1 1.3 16.1 1.3 0 0 0 0.5 0 0.6z"/>
								<path id="path4200" fill-rule="evenodd" class="s3" d="m369.1 126.5c0 0.5-0.2 0.9-0.5 1.2-0.3 0.3-0.7 0.5-1.2 0.5-0.4 0-0.9-0.2-1.2-0.5-0.3-0.3-0.5-0.7-0.5-1.2 0-0.4 0.2-0.9 0.5-1.2 0.3-0.3 0.8-0.5 1.2-0.5 0.5 0 0.9 0.2 1.2 0.5 0.3 0.3 0.5 0.8 0.5 1.2z"/>
							</g>
						</g>
					</g>
				</g>
			</g>
		</g>
	</g>
</svg>