<svg version="1.2" xmlns="http://www.w3.org/2000/svg" viewBox="0 0 400 523" width="400" height="523">
	<title>Svoge-pdf</title>
	<style>
		.s0 { fill: #ffffff } 
		.s1 { fill: #21381f } 
		.s2 { fill: #3eb83f } 
	</style>
	<path id="Path 1" class="s0" d="m400.7-0.6l-1.1 12.2-31.8 358.8-1.9 1.7-166.4 150.9-168.2-152.6-30-358.8-1.3-12.2h104.5v62.4h54.2v-62.4h83v62.4h54.3v-62.4h11.5z"/>
	<path id="Path 2" fill-rule="evenodd" class="s1" d="m399.6 11.6l-31.8 358.8-1.9 1.7-166.4 150.9-168.2-152.6-30-358.8-1.3-12.2h104.5v62.4h54.2v-62.4h83v62.4h54.3v-62.4h104.7zm-12.5 0h-79.6v62.4h-77.3v-62.4h-60v62.4h-77.1v-62.4h-79.3l29.6 352.8 156.2 141.7 156.2-141.7z"/>
	<path id="Path 3" fill-rule="evenodd" class="s1" d="m345.1 362.5l-23.8 19.4v0.1l-74 60.5-47.4 38.8-0.1-0.1v0.1l-72-59.2-72.6-59.6-25.4-283.7h341.1zm-31.2 16.3l-12.4-140.7c-0.3-1.6-6-39.3-38.2-61.1q-2.1-1.4-4.1-2.6h-43.6c-6 0-5.7 6-5.7 6v21.8c0 6 6.8 5.5 6.8 5.5l38.5 0.3c0 0 23.1 1 23.1 29.7 0 28.7-20.7 29.8-20.7 29.8 0 0-69.7 0.3-76.6 0.3-6.8 0-6.5 6.5-6.5 6.5 0 0-0.3 13.7-0.3 20.5 0 6.8 7.1 6.3 7.1 6.3l78.7 0.3c0 0 22 1 22 29.6 0 28.6-19.9 29.7-19.9 29.7h-82.4c-7.3 0-7.3 7.8-7.3 7.8v20.2c0 7.1 7.3 6.1 7.3 6.1h49.8c0 0 19.7 6.5 19.7 28.8 0 3.4-0.6 6.6-1.6 9.5zm-95 77.6h-38.1l19 15.6zm-86.6-39.8l30.9 25.4h26.9c5.8 0 5.8-6.3 5.8-6.3 0 0 0.3-13.1 0.3-20.5 0-7.3-7.1-6.8-7.1-6.8h-47c0 0-23.8-0.8-23.8-29.9 0-29.1 22.3-30.4 22.3-30.4h82.1c6.2 0 6.2-6.8 6.2-6.8v-18.9c0-8.2-8.9-7.2-8.9-7.2h-75.8c0 0-23.3-2.8-23.3-29.8 0-27 19.7-30.7 19.7-30.7h76.3c8.1 0 8.4-7.9 8.4-7.9v-17.3c0-9.2-9.2-8.1-9.2-8.1h-34.4c0 0-25.7 0.5-25.7-29.2 0-17.6 9.7-26.6 20-31.1-10.6 2.3-23.4 6.6-35.6 14.5-37.9 24.5-40.5 62-40.5 62.3v0.2l-12.9 141.3zm205.9-57.8l20.2-220.9h-316.1l19.7 220.9 18.4 15.1 12.5-136.5c0.1-2.5 3.1-41.6 43.7-67.8 29.4-19.1 60.8-18.4 63.3-18.4 2.6 0 37.8-0.1 67.3 19.8 35.5 24.1 41.1 64.5 41.3 66.2v0.2l12.1 135.9z"/>
	<path id="Path 4" fill-rule="evenodd" class="s0" d="m99.2 113.2l14.6 4q-1.5 5.5-4.6 9.2-3.2 3.7-7.9 5.6-4.7 1.9-11.9 1.9-8.8 0-14.4-2.3-5.5-2.3-9.6-8.1-4-5.8-4-14.8 0-12.1 7.1-18.6 7.1-6.5 20.1-6.5 10.2 0 16 3.8 5.8 3.7 8.7 11.4l-14.7 2.9q-0.8-2.2-1.6-3.2-1.4-1.8-3.5-2.7-2-0.9-4.5-0.9-5.6 0-8.7 4.1-2.2 3-2.2 9.6 0 8 2.7 11 2.7 3 7.6 3 4.8 0 7.3-2.4 2.4-2.4 3.5-7zm22.7-28.7h31.2q7.8 0 12 3.4 4.1 3.5 4.1 8.7 0 4.3-2.9 7.4-2 2-5.8 3.2 5.8 1.3 8.5 4.3 2.7 3.1 2.7 7.8 0 3.7-1.9 6.7-2 3.1-5.3 4.8-2.1 1.1-6.4 1.6-5.6 0.7-7.4 0.7h-28.8zm16.8 19.1h7.3q3.9 0 5.4-1.3 1.5-1.2 1.5-3.4 0-2.2-1.5-3.4-1.5-1.2-5.3-1.2h-7.4zm0 19.1h8.5q4.3 0 6.1-1.3 1.7-1.4 1.7-3.7 0-2.2-1.7-3.5-1.7-1.3-6.1-1.3h-8.5zm39.7-13.8c0-8 2.4-14.2 7.3-18.6q7.4-6.6 20.5-6.6 13.4 0 20.7 6.5 7.3 6.5 7.3 18.3 0 8.5-3.2 14-3.2 5.4-9.2 8.4-6 3.1-15 3.1-9.1 0-15-2.6-6-2.7-9.7-8.3-3.7-5.7-3.7-14.2zm16.6 0q0 7.4 3 10.6 3.1 3.2 8.3 3.2 5.4 0 8.3-3.1 2.9-3.2 2.9-11.3 0-6.9-3-10-3.1-3.2-8.4-3.2-5 0-8 3.2-3.1 3.2-3.1 10.6zm90.9-12.4h-26.1v36.7h-16.6v-48.7h42.7zm7.5-11.9h44.6v10.4h-28v7.7h26v9.9h-26v9.6h28.8v11h-45.4zm-117.6 368.1l-8.7-7.2h44.7c0.1 0 6.2 0.3 10.7-4 3.4-3.3 5.2-8.5 5.2-15.4 0-20.3-16-20.8-16.7-20.8h-57.3-0.3c-7.2-1.2-20.7-8.2-20.7-26.8 0-18.6 13.5-25.7 20.7-26.8h0.5 90.7c1.8-0.1 15.9-1.3 15.9-19.4 0-18.1-14.1-20.1-16.2-20.3h-87.8c-7.5-0.5-21.8-6.6-21.8-26.5 0-19.8 13.8-26.7 21.1-27.6h0.4 84.9c2.2-0.2 16-2.6 16-20 0-17.7-13.5-19.1-14.8-19.2h-45.2c-0.5 0-12.1 0.1-20-7.8-4.7-4.6-7.1-10.9-7.1-18.7 0-26.5 21.2-27.1 21.4-27.1h46.5c5.5 1.8 11.2 4.1 16.8 7.1h-63.2c-1.4 0.1-14.4 1-14.4 20 0 5.8 1.7 10.4 5 13.6 5.7 5.7 14.9 5.8 14.9 5.8h45.6c7.5 0.3 21.6 6.4 21.6 26.3 0 19.8-14.7 26.4-22.5 27.1l-0.4 0.1h-84.9c-1.7 0.2-14.6 2.9-14.6 20.4 0 17.4 13.1 19.2 15.1 19.4h87.8c7.9 0.5 22.9 7 22.9 27.4 0 20.4-14.9 26.3-22.8 26.5h-90.5c-1.9 0.4-14.4 3.6-14.4 19.7 0 16.2 12.4 19.3 14.4 19.7h56.8c0.3 0 23.7 0.6 23.7 27.9 0 9-2.5 15.9-7.4 20.6-5.9 5.6-13.3 6-15.4 6-0.2 0-36.1 0-36.2 0zm14.4-10.6h-27l-30.9-25.4-45.2-37.2 12.9-141.3v-0.1c0-0.4 2.6-37.8 40.4-62.3 12.3-8 25.1-12.3 35.6-14.6-10.2 4.5-19.9 13.5-19.9 31.2 0 29.6 25.7 29.1 25.7 29.1h34.3c0 0 9.2-1.1 9.2 8.1v17.3c0 0-0.2 7.9-8.4 7.9h-76.3c0 0-19.7 3.7-19.7 30.7 0 27 23.4 29.9 23.4 29.9h75.8c0 0 8.9-1 8.9 7.1v18.9c0 0 0 6.8-6.3 6.8h-82.1c0 0-22.3 1.3-22.3 30.4 0 29.2 23.9 30 23.9 30h46.9c0 0 7.1-0.6 7.1 6.8 0 7.3-0.3 20.4-0.3 20.4 0 0 0 6.3-5.7 6.3z"/>
	<path id="Path 5" class="s2" d="m97.6 374.9l12.4-135.9 0.1-0.4c0.1-1.9 3.1-33.3 35.8-54.5q0.4-0.2 0.8-0.5-0.7 4.2-0.7 8.6c0 31.1 23.3 39.3 35.7 39.3h33.5v13.1h-75.5l-0.9 0.1c-9.7 1.8-28 12.6-28 40.7 0 28.4 21.1 38.5 32.3 39.8l0.6 0.1h75.2v12.6h-78.6l-0.3 0.1c-11 0.6-31.8 9.9-31.8 40.5q0 2.8 0.3 5.4zm88.3 56.9h-19.1l-16.3-13.4h35.5c0 4.5-0.1 9.9-0.1 13.4z"/>
	<path id="Path 6" class="s0" d="m301.4 238.1l12.5 140.7-66.4 54.3c1.1-2.9 1.7-6.1 1.7-9.5 0-22.3-19.7-28.8-19.7-28.8h-49.8c0 0-7.4 1-7.4-6.1v-20.2c0 0 0-7.8 7.4-7.8h82.3c0 0 20-1.1 20-29.7 0-28.6-22.1-29.6-22.1-29.6l-78.6-0.3c0 0-7.1 0.5-7.1-6.3 0-6.8 0.2-20.5 0.2-20.5 0 0-0.2-6.5 6.6-6.5 6.8 0 76.6-0.3 76.6-0.3 0 0 20.7-1.1 20.7-29.8 0-28.7-23.1-29.7-23.1-29.7l-38.5-0.3c0 0-6.9 0.5-6.9-5.5v-21.8c0 0-0.2-6 5.8-6h43.6q2 1.2 4 2.6c32.3 21.8 38 59.5 38.2 61.1z"/>
	<path id="Path 7" class="s2" d="m255.7 197.9h-0.2l-35.5-0.3v-13.1h36.3q0.7 0.4 1.3 0.9c12.8 8.6 20.9 20.2 25.9 30.5-7-13.1-19.9-17.7-27.8-18zm2 213.8c-5.6-19.8-24.1-26.2-25-26.5l-1.6-0.6h-48.6v-13.8h79.8 0.3c10.2-0.6 29.5-9.6 29.5-39.8 0-30.2-20.7-39.2-31.7-39.7l-0.2-0.1-75.9-0.2c0-4.4 0.1-9.7 0.2-13.1 15.7-0.1 72.5-0.3 73.1-0.3h0.2 0.3c10.5-0.5 30.3-9.6 30.3-39.9 0-7.3-1.2-13.4-3.3-18.4 4.6 10.3 6.1 18.6 6.3 20l12 135z"/>
	<path id="Path 8" class="s0" d="m358.4 137.9l-20.2 221-17.6 14.4-12.1-135.9v-0.1c-0.2-1.7-5.7-42.2-41.3-66.2-29.5-20-64.7-19.9-67.3-19.8-2.4-0.1-33.8-0.8-63.3 18.3-40.6 26.3-43.6 65.4-43.7 67.9l-12.5 136.4-18.4-15-19.7-221z"/>
	<path id="Path 9" class="s2" d="m131.1 161.1c-43.8 28.3-48 70.1-48.3 75.6l-10.8 117.3-0.3-0.3-18.3-205.7h105.1c-8.8 2.9-18.2 7.2-27.4 13.1zm197.7 190.3l-10.2-114.9-0.1-0.5c-0.2-1.9-6.3-46.8-45.6-73.3-10.1-6.8-20.8-11.5-30.7-14.7h105.1z"/>
</svg>