<svg version="1.2" xmlns="http://www.w3.org/2000/svg" viewBox="0 0 490 673" width="490" height="673">
	<title>Tvarditsa-svg</title>
	<defs>
		<linearGradient id="g1" x1="48.3" y1="186.2" x2="404.3" y2="623.9" gradientUnits="userSpaceOnUse">
			<stop offset="0" stop-color="#797979"/>
			<stop offset=".3" stop-color="#cbcbcb"/>
			<stop offset="1" stop-color="#4d4d4d"/>
		</linearGradient>
		<linearGradient id="g2" x1="26.2" y1="171.3" x2="446.2" y2="553.1" gradientUnits="userSpaceOnUse">
			<stop offset="0" stop-color="#d7d7d7"/>
			<stop offset=".7" stop-color="#ffffff"/>
			<stop offset=".7" stop-color="#c9c9c9"/>
			<stop offset="1" stop-color="#adadad"/>
		</linearGradient>
		<radialGradient id="g3" cx="162.4" cy="339.7" r="360.1" gradientUnits="userSpaceOnUse">
			<stop offset="0" stop-color="#00df1a"/>
			<stop offset="1" stop-color="#007d1b"/>
		</radialGradient>
		<radialGradient id="g4" cx="147.2" cy="396.4" r="320" gradientUnits="userSpaceOnUse">
			<stop offset="0" stop-color="#ff6666"/>
			<stop offset="1" stop-color="#ac0000"/>
		</radialGradient>
		<linearGradient id="g5" x1="252.5" y1="618.5" x2="245.9" y2="618.5" gradientUnits="userSpaceOnUse">
			<stop offset="0" stop-color="#b3b3b3"/>
			<stop offset="1" stop-color="#ffffff"/>
		</linearGradient>
		<linearGradient id="g6" x1="252" y1="595.7" x2="254.7" y2="599.5" gradientUnits="userSpaceOnUse">
			<stop offset="0" stop-color="#333333"/>
			<stop offset="1" stop-color="#b3b3b3"/>
		</linearGradient>
		<linearGradient id="g7" x1="255.2" y1="551.9" x2="238.8" y2="553.1" gradientUnits="userSpaceOnUse">
			<stop offset="0" stop-color="#535353"/>
			<stop offset="1" stop-color="#ababab"/>
		</linearGradient>
		<linearGradient id="g8" x1="246.7" y1="436.7" x2="259.9" y2="436.7" gradientUnits="userSpaceOnUse">
			<stop offset="0" stop-color="#b3b3b3"/>
			<stop offset="1" stop-color="#cccccc" stop-opacity="0"/>
		</linearGradient>
		<linearGradient id="g9" x1="251.1" y1="524.1" x2="246.6" y2="523.9" gradientUnits="userSpaceOnUse">
			<stop offset="0" stop-color="#b3b3b3"/>
			<stop offset="1" stop-color="#ffffff"/>
		</linearGradient>
		<radialGradient id="g10" cx="267" cy="543" r="42.4" gradientUnits="userSpaceOnUse">
			<stop offset="0" stop-color="#ffffff"/>
			<stop offset="1" stop-color="#e6e6e6"/>
		</radialGradient>
		<linearGradient id="g11" x1="226.3" y1="591.9" x2="248.9" y2="592.9" gradientUnits="userSpaceOnUse">
			<stop offset="0" stop-color="#b3b3b3"/>
			<stop offset="1" stop-color="#ffffff"/>
		</linearGradient>
		<linearGradient id="g12" x1="223.4" y1="581" x2="248.1" y2="581.5" gradientUnits="userSpaceOnUse">
			<stop offset="0" stop-color="#b3b3b3"/>
			<stop offset="1" stop-color="#ffffff"/>
		</linearGradient>
		<linearGradient id="g13" x1="220.1" y1="568.3" x2="248.6" y2="568.8" gradientUnits="userSpaceOnUse">
			<stop offset="0" stop-color="#b3b3b3"/>
			<stop offset="1" stop-color="#ffffff"/>
		</linearGradient>
		<linearGradient id="g14" x1="218.8" y1="553.3" x2="235.4" y2="558.9" gradientUnits="userSpaceOnUse">
			<stop offset="0" stop-color="#b3b3b3"/>
			<stop offset="1" stop-color="#ffffff"/>
		</linearGradient>
		<linearGradient id="g15" x1="261.9" y1="593.8" x2="273.1" y2="593.3" gradientUnits="userSpaceOnUse">
			<stop offset="0" stop-color="#b3b3b3"/>
			<stop offset="1" stop-color="#ffffff"/>
		</linearGradient>
		<linearGradient id="g16" x1="312.5" y1="608.4" x2="309.5" y2="559.4" gradientUnits="userSpaceOnUse">
			<stop offset="0" stop-color="#b3b3b3"/>
			<stop offset="1" stop-color="#ffffff"/>
		</linearGradient>
		<linearGradient id="g17" x1="146.2" y1="348.7" x2="345.5" y2="348.7" gradientUnits="userSpaceOnUse">
			<stop offset="0" stop-color="#333333"/>
			<stop offset=".7" stop-color="#808080"/>
			<stop offset="1" stop-color="#333333"/>
		</linearGradient>
		<linearGradient id="g18" x1="76" y1="339" x2="168.2" y2="339" gradientUnits="userSpaceOnUse">
			<stop offset="0" stop-color="#4d4d4d"/>
			<stop offset=".3" stop-color="#8c8c8c"/>
			<stop offset="1" stop-color="#333333"/>
		</linearGradient>
		<linearGradient id="g19" x1="85.4" y1="334" x2="155.1" y2="334" gradientUnits="userSpaceOnUse">
			<stop offset="0" stop-color="#b3b3b3"/>
			<stop offset=".2" stop-color="#ffffff"/>
			<stop offset="1" stop-color="#b3b3b3"/>
		</linearGradient>
		<linearGradient id="g20" x1="85.4" y1="334" x2="155.1" y2="334" gradientUnits="userSpaceOnUse">
			<stop offset="0" stop-color="#b3b3b3"/>
			<stop offset=".2" stop-color="#ffffff"/>
			<stop offset="1" stop-color="#b3b3b3"/>
		</linearGradient>
		<linearGradient id="g21" x1="85.4" y1="334" x2="155.1" y2="334" gradientUnits="userSpaceOnUse">
			<stop offset="0" stop-color="#b3b3b3"/>
			<stop offset=".2" stop-color="#ffffff"/>
			<stop offset="1" stop-color="#b3b3b3"/>
		</linearGradient>
		<linearGradient id="g22" x1="85.4" y1="334" x2="155.1" y2="334" gradientUnits="userSpaceOnUse">
			<stop offset="0" stop-color="#b3b3b3"/>
			<stop offset=".2" stop-color="#ffffff"/>
			<stop offset="1" stop-color="#b3b3b3"/>
		</linearGradient>
		<linearGradient id="g23" x1="85.4" y1="334" x2="155.1" y2="334" gradientUnits="userSpaceOnUse">
			<stop offset="0" stop-color="#b3b3b3"/>
			<stop offset=".2" stop-color="#ffffff"/>
			<stop offset="1" stop-color="#b3b3b3"/>
		</linearGradient>
		<linearGradient id="g24" x1="85.4" y1="334" x2="155.1" y2="334" gradientUnits="userSpaceOnUse">
			<stop offset="0" stop-color="#b3b3b3"/>
			<stop offset=".2" stop-color="#ffffff"/>
			<stop offset="1" stop-color="#b3b3b3"/>
		</linearGradient>
		<linearGradient id="g25" x1="85.4" y1="334" x2="155.1" y2="334" gradientUnits="userSpaceOnUse">
			<stop offset="0" stop-color="#b3b3b3"/>
			<stop offset=".2" stop-color="#ffffff"/>
			<stop offset="1" stop-color="#b3b3b3"/>
		</linearGradient>
		<linearGradient id="g26" x1="85.4" y1="334" x2="155.1" y2="334" gradientUnits="userSpaceOnUse">
			<stop offset="0" stop-color="#b3b3b3"/>
			<stop offset=".2" stop-color="#ffffff"/>
			<stop offset="1" stop-color="#b3b3b3"/>
		</linearGradient>
		<linearGradient id="g27" x1="85.4" y1="334" x2="155.1" y2="334" gradientUnits="userSpaceOnUse">
			<stop offset="0" stop-color="#b3b3b3"/>
			<stop offset=".2" stop-color="#ffffff"/>
			<stop offset="1" stop-color="#b3b3b3"/>
		</linearGradient>
		<linearGradient id="g28" x1="85.4" y1="334" x2="155.1" y2="334" gradientUnits="userSpaceOnUse">
			<stop offset="0" stop-color="#b3b3b3"/>
			<stop offset=".2" stop-color="#ffffff"/>
			<stop offset="1" stop-color="#b3b3b3"/>
		</linearGradient>
		<linearGradient id="g29" x1="85.4" y1="334" x2="155.1" y2="334" gradientUnits="userSpaceOnUse">
			<stop offset="0" stop-color="#b3b3b3"/>
			<stop offset=".2" stop-color="#ffffff"/>
			<stop offset="1" stop-color="#b3b3b3"/>
		</linearGradient>
		<linearGradient id="g30" x1="85.4" y1="334" x2="155.1" y2="334" gradientUnits="userSpaceOnUse">
			<stop offset="0" stop-color="#b3b3b3"/>
			<stop offset=".2" stop-color="#ffffff"/>
			<stop offset="1" stop-color="#b3b3b3"/>
		</linearGradient>
		<linearGradient id="g31" x1="85.4" y1="334" x2="155.1" y2="334" gradientUnits="userSpaceOnUse">
			<stop offset="0" stop-color="#b3b3b3"/>
			<stop offset=".2" stop-color="#ffffff"/>
			<stop offset="1" stop-color="#b3b3b3"/>
		</linearGradient>
		<linearGradient id="g32" x1="85.4" y1="334" x2="155.1" y2="334" gradientUnits="userSpaceOnUse">
			<stop offset="0" stop-color="#b3b3b3"/>
			<stop offset=".2" stop-color="#ffffff"/>
			<stop offset="1" stop-color="#b3b3b3"/>
		</linearGradient>
		<linearGradient id="g33" x1="85.4" y1="334" x2="155.1" y2="334" gradientUnits="userSpaceOnUse">
			<stop offset="0" stop-color="#b3b3b3"/>
			<stop offset=".2" stop-color="#ffffff"/>
			<stop offset="1" stop-color="#b3b3b3"/>
		</linearGradient>
		<linearGradient id="g34" x1="85.4" y1="334" x2="155.1" y2="334" gradientUnits="userSpaceOnUse">
			<stop offset="0" stop-color="#b3b3b3"/>
			<stop offset=".2" stop-color="#ffffff"/>
			<stop offset="1" stop-color="#b3b3b3"/>
		</linearGradient>
		<linearGradient id="g35" x1="85.4" y1="334" x2="155.1" y2="334" gradientUnits="userSpaceOnUse">
			<stop offset="0" stop-color="#b3b3b3"/>
			<stop offset=".2" stop-color="#ffffff"/>
			<stop offset="1" stop-color="#b3b3b3"/>
		</linearGradient>
		<linearGradient id="g36" x1="85.4" y1="334" x2="155.1" y2="334" gradientUnits="userSpaceOnUse">
			<stop offset="0" stop-color="#b3b3b3"/>
			<stop offset=".2" stop-color="#ffffff"/>
			<stop offset="1" stop-color="#b3b3b3"/>
		</linearGradient>
		<linearGradient id="g37" x1="85.4" y1="334" x2="155.1" y2="334" gradientUnits="userSpaceOnUse">
			<stop offset="0" stop-color="#b3b3b3"/>
			<stop offset=".2" stop-color="#ffffff"/>
			<stop offset="1" stop-color="#b3b3b3"/>
		</linearGradient>
		<linearGradient id="g38" x1="85.4" y1="334" x2="155.1" y2="334" gradientUnits="userSpaceOnUse">
			<stop offset="0" stop-color="#b3b3b3"/>
			<stop offset=".2" stop-color="#ffffff"/>
			<stop offset="1" stop-color="#b3b3b3"/>
		</linearGradient>
		<linearGradient id="g39" x1="85.4" y1="334" x2="155.1" y2="334" gradientUnits="userSpaceOnUse">
			<stop offset="0" stop-color="#b3b3b3"/>
			<stop offset=".2" stop-color="#ffffff"/>
			<stop offset="1" stop-color="#b3b3b3"/>
		</linearGradient>
		<linearGradient id="g40" x1="85.4" y1="334" x2="155.1" y2="334" gradientUnits="userSpaceOnUse">
			<stop offset="0" stop-color="#b3b3b3"/>
			<stop offset=".2" stop-color="#ffffff"/>
			<stop offset="1" stop-color="#b3b3b3"/>
		</linearGradient>
		<linearGradient id="g41" x1="85.4" y1="334" x2="155.1" y2="334" gradientUnits="userSpaceOnUse">
			<stop offset="0" stop-color="#b3b3b3"/>
			<stop offset=".2" stop-color="#ffffff"/>
			<stop offset="1" stop-color="#b3b3b3"/>
		</linearGradient>
		<linearGradient id="g42" x1="85.4" y1="334" x2="155.1" y2="334" gradientUnits="userSpaceOnUse">
			<stop offset="0" stop-color="#b3b3b3"/>
			<stop offset=".2" stop-color="#ffffff"/>
			<stop offset="1" stop-color="#b3b3b3"/>
		</linearGradient>
		<linearGradient id="g43" x1="85.4" y1="334" x2="155.1" y2="334" gradientUnits="userSpaceOnUse">
			<stop offset="0" stop-color="#b3b3b3"/>
			<stop offset=".2" stop-color="#ffffff"/>
			<stop offset="1" stop-color="#b3b3b3"/>
		</linearGradient>
		<linearGradient id="g44" x1="85.4" y1="334" x2="155.1" y2="334" gradientUnits="userSpaceOnUse">
			<stop offset="0" stop-color="#b3b3b3"/>
			<stop offset=".2" stop-color="#ffffff"/>
			<stop offset="1" stop-color="#b3b3b3"/>
		</linearGradient>
		<linearGradient id="g45" x1="85.4" y1="334" x2="155.1" y2="334" gradientUnits="userSpaceOnUse">
			<stop offset="0" stop-color="#b3b3b3"/>
			<stop offset=".2" stop-color="#ffffff"/>
			<stop offset="1" stop-color="#b3b3b3"/>
		</linearGradient>
		<linearGradient id="g46" x1="154.8" y1="345" x2="339.6" y2="345" gradientUnits="userSpaceOnUse">
			<stop offset="0" stop-color="#b3b3b3"/>
			<stop offset=".5" stop-color="#e6e6e6"/>
			<stop offset="1" stop-color="#b3b3b3"/>
		</linearGradient>
		<linearGradient id="g47" x1="154.8" y1="384.2" x2="339.6" y2="384.2" gradientUnits="userSpaceOnUse">
			<stop offset="0" stop-color="#b3b3b3"/>
			<stop offset=".5" stop-color="#e6e6e6"/>
			<stop offset="1" stop-color="#b3b3b3"/>
		</linearGradient>
		<linearGradient id="g48" x1="154.8" y1="345" x2="339.6" y2="345" gradientUnits="userSpaceOnUse">
			<stop offset="0" stop-color="#b3b3b3"/>
			<stop offset=".5" stop-color="#e6e6e6"/>
			<stop offset="1" stop-color="#b3b3b3"/>
		</linearGradient>
		<linearGradient id="g49" x1="154.8" y1="345" x2="339.6" y2="345" gradientUnits="userSpaceOnUse">
			<stop offset="0" stop-color="#b3b3b3"/>
			<stop offset=".5" stop-color="#e6e6e6"/>
			<stop offset="1" stop-color="#b3b3b3"/>
		</linearGradient>
		<linearGradient id="g50" x1="154.8" y1="345" x2="339.6" y2="345" gradientUnits="userSpaceOnUse">
			<stop offset="0" stop-color="#b3b3b3"/>
			<stop offset=".5" stop-color="#e6e6e6"/>
			<stop offset="1" stop-color="#b3b3b3"/>
		</linearGradient>
		<linearGradient id="g51" x1="154.8" y1="345" x2="339.6" y2="345" gradientUnits="userSpaceOnUse">
			<stop offset="0" stop-color="#b3b3b3"/>
			<stop offset=".5" stop-color="#e6e6e6"/>
			<stop offset="1" stop-color="#b3b3b3"/>
		</linearGradient>
		<linearGradient id="g52" x1="154.8" y1="345" x2="339.6" y2="345" gradientUnits="userSpaceOnUse">
			<stop offset="0" stop-color="#b3b3b3"/>
			<stop offset=".5" stop-color="#e6e6e6"/>
			<stop offset="1" stop-color="#b3b3b3"/>
		</linearGradient>
		<linearGradient id="g53" x1="154.8" y1="345" x2="339.6" y2="345" gradientUnits="userSpaceOnUse">
			<stop offset="0" stop-color="#b3b3b3"/>
			<stop offset=".5" stop-color="#e6e6e6"/>
			<stop offset="1" stop-color="#b3b3b3"/>
		</linearGradient>
		<linearGradient id="g54" x1="154.8" y1="345" x2="339.6" y2="345" gradientUnits="userSpaceOnUse">
			<stop offset="0" stop-color="#b3b3b3"/>
			<stop offset=".5" stop-color="#e6e6e6"/>
			<stop offset="1" stop-color="#b3b3b3"/>
		</linearGradient>
		<linearGradient id="g55" x1="-427.4" y1="345" x2="-612.2" y2="345" gradientUnits="userSpaceOnUse">
			<stop offset="0" stop-color="#b3b3b3"/>
			<stop offset=".5" stop-color="#e6e6e6"/>
			<stop offset="1" stop-color="#b3b3b3"/>
		</linearGradient>
		<linearGradient id="g56" x1="154.8" y1="345" x2="339.6" y2="345" gradientUnits="userSpaceOnUse">
			<stop offset="0" stop-color="#b3b3b3"/>
			<stop offset=".5" stop-color="#e6e6e6"/>
			<stop offset="1" stop-color="#b3b3b3"/>
		</linearGradient>
		<linearGradient id="g57" x1="154.8" y1="345" x2="339.6" y2="345" gradientUnits="userSpaceOnUse">
			<stop offset="0" stop-color="#b3b3b3"/>
			<stop offset=".5" stop-color="#e6e6e6"/>
			<stop offset="1" stop-color="#b3b3b3"/>
		</linearGradient>
		<linearGradient id="g58" x1="154.8" y1="345" x2="339.6" y2="345" gradientUnits="userSpaceOnUse">
			<stop offset="0" stop-color="#b3b3b3"/>
			<stop offset=".5" stop-color="#e6e6e6"/>
			<stop offset="1" stop-color="#b3b3b3"/>
		</linearGradient>
		<linearGradient id="g59" x1="154.8" y1="345" x2="339.6" y2="345" gradientUnits="userSpaceOnUse">
			<stop offset="0" stop-color="#b3b3b3"/>
			<stop offset=".5" stop-color="#e6e6e6"/>
			<stop offset="1" stop-color="#b3b3b3"/>
		</linearGradient>
		<linearGradient id="g60" x1="154.8" y1="345" x2="339.6" y2="345" gradientUnits="userSpaceOnUse">
			<stop offset="0" stop-color="#b3b3b3"/>
			<stop offset=".5" stop-color="#e6e6e6"/>
			<stop offset="1" stop-color="#b3b3b3"/>
		</linearGradient>
		<linearGradient id="g61" x1="-427.4" y1="345" x2="-612.2" y2="345" gradientUnits="userSpaceOnUse">
			<stop offset="0" stop-color="#b3b3b3"/>
			<stop offset=".5" stop-color="#e6e6e6"/>
			<stop offset="1" stop-color="#b3b3b3"/>
		</linearGradient>
		<linearGradient id="g62" x1="154.8" y1="345" x2="339.6" y2="345" gradientUnits="userSpaceOnUse">
			<stop offset="0" stop-color="#b3b3b3"/>
			<stop offset=".5" stop-color="#e6e6e6"/>
			<stop offset="1" stop-color="#b3b3b3"/>
		</linearGradient>
		<linearGradient id="g63" x1="154.8" y1="345" x2="339.6" y2="345" gradientUnits="userSpaceOnUse">
			<stop offset="0" stop-color="#b3b3b3"/>
			<stop offset=".5" stop-color="#e6e6e6"/>
			<stop offset="1" stop-color="#b3b3b3"/>
		</linearGradient>
		<linearGradient id="g64" x1="154.8" y1="345" x2="339.6" y2="345" gradientUnits="userSpaceOnUse">
			<stop offset="0" stop-color="#b3b3b3"/>
			<stop offset=".5" stop-color="#e6e6e6"/>
			<stop offset="1" stop-color="#b3b3b3"/>
		</linearGradient>
		<linearGradient id="g65" x1="154.8" y1="345" x2="339.6" y2="345" gradientUnits="userSpaceOnUse">
			<stop offset="0" stop-color="#b3b3b3"/>
			<stop offset=".5" stop-color="#e6e6e6"/>
			<stop offset="1" stop-color="#b3b3b3"/>
		</linearGradient>
		<linearGradient id="g66" x1="154.8" y1="345" x2="339.6" y2="345" gradientUnits="userSpaceOnUse">
			<stop offset="0" stop-color="#b3b3b3"/>
			<stop offset=".5" stop-color="#e6e6e6"/>
			<stop offset="1" stop-color="#b3b3b3"/>
		</linearGradient>
		<linearGradient id="g67" x1="154.8" y1="345" x2="339.6" y2="345" gradientUnits="userSpaceOnUse">
			<stop offset="0" stop-color="#b3b3b3"/>
			<stop offset=".5" stop-color="#e6e6e6"/>
			<stop offset="1" stop-color="#b3b3b3"/>
		</linearGradient>
		<linearGradient id="g68" x1="-427.4" y1="345" x2="-612.2" y2="345" gradientUnits="userSpaceOnUse">
			<stop offset="0" stop-color="#b3b3b3"/>
			<stop offset=".5" stop-color="#e6e6e6"/>
			<stop offset="1" stop-color="#b3b3b3"/>
		</linearGradient>
		<linearGradient id="g69" x1="154.8" y1="345" x2="339.6" y2="345" gradientUnits="userSpaceOnUse">
			<stop offset="0" stop-color="#b3b3b3"/>
			<stop offset=".5" stop-color="#e6e6e6"/>
			<stop offset="1" stop-color="#b3b3b3"/>
		</linearGradient>
		<linearGradient id="g70" x1="154.8" y1="345" x2="339.6" y2="345" gradientUnits="userSpaceOnUse">
			<stop offset="0" stop-color="#b3b3b3"/>
			<stop offset=".5" stop-color="#e6e6e6"/>
			<stop offset="1" stop-color="#b3b3b3"/>
		</linearGradient>
		<linearGradient id="g71" x1="334.5" y1="339.7" x2="425.7" y2="339" gradientUnits="userSpaceOnUse">
			<stop offset="0" stop-color="#494949"/>
			<stop offset=".4" stop-color="#949494"/>
			<stop offset="1" stop-color="#333333"/>
		</linearGradient>
		<linearGradient id="g72" x1="347.4" y1="334" x2="417.1" y2="334" gradientUnits="userSpaceOnUse">
			<stop offset="0" stop-color="#b3b3b3"/>
			<stop offset=".2" stop-color="#ffffff"/>
			<stop offset="1" stop-color="#b3b3b3"/>
		</linearGradient>
		<linearGradient id="g73" x1="347.4" y1="334" x2="417.1" y2="334" gradientUnits="userSpaceOnUse">
			<stop offset="0" stop-color="#b3b3b3"/>
			<stop offset=".2" stop-color="#ffffff"/>
			<stop offset="1" stop-color="#b3b3b3"/>
		</linearGradient>
		<linearGradient id="g74" x1="347.4" y1="334" x2="417.1" y2="334" gradientUnits="userSpaceOnUse">
			<stop offset="0" stop-color="#b3b3b3"/>
			<stop offset=".2" stop-color="#ffffff"/>
			<stop offset="1" stop-color="#b3b3b3"/>
		</linearGradient>
		<linearGradient id="g75" x1="347.4" y1="334" x2="417.1" y2="334" gradientUnits="userSpaceOnUse">
			<stop offset="0" stop-color="#b3b3b3"/>
			<stop offset=".2" stop-color="#ffffff"/>
			<stop offset="1" stop-color="#b3b3b3"/>
		</linearGradient>
		<linearGradient id="g76" x1="347.4" y1="334" x2="417.1" y2="334" gradientUnits="userSpaceOnUse">
			<stop offset="0" stop-color="#b3b3b3"/>
			<stop offset=".2" stop-color="#ffffff"/>
			<stop offset="1" stop-color="#b3b3b3"/>
		</linearGradient>
		<linearGradient id="g77" x1="347.4" y1="334" x2="417.1" y2="334" gradientUnits="userSpaceOnUse">
			<stop offset="0" stop-color="#b3b3b3"/>
			<stop offset=".2" stop-color="#ffffff"/>
			<stop offset="1" stop-color="#b3b3b3"/>
		</linearGradient>
		<linearGradient id="g78" x1="347.4" y1="334" x2="417.1" y2="334" gradientUnits="userSpaceOnUse">
			<stop offset="0" stop-color="#b3b3b3"/>
			<stop offset=".2" stop-color="#ffffff"/>
			<stop offset="1" stop-color="#b3b3b3"/>
		</linearGradient>
		<linearGradient id="g79" x1="347.4" y1="334" x2="417.1" y2="334" gradientUnits="userSpaceOnUse">
			<stop offset="0" stop-color="#b3b3b3"/>
			<stop offset=".2" stop-color="#ffffff"/>
			<stop offset="1" stop-color="#b3b3b3"/>
		</linearGradient>
		<linearGradient id="g80" x1="347.4" y1="334" x2="417.1" y2="334" gradientUnits="userSpaceOnUse">
			<stop offset="0" stop-color="#b3b3b3"/>
			<stop offset=".2" stop-color="#ffffff"/>
			<stop offset="1" stop-color="#b3b3b3"/>
		</linearGradient>
		<linearGradient id="g81" x1="347.4" y1="334" x2="417.1" y2="334" gradientUnits="userSpaceOnUse">
			<stop offset="0" stop-color="#b3b3b3"/>
			<stop offset=".2" stop-color="#ffffff"/>
			<stop offset="1" stop-color="#b3b3b3"/>
		</linearGradient>
		<linearGradient id="g82" x1="347.4" y1="334" x2="417.1" y2="334" gradientUnits="userSpaceOnUse">
			<stop offset="0" stop-color="#b3b3b3"/>
			<stop offset=".2" stop-color="#ffffff"/>
			<stop offset="1" stop-color="#b3b3b3"/>
		</linearGradient>
		<linearGradient id="g83" x1="347.4" y1="334" x2="417.1" y2="334" gradientUnits="userSpaceOnUse">
			<stop offset="0" stop-color="#b3b3b3"/>
			<stop offset=".2" stop-color="#ffffff"/>
			<stop offset="1" stop-color="#b3b3b3"/>
		</linearGradient>
		<linearGradient id="g84" x1="347.4" y1="334" x2="417.1" y2="334" gradientUnits="userSpaceOnUse">
			<stop offset="0" stop-color="#b3b3b3"/>
			<stop offset=".2" stop-color="#ffffff"/>
			<stop offset="1" stop-color="#b3b3b3"/>
		</linearGradient>
		<linearGradient id="g85" x1="347.4" y1="334" x2="417.1" y2="334" gradientUnits="userSpaceOnUse">
			<stop offset="0" stop-color="#b3b3b3"/>
			<stop offset=".2" stop-color="#ffffff"/>
			<stop offset="1" stop-color="#b3b3b3"/>
		</linearGradient>
		<linearGradient id="g86" x1="347.4" y1="334" x2="417.1" y2="334" gradientUnits="userSpaceOnUse">
			<stop offset="0" stop-color="#b3b3b3"/>
			<stop offset=".2" stop-color="#ffffff"/>
			<stop offset="1" stop-color="#b3b3b3"/>
		</linearGradient>
		<linearGradient id="g87" x1="347.4" y1="334" x2="417.1" y2="334" gradientUnits="userSpaceOnUse">
			<stop offset="0" stop-color="#b3b3b3"/>
			<stop offset=".2" stop-color="#ffffff"/>
			<stop offset="1" stop-color="#b3b3b3"/>
		</linearGradient>
		<linearGradient id="g88" x1="347.4" y1="334" x2="417.1" y2="334" gradientUnits="userSpaceOnUse">
			<stop offset="0" stop-color="#b3b3b3"/>
			<stop offset=".2" stop-color="#ffffff"/>
			<stop offset="1" stop-color="#b3b3b3"/>
		</linearGradient>
		<linearGradient id="g89" x1="347.4" y1="334" x2="417.1" y2="334" gradientUnits="userSpaceOnUse">
			<stop offset="0" stop-color="#b3b3b3"/>
			<stop offset=".2" stop-color="#ffffff"/>
			<stop offset="1" stop-color="#b3b3b3"/>
		</linearGradient>
		<linearGradient id="g90" x1="347.4" y1="334" x2="417.1" y2="334" gradientUnits="userSpaceOnUse">
			<stop offset="0" stop-color="#b3b3b3"/>
			<stop offset=".2" stop-color="#ffffff"/>
			<stop offset="1" stop-color="#b3b3b3"/>
		</linearGradient>
		<linearGradient id="g91" x1="347.4" y1="334" x2="417.1" y2="334" gradientUnits="userSpaceOnUse">
			<stop offset="0" stop-color="#b3b3b3"/>
			<stop offset=".2" stop-color="#ffffff"/>
			<stop offset="1" stop-color="#b3b3b3"/>
		</linearGradient>
		<linearGradient id="g92" x1="347.4" y1="334" x2="417.1" y2="334" gradientUnits="userSpaceOnUse">
			<stop offset="0" stop-color="#b3b3b3"/>
			<stop offset=".2" stop-color="#ffffff"/>
			<stop offset="1" stop-color="#b3b3b3"/>
		</linearGradient>
		<linearGradient id="g93" x1="347.4" y1="334" x2="417.1" y2="334" gradientUnits="userSpaceOnUse">
			<stop offset="0" stop-color="#b3b3b3"/>
			<stop offset=".2" stop-color="#ffffff"/>
			<stop offset="1" stop-color="#b3b3b3"/>
		</linearGradient>
		<linearGradient id="g94" x1="347.4" y1="334" x2="417.1" y2="334" gradientUnits="userSpaceOnUse">
			<stop offset="0" stop-color="#b3b3b3"/>
			<stop offset=".2" stop-color="#ffffff"/>
			<stop offset="1" stop-color="#b3b3b3"/>
		</linearGradient>
		<linearGradient id="g95" x1="347.4" y1="334" x2="417.1" y2="334" gradientUnits="userSpaceOnUse">
			<stop offset="0" stop-color="#b3b3b3"/>
			<stop offset=".2" stop-color="#ffffff"/>
			<stop offset="1" stop-color="#b3b3b3"/>
		</linearGradient>
		<linearGradient id="g96" x1="347.4" y1="334" x2="417.1" y2="334" gradientUnits="userSpaceOnUse">
			<stop offset="0" stop-color="#b3b3b3"/>
			<stop offset=".2" stop-color="#ffffff"/>
			<stop offset="1" stop-color="#b3b3b3"/>
		</linearGradient>
		<linearGradient id="g97" x1="347.4" y1="334" x2="417.1" y2="334" gradientUnits="userSpaceOnUse">
			<stop offset="0" stop-color="#b3b3b3"/>
			<stop offset=".2" stop-color="#ffffff"/>
			<stop offset="1" stop-color="#b3b3b3"/>
		</linearGradient>
		<linearGradient id="g98" x1="347.4" y1="334" x2="417.1" y2="334" gradientUnits="userSpaceOnUse">
			<stop offset="0" stop-color="#b3b3b3"/>
			<stop offset=".2" stop-color="#ffffff"/>
			<stop offset="1" stop-color="#b3b3b3"/>
		</linearGradient>
		<linearGradient id="g99" x1="347.4" y1="334" x2="417.1" y2="334" gradientUnits="userSpaceOnUse">
			<stop offset="0" stop-color="#b3b3b3"/>
			<stop offset=".2" stop-color="#ffffff"/>
			<stop offset="1" stop-color="#b3b3b3"/>
		</linearGradient>
		<linearGradient id="g100" x1="84.9" y1="334" x2="154.6" y2="334" gradientUnits="userSpaceOnUse">
			<stop offset="0" stop-color="#b3b3b3"/>
			<stop offset=".2" stop-color="#ffffff"/>
			<stop offset="1" stop-color="#b3b3b3"/>
		</linearGradient>
		<radialGradient id="g101" cx="245.8" cy="132.5" r="274.3" gradientUnits="userSpaceOnUse">
			<stop offset="0" stop-color="#dfdfdf"/>
			<stop offset="1" stop-color="#8a8a8a"/>
		</radialGradient>
		<clipPath clipPathUnits="userSpaceOnUse" id="cp1">
			<path d="m169.72 25.16l0.11-0.99 14.13 1.81-0.11 1z"/>
		</clipPath>
		<radialGradient id="g102" cx="213.5" cy="54.9" r="230.6" gradientUnits="userSpaceOnUse">
			<stop offset="0" stop-color="#f2f2f2"/>
			<stop offset="1" stop-color="#a9a9a9"/>
		</radialGradient>
		<clipPath clipPathUnits="userSpaceOnUse" id="cp2">
			<path d="m279.68 1.26l-2.66 39.04 39.78 3 6.3-37.91c21.24 2.74 41.99 6.49 62.34 11.01l-7.35 37.39 39.41 11.32 10.41-37.99q21.71 6.11 42.97 13.23l-20.26 66.38c-123.97-43.4-241.23-56.79-414.21 2.33l-16.89-73.39c15.84-4.96 31.36-9.31 46.61-13.17l10.38 40.53 41.96-11.33-9.4-38.84c20.26-3.93 40.01-6.88 59.3-8.97l6.02 39.81 40.42-3.72-2.77-39.4q8.66-0.36 17.21-0.5c17.15-0.27 33.95 0.16 50.43 1.18z"/>
		</clipPath>
		<clipPath clipPathUnits="userSpaceOnUse" id="cp3">
			<path d=""/>
		</clipPath>
		<radialGradient id="g103" cx="179.8" cy="96.1" r="332.7" gradientUnits="userSpaceOnUse">
			<stop offset="0" stop-color="#9b9b9b"/>
			<stop offset="1" stop-color="#808080" stop-opacity="0"/>
		</radialGradient>
		<radialGradient id="g104" cx="179.8" cy="96.1" r="332.7" gradientUnits="userSpaceOnUse">
			<stop offset="0" stop-color="#9b9b9b"/>
			<stop offset="1" stop-color="#808080" stop-opacity="0"/>
		</radialGradient>
		<radialGradient id="g105" cx="179.8" cy="96.1" r="332.7" gradientUnits="userSpaceOnUse">
			<stop offset="0" stop-color="#9b9b9b"/>
			<stop offset="1" stop-color="#808080" stop-opacity="0"/>
		</radialGradient>
		<radialGradient id="g106" cx="179.8" cy="96.1" r="332.7" gradientUnits="userSpaceOnUse">
			<stop offset="0" stop-color="#9b9b9b"/>
			<stop offset="1" stop-color="#808080" stop-opacity="0"/>
		</radialGradient>
		<radialGradient id="g107" cx="179.8" cy="96.1" r="332.7" gradientUnits="userSpaceOnUse">
			<stop offset="0" stop-color="#9b9b9b"/>
			<stop offset="1" stop-color="#808080" stop-opacity="0"/>
		</radialGradient>
		<radialGradient id="g108" cx="179.8" cy="96.1" r="332.7" gradientUnits="userSpaceOnUse">
			<stop offset="0" stop-color="#9b9b9b"/>
			<stop offset="1" stop-color="#808080" stop-opacity="0"/>
		</radialGradient>
		<radialGradient id="g109" cx="179.8" cy="96.1" r="332.7" gradientUnits="userSpaceOnUse">
			<stop offset="0" stop-color="#9b9b9b"/>
			<stop offset="1" stop-color="#808080" stop-opacity="0"/>
		</radialGradient>
		<radialGradient id="g110" cx="179.8" cy="96.1" r="332.7" gradientUnits="userSpaceOnUse">
			<stop offset="0" stop-color="#9b9b9b"/>
			<stop offset="1" stop-color="#808080" stop-opacity="0"/>
		</radialGradient>
		<clipPath clipPathUnits="userSpaceOnUse" id="cp4">
			<path d="m85.87 43.78v1l-14.25-0.25v-1z"/>
		</clipPath>
		<clipPath clipPathUnits="userSpaceOnUse" id="cp5">
			<path d="m408.5 48.84v-1l14.25-0.25v1z"/>
		</clipPath>
		<clipPath clipPathUnits="userSpaceOnUse" id="cp6">
			<path d="m306.4 30.01l-0.2-0.98 13.91-3.08 0.2 0.98z"/>
		</clipPath>
		<radialGradient id="g111" cx="139.2" cy="323.1" r="381.6" gradientUnits="userSpaceOnUse">
			<stop offset="0" stop-color="#ffffff"/>
			<stop offset=".5" stop-color="#ffffff" stop-opacity=".6"/>
			<stop offset=".6" stop-color="#ffffff" stop-opacity=".5"/>
			<stop offset="1" stop-color="#ffffff" stop-opacity="0"/>
		</radialGradient>
	</defs>
	<style>
		.s0 { fill: url(#g1) } 
		.s1 { fill: url(#g2) } 
		.s2 { fill: #ffffff } 
		.s3 { fill: url(#g3) } 
		.s4 { fill: url(#g4) } 
		.s5 { fill: #ffffff;stroke: #000000 } 
		.s6 { fill: none;stroke: #000000;stroke-width: .3 } 
		.s7 { fill: #000000 } 
		.s8 { fill: url(#g5);stroke: #000000;stroke-width: 3 } 
		.s9 { fill: #ffffff;stroke: #000000;stroke-linejoin: round;stroke-width: 3 } 
		.s10 { fill: #ffffff;stroke: #000000;stroke-width: 1.7 } 
		.s11 { fill: url(#g6);stroke: #000000;stroke-linejoin: round;stroke-width: 1.7 } 
		.s12 { fill: url(#g7);stroke: #000000;stroke-width: 2 } 
		.s13 { fill: url(#g8) } 
		.s14 { fill: url(#g9);stroke: #000000;stroke-linejoin: round;stroke-width: 3 } 
		.s15 { fill: #ffffff;stroke: #000000;stroke-linejoin: round;stroke-width: 1.7 } 
		.s16 { fill: #ffffff;stroke: #000000;stroke-linejoin: round;stroke-width: 1.3 } 
		.s17 { fill: #000000;stroke: #000000;stroke-linejoin: round;stroke-width: .9 } 
		.s18 { fill: url(#g10);stroke: #000000;stroke-width: 3 } 
		.s19 { fill: url(#g11);stroke: #000000;stroke-width: 3 } 
		.s20 { fill: url(#g12);stroke: #000000;stroke-width: 3 } 
		.s21 { fill: url(#g13);stroke: #000000;stroke-width: 3 } 
		.s22 { fill: url(#g14);stroke: #000000;stroke-width: 3.1 } 
		.s23 { fill: url(#g15);stroke: #000000;stroke-width: 3 } 
		.s24 { fill: url(#g16);stroke: #000000;stroke-width: 3 } 
		.s25 { fill: url(#g17);stroke: #333333;stroke-width: 2 } 
		.s26 { fill: url(#g18);stroke: #333333;stroke-width: 2 } 
		.s27 { fill: url(#g19) } 
		.s28 { fill: url(#g20) } 
		.s29 { fill: url(#g21) } 
		.s30 { fill: url(#g22) } 
		.s31 { fill: url(#g23) } 
		.s32 { fill: url(#g24) } 
		.s33 { fill: url(#g25) } 
		.s34 { fill: url(#g26) } 
		.s35 { fill: url(#g27) } 
		.s36 { fill: url(#g28) } 
		.s37 { fill: url(#g29) } 
		.s38 { fill: url(#g30) } 
		.s39 { fill: url(#g31) } 
		.s40 { fill: url(#g32) } 
		.s41 { fill: url(#g33) } 
		.s42 { fill: url(#g34) } 
		.s43 { fill: url(#g35) } 
		.s44 { fill: url(#g36) } 
		.s45 { fill: url(#g37) } 
		.s46 { fill: url(#g38) } 
		.s47 { fill: url(#g39) } 
		.s48 { fill: url(#g40) } 
		.s49 { fill: url(#g41) } 
		.s50 { fill: url(#g42) } 
		.s51 { fill: url(#g43) } 
		.s52 { fill: url(#g44) } 
		.s53 { fill: url(#g45) } 
		.s54 { fill: url(#g46) } 
		.s55 { fill: url(#g47) } 
		.s56 { fill: url(#g48) } 
		.s57 { fill: url(#g49) } 
		.s58 { fill: url(#g50) } 
		.s59 { fill: url(#g51) } 
		.s60 { fill: url(#g52) } 
		.s61 { fill: url(#g53) } 
		.s62 { fill: url(#g54) } 
		.s63 { fill: url(#g55) } 
		.s64 { fill: url(#g56) } 
		.s65 { fill: url(#g57) } 
		.s66 { fill: url(#g58) } 
		.s67 { fill: url(#g59) } 
		.s68 { fill: url(#g60) } 
		.s69 { fill: url(#g61) } 
		.s70 { fill: url(#g62) } 
		.s71 { fill: url(#g63) } 
		.s72 { fill: url(#g64) } 
		.s73 { fill: url(#g65) } 
		.s74 { fill: url(#g66) } 
		.s75 { fill: url(#g67) } 
		.s76 { fill: url(#g68) } 
		.s77 { fill: url(#g69) } 
		.s78 { fill: url(#g70) } 
		.s79 { fill: url(#g71);stroke: #333333;stroke-width: 2 } 
		.s80 { fill: url(#g72) } 
		.s81 { fill: url(#g73) } 
		.s82 { fill: url(#g74) } 
		.s83 { fill: url(#g75) } 
		.s84 { fill: url(#g76) } 
		.s85 { fill: url(#g77) } 
		.s86 { fill: url(#g78) } 
		.s87 { fill: url(#g79) } 
		.s88 { fill: url(#g80) } 
		.s89 { fill: url(#g81) } 
		.s90 { fill: url(#g82) } 
		.s91 { fill: url(#g83) } 
		.s92 { fill: url(#g84) } 
		.s93 { fill: url(#g85) } 
		.s94 { fill: url(#g86) } 
		.s95 { fill: url(#g87) } 
		.s96 { fill: url(#g88) } 
		.s97 { fill: url(#g89) } 
		.s98 { fill: url(#g90) } 
		.s99 { fill: url(#g91) } 
		.s100 { fill: url(#g92) } 
		.s101 { fill: url(#g93) } 
		.s102 { fill: url(#g94) } 
		.s103 { fill: url(#g95) } 
		.s104 { fill: url(#g96) } 
		.s105 { fill: url(#g97) } 
		.s106 { fill: url(#g98) } 
		.s107 { fill: url(#g99) } 
		.s108 { fill: url(#g100) } 
		.s109 { fill: #cccccc } 
		.s110 { fill: #4d4d4d;stroke: #333333;stroke-width: 2 } 
		.s111 { fill: #1a1a1a } 
		.s112 { fill: #666666 } 
		.s113 { fill: url(#g101) } 
		.s114 { fill: #808080 } 
		.s115 { fill: #d2d2d2 } 
		.s116 { fill: #626262 } 
		.s117 { fill: url(#g102) } 
		.s118 { fill: none } 
		.s119 { fill: none;stroke: #828282 } 
		.s120 { fill: none;stroke: #929292 } 
		.s121 { fill: url(#g103) } 
		.s122 { fill: url(#g104) } 
		.s123 { fill: url(#g105) } 
		.s124 { fill: url(#g106) } 
		.s125 { fill: url(#g107) } 
		.s126 { fill: url(#g108) } 
		.s127 { fill: url(#g109) } 
		.s128 { fill: url(#g110) } 
		.s129 { fill: #686868 } 
		.s130 { fill: #a0a0a0 } 
		.s131 { fill: #b0b0b0 } 
		.s132 { opacity: .3;fill: url(#g111) } 
	</style>
	<g id="layer1">
		<path id="path3770" class="s0" d="m4.1 147.7h240.9 240.9c7.2 179.9 3.4 227.5-15 300.8-20.2 80.3-98.3 192-225.9 223.7-96.4-20.6-191.9-101.2-231.7-223.7-21.7-79.1-10.7-296.1-9.2-300.8z"/>
		<path id="path4180" class="s1" d="m11 152.5h234.1 234c7 176.6 3.4 223.4-14.5 295.3-19.6 78.8-95.5 188.5-219.5 219.6-93.7-20.3-186.5-99.3-225.2-219.6-23-72.9-10.3-290.7-8.9-295.3z"/>
		<path id="path4182" class="s2" d="m20.1 162.6h225 225.1c6.7 169.7 3.2 214.6-14 283.7-18.9 75.8-91.8 181.1-211.1 211-90.1-19.5-179.3-95.4-216.5-211-12.5-48.1-10-279.3-8.5-283.7z"/>
		<path id="path4184" class="s3" d="m246 162.5h225c6.8 169.8 3.2 214.7-14 283.8-3 12.1-7.4 25-13.1 38.2h-399.7c-5.5-12.2-10.5-24.9-14.7-38.2-22.5-70.6-10-279.3-8.6-283.8z"/>
		<path id="path4191" class="s4" d="m472.8 326.1q-0.2 8.4-0.7 16.1 0.5-7.7 0.7-16.1zm-1.1 23.6q-0.5 7.4-1.1 14.4 0.6-7 1.1-14.4zm-2.5 27.9c-0.5 4.4-1.1 8.6-1.7 12.8 0.6-4.2 1.2-8.4 1.7-12.8zm-1.7 12.8q-0.8 5.9-1.8 11.6 1-5.7 1.8-11.6zm-2.1 13.4c-2.5 14.1-5.5 27.7-9.2 42.5 3.7-14.8 6.7-28.5 9.2-42.5zm-10.5 47.3q-0.6 2.2-1.3 4.4 0.7-2.2 1.3-4.4zm-1.3 4.4q-0.6 2.3-1.4 4.6 0.8-2.3 1.4-4.6zm-5 15.1q-0.6 1.7-1.3 3.4 0.7-1.7 1.3-3.4zm-5.6 13.9c-30.2 69.3-97.7 147.7-197.9 172.8-79.7-17.2-157.9-78.7-200.8-172.8z"/>
		<path id="path5007" class="s5" d="m238.2 520.1h18.2l36.6-3.3 0.2 16.4-36.8-4.3h-17.7l-40.9 4.3-0.8-16.6z"/>
		<path id="path3532" class="s6" d=""/>
		<path id="path5326" class="s7" d="m227.5 549.4c5.7 3.5 17.9-1.4 21.7-1.5 5.7-1 11.4 0.1 17.2-0.3 3.7 0 7.8-0.8 10.5 2.4 2.6 1.7 5.8 0.9 8.3 2.9 1.9 3 6.4 1.6 8.4 4.7 1 4.6 4.5 8.1 6.2 12.4 1.1 5.2-3.4 9.5-3.7 14.6-0.7 3.7 1.1 8.8-3 11-14.8 6.6-29.1 0.9-43.6 0.6-4.3 0.1-8-3.2-12.4-2.5-0.1-1-7.5-2-3.4-11.6-2.8 1.2-5.1-1.5-2.9-11.4-2.1-3.1-4.4-5.5-2.7-9.1 0.7-1.9-5-9.5-0.6-12.2z"/>
		<g id="g5340">
			<path id="path5336" class="s8" d="m257.3 600.7l0.3 5.1 4.8 5c-2.7 7.4-2.9 14.4-13.2 20-9.5-5.7-11.2-12.7-12.9-19.7l4.8-4.8v-5.6z"/>
			<g id="g4220">
				<path id="path4222" class="s9" d="m258.4 523.4h-22.6c3.6-6 2.9-8.2 0-13.1l-0.4-127.1c0-15.6 1.3-22.3 11.3-33.3 9.8 10.7 11.3 17.1 11.3 33.3l0.4 127.1c-2.9 4.7-3.9 6.7 0 13.1z"/>
				<path id="path4224" fill-rule="evenodd" class="s10" d="m247 352l0.1 152.2"/>
				<path id="path4226" class="s11" d="m259.6 600c-3.2 2.2-11.6 2.4-12.4 2.4-0.8 0-8.8-0.2-11.9-2.5-2-2.2 4-11.1 5.5-12.9 6.3 1.6 6.6 1.7 13.1 0.2 1.3 1.5 7.9 10.1 5.7 12.8z"/>
				<path id="path4228" fill-rule="evenodd" class="s12" d="m254.2 586.8c-4.1 2.3-9.1 2.7-13.7-0.2l-1-58.1c2.9-2.6 9.8-3.7 16.3-1.3z"/>
				<path id="path5502" class="s13" d="m258 385.2l0.4 125.1c-2.9 4.7-3.9 6.7 0 13.1h-11.7v-171.5c9.8 10.8 11.3 17.1 11.3 33.3z"/>
				<path id="path4230" fill-rule="evenodd" class="s10" d="m237.1 506.1c3.4-0.3 7.5-0.7 10-2.1 2.3 1.4 7.2 1.9 11.1 2.1"/>
				<path id="path4232" class="s14" d="m258.1 528.8c-6.8-1.7-12.6-1.7-19.3 0-12.4 0-42.9 5.1-41.7 3.7l0.2-15.2c40.4 3.2 40.8 5.4 49.4 1.1 9.6 4.8 31.6-1.1 45.4-1.9l0.3 16.5c-21-3-31.3-3.5-34.3-4.2z"/>
				<path id="path4238" class="s15" d="m254.6 529.7q-0.4 0-0.8 0-0.1 0-0.2 0-0.8 0.1-1.5 0.2-0.2 0-0.3 0c-0.2 0.1-0.6 0.1-0.7 0.2q-0.7 0.1-1.4 0.2c-1.1 0.2-2.2 0.4-3.4 0.6q-1.2 0.2-2.5 0.4-0.5 0.1-1.1 0.2-0.8 0.2-1.7 0.3c2.3-0.5 1.1-0.2 0.6-0.1-0.1 0.1-0.3 0.1-0.4 0.1q-0.2 0.1-0.4 0.2l-1.4 0.2q0.2-0.1 0.4-0.2c0.3-0.1 0.1 0 0.4-0.1q0.1 0 0.2-0.1 0.1 0 0.2 0c1.1-0.3-2.9 0.6 1.7-0.4q0.7-0.1 1.5-0.3 1.8-0.3 3.6-0.6c1.1-0.2 2.3-0.4 3.4-0.6q1.2-0.2 2.5-0.4 0.8-0.1 1.5-0.2 0.2 0 0.3 0 0.4 0 0.8 0c0 0-1.3 0.4-1.3 0.4z"/>
				<path id="path4240" class="s15" d="m254.4 533.4q-0.4-0.1-0.8 0-0.1 0-0.2 0-0.8 0.1-1.5 0.2-0.2 0-0.3 0c-0.2 0-0.6 0.1-0.7 0.1q-0.7 0.1-1.4 0.2c-1.1 0.2-2.2 0.4-3.4 0.6q-1.2 0.2-2.5 0.4-0.5 0.1-1.1 0.2-0.8 0.2-1.7 0.4c2.3-0.5 1.1-0.3 0.6-0.1-0.1 0-0.3 0-0.4 0.1q-0.2 0.1-0.4 0.1l-1.4 0.2q0.2-0.1 0.4-0.1c0.3-0.1 0.1-0.1 0.4-0.2q0.1 0 0.2 0 0.1-0.1 0.2-0.1c1.1-0.2-2.9 0.7 1.7-0.4q0.7-0.1 1.5-0.2 1.8-0.3 3.6-0.6c1.1-0.2 2.3-0.5 3.4-0.7q1.2-0.2 2.5-0.3 0.8-0.1 1.5-0.2 0.2 0 0.3 0 0.4-0.1 0.8-0.1c0 0-1.3 0.5-1.3 0.5z"/>
				<path id="path4242" class="s15" d="m254.2 536.7q-0.3 0-0.7 0-0.1 0-0.2 0-0.7 0.1-1.5 0.2-0.1 0-0.3 0c-0.2 0-0.5 0.1-0.7 0.1q-0.6 0.1-1.3 0.2c-1 0.2-2.1 0.4-3.2 0.6q-1.2 0.2-2.4 0.4-0.5 0.1-1.1 0.2-0.8 0.2-1.6 0.3c2.2-0.4 1-0.2 0.5-0.1-0.1 0.1-0.2 0.1-0.3 0.2q-0.2 0-0.4 0.1l-1.3 0.2q0.1-0.1 0.4-0.2c0.2-0.1 0 0 0.3-0.1q0.1 0 0.2-0.1 0.1 0 0.2 0c1-0.3-2.8 0.6 1.6-0.4q0.7-0.1 1.5-0.2 1.7-0.3 3.4-0.6c1.1-0.2 2.2-0.4 3.3-0.6q1.2-0.2 2.4-0.4 0.7-0.1 1.5-0.2 0.1 0 0.2 0 0.4 0 0.8 0c0 0-1.3 0.4-1.3 0.4z"/>
				<path id="path4244" class="s15" d="m253.8 540.1q-0.3 0-0.7 0-0.1 0-0.2 0-0.7 0.1-1.4 0.2-0.1 0-0.3 0c-0.1 0.1-0.4 0.1-0.6 0.1q-0.6 0.1-1.2 0.3c-1.1 0.1-2.1 0.4-3.1 0.6q-1.2 0.2-2.3 0.4-0.5 0.1-1.1 0.2-0.7 0.1-1.5 0.3c2.1-0.5 0.9-0.2 0.5-0.1-0.1 0-0.2 0.1-0.3 0.1q-0.2 0.1-0.4 0.2l-1.3 0.2q0.2-0.1 0.4-0.2c0.3-0.1 0.1 0 0.4-0.1q0 0 0.1-0.1 0.1 0 0.2 0c1-0.3-2.6 0.6 1.6-0.4q0.6-0.1 1.3-0.3 1.7-0.3 3.3-0.6c1.1-0.2 2.1-0.4 3.2-0.6q1.1-0.2 2.2-0.4 0.7-0.1 1.4-0.2 0.2 0 0.3 0 0.4 0 0.7 0c0 0-1.2 0.4-1.2 0.4z"/>
				<path id="path4246" class="s15" d="m253.7 543.7q-0.4 0-0.7 0-0.1 0.1-0.3 0.1-0.6 0.1-1.4 0.1-0.1 0.1-0.2 0.1c-0.2 0-0.5 0.1-0.7 0.1q-0.6 0.1-1.2 0.2c-1.1 0.2-2.1 0.4-3.1 0.6q-1.2 0.2-2.3 0.4-0.5 0.1-1 0.2-0.8 0.2-1.6 0.4c2.1-0.5 1-0.3 0.5-0.1-0.1 0-0.2 0-0.3 0.1q-0.2 0.1-0.4 0.1l-1.3 0.2q0.2-0.1 0.4-0.1c0.3-0.1 0.1-0.1 0.4-0.2q0.1 0 0.2 0 0-0.1 0.1-0.1c1-0.2-2.6 0.7 1.6-0.4q0.7-0.1 1.4-0.2 1.6-0.3 3.3-0.7c1-0.1 2-0.4 3.1-0.6q1.1-0.2 2.2-0.3 0.8-0.1 1.5-0.2 0.1 0 0.2 0 0.4-0.1 0.8-0.1c0 0-1.2 0.4-1.2 0.4z"/>
				<path id="path4248" class="s15" d="m254 547.1q-0.3 0-0.7 0-0.1 0-0.2 0-0.7 0.1-1.4 0.2-0.1 0-0.3 0c-0.2 0.1-0.5 0.1-0.6 0.1q-0.7 0.1-1.3 0.3c-1 0.1-2 0.4-3.1 0.6q-1.1 0.2-2.3 0.4-0.5 0.1-1 0.2-0.8 0.1-1.5 0.3c2-0.5 0.9-0.2 0.5-0.1-0.1 0-0.3 0.1-0.4 0.1q-0.2 0.1-0.3 0.2l-1.3 0.2q0.2-0.1 0.4-0.2c0.2-0.1 0.1 0 0.3-0.1q0.1 0 0.2-0.1 0.1 0 0.2 0c0.9-0.3-2.6 0.6 1.5-0.4q0.7-0.1 1.4-0.3 1.7-0.3 3.3-0.6c1.1-0.2 2.1-0.4 3.1-0.6q1.2-0.2 2.3-0.4 0.7-0.1 1.4-0.2 0.1 0 0.3 0 0.3 0 0.7 0c0 0-1.2 0.4-1.2 0.4z"/>
				<path id="path4250" class="s15" d="m253.4 550.9q-0.3-0.1-0.6 0-0.1 0-0.2 0-0.7 0.1-1.3 0.2-0.1 0-0.3 0c-0.1 0-0.4 0.1-0.6 0.1q-0.6 0.1-1.1 0.2c-1 0.2-1.9 0.4-2.9 0.6q-1.1 0.2-2.2 0.5-0.4 0.1-0.9 0.2-0.7 0.1-1.4 0.3c1.9-0.5 0.8-0.3 0.4-0.1-0.1 0-0.2 0.1-0.3 0.1q-0.2 0.1-0.3 0.2l-1.2 0.1q0.1 0 0.3-0.1c0.3-0.1 0.1-0.1 0.4-0.2q0 0 0.1 0 0.1 0 0.2-0.1c0.9-0.2-2.5 0.7 1.4-0.3q0.7-0.2 1.3-0.3 1.6-0.3 3.1-0.6c1-0.2 1.9-0.5 2.9-0.7q1-0.2 2.1-0.3 0.7-0.1 1.3-0.2 0.1 0 0.3 0 0.3 0 0.7-0.1c0 0-1.2 0.5-1.2 0.5z"/>
				<path id="path4252" class="s15" d="m253.3 554.5q-0.4 0-0.7 0-0.1 0-0.2 0-0.6 0.1-1.3 0.2-0.1 0-0.2 0c-0.2 0.1-0.5 0.1-0.7 0.1q-0.5 0.2-1.1 0.3c-1 0.2-1.9 0.4-2.9 0.6q-1 0.2-2.1 0.4-0.5 0.1-1 0.2-0.7 0.2-1.4 0.3c1.9-0.5 0.9-0.2 0.5-0.1-0.1 0.1-0.3 0.1-0.4 0.1q-0.1 0.1-0.3 0.2l-1.2 0.2q0.2-0.1 0.4-0.2c0.2-0.1 0 0 0.3-0.1q0.1 0 0.2-0.1 0 0 0.1 0c0.9-0.3-2.4 0.6 1.5-0.4q0.6-0.1 1.2-0.3 1.6-0.3 3.1-0.6c1-0.2 2-0.4 2.9-0.6q1.1-0.2 2.1-0.4 0.7-0.1 1.4-0.2 0.1 0 0.2 0 0.3 0 0.7 0c0 0-1.1 0.4-1.1 0.4z"/>
				<path id="path4254" class="s15" d="m253.6 557.9q-0.3 0-0.7 0-0.1 0-0.2 0-0.6 0.1-1.3 0.2-0.1 0-0.2 0c-0.2 0-0.5 0.1-0.6 0.1q-0.6 0.1-1.2 0.2c-0.9 0.2-1.9 0.4-2.9 0.6q-1 0.3-2.1 0.5-0.5 0.1-1 0.2-0.7 0.1-1.4 0.3c1.9-0.5 0.9-0.3 0.5-0.1-0.1 0-0.3 0.1-0.3 0.1q-0.2 0.1-0.4 0.2l-1.2 0.2q0.2-0.1 0.4-0.2c0.2-0.1 0.1 0 0.3-0.1q0.1-0.1 0.2-0.1 0.1 0 0.1-0.1c0.9-0.2-2.4 0.7 1.5-0.3q0.6-0.2 1.3-0.3 1.5-0.3 3.1-0.6c0.9-0.2 1.9-0.4 2.9-0.6q1-0.3 2.1-0.4 0.6-0.1 1.3-0.2 0.1 0 0.2 0 0.4 0 0.7 0c0 0-1.1 0.4-1.1 0.4z"/>
				<path id="path4256" class="s15" d="m253.4 577.3q-0.3 0-0.6 0-0.1 0-0.2 0-0.6 0.1-1.3 0.2-0.1 0-0.3 0c-0.1 0-0.4 0.1-0.6 0.1q-0.6 0.1-1.1 0.2c-1 0.2-1.9 0.4-2.9 0.6q-1.1 0.3-2.2 0.5-0.4 0.1-0.9 0.2-0.7 0.1-1.4 0.3c1.9-0.5 0.8-0.3 0.4-0.1-0.1 0-0.2 0.1-0.3 0.1q-0.2 0.1-0.3 0.2l-1.2 0.2q0.2-0.1 0.3-0.2c0.3-0.1 0.1 0 0.4-0.1q0-0.1 0.1-0.1 0.1 0 0.2-0.1c0.9-0.2-2.4 0.7 1.4-0.3q0.7-0.2 1.3-0.3 1.6-0.3 3.1-0.6c1-0.2 1.9-0.4 2.9-0.6q1.1-0.3 2.1-0.4 0.7-0.1 1.3-0.2 0.2 0 0.3 0 0.3 0 0.7 0c0 0-1.2 0.4-1.2 0.4z"/>
				<path id="path4258" class="s15" d="m253.3 580.9q-0.3 0-0.7 0-0.1 0-0.2 0-0.6 0.1-1.3 0.2-0.1 0-0.2 0.1c-0.2 0-0.5 0-0.6 0.1q-0.6 0.1-1.2 0.2c-1 0.2-1.9 0.4-2.9 0.6q-1 0.2-2.1 0.4-0.5 0.1-1 0.2-0.7 0.2-1.4 0.3c1.9-0.5 0.9-0.2 0.5-0.1-0.1 0.1-0.3 0.1-0.4 0.2q-0.1 0-0.3 0.1l-1.2 0.2q0.2-0.1 0.4-0.2c0.2-0.1 0.1 0 0.3-0.1q0.1 0 0.2-0.1 0 0 0.1 0c0.9-0.3-2.4 0.6 1.5-0.4q0.6-0.1 1.3-0.2 1.5-0.3 3-0.7c1-0.2 2-0.4 2.9-0.6q1.1-0.2 2.2-0.4 0.6-0.1 1.3-0.2 0.1 0 0.2 0 0.4 0 0.7 0c0 0-1.1 0.4-1.1 0.4z"/>
				<path id="path4260" class="s16" d="m247.4 602.7q0-0.3 0-0.6 0-0.2 0-0.5 0-0.3 0-0.7 0-0.3 0-0.7 0-0.3 0-0.7 0-0.4 0-0.8 0-0.3 0-0.7 0-0.3 0-0.6 0-0.4 0-0.8 0-0.4 0-0.7 0-0.3 0-0.6 0-0.3 0-0.6 0-0.2 0-0.5 0-0.2 0-0.5 0-0.2 0-0.4 0-0.2 0-0.5 0-0.2 0-0.5 0-0.3 0-0.5 0-0.2 0-0.5 0-0.2 0-0.3 0-0.2 0-0.4 0-0.2 0-0.3 0-0.2 0-0.4 0-0.2 0-0.3 0-0.2 0-0.4 0-0.2 0-0.4 0-0.2 0-0.4 0-0.1 0-0.2l0.1-0.4q0 0.1 0 0.2 0 0.2 0 0.4 0 0.2 0 0.4 0 0.1 0 0.3 0 0.2 0 0.4 0 0.2 0 0.4 0 0.1 0 0.3 0 0.1 0 0.3 0 0.2 0 0.4 0 0.2 0 0.5 0 0.2 0 0.4 0 0.3 0 0.6 0 0.2 0 0.5 0 0.2 0 0.4 0 0.2 0 0.5 0 0.2 0 0.5 0 0.3 0 0.6 0 0.3 0 0.6 0 0.3 0 0.6 0 0.5 0 0.9 0 0.3 0 0.6 0 0.4 0 0.7 0 0.4 0 0.8 0 0.3 0 0.7 0 0.3 0 0.7 0 0.3 0 0.7 0 0.2 0 0.5 0 0.3 0 0.6z"/>
				<path id="path4262" class="s17" d="m240.5 588.4c-4.5 9.9-3.9 11.7 0.7 12.4 1.9 0.3 5.7 1.1 6.2-1.2l-0.2 2.7-12.6-2.5c0.5-4.7 2.6-6.6 5.9-11.4z"/>
				<path id="path5318" class="s15" d="m253.4 573.3q-0.3 0-0.6 0-0.1 0-0.2 0-0.6 0.1-1.3 0.2-0.1 0-0.3 0c-0.1 0-0.4 0.1-0.6 0.1q-0.6 0.1-1.1 0.2c-1 0.2-1.9 0.4-2.9 0.6q-1.1 0.3-2.2 0.5-0.4 0.1-0.9 0.2-0.7 0.1-1.4 0.3c1.9-0.5 0.8-0.3 0.4-0.1-0.1 0-0.2 0.1-0.3 0.1q-0.2 0.1-0.3 0.2l-1.2 0.2q0.2-0.1 0.3-0.2c0.3-0.1 0.1 0 0.4-0.1q0-0.1 0.1-0.1 0.1 0 0.2-0.1c0.9-0.2-2.4 0.7 1.4-0.3q0.7-0.2 1.3-0.3 1.6-0.3 3.1-0.6c1-0.2 1.9-0.4 2.9-0.6q1.1-0.3 2.1-0.4 0.7-0.1 1.3-0.2 0.2 0 0.3 0 0.3 0 0.7 0c0 0-1.2 0.4-1.2 0.4z"/>
				<path id="path5320" class="s15" d="m253.4 569.3q-0.3 0-0.6 0-0.1 0-0.2 0-0.6 0.1-1.3 0.2-0.1 0-0.3 0c-0.1 0-0.4 0.1-0.6 0.1q-0.6 0.1-1.1 0.2c-1 0.2-1.9 0.4-2.9 0.6q-1.1 0.3-2.2 0.5-0.4 0.1-0.9 0.2-0.7 0.1-1.4 0.3c1.9-0.5 0.8-0.3 0.4-0.1-0.1 0-0.2 0.1-0.3 0.1q-0.2 0.1-0.3 0.2l-1.2 0.2q0.2-0.1 0.3-0.2c0.3-0.1 0.1 0 0.4-0.1q0-0.1 0.1-0.1 0.1 0 0.2-0.1c0.9-0.2-2.4 0.7 1.4-0.3q0.7-0.2 1.3-0.3 1.6-0.3 3.1-0.6c1-0.2 1.9-0.4 2.9-0.6q1.1-0.3 2.1-0.4 0.7-0.1 1.3-0.2 0.2 0 0.3 0 0.3 0 0.7 0c0 0-1.2 0.4-1.2 0.4z"/>
				<path id="path5322" class="s15" d="m253.4 565.3q-0.3 0-0.6 0-0.1 0-0.2 0-0.6 0.1-1.3 0.2-0.1 0-0.3 0c-0.1 0-0.4 0.1-0.6 0.1q-0.6 0.1-1.1 0.2c-1 0.2-1.9 0.4-2.9 0.6q-1.1 0.3-2.2 0.5-0.4 0.1-0.9 0.2-0.7 0.1-1.4 0.3c1.9-0.5 0.8-0.3 0.4-0.1-0.1 0-0.2 0.1-0.3 0.1q-0.2 0.1-0.3 0.2l-1.2 0.2q0.2-0.1 0.3-0.2c0.3-0.1 0.1 0 0.4-0.1q0-0.1 0.1-0.1 0.1 0 0.2-0.1c0.9-0.2-2.4 0.7 1.4-0.3q0.7-0.2 1.3-0.3 1.6-0.3 3.1-0.6c1-0.2 1.9-0.4 2.9-0.6q1.1-0.3 2.1-0.4 0.7-0.1 1.3-0.2 0.2 0 0.3 0 0.3 0 0.7 0c0 0-1.2 0.4-1.2 0.4z"/>
				<path id="path5324" class="s15" d="m253.4 561.3q-0.3 0-0.6 0-0.1 0-0.2 0-0.6 0.1-1.3 0.2-0.1 0-0.3 0c-0.1 0-0.4 0.1-0.6 0.1q-0.6 0.1-1.1 0.2c-1 0.2-1.9 0.4-2.9 0.6q-1.1 0.3-2.2 0.5-0.4 0.1-0.9 0.2-0.7 0.1-1.4 0.3c1.9-0.5 0.8-0.3 0.4-0.1-0.1 0-0.2 0.1-0.3 0.1q-0.2 0.1-0.3 0.2l-1.2 0.2q0.2-0.1 0.3-0.2c0.3-0.1 0.1 0 0.4-0.1q0-0.1 0.1-0.1 0.1 0 0.2-0.1c0.9-0.2-2.4 0.7 1.4-0.3q0.7-0.2 1.3-0.3 1.6-0.3 3.1-0.6c1-0.2 1.9-0.4 2.9-0.6q1.1-0.3 2.1-0.4 0.7-0.1 1.3-0.2 0.2 0 0.3 0 0.3 0 0.7 0c0 0-1.2 0.4-1.2 0.4z"/>
			</g>
		</g>
		<g id="g5310">
			<path id="path4986" class="s18" d="m241.5 531.3c10.1-11.4 26.2 1.2 36.8 7.7 9.9 6.6 18.2 14.5 15.8 25.8-1.5 4.2-7.2 9.3-11.4 8.6-16.7 0.7-19.7-11.4-24.9-21.6-1.7-3.7-1.9-14.7-9.5-7.7-6.1 5.6-9.1 4.8-18 5.3-7.1 0.8-10.3-4.9-6.4-6.8 7.6-2.9 12-3.9 17.6-11.3z"/>
			<path id="path5001" class="s19" d="m252.9 586.6c5.2 0.6 2.8 8.2 1 9-1.2 1.9-17.4 5-25.3-0.8-1.5-1-2.1-6.3 0-8.5 0.5-0.6 1.6-0.4 2.1-0.6 6.8 3.4 15.2 1.7 22.2 0.9z"/>
			<path id="path4999" class="s20" d="m253.1 574.7c7.4 0.5 4.3 9.9 1.8 10.5-1.3 1.9-20.8 5.1-29.9-0.9-1-1.3-0.7-7.2 0-8.8 0.3-0.8 2.9-1.1 3.4-1.3 8.1 3.8 16.2 1.1 24.7 0.5z"/>
			<path id="path4997" class="s21" d="m254.2 563.9c3.2 3.3 0.6 8.7-0.6 9.1-1.4 2.2-21.5 6.1-31.1-0.5-1.8-2.1-2.7-13.7 2.1-12 9.2 7.4 20.2-0.6 29.6 3.4z"/>
			<path id="path5332" class="s22" d="m234.6 552.8c3.6 3.6 2.3 9.3 1 9.8-1.6 2.4-4.8 3.7-15.3-3.6-2-2.3-1.2-11.2 3.6-11.2 6.6 5 0.5 0.6 10.7 5z"/>
			<path id="path5003" class="s23" d="m258.6 597.1c-0.7-7.9-0.6-16.2 5.6-24.1 10.2-0.4 17.3 5.7 28.2-1.2 1.6 9 2.7 17.8-1 26.9-7.2 2.6-28.1 3.1-32.8-1.6z"/>
			<path id="path5005" class="s24" d="m329.7 557c-6.5 15.5-17.9 27.4-17.5 47.2-5.7-0.9-1.8 0-18.4-3 2.3-16 2.1-32.1 0.5-48.1 12.1 5.8 24.7 3.9 35.4 3.9z"/>
		</g>
		<g id="g4270">
			<path id="rect4914" class="s25" d="m345.5 238.5v220.4h-70.3v-8.6c4.9-0.5 6.3-4.1 6.5-8 0 0 6.3 0 8.9 0 2.6 0 4.1 0 4.1 0v-61.4c0-29.3-21.6-53-48.2-53-26.6 0-48.2 23.7-48.2 53v61.4c0 0 1.5 0 4.2 0 2.6 0 4.4 0 8.9 0-0.5 3.1 3.1 6.5 6.5 6v10.6h-71.7v-220.4c0 0 199.3 0 199.3 0z"/>
			<path id="path4210" class="s26" d="m162.7 193.5l-0.4 51.4-8.6 2.8v39.1l7.1 4.4 0.2 16-1.9 7.6 1.1 151.5 7.5 11.1v7.1l-98.5-0.5 0.5-5.1 9.6-8.6v-154.7l-10.6-3.1 0.5-25 9.5 0.2v-36l-0.4 1.4-8-2.5-0.6-57.1z"/>
			<g id="g3922">
				<path id="rect3776" class="s2" d="m101.2 433.9h27.9v16.8h-27.9z"/>
				<path id="rect3778" class="s2" d="m131.2 433.9h13.9v16.8h-13.9z"/>
				<path id="rect3780" class="s2" d="m85.2 433.9h13.9v16.8h-13.9z"/>
				<path id="rect3782" class="s2" d="m116.5 414.7h28.6v16.8h-28.6z"/>
				<path id="rect3784" class="s2" d="m85.2 414.7h28.9v16.8h-28.9z"/>
				<path id="rect3786" class="s2" d="m101.2 395.4h27.9v16.8h-27.9z"/>
				<path id="rect3788" class="s2" d="m131.2 395.4h13.9v16.8h-13.9z"/>
				<path id="rect3790" class="s2" d="m85.2 395.4h13.9v16.8h-13.9z"/>
				<path id="rect3792" class="s2" d="m131.2 375.7h13.9v16.8h-13.9z"/>
				<path id="rect3794" class="s2" d="m85.2 375.7h13.9v16.8h-13.9z"/>
				<path id="rect3796" class="s2" d="m131.2 355.4h13.9v16.8h-13.9z"/>
				<path id="rect3798" class="s2" d="m85.2 355.4h13.9v16.8h-13.9z"/>
				<path id="rect3800" class="s2" d="m121.2 335.7h23.9v16.8h-13.9c-0.3-4.6-2.3-12-10-16.8z"/>
				<path id="rect3802" class="s2" d="m85.2 335.7h23.9c-7.1 5.3-9.5 9.5-10 16.8h-13.9z"/>
				<path id="rect3804" class="s2" d="m101.2 315.9h27.9v16.8h-27.9z"/>
				<path id="rect3806" class="s2" d="m131.2 315.9h13.9v16.8h-13.9z"/>
				<path id="rect3808" class="s2" d="m85.2 315.9h13.9v16.8h-13.9z"/>
				<path id="rect3812" class="s2" d="m77.5 291.9h77.6v16.8h-77.6z"/>
				<path id="rect3818" class="s2" d="m101.2 251.4h27.9v16.8h-27.9z"/>
				<path id="rect3820" class="s2" d="m131.2 251.4h13.9v16.8h-13.9z"/>
				<path id="rect3822" class="s2" d="m85.2 251.4h13.9v16.8h-13.9z"/>
				<path id="rect3824" class="s2" d="m77.5 227.9h77.6v16.8h-77.6z"/>
				<path id="rect3826" class="s2" d="m97 198.3v16.5h11.1v-16.5h17.9v16.5h11.1v-16.5h18v24.4h-77.6v-24.4z"/>
				<path id="rect3908" class="s2" d="m116.5 452.9h28.6v16.8h-28.6z"/>
				<path id="rect3910" class="s2" d="m85.2 452.9h28.9v16.8h-28.9z"/>
				<path id="rect3912" class="s2" d="m116.5 270.7h28.6v16.8h-28.6z"/>
				<path id="rect3914" class="s2" d="m85.2 270.7h28.9v16.8h-28.9z"/>
				<path id="rect4010" class="s2" d="m163.2 309.6h32.5v15h-32.5z"/>
				<path id="rect4014" class="s2" d="m197.2 309.6h32.5v15h-32.5z"/>
				<path id="rect4016" class="s2" d="m231.2 309.6h32.5v15h-32.5z"/>
				<path id="rect4018" class="s2" d="m299.2 309.6h32.5v15h-32.5z"/>
				<path id="rect4020" class="s2" d="m265.2 309.6h32.5v15h-32.5z"/>
				<path id="rect4034" class="s2" d="m163.2 327.6h15.8v15h-15.8z"/>
				<path id="rect4036" class="s2" d="m181.2 327.6h44.5c-8 4.1-13.2 9.3-18 15h-26.5z"/>
				<path id="rect4039" class="s2" d="m331.7 342.6h-15.8v-15h15.8z"/>
				<path id="path4041" class="s2" d="m313.7 342.6h-26.5c-3.2-6.2-10-10.9-18-15h44.5z"/>
				<path id="path4043" class="s2" d="m162.7 345.6h43c-4.2 4.9-7.5 11.6-8 16l-35-1z"/>
				<path id="path4045" class="s2" d="m331.7 360.6l-35 1c-0.5-4.4-3.8-11.1-8-16h43z"/>
				<path id="rect4047" class="s2" d="m162.7 365.3h16.8v17h-16.8z"/>
				<path id="rect4049" class="s2" d="m181.2 365.3h14.5l-1.1 17h-13.4z"/>
				<path id="rect4052" class="s2" d="m331.7 382.3h-16.8v-17h16.8z"/>
				<path id="path4054" class="s2" d="m313.2 382.3h-13.4l-1.1-17h14.5z"/>
				<path id="rect4056" class="s2" d="m163.2 385.6h31.4v16.8h-31.4z"/>
				<path id="rect4058" class="s2" d="m300.3 385.6h31.4v16.8h-31.4z"/>
				<path id="rect4060" class="s2" d="m163.2 425.6h31.4v16.8h-31.4z"/>
				<path id="rect4062" class="s2" d="m300.3 425.6h31.4v16.8h-31.4z"/>
				<path id="rect4064" class="s2" d="m162.7 405.6h16.8v17h-16.8z"/>
				<path id="rect4066" class="s2" d="m331.7 422.6h-16.8v-17h16.8z"/>
				<path id="rect4068" class="s2" d="m181.2 405.6h13.2v17h-13.2z"/>
			</g>
			<g id="g4271">
				<path id="rect4074" class="s27" d="m101.2 433.9h27.9v16.8h-27.9z"/>
				<path id="rect4076" class="s28" d="m131.2 433.9h13.9v16.8h-13.9z"/>
				<path id="rect4078" class="s29" d="m85.2 433.9h13.9v16.8h-13.9z"/>
				<path id="rect4080" class="s30" d="m116.5 414.7h28.6v16.8h-28.6z"/>
				<path id="rect4082" class="s31" d="m85.2 414.7h28.9v16.8h-28.9z"/>
				<path id="rect4084" class="s32" d="m101.2 395.4h27.9v16.8h-27.9z"/>
				<path id="rect4086" class="s33" d="m131.2 395.4h13.9v16.8h-13.9z"/>
				<path id="rect4088" class="s34" d="m85.2 395.4h13.9v16.8h-13.9z"/>
				<path id="rect4090" class="s35" d="m131.2 375.7h13.9v16.8h-13.9z"/>
				<path id="rect4092" class="s36" d="m85.2 375.7h13.9v16.8h-13.9z"/>
				<path id="rect4094" class="s37" d="m131.2 355.4h13.9v16.8h-13.9z"/>
				<path id="rect4096" class="s38" d="m85.2 355.4h13.9v16.8h-13.9z"/>
				<path id="path4098" class="s39" d="m121.2 335.7h23.9v16.8h-13.9c-0.3-4.6-2.3-12-10-16.8z"/>
				<path id="path4100" class="s40" d="m85.2 335.7h23.9c-7.1 5.3-9.5 9.5-10 16.8h-13.9z"/>
				<path id="rect4102" class="s41" d="m101.2 315.9h27.9v16.8h-27.9z"/>
				<path id="rect4104" class="s42" d="m131.2 315.9h13.9v16.8h-13.9z"/>
				<path id="rect4106" class="s43" d="m85.2 315.9h13.9v16.8h-13.9z"/>
				<path id="rect4108" class="s44" d="m77.5 291.9h77.6v16.8h-77.6z"/>
				<path id="rect4110" class="s45" d="m101.2 251.4h27.9v16.8h-27.9z"/>
				<path id="rect4112" class="s46" d="m131.2 251.4h13.9v16.8h-13.9z"/>
				<path id="rect4114" class="s47" d="m85.2 251.4h13.9v16.8h-13.9z"/>
				<path id="rect4116" class="s48" d="m77.5 227.9h77.6v16.8h-77.6z"/>
				<path id="path4118" class="s49" d="m97 198.3v16.5h11.1v-16.5h17.9v16.5h11.1v-16.5h18v24.4h-77.6v-24.4z"/>
				<path id="rect4120" class="s50" d="m116.5 452.9h28.6v16.8h-28.6z"/>
				<path id="rect4122" class="s51" d="m85.2 452.9h28.9v16.8h-28.9z"/>
				<path id="rect4124" class="s52" d="m116.5 270.7h28.6v16.8h-28.6z"/>
				<path id="rect4126" class="s53" d="m85.2 270.7h28.9v16.8h-28.9z"/>
			</g>
			<g id="g4941">
				<path id="rect3888" class="s54" d="m182.2 247.7v13.7h13.3v-13.7h26.4v13.7h13.2v-13.7h26.1v13.7h13.2v-13.7h26.4v13.7h13.2v-13.7h25.6v25.7h-184.8v-25.7z"/>
				<path id="rect3902" class="s55" d="m162.5 282h168.7v16.8h-168.7z"/>
				<path id="rect4130" class="s56" d="m163.2 309.6h32.5v15h-32.5z"/>
				<path id="rect4132" class="s57" d="m197.2 309.6h32.5v15h-32.5z"/>
				<path id="rect4134" class="s58" d="m231.2 309.6h32.5v15h-32.5z"/>
				<path id="rect4136" class="s59" d="m299.2 309.6h32.5v15h-32.5z"/>
				<path id="rect4138" class="s60" d="m265.2 309.6h32.5v15h-32.5z"/>
				<path id="rect4140" class="s61" d="m163.2 327.6h15.8v15h-15.8z"/>
				<path id="path4142" class="s62" d="m181.2 327.6h44.5c-8 4.1-13.2 9.3-18 15h-26.5z"/>
				<path id="rect4144" class="s63" d="m331.7 342.6h-15.8v-15h15.8z"/>
				<path id="path4146" class="s64" d="m313.7 342.6h-26.5c-3.2-6.2-10-10.9-18-15h44.5z"/>
				<path id="path4148" class="s65" d="m162.7 345.6h43c-4.2 4.9-7.5 11.6-8 16l-35-1z"/>
				<path id="path4150" class="s66" d="m331.7 360.6l-35 1c-0.5-4.4-3.8-11.1-8-16h43z"/>
				<path id="rect4152" class="s67" d="m162.7 365.3h16.8v17h-16.8z"/>
				<path id="path4154" class="s68" d="m181.2 365.3h14.5l-1.1 17h-13.4z"/>
				<path id="rect4156" class="s69" d="m331.7 382.3h-16.8v-17h16.8z"/>
				<path id="path4158" class="s70" d="m313.2 382.3h-13.4l-1.1-17h14.5z"/>
				<path id="rect4160" class="s71" d="m163.2 385.6h31.4v16.8h-31.4z"/>
				<path id="rect4162" class="s72" d="m300.3 385.6h31.4v16.8h-31.4z"/>
				<path id="rect4164" class="s73" d="m163.2 425.6h31.4v16.8h-31.4z"/>
				<path id="rect4166" class="s74" d="m300.3 425.6h31.4v16.8h-31.4z"/>
				<path id="rect4168" class="s75" d="m162.7 405.6h16.8v17h-16.8z"/>
				<path id="rect4170" class="s76" d="m331.7 422.6h-16.8v-17h16.8z"/>
				<path id="rect4172" class="s77" d="m181.2 405.6h13.2v17h-13.2z"/>
				<path id="rect4174" class="s78" d="m300 405.6h13.2v17h-13.2z"/>
			</g>
			<path id="path4807" class="s79" d="m424.7 193.5l-0.5 57.1-8.1 2.5-0.4-1.4v36l9.5-0.2 0.5 25-10.6 3.1v154.7l9.6 8.6 0.5 5.1-98.5 0.5v-7.1l7.6-11.1 1-151.5-1.9-7.6 0.2-16 7.1-4.4v-39.1l-8.6-2.8-0.4-51.4z"/>
			<g id="g4683">
				<path id="rect4685" class="s80" d="m363.2 433.9h27.9v16.8h-27.9z"/>
				<path id="rect4687" class="s81" d="m393.2 433.9h13.9v16.8h-13.9z"/>
				<path id="rect4689" class="s82" d="m347.2 433.9h13.9v16.8h-13.9z"/>
				<path id="rect4691" class="s83" d="m378.5 414.7h28.6v16.8h-28.6z"/>
				<path id="rect4693" class="s84" d="m347.2 414.7h28.9v16.8h-28.9z"/>
				<path id="rect4695" class="s85" d="m363.2 395.4h27.9v16.8h-27.9z"/>
				<path id="rect4697" class="s86" d="m393.2 395.4h13.9v16.8h-13.9z"/>
				<path id="rect4699" class="s87" d="m347.2 395.4h13.9v16.8h-13.9z"/>
				<path id="rect4701" class="s88" d="m393.2 375.7h13.9v16.8h-13.9z"/>
				<path id="rect4703" class="s89" d="m347.2 375.7h13.9v16.8h-13.9z"/>
				<path id="rect4705" class="s90" d="m393.2 355.4h13.9v16.8h-13.9z"/>
				<path id="rect4707" class="s91" d="m347.2 355.4h13.9v16.8h-13.9z"/>
				<path id="path4709" class="s92" d="m383.2 335.7h23.9v16.8h-13.9c-0.3-4.6-2.3-12-10-16.8z"/>
				<path id="path4711" class="s93" d="m347.2 335.7h23.9c-7.1 5.3-9.5 9.5-10 16.8h-13.9z"/>
				<path id="rect4713" class="s94" d="m363.2 315.9h27.9v16.8h-27.9z"/>
				<path id="rect4715" class="s95" d="m393.2 315.9h13.9v16.8h-13.9z"/>
				<path id="rect4717" class="s96" d="m347.2 315.9h13.9v16.8h-13.9z"/>
				<path id="rect4719" class="s97" d="m339.5 291.9h77.6v16.8h-77.6z"/>
				<path id="rect4721" class="s98" d="m363.2 251.4h27.9v16.8h-27.9z"/>
				<path id="rect4723" class="s99" d="m393.2 251.4h13.9v16.8h-13.9z"/>
				<path id="rect4725" class="s100" d="m347.2 251.4h13.9v16.8h-13.9z"/>
				<path id="rect4727" class="s101" d="m339.5 227.9h77.6v16.8h-77.6z"/>
				<path id="path4729" class="s102" d="m359 198.3v16.5h11.1v-16.5h17.9v16.5h11.1v-16.5h18v24.4h-77.6v-24.4z"/>
				<path id="rect4731" class="s103" d="m378.5 452.9h28.6v16.8h-28.6z"/>
				<path id="rect4733" class="s104" d="m347.2 452.9h28.9v16.8h-28.9z"/>
				<path id="rect4735" class="s105" d="m378.5 270.7h28.6v16.8h-28.6z"/>
				<path id="rect4737" class="s106" d="m347.2 270.7h28.9v16.8h-28.9z"/>
				<path id="path4739" class="s107" d="m377.5 339c3.5 0.1 6.4 1.2 8.3 3.4 2 2.2 3 5.4 3.7 9.5 1.2 8.4 0.8 20.7 0.8 39.3h-3c0-18.7 0.3-31-0.8-38.8-0.6-3.9-1.6-6.5-2.9-8-1.4-1.6-3.2-2.3-6.1-2.4q-0.1 0-0.1 0c-3.3 0-5.3 0.8-6.6 2.3-1.3 1.5-2.4 4-2.6 7.9-0.4 7.5 0.2 20.3 0.2 38.6h-3c0-18.2-1.1-30.7-0.2-38.9 0.4-4.2 1.3-7.4 3.4-9.6 2-2.3 5-3.3 8.9-3.3z"/>
				<path id="path5625" class="s108" d="m115 339c3.5 0.1 6.4 1.2 8.3 3.4 2 2.2 3 5.4 3.7 9.5 1.2 8.4 0.8 20.7 0.8 39.3h-3c0-18.7 0.3-31-0.8-38.8-0.6-3.9-1.6-6.5-2.9-8-1.4-1.6-3.2-2.3-6.1-2.4q-0.1 0-0.1 0c-3.3 0-5.3 0.8-6.6 2.3-1.3 1.5-2.4 4-2.6 7.9-0.4 7.5 0.2 20.3 0.2 38.6h-3c0-18.2-1.1-30.7-0.2-38.9 0.4-4.2 1.3-7.4 3.3-9.6 2.1-2.3 5.1-3.3 9-3.3z"/>
			</g>
			<path id="rect4914-6" class="s109" d="m295.3 380.8v61.5c0 0-1.6-0.1-3.3-0.1v-59.6c0-28.4-20.3-51.5-45.4-51.5-25.1 0-45.4 23.1-45.4 51.5v59.6c-1.3 0-2.9 0-2.9 0v-61.4c0-29.3 21.7-53 48.5-53 26.8 0 48.5 23.7 48.5 53z"/>
			<path id="path5404" class="s110" d="m292 382.6v59.7c0 0-1.5-0.1-3.4-0.1v-57.5c0-27.5-18.7-49.7-41.7-49.7-23.1 0-41.8 22.2-41.8 49.7v57.5c-2.5 0-3.9 0-3.9 0v-59.6c0-28.4 20.3-51.5 45.4-51.5 25.1 0 45.4 23.1 45.4 51.5z"/>
			<path id="path5623" class="s111" d="m368.2 391v-26.4c0-12.6-1.7-22.8 9.6-22.8 8.8 0 9.6 10.2 9.6 22.8v26.4"/>
			<path id="path5627" class="s111" d="m105.7 391v-26.4c0-12.6-1.7-22.8 9.6-22.8 8.8 0 9.6 10.2 9.6 22.8v26.4"/>
		</g>
		<path id="path5688" class="s112" d="m435.4 101.4l-12.4 47.7c-115.6-28.3-188.5-42.4-351.6 0.7l-13.9-47.2c144.7-43.6 252.4-40.5 377.9-1.2z"/>
		<path id="path5631" class="s113" d="m434.6 99.5l-12.3 47.6c-115.7-28.3-188.5-42.4-351.6 0.7l-13.9-47.2c144.7-43.5 252.3-40.5 377.8-1.1z"/>
		<path id="path5649" class="s114" d="m66.2 22.1l14.7 5.9 8.8 31.6-14 18.5-12.9-46.3z"/>
		<path id="path5651" class="s115" d="m431.3 36.8l-11.4 46.7-14.5-19 7.6-30.9 14.6-6.3z"/>
		<path id="path5653" class="s114" d="m168.6 4.1l7.1 7.8 2.6 31.7-8.1 17.5-3.9-47.9z"/>
		<path id="path5655" class="s115" d="m325.6 14.6l-2.3 47.9-8.7-17.2 1.6-31.7 6.9-8.1z"/>
		<g id="Clip-Path: path5012" clip-path="url(#cp1)">
			<path id="path5012" class="s116" d="m186.9 48.8l-14-7.4-5.3-32.4 16-16.8 7.7 47.4z"/>
		</g>
		<path id="path5633" class="s117" d="m279.7 1.3l-2.7 39 39.8 3 6.3-37.9c21.2 2.7 42 6.5 62.3 11l-7.3 37.4 39.4 11.3 10.4-38q21.7 6.1 43 13.3l-20.3 66.3c-123.9-43.4-241.2-56.8-414.2 2.4l-16.9-73.4c15.9-5 31.4-9.3 46.6-13.2l10.4 40.5 42-11.3-9.4-38.8c20.2-4 40-6.9 59.3-9l6 39.8 40.4-3.7-2.8-39.4q8.7-0.4 17.3-0.5c17.1-0.3 33.9 0.1 50.4 1.2z"/>
		<path id="path5692" class="s118" d="m71.1 137.9c113.8-38.3 230.6-41.5 351.1-1.7"/>
		<g id="g4287">
			<path id="path3370" class="s119" d="m64.7 126c139.6-42.9 246.6-37.1 364-0.7"/>
			<path id="path4227" class="s119" d="m98.1 90.9l6.8 23.9"/>
			<path id="path4229" class="s119" d="m86.7 119.8l6.2 21.8"/>
			<path id="path4231" class="s119" d="m144.9 79.9l5.3 24.9"/>
			<path id="path4233" class="s119" d="m134.9 132.6l-7-23.5"/>
			<path id="path4235" class="s119" d="m179.4 100.1l5.3 24.2"/>
			<path id="path4237" class="s119" d="m198.4 72.1c4 25.5 3.8 25.5 3.8 25.5"/>
			<path id="path4239" class="s119" d="m248.7 95.7l-0.8-26"/>
			<path id="path4241" class="s119" d="m224.9 95.8l1.8 24.5"/>
			<path id="path4253" class="s119" d="m399.3 90.9l-6.9 23.9"/>
			<path id="path4255" class="s119" d="m408.2 119l-6.2 22.8"/>
			<path id="path4257" class="s119" d="m352.7 79.6l-5.2 25.4"/>
			<path id="path4259" class="s119" d="m362.4 132.6l6.3-23.9"/>
			<path id="path4261" class="s119" d="m317.8 100.3l-3.2 24"/>
			<path id="path4263" class="s119" d="m298.9 72.1c-4 25.5-3.7 25.5-3.7 25.5"/>
			<path id="path4267" class="s119" d="m272.4 96l-1.7 24.3"/>
		</g>
		<g id="Clip-Path: g4361" clip-path="url(#cp2)">
			<g id="g4361">
				<path id="path4305" class="s120" d="m24.2 58.8c155.3-54.3 301.1-46.5 440.5 3"/>
				<path id="path4307" class="s120" d="m28.7 77.9c99.7-34.6 169.8-38.5 210.1-38.5 73.7-0.1 138.2 9.1 220 38.9"/>
				<path id="path4311" class="s120" d="m46.1 51.6l5 18.4"/>
				<path id="path4313" class="s120" d="m62.6 66.6l8.6 30.6"/>
				<path id="path4315" class="s120" d="m99.3 57.1l8 31.5"/>
				<path id="path4317" class="s120" d="m138.7 48.4l6.2 32.2"/>
				<path id="path4319" class="s120" d="m180.8 42.8l4.1 30.6"/>
				<path id="path4321" class="s120" d="m219.5 39.8l2.3 31.6"/>
				<path id="path4325" class="s120" d="m142.2 28.8l3.5 18.5"/>
				<path id="path4327" class="s120" d="m246.7 20.8v18.7"/>
				<path id="path4329" class="s120" d="m350.2 30.8l-2.8 16.3"/>
				<path id="path4331" class="s120" d="m442.7 53.8l-4.9 17.4"/>
				<path id="path4333" class="s120" d="m428.2 67.7l-7.4 29.5"/>
				<path id="path4335" class="s120" d="m392.6 58l-6.6 29.2"/>
				<path id="path4337" class="s120" d="m353.3 48.3l-5.5 30.2"/>
				<path id="path4339" class="s120" d="m310.9 43.1l-3.9 29.7"/>
				<path id="path4341" class="s120" d="m272.7 40l-1.4 29.7"/>
			</g>
		</g>
		<path id="path3479" class="s118" d="m95.2 117.6c26.9-7.2 54.2-12.5 81.7-15.9 27.5-3.3 55.2-4.7 82.9-4 27.7 0.6 55.3 3.1 82.7 7.7 27.4 4.5 54.5 11 81.1 19.4l-176.6 674.2z"/>
		<g id="text3481">
			<path id="path4342" class="s7" d="m107.3 126.6l-6.1-25-1.7 0.4q-2.4 0.6-2.9 1.3-1 1.4-1 5.9v0.4q0 0.5 0 0.9-0.1 0.9-0.9 1.1-1.2 0.3-1.6-1.5-0.4-1.7-1.6-3.4-0.5-0.8-1.3-1.7-0.6-0.9-0.7-1.3-0.4-1.5 1.4-2 3.6-0.2 5.6-0.7l1.5-0.4 13.5-3.2q1.8-0.4 5.3-1.9 0.7-0.2 1.4 0.1 0.6 0.3 0.7 1 0.1 0.2-0.4 3.6-0.3 2.1 0.1 3.7 0.2 0.9 0.2 1.1-0.1 0.8-0.9 1-0.7 0.2-1.4-0.9-0.2-0.4-1.1-2.1-1.5-2.7-2.8-3.4-1-0.5-2.6-0.1l-2.5 0.6 6.1 25 3.4-0.8 0.4 1.7-13 3.2-0.5-1.7z"/>
			<path id="path4344" fill-rule="evenodd" class="s7" d="m137.7 120l-3.3-18.2q-1-6.1 1.2-8.4 1.8-1.9 8.3-3 3.4-0.6 6.1 0.6 3.1 1.3 3.6 4.5 0.6 2.9-1.7 5.1-1.7 1.7-3.5 2-0.6 0.2-1.1 0.2-0.9 0.2-2.1-0.3l-2.4 1.9q2.1 1.1 4.1 1.6 1.1 0.2 3.8 0.3 1.9 0.1 2.2 0.1 1.9 0.3 2.6 1.4 0.4 0.6 0.6 1.8l0.9 5.1 0.2 1.4q0.1 1-1 1.9-1 0.9-2.1 1.1l-19.6 3.2-0.3-1.7zm6.4-1.1l5.1-0.9q1.2-0.2 1.5-1.1 0.1-0.6-0.2-2l-0.8-4.6q-0.1-1.1-0.7-1.5-0.3-0.3-1.5-0.7-2.4-0.8-3.2-1.1-1.4-0.6-2.5-1.6zm-2.6-14.9l2.4-2.5q0.4 0.1 0.8 0 1.4-0.2 1.8-1 0.7-1 0.8-1.2 0.3-1-0.1-3.3-0.8-4.2-4.1-3.7-2.2 0.4-2.6 3.4-0.2 2 0.5 5.7l0.2 1.4q0.1 0.6 0.3 1.2z"/>
			<path id="path4346" fill-rule="evenodd" class="s7" d="m188.4 85l0.1 1.8-3.4 0.3 1.1 10.3q1.8 1.3 4.5 1.9 3 0.8 4.9 0.5l1.7-0.3q1.7-0.3 2.4 0.7 0.3 0.4 0.4 1.7l0.9 8.3q0.2 1.7-0.3 2.3-0.4 0.7-1.9 0.9l-20.7 2.1-0.2-1.7 3.5-0.4-2.7-25.6-2.8 0.3q-2.6 0.3-3.9 2.4-0.6 1.2-1.1 3.7-0.1 0.6-0.2 1.3-0.2 0.5-0.9 0.6-0.8 0.1-1.1-0.8-0.2-0.4-0.5-1.8-0.2-0.8-0.4-1.3-0.3-0.9-0.7-1-0.7-0.2-0.9-2.7-0.2-1.6 1.1-1.8 0.4 0 1.6 0.2 1.1 0.1 2 0zm-0.5 27.7l3.7-0.4q1.4-0.2 2-0.5 1-0.6 0.9-2.2l-0.7-5.9q-0.2-1.1-0.6-1.4-0.4-0.4-1.7-0.6-3.1-0.7-5-2z"/>
			<path id="path4348" fill-rule="evenodd" class="s7" d="m224.1 100.8l0.4 9.4 3.4-0.1 0.1 1.7-13.4 0.5-0.1-1.8 3.5-0.1-0.8-24.7q-0.1-3.4 10-3.7 4.4-0.2 7.3 1.7 3.4 2.2 3.6 6.3 0.1 3.3-1.7 5.6-1.9 2.6-5.1 2.7-1.2 0.1-2.2-0.3-0.5-0.3-1.3-0.7l-0.9-0.4zm-0.1-2.5l2.6-3.5q0.8 0.7 1.5 0.7 2.8-0.1 2.6-5.3-0.2-6.5-3.8-6.4-2.3 0.1-2.9 3-0.3 1.5-0.2 5.9z"/>
			<path id="path4350" fill-rule="evenodd" class="s7" d="m273.4 82.8l-0.1 1.7h-2.3q0.6 9.2 3.1 20.3 1.2 5.5 2.1 5.5 0.2 0 0.8-0.2 0.6-0.2 1.1-0.2 1.2 0 1.2 1.5 0 0.3-0.6 1.8-0.7 1.5-1 2.9-0.2 1.2-0.5 2.4-0.4 1.1-1.2 1.1-1-0.1-1.2-1.9-0.4-3.7-2.7-5-1.3-0.7-4.2-0.8l-4.3-0.2q-3.9-0.1-5.2 0.5-2.1 0.8-3 3.9-0.2 0.6-0.5 1.8-0.5 1-1.2 1-0.7 0-1-0.8-0.2-1.5-0.6-3.8-0.1-0.8-1-3.3-0.1-0.3-0.1-0.7 0.1-1.2 1.7-1.2 0.2 0 0.8 0.1 0.5 0.1 0.7 0.1 0.9 0.1 1.2-1 0.2-0.5 0.5-2 1-6.6 5.8-14.2 1.2-1.7 1.6-2.8 0.9-1.7 0.9-3.2 0.1-1.8-2.4-1.9l-2.3-0.1 0.1-1.8zm-11.8 27.2l7.3 0.2-0.8-3.1q-1-4.5-1.5-6.8-0.3-1.8-1.1-6.8l-0.4-2.3q-2.9 3.4-5 8.6-1.9 4.7-1.9 7.4-0.1 1.7 0.8 2.3 0.7 0.4 2.6 0.5z"/>
			<path id="path4352" class="s7" d="m312.3 94.8l-10.3 10.3-0.7 7.2 2.8 0.3-0.1 1.7-12.8-1.3 0.2-1.7 3.4 0.3 2.6-25.6-3.5-0.4 0.2-1.7 12.8 1.3-0.2 1.7-2.9-0.3-1.5 15.7 10.3-10.3 0.4-4.4-2.8-0.3 0.2-1.8 12.7 1.3-0.2 1.8-3.4-0.4-2.6 25.6 3.4 0.4-0.1 1.7-12.8-1.2 0.2-1.8 2.8 0.3z"/>
			<path id="path4354" class="s7" d="m366.5 93.9l-0.3 1.7-3.4-0.6-4.5 25.4 1.4 0.2q0.7 0.1 2 0.2 1.4 0 2 0.2 0.9 0.1 1.3 0.9 0.4 0.7 0.2 1.6-0.1 1-1.2 2.8-1.7 2.9-2.1 4.6-0.3 0.8-0.5 1.2-0.4 0.6-1.1 0.5-0.8-0.2-1-1.3-0.1-1.4-0.3-3.9-0.2-2.8-0.8-3.8-1-1.6-3.8-2.1l-21.5-3.8 0.3-1.8 3.4 0.6 4.5-25.3-3.4-0.6 0.3-1.8 12.6 2.3-0.3 1.7-2.8-0.5-4.5 25.4 8.9 1.5 4.5-25.3-2.9-0.5 0.3-1.8z"/>
			<path id="path4356" fill-rule="evenodd" class="s7" d="m393.5 101.2l-3.1-0.8 0.5-1.7 12.5 3.2-0.4 1.7-3.1-0.8 1 27.4 2.8 0.7-0.4 1.7-12.2-3 0.4-1.7 3.1 0.7-0.4-11.2q-2.2 4.4-5.6 7.5-4 3.7-7.2 2.9-2.2-0.6-3.1-2.2-0.8-1.6-0.2-3.9 1-4 6.1-9.4 1.9-2 4.6-4.4 0.8-0.8 2.4-2.2 1.7-1.7 2.1-3.3 0.2-0.7 0.2-1.2zm0.5 12l-0.2-6.9q-2.3 1.9-3.9 3.6-0.7 0.6-1.6 1.5-3.8 4.1-4.7 7l-0.3 1q-0.2 2.1 1.8 2.6 2.2 0.5 5.2-2.9 2.5-2.9 3.7-5.9z"/>
		</g>
		<g id="Clip-Path: text3510" clip-path="url(#cp3)">
			<g id="text3510">
				<path id="path4376" class="s121" d="m107.3 126.6l-6.1-25-1.7 0.4q-2.4 0.6-2.9 1.3-1 1.4-1 5.9v0.4q0 0.5 0 0.9-0.1 0.9-0.9 1.1-1.2 0.3-1.6-1.5-0.4-1.7-1.6-3.4-0.5-0.8-1.3-1.7-0.6-0.9-0.7-1.3-0.4-1.5 1.4-2 3.6-0.2 5.6-0.7l1.5-0.4 13.5-3.2q1.8-0.4 5.3-1.9 0.7-0.2 1.4 0.1 0.6 0.3 0.7 1 0.1 0.2-0.4 3.6-0.3 2.1 0.1 3.7 0.2 0.9 0.2 1.1-0.1 0.8-0.9 1-0.7 0.2-1.4-0.9-0.2-0.4-1.1-2.1-1.5-2.7-2.8-3.4-1-0.5-2.6-0.1l-2.5 0.6 6.1 25 3.4-0.8 0.4 1.7-13 3.2-0.5-1.7z"/>
				<path id="path4378" fill-rule="evenodd" class="s122" d="m137.7 120l-3.3-18.2q-1-6.1 1.2-8.4 1.8-1.9 8.3-3 3.4-0.6 6.1 0.6 3.1 1.3 3.6 4.5 0.6 2.9-1.7 5.1-1.7 1.7-3.5 2-0.6 0.2-1.1 0.2-0.9 0.2-2.1-0.3l-2.4 1.9q2.1 1.1 4.1 1.6 1.1 0.2 3.8 0.3 1.9 0.1 2.2 0.1 1.9 0.3 2.6 1.4 0.4 0.6 0.6 1.8l0.9 5.1 0.2 1.4q0.1 1-1 1.9-1 0.9-2.1 1.1l-19.6 3.2-0.3-1.7zm6.4-1.1l5.1-0.9q1.2-0.2 1.5-1.1 0.1-0.6-0.2-2l-0.8-4.6q-0.1-1.1-0.7-1.5-0.3-0.3-1.5-0.7-2.4-0.8-3.2-1.1-1.4-0.6-2.5-1.6zm-2.6-14.9l2.4-2.5q0.4 0.1 0.8 0 1.4-0.2 1.8-1 0.7-1 0.8-1.2 0.3-1-0.1-3.3-0.8-4.2-4.1-3.7-2.2 0.4-2.6 3.4-0.2 2 0.5 5.7l0.2 1.4q0.1 0.6 0.3 1.2z"/>
				<path id="path4380" fill-rule="evenodd" class="s123" d="m188.4 85l0.1 1.8-3.4 0.3 1.1 10.3q1.8 1.3 4.5 1.9 3 0.8 4.9 0.5l1.7-0.3q1.7-0.3 2.4 0.7 0.3 0.4 0.4 1.7l0.9 8.3q0.2 1.7-0.3 2.3-0.4 0.7-1.9 0.9l-20.7 2.1-0.2-1.7 3.5-0.4-2.7-25.6-2.8 0.3q-2.6 0.3-3.9 2.4-0.6 1.2-1.1 3.7-0.1 0.6-0.2 1.3-0.2 0.5-0.9 0.6-0.8 0.1-1.1-0.8-0.2-0.4-0.5-1.8-0.2-0.8-0.4-1.3-0.3-0.9-0.7-1-0.7-0.2-0.9-2.7-0.2-1.6 1.1-1.8 0.4 0 1.6 0.2 1.1 0.1 2 0zm-0.5 27.7l3.7-0.4q1.4-0.2 2-0.5 1-0.6 0.9-2.2l-0.7-5.9q-0.2-1.1-0.6-1.4-0.4-0.4-1.7-0.6-3.1-0.7-5-2z"/>
				<path id="path4382" fill-rule="evenodd" class="s124" d="m224.1 100.8l0.4 9.4 3.4-0.1 0.1 1.7-13.4 0.5-0.1-1.8 3.5-0.1-0.8-24.7q-0.1-3.4 10-3.7 4.4-0.2 7.3 1.7 3.4 2.2 3.6 6.3 0.1 3.3-1.7 5.6-1.9 2.6-5.1 2.7-1.2 0.1-2.2-0.3-0.5-0.3-1.3-0.7l-0.9-0.4zm-0.1-2.5l2.6-3.5q0.8 0.7 1.5 0.7 2.8-0.1 2.6-5.3-0.2-6.5-3.8-6.4-2.3 0.1-2.9 3-0.3 1.5-0.2 5.9z"/>
				<path id="path4384" fill-rule="evenodd" class="s125" d="m273.4 82.8l-0.1 1.7h-2.3q0.6 9.2 3.1 20.3 1.2 5.5 2.1 5.5 0.2 0 0.8-0.2 0.6-0.2 1.1-0.2 1.2 0 1.2 1.5 0 0.3-0.6 1.8-0.7 1.5-1 2.9-0.2 1.2-0.5 2.4-0.4 1.1-1.2 1.1-1-0.1-1.2-1.9-0.4-3.7-2.7-5-1.3-0.7-4.2-0.8l-4.3-0.2q-3.9-0.1-5.2 0.5-2.1 0.8-3 3.9-0.2 0.6-0.5 1.8-0.5 1-1.2 1-0.7 0-1-0.8-0.2-1.5-0.6-3.8-0.1-0.8-1-3.3-0.1-0.3-0.1-0.7 0.1-1.2 1.7-1.2 0.2 0 0.8 0.1 0.5 0.1 0.7 0.1 0.9 0.1 1.2-1 0.2-0.5 0.5-2 1-6.6 5.8-14.2 1.2-1.7 1.6-2.8 0.9-1.7 0.9-3.2 0.1-1.8-2.4-1.9l-2.3-0.1 0.1-1.8zm-11.8 27.2l7.3 0.2-0.8-3.1q-1-4.5-1.5-6.8-0.3-1.8-1.1-6.8l-0.4-2.3q-2.9 3.4-5 8.6-1.9 4.7-1.9 7.4-0.1 1.7 0.8 2.3 0.7 0.4 2.6 0.5z"/>
				<path id="path4386" class="s126" d="m312.3 94.8l-10.3 10.3-0.7 7.2 2.8 0.3-0.1 1.7-12.8-1.3 0.2-1.7 3.4 0.3 2.6-25.6-3.5-0.4 0.2-1.7 12.8 1.3-0.2 1.7-2.9-0.3-1.5 15.7 10.3-10.3 0.4-4.4-2.8-0.3 0.2-1.8 12.7 1.3-0.2 1.8-3.4-0.4-2.6 25.6 3.4 0.4-0.1 1.7-12.8-1.2 0.2-1.8 2.8 0.3z"/>
				<path id="path4388" class="s127" d="m366.5 93.9l-0.3 1.7-3.4-0.6-4.5 25.4 1.4 0.2q0.7 0.1 2 0.2 1.4 0 2 0.2 0.9 0.1 1.3 0.9 0.4 0.7 0.2 1.6-0.1 1-1.2 2.8-1.7 2.9-2.1 4.6-0.3 0.8-0.5 1.2-0.4 0.6-1.1 0.5-0.8-0.2-1-1.3-0.1-1.4-0.3-3.9-0.2-2.8-0.8-3.8-1-1.6-3.8-2.1l-21.5-3.8 0.3-1.8 3.4 0.6 4.5-25.3-3.4-0.6 0.3-1.8 12.6 2.3-0.3 1.7-2.8-0.5-4.5 25.4 8.9 1.5 4.5-25.3-2.9-0.5 0.3-1.8z"/>
				<path id="path4390" fill-rule="evenodd" class="s128" d="m393.5 101.2l-3.1-0.8 0.5-1.7 12.5 3.2-0.4 1.7-3.1-0.8 1 27.4 2.8 0.7-0.4 1.7-12.2-3 0.4-1.7 3.1 0.7-0.4-11.2q-2.2 4.4-5.6 7.5-4 3.7-7.2 2.9-2.2-0.6-3.1-2.2-0.8-1.6-0.2-3.9 1-4 6.1-9.4 1.9-2 4.6-4.4 0.8-0.8 2.4-2.2 1.7-1.7 2.1-3.3 0.2-0.7 0.2-1.2zm0.5 12l-0.2-6.9q-2.3 1.9-3.9 3.6-0.7 0.6-1.6 1.5-3.8 4.1-4.7 7l-0.3 1q-0.2 2.1 1.8 2.6 2.2 0.5 5.2-2.9 2.5-2.9 3.7-5.9z"/>
			</g>
		</g>
		<g id="Clip-Path: path4957" clip-path="url(#cp4)">
			<path id="path4957" class="s129" d="m66.2 22.1l14.7 5.9 8.8 31.6-14 18.5-12.9-46.3z"/>
		</g>
		<g id="Clip-Path: path5000" clip-path="url(#cp5)">
			<path id="path5000" class="s130" d="m399.7 60.6l12.9-46.3 14 18.4-8.8 31.7-14.7 5.8z"/>
		</g>
		<g id="Clip-Path: path5020" clip-path="url(#cp6)">
			<path id="path5020" class="s131" d="m300.1 43.3l3.4-47.9 17.4 15.2-2.3 32.8-13.3 8.7z"/>
		</g>
		<path id="path5802" class="s132" d="m23.8 166.6c147.5 1 294.9 1 442.4 1 6.6 164.9 3.1 208.5-13.8 275.7-18.6 73.6-90.4 176-207.8 205-88.6-18.9-176-91.4-213.1-205-18.9-65.2-9.1-272.4-7.7-276.7z"/>
	</g>
</svg>