<svg version="1.2" xmlns="http://www.w3.org/2000/svg" viewBox="0 0 1214 1422" width="1214" height="1422">
	<title>Rakovski-pdf</title>
	<style>
		.s0 { fill: none;stroke: #181615;stroke-width: 8.5 } 
		.s1 { fill: #ffffff } 
		.s2 { fill: #181615 } 
		.s3 { fill: none;stroke: #181615;stroke-width: 5.7 } 
		.s4 { fill: #231f20 } 
		.s5 { fill: none;stroke: #181615;stroke-width: .7 } 
		.s6 { fill: #21612e } 
		.s7 { fill: none;stroke: #181615;stroke-width: 1.9 } 
		.s8 { fill: #ece843 } 
		.s9 { fill: none;stroke: #181615;stroke-width: 17 } 
		.s10 { fill: none;stroke: #231f20;stroke-width: 2 } 
		.s11 { fill: #ffffff;stroke: #231f20;stroke-width: 2 } 
	</style>
	<path id="Path 1" class="s0" d="m368.2 240.2c0 0-16 12.4-24.9 16.1-8.9 3.8-26.9 6.1-26.9 6.1l-29.6-45.1c0 0 7.7-11.9-6.5-13.2-12.1 7.3-33.9 9.8-27.1-5 6.7-14.8 76.7-15.4 76.7-15.4 15.4-13.5 38.3 56.5 38.3 56.5z"/>
	<path id="Path 2" class="s1" d="m368.2 240.2c0 0-16 12.4-24.9 16.1-8.9 3.8-26.9 6.1-26.9 6.1l-29.6-45.1c0 0 7.7-11.9-6.5-13.2-12.1 7.3-33.9 9.8-27.1-5 6.7-14.8 76.7-15.4 76.7-15.4 15.4-13.5 38.3 56.5 38.3 56.5z"/>
	<path id="Path 3" class="s0" d="m892.4 183.7c0 0 70 0.6 76.7 15.4 6.7 14.8-15 12.3-27.2 5-14.1 1.3-6.5 13.2-6.5 13.2l-29.6 45.1c0 0-17.9-2.3-26.8-6.1-9-3.7-24.9-16.1-24.9-16.1 0 0 22.8-70 38.3-56.5z"/>
	<path id="Path 4" class="s1" d="m892.4 183.7c0 0 70 0.6 76.7 15.4 6.7 14.8-15 12.3-27.2 5-14.1 1.3-6.5 13.2-6.5 13.2l-29.6 45.1c0 0-17.9-2.3-26.8-6.1-9-3.7-24.9-16.1-24.9-16.1 0 0 22.8-70 38.3-56.5z"/>
	<path id="Path 5" class="s0" d="m959.6 222.3c-5.5 1.4-22.4-3.8-24.9-6.2-2.4-2.4-2.7-5.2-1.3-9 1.3-3.8 5.1-5.9 15.3-0.3 15.6 6.9 21.6-2.4 21.6-2.4 3.4 7.5-5.2 16.5-10.7 17.9z"/>
	<path id="Path 6" class="s2" d="m959.6 222.3c-5.5 1.4-22.4-3.8-24.9-6.2-2.4-2.4-2.7-5.2-1.3-9 1.3-3.8 5.1-5.9 15.3-0.3 15.6 6.9 21.6-2.4 21.6-2.4 3.4 7.5-5.2 16.5-10.7 17.9z"/>
	<path id="Path 7" class="s0" d="m1148 260.3c9 2.4 11 11.6 12 15.1-1.8 4-15.3 8.5-29.1 7.9-13.8-0.7-26.3-9.6-26.3-9.6 18-14.5 34.4-15.9 43.4-13.5z"/>
	<path id="Path 8" class="s2" d="m1148 260.3c9 2.4 11 11.6 12 15.1-1.8 4-15.3 8.5-29.1 7.9-13.8-0.7-26.3-9.6-26.3-9.6 18-14.5 34.4-15.9 43.4-13.5z"/>
	<path id="Path 9" class="s0" d="m1107.4 269.3l6.2 32.8-43.9 29-25.1-47c0 0 61.1-20.7 62.8-14.8z"/>
	<path id="Path 10" class="s1" d="m1107.4 269.3l6.2 32.8-43.9 29-25.1-47c0 0 61.1-20.7 62.8-14.8z"/>
	<path id="Path 11" class="s0" d="m935.6 210.6c15.6 18.5 69.3 11.6 94.8 4.1 26.9-7.9 60.1-24.2 80.8-26.2 20.7-2.1 32.5 14.1 32.5 14.1 0 0 17.8 31.5 22.5 52.5 3.1 14.3-6.3 20.7-6.3 20.7 0 0 0.4 0.9-2.1-5.5-3.5-7.1-7.6-7.3-12.1-9-4.5-1.7-21.7 1.7-30.1 5.2-8.2 3.4-45.9 15.5-88 23.5-20.8 3.9-61.2 8.1-89.3 3-28.9-5.3-45.3-19.9-45.3-19.9l39.5-64.6c1.4-2.3 1.2-0.2 3.1 2.1z"/>
	<path id="Path 12" class="s1" d="m935.6 210.6c15.6 18.5 69.3 11.6 94.8 4.1 26.9-7.9 60.1-24.2 80.8-26.2 20.7-2.1 32.5 14.1 32.5 14.1 0 0 17.8 31.5 22.5 52.5 3.1 14.3-6.3 20.7-6.3 20.7 0.3-0.2-1.7-4.3-1.9-4.7-1-1.9-2.2-3.8-3.7-5.3-4.6-4.7-11.5-5.3-17.7-4.7-8.2 0.9-15.9 3.5-23.6 6.4-10.5 4-21.4 7.1-32.2 10-17.6 4.9-35.3 9-53.2 12.5-20.8 3.9-61.2 8.1-89.3 3-28.9-5.3-45.3-19.9-45.3-19.9l39.5-64.6c1.4-2.3 1.2-0.2 3.1 2.1z"/>
	<path id="Path 13" class="s3" d="m240.9 1189.3c0 0-0.4-11.9 11.4-9.8 11.8 2 24.4 13.4 34.2 4.4 9.7-8.9 5.5-13.8 5.5-13.8 0 0 5.5 6.1 2.7 22.9-2.9 16.8-11.9 33.3-11.9 33.3l-39.9-20-2.3-6.4c0 0-2.7-6.9 0.3-10.6z"/>
	<path id="Path 14" class="s2" d="m240.9 1189.3c0 0-0.4-11.9 11.4-9.8 11.8 2 24.4 13.4 34.2 4.4 9.7-8.9 5.5-13.8 5.5-13.8 0 0 5.5 6.1 2.7 22.9-2.9 16.8-11.9 33.3-11.9 33.3l-39.9-20-2.3-6.4c0 0-2.7-6.9 0.3-10.6z"/>
	<path id="Path 15" class="s1" d="m287.5 1075.7c2.8 7.7-7.7 12.1-9.1 10.9-1.5-1.3-2.5-2.4-1.2-4.9 1.2-2.5 6-2 6.9-3.4 1-1.3 0.1-4.7 0.1-4.7 0 0-1.7-1.6 3.3 2.1zm2.6-10.9c0 0 17.6 13.7-2.9 33-10 9.4-22.7 2-23.8-4.8-2.2-14.2 12.3-15.5 12.3-15.5 0 0-6.6 9.8-0.1 13.5 6.5 3.7 22.2-6.2 14.5-26.2z"/>
	<path id="Path 16" class="s0" d="m149.3 1158.3c0 0-4.1 14.6-33 19.1-105-6.9-111.6-75.7-111.6-75.7 0 0 17.8 2.8 31.8 2.5 9.1-0.2 16.7-3.7 16.7-3.7 0 0-2.7-43 0.8-68.4 1.4-10.7 11-17.9 11-17.9 0 0 7.2 26.9 35.7 39.9 35.9 16.2 90.1 14.6 103.1 23.2 13 8.6 13.4 21.2 13.4 25.2 0 4.1-4.8 10.2-6.9 12.3-2 2-9.3 7.3-16.7 6-7.3-1.1-17.5-8.9-26-10.5-8.6-1.6-15.5 14.2-15.5 14.2-3.6 0.4-2.8 33.8-2.8 33.8z"/>
	<path id="Path 17" class="s1" d="m149.3 1158.3c0 0-4.1 14.6-33 19.1-105-6.9-111.6-75.7-111.6-75.7 0 0 17.8 2.8 31.8 2.5 9.1-0.2 16.7-3.7 16.7-3.7 0 0-2.7-43 0.8-68.4 1.4-10.7 11-17.9 11-17.9 0 0 7.2 26.9 35.7 39.9 35.9 16.2 90.1 14.6 103.1 23.2 13 8.6 13.4 21.2 13.4 25.2 0 4.1-4.8 10.2-6.9 12.3-2 2-9.3 7.3-16.7 6-7.3-1.1-17.5-8.9-26-10.5-8.6-1.6-15.5 14.2-15.5 14.2-3.6 0.4-2.8 33.8-2.8 33.8z"/>
	<path id="Path 18" class="s2" d="m146.4 1126.2c0 0-3.3-9 10.5-17.2 13.8-8.2 19.6 2.5 29 7 9.3 4.4 15.1 2.4 21.2-0.8 6.1-3.3 12.2-10.2 12.2-10.2-3.9 14.3-5.6 28.6-5.5 42.9 0 0-28.7 11.2-44.6 1.5-25.4-9.1-22.8-23.2-22.8-23.2z"/>
	<path id="Path 19" class="s0" d="m291.3 1182.4c-4.1 4.8-10.6 7.7-21.5 6-11-1.6-16.7-6.5-22-6-5.3 0.4-8.2 10.6-11 17-8.7 19.6-25.3 63.7-46.8 66.8-17.1 2.4-36.3-13-58.3-30.2-21.9-17-15.4-49.2-15.4-49.2l32.6-61.8c0.2 0.3 8.1 11.3 19.5 15.4 11.4 4.1 35.4 4.5 52.5 5.3 17.1 0.8 60.7 7.3 66 14.7 5.3 7.3 6.5 14.6 6.5 14.6 0 0 2 2.4-2.1 7.4z"/>
	<path id="Path 20" class="s1" d="m291.3 1182.4c-4.1 4.8-10.6 7.7-21.5 6-11-1.6-16.7-6.5-22-6-5.3 0.4-8.2 10.6-11 17-8.7 19.6-25.3 63.7-46.8 66.8-17.1 2.4-36.3-13-58.3-30.2-21.9-17-15.4-49.2-15.4-49.2l32.6-61.8c0.2 0.3 8.1 11.3 19.5 15.4 11.4 4.1 35.4 4.5 52.5 5.3 17.1 0.8 60.7 7.3 66 14.7 5.3 7.3 6.5 14.6 6.5 14.6 0 0 2 2.4-2.1 7.4z"/>
	<path id="Path 21" class="s3" d="m972.9 1202.1l-2.3 6.4-39.8 20c0 0-11-18.1-13.8-35-2.8-16.8 4.6-21.2 4.6-21.2 0 0-4.3 4.9 5.5 13.9 9.7 8.9 22.4-2.5 34.2-4.5 11.8-2.1 11.4 9.7 11.4 9.7 2.9 3.8 0.2 10.7 0.2 10.7z"/>
	<path id="Path 22" class="s2" d="m972.9 1202.1l-2.3 6.4-39.8 20c0 0-11-18.1-13.8-35-2.8-16.8 4.6-21.2 4.6-21.2 0 0-4.3 4.9 5.5 13.9 9.7 8.9 22.4-2.5 34.2-4.5 11.8-2.1 11.4 9.7 11.4 9.7 2.9 3.8 0.2 10.7 0.2 10.7z"/>
	<path id="Path 23" class="s0" d="m251.9 204.4c0 0 6 9.3 21.7 2.4 10.1-5.6 13.9-3.5 15.3 0.3 1.4 3.8 1 6.6-1.4 9-2.4 2.4-19.3 7.6-24.9 6.2-5.5-1.4-14.1-10.4-10.7-17.9z"/>
	<path id="Path 24" class="s2" d="m251.9 204.4c0 0 6 9.3 21.7 2.4 10.1-5.6 13.9-3.5 15.3 0.3 1.4 3.8 1 6.6-1.4 9-2.4 2.4-19.3 7.6-24.9 6.2-5.5-1.4-14.1-10.4-10.7-17.9z"/>
	<path id="Path 25" class="s0" d="m117.6 273.7c0 0-12.5 8.9-26.3 9.6-13.8 0.6-27.3-3.9-29.1-7.9 1-3.5 3-12.7 12.1-15.1 8.9-2.5 25.4-1.1 43.3 13.4z"/>
	<path id="Path 26" class="s2" d="m117.6 273.7c0 0-12.5 8.9-26.3 9.6-13.8 0.6-27.3-3.9-29.1-7.9 1-3.5 3-12.7 12.1-15.1 8.9-2.5 25.4-1.1 43.3 13.4z"/>
	<path id="Path 27" class="s0" d="m177.7 284.1l-25.2 47-43.8-29 6.1-32.8c1.8-5.9 62.9 14.8 62.9 14.8z"/>
	<path id="Path 28" class="s1" d="m177.7 284.1l-25.2 47-43.8-29 6.1-32.8c1.8-5.9 62.9 14.8 62.9 14.8z"/>
	<path id="Path 29" class="s0" d="m289.7 208.5l39.6 64.6c0 0-16.5 14.6-45.3 19.9-28.2 5.1-68.6 0.9-89.4-3-42.1-8-79.8-20.1-88-23.5-8.3-3.5-25.6-6.9-30.1-5.2-4.5 1.7-8.5 1.9-12.1 9-2.4 6.4-2 5.5-2 5.5 0 0-9.5-6.4-6.3-20.7 4.7-21 22.5-52.5 22.5-52.5 0 0 11.8-16.2 32.4-14.1 20.8 2 53.9 18.3 80.8 26.2 25.5 7.5 79.3 14.4 94.8-4.1 2-2.3 1.7-4.4 3.1-2.1z"/>
	<path id="Path 30" class="s1" d="m289.7 208.5l39.6 64.6c0 0-16.5 14.6-45.3 19.9-28.2 5.1-68.6 0.9-89.4-3-17.7-3.4-35.3-7.5-52.7-12.3-10.8-3.1-21.8-6.1-32.3-10-8.5-3.2-16.9-6.1-26-6.8-6.4-0.6-13.6 1.3-17.4 6.7-1.3 2-2.4 4.1-3.2 6.3-0.2 0.6-0.3 1.2-0.6 1.8-6.7-3.9-7.8-13.8-6.3-20.6 4.7-21 22.5-52.5 22.5-52.5 0 0 11.8-16.2 32.4-14.1 20.8 2 53.9 18.3 80.8 26.2 25.5 7.5 79.3 14.4 94.8-4.1 2-2.3 1.7-4.4 3.1-2.1z"/>
	<path id="Path 31" fill-rule="evenodd" class="s4" d="m150.2 236.8q-2.3 2-5.2 2.4c2.2 1.5 3.8 3.3 4.6 5.5 0.8 2.1 0.9 4.4 0.2 6.8-0.6 1.8-1.6 3.5-3 5.1-1.3 1.4-3 2.5-4.8 3.1-1.8 0.6-3.9 0.7-6.1 0.3-1.4-0.3-4.8-1.1-10.1-2.7l-14.1-4.1 12.3-41.2 16.4 4.9c3.2 1 5.7 1.9 7.2 2.6 1.5 0.7 2.8 1.7 3.8 2.9 1 1.3 1.7 2.8 2.2 4.5 0.3 1.7 0.3 3.4-0.3 5.2-0.5 1.9-1.5 3.4-3.1 4.7zm-8.9 8.4q-0.5-1.6-2-2.8-1.5-1.1-7.2-2.7l-6.7-2-3.2 11 7.7 2.3c2.9 0.9 4.8 1.4 5.6 1.4 1.3 0.1 2.5-0.1 3.6-0.8 1-0.6 1.8-1.6 2.2-3q0.5-1.9 0-3.4zm3.5-17.8q-0.7-1.5-2.7-2.4c-0.8-0.3-3.2-1.1-7.1-2.2l-4.7-1.4-2.9 9.4 5.5 1.7c3.2 0.9 5.2 1.5 6 1.6 1.5 0.2 2.8 0.1 3.8-0.4 1.1-0.6 1.8-1.6 2.2-2.9 0.4-1.3 0.3-2.4-0.1-3.4z"/>
	<path id="Path 32" fill-rule="evenodd" class="s4" d="m181 228l17.8 3.9-9.2 42-8.4-1.9 3.8-17.5-1.7-0.4c-2.7-0.6-4.7-0.6-5.9 0-1.3 0.5-3.7 2.5-7.2 5.9l-8.1 7.8-10.1-2.2 6.9-7.1c2.7-2.8 4.8-4.7 6.3-5.7q2.2-1.6 5.3-2.5c-3.8-1.5-6.3-3.4-7.6-6-1.2-2.5-1.6-5.2-0.9-8.1 0.5-2.6 1.7-4.6 3.4-6.3q2.5-2.6 5.9-2.9 3.4-0.4 9.7 1zm1.2 7.7q-5-1.1-6.7-1.2-1.6-0.1-3.1 1c-0.9 0.7-1.5 1.7-1.8 3.1q-0.5 2.3 0.3 3.8c0.6 1 1.3 1.7 2.4 2.2 1.1 0.5 3.4 1.1 6.9 1.8l6.3 1.4 2.3-10.6zm56.2 14.1q-0.3 3.9-2 6.5-1.8 2.5-4.1 3.9-2.4 1.2-4.7 1.5-3.1 0.3-9-0.3l-5.6-0.6-1.6 16.2-8.6-0.9 4.3-42.7 13.8 1.4c5.3 0.5 8.6 1 10.2 1.7 2.4 0.9 4.3 2.5 5.7 4.7 1.4 2.3 2 5.2 1.6 8.6zm-9.9-4.8q-1.1-1.6-3.2-2.2c-1-0.3-3.1-0.6-6.2-0.9l-4.2-0.4-1.1 12.1 4.7 0.4c3.4 0.4 5.6 0.4 6.8 0.1q1.8-0.5 2.9-1.9 1.1-1.2 1.3-3.2c0.2-1.5-0.1-2.8-1-4z"/>
	<path id="Path 33" fill-rule="evenodd" class="s4" d="m280.4 275.4l-9.4 0.9-4.6-9.4-17 1.6-2.7 10.1-9.2 0.8 12.7-44.3 9.2-0.9zm-17.4-15.4l-7.4-15.3-4.3 16.4z"/>
	<path id="Path 34" class="s1" d="m257.1 321.5c14.6 8.5 15.8 12 24.9 16.3 0 0 30.8 64 70.6 48.1 39.8-15.8 36-56.6 36-56.6 0 0 4.3 0.1 9 2.6 3.2 1.8 7.3 6.5 7.3 6.5 0 0 5-5.2 12.1-9.2 5.4-3 12.8-4.8 15.3-5.2 5.8-0.9 12.2 0.6 12.2 0.6l-6.3 9.1c0 0 17-6.4 23.7-5.1 6.6 1.3-3.9 12.4-3.9 12.4 0 0 18.9-7.9 34.2-9.2 9.6-0.9 18.1 4.5 18.1 4.5 0 0-8.5 5.9-15.2 12.7-7.8 8-14 17.1-14 17.1 0 0 20.7-15.5 35.5-12.8 14.8 2.8 14.8 3.8 14.8 3.8 0 0-6.1-14.1-3.3-19.6 2.8-5.6 13.5-7.5 16.3-7.3 2.7 0.2 0.9 5.6 0.9 5.6 0 0 21.4 2 21.8 19.7 0.4 17.9-27.5 34.7-27.5 34.7 0 0 10.5 21.4 69.3-4.7 58.8 26.1 69.4 4.7 69.4 4.7 0 0-28-16.8-27.7-34.7 0.4-17.7 21.9-19.7 21.9-19.7 0 0-1.8-5.4 0.9-5.6 2.8-0.2 13.5 1.7 16.3 7.3 2.8 5.5-3.3 19.6-3.3 19.6 0 0 0-1 14.8-3.8 14.8-2.7 35.5 12.8 35.5 12.8 0 0-6.2-9.1-14-17.1-6.7-6.8-15.2-12.7-15.2-12.7 0 0 8.5-5.4 18.1-4.5 15.3 1.3 34.2 9.2 34.2 9.2 0 0-10.5-11.1-3.8-12.4 6.6-1.3 23.6 5.1 23.6 5.1l-6.3-9.1c0 0 6.4-1.5 12.2-0.6 2.5 0.4 9.9 2.2 15.3 5.2 7.1 4 12.1 9.2 12.1 9.2 0 0 4.1-4.7 7.3-6.5 4.7-2.5 9-2.6 9-2.6 0 0-3.8 40.8 36 56.6 39.8 15.9 67.7-45.9 67.7-45.9 11.7-7.5 20.3-16.2 17.7-21.5-7 6.9-12.2 14.5-14.5 18.7-2 3.7-22.5 55.1 14.1 67.8 33.7 11.7 42-33.8 42-33.8 0 0-14.3 20.7-34.4 6.9-20.2-13.8-4.9-54.4 27.1-49.7 30 4.4 25.1 35.9 25.1 35.9 0 0 0.1 5.3-3.3 13.4-8.2 19.4-25.5 54.9-30.7 69.9-7.4 21.2-10.4 86.6-5.9 112.3 4.4 25.6 25.6 77.3 30 84.7 4.4 7.3 14.4 33 13.8 50.7-0.7 22.7-15.4 35.6-29 54.7-4.6 6.3-6.6 27.1-7.8 45.8-1.3 21.9-2.6 44.2-2.6 48.7 0 8.4 3.4 68-5.9 105.9-9.4 38-30.1 81.8-32 86.7-2 4.9-5 18.7-1.5 24.6 3.4 6 18.2 17.2 24.1 19.7 5.9 2.5 17 11.6 8.9 21.2-29.6 35-69.5-22.2-69.5-22.2 0 0 0.4 18.4-2.9 32.2-2 7.9-8.4 14.7-8.4 14.7 0 0-7.8-6.6-19.7-6-2.1-0.1-4.5 0-6.8 0.5-22.6 4.4-40.6 28-58.1 40.1-50.5 24.5-75.3 19.9-121.2 39-4.9 2.1-9.7 4.5-14.2 7.2-1.7 0.7-3.3 1.4-5 2.1-27.8 11.8-51.3 36-51.3 36h-1.1c0 0-23.4-24.2-51.2-36-5.4-2.3-10.4-4.3-15.4-6-2.3-1.2-4.6-2.3-7-3.3-39.8-16.5-63.8-15.3-102.4-30.7-3-1.4-6-2.8-9.1-4.4-19.7-9.9-39.3-39.1-64.6-44-3.7-0.1-6.5-0.3-8.5-0.4-0.9-0.1-1.7-0.1-2.5-0.2-0.6 0-1 0-1.4 0.1-10.5 0.3-17.3 6-17.3 6 0 0-6.5-6.8-8.4-14.7-3.3-13.8-2.9-32.2-2.9-32.2 0 0-39.9 57.2-69.5 22.2-8.1-9.6 3-18.7 8.9-21.2 5.9-2.5 20.7-13.7 24.1-19.7 3.5-5.9 0.5-19.7-1.5-24.6-1.9-4.9-22.6-48.7-32-86.7-9.3-37.9-5.9-97.5-5.9-105.9 0-4.5-1.2-26.8-2.6-48.7-1.1-18.7-3.2-39.5-7.8-45.8-13.6-19.1-28.3-32-29-54.7-0.6-17.7 9.4-43.4 13.8-50.7 4.4-7.4 25.6-59.1 30-84.7 4.5-25.7 1.5-91.1-5.9-112.3-5.2-15-22.5-50.5-30.7-69.9-3.4-8.1-3.3-13.4-3.3-13.4 0 0-4.9-31.5 25.1-35.9 32-4.7 47.3 35.9 27.1 49.7-20.1 13.8-34.4-6.9-34.4-6.9 0 0 8.3 45.5 42 33.8 36.6-12.7 16-64 13.9-67.8-2.3-4.2-17.4-8.8-24.4-15.7zm-15.3 392.8c11.1 0.8 11.1-16.7 11.1-16.7 0 0 16.8 13.7 2.3 29.3-7.1 7.5-29 6.1-33.4-14-9.2-40.8 23.9-43.1 23.9-43.1-26.1 18.4-15 43.7-3.9 44.5zm3.9-28.6c0 0-3.9 3.3-3.9 5.8 0 2.5 6.4 5.9 5.8 10-0.5 4.2-2.8 4.7-5.5 5-2.8 0.3-12-13.9-2.2-21.1 9.1-0.3 5.8 0.3 5.8 0.3zm-8.5-346c11.7 0 21.2 6.7 21.2 15.1 0 8.2-9.5 14.9-21.2 14.9-1.4 0-2.7-0.1-4.1-0.3 9.8-1.3 17.1-7.4 17.1-14.6 0-7.4-7.3-13.4-17.1-14.8 1.4-0.2 2.7-0.3 4.1-0.3zm54.6 738.2c2.7 7.6-7.7 12.1-9.2 10.9-1.4-1.2-2.4-2.4-1.2-4.9 1.3-2.5 6.1-2 7-3.4 1-1.4 0-4.7 0-4.7 0 0-1.6-1.6 3.4 2.1zm2.7-10.9c0 0 17.5 13.7-3 33-10.1 9.4-22.8 2-23.9-4.8-2.2-14.2 12.3-15.5 12.3-15.5 0 0-6.5 9.8-0.1 13.5 6.5 3.7 22.2-6.1 14.7-26.2zm677.7-397.2c0 0 33 2.3 23.8 43.1-4.5 20.1-26.3 21.5-33.4 14-14.5-15.6 2.3-29.3 2.3-29.3 0 0 0 17.5 11.1 16.7 11.1-0.8 22.3-26.1-3.8-44.5zm5.8 15.6c9.7 7.2 0.5 21.4-2.3 21.1-2.7-0.3-5-0.8-5.5-5-0.6-4.1 5.8-7.5 5.8-10 0-2.5-3.8-5.8-3.8-5.8 0 0-3.4-0.6 5.8-0.3zm6.7-344c-9.7 1.3-17.1 7.1-17.1 14 0 7 7.4 12.7 17.1 14-1.3 0.2-2.7 0.3-4.2 0.3-11.6 0-21.1-6.4-21.1-14.3 0-7.8 9.5-14.3 21.1-14.3 1.5 0 2.9 0.1 4.2 0.3zm-55.3 734.4c0 0-1 3.3 0 4.7 0.9 1.4 5.7 0.9 7 3.4 1.3 2.5 0.2 3.7-1.2 4.9-1.4 1.2-11.9-3.3-9.2-10.9 5-3.7 3.4-2.1 3.4-2.1zm8.6 17.4c6.5-3.7-0.1-13.5-0.1-13.5 0 0 14.5 1.3 12.3 15.5-1.1 6.8-13.8 14.2-23.9 4.8-20.5-19.3-2.9-33-2.9-33-7.7 20.1 8.1 29.9 14.6 26.2zm-329.4-644.9v0.1h0.6v-0.1h268.2c0 15.3 0 88.9-0.2 220.2 0.1 31.6 0.1 64 0.1 96.5 0 32.5 0.1 65.1 0.1 97v28.7c-1 6.5-2.1 12.6-3.2 17.9q-1.6 8.6-3.9 17.3-2.1 8.3-4.9 16.9-2.8 8.3-6.1 16.5c-59 146.5-241.2 157.7-243.1 157.9h-0.2l-7.1 0.5-7.1-0.5h-0.2c-1.9-0.2-184.1-11.4-243.1-157.9q-3.4-8.2-6-16.5c-1.9-5.7-3.6-11.4-5-16.9q-2.3-8.7-4-17.3c-1-5.3-2-11.4-3.1-17.9v-28.7c0.1-31.9 0.1-64.5 0.1-97 0-32.5 0-64.9 0.2-96.5-0.2-131.3-0.3-204.9-0.2-220.2z"/>
	<path id="Path 35" class="s5" d="m725.7 531.5c0.4 0 0.8 0.1 1 0.2 0.4 0.2 0.5 0.6 0.5 0.8q0 0.5-0.5 0.9c-0.2 0.2-0.6 0.3-1 0.3h-0.1c0 0.3-0.2 0.5-0.4 0.8-0.2 0.1-0.5 0.3-0.8 0.3-0.3 0-0.6-0.2-0.8-0.3q-0.3-0.4-0.3-0.8h-7.1v10.5l-0.6-0.6-0.6-0.5-0.6 0.5-0.5 0.6v-10.5h-7.1c0 0.3-0.2 0.5-0.4 0.8-0.2 0.1-0.5 0.3-0.8 0.3-0.3 0-0.6-0.2-0.8-0.3-0.2-0.3-0.4-0.5-0.4-0.8h-0.1c-0.2 0-0.5-0.2-0.8-0.4-0.2-0.2-0.4-0.5-0.4-0.8 0-0.2 0.2-0.5 0.4-0.7q0.4-0.3 0.8-0.3h0.2c0-0.3 0.1-0.5 0.2-0.7 0.2-0.3 0.5-0.5 0.9-0.5q0.5 0 0.8 0.5c0.2 0.2 0.3 0.4 0.3 0.7h7.2v-6.4c-0.4 0-0.6-0.2-0.8-0.3q-0.5-0.3-0.5-0.8c0-0.3 0.2-0.6 0.5-0.9 0.2 0 0.4-0.1 0.8-0.2 0-0.3 0.1-0.6 0.3-0.8 0.2-0.2 0.5-0.3 0.8-0.3 0.3 0 0.6 0.1 0.8 0.3 0.2 0.2 0.4 0.5 0.4 0.8q0.5 0 0.8 0.4c0.3 0.1 0.4 0.4 0.4 0.7q0 0.4-0.4 0.8c-0.2 0.1-0.5 0.3-0.8 0.3v6.4h7.1q0.1-0.5 0.3-0.7c0.2-0.3 0.5-0.5 0.8-0.5 0.3 0 0.7 0.2 0.9 0.5 0.1 0.2 0.2 0.4 0.2 0.7z"/>
	<path id="Path 36" class="s4" d="m725.7 531.5c0.4 0 0.8 0.1 1 0.2 0.4 0.2 0.5 0.6 0.5 0.8q0 0.5-0.5 0.9c-0.2 0.2-0.6 0.3-1 0.3h-0.1c0 0.3-0.2 0.5-0.4 0.8-0.2 0.1-0.5 0.3-0.8 0.3-0.3 0-0.6-0.2-0.8-0.3q-0.3-0.4-0.3-0.8h-7.1v10.5l-0.6-0.6-0.6-0.5-0.6 0.5-0.5 0.6v-10.5h-7.1c0 0.3-0.2 0.5-0.4 0.8-0.2 0.1-0.5 0.3-0.8 0.3-0.3 0-0.6-0.2-0.8-0.3-0.2-0.3-0.4-0.5-0.4-0.8h-0.1c-0.2 0-0.5-0.2-0.8-0.4-0.2-0.2-0.4-0.5-0.4-0.8 0-0.2 0.2-0.5 0.4-0.7q0.4-0.3 0.8-0.3h0.2c0-0.3 0.1-0.5 0.2-0.7 0.2-0.3 0.5-0.5 0.9-0.5q0.5 0 0.8 0.5c0.2 0.2 0.3 0.4 0.3 0.7h7.2v-6.4c-0.4 0-0.6-0.2-0.8-0.3q-0.5-0.3-0.5-0.8c0-0.3 0.2-0.6 0.5-0.9 0.2 0 0.4-0.1 0.8-0.2 0-0.3 0.1-0.6 0.3-0.8 0.2-0.2 0.5-0.3 0.8-0.3 0.3 0 0.6 0.1 0.8 0.3 0.2 0.2 0.4 0.5 0.4 0.8q0.5 0 0.8 0.4c0.3 0.1 0.4 0.4 0.4 0.7q0 0.4-0.4 0.8c-0.2 0.1-0.5 0.3-0.8 0.3v6.4h7.1q0.1-0.5 0.3-0.7c0.2-0.3 0.5-0.5 0.8-0.5 0.3 0 0.7 0.2 0.9 0.5 0.1 0.2 0.2 0.4 0.2 0.7z"/>
	<path id="Path 37" class="s5" d="m512.6 531.5c0.5 0 0.8 0.1 1 0.2 0.4 0.2 0.6 0.6 0.6 0.8 0 0.4-0.2 0.7-0.6 0.9-0.2 0.2-0.5 0.3-1 0.3h-0.1c0 0.3-0.1 0.5-0.4 0.8-0.2 0.1-0.5 0.3-0.7 0.3-0.3 0-0.6-0.2-0.8-0.3-0.3-0.3-0.4-0.5-0.4-0.8h-7.1v10.5l-0.6-0.6-0.6-0.5-0.5 0.5-0.6 0.6v-10.5h-7.1q0 0.4-0.4 0.8c-0.2 0.1-0.5 0.3-0.8 0.3-0.3 0-0.6-0.2-0.8-0.3-0.2-0.3-0.4-0.5-0.4-0.8-0.3 0-0.6-0.2-0.8-0.4-0.2-0.2-0.4-0.5-0.4-0.8 0-0.2 0.2-0.5 0.4-0.7 0.2-0.2 0.5-0.3 0.8-0.3 0.1-0.3 0.2-0.5 0.3-0.7 0.3-0.3 0.6-0.5 0.9-0.5 0.3 0 0.7 0.2 0.9 0.5 0.1 0.2 0.2 0.4 0.3 0.7h7.1v-6.4c-0.3 0-0.6-0.2-0.7-0.3q-0.5-0.3-0.5-0.8c0-0.3 0.1-0.6 0.5-0.9 0.1 0 0.4-0.1 0.7-0.2 0-0.3 0.1-0.6 0.4-0.8 0.2-0.2 0.5-0.3 0.7-0.3 0.3 0 0.6 0.1 0.8 0.3 0.3 0.2 0.4 0.5 0.4 0.8q0.6 0 0.9 0.4c0.2 0.1 0.3 0.4 0.3 0.7q0 0.4-0.3 0.8c-0.2 0.1-0.5 0.3-0.9 0.3v6.4h7.1c0.1-0.3 0.1-0.5 0.3-0.7q0.3-0.5 0.9-0.5 0.5 0 0.8 0.5c0.2 0.2 0.2 0.4 0.3 0.7z"/>
	<path id="Path 38" class="s4" d="m512.6 531.5c0.5 0 0.8 0.1 1 0.2 0.4 0.2 0.6 0.6 0.6 0.8 0 0.4-0.2 0.7-0.6 0.9-0.2 0.2-0.5 0.3-1 0.3h-0.1c0 0.3-0.1 0.5-0.4 0.8-0.2 0.1-0.5 0.3-0.7 0.3-0.3 0-0.6-0.2-0.8-0.3-0.3-0.3-0.4-0.5-0.4-0.8h-7.1v10.5l-0.6-0.6-0.6-0.5-0.5 0.5-0.6 0.6v-10.5h-7.1q0 0.4-0.4 0.8c-0.2 0.1-0.5 0.3-0.8 0.3-0.3 0-0.6-0.2-0.8-0.3-0.2-0.3-0.4-0.5-0.4-0.8-0.3 0-0.6-0.2-0.8-0.4-0.2-0.2-0.4-0.5-0.4-0.8 0-0.2 0.2-0.5 0.4-0.7 0.2-0.2 0.5-0.3 0.8-0.3 0.1-0.3 0.2-0.5 0.3-0.7 0.3-0.3 0.6-0.5 0.9-0.5 0.3 0 0.7 0.2 0.9 0.5 0.1 0.2 0.2 0.4 0.3 0.7h7.1v-6.4c-0.3 0-0.6-0.2-0.7-0.3q-0.5-0.3-0.5-0.8c0-0.3 0.1-0.6 0.5-0.9 0.1 0 0.4-0.1 0.7-0.2 0-0.3 0.1-0.6 0.4-0.8 0.2-0.2 0.5-0.3 0.7-0.3 0.3 0 0.6 0.1 0.8 0.3 0.3 0.2 0.4 0.5 0.4 0.8q0.6 0 0.9 0.4c0.2 0.1 0.3 0.4 0.3 0.7q0 0.4-0.3 0.8c-0.2 0.1-0.5 0.3-0.9 0.3v6.4h7.1c0.1-0.3 0.1-0.5 0.3-0.7q0.3-0.5 0.9-0.5 0.5 0 0.8 0.5c0.2 0.2 0.2 0.4 0.3 0.7z"/>
	<path id="Path 39" fill-rule="evenodd" class="s2" d="m318.9 668.2c-0.2-146.1-0.2-220.8-0.2-223.3v-18.9h289.9 0.6 289.9v18.9c0 2.5 0 77.2-0.2 223.3 0.1 31.5 0.1 63.9 0.1 96.4 0.1 32.5 0.1 65.1 0.1 97v30.8l-0.1 0.6-0.1 0.6c-0.8 5.9-2 12.2-3.3 18.9-1.3 6.4-2.7 12.5-4.2 18.4-1.7 6.4-3.4 12.5-5.4 18.3-1.9 6.2-4.2 12.1-6.5 18-60.1 149.3-236 169.2-259.5 171.2l-11.1 0.8-11.1-0.8c-23.5-2-199.4-21.9-259.5-171.2-2.3-5.9-4.6-11.8-6.5-18-1.9-5.8-3.7-11.9-5.4-18.3-1.5-5.9-2.9-12-4.2-18.4-1.3-6.7-2.4-13-3.3-18.9l-0.1-0.6-0.1-0.6v-30.8c0-31.9 0-64.5 0.1-97 0-32.5 0-64.9 0.1-96.4zm21.6-220.4c-0.1 15.3 0 88.9 0.2 220.4-0.2 31.5-0.2 63.9-0.2 96.4 0 32.5 0 65.1-0.1 97v28.7c1.1 6.6 2.1 12.6 3.1 17.9q1.7 8.6 4 17.3c1.4 5.5 3.1 11.2 5 16.9q2.6 8.3 6 16.5c59 146.5 241.2 157.8 243.1 157.9h0.2l7.1 0.4 7.1-0.4h0.2c1.9-0.1 184.1-11.4 243.1-157.9q3.3-8.2 6.1-16.5c1.8-5.7 3.5-11.4 4.9-16.9q2.3-8.7 4-17.3c1-5.3 2.1-11.3 3.1-17.9v-28.7c0-31.9-0.1-64.5-0.1-97 0-32.5 0-64.9-0.1-96.4 0.2-131.5 0.2-205.1 0.2-220.4l-261.1 0.1h-7.1v0.1h-0.6v-0.1h-7.1z"/>
	<path id="Path 40" class="s5" d="m618.9 640.5c0.4 0 0.7 0.1 1 0.2q0.6 0.4 0.5 0.9 0.1 0.5-0.5 0.8c-0.3 0.2-0.6 0.2-1 0.2h-0.1v0.1c0 0.3-0.2 0.6-0.4 0.7-0.2 0.3-0.5 0.4-0.8 0.4-0.3 0-0.6-0.1-0.8-0.4-0.2-0.1-0.3-0.4-0.3-0.7v-0.1h-7.1v10.5l-0.6-0.5-0.6-0.5-0.6 0.5-0.6 0.6v-10.6h-7.1v0.1c0 0.3-0.1 0.6-0.3 0.7q-0.4 0.4-0.8 0.4c-0.3 0-0.6-0.1-0.8-0.4-0.2-0.1-0.4-0.4-0.4-0.7v-0.1h-0.1c-0.2 0-0.5-0.1-0.8-0.2-0.2-0.3-0.4-0.5-0.4-0.8 0-0.3 0.2-0.6 0.4-0.8 0.3-0.2 0.6-0.3 0.8-0.3h0.1c0-0.3 0.2-0.5 0.3-0.7 0.2-0.3 0.5-0.4 0.9-0.4 0.3 0 0.6 0.1 0.8 0.4 0.1 0.2 0.3 0.4 0.3 0.7h7.1v-6.4c-0.3-0.1-0.5-0.1-0.7-0.2q-0.5-0.4-0.5-0.9 0-0.5 0.5-0.8c0.2-0.2 0.4-0.2 0.7-0.3 0-0.3 0.2-0.6 0.4-0.8q0.4-0.3 0.8-0.3c0.3 0 0.6 0.1 0.8 0.3 0.2 0.2 0.4 0.5 0.4 0.8 0.3 0 0.6 0.1 0.8 0.3q0.4 0.4 0.4 0.8 0 0.4-0.4 0.8c-0.2 0.2-0.5 0.3-0.8 0.3v6.4h7.1c0-0.3 0.1-0.5 0.3-0.7q0.3-0.4 0.8-0.4c0.3 0 0.7 0.1 0.9 0.4q0.2 0.3 0.2 0.7z"/>
	<path id="Path 41" class="s1" d="m618.9 640.5c0.4 0 0.7 0.1 1 0.2q0.6 0.4 0.5 0.9 0.1 0.5-0.5 0.8c-0.3 0.2-0.6 0.2-1 0.2h-0.1v0.1c0 0.3-0.2 0.6-0.4 0.7-0.2 0.3-0.5 0.4-0.8 0.4-0.3 0-0.6-0.1-0.8-0.4-0.2-0.1-0.3-0.4-0.3-0.7v-0.1h-7.1v10.5l-0.6-0.5-0.6-0.5-0.6 0.5-0.6 0.6v-10.6h-7.1v0.1c0 0.3-0.1 0.6-0.3 0.7q-0.4 0.4-0.8 0.4c-0.3 0-0.6-0.1-0.8-0.4-0.2-0.1-0.4-0.4-0.4-0.7v-0.1h-0.1c-0.2 0-0.5-0.1-0.8-0.2-0.2-0.3-0.4-0.5-0.4-0.8 0-0.3 0.2-0.6 0.4-0.8 0.3-0.2 0.6-0.3 0.8-0.3h0.1c0-0.3 0.2-0.5 0.3-0.7 0.2-0.3 0.5-0.4 0.9-0.4 0.3 0 0.6 0.1 0.8 0.4 0.1 0.2 0.3 0.4 0.3 0.7h7.1v-6.4c-0.3-0.1-0.5-0.1-0.7-0.2q-0.5-0.4-0.5-0.9 0-0.5 0.5-0.8c0.2-0.2 0.4-0.2 0.7-0.3 0-0.3 0.2-0.6 0.4-0.8q0.4-0.3 0.8-0.3c0.3 0 0.6 0.1 0.8 0.3 0.2 0.2 0.4 0.5 0.4 0.8 0.3 0 0.6 0.1 0.8 0.3q0.4 0.4 0.4 0.8 0 0.4-0.4 0.8c-0.2 0.2-0.5 0.3-0.8 0.3v6.4h7.1c0-0.3 0.1-0.5 0.3-0.7q0.3-0.4 0.8-0.4c0.3 0 0.7 0.1 0.9 0.4q0.2 0.3 0.2 0.7z"/>
	<path id="Path 42" class="s6" d="m598.3 659.4v-7.9h20v8.3z"/>
	<path id="Path 43" class="s7" d="m677.8 590.5h74.5v298.9h-74.5z"/>
	<path id="Path 44" class="s1" d="m677.8 590.5h74.5v298.9h-74.5z"/>
	<path id="Path 45" class="s7" d="m684.3 748.3v-33.1h3.3c0-0.7 1.2-1.5 2-1.5 1.3 0 2 0.8 2.5 1.5h2c0-0.7 0.8-1.5 2.1-1.5 1.2 0 2 0.8 2 1.5h2.5c0-0.7 0.8-1.5 2-1.5 1.2 0 2 0.8 2 1.5h2.1c0.4-0.7 1.2-1.5 2.5-1.5 0.8 0 2 0.8 2 1.5h2.1c0.4-1.9 4-1.9 4.5 0h2c0-1.9 4.1-1.9 4.5 0h2.1c0-0.7 0.8-1.5 2-1.5 1.2 0 2.1 0.8 2.1 1.5h2.4c0-0.7 0.8-1.5 2.1-1.5 1.2 0 2 0.8 2 1.5h2c0.5-0.7 1.3-1.5 2.5-1.5 0.8 0 2.1 0.8 2.1 1.5h2.4v174.2h-3.3c0-0.4 0-141.4 0-141.4-0.4-13.8-12.7-25-27.8-25-15.1 0-27.8 11.5-27.8 25.3z"/>
	<path id="Path 46" class="s1" d="m684.3 748.3v-33.1h3.3c0-0.7 1.2-1.5 2-1.5 1.3 0 2 0.8 2.5 1.5h2c0-0.7 0.8-1.5 2.1-1.5 1.2 0 2 0.8 2 1.5h2.5c0-0.7 0.8-1.5 2-1.5 1.2 0 2 0.8 2 1.5h2.1c0.4-0.7 1.2-1.5 2.5-1.5 0.8 0 2 0.8 2 1.5h2.1c0.4-1.9 4-1.9 4.5 0h2c0-1.9 4.1-1.9 4.5 0h2.1c0-0.7 0.8-1.5 2-1.5 1.2 0 2.1 0.8 2.1 1.5h2.4c0-0.7 0.8-1.5 2.1-1.5 1.2 0 2 0.8 2 1.5h2c0.5-0.7 1.3-1.5 2.5-1.5 0.8 0 2.1 0.8 2.1 1.5h2.4v174.2h-3.3c0-0.4 0-141.4 0-141.4-0.4-13.8-12.7-25-27.8-25-15.1 0-27.8 11.5-27.8 25.3z"/>
	<path id="Path 47" class="s8" d="m709.7 835.8c0-2.6 2.5-4.8 5.3-4.8 2.9 0 5.3 2.2 5.3 4.8v21.3h-10.6z"/>
	<path id="Path 48" class="s7" d="m674.9 580.4h81.5l-4.1 9.7h-75z"/>
	<path id="Path 49" class="s1" d="m674.9 580.4h81.5l-4.1 9.7h-75z"/>
	<path id="Path 50" class="s7" d="m715 542.5l27.4 29.7c2.1 0.4 7-0.3 6.6 1.2-0.4 2.2-0.4 2.2-0.8 3.3l7.3 3.4h-81l7.3-3.4c-0.4-1.1-0.4-1.1-0.8-3.3-0.4-1.5 4.5-0.8 6.6-1.2z"/>
	<path id="Path 51" class="s4" d="m715 542.5l27.4 29.7c2.1 0.4 7-0.3 6.6 1.2-0.4 2.2-0.4 2.2-0.8 3.3l7.3 3.4h-81l7.3-3.4c-0.4-1.1-0.4-1.1-0.8-3.3-0.4-1.5 4.5-0.8 6.6-1.2z"/>
	<path id="Path 52" class="s7" d="m464.7 590.5h74.6v298.9h-74.6z"/>
	<path id="Path 53" class="s1" d="m464.7 590.5h74.6v298.9h-74.6z"/>
	<path id="Path 54" class="s8" d="m496.7 835.8c0-2.6 2.4-4.8 5.3-4.8 2.8 0 5.3 2.2 5.3 4.8v21.3h-10.6z"/>
	<path id="Path 55" class="s7" d="m461.8 580.4h81.5l-4.1 9.7h-74.9z"/>
	<path id="Path 56" class="s1" d="m461.8 580.4h81.5l-4.1 9.7h-74.9z"/>
	<path id="Path 57" class="s7" d="m502 542.5l27.4 29.7c2.1 0.4 7-0.3 6.6 1.2-0.4 2.2-0.4 2.2-0.8 3.3l7.3 3.4h-81.1l7.4-3.4c-0.4-1.1-0.4-1.1-0.8-3.3-0.5-1.5 4.5-0.8 6.5-1.2z"/>
	<path id="Path 58" class="s4" d="m502 542.5l27.4 29.7c2.1 0.4 7-0.3 6.6 1.2-0.4 2.2-0.4 2.2-0.8 3.3l7.3 3.4h-81.1l7.4-3.4c-0.4-1.1-0.4-1.1-0.8-3.3-0.5-1.5 4.5-0.8 6.5-1.2z"/>
	<path id="Path 59" class="s7" d="m529.8 748.3c0-13.8-12.3-25.3-27.8-25.3-15.2 0-27.5 11.2-27.5 25-0.4 0-0.4 141-0.4 141.4h-2.8v-174.2h2.4c0-0.7 0.8-1.5 2.1-1.5 1.2 0 2 0.8 2 1.5h2c0-0.7 1.3-1.5 2.5-1.5 0.8 0 2.1 0.8 2.1 1.5h2c0-0.7 1.3-1.5 2.1-1.5 1.2 0 2 0.8 2.4 1.5h2.1c0-1.9 4.1-1.9 4.1 0h2.4c0-1.9 4.1-1.9 4.1 0h2.1c0.4-0.7 1.2-1.5 2.4-1.5 0.8 0 2.1 0.8 2.1 1.5h2c0-0.7 1.3-1.5 2.1-1.5 1.2 0 2.4 0.8 2.4 1.5h2.1c0-0.7 0.8-1.5 2-1.5 1.3 0 2.1 0.8 2.5 1.5h2c0-0.7 0.9-1.5 2.1-1.5 1.2 0 2 0.8 2 1.5h3.7v33.1z"/>
	<path id="Path 60" class="s1" d="m529.8 748.3c0-13.8-12.3-25.3-27.8-25.3-15.2 0-27.5 11.2-27.5 25-0.4 0-0.4 141-0.4 141.4h-2.8v-174.2h2.4c0-0.7 0.8-1.5 2.1-1.5 1.2 0 2 0.8 2 1.5h2c0-0.7 1.3-1.5 2.5-1.5 0.8 0 2.1 0.8 2.1 1.5h2c0-0.7 1.3-1.5 2.1-1.5 1.2 0 2 0.8 2.4 1.5h2.1c0-1.9 4.1-1.9 4.1 0h2.4c0-1.9 4.1-1.9 4.1 0h2.1c0.4-0.7 1.2-1.5 2.4-1.5 0.8 0 2.1 0.8 2.1 1.5h2c0-0.7 1.3-1.5 2.1-1.5 1.2 0 2.4 0.8 2.4 1.5h2.1c0-0.7 0.8-1.5 2-1.5 1.3 0 2.1 0.8 2.5 1.5h2c0-0.7 0.9-1.5 2.1-1.5 1.2 0 2 0.8 2 1.5h3.7v33.1z"/>
	<path id="Path 61" class="s8" d="m508.5 686.9c0-1.9 2.9-3.3 5.8-3.3 3.2 0 5.7 1.4 6.1 3.3v15.6h-11.9z"/>
	<path id="Path 62" class="s2" d="m508.5 686.9c0-1.9 2.9-3.3 5.8-3.3 3.2 0 5.7 1.4 6.1 3.3v15.6h-11.9z"/>
	<path id="Path 63" class="s8" d="m695.3 686.9c0-1.9 2.5-3.3 5.8-3.3 2.8 0 5.7 1.4 5.7 3.3v15.6h-11.5z"/>
	<path id="Path 64" class="s2" d="m695.3 686.9c0-1.9 2.5-3.3 5.8-3.3 2.8 0 5.7 1.4 5.7 3.3v15.6h-11.5z"/>
	<path id="Path 65" class="s7" d="m514.3 699.6l93.8-44 92.6 44v92.7h-55.3v-19.4h-74.6v19.4h-56.5z"/>
	<path id="Path 66" class="s1" d="m514.3 699.6l93.8-44 92.6 44v92.7h-55.3v-19.4h-74.6v19.4h-56.5z"/>
	<path id="Path 67" class="s8" d="m689.6 630.3c0-4.8 5.7-8.5 12.3-8.5 6.1 0 11.5 4.1 11.8 8.5v36.9h-24.1zm26.6 0c0-4.9 5.8-8.6 11.9-8.6 6.6 0 11.9 4.1 12.3 8.6v36.8h-24.2zm5.4 56.6c0-1.9 2.8-3.3 5.7-3.3 3.3 0 5.7 1.4 6.1 3.3v15.6h-11.8zm-11.9 46.5c0-3 2.5-4.8 5.3-4.8 2.9 0 5.3 2.2 5.3 4.8v21.3h-10.6zm0 45c0-2.6 2.5-4.8 5.3-4.8 2.9 0 5.3 2.2 5.3 4.8v21.6h-10.6zm-233.1-148.2c0-4.8 5.7-8.5 12.3-8.5 6.1 0 11.5 4.1 11.9 8.5v36.9h-24.2zm26.6 0c0-4.9 5.7-8.6 11.9-8.6 6.5 0 11.9 4.1 12.3 8.6v36.8h-24.2zm-20.9 56.6c0-1.9 2.5-3.3 5.8-3.3 2.8 0 5.7 1.4 5.7 3.3v15.6h-11.5zm14.4 46.5c0-3 2.4-4.8 5.3-4.8 2.8 0 5.3 2.2 5.3 4.8v21.2h-10.6zm0 45.1c0-2.7 2.4-4.9 5.3-4.9 2.8 0 5.3 2.2 5.3 4.9v21.6h-10.6zm159.3-52.9c0-1.9 2.5-3.3 5.3-3.3 2.9 0 5.3 1.4 5.3 3.3v7.8h-10.6zm-0.8 29.4c0-1.8 3.3-3.3 6.1-3.3 2.9 0 5.3 1.8 5.3 3.7v30.2h-11.4zm-105.3-29.4c0-1.9 2.5-3.3 5.3-3.3 2.9 0 5.4 1.4 5.4 3.3v7.8h-10.7zm-0.4 29.4c0-1.8 3.2-3.4 6.1-3.4 2.9 0 5.4 1.9 5.4 3.8v30.1h-11.5zm63.5 0c0-1.8 3.3-3.3 6.1-3.3 2.9 0 5.4 1.9 5.4 3.7v16.8h-11.5zm-21.3 0c0-1.9 3.7-3.4 6.1-3.4 2.9 0 5.3 1.9 5.8 3.8v16.7h-11.9z"/>
	<path id="Path 68" class="s2" d="m514.3 699.6v-3l93.8-43.6 93.8 44v2.9l-93.8-44.3z"/>
	<path id="Path 69" class="s8" d="m608.1 688.4c4.9 0 9 3.7 9 8.2 0 4.4-4.1 7.8-9 7.8-5 0-8.6-3.4-8.6-7.8 0-4.5 3.6-8.2 8.6-8.2z"/>
	<path id="Path 70" class="s7" d="m570.8 772.9h74.6v19.4h63.5v106.3h-201.2v-106.3h63.1z"/>
	<path id="Path 71" class="s1" d="m570.8 772.9h74.6v19.4h63.5v106.3h-201.2v-106.3h63.1z"/>
	<path id="Path 72" class="s8" d="m542.5 818.7c10.7 0 19.3 7.8 19.3 17.5 0 4.5-2.1 8.5-4.9 11.5h4.5v38.7h-37.7v-38.7h4.5c-2.9-3-4.9-7-4.9-11.5 0-9.7 8.6-17.5 19.2-17.5zm131.5 0c10.3 0 18.9 7.8 18.9 17.5 0 4.5-1.7 8.5-4.5 11.5h4.1v38.7h-37.3v-38.7h4.5c-3.3-3-4.9-7-4.9-11.5 0-9.7 8.6-17.5 19.2-17.5zm-49.1 6.7c6.1 0 11.5 4.8 11.5 10.4 0 2.6-0.9 4.5-2.5 6.3v45.9h-51.6v-45.9c-1.3-1.8-2.1-3.7-2.1-6.3 0-5.6 5.4-10.4 11.5-10.4 6.1 0 11.4 4.8 11.4 10.4 0 2.3-0.7 4.5-2 6.3h14.3c-1.1-1.8-2-4-2-6.3 0-5.6 4.9-10.4 11.5-10.4zm-16.8-102.8c4.1 0 6.9 3 6.9 6.4 0 3.3-2.8 6.3-6.9 6.3-3.7 0-6.6-3-6.6-6.3 0-3.4 2.9-6.4 6.6-6.4z"/>
	<path id="Path 73" class="s7" d="m684.3 634.4v-33.1h3.3c0-0.8 1.2-1.5 2-1.5 1.3 0 2 0.7 2.5 1.5h2c0-0.8 0.8-1.5 2.1-1.5 1.2 0 2 0.7 2 1.5h2.5c0-0.8 0.8-1.5 2-1.5 1.2 0 2 0.7 2 1.5h2.1c0.4-0.8 1.2-1.5 2.5-1.5 0.8 0 2 0.7 2 1.5h2.1c0.4-1.9 4-1.9 4.5 0h2c0-1.9 4.1-1.9 4.5 0h2.1c0-0.8 0.8-1.5 2-1.5 1.2 0 2.1 0.7 2.1 1.5h2.4c0-0.8 0.8-1.5 2.1-1.5 1.2 0 2 0.7 2 1.5h2c0.5-0.8 1.3-1.5 2.5-1.5 0.8 0 2.1 0.7 2.1 1.5h2.4v33.1h-3.3c0-13.8-12.2-25.3-27.8-25.3-15.1 0-27.8 11.5-27.8 25.3z"/>
	<path id="Path 74" class="s1" d="m684.3 634.4v-33.1h3.3c0-0.8 1.2-1.5 2-1.5 1.3 0 2 0.7 2.5 1.5h2c0-0.8 0.8-1.5 2.1-1.5 1.2 0 2 0.7 2 1.5h2.5c0-0.8 0.8-1.5 2-1.5 1.2 0 2 0.7 2 1.5h2.1c0.4-0.8 1.2-1.5 2.5-1.5 0.8 0 2 0.7 2 1.5h2.1c0.4-1.9 4-1.9 4.5 0h2c0-1.9 4.1-1.9 4.5 0h2.1c0-0.8 0.8-1.5 2-1.5 1.2 0 2.1 0.7 2.1 1.5h2.4c0-0.8 0.8-1.5 2.1-1.5 1.2 0 2 0.7 2 1.5h2c0.5-0.8 1.3-1.5 2.5-1.5 0.8 0 2.1 0.7 2.1 1.5h2.4v33.1h-3.3c0-13.8-12.2-25.3-27.8-25.3-15.1 0-27.8 11.5-27.8 25.3z"/>
	<path id="Path 75" class="s7" d="m715.4 613.2c5.3 0 10.3 1.8 13.9 4.8-5.3 0-10.2 2.2-13.9 5.6-3.7-3.4-8.6-5.6-14.3-5.6 3.6-3 8.6-4.8 14.3-4.8z"/>
	<path id="Path 76" class="s1" d="m715.4 613.2c5.3 0 10.3 1.8 13.9 4.8-5.3 0-10.2 2.2-13.9 5.6-3.7-3.4-8.6-5.6-14.3-5.6 3.6-3 8.6-4.8 14.3-4.8z"/>
	<path id="Path 77" class="s7" d="m685.1 672.7h59.8v4.5h-27.5v31.7h-4.8v-31.7h-27.5z"/>
	<path id="Path 78" class="s1" d="m685.1 672.7h59.8v4.5h-27.5v31.7h-4.8v-31.7h-27.5z"/>
	<path id="Path 79" class="s7" d="m471.3 634.4v-33.1h3.2c0-0.8 1.3-1.5 2.1-1.5 1.2 0 2 0.7 2.4 1.5h2.1c0-0.8 0.8-1.5 2-1.5 1.3 0 2.1 0.7 2.1 1.5h2.5c0-0.8 0.8-1.5 2-1.5 1.2 0 2 0.7 2 1.5h2.1c0.4-0.8 1.2-1.5 2.4-1.5 0.9 0 2.1 0.7 2.1 1.5h2.1c0.4-1.9 4-1.9 4.4 0h2.1c0-1.9 4.1-1.9 4.5 0h2.1c0-0.8 0.7-1.5 2-1.5 1.2 0 2 0.7 2 1.5h2.5c0-0.8 0.8-1.5 2.1-1.5 1.2 0 2 0.7 2 1.5h2.1c0.4-0.8 1.2-1.5 2.4-1.5 0.8 0 2 0.7 2 1.5h2.5v33.1h-3.3c0-13.8-12.3-25.3-27.8-25.3-15.2 0-27.5 11.5-27.9 25.3z"/>
	<path id="Path 80" class="s1" d="m471.3 634.4v-33.1h3.2c0-0.8 1.3-1.5 2.1-1.5 1.2 0 2 0.7 2.4 1.5h2.1c0-0.8 0.8-1.5 2-1.5 1.3 0 2.1 0.7 2.1 1.5h2.5c0-0.8 0.8-1.5 2-1.5 1.2 0 2 0.7 2 1.5h2.1c0.4-0.8 1.2-1.5 2.4-1.5 0.9 0 2.1 0.7 2.1 1.5h2.1c0.4-1.9 4-1.9 4.4 0h2.1c0-1.9 4.1-1.9 4.5 0h2.1c0-0.8 0.7-1.5 2-1.5 1.2 0 2 0.7 2 1.5h2.5c0-0.8 0.8-1.5 2.1-1.5 1.2 0 2 0.7 2 1.5h2.1c0.4-0.8 1.2-1.5 2.4-1.5 0.8 0 2 0.7 2 1.5h2.5v33.1h-3.3c0-13.8-12.3-25.3-27.8-25.3-15.2 0-27.5 11.5-27.9 25.3zm31.1-21.2c5.4 0 10.2 1.8 13.9 4.8-5.2 0-10.2 2.3-13.9 5.6-3.6-3.3-8.6-5.6-14.3-5.6 4.1-3 9-4.8 14.3-4.8z"/>
	<path id="Path 81" class="s7" d="m472.1 672.7h59.8v4.5h-27.5v31.7h-4.5v-31.7h-27.8z"/>
	<path id="Path 82" class="s1" d="m472.1 672.7h59.8v4.5h-27.5v31.7h-4.5v-31.7h-27.8z"/>
	<path id="Path 83" class="s7" d="m583.9 752.8c0-4.8 6.5-8.6 13.5-8.6 4.1 0 8.2 1.5 10.7 3.4 2.4-1.9 6.5-3.4 10.6-3.4 7 0 13.1 4.1 13.6 9v18.9h-48.4z"/>
	<path id="Path 84" class="s1" d="m583.9 752.8c0-4.8 6.5-8.6 13.5-8.6 4.1 0 8.2 1.5 10.7 3.4 2.4-1.9 6.5-3.4 10.6-3.4 7 0 13.1 4.1 13.6 9v18.9h-48.4z"/>
	<path id="Path 85" class="s7" d="m608.1 674.6l75.8 36.5v2.6l-9-3.4c0 0 0-0.3 0-0.7 0-0.7-0.9-1.5-1.7-1.5-0.4 0-1.2 0.4-1.2 1.2l-3.7-1.9c0.4 0 0.4-0.4 0.4-0.8 0-0.7-0.8-1.4-1.6-1.4-0.9 0-1.3 0.3-1.6 1l-2.9-1.4c0-0.4 0-0.4 0-0.8 0-0.7-0.4-1.5-1.7-1.5-0.4 0-1.2 0.4-1.2 0.8l-3.7-1.5c0-0.4 0.4-0.4 0.4-0.8 0-0.7-0.8-1.4-1.6-1.4-0.9 0-1.3 0.3-1.7 0.7l-3.6-1.9v-0.3c0-1.1-0.4-1.5-1.7-1.5-0.4 0-0.8 0-1.2 0.7l-0.8-0.3v31.2h-10.3v-36.1l-1.2-0.7c0-0.4 0-0.4 0-0.8 0-0.7-0.8-1.5-1.6-1.5-0.4 0-1.3 0.4-1.3 0.8l-3.3-1.5 0.4-0.4c0-1.1-0.8-1.5-1.5-1.5-0.9 0-1.3 0.4-1.7 0.8l-3.3-1.5c0-0.4 0.4-0.4 0.4-0.8 0-0.7-0.8-1.4-1.6-1.4-0.8 0-1.3 0.3-1.7 0.7l-2.8-1.5c0 0 0-0.4 0-0.8 0-0.7-0.9-1.4-1.7-1.4-0.3 0-1.2 0.4-1.2 1.1l-4.1-1.9h0.4l-0.4-0.4v-0.3c0-0.7-0.4-1.5-1.2-1.5-0.8 0-1.7 0.8-1.7 1.5v0.7l-3.7 1.9c-0.3-0.7-0.7-1.1-1.6-1.1-0.8 0-1.6 0.7-1.6 1.4 0 0.4 0 0.8 0.4 0.8l-3.3 1.5c0-0.4-0.8-0.7-1.2-0.7-0.8 0-1.7 0.7-1.7 1.4 0 0.4 0 0.4 0 0.8l-3.3 1.5c0-0.4-0.8-0.8-1.1-0.8-0.9 0-1.7 0.4-1.7 1.5v0.4l-2.9 1.5c-0.4-0.4-0.8-0.8-1.6-0.8-0.8 0-1.7 0.8-1.7 1.5 0 0.4 0 0.4 0.5 0.8l-1.7 0.7v36.1h-10.2v-31.2l-0.8 0.3c0-0.7-0.9-0.7-1.3-0.7-0.8 0-1.6 0.4-1.6 1.5v0.3l-3.7 1.9c0-0.4-0.8-0.7-1.2-0.7-0.8 0-1.7 0.7-1.7 1.4 0 0.4 0 0.4 0 0.8l-3.2 1.5c-0.5-0.4-0.9-0.8-1.7-0.8-0.8 0-1.6 0.8-1.6 1.5 0 0.4 0 0.4 0 0.8l-2.9 1.4c-0.4-0.7-0.8-1-1.6-1-0.8 0-1.7 0.7-1.7 1.4 0 0.4 0.5 0.8 0.5 0.8l-3.3 1.9c-0.4-0.8-0.9-1.2-1.7-1.2-0.8 0-1.6 0.8-1.6 1.5 0 0.4 0 0.7 0.4 0.7l-9 3.4v-2.6z"/>
	<path id="Path 86" class="s1" d="m608.1 674.6l75.8 36.5v2.6l-9-3.4c0 0 0-0.3 0-0.7 0-0.7-0.9-1.5-1.7-1.5-0.4 0-1.2 0.4-1.2 1.2l-3.7-1.9c0.4 0 0.4-0.4 0.4-0.8 0-0.7-0.8-1.4-1.6-1.4-0.9 0-1.3 0.3-1.6 1l-2.9-1.4c0-0.4 0-0.4 0-0.8 0-0.7-0.4-1.5-1.7-1.5-0.4 0-1.2 0.4-1.2 0.8l-3.7-1.5c0-0.4 0.4-0.4 0.4-0.8 0-0.7-0.8-1.4-1.6-1.4-0.9 0-1.3 0.3-1.7 0.7l-3.6-1.9v-0.3c0-1.1-0.4-1.5-1.7-1.5-0.4 0-0.8 0-1.2 0.7l-0.8-0.3v31.2h-10.3v-36.1l-1.2-0.7c0-0.4 0-0.4 0-0.8 0-0.7-0.8-1.5-1.6-1.5-0.4 0-1.3 0.4-1.3 0.8l-3.3-1.5 0.4-0.4c0-1.1-0.8-1.5-1.5-1.5-0.9 0-1.3 0.4-1.7 0.8l-3.3-1.5c0-0.4 0.4-0.4 0.4-0.8 0-0.7-0.8-1.4-1.6-1.4-0.8 0-1.3 0.3-1.7 0.7l-2.8-1.5c0 0 0-0.4 0-0.8 0-0.7-0.9-1.4-1.7-1.4-0.3 0-1.2 0.4-1.2 1.1l-4.1-1.9h0.4l-0.4-0.4v-0.3c0-0.7-0.4-1.5-1.2-1.5-0.8 0-1.7 0.8-1.7 1.5v0.7l-3.7 1.9c-0.3-0.7-0.7-1.1-1.6-1.1-0.8 0-1.6 0.7-1.6 1.4 0 0.4 0 0.8 0.4 0.8l-3.3 1.5c0-0.4-0.8-0.7-1.2-0.7-0.8 0-1.7 0.7-1.7 1.4 0 0.4 0 0.4 0 0.8l-3.3 1.5c0-0.4-0.8-0.8-1.1-0.8-0.9 0-1.7 0.4-1.7 1.5v0.4l-2.9 1.5c-0.4-0.4-0.8-0.8-1.6-0.8-0.8 0-1.7 0.8-1.7 1.5 0 0.4 0 0.4 0.5 0.8l-1.7 0.7v36.1h-10.2v-31.2l-0.8 0.3c0-0.7-0.9-0.7-1.3-0.7-0.8 0-1.6 0.4-1.6 1.5v0.3l-3.7 1.9c0-0.4-0.8-0.7-1.2-0.7-0.8 0-1.7 0.7-1.7 1.4 0 0.4 0 0.4 0 0.8l-3.2 1.5c-0.5-0.4-0.9-0.8-1.7-0.8-0.8 0-1.6 0.8-1.6 1.5 0 0.4 0 0.4 0 0.8l-2.9 1.4c-0.4-0.7-0.8-1-1.6-1-0.8 0-1.7 0.7-1.7 1.4 0 0.4 0.5 0.8 0.5 0.8l-3.3 1.9c-0.4-0.8-0.9-1.2-1.7-1.2-0.8 0-1.6 0.8-1.6 1.5 0 0.4 0 0.7 0.4 0.7l-9 3.4v-2.6z"/>
	<path id="Path 87" class="s7" d="m608.1 718.2c6.5 0 11.9 4.8 11.9 10.8 0 5.9-5.4 10.8-11.9 10.8-6.6 0-11.5-4.9-11.5-10.8 0-6 4.9-10.8 11.5-10.8z"/>
	<path id="Path 88" class="s1" d="m608.1 718.2c6.5 0 11.9 4.8 11.9 10.8 0 5.9-5.4 10.8-11.9 10.8-6.6 0-11.5-4.9-11.5-10.8 0-6 4.9-10.8 11.5-10.8z"/>
	<path id="Path 89" class="s7" d="m678.9 723.8h6.6v60.3h-6.6z"/>
	<path id="Path 90" class="s1" d="m678.9 723.8h6.6v60.3h-6.6z"/>
	<path id="Path 91" class="s7" d="m529.4 723.8h6.6v60.3h-6.6z"/>
	<path id="Path 92" class="s1" d="m529.4 723.8h6.6v60.3h-6.6z"/>
	<path id="Path 93" class="s7" d="m574.9 807.5v-24.5h7.4c0.4-0.8 1.2-1.5 2-1.5 1.3 0 2.1 0.7 2.1 1.5h2c0-0.8 0.9-1.5 2-1.5 0.9 0 1.7 0.7 2.1 1.5h1.6c0.5-0.8 1.3-1.5 2.1-1.5 1.2 0 2.1 0.7 2.1 1.5h2c0-0.8 0.8-1.5 2.1-1.5 0.7 0 1.6 0.7 2 1.5h1.6c0.4-1.9 4.1-1.9 4.1 0h2.1c0-1.9 3.6-1.9 4.1 0h2c0-0.8 0.8-1.5 1.7-1.5 1.2 0 2 0.7 2 1.5h2.1c0-0.8 0.8-1.5 2-1.5 0.9 0 2 0.7 2 1.5h2.1c0-0.8 0.8-1.5 1.6-1.5 1.3 0 2.1 0.7 2.1 1.5h7.3v24.5h7.4c0-1.1 0.9-1.5 2.1-1.5 0.8 0 1.7 0.4 2.1 1.5h1.6c0.4-1.1 1.2-1.5 2-1.5 1.2 0 2.1 0.4 2.1 1.5h2c0-1.1 0.8-1.5 2.1-1.5 0.8 0 1.6 0.4 2 1.5h2c0-1.1 0.9-1.5 1.7-1.5 1.2 0 2 0.4 2 1.5h2.1c0-2.2 3.7-2.2 4.1 0h2c0-2.2 3.7-2.2 3.7 0h2.1c0-1.1 0.8-1.5 2-1.5 1.3 0 2.1 0.4 2.1 1.5h2.1c0-1.1 0.7-1.5 1.6-1.5 1.2 0 2 0.4 2 1.5h2.1c0-1.1 0.8-1.5 2-1.5 1.3 0 2.1 0.4 2.1 1.5h2v30.2h-2.8c0-12.7-11.5-23.1-25.5-23.1-14.3 0-25.8 10.4-25.8 23.1-3.3-18.6-20.1-32.4-40.1-32.4-19.7 0-36.9 13.8-40.2 32.4 0-12.7-11.4-23.1-25.4-23.1-13.9 0-25.4 10.4-25.4 23.1h-3.2v-30.2h3.2c0-1.1 0.8-1.5 2.1-1.5 1.2 0 2 0.4 2 1.5h2.1c0-1.1 0.8-1.5 2-1.5 0.9 0 1.7 0.4 1.7 1.5h2c0-1.1 0.8-1.5 2.1-1.5 1.2 0 2 0.4 2 1.5h2.1c0-1.1 0.8-1.5 2-1.5 0.8 0 1.7 0.4 1.7 1.5h2c0.4-2.2 4.1-2.2 4.1 0h2c0-2.2 3.7-2.2 3.7 0h2c0.5-1.1 1.3-1.5 2.1-1.5 1.2 0 2.1 0.4 2.1 1.5h2c0-1.1 0.8-1.5 2.1-1.5 0.8 0 1.6 0.4 2 1.5h1.6c0.4-1.1 1.3-1.5 2.1-1.5 1.2 0 2 0.4 2 1.5h2.5z"/>
	<path id="Path 94" class="s1" d="m574.9 807.5v-24.5h7.4c0.4-0.8 1.2-1.5 2-1.5 1.3 0 2.1 0.7 2.1 1.5h2c0-0.8 0.9-1.5 2-1.5 0.9 0 1.7 0.7 2.1 1.5h1.6c0.5-0.8 1.3-1.5 2.1-1.5 1.2 0 2.1 0.7 2.1 1.5h2c0-0.8 0.8-1.5 2.1-1.5 0.7 0 1.6 0.7 2 1.5h1.6c0.4-1.9 4.1-1.9 4.1 0h2.1c0-1.9 3.6-1.9 4.1 0h2c0-0.8 0.8-1.5 1.7-1.5 1.2 0 2 0.7 2 1.5h2.1c0-0.8 0.8-1.5 2-1.5 0.9 0 2 0.7 2 1.5h2.1c0-0.8 0.8-1.5 1.6-1.5 1.3 0 2.1 0.7 2.1 1.5h7.3v24.5h7.4c0-1.1 0.9-1.5 2.1-1.5 0.8 0 1.7 0.4 2.1 1.5h1.6c0.4-1.1 1.2-1.5 2-1.5 1.2 0 2.1 0.4 2.1 1.5h2c0-1.1 0.8-1.5 2.1-1.5 0.8 0 1.6 0.4 2 1.5h2c0-1.1 0.9-1.5 1.7-1.5 1.2 0 2 0.4 2 1.5h2.1c0-2.2 3.7-2.2 4.1 0h2c0-2.2 3.7-2.2 3.7 0h2.1c0-1.1 0.8-1.5 2-1.5 1.3 0 2.1 0.4 2.1 1.5h2.1c0-1.1 0.7-1.5 1.6-1.5 1.2 0 2 0.4 2 1.5h2.1c0-1.1 0.8-1.5 2-1.5 1.3 0 2.1 0.4 2.1 1.5h2v30.2h-2.8c0-12.7-11.5-23.1-25.5-23.1-14.3 0-25.8 10.4-25.8 23.1-3.3-18.6-20.1-32.4-40.1-32.4-19.7 0-36.9 13.8-40.2 32.4 0-12.7-11.4-23.1-25.4-23.1-13.9 0-25.4 10.4-25.4 23.1h-3.2v-30.2h3.2c0-1.1 0.8-1.5 2.1-1.5 1.2 0 2 0.4 2 1.5h2.1c0-1.1 0.8-1.5 2-1.5 0.9 0 1.7 0.4 1.7 1.5h2c0-1.1 0.8-1.5 2.1-1.5 1.2 0 2 0.4 2 1.5h2.1c0-1.1 0.8-1.5 2-1.5 0.8 0 1.7 0.4 1.7 1.5h2c0.4-2.2 4.1-2.2 4.1 0h2c0-2.2 3.7-2.2 3.7 0h2c0.5-1.1 1.3-1.5 2.1-1.5 1.2 0 2.1 0.4 2.1 1.5h2c0-1.1 0.8-1.5 2.1-1.5 0.8 0 1.6 0.4 2 1.5h1.6c0.4-1.1 1.3-1.5 2.1-1.5 1.2 0 2 0.4 2 1.5h2.5z"/>
	<path id="Path 95" class="s2" d="m598.3 659.4v-7.9h20v8.3zm111.4 176.4c0-2.6 2.5-4.8 5.4-4.8 2.9 0 5.3 2.2 5.3 4.8v21.3h-10.7zm-213.3 0c0-2.6 2.4-4.9 5.3-4.9 2.9 0 5.3 2.3 5.3 4.9v21.2h-10.6zm193.3-205.4c0-4.9 5.7-8.6 12.3-8.6 6.1 0 11.4 4.1 11.8 8.6v36.8h-24.1zm26.6 0c0-4.9 5.7-8.5 11.9-8.5 6.5 0 11.9 4 12.3 8.5v36.9h-24.2zm5.3 56.6c0-1.9 2.9-3.4 5.8-3.4 3.3 0 5.7 1.5 6.1 3.4v15.5h-11.9zm-11.9 46.6c0-3 2.5-4.9 5.4-4.9 2.9 0 5.3 2.3 5.3 4.9v21.2h-10.7zm0 45c0-2.6 2.5-4.8 5.4-4.8 2.9 0 5.3 2.2 5.3 4.8v21.6h-10.7zm-233-148.1c0-4.9 5.7-8.6 12.2-8.6 6.2 0 11.5 4.1 11.9 8.6v36.8h-24.1zm26.6 0c0-4.9 5.7-8.5 11.9-8.5 6.5 0 11.8 4 12.3 8.5v36.9h-24.2zm-20.9 56.5c0-1.8 2.4-3.3 5.7-3.3 2.9 0 5.8 1.5 5.8 3.3v15.6h-11.5zm14 46.6c0-3 2.4-4.9 5.3-4.9 2.9 0 5.3 2.3 5.3 4.9v21.2h-10.6zm0 45c0-2.6 2.4-4.8 5.3-4.8 2.9 0 5.3 2.2 5.3 4.8v21.6h-10.6zm46.2 40.2c10.7 0 19.3 7.8 19.3 17.5 0 4.5-2.1 8.6-4.9 11.5h4.4v38.7h-37.7v-38.7h4.6c-2.9-2.9-5-7-5-11.5 0-9.7 8.7-17.5 19.3-17.5zm131.5 0c10.2 0 18.9 7.8 18.9 17.5 0 4.5-1.7 8.6-4.6 11.5h4.2v38.7h-37.3v-38.7h4.5c-3.3-2.9-4.9-7-4.9-11.5 0-9.7 8.6-17.5 19.2-17.5zm-49.2 6.7c6.2 0 11.5 4.9 11.5 10.4 0 2.6-0.8 4.5-2.5 6.4v45.8h-51.5v-45.8c-1.3-1.9-2.1-3.8-2.1-6.4 0-5.5 5.3-10.4 11.5-10.4 6.1 0 11.4 4.9 11.4 10.4 0 2.3-0.8 4.5-2 6.4h14.3c-1.2-1.9-2-4.1-2-6.4 0-5.5 4.9-10.4 11.4-10.4zm31.2-99.7c0-1.9 2.4-3.4 5.3-3.4 2.9 0 5.3 1.5 5.3 3.4v7.8h-10.6zm-0.8 29.3c0-1.8 3.2-3.3 6.1-3.3 2.9 0 5.3 1.9 5.3 3.7v30.2h-11.4zm-105.3-29.4c0-1.8 2.4-3.3 5.3-3.3 2.9 0 5.3 1.5 5.3 3.3v7.8h-10.6zm-0.4 29.4c0-1.8 3.2-3.3 6.1-3.3 2.9 0 5.3 1.8 5.3 3.7v30.2h-11.4zm63.5 0c0-1.8 3.3-3.4 6.1-3.4 2.9 0 5.3 1.9 5.3 3.8v16.7h-11.4zm-21.3 0c0-1.8 3.6-3.4 6.1-3.4 2.9 0 5.3 1.9 5.8 3.8v16.7h-11.9zm16.3-66.6c5 0 9.1 3.7 9.1 8.2 0 4.4-4.1 7.8-9.1 7.8-4.9 0-8.6-3.4-8.6-7.8 0-4.5 3.7-8.2 8.6-8.2zm0 34.2c4.1 0 7 3 7 6.4 0 3.3-2.9 6.3-7 6.3-3.6 0-6.5-3-6.5-6.3 0-3.4 2.9-6.4 6.5-6.4z"/>
	<path id="Path 96" class="s0" d="m609 1297.8c56 0 382.5-54.8 363.6-107.6l48 78.8c0 0 6.7 16.5-16.4 44.1-56 67.1-308.7 104.7-395.3 104.7-86.7 0-339.3-37.6-395.4-104.7-23-27.6-16.3-44.1-16.3-44.1l48-78.8c-25.9 50 309.6 107.6 363.8 107.6z"/>
	<path id="Path 97" class="s1" d="m609 1297.8c56 0 382.5-54.8 363.6-107.6l48 78.8c0 0 6.7 16.5-16.4 44.1-56 67.1-308.7 104.7-395.3 104.7-86.7 0-339.3-37.6-395.4-104.7-23-27.6-16.3-44.1-16.3-44.1l48-78.8c-25.9 50 309.6 107.6 363.8 107.6z"/>
	<path id="Path 98" class="s0" d="m1061.5 1126.7c0 0-7-15.8-15.5-14.2-8.6 1.6-18.8 9.4-26.1 10.6-7.3 1.2-14.6-4.1-16.7-6.2-2-2-6.9-8.1-6.9-12.2 0-4 0.4-16.6 13.4-25.2 13.1-8.6 67.3-7 103.1-23.2 28.6-13 35.7-39.9 35.7-39.9 0 0 9.6 7.2 11.1 17.9 3.4 25.3 0.8 68.4 0.8 68.4 0 0 7.5 3.5 16.6 3.7 14 0.3 31.8-2.4 31.8-2.4 0 0-6.5 68.7-111.6 75.6-28.8-4.4-32.9-19.1-32.9-19.1 0 0 0.8-33.4-2.8-33.8z"/>
	<path id="Path 99" class="s1" d="m1061.5 1126.7c0 0-7-15.8-15.5-14.2-8.6 1.6-18.8 9.4-26.1 10.6-7.3 1.2-14.6-4.1-16.7-6.2-2-2-6.9-8.1-6.9-12.2 0-4 0.4-16.6 13.4-25.2 13.1-8.6 67.3-7 103.1-23.2 28.6-13 35.7-39.9 35.7-39.9 0 0 9.6 7.2 11.1 17.9 3.4 25.3 0.8 68.4 0.8 68.4 0 0 7.5 3.5 16.6 3.7 14 0.3 31.8-2.4 31.8-2.4 0 0-6.5 68.7-111.6 75.6-28.8-4.4-32.9-19.1-32.9-19.1 0 0 0.8-33.4-2.8-33.8z"/>
	<path id="Path 100" class="s2" d="m1044.3 1151.6c-15.8 9.7-44.5-1.5-44.5-1.5 0-14.3-1.6-28.6-5.6-42.9 0 0 6.1 6.9 12.3 10.2 6.1 3.2 11.8 5.3 21.2 0.8 9.3-4.5 14.6-15.6 30.5-7.4 11.1 5.7 8.9 17.5 8.9 17.5 0 0 2.6 14.3-22.8 23.3z"/>
	<path id="Path 101" class="s0" d="m920.2 1177.2c0 0 1.2-7.3 6.5-14.6 5.3-7.4 48.8-13.9 65.9-14.7 17.1-0.8 41.1-1.2 52.5-5.3 11.4-4.1 20-15.5 20-15.5l32.1 61.9c0 0 6.5 32.2-15.4 49.3-22 17.1-41.2 32.5-58.2 30.1-21.6-3.1-38.1-47.2-46.9-66.8-2.8-6.4-5.7-16.7-11-17.1-5.2-0.4-10.9 4.5-21.9 6.1-11 1.7-17.5-1.2-21.6-6.1-4.1-4.9-2-7.3-2-7.3z"/>
	<path id="Path 102" class="s1" d="m920.2 1177.2c0 0 1.2-7.3 6.5-14.6 5.3-7.4 48.8-13.9 65.9-14.7 17.1-0.8 41.1-1.2 52.5-5.3 11.4-4.1 20-15.5 20-15.5l32.1 61.9c0 0 6.5 32.2-15.4 49.3-22 17.1-41.2 32.5-58.2 30.1-21.6-3.1-38.1-47.2-46.9-66.8-2.8-6.4-5.7-16.7-11-17.1-5.2-0.4-10.9 4.5-21.9 6.1-11 1.7-17.5-1.2-21.6-6.1-4.1-4.9-2-7.3-2-7.3z"/>
	<path id="Path 103" fill-rule="evenodd" class="s4" d="m402.6 1326.1q-3.7 3.5-8 4.7c-2.9 0.9-5.6 1.1-8.2 0.8-3.4-0.4-8.4-1.7-14.6-3.8l-8.9-3-8.6 25.5-13.8-4.6 23.1-67.8 21.9 7.5c8.3 2.8 13.7 4.9 16 6.5 3.5 2.3 6 5.7 7.5 9.9 1.4 4.3 1.3 9.2-0.5 14.6q-2.2 6.2-5.9 9.7zm-8.4-21.2c-0.9-2.1-2.5-3.7-4.5-4.9-1.5-0.8-4.8-2.1-9.7-3.7l-6.6-2.3-6.5 19.3 7.4 2.5c5.4 1.8 9.2 2.7 11.2 2.6q3.2-0.1 5.4-1.9 2.4-1.7 3.4-4.7c0.8-2.5 0.7-4.8-0.1-6.9z"/>
	<path id="Path 104" fill-rule="evenodd" class="s4" d="m454.3 1304.9l11.2 76.2-15.3-3.7-2.3-17.3-27.8-6.6-9.6 14.4-14.9-3.6 43.9-63.1zm-8.1 42.5l-3.4-28.1-15.6 23.6zm94.3-28.3c0.3 0 1 0.1 2.1 0.3l-1.6 10.5-2-0.3q-4.4-0.7-6.6 0.1c-1.4 0.5-2.7 1.5-3.7 2.9-1.1 1.3-2.8 4.2-5.1 8.5-1.2 2.4-2.4 4.3-3.7 5.7-1.2 1.5-3.3 2.8-6.1 3.9 3.1 1.4 5.4 3.5 7.1 6.6 1.7 3.1 3.4 7.3 5.1 12.6l6.9 20.8-16.8-2.4-5.8-19.6c-0.1-0.2-0.3-0.7-0.6-1.6-0.1-0.3-0.5-1.5-1.3-3.6q-2-5.6-3.6-7.2c-1-1-2.8-1.7-5.2-2.1l-4.5 31-14.3-2.1 10.3-70.8 14.4 2.1-4.4 30.1q4.8 0.3 6.8-1.5c1.3-1.1 3.6-4.6 6.8-10.3 4.2-7.2 7.8-11.5 11.1-12.9q4.8-2.2 14.7-0.7zm67.8 13.1q9 10.3 8.2 27.7-0.8 17.3-10.7 26.7c-6.6 6.2-15.1 9.1-25.6 8.6-10.6-0.5-18.9-4.2-24.9-11-6-6.7-8.7-15.9-8.2-27.2 0.4-7.3 1.8-13.3 4.2-18.2 1.7-3.6 4.2-6.7 7.1-9.5 2.9-2.7 6.1-4.7 9.5-6 4.6-1.7 9.8-2.3 15.6-2.1 10.5 0.5 18.8 4.2 24.8 11zm-11.2 8.1c-3.4-4.2-8.1-6.5-14-6.7-6-0.3-10.8 1.5-14.7 5.4-3.9 3.9-6 10-6.4 18.2-0.3 8.1 1.2 14.3 4.8 18.7 3.5 4.3 8.2 6.6 13.9 7 5.8 0.2 10.6-1.6 14.5-5.7 3.9-3.9 6-10 6.4-18.3 0.4-8.2-1.1-14.4-4.5-18.6zm91.7 20.6c2.5 2.9 3.8 6.5 3.9 10.6 0.1 3.3-0.5 6.4-1.9 9.6-1.4 3.1-3.3 5.7-5.9 7.7-2.5 1.9-5.7 3.1-9.6 3.7-2.4 0.3-8.1 0.7-17.4 1.2l-24.3 0.9-2.8-71.5 28.6-1.1c5.7-0.3 9.9-0.2 12.7 0.2 2.8 0.3 5.3 1.3 7.5 2.7q3.4 2.1 5.8 5.7c1.5 2.5 2.4 5.2 2.5 8.3 0.1 3.4-0.7 6.5-2.4 9.3-1.7 2.9-3.9 5.1-7 6.6q6.6 1.7 10.3 6.1zm-42.4-10l9.4-0.3c5.6-0.2 9.1-0.5 10.5-0.7 2.4-0.4 4.4-1.3 5.7-2.8 1.4-1.4 2-3.3 2-5.6q-0.2-3.3-2.1-5.4-1.9-1.9-5.5-2.3c-1.5 0-5.6 0.1-12.3 0.3l-8.4 0.3zm31.4 20.4c-0.1-2-0.6-3.9-1.7-5.3-1.2-1.5-2.7-2.5-4.7-3.2-2-0.5-6.3-0.7-12.8-0.4l-11.7 0.4 0.8 19.1 13.4-0.5c5.2-0.2 8.5-0.5 9.8-0.8q3.2-0.8 5.2-3.1c1.2-1.6 1.8-3.6 1.7-6.2zm73-14l14.5 2.3c-0.9 8.1-3.7 14.3-8 18.8-4.5 4.5-10.4 7.3-18.1 8.4-9.3 1.4-17.5-0.6-24.5-6.1-7-5.6-11.3-13.9-13.1-25-1.7-11.8 0-21.4 5.1-28.9 5.1-7.4 12.6-11.9 22.6-13.3 8.6-1.3 16.1 0.3 22.2 4.5 3.7 2.6 6.8 6.6 9.2 12l-13.6 5.5c-1.5-3.6-3.6-6.2-6.6-7.9-2.9-1.8-6.3-2.4-10.1-1.8-5.3 0.8-9.3 3.3-12 7.6-2.7 4.2-3.4 10.6-2.1 19 1.3 9 3.8 15 7.6 18.4 3.8 3.3 8.3 4.6 13.5 3.8 3.7-0.5 6.8-2.2 9.2-5.1 2.4-2.8 3.8-6.9 4.2-12.2zm74.4-9.4l14.1 16.8-16.5 4-12.7-16c-0.2-0.2-0.6-0.6-1.1-1.3-0.3-0.2-1.1-1.1-2.6-2.8-2.7-3-4.6-4.8-6-5.3-1.4-0.6-3.2-0.6-5.6-0.1l7.4 30.5-14 3.4-16.9-69.5 14-3.5 7.2 29.6c3-1 5-2.4 5.8-3.9 0.7-1.6 1.6-5.6 2.4-12.1 1.1-8.3 2.9-13.6 5.4-16.1 2.5-2.6 6.9-4.7 13.5-6.3q0.4-0.1 2-0.5l2.5 10.4-2 0.4c-2.9 0.7-4.9 1.6-6.1 2.7-1.1 1-1.9 2.3-2.4 4-0.4 1.6-0.9 4.9-1.5 9.8q-0.4 3.9-1.3 6.7c-0.6 1.9-2 3.9-4.2 5.9 3.4 0.1 6.4 1.3 9.1 3.5 2.7 2.2 5.9 5.4 9.5 9.7zm83-6.5l-12.8 4.5-15.4-44.2-11.9 53.7-13.6 4.8-23.7-67.5 12.8-4.5 15.8 45 11.6-54.6 13.5-4.8z"/>
	<path id="Path 105" class="s2" d="m987.6 341.4c-9.7 1.3-17 7.1-17 14 0 7 7.3 12.7 17 14-1.3 0.2-2.7 0.3-4.1 0.3-11.7 0-21.1-6.4-21.1-14.3 0-7.8 9.4-14.3 21.1-14.3 1.4 0 2.8 0.1 4.1 0.3z"/>
	<path id="Path 106" class="s9" d="m737.8 229c2.5-19 5.2-38 8.1-57 39.9 6.7 79 15.4 118.1 25.8-6.6 20.4-9.7 30.7-15.4 51.3-0.1 0.3-0.1 0.4-0.2 0.7-36.6-8.4-73.3-15.9-110.6-20.8zm89.2 83.7c5.1-20.6 7.6-30.9 13.2-51.4 0.2-0.7 0.3-1 0.5-1.7-19.8-4.5-39.6-8.6-59.6-12.1q-3 28.1-5.1 56.5c16.8 2.5 33.8 5.4 51 8.7zm93.8-241.2c-47.1-18.1-94.2-36.3-141.3-54.2-8.9 24.3-17 49.1-24.5 74-28.5-2.1-56.9-4.1-85.4-6 0.5-25.5 1.2-50.9 2.1-76.4-20.9-0.1-41.9-0.3-62.8-0.3-21 0-41.9 0.2-62.8 0.3 0.9 25.5 1.6 50.9 2 76.4-28.4 1.9-56.9 3.9-85.3 6-7.5-24.9-15.6-49.7-24.5-74-47.2 17.9-94.2 36.1-141.4 54.2 18.5 38.2 34.2 76.9 48 117 0.1 0 0.1 0 0.1 0q0.1 0 0.1 0c0.2-0.1 0.3-0.1 0.4-0.1 0-0.1 0-0.1 0.1-0.1 86.7-23.8 174.2-38.4 263.3-38.4 89 0 176.5 14.6 263.2 38.4 0.1 0 0.1 0 0.2 0.1 0.1 0 0.2 0 0.4 0.1q0 0 0.1 0c0 0 0 0 0.1 0 13.8-40.1 29.5-78.8 47.9-117zm-311.9 148.9c39.6 0.4 78.7 2.8 118.1 7.2 2.5-19.1 5.2-38.2 8.2-57.2-42.1-5.3-84.3-8.6-126.3-8.6-42 0-84.2 3.3-126.3 8.6q4.4 28.5 8.1 57.2c39.4-4.4 78.5-6.8 118.2-7.2zm5.5 70.8c50.5 0.7 100.3 4.5 150.4 11.1 1.6-18.9 3.3-37.8 5.4-56.7-51.9-7.9-103.4-12.5-155.9-13.3 0 19.6 0.1 39.3 0.1 58.9zm-245-41.4c-0.1-0.3-0.1-0.4-0.2-0.7-5.8-20.6-8.8-30.9-15.4-51.3 39.1-10.5 78.2-19.1 118.1-25.8 3 19 5.6 38 8.1 57-37.3 4.9-74 12.4-110.6 20.8zm21.4 62.9c-5.1-20.6-7.7-30.9-13.2-51.4-0.2-0.7-0.3-1-0.5-1.7 19.7-4.5 39.6-8.6 59.6-12.1 2 18.8 3.7 37.6 5.1 56.5-16.8 2.5-33.8 5.4-51 8.7zm212.5-21.5c-50.5 0.7-100.3 4.5-150.3 11.1q-2.4-28.4-5.4-56.7c51.9-7.9 103.3-12.5 155.8-13.3 0 19.6 0 39.3-0.1 58.9z"/>
	<path id="Path 107" fill-rule="evenodd" class="s1" d="m737.8 229c2.5-19 5.2-38 8.1-57 39.9 6.7 79 15.4 118.1 25.8-6.6 20.4-9.7 30.7-15.4 51.3-0.1 0.3-0.1 0.4-0.2 0.7-36.6-8.4-73.3-15.9-110.6-20.8zm38.2 75q2.1-28.4 5.1-56.5c20 3.5 39.8 7.6 59.6 12.1-0.2 0.7-0.3 1-0.5 1.7-5.6 20.5-8.1 30.8-13.2 51.4-17.2-3.3-34.2-6.2-51-8.7zm96.9-115.5c-0.1 0-0.1 0-0.1 0q-0.1 0-0.1 0c-0.2-0.1-0.3-0.1-0.4-0.1-0.1-0.1-0.1-0.1-0.2-0.1-86.7-23.8-174.2-38.4-263.2-38.4-89.1 0-176.6 14.6-263.3 38.4-0.1 0-0.1 0-0.1 0.1-0.1 0-0.2 0-0.4 0.1q0 0-0.1 0c0 0 0 0-0.1 0-13.8-40.1-29.5-78.8-48-117 47.2-18.1 94.2-36.3 141.4-54.2 8.9 24.3 17 49.1 24.5 74 28.4-2.1 56.9-4.1 85.3-6-0.4-25.5-1.1-50.9-2-76.4 20.9-0.1 41.8-0.3 62.8-0.3 20.9 0 41.9 0.2 62.8 0.3-0.9 25.5-1.6 50.9-2.1 76.4 28.5 1.9 56.9 3.9 85.4 6 7.5-24.9 15.6-49.7 24.5-74 47.1 17.9 94.2 36.1 141.3 54.2-18.4 38.2-34.1 76.9-47.9 117zm-382.2 39.1q-3.7-28.7-8.1-57.2c42.1-5.3 84.3-8.6 126.3-8.6 42 0 84.2 3.3 126.3 8.6-3 19-5.7 38.1-8.2 57.2-39.4-4.4-78.5-6.8-118.1-7.2-39.7 0.4-78.8 2.8-118.2 7.2zm123.6 4.7c52.5 0.8 104 5.4 155.9 13.3-2.1 18.9-3.8 37.8-5.4 56.7-50.1-6.6-99.9-10.4-150.4-11.1 0-19.6-0.1-39.3-0.1-58.9zm-244.9 17.5c-0.1-0.3-0.1-0.4-0.2-0.7-5.8-20.6-8.8-30.9-15.4-51.3 39.1-10.5 78.2-19.1 118.1-25.8 3 19 5.6 38 8.1 57-37.3 4.9-74 12.4-110.6 20.8zm21.4 62.9c-5.1-20.6-7.7-30.9-13.2-51.4-0.2-0.7-0.3-1-0.5-1.7 19.7-4.5 39.6-8.6 59.6-12.1 2 18.8 3.7 37.6 5.1 56.5-16.8 2.5-33.8 5.4-51 8.7zm212.5-21.5c-50.5 0.7-100.3 4.5-150.3 11.1q-2.4-28.4-5.4-56.7c51.9-7.9 103.3-12.5 155.8-13.3 0 19.6 0 39.3-0.1 58.9zm223 357.2c-21.4-5.7-7.6-19.6-5.8-25.4 10.2 7.2 20.1 17 5.8 25.4z"/>
	<path id="Path 108" class="s10" d="m826.3 648.4c-21.4-5.7-7.6-19.6-5.8-25.4 10.2 7.2 20.1 17 5.8 25.4z"/>
	<path id="Path 109" class="s11" d="m832.4 647.7c2.9-2.7 9-6.5 12.6-8.8 2.3 3.5 6.2 22.5-15.5 24.4-2.2-6-1.1-11.9 2.9-15.6zm-28.1-5.5c4.2 0.9 12.6 4.8 15.8 7 4.9 3.4 6.2 8.2 6.4 14.7-19.9-1.6-19.2-6.7-22.2-21.7z"/>
	<path id="Path 110" class="s11" d="m833.5 666.7c3-2.7 9-6.5 12.7-8.8 2.3 3.5 6.1 22.5-15.5 24.4-2.3-6-1.2-11.9 2.8-15.6zm-28.1-5.5c4.2 0.9 12.6 4.8 15.8 7 5 3.4 6.2 8.2 6.4 14.7-19.9-1.6-19.2-6.7-22.2-21.7z"/>
	<path id="Path 111" class="s11" d="m835 685.5c3-2.6 9.3-6.1 13.1-8.3 2.1 3.7 4.9 22.8-16.8 23.7-2-6-0.5-11.9 3.7-15.4zm-27.8-6.7c4.2 1.1 12.3 5.3 15.4 7.6 4.8 3.6 5.8 8.5 5.6 15-19.8-2.4-18.8-7.5-21-22.6z"/>
	<path id="Path 112" class="s11" d="m835.6 705.4c3.1-2.6 9.4-5.9 13.3-8 2 3.6 4.4 22.8-17.3 23.3-1.9-6-0.3-11.8 4-15.3zm-27.6-7.3c4.1 1.2 12.2 5.6 15.2 8 4.7 3.7 5.6 8.6 5.3 15.1-19.8-2.8-18.6-7.9-20.5-23.1z"/>
	<path id="Path 113" class="s11" d="m836.1 724.9c3.3-2.4 9.8-5.4 13.8-7.3 1.8 3.8 2.9 23-18.9 22.4-1.4-6.2 0.6-11.9 5.1-15.1zm-27.1-8.7c4.1 1.4 11.8 6.2 14.7 8.7 4.4 4 5 8.9 4.2 15.4-19.5-3.9-18-8.9-18.9-24.1z"/>
	<path id="Path 114" class="s11" d="m835.4 743.1c3.2-2.4 9.8-5.4 13.8-7.3 1.7 3.7 2.8 23-18.9 22.4-1.4-6.2 0.6-11.9 5.1-15.1zm-27.1-8.7c4 1.3 11.8 6.1 14.6 8.7 4.5 3.9 5 8.9 4.3 15.3-19.6-3.8-18.1-8.8-18.9-24z"/>
	<path id="Path 115" class="s11" d="m834.4 761.9c3.4-2.3 10-5.1 14.1-6.8 1.6 3.8 1.8 23.1-19.9 21.7-1.1-6.2 1.1-11.9 5.8-14.9zm-26.8-9.7c4.1 1.6 11.6 6.6 14.3 9.3 4.3 4 4.6 9 3.6 15.4-19.4-4.5-17.7-9.4-17.9-24.7z"/>
	<path id="Path 116" class="s11" d="m832.4 780.1c3.5-2.3 10.1-5 14.2-6.7 1.6 3.8 1.6 23.1-20.1 21.5-1.1-6.2 1.3-11.8 5.9-14.8zm-26.6-9.9c4.1 1.5 11.5 6.7 14.2 9.3 4.2 4.2 4.5 9.1 3.4 15.6-19.3-4.8-17.5-9.7-17.6-24.9z"/>
	<path id="Path 117" class="s11" d="m830.2 800.4c3.6-2 10.5-4.3 14.7-5.8 1.2 3.9-0.2 23.2-21.7 20.3-0.6-6.3 2.1-11.8 7-14.5zm-25.7-11.5c3.8 1.8 10.9 7.4 13.4 10.2 3.8 4.4 3.8 9.3 2.2 15.7-18.9-5.9-16.8-10.7-15.6-25.9z"/>
	<path id="Path 118" class="s11" d="m826.5 819.8c3.7-2 10.6-4.1 14.9-5.5 1.1 4-1 23.2-22.4 19.7-0.4-6.3 2.5-11.7 7.5-14.2zm-25.4-12.2c3.8 1.9 10.7 7.6 13.1 10.5 3.7 4.5 3.5 9.4 1.7 15.8-18.7-6.4-16.4-11.1-14.8-26.3z"/>
	<path id="Path 119" class="s11" d="m822.3 839.1c3.7-1.8 10.8-3.6 15.1-4.7 0.9 3.9-2.3 23-23.4 18.6-0.1-6.3 3.1-11.6 8.3-13.9zm-24.7-13.3c3.7 2.1 10.3 8.1 12.5 11.1 3.4 4.7 2.9 9.6 0.7 15.8-18.3-7.2-15.7-11.8-13.2-26.9z"/>
	<path id="Path 120" class="s11" d="m816.9 858.7c3.8-1.6 11-3.1 15.4-4 0.6 4-3.7 22.9-24.5 17.5 0.3-6.3 3.8-11.4 9.1-13.5zm-23.9-14.5c3.6 2.3 9.8 8.7 11.8 11.8 3.2 4.8 2.4 9.7-0.1 15.8-17.9-8.1-15.1-12.6-11.7-27.6z"/>
	<path id="Path 121" class="s11" d="m810.1 877.7c3.9-1.5 11.1-2.6 15.6-3.4 0.4 4.1-4.9 22.8-25.5 16.5 0.7-6.3 4.5-11.2 9.9-13.1zm-23-15.5c3.4 2.4 9.2 9 11.1 12.2 2.9 4.9 1.8 9.8-1 15.8-17.4-8.8-14.4-13.2-10.1-28z"/>
	<path id="Path 122" class="s11" d="m802.1 896.7c4.1-1.2 11.4-1.9 15.9-2.3 0.1 4-6.8 22.3-26.8 14.7 1.2-6.2 5.4-10.9 10.9-12.4zm-21.6-17c3.2 2.6 8.5 9.6 10.1 12.9 2.5 5.1 1 9.9-2.4 15.7-16.6-10-13.2-14.1-7.7-28.6z"/>
	<path id="Path 123" class="s11" d="m792.5 915.2c4.2-0.9 11.5-1 16-1.1-0.3 4-8.8 21.8-28 12.6 1.8-6.1 6.4-10.4 12-11.5zm-20-18.5c3 2.8 7.6 10.2 8.9 13.6 2 5.3 0 9.9-3.8 15.4-15.7-11.1-11.9-15-5.1-29z"/>
	<path id="Path 124" class="s11" d="m781.3 932.9c4.2-0.5 11.6 0.1 16.1 0.4-0.8 4-11.3 20.8-29.4 10 2.5-5.9 7.6-9.8 13.3-10.4zm-17.8-20.2c2.7 3.1 6.4 10.8 7.3 14.3 1.4 5.5-1.1 9.9-5.6 15-14.2-12.5-10-16-1.7-29.3z"/>
	<path id="Path 125" class="s11" d="m769.1 948.1c4.3-0.3 11.5 0.7 16 1.2-1 4-12.7 20.2-30 8.4 2.9-5.7 8.2-9.3 14-9.6zm-16.3-21.2c2.4 3.3 5.6 11.2 6.2 14.7 1 5.5-1.7 9.8-6.6 14.7-13.4-13.3-8.9-16.6 0.4-29.4z"/>
	<path id="Path 126" class="s11" d="m754.8 962.7c4.3 0.1 11.4 1.6 15.8 2.5-1.4 3.8-14.6 19.1-30.6 6 3.4-5.5 9.1-8.7 14.8-8.5zm-14.2-22.4c2.1 3.4 4.5 11.6 4.8 15.2 0.5 5.5-2.7 9.6-8 14.1-12-14.3-7.2-17.2 3.2-29.3z"/>
	<path id="Path 127" class="s11" d="m737.8 977.2c4.2 0.6 11.1 2.9 15.3 4.3-2 3.7-17.4 17.2-31.3 2.3 4.2-5 10.3-7.5 16-6.6zm-10.7-23.9c1.6 3.6 2.7 12 2.5 15.6-0.4 5.6-4.1 9.2-10.1 13-9.7-15.6-4.6-17.9 7.6-28.6z"/>
	<path id="Path 128" class="s11" d="m843.6 635.3c-2.1-2.6-6.9-20.5-8.8-25.6-3.1-8.1-10.9-21.3-10-23.9 4-0.4 4.5 3.7 8.1 10.3 5.5 10.1 9.9 22.7 12.9 33.8 1.1 4.1 1.3 4.2-2.2 5.4z"/>
	<path id="Path 129" class="s11" d="m838.2 633.8l-4.8-5-7.3-20.5c-2.7-6.3-11.4-22-10.3-24.5 5.4 1 11.7 17.7 13.8 22.7 3.1 7.5 7.7 19 8.6 27.3z"/>
	<path id="Path 130" class="s11" d="m809.8 636.7c-6.9-1.1-4-3.2-8.3-17.2-2.6-8.7-7.1-15.9-4.5-19.7 4 2.4 6.4 12.7 7.8 17.2 1.9 5.8 4.5 13.6 5 19.7z"/>
	<path id="Path 131" class="s11" d="m827.2 623.2c-7.4-3.4-8.6-14.3-14.2-25.4-2-3.7-4.4-6.5-3-9.9 3.3 1.5 1.8-0.4 4 3.6 1.1 1.7 1.3 2.6 2.3 4.5 3.3 6.2 10 21.4 10.9 27.2z"/>
	<path id="Path 132" class="s11" d="m817.6 624.6c-6.7-0.3-4.1-2.6-9.9-15.6-3.6-8-8.8-14.5-6.7-18.3 4 1.8 7.6 11.4 9.6 15.6 2.4 5.4 5.9 12.6 7 18.3z"/>
	<path id="Path 133" class="s11" d="m704.4 995.4c-15.4 9-51 20.5-71.4 24.7-0.5 0.2-1.7 0.4-2.2 0.4l-3.3 0.1c-1.5-6.6 0-4.5 15-8.3 16.2-4.1 45.1-13.6 58-21.4z"/>
	<path id="Path 134" class="s11" d="m702.3 996.3c13.4 11.6 19.1 10.3 32.9 0.6-10.8-5.5-24.4-11.6-32.9-0.6zm-5.5-18.1c2.4-6.7 9.5-9.3 14.6-13.3 1.2 9 5.1 20.3-10.9 28.8-3.1-3.7-5.3-11-3.7-15.5z"/>
	<path id="Path 135" class="s4" d="m627.9 1022l-0.4-2c151.8-32.6 216.6-153.7 198.1-370.4l2-0.2c18.6 217.9-46.7 339.8-199.7 372.6z"/>
	<path id="Path 136" class="s11" d="m391.5 648.4c21.4-5.7 7.6-19.6 5.8-25.4-10.2 7.2-20.1 17-5.8 25.4z"/>
	<path id="Path 137" class="s11" d="m372.8 638.9c3.6 2.3 9.7 6.1 12.6 8.8 4 3.7 5.1 9.6 2.8 15.6-21.6-1.9-17.7-20.9-15.4-24.4zm24.9 10.3c3.2-2.2 11.6-6.1 15.8-7-3 15-2.3 20.1-22.2 21.7 0.2-6.5 1.5-11.3 6.4-14.7z"/>
	<path id="Path 138" class="s11" d="m371.6 657.9c3.7 2.3 9.8 6.1 12.7 8.8 4 3.7 5.1 9.6 2.8 15.6-21.6-1.9-17.8-20.9-15.5-24.4zm25 10.3c3.2-2.2 11.5-6.1 15.8-7-3 15-2.3 20.1-22.2 21.7 0.2-6.5 1.4-11.3 6.4-14.7z"/>
	<path id="Path 139" class="s11" d="m369.7 677.2c3.8 2.2 10.1 5.7 13.1 8.3 4.2 3.5 5.7 9.4 3.7 15.4-21.7-0.9-18.9-20-16.8-23.7zm25.5 9.2c3.1-2.3 11.2-6.5 15.4-7.6-2.2 15.1-1.2 20.2-21 22.6-0.2-6.5 0.8-11.4 5.6-15z"/>
	<path id="Path 140" class="s11" d="m368.9 697.4c3.8 2.1 10.2 5.4 13.3 8 4.3 3.5 5.9 9.3 4 15.3-21.7-0.5-19.3-19.7-17.3-23.3zm25.7 8.7c3-2.4 11-6.8 15.2-8-1.9 15.2-0.7 20.3-20.5 23.1-0.3-6.5 0.6-11.4 5.3-15.1z"/>
	<path id="Path 141" class="s11" d="m367.9 717.6c4 1.9 10.5 4.9 13.8 7.3 4.5 3.2 6.5 8.9 5.1 15.1-21.8 0.6-20.7-18.6-18.9-22.4zm26.2 7.3c2.9-2.5 10.6-7.3 14.7-8.7-0.9 15.2 0.6 20.2-18.9 24.1-0.8-6.5-0.2-11.4 4.2-15.4z"/>
	<path id="Path 142" class="s11" d="m368.6 735.8c4 1.9 10.5 4.9 13.8 7.3 4.5 3.2 6.5 8.9 5.1 15.1-21.7 0.6-20.6-18.7-18.9-22.4zm26.3 7.3c2.8-2.6 10.6-7.4 14.6-8.7-0.8 15.2 0.7 20.2-18.9 24-0.7-6.4-0.2-11.4 4.3-15.3z"/>
	<path id="Path 143" class="s11" d="m369.3 755.1c4.1 1.7 10.7 4.5 14.1 6.8 4.7 3 6.9 8.7 5.8 14.9-21.7 1.4-21.5-17.9-19.9-21.7zm26.6 6.4c2.7-2.7 10.2-7.8 14.2-9.3-0.1 15.3 1.6 20.2-17.8 24.7-1-6.4-0.7-11.4 3.6-15.4z"/>
	<path id="Path 144" class="s11" d="m371.2 773.4c4.1 1.7 10.7 4.4 14.2 6.7 4.6 3 7 8.6 5.9 14.8-21.7 1.6-21.7-17.7-20.1-21.5zm26.6 6.1c2.7-2.6 10.2-7.8 14.2-9.3 0 15.2 1.7 20.1-17.6 24.9-1.1-6.5-0.8-11.4 3.4-15.6z"/>
	<path id="Path 145" class="s11" d="m372.9 794.6c4.2 1.5 11.1 3.8 14.7 5.8 4.9 2.7 7.6 8.2 7 14.5-21.5 2.9-23-16.4-21.7-20.3zm27 4.5c2.5-2.8 9.6-8.4 13.4-10.2 1.2 15.2 3.3 20-15.6 25.9-1.6-6.4-1.7-11.3 2.2-15.7z"/>
	<path id="Path 146" class="s11" d="m376.4 814.3c4.3 1.4 11.2 3.5 14.9 5.5 5 2.5 7.9 7.9 7.5 14.2-21.4 3.5-23.5-15.7-22.4-19.7zm27.2 3.8c2.4-2.9 9.3-8.6 13.1-10.5 1.6 15.2 3.9 19.9-14.8 26.3-1.8-6.4-2-11.3 1.7-15.8z"/>
	<path id="Path 147" class="s11" d="m380.4 834.4c4.3 1.1 11.4 2.9 15.1 4.7 5.2 2.3 8.4 7.6 8.3 13.9-21.1 4.4-24.3-14.7-23.4-18.6zm27.3 2.5c2.2-3 8.8-9 12.5-11.1 2.5 15.1 5.1 19.7-13.2 26.9-2.2-6.2-2.7-11.1 0.7-15.8z"/>
	<path id="Path 148" class="s11" d="m385.5 854.7c4.4 0.9 11.6 2.4 15.4 4 5.3 2.1 8.8 7.2 9.1 13.5-20.9 5.4-25.1-13.5-24.5-17.5zm27.5 1.3c2-3.1 8.2-9.5 11.7-11.8 3.5 15 6.3 19.5-11.6 27.6-2.5-6.1-3.3-11-0.1-15.8z"/>
	<path id="Path 149" class="s11" d="m392.1 874.3c4.5 0.8 11.7 2 15.6 3.4 5.4 1.9 9.2 6.8 9.9 13.1-20.6 6.3-25.9-12.4-25.5-16.5zm27.5 0.1c1.9-3.2 7.7-9.8 11.1-12.2 4.3 14.8 7.3 19.2-10.1 28-2.8-6-3.9-10.9-1-15.8z"/>
	<path id="Path 150" class="s11" d="m399.8 894.4c4.5 0.4 11.8 1.1 15.9 2.3 5.5 1.5 9.7 6.2 10.9 12.4-20 7.6-26.9-10.7-26.8-14.7zm27.4-1.8c1.6-3.3 6.9-10.3 10.1-12.9 5.5 14.5 8.9 18.6-7.7 28.6-3.4-5.8-4.9-10.6-2.4-15.7z"/>
	<path id="Path 151" class="s11" d="m409.3 914.1c4.5 0.1 11.8 0.2 16 1.1 5.6 1.1 10.2 5.4 12 11.5-19.2 9.2-27.7-8.6-28-12.6zm27.1-3.8c1.3-3.4 5.9-10.8 8.9-13.6 6.8 14 10.6 17.9-5.1 29-3.8-5.5-5.8-10.1-3.8-15.4z"/>
	<path id="Path 152" class="s11" d="m420.4 933.3c4.5-0.3 11.9-0.9 16.1-0.4 5.7 0.6 10.8 4.5 13.3 10.4-18.1 10.8-28.6-6-29.4-10zm26.6-6.3c0.9-3.5 4.6-11.2 7.2-14.3 8.4 13.3 12.6 16.8-1.6 29.3-4.5-5.1-7-9.5-5.6-15z"/>
	<path id="Path 153" class="s11" d="m432.7 949.3c4.5-0.5 11.7-1.5 16-1.2 5.8 0.3 11.1 3.9 14 9.6-17.3 11.8-29-4.4-30-8.4zm26.1-7.7c0.6-3.5 3.8-11.4 6.2-14.7 9.3 12.9 13.7 16.1 0.4 29.4-4.9-4.9-7.6-9.2-6.6-14.7z"/>
	<path id="Path 154" class="s11" d="m447.2 965.2c4.4-0.9 11.5-2.4 15.8-2.5 5.7-0.2 11.4 3 14.8 8.5-16 13.1-29.2-2.2-30.6-6zm25.2-9.7c0.3-3.6 2.7-11.8 4.8-15.2 10.4 12.1 15.2 15 3.2 29.3-5.3-4.5-8.5-8.6-8-14.1z"/>
	<path id="Path 155" class="s11" d="m464.7 981.5c4.2-1.4 11.1-3.7 15.3-4.3 5.7-0.9 11.8 1.6 16 6.6-13.9 14.9-29.3 1.4-31.3-2.3zm23.5-12.6c-0.2-3.6 0.9-12 2.5-15.6 12.2 10.7 17.3 13 7.6 28.6-6-3.8-9.7-7.4-10.1-13z"/>
	<path id="Path 156" class="s11" d="m372 629.9c3-11.1 7.4-23.7 12.9-33.8 3.6-6.6 4.1-10.7 8.1-10.3 0.9 2.6-6.9 15.8-10 23.9-1.9 5.1-6.8 23-8.8 25.6-3.5-1.2-3.3-1.3-2.2-5.4z"/>
	<path id="Path 157" class="s11" d="m388.2 606.5c2.1-5 8.4-21.7 13.8-22.7 1 2.5-7.6 18.2-10.3 24.5l-7.3 20.5-4.8 5c0.9-8.3 5.5-19.8 8.6-27.3z"/>
	<path id="Path 158" class="s11" d="m413 617c1.4-4.5 3.8-14.8 7.8-17.2 2.6 3.8-1.9 11-4.5 19.7-4.3 14-1.4 16.1-8.3 17.2 0.5-6.1 3.1-13.9 5-19.7z"/>
	<path id="Path 159" class="s11" d="m401.5 596c1-1.9 1.2-2.8 2.2-4.5 2.3-4 0.8-2.1 4-3.6 1.5 3.4-0.9 6.2-2.9 9.9-5.6 11.1-6.8 22-14.2 25.4 0.9-5.8 7.6-21 10.9-27.2z"/>
	<path id="Path 160" class="s11" d="m407.2 606.3c1.9-4.2 5.6-13.8 9.6-15.6 2.1 3.8-3.1 10.3-6.7 18.3-5.8 13-3.2 15.3-9.9 15.6 1.1-5.7 4.6-12.9 7-18.3z"/>
	<path id="Path 161" class="s11" d="m517.3 990.9c12.9 7.8 41.8 17.3 58 21.4 15 3.8 16.5 1.7 15 8.3l-3.3-0.1c-0.5 0-1.7-0.2-2.2-0.4-20.3-4.2-56-15.7-71.4-24.7z"/>
	<path id="Path 162" class="s11" d="m515.5 996.3c-8.5-11-22.1-4.9-32.9 0.6 13.8 9.7 19.5 11 32.9-0.6zm-9.1-31.4c5.1 4 12.2 6.6 14.6 13.3 1.6 4.5-0.6 11.8-3.7 15.5-16-8.5-12.1-19.8-10.9-28.8z"/>
	<path id="Path 163" fill-rule="evenodd" class="s4" d="m390.2 649.4l2 0.2c-18.5 216.7 46.3 337.8 198.1 370.4l-0.4 2c-153-32.8-218.3-154.7-199.7-372.6zm574.6-387.4l7.9 3.9q-3 6.6-8 9.4c-3.3 1.7-7.2 2.2-11.8 1.6-5.6-0.9-9.9-3.6-12.9-8q-4.5-6.7-3-16.7c1.1-7 3.9-12.2 8.1-15.6q6.4-4.9 15.3-3.6 7.8 1.3 11.9 6.7 2.5 3.1 3.1 8.5l-8.7 0.7c-0.2-2.4-1-4.2-2.4-5.8-1.4-1.5-3.2-2.5-5.5-2.8-3.1-0.5-5.9 0.2-8.2 2.2-2.3 1.9-3.8 5.4-4.6 10.5-0.9 5.3-0.5 9.3 1 11.9q2.4 3.9 7 4.6c2.3 0.4 4.4-0.1 6.2-1.3q2.9-1.8 4.6-6.2zm13.9-25.4l8-0.7 2.5 28.5 14.9-30 8.6-0.7 3.7 42.8-8.1 0.6-2.4-27.9-14.9 29.5-8.6 0.7zm45.4-5.1l29.5-6.3 8.9 42-8.5 1.8-7.4-34.9-12.7 2.7 3.9 18c1.1 5.1 1.6 8.7 1.8 10.8 0.1 2.1-0.4 3.9-1.5 5.3-1.2 1.4-3.1 2.4-5.9 3q-1.5 0.4-5.5 0.9l-1.4-6.6 1.9-0.3c1.8-0.5 2.9-0.9 3.5-1.5q0.7-1 0.1-3.8l-1.6-7.2zm88.1 20.8l-9 2.8-6.4-8.3-16.4 5-0.5 10.4-8.9 2.7 3.5-46 8.8-2.7zm-20.3-11.5l-10.3-13.5-0.8 16.9z"/>
	<path id="Path 164" fill-rule="evenodd" class="s2" d="m738.6 302.4c63.4 8.5 125.2 29.8 125.2 29.8 0 0-20.8 23-4.9 34.6 24.5 17.7 77.2-29.6 77.2-29.6q-0.1 0.2-0.3 0.6c-3.3 6.6-33.1 63.1-70.6 48.1-39.8-15.8-36-56.6-36-56.6 0 0-4.3 0.1-9 2.6-3.2 1.8-7.3 6.5-7.3 6.5 0 0-5-5.2-12.1-9.2-5.4-3-12.8-4.8-15.3-5.2-5.8-0.9-12.2 0.6-12.2 0.6l6.3 9.1c0 0-17-6.4-23.6-5.1-6.7 1.3 3.8 12.4 3.8 12.4 0 0-18.9-7.9-34.2-9.2-9.6-0.9-18.1 4.5-18.1 4.5 0 0 8.5 5.9 15.2 12.7 7.8 8 14 17.1 14 17.1 0 0-20.7-15.5-35.5-12.8-13.6 2.6-14.7 3.6-14.8 3.8 0.2-0.7 6-14.2 3.3-19.6-2.8-5.6-13.5-7.5-16.3-7.3-2.7 0.2-0.9 5.6-0.9 5.6 0 0-21.5 2-21.9 19.7-0.3 17.9 27.7 34.7 27.7 34.7 0 0-10.6 21.4-69.4-4.7-58.8 26.1-69.3 4.7-69.3 4.7 0 0 27.9-16.8 27.5-34.7-0.4-17.7-21.8-19.7-21.8-19.7 0 0 1.8-5.4-0.9-5.6-2.8-0.2-13.5 1.7-16.3 7.3-2.7 5.4 3.1 18.9 3.3 19.6-0.1-0.2-1.3-1.2-14.8-3.8-14.8-2.7-35.5 12.8-35.5 12.8 0 0 6.2-9.1 14-17.1 6.7-6.8 15.2-12.7 15.2-12.7 0 0-8.5-5.4-18.1-4.5-15.3 1.3-34.2 9.2-34.2 9.2 0 0 10.5-11.1 3.9-12.4-6.7-1.3-23.7 5.1-23.7 5.1l6.3-9.1c0 0-6.4-1.5-12.2-0.6-2.5 0.4-9.9 2.2-15.3 5.2-7.1 4-12.1 9.2-12.1 9.2 0 0-4.1-4.7-7.3-6.5-4.7-2.5-9-2.6-9-2.6 0 0 3.8 40.8-36 56.6-37.6 15-67.3-41.5-70.6-48.1q-0.2-0.4-0.3-0.6c0 0 52.7 47.3 77.2 29.6 15.9-11.6-4.9-34.6-4.9-34.6 0 0 61.9-21.3 125.2-29.8 55.9-7.6 113.1-6.1 129.7-5.5 16.6-0.6 73.8-2.1 129.7 5.5zm-456.9 34.8q0 0 0.3 0.6c3.2 6.9 20.8 55-14.4 67.2-33.7 11.7-42-33.8-42-33.8 0 0 14.3 20.7 34.4 6.9 20.2-13.8 4.9-54.4-27.1-49.7-30 4.4-25.1 35.9-25.1 35.9 0 0-0.1 5.3 3.3 13.4 8.2 19.4 25.5 54.9 30.7 69.9 7.4 21.2 10.4 86.6 5.9 112.3-4.4 25.6-25.6 77.3-30 84.7-4.4 7.3-14.4 33-13.8 50.7 0.7 22.7 15.4 35.6 29 54.7 4.6 6.3 6.7 27.1 7.8 45.8 1.4 21.9 2.6 44.2 2.6 48.7 0 8.4-3.4 68 5.9 105.9 9.4 38 30.1 81.8 32 86.7 2 4.9 5 18.7 1.5 24.6-3.4 6-18.2 17.2-24.1 19.7-5.9 2.5-17 11.6-8.9 21.2 29.6 35 69.5-22.2 69.5-22.2 0 0-0.4 18.4 2.9 32.2 1.9 7.9 8.4 14.7 8.4 14.7 0 0 6.8-5.7 17.3-6 0.4-0.1 0.8-0.1 1.4-0.1 0.8 0.1 1.6 0.1 2.5 0.2 2 0.1 4.8 0.3 8.5 0.4 25.3 4.9 44.9 34.1 64.6 44 3.1 1.6 6.1 3 9.1 4.4 38.6 15.4 62.6 14.2 102.4 30.7 2.4 1 4.7 2.1 7 3.3 5 1.7 10 3.7 15.4 6 27.8 11.8 51.2 36 51.2 36h1.1c0 0 23.5-24.2 51.3-36 1.7-0.7 3.3-1.4 5-2.1 4.5-2.7 9.3-5.1 14.2-7.2 35.7-15.2 74.9-18.4 110.4-34.1 25.2-11 41.1-39.6 68.9-45 2.3-0.5 4.7-0.6 6.8-0.5 11.9-0.6 19.7 6 19.7 6 0 0 6.4-6.8 8.4-14.7 3.3-13.8 2.9-32.2 2.9-32.2 0 0 39.9 57.2 69.5 22.2 8.1-9.6-3-18.7-8.9-21.2-5.9-2.5-20.7-13.7-24.1-19.7-3.5-5.9-0.5-19.7 1.5-24.6 1.9-4.9 22.6-48.7 32-86.7 9.3-37.9 5.9-97.5 5.9-105.9 0-4.5 1.3-26.8 2.6-48.7 1.2-18.7 3.2-39.5 7.8-45.8 13.6-19.1 28.3-32 29-54.7 0.6-17.7-9.4-43.4-13.8-50.7-4.4-7.4-25.6-59.1-30-84.7-4.5-25.7-1.5-91.1 5.9-112.3 5.2-15 22.5-50.5 30.7-69.9 3.4-8.1 3.3-13.4 3.3-13.4 0 0 4.9-31.5-25.1-35.9-32-4.7-47.3 35.9-27.1 49.7 20.1 13.8 34.4-6.9 34.4-6.9 0 0-8.3 45.5-42 33.8-35.2-12.2-17.6-60.3-14.4-67.2q0.3-0.6 0.3-0.6c5.4-9.8 25.6-36.9 49.7-33.9 39.8 4.9 51.8 51.7 49.8 74.8-2 23.1-37 71.4-49.3 111.3-12.3 39.9-2.9 70.9 3.5 109.4 7.4 44.8 57.1 46.7 52.2 103.4-3.9 44.8-48.8 51.7-48.8 51.7 0 0-6.7 3.5-8.8 25.6-8 82.1 25.1 70.9 18.2 150.2-7.7 88.8-48.8 126.1-50.3 131.1-1.5 4.9 1.5 8.8 1.5 8.8 0 0 43.4 15.3 31.1 49.3-12.3 34-52.3 15.2-52.3 15.2 0 0 0.5 15.3-20.1 21.7-20.7 6.4-28.2-12.8-30.6-17.7-2.5-5-18.3-15.8-31.1-4.4-16.3 14.4-29.1 32.3-45.1 47q-1.4 1.2-2.7 2.3c-17.7 14.7-39.9 20.6-61.2 28.6-15.1 5.7-29.9 12-44.5 19-20.6 10-40 22.6-59.1 35.2-8 5.3-17.9 10.3-24.8 16.8-1.1 1.1 0 0-2.9 2-2.9-2 0 0-2.9-2-20.6-14.4-41.2-28.9-63.1-41.2-33.3-18.6-70.7-27.1-104.6-43.9-30.1-14.9-48.3-42-72.9-63.8-12.9-11.4-28.6-0.6-31.1 4.4-2.4 4.9-9.8 24.1-30.5 17.7-20.7-6.4-20.2-21.7-20.2-21.7 0 0-40 18.8-52.3-15.2-12.3-34 31.1-49.3 31.1-49.3 0 0 3-3.9 1.5-8.8-1.5-5-40.7-25.7-48.4-114.5-6.9-79.3 27.9-77.6 19.9-159.8-2.2-22.1-12.4-32.6-12.4-32.6 0 0-44.9-6.9-48.8-51.7-4.9-56.7 42.3-62.8 55.2-107.9 15.6-53.2 12.8-65 0.5-104.9-12.3-39.9-47.3-88.2-49.3-111.3-2-23.1 10-69.9 49.8-74.8 24.1-3 44.3 24.1 49.7 33.9zm249.7 19.9q0 0 0 0 0 0 0 0zm155 0q0 0 0 0 0 0 0 0zm251.6 736.1c6.5-3.7-0.1-13.5-0.1-13.5 0 0 14.5 1.3 12.3 15.5-1.1 6.8-13.8 14.2-23.9 4.8-20.5-19.3-2.9-33-2.9-33-7.7 20.1 8.1 29.9 14.6 26.2zm-8.6-17.4c0 0-1 3.3 0 4.7 0.9 1.4 5.7 0.9 7 3.4 1.3 2.5 0.2 3.7-1.2 4.9-1.4 1.2-11.9-3.3-9.2-10.9 5-3.6 3.4-2.1 3.4-2.1zm55.3-734.4c-9.7 1.3-17.1 7.1-17.1 14 0 7 7.4 12.7 17.1 14-1.3 0.2-2.7 0.3-4.2 0.3-11.6 0-21.1-6.4-21.1-14.3 0-7.8 9.5-14.3 21.1-14.3 1.5 0 2.9 0.1 4.2 0.3zm-12.5 328.4c0 0 33 2.3 23.8 43.1-4.5 20.1-26.3 21.5-33.4 14-14.5-15.6 2.3-29.3 2.3-29.3 0 0 0 17.5 11.1 16.7 11.1-0.8 22.3-26.1-3.8-44.5zm5.8 15.6c9.7 7.2 0.5 21.4-2.3 21.1-2.7-0.2-5-0.8-5.5-5-0.6-4.1 5.8-7.5 5.8-10 0-2.5-3.8-5.8-3.8-5.8 0 0-3.4-0.6 5.8-0.3zm-683.5 381.6c0 0 17.5 13.7-3 33-10.1 9.4-22.8 2-23.9-4.8-2.2-14.2 12.3-15.5 12.3-15.5 0 0-6.5 9.8-0.1 13.5 6.5 3.7 22.2-6.1 14.7-26.2zm-2.7 10.9c2.7 7.6-7.7 12.1-9.2 10.9-1.4-1.2-2.4-2.4-1.2-4.9 1.3-2.5 6.1-2 7-3.4 1-1.4 0-4.7 0-4.7 0 0-1.6-1.5 3.4 2.1zm-54.6-736.8c11.7 0 21.2 6.5 21.2 14.3 0 7.9-9.5 14.3-21.2 14.3-1.4 0-2.7-0.1-4.1-0.3 9.8-1.3 17.1-7 17.1-14 0-6.9-7.3-12.7-17.1-14 1.4-0.2 2.7-0.3 4.1-0.3zm4.6 373.2c11.1 0.8 11.1-16.7 11.1-16.7 0 0 16.8 13.7 2.3 29.3-7.1 7.5-29 6.1-33.4-14-9.2-40.8 23.9-43.1 23.9-43.1-26.1 18.4-15 43.7-3.9 44.5zm3.9-28.6c0 0-3.9 3.3-3.9 5.8 0 2.5 6.4 5.9 5.8 10-0.5 4.2-2.8 4.7-5.5 5-2.8 0.3-12-13.9-2.2-21.1 9.1-0.3 5.8 0.3 5.8 0.3z"/>
</svg>