<svg version="1.2" xmlns="http://www.w3.org/2000/svg" viewBox="0 0 217 260" width="217" height="260">
	<title>Ugarchin-svg</title>
	<style>
		.s0 { fill: none;stroke: #bab697;stroke-width: 2 } 
		.s1 { fill: none;stroke: #808080;stroke-width: 2 } 
		.s2 { fill: none;stroke: #3b3717;stroke-width: 2 } 
		.s3 { fill: none;stroke: #5f0006;stroke-width: 2 } 
		.s4 { fill: none;stroke: #7c620d;stroke-width: 2 } 
		.s5 { fill: none;stroke: #da6213;stroke-width: 2 } 
		.s6 { fill: none;stroke: #012807;stroke-width: 2 } 
		.s7 { fill: none;stroke: #b69924;stroke-width: 2 } 
		.s8 { fill: #000000 } 
		.s9 { fill: #f7c419 } 
		.s10 { fill: #bd000c } 
		.s11 { fill: #756d2e } 
		.s12 { fill: #02500e } 
	</style>
	<g id="Layer">
		<path id="Layer" class="s0" d="m15.3 125q-2.2 1.3-3.5 3.5"/>
		<path id="Layer" class="s1" d="m11.8 128.5l-3.6 4.6q-1.1 1.5-0.6 3.5l1 4.1q0 0.1 0 0.2 0 0.1-0.1 0.2 0 0.1-0.1 0.1-0.1 0.1-0.2 0.1-12.7 3.9-0.7 12.4 0.2 0.1 0.2 0.2 0.1 0.1 0.1 0.3 0 0.1 0 0.3-0.1 0.1-0.2 0.2-5.6 4.7-2.9 10.2 0.1 0.1 0.1 0.2 0 0.1 0 0.2 0 0.1 0 0.3 0 0.1-0.1 0.2-2.3 5.1-0.7 10.5 0.1 0.2 0.1 0.3 0.1 0.1 0.2 0.2 0 0.1 0.1 0.2 0.1 0 0.2 0.1l3.5 2.3q0.3 0.2 0.5 0.5 0.2 0.3 0.3 0.6 0.1 0.4 0 0.7 0 0.4-0.2 0.7-1.1 2.1-2.9 3.5-0.1 0.1-0.2 0.2 0 0.1-0.1 0.2-0.1 0.1-0.1 0.2-0.1 0.1-0.1 0.2-0.6 2.7 1.2 3.9 0.7 0.5 3.1 0.8 2 0.3 3.2 0.9 0.3 0.1 0.4 0.3 0.2 0.3 0.2 0.6 0 0.3-0.1 0.5-0.2 0.3-0.4 0.5l-4.1 3.1q-0.1 0.1-0.1 0.2-0.1 0.1-0.1 0.2 0 0.1 0 0.3-0.1 0.1 0 0.3 1.2 7.6 10.7 7.7 0.3 0 0.6 0.2 0.3 0.1 0.4 0.4 0.2 0.3 0.2 0.6 0 0.3-0.1 0.6-1.4 2.8 0 6 1.5 3.4 4.6 2.2l7.3-2.9q0.2-0.1 0.3-0.1 0.2 0 0.4 0.1 0.1 0.1 0.2 0.3 0.1 0.1 0.1 0.3-0.1 3.3 0.4 6.4 0.6 3.6 2.7 4.8 3.5 2 7.4-3.1 1.8-2.3 2.9 0.5 1.4 3.6 5.6 6.3 0.2 0.1 2.2 0.8 1 0.4 2.1 1.3 12.3 10.8 29.1 18.4 11.1 5 21.9 9.5 0.1 0 0.3 0.1 0.2 0 0.4 0 0.2 0 0.4 0 0.2 0 0.4-0.1 13.3-5.3 24.3-10.5 14.2-6.7 26.2-16.8 1.3-1.1 3.6-2 5.3-2.2 7.2-7.6 1-2.7 2.4-0.3 2.3 3.9 6.7 4.4 2.8 0.3 3.2-3l1.2-8q0.3-2.2 2.1-1.2 3.3 2 6.5 2.4 3.6 0.5 4.2-2.5 0.8-3.7-0.1-5.8-0.1-0.3 0-0.6 0-0.3 0.1-0.5 0.2-0.2 0.4-0.4 0.3-0.1 0.6-0.1 9.7-0.3 10.7-7.9 0.1-0.1 0.1-0.2-0.1-0.1-0.1-0.2 0-0.2-0.1-0.3 0-0.1-0.1-0.2-1.2-1.7-3.8-3-2.2-1.1 0-2 1.5-0.7 4.3-1.1 4.2-0.7 2.9-4.7 0-0.1-0.5-0.8l-2.8-3.5q-1.2-1.7 0.9-2.4 3.7-1.3 4.2-4.6 0.4-1.8 0.3-4.4-0.1-2.4-1.4-4.4-0.1-0.1-0.1-0.2 0-0.1-0.1-0.2 0-0.1 0.1-0.2 0-0.1 0-0.2 2.9-5.6-2.8-10.4-0.1-0.1-0.2-0.2 0-0.2 0-0.3 0-0.2 0.1-0.3 0-0.2 0.2-0.2 12.2-8.6-0.7-12.4-0.1 0-0.2-0.1-0.1 0-0.1-0.1-0.1-0.1-0.1-0.2 0-0.1 0-0.2l1.2-5.2q0.1-0.1 0.1-0.2 0-0.2 0-0.3-0.1-0.1-0.1-0.2 0-0.1-0.1-0.2-3-5.4-7.6-9.5-0.1-0.1-0.2-0.2 0-0.1-0.1-0.2 0-0.1 0-0.2-0.1-0.1 0-0.2l6.6-71.3q0-0.1 0-0.2 0-0.1-0.1-0.2 0-0.1-0.1-0.2-0.1-0.1-0.2-0.1l-21.8-9.1q-0.1 0-0.2-0.1-0.1 0-0.2-0.1 0-0.1-0.1-0.2 0-0.1 0-0.3v-27.5q0-0.1 0-0.2-0.1-0.1-0.1-0.2-0.1-0.1-0.2-0.2-0.1 0-0.2-0.1-76.7-26.8-153.2 0.1-0.1 0-0.2 0.1-0.1 0.1-0.2 0.2 0 0-0.1 0.1 0 0.2 0 0.3l-0.1 27.6q0 0.1 0 0.2-0.1 0.1-0.1 0.2-0.1 0.1-0.2 0.2-0.1 0-0.2 0.1l-21.4 8.8q-0.1 0.1-0.3 0.2-0.1 0.1-0.2 0.2-0.1 0.2-0.1 0.3 0 0.2 0 0.3l6.5 71.8"/>
		<path id="Layer" class="s2" d="m11.8 128.5q2.8-0.8 3.4-3.5"/>
		<path id="Layer" class="s3" d="m125.5 162.5q14.4-4.8 25.3-14.7 0.8-0.8 0.7 0.4-1.2 11-2.5 22.1-1.1 9.3-4.3 17.2-3.5 8.6-9.4 14.6-11.3 11.3-28.8 11-17.5-0.2-28.2-12.2-10.1-11.3-12.2-28.2 0-0.1 0-0.2-0.1-0.1-0.2-0.2 0 0-0.1-0.1-0.1 0-0.2 0l-12.2 1.4q-0.1 0.1-0.3 0.1-0.1 0.1-0.2 0.3-0.1 0.1-0.1 0.3-0.1 0.1 0 0.3 0.6 3.8 1.5 7.6 0.3 1.7 1.7 3.7 1.9 2.9 2.3 6.3 0.5 2.9 1.2 4.4 6.3 12.9 17.6 20.9 8.3 5.7 18.2 8 12.7 2.9 25.4-0.3 22.4-5.6 33.5-26.4 6.4-11.8 8-26.3 5.8-48.8 11.2-97.7 0-0.1 0-0.2-0.1-0.1-0.1-0.2-0.1-0.1-0.1-0.2-0.1-0.1-0.2-0.1l-11.9-5.4q-0.1-0.1-0.2 0-0.2 0-0.3 0-0.1 0.1-0.2 0.2 0 0.1-0.1 0.3l-4.9 45q-0.2 1.3-0.6 2.7-5.4 16.9-19.6 26-6.4 4.1-10.4 5.9"/>
		<path id="Layer" class="s4" d="m124.8 148.8l2.2-5.9q0-0.1 0.1-0.2 0-0.1 0.1-0.2 0.1-0.1 0.2-0.2 0.1 0 0.2-0.1 10.5-5.4 17.3-15.1 5-7.4 5.9-14.6 2-17.8 4-35.8 0-0.3 0-0.6-0.1-0.3-0.2-0.6-0.1-0.3-0.3-0.5-0.1-0.3-0.4-0.5-6.8-6.1-13.2-11.7-2.1-2-4.8-3.2-3.3-1.6-6.1 0.7-2.1 1.9-4.7 4.5-0.1 0.1-0.1 0.2-0.1 0.1-0.1 0.3 0 0.1 0.1 0.2 0 0.2 0.1 0.3l21.5 21.1q0.4 0.4-0.1 0.5-7.7 2-12.8-4.3-5.4-6.8-24.6-28.9-3.7-4.4-6.5-5.4-4.3-1.6-9.2 0.3-2.8 1.1-5.1 2.9-13.6 10.4-27.8 21.7-0.2 0.2-0.4 0.4-0.1 0.2-0.2 0.4-0.1 0.2-0.1 0.4-0.1 0.3 0 0.5 1.4 13.6 3 27.3 1.3 11.4 3.4 16.7 5.8 14.7 20.6 22.4 0.1 0.1 0.2 0.2 0.1 0.1 0.2 0.1 0.1 0.1 0.1 0.2 0.1 0.1 0.1 0.2l2.4 5.8"/>
		<path id="Layer" class="s3" d="m89.8 148.3q-10.3-3.9-18.1-11.7-11.2-11.4-13-27.3-2.1-19.2-4.3-39.5 0-0.2-0.1-0.3-0.1-0.1-0.2-0.2-0.2-0.1-0.3-0.1-0.2 0-0.3 0l-11.6 4.8q-0.1 0.1-0.2 0.2-0.1 0-0.1 0.1-0.1 0.1-0.1 0.2 0 0.1 0 0.3 1.9 18.6 4 36.9 2.4 21 18.8 36.3 10.8 10.1 25 14.2"/>
		<path id="Layer" class="s4" d="m89.3 162.2l1.5 5.1q0.1 0.6-0.5 0.4-23.4-6.6-38-26-8-10.7-10.8-24.5-0.4-2.3-2.4-19.9-1.2-11.9-2.6-25.2 0-0.2 0-0.4 0-0.1 0.1-0.3 0.1-0.1 0.2-0.2 0.1-0.1 0.3-0.2l20.6-8.5q0.1 0 0.2 0 0.1 0 0.2 0 0.1 0.1 0.1 0.1 0.1 0.1 0.1 0.2l0.7 6.4q0.1 0.8 0.7 0.3 11.1-8.7 22.2-17.3 6.4-5 9.9-6.1 6.2-2 12.2 0.5 3.2 1.3 7.9 5.8 4.9 4.8 10 9.5 0.1 0.1 0.2 0.1 0.1 0.1 0.2 0.1 0.1 0 0.2 0 0.1-0.1 0.2-0.1 5.9-4.1 7.9-4.9 6.1-2.7 11.2 1.6 2.3 1.9 13.2 9 0.1 0 0.2 0 0.1 0 0.2 0 0 0 0.1-0.1 0-0.1 0.1-0.1l0.9-5.4q0-0.1 0.1-0.2 0-0.1 0.1-0.1 0.1-0.1 0.2-0.1 0 0 0.1 0.1l21.1 9.4q0.1 0 0.2 0.1 0.1 0.1 0.1 0.2 0.1 0.1 0.1 0.2 0 0.1 0 0.2l-11.6 102q0 0.1 0 0.2 0.1 0.1 0.1 0.2 0.1 0.1 0.1 0.2 0.1 0.1 0.2 0.1 3.1 1.7 2.2-0.8-0.7-2 0-5.9 0.3-1.6 1.2-2.3 1-0.8 2.5-1.1 1.7-0.4 1.7-2.2 0-5 5.2-5.3 0.1 0 0.2-0.1 0.2 0 0.3-0.1 0-0.1 0.1-0.2 0.1-0.1 0.1-0.3 0.2-3.2 1.6-6.3 0-0.1 0.1-0.2 0-0.1 0.1-0.2 0.1-0.1 0.2-0.1 0.1-0.1 0.2-0.1 1.6-0.6 3.1 0.3 1.7 1 0.8-0.8-1.7-3.1-1.6-6.6 0-2.8 1.3-4.3 1.7-2.3 5-1.1 1.9 0.7 0.8-0.9-1.1-1.7-0.6-3.2 1-2.8 3.5-5.2 0.1-0.1 0.1-0.2 0.1-0.1 0.2-0.2 0-0.1 0.1-0.2 0-0.1 0-0.2l6.6-70.2q0-0.2-0.1-0.3 0-0.1-0.1-0.2 0-0.1-0.1-0.2-0.1-0.1-0.3-0.1l-21.3-8.8q-0.1-0.1-0.2-0.2-0.1 0-0.1-0.1-0.1-0.1-0.1-0.2-0.1-0.1-0.1-0.3l-0.1-27.1q0-0.1-0.1-0.3 0-0.1-0.1-0.3-0.1-0.1-0.2-0.2-0.1-0.1-0.3-0.1-70.8-23.2-141.4 0.1-0.1 0.1-0.2 0.1-0.1 0.1-0.1 0.2-0.1 0.1-0.1 0.2-0.1 0.1-0.1 0.2l-0.2 27.2q0 0.1 0 0.2-0.1 0.1-0.1 0.2-0.1 0.1-0.2 0.2-0.1 0.1-0.2 0.1l-21.3 8.9q-0.1 0.1-0.2 0.1-0.1 0.1-0.1 0.2-0.1 0.1-0.1 0.2 0 0.1 0 0.2l6.5 70.2q0 0.1 0 0.2 0 0.1 0.1 0.2 0.1 0.1 0.1 0.2 0.1 0.1 0.2 0.2 1.9 1.6 3.1 3.8 1.5 2.9-0.4 5.4-0.5 0.7 0.3 0.5 5.2-1.3 6.7 2.4 0.8 1.9 0.2 4.9-0.5 2.4-1.5 4.8-0.4 1 0.6 0.5 4.2-2.3 5 2.4 0.3 2.1 0.7 4.1 0 0.1 0 0.2 0.1 0.1 0.1 0.2 0.1 0.1 0.2 0.1 0.1 0 0.2 0.1 5.4 0.5 5.4 6.3 0 0.1 0 0.3 0.1 0.2 0.2 0.3 0.1 0.2 0.3 0.3 0.2 0.1 0.4 0.1 4.1 0.5 4.5 4.6 0 0.1 0 0.2 0.1 0.1 0.1 0.2 0.1 0 0.2 0 0.1 0.1 0.2 0.1l21.2-2.4q0.2 0 0.3 0 0.1 0 0.2 0.1 0.1 0 0.1 0.1 0.1 0.1 0.1 0.2l0.7 4.1q0 0.1 0 0.2 0.1 0.1 0.2 0.2 0.1 0.1 0.2 0.1 0.1 0 0.2 0 3.4-1.3 6.5-0.8 0.6 0.1 0.2 0.4l-5.5 4.6q-0.1 0.1-0.2 0.2-0.1 0.1-0.1 0.2-0.1 0.1-0.1 0.2-0.1 0.1-0.1 0.2-0.1 2.2 0.9 4.2 0 0 0.1 0.1 0.1 0 0.2 0.1 0.1 0 0.2 0 0.1-0.1 0.1-0.1 5-4.4 9.7-9.1 0.9-0.9 1.8-1.1 1.1-0.1 2.3 0.1 0.1 0 0.2 0 0.1 0.1 0.1 0.2 0.1 0.1 0 0.2 0 0.1 0 0.2l-11.7 16.4q0 0.1-0.1 0.2 0 0.1 0 0.2 0 0.1 0 0.2 0 0.1 0.1 0.2l2.7 4.8q0.1 0.1 0.2 0.2 0.1 0 0.2 0 0.1 0 0.2 0 0.1-0.1 0.2-0.2l10.3-15.1q0.7-1 1 0.1 0.3 1.7 0.8 3.2 1.1 3.1-0.4 5.9-0.8 1.4-0.8 1.5-2.4 5-5.1 10.7-0.1 0.2-0.1 0.3 0 0.2 0 0.3 0 0.2 0.1 0.3 0.1 0.1 0.2 0.2l4.8 3.3q0 0.1 0.1 0.1 0.1 0 0.2 0 0.1 0 0.2-0.1 0.1-0.1 0.1-0.2l2.4-6.6q0.5-1.5 1-0.1 1 2.7 3.1 4.9 0.1 0.1 0.1 0.2 0.1 0.1 0.1 0.2 0.1 0.1 0.1 0.2 0 0.1 0 0.2l-0.6 3.3q0 0.1 0 0.2 0.1 0.1 0.1 0.2 0.1 0.1 0.2 0.1 0 0.1 0.1 0.1 2 0.9 4.2 1.1 0.1 0 1.6 0.3 1.9 0.3 1.6-2-0.1-0.5 0-1 0.5-1.4 0-2.7-0.1-0.1-0.1-0.2-0.1-0.1-0.2-0.2-0.1-0.1-0.2-0.2-0.1 0-0.2-0.1-7.3-3-7.7-10.8-0.5-9.7-4.3-17.3-0.2-0.4-0.2-0.6 0-1 0.6-0.5 0.3 0.1 0.5 0.5 1.3 2.4 2.7 4.9 0.9 1.7 0.9-0.3-0.1-9.1-4.5-18.1-0.1-0.2-0.2-0.5-0.1-1.2 0.7-0.1 1.7 2.3 3.1 5 0.9 1.9 0.9-0.2-0.1-9.6-4.5-18.9-0.1-0.3-0.2-0.6-0.1-1.1 0.8-0.2 0.8 1 3 5.1 1.3 2.4 2.5 3.5 1.5 1.3 3.6 2.5 0.7 0.3 0.5-0.4-3.2-9.9-4.2-20.6-0.1-1.7 0.6-1 0.2 0.2 0.3 0.6 1.6 6 3.5 11.9 0.1 0.5 0.4 0.1 3.4-7.1 3.5-9.3 0.1-5.9 0.6-12.7 0.1-0.3 0-0.7-0.1-0.3-0.2-0.6-0.1-0.3-0.3-0.6-0.2-0.2-0.5-0.4-1.5-1.2-1.3-3.3 0.2-3.4-1-6.5-0.5-1.2-2.7-0.7-2 0.5-2.3 2.5-0.5 2.7-0.9 5.4 0 0.1-1 5.1-0.9 4.9-0.5 9.9 0 0 0.3 1.1 0.2 1.1-0.9 1.4-0.1 0.1-0.2 0.1-0.1 0.1-0.2 0.1 0 0.1-0.1 0.2 0 0.1 0 0.2-0.3 3.4-4.2 2.7-0.6-0.2-0.1-0.6 1.8-1.5 2.3-3.8 0.1-0.4 0.4-4.2 0.3-4.2-0.1-8.3-0.3-2.7-0.1-5.7 0.1-2.9-0.1-5.8-0.2-1.7-1.2-3.3-0.9-1.5-1.8-3.1-0.4-0.5-1.6-3.7-0.8-2.3-2.9-3.9-2.8-2.3-3.2-6 0-0.3-0.3-0.9l-2-3.9q-0.1-0.1-0.2-0.2-0.1-0.1-0.1-0.2-0.1 0-0.2-0.1-0.1 0-0.2 0-4.2-0.3-5.3-0.7-1.9-0.7-2.1-2.6 0-0.1 0-0.2 0-0.1 0.1-0.2 0-0.1 0.1-0.2 0.1-0.1 0.1-0.2 3.5-2.7 5.7-6.5 0-0.1 0-0.2 0.1-0.1 0.1-0.2 0-0.2 0-0.3-0.1-0.1-0.1-0.2-0.9-2.3 0-4.6 0-0.1 0.1-0.1 0.1-0.1 0.1-0.1 0.1 0 0.2 0.1 0.1 0 0.1 0.1 2.9 3.5 3.2-0.7 0-0.6-0.2-2.5-0.3-2.5 0.4-4.9 0-0.2 0.1-0.3 0-0.1 0.1-0.1 0.1-0.1 0.2-0.1 0.1 0 0.2 0.1 0.4 0.2 0 0.8-0.2 2.5 0.8 1.4 0.4-0.3 0.5-0.9 0.7-2.5 2.7-4.2 0-0.1 0.1-0.1 0.1-0.1 0.2-0.1 0.1 0 0.2 0 0.1-0.1 0.2 0 0.6 0 0 0.6-2.5 2.7-0.9 6 0.4 0.9-0.4 0.3-2.1-1.4-2.4 0.7-0.4 2.9-0.3 5.9 0.1 1.9 0.9 0.2 1-2.2 2.8-4.4 1.2-1.5 0.8-5.2 0-0.2 0.1-0.4 0.4-1.2 0.5 0.5 0.1 1.1 0.7 0.9 0.1 0 0.2-0.1 0.1 0 0.1-0.1 0.1-0.1 0.2-0.2 0.1-0.1 0.1-0.3 1.3-3.1 4.3-4.5 0.5-0.2 0.1 0.2-1.2 1.4-2.4 2.9-1 1.2-0.4 2.5 0.1 0.1 0.1 0.2 0.1 0.2 0.1 0.3 0 0.1 0 0.2 0 0.1 0 0.2-0.2 0.8-1-0.2-0.1-0.1-0.2-0.2-0.1 0-0.3 0-0.1 0-0.2 0.1-0.1 0.1-0.2 0.2-1.6 3.4-3.4 6.9-0.2 0.2-0.1 0.4 0 1.1 0.6 0 1.1-2.1 4.1-4.3 0.1-0.1 0.2-0.1 0.1 0 0.2 0 0 0 0.1 0.1 0.1 0.1 0.1 0.2 1.3 4.7-0.5 7.6-0.1 0.1-0.1 0.2-0.1 0.1-0.1 0.2 0 0.1 0 0.2 0 0.1 0 0.3 0 1.2-1 3.1-0.1 0.1-0.1 0.3-0.1 0.2-0.1 0.4 0 0.2 0 0.3 0 0.2 0.1 0.4 0.9 2.8 4.1 5.6 0.2 0.1 0.4 0.3 0.3 0.1 0.6 0.2 0.2 0.1 0.5 0.1 0.3 0 0.6 0 2.5-0.3 4.8-0.1 2.9 0.2 4.4 0 2.2-0.4 4.3-1.1 12.9-4.2 19.6 6.1 1.4 2.2 1.5 4 0.1 2.3-1.6 4.3-2.7 3.2-3.5 7.2-0.2 1.2 0.3 3 0.4 1.5 0.3 3.1-0.1 2.1 1.8 3.4 0.1 0.1 0.3 0.3 0.1 0.2 0.2 0.4 0.1 0.2 0.1 0.5 0 0.2 0 0.4-0.5 2.3 0.6 4.5 0.1 0.1 0.2 0.3 0 0.2 0.1 0.4 0 0.3 0 0.5 0 0.2 0 0.4-0.7 6.9-0.1 12.9 0 0.2 0 0.3-0.1 0.1-0.2 0.2-0.1 0.1-0.2 0.1-0.1 0.1-0.2 0-1.2-0.1-1.5 0.8-0.7 2.3-3.2 1.8-1.6-0.3-0.2-1.1 1.7-1 2.2-2.9 0.9-3-0.2-11.5-0.1-0.3-0.2-0.4-0.4-0.4-0.5 0.2-1.2 4.4-0.6 9.7 0 0.1 0 0.1 0 0.1-0.1 0.2 0 0 0 0.1-0.1 0-0.1 0l-0.2 0.1q-0.2 0.1-0.2 0.1-0.1 0.1-0.2 0.2 0 0-0.1 0.1 0 0.1 0 0.2 0.1 2.5-2.9 2.2-0.1 0-0.2-0.1-0.1-0.1-0.2-0.2 0-0.1 0-0.2 0-0.1 0-0.2 1.2-1.7 1.3-3.6 0.1-2.9 0.2-3 0.8-6.1-0.3-12.2 0-0.1 0-0.2-0.1-0.1-0.1-0.2-0.1-0.1-0.2-0.2-0.1-0.1-0.2-0.2-4.4-2.9-8.1-6.7-0.8-0.9-1.7-1-1.1-0.3-2.1-0.1-0.2 0-0.3 0.1 0 0-0.1 0.1-0.1 0.1-0.1 0.2-0.1 0.1-0.1 0.2-0.3 2.9 0.4 5.6 0.8 3.7 1 5.4 0.7 5.9 3.3 11.2 0 0.1 0 0.1 0.1 0.1 0 0.2 0 0.1-0.1 0.2-0.1 0-0.1 0.1-0.8 0.4-0.6 1.4 0.7 3.5-2.9 3-0.1 0-0.2 0-0.1 0-0.2 0.1 0 0.1 0 0.2-0.1 0.1 0 0.3l2.9 7.4q0.4 1 0.7 0 1.6-6 3.5-11.9 0.5-1.5 0.9-0.2 0.2 0.3 0.1 0.7-1.6 10.2-4.6 20.7-0.2 0.8 0.5 0.3 1.6-1.1 3.1-2.2 1.5-1.2 2.4-2.9 1.7-3 3.3-5.9 0.2-0.3 0.4-0.5 0.5-0.3 0.6 0.3 0.1 0.2-0.1 0.6-4.5 9.3-4.5 19.7 0 0.5 0.3 0.1 1.6-2.2 2.8-4.6 0.2-0.4 0.4-0.7 1.5-1.8 0.8 0.8-0.1 0.4-0.3 0.8-4.1 8.2-3.8 17.4 0 0.5 0.3 0.1 2.4-3.8 2.9-4.9 0.3-0.8 0.8-0.8 0.1 0 0.2 0 0.1 0.1 0.1 0.2 0.1 0 0.1 0.2 0 0.1-0.1 0.2-1 2.8-2.1 5.7-1.2 2.9-1.6 5.8-0.4 3-0.7 6-0.5 3.9-1.6 5.8-2 3.8-6.3 5.6-0.1 0-0.2 0.1-0.1 0.1-0.2 0.2-0.1 0.1-0.1 0.2 0 0.1 0 0.2l0.4 4.6q0 0.1 0 0.2 0.1 0.1 0.2 0.2 0.1 0.1 0.2 0.1 0.1 0 0.2 0 3.7 0.1 6.5-1.2 0.1-0.1 0.2-0.1 0.1-0.1 0.1-0.2 0-0.1 0-0.2 0-0.1 0-0.2-1.2-3 1.3-5.7 0.4-0.5 1.9-3.6 0.2-0.5 0.4 0l2.3 6.8q0 0.2 0.1 0.3 0.1 0.1 0.3 0.1 0.1 0.1 0.2 0.1 0.2 0 0.3-0.1l4.8-3.1q0.1-0.1 0.1-0.2 0.1-0.1 0.1-0.2 0-0.1 0-0.2 0-0.1 0-0.2-2.2-5.1-4.7-10.1-1.8-3.9-2-5.7-0.3-3.3 1.5-6.3 0.1 0 0.1-0.1 0.1 0 0.2 0 0.1 0 0.1 0 0.1 0.1 0.2 0.1l10.6 15.6q0 0.1 0.1 0.1 0.1 0.1 0.1 0.1 0.1 0 0.2-0.1 0.1 0 0.1-0.1l2.9-4.8q0.1-0.1 0.1-0.3 0-0.1 0-0.2 0-0.1 0-0.2-0.1-0.1-0.1-0.2l-11.7-16.3q0-0.1 0-0.2-0.1-0.1 0-0.2 0-0.1 0.1-0.1 0.1-0.1 0.2-0.1 1.9-0.3 3.1 0.2 0.4 0.1 2.2 1.8 4.3 4.2 8.6 8.4 0.4 0.4 0.5-0.1l1-4.2q0-0.1 0-0.3 0-0.2-0.1-0.4-0.1-0.2-0.2-0.3-0.1-0.2-0.3-0.3l-5.5-4.4q-0.5-0.3 0.1-0.5 2.7-0.5 6.1 0.7 0.1 0 0.3 0 0.2 0 0.3-0.1 0.2-0.1 0.2-0.2 0.1-0.2 0.2-0.3l1.4-12.6q0.1-0.6-0.5-0.2-9.5 6.4-20.4 9.2-0.6 0.1-0.5-0.4l1.4-4.7"/>
		<path id="Layer" class="s5" d="m89.3 162.2l-1.4-4.5q0-0.1 0-0.2 0-0.1 0-0.2 0-0.1 0.1-0.2 0-0.1 0.1-0.2l3.5-3.6q0.1-0.1 0.1-0.2 0.1-0.1 0.1-0.2 0.1-0.2 0.1-0.3 0-0.1-0.1-0.1l-2-4.2"/>
		<path id="Layer" class="s5" d="m124.8 148.8l-1.2 3.3q0 0.2 0 0.4 0 0.1 0.1 0.3 0 0.2 0.1 0.4 0.1 0.1 0.3 0.3l3.3 3.4q0.1 0.1 0.1 0.2 0.1 0.1 0.1 0.2 0 0.1 0 0.2 0 0.1 0 0.2l-2.1 4.8"/>
		<path id="Layer" class="s4" d="m113.8 93.8l-2.2 1.4q-0.1 0.1-0.2 0.1-0.1 0.1-0.2 0.2-0.1 0.1-0.1 0.2-0.1 0.1-0.2 0.2-3.5 7 1.2 12.3 2.4 2.6 2.6 2.8 1.5 1.7 3 2.8 4.6 3.4 7.7 7.1 0.2 0.3 0.6 0.9 1.6 2.7 1.1-1.3-0.1-0.4 0.1-1 0.4-1.7-0.9-2.6-10.4-7.1-1.6-16.5 1.9-2 0.8-5.4-0.1-0.3 0.1 0 1.3 2.2 1.6-0.3 0.1-0.7-0.1-1.4-0.8-3.7-4-5.1-6.2-2.7-13.3-0.6-5.7 1.6-10.2 1.3-0.5-0.1-1 0.1-2 0.8-3.9 0.3-1.7-0.5-3.3-2.4-2.4-2.8-2.8-5.5-0.6-3.2 1.2-5.8 1.8-2.7 1-5.8 0-0.1 0-0.2-0.1 0-0.2 0-0.1 0-0.1 0-0.1 0-0.2 0.1-1.5 1.4-1.7 3.1-0.3 1.9-1.8 1.8-0.5 0-0.9 0.2-1.2 0.4-2.1-0.4 0-0.1-0.1-0.2-0.1 0-0.2 0-0.1-0.1-0.2-0.1-0.2 0-0.3 0.1-1.2 0.3-2.1-0.9-1.9-2.5-1.7 0.6 0 0 0.2 1.2 0.3 1.1-0.6 1.8-0.4 0.4-0.5 0.8-0.9 2-2.5 3.2-1.1 0.8 0.3 1.3 1.7 0.6 1.2 1.8 0 0.1 0 0.2 0 0.1 0 0.2 0 0 0.1 0.1 0.1 0 0.2 0.1 2.6 0.6 5.4-0.2 1.4-0.5 1.4 0.1 0 0.1-0.1 0.1 0 0.1-0.1 0.2-0.1 0.1-0.2 0.2-0.2 0-0.3 0.1-3.1 1-1.3 3.5 0.9 1.4 1 1.5 1.3 2.1 2.3 4.5 2.4 5.3 5.9 1.1 0.3-0.3 0.1 0.1-2.1 5.3 0.6 10 1.6 2.6 1.6 2.7 2 4.5 1.1 9.5-0.5 2.7 0.3 5.3 0.4 1.4 0.7-0.1 1-4.5 1.5-9.2 0.2-2 1.9-4.1 1.7-2.2 1.8-3.3 0.2-2.1-1.7-3.8-1.4-1.2-1.7-3.1-0.3-1.2 0.5-0.2 2.9 3.4 4.1 7.8 0 0.1 0.1 0.2 0 0.1 0.1 0.2 0.1 0.1 0.2 0.1 0.1 0.1 0.2 0.1 3 1.1 6.3 0.7 0 0 0.1-0.1 0.1 0 0.1-0.1 0-0.1 0-0.2 0 0-0.1-0.1l-1.9-2.7q0-0.1-0.1-0.2 0-0.1 0-0.2-0.1-0.1 0-0.2 0-0.2 0-0.3 0.9-3.3 1.7-6.6 0.5-2 1.5-2.9 1.2-1.2 3.1-1.4 0.6-0.1 0.1 0.2z"/>
		<path id="Layer" class="s4" d="m75.2 84.1q0.4 0.6 1 0 0-0.1 0.1-0.2 0-0.1 0-0.2 0-0.1 0-0.2 0-0.1-0.1-0.2-0.5-0.5-1 0-0.1 0.1-0.1 0.2-0.1 0.1-0.1 0.2 0 0.1 0.1 0.2 0 0.1 0.1 0.2z"/>
		<path id="Layer" class="s4" d="m122.9 112.6q0.5 1 1 0.5 0.1 0 0.2-0.1 0-0.1 0-0.2 0-0.1 0-0.3 0-0.1 0-0.2-1.3-3.1 0.2-6.2 1.9-4 2.9-5.2 2-2.2 1.6-5.1 0-0.1-0.1-0.2-0.1-0.1-0.1-0.2-0.1-0.1-0.2-0.1-0.1 0-0.2 0.1-0.8 0.4-1.4 3.2 0 0.3-0.2 0.6-0.1 0.3-0.3 0.6-0.1 0.3-0.3 0.5-0.2 0.3-0.5 0.5-2.2 1.8-3.1 5.1 0 0.2-0.6 2-0.7 2 0.5 3.7 0.3 0.5 0.6 1z"/>
		<path id="Layer" class="s4" d="m107.2 111.8q0.6-2-2.1-1.8-0.2 0.1-0.3 0.1-0.1 0.1-0.2 0.2-0.1 0.2-0.1 0.3 0 0.2 0.1 0.3 1.6 3.7 1.6 8.1 0 1.8 2.1 3.4 0.4 0.3 0.3-0.2l-1.5-9.4q0-0.4 0.1-1z"/>
		<path id="Layer" class="s4" d="m109.4 136.5q1-3.9-0.6-7.8-0.7-1.7-0.5 0.1 0.2 3.5 0.3 7.4 0 0.3 0 0.5 0.4 1.2 0.8-0.2z"/>
		<path id="Layer" class="s6" d="m24.3 145.8l-3.5 8.6q-0.1 0.2-0.2 0.5 0 0.2 0 0.4-0.1 0.3 0 0.5 0 0.3 0 0.5l1.9 7.2q0 0.1 0.1 0.3 0.1 0.1 0.3 0.2 0.1 0 0.3 0.1 0.1 0 0.3-0.1 1.9-0.7 2.9 0.5 0.1 0.1 0.2 0.2 0.2 0 0.3 0 0.1 0 0.2-0.1 0.1-0.1 0.2-0.2 1.5-3.3 2.6-6.1 0.7-1.9 3.3-1.8 0.3 0 0.5-0.1 0.2-0.1 0.4-0.2 0.1-0.2 0.1-0.5 0.1-0.2 0-0.4-1.6-4.6-5.1-2.1-1.9 1.4-2.2-0.1-0.2-0.6 0.1-1.7 1.1-3.5 1.8-7.1 0.7-3.2-0.8-5.1-0.1-0.1-0.2-0.2-0.1 0-0.2-0.1-0.1 0-0.2 0-0.1 0-0.2 0l-5 2q-1.8 0.7-1.2-1l1.6-5.2q0-0.1 0.1-0.2 0-0.1 0-0.2 0-0.2 0-0.3-0.1-0.1-0.1-0.2-0.4-1.1-1.2-1.8-1.3-1.2-1.8-1.9-2.6-3.1-5.7 0.6-1.8 2-2.9 4.4-0.1 0.3-0.2 0.5-0.1 0.3-0.1 0.6 0.1 0.2 0.1 0.5 0.1 0.2 0.3 0.5 1.5 2.6 1.5 5.6 0 0.1-0.1 0.2 0 0.1-0.1 0.2 0 0.1-0.1 0.1-0.1 0.1-0.2 0.1-1.4 0.1-3.9 0.1-3.1 0-2.6 2.3 0.2 1.1 1.4 2.5 2.6 3.1 5.4 6 3.6 3.7-0.8 3-1.8-0.3-2.3-0.2-2.2 0.6-2.1 4.5 0.1 2.4 2.5 1.7 0.6-0.1 2.7-0.8 4.3-1.4 6.8 2.1 0.4 0.5 0.3-0.1l-1-6.4q-0.1-0.5-0.5-1.1l-6.4-9q-0.3-0.5 0.1-0.2l5.6 4.1q0.5 0.4 0.4-0.2-0.9-7-2.2-14 0-0.2 0.1-0.4 0.2-0.5 0.5 0.6 1.3 6 2.9 11.9 0.4 1.3 1.3 0.2l3.8-4.3q0.4-0.6 0.2 0.1z"/>
		<path id="Layer" class="s6" d="m201.1 138.6l-1.8 12.7q-0.2 1.3 0.8 0.5l4.3-3.6q1.4-1.1 0.5 0.3-2.3 3.7-5 7.3-1.4 1.9-1.8 4-0.4 2.4-0.6 4.9 0 0.6 0.3 0.1 3.8-4.8 9.3-1.5 2 1.3 2.7-1 0.9-2.8-0.8-4.6 0-0.1-0.1-0.2-0.1-0.1-0.2-0.1-0.2-0.1-0.3-0.1-0.1 0-0.2 0h-4.7q-1.2 0-0.5-1 1.7-2.6 4.1-4.9 2.8-2.8 3.3-3.4 4.1-5.4-4.9-4.5-0.3 0-0.6-0.1-0.3-0.1-0.4-0.3-0.2-0.3-0.3-0.5 0-0.3 0.1-0.6l1.8-5.5q0-0.2 0-0.3 0.1-0.1 0.1-0.2 0-0.2-0.1-0.3 0-0.1 0-0.2-1-2.9-3.1-5.1-1.4-1.5-2.9-1.5-2-0.1-3.2 1.9-0.2 0.4-0.6 0.7-2.8 2-1.4 5.1 0.2 0.5 0.4 1.1 1.5 4.6-0.3 3.4-1.2-0.8-2.6-1.4-4.3-1.5-4.3 1.8 0 5.1 2 9.9 0.4 0.9 0.3 1.4-0.2 1.3-1.5 1-0.4-0.1-1.7-0.9-2.9-1.8-4.3 2.4-0.1 0.2 0 0.4 0 0.3 0.2 0.5 0.1 0.1 0.4 0.2 0.2 0.1 0.4 0.1 1.2-0.2 2.2 0.4 0.8 0.4 1.2 1.7 1.1 2.8 2.3 5.5 0 0.1 0.1 0.2 0.1 0 0.2 0.1 0.1 0 0.2 0 0.1 0 0.2 0 2-0.8 3.5-0.3 0.1 0 0.2 0 0.1 0 0.2-0.1 0.1 0 0.1-0.1 0.1 0 0.1-0.1l1.9-8q0.1-0.2 0.1-0.4 0-0.3 0-0.5-0.1-0.3-0.1-0.5-0.1-0.3-0.2-0.5-1.8-3.9-3.5-8.2-0.1-0.2-0.1-0.4 0.1-0.6 0.6 0.1 1.5 2.3 3.8 4.7 1 0.9 1.3-0.4l2.8-11.1q0.2-0.9 0.1 0z"/>
		<path id="Layer" class="s4" d="m107.2 142.1q-1.1 2.2-1.9 4.1-1.6 3.5-1.7 4-0.4 2 0.6 4.4 1.5 3.4 3 5.5 0.1 0.1 0.1 0.1 0.1 0.1 0.2 0.1 0.1 0 0.2-0.1 0.1 0 0.1-0.1 2.3-2.7 3.3-6 0.9-2.7-0.2-5.7-1.2-3.4-3.2-6.3 0-0.1-0.1-0.1-0.1-0.1-0.1-0.1-0.1 0-0.2 0.1 0 0-0.1 0.1z"/>
		<path id="Layer" class="s4" d="m105.7 171.7q0.1 0.1 0.2 0.1 0.1-0.1 0.2-0.1 0.1 0 0.1-0.1 0.1-0.1 0.1-0.2 1.4-12.1-7.7-14.9-0.1-0.1-0.2-0.1-0.1 0.1-0.2 0.1-0.1 0.1-0.1 0.2 0 0 0 0.1 0.1 7.1 1.7 10.1 1.6 3.1 5.9 4.8z"/>
		<path id="Layer" class="s4" d="m109.2 162.9q-1.4 4.2-0.6 8.8 0.1 0.1 0.1 0.2 0.1 0.1 0.2 0.1 0 0.1 0.1 0.1 0.1 0 0.2 0 5.6-2.2 6.8-7.4 0.4-1.6 0.9-7.9 0-0.1 0-0.2-0.1 0-0.1-0.1-0.1 0-0.2 0-0.1-0.1-0.1 0-2.4 0.7-4.3 2.2-2.2 1.6-3 4.2z"/>
		<path id="Layer" class="s6" d="m51.3 187.4q0-3.2-0.2-6.5-0.1-1.7-0.8-2.7-1.5-2.2-3.5 0.8-0.8 1.1-1.7 0.6-0.1-0.1-0.1-0.2-0.1 0-0.1-0.2-0.1-0.1-0.1-0.2 0-0.1 0-0.3 0.5-4.1 0.7-8.3 0-0.1 0.2-1.2 0.3-2.4-2.2-2.9-0.1 0-0.2 0-0.1 0-0.3 0-0.1 0.1-0.2 0.1-0.1 0.1-0.2 0.2l-2.5 2.1q-1.4 1.3-0.9-0.6 0.2-1.1 0.3-2.4 0-0.1 0.3-2.4 0.2-1.3-0.5-2.3-0.5-0.7-1.9-1.1-2.1-0.8-4.3-1.6-0.2-0.1-0.4-0.1-0.2 0-0.5 0.1-0.2 0.1-0.3 0.2-0.2 0.2-0.3 0.4-1.5 3-2.6 5.9-0.6 1.8 0.1 3 0.6 1.3 2.1 2.4 1.3 1-0.3 1.6-1.8 0.6-2 3.9-0.1 2.1 1 0.3 1.4-2.1 3-2.5 1.7-0.4 2.8 1.5 1.2 2 1.9 5.2 0.2 1.1-0.3 1.1-0.1 0-0.2 0-0.1-0.1-0.2-0.1 0-0.1-0.1-0.3-0.1-0.1-0.1-0.2-0.7-3.5-1.5-4.6-1.4-2-3-0.6-1.2 1-1.7 2.4-0.8 1.9-1.7 1.4-0.5-0.3-0.7-1.3-1-5-1.6-9.9-0.3-2.3-2.2-2.5-0.1 0-0.2 0-0.1 0-0.2 0.1-0.1 0-0.2 0.1-0.1 0.1-0.2 0.2-1.9 2.9-3.3 6.1-0.5 1.1-0.7 0.1-0.7-3-1-5.7-0.3-2.3-2.6-2.3-2.3 0.1-4.4 0.3-3.5 0.3-3.8 3.8-0.1 1.3-0.2 2.6 0 0.1-0.3 2.6-0.3 2.8 2.6 4.1 2 0.8 4.6 2.6 0.1 0.1 0.2 0.3 0.1 0.1 0.1 0.3 0 0.2-0.1 0.3-0.1 0.2-0.2 0.3l-4.7 3.1q-0.1 0.1-0.2 0.2-0.1 0.1-0.1 0.2-0.1 0.1-0.2 0.2 0 0.1-0.1 0.2-0.8 2.6 1.1 3.8 0.9 0.5 3.3 0.6 2.4 0 4.6 0.8 1 0.4 1.5 0.9 1 1.3-1.4 2-3.8 1.2-5.5 4.2 0 0.1-0.1 0.2 0 0.1 0 0.2 0 0.1 0 0.2 0 0.2 0.1 0.3 2.4 7 9.9 4.3 3.5-1.3 2.9 2.4-0.3 1.5-0.9 3.9-0.4 1.7 0.1 2.7 1 1.8 2.9 1.3 1.1-0.2 2.9-1.8 1.6-1.4 3.2-2.7 0.9-0.8 1.7-0.7 1.5 0.1 0.9 2.3-1.2 4-0.9 7.3 0.2 2.4 1.7 3.6 2.2 1.8 4.8-1.2 1.8-2.2 4-3.8 0-0.1 0.1-0.1 0.1-0.1 0.2 0 0.1 0 0.2 0 0.1 0.1 0.1 0.2 2.6 4.3 5.3 8.6 1.4 2.3 3.5 1.8 0.2 0 0.3-0.2 0.2-0.1 0.3-0.3 0.1-0.1 0.1-0.3 0-0.2 0-0.4-2.2-7.9-6.1-13.5-1.2-1.7 0.2-3.3 5.6-6.9 6.3-15.8 0.4-5.6-4.6-4.9-0.1 0-0.2-0.1-0.1 0-0.1 0-0.1-0.1-0.1-0.2-0.1-0.1-0.1-0.2z"/>
		<path id="Layer" class="s6" d="m191.5 204.6q0.1-2.9 2.8-1.9 7.5 2.7 10.2-3.9 0.8-2.1-2.3-3.7l-4.3-2.3q-1.6-0.9 0.1-1.8 2.8-1.6 6.5-1.2 1.8 0.2 3-1.3 2.2-2.6-1-4.6-1.8-1.1-3.6-2.4-0.2-0.1-0.3-0.3-0.1-0.2-0.1-0.5 0-0.2 0.1-0.4 0.1-0.2 0.3-0.3 1.8-1 3.5-2.1 0.2-0.1 1.6-0.8 1.9-1 1.9-3.2-0.1-1.7-0.1-1.8 0.1-3-0.7-5.5-0.1-0.2-0.3-0.4-0.1-0.2-0.3-0.4-0.2-0.2-0.4-0.3-0.2-0.2-0.5-0.2-4.1-1.3-7.5-0.8-0.2 0-0.3 0-0.1 0.1-0.2 0.2-0.1 0-0.1 0.1-0.1 0.1-0.2 0.2-1.4 3.2-1.5 6.7 0 0.2-0.1 0.3 0 0.2 0 0.3-0.1 0.1-0.1 0.2-0.1 0.1-0.2 0.1-0.5 0.4-0.9-0.6-1.1-3-2.7-5.8-0.1-0.3-0.4-0.5-0.2-0.1-0.5-0.2-0.3 0-0.6 0-0.3 0.1-0.5 0.3-1.2 1-1.5 2.9-0.5 3.8-0.9 7.6-0.2 1.1-0.5 1.9-1.2 3-2.7-0.9-0.9-2.5-3.2-2.1-0.1 0-0.2 0.1-0.1 0-0.2 0.1-0.1 0-0.2 0.1-0.1 0.1-0.1 0.2-1.5 2.3-2 5-0.1 0.4-0.2 0.5-0.5 0.4-0.7-0.1-0.2-0.3-0.1-0.7 0.7-3.8 2-5.6 2.1-3.3 4.7-0.3 0.7 0.8 1.1 1.6 0.6 1.3 0.9-0.1 0.6-2.9-1.9-4.2-0.3-0.2-0.4-0.4-0.2-0.3-0.2-0.5 0-0.3 0.2-0.5 0.1-0.3 0.3-0.4 3.4-2.1 2-5.5-1.1-2.8-2.4-5.6-0.2-0.2-0.3-0.4-0.2-0.1-0.4-0.2-0.3-0.1-0.5-0.1-0.2 0-0.5 0.1l-5 1.9q-1.9 0.7-1.7 2.9l0.5 4.9q0.4 3-1.4 0.4-2.5-3.7-4.3-1.1-0.8 1.1-0.6 3.1 0.4 4 0.8 8 0.1 0.8-0.3 1.1-0.5 0.6-1.5-0.7-2-3-3.5-0.8-0.6 0.9-0.8 2.6-0.3 3.4-0.3 6.7 0 0.2-0.1 0.4-0.1 0.2-0.3 0.3-0.1 0.1-0.4 0.1-0.2 0.1-0.3 0-1.9-0.9-3.2 1.2-1 1.6-0.8 3.5 0.8 8.7 5.9 15.1 1.8 2.5 0.3 4.5-0.6 0.9-0.6 0.9-3.6 5.6-5.4 12.5-0.1 0-0.1 0.1 0.1 0.1 0.1 0.2 0.1 0.1 0.1 0.1 0.1 0.1 0.2 0.1 3.6 0.8 5.1-2.5 1.9-3.9 4.2-7.7 0-0.1 0.1-0.1 0.1-0.1 0.3-0.1 0.1-0.1 0.2 0 0.1 0 0.2 0.1 2.7 2.4 4.8 4.4 2 2 3.7 0.9 1.2-0.7 1.6-2.7 0.7-3.9-0.6-8.7-0.7-2.3 1-2.1 0.7 0.1 1.6 0.8 2.6 2.3 5.5 4.3 0.1 0.1 0.2 0.1 0.1 0.1 0.2 0.1 0.2 0.1 0.3 0.1 0.1 0 0.2 0 3.7-0.3 2.5-4.1-0.8-3-0.8-4.5z"/>
		<path id="Layer" class="s4" d="m99.1 170.8q-0.3-0.3-0.7-0.3 0 0.1-0.1 0.1-0.1 0.1-0.2 0.2 0 0.1 0 0.2-0.1 0.1 0 0.2 0.2 2.3 0.5 4.5 0.2 3.1 0.8 4.5 1.8 4.4 6.6 6.1 0 0 0.1 0 0.1 0 0.2-0.1 0.1 0 0.1-0.1 0.1-0.1 0.1-0.2 0.2-6.3-0.2-7.9-1.5-5-6.5-6.7-0.3-0.1-0.7-0.5z"/>
		<path id="Layer" class="s4" d="m109.2 177q-1.4 4.3-0.6 9 0.1 0.1 0.1 0.2 0.1 0.1 0.2 0.1 0 0 0.1 0.1 0.1 0 0.2-0.1 6.1-2.4 7-8.6 0.2-1.1 0.7-6.6 0-0.1 0-0.2-0.1-0.1-0.1-0.1-0.1-0.1-0.2-0.1-0.1 0-0.1 0-2.4 0.9-4.4 2.4-2 1.5-2.9 3.9z"/>
		<path id="Layer" class="s2" d="m47.2 174.4q-0.1 2.2 0.7 0.6 0.1-0.3 0.1-0.6 0.1-1-0.4-0.8-0.1 0.1-0.2 0.2-0.1 0-0.1 0.1-0.1 0.1-0.1 0.3 0 0.1 0 0.2z"/>
		<path id="Layer" class="s4" d="m102.2 198.3q5.2 3.2 4.5-1.8-0.1-0.3-0.4-3.6-0.5-4.5-5-6.5-1.4-0.6-2.4-1.4-0.8-0.7-0.7 0.4 0.2 4 0.8 7.6 0.7 3.8 3.2 5.3z"/>
		<path id="Layer" class="s4" d="m109.9 189.4q-2.4 3.8-1.2 9.5 0 0.2 0.1 0.2 0 0.1 0.1 0.2 0.1 0.1 0.2 0.1 0.1 0 0.2 0 5.2-0.4 6.4-5.4 0.9-3.3 1.2-8.7 0-0.1 0-0.2-0.1 0-0.1-0.1-0.1 0-0.2 0 0-0.1-0.1 0-4.7 1.5-6.6 4.4z"/>
		<path id="Layer" class="s4" d="m59.4 225.1q9.1 7.8 19 13.2 14.1 7.7 29.7 13.8 0.1 0 0.2 0 0.2 0.1 0.3 0.1 0.1 0 0.2-0.1 0.1 0 0.3 0 11.3-4.7 22.3-10 13.7-6.5 26-16.7 0.5-0.5 0.8-1.2l6.4-12.1q0.1-0.1 0.1-0.2 0-0.2 0-0.3 0-0.2 0-0.3-0.1-0.1-0.2-0.2-3.5-5.1-4.8-10.5-0.3-1.2-0.9-0.1-16.2 28.9-47.5 30.8-10.5 0.6-19.9-1.9-21.7-5.9-33.8-26.6-0.4-0.7-0.8 0.1l-4.3 8.4q0 0.1-0.1 0.2 0 0.2 0 0.3 0 0.1 0 0.2 0.1 0.1 0.1 0.2l6.2 11.9q0.3 0.7 0.7 1z"/>
		<path id="Layer" class="s5" d="m103.8 28.3q9.1-0.1 6.6-9.3-1-3.5-4.6-3.5-3.2 0-6.1 0-0.2 0-0.4 0.1-0.2 0-0.3 0.2-0.1 0.1-0.2 0.3-0.1 0.2-0.1 0.4l0.6 19.2q0 0.1 0 0.2 0.1 0.1 0.1 0.2 0.1 0.1 0.2 0.2 0.1 0 0.2 0.1 1.5 0.4 2.9-0.1 0.1 0 0.2 0 0.1-0.1 0.2-0.2 0-0.1 0-0.2 0.1-0.1 0.1-0.2l0.1-6.9q0-0.1 0-0.2 0.1-0.1 0.1-0.1 0.1-0.1 0.2-0.1 0.1-0.1 0.2-0.1z"/>
		<path id="Layer" class="s5" d="m124.1 29.3l-0.3 6.4q-0.1 0.3 0.1 0.6 0.1 0.2 0.3 0.4 0.3 0.3 0.6 0.4 0.3 0.1 0.7 0.1l1.6 0.2q0.1 0 0.2 0 0.1-0.1 0.1-0.2 0.1 0 0.1-0.2 0.1-0.1 0.1-0.2l1.3-19.5q0-0.1 0-0.2 0-0.1-0.1-0.2-0.1-0.1-0.2-0.1-0.1-0.1-0.2-0.1l-2.8-0.2q-0.1 0-0.2 0.1-0.1 0-0.2 0.1-0.1 0.1-0.1 0.2-0.1 0.1-0.1 0.2-0.3 3.4-0.6 6.9-0.3 3-3.6 2.5-2.4-0.4-2.3-2.7l0.3-7q0-0.1 0-0.2 0-0.1-0.1-0.2-0.1-0.1-0.2-0.2 0 0-0.1 0l-3.1-0.5q-0.1 0-0.2 0.1-0.1 0-0.2 0.1 0 0.1-0.1 0.2 0 0.1 0 0.2-0.3 2.5-0.4 5-0.2 3 0.6 4.8 2.4 5.1 8.7 2.9 0.1 0 0.2 0 0.1 0 0.1 0 0.1 0.1 0.1 0.2 0 0 0 0.1z"/>
		<path id="Layer" class="s5" d="m81.3 21.3l2 16.3q0 0.1 0 0.1 0.1 0.1 0.1 0.2 0.1 0 0.2 0.1 0.1 0 0.2 0 1.9-0.1 3.8-0.4 3.5-0.5 3.9-0.6 4.1-1 4.2-5.6 0.1-9.2-9.1-7.3-0.2 0-0.3 0-0.1 0-0.1-0.1-0.1 0-0.2-0.1 0-0.1-0.1-0.2l-0.9-6.1q0-0.1-0.1-0.2 0-0.1-0.1-0.2-0.1-0.1-0.2-0.1-0.1 0-0.2 0l-5.2 0.6q-0.1 0-0.2 0-0.1 0.1-0.2 0.1-0.1 0.1-0.1 0.2-0.1 0.1-0.1 0.2-1 3.2 2.1 2.7 0.1 0 0.2 0 0.1 0 0.2 0.1 0 0 0.1 0.1 0 0.1 0.1 0.2z"/>
		<path id="Layer" class="s5" d="m136.9 33.2q1.2-6.9 2-13.9 0.1-0.3 0.3-1 0.3-1-1-0.9-0.1 0-0.9-0.1l-1.6-0.2q-0.1 0-0.2 0.1-0.1 0-0.2 0.1-0.1 0-0.1 0.2-0.1 0.1-0.1 0.2l-2.7 19.5q0 0.1 0 0.2 0 0 0.1 0.1 0 0.1 0.1 0.2 0.1 0 0.2 0l4.7 0.7q0.1 0 0.2 0 0.2 0 0.3-0.1 0.1 0 0.2-0.1 0.1-0.1 0.1-0.2l7-13.3q1.1-2.2 0.7 0.3-1.1 5.6-1.7 11.5 0 0.1-0.3 1.5-0.3 1.8 1.8 1.6 0.3-0.1 0.9 0.1 0.4 0.1 0.8 0 0.1-0.1 0.2-0.1 0.1-0.1 0.1-0.2 0.1-0.1 0.1-0.2 0.1-0.1 0.1-0.2l2.6-19.2q0-0.1 0-0.2 0-0.1-0.1-0.2 0-0.1-0.1-0.1-0.1-0.1-0.2-0.1l-5.1-0.6q-0.1-0.1-0.2 0-0.1 0-0.2 0.1-0.1 0-0.2 0.1-0.1 0.1-0.2 0.2l-7.2 14.2q-0.3 0.5-0.2 0z"/>
		<path id="Layer" class="s5" d="m70.1 22.5l4.3-1q0.2 0 0.3 0 0.1-0.1 0.1-0.2 0.1-0.1 0.1-0.2 0.1-0.1 0.1-0.2 0.1-1.1-0.4-2.1 0-0.1-0.1-0.2 0-0.1-0.1-0.2-0.1 0-0.2 0-0.1 0-0.3 0l-8.6 1.6q-0.1 0-0.2 0.1 0 0-0.1 0.1 0 0-0.1 0.1 0 0.1 0.1 0.2l3.7 19.4q0 0.2 0.1 0.3 0.1 0 0.1 0.1 0.1 0.1 0.2 0.1 0.1 0 0.2 0l2.9-0.7q0.1-0.1 0.2-0.1 0.1-0.1 0.1-0.2 0.1-0.1 0.1-0.2 0-0.1 0-0.3l-3-15.8q0-0.1 0.1-0.2 0-0.1 0-0.2 0.1-0.1 0.2-0.2 0.1 0 0.2 0z"/>
		<path id="Layer" class="s5" d="m165.1 35l-1.7 7.7q0 0.1 0 0.2 0 0.1 0.1 0.2 0 0.1 0.1 0.2 0.1 0.1 0.2 0.1 1.3 0.7 2.9 0.8 0.1 0 0.2 0 0.1-0.1 0.2-0.1 0.1-0.1 0.1-0.2 0.1-0.1 0.1-0.2l4.6-18.7q0-0.1 0-0.2 0-0.1 0-0.3-0.1-0.1-0.2-0.1 0-0.1-0.1-0.2-1.3-0.8-2.9-0.8-0.1 0-0.2 0-0.1 0.1-0.2 0.2-0.1 0-0.1 0.1-0.1 0.1-0.1 0.2l-1.9 6.9q0 0.1-0.1 0.2-0.1 0.1-0.1 0.1-0.1 0.1-0.2 0.1-0.1 0-0.2 0l-5.2-1.4q-0.1 0-0.2-0.1-0.1 0-0.1-0.1-0.1-0.1-0.1-0.2 0-0.1 0-0.2l1.6-7q0-0.1 0-0.2 0-0.1-0.1-0.2 0-0.1-0.1-0.2-0.1 0-0.2-0.1-1.4-0.6-2.8-0.6-0.1 0-0.2 0-0.1 0.1-0.2 0.1 0 0.1-0.1 0.2-0.1 0.1-0.1 0.2l-4.7 19q0 0.1 0 0.2 0 0.1 0 0.2 0.1 0.1 0.2 0.1 0.1 0.1 0.2 0.1l2.7 0.6q0.1 0 0.2 0 0.1 0 0.2-0.1 0.1 0 0.2-0.1 0-0.1 0-0.2l2-7.5q0-0.2 0.1-0.3 0.1-0.1 0.2-0.1 0.1-0.1 0.2-0.1 0.1-0.1 0.2 0l5.2 1.2q0.1 0 0.2 0.1 0.1 0.1 0.1 0.1 0.1 0.1 0.1 0.2 0 0.1 0 0.2z"/>
		<path id="Layer" class="s5" d="m57.1 34.8q0-0.1 0.1-0.1 0.1 0 0.2 0 0.1 0 0.2 0.1 0.1 0 0.1 0.1 2.1 4.5-1.6 6.3-1.8 0.9-2.6-1-0.6-1.5-2.1-0.9-0.7 0.3-1.5 0.5-1.6 0.4-0.4 2 2.2 2.9 5.5 2.7 5.8-0.3 7.1-4.5 0.7-2.3-0.5-7.3-1.4-5.3-2.8-10.7 0-0.1-0.1-0.2 0-0.1-0.1-0.1-0.1-0.1-0.2-0.1-0.1 0-0.2 0l-2.8 0.8q-0.1 0-0.2 0.1-0.1 0.1-0.1 0.2-0.1 0.1-0.1 0.3 0 0.1 0 0.3l1.6 7.2q0.1 0.4 0.1 0.7-0.1 0.3-0.2 0.6-0.2 0.3-0.4 0.6-0.2 0.2-0.5 0.4-3.5 1.7-4.9-1.8-1.1-3-1.7-6.4 0-0.1-0.1-0.2-0.1-0.1-0.1-0.1-0.1-0.1-0.2-0.1-0.1-0.1-0.2 0l-2.9 0.6q-0.1 0-0.2 0.1-0.1 0.1-0.1 0.2-0.1 0.1-0.1 0.2 0 0.1 0 0.3 0.3 3.4 1.7 6.6 1.4 3.2 3.9 4.2 3.4 1.3 6.4-1.6z"/>
		<path id="Layer" class="s5" d="m106.8 23.8q1.7-5.6-3.5-5.1-0.1 0.1-0.2 0.1-0.1 0.1-0.2 0.1 0 0.1-0.1 0.2 0 0.1 0 0.2l0.2 5.4q0 0.1 0.1 0.2 0 0.1 0.1 0.2 0 0.1 0.1 0.1 0.1 0.1 0.2 0.1 2.7 0.5 3.3-1.5z"/>
		<path id="Layer" class="s5" d="m91.4 31.4q0.6-4.7-4.5-4.1-0.1 0-0.2 0.1-0.1 0-0.1 0.1-0.1 0-0.1 0.1 0 0.1 0 0.2l0.5 5.9q0 0.1 0 0.2 0.1 0.1 0.2 0.2 0 0.1 0.1 0.1 0.1 0.1 0.3 0.1 1.4 0.2 2.4-0.5 1.1-0.7 1.4-2.4z"/>
		<path id="Layer" class="s4" d="m82 77.5q-1.8 1.7 0.3 1.3 0.4 0 0.9 0 1.7 0.1 1.2-1.4 0 0 0-0.1 0-0.1 0.1-0.2 0 0 0.1-0.1 0 0 0.1 0 1.6-0.5-0.4-0.8"/>
		<path id="Layer" class="s7" d="m84.3 76.3q-0.2-1.4-1.1-0.8-0.5 0.3-0.9 0.4-1.6 0.4-0.3 1.6"/>
		<path id="Layer" class="s2" d="m84.3 76.3q-0.7 1.3-2.3 1.2"/>
		<path id="Layer" class="s6" d="m39.7 182.8l-2.6 0.3q-0.1 0-0.2 0 0 0-0.1 0-0.1 0-0.1 0.1-0.1 0-0.1 0-0.1 0.3 0.2 0.4 1.8 0.7 3.5 1.4 1.3 0.5 2 1.5 2.9 3.9-3.1 2-0.5-0.2-0.7 0-0.1 0.1-0.1 0.1 0 0.1 0 0.2 0.1 0.1 0.2 0.2 0 0.1 0.1 0.2 2.5 1.3 4.8 2.7 2.4 1.5 3.6 4.1 1 2.4 2 4.7 0.2 0.5 0.4 0 1-2.4-0.4-5.8-3.1-6.9-6.4-13.8-0.1-0.2-0.2-0.4-0.1-0.3-0.1-0.5-0.1-0.2-0.1-0.5 0-0.2 0.1-0.5 0.4-4 1.3-6.8 0.1-0.2 0-0.4-0.1-1-0.5-0.1-1.1 2.1-1.9 4.1-0.6 1.3-1.2 0l-5.4-11.6q-0.2-0.5-0.1 0.1l5.5 17.7q0 0.1 0 0.2 0 0.1-0.1 0.2 0 0.1-0.1 0.1-0.1 0.1-0.2 0.1z"/>
		<path id="Layer" class="s6" d="m22.2 185.2l-8.6 0.4q0 0-0.1 0-0.1 0-0.1 0.1-0.1 0-0.1 0.1 0 0 0 0.1 0 0.2 0.4 0.2 4.6 0.8 9.3 1.8 2.1 0.4 3.4 1.8 1.7 2.1 3.5 5.2 0 0.1 0 0.2 0 0.1 0 0.2-0.1 0.2-0.2 0.2-0.1 0.1-0.2 0.2-5 1.3-8.6 2.2-0.2 0.1-0.3 0.2-1.8 1 0.4 0.5 0.3-0.1 0.5-0.1 5-0.5 10-0.7 0.1 0 0.3 0 0.1 0 0.2 0 0.1 0.1 0.2 0.1 0.1 0.1 0.2 0.2 1.9 1.5 0.4 3.3-0.9 1.2-1 1.3-1.3 1.9-2.6 3.9-0.6 0.9 0.5 0.1 2.9-2.1 5.9-4.2 0.1 0 0.2-0.1 0.1 0 0.2 0 0.1 0 0.2 0.1 0.1 0 0.2 0.1l11.5 11.1q0 0 0.1 0.1 0.1 0 0.2 0 0.1 0 0.2-0.1 0-0.1 0.1-0.1 1-2.2-0.7-3.9-2.4-2.7-4.8-5.3-0.2-0.3-0.4-0.5-0.1-0.2-0.2-0.5-0.1-0.3-0.1-0.6-0.1-0.2-0.1-0.5 0.7-14.4-1.8-2.7-0.1 0.2-0.2 0.3-0.1 0.1-0.2 0.1-0.1 0.1-0.3 0-0.1 0-0.2-0.1-1.8-1.5-2.9-2.9-1-1.3-1.4-3.8-0.7-5.2-1.7-10.5-0.4-2-0.4 0l-0.4 9q0 0.5-0.4 0.2-2.2-1.7-3.9-4-1.5-2-2.2-5.4-1-4.5-2-9.1-0.1-0.8-0.1 0 0 4.2 0.2 8.6 0.1 1.4-0.8 0.3-5.3-5.9-10.6-12.2-0.1-0.2-0.2-0.3-1.2-0.8-0.2 0.5 5.1 6.8 10.1 14 0.6 0.9-0.4 0.9z"/>
		<path id="Layer" class="s6" d="m175.8 175.9q-0.7-1.8-1.9-4-0.1-0.2-0.3-0.3-0.5-0.3-0.2 0.6 0.8 2.8 1.2 5.6 0.2 2.1-0.7 4.2-3.1 6.8-6.3 13.6-0.6 1.4-0.6 2.5 0.1 1.1 0.5 2.6 0.2 0.7 0.4 0 1.2-2.6 2.5-5 1.1-2.1 3.2-3.6 2.3-1.6 4.6-3 1.8-1.1-0.3-0.7l-3.4 0.8q-1 0.3-0.7-0.7 1.2-3.6 5.2-4.4 2.4-0.4 0.9-1-0.3-0.1-0.8-0.1-1-0.1-1.9-0.5-0.1-0.1-0.2-0.1 0-0.1-0.1-0.2 0-0.1 0-0.2 0-0.1 0-0.2l5.4-17q0.2-0.6-0.1-0.1l-5.3 11.2q-0.6 1.1-1.1 0z"/>
		<path id="Layer" class="s6" d="m184.3 192.1q0-4.5-0.5-9-0.2-2.1-0.5 0.2-0.8 6.3-1.9 12.5 0 0.2-0.1 0.3 0 0.1-0.1 0.2 0 0.1-0.1 0.2 0 0.1-0.1 0.2l-3.4 3.4q-0.4 0.5-0.5-0.1l-1.5-5.3q-0.1-0.1-0.1-0.2-0.1-0.1-0.1-0.2-0.1-0.1-0.2-0.2-0.1-0.1-0.1-0.1-0.6-0.1-0.5 1 0.1 4 0.1 8 0 0.1 0 0.2 0 0.2 0 0.3-0.1 0.1-0.1 0.2-0.1 0.1-0.2 0.2l-5.3 6q-0.2 0.3-0.4 0.6-0.1 0.3-0.2 0.6-0.2 0.3-0.2 0.6-0.1 0.4-0.1 0.7 0.1 2.3 1.7 0.7 5.1-5 10.6-10.5 0.1-0.1 0.2-0.1 0.2-0.1 0.3-0.1 0.2 0 0.3 0 0.1 0.1 0.2 0.1l6 4.4q1.6 1.2 0.4-0.4-1.3-1.8-2.4-3.5 0-0.1-1.4-1.7-1.4-1.8 0.7-3.3 0.1-0.1 0.2-0.1 0.1 0 0.3-0.1 0.1 0 0.2 0 0.1 0 0.2 0 4.9 0.2 9.7 0.7 0.3 0 0.7 0.1 0.8 0.4 0.8-0.1 0-0.1-0.1-0.2 0 0-0.1-0.1-0.1-0.1-0.2-0.2-0.2 0-0.3-0.1l-8.9-2.1q-0.1-0.1-0.3-0.2-0.1-0.1-0.2-0.3 0-0.1 0-0.3 0-0.2 0.1-0.3l4.3-5.7q0.1-0.1 0.2-0.2 0.1-0.1 0.2-0.2 0.1 0 0.2-0.1 0.1 0 0.2-0.1 4.5-1.1 11.2-2.1 0.7-0.2 0.5-0.5 0-0.1 0-0.1-0.1-0.1-0.2-0.1-0.1 0-0.2-0.1-0.1 0-0.2 0l-8.5-0.3q-0.7 0-0.3-0.6 4.3-6.3 8.8-12.5 0.2-0.2 0.5-0.5 0.3-0.2 0.3-0.4-0.1-0.7-0.7 0l-9.2 10.6q-1.3 1.6-1.3-0.5 0.1-3.2 0.3-6 0-0.3 0-0.6-0.4-2.1-0.8 0.5-0.6 3.9-1.4 7.8-0.6 2.8-2.2 4.9-1.8 2.3-3.9 4.4-0.4 0.4-0.4-0.2z"/>
	</g>
	<path id="Layer" fill-rule="evenodd" class="s8" d="m11.8 128.5q2.8-0.8 3.4-3.5l-6.5-71.8q0-0.1 0-0.3 0-0.1 0.1-0.3 0.1-0.1 0.2-0.2 0.2-0.1 0.3-0.2l21.4-8.8q0.1-0.1 0.2-0.1 0.1-0.1 0.2-0.2 0-0.1 0.1-0.2 0-0.1 0-0.2l0.1-27.6q0-0.1 0-0.3 0.1-0.1 0.1-0.1 0.1-0.1 0.2-0.2 0.1-0.1 0.2-0.1 76.5-26.9 153.2-0.1 0.1 0.1 0.2 0.1 0.1 0.1 0.2 0.2 0 0.1 0.1 0.2 0 0.1 0 0.2v27.5q0 0.2 0 0.3 0.1 0.1 0.1 0.2 0.1 0.1 0.2 0.1 0.1 0.1 0.2 0.1l21.8 9.1q0.1 0 0.2 0.1 0.1 0.1 0.1 0.2 0.1 0.1 0.1 0.2 0 0.1 0 0.2l-6.6 71.3q-0.1 0.1 0 0.2 0 0.1 0 0.2 0.1 0.1 0.1 0.2 0.1 0.1 0.2 0.2 4.6 4.1 7.6 9.5 0.1 0.1 0.1 0.2 0 0.1 0.1 0.2 0 0.1 0 0.3 0 0.1-0.1 0.2l-1.2 5.2q0 0.1 0 0.2 0 0.1 0.1 0.2 0 0.1 0.1 0.1 0.1 0.1 0.2 0.1 12.9 3.8 0.7 12.4-0.2 0-0.2 0.2-0.1 0.1-0.1 0.3 0 0.1 0 0.3 0.1 0.1 0.2 0.2 5.7 4.8 2.8 10.4 0 0.1 0 0.2-0.1 0.1-0.1 0.2 0.1 0.1 0.1 0.2 0 0.1 0.1 0.2 1.3 2 1.4 4.4 0.1 2.6-0.3 4.4-0.5 3.3-4.2 4.6-2.1 0.7-0.9 2.4l2.8 3.5q0.5 0.7 0.5 0.8 1.3 4-2.9 4.7-2.8 0.4-4.3 1.1-2.2 0.9 0 2 2.6 1.3 3.8 3 0.1 0.1 0.1 0.2 0.1 0.1 0.1 0.3 0 0.1 0.1 0.2 0 0.1-0.1 0.2-1 7.6-10.7 7.9-0.3 0-0.6 0.1-0.2 0.2-0.4 0.4-0.1 0.2-0.1 0.5-0.1 0.3 0 0.6 0.9 2.1 0.2 5.8-0.7 3-4.3 2.5-3.2-0.4-6.5-2.4-1.8-1-2.1 1.2l-1.1 8q-0.5 3.3-3.3 3-4.4-0.5-6.7-4.4-1.4-2.4-2.4 0.3-1.9 5.4-7.2 7.6-2.3 0.9-3.6 2-12 10.1-26.2 16.8-11 5.2-24.3 10.5-0.2 0.1-0.4 0.1-0.2 0-0.4 0-0.2 0-0.4 0-0.2-0.1-0.3-0.1-10.8-4.5-21.9-9.5-16.8-7.6-29.1-18.4-1.1-1-2.1-1.3-2-0.7-2.2-0.8-4.2-2.7-5.6-6.3-1.1-2.8-2.9-0.5-3.9 5.1-7.4 3.1-2.1-1.2-2.7-4.8-0.5-3.1-0.4-6.4 0-0.2-0.1-0.3-0.1-0.2-0.2-0.3-0.2-0.1-0.4-0.1-0.1 0-0.3 0.1l-7.3 2.9q-3.1 1.2-4.5-2.2-1.5-3.2-0.1-6 0.1-0.3 0.1-0.6 0-0.3-0.2-0.6-0.1-0.3-0.4-0.4-0.3-0.2-0.6-0.2-9.5-0.1-10.7-7.8-0.1-0.1 0-0.2 0-0.2 0-0.3 0-0.1 0.1-0.2 0-0.1 0.1-0.2l4.1-3.1q0.2-0.2 0.4-0.5 0.1-0.2 0.1-0.5 0-0.3-0.2-0.6-0.1-0.2-0.4-0.3-1.2-0.6-3.2-0.9-2.4-0.3-3.1-0.8-1.8-1.2-1.2-3.9 0-0.1 0.1-0.2 0-0.1 0.1-0.2 0.1-0.1 0.1-0.2 0.1-0.1 0.2-0.2 1.8-1.4 2.9-3.5 0.2-0.3 0.2-0.7 0.1-0.3 0-0.7-0.1-0.3-0.3-0.6-0.2-0.3-0.5-0.5l-3.5-2.3q-0.1-0.1-0.2-0.1-0.1-0.1-0.1-0.2-0.1-0.1-0.2-0.2 0-0.1-0.1-0.3-1.6-5.4 0.7-10.5 0.1-0.1 0.1-0.2 0-0.2 0-0.3 0-0.1 0-0.2 0-0.1-0.1-0.2-2.7-5.5 2.9-10.2 0.1-0.1 0.2-0.2 0-0.2 0-0.3 0-0.2-0.1-0.3 0-0.1-0.2-0.2-12-8.5 0.7-12.4 0.1 0 0.2-0.1 0.1 0 0.1-0.1 0.1-0.1 0.1-0.2 0-0.1 0-0.2l-1-4.1q-0.5-2 0.7-3.5zm113.7 34q14.3-4.8 25.2-14.6 0.9-0.8 0.8 0.4-1.3 11-2.5 22-1.1 9.4-4.3 17.2-3.5 8.7-9.5 14.6-11.2 11.3-28.7 11.1-17.6-0.3-28.2-12.2-10.1-11.4-12.2-28.3 0-0.1-0.1-0.2 0-0.1-0.1-0.1-0.1-0.1-0.2-0.1-0.1-0.1-0.2 0l-12.1 1.4q-0.2 0-0.3 0.1-0.1 0.1-0.2 0.2-0.1 0.1-0.2 0.3 0 0.2 0 0.3 0.7 3.8 1.6 7.6 0.3 1.7 1.7 3.8 1.8 2.8 2.3 6.2 0.4 2.9 1.1 4.4 6.3 13 17.7 20.9 8.2 5.7 18.2 8 12.7 2.9 25.4-0.3 22.4-5.6 33.5-26.4 6.3-11.8 8-26.3 5.7-48.8 11.1-97.6 0.1-0.2 0-0.3 0-0.1 0-0.2-0.1-0.1-0.2-0.1-0.1-0.1-0.2-0.2l-11.8-5.4q-0.1 0-0.3 0-0.1 0-0.2 0.1-0.1 0-0.2 0.1-0.1 0.2-0.1 0.3l-5 45q-0.1 1.3-0.6 2.7-5.4 17-19.5 26.1-6.4 4.1-10.4 5.8l2.1-5.9q0.1-0.1 0.1-0.2 0.1-0.1 0.2-0.1 0.1-0.1 0.2-0.2 0.1-0.1 0.2-0.2 10.5-5.4 17.2-15.1 5.1-7.3 5.9-14.6 2-17.7 4-35.8 0.1-0.3 0-0.6 0-0.3-0.1-0.6-0.1-0.3-0.3-0.5-0.2-0.3-0.4-0.5-6.9-6-13.2-11.7-2.2-1.9-4.8-3.2-3.4-1.5-6.1 0.8-2.2 1.8-4.7 4.4-0.1 0.1-0.2 0.2 0 0.2 0 0.3 0 0.2 0 0.3 0.1 0.1 0.2 0.2l21.5 21.1q0.4 0.4-0.1 0.5-7.8 2-12.8-4.3-5.5-6.8-24.6-28.9-3.8-4.3-6.6-5.4-4.2-1.5-9.1 0.4-2.8 1.1-5.1 2.9-13.6 10.3-27.9 21.7-0.2 0.1-0.3 0.3-0.1 0.2-0.2 0.4-0.1 0.2-0.2 0.5 0 0.2 0 0.4 1.5 13.7 3 27.4 1.3 11.3 3.4 16.7 5.8 14.6 20.6 22.4 0.1 0 0.2 0.1 0.2 0.1 0.2 0.2 0.1 0.1 0.2 0.2 0.1 0 0.1 0.1l2.4 5.8q-10.4-3.8-18.1-11.7-11.3-11.4-13-27.3-2.2-19.1-4.4-39.5 0-0.1-0.1-0.3 0-0.1-0.2-0.2-0.1 0-0.2-0.1-0.2 0-0.3 0.1l-11.6 4.8q-0.1 0-0.2 0.1-0.1 0.1-0.2 0.2 0 0.1-0.1 0.2 0 0.1 0 0.2 2 18.6 4.1 37 2.3 20.9 18.7 36.2 10.8 10.1 25 14.2l1.5 5.2q0.2 0.5-0.4 0.3-23.4-6.6-38-26-8.1-10.7-10.8-24.5-0.5-2.2-2.4-19.9-1.3-11.9-2.7-25.2 0-0.2 0-0.3 0.1-0.2 0.2-0.3 0.1-0.2 0.2-0.3 0.1-0.1 0.2-0.2l20.7-8.5q0.1 0 0.2 0 0.1 0 0.1 0 0.1 0.1 0.2 0.2 0 0 0 0.1l0.8 6.4q0.1 0.9 0.7 0.3 11.1-8.7 22.2-17.3 6.4-5 9.9-6.1 6.2-2 12.2 0.5 3.2 1.3 7.8 5.8 5 4.9 10 9.5 0.1 0.1 0.2 0.2 0.1 0 0.2 0 0.1 0 0.2 0 0.1 0 0.2-0.1 5.9-4 7.9-4.9 6.2-2.7 11.3 1.6 2.2 1.9 13.2 9 0.1 0.1 0.1 0.1 0.1 0 0.2-0.1 0.1 0 0.1-0.1 0.1 0 0.1-0.1l1-5.4q0-0.1 0-0.2 0.1 0 0.2-0.1 0 0 0.1 0 0.1 0 0.2 0l21.1 9.4q0.1 0.1 0.1 0.2 0.1 0 0.2 0.1 0 0.1 0.1 0.2 0 0.2 0 0.3l-11.6 102q0 0.1 0 0.2 0 0.1 0.1 0.2 0 0.1 0.1 0.2 0.1 0 0.2 0.1 3.1 1.6 2.2-0.9-0.7-2 0-5.9 0.3-1.5 1.2-2.3 1-0.8 2.5-1.1 1.7-0.4 1.7-2.2 0-5 5.2-5.3 0.1 0 0.2 0 0.1-0.1 0.2-0.2 0.1-0.1 0.2-0.2 0-0.1 0-0.2 0.2-3.3 1.6-6.4 0.1-0.1 0.1-0.2 0.1-0.1 0.2-0.1 0.1-0.1 0.2-0.2 0.1-0.1 0.2-0.1 1.5-0.5 3 0.3 1.8 1 0.8-0.7-1.7-3.2-1.6-6.7 0.1-2.7 1.3-4.3 1.8-2.2 5.1-1 1.9 0.7 0.8-1-1.1-1.6-0.6-3.2 1-2.8 3.4-5.2 0.1 0 0.2-0.1 0.1-0.1 0.1-0.2 0.1-0.2 0.1-0.3 0.1-0.1 0.1-0.2l6.5-70.2q0-0.1 0-0.2 0-0.2-0.1-0.3-0.1-0.1-0.2-0.2-0.1-0.1-0.2-0.1l-21.3-8.8q-0.2-0.1-0.2-0.1-0.1-0.1-0.2-0.2 0-0.1-0.1-0.2 0-0.1 0-0.2l-0.2-27.2q0-0.1 0-0.2-0.1-0.2-0.1-0.3-0.1-0.1-0.3-0.2-0.1-0.1-0.2-0.2-70.8-23.2-141.4 0.2-0.1 0-0.2 0.1-0.1 0-0.2 0.1 0 0.1-0.1 0.2 0 0.1 0 0.2l-0.2 27.2q0 0.2-0.1 0.3 0 0.1-0.1 0.2 0 0.1-0.1 0.1-0.1 0.1-0.2 0.2l-21.3 8.8q-0.1 0.1-0.2 0.2-0.1 0-0.2 0.1 0 0.1 0 0.2-0.1 0.1 0 0.2l6.4 70.2q0 0.1 0.1 0.3 0 0.1 0.1 0.2 0 0.1 0.1 0.2 0.1 0.1 0.2 0.1 1.9 1.6 3 3.8 1.6 2.9-0.3 5.4-0.5 0.7 0.3 0.5 5.2-1.3 6.7 2.4 0.8 1.9 0.2 4.9-0.5 2.5-1.5 4.9-0.4 1 0.5 0.4 4.3-2.3 5 2.5 0.4 2 0.7 4 0 0.2 0.1 0.3 0 0 0.1 0.1 0.1 0.1 0.2 0.1 0.1 0.1 0.2 0.1 5.3 0.5 5.3 6.3 0 0.2 0.1 0.4 0 0.1 0.2 0.3 0.1 0.1 0.3 0.2 0.1 0.1 0.3 0.1 4.2 0.6 4.5 4.6 0 0.2 0.1 0.2 0 0.1 0.1 0.2 0.1 0.1 0.2 0.1 0.1 0 0.2 0l21.2-2.4q0.1 0 0.2 0 0.1 0 0.2 0.1 0.1 0.1 0.2 0.1 0 0.1 0.1 0.2l0.6 4.2q0 0.1 0.1 0.2 0.1 0.1 0.1 0.2 0.1 0 0.3 0 0.1 0.1 0.2 0 3.4-1.2 6.5-0.8 0.5 0.1 0.1 0.5l-5.4 4.6q-0.1 0-0.2 0.1-0.1 0.1-0.2 0.2 0 0.1-0.1 0.3 0 0.1 0 0.2-0.1 2.1 0.9 4.1 0 0.1 0.1 0.1 0.1 0.1 0.1 0.1 0.1 0 0.2 0 0.1 0 0.2-0.1 4.9-4.4 9.6-9.1 1-0.9 1.9-1 1-0.2 2.3 0 0.1 0 0.1 0.1 0.1 0 0.2 0.1 0 0.1 0 0.3 0 0.1-0.1 0.1l-11.6 16.4q-0.1 0.1-0.1 0.2 0 0.1-0.1 0.2 0 0.2 0.1 0.3 0 0.1 0.1 0.2l2.7 4.7q0 0.1 0.1 0.2 0.1 0.1 0.3 0.1 0.1 0 0.2-0.1 0.1 0 0.2-0.1l10.3-15.2q0.6-1 0.9 0.2 0.4 1.6 0.9 3.1 1 3.2-0.4 5.9-0.8 1.5-0.9 1.5-2.3 5-5.1 10.8 0 0.1 0 0.3-0.1 0.1 0 0.3 0 0.1 0.1 0.3 0.1 0.1 0.2 0.2l4.7 3.3q0.1 0 0.2 0.1 0.1 0 0.2-0.1 0.1 0 0.2-0.1 0 0 0.1-0.1l2.4-6.7q0.5-1.5 1-0.1 1 2.7 3.1 4.9 0 0.1 0.1 0.2 0.1 0.1 0.1 0.2 0 0.1 0 0.3 0 0.1 0 0.2l-0.5 3.2q0 0.1 0 0.2 0 0.1 0.1 0.2 0 0.1 0.1 0.2 0.1 0 0.2 0.1 2 0.8 4.1 1 0.2 0 1.7 0.3 1.9 0.4 1.5-2-0.1-0.5 0.1-0.9 0.4-1.4-0.1-2.8 0-0.1-0.1-0.2 0-0.1-0.1-0.2-0.1-0.1-0.2-0.1-0.1-0.1-0.2-0.1-7.3-3.1-7.7-10.9-0.5-9.6-4.3-17.3-0.2-0.3-0.2-0.6-0.1-0.9 0.6-0.5 0.3 0.1 0.5 0.5 1.3 2.4 2.6 4.9 1 1.8 0.9-0.2-0.1-9.2-4.5-18.1-0.1-0.3-0.1-0.5-0.1-1.3 0.7-0.2 1.7 2.4 3 5 1 1.9 0.9-0.2 0-9.5-4.4-18.8-0.2-0.4-0.2-0.6-0.1-1.2 0.8-0.2 0.8 0.9 3 5.1 1.2 2.3 2.5 3.4 1.5 1.3 3.6 2.5 0.7 0.4 0.4-0.4-3.1-9.8-4.1-20.6-0.2-1.6 0.5-1 0.3 0.2 0.4 0.6 1.6 6 3.5 12 0.1 0.4 0.3 0 3.5-7.1 3.6-9.3 0.1-5.9 0.6-12.7 0-0.3 0-0.6-0.1-0.4-0.2-0.7-0.2-0.3-0.4-0.5-0.2-0.3-0.4-0.5-1.5-1.2-1.4-3.3 0.3-3.4-1-6.5-0.5-1.2-2.7-0.7-1.9 0.5-2.3 2.5-0.4 2.7-0.8 5.4-0.1 0.1-1 5.1-0.9 4.9-0.5 9.9 0 0.1 0.3 1.1 0.2 1.2-0.9 1.5-0.1 0-0.2 0.1-0.1 0-0.2 0.1-0.1 0.1-0.1 0.2 0 0.1-0.1 0.2-0.3 3.4-4.1 2.6-0.7-0.1-0.2-0.5 1.9-1.6 2.4-3.8 0.1-0.5 0.4-4.3 0.2-4.1-0.1-8.3-0.3-2.7-0.1-5.7 0.1-2.9-0.2-5.8-0.1-1.7-1.1-3.3-1-1.5-1.9-3.1-0.3-0.5-1.5-3.7-0.8-2.2-2.9-3.9-2.8-2.2-3.2-6 0-0.3-0.3-0.9l-2.1-3.9q0-0.1-0.1-0.2-0.1-0.1-0.2-0.1-0.1-0.1-0.2-0.1-0.1-0.1-0.2-0.1-4.1-0.3-5.2-0.7-1.9-0.7-2.2-2.6 0-0.1 0-0.2 0.1-0.1 0.1-0.2 0.1-0.1 0.1-0.2 0.1-0.1 0.2-0.2 3.5-2.6 5.6-6.5 0.1-0.1 0.1-0.2 0-0.1 0-0.2 0-0.1 0-0.2 0-0.2-0.1-0.3-0.9-2.3 0.1-4.6 0 0 0-0.1 0.1 0 0.2 0 0.1 0 0.1 0 0.1 0 0.2 0.1 2.9 3.5 3.1-0.7 0.1-0.6-0.1-2.4-0.3-2.5 0.3-5 0.1-0.1 0.1-0.2 0.1-0.1 0.2-0.2 0.1 0 0.2 0 0.1-0.1 0.2 0 0.4 0.2-0.1 0.8-0.1 2.5 0.9 1.4 0.3-0.3 0.5-0.9 0.7-2.5 2.6-4.2 0.1 0 0.2-0.1 0.1 0 0.2-0.1 0.1 0 0.1 0 0.1 0 0.2 0 0.7 0 0.1 0.7-2.5 2.6-1 5.9 0.4 0.9-0.4 0.3-2-1.4-2.3 0.8-0.4 2.8-0.3 5.8 0 1.9 0.8 0.2 1.1-2.2 2.9-4.3 1.2-1.5 0.8-5.2 0-0.3 0-0.5 0.5-1.2 0.6 0.5 0.1 1.1 0.7 1 0-0.1 0.1-0.1 0.1-0.1 0.2-0.2 0.1-0.1 0.2-0.2 0-0.1 0.1-0.2 1.2-3.2 4.3-4.6 0.5-0.2 0.1 0.2-1.3 1.4-2.5 2.9-0.9 1.2-0.3 2.5 0 0.1 0.1 0.3 0 0.1 0 0.2 0.1 0.2 0.1 0.3 0 0.1 0 0.1-0.2 0.8-1-0.2-0.1-0.1-0.3-0.1-0.1-0.1-0.2-0.1-0.1 0-0.2 0.1-0.1 0.1-0.2 0.2-1.6 3.4-3.5 6.9-0.1 0.2-0.1 0.4 0 1.1 0.6 0 1.2-2 4.2-4.3 0.1 0 0.1-0.1 0.1 0 0.2 0.1 0.1 0 0.2 0 0 0.1 0 0.2 1.4 4.7-0.4 7.6-0.1 0.1-0.1 0.2-0.1 0.1-0.1 0.2-0.1 0.1-0.1 0.3 0 0.1 0 0.2 0.1 1.3-0.9 3.1-0.1 0.2-0.2 0.3 0 0.2 0 0.4-0.1 0.2 0 0.4 0 0.2 0 0.3 1 2.9 4.2 5.6 0.2 0.2 0.4 0.3 0.3 0.1 0.5 0.2 0.3 0.1 0.6 0.1 0.3 0.1 0.5 0 2.5-0.3 4.9-0.1 2.9 0.3 4.4 0 2.1-0.4 4.3-1.1 12.9-4.1 19.5 6.1 1.5 2.3 1.6 4 0 2.3-1.6 4.3-2.7 3.3-3.6 7.3-0.2 1.1 0.3 2.9 0.4 1.5 0.4 3.1-0.1 2.1 1.7 3.4 0.2 0.2 0.4 0.3 0.1 0.2 0.2 0.5 0.1 0.2 0.1 0.4 0 0.2-0.1 0.5-0.4 2.2 0.7 4.4 0.1 0.2 0.1 0.4 0.1 0.2 0.1 0.4 0.1 0.2 0.1 0.4 0 0.2 0 0.4-0.8 6.9-0.1 13 0 0.1-0.1 0.2 0 0.1-0.1 0.2-0.1 0.1-0.2 0.2-0.1 0-0.3 0-1.1-0.2-1.4 0.8-0.7 2.3-3.3 1.7-1.5-0.3-0.1-1.1 1.6-0.9 2.2-2.9 0.8-3-0.3-11.5 0-0.2-0.1-0.4-0.4-0.4-0.6 0.2-1.1 4.4-0.6 9.7 0 0.1 0 0.2 0 0 0 0.1 0 0.1-0.1 0.1 0 0-0.1 0.1l-0.2 0.1q-0.1 0-0.2 0.1-0.1 0-0.1 0.1-0.1 0.1-0.1 0.1 0 0.1 0 0.2 0 2.6-3 2.2-0.1 0-0.2 0-0.1-0.1-0.1-0.2-0.1-0.1-0.1-0.3 0-0.1 0.1-0.2 1.2-1.7 1.3-3.6 0.1-2.8 0.1-3 0.9-6.1-0.2-12.2 0-0.1-0.1-0.2 0-0.1-0.1-0.2-0.1-0.1-0.1-0.2-0.1-0.1-0.2-0.1-4.4-3-8.1-6.8-0.9-0.8-1.8-1-1-0.2-2.1-0.1-0.1 0.1-0.2 0.1-0.1 0.1-0.2 0.2 0 0-0.1 0.1 0 0.1 0 0.2-0.3 2.9 0.3 5.7 0.9 3.6 1.1 5.4 0.7 5.8 3.3 11.1 0 0.1 0 0.2 0 0.1 0 0.2-0.1 0-0.1 0.1-0.1 0.1-0.2 0.1-0.7 0.4-0.5 1.4 0.6 3.5-2.9 3-0.1 0-0.2 0-0.1 0.1-0.2 0.2-0.1 0.1-0.1 0.2 0 0.1 0 0.2l3 7.4q0.4 1 0.6 0 1.7-6 3.6-11.9 0.5-1.5 0.9-0.1 0.1 0.3 0.1 0.6-1.6 10.3-4.6 20.7-0.3 0.9 0.4 0.4 1.7-1.2 3.2-2.3 1.4-1.1 2.4-2.9 1.6-2.9 3.3-5.9 0.1-0.3 0.3-0.4 0.5-0.4 0.7 0.2 0 0.3-0.1 0.6-4.5 9.3-4.5 19.7 0 0.5 0.3 0.1 1.6-2.2 2.8-4.6 0.1-0.4 0.3-0.6 1.5-1.9 0.8 0.7-0.1 0.4-0.3 0.8-4 8.2-3.8 17.4 0.1 0.5 0.3 0.1 2.5-3.8 3-4.9 0.3-0.7 0.8-0.8 0.1 0 0.1 0.1 0.1 0 0.2 0.1 0 0.1 0 0.2 0 0.1 0 0.2-1 2.9-2.2 5.7-1.2 3-1.5 5.9-0.4 2.9-0.8 5.9-0.4 3.9-1.5 5.8-2.1 3.8-6.3 5.6-0.1 0.1-0.3 0.1-0.1 0.1-0.1 0.2-0.1 0.1-0.1 0.2-0.1 0.1-0.1 0.2l0.4 4.7q0 0.1 0.1 0.2 0.1 0.1 0.1 0.1 0.1 0.1 0.2 0.1 0.2 0.1 0.3 0.1 3.6 0 6.5-1.3 0.1 0 0.2-0.1 0-0.1 0.1-0.2 0-0.1 0-0.2 0-0.1 0-0.2-1.3-3 1.2-5.7 0.5-0.5 1.9-3.6 0.3-0.4 0.4 0.1l2.3 6.8q0.1 0.1 0.2 0.2 0.1 0.1 0.2 0.2 0.1 0 0.3 0 0.1 0 0.2-0.1l4.8-3.1q0.1 0 0.2-0.1 0-0.1 0.1-0.2 0-0.1 0-0.2 0-0.2-0.1-0.3-2.1-5.1-4.6-10.1-1.9-3.8-2-5.7-0.3-3.2 1.5-6.2 0-0.1 0.1-0.1 0.1-0.1 0.1-0.1 0.1 0 0.2 0.1 0.1 0 0.1 0.1l10.6 15.6q0.1 0 0.1 0.1 0.1 0 0.2 0 0.1 0 0.2 0 0-0.1 0.1-0.1l2.9-4.9q0-0.1 0.1-0.2 0-0.1 0-0.2 0-0.2-0.1-0.3 0-0.1-0.1-0.2l-11.6-16.3q-0.1 0-0.1-0.1 0-0.1 0-0.2 0.1-0.1 0.2-0.2 0-0.1 0.2-0.1 1.9-0.2 3 0.2 0.5 0.2 2.2 1.8 4.4 4.2 8.6 8.4 0.4 0.4 0.6-0.1l0.9-4.1q0.1-0.2 0.1-0.4-0.1-0.2-0.1-0.3-0.1-0.2-0.2-0.4-0.2-0.2-0.3-0.3l-5.6-4.4q-0.4-0.3 0.1-0.4 2.8-0.5 6.1 0.6 0.2 0.1 0.3 0.1 0.2-0.1 0.4-0.2 0.1 0 0.2-0.2 0.1-0.1 0.1-0.3l1.5-12.5q0-0.7-0.5-0.3-9.5 6.4-20.5 9.2-0.5 0.1-0.4-0.4zm-11.8-68.6l-2.1 1.3q-0.1 0.1-0.2 0.2-0.1 0-0.2 0.1-0.1 0.1-0.2 0.2 0 0.1-0.1 0.2-3.6 7.1 1.2 12.3 2.4 2.6 2.5 2.8 1.5 1.7 3.1 2.8 4.6 3.4 7.6 7.1 0.3 0.4 0.6 0.9 1.7 2.7 1.1-1.3 0-0.4 0.1-0.9 0.5-1.7-0.8-2.6-10.5-7.1-1.6-16.5 1.9-2.1 0.8-5.4-0.2-0.4 0-0.1 1.4 2.2 1.7-0.3 0-0.7-0.1-1.3-0.8-3.7-4.1-5.2-6.1-2.7-13.2-0.6-5.7 1.7-10.3 1.3-0.5-0.1-0.9 0.1-2 0.8-3.9 0.3-1.7-0.4-3.3-2.4-2.4-2.8-2.9-5.5-0.6-3.1 1.3-5.8 1.8-2.7 1-5.8 0-0.1-0.1-0.1 0-0.1-0.1-0.1-0.1 0-0.2 0-0.1 0-0.1 0.1-1.5 1.5-1.8 3.1-0.3 1.9-1.7 1.9-0.5-0.1-1 0.1-1.1 0.4-2-0.4-0.1-0.1-0.2-0.1-0.1-0.1-0.2-0.1-0.1 0-0.2 0-0.1 0-0.2 0-1.2 0.3-2.1-0.9-1.9-2.5-1.7 0.6 0 0.1 0.2 1.2 0.2 1.1-0.6 1.8-0.4 0.4-0.6 0.8-0.8 2-2.4 3.2-1.2 0.9 0.2 1.3 1.8 0.6 1.3 1.8-0.1 0.1-0.1 0.2 0 0.1 0.1 0.2 0 0.1 0.1 0.1 0 0.1 0.1 0.1 2.7 0.6 5.4-0.2 1.5-0.4 1.4 0.1 0 0.1 0 0.2-0.1 0.1-0.2 0.1 0 0.1-0.2 0.2-0.1 0.1-0.2 0.1-3.1 1-1.3 3.5 0.9 1.4 1 1.5 1.3 2.2 2.3 4.5 2.4 5.3 5.9 1.1 0.3-0.3 0.1 0.1-2.1 5.3 0.6 10 1.5 2.6 1.6 2.7 2 4.5 1.1 9.6-0.5 2.6 0.2 5.2 0.5 1.5 0.8 0 0.9-4.6 1.5-9.3 0.2-1.9 1.9-4.1 1.7-2.1 1.8-3.3 0.1-2.1-1.8-3.8-1.4-1.2-1.7-3-0.2-1.3 0.6-0.3 2.9 3.5 4 7.8 0.1 0.1 0.1 0.2 0.1 0.1 0.2 0.2 0 0.1 0.1 0.1 0.1 0.1 0.2 0.1 3.1 1.1 6.3 0.7 0.1 0 0.2-0.1 0 0 0.1-0.1 0-0.1 0-0.1 0-0.1-0.1-0.2l-1.9-2.7q-0.1-0.1-0.1-0.2 0-0.1-0.1-0.2 0-0.1 0-0.2 0-0.1 0.1-0.3 0.9-3.3 1.7-6.6 0.5-2 1.4-2.9 1.3-1.2 3.2-1.4 0.5 0 0 0.3zm-38.6-9.7q0.4 0.5 1-0.1 0.1 0 0.2-0.1 0-0.1 0-0.2 0-0.1 0-0.2-0.1-0.1-0.1-0.2-0.5-0.6-1-0.1-0.1 0.1-0.1 0.2-0.1 0.1-0.1 0.2 0 0.1 0 0.3 0.1 0.1 0.1 0.2zm47.8 28.4q0.5 1 1 0.6 0.1-0.1 0.1-0.2 0.1-0.1 0.1-0.2 0-0.1 0-0.2 0-0.2-0.1-0.3-1.2-3.1 0.2-6.2 1.9-4 3-5.1 1.9-2.3 1.5-5.2 0-0.1 0-0.2-0.1-0.1-0.2-0.2-0.1 0-0.2 0 0-0.1-0.1 0-0.8 0.4-1.4 3.2-0.1 0.3-0.2 0.6-0.1 0.3-0.3 0.6-0.1 0.3-0.4 0.5-0.2 0.3-0.4 0.5-2.2 1.9-3.1 5.1-0.1 0.2-0.7 2-0.7 2 0.6 3.8 0.3 0.4 0.6 0.9zm-15.7-0.7q0.5-2.1-2.1-1.8-0.2 0-0.3 0.1-0.1 0-0.2 0.2-0.1 0.1-0.1 0.2 0 0.2 0.1 0.3 1.6 3.7 1.6 8.1 0 1.8 2.1 3.4 0.4 0.3 0.3-0.2l-1.5-9.4q-0.1-0.4 0.1-0.9zm2.1 24.6q1-3.9-0.5-7.8-0.7-1.6-0.6 0.1 0.3 3.6 0.3 7.4 0 0.3 0.1 0.5 0.4 1.2 0.7-0.2zm-85.1 9.3l-3.4 8.6q-0.1 0.3-0.2 0.5-0.1 0.2-0.1 0.5 0 0.2 0 0.5 0 0.2 0.1 0.4l1.8 7.2q0.1 0.2 0.2 0.3 0.1 0.1 0.2 0.2 0.2 0.1 0.4 0.1 0.1 0 0.3-0.1 1.9-0.7 2.9 0.5 0.1 0.2 0.2 0.2 0.1 0.1 0.3 0 0.1 0 0.2-0.1 0.1 0 0.2-0.2 1.4-3.3 2.5-6 0.8-2 3.4-1.8 0.3 0 0.5-0.1 0.2-0.1 0.3-0.3 0.2-0.2 0.2-0.4 0-0.3 0-0.5-1.7-4.6-5.2-2-1.8 1.3-2.2-0.2-0.1-0.6 0.2-1.6 1-3.6 1.8-7.2 0.6-3.2-0.8-5.1-0.1-0.1-0.2-0.1-0.1-0.1-0.2-0.1-0.1-0.1-0.2-0.1-0.1 0-0.2 0.1l-5.1 2q-1.7 0.7-1.2-1.1l1.7-5.1q0-0.1 0-0.3 0.1-0.1 0-0.2 0-0.1 0-0.3 0-0.1-0.1-0.2-0.4-1.1-1.2-1.8-1.2-1.2-1.8-1.8-2.6-3.1-5.6 0.5-1.8 2.1-3 4.5-0.1 0.2-0.1 0.5-0.1 0.2-0.1 0.5 0 0.3 0.1 0.5 0.1 0.3 0.2 0.5 1.6 2.6 1.5 5.6 0 0.2 0 0.3 0 0-0.1 0.1-0.1 0.1-0.2 0.1-0.1 0.1-0.2 0.1-1.3 0.1-3.8 0.1-3.1 0-2.6 2.4 0.2 1 1.3 2.4 2.7 3.1 5.5 6 3.6 3.7-0.9 3-1.7-0.3-2.2-0.1-2.2 0.5-2.1 4.4 0.1 2.4 2.4 1.8 0.7-0.2 2.7-0.9 4.4-1.3 6.9 2.1 0.3 0.5 0.2-0.1l-0.9-6.4q-0.1-0.5-0.5-1.1l-6.4-9q-0.4-0.5 0.1-0.1l5.6 4.1q0.5 0.3 0.4-0.3-0.9-7-2.2-14 0-0.2 0-0.4 0.3-0.5 0.5 0.7 1.4 5.9 3 11.8 0.3 1.3 1.3 0.2l3.8-4.3q0.4-0.5 0.1 0.1zm176.9-7.2l-1.8 12.8q-0.2 1.2 0.7 0.4l4.4-3.6q1.3-1.1 0.4 0.3-2.2 3.8-4.9 7.3-1.4 1.9-1.8 4-0.4 2.5-0.6 4.9-0.1 0.6 0.3 0.2 3.7-4.9 9.3-1.6 2 1.3 2.7-1 0.9-2.8-0.8-4.6-0.1-0.1-0.2-0.2-0.1 0-0.2-0.1-0.1 0-0.2-0.1-0.1 0-0.2 0h-4.7q-1.2 0-0.6-1 1.8-2.5 4.1-4.8 2.9-2.9 3.3-3.5 4.1-5.4-4.8-4.5-0.3 0-0.6-0.1-0.3-0.1-0.5-0.3-0.2-0.2-0.2-0.5-0.1-0.3 0-0.6l1.8-5.5q0.1-0.1 0.1-0.3 0-0.1 0-0.2 0-0.1 0-0.2 0-0.1 0-0.2-1-3-3.1-5.2-1.4-1.4-2.9-1.5-2-0.1-3.2 1.9-0.3 0.4-0.7 0.7-2.8 2-1.4 5.1 0.3 0.5 0.5 1.2 1.5 4.5-0.3 3.3-1.3-0.8-2.7-1.3-4.2-1.6-4.2 1.7 0 5.2 2 9.9 0.4 0.9 0.3 1.5-0.2 1.2-1.5 0.9-0.5-0.1-1.7-0.8-3-1.9-4.3 2.3-0.1 0.2 0 0.5 0 0.2 0.2 0.4 0.1 0.2 0.3 0.3 0.3 0 0.5 0 1.2-0.2 2.2 0.4 0.7 0.5 1.2 1.7 1.1 2.9 2.3 5.5 0 0.1 0.1 0.2 0 0.1 0.1 0.1 0.1 0 0.2 0 0.1 0 0.2 0 2.1-0.8 3.6-0.3 0.1 0 0.2 0 0.1 0 0.2 0 0-0.1 0.1-0.1 0.1-0.1 0.1-0.2l1.9-8q0-0.2 0.1-0.4 0-0.3-0.1-0.5 0-0.2-0.1-0.5 0-0.2-0.1-0.5-1.8-3.9-3.6-8.2 0-0.2 0-0.4 0.1-0.5 0.5 0.2 1.6 2.2 3.9 4.6 0.9 0.9 1.3-0.4l2.8-11.1q0.2-0.9 0.1 0zm-93.9 3.5q-1.1 2.2-2 4.1-1.5 3.5-1.6 4-0.5 2.1 0.6 4.4 1.4 3.4 3 5.5 0 0.1 0.1 0.1 0.1 0.1 0.2 0.1 0.1 0 0.2 0 0-0.1 0.1-0.1 2.3-2.8 3.3-6.1 0.8-2.7-0.2-5.6-1.2-3.5-3.2-6.4-0.1-0.1-0.1-0.1-0.1 0-0.2 0 0 0-0.1 0-0.1 0.1-0.1 0.1zm-1.5 29.7q0.1 0 0.2 0 0.1 0 0.1-0.1 0.1 0 0.2-0.1 0-0.1 0-0.2 1.5-12-7.7-14.9-0.1 0-0.2 0 0 0-0.1 0-0.1 0.1-0.1 0.2-0.1 0.1-0.1 0.1 0.2 7.1 1.8 10.2 1.6 3 5.9 4.8zm3.5-8.9q-1.4 4.3-0.6 8.9 0 0.1 0.1 0.2 0.1 0 0.1 0.1 0.1 0 0.2 0 0.1 0 0.2 0 5.5-2.2 6.8-7.3 0.4-1.6 0.9-8 0 0-0.1-0.1 0-0.1-0.1-0.2 0 0-0.1 0-0.1 0-0.2 0-2.3 0.8-4.3 2.2-2.1 1.6-2.9 4.2zm-57.9 24.6q0-3.3-0.2-6.6-0.1-1.7-0.8-2.6-1.5-2.3-3.6 0.7-0.8 1.2-1.6 0.6-0.1 0-0.2-0.1 0-0.1-0.1-0.2 0-0.1 0-0.3 0-0.1 0-0.2 0.4-4.2 0.7-8.4 0-0.1 0.1-1.1 0.3-2.5-2.1-3-0.1 0-0.3 0-0.1 0-0.2 0.1-0.1 0-0.2 0.1-0.1 0-0.2 0.1l-2.5 2.2q-1.4 1.2-1-0.6 0.3-1.1 0.4-2.5 0-0.1 0.3-2.3 0.2-1.4-0.5-2.3-0.6-0.7-1.9-1.2-2.2-0.8-4.3-1.6-0.2-0.1-0.5 0-0.2 0-0.4 0-0.2 0.1-0.4 0.3-0.1 0.1-0.2 0.3-1.6 3-2.6 5.9-0.6 1.8 0 3 0.7 1.4 2.1 2.4 1.4 1.1-0.2 1.6-1.8 0.6-2 3.9-0.2 2.1 1 0.3 1.4-2.1 3-2.5 1.7-0.4 2.8 1.5 1.2 2 1.8 5.2 0.3 1.2-0.2 1.2-0.1 0-0.2-0.1-0.1 0-0.2-0.1-0.1-0.1-0.1-0.2-0.1-0.1-0.1-0.3-0.7-3.4-1.5-4.6-1.4-2-3.1-0.6-1.1 1-1.7 2.4-0.7 1.9-1.6 1.4-0.5-0.3-0.7-1.3-1-4.9-1.7-9.9-0.2-2.2-2.1-2.5-0.1 0-0.2 0-0.2 0-0.3 0.1-0.1 0-0.1 0.1-0.1 0.1-0.2 0.2-2 2.9-3.3 6.1-0.5 1.2-0.7 0.1-0.8-3-1.1-5.7-0.2-2.3-2.5-2.2-2.3 0-4.5 0.2-3.4 0.4-3.8 3.8-0.1 1.3-0.1 2.7 0 0.1-0.3 2.5-0.4 2.9 2.5 4.1 2 0.9 4.6 2.7 0.2 0.1 0.3 0.2 0 0.2 0 0.3 0 0.2 0 0.4-0.1 0.1-0.3 0.2l-4.6 3.2q-0.1 0-0.2 0.1-0.1 0.1-0.2 0.2 0 0.1-0.1 0.2-0.1 0.1-0.1 0.2-0.9 2.6 1.1 3.8 0.8 0.5 3.3 0.6 2.3 0.1 4.5 0.8 1.1 0.4 1.6 1 0.9 1.3-1.4 2-3.8 1.1-5.5 4.1-0.1 0.1-0.1 0.2 0 0.1 0 0.2 0 0.2 0 0.3 0 0.1 0 0.2 2.4 7 10 4.3 3.5-1.3 2.9 2.4-0.3 1.6-0.9 4-0.4 1.6 0.1 2.7 0.9 1.8 2.8 1.3 1.2-0.3 3-1.9 1.5-1.4 3.1-2.7 1-0.8 1.8-0.7 1.5 0.1 0.8 2.4-1.2 3.9-0.8 7.2 0.2 2.4 1.6 3.6 2.2 1.8 4.8-1.2 1.8-2.1 4-3.8 0.1-0.1 0.2-0.1 0.1 0 0.2 0 0.1 0 0.2 0.1 0 0 0.1 0.1 2.6 4.3 5.2 8.6 1.4 2.3 3.5 1.8 0.2 0 0.4-0.1 0.2-0.2 0.3-0.3 0.1-0.2 0.1-0.4 0-0.2 0-0.4-2.2-7.9-6.1-13.5-1.2-1.7 0.1-3.3 5.7-6.9 6.3-15.8 0.5-5.6-4.5-4.9-0.1 0-0.2 0-0.1 0-0.2-0.1 0-0.1-0.1-0.2 0 0 0-0.1zm140.2 17.1q0.1-2.9 2.8-1.9 7.5 2.8 10.2-3.9 0.8-2.1-2.3-3.7l-4.3-2.3q-1.7-0.9 0.1-1.8 2.8-1.6 6.5-1.2 1.8 0.2 3-1.3 2.2-2.6-1-4.5-1.8-1.2-3.7-2.5-0.2-0.1-0.3-0.3-0.1-0.2-0.1-0.4 0.1-0.3 0.2-0.5 0.1-0.2 0.3-0.3 1.7-0.9 3.5-2.1 0.2-0.1 1.6-0.8 1.9-0.9 1.8-3.2 0-1.6 0-1.8 0.1-2.9-0.8-5.4-0.1-0.3-0.2-0.5-0.1-0.2-0.3-0.4-0.2-0.2-0.4-0.3-0.3-0.1-0.5-0.2-4.1-1.3-7.6-0.8-0.1 0-0.2 0.1-0.1 0-0.2 0.1-0.1 0.1-0.2 0.1 0 0.1-0.1 0.2-1.5 3.2-1.6 6.8 0 0.1 0 0.3 0 0.1-0.1 0.2 0 0.1-0.1 0.2 0 0.1-0.1 0.1-0.5 0.4-0.9-0.6-1.2-3-2.7-5.8-0.2-0.3-0.4-0.4-0.3-0.2-0.5-0.3-0.3 0-0.6 0.1-0.3 0-0.5 0.2-1.3 1-1.5 2.9-0.5 3.8-1 7.6-0.1 1.2-0.4 1.9-1.3 3.1-2.7-0.9-0.9-2.4-3.2-2.1-0.1 0.1-0.2 0.1-0.1 0-0.2 0.1-0.1 0.1-0.2 0.2-0.1 0.1-0.2 0.2-1.5 2.2-1.9 4.9-0.1 0.4-0.3 0.5-0.4 0.5-0.7-0.1-0.1-0.3 0-0.7 0.7-3.8 1.9-5.6 2.2-3.3 4.8-0.3 0.7 0.9 1.1 1.7 0.6 1.2 0.9-0.2 0.5-2.8-2-4.2-0.2-0.2-0.3-0.4-0.2-0.2-0.2-0.5 0-0.3 0.1-0.5 0.2-0.2 0.4-0.4 3.4-2 2-5.5-1.1-2.8-2.5-5.6-0.1-0.2-0.3-0.3-0.1-0.2-0.4-0.3-0.2-0.1-0.4-0.1-0.3 0-0.5 0.1l-5 1.9q-1.9 0.7-1.7 2.9l0.5 4.9q0.3 3-1.4 0.5-2.5-3.7-4.3-1.2-0.8 1.1-0.6 3.2 0.4 3.9 0.8 7.9 0 0.8-0.3 1.1-0.6 0.7-1.5-0.7-2.1-3-3.5-0.8-0.7 0.9-0.8 2.7-0.3 3.3-0.3 6.6 0 0.3-0.1 0.4-0.1 0.2-0.3 0.3-0.2 0.2-0.4 0.2-0.2 0-0.4-0.1-1.9-0.8-3.1 1.2-1 1.6-0.8 3.5 0.8 8.7 5.8 15.2 1.9 2.4 0.4 4.4-0.7 0.9-0.7 0.9-3.5 5.6-5.4 12.5 0 0.1 0 0.2 0 0.1 0.1 0.1 0 0.1 0.1 0.2 0.1 0 0.2 0 3.5 0.8 5.1-2.5 1.8-3.9 4.2-7.7 0-0.1 0.1-0.1 0.1-0.1 0.2-0.1 0.2 0 0.3 0 0.1 0 0.2 0.1 2.7 2.4 4.8 4.4 2 2 3.7 0.9 1.1-0.7 1.5-2.7 0.8-3.9-0.5-8.6-0.7-2.4 1-2.1 0.7 0.1 1.5 0.8 2.7 2.3 5.6 4.2 0.1 0.1 0.2 0.2 0.1 0 0.2 0 0.1 0.1 0.2 0.1 0.2 0 0.3 0 3.7-0.3 2.5-4.1-0.9-3-0.8-4.5zm-92.5-33.8q-0.2-0.3-0.6-0.2-0.1 0-0.2 0.1 0 0-0.1 0.1 0 0.1-0.1 0.2 0 0.1 0 0.3 0.3 2.2 0.5 4.5 0.3 3 0.9 4.4 1.7 4.4 6.5 6.1 0.1 0 0.2 0 0.1 0 0.2 0 0-0.1 0.1-0.2 0 0 0-0.1 0.3-6.4-0.2-8-1.5-5-6.4-6.6-0.3-0.1-0.8-0.6zm10.2 6.2q-1.5 4.3-0.6 9 0 0.1 0.1 0.2 0.1 0.1 0.1 0.1 0.1 0.1 0.2 0.1 0.1 0 0.2-0.1 6-2.3 7-8.5 0.2-1.1 0.7-6.7 0-0.1-0.1-0.2 0 0-0.1-0.1 0-0.1-0.1-0.1-0.1 0-0.2 0-2.4 0.9-4.4 2.4-2 1.5-2.8 3.9zm-62.1-2.5q-0.1 2.1 0.7 0.5 0.2-0.2 0.2-0.5 0-1-0.4-0.8-0.1 0-0.2 0.1-0.1 0.1-0.1 0.2-0.1 0.1-0.1 0.2-0.1 0.1-0.1 0.3zm55.1 23.8q5.1 3.2 4.5-1.8-0.1-0.3-0.5-3.6-0.5-4.5-4.9-6.4-1.5-0.6-2.4-1.5-0.8-0.7-0.8 0.4 0.2 4.1 0.9 7.6 0.6 3.8 3.2 5.3zm7.7-8.8q-2.4 3.8-1.2 9.5 0 0.1 0.1 0.2 0 0.1 0.1 0.1 0.1 0.1 0.2 0.1 0.1 0 0.2 0 5.2-0.4 6.4-5.4 0.8-3.3 1.2-8.7 0 0 0-0.1-0.1-0.1-0.1-0.2-0.1 0-0.2 0-0.1 0-0.2 0-4.6 1.6-6.5 4.5zm-50.5 35.7q9 7.8 18.9 13.1 14.2 7.7 29.8 13.8 0.1 0 0.2 0.1 0.1 0 0.3 0 0.1 0 0.2 0 0.1-0.1 0.2-0.1 11.4-4.6 22.4-9.9 13.7-6.6 25.9-16.8 0.5-0.4 0.9-1.1l6.4-12.1q0-0.2 0.1-0.3 0-0.2 0-0.3 0-0.1-0.1-0.3 0-0.1-0.1-0.2-3.5-5.1-4.8-10.5-0.3-1.2-1-0.1-16.1 28.9-47.5 30.8-10.4 0.7-19.8-1.9-21.8-5.9-33.8-26.6-0.4-0.7-0.8 0.1l-4.3 8.5q-0.1 0.1-0.1 0.2 0 0.1 0 0.2 0 0.1 0 0.2 0 0.1 0.1 0.2l6.2 12q0.3 0.6 0.7 1z"/>
	<path id="Layer" fill-rule="evenodd" class="s9" d="m89.3 162.2l-1.4-4.5q0-0.1 0-0.2 0-0.1 0-0.2 0-0.1 0.1-0.2 0-0.1 0.1-0.2l3.5-3.6q0.1-0.1 0.1-0.2 0.1-0.1 0.1-0.2 0.1-0.2 0.1-0.3 0-0.1-0.1-0.1l-2-4.2-2.4-5.8q0-0.1-0.1-0.2 0-0.1-0.1-0.2-0.1 0-0.2-0.1-0.1-0.1-0.2-0.2-14.8-7.7-20.6-22.4-2.1-5.3-3.4-16.6-1.6-13.8-3-27.4-0.1-0.2 0-0.5 0-0.2 0.1-0.4 0.1-0.2 0.2-0.4 0.2-0.2 0.4-0.4 14.2-11.3 27.8-21.7 2.3-1.8 5.1-2.8 4.9-2 9.2-0.4 2.8 1 6.5 5.4 19.2 22.1 24.6 28.9 5.1 6.3 12.8 4.3 0.5-0.1 0.1-0.5l-21.5-21.1q-0.1-0.1-0.1-0.3-0.1-0.1-0.1-0.2 0-0.2 0.1-0.3 0-0.1 0.1-0.2 2.6-2.6 4.7-4.4 2.8-2.3 6.1-0.8 2.7 1.2 4.8 3.2 6.4 5.6 13.2 11.7 0.3 0.2 0.4 0.5 0.2 0.2 0.3 0.5 0.1 0.3 0.2 0.6 0 0.3 0 0.6-2 18-4 35.8-0.9 7.2-5.9 14.6-6.8 9.7-17.3 15.1-0.1 0.1-0.2 0.1-0.1 0.1-0.2 0.2-0.1 0.1-0.1 0.2-0.1 0.1-0.1 0.2l-2.2 5.9-1.2 3.3q0 0.2 0 0.4 0 0.1 0.1 0.3 0 0.2 0.1 0.4 0.1 0.1 0.3 0.3l3.3 3.4q0.1 0.1 0.1 0.2 0.1 0.1 0.1 0.2 0 0.1 0 0.2 0 0.1 0 0.2l-2.1 4.8-1.4 4.7q-0.1 0.5 0.5 0.4 10.9-2.8 20.4-9.2 0.6-0.4 0.5 0.2l-1.4 12.6q-0.1 0.1-0.2 0.3 0 0.1-0.2 0.2-0.1 0.1-0.3 0.1-0.2 0-0.3 0-3.4-1.2-6.1-0.7-0.6 0.2-0.1 0.5l5.5 4.4q0.2 0.1 0.3 0.3 0.1 0.1 0.2 0.3 0.1 0.2 0.1 0.4 0 0.2 0 0.3l-1 4.2q-0.1 0.5-0.5 0.1-4.3-4.2-8.6-8.4-1.8-1.7-2.2-1.8-1.2-0.5-3.1-0.2-0.1 0-0.2 0.1-0.1 0-0.1 0.1-0.1 0.1 0 0.2 0 0.1 0 0.2l11.7 16.3q0 0.1 0.1 0.2 0 0.1 0 0.2 0 0.1 0 0.2 0 0.2-0.1 0.3l-2.9 4.8q0 0.1-0.1 0.1-0.1 0.1-0.2 0.1 0 0-0.1-0.1-0.1 0-0.1-0.1l-10.6-15.6q-0.1 0-0.2-0.1 0 0-0.1 0-0.1 0-0.2 0 0 0.1-0.1 0.1-1.8 3-1.5 6.3 0.2 1.8 2 5.7 2.5 5 4.7 10.1 0 0.1 0 0.2 0 0.1 0 0.2 0 0.1-0.1 0.2 0 0.1-0.1 0.2l-4.8 3.1q-0.1 0.1-0.3 0.1-0.1 0-0.2-0.1-0.2 0-0.3-0.1-0.1-0.1-0.1-0.3l-2.3-6.8q-0.2-0.5-0.4 0-1.5 3.1-1.9 3.6-2.5 2.7-1.3 5.7 0 0.1 0 0.2 0 0.1 0 0.2 0 0.1-0.1 0.2-0.1 0-0.2 0.1-2.8 1.3-6.5 1.2-0.1 0-0.2 0-0.1 0-0.2-0.1-0.1-0.1-0.2-0.2 0-0.1 0-0.2l-0.4-4.6q0-0.1 0-0.2 0-0.1 0.1-0.2 0.1-0.1 0.2-0.2 0.1-0.1 0.2-0.1 4.3-1.8 6.3-5.6 1.1-1.9 1.6-5.8 0.3-3 0.7-6 0.4-2.9 1.6-5.8 1.1-2.9 2.1-5.7 0.1-0.1 0.1-0.2 0-0.2-0.1-0.2 0-0.1-0.1-0.2-0.1 0-0.2 0-0.5 0-0.8 0.8-0.5 1.1-2.9 4.9-0.3 0.4-0.3-0.1-0.3-9.2 3.8-17.4 0.2-0.4 0.3-0.8 0.7-2.6-0.8-0.8-0.2 0.3-0.4 0.7-1.2 2.4-2.8 4.6-0.3 0.4-0.3-0.1 0-10.4 4.5-19.7 0.2-0.4 0.1-0.6-0.1-0.6-0.6-0.3-0.2 0.2-0.4 0.5-1.6 2.9-3.3 5.9-0.9 1.7-2.4 2.9-1.5 1.1-3.1 2.2-0.7 0.5-0.5-0.3 3-10.5 4.6-20.7 0.1-0.4-0.1-0.7-0.4-1.3-0.9 0.2-1.9 5.9-3.5 11.8-0.3 1.1-0.7 0.1l-2.9-7.4q-0.1-0.2 0-0.3 0-0.1 0-0.2 0.1-0.1 0.2-0.1 0.1 0 0.2 0 3.6 0.4 2.9-3-0.2-1.1 0.6-1.4 0-0.1 0.1-0.1 0.1-0.1 0.1-0.2 0.1-0.1 0-0.2 0 0 0-0.1-2.6-5.3-3.3-11.2-0.2-1.7-1-5.4-0.7-2.7-0.4-5.6 0-0.1 0.1-0.2 0-0.1 0.1-0.2 0.1-0.1 0.1-0.1 0.1-0.1 0.3-0.1 1-0.2 2.1 0.1 0.9 0.1 1.7 1 3.7 3.8 8.1 6.7 0.1 0.1 0.2 0.2 0.1 0.1 0.2 0.2 0 0.1 0.1 0.2 0 0.1 0 0.2 1.1 6.1 0.3 12.2-0.1 0.1-0.2 3-0.1 1.9-1.2 3.6-0.1 0.1-0.1 0.2 0 0.1 0 0.2 0.1 0.1 0.2 0.2 0.1 0.1 0.2 0.1 3 0.3 2.9-2.2 0-0.1 0-0.2 0.1-0.1 0.1-0.1 0.1-0.1 0.2-0.2 0 0 0.2-0.1l0.2-0.1q0 0 0.1 0 0-0.1 0-0.1 0.1-0.1 0.1-0.2 0 0 0-0.1-0.5-5.3 0.6-9.7 0.1-0.6 0.5-0.2 0.1 0.1 0.2 0.4 1.1 8.4 0.2 11.5-0.5 1.9-2.2 2.9-1.4 0.8 0.2 1.1 2.5 0.5 3.2-1.8 0.3-0.9 1.5-0.8 0.1 0.1 0.2 0 0.1 0 0.2-0.1 0.1-0.1 0.2-0.2 0-0.1 0-0.3-0.6-6 0.1-12.9 0-0.2 0-0.4 0-0.2 0-0.5-0.1-0.2-0.1-0.4-0.1-0.2-0.2-0.3-1.1-2.2-0.6-4.5 0-0.2 0-0.4 0-0.3-0.1-0.5-0.1-0.2-0.2-0.4-0.2-0.2-0.3-0.3-1.9-1.3-1.8-3.4 0.1-1.6-0.3-3.1-0.5-1.8-0.3-3 0.8-4 3.5-7.2 1.7-2 1.6-4.3-0.1-1.8-1.5-4-6.7-10.3-19.6-6.1-2.1 0.7-4.3 1.1-1.5 0.2-4.4 0-2.3-0.2-4.8 0.1-0.3 0-0.6 0-0.3 0-0.5-0.1-0.3-0.1-0.6-0.2-0.2-0.2-0.4-0.3-3.2-2.8-4.1-5.6-0.1-0.2-0.1-0.4 0-0.1 0-0.3 0-0.2 0.1-0.4 0-0.2 0.1-0.3 1-1.9 1-3.1 0-0.2 0-0.3 0-0.1 0-0.2 0-0.1 0.1-0.2 0-0.1 0.1-0.2 1.8-2.9 0.5-7.6 0-0.1-0.1-0.2-0.1-0.1-0.1-0.1-0.1 0-0.2 0-0.1 0-0.2 0.1-3 2.2-4.1 4.3-0.6 1.1-0.6 0-0.1-0.2 0.1-0.4 1.8-3.5 3.5-6.9 0-0.1 0.1-0.2 0.1-0.1 0.2-0.1 0.2 0 0.3 0 0.1 0.1 0.2 0.2 0.8 1 1 0.2 0-0.1 0-0.2 0-0.1 0-0.2 0-0.1-0.1-0.3 0-0.1-0.1-0.2-0.6-1.3 0.4-2.5 1.2-1.5 2.4-2.9 0.4-0.4-0.1-0.2-3 1.4-4.3 4.5 0 0.2-0.1 0.3-0.1 0.1-0.2 0.2 0 0.1-0.1 0.1-0.1 0.1-0.2 0.1-0.6 0.2-0.7-0.9-0.1-1.7-0.5-0.5-0.1 0.2-0.1 0.4 0.4 3.7-0.8 5.2-1.8 2.2-2.8 4.4-0.8 1.7-0.9-0.2-0.1-3 0.3-5.9 0.3-2.1 2.4-0.7 0.8 0.6 0.4-0.3-1.6-3.3 0.9-6 0.6-0.6 0-0.6-0.1-0.1-0.2 0-0.1 0-0.2 0-0.1 0-0.2 0.1-0.1 0-0.1 0.1-2 1.7-2.7 4.2-0.1 0.6-0.5 0.9-1 1-0.8-1.4 0.4-0.6 0-0.8-0.1-0.1-0.2-0.1-0.1 0-0.2 0.1-0.1 0-0.1 0.1-0.1 0.1-0.1 0.3-0.7 2.4-0.4 4.9 0.2 1.9 0.2 2.5-0.3 4.2-3.2 0.7 0-0.1-0.1-0.1-0.1-0.1-0.2-0.1 0 0-0.1 0.1-0.1 0-0.1 0.1-0.9 2.3 0 4.6 0 0.1 0.1 0.2 0 0.1 0 0.3 0 0.1-0.1 0.2 0 0.1 0 0.2-2.2 3.8-5.7 6.5 0 0.1-0.1 0.2-0.1 0.1-0.1 0.2-0.1 0.1-0.1 0.2 0 0.1 0 0.2 0.2 1.9 2.1 2.6 1.1 0.4 5.3 0.7 0.1 0 0.2 0 0.1 0.1 0.2 0.1 0 0.1 0.1 0.2 0.1 0.1 0.1 0.2l2.1 3.9q0.3 0.6 0.3 0.9 0.4 3.7 3.2 6 2.1 1.6 2.9 3.8 1.2 3.3 1.6 3.8 0.9 1.6 1.8 3.1 1 1.6 1.2 3.3 0.2 2.9 0.1 5.8-0.2 3 0.1 5.7 0.4 4.1 0.1 8.3-0.3 3.8-0.4 4.2-0.5 2.3-2.3 3.8-0.5 0.4 0.1 0.6 3.9 0.7 4.2-2.7 0-0.1 0-0.2 0.1-0.1 0.1-0.2 0.1 0 0.2-0.1 0.1 0 0.2-0.1 1.1-0.3 0.9-1.4-0.3-1.1-0.3-1.1-0.4-5 0.5-9.9 1-5 1-5.1 0.4-2.8 0.9-5.4 0.3-2 2.3-2.5 2.2-0.5 2.7 0.7 1.2 3.1 1 6.5-0.2 2.1 1.3 3.3 0.3 0.2 0.5 0.4 0.2 0.3 0.3 0.6 0.1 0.3 0.2 0.6 0.1 0.4 0 0.7-0.5 6.8-0.6 12.7-0.1 2.2-3.5 9.3-0.3 0.4-0.4-0.1-1.9-5.9-3.5-11.9-0.1-0.4-0.3-0.6-0.7-0.7-0.6 1 1 10.7 4.2 20.6 0.2 0.7-0.5 0.3-2.1-1.1-3.6-2.4-1.2-1.1-2.5-3.5-2.2-4.1-3-5.1-0.9-1-0.8 0.2 0.1 0.3 0.2 0.6 4.4 9.3 4.5 18.9 0 2.1-0.9 0.2-1.4-2.7-3.1-5-0.8-1.1-0.7 0.1 0.1 0.3 0.2 0.5 4.4 9 4.5 18.1 0 2-0.9 0.3-1.4-2.5-2.7-4.9-0.2-0.4-0.5-0.5-0.6-0.5-0.6 0.5 0 0.2 0.2 0.6 3.8 7.6 4.3 17.3 0.4 7.8 7.7 10.8 0.1 0.1 0.2 0.1 0.1 0.1 0.2 0.2 0.1 0.1 0.2 0.2 0 0.1 0.1 0.2 0.5 1.3 0 2.7-0.1 0.5 0 1 0.3 2.3-1.6 2-1.5-0.3-1.6-0.3-2.2-0.2-4.2-1.1-0.1 0-0.1-0.1-0.1 0-0.2-0.1 0-0.1-0.1-0.2 0-0.1 0-0.3l0.6-3.2q0-0.1 0-0.2 0-0.1-0.1-0.2 0-0.1-0.1-0.2 0-0.1-0.1-0.2-2.1-2.2-3.1-4.9-0.5-1.4-1 0.1l-2.4 6.6q0 0.1-0.1 0.2-0.1 0.1-0.2 0.1-0.1 0-0.2 0-0.1 0-0.1-0.1l-4.8-3.3q-0.1-0.1-0.2-0.2-0.1-0.1-0.1-0.3 0-0.1 0-0.3 0-0.1 0.1-0.3 2.7-5.7 5.1-10.7 0-0.1 0.8-1.5 1.5-2.8 0.4-5.9-0.5-1.5-0.8-3.2-0.3-1.1-1-0.1l-10.3 15.1q-0.1 0.1-0.2 0.2-0.1 0-0.2 0-0.1 0-0.2 0-0.1-0.1-0.2-0.2l-2.7-4.8q-0.1-0.1-0.1-0.2 0-0.1 0-0.2 0-0.1 0-0.2 0.1-0.1 0.1-0.2l11.7-16.4q0-0.1 0-0.2 0.1-0.1 0-0.2 0-0.1-0.1-0.2-0.1 0-0.2 0-1.2-0.2-2.3-0.1-0.9 0.2-1.8 1.1-4.7 4.7-9.7 9.1 0 0-0.1 0.1-0.1 0-0.2 0-0.1-0.1-0.2-0.1-0.1-0.1-0.1-0.1-1-2-0.9-4.2 0-0.1 0.1-0.2 0-0.1 0.1-0.2 0-0.1 0.1-0.2 0.1-0.1 0.2-0.2l5.5-4.6q0.4-0.3-0.2-0.4-3.1-0.5-6.5 0.8-0.1 0-0.2 0-0.1 0-0.2-0.1-0.1-0.1-0.2-0.2 0-0.1 0-0.2l-0.7-4.1q0-0.1-0.1-0.2 0-0.1-0.1-0.1-0.1-0.1-0.2-0.1-0.1 0-0.3 0l-21.2 2.4q-0.1 0-0.2-0.1-0.1 0-0.2 0 0-0.1-0.1-0.2 0-0.1 0-0.2-0.4-4.1-4.5-4.6-0.2 0-0.4-0.1-0.2-0.1-0.3-0.3-0.1-0.1-0.2-0.3 0-0.2 0-0.3 0-5.8-5.4-6.3-0.1-0.1-0.2-0.1-0.1 0-0.2-0.1 0-0.1-0.1-0.2 0-0.1 0-0.2-0.4-2-0.7-4.1-0.8-4.7-5-2.4-1 0.5-0.6-0.5 1-2.4 1.5-4.8 0.6-3-0.2-4.9-1.5-3.7-6.7-2.4-0.8 0.2-0.3-0.5 1.9-2.5 0.4-5.4-1.2-2.2-3.1-3.8-0.1-0.1-0.2-0.2 0-0.1-0.1-0.2-0.1-0.1-0.1-0.2 0-0.1 0-0.2l-6.5-70.2q0-0.1 0-0.2 0-0.1 0.1-0.2 0-0.1 0.1-0.2 0.1 0 0.2-0.1l21.3-8.9q0.1 0 0.2-0.1 0.1-0.1 0.2-0.2 0-0.1 0.1-0.2 0-0.1 0-0.2l0.2-27.2q0-0.1 0.1-0.2 0-0.1 0.1-0.2 0-0.1 0.1-0.2 0.1 0 0.2-0.1 70.6-23.3 141.4-0.1 0.2 0 0.3 0.1 0.1 0.1 0.2 0.2 0.1 0.2 0.1 0.3 0.1 0.2 0.1 0.3l0.1 27.1q0 0.2 0.1 0.3 0 0.1 0.1 0.2 0 0.1 0.1 0.1 0.1 0.1 0.2 0.1l21.3 8.9q0.2 0 0.3 0.1 0.1 0.1 0.1 0.2 0.1 0.1 0.1 0.2 0.1 0.1 0.1 0.3l-6.6 70.2q0 0.1 0 0.2-0.1 0.1-0.1 0.2-0.1 0.1-0.2 0.2 0 0.1-0.1 0.2-2.5 2.4-3.5 5.2-0.5 1.5 0.6 3.2 1.1 1.6-0.8 0.9-3.3-1.2-5 1.1-1.3 1.5-1.3 4.3-0.1 3.5 1.6 6.6 0.9 1.8-0.8 0.8-1.5-0.9-3.1-0.3-0.1 0-0.2 0.1-0.1 0-0.2 0.1-0.1 0.1-0.1 0.2-0.1 0.1-0.1 0.2-1.4 3.1-1.6 6.3 0 0.2-0.1 0.3-0.1 0.1-0.1 0.2-0.1 0.1-0.3 0.1-0.1 0.1-0.2 0.1-5.2 0.3-5.2 5.3 0 1.8-1.7 2.2-1.5 0.3-2.5 1.1-0.9 0.7-1.2 2.3-0.7 3.9 0 5.9 0.9 2.5-2.2 0.8-0.1 0-0.2-0.1 0-0.1-0.1-0.2 0-0.1-0.1-0.2 0-0.1 0-0.2l11.6-102q0-0.1 0-0.2 0-0.1-0.1-0.2 0-0.1-0.1-0.2-0.1-0.1-0.2-0.1l-21.1-9.4q-0.1-0.1-0.1-0.1-0.1 0-0.2 0.1-0.1 0-0.1 0.1-0.1 0.1-0.1 0.2l-0.9 5.4q-0.1 0-0.1 0.1-0.1 0.1-0.1 0.1-0.1 0-0.2 0-0.1 0-0.2 0-10.9-7.1-13.2-9-5.1-4.3-11.2-1.6-2 0.8-7.9 4.9-0.1 0-0.2 0.1-0.1 0-0.2 0-0.1 0-0.2-0.1-0.1 0-0.2-0.1-5.1-4.7-10-9.5-4.7-4.5-7.9-5.8-6-2.5-12.2-0.5-3.5 1.1-9.9 6.1-11.1 8.6-22.2 17.3-0.6 0.5-0.7-0.3l-0.7-6.4q0-0.1-0.1-0.2 0 0-0.1-0.1-0.1 0-0.2 0-0.1 0-0.2 0l-20.6 8.5q-0.2 0.1-0.3 0.2-0.1 0.1-0.2 0.2-0.1 0.2-0.1 0.3 0 0.2 0 0.4 1.4 13.2 2.6 25.2 2 17.6 2.4 19.9 2.8 13.8 10.8 24.5 14.6 19.4 38 26 0.6 0.2 0.5-0.4zm14.5-133.9q9.1-0.1 6.6-9.3-1-3.5-4.6-3.5-3.2 0-6.1 0-0.2 0-0.4 0.1-0.2 0.1-0.3 0.2-0.1 0.1-0.2 0.3-0.1 0.2-0.1 0.4l0.6 19.2q0 0.1 0 0.2 0.1 0.1 0.1 0.2 0.1 0.1 0.2 0.2 0.1 0 0.2 0.1 1.5 0.4 2.9 0 0.1-0.1 0.2-0.1 0.1-0.1 0.2-0.2 0-0.1 0.1-0.2 0-0.1 0-0.2l0.1-6.9q0-0.1 0-0.2 0.1-0.1 0.2-0.1 0-0.1 0.1-0.1 0.1-0.1 0.2-0.1zm20.3 1l-0.3 6.5q-0.1 0.2 0.1 0.5 0.1 0.2 0.3 0.5 0.3 0.2 0.6 0.3 0.3 0.1 0.7 0.2l1.6 0.1q0.1 0 0.2 0 0.1-0.1 0.1-0.2 0.1 0 0.2-0.1 0-0.2 0-0.3l1.3-19.5q0-0.1 0-0.2 0-0.1-0.1-0.2-0.1-0.1-0.2-0.1 0-0.1-0.2-0.1l-2.8-0.1q-0.1 0-0.2 0-0.1 0-0.2 0.1-0.1 0.1-0.1 0.2-0.1 0.1-0.1 0.2-0.3 3.4-0.6 6.9-0.2 3-3.6 2.5-2.3-0.4-2.3-2.6l0.3-7.1q0-0.1 0-0.2 0-0.1-0.1-0.2-0.1-0.1-0.1-0.2-0.1 0-0.2 0l-3.1-0.4q-0.1-0.1-0.2 0-0.1 0-0.1 0.1-0.1 0.1-0.2 0.2 0 0.1 0 0.2-0.3 2.5-0.4 5-0.2 3 0.6 4.8 2.4 5.1 8.7 2.9 0.1 0 0.2 0 0.1 0 0.1 0 0.1 0.1 0.1 0.2 0.1 0 0 0.1zm-42.8-8l2 16.3q0 0.1 0 0.1 0.1 0.1 0.1 0.2 0.1 0.1 0.2 0.1 0.1 0 0.2 0 1.9-0.1 3.9-0.4 3.4-0.5 3.8-0.5 4.1-1.1 4.2-5.7 0.1-9.2-9.1-7.3-0.1 0-0.2 0-0.1 0-0.2-0.1-0.1 0-0.2-0.1 0-0.1-0.1-0.2l-0.9-6.1q0-0.1-0.1-0.2 0-0.1-0.1-0.2-0.1-0.1-0.2-0.1-0.1 0-0.2 0l-5.2 0.6q-0.1 0-0.2 0-0.1 0.1-0.2 0.2 0 0-0.1 0.1-0.1 0.1-0.1 0.2-1 3.2 2.1 2.7 0.1 0 0.2 0 0.1 0 0.2 0.1 0.1 0.1 0.1 0.1 0 0.1 0.1 0.2zm55.6 11.9q1.2-6.9 2-13.9 0.1-0.3 0.3-1 0.3-1-1-0.9-0.1 0-0.9-0.1l-1.6-0.2q-0.1 0-0.2 0.1-0.1 0-0.2 0.1-0.1 0.1-0.1 0.2-0.1 0.1-0.1 0.2l-2.7 19.5q0 0.1 0 0.2 0 0.1 0.1 0.1 0.1 0.1 0.1 0.2 0.1 0 0.2 0l4.7 0.7q0.1 0 0.2 0 0.2 0 0.3 0 0.1-0.1 0.2-0.2 0.1-0.1 0.1-0.2l7-13.3q1.1-2.2 0.7 0.3-1.1 5.6-1.7 11.5 0 0.1-0.2 1.5-0.4 1.8 1.7 1.6 0.3-0.1 0.9 0.1 0.4 0.1 0.8 0 0.1 0 0.2-0.1 0.1-0.1 0.1-0.2 0.1-0.1 0.2-0.2 0-0.1 0-0.2l2.6-19.2q0-0.1 0-0.2 0-0.1-0.1-0.2 0-0.1-0.1-0.1-0.1-0.1-0.2-0.1l-5.1-0.6q-0.1 0-0.2 0-0.1 0-0.2 0.1-0.1 0-0.2 0.1-0.1 0.1-0.2 0.2l-7.2 14.3q-0.3 0.4-0.2-0.1zm-66.8-10.7l4.4-1q0.1 0 0.2 0 0.1-0.1 0.1-0.2 0.1-0.1 0.2-0.1 0-0.1 0-0.3 0.1-1.1-0.4-2.1 0-0.1-0.1-0.2 0-0.1-0.1-0.1-0.1-0.1-0.2-0.1-0.1 0-0.2 0l-8.7 1.6q-0.1 0-0.2 0.1 0 0-0.1 0.1 0 0 0 0.1-0.1 0.1 0 0.2l3.7 19.4q0 0.2 0.1 0.3 0.1 0.1 0.1 0.1 0.1 0.1 0.2 0.1 0.1 0 0.2 0l2.9-0.7q0.1-0.1 0.2-0.1 0.1-0.1 0.1-0.2 0.1-0.1 0.1-0.2 0-0.1 0-0.3l-2.9-15.8q-0.1-0.1 0-0.2 0-0.1 0-0.2 0.1-0.1 0.2-0.2 0.1 0 0.2 0zm95 12.6l-1.7 7.6q0 0.1 0 0.2 0 0.1 0.1 0.2 0 0.1 0.1 0.2 0.1 0.1 0.2 0.1 1.4 0.7 2.9 0.8 0.1 0 0.2 0 0.1-0.1 0.2-0.1 0.1-0.1 0.1-0.2 0.1-0.1 0.1-0.2l4.6-18.7q0-0.1 0-0.2 0-0.1 0-0.2-0.1-0.1-0.1-0.2-0.1-0.1-0.2-0.2-1.3-0.8-2.9-0.8-0.1 0-0.2 0.1-0.1 0-0.2 0.1-0.1 0-0.1 0.1-0.1 0.1-0.1 0.2l-1.9 6.9q0 0.1-0.1 0.2 0 0.1-0.1 0.2-0.1 0-0.2 0-0.1 0-0.2 0l-5.2-1.4q-0.1 0-0.2-0.1-0.1 0-0.1-0.1-0.1-0.1-0.1-0.2 0-0.1 0-0.2l1.6-7q0-0.1 0-0.2 0-0.1-0.1-0.2 0-0.1-0.1-0.2-0.1 0-0.2-0.1-1.4-0.6-2.7-0.6-0.2 0-0.3 0.1-0.1 0-0.1 0.1-0.1 0-0.2 0.1-0.1 0.1-0.1 0.2l-4.7 19q0 0.1 0 0.2 0 0.1 0.1 0.2 0 0.1 0.1 0.1 0.1 0.1 0.2 0.1l2.7 0.6q0.1 0 0.2 0 0.1 0 0.2-0.1 0.1 0 0.2-0.1 0-0.1 0.1-0.2l1.9-7.5q0.1-0.2 0.1-0.3 0.1-0.1 0.2-0.1 0.1-0.1 0.2-0.1 0.1-0.1 0.3 0l5.1 1.2q0.1 0 0.2 0.1 0.1 0.1 0.1 0.2 0.1 0 0.1 0.2 0 0.1 0 0.2zm-108-0.3q0-0.1 0.1-0.1 0.1 0 0.2 0 0.1 0 0.2 0.1 0.1 0 0.1 0.1 2.1 4.5-1.5 6.3-1.9 0.9-2.7-1-0.6-1.5-2.1-0.9-0.7 0.3-1.5 0.5-1.6 0.4-0.4 2 2.2 2.9 5.5 2.7 5.8-0.3 7.1-4.5 0.7-2.3-0.5-7.3-1.4-5.3-2.8-10.6 0-0.2-0.1-0.3 0-0.1-0.1-0.1-0.1-0.1-0.2-0.1-0.1 0-0.2 0l-2.8 0.8q-0.1 0.1-0.2 0.1-0.1 0.1-0.1 0.2-0.1 0.2-0.1 0.3 0 0.1 0 0.3l1.7 7.3q0 0.3 0 0.6 0 0.3-0.2 0.6-0.1 0.3-0.4 0.6-0.2 0.2-0.5 0.4-3.5 1.8-4.9-1.8-1.1-3-1.7-6.4 0-0.1-0.1-0.2 0-0.1-0.1-0.1-0.1-0.1-0.2-0.1-0.1-0.1-0.2 0l-2.9 0.6q-0.1 0.1-0.2 0.1 0 0.1-0.1 0.2-0.1 0.1-0.1 0.2 0 0.1 0 0.3 0.3 3.5 1.7 6.6 1.4 3.2 3.9 4.2 3.4 1.3 6.4-1.6z"/>
	<path id="Layer" fill-rule="evenodd" class="s10" d="m103.3 28.8l-0.1 6.9q0 0.1-0.1 0.2 0 0.1 0 0.2-0.1 0.1-0.2 0.2-0.1 0-0.2 0-1.4 0.5-2.9 0.1-0.1-0.1-0.2-0.1-0.1-0.1-0.2-0.2 0-0.1-0.1-0.2 0-0.1 0-0.2l-0.6-19.2q0-0.2 0.1-0.4 0.1-0.2 0.2-0.3 0.1-0.2 0.3-0.2 0.2-0.1 0.4-0.1 2.9 0 6.1 0 3.6 0 4.6 3.5 2.5 9.2-6.6 9.3-0.1 0-0.2 0.1-0.1 0-0.2 0.1 0 0-0.1 0.1 0 0.1 0 0.2zm3.5-5q1.7-5.6-3.5-5.1-0.1 0.1-0.2 0.1-0.1 0.1-0.2 0.1 0 0.1-0.1 0.2 0 0.1 0 0.2l0.2 5.4q0 0.1 0.1 0.2 0 0.1 0.1 0.2 0 0.1 0.1 0.1 0.1 0.1 0.2 0.1 2.7 0.5 3.3-1.5z"/>
	<path id="Layer" class="s10" d="m123.7 29q-6.3 2.2-8.7-2.9-0.8-1.8-0.6-4.8 0.1-2.5 0.4-5 0-0.1 0-0.2 0.1-0.1 0.1-0.2 0.1-0.1 0.2-0.1 0.1-0.1 0.2-0.1l3.1 0.5q0.1 0 0.1 0 0.1 0.1 0.2 0.2 0.1 0.1 0.1 0.2 0 0.1 0 0.2l-0.3 7q-0.1 2.3 2.3 2.7 3.3 0.5 3.6-2.5 0.3-3.5 0.6-6.9 0-0.1 0.1-0.2 0-0.1 0.1-0.2 0.1-0.1 0.2-0.1 0.1-0.1 0.2 0l2.8 0.1q0.1 0 0.2 0.1 0.1 0 0.2 0.1 0.1 0.1 0.1 0.2 0 0.1 0 0.2l-1.3 19.5q0 0.1-0.1 0.2 0 0.2-0.1 0.2 0 0.1-0.1 0.2-0.1 0-0.2 0l-1.6-0.2q-0.4 0-0.7-0.1-0.3-0.1-0.6-0.4-0.2-0.2-0.3-0.4-0.2-0.3-0.2-0.6l0.4-6.4q0-0.1 0-0.1 0-0.1-0.1-0.2 0 0-0.1 0-0.1 0-0.2 0z"/>
	<path id="Layer" fill-rule="evenodd" class="s10" d="m80.7 20.9q-3.1 0.5-2.1-2.7 0-0.1 0.1-0.2 0-0.1 0.1-0.2 0.1 0 0.2-0.1 0.1 0 0.2 0l5.2-0.6q0.1 0 0.2 0 0.1 0 0.2 0.1 0.1 0.1 0.1 0.2 0.1 0.1 0.1 0.2l0.9 6.1q0.1 0.1 0.1 0.2 0.1 0.1 0.2 0.1 0 0.1 0.1 0.1 0.1 0 0.3 0 9.2-1.9 9.1 7.3-0.1 4.6-4.2 5.6-0.4 0.1-3.9 0.6-1.9 0.3-3.8 0.4-0.1 0-0.2 0-0.1-0.1-0.2-0.1 0-0.1-0.1-0.2 0 0 0-0.1l-2.1-16.3q0-0.1 0-0.2-0.1-0.1-0.1-0.1-0.1-0.1-0.2-0.1-0.1 0-0.2 0zm10.7 10.5q0.6-4.7-4.5-4.1-0.1 0-0.2 0.1-0.1 0-0.1 0.1-0.1 0-0.1 0.1 0 0.1 0 0.2l0.5 5.9q0 0.1 0 0.2 0.1 0.1 0.2 0.2 0 0.1 0.1 0.1 0.1 0.1 0.3 0.1 1.4 0.2 2.4-0.5 1.1-0.7 1.4-2.4z"/>
	<path id="Layer" class="s10" d="m137.1 33.3l7.2-14.3q0.1-0.1 0.2-0.2 0.1-0.1 0.2-0.1 0.1-0.1 0.2-0.1 0.1-0.1 0.2 0l5.1 0.6q0.1 0 0.2 0.1 0.1 0 0.1 0.1 0.1 0.1 0.1 0.2 0 0.1 0 0.2l-2.6 19.2q0 0.1-0.1 0.2 0 0.1-0.1 0.2 0 0.1-0.1 0.2-0.1 0-0.2 0.1-0.4 0.1-0.8 0-0.6-0.2-0.9-0.1-2.1 0.2-1.8-1.6 0.3-1.4 0.3-1.5 0.6-5.9 1.7-11.5 0.4-2.5-0.7-0.3l-7 13.3q0 0.1-0.1 0.2-0.1 0.1-0.2 0.1-0.1 0.1-0.3 0.1-0.1 0-0.2 0l-4.7-0.7q-0.1 0-0.2 0-0.1-0.1-0.1-0.2-0.1-0.1-0.1-0.1 0-0.1 0-0.2l2.7-19.5q0-0.1 0.1-0.2 0-0.2 0.1-0.2 0.1-0.1 0.2-0.1 0.1-0.1 0.2-0.1l1.6 0.2q0.8 0.1 0.9 0.1 1.3-0.1 1 0.9-0.2 0.7-0.3 1-0.8 7-2 13.9-0.1 0.5 0.2 0.1z"/>
	<path id="Layer" class="s10" d="m69.6 23.1l3 15.8q0 0.2 0 0.3 0 0.1-0.1 0.2 0 0.1-0.1 0.2-0.1 0-0.2 0.1l-2.9 0.7q-0.1 0-0.2 0-0.1 0-0.2-0.1 0-0.1-0.1-0.1-0.1-0.1-0.1-0.3l-3.8-19.4q0-0.1 0-0.2 0.1-0.1 0.1-0.1 0.1-0.1 0.1-0.1 0.1-0.1 0.2-0.1l8.6-1.6q0.2 0 0.3 0 0.1 0 0.2 0 0.1 0.1 0.1 0.2 0.1 0.1 0.1 0.2 0.5 1 0.4 2.1 0 0.1-0.1 0.2 0 0.1-0.1 0.2 0 0.1-0.1 0.2-0.1 0-0.2 0l-4.4 0.9q-0.1 0.1-0.2 0.1-0.1 0.1-0.2 0.2 0 0.1 0 0.2-0.1 0.1-0.1 0.2z"/>
	<path id="Layer" class="s9" d="m106.8 23.8q-0.6 2.1-3.2 1.5-0.2 0-0.3-0.1-0.1 0-0.1-0.1-0.1-0.1-0.1-0.2-0.1-0.1-0.1-0.2l-0.2-5.4q0-0.1 0-0.2 0.1-0.1 0.1-0.2 0.1 0 0.2-0.1 0.1 0 0.2-0.1 5.2-0.5 3.5 5.1z"/>
	<path id="Layer" class="s10" d="m164.7 34.4l-5.2-1.2q-0.1-0.1-0.2 0-0.1 0-0.2 0.1-0.1 0-0.2 0.1-0.1 0.1-0.1 0.3l-1.9 7.5q-0.1 0.1-0.1 0.2-0.1 0.1-0.2 0.1-0.1 0.1-0.2 0.1-0.1 0-0.2 0l-2.7-0.6q-0.1 0-0.2-0.1-0.1 0-0.2-0.1 0-0.1 0-0.2 0-0.1 0-0.2l4.7-19q0-0.1 0.1-0.2 0.1-0.1 0.1-0.2 0.1 0 0.2-0.1 0.1 0 0.3 0 1.3 0 2.7 0.6 0.1 0.1 0.2 0.1 0.1 0.1 0.1 0.2 0.1 0.1 0.1 0.2 0 0.1 0 0.2l-1.6 7q0 0.1 0 0.2 0 0.1 0.1 0.2 0 0.1 0.1 0.1 0.1 0.1 0.2 0.1l5.2 1.4q0.1 0 0.2 0 0.1 0 0.2-0.1 0 0 0.1-0.1 0.1-0.1 0.1-0.2l1.9-6.9q0-0.1 0.1-0.2 0-0.1 0.1-0.1 0.1-0.1 0.2-0.2 0.1 0 0.2 0 1.6 0 2.9 0.8 0.1 0.1 0.1 0.2 0.1 0 0.2 0.1 0 0.2 0 0.3 0 0.1 0 0.2l-4.6 18.7q0 0.1-0.1 0.2 0 0.1-0.1 0.2-0.1 0-0.2 0.1-0.1 0-0.2 0-1.6-0.1-2.9-0.8-0.1 0-0.2-0.1-0.1-0.1-0.1-0.2-0.1-0.1-0.1-0.2 0-0.1 0-0.2l1.7-7.7q0-0.1 0-0.2 0-0.1-0.1-0.2 0 0-0.1-0.1-0.1-0.1-0.2-0.1z"/>
	<path id="Layer" class="s10" d="m57.1 34.8q-3 2.9-6.4 1.6-2.5-1-3.9-4.2-1.4-3.1-1.7-6.6 0-0.2 0-0.3 0-0.1 0.1-0.2 0-0.1 0.1-0.2 0.1-0.1 0.2-0.1l2.9-0.6q0.1-0.1 0.2 0 0.1 0 0.2 0.1 0 0 0.1 0.1 0.1 0.1 0.1 0.2 0.6 3.4 1.7 6.4 1.4 3.5 4.9 1.8 0.3-0.2 0.5-0.4 0.2-0.3 0.4-0.6 0.1-0.3 0.2-0.6 0-0.3 0-0.7l-1.7-7.2q0-0.2 0-0.3 0-0.2 0.1-0.3 0-0.1 0.1-0.2 0.1-0.1 0.2-0.1l2.8-0.8q0.1 0 0.2 0 0.1 0 0.2 0.1 0.1 0 0.1 0.1 0.1 0.1 0.1 0.2 1.4 5.4 2.8 10.7 1.2 5 0.5 7.3-1.3 4.2-7.1 4.5-3.3 0.2-5.5-2.7-1.2-1.6 0.4-2 0.8-0.2 1.5-0.5 1.5-0.6 2.1 0.9 0.8 1.9 2.6 1 3.7-1.8 1.6-6.3 0-0.1-0.1-0.1-0.1-0.1-0.2-0.1-0.1 0-0.2 0-0.1 0-0.1 0.1z"/>
	<path id="Layer" class="s9" d="m90 33.8q-1 0.7-2.4 0.5-0.2 0-0.3-0.1-0.1 0-0.1-0.1-0.1-0.1-0.2-0.2 0-0.1 0-0.2l-0.5-5.9q0-0.1 0-0.2 0-0.1 0.1-0.1 0-0.1 0.1-0.1 0.1-0.1 0.2-0.1 5.1-0.6 4.5 4.1-0.3 1.7-1.4 2.4z"/>
	<path id="Layer" class="s10" d="m125.5 162.5l2.1-4.8q0-0.1 0-0.2 0-0.1 0-0.2 0-0.1-0.1-0.2 0-0.1-0.1-0.2l-3.3-3.4q-0.2-0.2-0.3-0.3-0.1-0.2-0.1-0.4-0.1-0.2-0.1-0.3 0-0.2 0.1-0.4l1.1-3.4q4-1.7 10.4-5.8 14.2-9.1 19.6-26 0.4-1.4 0.6-2.7l4.9-45q0.1-0.2 0.1-0.3 0.1-0.1 0.2-0.2 0.1 0 0.3 0 0.1-0.1 0.2 0l11.9 5.4q0.1 0 0.2 0.1 0 0.1 0.1 0.2 0 0.1 0.1 0.2 0 0.1 0 0.2-5.4 48.9-11.2 97.7-1.6 14.5-8 26.2-11.1 20.9-33.5 26.5-12.7 3.2-25.4 0.3-9.9-2.3-18.2-8-11.3-8-17.6-20.9-0.7-1.5-1.2-4.4-0.4-3.4-2.3-6.3-1.4-2-1.7-3.7-0.9-3.8-1.5-7.6-0.1-0.2 0-0.3 0-0.2 0.1-0.3 0.1-0.2 0.2-0.3 0.2 0 0.3-0.1l12.2-1.4q0.1 0 0.2 0 0.1 0.1 0.1 0.1 0.1 0.1 0.2 0.2 0 0.1 0 0.2 2.1 16.9 12.2 28.2 10.7 12 28.2 12.2 17.5 0.3 28.8-11 5.9-6 9.4-14.6 3.2-7.9 4.3-17.3 1.3-11 2.5-22 0.1-1.2-0.8-0.4-10.8 9.9-25.2 14.7z"/>
	<path id="Layer" class="s10" d="m89.8 148.3l2 4.1q0.1 0.1 0.1 0.2 0 0.1-0.1 0.3 0 0.1-0.1 0.2 0 0.1-0.1 0.2l-3.5 3.6q-0.1 0.1-0.1 0.2-0.1 0.1-0.1 0.2 0 0.1 0 0.2 0 0.1 0 0.2l1.4 4.5q-14.2-4.1-25-14.2-16.4-15.3-18.8-36.3-2.1-18.3-4-36.9 0-0.2 0-0.3 0-0.1 0.1-0.2 0-0.1 0.1-0.1 0.1-0.1 0.2-0.2l11.6-4.8q0.1 0 0.3 0 0.1 0 0.3 0.1 0.1 0.1 0.2 0.2 0.1 0.1 0.1 0.3 2.2 20.3 4.3 39.5 1.8 15.9 13 27.3 7.8 7.8 18.1 11.7z"/>
	<path id="Layer" fill-rule="evenodd" class="s9" d="m113.7 93.6q-1.9 0.2-3.1 1.4-1 0.9-1.5 2.9-0.8 3.3-1.7 6.6 0 0.1 0 0.3-0.1 0.1 0 0.2 0 0.1 0 0.2 0.1 0.1 0.1 0.2l1.9 2.7q0.1 0.1 0.1 0.1 0 0.1 0 0.2 0 0.1-0.1 0.1-0.1 0.1-0.1 0.1-3.3 0.4-6.3-0.7-0.1 0-0.2-0.1-0.1 0-0.2-0.1-0.1-0.1-0.1-0.2-0.1-0.1-0.1-0.2-1.2-4.4-4.1-7.8-0.8-1-0.6 0.2 0.4 1.9 1.8 3.1 1.9 1.7 1.7 3.8-0.1 1.1-1.8 3.3-1.7 2.1-1.9 4.1-0.5 4.7-1.5 9.2-0.3 1.5-0.7 0.1-0.8-2.6-0.3-5.3 0.9-5-1.1-9.5 0-0.1-1.6-2.7-2.7-4.7-0.6-10 0.2-0.4-0.1-0.1-3.5 4.2-5.9-1.1-1-2.4-2.3-4.5-0.1-0.1-1-1.5-1.8-2.5 1.3-3.5 0.1-0.1 0.3-0.1 0.1-0.1 0.2-0.2 0.1-0.1 0.1-0.2 0.1 0 0.1-0.1 0-0.6-1.4-0.1-2.8 0.8-5.4 0.2-0.1-0.1-0.2-0.1-0.1-0.1-0.1-0.1 0-0.1 0-0.2 0-0.1 0-0.2 0.5-1.2-1.2-1.8-1.4-0.5-0.3-1.3 1.6-1.2 2.4-3.2 0.2-0.4 0.6-0.8 0.9-0.7 0.6-1.8-0.2-1.2-0.2-1.2-0.2-3.1 1.7-0.6 0.9 1.2 2.1 0.9 0.1-0.1 0.3-0.1 0.1 0 0.2 0.1 0.1 0 0.2 0 0.1 0.1 0.1 0.2 0.9 0.8 2.1 0.4 0.4-0.2 0.9-0.2 1.5 0.1 1.8-1.8 0.2-1.7 1.7-3.1 0.1-0.1 0.2-0.1 0 0 0.1 0 0.1 0 0.2 0 0 0.1 0 0.2 0.8 3.1-1 5.8-1.8 2.6-1.2 5.8 0.4 2.7 2.8 5.5 1.6 1.9 3.3 2.4 1.9 0.5 3.9-0.3 0.5-0.2 1-0.1 4.5 0.3 10.2-1.3 7.1-2.1 13.3 0.6 3.2 1.4 4 5.1 0.2 0.7 0.1 1.4-0.3 2.5-1.6 0.3-0.2-0.3-0.1 0 1.1 3.4-0.8 5.4-8.8 9.4 1.6 16.5 1.3 0.9 0.9 2.6-0.2 0.6-0.1 1 0.5 4-1.1 1.3-0.4-0.6-0.6-0.9-3.1-3.7-7.7-7.1-1.5-1.1-3-2.8-0.2-0.2-2.6-2.8-4.7-5.3-1.2-12.3 0.1-0.1 0.2-0.2 0-0.1 0.1-0.2 0.1-0.1 0.2-0.2 0.1 0 0.2-0.1l2.2-1.4q0.5-0.3-0.1-0.2zm-31.7-16.1q-1.8 1.7 0.3 1.3 0.4 0 0.9 0 1.7 0.1 1.2-1.4 0 0 0-0.1 0-0.1 0.1-0.2 0 0 0.1-0.1 0 0 0.1 0 1.6-0.5-0.4-0.7-0.2-1.4-1.1-0.8-0.5 0.3-0.9 0.4-1.6 0.4-0.3 1.6z"/>
	<path id="Layer" class="s11" d="m84.3 76.3q-0.7 1.3-2.3 1.2-1.3-1.2 0.3-1.6 0.4-0.1 0.9-0.4 0.9-0.6 1.1 0.8z"/>
	<path id="Layer" class="s8" d="m84.3 76.3q2 0.2 0.4 0.7-0.1 0-0.1 0-0.1 0.1-0.1 0.1-0.1 0.1-0.1 0.2 0 0.1 0 0.1 0.5 1.5-1.2 1.4-0.5 0-0.9 0-2.1 0.4-0.3-1.3 1.6 0.1 2.3-1.2z"/>
	<path id="Layer" class="s9" d="m75.2 83.3q0.5-0.5 1 0 0.1 0.1 0.1 0.2 0 0.1 0 0.2 0 0.1 0 0.2-0.1 0.1-0.1 0.2-0.6 0.6-1 0-0.1-0.1-0.1-0.2-0.1-0.1-0.1-0.2 0-0.1 0.1-0.2 0-0.1 0.1-0.2z"/>
	<path id="Layer" class="s9" d="m122.3 111.6q-1.2-1.7-0.5-3.7 0.6-1.8 0.6-2 0.9-3.3 3.1-5.1 0.3-0.2 0.5-0.5 0.2-0.2 0.3-0.5 0.2-0.3 0.3-0.6 0.2-0.3 0.2-0.6 0.6-2.8 1.4-3.2 0.1-0.1 0.2-0.1 0.1 0 0.2 0.1 0 0.1 0.1 0.2 0.1 0.1 0.1 0.2 0.4 2.9-1.6 5.1-1 1.2-2.9 5.2-1.5 3.1-0.2 6.2 0 0.1 0 0.2 0 0.2 0 0.3 0 0.1 0 0.2-0.1 0.1-0.2 0.1-0.5 0.5-1-0.5-0.3-0.5-0.6-1z"/>
	<path id="Layer" class="s9" d="m107.1 112.8l1.5 9.4q0.1 0.5-0.3 0.2-2-1.6-2-3.4 0-4.4-1.7-8.1-0.1-0.1-0.1-0.3 0-0.1 0.1-0.3 0.1-0.1 0.2-0.2 0.1 0 0.3-0.1 2.7-0.2 2.1 1.8-0.1 0.6-0.1 1z"/>
	<path id="Layer" class="s11" d="m15.3 125q-0.7 2.7-3.5 3.5 1.3-2.2 3.4-3.5z"/>
	<path id="Layer" class="s9" d="m109.4 136.5q-0.4 1.4-0.8 0.2 0-0.2 0-0.5-0.1-3.9-0.3-7.4-0.1-1.8 0.5-0.1 1.6 3.9 0.6 7.8z"/>
	<path id="Layer" class="s12" d="m24.1 145.7l-3.8 4.3q-0.9 1.1-1.3-0.2-1.6-5.9-2.9-11.9-0.3-1.1-0.5-0.6-0.1 0.2-0.1 0.4 1.3 7 2.2 14 0.1 0.6-0.4 0.3l-5.6-4.2q-0.4-0.3-0.1 0.2l6.4 9q0.4 0.6 0.5 1.1l1 6.4q0.1 0.6-0.3 0.1-2.5-3.5-6.8-2.1-2.1 0.7-2.7 0.9-2.4 0.6-2.5-1.8-0.1-3.9 2.1-4.5 0.5-0.1 2.3 0.2 4.4 0.7 0.8-3-2.8-2.9-5.4-6-1.2-1.4-1.4-2.5-0.5-2.3 2.6-2.3 2.5 0 3.9-0.1 0.1 0 0.2-0.1 0.1 0 0.1-0.1 0.1-0.1 0.1-0.2 0.1-0.1 0.1-0.2 0-3-1.5-5.6-0.2-0.3-0.3-0.5 0-0.3-0.1-0.5 0-0.3 0.1-0.6 0.1-0.2 0.2-0.5 1.1-2.4 2.9-4.4 3.1-3.7 5.7-0.6 0.5 0.7 1.8 1.9 0.8 0.7 1.2 1.8 0 0.1 0.1 0.2 0 0.1 0 0.3 0 0.1 0 0.2-0.1 0.1-0.1 0.2l-1.6 5.2q-0.6 1.7 1.2 1.1l5-2.1q0.1 0 0.2 0 0.1 0 0.2 0 0.1 0.1 0.2 0.1 0.1 0.1 0.2 0.2 1.5 1.9 0.8 5.1-0.7 3.6-1.8 7.2-0.3 1-0.1 1.6 0.3 1.5 2.2 0.1 3.5-2.5 5.1 2.1 0.1 0.2 0 0.4 0 0.3-0.1 0.5-0.2 0.1-0.4 0.2-0.2 0.1-0.5 0.1-2.6-0.1-3.3 1.8-1.1 2.8-2.6 6.1-0.1 0.1-0.2 0.2-0.1 0.1-0.2 0.1-0.1 0-0.3 0-0.1-0.1-0.2-0.2-1-1.2-2.9-0.5-0.2 0.1-0.3 0.1-0.2-0.1-0.3-0.1-0.2-0.1-0.3-0.2-0.1-0.2-0.1-0.3l-1.9-7.2q0-0.2 0-0.5-0.1-0.2 0-0.5 0-0.2 0-0.4 0.1-0.3 0.2-0.5l3.5-8.6q0.2-0.7-0.2-0.1z"/>
	<path id="Layer" class="s12" d="m201 138.6l-2.8 11.1q-0.3 1.3-1.3 0.4-2.3-2.4-3.8-4.7-0.5-0.7-0.6-0.1 0 0.2 0.1 0.4 1.7 4.3 3.5 8.2 0.1 0.2 0.2 0.5 0 0.2 0.1 0.5 0 0.2 0 0.5 0 0.2-0.1 0.4l-1.9 8q0 0.1-0.1 0.1 0 0.1-0.1 0.1-0.1 0.1-0.2 0.1-0.1 0-0.2 0-1.5-0.5-3.5 0.3-0.1 0-0.2 0-0.1 0-0.2 0-0.1-0.1-0.2-0.1-0.1-0.1-0.1-0.2-1.2-2.7-2.3-5.5-0.4-1.3-1.2-1.7-1-0.6-2.2-0.4-0.2 0-0.4-0.1-0.3-0.1-0.4-0.2-0.2-0.2-0.2-0.5-0.1-0.2 0-0.4 1.4-4.2 4.3-2.4 1.3 0.8 1.7 0.9 1.3 0.3 1.5-1 0.1-0.5-0.3-1.4-2-4.8-2-9.9 0-3.3 4.3-1.8 1.4 0.6 2.6 1.4 1.8 1.2 0.3-3.4-0.2-0.6-0.4-1.1-1.4-3.1 1.4-5.1 0.4-0.3 0.6-0.7 1.2-2 3.2-1.9 1.5 0 2.9 1.5 2.1 2.2 3.1 5.1 0 0.1 0 0.2 0.1 0.1 0.1 0.3 0 0.1-0.1 0.2 0 0.1 0 0.3l-1.9 5.5q0 0.3 0 0.6 0.1 0.2 0.3 0.5 0.1 0.2 0.4 0.3 0.3 0.1 0.6 0.1 9-0.9 4.9 4.5-0.5 0.6-3.3 3.4-2.4 2.3-4.1 4.9-0.7 1 0.5 1h4.7q0.1 0 0.2 0 0.1 0 0.3 0.1 0.1 0 0.2 0.1 0.1 0.1 0.1 0.2 1.7 1.8 0.8 4.6-0.7 2.3-2.7 1-5.5-3.3-9.3 1.5-0.3 0.5-0.3-0.1 0.2-2.5 0.6-4.9 0.4-2.1 1.8-4 2.7-3.6 5-7.3 0.9-1.4-0.5-0.3l-4.3 3.6q-1 0.8-0.8-0.5l1.8-12.7q0.1-0.9-0.1 0z"/>
	<path id="Layer" class="s9" d="m107.2 142.1q0.1-0.1 0.1-0.1 0.1-0.1 0.2-0.1 0 0 0.1 0.1 0.1 0 0.1 0.1 2 2.9 3.2 6.3 1.1 3 0.2 5.7-1 3.3-3.3 6 0 0.1-0.1 0.1-0.1 0.1-0.2 0.1-0.1 0-0.2-0.1 0 0-0.1-0.1-1.5-2.1-3-5.5-1-2.4-0.6-4.4 0.1-0.5 1.7-4 0.8-1.9 1.9-4.1z"/>
	<path id="Layer" class="s9" d="m105.7 171.7q-4.3-1.7-5.9-4.8-1.6-3-1.7-10.1 0-0.1 0-0.1 0-0.1 0.1-0.2 0.1 0 0.2-0.1 0.1 0 0.2 0.1 9.1 2.8 7.7 14.9 0 0.1-0.1 0.2 0 0.1-0.1 0.1-0.1 0-0.2 0.1-0.1 0-0.2-0.1z"/>
	<path id="Layer" class="s9" d="m112.2 158.7q1.9-1.5 4.3-2.2 0-0.1 0.1 0 0.1 0 0.2 0 0 0.1 0.1 0.1 0 0.1 0 0.2-0.5 6.3-0.9 8-1.2 5.1-6.8 7.3-0.1 0-0.2 0-0.1 0-0.1-0.1-0.1 0-0.2-0.1 0-0.1-0.1-0.1-0.8-4.7 0.6-8.9 0.8-2.6 3-4.2z"/>
	<path id="Layer" fill-rule="evenodd" class="s12" d="m51.8 187.9q5-0.7 4.6 4.9-0.7 8.9-6.3 15.8-1.4 1.6-0.2 3.3 3.9 5.6 6.1 13.5 0 0.2 0 0.4 0 0.2-0.1 0.3-0.1 0.2-0.3 0.3-0.1 0.2-0.3 0.2-2.1 0.5-3.5-1.8-2.7-4.3-5.3-8.6 0-0.1-0.1-0.2-0.1 0-0.2 0-0.1-0.1-0.2 0-0.1 0-0.1 0.1-2.2 1.6-4 3.8-2.6 3-4.8 1.2-1.5-1.2-1.7-3.6-0.3-3.3 0.9-7.3 0.6-2.2-0.9-2.3-0.8-0.1-1.7 0.7-1.6 1.3-3.2 2.7-1.8 1.6-2.9 1.8-1.9 0.5-2.9-1.3-0.5-1-0.1-2.7 0.6-2.4 0.9-3.9 0.6-3.7-2.9-2.4-7.5 2.7-9.9-4.3-0.1-0.1-0.1-0.3 0-0.1 0-0.2 0-0.1 0-0.2 0.1-0.1 0.1-0.2 1.7-3 5.5-4.2 2.4-0.7 1.4-2-0.5-0.5-1.5-0.9-2.2-0.8-4.6-0.8-2.4-0.1-3.3-0.6-1.9-1.2-1.1-3.8 0.1-0.1 0.1-0.2 0.1-0.1 0.2-0.2 0-0.1 0.1-0.2 0.1-0.1 0.2-0.2l4.7-3.1q0.1-0.1 0.2-0.3 0.1-0.1 0.1-0.3 0-0.2-0.1-0.3-0.1-0.2-0.2-0.3-2.6-1.8-4.6-2.6-2.9-1.3-2.6-4.1 0.3-2.5 0.3-2.6 0.1-1.3 0.2-2.6 0.3-3.5 3.8-3.8 2.1-0.2 4.4-0.3 2.3 0 2.6 2.3 0.3 2.7 1 5.7 0.2 1 0.7-0.1 1.4-3.2 3.3-6.1 0.1-0.1 0.2-0.2 0.1-0.1 0.2-0.1 0.1-0.1 0.2-0.1 0.1 0 0.2 0 1.9 0.2 2.2 2.5 0.6 4.9 1.6 9.9 0.2 1 0.7 1.3 0.9 0.5 1.7-1.4 0.5-1.4 1.7-2.4 1.6-1.4 3 0.6 0.8 1.1 1.5 4.6 0 0.1 0.1 0.2 0.1 0.2 0.1 0.3 0.1 0 0.2 0.1 0.1 0 0.2 0 0.5 0 0.3-1.1-0.7-3.2-1.9-5.2-1.1-1.9-2.8-1.5-1.6 0.4-3 2.5-1.1 1.8-1-0.3 0.2-3.3 2-3.9 1.6-0.6 0.3-1.6-1.5-1.1-2.1-2.4-0.7-1.2-0.1-3 1.1-2.9 2.6-5.9 0.1-0.2 0.3-0.4 0.1-0.1 0.3-0.2 0.3-0.1 0.5-0.1 0.2 0 0.4 0.1 2.2 0.8 4.3 1.6 1.4 0.4 1.9 1.1 0.7 1 0.5 2.3-0.3 2.3-0.3 2.4-0.1 1.3-0.3 2.4-0.5 1.9 0.9 0.6l2.5-2.1q0.1-0.1 0.2-0.2 0.1 0 0.2-0.1 0.2 0 0.3 0 0.1 0 0.2 0 2.5 0.5 2.2 2.9-0.2 1.1-0.2 1.2-0.2 4.2-0.7 8.3 0 0.2 0 0.3 0 0.1 0.1 0.2 0 0.2 0.1 0.2 0 0.1 0.1 0.2 0.9 0.5 1.7-0.6 2-3 3.5-0.8 0.7 1 0.8 2.7 0.2 3.3 0.2 6.5 0 0.1 0.1 0.2 0 0.1 0.1 0.2 0 0 0.1 0 0.1 0.1 0.2 0.1zm-12.1-5.1l-2.6 0.3q-0.1 0-0.2 0 0 0-0.1 0-0.1 0-0.1 0.1-0.1 0-0.1 0-0.1 0.3 0.2 0.4 1.8 0.7 3.5 1.4 1.3 0.5 2 1.5 2.9 3.9-3 2-0.6-0.2-0.8 0-0.1 0.1-0.1 0.1 0 0.1 0 0.2 0.1 0.1 0.2 0.2 0 0.1 0.2 0.2 2.4 1.3 4.7 2.7 2.4 1.5 3.6 4.1 1 2.4 2 4.7 0.2 0.5 0.4 0 1-2.4-0.4-5.8-3.1-6.9-6.4-13.8-0.1-0.2-0.2-0.4-0.1-0.3-0.1-0.5-0.1-0.2-0.1-0.5 0-0.2 0.1-0.5 0.4-4 1.3-6.8 0.1-0.2 0-0.4-0.1-1-0.5-0.1-1.1 2.1-1.9 4.1-0.6 1.3-1.2 0l-5.4-11.6q-0.2-0.5-0.1 0.1l5.5 17.7q0 0.1 0 0.2 0 0.1-0.1 0.2 0 0.1-0.1 0.1-0.1 0.1-0.2 0.1zm-17.5 2.4l-8.6 0.4q0 0-0.1 0-0.1 0-0.1 0.1-0.1 0-0.1 0.1 0 0 0 0.1 0 0.2 0.4 0.2 4.6 0.8 9.3 1.8 2.1 0.4 3.4 1.8 1.7 2.1 3.5 5.2 0 0.1 0 0.2 0 0.1 0 0.2-0.1 0.2-0.2 0.2-0.1 0.1-0.2 0.2-5 1.3-8.6 2.2-0.2 0.1-0.3 0.2-1.8 1 0.4 0.5 0.3-0.1 0.5-0.1 5-0.5 10-0.7 0.1 0 0.3 0 0.1 0 0.2 0 0.1 0.1 0.2 0.1 0.1 0.1 0.2 0.2 1.9 1.5 0.4 3.3-0.9 1.2-1 1.3-1.3 1.9-2.6 3.9-0.6 0.9 0.5 0.1 2.9-2.1 5.9-4.2 0.1 0 0.2-0.1 0.1 0 0.2 0 0.1 0 0.2 0.1 0.1 0 0.2 0.1l11.5 11.1q0 0 0.1 0.1 0.1 0 0.2 0 0.1 0 0.2-0.1 0-0.1 0.1-0.1 1-2.2-0.7-3.9-2.4-2.7-4.8-5.3-0.2-0.3-0.4-0.5-0.1-0.2-0.2-0.5-0.1-0.3-0.1-0.6-0.1-0.2-0.1-0.5 0.7-14.4-1.8-2.7-0.1 0.2-0.2 0.3-0.1 0.1-0.2 0.1-0.1 0.1-0.3 0-0.1 0-0.2-0.1-1.8-1.5-2.9-2.9-1-1.3-1.4-3.8-0.7-5.2-1.7-10.5-0.4-2-0.4 0l-0.4 9q0 0.5-0.4 0.2-2.2-1.7-3.9-4-1.5-2-2.2-5.4-1-4.5-1.9-9.1-0.2-0.8-0.2 0 0 4.2 0.2 8.6 0.1 1.4-0.8 0.3-5.3-5.9-10.6-12.2-0.1-0.2-0.2-0.3-1.2-0.8-0.2 0.5 5.1 6.8 10.1 14 0.6 0.9-0.4 0.9z"/>
	<path id="Layer" fill-rule="evenodd" class="s12" d="m191.5 204.6q0 1.5 0.8 4.5 1.2 3.8-2.5 4.1-0.1 0-0.2 0-0.1 0-0.3-0.1-0.1 0-0.2-0.1-0.1 0-0.2-0.1-2.9-2-5.5-4.3-0.9-0.7-1.6-0.8-1.7-0.2-1 2.1 1.3 4.8 0.6 8.7-0.4 2-1.6 2.7-1.7 1.1-3.7-0.9-2.1-2-4.8-4.4-0.1-0.1-0.2-0.1-0.1-0.1-0.2 0-0.2 0-0.3 0.1-0.1 0-0.1 0.1-2.3 3.8-4.2 7.7-1.5 3.3-5.1 2.5-0.1 0-0.2-0.1 0 0-0.1-0.1 0-0.1-0.1-0.2 0-0.1 0.1-0.1 1.8-6.9 5.3-12.5 0.1 0 0.7-0.9 1.5-2-0.3-4.5-5.1-6.4-5.9-15.1-0.2-1.9 0.8-3.5 1.3-2.1 3.1-1.2 0.2 0.1 0.4 0 0.3 0 0.4-0.1 0.2-0.1 0.3-0.3 0.1-0.2 0.1-0.4 0-3.3 0.3-6.7 0.2-1.7 0.8-2.6 1.5-2.2 3.5 0.8 1 1.3 1.5 0.7 0.4-0.3 0.3-1.1-0.4-4-0.8-8-0.2-2 0.6-3.1 1.8-2.6 4.3 1.1 1.8 2.6 1.4-0.4l-0.5-4.9q-0.2-2.2 1.7-2.9l5-1.9q0.3-0.1 0.5-0.1 0.2 0 0.5 0.1 0.2 0.1 0.4 0.2 0.1 0.2 0.3 0.4 1.3 2.8 2.4 5.6 1.4 3.4-2 5.5-0.2 0.1-0.3 0.4-0.2 0.2-0.2 0.5 0 0.2 0.2 0.5 0.1 0.2 0.4 0.4 2.5 1.3 1.9 4.2-0.3 1.4-0.9 0.1-0.4-0.8-1.1-1.6-2.6-3-4.7 0.3-1.3 1.8-2 5.6-0.1 0.4 0.1 0.7 0.2 0.5 0.7 0.1 0.1-0.1 0.2-0.5 0.5-2.7 2-5 0-0.1 0.1-0.2 0.1-0.1 0.2-0.1 0.1-0.1 0.2-0.1 0.1-0.1 0.2-0.1 2.3-0.4 3.2 2.1 1.5 3.9 2.7 0.9 0.3-0.8 0.5-1.9 0.4-3.8 0.9-7.6 0.3-1.9 1.5-2.9 0.2-0.2 0.5-0.3 0.3 0 0.6 0 0.3 0.1 0.5 0.2 0.3 0.2 0.4 0.5 1.6 2.8 2.7 5.8 0.4 1 0.9 0.6 0.1 0 0.2-0.1 0-0.1 0.1-0.2 0-0.1 0-0.3 0.1-0.1 0.1-0.3 0.1-3.5 1.5-6.7 0.1-0.1 0.2-0.2 0-0.1 0.1-0.1 0.1-0.1 0.2-0.2 0.1 0 0.3 0 3.4-0.5 7.5 0.8 0.3 0 0.5 0.2 0.2 0.1 0.4 0.3 0.2 0.2 0.3 0.4 0.2 0.2 0.3 0.4 0.8 2.5 0.7 5.5 0 0.1 0.1 1.8 0 2.2-1.9 3.2-1.4 0.7-1.6 0.8-1.7 1.1-3.5 2.1-0.2 0.1-0.3 0.3-0.1 0.2-0.1 0.4 0 0.3 0.1 0.5 0.1 0.2 0.3 0.3 1.8 1.3 3.6 2.4 3.2 2 1 4.6-1.2 1.5-3 1.3-3.7-0.4-6.5 1.2-1.7 0.9-0.1 1.8l4.3 2.3q3.1 1.6 2.3 3.7-2.7 6.6-10.2 3.9-2.7-1-2.8 1.9zm-15.7-28.7q-0.7-1.8-1.9-4-0.1-0.2-0.3-0.3-0.5-0.3-0.2 0.6 0.8 2.8 1.2 5.6 0.2 2.1-0.7 4.2-3.1 6.8-6.3 13.6-0.6 1.4-0.6 2.5 0.1 1.1 0.5 2.6 0.2 0.7 0.4 0 1.2-2.6 2.5-4.9 1.1-2.2 3.2-3.7 2.3-1.6 4.6-3 1.8-1.1-0.3-0.7l-3.4 0.8q-1 0.3-0.7-0.7 1.2-3.6 5.2-4.4 2.4-0.4 0.9-1-0.3-0.1-0.8-0.1-1-0.1-1.9-0.5-0.1-0.1-0.2-0.1 0-0.1-0.1-0.2 0-0.1 0-0.2 0-0.1 0-0.2l5.4-17q0.2-0.6-0.1 0l-5.3 11.1q-0.6 1.1-1.1 0zm8.5 16.2q0-4.5-0.5-9-0.2-2.1-0.5 0.2-0.8 6.3-1.9 12.5 0 0.2-0.1 0.3 0 0.1-0.1 0.2 0 0.1-0.1 0.2 0 0.1-0.1 0.2l-3.4 3.4q-0.4 0.5-0.5-0.1l-1.5-5.3q-0.1-0.1-0.1-0.2-0.1-0.1-0.1-0.2-0.1-0.1-0.2-0.2-0.1-0.1-0.1-0.1-0.6-0.1-0.5 1 0.1 4 0.1 8 0 0.1 0 0.2 0 0.2 0 0.3-0.1 0.1-0.1 0.2-0.1 0.1-0.2 0.2l-5.3 6q-0.2 0.3-0.4 0.6-0.1 0.3-0.2 0.6-0.2 0.3-0.2 0.6-0.1 0.4-0.1 0.7 0.1 2.3 1.7 0.7 5.1-5 10.6-10.5 0.1-0.1 0.2-0.1 0.2-0.1 0.3-0.1 0.2 0 0.3 0 0.1 0.1 0.2 0.1l6 4.4q1.6 1.2 0.4-0.4-1.3-1.8-2.4-3.5 0-0.1-1.4-1.7-1.4-1.8 0.7-3.3 0.1-0.1 0.2-0.1 0.1 0 0.3-0.1 0.1 0 0.2 0 0.1 0 0.2 0 4.9 0.2 9.7 0.7 0.3 0 0.7 0.1 0.8 0.4 0.8-0.1 0-0.1-0.1-0.2 0 0-0.1-0.1-0.1-0.1-0.2-0.2-0.2 0-0.3-0.1l-8.9-2.1q-0.1-0.1-0.3-0.2-0.1-0.1-0.2-0.3 0-0.1 0-0.3 0-0.2 0.1-0.3l4.3-5.7q0.1-0.1 0.2-0.2 0.1-0.1 0.2-0.2 0.1 0 0.2-0.1 0.1 0 0.2-0.1 4.5-1.1 11.3-2.1 0.6-0.2 0.4-0.5 0-0.1 0-0.1-0.1-0.1-0.2-0.1-0.1 0-0.2-0.1-0.1 0-0.2 0l-8.5-0.3q-0.7 0-0.3-0.6 4.3-6.3 8.8-12.5 0.2-0.2 0.5-0.5 0.3-0.2 0.3-0.4-0.1-0.7-0.7 0l-9.2 10.6q-1.3 1.6-1.3-0.5 0.1-3.2 0.3-6 0-0.3 0-0.6-0.4-2.1-0.8 0.5-0.6 3.9-1.4 7.8-0.6 2.8-2.2 4.9-1.8 2.3-3.9 4.4-0.4 0.4-0.4-0.2z"/>
	<path id="Layer" class="s8" d="m40.1 182.2l-5.5-17.7q-0.1-0.6 0.1-0.1l5.4 11.6q0.6 1.3 1.2 0 0.8-2 1.9-4.1 0.4-0.9 0.5 0.1 0.1 0.2 0 0.4-0.9 2.8-1.3 6.8-0.1 0.3-0.1 0.5 0 0.3 0.1 0.5 0 0.2 0.1 0.5 0.1 0.2 0.2 0.4 3.3 6.9 6.4 13.8 1.4 3.4 0.4 5.8-0.2 0.5-0.4 0-1-2.3-2-4.7-1.2-2.6-3.6-4.1-2.3-1.5-4.8-2.7-0.1-0.1-0.1-0.2-0.1-0.1-0.2-0.2 0-0.1 0-0.2 0 0 0.1-0.1 0.2-0.2 0.7 0 6 1.9 3.1-2-0.7-1-2-1.5-1.7-0.7-3.5-1.4-0.3-0.1-0.2-0.3 0-0.1 0.1-0.1 0-0.1 0.1-0.1 0.1 0 0.1 0 0.1 0 0.2 0l2.6-0.3q0.1 0 0.2-0.1 0.1 0 0.1-0.1 0.1-0.1 0.1-0.2 0-0.1 0-0.2z"/>
	<path id="Layer" class="s8" d="m175.8 175.9q0.5 1.1 1.1 0l5.3-11.2q0.3-0.5 0.1 0.1l-5.4 17q0 0.1 0 0.2 0 0.1 0 0.2 0.1 0.1 0.1 0.2 0.1 0 0.2 0.1 0.9 0.4 1.9 0.5 0.5 0 0.8 0.1 1.5 0.6-0.9 1-4 0.8-5.2 4.4-0.3 1 0.7 0.7l3.4-0.8q2.1-0.4 0.3 0.7-2.3 1.4-4.6 3-2.1 1.5-3.2 3.6-1.3 2.4-2.5 5-0.2 0.7-0.4 0-0.4-1.5-0.5-2.6 0-1.1 0.6-2.5 3.2-6.8 6.3-13.6 0.9-2.1 0.7-4.2-0.4-2.8-1.2-5.6-0.3-0.9 0.2-0.6 0.2 0.1 0.3 0.3 1.2 2.2 1.9 4z"/>
	<path id="Layer" class="s8" d="m22.2 185.2q1 0 0.4-0.9-5-7.2-10.1-14-1-1.3 0.2-0.5 0.1 0.1 0.2 0.3 5.3 6.3 10.6 12.2 0.9 1.1 0.8-0.3-0.2-4.4-0.2-8.6 0-0.8 0.2 0.1 0.9 4.5 1.9 9 0.7 3.4 2.2 5.4 1.7 2.3 3.9 4 0.4 0.3 0.4-0.2l0.4-9q0-2 0.4 0 1 5.3 1.7 10.5 0.4 2.5 1.4 3.8 1.1 1.4 2.9 2.9 0.1 0.1 0.2 0.1 0.2 0.1 0.3 0 0.1 0 0.2-0.1 0.1-0.1 0.2-0.3 2.5-11.7 1.8 2.7 0 0.3 0.1 0.5 0 0.3 0.1 0.6 0.1 0.3 0.2 0.5 0.2 0.2 0.4 0.5 2.4 2.6 4.8 5.3 1.7 1.7 0.7 3.9-0.1 0-0.1 0.1-0.1 0.1-0.2 0.1-0.1 0-0.2 0-0.1-0.1-0.1-0.1l-11.5-11.1q-0.1-0.1-0.2-0.1-0.1-0.1-0.2-0.1-0.1 0-0.2 0-0.1 0.1-0.2 0.1-3 2.1-5.9 4.2-1.1 0.8-0.5-0.1 1.3-2 2.6-3.9 0.1-0.1 1-1.3 1.5-1.8-0.4-3.3-0.1-0.1-0.2-0.2-0.1 0-0.2-0.1-0.1 0-0.2 0-0.2 0-0.3 0-5 0.2-10 0.7-0.2 0-0.5 0.1-2.2 0.5-0.4-0.5 0.1-0.1 0.3-0.2 3.6-0.9 8.6-2.2 0.1-0.1 0.2-0.2 0.1 0 0.2-0.2 0-0.1 0-0.2 0-0.1 0-0.2-1.8-3.1-3.5-5.2-1.3-1.4-3.4-1.8-4.7-0.9-9.3-1.8-0.4 0-0.4-0.2 0-0.1 0-0.1 0-0.1 0.1-0.1 0-0.1 0.1-0.1 0.1 0 0.1 0z"/>
	<path id="Layer" class="s9" d="m99.8 171.3q5 1.7 6.5 6.7 0.4 1.6 0.2 7.9 0 0.1-0.1 0.2 0 0.1-0.1 0.1-0.1 0.1-0.2 0.1-0.1 0-0.1 0-4.8-1.7-6.6-6.1-0.6-1.4-0.8-4.5-0.3-2.2-0.5-4.5-0.1-0.1 0-0.2 0-0.1 0-0.2 0.1-0.1 0.2-0.2 0.1 0 0.1-0.1 0.4 0 0.7 0.3 0.4 0.4 0.7 0.5z"/>
	<path id="Layer" class="s9" d="m112.1 173.1q2-1.5 4.4-2.4 0 0 0.1 0 0.1 0 0.2 0.1 0 0 0.1 0.1 0 0.1 0 0.2-0.5 5.5-0.6 6.7-1 6.1-7.1 8.5-0.1 0.1-0.2 0.1-0.1-0.1-0.1-0.1-0.1 0-0.2-0.1 0-0.1-0.1-0.2-0.8-4.7 0.6-9 0.9-2.4 2.9-3.9z"/>
	<path id="Layer" class="s8" d="m184.3 192.1q0 0.6 0.4 0.2 2.1-2.1 3.9-4.4 1.6-2.1 2.2-4.9 0.7-3.9 1.4-7.8 0.4-2.6 0.8-0.5 0 0.3 0 0.6-0.2 2.8-0.3 6 0 2.1 1.3 0.5l9.2-10.6q0.6-0.7 0.7 0 0 0.2-0.3 0.4-0.3 0.3-0.5 0.5-4.5 6.2-8.8 12.5-0.4 0.6 0.3 0.6l8.5 0.3q0.1 0 0.2 0 0.1 0.1 0.2 0.1 0.1 0 0.2 0.1 0 0 0 0.1 0.2 0.3-0.5 0.5-6.7 1-11.2 2.1-0.1 0.1-0.2 0.1-0.1 0.1-0.2 0.1-0.1 0.1-0.2 0.2-0.1 0.1-0.2 0.2l-4.3 5.7q-0.1 0.1-0.1 0.3 0 0.2 0 0.3 0.1 0.2 0.2 0.3 0.2 0.1 0.3 0.2l8.9 2.1q0.1 0.1 0.3 0.1 0.1 0.1 0.2 0.2 0.1 0.1 0.1 0.1 0.1 0.1 0.1 0.2 0 0.5-0.8 0.1-0.4-0.1-0.7-0.1-4.8-0.5-9.7-0.7-0.1 0-0.2 0-0.1 0-0.2 0-0.2 0.1-0.3 0.1-0.1 0-0.2 0.1-2.1 1.5-0.7 3.3 1.4 1.6 1.4 1.7 1.1 1.7 2.4 3.5 1.2 1.6-0.4 0.4l-6-4.4q-0.1 0-0.2-0.1-0.1 0-0.3 0-0.1 0-0.3 0.1-0.1 0-0.2 0.1-5.5 5.5-10.6 10.5-1.6 1.6-1.7-0.7 0-0.3 0.1-0.7 0-0.3 0.2-0.6 0.1-0.3 0.2-0.6 0.2-0.3 0.4-0.6l5.3-6q0.1-0.1 0.2-0.2 0-0.1 0.1-0.2 0-0.1 0-0.3 0-0.1 0.1-0.2-0.1-4-0.2-8-0.1-1.1 0.5-1 0 0 0.1 0.1 0.1 0.1 0.2 0.2 0 0.1 0.1 0.2 0 0.1 0.1 0.2l1.5 5.3q0.1 0.6 0.5 0.1l3.4-3.4q0.1-0.1 0.1-0.2 0.1-0.1 0.1-0.2 0.1-0.1 0.1-0.2 0.1-0.1 0.1-0.3 1.1-6.2 1.9-12.5 0.3-2.3 0.5-0.2 0.5 4.5 0.5 9z"/>
	<path id="Layer" class="s11" d="m47.6 173.6q0.5-0.2 0.4 0.8 0 0.3-0.1 0.6-0.8 1.6-0.7-0.6 0-0.1 0-0.2 0-0.2 0.1-0.3 0-0.1 0.1-0.1 0.1-0.1 0.2-0.2z"/>
	<path id="Layer" class="s9" d="m102.2 198.3q-2.5-1.5-3.2-5.3-0.6-3.6-0.8-7.6-0.1-1.1 0.7-0.4 1 0.8 2.4 1.4 4.5 2 5 6.5 0.3 3.3 0.4 3.6 0.7 5-4.5 1.8z"/>
	<path id="Layer" class="s9" d="m109.9 189.4q1.9-2.9 6.6-4.4 0.1-0.1 0.1 0 0.1 0 0.2 0 0 0.1 0.1 0.1 0 0.1 0 0.2-0.3 5.4-1.2 8.7-1.2 5-6.4 5.4-0.1 0-0.2 0-0.1 0-0.2-0.1-0.1-0.1-0.1-0.2-0.1 0-0.1-0.2-1.2-5.7 1.2-9.5z"/>
	<path id="Layer" class="s9" d="m59.4 225.1q-0.4-0.3-0.7-1l-6.2-11.9q0-0.1-0.1-0.2 0-0.1 0-0.2 0-0.1 0-0.3 0.1-0.1 0.1-0.2l4.3-8.4q0.4-0.8 0.8-0.1 12.1 20.7 33.8 26.6 9.4 2.5 19.9 1.9 31.3-1.9 47.5-30.8 0.6-1.1 0.9 0.1 1.3 5.4 4.8 10.5 0.1 0.1 0.2 0.2 0 0.1 0 0.3 0 0.1 0 0.3 0 0.1-0.1 0.2l-6.4 12.1q-0.3 0.7-0.8 1.2-12.3 10.2-26 16.7-11 5.3-22.3 10-0.2 0-0.3 0-0.1 0.1-0.2 0.1-0.1 0-0.3-0.1-0.1 0-0.2 0-15.6-6.1-29.7-13.8-9.9-5.4-19-13.2z"/>
</svg>