<svg version="1.2" xmlns="http://www.w3.org/2000/svg" viewBox="0 0 156 224" width="156" height="224">
	<title>Kozloduy-pdf</title>
	<style>
		.s0 { fill: #c4161d;stroke: #ed1c24;stroke-width: .4 } 
		.s1 { fill: #ffffff;stroke: #231f20;stroke-width: .4 } 
		.s2 { fill: none;stroke: #e3b839;stroke-width: 1.7 } 
		.s3 { fill: #ffffff;stroke: #ffffff;stroke-width: .4 } 
		.s4 { fill: #ffffff } 
		.s5 { fill: #e3b839;stroke: #e3b839;stroke-width: .4 } 
		.s6 { fill: none;stroke: #c4161d;stroke-width: .4 } 
		.s7 { fill: none;stroke: #e3b839;stroke-width: 1.4 } 
		.s8 { fill: #e3b839 } 
		.s9 { fill: #1d4e9e;stroke: #231f20;stroke-width: .4 } 
		.s10 { fill: #e3b839;stroke: #e3b839;stroke-width: 1.1 } 
	</style>
	<path id="Path 1" class="s0" d="m1.8 2.8h152.1l-8.9 158.8c-8.4 75.6-118.9 85-135.5 2.4z"/>
	<path id="Path 2" class="s1" d="m8.8 145.1l10.1-3.8 13.8 9 6.6-3.4 5.1-5.5 17.7 8.9 17-7.9 15.2 8.2c4.5-3 8.8-5.1 13.3-8.2l15.4 7.9 16.2-7.4 7.1 2.3-1.3 23.3c-12.2 56.9-86 73.5-121.1 28.8-6.1-7.8-9.9-17.2-13.2-28.8-1.5-6.9-1.3-15.6-1.9-23.4z"/>
	<path id="Path 3" class="s2" d="m79 153.8c6.4 0 11.6 12.4 11.6 27.8 0 15.3-5.2 27.7-11.6 27.7-6.4 0-11.6-12.4-11.6-27.7 0-15.4 5.2-27.8 11.6-27.8zm-24 13.9c3.2-5.6 16.5-3.8 29.8 3.8 13.3 7.7 21.4 18.4 18.2 23.9-3.2 5.6-16.6 3.9-29.8-3.8-13.3-7.6-21.4-18.3-18.2-23.9zm0 27.8c-3.2-5.6 4.9-16.3 18.2-24 13.2-7.6 26.6-9.3 29.8-3.8 3.2 5.6-4.9 16.3-18.2 23.9-13.3 7.7-26.6 9.4-29.8 3.9z"/>
	<path id="Path 4" class="s3" d="m73.6 181.6c0-3 2.4-5.4 5.4-5.4 2.9 0 5.3 2.4 5.3 5.4 0 2.9-2.4 5.3-5.3 5.3-3 0-5.4-2.4-5.4-5.3z"/>
	<path id="Path 5" class="s4" d="m1.9 2.3l152-0.7-1.4 31.2-149.2-0.1z"/>
	<path id="Path 6" class="s5" d="m75.4 102.4c-0.8 1.4-0.5 2.3 1.1 2.1 0.8 0.6 0.9 1.1 0 1.7-3.2 0-5 0.6-8.1 0.6-0.1 0.5-0.4 0.5-0.5 0.9-3.7 2.4-4.9 3.6-3.9 8.6-0.3 1-1 1.4-1.5 1 0.2-2-0.2-2.3-1.1-2.8-0.1 4.7-1 7.8-3 8.8-3.2-0.9-3.7 1.4-1.9 3.3-3.7 0.1-8 0.4-11.7-0.3-1.3-0.6-1.8-2-2.3-3.1 1.2-0.3 2.4 1 3.7 0.7-0.9-1.1-3.2-1.4-4.8-1.7-0.1-2 1.3-2.8 3.8-1.2 1.9 0.6 3.6 1.2 5.6 1.4 1.8 0.1 2.8-0.9 2.2-2.6 0.2-3.9 0.4-7.1 2.1-9.6q-1.9 0.7-1.9-0.5c-0.7-5.5 0.9-9.8 7.6-11.4q6.6-0.5 13.1-1c1.8 0.9 2 2.8 1.5 5.1z"/>
	<path id="Path 7" class="s5" d="m120.1 73.8c-0.7 1.3-0.1 2.6-0.1 4-1-0.7-1.6-2.4-1.5-4.8-0.9 0.3-0.8 1.7-0.9 3.8-0.7-1.1-1.4-3.5-1-5.7-0.6 1.1-1.2 1.7-1.1 3.6-1.3-2.5-1.2-3.6-0.9-5.8 1.1-3-0.1-4.6-1.6-6-3.5-1.7-6.6-2-8.8 0.8q-3 5.1 1.2 13.4c3.3 4.8 8 9.2 10.3 14.2 2.1 5.7 0 8.8-4 11.3-5 1.8-9.1 1.3-12.5-0.4q-0.1-0.9-0.2-1.9c3.7 0.9 7.3 1.2 10.9 0.5 2.7-1.7 4.1-4.5 2.3-9.4-3.3-4.3-6.5-8.7-9.8-13.7-3.3-5.7-3.3-10.8-0.9-15.3 1.9-2.8 5.2-3.3 9.6-2.3q5.5 1.1 7.1 6.6c0.3 1.1 0.7 2.1 1.4 2.5 0.7 0.8 1.4 1.6 1.7 2.9 0.2 2.7 0.8 5.2 1.5 7.6-1-0.2-1.9-2.4-2.7-5.9z"/>
	<path id="Path 8" class="s5" d="m55 70.8c-0.7 0.5-1.4 0.4-1.9-0.1-1.2-2.2-2.1-4.7-3.2-6.9-0.9-1.4-1.9-2.6-3.4-3.2-0.2-0.3-0.2-0.8-0.2-1.2-2.8-1.4-4.2-3.2-4.5-5.8 2.2-1.7 4.4-0.6 6.2 3.2 0.1-2.8-2.1-3.6-3.4-5 2.1-0.5 4.3 0.1 5.5 3 0.3-2-0.9-3.3-2.8-4.4 2.9-0.3 4.7 1.1 5.1 4 1.4-1.5 0.6-3-1.1-4.5 1.1-0.1 2.3 0.3 3.2 2 0.6 2.7-1.3 4.1-2.5 4.1q-0.5 2.3 0.6 3.1c2.1 1.9 4.2 3.9 6.3 5.8-1.9 1.7-3.3 4-3.9 5.9z"/>
	<path id="Path 9" class="s5" d="m62.7 49.6c0-1.8 0.2-3.5 2-4.1 1-0.4 2.1-0.4 3.1-0.3q2.8 0.9 4.8 1 1.9 0 2.2-1c-1.2-0.9-3.2-1.4-4.3-1.5 1.4-1.3 5.3-0.9 8.6-1.7 0.6 0-0.4-1.2 1.1-0.7 1.1 0.7 2.2 0.8 1.7-0.6q2.6 0.6 1.8 4.1 2.4 1.5 3.4 1c2.5 1.3 4.7 2.8 4.1 5q2.8-0.9 1.3 3.5 1 0.7 2 1.5 0.9-0.1 1.8-0.2 0.3 1.3 0.5 2.5 2 1.2 1 6.3c-0.2 1.5-0.4 3.2-0.6 4.6-0.4-1-0.2-2.4-1.2-3.2-0.4 2.7-0.9 5.3-2 7.1-0.1-3.3-1.1-5.5-1.8-6.5-0.9 2.4-0.5 5.9 0 9.2-0.4 0-0.2 1-0.6 1.1 0.4 0.3 0.1-0.4 0.4-0.1 0.5 2-2.5-0.1-5.3-2q0.4 0.8 0.9 1.6-0.6 0.4-1.2 0.9 0.2 0.4 0.3 1c-1.5 6.7 1.2 11.9 5.2 16.7 4 1.1 6.9 3 6.1 8q-0.3 1.5-0.5 3 0.9 2.1 1.8 4.1-0.4 0.4-0.8 0.7 1.6 0.7 3.1 1.3c2.2-0.1 4.3 1.5 6.5 2.7q0.6 1.5-0.2 4-0.8-0.4-1.6-0.8 0.9 1.5 1.8 3.1c0.4 1.3 0.7 2.6-0.2 3.8 1.6 0.4 2.8 0.9 1.5 2.2q2.1 0.6 0.3 2.1c-1.1 0-1.7-0.1-2.8-0.1-0.1 1.4-1.5 2-3.1 1.8q-1.3-0.7-0.7-1.3c-2.4 0.4-5 0.9-6.4 0-1.4 0.2-2.5 0.1-2.9-0.3-0.7-0.1-1.1 0-1.8-0.1-0.1-2.2 0.3-4.2 4.3-4.4q2.6 0 5.2 0.1-1-1.2-0.5-3.8-0.5-4.2-4.3-5-3.9-0.8-7.8-1.6c-5.3-1.6-9.2-5.4-11.9-11.2-0.6-6-3.8-10.5-8.8-13.9-6.7-3.6-8.7-6.2-9.9-9.2 0.1-0.2 0.4-0.9 0.4-1.1-6-0.2-12-0.3-17 0.8q-0.7-0.1-1.3-0.2-1 0-1.9-0.1c-2.9 1-5.4-0.2-7.8-2.3 0.2-0.9-0.2-1.2-0.1-2.1 1.4-0.7 3.1-1.4 3.6 0.4-1.1-0.2-2.3-1-3.5-2q0.4-0.7 0.7-1.3 3.1 0.1 5 2c-0.8-2-2.7-2.4-4.2-2.8-0.2-0.2 0.4-1.1 1.4-1.2 0.9-0.1 1.8 0.2 2.8 1-0.7-1-1.8-1.2-2.4-2.1 1.8-0.1 3.5 0 4.2 2.1q1.6 2.5 3.8 2.6c4.5 0.1 8.8-0.2 13.1-1.1q-0.4-0.4-0.8-0.9c0.2-0.9 1.5-1.8 2.8-2.8 0.5-0.2 1.1-0.6 1.6-1.8 0.4-0.9 0.7-1.8 0.9-2.8 3.1-3.1 6.5-4.1 9.9-5.4-1.7-1.1-3.3-1-5-0.8q-0.1-1.9-0.8-2.5-0.4-1.2 1.3-1.5c1.8 0.8 3.7 1 5.8 0.4q1.6-1.9-0.1-3.5-2.6-0.9-5.3-0.5c-1.1 0.4-1.9-0.2-2.7-0.9z"/>
	<path id="Path 10" class="s5" d="m56.6 49.9c-0.3 2.7 0.9 2.6 3.1 2.7-1.4-0.4-2.3-1.6-3.1-2.7z"/>
	<path id="Path 11" class="s6" d="m66.5 102q-9.3 3 1.6 5m-13.3 3.1l0.7-0.3 1.3 2m33.2-6.3c1.5 3.5 4.4 5.2 7.2 6.9-4.6-2.4-9.6-4.2-11.3-10.8m9.7 3q1.1 4.1 3 5.6m5.5 4.4c1.3 0.4 2.4 1.3 3 3m-14.6 10.4q1.6-2.6 5.7-1.5c-1-1.1-1.1-1.3-0.7-1.4 2.3-0.3 5.2 0 7.7 0.3m-14.8-66.5c-0.8 1.9-1 3.7 0.1 5.3-3.1-0.4-4.6-2.6-4.9-5.9m6.9-3.7c-0.6 0.8-1.4 1.1-2.2 0.6 0.8-1.4 0.6-3.1 0.1-3.8-1.3 2.5-2.5 4.1-4.2 4.7 0.4-1.5 0.3-3.6-0.2-4.1-1 2.4-2.4 4.2-4.1 4.1q0.6-4-1.8-5.1m2.4 8.5q-1.7 1.8-0.5 5.5-2.9-1.7-3.1-5.3m-5.5 2.9q-1.7 1.3-0.6 3.5-2.5-1.4-2.2-4.2m-18.2 14.9h11.5m-5.5-7.5q2.1 0.8 3-3.4c0.2 4.5 0.7 5.9 2.2 0.5q0.1 1.5 0.3 3.1c1.3 1.5 2 1.3 3.1 1.4-0.1-1.9 0.2-3.4 0.2-5.3 0.2 1.1 0.4 2.3 0.7 3.4 0.2-1.2-0.1-2.3 0.1-3.5 0.7 3.9 2.5 6.9 5 8 1.4 2.6 0.5 4.9-1.6 6.9-2.5 0.2-4.7-0.7-6.8-2.1-1.9 1.4-3.8 1.5-5.8 0.8m13.1-9.5q-1.4-1.4-0.6-3.7m2.5 6.6q-0.9-3.9 0.5-6.4c-0.1 6.7 2.8 9.3 7.7 9.2q-2.5-4.3-2.3-8.5c0.8 4.6 2.6 8.3 6.5 10.3m0.1-10q-1.4 4.1 0.2 7.8m4.6 0.8c-1.7-0.9-3-2.3-4-4.1m2.2-3.5q-0.4 2.1 0.1 3.4m-11.9-3.7c0 1.7 0.2 3.2 1.1 4.4m4.6 1.1c-1.1-1.2-1.8-2.9-1-4.3m-0.1 19.6l-8-13.5m-2.2 7.9l3.5-1.7m-1.8 3.5l3.1-1.6m-1.3 2.9l2.6-1.3m0.2 2.9c0.7-0.4 1.7-1 2.4-1.4m-9.6-38.1c6.8 2.2 3.8 9.4-2.5 8.6m1.6 2.7c4.6-0.6 7.2-3.6 8.3-8.3"/>
	<path id="Path 12" class="s7" d="m3.2 32.8h149.1"/>
	<path id="Path 13" class="s8" d="m79 175.9c3.1 0 5.6 2.5 5.6 5.7 0 3.1-2.5 5.6-5.6 5.6-3.1 0-5.5-2.5-5.5-5.6 0-3.2 2.4-5.7 5.5-5.7z"/>
	<path id="Path 14" class="s9" d="m8.2 137.4l9.5-1.2 13.6 7.4 4.6-1 8.1-6.3 6.9 1.6 6.9 4.9c3.1 0.8 6.2 0.6 9.4-0.2l8.7-5.7h5.5l9.4 6.6 6.4-0.5 8.1-6.2 5.2 0.2 10 5.9h7.7l8.1-5.9c4.3-0.5 7.8 0.4 10.8 2.1l-0.5 6.7-4.9-2h-4.3l-8.3 5.3-6.9 1.1-5.8-3.1c-3.2-2.3-6.1-3.9-8.7-3.8-3.9-0.1-4.5 2.6-6.8 3.8l-4.9 2.8h-5.8l-8.8-6.3h-4.8l-12.3 6.6c-3.5 0-6.6-0.5-8.9-1.9-3.5-2.9-6.4-5.2-9-5.3-3.4-0.3-5.7 2.6-7.1 3.6l-7.5 3.9c-5.6-1.5-9.8-8.2-17.2-7.6l-5.5 1.5z"/>
	<path id="Path 15" class="s7" d="m146.6 145.6c-5.4-3-10.1-2.5-13.8 0.8-5.8 5-11.4 4.4-17.1 0.5-6.3-5.2-11.1-4.5-14.9 0.3-4.9 4-9.4 4.3-14.9-0.5-4.5-4.2-9.6-4.7-14.6-0.1-6.7 4.5-12.2 4.5-17.4 0.6-4.7-4.6-9.8-5.8-14.5-1-5.3 4.6-8.7 5.7-14.3 0.7-6.5-4.8-8.5-4.9-16.3-2.2m137.8-5.8c-5.4-3-10.1-2.5-13.9 0.9-5.7 4.9-11.3 4.3-17 0.4-6.3-5.1-11.1-4.4-14.9 0.3-4.9 4-9.4 4.3-14.9-0.5-4.5-4.1-9.6-4.7-14.6 0-6.7 4.4-12.2 4.4-17.4 0.5-4.7-4.6-9.8-5.7-14.5-0.9-5.3 4.6-8.7 5.6-14.3 0.7-6.5-4.9-8.5-4.9-16.3-2.3m-7.1-135.8l152.3-0.7-8.4 162.3c-11.2 77.2-121.4 80.4-135.9 0.7z"/>
	<path id="Path 16" fill-rule="evenodd" class="s10" d="m8.7 24.8v-0.9c0.8 0 1.3-0.1 1.4-0.2q0.1 0 0.2-0.1 0.1-0.1 0.1-0.6 0.1-0.9 0.1-3.1l0.1-4q0-2-0.1-3.3-0.1-1.2-0.1-1.4-0.1-0.2-0.3-0.2-0.2-0.2-1.4-0.2v-0.9q1.8 0.1 3.3 0.1 1.7 0 3.3-0.1v0.9q-1.3 0.1-1.5 0.2-0.2 0.2-0.3 0.7 0 0.7 0 5.3h0.1q1.1-0.8 3-2.8 2-2.1 3-3.4l0.1-0.4-0.1-0.4 0.1-0.1q1.2 0.1 1.9 0.1 0.9 0 1.9-0.1v0.9l-0.6 0.1q-0.7 0-0.9 0.1-0.4 0.2-1.1 0.8-1 0.9-2.6 2.4l-1.8 1.8 0.9 1.2q1.7 2.1 4 4.8 1.4 1.6 1.6 1.7 0.2 0.1 1 0.2v0.9h-0.5l-1.9-0.1q-0.7 0-1.9 0.1c-0.5-0.7-1.5-1.9-2.8-3.5q-1.5-1.9-2.8-3.3-0.2-0.2-0.3-0.3 0 0-0.1 0-0.1 0-0.2 0.1 0 0.1 0 0.9v3.2q0 1.4 0.1 1.6 0.1 0.2 0.2 0.2 0.2 0.1 1.5 0.2v0.9q-1.5-0.1-3.4-0.1-0.9 0-3.2 0.1zm25.7 0.2q-3.8 0-5.8-2-2-2-2-5.5 0-2.5 1-4.2 0.9-1.8 2.7-2.7 1.7-0.9 4.5-0.9 2.6 0 4.2 0.9 1.7 0.9 2.6 2.5 0.9 1.5 0.9 3.8 0 2.5-1 4.3-1 1.8-2.8 2.8-1.8 1-4.3 1zm0.4-1.1q2.1 0 3.3-1.6c0.8-1.1 1.2-2.7 1.2-4.8q0-3.4-1.4-5.2-1.1-1.5-3.5-1.4-2.2-0.1-3.4 1.5-1.2 1.5-1.2 4.6 0 2.3 0.6 3.9 0.7 1.6 1.7 2.3 1.1 0.7 2.7 0.7zm10.8-1.4q1.6 1.3 3.9 1.3 3.9 0 3.9-3.3 0-3.2-3.6-3.2-0.8 0-1.7 0.1v-1.3q0.6 0 1.6 0 1.8 0 2.5-0.6c0.4-0.4 0.7-1.1 0.7-2.1q0-1.4-0.7-2-0.7-0.6-1.9-0.5-1.5-0.1-2.2 0.5-0.8 0.5-0.9 2.4h-0.8q-0.1-2.2-0.4-3.2 2.3-0.9 4.8-0.9 2.8 0 4 0.8 1.2 0.7 1.2 2.4 0 2.8-3.7 3.6v0.1q2.1 0.2 3.2 1 1 0.9 1 2.5 0 2.4-1.7 3.7-1.8 1.2-4.5 1.2-2.9 0-4.7-1.1-0.1-0.6-0.2-1.1zm24-11.4h-1.3q-0.2-0.1-0.5-0.1h-1.4l-0.6 0.1q-0.8 0-1.1 0 0 0.5-0.1 2.4c-0.1 2.5-0.2 4.4-0.3 5.7-0.1 1.3-0.3 2.4-0.6 3.3q-0.5 1.2-1.3 1.8-0.9 0.6-2 0.6-0.5 0-1.2-0.1 0.1-0.4 0.1-0.7 0-0.6-0.1-1.4l0.3-0.1c0.5 0.6 1.1 0.9 1.6 0.9q1 0 1.5-1.2 0.4-1.2 0.6-4.7 0.2-3.5 0.2-5.4 0-1.1-0.2-1.2-0.3-0.2-1.7-0.3v-0.9q1.9 0.1 3.5 0.1h5.7q1.5 0 3.8-0.1v0.9q-1.2 0.1-1.5 0.2-0.2 0-0.2 0.2-0.1 0.2-0.1 2.2-0.1 2-0.1 2.8 0 0.1 0 2.5l0.1 3.4q-0.1 1 0 1.3 0.1 0.2 0.2 0.3 0.1 0.1 0.3 0.1 0.2 0.1 1.3 0.1v0.9q-0.3 0-1.1 0-1.3 0-2-0.1-1.6 0-3.6 0.1v-0.9q1.4 0 1.6-0.2 0.1-0.2 0.2-1.8 0.1-1.6 0.1-7zm15.7 13.8q-3.8 0-5.8-2-2-2-2-5.5 0-2.5 1-4.2 0.9-1.7 2.7-2.7 1.7-0.9 4.4-0.9 2.7 0 4.3 0.9 1.7 0.9 2.6 2.5 0.9 1.6 0.9 3.8 0 2.5-1 4.3-1 1.8-2.8 2.8-1.8 1-4.3 1zm0.4-1.1q2.1 0 3.3-1.6c0.8-1 1.2-2.7 1.2-4.8q0-3.4-1.4-5.2-1.1-1.4-3.5-1.4-2.2 0-3.4 1.5-1.3 1.5-1.3 4.7 0 2.2 0.7 3.8 0.7 1.6 1.7 2.3 1.1 0.7 2.7 0.7zm25.7 0q-0.4 2-0.5 4.8h-1v-0.4q0-1.1-0.3-2.8-0.5-0.5-1.2-0.6-0.8-0.2-3.7-0.2h-2.8q-2.8 0-4.6 0.6l-0.8 3.4h-1q0.2-2.1 0.4-4.8 1.2-0.2 1.9-1.7 0.7-1.4 1.1-4.8c0.2-2.2 0.3-4 0.3-5.4q0-0.7-0.1-0.9-0.2-0.2-1.8-0.3v-0.9q2 0.1 3.6 0.1h6q1.5 0 3.8-0.1v0.9q-1.4 0.1-1.7 0.3-0.2 0.2-0.2 5 0 0.2 0 2.5v3.5q0.1 1.1 0.2 1.3 0 0.3 0.2 0.3 0.1 0.1 0.3 0.1 0.2 0.1 1.9 0.1zm-5.6-0.4q0-0.7 0-1.3v-1.5l0.1-5.4q0-2.1-0.1-4.1-0.6-0.1-1 0h-3.3q-0.3 0-0.5 0h-0.5q-0.1 0.7-0.2 2.7-0.3 7.4-2 9.5 1.1 0.1 1.7 0.1 1 0.1 2 0.1h2.5q0.5 0 1.3-0.1zm22.9-12.7q-0.9 0-1.2 0.3-0.4 0.3-1.9 4.2l-3.2 8.1q-1.2 3.3-1.8 4.3-0.6 1-1.4 1.5-0.8 0.4-1.8 0.4-0.8 0.1-1.5-0.3 0.3-1 0.4-2.1h0.2q0.6 0.7 1.5 0.7 0.7 0 1.3-0.6 0.5-0.6 1.1-2.3-0.3-0.8-1.5-3.7-0.6-1.4-1.6-3.7-1-2.7-1.9-4.6-0.9-1.9-1.1-2-0.2-0.1-1.3-0.2v-0.9q2 0.1 3.7 0.1 1.4 0 3.1-0.1v0.9q-1.1 0.1-1.4 0.2-0.3 0.1-0.3 0.4 0 0.3 0.9 2.5l3 7.3 2.2-5.9q1.3-3.4 1.3-4 0-0.2-0.2-0.3-0.3-0.1-1.5-0.2v-0.9q1.8 0.1 2.6 0.1 0.6 0 2.3-0.1zm18.5-0.9v0.9q-1.5 0.1-1.7 0.3-0.2 0.3-0.2 4.9 0 4.9 0.1 6.2 0 1.3 0.2 1.5 0.1 0.1 1.6 0.2v0.9q0 0-0.6 0-1.7-0.1-2.6-0.1-0.5 0-3.5 0.1v-0.9q1.4 0 1.6-0.2 0.3-0.3 0.3-3.4v-6q0-0.5 0-1.8l-1.4 2.3q-2.9 5.1-4 6.8c-0.8 1.1-1.6 2.2-2.5 3.2q-1.3 0.2-1.7 0.3l-0.2-0.1q0.1-1.7 0.1-8.5 0-5-0.1-5.3c-0.1-0.2-0.7-0.4-1.7-0.4v-0.9q2.1 0.1 2.9 0.1 2.2 0 3.8-0.1v0.9q-1.5 0.1-1.7 0.3-0.2 0.3-0.2 4.7 0 0.9 0.1 5.5l1.3-2.1q3.1-5 5.4-9.2h0.9c1.4 0 2.7 0 3.8-0.1zm-3.8-3q-0.9 0.5-1.4 0.8-3-0.1-6-0.7v-0.3q1.1-0.5 2.2-1.6 1.8 1.2 5.2 1.6z"/>
</svg>