<?xml version="1.0" encoding="UTF-8" standalone="no"?>
<!-- Created with Inkscape (http://www.inkscape.org/) -->
<svg xmlns:dc="http://purl.org/dc/elements/1.1/" xmlns:cc="http://creativecommons.org/ns#" xmlns:rdf="http://www.w3.org/1999/02/22-rdf-syntax-ns#" xmlns:svg="http://www.w3.org/2000/svg" xmlns="http://www.w3.org/2000/svg" xmlns:sodipodi="http://sodipodi.sourceforge.net/DTD/sodipodi-0.dtd" xmlns:inkscape="http://www.inkscape.org/namespaces/inkscape" width="744" height="970" id="svg2" version="1.1" inkscape:version="0.48.4 r9939" sodipodi:docname="Botevgrad_COA.svg">
  <defs id="defs4"/>
  <sodipodi:namedview id="base" pagecolor="#ffffff" bordercolor="#666666" borderopacity="1.0" inkscape:pageopacity="0" inkscape:pageshadow="2" inkscape:zoom="0.70710678" inkscape:cx="533.40233" inkscape:cy="624.67184" inkscape:document-units="px" inkscape:current-layer="layer1" showgrid="true" inkscape:window-width="1280" inkscape:window-height="972" inkscape:window-x="-8" inkscape:window-y="-8" inkscape:window-maximized="1" showguides="false" inkscape:snap-global="true" inkscape:snap-from-guide="true" inkscape:snap-bbox="false" inkscape:snap-page="true" inkscape:guide-bbox="true" inkscape:object-nodes="false" inkscape:object-paths="false" inkscape:snap-nodes="true" showborder="false" inkscape:showpageshadow="true">
    <sodipodi:guide orientation="1,0" position="371.57342,875.21802" id="guide4299"/>
  </sodipodi:namedview>
  <metadata id="metadata7">
    <rdf:RDF>
      <cc:Work rdf:about="">
        <dc:format>image/svg+xml</dc:format>
        <dc:type rdf:resource="http://purl.org/dc/dcmitype/StillImage"/>
        <dc:title/>
        <cc:license rdf:resource="http://creativecommons.org/licenses/publicdomain/"/>
      </cc:Work>
      <cc:License rdf:about="http://creativecommons.org/licenses/publicdomain/">
        <cc:permits rdf:resource="http://creativecommons.org/ns#Reproduction"/>
        <cc:permits rdf:resource="http://creativecommons.org/ns#Distribution"/>
        <cc:permits rdf:resource="http://creativecommons.org/ns#DerivativeWorks"/>
      </cc:License>
    </rdf:RDF>
  </metadata>
  <g inkscape:label="Layer 1" inkscape:groupmode="layer" id="layer1" transform="translate(0,-82.362183)" style="display:inline">
    <path style="fill:#ffcc00;fill-opacity:1;stroke:none" d="m 371.5625,22.65625 c -58.6962,0 -111.57522,18.65738 -168.21875,37.125 C 148.46401,77.67383 89.98749,95.34459 19.875,96.59375 L 69.75,217.75 c 110.22491,-0.86758 191.1039,-49.4375 301.8125,-49.4375 110.69953,0 191.60142,48.56217 301.8125,49.4375 L 723.28125,96.59375 C 653.16876,95.34389 594.68674,77.64255 539.8125,59.75 483.17465,41.2824 430.25869,22.65625 371.5625,22.65625 z" id="rect3793" transform="translate(0,82.362183)" inkscape:connector-curvature="0" sodipodi:nodetypes="ssccsccss"/>
    <path style="fill:#009900;fill-opacity:1;stroke:none" d="m 640.53125,459.03125 c -22.27063,-22.61757 -52.96715,-54.66326 -81.6875,-84.5 -14.7112,-15.28304 -28.79794,-29.87529 -40.78125,-42.09375 -11.98331,-12.21846 -21.86396,-22.04909 -28.125,-27.84375 -1.33464,-1.23522 -2.57544,-2.31335 -3.78125,-3.21875 -1.20581,-0.9054 -2.36224,-1.66041 -3.5,-2.25 -1.13776,-0.58959 -2.24451,-1.02471 -3.375,-1.3125 -1.13049,-0.28779 -2.28477,-0.40625 -3.46875,-0.40625 -1.79554,0.0317 -3.80287,0.3778 -5.875,0.9375 -2.07213,0.5597 -4.22458,1.32008 -6.21875,2.125 -3.98835,1.60985 -7.45073,3.41803 -9,4.3125 -5.85775,3.38197 -12.65361,7.54778 -20.25,12.3125 -7.59639,4.76472 -15.9933,10.12833 -25,16 -18.01339,11.74334 -38.49007,25.48467 -60.125,40.1875 -21.63493,14.70283 -44.42811,30.36717 -67.03125,46.0625 -45.20627,31.39066 -89.68438,62.81642 -122.875,86.375 -33.19062,23.55858 -55.09375,39.25 -55.09375,39.25 l -1.75,-2.4375 0,61.46875 c 0,190.75792 212.81888,237.07453 268.96875,311.21875 C 427.71237,841.07453 640.53125,794.75792 640.53125,604 l 0,-144.96875 z" id="path4609" transform="translate(0,82.362183)" inkscape:connector-curvature="0"/>
    <path style="fill:#33ccff;fill-opacity:1;stroke:none" d="m 371.5625,201.8125 c -97.40131,0 -169.18491,43.6875 -268.96875,43.6875 l 0,293.34375 c 1.33738,-0.95946 21.19926,-15.18703 53.34375,-38 33.19999,-23.56205 77.7062,-54.99821 122.9375,-86.40625 22.61565,-15.70402 45.40337,-31.40074 67.0625,-46.125 21.65913,-14.72426 42.18968,-28.47606 60.25,-40.25 9.03017,-5.88697 17.428,-11.27808 25.0625,-16.0625 7.6345,-4.78442 14.50567,-8.96213 20.4375,-12.40625 5.93183,-3.44412 10.94836,-6.14851 14.90625,-8.03125 1.97192,-0.93803 3.58761,-1.71472 5.0625,-2.25 1.47489,-0.53528 2.809,-0.82915 4.21875,-0.8125 l 0.0312,0 c 1.10511,0.0165 2.22211,0.20793 3.375,0.53125 1.15289,0.32332 2.34942,0.78231 3.59375,1.375 2.48867,1.18537 5.19615,2.86823 8.3125,4.90625 3.11635,2.03802 6.55971,4.49495 10.25,7.28125 3.69029,2.7863 7.62753,5.90195 11.78125,9.3125 8.30743,6.82109 17.42633,14.76814 26.875,23.25 9.44867,8.48186 19.2271,17.49855 28.8125,26.53125 9.58539,9.0327 18.97618,18.06711 27.6875,26.53125 8.71132,8.46414 16.7401,16.35583 23.5625,23.125 12.35792,12.26149 18.89544,18.93251 20.375,20.4375 l 0,-186.28125 c -99.78384,0 -171.56744,-43.6875 -268.96875,-43.6875 z" id="rect4599" transform="translate(0,82.362183)" inkscape:connector-curvature="0"/>
    <path style="font-size:medium;font-style:normal;font-variant:normal;font-weight:normal;font-stretch:normal;text-indent:0;text-align:start;text-decoration:none;line-height:normal;letter-spacing:normal;word-spacing:normal;text-transform:none;direction:ltr;block-progression:tb;writing-mode:lr-tb;text-anchor:start;baseline-shift:baseline;color:#000000;fill:#000000;fill-opacity:1;stroke:none;stroke-width:6;marker:none;visibility:visible;display:inline;overflow:visible;enable-background:accumulate;font-family:Sans;-inkscape-font-specification:Sans" d="m 475.875,370.875 c -2.8195,-0.0333 -5.3374,1.18644 -9.28125,3.0625 -3.95789,1.88274 -8.97442,4.58713 -14.90625,8.03125 -11.86366,6.88823 -27.43967,16.69481 -45.5,28.46875 -36.12065,23.54788 -82.0812,54.96696 -127.3125,86.375 -90.46261,62.81608 -178.03125,125.65625 -178.03125,125.65625 l 3.5,4.875 c 0,0 87.55621,-62.84368 177.96875,-125.625 45.20627,-31.39066 91.12947,-62.76332 127.15625,-86.25 18.01339,-11.74334 33.53451,-21.54856 45.25,-28.3125 3.09855,-1.78895 13.91158,-7.27036 21.09375,-7.39737 4.73592,0 8.80079,2.2463 14.13934,7.18718 25.04416,23.17862 107.84398,111.1846 152.57941,156.52269 l 0.125,-27.1875 c 0,0 -35.40843,-36.08795 -73.75,-72.21875 -19.17079,-18.0654 -39.07263,-36.13907 -55.6875,-49.78125 -8.30743,-6.82109 -15.79854,-12.51771 -22.03125,-16.59375 -6.23271,-4.07604 -10.86082,-6.74652 -15.28125,-6.8125 l -0.0312,0 z" id="path4593" inkscape:connector-curvature="0" sodipodi:nodetypes="cssssccssscsccsssccc"/>
    <path style="fill:#ffffff;stroke:#000000;stroke-width:4;stroke-miterlimit:4" d="m 371.5625,561.78125 c -24.93776,0 -35.6045,17.52273 -97.8125,18.6875 L 273.75,842 c 41.0755,25.74085 78.608,47.85979 97.8125,73.21875 C 390.767,889.85979 428.2995,867.74085 469.375,842 l 0,-261.53125 c -62.17976,-1.17016 -72.879,-18.6875 -97.8125,-18.6875 z" id="rect3800" inkscape:connector-curvature="0" sodipodi:nodetypes="scccccs" transform="translate(0,82.362183)"/>
    <path style="fill:#ffffff;stroke:#000000;stroke-width:9;stroke-linecap:butt;stroke-linejoin:miter;stroke-miterlimit:4;stroke-opacity:1;stroke-dasharray:none" d="m 371.5625,172.8125 c -110.36902,0 -191.71249,49.53125 -304.78125,49.53125 l 0,386.53125 c 0,216.15485 241.15576,268.67194 304.78125,352.6875 63.62549,-84.01556 304.78125,-136.53265 304.78125,-352.6875 l 0,-386.53125 c -113.06876,0 -194.41223,-49.53125 -304.78125,-49.53125 z m 0,29 c 97.40131,0 169.18491,43.6875 268.96875,43.6875 l 0,358.5 c 0,190.75792 -212.81888,237.07453 -268.96875,311.21875 C 315.41263,841.07453 102.59375,794.75792 102.59375,604 l 0,-358.5 c 99.78384,0 171.56744,-43.6875 268.96875,-43.6875 z" id="path3791" inkscape:label="shield" inkscape:connector-curvature="0" transform="translate(0,82.362183)"/>
    <path style="font-size:medium;font-style:normal;font-variant:normal;font-weight:normal;font-stretch:normal;text-indent:0;text-align:start;text-decoration:none;line-height:normal;letter-spacing:normal;word-spacing:normal;text-transform:none;direction:ltr;block-progression:tb;writing-mode:lr-tb;text-anchor:start;baseline-shift:baseline;color:#000000;fill:#000000;fill-opacity:1;stroke:none;stroke-width:9;marker:none;visibility:visible;display:inline;overflow:visible;enable-background:accumulate;font-family:Sans;-inkscape-font-specification:Sans" d="m 371.5625,89.487183 c -60.78408,0 -114.77288,21.073837 -171.3125,41.843747 -56.53962,20.76991 -115.634498,41.3125 -187.0625,41.3125 l -6.78125,0 -1.9802632,24.47236 58.2302632,109.34014 1.15625,2.75 3,0 c 114.38295,0 195.73837,-49.53125 304.75,-49.53125 109.01163,0 190.3983,49.53125 304.78125,49.53125 l 3,0 1.15625,-2.75 58.01007,-109.34014 -1.76007,-24.47236 -6.78125,0 c -71.428,0 -130.52288,-20.54259 -187.0625,-41.3125 C 486.36663,110.56102 432.34659,89.487183 371.5625,89.487183 z m 0.0109,15.534057 c 58.69619,0 111.60704,18.63865 168.24489,37.10625 54.87424,17.89255 113.35045,35.58801 183.46294,36.83787 L 673.375,300.11218 c -110.21108,-0.87533 -191.11297,-49.4375 -301.8125,-49.4375 -110.7086,0 -191.58759,48.56992 -301.8125,49.4375 L 19.875,178.96536 c 70.11249,-1.24916 128.59482,-18.94411 183.47456,-36.83669 56.64353,-18.46762 109.52766,-37.10743 168.22386,-37.10743 z" id="path3827" inkscape:connector-curvature="0" sodipodi:nodetypes="sssccccsssccccssscsccsccssc" inkscape:label="crown"/>
    <g transform="translate(6.9072082,-2)" style="font-size:83.54138947px;font-style:normal;font-variant:normal;font-weight:normal;font-stretch:normal;line-height:125%;letter-spacing:0px;word-spacing:0px;fill:#000000;fill-opacity:1;stroke:none;font-family:Izhitsa;-inkscape-font-specification:Izhitsa" id="text2996">
      <path d="m 63.978666,225.04724 31.804216,-12.76818 c 4.395338,-1.76449 6.551048,-2.923 6.467128,-3.47552 -0.084,-0.55237 1.92313,-1.65121 6.02125,-3.29652 0.89173,-0.35792 1.73566,-0.31737 2.5318,0.12167 0.79608,0.4392 1.39678,1.16354 1.80211,2.17303 0.21463,0.53477 0.32334,1.31931 0.32612,2.35361 0.0254,1.78301 0.0446,3.03389 0.0575,3.75264 0.0128,0.7189 0.0911,1.68718 0.23487,2.90482 0.14368,1.21779 0.46653,2.70875 0.96857,4.47288 0.50197,1.76427 0.78848,2.90782 0.85953,3.43066 0.14535,1.3897 -0.34657,2.31117 -1.47573,2.76444 -1.06941,0.42938 -2.0263,0.19266 -2.87065,-0.71015 -0.23826,-0.24735 -0.73267,-0.87599 -1.48323,-1.88591 -3.36735,-4.44005 -6.58512,-7.04498 -9.653314,-7.8148 -1.996878,-0.50735 -4.479759,-0.16511 -7.44865,1.02672 l -2.049956,0.82298 -3.384873,1.3589 8.976365,22.35919 c 2.698615,1.05497 6.279358,1.51424 10.742238,1.37783 4.46285,-0.13633 8.26754,-0.83612 11.4141,-2.09938 l 3.58308,-1.64367 c 0.33121,-0.20238 0.85389,-0.44695 1.56806,-0.7337 1.36479,-0.54787 2.54385,-0.57293 3.53719,-0.0752 0.99325,0.49785 1.96652,1.93395 2.91979,4.3083 l 6.97458,17.37296 c 0.95391,2.37624 1.33643,4.01582 1.14757,4.91876 -0.28305,1.35538 -1.70147,2.54569 -4.25525,3.57093 l -44.277952,17.77591 -1.501882,-3.74103 7.395065,-2.96884 -22.031607,-54.87845 -7.395065,2.96884 z m 44.738294,50.10972 10.95666,-4.39869 c 1.48442,-0.59593 2.35395,-1.3933 2.6086,-2.39212 0.25458,-0.99877 -0.10709,-2.71618 -1.08503,-5.15222 l -4.04067,-10.0649 c -0.54868,-1.3666 -1.11442,-2.26073 -1.69721,-2.68238 -0.58286,-0.42158 -1.99768,-0.76752 -4.24447,-1.03783 -3.47107,-0.39962 -6.03865,-0.7821 -7.70273,-1.14745 -2.42417,-0.5442 -4.587638,-1.29622 -6.490399,-2.25608 z" style="font-size:96px" id="path3018"/>
      <path d="m 147.83446,189.71028 c 0.48073,-0.17528 1.1608,-0.0834 2.04022,0.27555 0.22399,0.0556 1.1791,0.52528 2.86534,1.40909 1.96826,0.91621 3.39825,1.56924 4.28997,1.95908 0.8917,0.38998 3.28247,1.34016 7.17232,2.85052 5.21904,1.97992 9.17417,4.04554 11.8654,6.19687 3.80966,2.97217 6.62441,6.95272 8.44427,11.94167 1.55741,4.26978 2.13828,8.3843 1.74263,12.34357 -0.31435,3.24774 -1.45101,7.13637 -3.40998,11.66589 -0.26628,0.57531 -2.34232,4.8752 -6.22812,12.89967 -1.87011,4.02103 -3.34643,6.22898 -4.42897,6.62386 -0.66242,0.24162 -1.677,0.16888 -3.04374,-0.21824 -1.3668,-0.38709 -4.21968,-1.39012 -8.55864,-3.00908 -5.19515,-1.91995 -8.41979,-3.19694 -9.67392,-3.83097 -3.61034,-1.6789 -6.63273,-3.70949 -9.06719,-6.09178 -3.03937,-2.9121 -5.32641,-6.47184 -6.86111,-10.67922 -2.34721,-6.43485 -2.44947,-13.34661 -0.30676,-20.73532 1.30796,-4.63297 3.70609,-9.73121 7.1944,-15.29476 0.63972,-1.05032 1.24791,-2.09026 1.82458,-3.11981 0.29084,-0.5135 0.56938,-1.05793 0.83563,-1.63329 0.39751,-0.96197 0.89705,-1.73982 1.4986,-2.33354 0.60154,-0.59357 1.20323,-1.00015 1.80507,-1.21976 z m -1.61117,14.07524 c -3.03389,1.58281 -5.08478,4.08506 -6.15265,7.50675 -1.06787,3.42181 -1.04261,6.66571 0.0758,9.73173 1.03072,2.82573 3.34367,5.52467 6.93888,8.0968 3.24507,2.35896 8.00452,4.94825 14.27836,7.76785 3.99958,1.81138 6.65452,3.15948 7.96483,4.04429 1.31026,0.88487 2.35147,2.10642 3.12365,3.66467 2.3336,-2.00921 4.17534,-4.57187 5.52522,-7.68798 1.34981,-3.11605 1.7526,-6.07274 1.20837,-8.87009 -0.0985,-0.64597 -0.22431,-1.17907 -0.37755,-1.59929 -0.1098,-0.30088 -0.35675,-0.7898 -0.74085,-1.46677 -1.34184,-2.3733 -4.51342,-4.99813 -9.51475,-7.87447 -0.69962,-0.4246 -3.58798,-1.99369 -8.66508,-4.70727 -2.58775,-1.30344 -5.20263,-2.68278 -7.84465,-4.13803 -2.64204,-1.45514 -4.58189,-2.94454 -5.81956,-4.46819 z" style="font-size:96px" id="path3020"/>
      <path d="m 226.96073,231.94303 -17.76405,-56.40456 -3.93728,1.24001 c -3.6625,1.15353 -5.84748,2.31059 -6.55494,3.47118 -1.30989,2.02414 -1.75007,6.59193 -1.32054,13.7034 0.044,0.9916 0.10848,1.94396 0.19335,2.85707 -0.023,1.4161 -0.61473,2.30688 -1.77533,2.67235 -1.03764,0.32684 -1.874,0.12081 -2.50907,-0.6181 -0.63506,-0.73881 -1.12568,-1.6578 -1.47184,-2.75697 -0.38487,-1.22203 -0.94627,-2.47144 -1.68421,-3.74824 -0.73791,-1.2767 -1.47351,-2.38678 -2.2068,-3.33025 -0.73326,-0.94336 -1.88405,-2.30868 -3.45235,-4.09596 -1.03403,-1.15066 -1.66635,-2.09209 -1.89694,-2.82428 -0.26928,-0.85501 -0.18343,-1.75437 0.25756,-2.69807 0.44102,-0.94357 1.33311,-1.6269 2.67626,-2.04998 1.70221,-0.13467 3.58859,-0.37708 5.65913,-0.72721 2.07055,-0.34999 4.41825,-0.93836 7.0431,-1.7651 l 3.26833,-1.13069 27.19491,-8.56476 3.32361,-0.94537 c 2.93034,-0.92281 5.22224,-1.79564 6.8757,-2.61849 1.65339,-0.82268 3.30749,-1.69532 4.96231,-2.61791 1.28165,-0.40356 2.3841,-0.36529 3.30736,0.11482 0.92317,0.48029 1.52911,1.17867 1.81782,2.09514 0.17303,0.54964 0.22011,1.33956 0.14123,2.36975 -0.17421,2.0023 -0.35836,3.97284 -0.55242,5.91163 -0.0845,1.43548 -0.0593,2.9541 0.0756,4.55585 0.13482,1.6019 0.36566,2.92163 0.6925,3.95921 0.42297,1.34323 0.63143,2.21645 0.62538,2.61965 -0.0209,1.21477 -0.64141,2.01427 -1.86157,2.3985 -1.16065,0.36558 -2.31377,-0.31149 -3.45939,-2.0312 -0.49402,-0.71668 -1.4205,-2.16953 -2.77945,-4.35855 -2.60615,-4.00968 -4.9632,-6.48735 -7.07114,-7.43303 -1.48742,-0.67205 -3.39079,-0.64289 -5.71009,0.0875 l -1.7409,0.54828 -3.93728,1.24001 17.76404,56.40456 7.60072,-2.39377 1.21096,3.84507 -29.39408,9.25737 -1.21097,-3.84507 z" style="font-size:96px" id="path3022"/>
      <path d="m 297.25252,181.50568 3.46449,-0.77804 c -0.96686,-1.68451 -2.13686,-2.88105 -3.51002,-3.58961 -1.37322,-0.70847 -2.59054,-0.94354 -3.65197,-0.70521 -1.99906,0.44897 -3.86978,1.24642 -5.61218,2.39235 -1.74243,1.14601 -3.07756,2.57684 -4.00541,4.29251 0.92234,2.35116 1.67481,4.16643 2.25741,5.44581 0.58256,1.27945 1.4099,2.8487 2.482,4.70777 1.86277,3.32099 3.05208,5.54611 3.56793,6.67534 1.0325,2.26235 1.88514,4.89136 2.55792,7.88705 0.28072,1.25012 0.42999,2.13541 0.44781,2.65587 0.0178,0.52048 -0.0723,1.36044 -0.27034,2.51988 0.97268,0.23997 2.17651,0.19883 3.6115,-0.12344 5.37203,-1.20641 9.25438,-3.78279 11.64707,-7.72915 1.76269,-2.9541 2.63612,-6.36509 2.62029,-10.23297 l -4.68221,1.0515 -0.86213,-3.83896 24.54016,-5.51107 0.86213,3.83895 -3.44331,0.87237 c -1.77072,5.84248 -4.63348,10.91329 -8.5883,15.21245 -4.33525,4.64683 -9.25081,7.58736 -14.74669,8.8216 -2.62223,0.58888 -5.38555,1.06182 -8.28999,1.41882 -2.90449,0.35701 -5.39403,0.44017 -7.46862,0.24949 0.0258,-0.46421 -0.0139,-0.93071 -0.11913,-1.39951 -0.10529,-0.46878 -0.18596,-0.828 -0.24201,-1.07765 -0.49089,-2.18578 -1.54393,-4.24533 -3.15912,-6.17863 -1.25304,-1.48816 -3.03017,-3.12186 -5.33141,-4.90111 -5.42399,-4.29276 -9.0656,-7.65715 -10.92481,-10.09316 -1.85922,-2.43597 -3.1954,-5.46434 -4.00853,-9.08513 -2.38416,-10.61639 -0.55048,-19.39158 5.50106,-26.32558 4.80619,-5.47317 11.39316,-9.14937 19.76093,-11.02862 5.24436,-1.17767 10.09229,-1.34858 14.54382,-0.51273 6.36948,1.19397 11.27109,4.32394 14.70487,9.3899 l 4.49641,-1.00977 0.88331,3.93328 -23.23097,5.21707 -0.88331,-3.93329 2.90423,-0.65221 c -1.13013,-2.69675 -2.71049,-4.76899 -4.74107,-6.21672 -2.82346,-2.05424 -6.17133,-2.64658 -10.04361,-1.77704 -4.55835,1.02376 -7.51902,4.04973 -8.88199,9.07793 -1.14165,4.25798 -1.10241,9.10346 0.11772,14.53645 0.36461,1.62366 0.80143,3.13199 1.31045,4.52497 1.90991,-2.59279 4.08651,-4.65549 6.52982,-6.18811 2.44327,-1.53252 5.03889,-2.60736 7.78688,-3.22453 3.68552,-0.82763 7.36884,-0.63791 11.04998,0.56916 3.68106,1.20717 6.49376,3.36298 8.43809,6.46742 l 3.83896,-0.86213 0.88331,3.93329 -23.22811,5.21642 z" style="font-size:96px" id="path3024"/>
      <path d="m 349.05609,201.03959 -0.32625,-30.43185 c -0.12419,-11.58327 1.41836,-19.91961 4.62767,-25.00905 3.83888,-6.12152 10.78244,-9.23617 20.83072,-9.34396 6.14414,-0.0658 11.08839,1.44866 14.83276,4.5434 3.48835,2.90814 5.25519,6.47339 5.30051,10.69575 0.0514,4.80055 -1.54289,8.40183 -4.78289,10.80384 -2.60237,1.94797 -5.95125,2.94389 -10.04668,2.98776 -1.53706,0.0165 -2.99626,-0.22372 -4.3776,-0.72069 -1.38142,-0.4969 -2.84513,-1.24883 -4.39114,-2.2558 l -4.16777,5.32429 c 3.35671,2.6517 6.62515,4.53669 9.80533,5.65497 3.1801,1.11835 6.68997,1.65693 10.52964,1.61573 l 0.86421,-0.009 c 2.88064,-0.0309 4.80559,0.42803 5.77485,1.37665 0.71254,0.69751 1.07811,1.91045 1.09669,3.63884 l 0.0175,1.63174 0.16362,15.2628 -0.0689,2.59366 c 0.0212,1.98231 -0.22128,3.23205 -0.72742,3.74922 -0.95064,0.97119 -3.15337,1.4753 -6.60819,1.51234 l -46.26883,0.49603 -0.0432,-4.03102 z m 14.87902,-0.15952 11.8089,-0.1266 c 1.59948,-0.0171 2.69895,-0.44497 3.29844,-1.28348 0.5994,-0.83849 0.88505,-2.57017 0.85695,-5.19503 l -0.11626,-10.84508 c -0.0158,-1.47255 -0.21936,-2.51095 -0.61058,-3.11521 -0.39131,-0.60422 -1.58392,-1.43962 -3.57785,-2.50623 -3.08997,-1.631 -5.34413,-2.91843 -6.7625,-3.86229 -2.06383,-1.38613 -3.80837,-2.87142 -5.23361,-4.45587 z m -0.37254,-34.74995 5.48771,-7.64423 c 0.83674,0.43837 1.68895,0.81304 2.55663,1.12402 0.86761,0.31108 1.49282,0.46454 1.87565,0.46039 1.34363,-0.0144 2.55287,-0.63478 3.62771,-1.86126 1.58221,-1.80999 2.35413,-4.50689 2.31575,-8.09072 -0.0364,-3.39232 -0.78334,-5.88055 -2.2408,-7.46469 -1.45753,-1.58401 -3.2741,-2.36439 -5.44972,-2.34113 -3.51936,0.0378 -5.89594,2.27141 -7.12975,6.70084 -0.86226,3.01729 -1.26148,7.50131 -1.19766,13.45209 0.011,1.02538 0.0214,2.00188 0.0314,2.92952 0.01,0.92772 0.051,1.83944 0.12308,2.73517 z" style="font-size:96px" id="path3026"/>
      <path d="m 418.13683,141.16235 35.35544,7.27755 c 3.07034,0.63206 6.50701,1.07824 10.31001,1.33854 0.84048,0.0435 1.60269,0.0702 2.28662,0.0803 0.68381,0.0102 1.18261,0.0476 1.49641,0.11211 1.1267,0.23199 1.85441,0.74121 2.18312,1.52766 0.32858,0.78657 0.38324,1.7126 0.16397,2.7781 -0.11623,0.56439 -0.45942,1.27742 -1.02956,2.13909 -0.96112,1.50117 -1.63467,2.55498 -2.02067,3.16143 -0.38613,0.60654 -0.84894,1.42605 -1.38844,2.45854 -0.53963,1.03258 -1.08428,2.40705 -1.63393,4.12342 -0.54979,1.71644 -0.9384,2.81246 -1.16586,3.28803 -0.64784,1.23862 -1.56668,1.73545 -2.75651,1.49049 -1.12874,-0.2323 -1.79692,-0.95808 -2.00453,-2.17737 -0.0602,-0.33738 -0.1245,-1.13428 -0.19286,-2.39071 -0.3588,-5.56149 -1.60396,-9.50981 -3.73548,-11.84499 -1.38501,-1.52534 -3.64521,-2.61073 -6.7806,-3.25618 l -2.16075,-0.44477 -5.36028,-1.10336 -11.92252,57.92141 7.80224,1.60601 -0.81275,3.94847 -30.18168,-6.21258 0.81275,-3.94847 7.80511,1.6066 11.92252,-57.92141 -7.80511,-1.6066 z" style="font-size:96px" id="path3028"/>
      <path d="m 490.37247,201.17632 -6.1037,20.72029 7.64119,2.2509 -1.13912,3.86697 -29.55865,-8.70727 1.13911,-3.86696 7.644,2.25173 9.92834,-33.70383 c 0.72351,-2.45616 1.45928,-4.84156 2.2073,-7.1562 0.74798,-2.31457 1.47851,-4.56814 2.1916,-6.76074 3.06409,-3.83534 6.99751,-6.4297 11.80029,-7.78306 4.8027,-1.35325 9.65933,-1.30665 14.56989,0.13982 7.30483,2.15189 12.55099,5.63158 15.7385,10.43907 2.99602,4.55168 3.70734,9.49821 2.13396,14.8396 -1.50123,5.09602 -4.24213,8.90904 -8.22273,11.43907 -3.98072,2.53006 -8.18087,3.14412 -12.60047,1.84218 -1.59629,-0.47019 -2.91482,-1.09174 -3.9556,-1.86462 -0.27088,-0.21415 -1.23432,-1.1322 -2.89033,-2.75416 l -1.72819,-1.60858 z m 1.62754,-5.52503 8.09029,-5.72253 c 0.98153,1.42329 1.96319,2.27951 2.94496,2.56868 1.47442,0.43437 2.88354,0.18162 4.22736,-0.75825 2.11275,-1.51142 3.82922,-4.50789 5.14941,-8.9894 1.32008,-4.48144 1.84582,-7.96304 1.57721,-10.44483 -0.37917,-3.24723 -2.07223,-5.31376 -5.07919,-6.19961 -4.05249,-1.1937 -7.36907,1.23164 -9.94976,7.27603 -0.8785,2.07668 -1.9778,5.35573 -3.29789,9.83717 z" style="font-size:96px" id="path3030"/>
      <path d="m 564.83038,184.17462 -6.97903,-2.43495 1.32798,-3.80624 28.18995,9.83534 -1.32797,3.80624 -7.1616,-2.49865 -3.24634,62.92323 6.2543,2.18209 -1.32798,3.80624 -27.19137,-9.48693 1.32798,-3.80624 6.88774,2.4031 1.39435,-25.84767 c -3.87569,6.44225 -8.62662,11.80028 -14.25281,16.07411 -6.56641,5.02974 -12.29673,6.69082 -17.19097,4.98325 -2.83994,-0.99085 -4.88157,-2.61851 -6.12491,-4.883 -1.44027,-2.67245 -1.51765,-5.85094 -0.23213,-9.53547 1.13881,-3.26406 3.18013,-6.68695 6.12396,-10.2687 2.57328,-3.10074 5.86774,-6.42463 9.88341,-9.97168 2.80826,-2.41059 6.62583,-5.48474 11.45272,-9.22247 1.94548,-1.49113 3.91926,-2.9714 5.92134,-4.44082 2.88564,-2.24704 4.76084,-4.60982 5.62562,-7.08835 0.25281,-0.72468 0.46806,-1.63216 0.64576,-2.72243 z m -1.47826,27.54669 0.95085,-15.83426 c -2.94189,2.02274 -5.60127,4.00953 -7.97812,5.96039 -1.98553,1.61171 -3.81871,3.17517 -5.49954,4.69037 -2.72373,2.36983 -4.81584,4.38491 -6.27633,6.04527 -2.75588,3.03709 -4.79014,5.95358 -6.10278,8.74947 l -0.82226,2.35677 c -0.32785,1.71633 -0.1398,3.07015 0.56416,4.06147 0.70392,0.99133 1.72069,1.71894 3.05031,2.18282 3.3249,1.16006 7.50056,-0.70522 12.52698,-5.59584 4.20726,-4.09038 7.40283,-8.29586 9.58673,-12.61646 z" style="font-size:96px" id="path3032"/>
      <path d="m 652.32494,213.85967 -1.46448,3.75897 -5.00924,-1.95158 c -1.32538,4.63386 -2.94602,11.74605 -4.86192,21.33657 -1.91603,9.59056 -3.29421,17.93121 -4.13455,25.02195 -1.01471,8.60332 -0.896,13.14889 0.35614,13.63671 0.2984,0.11626 0.8153,0.1117 1.55069,-0.0137 0.73528,-0.12542 1.72899,0.0558 2.98113,0.54361 0.83527,0.32542 1.35437,0.8882 1.55731,1.68832 0.20281,0.80009 0.15323,1.58777 -0.14875,2.36307 -0.16243,0.41673 -0.34049,0.74195 -0.53418,0.97566 -0.19382,0.23367 -0.79972,0.90785 -1.8177,2.02255 -1.0181,1.11465 -1.83558,2.06694 -2.45244,2.85686 -0.61697,0.78986 -1.3767,1.90194 -2.2792,3.33623 -1.87281,3.04755 -2.82089,4.60137 -2.84423,4.66146 -1.1644,1.4014 -2.31347,1.88126 -3.44721,1.43958 -0.95367,-0.37157 -1.47328,-1.02048 -1.55882,-1.94673 -0.0856,-0.92633 0.0207,-1.94974 0.31893,-3.07023 1.26949,-5.55063 0.60134,-9.82919 -2.00448,-12.83572 -1.51418,-1.75746 -4.35774,-3.44907 -8.5307,-5.07484 l -9.12582,-3.55539 c -6.32048,-2.46244 -10.75331,-3.46839 -13.29848,-3.01785 -2.5452,0.45052 -5.12618,2.5357 -7.74294,6.25555 -1.58651,2.1299 -2.44363,3.27269 -2.57134,3.42836 -1.15493,1.19968 -2.26926,1.59036 -3.34299,1.17206 -0.95362,-0.37155 -1.43055,-1.17572 -1.4308,-2.41251 0.007,-0.54631 0.20077,-1.56987 0.58006,-3.07068 0.3793,-1.50083 0.728,-3.40869 1.04611,-5.72358 0.31811,-2.31491 0.4343,-4.2447 0.34859,-5.7894 -0.007,-0.68798 0.005,-1.33533 0.035,-1.94203 0.0299,-0.60671 0.14943,-1.17849 0.3586,-1.71536 0.34812,-0.89356 0.97617,-1.404 1.88414,-1.53132 0.90796,-0.12732 1.7796,-0.0283 2.61493,0.29718 0.47681,0.18576 1.02003,0.46605 1.62966,0.84085 0.60962,0.37481 1.09369,0.63205 1.45222,0.77172 1.25207,0.48781 2.40686,0.0794 3.46437,-1.22537 0.36481,-0.40914 1.17256,-1.77763 2.42325,-4.10546 2.18674,-4.0257 4.91473,-7.94221 8.18396,-11.74955 4.04673,-4.74317 9.17945,-9.54328 15.39816,-14.40035 2.73981,-2.09347 4.63287,-3.69207 5.67916,-4.79579 2.02591,-2.02574 3.4572,-4.11236 4.29389,-6.25987 0.41828,-1.07369 0.50496,-2.00099 0.26005,-2.7819 -0.44045,-1.33907 -1.7635,-2.43829 -3.96916,-3.29768 l -4.8318,-1.88245 1.46449,-3.75898 z m -46.36747,49.73014 15.56275,6.0632 0.82613,-7.40653 c 0.62578,-5.66304 1.24308,-10.6424 1.85188,-14.93809 0.60871,-4.29567 1.55528,-9.7651 2.8397,-16.40831 l 1.0211,-5.26799 c -5.88586,3.47545 -11.69476,8.42401 -17.42672,14.84569 -5.1297,5.76344 -8.43794,10.5533 -9.92474,14.36959 -0.92955,2.38587 -1.00261,4.16059 -0.21921,5.32416 0.78337,1.16356 2.6064,2.30299 5.46911,3.41828 z" style="font-size:96px" id="path3034"/>
    </g>
    <path style="fill:none;stroke:none" d="m 85.641027,289.04218 c 0,0 196.474453,-84.21053 286.358973,-84.21053 89.88452,0 286.35898,84.21053 286.35898,84.21053" id="path3770" inkscape:connector-curvature="0" sodipodi:nodetypes="czc"/>
    <path sodipodi:nodetypes="ccccccc" inkscape:connector-curvature="0" id="path3779" d="m 475.98684,636.24376 0,26.64474 c -68.09211,0 -78.61842,-18.75 -104.41342,-18.75 -25.795,0 -36.32131,18.75 -104.41342,18.75 l 0,-26.64474 c 68.09211,0 78.61842,-18.75 104.41342,-18.75 25.795,0 36.32131,18.75 104.41342,18.75 z" style="fill:#ffffff;stroke:#000000;stroke-width:4;stroke-linecap:butt;stroke-linejoin:round;stroke-miterlimit:4;stroke-opacity:1;stroke-dasharray:none"/>
    <path style="fill:#ffffff;stroke:#000000;stroke-width:4;stroke-linecap:butt;stroke-linejoin:round;stroke-miterlimit:4;stroke-opacity:1;stroke-dasharray:none" d="m 479.60526,618.24376 -3.61842,18 c -68.09211,0 -78.61842,-18.75 -104.41342,-18.75 -25.795,0 -36.32131,18.75 -104.41342,18.75 l -3.61842,-18 c 70.45182,0 82.23684,-34.75 108.03184,-34.75 25.795,0 37.58002,34.75 108.03184,34.75 z" id="path3785" inkscape:connector-curvature="0" sodipodi:nodetypes="ccccccc"/>
    <g id="g3823">
      <path transform="translate(0,82.362183)" sodipodi:nodetypes="cccscccc" inkscape:connector-curvature="0" id="rect3811" d="m 340.5,423.9375 -28.125,12.78125 0,113.59375 c 29.94764,-5.44227 40.60954,-15.1875 59.1875,-15.1875 18.58409,0 29.24848,9.74627 59.21875,15.1875 l 0,-113.59375 L 402.625,423.9375 z" style="fill:#ffffff;stroke:#000000;stroke-width:4;stroke-miterlimit:4;stroke-dasharray:none"/>
      <path transform="translate(0,82.362183)" inkscape:connector-curvature="0" id="path3819" d="m 340.5,423.9375 0,118.78047" style="fill:none;stroke:#000000;stroke-width:4;stroke-linecap:butt;stroke-linejoin:miter;stroke-miterlimit:4;stroke-opacity:1;stroke-dasharray:none"/>
      <path transform="translate(0,82.362183)" inkscape:connector-curvature="0" id="path3821" d="m 402.625,423.9375 0,118.77798" style="fill:none;stroke:#000000;stroke-width:4;stroke-linecap:butt;stroke-linejoin:miter;stroke-miterlimit:4;stroke-opacity:1;stroke-dasharray:none"/>
    </g>
    <path style="font-size:medium;font-style:normal;font-variant:normal;font-weight:normal;font-stretch:normal;text-indent:0;text-align:start;text-decoration:none;line-height:normal;letter-spacing:normal;word-spacing:normal;text-transform:none;direction:ltr;block-progression:tb;writing-mode:lr-tb;text-anchor:start;baseline-shift:baseline;color:#000000;fill:#000000;fill-opacity:1;stroke:none;stroke-width:8;marker:none;visibility:visible;display:inline;overflow:visible;enable-background:accumulate;font-family:Sans;-inkscape-font-specification:Sans" d="m 371.57342,590.23991 c -13.86668,0 -23.47116,9.17487 -37.56572,18.41648 -14.09456,9.24161 -33.17286,23.59359 -66.85145,23.59361 0,0 -9.9472,0 -13.96875,0 -1.88562,1.88562 -1.88562,6.11438 0,8 4.11421,0 13.96875,0 13.96875,0 34.4132,0 54.66994,-4.8165 69.3125,-9.59375 C 351.11131,625.879 359.63418,621.5 371.5625,621.5 c 11.92832,0 20.48244,4.379 35.125,9.15625 14.64256,4.77725 34.8993,9.59375 69.3125,9.59375 0,0 10.14436,0 13.96875,0 1.88562,-1.88562 1.88562,-6.11438 0,-8 -3.84578,0 -13.96875,0 -13.96875,0 -33.67891,0 -52.74585,-14.34068 -66.83605,-23.5841 -14.0902,-9.24342 -23.72385,-18.42599 -37.59053,-18.42599 z" id="path3792" inkscape:connector-curvature="0" sodipodi:nodetypes="sssccsssssccsss"/>
    <path style="fill:none;stroke:#000000;stroke-width:4;stroke-linecap:butt;stroke-linejoin:miter;stroke-miterlimit:4;stroke-opacity:1;stroke-dasharray:none" d="m 442.98205,578.76319 0,279.74454" id="path3828" inkscape:connector-curvature="0" inkscape:transform-center-x="-71.40863" transform="translate(0,82.362183)"/>
    <path inkscape:transform-center-x="71.40863" inkscape:connector-curvature="0" id="path3830" d="m 300.16479,661.12537 0,279.74454" style="fill:none;stroke:#000000;stroke-width:4;stroke-linecap:butt;stroke-linejoin:miter;stroke-miterlimit:4;stroke-opacity:1;stroke-dasharray:none"/>
    <rect style="fill:#000000;stroke:none" id="rect3832" width="22.329687" height="44.659374" x="332.15411" y="616.44659" transform="translate(0,82.362183)" rx="1.767767" ry="1.767767"/>
    <path style="fill:none;stroke:#000000;stroke-width:4;stroke-linecap:butt;stroke-linejoin:miter;stroke-miterlimit:4;stroke-opacity:1;stroke-dasharray:none" d="m 436.47735,553.27534 0,24.61677" id="path3838" inkscape:connector-curvature="0" transform="translate(0,82.362183)" sodipodi:nodetypes="cc" inkscape:transform-center-x="-64.90393"/>
    <path inkscape:transform-center-x="64.90393" sodipodi:nodetypes="cc" inkscape:connector-curvature="0" id="path3840" d="m 306.66949,635.63752 0,24.61677" style="fill:none;stroke:#000000;stroke-width:4;stroke-linecap:butt;stroke-linejoin:miter;stroke-miterlimit:4;stroke-opacity:1;stroke-dasharray:none"/>
    <g id="g3842">
      <path style="fill:none;stroke:#000000;stroke-width:4;stroke-linecap:butt;stroke-linejoin:miter;stroke-miterlimit:4;stroke-opacity:1;stroke-dasharray:none" d="m 340.5,423.9375 0,118.78047" id="path3846" inkscape:connector-curvature="0" transform="translate(0,82.362183)"/>
      <path style="fill:none;stroke:#000000;stroke-width:4;stroke-linecap:butt;stroke-linejoin:miter;stroke-miterlimit:4;stroke-opacity:1;stroke-dasharray:none" d="m 402.625,423.9375 0,118.77798" id="path3848" inkscape:connector-curvature="0" transform="translate(0,82.362183)"/>
    </g>
    <g id="g3855">
      <path style="fill:none;stroke:#000000;stroke-width:4;stroke-linecap:butt;stroke-linejoin:miter;stroke-miterlimit:4;stroke-opacity:1;stroke-dasharray:none" d="m 340.5,423.9375 0,118.78047" id="path3859" inkscape:connector-curvature="0" transform="translate(0,82.362183)"/>
      <path style="fill:none;stroke:#000000;stroke-width:4;stroke-linecap:butt;stroke-linejoin:miter;stroke-miterlimit:4;stroke-opacity:1;stroke-dasharray:none" d="m 402.625,423.9375 0,118.77798" id="path3861" inkscape:connector-curvature="0" transform="translate(0,82.362183)"/>
    </g>
    <path style="fill:#ffffff;stroke:#000000;stroke-width:4;stroke-linecap:butt;stroke-linejoin:round;stroke-miterlimit:4;stroke-opacity:1;stroke-dasharray:none" d="m 312.375,436.71875 28.125,-12.78125 62.125,0 28.15625,12.78125 7.79556,-5.39744 -35.95181,-17.2893 -62.125,0 -35.92056,17.2893 7.79556,5.39744" id="path3865" inkscape:connector-curvature="0" transform="translate(0,82.362183)" sodipodi:nodetypes="ccccccccc"/>
    <path style="font-size:medium;font-style:normal;font-variant:normal;font-weight:normal;font-stretch:normal;text-indent:0;text-align:start;text-decoration:none;line-height:normal;letter-spacing:normal;word-spacing:normal;text-transform:none;direction:ltr;block-progression:tb;writing-mode:lr-tb;text-anchor:start;baseline-shift:baseline;color:#000000;fill:#000000;fill-opacity:1;fill-rule:nonzero;stroke:none;stroke-width:4;marker:none;visibility:visible;display:inline;overflow:visible;enable-background:accumulate;font-family:Sans;-inkscape-font-specification:Sans" d="m 369.5625,140.125 c -0.002,0.0454 0.002,0.0796 0,0.125 -3.38334,92.50324 -14.50762,120.557 -22.71875,135.59375 -3.34083,6.11794 -8.23908,13.69995 -12.34375,20.96875 -4.10467,7.2688 -7.53125,14.03649 -7.53125,19.5625 0,4.75689 0.61864,8.03687 2.3125,10.90625 1.69386,2.86938 4.22416,5.16736 7.875,8.59375 l 0.5625,0.53125 0.8125,0 0,1.375 -10.03125,6.03125 -2.76563,1.67187 c -3.14477,1.75539 -2.97,1.60166 0.28125,2.71875 l 3.04688,1.04688 9.46875,3.25 0,61.53125 0,2 2,0 62.09375,0 2,0 0,-2 0,-61.5625 9.4375,-3.21875 3.0625,-1.04688 c 3.4559,-1.0483 3.24421,-0.93702 0.29687,-2.71875 l -2.76562,-1.67187 -10.03125,-6 0,-1.40625 0.78125,0 L 406,335.875 c 3.65084,-3.42639 6.18114,-5.72437 7.875,-8.59375 1.69386,-2.86938 2.3125,-6.14936 2.3125,-10.90625 0,-5.52601 -3.42658,-12.2937 -7.53125,-19.5625 -4.10467,-7.2688 -9.03417,-14.85081 -12.375,-20.96875 C 388.07012,260.807 376.94584,232.75325 373.5625,140.25 c -0.002,-0.0454 0.002,-0.0796 0,-0.125 z" transform="translate(0,82.362183)" id="rect4523" inkscape:connector-curvature="0" sodipodi:nodetypes="ccssssccccccccccccccccccccccccssssccc"/>
    <path style="font-size:medium;font-style:normal;font-variant:normal;font-weight:normal;font-stretch:normal;text-indent:0;text-align:start;text-decoration:none;line-height:normal;letter-spacing:normal;word-spacing:normal;text-transform:none;direction:ltr;block-progression:tb;writing-mode:lr-tb;text-anchor:start;baseline-shift:baseline;color:#000000;fill:#ffffff;fill-opacity:1;stroke:none;stroke-width:3;marker:none;visibility:visible;display:inline;overflow:visible;enable-background:accumulate;font-family:Sans;-inkscape-font-specification:Sans" d="m 340.09375,339.59375 -0.34375,0.21875 -8.6875,5.25 -2.75,1.6875 3.0625,1.03125 7.15625,2.40625 0,-3.15625 -3.15625,-1.0625 5.5625,-3.375 30.625,0 30.65625,0 5.53125,3.375 -3.125,1.03125 0,3.1875 7.15625,-2.40625 3.0625,-1.03125 -2.78125,-1.6875 -8.65625,-5.25 -0.375,-0.21875 -0.40625,0 -31.0625,0 -31.03125,0 z" id="path4530" transform="translate(0,82.362183)" inkscape:connector-curvature="0" sodipodi:nodetypes="ccccccccccccccccccccccc"/>
    <path style="fill:none;stroke:#ffffff;stroke-width:3.7866261;stroke-linecap:round;stroke-linejoin:miter;stroke-miterlimit:4;stroke-opacity:1;stroke-dasharray:none" d="m 392.76316,489.90661 0,-56.00991" id="path4554" inkscape:connector-curvature="0"/>
    <path inkscape:connector-curvature="0" id="path4556" d="m 350.38368,489.90661 0,-56.00992" style="fill:none;stroke:#ffffff;stroke-width:3.7866261;stroke-linecap:round;stroke-linejoin:miter;stroke-miterlimit:4;stroke-opacity:1;stroke-dasharray:none" inkscape:transform-center-x="21.18974" inkscape:transform-center-y="1.6213367"/>
    <path sodipodi:type="arc" style="fill:#000000;stroke:none" id="path4591" sodipodi:cx="371.57343" sodipodi:cy="187.58635" sodipodi:rx="9.0158281" sodipodi:ry="12.25" d="m 380.58925,187.58635 c 0,6.76549 -4.03652,12.25 -9.01582,12.25 -4.97931,0 -9.01583,-5.48451 -9.01583,-12.25 0,-6.76549 4.03652,-12.25 9.01583,-12.25 4.9793,0 9.01582,5.48451 9.01582,12.25 z" transform="translate(0,82.362183)"/>
  </g>
</svg>