<svg version="1.2" xmlns="http://www.w3.org/2000/svg" viewBox="0 0 491 411" width="491" height="411">
	<title>Apriltsi-svg</title>
	<style>
		.s0 { fill: #ef7f1a } 
		.s1 { fill: #133050 } 
	</style>
	<g id="Layer">
		<g id="Layer">
			<path id="Layer" fill-rule="evenodd" class="s0" d="m260.4 0.8c36 0 65.1 29.2 65.1 65.1 0 15.6-5.5 29.9-14.6 41.1l-4 1.7-83-56.9-27.9 24.5q-0.8-5.1-0.8-10.4c0-35.9 29.2-65.1 65.2-65.1z"/>
			<path id="Layer" fill-rule="evenodd" class="s1" d="m284.7 165c32.9-17.9 35.3-15.2 40.6-9.2 2.5 2.8 5.6 6.3 14 8.3 11.1 2.8 21.4 8.6 32.2 12.5 32.8 11.7 65.6 24.8 99.5 32.6l-0.5 2.4c-5.6-1.1-24.9-6.2-47.9-13-16.8-5-35.5-11-52.3-16.9-13.3-4.6-25.3-9.2-34.2-13.4-8.8-4.3-14.7-8.4-15.8-12.4-1.2-0.4-5.1 0.5-9.8 1.9-10 3.1-23.1 8.6-24.7 9.4z"/>
			<path id="Layer" fill-rule="evenodd" class="s1" d="m131.9 240.7c0.7-0.5 1.5-1 2.3-1.4q1.2-0.7 2.3-1.4c10.8-6.1 24.2-9.6 36.1-13.2 11.7-3.5 33.3-22 58.5-29.8 42-13.1 27.5-39.8 74.5-3.1 3.2 2.4 5.9 4.5 7.9 5.8 23.1 14.9 39.1 19.6 57.2 27.6 18.1 8 38.4 13.4 65.5 17.4l-0.3 2-22.9-2.9c-28-5-68.4-21.3-100-38.9-58.3-32.3-28.8-21.9-84.8-0.2-27.2 10.5-27.8 22.8-63.2 28.2-10.8 1.7-17.9 3.7-27.3 8.8l-0.1 0.1c-1.4 0.8-2.9 1.6-4.4 2.6z"/>
			<path id="Layer" fill-rule="evenodd" class="s1" d="m3.1 192.8c1.2 3.2 4.1 4.5 6.5 2.8 65.2-45.6 59.1-14.8 69.6-74.6 41.6 21.6 29.6 18.1 68.3-34.1 57.1-8 35.6 11 77.6-30.5 24.9 14.6 72.5 54.6 88.9 61.5 1.3 0.6 13.3-2.4 18.4-3.7 18.8 38.6 2.8 17.1 50.2 32.5 12.3 4 66.4 18.9 105.3 37.8 2.8 1.4-0.4-3.2-3-4.4-57.1-26-75.3-31.1-136.1-48.9-16.2-31.5-7.8-27.7-33.6-20.8l-75.8-54c-24.7-16.1-6-12.8-44.6 17.6-65.8 6.2-43.9-4.6-87.3 51.1-39.2-21.6-32.2-27.8-40.8 17.8-41.6 23.2-27.8 15.2-61.5 32.5-2.4 1.7-3.3 14.2-2.1 17.4z"/>
			<path id="Layer" fill-rule="evenodd" class="s1" d="m15.8 349.1l-15.5-2.8 38.8-78 38.7 77.9-16 2.9-9-19.6h-27.8zm14.9-32.6h16.5l-8.2-17.7zm51.5 31.6v-75.3h58.8v74l-15.5 1.3v-61.2h-27.8v59.9zm71.8-75.3c1-0.1 2.2-0.1 3.7-0.2q2.2 0 4.7-0.1c1.7-0.1 3.4-0.2 5-0.2q2.5-0.1 4.5-0.1 9.5 0 15.4 2.5 5.9 2.4 9.2 6.1 3.3 3.7 4.5 8 1.2 4.2 1.2 7.9 0 4.9-1.8 9.3-1.7 4.4-5.2 7.8-3.5 3.4-8.8 5.4-5.3 2-12.5 2-1.2 0-2.2 0-1-0.1-2.2-0.2v25.8l-15.5 1.3zm15.5 34.1q1.1 0.2 2 0.2 1 0 2.1 0 4 0 6.4-1c1.7-0.6 3-1.5 4-2.5q1.5-1.6 2.1-3.5 0.6-1.8 0.6-3.5 0-1.4-0.5-3.2-0.5-1.8-1.8-3.3-1.4-1.6-3.8-2.7-2.4-1-6.2-1h-4.9zm89.8 41.3v-44l-47.6 47.7v-79l15.4-1.3v44.9l47.7-48v78.4zm36.6 1.1l-15.7-1.8 32.7-79 32.8 79-16.2 1.7-17-44.9zm55.3-1.7v-74.7l15.4-1.3v61.8h29.4v-60.5l15.4-1.3v61.8h7.1v26.8l-14.8 1.3v-13.9zm123.7 0.6v-43.9l-47.7 47.6v-79l15.5-1.3v45l47.6-48v78.3z"/>
			<path id="Layer" fill-rule="evenodd" class="s1" d="m67.1 399.7q0.1 0 0.3 0.1 0.3 0 0.5 0.2 0.2 0.1 0.4 0.5 0.1 0.4 0.1 1 0.1 0.9 0 1.8-0.1 0.8-0.1 1.7 0 1.1 0.1 2.2 0.1 1 0 2.2 0 0.6-0.1 0.9-0.2 0.3-0.5 0.5-0.3 0.1-0.6 0.1c-0.2 0-4 0-4.2 0q-0.7 0-1-0.1-0.3-0.2-0.5-0.4-0.1-0.2-0.1-0.4c0-0.2 0-1.5 0-1.6q0-1-0.3-1.4-0.4-0.3-0.8-0.4-0.5-0.1-1.1-0.1c-0.4 0.1-0.8 0.1-1.1 0.1h-6.2q-0.6 0-1.3-0.1-0.6-0.1-1.1 0.2-0.6 0.3-0.6 0.7-0.1 0.4-0.1 0.8l-0.1 1.6q0 0.7-0.8 0.9-0.8 0.2-1.3 0.2-0.3 0-0.5-0.1-0.3 0-0.6 0-0.5 0-1 0-0.5 0-1 0.1-1.1 0-1.3-0.4-0.3-0.5-0.3-1.1-0.1-1 0-1.9c0-0.7 0.1-1.3 0.1-1.9q0-1.1-0.1-2.2c0-0.8 0-1.5 0-2.3q0.1-0.4 0.2-0.6 0-0.3 0.2-0.5 0.2-0.3 0.5-0.3 0.2 0 0.6 0h0.5c0.1-0.3 0.1-0.4 0.1-0.6q0-0.3 0.1-0.5c0.1-0.8 0.3-1.4 0.4-1.8q0.2-0.6 0.4-1.2 0-0.3 0.1-0.4 0-0.2 0-0.4c0-0.1 0.1-0.3 0.1-0.5q0.1-0.4 0.2-1 0-0.2 0.2-0.8 0.1-0.6 0.2-0.8 0.3-1.4 0.6-2.5 0.3-1.1 0.6-2.3 0.3-1.2 0.6-2.6 0.3-1.4 0.7-3.3 0.2-1.3 0.4-2.1 0.3-0.9 1-1.5 0.5-0.3 0.7-0.4 0.3 0 0.6 0 0.2 0 0.4 0 0.1 0 0.3-0.1 0.2 0 0.5 0 0.3 0 0.8 0h2.9q0.4 0 0.7 0 0.2 0 0.6 0 0.3 0 0.6 0 0.3 0 0.6 0c0.2 0 0.6 0 1 0.1q0.7 0.1 1.1 0.4 0.2 0.3 0.4 0.7c0.2 0.3 0.3 0.5 0.4 0.8q0.1 0.3 0.2 0.8 0.1 0.4 0.3 1l0.4 1.4q0.2 0.6 0.4 1.2 0.1 0.5 0.3 1.4 0 0.5 0.1 0.8 0.1 0.3 0.4 1.1 0.2 0.6 0.3 1 0.1 0.3 0.2 0.6 0 0.4 0 0.6 0.1 0.2 0.1 0.6 0.3 1.8 0.6 2.9 0.2 1.1 0.4 1.8l0.6 3.1q0.1 0.4 0.2 0.7 0.2 0.4 0.2 0.7 0.1 0.3 0.1 0.6 0 0.2 0.1 0.5zm-14.6-6.9q-0.1 0.2-0.3 1.6-0.2 1.4-0.7 3.1-0.1 0.5-0.2 1.1-0.1 0.5-0.2 1.1h7.8q-0.2-0.7-0.3-1.3-0.1-0.6-0.2-1.3-0.2-0.9-0.2-1.7-0.1-0.8-0.5-1.7 0-0.6 0-0.9c-0.1-0.2-0.1-0.5-0.1-0.7q-0.1-0.3-0.1-0.6-0.1-0.3-0.2-0.6c-0.2-0.7-0.3-1.1-0.3-1.4q0-0.4-0.2-0.9l-0.6-1.9q-0.1-0.3-0.3-0.7-0.1-0.4-0.3-0.6-0.2-0.3-0.6-0.3-0.3 0-0.9 0.6-0.4 0.6-0.7 2.5-0.1 0.3-0.1 0.5 0 0.1-0.1 0.3 0 0.3-0.1 0.6 0 0.4-0.2 1-0.1 0.8-0.2 1.3-0.2 0.6-0.2 0.9zm25.4-11.1q0.1 0.3 0.1 0.5 0 0.1 0.3 0.7 0.4 0.5 0.3 0.9 0 0.3 0.1 0.7 0.1 0.3 0.3 0.6 0.2 0.3 0.3 0.5 0.2 0.3 0.3 0.7 0.1 0.2 0.2 0.6l0.8 2q0.1 0.2 0.2 0.5 0 0.2 0.1 0.4c0.1 0.4 0.2 0.7 0.4 0.9 0.1 0.4 0.3 0.5 0.4 0.5q0.3 0.1 0.5-0.4 0-0.1 0.1-0.2 0 0 0.1-0.1 0-0.1 0.1-0.3 0-0.2 0.1-0.7 0.4-1.7 0.6-2.5 0.2-0.7 0.4-1.1 0.3-0.9 0.4-1.6 0.2-0.6 0.3-1 0.1-0.4 0.2-0.7 0-0.2 0.1-0.4 0-0.2 0.2-0.7 0.2-0.5 0.2-1l0.3-1.2q0-0.1 0.1-0.3 0-0.1 0-0.3 0.1-0.3 0.2-0.7 0-0.3 0.3-0.7 0.4-0.5 1.1-0.4 0.7 0 1.3 0l1.1 0.1q0.4 0 0.6 0 0.2 0 0.4 0h0.7q0.3 0 0.6 0 0.3 0 0.5 0.3 0.2 0.2 0.2 0.4 0.1 0.3 0.1 0.5 0 0.4-0.1 0.8-0.1 0.3-0.2 0.7-0.1 0.3-0.2 0.7-0.1 0.4-0.2 0.8c-0.1 0.2-0.1 0.4-0.2 0.5q-0.1 0.3-0.1 0.6-0.2 0.3-0.2 0.5-0.1 0.1-0.1 0.3-0.1 0.1-0.2 0.4-0.1 0.3-0.2 1c-0.1 0.2-0.2 0.5-0.3 0.8q-0.1 0.3-0.2 0.7-0.1 0.4-0.2 0.8-0.1 0.4-0.2 0.8-0.2 0.8-0.5 1.4-0.2 0.6-0.3 1.1-0.2 0.4-0.3 0.8-0.2 0.4-0.3 0.8-0.3 0.7-0.5 1.3-0.2 0.7-0.3 1.2c-0.1 0.4-0.2 0.8-0.3 1.2q-0.2 0.6-0.4 1.3-0.3 0.9-0.7 1.9-0.3 1-0.8 2-0.3 0.7-0.5 1.1-0.1 0.4-0.2 0.5 0 0.2-0.1 0.3 0 0.1-0.1 0.3-0.2 0.5-0.5 1.1-0.3 0.6-0.8 1.1-0.2 0.2-0.5 0.5-0.5 0.3-1.1 0.7-0.7 0.3-1.7 0.5-1 0.3-2.4 0.3-0.5 0-1-0.1-0.6-0.1-1.1-0.1h-0.7q-0.7 0-1.1-0.1-0.5-0.1-1-0.6-0.3-0.4-0.4-0.8 0-0.4 0-0.6v-1q0-0.4 0-0.6 0-0.2 0.1-0.3 0-0.2 0-0.3 0-0.1 0-0.4 0-0.1 0-0.3-0.1-0.3-0.1-0.5 0-0.3 0-0.5 0-0.2 0-0.4 0-0.3 0.3-0.5 0.2-0.2 0.5-0.3 0.3 0 0.5 0 0.2 0 0.5 0 0.2 0.1 1.3 0.1 0.6 0 1.3-0.1 0.6-0.1 0.6-0.9 0-0.1-0.1-0.4-0.1-0.4-0.6-1.5-0.1-0.2-0.2-0.5-0.1-0.2-0.2-0.4-0.3-0.6-0.5-1.1-0.3-0.5-0.5-1.1l-1.4-3.1q-0.3-0.7-0.6-1.4-0.3-0.6-0.6-1.3-0.4-0.9-0.7-1.7-0.3-0.9-0.7-1.8l-1.1-2.5q-0.2-0.4-0.3-0.7-0.1-0.3-0.2-0.6-0.1-0.2-0.2-0.5-0.1-0.3-0.3-0.7c-0.1-0.2-0.2-0.4-0.3-0.6q-0.1-0.3-0.1-0.7 0-0.6 0.5-0.9 0.2-0.2 0.4-0.2 0.2 0 0.4 0 0.4 0 0.6 0 0.3 0 1.1 0l1.8 0.1q0.3 0 0.4 0 0.1-0.1 0.1-0.1 0.1 0.1 0.3 0 0.1 0 0.7 0 0.6 0 0.8 0.2 0.3 0.1 0.5 0.3 0.4 0.5 0.4 0.7 0.1 0.2 0.2 0.5l0.1 0.4q0.1 0.3 0.1 0.5 0.1 0.3 0.1 0.5zm18 24.9q-0.2 0-0.5-0.1-0.3-0.1-0.5-0.2-0.2-0.2-0.2-0.4-0.1-0.2-0.1-0.3v-0.8q-0.1-0.8-0.1-1.3 0-0.5 0.1-1 0-0.5 0-1.2 0-0.7 0-1.9v-4.5l0.1-1.9q0-1.1-0.1-2-0.1-0.8-0.1-1.6 0-0.9 0.1-1.6 0-0.6 0-1.2v-3.9q0-0.5 0.1-1 0-0.4 0-1-0.1-0.6-0.1-1-0.1-0.3-0.1-0.8 0-0.7 0.1-1.1 0-0.3 0.2-0.5 0.2-0.2 0.4-0.3 0.2 0 0.8-0.1 0.9 0 1.3 0 0.5 0.1 0.9 0.1h0.6q0.3 0 0.6-0.1 0.3 0 0.6 0 0.2 0 0.6 0.1 0.3 0 0.5 0.3 0.2 0.2 0.3 0.5 0.1 0.2 0.1 0.4v18q0 0.5 0 0.9 0.1 0.4 0.4 1.2 0.3 0.6 0.9 0.9c0.5 0.2 0.9 0.4 1.2 0.4 0.1 0 0.9 0 1.1 0q0.3 0 0.7-0.1 0.4 0 0.8 0 0.3-0.1 0.6-0.1 0.4-0.2 0.8-0.5 0.3-0.3 0.4-0.6 0-0.2 0.1-0.9 0.1-0.7 0.1-1.6v-15.3q0-0.4-0.1-0.9 0-0.4 0-0.8c0-0.3 0-0.6 0.1-0.8q0.1-0.4 0.4-0.7 0.1-0.1 0.5-0.3 0.3-0.1 1-0.1h2.1q0.7 0 0.9 0 0.2 0 0.5 0h0.6q0.3 0 0.4 0 0.2 0 0.4 0.3 0.1 0.1 0.2 0.4 0.1 0.3 0.1 1l-0.2 5q-0.1 0.6 0 1.3 0 0.6 0.1 1.2 0 0.6 0 1.2 0 0.5 0 1.2v4c0 0.3 0 2.4 0 2.6q0 0.2 0 0.4 0.1 0.2 0.1 0.3 0 0.2 0 0.4 0.1 0.6 0 0.9 0 0.4 0.3 1.2 0.3 0.6 1 0.9c0.4 0.2 0.9 0.3 1.3 0.4q0.2 0 0.7 0 0.4 0 0.8-0.1 0.5 0 0.9-0.1 0.3 0 0.6 0 0.4-0.2 0.8-0.5 0.3-0.3 0.4-0.6 0-0.2 0.1-0.9 0.1-0.7 0.1-1.6v-15.3q0-0.4-0.1-0.9 0-0.4 0-0.8 0-0.4 0.1-0.8 0.1-0.4 0.4-0.7 0.1-0.1 0.4-0.3 0.4-0.1 1.1-0.1h2.1q0.6 0 0.9 0 0.2 0 0.5 0h0.6q0.3 0 0.4 0 0.2 0 0.4 0.3 0.1 0.1 0.2 0.4 0.1 0.3 0.1 1l-0.2 5q-0.1 0.6 0 1.3 0 0.6 0 1.2 0.1 0.6 0.1 1.2 0 0.5-0.1 1.2l0.1 4v0.4q0 0.8 0 1.4 0 0.7 0 1.5 0 0.7 0 1.3 0 0.7 0 1.4 0 0.4 0 1 0.1 0.5 0.1 1v0.4q0 0.5 0 0.8-0.1 0.4-0.1 0.6 0 0.2 0 0.4 0 0.2 0 0.4l0.1 1.1v1q0 0.3 0 0.5 0 0.3-0.2 0.5-0.1 0.1-0.3 0.3-0.2 0.1-0.6 0.1-0.2 0-0.5 0-0.2 0-0.4-0.1-0.3 0-0.6 0-0.2 0-0.5-0.1l-2.8 0.1q-0.5 0-0.9 0-0.4 0-0.9 0c-1.1 0-2.2 0-3.2 0q-1.7 0-3.3 0l-9.1 0.1q-0.7 0-1.3 0-0.6 0.1-1.2 0.1-0.9 0-1.8-0.1-1-0.1-1.8-0.1zm48.8-29.7q0.4 0 0.6 0.1 0.3 0 0.7 0 0.3 0 0.6 0 0.2-0.1 0.5-0.1 0.4 0 1.1 0.1 0.7 0.1 1.1 0.5 0.2 0.2 0.4 0.6 0.2 0.5 0.4 0.8 0.1 0.4 0.2 0.8 0.1 0.5 0.3 1.1l0.4 1.4q0.2 0.6 0.3 1.1 0.2 0.6 0.4 1.5 0 0.5 0.1 0.8 0.1 0.2 0.3 1 0.3 0.6 0.4 1 0.1 0.4 0.1 0.7 0.1 0.3 0.1 0.6 0 0.2 0.1 0.5 0.3 1.8 0.5 2.9 0.3 1.2 0.4 1.8l0.7 3.2q0.1 0.3 0.2 0.7 0.1 0.3 0.2 0.7 0.1 0.3 0.1 0.5 0 0.3 0.1 0.6l0.8 3.7q0.1 0.5 0.2 1.1 0.2 0.6 0 1.2-0.2 0.4-0.4 0.6c-0.1 0.1-0.2 0.1-0.4 0.2q-0.3 0.1-0.7 0.1-0.3 0-1.2 0.1h-0.8q-0.1 0-0.4 0-0.3 0-0.6 0-0.4 0-0.7 0-0.4 0-0.5-0.1-0.4 0-0.5-0.2-0.2 0-0.3-0.2-0.3-0.4-0.4-0.6 0-0.1-0.1-0.4l-0.8-2.3q-0.2-0.4-0.3-0.6-0.2-0.1-0.3-0.2-0.1 0-0.3 0-0.3-0.1-0.6-0.1-0.3 0-0.6-0.1-0.2 0-0.3 0h-1.1q-0.5 0-1 0-0.5 0.1-1.1 0.1-0.5 0.1-1 0.1-0.5 0.1-0.8 0.2-0.4 0.1-0.7 0.4-0.4 0.2-0.6 0.6-0.2 0.4-0.3 0.9-0.1 0.5-0.4 1.4 0 0.1-0.1 0.4 0 0.3-0.3 0.5 0 0.1-0.2 0.1-0.2 0-0.2 0-0.3 0-0.5 0-0.2 0-0.5 0-0.8-0.1-1.6 0-0.9 0.1-1.7 0-0.5 0-0.8-0.1-0.4 0-0.7-0.4-0.1-0.2-0.2-0.5-0.2-0.2-0.2-0.4 0-0.1 0.1-0.6 0.1-0.5 0.1-0.5 0-0.2 0.1-0.3 0-0.1 0-0.2c0.1-0.3 0.1-0.5 0.1-0.7q0-0.4 0.1-0.8l0.2-1q0.3-1 0.3-1.6 0.1-0.5 0.2-1 0.2-1.2 0.4-1.7 0.2-0.6 0.3-1.2 0.1-0.3 0.1-0.5 0.1-0.1 0.1-0.3c0-0.2 0-0.4 0.1-0.6q0.1-0.3 0.2-0.9 0-0.3 0.1-0.9 0.1-0.6 0.2-0.8 0.3-1.3 0.6-2.4 0.3-1.2 0.6-2.4 0.3-1.2 0.7-2.6 0.3-1.4 0.6-3.3 0.3-1.2 0.5-2.1 0.2-0.8 1-1.4 0.4-0.4 0.7-0.4 0.3 0 0.6 0 0.2 0 0.3-0.1 0.2 0 0.4 0c0.1 0 0.3 0 0.5 0q0.3-0.1 0.8-0.1zm0.4 9.9q-0.1-0.3-0.3-0.7-0.1-0.5-0.3-0.7-0.2-0.2-0.6-0.2-0.3 0-0.8 0.6-0.5 0.6-0.8 2.5-0.1 0.3-0.1 0.4 0 0.2-0.1 0.4 0 0.2-0.1 0.6 0 0.3-0.1 0.9-0.2 0.8-0.3 1.4-0.2 0.5-0.2 0.9v0.2q0 0.2 0 0.3 0 0.1 0 0.2 0 0.3 0 0.5 0.1 0.3 0.2 0.5 0.1 0.2 0.5 0.5 0.5 0.2 1.4 0.3 0.2 0 0.5 0 0.4 0 0.7-0.1 0.3 0 0.6 0 0.3-0.1 0.5-0.2 0.6-0.2 0.7-0.6 0.1-0.4 0.1-0.8 0-0.5 0-0.9c-0.1-0.2-0.1-0.4-0.1-0.6q-0.1-0.3-0.1-0.6-0.1-0.3-0.2-0.7c-0.2-0.6-0.3-1.1-0.3-1.3q0-0.4-0.2-0.9z"/>
			<path id="Layer" fill-rule="evenodd" class="s1" d="m172.3 377q0.6 0 0.9 0.2 0.3 0.2 0.5 0.3 0.3 0.3 0.4 0.6 0 0.4 0 0.7v2q0 0.2 0 0.4 0 0.1 0 0.3 0 0.3-0.1 0.6c0 0.1 0 0.6 0 0.8q0 0.4-0.2 0.7 0 0-0.2 0.2c0 0-0.2 0.1-0.3 0.1l-1.7-0.1c-0.2 0-0.5 0.1-0.8 0.1q-0.5 0.1-1 0.6-0.1 0.1-0.4 0.7-0.4 0.6-0.4 2.2v1.3q0 1.2 0.1 1.6 0 0.4 0 0.6 0 0.1 0 0.3-0.1 0.1-0.2 0.8-0.1 1-0.1 1.4 0.1 0.5 0.1 1.2c0 0.4 0 3.4 0 3.6q0 0.3-0.1 1.2 0 0.4 0 0.6c0 0.1 0 0.3 0 0.5q0 0.2 0 0.5 0 0.3 0 0.8l0.2 2.7q0 0.8-0.1 1.1 0 0.4-0.2 0.6-0.4 0.3-0.8 0.3l-1.9 0.2q-0.6 0-1.1 0-0.4-0.1-0.6-0.1h-1.6c-0.1 0-0.2 0-0.4-0.1q-0.2-0.1-0.4-0.5-0.2-0.3-0.2-0.7v-1.5-0.4q0-0.2 0-0.4 0.1-0.2 0.1-0.4 0-0.6 0-1.3 0-0.6-0.1-1.2 0-0.4 0-0.8-0.1-0.4 0-0.7l0.1-2.4q0.1-0.3 0-0.6 0-0.3 0.1-0.7 0-0.1 0-0.3 0-0.1 0-0.3v-0.5q0-0.4 0-0.5 0-0.2-0.1-0.7 0-0.3 0-0.5 0-0.2 0-0.4 0-0.2 0-0.4 0.1-0.3 0.1-0.7v-3.8q0-0.8 0-1.3 0-0.6-0.6-1.3c-0.2-0.2-0.3-0.3-0.5-0.4q-0.3-0.1-0.5-0.1l-2.5 0.1q-0.4 0-0.6-0.1-0.2-0.2-0.4-0.4-0.2-0.3-0.2-1.2 0-0.3 0-0.9 0-0.6 0-1l0.1-0.7q0-0.1 0-0.4 0-0.2 0.1-0.5 0-0.3 0-0.6 0.1-0.3 0.2-0.4 0.1-0.2 0.6-0.5 0.4-0.2 1.2-0.2 0.4 0 0.8 0 0.4 0.1 0.8 0.1 0.7 0 1.3 0 0.6 0 1.2 0 1.1 0 2.2 0 1.1 0.1 2.2 0.1zm15.3-0.2q0.4 0 0.7 0 0.2 0.1 0.6 0.1 0.3 0 0.6-0.1 0.3 0 0.6 0 0.3 0 1 0.1 0.8 0.1 1.1 0.5 0.2 0.2 0.4 0.6c0.2 0.3 0.3 0.6 0.4 0.8q0.1 0.4 0.2 0.8 0.1 0.5 0.3 1.1l0.4 1.4q0.2 0.6 0.4 1.1 0.1 0.6 0.3 1.5 0 0.5 0.1 0.8 0.1 0.2 0.4 1 0.2 0.6 0.3 1 0.1 0.4 0.2 0.7 0 0.3 0.1 0.5 0 0.3 0 0.6 0.3 1.8 0.6 2.9 0.3 1.1 0.4 1.8l0.7 3.2q0 0.3 0.2 0.7 0.1 0.3 0.2 0.7 0 0.3 0 0.5 0 0.3 0.1 0.6l0.9 3.7q0.1 0.5 0.2 1.1 0.1 0.6-0.1 1.2-0.1 0.4-0.3 0.5-0.2 0.2-0.4 0.3-0.3 0.1-0.7 0.1-0.4 0-1.2 0.1h-0.8q-0.1 0-0.4 0-0.3 0-0.7 0-0.3 0-0.7 0-0.3 0-0.5-0.1-0.3-0.1-0.5-0.2-0.1 0-0.3-0.2-0.3-0.4-0.3-0.6-0.1-0.1-0.2-0.4l-0.8-2.3q-0.1-0.4-0.3-0.6-0.1-0.1-0.3-0.2 0 0-0.3 0-0.3-0.1-0.6-0.1-0.3 0-0.5-0.1-0.3 0-0.3 0h-1.2q-0.4 0-1 0-0.5 0.1-1 0.1-0.6 0-1 0.1-0.5 0.1-0.8 0.2-0.4 0.1-0.8 0.3-0.3 0.3-0.5 0.7-0.3 0.4-0.4 0.9-0.1 0.5-0.3 1.4-0.1 0.1-0.1 0.4-0.1 0.3-0.3 0.5-0.1 0.1-0.3 0.1-0.1 0-0.2 0-0.2 0-0.5 0-0.2 0-0.4 0-0.9-0.1-1.7 0-0.8 0.1-1.7 0-0.5-0.1-0.8-0.1-0.3 0-0.6-0.4-0.2-0.2-0.3-0.5-0.1-0.2-0.1-0.4 0-0.1 0-0.6 0.1-0.5 0.1-0.6 0.1-0.1 0.1-0.2 0-0.1 0.1-0.2 0.1-0.4 0.1-0.8 0-0.3 0.1-0.7l0.2-1q0.2-1.1 0.3-1.6 0-0.5 0.1-1 0.2-1.2 0.4-1.7 0.2-0.6 0.4-1.2 0-0.3 0.1-0.5 0-0.1 0-0.3 0.1-0.3 0.1-0.6 0.1-0.3 0.2-1c0-0.1 0.1-0.4 0.2-0.8q0.1-0.6 0.2-0.8c0.2-0.9 0.4-1.7 0.6-2.5q0.3-1.1 0.6-2.3 0.3-1.2 0.6-2.6 0.3-1.4 0.7-3.3 0.2-1.2 0.4-2.1 0.3-0.8 1-1.4 0.5-0.4 0.8-0.4 0.2-0.1 0.5 0 0.2 0 0.4-0.1 0.1 0 0.3 0 0.2 0 0.5-0.1 0.3 0 0.9 0zm0.3 9.9q-0.1-0.3-0.2-0.7-0.2-0.5-0.3-0.7-0.3-0.2-0.6-0.2-0.4 0-0.9 0.6-0.5 0.6-0.8 2.5 0 0.3 0 0.4-0.1 0.2-0.1 0.4-0.1 0.2-0.1 0.6 0 0.3-0.2 0.9-0.1 0.8-0.3 1.4-0.1 0.5-0.1 0.9v0.2q0 0.2 0 0.3-0.1 0.1-0.1 0.2 0.1 0.3 0.1 0.5 0.1 0.3 0.2 0.5 0 0.2 0.5 0.5 0.4 0.2 1.4 0.2 0.2 0 0.5 0 0.3 0 0.7 0 0.3 0 0.6 0 0.3-0.1 0.5-0.2 0.6-0.2 0.7-0.6 0.1-0.4 0.1-0.8 0-0.5-0.1-0.9c0-0.2 0-0.4 0-0.6q-0.1-0.4-0.2-0.6c0-0.2-0.1-0.4-0.2-0.7q-0.2-1-0.2-1.3-0.1-0.4-0.2-0.9zm30.5-6q0 0.2 0 0.4 0 0.2 0 0.3 0 0.2-0.1 0.4 0 0.2 0 0.3v0.3q0 0.3 0 0.5 0.1 0.3 0.1 1.2l0.1 1.2q0.1 0.5 0.1 0.9 0.1 0.5 0.5 0.8 0.2 0.2 0.6 0.4 0.4 0.2 1 0.2h2q0.9 0 1.2 0 0.3 0 0.5 0 0.2 0.1 0.5 0.1 0.4 0 1.3 0h0.3q0.2 0 0.4-0.1c0.2 0 0.4-0.2 0.8-0.3q0.4-0.2 0.5-0.3 0.2-0.1 0.3-0.3 0.2-0.3 0.4-0.6 0.2-0.3 0.2-0.9l-0.2-5.8q0-0.8 0-1.3 0-0.5 0.4-0.9 0.3-0.2 0.9-0.2h2.8q0.2 0.1 0.5 0 0.3 0 0.6 0 0.2-0.1 0.4-0.1 0.2 0 0.5 0 0.4 0 0.6 0.1 0.1 0.2 0.2 0.3 0.3 0.2 0.3 0.5 0 0.2 0 0.5v1l-0.1 1.1q0 0.2 0 0.4 0 0.2 0 0.4 0 0.2 0 0.6 0.1 0.3 0.1 0.8v0.4q0 0.5-0.1 1.1 0 0.5 0 1 0 0.6 0 1.3 0 0.6 0 1.3c0 0.5 0 1 0 1.5q0 0.6 0 1.4v0.4l-0.1 4q0 0.7 0.1 1.2 0 0.6-0.1 1.2 0 0.6-0.1 1.2 0 0.6 0 1.3l0.3 5q0 0.7-0.1 1-0.2 0.3-0.2 0.4-0.3 0.3-0.4 0.3-0.2 0-0.4 0h-0.7q-0.2 0-0.4 0-0.3 0-0.9 0h-2.1q-0.8 0-1.1-0.2-0.3-0.1-0.4-0.2-0.3-0.3-0.4-0.7-0.1-0.4-0.1-0.8 0-0.4 0-0.8 0.1-0.5 0-0.9v-4.6q0-0.9 0-1.6-0.1-0.7-0.2-1-0.1-0.3-0.4-0.6-0.3-0.2-0.8-0.4-0.3 0-0.7-0.1-0.5 0-1-0.1-0.6 0-1.1 0-0.6 0-1 0h-2.4q-1 0-1.7 0.4c-0.4 0.2-0.7 0.6-0.9 0.9q-0.3 0.7-0.3 1.1 0 0.4 0 0.9l-0.1 7.4q0 0.2-0.1 0.4-0.1 0.3-0.3 0.5-0.2 0.3-0.5 0.3-0.4 0.1-0.6 0.1-0.3 0-0.6 0-0.3-0.1-0.6-0.1h-0.6q-0.4 0-0.9 0.1-0.4 0-1.3 0-0.6-0.1-0.8-0.1-0.2-0.1-0.3-0.3-0.2-0.2-0.3-0.6-0.1-0.2-0.1-1 0-0.5 0.1-0.8c0-0.3 0.1-0.6 0.1-1q0-0.6 0-1-0.1-0.5-0.1-1v-3.9q0-0.6 0-1.3-0.1-0.6-0.1-1.5 0-0.8 0.1-1.6 0.1-0.8 0.1-2l-0.1-1.9v-4.5q0-1.2 0-1.9 0-0.7 0-1.2-0.1-0.5-0.1-1c0-0.3 0.1-0.8 0.1-1.3v-0.8q0-0.1 0.1-0.3 0-0.2 0.2-0.4 0.2-0.1 0.5-0.2 0.3-0.1 0.5-0.1l4.5 0.1q0.2 0 0.4 0 0.3 0 0.5 0.2 0.2 0.2 0.3 0.4 0.1 0.2 0.1 0.6zm32.6-3.9q0.4 0 0.7 0 0.2 0.1 0.6 0 0.3 0.1 0.6 0 0.3 0 0.5 0 0.4 0 1.1 0.1 0.7 0.1 1.1 0.5 0.2 0.2 0.4 0.6c0.2 0.3 0.3 0.5 0.4 0.8q0.1 0.4 0.2 0.8 0.1 0.5 0.3 1.1l0.4 1.3q0.2 0.7 0.3 1.2c0.2 0.4 0.2 0.9 0.4 1.5q0 0.4 0.1 0.7 0.1 0.3 0.4 1.1 0.2 0.6 0.3 1 0.1 0.4 0.2 0.7 0 0.3 0 0.5 0 0.3 0.1 0.6 0.3 1.8 0.6 2.9 0.2 1.1 0.4 1.8l0.6 3.2q0.1 0.3 0.2 0.7 0.1 0.3 0.2 0.7 0.1 0.2 0.1 0.5 0 0.3 0.1 0.5l0.9 3.8q0.1 0.4 0.2 1.1 0.1 0.6-0.1 1.2-0.1 0.4-0.3 0.5-0.2 0.2-0.4 0.3-0.3 0.1-0.7 0.1-0.4 0-1.2 0l-0.9 0.1q-0.1 0-0.4 0-0.2 0-0.6 0-0.4 0-0.7 0-0.3 0-0.5-0.1-0.4-0.1-0.5-0.2-0.2 0-0.3-0.2-0.3-0.4-0.4-0.6 0-0.2-0.1-0.4l-0.8-2.3q-0.1-0.4-0.3-0.6-0.1-0.1-0.3-0.2-0.1 0-0.3 0-0.3-0.1-0.6-0.1-0.3 0-0.5-0.1-0.3 0-0.4 0h-1.1q-0.4 0-1 0-0.5 0.1-1.1 0.1-0.5 0-1 0.1-0.5 0.1-0.8 0.2-0.4 0.1-0.7 0.3-0.3 0.3-0.6 0.7-0.2 0.4-0.3 0.9-0.1 0.5-0.3 1.4-0.1 0.1-0.1 0.4-0.1 0.3-0.3 0.5-0.1 0.1-0.3 0.1-0.1 0-0.2 0-0.2 0-0.5 0-0.2 0-0.5 0-0.8-0.1-1.6 0c-0.6 0-1.1 0-1.7 0q-0.5-0.1-0.8-0.1-0.4-0.1-0.7-0.4-0.1-0.2-0.2-0.5-0.2-0.2-0.2-0.5 0 0 0.1-0.5 0.1-0.5 0.1-0.6 0.1-0.1 0.1-0.2 0-0.1 0-0.3 0.1-0.3 0.1-0.7 0-0.3 0.1-0.7l0.3-1q0.2-1.1 0.2-1.6 0.1-0.5 0.2-1c0.1-0.8 0.2-1.4 0.4-1.8q0.2-0.5 0.4-1.2 0-0.2 0-0.4 0.1-0.1 0.1-0.4 0-0.2 0.1-0.5 0.1-0.3 0.2-1 0.1-0.2 0.1-0.8 0.2-0.6 0.2-0.8 0.4-1.3 0.6-2.5 0.3-1.1 0.6-2.3 0.4-1.2 0.7-2.6 0.3-1.4 0.6-3.3 0.3-1.2 0.5-2.1 0.3-0.8 1-1.5 0.5-0.3 0.7-0.3 0.3-0.1 0.6-0.1 0.2 0 0.4 0 0.1 0 0.3 0 0.2-0.1 0.5-0.1 0.2 0 0.8 0zm0.4 9.9q-0.1-0.4-0.2-0.8-0.2-0.4-0.4-0.6-0.2-0.2-0.5-0.2-0.4 0-0.9 0.6-0.5 0.6-0.8 2.5-0.1 0.2-0.1 0.4 0 0.2 0 0.4-0.1 0.2-0.1 0.5-0.1 0.4-0.2 1-0.1 0.8-0.3 1.4-0.1 0.5-0.1 0.8v0.3q0 0.1-0.1 0.2 0 0.2 0 0.3 0 0.2 0.1 0.5 0 0.3 0.1 0.5 0.1 0.2 0.6 0.5 0.4 0.2 1.4 0.2 0.2 0 0.5 0 0.3 0 0.6 0 0.4 0 0.7-0.1 0.3 0 0.5-0.1 0.6-0.2 0.7-0.6 0.1-0.4 0.1-0.8-0.1-0.5-0.1-0.9c0-0.2-0.1-0.5-0.1-0.7q0-0.3-0.1-0.6c-0.1-0.2-0.1-0.4-0.2-0.6q-0.2-1-0.3-1.4 0-0.3-0.2-0.8z"/>
			<path id="Layer" fill-rule="evenodd" class="s1" d="m285.8 406.7q-1.9 0.1-2.8 0.1-1 0-1.6-0.1-0.6 0-1.1 0-0.5 0-1.5 0h-1.5q-0.6 0-1-0.1-0.5-0.1-0.8-0.6-0.3-0.5-0.4-1.2-0.2-0.7-0.2-2.3 0-0.7 0.1-1.5 0.1-0.8 0.1-1.3 0-0.9-0.1-1.8 0-0.9 0-1.8 0-0.7 0.1-1.3 0-0.7 0.1-1.3 0.1-1.1 0-2.2 0-0.2-0.1-0.5 0-0.2 0-0.5 0-1 0.1-1.4 0-0.3 0-0.6 0-0.6 0-1.2 0-0.6 0-1.2v-1.2q0-0.5 0-0.9 0.1-0.4 0-0.9c-0.1-0.1-0.1-0.2-0.1-0.4q-0.1-0.2-0.1-0.4v-2.5q0-0.5 0.1-1.2 0.2-0.7 0.7-1.1 0.4-0.3 0.9-0.3 0.5-0.1 1-0.1l4.8 0.2c1.2 0.1 2.3 0.1 3.4 0q1.7-0.1 3.4-0.1h0.8q0.5 0 0.8 0 0.4 0.1 0.6 0.1 0.2 0 0.4 0 0.2 0 0.5 0l1.6-0.1q0.2 0.1 0.4 0.1 0.3 0 0.5 0.4 0.2 0.3 0.3 0.6c0 0.2 0 0.5 0 0.8q0 0.2 0 0.5-0.1 0.3-0.1 0.5 0 0.2 0 0.4 0.1 0.2 0.1 0.3 0 0.4-0.1 0.6 0 0.3 0 0.7 0 0.4-0.1 0.6 0 0.2-0.4 0.5-0.4 0.2-0.7 0.3-0.2 0-0.6 0l-9-0.3q-0.3 0-0.8 0.1-0.6 0.1-1.1 0.5-0.3 0.3-0.3 0.5 0 0.3 0 0.5v0.9q0 0.2 0 0.8 0.1 0.5 0.3 0.9 0.3 0.3 0.8 0.5 0.5 0.2 1.4 0.2l1-0.1q0.4 0 1 0 0.7 0 1.4 0.1 0.7 0.1 1.4 0.1 0.6 0.1 0.8 0.2c0.4 0 0.7 0.1 1 0.3q0.5 0.2 1.4 0.6 0.9 0.3 1.2 0.8 0.4 0.4 0.8 0.9 0.3 0.3 0.5 0.4 0.1 0.2 0.3 0.4 0.1 0.2 0.3 0.5 0.2 0.4 0.4 1 0.1 0.4 0.2 0.6 0.1 0.2 0.1 0.5 0.1 0.2 0.2 0.6 0 0.4 0 1.1 0.1 1 0.2 1.5 0 0.5 0 1.2 0 0.4 0 0.7 0 0.4-0.1 0.7-0.1 0.4-0.3 0.8-0.2 0.4-0.4 1-0.3 0.6-0.4 1-0.2 0.4-0.5 0.7-0.2 0.3-0.6 0.6-0.3 0.4-1 0.8-1.8 1.1-2.9 1.4-0.3 0.1-1.1 0.2-0.7 0.1-2.1 0.2zm-0.9-12.6q-0.3 0-0.9 0c-0.5 0-0.8 0.1-1 0.2q-0.6 0.3-0.9 1-0.3 0.8-0.2 1.4v0.8q0.1 0.6 0.1 0.9 0 0.3 0 0.6 0 0.4 0 0.6 0.2 0.3 0.6 0.5 0.4 0.1 0.8 0.2 0.5 0 1 0 0.5 0 0.8 0h0.6c0.8 0 1.5 0 2.1-0.1q0.9-0.2 1.5-0.9 0.2-0.4 0.4-0.8 0.2-0.5 0.2-1.1 0-0.7-0.2-1.2-0.2-0.5-0.5-0.9-0.4-0.5-1.2-0.8c-0.5-0.2-1.1-0.4-1.7-0.4zm25.9-17.2q0.5 0 0.7 0 0.2 0 0.6 0 0.3 0 0.6 0 0.3 0 0.6 0 0.3 0 1 0.1 0.7 0.1 1.1 0.4c0.1 0.2 0.3 0.4 0.4 0.7 0.2 0.3 0.3 0.5 0.4 0.8q0.1 0.3 0.2 0.8 0.1 0.4 0.3 1l0.4 1.4q0.2 0.6 0.4 1.2 0.1 0.5 0.3 1.4 0.1 0.5 0.1 0.8 0.1 0.3 0.4 1.1 0.2 0.6 0.3 1 0.1 0.3 0.2 0.6 0 0.4 0 0.6 0.1 0.2 0.1 0.6 0.3 1.8 0.6 2.9 0.2 1.1 0.4 1.8l0.6 3.1q0.1 0.4 0.2 0.7 0.2 0.4 0.2 0.7 0.1 0.3 0.1 0.6 0 0.2 0.1 0.5l0.9 3.7q0.1 0.5 0.2 1.1 0 0.2 0 0.3 0 0.3 0 0.4 0 0.1 0 0.2 0 0.2-0.1 0.4-0.1 0.4-0.3 0.5-0.2 0.2-0.4 0.2-0.3 0.2-0.7 0.2-0.4 0-1.2 0l-0.9 0.1q0 0-0.4 0-0.2 0-0.6 0-0.3 0-0.7-0.1-0.3 0-0.5 0-0.3-0.1-0.5-0.2-0.2-0.1-0.3-0.3-0.3-0.3-0.3-0.5-0.1-0.2-0.2-0.4l-0.8-2.4q-0.1-0.3-0.3-0.5-0.1-0.2-0.3-0.2 0 0-0.3-0.1-0.3 0-0.6 0-0.3-0.1-0.5-0.1-0.3 0-0.3 0h-1.2q-0.4 0-1 0-0.5 0-1 0.1-0.6 0-1.1 0.1-0.4 0-0.8 0.1-0.4 0.2-0.7 0.4-0.3 0.2-0.6 0.7-0.2 0.4-0.3 0.9-0.1 0.5-0.3 1.3-0.1 0.2-0.1 0.5-0.1 0.3-0.3 0.4-0.1 0.1-0.3 0.1-0.1 0.1-0.2 0.1-0.2 0-0.5-0.1-0.2 0-0.4 0-0.9 0-1.7 0-0.8 0.1-1.7 0-0.5 0-0.8-0.1-0.3 0-0.6-0.4-0.2-0.1-0.3-0.4-0.1-0.3-0.1-0.5 0-0.1 0-0.5 0.1-0.5 0.1-0.6 0.1-0.1 0.1-0.2 0-0.2 0.1-0.3 0.1-0.3 0.1-0.7 0-0.4 0.1-0.7l0.2-1.1q0.2-1 0.3-1.5 0-0.6 0.1-1 0.2-1.3 0.4-1.8 0.2-0.6 0.4-1.2 0-0.3 0.1-0.4 0-0.2 0-0.4c0-0.1 0.1-0.3 0.1-0.5q0.1-0.4 0.2-1c0-0.1 0.1-0.4 0.2-0.8q0.1-0.6 0.2-0.8 0.3-1.4 0.6-2.5 0.3-1.1 0.6-2.3 0.3-1.2 0.6-2.6 0.3-1.4 0.7-3.3 0.2-1.3 0.4-2.1 0.3-0.9 1-1.5 0.5-0.3 0.7-0.4 0.3 0 0.6 0 0.2 0 0.4 0 0.1 0 0.3-0.1c0.1 0 0.3 0 0.5 0q0.3 0 0.9 0zm0.3 9.8q-0.1-0.3-0.2-0.7-0.2-0.4-0.4-0.6-0.2-0.3-0.5-0.3-0.4 0-0.9 0.6-0.5 0.6-0.8 2.5 0 0.3-0.1 0.5 0 0.1 0 0.3-0.1 0.3-0.1 0.6-0.1 0.4-0.2 1-0.1 0.8-0.3 1.3-0.1 0.6-0.2 0.9v0.3q0.1 0.1 0 0.2 0 0.1 0 0.3 0 0.2 0.1 0.5 0 0.3 0.1 0.4 0.1 0.3 0.6 0.5 0.4 0.3 1.4 0.3 0.2 0 0.5 0 0.3 0 0.6 0 0.4 0 0.7-0.1 0.3 0 0.5-0.1 0.6-0.2 0.7-0.7 0.1-0.4 0.1-0.7 0-0.6-0.1-0.9c0-0.2 0-0.5-0.1-0.7q0-0.3-0.1-0.6-0.1-0.3-0.2-0.6-0.3-1-0.3-1.4 0-0.4-0.2-0.9zm20.6 6.1q-0.1 0.2-0.3 1.6-0.2 1.4-0.7 3.1-0.1 0.6-0.2 1.3-0.1 0.7-0.3 1.3-0.1 0.8-0.2 1.5-0.2 0.7-0.3 1.3c0 0.7-0.1 1.3-0.3 1.8q-0.2 0.8-0.2 1-0.1 0.1-0.1 0.4-0.1 0.3-0.3 0.4-0.1 0.1-0.3 0.2-0.1 0-0.2 0-0.2 0-0.5 0-0.2-0.1-0.4-0.1-0.9 0-1.7 0-0.8 0.1-1.7 0-0.5 0-0.8-0.1-0.3 0-0.6-0.4-0.2-0.1-0.3-0.4-0.1-0.2-0.1-0.3 0-0.3 0-0.6 0 0 0-0.1 0.1-0.5 0.1-0.6 0.1-0.1 0.1-0.2 0-0.1 0.1-0.3c0-0.2 0.1-0.4 0.1-0.7q0-0.3 0.1-0.7l0.2-1.1q0.2-1 0.3-1.5 0-0.6 0.1-1c0.1-0.8 0.3-1.4 0.4-1.8q0.2-0.6 0.4-1.2 0-0.2 0.1-0.4 0-0.1 0-0.4c0-0.1 0.1-0.3 0.1-0.5q0.1-0.4 0.2-1 0-0.2 0.2-0.8 0.1-0.6 0.2-0.8 0.3-1.4 0.6-2.5 0.3-1.1 0.6-2.3 0.3-1.2 0.6-2.6 0.3-1.4 0.7-3.3 0.2-1.3 0.4-2.1 0.3-0.9 1-1.5 0.5-0.3 0.7-0.4 0.3 0 0.6 0 0.2 0 0.4 0 0.1 0 0.3-0.1 0.2 0 0.5 0 0.3 0 0.9 0h2.8q0.4 0 0.7 0 0.2 0 0.6 0 0.3 0 0.6 0 0.3 0 0.6 0 0.3 0 1 0.1 0.7 0.1 1.1 0.5 0.2 0.2 0.4 0.6 0.3 0.4 0.4 0.8 0.1 0.3 0.2 0.8 0.1 0.4 0.3 1l0.4 1.4q0.2 0.6 0.4 1.2 0.1 0.6 0.3 1.5 0.1 0.4 0.1 0.7 0.1 0.3 0.4 1.1 0.2 0.6 0.3 1 0.1 0.3 0.2 0.7 0 0.3 0 0.5 0.1 0.3 0.1 0.6 0.3 1.8 0.6 2.9 0.2 1.1 0.4 1.8l0.6 3.1q0.1 0.4 0.2 0.7 0.2 0.4 0.2 0.8 0.1 0.2 0.1 0.5 0 0.3 0.1 0.5l0.9 3.7q0.1 0.5 0.2 1.1 0.1 0.7-0.1 1.3-0.1 0.4-0.3 0.5-0.2 0.2-0.4 0.2-0.3 0.2-0.7 0.2-0.4 0-1.2 0l-0.9 0.1q0 0-0.4 0-0.2 0-0.6 0-0.4 0-0.7-0.1-0.3 0-0.5 0-0.3-0.1-0.5-0.2-0.2-0.1-0.3-0.3-0.3-0.3-0.3-0.5-0.1-0.2-0.2-0.4-0.2-1.1-0.5-2.1-0.2-1-0.3-2-0.3-1-0.5-2-0.3-1-0.4-2.1-0.2-0.9-0.2-1.7-0.1-0.8-0.5-1.7 0-0.6 0-0.9c-0.1-0.2-0.1-0.5-0.1-0.7q-0.1-0.3-0.1-0.6-0.1-0.3-0.2-0.6c-0.2-0.7-0.3-1.1-0.3-1.4q0-0.3-0.2-0.8l-0.6-2q-0.1-0.3-0.3-0.7-0.1-0.4-0.3-0.6-0.2-0.3-0.6-0.2-0.3 0-0.9 0.5-0.4 0.6-0.7 2.6-0.1 0.2-0.1 0.4 0 0.1-0.1 0.3 0 0.3-0.1 0.6 0 0.4-0.1 1-0.2 0.8-0.3 1.3-0.2 0.6-0.2 0.9zm21.1-16q1 0 1.6 0 0.5 0.1 0.9 0.3 0.4 0.3 0.4 0.8 0.1 0.4 0.1 0.7 0 0.5 0 0.6-0.1 0.1-0.1 0.4v1q0 0.6 0 1 0 0.5 0 1c0 0.2 0 0.4 0 0.6q0.1 0.2 0.1 0.5l-0.1 1.8q0 0.5 0.1 0.7 0.1 0.3 0.2 0.4 0.1 0.1 0.3 0.1c0 0 0.1 0 0.2 0q0.2 0 0.5-0.1c0.1-0.1 0.4-0.2 0.6-0.5q0.2-0.2 0.3-0.4 0.2-0.3 0.4-0.5 0.2-0.4 0.5-0.8 0.3-0.5 0.8-1.2 0.7-1 1-1.5 0.3-0.5 0.6-0.9 0.2-0.4 0.5-0.8 0.2-0.4 0.5-0.8 0.2-0.4 0.2-0.5 0.1-0.2 0.2-0.5 0.4-0.7 0.6-0.9 0.3-0.3 0.4-0.3 0.2-0.2 0.4-0.2 0.3 0 0.5 0h0.6l1.7 0.1h1q1 0 1.7-0.1 0.8-0.1 1.1 0.3 0.2 0.1 0.2 0.2 0.1 0.2 0.1 0.4 0 0.2-0.1 0.5-0.1 0.3-0.3 0.5 0 0.2-0.1 0.2 0 0-0.1 0.1 0 0-0.1 0.1 0 0.2-0.2 0.5-0.1 0.3-0.3 0.6-0.2 0.4-0.8 1.3-0.2 0.4-0.5 0.9-0.3 0.4-0.7 0.9-0.3 0.5-0.6 0.9-0.3 0.4-0.4 0.6-0.2 0.2-0.4 0.4-0.2 0.2-0.4 0.6-0.3 0.3-0.3 0.4-0.1 0.1-0.2 0.2 0 0.1-0.1 0.1 0 0.1-0.1 0.3c-0.1 0.1-0.2 0.2-0.4 0.5q-0.2 0.3-0.4 0.7-0.3 0.4-0.6 0.8-0.2 0.3-0.2 0.5-0.1 0.2-0.2 0.5-0.1 0.4-0.1 0.6 0 0.4 0.1 0.7 0 0.3 0.1 0.5 0.2 0.6 0.8 1.6 0.6 1.1 1.1 1.9 0.2 0.4 0.4 0.8c0.2 0.2 0.4 0.5 0.5 0.8q0.1 0 0.1 0.2 0 0.1 0.1 0.2 0.2 0.3 0.3 0.4 0 0 0 0.1 0.1 0 0.2 0.1 0 0.1 0.2 0.5 0.5 0.7 0.6 1.4 0.2 0.6 0.8 1.5 0.2 0.3 0.4 0.6 0.2 0.3 0.4 0.6 0.2 0.3 0.3 0.6 0.2 0.3 0.3 0.6 0.1 0.2 0.3 0.3 0.1 0.2 0.2 0.5l0.2 0.2q0.1 0.2 0.1 0.3 0 0.1 0.1 0.3 0.1 0.2 0.2 0.4 0.1 0.2 0.1 0.4 0 0.3-0.2 0.6-0.2 0.1-0.3 0.2-0.1 0.1-0.4 0.1-0.2 0-0.3 0-0.2 0-0.4 0h-2.4q-0.6 0-1-0.1-0.5-0.1-1-0.1-0.1 0-0.3 0.1-0.2 0-0.3 0-0.4 0-0.6-0.1-0.4 0-0.5-0.2-0.1-0.2-0.3-0.4c-0.2-0.4-0.3-0.7-0.4-0.9q-0.2-0.4-0.4-0.8-0.3-0.7-0.5-1.1-0.2-0.5-0.5-1-0.2-0.3-0.3-0.5-0.2-0.3-0.3-0.6-0.3-0.4-0.4-0.7-0.2-0.4-0.4-0.8-0.2-0.2-0.5-0.7-0.4-0.4-0.7-0.8-0.2-0.4-0.2-0.5-0.1-0.1-0.2-0.3l-0.3-0.5q-0.1-0.2-0.2-0.5-0.1-0.2-0.6-0.5 0 0-0.1 0 0 0-0.1-0.1-0.1 0-0.2 0h-0.2q-0.1 0-0.3 0-0.2 0.1-0.4 0.4-0.2 0.4-0.3 0.6 0 0.3 0 0.4v1.3q0 0.3 0 0.5 0 0.1-0.1 0.2 0 0-0.1 0.1c0 0.1 0 0.2 0 0.4q0 0.3 0 0.6 0.1 0.2 0 0.5l0.2 4.1q0 0.3-0.2 0.9-0.2 0.5-0.5 0.8-0.3 0.2-0.5 0.2-0.3 0-0.4 0l-1.5 0.1q-0.2 0-0.4 0-0.3 0-0.5 0l-1.2-0.1q-0.1 0-0.3 0-0.3 0.1-0.5 0.1-0.4 0-0.6-0.2-0.3-0.1-0.3-0.2-0.3-0.4-0.3-0.7 0-0.3 0-0.6l0.1-1.3q0-1.4 0-2.8-0.1-1.3-0.1-2.7v-0.4q0.1-0.4 0.1-0.7 0-0.4 0-1.1 0-0.4 0-0.9c0-0.4 0-0.8 0.1-1.3q0-0.5 0-1 0-0.4 0.1-0.7v-1.4q-0.1-0.6-0.1-1.3 0-0.6 0-1.2-0.1-0.4-0.1-0.8 0-0.4 0-0.8v-2.1q0-0.4 0-0.8 0-0.3 0.1-0.7 0-0.4 0-0.6 0-0.2 0-0.5 0-0.2-0.1-0.5 0-0.3 0-0.8v-2.2c0-0.5 0.1-0.8 0.3-1.2q0.1-0.2 0.3-0.3 0.2-0.1 0.5-0.1z"/>
			<path id="Layer" fill-rule="evenodd" class="s1" d="m384.2 376.9q0.4 0 0.7 0 0.2 0 0.6 0 0.3 0 0.6 0 0.3 0 0.5 0 0.4 0 1.1 0.1 0.7 0.1 1.1 0.4 0.2 0.3 0.4 0.7 0.2 0.4 0.4 0.8 0.1 0.3 0.2 0.8 0.1 0.4 0.3 1l0.4 1.4q0.2 0.6 0.4 1.2 0.1 0.5 0.3 1.4 0 0.5 0.1 0.8 0.1 0.3 0.4 1.1 0.2 0.6 0.3 1c0.1 0.2 0.1 0.4 0.2 0.6q0 0.4 0 0.6 0.1 0.2 0.1 0.6 0.3 1.8 0.6 2.9 0.2 1.1 0.4 1.8l0.6 3.1q0.1 0.4 0.2 0.7 0.2 0.4 0.2 0.7 0.1 0.3 0.1 0.6 0 0.2 0.1 0.5l0.8 3.7q0.1 0.5 0.3 1.1 0.1 0.7-0.1 1.3-0.2 0.4-0.4 0.5-0.1 0.2-0.3 0.2-0.3 0.2-0.7 0.2-0.4 0-1.2 0l-0.9 0.1q-0.1 0-0.4 0-0.2 0-0.6 0-0.4 0-0.7-0.1-0.3 0-0.5 0-0.4-0.1-0.5-0.2-0.2-0.1-0.3-0.3-0.3-0.3-0.4-0.5c0-0.1 0-0.3-0.1-0.4l-0.8-2.4c-0.1-0.2-0.2-0.4-0.3-0.5q-0.1-0.2-0.3-0.2-0.1 0-0.3-0.1-0.3 0-0.6 0-0.3-0.1-0.5-0.1-0.3 0-0.3 0h-1.2q-0.5 0-1 0-0.5 0-1.1 0.1-0.5 0-1 0.1-0.4 0-0.8 0.1-0.4 0.2-0.7 0.4-0.3 0.2-0.6 0.7-0.2 0.4-0.3 0.9-0.1 0.5-0.3 1.3-0.1 0.2-0.1 0.5-0.1 0.3-0.3 0.4-0.1 0.1-0.3 0.1-0.1 0.1-0.2 0.1-0.3 0-0.5-0.1-0.2 0-0.4 0-0.9 0-1.7 0-0.9 0.1-1.7 0-0.5 0-0.8-0.1-0.4 0-0.6-0.4-0.2-0.1-0.3-0.4-0.2-0.3-0.2-0.5 0-0.1 0.1-0.5 0.1-0.5 0.1-0.6 0.1-0.1 0.1-0.2 0-0.2 0.1-0.3c0-0.2 0.1-0.5 0.1-0.7q0-0.4 0-0.7l0.3-1.1q0.2-1 0.3-1.5 0-0.6 0.1-1c0.1-0.8 0.3-1.4 0.4-1.8q0.2-0.6 0.4-1.2 0-0.3 0.1-0.4 0-0.2 0-0.4c0-0.1 0.1-0.3 0.1-0.5q0.1-0.4 0.2-1 0-0.2 0.2-0.8 0.1-0.6 0.2-0.8 0.3-1.4 0.6-2.5 0.2-1.1 0.6-2.3 0.3-1.2 0.6-2.6 0.3-1.4 0.7-3.3 0.2-1.3 0.4-2.1 0.3-0.9 1-1.5 0.5-0.3 0.7-0.4 0.3 0 0.6 0 0.2 0 0.4 0 0.1 0 0.3-0.1c0.1 0 0.3 0 0.5 0q0.3 0 0.8 0zm0.4 9.8q-0.1-0.3-0.2-0.7-0.2-0.4-0.4-0.6-0.2-0.3-0.6-0.3-0.3 0-0.8 0.6-0.5 0.6-0.8 2.5-0.1 0.3-0.1 0.5 0 0.1-0.1 0.3 0 0.3 0 0.6-0.1 0.4-0.2 1-0.1 0.8-0.3 1.3-0.2 0.6-0.2 0.9v0.3q0 0.1 0 0.2 0 0.1 0 0.3 0 0.2 0.1 0.5 0 0.3 0.1 0.4 0.1 0.3 0.5 0.5 0.5 0.3 1.5 0.3 0.2 0 0.5 0 0.3 0 0.6 0 0.3 0 0.7-0.1 0.3 0 0.5-0.1 0.6-0.2 0.7-0.7 0-0.4 0-0.7 0-0.6 0-0.9c0-0.2-0.1-0.5-0.1-0.7q0-0.3-0.1-0.6-0.1-0.3-0.2-0.6c-0.2-0.7-0.3-1.1-0.3-1.4q0-0.4-0.2-0.9zm20.2-5.9q0 0.2 0 0.3-0.1 0.2-0.1 0.4 0.1 0.2 0 0.3 0 0.2 0 0.4v0.2q0 0.3 0 0.6 0.1 0.3 0.1 1.1l0.1 1.3q0.1 0.4 0.1 0.9 0.1 0.4 0.5 0.8 0.2 0.2 0.6 0.4 0.4 0.2 1 0.2l2-0.1q0.9 0 1.2 0 0.3 0 0.5 0.1 0.2 0 0.5 0 0.4 0.1 1.3 0.1h0.3q0.2 0 0.4-0.1 0.2-0.1 0.8-0.3 0.4-0.2 0.5-0.3 0.2-0.2 0.2-0.4 0.3-0.2 0.5-0.5 0.2-0.3 0.2-0.9l-0.2-5.9q0-0.8 0-1.3 0-0.5 0.4-0.8 0.3-0.3 0.9-0.3l2.7 0.1q0.3 0 0.6 0 0.3-0.1 0.5-0.1 0.3 0 0.5-0.1 0.2 0 0.4 0 0.4 0 0.6 0.2c0.2 0.1 0.3 0.2 0.3 0.2q0.2 0.3 0.3 0.5 0 0.2 0 0.6v1l-0.1 1q0 0.3 0 0.5 0 0.2 0 0.4 0 0.2 0 0.5 0 0.4 0 0.9v0.4q0 0.5 0 1 0 0.5-0.1 1 0.1 0.7 0.1 1.3 0 0.7 0 1.4 0 0.7 0 1.4c0 0.5-0.1 0.9-0.1 1.5v0.4 4q0 0.6 0 1.2 0.1 0.5 0 1.2 0 0.6-0.1 1.2 0 0.6 0 1.2l0.2 5.1q0.1 0.7-0.1 1-0.1 0.3-0.2 0.4-0.2 0.2-0.4 0.3-0.1 0-0.3 0h-0.7q-0.2 0-0.5 0-0.2-0.1-0.8-0.1l-2.2 0.1q-0.7 0-1-0.2-0.3-0.2-0.4-0.3-0.3-0.3-0.4-0.7-0.2-0.3-0.2-0.7 0-0.5 0.1-0.9 0-0.4 0-0.9v-4.6q0-0.9 0-1.6-0.1-0.7-0.2-0.9-0.1-0.3-0.4-0.6-0.3-0.3-0.8-0.4-0.3-0.1-0.7-0.1-0.5-0.1-1-0.1-0.6-0.1-1.1-0.1c-0.4 0-3.1 0-3.4 0q-1 0-1.7 0.4-0.7 0.5-0.9 0.9-0.4 0.8-0.4 1.2 0 0.4 0 0.9v7.3q0 0.2-0.1 0.5-0.1 0.3-0.3 0.5-0.2 0.2-0.6 0.3-0.3 0-0.5 0-0.3 0-0.6 0c-0.2 0-0.4 0-0.6 0h-0.6q-0.4 0-0.9 0-0.4 0.1-1.3 0-0.6 0-0.8-0.1c-0.1 0-0.2-0.1-0.4-0.3q-0.1-0.2-0.2-0.5-0.1-0.3-0.1-1 0-0.5 0.1-0.9 0-0.3 0.1-0.9 0-0.7 0-1.1-0.1-0.4-0.1-0.9v-3.9q0-0.6 0-1.3-0.1-0.7-0.1-1.5 0-0.9 0.1-1.7 0.1-0.8 0.1-1.9l-0.1-1.9v-4.5q0-1.3 0-2 0-0.6-0.1-1.2 0-0.4 0-0.9c0-0.3 0-0.8 0.1-1.4v-0.8q0-0.1 0.1-0.3 0-0.2 0.2-0.3 0.1-0.1 0.5-0.2 0.3-0.1 0.5-0.1h4.4q0.3 0 0.5 0 0.3 0.1 0.5 0.3 0.2 0.1 0.3 0.4 0.1 0.2 0.1 0.6zm32.6-3.9q0.4-0.1 0.6 0 0.2 0 0.7 0 0.3 0 0.6 0 0.3-0.1 0.5 0 0.4 0 1.1 0.1 0.7 0.1 1 0.4c0.2 0.2 0.3 0.4 0.5 0.7 0.2 0.3 0.3 0.5 0.4 0.7q0.1 0.4 0.2 0.8 0.1 0.5 0.3 1.1l0.4 1.4q0.2 0.6 0.3 1.2 0.2 0.5 0.3 1.4 0.1 0.5 0.2 0.8 0.1 0.3 0.3 1 0.3 0.6 0.4 1 0.1 0.4 0.1 0.7 0.1 0.3 0.1 0.6 0 0.2 0.1 0.5 0.3 1.9 0.5 3 0.3 1.1 0.4 1.7l0.7 3.2q0.1 0.3 0.2 0.7 0.1 0.4 0.2 0.7 0.1 0.3 0.1 0.6 0 0.2 0.1 0.5l0.8 3.7q0.1 0.5 0.3 1.1 0.1 0.7-0.1 1.3-0.2 0.3-0.4 0.5-0.2 0.1-0.3 0.2c-0.3 0.1-0.5 0.2-0.8 0.2q-0.3 0-1.2 0h-0.8q-0.1 0-0.4 0-0.3 0-0.6 0-0.4 0-0.7 0-0.4 0-0.5 0-0.4-0.1-0.5-0.2-0.2-0.1-0.3-0.3-0.3-0.3-0.4-0.5 0-0.2-0.1-0.5l-0.8-2.3q-0.1-0.4-0.3-0.5-0.2-0.2-0.3-0.2-0.1-0.1-0.3-0.1-0.3 0-0.6-0.1-0.3 0-0.6 0-0.2-0.1-0.3 0h-1.1q-0.5-0.1-1 0-0.5 0-1.1 0-0.5 0.1-1 0.2-0.5 0-0.8 0.1-0.4 0.1-0.7 0.4-0.4 0.2-0.6 0.7-0.2 0.3-0.3 0.8-0.1 0.5-0.4 1.4 0 0.2-0.1 0.5 0 0.3-0.3 0.4 0 0.1-0.2 0.1-0.1 0.1-0.2 0.1-0.3 0-0.5-0.1-0.2 0-0.5 0-0.8-0.1-1.6 0-0.9 0.1-1.7 0-0.5 0-0.8-0.1-0.4 0-0.7-0.4-0.1-0.2-0.2-0.4-0.2-0.3-0.2-0.5 0-0.1 0.1-0.6 0.1-0.4 0.1-0.5 0-0.2 0.1-0.3 0-0.1 0-0.2 0.1-0.4 0.1-0.7 0-0.4 0.1-0.7l0.2-1.1q0.2-1 0.3-1.5 0.1-0.6 0.2-1.1 0.2-1.2 0.4-1.7 0.2-0.6 0.3-1.2 0.1-0.3 0.1-0.4 0.1-0.2 0.1-0.4c0-0.1 0-0.3 0.1-0.6q0-0.3 0.2-0.9c0-0.1 0.1-0.4 0.1-0.8q0.1-0.6 0.2-0.9 0.3-1.3 0.6-2.4 0.3-1.2 0.6-2.3 0.3-1.2 0.7-2.6 0.3-1.5 0.6-3.3 0.3-1.3 0.5-2.2 0.3-0.8 1-1.4 0.4-0.4 0.7-0.4 0.3 0 0.6 0 0.2 0 0.3 0 0.2-0.1 0.4-0.1 0.2 0 0.5 0 0.2-0.1 0.8 0zm0.4 9.8q-0.1-0.3-0.3-0.7-0.1-0.5-0.3-0.7-0.2-0.2-0.6-0.2-0.3 0-0.8 0.6-0.5 0.6-0.8 2.5-0.1 0.3-0.1 0.4 0 0.2 0 0.4-0.1 0.2-0.1 0.6-0.1 0.4-0.2 0.9-0.2 0.9-0.3 1.4-0.2 0.6-0.2 0.9c0 0.1 0 0.4 0 0.5q0 0.1 0 0.2 0 0.3 0.1 0.6 0 0.3 0.1 0.4 0.1 0.3 0.6 0.5 0.4 0.3 1.4 0.3 0.1 0 0.5 0 0.3 0 0.6 0 0.4 0 0.7-0.1 0.3 0 0.4-0.1 0.7-0.2 0.8-0.7 0.1-0.4 0-0.8 0-0.5 0-0.8c0-0.3-0.1-0.5-0.1-0.7q0-0.3-0.1-0.6-0.1-0.3-0.2-0.7-0.3-0.9-0.3-1.3 0-0.4-0.2-0.9z"/>
		</g>
	</g>
</svg>