<svg version="1.2" xmlns="http://www.w3.org/2000/svg" viewBox="0 0 664 1025" width="664" height="1025">
	<title>Kyustendil-svg</title>
	<style>
		.s0 { fill: #f7f8fa;stroke: #ffcc00;stroke-linecap: square;stroke-width: 0 } 
		.s1 { fill: #c7c6fa } 
		.s2 { fill: #d9cdb5 } 
		.s3 { fill: #9592fb } 
		.s4 { fill: #d6a4a1 } 
		.s5 { fill: #d0152c } 
		.s6 { fill: #0701fb } 
		.s7 { fill: #01010b } 
	</style>
	<g id="layer1">
		<g id="g2833">
			<path id="rect2851" class="s0" d="m41.8 324.3c0-22.9 18.6-41.5 41.5-41.5h498.9c22.9 0 41.5 18.6 41.5 41.5v591.9c0 22.9-18.6 41.4-41.5 41.4h-498.9c-22.9 0-41.5-18.5-41.5-41.4z"/>
			<path id="path2847" fill-rule="evenodd" class="s1" d="m333.8 1021c-1.5-2.4-2.6-5.1-2.4-6 1.1-6.8-8.3-19-20.2-26.4l-7.7-4.7h-253.4l-9.7-7.9c-5.3-4.4-11.1-10.2-12.9-12.9-1.8-2.7-4.1-5.8-5.1-6.9-5.6-6.2-5.6-5.4-5.6-353v-343.3h633.8v336.4c-0.1 352.6 0.1 342.1-7 356.5-3.3 6.7-15.8 18.9-25.9 25.5l-7.4 4.7-245 1-5.1 4c-2.8 2.2-5.4 3.6-5.7 3.1-0.4-0.5-1.5 0.6-2.5 2.6-1 1.9-3.1 5.1-4.7 7-1.6 2-2.9 4.8-2.9 6.2 0 1.5-1.1 4-2.4 5.6-1.4 1.6-2.7 4.7-3 6.8-0.9 6.1-2.3 6.5-5.2 1.7zm236.1-121.3h-161.3v19.7h161.3zm-393.9 14.1c1.2-1.2 4.7-1.5 9.8-0.8 20.8 3.1 29.8-1.1 37.4-17.4 4.9-10.6 5.1-12.9 2-25.4-1.7-7.2-3.3-9.6-7.7-12.3-3.1-1.8-7.9-5.7-10.6-8.6-2.8-2.8-5.5-5.2-6-5.2-0.5 0-3.8-2.9-7.3-6.4-8.8-8.8-11.5-10.2-14.1-7.4-1.2 1.3-4.8 4.2-8 6.6-3.1 2.4-6.1 4.8-6.5 5.4-0.5 0.6-4.2 3.8-8.3 7.1-4 3.4-10.5 9.6-14.4 13.8-6.1 6.7-7 8.5-7 15.6 0 4.5 0.8 8.6 1.7 9.2 0.9 0.6 1.6 2.6 1.6 4.3 0 1.7 2.6 5.8 5.8 9.2 3.2 3.3 5.7 7.1 5.7 8.4 0 1.2 1.7 2.6 3.8 3.1 2 0.5 5.1 1.2 6.9 1.6 6.6 1.5 13.4 1.2 15.2-0.8zm76.2-23.9c0-8.4-2.1-10.7-12.9-14.3-3.6-1.3-3.7-0.9-3.2 6.5 0.4 7.2 1 8 7.8 11.8 4.1 2.2 7.6 4 7.8 4 0.3 0 0.5-3.6 0.5-8zm-131.2 2.4c1.3-2.1 6.1-14.5 6.1-15.7 0-1.4-14.3 0.2-15.4 1.7-0.6 0.9-6 15.8-6 16.7 0 0.8 14.7-1.8 15.3-2.7zm478.6-19.5h-225.6v14.3h225.6zm-471.2-7.1c5.6-4.4 7.3-7.2 9.6-15.7 1.5-5.7 4.2-13.9 6-18.4 1.7-4.4 4.2-12.4 5.5-17.7 2.7-11.1 4.6-8.5-17.9-25.3-7.9-5.9-15.1-10.7-16-10.7-0.9 0-1.7-0.9-1.7-1.8 0-1-1.1-1.8-2.4-1.8-1.4 0-2.5-0.8-2.5-1.7 0-2.4-9.1-4.2-14.6-2.9-6 1.5-20.9 16.3-23.2 23.1-3.3 9.6-1.7 25.5 3.2 31.2 1.6 1.8 3.3 5.7 3.8 8.6 3.2 17.9 11.1 33.1 17.1 33.1 1.2 0 2.2 0.7 2.2 1.6 0 2.1 4.9 3.2 15.8 3.5 6.9 0.2 9.6-0.7 15.1-5.1zm130.2 3.5c8.9-2.3 21-12.8 24.2-21.1 1.3-3.4 2.3-10.1 2.3-14.8 0-4.8 0.8-9.1 1.7-9.8 3.6-2.4 6.8-14.4 6.1-22.9-0.9-10.6-7.5-20.1-17.8-25.6-9-4.9-18.9-3.7-29.6 3.5-19.8 13.1-27.6 18.8-30.7 22.2-3.3 3.5-3.3 3.8-0.5 10.6 1.5 3.8 3.4 10 4 13.7 0.7 3.8 2.6 9.4 4.4 12.6 1.7 3.1 3.2 8.2 3.2 11.3 0 6.3 1.6 8.1 14.6 16.3 10.7 6.6 8.9 6.3 18.1 4zm159.9-12.5c0-1.1-1.1-4.7-2.4-8.2-2.4-6.1-2.8-6.3-10.1-5.8-7.2 0.5-7.7 0.9-9.9 7.7-1.2 4-2.3 7.4-2.3 7.7 0 0.2 5.5 0.4 12.3 0.4 7.4 0 12.4-0.7 12.4-1.8zm35.4-1.3c-0.7-1.8-1.9-5.4-2.8-8.1-1.6-4.6-2.3-4.9-11.4-4.9-7.1 0-9.7 0.6-9.7 2.4 0 1.4-0.5 5-1 8.1l-1.1 5.6h13.6c12.2 0 13.4-0.3 12.4-3.1zm60.1-13h-44.5v16.1h44.5zm74 14.4c0-0.9-0.7-2.1-1.5-2.7-0.8-0.5-2-3.4-2.6-6.3-1-5.2-1.4-5.4-10.2-5.4-9.6 0-13.5 2.7-13.6 9.4-0.1 5.8-5.8 3.5-8.1-3.1-2-6.2-2.2-6.3-11.5-6.3h-9.5l-1.7 8.1-1.7 8h30.2c17.8 0 30.2-0.7 30.2-1.7zm-172.8-87.9h-16.5v64.5h16.5zm32.9 0h-18.1v64.6h18.1zm102.1 0h-18.1v64.5h18.1zm33 56.9c0.1-7.9 0.1-36.1 0-49.3l-0.1-7.6h-18.1v64.5h18.1zm-70.6-0.5l0.7-6.2h-22.7c-24 0-23.8-0.1-21.7 8.5 0.9 3.9 1.6 4 22 4h21zm-16.7-22.4c0-3.1 1.1-3.6 9-3.6h9.1v-28.6h-49.4v28.6h8.4c7 0 8.5 0.6 9.2 3.6 0.7 2.8 2.3 3.6 7.3 3.6 5.3 0 6.4-0.6 6.4-3.6zm-331-39.2c0.9-1.9 3.2-11.4 5.1-21.1 1.9-9.7 4.5-20.6 5.7-24.2 4.2-12.1-2-26.5-15.4-35.8-12.1-8.3-23.8-6.1-35.5 6.6-4 4.4-10.6 9.5-14.6 11.4-6.8 3.2-14.4 11.6-14.4 16.1 0 1.1-0.7 2-1.6 2-1 0-1.7 5.7-1.7 13.6 0 12.6 0.5 14.2 5.1 20.7 2.8 3.8 6.7 8 8.7 9.2 1.9 1.2 12.7 2.6 24.1 3.2 11.3 0.6 23.3 1.2 26.7 1.4 4.5 0.2 6.6-0.6 7.8-3.1zm66.7-1.2c9.1-0.7 19.1-2.3 22.3-3.7 8.2-3.7 15.9-14.4 18.1-25.2 2.8-13.2-9.2-32.2-22.3-35.7-2.7-0.7-7-4-9.6-7.3-6.4-8.3-12.5-11.3-22.8-11.3-15 0-26.1 10.9-29.5 29-1.5 8.2-1.3 10.7 0.9 15.4 1.4 3.1 2.6 7 2.6 8.7 0 4.3 6.7 27.8 8.8 30.7 1 1.5 3.9 2 8.3 1.4 3.8-0.5 14.2-1.4 23.2-2zm57.5-4.2c3.4-3.8 5.6-7.3 4.8-7.8-0.7-0.5-4.3-1.5-7.9-2.1-6.2-1.1-7.1-0.7-13.1 6-7.1 8-6.7 8.5 8.2 10.6 1 0.2 4.5-2.9 8-6.7zm-196.6 4.2c0-0.5-1.5-4.1-3.3-8-2.9-6.2-4-7.1-8.9-7.1-3.1 0-6.7-0.5-8.1-1.1-1.9-0.8-1.7 0.7 1 7.1 2.8 6.7 4.3 8.2 8.5 8.8 9 1.3 10.8 1.3 10.8 0.3zm325.4-9.3c4.2-9.4 9.4-9.3 10.2 0.1l0.5 6.8 10.8-0.6 10.8-0.5 2.2-8.1c1.3-4.4 2.3-8.2 2.3-8.5 0-0.2-13.7-0.4-30.4-0.4-33.2 0-32.4-0.3-28.8 10.1 2.3 6.5 4.3 7.7 12.6 7.8 6.3 0 7.1-0.5 9.8-6.7zm133.6 0.9c0.3-2.7 1.2-4.9 2.1-4.9 0.8 0 1.5-1.3 1.5-2.7 0-3.9 6.2-3.3 8.2 0.7 0.9 1.9 1.7 5.6 1.7 8.2 0 4.6 0.2 4.7 10 4.1l10.1-0.5 3-8.5 2.9-8.6-31.5 0.5c-31.3 0.5-31.5 0.5-32.1 4.5-0.3 2.2 0.3 4 1.3 4 0.9 0 1.7 1.5 1.7 3.3 0 5.1 1.7 5.9 11.5 5.3 8.6-0.5 9.1-0.8 9.6-5.4zm53-40.8h-13.2c-7.2 0-13.1-0.6-13.1-1.4 0-0.8-7.1-6.1-15.7-11.8-8.6-5.7-15.6-11.1-15.6-12 0-0.9-1.1-1.7-2.4-1.7-1.4 0-10.4-5.3-20.1-11.9-22-14.8-31.1-20.3-33.4-20.3-0.9 0-20.2 11.9-42.9 26.4-22.6 14.5-42.6 27.2-44.4 28.2-1.8 1-3.3 2.4-3.3 3.1 0 0.8-5.2 1.4-11.5 1.4h-11.6v17.9h227.2zm-167.9-4.9c0-3.9 48.4-36.3 54.1-36.3 5.7 0 52.8 32.4 52.9 36.3 0 2.9-3.6 3.1-53.5 3.1-49.9 0-53.5-0.2-53.5-3.1zm67.5-20.2h-29.6v16.2h29.6zm-317.7 1.7l3.4-7.3-3.7-7c-2-4-4-7.1-4.6-7.1-0.5 0-2.3 3.1-4 7-3 6.9-3 7 0.8 14.3 2 4 4 7.3 4.2 7.3 0.3 0 2-3.2 3.9-7.2zm316.7-132.5c11.4-13.9 11.5-14.1 7.5-29.9-5.2-20.6-3.8-19.4-21.8-20l-15.7-0.5-2.7 10.4c-1.5 5.7-3.8 13.4-5.1 17.1-4.1 11.8-3.8 12.9 8.5 27.4 1.9 2.2 3.9 5.3 4.5 6.9 0.5 1.6 1.9 2.9 3.1 2.9 1.2 0 3.6 1.9 5.4 4.2l3.2 4.1 3.7-7.9c2-4.3 6.2-11 9.4-14.7zm-372.7-9h-42.8v19.7h42.8zm28-20.8c0-39.5-0.1-40.5-3.6-43.7-3.6-3.1-3.8-3-10.7 5.1l-7 8.3v35.4l-0.1 35.4h21.4zm67.5-29.9l-7.6-9.7c-7.3-9.3-7.8-9.6-10.7-6.6-2.9 2.8-3.1 6.2-3.1 44.9v41.8h21.4zm46.3 63.7c0.4-2.7 0.4-6.8 0.1-9-0.5-3.9-1.1-4-20.2-4h-19.6v17.9h39.1zm186.5-27.1c2-4.3 7.5-23.4 7.5-26 0-0.6-3.3-1.1-7.4-1.1-5.3 0-7.4 0.7-7.4 2.5 0 1.4-3.4 6.3-7.5 10.9l-7.5 8.4 3.9 3.9c4.8 4.9 11.3 8.1 14 7 1.2-0.5 3.2-3 4.4-5.6zm-188.4-11h-37.8v16.2h37.8zm259.6 14.2c2.5-1.1 5.9-3.2 7.4-4.7 2.7-2.6 2.4-3.4-4.1-12.3-3.8-5.3-7.8-9.6-9-9.7-1.1 0-2-0.9-2-1.9 0-2-9.9-2.5-9.9-0.4 0 0.7 1.6 8 3.6 16.1 4 15.8 4.9 16.6 14 12.9zm-399.5-14.2h-41.2v14.3h41.2zm0-25.1h-39.5v16.1h39.5zm138.3 1.8h-18.1c-16.8 0-18.1 0.3-18.1 3.5 0 1.8-0.5 4.7-1 6.2-0.9 2.5 1.3 2.9 18.1 2.9h19.1zm256.6-3.9c3-3 3.3-4.1 1.6-5.3-1.2-0.8-3.2-1.5-4.3-1.6-1.1 0-3.5-1.6-5.4-3.6-3-3.3-5.4-3.6-29.5-3.6-27.9 0-36.8 2.1-38.8 9.3-2.3 7.7 1.3 8.5 38 8.6 33.1 0.1 34.8-0.1 38.4-3.8zm-258.3-24.8h-53.3l7.7 8c4.3 4.4 7.8 8.8 7.8 9.8 0 1.2 6.8 1.9 18.9 1.9h18.9zm-129.2 13c1.6-2.7 4.9-6.7 7.2-8.9l4.3-4h-28.4l-28.4-0.1v17.9h42.5zm58.4-1.5c10.8-10.7 9.7-11.5-15.7-11.5-15.4 0-22.2 0.7-22.2 2.1 0 1.1 2.4 5 5.3 8.8 5.1 6.4 5.9 6.8 15.7 6.9 9.6 0.1 10.7-0.3 16.9-6.3zm270.8-21.8c-1-12.8-5.2-30.5-7.7-32.7-0.5-0.5-1.5-3.4-2.1-6.5-1.6-8.1-10.3-19.6-20.4-26.9-7.6-5.5-10.1-6.4-18.7-6.4-5.5 0-10.5 0.9-11 1.9-0.6 1-3.2 2.4-5.9 3.1-6.4 1.8-17.8 10.3-23.1 17.4-2.4 3.2-5.4 7.2-6.7 8.9-1.3 1.8-2.4 4-2.4 5 0 0.9-0.6 1.7-1.4 1.7-0.8 0-2.4 3.6-3.5 7.9-1.9 7.4-1.7 8.4 2.5 16.6 2.6 4.8 6 10.4 7.7 12.4l3 3.8 7-7.6c6.2-6.7 8-7.7 17.4-8.8 5.7-0.8 15.1-0.8 20.8-0.1 9.6 1.1 11.1 1.9 18.9 10 4.7 4.9 9.5 8.8 10.8 8.8 1.3 0 2.4 0.8 2.4 1.7 0 1.6 4.1 3 10.5 3.5 2.8 0.2 3-0.8 1.9-13.7zm33.7 5.4c0-8.6 7.4-36.6 12.4-47.1 1.4-3.1 5.2-14.8 8.4-25.9l5.7-20.4-5.4-8.9c-3-4.9-11-17.6-17.8-28.3-6.8-10.7-13.3-21.7-14.4-24.4-1.1-2.7-2.6-4.9-3.3-4.9-0.7 0-5.5 6.7-10.8 14.8-5.2 8.1-15.1 22.4-21.8 31.7-6.7 9.4-12.2 18-12.2 19.1-0.1 1.2 2.5 6.3 5.7 11.4 3.2 5.1 5.8 9.9 5.8 10.6 0 0.6 2.2 3.8 4.9 7 2.7 3.3 4.9 7.1 4.9 8.6 0 1.4 2.2 7.7 4.7 13.9 3.6 8.5 5 15.4 6 28.1 1.6 23 1.8 23.2 15.7 23.2h11.5zm14.4 4.9c2.3-1.9 6.2-3.5 8.8-3.5 3.5 0 5.3-1.3 7-5 5.2-10.8 17.2-16.5 34.9-16.5 13 0 28.5 5.8 31.9 12 1.5 2.8 1.9 2.8 3.4 0.5 4.7-7.7 6.1-21.7 2.9-29.9-5.2-13.1-22.4-29.2-31.1-29.2-1.7 0-3.1-0.7-3.1-1.6 0-2.5-15.6-4.1-19.9-2.1-4 1.9-9.9 5.6-11.3 7.3-0.5 0.5-4 3.1-7.9 5.9-3.9 2.7-7.8 7.1-8.7 9.8-0.9 2.7-2.3 6.5-3.2 8.4-5.1 11.8-8.6 24.8-9.4 35.4-0.5 6.7-0.4 12.1 0.3 12.1 0.6 0 3.1-1.6 5.4-3.6zm-393-25h-28v14.3h28zm54.3 0h-46.1v14.3h46.1zm54.3 0h-46.1v14.4h46.1zm36.2 0h-27.9v14.3h27.9zm-116.8-25.1h-54l-0.8 6.7c-0.4 3.7-0.4 7.4-0.1 8.1 0.4 0.7 12.9 1.3 27.8 1.3h27.1zm52.6 0h-44.4v16.2h44.4zm62.6 0h-54.3v16.1h54.3zm-141.6-26.9h-28v17.9h28zm51.1 0h-42.9v18h42.9zm55.9 0h-47.7v17.9h47.7zm31.3 0h-23v17.9h23zm-113.6-25.1h-25.3c-27.7 0-27.4-0.1-27.4 10.9v5.2h52.7zm54.3 0h-46.1v16.2h46.1zm57.7 0h-49.4v16.1h49.4zm11.8-29.4c0.7-25.9 1.4-24.4-11.8-24.4-12.7 0-13.2 0.6-13.2 13.7v8l-12.8-0.5-12.7-0.6-0.5-11.2-0.5-11.2h-26l-0.5 11.2-0.5 11.2h-24.7l-0.5-7.1c-0.9-15.9-0.2-15.3-17.7-15.3h-15.6v23.3h-21l-1.2-10.7-1.1-10.8h-26v43.1h185.8zm-211.9-94.2c-0.5-2.5-2.5-8.1-4.4-12.4-1.9-4.3-2.8-8.4-2-9.2 0.8-0.7 7-2.8 13.7-4.6 6.7-1.7 14.1-4.2 16.4-5.5 2.3-1.3 7.4-2.9 11.3-3.6 3.9-0.6 7.4-1.8 7.9-2.6 0.4-0.8 5.1-2.4 10.2-3.5 5.2-1.2 10.2-2.7 11.1-3.4 0.9-0.8 7.9-2.8 15.5-4.7 12.9-3.1 13.9-3.1 15.8-0.2 2 2.9 6.6 24.3 5.5 25.3-1.1 1-32.5 10.6-49.9 15.3-10 2.6-21.9 6.2-26.4 7.9-4.5 1.8-11.7 3.8-15.9 4.5-7.4 1.3-7.8 1.1-8.8-3.3zm539 2.6c-0.4-0.4-10.8-3.7-23-7.3-12.1-3.6-25.5-7.6-29.5-8.9-4.1-1.2-14.8-4.4-23.9-7-9-2.7-16.6-5.1-16.9-5.4-1.2-1.3 3.6-26.5 5.2-27.2 1.8-0.7 92.9 26.1 101.7 29.9 3.8 1.7 4.2 2.6 3 6.7-0.8 2.7-2.3 8.2-3.3 12.4-1.6 7-2.2 7.6-7.2 7.6-3 0-5.7-0.3-6.1-0.8zm-422.9-39.9c-0.9-3.7-2.2-10.1-2.7-14.1-1-7.1-0.8-7.5 3.7-8.3 15.6-2.9 39.5-9 40.9-10.5 0.8-0.9 13.6-1.6 28.4-1.6h26.8v31.8l-30 1c-22.3 0.7-33.7 1.9-44.1 4.6-19.8 5.2-20.9 5.1-23-2.9zm299.6 2.8c-8.8-3-16.8-3.8-44.1-4.6l-33.3-0.8v-31.9h27.7c19.1 0 29.9 0.7 35 2.5 4 1.3 13.6 4.3 21.3 6.5 7.7 2.3 14.2 4.3 14.5 4.6 0.3 0.2 0.1 6.5-0.6 14-1.1 13.2-1.3 13.6-5.5 13.5-2.4-0.1-9.1-1.8-15-3.8zm-429.4-2.9c-4.2-8.9-8-27.6-5.3-26.7 1 0.3 15.9-4.2 32.6-9.9 14.6-5 16.3-4.3 21.1 8.4 2.2 6 4 11.3 4 12 0 0.9-26.8 11.1-48.9 18.6-1.2 0.4-2.7-0.7-3.5-2.4zm566.9-0.7c-1.8-1.1-7.3-3-12.3-4.2-5.1-1.2-13.8-3.7-19.5-5.6l-10.4-3.3 1-9c1.7-14.4 2.1-15.2 7.9-15.1 2.9 0 14.5 3.5 25.8 7.6 20.4 7.5 20.6 7.7 20.4 12.9-0.8 16-5.2 21.7-12.9 16.7zm-331.8-33.7h103.7v32.2h-103.7zm-175.3 15.7c-2.9-8.5-7.4-23.6-7.4-24.7 0-0.7 2-1.8 4.5-2.3 5-1 52.8-14.3 78.2-21.7 24.1-6.9 23.4-7.1 25.9 8.7 2.3 14.7 1.7 18.9-2.8 18.9-1.6 0-12.2 2.5-23.5 5.5-24.9 6.6-70.5 17.8-72.6 17.8-0.9 0-1.9-1-2.3-2.2zm398.8-13.4l-49-15.3v-28.7l7 1.3c5.9 1 35.4 10 92 28l10.9 3.5-1.5 7.6c-0.7 4.2-1.9 10.2-2.4 13.4-0.8 4.5-1.9 5.8-4.5 5.7-2-0.1-25.6-7.1-52.5-15.5zm94.2-15.9c-13.1-4.4-30.5-10.2-38.6-13-8.2-2.8-18.2-6.1-22.3-7.3-4-1.3-9.1-3-11.1-3.9-2.1-0.9-5.3-1.6-7-1.6-2.3 0-3.2-1.2-3.2-4 0.1-6.6 4.2-21.8 6.1-22.4 1.9-0.7 41.5 11.7 44 13.8 1 0.8 4.3 1.9 7.6 2.5 13.1 2.6 59.9 18.7 61.3 21.1 0.9 1.6 0.7 6.5-0.5 12.8-1.9 9.9-2.1 10.2-7.1 10.1-2.9-0.1-16-3.7-29.2-8.1zm-570.4-6.3c-2.1-7.6-2.5-11.7-1.4-13.7 1.8-3.1 105.8-33.1 111.7-32.3 2.4 0.4 3.9 3.4 6.3 11.9 1.6 6.3 2.4 12.1 1.7 12.8-1.6 1.6-40.8 12.5-44.9 12.5-1.7 0-10.7 2.5-20.1 5.5-32.4 10.5-45 14.2-47.6 14.2-1.8 0.1-3.6-3.4-5.7-10.9zm190.2-17.7h111.9v26.9h-111.9zm118.5 0h108.7v26.9h-108.7zm-183.6-18.9c-1.6-6.4-2.5-12.1-2.1-12.6 1.5-1.6 33.1-9.4 46.3-11.4 7.1-1.1 25.4-2 40.8-2h27.8v24.8l-31.7 0.8c-28.4 0.8-33.8 1.5-52 6.5-11.2 3.1-21.7 5.6-23.3 5.6-2.2 0-3.6-2.9-5.8-11.7zm336.7 6.5c-24.8-6.4-32.9-7.4-61.4-7.4h-29.1v-25.1h36c36.7 0 39.9 0.5 65.7 8.4l8.7 2.7-0.5 11.9c-0.6 14.2-0.8 14.3-19.4 9.5zm131.7-2.8c-10.4-3.3-22.1-6.9-25.9-8-5.6-1.7-7-2.9-7-6 0-7.2 4.4-20.1 6.9-20.7 2.1-0.4 29.1 7.5 48.8 14.3 5.4 1.9 5.5 2.1 4.6 9.5-1.2 9.3-4.2 17.1-6.7 17-1-0.1-10.3-2.8-20.7-6.1zm-603.5 1.3c-0.6-1.8-2-6.2-3.3-9.9-1.3-3.7-2.3-7.5-2.3-8.4 0-2.4 47.8-17.8 54.3-17.5 1.5 0 2.7 2 2.9 4.7 0.2 2.5 0.5 7.4 0.8 10.8l0.4 6.2-24.6 8.6c-13.6 4.7-25.3 8.6-26 8.6-0.7 0-1.7-1.4-2.2-3.1zm256.1-31h118.6v25.1h-118.6zm274.1 6.9c-11.7-4-21.7-7.5-22-7.9-1.5-1.6 3.8-22.7 6-23.6 1.2-0.5 5-0.1 8.3 0.9 43.1 13.4 43.4 13.5 42.5 17.3-0.4 2.1-1.7 7.6-2.7 12.3-2.4 10.7-3.2 10.7-32.1 1zm-468.9-5.3c-1.6-6-2.6-11.2-2.3-11.5 0.8-0.9 46.2-14.7 50.6-15.4 3.7-0.6 4.2 0.4 6.8 11 1.5 6.4 2.3 12.2 1.7 12.8-1.7 1.9-44.4 14.1-49.4 14.1-4.2 0-4.8-0.9-7.4-11zm545.5-16.2c-15-5-27.4-9.8-27.7-10.7-0.3-0.8-2.5-1.5-4.8-1.5-3.6 0-54.5-15.6-56.2-17.2-1.3-1.2 5.5-26.3 7.3-27.1 1-0.4 15.5 3.4 32.2 8.5 16.6 5.1 34.3 10.4 39.3 11.8 5 1.4 13.5 4.1 18.9 5.9 5.5 1.8 14.2 4.7 19.4 6.4 6.1 1.9 9.4 4 9.4 5.7 0 5.7-7 27.5-8.8 27.4-1-0.1-14.1-4.2-29-9.2zm-622.1-3.6c-4.9-15.8-4.7-17.1 3.5-19.5 3.9-1.2 11.5-3.6 16.9-5.4 13-4.3 69.2-22 84.3-26.5l11.9-3.6 2.6 9.3c1.4 5.1 2.9 12.1 3.4 15.6l1 6.2-22.8 6.8c-12.5 3.8-28 8.5-34.3 10.5-6.3 2-18.2 5.6-26.3 7.8-8.2 2.3-18.6 5.4-23.1 7-12.8 4.4-13.3 4.2-17.1-8.2zm253.3-26.6h72.5v28.7h-72.5zm79.1 0h69.1v28.7h-69.1zm-75.8-46.6h144.9v30.5h-144.9z"/>
			<path id="path2845" fill-rule="evenodd" class="s2" d="m334.8 1022.8c-1.6-2.1-3-7.3-3.5-12.9-0.3-3.6-12.6-16.6-20.1-21.3l-7.7-4.7h-253.4l-9.7-7.9c-5.3-4.4-11.1-10.2-12.9-12.9-1.8-2.7-4.1-5.8-5.1-6.9-5.6-6.2-5.6-5.4-5.6-353v-343.3h633.8v336.4c-0.1 352.6 0.1 342.1-7 356.5-3.3 6.7-15.8 18.9-25.9 25.5l-7.4 4.7-123.5 0.9c-67.9 0.5-124.8 1.6-126.4 2.4-1.5 0.9-2.8 2.3-2.8 3.2 0 0.9-0.8 1.4-1.8 1.1-1-0.2-2.7 1.1-3.7 3-1.1 1.9-3.2 4.9-4.8 6.7-1.6 1.8-2.9 4.7-2.9 6.3 0 1.7-1.1 4.3-2.4 5.9-1.4 1.6-2.7 4.7-3 6.8-0.8 5.3-2 6.4-4.2 3.5zm236.8-124.9h-164.6v23.3h164.6zm-395.6 15.9c1.2-1.2 4.7-1.5 9.8-0.8 20.8 3.1 29.8-1.1 37.4-17.5 4.9-10.5 5.1-12.8 2-25.4-1.7-7.1-3.3-9.5-7.7-12.2-3.1-1.9-7.9-5.7-10.6-8.6-2.8-2.8-5.5-5.2-6-5.2-0.5 0-3.8-2.9-7.3-6.4-8.8-8.8-11.5-10.2-14.1-7.4-1.2 1.2-4.8 4.2-8 6.6-3.1 2.4-6.1 4.8-6.5 5.4-0.5 0.5-4.2 3.8-8.3 7.1-4 3.4-10.5 9.5-14.4 13.7-6.1 6.7-7 8.6-7 15.7 0 4.5 0.8 8.6 1.7 9.2 0.9 0.6 1.6 2.5 1.6 4.3 0 1.7 2.6 5.8 5.8 9.2 3.2 3.3 5.7 7.1 5.7 8.3 0 1.3 1.7 2.7 3.8 3.2 2 0.5 5.1 1.2 6.9 1.6 6.6 1.5 13.4 1.2 15.2-0.8zm76.2-23.9c0-8.4-2.1-10.7-12.9-14.4-3.6-1.2-3.7-0.9-3.2 6.5 0.4 7.2 1 8.1 7.8 11.8 4.1 2.3 7.6 4.1 7.8 4.1 0.3 0 0.5-3.6 0.5-8zm-131.2 2.4c1.3-2.1 6.1-14.5 6.1-15.7 0-1.4-14.3 0.2-15.4 1.7-0.6 0.9-6 15.8-6 16.6 0 0.8 14.7-1.7 15.3-2.6zm480.2-21.3h-228.8v17.9h228.8zm-472.8-5.3c5.6-4.4 7.3-7.3 9.6-15.7 1.5-5.7 4.2-14 6-18.4 1.7-4.4 4.2-12.4 5.5-17.7 2.7-11.1 4.6-8.5-17.9-25.3-7.9-5.9-15.1-10.8-16-10.8-0.9 0-1.7-0.8-1.7-1.8 0-1-1.1-1.8-2.4-1.8-1.4 0-2.5-0.7-2.5-1.6 0-2.4-9.1-4.2-14.6-2.9-6 1.4-20.9 16.3-23.2 23-3.3 9.6-1.7 25.6 3.2 31.2 1.6 1.9 3.3 5.8 3.8 8.7 3.2 17.8 11.1 33 17.1 33 1.2 0 2.2 0.8 2.2 1.7 0 2.1 4.9 3.2 15.8 3.5 6.9 0.2 9.6-0.7 15.1-5.1zm130.2 3.4c8.9-2.2 21-12.7 24.2-21 1.3-3.4 2.3-10.1 2.3-14.8 0-4.8 0.8-9.2 1.7-9.8 3.6-2.4 6.8-14.4 6.1-22.9-0.9-10.6-7.5-20.1-17.8-25.7-9-4.8-18.9-3.6-29.6 3.5-19.8 13.2-27.6 18.9-30.7 22.2-3.3 3.6-3.3 3.9-0.5 10.6 1.5 3.9 3.4 10.1 4 13.8 0.7 3.8 2.6 9.4 4.4 12.5 1.7 3.2 3.2 8.3 3.2 11.3 0 6.4 1.6 8.2 14.6 16.3 10.7 6.7 8.9 6.3 18.1 4zm161.5-9.3c0-0.2-1-4.1-2.2-8.5l-2.2-8.1-9.3-0.5c-8.1-0.5-9.3-0.1-9.3 2.7 0 1.8-1.2 5.5-2.5 8.3-1.4 2.9-2.5 5.5-2.5 5.9 0 0.4 6.3 0.7 14 0.7 7.7 0 14-0.2 14-0.5zm34.6-1.3c0-1-1.2-5-2.7-9l-2.6-7.2h-21v6.2c0 3.3-0.5 7.4-1 8.9-0.9 2.5 0.9 2.9 13.1 2.9 8.2 0 14.2-0.8 14.2-1.8zm60.3-1.1c-0.6-1.5-1-5.6-1-8.9v-6.2h-44.5v18h23.2c20.5 0 23.1-0.4 22.3-2.9zm74.7-0.6c0-1.9-0.7-4-1.5-4.5-0.9-0.6-2.1-3.5-2.7-6.6l-1.1-5.5-10.1 1.3c-9.7 1.2-15.9 5-15.9 9.7 0 4.1-2.7 1.5-4.7-4.4-2.1-6.3-2.1-6.3-12.6-6.3h-10.4l-1.8 9.1c-1 5-1.8 9.4-1.8 9.9 0 0.4 14.1 0.8 31.3 0.8 29.9 0 31.3-0.2 31.3-3.5zm-172.9-89.7h-19.7v68.1h19.7zm33 0h-21.4v68.1h21.4zm102 0h-21.4v68.1h21.4zm32.9 0h-21.4v68.1h21.4zm-72.4 61.7c0.9-2.5 1.7-6.2 1.7-8.1 0-3.2-1.4-3.4-23.9-3.4h-23.9l1 4.9c2.5 11.3 2.4 11.2 23.8 11.2 19.7 0 19.7 0 21.3-4.6zm-14.8-24.1c0-3.1 1.1-3.6 9-3.6h9.1v-32.2h-52.7v32.2h9.1c7.9 0 9 0.5 9 3.6 0 3.1 1.1 3.6 8.3 3.6 7.1 0 8.2-0.5 8.2-3.6zm-332.6-41c0.9-1.9 3.2-11.4 5.1-21.1 1.9-9.7 4.5-20.6 5.7-24.2 4.2-12.1-2-26.5-15.4-35.8-12.1-8.3-23.8-6.1-35.5 6.6-4 4.4-10.6 9.5-14.6 11.4-6.9 3.2-14.4 11.6-14.4 16.1 0 1.1-0.7 2-1.6 2-1 0-1.7 5.7-1.7 13.6 0 12.6 0.4 14.2 5.1 20.7 2.8 3.8 6.7 8 8.7 9.2 1.9 1.2 12.7 2.6 24.1 3.2 11.3 0.6 23.3 1.2 26.7 1.4 4.5 0.2 6.5-0.6 7.8-3.1zm66.7-1.2c9.1-0.7 19.1-2.3 22.3-3.7 8.2-3.7 15.9-14.4 18.1-25.2 2.8-13.2-9.2-32.2-22.4-35.7-2.6-0.7-6.9-4-9.5-7.3-6.4-8.3-12.5-11.3-22.8-11.3-15 0-26.1 10.9-29.5 29-1.5 8.2-1.4 10.7 0.9 15.4 1.4 3.1 2.6 7 2.6 8.7 0 4.3 6.7 27.8 8.8 30.7 1 1.5 3.9 2 8.3 1.4 3.7-0.5 14.2-1.4 23.2-2zm57.5-4.2c3.4-3.8 5.6-7.3 4.8-7.8-0.7-0.5-4.3-1.5-7.9-2.1-6.2-1.1-7.1-0.7-13.1 6-7.2 8-6.8 8.5 8.2 10.6 0.9 0.2 4.5-2.8 8-6.7zm-196.6 4.2c0-0.5-1.5-4.1-3.3-8-2.9-6.2-4.1-7.1-8.9-7.1-3.1 0-6.7-0.5-8.1-1.1-1.9-0.8-1.7 0.7 1 7.1 2.8 6.7 4.3 8.2 8.5 8.8 9 1.3 10.8 1.3 10.8 0.3zm324.3-3.2c0-3.4 6.5-12.2 8.2-11.1 0.7 0.5 1.7 3.3 2.3 6.3 1 5.4 1 5.4 12.4 5.4h11.4l1.1-7.1c0.6-4 1.8-7.7 2.6-8.2 5.2-3.5-1.5-4.4-31.5-4.4h-33l1.1 4c0.7 2.2 1.8 4.3 2.6 4.7 0.8 0.3 1.4 2.3 1.4 4.5 0 6.2 3.2 8.3 12.7 8.3 6.3 0 8.7-0.7 8.7-2.4zm172.8-7c2.2-5.2 4.3-10 4.6-10.8 0.4-0.7-14.9-1.3-33.9-1.3h-34.5l0.8 4c0.5 2.2 1.9 6.7 3.2 9.9 2.4 5.7 2.6 5.8 13 5.8 10.3 0 10.7-0.2 10.7-4.5 0-2.4 0.7-4.5 1.6-4.5 0.9 0 1.7-1.2 1.7-2.6 0-1.5 0.7-2.7 1.5-2.7 2.3 0 5 6.2 5 11.5 0 4.5 0.3 4.6 11.2 4.6h11.2zm16.5-40.8h-12.2c-11.5 0-20.7-2.4-20.7-5.4 0-0.8-1.9-1.9-4.1-2.5-2.3-0.6-4.1-1.9-4.1-2.9 0-0.9-1.1-1.7-2.5-1.7-1.4 0-2.5-0.7-2.5-1.6 0-0.9-1.8-2.1-4.1-2.7-2.3-0.7-4.1-2-4.1-2.9 0-1-1.1-1.8-2.5-1.8-1.3 0-2.4-0.7-2.4-1.6 0-1-1.7-2.3-3.7-3-4.5-1.5-20-11.8-20.8-13.7-0.3-0.8-1.2-1.4-2.1-1.4-0.9 0-6.6-3.2-12.6-7.2-6.1-4-12.7-7.7-14.6-8.3-2.5-0.6-10.3 3.3-26.6 13.6-12.6 7.9-23.8 14.5-24.8 14.5-1 0-1.8 0.7-1.8 1.7 0 1-1.9 2.3-4.2 2.9-2.2 0.6-4.1 1.7-4.1 2.3 0 0.7-4.2 3.6-9.4 6.6-5.2 2.9-9.8 5.9-10.1 6.6-0.3 0.8-1.5 1.4-2.7 1.4-1.2 0-3.5 1.4-5.1 3.1-2.1 2.3-6.3 3.3-15.8 3.8l-12.8 0.6v21.1h230.4zm-129.6-1.3c-22-0.3-39.9-1.1-39.9-1.8 0-0.8 7.6-6.2 16.8-12.1 9.2-5.9 17.8-12.2 19.2-13.9 1.4-1.7 3.2-3.1 4-3.1 0.8 0 3.3-1.6 5.6-3.6 4.8-4.1 12.9-4.8 14.2-1.1 0.4 1.4 3.5 3.5 6.7 4.6 3.3 1.2 5.9 2.9 5.9 3.8 0 0.9 1.1 1.7 2.5 1.7 1.4 0 3 1.2 3.5 2.6 0.5 1.5 2.3 2.7 4.1 2.7 1.7 0 3.1 0.7 3.1 1.6 0 0.9 1.3 2.1 2.8 2.7 7.5 3 18.6 11.9 18.6 15 0 1.6-3.6 2.1-13.6 1.8-7.5-0.2-31.6-0.6-53.5-0.9zm29.2-23.8h-32.9v19.8h32.9zm-319.3 3.5l3.4-7.3-3.7-7.1c-2-3.9-4.1-7.1-4.6-7-0.5 0-2.3 3.1-4 7-3 6.9-3 7 0.7 14.3 2.1 4 4 7.3 4.3 7.3 0.3 0 2-3.2 3.9-7.2zm316.6-132.6c11.5-13.8 11.6-14 7.6-29.8-5.2-20.6-3.8-19.4-21.8-20l-15.8-0.5-2.6 10.4c-1.5 5.7-3.8 13.4-5.1 17.1-4.2 11.8-3.9 12.8 8.5 27.3 1.9 2.3 3.9 5.4 4.5 7 0.5 1.6 1.9 2.9 3.1 2.9 1.1 0 3.5 1.9 5.3 4.1l3.3 4.2 3.7-7.9c2-4.3 6.2-11 9.3-14.8zm-372.6-8.9h-42.8v19.7h42.8zm28.3-16c0.5-38.9-0.1-47.3-4.2-51.7-2.4-2.6-2.9-2.6-6.2 0.6-1.9 1.9-5.4 6.7-7.8 10.6-4.3 7-4.4 7.8-4.2 34.1 0.2 14.8 0.4 30.3 0.5 34.5l0.2 7.6h21.2zm67.5 0.3c0.4-26.9 0-35.8-1.6-36.9-1.1-0.8-2-2.6-2-4 0-1.4-1.5-3.6-3.3-4.8-1.8-1.2-3.3-3.2-3.3-4.3 0-1.1-1.1-3.1-2.5-4.3-2.1-1.9-3.1-1.7-5.8 1.5-3.9 4.5-3.9 4.7-3.5 51l0.3 37.1h21.1zm46.8 29.2c0.6-2.5 0.6-6.5 0-9-1-4.5-1.1-4.5-20.8-4.5h-19.7v17.9h19.7c19.7 0 19.8 0 20.8-4.4zm185.7-27.6c2-4.2 7.6-23.4 7.6-26 0-0.6-3.4-1.1-7.4-1.1-5.3 0-7.4 0.7-7.4 2.5 0 1.4-3.4 6.3-7.5 10.9l-7.5 8.4 3.8 3.9c4.9 4.9 11.4 8.1 14.1 7 1.2-0.5 3.1-3 4.3-5.6zm-188 1.1c0.3-2.2 0.3-5.8-0.1-8-0.6-3.9-1.2-4.1-19.3-4.1h-18.8v16.2h18.8c18.3 0 18.9-0.2 19.4-4.1zm259.3 2.1c2.5-1 5.9-3.1 7.4-4.6 2.6-2.6 2.3-3.4-4.1-12.4-3.8-5.2-7.9-9.6-9-9.6-1.1-0.1-2-0.9-2-1.9 0-2.1-9.9-2.5-10-0.4 0 0.7 1.7 7.9 3.7 16.1 4 15.8 4.9 16.6 14 12.8zm-399.5-14.2h-41.2v14.4h41.2zm0.6-14.6c2-10.9 2.7-10.5-19.6-10.5h-20.5v16.1h39zm138.7-0.6c0.5-2.4 0.5-5.2-0.1-6.2-0.7-1.2-8.5-1.9-19.9-1.9h-18.9v12.5h18.9c18.7 0 19 0 20-4.4zm255.7-11.9c2.9-3.1 3.3-4.2 1.5-5.4-1.2-0.8-3.1-1.5-4.3-1.5-1.1-0.1-3.5-1.7-5.3-3.7-3-3.2-5.5-3.5-29.6-3.5-27.9 0-36.7 2.1-38.8 9.2-2.3 7.7 1.3 8.5 38 8.6 33.2 0.1 34.9-0.1 38.5-3.7zm-379.7-18.1c2.4-2.7 4.5-5.3 4.5-5.8 0-0.6-13-1-28.8-1h-28.8v17.8l21.8 0.5c20.2 0.5 22 0.3 24.3-3.1 1.3-1.9 4.5-5.7 7-8.4zm121.5 11.6c0.1-0.8 0.5-3.4 0.9-5.9 0.4-2.4 0.3-6.2-0.2-8.5-0.9-3.9-1.3-4-28-4-15 0-27.2 0.3-27.2 0.8 0 0.4 3.9 4.8 8.7 9.8l8.6 9 18.5 0.1c10.2 0 18.6-0.6 18.7-1.3zm-72.1-5.4c3.2-2.7 6.7-6.7 7.6-9l1.7-4h-23.8c-13.4 0-23.8 0.7-23.8 1.6 0 3.6 2.1 7.4 4 7.4 1.2 0 3.5 2 5.2 4.4 2.7 4 4.3 4.5 13.1 4.5 8.4 0 11-0.8 16-4.9zm272-23.3c-1-12.8-5.2-30.6-7.6-32.7-0.6-0.5-1.6-3.4-2.2-6.5-1.6-8.2-10.3-19.7-20.4-27-7.6-5.5-10-6.3-18.7-6.3-5.5 0-10.5 0.8-11 1.8-0.6 1-3.2 2.5-5.9 3.2-6.4 1.7-17.8 10.3-23.1 17.4-2.4 3.1-5.4 7.2-6.7 8.9-1.3 1.7-2.4 4-2.4 4.9 0 1-0.6 1.8-1.4 1.8-0.8 0-2.3 3.5-3.5 7.9-1.9 7.4-1.7 8.4 2.6 16.6 2.5 4.7 5.9 10.3 7.6 12.4l3 3.8 7-7.6c6.2-6.8 8-7.7 17.4-8.9 5.7-0.7 15.1-0.7 20.8-0.1 9.7 1.1 11.1 1.9 18.9 10.1 4.7 4.8 9.6 8.8 10.9 8.8 1.3 0 2.3 0.8 2.3 1.7 0 1.6 4.1 2.9 10.5 3.4 2.9 0.3 3-0.7 1.9-13.6zm33.7 5.4c0-8.6 7.4-36.6 12.4-47.1 1.5-3.1 5.2-14.8 8.4-26l5.7-20.3-5.4-8.9c-3-4.9-11-17.6-17.8-28.4-6.8-10.7-13.3-21.6-14.4-24.3-1.1-2.8-2.5-5-3.2-4.9-0.7 0-5.6 6.6-10.9 14.8-5.2 8.1-15 22.4-21.8 31.7-6.7 9.4-12.2 18-12.2 19.1 0 1.1 2.6 6.3 5.7 11.4 3.2 5.1 5.8 9.9 5.8 10.5 0 0.7 2.2 3.9 4.9 7.1 2.7 3.3 5 7.1 5 8.5 0 1.5 2.1 7.7 4.7 13.9 3.5 8.6 5 15.5 5.9 28.2 1.6 23 1.8 23.2 15.8 23.2h11.4zm14.4 4.9c2.3-2 6.3-3.6 8.8-3.6 3.5 0 5.3-1.3 7.1-4.9 5.2-10.9 17.1-16.6 34.8-16.6 13 0 28.6 5.9 31.9 12 1.5 2.8 1.9 2.9 3.4 0.6 4.8-7.7 6.1-21.8 2.9-29.9-5.2-13.1-22.3-29.3-31.1-29.3-1.7 0-3-0.7-3-1.5 0-2.5-15.7-4.1-20-2.1-4 1.9-9.9 5.6-11.3 7.2-0.5 0.5-4 3.2-7.9 5.9-3.9 2.8-7.8 7.2-8.7 9.9-0.9 2.6-2.3 6.4-3.2 8.4-5.1 11.8-8.6 24.8-9.4 35.4-0.5 6.6-0.4 12.1 0.3 12.1 0.6 0 3.1-1.6 5.4-3.6zm-393-25.1h-28v14.4h28zm54.3 0h-46.1v14.3h46.1zm54.3 0h-46.1v14.3h46.1zm36.3 0h-28v14.4h28zm-116.9-25.1h-27c-23.1 0-27.1 0.4-28 2.8-1.3 3.8-1.3 10.6 0.1 12.1 0.6 0.7 13.2 1.2 28 1.2h26.9zm52.7 0h-44.5v16.1h44.5zm63.2 11.5c0.6-2.5 0.6-6.1 0.1-8-0.9-3.2-2.9-3.5-28.1-3.5h-27v16.2h54zm-142.3-38.4h-28v17.9h28zm51 0h-42.8v17.9h42.8zm56 0h-47.8v18h47.8zm32.1 12.5c2.1-10.6 0.2-12.5-12.5-12.5h-11.4v17.9h11.4c11.3 0 11.4-0.1 12.5-5.4zm-114.4-37.6h-52.7v16.1h52.7zm54.3 0h-46.1v16.1h46.1zm58.4 12.7c0.5-1.9 0.5-5.5-0.1-8l-1.1-4.7h-49v16.2h24.6c22.8 0 24.7-0.3 25.6-3.5zm11.2-42.7c-0.2-10.6-0.4-20.3-0.4-21.5-0.1-1.6-3.5-2.2-11.6-2.2-12.6 0-12.5-0.2-13.5 14.3l-0.5 6.3-11.7 0.5c-13.3 0.6-13.7 0-13.8-15.3v-7.6h-26.1l-1.1 11.7-1.2 11.7-11.7-0.5-11.8-0.5-0.4-7.2c-1-15.9-0.2-15.2-17.7-15.2h-15.6v23.3h-21.1l-1.1-10.8-1.2-10.7h-26v43h186.8zm-211.9-93.5c-0.6-2.6-2.6-8.1-4.4-12.4-1.9-4.3-2.8-8.4-2-9.2 0.8-0.8 6.9-2.8 13.7-4.6 6.7-1.7 14.1-4.2 16.4-5.5 2.3-1.4 7.4-2.9 11.2-3.6 3.9-0.6 7.5-1.8 7.9-2.6 0.5-0.8 5.1-2.4 10.3-3.6 5.2-1.1 10.2-2.6 11.1-3.4 0.9-0.7 7.8-2.8 15.4-4.6 13-3.1 13.9-3.1 15.8-0.3 2 2.9 6.6 24.4 5.5 25.4-1.1 0.9-32.4 10.5-49.9 15.3-10 2.6-21.8 6.2-26.3 7.9-4.6 1.7-11.7 3.7-16 4.5-7.3 1.3-7.7 1.1-8.7-3.3zm538.9 2.6c-0.4-0.4-10.7-3.7-22.9-7.4-12.2-3.6-25.5-7.5-29.6-8.8-4.1-1.2-14.8-4.4-23.8-7.1-9-2.6-16.6-5-16.9-5.3-1.3-1.4 3.6-26.5 5.2-27.2 1.8-0.8 92.8 26.1 101.6 29.9 3.9 1.7 4.3 2.5 3 6.7-0.8 2.6-2.2 8.2-3.2 12.4-1.7 7-2.2 7.6-7.2 7.6-3 0-5.8-0.3-6.2-0.8zm-422.8-40c-1-3.6-2.2-10-2.8-14.1-0.9-7-0.7-7.4 3.8-8.2 15.6-2.9 39.5-9 40.8-10.5 0.9-0.9 13.7-1.7 28.4-1.7h26.9v31.9l-30.1 0.9c-22.2 0.8-33.7 2-44 4.7-19.9 5.2-20.9 5.1-23-3zm299.5 2.9c-8.7-3-16.7-3.8-44-4.6l-33.3-0.9v-31.9h27.7c19.1 0 29.9 0.8 34.9 2.6 4 1.3 13.6 4.3 21.3 6.5 7.7 2.3 14.3 4.3 14.6 4.6 0.3 0.2 0 6.5-0.6 14-1.2 13.2-1.3 13.6-5.5 13.4-2.4 0-9.2-1.7-15.1-3.7zm-429.4-2.9c-0.8-1.7-2.7-7.4-4.3-12.6-3.5-11.7-2.6-13.1 11.1-17.3 5.6-1.8 14.9-4.8 20.5-6.7 14.6-5 16.4-4.3 21.1 8.4 2.2 5.9 4 11.3 4.1 12 0 0.9-26.9 11.1-49 18.6-1.1 0.3-2.7-0.7-3.5-2.4zm567-0.7c-1.8-1.2-7.4-3.1-12.4-4.2-5-1.2-13.8-3.7-19.5-5.6l-10.4-3.3 1.1-9c1.6-14.4 2.1-15.2 7.9-15.1 2.9 0 14.5 3.5 25.8 7.6 20.3 7.5 20.6 7.7 20.3 12.9-0.8 16-5.1 21.6-12.8 16.7zm-331.8-33.8h103.7v32.3h-103.7zm-175.4 15.7c-2.8-8.5-7.3-23.6-7.3-24.7 0-0.8 2-1.8 4.5-2.3 4.9-1.1 52.7-14.3 78.2-21.7 24-6.9 23.4-7.2 25.9 8.7 2.3 14.6 1.6 18.9-2.9 18.9-1.6 0-12.2 2.5-23.5 5.5-24.8 6.6-70.4 17.8-72.6 17.8-0.8 0-1.9-1-2.3-2.2zm398.9-13.4l-49-15.4v-28.5l7 1.1c3.8 0.7 28.1 7.9 53.9 16 37.6 11.9 47 15.5 47.5 18.1 0.3 1.8-0.4 8-1.6 13.8-1.8 8.7-2.7 10.5-5.5 10.4-1.9-0.1-25.4-7.1-52.3-15.5zm94.2-15.9c-13.1-4.4-30.5-10.3-38.7-13-8.1-2.8-18.1-6.1-22.2-7.4-4.1-1.2-9.1-2.9-11.2-3.8-2.1-0.9-5.2-1.6-7-1.6-2.3 0-3.2-1.2-3.1-4.1 0.1-6.5 4.2-21.7 6-22.3 2-0.7 41.6 11.7 44.1 13.8 0.9 0.7 4.3 1.9 7.5 2.5 13.1 2.6 59.9 18.7 61.3 21.1 1 1.6 0.8 6.5-0.4 12.8-1.9 9.9-2.1 10.2-7.2 10.1-2.9-0.1-16-3.7-29.1-8.1zm-570.4-6.3c-2.2-7.7-2.6-11.7-1.4-13.7 1.7-3.1 105.7-33.1 111.6-32.3 2.4 0.4 4 3.3 6.3 11.9 1.7 6.3 2.5 12.1 1.7 12.8-1.6 1.6-40.7 12.5-44.9 12.5-1.6 0-10.6 2.5-20 5.5-32.4 10.4-45.1 14.2-47.7 14.2-1.8 0-3.6-3.4-5.6-10.9zm190.1-17.7h112v26.9h-112zm118.6 0h108.6v26.8h-108.6zm-183.7-18.8c-1.6-6.4-2.5-12.1-2-12.6 1.5-1.7 33-9.4 46.3-11.4 7-1.1 25.4-2 40.7-2h27.9v24.7l-31.7 0.9c-28.4 0.8-33.8 1.5-52 6.5-11.2 3.1-21.7 5.6-23.3 5.6-2.2 0-3.7-2.9-5.9-11.7zm336.8 6.5c-24.9-6.4-32.9-7.4-61.5-7.4h-29.1v-25.1h36.1c36.6 0 39.9 0.4 65.6 8.4l8.8 2.7-0.5 11.9c-0.6 14.2-0.8 14.3-19.4 9.5zm131.6-2.8c-10.4-3.3-22-6.9-25.9-8.1-5.6-1.6-7-2.8-7-6 0.1-7.1 4.4-20 7-20.6 2.1-0.4 29.1 7.5 48.8 14.3 5.4 1.9 5.5 2.1 4.6 9.5-1.2 9.3-4.3 17.1-6.7 17-1-0.1-10.3-2.9-20.8-6.1zm-603.5 1.2c-0.5-1.7-2-6.1-3.2-9.8-1.3-3.8-2.3-7.5-2.3-8.5 0-2.3 47.7-17.7 54.3-17.4 1.4 0 2.6 2 2.8 4.7 0.2 2.5 0.6 7.4 0.8 10.8l0.5 6.2-24.7 8.6c-13.6 4.7-25.3 8.6-26 8.6-0.7 0-1.7-1.4-2.2-3.2zm256.2-30.9h118.5v25.1h-118.5zm274.1 6.9c-11.8-4-21.7-7.5-22.1-7.9-1.5-1.6 3.9-22.7 6-23.6 1.3-0.5 5.1-0.1 8.4 0.9 43 13.4 43.4 13.5 42.5 17.3-0.5 2.1-1.7 7.6-2.7 12.2-2.4 10.7-3.2 10.8-32.1 1.1zm-469-5.3c-1.5-6.1-2.5-11.2-2.3-11.6 0.8-0.8 46.2-14.6 50.6-15.3 3.3-0.6 4.1 0.5 6 7.4 4.7 17 5.2 16.5-20.3 23.9-31 9.1-30.5 9.1-34-4.4zm545.5-16.2c-14.9-5-27.4-9.8-27.7-10.7-0.3-0.8-2.4-1.6-4.7-1.6-3.6 0-54.5-15.5-56.3-17.2-1.2-1.2 5.6-26.2 7.4-27 1-0.4 15.5 3.4 32.1 8.5 16.7 5.1 34.4 10.4 39.4 11.8 4.9 1.4 13.5 4 18.9 5.9 5.4 1.8 14.1 4.7 19.3 6.4 6.1 1.9 9.5 4 9.5 5.7 0 5.7-7 27.4-8.8 27.3-1 0-14.1-4.1-29.1-9.1zm-622.1-3.6c-4.9-15.8-4.6-17.1 3.6-19.6 3.8-1.1 11.4-3.5 16.9-5.3 12.9-4.3 69.1-22 84.3-26.6l11.9-3.5 2.5 9.3c1.4 5.1 3 12.1 3.5 15.5l0.9 6.3-22.8 6.8c-12.5 3.8-27.9 8.5-34.2 10.5-6.4 2-18.2 5.5-26.4 7.8-8.1 2.3-18.5 5.4-23 7-12.8 4.4-13.3 4.1-17.2-8.2zm253.4-26.6h72.4v28.7h-72.4zm79 0h69.2v28.7h-69.2zm-75.7-46.6h144.9v30.4h-144.9z"/>
			<path id="path2843" fill-rule="evenodd" class="s3" d="m332.7 1015.2c-2.8-12.1-9.7-21.2-20.2-26.6l-9.1-4.7h-253.3l-9.7-7.9c-5.3-4.4-11.1-10.2-12.9-12.9-1.8-2.7-4.1-5.8-5.1-6.9-1.4-1.6-2.5-2.7-3.3-9.4l8 10.7c4.7 6.4 12.2 14.5 16.7 18.1l8 6.5h272.1c195.7 0 274.7-0.6 280.9-2 4.8-1.1 9.1-2.5 9.6-3.1 0.4-0.7 2.9-2.4 5.5-3.8 2.7-1.5 9.1-7.2 14.3-12.7 16.2-16.9 14.7 18.1 14.7-364v-334.8h-630.4v677.3c-1.7-27.5-1.7-104.5-1.7-335.8v-343.3h633.8v336.4c-0.1 352.6 0.1 342.1-7 356.5-3.3 6.7-15.8 18.9-25.9 25.5l-7.4 4.7-123.5 0.9c-99.5 0.7-124.3 1.4-127.6 3.3-6.1 3.6-13.3 12.9-14.3 18.6-0.5 2.7-1.5 5-2.2 5-0.8 0-2.3 2.8-3.5 6.3-1.1 3.4-2.6 6.2-3.3 6.2-0.8 0-2.2-3.6-3.2-8.1zm-314.2-76.2c0.1 3.2 0.4 5.8 0.6 7.8l-0.6-0.9zm41.1 26.8c-12.1-6.1-20.2-13.8-24.8-23.5-3.1-6.4-3.2-12.6-3.2-164.4v-157.8h296.3v351.3l-128.8-0.1-128.8-0.1zm116.4-52c1.2-1.3 4.7-1.6 9.8-0.8 19.4 2.9 27.3-0.2 35.8-13.9 5.5-8.8 6.5-16.4 3.8-28.1-1.9-8.1-3.3-10.4-7.9-13.1-3.1-1.9-7.9-5.7-10.6-8.6-2.8-2.9-5.5-5.2-6-5.2-0.5 0-3.8-2.9-7.3-6.4-8.8-8.8-11.5-10.2-14.1-7.4-1.2 1.2-4.8 4.2-8 6.6-3.1 2.4-6.1 4.8-6.5 5.4-0.5 0.5-4.2 3.7-8.3 7.1-4 3.4-10.5 9.5-14.4 13.7-6.1 6.7-7 8.6-7 15.7 0 4.5 0.8 8.6 1.7 9.2 0.9 0.6 1.6 2.5 1.6 4.2 0 1.8 2.6 5.9 5.8 9.2 3.2 3.4 5.7 7.2 5.7 8.4 0 1.3 1.7 2.7 3.8 3.2 2 0.5 5.1 1.2 6.9 1.6 6.6 1.5 13.4 1.1 15.2-0.8zm76.8-22.7c-0.5-3.7-1.1-7.6-1.5-8.8-0.5-1.9-15.6-10.3-16.3-9.1-0.2 0.3 0 4.4 0.4 9.1 0.7 8.2 1.1 8.9 7.5 12 10 4.8 10.9 4.6 9.9-3.2zm-132 1.6c0.6-0.6 2.6-4.9 4.5-9.6l3.3-8.4-7.7 1c-9.4 1.3-9.2 1.2-13.4 11.8l-3.3 8.5 7.7-1.1c4.3-0.6 8.3-1.6 8.9-2.2zm7.6-27.1c5.6-4.3 7.3-7.2 9.6-15.7 1.5-5.6 4.2-13.9 6-18.4 1.7-4.4 4.2-12.4 5.5-17.7 2.7-11.1 4.6-8.4-17.9-25.2-7.9-6-15.1-10.8-16-10.8-0.9 0-1.7-0.8-1.7-1.8 0-1-1.1-1.8-2.4-1.8-1.4 0-2.5-0.7-2.5-1.7 0-2.4-9.1-4.1-14.6-2.8-6 1.4-20.9 16.2-23.2 23-3.3 9.6-1.7 25.6 3.2 31.2 1.6 1.9 3.3 5.7 3.8 8.6 3.2 17.9 11.1 33.1 17.1 33.1 1.2 0 2.2 0.7 2.2 1.7 0 2 4.9 3.1 15.8 3.4 6.9 0.2 9.6-0.7 15.1-5.1zm130.2 3.5c8.9-2.3 21-12.8 24.2-21 1.3-3.5 2.3-10.1 2.3-14.9 0-4.7 0.8-9.1 1.7-9.7 3.6-2.5 6.8-14.5 6.1-22.9-0.9-10.7-7.5-20.2-17.8-25.7-9-4.9-18.9-3.7-29.6 3.5-19.8 13.2-27.6 18.9-30.7 22.2-3.3 3.6-3.3 3.9-0.5 10.6 1.5 3.8 3.4 10 4 13.8 0.7 3.7 2.6 9.4 4.4 12.5 1.7 3.1 3.2 8.2 3.2 11.3 0 6.3 1.6 8.2 14.6 16.3 10.7 6.7 8.9 6.3 18.1 4zm-93.7-105.5c0.9-1.9 3.2-11.3 5.1-21 1.9-9.7 4.5-20.6 5.7-24.2 4.2-12.1-2-26.6-15.4-35.8-12.1-8.3-23.8-6.2-35.5 6.5-4 4.4-10.6 9.6-14.6 11.5-6.9 3.1-14.4 11.6-14.4 16.1 0 1.1-0.7 1.9-1.6 1.9-2.3 0-2.1 27.5 0.2 33.1 1.1 2.5 2.6 4.6 3.4 4.6 0.8 0 3.7 1.8 6.5 4 4.3 3.5 7.6 4.2 25.8 5.1 11.5 0.5 23.6 1.1 27 1.3 4.5 0.2 6.5-0.6 7.8-3.1zm66.7-1.2c9.1-0.6 19-2.2 22-3.6 8.1-3.7 15.4-13 17.8-22.9 1.9-7.9 1.8-9.5-1.3-17.5-3.8-9.6-12.7-18.5-20.5-20.5-2.6-0.7-6.9-4-9.5-7.3-6.4-8.3-12.5-11.4-22.8-11.4-15 0-26.1 11-29.5 29-1.5 8.3-1.4 10.8 0.9 15.4 1.4 3.1 2.6 7 2.6 8.8 0 4.3 6.7 27.8 8.8 30.7 1 1.5 3.9 2 8.3 1.4 3.7-0.5 14.2-1.5 23.2-2.1zm57.2-3.8c3.4-3.6 6.2-7.2 6.2-7.9 0-0.7-3.6-1.8-8.1-2.5-7.8-1.1-8.2-1-13.9 5.7-3.2 3.8-5.9 7.4-5.9 8.1-0.1 1.1 3 1.8 13 3 1.3 0.1 5.2-2.7 8.7-6.4zm-198.2-3.1c-3.3-7.4-4.1-8-11.6-9.1-4.5-0.7-8.4-0.9-8.8-0.5-1.2 1.3 5.6 15.4 7.9 16.3 1.1 0.6 5.2 1 9.1 1.1l6.9 0.1zm96.2-64.7c3.7-8 3.6-9.2-1.1-17.5l-3.8-6.8-3.5 6.5c-1.9 3.5-3.5 7.6-3.5 8.9 0 3 6.4 15.3 8 15.2 0.6 0 2.3-2.9 3.9-6.3zm159.3-70.7h286.4v159.1l-0.1 159-4.4 8.7c-3.8 7.4-6.5 9.9-16.7 15.7l-12.2 7h-253zm225.5 277.8h-164.6v23.3h164.6zm29.6-26.9h-228.8v17.9h228.8zm-181.1-11.2c0-0.2-1-4.1-2.2-8.5l-2.2-8.1-9.3-0.5c-8-0.5-9.3-0.1-9.3 2.7 0 1.8-1.1 5.5-2.5 8.3-1.3 2.9-2.4 5.5-2.4 5.9 0 0.3 6.3 0.7 14 0.7 7.7 0 14-0.3 13.9-0.5zm34.6-1.3c0-1-1.2-5-2.6-9l-2.7-7.2h-21v6.2c0 3.3-0.5 7.4-1 8.9-0.9 2.5 0.9 2.9 13.2 2.9 8.1 0 14.1-0.8 14.1-1.8zm60.3-1.1c-0.6-1.5-1-5.6-1-8.9v-6.2h-44.5v18h23.3c20.5 0 23.1-0.4 22.2-2.9zm74.7-0.6c0-1.9-0.7-4-1.5-4.5-0.8-0.6-2-3.5-2.6-6.6l-1.1-5.5-10.2 1.3c-9.7 1.2-15.9 5-15.9 9.7 0 4.1-2.7 1.5-4.7-4.4-2.1-6.3-2.1-6.3-12.5-6.3h-10.5l-1.8 9.1c-0.9 5-1.7 9.4-1.7 9.8 0 0.5 14 0.9 31.2 0.9 29.9 0 31.3-0.2 31.3-3.5zm-172.8-89.7h-19.8v68.1h19.8zm32.9 0h-21.4v68.1h21.4zm102.1 0h-21.4v68.1h21.4zm32.9 0h-21.4v68.1h21.4zm-72.4 61.7c0.9-2.5 1.6-6.2 1.6-8.1 0-3.3-1.4-3.5-23.9-3.5h-23.9l1.1 5c2.5 11.2 2.3 11.2 23.7 11.2 19.7 0 19.8 0 21.4-4.6zm-14.9-24.1c0-3.1 1.1-3.6 9.1-3.6h9v-32.2h-52.6v32.2h9c8 0 9.1 0.5 9.1 3.6 0 3.1 1.1 3.6 8.2 3.6 7.1 0 8.2-0.5 8.2-3.6zm-80.6-45.5c0-3.3 6.5-12.1 8.1-11 0.7 0.5 1.8 3.3 2.3 6.3 1 5.4 1 5.4 12.4 5.4h11.5l1.1-7.2c0.6-3.9 1.7-7.6 2.6-8.1 5.1-3.5-1.5-4.4-31.6-4.4h-33l1.2 4c0.6 2.2 1.8 4.3 2.5 4.6 0.8 0.4 1.5 2.4 1.5 4.6 0 6.2 3.2 8.3 12.6 8.3 6.3 0 8.8-0.7 8.8-2.5zm172.8-6.9c2.1-5.2 4.2-10 4.6-10.8 0.3-0.7-14.9-1.3-33.9-1.3h-34.6l0.9 4c0.4 2.2 1.9 6.7 3.2 9.9 2.3 5.7 2.6 5.8 13 5.8 10.2 0 10.6-0.2 10.6-4.5 0-2.4 0.7-4.5 1.6-4.5 1 0 1.7-1.2 1.7-2.7 0-1.4 0.7-2.6 1.6-2.6 2.3 0 5 6.2 5 11.5 0 4.5 0.3 4.6 11.2 4.6h11.2zm16.5-40.8h-12.3c-11.5 0-20.7-2.4-20.7-5.5 0-0.7-1.8-1.8-4.1-2.4-2.2-0.6-4.1-1.9-4.1-2.9 0-0.9-1.1-1.7-2.5-1.7-1.3 0-2.4-0.7-2.4-1.6 0-0.9-1.9-2.1-4.1-2.7-2.3-0.7-4.2-2-4.2-2.9 0-1-1.1-1.8-2.4-1.8-1.4 0-2.5-0.7-2.5-1.7 0-0.9-1.6-2.2-3.6-2.9-4.5-1.5-20.1-11.8-20.8-13.7-0.3-0.8-1.3-1.4-2.2-1.4-0.8 0-6.5-3.3-12.6-7.2-6-4-12.6-7.7-14.6-8.3-2.5-0.7-10.3 3.3-26.5 13.5-12.6 8-23.8 14.5-24.8 14.5-1.1 0-1.9 0.8-1.9 1.8 0 1-1.9 2.3-4.1 2.9-2.3 0.6-4.1 1.7-4.1 2.3 0 0.7-4.3 3.6-9.5 6.5-5.2 3-9.7 6-10 6.7-0.3 0.7-1.6 1.4-2.8 1.4-1.2 0-3.5 1.4-5.1 3.1-2.1 2.3-6.2 3.3-15.7 3.8l-12.9 0.6v21.1h230.5zm-129.7-1.3c-21.9-0.3-39.9-1.1-39.8-1.8 0-0.8 7.5-6.2 16.7-12.1 9.2-5.9 17.9-12.2 19.3-13.9 1.4-1.7 3.1-3.1 3.9-3.1 0.8 0 3.3-1.6 5.7-3.6 4.8-4.2 12.8-4.8 14.1-1.1 0.5 1.4 3.5 3.5 6.8 4.6 3.2 1.2 5.8 2.9 5.8 3.8 0 0.9 1.2 1.6 2.6 1.6 1.3 0 2.9 1.3 3.4 2.7 0.5 1.5 2.4 2.7 4.1 2.7 1.7 0 3.1 0.7 3.1 1.6 0 0.9 1.3 2.1 2.9 2.7 7.4 3 18.5 11.9 18.5 15 0 1.6-3.5 2.1-13.6 1.8-7.4-0.2-31.5-0.6-53.5-0.9zm29.2-23.8h-32.9v19.7h32.9zm-474.1-413.9h296.4v331.5h-296.4zm98.8 276h-42.8v19.7h42.8zm28.3-15.9c0.6-39-0.1-47.4-4.1-51.7-2.5-2.7-3-2.7-6.2 0.5-2 1.9-5.5 6.7-7.9 10.7-4.2 7-4.3 7.8-4.1 34 0.1 14.8 0.3 30.3 0.4 34.5l0.2 7.6h21.3zm67.4 0.3c0.4-26.9 0-35.8-1.5-36.8-1.1-0.8-2.1-2.6-2.1-4.1 0-1.4-1.5-3.5-3.3-4.8-1.8-1.2-3.3-3.1-3.3-4.3 0-1.1-1.1-3-2.5-4.3-2.1-1.9-3.1-1.6-5.7 1.5-3.9 4.6-4 4.8-3.6 51l0.3 37.2h21.2zm46.7 29.1c0.6-2.5 0.6-6.5 0-9-1-4.4-1-4.4-20.7-4.4h-19.7v17.9h19.7c19.7 0 19.7 0 20.7-4.5zm-2.2-26.4c0.3-2.2 0.2-5.9-0.1-8.1-0.6-3.9-1.2-4-19.4-4h-18.7v16.1h18.8c18.2 0 18.8-0.1 19.4-4zm-140.3-12.1h-41.2v14.3h41.2zm0.6-14.5c2-11 2.8-10.6-19.5-10.6h-20.6v16.2h39.1zm138.6-0.6c0.6-2.4 0.5-5.2-0.1-6.3-0.6-1.1-8.4-1.9-19.9-1.9h-18.8v12.6h18.9c18.7 0 18.9-0.1 19.9-4.4zm-124-30.1c2.5-2.7 4.5-5.3 4.5-5.8 0-0.5-12.9-1-28.8-1h-28.8v17.9l21.8 0.5c20.2 0.4 22 0.2 24.3-3.1 1.4-2 4.5-5.8 7-8.5zm121.5 11.6c0.1-0.7 0.5-3.4 0.9-5.8 0.4-2.5 0.4-6.3-0.1-8.5-0.9-4-1.3-4.1-28.1-4.1-14.9 0-27.1 0.4-27.1 0.8 0 0.4 3.9 4.9 8.6 9.8l8.7 9.1h18.5c10.2 0 18.6-0.6 18.6-1.3zm-72.1-5.4c3.3-2.7 6.7-6.7 7.6-8.9l1.8-4.1h-23.9c-13.3 0-23.8 0.8-23.8 1.7 0 3.5 2.1 7.3 4.1 7.3 1.1 0 3.4 2 5.1 4.5 2.7 3.9 4.4 4.5 13.2 4.5 8.4 0 11-0.8 15.9-5zm-72.9-38h-27.9v14.3h27.9zm54.4 0h-46.1v14.3h46.1zm54.3 0h-46.1v14.4h46.1zm36.2 0h-28v14.3h28zm-116.9-25.1h-27c-23 0-27.1 0.4-27.9 2.8-1.4 3.8-1.3 10.7 0.1 12.1 0.6 0.7 13.2 1.2 27.9 1.2h26.9zm52.7 0h-44.4v16.2h44.4zm63.3 11.5c0.6-2.6 0.6-6.2 0-8.1-0.9-3.2-2.8-3.4-28-3.4h-27.1v16.1h54zm-142.3-38.4h-28v17.9h28zm51.1 0h-42.8v18h42.8zm55.9 0h-47.7v17.9h47.7zm32.1 12.6c2.2-10.7 0.3-12.6-12.4-12.6h-11.4v17.9h11.3c11.3 0 11.4 0 12.5-5.3zm-114.4-37.7h-52.7v16.1h52.7zm54.3 0h-46.1v16.2h46.1zm58.4 12.6c0.6-1.8 0.6-5.5 0-8l-1.1-4.6h-49v16.1h24.5c22.8 0 24.7-0.3 25.6-3.5zm11.2-42.7c-0.2-10.6-0.4-20.2-0.4-21.5 0-1.5-3.4-2.2-11.5-2.2-12.7 0-12.6-0.1-13.6 14.3l-0.4 6.3-11.8 0.5c-13.2 0.6-13.7 0.1-13.7-15.3l-0.1-7.6h-26l-1.2 11.7-1.1 11.7-11.8-0.5-11.7-0.5-0.4-7.2c-1-15.8-0.3-15.2-17.7-15.2h-15.7v23.3h-21l-1.2-10.8-1.1-10.7h-26v43h186.8zm73.6-66.8h286.5v331.6h-286.5zm149.8 299.8c0-0.9 3.8-6.4 8.4-12.2 12.1-15.4 12.3-16 8.2-31.5-6-22.4-4.8-21.3-23.2-21.3-17.3 0-18.6 0.6-20.5 9.8-0.7 3-2.6 9.7-4.3 14.9-4 12-4 17.7 0 22.5 1.7 2.1 5.4 6.6 8.2 9.9 2.8 3.4 5.1 6.8 5.1 7.6 0 0.9 1 1.6 2.2 1.6 1.2 0 3.9 2 6 4.4l3.8 4.4 3.1-4.2c1.7-2.4 3-5 3-5.9zm-38.4-32.4c1-0.7 3.4-6.9 5.4-13.8 1.9-6.9 3.9-14 4.4-15.7 0.8-2.7-0.3-3.1-8.3-3.1-5 0-9.2 0.8-9.2 1.8 0 1-3.3 5.6-7.3 10.3-4.1 4.6-7.5 9-7.5 9.7 0 1.7 7.5 9.8 10.2 11 3.3 1.4 10.2 1.3 12.3-0.2zm76.3-1.7c0-0.8 1.7-2.2 3.7-3.2 5.8-2.8 5.1-6.4-3.4-16.7-6.9-8.5-8.7-9.7-15.6-10.5-4.2-0.6-7.7-0.3-7.7 0.5 0 1.9 6.7 28.2 7.6 29.9 1 1.7 15.4 1.7 15.4 0zm-6-41.5c3.9-3.5 3.4-4.8-3-8.1-3.1-1.6-6.1-3.7-6.7-4.7-1.3-2.3-61.1-2.3-62.5 0.1-0.5 1-2.1 1.8-3.5 1.8-7.7 0-8.4 11.8-0.8 13.6 2.4 0.5 4.9 1.1 5.5 1.3 0.7 0.2 16.3-0.1 34.8-0.6 25-0.7 34.2-1.5 36.2-3.4zm-59.1-29.3c-0.4-11.3-5.8-35-9-39.9-0.7-1-1.7-4.4-2.4-7.5-0.6-3.1-3.2-8.4-5.9-11.6-2.6-3.3-4.8-6.9-4.8-7.9-0.1-3.9-16.5-11.9-26.4-12.8-10-1-10.9-0.7-29.4 9.1-8.1 4.3-19.3 18.1-24.9 30.8-4.2 9.2-3.8 20.3 0.7 25.7 1.4 1.8 2.6 4.3 2.6 5.6 0 2.5 6.3 10.7 8.2 10.7 0.6 0 4.9-4 9.6-8.9l8.5-9h16.2c14.6 0 16.6 0.4 21.8 4.5 3.1 2.5 7.2 6.6 9.2 9.2 3.3 4.4 14.8 9.2 22.9 9.5 2.9 0.1 3.3-0.9 3.1-7.5zm33.9-1.8c0-6.1 2-15.4 5.6-26.4 7.5-22.8 8.2-24.9 14.7-46.4l5.6-18.6-19.7-32.5c-20.6-33.9-24.4-39.4-24.4-35.4 0 2.1-17.4 28.1-22.9 34.2-5.1 5.6-13.3 17.7-13.3 19.5 0 1.1-0.9 2.6-2.1 3.4-3.1 2.2-6.3 9.2-4.6 10.3 0.8 0.5 2 3.4 2.6 6.3 0.6 3 1.7 5.4 2.4 5.4 2.2 0 11.6 17.3 18.3 33.5 4.2 10.2 6.7 19.5 8 30.5 3.5 28.4 1.7 25.6 16.7 25.6h13zm18.1 5.4c4.1-2.2 10.6-7.4 14.4-11.6 8-8.7 14.9-11.2 30.3-11.3 11.7 0 28.6 6.5 30.4 11.7 0.6 1.5 2 2.7 3.2 2.7 6.1 0 10.5-19.9 7.1-32.1-2.9-10.6-16.2-26.1-25.7-29.9-4.3-1.8-8.8-4-10-4.9-2.8-2.4-21.5-2.6-23-0.3-0.7 1-2.4 2.6-3.9 3.5-11.8 7.9-20.9 16-22.7 20.2-5 11.8-9.9 29.1-11.6 40.4-2.5 17.2-1.2 18.5 11.5 11.6z"/>
			<path id="path2841" fill-rule="evenodd" class="s4" d="m332.7 1015.2c-2.8-12.1-9.7-21.2-20.2-26.6l-9.1-4.7h-253.3l-9.7-7.9c-5.3-4.4-11.1-10.2-12.9-12.9-1.8-2.7-4.1-5.8-5.1-6.9-1.4-1.6-2.5-2.7-3.3-9.4l8 10.7c4.7 6.4 12.2 14.5 16.7 18.1l8 6.5h272.1c195.7 0 274.7-0.6 280.9-2 4.8-1.1 9.1-2.5 9.6-3.1 0.4-0.7 2.9-2.4 5.5-3.8 2.7-1.5 9.1-7.2 14.3-12.7 16.2-16.9 14.7 18.1 14.7-364v-334.8h-630.4v677.3c-1.7-27.5-1.7-104.5-1.7-335.8v-343.3h633.8v336.4c-0.1 352.6 0.1 342.1-7 356.5-3.3 6.7-15.8 18.9-25.9 25.5l-7.4 4.7-123.5 0.9c-99.5 0.7-124.3 1.4-127.6 3.3-6.1 3.6-13.3 12.9-14.3 18.6-0.5 2.7-1.5 5-2.2 5-0.8 0-2.3 2.8-3.5 6.3-1.1 3.4-2.6 6.2-3.3 6.2-0.8 0-2.2-3.6-3.2-8.1zm-314.2-76.2c0.1 3.2 0.4 5.8 0.6 7.8l-0.6-0.9zm41.1 26.8c-12.1-6.1-20.2-13.8-24.8-23.5-3.1-6.4-3.2-12.6-3.2-164.4v-157.8h296.3v351.3l-128.8-0.1-128.8-0.1zm116.4-52c1.2-1.3 4.7-1.6 9.8-0.8 19.4 2.9 27.3-0.2 35.8-13.9 5.5-8.8 6.5-16.4 3.8-28.1-1.9-8.1-3.3-10.4-7.9-13.1-3.1-1.9-7.9-5.7-10.6-8.6-2.8-2.9-5.5-5.2-6-5.2-0.5 0-3.8-2.9-7.3-6.4-8.8-8.8-11.5-10.2-14.1-7.4-1.2 1.2-4.8 4.2-8 6.6-3.1 2.4-6.1 4.8-6.5 5.4-0.5 0.5-4.2 3.7-8.3 7.1-4 3.4-10.5 9.5-14.4 13.7-6.1 6.7-7 8.6-7 15.7 0 4.5 0.8 8.6 1.7 9.2 0.9 0.6 1.6 2.5 1.6 4.2 0 1.8 2.6 5.9 5.8 9.2 3.2 3.4 5.7 7.2 5.7 8.4 0 1.3 1.7 2.7 3.8 3.2 2 0.5 5.1 1.2 6.9 1.6 6.6 1.5 13.4 1.1 15.2-0.8zm76.8-22.7c-0.5-3.7-1.1-7.6-1.5-8.8-0.5-1.9-15.6-10.3-16.3-9.1-0.2 0.3 0 4.4 0.4 9.1 0.7 8.2 1.1 8.9 7.5 12 10 4.8 10.9 4.6 9.9-3.2zm-132 1.6c0.6-0.6 2.6-4.9 4.5-9.6l3.3-8.4-7.7 1c-9.4 1.3-9.2 1.2-13.4 11.8l-3.3 8.5 7.7-1.1c4.3-0.6 8.3-1.6 8.9-2.2zm7.6-27.1c5.6-4.3 7.3-7.2 9.6-15.7 1.5-5.6 4.2-13.9 6-18.4 1.7-4.4 4.2-12.4 5.5-17.7 2.7-11.1 4.6-8.4-17.9-25.2-7.9-6-15.1-10.8-16-10.8-0.9 0-1.7-0.8-1.7-1.8 0-1-1.1-1.8-2.4-1.8-1.4 0-2.5-0.7-2.5-1.7 0-2.4-9.1-4.1-14.6-2.8-6 1.4-20.9 16.2-23.2 23-3.3 9.6-1.7 25.6 3.2 31.2 1.6 1.9 3.3 5.7 3.8 8.6 3.2 17.9 11.1 33.1 17.1 33.1 1.2 0 2.2 0.7 2.2 1.7 0 2 4.9 3.1 15.8 3.4 6.9 0.2 9.6-0.7 15.1-5.1zm130.2 3.5c8.9-2.3 21-12.8 24.2-21 1.3-3.5 2.3-10.1 2.3-14.9 0-4.7 0.8-9.1 1.7-9.7 3.6-2.5 6.8-14.5 6.1-22.9-0.9-10.7-7.5-20.2-17.8-25.7-9-4.9-18.9-3.7-29.6 3.5-19.8 13.2-27.6 18.9-30.7 22.2-3.3 3.6-3.3 3.9-0.5 10.6 1.5 3.8 3.4 10 4 13.8 0.7 3.7 2.6 9.4 4.4 12.5 1.7 3.1 3.2 8.2 3.2 11.3 0 6.3 1.6 8.2 14.6 16.3 10.7 6.7 8.9 6.3 18.1 4zm-93.7-105.5c0.9-1.9 3.2-11.3 5.1-21 1.9-9.7 4.5-20.6 5.7-24.2 4.2-12.1-2-26.6-15.4-35.8-12.1-8.3-23.8-6.2-35.5 6.5-4 4.4-10.6 9.6-14.6 11.5-6.9 3.1-14.4 11.6-14.4 16.1 0 1.1-0.7 1.9-1.6 1.9-2.3 0-2.1 27.5 0.2 33.1 1.1 2.5 2.6 4.6 3.4 4.6 0.8 0 3.7 1.8 6.5 4 4.3 3.5 7.6 4.2 25.8 5.1 11.5 0.5 23.6 1.1 27 1.3 4.5 0.2 6.5-0.6 7.8-3.1zm66.7-1.2c9.1-0.6 19-2.2 22-3.6 8.1-3.7 15.4-13 17.8-22.9 1.9-7.9 1.8-9.5-1.3-17.5-3.8-9.6-12.7-18.5-20.5-20.5-2.6-0.7-6.9-4-9.5-7.3-6.4-8.3-12.5-11.4-22.8-11.4-15 0-26.1 11-29.5 29-1.5 8.3-1.4 10.8 0.9 15.4 1.4 3.1 2.6 7 2.6 8.8 0 4.3 6.7 27.8 8.8 30.7 1 1.5 3.9 2 8.3 1.4 3.7-0.5 14.2-1.5 23.2-2.1zm57.2-3.8c3.4-3.6 6.2-7.2 6.2-7.9 0-0.7-3.6-1.8-8.1-2.5-7.8-1.1-8.2-1-13.9 5.7-3.2 3.8-5.9 7.4-5.9 8.1-0.1 1.1 3 1.8 13 3 1.3 0.1 5.2-2.7 8.7-6.4zm-198.2-3.1c-3.3-7.4-4.1-8-11.6-9.1-4.5-0.7-8.4-0.9-8.8-0.5-1.2 1.3 5.6 15.4 7.9 16.3 1.1 0.6 5.2 1 9.1 1.1l6.9 0.1zm96.2-64.7c3.7-8 3.6-9.2-1.1-17.5l-3.8-6.8-3.5 6.5c-1.9 3.5-3.5 7.6-3.5 8.9 0 3 6.4 15.3 8 15.2 0.6 0 2.3-2.9 3.9-6.3zm159.3-70.7h286.4v159.1l-0.1 159-4.4 8.7c-3.8 7.4-6.5 9.9-16.7 15.7l-12.2 7h-253zm225.5 277.8h-164.6v23.3h164.6zm29.6-26.9h-228.8v17.9h228.8zm-182.7-20.2c-1.8-5.1-3.3-9.6-3.3-9.8 0-0.9-10.7-0.4-14.2 0.6-3 0.9-8.8 12.3-8.8 17.4 0 0.7 6.6 1.3 14.8 1.3h14.8zm37.9 8.3c0-0.7-1.3-5.1-2.9-9.9l-2.8-8.8h-11.2c-10.6 0-11.1 0.2-11.1 4.3 0 2.3-0.5 6.8-1.1 9.9l-1 5.6h15c8.3 0 15.1-0.5 15.1-1.1zm59.2-18.7h-47.7v19.8h47.7zm74.1 16.2c0-1.9-0.7-3.9-1.5-4.5-0.9-0.6-2-3.4-2.6-6.4-1.1-5.2-1.4-5.3-10.8-5.3-10.4 0-16.4 3.4-16.4 9.3 0 5.3-2.5 3.6-4.7-3.1l-2.1-6.2h-21l-1.8 7.6c-1 4.2-2.1 8.6-2.5 9.8-0.5 1.8 6.4 2.3 31.4 2.3 30.6 0 32-0.2 32-3.5zm-172.8-89.7h-19.8v68.1h19.8zm32.9 0h-21.4v68.1h21.4zm102 0h-21.4v68.1h21.4zm33 0h-21.4v68.1h21.4zm-71.7 64.1c0.3-1.3 1-4.9 1.5-8.1l0.9-5.8h-50.7l2.5 8 2.5 8.1h21.3c15.6 0 21.5-0.6 22-2.2zm-15.6-26.5c0-3.1 1.1-3.6 9.1-3.6h9v-32.2h-52.7v32.2h9.1c8 0 9.1 0.5 9.1 3.6 0 3.1 1.1 3.6 8.2 3.6 7.1 0 8.2-0.5 8.2-3.6zm-79.3-47.5c0.8-4.5 5.2-10 7.1-8.8 0.8 0.5 1.4 3.8 1.4 7.1v6.2h24.2l2-7.6c1.1-4.2 2.4-9 2.9-10.8 0.7-2.9-1.6-3.1-32.2-3.1-18.2 0-33.1 0.3-33.1 0.7 0 2.2 5.3 16.4 6.9 18.5 1.3 1.7 4.8 2.3 11.1 1.9 7.6-0.4 9.2-1.1 9.7-4.1zm135-1.3c0.3-2.7 1.2-4.9 2-4.9 0.9 0 1.6-1.2 1.6-2.7 0-1.5 0.7-2.7 1.6-2.7 2.3 0 5 6.2 5 11.5 0 4.5 0.2 4.6 11.2 4.6h11.2l3.9-9.4c2.1-5.2 4.2-10 4.6-10.7 0.3-0.8-15-1.4-34.1-1.4h-34.7v6.3c0 3.4 0.7 6.3 1.6 6.3 1 0 1.7 1 1.7 2.3 0 4.9 4.1 6.8 14 6.2 9.4-0.5 9.9-0.7 10.4-5.4zm53-44.4h-12.4c-9.5 0-13.5-0.8-16.9-3.3-2.5-1.8-8.9-6.4-14.4-10.1-5.4-3.7-11.8-8.2-14.3-10.1-2.4-1.8-5-3.3-5.6-3.3-0.7 0-9.4-5.6-19.4-12.3-10.1-6.7-21.1-14.1-24.6-16.4l-6.4-4.1-7.4 3.9c-6.4 3.4-52.7 32.6-80 50.5-6.6 4.3-9.7 5.2-18.5 5.2h-10.6v21.5h230.5zm-168.6-3.5c0.9-1 5.6-4.5 10.6-7.8 4.9-3.3 16.5-11 25.6-17.1l16.6-11.2 17.9 12c25.8 17.1 35.3 23.9 35.3 24.9 0 0.5-24.2 0.9-53.8 0.9-35.4 0-53.3-0.6-52.2-1.7zm68.1-21.6h-32.9v19.8h32.9zm-474.1-414h296.4v331.5h-296.4zm100.5 291.5c0-3.4-0.5-8.6-1.1-11.7l-1-5.6h-41.9l-1.1 8.3c-2 16.3-3.9 15 22 15h23.1zm28-35.5c0-40.2-0.2-41.7-3.6-45.7-2-2.3-4.2-4.1-4.8-4.1-0.7 0-4.6 3.8-8.7 8.5l-7.5 8.5v37.2 37.2h24.6zm67.4 5.5c0-39.7 0.3-38.8-12-53.1l-4.9-5.7-3.9 3.9c-3.8 4-3.8 4.3-3.8 47.5v43.4h24.6zm46.3 12.7h-43v21.5h42.3zm-2.1-15.2l-0.1-9.8h-40.8v19.7h41.1zm-140.1-1.4l0.5-8.5h-21.3c-23.5 0-23.3-0.1-23.3 11.9v6.1l21.8-0.5 21.8-0.5zm0.4-33.6h-42.8v19.7h42.8zm138.2 1.8h-39.5v16.2h39.5zm-124.7-19.6c8.6-8.6 7.1-9.1-25.1-9.1h-29.6v21.4l21.8 0.5c21.5 0.5 21.9 0.4 25.1-3.9 1.8-2.5 5.3-6.5 7.8-8.9zm123.1-9.1h-28.8c-15.9 0-28.8 0.7-28.8 1.6 0 0.8 3.3 4.5 7.3 8.1 4 3.5 7.8 8.1 8.3 10 1 3.3 2.6 3.6 21.5 3.6h20.5zm-70.5 14.3c3.4-4 6.3-8.9 6.3-10.8 0-3.3-1.3-3.5-23.9-3.5h-23.8v4.3c0 2.9 2.3 6.5 6.9 10.7 6.5 5.9 7.9 6.4 17.6 6.5 10.2 0 10.7-0.2 16.9-7.2zm-74.4-39.4h-31.2v17.9h31.2zm54.4 0h-49.4v17.9h49.4zm54.3 0h-49.4v18h49.4zm36.2 0h-31.3v17.9h31.3zm-116.9-25.1h-57.6v19.7h57.6zm52.7 0h-47.7v8.7c0 4.7 0.4 9.2 1 9.8 0.7 0.7 11.4 1.2 23.9 1.2h22.8zm62.5 0h-57.6v19.7h57.6zm-141.5-26.8h-31.3v21.5h31.3zm51-0.1l-23 0.2-23.1 0.1v21.3h46.1zm56 0h-51.1v21.5h51.1zm31.3 0h-26.4v21.5h26.4zm-113.6-25.1h-54.4v19.7h54.4zm54.3 0h-49.4v19.8h49.4zm57.6 0h-52.7v19.7h52.7zm11.5-53.8h-26.1l-0.5 10.3-0.5 10.3-12 0.5-11.9 0.6v-23.5h-29.6v23.3h-24.7v-23.3h-34.6v23.3h-19.7v-21.5h-29.7v46.6h189.3zm72.5-41.2h286.4v331.5h-286.4zm149.8 299.9c0-0.9 3.7-6.4 8.4-12.3 12-15.4 12.2-16 8.1-31.5-6-22.4-4.7-21.3-23.2-21.3-17.2 0-18.6 0.7-20.5 9.9-0.6 2.9-2.6 9.6-4.3 14.8-3.9 12-3.9 17.7 0 22.5 1.8 2.2 5.5 6.6 8.3 10 2.8 3.3 5.1 6.7 5.1 7.6 0 0.8 0.9 1.5 2.1 1.5 1.2 0 3.9 2 6 4.4l3.8 4.4 3.1-4.2c1.7-2.3 3.1-5 3.1-5.8zm-38.5-32.4c1-0.7 3.5-7 5.4-13.9 1.9-6.9 3.9-13.9 4.4-15.7 0.8-2.7-0.3-3.1-8.3-3.1-5 0-9.1 0.8-9.1 1.8 0 1-3.4 5.6-7.4 10.3-4.1 4.7-7.4 9.1-7.4 9.8 0 1.7 7.5 9.8 10.2 10.9 3.2 1.5 10.1 1.4 12.2-0.1zm76.3-1.8c0-0.8 1.7-2.2 3.7-3.1 5.8-2.8 5.1-6.5-3.3-16.8-7-8.4-8.8-9.7-15.6-10.5-4.3-0.5-7.8-0.3-7.8 0.5 0 1.9 6.7 28.2 7.7 29.9 0.9 1.8 15.3 1.8 15.3 0zm-6-41.4c3.9-3.6 3.4-4.9-3-8.2-3.1-1.6-6.1-3.7-6.6-4.6-1.4-2.4-61.2-2.4-62.6 0-0.5 1-2.1 1.8-3.5 1.8-7.7 0-8.4 11.8-0.8 13.6 2.4 0.6 4.9 1.2 5.5 1.3 0.7 0.2 16.3-0.1 34.8-0.6 25-0.6 34.2-1.5 36.2-3.3zm-59.1-29.4c-0.4-11.3-5.7-35-9-39.8-0.7-1-1.7-4.4-2.3-7.6-0.7-3.1-3.3-8.3-6-11.6-2.6-3.3-4.8-6.8-4.8-7.9 0-3.8-16.5-11.8-26.4-12.8-9.9-1-10.9-0.7-29.4 9.1-8.1 4.3-19.3 18.1-24.9 30.8-4.1 9.3-3.8 20.3 0.7 25.8 1.4 1.7 2.6 4.2 2.6 5.5 0 2.5 6.3 10.8 8.2 10.8 0.6 0 4.9-4.1 9.6-9l8.5-9h16.2c14.6 0 16.7 0.5 21.8 4.5 3.1 2.5 7.3 6.6 9.2 9.2 3.3 4.5 14.8 9.2 22.9 9.5 2.9 0.1 3.3-0.9 3.1-7.5zm33.9-1.8c0-6.1 2-15.4 5.6-26.4 7.5-22.8 8.2-24.9 14.7-46.4l5.7-18.6-19.8-32.5c-20.6-33.9-24.4-39.4-24.4-35.4 0 2.2-17.4 28.2-22.9 34.3-5 5.5-13.3 17.6-13.3 19.5 0 1-0.9 2.5-2 3.3-3.2 2.2-6.3 9.2-4.7 10.3 0.9 0.6 2 3.4 2.6 6.4 0.6 2.9 1.7 5.3 2.5 5.3 2.1 0 11.6 17.4 18.2 33.6 4.3 10.2 6.7 19.5 8 30.4 3.5 28.4 1.7 25.6 16.7 25.6h13.1zm18 5.4c4.1-2.2 10.6-7.4 14.4-11.5 8.1-8.7 15-11.3 30.3-11.3 11.7 0 28.6 6.4 30.5 11.6 0.5 1.5 1.9 2.7 3.2 2.7 6 0 10.4-19.9 7.1-32.1-2.9-10.6-16.3-26.1-25.8-29.9-4.3-1.7-8.8-3.9-10-4.9-2.8-2.3-21.5-2.6-23-0.3-0.6 1-2.4 2.6-3.9 3.6-11.8 7.9-20.9 16-22.7 20.1-4.9 11.8-9.9 29.2-11.6 40.5-2.5 17.2-1.2 18.4 11.5 11.5z"/>
			<path id="path2839" fill-rule="evenodd" class="s5" d="m332.7 1015.2c-2.5-10.9-9.8-21.4-18.3-26.3l-7-4.1-127.6-0.9c-97-0.7-62.2-1 145.3-1.4 200.1-0.3 275.1-0.9 280.7-2.5 9.2-2.4 19.7-9.8 30.3-21.3 13.9-15.2 12.8 15.6 12.8-362.2v-334.8h-630.4v683.7l4.8 8.3c2.7 4.6 8.3 11.4 12.5 15.2 4.2 3.8 9.6 8.9 12 11.2l4.4 4.3-5.2-3.4c-8.8-5.7-24.4-22.6-28.4-30.9-1.3-2.5-1.8-105-1.8-346.9v-343.3h633.8v336.2c0 252.5-0.5 338.1-2 343.7-1 4-3.8 10.6-6.2 14.5-5.2 8.8-20.9 22.8-29.2 26.1-5 2-30 2.7-129.1 3.4l-122.9 1-6.4 5.5c-3.4 3.1-7.9 9.1-9.9 13.5-2 4.3-4.4 8.9-5.3 10-1 1.2-1.8 3.9-1.8 5.9 0 6.6-3.2 3.8-5.1-4.5zm-269.8-48.4c-4-2.4-8.1-4.4-9.1-4.4-2.7 0-17.3-16-19-20.9-0.9-2.6-1.5-68-1.5-162v-157.6h293v349.5l-128-0.1-128-0.1zm120.6-51.3c4.3 0 10.9 0.2 14.8 0.4 11.6 0.6 20.5-6.1 26.5-20 4.9-11.4 5.4-18.1 1.9-25.6-1.4-2.8-2.5-5.9-2.5-6.8 0-2.3-6.8-8.5-9.5-8.6-1.1 0-2-0.8-2-1.8 0-1-0.8-1.8-1.9-1.8-2.7 0-13.8-11.2-13.2-13.4 0.3-1 0-1.2-0.7-0.5-0.7 0.7-3.5-0.5-6.3-2.8-7.9-6.5-8.8-6.8-11.2-4.4-5.7 5.8-13.1 10.4-14.7 9.2-1.1-0.7-1.5-0.4-0.8 0.7 1.4 2.4-13 15.5-15.3 13.9-1-0.6-1.8 0.5-1.8 2.7 0 2-0.6 3.3-1.4 2.8-0.8-0.6-3.3 0.6-5.6 2.6-4.4 3.7-9 20-6 21.1 0.8 0.4 1.5 1.6 1.5 2.9 0 3.9 5.6 14.7 11.3 21.6 6.1 7.6 12.6 10.1 22.5 8.8 3.6-0.6 10.1-1 14.4-1zm70.3-21.7c0-10.9-1.7-14-9.4-17.6-9.4-4.4-10.3-4.3-10.3 0.8 0 11.6 1.8 15.1 9.6 18.8 10.2 4.8 10.1 4.8 10.1-2zm-138 1.3c5.5-1 6.4-2.1 9.7-10.9 2-5.4 3.4-10 3-10.4-0.3-0.4-4.4 0.1-9.1 1.2-8.2 1.7-8.6 2.1-11.9 10.8-4.2 10.9-4.3 12.6-0.6 11.4 1.6-0.5 5.6-1.4 8.9-2.1zm12.4-27c5.8-3.9 10.6-10.2 9.7-12.7-0.4-1.2-0.1-2.7 0.8-3.3 0.9-0.6 1.2-2.8 0.6-4.8-0.8-2.6-0.5-3.3 1-2.2q2.1 1.3 0.9-0.7c-0.6-1.1-0.6-3.1 0.1-4.3 0.7-1.2 1.6-3.9 1.8-5.8 0.3-2 1.3-3.9 2.1-4.2 0.9-0.4 1.6-1.6 1.6-2.9 0-1.2 1.4-6.8 3.1-12.3 3-9.9 3-10.2 0-13.1-1.7-1.7-4.5-3.9-6.3-5-1.8-1.1-8.3-5.8-14.5-10.5-6.2-4.7-11.8-8.5-12.5-8.5-0.7 0-3.2-2-5.6-4.5-3.5-3.5-6.2-4.5-12.5-4.5-7 0-9.2 1-16.8 7.7-5.6 4.8-9.6 10.2-11.2 14.7-3.6 9.9-2.3 26.3 2.6 33.7 2 3.2 3.7 6.5 3.8 7.5 0 1 1.1 6.6 2.4 12.3 1.9 8.9 3.5 11.7 10.1 17.8 4.3 4 9.4 7.6 11.5 8 2.1 0.3 4.1 1 4.6 1.5 1.5 1.7 19-1.3 22.7-3.9zm135.2 1.2c6.2-1.9 14.7-9.2 18.8-16 1.5-2.6 3.2-9.2 3.7-14.6 0.4-5.4 2.7-13.8 5-18.6 2.5-5.5 4.1-11.9 4.1-16.7 0-7.7-4.3-19.6-8.5-23.3-5.6-4.9-17.3-10.7-20.3-9.9-1.8 0.4-5.5 0.7-8.2 0.7-4.1-0.2-17.9 6.8-20.6 10.4-0.5 0.5-4.2 3.3-8.3 6.2-4 2.8-10.1 7.5-13.4 10.3l-6.1 5.2 2.4 6.7c1.4 3.6 3.1 8.2 3.8 10.2 0.8 2 2.2 6.8 3.1 10.8 5.3 21.6 8.2 27.2 17.7 34 9.2 6.7 16.2 7.9 26.8 4.6zm-99-103.6c1-0.7 1.9-1.7 1.9-2.2 0.1-3.6 5-24.9 6.7-29.6 3.2-8.3 5.4-23 4.3-29.2-2.2-13.5-13.9-25.7-26.6-27.8-11.4-1.9-25.3 4.7-31.2 15-0.8 1.4-5.1 4.6-9.5 7-4.7 2.6-10.4 7.9-13.7 12.6-5.5 8-5.5 8.2-4.7 22.8 0.8 14.6 3.9 23.8 8.2 23.8 1.1 0 3.5 1.6 5.4 3.5 3.1 3.1 6.3 3.6 24.6 4.1 11.7 0.3 23.7 0.7 26.9 0.9 3.2 0.2 6.6-0.2 7.7-0.9zm62.4-1.4c25.8-1.4 27.6-1.9 36-9.9 11.3-10.9 14.2-27.4 7.2-41.7-2.9-6.1-13.6-15-19.5-16.5-2.7-0.6-6.3-3.1-8.1-5.6-6.7-9.3-11.1-11.6-24.2-12.6-9-0.7-12.2-0.4-11.4 1 1 1.8-2.5 2.9-4.8 1.6-0.4-0.3-3.7 3.1-7.2 7.4-5 6-6.9 10.1-8.1 17.3-1.5 10-0.9 20.5 1.3 20.5 0.8 0 1.9 3.5 2.5 7.6 2.9 18.6 9 35 12.3 32.7 0.6-0.3 11.3-1.2 24-1.8zm-132.6-0.8c0-0.9-1.6-5.3-3.6-9.7-3.4-7.6-3.9-8-11.9-8.7-4.6-0.4-8.9-0.4-9.6-0.1-0.6 0.4 0.7 4.6 3 9.4 4.2 9.3 3.5 8.9 19.2 10.6 1.6 0.1 2.9-0.5 2.9-1.5zm196.5-5.9l5.8-7.6-8.6-2-8.5-1.9-7 7.3c-3.8 4.1-6.9 7.9-7 8.6 0 1.3 5.8 2.6 14.2 3 4.3 0.2 6.3-1.1 11.1-7.4zm-102.9-67.2l3.7-8.5-4.4-8.5c-2.4-4.7-5-8.1-5.7-7.6-0.8 0.5-3.1 4.5-5.1 8.9l-3.6 7.8 4.4 8.2c2.5 4.6 5 8.2 5.7 8.2 0.8 0 3-3.8 5-8.5zm159.9-68.5h283.1v157.2l-0.1 157.3-4.5 8.7c-3.7 7.4-6.4 9.9-16.6 15.7l-12.2 7h-249.7zm223.9 276h-164.7v23.3h164.7zm29.6-26.9h-228.8v17.9h228.8zm-182.7-20.2c-1.9-5.1-3.3-9.6-3.3-9.8 0-0.9-10.8-0.4-14.3 0.6-3 0.9-8.8 12.3-8.8 17.4 0 0.7 6.7 1.3 14.8 1.3h14.8zm37.9 8.3c0-0.7-1.3-5.1-2.9-9.9l-2.8-8.8h-11.1c-10.7 0-11.2 0.2-11.2 4.3 0 2.3-0.4 6.8-1 9.9l-1 5.6h15c8.2 0 15-0.5 15-1.1zm59.3-18.7h-47.8v19.8h47.8zm74 16.2c0-1.9-0.6-3.9-1.5-4.5-0.8-0.6-2-3.4-2.6-6.4-1-5.2-1.3-5.3-10.8-5.3-10.4 0-16.3 3.4-16.3 9.3 0 5.3-2.5 3.6-4.7-3.1l-2.1-6.2h-21.1l-1.8 7.6c-1 4.2-2.1 8.6-2.5 9.8-0.5 1.8 6.5 2.3 31.4 2.3 30.6 0 32-0.2 32-3.5zm-172.8-89.7h-19.8v68.1h19.8zm32.9 0h-21.4v68.1h21.4zm102.1 0h-21.4v68.1h21.4zm32.9 0h-21.4v68.1h21.4zm-71.7 64.1c0.4-1.3 1.1-4.9 1.6-8.1l0.9-5.8h-50.8l2.6 8 2.5 8.1h21.3c15.6 0 21.4-0.6 21.9-2.2zm-15.5-26.5c0-3.1 1.1-3.6 9-3.6h9.1v-32.2h-52.7v32.2h9c8 0 9.1 0.5 9.1 3.6 0 3.1 1.1 3.6 8.2 3.6 7.2 0 8.3-0.5 8.3-3.6zm-79.3-47.5c0.7-4.5 5.2-10 7-8.8 0.8 0.5 1.5 3.8 1.5 7.1v6.2h24.1l2.1-7.6c1.1-4.2 2.3-9 2.8-10.8 0.8-2.9-1.5-3.1-32.2-3.1-18.2 0-33 0.3-33 0.7 0 2.2 5.2 16.4 6.8 18.5 1.3 1.7 4.8 2.3 11.1 1.9 7.7-0.4 9.3-1.1 9.8-4.1zm134.9-1.3c0.3-2.7 1.2-4.9 2.1-4.9 0.8 0 1.5-1.2 1.5-2.7 0-1.5 0.7-2.7 1.6-2.7 2.3 0 5 6.2 5 11.5 0 4.5 0.3 4.6 11.2 4.6h11.2l3.9-9.4c2.2-5.2 4.2-10 4.6-10.7 0.4-0.8-15-1.4-34-1.4h-34.8v6.3c0 3.4 0.8 6.3 1.7 6.3 0.9 0 1.6 1 1.6 2.3 0 4.9 4.1 6.8 14 6.2 9.4-0.5 9.9-0.7 10.4-5.4zm53-44.4h-12.4c-9.4 0-13.5-0.8-16.9-3.3-2.4-1.8-8.9-6.4-14.3-10.1-5.5-3.7-11.9-8.2-14.4-10.1-2.4-1.8-4.9-3.3-5.6-3.3-0.6 0-9.4-5.6-19.4-12.3-10-6.7-21.1-14.1-24.6-16.4l-6.3-4.1-7.5 3.9c-6.3 3.4-52.6 32.6-79.9 50.5-6.6 4.3-9.8 5.2-18.6 5.2h-10.6v21.5h230.5zm-168.6-3.5c0.9-1 5.7-4.5 10.6-7.8 5-3.3 16.5-11 25.6-17.1l16.6-11.2 18 12c25.7 17.1 35.3 23.9 35.3 24.9 0 0.5-24.3 0.9-53.9 0.9-35.4 0-53.3-0.6-52.2-1.7zm68.2-21.6h-32.9v19.8h32.9zm-472.5-412.2h293.1v327.9h-293.1zm98.8 289.7c0-3.3-0.5-8.6-1-11.7l-1.1-5.6h-41.9l-1 8.4c-2.1 16.2-4 14.9 22 14.9h23zm28-35.5c0-40.2-0.1-41.7-3.6-45.7-2-2.2-4.1-4.1-4.8-4.1-0.7 0-4.6 3.8-8.7 8.5l-7.5 8.5v37.2l0.1 37.2h24.5zm67.5 5.5c0-39.7 0.2-38.8-12.1-53l-4.9-5.8-3.8 4c-3.8 3.9-3.9 4.2-3.9 47.4v43.4h24.7zm46.2 12.8h-42.9v21.5h42.2zm-2-15.3l-0.1-9.8h-40.8v19.7h41zm-140-1.4l0.5-8.5h-21.3c-23.5 0-23.3-0.1-23.3 11.9v6.2l21.8-0.5 21.8-0.5zm0.3-33.6h-42.8v19.7h42.8zm138.3 1.8h-39.5v16.1h39.5zm-124.7-19.6c8.6-8.5 7.1-9.1-25.1-9.1h-29.7v21.4l21.9 0.5c21.4 0.5 21.8 0.4 25.1-3.9 1.8-2.4 5.3-6.5 7.8-8.9zm123-9.1h-28.8c-15.8 0-28.8 0.7-28.8 1.6 0 0.9 3.3 4.5 7.3 8.1 4 3.6 7.8 8.1 8.4 10.1 0.9 3.2 2.5 3.5 21.5 3.5h20.4zm-70.5 14.3c3.5-4 6.3-8.9 6.3-10.8 0-3.3-1.2-3.5-23.8-3.5h-23.9v4.3c0 2.9 2.3 6.5 7 10.8 6.4 5.8 7.9 6.3 17.5 6.4 10.2 0 10.8-0.2 16.9-7.2zm-74.3-39.4h-31.3v17.9h31.3zm54.3 0h-49.4v18h49.4zm54.3 0h-49.4v17.9h49.4zm36.2 0h-31.2v17.9h31.2zm-116.8-25.1h-57.7v19.7h57.7zm52.6 0h-47.7v8.7c0 4.8 0.5 9.2 1.1 9.8 0.6 0.7 11.3 1.2 23.9 1.2h22.7zm62.6 0h-57.6v19.8h57.6zm-141.6-26.9h-31.3v21.5h31.3zm51-0.1l-23 0.2-23 0.1v21.3h46zm56 0h-51v21.5h51zm31.3 0h-26.3v21.5h26.3zm-113.6-25.1h-54.3v19.8h54.3zm54.3 0h-49.4v19.7h49.4zm57.6 0h-52.6v19.7h52.6zm11.6-53.8h-26.2l-0.5 10.3-0.5 10.3-11.9 0.6-12 0.5v-23.5h-29.6v23.3h-24.7v-23.3h-34.6v23.3h-19.7v-21.5h-29.6v46.6h189.3zm74-39.4h283.2v328h-283.2zm145 304.2c1.7-2.2 3.1-4.9 3.2-5.9 0-1.1 4.1-7.1 9.1-13.5 5-6.3 9.5-13.2 10-15.3 0.8-3.3-5.8-31.9-8.4-36.6-0.6-1-8.5-1.8-18.1-1.8h-17.2l-1.8 7.7c-1 4.1-3.3 12.2-5 17.8-4 13-4 18.7 0 23.6 1.7 2.1 5.4 6.6 8.2 9.9 2.8 3.4 5.1 6.8 5.1 7.6 0 0.9 1.1 1.5 2.4 1.5 1.3 0 3.7 2 5.3 4.5 3.7 5.4 3.4 5.4 7.2 0.5zm-28.9-53.7c5.7-19.6 5.8-19.4-4.9-19.4-6.9 0-9.1 0.7-9.1 2.6 0 1.5-3.7 6.7-8.2 11.6l-8.3 9 4.7 5.2c6 6.6 13 9.3 18 6.9 2.7-1.3 4.8-5.5 7.8-15.9zm67.8 14.6c2.6-1.1 6.3-3.6 8.3-5.7l3.7-3.7-8.4-10.5c-4.6-5.8-9.4-10.5-10.6-10.5-1.3 0-2.4-0.8-2.4-1.8 0-2.9-9.8-2.1-10.9 1-0.9 2.5 2.6 18.8 6.2 29.1 1.5 4.5 6.5 5.2 14.1 2.1zm-4.4-42.3c5-4.5 5.1-5 2.3-7.2-1.6-1.3-4.3-2.4-5.9-2.4-1.7 0-3-0.7-3-1.5 0-4-9.8-5.6-33.4-5.6-19 0-26.2 0.6-29.8 2.7-2.5 1.4-5.4 2.6-6.2 2.6-0.8 0-3.1 1.6-5.1 3.6-1.9 2-2.6 3.6-1.5 3.6 1 0 1.9 0.9 1.9 2 0 5.9 5.6 6.8 40.6 6.9l34.9 0.1zm-58.5-36.5c-0.9-12.2-2.3-18.8-5.7-26.5-2.5-5.6-5-12.5-5.6-15.2-2.2-9.6-11.4-21.2-22.4-27.9-6.7-4.2-23.6-4.8-30.8-1.2-16.4 8.2-20.6 11-25.2 16.4-7.8 9.4-16.5 25.2-17.1 31.3-0.6 5.4 2.6 14.9 5.7 16.9 0.8 0.6 1.5 2.5 1.5 4.2 0 1.8 2.1 5.3 4.6 7.9l4.5 4.8 4.7-6.4c8.1-11 13.1-13.2 29.9-13.2 13.3 0 15.5 0.5 20.6 4.5 3.1 2.4 7.2 6.5 9 8.9 3.2 4.2 17.6 11 24.4 11.5 2.9 0.2 3-0.9 1.9-16zm33.7 7.2c0-8.5 6.6-33.7 12.3-47.1 3-7.1 14.1-44.7 14.1-47.7 0-1.3-8-14.9-17.7-30.4-9.7-15.5-18.9-30.5-20.5-33.4-1.5-2.9-3.3-5.5-4.1-5.7-0.7-0.2-5.8 6.5-11.2 14.9-5.5 8.5-11.9 17.9-14.4 21-2.5 3.1-6.6 8.9-9 12.8-2.5 4-6.6 10.1-9.1 13.7l-4.6 6.6 11.5 18.7c6.4 10.3 11.6 19.7 11.6 20.8 0 1.1 2.1 7.1 4.7 13.2 3.4 8 5.3 16.7 6.8 30.1 1.1 10.3 2.4 19.4 2.8 20.1 0.4 0.8 6.6 1.4 13.8 1.4h13zm15.6 4.4c1.7-1.4 5.2-2.6 7.8-2.6 3.3 0 5.2-1.3 6.9-4.9 7.5-15.8 33-21.6 52.7-12.1 5.1 2.5 9.7 5.6 10.2 7 1.7 4.9 5.5 4.7 7.9-0.4 4.5-9.4 5.7-22.4 2.8-30.2-5.4-14.4-22.2-31.1-31.5-31.1-1.6 0-3.2-0.9-3.6-2-1-3.4-23.3-2.9-26.5 0.6-1.5 1.6-5.5 4.7-8.9 7-13.9 9.3-16.2 13.9-26.8 51-1.9 6.4-2.1 17.5-0.5 19.3 1.8 2 6.1 1.3 9.5-1.6z"/>
			<path id="path2837" fill-rule="evenodd" class="s6" d="m332.7 1015.2c-2.5-10.9-9.8-21.4-18.3-26.3l-7-4.1-127.6-0.9c-97-0.7-62.2-1 145.3-1.4 200.1-0.3 275.1-0.9 280.7-2.5 9.2-2.4 19.7-9.8 30.3-21.3 13.9-15.2 12.8 15.6 12.8-362.2v-334.8h-630.4v683.9l4.6 7.9c2.6 4.4 9.4 12.4 15.2 17.8 13.9 12.7 14.9 13.9 8.7 9.8-8.7-5.8-24.4-22.9-28.4-30.9-1.3-2.7-1.8-100.8-1.8-347v-343.3h633.8v336.2c0 252.5-0.5 338.1-2 343.7-1 4-3.8 10.6-6.2 14.5-5.2 8.8-20.9 22.8-29.2 26.1-5 2-30 2.7-129.1 3.4l-122.9 1-6.4 5.5c-3.4 3.1-7.9 9-9.8 13.2-2 4.2-4.4 8.5-5.4 9.6-1 1.1-1.8 3.8-1.8 6.1 0 7-3.1 4.6-5.1-4zm-269.8-48.4c-4-2.4-8.1-4.4-9.1-4.4-2.7 0-17.3-16-19-20.9-0.9-2.6-1.5-68-1.5-162v-157.6h293v349.5l-128-0.1-128-0.1zm261.7-343.1h-289.7v156.7c0 87.4 0.6 158.5 1.5 160.9 1.6 4.7 14.8 19.3 17.4 19.3 1 0 5 2 9.1 4.4l7.4 4.4 127.2 0.1 127.1 0.1zm23.1-1.8h283.1v157.2l-0.1 157.3-4.5 8.7c-3.7 7.4-6.4 9.9-16.6 15.7l-12.2 7h-249.7zm223.9 276h-164.7v23.3h164.7zm29.6-26.9h-228.8v17.9h228.8zm-182.7-20.2c-1.9-5.1-3.3-9.6-3.3-9.8 0-0.9-10.8-0.4-14.3 0.6-3 0.9-8.8 12.3-8.8 17.4 0 0.7 6.7 1.2 14.8 1.2h14.8zm37.9 8.3c0-0.6-1.3-5-2.9-9.8l-2.8-8.8h-11.1c-10.7 0-11.2 0.2-11.2 4.3 0 2.3-0.4 6.8-1 9.8l-1 5.6h15c8.2 0 15-0.4 15-1.1zm59.3-18.6h-47.8v19.7h47.8zm74 16.3c0-1.9-0.6-4-1.5-4.5-0.8-0.6-2-3.5-2.6-6.4-1-5.2-1.3-5.4-10.8-5.4-10.4 0-16.3 3.4-16.3 9.4 0 5.3-2.5 3.6-4.7-3.1l-2.1-6.3h-21.1l-1.8 7.7c-1 4.2-2.1 8.6-2.5 9.8-0.5 1.8 6.5 2.3 31.4 2.3 30.6 0 32-0.2 32-3.5zm-172.8-89.7h-19.8v68.1h19.8zm32.9 0h-21.4v68.1h21.4zm102.1 0h-21.4v68.1h21.4zm32.9 0h-21.4v68.1h21.4zm-71.7 64c0.4-1.2 1.1-4.8 1.6-8l0.9-5.8h-50.8l2.6 8 2.5 8.1h21.3c15.6 0 21.4-0.6 21.9-2.3zm-15.5-26.4c0-3.1 1.1-3.6 9-3.6h9.1v-32.2h-52.7v32.2h9c8 0 9.1 0.5 9.1 3.6 0 3.1 1.1 3.6 8.2 3.6 7.2 0 8.3-0.5 8.3-3.6zm-79.3-47.5c0.7-4.5 5.2-10.1 7-8.8 0.8 0.5 1.5 3.7 1.5 7.1v6.2h24.1l2.1-7.6c1.1-4.2 2.3-9 2.8-10.8 0.8-2.9-1.5-3.1-32.2-3.1-18.2 0-33 0.3-33 0.7 0 2.2 5.2 16.4 6.8 18.5 1.3 1.7 4.8 2.3 11.1 1.9 7.7-0.4 9.3-1.1 9.8-4.1zm134.9-1.3c0.3-2.7 1.2-5 2.1-5 0.8 0 1.5-1.2 1.5-2.6 0-1.5 0.7-2.7 1.6-2.7 2.3 0 5 6.2 5 11.5 0 4.5 0.3 4.6 11.2 4.6h11.2l3.9-9.4c2.2-5.2 4.2-10 4.6-10.8 0.4-0.7-15-1.3-34-1.3h-34.8v6.3c0 3.4 0.8 6.2 1.7 6.2 0.9 0 1.6 1.1 1.6 2.4 0 4.9 4.1 6.8 14 6.2 9.4-0.5 9.9-0.7 10.4-5.4zm53-44.4h-12.4c-9.4 0-13.5-0.8-16.9-3.3-2.4-1.9-8.9-6.4-14.3-10.1-5.5-3.7-11.9-8.2-14.4-10.1-2.4-1.8-4.9-3.4-5.6-3.4-0.6 0-9.4-5.5-19.4-12.2-10-6.8-21.1-14.1-24.6-16.4l-6.3-4.1-7.5 3.9c-6.3 3.3-52.6 32.6-79.9 50.5-6.6 4.3-9.8 5.2-18.6 5.2h-10.6v21.5h230.5zm-168.6-3.5c0.9-1 5.7-4.5 10.6-7.8 5-3.3 16.5-11 25.6-17.1l16.6-11.2 18 12c25.7 17.1 35.3 23.9 35.3 24.9 0 0.5-24.3 0.9-53.9 0.9-35.4 0-53.3-0.6-52.2-1.7zm68.2-21.6h-32.9v19.8h32.9zm-472.5-412.2h293.1v327.9h-293.1zm98.8 289.7c0-3.3-0.5-8.6-1-11.7l-1.1-5.6h-41.9l-1 8.3c-2.1 16.3-4 15 22 15h23zm28-35.5c0-40.2-0.1-41.7-3.6-45.7-2-2.3-4.1-4.1-4.8-4.1-0.7 0-4.6 3.8-8.7 8.5l-7.5 8.5v37.2l0.1 37.2h24.5zm67.5 5.5c0-39.7 0.2-38.8-12.1-53.1l-4.9-5.7-3.8 4c-3.8 3.9-3.9 4.2-3.9 47.4v43.4h24.7zm46.2 12.7h-42.9v21.5h42.2zm-2-15.2l-0.1-9.8h-40.8v19.7h41zm-140-1.4l0.5-8.5h-21.3c-23.5 0-23.3-0.1-23.3 11.9v6.1l21.8-0.5 21.8-0.5zm0.3-33.6h-42.8v19.8h42.8zm138.3 1.7h-39.5v16.2h39.5zm-124.7-19.6c8.6-8.6 7.1-9.1-25.1-9.1h-29.7v21.4l21.9 0.5c21.4 0.5 21.8 0.4 25.1-3.9 1.8-2.5 5.3-6.5 7.8-8.9zm123-9.1h-28.8c-15.8 0-28.8 0.7-28.8 1.6 0 0.8 3.3 4.5 7.3 8.1 4 3.6 7.8 8.1 8.4 10 0.9 3.3 2.5 3.6 21.5 3.6h20.4zm-70.5 14.3c3.5-4 6.3-8.9 6.3-10.8 0-3.3-1.2-3.5-23.8-3.5h-23.9v4.3c0 2.9 2.3 6.5 7 10.7 6.4 5.9 7.9 6.4 17.5 6.5 10.2 0 10.8-0.2 16.9-7.2zm-74.3-39.4h-31.3v17.9h31.3zm54.3 0h-49.4v17.9h49.4zm54.3 0h-49.4v18h49.4zm36.2 0h-31.2v17.9h31.2zm-116.8-25.1h-57.7v19.7h57.7zm52.6 0h-47.7v8.7c0 4.7 0.5 9.2 1.1 9.8 0.6 0.7 11.3 1.2 23.9 1.2h22.7zm62.6 0h-57.6v19.7h57.6zm-141.6-26.8h-31.3v21.5h31.3zm51-0.1l-23 0.2-23 0.1v21.3h46zm56 0h-51v21.5h51zm31.3 0h-26.3v21.5h26.3zm-113.6-25.1h-54.3v19.7h54.3zm54.3 0h-49.4v19.8h49.4zm57.6 0h-52.6v19.7h52.6zm11.6-53.8h-26.2l-0.5 10.3-0.5 10.3-11.9 0.5-12 0.6v-23.5h-29.6v23.3h-24.7v-23.3h-34.6v23.3h-19.7v-21.5h-29.6v46.6h189.3zm74-39.4h283.2v327.9h-283.2zm281.5 1.8h-279.8v324.4h279.8z"/>
			<path id="path2835" fill-rule="evenodd" class="s7" d="m332.7 1015.2c-2.5-10.9-9.8-21.4-18.3-26.3l-7-4.1-127.6-0.9c-97-0.7-62.2-1 145.3-1.4 200.1-0.3 275.1-0.9 280.7-2.5 9.2-2.4 19.7-9.8 30.3-21.3 13.9-15.2 12.8 15.6 12.8-362.2v-334.8h-630.4v683.9l4.6 7.9c2.6 4.4 9.4 12.4 15.2 17.8 13.9 12.7 14.9 13.9 8.7 9.8-8.7-5.8-24.4-22.9-28.4-30.9-1.3-2.7-1.8-100.8-1.8-347v-343.3h633.8v336.2c0 252.5-0.5 338.1-2 343.7-1 4-3.8 10.6-6.2 14.5-5.2 8.8-20.9 22.8-29.2 26.1-5 2-30 2.7-129.1 3.4l-122.9 1-6.4 5.5c-3.4 3.1-7.9 9-9.8 13.2-2 4.2-4.4 8.5-5.4 9.6-1 1.1-1.8 3.8-1.8 6.1 0 7-3.1 4.6-5.1-4zm-269.8-48.4c-4-2.4-8.1-4.4-9.1-4.4-2.7 0-17.3-16-19-20.9-0.9-2.6-1.5-68-1.5-162v-157.6h293v349.5l-128-0.1-128-0.1zm261.7-343.1h-289.7v156.7c0 87.4 0.6 158.5 1.5 160.9 1.6 4.7 14.8 19.3 17.4 19.3 1 0 5 2 9.1 4.4l7.4 4.4 127.2 0.1 127.1 0.1zm23.1-1.8h283.1v157.2l-0.1 157.3-4.5 8.7c-3.7 7.4-6.4 9.9-16.6 15.7l-12.2 7h-249.7zm261.5 337.3c10.4-5.7 12.6-7.9 16-15.1l4-8.5v-311.9h-279.9v342.3h123.9 123.9zm-575.9-685.1h293v328h-293zm291.3 1.8h-289.7v324.3h289.7zm23.1-1.7h283.1v327.9h-283.1zm281.5 1.8h-279.9v324.4h279.9z"/>
		</g>
	</g>
</svg>