<svg version="1.2" xmlns="http://www.w3.org/2000/svg" viewBox="0 0 729 1057" width="729" height="1057">
	<title>Teteven-pdf</title>
	<style>
		.s0 { fill: #ffffff } 
		.s1 { fill: none;stroke: #ffc734;stroke-width: 26.6 } 
		.s2 { fill: #ff2e17 } 
		.s3 { fill: none;stroke: #ffc734;stroke-width: 26.5 } 
		.s4 { fill: none;stroke: #ffc734;stroke-width: 17.7 } 
		.s5 { fill: #00ab4f } 
		.s6 { fill: #ffc734;stroke: #ffc734;stroke-width: .4 } 
		.s7 { fill: #ffc734 } 
		.s8 { fill: none;stroke: #ffc734;stroke-width: 6.6 } 
	</style>
	<path id="Path 1" class="s0" d="m109.1 297.8c-15.8 20.6-29.7 42.7-44.6 63.7-4.1 0-5 5.7-8.7 7.2l-8.8 8.5c7.2-12.2 15.7-22.1 22.7-34 4.1-4 6.2-8.1 9.9-12.6 15.3-19.3 27.8-38.1 43.8-56.8-0.6 9.5-9.9 15.9-14.3 24zm534.6-20.8c16 18.8 28.5 37.5 43.8 56.8 3.7 4.6 5.8 8.6 9.9 12.7 7 11.8 15.6 21.8 22.7 33.9l-8.8-8.4c-3.7-1.5-4.6-7.3-8.7-7.3-14.9-20.9-28.8-43.1-44.6-63.7-4.4-8.1-13.7-14.5-14.3-24z"/>
	<path id="Path 2" class="s1" d="m14 181.7h701.5v569.1c-133.2 429.7-601.2 347.9-701.5 0z"/>
	<path id="Path 3" class="s2" d="m14 181.7h701.5v569.1c-133.2 429.7-601.2 347.9-701.5 0z"/>
	<path id="Path 4" class="s3" d="m52.2 13.2h623.2v153.5h-623.2z"/>
	<path id="Path 5" class="s2" d="m52.2 13.2h623.2v153.5h-623.2z"/>
	<path id="Path 6" class="s4" d="m719.4 368.3v4.4 379.5c-134 432.1-605.8 349.9-706.8 0v-374.4l1.2-0.4 1.7-0.2 8.4-4.6 6.4-2 4.6-1.9 5.1-1.4 7.1 1.4 7.1-2 9.6-2.6 7.1 1.3 6.5 1.3 8.4 2.6 3.2 5.2 4.5 6h5.8l4.5 2.5 6.4 2.7 5.9 3.9 5.7 2 5.8-0.7 5.2-1.9 7.7-2.6 5.2 2.6 6.4-1.4 7.1-1.9 5.2 1.9 3.2 3.3 4.5 3.3h7.1 5.1l8.4 0.7 3.9-2 3.2-5.3 1.9-5.2 2-6.5 1.3-5.3 5.1-4.6 7.1-3.9 5.2-2.6 3.2-4 7.1-5.2 5.8-3.3 4.5-3.9 5.8-2.6 3.2-0.7 9.7-3.3 1.9-3.2 8.4-3.3 10.3-0.7 9-1.3 7.1-1.3 7.7-2.6 7.1-2.6 14.8-5.9 9-3.3 13.6-4.6 5.1-0.7 10.3-3.2 7.1-3.3h3.3l7.7-3.3 10.9-3.2 10.3-2 9.7-2 6.4-1.3 5.2-2.6 6.4-2.6h7.1l6.5-0.7 9-2.6 7.1-2 7.1 1.3 9 2 8.4 1.3 7 2.6 6.5 2.6 7.1 0.7 10.9 4.6 5.8 5.2 5.2 4 7.7 3.3 3.9 4.5 7.1 4 9.6 3.2 11 5.3 9.6 2 9 3.2 7.8 3.3 7.7 1.3 10.4 2 9 1.9 10.9 1.4 8.4-1.4 5.1 1.4h8.4 9.1l7 1.3 8.4-2.7 7.7 2.7 7.1 5.2 3.9 5.9 8.4 5.2 5.1 6.6z"/>
	<path id="Path 7" class="s5" d="m719.4 368.3v383.9c-134 432.1-605.8 349.9-706.8 0v-374.4l1.2-0.4 1.7-0.2 8.4-4.6 6.4-2 4.6-2 5.1-1.3 7.1 1.3 7.1-1.9 9.6-2.6 7.1 1.3 6.5 1.3 8.4 2.6 3.2 5.2 4.5 6h5.8l4.5 2.5 6.4 2.7 5.9 3.9 5.7 2 5.8-0.7 5.2-1.9 7.7-2.7 5.2 2.7 6.4-1.4 7.1-1.9 5.2 1.9 3.2 3.3 4.5 3.3h7.1 5.1l8.4 0.7 3.9-2 3.2-5.3 1.9-5.2 2-6.5 1.3-5.3 5.1-4.6 7.1-3.9 5.2-2.6 3.2-4 7.1-5.2 5.8-3.3 4.5-3.9 5.8-2.6 3.2-0.7 9.7-3.3 1.9-3.2 8.4-3.3 10.3-0.7 9-1.3 7.1-1.3 7.7-2.6 7.1-2.6 14.8-5.9 9-3.3 13.6-4.6 5.1-0.7 10.3-3.2 7.1-3.3h3.3l7.7-3.3 10.9-3.2 10.3-2 9.7-2 6.4-1.3 5.2-2.6 6.4-2.6h7.1l6.5-0.7 9-2.6 7.1-2 7.1 1.3 9 2 8.4 1.3 7 2.6 6.5 2.6 7.1 0.7 10.9 4.6 5.8 5.2 5.2 4 7.7 3.3 3.9 4.5 7.1 4 9.6 3.2 11 5.3 9.6 2 9 3.2 7.8 3.3 7.7 1.3 10.4 2 9 1.9 10.9 1.4 8.4-1.4 5.1 1.4h8.4 9.1l7 1.3 8.4-2.7 7.8 2.7 7 5.2 3.9 5.9 8.4 5.2 5.1 6.6z"/>
	<path id="Path 8" fill-rule="evenodd" class="s6" d="m190.6 710.1c0.1-1.2 5.2 0.6 4.7-0.6-0.5-1.5-4.6-8.6-3.2-9.7 1.5-1.2 2.1-1.7 3.8-1.9 4.6-0.7-4.1-4.3-0.9-7.9 0.6-0.7 12.4-2.4 24.5-1.6 4.7 0.3 12.2 0.1 15.5-2.3 7.4-5.4 5.8-28.3 11-28.4 2.5-0.5 13.9 2.4 13.9 11.2 0.2 12.4 12.7 0.2 15.5-2.3 0-5.7 4.8-26.4 1.7-34.6-3.7-9.6 1.1-18.1 5.8-29.7-3.3-3.5-2.2-14.9-1.5-22.2-1.4-2.6-18.4-20.2-25.5-15.3-10.5 7.3-17.4 10.5-20.2 6.3-2.1-3.8 2.6-10.6 3.6-22.5 0.7-8.9-14.3-10.6-21-15.2-6.7-2.5-10.9-5.5-9.8-7.6 0.8-1.5 6.6-1.1 6.9-2.3 0.4-1.6-1-3.2-1.4-4.4-0.7-2.4-9.9-3.1-10-4.7-0.3-3.9 2.7-4.7 1.1-6.1 2.4-7.6 8.4-10.4 13.9-10.9 32-2.9 19 46.3 71 43.9l2.2-1 3.4-4c4.9-3.4 6.4-3.2 12.2-3.3 0.8-1-2.7-10.3 1.3-8.2 2.6 1.3 6.5 2.3 10.9 3 1.6-1 4.4-6.5 7-3.8 1.9 4.6 5 7.6 8.5 9.9l1.2-0.3q1.8-3.7 3.1-6.9l1.5-0.3c4.8 2.2 5-8.4 7.5-4.3-0.2 6.1 8.5 9.7 7.1 4.5q-2.9-4.2-8.1-6.1c-11.8-4.4-28.2-13.6-27.6-26.8l1-0.5c6.7 4.4 10.3 3.8 16.3 9.3 3.1 3.1 4.4 7.2 7.7 10.2 6.3 4.2 10.3 2.7 15.1 8.9 0.3 0.9 0.7 1.6 1.7 0.6 2.4-8.6-8.8-15.3-9.7-9.3-2.3 2.8-2.2-6.2-3.2-7.5-5.4-2-7.6-11.2-7.2-16-2.1-5-1.7-5.7-0.9-7.7 3.6-2.4 11.6-1.3 12.6-4.4 0.5-1.6 2.9-2.5 3.7-3.9 0.4-0.7 0.1-1.4-0.4-2.5-0.2-0.6 0-1.4-0.3-2.2 6.5-13.4 11.1-11.4 21-11.8 11-0.3 8.9 0.6 16 1 34.3 2 37.6 10.8 20.5 17.6-0.5 1.7 3.1 0.6 1.5 1.7-0.8 2-1.3 3-1.6 3.5 0.2-0.2 0.4-0.4 0.6-0.1 3.9 1.6 11.8 10.2 19.5 20.4 7.9 10.6 15.4 23.6 21.6 26.6l-0.2 0.9c-7.1 3.9-13 6.5-17.8 5.2l-0.4 0.5c4.6 6 11.4 10.7 13.5 13.9-3.2 4-8.6 5.3-17.1 4.4 0.3 0.4-0.8 0.5-0.6 1 3.2 7.9 9.8 13.2 17 16.2q-1.6 4.5-13.3 6.4c11.2 8.5 3.4 18.6 9.8 28.3-0.2 1-5-1-12-4.2 9.8 10.1 0.8 20 7.6 29.3l-1.7 1.4c-4.8-1.7-8.7-3.8-12.3-6.1 0.2 0.6-0.8 0.6-0.5 1.2 1.6 3.2 3.5 7.3 3.9 11.3 0.6 5.9 1.4 13.8 5.5 16.7-0.7 0.1-0.1 0.9-0.7 0.9-4.5 0-9.9 0.6-14.9-1.4 0.2 0.3-0.8 0.5-0.5 0.8 8.2 8.3 16.2 17.5 23.8 26.3 4 3.8 8.4 6.3 13.9 6.1 18.8-0.7 10.7-31 7.8-40.3-0.5-1.9-0.6-3.6-1.8-4.8-9.6-9.3-11.2-14-2.9-25.2 1.4-1.8-1.2-9.5-1.8-11.6-5.7-22.1-17.2-51.6-0.8-72 5.2-4.3 10.8-7.9 18-8.2 5.3-1.4 5.4-9.8 4.3-13.4-0.3-1.3 0.9-1.3 1.5-0.8 3.9 1.8 6.9 4.3 8.8 7.7 1.4 2.9 3.9-4.9 4.6-2.8 2.6 2.9 3.5 5.5 3.2 9.1 7.7 3.9 13.6 10.7 15.5 16.7 5.1 1.4 5.3 3.6 3.2 7 11.7 10 17.3 22.9 16.4 39.9 0.1 17-12.2 33.3-25.9 44.2-5.1 3.6-8.5 7.7-9.7 10.3-0.9 2.3-1.8-11.3-1.8-11.3-2.1-6.6-6.4-11.5-9.2-17.9-1-3.3-0.3-8.7-0.4-12.7 0-1.1-3.3-0.7-4.4-1-0.6-0.2-0.4-1.1-0.1-1 4.4-2.3 1.7-18.2 2.5-22.8 0.7-11.4 4.7-20.4 13.8-27.8-2.2-2.3-2.7-6.2 0.9-7.7-3.3-3.3-8.2-5.9-17.6-6.7-0.8 0-1 1.2-0.2 1.2 4.5 0.4 4.5 5.7 4.2 8.7-0.4 4.9-5.7 9.4-4 14.3-0.2 0-0.3 0.5-0.4 0.5-6.7 1.7-7.9-5.9-9.7-5.4-4.9 1.3-7-3.1-7.9-6.5-3.4 7.1-2.3 20.6-0.9 28.1 1.3 8.8 3.7 17.3 5.8 25.8 0.5 2 0.9 2.6 2.1 1.2 0.1-1.2-1.7-9 1.6-7.4 4.2 5.5 8.2 5.9 6.7 14-0.7 3.2 2.2-1.3 3.1-0.5 0.7 2.1 1.4 5.3 1.5 7.6-0.5 2.3-1.9 2.7-2.6 5.2 2.8 2.6 0.8 8.8 4.8 12.9 1.7 2.5-9.8-3.7-9 0.5 0.1 0.6 5.4 42.4 14.4 30.8 0.4-1 0.4-1.5 0.8-2.5 6.9 1.1 11.6 8.8 9.8 14.6 4 5 7.4 12 4.4 18.1-0.7 5-18.2-8.5-17.3-2.3 0.9 6.5-2.8 15.3-10.7 9.1-4.2-3.3-7.4 0-11.3 1.7-1.8 0.8-8.4-0.8-7.4 1 2.6 4.4 6.5 9.5 9 14.6 7.6 5 15.8 7.6 24 9.1 15.1 4.4 24.2 3.4 30.5 6.7 10.7 5.6-0.6 18.3 6.2 22.8 10.4 3.9 13.9 4.5 16.6 15.4 1.5 7.4-2.3 7.9-0.2 10.6 2.2 2.7 3.1 10-2.3 14.4 6 4.4 3.7 10.4 1.5 15.5-2.3-1.7-2.7-2.1-5.5-2.4 0.7 2 2.1 4.3 1.5 7-1 4.7-3.5 8.8-3.8 12.4-0.6 5.8 10.2 24.3-2.2 25.3-3.3 0.2-8.3-4.1-11.3-3.8-4.3 0.5-9.1 3.2-9.4 7.9-0.3 4.5-7.3 6.5-7.2 10.1-2.1-0.6-3.7-1.5-6.1-2.1-2.2 4-4.8 8.3-10.7 6.3-4.2-1.1-2.7-4.3-2.2-7.1-3.3-0.2-6.3 0.3-8.8 1.7-4.6-4.6 2.8-12.1-9.2-7.6-3.2-5.1-1.4-8.7 1-12.2-4.1 1.2-6.2 2.1-10.6 2-0.7-3.4-0.2-6.9 1.7-9.3-3.3-7.2 5-13.8 12.9-14 7.5 1.5 15 3 22.3 3.9 13.8 0.1 11.1-21.9-0.2-25.9-8.5-2.7-16.5-4.6-25.4-6-11-4.5-10 2-15 8.1-5.3 3.5-7.9 3-14 1.9 1.2-2.3 1.8-3.4 0.5-6-3.4 0.7-8.6-0.2-14.4-4.3 5.5-4.8 5-9.7 4.7-16.1 0.9-3.5 2.8-4.9 2.5-8.5-6.6-6.5-7.7-15.7-9.7-23.9-0.6 0.3-1-0.3-1.7 0.2-3.8 2.4-9.3 7.8-15.1 8.9-12.5 4.8-26.4 5.8-38.3 12.2-4.5 3.1-6 12 1.2 12.4 0.7 0.1 1.1 1 1.2 1.7-1.1 5.3-3.6 8.7-7.1 11.3 1.2 1.2 11.9 15.4 7 15.3-2.1 0.5-3.8 0.8-5.9 1.3-0.6 1.4 0.3 2.6 2.3 4.1 3.5 4-24.5-0.9-25.8-1.2-12.8-3.6-20.3-5.4-24.9 3.3-0.4 0.6-3.5 2.1-5.4-0.1-3.1-0.8-7.1 1.6-11.3 6-5.1 5.3-18.1-0.3-22-4.5-7.2 1.2-13.2 2-19.3 4.4-4.2 5-8.9 7.2-14.1 2.2-2.1 0.2-3.4 0.7-4.7 3-6.5-3.3-1.7-6.7-1.9-11-1.8-1.1-1.8-2-1.7-3.8-6.4 0.5-7.9-1.3-14.6 1.4-0.6-4.1-4.6-6.1 0.5-9.8-1.4-3.9 1.2-14.4 5.3-16.7 9.7-8.7 17.5-3.4 29-0.4 6.4 0 12-3.1 15.8-6.5 6.7-5.9 14.7-3.3 22.6-5.2 5-1.8 6.9-4.2 9-6.6-5.9-0.9-9.9-4.1-11.4-10.3-12.5-2.7-18.4-8.5-18.6-16.3-0.3-1.4 5.6-0.1 6.2-0.1-2-3.3-4.2-6.1-4.8-12q-0.1-3.5 2.6-1.7c6.8 5.7 21 0.3 35.6-5.4 4.6-11.6 28.6-12.1 39.7-11.6 7.9 0.4 20.6-1.1 26.3-3.4 3.6-6.4 1.7-8.8-4.7-11.5-14.1-4.6-29-13.2-45.4-28.5-25.8 13.5-30.1 12-37.8 26.4-0.9 1.8-7.6 0.9-14.7 3.5-7 2.5-20.6 4.3-27.9 2.3-4-1-37.1 25.5-51.8 20-5.2-1.2-10.6-9-10.1-14zm126.7-154.7c2.4 0.6 5.1-1.1 7.5-1.6 15.9-3.2 33 0.3 49.2-1.2 6.8-0.7 12.2-1.8 17.5-6 0.8-0.7 0.9-2.5 2.8-1.6 4.4 2.1 7.9 7.1 13.8 6.7 5.9-0.5-4.9-14.2-5.6-16.1-0.9-2.5-2-10.3 0.3-12.6 1-0.9 9.1 6.5 8.8 2.6-0.1-1.3-0.7-2.5-0.8-3.8-0.6-5.3 0.8-9.7-1.1-14.7-0.1-0.3-4.1-8.9-3.5-8.4 11.6 9.3 20.6 35.7 40.1 31.4 9.3-2 4.4-3.1-0.6-8.6-6.3-6.9-11.9-14.2-17.6-21.5-3.7-4.6-12.6-18.2-20.3-18.3-2.1 0 0.8 2.8 1 3.5 2.1 6.1-10.7 10-10.8 9.4-0.3-3.6 7.7-5 6-9.6-1.6-4.2-8.2 0.4-7.8-2.9 0.2-2.4 2.9-1.3 4.7-1.7 1.5-0.3-3.2-0.8-4.1-0.9-0.9-0.2-1.6-1-2.5-1.1-1.7-0.3-3.3-0.1-5-0.3-8.5-0.8-17.2-3.2-25.8-3.4-4.3-0.1-6.6 3.1-2.6 3.2 1.2 0 2.2-0.4 3.4-0.4 1.2-0.1 15.5 5.2 11.6 6.5-2.7 0.9-3.7-0.8-6.4 0.8-2.4 1.5-6.9 3.9-8.7 0-1.8-3.8 4.3-3.7-2-5.1-4.4-1-1.9 0.6-3.9 1.3-1.4 0.6-9.1 5.2-6.4 6.8 2.8 1.6 3.8-0.1 1.1 2.4-1.3 1.3-1.8 2.6-1.5 4.3 0.3 2.1 3.1-0.6 3 0.8-0.1 0.9-0.8 1.7-0.6 2.5 2.1 10 23.2 9.6 17.7 25-1.6 4.4-4.7 9.4-9.9 10.7-3.1 0.8-8.5-2.8-10.1-1.7-4.9 3.1-8.3 5.5-0.7 9.2 7.2 3.6 9.8 1.4 16.9 0.8 0.4 0 1.3 0.4 1 0.6-12.6 7.3-27 0.1-35.9-8.4-0.7-0.7-2.2-3.3-3.5-2.6-0.6 0.4-0.5 1.4-1.2 1.6-0.1 0-9.4-2.7-8.9-0.9 0.8 3 4.9 6.4 7.4 8.3 0 0.1 7.6 4 4.5 4-8.7 0.1-16.9-10.1-24.8-5.8-1 0.5-2.4 0.2-1.8 1.8 2.8 7.4 7.7 12.9 16.1 15zm184.6-10.7c-0.3 3.7 8.1 1.5 10.6 2 0.5 0.2 1.6 0.8 2 0.8q-0.1 0-0.1 0c3.2 0.9 4.5-3 1.5-3.9-1.6-1.7-13.7-2.2-14 1.1zm8.4-5c4.7-1-4.9-9.6-6.2-10.5-1.3-0.9-8.7-3.6-8.3-4.8 0.8-2.1 2.9-2 1.7-5.2-1-2.5-5.2 6.3-7.2 1.3-0.9-2.3-2.4-5.8-4.6-7.2-0.6-0.4 0.9 11.9-4.8 12.8-16.6 2.4-23.7 11.2-24.2 26.4-0.5 16.6 3.9 34.4 7.8 50.5 0.1 0.6 1.2 8.8 3.1 6.9 4.1-4.1 1.3-5.8-0.2-10-1.6-4.3-3.1-9.7-3.7-14.1-0.1-0.9 1-1.6 1-2.6 0.3-5.6-2.1-11.1-2.8-16.5-1.4-10.7-1-20 6.4-28.9 6.6-7.9 17.7 1.9 10.3 6.5-3.8 2.4-7.2-0.9-10.4-2.1-1.2-0.5-0.6 9.8 6.9 7.8 3-0.8 2.9-2.3 3.2 1.2 0.1 2 0.7 4.3 2.6 5.5 1.3 0.9 1-2.8 1.1-3.2 1.1-5.3 8.5-11 1.9-16.3-0.3-0.3-7.1-3.7-3.6-4.6 7.2-1.8 15.4-1 21.1 3.3 3.5 2.7 3.5 5.1 8.9 3.8zm-41.1 0.4c0.8 3.9 10.6 4.6 7.8-1.4-0.3 0-0.5-2.5-2.5-1.9-1.5 0-5 1.4-5.3 3.3zm47.8 15.6c2.9 14.1 11.7 27.8 2.3 41.8-4.7 7 0.2-5.2 0.4-6.3 2.1-12.4-6.8-24.6-6.9-37-0.1-4 3-4.9-3.6-5-2.1 0-2.6 19.4-2.6 21.7 0 11.8 5.2 26.1-3 36.5-5.2 6.5-1.2-2.4-0.8-4.1 2.9-13.9-3.7-28.4-0.6-42.8 0.8-3.5 2.8-6.9 3.7-10.4 0.2-0.7-2.8-1.6-3.8-0.5-11.7 13-10.8 29.7-11.2 45.6 0 2.5 5.1 0.4 4.1 3-1.2 3.3-2.2 3.6-1.3 7.4 2.3 9.5 6 18 7 27.7 0.7 6.4 1.3 2.9 4.4-0.1 2-1.8 4.2-3.3 6.3-5 20.5-16 29.7-60.3 7-78.3-2.8-2.3-1.4 5.7-1.4 5.8zm-48 79.1c2.7-5.4 5.8-5.8 11.4-5 3 0.5 1.2-6 0.1-7.3-0.6-0.7-6.2-2.3-4-3.2 3.1-1.4 5-1 6.7-4.4 2.9-6.1-5.8 1.2-7.4-0.1-0.6-0.4 4.1-10.1 1.6-13.6-1.4-1.9-2 4.4-2.2 4.7-0.2 0.6-1.1 0.7-1.5 1.3-0.1 0.3 0.3 0.7 0.1 1-0.6 1.1-1.7 1.9-2.5 3-6.9 9.5-8.7 15.8-4.2 26.7 1.1 2.6 1.7-2.9 1.9-3.1zm-72.3-146.2c-1.5-2.1 3-3.7 3.2-2.2 0 0.2-1.9 4.1-3.2 2.2zm51.2 60.2c-1.2-0.9-2.9-1.3-4.1-2.3-1.1-0.8-1.7-2-2.6-3-8.2-8.8-16.1-17.9-24.8-26.2-0.1-0.1-2.5-3.3-2.7-2-0.6 4.2 0.5 9.2 3.2 12.6 5.3 6.6 0.3 2.5-4.3 1.2-8.1-2.2-4 0.9-0.4 4.5 8.6 8.6 19 22.1 34.2 17.3 0.4-0.1 2.2-1.6 1.5-2.1zm-18.3 3.9c-0.4-2.2-2.8-1.5-4.9-2.6-5.3-2.5-10-7.3-14.2-11.1-4.4-4.2 1.1 5.3 1.4 6.3 0.9 3.3-0.4 5.6-1.6 8.6-1.3 3.2 13.5 13.9 16.5 15.9 4.4 2.9 15.9 3.9 21 1.6 0.8-0.4 0.5-0.7-0.1-1.1-9-5.3-16.1-6.9-18.1-17.6zm-41.6 17.9c2.2-2.3-5.4-11.4-3.2-15 1.7-2.8 2.5 5.5 2.5 5.7 1.1 3.4 3.2 7 6.1 9.4 11.8 9.5 23.7 18.5 37.7 25.3 0.1 0 9.2 6 8.3 3.5-0.2-0.5-0.9-1-1-1.5-2.2-8.7 5.5-14-4.5-20.6-9.6-6.4-19-11.1-26.5-19.9-1-1.1-1.2-2.5-2-3.6-1-1.3-5.2-1-7-1.8-2.7-1.1-5.4-5.1-7.9-3.3-6.1 4.5-11.9 5.1-19.8 5.9-11.2 1.1-22 1.4-33.3 1.6-18.3 0.3-30.9 8.8-28.2 26.5 0.1 0.5 4.2 13.3 4.9 10.7 0.4-1.4 0.1-3 0.6-4.4 8.3-21.1 33.3-16.1 52.5-15.5 5.7 0.1 11.3 0.9 16.5-1.5 1.7-0.8 2.7 0 4.3-1.5zm49.8 106.9c-18.1-15.8-31.3-35.6-51.4-49.9-5.7-4-6.1-2.8-12-3.5-10-1.2-19.2-3.7-27.7 3.4-1.4 1.2-1.6 3.2-2.6 4.8-0.8 1.2-2.6-2.5-4.2-2-4.8 1.4-9.8 2.5-14.2 4.6-9.2 4.3-15.4 10.5-21.6 17.7-6.3 7.2-19.2 10.9-24.3 17.9-9.6 3.5-16.1 12.1-20.9 4.8-0.9-1.4 0.5-4.5-2.6-4-1.7 0.4-3.2 1.5-4.8 1.7-6.3 0.6-5.7-3.2-6.8 4.1-1.6 10.3-8.4 15.5-20.4 15.4-2.6 0-5.2-1-7.8-1.1-4.6-0.2-3.5 3.3-4.8 5.9-0.8 1.6-2.1 1.9 0.3 3.5 5.8 4.1 13.9 4.2 21 3.2 0.6 0 4.2-2.1 4.5-0.9 0.6 2.9-17.1 4.6-19.1 4.5-5.7-0.4-7.1-2.5-11-5-3.4-2.3-2.8 3.5-3.1 4.4-0.3 0.8-1.4 1.3-1.7 2-2.6 5.6 13.7 5.2 10.8 6.5-3 1.2-6.9 0.6-9.8-0.2-1.5-0.5-2.5-1.9-4.1-2-2.4-0.3-3.7 2.5-2.7 4.2 8.5 14 31.9-6.1 40.3-11.1 4.7-2.8 9.4-5.6 14.5-7.6 5-1.9 12.6 4.6 18.1 1.7 9.2-4.7 17-2.9 21.2-7 12.2-18.3 35.7-21 56.2-29.3 11.5-4.7 23.9-10.7 37-7.4 3.2 0.8 1.4 3.2 2.1 5.4 0.2 0.7 3.7 5.7 0.6 3.7-4.6-3-6.5-5.6-12.6-6.4-0.7 0-8.1-0.2-6.9 1.4 3.9 5.5 15.2 5 20.7 8.5 2 1.3 3.4 3.3 4.8 5.1 2.3 2.8-4.7-0.8-6.5-1.1-6-1.3-6.1 1.8-1 3.8 1.9 0.8 4.1 0.5 6.1 0.9 5.1 1.1 10.5 3.9 11 8.9 0.3 2.1-5.7-2.4-6.1-2.5-2.9-1.1-6.1-0.4-9.1-2.2-4.5-2.8-4.9-6.9-9.5-9.3-3.4-1.8-5.3-4.6-8.3-6.8-0.8-0.5-1.8-0.9-2.4-1.5-1.4-1.4-2-4.6-4.8-3.7-2.5 0.7-4.7 2.1-7.1 3.1-3.8 1.6-7.9 2.6-11.5 4.5-2.1 1.1 9.8 10.8 10.9 11.8 7.2 6.5 16.8 14.9 26.4 18.4 3.1 1.2 6.6 1.3 9.7 2.5 22.5 8.9 28.8 25.3 38.7 44.3 10.1 19.3 17.9 41.3 42.2 49.7 11.5 4 23.2 5 34 11.3 16 9.3 15 29.5-7 28.3-6.4-0.4-12.7-2.9-19.1-3.5-6.9-0.6-3.9 0.3-2.3 2.6 0.4 0.6 0.2 1.5 0.6 2.2 1.8 3.9 16.6 1.8 16.6 1.9-4.5 5.3-21.4-2.7-26.9 3.5-1.1 1.3 2.6 1.4 3.1 1.6 0.9 0.4 1.3 1.4 2.1 1.8 1.1 0.6 2.6-0.6 3.6-0.8 6.1-1.5 10.7 1 16.8 0.2 0.7 0 4.8-2.1 5-0.7 0.4 4.3-19.4-0.2-22 3.8-0.8 1.2 2.6 2.2 3.4 2.9 0.9 0.8 1 2.2 2 3 1 0.9 3.4-1.7 4.2-2.1 3.6-1.5 7.6 0 11.6-1.8 0 0 3.2-2.4 2.4-1.1-2.4 3.9-8.3 1.9-11.2 7.3-0.6 1 2.6 1.2 3.2 1.7 2 1.5 1.7 3.7 2.8 5.4 1.3 2.2 10 0.8 12.9 0.3 11.5-2 9.9-19.7 21.5-18.3 1.2 0.2 5.2 2.9 4.6 0.6-1.4-6-1.6-8.1 0.3-14 1.6-5 5.2-15.5 3.3-20.6-0.2-0.5-1.8-1.6-0.7-2.3 1.7-1 6.2 3.2 7.2-0.2 3-10-9.7-10.6-14.6-17.2-1.5-2 5.4 2.1 7.7 3.1 12 5.5 6.9-9.7 2.2-13.7-2.4-2-17.4-7.2-3.4-4.9 1.9 0.4 4.8 2.8 5.5 0.4 3.2-10-4.8-10.7-11.9-14.9-8.1-4.9-1.3-12.9-5.8-18.9-2.8-3.7-8.1-4.1-12.5-5-15.5-3.3-29.4-4.9-42-14.7-7-5.4-9.2-15.9-14.1-23.1-0.4-0.7-1-1.2-1.2-1.9 0.8-1.4 2.5 1.1 3.1 1.6 2.1 1.8 4.8 2.8 7.7 3 5.7 0.4 5.1-6.5 12.3-5.9 5.4 0.5 5.6 6 10.6 1.7 3.2-2.6 0.6-8.1 1.7-8.5 4.6-1.8 9.6-0.6 14 0.7 3.9 1 0-10.3-1-11.7-1.1-1.5-2.6-1.3-1.7-3.3 1.3-2.8-0.1-5.4-1.5-7.9-4.1-7-2 1.5-4.7 3.1-12.5 7.9-16.2-32.1-17.9-36.9-0.3-1.1-6.9 2.8-5.1 7.7 4.5 12.3 8.6 28.7 2.3 41-4 7.6-14.4 8.1-22 4.9-4.5-3.2-9.3-5.9-13.4-9.5zm-30.4 66c-3.2-4.4-1.1-7-0.8-11.1 0.4-5.2-11.4-13.7-15.6-17-5-4-6.6-0.4-11.6 1.6-11.3 4.4-21.7 4.2-33.8 3.9-5.7-0.1-12.8-1.5-18 1.5-12.3 7.2-12.4 23.1-10.5 34.7 0.6 3.2 2.8 6.1 2.9 9.4 0.6 19.2-27.2 14-39.4 20.1-6 3-12.7 11.3-20.4 9.1-7.5-2.1-13.6-10-21.9-6-3 1.4-2.2 3-0.5 5 0.3 0.4 14.6 1.5 16.5 2 1.4 0.3 11 3.2 8.4 3.6-8.1 1.1-34.8-5.9-34.6 6.4 0 1.6 4.3 0.8 5.9 1.3 1.6 0.5 7.4 6.4 9.2 4.8 0.9-0.9 6.2-7.3 8-5.4 0.1 0-4.9 4-5.4 5-0.4 0.7-1 6.3 0 6.5 3.6 0.9 5.7-0.3 8.1 3.5 0.9 1.4-0.7 6.6 3.2 4.3 2.3-1.4 3.6-3.6 6.7-4.2 6.3-1.1 11.6-0.2 17.9-2.7 1.6-0.6 1.3-0.6 3 0.1 10.1 3.8 13.8 7 23 0.2 0.8-0.6 1.2-1.8 2.2-2.1 0.6-0.2 6.7-0.2 6.2-1.2-2.8-5.7-11.7-5.4-17-7.5-0.9-0.3-8.2-3.5-7.2-4.6 0.9-1 2.1 0.7 2.9 0.9 7.2 1.5 13.8-0.2 19.9 4.5 0.8 0.5 4 4.6 5 4.1 1.5-0.9 2.4-2.5 4-3.4 12-6.3 27.3 5.3 40.1 5.1 2.3 0-1.8-6.2 0-7.3 0.5-0.3 8.9 3.7 8 0.6-1.5-5-4.2-9.4-8.6-12.6-2.5-1.7 3.5-2.4 4.9-3.4 0.8-0.5 7.3-5.4 3.8-5.7-3.5-0.4-5.9 0.2-8.2-3.2-12-17.4 36.5-24.2 45.4-27.6 4.1-1.6 17.4-8.7 13.2-9.2-5.9-0.6-10.8 1.7-14.9-4zm-179.9 68.6c-5.8 5.3 10.3 1.6 7-0.9-1.1-0.9-1.8-1.4-3.4-0.9-1.3 0.5-2.6 0.9-3.6 1.8zm261.9 51.9c3.1-0.5 0.7-2.2-0.4-3.3-2.1-2.1-9.6 5.2 0.4 3.3zm-175.2-264.9c-0.2-1.8-4.2-4.4-5.3-6.1-0.7-1-1.8-6.7-3.7-5.9-11.1 4.2-17.4 11.3-21.2 21.6-0.8 2.1 4.6 13.3 8.7 10 3.1-2.3 5.4-5.4 8.7-7.5 8.8-5.8 13.6-2.3 12.8-12.1zm-5.9-36.7c0.1-0.6-0.6-1.5-1.2-1.3-20.1 5.7-22.9 17.5-22.7 34.5 0 3.8 8.7-6.3 9.4-6.7 1.5-1.2 11.3-5.5 11.4-6.7 0.2-2.9-1-5.9-0.5-8.7 0.5-3.9 2.8-7.4 3.6-11.1zm0.6-7.1c-1.9-1.4-4.4-1.9-6.3-3.3-1.4-1-4.7-6.1-6.8-5.1-9.2 4-8.8 12.6-8.8 20.6 0 3.2 3.4-1.1 3.9-1.5 2.1-1.6 4-3.4 6.4-4.6 1.1-0.6 13.9-4.6 11.6-6.1zm125.5 69.5c0.5-7.2-0.1-17.2-4.7-23.1-1.6-2-22.6-16.5-23.5-14.3-0.6 1.7 0.8 1.6-1.2 3.6-3.1 3.2-1.8 6.3-2.4 10.6-0.9 7.3 23.2 20 31 24.4 0.5 0.3 0.8-0.7 0.8-1.2zm-34.9-30c-4.1 1-8 2.7-12.2 3.5-4.8 0.8-9.8 1.2-14.7 1.4-10.5 0.4-40.6-3.8-36 14.1 0.2 0.7 3.6 12 5.4 10.3 0.8-0.8 1.3-2.1 2.3-2.6 14.8-8.2 39 4.1 51.1-11.8 0.7-0.9 7.8-15.8 4.1-14.9zm-9.7-22.4c-4 1.1-7.9 3-12.1 3.7-16.7 2.6-52.7-5.7-58.9 14.5-2.5 8.2 0.7 19.1 7.2 25.3 1.8 1.7 3.9-8.7 4.7-9.8 18.5-25.2 51.9 2.9 71.5-16.3 4.9-4.8-4-10-6.7-12.6-1.5-1.5-3.2-5.4-5.7-4.8zm42.8 80.4c-1.6-2.1-4.2-3.7-5.4-6-4.3-8.3 0.2-19.6-7.7-25.9-2.5-1.9-5.4-3.5-7.9-5.5-0.8-0.5-9.2-8.8-10.4-7.2-3 4.1-4.3 8-8.3 11.8-0.8 0.7-4.1 1.6-3 2.7 3.8 3.8 8.4 6.9 12.1 10.9 2.5 2.7 4.4 5.8 6.9 8.5 4.4 4.7 16.7 11.5 23.5 11.7 0.3 0 0.4-0.8 0.2-1zm-103.2-28.5c-6.6-3.3-9.9-8-12.8-14.2-10.1 0.6-22.3 11.1-28.1 17.7q-3.9 6.6-7.9 13.4c-0.3 3.8-2.6 17.6-0.6 20.2 6.1-1.1 10.6-3.6 16-6.1 3-3.3 5.7-6.8 8.5-10.2q7.4-5.5 14.8-10.9c4.3-1.8 8.6-3.6 12.9-5.4 2-0.5 4.8-0.6 6.2-2-0.5-2.3-1.6-2.6-3.6-4.2-0.9-1.9-1.6-4-3.1-5.5-1.5 2-0.5 4.6-1.1 7-0.4 0.1-0.9 0.4-1.2 0.2zm-130.3 69c1.6 0.9 8.6 4.7 10.8 3.7 0.6-0.3 0.6-2.8 0.5-3.2-1-2.5-12.9-1.3-11.3-0.5zm90.2-71.6c-1.3-1-3-1.4-4.4-2.3-0.7-0.5-1-1.4-1.7-1.9-1.2-0.7-2.2 13.5-0.5 12 2.2-1.9 3.2-4.7 5.6-6.6 0.2-0.2 2.2-0.4 1-1.2zm-53.3 173.6c-2.3-4.4-7.8 1.9-6.3 3.2 0.3 0.2 3.3-1.8 3.9-2.1 0.5-0.2 2.8-0.4 2.4-1.1zm223.9 3.7c1.5-9-2.9-8.6-9.3-13.1-1.9-1.4-8.6-9.2-9.1-2.9-0.2 2.6 0.4 5.2 0 7.7-0.5 3.1-5.4 5.3-3.6 7.9 3.8 5.7 11.6 0.6 12.8 3.2 0.3 0.8-1.7 7.1 0 6.6 4.5-1.4 8.5-5 9.2-9.4zm-35.4-54c0.8-0.1 1-1.4 0.7-2-7.5-16.7-16.3-28.7-34-37.6-2.3-1.2-3 3.5-1.9 4.5 3.2 2.9 20.6 15.3 20.3 19.2-0.1 1.6-0.8 3.2-0.6 4.7 1.1 8.3 5.8 12.4 15.5 11.2zm-222-41.1c0.1-0.3 0.2-0.8 0-0.9-0.7-0.4-1.5-0.3-2.2-0.5-1-0.1-1.9-0.1-2.8-0.3-0.6-0.1-0.9-0.6-1.5-0.7-0.2-0.1-0.5 0.2-0.5 0.4 0.1 0.7 0.3 1.4 0.8 1.9 0.6 0.7 1.4 1.2 2.2 1.7 0.4 0.3 0.9 0.6 1.4 0.6 0.4 0 0.9-0.1 1.2-0.3 0.4-0.3 0.6-0.8 0.9-1.1 0.2-0.3 0.4-0.5 0.5-0.8zm-6 9c-0.3-0.1-0.8 0.2-1.1 0-0.5-0.2-0.9-0.5-1.3-0.9-0.3-0.3-0.5-0.7-0.9-1-0.2-0.1-0.6-0.2-0.8 0-0.4 0.4-0.4 1-0.3 1.5 0 0.6 0.3 1.1 0.6 1.6 0.3 0.5 0.7 0.9 1.1 1.3 0.3 0.2 0.8 0.4 1.2 0.3 0.4-0.2 0.3-0.7 0.5-1 0.4-0.4 0.9-0.6 1.2-1.1 0-0.2 0-0.5-0.2-0.7zm114.8 46.5c0-0.3-0.4-0.8-0.7-0.7-2 0.5-3.7 1.8-5.6 2.5-0.3 0.1-0.7-0.3-1.1-0.1-0.4 0.2-0.5 0.7-0.6 1.1-0.3 1-0.6 2.1-0.5 3.1 0.2 0.9 0.6 1.8 1.3 2.5 0.7 0.7 1.7 1.1 2.7 1.5q1.1 0.4 2.3 0.5c0.3 0 0.6-0.2 0.7-0.5 0.4-0.9 0.6-1.9 0.7-2.9 0.2-0.9 0.2-1.9 0.2-2.8 0.2-1.4 0.7-2.8 0.6-4.2zm4.9-29.6c-2.4 1-4.4 2.4-6.8 3.4-2.6 1.1-5.3 2.3-8.2 3-2.8 0.7-5.7 0.9-8.5 1.1-2 0-4-0.9-5.9-0.5-0.7 0.1-0.8 1.2-0.9 1.9-0.2 1.3-0.2 2.7 0.1 4 0.3 1.1 0.7 2.2 1.5 3 0.4 0.5 1.2 1.1 1.9 1.1 3.2 0 6.5-0.5 9.7-1.1 4-0.8 8-1.9 11.9-3 0.6-0.2 1.3-0.5 1.7-0.9 0.4-0.5 0.3-1.2 0.5-1.7 0.4-1.8 0.7-3.6 1.3-5.3 0.5-1.6 1.5-2.9 2-4.5 0.1-0.2-0.1-0.6-0.3-0.5zm-3.7 16.3c0-0.3-0.5-0.7-0.9-0.6-4 0.9-7.6 2.8-11.6 3.7-3.7 0.8-7.6 0.8-11.3 1.3-0.5 0.1-1.1 0.2-1.3 0.6-0.3 0.4 0.1 0.9 0.4 1.3 1.1 1.5 2.1 3.1 3.7 4.2 1.6 1 3.6 1.7 5.6 2 1.9 0.4 4 0.3 5.9 0 1.7-0.3 3.2-1.1 4.7-1.8 1-0.4 2-0.7 2.9-1.3 0.4-0.3 0.8-0.6 0.9-1.1 0.6-2.7 1-5.5 1-8.3zm-60.1-78.1c0.6-0.3 1.3-0.9 1.3-1.5 0-0.9-0.8-1.7-1.3-2.4q-0.7-1.1-1.8-2.1c-0.2-0.2-0.5-0.4-0.8-0.4-0.4 0-0.7 0.3-0.9 0.5-0.6 0.6-1.1 1.2-1.6 1.9-0.3 0.5-0.6 1.1-0.7 1.7-0.1 0.6-0.2 1.1 0.1 1.6 0.3 0.5 0.9 1 1.6 1.2 0.7 0.2 1.5 0 2.2-0.1 0.7-0.1 1.3-0.1 1.9-0.4zm158.2-190.7c-2.7-1.1-5.5-2.1-8.4-2.7-4.9-1-9.9-1.6-14.9-2.2-5.2-0.6-10.5-1-15.8-1.2-2.7-0.1-5.4 0.2-8 0.6-0.3 0 0 0.7 0.3 0.7 3.9 0.3 7.9-0.1 11.8 0.3 8 0.7 16 1.6 23.9 2.8 3.9 0.6 7.6 2.1 11.4 2.7 0.4 0.1 0.1-0.8-0.3-1zm-32 37.2c-1.4-1-3-5.4-1.3 0.7 1.8 6.6 6.7 10.8-1.9 16.2-0.3 0.1-6.6 3.1-5.5 1 2.8-5.3 6.3-9.5 5.5-15.9-0.3-2.3-5.4-13.9 0.9-8.1 2.6 2.4 5 2.9 7.7 4.7 2.2 1.4-3.9 2.4-5.4 1.4zm-120.5 23.8c-3.9-3.6-7-7.8-10.1-11.9-5.5-7.3-18.2-33.7-32.3-23.6-0.6 0.5-1 1.1-1.1 1.8-0.3-0.6-0.9-0.8-2.2 0-8.1 5.4 2.8 5.3 2.5 2.5q0-0.2 0-0.4c0.3 0.4 0.8 0.8 1.5 0.9 1.5 0.4 3.1-0.6 4.6-0.5 3 0.2 7 0.9 9.1 3 2.1 2.2-12.8-3.5-12.8 2.4 0 0.8 0.8 1.6 0.7 2.4-0.1 1.1-3.3 6.2 0.9 5.2 4.7-1.1 7-2.5 12.4-0.9 1.9 0.5 17.4 8 15.6 10.4-0.8 1-3.2-2.1-3.8-2.4-6-3.2-13.6-5.8-20.8-4-2.9 0.8-1.8 1.5-1.8 3.2 0 2.8-2.5 5.7 1.8 7.1 2.5 0.8 5.3 0.7 7.7 1.5 11.2 3.9 15.1 11 12 21-2.2 7-1.1 3.4 4.5 6.1 1.4 0.7 2.2 2.2 3.6 3.1 2.6 1.5 2.7-1.8 4.2-2.8 9.6-6.5 23.6 9.9 30.3 14.7-3.1-10.6-4.9-21.1 2.9-30.1 6.4-7.5-20.9-0.8-29.4-8.7zm110.2-70.4c2.3 1.3 3.1 5.8 3.5 1.2 0.2-2.4 0.6-3.7 1.7-5.8 2.3-4.5-7.1-1.5-8.7-0.4-0.7 0.5-6.3 7-3.1 6.8 2.2-0.2 1.6-4.6 6.6-1.8zm-153.1 48c2-6.5-10-4.4-9.7-1.8 0 0.4 5.2 0.7 6.1 1 0.7 0.2 3.2 1.9 3.6 0.8zm27.8 52.9c8.5-3.5 0.4-6.6-1.3-5-2.9 2.9-6.2 8.2 1.3 5zm144.6-107c-5.9-0.8-12.4 1.4-13.1 6.5-0.2 1.5 2 0 2.2-0.2 3-1.5 6.6 1.5 8.4-1.2 0.3-0.4 4.6-4.8 2.5-5.1zm-171.3 67.7c1.6-0.1 2.1-0.8 2.8-2.1 1.9-3.3-14.6-1.2-7 1.6 1.4 0.5 2.7 0.5 4.2 0.5zm187.9-64.2c-5.2-1.2-7.2-4.3-12.8-1.5-0.6 0.3-4.9 3.4-3.8 4.4 0.4 0.4 4.3-2.1 6-1.9 4.6 0.4 2.7 3.1 6.6 1 1-0.5 4.3-0.9 4.6-1.3 0.3-0.4-0.2-0.6-0.6-0.7zm1 9.1c1.3 2.5 6-2.9 6.4-3.1 0.5-0.3 1.7-0.3 2.1-0.8 1.3-1.6 1.7-2.6 6.7-2.2 2.9 0.3-6-4.2-6.5-4.5-1.4-1.1-1.9-3.1-5.4-2-2.1 0.7 4.3 2.8 0.8 3.6-5.7 1.4-5.4 6.5-4.1 9zm-190.3 32.3c-0.4-0.6-0.5-1.4-0.3-2.1 0.2 0.5 0.3 1.4 0.3 2.1zm254.7 339.2c-1.8-3.5-6 1.4-4.9 2.4 0.2 0.2 2.5-1.4 3.1-1.6 0.3-0.1 2.1-0.3 1.8-0.8zm7.7 10c1.9-0.9 0.7-7.4-4.3-2-4.3 4.8 1.1 3.5 4.3 2zm-10.5-20.8c-5.8 5.2 10.3 1.5 7-1-1.1-0.9-1.8-1.4-3.4-0.9-1.3 0.5-2.6 0.9-3.6 1.9zm-218.1-9.3c1.9-0.9 0.7-7.5-4.3-2-4.4 4.8 1.2 3.5 4.3 2z"/>
	<path id="Path 9" class="s4" d="m100.5 206.5c35.3 0 64 29.8 64 66.4 0 36.6-28.7 66.5-64 66.5-35.3 0-64.1-29.9-64.1-66.5 0-36.6 28.8-66.4 64.1-66.4z"/>
	<path id="Path 10" fill-rule="evenodd" class="s7" d="m100.5 206.5c35.3 0 64 29.8 64 66.4 0 36.6-28.7 66.5-64 66.5-35.3 0-64.1-29.9-64.1-66.5 0-36.6 28.8-66.4 64.1-66.4zm63.2-152.3q0 5.7-2.5 13.3-2.8 8.5-5.8 8.5-2.2 0-3.1-3.5-1-3.5-1.8-6.1-1.9-6.7-4.9-8.9-2.1-1.6-6.1-1.6h-6.5v62.9h8.9v4.3h-34.6v-4.3h8.9v-62.9c-1.1 0-6.6 0-7.2 0q-3.4 0-5.4 1.6-2.8 2.2-4.9 8.9-1.2 4.2-1.5 5.6-1.1 4-3.4 4-3 0-5.6-8-2.7-8-2.7-13.8 0-1.5 1.3-2.7 1.2-1.2 3.5-1.2 3.1 0 4.3 0.7 1.2 0.8 4.2 0.8 3.2 0 5.7 0 2.5 0 4.1 0c1.1 0 34.4 0 35.6 0q1.9 0 3.8 0h2.4q3.3 0 4.4-0.8 1.2-0.7 4.1-0.7 2.2 0 3.5 1.2 1.3 1.2 1.3 2.7zm79.1 16.4h-26.7v-4.3h3.3q-0.8-4.8-3.9-7.8-3.8-3.9-10.3-3.9-9.2 0-13 9.5-2.3 6-2.3 15.5v2.4q3.6-2.9 8.2-4.7 4.6-1.7 9.9-1.7 6 0 11.2 2.8 6.2 3.2 8.5 9h4.4v4.3h-26.7v-4.3h4q-1.1-3.1-3.1-4.6-2-1.5-3.7-1.5-3.2 0-6.6 1.1-3.3 1.2-5.6 3.6 1.3 8.6 4 16.7 1.8 5.6 1.8 11.5 0 1.7-0.2 2.7-0.2 1-0.8 2.7 1.5 0.7 3.9 0.7 9.9 0 15.2-5.8 3.6-3.8 4.9-9.5h-5.4v-4.2h28.3v4.1l-4 0.1q-5.2 8.9-13.7 14.2-8.5 5.3-17.7 5.4-4.8 0-9.5-0.5-4.7-0.5-8.1-1.5 0-1.6 0-2.4 0-3.8-2.1-7.7-1.4-2.6-4.5-6-7.1-8.4-9.3-12.8-2.3-4.4-2.3-10.5 0-18.3 13.7-26.8 9.8-6.1 23.2-6.1 9.3 0 16.7 3.2 9.6 4.2 13.1 12.8h5.2zm82.4-16.4q0 5.7-2.5 13.3-2.8 8.5-5.8 8.5-2.2 0-3.2-3.5-0.9-3.5-1.7-6.1-1.9-6.6-4.9-8.9-2.1-1.5-6.1-1.5h-6.5v62.9h8.9v4.2h-34.6v-4.2h8.9v-62.9c-1.1 0-6.6 0-7.2 0q-3.4 0-5.4 1.5-2.8 2.2-4.9 9-1.2 4.1-1.5 5.6-1.1 3.9-3.4 3.9-3 0-5.6-8-2.7-8-2.7-13.8 0-1.5 1.3-2.7 1.2-1.2 3.5-1.2 3.1 0 4.3 0.8 1.2 0.7 4.2 0.7 3.2 0 5.7 0 2.5 0 4.1 0c1.1 0 34.4 0 35.6 0q1.9 0 3.8 0h2.4q3.2 0 4.4-0.7 1.2-0.8 4.1-0.8 2.2 0 3.5 1.2 1.3 1.2 1.3 2.7zm79.1 16.4h-26.7v-4.2h3.3q-0.9-4.8-3.9-7.9-3.9-3.9-10.3-3.9-9.2 0-13 9.5-2.3 6-2.3 15.5v2.5q3.5-3 8.1-4.7 4.7-1.8 10-1.8 6 0 11.2 2.8 6.2 3.2 8.5 9.1h4.4v4.2h-26.7v-4.2h4q-1.1-3.2-3.1-4.7-2-1.5-3.7-1.5-3.2 0-6.6 1.2-3.3 1.1-5.6 3.5 1.3 8.6 4 16.8 1.8 5.6 1.8 11.4 0 1.7-0.2 2.7-0.2 1-0.8 2.7 1.5 0.7 3.9 0.7 9.9 0 15.2-5.8 3.6-3.8 4.9-9.5h-5.4v-4.2h28.3v4.1l-4 0.1q-5.2 8.9-13.7 14.2-8.5 5.4-17.7 5.4-4.8 0-9.5-0.5-4.7-0.4-8.1-1.5 0-1.6 0-2.4 0-3.8-2.1-7.7-1.4-2.6-4.5-6-7.1-8.3-9.3-12.8-2.3-4.4-2.3-10.5 0-18.3 13.7-26.7 9.8-6.2 23.2-6.2 9.3 0 16.7 3.2 9.6 4.2 13.1 12.9h5.2zm64.9 44.2q0 5.6-1.3 6.9-1.3 1.4-7.1 1.4h-52v-4.3h9v-32.3q0-17.7 4.9-25.6 6.6-10.6 24.1-10.6 10.8 0 17 5.4 5.4 4.7 5.4 11 0 5.8-3.7 9.7-4.5 4.8-13.1 4.8-4.9 0-9.8-3.3l-4.8 5.6q5.4 4.1 10.8 6 5.3 2 12 2h3.6q3.2 0 4.3 1.7 0.7 1.2 0.7 4zm-16.7-49.8q0-5.7-2.8-8.3-2.3-2.2-5.7-2.2-6 0-8.1 7.1-1.4 4.7-1.4 15v5.2l6.2-8q1.4 0.8 2.8 1.3 1.3 0.4 2.2 0.4 3.3 0 5.3-3.5 1.5-2.6 1.5-7zm0 46.9v-11.5q0-2.6-0.9-3.5-0.8-0.9-5.7-3.5-4.3-2.2-6.7-3.8-2.3-1.6-4.7-4.2v33.3h13.3q2.5 0 3.4-1 1.3-1.4 1.3-5.8zm99.8-41.4h-26.7v-4.3h3.3q-0.8-4.8-3.8-7.8-3.9-3.9-10.4-3.9-9.2 0-12.9 9.5-2.4 6-2.4 15.5v2.4q3.6-2.9 8.2-4.7 4.6-1.7 9.9-1.7 6 0 11.3 2.8 6.1 3.2 8.4 9h4.5v4.3h-26.8v-4.3h4q-1.1-3.1-3.1-4.6-2-1.5-3.7-1.5-3.2 0-6.6 1.1-3.3 1.2-5.6 3.6 1.3 8.6 4 16.7 1.9 5.6 1.9 11.5 0 1.7-0.3 2.7-0.2 1-0.8 2.7 1.5 0.7 4 0.7 9.8 0 15.2-5.8 3.5-3.8 4.8-9.5h-5.4v-4.2h28.3v4.1l-4 0.1q-5.1 8.9-13.7 14.2-8.5 5.3-17.7 5.4-4.8 0-9.5-0.5-4.7-0.5-8.1-1.5 0-1.6 0-2.4 0-3.8-2.1-7.7-1.4-2.6-4.4-6-7.2-8.4-9.4-12.8-2.3-4.4-2.3-10.5 0-18.3 13.7-26.8 9.8-6.1 23.2-6.1 9.4 0 16.7 3.2 9.6 4.2 13.2 12.8h5.1zm80.9 52.5h-33.1v-4.2h7.4v-17.7l-23.8-27.5v45.2h7.4v4.2h-33.1v-4.2h9v-62.8h-9v-4.3h33.1v4.3h-7.4v10.8l23.8 27.6v-38.4h-7.4v-4.3h33.1v4.3h-9v62.8h9z"/>
	<path id="Path 11" class="s8" d="m12.7 273.9l704.3-10.7m-398.3 50.7l-153.6-24.6-153.7-34.5m-1.6-28.8l227.5 115.7m-224.6-158.7l184.8 192.7m-140.9-197.8l92.7 205.1m-48.8-10.2l-0.7-191.2m92.7-5.9l-178.4 192m54.5-9.4l68.7-178.9m-128.1 145.1l277.4-151.3m-274.5 121.8l156-39.5 491.7-77.6"/>
</svg>