<svg version="1.2" xmlns="http://www.w3.org/2000/svg" viewBox="0 0 870 1278" width="870" height="1278">
	<title>Brezovo-svg</title>
	<style>
		.s0 { fill: #2c2e35 } 
		.s1 { fill: #ffffff } 
	</style>
	<path id="Path 1" class="s0" d="m0.7 0.2h191.2v88.9h144.7v-88.9h201.1v88.9h132.1v-88.9h200.2v1277.8h-869.3z"/>
	<path id="Path 2" fill-rule="evenodd" class="s1" d="m22 205h826.7v17.6h-826.7zm826.7 187.2h-826.7v-20.5h826.7zm-21.3 7.3h21.3v857.2h-826.7v-857.2h10c0 45.6-0.5 91.1-0.6 136.7 0.3 96.9 13.3 177.8 38 272 25.5 91.7 70.9 178.8 130.4 253 58.1 68.6 122.2 122.5 195.7 174.3 28.4 22.6 51.8 19.4 69.4 6.4 28.1-20.4 54.6-42.6 80.2-66.1 40.2-37.4 75.8-78.5 110.7-120.9 54.4-66.5 95.4-133.5 123.7-214.6 28.7-87.5 39.1-178.1 44.4-269.7 2.3-47.9 3.4-96 3.5-144zm-173.5 0c-0.3 64.9-1.8 129.7-3.7 194.6-2.4 82-18.7 139.8-46.2 218.2-14.7 39.8-118.3 226.9-169.1 230.4-34.6-4.2-103.9-94.6-123.6-121.7-31.6-47.6-54.7-104.8-71.9-158.6-21.2-71.4-20.7-124.7-22.5-200.9-1.2-54.2-2.8-107.8-3.2-162zm-631.9-378h148.6v88.8h187.2v-88.8h158.6v88.8h174.7v-88.8h157.6v176.2h-826.7zm237.7 666c-1.8 11.7-2.3 22.9-1.1 34.7l1.2 7.6c1.6 5.8 3.5 10.2 6.4 15.5 3 4.4 6 8.2 9.8 12.1l7.3 6.2c17.3 12.4 35.7 22.6 57.2 25.2 5.4 0 9.9-0.3 15.1-1.5 0.9 4.4 2 7.9 3.8 12.1 2.2 4 4.5 7.3 7.4 10.9l5.5 5.5c14.3 13.4 29.8 24.5 49 29.9l11.2 1c5.4-0.3 10.1-0.9 15.4-2.1 18.8-5.7 36.9-16 51.4-29.2l5.5-5.6c6.1-7.7 10.6-16.3 11.5-26.2l8.3 3.1 8.6 1.1 8.8-0.6 11.8-3.2c14.4-5 27.3-11.2 39.6-20.5l5.8-5c4.1-4.4 7-8.2 10-13.4 2.2-4.9 3.8-9.5 5.2-14.7 2.6-13.5 2.8-27.3 1.5-41-1.3-10.8-3.5-20.5-8-30.4-2.8-4.7-6.1-9.9-10.3-13.3l2.6-2.3 5.3-6.9 3.8-8 3-11.8c2.5-13.8 3.6-27 2.2-41l-1.1-7.1c-1.5-7.4-3.7-12.8-7.6-19.3-3.1-4.4-6.3-8-10.1-11.8-11.4-9.7-24.6-17.2-38.3-23-12.3-4.7-26.2-8.8-39.4-5.4-1.8-5.7-4.1-10-7.5-14.9-5.5-6.6-11.7-12.2-18.3-17.6-12.1-9.5-24.4-16.8-39.3-20.9l-11.2-1c-5.4 0.4-10.1 1.1-15.4 2.3-13.1 4.1-25.4 10.5-36.9 18-8.9 6.3-16.4 12.8-23.1 21.4-3.6 6.1-6 11.5-7.4 18.5l-3.4-1.4-8.6-1.4-8.8 0.3-11.9 2.8c-14.6 4.5-27.8 10.3-40.3 19.1l-6 4.8c-4.3 4.2-7.3 8-10.4 13.1-2.5 4.8-4.2 9.3-5.8 14.4-3.1 13.5-3.7 27.3-2.9 41 0.9 10.8 2.8 20.6 6.9 30.7 2.5 4.4 4.8 8.1 8.2 11.8-5.1 4.2-8 10.2-10.9 15.9l-3.4 11.7q-1 4.9-1.9 9.8z"/>
	<path id="Path 3" fill-rule="evenodd" class="s1" d="m169.7 400.6h26v58.5c0.2 23 0.4 36.6 0.6 59.6 0.3 52.6-71 75.1-71.8 12.5 0.2-35.5 42.9-50.1 45.2-73.1zm-93.6 57.6c2.2 22.9 45 37.6 45.2 73-0.8 62.6-72.2 40.1-71.9-12.5 0.2-22.9 0.4-36.6 0.6-59.5v-58.6h26.1zm122.2 94.7l1.2 49.2c0.8 22.9 1.3 36.5 2.1 59.4 1.6 52.6-69.2 76.9-71.5 14.4-0.7-35.5 41.6-51.2 43.3-74.2l-0.6-25.6 7.5-4.2 7.5-5.9 6.6-7.2zm-140.2 13l7.4 5.9 8.2 4.6 5.6 1.9 0.6 25.7c2.8 22.9 45.9 36.5 47 71.9 0.8 62.6-71.1 41.9-72.1-10.7-0.4-23-0.5-36.6-0.9-59.6l-1.1-45.4zm147.8 127.3l4.9 19.9c5.5 21.6 8.9 34.4 14.4 56 12.5 49.6-49.6 87.5-64.9 28.5-8.1-33.5 28.9-57.2 25.7-79.4l-0.6-2.3 1.5-0.9 7.4-6.1 6.4-7.4zm-133.7 24.6l8.2 4.3 8.7 2.8 5 0.6 3.5 14.4c7.5 21.2 51.3 25.1 59.7 58.5 13.8 59.3-58.8 54.6-70.8 4.9-5.1-21.7-8.1-34.6-13.2-56.3l-8.5-34.7zm164.9 76l9.2 27.1c7.4 21 11.9 33.5 19.3 54.5 16.9 48.3-41.7 91.5-62.1 34.1-11-32.6 23.7-59.6 18.6-81.4l-1.2-3.3 1.8-1.6 5.7-7.4 4.6-8.4 3.3-9.3zm-131.6 52.3l8.5 3.9 8.7 2.4 8.9 0.8 2.8-0.3 1.6 4.7c9.3 20.4 53.2 20.4 64.5 53 19 57.8-53.7 59.6-70 11.1-7-21.2-11.1-33.8-18.1-55l-7.1-20.7zm173.5 58.3l11.2 17c11.8 17.6 18.9 28 30.8 45.6 27 40.4-16.6 94.1-49 46.2-17.9-27.4 7.6-60.5-2.4-79.4l-2.4-3.5 0.7-0.8 5-7.8 3.9-8.8zm-117.1 61.4l9 1.6 8.9 0.1 7.4-1.4 10.2 15.4c13.4 16.6 53.9 6.2 72 33.4 31.3 48.7-35.2 67.7-61.8 26.9-11.5-17.8-18.3-28.4-29.8-46.2l-20.8-31.5zm178 18.4l12.7 15.5c13.3 16 21.3 25.5 34.6 41.5 30.5 36.9-6.7 93.8-43.3 50.2-18.8-23.2-1.6-54.9-8.2-73.3l0.8-1.6 2.8-8.5 1.5-9.1v-9.5zm-92.8 91.4l8.7-0.7 8.4-2.2 6-2.8c16.2 11.5 51.9-0.2 71.4 23.4 35.5 44.5-27.7 69.7-57.8 32.5-13.1-16.3-20.7-25.9-33.8-42.2l-6.8-8.4zm-109.9-597.1c-4.9 5-9.7 10.1-14.2 15.8-4.2-5.2-8.4-9.9-13-14.7q-1.1-1.1-2.2-2.2c-0.3-24.2-0.6-52.6-1.2-76.8h29.4zm2.6 103q0.4 9.7 1 19.4l1.4 21.6-14.6 16.4-13.3-14.3-1.6-1.5q-1.2-16.7-2-33.4-0.3-4.7-0.5-9.5l0.5-0.2 8.8-5.7 3.5-3.9 3.5 3.9 8.7 5.7zm17.5 146l2.5 17.1q-0.5 0.8-1 1.6c-3.2 5.4-6 10.7-8.6 16.4-6.6-5-13.2-9.2-20.3-13.5q-0.5-0.3-1-0.5-1.2-5.3-2.2-10.5-1.7-8.6-3.1-17.3l2.6-1.8 3.4-4 3.6 3.9 8.9 5.5 9.7 2.9zm33.5 114.9q3.4 8 7.1 16l-7.6 17.1c-6.9-4.4-13.9-8-21.3-11.6q-0.6-0.3-1.1-0.5-3.9-8.7-7.6-17.5l5.7-6.1 2.2-4.2 3.9 2.7 9.7 3.4zm56.1 106.9q4 6.2 8.1 12.2l-3.9 22.7-19.4-4.5c-6.5-9.5-12.7-19.2-18.6-29l1.6-4 4.1 2.4 10 2.5 9.9-0.1zm73.6 91.5q0.6 0.7 1.3 1.5l-1.5 22.4c-6.8-1.6-13.7-2.3-20.6-3q-4.6-5.3-9.2-10.6l0.7-1.7 0.5-3.7 3.7 1 9.9-0.1 9.4-2.5zm376.2-584.4c2.2 22.4 42.5 36.6 42.7 71.1-0.8 60.8-68.1 38.9-67.8-12.2 0.2-22.3 0.4-35.6 0.6-57.9v-56.9h24.5zm88.4-55.9h24.5v56.9c0.2 22.3 0.4 35.5 0.6 57.8 0.3 51.2-67 73.1-67.8 12.2 0.2-34.4 40.6-48.7 42.7-71zm-111.7 153.7l6.2 7 7.1 5.8 7.1 4-0.6 24.9c1.6 22.4 41.6 37.6 40.9 72.1-2.2 60.8-69 37.2-67.5-13.9 0.8-22.3 1.3-35.5 2-57.8l1.2-47.8zm133.7 1.4l-1 44.2c-0.4 22.3-0.5 35.6-0.9 57.9-0.9 51.1-68.8 71.2-68 10.4 1-34.4 41.6-47.7 44.3-69.9l0.6-25 5.3-1.8 7.7-4.4 7-5.8zm-139.6 137.4l6.1 7.2 6.9 6 1.4 0.8-0.5 2.3c-3 21.6 31.8 44.7 24.2 77.2-14.4 57.3-73 20.5-61.2-27.7 5.2-21 8.4-33.4 13.6-54.4l4.6-19.4zm128.3 10.5l-8 33.7c-4.9 21.1-7.7 33.6-12.5 54.7-11.3 48.4-79.8 52.9-66.8-4.7 8-32.5 49.3-36.3 56.3-56.9l3.4-14 4.6-0.6 8.3-2.6 7.8-4.2zm-161.9 83.5l3.1 9 4.3 8.2 5.4 7.1 1.7 1.6-1.1 3.2c-4.9 21.2 27.9 47.4 17.5 79.1-19.2 55.8-74.5 13.8-58.6-33.1 7-20.5 11.2-32.6 18.2-53l8.7-26.4zm123.7 46.6l-6.7 20.1c-6.6 20.6-10.5 32.8-17.1 53.4-15.4 47.1-84 45.4-66.1-10.8 10.7-31.6 52.2-31.6 60.9-51.5l1.5-4.5 2.6 0.3 8.4-0.8 8.3-2.4 8-3.7zm-161.8 65.1l3.6 8.5 4.7 7.6 0.7 0.7-2.3 3.5c-9.4 18.3 14.7 50.5-2.2 77.1-30.6 46.6-71.8-5.6-46.3-44.9 11.2-17.1 17.9-27.2 29.1-44.3l10.6-16.5zm113 49.7l-19.6 30.6c-10.9 17.3-17.3 27.6-28.2 44.9-25.1 39.6-87.8 21.1-58.3-26.2 17.2-26.4 55.3-16.3 68-32.4l9.7-15.1 6.9 1.4h8.4l8.5-1.6zm-173.4 24.6v9.3l1.4 8.8 2.6 8.3 0.8 1.5c-6.2 17.9 10 48.7-7.7 71.2-34.5 42.4-69.7-12.9-40.9-48.7 12.6-15.6 20.1-24.8 32.7-40.4l12-15zm92 83.3l-6.4 8.1c-12.3 15.9-19.6 25.3-31.9 41.1-28.4 36.2-88 11.6-54.5-31.6 18.3-22.9 52-11.6 67.3-22.8l5.7 2.8 7.9 2.1 8.2 0.6zm108.5-655.7h28.6c-0.6 23.6-0.9 51.1-1.2 74.7q-1 1-2.1 2.1c-4.5 4.6-8.6 9.2-12.6 14.3-4.4-5.5-9.1-10.5-13.9-15.4zm0.8 174.4l8.5-5.6 3.4-3.8 3.4 3.8 8.5 5.6 0.5 0.2q-0.2 4.6-0.4 9.2-0.9 16.2-2 32.4l-1.5 1.5-13 13.9-14.2-15.9 1.4-21q0.6-9.4 1-18.9zm-16 143.1l9.4-2.8 8.7-5.4 3.5-3.7 3.3 3.9 2.5 1.8q-1.4 8.3-3 16.7-1 5.1-2.1 10.2-0.5 0.3-1 0.6c-6.9 4.1-13.3 8.2-19.7 13.1-2.6-5.6-5.3-10.7-8.4-16q-0.5-0.8-1-1.5l2.5-16.6zm-29.1 111.2l9.5-3.3 3.8-2.6 2.1 4.1 5.5 5.9q-3.5 8.5-7.3 17-0.5 0.3-1.1 0.5c-7.2 3.5-14 7-20.8 11.3l-7.3-16.7q3.6-7.7 6.9-15.5zm-55.3 106.7l9.7 0.1 9.7-2.5 3.9-2.3 1.6 3.9q-8.6 14.3-18.1 28.1l-18.8 4.4-3.8-22q4-5.9 7.8-11.8zm-73.7 90l9 2.5h9.7l3.6-0.9 0.5 3.6 0.7 1.6q-4.5 5.2-9 10.4c-6.7 0.6-13.4 1.3-20 2.9l-1.4-21.8q0.6-0.7 1.2-1.5zm-96.3 44.4l13.3 11.5c3.9 3.3 2.3 9.8-2.2 13l-114.3 82c-4.5 3.2-10.1 1.8-14.1-1.4l-14.4-11.5c-4-3.2-2.2-9.8 2.3-13l115.3-82c4.4-3.2 10.2-2 14.1 1.4zm38.6 30.9l14.4 11.5c4 3.2 2.2 9.8-2.3 13l-113.3 81.5c-5 3.6-11.7 0.7-14.2-1.4l-15.3-12.4c-3.9-3.3-2.2-9.8 2.3-13l114.3-80.6c4.5-3.2 10.1-1.8 14.1 1.4zm38.5 29.4l14.3 12.5c3.9 3.3 2.3 9.8-2.2 13l-114.3 80.5c-4.5 3.2-10.2 1.8-14.2-1.4l-14.3-11.5c-4-3.2-2.2-9.7 2.3-13l114.3-81.5c4.5-3.2 10.2-2 14.1 1.4z"/>
	<path id="Path 4" fill-rule="evenodd" class="s1" d="m437.7 589.3c34.2 0 62.1 28 62.1 62.2 0 34.2-27.9 62.1-62.1 62.1-34.3 0-62.2-27.9-62.2-62.1 0-34.2 27.9-62.2 62.2-62.2zm-110 120.5c15.9-5.7 31.7-11.4 47.5-17.1 5 6.8 10.8 12.6 17.4 17.2-4.7 17.3-16.9 41.4-28.6 53-6.4 6.2-17 9.2-25.8 7.5-16-3.2-30.9-11.6-44.1-21.2-7.7-5.7-14.8-14-16.7-23.4-3.1-15.4-1.2-31.8 2.4-47.1 4.1-17.3 15-22 30.9-21.8 16.9 0.2 33.7 2.4 50.5 3.6 0.8 3.5 2.1 7.3 3.4 11 1 2.8 2 5.7 3.3 8.5q0.2 0.6 0.5 1.1c-12.7 9.8-27.9 18.9-40.7 28.7zm2.8-121.2c12.7 11 25.4 22 38.1 33.1-3.6 7.6-5.7 15.5-6.6 23.6-17.4 4.3-44.4 5.4-60.2 0.8-8.5-2.5-16.3-10.3-19.1-18.8-5-15.5-5-32.6-3-48.8 1.2-9.5 5-19.8 12.2-26.1 12-10.2 27.2-16.6 42.3-20.8 17.2-4.9 26.6 2.3 34.2 16.3 8 14.8 14.3 30.5 21.5 45.8-2.7 2.5-5.4 5.4-8 8.4-2 2.2-4 4.5-5.8 7-0.3 0.3-0.5 0.6-0.8 0.9-14.7-6.3-30.1-15.1-44.8-21.4zm110.3-62.8c-3.2 16.5-6.3 33-9.5 49.6-8.4 0.7-16.3 2.8-23.7 6.1-12.5-12.9-26.9-35.7-30.9-51.7-2.2-8.6 0.7-19.2 6.6-25.9 10.9-12.2 25.8-20.7 40.8-27.1 8.8-3.7 19.6-5.6 28.6-2.5 14.9 5.2 28 15.2 39.3 26.2 12.8 12.3 11.3 24.1 3 37.6-8.8 14.5-19.2 27.8-28.8 41.6-3.5-1.1-7.4-1.9-11.3-2.7q-4.3-0.9-9-1.5-0.6-0.1-1.1-0.2c-2-15.9-2.1-33.6-4-49.5zm104.5 60.6c-15.7 6.2-31.3 12.4-47 18.5-5.1-6.7-11.2-12.3-17.9-16.8 4.3-17.4 15.8-41.8 27.2-53.7 6.2-6.4 16.7-9.7 25.5-8.2 16.1 2.7 31.2 10.7 44.7 19.9 7.8 5.5 15.2 13.6 17.4 22.9 3.5 15.3 2.1 31.8-1.1 47.2-3.7 17.4-14.4 22.4-30.3 22.6-16.9 0.3-33.7-1.4-50.6-2.1-0.9-3.5-2.2-7.2-3.7-10.9-1-2.8-2.2-5.7-3.5-8.4q-0.3-0.6-0.5-1.1c12.4-10.2 27.4-19.7 39.8-29.9zm1.7 124.4c-13.2-10.6-26.2-21.2-39.3-31.8 3.3-7.7 5.1-15.7 5.7-23.8 17.3-4.9 44.2-6.9 60.2-2.9 8.6 2.2 16.7 9.7 19.7 18.1 5.6 15.3 6.2 32.5 4.7 48.7-0.8 9.6-4.2 19.9-11.3 26.4-11.5 10.7-26.6 17.6-41.5 22.4-17 5.4-26.6-1.4-34.7-15.2-8.5-14.5-15.4-30-23.1-45 2.6-2.5 5.2-5.5 7.7-8.6 1.9-2.3 3.8-4.7 5.5-7.2q0.4-0.5 0.8-1c14.9 5.8 30.6 14.1 45.6 19.9zm-113.1 64.9q4.9-24.8 9.8-49.6c8.4-0.6 16.4-2.7 23.8-5.9 12.3 12.9 26.7 35.8 30.5 51.8 2.1 8.7-0.8 19.3-6.8 26-10.9 12-25.9 20.5-40.9 26.8-8.9 3.7-19.6 5.5-28.7 2.2-14.8-5.2-27.9-15.3-39.1-26.3-12.7-12.5-11.1-24.2-2.7-37.8 8.9-14.3 19.4-27.5 29.1-41.3 3.5 1.1 7.3 1.9 11.2 2.7 2.9 0.7 5.9 1.2 9 1.6q0.6 0.1 1.2 0.2c1.8 15.9 1.8 33.7 3.6 49.6z"/>
	<path id="БРЕЗОВО" fill-rule="evenodd" class="s1" d="m104.1 349h-44.3v-103.5h78.3v20.1h-51.6v19.3h17.6q19.7 0 30.8 8.1 10.2 7.4 10.2 24 0 16.5-10.2 23.9-11.1 8.1-30.8 8.1zm-17.6-18.2h15.7q8.4 0 12.1-3.1 4.1-3.4 4.1-9.8 0-6.3-4.1-9.7-3.6-3.1-12.1-3.1h-15.7zm81.6 18.2v-103.5h44.3q19.7 0 30.3 8.8 10.6 8.7 10.6 24.9 0 16.3-10.6 25.1-10.6 8.8-30.3 8.8h-17.6v35.9zm41.4-84.2h-14.7v28.9h14.7q7.8 0 12-3.7 4.3-3.8 4.3-10.8 0-6.9-4.3-10.7-4.2-3.7-12-3.7zm62.6 84.2v-103.5h72.1v20.1h-45.4v19.3h42.7v20.2h-42.7v23.7h46.9v20.2zm154.1-55.8q10.5 2.7 15.9 9.4 5.5 6.6 5.5 17 0 15.4-11.8 23.4-11.8 8-36.5 8-10.2 0-18.3-1.3-8.1-1.3-15.6-3.8v-20.6q7.5 3.7 14.9 5.6 7.4 1.9 18 1.9 11.3 0 16.9-3.7 5.7-3.6 5.7-10.5 0-7.1-5.8-10.7-5.8-3.6-19.2-3.6h-12.7v-17.2h13.3q12.1 0 17.1-3.2 4.9-3.2 4.9-9.6 0-6-4.8-9.2-4.8-3.3-14.2-3.3-9.9 0-18.4 1.8-8.5 1.6-13.3 4v-19.6q4.6-1.6 14.8-3 10.3-1.4 16.8-1.4 22.7 0 34.2 6.6 11.6 6.6 11.6 19.9 0 9.1-4.8 14.9-4.8 5.8-14.2 8.2zm91.1-49.6q24.9 0 39.1 14.3 14.1 14.3 14.1 39.4 0 25.1-14.1 39.4-14.2 14.3-39.1 14.3-24.9 0-39.1-14.3-14.2-14.3-14.2-39.4 0-25.1 14.2-39.4 14.2-14.3 39.1-14.3zm0 19.3q-12.2 0-19 9-6.7 9.1-6.7 25.4 0 16.3 6.7 25.3 6.8 9 19 9 12.2 0 19-9 6.7-9 6.7-25.3 0-16.3-6.7-25.4-6.8-9-19-9zm140.6 30.7q8.6 2.5 13.3 9.2 4.7 6.7 4.7 16.5 0 15-10.1 22.3-10.1 7.4-30.8 7.4h-44.3v-103.6h40.1q21.5 0 31.2 6.6 9.7 6.5 9.7 20.8 0 7.6-3.5 12.9-3.6 5.3-10.3 7.9zm-40.5 37.2h15.7q8 0 12-3.4 4.1-3.4 4.1-10.3 0-6.7-4-10-4-3.4-12.1-3.4h-15.7zm0-45.3h14.8q6.3 0 9.5-2.7 3.3-2.8 3.3-8.2 0-5.4-3.3-8.1-3.2-2.9-9.5-2.9h-14.8zm128.8-41.9q25 0 39.1 14.2 14.2 14.3 14.2 39.5 0 25.1-14.2 39.4-14.1 14.3-39.1 14.3-24.9 0-39.1-14.3-14.1-14.3-14.1-39.4 0-25.2 14.1-39.5 14.2-14.2 39.1-14.2zm0 19.3q-12.2 0-18.9 9-6.7 9-6.7 25.4 0 16.3 6.7 25.3 6.7 9 18.9 9 12.3 0 19-9 6.7-9 6.7-25.3 0-16.4-6.7-25.4-6.7-9-19-9z"/>
</svg>