<svg version="1.2" xmlns="http://www.w3.org/2000/svg" viewBox="0 0 1053 1444" width="1053" height="1444">
	<title>Etropole-pdf</title>
	<style>
		.s0 { fill: #a51c21 } 
		.s1 { fill: #e5db29 } 
		.s2 { fill: #2d4b39 } 
		.s3 { fill: #e5db29;stroke: #fff200;stroke-width: 1.1 } 
	</style>
	<path id="Path 1" class="s0" d="m856 0.4c-5.2 129.9 64.6 186.1 196.4 181-26.5 30.8-29.4 56.2-32.2 102.8q0 351.3 0 702.5c-2.9 251.3-256.9 459.5-498.1 457.1-237.1-2.4-486.8-209.6-489.7-457.1q0-351.2 0-702.5c-3.2-44-6.3-69.6-32.2-102.8 131.8 5.1 201.5-51.1 196.3-181 208.4 76.4 451.1 76.4 659.5 0z"/>
	<path id="Path 2" class="s1" d="m839.3 25.5c-1.8 112.6 55 163.9 178.2 174.9-20 36.3-12.3 53.8-14.6 99.1q0 339 0 678c-2.8 242.5-247.9 443.4-480.7 441.1-228.7-2.3-469.7-202.3-472.5-441.1q0-339 0-678c-1.6-41.4-4.9-66.8-17.3-99.2 115.8-8.7 178.1-58.3 182.2-172.7 200.5 74.2 423 72.1 624.7-2.1z"/>
	<path id="Path 3" class="s0" d="m818.5 54.4c12.6 101.5 65.3 145.5 168 164.2-3.9 40 0 62.3-0.4 95.7q0 327.1 0 654.3c-2.6 234-239.2 427.9-463.8 425.7-220.7-2.3-453.3-195.3-456-425.7q0-327.2 0-654.3c-1.3-35.5 1.2-65-10.8-96.2 104-13.1 162.9-59.1 176.4-163.9 195.6 65.6 394.1 65.7 586.6 0.2z"/>
	<path id="Path 4" class="s2" d="m526.4 103.4l-4.1 1290.8c-220.7-2.2-453.3-195.2-456-425.6q0-327.2 0-654.3c-1.3-35.5 1.2-65-10.8-96.2 104-13.1 162.9-59.1 176.4-163.9 97.8 32.8 196.3 49.2 294.5 49.2z"/>
	<path id="Path 5" class="s3" d="m510.6 96.4h31.4v1307.6h-31.4z"/>
	<path id="Path 6" class="s1" d="m59.7 639.3h933.2v204h-933.2z"/>
	<path id="Path 7" class="s0" d="m66.4 660h919.8v162.6h-919.8z"/>
	<path id="Path 8" fill-rule="evenodd" class="s1" d="m170.8 795.5h-75.4v-111h75.4v21.5h-48.7v19.1h45.2v21.5h-45.2v27.4h48.7zm104.2-89.5h-32.6v89.5h-26.9v-89.5h-32.6v-21.4h92.1zm102.3 13.6q0 7.4-2.4 14.5-2.5 7.1-7.1 12-6.2 6.5-13.9 9.9-7.6 3.3-19.1 3.3h-16.7v36.2h-26.9v-111h44.3c6.6 0 12.2 0.6 16.8 1.8 4.5 1.3 8.5 3.1 12 5.5q6.3 4.4 9.7 11.3 3.3 6.8 3.3 16.5zm-27.8 0.6q0-4.7-2.4-8.1-2.4-3.4-5.5-4.7-4.2-1.8-8.2-2-4-0.1-10.7-0.2h-4.6v33.3h7.7q6.9 0 11.3-0.9 4.5-0.9 7.5-3.6c1.7-1.6 3-3.5 3.7-5.7q1.2-3.3 1.2-8.1zm148.3 19.8q0 26.6-14.3 42.2-14.3 15.6-39.5 15.6-25.2 0-39.5-15.6-14.2-15.6-14.2-42.2 0-26.7 14.2-42.2 14.3-15.6 39.5-15.6 25.1 0 39.4 15.6 14.4 15.5 14.4 42.2zm-35.7 28.1q3.9-5 5.9-11.9c1.2-4.6 1.8-10 1.8-16.2q0-10-2.1-17c-1.5-4.7-3.4-8.5-5.7-11.3q-3.6-4.5-8.2-6.5-4.7-2.1-9.7-2-5.2-0.1-9.7 1.9-4.5 1.9-8.3 6.4c-2.3 2.8-4.2 6.6-5.7 11.5q-2.2 7.3-2.2 17c0 6.7 0.7 12.3 2.1 16.9 1.5 4.7 3.3 8.4 5.7 11.4q3.5 4.4 8.2 6.5 4.7 2.1 9.9 2.1 5.1 0 9.8-2.2 4.7-2.1 8.2-6.6zm149.8 27.4h-26.9v-89.5h-39.8v89.5h-26.9v-111h93.6zm128-55.4q0 26.5-14.3 42.1-14.3 15.6-39.5 15.7-25.1-0.1-39.4-15.7-14.3-15.6-14.3-42.1 0-26.8 14.3-42.3 14.3-15.5 39.4-15.5 25.1 0 39.4 15.5 14.4 15.5 14.4 42.3zm-35.6 28.1q3.9-5.1 5.8-12c1.2-4.6 1.9-10 1.9-16.2q0-10-2.2-17c-1.4-4.6-3.4-8.4-5.7-11.3q-3.6-4.5-8.2-6.5-4.7-2-9.7-2-5.1 0-9.7 1.9-4.5 2-8.3 6.5c-2.3 2.7-4.2 6.6-5.7 11.5q-2.2 7.3-2.2 17 0 9.9 2.2 16.9c1.4 4.6 3.3 8.4 5.6 11.3q3.5 4.4 8.2 6.5c3.1 1.4 6.4 2.1 9.9 2.1q5.2 0 9.9-2.1 4.7-2.1 8.2-6.6zm150.8 27.3h-26.9v-89.5h-29.8q-0.4 7.3-0.6 11.5c-0.2 2.8-0.3 6.5-0.6 11-0.7 10.1-1.6 18.5-2.8 25.3-1.2 6.9-2.6 12.5-4.2 16.9q-2.4 6.7-5 11c-1.8 2.8-3.6 5.1-5.3 6.9-2.3 2.3-5.2 4.2-8.6 5.6q-5.1 2.1-10.8 2.1-3.5 0-7.3-0.3-3.7-0.3-4.8-0.5v-24.8h1q0.6 0.1 1.4 0.2 0.8 0 1.9 0 3.9 0 5.8-0.5 1.9-0.5 3.4-1.8 5.3-5 7.3-15.9 2-10.8 3-30.3 0.4-7.8 0.6-16.9 0.3-9.1 0.5-20.9h81.8zm102.1 0h-75.5v-111h75.5v21.5h-48.7v19.1h45.2v21.5h-45.2v27.4h48.7zm-239.3-529.3c4.8-4.9 6.3-25.6 6.9-33.2 1.1-16.5 0.5-17.7 10.9-29.2 2-2.2 16.3-21.4 16.4-22.9-5-7-11.7 2.5-14.5-10.5-2.3-10.9-5.5-5.2-1.4-19.3 2.7-9.4-3.7-13.7 4-18.5 4.9-3.1 16.1-3.1 21.9-2.3 18 2.5 10.7 25.7 10.6 33.8-0.1 10.7 16.6 9.6 25.1 24.3l0.4 6.8 2.5 6.2-0.8 0.6-3.9 0.3-0.2 4.6-4.8-0.3v5h3.1l1.4 0.2 2.4-1.8 1.8 1.5 3.8 3.2 10.6 147.1 1.8 14.6 1.4 1-0.1 3.9v6.8c0 5.9-2.5 9.6-2.4 15.7l-1.3 1.9-5 2.5-3.2 1.8 0.1 2.6v6.2l0.1 2.5 5.5 8.8 1.9 5c2.3 8.6 16.5 10 23.1 16.3-0.3 2.9 0 1.7-3.5 2l-2.2 9.8-3.8 1.1-0.2 0.7 3.4 1.8c-4.7 0.7-14.4 1.3-16.2 5.9v1.8c0 3.1-0.5 2.6 1.2 1.9h0.7l0.1 1.9 3 1.2c3.3 2.3 10.6-0.6 14.1-2.2l0.6-2.8 0.9 2.1 1.8-1.6c-0.9-2.6-1.2-5.5 2-6.6l0.1 5.5 3-0.2-1.9-4.8 1.9-1.9 5.7 4.4c6.1 9 5.9 3.8 8.3 18 1.2 7.3-2 19 2 23 9 8.9 5.5 37.5 12.8 39.8l2.5 39.4c-9.7 0-19.5 0.8-29.4 1.3-8.9 0.4-19.1 3.2-27.5 3.1l-1.3-1.2c-4.6-7.9-35.6-4.4-43.7-1.2-11.4 4.5-28.4-0.8-44.9 3.2-11.3 2.8-35.1 2.4-44.9-4.4-11.9-8.1-31.9 5.9-40.9-1-4.8-6 4.1-7.5-8.9-14.3-4-2.1-11.1-5.4-15.1-8v-9.4l1.6-16.9c3.5-4.1 1.9-5.2 8.3-5.8l8.9-28c15.3-11.2 3.5-14.8 4.7-24.7 1.1-9.9 9.5-18.5 18.4-18.5l0.1 12.1c9.3 3 14.9-33.3 20.5-38.5 6.2-5.5 28.5-22.7 31.8-27l-2.1-1 9.4-21.5 1.7 0.7c-1.9-5.7-11.2-13.1-11.9-20-0.7-7.4-0.6-22.7-0.6-30.7v-26.3l1.8-9.4c7.8-4 26.3-5.3 26.4-17.6l-2.5-1.8h-4.5c-3.5 2.8-6.9 4.7-9.8 7.7-5.7 5.8-7.8 2-12.1 0.5-2.6-10.1 5.4-20 12.1-26.8zm128.1 291c0-3.8-0.6-7.2-3.7-9.4h-1.4c-1 0-0.6 0-1.3 0.4l-1.3 7.1 0.2 4.4 0.1 4.3 1.3 1.2 4.8 0.1c0.6-3.7 1.3-3.5 1.3-8.1zm-31.1-2.5l-0.2-5.7c0-7.3-5.1-16.2-12.5-16.2-0.3 1.5-0.6 1.9-0.6 3.7 0 1.7 0.5 4.7 1.9 5.7 2 1.9 1.9 2 1.9 5.6v1.9c0 9.1-5 8.5-0.2 20.8l3.6 1.9 3.3 0.4 1.9-2 0.1-2.3v-1.3-1.3l-0.6-1.2zm-31.5-37.1l-1.3 0.1-3-2c-4.5 1.3-8.4-0.1-10.8 3.9l3 6.3h2.7 1.3l10-0.8 1.2-0.5h1.8l-1.3-5.5-2.4-0.7zm41.3-12.4v2.5c1.4 5.2 6 4.7 10.6 7.6l2.8-2.3-0.3-1.6c0-1.9-1-4.6-1.6-6.5l-1.5-0.4-1.2-0.6c-3.3-2.9-5.9-0.6-8.8 1.3zm-48.1-16.2l0.4 14.6 6.4 3.4 0.4-0.7c4.2-4.1-0.4-14.7-3-18.6l-2.5-0.1zm2-40.1l-0.6 0.7 0.5 7.6c19.1 14.3 2 12.3 7.2 25 1.1 2.6 11.2 23.4 12.5 25.1l6.7 0.3c4.4-15.5-8.6-20.2-10.4-27.3-0.8-3.2 2.9-24.7-7.4-27.7l-2.5-1.9zm6.7-48.9c-1.9 0-3.4 0.4-4.9 1.4l-0.1 1.8c-0.2 2.7 1.7 5.4 3.7 6.2h7.6l1.3 0.2 1.2-0.8 1.3-0.8-0.7-3.6c-0.9-3.4-6.2-4.4-9.4-4.4zm0.6-15l0.3-1.4-5.3-7.6-3.3 1.2c1.2 9.3-0.4 9.6 6.6 14.2l1.7-3.3zm-16.9-75.1l-0.5 7.4 3.1 1.8 15.1 2.5 0.3-0.8 0.2-4c-3.1-4.5-9-8.7-14.3-9.2zm6.3-31.2c4.2-2.9-2.5-17.4-1.9-23.2 0.3-1.9 2.6-22.1-6.3-16.3-7.7 5.1 0.5 44.8 8.2 39.5zm-15.5-67.5c-0.6 5.1 1.4 5.6 4.3 9.1-0.9 6.8-3.3 18.2 8.7 15.1 1.8-7.2-3.9-25.5-11.8-25.6zm-4.3-4.6l5.2 0.5c4-5.2 6.3-12.3-0.4-16.7-3.6 0.3-6.3 5.1-5.7 9.4zm-77.9 356.9v-2.6c-2.8-3.6-2.6-5.5-7.5-5.5-0.2 5.2-5.7 21.7 6.2 21.9l-0.7-8.2c2-1.6 1.9-2.6 2-5.6z"/>
	<path id="Path 9" fill-rule="evenodd" class="s1" d="m236.1 595.6l-0.8-11.7 0.2-33.2 2.2-30.1-0.3-13.7-1.3-15.7 1.2-138.4 0.7-0.3 21.9-0.9 74.5-0.4 18.2 3.5 5 134 4.5 106.4h-0.8l-77.6 0.7zm110.8-33.7v-3.1l-3.2-4.9-9.2 0.7c-1.7 1.6-2 2.4-2 4.8 0 2.4 0.4 2.2 0.6 4.4l13.2 1.3c0.8-1.9 0.6-0.9 0.6-3.2zm-30 8.9l6.9 0.9-6.8 4 0.2 0.9 2.8 2.9 3 0.9c5.5 1.2 12.5-0.3 12.6-7.2zm-35.7-117.2l0.1 3-0.2 0.7 7.4 2.6 0.2-0.6c0.4-1.6 0.7-2 0.7-3.8v-5l-0.3-2.3-2.9-3.4-3 0.2c-2 2.3-2 2.3-2 5.5zm-15.7-58.4l14.5 2.1c1.8 0.2 1.8-0.1 3.1-0.7-0.6-5.9-5.1-10-11.9-10h-0.6c-2.2 0-3.3 0-4.9 1.4zm-0.5-12.6l7.5 0.2c0-7-2-10.6-9.4-10.6h-7.5c0 5.3 0.8 10.6 7.5 10.6zm25.8-249.1c2.1 2.1 7.4 29.6 12.3 39.1 1.9 3.9 16.4 32.2 16.2 33.6l-9.2 0.1v54.4h-36.3l-0.1-54.4-0.6-0.4-7.4-0.4-0.9-0.5 7.7-14.4zm-1.9 76.6h-8.8v27.5h8.8zm5 27.6h8.7v-27.6h-8.7zm-38.3 83.8c9.1-0.3 19.8-0.5 28.6-0.5h47.2c10.5 0 8.1-1.6 14.4 6.2l14.4 13.8-126.4 1.9 5-9.4c5.9-4 7.3-11.6 16.8-12zm1.9-46.3c6.1-8.6 4.4-7.4 15.1-7.4h40 9.2l16.9 20.3-90.5 0.3c0.6-3.1 7.1-10 9.3-13.2zm-3.1 20.7h77v17.6h-77zm423.1 883.5h178.7c-12.4 11-56.3 34.7-73.3 44.8-12.2 7.2-25.4 14.5-37.5 21.9-23.5 14.5-17.3 12.8-46 12.8h-21.3l-109.5-0.8-0.7-69.3 109-0.1 0.6 0.1z"/>
	<path id="Path 10" fill-rule="evenodd" class="s1" d="m907.1 1130l6.7 6.2-1 1.7-8.1 3.5-0.2 20-0.4 1-174.8 3.2-50.1 0.1h-18.1l-0.1 8.3-93.8 1.2v-27.6l-1.9 1.5-6.6-7.7 1.6-1.4c3.1-3.6 19.5-11.9 24.9-15.8 19.5-14.3 4-18.8 10.3-29.8l14.3-2.4 3.5-143.7 0.7-0.4 10.8-0.2 6.4 145.4 62.5-0.1-0.1-0.6v-8.8h0.7c6.9 0 28.8 3.4 28.8-4.3v-5.1c0-7.3-4.2-5-11.9-5-5.7 0.1-11.3 0-16.9 0v-13.7h27.5v-10.7h-28.8v-14.4h28.8v-12.5l-29.4-0.7v-0.6c0-18.1-0.7-9.3 5.1-14.8 1.6-1.5 2.4-13.9 2.4-17.1h152.7v0.6l0.1 15.9 8.9 0.6 0.1 15.5h-24.3c-1.2 4.1-1.6 11.9 2.7 11.9h21.9v15h-0.6-23.4l-0.4 10.6h0.6l24.6 0.1 0.5 14.3h-25.7v12.5l25.7 0.1c0 7.1 0 14.2-0.1 21.3-0.2 13 1.7 7.9 8.8 12.5zm-328.6 28.8h72v-0.7-15.6h-72zm55.7-52.6h-7.5c-7.3 0-3.1 9.3 4.6 13 5.4 2.6 9.4 6 15.4 8.3 9.3 3.5 23.7 16.2 35.6 8.7v-11.8l-0.7 0.6-23.6-6.9-18.1-9.4c-0.8-2.1-3.2-2.5-5.7-2.5zm128.3-21.9h22v-15h-22zm0-26.3h21.3v-13.8h-21.3zm0-27.6h21.3v-13.1h-21.3zm-65 110.2v16.3h72.6v-15.7l-0.7-0.6zm93.9-4.3c4.1 1.4 19.2-7.8 24.4-10.1l7.5-4.4 6.3-3.1v-25.1h-14.6l-2.3 22.6c-20.7 5-3.8 10.8-29.8-3.4-16.1-8.8-22-6-40.3-6l-0.5 0.8 26.8 16.1c2.5 0.2 19.2 11.5 22.5 12.6zm26.9 18.1h72v-16.3h-72zm-170.7-247.7c5.4-0.4 4-6.9 13.8-8.2 6.4-0.8 13.8 0.4 19.7 2.5 11.4 4.2 6.7 0.5 18.3 0.4l3.3 2.4 1.7 2.7c1 9 2.3 3.6-3.1 11.2l-6.3 2.5-68.2 1.9v-2.6l5-6.8c6.5-7.6 7.8-5.4 15.8-6zm95-1.5c7.7-5.1 43.4 0.5 38.1 9.3l0.2 1.5-41.4 4.9h-11.9c-2.6-7 7.4-13.4 14.4-15.1zm-414.9-6.5c0.6-0.6 43.1-19.5 44.8-19.8 5.7-0.7 33.7 22.9 35.9 28.5l-25 18.8-8 5.9 5.1 7.8 15.4-11.2c62.3-36.9 40.5-32.8 98 12.5l-1.3 430.1c-132.6-4.3-249.7-76.2-331.4-182.9-37.9-49.1-70.3-119.5-80.1-192.6 19.4-12.3 37.8-25.8 56-39.8 34.1-26 14.1 26.5 66-4.7l11.1-4.3 1 0.7-22.4 135.1 0.8 0.2c6.2 2.3 17.3 1 24.5 1 9.4 0 18.5-2.5 22.6 3.8 0 10.5-0.6 51.9 2.5 58.8l12.4-0.4 0.7-61.7 5-0.5 13.8-0.1 13.7 1.7 1.3 9.7 2.9 168 181.2-2.2v-1.1c2.6-16.5-1.5-64.7-1.9-84.6-0.5-22.8-0.2-55.9-11.4-76.3-22.7-41.2-80-58-120.7-33.9l-11.9 9.4-22.6 20.1-0.6-0.7c0-18.6-4.8-30.5 13.2-39.4 2.5-5.2 14.4-15.4 19.4-25.1 3.5-6.8 9.8-27 10-34.4l0.6-5.6v-5.7c0-9-5.3-42.8-9.4-49.4zm-35 364.6l0.4 1v-1zm105.5-146.3c14.4-1.4 22.6-6.7 33 3.8 4.7 4.8 18.8 15.7 21.7 19.7 3.5 4.9-12.1 20.2-17.5 21.1l-11.1-9.6-0.6-0.3-26.8 28.4v0.7l32.4 28.3 0.6 0.7-11.5 14.7-1.5-0.5-34.5-28.3h-0.6l-30.6 31.9-0.8 0.3-14.3-12-0.5-1.1 29.9-32.9-29.3-24.4-0.7 0.1-8.8 11.1-0.9 0.6-18.9-17.4 0.8-0.9c0.2-2.1 11.9-17.1 13.9-19.3 8.9-9.5 5.4-13.3 19.3-13.3h14.4l6.8 0.2 1.3 1.5-13.8 19.6 29.6 26.3 0.7-0.4 26.1-29.6c-3.1-7.7-26.2-17.4-7.8-19zm-156.2-226.6c2.5 0.7 8.4 18.9 10.4 30.5 0.4 3 0.7 7.2 0.3 8.4-2 5.8-8 40.6-8.8 42l-5.3 95.9 0.4 0.5h-26.7l-1.2-0.6 7.1-40.1zm17.3 101.8l9.6 10.4c0.7 2.7 11.3 16.7 13.7 20.1 3.7 5.4 10.4 19.7 6.3 26.2-15.7-15.5-30-33-29.6-56.7zm4.7-38.5c2.1 0.7 13.6 19.5 16.2 23.2 9 12.8 8.7 14.9 8.7 30.7l-1.2 0.8-18.2-27.1c-3.5-6.8-13.9-18.1-5.5-27.6zm52.6 63.5c4.6-5.2 10.1-15 16.2-19 0.1 23.7-14.5 32.1-25.1 48.2l-2.7-0.6 0.3-0.6-0.7-5.7c0-19.3 2.1-11.2 12-22.3zm11.9-57.6c6.3 24.8-1.9 14.1-4.5 24.8l-18.9 22.4-0.9-0.5 2.3-21.2zm-23.9-20.2c0.5-2.9 9.8-11.8 12.5-12l0.9-0.4 6.3 14-7.3 10.8-12.5 12.5c0-5.6-0.7-20.4 0.1-24.9zm-15.1-38.9c0.2 10.2 3.2 24.5-5.7 11.4-6.1-9-10.1-8.6-5.5-19.5 1.5-3.6 6.7-19 9.3-20.1 0.2 0.4 1.9 25.8 1.9 28.2zm13-28.8h0.7c1.6 1 7.3 19.8 8.4 23.6 3.4 12.2 7 11.2-3.3 21.4l-5 1.9zm-18.7 192.8l0.7 1.6-11.3 1-11.9-0.1-5.2-0.1-0.4-28.1 0.1-6.3 0.7-0.2zm-10.9-142.2l0.8-0.4 10.1 14.9 5 6.3v2.5 12.5c0 2.8 0 3.3-1.3 5.1-4.2-7.4-21.5-27.3-15.6-35.8z"/>
</svg>