<svg version="1.2" xmlns="http://www.w3.org/2000/svg" viewBox="0 0 342 398" width="342" height="398">
	<title>Harmanli-pdf</title>
	<style>
		.s0 { fill: none;stroke: #000063;stroke-width: .4;stroke-dasharray: 12000,12000 } 
		.s1 { fill: #db282a } 
	</style>
	<path id="Path 1" class="s0" d="m170.1 398v-396.9"/>
	<path id="Path 2" fill-rule="evenodd" class="s1" d="m170.1 22.4c39.4 0 75.2 16.2 101.1 42.3 25.9 26.1 42 62.1 42 101.8v66.2c0 39.6-16.1 75.7-42 101.8-25.9 26.1-61.7 42.2-101.1 42.2-39.4 0-75.2-16.1-101.2-42.2-25.9-26.1-42-62.2-42-101.8v-66.2c0-39.7 16.1-75.7 42-101.8 26-26.1 61.8-42.3 101.2-42.3zm0 2.8c-38.7 0-73.7 15.9-99.2 41.5-25.4 25.6-41.1 60.9-41.1 99.8v66.2c0 38.9 15.7 74.2 41.1 99.8 25.5 25.5 60.5 41.4 99.2 41.4 38.6 0 73.7-15.9 99.1-41.4 25.4-25.6 41.2-60.9 41.2-99.8v-66.2c0-38.9-15.8-74.2-41.2-99.8-25.4-25.6-60.5-41.5-99.1-41.5z"/>
	<path id="Path 3" fill-rule="evenodd" class="s1" d="m172.9 57.9q0 0 0 0 1.4 0 2.8 0.1 0 0 0.1 0 1.4 0.1 2.7 0.2 0.1 0 0.1 0 2.8 0.2 5.5 0.6 0 0 0 0 2.8 0.3 5.5 0.8 0 0 0 0 1.4 0.3 2.7 0.6l2.7 0.6q1.3 0.3 2.6 0.7 0 0 0.1 0 1.3 0.3 2.6 0.7 0 0 0 0 1.3 0.4 2.6 0.8l2.6 0.9q1.3 0.5 2.5 0.9 0 0 0.1 0.1 1.2 0.4 2.4 0.9 0 0 0.1 0.1 1.2 0.5 2.3 1 0.1 0 0.2 0.1 1.1 0.4 2.2 1 0.2 0 0.3 0.1 0 0 0 0l-15.9 74.1 23.4-70.2q0.8 0.4 1.5 0.9 0.4 0.2 0.8 0.5 0.8 0.4 1.5 0.9 0.4 0.2 0.8 0.5 0.7 0.5 1.4 0.9 0.5 0.3 0.9 0.6 0.7 0.4 1.3 0.9 0.5 0.3 1 0.7 0.6 0.4 1.2 0.8 0.5 0.4 1.1 0.9 0.5 0.3 1 0.7 0.5 0.5 1.1 0.9 0.5 0.4 1 0.8 0.5 0.4 1.1 0.9 0.5 0.4 1 0.8 0.5 0.5 1.1 0.9 0.5 0.5 1 0.9 0.5 0.5 1 0.9 0 0 0 0l-45.7 110.2 54.2-101.5q0.5 0.5 1 1.1 0.3 0.4 0.7 0.9 0.5 0.6 1 1.1 0.4 0.5 0.8 1 0.4 0.5 0.8 1.1 0.5 0.6 0.9 1.2 0.4 0.4 0.7 0.9 0.5 0.6 1 1.3 0.3 0.4 0.6 0.8 0.5 0.8 1.1 1.6 0.2 0.3 0.4 0.6 0.6 0.8 1.1 1.7 0.2 0.2 0.4 0.5 0.5 0.9 1.1 1.8 0.2 0.3 0.3 0.5 0.6 0.9 1.2 1.9 0.1 0.2 0.2 0.4 0.6 1 1.1 2 0.1 0.2 0.2 0.4 0.6 1 1.2 2.1 0 0.1 0.1 0.2l-65.5 109.3 70.6-98.2q1 2.5 1.8 5.1 0.1 0.3 0.2 0.5 0.4 1.1 0.7 2.2 0.1 0.3 0.2 0.7 0.3 1 0.6 2 0.2 0.4 0.3 0.8 0.2 0.8 0.4 1.6 0.2 0.6 0.3 1.2 0.2 0.7 0.4 1.4 0.2 0.8 0.3 1.6 0.2 0.6 0.3 1.1 0.2 0.8 0.3 1.6 0.2 0.6 0.3 1.2 0.1 0.9 0.3 1.7 0.1 0.5 0.2 1.1 0.1 0.9 0.3 1.9 0 0.4 0.1 0.9 0.1 0.9 0.3 1.9 0 0.5 0.1 0.9 0.1 1 0.2 2.1 0 0.3 0.1 0.7 0.1 1.2 0.2 2.4l-59 66.1 59.3-49.8v32.5l-43.3 26.7 43.3-14.4v1.3q0 0.1 0 0.2 0 0.8 0 1.7 0 0.1 0 0.2 0 0.2 0 0.5 0 0.3 0 0.7 0 0 0 0 0 0.1 0 0.2 0 0 0 0.1 0 0.2 0 0.3 0 0.1-0.1 0.1 0 0.2 0 0.3 0 0.9 0 1.9 0 0.1-0.1 0.2 0 0.8 0 1.6-0.1 0.2-0.1 0.3 0 0.1 0 0.3-0.3 4.2-0.9 8.4l-39.1 13.9 36.9-2.7q-0.4 1.8-0.9 3.6 0 0.1-0.1 0.2-0.2 1-0.6 2 0 0.2 0 0.3 0 0.1-0.1 0.2 0 0.2-0.1 0.4 0 0 0 0-0.1 0.1-0.1 0.3 0 0.1-0.1 0.3 0 0.1 0 0.1 0 0-0.1 0.1 0 0 0 0-0.3 1-0.6 2 0 0.1 0 0.1-0.2 0.4-0.3 0.9 0 0-0.1 0-0.6 1.8-1.3 3.6l-37.3 2.8 33.9 5.3q0 0-0.1 0.1-0.3 0.7-0.6 1.4-0.1 0.2-0.2 0.4-0.4 0.7-0.7 1.3-0.1 0.3-0.3 0.5-0.3 0.7-0.6 1.3-0.2 0.3-0.3 0.6-0.3 0.5-0.6 1.1-0.2 0.3-0.4 0.6-0.3 0.6-0.7 1.2-0.1 0.3-0.3 0.6-0.3 0.4-0.5 0.9-0.3 0.4-0.5 0.8-0.3 0.5-0.6 0.9-0.2 0.4-0.5 0.8-0.2 0.4-0.5 0.8-0.2 0.4-0.5 0.8-0.2 0.3-0.4 0.6c-16.7-16.8-41.5-28.9-70-32.9-5.8-24 9.2-46.1 1.1-67.5-8.5-22.6 8.5-32.2 0-56.9-8.5-24.7 8.5-41.3 0-62.4q-0.6-1.5-1.1-3c-5.6-1.3-11.5-2.1-17.5-2.3q0.5 2.6 1.6 5.3c8.5 21.1-8.5 37.7 0 62.4 8.5 24.7-8.5 34.3 0 56.9 7.9 21-6.3 42.6-1.4 66.1q-1.9-0.1-3.7-0.1-3.9 0-7.6 0.2c-5-23.5 9.3-45.1 1.3-66.2-8.5-22.6 8.5-32.2 0-56.9-8.5-24.7 8.5-41.3 0-62.4q-1-2.6-1.5-5-8.4 0.6-16.3 2.7 0.4 1.1 0.8 2.3c8.5 21.1-8.5 37.7 0 62.4 8.5 24.7-8.5 34.3 0 56.9 8.2 21.6-7 43.8-0.9 68-27.2 4.4-50.8 16.2-66.8 32.4q-0.2-0.3-0.5-0.6-0.2-0.4-0.5-0.8-0.2-0.4-0.5-0.8-0.2-0.4-0.5-0.8-0.3-0.4-0.5-0.9-0.3-0.4-0.5-0.8-0.3-0.5-0.6-0.9-0.1-0.3-0.3-0.6-0.3-0.6-0.7-1.2-0.1-0.3-0.3-0.6-0.3-0.6-0.6-1.1-0.2-0.3-0.3-0.6-0.4-0.6-0.7-1.3-0.1-0.2-0.2-0.5-0.4-0.6-0.7-1.3-0.1-0.2-0.2-0.4-0.4-0.7-0.7-1.4 0-0.1 0-0.1l33.9-5.3-37.4-2.8q-0.7-1.8-1.3-3.6 0 0 0 0-0.2-0.5-0.3-0.9 0 0 0-0.1-0.4-1-0.7-2 0 0 0 0 0-0.1 0-0.1 0 0 0-0.1-0.1-0.2-0.2-0.3l-0.9-3.2q0-0.1-0.1-0.2-0.4-1.8-0.9-3.6l36.9 2.7-39.1-13.9q-0.6-4.2-0.9-8.4 0-0.2 0-0.3 0-0.1 0-0.3-0.1-0.8-0.1-1.6 0-0.1 0-0.2-0.1-1-0.1-1.9 0-0.1 0-0.3 0 0 0-0.1 0-0.1 0-0.3 0-0.1 0-0.1 0-0.1 0-0.2 0 0 0 0 0-0.4-0.1-0.7v-0.7q0-0.9 0-1.7 0-0.1 0-0.2v-1.3l43.3 14.4-43.3-26.7v-32.5l59.4 49.8-59-66.1q0-1.2 0.2-2.4 0-0.4 0-0.7 0.1-1.1 0.3-2.1 0-0.4 0.1-0.9 0.1-1 0.2-1.9 0.1-0.5 0.2-0.9 0.1-1 0.3-1.9 0.1-0.6 0.2-1.1 0.1-0.8 0.3-1.7 0.1-0.6 0.2-1.2 0.2-0.8 0.3-1.6 0.2-0.5 0.3-1.1 0.2-0.8 0.4-1.6 0.1-0.7 0.3-1.4 0.2-0.6 0.3-1.2 0.2-0.8 0.5-1.6 0.1-0.4 0.2-0.8 0.3-1 0.6-2 0.1-0.4 0.2-0.7 0.4-1.1 0.7-2.2 0.1-0.2 0.2-0.5 0.9-2.6 1.9-5.1l70.6 98.2-65.6-109.3q0.1-0.1 0.2-0.2 0.5-1.1 1.1-2.1 0.1-0.2 0.2-0.4 0.6-1 1.2-2 0.1-0.2 0.2-0.4 0.5-1 1.1-1.9 0.2-0.2 0.3-0.5 0.6-0.9 1.2-1.8 0.1-0.3 0.3-0.5 0.6-0.9 1.2-1.7 0.2-0.3 0.4-0.6 0.5-0.8 1-1.6 0.3-0.4 0.7-0.8 0.4-0.7 0.9-1.3 0.4-0.5 0.7-0.9 0.5-0.6 0.9-1.2 0.4-0.6 0.9-1.1 0.4-0.5 0.8-1 0.4-0.5 0.9-1.1 0.4-0.5 0.8-0.9 0.5-0.6 1-1.1l54.1 101.5-45.6-110.2q0.5-0.4 1-0.9 0.5-0.4 1-0.9 0.5-0.4 1.1-0.9 0.5-0.4 1-0.8 0.5-0.5 1.1-0.9 0.4-0.4 0.9-0.8 0.6-0.4 1.2-0.9 0.5-0.4 1-0.7 0.5-0.5 1.1-0.9 0.6-0.4 1.1-0.8 0.5-0.4 1-0.7 0.7-0.5 1.3-0.9 0.5-0.3 0.9-0.6 0.7-0.4 1.4-0.9 0.4-0.3 0.8-0.5 0.8-0.5 1.5-0.9 0.4-0.3 0.9-0.5 0.7-0.5 1.4-0.9 0 0 0 0l23.4 70.2-15.9-74.1q0 0 0 0 0.2-0.1 0.3-0.1 1.1-0.6 2.2-1.1 0.1 0 0.2 0 1.1-0.5 2.3-1 0.1-0.1 0.2-0.1 1.2-0.5 2.4-0.9 0-0.1 0.1-0.1 1.2-0.4 2.4-0.9 0.1 0 0.2 0 2.5-0.9 5.1-1.7 0 0 0 0 1.3-0.4 2.6-0.7 0 0 0 0 1.3-0.4 2.6-0.7 0.1 0 0.1 0 2.6-0.6 5.3-1.2 0 0 0.1 0 2.7-0.5 5.4-0.8 2.8-0.4 5.6-0.6 0 0 0 0 1.4-0.1 2.8-0.2 0 0 0 0 1.4-0.1 2.8-0.1 0 0 0.1 0 1.4-0.1 2.8-0.1 1.4 0 2.8 0.1zm84.7 238.5q-0.3 0.4-0.6 0.8-0.2 0.3-0.4 0.5-0.3 0.5-0.7 0.9-0.1 0.1-0.1 0.2-0.9 1.1-1.8 2.2-0.1 0.1-0.1 0.1-1 1.3-2.1 2.4 0 0.1 0 0.1-2.6 2.9-5.3 5.7-0.1 0.1-0.2 0.1-0.5 0.5-0.9 1-0.2 0.1-0.3 0.2-2.1 2.1-4.3 4-0.2 0.1-0.3 0.3-0.5 0.4-1 0.8-0.1 0.1-0.2 0.2-0.6 0.4-1.1 0.8-0.1 0.1-0.2 0.2-2.4 1.9-4.8 3.7-0.1 0-0.1 0.1-0.6 0.4-1.2 0.9 0 0-0.1 0-2.5 1.8-5.2 3.4 0 0.1 0 0.1-0.6 0.3-1.2 0.7-0.2 0.1-0.4 0.2-0.5 0.3-1.1 0.7-0.1 0-0.2 0.1-1.6 0.9-3.2 1.8-0.5 0.2-0.9 0.5-0.5 0.2-0.9 0.4-0.3 0.2-0.6 0.3-0.5 0.3-1 0.5-0.2 0.1-0.5 0.3-0.6 0.2-1.1 0.5-0.1 0.1-0.2 0.1-1.8 0.9-3.7 1.6-0.3 0.2-0.7 0.3-0.4 0.2-0.9 0.4-0.3 0.2-0.7 0.3-0.4 0.2-0.9 0.3-0.4 0.2-0.9 0.4-0.4 0.1-0.7 0.3-0.5 0.1-0.9 0.3-0.8 0.3-1.6 0.5-0.4 0.2-0.7 0.3-0.5 0.1-1 0.3-0.3 0.1-0.7 0.2-0.5 0.2-1 0.3-0.4 0.1-0.7 0.3-0.5 0.1-0.9 0.2-0.5 0.2-1 0.3-0.4 0.1-0.7 0.2-0.9 0.2-1.8 0.4-0.2 0.1-0.4 0.1-0.6 0.2-1.2 0.3-0.4 0.1-0.8 0.2-0.5 0.1-1.1 0.3-0.3 0-0.7 0.1-0.5 0.1-1.1 0.2-0.3 0.1-0.7 0.2-0.6 0.1-1.2 0.2-0.7 0.1-1.3 0.2-0.5 0.1-0.9 0.2-0.5 0-0.9 0.1-0.5 0.1-1 0.1-0.4 0.1-0.7 0.1-0.6 0.1-1.2 0.2-0.4 0-0.8 0.1-0.5 0-1.1 0.1-0.3 0-0.6 0-0.9 0.1-1.8 0.2-0.4 0-0.7 0-0.6 0.1-1.2 0.1-0.4 0-0.7 0.1-0.6 0-1.1 0-0.4 0-0.8 0-0.6 0.1-1.3 0.1-0.3 0-0.6 0-0.9 0-1.8 0-1 0-1.9 0-0.3 0-0.6 0-0.6 0-1.3-0.1-0.3 0-0.7 0-0.6 0-1.1 0-0.4-0.1-0.8-0.1-0.5 0-1.1-0.1-0.4 0-0.8 0-0.9-0.1-1.7-0.2-0.4 0-0.7 0-0.6-0.1-1.1-0.1-0.4-0.1-0.8-0.1-0.6-0.1-1.1-0.2-0.4 0-0.8-0.1-0.4 0-0.9-0.1-0.5-0.1-0.9-0.1-0.5-0.1-0.9-0.2-0.7-0.1-1.4-0.2-0.6-0.1-1.2-0.2-0.3-0.1-0.7-0.2-0.5-0.1-1.1-0.2-0.3-0.1-0.7-0.1-0.5-0.2-1-0.3-0.4-0.1-0.8-0.2-0.6-0.1-1.2-0.3-0.3 0-0.5-0.1-0.9-0.2-1.7-0.4-0.4-0.1-0.8-0.2-0.5-0.1-0.9-0.3-0.5-0.1-1-0.3-0.3-0.1-0.6-0.2-0.6-0.1-1-0.3-0.4-0.1-0.8-0.2-0.5-0.2-0.9-0.3-0.3-0.1-0.7-0.2-0.9-0.3-1.8-0.7-0.3-0.1-0.7-0.2-0.4-0.2-0.8-0.3-0.4-0.2-0.9-0.4-0.4-0.1-0.9-0.3-0.3-0.1-0.7-0.3-0.4-0.2-0.9-0.4-0.3-0.1-0.7-0.2-1.9-0.9-3.8-1.8 0 0 0 0-0.6-0.3-1.2-0.5-0.2-0.1-0.5-0.3-0.5-0.2-1-0.5-0.3-0.1-0.5-0.3-0.5-0.2-0.9-0.4-0.5-0.2-0.8-0.5-1.8-0.9-3.4-1.9-0.1 0-0.2 0-0.5-0.4-1.1-0.7-0.2-0.1-0.4-0.2-3.9-2.4-7.7-5.2-2.5-1.8-4.9-3.7-0.1-0.1-0.2-0.2-0.5-0.4-1-0.8-0.1-0.1-0.2-0.2-0.5-0.4-1-0.8-0.2-0.2-0.3-0.3-2.2-1.9-4.4-4-0.1-0.1-0.2-0.2-0.5-0.5-1-1 0 0-0.1-0.1-2.8-2.8-5.4-5.7 0 0 0-0.1-1-1.1-2-2.4-0.1 0-0.1-0.1-0.9-1.1-1.8-2.2-0.1-0.1-0.2-0.2-0.3-0.4-0.7-0.9-0.1-0.2-0.3-0.5-0.3-0.4-0.6-0.8-0.2-0.2-0.3-0.3c15.4-15.9 38.5-27.4 65.2-31.6 5.8 20.7-4.4 41.2-3 64.9 5.6 1.5 11.4 2.5 17.3 3-2.7-25.6 9.3-47.3 2.2-69.6q3-0.1 6.1-0.1 2.6 0 5.2 0.1c7.2 22.3-5 44.2-2.2 69.9q8.7-0.2 16.9-2c-2-24.2 8.7-45.1 2.8-66.2 26.7 4.2 49.7 15.8 65 31.6q-0.1 0.1-0.2 0.3zm17.7-204.2c2.3 0 4.2 1.9 4.2 4.2 0 2.4-1.9 4.3-4.2 4.3-2.4 0-4.3-1.9-4.3-4.3 0-2.3 1.9-4.2 4.3-4.2zm-209.8-0.2c2.3 0 4.2 1.9 4.2 4.3 0 2.3-1.9 4.2-4.2 4.2-2.4 0-4.3-1.9-4.3-4.2 0-2.4 1.9-4.3 4.3-4.3zm-14.9 33.4q-2.1-0.9-3.4-2.4-1.4-1.4-2-3.3-0.6-1.8-0.4-3.9 0.2-2.1 1.2-4.2 1-2.1 2.5-3.6 1.5-1.5 3.3-2.3 1.8-0.7 3.8-0.6 2.1 0.1 4 1 2 0.9 3.4 2.4 1.4 1.5 2 3.4 0.6 1.8 0.4 3.9-0.1 2.1-1.1 4.2-1 2.1-2.5 3.6-1.5 1.5-3.4 2.2-1.8 0.7-3.8 0.6-2 0-4-1zm37.7-40.6l-4.8 4.5-1-1.1q0.7-1.3 0.5-2.5l-1.2-8.3-7.9-1.7q-0.7-0.2-1.3-0.1-0.5 0.1-0.8 0.4l-1-1.1 6.2-5.7 1 1q-0.6 0.8-0.3 1.2 0.1 0.1 0.5 0.2l4 0.9-0.5-3.7q0-0.4-0.3-0.6-0.4-0.5-1.4 0.1l-1-1 5.1-4.7 1 1.1q-0.9 1.1-0.7 2.8l0.9 6.6 9.4 2.2q1.1 0.2 2.1-0.3l1 1-6.2 5.7-1-1q0.7-0.7 0.3-1.2-0.2-0.2-0.6-0.3l-5.4-1.2 0.8 5.1q0.1 0.7 0.3 0.9 0.2 0.3 0.4 0.2 0.3 0 0.8-0.4 0 0 0.1-0.1zm18.9-22.5l-5.2 3.3 1 4q0.1 0.1 0.1 0.2 0 0.2 0.1 0.3 0.1 0.2 0.5 0.2 0.4 0 0.8-0.2l0.7 1.2-4.8 3.1-0.8-1.2q0.6-0.8 0.3-1.9l-3.6-17 4.2-2.7 14.3 10.4q0.6 0.5 1.7 0.3l0.8 1.2-6.1 3.9-0.8-1.2q0.3-0.2 0.4-0.5 0.1-0.3 0-0.6l-0.2-0.2-0.1-0.1zm-2.4-1.8l-5.1-3.9 1.6 6.2zm10.1-16.6l9.1-3.6q6.6-2.7 8.4 1.9 0.6 1.4 0.5 2.7-0.1 1.3-0.9 2.7-0.8 1.4-2.3 2.9-1.5 1.5-3.9 3.2l-0.2 0.2 1.2 2.9q0.3 0.6 0.6 0.8 0.3 0.1 1-0.1l0.5 1.3-6.8 2.8-0.5-1.4q0.6-0.2 0.7-0.6 0.1-0.3-0.1-1l-5.2-12.6q-0.2-0.6-0.5-0.8-0.4-0.2-1 0zm9.6 7.3l0.2-0.1q1.5-1.4 2.3-2.5 0.8-1.1 1-2.1 0.2-0.9-0.2-1.8-0.5-1.4-1.7-1.6-1.1-0.2-3.1 0.6h-0.2l-0.9 0.4-0.3 0.1zm24.3 2l-5.5 0.7-0.2-1.4q0.5-0.4 0.7-0.7 0.2-0.4 0.2-1l0.6-13.5q0-0.2 0-0.4-0.1-0.8-1.1-0.8l-0.2-1.4 6.8-0.8 3.8 8.5 1.4-9.2 7.1-0.8 0.2 1.4q-0.5 0.1-0.7 0.4-0.2 0.3-0.1 0.7v0.3l3.7 13.3q0.2 0.6 0.4 0.8 0.2 0.2 0.6 0.3l0.2 1.4-6.8 0.9-0.2-1.5q0.6-0.1 0.8-0.3 0.2-0.3 0.2-0.6-0.1-0.3-0.1-0.4l-3-11.7-2 10.7-3.6 0.5-4.4-10-0.2 12q0 0.2 0 0.5 0.1 0.4 0.3 0.5 0.3 0.2 1 0.2zm34.9-7.6l-6.2-0.4-1.6 3.8q0 0 0 0.2-0.1 0.1-0.1 0.2 0 0.3 0.3 0.5 0.3 0.2 0.7 0.3l-0.1 1.4-5.8-0.4 0.1-1.4q1-0.3 1.4-1.3l7.4-15.8 5 0.4 5.1 16.8q0.3 0.8 1.2 1.3l-0.1 1.4-7.2-0.5 0.1-1.4q0.4 0 0.7-0.2 0.2-0.2 0.2-0.5h0.1l-0.1-0.2v-0.2zm-0.8-2.8l-1.7-6.2-2.5 5.9zm31.1-3l6.9 2.4-0.4 1.3q-1.2-0.2-1.6 0.9l-4.5 12.9q-0.2 0.6 0 0.9 0.1 0.3 0.8 0.6l-0.5 1.4-7-2.4 0.5-1.3q0.7 0.1 1-0.1 0.3-0.1 0.5-0.7l2.2-6.2-7-2.3-2.1 6.1q-0.3 0.6-0.1 0.9 0.1 0.3 0.8 0.7l-0.5 1.3-7-2.4 0.5-1.3q0.7 0.1 1 0 0.3-0.2 0.5-0.8l4.5-12.9q0.2-0.6 0.1-1-0.2-0.3-0.8-0.6l0.5-1.4 7 2.4-0.5 1.3q-1.2-0.2-1.6 0.9l-1.4 4.1 7 2.4 1.4-4.1q0.2-0.7 0.1-1-0.2-0.3-0.8-0.6zm25.6 11.4l-3.5 16.4q-0.2 0.8 0 1.3 0.1 0.5 0.5 0.8l-0.7 1.3-6.4-3.5 0.7-1.3q0.6 0.1 0.8 0.1 0.2-0.1 0.4-0.4 0.2-0.3 0.4-1l2.5-11.7-9 8.5q-0.3 0.2-0.5 0.5-0.3 0.6 0.4 1.3l-0.7 1.2-5-2.7 0.7-1.2q0.6 0.1 1 0 0.3-0.1 0.8-0.6l13-11.5zm20.7 21.6l1.2-1.4q0.5-0.5 0.5-0.7 0.1-0.2 0-0.5-0.1-0.3-0.4-0.7l1-1.2 5.6 4.8-1 1.1q-0.4-0.3-0.7-0.3-0.3 0-0.5 0.1-0.2 0.1-0.6 0.6l-8.5 10-0.3 0.3q-0.2 0.2-0.2 0.4-0.1 0.4-0.1 0.6 0 0.1 0.3 0.5 0 0 0.1 0.1 0 0.1 0.1 0.1l-0.9 1-5.7-4.7 0.9-1q0.6 0.4 1 0.3 0.3-0.1 0.9-0.8l4.1-4.7-11.6 2.3-5.7-4.7 0.9-1.1q0.6 0.4 1 0.4 0.3-0.1 0.7-0.5l0.3-0.3 8.4-10q0.5-0.5 0.6-0.7 0-0.2 0-0.5-0.1-0.3-0.5-0.7l1-1.2 5.6 4.7-0.9 1.2q-0.5-0.3-0.8-0.3-0.3 0-0.5 0.1-0.2 0.1-0.6 0.6l-7.8 9.2zm-207.7 47.8q1.5 0.6 2.9 0.8 1.3 0.3 2.5 0 1.1-0.2 2-1 0.9-0.7 1.4-1.8 0.7-1.5 0.5-3-0.3-1.5-1.4-2.7-1.2-1.3-3.1-2.2-1.9-0.9-3.7-1-1.7 0-3 0.7-1.3 0.8-2 2.4-0.7 1.4-0.5 2.9 0.3 1.4 1.4 2.7 1.2 1.3 3 2.2zm5.8 11.2l-3.4 14.4-4.4-1 0.3-1.4q1.7 0.3 2.2-1.6l1.1-5-3-0.7-0.1 0.3q-1.3 2.5-2.6 4.4-1.2 1.8-2.5 2.9-1.3 1.1-2.6 1.4-1.3 0.4-2.8 0-1.4-0.3-2.3-1.2-0.9-0.9-1.2-2.1-0.4-1.9 0.3-5.1l2.3-9.5 1.4 0.3q-0.2 0.6 0.1 0.9 0.2 0.3 0.8 0.5l13.4 3q0.6 0.2 1 0 0.3-0.2 0.6-0.8zm-10 4l-7.4-1.7q-0.4 1-0.5 1.4-0.4 1.9-0.3 3.2 0.2 0.8 0.7 1.3 0.5 0.5 1.3 0.7 1.1 0.3 2.2-0.2 1.1-0.5 2.1-1.7 1.1-1.2 1.9-3zm4.6 28.9l-0.7 7.2-1.4-0.1q0-1.2-1.2-1.3l-13.7-1.2q-0.6 0-0.9 0.2-0.3 0.2-0.5 0.9l-1.4-0.1 0.6-7.3 1.5 0.1q0 0.7 0.3 1 0.2 0.3 0.8 0.3l6.6 0.6 0.6-7.3-6.5-0.6q-0.7 0-0.9 0.2-0.3 0.2-0.5 0.9l-1.4-0.1 0.6-7.3 1.5 0.1q0 0.7 0.2 1 0.3 0.2 0.9 0.3l13.7 1.2q0.7 0 1-0.2 0.3-0.2 0.4-0.9l1.5 0.2-0.7 7.2-1.4-0.1q0-1.2-1.2-1.3l-4.4-0.4-0.6 7.3 4.4 0.4q0.6 0 0.9-0.2 0.3-0.2 0.4-0.9zm-9.3 33.8q-2.2 0-4.1-0.7-1.8-0.8-3.1-2.2-1.4-1.4-2.1-3.4-0.7-1.9-0.7-4.3 0-2.4 0.7-4.3 0.7-2 2.1-3.4 1.3-1.5 3.1-2.2 1.9-0.8 4.1-0.8 2.2 0 4.1 0.8 1.8 0.8 3.2 2.2 1.4 1.4 2.1 3.4 0.7 2 0.7 4.3 0 2.3-0.7 4.3-0.7 1.9-2.1 3.3-1.4 1.5-3.2 2.2-1.9 0.8-4.1 0.8zm-0.1-5.2q1.7 0 3-0.4 1.3-0.3 2.3-1 0.9-0.7 1.4-1.8 0.5-1 0.5-2.2 0-1.7-0.9-2.9-0.9-1.2-2.4-1.9-1.6-0.7-3.7-0.7-2.2 0-3.8 0.7-1.6 0.7-2.4 1.9-0.9 1.2-0.9 2.9 0 1.6 0.9 2.9 0.8 1.2 2.4 1.9 1.6 0.6 3.6 0.6zm9.5 11.9v8.8q0 2-0.2 3.2-0.2 1.3-0.6 2.2-0.6 1.1-1.5 1.7-1 0.6-2.2 0.6-1.5 0-2.5-0.8-1-0.9-1.7-2.8-0.5 1.9-1.2 2.9-1.3 1.9-3.6 1.9-2.7 0-4.2-1.7-0.5-0.6-0.9-1.4-0.3-0.8-0.4-2-0.2-1.1-0.2-2.7v-9.9h1.5q0.1 0.6 0.3 0.9 0.3 0.2 0.9 0.2h13.8q0.6 0 0.9-0.2 0.2-0.2 0.4-0.9zm-7.5 6v2.8q0 1.4 0.7 2.2 0.6 0.8 1.7 0.8 1.2 0 1.8-0.8 0.6-0.8 0.6-2.2v-2.8zm-9.1 0v3q0 3.9 3.3 3.9 1.5 0 2.3-1.1 0.9-1 0.9-2.8v-3zm-2.9 18.5l1.4-0.1q0.1 0.6 0.4 0.9 0.3 0.2 0.9 0.2l13.8-1q0.7 0 0.9-0.3 0.3-0.2 0.3-0.9l1.4-0.1 1.2 16.3-4.5 0.3-0.1-1.5q0.7-0.2 1-0.5 0.4-0.4 0.5-0.9 0.1-0.5 0-1.9l-0.4-5.5-4.3 0.3 0.4 5q0 0.9 0.3 1.3 0.3 0.4 1 0.5l0.1 1.4-5.3 0.4-0.1-1.4q0.8-0.2 1.1-0.7 0.3-0.4 0.2-1.5l-0.4-4.8-6.6 0.4 0.4 6.6q0.1 1 0.3 1.5 0.2 0.6 0.6 0.9 0.4 0.2 1.1 0.3l0.1 1.4-4.6 0.3zm23.5 31.5l1.6 7.1-1.4 0.3q-0.4-1.1-1.5-0.9l-13.5 2.8q-0.6 0.2-0.9 0.5-0.2 0.3-0.1 1l-1.4 0.3-1.6-7.2 1.5-0.3q0.2 0.7 0.5 0.9 0.3 0.2 1 0l6.3-1.3-1.5-7.2-6.4 1.4q-0.6 0.1-0.8 0.4-0.2 0.2-0.2 1l-1.4 0.3-1.5-7.2 1.4-0.3q0.2 0.7 0.5 0.9 0.3 0.2 1 0l13.4-2.8q0.7-0.1 0.9-0.5 0.2-0.3 0.2-0.9l1.4-0.3 1.5 7.1-1.4 0.3q-0.4-1.1-1.5-0.9l-4.3 0.9 1.5 7.2 4.3-0.9q0.7-0.2 0.9-0.5 0.2-0.3 0.1-0.9zm-6 24.8l-2.8-6.1 2.9-1.3 2.8 6.1zm-0.1 11.3l1.2-0.8q0.4 0.6 0.8 0.6 0.4 0.1 0.9-0.3l11.7-7.2q0.6-0.3 0.7-0.7 0.1-0.3-0.2-0.9l1.2-0.8 3.9 6.2-1.2 0.7q-0.5-0.5-0.8-0.6-0.4 0-0.9 0.3l-4.2 2.6 6.9 1.9q0.7 0.2 0.9 0.1 0.4-0.3-0.1-1.3l1.3-0.8 4.1 6.6-1.2 0.7q-0.4-0.4-1-0.8-0.7-0.4-1.4-0.6l-5.5-1.6-4.9 11q-0.3 0.6-0.3 1 0 0.4 0.2 1.1l-1.2 0.8-4.5-7.1 1.2-0.8q0.7 0.8 1.1 0.5 0.2-0.1 0.4-0.4l3.4-7.4-2.8-0.8-4.1 2.6q-0.6 0.3-0.7 0.6 0 0.3 0.2 1l-1.2 0.7zm35.3 15.2l-1.1 1q-0.5-0.4-0.8-0.4-0.3-0.1-0.5 0-0.1 0.1-0.5 0.5l-2.3 2.1 0.2 0.3q0.9 1.8 1.4 2.9 0.5 1.2 0.8 2.1 0.3 0.9 0.5 1.9 0.5 1.9 0 3.4-0.4 1.6-1.7 2.8-3.6 3.3-8.4-1.8l-6.6-7.1 0.9-0.9q0.6 0.4 1 0.4 0.3 0 0.8-0.5l10-9.3-0.7-0.7q-0.7-0.8-1.3-0.8-0.6-0.1-1.4 0.4l-1-1 3.3-3.1zm-7.2 5.1l-5.6 5.2 0.2 0.2 0.6 0.7q1 1 1.4 1.4 0.5 0.3 1.1 0.5 1.3 0.5 2.5-0.5 0.6-0.6 0.9-1.4 0.3-0.8 0.2-1.6-0.1-1.7-1.3-4.5zm8.8 21.7l-4.5-3.3 0.8-1.1q0.6 0.1 1 0 0.4-0.2 0.8-0.6l9.7-9.5q0.1-0.1 0.3-0.3 0.5-0.7-0.3-1.4l0.8-1.1 5.6 4-3.1 8.8 7.3-5.8 5.8 4.2-0.8 1.2q-0.5-0.3-0.8-0.2-0.3 0.1-0.6 0.5l-0.2 0.2-6.4 12.3q-0.3 0.5-0.3 0.7 0 0.3 0.3 0.7l-0.9 1.2-5.5-4.1 0.8-1.1q0.5 0.3 0.9 0.3 0.3 0 0.5-0.4 0.1-0.1 0.2-0.3l5.8-10.6-8.8 6.5-2.9-2.1 3.6-10.2-8.4 8.6q-0.1 0.1-0.3 0.4-0.3 0.3-0.2 0.6 0.1 0.3 0.6 0.7zm30.4-3.2l13.8 5.6-1.7 4.2-1.3-0.6q0.5-1.6-1.3-2.3l-4.8-2-1.2 2.9 0.3 0.2q2.3 1.6 4 3.1 1.6 1.6 2.5 3 0.8 1.4 1 2.7 0.1 1.4-0.4 2.8-0.6 1.3-1.6 2-1 0.8-2.3 0.9-1.9 0.1-5.1-1.1l-9.1-3.7 0.5-1.3q0.7 0.2 1 0 0.4-0.1 0.6-0.8l5.1-12.5q0.3-0.7 0.2-1-0.2-0.4-0.7-0.7zm2.4 10.3l-2.9 7.1q1 0.5 1.3 0.6 1.9 0.8 3.2 0.8 0.8 0 1.4-0.4 0.6-0.5 0.9-1.2 0.4-1 0.1-2.2-0.3-1.2-1.4-2.4-1-1.1-2.6-2.3zm26.7-0.7l-0.3 1.4q-0.6 0-0.9 0.2-0.2 0.1-0.3 0.3-0.1 0.1-0.2 0.7l-0.6 3 0.4 0.1q1.8 1 2.9 1.6 1.1 0.6 1.9 1.2 0.8 0.5 1.5 1.2 1.4 1.3 2 2.8 0.6 1.6 0.3 3.2-1 4.8-8 3.5l-9.5-1.9 0.3-1.3q0.7 0 1-0.2 0.2-0.2 0.4-0.9l2.6-13.3-1.1-0.3q-0.9-0.1-1.5 0.2-0.6 0.3-0.9 1.2l-1.4-0.3 0.9-4.4zm-2.9 8.3l-1.4 7.4 0.3 0.1 0.9 0.2q1.4 0.3 2 0.3 0.5 0 1.1-0.2 1.4-0.3 1.7-1.9 0.2-0.8 0-1.6-0.3-0.8-0.8-1.5-1.1-1.3-3.8-2.8zm34.7 15.1q-0.2-1.2-1.1-1.9-0.8-0.7-2.1-0.7l-12.8 0.5q-0.8 0-1.5 0.4-0.6 0.4-1 1-0.4 0.6-0.4 1.4h-1.5l-0.2-5.4 1.7-0.1q0.7-0.6 1.3-1.8 0.7-1.2 1.1-2.6 0.8-2.2 0.6-5.3 0-2.2-0.3-3.3-0.3-1.2-0.8-1.6-0.3-0.2-1-0.3l-0.1-1.4 17.3-0.6 0.1 1.4q-0.7 0.2-0.9 0.5-0.2 0.3-0.2 1l0.5 13.4 2.5-0.1 0.2 5.5zm-6.7-18.7l-5.6 0.2q0.1 0.2 0.1 0.3 0.1 0.4 0.3 1.5 0.3 1.5 0.3 2.7 0.1 3.1-0.7 5.3-0.7 1.9-1.9 3.7l7.9-0.3zm14.8 15.7l-0.2-1.4q0.6-0.2 0.8-0.5 0.2-0.3 0-1l-2.6-13.4q-0.1-0.7-0.4-0.9-0.3-0.2-1-0.1l-0.2-1.4 16.1-3.1 0.9 4.3-1.4 0.3q-0.3-0.6-0.7-0.9-0.5-0.4-1-0.4-0.5 0-1.9 0.3l-5.5 1 0.9 4.2 5-1q0.9-0.1 1.2-0.5 0.4-0.3 0.4-1l1.4-0.3 1 5.2-1.4 0.3q-0.2-0.8-0.7-1-0.6-0.2-1.6 0l-4.8 0.9 1.3 6.5 6.5-1.2q1-0.2 1.5-0.5 0.5-0.3 0.8-0.7 0.2-0.4 0.1-1.2l1.5-0.2 0.8 4.5zm18.1-21.1l-0.7-1.3 6.8-3.1 0.6 1.3q-0.7 0.5-0.9 1.7-0.1 1.7 0.2 4.1 0.3 2.3 1.1 4 1.2 2.5 3.2 3.2 2 0.6 4.7-0.6l0.8-0.4-5.6-11.9q-0.3-0.5-0.5-0.7-0.1-0.2-0.4-0.2-0.3-0.1-0.9 0l-0.6-1.3 6.4-3 0.6 1.3q-0.1 0.1-0.1 0.2-0.5 0.4-0.6 0.7 0 0.4 0.3 1l5.6 12 5-2.3-5.7-12.1q-0.3-0.6-0.6-0.7-0.3-0.2-0.9-0.1 0 0-0.2 0.1l-0.7-1.3 6.5-3 0.6 1.3q-0.1 0.1-0.2 0.1-0.5 0.4-0.5 0.7-0.1 0.4 0.2 1l5.7 12 2.3-1.1 2.4 5.1-1.3 0.5q-0.3-0.3-0.8-0.8-0.5-0.5-1.3-0.6-0.8-0.1-1.5 0.2l-11.7 5.4q-1.1 0.5-2.6 1.2-4.2 1.7-7.3 0.6-1.1-0.3-2.1-1-0.9-0.6-1.7-1.5-0.8-1-1.3-2-0.7-1.7-0.9-3.6-0.1-1.8-0.1-3.2 0.1-1.4-0.1-1.7-0.2-0.4-1.2-0.2zm38 0.7l-0.9-1.1q0.5-0.4 0.6-0.8 0-0.4-0.4-0.9l-8.1-11.1q-0.4-0.6-0.7-0.6-0.4-0.1-1 0.3l-0.8-1.2 13.3-9.6 2.6 3.6-1.2 0.8q-0.5-0.4-0.9-0.5-0.6-0.1-1.1 0.1-0.4 0.2-1.6 1l-4.5 3.2 2.5 3.5 4.1-3q0.8-0.5 1-1 0.2-0.4-0.1-1.1l1.1-0.8 3.2 4.2-1.2 0.9q-0.5-0.6-1.1-0.6-0.6 0.1-1.4 0.7l-4 2.8 3.9 5.4 5.4-3.9q0.8-0.6 1.2-1 0.4-0.5 0.4-1 0-0.4-0.3-1.1l1.1-0.8 2.7 3.7zm4.6-27.1l11-11.7 3.3 3-1 1.1q-0.5-0.4-1-0.4-0.3-0.1-0.7 0-0.5 0.2-0.8 0.6-0.1 0.1-0.4 0.4-0.2 0.2-0.5 0.5l-0.6 0.7 10 9.3q0.5 0.4 0.9 0.4 0.3 0 0.8-0.4l1 1-5 5.3-1-1q0.4-0.5 0.4-0.9-0.1-0.3-0.6-0.8l-10-9.3-0.7 0.8q-0.2 0.2-0.4 0.5-0.3 0.3-0.3 0.4-0.4 0.4-0.6 0.9-0.2 0.6 0.5 1.6l-1 1.1zm32.8-26.3q1.9 1.1 3.1 2.7 1.1 1.6 1.5 3.5 0.4 1.9-0.1 4-0.4 2-1.7 4-1.2 2-2.9 3.3-1.6 1.3-3.5 1.8-1.9 0.5-3.9 0.2-2-0.3-3.9-1.5-1.8-1.1-3-2.8-1.2-1.6-1.6-3.5-0.4-2 0.1-4 0.4-2.1 1.6-4 1.3-2 2.9-3.3 1.7-1.3 3.6-1.8 1.9-0.5 3.9-0.1 2 0.3 3.9 1.5zm-2.7 4.4q-1.4-0.9-2.7-1.2-1.4-0.4-2.5-0.3-1.2 0.1-2.1 0.7-1 0.6-1.7 1.7-0.8 1.4-0.8 2.9 0.1 1.5 1.1 2.9 1 1.4 2.7 2.5 1.9 1.1 3.6 1.4 1.7 0.3 3.1-0.4 1.4-0.6 2.3-2 0.8-1.3 0.8-2.8-0.1-1.5-1.1-2.9-1-1.4-2.7-2.5zm1.7-25.3l2.1-5.4 1.3 0.5q0 0.7 0.2 1.1 0.1 0.4 0.8 1l9.7 10.2q1.2 1.2 1.5 1.6 0.2 0.4 0.5 1 0.6 1.6-0.2 3.6-0.4 1.1-1.4 2.1l-4-0.9 0.3-1.4q0.9 0.1 1.5-0.2 0.5-0.3 0.8-1 0.2-0.5 0.1-1-0.1-0.3-0.2-0.6-0.2-0.2-0.8-0.9-0.1-0.1-0.2-0.2l-13.3 1.5q-0.7 0.1-1.1 0.3-0.3 0.2-0.7 0.6l-1.3-0.5 2.8-7.1 1.3 0.5q-0.1 0.9 0.4 1.1 0.3 0.1 0.6 0.1l7.2-0.9-4.7-4.8q-0.3-0.3-0.6-0.5-0.5-0.2-1.1 0.5-0.1 0.1-0.2 0.2zm10.1-25.8l3.1 4.7-1 1q-0.6-0.3-1.1-0.4-0.7-0.1-1.5 0.2-0.7 0.4-1.3 1.2-0.5 0.8-0.7 1.9-0.4 1.5 0.1 2.9 0.5 1.4 1.7 2.4 1.2 1 2.8 1.3 2.2 0.5 4.3-0.1 2.1-0.6 3.5-2.2 1.4-1.5 1.9-3.7 0.4-1.8-0.2-3.3-0.3-0.5-1-1.3l0.3-1.5 4.8 1q0 2.5-0.5 4.6-0.7 3.1-2 5.5-1.3 2.4-3.1 4-1.8 1.6-4 2.2-2.1 0.6-4.4 0.1-2.6-0.5-4.5-2.4-1.8-1.8-2.5-4.5-0.7-2.7-0.1-5.7 0.6-2.9 2.2-4.9 0.6-0.9 1.3-1.5 0.6-0.6 1.9-1.5zm-2.9-3l0.3-16h4.5v1.4q-0.6 0.2-1 0.4-0.3 0.2-0.5 0.5-0.2 0.5-0.2 1 0 0.1-0.1 0.5 0 0.4 0 0.7v1l13.7 0.3q0.7 0 1-0.3 0.3-0.2 0.3-0.9l1.4 0.1-0.1 7.2h-1.4q-0.1-0.7-0.4-0.9-0.2-0.2-0.9-0.3l-13.7-0.2v1q0 0.3 0 0.7 0 0.4 0 0.5 0 0.5 0.2 1 0.3 0.7 1.5 1l-0.1 1.4zm0.1-22.2v-9.6q0-7.1 5-7.1 1.4 0 2.6 0.6 1.2 0.6 2.2 1.8 1 1.3 1.8 3.2 0.9 2 1.7 4.8v0.2h3.2q0.7 0 0.9-0.2 0.3-0.2 0.3-0.9h1.5v7.2h-1.5q0-0.6-0.3-0.8-0.3-0.3-0.9-0.3h-13.8q-0.7 0-0.9 0.2-0.3 0.3-0.4 0.9zm10.5-6.1l-0.1-0.2q-0.8-1.9-1.5-3.1-0.7-1.2-1.5-1.7-0.8-0.5-1.8-0.5-1.5 0-2.1 1-0.7 0.9-0.7 3v1.5zm8.9-17h-1.4q0-0.6-0.3-0.9-0.3-0.2-1-0.2h-13.7q-0.8 0-1 0.2-0.3 0.2-0.3 0.9h-1.5v-16.3h4.5v1.4q-0.7 0.2-1 0.5-0.5 0.4-0.6 0.9-0.1 0.5-0.1 1.8v5.6h4.3v-5.1q0-0.9-0.3-1.3-0.2-0.4-0.9-0.6v-1.4h5.3v1.4q-0.8 0.2-1.1 0.6-0.3 0.5-0.3 1.5v4.9h6.6v-6.6q0-1-0.1-1.6-0.2-0.5-0.6-0.8-0.3-0.3-1.1-0.4v-1.5h4.6zm0.1-28l0.2 5.5h-1.4q-0.3-0.5-0.6-0.7-0.3-0.2-1-0.3l-13.5-1.8q-0.2 0-0.4 0-0.8 0.1-0.9 1.1h-1.4l-0.3-6.7 8.9-3.1-9.1-2.1-0.2-7.1 1.4-0.1q0.1 0.5 0.4 0.7 0.2 0.2 0.7 0.2h0.3l13.7-2.5q0.6-0.1 0.8-0.3 0.2-0.2 0.4-0.6l1.4-0.1 0.3 6.9h-1.5q-0.1-0.6-0.3-0.8-0.2-0.3-0.6-0.2-0.2 0-0.3 0l-12.1 2 10.6 2.9 0.2 3.5-10.4 3.5 12 1.3q0.2 0 0.5 0 0.4 0 0.6-0.3 0.2-0.2 0.2-0.9zm-1.7-23.9l-1.4 0.3q-0.2-0.6-0.5-0.7-0.4-0.2-1-0.1l-13.4 3.1q-0.7 0.2-0.9 0.4-0.2 0.3-0.1 1l-1.4 0.3-3.7-15.9 4.3-1 0.3 1.4q-0.6 0.3-0.8 0.7-0.4 0.5-0.4 1 0 0.5 0.3 1.8l1.3 5.4 4.2-0.9-1.2-4.9q-0.2-0.9-0.5-1.3-0.3-0.3-1.1-0.3l-0.3-1.4 5.2-1.2 0.3 1.4q-0.7 0.3-0.9 0.8-0.2 0.5 0 1.5l1.1 4.8 6.5-1.5-1.5-6.4q-0.2-1-0.5-1.5-0.3-0.6-0.7-0.7-0.5-0.2-1.2-0.2l-0.3-1.4 4.5-1zm-28.3-25.9l-3.1-6.6 1.3-0.6q0.6 1 1.7 0.5l12.4-5.7q0.6-0.3 0.8-0.6 0.1-0.4-0.1-1l1.3-0.6 3.1 6.6-1.3 0.6q-0.4-0.6-0.7-0.7-0.4-0.1-0.9 0.2l-6 2.7 3.1 6.6 6-2.7q0.6-0.3 0.7-0.6 0.1-0.3-0.1-1l1.3-0.6 3.1 6.6-1.3 0.6q-0.4-0.6-0.7-0.7-0.3-0.1-0.9 0.2l-12.5 5.7q-0.6 0.3-0.7 0.7-0.2 0.3 0 0.9l-1.3 0.6-3.1-6.6 1.3-0.6q0.6 1 1.7 0.6l4-1.9-3.1-6.6-4 1.8q-0.6 0.3-0.8 0.6-0.1 0.4 0.1 1zm-166.6 187.5v-20.5h-4.7v20.5zm118.9-2.5q2 2.9 5.4 2.9 3.3 0 5.3-2.9 2-2.8 2-7.7 0-4.9-2-7.8-2-2.8-5.3-2.8-3.4 0-5.4 2.8-2 2.9-2 7.8 0 4.9 2 7.7zm3.5-12.8q0.6-1.7 1.9-1.7 1.2 0 1.8 1.7 0.7 1.6 0.7 5.1 0 3.4-0.7 5-0.6 1.7-1.8 1.7-1.3 0-1.9-1.7-0.6-1.6-0.6-5 0-3.5 0.6-5.1zm-13.7 18.1v-26h-5.9v26zm-100.9-1.2q1.4 0.7 3 1.1 1.7 0.3 3.7 0.3 4.6 0 7.2-2.3 2.6-2.2 2.6-6.1 0-3.9-2.3-6.1-2.3-2.2-6.4-2.2-0.4 0-0.6 0-0.3 0-0.5 0v-4.6h8.9v-5.1h-14.1v14.6q1.1-0.3 2-0.4 0.8-0.2 1.5-0.2 2.4 0 3.8 1.1 1.4 1 1.4 2.7 0 1.9-1.2 2.9-1.2 1-3.5 1-1.3 0.1-2.7-0.4-1.4-0.5-2.8-1.3z"/>
</svg>