<svg version="1.2" xmlns="http://www.w3.org/2000/svg" viewBox="0 0 850 1102" width="850" height="1102">
	<title>Provadia-pdf</title>
	<style>
		.s0 { fill: #00adef } 
		.s1 { fill: #ffffff } 
	</style>
	<path id="Path 1" class="s0" d="m183.2 54.7l0.3 36.1 149.9 0.2v-89.1h182.9v88.9l150.1 0.6v-89.5h182.8v234.7 772c-2.1 39-28.6 51.2-42.2 51.7l-343.6 0.1c-21.7 0.7-38.6 18.1-38.6 40.6-0.1-22.5-16.9-40.6-38.6-40.5l-341.9 0.1c-15 0-41.6-9.6-43.9-51.9v-1006.8h182.8z"/>
	<path id="Path 2" fill-rule="evenodd" class="s1" d="m817.7 879.6q-392.9 0-785.8 0c0 0 0-457.3 0-493.7q0-0.8 0-1.6c0-110.2 90.5-199.7 201.9-199.7 88.5 0 163.8 56.5 191 134.9 27.2-78.4 102.5-134.9 191-134.9 111.4 0 201.9 89.5 201.9 199.7q0 0.7 0 1.5zm-23.6-493.9q0-0.7 0-1.4c0-97.4-79.9-176.3-178.3-176.3-98.4 0-178.3 78.9-178.3 176.3q0 0.7 0 1.4v251.2h-25.4v-251.2q0-0.7 0-1.4c0-97.4-79.9-176.3-178.3-176.3-98.4 0-178.3 78.9-178.3 176.3q0 0.7 0 1.4v465.3l23.6-28.6v-436.8q0-0.7 0-1.3c0-84.5 69.3-153 154.7-153 85.4 0 154.7 68.5 154.7 153q0 0.6 0 1.2v251.4q-78.2 0-156.3 0l85.5-103.6v-148.3q0-0.4 0-0.7c0-45.9-37.6-83-83.9-83-46.3 0-83.9 37.1-83.9 83q0 0.4 0 0.7v351.7l79.6-96.6 195.3 239.5 194.6-238.7 80.3 96.7v-352.6q0-0.4 0-0.7c0-45.9-37.6-83-83.9-83-46.3 0-83.9 37.1-83.9 83q0 0.4 0 0.7v150.6l84.1 101.3q-77.4 0-154.9 0v-251.3q0-0.7 0-1.3c0-84.5 69.3-153 154.7-153 85.4 0 154.7 68.5 154.7 153q0 0.6 0 1.2v437.3l23.6 28.4zm-47.2-0.3v-0.2q0-0.5 0-0.9c0-71.6-58.7-129.6-131.1-129.6-72.4 0-131.1 58-131.1 129.6q0 0.5 0 1v0.1 93.4l18.5 22.3v-115.8q0-0.5 0-1c0-61.5 50.4-111.3 112.6-111.3 62.2 0 112.6 49.8 112.6 111.3q0 0.4 0 0.9v387l18.5 22.2zm-625.7-0.1q0-0.5 0-1c0-61.4 50.4-111.3 112.6-111.3 62.2 0 112.6 49.9 112.6 111.3q0 0.5 0 1v113.3l18.5-22.4v-90.8-0.1q0-0.5 0-1c0-71.5-58.7-129.6-131.1-129.6-72.4 0-131.1 58.1-131.1 129.6q0 0.5 0 1v0.2 408.4l18.5-22.4zm675.7 626.3v-41.9h-4.1q-9.6 0-13.5 2.9-4 2.8-13.5 17.1l-14.6 21.9h-24.3l12.3-19.6q7.2-11.6 11.6-16.3 4.3-4.7 10.8-8.4-14-2.2-20.3-9.8-6.2-7.5-6.2-18.1 0-9.2 4.6-16.2 4.6-7.1 12.2-9.6 7.5-2.4 22.6-2.4h42.7v100.4zm0-83.4h-15.8q-12.1 0-15.9 0.5-3.8 0.6-6.5 3.7-2.8 3.2-2.8 8.3 0 5.2 2.7 8.4 2.6 3.1 6.7 3.8 4.1 0.8 16.6 0.8h15zm-160.6-17h19v66.8l40.6-66.8h20.2v100.3h-18.9v-65.5l-40.6 65.5h-20.3zm-86.2 0h69.3v83.6h8.9v38.7h-16.9v-21.9h-63.2v21.9h-16.8v-38.7h8.5c4.1-8.6 6.9-18.6 8.2-29.9q2-17 2-43.1zm19.3 16.9q0 45.7-8.3 66.7h38.1v-66.7zm-43.9 83.5h-22.1l-8.7-22.8h-40.2l-8.2 22.8h-21.5l39.1-100.4h21.4zm-37.3-39.7l-13.9-37.2-13.5 37.2zm-152.6-60.6h40.2q11.9 0 17.7 1 5.9 1 10.5 4.1c3.1 2.1 5.6 4.9 7.7 8.4q3.1 5.2 3.1 11.7 0 7.1-3.8 13-3.8 5.9-10.3 8.8c6.1 1.8 10.8 4.8 14.1 9.1q4.9 6.5 4.9 15.1 0 6.9-3.2 13.4-3.2 6.4-8.7 10.3-5.5 3.9-13.6 4.8-5 0.5-24.4 0.6h-34.2zm20.3 16.8v23.2h13.3q11.8 0 14.7-0.4 5.2-0.6 8.2-3.6 3-2.9 3-7.8 0-4.7-2.6-7.6-2.6-2.9-7.6-3.5-3-0.3-17.3-0.3zm0 39.9v26.8h18.7q11 0 13.9-0.6c3-0.5 5.5-1.9 7.4-4q2.8-3.2 2.8-8.5 0-4.6-2.2-7.7-2.2-3.2-6.3-4.6-4.2-1.4-18-1.4zm-133.5-5.8q0-15.4 4.6-25.8 3.4-7.6 9.3-13.8 6-6 13-9c6.3-2.7 13.5-4 21.6-4q22.2 0 35.5 13.8 13.4 13.8 13.4 38.3 0 24.3-13.3 38-13.2 13.7-35.3 13.7-22.4 0-35.6-13.6-13.2-13.7-13.2-37.6zm20.9-0.7q0 17 7.9 25.8 7.8 8.8 20 8.8c8 0 14.7-2.9 19.8-8.7q7.8-8.8 7.8-26.2 0-17.2-7.5-25.8-7.6-8.4-20.1-8.4-12.6 0-20.3 8.6-7.6 8.5-7.6 25.9zm-110.3 50.2v-100.4h32.5q18.5 0.1 24.1 1.6 8.6 2.2 14.5 9.8 5.8 7.6 5.8 19.5 0 9.3-3.4 15.6-3.3 6.3-8.5 9.9-5.2 3.5-10.5 4.7-7.3 1.5-21 1.5h-13.2v37.8zm20.2-83.4v28.5h11.1q12 0 16-1.6 4.1-1.5 6.4-4.9 2.3-3.4 2.3-7.8 0-5.5-3.3-9c-2.1-2.4-4.8-3.9-8.1-4.5q-3.6-0.7-14.6-0.7zm-120.8-17h79.9v100.4h-20.3v-83.5h-39.3v83.5h-20.3z"/>
</svg>