<svg version="1.2" xmlns="http://www.w3.org/2000/svg" viewBox="0 0 622 734" width="622" height="734">
	<title>Tervel-pdf</title>
	<style>
		.s0 { fill: #d8d8dc;stroke: #757b7e;stroke-width: 8 } 
		.s1 { fill: #757b7e } 
		.s2 { fill: #ed1c24 } 
		.s3 { fill: #00a650 } 
		.s4 { fill: #ffffff } 
		.s5 { fill: #231f20 } 
		.s6 { fill: #acacbd } 
		.s7 { fill: #d8d8dc } 
		.s8 { fill: none;stroke: #757b7e;stroke-width: 8 } 
		.s9 { fill: #61648e } 
		.s10 { fill: #e6cd77 } 
	</style>
	<path id="Path 1" class="s0" d="m91.3 5.1h447.7v105.8h-447.7z"/>
	<path id="Path 2" class="s1" d="m5.9 105.9h610.5v426.5c0 107.6-96.1 195.6-213.7 195.6h-183.1c-117.6 0-213.7-88-213.7-195.6z"/>
	<path id="Path 3" class="s2" d="m367.3 211.2h236.3v36.9h-236.3zm0 34.9h37.3v286.6h-37.3zm-347.7-34.9h236.4v36.9h-236.4zm199.1 34.9h37.3v286.6h-37.3z"/>
	<path id="Path 4" class="s3" d="m19.6 165.8h286.8v35.6h-286.8zm246.6 32.9h40.2v334h-40.2zm50.8-32.9h286.6v35.7h-286.6zm0 32.8h40.3v334h-40.3z"/>
	<path id="Path 5" class="s4" d="m19.6 120.2h584v35.6h-584z"/>
	<path id="Path 6" fill-rule="evenodd" class="s5" d="m167 85.4h-14.2v-49.5h-19.6v-9.1h53.4v9.1h-19.6zm75.6 0h-47.9v-58.6h47.4v8.7h-34.1v15.9h27.4v8.5h-27.4v16.4h34.6zm24.7 0h-13.3v-58.6h30.2q12.9 0 19.1 5.2 6.3 5.1 6.3 12.2 0 8-6.8 13-6.7 5-17.1 5h-18.4zm0-32.3h15.7q6.2 0 9.4-2.4 3.2-2.4 3.2-6.4 0-3.6-3-6.2-3-2.6-10.8-2.5h-14.5zm52.9 32.2v-58.6h28.8q7.3 0 12 1.2 4.9 1.2 8.4 5.1 3.5 3.8 3.5 8.9 0 4.9-3.6 8.5-3.5 3.5-9.8 4.5c5.2 0.8 9.1 2.4 11.8 5.1q4 3.9 4 9.3-0.1 6.8-5.6 11.4-5.6 4.6-17.2 4.6zm12.5-34h16.2q5 0 7.9-2.3 2.9-2.4 2.9-6 0-4.1-3.3-6-3.3-1.9-7.7-1.9h-16zm0 25.2h17.2q5.5 0 8.6-2.3 3.2-2.3 3.2-6.1 0-3.7-3.2-6.1-3.3-2.3-8.5-2.3h-17.3zm102.5 8.8h-47.9v-58.6h47.4v8.7h-34.1v15.9h27.4v8.5h-27.4v16.4h34.6zm13.2 0h-11.5l23.3-58.6h16.9l23.2 58.6h-14.2l-18.6-48.8h-0.8z"/>
	<path id="Path 7" class="s6" d="m9.9 259.9h194.3v273.2h-194.3zm409.1 0h193.6v273.2h-193.6z"/>
	<path id="Path 8" class="s7" d="m9.7 542.7h194.5v37.8h-194.5zm8.3 46.6h186.2v37.8h-175.4c-0.6-2.1-2.3-4.6-4.1-6.1 0.2-1.6-1.3-4.9-3.1-7.5 0-2.5-1.4-6.1-3.6-7.5zm23.8 46.5h162.4v37.7h-138.7c-0.2-5.2-9-7.6-11.4-12.3-2-4.3-7-13.9-12.3-14.2zm42.8 45.4h119.6v37.7h-65.2c-0.9-4.7-10.3-5.4-14.4-7.7-4.9-2.5-8.3-3.4-13.1-6.7-5.9-5.8-14.8-9.3-21.7-14-1.1-0.8-3.9-2.5-5.2-2.7zm334.1-138.5h194.5v37.8h-194.5zm186.2 63.3c-2.2 1.5-3.7 5-3.6 7.5-1.8 2.7-3.4 5.9-3.2 7.5-1.8 1.5-3.4 4.1-4.1 6.2h-175.3v-37.8h186.2zm-23.8 41.1c-5.3 0.3-10.3 9.9-12.3 14.2-2.4 4.7-11.3 7.1-11.5 12.3h-138.6v-37.8h162.4zm-42.9 40.7c-1.2 0.2-4 1.9-5.2 2.7-6.8 4.7-15.7 8.2-21.6 14-4.8 3.3-8.3 4.2-13.1 6.7-4.2 2.3-13.6 3-14.5 7.7h-65.1v-37.7h119.5z"/>
	<path id="Path 9" class="s8" d="m5.9 105.9h610.5v427.8c0 107.9-96.1 196.2-213.7 196.2h-183.1c-117.6 0-213.7-88.3-213.7-196.2z"/>
	<path id="Path 10" class="s7" d="m219.4 543h185.4v175.9h-185.4z"/>
	<path id="Path 11" class="s9" d="m291.9 552.3h40.6v30.8h-40.6zm0.5 126.9h40.6v30.7h-40.6zm-59.6-70l20.3-34.2 27.3 15.3-20.3 34.2zm113.3 63l20.3-34.2 27.4 15.4-20.3 34.2zm26.9-98.3l20.3 34.2-27.3 15.3-20.3-34.2zm-112.7 64l20.3 34.2-27.4 15.3-20.3-34.2zm53-75.9c39.3 0 71.1 30.9 71.1 69.1 0 38.2-31.8 69.2-71.1 69.2-39.3 0-71.1-31-71.1-69.2 0-38.2 31.8-69.1 71.1-69.1z"/>
	<path id="Path 12" class="s7" d="m313.3 583.8c26.8 0 48.5 21.1 48.5 47.2 0 26.1-21.7 47.2-48.5 47.2-26.8 0-48.5-21.1-48.5-47.2 0-26.1 21.7-47.2 48.5-47.2zm-303.3-238.2h193.9v187.4h-193.9zm409-0.1h193.4v187.4h-193.4zm19.7-85.2h27.5v92.4h-27.5zm40.5 0h27.5v92.4h-27.5zm89.7 0h27.5v92.4h-27.5zm-41.5 0h27.5v92.4h-27.5z"/>
	<path id="Path 13" class="s10" d="m432.2 394.4c6.5-9.1 28.4-2.4 48.9 15.1 20.6 17.5 32 39.1 25.6 48.2-6.5 9.2-28.4 2.4-49-15-20.5-17.5-31.9-39.1-25.5-48.3zm5.6 65.6c7.7-10.6 30.7-5.2 51.5 12.2 20.7 17.4 31.3 40.2 23.6 50.8-7.7 10.7-30.7 5.2-51.4-12.2-20.8-17.4-31.4-40.1-23.7-50.8zm0.7-129c8.1-8.8 28.6-0.9 45.8 17.5 17.1 18.5 24.4 40.6 16.2 49.4-8.1 8.8-28.6 1-45.8-17.5-17.1-18.5-24.4-40.6-16.2-49.4zm79-52.9c11.5 0 20.8 21.2 20.8 47.4 0 26.1-9.3 47.3-20.8 47.3-11.6 0-20.9-21.2-20.9-47.3 0-26.2 9.3-47.4 20.9-47.4zm59.1 165.2c-20.5 17.5-42.4 24.2-48.9 15-6.4-9.1 5-30.7 25.5-48.2 20.6-17.5 42.5-24.2 48.9-15 6.5 9.1-4.9 30.7-25.5 48.2zm-3.7 68.1c-20.7 17.4-43.8 22.9-51.4 12.3-7.7-10.7 2.9-33.4 23.6-50.8 20.8-17.5 43.8-22.9 51.5-12.3 7.7 10.7-2.9 33.4-23.7 50.8zm6.7-130.4c-17.1 18.5-37.6 26.4-45.7 17.6-8.2-8.8-0.9-31 16.2-49.4 17.1-18.5 37.6-26.4 45.8-17.6 8.1 8.8 0.9 31-16.3 49.4z"/>
	<path id="Path 14" class="s7" d="m28.5 259.9h27.5v92.3h-27.5zm40.6 0h27.4v92.3h-27.4zm89.7 0h27.4v92.3h-27.4zm-41.6 0h27.5v92.3h-27.5z"/>
	<path id="Path 15" class="s10" d="m21.8 394.4c6.4-9.1 28.3-2.4 48.9 15.1 20.5 17.5 32 39.1 25.5 48.2-6.5 9.2-28.4 2.4-48.9-15-20.6-17.5-32-39.1-25.5-48.3zm5.6 65.6c7.6-10.6 30.7-5.2 51.4 12.2 20.8 17.4 31.3 40.2 23.7 50.8-7.7 10.7-30.8 5.2-51.5-12.2-20.7-17.4-31.3-40.1-23.6-50.8zm0.6-129c8.2-8.8 28.7-0.9 45.8 17.5 17.1 18.5 24.4 40.6 16.2 49.4-8.1 8.8-28.6 1-45.7-17.5-17.1-18.5-24.4-40.6-16.3-49.4zm79-52.9c11.5 0 20.9 21.2 20.9 47.4 0 26.1-9.4 47.3-20.9 47.3-11.5 0-20.9-21.2-20.9-47.3 0-26.2 9.4-47.4 20.9-47.4zm59.2 165.2c-20.6 17.5-42.5 24.2-48.9 15-6.5-9.1 4.9-30.7 25.5-48.2 20.5-17.5 42.4-24.2 48.9-15 6.5 9.1-5 30.7-25.5 48.2zm-3.7 68.1c-20.8 17.4-43.8 22.9-51.5 12.3-7.7-10.7 2.9-33.4 23.7-50.8 20.7-17.5 43.7-22.9 51.4-12.3 7.7 10.7-2.9 33.4-23.6 50.8zm6.7-130.4c-17.1 18.5-37.6 26.4-45.8 17.6-8.1-8.8-0.9-31 16.3-49.4 17.1-18.5 37.6-26.4 45.7-17.6 8.2 8.8 0.9 31-16.2 49.4z"/>
</svg>