<svg version="1.2" xmlns="http://www.w3.org/2000/svg" viewBox="0 0 876 1000" width="876" height="1000">
	<title>Elin-Pelin-pdf</title>
	<style>
		.s0 { fill: #162d66 } 
		.s1 { fill: #ffffff } 
	</style>
	<path id="Path 1" class="s0" d="m21.1 174.6c-19.2-20.7-24.6-49.1-18.4-76.1 4.3-17.4 14.2-31.9 28.2-43 9.7-7.5 20.9-12.7 32.8-15.8 20.9-5.2 44.1-6 64.3 1.9 17 6.7 30.8 16.6 44.4 28.6 11.1 9.9 21.7 20.4 33.3 29.7 21.8 17.1 50.2 22.7 77.1 25.2l13.3 0.3c23.2-1.1 47-4.3 67.7-15.6-16-4.8-27.8-15.6-33.6-31.4-4.9-14.1-4.6-27.3 0.8-41.6l5.9-10.2 6.7-7.5 8-6.3 8.3-4.6c13.4-5.6 26.2-8.2 40.8-6.5 13.7 1.9 25.8 6.6 36.6 15.6q0 0 0 0 0 0 0 0c10.8-9 22.8-13.7 36.5-15.6 14.7-1.7 27.5 0.9 40.9 6.5l8.2 4.6 8 6.3 6.8 7.5 5.9 10.2c5.4 14.3 5.7 27.5 0.8 41.6-5.8 15.8-17.7 26.6-33.7 31.4 20.8 11.3 44.5 14.5 67.7 15.6l13.3-0.3c27-2.5 55.4-8.1 77.2-25.2 11.6-9.3 22.1-19.8 33.2-29.7 13.6-12 27.5-21.9 44.4-28.6 20.3-7.9 43.5-7.1 64.4-1.9 11.8 3.1 23 8.3 32.8 15.8 14 11.1 23.9 25.6 28.2 43 6.2 27 0.7 55.4-18.4 76.1-21 22-54 27.4-82.4 18.7-4.4-1.4-8.5-3.2-12.6-5.4-0.2 166.4 0.5 332.8 0.5 499.2l-1.7 22.7-5 32.6-7.9 30.7-10.9 29.4-13.6 28-16.1 26.5-18.6 24.8-20.8 22.9-23 20.8-24.8 18.6-26.5 16.1-28.1 13.6-29.4 10.8-30.7 7.9-31.8 4.9-32.8 1.6-32.9-1.6-31.8-4.9-30.7-7.9-29.4-10.8-28.1-13.6-26.5-16.1-24.8-18.6-22.9-20.8-20.8-22.9-18.6-24.8-16.2-26.5-13.6-28-10.8-29.4-7.9-30.7-5.1-32.6-1.7-22.7c0.1-166.4 0.7-332.8 0.6-499.2-4.1 2.2-8.3 4-12.7 5.4-28.3 8.7-61.3 3.3-82.3-18.7z"/>
	<path id="Path 2" fill-rule="evenodd" class="s1" d="m565.5 511v-28.8h19.4v74.7h-19.4v-30.6h-28.1v30.6h-19.4v-74.7h19.4v28.8zm-63.7 45.9h-19.4v-45.8h-0.2l-35.6 45.8h-19.4v-74.7h19.4v45.7h0.2l35.6-45.7h19.4zm-128.3-58.2q0 19.4-0.5 29.4-0.6 10.1-3.1 17.1-2.4 7-7.9 10.4-5.5 3.3-15.3 3.3l-2-16.5q4.1 0 6.1-1.6 1.9-1.7 2.8-7.3 1-5.6 1.2-16.5 0.3-10.9 0.3-34.8h55.9v74.7h-19.5v-58.2zm-64.4 0v12.5h21.9v16.4h-21.9v12.9h23.1v16.4h-42.5v-74.7h42.5v16.5zm234.3 168.9h-19.4v-45.7h-0.3l-35.5 45.7h-19.4v-74.6h19.4v45.6h0.2l35.6-45.6h19.4zm-128.3-58.3q0 19.4-0.6 29.5-0.6 10.1-3 17.1-2.5 7-7.9 10.3-5.5 3.3-15.4 3.3l-2-16.4q4.2 0 6.1-1.7 2-1.6 2.9-7.2 0.9-5.6 1.2-16.5 0.2-10.9 0.2-34.8h55.9v74.7h-19.4v-58.3zm-64.4 0v12.5h21.9v16.4h-21.9v12.9h23.1v16.5h-42.5v-74.7h42.5v16.4zm-35.7-16.4v74.7h-19.4v-59.4h-28.1v59.4h-19.4v-74.7zm12.8-317.3q0 5.2-2.6 9-2.5 3.9-6.9 5.9-4.4 2-9.5 2-5.2 0-9.5-2-4.4-2-7-5.8-2.6-3.8-2.6-9.1 0-5.2 2.6-9 2.6-3.8 7-5.8 4.3-2.1 9.5-2.1 5.1 0 9.5 2.1 4.4 2 6.9 5.8 2.6 3.9 2.6 9zm-26.3 0q0 3.1 2 5.1 1.9 2 5.3 2 3.3 0 5.2-2 2-2 2-5.1 0-1.9-0.9-3.6-0.8-1.6-2.5-2.6-1.6-0.9-3.8-0.9-2.2 0-3.9 0.9-1.6 1-2.5 2.6-0.9 1.7-0.9 3.6zm55.7-32.4q6-0.9 8-2.3 2-1.4 2.2-2.1l7 6.2q-1.2 2.2-2.2 3.4-1.1 1.2-4.3 2.6-3.2 1.3-9 2.2-3.8 0.6-6.4 2-2.5 1.4-3.7 3-1.2 1.6-1.3 2.8 1-0.6 3.6-1.4 2.5-0.9 6.2-0.9 4.1 0 7.6 1.2 3.5 1.2 6.1 3.5 2.6 2.2 4 5.4 1.4 3.2 1.4 7 0 3.9-1.5 7-1.5 3.1-4.2 5.3-2.7 2.1-6.1 3.3-3.4 1.1-7.3 1.1-3.8 0-7.3-1.1-3.4-1.1-6.1-3.3-2.6-2.2-4.1-5.6-1.5-3.3-1.5-7.7 0-6.2 0.5-11 0.5-4.7 2.4-9.1 1.8-4.4 5.7-7.5 3.9-3.1 10.3-4zm-7.1 32.4q0 3.1 1.9 5.1 2 2 5.3 2 3.3 0 5.3-2 1.9-2 1.9-5.1 0-1.9-0.8-3.6-0.9-1.6-2.6-2.6-1.6-0.9-3.8-0.9-2.2 0-3.8 0.9-1.7 1-2.5 2.7-0.9 1.6-0.9 3.5zm37.7 15.8v-31.6h11.2v22.9h6.3v-22.9h11.2v22.9h6.3v-22.9h11.2v22.9h3.6v16.4h-10.6v-7.7zm62.8-31.6h11.2v16h0.1l14.2-16h11.2v31.6h-11.2v-16.8h-0.1l-14.2 16.8h-11.2zm75.4 0h11.1v31.7h-11.1v-11.8h-11.1v11.8h-11.1v-31.7h11.1v11.1h11.1zm58.9 31.7h-11.2v-3.5h-0.1q-1.4 2.2-4 3.4-2.6 1.1-5.6 1.1-4.5 0-8.2-2.3-3.6-2.3-5.7-6.2-2-3.9-2-8.4 0-3.4 1.1-6.4 1.1-3.1 3.3-5.4 2.1-2.4 5.1-3.7 2.9-1.3 6.3-1.3 2.9 0 5.5 1.1 2.6 1 4.3 3v-3.1h11.2zm-25.2-15.8q0 3.1 1.9 5.1 1.9 2 5.3 2 3.3 0 5.3-2 1.9-2 1.9-5.1 0-1.9-0.9-3.6-0.8-1.6-2.5-2.5-1.6-1-3.8-1-2.2 0-3.9 1-1.6 0.9-2.5 2.5-0.8 1.7-0.8 3.6zm-127.8 507.7q-1.9-3.5-4-6.7c-2.4-4.5-6.3-8.8-8.9-11.4-22.6-21.7-72.6-28-97-6.2-9.5 9.9-14.7 22.4-11.3 38.7 1.5 6.4 5.4 10.9 10.1 14.4 14.7 11.3 37.9 5.7 44-12.3 2-10.1-3.1-12.1-10.3-14.4-10.8 0.8-12.5-16.7 2.1-13.6 20.9 5.2 30.7 29.4 11 47.3-23.6 21.5-66.7 10.9-71.3-22.3-1.3-14.6 0.2-24.3 9.6-39.8 27.2-35.2 88.8-30 119.8-3.2 4.2 3.8 8.2 7.9 11.6 12.5 3.4-4.6 7.4-8.7 11.6-12.5 31-26.8 92.6-32 119.9 3.2 9.3 15.5 10.9 25.2 9.5 39.8-4.6 33.2-47.7 43.8-71.3 22.3-19.7-17.9-9.8-42.1 11-47.3 14.6-3.1 12.9 14.4 2.1 13.6-7.2 2.3-12.2 4.3-10.3 14.4 6.1 18 29.3 23.6 44.1 12.3 4.6-3.5 8.5-8 10-14.4 3.5-16.3-1.8-28.8-11.3-38.7-24.4-21.8-74.3-15.5-97 6.2-2.6 2.6-6.5 6.9-8.9 11.4q-2.1 3.2-4 6.7c3.8-2.9 9.4-4.8 15.6-4.8 11.6 0 21 6.5 21 14.4 0 7.9-9.4 14.4-21 14.4-2.2 0-4.4-0.3-6.5-0.7 1.2 3.4 1.8 7.2 1.8 11.3 0 13.8-7.3 25.1-16.3 25.1-8.9 0-16.3-11.3-16.3-25.1 0-4.1 0.7-7.9 1.8-11.3q-3.1 0.7-6.5 0.7c-11.6 0-21-6.5-21-14.4 0-7.9 9.4-14.4 21-14.4 6.2 0 11.8 1.9 15.6 4.8zm-28 9.6c0 3.2 5.6 5.8 12.4 5.8 6.8 0 12.4-2.6 12.4-5.8 0-3.2-5.6-5.8-12.4-5.8-6.8 0-12.4 2.6-12.4 5.8zm54.4-5.8c-4.1 0.2-9.4 1.1-12 4.8-0.7 1.3-0.2 1.9 0.7 3 5.6 5 16.2 4.9 22 0.5 1.9-1.7 2.3-2.6 0.6-4.5-3.1-2.8-7.2-3.6-11.3-3.8zm-27.2 39.9c1 2.4 3.7 8.5 7.3 7.1 3.1-1.8 4.6-5.5 5.6-8.8 1.8-7.3 1.4-16.3-3.8-22.3-1.9-1.8-3-2.2-5.1-0.6-4.2 3.9-5.3 10-5.4 15.5 0.1 3.2 0.5 5.9 1.4 9.1zm-14.8-436.9c-11.6 0-21-6.5-21-14.4 0-7.9 9.4-14.4 21-14.4q3.4 0.1 6.5 0.7c-1.1-3.3-1.8-7.2-1.8-11.2 0-13.9 7.4-25.1 16.3-25.1 9-0.1 16.3 11.2 16.3 25.1 0 4-0.6 7.9-1.8 11.2 2.1-0.4 4.3-0.7 6.5-0.7 11.6 0 21 6.5 21 14.4 0 7.9-9.4 14.4-21 14.4-6.2 0-11.8-1.9-15.6-4.8q1.9 3.6 4 6.7c2.4 4.5 6.3 8.8 8.9 11.4 22.7 21.7 72.6 28 97 6.2 9.5-9.8 14.8-22.4 11.3-38.7-1.5-6.4-5.4-10.9-10-14.4-14.8-11.3-38-5.7-44.1 12.4-1.9 10 3.1 12.1 10.3 14.3 10.8-0.8 12.5 16.7-2.1 13.6-20.8-5.2-30.7-29.3-11-47.3 23.6-21.4 66.7-10.8 71.3 22.3 1.4 14.6-0.2 24.3-9.5 39.8-27.3 35.3-88.9 30-119.9 3.2-4.2-3.7-8.2-7.9-11.6-12.5-3.4 4.6-7.4 8.8-11.6 12.5-31 26.8-92.6 32.1-119.8-3.2-9.4-15.5-10.9-25.2-9.6-39.8 4.6-33.1 47.7-43.7 71.3-22.3 19.7 18 9.9 42.1-11 47.3-14.6 3.1-12.9-14.4-2.1-13.6 7.2-2.2 12.3-4.3 10.3-14.3-6.1-18.1-29.3-23.7-44-12.4-4.7 3.5-8.6 8-10.1 14.4-3.4 16.3 1.8 28.9 11.3 38.7 24.4 21.8 74.4 15.5 97-6.2 2.6-2.6 6.5-6.9 8.9-11.4q2.1-3.1 4-6.7c-3.8 2.9-9.4 4.8-15.6 4.8zm0-8.6c6.8 0 12.4-2.6 12.4-5.8 0-3.2-5.6-5.8-12.4-5.8-6.8 0-12.4 2.6-12.4 5.8 0 3.2 5.6 5.8 12.4 5.8zm53.3-3.8c1.7-1.9 1.3-2.8-0.6-4.5-5.8-4.4-16.4-4.5-22 0.5-0.9 1.1-1.4 1.8-0.7 3.1 2.6 3.6 7.9 4.5 12 4.7 4.1-0.2 8.2-0.9 11.3-3.8zm-39.9-26.9c0.1 5.5 1.2 11.5 5.4 15.4 2.1 1.6 3.2 1.2 5.1-0.6 5.2-6 5.6-14.9 3.8-22.3-1-3.2-2.5-7-5.6-8.7-3.6-1.5-6.3 4.6-7.3 7.1-0.9 3.1-1.3 5.8-1.4 9.1zm177.4 270.9v-28.8h19.4v74.7h-19.4v-30.6h-28.1v30.6h-19.4v-74.7h19.4v28.8z"/>
	<path id="Path 3" fill-rule="evenodd" class="s1" d="m439.2 54.2c0.7-2.3 1.6-4.5 2.6-6.7 1.3-2.7 2.7-5 4.4-7.5l2.3-2.8 2.5-2.5 2.7-2.3 2.9-2 6.1-3.2 6.4-2.2c3.4-0.8 6.6-1.3 10-1.6h6.7c3.4 0.3 6.6 0.8 9.9 1.5 3.2 0.9 6.2 1.9 9.3 3.2l5.6 3.2 5.1 4 4.3 4.8 1.8 2.7 1.5 3 1.1 3.1 0.9 3.3 0.4 3.4 0.1 3.4c-0.2 2.7-0.5 5.1-1 7.7-0.7 2.4-1.4 4.5-2.3 6.8-1.1 2-2.2 3.8-3.5 5.7-1.5 1.7-3 3.1-4.7 4.6-1.8 1.3-3.5 2.3-5.5 3.3-4.7 1.9-9 2.8-14.1 3l-4.2-0.2c-5.6-0.6-10.7-1.8-15.8-3.9-10.3-5.3-4.3-20.7 6.1-14 7.5 3 17.8 4.8 24.6-0.8 0.7-0.7 1.3-1.4 1.8-2.2 2.9-4.6 3.6-10.4 2.3-15.7-0.6-1.6-1.3-2.9-2.2-4.4-2.2-2.6-4.3-4.3-7.2-6l-3.9-1.9c-4.6-1.6-8.8-2.3-13.7-2.5l-4.7 0.3c-2.4 0.4-4.5 0.9-6.8 1.6-2.1 0.8-4 1.7-5.9 2.8-1.9 1.3-3.3 2.5-4.9 4.1-1.4 1.6-2.5 3.2-3.5 5-2.6 5.2-3.8 9.9-3.9 15.6l0.1 3.2c0.5 4.7 1.7 8.8 3.3 13.2 2.5 5.9 5.6 11.1 9.4 16.2 2.9 3.9 6.2 7.4 9.6 11l4.7 4.2 5 4.1 5.4 3.7 5.6 3.5 5.9 3.2 6.1 2.9 6.4 2.7 6.5 2.4 6.8 2.1 6.9 1.8 14.2 2.9 14.6 1.8 14.8 0.7 14.9-0.3 14.6-1.4 14.4-2.4 13.9-3.3 13.1-4.4 12.3-5.3 5.8-3 5.5-3.2c3-1.9 5.8-3.9 8.6-6 14.3-11.1 26.9-24.1 40.7-35.9 4.1-3.4 8.3-6.6 12.7-9.7 3.4-2.2 6.8-4.2 10.3-6.2 3.7-1.8 7.2-3.3 11.1-4.8l7.9-2.2 8.3-1.3c4.3-0.2 8.5-0.2 12.8-0.1 4.1 0.3 8 0.7 12 1.3 3.8 0.7 7.4 1.5 11.1 2.5 3.4 1.2 6.7 2.4 10 3.9 3.1 1.5 6 3.2 8.9 5 2.8 2 5.3 4 7.8 6.2 2.3 2.3 4.3 4.7 6.4 7.2 1.8 2.7 3.4 5.3 5 8.2 1.3 3 2.4 5.8 3.5 9 0.8 3.2 1.5 6.2 2 9.5 0.3 3.4 0.5 6.7 0.5 10.1-0.3 5-0.8 9.7-1.9 14.6-0.8 2.7-1.6 5.3-2.6 7.9-1.9 4.2-3.9 7.8-6.6 11.6-1.6 2.1-3.3 4-5.2 5.9-3.3 3-6.6 5.4-10.5 7.6-2.4 1.2-4.7 2.3-7.2 3.3-4.4 1.4-8.6 2.4-13.2 2.9-2.9 0.3-5.7 0.4-8.5 0.4-5-0.2-9.6-0.7-14.5-1.7-5.9-1.5-10.9-3.4-16-6.7l-3.4-2.4c-2.7-2.4-4.8-4.8-6.9-7.7-1.2-1.8-2.1-3.5-3.1-5.4-1.4-3.4-2.4-6.6-3.1-10.2-0.9-5.5-1.1-10.8-0.8-16.3 0.7-6.5 1.9-12.3 4.7-18.2l1.9-3.4c3-4.4 6.1-7.6 10.7-10.4l3.4-1.7c3.7-1.5 7-2.2 11-2.6h5.9l7.5 1 6.7 2 5.8 2.9 4.9 3.8 3.9 4.4 2.7 5 1.6 5.3 0.4 5.4-0.8 5.4-2 5.2-1.5 2.4-1.7 2.3-2 2.1-2.3 1.9-2.5 1.8-2.8 1.5-2.9 1.2-6.5 1.7-6.2 0.6c-13 0.2-13.9-15.6 3.4-15.6l3.8-1c2-0.8 3.5-1.6 5.1-3 2.1-2.2 3-4.1 3.3-7-0.1-3.1-0.9-5.2-2.8-7.6-2.1-2.2-4-3.3-6.8-4.6l-4.1-1.2c-5.8-1-11.3-1.4-16.5 1.5-0.8 0.5-1.5 1-2.2 1.5-7.1 6.6-7.9 17.2-7.5 26.1 0.5 6.7 2 12.5 6.6 17.6l1.8 1.6c7.9 6.3 18.6 7.6 28.5 7.2 3.4-0.3 6.5-0.8 9.8-1.8 4.9-1.6 8.7-3.6 12.7-6.8l2.5-2.5c3.6-4 5.8-7.9 7.7-12.8l1.2-4c1.3-5.7 1.6-10.9 1.4-16.6l-0.7-5.1c-0.8-4-1.9-7.5-3.7-11.2-1.1-2.1-2.2-4-3.6-5.9-2.5-3.2-5.1-5.8-8.3-8.4-2.1-1.5-4.2-2.8-6.4-4.1-4.4-2.2-8.5-3.7-13.2-5-3.2-0.8-6.3-1.3-9.5-1.8-5.9-0.6-11.6-0.8-17.5-0.5l-6.3 1c-3.2 0.8-6.1 1.7-9.1 2.8-3.1 1.3-6 2.8-8.9 4.4-5.8 3.6-9.7 6.7-12.9 12.1-0.5 198.6 0.5 394 0.5 592.6l-1.6 21-4.8 30.8-7.3 28.5-10.1 27.3-12.7 26.1-15 24.7-17.3 23.1-19.4 21.4-21.4 19.4-23.1 17.2-24.7 15.1-26.1 12.6-27.4 10-28.6 7.4-29.5 4.5-30.6 1.6-30.7-1.6-29.5-4.5-28.6-7.4-27.4-10-26.1-12.6-24.7-15.1-23.1-17.2-21.3-19.4-19.5-21.4-17.3-23.1-15-24.7-12.7-26.1-10.1-27.3-7.3-28.5-4.8-30.8-1.5-21c0-198.6 0.9-394 0.4-592.6-3.2-5.4-7.1-8.5-12.9-12.1-2.9-1.6-5.8-3.1-8.9-4.4-3-1.1-5.9-2-9-2.8l-6.4-1c-5.9-0.3-11.6-0.1-17.5 0.5-3.2 0.5-6.3 1-9.5 1.8-4.6 1.3-8.8 2.8-13.2 5-2.2 1.3-4.3 2.6-6.4 4.1-3.2 2.6-5.8 5.2-8.3 8.4-1.4 1.9-2.5 3.8-3.6 5.9-1.8 3.7-2.9 7.2-3.7 11.2l-0.7 5.1c-0.2 5.7 0.1 10.9 1.4 16.6l1.2 4c1.9 4.9 4.1 8.8 7.7 12.8l2.5 2.5c4 3.2 7.8 5.2 12.7 6.8 3.3 1 6.4 1.5 9.8 1.8 9.9 0.4 20.6-0.9 28.5-7.2l1.8-1.6c4.6-5.1 6.2-10.9 6.6-17.6 0.4-8.9-0.4-19.5-7.5-26.1-0.7-0.5-1.4-1-2.2-1.5-5.2-2.9-10.7-2.5-16.5-1.5l-4.1 1.2c-2.8 1.3-4.7 2.4-6.8 4.6-1.9 2.4-2.7 4.5-2.8 7.6 0.3 2.9 1.2 4.8 3.3 7 1.6 1.4 3.1 2.2 5.1 3l3.8 1c17.3 0 16.4 15.8 3.4 15.6l-6.2-0.6-6.5-1.7-2.9-1.2-2.8-1.5-2.5-1.8-2.3-1.9-2-2.1-1.7-2.3-1.5-2.4-2-5.2-0.8-5.4 0.4-5.4 1.6-5.3 2.7-5 3.9-4.4 4.9-3.8 5.8-2.9 6.7-2 7.5-1h5.9c4 0.4 7.4 1.1 11 2.6l3.4 1.7c4.6 2.8 7.7 6 10.7 10.4l1.9 3.4c2.8 5.9 4 11.7 4.7 18.2 0.3 5.5 0.1 10.8-0.8 16.3-0.7 3.6-1.7 6.8-3.1 10.2-0.9 1.9-1.9 3.6-3.1 5.4-2.1 2.9-4.2 5.3-6.9 7.7l-3.3 2.4c-5.2 3.3-10.2 5.2-16.1 6.7-4.9 1-9.5 1.5-14.5 1.7-2.8 0-5.6-0.1-8.5-0.4-4.6-0.5-8.8-1.5-13.2-2.9-2.5-1-4.8-2.1-7.2-3.3-3.9-2.2-7.2-4.6-10.5-7.6-1.9-1.9-3.6-3.8-5.2-5.9-2.7-3.8-4.7-7.4-6.6-11.6-1-2.6-1.8-5.2-2.6-7.9-1.1-4.9-1.6-9.6-1.9-14.6 0-3.4 0.2-6.7 0.5-10.1 0.5-3.3 1.2-6.3 2-9.5 1.1-3.2 2.2-6 3.6-9 1.5-2.9 3.1-5.5 5-8.2 2-2.5 4-4.9 6.4-7.2 2.5-2.2 4.9-4.2 7.7-6.2 2.9-1.8 5.8-3.5 8.9-5 3.3-1.5 6.6-2.7 10-3.9 3.7-1 7.3-1.8 11.1-2.5 4-0.6 7.9-1 12-1.3 4.3-0.1 8.5-0.1 12.9 0.1l8.2 1.3 7.9 2.2c3.9 1.5 7.4 3 11.1 4.8 3.6 2 6.9 4 10.3 6.2 4.4 3.1 8.6 6.3 12.7 9.7 13.8 11.8 26.4 24.8 40.7 35.9 2.8 2.1 5.6 4.1 8.6 6l5.5 3.2 5.8 3 12.3 5.3 13.2 4.4 13.8 3.3 14.4 2.4 14.6 1.4 14.9 0.3 14.8-0.7 14.6-1.8 14.2-2.9 6.9-1.8 6.8-2.1 6.6-2.4 6.3-2.7 6.1-2.9 5.9-3.2 5.7-3.5 5.3-3.7 5-4.1 4.7-4.2c3.4-3.6 6.7-7.1 9.7-11 3.7-5.1 6.8-10.3 9.3-16.2 1.6-4.4 2.8-8.5 3.3-13.2l0.1-3.2c-0.1-5.7-1.3-10.4-3.9-15.6-1-1.8-2.1-3.4-3.5-5-1.5-1.6-3-2.8-4.9-4.1-1.9-1.1-3.8-2-5.9-2.8-2.3-0.7-4.4-1.2-6.8-1.6l-4.7-0.3c-4.9 0.2-9.1 0.9-13.7 2.5l-3.9 1.9c-2.9 1.7-5 3.4-7.2 6-0.9 1.5-1.6 2.8-2.2 4.4-1.3 5.3-0.6 11.1 2.3 15.7 0.6 0.8 1.1 1.5 1.8 2.2 6.8 5.6 17.1 3.8 24.7 0.8 10.3-6.7 16.3 8.7 6 14-5.1 2.1-10.2 3.3-15.8 3.9l-4.1 0.2c-5.2-0.2-9.5-1.1-14.2-3-2-1-3.7-2-5.5-3.3-1.7-1.5-3.2-2.9-4.6-4.6-1.4-1.9-2.5-3.7-3.6-5.7-0.9-2.3-1.6-4.4-2.3-6.8-0.5-2.6-0.8-5-1-7.7l0.1-3.4 0.4-3.4 0.9-3.3 1.1-3.1 1.5-3 1.8-2.7 4.3-4.8 5.1-4 5.7-3.2c3-1.3 6-2.3 9.2-3.2 3.3-0.7 6.5-1.2 9.9-1.5h6.7c3.5 0.3 6.6 0.8 10 1.6l6.4 2.2 6.1 3.2 2.9 2 2.7 2.3 2.5 2.5 2.3 2.8c1.7 2.5 3.1 4.8 4.4 7.5 1 2.2 1.9 4.4 2.6 6.7 1.1 3.9 1.7 7.4 2 11.4 0.2-4 0.8-7.5 1.9-11.4zm22.3 861.2l23.3-3.5 22.5-5.8 21.6-7.9 20.6-10 19.5-11.9 18.4-13.7 16.9-15.4 15.4-16.9 13.8-18.3 11.9-19.6 9.9-20.6 8-21.5 5.8-22.5 3.9-25.2 1.2-16.2v-482.2h0.1q-0.1-6.9-0.1-13.9l-5.2 1.6-13.4 3.7-13.2 3.2-13 2.7-12.9 2.3-12.5 1.8-12.4 1.4-12 0.9-11.8 0.5-11.5 0.1-11.2-0.3-10.9-0.8-10.5-1.1-10.1-1.5-9.8-2-9.4-2.2-9-2.7-8.5-3-8.1-3.4-7.7-3.7-7.2-4.1-6.6-4.5-6.2-4.7-3.8-3.6-3.9 3.6-6.2 4.7-6.6 4.5-7.2 4.1-7.7 3.7-8.1 3.4-8.5 3-9 2.7-9.4 2.2-9.8 2-10.1 1.5-10.5 1.1-10.9 0.8-11.2 0.3-11.5-0.1-11.8-0.5-12-0.9-12.4-1.4-12.5-1.8-12.8-2.3-13.1-2.7-13.2-3.2-13.4-3.7-5.2-1.6q0 7-0.1 13.9h0.1v482.2l1.2 16.2 3.9 25.2 5.8 22.5 8 21.5 9.9 20.6 11.9 19.6 13.8 18.3 15.4 16.9 16.9 15.4 18.4 13.7 19.5 11.9 20.6 10 21.6 7.9 22.5 5.8 23.3 3.5 24.3 1.3zm-14.1-756.1l3.8 3.5 5.2 4.1 5.8 3.8 6.3 3.6 6.7 3.3 7.3 3 7.8 2.8 8.2 2.4 8.6 2.1 9.1 1.8 9.5 1.4 9.9 1.1 10.2 0.7 10.6 0.3 10.9-0.1 11.3-0.5 11.5-0.9 11.8-1.3 12.1-1.7 12.3-2.2 12.5-2.6 12.7-3.1 13-3.6 9.6-2.9q0-16.7-0.1-33.4l-5.8 3.1-6.7 3-6.9 2.8-7.1 2.6-7.3 2.2-15.1 3.7-15.5 2.6-15.8 1.5-16 0.3-15.9-0.8-15.8-1.9-7.8-1.4-7.7-1.8-7.5-2-7.4-2.3-7.3-2.6-7.1-3-6.8-3.3-6.6-3.6-6.4-3.9-6.1-4.3-5.8-4.6-5.5-5-5.1-5.3-4.7-5.6q-2.8-3.6-5.3-7.5c-2.9-4.5-5.3-9.1-7.3-14-2.5-6.5-4-12.7-4.5-19.7-0.5 7-2 13.2-4.5 19.7-2.1 4.9-4.5 9.5-7.3 14-1.7 2.6-3.5 5.1-5.3 7.5l-4.7 5.6-5.1 5.3-5.5 5-5.8 4.6-6.1 4.3-6.4 3.9-6.6 3.6-6.9 3.3-7 3-7.3 2.6-7.4 2.3-7.5 2-7.7 1.8-7.8 1.4-15.8 1.9-16 0.8-15.9-0.3-15.8-1.5-15.6-2.6-15-3.7-7.3-2.2-7.1-2.6-6.9-2.8-6.7-3-5.9-3.1q0 16.7 0 33.4l9.6 2.9 12.9 3.6 12.8 3.1 12.5 2.6 12.3 2.2 12.1 1.7 11.8 1.3 11.5 0.9 11.3 0.5 10.9 0.1 10.6-0.3 10.2-0.7 9.9-1.1 9.4-1.4 9.1-1.8 8.7-2.1 8.2-2.4 7.7-2.8 7.3-3 6.8-3.3 6.3-3.6 5.7-3.8 5.2-4.1 3.9-3.5c4.2-4.1 7.1-6.1 10.2-6 3-0.1 6 1.9 10.2 6zm17.9 802.2l28.1-4.3 27.2-7 26-9.6 24.8-12 23.5-14.2 22-16.5 20.3-18.4 18.5-20.3 16.5-22 14.3-23.5 12-24.8 9.6-26 7-27.1 4.6-29.4 1.4-19.9v-473.5h-0.1q0-20-0.1-39.6l-10.9 4.4-13.8 5.2-6.5 2.2q0.1 13.9 0.1 27.8v474.9l-1.3 17.3-4.1 26.7-6.2 23.9-8.5 23-10.6 22-12.7 20.8-14.7 19.5-16.4 18.1-18 16.4-19.6 14.6-20.8 12.6-22 10.7-23 8.4-24 6.2-24.9 3.8-25.8 1.3-25.9-1.3-24.8-3.8-24-6.2-23-8.4-22-10.7-20.9-12.6-19.5-14.6-18-16.4-16.5-18.1-14.6-19.5-12.7-20.8-10.6-22-8.5-23-6.2-23.9-4.1-26.7-1.3-17.3v-474.9q0-13.9 0-27.8l-6.4-2.2-13.8-5.2-10.9-4.4q-0.1 19.6-0.1 39.6h-0.2v473.5l1.5 19.9 4.6 29.4 7 27.1 9.6 26 12 24.8 14.3 23.5 16.5 22 18.4 20.3 20.4 18.4 22 16.5 23.5 14.2 24.8 12 26 9.6 27.1 7 28.1 4.3 28.2 1.4zm228.5-833.7q-2.1 1.6-4.2 3.2 0 19 0 38.1l1.2-0.4 13.4-5 12.9-5.3 3.7-2.4c-0.1-17.4-0.1-34.9 0-52.3-8.9 8.1-17.6 16.5-27 24.1zm-540.3-24.1c0.1 17.4 0.1 34.9 0 52.3l3.7 2.4 12.9 5.3 13.4 5 1.2 0.4q0-19.1 0-38.1-2.1-1.6-4.2-3.2c-9.4-7.6-18.1-16-27-24.1z"/>
</svg>