<svg version="1.2" xmlns="http://www.w3.org/2000/svg" viewBox="0 0 378 476" width="378" height="476">
	<title>Silistra-pdf</title>
	<style>
		.s0 { fill: #2744a0 } 
		.s1 { fill: #fcd334 } 
		.s2 { fill: #f1471d } 
	</style>
	<path id="Path 1" class="s0" d="m377.2 89.8v252.6l-1.4 13.8-3.3 13.5-5 13-6.7 12.2c-4 6.1-8.1 11.5-12.8 17.1-5 5.4-10.1 10.4-15.7 15.3-5.9 4.8-11.9 9.1-18.2 13.4-6.8 4.1-13.5 7.9-20.6 11.4-7.4 3.5-14.8 6.5-22.4 9.4l-16 5c-18.5 4.7-36.8 7.9-55.9 8.7q-9.9 0.4-19.8 0c-16.3-0.7-31.9-3.1-47.8-6.5-8.2-2.1-16.1-4.5-24.2-7.1-7.6-2.9-15-6-22.4-9.4-7.1-3.6-13.8-7.3-20.6-11.4-6.3-4.3-12.3-8.7-18.2-13.5-5.6-4.9-10.7-9.8-15.7-15.3l-8.9-11.1c-4-6-7.3-11.8-10.6-18.2l-5-13-3.2-13.5-1.4-13.8v-341.6h68.1v31.2h8.8v-30.9h68.1v30.9h8.8v-30.9h68.1v30.9h8.8v-30.9h68.2v30.9h8.7v-31.2h68.2z"/>
	<path id="Path 2" class="s1" d="m64.6 36.9h18.6v-30.9h58.3v30.9h18.7v-30.9h58.2v30.9h18.7v-30.9h58.2v30.9h18.7v-31.1h58.2v336.4l-0.4 6.6-0.9 6.6-1.3 6.5-1.8 6.3-2.2 6.3-2.6 6.1-3 5.9-7.1 11.5-8.6 10.7-9.8 10-11 9.3-12.1 8.5-13.1 7.7-14 6.8-14.9 5.8-15.6 4.9-16.3 3.9-16.8 2.8-17.4 1.7c-10.1 0.4-19.5 0.4-29.6-0.2l-7.2-0.5-17.2-2.2-16.5-3.3-16-4.4-15.2-5.4-14.5-6.3-13.6-7.3-12.6-8-11.5-8.9-10.5-9.7-9.1-10.4-7.9-11.1-3.4-5.8-3-6-2.6-6.1-2.2-6.3-1.7-6.3-1.4-6.5-0.8-6.6-0.5-6.6q0-168.2 0-336.4h58.3z"/>
	<path id="Path 3" fill-rule="evenodd" class="s2" d="m244.4 307.4c-0.1 1.8-0.3 3.4-0.7 5.2-0.7 2.3-1.4 4.3-2.5 6.5l-2.1 3.3-2.4 3-2.8 2.9-3.3 2.7-3.6 2.6-3.9 2.3-4.3 2.1-4.6 1.8-4.8 1.5c-6.2 1.4-12.2 2.6-18.6 2.7-2.8 0-5.7-0.2-8.6-0.3l-5.3-0.7-5.2-1.1-4.9-1.3-4.7-1.7-4.5-1.9-4.1-2.2-3.8-2.4-3.4-2.7-3-2.8c-2.2-2.5-4.1-4.8-5.8-7.7-1.1-2.2-1.9-4.2-2.6-6.6-0.3-1.8-0.6-3.4-0.7-5.2v-107.3h110.2zm-55.1-65.9c4.6-0.9 7.6-3 8.8-5.7h0.1l10.9-24.5h-3.3l-7.7 17.9c-2-3.2-7.1-5.3-7.1-9.7q-0.1-4-0.1-8.2h-3.2q0 4.2-0.1 8.2c0 3.4-2.9 5.4-5.2 7.5-0.7 0.7-1.4 1.4-1.9 2.2l-7.7-17.9h-3.3l11 24.5c1.2 2.7 4.2 4.8 8.8 5.7q0 0 0 0zm1.4 61.4c4.6 0.2 8 0.2 10.8-0.6 2.7-0.8 4.8-2.4 6.6-5.8l18-35.4h-3.3l-10 18.1c-3.1 6.8-10.9 3.9-15.2 5.6-3.9 1.8-6.7 6.7-6.9 18.1zm0-44.2c4.6 0.1 8 0.2 10.8-0.7 2.7-0.8 5-2.3 6.6-5.8l18.2-40.9h-3.2l-10.3 23.6c-3.1 6.8-10.9 3.9-15.2 5.6-3.9 1.8-6.7 6.7-6.9 18.2zm0 22.1c4.6 0.1 8 0.2 10.8-0.7 2.7-0.8 4.8-2.4 6.6-5.8l18-35.4h-3.3l-10 18.1c-3.1 6.9-10.9 3.9-15.2 5.6-3.9 1.8-6.7 6.8-6.9 18.2zm0 44.3c4.6 0.1 8 0.2 10.8-0.7 2.7-0.8 4.8-2.4 6.6-5.8l18-35.4h-3.3l-10 18.1c-3.1 6.8-10.9 3.9-15.2 5.6-3.9 1.8-6.7 6.7-6.9 18.2zm-9.7-40.3c-4.3-1.7-12.1 1.2-15.2-5.6l-10-18.1h-3.3l18.1 35.4c1.7 3.4 3.8 5 6.5 5.8 2.8 0.8 6.2 0.8 10.8 0.6-0.2-11.4-3-16.3-6.9-18.1zm1.9 43.5c0 3 2.1 5.6 4.9 6.3v5.6h3v-5.6c2.8-0.7 4.9-3.3 4.9-6.3zm-1.8-87.8c-4.3-1.7-12.1 1.2-15.2-5.6l-10.3-23.6h-3.2l18.3 40.9c1.5 3.5 3.8 5 6.5 5.8 2.8 0.9 6.2 0.8 10.8 0.7-0.2-11.5-3-16.4-6.9-18.2zm0 22.1c-4.3-1.7-12.1 1.3-15.2-5.6l-10-18.1h-3.3l18.1 35.4c1.7 3.4 3.8 5 6.5 5.8 2.8 0.9 6.2 0.8 10.8 0.7-0.2-11.4-3-16.4-6.9-18.2zm0 44.3c-4.3-1.7-12.1 1.2-15.2-5.6l-10-18.1h-3.3l18.1 35.4c1.7 3.4 3.8 5 6.5 5.8 2.8 0.9 6.2 0.8 10.8 0.7-0.2-11.5-3-16.4-6.9-18.2z"/>
	<path id="Path 4" fill-rule="evenodd" class="s2" d="m362.3 275.7v66.2c-1.5 64-76.9 116.1-168.1 118.7v-109.3l5.8-0.6 5.8-1 5.6-1.3 5.3-1.6 5.1-2.1 4.7-2.3 4.5-2.6 4.2-2.9 3.7-3.2 3.4-3.4 2.9-3.7 2.4-3.9 1.1-2 0.8-2.1 0.8-2.1 0.6-2.2 0.5-2.2 0.3-2.2 0.1-2.3v-31.9zm-129.1 152.4c2.3 0 4.1 1.7 4.3 3.9q0 0 0 0c0 7.5 0 13.1 0 19.4l5-1.1 1.3-0.3c0-5.7 0-11.1 0-18q0 0 0 0c0.2-2.2 2.1-3.9 4.4-3.9 2.2 0 4.1 1.7 4.3 3.9q0 0 0 0c0 6 0 10.8 0 15.7l5-1.5 7.3-2.4 3.9-1.5q0-1.3 0-2.9 0 0 0 0 0-0.1 0-0.2c0-6.1 5-11.1 11.1-11.1 4 0 7.4 2 9.4 5.1l2.5-1.2 6.2-3.5 6-3.6 1.5-1.1h-3.5l15.6-9.4 0.4 0.3 2.3-1.8 4.9-4.3 2.2-2.2h-110.8v48.5l2.4-0.2 8-1.2 1.9-0.4c0-7 0-12.9 0-21.1q0 0 0.1 0c0.2-2.2 2-3.9 4.3-3.9zm7.5-13.7l15.6 9.4h-31.2zm32.6-44.6v-1-0.3c0.6-2.7 3.2-4.7 6.4-4.7 3.1 0 5.8 2 6.3 4.7v0.3 1h7.7l-6-42.4h-17.2l-6 42.4zm5.8-41.1l6.3 5.7h-12.5zm-6.9 6.9h13.7v13h-13.7zm2.1 6.4c0 2.6 2.1 4.8 4.8 4.8 2.6 0 4.7-2.2 4.7-4.8 0-2.6-2.1-4.7-4.7-4.7-2.7 0-4.8 2.1-4.8 4.7zm-76.2 47.9h23.5l1.1-2.2c2.7 0 3.4 0 6.1 0l5.7-15.4h-36.4v3.5c1.2 0.6 2.1 1.6 2.3 2.9v0.1 9.3h-2.3zm129.1-2.7l-6.8-18.5 1.3-5.3h-21l1.3 5.3-6.8 18.5zm-64.3 0l-6.8-18.5 1.3-5.3h-21l1.3 5.3-6.8 18.5zm18.7-69.2v2.5h0.2v-2.5zm-5.9 2.5h0.8v-2.5h-0.8zm-1.2-3.1h9.2l-1.4-2.3h-6.4zm1.3-3.2l1.5-0.3v-4.2l-1.5 0.2zm6.5-4.2l-1.4-0.3v4.3l1.4 0.2zm-5.1-2.5l-2.4 0.6v1.1l2.4-0.6h3.7l2.4 0.6v-1.1l-2.4-0.6zm0.2-1h3.4l-0.4-1.8h-2.6zm-0.1-2.4h3.7v-1.1h-3.7zm-0.3-11.5l0.4 3.2-0.2 0.2-0.8-1.2-0.2-0.4-0.6 0.9 0.4 0.5 0.8 1.6 0.2 1.9-0.2 0.1-0.1 1.5 0.7 1.5h0.8l-0.3-0.9-0.1-0.7-0.2-0.2 0.4-0.4v-0.3l-0.3-0.4 0.3-0.8 0.2-1.5h0.4l0.7 2 0.2 0.2-0.1 0.9 0.7 2v0.1h0.9l-0.3-1.1-0.5-1.4 0.1-0.4v-0.6l-0.5-1.7 0.2-0.1-0.2-0.3 1.2 0.3-0.5-1-0.9-0.6 0.3-0.2-1 0.2-0.4-0.2 0.7-0.5 0.7-0.9 1 0.9 0.9 0.4 1.4-0.7 0.5-0.2 0.2-0.3v-0.4l-0.6 0.1-0.4 0.1-0.3 0.3-0.8 0.5-0.8-0.9-0.2-0.6 0.5-0.3-0.1-0.2-0.8-0.5-1.2-0.2-0.1 0.3-0.3-0.3-0.2-0.7-0.3-0.1-0.1-0.3h0.7l0.5-0.8-0.4-1-0.9-0.2-0.5 0.5-0.1 0.7 0.2 1.2-0.3 0.3-0.5-0.4-0.5 0.3-0.7 0.1-0.6-1.1-0.2-0.6 0.1-0.4-0.3-0.3h-0.7l-0.5 0.3 0.1 0.4 0.7 0.1v0.3l0.8 2.3zm13.8 42.9l3 20.9 0.1-18.9 0.6-2zm-0.1-1.3h4.2l1.5-5-6.5-0.5zm-26.9 1.2l0.6 2.1 0.2 18.9 2.9-21zm4.7-6.8l-6.5 0.5 1.5 5.1h4.2zm87.4 30.8h-31.2l-2.2 9 0.4 1.1h29.7l0.2-0.4 1.9-5.3zm-4.4 12.7h-27.7l5.7 15.4c2.6 0 3.4 0 6.1 0l1 2.2h5l1.2-1.8h-2.8v-9.3-0.1c0.4-1.9 2.3-3.3 4.5-3.3 2 0 3.7 1.1 4.3 2.7l1.7-3.5zm-14.7 23.8l-2.8-5.8q-54.8 0-109.5 0l-6.6 13.4h112.2l3.9-4.2zm-138.5 11.3h15.8v-1.8l6.5-13.2h-22.3zm15.8 47.7v-45.2h-15.8v18q3.9 0 7.8 0 0 14 0 27.9l4.7-0.4zm-4.5-76.4c0.4-1.9 2.2-3.4 4.4-3.4 2.2 0 4.1 1.5 4.5 3.4v0.1 9.3h-8.9v-9.3zm-11.3-8.9h37.3l0.4-1.2-2.2-9h-35.5zm72.4-44.2h17.2l3.6-3.9h-24.5zm1.5 24.4h14.3l-7.2 4.1zm50.3 11.6l1-4.2h-1.4v-9.1c0.7-0.2 1.2-0.9 1.2-1.8 0-0.8-0.5-1.5-1.2-1.8v-2.7h-1.4v2.8c-0.7 0.2-1.2 0.9-1.2 1.7 0 0.8 0.5 1.5 1.2 1.8v1.7h-8.5c0-1 0-2.1 0-3.3h-1.4v3.3h-8.4v-1.7c0.7-0.2 1.2-0.9 1.2-1.8 0-0.8-0.5-1.5-1.2-1.8v-2.7h-1.4v2.8c-0.7 0.3-1.2 0.9-1.2 1.7 0 0.8 0.5 1.5 1.2 1.8v9.1h-1.5l1.1 4.2zm-1.8-4.2h-8.5c0-2.2 0-4.1 0-6h8.5zm-62.5 4.2l1.1-4.2h-1.5v-9.1c0.7-0.3 1.2-1 1.2-1.7 0-0.8-0.5-1.5-1.2-1.8v-2.7h-1.3v2.6c-0.8 0.3-1.3 1-1.3 1.9 0 0.8 0.5 1.5 1.3 1.8v1.6h-8.5v-3.3h-1.4c0 1.2 0 2.3 0 3.3h-8.5v-1.7c0.7-0.3 1.2-0.9 1.2-1.7 0-0.8-0.5-1.5-1.2-1.8v-2.7h-1.4v2.7c-0.7 0.2-1.2 0.9-1.2 1.8 0 0.8 0.5 1.5 1.2 1.7v9.1h-1.4l1 4.2zm-20.1-10.2h8.5c0 1.9 0 3.8 0 6h-8.5zm9.9 0h8.5v6h-8.5zm62.9 5.9h-8.5v-5.9h8.5zm-69.8 14.9c0.5-2.7 3.2-4.7 6.3-4.7 3.2 0 5.9 2 6.4 4.7v0.3 13.2h-12.7v-13.2zm58.9-2.4l0.5-1.3-2.3-9h-3.8l1.5 10.3zm-40.3 2.3l5.7 15.5c8.1 0 19.9 0 28 0l5.7-15.5h-12.8v13.5h-12.7v-13.5zm-1.3-3.6l0.4 1.3h4.1l1.5-10.3h-3.8zm59.4 4v13.1h-12.8v-13.1l0.1-0.3c0.5-2.7 3.2-4.7 6.3-4.7 3.1 0 5.8 2 6.3 4.7zm-37.6 41.8l15.6 9.4h-31.2zm-95.5-221.7h-57.6q0 37.8 0 75.6h-110.5c0-26.1 0-101.7 0-164.2h168.1zm-130.5-46h30.2l2-3.1-1.3-2.8 0.4-3.1h-36.3l-3.8 9.8 0.6 13.8 1.9 7.6 0.9 4.9 0.9 4 0.8 5.4 1.2 24.1-1.5 27.6-1 20.6h34.9l-1.2-6 0.8-3.9v-1.3h-29.5v-73.6h30.6v-0.1l-0.8-15.9h-29.8zm33.5 10.5l-1.1 13.4v0.1h25.9v73.6h-27.6v1.3l-1.7 3.9 1.2 6h33.1l-1.2-7.6-0.5-24.3v-33.3l-1.2-11.8 2-4 2.3-21.1-1.4-15.7h-29.9l-0.4 3.1 1.3 2.8-0.3 3.1h24.3v8h-24.7zm21.8-31.1v-4.5c0 0-3.5 0-3.8 0-0.4 0-6.7-2.3-6.7-2.3l-6.9-0.4-4.3 2.4-11.6-4.2-3.4 0.2-3.1 3.1-3-2.5-3-0.4-0.5 0.5-4.7 0.1-1.3 1.5v6.5zm-25.9 23.3l0.5-1.8h-28.8v6.1h28.6zm1.5 93.2h25.9v-70.2h-24.1l1.2 11.2-0.7 2.1 2.7 6.4-0.1 0.2h0.4q0.9 0 1.6 0.1l0.7 0.2q0.4 0.1 0.8 0.3 1.2 0.6 1.2 2.5 0 1.1-0.5 1.8-0.5 0.7-1.5 0.9v0.2l0.9 2.1q0.2 0.3 0.3 0.5 0.1 0.3 0.2 0.5 0.3 0.5 0.6 0.9 0.3 0.3 0.8 0.4v0.9h-4.1v-0.9h0.2q0.2 0 0.3-0.1 0 0 0 0l-0.1-0.9q0 0 0-0.1 0 0-0.1-0.1l-1.2-2.8h-1.1v3.2q0 0.1 0 0.2 0 0.1 0 0.2 0.1 0.1 0.2 0.3 0.1 0.1 0.4 0.1h0.3v0.9h-1.3l0.1 2.2-1.8 4.8q0.4 0.1 0.8 0.3 1.2 0.6 1.2 2.6 0 1-0.5 1.7-0.6 0.8-1.5 0.9v0.2l0.9 2.1q0.2 0.3 0.3 0.5 0.1 0.3 0.2 0.5 0.3 0.6 0.6 0.9 0.3 0.3 0.8 0.5v0.8h-3l0.2 1.7-2.1 16zm-29.3 0h27.9l-0.6-3.2 3.6-16.1-0.1-1.7h-0.6v-0.8h0.2q0.1 0 0.3-0.1 0 0 0 0l-0.1-0.9q0-0.1 0-0.1 0-0.1-0.1-0.1l-1.2-2.8h-1.1v3.2q0 0 0 0.1 0 0.1 0 0.2 0.1 0.2 0.2 0.4 0.1 0.1 0.4 0.1h0.3v0.8h-4.2v-0.8h0.3q0.4 0 0.6-0.2 0.1-0.2 0.1-0.4 0 0 0-0.1 0 0 0-0.1 0 0 0 0 0 0 0 0c0 0 0-8 0-8q0 0 0 0 0-0.1 0-0.1 0-0.1 0-0.1 0-0.2-0.1-0.4-0.2-0.2-0.6-0.2h-0.3v-0.8h4.3q0.8 0 1.6 0.1l1.5-4.7 0.1-2.2h-2.1v-0.8h0.3q0.5 0 0.6-0.2 0.2-0.2 0.2-0.4 0-0.1 0-0.1 0-0.1 0-0.1 0 0 0 0 0 0 0-0.1c0 0 0-7.9 0-7.9q0 0 0 0 0-0.1 0-0.1 0-0.1 0-0.1 0-0.3-0.2-0.4-0.1-0.2-0.6-0.2h-0.3v-0.9h2.9v-0.1l-2.6-6.5 0.6-2.1-1.8-11.1h-29.4zm9.9-50.4h4.5q2.7 0 4 1.2 1.2 1.1 1.5 2.6 0.1 0.4 0.2 0.9 0 0.4 0 0.8 0 0.3 0 0.5 0 0.3-0.1 0.6-0.2 1.7-1.4 3.2-1.3 1.5-3.8 1.5h-4.9v-0.8h0.3q0.4 0 0.6-0.2 0.2-0.2 0.2-0.7v-7.9q0-0.5-0.2-0.7-0.2-0.2-0.6-0.2h-0.3zm9.7 0.1h4.3v0.8q0 0 0 0 0 0 0 0-0.1 0-0.1 0 0 0 0 0 0 0 0 0-0.1 0-0.1 0-0.2 0-0.4 0.1-0.2 0.1-0.2 0.3 0 0.1 0 0.2 0.1 0 0.1 0.1 0 0.1 0 0.1 0 0 0 0.1 0 0 0 0.1 0 0 0.1 0.1l1.9 5.7h0.1l1.7-5.4q0.1-0.3 0.1-0.6 0.1-0.2 0.1-0.4 0-0.3-0.2-0.3-0.2-0.1-0.5-0.1-0.1 0-0.1 0-0.1 0-0.1 0v-0.8h3.1v0.8q-0.1 0-0.1 0 0 0-0.1 0-0.4 0-0.7 0.2-0.2 0.3-0.4 0.6 0 0.1-0.1 0.2 0 0.1 0 0.2-0.1 0.2-0.2 0.3 0 0.1 0 0.2 0 0 0 0 0 0 0 0.1-0.1 0-0.1 0.1 0 0 0 0.1l-2.6 8.4h-1l-3-8.7q-0.2-0.6-0.3-0.9-0.2-0.3-0.3-0.5-0.2-0.2-0.4-0.3-0.1 0-0.4 0h-0.1zm25.3 11.5q-1.8 0-3.3-1.5-1.5-1.5-1.5-4.4 0-2.7 1.4-4.3 1.3-1.6 3.4-1.6 1.9 0 3.4 1.5 1.5 1.5 1.5 4.4 0 2.9-1.5 4.4-1.5 1.5-3.4 1.5zm0-1q0.2 0 0.5-0.1 0.3 0 0.6-0.2 0.5-0.3 0.9-1.4 0.5-1 0.5-3.2 0-2.7-0.7-3.7-0.6-1-1.3-1.1-0.2-0.1-0.3-0.1-0.1 0-0.2 0-1 0-1.7 1.1-0.7 1.1-0.7 3.8 0 2.2 0.5 3.2 0.4 1 0.9 1.4 0.3 0.2 0.6 0.2 0.2 0.1 0.4 0.1zm-37.4 10.3h-0.5q-0.2-0.7-0.6-1.1-0.4-0.4-0.8-0.6-0.4-0.2-0.7-0.3-0.3 0-0.5 0-0.5 0-0.8 0.3-0.3 0.3-0.4 0.7 0 0 0 0.1 0 0.1 0 0.2 0 0.5 0.3 0.8 0.2 0.4 0.6 0.6 0.1 0.1 0.1 0.1 0.1 0.1 0.2 0.1 1.1 0.6 1.8 1.2 0.7 0.5 1.2 1 0.5 0.5 0.7 1.1 0.2 0.5 0.2 1.2 0 1.6-1.1 2.4-1.1 0.9-2.5 0.9-0.7 0-1.4-0.2-0.8-0.1-1.8-0.6l-0.3-2.4h0.5q0.3 0.6 0.7 1 0.3 0.5 0.8 0.7 0.4 0.3 0.8 0.4 0.4 0.1 0.7 0.1 0.8 0 1.1-0.4 0.4-0.4 0.4-1 0-0.4-0.2-0.7-0.2-0.4-0.5-0.7-0.3-0.2-0.7-0.5-0.4-0.2-0.8-0.5-0.2-0.1-0.4-0.2-0.1-0.1-0.3-0.2-0.9-0.6-1.5-1.4-0.6-0.7-0.6-1.9 0-1.3 0.8-2.3 0.9-0.9 2.5-0.9 0.3 0 0.6 0 0.4 0.1 0.7 0.2 0.4 0.1 0.8 0.3 0.4 0.1 0.7 0.3zm8.2-2.7l0.6 2.4q0 0 0 0h-0.4q-0.7-0.9-1.2-1.2-0.6-0.2-1-0.2 0 0 0 0-0.3 0-0.4 0.1-0.2 0-0.2 0.5c0 0 0 8 0 8q0 0 0 0 0 0.1 0 0.1 0 0.1 0 0.1 0 0.3 0.1 0.4 0.1 0.2 0.7 0.2h0.2v0.9h-4.4v-0.9h0.3q0.6 0 0.7-0.2 0.1-0.3 0.1-0.6v-8q0-0.5-0.2-0.5-0.2-0.1-0.4-0.1 0 0 0 0 0 0-0.1 0-0.1 0-0.2 0 0 0-0.1 0-0.4 0.1-0.8 0.4-0.4 0.3-1 1h-0.5l0.7-2.4zm0.6 2.4q0.3-0.6 0.7-1 1.3-1.6 3.4-1.6 2 0 3.4 1.4 1.5 1.5 1.5 4.4 0 2.9-1.5 4.4-1.4 1.5-3.4 1.5-1.8 0-3.3-1.5-1.5-1.5-1.5-4.4 0-1.8 0.7-3.2zm4.2 8.1q0.2 0 0.4 0 0.3-0.1 0.6-0.2 0.5-0.4 0.9-1.4 0.5-1 0.5-3.2 0-2.7-0.6-3.7-0.7-1-1.4-1.2-0.1 0-0.2 0-0.1 0-0.2 0-1.1 0-1.8 1.1-0.6 1.1-0.6 3.8 0 2.2 0.4 3.2 0.4 1 0.9 1.3 0.3 0.2 0.6 0.3 0.3 0 0.5 0zm12.5-10.4h4.3v0.8q0 0 0 0-0.1 0-0.1 0 0 0 0 0 0 0 0 0 0 0-0.1 0 0 0 0 0-0.2 0-0.4 0.1-0.2 0.1-0.2 0.3 0 0.1 0 0.1 0 0.1 0 0.2 0 0.1 0.1 0.1 0 0 0 0.1 0 0 0 0.1 0 0 0 0l2 5.7h0.1l1.6-5.3q0.1-0.3 0.2-0.6 0.1-0.2 0.1-0.4 0-0.3-0.2-0.4-0.3 0-0.6 0 0 0-0.1 0 0 0-0.1 0v-0.8h3.1v0.7 0.1q0 0 0 0-0.1 0-0.1 0-0.4 0-0.7 0.2-0.3 0.3-0.4 0.5 0 0.2-0.1 0.2 0 0.2-0.1 0.2 0 0.3-0.1 0.4 0 0.1-0.1 0.2 0 0 0 0 0 0 0 0 0 0.1 0 0.2 0 0-0.1 0.1l-2.6 8.4h-0.9l-3-8.7q-0.2-0.6-0.4-0.9-0.1-0.4-0.3-0.5-0.1-0.2-0.3-0.3-0.2 0-0.4 0h-0.1zm9.7 0v-0.1h3.4l2 7.2h0.1l2.1-7.2h3.1v0.9h-0.4q-0.3 0-0.4 0.1-0.1 0.2-0.1 0.3 0 0.1 0 0.1 0 0.1 0 0.1l1 8q0.1 0.6 0.3 0.8 0.2 0.2 0.8 0.2v0.8h-4v-0.8q0 0 0.1 0 0 0 0.1 0 0.2 0 0.2 0 0.1-0.1 0.2-0.1 0.1 0 0.1-0.1 0.1 0 0-0.2 0 0 0-0.1 0 0 0-0.1l-0.9-7.2h-0.1l-2.4 8.4h-1.1l-2.3-8.4h-0.1l-0.8 6.6q0 0 0 0 0 0.1 0 0.1 0 0 0 0 0 0 0 0 0 0.1 0 0.1 0 0 0 0.1 0 0.1-0.1 0.2 0 0 0 0.1 0 0 0 0 0 0 0 0.1 0 0.3 0.2 0.4 0.1 0.1 0.4 0.1h0.4v0.8h-3v-0.8h0.3q0.6 0 0.7-0.4 0.2-0.4 0.3-0.8l0.8-7q0 0 0 0 0 0 0-0.1 0 0 0 0 0 0 0 0 0-0.1 0-0.2 0.1 0 0.1-0.1 0-0.1 0-0.1 0-0.1 0-0.2 0-0.1 0-0.2 0-0.1 0-0.1 0-0.1 0-0.1 0 0 0-0.1 0-0.1-0.2-0.2-0.2 0-0.6 0h-0.2v-0.8zm-10.1-62.7l-0.3 6h23.5v-6zm-19.2 46.4v7.6q0 0.6 0.2 0.7 0.2 0.2 0.5 0.2 0 0 0 0 0.1 0 0.1 0 0.1 0 0.2 0 0.1 0 0.2 0 1.4-0.1 2.1-0.9 0.7-0.8 0.9-1.8 0.1-0.6 0.2-1.1 0-0.5 0-0.9 0-0.1 0-0.2 0-0.2 0-0.3 0 0 0-0.1 0-0.1 0-0.1 0-0.3 0-0.7 0-0.3-0.1-0.6-0.2-1-0.9-1.8-0.7-0.8-2.1-0.8-0.1 0-0.1 0-0.1 0-0.2 0 0 0-0.1 0-0.1 0-0.1 0-0.1 0-0.1 0 0 0 0 0-0.1 0-0.1 0-0.2 0-0.4 0.1-0.2 0.2-0.2 0.7zm17 21.3l-0.2-2.9 0.3-0.8q-0.4-0.4-1.3-0.4-0.6 0-0.7 0.3-0.1 0.2-0.2 0.5v3.7h0.8q0.2 0 0.4 0 0.2 0 0.4-0.1 0.3-0.1 0.5-0.3zm5.5-18q0.3-0.2 0.6-0.7 0.2-0.5 0.2-1.2 0-0.2-0.1-0.4 0-0.3-0.1-0.7 0 0-0.1-0.1c-0.1-0.2-0.2-0.4-0.5-0.6q-0.4-0.4-1.3-0.4-0.6 0-0.7 0.2-0.1 0.2-0.1 0.6v3.7h0.7q0.2 0 0.4-0.1 0.2 0 0.5 0 0.2-0.1 0.5-0.3zm-4.9 14.9l-0.1 0.2 0.2 2.2q0.1-0.4 0.1-1.2 0-0.1 0-0.4 0-0.3-0.1-0.6 0-0.1-0.1-0.2zm-33.1-77.1h59.7l-3.6-6.6h-52.5zm-36.9-119.3c13.4 0 26.2 0 38.5 0v31h38.4v-31c13.3 0 26 0 38.5 0v31h38.4v-31c12.9 0 25.6 0 38.5 0v31h38.4v-31c12.5 0 25.3 0 38.5 0v31h38.5v-31c12.3 0 25 0 38.4 0 0 33.7 0 37.7 0 81.1h-346.1c0-37.1 0-50.2 0-81.1z"/>
	<path id="Path 5" fill-rule="evenodd" class="s0" d="m184.3 460.6c-91.3-2.4-166.5-54.6-168-118.7h-0.1v-66.2h110.6q0 16 0 31.9l0.2 2.3 0.2 2.2 0.5 2.2 0.6 2.2 0.8 2.1 0.9 2.1 1 2 1.1 2 2.7 3.8 3.1 3.6 3.6 3.3 4 3 4.3 2.8 4.6 2.5 4.9 2.1 5.2 1.9 5.5 1.5 5.7 1.1 5.8 0.8 2.5 0.1q0.2 0 0.3 0zm-141.4-68.4q-1.4 1.1-2.7 2.1l0.4 0.6 4 4.7 4.2 4.6 1.6 1.6c10.3-6.3 21-7.1 32-1.9 15.7 7.8 31.4 11.1 46.9 8.2 3.4-0.6 6.6-1.5 9.8-2.5-3.3-6.6-8.1-12.2-13.1-17.2 5.8 7.1 5.6 11.7 0.3 14.6q-1.1-1.2-2.2-2.5c1.4-1.2 2.5-3.2 1.5-6-9.5-19.3-12.3-37.3-12.5-58.4l1.2-4.1 1.9-26.1c-2 1.6-3.5 2.7-6.5 1.1-15.9-9.6-30.3-9.1-42.7-0.6-8.6 6.2-14.4 14.7-14.7 28.4q1.3 16.1 12.7 29.5c2.4 2.6 1.5 4.9-1.6 6.8-3.5 1.4-5.1 3.9-5.1 6.5 7.7-1.8 14.9-1.5 21.7 1.3 0.5 0.4 0.8 1 0.8 1.7 0 1.2-1 2.2-2.2 2.2q0 0 0 0-5.8-2-11.6-1.7c-7.9 0.3-17.7 2.7-24.1 7.1zm28.3-59.4c2.6-7.5 9.9-9.8 17.1-9.9 5.4 0.2 20.2-1.7 23.4 9 1.3 4.3-2.1 8.1-7.1 8.8 1 13.8 5.6 28.1 11 40.8 2.3 5.4 4.5 11 7 16.3 1 2.3 1.1 2.9-0.2 4.9q-0.1 0-0.1 0v-0.1l-2-2.7c-8.3-18.5-15.6-34.1-19.5-55.1l-0.5-5.5q-0.5-14.1-20.8-14.6c10.5 23.8 22.9 48.9 34.8 69.4l-36.5-38.5c-5.2-5.9-8.8-15-6.6-22.8zm33.9-2.5c-1.3 0-2.4 1-2.4 2.4 0 1.3 1.1 2.4 2.4 2.4 1.3 0 2.4-1.1 2.4-2.4 0-1.4-1.1-2.4-2.4-2.4zm42.7 122.6q5.7-2 12-3c6.8-1.3 13.7-1.4 20.6-0.4v-17.6c-6.9-0.9-13.8-0.9-20.6 0.4-10.6 1.9-19.9 6.7-30.5 8.5-8.1 1.6-16.1 1.4-24.2-0.2l1.5 0.6 7.1 2.7 7.2 2.4 7.5 2.2 7.6 1.9 7.7 1.7zm-73.8-28.2q4.2 0.8 8.4 2.8c15.7 7.8 31.3 11.2 46.9 8.2 6.3-1.1 12.2-2.8 17.6-5.2q6.1-2.1 12.9-3.3c6.8-1.3 13.7-1.4 20.5-0.4v-17.5c-6.8-1-13.7-0.9-20.5 0.4-10.6 1.8-19.9 6.6-30.5 8.5-15.6 2.9-31.2-0.4-46.9-8.3-9.6-4.5-18.9-4.5-28-0.2l3.9 3.3 5.1 4.2 5.4 4zm177.8-156.3v-75.7h-57.6v-88.5h168.1c0 61.4 0 135.3 0 164.2zm80.3-81.9v-18.1h-36.2v-18.1h18.1v-18.1h-18.1v-13.8h-18.1v13.8h-18.1v18.1h18.1v18.1h-36.2v18.1h36.2v18.4l-9-5.2v21.8l9 5.2v27.5h18.1v-17l9.1 5.2v-21.8l-9.1-5.2v-28.9z"/>
	<path id="Path 6" fill-rule="evenodd" class="s1" d="m67.7 80.4h6.6q-0.9 1.7-1.4 2.6-0.6 0.9-1.6 1.9-1.5 1.4-3.3 2.5-1.9 1-3.9 1.5-2 0.6-4 0.6-4.3 0-8-2.2-3.6-2.2-5.8-5.9-2.1-3.7-2.1-8 0-4.3 2.1-8 2.1-3.6 5.8-5.8 3.6-2.1 7.9-2.1 3.1 0 6.1 1.2 3 1.3 5.3 3.5 0.9 0.9 1.5 1.9 0.7 0.9 1.6 2.7h-6.5q-1-1.1-1.8-1.7-0.7-0.6-1.8-1.1-2.2-1-4.4-1-2.7 0-5.1 1.4-2.3 1.4-3.7 3.8-1.3 2.4-1.3 5.3 0 2.8 1.4 5.2 1.4 2.4 3.7 3.8 2.3 1.4 5 1.5 2 0 3.8-0.8 1.2-0.5 1.9-1.1 0.8-0.6 2-1.7zm26.4 8.3h-5.6v-30.6h5.6v22.4l0.4-1.1 12-21.3h5.7v30.6h-5.7v-22.3l-0.4 0.9zm44.2-21.6l-0.2-1.1-0.1 1.1-7.5 21.6h-6.1l11.5-30.6h4.4l11.5 30.6h-6.1zm32.6 21.7h-5.6v-30.7h5.6v22.4l0.4-1 12-21.4h5.6v30.7h-5.6v-22.3l-0.4 0.9zm54.8-8.4h6.6q-0.9 1.8-1.5 2.6-0.6 0.9-1.5 1.9-1.5 1.5-3.4 2.5-1.8 1-3.8 1.6-2 0.5-4.1 0.5-4.2 0-7.9-2.1-3.6-2.2-5.8-5.9-2.2-3.7-2.2-8 0.1-4.3 2.2-8 2.1-3.7 5.8-5.8 3.6-2.1 7.8-2.1 3.2 0 6.2 1.2 3 1.2 5.2 3.5 1 0.9 1.6 1.8 0.7 1 1.5 2.8h-6.4q-1-1.1-1.8-1.7-0.7-0.6-1.8-1.1-2.2-1-4.4-1-2.7 0-5.1 1.4-2.3 1.4-3.7 3.8-1.3 2.4-1.3 5.2 0 2.8 1.4 5.2 1.3 2.5 3.7 3.9 2.3 1.4 5 1.4 1.9 0 3.8-0.8 1.1-0.5 1.9-1 0.8-0.6 2-1.8zm23.9 8.4v-25.2h-5.7v-5.5h17.1v5.5h-5.8v25.2zm30.6 0h-5.7v-30.7h7.2q3 0 4.5 0.2 2 0.2 3.8 1.4 1.9 1.3 3 3.4 1.1 2.1 1.1 4.4 0 2.3-1 4.4-1 2.1-2.7 3.4-0.9 0.7-2.2 1.2-1.8 0.7-6.9 0.7h-1.1zm0-17.2h2.1q2.3 0 3.3-0.3 1.3-0.4 2-1.4 0.8-1 0.8-2.4 0-1.3-0.8-2.3-0.8-1-2.2-1.3-1.1-0.3-3.1-0.3h-2.1zm25.4 17.1l12.7-30.6h4.5l12.8 30.6h-6.2l-3.3-7.9h-10.9l-3.4 7.9zm11.1-12.8h7.5l-3.6-9.6-0.1-1.1-0.2 1.1z"/>
</svg>