<svg version="1.2" xmlns="http://www.w3.org/2000/svg" viewBox="0 0 303 408" width="303" height="408">
	<title>Balchik-pdf</title>
	<style>
		.s0 { fill: #cfa550 } 
	</style>
	<path id="Path 2" fill-rule="evenodd" class="s0" d="m151.9 407.6c-6.9-6.1-33-12.2-50.1-15.7-16.7-3.4-35.3-7.1-49.3-16.8-18.8-13-38.6-30-44.6-57-2.4-11.2-3.6-31.2-3.3-46.5 1.1-57.9 4.1-88.5 5.5-146.6 0.6-25.4-1.6-40.5-9.4-63.7 7.4-5.8 12.7-15 13.3-24.4 0.6-10.9 0.5-19.6 0.8-29.3 45.4-4.9 91.1-7.6 137.1-7.6 46 0 91.7 2.7 137.1 7.6 0.3 9.7 0.2 18.4 0.8 29.3 0.6 9.4 5.9 18.6 13.3 24.4-7.8 23.2-10 38.3-9.4 63.7 1.4 58.1 4.4 88.7 5.5 146.6 0.3 15.3-0.8 35.3-3.3 46.5-6 27-25.8 44-44.6 57-14 9.7-32.6 13.4-49.3 16.8-17.1 3.5-43.2 9.6-50.1 15.7zm-52.7-277.1c0 5.1 0.7 10 2.1 14.7q0-0.2-0.1-0.3c-0.6-3.7 2-6 3.2-7.1 2.8-2.6 5-4.3 8.8-4.6 1.6-0.1 4.1-0.6 5.8-0.6 1.3-2.3 1.8-5.9 3.8-7.7 2.3-1.8 9.5-0.8 12.5-1.1 0.6-1.9-0.2-4.7 1.4-6.2 1.7-1.6 4.3-2.6 6.5-3.1 2.9-0.6 4.6 0.2 7.6 0 1.9-0.1 3.4-1.7 4.7-1.7 5.3 0.2 7.1 2.3 7.3 4.5l3.4 7.3c0.7-2.3 3-3.6 7.1-2.6 5.7 1.5 6.1 6.1 7.3 8.9 1.6-0.8 4-0.8 5.4-0.1 3.7 2.1 5.8 3.5 7.6 6.3 2.4 3.6 3.2 7.6 2.6 12-0.3 2-1.8 4.4-2.3 6.3-0.5 1.9-1.3 4.4-1.1 7.5 7.4-9.1 11.8-19.9 11.8-32.4 0-28.8-23.7-52.4-52.7-52.4-29 0-52.7 23.6-52.7 52.4zm53.1-5.9c-2.4 0.5-3.2 0.6-5.7 0.7-1.8 0-3.4-1.4-4.9-1.8-0.9-0.2-2.1-0.5-2.9 0-1.9 1.4-2.5 4.1-4.5 5.3-2 1.3-4.6 1.5-6.7 2.8-0.8 0.5-0.8 2.3-1.7 2.6-0.9 0.4-1.7-1.5-2.7-1.2-1.5 0.5-2.3 1.6-3.1 2.9-0.7 1.3 0.3 2.7-0.5 3.9-0.8 1.3-2.9 1.5-3.7 2.8-0.8 1.5-0.3 3.4-0.6 5-0.3 1.3-1.8 1.7-1.7 3.1 0.1 0.9 2 1.9 2.2 2.8 0.5 1.4-0.5 4 0.3 5.3 0.5 0.7 2.7-0.8 3.4-0.1 0.4 0.3-0.2 1.6 1.3 3.6 0.5 0.6 2.4 1.3 3.2 1.8 1.4 0.9 3 1.4 2.5 0-0.5-1.2-1.3-1.1-2.1-2.1-1.7-2.3-3.8-6.2-3.8-8.9 0-2.5 3.3-3 4.7-5.1 0.9-1.3 1.2-3.1 1.9-4.5 1.1-1.7 3.5-3.5 4.4-5.4 0.4-0.7-1-1.1-1.1-2.2-0.1-1.3 1.2-3.6 2.5-3.5 2.2 0.2 2.3 2.6 4.3 3.6 1.8 0.8 5.2 0.9 6.9 1.9 2.1 1.3 3.9 2.8 5.4 2.8 0.9 0.1 3.3-4.2 3.6-7 0.1-1.2-6.4 0.7-6-2.4 0.4-2.8 11.5-6.4 10.6-8.4-0.8-1.6-3.8 1.4-5.5 1.7zm-28 18.7c-0.1 1.1-0.9 2.9-1.7 3.6-1 1-1.5 1.6-2.6 1.2-1-0.5-1.2-2.9-0.6-4 1-1.9 1.9-2.7 4-3.2 0.8-0.2 1 1.6 0.9 2.4zm35.8-15.8c-0.9 0.1-1.9 2.9-1.8 3.8 0.5 7.7 1.1 12.1 3.4 19.5 1.6 5.1 10.6 0.7 10.8 5.8 0.1 6.3-6.3 5.6-6 9.2 0.2 2.2 2.1 0.3 3.1 1.1 1.1 0.8 1.1 1.7 2.6 1.3 2.4-0.5 5.3-1.6 6.6-3.6 1.7-2.5-1.1-5.4 0.7-7.8 1.4-2 4.7 0 6.5-1.9 0.8-0.8 2-3.5 1.1-4.2-0.7-0.7-1.2 1.3-2.7 1.4-2.8 0-3.2-12.6-8-12.2-4.2 0.3 4.4 11.4 2.4 12.5-3.4 1.9-12.2-25.6-18.7-24.9zm1.4 5.5c2.5-1.1 6.2 5.6 8.3 9.2 1.7 3 4.4 9 3.5 9.8-2.7 2.3-2.9-2.5-4.4-2.4-1.3 0-1.8 1.5-3.1 1.6-1.3 0-2.9-1.7-3-3.2-0.3-1.8 1.7-3.8 1.6-5.6-0.2-2.8-2.1-4.3-2.1-7.2 0-1.1-1.2-2-0.8-2.2zm6.6-5.4c-0.6 1 0.2 2.6 1.8 3.6 1.7 0.9 3.4 0.8 4-0.2 0.6-1-0.2-2.6-1.8-3.5-1.6-0.9-3.4-0.9-4 0.1zm-17.2 54.8c-12.5 0-24-4.3-33.1-11.6-1.4 1.7-3.8 3.4-4.6 3.1-1.3-0.6-0.3-4.4-1.9-5.4-2.6-1.6-6.2-0.6-9-1.9-0.6-0.3 1-1.7 1-2.4-0.2-1.1-3.1-1.7-1.8-2.7 1.2-0.9 3.2-1.2 5.3-2.7-2.3-3.5-4.3-7.4-5.7-11.4-2.1 4-4.7 9-6.1 12.7-1.1 2.9 9 16.4 18.5 18.5 3 5.3 2.2 10.6 2.7 16.7 0.2 2.5 0.4 4.6-0.2 7-1.6 5.8-5.4 10.4-7.6 15.6-2.4 5.9-3.1 12.4-3.4 19.1-0.6 9 0.9 12.5 2.5 17.6 1.5 4.9 1.6 10.4 5.6 13.5 3.2 2.5 9.3 1.4 13.4 1.1 1-0.1 1.9-1.5 1.4-2.4-4-7.3-7.2-9.3-11.6-16.3-1.4-2.3-2.7-5.4-3.4-7.9-0.8-2.6-4.5-8.1-3.8-10.7 0.3-1.2 2.8-1.2 3.6-0.3 1.1 1.3 1.8 5 2.5 6.5 2 4 3.8 5.1 5.7 9.2 1.6 3.5 1 6.2 3.5 9 2.5 3 7.3 7 10.8 8.6 0.8 0.4 2.7-0.9 2-1.8-9.3-13.2-21.5-25.3-23.2-40.9-0.7-6.7 2.9-12.3 5.6-18.2 0.3-0.6 2.1-0.1 2.1 0.6 0.1 2.5-1.7 4.8-1.8 7.3-0.1 1.4 1 2.4 1 3.7-0.2 2.9-2.6 8.7-0.2 11.7 5.3 6.9 12.8 12.9 21.1 15.2 2.5 0.7 0.3-4.1 1.9-4.2 3.6-0.4 2.5 4.3 3.9 6.3 1.3 1.8 4 3.1 6 2.2 1.4-0.7 0.1-3.5 0.1-5-0.1-1.9 3.8-0.3 5.5-1 1.2-0.6 2.9-0.8 4.4-1.7 1.6-1 3-2.5 3.9-2.4 0.9 0.1 1.1 1.7 0.8 2.5-0.7 1.9-2.2 2.5-3.6 3.9-1.3 1.4-5.4 1.8-4.6 3.6 0.8 2 4.2 0.7 6.3 0.9 1.2 0.1 2.3 1.2 3 0.3 0.7-0.9 0.8-3.6 1.2-4.9 0.4-1.4 1.3-1.3 1.2-2.1 0-1.1-1.1-2.6-1.4-3.7-0.3-1.8 2.3-5 0.5-5.6-1.5-0.6-3.9 2.5-5.7 3.2-2.9 1.1-7.1 4.4-8.7 2.7-1.4-1.5 0-4 2.4-5.9 1.8-1.3 4.1-1.9 6.2-3.7 2-1.7 3.4-4.3 3.8-6.8 1.4-8.4 1.9-18.5 1.7-27-0.1-4.1-2.6-5.8-2.7-9.9 0-1.6 0.7-3.1 1.6-4.9-5.8 2.2-12.1 3.1-18.6 3.1zm1.5-14c0.1 1.2 1.6 2.1 2.8 2.1 2.2 0.1 5.6-1.4 5.7-2.1 0.2-0.9-0.8-1.6-1.7-1.7-0.9-0.2-1.7 1.1-2.6 1.1-0.8-0.1-1.3-1.3-2.1-1.2-0.9 0.2-2.1 0.9-2.1 1.8zm25.7 7.8c0.4 1.9 1.6 3.8 3.2 4.6 1.9 0.8 4.9-4.8 6.8-2.2 1.5 1.9-0.3 3.2-0.2 4.8 0 1.5 1 4.1 2.6 4.3 2.2 0.3 4.6-3.1 6.8-3 1.3 0.1 2 1.7 1.5 2.9-0.6 1.5-4-0.1-5 2.9-0.9 2.9 2 5.8 4 6 2.4 0.3 6.8-5.5 7.4-3.1 0.8 3.2-3.6 5.5-5.4 8.2-0.4 1.9 0.5 5.9-1.3 5.5-2.2-0.5-1.5-2.3-2.9-4-2.3-2.9-8.2-4.9-10.6-4.2-2.1 0.5 2 8 4.8 10.9 2.5 2.6 8.9 2.3 9.3 4.6 0.5 2.7-3.3 2.4-5.1 3.9-0.9 13 2 21.5 3.8 31.9 0.5 2.8 1.7 7.3 1 8.6-0.8 1.7-4.7-1-6.5-0.6-3.1 0.7-8.2 0.4-8.3 3.6 0 3.9 4.1 7.7 8.2 8 3 0.2 9.9-6.4 10.8-10.5 2.4-10.2-3.2-27-3.1-37.4 0-2.8 3-3.2 4.7-7.1 2.4-5.3 3.7-13 3.8-17.9 0-2.4-1.6-8.8-3.4-12.2-2.8-5.5-5.7-5.7-8.9-11-1.8-3-3.3-6.3-3.6-9.9-3.9 5-8.9 9.1-14.4 12.4zm-33.5-8.8c-1.2 0.5-5.6-0.3-5.3 1.3 0.3 1.9 3.6 2.1 5.5 2 1.7-0.1 3-0.5 3.6-2 0.4-1.1-0.3-2.7-1.3-2.9-1.5-0.3-1.1 1.1-2.5 1.6zm10.7 38c1.5 0.8 2.4 2.2 1.9 3.2-0.5 1.1-2.1 1.3-3.7 0.6-1.5-0.7-2.4-2.1-1.9-3.2 0.5-1 2.2-1.3 3.7-0.6zm-124.5 46.2v22.9c0 1.2-0.8 1.4-0.8 2.2 0.1 2.1 9.6 4.2 14.7 4.2h13.1c1 0 1.5-1 1.7-2 1.1-5.2-0.6-9.9 1.7-14.6 1.2-2.7 4.9-4.3 7.5-5.4 1.3-0.6 1.5 0.5 0 1.7-1.8 1.5-4.2 3-4 6.9l0.8 19.7c0.3 6.5-2.2 14.4 2.1 19.2 1.8 2.1 5.9 4.8 7.7 4.8h54.1 100.6c1.8 0 5.9-2.7 7.7-4.8 4.3-4.8 1.8-12.7 2.1-19.2l0.8-19.7c0.1-3.9-2.2-5.4-4-6.9-1.5-1.2-1.3-2.3 0-1.7 2.6 1.1 6.3 2.7 7.5 5.4 2.3 4.7 0.6 9.4 1.7 14.6 0.2 1 0.7 2 1.7 2h13.1c5.1 0 14.6-2.1 14.7-4.2 0-0.8-0.8-1-0.8-2.2v-22.9c-5.7 0.6-11.2 1.6-16.8 1.6-11.2 0-24.5-5.2-36.5-5.2-5.1 0-12 4-11.9 9.1 0 4.2 5.2 8 9.5 7.9 4 0 7.3-3.6 11.3-3.7 3.2-0.1 7.6 2.4 7.7 5.6 0.1 2.9-3.6 7.2-6.5 7.2h-77.8-79.5c-2.9 0-6.6-4.3-6.5-7.2 0.1-3.2 4.5-5.7 7.7-5.6 4 0.1 7.3 3.7 11.3 3.7 4.3 0.1 9.5-3.7 9.5-7.9 0.1-5.1-6.8-9.1-11.9-9.1-12 0-25.3 5.2-36.5 5.2-5.6 0-11.1-1-16.8-1.6zm118.2 7.1c2.2 1.6 6.6 3.6 8 1.2 0.6-1.1-1.6-0.4-3.4-1.6-1.1-0.8-2-2.8-2.7-3.4-1.8-1.4-3.9-1.3-5-2.4-1.7-1.8-2.3-2.5-2.7-2-2.1 2.6 3 6.3 5.8 8.2zm-7.6-0.7c-1.9-2.8-3.3-7.1-5.4-9.7-1.5-1.8-4.9-4.9-5.5-4-1.2 1.8 2.6 5.1 3.9 7.7 1.1 2.4 1.4 5.7 3.2 7.6 2.6 2.7 8.4 8.2 9.8 5.5 0.7-1.5-4.2-4.4-6-7.1zm39.8-9.7c-0.1 0.8-0.8 1.9-0.7 2.4 0 1.1 1.5 2.4 2.6 2.3 1.2-0.1 2-1.2 2.3-2.4 0.3-1.6-0.3-1.3-0.6-2.3-1-3.2 0.4-8.7-2.1-8.5-2.4 0.3-1.2 4.7-1.5 8.5zm-0.5-33.5c-1.6 2.4-2.4 5.1-2.3 8 0.1 4.3 4.1 11.2 6.4 10.1 1.2-0.6 1.8-9 1.5-13.5-0.2-2.4 0.5-4.2-1.4-5.6-1.4-1-3.2-0.4-4.2 1zm7.2 6.4c0 4.6 2 9.1 2 13.7-0.1 2-2.1 3.6-2 5.7 0.1 1.8 0.9 3.4 1.2 5.3 0.3 1.9 0.3 4.1 1.6 5.3 1.9 1.8 0.1-4.5 0.4-7 0.3-2 1.3-4.7 1.3-6.7-0.1-3.3-1-6.5-1.3-9.8-0.3-4.3 0-8.7-1-12.9-0.6-3-2.1 4.2-2.2 6.4zm-7.9-15.1c-0.5 1.2-1.1 2.6 0.2 3.1 1.5 0.7 4.1-0.1 4.7-1.6 0.5-1.2-1.5-2.3-2.6-2.8-0.8-0.3-1.9 0.5-2.3 1.3zm-126.3 82.9c-4.7 3.8-16 5.8-27.9 6.6-3.5 0.3-5.9 2.7-5.8 6.2 0 5.4 3.1 13.7 3.1 16 0 3.9-0.5 9.8 0.9 13.5 1.7 4.4 19.9 14.6 32.1 18.9 7.9 2.8 16.7 4.7 24.8 6.6 0.5 0.1 1.3-0.2 1.5-1.1 1.1-5.4-0.1-12.2 2.9-17.1 1.3-2.1 4.6-5.3 6.9-4.9 0.7 0.1 0.9 0.4 0.8 1.2-0.2 1.1-4.2 4.5-4.3 5.6-0.7 6.7-0.3 11.6 0.3 18 0.7 5.9-1.5 14.6 4.7 17.7 6.9 3.5 33.6 4.6 56 4.9q0.6 0 1.3 0 0 0 0.1 0 0.3 0 0.5 0c22.6-0.3 50.4-1.3 57.4-4.9 6.2-3.1 4-11.8 4.7-17.7 0.7-6.4 1-11.3 0.3-18-0.1-1.1-4.1-4.5-4.3-5.6-0.1-0.8 0.1-1.1 0.8-1.2 2.3-0.4 5.6 2.8 6.9 4.9 3 4.9 1.8 11.7 2.9 17.1 0.2 0.9 1 1.2 1.5 1.1 8.1-1.9 16.9-3.8 24.8-6.6 12.3-4.3 30.4-14.5 32.1-18.9 1.4-3.7 0.9-9.6 0.9-13.5 0-2.3 3.1-10.6 3.2-16 0-3.5-2.3-5.9-5.9-6.2-11.9-0.8-23.1-2.8-27.9-6.6 0 1.8 0.9 1.6 0.9 2.7v13.5c0 0.7-1 0.6-1 1.4 0.1 2 8.6 6.3 11.3 6.4 4.4 0.2 16.1-6.9 16.3-12.6 0.1-2.4 3-0.5 2.7 3.1-1 9.7-23.1 19.4-38.2 21.5-18.2 2.6-36.7 3.9-55.3 5.2-4.4 0.2-7.2 4.2-7.3 7.1-0.1 3.2 3.3 4.7 7.2 4.8 6.1 0 10.6-7 18-7.2 2.7 0 6.2 0.4 6.2 5 0.1 5.3-14.2 8.4-23.3 8.5-13.4 0.1-23.9 0.3-35.4 0.6q-0.3 0-0.6 0c-11.1-0.4-21.2-0.5-34.3-0.6-9.1-0.1-23.4-3.2-23.3-8.5 0-4.6 3.5-5 6.2-5 7.4 0.2 11.9 7.2 18 7.2 3.9-0.1 7.3-1.6 7.2-4.8-0.1-2.9-2.9-6.9-7.3-7.1-18.6-1.3-37.1-2.6-55.3-5.2-15.1-2.1-37.2-11.8-38.2-21.5-0.3-3.6 2.6-5.5 2.7-3.1 0.2 5.7 11.9 12.8 16.4 12.6 2.6-0.1 11.2-4.4 11.2-6.4 0-0.8-1-0.7-1-1.4v-13.5c0-1.1 0.9-0.9 0.9-2.7zm110.6-30.5c0.6 3.2 5.2 2.7 7.9 4.5 1.8 1.2 2.5 4.2 4.6 4.7 1.2 0.3 3.3-1.2 3.1-2.3-0.2-1.5-2-1-2.3-1.7-1.2-3.5-4.6-5.3-7.5-6.5-1.4-0.6-6.1-0.1-5.8 1.3zm53.6-140.9v119.4c0.1 7.3 18.9 7.3 23.4 7.3 5.3 0 23.5 0 23.5-7.3v-119.4c0-7.3-18.2-7.3-23.5-7.3-4.5 0-23.4 0-23.4 7.3zm-178.9 0v119.4c0 7.3 18.9 7.3 23.4 7.3 5.2 0 23.4 0 23.4-7.3v-119.4c0-7.3-18.2-7.3-23.4-7.3-4.5 0-23.4 0-23.4 7.3zm230-35.2c-0.9 2.3-3.3 4.8-5 6.6-1.1 1.1-2.5-0.2-1.6-1.4 1.9-2.6 3.1-5.8 3.4-8.9 0.3-3.5-1.6-7-1.7-10.5-0.6-18.7 3.6-28.5 3.6-33.9 0-4.7-7.1-9.8-10.8-10.7-15.2-3.7-31.2-3.4-46.7-5.1-17.1-1.9-41.1-2.6-58.5-2.7-19.2 0-39 0.6-58.1 2.7-15.6 1.7-31.5 1.4-46.7 5.1-3.7 0.9-10.8 6-10.8 10.7 0 5.4 4.2 15.2 3.6 33.9-0.2 3.5-2 7-1.7 10.5 0.2 3.1 1.5 6.3 3.3 8.9 0.9 1.2-0.4 2.5-1.5 1.4-1.7-1.8-4.2-4.3-5-6.6-2.2-6.1 0.1-13-3.4-20.7l-10.8 2.7c2.7 13.1 4.4 26.1 5.1 39.3 11.2-1.2 21.7-4.3 32.9-4.2 8.9 0.1 20.8 4.5 29.7 4.4 7.6-0.1 15.5-4.9 15.3-11.8-0.3-6.9-10.1-10.8-17.2-10.7-11.2 0.2-22.2 9-33.3 9.2-4.8 0.1-10.8-3.5-10.8-8.3-0.2-9.1 9.1-9.1 15.1-9.8 14.6-1.6 29.1-2 43.6-3 16.9-1.2 34.2-1.5 50.7-1.5 16.7 0 34.4 0.3 51.1 1.5 14.5 1 29 1.4 43.6 3 6 0.7 15.3 0.7 15.1 9.8 0 4.8-6 8.4-10.8 8.3-11.2-0.2-22.1-9-33.3-9.2-7.1-0.1-16.9 3.8-17.2 10.7-0.3 6.9 7.7 11.7 15.3 11.8 8.9 0.1 20.7-4.3 29.7-4.4 11.2-0.1 21.7 3 32.8 4.2 0.8-13.2 2.5-26.2 5.1-39.3l-10.7-2.7c-3.6 7.7-1.3 14.6-3.4 20.7zm-211.9-45.5l0.2 3.6q0.1 1.8 0.4 2.5 0.2 0.6 1.1 0.5 1.4-0.3 3.7-0.5 4.4-0.5 7 0.7 1.9 1 3.6 3.5 1.7 2.5 1.9 5.7 0.1 2.3-0.2 4.4-0.4 2.2-1.4 4.1-1.1 1.9-3.1 3.2-2.1 1.3-5.2 1.6-0.8 0.1-3.6 0.3-2.7 0.2-4.5 0.4-1.9 0.2-5 0.7-3.1 0.4-3.8 0.5-1.2 0.1-2.1-0.6-0.9-0.7-1-1.9-0.1-1.1 0.5-1.7 0.6-0.5 1.4-1.2 0.7-0.6 1.2-2.1 0.4-1.5 0.2-4.5l-1-15.7q-0.2-2.8-0.7-3.9-0.6-1.2-1.3-1.6-0.7-0.4-1.4-0.8-0.6-0.4-0.7-1.5-0.1-1.5 0.8-2.4 0.8-0.9 2.1-1.1 1.1-0.1 2.8-0.2 1.6 0 3.3-0.1 1.6-0.1 2.7-0.2 0.2-0.1 0.5-0.1 0.2 0 0.6 0 0.5 0 1 0 0.5-0.1 0.8-0.1 0.5 0 1.7-0.2 1.2-0.2 3.4-0.6 2.3-0.4 3.5-0.6 1.2-0.2 1.5-0.3 0.8 0 1.7 1.1 0.9 1.1 1.6 2.9 0.6 1.8 0.7 3.7 0.1 1.4-0.5 2.7-0.6 1.2-1.7 1.3-1 0.1-2-0.8-1.1-0.9-1.9-1.8-0.9-1-2.2-1.6-1.3-0.6-3.1-0.4-1.7 0.2-2.4 0.5-0.8 0.4-1 1-0.2 0.6-0.1 1.6zm1.2 17.7q0.2 3 0.5 4.4 0.4 1.4 0.9 1.7 0.4 0.3 1.2 0.2 1.8-0.2 2.9-2 1.1-1.8 0.9-4-0.2-2.8-1.4-4.5-1.1-1.8-3.3-1.5-0.9 0.1-1.5 0.7-0.5 0.6-0.5 1.5zm26.7-10.4q1.3-4 2.1-7.1 0.7-3.1 0.6-5.9 0-3.1 1.2-4.9 1.2-1.9 3.9-2 2.5-0.1 4.4 2.2 1.8 2.2 3.7 6 0.2 0.4 2.5 5.7 2.3 5.3 4.2 9.8 1.9 4.5 2.8 6.9 0.5 1.3 1.1 1.8 0.5 0.5 1.3 0.8 0.8 0.3 1.2 0.6 0.3 0.3 0.3 1.4 0.1 2.3-2.3 3.2-2.5 0.8-5.9 1-3.9 0.1-5.8 0-1.9-0.1-3.1-0.7-1.1-0.7-1.1-2.3-0.1-0.9 0.3-1.3 0.3-0.5 0.9-0.8 0.7-0.4 1-0.7 0.3-0.3 0.3-0.9-0.1-1.3-0.6-1.8-0.6-0.5-2.2-0.6-1.7-0.1-5.3 0.1-2 0-2.8 0.6-0.8 0.5-0.8 2.3 0 0.7 0.4 1 0.3 0.2 1 0.4 0.7 0.3 1.1 0.7 0.4 0.4 0.4 1.4 0.1 3.3-6.3 3.6-2.2 0.1-3.6-0.1-1.4-0.2-2.1-0.6-0.7-0.4-0.9-1-0.3-0.5-0.3-1.3 0-0.8 0.3-1.3 0.3-0.5 1.2-1 0.9-0.5 1.3-0.7 0.4-0.3 0.7-0.9 0.8-1.3 2.4-6zm9.2 3.6q1.7-0.1 1.7-0.8 0-0.9-1.7-4.4-0.7-1.3-1.1-2.1-0.5-0.7-1.1-0.7-0.3 0-0.7 0.5-0.3 0.5-0.5 1.2-0.3 0.8-0.4 1.4-0.2 0.6-0.2 0.9-0.9 2.9-0.9 3.4 0.1 0.5 0.4 0.6 0.4 0.1 1.2 0.1zm38.3-2.7q-0.1-0.2-0.4-0.9-0.2-0.7-0.4-1-0.2-0.4-0.6-0.7-0.3-0.3-0.6-0.3-0.7 0-1.4 1.4-0.8 1.5-1 2.5 0 0-1 2.4-0.9 2.5-1.6 4.7-0.6 2.1-0.6 3.3 0 0.7 0.3 0.9 0.3 0.3 1 0.6 0.7 0.2 1.1 0.6 0.3 0.4 0.3 1.4 0 3.4-6.4 3.4-2.1 0-3.5-0.3-1.4-0.2-2.1-0.7-0.7-0.4-1-1-0.2-0.5-0.2-1.3 0-0.8 0.4-1.3 0.3-0.4 1.2-0.9 0.9-0.5 1.3-0.7 0.4-0.3 0.7-0.9 0.8-1.2 2.6-5.8l2.7-7.5q1.4-3.9 2.3-7 0.8-3.1 0.8-5.9 0-3.1 1.3-4.9 1.2-1.7 4-1.7 2.5 0 4.3 2.3 1.8 2.3 3.5 6.1 0.3 0.6 1.2 2.9 0.8 2.4 2.4 6.6 1.6 4.3 3 8.1 1.3 3.7 1.8 5.3 0.5 1.3 1.1 1.9 0.5 0.5 1.3 0.8 0.8 0.3 1.1 0.6 0.3 0.4 0.3 1.4 0 2.4-2.4 3.1-2.5 0.8-5.9 0.8-3.9 0-5.8-0.2-1.9-0.2-3-0.9-1.2-0.8-1.2-2.4 0-0.8 0.4-1.3 0.3-0.4 1-0.7 0.7-0.4 1-0.7 0.3-0.2 0.3-0.8 0-0.5-0.8-3-0.8-2.6-1.6-5-0.8-2.4-1.2-3.3zm51.8 8.6q0 0.9 0.1 1.5 0.1 0.5 0.4 1 0.3 0.4 0.9 0.8 0.8 0.6 1.1 1 0.3 0.3 0.3 1.3 0 0.7-0.2 1.3-0.1 0.7-0.9 1.3-0.8 0.6-2.7 1.1-1.9 0.4-4.8 0.4-7.9 0-7.9-3.8 0-1.5 0.7-2.1 0.6-0.6 1.2-1.1 0.7-0.6 1.1-2.1 0.5-1.5 0.5-4.8 0-2.1-1.2-2.1-0.5 0-1 0.4-0.9 0.6-2.2 1.2-1.3 0.5-2.8 0.9-1.5 0.3-3 0.3-0.8 0-1.5-0.1-2-0.4-3.6-1.9-1.5-1.4-2.3-3.2-0.9-1.8-0.9-3.4 0-4.5-0.1-6.6-0.1-2-0.5-3-0.3-0.9-1.2-1.5-0.8-0.6-1.1-1-0.3-0.3-0.3-1.1 0-2.7 3.2-3.7 3.2-0.9 6.5-0.9 2.4 0 4.6 0.7 2.2 0.7 2.2 2.9 0.1 1.1-0.4 1.7-0.4 0.6-1.3 1.3-0.8 0.6-1.1 1.9-0.2 1.3-0.2 5 0 2.1 0.9 3.2 0.8 1.1 2.3 1.1 1.1-0.1 2.2-0.7 1.2-0.6 2-1.5 0.8-0.9 0.8-1.7 0-6.4-1.3-7.3-1-0.7-1.3-1.1-0.3-0.5-0.3-1.4 0-1.6 1.5-2.9 1.5-1.2 6.9-1.2 7.8 0 7.8 3.9 0 1.7-1.3 2.5-0.6 0.3-0.9 0.6-0.3 0.3-0.5 1.1-0.2 0.9-0.3 2.8-0.1 1.8-0.1 4.8zm36.7 1.3q0 0.9 0.1 1.4 0.1 0.6 0.3 1 0.3 0.5 0.9 0.9 0.8 0.5 1.1 1 0.4 0.4 0.3 1.3 0 0.7-0.2 1.3-0.2 0.7-1 1.3-0.8 0.6-2.7 1-1.8 0.4-4.7 0.3-7.5-0.2-7.5-3.9 0.1-1.3 0.6-1.8 0.5-0.5 1.1-1 0.6-0.6 1-1.9 0.5-1.4 0.5-4.3 0-0.9 0.1-2.2 0-1.3 0-1.7 0.1-1.8-0.6-1.8-0.3 0-0.7 0.2-0.8 0.4-2.6 2.1-1.6 1.8-3 3.7-1.4 1.9-1.4 2.8-0.1 1.4 0.1 2 0.3 0.6 0.7 1 0.5 0.5 0.7 0.9 0.2 0.5 0.2 1.6 0 2.5-2.4 3.2-2.4 0.7-5.2 0.7-2.8-0.1-5.4-0.9-2.6-0.9-2.6-3.3 0-1.4 1.4-2.2 1-0.6 1.4-1.2 0.4-0.6 0.6-3 0.3-2.4 0.3-8 0.1-6.2 0.1-8.6 0-2.3-0.2-3.5-0.1-1.2-0.3-1.5-0.3-0.2-1.1-0.9-0.9-0.6-1.2-1-0.3-0.3-0.3-1 0.1-2.8 3.3-3.6 3.2-0.9 6.5-0.9 2.4 0.1 4.6 0.9 2.2 0.7 2.2 2.9 0 1.1-0.4 1.7-0.5 0.6-1.4 1.3-0.9 0.6-1.1 1.2-0.3 0.7-0.3 3.4 0 1.3-0.1 2.9 0 1.6 0 2-0.1 1 0.2 1.4 0.2 0.4 0.9 0.4 0.6-0.2 2.1-1.6 1.4-1.5 3-3.5 1.5-2 1.8-2.6 0.4-0.8 0.4-1.5 0-0.5-0.3-1.2-0.2-0.5-0.7-1-0.5-0.5-0.8-0.9-0.2-0.5-0.2-1.4 0-1.2 0.4-2.1 0.4-0.8 2.1-1.4 1.6-0.5 5.1-0.5 7.8 0.2 7.8 4.1 0 1.7-1.4 2.5-0.8 0.5-1.2 0.9-0.3 0.5-0.5 2.4-0.2 1.9-0.2 6zm24 4.2q-0.9-1.7-2.1-3.6-1.1-1.9-1.8-1.9-0.8-0.1-1.1 0.6-0.3 0.8-0.4 2.2l-0.1 1.2q0 1 0.6 1.9 0.6 0.9 1.2 1.8 0.7 1 0.6 2.1-0.1 1-0.8 1.6-0.6 0.7-2.6 0.9-2 0.3-5.5-0.1-4.6-0.5-6.1-1.5-1.4-1-1.3-2.7 0-0.9 0.3-1.3 0.3-0.4 1-0.9 0.6-0.4 1.1-1.2 0.4-0.7 0.7-2.2 0.6-3.3 1-9.6 0.3-3.5 0.4-6 0.1-2.5 0-4.6-0.1-1.6-0.5-2.4-0.4-0.8-1-1.4-0.6-0.6-0.8-1-0.2-0.5-0.2-1.6 0.1-0.9 0.7-1.7 0.6-0.8 2.7-1.2 2-0.4 6 0 2.6 0.3 4.5 1.2 1.9 0.8 1.8 3.2-0.1 1.1-0.9 1.9-0.9 0.8-1.4 1.7-0.5 0.9-0.7 3.7-0.1 2.3 0.7 2.4 0.6 0.1 1.8-1.2 1.2-1.3 2.2-2.9 1-1.6 1.1-2.2 0-0.6-0.3-1.5-0.3-0.9-0.2-1.5 0.2-2.4 2.4-2.9 2.2-0.4 5.6-0.1l0.9 0.1q2.6 0.3 4.4 1.2 1.7 0.9 1.6 3.1-0.1 1.5-0.8 2.1-0.7 0.5-1.7 0.5-1-0.1-2.1-0.1-1.2 0-1.7 0.6-0.9 0.8-2 1.8-1.1 1.1-2 2.2-0.9 1.1-1 2.2-0.1 0.6 0.2 1.3 0.2 0.7 0.5 1.3 0.3 0.5 0.8 1.4l8.1 14q0.5 0.8 1.6 1.6 1.1 0.9 1.6 1.6 0.5 0.8 0.4 2.2-0.1 1.8-1.3 2.3-1.2 0.5-2.8 0.3l-7.4-0.8q-0.8-0.1-1.2-0.3-0.4-0.2-0.8-0.8-0.4-0.6-1.2-2.1z"/>
</svg>