<svg version="1.2" xmlns="http://www.w3.org/2000/svg" viewBox="0 0 434 440" width="434" height="440">
	<title>Dimitrovgrad-pdf</title>
	<style>
		.s0 { fill: #006b30 } 
		.s1 { fill: #fbc707 } 
		.s2 { fill: #33b540 } 
		.s3 { fill: #ffffff } 
		.s4 { fill: #ed1c24 } 
	</style>
	<path id="Path 1" class="s0" d="m59.4 0.7h315q0 103.8 0 207.7c-5.8 86.7-61.9 142.6-157.6 174.3-95.4-33-151.1-89.2-157.4-174.2z"/>
	<path id="Path 2" fill-rule="evenodd" class="s1" d="m284.2 255.8c-14.4 22.5-38.5 35.4-63.5 36.6v-77.8l67.9-37.9c10.9 22 11.6 48.8-0.3 72l-13.8-8c-1.3 2.7-2.7 5-4.1 7zm-55.6-36.5c0 21.3 0.1 43.2 0.1 64.5 17.8-3.8 30.6-11.1 44.1-26.5-2.3-1.4-4.2-2.6-6.5-4-8.9 10.3-19.3 16.7-30.2 20.1q0.5-22.6 0.9-45.2c8.8 5.1 18.6 10.9 27.3 16 1.6-2.1 3-4.5 4.1-7.1-8.9-5.2-18.9-11.1-27.7-16.2 12.8-7.3 25.9-14.6 38.8-21.9 2.2 11.1 2 22.3-2.3 35.3 2.3 1.4 4.2 2.5 6.6 3.9 5.6-13.9 7-33 1.1-50.5zm31.2 30.4q-8-4.7-16-9.4 0 10.5 0 20.9c6-2.8 11.3-6.6 16-11.5zm-4.9-28.3q8 4.6 16 9.3c2-6.4 2.7-12.9 2.2-19.6q-9.1 5.1-18.2 10.3zm-108.9 28.7c-12.6-23.6-12.2-50.9-1-73.3l67.9 37.8 0.1 77.8c-24.6-1.1-48.3-13.6-62.8-35.3l13.8-8.2c-1.8-2.5-3.1-4.8-4.2-7zm59-30.7c-18.6-10.4-37.8-21-56.4-31.3-5.3 17.3-5.2 32.1 1.7 51.3 2.3-1.3 4.3-2.3 6.6-3.6-4.6-12.8-5.2-25.1-2.8-36.2q19.5 11.4 39 22.8c-8.7 5.2-18.5 10.9-27.3 16.1 1.1 2.4 2.5 4.8 4.2 7 8.9-5.2 18.9-11.1 27.7-16.3 0.1 14.7 0.1 29.7 0.2 44.5-10.7-3.5-20.4-9.1-29.7-19.2-2.4 1.4-4.2 2.5-6.6 3.9 9.4 11.7 25.4 22.2 43.6 25.5zm-41.8 12.5q8-4.7 16-9.4-9.1-5.1-18.2-10.2c-0.5 6.6 0.2 13.2 2.2 19.6zm27.1 9.6q-8 4.6-15.9 9.3c4.6 4.9 10 8.7 16 11.5q0-10.4-0.1-20.8z"/>
	<path id="Path 3" fill-rule="evenodd" class="s1" d="m220.3 132.3c26.6 1.1 49.9 15.3 63.6 36.3l-67 39.4-67.1-39.4c13.4-20.6 36.2-34.7 62.3-36.2v16c3-0.3 5.7-0.3 8.1 0zm-3.3 66.3c18.3-10.7 37.2-21.9 55.5-32.6-12.2-13.5-25-20.9-45.1-24.6-0.1 2.6-0.1 4.9-0.2 7.5 13.4 2.5 24.2 8.2 32.6 16q-19.7 11-39.5 22c0-10.1 0-21.5 0-31.7-2.6-0.2-5.3-0.3-8.1 0.1 0 10.3 0 21.9 0 32.2-12.7-7.5-25.7-15.1-38.4-22.5 8.4-7.5 18.2-13 31.5-15.9 0-2.7 0-4.8 0-7.6-14.8 2.2-32 10.6-44 24.6zm10.4-42.3q0 9.3 0 18.5 9-5.2 18-10.5c-5.5-3.8-11.5-6.5-18-8zm-22 18.5q0-9.2 0-18.5c-6.6 1.5-12.6 4.2-18 8q9 5.3 18 10.5z"/>
	<path id="Path 4" class="s2" d="m205.7 362.6l-1-0.4c-20.1-7.8-37.7-16.7-53-26.5q-22.9-14.7-38.9-32.3c-11.9-12.9-20.9-27-27.3-42.3-6.4-15.2-10.1-31.6-11.2-49.1v-0.1-68.1l1.1 0.7 56.4 33 0.5 0.3-0.2 0.6q-3.1 7.9-4.7 16.4c-1 5.5-1.6 11.2-1.6 17 0 12.4 2.5 24.3 7 35.1 4.7 11.3 11.5 21.4 20 29.9 7 7 15.1 12.9 24 17.3 8.7 4.4 18.2 7.4 28.3 8.8h0.6v58.6z"/>
	<path id="Path 5" class="s3" d="m293.5 163.5h-0.7c-15.9-25.2-44.1-41.9-76.2-41.9-31.9 0-60 16.6-76 41.6l-55.6-32.6c43.2-37.6 87.9-51.6 131.8-51.3 43.8 0.3 90.7 13.6 131.5 52.1q-27.4 16.1-54.8 32.1z"/>
	<path id="Path 6" fill-rule="evenodd" class="s1" d="m71.7 60.7c47.8 0 85 0 120.2 0l8.2 4.9c-46.7 0.1-92.3 0.1-125.9 0.1v4.6h285.3v-4.8c-50.4 0-89.3 0.1-126.6 0.1l8.5-5c45 0 88.2-0.1 120.6-0.1h2.5v2.5c0 20.6 0.1 41.3 0.1 61.8l-69.9 40.9v-0.1l-2.6 1.5c-3.7-6.4-8.2-12.2-13.4-17.3-15.8-15.9-37.8-25.7-62-25.7-24.2 0-46.1 9.8-62 25.7-5 5-9.5 10.7-13.2 16.9l-1.8-1.1-0.1 0.1-70.5-41.3c0-20.4 0.1-40.8 0.1-61.2v-2.5zm207 213.1c15.9-15.9 25.7-37.8 25.7-62 0-12.7-2.7-24.7-7.5-35.6l1.5-0.9-0.1-0.1 66.3-38.9c0 25.1-0.1 50.4-0.1 75.6v0.2c-2.4 36.1-15.3 67.5-39.6 94.2-23.1 25.2-56.3 46.1-100.6 62.6 0-23.2 0-46.9 0-69.8 21.2-1.8 40.2-11.1 54.4-25.3zm-49.2 29.8v57.9c40-15.7 70.4-35.2 91.7-58.6 23.5-25.7 36-56.1 38.3-91v-66.8l-56.4 33c4.1 10.5 6.3 21.8 6.3 33.7 0 25.6-10.4 48.8-27.2 65.5-13.9 13.9-32.2 23.5-52.7 26.3zm-117.7 5.6c-24.7-25.5-39.5-56.5-42.7-95.1v-78.1l67 39.2-0.1 0.1 0.8 0.4c-5 11-7.8 23.2-7.8 36.1 0 24.2 9.8 46.1 25.7 62 14.3 14.3 33.6 23.7 55 25.4 0 23.2 0 47 0 69.9-41-16-74-35.3-97.9-59.9zm92.7 52.5v-58c-20.7-2.7-39.3-12.3-53.3-26.4-16.8-16.7-27.2-39.9-27.2-65.5 0-12.1 2.3-23.6 6.5-34.1l-56.5-33.1c0 20.3-0.1 41.1-0.1 67.5 2.9 38.1 17.2 68.6 41.5 93.6 21.9 22.6 52 40.8 89.1 56zm154-239.1h-20.1q-3.2-2.6-6.3-5h27.4v-4.5h-33.5q-3.8-2.6-7.6-5h41.1v-4.4h-48.5q-4.7-2.7-9.4-5h57.9v-4.5h-67.7q-6.6-2.8-13.3-5h81v-4.5h-96.6c-11.1-2.6-22.2-4.2-33.1-5h129.7v-4.4h-285.3l-0.1 4.4h127.7c-10.5 0.8-21.1 2.4-31.7 5h-96v4.5h80.8q-6.5 2.2-12.9 5h-67.9v4.5h58.2q-4.7 2.3-9.4 5h-48.8v4.4h41.2q-3.8 2.4-7.6 5h-33.6v4.5h27.2q-3.3 2.4-6.5 5h-18.9l63.9 37.4c3.4-4.9 7.2-9.5 11.4-13.8 16.7-16.7 39.9-27.1 65.5-27.1 25.6 0 48.8 10.4 65.6 27.1 4.3 4.4 8.2 9.1 11.6 14.2z"/>
	<path id="Path 7" fill-rule="evenodd" class="s1" d="m289 90.4c21.1 8.3 41.7 21 61 39.2l2.4 2.3-2.8 1.6-54.8 32.2-0.6 0.3h-2.7l-0.7-1.1c-7.9-12.5-18.9-22.9-31.9-30-12.5-6.9-26.9-10.8-42.2-10.8-15.2 0-29.6 3.9-42.1 10.7-12.9 7.1-23.9 17.4-31.8 29.8l-1.3 2-2.1-1.2-55.6-32.6-3-1.8 2.6-2.3c21.9-19 44.1-32.1 66.5-40.3 22.3-8.3 44.7-11.8 67-11.6 23.6 0.1 48.1 4 72.1 13.6zm55.2 40.5c-18.2-16.5-37.4-28.1-57-35.9-23.4-9.3-47.3-13.1-70.3-13.3-21.7-0.1-43.6 3.3-65.3 11.3-20.9 7.8-41.7 19.8-62.2 37.2l50.5 29.7c8.3-12.2 19.4-22.3 32.3-29.4 13.2-7.3 28.4-11.4 44.5-11.4 16.2 0 31.4 4.1 44.6 11.4 13.1 7.2 24.3 17.5 32.6 29.9z"/>
	<path id="Path 8" class="s4" d="m228.8 361.5v-58.6h0.6c10-1.4 19.5-4.4 28.2-8.8 9-4.4 17.1-10.3 24.1-17.3 8.5-8.5 15.3-18.6 20-29.9 4.5-10.8 6.9-22.7 6.9-35.1 0-5.8-0.5-11.5-1.5-17-1.1-5.7-2.7-11.2-4.7-16.4l-0.3-0.6 0.6-0.3 56.4-33 1.1-0.7v68.2c-1.1 17.5-4.8 33.9-11.2 49.1-6.4 15.3-15.5 29.4-27.3 42.3q-16 17.6-38.9 32.3c-15.3 9.8-33 18.7-53 26.5l-1 0.4z"/>
	<path id="Path 9" class="s1" d="m236.1 63.8l54.1-34.1 31.5-19.8h41.8l-73.3 46.2-12.3 7.7zm-80.3 0l-12.2-7.7-73.4-46.2h41.9l31.5 19.8 54.1 34.1zm61 2.4l-72.2-45.3-17.3-10.9h38.9l50.6 31.8 50.6-31.8h38.9l-17.3 10.9z"/>
	<path id="Path 10" class="s0" d="m49.5 199.9c1.4 12.1 3.5 24.2 6.6 36 6.6 25.1 17.7 49.1 32.7 70.2 7.3 10.3 15.4 20 24.2 29q-4.6 5.3-9.2 10.6 9.8 9.2 20.4 17.5c2.9-3.6 5.9-7.3 8.9-11 12.8 10.9 27.2 20.3 42.9 26.5 12.6 5.1 26.2 8 39.8 8.2 12 0.1 24.1-2 35.5-5.8 18.2-6.1 34.7-16.5 49.3-28.9 3 3.7 6 7.4 9 11 7-5.5 13.8-11.4 20.3-17.5q-4.6-5.3-9.2-10.6c14.1-14.4 26.5-30.6 36.4-48.2 10.3-18.5 17.9-38.6 22.5-59.3 2-9.2 3.5-18.4 4.6-27.7q10.7 12 21.3 24 14.1-8.5 28.2-17.1c-1.2 22.9-5.3 45.6-13.5 67.1-5.4 14.5-12.6 28.4-21.3 41.3q5.7 3.7 11.4 7.5c-10.1 16.8-21.8 32.8-35 47.4-13 14.2-27.5 27.1-43.2 38.4-17.2 12.5-36 22.9-55.5 31.5q-2.9-6.7-5.8-13.4c-9.6 3.9-19.7 6.7-30 8.4-11.6 1.8-23.5 2.4-35.3 1.5-14.6-1.1-29-4.3-42.6-9.9q-2.9 6.7-5.8 13.4c-23.3-10.2-45.5-23.2-65.5-39-15-11.9-28.8-25.3-41.1-40-10-12-19.1-24.9-27.1-38.3q5.7-3.8 11.4-7.5c-13.5-20.1-23.4-42.7-28.9-66.2-3.3-13.8-5.1-28-5.9-42.2q14.1 8.6 28.2 17.1 10.6-12 21.3-24z"/>
	<path id="Path 11" class="s3" d="m292.8 363.5c-5 7.4-11 14.2-17.8 20.1-5.2 4.6-11 8.6-17.3 11.5 3.8 9.2 7.6 18.5 11.4 27.8-16.8 6.9-35.1 10-53.3 10-17.5-0.3-35.1-3.3-51.2-10 3.8-9.3 7.6-18.6 11.4-27.8-6.2-2.9-11.9-6.8-17.1-11.3-6.8-5.9-12.9-12.8-18-20.3 11.8 8.7 24.8 16 38.7 20.9 12.2 4.2 25.1 6.6 38 6.6 11.7-0.2 23.4-2.3 34.6-6 14.6-4.8 28.2-12.4 40.6-21.5zm7.8-4.9q2.9 3.5 5.8 7.1c-7.3 5.6-15 10.8-22.9 15.5 6.6-6.8 12.5-14.3 17.1-22.6zm-167.5 0c4.6 8.3 10.5 15.7 17 22.5-7.9-4.6-15.5-9.9-22.8-15.4q2.9-3.6 5.8-7.1zm222.5-41.9c-6.8 9.4-14.7 17.9-22.8 26.2q-3.1-3.6-6.2-7.2c10.1-5.6 20.1-11.6 29-19zm-248.5 19q-3.1 3.6-6.2 7.2c-8.1-8.3-16-16.7-22.8-26.1 9 7.3 18.9 13.3 29 18.9zm-42.4-33.3c4.4 8.9 10.1 17.1 16.4 24.8 5.6 6.8 11.7 13.1 17.8 19.4 8 7.7 16.4 14.9 25.1 21.7 14.5 11.3 30.4 20.6 46.8 28.8-5.3 12.5-10.2 25.2-15.8 37.6-25.2-11.4-48.9-26.2-69.9-44.3-22.1-19-41-41.7-56.3-66.5 3.2-2.1 6.4-4.2 9.7-6.3q13.1-7.6 26.2-15.2zm304.4 0c8.7 5.1 17.5 10.2 26.3 15.3 3.2 2 6.3 4.1 9.5 6.2-10.1 16.4-21.7 31.8-34.8 45.8-13.5 14.5-28.5 27.4-44.7 38.7-14.8 10.1-30.4 18.9-46.7 26.3-5.5-12.5-10.5-25.1-15.8-37.6 17.5-8.7 34.3-18.7 49.4-30.9 7.8-6.2 15.4-12.8 22.6-19.7 6.1-6.3 12.2-12.6 17.8-19.4 6.3-7.6 11.9-15.8 16.4-24.7zm-269 24.7c-7.8-4.7-15.4-9.7-22.1-15.8-3.7-3.4-7.2-7.2-10-11.5-0.6-1-1.1-2-1.6-3.1q-14.1 8.2-28.2 16.3c-5.8-8.6-11-17.8-15.4-27.3q14.7 5.1 29.3 10.2 6.3-11.8 12.6-23.7c9 19.9 21.1 38.4 35.4 54.9zm268.9-54.9q6.3 11.9 12.6 23.7c9.8-3.4 19.5-6.8 29.3-10.2-4.4 9.5-9.6 18.7-15.4 27.3q-14.1-8.1-28.2-16.3c-1.9 4.2-4.9 7.8-8 11.1-7.5 7.7-16.5 13.8-25.7 19.3 14.3-16.5 26.4-35 35.4-54.9z"/>
	<path id="Path 12" class="s4" d="m388 277.1c10.7-5 21.4-10.2 32.1-15.2q-3 9.6-7 18.9-14.8 5.1-29.6 10.3-6.3-11.7-12.5-23.5 2.7-6.4 5-12.9c4 7.5 8 14.9 12 22.4zm-330.3-22.4q2.3 6.5 5 12.9c-4.2 7.8-8.3 15.7-12.5 23.5-9.9-3.5-19.7-6.9-29.6-10.4q-4-9.2-7-18.9 16 7.7 32.1 15.3c4-7.4 8-14.9 12-22.4z"/>
	<path id="Path 13" class="s2" d="m396.4 256c9.8-5.5 19.6-11 29.3-16.5-1 5.6-2.4 11.1-3.9 16.5-0.1 0.3-0.1 0.7-0.4 0.9q-15.8 7.5-31.7 15.1c-4-7.5-8-15-12-22.4q2.5-7.8 4.5-15.6c4.8 7.3 9.4 14.7 14.2 22zm-344.9-22c1.3 5.2 2.8 10.4 4.5 15.6-4 7.4-8 14.9-12 22.3-10.7-5-21.3-10.1-31.9-15.2-1.7-5.6-3-11.4-4.1-17.2q14.6 8.2 29.3 16.5c4.7-7.3 9.5-14.7 14.2-22z"/>
	<path id="Path 14" class="s3" d="m387.1 209.2c6 6.5 11.8 13.2 17.7 19.8 8.1-4.9 16.2-9.8 24.3-14.7-0.5 6.8-1.3 13.5-2.5 20.2-9.6 5.4-19.3 10.8-28.9 16.2-4.7-7.4-9.5-14.7-14.2-22.1 1.5-6.4 2.6-12.9 3.6-19.4zm-340.5-0.1c1 6.6 2.2 13.1 3.6 19.6-4.7 7.3-9.5 14.7-14.2 22q-14.5-8.1-28.9-16.3-1.7-10-2.5-20.1 12.2 7.4 24.3 14.7c6-6.6 11.8-13.3 17.7-19.9z"/>
	<path id="Path 15" fill-rule="evenodd" class="s0" d="m135.3 414.5l7-12.1v-0.1l-11.4 9.7-5.7-3.4 11.4-19.6 5.1 3-6.7 11.6 11-9.1 5.8 3.4-11.4 19.6zm-38-25.2l13.3-18.4 7.8 5.7-5.2 10.1v0.1l8-8.1 7.8 5.6-13.3 18.4-4.8-3.5 10.4-14.2-0.1-0.1-13.1 12.3-3.2-2.4 7.6-16.3h-0.1l-10.4 14.3zm-0.2-19.1l1.9 1.6q3.3 2.7 2.9 5.3-0.3 2.7-2.2 5-4.5 5.3-9.9 0.8l-6.7-5.5 11.8-14.1-2.6-2.1 2.8-3.4 7.2 6zm-2.4 3l-4.3 5.2 0.9 0.8q1.2 0.9 2 0.6 0.8-0.3 1.9-1.8 2.2-2.5 0.5-3.9zm-22.2-15l7.2-7.3q1.5-1.6 3.3-1.9 1.7-0.4 3.5 0.4 1.8 0.7 3.4 2.4 1.7 1.6 2.5 3.4 0.7 1.8 0.4 3.5-0.4 1.7-1.9 3.3l-1.5 1.4-4.3-4.3 1.8-1.8q1.4-1.4 0.2-2.7-1.3-1.2-2.7 0.2l-7.9 8q-1.5 1.5-0.2 2.7 1.2 1.3 2.7-0.2l2.3-2.4 4.4 4.3-2 2.1q-1.4 1.4-3.2 1.8-1.7 0.4-3.5-0.3-1.9-0.7-3.6-2.4-2.5-2.5-2.8-5.3-0.3-2.7 1.9-4.9zm-15-19.8l3.7 4.4-1.8 1.5q-1.4 1.1-0.4 2.3 1.1 1.3 2.4 0.2l1.2-1q1.6-1.3 1.7-2.4 0.1-1.1-1.3-2.8l2.9-2.4 0.6 0.8q0.7 0.8 1.5 1.1 0.9 0.3 1.5-0.2l1.4-1.2q1.2-1 0.3-2-1-1.2-2.2-0.1l-1.1 0.9-3.6-4.4q2.5-2.4 4.9-2.2 2.4 0.2 5.1 3.4 2.1 2.7 2.3 5 0.2 2.2-2.2 4.2-1.4 1.1-2.7 1.4-1.3 0.3-2.9-0.6 1.3 3-2.4 6-2.9 2.3-5.2 2.2-2.4-0.1-5.1-3.4-2.2-2.7-2.3-5.1-0.2-2.4 2.1-4.2zm-16.4-10.8l21.6-8.6 4.5 6.7-16 16.8-3.6-5.3 3-2.7-2.4-3.6-3.7 1.8zm20.9-3.3l-10 4.9 1.7 2.5 8.4-7.4zm322.1 14.5l-2.8 3.7-4.2-3.1 2.8-3.8zm-21-9.9l2.9-3.7 7.1 5.3 5.1 5.2-1.5 2.1-6.5-3.5zm-8 10l4.4-5.3 20.3 11-3.5 4.3-3.4-2.2-2.3 2.8 2.8 3-3.4 4.1zm4.9-0.5l7.8 8.1 1.6-2-9.3-6.1zm11.5 21l-3.6 3.8-2.2-2.2-4 4.1 2.2 2.2-3.6 3.7-5.5-5.3 0.4-0.4q-1.1-2.3-2.5-4.1-1.4-1.8-4.3-4.7l-5.2-4.9 9.2-9.6 13.1 12.7 0.6-0.6zm-9.7-1l-9.8-9.4-2 2 1.9 1.8q3.1 3 4.5 4.7 1.4 1.7 2.4 4zm-26.7 0.7l5.6 6 1.6-1.5q2.7-2.4 5.1-1.6 2.4 0.8 4.4 3 4.8 5.2 0.3 9.3l-5.4 5-12.5-13.5-2 1.9-3-3.2zm8.2 8.9l4.6 5 0.7-0.7q1-0.9 0.7-1.7-0.3-0.8-1.5-2.1-2.3-2.5-3.6-1.3zm-13.5 0.8l-4.9 3.9 3 3.9 1.8-1.3q4.7-3.8 9.2 1.8 4.1 5.3-0.6 9l-5.8 4.6-14.1-17.7 9-7.2zm0.6 10.8l3.8 4.8 0.8-0.6q1-0.8 0.9-1.5-0.2-0.7-1.3-2.1-0.9-1.2-1.7-1.6-0.7-0.4-1.6 0.3zm-28 4.5l9.6-6.5 2.5 3.7-5.3 3.5 2.5 3.8 4.6-3.2 2.5 3.7-4.7 3.1 2.9 4.2 5.5-3.7 2.4 3.6-9.8 6.6zm-8.5 31.9l-11.8-19.4 4.5-2.7 9.4 15.5 2.6-1.6-9.4-15.5 4.5-2.7 9.4 15.5 2.5-1.6-9.4-15.5 4.5-2.7 9.4 15.5 0.7-0.4 4 6.6-4.5 2.7-1.6-2.7z"/>
	<path id="Path 16" fill-rule="evenodd" class="s0" d="m243.1 400.2l8.9-2.7 0.9 3q-0.2 1.2-0.3 2-0.2 1.7-0.1 3.9 0 2.1 0.3 4.1 0.3 2 0.7 4 0.1 0.3 0.2 0.8 0.1 0.5 0.3 1.2l-3.7 1.2q-0.2-0.7-0.4-2-0.6-2.9-0.7-5.7 0-2.8 0.3-6.2 0-0.3 0.1-0.8 0-0.5 0.1-1.1l-5.6 1.7zm-5 16.5l-0.7-3.9q0.4-2.4 0.4-5.6 0-3.3-0.4-6l3.7-0.7q0.4 2.9-0.1 6.1-0.5 3.3-1.5 6.3l2.5-0.5-0.5-2.5q0.5-1.3 0.8-3 0.3-1.7 0.3-2.8l1.3-0.3 1.6 7.9 1.2-0.2 0.6 3.3-1.2 0.3 0.7 3.5-3.4 0.7-0.7-3.5zm-3.4-10.4l1.3 9.8q0.3 2.2-0.6 3.7-1 1.4-3.1 1.7-4.2 0.5-4.9-4.3l3.2-0.4q0.3 1.6 1.2 1.4 1-0.1 0.8-1.7l-0.3-2.1h-0.1q-0.3 0.6-0.7 0.9-0.4 0.3-1.1 0.4-1.9 0.3-2.8-0.9-0.8-1.2-1.2-3.6l-0.5-3.7q-0.3-2.2 0.6-3.6 1-1.4 3.1-1.7 1.4-0.2 2.5 0.2 1.1 0.5 1.8 1.5 0.6 1 0.8 2.4zm-3 4.7l-0.6-4.5q-0.2-1.2-1-1.1-0.9 0.1-0.7 1.3l0.6 4.5q0.2 1.3 1 1.1 0.9-0.1 0.7-1.3zm-14.1-2.9l-0.1-2.7q2.5-0.2 2.9-2.1l3.1-0.1 0.6 18.8-3.5 0.2-0.5-14.2zm-6.3 7.8l0.1-3.6 5.3 0.2-0.1 3.6zm-7.7-4.7l-1.9-9.1 4 0.5 0.6 5.5h0.1l1.9-5.2 3.8 0.4-3.9 8.6 2 10.5-3.9-0.5-0.9-6.3h-0.1l-2.1 6-3.8-0.4zm-9.2 9.1l3-18.9 3.6 0.5-2.9 19zm-4.8-11.1l5.3 1.1-0.8 3.5-5.2-1.1zm-8.5-4.8l0.4-1.5q0.9-2.7 2.3-3.6 1.4-1 3.6-0.4 2 0.6 2.8 2.1 0.7 1.6 0.1 3.9-0.5 1.8-1.3 2.7-0.8 1-1.9 1.8-1.2 0.8-2.4 1.6-1.2 0.8-2 1.7-0.2 0.2-0.4 0.5-0.2 0.3-0.3 0.4l5.3 1.5-1 3.4-8.8-2.5 0.3-1.1q0.9-2.6 2.1-4.1 1.2-1.4 3.1-2.7 1.9-1.3 2.7-2 0.7-0.6 1.1-2.1 0.5-1.7-0.5-2-0.9-0.3-1.4 1.4l-0.5 1.9zm224.4-445.2h10.6v-19.8h10v19.8h3.8l-2.3 8.7h-33.2l-2.4-8.7h3.3q-0.4-2.6-0.4-4.9 0-11.5 6.9-18.4 3.7-3.7 8.7-5.1 3.9-1.1 10-1.1h4.9l2.4 8.6h-7.7q-7.8 0-11.7 4.2-3.5 3.8-3.5 10.8 0 3 0.6 5.9zm-16.4 8.7h-10v-12.1h-11q0.1 5.8 3.9 12.1l-8.2 5.4q-5.9-9-5.9-19 0-11.4 6.9-18.3 3.6-3.7 8.7-5.2 3.8-1.1 10-1.1h4.9l2.3 8.6h-7.8q-7 0-10.4 3.2-1.9 1.7-3.4 5.6h10v-7.7h10zm-50.7 0h-10v-28.4h10v10.1q3-1.5 5.2-3.4 3.1-2.6 3.1-4.9 0-1.9-1.7-2.5-1-0.4-3.2-0.4h-15.2l2.3-8.6h15.5q6.6 0 9.8 3.3 2.8 2.7 2.8 7.2 0 11.3-18.6 19.2zm-12.8-29.6h-14.9v24.2q0 3.7 0.6 5.4l-9.1 5.8q-1.5-3.1-1.5-8.4v-35.6h22.6zm-61.8 29.6v-28.5h10v19.8h5.7q4.4 0 4.4-2.2 0-2.5-3.7-5.5-2.8-2.3-5.9-3.7l3.1-2.4q2.4-1.9 2.9-2.3 1.9-1.7 1.9-3 0-1.2-1.1-1.6-0.8-0.2-3.6-0.2h-15.6l2.4-8.6h18q11.2 0 11.1 8.8 0 4.3-5 8.6 6.8 4.8 6.8 11.4 0 4-2.6 6.3-3.3 3.1-10.4 3.1zm-40-23.9q0-15.1 17.4-15.1 17.4 0 17.4 15.1 0 8.9-4.3 16.2-5 8.5-13.1 8.5-8.1 0-13.1-8.5-4.3-7.3-4.3-16.2zm24.3 0.5q0-3.8-1.6-5.3-1.6-1.5-5.3-1.5-3.7 0-5.3 1.5-1.6 1.5-1.6 5.3 0 5.4 2 10.2 2.2 5 4.9 5 2.7 0 4.9-5 2-4.8 2-10.2zm-45.5 23.4h-10v-28.5h10v10.1q3-1.5 5.2-3.4 3.1-2.6 3.1-4.9 0-1.9-1.7-2.5-1-0.4-3.2-0.4h-15.2l2.3-8.6h15.5q6.6 0 9.9 3.3 2.7 2.7 2.7 7.2 0 11.3-18.6 19.2zm-12.6-29.6h-10.7v29.6h-10v-29.6h-10.7l2.4-8.6h26.6zm-64.7-8.6h10v13l11.1-13h9.5v38.2h-10v-24.1h-0.1l-10.5 12.8v11.3h-10zm-7.3 38.1h-9.9v-23.1h-0.1l-7.7 10.3-7.6-10.3h-0.1v23.1h-10v-38.1h9.5l8.2 11.2 8.3-11.2h9.4zm-73.2-38.2h10v13l11.1-13h9.5v38.2h-10v-24.1h-0.1l-10.5 12.8v11.3h-10zm-27.6 29.5h10.5v-19.8h10.1v19.8h3.8l-2.4 8.6h-33.2l-2.3-8.6h3.3q-0.4-2.6-0.4-5 0-11.4 6.9-18.3 3.7-3.7 8.6-5.1 3.9-1.1 10.1-1.1h4.9l2.4 8.6h-7.7q-7.8 0-11.7 4.2-3.5 3.8-3.5 10.8 0 3 0.6 5.9z"/>
</svg>