<svg version="1.2" xmlns="http://www.w3.org/2000/svg" viewBox="0 0 400 472" width="400" height="472">
	<title>Krichim-pdf</title>
	<style>
		.s0 { fill: #d88131 } 
		.s1 { fill: #a5d5f2 } 
		.s2 { fill: #3b1574 } 
		.s3 { fill: #868789 } 
		.s4 { fill: #ffec00 } 
		.s5 { fill: #286b28 } 
	</style>
	<path id="Path 2" class="s0" d="m399.9 332.7l-210.9 138.2-188.1-148.4 45.8-322c100.7 29 201.8 29 303 0z"/>
	<path id="Path 3" class="s1" d="m0.9 322.5l7.2-51c0.6 1.2 1.8 2.6 4 3.9 3.5 2 9.2 2.7 12.6 3.4 35.8 6.2 83.4-13.3 116.1-6.8 0.6 0.1 2 0.6 2.8 0.8l14.3 6.3c2.7 1.6 7.2 2.7 10.4 3.7 5.8 1.8 18.2 3.1 24.6 3.1 19.1 0.1 34.3-2.1 51.4-4.1 21.8-2.7 29.2-3.1 49.2 2.6 32.1 6.8 67.7 9.8 100.6 9.8l5.8 38.5-35.9 23.5c0-0.1-0.1-0.1-0.3-0.2l-36.2-10c-23.9-6.7-40.1-6.4-65.1-6.1-7.4 0.1-15.6 1-22.8 1.2-14.3 0.4-27.9 2.6-44.9 2.8-11.1 0.2-28.4 0-39.3-2.6-2.2-0.5-4.3-1-6.4-1.5-7-1.8-16.8-3.2-23.9-4.3l-4.9-0.9c-0.6 0-1 0-1.6-0.1h-0.3c-24.8-2.8-47.1-2.2-71 2l-19.7 4q-1.8 0.5-3 0.8z"/>
	<path id="Path 4" class="s2" d="m3.7 303.1c9.2 3.7 9.6 4.2 21 5.4 21.8 2.4 56.5-3.4 79.3-4.3 42.7-1.5 56.3 17.7 95.6 14.1 24.6-2.4 53.9-7.5 78.4-4.5 12.1 1.5 32 7 45.8 9.6 18.5 3.4 45.3 5.8 64.3 4.5 2.1-0.2 7.7-0.9 10.9-1.2l0.7 4.8c-33.3 4.3-68.3-0.8-98.9-8.1-42.9-10.4-59.8-3.9-102-0.2-40.3 3.4-51.3-15.9-96.3-14-17.4 0.6-34.8 3.3-52.5 4.3-13.5 0.8-31.1 1-44.1-4-1.4-0.6-2.4-0.9-3-1.2zm1.7-11.9c14.3 5.9 31.4 5.6 48.2 4.4 17.4-1.3 34.2-3.7 51.5-4.3 18.5-0.5 31.2 2.6 47.1 7.7 16.6 5 28 8.3 47.6 6.4 17.1-1.6 33.7-4.3 51-5 20-0.9 31.7 0.8 49.5 5 15.5 3.7 29.7 6.5 46.3 8.4 11.9 1.3 27.3 2.2 39.3 1.4 3.4-0.1 7.8-0.9 11.3-1l0.7 4.8c-21 1.8-28.6 1.9-50.6-0.3-16.3-1.5-31.6-4.4-46.8-8.2-21.1-5.2-27.5-5.8-49.4-5.3-16.8 0.5-34.1 3.6-51 5-41.9 3.8-53.2-15.3-94.9-14.1-28.1 0.9-64.1 8.6-90.8 3.1-3.7-0.9-6.5-2-9.7-3zm1.3-8.5c2.7 0.6 6.8 2.2 9.3 2.7 26.6 5 61.6-2.5 90.3-3.3 19.6-0.4 29.9 3.1 46.5 7.8 17.7 5 26.2 8.1 46.7 6.3 17-1.3 33.3-4.1 50.4-4.9 32.7-1.6 43.1 4.2 71.7 9.7 18.4 3.6 43.8 6.1 62.8 5.1 2.5 0 8.2-0.8 11.6-0.9l0.7 4.9c-3.7 0.1-8.1 0.7-11.8 0.9-25.9 1.5-61.2-3.8-85.2-9.9-17.9-4.4-30.1-6-49.5-5-16.9 0.9-33.7 3.7-50.3 5-32.4 2.5-41.5-6.3-69-12.2-24.1-5-52.7 0.8-77.3 2.5-18.1 1.3-30.9 1.4-47.5-3.9zm-4.6 32.4c1.2 0.4 2.3 1.3 3.7 1.8 23.8 10.1 66.4 2.1 93 0.5 47.1-2.9 59.6 15.5 93.2 14.3 16.9-0.7 33.6-3.8 50.1-5.1 32.4-2.7 43.8 1.1 72.5 7.7 18 4.1 48.1 7.5 67.1 6.8 3.9-0.2 5.3-0.8 5.6 0l-7.2 4.8c-9.4 1.4-40.5-2.3-48.9-3.6-17.4-2.5-28.4-6.1-44.2-9.2-26.9-5.4-48.3-0.9-74.6 1.7-8.2 0.8-16.6 1.9-25.1 1.8-22.4-0.3-43.4-11.9-65.8-14.3-26.9-3-71 7.9-101.7 3.4-3.8-0.6-7.2-1.3-10.8-2.4-1.6-0.5-3.3-1.1-4.9-1.8-1.3-0.6-2.2-0.9-2.7-1.1z"/>
	<path id="Path 5" class="s3" d="m221.1 386.1c5.2-13.7 0.2-15.1 9-15.2 3.6 0 11.6 1.2 12.7 4.8 0.7 2.4-2.3 3.5-3.6 4.9-3.8 3.9 2.9 7.6-3.9 14.2-0.4 0.4-0.4 0.5-0.7 0.7-0.4 0.5-1.2 1.1-1.5 1.6-2.7 3.5 1.5 11.3-2.9 15.4-3.3 3.1-5.5 1.9-10.5 2.4-0.6 0.1-2.2 0.2-2.9 0.4-12 2.5-6.6 4.8-11.9 9.9-5.4 5.3-16.3 5.3-21.7 0-5.3-5.1 0.2-7.4-11.9-9.9-0.6-0.2-2.2-0.3-2.9-0.4-5-0.5-7.1 0.7-10.5-2.4-4.3-4.1-0.1-11.9-2.9-15.4-0.2-0.5-1.1-1.1-1.4-1.6-0.4-0.2-0.4-0.3-0.8-0.7-6.7-6.6 0-10.3-3.9-14.2-1.2-1.4-4.2-2.5-3.5-4.9 1-3.6 8.3-4.6 11.9-4.5 8.8 0.1 4.7 1.2 9.8 14.9 9.2 24.4 44.7 24.4 54 0z"/>
	<path id="Path 6" class="s4" d="m205.6 362c4.1 2 5.5 7.4 5.5 12.2 0 9.1-7.5 16.4-17 16.4-9.5 0-17-7.3-17-16.4 0-2.2 0.4-4.4 1.2-6.4 4.3-9.6 9.4-5 16.7-5 4.1 0 5.5-3.1 10.6-0.8z"/>
	<path id="Path 7" class="s5" d="m190.8 354.8c1.2-2.2 2.8-4.5 4.9-5.7 5-2.5 8.9-1.1 11.8-0.8-2.5 1.6-3.5 2.2-5 5.9-1.6 3.7-4.8 5.9-7.2 6.1-1.1 0.1-2.9 0.4-3.6-0.6-0.7-1-2.6-0.7-2.8-0.9-0.1-0.3 0.8-2 1.9-4z"/>
	<path id="  КРИЧИМ" class="s4" aria-label="  КРИЧИМ"  d="m96.1 237v-36.4h5v16q1.9 0 3.1-0.6 1.1-0.5 2.4-1.9 1.3-1.5 4-5.7l5.4-7.8h5.1l-7.3 10.6q-3.4 4.8-4.6 5.8l13.1 20h-5.7l-11-17.7q-0.7 0.3-2.1 0.7-1.4 0.3-2.4 0.3v16.7zm59.1-25.5q0 5.2-3.4 8.2-3.4 3.1-9.2 3.1h-10.7v14.2h-4.9v-36.4h15.3q6.1 0 9.5 2.8 3.4 2.9 3.4 8.1zm-5 0.1q0-7.1-8.5-7.1h-9.8v14.4h10q8.3 0 8.3-7.3zm18.1 25.4h-6v-36.4h4.5v23.9q0 2.9-0.2 7l19.4-30.9h5.7v36.4h-4.4v-24.2q0-3.2 0.2-6.6zm53.9 0v-13.1q-4 0.9-6.4 1.2-2.4 0.3-4.2 0.3-5.7 0-8.6-2.4-2.8-2.3-2.8-7.1v-15.3h4.9v14.8q0 3.2 1.7 4.6 1.7 1.4 5.2 1.4 3.8 0 10.2-1.3v-19.5h4.9v36.4zm19.5 0h-5.9v-36.4h4.4v23.9q0 2.9-0.2 7.1l19.4-31h5.8v36.4h-4.4v-24.2q0-3.2 0.1-6.6zm67.6 0h-4.4v-24.3q0-4 0.2-7.7-1.2 4.6-2.3 7.2l-9.4 24.8h-3.4l-9.6-24.8-1.4-4.4-0.9-2.8 0.1 2.8 0.1 4.9v24.3h-4.4v-36.4h6.5l9.7 25.3q0.5 1.5 1 3.2 0.5 1.8 0.6 2.6 0.2-1.1 0.9-3.2 0.6-2.1 0.9-2.6l9.5-25.3h6.3z"/>
	<path id="Path 9" class="s3" d="m96.3 60h42.4v32.6h40.6v-32.6h42.6v32.6h40.5v-32.6h43.3l10.4 104.8c-79.1-19.1-156-18.9-230.8 0.6z"/>
</svg>