<svg version="1.2" xmlns="http://www.w3.org/2000/svg" viewBox="0 0 851 968" width="851" height="968">
	<title>Vratsa-pdf</title>
	<style>
		.s0 { fill: #00a650 } 
	</style>
	<path id="Path 1" fill-rule="evenodd" class="s0" d="m553.9 7.4c-0.7 20.3-2.7 39.6-1.7 60.3 34.9 3.4 72.8 1.3 106.7 4.7l2-59.6 190 20-1.1 112.1-11.1 434.7c-4.4 57.6 8.4 133.1-53.9 167l-349.4 221.4h-6.1l-298.3-182.8c-44.7-27.1-110.4-59-108.4-121.9l-22.3-618.3c-1-2.7 0.7-5.1 3.1-6.8l189.9-22.7 2.4 59.3 106.6-4.4v-65.7l2.7-2.4 244.8-2c4.1 0.7 2.4 5.4 4.1 7.1zm-201.7 42.2v55.1l-3.5 6.3-194.7 7.4-3.5-2.1-2.8-47-95.2 10.1 15.4 495.3 4.6 99.9c7.4 33 41 47.7 67 63.1l216.3-106.9 0.9-224 241.5-109.2-56.9 170.1-28.1 15.5c5.2 81.7 9.8 167.6 17.2 248.2l-2.5 3.5-195.3 108-9.4 5.2 102.7 61.8q4.4 1.9 8.7 1.7l296.6-183c26.3-16.5 59.6-35.7 57.5-71.5l6.3-307.4-62.6 26.2-40.1-107.2 106.2-47 2.8-146.5-93.7-10.4-2.5 46.2c0 3.2-3.1 3.2-6.3 2.8l-192.6-4.9-2.1-59.3c-41.7 0-110.5 0-151.9 0zm422.4 505l-242.5 3.1 116.5-345.4zm-648.5-380.3v98.3l-39.7-0.4v-98.5zm116.3 57.8v-59.1c15.6 1 34 0.8 40 18.3 3.1 11.2 1.6 24.7-6 33.1-9 8.5-21.4 7.5-33.1 8.9zm-11.3-59.2v99.1l-36.7-0.2v-98.9zm-93.5 99v-98.2c19.5-1.6 34 4 37.1 16.2 3.1 12.3-2.8 22-13.6 26.1l-7.4 2.4c5.3 3.1 19.8 7.8 21.5 21.8 1.8 14-2.6 22.3-15.2 28.1-6.7 2.2-13.8 4-22.4 3.6zm310.9 0l-0.8-98.5 44.9 0.1-0.4 98.4zm-57.7 0l-0.4-98.5 43.5 0.6v97.6zm131.2-43.8l23.7 43.8h-49.6zm36.6-63.3l59.3 107.2h-52.2l-34-60.4zm-265.5 63.4l23.6 43.8h-49.6zm36.6-63.3l59.3 107.1h-52.2l-34-60.3zm10.9 452.9l-252.4-0.6c40.3-107.4 77.2-215.8 117.8-323.2zm162.4-329.8l-18.8 15.3-27.2-21.7q-1.1-1.2-2.1-2.5h59z"/>
</svg>