<svg version="1.2" xmlns="http://www.w3.org/2000/svg" viewBox="0 0 500 500" width="500" height="500">
	<title>Borovo-cdr</title>
	<style>
		.s0 { fill: #ff2e17 } 
		.s1 { fill: #2c2e35 } 
		.s2 { fill: #c4c4c7 } 
		.s3 { fill: #ffd939 } 
		.s4 { fill: #00b9f2 } 
		.s5 { fill: #00ab4f } 
		.s6 { fill: #ffffff } 
	</style>
	<g id="Group 1">
		<g id="Group 2">
			<path id="Object 3" fill-rule="evenodd" class="s0" d="m249.9 499.3c-138 0-249.5-111.5-249.5-249.5 0-138 111.5-249.6 249.5-249.6 138 0 249.6 111.6 249.6 249.6 0 138-111.6 249.5-249.6 249.5zm233.9-249.5c0-129.4-104.5-233.9-233.9-233.9-129.3 0-233.9 104.5-233.9 233.9 0 129.3 104.6 233.9 233.9 233.9 129.4 0 233.9-104.6 233.9-233.9z"/>
			<path id="Object 4" class="s1" d="m249.9 449.8q-13.2 0-26-1.7l-2.7 20.7c-22.1-2.9-43.3-9.1-62.8-18.2l8.3-18.9c-16-7.5-30.7-16.7-43.9-27.6l-13.2 16c-18.9-15.5-35-34-47.9-54.8l54.3-33.5c27.7 44.9 77.4 75 133.9 75 56.5 0 106.2-30.1 133.9-75l54.4 33.5c-13 20.8-29.1 39.3-48 54.8l-13.2-16c-13.2 10.9-27.9 20.1-43.9 27.6l8.3 18.9c-19.5 9.1-40.7 15.3-62.8 18.2l-2.6-20.7q-12.8 1.7-26.1 1.7z"/>
			<path id="Object 5" class="s2" d="m263.6 110.6c0 0 50.2-4.2 84.8 36.8 59.7 70.6 47.7 121.7 45.8 135.8-0.7 5.4-2.2 8.1-11.5 11.7-3.7 1.4-5.6 6.5-13 9.3-4.7 1.8-10.6 1.4-15.3 2.5-9.1 2.1-3.2 5.6-1 8.5 2.1 3 0.3 4.6 0.3 4.6 0 0 4.8 6.9 6.8 8.1 2.1 1.1 5.4 0.2 6-2.2 0.6-2.3 0.6-7.4 4.5-6.8 3.9 0.6 9.9 0.3 9.9 0.3 0 0-3.6 6.5-4.2 8.9-0.6 2.4-4.7 9.1-6.3 10.5-2.4 2.1-5.9 0.6-8.6-1.5-2.8-2.1-20.4-26.6-23.1-28.7-2.7-2.1-4.8-9 1.5-10.8 6.3-1.8 8-1.4 9.3-1.8 1.2-0.3 3.5-2.4-0.6-4.2-4.2-1.8-6-4.1-7.8-6.8-1.8-2.7-1.2-3.6-1.2-6 0-2.4-7.2-3-6.3-7.5 0.9-4.5-6-7.8-8.4-10.5-2.4-2.7-3.6-4.5-5.7-2.1-2 2.4-0.2 6.6 0.1 8.4 0.2 1.8 3.5 3 2.6 5.4-0.9 2.4 1.8 2.1 2.4 3.9 0.6 1.8 2.4 10.2 0 12.6-2.4 2.4-7.1-0.6-8.3-2.4-1.2-1.8-4-2.7-5.7-3.3-1.8-0.6-11.1-12.3-12.9-13.2-1.8-0.9-4.4-2.1-4.4-5.7 0-3.6-6-3.7-3.1-8.4 2.1-3.3-6.6-8.3-7.5-9.8-0.8-1.5 0-3.3 9-3 2.2-2.9 0-4.2 6.2-9.7 3-2.6 8.8-6.1 13-7.7 9.8-3.6 20.9-0.9 26.9 3.3 10.2 7.2 5.6 6.9 10.4 9 5.7 2.4 9.4-3 11.1-7.8 1.3-3.5-2.6-22.8-27.2-28.7-24.5-6-52.9-3.3-52.9-3.3z"/>
			<g id="Group 6">
				<path id="Object 7" class="s3" d="m266 32.6c0 0 75.2 1.2 124.1 50.9 0.3 15.9-0.1 23.5-0.1 23.5 0 0-44.8-54.1-125.2-54.7 0.3-5.6 1.2-19.7 1.2-19.7z"/>
				<path id="Object 8" class="s3" d="m264.6 57.5c28.4 1 75.4 6.5 124.4 54.8-0.4 5.8 0 12.2 0 12.2 0 0-5.2-0.4-13.1-1.7-44.8-40.6-97.9-45.5-110.2-46.5-2.3-0.1-2.1-0.2-2.4-0.3 0 0 0.7-10.2 1.3-18.5z"/>
				<path id="Object 9" class="s3" d="m263.5 80.9c26 1.7 57.9 5 95.2 39.9-9.5 2.4-19.4 5-19.4 5 0 0-30-24.7-76.8-25.1z"/>
				<path id="Object 10" class="s3" d="m343.2 128.4c0 0 22.3-9.3 43.5-2 6.1 5.3 21.8 30.4 21.8 30.4 0 0-30-3.6-37.9-3-9.9-9.5-27.4-25.4-27.4-25.4z"/>
				<path id="Object 11" class="s3" d="m403.2 94.5c0 0 18 12.5 22.8 25.4 5.6 15.1-10.9 41.5-10.9 41.5 0 0-20.4-27.4-20.5-28.7-0.3-3.9-1-30 8.6-38.2z"/>
				<path id="Object 12" class="s3" d="m436.5 139.7c0 0 17.2 13.1 17.2 30.3 0 17.1-17.2 32.3-19.8 35.3-2.9-4.6-12.5-31.6-12.5-34 0-2.3 4.2-20.1 15.1-31.6z"/>
				<path id="Object 13" class="s3" d="m458.6 188.1c0 0 10 21.2 8.2 30.4-3.9 20.4-27 32.3-27 32.3 0 0-4.5-31.7-3.9-35.3 0.9-5.5 22.7-27.4 22.7-27.4z"/>
				<path id="Object 14" class="s3" d="m466.9 242.2c0 0 6.8 22.4 2.6 33.3-5.6 14.5-34.9 24.4-34.9 24.4 0 0 3.6-33.8 5.6-36.2 5.2-6.6 26.7-21.5 26.7-21.5z"/>
				<path id="Object 15" class="s3" d="m460.9 296.6c0 0 1.3 25.7-4.9 32.4-13.2 14.1-39.6 14.1-39.6 14.1 0 0 10.6-29.9 13.2-32.3 7.2-6.9 31.3-14.2 31.3-14.2z"/>
				<path id="Object 16" class="s3" d="m404.9 278.5c0 0 21.1 18.5 20.7 30-0.2 9.2-13.2 33.6-13.2 33.6 0 0-18.1-13.5-19.4-29.7-1.3-16.1 11.9-33.9 11.9-33.9z"/>
				<path id="Object 17" class="s3" d="m406.2 235.6c0 0 25.3 7.7 28.7 28.7 2.3 14.5-4.6 37.2-4.6 37.2 0 0-24.4-27.6-25.1-31.3-0.7-3.6 1-34.6 1-34.6z"/>
				<path id="Object 18" class="s3" d="m395.6 193.1c0 0 28.2 5.3 35 20.4 4.9 11.2 5.9 37.3 5.9 37.3 0 0-29.6-19-32.6-23.5-11.6-16.8-8.3-34.2-8.3-34.2z"/>
				<path id="Object 19" class="s3" d="m372.9 156.8c0 0 32.2-2.5 42.5 9.9 6.3 7.6 14.2 37.3 14.2 37.3 0 0-33.4-14.3-37.9-16.8-5.6-3.2-18.8-30.4-18.8-30.4z"/>
			</g>
			<path id="Object 21" fill-rule="evenodd" class="s4" d="m39.8 184.2c0 0 65-31.4 58.8 33.6 6.9-16.4 11.7-28.9 11.7-28.9 0 0-31-42.1-25.1-70.6 6.7-32.2 73.3-80.7 149.2-84.2 3.3 49.5 4.5 65.5 4.5 65.5 0 0-42.9 5.4-57.3 17.6 28.9-10.5 53.6-6.7 53.6-6.7l-14.2 85.3c0 0-44.8-3.5-57 11.2 6.3 6.4 15.8 24.2 17.4 43.5 1.2 14.7-3 33.3-12.8 41.9-28.1 24.4-55.8 9-67.1 0 4.8 19.6 9.6 30.4 9.6 30.4l-33.7 15.5c0 0-49.1-25.2-46.3-70 1.9-28.8 28.5-34.1 29.6-52.9 1.1-19.3-20.9-31.2-20.9-31.2zm102.6 82.3c9.6-9.7 3.1-32.1-1-33-4.7 3-22.8 30-22.8 30 4.9 6 17.8 9.1 23.8 3z"/>
			<g id="Group 22">
				<path id="Object 23" class="s5" d="m249.5 236.1c-15.9 0.4-32.9-11.6-32.9-11.6 0 0 12.6-15.9 20.4-33.1 8.6-18.9 12.4-39.3 12.5-39.3 0.2 0 4 20.4 12.6 39.3 7.8 17.2 20.4 33.1 20.4 33.1 0 0-17 12-33 11.6z"/>
				<path id="Object 24" class="s5" d="m249.5 320c-35 0.1-62.3-21.1-62.3-21.1 0 0 14.3-15.7 25.3-32.5 9.2-14 15.6-29.6 15.6-29.6 0 0 10.7 2.3 21.4 2.3 10.6 0 21.4-2.3 21.4-2.3 0 0 6.3 15.6 15.5 29.6 11 16.8 25.3 32.5 25.3 32.5 0 0-27.3 21.2-62.2 21.1z"/>
				<path id="Object 25" class="s5" d="m249.5 398.8c-30.8-0.1-59.4-9.6-83-25.8 0.2-0.1 17.9-12.8 30.1-27.2 10.9-12.8 16.6-27.6 16.6-27.6 0 0 17.9 7 36.3 7 18.4 0 36.2-7 36.2-7 0 0 5.7 14.8 16.6 27.6 12.3 14.4 29.9 27.1 30.1 27.2-23.5 16.2-52.1 25.7-82.9 25.8z"/>
			</g>
			<path id="Object 27" fill-rule="evenodd" class="s0" d="m131.6 374.6l-8.3-8.8-3.4 3.1 4.5 4.8q2 2.1 2.7 4.2 0.8 2.1 0.2 4.1-0.5 2-2.3 3.7-2.3 2.1-5.3 2-1.3 0.1-2.7-0.4-1.1-0.4-1.9-0.9-0.9-0.5-1.8-1.3-1-0.9-2.6-2.7l-8.1-8.5 19.4-18.3 14 14.8zm-18.8 1.1l2.7 2.8q1.3 1.4 2.4 1.6 1 0.3 1.9-0.6 0.9-0.9 0.8-1.9-0.2-1.1-1.5-2.5l-2.7-2.8zm38.4 23.8q1.5-2.6 3.6-4.4 2.2-1.7 4.7-2.4 2.5-0.7 5.2-0.3 2.7 0.5 5.4 2 2.7 1.5 4.5 3.7 1.7 2.1 2.3 4.6 0.7 2.5 0.2 5.2-0.4 2.8-2 5.6-1.6 2.7-3.7 4.5-2.1 1.8-4.6 2.5-2.5 0.7-5.2 0.2-2.7-0.4-5.4-2-2.8-1.5-4.5-3.6-1.8-2.2-2.4-4.7-0.7-2.5-0.2-5.3 0.5-2.8 2.1-5.6zm7.3 4.6q-3.6 6.3 1 8.9 2.3 1.3 4.3 0.4 1.9-1 3.8-4.1 3.7-6.6-0.6-9.1-4.7-2.7-8.5 3.9zm41.4 32l5.8-26 10.7 2.4q2.6 0.5 4.4 1.2 1.8 0.7 3 1.5 1.2 0.9 2 2 2.2 3 1.2 7.3-0.6 2.8-2.3 4.5-1.6 1.8-4.1 2.3-2.5 0.5-5.6-0.2l-5-1.1-1.8 8zm11.6-12.5l4.5 1q1 0.3 1.9-0.3 1-0.6 1.2-1.7 0.3-1.3-0.3-2.2-0.6-0.8-2-1.2l-4.1-0.9zm42.6 5.5q-0.2-3 0.6-5.6 0.8-2.6 2.5-4.6 1.7-2 4.2-3.2 2.5-1.1 5.5-1.4 3.2-0.2 5.8 0.6 2.6 0.8 4.5 2.5 2 1.7 3.1 4.2 1.2 2.6 1.4 5.8 0.3 3.1-0.5 5.8-0.8 2.6-2.4 4.6-1.7 2-4.2 3.1-2.5 1.2-5.6 1.4-3.1 0.3-5.8-0.5-2.6-0.8-4.6-2.5-1.9-1.8-3.1-4.3-1.1-2.6-1.4-5.9zm8.7-0.2q0.5 7.2 5.7 6.8 2.6-0.2 3.8-2.1 1.1-1.9 0.8-5.5-0.5-7.6-5.5-7.2-5.4 0.4-4.8 8zm52.3 2.4l-10.6-24.5 9.3-4q3.4-1.5 5.4-2.1 2.1-0.6 3.8-0.6 1.7 0 3.1 1 1.5 1 2.3 2.9 0.5 1.2 0.5 2.5 0 1-0.1 1.6-0.2 0.6-0.7 1.2-0.5 0.6-1.6 1.5 1.4-0.2 2.2-0.3 0.8 0 1.6 0.3 2.4 0.8 3.6 3.7 1.3 2.9 0.5 5.4-0.5 1.3-1.4 2.4-0.9 1-2.6 2.1-1.7 1-4.5 2.2zm1.3-18l2.9-1.2q1.7-0.8 2.2-1.3 0.8-1 0.2-2.3-0.5-1-1.3-1.3-0.9-0.2-2.2 0.3l-3.6 1.6zm3.9 9l3.6-1.6q1.7-0.7 2.3-1.6 0.6-0.9 0.1-2-0.5-1.2-1.6-1.4-1.1-0.3-2.8 0.5l-3.6 1.5zm35.7-27.8q-2-2.3-2.9-4.9-0.9-2.6-0.7-5.2 0.3-2.6 1.6-5 1.3-2.4 3.7-4.4 2.3-2.1 4.9-2.9 2.6-0.9 5.2-0.7 2.6 0.2 5 1.6 2.4 1.4 4.5 3.8 2 2.5 3 5 0.9 2.6 0.7 5.2-0.2 2.6-1.5 5-1.3 2.4-3.7 4.4-2.4 2.1-5 3-2.6 0.9-5.2 0.6-2.6-0.2-5-1.6-2.5-1.4-4.6-3.9zm6.8-5.3q4.7 5.5 8.7 2.1 2-1.7 1.8-3.9-0.2-2.1-2.5-4.9-4.9-5.8-8.8-2.6-4.1 3.5 0.8 9.3z"/>
			<g id="Group 28">
				<path id="Object 29" class="s6" d="m129.3 75.7c0 0 30.3-27 95.1-35.2 0.8 7.5 1.5 13 1.1 14.1-61.8 8.5-86.3 32.2-86.3 32.2z"/>
				<path id="Object 30" class="s5" d="m153.3 101.8l-10-10.9c10.5-7.4 37.6-23.4 83-30.3l1.4 14.1c-41.7 6.8-65 20.3-74.4 27.1z"/>
				<path id="Object 31" class="s0" d="m167.1 116.8l-10.1-10.9c12.9-7.8 36.4-19.1 71.2-25l1.4 14.1c-30.9 5.6-51.1 15-62.5 21.8z"/>
			</g>
		</g>
	</g>
</svg>