<svg version="1.2" xmlns="http://www.w3.org/2000/svg" viewBox="0 0 308 425" width="308" height="425">
	<title>Primorsko-cdr</title>
	<style>
		.s0 { fill: #0155ae } 
	</style>
	<path id="Object 4" fill-rule="evenodd" class="s0" d="m0.5 86.1h70.9l-7.3 7h82.6v-12.6h-36.6v-10.2h41.5c-17-2.5-30.1-17.2-30.1-34.9 0-19.5 15.8-35.3 35.3-35.3 19.4 0 35.2 15.8 35.2 35.3 0 17.7-13 32.4-30.1 34.9h39.9v10.2h-36.6v12.6h79.1l-7.4-7h70.9l-21.9 14.8 21.9 14.8h-60.7v5h-184v-5h-62.6l21.9-14.8zm131.8-50.7c0 13.5 11 24.4 24.5 24.4 13.5 0 24.4-10.9 24.4-24.4 0-13.5-10.9-24.5-24.4-24.5-13.5 0-24.5 11-24.5 24.5zm-96.9 90.2h238.8v192.9c-15.7 74.9-90.6 42.9-119.4 81.9-28.7-39-103.7-7-119.4-81.9zm229.1 119.3v-109.5h-219.3v109.5zm-106.3-83.5q2.7 0.4 5.2 1.2c5.2-7 2-17.2 16.2-19.3-11.2 11.8-3 17.9-9.3 22.8l-0.2-0.1q1.5 1.1 2.8 2.3c9-3.7 12.8-15.5 27.5-9.6-16.8 4.8-14.2 15.4-21.9 17.2q0.8 1.6 1.4 3.4l-0.1-0.6c9.9 0.1 16.9-9.7 28.4 1.7-17.7-2.1-19 9.2-27.1 7.7q0 1.6-0.2 3.1c9.5 5.2 21.6-0.6 26.8 16.4-16.2-11.5-22.8-1.2-29.9-7.4q-0.6 1.1-1.4 2.1c5.9 9 19 10.2 15.3 27.4-8.5-17.7-19-12-22.3-20.5q-0.8 0.5-1.5 0.9c1.1 10.5 11.5 17.4 0.2 30.6 1-18.9-10.1-19.3-9.8-27.4q-1.7 0.2-3.3 0.2h-0.4c-3.4 10.1 3.6 20.9-12.2 28.4 9-17.9-2.6-22.3 2.8-30.3q-1.7-0.6-3.2-1.5c-8.1 7-7.3 19.8-24.8 18.3 16.6-10.8 9-20.4 17.4-24.6q-1.1-1.4-2-2.9c-10.2 3.1-15 15-30.3 6.4 20-3 17-15.4 26.9-15.5q-0.2-0.8-0.2-1.7c-10.7-2.7-20.9 5.8-30-9.6 18.9 7.4 22.1-4.9 30.7-0.1q0.3-0.9 0.6-1.7c-8-7.5-20.9-5-21.6-22.9 12.7 15.2 21.4 6.8 26.7 14.3q0.9-1.1 2-2.1c-2.9-10.2-14.5-15.3-5.5-30.3 2.2 18.6 12.9 17.5 14.4 25q1.9-0.7 3.8-1c1.3-8.8-6.1-16.4 5.7-24.9-4.6 15.6 5.1 17.6 2.4 24.6zm121.2 185.3c-6.9 12.9-17.2 23.4-31.8 30.7-9.6 4.8-19.8 7.7-30.2 10.2-13.3 3.1-31.7 5.7-43.1 13.4-2.9 1.9-5.5 4.3-7.6 7.2l-11.9 16.2-11.9-16.2c-2.1-2.9-4.7-5.3-7.6-7.2-11.4-7.7-29.8-10.3-43.1-13.4-10.4-2.5-20.6-5.4-30.2-10.2-14.8-7.4-25.1-18-32.1-31.2h-15c8.7-6.1 14.4-14.5 16.1-23.4 5.1 20.2 15.6 36.6 35.1 46.4 8.9 4.5 18.5 7.2 28.2 9.5 14.9 3.4 33.3 6.1 46.1 14.7 3.8 2.5 7.1 5.6 9.9 9.3l4.5 6.2 4.5-6.2c2.8-3.7 6.1-6.8 9.9-9.3 12.8-8.6 31.2-11.3 46.1-14.7 9.7-2.3 19.3-5 28.2-9.5 19.5-9.8 30-26.2 35.1-46.4q0.1 1 0.2 2.1c0.7 8.3 5.2 16.8 12.9 21.9zm-154-28.1h24.7v-37.9h-4.2l8.5-20 8.5 20h-4.2v37.9h26.1v-27.7h-4.3l8.5-20 8.5 20h-4.2q0 16.7 0 33.4h-34.6v3.3c20.3 7 39.2 4.2 56.9-6.8 14.5 6.3 33.2 6 48.9-4v-60.3h-219.4v59.7c17.3 9.6 33.9 11.4 49.8 3.7 15.5 9.3 32.7 14.5 55.2 7.6v-3.2h-33.2q0-16.7 0-33.4h-4.3l8.6-20 8.5 20h-4.3zm8.9-131.2c0 11.4 9.3 20.6 20.7 20.6 11.4 0 20.6-9.2 20.6-20.6 0-11.5-9.2-20.7-20.6-20.7-11.4 0-20.7 9.2-20.7 20.7zm-71 162.8c10.8 2.5 21.3 1.5 31.6-3.4 15.5 9.3 32.7 14.5 55.2 7.6v-19.3c-22.5 7-39.7 1.7-55.2-7.5-15.3 7.3-31.3 5.9-47.9-2.8 3.2 10.3 8.2 18.8 16.3 25.4zm95.4 4.3c20.3 7 39.2 4.2 56.9-6.9 8.9 3.9 19.3 5.3 29.6 3.5 7.7-5.8 13.3-13.8 17-25.3-15.1 8.6-32.7 8.7-46.6 2.6-17.7 11-36.6 13.9-56.9 6.9zm71.8 4.6c-5.3-0.5-10.3-1.9-14.9-3.9-17.7 11-36.6 13.9-56.9 6.9v20.9q0.9-0.7 1.9-1.4c15-10.1 33.9-12.9 51.2-16.9 6.9-1.6 13.1-3.4 18.7-5.6zm-80.4 2.8c-22.5 7-39.7 1.8-55.2-7.5q-8.1 3.8-16.5 4.5c6.3 2.5 12.9 4.3 19.4 5.8 18.2 4.2 37.3 7.1 52.3 17.7zm4.9-187.4c7 0 12.7 5.7 12.7 12.8 0 7-5.7 12.7-12.7 12.7-7.1 0-12.8-5.7-12.8-12.7 0-7.1 5.7-12.8 12.8-12.8zm-85.1-57h2.5v-17.1h10.1v17.1h2.6v-19.4h-15.2zm22 0v-7.8h5q4.1 0 5.6-1.8 1.6-1.7 1.6-4.1 0-1.5-0.6-2.7-0.6-1.2-1.5-1.9-1-0.6-2.4-0.9-1-0.1-3-0.1h-7.3v19.3zm0-17.1h5q1.7 0 2.4 0.2 1 0.3 1.6 1.2 0.6 0.8 0.6 2 0 1.7-1 2.6-1.1 1-3.6 1h-5zm15.6 17.1h2.5l10.4-15.3v15.3h2.3v-19.4h-2.6l-10.3 15.3v-15.3h-2.3zm21.8 0v-16.5l5.6 16.5h2.3l5.6-16.2v16.2h2.5v-19.4h-3.4l-4.7 13.5q-0.7 2-1 3.1-0.3-1-0.9-2.9l-4.6-13.7h-3.9v19.4zm20.5-4.6q1.1 2.3 3.3 3.6 2.1 1.3 4.9 1.3 2.5 0 4.7-1.2 2.2-1.2 3.4-3.5 1.2-2.3 1.2-5.3 0-2.9-1.2-5.2-1.1-2.3-3.3-3.6-2.1-1.3-4.8-1.3-4.1 0-6.7 2.8-2.6 2.7-2.6 7.5 0 2.6 1.1 4.9zm3.5-11.1q2-1.8 4.7-1.8 1.9 0 3.5 0.9 1.5 1 2.3 2.8 0.8 1.7 0.8 4.1 0 3.7-1.9 5.8-1.8 2-4.7 2-2.9 0-4.8-2-1.8-2-1.8-5.5 0-4.4 1.9-6.3zm19.8 15.7v-7.9h5q4.1 0 5.7-1.7 1.6-1.7 1.6-4.2 0-1.4-0.6-2.6-0.6-1.2-1.6-1.9-0.9-0.7-2.4-0.9-1-0.2-2.9-0.2h-7.3v19.4zm0-17.1h4.9q1.8 0 2.4 0.2 1 0.2 1.6 1.1 0.7 0.9 0.6 2.1 0.1 1.7-1 2.6-1 0.9-3.5 0.9h-5zm27 14q-1.5 1.2-3.7 1.2-1.7 0.1-3.3-0.9-1.5-0.9-2.2-2.7-0.7-1.9-0.7-4.3 0-2 0.6-3.8 0.6-1.8 2.1-2.8 1.5-1.1 3.7-1.1 2 0 3.2 1 1.3 0.9 2 3l2.5-0.6q-0.7-2.6-2.7-4.1-2-1.5-4.9-1.5-2.6 0-4.7 1.2-2.2 1.1-3.3 3.4-1.2 2.2-1.2 5.3 0 2.7 1 5.2 1.1 2.4 3 3.7 2 1.2 5.1 1.2 3.1 0 5.2-1.6 2.1-1.7 2.9-4.8l-2.6-0.7q-0.5 2.5-2 3.7zm7.8 3.1h2.5v-9.1q1.5 0 2.4 0.9 0.9 0.8 2.2 2.9l3.2 5.3h3.2l-4-6.4q-1.8-3-3.7-3.5 1-0.4 1.6-1 0.7-0.7 1.7-3.1 0.8-2 1.4-2.6 0.6-0.6 1.8-0.6 0.1 0 0.5 0 0.4 0.1 0.5 0.1v-2.3q0 0-1.5 0-1.2 0-2.2 0.5-0.9 0.6-1.4 1.4-0.6 0.8-1.4 2.7-1.1 2.6-1.8 3.2-0.7 0.7-2.5 0.7v-8.5h-2.5zm15.7-4.6q1.1 2.3 3.3 3.6 2.2 1.4 4.9 1.4 2.5 0 4.7-1.2 2.2-1.2 3.4-3.6 1.2-2.3 1.2-5.2 0-3-1.2-5.3-1.1-2.2-3.2-3.5-2.2-1.3-4.9-1.3-4.1 0-6.7 2.7-2.6 2.7-2.6 7.6 0 2.5 1.1 4.8zm3.5-11q2-1.9 4.7-1.9 1.9 0 3.5 1 1.5 0.9 2.3 2.7 0.8 1.8 0.8 4.1 0 3.8-1.8 5.8-1.9 2.1-4.8 2.1-2.9 0-4.7-2.1-1.9-2-1.9-5.5 0-4.4 1.9-6.2z"/>
</svg>