<?xml version="1.0" encoding="utf-8"?>
<!-- Generator: Adobe Illustrator 26.0.2, SVG Export Plug-In . SVG Version: 6.00 Build 0)  -->
<svg version="1.1" id="Layer_1" xmlns="http://www.w3.org/2000/svg" xmlns:xlink="http://www.w3.org/1999/xlink" x="0px" y="0px"
	 viewBox="0 0 512 512" style="enable-background:new 0 0 512 512;" xml:space="preserve">
<style type="text/css">
	.st0{fill:#0193DD;}
</style>
<path class="st0" d="M400.5,258.5l-0.9-0.1c-13.2-2-26.4-3.9-39.5-5.6c-0.1,0-1.9-0.3-5.6-0.9c-2.4-0.4-4.9-0.6-7.3-0.6
	c-2.1,0-4.5,0.4-7.2,1.1c-24.1,6.6-47.8,10.6-71,12c-35.7,2.2-70.9-2.1-105.4-12.7c-1.3-0.4-2.6-0.4-3.9,0.1
	c-17.4,6.7-35.8,10.7-55.1,12c-19.9,1.4-38.5-2.6-55.9-12c-0.2-0.1-0.3-0.3-0.3-0.6V0.8c0-0.2,0.1-0.3,0.3-0.3l0,0l32.7-0.2
	c0.8,0,1.4,0.6,1.4,1.4l0,0l0.1,160.1c0,0.6,0.2,1.3,0.6,1.8l23.6,32.5c0.5,0.7,0.8,0.6,0.8-0.3c0-0.6,0-1.4,0-2.3
	c0.2-64,0.2-128.1,0.2-192.4c0-0.4,0.3-0.6,0.6-0.6c12.1-0.4,24-0.4,35.8,0c0.6,0,1.1,0.5,1.1,1.1c0.1,5.2,0.1,10.1,0,14.8
	c-0.1,7.1-0.2,12-0.2,14.8c0.2,37.2,0.3,74.5,0.2,112c0,0.6,0.2,0.7,0.7,0.3c7.6-6.9,15.8-14.9,24.4-23.8c0.6-0.6,0.9-1.3,0.9-2.1
	V0.8c0-0.3,0.2-0.6,0.5-0.6l0,0L211,0.3c0.5,0,0.8,0.4,0.8,0.8l0.2,60.7c0,1,0.3,1.1,0.9,0.3l20.2-26.7c0.6-0.7,0.9-1.6,0.9-2.6V2.1
	c0-0.9,0.7-1.6,1.6-1.6l35.5-0.2c0.6,0,1.2,0.5,1.2,1.2l0.2,29.2c0,0.3,0.1,0.7,0.3,0.9l23,28.8c0.6,0.8,0.9,0.6,0.9-0.3L297,1.4
	c0-0.5,0.4-0.9,0.9-0.9c12.9-0.4,25.3-0.4,37.4,0c0.1,0,0.3,0.1,0.3,0.3c0,36.2,0,72.2,0,108.2c0,2.1,0,3.9,0.1,5.3
	c0.1,1.7,0.5,3.2,1.4,4.6c1.1,1.6,2.5,3.7,4.4,6.2c5.7,7.7,11.5,15.2,17.2,22.6c0.5,0.7,0.8,0.6,0.8-0.2c0.3-6.8,0.4-13.6,0.3-20.4
	c-0.5-44.7-0.6-72.3-0.3-82.8c0.2-9.2,0.2-16.3,0-21.2c-0.3-5.1-0.1-12.5,0.5-22c0-0.3,0.2-0.5,0.5-0.5l38.7-0.2c0.5,0,1,0.4,1,1
	l0.1,190c0,0.8,0.3,0.9,0.8,0.3l20-22.1c0.4-0.5,0.7-1.1,0.7-1.8V1c0-0.3,0.2-0.5,0.5-0.5c13-0.4,26.1-0.4,39.2,0
	c0.3,0,0.5,0.2,0.5,0.5v248.4c0,0.5-0.3,0.9-0.7,1c-16.7,6.7-34.1,9.4-52.1,8.1C405.7,258.2,402.8,258.3,400.5,258.5z M243.9,229.7
	c13.7,0.2,27.9,0.2,42.6,0c0.6,0,1.1-0.3,1.4-0.8l35.4-59.8c0.2-0.3,0.1-0.6,0-0.8L286,110.5c-0.6-1-1.5-1.5-2.7-1.5l-59.2,0.2
	c-0.3,0-0.6,0.1-0.9,0.4c-0.9,0.9-2,2.3-3.2,4.1c-12.4,18.2-24.8,36.4-37.2,54.4c-0.3,0.4-0.3,0.9,0,1.3l35.7,59.3
	c0.6,1,1.4,1.4,2.6,1.4C228.9,229.7,236.5,229.6,243.9,229.7z"/>
<circle class="st0" cx="252.9" cy="168.8" r="32.6"/>
<path class="st0" d="M399.6,258.4l0.9,0.1v36.2l-1.5-0.2c0-0.6-0.4-1.2-1.2-1.8c-8.8-5.8-17.7-11.7-26.7-17.6
	c-0.2-0.1-0.3-0.4-0.1-0.6c0-0.1,0.1-0.1,0.2-0.2L399.6,258.4z"/>
<path class="st0" d="M399,294.5l1.5,0.2c10.9,1.7,21.7,2.2,32.7,1.5c5.4-0.4,10.2-1,14.6-2.1c4.7-1.1,9.4-2.6,14-4.5
	c0.2-0.1,0.4,0,0.5,0.2v0.1l-0.1,22.6c0,0.3-0.2,0.6-0.5,0.7c-9.4,4.2-18.8,6.6-28,7.4c-11.7,0.9-24.3,0.4-37.7-1.6
	c-13.9-2-27.8-3.7-41.8-5.1c-4.7-0.5-9-0.5-13-0.1c-5.9,0.6-12.5,1.6-19.7,3c-13.6,2.5-27.2,5.1-40.8,7.8c-2.8,0.5-8.1,1.2-16,2.1
	c-10.2,1.1-20.4,0.9-30.5-0.6c-6.3-0.9-17.5-3.3-33.8-7.2c-11.5-2.8-23.8-4-37-3.6c-5.5,0.2-12.2,0.8-19.9,2
	c-10.8,1.6-21.5,3.5-32.1,5.7c-1,0.2-1.1,0.6-0.2,1l27,14.9c0.4,0.2,0.5,0.7,0.3,1.1c-0.1,0.1-0.2,0.2-0.3,0.3l-27.6,18.4
	c-0.7,0.5-1,0.3-1-0.6l-0.2-33.5c0-0.7-0.6-1.3-1.3-1.3c-0.1,0-0.1,0-0.2,0c-8.4,1.3-16.8,1.8-25,1.2c-11.2-0.7-22-4.3-32.2-10.8
	c-0.5-0.3-0.8-0.8-0.8-1.4l-0.2-21.5c0-0.8,0.3-0.9,1-0.5c6,3.6,12.2,6,18.6,7.2c8.7,1.6,17.5,2.1,26.4,1.4
	c9.8-0.7,19.5-1.8,29.3-3.2c6.8-1,13.7-2,20.6-2.8c8.3-1.1,14.9-1.7,19.9-1.8c7.7-0.2,15.1,0.2,21.9,1.1c6.9,1,16.6,2.7,29,5.2
	c8.7,1.8,16.6,3,23.8,3.6c6.1,0.6,12.8,0.5,20,0c11.6-0.9,23.8-2.7,36.5-5.4c8.5-1.8,19.3-3.5,32.3-4.9c13.4-1.5,25.8-1.5,37-0.1
	C377,291.9,388,293.3,399,294.5z"/>
<path class="st0" d="M77.8,458.7c-14.3-13.7-22.2-30.1-23.6-49.2c-0.1-1.4-0.2-8.1-0.2-20s0-23.8,0-35.7c0-0.2,0.1-0.3,0.3-0.3h0.1
	c10.1,4.9,20.8,7.5,32,7.9c13.8,0.5,27.6-0.2,41.3-2.3c10.7-1.6,20.4-3.3,29.2-5.2c3-0.6,5.6-0.9,8-0.8c13.8,0.6,27.5,2.2,41.1,4.7
	c4.6,0.8,13,2,25.2,3.5c10.3,1.3,20.5,1.6,30.8,1c5.3-0.3,12-1.2,19.8-2.6c10.2-1.8,21.8-4,35-6.8c7.7-1.6,17-3.1,27.9-4.3
	c11.9-1.4,23.7-1,35.3,1.2c0,0,3.9,0.9,11.8,2.8c10.6,2.5,21.3,3.9,32.1,4.1c5.6,0.1,11.8-0.2,18.4-1c6-0.7,12.1-1.6,18.3-2.7
	c0.4-0.1,0.7,0.2,0.8,0.5v0.1c0.1,15.7,0.1,31.2-0.1,46.4c-0.1,8.8-0.7,15.4-1.7,19.9c-2.4,10.9-7.3,20.8-14.6,29.7
	c-5.3,6.4-11.2,12-17.8,16.9c-9.5,7.1-19.6,13-30.4,17.8c-23.8,10.5-48.6,17.8-74.3,21.7c-15.1,2.3-31.6,3.9-49.5,4.8
	c-11.1,0.6-21.6,0.6-31.5,0.1c-5.4-0.2-12.1-0.7-19.9-1.4c-14.8-1.2-29.4-3.3-44-6.1c-12.7-2.5-25.2-5.7-37.6-9.8
	c-15.4-5.1-30-12-43.7-20.7C89.6,469,83.5,464.2,77.8,458.7z M191.1,435.8l-17.1-0.2c-0.5,0-0.9-0.4-0.9-0.9l0.1-14.5
	c0-0.3,0.2-0.5,0.5-0.5c4.1-0.2,8.3-0.2,12.4-0.2c0,0,0.4,0,1.2,0.1c2,0.2,2.8-1.1,2.5-3.7c-0.1-0.9-0.9-1.6-1.8-1.6h-14.2
	c-0.5,0-0.9-0.4-0.9-0.9l0.1-11.7c0-0.8,0.7-1.4,1.5-1.5l15.9-0.2c0.4,0,0.7-0.2,0.7-0.5l-0.1-3.6c0-0.4-0.4-0.7-0.9-0.8
	c-8.6-0.4-17.1-0.4-25.6,0c-0.5,0-0.9,0.4-0.9,0.9v44.2c0,0.5,0.4,0.8,0.8,0.8l0,0h25.8c0.5,0,0.9-0.4,0.9-0.9l0,0l-0.1-4.2
	C191.2,435.8,191.1,435.8,191.1,435.8z M273.5,434.9V420c0-0.3,0.2-0.5,0.5-0.5l15.2-0.3c0.3,0,0.6-0.2,0.7-0.5
	c0.5-1.2,0.5-2.5,0.1-3.8c-0.1-0.3-0.4-0.5-0.7-0.5l-15.1-0.2c-0.5,0-0.8-0.4-0.8-0.8v-12.3c0-0.5,0.4-0.9,1-1l16-0.2
	c0.3,0,0.6-0.2,0.8-0.5c0.7-1.3,0.8-2.6,0.3-4c-0.1-0.3-0.4-0.5-0.7-0.5c-8.1-0.4-16.7-0.4-25.8,0.1c-0.5,0-0.9,0.4-0.9,0.9l-0.2,44
	c0,0.5,0.4,1,1,1l0,0l26-0.1c0.4,0,0.6-0.2,0.6-0.5v-3.8c0-0.6-0.6-1.1-1.3-1.1l0,0H274C273.8,435.4,273.6,435.2,273.5,434.9z
	 M378.5,413.7c-0.4-4.2-0.4-8.5-0.1-12.7c0-0.3,0.3-0.5,0.5-0.5l16.7-0.5c0.3,0,0.6-0.2,0.7-0.5c0.5-1.3,0.5-2.7,0.1-4
	c-0.1-0.3-0.3-0.5-0.6-0.5c-8.6-0.4-17.3-0.4-26.2,0c-0.4,0-0.7,0.3-0.7,0.7V440c0,0.5,0.4,0.9,0.9,0.9l0,0h25.6
	c0.3,0,0.6-0.2,0.7-0.4c0.7-1.4,0.8-2.9,0.2-4.4c-0.1-0.3-0.4-0.5-0.7-0.5l-16.5-0.2c-0.5,0-1-0.4-1-1v-14.3c0-0.4,0.3-0.8,0.8-0.8
	l0,0h14.7c0.3,0,0.6-0.1,0.8-0.4c0.9-1.2,1.1-2.5,0.6-4c-0.1-0.3-0.4-0.5-0.7-0.5l-15.4-0.3C378.8,414.2,378.5,414,378.5,413.7z
	 M233.6,403.8c0.5,0,0.9,0.4,0.9,1l0.3,34.7c0,0.3,0.2,0.5,0.5,0.6c2.5,0.6,5.3,0.6,8.5,0c0.4-0.1,0.7-0.4,0.7-0.9v-42.5
	c0-0.7-0.6-1.3-1.2-1.3l-31.3-0.1c-0.4,0-0.8,0.3-0.8,0.8l0,0c0.1,11.4,0.1,22.5-0.2,33.3c-0.1,2.2-0.5,3.7-1.2,4.5
	c-1,1.1-2.7,1.8-4.8,2c-0.7,0.1-1.2,0.6-1.2,1.3v2.9c0,0.5,0.4,0.9,0.9,0.9c3.8,0.2,7.3-0.3,10.5-1.5c1.8-0.7,3.1-1.7,3.9-3
	c0.9-1.5,1.4-3.1,1.4-5c0.3-8.7,0.4-17.6,0.3-26.8c0-0.5,0.4-0.9,0.9-0.9l0,0H233.6z M338,412.4h-16.6c-0.5,0-0.9-0.4-0.9-0.9
	l-0.2-16c0-0.3-0.2-0.5-0.5-0.5h-8.6c-0.4,0-0.8,0.4-0.8,0.8l0.2,44.2c0,0.3,0.2,0.6,0.5,0.6c2.9,0.8,5.8,0.8,8.7,0.2
	c0.3-0.1,0.5-0.3,0.5-0.6l0.3-17.6c0-0.8,0.7-1.5,1.5-1.5h15.6c0.5,0,0.9,0.4,0.9,0.9l0.5,18.4c0,0.3,0.2,0.5,0.5,0.6
	c2.8,0.4,5.6,0.5,8.5,0.1c0.5-0.1,0.8-0.4,0.8-0.9l-0.2-44.4c0-0.3-0.2-0.5-0.5-0.5c-2.9-0.3-5.8-0.3-8.8,0.1
	c-0.3,0-0.5,0.3-0.5,0.6l-0.4,16.1C338.5,412.2,338.2,412.4,338,412.4z M124.6,401l17.9-0.4c0.4,0,0.6-0.2,0.6-0.5v-3.7
	c0-0.4-0.4-0.7-0.8-0.7l-26.9,0.1c-0.3,0-0.5,0.2-0.5,0.5c-0.5,14.7-0.5,29.3-0.1,43.7c0,0.5,0.4,0.8,0.8,0.9
	c7.7,0.6,14.7,0.3,21.2-0.8c7.6-1.3,11.3-5.4,11.2-12.2c-0.1-3.3-1-5.9-2.7-7.9c-2-2.2-4.7-3.5-8.2-3.9c-5.1-0.6-9.2-0.9-12.3-0.9
	c-0.3,0-0.5-0.2-0.5-0.5l-0.1-13C124,401.3,124.3,401.1,124.6,401z"/>
<path class="st0" d="M135.8,421.9c1.4,0.8,2.2,1.9,2.5,3.5c0.2,1.2,0.1,2.5-0.1,4c-0.4,2.8-2.2,4.6-5.4,5.2
	c-2.7,0.6-5.3,0.8-7.6,0.7c-0.6,0-1.2-0.5-1.2-1.2l0.1-13.4c0-0.3,0.2-0.5,0.5-0.6C128.9,419.7,132.6,420.3,135.8,421.9z"/>
</svg>
