<svg version="1.2" xmlns="http://www.w3.org/2000/svg" viewBox="0 0 369 468" width="369" height="468">
	<title>Straldzha-pdf</title>
	<style>
		.s0 { fill: #2c2e35 } 
	</style>
	<path id="Path 1" fill-rule="evenodd" class="s0" d="m97.7 109.2c9.5 0 17.3 6.5 17.3 14.5 0 7.9-7.8 14.4-17.3 14.4-9.6 0-17.3-6.5-17.3-14.4 0-8 7.7-14.5 17.3-14.5zm-9.5 14.5c0 4.3 4.2 7.9 9.5 7.9 5.2 0 9.5-3.6 9.5-7.9 0-4.4-4.3-8-9.5-8-5.3 0-9.5 3.6-9.5 8zm45-14.5c9.6 0 17.3 6.5 17.3 14.5 0 7.9-7.7 14.4-17.3 14.4-9.5 0-17.3-6.5-17.3-14.4 0-8 7.8-14.5 17.3-14.5zm-9.5 14.5c0 4.3 4.3 7.9 9.5 7.9 5.3 0 9.5-3.6 9.5-7.9 0-4.4-4.2-8-9.5-8-5.2 0-9.5 3.6-9.5 8zm-61.6-14.5c9.5 0 17.3 6.5 17.3 14.5 0 7.9-7.8 14.4-17.3 14.4-9.5 0-17.3-6.5-17.3-14.4 0-8 7.8-14.5 17.3-14.5zm-9.5 14.5c0 4.3 4.3 7.9 9.5 7.9 5.3 0 9.5-3.6 9.5-7.9 0-4.4-4.2-8-9.5-8-5.2 0-9.5 3.6-9.5 8z"/>
	<path id="Path 2" fill-rule="evenodd" class="s0" d="m115.4 135.4c9.5 0 17.3 6.5 17.3 14.4 0 8-7.8 14.5-17.3 14.5-9.6 0-17.3-6.5-17.3-14.5 0-7.9 7.7-14.4 17.3-14.4zm-9.5 14.4c0 4.4 4.2 8 9.5 8 5.2 0 9.5-3.6 9.5-8 0-4.3-4.3-7.9-9.5-7.9-5.3 0-9.5 3.6-9.5 7.9zm-26.1-14.4c9.5 0 17.3 6.5 17.3 14.4 0 8-7.8 14.5-17.3 14.5-9.5 0-17.3-6.5-17.3-14.5 0-7.9 7.8-14.4 17.3-14.4zm-9.5 14.4c0 4.4 4.3 8 9.5 8 5.2 0 9.5-3.6 9.5-8 0-4.3-4.3-7.9-9.5-7.9-5.2 0-9.5 3.6-9.5 7.9z"/>
	<path id="Path 3" fill-rule="evenodd" class="s0" d="m97.5 161.3c9.5 0 17.3 6.5 17.3 14.4 0 8-7.8 14.5-17.3 14.5-9.5 0-17.3-6.5-17.3-14.5 0-7.9 7.8-14.4 17.3-14.4zm-9.5 14.4c0 4.4 4.2 7.9 9.5 7.9 5.2 0 9.5-3.5 9.5-7.9 0-4.4-4.3-7.9-9.5-7.9-5.3 0-9.5 3.5-9.5 7.9zm165.4 8.6h32.5l-6.1 10.3h-19.5zm47.9-22.4h-12.2l-0.2-34.9c0.3-6.5-13.7-7.9-13.7 0v51.1h-12.1v-51.1c-0.3-7.6-12.5-7-12.4 0v34.9h-12.2v-34.9c-0.1-17.9 21.6-19.4 31.6-12.5 10.1-7.2 30.8-5.4 31.2 12.5zm-282.6-29.8l12 18.8c0 38.4-0.1 76.7 0 115 0 11 1.7 17.4 8 22 5.6 4.2 8.6 10.3 9.1 20.7 0.4 9 0 19.2 0 28.9-4.9-5-14.5-9.8-22-15-5.4-3.7-7.1-12.5-7.1-20.6zm25 40.1l12 17.4q0 25.9 0 51.7c0.2 7.2 1.1 14.2 4.6 20.9 4.3 7.1 5.1 14.8-4.4 25.4-3.4 3.9-5.4 3.8-9.3 1-10.9-7.8-11.6-16.5-6.5-26.8 3-5.8 3.8-12.4 3.6-19.3zm24.7 36.9l12.8 18.6-0.3 68.3c0 15.2-3.2 26.8-11.7 32.1-4.2 2.6-8.7 6.5-13 12.6-5.3-26-6.1-40.5 1.9-47.5 6.4-5.5 10.3-12.7 10.1-22.2zm17.8 135c3.6 6.5 4.1 13.7 0.4 20.7-3.2 6.2-5.4 11.9-6.7 17.8-26.5-23-22.5-41.8 0.3-57.9 1.3 7 2.9 14 6 19.4zm-48.1-7.6c8.2 3.6 16 8.6 18.5 19.5 2 8.3 5.5 16.9 14.4 25.4-22.1 1.3-36.8-6.9-42.2-25-2.8-9.2-3.2-18-6.3-27.9 5.2 2.7 10.2 5.7 15.6 8zm46.6 57.5c8.9 8.9 20.8 16.5 34.6 23.5-10.5 2.4-19.1 6.9-28.3 7-19.2 0.2-29.4-20.4-49-41.1 18.4 1.9 36.2 4.1 42.7 10.6zm25.2-18.6c6.2 5.8 13 11.8 12.7 18.2-0.2 6.7-0.7 13.2 3.2 19.9-15.2-4.6-28.6-11.3-35.3-22.3-6.5-10.4 3.6-20.5 3.3-30.6 5.4 4.9 10.8 9.8 16.1 14.8zm238.5-73.5c0 8.1-1.8 17-7.1 20.7-7.6 5.1-17.1 9.9-22 14.9 0-9.6-0.4-19.9 0-28.9 0.5-10.3 3.4-16.5 9-20.6 6.4-4.7 8-11.1 8-22 0.1-38.4 0-76.7 0-115l12.1-18.9zm-25.1-59.3c-0.2 6.8 0.6 13.4 3.6 19.2 5.2 10.4 4.4 19-6.4 26.9-3.9 2.8-5.9 2.8-9.4-1.1-9.5-10.5-8.6-18.2-4.3-25.4 3.4-6.6 4.3-13.7 4.5-20.8q0-25.9 0-51.7l12-17.5zm-24.4 28.5c-0.3 9.5 3.6 16.7 10 22.2 8.1 7 7.3 21.5 2 47.5-4.4-6.1-8.9-10-13-12.6-8.6-5.3-11.7-16.9-11.8-32.1l-0.2-68.3 12.7-18.6zm-12 53.7c22.8 16.1 26.7 34.8 0.3 57.9-1.3-6-3.5-11.7-6.8-17.8-3.6-7-3.1-14.2 0.5-20.7 3.1-5.5 4.6-12.4 6-19.4zm57.6 3.8c-3 9.9-3.5 18.7-6.2 27.8-5.4 18.1-20.2 26.3-42.3 25.1 8.9-8.5 12.5-17.1 14.4-25.5 2.6-10.8 10.3-15.9 18.5-19.4 5.4-2.3 10.4-5.3 15.6-8zm-19.4 54.9c-19.6 20.7-29.9 41.2-49 41.1-9.2-0.1-17.9-4.6-28.3-7.1 13.8-7 25.6-14.5 34.6-23.4 6.5-6.5 24.2-8.7 42.7-10.6zm-51.9-22.9c-0.2 10.1 9.8 20.2 3.4 30.7-6.7 11-20.1 17.7-35.3 22.2 3.9-6.6 3.4-13.2 3.1-19.8-0.2-6.4 6.6-12.4 12.8-18.2 5.2-5 10.7-9.9 16-14.9z"/>
	<path id="Path 4" fill-rule="evenodd" class="s0" d="m368.9 315.7c-1.1 83.9-83.4 152.1-184.2 152.1-100.8 0-183.1-68.2-184.2-152.1h-0.1c0 0 0-1.7 0-1.7q0 0 0 0v-313.6h368.6v315.3zm-90.9 2.1c-0.6 43-42.3 78-93.4 78-51 0-92.7-35-93.3-78v-0.8q0 0 0-0.1 0 0 0 0v-90.3h1l-80.6-116.2c0 0 0 201.9 0 201.9q0 0 0 0v1.6c1 79.7 78.3 144.5 172.9 144.5 94.6 0 171.9-64.8 173-144.5v-205.5l-80.7 118.2h1.1v91.2zm-175.7-67.9c18.3-5.9 37.8-6.8 56.8 1.4 15.8 6.9 21.9 34.6 20.7 74.2h7.9c-1.3-39.6 4.9-67.3 20.6-74.2 19-8.2 40.3-6.9 58.7-1.1v-13.6h-164.7zm70.3 80.8c-0.5-31.8-3.1-54.9-15.8-65.3-14-11.5-44.6-10.3-54.5-0.9 0 0 0 51.8 0 51.8q0 0 0 0v0.8c0.5 37.9 37.3 68.8 82.3 68.8 45.1 0 81.9-30.9 82.4-68.8v-52.4c-10.3-9.2-42.4-10.7-56.4 0.7-12.6 10.4-15.3 33.5-15.8 65.3zm-160.9-234.2h345.9v-85.9h-345.9zm124.5 64.1l38.8-56.1h-155.2l38.8 56.1 38.8 56.1zm8.5 7.2l-39.9 57.6h159.3l-39.8-57.6-39.8-57.6zm164.9-7.2l38.8-56.1h-155.2l38.8 56.1 38.8 56.1z"/>
	<path id="Path 5" fill-rule="evenodd" class="s0" d="m203 286.8c7-19.2 32.6-25.9 58.8-11.7-0.7 11.5-9.8 16.9-22.4 17.9-15.3 1.2-29-2-36.4-6.2zm41.3-10.6q2.7 4.4 0.5 8.7 5.8-0.9 9.4-5.5c-3.6-2.9-6.8-3.5-9.9-3.2zm-31 6.4q3.6 2.8 8.1 2.7-2.6-2.9-1.5-6.5c-2.3 0.2-4.6 1.2-6.6 3.8zm-84.7 10.4c-12.6-1-21.6-6.4-22.4-17.9 26.3-14.2 51.8-7.5 58.8 11.7-7.4 4.2-21.1 7.4-36.4 6.2zm-14.8-13.6q3.7 4.6 9.5 5.5-2.3-4.3 0.5-8.7c-3.1-0.3-6.4 0.3-10 3.2zm34.3-0.6q1.1 3.6-1.4 6.5 4.4 0.1 8.1-2.7c-2.1-2.6-4.3-3.6-6.7-3.8zm34.9 79.5c6.7 0 12 2.4 12 5.2 0 2.9-5.3 5.2-12 5.2-6.6 0-12-2.3-12-5.2 0-2.8 5.4-5.2 12-5.2zm-19-4.5c-4.1-0.9-3.4-4.7 0.3-5.9 3.6-1 4.9-2 6.5-3 2.1-1.3 4.4-1.9 7.4-0.6q4.9 2.3 9.3 0c2.5-1.2 5-1.6 7.5 0.1 1.8 1.3 3.9 2.5 6.5 3.4 4.5 1.2 5.3 5.4 0.3 6.4-11.9 2.4-25 2.4-37.8-0.4z"/>
	<path id="СТРАЛДЖА" class="s0" aria-label="СТРАЛДЖА"  d="m54.8 65.4v10.7q-2.5 2-5.3 2.9-2.7 1-5.7 1-8.9 0-14.1-7.2-5.2-7.3-5.2-19.7 0-12.5 5.2-19.7 5.2-7.2 14.1-7.2 3 0 5.7 0.9 2.8 1 5.3 2.9v10.8q-2.6-2.6-5-3.8-2.5-1.1-5.3-1.1-4.9 0-7.7 4.5-2.8 4.6-2.8 12.7 0 8 2.8 12.6 2.8 4.6 7.7 4.6 2.8 0 5.3-1.2 2.4-1.2 5-3.7zm3.4-28.2v-10.1h32.8v10.1h-11.8v41.8h-9.2v-41.8zm37.6 41.8v-51.9h15.3q6.8 0 10.4 4.4 3.6 4.4 3.6 12.5 0 8.2-3.6 12.6-3.6 4.4-10.4 4.4h-6.1v18zm14.3-42.2h-5.1v14.5h5.1q2.6 0 4.1-1.9 1.5-1.9 1.5-5.4 0-3.5-1.5-5.3-1.5-1.9-4.1-1.9zm45.4 42.2l-2.3-9.5h-14.3l-2.3 9.5h-9.2l13.2-51.9h10.9l13.2 51.9zm-9.4-39.7l-4.9 20.6h9.8zm21.1 39.8v-10.2q6.1-0.9 7.3-6.7 1.2-5.7 1.2-25.3v-9.8h25.4v52h-9.2v-41.8h-7v3.1q0 19.1-2.3 27.9-2.3 8.8-15.4 10.8zm54.8-10.2h10v-31.6h-7.8v3.1q0 22.3-2.2 28.5zm-13.5 0h2.7q2.5-2.4 3.2-5.9 0.7-3.5 0.7-26.1v-9.8h26v41.8h5.1v21.3h-7v-11.1h-23.7v11.1h-7zm51.5 10.1h-10.2l14.6-31.1-13-20.8h9.6l13.4 21.4v-21.4h9.2v21.4l13.4-21.4h9.7l-13 20.8 14.5 31.1h-10.1l-10.2-21.8-4.3 6.7v15.1h-9.2v-15.1l-4.2-6.7zm77.4 0l-2.3-9.5h-14.4l-2.2 9.5h-9.3l13.2-51.9h11l13.2 51.9zm-9.4-39.8l-4.9 20.7h9.7z"/>
	<path id="Path 7" class="s0" d="m131.8 420.3c11.3 3.9 24.8 5.3 39.8 5.2-8.6 7.2-15 15.3-23.4 19.7-17.4 9.2-34-4.8-59.2-14.5 17.6-7 34.5-13.2 42.8-10.4zm16.5-28.8c7.7 2.4 16 4.6 18 10.6 2.1 6.2 4 12.5 9.8 16.7-15.4 3-30 3.1-40-3.7-9.6-6.6-4-20.5-7.7-29.6 6.6 2 13.3 3.9 19.9 6zm132.2 39.9c-25.2 9.6-41.8 23.6-59.2 14.5-8.4-4.4-14.8-12.6-23.4-19.7 15 0 28.5-1.3 39.8-5.2 8.2-2.9 25.2 3.4 42.8 10.4zm-39.4-45.3c-3.8 9.1 1.9 23.1-7.7 29.6-10 6.9-24.6 6.7-40.1 3.8 5.9-4.3 7.7-10.5 9.9-16.7 2-6 10.3-8.2 18-10.7 6.6-2.1 13.3-4 19.9-6z"/>
</svg>