<svg version="1.2" xmlns="http://www.w3.org/2000/svg" viewBox="0 0 368 499" width="368" height="499">
	<title>Sliven-pdf</title>
	<style>
		.s0 { fill: #918f90 } 
		.s1 { fill: #27963c } 
		.s2 { fill: #ffffff } 
		.s3 { fill: #5a3114 } 
	</style>
	<path id="Path 1" fill-rule="evenodd" class="s0" d="m368.4 111.7c-9 182.1 7 326.8-184.2 387.3-191.2-60.5-175.2-205.2-184.2-387.3 6.8 0 26 0 49.6 0q-6.6-21.6-13.2-43.3c47.9-14.4 97.9-21.5 147.8-21.5 50 0 100 7.2 147.9 21.5 0 0-9.3 31.2-12.9 43.3 23.4 0 42.5 0 49.2 0zm-317.7-39.7l0.5 1.6q16.9-4.6 34.2-8l-0.4-1.7q-17.3 3.5-34.3 8.1zm35.1-4.2q-17.2 3.4-34 8l1.8 5.9q16.5-4.4 33.4-7.8zm3.1-4.6l0.4 1.7c19.9-3.8 40.1-6.4 60.5-7.8l-0.1-1.7c-20.5 1.4-40.8 4-60.8 7.8zm-31.8 30l2.4 8.2c18.8-5.1 38-9 57.6-11.8l-1.2-8.5c-19.9 2.9-39.6 6.9-58.8 12.1zm-1.3-4.4l0.6 2.2c19.4-5.2 39.1-9.3 59.2-12.1l-0.3-2.3c-20.2 2.9-40.1 7-59.5 12.2zm94.1-29.4c-20.3 1.3-40.4 3.9-60.2 7.7l1.2 6.1c19.5-3.7 39.4-6.3 59.4-7.6zm3.8-4.2l0.1 1.7c20.3-1.2 40.6-1.2 60.8 0l0.2-1.7q-15.3-0.9-30.6-0.9-15.3 0-30.5 0.9zm95.2 23.2l0.3-2.3c-20.7-2.7-41.8-4.2-63-4.2v2.2c21.1 0.1 42.1 1.5 62.7 4.3zm-62.7 6.5c20.5 0.1 40.9 1.5 61.2 4.2l1.2-8.5c-20.6-2.7-41.4-4.1-62.4-4.2zm27.9-19.5l0.4-6.3c-20.2-1.2-40.4-1.2-60.6 0l0.4 6.3c19.9-1.2 39.9-1.2 59.8 0zm-94.2 15.2l1.1 8.4c20.1-2.6 40.5-4 61.2-4.1v-8.5c-21 0.1-41.8 1.5-62.3 4.2zm62.3-6.5v-2.3c-21.2 0.1-42.2 1.6-62.9 4.3l0.3 2.3c20.6-2.8 41.5-4.2 62.6-4.3zm35.9-8.5c20.1 1.3 39.9 3.9 59.4 7.6l1.2-6.1c-19.8-3.8-39.9-6.4-60.2-7.7q0 0 0.1 0 0 0-0.1 0zm0.5-8.5c20.5 1.4 40.7 4 60.6 7.8l0.3-1.7c-20.1-3.8-40.4-6.5-60.8-7.8zm62.9 16.9q16.8 3.3 33.4 7.8l1.7-6q-16.8-4.6-33.9-8zm1.6-8.3q17.3 3.4 34.2 8l0.5-1.6q-17.1-4.6-34.4-8zm29 25.4l0.6-2.2c-19.5-5.3-39.3-9.4-59.5-12.2l-0.3 2.2c20 2.9 39.8 6.9 59.2 12.2zm-59.6-9.9l-1.1 8.5c19.4 2.7 38.6 6.6 57.6 11.8q0 0 0 0l2.4-8.3c-19.2-5.2-38.9-9.2-58.9-12zm56.5 20.3q0 0 0 0 0 0 0 0 0 0 0 0zm-9.5 10.3c-75.3-19.2-155.2-19.2-230.5 0 52.7 0 115.2 0 115.2 0 0 0 62.6 0 115.3 0zm-279-58q-4.4-13.5-8.7-27c16.2-5.2 32.6-9.7 49.3-13.5l3.1 13.9q10.9-2.4 21.9-4.4l-2.5-14q25.1-4.5 50.7-6.7l1.2 14.1q11.7-1 23.5-1.6l-0.6-14.1q25.8-1.2 51.7 0l-0.6 14.1q11.7 0.6 23.5 1.6l1.2-14.1q25.6 2.2 50.7 6.7l-2.5 14q11 2 21.8 4.4l3.2-13.9q25 5.6 49.3 13.5-4.3 13.5-8.7 27c-105.7-34.1-221.8-34.1-327.5 0zm323 14c-102.8-33.1-215.7-33.1-318.5 0l-3.3-10.3c105-33.7 220.1-33.7 325.1 0z"/>
	<path id="Path 2" class="s1" d="m229.4 469.5c-14.4 7-29.6 12.6-45.2 16.5-65.5-16.4-123.1-61.4-147.7-125-28.6-73.9-21.3-156-26.3-233.5q87 0 174 0 22.6 0 45.2 0z"/>
	<path id="Path 3" fill-rule="evenodd" class="s0" d="m71.3 172.3l8.6 2.9c20.8-20.9 41.7-12.4 54.5-2.9 3.3 2.4 7.2 2.6 9-1.9 1.6 3 3.8 6.9-0.4 10.5-0.6 0.5-0.6 0.6-0.2 1.4 0.5 0.7 1.7 2.9 1.7 2.9 0 0 3.1-2 8.6-1.2 0-2 0-3.8 0-3.8h-4l-0.5-5.5c0 0-3-6.1 2.5-8.4-1.4-2.9-2.9-6.1-2.9-6.1 0 0 8.8-12.3 21.1-7.5-4.3-10.5-3.2-12.4 2.2-17.8 1.5-1.5 1.5-1.8 1.6-2.6 0 0 1.4 1.7 0.3 3-0.7 0.9-7.4 9.4-2.3 17.9 0.6 1 0.6 1.4 0.8 2.5 0.2 1.1 1.7 11.7 3.7 13.5 2.3 0 7.6-0.5 7.6-0.5l-0.3-3.4 4.6-3 7.3 1.4 1.5 3.2c0 0 16.6-5.2 17.5-5.5 0.9-0.4 1.4-0.6 1.9 0.3 0.5 0.9 1.4 6 1.3 8.4-2.2-0.3-12-0.5-12-0.5 0 0 0.6 6.2-3.7 7l3.9 10.1c0 0 11.6 6.3 18.2-1.7-0.2 4.2-0.4 6.5-0.4 6.5 0 0 8.1 12.5-4.8 24.7-3.3 0-6.1 0.5-7.4 1.7-1.2 1.1-5.4 4.4-15.3-1.6 2.4 3.7 4.9 7.1 8.9 7.3 4 0.3 10.9-7.1 16.7-0.7-3.8 2.1-6.1 3.2-6.7 9.1-0.6 5.7-5.6 11.8-6 12.3 0 0-7-13.6-25.5-8.4 0 0-2.8-2.6-0.3-5.9 0.4-0.6 2.3-1.4 3.2-1.7 2.6-0.9 3-2.4 1.8-3.6-1.3-1.2-4.5-4.2-4.5-4.2l-6.4 16.2c0 0 3.2 2.5 4.2 11.2 1.1 8.8 1.7 19.7 2.2 20.6-2.9 1.6-6.1 3.3-12.3 3.4-0.9 2.1-2.1 5-2.1 5 0 0 1.7 2.7 3.6 2.7 1.8 0 4.6-3.7 5.5-5.7 1.5 1.3 4.8 4.6 0.3 10.1 3.9 1.2 42.1 10.3 42.1 36.3 5.6 4.7 8.3 9.6 4.7 19.7-3.1 8.8-16.1 43.7-16.1 49.1 0 5.4 0 7.1 0 8.9 0 3 3.3 3.9 5.3 2.1 1.5-1.4 2.4-2.2 2.4-2.2 0 0 0.3 3.4 0.4 5.3 0.1 2.5-2.9 6-6.3 2.1 0 5.2 3 8.3 6.3 4.5 1.7-1.9 3.2-4.4 4.2-5.6 0.9-1.2 1.8-2 5-1.7 0 1.2 0 6.5-1.9 11.7-2.7 7.3-7.9 7.3-14.6 0.3 0 2.5-0.1 4.4 0.4 5.4 0.5 1 1.8 2-0.4 2.2-2.2 0.2-16.3 2.9-16.3-12.2 0-8.9 1-13.5 1-13.5 0 0-12 6-12.9 16.8 1 1.5 1.5 3.3-1.1 5.8-2.6 2.5-4.5 6.2-4.6 7.7-2.4-0.3-5.9-0.7-8.2-4.3-3.5 4.2-8.1 8.2-28.4 0-3.5 4.1-7.8 11.1-25.6 3.8 2.4-6.1 5.4-13.9 5.4-13.9 0 0 4.5-1.7 8.3-6.9 16.3-1.9 25.4-14.3 25.8-20.7 0.3-5.3-3.9-11.2-9.3-17.1-5.2-5.9-5.3-8.4-6.4-15-0.8-5-2.2-8.4-6.6-10-4.3-1.5-12.8-4-15.9-3.8-3.7 2.8-5.9 5.9-7.8 8-1.9 2.1-4.7 4.6-8.1 1.8-3.8 0.5-12.9 3.6-23.5-7.4 1.6-2.4 2.9-4.6 2.9-4.6 0 0 10.1 0.8 18.3-7.8-5.5-6.4-9.7-10.5-12.9-12.8-2-1.5-4.4-1.8-6.6 0.6l-3 3.1c-2.8-2.6-9.4-6.1-14.7-7.1-0.4-3-2.4-10.6-8.8-14.5 0 2 0 6.9 0.1 8.9-2.1-2.3-4.2-3.3-5.5-3.5 0.1 3.5 1.6 13.3-5.9 21.1-3.5-3.6-7.9-8-12.5-10.1 0-3-0.8-13-3.6-18.1 1.7-3.3 10.1-24.4 10.5-26.3 0.4-1.9-1-2.3-2.4-1.5-1.5 0.9-2.9 1.9-2.9 1.9l-5.4-13.5c0 0 1.4-2.9 1.4-6.5 0-3.3-1.3-7.3-1.3-7.3l1.2-3.1c0 0 7.3-3.9 13.3-10.2 5.4-5.7 9.6-13.8 9.6-13.8l6.5-2.1 11.4 2.4c-2.6 8.4 8.6 20.4 8.6 20.4 0 0 9-6.5 0.6-10.4 0 0 0.2-3.2-0.5-6.7-0.8-3.6-2.5-7.6-2.5-7.6 0 0 1.2-0.8 2.3-4.1 1.2-4 2.2-10.5 2.2-10.5 0 0-4.9-1-2.2-8.5 1.4-4.2 2.7-8.2 2.7-8.2 0 0-5.8 1.3-5-8.5zm120.5 194.4c-0.1 13.2 6.1 16.6 6.1 16.6 0 0 4.5-8.8 9.7-17.5 8.7-14.5 19.1-33 12.3-41.6-7.9 29.9-21.6 39.4-28.1 42.5z"/>
	<path id="Path 4" class="s2" d="m358.2 127.5c-5 77.5 2.3 159.6-26.3 233.5-18.1 46.8-54.1 83.5-97.9 106.2v-339.7q62.1 0 124.2 0zm-199.7 61.4c-2.2 0-2.4-2-2.4-3.2 0.1-1.1 0.2-3.9 0.2-5.8 2.3 1 4.3 1.7 4.3 4 0 2 0.2 2.4 1 2.4 0.9 0 1.1-0.4 1.1-2.4 0-2.3 1.9-3 4.3-4 0 1.9 0.1 4.7 0.1 5.8 0.1 1.2-0.1 3.2-2.3 3.2-2.3 0-3.2 0-3.2 0 0 0-0.8 0-3.1 0zm1.3-11.4c-2.9-0.1-3.7-2.5-4.4-5-3 1.3-4.1-3.5-2.8-4.4 0.7-0.5 2 0.2 3.6 2.2 0 0 1.5-1 2.4-1.6-1.5-1.3-1.7-3.7-1.7-5.8 5.7-4.8 11.1-3.5 12-3.3 1 0.3 1.5 0.8 0.8 1.8-1 1.2 1.6 3.4 1.6 3.4 0 0 0.6 1.5 1.1 3.1-1.2 0.1-1.3 1.5-1.1 2.3 0.2 0.8-0.1 1.9-0.2 4.9-0.2 3-2.7 2.9-4 2.6-1.5-0.3-4.3 0-7.3-0.2z"/>
	<path id="Path 5" class="s0" d="m162 166c0 0-1.3-1.3-0.3-2 1.9-1.3 3.9-1.8 5.5-1.4 1.2 0.3 1 1.5 0.1 1.7-1.4 0.5-0.4 1.5-1.2 1.6-1.9 0.3-1.4-1.5-3-0.9-0.7 0.2-1.1 1-1.1 1z"/>
	<path id="Path 6" class="s2" d="m182.4 172.9l5.1 2.7c0 0-5.8 2-5.1-2.7zm2.7-5.7c0 0 1.5-1.5 2.8-1.8-0.5 1.6-0.3 4-0.3 4 0 0 0 0 0.5 0.4 4.5-2.9 4.8 0.4 4.9 2-1.1 0.3-3.8 1.4-3.8 1.4l-3.9-2zm11.9 4.3c0.1-1.8 0.5-2.1 1.8-2.3 1.3-0.2 4-0.8 4 1.9 0 2.7-4.8 2.8-5.9 2.8-2.2 0-0.4-1.7 0.1-2.4zm1.9 5.7c0 0 1.1 3 1.5 4.2 0.3 1.2 0.7 2.3-1.5 2.5-2.2 0.3-6.9 1.2-7.3-1.8-0.4-3.1-1.1-4 0.3-4.1 1.4-0.1 7-0.8 7-0.8zm-6 9.5h8.8l3.5 14.4c0 0-1.8 0.8-2.7 2.3-0.9 1.5-1 3.8-1 3.8l-3.5 3.3c0 0-2.4-0.9-4.3-2.4-0.8-0.6-0.7-0.7-0.4-1.9 0.1-0.5 0.9-2.4 0.6-4.6-0.3-1.5-0.8-3.2-1.8-4.7-0.6-0.8-0.6-2-0.9-2.8 1.3 0.5 3.4 1.8 3.4 1.8zm-3.6 18.5c0 0-4.3-2.3-6.6-2.7 0-1.8-0.3-4.2-1-6.1 1.1-1.7 3.3-4.9 3.3-4.9 0 0 3.1 0.1 3.4 2.3 0.2 2.3 0.6 4.3 2.3 6.9-0.5 1.9-1.4 4.5-1.4 4.5zm-41-9.4c-0.5-1.8 1-2.6 2.2-2.2 1 0.4 6.7 1.7 9.4 2.1-0.7 1-1.6 5.9-1.6 5.9l-8.3 0.2c0 0-1.2-4.1-1.7-6zm15.7 8.6l9.8 2c0 0-0.4-1.3-0.6-2.2-0.2-0.9-0.2-1.2-1.5-1.4-1.2-0.2-8.2-1.2-8.2-1.2 0 0-0.9-2.9-1.7-5.3 6.2-0.8 10-5.2 17.1-5.3 1.6 3.6 1.3 5.5 0.7 9.3-0.8 5.7 1.1 7.3 2.7 8.5-1.9 2.9-1.5 5.2-2.4 8.6-1 3.4-4.9 12.7-6.3 15.4-3.5-2-11.9-2.5-11.9-2.5l0.2-2.2-6.7-0.3c0 0-0.4 1-0.5 2.3-0.9-0.1-5.4 0-5.4 0l0.9-5.9c6.5-1 15-0.2 19.8 1 0-3-1.3-3.4-4-3.8-5.7-0.9-15.3-0.5-15.3-0.5l-0.2-6.3v-0.1c6.6-1.3 15.9 0 20.9 1.3 0-3.1-1.1-3.6-3.8-4-5.7-0.9-16.9-0.1-16.9-0.1l-0.1-7.5 7.3-0.1v3.1c0 1.7 1.4 2.5 3.2 2.5 1.7 0 3.1-0.8 3.1-2.5zm-11.8 30c2-0.1 4.1 0 4.1 0-0.7 5.2-5.4 23.5-15 23.5-2.7 0-4.6-4.2-1.8-5.2 0 0 4 1.1 7-0.8-1-2.1-1.1-4.3-0.4-7.3 0.7-2.9 2.6-9.8 2.6-9.8 0 0 1.7-0.3 3.5-0.4zm6.4 17.4c-0.6-8.3-0.3-17.2-0.3-17.2l1.4 0.1c0 0 2.5 11.4 3.6 13.2-0.1-0.1-2.8 2.8-2.7 5.8 0 3.1 2.9 6.2 2.9 6.2-0.1 1.2-0.7 4.5-0.8 5.5-1.2 0.1-2.3 0.1-2.3 0.1 0 0-1.3-6.6-1.8-13.7zm3.6-16.9c1.8 0.3 7.8 1 11.3 2.5 0 2.1 0.6 12.9-5 17.7 2.2-6.9-2.8-16.5-2.8-7.6-2-3.2-2.8-5.3-3.5-12.6zm2.3 15.3c2.2 0 0.9 5.7 0.3 5.8-2.1 0.2-3.3-5.8-0.3-5.8zm11.9-8.2c1.1 5 2.7 12.5 1.2 23.9-3 0.5-6.3 1-10.9 0.3 0.5-2.7 0.7-4.5 1-6.3 0.3-1.8 2.9-1.6 2.8-0.1-0.2 1.5-1.1 2.4-0.9 4.6 1.2-3.8 3.3-3.8 3.4-4.9 0.1-1.1-2.1-2.2-2.1-3 0.1-0.9 3.2-3.2 5.5-14.5zm-26.3 17.2c2.9 1.7 6.4 3.9 6.6 8.8 0.1 0.9 0.4 1.7 1.4 1.3 1.1-0.4 1.1-0.5 2.1 0 1 0.4 1.7 0.6 1.7 0.6 0 0-1.1 7.5-1.1 7.9-7.7 1.4-16.1 11.8-19 14.6-7.7 7.5-12.3 3.2-11.7 9.6 0.2 1.7-0.4 2.4-3 2.1-3.1-0.4-4.7-0.4-5 1.1-0.3 1.5 1 2.8 2.8 2.4 4.6-1.1 6.3 0.1 4.7 2.6-2.2 3.6-7.4 7.5-16.3-0.8 2.7-6.6 3.4-10.7 3.8-18.1 3.9-2.8 10.7-8.5 14.1-12.7 3.5-4.3 9.3-6 18.9-19.4zm-52.9 74.7c1.6 8-0.1 11.9-2.2 12.3-6.5 1.1-10.1-1.9-12.5-4.5-0.8-0.8-1-2.1 1.5-2.2 2.5-0.1 6.1 0.1 7.3-0.8 1.2-0.8 3.7-4 5.9-4.8zm4-3.3c3.3-4 8.3-13.6 10.6-18.1 4.3 4.1 7.6 4.9 13.2 5.2-5.7 12.7-17.4 20.5-17.4 20.5 0 0-1.9 4.2-3 6.9-1.3 0.3-2.9 0-4.3-0.8 1.8-6.6 2-9.4 0.9-13.7zm48.2 90c2.3-4.6 3.7-7.9 3.7-7.9 3.7-0.8 5.2-1.3 7.3-3.8 2.7 0 5.5 0 7.1-0.1 1.7-0.1 2.6-0.6 2.4-3.2 1.9-2.2 9.2-9.5 10.8-21.2-3.9-5.1-6.7-9.1-6.7-9.1 3.5-6.6 10.1-10.4 12.2-5.6 1.6 3.9 2.3 7.2 2.5 11.3 1.4 1.7 5.2 6.6 5.2 6.6 0 0-0.6 4.1-4.6 5-2.3 0.5-5.1 0.2-10.6 16-1.1 0.1-4.4 0.4-2.4 3 1.5 1.9-0.2 4.9-1.3 6.3l-2.6 2.9c0 0-4.7-0.3-1.1-6.9-3.3 0.3-8.3 1-10.1 1.1 6.6 4.7 0.1 10.6-11.8 5.6zm-29.4 3l1.8-7.9c0 0 2.5-0.9 4.4-2.8 1.7-1.7 2.9-4.4 2.9-4.4 0 0 4.4 0.9 10-1.3 1.1-1.8 1.6-2.4 4.1-4.2 1.1-0.8 4-2.9 6.5-5.3 3.1-2.9 5.9-6.3 7.3-7.8 2.6-2.8 3-8.4-1.2-14-8.3-11.2-13.8-19.8-11.6-34.6 0.5-2.9 0.2-7.5 1-10.6 2-7.5 8.2-8.2 7.2-13.8-3.3 3-6.5 4.8-11.9 4.4 7.1 8.9-4.2 8.6-4.5 16.9-2.8-1.3-9.8-4-16.9-4.3 3.6-3.8 11.8-13.2 15.1-23.3 2.6 1.3 6 3.2 13 2.6 1.6-4.3 6.1-17.4 11.5-21-0.4 5.4-2.1 33.4 1.6 53.5l5.7-0.1c-1.3-10.5-2.8-33.1-2-51.4 0.2-3.8 0.2-8.2 8.8-6.8 8.7 1.3 42.8 8.2 41.9 35.8-0.5 14.8-7.1 27.7-16.3 34.7-3.4 2.6-7.7 3.1-11.4 4.2-6.9 2-13.3 2.7-18.5-0.2-0.6 8.2-2.2 15.6 3 20.5 2.9 2.6 4.5 10-7.3 11-3.4 3.3-16.9 17.1-16.9 17.1 2.7 6.2-5.6 6.2-4.2 10.7-2.4-2.8-3.9-5.1-1.2-8.5-2.4 0.5-8.4 2-8.4 2 4.7 11-6.6 10-13.5 8.9zm-26.5-212c2.5-3 10.4-12.2 10.3-27.9 3.2-4.7 10.6-4 11.7 8 0.7 8.4-7.4 19.8-14.9 19.7-1.1 2.2-2.1 4-3.6 5-1.5-2.2-3.5-4.8-3.5-4.8z"/>
	<path id="Path 7" fill-rule="evenodd" class="s2" d="m80.3 198c-2.5-4.6-1.1-7.5 0.8-11.8 8.1 6.5 18.2 3.5 14-4.4-6.5 4.5-8.4-5.6-7.1-7.2l7.8 2.8c16.6-20.9 65.5 4 38 71.5-15.4-7.5-27.9-22.4-33.4-28.4 0.4-0.7 1.9-3.7 3.4-6.8 10.8 0.8 13.4-15.3 13.4-15.3 5.2-16-10.9-29.4-16.9-14.5-1.5 3.7 0.3 10.5-7.4 23.8-5.5 0.4-3.8 4.5-3 5.9 0.9 1.4 3.7 5.3 4.5 6.8-0.9 1.6-0.7 3.2-0.6 4.8-2.8 0-5.7 2.1-7.6 3.8l3.4-11.1-0.8-1.1-2.6 3.1-2.3 8.9c0 0-3.6-3.6-5.4-5.1 0.1-3.8-1.8-8-2.6-9.8 4.2-3.2 1.7-11.1 4.4-15.9zm-0.6 17.5c0 1 1 3 2.2 2.9 1.3-0.1 1.8-4.9-0.7-6.5 0.1 2.4-1.5 2.7-1.5 3.6zm9.9-14.4c-0.5-0.6-0.8-1.4-0.8-2.1 0-1.1 1-2.1 2.3-2.1 1.2 0 2.2 1 2.2 2.1v-4.1c-0.7-1.4-2-2.3-3.5-2.3-2.2 0-4.1 2.1-4.1 4.6 0 2.5 1.9 4 4.1 4q0 0 0 0c0 0-0.1-0.1-0.2-0.1zm-61.7 46c-1.8-1.8-1.7-4.3-1.6-5.2 14-5 21.6-20.7 21.6-20.7 0.7-1.1 1-1.2 2-1.5 0.9-0.3 4.2-1.5 4.2-1.5l6.8 2c0.4 8.2 7.4 13.7 9.2 21.8-2.3 1.4-4.6 5.1-5.7 7.7 0.2 3.5-4.5 2.7-7.7 2.7 0-5-2.2-8.5-2.4-9.8-0.3-1.2 0.6-12.6 0.6-12.6 0 0-8.5 5.6-11.9 8.8-3.7 3.6-0.6 5.5 1.3 6.1 2.8 1 1.9 3.6 1.9 3.6 0 0-2.9 0.1-5.3 0-2.3 0-3.5-1.1-4.6-3.6-4.6 3.4-3.7 4.4 0.4 5.9 6.1 7.2-5.2 13.7-5.2 13.7l-4.2-7.9c1.3-3.4 1.7-4.2 0.6-9.5zm13.8 13.4l6.4-0.3c0 0 16.5 20.3 18.8 25.4 1.2-1.9 4.2-6.4 4.2-6.4-3.7-1.4-5.7-2.8-7.2-8-0.7-2.6-1.8-7.1-1.8-7.1 0 0 10-28.6 25.9-27.4 2.5-3 10.3-11.2 10.3-11.2 0 0 16.8 20.6 33.2 28.6l0.2 4.1c0 0-23.6 3.3-26.6 33.1l5.1 4.4c0 0-1.8 15.5-10.7 28.1 0 0.1-14.6-13.6-14.6-13.6 0.7-6.8 4.6-11.7 10.3-12.1 0.2 0.1 3.6 1.2 3.6 1.2-2.7-2.8-5.7-7.4-6.1-10.4-3.3 11.8-14.3 11.7-17.8 21.1-1.9 0.1-8.2-0.3-12.3-2.7-3.7-12.4-13.5-19.1-17.9-32.8-0.1-0.1-4.8 10.5-5.8 12.7-0.9 2.2-1 7.5 2.3 6.8 3.4-0.6 5.4-0.5 5.1 2.3-0.2 2.7-0.4 2.7-0.5 3.6-1.6-2.4-7.9 0.5-10.2-3.2-0.7 2.7-2.3 6.7 2.3 5.3 4.8-1.5 6.4 9.6 0.2 15.9-2.1-2.7-3.5-5-7.8-7.2 0.3-4.5 0.4-8.7-2.7-13.7 2.8-5.5 10.3-19.5 9.9-32.8 1.2-1 4.2-3.7 4.2-3.7z"/>
	<path id="Path 8" class="s1" d="m263.2 150.6c4.8 7.1 8.5 14 3 28.8-3.2-5.1-10.4-14.7-3-28.8zm33.4 10.3c-2.2 6-8.2 18.6-27.3 21.7 3.6-9.1 11.2-18.7 27.3-21.7zm3.7 22.4c-7.4 6.6-12 9.7-29.1 6.1 5.9-4.3 11.1-10.3 29.1-6.1zm-19.2 48.9c1.5 5.5 4.3 13.3 22.3 12.9-3.5-7.7-5.2-11.7-22.3-12.9zm16.2-7c11.2 2.4 24.8 0.4 33.8-6.1-5.6-4.3-19.5-10.9-33.8 6.1zm28.2-29.3c-0.9 8.8-7 19.6-21.5 21.9 2.9-7.8 6.9-17.6 21.5-21.9zm-88.1 67.2c12.9 0.1 18.5 8.1 22.3 19.1-14.9-3.7-20-10-22.3-19.1zm5.5 15.5c0.7 1.4 4.8 3.8 7 4.9-1.3 0.6-7.2 4.9-13.1 3 1.2-3.3 2.9-5.4 6.1-7.9zm10.1 18.8c-4.7 9.3-7.5 10.3-13.1 12.2 3.5-12.3 8.5-18.7 14-23.7-1.4 4.6-1.1 9.5-0.9 11.5zm2.8-11.9c3.3 4.4 10.5 11.2 4.8 25.2-5.3-8.1-7.7-15.9-4.8-25.2zm32.5 2.8c7.6-6.7 16.6-15.6 16.9-32-8.5 2.9-19 12-16.9 32zm41.3-21.4c-5.8 8.9-14.2 19.5-32.7 16.1 6.3-8.1 14-17.8 32.7-16.1zm-32 22.2c9.3-1.9 21-3.2 27.2 8.6-10.5 0.3-21.4-1.6-27.2-8.6zm-10.8 21.8c4.3 5 11 21.7 1.3 36.8-6.4-10.9-8.3-25.1-1.3-36.8zm6.6-1.2c9.5 0.9 23.7 6.9 23.4 25-7.1-3.5-20.2-10.5-23.4-25z"/>
	<path id="Path 9" fill-rule="evenodd" class="s3" d="m234 154.8c2-2.7 3.9-4.3 7.4-6.8 6.5 14.8-8.5 20.3-4 40 0.3-10.7 4.5-15.1 10.6-20 1.6 5.2 2.8 7 0.9 13 3.9-1.2 10.1-2.6 10.1-2.6 0 0 0.4 16.6-20.8 21.8 8.9 8.6 22.3-8 24.1-11.3 6.3-12-12.4-7.5-8.3-35.2l4.9 5.3c0 0 0.7-6.1 6.5-13.7 4.5 6.5 5.8 9.4 7.1 13.1 4.1-6.6 6.4-7.7 9.9-9.6 0.8 7.4 0.6 11.1-0.2 15.1 4.8-2.9 10.9-6 18.3-3.5-1 3.3-2.9 8.8-2.9 8.8 0 0 3.3-1.9 10.8 0.1-3.3 4.2-3.9 5.6-8.3 9.4 6.4 1 6.9 2.7 6.9 2.7 0 0-10.9 23-38.8 13.6-10.7 9.2-16.2 17-17.1 25.2-1.3 11.9 6 22.7 16.3 10.3-7.4-9-8-16.3-1.4-28.6 4 6.4 6.4 8.6 5.6 24.1 3.6-13.5 8-22.3 23.1-29.5-0.6 6.2-2.8 22.4-19.2 27 7.6 1.4 12.7 3 25-4.6-2.5-6.5-7-17.5 7.4-30.9 2.3 5 2.6 6.5 2.3 10.5 6.8-6.2 10.9-7.6 18.2-8 0.5 5.7 0.3 5.8-0.4 9.5 5.2-1.8 9-2.5 13.4-2.3-1.8 6.7-3.2 10.6-12 15.2 4.6 1.4 7.5 2.6 11.5 5.4-4.2 2.9-9.9 6.9-18 10.1 6.3 3.4 9.6 6.8 11.2 8.8-9.1 3-15.7 3.7-27.6-2.2 4 5.5 5.6 9 5.6 9 0 0-2.7 3.9-11 2.9 1.1 2 2.8 4.4 2.8 4.4 0 0 2.5-2.2 7.8-3.3 0.7 1.9 1.5 4.7 1.3 8.5 3.5-3.5 9.2-5.4 14-6.8-0.8 4.8-1.9 10.4-3.9 13 6-0.2 11.6 1.7 13.1 2.1-2 3.9-4.5 8.5-8.1 12.5 6.2 2 5.8 2.2 7.9 3.7-4.3 4-7.3 7.3-14.3 8 4.9 3.9 7.9 8.5 9.3 13.4-14.5 3.9-23.7 1.5-37.3-9.7-5.7 5.3-11.5 10.1-2.6 13 7.5-1.8 23.8-7.2 40.1 17.5-5.8 0.5-9.5 1-9.5 1 0 0 1.5 9.4 1.5 14.6-7.4-0.8-8.1-1.4-14.3-5.3 0.2 5.5 0.3 10.1-1.5 13.6-5.3-3.7-7.2-6-9.1-8.4-2.1 6.9-3.9 11.6-6.9 15.1-4.5-3.7-7.3-7.5-9.1-14.4-2 4.7-5 8.6-6.3 9.6-2.2-4.8-11.3-19 7.4-36 2.6-2.3 2.5-5.5-1.2-4-31.3 12.1-27.4 64 0.8 60.5 15.4-1.8 30.4-3.3 31.9 9 0.3 2.4-1.8 3.4-4 1.4-2.8-2.6-6.3-7.6-17.7-5.3 5.5 2.7 10.6 12.7 5.5 13.9-5.1 1.1-4.2-9.9-19.7-9.9-7.1 0-9.1 8.2-9.5 13.4-0.3 4.1-2 15.3-8 13.4-4.3-1.4 2-10.4 2-15.3 0-4.9-1.7-9.6-9.3-9.3-9.9 0.3-5.5 12.2-2.5 16.3 2.1 3-1.6 6.8-6 1.4-4.4-5.6-1.3-11.6-3.5-14.4-2.1-2.7-5.8 0.5-8.2 3.2 0 0 0-227.7 0-232.5zm83.8 178.8c0.4-18.1-13.8-24.1-23.4-24.9 3.3 14.5 16.3 21.5 23.4 24.9zm-27.9 12.8c9.8-15 3.1-29.4-1.3-34.4-6.9 11.7-5 23.5 1.3 34.4zm35.3-47.3c-6.3-11.8-17.9-10.5-27.2-8.7 5.7 7 16.7 8.9 27.2 8.7zm-27.5-15c18.4 3.3 26.9-7.3 32.7-16.2-18.8-1.7-26.4 8-32.7 16.2zm-7.5 3.1c7.6-6.5 16.8-15.3 17.4-31.7-8.6 2.8-19.2 11.7-17.4 31.7zm-28.2 27.8c6-15.8-1-23.8-4.3-28.1-5.4 13.1-1 20 4.3 28.1zm-9.8-26.9c-5.5 5-10.5 11.4-14 23.8 3.9-1.2 8.8-1.5 13.5-10.8-0.1-2-0.8-8.3 0.5-13zm-17-0.6c6.7 1.6 12.6-2.5 14-3-2.3-1.1-7-3.5-7.8-5-3.5 2.6-5.2 4.8-6.2 8zm23.7-4c-3.7-11-9.3-19-22.2-19.1 2.2 9.1 7.4 15.3 22.2 19.1zm45.5-66.9c14.5-2.8 20.2-13.8 20.9-22.6-14.5 4.7-18.2 14.7-20.9 22.6zm-4.7 9.9c11.3 2.1 24.8-0.1 33.6-6.8-5.6-4.2-19.7-10.5-33.6 6.8zm-16.9 4.6c1.5 5.5 4.2 13.3 22.3 12.9-3.5-7.7-5.2-11.8-22.3-12.9zm-9.7-41c17.1 3.7 21.7 0.6 29.1-6.1-18-4.1-23.2 1.9-29.1 6.1zm-1.4-7.3c19.1-3.2 22.4-14 24.6-20-16.1 3-21 10.8-24.6 20zm-3.7-2.2c5.5-14.8 1.8-21.6-3-28.7-7.4 14.1-0.3 23.6 3 28.7zm-6 93.3c1-12.9 5.9-17.7 14.1-23.1 2.6 20.1-4.7 26.9-10.7 31.9 12.3 20.1 18.7 9.7 20.6 4.7-9.5-14.4-5.1-25.7-1.9-35.1 2.3 3.4 4.6 6.4 6 10 2.6-3.8 4.8-5.1 7.6-7.6-15.1-4.5-16.6-14.9-18.2-22-22.6 10.6-19.1 29-17.5 41.2z"/>
</svg>