<svg version="1.2" xmlns="http://www.w3.org/2000/svg" viewBox="0 0 378 483" width="378" height="483">
	<title>LOGO-OBSHTINA-KAVARNA-pdf</title>
	<style>
		.s0 { fill: #231f20 } 
	</style>
	<path id="Path 1" fill-rule="evenodd" class="s0" d="m30.2 133.3h310.3v200.5c-9.6 115.4-104.2 148.5-155.9 148.4-51.7-0.1-150.5-32-154.4-151.8zm7.4 9.4v197.8c2.3 68.9 69.7 137.2 145.9 134.2 82 0.2 141.5-61 148.3-141.5v-190.5zm287.8 6.4v146.5h-139.7v-146.5zm0 183.9c-7.1 83.1-71.9 135.1-139.7 136.5v-168.2h139.7zm-238.2 96.9c-24.3-23.1-42.1-55.6-43.2-89.6v-39h136v168.2c-32.6-0.6-65.6-13.1-92.8-39.6zm-43.2-280.8h136v146.5h-136zm90.3 247c1.2 3.9 9.2 6.7 6.9 9.4-29 34.5-67.3-49.4-21.5-59.3 12.4-2.7 27.9-0.6 30.8 1.3 3.2-1 0.1-8.7-7.2-8.7-17.2 1.9-22.1-4.5-20.9-8 0.9-3 6.9-3.7 5.6 1.9 5.3 4.7 10.1 4.4 14.4-0.9 2-9.9-12-17.1-19.9-19-30.5-7.8-58.5 22-56.8 61.8 3.1 37.1 36.9 67 74.7 47.8 10.7-5.5 10.5-13.6 15.1-14.7 9.7-2.6 14.4-7.7 15.4-14.8-12.3 6.3-24.3 2.8-36.2-9.7 0.3-1-2.5 6.3-0.4 12.9zm-60.2-67c3.4-6.3 8.2-11 14.1-14.4-7.1-0.8-13.8 1-19.8 6.3 3.3 2.3 4.8 5.1 5.7 8.1zm41.9 43.5l0.8-19c-4 0.7-9.5 3.1-12.3 7 4.4 2.3 8.2 6.4 11.5 12zm134.2-62.9v-0.1 0.2c-1.5 5.3-3.5 8-7.1 16.1-6.3 13.2-3.3 20.7 7 30.2l0.1-0.1 0.1 0.1c10.4-9.5 13.4-17 7-30.2-3.5-8.1-5.5-10.8-7-16.1v-0.2zm-23.6-0.5c-0.5 1.4-0.7 1.9-1.3 3.2 0.8 3.5 2.9 14 3.4 18.9 0.7 7 1.1 14.1 2 20.7 1.4 9.5 8.4 29.2 15.6 30.2 0-5.3 0-17.2-0.1-20.9-10.1-13.6-19.5-52.3-19.6-52.1zm-9.7 33.9c-0.3-0.8-0.3-0.6-0.6-1.1 0 0.5-0.3 2.4-0.6 3.6q0 0.1 0 0.1c2.8 7.8 10.6 28.2 12.2 34 3.3 12.3 9.7 28.7 18.4 30.7 0-8.5 0-12.2-0.1-17.3 0-0.4 0.2-1.1-0.2-1.3-6.6-4.9-13.7-14.3-17.8-24.1-4.5-9.6-6.5-13.6-11.3-24.6zm-2.5 33.7l-1.1 3.2c2 3.5 3.7 8.1 6.2 12.6 3 5.6 6 11.6 7.7 17.5 4.5 14.7 11.7 26.9 19.1 27.4 0-6.1 0-9.5 0-13.4 0-0.4 0-0.7-0.1-0.9-3.5-10.1-15.2-17.7-24.4-32-2.6-4.1-4.6-9.1-7.4-14.4zm39.7-15.5c-0.1 3.7-0.1 15.6 0 20.9 7.1-1 14.2-20.7 15.5-30.2 0.9-6.6 1.3-13.7 2-20.7 0.5-4.9 2.6-15.4 3.4-18.9-0.6-1.3-0.8-1.8-1.3-3.2-0.1-0.2-9.5 38.5-19.6 52.1zm18 6.4c-4 9.8-11.2 19.2-17.8 24.1-0.4 0.2-0.2 0.9-0.2 1.3-0.1 5.1-0.1 8.8-0.1 17.3 8.8-2 15.1-18.4 18.4-30.7 1.6-5.8 9.4-26.2 12.2-34 0 0 0.1 0 0-0.1-0.3-1.2-0.6-3.1-0.6-3.6-0.3 0.5-0.3 0.3-0.6 1.1-4.8 11-6.8 15-11.3 24.6zm6.4 23.5c-9.2 14.3-20.9 21.9-24.4 32 0 0.2-0.1 0.5-0.1 0.9 0 3.9 0 7.3 0 13.4 7.4-0.5 14.6-12.7 19.1-27.4 1.7-5.9 4.7-11.9 7.7-17.5 2.5-4.5 4.2-9.1 6.2-12.6l-1.1-3.2c-2.8 5.3-4.8 10.3-7.4 14.4zm-11.1-229l-16.2 0.1 1.3 9.3c-9.1 1-17.5 4.4-24.5 9.6l-5.1-6.6-11.3 11.6 6.2 4.8c-5.4 6.9-9.1 15.1-10.4 24.1l-8.7-1.2-0.1 16.2 8.6-0.9c1.1 9.5 4.9 18.1 10.4 25.3l-7.1 5.5 11.5 11.4 5.6-7.1c7.1 5.2 15.5 8.7 24.7 9.7l-1.1 7.8h16.2l-0.9-8.1c9.4-1.5 18-5.5 24.9-11.4l6 7.2 11.3-11.7-7.9-5.7c4.6-6.7 7.6-14.5 8.7-22.9l8.8 0.9-0.1-16.2-8.9 1.3c-1.3-9-5-17.2-10.3-24.1l6.5-5.4-11.6-11.3-5.1 6.9c-6.5-4.8-14.1-8.1-22.4-9.4zm-9 47.7c6.7 0 12.1 5.5 12.1 12.1 0 6.7-5.4 12.1-12.1 12.1-6.6 0-12-5.4-12-12.1 0-6.6 5.4-12.1 12-12.1zm-38 6.4c1.5-7.5 4.2-13.3 7.8-17.6 4.1 3.3 8.5 6.5 12.5 9.8 3.8 3.3 0.8 10.4-3.9 9.9-5.2-0.6-11.1-1.6-16.4-2.1zm59.7 2.1c-4.7 0.5-7.7-6.6-3.9-9.9 4-3.3 8.4-6.5 12.5-9.8 3.6 4.3 6.3 10.1 7.8 17.6-5.3 0.5-11.2 1.5-16.4 2.1zm-43.3 7c4.7-0.5 7.7 6.6 3.9 9.8-4 3.4-8.4 6.6-12.5 9.9-3.6-4.3-6.3-10.1-7.8-17.6 5.3-0.5 11.2-1.6 16.4-2.1zm59.7 2.1c-1.5 7.5-4.2 13.3-7.8 17.6-4.1-3.3-8.5-6.5-12.5-9.9-3.8-3.2-0.8-10.3 3.9-9.8 5.2 0.5 11.1 1.6 16.4 2.1zm-60.1-36.8c6.3-4.2 12.3-6.4 17.9-6.8 0.6 5.3 1.4 10.6 1.8 15.8 0.9 4.9-6.6 7.8-9.7 4.2-3.4-4.1-6.7-9-10-13.2zm35.6 14c-3.4 3.4-10.7 0.2-9.5-4.6 0.7-5.2 1.7-10.5 2.5-15.7 5.6 0.7 11.5 3.2 17.6 7.7-3.5 3.9-7.1 8.7-10.6 12.6zm-25.6 35.5c3.1-3.6 10.6-0.7 9.7 4.1-0.4 5.3-1.2 10.6-1.8 15.9-5.6-0.5-11.6-2.7-17.9-6.9 3.3-4.1 6.6-9 10-13.1zm36.2 11.8c-6.1 4.5-12 7-17.6 7.7-0.8-5.2-1.8-10.5-2.5-15.7-1.2-4.8 6.1-8.1 9.5-4.7 3.5 4 7.1 8.7 10.6 12.7zm-32.5-30c0 4.7 3.7 8.4 8.3 8.4 4.7 0 8.4-3.7 8.4-8.4 0-4.6-3.7-8.3-8.4-8.3-4.6 0-8.3 3.7-8.3 8.3zm-172.9-15.5h0.1v0.1h19.2v-0.1h0.1v-5.8h-0.1-2.7-16.6zm23-5.8h-0.1l0.1 5.7v0.1h18.4 0.1v-5.9h-0.1-2.7-15.7zm22.3 0h-0.1l0.1 5.2v0.6h22v-5.9h-3.2-18.8zm-47.9 10.1v5.8h11.4 0.1v-5.9h-0.1-3.3-8.1zm15.6 0h-0.1l0.1 4.5v1.3h17.2 0.1v-5.9h-0.1-5.1-12.1zm22.4 0h-0.1l0.1 3.1v2.8h17.2 0.1v-5.9h-0.1-5-12.2zm21 5.8h11.4v-5.9h-3.4-8zm-32.5 12.7h17.3v-7.7-0.2l-17.3 0.1v0.1zm-3.6-7.9h-23l-1 7.8h24zm-25.1-25h0.1 76.4 0.1v-5.4h-0.1l-76.4-0.1v0.1h-0.1zm49.6 32.9h24l-1-7.8h-23zm-18.4 4.8c0 2.5 1.2 4.7 3 6.1h8.3c1.8-1.4 3-3.6 3-6.1q0-0.7-0.1-1.3h-14.1q-0.1 0.6-0.1 1.3zm-11.3 40.4h4.9c0-8.7 0-16.2 0-24.9-0.1-3.5 2.3-4.7 3.8-5.1q-0.9-3.5-1.9-7.1c-4.2 3.3-7.6 8.1-7.7 15zm37.7-22.2c-0.1-6.9-3.5-11.6-7.7-15q-0.9 3.6-1.9 7.2c1.6 0.4 4 1.5 3.9 5.1 0 8.6 0 16.2 0 24.9h4.8zm-66-66.1h92.6v-16.7h-12.4l-1.2 8.9c-4.4 1.4-8.9 1.9-13.3 0l-1.6-8.9h-11.2l-1.2 9c-4.4 1.4-8.9 1.9-13.3 0l-1.6-9h-9.9l-1.2 9.2c-4.4 1.5-8.9 2-13.3 0-0.5-2.9-1.1-6.3-1.6-9.2h-10.8zm32.5 46.4l-22.6 0.1-0.8 7.4h17.4zm-23.5 18.4h13v-6.9h-13zm-1.8 11.6h14.7v-7.7h-14.7zm0 11.8h14.7v-7.7h-14.7zm59.7-34.5h17.4l-0.8-7.4h-22.7zm17.5 4.1h-13v6.9h13zm1.9 10.8h-14.8v7.7h14.8zm0 11.9h-14.8v7.7h14.8zm-82.1-249.2l9.4 24.7c21.1-5.6 43.3-9.9 66.7-12.5q0-14.7 0-29.4h77.3l0.6 29.8c25.8 2 51.3 5.4 76.2 10.7l9.3-23.4 70.3 21.2-39 84.1c-104.7-39.9-207.3-38.4-307.9 0.6l-31.2-84.1zm151.8 60.6l1-12.8 4.4 0.4q4.6 0.3 7.1 0 1.8-0.2 3.7-1.3 1.8-1.1 3.1-3.1 1.2-2 1.5-5.1 0.3-4.1-1.5-6.7-1.7-2.7-4.6-3.7-1.8-0.7-8-1.1l-10.9-0.9-2.6 33.7zm5.4-27.7q3.7 0.3 4.9 0.6 1.6 0.4 2.6 1.7 1 1.3 0.8 3.1-0.1 1.5-0.9 2.6-0.9 1.1-2.3 1.5-1.4 0.4-5.4 0.1l-3.7-0.3 0.7-9.6zm-39.8-6.4l-7.1 0.1-12.7 33.4 7.1-0.1 2.7-7.6 13.4-0.1 2.9 7.6 7.3-0.1zm-8 20.2l4.4-12.4 4.7 12.3zm-51.5 17.3l11.5-0.8q6.5-0.5 8.2-0.8 2.7-0.5 4.4-1.9 1.8-1.4 2.7-3.7 0.9-2.2 0.8-4.5-0.2-3-2-5-1.8-2.1-5-2.7 2.1-1.2 3.3-3.2 1.1-2.1 1-4.5-0.2-2.1-1.4-3.8-1.1-1.7-2.7-2.7-1.7-0.9-3.7-1.1-1.9-0.2-6 0.1l-13.4 0.9zm8.8-28.9q4.8-0.3 5.8-0.2 1.7 0.1 2.6 1 0.9 0.9 1.1 2.4 0.1 1.7-0.9 2.7-0.9 1.1-2.6 1.4-1 0.2-5 0.5l-4.4 0.3-0.5-7.8zm2.5 13.3q4.6-0.3 6.1 0.1 1.4 0.3 2.2 1.4 0.8 1 0.9 2.5 0.1 1.8-0.8 2.9-0.8 1.2-2.3 1.5-1 0.3-4.7 0.6l-6.3 0.4-0.6-9zm184.1-3.1l-7-1.9-21.7 29.6 7.1 1.9 4.7-6.8 13.3 3.5 0.8 8.3 7.2 1.9zm-13.4 17.8l7.8-11 1.3 13.4zm-47.7 4.6l2.3-14.5 13.1 2.1-2.3 14.5 6.7 1 5.3-33.2-6.7-1-2.1 13-13.1-2 2.1-13.1-6.7-1.1-5.3 33.2zm-166.2-30.9l-7.7 1.4-6.9 35 7.7-1.3 1.4-8 14.4-2.6 4.8 6.9 7.8-1.4zm-4.5 21.2l2.3-12.9 7.6 11.1zm-44.1 23.6l6.8-1.7-3.7-14.5q1.7-0.4 2.7 0 0.9 0.4 2.8 2.6 1.1 1.2 1.2 1.3 0.5 0.5 0.6 0.6l6.1 7.5 7.9-1.9-6.8-8q-2.6-3-4.6-4.6-1.9-1.5-4.3-1.6 1.6-1.5 2-2.8 0.4-1.4 0.6-3.2 0.3-3.5 0.6-4.7 0.4-1.2 1.2-2 0.8-0.7 2.9-1.2l0.9-0.3-1.2-4.9q-0.8 0.2-1 0.3-4.6 1.1-6.4 3-1.7 1.8-2.5 7.7-0.5 4.6-1.1 5.8-0.5 1.1-2.7 1.9l-3.6-14.1-6.7 1.7zm-12.9 25.8l60.5-17.7 14.6 20.8c-16.7-6.7-52.6 8.1-75.1-3.1zm229.9 2.7l14.6-20.8 60.6 17.6c-22.5 11.3-58.4-3.5-75.2 3.2z"/>
</svg>