<?xml version="1.0" encoding="UTF-8" standalone="no"?>
<!-- Created with Inkscape (http://www.inkscape.org/) -->
<svg xmlns:dc="http://purl.org/dc/elements/1.1/" xmlns:cc="http://web.resource.org/cc/" xmlns:rdf="http://www.w3.org/1999/02/22-rdf-syntax-ns#" xmlns:svg="http://www.w3.org/2000/svg" xmlns="http://www.w3.org/2000/svg" xmlns:xlink="http://www.w3.org/1999/xlink" xmlns:sodipodi="http://sodipodi.sourceforge.net/DTD/sodipodi-0.dtd" xmlns:inkscape="http://www.inkscape.org/namespaces/inkscape" width="707.18317" height="1040.8915" id="svg2" sodipodi:version="0.32" inkscape:version="0.45" sodipodi:docname="Peshtera-coat-of-arms.svg" sodipodi:docbase="/home/nick/Desktop" inkscape:output_extension="org.inkscape.output.svg.inkscape" version="1.0" sodipodi:modified="true">
  <defs id="defs4">
    <linearGradient id="linearGradient4188">
      <stop style="stop-color:#ffffff;stop-opacity:0.38144329;" offset="0" id="stop4190"/>
      <stop id="stop4196" offset="0.5" style="stop-color:#ffffff;stop-opacity:0.10196079;"/>
      <stop style="stop-color:#ffffff;stop-opacity:0;" offset="0.75" id="stop4198"/>
      <stop style="stop-color:#171717;stop-opacity:0.0927835;" offset="1" id="stop4192"/>
    </linearGradient>
    <linearGradient inkscape:collect="always" id="linearGradient4180">
      <stop style="stop-color:#000000;stop-opacity:1;" offset="0" id="stop4182"/>
      <stop style="stop-color:#000000;stop-opacity:0;" offset="1" id="stop4184"/>
    </linearGradient>
    <radialGradient inkscape:collect="always" xlink:href="#linearGradient4180" id="radialGradient4186" cx="271.49518" cy="389.32578" fx="271.49518" fy="389.32578" r="353.59159" gradientTransform="matrix(1.1695834,-0.4311412,0.6780298,1.839334,-341.01846,-303.57152)" gradientUnits="userSpaceOnUse"/>
    <radialGradient inkscape:collect="always" xlink:href="#linearGradient4188" id="radialGradient4194" cx="271.49518" cy="389.32578" fx="271.49518" fy="389.32578" r="353.59159" gradientTransform="matrix(1.1695834,-0.4311412,0.6780298,1.839334,-341.01846,-303.57152)" gradientUnits="userSpaceOnUse"/>
  </defs>
  <sodipodi:namedview id="base" pagecolor="#ffffff" bordercolor="#666666" borderopacity="1.0" gridtolerance="10000" guidetolerance="10" objecttolerance="10" inkscape:pageopacity="0.0" inkscape:pageshadow="2" inkscape:zoom="0.70710678" inkscape:cx="572.87176" inkscape:cy="448.01929" inkscape:document-units="px" inkscape:current-layer="layer1" showgrid="false" inkscape:window-width="1278" inkscape:window-height="949" inkscape:window-x="0" inkscape:window-y="24"/>
  <metadata id="metadata7">
    <rdf:RDF>
      <cc:Work rdf:about="">
        <dc:format>image/svg+xml</dc:format>
        <dc:type rdf:resource="http://purl.org/dc/dcmitype/StillImage"/>
      </cc:Work>
    </rdf:RDF>
  </metadata>
  <g inkscape:label="Layer 1" inkscape:groupmode="layer" id="layer1" transform="translate(-19.836712,-6.9610943)">
    <path style="fill:#ffffff;fill-opacity:1;stroke:#000000;stroke-width:12.54079342;stroke-linecap:round;stroke-linejoin:round;stroke-miterlimit:4;stroke-opacity:1" d="M 26.107109,13.231491 L 720.7495,13.231491 L 720.55355,701.79944 C 716.52877,890.99687 561.48299,1042.6552 371.56678,1041.5765 C 183.05659,1040.5058 30.36133,889.34555 26.303059,701.79944 L 26.107109,13.231491 z " id="rect2170"/>
    <g id="g11035" transform="matrix(6.2703967,0,0,6.2703967,-673.43396,-935.16597)">
      <rect y="194.48718" x="125.25" height="48.75" width="41.5" id="rect5106" style="fill:#000000;fill-opacity:1;stroke:#c7ae40;stroke-width:0;stroke-linecap:round;stroke-linejoin:round;stroke-miterlimit:4;stroke-dasharray:none;stroke-opacity:1"/>
      <path id="rect9968" d="M 166.3125,243.03125 L 166.3125,300.5 C 166.4491,300.5021 166.58183,300.49922 166.71875,300.5 C 188.29855,300.6228 206.12961,284.27545 208.34375,263.21875 L 208.34375,243.03125 L 166.3125,243.03125 z " style="fill:#663300;fill-opacity:1;stroke:#c7ae40;stroke-width:0;stroke-linecap:round;stroke-linejoin:round;stroke-miterlimit:4;stroke-dasharray:none;stroke-opacity:1"/>
      <path style="fill:none;fill-opacity:1;stroke:#000000;stroke-width:2;stroke-linecap:round;stroke-linejoin:round;stroke-miterlimit:4;stroke-dasharray:none;stroke-opacity:1" d="M 125.31249,194.48841 L 208.59374,194.48841 L 208.57025,259.69826 C 208.08771,282.4244 189.49915,300.6414 166.72994,300.51183 C 144.1293,300.38322 125.82254,282.22605 125.33599,259.69826 L 125.31249,194.48841 z " id="path5104" sodipodi:nodetypes="cccscc"/>
      <path sodipodi:nodetypes="ccscscsc" id="path6077" d="M 134.79148,240.85304 L 155.51237,240.85304 C 162.32914,226.83055 166.30911,229.12005 161.95903,215.49399 C 160.35612,210.47312 161.35682,207.91192 158.72989,205.20282 C 158.09213,204.35247 154.01658,198.94079 149.07731,197.99555 C 147.43221,197.68073 145.72612,198.07575 143.02835,199.53996 C 139.16352,203.59326 133.91361,206.52394 130.3913,211.89391 C 128.38543,214.95198 127.60262,229.88489 134.79148,240.85304 z " style="fill:#ffcc33;fill-opacity:1;fill-rule:evenodd;stroke:#0dbad5;stroke-width:0;stroke-linecap:butt;stroke-linejoin:miter;stroke-miterlimit:4;stroke-dasharray:none;stroke-opacity:1"/>
      <path sodipodi:nodetypes="cssssssssssssssscc" id="path8017" d="M 139.875,240.77988 C 139.76719,238.97059 139.99966,236.65259 138.5418,235.31459 C 134.94834,232.01656 134.33049,226.92079 136.47812,222.68359 C 137.2165,221.22678 139.76474,221.5034 139.97515,223.24485 C 140.38769,226.65926 137.32676,232.74674 141.36251,233.62924 C 143.14194,234.01835 142.73949,230.9191 142.80443,229.50901 C 142.97084,225.89554 142.20347,222.16365 143.0788,218.65947 C 144.29233,213.8014 148.6152,209.57745 149.38762,213.75271 C 149.64161,215.12564 148.1651,219.22933 146.47828,222.5908 C 145.63311,224.27504 144.32386,234.11458 146.66147,229.20174 C 148.43941,225.46512 150.02119,215.79026 152.18155,220.77325 C 152.64331,221.83833 151.8778,224.5725 151.34096,226.68117 C 150.49356,230.00968 148.87259,231.64853 148.82924,233.62098 C 148.81282,234.3683 152.41529,232.45826 152.73753,231.431 C 153.07654,230.35026 154.0334,225.83291 155.26583,227.08563 C 156.30541,228.14232 154.63122,232.87528 153.74877,234.86991 C 152.44747,237.8113 151.69779,238.08841 149.80479,240.77988 L 139.875,240.77988 z " style="fill:#ff0000;fill-opacity:1;fill-rule:evenodd;stroke:#37c42e;stroke-width:0;stroke-linecap:butt;stroke-linejoin:miter;stroke-miterlimit:4;stroke-dasharray:none;stroke-opacity:0.421875"/>
      <path id="rect10945" d="M 154.03125,252.15625 L 146.34375,286.5625 L 152.03125,286.5625 L 152.03125,294 L 156,294 L 156,286.5625 L 161.71875,286.5625 L 154.03125,252.15625 z " style="fill:#009900;fill-opacity:1;stroke:#000000;stroke-width:0;stroke-linecap:round;stroke-linejoin:round;stroke-miterlimit:4;stroke-opacity:1"/>
      <path style="fill:#009900;fill-opacity:1;stroke:#000000;stroke-width:0;stroke-linecap:round;stroke-linejoin:round;stroke-miterlimit:4;stroke-opacity:1" d="M 141.54424,249.23942 L 134.53877,280.5932 L 139.72168,280.5932 L 139.72168,287.37086 L 143.33833,287.37086 L 143.33833,280.5932 L 148.54972,280.5932 L 141.54424,249.23942 z " id="path10954"/>
      <path transform="matrix(-0.9442756,0,0,0.9442756,519.12806,33.309163)" d="M 365.92774,258.28128 C 364.85375,260.05902 364.55905,256.4465 362.99737,257.8158 C 359.82391,260.59834 363.70439,260.70866 360.30563,263.21102 C 358.63308,264.44244 359.74326,260.99213 357.77645,261.65957 C 353.77972,263.01587 357.3226,264.60278 353.22495,265.61401 C 351.20847,266.11165 353.55452,263.34882 351.482,263.21279 C 347.27047,262.93637 349.93638,265.75828 345.76366,265.12443 C 343.71024,264.81251 346.93499,263.15779 345.07229,262.239 C 341.28713,260.37194 342.67021,263.99924 339.05768,261.81681 C 337.27994,260.74282 340.89246,260.44812 339.52315,258.88644 C 336.74062,255.71298 336.6303,259.59346 334.12794,256.1947 C 332.89652,254.52215 336.34683,255.63233 335.67939,253.66552 C 334.32308,249.66879 332.73617,253.21167 331.72494,249.11401 C 331.22731,247.09753 333.99014,249.44358 334.12617,247.37107 C 334.40259,243.15954 331.58067,245.82545 332.21452,241.65273 C 332.52645,239.59931 334.18117,242.82406 335.09996,240.96136 C 336.96702,237.1762 333.33972,238.55928 335.52215,234.94675 C 336.59614,233.16901 336.89084,236.78153 338.45252,235.41222 C 341.62598,232.62968 337.7455,232.51937 341.14426,230.01701 C 342.81681,228.78558 341.70663,232.2359 343.67344,231.56845 C 347.67017,230.21215 344.12729,228.62524 348.22495,227.61401 C 350.24142,227.11638 347.89537,229.87921 349.96789,230.01524 C 354.17942,230.29166 351.51351,227.46974 355.68623,228.10359 C 357.73965,228.41551 354.5149,230.07024 356.3776,230.98903 C 360.16276,232.85609 358.77968,229.22879 362.39221,231.41122 C 364.16995,232.4852 360.55743,232.77991 361.92674,234.34159 C 364.70927,237.51505 364.81959,233.63457 367.32195,237.03333 C 368.55337,238.70588 365.10306,237.5957 365.7705,239.56251 C 367.12681,243.55923 368.71372,240.01636 369.72495,244.11401 C 370.22258,246.13049 367.45975,243.78444 367.32372,245.85696 C 367.0473,250.06849 369.86922,247.40258 369.23537,251.5753 C 368.92344,253.62872 367.26872,250.40396 366.34993,252.26666 C 364.48287,256.05183 368.11017,254.66875 365.92774,258.28128 z " inkscape:randomized="0" inkscape:rounded="0.7" inkscape:flatsided="false" sodipodi:arg2="0.73982074" sodipodi:arg1="0.65457077" sodipodi:r2="16.616034" sodipodi:r1="19.163769" sodipodi:cy="246.61401" sodipodi:cx="350.72495" sodipodi:sides="16" id="path10956" style="fill:#ffffff;fill-opacity:1;stroke:#000000;stroke-width:0;stroke-linecap:round;stroke-linejoin:round;stroke-miterlimit:4;stroke-dasharray:none;stroke-opacity:1" sodipodi:type="star"/>
      <path transform="translate(-180.10202,0.4748566)" sodipodi:open="true" sodipodi:end="9.424778" sodipodi:start="3.1472726" d="M 364.24843,265.68431 A 3.800699,3.800699 0 1 1 364.24837,265.7059" sodipodi:ry="3.800699" sodipodi:rx="3.800699" sodipodi:cy="265.7059" sodipodi:cx="368.04907" id="path10958" style="fill:#663300;fill-opacity:1;stroke:#000000;stroke-width:0;stroke-linecap:round;stroke-linejoin:round;stroke-miterlimit:4;stroke-dasharray:none;stroke-opacity:1" sodipodi:type="arc"/>
      <g style="fill:#000000" transform="translate(-179.64644,0.5303301)" id="g11004">
        <rect style="fill:#000000;fill-opacity:1;stroke:#000000;stroke-width:0;stroke-linecap:round;stroke-linejoin:round;stroke-miterlimit:4;stroke-dasharray:none;stroke-opacity:1" id="rect10966" width="19.25" height="2" x="357.11853" y="230.23718"/>
        <rect style="fill:#000000;fill-opacity:1;stroke:#000000;stroke-width:0;stroke-linecap:round;stroke-linejoin:round;stroke-miterlimit:4;stroke-dasharray:none;stroke-opacity:1" id="rect10968" width="26.749998" height="2.375" x="353.36853" y="202.48718" ry="0"/>
        <g style="fill:#000000" id="g10986">
          <path id="rect10962" d="M 346.5,196.625 L 352.40625,208.625 L 356.25,208.625 L 356.25,204.125 L 355.125,204.125 L 355.125,207.25 L 353.4375,207.25 L 348.21875,196.625 L 346.5,196.625 z M 366.625,198.75 L 354.46875,236.375 L 352.125,236.375 L 352.125,238.625 L 359.75,238.625 L 359.75,236.375 L 356.8125,236.375 L 367.03125,204.75 L 366.75,198.75 L 366.625,198.75 z " style="fill:#000000;fill-opacity:1;stroke:#000000;stroke-width:0;stroke-linecap:round;stroke-linejoin:round;stroke-miterlimit:4;stroke-dasharray:none;stroke-opacity:1"/>
          <use style="fill:#000000" height="1052.3622" width="744.09448" transform="matrix(-1,0,0,1,733.48706,0)" id="use10984" xlink:href="#rect10962" y="0" x="0"/>
        </g>
        <rect y="222.10545" x="360.07953" height="1.6464466" width="13.32798" id="rect10990" style="fill:#000000;fill-opacity:1;stroke:#000000;stroke-width:0;stroke-linecap:round;stroke-linejoin:round;stroke-miterlimit:4;stroke-dasharray:none;stroke-opacity:1"/>
        <rect style="fill:#000000;fill-opacity:1;stroke:#000000;stroke-width:0;stroke-linecap:round;stroke-linejoin:round;stroke-miterlimit:4;stroke-dasharray:none;stroke-opacity:1" id="rect10992" width="8.9969521" height="1.6464466" x="362.24506" y="214.32729"/>
        <rect style="fill:#000000;fill-opacity:1;stroke:#000000;stroke-width:0;stroke-linecap:round;stroke-linejoin:round;stroke-miterlimit:4;stroke-dasharray:none;stroke-opacity:1" id="rect10994" width="16.623087" height="1.5669554" x="405.22415" y="34.867416" transform="matrix(0.8868485,0.4620603,0,1,0,0)" ry="0"/>
        <rect ry="0" transform="matrix(0.8437818,0.5366864,0,1,0,0)" y="-14.877364" x="427.89716" height="1.4770961" width="13.490931" id="rect10996" style="fill:#000000;fill-opacity:1;stroke:#000000;stroke-width:0;stroke-linecap:round;stroke-linejoin:round;stroke-miterlimit:4;stroke-dasharray:none;stroke-opacity:1"/>
      </g>
    </g>
    <path style="fill:#000000;fill-opacity:1;stroke:#000000;stroke-width:0;stroke-linecap:round;stroke-linejoin:round;stroke-miterlimit:4;stroke-dasharray:none;stroke-opacity:1" d="M 99.098418,137.85563 L 147.10621,255.42556 L 599.75046,255.42556 L 647.75813,137.85563 L 542.1412,137.85563 L 515.68789,202.51909 L 432.21324,202.51909 L 432.21324,137.85563 L 314.6433,137.85563 L 314.6433,202.51909 L 231.16865,202.51909 L 204.71548,137.85563 L 99.098418,137.85563 z " id="rect11019" sodipodi:nodetypes="ccccccccccccc"/>
    <path style="fill:#000000;fill-opacity:1;stroke:#000000;stroke-width:0;stroke-linecap:round;stroke-linejoin:round;stroke-miterlimit:4;stroke-dasharray:none;stroke-opacity:1" d="M 494.72132,45.171317 L 494.72132,45.367277 L 494.13341,45.367277 L 494.13341,107.8753 L 507.45801,107.8753 L 507.45801,83.381557 L 542.33708,82.989648 C 553.2741,83.048724 562.06601,74.775999 562.12808,64.374417 C 562.19017,53.972763 553.2741,45.426343 542.33708,45.367277 L 494.72132,45.171317 z M 113.40282,45.367277 L 113.59871,108.07125 L 125.74761,108.07125 L 125.74761,58.691862 L 170.2283,58.691862 L 170.2283,108.07125 L 182.37719,108.07125 L 182.37719,45.367277 L 113.40282,45.367277 z M 201.38427,45.367277 L 201.58028,108.07125 L 270.75053,108.07125 L 270.75053,94.746647 L 213.72917,94.746647 L 213.72917,82.989648 L 270.55464,82.989648 L 270.55464,69.665063 L 213.72917,69.665063 L 213.72917,58.691862 L 270.55464,58.691862 L 270.55464,45.367277 L 201.38427,45.367277 z M 282.11562,45.367277 L 282.31164,108.07125 L 393.41517,108.07125 L 395.37466,114.34164 L 408.50337,114.34164 L 402.23298,94.746647 L 395.96257,94.746647 L 395.96257,45.367277 L 382.83386,45.367277 L 382.83386,94.746647 L 345.7994,94.746647 L 345.7994,45.367277 L 332.6707,45.367277 L 332.6707,94.746647 L 295.24433,94.746647 L 295.24433,45.367277 L 282.11562,45.367277 z M 414.57775,45.367277 L 414.77376,108.07125 L 483.94402,108.07125 L 483.94402,94.746647 L 426.92266,94.746647 L 426.92266,82.989648 L 483.74813,82.989648 L 483.74813,69.665063 L 426.92266,69.665063 L 426.92266,58.691862 L 483.74813,58.691862 L 483.74813,45.367277 L 414.57775,45.367277 z M 552.13458,107.8753 L 565.26329,107.8753 L 575.45268,89.456001 L 610.13575,89.456001 L 620.32514,107.8753 L 633.45385,107.8753 L 599.16255,45.367277 L 586.62176,45.367277 L 552.13458,107.8753 z M 542.33708,55.80015 C 547.64472,55.828804 551.96879,59.130608 551.93869,64.178457 C 551.90859,69.226317 547.64479,72.723946 542.33708,72.695292 L 507.45801,72.604305 L 507.45801,55.948569 L 542.33708,55.80015 z M 592.69627,57.908064 L 604.25725,78.678759 L 581.33117,78.678759 L 592.69627,57.908064 z " id="rect2180" sodipodi:nodetypes="cccccccsccccccccccccccccccccccccccccccccccccccccccccccccccccccccccccccccscccccccc"/>
    <path sodipodi:nodetypes="cccscc" id="path3209" d="M 26.107109,13.231491 L 720.7495,13.231491 L 720.55355,701.79944 C 716.52877,890.99687 561.48299,1042.6552 371.56678,1041.5765 C 183.05659,1040.5058 30.36133,889.34555 26.303059,701.79944 L 26.107109,13.231491 z " style="fill:url(#radialGradient4194);fill-opacity:1.0;stroke:url(#radialGradient4186);stroke-width:0;stroke-linecap:round;stroke-linejoin:round;stroke-miterlimit:4;stroke-dasharray:none;stroke-opacity:1"/>
  </g>
  <g inkscape:groupmode="layer" id="layer2" inkscape:label="Gradients"/>
</svg>