<?xml version="1.0" encoding="UTF-8" standalone="no"?>
<!-- Created with Inkscape (http://www.inkscape.org/) -->
<svg xmlns:dc="http://purl.org/dc/elements/1.1/" xmlns:cc="http://web.resource.org/cc/" xmlns:rdf="http://www.w3.org/1999/02/22-rdf-syntax-ns#" xmlns:svg="http://www.w3.org/2000/svg" xmlns="http://www.w3.org/2000/svg" xmlns:xlink="http://www.w3.org/1999/xlink" xmlns:sodipodi="http://sodipodi.sourceforge.net/DTD/sodipodi-0.dtd" xmlns:inkscape="http://www.inkscape.org/namespaces/inkscape" width="744.09448819" height="1052.3622047" id="svg2" sodipodi:version="0.32" inkscape:version="0.44" sodipodi:docbase="/home/nick/Desktop/coa/uploaded" sodipodi:docname="Asenovgrad-coat-of-arms-with-gradients.svg">
  <defs id="defs4">
    <linearGradient id="linearGradient3661">
      <stop style="stop-color:white;stop-opacity:0.50196081;" offset="0" id="stop3663"/>
      <stop style="stop-color:white;stop-opacity:0;" offset="1" id="stop3665"/>
    </linearGradient>
    <radialGradient inkscape:collect="always" xlink:href="#linearGradient3661" id="radialGradient3667" cx="-749" cy="357.36218" fx="-749" fy="357.36218" r="145.00008" gradientTransform="matrix(0.578588,-0.427174,0.62748,0.849894,-539.875,-266.3108)" gradientUnits="userSpaceOnUse"/>
  </defs>
  <sodipodi:namedview id="base" pagecolor="#ffffff" bordercolor="#666666" borderopacity="1.0" gridtolerance="10000" guidetolerance="10" objecttolerance="10" inkscape:pageopacity="0.0" inkscape:pageshadow="2" inkscape:zoom="0.5" inkscape:cx="-401.53916" inkscape:cy="612.58331" inkscape:document-units="px" inkscape:current-layer="layer1" inkscape:window-width="1278" inkscape:window-height="948" inkscape:window-x="0" inkscape:window-y="25"/>
  <metadata id="metadata7">
    <rdf:RDF>
      <cc:Work rdf:about="">
        <dc:format>image/svg+xml</dc:format>
        <dc:type rdf:resource="http://purl.org/dc/dcmitype/StillImage"/>
      </cc:Work>
    </rdf:RDF>
  </metadata>
  <g inkscape:label="Layer 1" inkscape:groupmode="layer" id="layer1">
    <g id="g1917" transform="matrix(7.858354,0,0,7.858354,-857.1771,283.9263)">
      <path sodipodi:nodetypes="cccccccccccccc" id="rect1906" d="M 157.15625,235.34375 C 160.76458,230.38305 195.15625,230.25763 195.15625,211.8125 L 195.15625,107.375 L 179.25,107.375 L 179.25,117.53125 L 168.34375,117.53125 L 168.34375,107.375 L 145.90625,107.375 L 145.90625,117.53125 L 135,117.53125 L 135,107.375 L 119.09375,107.375 L 119.09375,211.8125 C 119.09375,230.25763 153.48542,230.38305 157.09375,235.34375" style="fill:#eccf05;fill-opacity:1;fill-rule:nonzero;stroke:#b00;stroke-width:1.79999995;stroke-linecap:round;stroke-linejoin:round;stroke-miterlimit:4;stroke-dasharray:none;stroke-opacity:1" transform="translate(0,-140)"/>
    </g>
    <rect y="153.18045" x="78.458199" height="33.398003" width="598.21716" id="rect3700" style="fill:#b00;fill-opacity:1;fill-rule:nonzero;stroke:#b00;stroke-width:0;stroke-linecap:round;stroke-linejoin:round;stroke-miterlimit:4;stroke-dasharray:none;stroke-opacity:1"/>
    <g id="g4702" transform="matrix(7.858354,0,0,7.858354,-861.1062,-816.2433)">
      <g id="g4644" transform="translate(-99.19146,140)">
        <path style="fill:#b00;fill-opacity:1;fill-rule:nonzero;stroke:#b00;stroke-width:0;stroke-linecap:round;stroke-linejoin:round;stroke-miterlimit:4;stroke-opacity:1" d="M 135.09375,132.90625 L 127.75,139.65625 L 142.6875,139.625 L 135.09375,132.90625 z M 127.75,139.65625 L 127.6875,139.65625 L 127.71875,139.6875 L 127.75,139.65625 z M 158.34375,132.90625 L 151,139.65625 L 165.9375,139.625 L 158.34375,132.90625 z M 151,139.65625 L 150.9375,139.65625 L 150.96875,139.6875 L 151,139.65625 z M 151.53125,140.90625 L 151.53125,145.21875 L 153.5625,145.21875 L 153.5625,143.375 L 155.4375,143.375 L 155.4375,145.21875 L 157.5625,145.21875 L 157.5625,143.375 L 159.40625,143.375 L 159.40625,145.21875 L 161.53125,145.21875 L 161.53125,143.375 L 163.375,143.375 L 163.375,145.21875 L 165.375,145.21875 L 165.375,140.90625 L 151.53125,140.90625 z M 128.4375,141.125 L 128.4375,188 L 133.53125,188 L 133.53125,179.84375 C 133.53125,178.65627 134.50147,177.87501 135.59375,177.875 C 136.70125,177.875 137.65624,178.61051 137.65625,179.84375 C 137.65625,181.23249 137.65635,185.26762 137.65625,188 L 142.1875,188 L 150.6875,188 L 150.6875,153.375 L 142.1875,153.375 L 142.1875,141.125 L 128.4375,141.125 z M 133.5625,144.375 L 136.25,144.375 L 136.25,153.375 L 133.5625,153.375 L 133.5625,144.375 z M 143.75,146.25 L 143.75,151.375 L 153.8125,151.375 C 154.88475,149.96356 156.75551,149.04878 158.90625,149.0625 C 161.02132,149.076 162.88165,149.98906 163.9375,151.375 L 187.5625,151.375 L 182.6875,146.25 L 143.75,146.25 z M 158.875,150.375 C 155.84771,150.3533 153.34341,152.72816 153.34375,155.5625 L 153.34375,188 L 164.34375,188 C 164.30574,177.19882 164.44253,166.31131 164.34375,155.5625 C 164.36631,152.72861 161.9019,150.39671 158.875,150.375 z M 167.03125,153.375 L 167.03125,188 L 180.15625,188 L 180.15625,153.375 L 167.03125,153.375 z M 182.8125,153.375 L 182.8125,188 L 186.5625,188 L 186.5625,153.375 L 182.8125,153.375 z M 133.5625,158.25 L 136.25,158.25 L 136.25,167.25 L 133.5625,167.25 L 133.5625,158.25 z M 139.47671,158.25 L 142.16421,158.25 L 142.16421,167.25 L 139.47671,167.25 L 139.47671,158.25 z M 144.9375,158.25 L 147.625,158.25 L 147.625,167.25 L 144.9375,167.25 L 144.9375,158.25 z M 154.8125,158.25 L 157.5,158.25 L 157.5,167.25 L 154.8125,167.25 L 154.8125,158.25 z M 160.0625,158.25 L 162.75,158.25 L 162.75,167.25 L 160.0625,167.25 L 160.0625,158.25 z M 169.4375,158.25 L 172.125,158.25 L 172.125,167.25 L 169.4375,167.25 L 169.4375,158.25 z M 174.6875,158.25 L 177.375,158.25 L 177.375,167.25 L 174.6875,167.25 L 174.6875,158.25 z M 154.8125,171.46875 L 157.46875,171.46875 L 157.46875,174.46875 L 154.8125,174.46875 L 154.8125,171.46875 z M 169.4375,171.46875 L 172.09375,171.46875 L 172.09375,174.46875 L 169.4375,174.46875 L 169.4375,171.46875 z " transform="translate(99.19146,-140)" id="rect4595" sodipodi:nodetypes="cccccccccccccccccccccccccccccccccccccsscccccccccccccccsccccccccccccccccccccccccccccccccccccccccccccccccccccccccccccccccc"/>
        <g id="g4758"/>
      </g>
      <g id="g4633" transform="translate(-99.20688,140)"/>
    </g>
    <g id="g4730"/>
    <path style="fill:#b00;fill-opacity:1;fill-rule:evenodd;stroke:none;stroke-width:3;stroke-linecap:butt;stroke-linejoin:miter;stroke-miterlimit:4;stroke-opacity:1" d="M 152.13027,699.43676 L 152.13027,699.92792 C 126.37262,701.91788 110.09734,710.78981 96.630634,718.5915 C 89.805657,722.54543 83.62357,726.06731 76.493608,728.90559 L 76.493608,753.70852 C 89.677092,749.82162 99.828441,744.09265 108.66374,738.9741 C 122.85522,730.75262 133.99829,724.16583 157.53288,723.2574 C 181.06747,724.16583 192.21054,730.75262 206.40202,738.9741 C 219.88365,746.78437 236.26604,755.85016 262.14721,757.88328 L 262.14721,758.37442 C 264.03707,758.37442 265.74917,758.19871 267.54983,758.12884 C 269.3505,758.19871 271.0626,758.37442 272.95245,758.37442 L 272.95245,757.88328 C 298.83363,755.85016 315.21601,746.78437 328.69765,738.9741 C 342.88913,730.75262 354.03219,724.16583 377.56679,723.2574 C 401.10137,724.16583 412.24445,730.75262 426.43592,738.9741 C 439.91756,746.78437 456.29995,755.85016 482.18112,757.88328 L 482.18112,758.37442 C 484.07098,758.37442 485.78308,758.19871 487.58374,758.12884 C 489.38441,758.19871 491.0965,758.37442 492.98635,758.37442 L 492.98635,757.88328 C 518.86753,755.85016 535.24992,746.78437 548.73155,738.9741 C 562.92303,730.75262 574.0661,724.16583 597.60069,723.2574 C 621.13528,724.16583 632.27835,730.75262 646.46983,738.9741 C 655.02584,743.93084 664.83362,749.34518 677.41209,753.21737 L 677.41209,728.41445 C 670.80911,725.65357 664.92745,722.31346 658.50293,718.5915 C 645.03622,710.78981 628.76095,701.91788 603.00331,699.92792 L 603.00331,699.43676 C 601.12288,699.43676 599.39256,699.61405 597.60069,699.68234 C 595.80883,699.61405 594.07849,699.43676 592.19807,699.43676 L 592.19807,699.92792 C 566.44043,701.91788 550.16515,710.78981 536.69845,718.5915 C 522.52269,726.80396 511.27864,733.61432 487.58374,734.55378 C 463.88883,733.61432 452.64479,726.80396 438.46903,718.5915 C 425.00233,710.78981 408.72704,701.91788 382.9694,699.92792 L 382.9694,699.43676 C 381.08898,699.43676 379.35865,699.61405 377.56679,699.68234 C 375.77493,699.61405 374.04459,699.43676 372.16416,699.43676 L 372.16416,699.92792 C 346.40652,701.91788 330.13125,710.78981 316.66454,718.5915 C 302.48878,726.80396 291.24473,733.61432 267.54983,734.55378 C 243.85493,733.61432 232.61089,726.80396 218.43512,718.5915 C 204.96842,710.78981 188.69314,701.91788 162.9355,699.92792 L 162.9355,699.43676 C 161.05507,699.43676 159.32475,699.61405 157.53288,699.68234 C 155.74102,699.61405 154.01068,699.43676 152.13027,699.43676 z M 152.13027,756.90098 L 152.13027,757.39212 C 126.37262,759.3821 110.09734,768.25401 96.630634,776.05572 C 89.805657,780.00965 83.62357,783.53152 76.493608,786.36981 L 76.493608,811.17274 C 89.677092,807.28584 99.828441,801.55686 108.66374,796.43832 C 122.85522,788.21683 133.99829,781.63004 157.53288,780.72161 C 181.06747,781.63004 192.21054,788.21683 206.40202,796.43832 C 219.88365,804.24858 236.26604,813.31437 262.14721,815.34748 L 262.14721,815.83863 C 264.03707,815.83863 265.74917,815.66291 267.54983,815.59306 C 269.3505,815.66291 271.0626,815.83863 272.95245,815.83863 L 272.95245,815.34748 C 298.83363,813.31437 315.21601,804.24858 328.69765,796.43832 C 342.88913,788.21683 354.03219,781.63004 377.56679,780.72161 C 401.10137,781.63004 412.24445,788.21683 426.43592,796.43832 C 439.91756,804.24858 456.29995,813.31437 482.18112,815.34748 L 482.18112,815.83863 C 484.07098,815.83863 485.78308,815.66291 487.58374,815.59306 C 489.38441,815.66291 491.0965,815.83863 492.98635,815.83863 L 492.98635,815.34748 C 518.86753,813.31437 535.24992,804.24858 548.73155,796.43832 C 562.92303,788.21683 574.0661,781.63004 597.60069,780.72161 C 621.13528,781.63004 632.27835,788.21683 646.46983,796.43832 C 655.02584,801.39506 664.83362,806.80938 677.41209,810.68159 L 677.41209,785.87865 C 670.80911,783.11778 664.92745,779.77766 658.50293,776.05572 C 645.03622,768.25401 628.76095,759.3821 603.00331,757.39212 L 603.00331,756.90098 C 601.12288,756.90098 599.39256,757.07826 597.60069,757.14656 C 595.80883,757.07826 594.07849,756.90098 592.19807,756.90098 L 592.19807,757.39212 C 566.44043,759.3821 550.16515,768.25401 536.69845,776.05572 C 522.52269,784.26816 511.27864,791.07853 487.58374,792.018 C 463.88883,791.07853 452.64479,784.26816 438.46903,776.05572 C 425.00233,768.25401 408.72704,759.3821 382.9694,757.39212 L 382.9694,756.90098 C 381.08898,756.90098 379.35865,757.07826 377.56679,757.14656 C 375.77493,757.07826 374.04459,756.90098 372.16416,756.90098 L 372.16416,757.39212 C 346.40652,759.3821 330.13125,768.25401 316.66454,776.05572 C 302.48878,784.26816 291.24473,791.07853 267.54983,792.018 C 243.85493,791.07853 232.61089,784.26816 218.43512,776.05572 C 204.96842,768.25401 188.69314,759.3821 162.9355,757.39212 L 162.9355,756.90098 C 161.05507,756.90098 159.32475,757.07826 157.53288,757.14656 C 155.74102,757.07826 154.01068,756.90098 152.13027,756.90098 z M 152.13027,814.36518 L 152.13027,814.85634 C 126.37262,816.84631 110.09734,825.71823 96.630634,833.51992 C 89.805657,837.47385 83.62357,840.99574 76.493608,843.83401 L 76.493608,868.63694 C 89.677092,864.75004 99.828441,859.02107 108.66374,853.90253 C 122.85522,845.68104 133.99829,839.09425 157.53288,838.18582 C 181.06747,839.09425 192.21054,845.68104 206.40202,853.90253 C 219.88365,861.7128 236.26604,870.77858 262.14721,872.8117 L 262.14721,873.30284 C 264.03707,873.30284 265.74917,873.12713 267.54983,873.05727 C 269.3505,873.12713 271.0626,873.30284 272.95245,873.30284 L 272.95245,872.8117 C 298.83363,870.77858 315.21601,861.7128 328.69765,853.90253 C 342.88913,845.68104 354.03219,839.09425 377.56679,838.18582 C 401.10137,839.09425 412.24445,845.68104 426.43592,853.90253 C 439.91756,861.7128 456.29995,870.77858 482.18112,872.8117 L 482.18112,873.30284 C 484.07098,873.30284 485.78308,873.12713 487.58374,873.05727 C 489.38441,873.12713 491.0965,873.30284 492.98635,873.30284 L 492.98635,872.8117 C 518.86753,870.77858 535.24992,861.7128 548.73155,853.90253 C 562.92303,845.68104 574.0661,839.09425 597.60069,838.18582 C 621.13528,839.09425 632.27835,845.68104 646.46983,853.90253 C 655.02584,858.85926 664.83362,864.2736 677.41209,868.1458 L 677.41209,843.34287 C 670.80911,840.582 664.92745,837.24188 658.50293,833.51992 C 645.03622,825.71823 628.76095,816.84631 603.00331,814.85634 L 603.00331,814.36518 C 601.12288,814.36518 599.39256,814.54247 597.60069,814.61076 C 595.80883,814.54247 594.07849,814.36518 592.19807,814.36518 L 592.19807,814.85634 C 566.44043,816.84631 550.16515,825.71823 536.69845,833.51992 C 522.52269,841.73238 511.27864,848.54275 487.58374,849.48221 C 463.88883,848.54275 452.64479,841.73238 438.46903,833.51992 C 425.00233,825.71823 408.72704,816.84631 382.9694,814.85634 L 382.9694,814.36518 C 381.08898,814.36518 379.35865,814.54247 377.56679,814.61076 C 375.77493,814.54247 374.04459,814.36518 372.16416,814.36518 L 372.16416,814.85634 C 346.40652,816.84631 330.13125,825.71823 316.66454,833.51992 C 302.48878,841.73238 291.24473,848.54275 267.54983,849.48221 C 243.85493,848.54275 232.61089,841.73238 218.43512,833.51992 C 204.96842,825.71823 188.69314,816.84631 162.9355,814.85634 L 162.9355,814.36518 C 161.05507,814.36518 159.32475,814.54247 157.53288,814.61076 C 155.74102,814.54247 154.01068,814.36518 152.13027,814.36518 z " id="path5726"/>
    <path sodipodi:type="arc" style="opacity:1;fill:url(#radialGradient3667);fill-opacity:1;fill-rule:nonzero;stroke:#b00;stroke-width:0;stroke-linecap:round;stroke-linejoin:round;stroke-miterlimit:4;stroke-dasharray:none;stroke-opacity:1" id="path2774" sodipodi:cx="-749" sodipodi:cy="357.36218" sodipodi:rx="145" sodipodi:ry="145" d="M -604.00425,358.47251 A 145,145 0 1 1 -604.00403,358.44307 L -749,357.36218 z" sodipodi:start="0.0076575003" sodipodi:end="6.2906398" transform="matrix(1.041528,-0.461565,0.605441,1.607192,827.745,-619.6998)"/>
  </g>
</svg>