<svg version="1.2" xmlns="http://www.w3.org/2000/svg" viewBox="0 0 1146 1104" width="1146" height="1104">
	<title>Oryahovo-pdf</title>
	<style>
		.s0 { fill: #fff200;stroke: #231f20;stroke-width: 4 } 
		.s1 { fill: #ed1d29;stroke: #231f20;stroke-width: 4 } 
		.s2 { fill: #fff200 } 
		.s3 { fill: none;stroke: #231f20;stroke-width: 4 } 
		.s4 { fill: #231f20 } 
		.s5 { fill: #378bd0 } 
		.s6 { fill: #fff200;stroke: #231f20;stroke-width: 2.2 } 
		.s7 { fill: #756d91 } 
		.s8 { fill: #231f20;stroke: #231f20;stroke-width: 4 } 
		.s9 { fill: none;stroke: #231f20;stroke-width: 12 } 
	</style>
	<path id="Path 1" class="s0" d="m158.1 868l127.1-49.2 8.5 18.2 14.9 18.9 70.7 71.4 137.2 57.3-80.7 115.7c-57-18.5-108.9-44.5-151.7-78.7-50.9-40.7-88.6-95-126-153.6z"/>
	<path id="Path 2" class="s1" d="m443.7 1090.6l-27-9.2-5.1-2-5-2-5.1-2-5-2.1-4.9-2.1-4.9-2.2-4.9-2.2-4.9-2.2-4.8-2.3-4.7-2.4-4.8-2.3-4.6-2.5-4.7-2.4-4.6-2.5-4.5-2.6-4.5-2.6-4.5-2.6-4.4-2.7-4.4-2.7-4.3-2.7-4.3-2.8-4.2-2.9-4.2-2.9-4.1-2.9-4.1-3-4-3-4-3-3.9-3.2-3.9-3.1-3.8-3.2-4.4-3.8-4.4-3.9-4.3-4-4.3-4.1-4.1-4.1-4.2-4.2-4-4.3-4-4.4-4-4.4-3.9-4.5-3.8-4.5-3.8-4.6-3.8-4.7-3.7-4.7-3.7-4.8-3.6-4.9-3.6-4.9-3.6-5-3.5-5-3.5-5-3.5-5.2-3.4-5.1-3.4-5.2-3.4-5.3-3.4-5.3-3.4-5.3-3.4-5.4-3.3-5.4-3.3-5.5-2-3.2 103.6-40.9 2.8 13.5 15.6 21.1 70.8 75.8 140.1 68.7z"/>
	<path id="Path 3" class="s2" d="m988.4 865.2c-37.3 58.6-75 112.9-126 153.6-42.8 34.2-94.7 60.2-151.7 78.7l-80.6-115.7 137.2-57.3 70.7-71.4 14.8-18.9 8.6-18.2 127 49.2z"/>
	<path id="Path 4" class="s3" d="m862.4 1018.8c-42.8 34.2-94.7 60.2-151.7 78.7l-80.6-115.7 137.2-57.3 70.7-71.4 14.8-18.9 8.6-18.2 127 49.2c-37.3 58.6-75 112.9-126 153.6z"/>
	<path id="Path 5" class="s1" d="m642.8 999l140.1-68.7 70.8-75.8 15.6-21.1 2.7-13.5 103.7 40.9-2 3.3-3.3 5.4-3.4 5.4-3.3 5.4-3.4 5.3-3.4 5.3-3.4 5.3-3.4 5.2-3.5 5.2-3.5 5.1-3.5 5-3.5 5.1-3.6 4.9-3.5 4.9-3.7 4.9-3.7 4.8-3.7 4.7-3.7 4.7-3.8 4.6-3.9 4.5-3.9 4.5-3.9 4.4-4 4.4-4.1 4.3-4.1 4.2-4.2 4.1-4.2 4.1-4.3 4-4.4 3.9-4.5 3.8-3.8 3.2-3.8 3.2-4 3.1-3.9 3-4.1 3-4 3-4.2 2.9-4.1 2.9-4.3 2.9-4.2 2.8-4.4 2.7-4.3 2.8-4.5 2.6-4.4 2.7-4.5 2.6-4.6 2.5-4.6 2.5-4.6 2.5-4.7 2.4-4.7 2.4-4.8 2.3-4.8 2.3-4.8 2.2-4.9 2.3-4.9 2.1-5 2.1-5 2.1-5 2.1-5.1 2-5.1 1.9-26.9 9.2z"/>
	<path id="Path 6" class="s0" d="m348.8 768.9c44.6 63.5 122.5 143.3 233.6 143.1 108.8-0.1 177.8-83.1 220-135.7 16.7 18.1 33.3 36.2 50 54.4 16.6 18.1 33.2 36.2 49.8 54.3-62.2 72.1-164.8 171.1-312.5 173-150.4 1.9-259.9-97.9-329.5-173q22.1-29 44.2-58c14.8-19.4 29.6-38.7 44.4-58.1z"/>
	<path id="Path 7" class="s1" d="m808.9 800.9l1.6 1.7 1.5 1.7 1.6 1.7 1.6 1.7 1.5 1.7 1.6 1.7 1.5 1.7 3.2 3.4 1.5 1.7 1.6 1.7 3.1 3.4 1.6 1.7 1.5 1.7 3.1 3.4 1.6 1.7 1.6 1.7 1.5 1.7 1.6 1.7 1.5 1.7 1.6 1.7 3.1 3.4 1.6 1.7 1.5 1.7 1.6 1.7 1.5 1.7 1.6 1.7 1.6 1.7 1.5 1.7 1.6 1.7 1.5 1.7 1.6 1.7 1.5 1.7 1.6 1.7 1.6 1.7 1.5 1.7 3.1 3.4 1.6 1.7 1.5 1.7 3.2 3.4 1.5 1.7 1.6 1.7 1.5 1.7 1.6 1.7 0.1 0.1-4.6 5.1-6.3 7-6.6 7-6.8 7.1-7 7.2-7.2 7.1-7.5 7.2-7.7 7.1-7.9 7.1-8.2 7-8.4 6.9-8.7 6.7-8.8 6.7-9.1 6.5-9.4 6.2-9.5 6.1-9.8 5.9-10 5.6-10.3 5.3-10.5 5.1-10.7 4.7-11 4.4-11.2 4-11.4 3.7-11.7 3.3-12 2.8-12.1 2.4-12.5 2-12.6 1.4-13 1-13.2 0.4-13.4-0.1-13.2-0.6-13-1.2-12.8-1.7-12.5-2.2-12.3-2.6-12.1-3.1-11.8-3.5-11.6-3.9-11.5-4.3-11.2-4.7-11-4.9-10.7-5.3-10.6-5.6-10.3-5.9-10.1-6.1-9.9-6.3-9.7-6.5-9.5-6.7-9.2-6.9-9-7-8.8-7.2-8.6-7.2-8.3-7.3-8.2-7.3-7.9-7.4-7.7-7.3-7.4-7.4-7.3-7.3-7-7.2-6-6.4 1.7-2.3 1.4-1.9 1.4-1.8 1.4-1.8 1.4-1.8 2.7-3.6 1.4-1.8 1.4-1.8 1.4-1.8 1.5-2.1 2.6-3.4 1.4-1.8 2.3-3.1 1.8-2.3 1.7-2.3 2.5-3.2 1.4-1.8 1.4-1.8 1.3-1.8 2.8-3.7 4.2-5.4 1.3-1.8 1.4-1.8 4.2-5.5 1.4-1.8 1.4-1.8 1.3-1.8 1.4-1.8 2.2-2.9 2-2.6 1.3-1.8 2.8-3.6 1.4-1.8 1.4-1.8 2.8-3.7 1.4-1.8 2.5-3.3 2.4-3.1 3.6 4.7 5 6.4 5.2 6.3 5.4 6.4 5.6 6.4 5.8 6.4 6.1 6.3 6.2 6.3 6.4 6.2 6.7 6 6.9 6 7 5.9 7.3 5.7 7.5 5.5 7.7 5.4 8 5.1 8.1 4.9 8.4 4.7 8.5 4.4 8.8 4.1 9.1 3.9 9.2 3.5 9.4 3.1 9.7 2.8 9.8 2.5 10.1 2 10.3 1.6 10.5 1.2 10.7 0.7 10.9 0.2 10.6-0.3 10.5-0.7 10.2-1.3 10-1.6 9.8-2.1 9.5-2.6 9.2-2.9 9.1-3.2 8.7-3.6 8.6-3.9 8.3-4.2 8.1-4.4 7.8-4.7 7.6-4.9 7.4-5.1 7.2-5.3 7-5.4 6.7-5.5 6.5-5.7 6.3-5.7 6.2-5.8 5.9-5.9 5.7-5.8 5.5-5.8 5.3-5.9 5.2-5.7 4.9-5.8 4.8-5.6 4.6-5.5 3.4-4.1 0.9 1 1.6 1.7 1.6 1.7z"/>
	<path id="Path 8" class="s0" d="m573.3 301l-222.1-0.9c0-126.6 99.8-228.9 222.1-228.9 122.3-0.1 222.1 103.2 222.1 229.8z"/>
	<path id="Path 9" class="s1" d="m374.5 274.4l2.3-11.2 2.7-11 3.2-10.7 3.7-10.5 4.1-10.3 4.5-9.9 4.9-9.7 5.3-9.3 5.7-9.1 6.1-8.7 6.4-8.4 6.7-8 7.1-7.6 7.4-7.3 7.6-6.8 8-6.4 8.2-6 8.5-5.5 8.8-5.1 8.9-4.6 9.2-4.1 9.4-3.6 9.6-3.1 9.8-2.6 9.9-2 10.1-1.4 10.3-0.9 10.4-0.3 10.4 0.3 10.3 0.9 10 1.5 10 2 9.8 2.6 9.5 3.1 9.4 3.6 9.2 4.1 9 4.7 8.7 5.1 8.5 5.5 8.3 6.1 7.9 6.4 7.7 6.9 7.4 7.3 7.1 7.7 6.7 8 6.4 8.4 6.1 8.8 5.7 9.1 5.3 9.4 4.9 9.7 4.5 10 4.1 10.3 3.7 10.5 3.2 10.8 2.7 11 2.3 11.2 1.8 11.4 1.3 11.6 0.2 2.7h-202.1l-202.1-0.9 0.2-2.7 1.3-11.6z"/>
	<path id="Path 10" class="s0" d="m309.3 283c14.7-6.9 22.6-12.5 38.9-12.5 9.7 0 19.4 3.1 19.4 12.5 0 9.3-9.7 12.4-19.4 12.4-16.1 0-24.2-6.6-38.9-12.4z"/>
	<path id="Path 11" class="s0" d="m353.6 300.2v-34.9h40.4c0.8 5.5 7.5 6.6 16.1 6.6 12.1 0 24.2-1.7 36.4-2.9 33.7-3.3 68.1-5 104.3 4.7 1.9 0.5 4.1 0.8 6.4 0.8v16.5c-2.3 0-4.5 0.3-6.4 0.8-36.2 9.7-70.6 8.4-104.3 5-12.2-1.2-24.3-3.3-36.4-3.3-8.6 0-15.3 1.2-16.1 6.7z"/>
	<path id="Path 12" class="s0" d="m285.7 282.2c0-6.9 6.4-12.5 14.3-12.5 8 0 14.4 5.6 14.4 12.5 0 6.8-6.4 12.4-14.4 12.4-7.9 0-14.3-5.6-14.3-12.4z"/>
	<path id="Path 13" class="s0" d="m798.4 295.4c-9.7 0-19.4-3.1-19.4-12.4 0-9.3 9.7-12.4 19.4-12.4 16.2 0 24.2 5.6 38.8 12.4-14.6 5.9-22.7 12.4-38.8 12.4z"/>
	<path id="Path 14" class="s0" d="m752.6 300.3c-0.9-5.5-7.6-6.8-16.2-6.8-12 0-24.1 2.2-36.3 3.4-33.7 3.3-68.1 4.6-104.3-5-2-0.6-4.2-0.9-6.4-0.9v-16.4c2.2 0 4.4-0.3 6.4-0.8 36.2-9.7 70.6-8 104.3-4.7 12.2 1.2 24.3 2.9 36.3 2.9 8.6 0 15.3-1.1 16.2-6.6h40.4v34.9z"/>
	<path id="Path 15" class="s2" d="m846.5 294.7c-7.9 0-14.3-5.6-14.3-12.4 0-6.9 6.4-12.5 14.3-12.5 7.9 0 14.4 5.6 14.4 12.5 0 6.8-6.5 12.4-14.4 12.4z"/>
	<path id="Path 16" class="s3" d="m846.5 294.7c-7.9 0-14.3-5.6-14.3-12.4 0-6.9 6.4-12.5 14.3-12.5 7.9 0 14.4 5.6 14.4 12.5 0 6.8-6.5 12.4-14.4 12.4z"/>
	<path id="Path 17" class="s2" d="m804.8 167.3c-10 12.2-14 21.8-28.1 29.5-8.5 4.7-18.5 6.6-23-1.5-4.5-8.2 2.5-15.6 11-20.2 14.3-7.8 23.9-6.7 40.1-7.8z"/>
	<path id="Path 18" class="s3" d="m776.7 196.8c-8.5 4.7-18.5 6.6-23-1.5-4.5-8.2 2.5-15.6 11-20.2 14.3-7.8 23.9-6.7 40.1-7.8-10 12.2-14 21.8-28.1 29.5z"/>
	<path id="Path 19" class="s0" d="m738.8 223.1c-3.4-4.4-9.8-2.3-17.3 1.9-10.6 5.8-20.2 13.5-30.3 20.4-27.9 19.1-57.5 36.8-93.9 45.7-1.9 0.5-4 1.3-6 2.4l-7.9-14.4c2-1.1 3.8-2.4 5.2-3.8 27.1-25.9 58.1-41 89.3-54.3 11.2-4.8 22.6-9.2 33.2-15 7.5-4.1 12.9-8.3 10.9-13.5l35.5-19.4 16.8 30.6z"/>
	<path id="Path 20" class="s0" d="m818.5 173.1c-6.9 3.8-15.2 2-18.5-4.1-3.4-6-0.4-14 6.6-17.8 6.9-3.8 15.2-2 18.5 4 3.3 6 0.4 14-6.6 17.9z"/>
	<path id="Path 21" class="s0" d="m341.8 166.5c16.2 1 25.8-0.1 40 7.8 8.6 4.6 15.6 12 11.1 20.2-4.5 8.1-14.5 6.2-23 1.5-14.1-7.8-18.1-17.4-28.1-29.5z"/>
	<path id="Path 22" class="s0" d="m372.3 202.9l16.8-30.7 35.5 19.5c-2 5.2 3.4 9.4 10.9 13.5 10.6 5.8 22 10.2 33.2 15 31.2 13.3 62.2 28.3 89.2 54.3 1.5 1.4 3.3 2.7 5.3 3.8l-7.9 14.4c-2-1.1-4.1-1.9-6.1-2.4-36.4-8.9-65.9-26.6-93.8-45.7-10.2-6.9-19.7-14.7-30.3-20.5-7.5-4.1-14-6.2-17.3-1.8z"/>
	<path id="Path 23" class="s0" d="m321.4 154.4c3.3-6 11.7-7.8 18.6-4 7 3.8 9.9 11.8 6.6 17.8-3.3 6-11.6 7.8-18.6 4-6.9-3.8-9.9-11.8-6.6-17.8z"/>
	<path id="Path 24" class="s0" d="m696.5 103.7c-4.8 8.5-12.3 15.4-20.4 10.9-8.1-4.6-6-14.6-1.2-23.1 8-14.1 16.7-18.3 29.9-27.7-2.1 15.6-0.4 25.9-8.3 39.9z"/>
	<path id="Path 25" class="s0" d="m678.2 146c-5.2-2-9.6 3.3-13.8 10.7-5.9 10.5-10 22.1-14.9 33.4-13.7 30.9-29.5 61.5-55.7 88.3-1.4 1.5-2.8 3.2-3.9 5.2l-14.3-8.1c1.1-2 1.9-4 2.4-6 9.4-36.3 27.8-65.4 47.2-93.1 7.1-10 14.5-19.8 20.4-30.3 4.2-7.4 6.6-13.8 2.2-17.2l19.8-35.2 30.4 17.1z"/>
	<path id="Path 26" class="s0" d="m719.5 61.5c-3.9 6.9-11.9 9.7-17.9 6.3-6-3.3-7.7-11.7-3.8-18.6 3.9-6.9 12-9.7 17.9-6.4 6 3.4 7.7 11.8 3.8 18.7z"/>
	<path id="Path 27" class="s0" d="m442.6 63.5c13.1 9.5 21.9 13.6 29.9 27.8 4.8 8.4 6.8 18.4-1.3 23-8.1 4.6-15.5-2.4-20.3-10.8-7.9-14.1-6.3-24.3-8.3-40z"/>
	<path id="Path 28" class="s0" d="m449.3 110.6l30.4-17.2 19.9 35.2c-4.4 3.4-2.1 9.8 2.2 17.3 5.9 10.5 13.3 20.2 20.3 30.2 19.5 27.7 37.9 56.9 47.2 93.2 0.5 1.9 1.3 4 2.5 6l-14.4 8.1c-1.1-2-2.4-3.8-3.8-5.2-26.3-26.8-42.1-57.4-55.7-88.4-5-11.2-9-22.8-14.9-33.3-4.2-7.5-8.6-12.7-13.8-10.7z"/>
	<path id="Path 29" class="s0" d="m431.6 42.6c6-3.4 14-0.5 17.9 6.4 3.9 6.9 2.2 15.2-3.7 18.6-6 3.4-14.1 0.5-18-6.4-3.8-6.9-2.2-15.3 3.8-18.6z"/>
	<path id="Path 30" class="s2" d="m573.1 27.6c6.8 14.6 12.4 22.6 12.4 38.8 0 9.7-3.1 19.4-12.4 19.4-9.3 0-12.4-9.7-12.4-19.4 0-16.1 6.5-24.2 12.4-38.8z"/>
	<path id="Path 31" class="s3" d="m573.1 27.6c6.8 14.6 12.4 22.6 12.4 38.8 0 9.7-3.1 19.4-12.4 19.4-9.3 0-12.4-9.7-12.4-19.4 0-16.1 6.5-24.2 12.4-38.8z"/>
	<path id="Path 32" class="s2" d="m555.9 71.8h34.9v40.4c-5.5 0.9-6.6 7.6-6.6 16.1 0 12.1 1.6 24.2 2.8 36.4 3.3 33.7 5 68.1-4.7 104.3-0.5 2-0.8 4.1-0.8 6.4h-16.4c0-2.3-0.3-4.4-0.8-6.4-9.7-36.2-8.4-70.6-5.1-104.3 1.2-12.2 3.4-24.3 3.4-36.4 0-8.5-1.2-15.2-6.7-16.1z"/>
	<path id="Path 33" class="s3" d="m555.9 71.8h34.9v40.4c-5.5 0.9-6.6 7.6-6.6 16.1 0 12.1 1.6 24.2 2.8 36.4 3.3 33.7 5 68.1-4.7 104.3-0.5 2-0.8 4.1-0.8 6.4h-16.4c0-2.3-0.3-4.4-0.8-6.4-9.7-36.2-8.4-70.6-5.1-104.3 1.2-12.2 3.4-24.3 3.4-36.4 0-8.5-1.2-15.2-6.7-16.1z"/>
	<path id="Path 34" class="s2" d="m573.9 3.9c6.8 0 12.4 6.5 12.4 14.4 0 7.9-5.6 14.3-12.4 14.3-6.9 0-12.5-6.4-12.5-14.3 0-7.9 5.6-14.4 12.5-14.4z"/>
	<path id="Path 35" class="s3" d="m573.9 3.9c6.8 0 12.4 6.5 12.4 14.4 0 7.9-5.6 14.3-12.4 14.3-6.9 0-12.5-6.4-12.5-14.3 0-7.9 5.6-14.4 12.5-14.4z"/>
	<path id="Path 36" class="s4" d="m573.3 301h-39.6c0-21.8 17.8-39.5 39.6-39.5 21.8 0 39.6 17.8 39.6 39.5z"/>
	<path id="Path 37" class="s3" d="m573.3 301h-39.6c0-21.8 17.8-39.5 39.6-39.5 21.8 0 39.6 17.8 39.6 39.5z"/>
	<path id="Path 38" class="s0" d="m455.9 311.9l5.3-1.4 3.4-1 3.5-0.9 3.5-0.9 3.5-0.9 3.5-0.9 3.5-0.9 3.5-0.9 3.5-0.9 3.6-0.9 3.5-0.9 3.6-0.8 3.5-0.8 3.6-0.9 3.6-0.8 3.6-0.7 3.7-0.8 3.6-0.7 3.6-0.6 3.7-0.7 3.6-0.6 3.7-0.5 3.7-0.5 3.7-0.5 3.7-0.4 3.7-0.4 3.7-0.3 3.8-0.3 3.7-0.2 3.8-0.2 3.7-0.1h3.8 3.6l3.6 0.1 3.7 0.2 3.6 0.2 3.7 0.2 3.7 0.4 3.7 0.3 3.7 0.4 3.7 0.5 3.7 0.5 3.7 0.6 3.8 0.5 3.7 0.7 3.7 0.6 3.7 0.7 3.7 0.7 3.7 0.7 3.6 0.8 3.7 0.8 3.6 0.8 3.7 0.8 3.6 0.8 3.5 0.9 3.6 0.8 3.5 0.9 3.5 0.9 3.4 0.9 3.4 0.8 3.4 0.9 3.4 0.9 3.3 0.9 4.3 1.1 4.4 2 3.9 4.1 2.2 4.4 0.9 3.9 0.4 3.5v3.3l-0.3 3.2-0.3 3.3-0.5 3.3-0.6 3.3-0.6 3.4-0.6 3.5-0.6 3.6-0.6 3.5-0.6 3.6-0.5 3.5-0.3 3.5-0.3 3.4-0.1 3.3v3.1l0.2 2.9 0.3 2.7 0.5 2.4 0.6 2.2 0.8 1.9 0.8 1.6 1 1.3 1.2 1.3 1.4 1.1 1.7 1 2.2 1 12.5 3.7v180.5l-0.3 5.5-0.8 5.8-1.2 5.8-1.8 5.6-2.1 5.5-2.4 5.5-2.8 5.5-3.1 5.3-3.4 5.3-3.6 5.3-3.9 5.2-4.1 5.1-4.3 5.1-4.4 5.1-4.6 5.1-4.7 5-4.9 4.9-4.9 4.9-5 4.9-5.1 4.8-5.1 4.8-5.2 4.8-5.1 4.6-5.1 4.7-5.1 4.5-5 4.5-4.9 4.4-4.8 4.4-4.7 4.3-4.6 4.2-4.4 4.1-4.1 3.9-0.4 0.4-0.3 0.3-0.3 0.3-0.2 0.3-0.1 0.2-0.2 0.3-0.1 0.2-0.1 0.3-0.1 0.2-0.2 0.3-0.1 0.3-0.1 0.4-0.1 0.4-0.1 0.5-0.2 0.5-0.1 0.6-0.2 0.7-0.1 0.7-0.2 0.8-0.2 0.8-0.3 1-0.2 0.9-0.4 1.1-0.4 1.1-0.4 1.1-0.5 1.2-0.6 1.2-0.7 1.2-0.7 1.2-0.9 1.2-0.9 1.2-10.6 12.2-10.3-12.3-0.9-1.2-0.9-1.3-0.7-1.2-0.7-1.2-0.5-1.2-0.5-1.2-0.4-1.2-0.4-1.1-0.3-1-0.3-1-0.2-0.9-0.2-0.9-0.2-0.7-0.1-0.8-0.1-0.6-0.2-0.6-0.1-0.5-0.1-0.5-0.1-0.4-0.2-0.4-0.1-0.3-0.1-0.3-0.1-0.3-0.1-0.2-0.1-0.2-0.2-0.2-0.1-0.3-0.2-0.2-0.2-0.3-0.3-0.3-0.4-0.4-4.1-4-4.4-4.1-4.5-4.2-4.7-4.2-4.8-4.4-4.9-4.4-5-4.5-5.1-4.5-5.1-4.6-5.1-4.7-5.2-4.7-5.1-4.8-5.1-4.8-5-4.8-5-4.9-4.8-4.9-4.8-5-4.6-5-4.5-5.1-4.3-5-4.1-5.2-3.9-5.1-3.6-5.2-3.4-5.3-3.2-5.3-2.8-5.4-2.5-5.4-2.1-5.5-1.7-5.6-1.3-5.7-0.9-5.8-0.2-5.5v-179.7l11.5-4.2 2.1-1.1 1.7-1.1 1.5-1.3 1.3-1.5 1.2-1.6 1-1.9 0.9-2.2 0.8-2.4 0.6-2.6 0.5-2.8 0.4-3.1 0.1-3.2 0.1-3.3-0.1-3.4-0.2-3.4-0.2-3.5-0.4-3.5-0.5-3.5-0.4-3.4-0.5-3.3-0.5-3.2-0.5-3.1-0.5-3-0.4-2.9-0.4-2.8-0.2-2.7-0.1-2.8 0.2-3.1 0.9-4 2.9-5.3z"/>
	<path id="Path 39" class="s5" d="m461 327.1c36.7-9.7 74.4-20.4 112.3-20.4 35.9 0 77.6 10.5 111.8 19.7 14.8 3.9-26 77.9 20.8 89.2v170.7c0 49.6-76.8 106.3-121.7 149.7-8.3 8-4.5 15.6-10.9 22.5-6.3-7-2.3-14.6-10.6-22.6-44.6-43.5-122-99.8-122-148.9v-170.5c43.7-13.3 12-87.2 20.3-89.4z"/>
	<path id="Path 40" class="s3" d="m461 327.1c36.7-9.7 74.4-20.4 112.3-20.4 35.9 0 77.6 10.5 111.8 19.7 14.8 3.9-26 77.9 20.8 89.2v170.7c0 49.6-76.8 106.3-121.7 149.7-8.3 8-4.5 15.6-10.9 22.5-6.3-7-2.3-14.6-10.6-22.6-44.6-43.5-122-99.8-122-148.9v-170.5c43.7-13.3 12-87.2 20.3-89.4z"/>
	<path id="Path 41" class="s6" d="m492.1 386.6l14.8-17.4 12.3 2.9 6.8-14.8 17.2 0.4 1.2 22.3-1.3 4.2 1.2 1.4-0.5 2.7 1.2 1.2-3.4 3 1.2 3.7-0.7 4.4-0.7 4.3 1.3 6 1.8 3.5-1.1 8.4 0.8 10.2 2.1 3.3v4.9l2.6 2.2 1.5 7-2.9 1.4-0.9 3.3 0.6 2.7 0.2 3.9 2.1 3.1 2.2 1.5c18.6-16.3 41.2-14.2 62.3-3.9l4.7-1.7c-12.4-8.5-25.4-20.3-40.3-20.6-5.8-0.3-12.4 0.1-18.8 4.9l-2.7 3.3-2.9-9.1 7.6-1.4 3.9-1.3c0.5-1 0.8-2.1 1.3-3.2l-0.8-2.7-2.8-4.9-3.6-2.5-2.7-3 2.2-1.2 0.7-4.5 3.9-0.2 2.6-2.7-2.5-3-0.6-12.4 3-2.6-2.7-8.4 1.5-2.5 19.1-2.6 4.4-7.9 12.9 0.5 9.5 9 17.8 4.4-1.4 19.6h8.8l2.5-10.7 18-3.5-0.9 30.7 14.1 3.9 0.6 76.6-15.9 16-3.7 75.6 11.9 4.3-1.8 40.9-160.7 0.6c6.5-33.4 3.5-63 1.5-97.1-3.2-6.2-5.3-7.7-11.1-11.1z"/>
	<path id="Path 42" class="s5" d="m546.9 486.3l4.4-6.6 7-4.3 9.2-3 12.1-1 15.4 1.5 10 3.2 6.1 2.6 1.7 5.3 3.2 0.7 0.2 3.8 0.1 8.2-2.9 4.8-0.3 13.3-6.4-1c-3.9-0.6-6.4-1-10.3-0.3-1.8 3.8-1.5 3.8-0.1 7.9 0.4 3.9 1 4-1.8 5.9l-4.4 1.7c-3.2 0.5-3.8 1.4-6.1 4-2.1 3.7-2.3 3.3-6 3.3-5.7 4.1-1.8 2.9 3 3.7l0.9 2.7 7-0.5c3.1 1.7 2.6 1.9 2.8 5.8l-1.8 15.7c7.6-0.9 14.1-1.1 21.6-0.5l3.3 4.9-2.3 1.7 0.6 4.5c-7.7-0.7-14.9-0.7-22.6-0.2l-4.2 0.9h-14l-7.7-1.4-8.9 1.7c-6.8-3.4-6.4-5.8-4.3-13.1l2.3-3.7 1.2-6.4-0.1-10.6-1.6-4.4-1.6-3 2.3-1.1 4-2.3 0.8-4-3.7-1.1c-2.5-4.9 0.7-6 4-8.2l-2.3-7 1.1-3.2-0.8-4.1h-3.9l-6.2 1.8-1.5-3.3-1-3.6 1.2-3-0.1-3.6z"/>
	<path id="Path 43" class="s7" d="m654.6 485.7h5.3c4.7 4.6 4.4 5.1 4.2 11.7l-1.4 6.4-4.9 2.7-7.1-1.5-1.5-2.9-0.6-6.7c1.1-6.2 0.4-7.1 6-9.7zm-69.5 98l1.7-1.1 2.3 0.1 0.7 1 4.5 0.1 0.6-1.3 2.7 1.2 4.6 0.4-1.4 2.5 0.2 2.5 1.1 1.5-0.1 4.9-2.5 0.1-1.3 1.5-2-1.1-1.9 1.1-3.7 0.2-0.8-2-4.9 1.2c-1.7-5.5-2.1-7.6 0.2-12.8zm-36.3 10.7l3.9 1 0.7-1.7 2.9 0.2 1.5 0.9 1.6-0.9 1 1.1 1.9 0.3 0.3 3.9-1 1.4-0.1 2 1.1 2-3.6 0.4-2.3 1-0.4-1.1-3.6 0.1-0.5 0.9h-1.9l-1.3-0.9c-1.7-4.3-1.6-6.1-0.2-10.6zm77.8 4.4l0.2-1.3c1.7-1.5 2.3-1.6 4.6-1.9l3.6 0.3v-1.8h1.6l0.2-1.7h2.9l0.1 3c2.2 0.5 4.1 0.5 2.5 3.4l-1.2 0.6-0.6 1.6-0.1 2.8h1.5l0.1 2.3-2 0.7-0.4 3.8c2.1 0.8 3.9 2 0.9 2.9l0.4 2.1 1.4 1.7 1 1.1-0.8 1.7-1.6 0.6 0.2 3.2-6.2 0.2-0.6-2.9-1.7 0.3-0.5 1.2-2.5-0.1c-1.6-1.6-1.8 0.4-2.4-1.9h-1.2v-2.8l0.8-0.6 0.6-0.8-0.4-1.7h2.7l0.1-2.8-1.1-0.1v-2.8l-1.3-0.4-1.1-0.5 0.1-1.6-1.9-0.1-0.1-2.3-0.9-0.9 0.6-4.4z"/>
	<path id="Path 44" class="s0" d="m105 314.5c41.2 40.1-0.7 101.5-22.3 140-18.9 36-67.7 101.4-41.8 144.1 7.2 11.9 26.4 18.8 39 22.5l18.7 5.5-16.3 14.1-9.5 0.5c-40.3-1.6-60.4-27.4-63.7-59.9-1.1-10.8 0.1-24.1 2.5-35.2 10.8-49.7 49.5-86.7 71.6-131.1 9.7-20.9 23.5-43.7 21.3-66.3-1-10.6-5.8-19.5-12.7-24.2-7.3-4.9-18-4.8-22.6 0.4-4.8 5.3-2.5 10.6 1.3 13.6 4.1 3.2 10.1 3.9 13.8 4.7 6.4 7.7 7.2 15.8 3.2 20-3.2 3.5-10.2 3.9-17.3 1.9-11.1-11-23.3-22.8-20.1-39.2-2.2 6.9-0.4 13.4 2.3 18.9 4 8.1 11.2 14.3 17.2 20.7 1.8 9.2 1.1 20.4-5 25.5-3 2.5-7.5 2.8-13.3 2.2-13.1-15.6-31.5-35.4-27.4-57.3-3.3 24.5 13.7 41.4 27.5 59 1.6 4.8 3 11.8 0.6 19-3.3 10.3-12.2 20.1-22 16.5-4-5.4-2.9-12.7-3.3-19.3-6.2-15.6-16-22.9-19.8-37.3-5.3-20.1-5.2-35.8 3.9-48.6 8.4-12 21.4-22.8 35.6-26.9 12.5-3.7 24.7-2.4 35.6 2.4 8.1 3.5 16.2 8.1 23 13.8z"/>
	<path id="Path 45" class="s0" d="m315.1 414.2c28.9-11.8 56.9-20.4 75.1-39.2 6.5 5.6 10.5 8.8 19.6 12.5 10.4 1.9 14.7 3.3 23.1 7.5 3 21.9-29.4 43.3-54.2 56.8-8.1 4.5-13 8.4-19 14-13.7-17.9-25.1-35.6-44.6-51.6z"/>
	<path id="Path 46" class="s0" d="m434.4 420.2c10 1.5 17.1 5 24.7 11.8-9.3-1-17.5-2.6-26.9-0.3l1.2-3.7z"/>
	<path id="Path 47" class="s0" d="m424.1 412.6c6 0 11 5.1 11 11.4 0 6.4-5 11.5-11 11.5-6.1 0-11-5.1-11-11.5 0-6.3 4.9-11.4 11-11.4z"/>
	<path id="Path 48" class="s0" d="m428.5 364.5c3.6-9.4 8.5-15.6 16.8-21.7-2.9 8.9-6.2 16.6-6 26.3l-3.3-2z"/>
	<path id="Path 49" class="s0" d="m418.9 373c1.3-6 7.4-9.7 13.6-8.4 6.2 1.4 10.2 7.3 8.9 13.2-1.3 5.9-7.4 9.6-13.5 8.3-6.2-1.3-10.2-7.2-9-13.1z"/>
	<path id="Path 50" class="s0" d="m404.9 355.8c4.7-8.9 10.4-14.4 19.4-19.4-4.1 8.4-8.3 15.7-9.3 25.3l-3.1-2.3z"/>
	<path id="Path 51" class="s0" d="m394.3 363c2-5.7 8.5-8.6 14.4-6.5 6 2.1 9.2 8.4 7.2 14.1-2 5.8-8.5 8.7-14.5 6.6-5.9-2.1-9.2-8.5-7.1-14.2z"/>
	<path id="Path 52" class="s0" d="m379.4 350.3c4.7-9 10.4-14.5 19.4-19.4-4.1 8.4-8.3 15.6-9.3 25.3l-3.1-2.4z"/>
	<path id="Path 53" class="s0" d="m368.8 357.4c2-5.7 8.5-8.6 14.4-6.5 6 2.1 9.2 8.5 7.2 14.2-2 5.7-8.5 8.6-14.5 6.5-5.9-2.1-9.1-8.5-7.1-14.2z"/>
	<path id="Path 54" class="s0" d="m340 532c7.4 19.4 13.9 39.3 22.5 58.3l23.4 0.9 2.1 46.2c-27.5 3.5-45.3 3.4-60.1-5.8-22-13.9-37.5-42.7-48-66.1 2.2-3.2 7.4-7.1 9.7-10.3 4-3.6 0.2-6.2 3.4-7.9 6.7-3.5 13.2-2.4 21.8-4.6 8-2.1 18-7.5 25.2-10.7z"/>
	<path id="Path 55" class="s0" d="m396 574.5c10 1.6 17 5.2 24.6 12.2-9.3-1.2-17.5-2.9-26.9-0.7l1.2-3.7z"/>
	<path id="Path 56" class="s0" d="m385.8 566.7c6.1 0.1 10.9 5.3 10.9 11.7-0.1 6.3-5.1 11.4-11.2 11.3-6-0.1-10.9-5.3-10.8-11.7 0.1-6.3 5.1-11.4 11.1-11.3z"/>
	<path id="Path 57" class="s0" d="m394 598.4c10 1.7 17 5.3 24.6 12.2-9.2-1.2-17.5-2.8-26.9-0.7l1.2-3.6z"/>
	<path id="Path 58" class="s0" d="m383.9 590.7c6 0.1 10.9 5.3 10.8 11.6-0.1 6.3-5.1 11.4-11.2 11.3-6-0.1-10.9-5.3-10.8-11.6 0.1-6.3 5.1-11.4 11.2-11.3z"/>
	<path id="Path 59" class="s0" d="m396 627c10 1.7 17.1 5.3 24.6 12.3-9.2-1.2-17.5-2.9-26.9-0.8l1.2-3.6z"/>
	<path id="Path 60" class="s2" d="m385.9 619.3c6 0.1 10.9 5.3 10.8 11.6-0.1 6.3-5.1 11.4-11.2 11.3-6 0-10.9-5.3-10.8-11.6 0.1-6.3 5.1-11.4 11.2-11.3z"/>
	<path id="Path 61" class="s3" d="m385.9 619.3c6 0.1 10.9 5.3 10.8 11.6-0.1 6.3-5.1 11.4-11.2 11.3-6 0-10.9-5.3-10.8-11.6 0.1-6.3 5.1-11.4 11.2-11.3z"/>
	<path id="Path 62" class="s0" d="m332.3 637.6l2.7-2.7c2.4 9.3 7.6 15.9 12.9 23.6-9.7-3.6-16.1-8.2-22.1-16.3z"/>
	<path id="Path 63" class="s0" d="m319.3 621.6c5.6-3 12.4-1.1 15.3 4.3 2.8 5.3 0.5 12.1-5 15.1-5.6 2.9-12.5 1-15.3-4.4-2.9-5.3-0.6-12.1 5-15z"/>
	<path id="Path 64" class="s0" d="m168.5 627.9l16.1-16.5 0.6-6.4 13.8 14.9c13.7 10.3 40.8 16.6 45.9 35.4 5.4 19.5-8 39-5.7 57.9 1.7 13.7 9.1 37.4 24.7 42.5 2.9 0.9 6.7-1.4 9.5 0.5 8.8 6 4.9 11.7 7.1 19.3l-2.2 5.2 1.9 9.9-6 25.4-6.4 4.8c-9.1 0.7-15.3 5.7-20.7 3-4.4-2.2-10.2-17.6-13.1-22.5-13.2-23.8-28.1-44.7-46.2-64.8l5.6-21.9c4.4-21.1-8.3-37.2-30.6-38.8h-16.4l0.3-4.9z"/>
	<path id="Path 65" class="s0" d="m173.9 605.7l20.2 1.1c10.6 17.4-1.3 15.6-8.3 22.7-2.8 2.8-4 6.5-4.2 10.2-0.1 4.8 3.1 9.2 1.1 14.6-2.6 6.9-11.2 13.7-20.5 6.3l-10.9-14.6z"/>
	<path id="Path 66" class="s0" d="m306.4 749.2c9.4 3.8 15.4 8.9 21.3 17.3-8.8-3.2-16.5-6.6-26.1-6.6l2-3.3z"/>
	<path id="Path 67" class="s0" d="m298.2 739.4c5.9 1.4 9.4 7.6 8 13.7-1.5 6.2-7.5 10-13.4 8.6-5.9-1.4-9.5-7.6-8-13.7 1.5-6.2 7.5-10 13.4-8.6z"/>
	<path id="Path 68" class="s0" d="m299.8 771.8c9.3 3.8 15.4 8.9 21.2 17.4-8.7-3.3-16.4-6.7-26.1-6.7l2-3.3z"/>
	<path id="Path 69" class="s0" d="m291.5 762c5.9 1.4 9.5 7.6 8 13.8-1.5 6.1-7.5 10-13.4 8.5-5.8-1.4-9.4-7.6-7.9-13.7 1.4-6.1 7.4-10 13.3-8.6z"/>
	<path id="Path 70" class="s0" d="m291.9 801.6c10.1 1.4 17.2 4.8 25 11.5-9.3-0.9-17.6-2.3-27 0.1l1.2-3.7z"/>
	<path id="Path 71" class="s0" d="m281.5 794.2c6.1-0.1 11.1 5 11.2 11.3 0.1 6.3-4.7 11.6-10.8 11.7-6 0.1-11.1-5-11.2-11.3-0.1-6.4 4.8-11.6 10.8-11.7z"/>
	<path id="Path 72" class="s0" d="m224.9 795l3.8-0.4c-4.1 8.8-4.3 17.2-5.2 26.5-5.1-8.9-7.1-16.6-6.5-26.7z"/>
	<path id="Path 73" class="s0" d="m225.1 774.4c6.2 1.3 10.3 7.2 9 13.1-1.2 5.9-7.3 9.7-13.5 8.4-6.2-1.3-10.2-7.2-9-13.1 1.3-5.9 7.3-9.7 13.5-8.4z"/>
	<path id="Path 74" class="s0" d="m188.4 712.3c7 1.4 11.5 8.1 10.1 14.8-1.4 6.7-8.2 11-15.3 9.5-7-1.5-11.5-8.1-10.1-14.8 1.4-6.7 8.2-11 15.3-9.5z"/>
	<path id="Path 75" class="s0" d="m157.5 547.5l27.2-15.9 63.3-2.7 39.1-12.1 0.8 23.2 3.5 11.1-2.2 18.2c-11.4 38.6-45.9 31.8-76 36.1-33.4 4.8-48.5 23.7-52.5 54.3-2.7 12.9-4.8 28.3-10.4 38.1-10.6 18.7-28.8 29.4-56.1 26.8 18.6 12.5 18.9 30.6 29.1 45l28.9 17.3c-16.4 17.2-33.3 25.5-54.8 31.1-3.6 1-4.9 0.8-6.1 0.4-1.1-0.5-2-1.3-3.5-4.6l-45-96.4 1.8-5.4 10.4-12.2c2.9-7.5 2.5-10.5 6-15.7 0.5-0.8 6.3-4 6.6-4.9 9.1-20.9 7.4-44.8 18.9-62.4 4.2-6.5 12-11.6 20.9-15.5 24.9-10 37.6-22.9 50.1-53.8z"/>
	<path id="Path 76" class="s0" d="m66.3 775.4l3.7-0.9c-3 9.2-2.2 17.6-2 26.9-6.1-8.2-9-15.6-9.6-25.7z"/>
	<path id="Path 77" class="s0" d="m64.1 754.9c6.3 0.5 11 5.9 10.5 11.9-0.6 6-6.1 10.5-12.4 10-6.3-0.6-11-6-10.5-12 0.5-6 6.1-10.5 12.4-9.9z"/>
	<path id="Path 78" class="s0" d="m51.9 683c7.5 0.7 13 7.5 12.4 15.2-0.6 7.7-7.2 13.3-14.6 12.6-7.5-0.7-13-7.5-12.4-15.2 0.6-7.6 7.2-13.3 14.6-12.6z"/>
	<path id="Path 79" class="s0" d="m162.6 752.9c9.9 1.6 17 5.3 24.5 12.2-9.2-1.2-17.5-2.8-26.9-0.7l1.3-3.6z"/>
	<path id="Path 80" class="s0" d="m152.4 745.2c6 0 10.9 5.3 10.8 11.6-0.1 6.3-5.1 11.4-11.1 11.3-6.1-0.1-11-5.3-10.9-11.6 0.1-6.4 5.1-11.4 11.2-11.3z"/>
	<path id="Path 81" class="s0" d="m157.1 780.2c10 1.6 17 5.2 24.6 12.2-9.3-1.2-17.5-2.9-26.9-0.7l1.2-3.7z"/>
	<path id="Path 82" class="s0" d="m147 772.4c6 0.1 10.9 5.3 10.8 11.7-0.1 6.3-5.1 11.4-11.2 11.3-6-0.1-10.9-5.3-10.8-11.6 0.1-6.4 5.1-11.5 11.2-11.4z"/>
	<path id="Path 83" class="s0" d="m151.7 803.2c10 1.6 17 5.2 24.6 12.2-9.3-1.2-17.5-2.9-27-0.7l1.3-3.7z"/>
	<path id="Path 84" class="s0" d="m141.5 795.4c6.1 0.1 10.9 5.4 10.8 11.7-0.1 6.3-5.1 11.4-11.1 11.3-6.1-0.1-10.9-5.3-10.8-11.6 0.1-6.4 5.1-11.5 11.1-11.4z"/>
	<path id="Path 85" class="s0" d="m273.7 351.9l0.8 15.1-10-12.7z"/>
	<path id="Path 86" class="s0" d="m262.5 392.1l1.6-11.1 5.4 10.7z"/>
	<path id="Path 87" class="s0" d="m253.5 378.9c11.6-9.6 20.4-12.4 31.1-11.4 4.9 0.4 7.7 4.1 11.7 3.3 5.1-1 10.5-2.8 15.4-7.3 7.4-6.7 3.9-26 0.6-33.1-1.9-4.2-2.8-4.4-4.7-7.4 8.5-3.2 16.3-1.5 21.7 1.4 18.6 10 17.8 46.9-6.3 61.8-8 4.9-15.1 6-23.2 5-6.8-0.9-12.5-4.9-18.5-7.5-7.8-3.4-14.9-5-24.4 0.2l-5 3.9-3 3-4.6-2.5z"/>
	<path id="Path 88" class="s0" d="m202.8 312.5l38.9 1.5c2.9-0.5 7.7-0.7 10.7-1.6 4.1-1.4 6-3.8 8.2-3.6 4.8 0.3 9.6 9.4 15.4 13.8 1.1 0.9 3.1 1 4.8 1.6 2.1 0.8 2 2.3 3.5 2.8 2.1 0.6 3.1 0 3.8 0.3 2 0.9 5.1 8.7 6.1 10.7-4.2 2.2-7.7 4.4-11.6 7.3 3.9 0.6 7.5 1.2 11.2 2.2-0.3 6.1 0.5 10.5-2.2 12.6-2.2 1.7-4.7 3-7.3 6-2.7-3.9-3.5-7.2-6.1-8.7-9.4-5.5-22.8-2.1-30.7 4.7-19.4 16.6 2 37.9 24.4 25.8 2.4-1.3 4.3-3.6 6.4-5.1 0.7 8.5 0.3 18-0.1 26.5l-45.6-3-21-16.7-19.6-38.1z"/>
	<path id="Path 89" class="s8" d="m248.2 335.5l1.9-3.4c3.8-2.6 5.5-3.9 9.2-4.7 1.4-0.3 3.1 0.2 4.9 0.2 1.5-3.9 4.4-4.7 6.2-3.7 1.5 0.8 2.6 2.7 4.1 3.9-1.3 0.5-1.7 1.1-2.6 1.3-1.5 0.2-3.2-0.4-5.4-0.7l-0.8 2.5c1.4 1 2.5 1.2 3.2 2.2 0.6 0.7 0.8 2.1 1.4 3.3l4 3.4c-0.6 1.8-2.3 1.3-3.2 0.6-1.1-0.8-1.9-2.8-2.2-3.5l-2.5-0.5c-0.6 3.4-1.2 6.7-3.1 7.9-2.2 1.2-5 1.3-8.4 0.6l-4.8-0.5-0.2-3 2.8-0.3 1.1 1.4c4.8 0.5 8.3 1 9.8-1.6 1.1-1.8 1.1-8.8 0.3-9.8-2.4-3.1-10.3 2-12.4 4.3l-2.1 2.6c-2.5 2.5-2.6 4.1-3.4 7.4l-5.2 4-0.4-5.4 3.1-0.8c0.6-3.4 1.8-5.4 4.7-7.7z"/>
	<path id="Path 90" class="s0" d="m182.5 310.4c4.7-1.3 8.1-1.3 10.8-3.1 4.9-3.3 6.9-8.4 10.6-13 15.1-19.3 35.6-7.1 52.1 2.8-1.5 2.5-3.8 1.1-5.3 1.9-1.3 0.7-2.3 2.8-3.4 3.9-1.1 1.1-2.2 1.4-3.7 2.2-1.7 2.8-3.7 7-5.2 9.9l-7.8-2.5c4.3 3.1 3.4 3.6 2.9 8.9-23.2-7.7-38 15.2-30.2 32.3 1.4 2.9 4.4 3.6 7.1 6.1 0.6 4.4 0.4 8.8 1.1 13.2 1.1 7.4 3.3 13.6 8.7 18.5 6.9 6.3 15 8.7 22.5 11.5 4.2 1.6 24.2 1.1 28.2 2.1 21.4 5.2 24.5 5.5 47.7 22.9 28.7 24.5 41.6 53.2 34.6 90.7-9.3 5.9-18.7 3.5-29.3 6-7.7 1.8-16.4 7.9-24.1 13.6-7.4 5.5-17.2-9.1-24.2-10-18.6-2.5-27.6 18.1-47.1 17.1-6.8-0.4-11.4-7.1-17.8-9-9.8-3-24.6 2.5-36.4 7.8-6.6 2.9-13.4 3.1-19.5 4.2-39.7-60-42.9-196.2 27.7-238z"/>
	<path id="Path 91" class="s0" d="m233.8 315.1l-0.3 6.3c-21.3-5-30.7 10.1-33.4 28.2-8.8 7.9-11 30.1-7.2 45.7 4.2 16.9 17.7 25.5 35.2 39.9 20.4 16.8 43.5 34.9 57.6 57.3 4.5 7.1 19.6 36.3 14.1 45.8-0.9 1.6-3.4 2-5.5 1.2-32.4-18.4-38.4 9.2-65.8 5.9-4.5-0.6-8.4-3.5-13.5-6.6l-4.3-2.4c-0.7-17.4-4-32.1-8.9-48.9-10.8-28.2-25.7-50.6-32.6-76.6-2.4-8.9-6.2-29.8-1.9-47 9.6-37.8 49.1-60.2 66.4-48.8z"/>
	<path id="Path 92" class="s0" d="m276.8 546.2c2-5.7 8.5-8.7 14.5-6.6 6 2.1 9.2 8.5 7.2 14.2-2 5.7-8.5 8.7-14.5 6.6-6-2.1-9.2-8.5-7.2-14.2z"/>
	<path id="Path 93" class="s3" d="m252.3 547.3c1.6 6.7 2.3 13.3 4.9 19.1 2 4.5 6.6 9.3 9.8 13.7-18.7 1.6-29.4-4.3-35.7-23.6 0.9 6.2 1.9 11.8 3.9 17.4 1.7 4.4 4.3 8.7 5.8 13.2-4.7 1.5-8.9 1.5-12.6 0.6-13.5-3.2-21.6-16.1-26.8-29.6 2.1 13.8 7.3 26.6 15.2 38-15 1.5-27.6-6.2-36.1-18.9-3.8-5.7-5.9-12.9-9.2-17.5"/>
	<path id="Path 94" class="s0" d="m1064.5 303.4c11-4.8 23.1-6.1 35.7-2.4 14.2 4.1 27.1 14.9 35.6 26.9 9 12.8 9.2 28.5 3.9 48.6-3.8 14.4-13.7 21.8-19.9 37.3-0.4 6.6 0.8 13.9-3.3 19.3-9.7 3.6-18.6-6.2-22-16.5-2.3-7.2-0.9-14.2 0.7-19 13.8-17.6 30.8-34.5 27.5-59 4 21.9-14.4 41.7-27.5 57.3-5.7 0.6-10.3 0.3-13.3-2.2-6.1-5.1-6.7-16.3-4.9-25.5 6-6.4 13.1-12.6 17.1-20.7 2.7-5.5 4.5-12 2.4-18.9 3.2 16.4-9 28.2-20.1 39.2-7.2 2-14.1 1.6-17.4-1.9-4-4.2-3.1-12.3 3.2-20 3.8-0.8 9.7-1.5 13.8-4.7 3.9-3 6.1-8.3 1.4-13.6-4.7-5.2-15.3-5.3-22.6-0.4-6.9 4.7-11.8 13.6-12.8 24.2-2.1 22.6 11.7 45.4 21.3 66.3 22.2 44.4 60.9 81.4 71.6 131.1 2.4 11.1 3.6 24.4 2.5 35.2-3.2 32.5-23.4 58.3-63.6 59.9l-9.6-0.4-16.2-14.2 18.7-5.5c12.5-3.7 31.7-10.6 39-22.5 25.9-42.7-22.9-108.1-41.8-144.1-21.7-38.5-63.5-99.9-22.4-140 6.9-5.7 14.9-10.3 23-13.8z"/>
	<path id="Path 95" class="s0" d="m786.8 468.5c-6-5.6-10.8-9.5-19-14-24.8-13.5-57.1-34.9-54.1-56.7 8.3-4.3 12.6-5.7 23-7.5 9.2-3.8 13.2-7 19.6-12.6 18.3 18.8 46.3 27.4 75.1 39.3-19.5 15.9-30.8 33.6-44.6 51.5z"/>
	<path id="Path 96" class="s0" d="m713.2 430.7l1.2 3.7c-9.4-2.3-17.7-0.7-27 0.3 7.7-6.8 14.8-10.3 24.8-11.8z"/>
	<path id="Path 97" class="s2" d="m733.5 426.8c0 6.3-5 11.4-11 11.4-6.1 0-11-5.1-11-11.5 0-6.3 4.9-11.4 11-11.4 6 0 11 5.1 11 11.4z"/>
	<path id="Path 98" class="s3" d="m733.5 426.8c0 6.3-5 11.4-11 11.4-6.1 0-11-5.1-11-11.5 0-6.3 4.9-11.4 11-11.4 6 0 11 5.1 11 11.4z"/>
	<path id="Path 99" class="s0" d="m710.5 369.8l-3.3 2c0.3-9.7-3-17.4-6-26.3 8.3 6.1 13.3 12.3 16.8 21.7z"/>
	<path id="Path 100" class="s0" d="m718.7 388.8c-6.2 1.4-12.3-2.4-13.5-8.3-1.3-5.9 2.7-11.8 8.9-13.1 6.2-1.4 12.3 2.3 13.5 8.3 1.3 5.9-2.7 11.8-8.9 13.1z"/>
	<path id="Path 101" class="s0" d="m734.6 362.1l-3 2.3c-1-9.6-5.2-16.8-9.3-25.3 9 5 14.7 10.5 19.4 19.4z"/>
	<path id="Path 102" class="s0" d="m745.1 379.9c-5.9 2.1-12.5-0.8-14.5-6.5-2-5.7 1.3-12.1 7.2-14.2 6-2.1 12.5 0.8 14.5 6.5 2 5.7-1.2 12.1-7.2 14.2z"/>
	<path id="Path 103" class="s0" d="m760.1 356.5l-3 2.4c-1-9.6-5.2-16.9-9.3-25.3 9 4.9 14.7 10.5 19.4 19.4z"/>
	<path id="Path 104" class="s0" d="m770.6 374.3c-6 2.1-12.5-0.8-14.5-6.5-2-5.7 1.2-12.1 7.2-14.2 6-2.1 12.5 0.8 14.5 6.5 2 5.8-1.2 12.1-7.2 14.2z"/>
	<path id="Path 105" class="s0" d="m831.8 545.4c8.5 2.2 15.1 1.1 21.7 4.6 3.3 1.7-0.5 4.3 3.5 7.9 2.2 3.2 7.4 7.1 9.7 10.3-10.6 23.4-26 52.2-48.1 66.1-14.7 9.2-32.5 9.3-60 5.8l2.1-46.2 23.3-0.9c8.6-19 15.1-38.9 22.6-58.3 7.1 3.2 17.1 8.6 25.2 10.7z"/>
	<path id="Path 106" class="s0" d="m751.6 585l1.3 3.7c-9.4-2.2-17.7-0.5-27 0.7 7.6-7 14.7-10.6 24.6-12.2z"/>
	<path id="Path 107" class="s0" d="m771.9 580.8c0 6.3-4.8 11.5-10.9 11.6-6 0.1-11-5-11.1-11.3-0.1-6.4 4.8-11.6 10.8-11.7 6.1-0.1 11.1 5 11.2 11.4z"/>
	<path id="Path 108" class="s0" d="m753.6 609l1.3 3.6c-9.5-2.1-17.7-0.5-27 0.7 7.6-6.9 14.7-10.5 24.6-12.2z"/>
	<path id="Path 109" class="s2" d="m762.7 593.4c6-0.1 11 5 11.1 11.3 0.1 6.3-4.7 11.6-10.8 11.6-6 0.1-11-5-11.1-11.3-0.1-6.3 4.7-11.5 10.8-11.6z"/>
	<path id="Path 110" class="s3" d="m773.8 604.7c0.1 6.3-4.7 11.6-10.8 11.6-6 0.1-11-5-11.1-11.3-0.1-6.3 4.7-11.5 10.8-11.6 6-0.1 11.1 5 11.1 11.3z"/>
	<path id="Path 111" class="s0" d="m751.6 637.6l1.2 3.6c-9.4-2.1-17.6-0.4-26.9 0.8 7.6-7 14.6-10.6 24.6-12.3z"/>
	<path id="Path 112" class="s0" d="m771.8 633.3c0.1 6.3-4.7 11.6-10.8 11.7-6 0-11.1-5.1-11.1-11.4-0.1-6.3 4.7-11.5 10.8-11.6 6-0.1 11 5 11.1 11.3z"/>
	<path id="Path 113" class="s0" d="m820.7 644.9c-5.9 8.1-12.4 12.7-22 16.3 5.3-7.7 10.5-14.3 12.9-23.6l2.7 2.7z"/>
	<path id="Path 114" class="s0" d="m832.3 639.4c-2.8 5.3-9.7 7.2-15.3 4.3-5.6-3-7.8-9.8-5-15.1 2.8-5.3 9.7-7.3 15.3-4.3 5.6 2.9 7.8 9.7 5 15.1z"/>
	<path id="Path 115" class="s0" d="m999.9 673.6l0.3 4.9h-16.4c-22.3 1.7-35.1 17.7-30.7 38.8l5.6 21.9c-18 20.1-33 41-46.2 64.8-2.9 4.9-8.6 20.3-13 22.5-5.4 2.7-11.7-2.3-20.7-3l-6.4-4.8-6-25.4 1.9-9.9-2.2-5.1c2.2-7.7-1.8-13.4 7.1-19.4 2.8-1.9 6.6 0.5 9.4-0.5 15.7-5.1 23.1-28.7 24.8-42.4 2.3-19-11.1-38.5-5.8-58 5.2-18.8 32.3-25.1 45.9-35.4l13.8-14.9 0.7 6.4 16 16.5z"/>
	<path id="Path 116" class="s0" d="m995.3 648.7l-11 14.7c-9.2 7.3-17.9 0.5-20.4-6.4-2-5.4 1.2-9.8 1-14.6-0.1-3.7-1.4-7.4-4.1-10.2-7.1-7.1-19-5.3-8.3-22.7l20.2-1.1z"/>
	<path id="Path 117" class="s0" d="m843 759.3l2 3.3c-9.7 0-17.3 3.4-26.1 6.6 5.8-8.4 11.9-13.5 21.3-17.3z"/>
	<path id="Path 118" class="s0" d="m861.7 750.7c1.5 6.1-2.1 12.3-7.9 13.7-5.9 1.5-11.9-2.4-13.4-8.6-1.5-6.1 2.1-12.3 8-13.7 5.9-1.4 11.9 2.4 13.3 8.6z"/>
	<path id="Path 119" class="s0" d="m849.6 781.9l2 3.3c-9.6 0-17.3 3.5-26.1 6.7 5.9-8.5 11.9-13.6 21.3-17.4z"/>
	<path id="Path 120" class="s0" d="m868.4 773.3c1.5 6.2-2.1 12.3-8 13.7-5.9 1.5-11.9-2.4-13.4-8.5-1.5-6.2 2.1-12.4 8-13.8 5.9-1.4 11.9 2.5 13.4 8.6z"/>
	<path id="Path 121" class="s0" d="m855.5 812.2l1.1 3.7c-9.3-2.4-17.6-1-26.9-0.1 7.7-6.7 14.9-10.1 24.9-11.4z"/>
	<path id="Path 122" class="s0" d="m875.8 808.6c-0.1 6.3-5.1 11.4-11.2 11.3-6-0.1-10.8-5.4-10.7-11.7 0.1-6.3 5.1-11.4 11.1-11.3 6.1 0.1 10.9 5.3 10.8 11.7z"/>
	<path id="Path 123" class="s0" d="m929.6 797.1c0.6 10.1-1.4 17.8-6.6 26.7-0.8-9.3-1-17.7-5.1-26.5l3.8 0.4z"/>
	<path id="Path 124" class="s0" d="m934.9 785.5c1.2 5.9-2.8 11.8-9 13.1-6.2 1.3-12.2-2.5-13.5-8.4-1.2-5.9 2.8-11.8 9-13.1 6.2-1.3 12.3 2.5 13.5 8.4z"/>
	<path id="Path 125" class="s0" d="m973.5 724.5c1.4 6.7-3.2 13.3-10.2 14.8-7 1.5-13.9-2.8-15.3-9.5-1.4-6.7 3.2-13.4 10.2-14.8 7-1.5 13.9 2.8 15.3 9.5z"/>
	<path id="Path 126" class="s0" d="m1039.1 604c8.9 3.9 16.7 9 21 15.5 11.5 17.6 9.8 41.5 18.8 62.4 0.4 0.9 6.1 4.2 6.6 4.9 3.5 5.2 3.2 8.2 6.1 15.7l10.4 12.2 1.7 5.4-45 96.4c-1.5 3.3-2.4 4.1-3.5 4.6-1.1 0.4-2.5 0.6-6-0.4-21.6-5.6-38.5-13.9-54.9-31.1l29-17.3c10.2-14.4 10.5-32.5 29-45-27.3 2.6-45.5-8.1-56.1-26.8-5.5-9.8-7.7-25.2-10.3-38.1-4.1-30.6-19.1-49.5-52.5-54.3-30.2-4.3-64.6 2.5-76-36.1l-2.2-18.2 3.4-11.1 0.8-23.2 39.2 12.1 63.2 2.7 27.3 15.9c12.4 30.9 25.1 43.8 50 53.8z"/>
	<path id="Path 127" class="s0" d="m1088.2 778.4c-0.6 10.1-3.5 17.5-9.7 25.7 0.3-9.3 1.1-17.7-2-26.8l3.8 0.8z"/>
	<path id="Path 128" class="s0" d="m1094.9 767.5c0.5 6-4.2 11.4-10.5 12-6.3 0.5-11.9-4-12.4-10-0.5-6 4.2-11.4 10.5-11.9 6.3-0.6 11.8 3.9 12.4 9.9z"/>
	<path id="Path 129" class="s2" d="m1109.3 698.4c0.6 7.6-5 14.4-12.4 15.1-7.4 0.7-14-4.9-14.6-12.6-0.7-7.7 4.9-14.5 12.3-15.2 7.5-0.7 14 5 14.6 12.7z"/>
	<path id="Path 130" class="s3" d="m1109.3 698.4c0.6 7.6-5 14.4-12.4 15.1-7.4 0.7-14-4.9-14.6-12.6-0.7-7.7 4.9-14.5 12.3-15.2 7.5-0.7 14 5 14.7 12.7z"/>
	<path id="Path 131" class="s0" d="m985.1 763.5l1.2 3.6c-9.4-2.1-17.6-0.5-26.9 0.7 7.6-6.9 14.6-10.6 24.6-12.2z"/>
	<path id="Path 132" class="s0" d="m1005.3 759.2c0.1 6.3-4.7 11.5-10.8 11.6-6.1 0.1-11.1-5-11.2-11.3 0-6.3 4.8-11.6 10.9-11.6 6-0.1 11 5 11.1 11.3z"/>
	<path id="Path 133" class="s0" d="m990.5 790.7l1.3 3.7c-9.4-2.2-17.7-0.5-27 0.7 7.6-7 14.7-10.6 24.6-12.2z"/>
	<path id="Path 134" class="s0" d="m1010.8 786.5c0 6.3-4.8 11.5-10.9 11.6-6 0.1-11-5-11.1-11.3-0.1-6.4 4.8-11.6 10.8-11.7 6-0.1 11.1 5 11.2 11.4z"/>
	<path id="Path 135" class="s0" d="m996 813.7l1.2 3.7c-9.4-2.2-17.6-0.5-26.9 0.7 7.6-6.9 14.6-10.6 24.6-12.2z"/>
	<path id="Path 136" class="s0" d="m1016.2 809.5c0.1 6.3-4.8 11.5-10.8 11.6-6.1 0.1-11.1-5-11.2-11.3-0.1-6.3 4.8-11.6 10.8-11.7 6.1 0 11.1 5 11.2 11.4z"/>
	<path id="Path 137" class="s0" d="m882 357l-10 12.8 0.9-15.2z"/>
	<path id="Path 138" class="s0" d="m877 394.4l5.5-10.7 1.5 11.1z"/>
	<path id="Path 139" class="s0" d="m902.2 391l-4.6 2.5-2.9-3-5.1-3.9c-9.4-5.2-16.6-3.6-24.3-0.2-6 2.6-11.7 6.6-18.5 7.5-8.2 1-15.3-0.1-23.2-5-24.1-14.9-24.9-51.8-6.4-61.8 5.5-2.9 13.3-4.6 21.8-1.4-1.9 3-2.8 3.2-4.8 7.4-3.3 7.1-6.8 26.4 0.7 33.1 4.8 4.5 10.3 6.3 15.4 7.3 4 0.8 6.7-2.9 11.7-3.3 10.7-1 19.5 1.8 31.1 11.4z"/>
	<path id="Path 140" class="s0" d="m954.6 354.2l-19.6 38.1-21 16.7-45.7 3c-0.3-8.5-0.7-18 0-26.5 2.1 1.5 3.9 3.8 6.3 5.1 22.5 12.1 43.9-9.2 24.5-25.8-8-6.8-21.3-10.2-30.8-4.7-2.5 1.5-3.3 4.8-6.1 8.7-2.5-2.9-5-4.3-7.2-6-2.7-2.1-1.9-6.5-2.3-12.6 3.8-1 7.3-1.6 11.2-2.2-3.8-2.9-7.3-5-11.6-7.3 1.1-2 4.2-9.8 6.2-10.7 0.7-0.3 1.7 0.3 3.7-0.3 1.6-0.5 1.4-1.9 3.6-2.8 1.6-0.6 3.6-0.7 4.8-1.5 5.8-4.5 10.6-13.6 15.3-13.9 2.3-0.2 4.1 2.2 8.2 3.6 3.1 1 7.9 1.1 10.7 1.6l38.9-1.5z"/>
	<path id="Path 141" class="s8" d="m903.1 345.9l3.1 0.8-0.5 5.4-5.1-4c-0.8-3.3-0.9-4.8-3.5-7.4l-2.1-2.6c-2.1-2.3-9.9-7.4-12.3-4.3-0.9 1-0.8 8 0.2 9.8 1.6 2.6 5 2.1 9.9 1.6l1.1-1.4 2.8 0.3-0.2 3-4.9 0.5c-3.3 0.7-6.2 0.6-8.3-0.6-2-1.2-2.5-4.5-3.2-7.9l-2.4 0.5c-0.4 0.8-1.1 2.7-2.2 3.5-0.9 0.7-2.7 1.2-3.2-0.6l3.9-3.4c0.6-1.2 0.9-2.6 1.5-3.3 0.7-1 1.8-1.2 3.2-2.2l-0.9-2.5c-2.2 0.3-3.9 0.9-5.3 0.7-0.9-0.2-1.4-0.8-2.6-1.3 1.5-1.2 2.6-3 4-3.9 1.9-1 4.8-0.2 6.3 3.7 1.7 0 3.4-0.5 4.9-0.2 3.7 0.8 5.4 2.1 9.2 4.7l1.9 3.4c2.8 2.3 4.1 4.3 4.7 7.7z"/>
	<path id="Path 142" class="s2" d="m964.1 313.1c70.6 41.8 67.4 178 27.7 238-6.1-1-13-1.2-19.6-4.2-11.7-5.3-26.6-10.8-36.4-7.8-6.3 1.9-10.9 8.6-17.8 9-19.5 1-28.4-19.6-47-17.1-7.1 1-16.8 15.5-24.2 10-7.7-5.7-16.5-11.8-24.2-13.6-10.5-2.5-20-0.1-29.2-6-7.1-37.4 5.8-66.2 34.5-90.7 23.3-17.4 26.4-17.7 47.8-22.9 3.9-1 24-0.4 28.1-2 7.5-2.9 15.7-5.3 22.6-11.6 5.4-4.9 7.6-11.1 8.7-18.5 0.6-4.3 0.5-8.8 1-13.2 2.8-2.5 5.8-3.2 7.1-6.1 7.9-17.1-6.9-40-30.2-32.3-0.4-5.2-1.3-5.8 3-8.8l-7.9 2.4c-1.5-2.9-3.4-7.1-5.1-9.9-1.5-0.8-2.7-1-3.8-2.2-1.1-1.1-2.1-3.2-3.3-3.9-1.5-0.8-3.8 0.6-5.3-1.9 16.5-9.9 36.9-22.1 52.1-2.8 3.6 4.6 5.6 9.8 10.5 13 2.8 1.9 6.2 1.8 10.9 3.1z"/>
	<path id="Path 143" class="s3" d="m991.8 551.1c-6.1-1-13-1.2-19.6-4.2-11.7-5.3-26.6-10.8-36.4-7.8-6.3 1.9-10.9 8.6-17.8 9-19.5 1-28.4-19.6-47-17.1-7.1 1-16.8 15.5-24.2 10-7.7-5.7-16.5-11.8-24.2-13.6-10.5-2.5-20-0.1-29.2-6-7.1-37.4 5.8-66.2 34.5-90.7 23.3-17.4 26.4-17.7 47.8-22.9 3.9-1 24-0.4 28.1-2 7.5-2.9 15.7-5.3 22.6-11.6 5.4-4.9 7.6-11.1 8.7-18.5 0.6-4.3 0.5-8.8 1-13.2 2.8-2.5 5.8-3.2 7.1-6.1 7.9-17.1-6.9-40-30.2-32.3-0.4-5.2-1.3-5.8 3-8.8l-7.9 2.4c-1.5-2.9-3.4-7.1-5.1-9.9-1.5-0.8-2.7-1-3.8-2.2-1.1-1.1-2.1-3.2-3.3-3.9-1.5-0.8-3.8 0.6-5.3-1.9 16.5-9.9 36.9-22.1 52.1-2.8 3.6 4.6 5.6 9.8 10.5 13 2.8 1.9 6.2 1.8 10.9 3.1 70.6 41.8 67.4 178 27.7 238z"/>
	<path id="Path 144" class="s0" d="m979.2 366.6c4.4 17.3 0.5 38.1-1.8 47-7 26-21.9 48.4-32.6 76.6-5 16.8-8.2 31.5-9 48.9l-4.2 2.4c-5.2 3.1-9.1 6-13.6 6.6-27.4 3.3-33.4-24.3-65.7-5.9-2.1 0.8-4.6 0.4-5.5-1.2-5.6-9.5 9.6-38.7 14-45.8 14.2-22.4 37.3-40.4 57.7-57.3 17.4-14.4 31-23 35.1-39.9 3.8-15.6 1.6-37.8-7.1-45.7-2.7-18.1-12.1-33.2-33.5-28.2l-0.2-6.3c17.3-11.4 56.9 11 66.4 48.8z"/>
	<path id="Path 145" class="s0" d="m862.6 563.1c-6 2.1-12.5-0.9-14.5-6.6-2-5.7 1.2-12 7.1-14.1 6-2.2 12.5 0.8 14.5 6.5 2 5.7-1.2 12.1-7.1 14.2z"/>
	<path id="Path 146" class="s3" d="m975 562.4c-3.3 4.6-5.4 11.8-9.2 17.5-8.4 12.7-21.1 20.4-36 18.9 7.9-11.4 13.1-24.2 15.2-38-5.3 13.5-13.3 26.4-26.8 29.6-3.8 0.9-8 0.9-12.6-0.6 1.5-4.5 4.1-8.8 5.7-13.2 2.1-5.6 3-11.2 3.9-17.4-6.2 19.3-17 25.2-35.6 23.6 3.1-4.4 7.8-9.2 9.7-13.7 2.6-5.8 3.3-12.4 5-19.1"/>
	<path id="Path 147" class="s0" d="m486.7 798.9c1 7.5 5.3 10.1 8.8 10 3.7-0.1 8.2-2.3 10.6-9.6 0.2 8.8 6.4 13.5 10.8 13.5 4.9 0 11-4.6 13.9-13.1 2 8.1 6.2 13.1 10.6 12.1 3.4-0.7 7.1-5.7 8.9-10.9 4.4 6 7.9 11.7 12.7 11.8 4 0.1 9.4-4.1 11.7-11 3 9.5 9.4 12.4 14.1 10.8 4.1-1.4 6.5-6.4 9.6-11.4 1.6 9.8 7.4 13.7 12.1 12 3.9-1.4 6.7-7.1 8.6-12.3 1.9 8.7 6.9 13.4 11.7 12.6 4.8-0.8 9.5-7 11.6-13.3-0.8 11.6 5.1 14.6 10.2 13 4.1-1.4 9-8.1 11.9-12.3l0.8 20c-2.8 3.6-5.3 8-10.3 9.2-3 0.7-8.6 0.8-11-2.7-1.8-2.6-2.1-5.8-2.9-7.4-2 7.5-7.6 9.7-11.1 9.9-3.8 0.2-6.4-3.2-11-7.1-4 7.2-10.1 8.7-13.5 7.3-2.5-1.1-5.3-3.8-8.1-9.1-2.1 5.6-5.9 8.9-9 9.2-4.2 0.4-8.1-4-12.3-7.5-4.7 4.6-9.1 8.4-13.1 8.4-4 0-7.7-3.6-11.6-9.1-5 5.8-8.6 10.1-12.9 9.6-3.4-0.4-7.3-4.4-11.3-8.3-4.6 5.5-11.7 8.8-15.9 8.5-4.2-0.2-6.1-4-8.6-10.2-6.8 10.8-12.2 11.3-21.4 4.3l0.3-21c3.1-2.1 3.6-2 5.1-5.9z"/>
	<path id="Path 148" class="s0" d="m510 839.1c1 7.5 5.3 10.2 8.8 10.1 3.7-0.2 8.2-2.4 10.6-9.6 0.2 8.7 6.4 13.4 10.8 13.4 4.9 0.1 11-4.6 13.9-13 2 8 6.1 13 10.6 12.1 3.4-0.8 7.1-5.8 8.9-11 4.3 6 7.9 11.7 12.7 11.8 4 0.1 9.3-4.1 11.6-11 3.1 9.5 9.5 12.4 14.2 10.8 4.1-1.3 6.5-6.3 9.6-11.3 1.6 9.7 7.4 13.6 12.1 11.9 3.9-1.4 6.6-7.1 8.6-12.3l-0.2 21.9c-4 7.2-10 8.7-13.4 7.3-2.5-1.1-5.3-3.7-8.1-9-2.1 5.5-5.9 8.8-9 9.1-4.3 0.4-8.1-4-12.3-7.5-4.7 4.7-9.1 8.4-13.1 8.4-4 0.1-7.7-3.5-11.7-9.1-4.9 5.8-8.6 10.1-12.8 9.6-3.4-0.4-7.3-4.3-11.3-8.2-4.6 5.4-11.7 8.7-15.9 8.5-4.2-0.3-6.2-4.1-8.6-10.3-6.8 10.9-12.2 11.3-21.4 4.3l0.3-21c3.1-2.1 3.6-1.9 5.1-5.9z"/>
	<path id="Path 149" fill-rule="evenodd" class="s4" d="m368.2 899.9c-1.7 3-3.6 5.6-5.6 7.9q-3 3.4-6.8 5.6c-5 3-10.3 4.2-15.8 3.5-5.4-0.7-10.4-3-14.9-7-0.7-0.6-1.4-1.3-2-1.9-3.1-3-5.6-6.4-7.2-10.5-1.6-3.9-2.2-8.2-1.9-12.7 0.4-4.4 1.6-8.9 3.6-13.5 1.9-4.6 4.5-9 8-13.4 3.4-4.4 6.8-7.9 10.4-10.6q5.5-4.1 10.5-5.5c3.3-0.9 6.4-0.9 9.5 0 3.1 0.8 5.8 2.6 8.3 5.5 0.5 0.6 1.1 1.1 1.6 1.7 2.7 3 4.7 6.4 6.1 10.2q2.2 5.9 2.7 12.5 0.4 6.6-1.1 13.9c-1.1 5-2.9 9.7-5.4 14.3zm-2.1-1.8c3.2-5.5 5.1-11.3 5.9-17.1 0.8-5.9 0.4-11.4-1-16.7-1.3-5.1-3.5-9.3-6.8-12.8q-0.8-0.9-1.5-1.8c-6.2 9.3-12.5 18.6-18.7 27.8-6.3 9.4-12.7 18.6-19.1 27.8 0.6 0.6 1.3 1.3 2 1.9 2.9 2.7 6.3 4.6 9.9 5.6 3.6 1.1 7.3 1.3 11 0.5 3.6-0.8 7.1-2.4 10.1-4.9q4.6-3.8 8.2-10.3z"/>
	<path id="Path 150" fill-rule="evenodd" class="s4" d="m439.2 940c-2.1 6.8-6.3 11-12.6 12.5-6.4 1.5-13.5-0.2-21-5.1-2.9-1.9-5.4-4-7.5-6-1.2 3-2.5 6-3.8 9q-1.9 4.5-3.8 9c-10.7-7.5-21.1-15-30.8-22.5q8.3-15.5 16.5-31c5.4-10.4 10.8-20.7 16.2-31.1 7.9 6.7 16.1 13.4 25.1 19.8 9.1 6.5 15.7 13 19.6 20.3 2 3.7 3.3 7.6 3.6 11.7 0.4 4.2 0 8.7-1.5 13.4zm-2.9-1.6c1.9-6.1 2-11.4 0.8-16.4-1.2-4.9-3.8-9.2-7.4-13.2-3.6-4-8-7.9-13.3-11.5-2.9 6.9-5.7 13.9-8.6 20.9-2.9 7-5.8 13.9-8.7 20.9 2.3 2.3 4.8 4.4 7.4 6.1 6.6 4.4 12.9 5.8 18.5 4.3 5.6-1.4 9.4-5.2 11.3-11.1z"/>
	<path id="Path 151" fill-rule="evenodd" class="s4" d="m524.1 1019.7c-15.8-3.7-31.2-8.2-46.2-13.6 1.1-6.1 2.2-12.2 3.2-18.3-6 3.9-13.5 5.7-22.2 5.3-8.4-0.5-16.2-2.8-23-6.3 0.2-1 0.5-1.9 0.8-2.9 6.8 3.5 14.3 5.7 22.4 6.2 8.3 0.4 14.5-1.5 18.7-5.2-7.1-1.4-13.3-4.1-18.5-8.6-5.1-4.4-8.6-9.6-10.6-15.3-2.1-5.7-2.3-11.1-0.9-16.3 1.3-4.8 3.2-8.5 5.7-11.2 2.4-2.7 5.3-4.5 8.8-5.2 7.1-1.4 16.2 0.3 28.2 4.6 12.4 4.3 25.4 7.4 38.6 10.1-0.7 12.8-1.5 25.6-2.4 38.4q-1.3 19.1-2.6 38.3zm-42.2-36.5c1.5-7.9 2.8-15.8 4.1-23.7 1.4-7.8 2.7-15.7 4-23.6-11.1-4.3-19.6-5.8-26-4.8-3.2 0.5-6 2-8.2 4.5-2.2 2.6-3.9 6-5.2 10.6-1.4 4.9-1.2 9.9 0.9 15 2.1 5.2 5.8 10.1 11.1 14 5.5 4.1 12 6.6 19.3 8zm150.8 33.3c-15.5 2.8-31.3 5.1-47.3 6.7-2.8-3.9-5.4-7.7-8.1-11.6-2.5-3.8-5.1-7.7-7.6-11.6-4.5 4.1-9 7.9-13.6 11.7-4.5 3.8-9.4 7.4-14.1 10.8-1.9-0.2-3.7-0.4-5.6-0.7 5.3-3.9 10.7-7.7 15.7-11.9 5.2-4.3 10.2-8.8 15-13.2-5.1-8.5-10.1-17-14.7-25.7-4.6-8.6-8.9-17.6-13.1-26.5 13.6 1.3 27.1 1.7 40.7 1.4 2.4 3.8 4.7 7.6 7.1 11.3 2.4 3.8 4.9 7.5 7.5 11.3 3.5-4.3 7.2-8.8 10.6-13.3 3.4-4.5 6.6-8.9 9.8-13.6 1.4-0.3 2.9-0.6 4.4-0.9-3.3 5.3-6.9 10.5-10.6 15.6-3.7 5.1-7.6 10.2-11.8 15.2 5.7 7.8 11.3 15.5 17.2 22.9 5.9 7.6 12.2 14.9 18.5 22.1zm79.3-69c1.5 3.5 2.4 7 3 10.5 0.5 3.6 0.7 7.2 0.3 10.8-0.8 7.2-3.5 13.8-8.1 19.6-4.7 5.8-10.9 10.1-18.5 13.2-1.3 0.5-2.5 1-3.8 1.4-5.8 2.1-11.7 3.2-17.4 3-6-0.2-11.3-1.5-15.9-3.9-4.7-2.3-8.6-5.5-11.6-9.7q-4.4-6.3-6.1-14.8c-1.1-5.7-1.2-11.1-0.2-16.3 1.1-5.2 2.8-10 5.4-14.2 2.6-4.3 5.8-8.1 9.7-11.4 3.8-3.3 8.3-5.9 13.4-8 1.1-0.4 2-0.8 3.1-1.2 4.9-2.1 9.8-3.2 14.4-3.3 4.5 0 8.7 0.8 12.7 2.5 4.1 1.7 7.8 4.4 11.2 8.1 3.4 3.7 6.2 8.3 8.4 13.7zm-2.8 1.5q-3.9-9.8-10.6-15.6c-4.4-3.9-9.5-6-15.1-6.7-5.5-0.7-11.2 0.3-17.2 2.8-1 0.4-2.1 0.8-3.2 1.2 3.7 11.5 7.1 23 10.5 34.5q5.1 17.3 10.2 34.5c1.3-0.4 2.5-0.9 3.7-1.4 5.2-2.1 9.7-4.8 13.5-8.3 3.8-3.5 6.7-7.6 8.6-12.2 2-4.5 2.9-9.2 2.9-14.1 0-4.8-1.3-9.7-3.3-14.7z"/>
	<path id="Path 152" fill-rule="evenodd" class="s4" d="m785.4 920.8c4.2 6.6 5.2 12.7 2.3 18.4-2.9 5.6-9.1 11.9-19.1 18.7-10.1 6.8-21 13.2-32.4 19.7-5.3-11.9-10.5-23.8-15.7-35.7-5.2-11.8-10.5-23.7-15.9-35.6 9.1-5.8 17.8-11.7 26-17.8q7.8-5.8 13.4-8.3c3.7-1.7 7.3-1.9 10.7-0.7q5.1 1.7 9.8 8.9c3.2 5 5.1 9.6 5.4 14q0.6 6.6-4.4 10.5c1.6-1.2 3.7-1.6 6.2-1.2 2.6 0.5 5.1 1.6 7.6 3.2 2.7 1.7 4.7 3.7 6.1 5.9zm-19.9-7.9q0 0 0 0 0 0 0 0zm17.8 9.6c-1.6-2.6-3.6-4.5-6-5.8-2.4-1.3-4.9-2-7.5-2.1-2.6-0.1-5 0-6.8 1.2-2.9 1.9-4.6 3.9-6 5.2-2 1.7-3.6 1.7-4.4 0.3-1.2-2.1-0.5-3.9 1.8-5.6 0.5-0.4 2-1.1 4.2-1.8 2.2-0.8 3.7-1.4 4.5-2.1 5.6-4.8 5.6-12-0.2-21.5-2.7-4.5-5.8-7.1-8.9-8.1-3-0.9-6.2-0.6-9.5 1.1-3.4 1.7-7.4 4.4-12.3 8.1q9 15.9 17.5 31.8c5.7 10.6 11.5 21.1 17.3 31.7 6.1-4.1 10.6-7.9 13.8-11.2 3.1-3.2 5-6.6 5.5-10.1 0.6-3.5-0.5-7.2-3-11.1z"/>
	<path id="Path 153" fill-rule="evenodd" class="s4" d="m818.9 863c2.6 2.9 4.7 5.9 6.7 8.9 2 3 3.6 6.1 4.9 9.3q4.1 9.5 3.3 17.8c-0.5 5.7-2.6 10.4-6.5 14q-0.9 0.9-1.8 1.8c-3 2.8-6.5 4.6-10.5 5.4-4 0.8-8.2 0.7-12.3-0.6q-6.2-1.9-12.1-6.6-5.9-4.7-10.9-12.3c-3.3-5-5.9-10-7.6-15.1-1.8-5-2.9-9.8-3.2-14.3-0.4-4.4 0-8.5 0.9-12.2 1-3.7 2.5-6.9 5.1-9.3 0.5-0.5 1-1 1.5-1.5 2.5-2.4 5.2-3.8 8.5-4.2 3.2-0.5 6.5-0.1 10.2 1.2 3.6 1.3 7.5 3.4 11.6 6.5 4.2 3 8.3 6.7 12.2 11.2zm-1.4 1.4c-4.7-5.4-9.6-9.7-14.5-12.8-4.9-3-9.6-4.6-13.8-4.8q-6.3-0.2-10.7 4.2-0.7 0.7-1.5 1.4c7.9 9.9 15.5 19.9 23.1 29.8q11.4 14.9 23 29.7c0.6-0.6 1.2-1.1 1.8-1.8 2.6-2.4 4.4-5.4 5.4-9 0.9-3.6 1.1-7.4 0.4-11.6q-1.1-6.2-4.4-12.5c-2.2-4.2-5.2-8.4-8.8-12.6z"/>
	<path id="Path 154" class="s9" d="m368.2 899.9c-1.7 3-3.6 5.6-5.6 7.9q-3 3.4-6.8 5.6c-5 3-10.3 4.2-15.8 3.5-5.4-0.7-10.4-3-14.9-7-0.7-0.6-1.4-1.3-2-1.9-3.1-3-5.6-6.4-7.2-10.5-1.6-3.9-2.2-8.2-1.9-12.7 0.4-4.4 1.6-8.9 3.6-13.5 1.9-4.6 4.5-9 8-13.4 3.4-4.4 6.8-7.9 10.4-10.6q5.5-4.1 10.5-5.5c3.3-0.9 6.4-0.9 9.5 0 3.1 0.8 5.8 2.6 8.3 5.5 0.5 0.6 1.1 1.1 1.6 1.7 2.7 3 4.7 6.4 6.1 10.2q2.2 5.9 2.7 12.5 0.4 6.6-1.1 13.9c-1.1 5-2.9 9.7-5.4 14.3zm-2.1-1.8c3.2-5.5 5.1-11.3 5.9-17.1 0.8-5.9 0.4-11.4-1-16.7-1.3-5.1-3.5-9.3-6.8-12.8q-0.8-0.9-1.5-1.8c-6.2 9.3-12.5 18.6-18.7 27.8-6.3 9.4-12.7 18.6-19.1 27.8 0.6 0.6 1.3 1.3 2 1.9 2.9 2.7 6.3 4.6 9.9 5.6 3.6 1.1 7.3 1.3 11 0.5 3.6-0.8 7.1-2.4 10.1-4.9q4.6-3.8 8.2-10.3zm73.1 41.9c-2.1 6.8-6.3 11-12.6 12.5-6.4 1.5-13.5-0.2-21-5.1-2.9-1.9-5.4-4-7.5-6-1.2 3-2.5 6-3.8 9q-1.9 4.5-3.8 9c-10.7-7.5-21.1-15-30.8-22.5q8.3-15.5 16.5-31c5.4-10.4 10.8-20.7 16.2-31.1 7.9 6.7 16.1 13.4 25.1 19.8 9.1 6.5 15.7 13 19.6 20.3 2 3.7 3.3 7.6 3.6 11.7 0.4 4.2 0 8.7-1.5 13.4zm-2.9-1.6c1.9-6.1 2-11.4 0.8-16.4-1.2-4.9-3.8-9.2-7.4-13.2-3.6-4-8-7.9-13.3-11.5-2.9 6.9-5.7 13.9-8.6 20.9-2.9 7-5.8 13.9-8.7 20.9 2.3 2.3 4.8 4.4 7.4 6.1 6.6 4.4 12.9 5.8 18.5 4.3 5.6-1.4 9.4-5.2 11.3-11.1zm87.8 81.3c-15.8-3.7-31.2-8.2-46.2-13.6 1.1-6.1 2.2-12.2 3.2-18.3-6 3.9-13.5 5.7-22.2 5.3-8.4-0.5-16.2-2.8-23-6.3 0.2-1 0.5-1.9 0.8-2.9 6.8 3.5 14.3 5.7 22.4 6.2 8.3 0.4 14.5-1.5 18.7-5.2-7.1-1.4-13.3-4.1-18.5-8.6-5.1-4.4-8.6-9.6-10.6-15.3-2.1-5.7-2.3-11.1-0.9-16.3 1.3-4.8 3.2-8.5 5.7-11.2 2.4-2.7 5.3-4.5 8.8-5.2 7.1-1.4 16.2 0.3 28.2 4.6 12.4 4.4 25.4 7.4 38.6 10.1-0.7 12.8-1.5 25.6-2.3 38.4q-1.4 19.1-2.7 38.3zm-42.2-36.5c1.5-7.9 2.8-15.8 4.1-23.7 1.4-7.8 2.7-15.7 4-23.6-11.1-4.3-19.6-5.8-26-4.8-3.2 0.5-6 2-8.2 4.5-2.2 2.6-3.9 6-5.2 10.6-1.4 4.9-1.2 9.9 0.9 15 2.1 5.2 5.8 10.1 11.1 14 5.5 4.1 12 6.6 19.3 8zm150.8 33.3c-15.5 2.8-31.3 5.1-47.3 6.7-2.8-3.9-5.4-7.7-8-11.6-2.6-3.8-5.2-7.7-7.7-11.6-4.5 4.1-9 7.9-13.6 11.7-4.5 3.8-9.3 7.4-14 10.8-2-0.2-3.8-0.4-5.7-0.7 5.3-3.9 10.7-7.7 15.8-11.9 5.1-4.3 10.1-8.8 14.9-13.2-5-8.5-10.1-17-14.7-25.7-4.6-8.6-8.9-17.6-13.1-26.5 13.6 1.3 27.1 1.7 40.7 1.4 2.4 3.8 4.7 7.6 7.1 11.3 2.4 3.8 4.9 7.5 7.5 11.3 3.5-4.3 7.2-8.8 10.6-13.3 3.4-4.5 6.6-8.9 9.8-13.6 1.4-0.3 2.9-0.6 4.4-0.9-3.3 5.3-6.9 10.5-10.6 15.6-3.7 5.1-7.6 10.2-11.8 15.2 5.7 7.8 11.3 15.5 17.2 22.9 6 7.6 12.2 14.9 18.5 22.1zm79.3-69c1.5 3.5 2.4 7 3 10.5 0.5 3.6 0.7 7.2 0.3 10.8-0.8 7.2-3.5 13.8-8.1 19.6-4.7 5.8-10.9 10.1-18.5 13.2-1.3 0.5-2.5 1-3.7 1.4-5.9 2.1-11.8 3.2-17.5 3-6-0.2-11.3-1.5-15.9-3.9-4.7-2.3-8.5-5.5-11.6-9.7q-4.4-6.3-6.1-14.8c-1.1-5.7-1.2-11.1-0.1-16.3 1-5.2 2.7-10 5.3-14.2 2.6-4.3 5.9-8.1 9.7-11.4 3.9-3.3 8.3-5.9 13.4-8 1.1-0.4 2.1-0.8 3.1-1.2 5-2.1 9.8-3.2 14.4-3.3 4.6 0 8.7 0.8 12.7 2.5 4.1 1.7 7.8 4.4 11.2 8.1 3.4 3.7 6.2 8.3 8.4 13.7zm-2.8 1.5q-3.9-9.8-10.6-15.6c-4.4-3.9-9.5-6-15.1-6.7-5.5-0.7-11.2 0.3-17.2 2.8-1 0.4-2 0.8-3.1 1.2 3.6 11.5 7.1 23 10.4 34.5q5.1 17.3 10.2 34.5c1.3-0.4 2.5-0.9 3.7-1.4 5.2-2.1 9.7-4.8 13.5-8.3 3.8-3.5 6.7-7.6 8.7-12.2 1.9-4.5 2.8-9.2 2.8-14.1 0-4.8-1.3-9.7-3.3-14.7zm76.2-28.2c4.2 6.6 5.2 12.7 2.3 18.4-2.9 5.6-9.1 11.9-19.1 18.7-10.1 6.8-21 13.2-32.4 19.7-5.3-11.9-10.5-23.8-15.7-35.7-5.2-11.8-10.5-23.7-15.9-35.6 9.1-5.8 17.8-11.7 26-17.8q7.8-5.8 13.4-8.3c3.7-1.7 7.3-1.9 10.7-0.7q5.1 1.7 9.8 8.9c3.2 5 5.1 9.6 5.4 14q0.6 6.6-4.4 10.5c1.5-1.2 3.7-1.6 6.2-1.2 2.6 0.5 5.1 1.6 7.6 3.2 2.7 1.7 4.7 3.7 6.1 5.9zm-2.1 1.7c-1.6-2.6-3.6-4.5-6-5.8-2.4-1.3-4.9-2-7.5-2.1-2.6-0.1-5 0-6.8 1.2-2.9 1.9-4.6 3.9-6 5.2-2 1.7-3.6 1.7-4.4 0.3-1.2-2.1-0.5-3.9 1.8-5.6 0.5-0.4 2-1.1 4.2-1.8 2.2-0.8 3.7-1.4 4.5-2.1 5.6-4.8 5.6-12-0.2-21.5-2.7-4.5-5.8-7.1-8.9-8.1-3-0.9-6.2-0.6-9.5 1.1-3.4 1.7-7.4 4.4-12.3 8.1q9 15.9 17.5 31.8c5.7 10.6 11.5 21.1 17.3 31.7 6.1-4.1 10.6-7.9 13.8-11.2 3.1-3.2 5-6.6 5.5-10.1 0.6-3.5-0.5-7.2-3-11.1zm35.6-59.5c2.6 2.9 4.7 5.9 6.7 8.9 2 3 3.6 6.1 4.9 9.3q4.1 9.5 3.3 17.8c-0.5 5.7-2.6 10.4-6.5 14q-0.9 0.9-1.8 1.8c-3 2.8-6.5 4.6-10.5 5.4-4 0.8-8.2 0.7-12.3-0.6q-6.2-1.9-12.1-6.6-5.9-4.7-10.9-12.3c-3.3-5-5.9-10-7.6-15.1-1.8-5-2.9-9.8-3.2-14.3-0.4-4.4 0-8.5 0.9-12.2 1-3.7 2.5-6.9 5.1-9.3 0.5-0.5 1-1 1.5-1.5 2.5-2.4 5.2-3.8 8.5-4.2 3.2-0.5 6.5-0.1 10.2 1.2 3.6 1.3 7.5 3.5 11.6 6.5 4.2 3 8.3 6.7 12.2 11.2zm-1.4 1.4c-4.7-5.4-9.6-9.7-14.5-12.8-4.9-3-9.6-4.6-13.8-4.8q-6.3-0.2-10.7 4.2-0.7 0.7-1.5 1.4c7.9 9.9 15.5 19.9 23.1 29.8q11.4 14.9 23 29.7c0.6-0.6 1.2-1.1 1.8-1.8 2.6-2.4 4.4-5.4 5.4-9 0.9-3.6 1.1-7.4 0.4-11.6q-1.1-6.2-4.4-12.5c-2.2-4.2-5.2-8.4-8.8-12.6z"/>
	<path id="Path 155" fill-rule="evenodd" class="s2" d="m374 897.9c-1.6 3-3.5 5.6-5.5 7.9-2.1 2.3-4.4 4.1-6.9 5.6-5 3-10.3 4.3-15.8 3.6-5.4-0.7-10.4-3.1-14.9-7.1-0.7-0.6-1.3-1.3-1.9-1.9-3.2-2.9-5.7-6.4-7.3-10.4-1.6-4-2.1-8.3-1.8-12.8 0.3-4.4 1.5-8.9 3.5-13.5 1.9-4.5 4.6-9 8-13.4 3.4-4.3 6.8-7.9 10.5-10.6 3.6-2.7 7.1-4.6 10.4-5.5 3.3-0.9 6.4-0.9 9.5 0 3.1 0.8 5.8 2.6 8.4 5.5 0.5 0.6 1 1.2 1.5 1.8q4.1 4.4 6.2 10.1 2.1 5.9 2.6 12.5 0.4 6.6-1.1 13.9c-1 5-2.8 9.7-5.4 14.3zm-2-1.7c3.1-5.6 5-11.3 5.8-17.2 0.8-5.9 0.4-11.3-1-16.6-1.3-5.1-3.5-9.4-6.8-12.9-0.5-0.6-1-1.2-1.5-1.8-6.2 9.3-12.5 18.6-18.7 27.9-6.2 9.3-12.7 18.5-19.1 27.8 0.6 0.6 1.3 1.2 2 1.9 3 2.6 6.4 4.5 9.9 5.6 3.7 1 7.3 1.2 11 0.4 3.7-0.8 7.1-2.4 10.2-4.9q4.5-3.8 8.2-10.2z"/>
	<path id="Path 156" fill-rule="evenodd" class="s2" d="m445 938c-2.1 6.8-6.2 11.1-12.6 12.6-6.4 1.5-13.4-0.2-20.9-5.1-2.9-1.9-5.4-4-7.6-6.1-1.2 3-2.5 6-3.7 9q-2 4.5-3.9 9c-10.7-7.5-21.1-15-30.8-22.5q8.4-15.4 16.5-31 8.2-15.5 16.3-31c7.8 6.6 16.1 13.3 25 19.7 9.1 6.5 15.8 13.1 19.6 20.3 2 3.7 3.3 7.6 3.7 11.8 0.4 4.1-0.1 8.6-1.6 13.3zm-2.9-1.6c1.9-6 2-11.4 0.8-16.4-1.2-4.8-3.7-9.2-7.4-13.2-3.5-3.9-8-7.9-13.3-11.5-2.8 7-5.7 13.9-8.6 20.9-2.9 7-5.7 14-8.7 20.9 2.4 2.3 4.8 4.4 7.5 6.1 6.6 4.4 12.8 5.8 18.4 4.4 5.7-1.4 9.4-5.2 11.3-11.2z"/>
	<path id="Path 157" fill-rule="evenodd" class="s2" d="m530 1017.7c-15.9-3.7-31.3-8.2-46.3-13.6q1.7-9.1 3.3-18.3c-6.1 3.9-13.6 5.8-22.2 5.3-8.5-0.5-16.3-2.7-23.1-6.3q0.4-1.4 0.8-2.9c6.9 3.5 14.3 5.8 22.5 6.2 8.3 0.5 14.5-1.4 18.6-5.1-7.1-1.5-13.2-4.2-18.5-8.7-5-4.4-8.6-9.6-10.6-15.3-2.1-5.7-2.2-11.1-0.8-16.3 1.3-4.8 3.2-8.5 5.6-11.2 2.4-2.7 5.4-4.4 8.8-5.1 7.1-1.5 16.3 0.3 28.2 4.5 12.5 4.4 25.5 7.5 38.7 10.1-0.8 12.8-1.5 25.6-2.4 38.4q-1.3 19.1-2.6 38.3zm-42.2-36.5c1.4-7.9 2.7-15.7 4.1-23.6 1.3-7.9 2.6-15.8 4-23.7-11.2-4.2-19.7-5.7-26.1-4.8-3.2 0.5-6 2-8.2 4.5-2.2 2.6-3.9 6.1-5.1 10.6-1.4 4.9-1.3 9.9 0.8 15.1 2.1 5.2 5.9 10 11.2 13.9 5.4 4.1 11.9 6.7 19.3 8zm150.8 33.3c-15.6 2.9-31.4 5.1-47.4 6.7-2.8-3.8-5.4-7.7-8-11.5-2.6-3.9-5.2-7.8-7.7-11.7-4.4 4.1-9 7.9-13.5 11.7-4.6 3.9-9.4 7.5-14.1 10.8-2-0.2-3.8-0.4-5.7-0.7 5.3-3.8 10.7-7.6 15.8-11.9 5.1-4.3 10.1-8.7 14.9-13.1-5-8.6-10.1-17.1-14.7-25.7-4.6-8.7-8.8-17.7-13.1-26.6 13.6 1.3 27.1 1.8 40.7 1.4 2.4 3.8 4.8 7.6 7.1 11.4 2.4 3.8 4.9 7.4 7.5 11.2 3.6-4.3 7.2-8.8 10.6-13.3 3.4-4.5 6.6-8.9 9.8-13.6 1.5-0.3 2.9-0.6 4.4-0.9-3.3 5.3-6.9 10.6-10.5 15.6-3.7 5.1-7.7 10.2-11.8 15.2 5.6 7.8 11.2 15.5 17.1 23 6 7.5 12.2 14.8 18.6 22zm79.2-69c1.5 3.5 2.4 7 3 10.6 0.6 3.5 0.7 7.1 0.3 10.7-0.7 7.2-3.5 13.8-8.1 19.6-4.6 5.9-10.9 10.1-18.5 13.2-1.2 0.5-2.4 1-3.7 1.5-5.8 2-11.8 3.1-17.5 3-6-0.2-11.3-1.6-15.9-3.9-4.6-2.4-8.5-5.6-11.5-9.8-3-4.1-5-9.1-6.2-14.8-1-5.6-1.1-11-0.1-16.3 1-5.2 2.8-10 5.3-14.2 2.6-4.3 5.9-8.1 9.7-11.3 3.9-3.4 8.4-6 13.5-8.1 1-0.4 2-0.8 3-1.2 5-2 9.8-3.2 14.4-3.2 4.6-0.1 8.7 0.7 12.7 2.4 4.1 1.7 7.8 4.4 11.2 8.1 3.5 3.8 6.2 8.3 8.4 13.7zm-2.7 1.5q-3.9-9.8-10.6-15.6c-4.5-3.9-9.6-6-15.1-6.7-5.6-0.6-11.3 0.3-17.2 2.8-1.1 0.5-2.1 0.8-3.2 1.3 3.7 11.5 7.1 22.9 10.5 34.5q5.1 17.2 10.1 34.5c1.4-0.5 2.6-1 3.8-1.5 5.1-2.1 9.6-4.8 13.5-8.3 3.7-3.5 6.6-7.6 8.6-12.2q2.9-6.8 2.8-14c0-4.8-1.2-9.8-3.2-14.8z"/>
	<path id="Path 158" fill-rule="evenodd" class="s2" d="m791.2 918.9c4.3 6.6 5.2 12.7 2.3 18.3-2.8 5.7-9.1 12-19 18.7-10.2 6.8-21.1 13.2-32.4 19.7-5.3-11.9-10.6-23.7-15.8-35.6-5.2-11.9-10.4-23.8-15.9-35.7 9.1-5.8 17.8-11.7 26-17.8q7.8-5.8 13.4-8.3c3.7-1.7 7.3-1.9 10.7-0.7 3.4 1.1 6.7 4.1 9.8 8.9 3.3 5 5.1 9.6 5.5 14 0.3 4.4-1.2 7.9-4.5 10.5 1.6-1.2 3.7-1.6 6.2-1.1 2.6 0.4 5.1 1.5 7.7 3.2q3.9 2.5 6 5.9zm-19.9-8q0 0 0 0 0 0 0 0zm17.9 9.6c-1.6-2.6-3.7-4.5-6.1-5.7-2.4-1.3-4.9-2-7.4-2.2-2.7-0.1-5.1 0-6.9 1.2-2.9 1.9-4.5 3.9-6 5.2-2 1.7-3.6 1.7-4.4 0.3-1.1-2-0.5-3.8 1.8-5.5 0.6-0.5 2.1-1.1 4.2-1.9 2.2-0.8 3.8-1.4 4.5-2.1 5.6-4.8 5.6-12-0.1-21.4-2.8-4.6-5.9-7.2-9-8.2-2.9-0.9-6.2-0.6-9.5 1.1-3.3 1.8-7.4 4.5-12.2 8.1 5.9 10.6 11.8 21.2 17.5 31.8q8.5 15.9 17.2 31.8c6.1-4.2 10.6-7.9 13.8-11.3 3.2-3.2 5-6.6 5.6-10.1 0.5-3.5-0.6-7.2-3-11.1z"/>
	<path id="Path 159" fill-rule="evenodd" class="s2" d="m824.7 861c2.6 3 4.7 6 6.7 8.9 2 3.1 3.6 6.1 5 9.3q4 9.5 3.3 17.9c-0.6 5.6-2.7 10.3-6.5 13.9q-1 0.9-1.9 1.8c-2.9 2.8-6.4 4.6-10.5 5.5-4 0.8-8.2 0.6-12.3-0.7q-6.2-1.8-12.1-6.6-5.9-4.7-10.8-12.3c-3.3-5-5.9-10-7.7-15-1.7-5.1-2.8-9.9-3.2-14.3-0.4-4.5 0-8.5 1-12.3 0.9-3.7 2.4-6.8 5-9.3q0.8-0.7 1.5-1.4c2.5-2.5 5.3-3.9 8.5-4.3 3.2-0.4 6.6 0 10.2 1.2 3.7 1.3 7.5 3.5 11.6 6.5 4.2 3 8.3 6.7 12.2 11.2zm-1.4 1.5c-4.7-5.5-9.6-9.8-14.5-12.8-4.9-3.1-9.5-4.7-13.7-4.8-4.3-0.2-7.8 1.2-10.7 4.1-0.5 0.5-1 1-1.6 1.5 8 9.9 15.5 19.8 23.1 29.7q11.4 14.9 23 29.7c0.6-0.6 1.2-1.1 1.8-1.7q4-3.7 5.4-9.1c1-3.6 1.2-7.4 0.4-11.6q-1.1-6.2-4.4-12.5c-2.2-4.1-5.2-8.3-8.8-12.5z"/>
</svg>