<svg version="1.2" xmlns="http://www.w3.org/2000/svg" viewBox="0 0 1086 1332" width="1086" height="1332">
	<title>Shumen-pdf</title>
	<style>
		.s0 { fill: #31348e;stroke: #231f20;stroke-width: 1 } 
		.s1 { fill: #231f20;stroke: #231f20;stroke-width: 1 } 
		.s2 { fill: #231f20 } 
		.s3 { fill: none;stroke: #231f20;stroke-width: 1 } 
		.s4 { fill: #b98921;stroke: #231f20;stroke-width: 1 } 
		.s5 { fill: #3b8b50;stroke: #231f20;stroke-width: 1 } 
		.s6 { fill: #db212c;stroke: #231f20;stroke-width: 1 } 
		.s7 { fill: #f4c020;stroke: #231f20;stroke-width: 1 } 
		.s8 { fill: #657593;stroke: #231f20;stroke-width: 1 } 
	</style>
	<path id="Path 2" class="s0" d="m827.3 209.8c1.1-6.1 3.7-12.5 4.9-17.7 3.1-13.7 4-24.5 5.7-39.6 1.1-10.1 3.8-29.6 6.5-38.7 2.7-8.7 0.4-33.5 11.7-33.5h3.2c5.4 0 10.2 12 11.5 17.6 2.2 9.7 1.4 15.2 1.4 24.4 0.1 18.7-1.5 36.5-6.9 50.1-2.6 6.4-4.9 16.3-6.8 22.3-2.3 7.7-5 12.9-8.6 19.4-4.6 8.1-14.8 32-22.8 34.2l1.3-14-0.3-5.4c0-9.9-2.8-7.3-0.8-19.1z"/>
	<path id="Path 3" class="s0" d="m227.8 81.4h1c5.4 0 6.3 3.1 9.7 5.4 7 45.9 18.6 92.8 20.3 138.9l1 10.9c0 3.8 0.2 4.7 0.2 8.5 0 2-0.3 1.9-1 3.2-7-1.9-17.4-26-21.8-33.2-9.9-13.3-14-33.4-18.2-46.4l-5.3-61.5 2.2-8.6c3-4.5 5.1-17.2 11.9-17.2z"/>
	<path id="Path 4" class="s1" d="m379.5 244h6.4c4.1 0 9.3 5.6 9.7 10.8-7.4-3.6-15.9-0.7-16.1-10.8z"/>
	<path id="Path 5" class="s1" d="m700.1 244h4.3c11.5 0-6.7 12.6-12.9 9.7-1.2-2.6 4.7-9.7 8.6-9.7z"/>
	<path id="Path 6" class="s0" d="m901.3 264.4c3 0 7.5 1.9 7.5 5.4v7.6c0 2.9-7.9 17.7-9.8 20.3-4.4 5.9-8.8 10.8-15.5 14.6-7.1 4.1-31.9 19.5-42.5 14.6 6.7-12.7 7.6-18.3 7.6-32.3 5-0.4 51.9-30.2 52.7-30.2z"/>
	<path id="Path 7" fill-rule="evenodd" class="s0" d="m607 252.4c3.6 0.4 3.9 3.4 7.1 4.2-0.2 6.8-16.3 25-16.2 47.7-3.3 27.1-0.4 69.9-19.3 90.8-6 6.1-20 14.1-30.9 14.1h-7.3c-1.8 0-15.1-2.6-16.8-3.7-5.5-3.5-8.4-4.7-12.8-9.1-4.3-4.3-5.6-6.1-8.6-12.1-6.3-12.4-9.3-30.4-9.5-44.3 0-10.7-2.9-23.4-3.6-32.4 0-10.2-2.1-21.1-5.1-28.3-5.4-13.3-4.6-10.7-11.1-20.4 1.3-1.7 4.8-5.2 7.7-5.2 4.3 0 17.2 24.7 17.4 31 30.8 0 59.5 0.3 90.5-0.2 3.5-5.1 13.9-32.1 18.5-32.1zm-108.8 50.5c-1.5 17.6 3.1 56 4.3 62.4 4 20.1 18.4 37 41.6 37 15.7 0 31.2-13.3 36.6-24.8 5.5-11.8 7.5-35 7.5-52.8 0-5.9 3.4-31.8-1.6-31.8l-86.5 0.1c-2.2 0-1.4 4.5-1.9 9.9z"/>
	<path id="Path 8" class="s0" d="m186.9 264.4c17.5 11.8 32.2 21 51.6 31.3v16.1c2 3 4.3 8.3 6.4 12.1 3.5 6.2-5.5 2.6-9.6 1.9-7.1-1.1-21.5-6.4-27.1-9.4-11.7-6.4-29.9-25.8-29.9-43.3v-2.2c0-4.3 4.9-5.6 8.6-6.5z"/>
	<path id="Path 9" class="s0" d="m185.8 318.3c16.4 0 44.9 15.1 61.3 15.1l-1 0.3 8.3 22.4c-6.6 0.4-10.2 1.6-18.7 1.6l-7.3-0.9c-5.1 0-26.1-3.5-30.7-5.2-8.3-3.2-17.3-10.7-17.3-22.5v-5.4c0-2.5 2.9-5.4 5.4-5.4z"/>
	<path id="Path 10" class="s0" d="m902.4 319.4c2.5 0 4.3 1.7 4.3 4.3v7.5c0 10.3-17 24.1-29.9 24.1l-5.5 1.9-17.3 1.2-5.4-0.3-16.2-1.9 6.5-21.8c3.5-1.7 57.8-15 63.5-15z"/>
	<path id="Path 11" class="s0" d="m723.1 324.1c5.1-8.9 17.2-37.2 23.2-41.4 12-8.2 24.4-19.5 34.8-29.8 7.5-7.6 25-27.3 33-31.5 6.5 1.5 8.7 2.8 8.7 10.7v3.3c0 17.2-12.1 32.5-21.8 40.6-5.4 4.5-12.8 7.3-18.8 12.4-5.2 4.4-18.8 3.6-19.7 11.6 7-3.4 12.2-3.1 19.8-8.2 6-4.1 12.6-5 18.5-9.5 4.4-3.3 31.5-20 35.9-20h5.4c0.6 2.4 1.1 2.5 1.1 5.4 0 5.5-5 16.9-7.5 20.5-3.7 5.3-8.7 8.8-13.7 13.1-11 9.6-64.3 16.5-67 26.7 6.3-1.5 14.4-2.2 20.9-3.9 6.1-1.6 10.1-4.1 17.4-6.3 6.3-1.9 29.6-10.7 33.8-13.5l10.7-0.4c0.3 4 1.5 4.3 1.1 6.8l-1.3 9.7c-19 28.8-48.5 23.7-91.2 23.7l21.4 4.8 39.9-0.5c6.4 0 19.4-3.5 19.4 2.2 0 17.5-24.4 22.6-38.8 22.6h-4.3c-6.1 0-23.8-1.7-30.9-4.6-3.7-1.5-24.9-8.2-28.3-8.3v2.1c3 0.8 15.2 5.8 18.5 7.4 4.5 2.1 15.5 4.3 20.5 5.4 5.1 1 18.2 2.4 23.4 2.3 4.8 0 21.6-0.3 21.6 4.3 0 9.1-18.8 18.9-29.1 19.4-7.9 0.4-10.5 0.7-19.4 0-10.7-0.8-9.9-3.1-18.3-5.4-16.9-4.6-44.9-28.8-53.7-42 8.6-12.9 26.2-14.5 34.8-29.7z"/>
	<path id="Path 12" class="s0" d="m821.2 371.7c2.7-2.9 6.4-11.4 9.1-11.4h2.1c6.8 0 8.7 4 20.7 2.6l10.2 0.8c8.2-0.2 27.2-3 27.2 3v4.3c0 7-18.2 18.4-25.8 18.4h-18.3c-9.6 0-27.7-7.4-35.5-7.6 1.1-4.1 7.4-6.8 10.3-10.1z"/>
	<path id="Path 13" class="s0" d="m225.5 363.5c9.4 0.5 22.4-1.6 31.3-3.2l20.1 20.8c-7.7 2.4-29.8 8.3-36.2 8.3h-18.3c-10.5 0-25.9-11-25.9-22.7 0-5.1 25.6-2.9 29-3.2z"/>
	<path id="Path 14" class="s0" d="m272.9 220.1c7.4 5.1 25.5 25.1 33.1 32.8 11 11 21.6 20.9 34.3 30.3 4.1 3 11.3 14.7 13.2 19.1 4.2 9.7 7.3 14 10.7 21.5 7.2 16 33.6 23.4 33.6 31.1 0 4.3-25 25.5-30.5 28.7-10.9 6.3-25.3 16.5-41.6 16.5h-19.4c-10.9 0-28-8.6-28-19.4 0-3.5 25.9-1.4 30.7-2 7.5-0.8 16.6-0.4 26.6-3.7 16.7-4.6 19.6-10.9 27.7-12.6v-2.1c-3-0.7-1.8-1.1-4.3-1.1-1.5 0-22.3 9.5-26.2 10.4-4.7 1.1-28.4 4.3-33 3.6l-24.7-3.3c-6.3-4.2-16.1-10-16.1-20.4 0-3.9 18.5-0.6 23.6-0.6l6 0.8c11.6 1.2 53.2 2.2 53.2-5.6l-19.4 0.9-3.2 0.2c-31.1 0-71-4.5-71-34.5v-1c0-3.3 1-6.5 4.3-6.5h1.1c5.1 0 28.8 13.2 36.9 15 10.9 2.4 30.3 8.8 41.6 9.8-2-7.6-18.2-8.3-26.9-10.8-10.1-2.9-18.2-5.7-27-9.5-13.1-5.7-13.4-4.7-23.3-14.4-4.6-4.7-12.1-16.3-12.1-24.6 0-3.3 1-6.4 4.3-6.4h1.1c10.5 0 57 36.1 76.4 37.7-1.8-6.7-12.8-8.1-19.3-11.9-6-3.5-13.1-7.2-18.1-12.1-9.2-8.8-22.9-21.2-22.9-38.5v-1.1l1.1-11.9z"/>
	<path id="Path 15" class="s0" d="m394.5 414.1l13.3 20.3 6.1 0.2c9.8 0.9 18.7-7.8 32.3-9.7h3.2c5.5 0 12.9 1.2 12.9 6.5v1c0 4-3 8.6-6.4 8.6-3.3 0-6.1-5.3-9.7-5.3-5.4 0-1.8 7.6-3.3 14l-3.2 1c-12.1-1-9.1-6-15.5-9.2-8.3-4.1-14.9 2.8-18.9 2.8-5.8 0-20.5-24.1-20.5-24.8 0-4.2 6-4.5 9.7-5.4z"/>
	<path id="Path 16" class="s0" d="m692.5 414.1c3.3 0.8 9.8 1.7 9.8 5.4-0.1 0-14.7 23.7-18.3 23.7h-1.1l-20.3-3c-4.2 6.9-8.6 10.3-18.5 10.5-1.1-2.1-2.1-3.1-2.1-6.4 0-3.4 3.1-7.6-2.2-7.6-0.3 0-6.7 4.3-8.6 4.3-2.6 0-6.4-3.8-6.4-6.4v-3.2c0-5.1 8.5-7.6 14-7.6 5.9 0 26.3 8.2 30.1 10.8l9.3 1.5z"/>
	<path id="Path 17" class="s0" d="m738.7 409.9c8.1 1.8 9.9 3.6 12.4 11.3 2.3 6.7 7.4 13.3-1.5 11.2v3.3c0 5-22.5 23.5-26.9 30.1 6.8 4.6 16.1 9.4 16.1 20.5 0 4.5-4 8.6-7.5 8.6h-1.1c-5.3 0-8.6-4.3-10.7-7.5v-7.6c-5.5-2.9-17.8-11.8-24.8-11.8h-4.3c-3.7 0-1.6 2.1-5.4 2.1-4.4 0-10.7-0.9-10.7-5.4 0-4 0.7-2 1.1-6.4-5.3 1.4-3.6 4.3-7.6 4.3h-3.2c-2.7 0-5.4-4.5-5.4-6.5v-2.1c0-2.6 3.9-6.5 6.5-6.5h10.7c4.9 0 27.3 12.3 34.5 14 4.4-3 23.6-23.1 23.6-29.1v-4.3h4.3c3.7 0 4.2 0.8 7.5 1.1z"/>
	<path id="Path 18" fill-rule="evenodd" class="s0" d="m925.5 940.2l-44.9 11.1-2 1.5-12.9 1.8-3.1 2.3c-12.7 0-18.7 9.8-22.5 18.4-2 4.5-14 20.2-17.6 24.4-7.3 8.3-10.3 13.6-18.8 22-2.4 2.4-20.8 20.4-20.8 21.3 0 2.4 38.7 44.5 43.1 47.4 7-4.7 16.4-7.8 24.3-12.3 8-4.6 23.1-5.7 28.4-8.9l20.4-1.4c-4.2 18.1-25.9 53.6-43 58.1 3.2 11.9 55.5 59 58.1 69-8.8 0-38.2 3.2-43.1 6l-27.9 4.7h-5.4c-1.3 5-25 51.9-28.3 54.2l-34.1-40.2c-12.1 0-29.8 0.5-38.3-0.4-15-1.7-21.7-4.4-34.8-6.1-8.3-1.1-21.1-9.3-27.4-13.5-4.6-3.1-21.7-17-24.3-17.7v-2.8l37.7-2.6c16.2-1.2 35.8 2.9 50.7 9.5 3.1 1.4 14.5 7.7 15.3 7.4l-33.7-41.6c-20.2 6.4-34 12.6-54.9 12.9h-15.1c-2.9 0-3-0.5-5.4-1.1 1.8-7.6 12.8-24.7 17.5-30.9 3.7-4.9 23.2-24.4 23.4-25.1-3.7 0.1-30 10.1-36.2 12.2-20.2 6.1-39.2 10.4-47.1 11.2l-5 0.9-45.1 3.7h-9.7c-8.7 0-15.7-0.8-22.5-1.1-9.5-0.4-15.4-2-21.6-2.1-14-0.4-25.3-6.5-41.8-7l-26-9.2c-9.5 0-26.5-10.7-29-10.7-2.5 0-2.1 3-2.2 5.4 5.4 0.4 22.7 18 25.5 22.9 1.5 2.7 21.8 30.9 12.2 30.9l-17.3 0.3-15.1-1.2c-11.8-2.1-33.4-12.1-37.6-13.1-2.2 0-30.3 37.2-34.6 42.2l1.3 0.9c0 0 10.8-6.2 12.4-6.9 5.8-2.4 8.3-3.8 14.6-5.9 9.3-3.1 24.2-4.5 33.2-4.5l4.4-0.3 36.5 3.6c-2.2 8.4-38 30-49.4 32.4-10.9 2.2-20.6 6.4-34.5 6.3-11.6 0-26.3 1.1-39.4 1.5l-33.8 40.5c-4.7-1.2-13.5-21-15.2-26.7-2.7-8.7-12-20.1-13.8-28.2l-4.3-0.1-72.6-11 58.6-68.6c-10.5-2.8-21.9-15.5-27.7-23.9-3.2-4.6-16.3-29.7-16.4-35.3h6.4c6.1 0 6.6 2.2 15.1 2.2 0.1 0 26.5 9.2 28 9.6 7.3 2.2 22.6 11.5 26.9 11.9l-1-0.9 42.9-46.5c-3.2-4.9-13.7-14.3-18.5-19.1-6.8-6.7-11.6-13.8-17.8-21-13.2-15.4-20.3-28.3-31.5-44.6l-21.6-3.4-3.3-1.7-52.5-12.5c6.1 9.2 9.5 11.6 15.4 23.3 2.7 5.5 11 21.6 11.5 27.3h-6.5c-7.1 0-23.8-5.3-29.3-7.3-11.9-4.2-15.2-5-23.2-13.4-5.4-5.7-10.5-14.9-13.3-23.3-2.4-7.4-7.8-21.9-9.3-28.7l26.6 8.4 23.8 10.5c-2-7.6-12.5-35.8-12.2-40.4 0.2-3-6-41.7-7.2-46.8-15.2-3.6-30-4.5-44.8-9-5.4-1.7-10.3-35.4-11.1-42.8-1.7-15.8-4.3-30.3-7.2-46.7-7-36.6-7.7-72.9-5.1-110.5 0-43.5 59.6-114 59.6-116.3 0-3.4-19.2-21.4-22.6-23.6 10.6-15.9 22.3-36.6 31.2-53.9 4.7-9.3 11.8-16.3 16.2-25.8 4.4-9.9 12.9-17.9 17.2-25.2l13.9-0.7 43.1 0.7 46.2-1.8h7.6c1.1 0 16.3 11.9 21.5 11.9h5.4c-0.1 5.1-16.7 35.5-20.1 42.4-1.9 3.9-19.7 42.3-19.7 42.7 0 4 12.2 14.9 15.3 18 2.2 2.2 15 17.5 15.9 17.5 2.4 0 19.9-16.4 22.8-19.1 4.1-3.9 23.6-17.2 24.5-18.6-0.2-0.4-2.1-4.2-2.1-4.3-1.5-8.2 7.9-18.5 8.6-18.3 0-7.3-23.5-18.5-23.7-29.1h-25.8v-4.3c0-3.8 10-25.4 14-28l11.4-0.8c22.8-4.1 30.2-8.4 47.7-19.4 9.3-5 25-25.4 31.2-34.7-2.5-3.8-16.1-8.8-16.1-12.9 0-4.9 20.4-27 20.4-36.6v-3.3c0-12-19-28.6-26.7-34.6-8.7-6.9-6.4-9.2-18.1-13.1-8.4-2.8-17.3-2.5-21.8-8.9l26.5-3.6 17.1-5.6 0.4 1.2v-3.2l12.9 0.2 40.9 3c5 0.4 4.8-1 9.7-1.1l-0.1 2.9-22.2 10.6 5.1 2.9 19.4-0.2c-1.4 5.2-14.2 12.9-19.4 12.9h-8.6c-3.6 0-8.1-2.2-9.9-4.5l-0.9 1.3c-0.1 0.2 0.6 0.1 0.7 0.4 0.3 1 0.7 0.4 1.2 0.9 0.3 0.3 1.3 1.3 1.7 1.6 1.3 1.3 1.8 2 3.2 3.3 2.4 2.4 4 4 6.4 6.4 4.5 4.5 9.1 8.3 12.7 13.2 8 11 13 20.2 20.1 31.3l2.5 19.3c2.5 19.6-9.9 39.7-17.7 50.2-2.7 3.6-14.3 14.1-17.8 16.6-2.9 2.1-22.6 10.1-22.6 11.8 0 3.1 6.9 13 9.6 13h2.2c2.4 0 17.8-5.5 21.3-6.7 12.6-4.6 8.9-3 22.8-3 7.8 5.2 10.5 10 12.9 20l57-7.2q12.8-1.4 31.2-0.6l49.5 7.2c8.6-12.8 0-9.3 15.1-19.4 13.3 0 11.3-2.3 23.5 3.4 4.4 2.1 17 6.3 22.8 6.3 1 0 8-10.5 8.6-13-9.9-5.2-24.6-13.1-32-20.7-5-4.9-8.3-9.1-12.9-14-5.3-5.5-6-11-10-16.9 0-8-3.2-10.8-3.2-17.3v-17.2c0-15.7 20.8-38.9 28.4-49.1 9.4-12.7 29.5-27.1 38.3-40.3-7.5 2-20.4 23.7-30.1 23.7h-4.3c-9.5 0-23.9-5.6-25.9-12.9 3.4 0.3 3.9 1.1 7.6 1.1 2.4 0 14.3-2.6 17.2-3.3v-2.1l-0.6 1.1-21.6-11.7 0.7-1.3c3.3 0.3 3.8 1.1 7.5 1.1l8.6-0.3 36.6-2.9h10.7v3.2h6.5c6.4 0 7.2 5 18.3 5.4 6.9 0.2 13.7 2.1 21.5 2.1-2.2 6.3-14.3 7.3-21.9 9.3-9.8 2.6-11 8.3-17.7 13.6-10 7.8-26 19.4-26 36.4v1.1c0 10.8 19.3 32.4 19.3 36.6 0 4.3-10.9 10.9-15 11.8 6.2 26.6 54.3 57.1 89.3 57.1 1.1 0.8 2.2-0.4 3 0.5 3.4 3.4 3.7 9.3 6 15.2 1.9 4.8 9.3 15.5 2.8 15.5h-22.6c-1.6 6.1-24.7 25.4-24.7 28 0 3.3 8.6 8.2 8.6 16.2v4.3c0 2.9-0.5 2.9-1.1 5.4 18.1 9.5 29 24.3 44.2 34.5l32.2-33.5c-3.7-7.7-5-12.8-9.5-20.6-2.1-3.7-8.6-18-9.7-21.5-2.6-8-20.6-39-20.6-41.9 0-4.1 3.6-3.2 7.4-3.7l7.4-2 11-8.3c27.1 0 86.2 5.8 110.8 0 5.6 8.4 10.6 17 16.4 25.7 5.6 8.3 10.7 17.4 15.7 26.2 5.2 9.3 10 17.3 15.7 26.3 5.8 9 9.7 19.1 14.7 28.5-3 4.4-20.5 18.8-20.5 22.6 0 0.9 32.8 49.6 36.4 55.1 3.2 4.9 12 24.2 14.7 30.4 11.4 26.3 9.2 52.1 9.2 79.2 0 11.9-1.8 39.9-4.1 48.7-3.6 13.9-12.1 85.9-14.2 89.2 0 23.1-8.8 13.8-26.7 18.5-6 1.6-10.5 3.1-18.3 4.3-11 1.8-5.1 4.3-7.1 15.5-3.4 19.4-11.2 59.4-19.2 71.5zm5.5-3.1c3.7-1.4 6.6-4.2 10.7-5.5 6.3-1.8 7.5-2.1 13-4.2 3.4-1.2 24.7-8.1 26.2-8.2-1 12.3-16.5 46.1-23.9 53.5-7.6 7.6-15 9.7-25.8 13-6 1.9-27.3 7.9-32.6 5.2 0.5-2.1 2.4-4.4 2.7-6.2 2.5-17 17.3-31.5 25-43.2 0.4-0.1 4.3-4.3 4.7-4.4zm-28.6 52.1c14 0 41.3-8.4 49.2-14.3 13.2-11.8 19.4-34.9 25-51.4-11.1 0-41.6 12.9-47.6 19.1-5.5 5.6-10.5 11.7-14.5 18.9-3.6 6.7-6.2 16.4-9.9 21.6zm-285.8 141.1l40.5 1c-0.8 3.3-13.4 17.2-16.4 20.2-6.4 6.4-13.2 12.2-21.3 16.4-13.2 6.9-40.6 14-60.2 14h-9.7c0.2-9.6 11.3-17.5 16.6-25.4 7.1-10.7 18.6-19.3 30.7-22.8zm76.7 75.8c11.1 4.1 34.8 10.4 48.9 10.4h26.9c-0.6-7.1-21.8-23.4-28.6-26.4-10.9-4.6-28.8-10.3-43.5-10.3h-20.5l-18.3 2.2c5.4 8 24.7 20.2 35.1 24.1zm-264.2-24.1l-20.4-2.4-24.8 0.2c-12 0-31.8 7.1-40 11.7-6 3.2-25 18.6-25.7 25h24.8c31 0 74.1-16.6 86.1-34.5zm288.3-35.5c0-0.2-25.6-33-27.9-34.5-6.4 3.4-20.4 15.8-23.6 21.7-3.5 6.5-14.4 21-16.3 27.8h21.6c7.3 0 46.2-8.1 46.2-15zm-349.1 1.7c1.2 0.5 21.1 7.9 24.2 9 7.4 2.7 17.8 4.3 28 4.3h16.1c-3.5-14.9-26.8-43.2-39.2-49.9zm245.2 19.2c10.5-6.1 34.2-22.5 37.2-33.8-23.9-1.6-48.7-3.1-69.5 12.2-6.1 4.5-25.4 25.9-27.3 33 19.5-1.6 46.2-3.6 59.6-11.4zm192-83.2c6.3 9.1 25.2 25.7 29.8 33.7 7.2 12.6 56.9 62.6 57.5 69.5h-7.5c-2.4 0-2.4 0.8-4.3 2.2-9.2 0-48.9 6.6-52 10.4-0.1 0-20 40.9-20.1 41.2-6.1-1.6-51.4-59.5-58.3-68.7-7.5-10-50-66.3-55.8-70.2l-5.4 2.1c0.5 1.7 53.3 68.1 59.5 76.2 11.4 14.9 49 65.5 61.1 73.6l25.6-51.3 1.2 0.1 34.4-5.4 3.2-1.7 33.4-3.6-127.3-146.5-5 4.8c7.8 11.6 21.5 21.3 30 33.6zm-552.1 32.9c9.5-9.5 20.7-23.6 29.1-34.4 9.1-11.4 22.7-21.7 30.4-33.1-1.3-1.9-2.4-4.4-5.4-4.4-3.2 0-58.3 65.8-65.4 73.6-5.9 6.5-63.5 73.2-63.7 74 6.8 0 29.7 2.8 35.1 4.6 10.2 3.5 26.6 2.4 34.9 5 4.8 1.5 12.8 19.8 14.8 25 2.5 6.3 12 22.1 13.1 26.8 6.2-1.7 121.1-145.2 121.6-150.8l-5.4-2.1c-5.3 3.5-49.2 60.8-56.4 70.6-8.8 11.8-49.1 63.6-57.7 69.3l-22.3-45.3-0.4 1-61.2-10.6c0.1-0.2 54.4-64.6 58.9-69.2zm95.9-624.2c-37.9 20.2-82.8 72.8-105.5 109.5-22.1 35.6-49.3 109.1-49.3 166.1v30.1c0 10 2.8 28.2 4.3 37.7 3.5 22.7 9.9 45.3 17.1 67 3.7 11.1 8.6 19.4 12.4 29.5 6.3 17.1 21.5 38.2 31.2 52.8 10.8 16.2 24.6 31.4 38 44.8 28.7 28.8 59.6 50 98 68.9 30.3 14.9 89.3 33.2 133.6 33.2h28c20 0 76-8.3 86.1-15.1 9.2 0 39-12.5 46.3-16.1 6.7-3.4 14.5-6.3 21.1-10.2 6.4-3.7 12.5-8.3 18.5-11.6 24.8-13.8 48.7-35 68.2-54.4 18.1-18.2 39.8-47.9 52.7-71.1 7.8-14 13.2-26.2 19.7-41.8 3.5-8.4 13.2-42.1 15.6-45.7 0-8.4 4-23.7 5.6-34.3 1.7-11.7 3-22.2 3-36.8v-37.7c0-6.6-4.8-40.4-6.6-46.1-2-6.6-2.9-15.1-5.3-21.7-1.9-5.4-4.9-14.8-6.2-19.6-3.9-14.2-9.8-25.3-15.3-37.5-3.2-7.1-4.7-11.5-8.8-18.1-2.6-4.2-7.5-12.3-9.7-16.1-11.2-20.6-30.2-43.1-46.3-59.2-10.1-10.1-16.3-16-27.4-25.3-3.3-2.8-28.3-21.7-28.3-23.4 0-2.1 2.2-0.8 2.2-4.3v-4.3c0-8.1-9.7-11.4-9.7-16.2 0-1.4 17.7-17.9 20.2-20.7 4.7-5.7 3.2-10.5 9.8-10.6 6.3-0.2 13.1 0.1 19.5 0.1l-9.2-24.7-7-0.1c-14.4 0-44.5-14-53.5-20.7-11.7-8.8-29.9-24.9-33.6-40.7l16.3-10.5c-5.9-11-20.6-26.2-20.6-40.1 0-12.2 17.1-27 24.4-33.7 2.6-2.2 14.1-13 15.4-13.7 7-3.8 16.1-3.8 21.5-7.5-3.6 0-16.3-0.7-19-1.5-4.7-1.4-6.9-5-15.4-5-4.3 0-40.3 36.8-44.9 42.3-11.6 13.8-29.4 33.4-29.4 57.9v1c0 16.5 12.1 38.7 20.2 47.7 10.5 11.7 26.8 19.1 41.2 26.7l-12.1 17.7c-16.3-0.5-29.3-11.3-35.3-11.3h-5.3c-11.1 0-18.6 10.3-19.4 20.5h-3.2l-59.3-7-12.8 0.5-3.8 0.3-59.8 5.4-2.1 0.8c-5.1 0-2.8-20.5-21.5-20.5h-1.1c-12.4 0-24.1 10.8-37.6 10.8-3 0-12.1-14.4-14-17.2 26.6-14.1 60.2-32.2 60.2-72.2v-6.5c0-24.9-21-47.5-34.1-60.5-8.2-8.2-15.5-15.6-23.7-23.7-10.4-10.4-12-18.9-29.3-7.3l-19.4 1.1c6.1 3.9 15.5 3.3 21.3 7.8 4.9 3.7 8.8 9.8 14.2 13.7 8.4 6.1 23.7 19.5 23.7 33.4v3.2c0 10.9-14.1 27.8-19.4 35.6 4.3 6.3 16.2 9.7 16.2 14 0 1.9-13.4 20.4-15.9 22.9-8.1 8-11.5 10.3-20.5 17.1-11.3 8.4-38 19.2-57.2 19.2l-10.3 24.5 24.3 0.3c3.1 13.4 24.9 26.2 24.9 31.8 0 1.4-4.3 5.8-7.9 9.9-2.9 3.4 0.8 12.6 1.7 14.6-0.1 0.7-0.4 1.5-0.6 1.9zm0.1-0.1c-0.5 0.8-0.4 0.6-0.1 0.1q0.1 0 0.1-0.1zm-142 609.5c3.4 5.5 18.1 20.5 25.8 20.5 0.8 0 24.3-26.8 25.9-29.1-6.2-8.4-49.6-22.6-66.7-22.6 0.7 5.7 12 26.3 15 31.2zm518.9 33.1c8.9 10.7 17.5 24.2 26.4 34 13.4 14.7 42.2 57.8 55.1 66.5l21.4-43.2 27-2.5 3.1-1.9 27.1-3.7 0.7-1-114-131.5c-13 8.9-23.3 17.9-36.5 26.4-5.1 3.3-36.1 20.8-37.5 22.7 5.8 8.6 19.9 25.4 27.2 34.2zm-391.3 33.3c6.8-9.1 52.2-65.6 53.2-69.6-13.2-7-26.2-13.4-38.1-22.2-6.1-4.5-11.6-7.9-17.7-12.4-5.7-4.3-11.2-9.5-17.4-12.8-4.2 6.3-9.3 11-14.8 16.4-5.9 6-9.2 11.2-14.5 16.7-5.3 5.6-9.7 10.7-15.1 16.2-5.2 5.3-8.1 11.4-13.4 16.7-5.8 5.6-55.5 63.6-56.2 66.5l52.6 9.2 4.4-0.6 20.4 43.1c5.7-1.6 49.9-58.2 56.6-67.2zm-205.3-201.8c11.2 9.6 33.1 18.8 44.4 20.2h7.5c-1-12.1-16.5-35.8-23.4-43.4-5.7-6.4-35.8-16.6-46.5-19.1 1.2 9.6 12.8 36.6 18 42.3zm833.1-391.2c13 22.5 18.5 53.7 22.3 78.9 2 13 2.4 30.6 2.4 45v1.1c0 6.8 1.1 36.6-4.3 36.6h-8.6c-5.6 0-2.2-7.3-2.2-13v-24.7c0-29.8-5.6-58-10.5-82.1-2.6-13-8-22.9-13.1-33.1-2.6-5.1-15.8-27.6-16.2-29.1-4.9 0.4-18.3 16.1-18.3 17.2 12.4 25.6 44.4 93.2 37.7 159.4v9.7c0 19.5-0.4 42.8-3 59.4-1.3 8.1-2.3 20.9-2.4 28.9-0.1 12.7-0.5 18.3-12.9 18.3v-9.7l2.5-31.2-0.4-61.4c0-21.7-5.1-69.2-9.6-87.2-4.9-19.4-17.6-55-26.9-69-2.7 1.8-25.9 26.2-25.9 28 0 0.4 13.5 31.9 15.2 36.5 5 13.4 8.6 24.3 12.6 39.1 5.1 18.8 12.8 67 9.8 92.3-1.6 13.9 0 36.6-3.1 48.6-1.6 6.1-2.5 15-3.7 22.2-1.3 7.8-3.8 13.9-4.9 19.9-1.9 10.8-8.4 29.3-12.6 39-3.5 8.3-13.9 28.7-15.4 35.2 7.3-0.2 28.5-7.1 36.7-8.5 14.6-2.7 21.8-4.4 25.1-19.1 4.7-21.1 14.6-48.8 14.6-73.6l49.4-11.3c0.1-8.3 4-28.6 5.7-38 1.8-10 3.6-28.8 6-38.2 4.3-16.9 7.7-59.8 7.7-80.5v-21.6c0-36-11-50.9-21.6-75.2-5.5-12.6-36.2-52.6-37.5-58.3-2.9 1.9-16.2 13.9-16.2 17.2 0 0.4 19.4 28.6 21.6 32.3zm-851.3 34.3c4.6-15.3 7.9-23.2 13.8-36.7 2.4-5.6 19.7-30.1 19.7-30.9 0-1-13-14.9-15-16.2-1.5 5.3-33.1 48.1-39.4 60.8-11 22.3-20.9 45.3-20.9 78.1v3.2c0 32.3 4.3 59.4 7.6 88.2 3.1 26.5 10.7 56.2 12.8 82 5.7 0 32.8 5.9 38.6 7.7 7.6 2.2 12 0.6 12.1 11.6 0 10.1 1.8 12.8 3 19.7 2.5 15.2 3.6 24.6 8.1 38.1 4.5 13.2 4.8 25 21.7 25l42.4 10-21.5-48.6c-11.6-37.3-15.8-61.4-18.9-101.1l0.6-50.7 6.4-43.5 1.1-4.2c0-17.1 23.3-71.7 30.2-84.8l-25.7-28.1c-11.1 16.5-21.9 48.9-27.7 71.6-4.3 17.1-10.1 68.2-10.1 87.9v43.1c0 15.6 2.2 26.6 2.1 43.1 0 10.3 5.1 14.9-4.9 12.5-8.6-2.1-5.3-5.1-7.4-15.3-2.3-11.5-1.1-29.7-2.9-42.2-1.8-11.5-2-29.8-2-43.3v-14c0-60.3 13.9-123.9 37.7-159.4-2.3-4.3-13-17.9-18.3-18.3-0.6 2.2-13.6 22.8-16.1 28-4.6 9.2-9.6 20.1-12.7 30.3-4.4 14.2-11 57.9-11 75.2v42c0 3.4 2.8 6.5-2.2 6.5h-8.6c-6.1 0-5.3-30.5-5.3-37.7 0-33.6 4.9-64.1 12.7-89.6zm803.9-197.9c9.1 13.6 48.6 74.1 51.6 87.2-6 11.4-44 44.9-55 59-5.4 6.9-53.6 58.4-53.6 59.4 0 4.1 0.7 2.1 1.1 6.5 11.3-1 96.1-108.6 117.2-122.8-5.8-12.1-54.8-100.1-61.3-100.1-3.1 0-115.9 116.5-123.7 128.1l5.3 4.3c1.2-4.1 110.3-117.4 118.4-121.6zm-747.8 138.4c-10.4-10.7-20.1-19.6-23.7-24.3-5.2-7-23.3-25.1-23.3-26.1 0.7-8.7 44.4-76.7 51.3-87 9.9 6.6 116.9 117.5 119 123.6l6.9-6.2c-5.1-9.7-124.3-130.3-125.9-130.3-5.3 0-28.2 42.9-32.9 49.7-3.4 5.1-29.5 48.3-29.5 51.5 0 0.4 27 27.6 29.9 30.5 10.9 10.9 18.7 20.9 29 32.3 7.7 8.5 52 60.5 58.9 61 0.6-2.9 2.1-4.5 2.1-6.6 0-4.7-35.5-41.1-61.8-68.1zm-6.8-10.7l70.3 74.7c4.6-5.1 20.7-32.2 26-39.6 5.1-7 11.2-12.1 16-18.6 4.8-6.6 11-10.6 16.1-18.3-14.5-21.6-42.7-41.6-57-61.3-6.8-9.4-50-53.1-59.2-59.3-4.9 3.3-49.5 76.6-49.5 81.9 0 4.6 30.8 33.5 37.3 40.5zm636.7-3.4c3 4.2 12.8 14.2 16.5 18 5.2 5.5 10.3 13.2 15 19.5 4.5 5.9 25.4 39.4 27.2 40.6 12.2-8.1 40.4-44.2 53.6-57.3 6.4-6.4 21.3-22.5 26.5-29.5 3.1-4.2 27.5-26.8 27.5-28.4 0-4.3-45.9-80.3-50.2-83.6zm-0.7-131c-3.5 1.9-8.3 2.9-11.6 4.5l38.7 78.6c2.2-1.5 12.9-11.9 12.9-14 0-1.8-11-17.8-12.7-20.7-4.2-7.1-7.8-16-12-22.4 0.6-1 1.7-3.2 3.2-3.2 6.5 0 22.6 35.9 28 39.8 2.6-1.7 14-11.8 14-15.1 0-3.8-28-33.1-28-34.4 0-2.5 1.8-4.3 4.3-4.3 6.1 0 26.9 26.5 32.5 30.4l10.8-11.4-40.1-34.1c-6.9 0-27.5-1.4-30.1 0-2.9 1.4-6.3 4.4-9.9 6.3zm-545.3-6.1l-41.1 35.6 11 10.5c6.9-4.6 26.6-31.2 33.3-31.2 2.1 0 4.3 1.9 4.3 3.2 0 2.1-29 33.8-29 35.5 0 3.3 12.3 14.4 14.9 16.1l25.1-41.4 6.3 2.7c-2.6 4.9-24.8 44.7-24.8 45.3 0 3.2 10.9 13.1 13.5 13.7l38.2-80.5c-9.9-0.8-16.4-6.6-22.6-10.3zm627.2 32.1l22.4-20.7-0.8-0.9-46.7 0.5zm-645.5-21.7h-46.2c0.8 3 19.3 21.6 20.4 21.6 3.5 0 23.4-18 25.8-21.6zm617.3-2.9l52.2 1 8.4-8.8-67.3 0.5zm-667 1l54.4-1 6.1-7.9-69.1 0.3zm179.2 58.2c-1.3-6.9-25.1-21.8-25.1-31.5v-3.3l-5.3 1.3c-0.1-9.5 6.6-19.5 13.2-22.6 8.2-3.8-3.1 12.2-4.7 19.2l11.9-1.1v6.5c0 1.9 20 25.2 22.6 26.9 12.3-2.9 26.4-14 37.6-14h7.6c2.9 0 2.8 0 4.8 1.9 1.2 2.8 1.6 3 1.6 6.7 0 3.3-1 6.5-4.3 6.5h-3.2c-4.3 0-4-5.1-7.2-3.9-2.9 1 0.7 2.6 0.7 7.1 0 1.9-5.9 4.3-8.6 4.3h-2.1c-4 0-2.5-3.2-6.5-3.2h-1.1c-8.1 0-21.3 9.9-26.9 12.9v7.5c-2.1 3.3-4.4 7.2-9.8 7.2l-1.4-0.3c-2 0-4.3-13.6-2.3-16.6zm516 636.1c3.7-4.9 15.1-23.8 15.1-31.2l-23.6 3.5c-7.6 4.8-37 11.6-42 19.1l24.7 29.1c11.3-0.9 20.4-13.2 25.8-20.5z"/>
	<path id="Path 19" class="s1" d="m480.6 560.3c-1.4-4.8-3.3-7.1-3.7-12.2-0.1-1.4-1.7-13.5 1.4-13.5 7.9 0 8.9 13.8 10.8 20.7 0.8 5.4 7 20.4 7.5 22.2l0.9 2.6h-3.5c-3.6 0-12.2-15.5-13.4-19.8z"/>
	<path id="Path 20" class="s1" d="m552.6 527.1c1.7-0.7 10.7-2.8 12.2-1.2 1.1 1.1 1.8 8.2-2.4 8.8-8.7 1.4-4.4-1.7-11.9 3.3 0 11.5 0.7 24.7-10.7 24.7-1.5 0-2.2-1.4-2.2-3.2v-2.2c0-1.7 7.6-7.5 7.6-22.6 2.2-3.4 3.3-5.8 7.4-7.6z"/>
	<path id="Path 21" class="s1" d="m531.7 624.8l21 13.2-3.3 6.5-0.7 1.3-22.5-13.5z"/>
	<path id="Path 22" class="s1" d="m485 650c0-4.9-2.1-15.1 3.1-15.1h8.6l-4.4 6.4c0.1 10.5 2.9 22.7-7.4 22.7h-5.4c1.6-5.8 5.4-4.4 5.5-14z"/>
	<path id="Path 23" class="s1" d="m460.5 661c5 1 25.5 9.3 25.5 13.7 0 2.3-0.4 1.4-1.1 4.3-6.4-0.5-24.1-9.8-26.9-14z"/>
	<path id="Path 24" class="s1" d="m287.9 656.3l6.6 1.3c1.6 2.3 4.3 3.7 4.3 6.4v4.3c0 2.4-0.8 3.2-3.3 3.2-0.3 0-5.4-4.4-7.7-5.2-6.4-2-5.8-0.2-10.6-0.2-2.2 0-4.2-7.5 7.7-7.4z"/>
	<path id="Path 25" class="s1" d="m514 591.8l10.7 1.3c1.3 1.7 2.2 1.7 2.2 4.1v7.5c0 5-6.5 18.4-6.5 22.6 0 5.8 16.2 38.3 16.2 46.3 0 1.4-2.3 3.3-4.3 3.3h-1.1c-5.2 0-9.6-18.1-11-23.5-2.2-8.4-6.8-19.2-8.4-26.1-1.8 0.5-4.3 1.3-4.3 3.3 0 4.9 16.1 32.4 16.1 48.4h-3.2c-3.8 0-8.8-17.9-9.9-22.3-1.1-4.3-9.5-20-9.5-22.9v-1.1c0-11.7 17.3-10 17.3-21.5v-8.6c0-6.9-22.6-2.9-22.6 12.9l-4.3 2.2-5.4-1.1c0.7-8.8 17.7-26.2 28-24.8z"/>
	<path id="Path 26" class="s1" d="m713.1 606.9c6.8 4.6 15 13.4 17.1 22.6h-4.3c-1.6 0-10-6.3-11.8-7.5-2.7 1.8-7.5 11-7.5 14v14c0 5.4 6.4 14.6 6.4 19.3v5.4c0 4.7-10.2 5.4-15.1 5.4l1.6-43.9z"/>
	<path id="Path 27" class="s1" d="m720.5 645.6c2.5 0.7 4.3 1.1 4.3 4.4v1c0 3.3-0.4 4-1 6.5 1.9 3.7 3.2 7.3 3.2 12.9 0 1.3-2.2 3.2-4.3 3.2h-3.2v-24.7c0-2.1 0.3-1.9 1-3.3z"/>
	<path id="Path 28" class="s1" d="m491.8 701c1.6-3.6 11.6-26.3 13.6-26.3 3.1 0 6.4 3.7 6.4 6.5 0 4.7-21.7 44.1-28 44.1h-2.1c-3.7 0-4.2-0.8-7.6-1 1-3.5 14.3-16.4 17.6-23.3z"/>
	<path id="Path 29" class="s1" d="m716.3 682.6c1.2 1.6 2.1 1.6 2.1 4 0 2-18 5.8-20.5 6.4-1.4-2.8-1 0.9-1-3.2 0-3 3.5-5.2 5.4-6.2z"/>
	<path id="Path 30" class="s1" d="m347.2 680.1h6.4v2.2c-6.7 0.5-11.6 16.1-18.2 16.1h-3.3v-3.2c0-3.4 11.2-15.1 15.1-15.1z"/>
	<path id="Path 31" class="s1" d="m731.9 689l5.9-0.3c2 0 4.3 1.9 4.3 3.3 0 3.3-2.4 5.1-4 6.2z"/>
	<path id="Path 32" class="s1" d="m283.7 680.1c2.5 0 3.4 4.6 4.3 6.5l-7.7 8.5 0.2 10.9c-3 4.4-1.2 4.5-3.9 9-2.2 4-3.1 4.2-4.9 6.9-2.5 3.7-6.4 12.1-11.7 12.1-2.9 0-2.6-0.9-3.2-3.3 10.6-2.8 8.8-18.1 14-25.8 0-7.2 6.8-24.8 12.9-24.8z"/>
	<path id="Path 33" class="s1" d="m505.1 721.9c2.1-5.8 13-29.2 13.2-31 2.4 1.3 6.4 2.9 6.4 6.4 0 0.1-9.2 25.5-10.2 27.5-5.7 12.5-9.9 13.6-15.6 22.1l12.4 14.5 2.7 0.6c0.4-5.4 4.7-7 7-11.3 2.1-3.8 3.9-9 5.7-12.6 5.5-10.9 4-15.6 14.2-22.5 1.9 1.7 3.2 1.3 3.2 4.4v5.3c0 3.1-28.9 39.6-31.2 49.6-7.8-2.1-18.4-24.7-26.9-26.9 0.3-4.4 15.2-15.2 19.1-26.1z"/>
	<path id="Path 34" class="s1" d="m575.3 699.5h4.3c2.9 0 3.2 1.5 4.3 3.2-2.5 3.7-6.4 9.1-5.4 16.2l2.4 20.6c-0.4 5-13.2 24.6-17.4 24.6-2.1 0-3.5-1.5-6.5-2.1 1.6-5.9 14-13.8 14-23.7v-4.3c0-4.8-2.2-4-2.2-8.7v-7.5c0-4.3 5.2-12.8 6.5-18.3z"/>
	<path id="Path 35" class="s1" d="m553.8 729.6c1.8 1.3 4.3 2.4 4.3 5.4v3.3c0 4.2-17.5 28-20.5 28h-5.3c0.1-7.3 17.2-33.5 21.5-36.7z"/>
	<path id="Path 36" class="s1" d="m346.5 791.4c0.7 9.8-12.5 27.6-19.8 27.6-0.7 0-4-3.4-5.7-4.7z"/>
	<path id="Path 37" class="s1" d="m284.8 741.5c9.3 0-0.1 11.5-1.1 12.9h-5.4c-5.4 3.6-15 14-15 22.6 0 0.6 6.4 13.5 6.4 15.1v9.7c0 5.1-8.5 15.1-12.9 15.1-2.1 0-1.9-0.4-3.2-1.1 1.4-5.3 7.5-5.7 7.5-17.2 0-6.5-4.3-11.5-4.3-21.6 0-10.6 18.1-35.5 28-35.5z"/>
	<path id="Path 38" fill-rule="evenodd" class="s1" d="m666.7 850.3c-1-4.7-3.2-5.9-3.2-11.9v-4.3c0-4.1 10.8-7.5 14.7-10.1 4.9-3.4 9.4-8.1 13.6-12.2 5.9-6 15.8-23.3 15.8-34.8 10.7-7.1 25-20.1 38-7.8 8.7 8.3 21.3 21.9 31.1 28.1 9.5 5.9 31.2 15.7 36.4 22.8 6.5 9 3 11 7 22.1 2.6 7.3 5.9 15.3 5.9 24.2-13.5 3.2-29.3 2.7-40.9 0v-7.5c0-5.9 2-5.8 2.7-11.3l8.1-8.1c-4.1-8.4-3.9-6.5-16.2-6.5-6.8-4.5-12.2-14.2-17.5-21.2-3.8-5-16.9-15.4-23.4-15.4-6.3 0-22.8 25.8-30.7 31.7-2.2 1.6-40.4 21.9-41.4 22.2zm-5.3-20.5c0 11.7-1 14.7 4.3 24.8 4.7-1.1 35-18.6 41.2-22.3 11.7-6.8 25-31.6 33-31.6h2.2c7 0 19.1 14.8 23 20 2.7 3.7 6.6 9.1 9.5 12.1 6 6.2 17 1.2 17 5.6 0 4.8-9.7 2.8-9.7 23.7 0 7.9 4.9 9.7 12.9 9.7h12.9c32.3 0 22-6.7 16.3-28.2-5.6-21.4-2.5-26.8-22-36.1-14.5-6.8-24.3-11.4-34.9-22.1-6.6-6.6-22-25.6-32.6-25.6-11.5 0-16.1 7.2-24.2 11.3-8.7 4.4-6.8 14.7-11.1 24.4-9 20.1-21.6 23.4-37.8 34.3z"/>
	<path id="Path 39" fill-rule="evenodd" class="s1" d="m140.6 913.8c0 4.1 0.3 0.4-1.1 3.2-22.6-14.8-44.4-37.6-41.1-60.3 0.2-0.9 1.5-2.2 2.4-2.4 12.8 0.9 18.9 1 30.5 5.4 0 18.5 9.3 36.4 9.3 54.1zm-38.7-52.8c0 19 23.3 42.6 35.1 50.4l-10.4-49.1-25.3-4.9z"/>
	<path id="Path 40" fill-rule="evenodd" class="s1" d="m956.9 863.9c1.5-5.7 18.3-9.3 25.1-9.3h3.2c2.5 0 3.3 0.7 3.3 3.2v4.3c0 12.4-9.4 24.9-15.9 31.5-3.1 3.1-23.8 21.7-26.1 22.3 3.2-17.9 5.9-34.2 10.4-52zm27.2 1.4v-6.4h-4.2c-6.8 0-10 1.2-15.6 2.7-7.1 1.9-5.4 3.9-6.7 12.3-1.8 11.7-6 18.2-6 31.8 10-6.6 32.5-24.8 32.5-40.4z"/>
	<path id="Path 41" fill-rule="evenodd" class="s1" d="m646.1 600.6l14.6-11.4c-1.1-2-2.6-4.2-2.6-6 0-7.4 26.9-6.2 33-10.1 9.9-6.2 5.4-24.1 17.6-24.4 0.9 3.9 8.3 18.3 11.8 18.3h1.1c5.6 0 6.2-2.1 10.8-2.1 2.5 0 8.7 10.8 12.9 10.8 1.1 0 4.8-7.5 8.6-9.7 4.2-2.6 6.6-3.7 10.8-6.5 7.9 34.2-6.5 27.4-6.5 35.5v5.4c0 4 4.3 11.7 4.3 17.2 0 9.4-3.1 19-4.4 30.1-1.2 10.8-2.1 18.2-2 31.3 0 6.6-0.9 9.8-1.1 16.2-0.2 7.9-2.3 6.2-6.7 9.5-5 3.7-14.3 10.9-22.4 10.9h-1.1c-9.7 0-15.9-6.5-16.1-16.1-2.4 0.6-2.5 1.1-5.4 1.1h-3.2c-2.8 12.1-3.2 24.2-5.2 36.8-2 13.2 6.3 22 6.3 35.3v6.5c0 14.8-11.4 24.8-19.1 32.6-4.6 4.5-9.2 7.4-14.7 11.1-7.3 4.9-10.3 1.8-10.3 14.4 0 13.2 7.1 49.8 10.7 59.3 4 10.5 17.2 38.9 17.2 51.6 0 2.8-5.5 9.7-10.7 9.7h-1.1c-7.4 0-32.3-5-32.3-10.7v-2.2c0-5.1 3.3-8.7 5.4-11.8l-9.4-6.9c0.3-7.1 4-10 4-16.8v-8.6c0-24.8-39.8-62.3-39.8-69v-3.2c0-3.9 9.3-19.9 9.7-24.8-11.8 0.3-4.5 13.2-18.3 20.5l-5.3-1.3-0.1 8.8c0 3.9 21.5 16.6 24.8 21.6-1.9 3.5-3.4 10.8-7.6 10.8h-20.4c-4.8 0-18.3-7.2-18.3-10.8 0-3 4.3-8.7 4.3-15.1v-1.1c0-2-0.3-1.9-1.1-3.2-8.3 2.2-2.2 16.2-12.9 16.2-1.2 0-12.7-5.6-14-6.5 1.9-7.9 12.8-23.2 18.1-28.3 2.7-2.7 14.8-33.1 6.7-33.1-6.9 0-1.6 34.5-15.1 34.5h-1.1c-6.9 0-43.3-12.4-50.7-14.9-5.3-1.9-16.2-8.6-20.4-11.9-4.3-3.2-14-13-19.2-13.1l31.3 28.9c-3 12.5-13 32.8-13 42.2 0 12.1 22.5 35.4 29.2 43.9 10.9 14 24.8 24 26.7 46.6-1.1 1.6-1.4 3.2-4.3 3.2h-19.4l-12.9-1.2c-3.7-2.4-8.6-1.8-8.6-6.4v-7.5c0-5.3 4.8-9.6 5.4-17.2-9-4.3-20.1 1.4-21.5-9.8-1.2-10.1-3.3-16.4-8.9-22.3-4.6-4.8-11.9-10.2-19.1-12.1-7.3-1.9-18.3-4.1-18.3-12.9v-2.1c0-2 6.5-11.5 6.5-16.2v-4.3c0-11.1-18.3-24.4-18.3-28 0-1.5 2.2-2.6 3.2-3.2 9.7 0.8 10.6 4.3 16.8 6.8 0.2 0.1 18.8 0.7 20.9 0.7v-3.2c-11.3-1-32.8-5.6-37.7-12.9l9-10.9 28.2-15.8 9.9-4.8-1.6-2.8-3.5 1c-1.1 0-34.1 20.7-34.3 21.1-3.9 5.4-20.2 16.8-26.3 20.4-5.9 3.4-10.6 5.3-18 6.8-4.8 1.1-8.5 8-12.1 11.6-8.8 8.7-40.6 42.9-40.6 56.3 0 11.9 9.7 23.6 9.7 35.5v5.4c0 4.2-2.4 14-6.5 14h-2.1c-14.5 0-24.1-11.6-33.4-17.2-18.5-11.3 4.3-24.4 4.3-30.2 0-4.5-7.5-6.3-7.5-10.8 0-9.6 12.7-9.8 16.2-23.6 4.2-17-2.2-18.3-2.2-32.4v-8.6c0-7.6 23.6-12.7 23.6-29 0-3.7-5.3-19.8-6.1-25.1-1.4-8.2-3.5-17.9-3.5-26.6 0-9.1 6.4-24.5 6.4-27 0-5.7-4.8-8.7-8.6-10.7l-8.7 2.9c0.1 9.2-6.3 22-9.6 28.3 7 8.1 9.7 13 9.7 28 0 2.4-9.4 18.3-11.4 20.9-4.7 6.3-10.2 10.5-14.4 16.8 0 17.2-3.1 26.7-9 38.4-2.7 5.4-14.9 27.3-20.1 27.3h-17.2c0.3-12.7 5-8.4 1-25.8-1.2-5.6-7.4-18.3-7.4-22.7v-5.4c0-16.2 9.6-27.9 9.6-33.3 0-4-9.6-15.8-9.6-28v-4.4c0-6 20.1-37.6 24-44.8 7.1-13 14.1-34.8 33-34.8h1.1c16.8 0 24.9 10.7 29 10.7 0.2 0 7.1-3.2 12.9-3.2h1.1c8 0 14.6 4.2 16.1 10.8 13.7-0.3 44.3-25.9 67.8-25.9h6.5c7.4 0 13.4 5.4 21.5 5.4h1.1c6.5 0 13.2-5.9 13.9-11.9 1-7.8-1.4-16.8 0.7-24.1 2.4-8.7 16.3-19.1 22-27.5-4.4-8.3-16-23-15.1-35.6l1.3-22.6c1-1.8 2.1-4.3 5.1-4.3h4.4c11.1 0 13.3 14 16.5 23.3 2.4 6.9 8.8 24.3 9.3 30.6 6.9 0 20.7-1.2 22.6-6.5h-9.7c-6.4 0-8.6-4.4-8.6-10.8 0-15 14-18.3 14-37.7 10.9-5.8 23.5-15 39.8-15 8.5 0 13.2 4.4 19 6.8 7.2 3 11.1 3.8 11.1 14.7v6.5c0 5.1-1.2 6.6-3.2 9.7-15.3 0-1.2 25.8-11.9 25.8h-4.3l-9.6-1.2c6.5 5.8 13.5 5.8 20 14.5 6.7 9 6.6 12.7 11.2 22.2 20.5 0 31.2-7.4 31.2-28 7.4-5 18.4-5.4 30.1-5.4 0 6-0.8 12.9-2.1 17.3-0.8 2.5-2 4.3-3.6 6.2-0.7 0.9-1.7 1.8-2.6 2.7-0.3 0.3-1 0.8-1.2 1-0.2 0.2-1.6 0.5-1.5 1zm-56.8-65.8v-5.4c0-6.9-2-11.1-7.2-13.3-2-0.8-13.6-6.1-14.3-6.1h-9.7c-17.8 0-21.5 10-32.3 12.9v4.3c0 9.6-14 19.3-14 31.2v1.1c0 4 1.7 5.2 3.3 7.6l19.3 0.3c-1.3 5.6-16.2 11.5-21.5 11.5h-8.6c-4.2 0-10.1-25.9-11.6-30.4-3.4-10.1-4-24.5-16.4-24.5-2.5 0-5.4 2.9-5.4 5.4v20.4c0 15.5 16.2 31.6 16.2 34.5 0 3.1-20.6 22.3-23.7 26.9v24.8c-3.6 5.4-6.4 16.3-16.1 15.1l-11.8-1.3-6.5-4.2-9.8-1.7c-4.8 2-12.7 3.3-18.6 5.6-6.5 2.6-11.6 4.6-17.8 7.1-9.3 3.7-23.6 13.7-33.4 16l-7.1-9.3c-5.7-0.9-1.6-2.6-5.8-2.6h-3.3c-8.1 0-13.1 3.3-17.2 3.3-2.1 0-8.6-10.8-22.6-10.8h-4.3c-16.3 0-24.7 24.1-32.1 35.8-3.9 6.2-22.8 37.6-22.8 43.9 0 9.4 10.8 24.6 10.8 31.2 0 2.5-10.8 18.5-10.8 34.5v1.1c0 2.2 9.7 22 9.7 33.3v7.6c0 2.9-0.5 3-1.1 5.4h11.9c7.5 0 21.3-34.7 24.6-42 2.4-10.3 2.4-13.2 2.3-21.6 4-5.9 9.6-12.3 14.8-17.5 3.3-3.3 11-14.8 11-20.2v-7.5c0-7.7-9.7-16.6-9.7-19.4 0-1.8 6.5-15.7 7.5-17.2l1.4-11.8c4.2-3.1 4.6-4.4 12.6-4.4 7.1 0 11.9 7.8 11.9 15.1 0 1-5.2 10.6-5.3 18.3-0.1 7.4-0.7 14.3 2.2 23.6 2.4 19 6.3 26.1 6.3 38.9 0 9.3-19.9 19.6-24 25.7l2.6 18.3 1.2 13c1.8 18.5-17.5 25.6-17.5 32.4 0 2 8.6 6.5 8.6 10.7 0 3.6-11.8 13.6-11.8 20.5v4.3c2.5 0.9 11.2 7.8 14.6 10.1 6 4 10.8 5 15.5 8.2l8.7 0.6c11.6-21.7-14.5-41.8-2.4-63.2 5.9-10.4 10.3-14.8 17-24 5.7-7.9 13.9-12.9 19.4-20.4 11.1-15.2 6.8-9.8 23.7-17.2 12.5-5.5 14.4-8 24.5-15.3 8.4-6.2 12.8-11.7 22.6-18.3 4.5-3.1 20.5-13.4 26.4-13.4 2.5 0 5.4 2.9 5.4 5.4v1c0 7.7-42.8 15.4-47.3 32.3l37.6 8.8v5.2c0 2.6-1.8 4.4-4.3 4.4h-2.2c-3.7 0-1.9-0.4-5.7-0.4-3.7 0-1.3 0.4-5 0.4h-2.2c-4.1 0-13.9-6.1-20.4-7.6 1.2 4.7 5.7 7.2 8.9 10.5 4.5 4.6 4.4 6.6 7.5 11.9 6.4 11.1-5.6 23.7-5.6 28.2 0 11.9 46.2 7.9 46.2 48.5l-0.2 1.1 23 4.5 0.3 1-7.5 19.4c1.6 9 0 8.3 9.4 10.4 5.8 1.3 11.5 2.4 18.1 2.4h8.6c2.4 0 3.2-0.8 3.2-3.3v-2.1c0-6-8.6-19.4-12.1-23.5-5.6-6.5-10.5-12-16-18.4-5.7-6.8-26.8-33.1-26.8-43.2v-6.5c0-6.8 10.8-26.2 10.8-31.2v-3.2c0-1.3-30.4-28.8-31.2-29.1 0.3-3.8 3.4-6.5 6.4-6.5h1.1c3.9 0 11.8 10.8 15.7 13.4 6.1 4 10.5 7.4 17.3 10.7 5.6 2.6 13.9 6.4 20.4 7.6 6.6 1.3 16.6 4.2 20.8 7.1l14 2.2c4.1-2.7 7.2-7.7 7.6-14 0.5-8 2.1-13.4 2.1-18.3l4.3-2.3 7.5 1.5 0.1 9.4c0 4-4 9.9-5 15.5-1.9 10.2-0.6 6.4-6.6 12.7-6.1 6.4-11.5 15.1-16.4 22.4l-0.5 1.1 13.2 5.9c2.5-5.3 3.4-16.7 9.9-16.7h1c2.6 0 4.4 1.8 4.4 4.3v6.5c0 5.7-4.4 7.6-4.4 10.7 0 5.1 14.9 9.7 21.6 9.7h8.6c6.6 0 7.4-4.3 9.7-8.6l-26.5-19.6 1.4-1-2.8-16.2 1-2.2c2.3-5.6 1.3-5.8 2.7-12.1 1.7-7.5 9.1-10.3 9.1-6-3.4 10-9 13.5-5.4 23.7l4.4 0.9 13.6-21.5c2.3 1.1 7.8 2.2 7.8 4.5 0 7-8.6 17.9-8.6 23.7v2.1c0 11 38.8 43.4 38.8 75.4 0 5.4-2.2 13.7-3.3 18.3l9.2 8.2 1-0.3-7.3 12.3 1.7 4.5c7.3 0.7 12.9 6.5 23.4 6.5h6.5c2.6 0 6.4-3.8 6.4-6.4v-1.1c0-7.5-13.3-42.2-16.7-48.9-1.5-3-11.3-48.9-11.3-53.4v-15.1c0-8 44.2-22.7 44.2-49.5v-11.9c0-5.3-3.1-12.5-5.1-16.5-4.5-9.2-0.9-6.9-0.3-15.8 0.8-13.2 3.3-25.4 4.3-37.7l16.1-3.4c-0.2 9.3-0.7 17.4 11.9 17.4h1c7.9 0 22.7-10.4 25.9-15l2.9-63.6c0.9-1 4.6-9.8 4.6-10.7v-6.5c0-2.4-0.8-2.4-2.2-4.3 0-7.9-2.1-7.9-2.1-14v-4.3c0-5.4 9.7-5.6 9.7-17.3v-4.3c0-3.7-0.8-4.1-1.1-7.5-11.6 2.7-13.9 14-18.3 14h-2.1c-4 0-8-8.2-11.9-10.8-3.6 0.9-8.3 3.3-11.8 3.3-4 0-9.2-15.1-14-18.3-5.9 8.8-4.1 17.5-14 23.7-4.8 3-30.1 2.2-30.1 7.5 0 1.8 1.4 4 2.1 5.4-3.3 5-25.4 19.5-32 26.1-5.3 5.3-30.4 20.9-30.4 27.7 0 5.3 19.1 14.2 24.8 16.2 7.6 2.7 25.9 4.3 36.6 4.3 1.3 1.9 2.1 1.9 2.1 4.3l-1.3 2.4c-0.6 1.9-10.7-1.3-23.9-1.9-10.7-0.4-26.5-5.2-32.8-9.4-6.9-4.6-8-3.8-8-3.4-0.8 10.2 54.1 21.9 58.5 18.7 3.4 0.1 5.4-0.3 5.4 3.3 0 1.4-1.2 0.6-2.2 4.3-13.8 0-39.6-2.4-47.3-7.6-11.8 0-18.5-11.8-22.6-11.8-1.5 0-2.2 1.5-2.2 3.2v1.1c0 8.6 13.1 10.8 18.6 18.1 4.1 5.5 4.9 20.5 9.2 27.4 3.8 6.1 1.9 5.3 7.5 10.8 4 4 5.5 5 6.6 11.6 1.2 7.3 4.4 26 4.4 32.3v20.4c0 7.7-43.8 0.1-49.5 0l6.1-28.9 1.6-3.3 3.4-21.6h9.3v4.3l-3.6 25.8-6.1 16.2h4.4l23.6-1.8 1.3-27.3c1-21-13.7-26.8-21.7-38.8 0-37.9-22.6-18.2-22.6-40.9v-12.9c0-3.4 2.6-3.7 5.4-4.3 2.9-35 66.7-43.4 66.7-78.6h-15.1c-11.8 0-8 6.1-11.4 15.5-2.8 7.9-7.4 8.9-11.2 14.6l-22.5 2.6c-2.6-0.1-3.3-10-4.7-13-1.7-3.7-3.9-7.9-6.4-10.8-4.3-5-13.3-12.6-21.3-13.2v-3.3c0-2 2-4.3 3.3-4.3 7.7 0 12.3 8.6 14.2-5.1 0.7-4.8 0.6-18.6 6.2-18.6h4.3c0.4-0.8 1.1-4 1.1-5.3z"/>
	<path id="Path 42" fill-rule="evenodd" class="s1" d="m226.7 1063.5h-4.3c-2.8 0-29.5-6-32.6-7.2-10.2-4.1-18.2-7.5-25.3-14.6-5.8-5.8-12.5-15.8-16.6-23.2-1-1.9-11.5-27.8-11.6-28.3 19.4 4.6 49.4 9.1 61.6 20.2 12.1 11 24.5 34.6 28.8 53.1zm-58.4-22.4c9.8 8.9 34.9 18.1 53 18.1-3.3-14-16-39.1-25.8-46.3-10.5-7.8-36-17.3-53.8-17.3 8.5 16.3 13.4 33.7 26.6 45.5z"/>
	<path id="Path 43" class="s1" d="m483.8 991.1c2.2 0 5.4 1.7 5.4 4.5v3.3l-21.5 1.7 4.3-8z"/>
	<path id="Path 44" fill-rule="evenodd" class="s1" d="m860.4 1064.5c0.5-6.2 8.7-24 11.5-29.4 5.8-11 7.1-16.4 16.2-24.7 5.3-4.8 19.1-11.3 28.2-12.7 9-1.4 27.8-7.5 34.5-7.5 0 0.2-9.3 23.7-9.9 24.6-4.9 7.7-7.9 14.7-13.6 22-15.7 19.9-43.2 24.2-66.9 27.7zm5.7-6c6.6 4.4 38.2-7.4 43.2-10.7 7.4-5.1 10.7-6.7 16.1-14 3.8-5.1 19.5-33.3 20-39.2l-11.7 2.6-3.2 1.8c-20.7-0.1-42.5 13.4-50.4 27.1-5.2 9.1-7.7 17.1-12.3 26.4-1.5 3-3.3 5-1.7 6z"/>
	<path id="Path 45" fill-rule="evenodd" class="s1" d="m822.8 1040.8c-0.2-20.5 0.8-40.7 16.3-56.8 5.5-5.6 16.8-19.9 25.3-20.6l2.5 18.2v33.4c0 10.4-8.6 28.6-14.3 34.2-6.1 6.1-17.6 21.6-27.7 21.8 0-10.6-2-19.2-2.1-30.2zm4.3 19.4v6.5c6.3-0.5 23.4-19.5 26.9-24.8 4.9-7.4 12-29.1 10.8-42l-3.3-31.2c-35.8 18.3-36.3 65-34.4 91.5z"/>
	<path id="Path 46" class="s1" d="m528.8 988.8l0.2 4.7c0 0.5 3.8 10.6 4.3 11.8l-7.2 7.9c-4.4-3.1-4.6-7.8-4.6-12.2l0.1-8.3z"/>
	<path id="Path 47" class="s1" d="m469.8 1008.6c2.7 0 10.8 11.4 10.8 15 0 1.5-1.5 2.2-3.2 2.2h-2.2c-3.1 0-11.8-10.4-11.8-12.9 0-1.3 4.8-4.3 6.4-4.3z"/>
	<path id="Path 48" fill-rule="evenodd" class="s1" d="m221.3 962.3c13.6 6.5 32.6 25.6 38.1 40.5 3.1 8.5 7.8 21.3 5.6 33.3-1 5.4-1 34.9-5 34.9-4.6 0-17.9-13.1-21.2-16.4-7.7-7.7-9.7-13.9-15.3-22.4 0-9.2-5.1-18.8-4.4-30.1zm11.7 78.8c4.4 6.8 18.3 24.9 26.8 25.6l1.4-36.6c0.7-17.5-5.3-24.7-10.8-35.5-1.8-3.5-20-24.8-22.6-24.8-5.7 0-5.4 23.5-5.4 30.2 0 17.5 3.6 30.3 10.6 41.1z"/>
	<path id="Path 49" fill-rule="evenodd" class="s1" d="m544.1 446.2l55.4 4.5 11.5 1.8c27.5-0.2 67.6 23.1 88.6 32.2 21.6 9.4 57.7 35.7 73.4 51.4 20.9 20.9 41.1 42.3 56.2 68.7 7.7 13.5 14.6 25.5 22.1 40.3 3.1 6.3 15.6 38.8 15.6 45.8 4.1 6.2 8.1 29.6 9.4 39 1.1 7.5 1.3 14 2.5 21.2 1.2 7.1 0.1 15.3 1.2 22.5 2 12.4-0.4 31.2-1.3 44.4-0.9 13.6-6.5 30.4-6.5 40.9l-2.3 3.1c0.2 23-31.7 85.7-42.4 101.8-20.1 30.2-40.5 52.4-66.9 76.3-42.1 38-127.8 78.3-207.9 78.3l-24.4 0.4-45.5-5.2c-32-4.2-82.3-27.8-104.8-39-23.7-11.8-65.2-46.2-81.7-65.8-21.6-25.8-45.1-54.8-58.3-89.1-3.8-9.7-7.2-16.6-10.9-26.8-3.7-10.3-5.1-17.3-8.4-28.3-3.8-12.8-10.3-47.7-10.3-62.8v-35.5c0-10.8 3-30.8 4.9-41.4 1.4-8.7 7.7-29.9 8-37.3 5.2-7.8 12-35 18.7-47 8.3-14.9 13.6-29.2 23.4-42.1 19.1-25.2 36.1-51.2 61.4-70 11.8-8.9 23.9-21.3 37.4-28.2 14.3-7.4 26.1-15.5 42.5-23.2 23.8-11.2 65.6-28.4 99.3-28.4l6.7-0.9zm-329.3 295.2c-1.2 11.4-3.1 25.4-3.1 38.8 0 185.9 148.1 334.9 333.5 334.9 115.7 0 206.9-59.3 258.1-124 14.6-18.6 26.7-36 37.8-58 8.9-17.5 21.9-47.8 26.1-69.7 3.5-18.2 12.8-62.5 10.5-85.2-2.2-20.8-4.9-71.1-12.9-83.1 0-15.4-27.4-72.8-34.8-84.6-15.3-24.1-34-47.2-53.7-66.9-19.3-19.3-44.1-36.9-68.8-50.7-16-9-63.7-35.1-85.8-34.9l-4.4-0.8-58.1-7-28-0.6c-37.2 0-86.8 14.6-114.3 25.5-36 14.4-58.8 31.5-86.7 53.3-24.4 19.2-48.6 47.8-65.8 74.1-10 15.2-42 77.4-42 99.1-4.6 11.1-6.3 27.8-7.6 39.8z"/>
	<path id="Path 50" fill-rule="evenodd" class="s1" d="m508.3 1144.5c6.6 6.6 28.5 28 29.3 37.4h-10.7c-19.4 0-49.6-6.8-61.6-14.8-4.1-2.8-45.6-36.9-33.1-36.9h24.7c21.6 0 40.4 3.3 51.4 14.3zm-34.9 23.1c19.1 9.6 37.5 6.1 58.8 11.1-0.6-7.8-21.2-29.5-27.5-33.8-13-8.9-27.6-12.5-48.8-12.5h-1.1l-18.3 1.1c6.7 12.8 23.6 27.4 36.9 34.1z"/>
	<path id="Path 51" fill-rule="evenodd" class="s1" d="m547.3 1195.9c12.5-2.9 33-8.6 47.4-8.6h16.1c16.2 0 57.7 21.5 63.6 30.4l-23.8 8.4c-24.8 2.8-34.8 9.6-59.8-1.5-17.2-7-30.6-21.9-43.5-26.5zm35.9 22.2c10.3 5.9 22.5 7.9 38.4 7.9 19.1 0 30.3-6.2 45.1-9.7-5.9-8.8-41.3-25.8-57-25.8h-12.9c-7.5 0-36.6 5.3-40.9 7.5 1.4 2.1 23.5 17.9 27.3 20.1z"/>
	<path id="Path 52" fill-rule="evenodd" class="s1" d="m474.1 1226.1h-4.3c-15.1 0-35.1-4.2-49.4-9.7 23.5-26.9 84.3-31 110.8-18.3-1.1 1.6-21.2 16.2-24.1 17.9-8.4 4.8-20.4 10.1-33 10.1zm1.1 3.2c12.5 0 29.3-6.2 36.3-12.1 4.2-3.6 23.9-17.9 28.3-19.1-2.3-8.4-50-10.6-59.2-11.1l-2.1 0.3c-16 1.3-28.1 6-42.5 13.5-4.5 2.3-21.1 13.5-23.2 16.7 10.9 5.2 34.8 11.8 50.6 11.8z"/>
	<path id="Path 53" fill-rule="evenodd" class="s1" d="m542.8 853.6c13.4 1 16.4 9.1 19.6 20.3 2.7 9.6 6.8 20.4 8.7 30.1 3.2 16.7 14.9 45.2 14.9 62.6l11.8 2.3 4.4-0.2c20 0 36.9-9.7 61.3-9.7 10.1 0 16.6 4.3 22.8 8.4 8.6 5.7 8.9 11.3 14.9 15.3 16.5-3.8 27.4-15.1 37.9-25.6 5.4-5.4 10.5-11.6 17-15.3 6-3.4 17.3-6.9 21.5-9.7h4.3c7.3-4.9 21.9-6.8 24.1-16.8 2.2-9.7 8.4-20.9 18.9-20.9h4.3c4.9 0 10.8 8.7 10.8 14v2.2c0 10.3-21.1 28.2-29.7 31.6-11.1 4.4-33.2 12.5-42 18.3-14.4 9.6-15.5 20.5-29.2 31-3.7 2.9-45.5 19-45.5 8.4 0-2.2 0.4-1.4 1.1-4.3h-2.1c-0.7 7.9-6.5 13.2-6.5 23.7v3.3c0 5.8 2 5.7 2.2 11.8-6.2 0.5-4.4 2.5-12.9 3.3-5.2 0.4-8.3 1-15.1 1-18.5-0.2-7.8 11.8-19.4 11.8-5.3 0-4.6-2-8.9-0.4-3.2 1.2-2.9 2.6-7.2 2.6h-3.2c-3.8 0-1.7-2.2-5.4-2.2-1.5 0-5.4 5.4-10.8 5.4h-4.3c-3.5 0-6.4-4.6-6.4-8.6 0-21.3 23.3-17.9 38.7-21.5-1.7-2.5-9.7-7.8-9.7-9.7 0-8.3 7.4-12.2 10.8-17.2l-3.1-2.3c-4.1 2.7-10.9 12.8-10.9 19.5v3.2h-4.3c-14.6 0-17.2 11-24 19.1-4.7 5.7-24.3 8.9-34.1 8.9-0.8 3.4-3.8 8.6-7.6 8.6-3.2 0-2.8-2.1-7.5-2.1-3.6 0-7.2 2.7-11 3-5.1 0.5-6.7-3-9.4-3-3 0-3.5 2.1-6.5 2.1-4.9 0-12.9-1.7-12.9-6.4v-5.4c0-7.3 17-11.9 25.8-11.9h19.4v-3.2c0-8.8-18.8-5.4-25.8-5.4-7.7 5.1-11 12.1-23.7 13-10.3 0.7-25.6 4.3-32.3 4.3-4.2 0-13.2-11.3-15.1-15.1-1.7-3.4 0.3-21.9 1.1-27 2.5-15.6 17.8-22.4 33-26.2 19-4.8 33.6-3.6 56.4-3.9 6.1 0 17-2.4 26.9-3.1 8.2-0.7-0.1-11.3-0.1-20.6l-4.5-17.1zm31.3 106.8l8.7 2.9-4-15.9-7.6-34.8-2.3-3.1 0.1-4.5-2.3-3.1c0-5.3-0.9-8.5-3-12-3.3-5.8-1.4-7.4-3.2-12.9-2.9-8.8-3.5-17.3-13-18.2l11.5 37.5zm177.4-11.3c-8.1 10.5-35 36.8-51.4 36.8-4.3 0-8.1-9.2-11-12.6-4.3-5.2-9.6-5.4-14.8-8.9-8 0-7.1-2.2-11.9-2.2h-3.2c-21.3 0-34.8 8.6-52.7 8.6h-19.4c-6.7 0-7.2-2.6-19.4-1.1-4.9 0.6-18.3 1.1-22.5 1.2-16.6 0-30.2 2.1-45.3 2.1-10.1-0.1-29.2 7.2-35.2 12-8.2 6.5-5.9 3.2-8.9 14.9-2.1 8.1 0.6 13.3-3.2 20.5 3.3 6.1 9.4 17.2 18.3 17.2 0.5 0 23-4.1 26.5-4.8 10.9-2.1 16.4-3 20.9-12.3l30.1 0.9c1.4 2.2 4.3 4.4 4.3 7.6 0 2.2-1.7-0.4-2.3 4.8l-6.4 1.9-25.7 0.8c-6.8 4.5-9.4 1.2-11.9 11.9 1.8 2.7 4.2 4.3 8.6 4.3 4 0 5.2-1.7 7.6-3.3 8.4 5.7 9.4 6 18.2 0.4l6.6 0.6 3.1 2.3c9.2-6.2-5-5.1 14.7-9.1 6.2-1.3 15.1-3.9 20.8-3.9 6.4-4.2 15.7-23.6 24.8-23.6h6.4c0-7.8 8.4-21.6 13-21.6h2.1c4.4 0 5.8 1.7 7.5 4.3-4.6 7-10.7 7.8-12.9 17.3 4.5 2.9 11.7 5.9 11.9 12.9l-4.4-0.4-21.5 2.5c-5.3 3.6-15 5.7-15 14v2.2c0 3.5 0.9 0.8 2.1 5.4h5.4c5.3 0 8.6-4.3 10.8-7.6 2.4 1.6 3.8 4.3 6.4 4.3h3.3c1.9 0 5.9-3.2 7.5-4.3 2.5 0.6 3.2 1.1 6.4 1.1h2.2c3.6 0 5.2-7.3 7.6-10l35.4-4c-0.4-5.3-2.1-3.9-2.1-8.6v-8.6c0-3.7 8.2-19.1 8.8-24.2l6.2 2.6c-0.1 4.6-2.1 6.5 2.2 6.5h5.4c3.1 0 10.9-3 12.9-4.3 12.5 0 25.7-12.6 31.4-20.3 8-10.8 16.1-16.9 27.9-23.7 10.8-6.2 24-7.2 35.4-14.2 7.1-4.3 7-7.8 13.5-12.2 3.9-2.6 10.1-10 10.1-15.8v-1c0-16.7-27.9-12.9-27.9 10.7-11.8 17.6-45.9 15.2-57.3 30z"/>
	<path id="Path 54" class="s2" d="m344 129.8h12.1v49.7h17.3v-49.7h12v49.7h17.8v-49.7h12l0.1 59.7h-71.3zm99.5 0h13.5l13.9 31 11.9-31h12.6l-20.2 45.4q-3.3 7.3-6.7 11.2-3.4 3.8-8.8 3.8-5.4 0-8.4-0.7v-8.9q2.6 0.1 4.6 0.1 4.3 0 6.1-1.5 1.8-1.5 3.4-6.6zm79.7 59.7v-59.7h18.1l10.8 40.8 10.7-40.8h18.1v59.7h-11.2v-47l-11.8 47h-11.7l-11.8-47v47zm91.6 0v-59.7h44.2v10.1h-32.2v13.3h30v10h-30v16.3h33.4v10zm77.5 0v-59.7h12.1v23.5h23.6v-23.5h12.1v59.7h-12.1v-26.1h-23.6v26.1z"/>
	<path id="Path 55" class="s3" d="m344 129.8h12.1v49.7h17.3v-49.7h12v49.7h17.8v-49.7h12l0.1 59.7h-71.3zm99.5 0h13.5l13.9 31 11.9-31h12.6l-20.2 45.4q-3.3 7.3-6.7 11.2-3.4 3.8-8.8 3.8-5.4 0-8.4-0.7v-8.9q2.6 0.1 4.6 0.1 4.3 0 6.1-1.5 1.8-1.5 3.4-6.6zm79.7 59.7v-59.7h18.1l10.8 40.8 10.7-40.8h18.1v59.7h-11.2v-47l-11.8 47h-11.7l-11.8-47v47zm91.6 0v-59.7h44.2v10.1h-32.2v13.3h30v10h-30v16.3h33.4v10zm77.5 0v-59.7h12.1v23.5h23.6v-23.5h12.1v59.7h-12.1v-26.1h-23.6v26.1z"/>
	<path id="Path 56" fill-rule="evenodd" class="s0" d="m859.1 214.6c2.4-8 9.4-31.1 12.7-36.8 2.9-5 4.9-12.1 5.9-18.8 1.1-7.2 4.1-12.1 6.6-18.2 2.6-6.1 3.2-13.3 5.3-19.5 1.8-5.6 5-11.7 6.3-17.3 8.2 0.7 7.1 9.7 15.1 9.7h40.9v112c0 4.1-47 27.2-53.8 31.2-5.3 3.2-52.5 28.9-54.9 29.1 0.1-4.3 5.4-17.1 5.4-18.3v-7.6c0-5-3.2-6.1-3.2-9.7 0-4.4 11.7-29.3 13.7-35.8zm82-85.8v88.3c0 5.8-38.6 3.2-46.6 2.9l-4 5.7c1.4 0.7 1.2 1.1 3.3 1.1l26.9-0.3h8.6v1.3c-2.4 3.2-32.5 19.7-38.3 22-7 2.7-12 7.3-19.8 10.3-4.8 1.9-12.3 10.9-15.1 15.1 2.4-0.2 42.9-21.9 48.2-25 6.4-3.6 45.4-23.2 45.4-27.8v-103.3c0-2.5-0.7-3.3-3.2-3.3h-33.4c-2.4 0-3.2 0.8-3.2 3.3v1c0 3.5 0.9 0.9 2.2 5.4h25.8c2.5 0 3.2 0.8 3.2 3.3zm-29 7.5c0 15-4.3 45.7-9.1 54l-7.1 26.8h39.8c2.5 0 3.3-0.8 3.3-3.3v-85h-26.9zm-40.9 119.2l51.3-26-33.6 0.7z"/>
	<path id="Path 57" fill-rule="evenodd" class="s0" d="m713.8 399.2c9.8 2.1 17.7 17.3 18.6 27.8h-3.3c-3.1 0-5.3 10.9-9.3 15.4-1.5 1.6-11.2 11.6-12.2 11.6-4.6 0-15-4.3-15-8.6 0-4.1 13.2-23.7 19.3-23.7h3.3c3.9 0 3.7 1.2 7.7 2.1zm-10.5 50.5h1.1c7.3 0 18.3-14.5 18.3-19.4 0-2.4-5.8-5.4-8.6-5.4-6.8 0-18.3 16.7-18.3 20.4 0 2.2 4.5 4.4 7.5 4.4z"/>
	<path id="Path 58" fill-rule="evenodd" class="s0" d="m371.9 399l-8.2 25.6c3-1.3 4.3-2.9 8.2-2.9h3.3c5.7 0 19.3 20 19.3 24.7 0 2.9-8.4 6.5-12.9 6.5h-3.2c-5.9 0-17.7-18-18.3-24.8h-3.2c-2.5 0-3.3-0.7-3.3-3.2 0-1.6 2.2-0.5 2.2-7.5 7.8-5.3 0.4-10 16.1-18.4zm8 52.6l11.4-6.2c-3.5-5.2-10.4-21.6-18.3-21.6-1.2 0-7.1 3.5-8.6 4.3 0.2 10 8.9 18.5 15.5 23.5z"/>
	<path id="Path 59" fill-rule="evenodd" class="s1" d="m603.3 237.3l24.7 17.4-17.6 32.2c0.4 12.1-5.1 28.8-5 45.4 0.1 18.7-2.2 28.4-5.5 43.9-7 26-23.6 43.5-56.6 43.5l-10-1.3c-5.5 0-18.2-6.2-21.5-8.6-6-4.3-10.5-9-15.3-14.8-6.6-8.3-12.8-32-12.7-47.6 0.1-18.7-5.9-39.1-6-53-0.1-15.9-18.1-33.3-19.8-39.7l25.9-19 3.7 4.7c5.7 5.1 14.1 30.5 18.8 30.5h15.1v-4.3c0-6.9-2.2-8.2-2.2-15.1v-1.1c0-3.3 1.5-8.2 5.6-8.2h4.4c2.5 0 3.6 2.1 5.1 2.9 2.2-1.5 2.8-3.3 5.4-3.3h7.5c2.6 0 3.2 1.8 5.4 3.3 2.2-1.5 2.8-3.3 5.4-3.3h1c6 0 9.7 4.9 9.7 10.8 0 5.5-3.2 11.8-3.2 12.9v5.4h16.4c1.6-6 16.4-33.6 21.3-33.6zm-69.9 16l-1.1-0.7c-0.6-6-4.3-5.3-8.7-4.3v4.3c0 5.9 2.2 6 2.2 11.8v6.5c0 2.5-1.8 4.3-4.3 4.3h-20.5c-1.7-6.6-13.5-29.1-18.2-32.3l-18.3 13.3c3 4.4 7.4 11.1 9.9 15.5 2.8 5.1 4 8.2 6.2 16.4 0.5 12.9 5 21.6 5.4 43.1 1.3 16.2 3.1 26.6 5.3 40.9 8.8 25.8 25.4 43.1 53.9 43.1h4.3c11.3 0 24.3-8.6 31.6-13.6 13.3-8.9 15.9-26 16.4-27 2.1-13.1 3.1-21.6 3.6-33.7 0.3-7.3 1.3-28.8 2.1-32.3 2.7-10.8 2.3-19.7 7-29.7 4.1-8.7 7.5-15.7 12.4-23.1l-18.3-11.8c-5.8 0-17.3 27-21.6 31.1l-19.2-0.2c-0.8-1-1.8-3.3-1.8-5.1 0-6.7 2.8-11.3 2.8-17.2v-1.1c0-3.9-3.4-5.3-7.5-5.4l-3.9 5.7c1.2 2.1 3.2 3.5 3.2 6.2l-0.2 10.7c0 3 0.4 3-0.2 5.4-3.3 0.3-3.8 1.1-7.5 1.1-4.5 0-2.2-15.1-2.5-19.8l5.3-4.4c-0.3-2.2-1.7-4.9-5-4.9h-4.3c-2.9 0-2.9 0.5-5.3 1.1l-1.8 3 4.9 4.8 0.1 17c0 2.5-0.8 3.2-3.2 3.2h-4.3l-1.1-10.8c-0.6-3.8 0.7-8 2.2-11.1zm15 18.1l5.7-0.2-0.1-12.9-3.5-3.5c-0.6 2.4-2.1 4.6-2.1 7.5zm-15.2 1.4l5.3-0.7-0.1-14.9-2.9-2.7-2.7 3.9z"/>
	<path id="Path 60" fill-rule="evenodd" class="s1" d="m558.1 315.1l16.1 1.3c1.1 1.8 2.2 2.9 2.2 6.2v1.1c0 3.5-4.7 6.4-8.6 6.4h-8.7c-3.4 0-6.4-4.7-6.4-8.6 0-3 3.5-5.2 5.4-6.4zm2.1 3.2c-1.2 1.1-3.2 1.9-3.2 3.2 0 2.5 0.4 1.3 1.1 4.3h10.7c2.1 0 4.3-1.9 4.3-3.2 0-4-9.5-2.7-12.9-4.3z"/>
	<path id="Path 61" fill-rule="evenodd" class="s1" d="m519.4 314.3h2.2c3.7 0 9.7 2.8 9.7 6.4v4.3c0 6.5-13.9 3.3-19.4 3.3-1.3-2-2.2-1.9-2.2-4.3v-1.1c0-5.6 4.5-8.6 9.7-8.6zm-6.2 7.3c0.2 2.5 0.1 4.5 3 4.5h8.6c1.8 0 3.2-0.6 3.2-2.1 0-3-0.5-3-1.2-5-2.6-1-5.2-1.5-7.7-1.7-2.6 0.8-4.4 2.2-5.9 4.3z"/>
	<path id="Path 62" fill-rule="evenodd" class="s1" d="m530.1 371l24.7 0.8c1.3 1.2 2.2 1.1 2.2 3.6v1c0 5.6-4.5 8.6-9.7 8.6h-8.6c-6.9 0-12.9-4-12.9-10.7 0-1.3 2.2-3.2 4.3-3.3zm5.4 4.4c-2.9 0-3-0.6-5.4-1.1 0.1 6.8 4.2 7.5 10.8 7.5 7.2 0 11.6 0.3 11.8-6.4z"/>
	<path id="Path 63" fill-rule="evenodd" class="s0" d="m238.8 250.3c0 3.5-3.2 4.7-3.2 9.7v7.5c0 1.2 5.3 14.1 5.4 18.3-2.5-0.2-49.6-25.8-54.9-29-6.8-4.1-53.8-27.1-53.8-31.3v-112h40.9c8 0 6.8-9 15.1-9.7 1.3 5.7 4.5 11.8 6.3 17.4 2 6.2 2.7 13.4 5.3 19.5 2.5 6.1 5.5 11 6.6 18.2 1 6.6 3 13.8 5.9 18.8 3.3 5.7 10.3 28.8 12.7 36.8 2 6.5 13.7 31.4 13.7 35.8zm-92.5-124.9h25.8c1.2-4.6 2.2-1.9 2.2-5.4v-1.1c0-2.5-0.8-3.2-3.2-3.2h-33.4c-2.5 0-3.2 0.7-3.2 3.2v103.4c0 4.6 38.9 24.2 45.4 27.8 5.3 3 45.8 24.8 48.2 25-2.9-4.3-10.3-13.2-15.1-15.1-7.8-3.1-12.9-7.6-19.8-10.4-5.8-2.2-35.9-18.7-38.3-21.9v-1.4l8.6 0.1 26.9 0.2c2.1 0 1.9-0.3 3.2-1.1l-3.9-5.7c-8 0.3-46.6 2.9-46.6-2.9v-88.3c0-2.5 0.7-3.2 3.2-3.2zm25.8 3.2h-26.9v85.1c0 2.5 0.8 3.2 3.3 3.2h39.8l-7.2-26.7c-4.7-8.3-9-39-9-54.1zm23.2 101.6l-33.7-0.8 51.4 26.1z"/>
	<path id="Path 64" fill-rule="evenodd" class="s0" d="m814.5 96.1c2.1 5.5 9.3 27.1 9.3 32.7v29c0 26.1-16.3 64.9-35.5 70l-1.3-5.3-495.8-0.1v5.4c-5.7-1.5-15.2-11.8-19.1-16.4-7.3-8.7-9.5-14.6-11.8-24.7-1.4-12.1-5.7-26.3-4.6-39.6l1.6-30.7 0.7-4c3.4-8.8 5.1-15.5 9.8-23.3 6.1-10.2 6.4-10.8 15.9-17.4h7.5v25.8h497.1v-25.8h7.6c7.4 5.2 15 15 18.6 24.4zm-523.3 113.4h495.8l1.3-61.4v-34.4c0-2.5-0.7-3.3-3.2-3.3h-493zm497.1-108.7l-496.2-0.1-0.2 7.2 496.3-0.6zm-496.2 118.4h494v-5.4h-494.8z"/>
	<path id="Path 65" fill-rule="evenodd" class="s4" d="m559.1 450.2l58.1 7.1 4.5 0.7c22-0.1 69.7 26 85.7 34.9 24.8 13.9 49.6 31.4 68.8 50.7 19.7 19.7 38.4 42.8 53.7 66.9 7.4 11.8 34.8 69.2 34.8 84.7 8 11.9 10.8 62.3 12.9 83 2.3 22.7-7 67-10.5 85.2-4.2 21.9-17.1 52.3-26 69.8-11.2 21.9-23.2 39.4-37.9 57.9-51.2 64.7-142.4 124.1-258 124.1-185.5 0-333.6-149.1-333.6-334.9 0-13.4 1.9-27.4 3.2-38.9 1.3-12 2.9-28.6 7.6-39.8 0-21.6 32-83.9 41.9-99 17.3-26.3 41.4-54.9 65.9-74.1 27.8-21.9 50.6-39 86.6-53.3 27.5-11 77.2-25.5 114.4-25.5zm-99 185.7c-0.8 5.9-7.5 11.8-14 11.8h-1.1c-8.1 0-14.1-5.3-21.5-5.3h-6.5c-23.5 0-54 25.5-67.7 25.8-1.6-6.6-8.2-10.8-16.2-10.8h-1.1c-5.8 0-12.6 3.3-12.9 3.3-4.1 0-12.2-10.8-29-10.8h-1.1c-18.9 0-25.9 21.9-33 34.8-3.9 7.2-24 38.8-24 44.9v4.3c0 12.2 9.7 24 9.7 28 0 5.5-9.7 17.2-9.7 33.4v5.4c0 4.4 6.2 17 7.5 22.6 3.9 17.5-0.8 13.1-1.1 25.8h17.2c5.2 0 17.5-21.9 20.1-27.3 5.9-11.7 9-21.2 9-38.4 4.2-6.3 9.8-10.4 14.4-16.8 2-2.6 11.4-18.5 11.4-20.9 0-15-2.6-19.9-9.7-28 3.3-6.2 9.7-19 9.6-28.3l8.7-2.9c3.8 2 8.6 5.1 8.6 10.8 0 2.5-6.4 17.8-6.4 26.9 0 8.8 2.1 18.4 3.5 26.7 0.8 5.2 6.2 21.3 6.2 25 0 16.4-23.7 21.4-23.7 29.1v8.6c0 14 6.5 15.3 2.2 32.3-3.5 13.8-16.2 14-16.2 23.7 0 4.4 7.5 6.3 7.5 10.7 0 5.9-22.7 19-4.3 30.2 9.3 5.6 18.9 17.2 33.4 17.2h2.1c4.1 0 6.5-9.7 6.5-14v-5.4c0-11.9-9.7-23.5-9.7-35.5 0-13.3 31.9-47.5 40.6-56.3 3.7-3.6 7.3-10.5 12.2-11.5 7.3-1.6 12-3.5 17.9-6.9 6.1-3.5 22.5-14.9 26.3-20.4 0.3-0.4 33.2-21 34.4-21.1l3.4-1 1.6 2.8-9.9 4.9-28.2 15.8-9 10.8c4.9 7.3 26.4 12 37.7 12.9v3.2c-2.1 0-20.7-0.6-20.9-0.6-6.2-2.6-7.1-6.1-16.8-6.9-1 0.7-3.2 1.8-3.2 3.2 0 3.6 18.3 17 18.3 28v4.3c0 4.8-6.5 14.2-6.5 16.2v2.1c0 8.9 11.1 11.1 18.3 13 7.3 1.8 14.5 7.2 19.1 12.1 5.7 5.9 7.7 12.1 8.9 22.3 1.4 11.2 12.5 5.4 21.5 9.7-0.6 7.7-5.4 12-5.4 17.2v7.6c0 4.5 4.9 3.9 8.7 6.3l12.8 1.2h19.4c2.9 0 3.2-1.5 4.3-3.2-1.9-22.6-15.8-32.6-26.7-46.5-6.6-8.5-29.2-31.9-29.2-44 0-9.4 10-29.7 13-42.1l-31.3-28.9c5.2 0.1 14.9 9.8 19.2 13.1 4.3 3.2 15.2 10 20.4 11.8 7.5 2.6 43.8 14.9 50.8 14.9h1c13.5 0 8.3-34.4 15.1-34.4 8.1 0-4 30.4-6.7 33.1-5.2 5.1-16.2 20.3-18 28.2 1.3 0.9 12.7 6.5 13.9 6.5 10.7 0 4.6-13.9 13-16.2 0.7 1.4 1 1.2 1 3.3v1c0 6.5-4.3 12.2-4.3 15.1 0 3.7 13.5 10.8 18.3 10.8h20.5c4.1 0 5.7-7.3 7.5-10.8-3.3-4.9-24.8-17.7-24.8-21.5l0.1-8.9 5.3 1.3c13.8-7.2 6.5-20.2 18.3-20.4-0.4 4.8-9.7 20.9-9.7 24.8v3.2c0 6.6 39.8 44.2 39.8 68.9v8.6c0 6.8-3.6 9.8-4 16.9l9.4 6.8c-2.1 3.1-5.4 6.8-5.4 11.9v2.1c0 5.8 24.9 10.8 32.3 10.8h1.1c5.2 0 10.8-7 10.8-9.7 0-12.7-13.3-41.2-17.3-51.7-3.6-9.5-10.7-46.1-10.7-59.2 0-12.6 3-9.5 10.3-14.5 5.5-3.7 10.2-6.5 14.7-11.1 7.7-7.8 19.1-17.7 19.1-32.6v-6.4c0-13.4-8.3-22.2-6.2-35.3 2-12.6 2.3-24.8 5.1-36.9h3.3c2.9 0 2.9-0.5 5.3-1.1 0.2 9.7 6.4 16.2 16.2 16.2h1c8.2 0 17.4-7.2 22.4-11 4.4-3.3 6.6-1.5 6.7-9.4 0.2-6.4 1.1-9.7 1.1-16.2-0.1-13.2 0.8-20.6 2-31.3 1.3-11.2 4.4-20.8 4.4-30.1 0-5.5-4.3-13.3-4.3-17.2v-5.4c0-8.1 14.4-1.4 6.5-35.6-4.2 2.8-6.6 3.9-10.8 6.5-3.7 2.2-7.4 9.7-8.6 9.7-4.1 0-10.4-10.8-12.9-10.8-4.5 0-5.1 2.2-10.8 2.2h-1c-3.6 0-11-14.5-11.9-18.3-12.2 0.2-7.6 18.1-17.6 24.4-6 3.8-32.9 2.7-32.9 10 0 1.9 1.4 4.1 2.6 6l-14.7 11.4-1-1c-0.2-0.6 1.2-0.9 1.4-1.1 0.3-0.2 0.9-0.7 1.2-1 0.9-0.8 1.9-1.8 2.7-2.7 1.6-1.9 2.8-3.7 3.5-6.1 1.4-4.5 2.1-11.3 2.1-17.3-11.7 0-22.7 0.4-30.1 5.4 0 20.6-10.6 28-31.2 28-4.6-9.6-4.5-13.3-11.2-22.2-6.5-8.7-13.5-8.8-20-14.6l9.7 1.2h4.3c10.6 0-3.5-25.8 11.8-25.8 2-3 3.2-4.6 3.2-9.7v-6.5c0-10.8-3.9-11.6-11.1-14.7-5.7-2.4-10.4-6.8-19-6.8-16.3 0-28.9 9.3-39.8 15.1 0 19.4-14 22.6-14 37.7 0 6.4 2.2 10.7 8.6 10.7h9.7c-1.9 5.3-15.6 6.5-22.6 6.5-0.5-6.3-6.9-23.7-9.3-30.6-3.1-9.3-5.4-23.2-16.5-23.2h-4.3c-3.1 0-4.2 2.4-5.2 4.3l-1.3 22.6c-0.8 12.6 10.7 27.2 15.1 35.5-5.7 8.4-19.6 18.9-22 27.5-2 7.3 0.3 16.3-0.6 24.2zm205.5 218.6c4.8-1.1 35-18.6 41.3-22.2 11.6-6.8 25-31.6 32.9-31.6h2.2c7.1 0 19.2 14.7 23 20 2.7 3.6 6.6 9.1 9.5 12 6 6.2 17 1.3 17 5.6 0 4.8-9.7 2.8-9.7 23.7 0 7.9 5 9.7 12.9 9.7h12.9c32.4 0 22-6.7 16.4-28.2-5.7-21.4-2.5-26.8-22.1-36-14.5-6.9-24.3-11.5-34.9-22.2-6.5-6.6-22-25.6-32.5-25.6-11.6 0-16.2 7.2-24.3 11.3-8.7 4.4-6.7 14.8-11.1 24.4-9 20.2-21.6 23.4-37.8 34.3 0 11.7-1 14.8 4.3 24.8zm116.2 77.5h-4.3c-4.2 2.8-15.5 6.3-21.5 9.7-6.5 3.7-11.6 10-17 15.4-10.4 10.4-21.4 21.7-37.9 25.5-5.9-3.9-6.3-9.6-14.8-15.2-6.3-4.1-12.8-8.4-22.9-8.4-24.3 0-41.3 9.6-61.3 9.6l-4.3 0.3-11.8-2.4c0-17.4-11.7-45.9-15-62.5-1.9-9.8-6-20.6-8.7-30.1-3.2-11.3-6.2-19.4-19.6-20.4l21.5 74.3 4.6 17.2c0 9.2 8.2 19.9 0.1 20.5-10 0.8-20.9 3.1-27 3.2-22.8 0.2-37.4-0.9-56.4 3.8-15.1 3.8-30.5 10.6-33 26.3-0.8 5.1-2.8 23.6-1.1 27 1.9 3.7 11 15 15.1 15 6.7 0 22-3.6 32.3-4.3 12.7-0.9 16.1-7.8 23.7-12.9 7 0 25.8-3.4 25.8 5.4v3.2h-19.4c-8.7 0-25.8 4.6-25.8 11.8v5.4c0 4.7 8.1 6.5 12.9 6.5 3 0 3.5-2.2 6.5-2.2 2.8 0 4.3 3.5 9.5 3.1 3.8-0.4 7.3-3.1 10.9-3.1 4.7 0 4.4 2.2 7.6 2.2 3.8 0 6.7-5.3 7.5-8.6 9.8 0 29.4-3.2 34.1-8.9 6.8-8.2 9.5-19.1 24-19.1h4.3v-3.3c0-6.6 6.9-16.7 10.9-19.5l3.1 2.3c-3.4 5-10.8 9-10.8 17.2 0 1.9 8 7.2 9.7 9.7-15.4 3.6-38.7 0.2-38.7 21.6 0 3.9 2.9 8.6 6.4 8.6h4.3c5.4 0 9.3-5.4 10.8-5.4 3.7 0 1.6 2.1 5.4 2.1h3.2c4.3 0 4-1.4 7.2-2.5 4.4-1.6 3.6 0.4 8.9 0.4 11.6 0 1-12 19.4-11.9 6.8 0.1 9.9-0.6 15.1-1 8.5-0.7 6.8-2.8 12.9-3.3-0.2-6-2.2-6-2.2-11.8v-3.2c0-10.5 5.8-15.9 6.5-23.7h2.1c-0.6 2.9-1 2-1 4.3 0 10.5 41.7-5.6 45.4-8.4 13.7-10.5 14.8-21.5 29.2-31 8.8-5.9 30.9-13.9 42-18.3 8.7-3.5 29.7-21.4 29.7-31.7v-2.2c0-5.2-5.9-14-10.8-14h-4.3c-10.4 0-16.7 11.2-18.9 21-2.2 10-16.8 11.8-24.1 16.7z"/>
	<path id="Path 66" class="s5" d="m272.9 556.3c-4.7 6.4-10.8 11.6-15.9 18.6-5.3 7.3-21.5 34.4-26 39.5l-70.3-74.7c-6.5-7-37.3-35.9-37.3-40.5 0-5.2 44.6-78.6 49.5-81.8 9.2 6.1 52.3 49.8 59.2 59.2 14.3 19.7 42.5 39.7 57 61.4-5.1 7.6-11.3 11.6-16.2 18.3z"/>
	<path id="Path 67" class="s5" d="m963.7 499.2c0 1.6-24.4 24.2-27.5 28.4-5.2 7-20.1 23.1-26.6 29.5-13.1 13.1-41.3 49.2-53.5 57.3-1.8-1.2-22.7-34.7-27.2-40.6-4.8-6.3-9.8-14-15-19.4-3.7-3.9-13.5-13.9-16.5-18.1l116.1-120.7c4.3 3.3 50.2 79.4 50.2 83.6z"/>
	<path id="Path 68" class="s5" d="m886.3 1184.5l-27.1 3.7-3.1 1.9-27 2.5-21.4 43.2c-12.9-8.7-41.7-51.7-55.2-66.5-8.8-9.8-17.4-23.3-26.3-34-7.3-8.8-21.5-25.6-27.2-34.1 1.3-2 32.4-19.5 37.5-22.8 13.2-8.4 23.5-17.5 36.5-26.4l113.9 131.5z"/>
	<path id="Path 69" class="s5" d="m278.3 1235.8l-20.4-43.1-4.4 0.6-52.6-9.2c0.7-2.9 50.4-60.9 56.2-66.5 5.3-5.2 8.1-11.4 13.4-16.7 5.4-5.5 9.8-10.6 15.1-16.1 5.3-5.6 8.6-10.8 14.5-16.8 5.5-5.4 10.6-10.1 14.8-16.4 6.1 3.3 11.7 8.5 17.4 12.8 6.1 4.5 11.6 7.9 17.7 12.4 11.9 8.8 24.9 15.2 38.1 22.2-1 4.1-46.4 60.5-53.2 69.6-6.7 9-50.9 65.7-56.6 67.2z"/>
	<path id="Path 70" class="s4" d="m152.4 835.2c0.1-16.5-2.1-27.5-2.1-43.1v-43.1c0-19.7 5.8-70.8 10.1-87.8 5.7-22.8 16.6-55.2 27.7-71.7l25.7 28.1c-6.9 13.1-30.3 67.8-30.3 84.8l-1 4.2-6.4 43.5-0.6 50.7c3.1 39.8 7.3 63.9 18.9 101.1l21.5 48.6-42.4-10c-16.9 0-17.2-11.8-21.7-25-4.5-13.5-5.6-22.9-8.2-38.1-1.1-6.9-2.9-9.6-3-19.7 0-11-4.4-9.4-12-11.6-5.8-1.8-32.9-7.7-38.6-7.7-2.1-25.8-9.7-55.5-12.8-81.9-3.3-28.9-7.6-56-7.6-88.2v-3.3c0-32.8 9.9-55.7 20.9-78.1 6.3-12.7 37.9-55.5 39.3-60.8 2 1.4 15.1 15.2 15.1 16.2 0 0.8-17.3 25.4-19.7 30.9-5.9 13.5-9.2 21.4-13.8 36.7-7.8 25.5-12.8 56-12.8 89.6 0 7.2-0.8 37.7 5.4 37.7h8.6c5 0 2.2-3.1 2.2-6.5v-42c0-17.3 6.6-61 10.9-75.2 3.2-10.2 8.2-21.1 12.7-30.3 2.6-5.2 15.6-25.7 16.2-28 5.3 0.4 16 14 18.3 18.3-23.8 35.6-37.7 99.1-37.7 159.4v14c0 13.5 0.2 31.8 1.9 43.3 1.9 12.5 0.7 30.8 3 42.2 2.1 10.2-1.2 13.2 7.4 15.3 10 2.5 4.9-2.2 4.9-12.5z"/>
	<path id="Path 71" class="s4" d="m951.9 731.8c6.7-66.1-25.3-133.8-37.7-159.4 0-1.1 13.4-16.8 18.3-17.2 0.4 1.5 13.6 24.1 16.1 29.1 5.2 10.2 10.5 20.1 13.2 33.1 4.9 24.2 10.5 52.4 10.5 82.1v24.8c0 5.6-3.4 12.9 2.2 12.9h8.6c5.4 0 4.3-29.7 4.3-36.6v-1.1c0-14.4-0.4-32-2.4-45-3.8-25.2-9.3-56.3-22.3-78.9-2.2-3.7-21.6-31.9-21.6-32.2 0-3.4 13.3-15.4 16.2-17.3 1.3 5.8 32 45.7 37.5 58.3 10.6 24.3 21.6 39.2 21.6 75.2v21.6c0 20.7-3.4 63.6-7.7 80.5-2.4 9.4-4.3 28.2-6 38.2-1.7 9.4-5.6 29.7-5.7 38l-49.4 11.3c0 24.8-10 52.5-14.6 73.7-3.3 14.6-10.5 16.4-25.2 19-8.1 1.4-29.3 8.3-36.6 8.5 1.5-6.4 11.8-26.9 15.4-35.2 4.1-9.7 10.7-28.2 12.6-39 1.1-6 3.6-12 4.9-19.9 1.2-7.2 2-16.1 3.7-22.2 3.1-12 1.5-34.7 3.1-48.5 3-25.4-4.7-73.6-9.8-92.4-4-14.7-7.6-25.7-12.6-39.1-1.7-4.6-15.2-36-15.2-36.5 0-1.8 23.2-26.2 25.8-27.9 9.4 13.9 22.1 49.5 27 68.9 4.5 18 9.6 65.5 9.6 87.2l0.4 61.4-2.5 31.2v9.7c12.4 0 12.8-5.6 12.9-18.3 0.1-8 1.1-20.8 2.4-28.9 2.6-16.6 3-39.8 3-59.4z"/>
	<path id="Path 72" class="s4" d="m824 453.8c1.7 2.8 12.7 18.8 12.7 20.6 0 2.2-10.7 12.6-12.9 14l-38.7-78.6c3.4-1.6 8.1-2.6 11.6-4.5 3.6-1.9 7-4.8 9.9-6.3 2.6-1.3 23.2 0 30.1 0l40.1 34.2-10.7 11.3c-5.7-3.8-26.5-30.4-32.6-30.4-2.5 0-4.3 1.8-4.3 4.3 0 1.4 28 30.7 28 34.5 0 3.2-11.4 13.3-14 15.1-5.4-4-21.5-39.9-28-39.9-1.4 0-2.5 2.3-3.2 3.3 4.3 6.3 7.8 15.2 12 22.4z"/>
	<path id="Path 73" class="s4" d="m251.4 475.5c0-0.5 22.2-40.4 24.8-45.2l-6.3-2.7-25.1 41.4c-2.6-1.8-14.9-12.8-14.9-16.1 0-1.7 29.1-33.5 29.1-35.5 0-1.4-2.3-3.3-4.4-3.3-6.7 0-26.4 26.6-33.3 31.3l-11-10.6 41.1-35.5 29.1-0.9c6.2 3.7 12.7 9.5 22.6 10.3l-38.2 80.5c-2.6-0.5-13.5-10.5-13.5-13.7z"/>
	<path id="Path 74" class="s6" d="m145.2 213.7v-85.1h26.9v7.5c0 15.1 4.3 45.8 9 54.1l7.2 26.7h-39.8c-2.5 0-3.3-0.7-3.3-3.2z"/>
	<path id="Path 75" class="s6" d="m213 255.4l-51.4-26 33.7 0.7z"/>
	<path id="Path 76" fill-rule="evenodd" class="s6" d="m785.1 110.4c2.5 0 3.2 0.8 3.2 3.3v34.4l-1.3 61.4h-495.8l0.9-99.1zm-369.7 79.1l-0.1-59.7h-12v49.7h-17.9v-49.7h-12v49.7h-17.3v-49.7h-12v59.7zm46.6-10.4q-1.8 1.6-6 1.6-2.1 0-4.6-0.2v9q3 0.7 8.3 0.7 5.4 0 8.9-3.9 3.4-3.8 6.7-11.2l20.1-45.4h-12.5l-11.9 31-14-31h-13.4l21.9 42.9q-1.7 5-3.5 6.5zm72.4 10.3v-47l11.9 47h11.6l11.8-47v47h11.2v-59.7h-18.1l-10.7 40.8-10.8-40.8h-18.1v59.7zm125.8 0v-10h-33.3v-16.3h29.9v-10h-29.9v-13.3h32.2v-10.1h-44.3v59.7zm44.2 0v-26.1h23.6v26.1h12.1v-59.7h-12.1v23.5h-23.6v-23.5h-12v59.7z"/>
	<path id="Path 77" class="s6" d="m912.1 136.3v-7.5h26.9v85c0 2.5-0.8 3.3-3.3 3.3h-39.8l7.1-26.8c4.8-8.3 9.1-39 9.1-54z"/>
	<path id="Path 78" class="s6" d="m871.2 255.6l17.7-25.3 33.6-0.8z"/>
	<path id="Path 79" fill-rule="evenodd" class="s7" d="m461.2 339.8c0 40-33.7 58.1-60.2 72.2 1.9 2.8 11 17.2 14 17.2 13.5 0 25.2-10.8 37.6-10.8h1.1c18.7 0 16.4 20.5 21.5 20.5l2.1-0.8 59.8-5.4 3.8-0.3 12.7-0.5 59.3 7h3.3c0.8-10.2 8.2-20.5 19.3-20.5h5.4c6 0 19 10.8 35.3 11.4l12.1-17.8c-14.4-7.6-30.7-15-41.2-26.7-8.1-9-20.2-31.2-20.2-47.6v-1.1c0-24.4 17.8-44.1 29.4-57.9 4.6-5.5 40.6-42.3 44.9-42.3 8.5 0 10.6 3.6 15.4 5 2.7 0.8 15.4 1.5 19 1.5-5.4 3.7-14.6 3.7-21.5 7.5-1.3 0.7-12.8 11.5-15.4 13.8-7.4 6.6-24.4 21.4-24.4 33.6 0 13.9 14.7 29.1 20.6 40.1l-16.3 10.5c3.6 15.8 21.9 31.9 33.6 40.7 8.9 6.7 39.1 20.7 53.5 20.7l7 0.1 9.2 24.7c-6.4 0-13.2-0.3-19.5-0.1-6.6 0.2-5.1 5-9.9 10.6-2.4 2.8-20.1 19.4-20.1 20.7 0 4.8 9.7 8.1 9.7 16.2v4.3c0 3.6-2.2 2.2-2.2 4.3 0 1.8 24.9 20.6 28.3 23.4 11.1 9.3 17.3 15.2 27.4 25.3 16.1 16.1 35.1 38.6 46.3 59.2 2.1 3.8 7.1 12 9.7 16.1 4.1 6.6 5.6 11 8.8 18.1 5.5 12.3 11.4 23.3 15.3 37.5 1.3 4.8 4.3 14.2 6.2 19.6 2.4 6.6 3.3 15.1 5.3 21.7 1.8 5.8 6.6 39.5 6.6 46.1v37.7c0 14.6-1.3 25.2-3 36.9-1.6 10.5-5.6 25.8-5.6 34.2-2.4 3.6-12.2 37.3-15.6 45.8-6.5 15.5-11.9 27.7-19.7 41.7-13 23.2-34.6 53-52.7 71.1-19.5 19.5-43.4 40.6-68.2 54.4-6.1 3.4-12.1 7.9-18.5 11.7-6.6 3.8-14.5 6.7-21.2 10.1-7.2 3.6-37.1 16.1-46.2 16.1-10.1 6.8-66.2 15.1-86.1 15.1h-28c-44.3 0-103.3-18.3-133.6-33.2-38.4-18.9-69.3-40.1-98-68.8-13.4-13.5-27.3-28.7-38-44.9-9.7-14.6-24.9-35.7-31.2-52.7-3.8-10.2-8.7-18.5-12.4-29.6-7.3-21.7-13.7-44.3-17.1-66.9-1.5-9.6-4.3-27.8-4.3-37.7v-30.2c0-57 27.2-130.4 49.2-166.1 22.8-36.7 67.7-89.3 105.5-109.5 0.3-0.4 0.6-1.2 0.7-1.9-0.9-2-4.7-11.2-1.7-14.6 3.6-4 7.9-8.5 7.9-9.9 0-5.6-21.8-18.4-25-31.8l-24.2-0.2 10.3-24.6c19.2 0 45.9-10.8 57.2-19.2 9-6.8 12.4-9.1 20.5-17.1 2.5-2.5 15.9-20.9 15.9-22.9 0-4.3-11.9-7.7-16.2-14 5.3-7.8 19.4-24.7 19.4-35.5v-3.3c0-13.9-15.3-27.3-23.7-33.4-5.4-3.9-9.3-9.9-14.2-13.7-5.8-4.5-15.2-3.9-21.3-7.8l19.4-1.1c17.3-11.6 18.9-3.1 29.3 7.3 8.2 8.1 15.5 15.5 23.7 23.7 13 13.1 34.1 35.6 34.1 60.6zm-108.6 88.2l-11.9 1.1c1.6-6.9 12.9-23 4.7-19.1-6.6 3-13.3 13-13.2 22.6l5.3-1.3v3.2c0 9.7 23.8 24.7 25.1 31.5l-8.5 11.6c-2 2.9 0.3 16.5 2.3 16.5l1.4 0.3c5.4 0 7.7-3.9 9.8-7.1v-7.5c5.6-3 18.8-13 26.9-13h1.1c4 0 2.5 3.3 6.5 3.3h2.1c2.7 0 8.6-2.4 8.6-4.3 0-4.6-3.6-6.1-0.7-7.2 3.2-1.2 2.9 3.9 7.2 3.9h3.2c3.3 0 4.3-3.1 4.3-6.4 0-3.8-0.4-4-1.6-6.8-2-1.9-1.9-1.9-4.8-1.9h-7.6c-11.2 0-25.3 11.2-37.6 14-2.6-1.6-22.6-25-22.6-26.9zm19.3-6.4c-3.9 0-5.2 1.7-8.2 3l8.2-25.6c-15.7 8.3-8.3 13-16.1 18.3 0 7.1-2.2 5.9-2.2 7.5 0 2.5 0.8 3.2 3.3 3.2h3.2c0.6 6.8 12.4 24.8 18.3 24.8h3.2c4.5 0 12.9-3.6 12.9-6.4 0-4.8-13.6-24.8-19.3-24.8zm132 27c-33.6 0-75.5 17.3-99.3 28.4-16.4 7.7-28.1 15.9-42.4 23.2-13.6 6.9-25.7 19.3-37.5 28.2-25.3 18.8-42.2 44.8-61.3 70-9.9 13-15.2 27.2-23.5 42.2-6.7 11.9-13.4 39.2-18.7 47-0.2 7.3-6.5 28.5-8 37.2-1.9 10.6-4.9 30.7-4.9 41.4v35.5c0 15.2 6.5 50 10.4 62.9 3.3 10.9 4.6 17.9 8.3 28.2 3.8 10.2 7.1 17.1 10.9 26.8 13.3 34.3 36.7 63.3 58.4 89.2 16.4 19.5 58 53.9 81.6 65.7 22.5 11.2 72.8 34.8 104.8 39l45.5 5.2 24.4-0.4c80.1 0 165.8-40.3 208-78.3 26.4-23.8 46.7-46 66.8-76.3 10.7-16.1 42.6-78.8 42.5-101.8l2.3-3.1c0-10.5 5.5-27.2 6.4-40.9 0.9-13.1 3.3-32 1.3-44.4-1.1-7.1 0-15.4-1.1-22.5-1.2-7.2-1.5-13.6-2.5-21.2-1.4-9.4-5.4-32.8-9.5-39 0-7-12.5-39.5-15.6-45.8-7.5-14.8-14.3-26.7-22.1-40.3-15.1-26.3-35.2-47.7-56.2-68.7-15.6-15.7-51.7-42-73.4-51.4-21-9.1-61-32.3-88.5-32.2l-11.5-1.7-55.5-4.6-33.3 1.6zm-154.6 44q-0.1 0-0.2 0.1c-0.3 0.5-0.4 0.6 0.2-0.1zm365.8-71.1h-3.2c-6.2 0-19.4 19.7-19.4 23.7 0 4.4 10.4 8.6 15 8.6 1 0 10.7-10 12.2-11.5 4.1-4.5 6.2-15.4 9.4-15.4h3.2c-0.9-10.5-8.8-25.8-18.6-27.9l9.1 24.6c-3.9-0.8-3.8-2.1-7.7-2.1zm19.3 6.5v4.3c0 5.9-19.1 26.1-23.6 29.1-7.2-1.7-29.6-14-34.5-14h-10.7c-2.6 0-6.5 3.8-6.5 6.4v2.2c0 2 2.7 6.4 5.4 6.4h3.2c4 0 2.4-2.9 7.6-4.3-0.4 4.5-1.1 2.4-1.1 6.5 0 4.4 6.3 5.4 10.8 5.4 3.7 0 1.6-2.2 5.3-2.2h4.3c7 0 19.4 9 24.8 11.9v7.5c2.1 3.2 5.4 7.6 10.7 7.6h1.1c3.5 0 7.6-4.1 7.6-8.7 0-11-9.4-15.9-16.2-20.4 4.4-6.6 26.9-25.1 26.9-30.2v-3.2c8.9 2.1 3.8-4.5 1.6-11.3-2.6-7.6-4.4-9.5-12.5-11.3l7.6 19.4c-3.3-0.3-3.7-1.1-7.4-1.1zm-95.8-4.3c-5.5 0-14 2.5-14 7.5v3.2c0 2.6 3.9 6.5 6.5 6.5 1.8 0 8.3-4.3 8.6-4.3 5.2 0 2.1 4.2 2.1 7.5 0 3.3 1.1 4.4 2.2 6.5 9.8-0.2 14.2-3.7 18.4-10.5l20.3 3h1.1c3.6 0 18.3-23.7 18.3-23.7 0-3.8-6.5-4.7-9.7-5.4l-14.3 22-9.4-1.6c-3.8-2.5-24.2-10.7-30.1-10.7zm-244.3-9.7c-3.7 0.9-9.6 1.2-9.6 5.4 0 0.7 14.6 24.7 20.4 24.7 4.1 0 10.6-6.8 18.9-2.7 6.4 3.2 3.5 8.2 15.5 9.1l3.3-1c1.4-6.3-2.2-14 3.2-14 3.7 0 6.5 5.4 9.7 5.4 3.5 0 6.4-4.7 6.4-8.6v-1.1c0-5.2-7.3-6.4-12.9-6.4h-3.2c-13.6 1.9-22.4 10.6-32.3 9.6l-6.1-0.2zm305.6-170.1c-3.9 0-9.9 7-8.6 9.7 6.1 2.9 24.4-9.7 12.9-9.7zm-320.7 0c0.3 10.1 8.8 7.2 16.2 10.7-0.4-5.1-5.6-10.7-9.7-10.7z"/>
	<path id="Path 80" class="s7" d="m101.9 861l-0.6-3.6 25.3 4.9 10.4 49.1c-11.8-7.8-35.1-31.4-35.1-50.4z"/>
	<path id="Path 81" class="s7" d="m181.5 987h-7.5c-11.3-1.3-33.2-10.6-44.4-20.2-5.2-5.7-16.8-32.6-18.1-42.2 10.8 2.5 40.9 12.7 46.6 19 6.9 7.6 22.4 31.4 23.4 43.4z"/>
	<path id="Path 82" class="s7" d="m221.3 1059.2c-18.1 0-43.2-9.2-53-18.1-13.2-11.8-18.1-29.2-26.6-45.5 17.8 0 43.3 9.5 53.8 17.3 9.8 7.2 22.5 32.3 25.8 46.3z"/>
	<path id="Path 83" class="s7" d="m233.1 1122.7c-7.7 0-22.4-14.9-25.8-20.5-3-4.9-14.3-25.5-15.1-31.2 17.2 0 60.6 14.3 66.8 22.6-1.6 2.3-25.2 29.1-25.9 29.1z"/>
	<path id="Path 84" class="s7" d="m222.4 999.9c0-6.7-0.4-30.1 5.4-30.1 2.6 0 20.8 21.2 22.6 24.7 5.5 10.9 11.5 18.1 10.7 35.6l-1.3 36.6c-8.5-0.7-22.4-18.8-26.9-25.6-7-10.8-10.5-23.7-10.5-41.2z"/>
	<path id="Path 85" class="s7" d="m408.5 1179.5l20.5 2.4c-12 17.9-55.2 34.5-86.1 34.5h-24.8c0.7-6.4 19.7-21.7 25.6-25 8.3-4.5 28.1-11.6 40.1-11.6z"/>
	<path id="Path 86" class="s7" d="m397.3 1111.5c12.3 6.7 35.7 35.1 39.2 50h-16.1c-10.2 0-20.6-1.7-28-4.3-3.1-1.1-23-8.6-24.2-9.1z"/>
	<path id="Path 87" class="s7" d="m454.8 1132.4h1.1c21.2 0 35.8 3.6 48.8 12.5 6.3 4.3 26.9 26 27.5 33.8-21.3-5-39.7-1.5-58.8-11.1-13.3-6.7-30.2-21.3-36.9-34.1z"/>
	<path id="Path 88" class="s7" d="m507.1 1216c-8.4 4.8-20.4 10.1-33 10.1h-4.3c-15.1 0-35.1-4.2-49.4-9.7 23.5-26.9 84.3-31 110.8-18.3-1.1 1.6-21.2 16.2-24.1 17.9z"/>
	<path id="Path 89" class="s7" d="m596.8 1190.5h12.9c15.7 0 51.1 17 57 25.9-14.8 3.5-26 9.7-45.1 9.7-15.9 0-28.1-2-38.4-8-3.8-2.2-25.9-17.9-27.3-20 4.3-2.3 33.4-7.6 40.9-7.6z"/>
	<path id="Path 90" class="s7" d="m581.1 1145.7c20.8-15.3 45.6-13.8 69.5-12.2-3 11.3-26.7 27.7-37.2 33.8-13.5 7.8-40.2 9.8-59.6 11.4 1.9-7.1 21.2-28.5 27.3-33z"/>
	<path id="Path 91" class="s7" d="m676.4 1179.8h20.5c14.7 0 32.6 5.7 43.5 10.3 6.8 2.9 28 19.2 28.6 26.3h-26.9c-14.1 0-37.8-6.3-48.9-10.4-10.4-3.8-29.7-16.1-35.1-24.1z"/>
	<path id="Path 92" class="s7" d="m649.5 1161.5c1.8-6.8 12.8-21.3 16.3-27.9 3.2-5.9 17.2-18.3 23.5-21.7 2.4 1.6 28 34.3 28 34.5 0 7-38.9 15.1-46.3 15.1z"/>
	<path id="Path 93" class="s7" d="m870.1 1074.5l23.7-3.5c0 7.4-11.5 26.3-15.1 31.2-5.4 7.3-14.5 19.6-25.8 20.5l-24.8-29.1c5.1-7.5 34.4-14.3 42-19.1z"/>
	<path id="Path 94" fill-rule="evenodd" class="s8" d="m822.8 1040.8c-0.2-20.5 0.8-40.7 16.3-56.8 5.5-5.6 16.8-19.9 25.3-20.6l2.5 18.2v33.4c0 10.4-8.6 28.6-14.3 34.2-6.1 6.1-17.6 21.6-27.7 21.8 0-10.6-2-19.2-2.1-30.2zm4.3 25.9c6.3-0.5 23.4-19.5 26.9-24.8 4.9-7.4 12-29.1 10.8-42l-3.3-31.2c-35.8 18.3-36.3 65-34.4 91.5z"/>
	<path id="Path 95" class="s7" d="m864.8 999.9c1.2 12.9-5.9 34.6-10.8 42-3.5 5.3-20.6 24.3-26.9 24.8v-6.5c-1.9-26.5-1.4-73.2 34.4-91.5z"/>
	<path id="Path 96" class="s7" d="m933.7 997.2l11.7-2.6c-0.5 5.9-16.2 34.1-20 39.2-5.4 7.3-8.7 8.9-16.1 14-5 3.3-36.6 15.1-43.2 10.7-1.6-1 0.2-3 1.7-6 4.6-9.3 7.1-17.3 12.3-26.4 7.9-13.7 29.6-27.2 50.4-27.1z"/>
	<path id="Path 97" class="s7" d="m904.7 983.1c3.6-5.2 6.3-14.9 9.9-21.6 3.9-7.2 8.9-13.3 14.4-18.9 6.1-6.2 36.6-19.1 47.6-19.1-5.6 16.5-11.8 39.6-25 51.4-7.9 5.9-35.2 14.3-49.2 14.3z"/>
	<path id="Path 98" class="s7" d="m957.6 873.9c1.3-8.4-0.4-10.4 6.7-12.3 5.6-1.5 8.8-2.7 15.6-2.7h4.2v6.4c0 15.6-22.5 33.8-32.5 40.4 0-13.6 4.2-20.1 6-31.8z"/>
	<path id="Path 99" fill-rule="evenodd" class="s1" d="m866.9 1015c0 10.4-8.6 28.6-14.3 34.2-6.1 6.1-17.6 21.6-27.7 21.8 0-10.6-2-19.2-2.1-30.2-0.2-20.6 0.8-40.7 16.3-56.8 5.5-5.6 16.8-19.9 25.3-20.6l2.5 18.2zm-39.8 45.3v6.4c6.3-0.5 23.4-19.5 26.9-24.7 4.9-7.5 12-29.1 10.8-42l-3.3-31.3c-35.8 18.3-36.3 65.1-34.4 91.6z"/>
	<path id="Path 100" fill-rule="evenodd" class="s1" d="m437.6 1164.7l-17.3 0.3-15.1-1.2c-11.8-2.1-33.4-12.1-37.6-13.1-2.2 0-30.3 37.2-34.6 42.2l1.3 0.9c0 0 10.8-6.2 12.4-6.9 5.8-2.4 8.3-3.8 14.6-5.9 9.3-3.1 24.2-4.5 33.2-4.5l4.4-0.3 36.5 3.6c-2.2 8.4-38 30-49.4 32.4-10.9 2.2-20.6 6.4-34.5 6.3-11.6 0-26.3 1.1-39.4 1.5l-33.8 40.5c-4.7-1.2-13.5-21-15.2-26.7-2.7-8.7-12-20.1-13.8-28.2l-4.3-0.1-72.6-11 58.6-68.6c-10.5-2.8-21.9-15.5-27.7-23.9-3.2-4.6-16.3-29.7-16.4-35.3h6.4c6.1 0 6.6 2.2 15.1 2.2 0.1 0 26.5 9.2 28 9.6 7.3 2.2 22.6 11.5 26.9 11.9l-1-0.9 42.9-46.5c-3.2-4.9-13.7-14.3-18.5-19.1-6.8-6.7-11.6-13.8-17.8-21-13.2-15.4-20.3-28.3-31.5-44.6l-21.6-3.4-3.3-1.7-52.5-12.5c6.1 9.2 9.5 11.6 15.4 23.3 2.7 5.5 11 21.6 11.5 27.3h-6.5c-7.1 0-23.8-5.3-29.3-7.3-11.9-4.2-15.2-5-23.2-13.4-5.4-5.7-10.5-14.9-13.3-23.3-2.4-7.4-7.8-21.9-9.3-28.7l26.6 8.4 23.8 10.5c-2-7.6-12.5-35.8-12.2-40.4 0.2-3-6-41.7-7.2-46.8-15.2-3.6-30-4.5-44.8-9-5.4-1.7-10.3-35.4-11.1-42.8-1.7-15.8-4.3-30.3-7.2-46.7-7-36.6-7.7-72.9-5.1-110.5 0-43.5 59.6-114 59.6-116.3 0-3.4-19.2-21.4-22.6-23.6 10.6-15.9 22.3-36.6 31.2-53.9 4.7-9.3 11.8-16.3 16.2-25.8 4.4-9.9 12.9-17.9 17.2-25.2l13.9-0.7 43.1 0.7 46.2-1.8h7.6c1.1 0 16.3 11.9 21.5 11.9h5.4c-0.1 5.1-16.7 35.5-20.1 42.4-1.9 3.9-19.7 42.3-19.7 42.7 0 4 12.2 14.9 15.3 18 2.2 2.2 15 17.5 15.9 17.5 2.4 0 19.9-16.4 22.8-19.1 4.1-3.9 23.6-17.2 24.5-18.6-0.2-0.4-2.1-4.2-2.1-4.3-1.5-8.2 7.9-18.5 8.6-18.3 0-7.3-23.5-18.5-23.7-29.1h-25.8v-4.3c0-3.8 10-25.4 14-28l11.4-0.8c22.8-4.1 30.2-8.4 47.7-19.4 9.3-5 25-25.4 31.2-34.7-2.5-3.8-16.1-8.8-16.1-12.9 0-4.9 20.4-27 20.4-36.6v-3.3c0-12-19-28.6-26.7-34.6-8.7-6.9-6.4-9.2-18.1-13.1-8.4-2.8-17.3-2.5-21.8-8.9l26.5-3.6 17.1-5.6 0.4 1.2v-3.2l12.9 0.2 40.9 3c5 0.4 4.8-1 9.7-1.1l-0.1 2.9-22.2 10.6 5.1 2.9 19.4-0.2c-1.4 5.2-14.2 12.9-19.4 12.9h-8.6c-3.6 0-8.1-2.2-9.9-4.5l-0.9 1.3c-0.1 0.2 0.6 0.1 0.7 0.4 0.3 1 0.7 0.4 1.2 0.9 0.3 0.3 1.3 1.3 1.7 1.6 1.3 1.3 1.8 2 3.2 3.3l6.4 6.4c4.5 4.5 9.1 8.3 12.7 13.2 8 11 13 20.2 20.1 31.3l2.5 19.3c2.5 19.6-9.9 39.7-17.7 50.2-2.7 3.6-14.3 14.1-17.8 16.6-2.9 2.1-22.6 10.1-22.6 11.8 0 3.1 6.9 13 9.6 13h2.2c2.4 0 17.8-5.5 21.3-6.7 12.6-4.6 8.9-3 22.8-3 7.8 5.2 10.5 10 12.9 20l57-7.2q12.8-1.4 31.2-0.6l49.5 7.2c8.6-12.8 0-9.3 15.1-19.4 13.3 0 11.3-2.3 23.5 3.4 4.4 2.1 17 6.3 22.8 6.3 1 0 8-10.5 8.6-13-9.9-5.2-24.6-13.1-32-20.7-5-4.9-8.3-9.1-12.9-14-5.3-5.5-6-11-10-16.9 0-8-3.2-10.8-3.2-17.3v-17.2c0-15.7 20.8-38.9 28.4-49.1 9.4-12.7 29.5-27.1 38.3-40.3-7.5 2-20.4 23.7-30.1 23.7h-4.3c-9.5 0-23.9-5.6-25.9-12.9 3.4 0.3 3.9 1.1 7.6 1.1 2.4 0 14.3-2.6 17.2-3.3v-2.1l-0.6 1.1-21.6-11.7 0.7-1.3c3.3 0.3 3.8 1.1 7.5 1.1l8.6-0.3 36.6-2.9h10.7v3.2h6.5c6.4 0 7.2 5 18.3 5.4 6.9 0.2 13.7 2.1 21.5 2.1-2.2 6.3-14.3 7.3-21.9 9.3-9.8 2.6-11 8.3-17.7 13.6-10 7.8-26 19.4-26 36.4v1.1c0 10.8 19.3 32.4 19.3 36.6 0 4.3-10.9 10.9-15 11.8 6.2 26.6 54.3 57.1 89.3 57.1 1.1 0.8 2.2-0.4 3 0.5 3.4 3.4 3.7 9.3 6 15.2 1.9 4.8 9.3 15.5 2.8 15.5h-22.6c-1.6 6.1-24.7 25.4-24.7 28 0 3.3 8.6 8.2 8.6 16.2v4.3c0 2.9-0.5 2.9-1.1 5.4 18.1 9.5 29 24.3 44.2 34.5l32.2-33.5c-3.7-7.7-5-12.8-9.5-20.6-2.1-3.7-8.6-18-9.7-21.5-2.6-8-20.6-39-20.6-41.9 0-4.1 3.6-3.2 7.4-3.7l7.4-2 11-8.3c27.1 0 86.2 5.8 110.8 0 5.6 8.4 10.6 17 16.4 25.7 5.6 8.3 10.7 17.4 15.7 26.2 5.2 9.3 10 17.3 15.7 26.3 5.8 9 9.7 19.1 14.7 28.5-3 4.4-20.5 18.8-20.5 22.6 0 0.9 32.8 49.6 36.4 55.1 3.2 4.9 12 24.2 14.7 30.4 11.4 26.3 9.2 52.1 9.2 79.2 0 11.9-1.8 39.9-4.1 48.7-3.6 13.9-12.1 85.9-14.2 89.2 0 23.1-8.8 13.8-26.7 18.5-6 1.6-10.5 3.1-18.3 4.3-11 1.8-5.1 4.3-7.1 15.5-3.4 19.4-11.2 59.4-19.2 71.5l-4.6 3.8-44.9 11.1-2 1.5-12.9 1.8-3.1 2.3c-12.7 0-18.7 9.8-22.5 18.4-2 4.5-14 20.2-17.6 24.4-7.3 8.3-10.3 13.6-18.8 22-2.4 2.4-20.8 20.4-20.8 21.3 0 2.4 38.7 44.5 43.1 47.4 7-4.7 16.4-7.8 24.3-12.3 8-4.6 23.1-5.7 28.4-8.9l20.4-1.4c-4.2 18.1-25.9 53.6-43 58.1 3.2 11.9 55.5 59 58.1 69-8.8 0-38.2 3.2-43.1 6l-27.9 4.7h-5.4c-1.3 5-25 51.9-28.3 54.2l-34.1-40.2c-12.1 0-29.8 0.5-38.3-0.4-15-1.7-21.7-4.4-34.8-6.1-8.3-1.1-21.1-9.3-27.4-13.5-4.6-3.1-21.7-17-24.3-17.7v-2.8l37.7-2.6c16.2-1.2 35.8 2.9 50.7 9.5 3.1 1.4 14.5 7.7 15.3 7.4l-33.7-41.6c-20.2 6.4-34 12.6-54.9 12.9h-15.1c-2.9 0-3-0.5-5.4-1.1 1.8-7.6 12.8-24.7 17.5-30.9 3.7-4.9 23.2-24.4 23.4-25.1-3.7 0.1-30 10.1-36.2 12.2-20.2 6.1-39.2 10.4-47.1 11.2l-5 0.9-45.1 3.7h-9.7c-8.7 0-15.7-0.8-22.5-1.1-9.5-0.4-15.4-2-21.6-2.1-14-0.4-25.3-6.5-41.8-7l-26-9.2c-9.5 0-26.5-10.7-29-10.7-2.5 0-2.1 3-2.2 5.4 5.4 0.4 22.7 18 25.5 22.9 1.5 2.7 21.8 30.9 12.2 30.9zm-174.5 62.6c2.5 6.3 12 22.1 13.1 26.8 6.2-1.7 121.1-145.2 121.6-150.8l-5.4-2.1c-5.3 3.5-49.2 60.9-56.4 70.6-8.8 11.8-49.1 63.6-57.7 69.4l-22.3-45.4-0.4 1-61.2-10.6c0.1-0.2 54.3-64.6 58.9-69.2 9.5-9.5 20.6-23.6 29.1-34.3 9.1-11.5 22.7-21.7 30.4-33.2-1.3-1.9-2.4-4.3-5.4-4.3-3.2 0-58.3 65.7-65.4 73.5-5.9 6.5-63.5 73.2-63.7 74 6.8 0 29.7 2.8 35.1 4.6 10.2 3.5 26.6 2.4 34.9 5 4.7 1.5 12.8 19.8 14.8 25zm157.3-65.8h16.1c-3.5-14.9-26.9-43.3-39.2-50l-29.1 36.6c1.2 0.5 21.1 8 24.2 9.1 7.4 2.6 17.8 4.3 28 4.3zm-162.5 31.2l20.4 43.1c5.7-1.6 49.9-58.2 56.6-67.2 6.8-9.1 52.2-65.5 53.2-69.6-13.2-7-26.2-13.4-38.1-22.2-6.1-4.5-11.6-7.9-17.7-12.4-5.7-4.3-11.3-9.5-17.4-12.8-4.2 6.3-9.3 11-14.8 16.4-5.9 6-9.2 11.2-14.5 16.8-5.3 5.5-9.7 10.6-15.1 16.1-5.3 5.3-8.1 11.5-13.4 16.7-5.8 5.6-55.5 63.6-56.2 66.5l52.6 9.2zm391.6-31.2h21.5c7.4 0 46.3-8.1 46.3-15.1 0-0.1-25.7-32.9-28-34.4-6.3 3.3-20.3 15.8-23.5 21.7-3.5 6.5-14.5 21-16.3 27.8zm160.3 92.6l25.7-51.2 1.2 0.1 34.4-5.4 3.2-1.8 33.4-3.5-127.3-146.6-5 4.9c7.7 11.6 21.5 21.3 30 33.6 6.3 9.1 25.2 25.6 29.8 33.7 7.2 12.6 56.9 62.6 57.5 69.5h-7.5c-2.5 0-2.4 0.8-4.4 2.1-9.2 0-48.8 6.7-52 10.4 0 0.1-20 41-20 41.3-6.1-1.6-51.4-59.5-58.3-68.7-7.6-10.1-50-66.4-55.8-70.2l-5.4 2.1c0.5 1.7 53.2 68 59.5 76.2 11.4 14.9 49 65.4 61 73.5zm-617.6-183c0.8 5.6 12.1 26.2 15.1 31.2 3.4 5.5 18.1 20.5 25.8 20.5 0.7 0 24.3-26.8 25.8-29.1-6.1-8.4-49.6-22.6-66.7-22.6zm105.2-40.7c28.7 28.7 59.5 50 98 68.9 30.3 14.8 89.3 33.1 133.6 33.1h28c19.9 0 76-8.3 86.1-15 9.1 0 39-12.5 46.2-16.2 6.7-3.3 14.6-6.3 21.1-10.1 6.4-3.7 12.5-8.3 18.5-11.6 24.9-13.8 48.8-35 68.3-54.5 18.1-18.1 39.7-47.8 52.7-71.1 7.8-14 13.2-26.2 19.6-41.7 3.5-8.4 13.3-42.2 15.7-45.7 0-8.5 3.9-23.7 5.5-34.3 1.8-11.7 3.1-22.3 3.1-36.8v-37.7c0-6.6-4.9-40.4-6.6-46.2-2.1-6.5-2.9-15-5.3-21.7-1.9-5.4-4.9-14.8-6.2-19.6-3.9-14.1-9.8-25.2-15.3-37.4-3.2-7.1-4.7-11.5-8.8-18.1-2.7-4.2-7.6-12.3-9.7-16.2-11.2-20.5-30.3-43.1-46.3-59.1-10.1-10.2-16.3-16.1-27.4-25.4-3.4-2.8-28.3-21.6-28.3-23.4 0-2 2.1-0.7 2.1-4.3v-4.3c0-8-9.6-11.3-9.6-16.1 0-1.4 17.7-17.9 20.1-20.8 4.8-5.6 3.2-10.4 9.9-10.6 6.3-0.1 13.1 0.1 19.5 0.1l-9.2-24.7h-7c-14.4 0-44.6-14.1-53.5-20.8-11.7-8.8-30-24.9-33.6-40.6l16.3-10.5c-5.9-11.1-20.6-26.2-20.6-40.1 0-12.3 17-27 24.4-33.7 2.6-2.3 14.1-13 15.4-13.7 6.9-3.9 16.1-3.8 21.5-7.6-3.6 0-16.3-0.6-19-1.4-4.8-1.4-6.9-5-15.4-5-4.4 0-40.4 36.8-44.9 42.3-11.6 13.8-29.4 33.4-29.4 57.8v1.1c0 16.5 12 38.7 20.2 47.7 10.5 11.7 26.8 19 41.2 26.6l-12.1 17.8c-16.3-0.5-29.4-11.3-35.3-11.3h-5.4c-11.1 0-18.5 10.3-19.3 20.4h-3.3l-59.3-7-12.8 0.6-3.7 0.3-59.8 5.3-2.1 0.8c-5.1 0-2.8-20.4-21.5-20.4h-1.1c-12.4 0-24.1 10.8-37.6 10.8-3 0-12.1-14.4-14-17.3 26.5-14 60.2-32.2 60.2-72.1v-6.5c0-24.9-21.1-47.5-34.1-60.6-8.2-8.1-15.6-15.5-23.7-23.7-10.4-10.3-12-18.8-29.3-7.2l-19.4 1c6.1 3.9 15.5 3.4 21.3 7.8 4.9 3.8 8.8 9.9 14.2 13.8 8.4 6.1 23.7 19.5 23.7 33.4v3.2c0 10.8-14.2 27.7-19.4 35.5 4.2 6.4 16.2 9.8 16.2 14 0 2-13.4 20.5-15.9 22.9-8.1 8-11.5 10.4-20.6 17.1-11.2 8.5-37.9 19.3-57.2 19.3l-10.2 24.5 24.2 0.2c3.2 13.5 24.9 26.3 24.9 31.8 0 1.5-4.2 5.9-7.8 10-3 3.4 0.8 12.6 1.7 14.5-0.1 0.7-0.5 1.5-0.7 2-37.8 20.1-82.7 72.8-105.5 109.5-22.1 35.6-49.2 109.1-49.2 166.1v30.1c0 9.9 2.8 28.2 4.3 37.7 3.4 22.6 9.8 45.3 17 66.9 3.7 11.2 8.7 19.5 12.5 29.6 6.2 17 21.5 38.2 31.2 52.8 10.7 16.1 24.5 31.3 38 44.8zm561.9-406.2c11.4-1 96.2-108.6 117.3-122.8-5.8-12.1-54.8-100.1-61.3-100.1-3.1 0-116 116.5-123.8 128.1l5.4 4.3c1.1-4.2 110.3-117.4 118.4-121.7 9.1 13.7 48.6 74.1 51.6 87.2-6 11.5-44 44.9-55.1 59.1-5.3 6.8-53.5 58.4-53.5 59.4 0 4.1 0.7 2 1 6.5zm11.9 326.2c7.3-0.1 28.5-7 36.6-8.5 14.7-2.6 21.9-4.3 25.1-19 4.7-21.1 14.7-48.8 14.7-73.7l49.3-11.3c0.1-8.3 4.1-28.5 5.8-38 1.7-9.9 3.6-28.8 6-38.1 4.3-16.9 7.7-59.9 7.7-80.6v-21.5c0-36-11.1-51-21.6-75.2-5.5-12.6-36.2-52.6-37.6-58.3-2.8 1.9-16.1 13.9-16.1 17.2 0 0.4 19.4 28.6 21.6 32.3 13 22.5 18.5 53.6 22.3 78.8 2 13 2.4 30.6 2.4 45v1.1c0 6.9 1 36.6-4.3 36.6h-8.6c-5.7 0-2.2-7.2-2.2-12.9v-24.8c0-29.7-5.6-57.9-10.5-82-2.7-13.1-8.1-22.9-13.2-33.2-2.5-5-15.7-27.5-16.1-29.1-4.9 0.4-18.3 16.2-18.3 17.3 12.4 25.6 44.4 93.2 37.7 159.3v9.7c0 19.6-0.5 42.8-3 59.5-1.3 8.1-2.3 20.9-2.4 28.9-0.1 12.7-0.5 18.2-12.9 18.2v-9.6l2.5-31.2-0.4-61.5c0-21.6-5.2-69.2-9.7-87.2-4.8-19.3-17.5-54.9-26.9-68.9-2.6 1.8-25.8 26.2-25.8 28 0 0.4 13.5 31.9 15.2 36.5 5 13.4 8.6 24.3 12.6 39.1 5.1 18.8 12.8 67 9.8 92.3-1.6 13.9 0 36.5-3.2 48.5-1.6 6.2-2.4 15.1-3.6 22.2-1.3 7.9-3.8 14-4.9 19.9-1.9 10.9-8.5 29.3-12.6 39.1-3.6 8.3-13.9 28.7-15.4 35.1zm-689.7 36.7c-1-12.1-16.5-35.8-23.4-43.4-5.7-6.4-35.9-16.6-46.6-19.1 1.3 9.6 12.8 36.6 18.1 42.3 11.2 9.6 33.1 18.8 44.3 20.2zm-37.8-109.7c2.6 15.3 3.7 24.7 8.2 38.1 4.4 13.3 4.7 25 21.7 25l42.3 10.1-21.4-48.6c-11.6-37.3-15.9-61.4-19-101.2l0.7-50.6 6.3-43.6 1.1-4.2c0-17 23.3-71.6 30.2-84.7l-25.6-28.1c-11.2 16.5-22 48.8-27.7 71.6-4.3 17-10.2 68.2-10.2 87.9v43c0 15.6 2.3 26.6 2.2 43.1-0.1 10.4 5.1 15-4.9 12.6-8.6-2.1-5.3-5.1-7.4-15.3-2.3-11.5-1.1-29.7-3-42.3-1.7-11.5-1.9-29.7-1.9-43.3v-14c0-60.2 13.8-123.8 37.6-159.4-2.2-4.3-13-17.8-18.3-18.3-0.6 2.3-13.5 22.9-16.1 28-4.6 9.3-9.6 20.2-12.7 30.4-4.3 14.2-11 57.9-11 75.2v42c0 3.3 2.8 6.4-2.1 6.4h-8.6c-6.2 0-5.4-30.5-5.4-37.7 0-33.5 4.9-64 12.7-89.5 4.7-15.3 8-23.2 13.9-36.8 2.4-5.5 19.7-30.1 19.7-30.9 0-1-13.1-14.8-15.1-16.1-1.4 5.3-33 48.1-39.3 60.8-11.1 22.3-21 45.3-21 78.1v3.2c0 32.3 4.3 59.4 7.7 88.2 3 26.4 10.6 56.1 12.8 82 5.7 0 32.8 5.9 38.6 7.6 7.5 2.3 12 0.7 12 11.7 0 10 1.8 12.7 3 19.6zm85.7-258.9c0-4.7-35.5-41.1-61.8-68-10.5-10.8-20.2-19.6-23.7-24.3-5.3-7-23.4-25.1-23.4-26.1 0.8-8.8 44.5-76.7 51.4-87 9.8 6.6 116.9 117.4 119 123.6l6.8-6.2c-5.1-9.8-124.3-130.3-125.8-130.3-5.4 0-28.3 42.9-32.9 49.7-3.5 5.1-29.5 48.3-29.5 51.5 0 0.4 26.9 27.5 29.8 30.4 11 11 18.8 21 29 32.3 7.8 8.6 52.1 60.5 58.9 61.1 0.7-3 2.2-4.6 2.2-6.7zm27.7-43.6c5.1-7 11.2-12.1 15.9-18.6 4.9-6.6 11-10.7 16.1-18.3-14.5-21.7-42.7-41.6-57-61.4-6.8-9.4-50-53-59.2-59.2-4.9 3.3-49.5 76.6-49.5 81.8 0 4.7 30.8 33.5 37.3 40.6l70.3 74.7c4.6-5.1 20.7-32.2 26.1-39.6zm-23.9-165h-46.3c0.8 3 19.4 21.5 20.5 21.5 3.4 0 23.4-18 25.8-21.5zm10.7-10.8l-69.1 0.3 8.6 8.6 54.4-1zm74.3 817.3h24.7c31 0 74.1-16.5 86.1-34.5l-20.4-2.4-24.8 0.3c-12 0-31.7 7.1-40 11.6-6 3.3-24.9 18.6-25.6 25zm434.4-47.1c13.4 14.8 42.3 57.8 55.2 66.5l21.3-43.2 27-2.5 3.2-1.9 27.1-3.6 0.6-1.1-114-131.5c-12.9 8.9-23.2 18-36.4 26.4-5.2 3.3-36.2 20.8-37.5 22.8 5.7 8.5 19.8 25.3 27.2 34.1 8.8 10.7 17.4 24.2 26.3 34zm126.2-67.1c3.6-4.9 15-23.8 15-31.2l-23.6 3.5c-7.6 4.8-36.9 11.6-42 19.1l24.7 29.1c11.3-0.9 20.4-13.1 25.9-20.5zm-136.7 114.2h26.9c-0.6-7.1-21.8-23.4-28.6-26.3-10.8-4.6-28.8-10.3-43.5-10.3h-20.4l-18.3 2.1c5.3 8 24.7 20.3 35.1 24.2 11.1 4 34.7 10.3 48.8 10.3zm114.1-602c12.1-8.1 40.3-44.2 53.5-57.3 6.4-6.4 21.3-22.5 26.5-29.5 3.2-4.2 27.6-26.8 27.6-28.4 0-4.2-46-80.3-50.3-83.6l-116 120.7c3 4.2 12.8 14.2 16.5 18.1 5.2 5.4 10.2 13.1 15 19.4 4.4 5.9 25.3 39.4 27.2 40.6zm-19.4-140c0-1.7-11-17.8-12.7-20.6-4.3-7.2-7.8-16.1-12-22.4 0.6-1 1.7-3.3 3.2-3.3 6.5 0 22.6 35.9 28 39.9 2.6-1.8 13.9-11.9 13.9-15.1 0-3.8-27.9-33.1-27.9-34.5 0-2.5 1.8-4.3 4.3-4.3 6.1 0 26.9 26.6 32.5 30.4l10.8-11.3-40.1-34.1c-6.9 0-27.5-1.4-30.2-0.1-2.8 1.5-6.3 4.4-9.8 6.3-3.5 1.9-8.3 2.9-11.6 4.5l38.7 78.6c2.1-1.4 12.9-11.8 12.9-14zm-556.3-75.9l-29 0.8-41.2 35.6 11.1 10.5c6.9-4.7 26.6-31.3 33.3-31.3 2.1 0 4.3 2 4.3 3.3 0 2.1-29 33.8-29 35.5 0 3.3 12.3 14.3 14.9 16.1l25.1-41.4 6.2 2.7c-2.5 4.9-24.7 44.7-24.7 45.2 0 3.2 10.9 13.2 13.4 13.8l38.2-80.5c-9.9-0.9-16.4-6.7-22.6-10.3zm620.6 12.2l-0.8-0.9-46.6 0.5 25 21.2zm9.9-11.7l-67.3 0.5 6.7 7.3 52.2 1z"/>
	<path id="Path 101" fill-rule="evenodd" class="s1" d="m596.8 1133.7l19.7-3.4 40.6 1c-0.9 3.2-13.4 17.2-16.4 20.2-6.4 6.4-13.2 12.2-21.3 16.4-13.3 6.8-40.7 14-60.3 14h-9.6c0.2-9.6 11.3-17.5 16.5-25.4 7.1-10.7 18.7-19.3 30.8-22.8zm-15.7 12c-6.1 4.5-25.4 25.9-27.3 33 19.5-1.6 46.1-3.6 59.6-11.4 10.5-6.1 34.2-22.5 37.2-33.8-23.9-1.6-48.7-3.1-69.5 12.2z"/>
	<path id="Path 102" class="s7" d="m134.5 118.9c0-2.5 0.7-3.2 3.2-3.2h33.4c2.4 0 3.2 0.7 3.2 3.2v1.1c0 3.5-1 0.8-2.2 5.4h-25.8c-2.5 0-3.2 0.7-3.2 3.2v88.3c0 5.8 38.6 3.2 46.6 2.9l3.9 5.7c-1.3 0.8-1.1 1.1-3.2 1.1l-26.9-0.2-8.6-0.1v1.4c2.4 3.2 32.5 19.7 38.3 21.9 6.9 2.8 12 7.3 19.8 10.4 4.8 1.9 12.3 10.8 15.1 15.1-2.4-0.2-42.9-22-48.2-25-6.5-3.6-45.4-23.2-45.4-27.8z"/>
	<path id="Path 103" class="s7" d="m291.4 213.8h494.8v5.4h-494z"/>
	<path id="Path 104" class="s7" d="m292.1 100.7l496.2 0.1-0.1 6.5-496.3 0.5z"/>
	<path id="Path 105" class="s7" d="m941.1 128.8c0-2.5-0.7-3.3-3.2-3.3h-25.8c-1.3-4.5-2.2-1.9-2.2-5.4v-1c0-2.5 0.8-3.3 3.2-3.3h33.4c2.5 0 3.2 0.8 3.2 3.3v103.3c0 4.6-39 24.2-45.4 27.8-5.3 3.1-45.8 24.8-48.2 25 2.8-4.2 10.3-13.2 15.1-15.1 7.8-3 12.8-7.6 19.8-10.3 5.8-2.3 35.9-18.8 38.3-22v-1.3h-8.6l-26.9 0.2c-2.1 0-1.9-0.3-3.3-1l4-5.7c8 0.3 46.6 2.9 46.6-2.9z"/>
	<path id="Path 106" class="s7" d="m880.9 1189.5c1.9-1.3 1.9-2.2 4.3-2.2h7.5c-0.6-6.8-50.3-56.8-57.5-69.5-4.6-8-23.5-24.5-29.8-33.7-8.5-12.3-22.3-22-30-33.6l5-4.8 127.3 146.5-33.4 3.6-3.2 1.7-34.4 5.4h-1.2l-25.7 51.2c-12-8.1-49.6-58.7-61-73.5-6.3-8.2-59-74.6-59.5-76.2l5.4-2.2c5.8 3.9 48.2 60.2 55.8 70.2 6.9 9.2 52.2 67.1 58.3 68.8 0.1-0.4 20-41.3 20.1-41.3 3.1-3.7 42.7-10.4 52-10.4z"/>
	<path id="Path 107" class="s7" d="m253.3 1117c-4.6 4.6-58.8 69-58.9 69.2l61.2 10.6 0.4-1 22.3 45.4c8.6-5.8 48.9-57.6 57.7-69.4 7.2-9.7 51.1-67.1 56.4-70.6l5.4 2.1c-0.5 5.6-115.4 149.1-121.6 150.8-1.1-4.7-10.6-20.5-13.1-26.8-2-5.2-10.1-23.5-14.8-25-8.3-2.6-24.7-1.5-34.9-5-5.4-1.8-28.3-4.6-35.1-4.6 0.2-0.8 57.8-67.5 63.7-74 7.1-7.8 62.2-73.5 65.4-73.5 3 0 4.1 2.4 5.4 4.3-7.7 11.5-21.3 21.7-30.4 33.2-8.5 10.7-19.6 24.8-29.1 34.3z"/>
	<path id="Path 108" fill-rule="evenodd" class="s7" d="m486 331.2c-0.4-21.5-4.9-30.2-5.4-43.1-2.2-8.2-3.4-11.3-6.2-16.3-2.5-4.5-6.9-11.2-9.9-15.6l18.3-13.3c4.7 3.2 16.5 25.7 18.2 32.3h20.5c2.5 0 4.3-1.8 4.3-4.3v-6.5c0-5.8-2.2-5.9-2.2-11.8v-4.3c4.4-1 8.1-1.7 8.7 4.3l1.1 0.7c-1.5 3.1-2.8 7.3-2.2 11.1l1.1 10.8h4.3c2.4 0 3.2-0.7 3.2-3.2l-0.1-17-4.9-4.8 1.8-3c2.4-0.6 2.4-1.1 5.3-1.1h4.3c3.3 0 4.7 2.7 5 4.9l-5.3 4.4c0.3 4.7-2 19.8 2.5 19.8 3.7 0 4.2-0.8 7.5-1.1 0.6-2.4 0.2-2.4 0.2-5.4l0.2-10.7c0-2.7-2-4.1-3.2-6.2l3.9-5.7c4.1 0.1 7.5 1.5 7.5 5.4v1.1c0 5.9-2.8 10.5-2.8 17.2 0 1.8 1 4.1 1.8 5.1l19.2 0.2c4.3-4.1 15.8-31.1 21.6-31.1l18.3 11.8c-4.9 7.4-8.3 14.4-12.4 23.1-4.7 10-4.3 18.9-7 29.7-0.8 3.5-1.8 25-2.1 32.3-0.5 12.1-1.5 20.6-3.6 33.7-0.5 1-3.1 18.1-16.4 27-7.3 5-20.3 13.6-31.6 13.6h-4.3c-28.5 0-45.1-17.3-53.9-43.1-2.2-14.3-4-24.7-5.3-40.9zm-5.4-77.5c-2.9 0-6.4 3.5-7.7 5.2 6.5 9.7 5.7 7.1 11.1 20.4 3 7.2 5.1 18.1 5.1 28.3 0.7 9 3.6 21.7 3.6 32.4 0.2 13.9 3.2 31.9 9.5 44.3 3 6 4.3 7.8 8.6 12.1 4.4 4.4 7.3 5.6 12.8 9.1 1.7 1.1 15 3.7 16.8 3.7h7.3c10.9 0 24.9-8 30.9-14.1 18.9-20.9 16-63.7 19.3-90.8-0.1-22.7 16-40.9 16.2-47.7-3.2-0.8-3.5-3.8-7.1-4.2-4.6 0-15 27-18.5 32.1-31 0.5-59.7 0.2-90.5 0.2-0.2-6.3-13.1-31-17.4-31z"/>
	<path id="Path 109" fill-rule="evenodd" class="s4" d="m588.2 324.7c0 17.8-2 41-7.5 52.8-5.4 11.5-20.9 24.8-36.6 24.8-23.2 0-37.6-16.9-41.6-37-1.2-6.4-5.8-44.8-4.3-62.4 0.5-5.4-0.3-9.9 1.9-9.9l86.5-0.1c5 0 1.6 25.9 1.6 31.8zm-56.9-4c0-3.6-6-6.4-9.7-6.4h-2.2c-5.2 0-9.7 3-9.7 8.6v1.1c0 2.4 0.9 2.3 2.2 4.3 5.5 0 19.4 3.2 19.4-3.3zm-5.5 53.6c0 6.7 6 10.8 12.9 10.8h8.6c5.2 0 9.7-3.1 9.7-8.6v-1.1c0-2.4-0.9-2.4-2.2-3.6l-24.7-0.7c-2.1 0-4.3 1.9-4.3 3.2zm42-44.2c3.9 0 8.6-2.9 8.6-6.4v-1.1c0-3.3-1.1-4.3-2.2-6.2l-16.1-1.3c-1.9 1.2-5.4 3.5-5.4 6.4 0 4 3 8.6 6.4 8.6z"/>
	<path id="Path 110" class="s7" d="m290.8 536.6c-2.1-6.1-109.1-116.9-119-123.6-6.9 10.4-50.6 78.3-51.3 87 0 1 18 19.1 23.3 26.1 3.6 4.7 13.2 13.6 23.7 24.3 26.3 27 61.8 63.4 61.8 68.1 0 2.1-1.5 3.7-2.2 6.6-6.8-0.5-51.1-52.4-58.8-61-10.3-11.4-18.1-21.3-29-32.3-2.9-2.9-29.9-30.1-29.9-30.4 0-3.3 26.1-46.4 29.5-51.6 4.7-6.8 27.6-49.7 32.9-49.7 1.5 0 120.7 120.6 125.9 130.3z"/>
	<path id="Path 111" class="s7" d="m174.8 399.3l69.1-0.3-6.1 7.9-54.4 1z"/>
	<path id="Path 112" class="s7" d="m911 399l-8.4 8.9-52.2-1-6.7-7.3z"/>
	<path id="Path 113" class="s7" d="m976.6 501.4c-21.1 14.1-105.9 121.8-117.3 122.7-0.3-4.4-1-2.4-1-6.5 0-1 48.2-52.5 53.6-59.4 11-14.1 49-47.6 55-59-3-13.1-42.5-73.6-51.6-87.2-8.1 4.2-117.3 117.5-118.4 121.7l-5.3-4.3c7.8-11.7 120.6-128.2 123.7-128.2 6.5 0 55.5 88 61.3 100.2z"/>
</svg>