<svg version="1.2" xmlns="http://www.w3.org/2000/svg" viewBox="0 0 2148 2569" width="2148" height="2569">
	<title>riffData-cdr</title>
	<style>
		.s0 { fill: #ffffff;stroke: #ff2e17;stroke-width: .1 } 
		.s1 { fill: #2c2e35;stroke: #2c2e35;stroke-width: 2.1 } 
		.s2 { fill: #76c8e9;stroke: #ffeb3d;stroke-width: 2.4 } 
		.s3 { fill: #f9eb7b;stroke: #000000;stroke-width: .1 } 
		.s4 { fill: #2c2e35;stroke: #2c2e35;stroke-width: 6.8 } 
		.s5 { fill: #ffffff;stroke: #2c2e35;stroke-width: 2.4 } 
		.s6 { fill: #00ab4f;stroke: #2c2e35;stroke-width: 2.4 } 
		.s7 { fill: #ff2e17;stroke: #2c2e35;stroke-width: 2.4 } 
		.s8 { fill: #f5af31;stroke: #2c2e35;stroke-width: 0 } 
		.s9 { fill: none;stroke: #f9eb7b;stroke-width: 2.9 } 
		.s10 { fill: #2c2e35;stroke: #ffeb3d;stroke-width: .1 } 
		.s11 { fill: #fefdfd;stroke: #000000;stroke-width: .3 } 
		.s12 { fill: #231b1c;stroke: #000000;stroke-width: .1 } 
		.s13 { fill: #f5af31;stroke: #000000;stroke-width: .1 } 
	</style>
	<g id="Group 2">
		<path id="Object 3" fill-rule="evenodd" class="s0" d="m274 283.1l-16.9-30.8 225.5-250.9c189.9 0 401.8 0 591.6 0q284.7 0 569.5 0h22l225.6 250.9-16.9 30.8c-32.8 59.8-52.7 133.9-65.7 200.8l-0.5 2.2q-2.9 15.1-5.4 30.4-2.5 15.2-4.7 30.5l-1.7 11.3-2.5 19.6c-6.8 56.2-10.7 112.9-12 169.5-2.7 109.5 3.5 224.2 23.1 332.2 6.3 34.7 16.7 82.2 31.9 125.4 7.9-11.3 16.9-21.7 27.5-31.7 42.4-40 104.7-68.8 159.5-34.1 38.4 24.4 54.6 70.3 52.3 114.1q-0.4 8.7-1.7 17.3c22.9 31.8 45.4 95.7 60.8 129.8 31.6 70.4-2.8 143.3-70.7 166.4 13.2 36.1 16 65.3 8.2 98.1h7.6l-34.9 71.3c-5.7 11.8-11.7 23.4-18.1 34.9-3.9 9.2-8 18.2-12.5 27.1-88.1 170.9-191.5 285.4-364.7 370-60.7 29.7-123.9 53.8-186 80.3-67.4 28.9-131.7 60.3-193.5 100.1-52.4 33.8-117.4 75.8-149.2 130.7l-29.4 50.7-17.9 38.5-18-38.5-29.4-50.7c-31.8-54.9-96.8-96.9-149.2-130.7-61.8-39.8-126.1-71.2-193.5-100.1-62.1-26.5-125.3-50.6-186-80.3-173.1-84.6-276.6-199.1-364.6-370-4.6-8.9-8.7-17.9-12.6-27.1-6.4-11.5-12.4-23.1-18.1-34.9l-34.9-71.3h7.6c-7.8-32.8-5-62 8.2-98.1-67.8-23.1-102.3-96-70.6-166.4 15.3-34.1 37.8-98 60.8-129.8q-1.4-8.6-1.8-17.3c-2.3-43.8 13.9-89.7 52.3-114.1 54.8-34.7 117.1-5.9 159.5 34.1 6.9 6.5 13.2 13.2 18.8 20.2h12.7c21.9-66.5 50.4-296.1 51.4-371 2.4-171.2-17.7-402.4-92.8-539.4zm1479.5 981.4q0.2 2.2 0.4 4.4h1.5q-1-2.2-1.9-4.4z"/>
		<g id="Group 4">
			<path id="Object 5" fill-rule="evenodd" class="s1" d="m304.4 1322c96.1-109.2 134.8-460.3 99.2-750.5h1341.2c-35.6 290.2 3.1 641.2 99.1 750.4-4.6 22.4-8.3 45.2-10.1 60.6 2.4 15.7-1.3 29.1-8.1 68.2-6.4 177.6-134.5 305.9-224.8 346.9l-526.7 302.6v136h-0.1v-136l-526.6-302.6c-90.4-41-218.5-169.3-224.9-346.9-6.8-39.1-10.5-52.5-8.1-68.2-1.8-15.4-5.4-38.2-10.1-60.5zm99.1-751q-0.9-7.7-2-15.3 1.1 7.6 2 15.3zm1343.3-15.3q-1 7.6-1.9 15.3 0.9-7.7 1.9-15.3z"/>
			<path id="Object 6" class="s2" d="m1808.3 1491l-0.2 1.1-0.1 1.2c-2.8 78.4-30.9 152.1-77.5 214.8-34.2 46.1-84.2 92.7-137 116.6l-0.7 0.4-518.6 298-518.7-298-0.7-0.4c-52.8-23.9-102.8-70.5-137-116.6-46.6-62.7-74.7-136.4-77.5-214.8l-0.1-1.2-0.2-1.1c-10.5-60.7-18.7-82.2-29.9-138.9 98.6-123 127.2-458.9 123.7-606.2-1.3-52.3-4.6-104.7-10.3-156.7h1301.4c-5.7 52-9 104.4-10.3 156.7-3.5 147.3 25.1 483.2 123.7 606.2-11.3 56.6-19.5 78.3-30 138.9z"/>
			<path id="Object 7" fill-rule="evenodd" class="s3" d="m459.7 1356l-62-77.4-22.4-27.5 154.4 27.6-9.7-26-13.2-22.2-78.8-123.3 149.7 41.1-118.8-256.4 122.4 101.4 115.6 102.4-22.4-158.8 146.5 62.5 6.2 3.6h101.3l-12.6-23.8-30.2-66.4-15.8-35.3-21.7-24.5 8.9-94.3 155.6 224.6 54.7-137.5 50.8 107.2 82-126.8 24.8 160.4 178.1-241.6-16.8 226.9 92-26.1-13.8 124.6 162.6-59.6-71.9 147.1 171.8-35.2-112.1 133.6 125-4.1-75 94.3 134.2 23.2-103.7 90.9 126.5 31.6c-2.6 17.8-6.4 35-11.2 51.5l-127.8 49.5 102 16.7c-6.1 12.2-12.6 23.9-19.6 35.2l-100.3 39.8 51.7 24.5c-37.9 41.7-79.9 71.8-115.8 88.2l-2.9 1.6v-0.1q1.6-5 3.2-10l0.7-2.5 0.8-2.6q1.1-3.8 2.1-7.6l0.7-2.6 0.7-2.5 0.3-1.1 2-7.8 1-4 0.6-2.6 1.4-5.8 1.6-7.4 1-5q0.9-4.5 1.7-9.1l0.7-3.9q0.9-4.8 1.6-9.5l0.6-3.8q0.8-5.5 1.5-11l0.3-2.3q0.8-6 1.4-12.1l0.1-1.1q0.7-6.4 1.2-12.8v-1q0.5-6.5 0.9-13.1v-0.5-0.7q0.4-6.6 0.5-13.2v-0.2-0.4q0.2-6.9 0.2-13.8 0-6.9-0.2-13.8v-0.5-0.6q-0.2-6.5-0.5-12.9l-0.1-1.4q-0.3-6.5-0.8-13v-0.5q-0.5-6.7-1.2-13.4l-0.1-0.5q-0.6-6.5-1.4-13l-0.2-1.3q-0.8-6-1.7-12.1l-0.2-1.6q-1-6-2-12l-0.3-1.6q-1.1-5.8-2.2-11.6l-0.4-2q-1.2-5.6-2.5-11.1l-0.6-2.8q-1.3-5.5-2.7-10.9l-0.6-2.4q-1.3-5.2-2.8-10.3l-1-3.4q-1.3-4.7-2.7-9.2l-1.2-3.8q-1.3-4.3-2.8-8.6l-1.6-4.8q-1.4-4-2.8-7.9l-1.7-4.8-2.9-7.7-2.1-5.2-2.9-7-2.4-5.8-2.5-5.6-3.1-6.8-2.7-5.8q-1.6-3.5-3.3-6.9l-0.2-0.4-1.9-3.8q-1.9-3.9-3.9-7.7l-2-3.8q-2-3.8-4.1-7.5l-2.1-3.8-0.1-0.1-0.1-0.3-0.1-0.1v-0.1l-0.1-0.1-0.1-0.2-0.1-0.2-0.2-0.3-0.1-0.1v-0.1l-3.2-5.5v-0.1l-0.2-0.3-0.7-1.2-0.7-1.2-0.7-1.2-0.7-1.2-0.1-0.1q-2.1-3.5-4.2-7l-0.1-0.1-0.1-0.1-0.2-0.3v-0.1l-0.1-0.2-0.1-0.1-0.1-0.1-0.1-0.2-0.1-0.1-1.4-2.4-0.1-0.1-0.1-0.1-0.1-0.1-0.1-0.2-0.1-0.2-0.1-0.2-0.1-0.1q-1.9-3.1-3.9-6.1l-0.2-0.3-0.1-0.1-0.2-0.4-0.1-0.1-0.1-0.2-0.8-1.2-1.5-2.3-4-5.8-1.5-2.4-0.8-1.1-0.8-1.2-0.8-1.1-4.1-5.7-1.6-2.3-0.9-1.1-0.8-1.1-0.4-0.6q-1.8-2.5-3.8-5v-0.1l-0.1-0.1-0.1-0.1-0.1-0.1-0.1-0.1v-0.1l-0.2-0.2-0.1-0.1v-0.1l-0.1-0.1-2.6-3.4-0.8-1.1-4.4-5.5-0.8-1.1-0.4-0.4-0.3-0.4-0.2-0.3-0.5-0.6-0.3-0.3-0.2-0.3-0.3-0.3-0.2-0.3-0.1-0.2q-2.7-3.3-5.5-6.6l-0.1-0.1-0.2-0.3-0.3-0.3-0.3-0.3-0.2-0.3-0.3-0.3-0.2-0.3-0.3-0.3-0.3-0.3-0.5-0.7-0.2-0.3-0.1-0.1-0.1-0.1-0.1-0.1-0.1-0.1-4.8-5.6-0.1-0.1-0.3-0.3-0.2-0.3-0.3-0.3-1.2-1.3-0.2-0.3-0.3-0.3-0.2-0.2-0.3-0.3-0.5-0.6-0.3-0.3-0.2-0.3-4.9-5.3-0.2-0.3-0.3-0.3-0.3-0.3-0.2-0.2-0.3-0.3-0.2-0.3-0.3-0.3-0.5-0.5-0.3-0.3-0.5-0.6-0.3-0.2-0.5-0.6-4.7-5-0.3-0.2-0.2-0.3-0.3-0.3-0.3-0.3-2.2-2.2-0.2-0.3-0.3-0.2-0.2-0.3-0.3-0.2-5.5-5.6-0.3-0.2-0.2-0.3-0.3-0.2-0.3-0.3-0.2-0.3-0.3-0.2-0.3-0.3-0.2-0.2-0.3-0.3-0.3-0.3-0.2-0.2-0.3-0.3-0.2-0.2-0.3-0.3-0.1-0.1-0.1-0.1h-0.1l-0.1-0.1v-0.1l-0.2-0.2h-0.1l-4.2-4-0.1-0.2-0.2-0.2-0.2-0.1-0.3-0.3-0.2-0.2-0.3-0.3-0.3-0.2-0.2-0.3-2-1.8-5.7-5.2-0.1-0.1-0.1-0.1-0.1-0.1-0.2-0.2-0.1-0.1h-0.1l-0.1-0.1-0.1-0.1-0.3-0.3-4.5-4-0.4-0.4-0.1-0.1-0.5-0.3-4.8-4.2-0.1-0.1-3.4-2.8-5.2-4.4-0.1-0.1h-0.1l-0.1-0.1-0.1-0.1-0.1-0.1h-0.1l-0.1-0.1-0.1-0.1-4.9-4-0.1-0.1-0.1-0.1-0.2-0.1-0.2-0.1-0.1-0.1-0.1-0.1-0.1-0.1-0.1-0.1h-0.1l-0.1-0.1-0.1-0.1-0.1-0.1-4.7-3.7-4.1-3.1-4.6-3.4-0.1-0.1-0.1-0.1-5.4-3.9-0.2-0.2h-0.1l-0.3-0.3h-0.1l-0.3-0.3-0.3-0.1-0.1-0.1-5-3.5-0.1-0.1-0.1-0.1-0.1-0.1-0.1-0.1h-0.1l-4.7-3.3-4.8-3.2-5.2-3.5-0.4-0.2-0.1-0.1-0.2-0.1-0.1-0.1-0.1-0.1h-0.1l-0.1-0.1h-0.1l-0.1-0.1-4.6-3h-0.1l-0.2-0.2-0.2-0.1-0.2-0.1h-0.1l-0.2-0.2-0.1-0.1-0.2-0.1h-0.1l-0.1-0.1-0.1-0.1-0.3-0.1-4.5-2.8-4.8-3-6.4-3.8-5.3-3.1-0.3-0.1-0.2-0.1-6.7-3.8-4.2-2.2-0.1-0.1h-0.1l-6-3.2-6.4-3.3h-0.1l-0.1-0.1-0.2-0.1-0.1-0.1h-0.1l-0.1-0.1h-0.1l-0.3-0.1-5.5-2.8-0.2-0.1h-0.1l-0.1-0.1h-0.1l-0.1-0.1-3.9-1.8-0.1-0.1h-0.1l-0.1-0.1-0.1-0.1h-0.1l-6-2.8h-0.1l-0.1-0.1h-0.1l-0.2-0.1-0.1-0.1h-0.2l-0.1-0.1h-0.1l-3.2-1.5-0.1-0.1h-0.2l-0.1-0.1-0.2-0.1h-0.1l-0.2-0.1-0.3-0.2h-0.1l-7.6-3.3-0.1-0.1h-0.2l-0.1-0.1-0.2-0.1h-0.1l-0.2-0.1-4.3-1.8-7.1-2.9-3.8-1.5-0.1-0.1-0.2-0.1h-0.1l-0.2-0.1h-0.1l-0.2-0.1h-0.1q-4.3-1.7-8.5-3.3l-0.4-0.1-4.3-1.6-7.5-2.6-3.5-1.2-0.1-0.1h-0.2l-0.1-0.1q-4.9-1.6-9.8-3.1l-0.1-0.1h-0.2l-0.2-0.1h-0.1l-3.4-1.1-0.3-0.1h-0.1-0.2l-0.4-0.2-7.6-2.2-0.2-0.1-0.3-0.1-2.5-0.7-0.2-0.1h-0.2l-0.2-0.1h-0.1l-0.2-0.1h-0.2l-0.3-0.1q-4.7-1.3-9.4-2.5l-0.2-0.1h-0.2l-0.2-0.1h-0.1l-3-0.8h-0.2-0.1l-0.2-0.1h-0.1l-0.1-0.1q-3.6-0.9-7.1-1.7l-0.3-0.1h-0.3l-0.3-0.1h-0.1l-0.3-0.1h-0.2l-2.9-0.7-0.2-0.1h-0.2-0.2l-0.1-0.1h-0.2l-0.2-0.1h-0.1q-4.9-1.1-9.7-2.1h-0.2l-0.2-0.1h-0.1l-2.7-0.5-0.1-0.1h-0.4l-0.4-0.1h-0.1q-3.7-0.8-7.3-1.4l-0.2-0.1h-0.1-0.2-0.1l-0.3-0.1h-0.1-0.2l-0.1-0.1-3-0.5-0.2-0.1h-0.2-0.2l-0.3-0.1q-5.2-0.9-10.4-1.7h-0.1l-0.2-0.1h-0.4-0.1l-2.5-0.4h-0.2-0.1l-0.2-0.1h-0.3-0.2l-0.1-0.1h-0.1-0.2-0.1l-7.4-1-0.1-0.1h-0.2-0.1-0.1-0.2l-0.3-0.1h-0.1l-2.9-0.4h-0.1-0.2l-0.4-0.1h-0.2-0.1q-5.5-0.7-10.9-1.2h-0.2l-0.2-0.1h-0.4l-0.9-0.1h-0.2-0.1-0.2q-5.2-0.6-10.3-1h-0.2-0.2-0.1-0.2l-2.6-0.2h-0.1l-0.2-0.1h-0.2q-5.7-0.4-11.3-0.7h-0.2-0.2-0.2-0.2l-2.1-0.1h-0.1-0.2l-0.5-0.1h-0.1-0.4l-8.3-0.3h-0.2-0.3-0.2-0.2-0.1l-3.7-0.1h-0.2-0.2-0.2-0.2-0.2q-5.4-0.2-10.8-0.2h-0.9q-6.6 0-13.2 0.2h-0.6-0.4-0.4q-6.1 0.2-12.2 0.5h-0.2-0.2-0.2l-1.2 0.1h-0.2-0.2-0.2q-6.2 0.3-12.2 0.8h-0.4-0.2l-0.1 0.1h-0.5q-6.4 0.5-12.9 1.1l-0.4 0.1h-0.4l-0.5 0.1q-6.2 0.6-12.4 1.4h-0.4l-0.1 0.1h-0.1-0.2-0.2-0.1q-6.4 0.8-12.7 1.8h-0.2l-0.3 0.1h-0.1l-0.4 0.1q-6.5 1-12.9 2.1h-0.2l-0.2 0.1q-6.5 1.1-12.8 2.4l-0.5 0.1h-0.1l-0.2 0.1q-6.3 1.3-12.6 2.7l-0.2 0.1h-0.2l-0.3 0.1h-0.2l-0.2 0.1q-6 1.4-11.8 2.9l-0.8 0.2-0.5 0.1-0.4 0.1q-5.5 1.4-11 3h-0.2l-0.2 0.1h-0.2l-0.2 0.1-0.4 0.1-0.5 0.2h-0.2l-0.2 0.1c-3.6 1-7.2 2.1-10.7 3.2h-0.2l-0.2 0.1h-0.2l-1.5 0.5-0.4 0.1-0.1 0.1h-0.2q-5 1.6-10 3.3h-0.2l-0.1 0.1h-0.2l-1.7 0.6-0.4 0.1-0.1 0.1-0.4 0.1-0.2 0.1q-4.7 1.6-9.3 3.3h-0.2l-0.3 0.2-2 0.7h-0.1l-0.3 0.1-0.2 0.1q-4.5 1.6-8.9 3.4h-0.2l-0.1 0.1-0.2 0.1-3.3 1.3h-0.2l-0.1 0.1-0.1 0.1-0.3 0.1h-0.2q-3.8 1.5-7.6 3.1l-0.1 0.1-0.2 0.1h-0.1l-0.2 0.1h-0.1l-3.5 1.5-0.1 0.1-0.3 0.1q-3.9 1.7-7.7 3.4h-0.1l-0.3 0.1-0.1 0.1-0.2 0.1-3.5 1.5-0.2 0.2h-0.1l-0.2 0.1h-0.1l-0.1 0.1h-0.1q-2.9 1.3-5.7 2.7h-0.1l-0.3 0.2-0.2 0.1h-0.1l-0.2 0.1h-0.1l-0.1 0.1-0.1 0.1h-0.2l-0.1 0.1-4.1 2-7 3.4-0.1 0.1-0.2 0.1h-0.1c-1.9 1-3.8 2-5.7 3l-0.4 0.2h-0.1l-0.6 0.3-0.1 0.1-0.1 0.1-0.3 0.1-0.6 0.3-3.7 2h-0.1l-0.1 0.1-0.1 0.1q-2.4 1.2-4.6 2.4-0.2 0.2-0.5 0.3 0.2-0.1 0.3-0.1l-0.3 0.1-0.1 0.1h-0.1l-0.1 0.1h-0.1l-0.1 0.1-0.1 0.1h-0.1l-0.2 0.1h-0.1l-0.1 0.1-0.1 0.1h-0.1l-0.2 0.2h-0.1l-0.1 0.1-0.4 0.2-3.5 1.9v0.1h-0.2l-0.2 0.2h-0.1l-0.1 0.1-5.6 3.2-0.1 0.1h-0.1l-0.2 0.1-0.1 0.1-0.1 0.1h-0.1l-0.1 0.1h-0.1l-3.5 2.1-0.3 0.2-0.2 0.1-0.1 0.1-0.2 0.1h-0.1l-0.2 0.1-0.1 0.1-0.1 0.1-0.3 0.2-0.2 0.1-5.2 3.1-0.1 0.1-0.1 0.1-0.2 0.1-0.1 0.1h-0.2l-0.1 0.1-0.2 0.1-0.1 0.1-0.1 0.1-0.2 0.1-0.1 0.1-0.2 0.1h-0.1l-0.1 0.1-0.6 0.4-1.5 0.9-0.2 0.1-0.1 0.1-0.1 0.1-0.2 0.1-0.3 0.2h-0.1l-0.1 0.1-0.2 0.1-0.1 0.1-0.1 0.1-6.2 3.9-0.1 0.1-0.2 0.1-0.1 0.1-0.1 0.1-0.2 0.1-0.1 0.1h-0.1l-0.2 0.1-0.8 0.6-3.4 2.2-6.1 4.1-0.6 0.5-3.3 2.3h-0.1l-0.1 0.1-0.1 0.1-0.3 0.2h-0.1l-0.1 0.1-0.3 0.2-4.9 3.5-0.1 0.1-0.5 0.3-0.3 0.3h-0.1l-0.1 0.1-4.2 3-0.1 0.1-0.1 0.2-5 3.6-5 3.9-0.1 0.1h-0.1l-0.1 0.1-0.1 0.1-0.2 0.1-0.1 0.1-5 4h-0.1l-0.1 0.1-0.1 0.1-0.3 0.2-4.8 3.9-4.9 4-5.3 4.6h-0.1l-4.3 3.8h-0.1l-5.4 4.8-4.3 3.9-0.1 0.1-0.1 0.1h-0.1l-4.7 4.5-0.1 0.1h-0.1l-0.1 0.1-0.1 0.1-0.1 0.1-0.1 0.1-0.1 0.1-0.1 0.1-0.1 0.1v0.1h-0.1l-0.1 0.1-3.2 3-0.1 0.1-0.1 0.1-0.2 0.2-0.1 0.1-0.1 0.1-0.1 0.1-0.1 0.1q-2.4 2.3-4.8 4.7l-0.4 0.4-0.1 0.1-0.1 0.1-0.1 0.1-3.3 3.3-0.1 0.1-0.4 0.4-0.1 0.1-0.1 0.1q-2.5 2.5-4.9 5l-0.2 0.2-0.1 0.1-0.1 0.1-0.1 0.1-0.1 0.1-0.1 0.1-2.2 2.4h-0.1l-0.1 0.1-0.1 0.1-0.1 0.2-0.1 0.1-0.3 0.3-0.2 0.3-0.3 0.3-3.1 3.3-0.3 0.3-0.8 0.9-0.1 0.1-0.1 0.1-0.2 0.2-0.1 0.1-0.4 0.4-0.1 0.1-0.1 0.1-0.1 0.1-0.1 0.1v0.1l-2 2.2-0.2 0.1v0.1h-0.1l-0.1 0.1-0.1 0.2-0.1 0.1-5.5 6.3-0.1 0.1-0.2 0.1-0.1 0.1-0.1 0.1-0.1 0.2-0.1 0.1-0.1 0.1-2 2.4h-0.1v0.1l-0.1 0.1-0.2 0.2-0.1 0.2-0.1 0.1-0.1 0.1-0.2 0.2q-2.8 3.2-5.5 6.5l-0.1 0.2-0.1 0.1-0.1 0.1-0.1 0.1-1.7 2-0.1 0.1-0.1 0.2-0.1 0.1-0.1 0.1-0.1 0.2-0.1 0.1-5.5 6.8-0.1 0.1-0.1 0.2-0.1 0.1-0.1 0.1-0.1 0.2-0.1 0.1-1.6 2-0.1 0.1-0.1 0.2-0.1 0.1-0.2 0.2-0.1 0.2-0.1 0.1-5.3 6.9v0.1l-0.1 0.1-0.2 0.3-0.2 0.1-0.1 0.2-1 1.4-0.2 0.2-0.2 0.3-0.1 0.1c-1.7 2.3-3.4 4.6-5 6.9l-0.1 0.1-0.1 0.2-0.2 0.2-0.1 0.1-0.1 0.2-0.1 0.1-0.1 0.1-0.1 0.2-0.1 0.1-0.1 0.1-1.4 2-0.1 0.2-0.1 0.1-0.1 0.2-0.2 0.2-0.1 0.2-0.1 0.2q-2.4 3.4-4.8 6.8v0.1l-0.1 0.2-0.1 0.1-0.1 0.1-0.2 0.3-0.1 0.2-0.1 0.1-0.1 0.2-0.1 0.1-0.3 0.4c-8.5-5.1-3.1-0.3-1 1.6l-0.5 0.6-2.6 4.1-0.9 1.4-0.1 0.1-0.3 0.5-0.1 0.1q-2.4 3.7-4.7 7.4l-0.2 0.3-0.1 0.1-0.2 0.3-0.1 0.2-0.2 0.3-0.1 0.1-0.1 0.2-0.4 0.7q-2.7 4.4-5.4 8.9l-0.1 0.1-0.4 0.7-0.4 0.7-0.4 0.7-0.5 0.7v0.2l-0.1 0.1-0.1 0.1-0.1 0.1-0.1 0.3-0.1 0.1-0.1 0.2q-1.8 3.2-3.6 6.3l-0.1 0.2-0.2 0.2v0.2l-0.1 0.1-0.1 0.1-0.1 0.2v0.1l-0.4 0.7-0.4 0.7-0.8 1.5-0.4 0.7-0.4 0.7-3.9 7.2-0.8 1.4v0.1l-0.4 0.8-0.4 0.7q-2.7 5.2-5.3 10.4l-0.4 0.8-0.4 0.7q-2.2 4.5-4.3 9l-1.8 3.8q-1.9 4.2-3.8 8.4l-0.3 0.8-0.4 0.8-0.3 0.7-0.3 0.8q-2 4.6-4 9.3l-0.6 1.5-0.1 0.2-0.5 1.2-0.4 1.1q-1.7 4.1-3.2 8.2l-0.5 1.2-0.9 2.3q-1.8 4.7-3.5 9.5l-1.2 3.6q-1.7 4.7-3.2 9.5l-0.4 1.2-0.4 1.2-0.4 1.2q-1.5 4.8-3 9.7l-0.4 1.2-0.3 1.2q-1.3 4.3-2.5 8.5l-0.3 1.3-0.3 1.2-0.4 1.2-0.3 1.2v0.1q-1.1 4.2-2.2 8.6l-0.3 1.2-0.3 1.2-0.2 0.8-0.3 1.1-0.2 1q-1 4.1-1.9 8.2l-0.2 1-0.3 1-0.2 1.1-0.2 1q-1.2 5.7-2.3 11.4l-0.2 1.1-0.2 1q-1.1 5.7-2.1 11.5l-0.1 1q-2 12.1-3.5 24.4l-0.1 1-0.1 1.1-0.2 1.6v0.2l-0.1 0.2v0.2l-0.1 0.6v0.2 0.2l-0.1 0.4v0.2q-0.4 3.5-0.7 7v0.2 0.2l-0.1 0.4v0.2 0.4 0.2l-0.1 0.4v0.2 0.4 0.2l-0.1 0.2v0.2 0.2 0.2 0.2 0.1l-0.1 0.4v0.4 0.4l-0.1 0.8v0.4l-0.1 0.7-0.6 7.8v0.8l-0.1 0.4v0.4 0.3l-0.1 0.8v0.8 0.4l-0.1 0.4v0.4 0.8 0.1l-0.1 0.5v0.2c-0.1 2.3-0.2 4.6-0.3 6.9l-0.1 0.4v0.2 0.3 0.3l-0.2 5.1v0.1 0.2 0.1 0.1 0.2 0.1 0.1q-0.1 3.6-0.2 7.2v0.2 0.3 0.2 0.2 0.3 0.2 0.3 0.2 0.3 0.1 0.1 0.2 0.3q-0.1 3.6-0.1 7v0.6q0 2.9 0 5.8c0.6 54.9 9.2 107.9 24.7 157.9l1.4 4.2 0.7 2.3-2.9-1.7c-63.9-29-146.6-101.6-191.9-204.4l24.3-3.5-50-102.4 109.2-10-125.1-79.6c-0.4-5.5-0.3-10.2 0.5-15.2-0.4-3.5-0.9-7.4-1.5-11.6l2-2.5zm349.8-209.9v0.1c1.4-0.9 2.7-1.6 0.1-0.2q0 0.1-0.1 0.1z"/>
			<path id="Object 8" class="s4" d="m1074.2 1084.5c300.7 0 544.5 243.8 544.5 544.6 0 300.7-243.8 544.5-544.5 544.5-300.7 0-544.5-243.8-544.5-544.5 0-300.8 243.8-544.6 544.5-544.6z"/>
			<path id="Object 9" class="s5" d="m388.8 476.7h1370.8c-2 10.4-3.9 21-5.7 31.6h-1359.5c-1.7-10.6-3.6-21.2-5.6-31.6z"/>
			<path id="Object 10" class="s6" d="m394.4 508.3h1359.5q-2.6 15.7-4.9 31.6h-1349.6q-2.3-15.9-5-31.6z"/>
			<path id="Object 11" class="s7" d="m399.4 539.9h1349.6q-2.2 15.7-4.2 31.6h-1341.2q-2-15.9-4.2-31.6z"/>
			<path id="Object 12" class="s1" d="m388.8 476.7c-16.3-84.6-39.9-160.1-71.4-217.5l119.2-132.5h1275.2l119.1 132.5c-31.4 57.4-55 132.9-71.3 217.5h-1370.8zm72-376.9l43.9-48.9q284.8 0 569.5 0 284.7 0 569.5 0l43.9 48.9z"/>
			<path id="Object 13" fill-rule="evenodd" class="s8" d="m408.6 366.5l-0.2-99.1q0-32 11.5-41.9 11.6-9.9 49.2-9.9 21.6 0 34.8 11.1c8 6.9 12.1 15.2 12.1 25.2q0 15.9-14 25.4-10.6 7.1-20.3 7.1-1.7 0.2-3.6 0.4-1.9 0.1-2.6 0.1-4.9 0-10.9-3.6l-14.1 7.4q10.1 8 20.3 12.3 3.3 1.4 8.6 2.7 5.3 1.3 10.8 2.5 10.4 2.1 11.6 2.6 9.7 3.3 12.5 9.4 1.7 3.6 1.7 10.4v35.3q0 5.2-6.4 9.1c-4.3 2.6-8.7 3.9-13.1 3.9l-106.6-1v-9.4zm34.8 0h27.8c3.8 0 6.4-1 7.9-2.9q2.1-2.8 2.1-12.3v-25.3q0-4.9-1.4-7.2-1.4-2.2-8.4-6-11.6-6.2-15.9-9c-4.6-3-8.6-6.6-12.1-10.9zm0-81.3l15.2-11.2q1.9 1.2 4.3 1.2c2.2 0 4.4-0.4 6.5-1.2q3.3-1.1 4.2-2.1c3.2-3.5 4.9-5.5 5.3-5.9 1.5-3.4 2.3-9.3 2.3-17.9q0-11.8-5.1-17.4-5.1-5.6-12.9-5.6-12.3 0-16.7 15.4-3.1 10.1-3.1 30.7 0 3.8 0 7.2 0 3.4 0 6.8zm210.5-66.5v9.5h-18.7v55.3c6 5.2 13.7 9.5 23 12.9 9.3 3.4 18 5.1 26.1 5.1l9-0.5c6.3 0 10.5 1.7 12.4 5q1.4 2.6 1.4 9.7v44.7q0 10.4-3.8 13.4-2.6 2.2-9.7 2.2h-111.9v-9.5h18.7v-138.3h-14.9q-14.2 0-22 10.6-4 5.7-8 19.2-1.4 5.4-1.9 6.6-1.4 2.8-5.2 2.8-4.3 0-5.7-4.7-0.5-1.7-1.4-9.9-1-12.1-4.5-13.4-3.6-1.3-3.6-14.5 0-3.8 1.9-6.4 1.9-2.6 5.5-2.6 2.1 0 3.4 0.3 1.3 0.4 4.9 1.2 3.5 0.8 6 1.1 2.5 0.2 4.6 0.2zm-18.7 147.8h20.2q7.9 0 11-1.4 6-2.6 5.9-11.1v-32.2q0.1-5.4-1.6-7.6-1.7-2.1-9.4-4.6c-5.1-1.6-9.6-3.4-13.4-5.3-4.8-2.3-9-5.1-12.7-8.3zm160.8 0h14.7q-8-24.3-14.9-54.8-3.6-15.9-8-40.2l-3.8-18.7q-3.6 4-6.4 8.6-2.9 4.6-6.4 11.5c-6.1 11-10.6 21-13.2 30.1q-4.1 13.6-4.1 24 0 14.9 1.5 18.7c0.9 2.5 2.3 3.7 4.2 3.7q3.3 0 4.5 2.4 2.1 4.5 2.1 20.8 0 3.6-2.6 4.6-2.6 1.1-5.4 1.1c-1.3 0-2.7-0.1-4.3-0.3-1.5-0.3-2.8-0.4-3.7-0.6q-1.5-0.2-3.5-0.2-2 0-2.9 0-4.3 0-6.7 0.5c-1.5 0.4-2.9 0.6-4 0.6q-3.3 0-5.5-1.7-2.3-1.6-2.8-6.4v-8c0-8.4 1.4-16.7 4.1-24.8q4-12.2 17-37.6l14.9-28.7q8-14.9 9.2-17.5c4.4-9.4 6.6-15.9 6.6-19.7q0-3.8-1.7-4.8-1.8-0.9-5.8-0.9h-15.4v-9.5h74v9.5h-13.7q4 29.1 11.6 62.9 6.6 29.3 15.8 60.1 1 3 2.3 7.9 1.3 4.8 2 7.4h16.3v9.5h-66zm181.2 0v-59.6c-3.8 1.3-8.5 2.4-14 3.3-5.5 1-11.3 1.4-17.3 1.4q-10.9 0-20.5-2.6c-6.4-1.7-12.2-4.7-17.5-9q-10.1-8.2-15.3-28.9-5-20.7-5-43h-13.5v-9.4h66.9v9.4h-15.1q0 4.3 0 12.3 0 8.1 0 11.9 0 7.8 0.7 15.6 0.7 7.8 5.2 14.9c3 4.7 7.5 8.9 13.4 12.6q9 5.6 18.7 5.6 6.9 0 13.3-3.1v-69.8h-14v-9.4h67.4v9.4h-18.6v138.4h18.6v9.5h-68.8v-9.5zm174.1-99.1l-49.7 60.4v38.7h15.6v9.5h-69v-9.5h18.6v-138.4h-18.6v-9.4h69v9.4h-15.6v84.7l49.7-60.8v-23.9h-15.4v-9.4h68.8v9.4h-18.7v138.4h18.7v9.5h-68.8v-9.5h15.4zm270.2-48.7v9.5h-12.8q1.6 17 7.6 50.2 5.9 33.2 12.5 58.8 7.6 29.3 12.3 29.3 1.4 0 3.5-1.4 2.2-1.4 6.7-1.4 3 0 4.8 2.2 1.8 2.3 1.8 5.4 0 1.6-0.4 2.7-0.3 1-2.7 7.1-2.4 6-4.7 16.2-1.9 12-2.1 12.7-1.9 6-6.4 6-3.8 0-5.1-2.8-1.3-2.7-1.8-7.2-3.1-19.8-15.1-26.2-7.1-3.8-23-3.8h-23.1q-23.7 0-31.5 4.7-7.8 4.7-11.6 20.1-1.4 4.7-2.6 9.7-2.4 5.5-6.4 5.5-3.5 0-5.2-4.1-0.7-1.6-1.4-7.4-0.7-5.8-2.4-13-1.6-7.2-4.2-12.9-1-2.6-1.7-4.5-0.7-1.9-0.7-3.8 0-3.5 2.9-5.1 2.8-1.5 5.9-1.5 1.6 0 4.2 0.5 2.6 0.4 4 0.4 4.8 0 6.4-5.6 0.7-2.2 1.9-11.2 2.6-20.3 11.8-42.8 6.7-16 17.3-34 5.7-9.5 8.3-15.4 4.2-9.7 4.2-17.3 0-5.4-3.4-7.8-3.4-2.3-9.8-2.3h-12.3v-9.5zm-58.9 147.8h39.3l-4.5-16.8q-5-17.7-9.2-36.1-4.3-18.5-7.4-36.2l-2.3-12.3q-14.9 18.9-25.3 47-9.5 25.3-9.5 39.8 0 9 4 11.8 4 2.8 14.9 2.8zm170.1-154.2q2.3 0 5.4 3.3 1.9 2.4 4 4.5 5.2 5.5 7.7 7.8 2.5 2.2 13.6 11.9c12.5 10.9 20.7 20.9 24.8 30.1 3.5 7.5 5.2 16.3 5.2 26.3 0 10.5-2 20.1-6.1 28.6q-5.2 10.7-16.9 22.7-11.7 11.9-23.8 23.5-10.9 10.9-15.1 10.9-2.6 0-6.6-2.8-4.1-2.9-16.4-13.3-20.3-17.7-26.5-25.8-13.2-17.8-13.2-40.3 0-23.9 16.1-45.9 9.7-13.3 27.9-28 4-3.1 5.5-4.4 1.6-1.3 4-3.7 2.3-2.5 4.7-3.9 2.3-1.5 5.7-1.5zm-14.9 30.1q-12.1 1.6-19.7 11.6-7.5 9.9-7.5 21.2 0 10.4 8.7 23.5 8.1 11.8 25.1 28.6 10.6 10.4 14.2 15.2 3.5 4.9 4.2 10.5 10-4 18.1-12.5 8.2-8.5 9.8-18.4 0.5-2.4 0.5-3.8 0-1.4-0.5-3.8-1.6-9.9-14.4-25.1-10.2-11.3-15.4-17.2-13-14.2-13.7-15.2-7.6-8.5-9.4-14.6zm164.8 124.1h14.7q-8.1-24.3-14.9-54.8-3.6-15.9-8.1-40.2l-3.8-18.7q-3.5 4-6.4 8.6-2.8 4.6-6.3 11.5c-6.2 11-10.6 21-13.3 30.1q-4 13.6-4 24 0 14.9 1.4 18.7c1 2.5 2.4 3.7 4.3 3.7q3.3 0 4.5 2.4 2.1 4.5 2.1 20.8 0 3.5-2.6 4.6-2.6 1.1-5.4 1.1c-1.3 0-2.7-0.1-4.3-0.3-1.6-0.3-2.8-0.4-3.8-0.6q-1.4-0.2-3.4-0.2-2 0-3 0-4.2 0-6.6 0.5c-1.6 0.4-2.9 0.6-4 0.6q-3.3 0-5.6-1.7-2.2-1.6-2.7-6.4v-8c0-8.4 1.4-16.7 4-24.8q4.1-12.2 17.1-37.6l14.9-28.7q8-14.9 9.2-17.5c4.4-9.4 6.6-15.9 6.6-19.7q0-3.8-1.8-4.8-1.7-0.9-5.8-0.9h-15.3v-9.5h74v9.5h-13.7q4 29.1 11.6 62.9 6.6 29.3 15.8 60.1 0.9 3 2.2 7.9 1.3 4.8 2.1 7.4h16.3v9.5h-66z"/>
			<g id="Group 14">
				<path id="Object 15" class="s9" d="m1314.1 1488.9c151.9 0 275.1 123.1 275.1 275.1 0 152-123.2 275.1-275.1 275.1-152 0-275.2-123.1-275.2-275.1 0-152 123.2-275.1 275.2-275.1z"/>
				<path id="Object 16" class="s9" d="m1286.3 1449.6c149.6-26.3 292.2 73.8 318.5 223.5 26.2 149.7-73.9 292.3-223.6 318.5-149.7 26.2-292.3-73.9-318.5-223.5-26.2-149.7 73.9-292.3 223.6-318.5z"/>
				<path id="Object 17" class="s9" d="m1252.1 1415.7c142.9-51.7 300.6 22.3 352.3 165.2 51.6 142.9-22.3 300.6-165.2 352.3-142.9 51.6-300.7-22.3-352.3-165.2-51.7-143 22.3-300.7 165.2-352.3z"/>
				<path id="Object 18" class="s9" d="m1212.6 1388.2c131.9-75.6 300-29.9 375.5 101.9 75.6 131.9 29.9 300-101.9 375.6-131.9 75.5-300 29.8-375.6-102-75.5-131.9-29.9-300 102-375.5z"/>
				<path id="Object 19" class="s9" d="m1169 1367.9c116.8-97.2 290.3-81.2 387.4 35.6 97.2 116.9 81.2 290.4-35.6 387.5-116.8 97.2-290.3 81.2-387.5-35.6-97.1-116.9-81.2-290.3 35.7-387.5z"/>
				<path id="Object 20" class="s9" d="m1122.5 1355.5c98.3-115.9 271.9-130.1 387.8-31.8 115.8 98.3 130.1 272 31.7 387.8-98.3 115.9-271.9 130.1-387.8 31.8-115.8-98.3-130.1-272-31.7-387.8z"/>
				<path id="Object 21" class="s9" d="m1074.5 1351.2c76.9-131.1 245.5-175 376.5-98.2 131.1 76.9 175.1 245.5 98.2 376.6-76.8 131-245.4 175-376.5 98.2-131.1-76.9-175-245.5-98.2-376.6z"/>
				<path id="Object 22" class="s9" d="m1026.6 1355.3c53.1-142.3 211.5-214.7 353.9-161.7 142.4 53.1 214.8 211.6 161.7 354-53.1 142.4-211.5 214.8-353.9 161.7-142.4-53.1-214.8-211.6-161.7-354z"/>
				<path id="Object 23" class="s9" d="m980.1 1367.7c27.7-149.4 171.3-248.1 320.7-220.4 149.4 27.7 248 171.3 220.3 320.7-27.7 149.4-171.3 248.1-320.7 220.4-149.4-27.7-248.1-171.3-220.3-320.7z"/>
				<path id="Object 24" class="s9" d="m936.4 1387.8c1.5-151.9 125.9-273.9 277.8-272.4 152 1.6 273.9 126 272.4 277.9-1.5 152-125.9 273.9-277.9 272.4-151.9-1.5-273.9-125.9-272.3-277.9z"/>
				<path id="Object 25" class="s9" d="m896.8 1415.2c-24.7-149.9 76.8-291.5 226.7-316.2 149.9-24.7 291.5 76.8 316.3 226.7 24.7 149.9-76.8 291.5-226.8 316.3-149.9 24.7-291.5-76.8-316.2-226.8z"/>
				<path id="Object 26" class="s9" d="m862.6 1449c-50.3-143.4 25.3-300.4 168.7-350.6 143.4-50.2 300.4 25.4 350.6 168.8 50.3 143.4-25.3 300.4-168.7 350.6-143.4 50.2-300.4-25.3-350.6-168.8z"/>
				<path id="Object 27" class="s9" d="m834.7 1488.3c-74.3-132.6-26.9-300.3 105.7-374.5 132.6-74.2 300.2-26.9 374.5 105.7 74.2 132.6 26.9 300.3-105.8 374.5-132.6 74.2-300.2 26.9-374.4-105.7z"/>
				<path id="Object 28" class="s9" d="m814 1531.7c-96-117.8-78.3-291.1 39.5-387.1 117.8-96 291.1-78.3 387.1 39.5 96 117.8 78.3 291.1-39.5 387.1-117.8 96-291.2 78.3-387.1-39.5z"/>
				<path id="Object 29" class="s9" d="m801.1 1578.1c-114.9-99.5-127.4-273.3-27.9-388.1 99.5-114.9 273.2-127.4 388.1-27.9 114.9 99.5 127.4 273.2 27.9 388.1-99.5 114.9-273.3 127.4-388.1 27.9z"/>
				<path id="Object 30" class="s9" d="m796.4 1626c-130.4-78.2-172.6-247.2-94.5-377.5 78.2-130.3 247.2-172.6 377.5-94.4 130.3 78.1 172.6 247.1 94.4 377.4-78.1 130.4-247.1 172.6-377.4 94.5z"/>
				<path id="Object 31" class="s9" d="m800 1674c-141.9-54.5-212.7-213.7-158.2-355.6 54.5-141.8 213.7-212.6 355.6-158.1 141.8 54.5 212.6 213.7 158.1 355.5-54.5 141.9-213.7 212.7-355.5 158.2z"/>
				<path id="Object 32" class="s9" d="m811.8 1720.6c-149.1-29.2-246.3-173.8-217.1-322.9 29.2-149.1 173.8-246.3 322.9-217.1 149.1 29.2 246.4 173.8 217.2 322.9-29.3 149.1-173.8 246.3-323 217.1z"/>
				<path id="Object 33" class="s9" d="m831.6 1764.5c-152-3-272.7-128.7-269.6-280.6 3-151.9 128.7-272.6 280.6-269.6 151.9 3.1 272.6 128.7 269.6 280.6-3.1 151.9-128.7 272.6-280.6 269.6z"/>
				<path id="Object 34" class="s9" d="m858.6 1804.3c-150.2 23.3-290.8-79.7-314-229.8-23.2-150.2 79.7-290.8 229.9-314 150.2-23.2 290.7 79.7 313.9 229.9 23.3 150.1-79.7 290.7-229.8 313.9z"/>
				<path id="Object 35" class="s9" d="m892.1 1838.9c-144 48.8-300.2-28.3-349-172.2-48.8-143.9 28.4-300.2 172.3-349 143.9-48.7 300.1 28.4 348.9 172.3 48.8 143.9-28.3 300.1-172.2 348.9z"/>
				<path id="Object 36" class="s9" d="m931 1867.2c-133.3 72.9-300.5 23.9-373.4-109.5-72.9-133.3-23.9-300.5 109.4-373.4 133.4-72.9 300.6-23.9 373.4 109.5 72.9 133.3 23.9 300.5-109.4 373.4z"/>
				<path id="Object 37" class="s9" d="m974.2 1888.3c-118.7 94.8-291.9 75.4-386.7-43.4-94.8-118.7-75.3-291.8 43.4-386.6 118.8-94.8 291.9-75.4 386.7 43.3 94.8 118.8 75.4 291.9-43.4 386.7z"/>
				<path id="Object 38" class="s9" d="m1020.5 1901.7c-100.7 113.9-274.5 124.6-388.4 24-113.9-100.6-124.6-274.5-24-388.4 100.6-113.9 274.5-124.6 388.4-24 113.8 100.6 124.6 274.5 24 388.4z"/>
				<path id="Object 39" class="s9" d="m1068.3 1906.9c-79.5 129.5-248.9 170.1-378.4 90.6-129.5-79.4-170.1-248.9-90.7-378.4 79.5-129.5 248.9-170.1 378.5-90.6 129.5 79.4 170.1 248.8 90.6 378.4z"/>
				<path id="Object 40" class="s9" d="m1116.3 1903.7c-55.9 141.3-215.8 210.5-357.1 154.6-141.3-55.9-210.5-215.8-154.6-357.1 56-141.3 215.8-210.5 357.1-154.6 141.3 55.9 210.5 215.8 154.6 357.1z"/>
				<path id="Object 41" class="s9" d="m1163.1 1892.3c-30.7 148.9-176.3 244.6-325.1 213.9-148.8-30.7-244.6-176.2-213.9-325 30.7-148.9 176.3-244.6 325.1-213.9 148.8 30.7 244.6 176.2 213.9 325z"/>
				<path id="Object 42" class="s9" d="m1207.2 1873c-4.6 151.9-131.4 271.4-283.3 266.8-151.9-4.5-271.3-131.4-266.8-283.3 4.6-151.9 131.4-271.3 283.3-266.7 151.9 4.5 271.3 131.4 266.8 283.2z"/>
				<path id="Object 43" class="s9" d="m1247.3 1846.4c21.7 150.4-82.6 290-233 311.7-150.4 21.7-290-82.6-311.7-233-21.7-150.4 82.6-289.9 233-311.7 150.4-21.7 290 82.6 311.7 233z"/>
				<path id="Object 44" class="s9" d="m1282.2 1813.3c47.3 144.4-31.3 299.9-175.7 347.2-144.4 47.3-299.9-31.3-347.2-175.7-47.4-144.4 31.3-299.9 175.7-347.2 144.4-47.4 299.8 31.3 347.2 175.7z"/>
				<path id="Object 45" class="s9" d="m1310.9 1774.7c71.5 134 20.8 300.7-113.2 372.3-134.1 71.5-300.8 20.8-372.3-113.2-71.6-134.1-20.9-300.8 113.2-372.3 134-71.6 300.7-20.9 372.3 113.2z"/>
				<path id="Object 46" class="s9" d="m1332.4 1731.6c93.6 119.7 72.5 292.7-47.2 386.3-119.7 93.6-292.7 72.4-386.3-47.3-93.6-119.7-72.4-292.6 47.3-386.2 119.7-93.6 292.6-72.5 386.2 47.2z"/>
				<path id="Object 47" class="s9" d="m1346.3 1685.5c112.8 101.8 121.8 275.8 20.1 388.6-101.8 112.9-275.8 121.9-388.6 20.2-112.9-101.8-121.9-275.8-20.1-388.6 101.7-112.9 275.7-121.9 388.6-20.2z"/>
				<path id="Object 48" class="s9" d="m1351.9 1637.8c128.7 80.7 167.6 250.5 86.9 379.3-80.8 128.7-250.6 167.6-379.3 86.8-128.8-80.7-167.6-250.6-86.9-379.3 80.8-128.7 250.6-167.6 379.3-86.8z"/>
				<path id="Object 49" class="s9" d="m1349.2 1589.7c140.8 57.3 208.4 217.9 151 358.6-57.3 140.8-217.8 208.4-358.6 151-140.7-57.3-208.3-217.9-151-358.6 57.3-140.7 217.9-208.3 358.6-151z"/>
				<path id="Object 50" class="s9" d="m1338.3 1542.8c148.5 32.2 242.8 178.7 210.6 327.2-32.1 148.5-178.6 242.8-327.1 210.6-148.6-32.1-242.9-178.6-210.7-327.1 32.2-148.6 178.7-242.9 327.2-210.7z"/>
			</g>
			<g id="Group 52">
				<path id="Object 53" class="s10" d="m966 1498.8c-6.4 7.8-17.2 6.1-26.1 3.7-6.5-1.8-14.1-4.2-18.1-9.6-7.9-1.8-13.4-0.9-25.7-1.3l-13.5-0.4-6.2-25.5-28.3-1.5-4.8-8.4c-2.2-3.7-3.9-8.4-5.6-12.6-5-5-21.4-14.6-27.8-20.9-14-13.5-19.4-29.3-17.7-46.5-17.6-6-22.2-17.6-25.2-42.6-2.3-18.6-8.6-37.8-8-56.5l0.8-25.9 23.9 10.2c35 15 93.9 55.8 119.8 9.8-1.1-15.5-48.5-71.7-57.5-83-9.8-12.3-19.6-24.9-28.5-38-15.3-22.5-29-46.2-43.5-69.2-9.6-15.3-22.7-46-42-49.7l-15.1-2.9 2-37.3c-12.9 1.8-26.7 2.6-34.6-2.7-6.1-4.1-8.6-9.7-13-15.1-1.7-2.1-3.3-4.2-4.7-6.5-3.2-1-6.2-2.1-8.8-3-15.5-5.6-18.3-3.2-30.4-17.7-15-18.1-5.8-25.2-25.8-35.7-22.8-12.1-31.3-14.2-42.8-39.5-2.9-6.4-5.1-12.2-7.4-18.4-7-2.4-13.2-5.4-20.3-9.2-23.3-12.7-31.7-31.1-37.1-56-2-9.4-3.6-16.1-10.3-22.9-19.9-20.2-23.8-46.2-27.8-73.5l-3.6-25 24.7 5.2c16.6 3.4 40.5 14.8 56.1 21.7 28.6 12.8 56.9 26.3 85.1 40 42.7 20.7 86.3 41.9 127.9 64.5 31.4 17.1 98.9 48.4 121 76.3 10.8 13.8 17.8 31.4 24.6 47.4 13.1 30.5 26.7 60 41.9 89.5 15.9 30.8 34.3 66.6 54.5 94.5 22 30.3 41.4 53 75.2 70.9 36.6 19.2 79 18.5 118.8 26.5l7 1.4 4.1 5.9c27 39.1-6.3 41 43.3 59.6 27.8 10.5 60.5 11.7 89.9 12.7 42.9 1.4 96.8 2.4 136.4 20.6 29.8 13.7 62 38.6 90.5 56.2l0.7 0.4 95.9 72.3c45.4 31.6 93.7 56 141.8 82.9l104.7 58.5-138.4-30.5c-0.8 3-1.8 5.9-3.4 9.3l-4.5 10.2-11.1 0.3c-21.4 0.7-81.4 6.3-98.4 1.5-9-2.6-16.6-6.8-24.2-12.2-1.9-1.3-7.1-5.4-9.1-6.1-8-2.6-28.8-0.3-39.1-1.3l-4.2-0.4-3.5-2.3c-5-3.2-8.1-6.8-12.1-10.7-1.7-1-4.1-2.3-6.1-3.2-2.2 1.6-4.6 2.7-7.7 3.3-12.1 2.2-19.4-7.2-24.9-17l-32.4 5.4-5.5-12.5c-1.9-4.1-3.2-8.5-4.9-12.7-43.4-3.1-76.8-13-96.2-53.2-135.2-1.1-214.6-0.4-328.3-86.1l-33 16.4 31.3 109.7-50 25-7.8-3.8c-3.2-1.5-6.6-3-9.6-4.9z"/>
				<path id="Object 54" class="s11" d="m684.9 961.6c-14.3-17.3 11.6-3.2-21.1-14.9-14.7-5.3-14-1.8-22.8-12.3-14.6-17.6-3.4-25.4-31.1-40.1-20.4-10.8-25.8-10.7-35-31.1-18.3-40.3 2.8-15.2-35.4-35.9-17.9-9.7-23.7-23.5-28.2-44.2-10.7-49.5-25.8-12.4-37.9-95.1 31.8 6.6 219.4 100 264.2 124.4 155.7 84.6 96.7 43.8 180.3 205.9 14.6 28.4 38.2 72.3 55.9 96.7 23 31.7 43.9 56.5 81.3 76.1 40.2 21.2 75.4 18.6 123.5 28.2 23.3 33.7-7.9 43.8 51.7 66.2 29.3 11 62.4 12.6 95.5 13.8 137 4.6 123.3 15.7 218.2 74.1l95.7 72.1c47.5 33.1 90.4 54.3 143.4 83.9l-35-7.7c-10.5 12.8-3.1 7.7-9.6 22.4-17.2 0.6-83.7 4.8-93 2.1-16.1-4.5-23.8-15-32.6-18-12.5-4.1-25.5-0.4-42.9-2.1-4.4-2.9-9.9-9.5-11.1-10.2-39.4-23.3-16.8 19.6-39.6-22l-31.4 5.2c-4.1-9.2-4.4-14.1-10-22.5-51.8-2.5-79.9-11.6-95.4-53.8-138.1-1.3-218.2 4.4-338.1-89.3l-56.1 28 31.4 109.6-29.2 14.6c-15.1-7.3-1.4-0.3-12.2-8.8l-28.4 8.1c-40.7-9.2 30.5 12.1-10.4-4.8-18.2-7.4-19.3-5.5-42.9-6.3l-6.1-25.1-31.8-1.7c-1.2-2-5.5-13-5.7-13.2-10.1-14.8-57-24.2-39.6-71.6-25.2-3.3-26-7-28.9-31.2-2.3-20-8.3-38.3-7.8-53.8 41.4 17.7 111.2 64.1 144-1.2 6.5-26.8-53.4-84.5-88.5-136.3-14.2-20.7-29.1-46.1-43.2-68.6-21.2-33.9-28.5-52.8-53.6-57.6l2.4-43.9c-51.3 7.2-39.6 8-52.9-8.1z"/>
			</g>
			<path id="Object 56" class="s12" d="m1074.2 2100.2l526.7-302.6c90.3-41 218.4-169.3 224.8-346.9 6.8-39.1 10.6-52.5 8.1-68.2 3.7-31.2 14.9-93.5 27-119.4 11.1-24 22.4-39.5 37.6-53.8 112-105.5 178.3 46 82.2 134.1-52.5 48-87.6-47.2-35.6-70.5-1.1 20.8-11.8 55.4 16.2 45 30.8-11.5 36.9-73.3 1.5-79.9-34.7-6.4-62.1 49.1-62.9 89-1.5 62.9 73.3 162.1 99.3 214 43.6 87.3 32.6 112.5-4.5 182.9-9.8 18.7-13.8 32.1-23.8 51.6-201.2 390.4-437.4 345.1-726.9 531.5-61 39.2-128.6 84.2-165.3 147.5-1.6-1.4-3.1-2.6-4.4-3.8zm957.3-804.2c15.1 17 46.6 98.1 58.6 124.7 23.6 52.4-10.7 96.3-57.5 103-23-34.3-79.8-109.4-92.2-147.8 52.8-14.6 75.4-28.6 91.1-79.9z"/>
			<path id="Object 57" class="s12" d="m1074.1 2450.7c-1.3 1.2-2.8 2.4-4.4 3.8-36.7-63.3-104.3-108.3-165.3-147.5-289.5-186.4-525.7-141.1-726.9-531.5-10-19.5-14-32.9-23.8-51.6-37.1-70.4-48.1-95.6-4.5-182.9 26-51.9 100.8-151.1 99.4-214-0.9-39.9-28.3-95.4-62.9-89-35.5 6.6-29.4 68.4 1.4 79.9 28 10.4 17.3-24.2 16.3-45 52 23.3 16.8 118.5-35.7 70.5-96.1-88.1-29.8-239.6 82.2-134.1 15.2 14.3 26.6 29.8 37.7 53.8 12 25.9 23.2 88.2 26.9 119.4-2.4 15.7 1.3 29.1 8.1 68.2 6.4 177.6 134.5 305.9 224.9 346.9l526.6 302.6zm-866.2-1074.7c-12.4 38.4-69.1 113.5-92.2 147.8-46.8-6.8-81.1-50.6-57.5-103 12-26.7 43.6-107.8 58.6-124.7 15.7 51.3 38.3 65.3 91.1 79.9z"/>
			<path id="Object 58" fill-rule="evenodd" class="s13" d="m1739.4 1897.9c11-7.3 15.4-8.6 23.9-16.6 28.3-26.9 54.8-51.4 77-84.9 66.2-99.4 84-188.3 98.7-220.5 4.7-10.5 10.1-9.9 7.7 2.4-9.8 48.1-23.4 83.9-42.4 125.3-9.8 21.3-17.6 36.2-29.2 56.9-17 30.6-41.8 61.8-63.6 89.4 23.7-5.6 58.5 0.2 83.1 2.7-9.1 10.7-22.5 22.1-31.6 32.9-65.6 57-69.5 37.6-110.1 14.5-11.2 6.4-47.5 33.6-55.2 41.2 44.1 1.4 80.2 14.1 118.4 28.4-26.4 19.1-48.4 34.8-81.1 51-47.9 23.7-72.3-4.8-99.3-23q5.1-12.3 10.1-24.6c-15.8 5-56 27.8-68.7 37.3 45.6 8.6 84.8 20.8 110.2 39.1-17.2 16.7-114.5 82.7-165.8 34.8-20.3-18.9-20.2-25-11.1-46.1q-43.7 16.8-87.4 33.6c29.1 3 97.6 34.6 124.3 52.6-29.6 10.1-70.2 34.1-106.4 37.7-42.4 4.2-71.5-22.1-82.1-53.2 5.7-7.9 19.7-17.4 28.2-24.6-37.2 9.2-95.2 37.3-129.9 50.8 29.2-3.5 43.3-2.5 56.8 1.4 10.3 3 24.4 9.3 32.4 13.1 15 7.3 50.3 26.4 59.7 38.1-171.5 75.5-195-2.6-173.5-35.4-11.5 15.1-54.2 50.1-71.9 63 10.2-6.2 120 14.6 118.2 19.5-12.1 18.4-58.5 53.8-81.9 65.5-47.7 23.7-73.1-4.3-98.1-21.7 8.6-46.3 50-67.1 100.4-112.9 9.6-8.8 10-7.9 19.9-15.4 1.4-1.1 8.2-6.5 8.9-7.2 5.8-5.1 15.7-7.9 20-12.8-22.1 4.5-46.5 5.8-49.4 1.8-4.2-5.6-5.2-16.6-4-32.1 0.6-26.8 6.7-41.4 20.7-55.4 23.6-23.4 62.5-38.9 101.6-48.9-4.4 51.2-11.1 88.1-36.5 118.1 31.6-11.9 69.1-28 100.7-39.8-15.8 0.2-31.4-0.7-46.3-4.8-15.4-45.4 7.2-79.2 32-95.3 21.8-14.2 59.9-33.3 88.3-41.2-2.8 68-19.4 109.1-56.5 135.1 108.9-32 243.2-102.7 340.8-169.8zm-505.5 252.3q-0.7 1-1.4 2 0.8-1.1 1.4-2zm658.1-311.3c76.9-80.3 76-77.6 96.5-124.5h12.5c-46.6 95.3-64.7 91-102 131.4-3.9 0.1-8.1-2.7-7-6.9zm-14.2-12.3c91.4-105 64.8-74.6 113.9-174.3 5.1-10.3 16.3-6.7 11 4.6-64.2 137.4-78 128.1-118 176.7-3.8 0.1-8-2.7-6.9-7zm-20.5-1.6c84.2-111 74.2-103.8 116.6-206.6 4.4-10.6 15.9-7.8 11.2 3.8-73.2 179.5-86.8 157.5-123.5 208.7-3.8 0.4-5.2-1.6-4.3-5.9zm-22.8 2.8c88.4-115.2 85.8-144.9 117.6-237.1 3.8-10.8 9.9-10.1 7.8 2.2-8.5 48.4-23.9 82.2-41.8 124.1-21.6 50.7-46.8 72.1-79.2 116.7-3.8 0.4-5.2-1.6-4.4-5.9zm-44.9-94q5.5-16.4 10.9-32.9c37.7-113.6 34.9-226.3 40.5-261.3 1.8-11.4 7.2-12.3 8.1 0.2 3.2 49.1-3.8 109.4-11.3 154.4-3.8 23.2-7.4 39.7-13.1 62.8-5.8 23.4-19.8 57.8-29.5 81.5-3.6 1.3-5.4-0.3-5.6-4.7zm12.7 13.5c4.2-10.7 11.4-24.3 15.6-35.1 43.2-111.5 31.1-211.4 38.4-246 2.4-11.3 7.9-11.9 8.1 0.6 0.8 49.2 2.6 99-7.1 143.5-9 41.8-25 109.2-49.6 142-3.7 1.1-5.4-0.6-5.4-5zm7.3 22.8q7-15.8 14-31.7c54-111.3 54.2-215.8 61.1-249.4 2.2-11.2 8.3-11.5 7.9 1-1.5 53.3-18.7 153.7-36.8 205.4-8 22.8-29.1 57.3-41 79.9-3.8 1-5.4-0.8-5.2-5.2zm8.9 25.8q8.2-15.3 16.4-30.5c56.3-105.4 65.6-195.6 77.1-229.2 3.7-10.8 9.2-10.8 7.9 1.7-5.1 48.8-15.2 85.8-30.2 128.8-7.7 22.2-14 37.8-23.6 59.5-9.7 22.2-29.3 53.6-42.8 75.3-3.8 0.6-5.3-1.3-4.8-5.6zm-744.3 440.3v-99.9c17.6-25 48.1-43.7 72.9-58.4 11.2 65.9 11.9 89.9-7.6 122.1-16.2 26.7-38.7 27.9-65.3 36.2zm503.5-364.4c5.4 82.2-15.5 153.3-101.5 147.4-46.1-73.4 48.9-131.4 101.5-147.4zm31.9 90.6c-38-80.2 28.9-128.8 81.9-157.1 8.2 66.4 7.8 90.4-13.1 121.6-18.4 27.5-39.4 27.1-68.8 35.5zm125.8-165.1c7.7-9.7 41.6-36.8 55.8-41.8 8 66.1 10 110.5-58.1 119.1-11.6-26.8-17-52.8 2.3-77.3z"/>
			<path id="Object 59" fill-rule="evenodd" class="s13" d="m749.7 2067.7c-37-26-53.6-67.1-56.5-135.1 28.5 7.9 66.5 27 88.4 41.2 24.7 16.1 47.3 49.9 31.9 95.3-14.9 4.1-30.5 5-46.3 4.8 31.6 11.8 69.1 27.9 100.7 39.8-25.4-30-32.1-66.9-36.4-118.1 39 10 78 25.5 101.5 48.9 14 14 20.2 28.6 20.7 55.4 1.2 15.5 0.3 26.5-3.9 32.1-3 4-27.4 2.7-49.4-1.8 4.2 4.9 14.1 7.7 19.9 12.8 0.7 0.7 7.6 6.1 8.9 7.2 9.9 7.5 10.3 6.6 19.9 15.4 50.5 45.8 91.8 66.6 100.4 112.9-25 17.4-50.4 45.4-98.1 21.7-23.4-11.7-69.8-47.1-81.9-65.5-1.8-4.9 108-25.7 118.2-19.5-17.7-12.9-60.4-47.9-71.9-63 21.5 32.8-2 110.9-173.5 35.4 9.4-11.7 44.7-30.8 59.7-38.1 8-3.8 22.1-10.1 32.4-13.1 13.6-3.9 27.6-4.9 56.8-1.4-34.7-13.5-92.7-41.6-129.9-50.8 8.5 7.2 22.6 16.7 28.2 24.6-10.6 31.1-39.7 57.4-82.1 53.2-36.2-3.6-76.7-27.6-106.4-37.7 26.7-18 95.3-49.6 124.3-52.6q-43.7-16.8-87.4-33.6c9.1 21.1 9.2 27.2-11.1 46.1-51.3 47.9-148.6-18.1-165.8-34.8 25.4-18.3 64.6-30.5 110.2-39.1-12.7-9.5-52.9-32.3-68.7-37.3q5.1 12.3 10.2 24.6c-27.1 18.2-51.5 46.7-99.4 23-32.7-16.2-54.7-31.9-81.1-51 38.2-14.3 74.3-27 118.4-28.4-7.7-7.6-43.9-34.8-55.2-41.2-40.5 23.1-44.5 42.5-110.1-14.5-9.1-10.8-22.5-22.2-31.6-32.9 24.6-2.5 59.4-8.3 83.1-2.7-21.8-27.6-46.6-58.8-63.6-89.4-11.6-20.7-19.4-35.6-29.2-56.9-19-41.4-32.6-77.2-42.4-125.3-2.4-12.3 3-12.9 7.8-2.4 14.6 32.2 32.4 121.1 98.6 220.5 22.2 33.5 48.7 58 77 84.9 8.5 8 12.9 9.3 23.9 16.6 97.6 67.1 231.9 137.8 340.8 169.8zm166.1 84.5q-0.7-1-1.4-2 0.6 0.9 1.4 2zm-666.5-306.4c-37.3-40.4-55.4-36.1-102-131.4h12.5c20.5 46.9 19.6 44.2 96.5 124.5 1.1 4.2-3.1 7-7 6.9zm14.3-12.2c-40-48.6-53.8-39.3-118-176.7-5.2-11.3 5.9-14.9 11-4.6 49.1 99.7 22.5 69.3 113.9 174.3 1.2 4.3-3.1 7.1-6.9 7zm23.1-2.7c-36.7-51.2-50.3-29.2-123.5-208.7-4.7-11.6 6.8-14.4 11.2-3.8 42.4 102.8 32.4 95.6 116.7 206.6 0.8 4.3-0.6 6.3-4.4 5.9zm22.7 2.8c-32.4-44.6-57.5-66-79.2-116.7-17.9-41.9-33.3-75.7-41.8-124.1-2.1-12.3 4.1-13 7.8-2.2 31.8 92.2 29.2 121.9 117.6 237.1 0.8 4.3-0.6 6.3-4.4 5.9zm43.7-95.2c-9.7-23.7-23.7-58.1-29.5-81.5-5.7-23.1-9.3-39.6-13.1-62.8-7.5-45-14.5-105.3-11.2-154.4 0.8-12.5 6.2-11.6 8-0.2 5.7 35 2.8 147.7 40.5 261.3q5.5 16.5 10.9 32.9c-0.1 4.4-2 6-5.6 4.7zm-12.5 13.8c-24.6-32.8-40.6-100.2-49.6-142-9.7-44.5-7.9-94.3-7.1-143.5 0.3-12.5 5.7-11.9 8.1-0.6 7.3 34.6-4.8 134.5 38.5 246 4.1 10.8 11.3 24.4 15.5 35.1 0 4.4-1.7 6.1-5.4 5zm-7.1 23c-11.9-22.6-32.9-57.1-41-79.9-18.1-51.7-35.3-152.1-36.8-205.4-0.4-12.5 5.7-12.2 8-1 6.8 33.6 7 138.1 61 249.4q7 15.9 14 31.7c0.2 4.4-1.4 6.2-5.2 5.2zm-8.5 26.2c-13.5-21.7-33.1-53.1-42.8-75.3-9.5-21.7-15.9-37.3-23.6-59.5-14.9-43-25-80-30.2-128.8-1.3-12.5 4.2-12.5 7.9-1.7 11.5 33.6 20.8 123.8 77.1 229.2q8.2 15.2 16.4 30.5c0.6 4.3-1 6.2-4.8 5.6zm683.8 398.5c-19.5-32.2-18.8-56.2-7.6-122.1 24.8 14.7 55.3 33.4 73 58.4v99.9c-26.6-8.3-49.1-9.5-65.4-36.2zm-336.7-180.8c-86 5.9-106.8-65.2-101.5-147.4 52.6 16 147.6 74 101.5 147.4zm-202.2-92.3c-20.9-31.2-21.3-55.2-13.1-121.6 53 28.3 119.9 76.9 81.9 157.1-29.4-8.4-50.4-8-68.8-35.5zm-54.7-52.3c-68.1-8.6-66.1-53-58.1-119.1 14.2 5 48.1 32.1 55.8 41.8 19.3 24.5 13.9 50.5 2.3 77.3z"/>
		</g>
	</g>
</svg>