<svg version="1.2" xmlns="http://www.w3.org/2000/svg" viewBox="0 0 488 567" width="488" height="567">
	<title>Dzhebel-pdf</title>
	<style>
		.s0 { fill: #d2ae6d } 
		.s1 { fill: #000000 } 
		.s2 { fill: #0077bd } 
		.s3 { fill: #354b9c } 
		.s4 { fill: #00a859 } 
	</style>
	<path id="Path 1" fill-rule="evenodd" class="s0" d="m120.1 355.9c4.5-9 8.5-16.4 11.3-21.4 0.8-1.7 2.5-2.4 4.2-2.3 1.7-0.1 3.4 0.6 4.3 2.3 10.1 18.6 36.7 68.4 47.6 113.8 11.5 48 5.8 91.1-51.8 91.6q-0.1 0-0.1 0 0 0 0 0c-5.7-0.1-10.8-0.5-15.5-1.4-4.7 0.9-9.8 1.3-15.5 1.4q0 0 0 0 0 0 0 0c-57.7-0.5-63.4-43.6-51.9-91.6 10.9-45.4 37.5-95.2 47.6-113.8 0.9-1.7 2.6-2.4 4.3-2.3 1.7-0.1 3.4 0.6 4.3 2.3 2.7 5 6.7 12.4 11.2 21.4zm-28.4 16.5l8 8v-24.2c-2.5 4.9-5.2 10.4-8 16.2zm8 58.1l-24.6-20.2c-4.4 11.1-8.3 22.7-11.4 34l36 20.5zm0 45.5l-38.4-21.9c-2.7 12.3-4.1 24.1-3.3 34.6l41.7 18.8zm0 42.1l-40-18c4.3 16.8 16.2 28.4 40 30zm9.7-161.9v24.2l8.1-8c-2.8-5.8-5.6-11.3-8.1-16.2zm0 37.7v24.1l20.9-17.1c-2.7-6.7-5.6-13.1-8.4-19.2zm0 36.6v34.3l36-20.5c-3-11.4-7-22.9-11.3-34.1zm0 45.5v31.5l41.7-18.8c0.8-10.5-0.6-22.3-3.3-34.6zm31-119.7v24.1l8.1-7.9c-2.8-5.9-5.6-11.3-8.1-16.2zm-40.7 37.7l-12.5-12.2c-2.8 6.1-5.6 12.5-8.4 19.2l20.9 17.1zm31-16.1v-21.6q-2.5 4.9-5.3 10.5 2.6 5.3 5.3 11.1zm15 35.9l15.6-12.8c-2.8-6.7-5.6-13.1-8.4-19.2l-12.5 12.2v6.2q2.7 6.7 5.3 13.6zm12.2 41.2l18.5-10.6c-3-11.3-7-22.9-11.3-34.1l-16 13.1c2.9 8.4 5.3 16.7 7.3 25q0.8 3.3 1.5 6.6zm2.3 43.7l22-9.9c0.7-10.5-0.7-22.4-3.4-34.6l-19.1 10.8c1.8 12.1 2.2 23.5 0.5 33.7zm-18.1 31.3c22.7-2 34.1-13.5 38.3-29.8l-23.5 10.5c-3 7.8-7.8 14.3-14.8 19.3zm-32.7-11.9v12c23.8-1.6 35.7-13.2 40-29.9z"/>
	<path id="Path 2" fill-rule="evenodd" class="s1" d="m487.6 525.2l-0.3 4.3-0.7 4.2-1.1 4-1.6 3.9-1.9 3.7-2.4 3.4-2.6 3.3-3 2.9-3.2 2.7-3.5 2.4-3.7 2-4 1.8-4.1 1.4-4.3 1-4.5 0.6-4.5 0.2h-396.8l-4.6-0.2-4.4-0.6-4.3-1-4.2-1.4-3.9-1.8-3.7-2-3.5-2.4-3.2-2.7-3-2.9-2.7-3.3-2.3-3.4-2-3.7-1.5-3.9-1.2-4-0.7-4.2-0.2-4.3v-518.6l0.1-1.2 0.5-1.2 0.6-1.1 0.8-1 1-0.8 1.1-0.6 1.3-0.5 1.2-0.1h97l1.2 0.1 1.2 0.5 1.1 0.6 1 0.8 0.8 1 0.7 1.1 0.4 1.2 0.2 1.2v19.6h81.4v-19.6l0.2-1.2 0.4-1.2 0.6-1.1 0.9-1 0.9-0.8 1.1-0.6 1.3-0.5 1.2-0.1h91.2l1.2 0.1 1.2 0.5 1.1 0.6 1 0.8 0.8 1 0.7 1.1 0.4 1.2 0.2 1.2v19.6h81.4v-19.6l0.2-1.2 0.4-1.2 0.6-1.1 0.9-1 0.9-0.8 1.1-0.6 1.3-0.5 1.2-0.1h97l1.2 0.1 1.2 0.5 1.1 0.6 1 0.8 0.8 1 0.7 1.1 0.4 1.2 0.2 1.2zm-236.5-212.3v240.8h191l3.4-0.2 3.2-0.4 3.1-0.8 3-1 2.8-1.2 2.7-1.5 2.4-1.6 2.3-1.9 2-2 1.8-2.2 1.6-2.4 1.3-2.4 1.1-2.6 0.8-2.7 0.4-2.8 0.2-2.9v-212.2zm-237.7-13.3h460.8v-286.1h-83.4v19.5l-0.1 1.3-0.5 1.2-0.6 1.1-0.8 1-1 0.8-1.1 0.6-1.3 0.5-1.2 0.1h-95l-1.2-0.1-1.3-0.5-1.1-0.6-1-0.8-0.8-1-0.6-1.1-0.5-1.2-0.1-1.3v-19.5h-77.6v19.5l-0.1 1.3-0.5 1.2-0.6 1.1-0.9 1-0.9 0.8-1.1 0.6-1.3 0.5-1.2 0.1h-95l-1.3-0.1-1.2-0.5-1.1-0.6-1-0.8-0.8-1-0.6-1.1-0.5-1.2-0.1-1.3v-19.5h-83.4zm224.3 254.1v-240.7h-224.3v212.2l0.2 2.9 0.4 2.7 0.8 2.7 1 2.6 1.4 2.5 1.5 2.3 1.8 2.2 2.1 2 2.2 1.9 2.5 1.7 2.7 1.4 2.8 1.3 3 1 3.1 0.7 3.2 0.4 3.3 0.2z"/>
	<path id="Path 3" fill-rule="evenodd" class="s2" d="m361.8 529.2c-96.7 0-97-53.5-97-53.6 0-2.5 2.4-5 4.9-5h7v-101.8c0-0.7 1-2.9 1.5-3.4 0-0.1 27.6-27.8 43.5-27.1 12.5-0.6 32.2 16.5 40.1 23.8 7.8-7.3 27.6-24.4 40.1-23.8 15.9-0.7 43.4 27 43.5 27.1 0.5 0.5 1.4 2.7 1.4 3.4v101.8h7.1c2.5 0 4.9 2.5 4.8 5 0 0.1-0.3 53.6-96.9 53.6zm0-9.7c69 0 83.4-27.7 86.4-39.2-36.1 0-109.3 0-172.9 0 3 11.5 17.4 39.2 86.5 39.2zm-75.4-48.9h13.9v-68.6c0-0.7 0.9-2.9 1.4-3.4 0-0.1 19.9-20 31.7-19.6 7-0.2 16.7 6.5 23.5 12.1v-20.3c-5.4-5.3-25.1-23.5-34.9-22.8 0 0-0.6 0-0.7 0-9.8-0.7-29.4 17.5-34.9 22.8zm23.6 0h46.9v-66.6c-4.2-4.1-17-15.7-23.1-15.3 0 0-0.7 0-0.7 0-6.1-0.4-18.9 11.2-23.1 15.3zm113.3 0h13.8v-99.8c-5.4-5.2-25.1-23.5-34.9-22.8 0 0-0.6 0-0.7 0-9.8-0.7-29.4 17.6-34.9 22.8v20.3c6.9-5.6 16.5-12.3 23.5-12.1 11.9-0.4 31.7 19.5 31.8 19.6 0.5 0.5 1.4 2.7 1.4 3.4zm-56.7 0h47v-66.6c-4.3-4.1-17-15.7-23.2-15.3 0 0-0.6 0-0.6 0-6.2-0.4-18.9 11.2-23.2 15.3z"/>
	<path id="Path 4" fill-rule="evenodd" class="s3" d="m45.9 114.8h3.2q3.3-1.4 4.6-4.6 1.4-3.2 1.4-9v-32.7h42.9v46.3h5.6v21.2h-8.9l-1-10.9h-38l-0.9 10.9h-8.9zm40.4 0v-35.9h-19.5v19.4q0 5.8-1.7 10.1-1.8 4.3-4.5 6.4zm29.5 10.4l23-32.7-19.9-23.9h13.8l17.9 22.6v-22.6h11v22.6l17.9-22.6h13.8l-19.9 23.9 23 32.7h-13.6l-17.2-25.3-4 4.4v20.9h-11v-20.9l-4-4.4-17.2 25.3zm134.6-56.6v9.8h-29v12.1h26.5v9.7h-26.5v14.6h30.4v10.4h-41.9v-56.6zm62.5 9.8h-28.8v11.4h12q10.6 0 16.4 4.6 5.8 4.6 5.8 13.1 0 8.5-5.9 13.1-5.8 4.6-16.3 4.6h-23.2v-56.6h40zm-16.7 36.5q4.8 0 7.3-1.8 2.6-1.7 2.6-5.7 0-3.9-2.6-5.7-2.5-1.7-7.3-1.7h-12.1v14.9zm80.7-46.4v9.9h-29.1v12.1h26.5v9.6h-26.5v14.7h30.5v10.4h-41.9v-56.7zm57.8 56.7l-14.5-44.7-14.4 44.7h-12.2l20.1-56.7h13.5l20.2 56.7z"/>
	<path id="Path 5" fill-rule="evenodd" class="s4" d="m44.9 282.7c-2.4 0-4.8-2.4-4.8-4.8v-82.2c0-0.6 0.8-2.7 1.2-3.2q5.4-6.1 10.8-11c17.4-15.9 35.2-23.2 53-22.9 17.7 0.3 35.1 8.1 51.6 22.7q4.3 3.8 8.4 8.2c42.4-27 72.4-37.4 95.8-35.8 23.1 1.6 39.4 14.5 54.3 34.6 27.4-26.2 50.9-34.6 72.1-32 22.1 2.6 41 17.3 58.8 36.1 0.5 0.5 1.4 2.7 1.4 3.3v82.2c0 2.4-2.5 4.8-4.9 4.8zm392.9-53.2c-2.3 1.7-3.8 0.4-5.3-0.9-48.2-40.7-60.2-30.6-73.8-19-2.9 2.5-5.8 5-9.2 7.2 30.8 12.8 60.2 30.6 88.3 51.8zm-98-18.1c4.7-2.4 8.7-5.8 12.6-9.1 16.9-14.4 31.7-26.9 85.4 18.1v-22.7c-16.1-16.7-32.8-29.5-51.7-31.8-19.3-2.4-41.4 6.3-68.1 33.2-2 2.1-5.8 1.7-7.4-0.6-14.3-20.4-29.2-33.6-50.4-35.1-22-1.5-51.1 9-93.2 36.4-1.7 1.1-4.9 0.7-6.2-0.8q-5.3-5.8-10.6-10.4c-14.7-13-30-20.1-45.3-20.3-15.3-0.3-30.9 6.3-46.3 20.4q-4.5 4.1-8.8 8.9v25c4.4-2.6 9.1-6.1 13.9-9.7 21.4-16.1 46.5-35 86-9.9 2 1.3 4 2.6 1.4 6.7-0.7 1.1-1.4 1.8-2.1 2.3 43.4-15.8 84.8-20 124.4-15.4 22.2 2.6 43.8 8 64.8 15.8 0.5-0.4 1.1-0.7 1.6-1zm-203.1 57.9c6.5-3.5 13.5-7.8 21.1-12.5 41.3-25.4 98.2-60.5 167-16.7 2.1 1.3 4.1 2.6 1.5 6.7-2.6 4.1-4.7 2.8-6.7 1.5-63.7-40.5-117.6-7.3-156.7 16.7-4.6 2.9-9 5.6-13.2 8h277.8c-47.9-35.4-99.6-60.3-155.2-66.8-57.8-6.8-119.9 6.2-186.5 47.7-2 1.3-4.1 2.5-6.6-1.6-2.6-4.1-0.5-5.4 1.5-6.6 22.9-14.3 45.2-25.2 67.1-33.3-1.2 0.2-2.3-0.5-3.4-1.2-33.7-21.5-56-4.8-74.9 9.4-6 4.5-11.7 8.8-17.5 11.8-0.7 0.4-1.5 0.8-2.2 1v39.6h83.9c-0.2-2.1 1.4-2.9 3-3.7z"/>
</svg>