<svg version="1.2" xmlns="http://www.w3.org/2000/svg" viewBox="0 0 398 462" width="398" height="462">
	<title>Panagyurishte-pdf</title>
	<style>
		.s0 { fill: #ff2e17 } 
		.s1 { fill: #53a677 } 
		.s2 { fill: #ffc734 } 
		.s3 { fill: #000000;stroke: #000000;stroke-width: .4 } 
		.s4 { fill: none;stroke: #000000;stroke-width: 3 } 
		.s5 { fill: #ffc734;stroke: #000000;stroke-width: .4 } 
		.s6 { fill: #ff2e17;stroke: #000000;stroke-width: .4 } 
	</style>
	<path id="Path 1" class="s0" d="m7.5 9h183.9v103.6h-183.9z"/>
	<path id="Path 2" class="s1" d="m8.3 120.2l381.7-0.7c0 62.4 6.3 127.2-1.5 181.3-10.2 73.9-72.5 149.3-193.2 154.6-75.6-6.1-141.1-32-175.3-115-18-43.4-14.1-119.6-11.7-220.2z"/>
	<path id="Path 3" class="s2" d="m8.2 272.7h-7.9l0.6-268.4h7.8zm-7.3-264.4v-7.7l393.2 0.8v7.7zm389.3-3.1l3.9-3.8h4l-0.6 282h-7.9zm-0.5 277.9l7.9 0.3v0.2l-1.5 18-7.9-0.7zm-1.5 17.5l7.8 1v0.2l-3.4 17.5-7.8-1.4zm-3.3 16.9l7.7 1.9-0.1 0.2-5.3 16.9-7.5-2.3zm-5.1 16.4l7.4 2.6v0.2l-7 16.2-7.3-3zm-6.7 15.7l7.1 3.3-0.1 0.2-8.6 15.4-6.9-3.6zm-8.3 14.9l6.7 4-0.1 0.1-10.1 14.6-6.5-4.3zm-9.8 14l6.3 4.6-0.1 0.2-11.5 13.6-6.1-4.9zm-11.1 13.1l5.8 5.2-0.1 0.1-12.8 12.5-5.6-5.4zm-12.4 12.1l5.3 5.7-0.2 0.1-14 11.4-5-5.9zm-13.7 11l4.8 6.1-0.2 0.2-15.1 10.1-4.5-6.3zm-14.7 9.8l4.2 6.5-0.2 0.1-16.1 8.8-3.9-6.7zm-15.7 8.6l3.5 6.9h-0.1l-17.1 7.5-3.2-7.1zm-16.6 7.2l2.9 7.2-0.2 0.1-17.9 5.9-2.5-7.3zm-17.4 5.8l2.2 7.3-0.2 0.1-18.6 4.3-1.9-7.4zm-18 4.2l1.4 7.5-0.1 0.1-19.3 2.6-1.1-7.6zm-18.7 2.6l0.8 7.7h-0.2l-19.8 0.9-0.3-7.7zm-19.2 0.9v7.7h-0.2l-20.2-0.9 0.4-7.7zm-19.7-0.9l-0.7 7.6h-0.2l-19.6-2.8 1.1-7.6zm-19.1-2.7l-1.5 7.5h-0.2l-18.9-4.6 1.9-7.5zm-18.5-4.4l-2.2 7.4-0.2-0.1-18.2-6.2 2.6-7.3zm-17.6-6l-3 7.1-0.1-0.1-17.3-7.8 3.3-7zm-16.8-7.6l-3.7 6.8-0.1-0.1-16.3-9.3 4-6.6zm-15.9-9l-4.3 6.4-0.1-0.1-15.2-10.7 4.6-6.3zm-14.7-10.3l-4.9 5.9-0.2-0.1-14-12 5.2-5.8zm-13.5-11.6l-5.5 5.5-0.2-0.1-12.6-13.3 5.7-5.2zm-12.2-12.9l-6 5-0.2-0.2-11.2-14.3 6.3-4.7zm-10.9-13.9l-6.5 4.3-0.1-0.1-9.7-15.4 6.7-4.1zm-9.4-14.9l-6.9 3.7-0.1-0.2-8.1-16.3 7.1-3.4zm-7.8-15.8l-7.3 3v-0.2l-6.3-17.2 7.4-2.6zm-6.1-16.6l-7.6 2.1v-0.2l-4.5-17.9 7.7-1.8zm-4.3-17.4l-7.8 1.4v-0.2l-2.5-18.7 7.8-1zm-2.4-18l-7.8 0.6v-0.2l-0.4-19.3 7.8-0.1z"/>
	<path id="Path 5" class="s2" d="m7.4 120.6v-7.6h382.7v7.6zm184.6-118.6h6.8l0.1 114.2h-6.8z"/>
	<path id="Path 6" class="s3" d="m292.7 63.1l19.5-20.2-9.7-9.9 12.6-12.2 10.1 9.9 3.9-3.9 6.4 7.5-3.3 3.3 5.3 5.2 1 14.7-11.5 0.3-6.8-7.3-19.8 20.9 27.7 27.2c0.6 6.5-2 9.4-7.9 8.2l-28.6-27.7-28.4 28.5c-6.7 0.5-9.5-2-8.4-7.7l28.1-28.1-21-21.1-10.1 9.5-12.4-12.3 10.1-9.9-4-3.9 7.6-6.2 3.4 3.3 12.4-10.9 12.4 12.1-11.5 10.5z"/>
	<path id="Path 7" class="s4" d="m265 412.6c-2.2-2-0.4-7.6-5-8.9l-10 4.3c-1.7-3 0-6.7-0.8-9.9-2-3-7.3-1.8-9.8-4.3 7.8-13.9 26.5-9.1 37.6-15.4 1.3-2.6 0.4-5.4 0.8-8.4-17.9-1-33.6 1.4-57.7-14.7-4.7 0-10.7 2.6-13.2 6.7-1.8 2.6 0 6.8 1.8 9.3 3.3 4.5 12.7 9.5 12.2 17.3l-8.5 10.1c-9.5 0-18.3 3.5-28.2-0.6-9.1 0-19.7 4.9-32.4 10.4-2-2.6-0.4-7.2-1.5-11-4-4.2-9.5 0.8-14.6 0l2.9-10.4-0.5-0.9c-2.1-1.5-6.4-0.7-9.7-2.8l15.5-14.6c13.9 0 28.9 4.5 43.4 7.9 1.7-9.3-7.3-15.1-11.9-21.4 0-4.1-0.4-9.5 2.4-13.4l13.7-4.1v-2.4c-0.5 0-1.4-0.5-2.5-1.4-17.8-22.6-58-6.1-93.6-11.6l-18.7 2c-1.3-9.2-9.5-9.9-17.9-13.8-0.4 0-0.9-1.1-1.8-2.4 0.9-1.7 1.4-3 2.7-5-1.8-3-7-2.1-10.4-3.9l6.9-11.3c-1.4-3.3-5.1-3.3-6.9-7.1 3.9-4.1 11.9-4.9 17.9-4.1 15 5 20.1 26.8 39.7 18.4 2.7-1.3 5.6-1.6 8.6-2.5 0-2 10.9-6.3 11.4-8.9-1.8-2-16-3.6-15.6-7.4 0-0.9 0.5-2 1.2-3.3-13.5-0.5-25.2-9.5-33.2-19.9-1.3-1.7 0.5-3.9-1.3-6-2.2-0.8-4-0.8-6-2.4-3.5-5.9-9.4-8.4-15.8-13l11-7.2 0.4-2.5-6.8-5c4.4-5.4 13.2-7.1 20.1-5.8 1.3-1.3 0.4-3.7 0.9-5.8l1.3-0.9c8.1 1.7 15.9 5.9 19.2 14.6 4.3 8.4 5.2 18 14.1 22.6l19.3-6.3c2.9-4.6 9.3-5.4 14.1-8.2l-0.4 1.5c-5.5 0.5-9.5 3-13.4 7.6l0.9 1.3c3-0.9 3.4-4.7 6.4-5.9 3.4 0.5 7.6-0.4 9.8-3.7 0.5-1.3 1.4-2.6 0.5-4.2h-11.5c0-2.5 2-7.2-1.8-8.8l-15.3 0.8v-2.4c10.3-6.3 23.5 4.5 32.1-5l-0.4-1.8c-6.9-5.4-15.5 3-23.2-2.5l-0.9 0.9c1.8 1.2 3.4 2.9 6 3.7-4.2 1.7-10.2 0-15.8 2.9-1.2 1.8-0.3 3 0.4 5l16.3 0.4c0.4 0.9 0 2.6 0.4 3.9l-2.2 2.4c1.8 3.4 6.8 2.6 10.4 2.6-3.1 0.8-6.9 0-10.4-0.9l-0.2-2.6c0.6-1.1 2.8-2.4 2.4-4.9l-17.1-0.5c-0.9-1.2-0.9-2.4-1.8-4.1l0.6-0.9c4.2-3.6 10.1-2.1 15.9-2.8-4-3.5-11.7-5.8-10.8-13 3.4-5.1 0.4-12 7.7-14.2 12.8 0 16.5-11.7 26.9-17.1 2.9-5.8 11.1-9.3 18.2-11.4 2.2-1.5 1.4-4.9 3.1-7.4 2.9-0.9 4.2 2.5 7.1 3.2l9-7c1.8 0.8-0.4 30.2 1.4 32.2l3.4-25.9 8.5-4.1 0.9 0.3c0 0.4 1.7 2 1.3 3.8v3.7c1.2 0.8 3.4 0 5.2-0.8l1.2 0.5c2.1 0.8-25.5 20.1-24.6 22.3 2.5 0.9 31-16.9 34-15.2 0 2.8 4.6 1.5 5 4.2 0 1.2-2.1 2.7-1.3 4.5 2.2 0.8-23.7 5.3-22.4 8.4-0.9 2.3 31 0 30.1 3.2 0.9 1.3 4.4 0.5 4.9 3l-0.5 1.8-7.7 4.5c-1.7 2.9 0.5 6.6-0.9 10 1.8 0.4 3.6 0.8 5.1 2.5 1.3 1.8-0.9 3.3-1.5 5 1.1 3 5 3.4 6.4 7.6 0 2.3-3.1 0-4.9 1.2-0.9 2.5 0.5 4.6 0.5 7.4l-1.8 1.4c-1.1 1.6 0.4 3.7 0 5.7l-2.4 0.9 0.8 10.6c-1.7 1.1-47.6-13.8-49.8-14.3-0.2 5.5 51.2 25 48.5 31.3-1.7 0.5-51.8-21.9-53.4-22.8-2.1 2.5 50.8 28.3 48.8 31.9l-0.9 0.5c-3.1-0.5-2.6-3.7-6.1-5-1.6 0.4-53-15.5-54.7-14.9-1.3 0.5 50.9 17.1 49.2 18.3 11.6 9.4-4.2 27.8 9.8 33.6l26.5 1.8 7.7 5c4.7-2.9 8.1-8.1 9.9-14.3-6.5-28.2-38.1-59.9-14.7-88 2.6-2 10.4-3.5 14-4-20.5 6.1-15.2 34-10.1 48.9 9.7 15.3 21.4 35.2 14.3 50.6l-12.5 9.3h-1.7c-10.9-6.8-35.4 0.4-42.2-15.3l-40.6-33.1 43 25.3c2.9-3.2-17.1-16.5-19.7-20.9l-27.6-16.2c1.5-1.6 43 14.8 45.6 13.9 1.3-2.1-46.3-18.6-45.4-21.1l45.5 8.5c2.7 1.2 5.1 11.4 8 13 2.9-3-53.4-24.8-53-28.9 1.8-0.4 55.1 18.5 56.8 19.6l1.3-0.3c1.3-7.1-43.5-28.1-44-35.3 2.7-0.3 18.6 7.9 18.1 11.2l26.8 6.5-59.2-21.7c20.5-5.5 27.5-16.4 61 10.1 0-2.4-35.7-12.8-34.8-15.5 1.3-0.7 34.8 10.4 36.3 10.1 0.9-1.8-44.6-16.1-47.3-16.9-3.7-5.6 47.1 10 49.5 9.7 0-2-3.3-3.2-5.5-3.2l-24-9.1c1.8-0.5 25.8 4.8 27.1 3.2 0-1.3-57.1-1.2-47.1-7.5-2.4-3.4-3.2-4.8-3.2-9.4l53.6-2.8c-0.4-2.5-46.1-1.3-48.3-3.4-0.4-1.2 43.7-0.4 44.1-2.4 0-1.2-1.8-1.2-3.1-2.1-1.5-1.8 1.3-2.1 1.3-3.8-2.6-2.5-37.6 7.4-40.7 6.6 0.4-1.8 34.8-10.3 34.8-12.3-2.7-2.1-3.1 2-5.5 0.6 0-1.5 1.2-2 2.1-4.1l-0.6-1.7c-2.4-0.7-5.5-0.5-8.5-0.5-1.6-0.6-0.9-3.2 0-4.8l-0.3-0.9c-1.8-0.9-37.5 18.1-39.1 19-2.7-1.2 33-21.9 32.1-24.4-2.8-2.9-16.4 34.3-21 32.3-0.4-1.2 10-33.2 8.2-34.8l-1.3-0.4c-1.5 2-0.6 37.9-1.9 41.2-2.9 0.8-7.4-36.7-10.4-37.9-1.8 0.8-1.4 3.8-2.9 5-13.6 3.7-17.6 12.5-27.7 17.6-2.7 8.7-12.4 9.9-20.6 12.8l-4.7 14.3c0.9 3.8 4.7 5.4 8.5 6.7l19.6 0.8c0.9 2.2-0.6 4.2-2.4 5.4l-30.3 2.5 1.6 1.7c5.1-0.3 12.4-3.3 16.3 0.3 2.5 2.7-1.3 5.9 0.5 8.1l10.6-1.3c1.3 1.6 0.4 4.6-0.9 5.8-2 4.2-6.8 1.7-10.6 3.9-0.9 2.3-2.2 4.5-4.6 5.3-2.7-1.6-6.5 1.3-8.6 3.4-2.2 2.5-7.9 3.8-12.1 2.9-6.4-1.2-12.5-3.1-15.1-9.4-3.9-10.4-4.5-24.9-16.9-27.7-2.6 1.6 3.7 11.5 0.1 12.8-5.5-2.5-14.6-6.1-19.7-2.4 1.2 2.5 3.8 3.4 6 5.4v2.1l-10.4 5.8 19 10c0.9 0.4-2.7 4.3-1.4 3.9 0.9 0.4 1.4 0.8 2 2.1 0.5 7.4 8.3 10.3 14.2 15.5 5.6 4.1 12.3 7.9 19.3 7.5 2.5-0.5 2.9-3.5 5-5l0.5 0.8-0.1 14.7c2.9 3-0.4 5.5-1.1 10.3 2.1 2.9 6.4 1.1 9.8 1.1-2.7 3-6.1 5.1-9.4 4.6-11.9 3.3-24.9 4.7-34.2-2.8-6-5.9-10.8-13.6-22.3-11.6-2.2 0.4-6.4-2.7-8.9-1.5l0.4 1.8c1.2 1.6 6.9 9.1 9.1 10.9l-10.4 3.7c1.3 3.3 14 1.2 17.4 3.7l-6.7 1.4c-0.9 1.2-1.3 3.6-3 4.8v1.8l18.4 3.4-0.4 10c10.6 0 16.8-6.8 27.9-1.2 37.7-7.3 82.8-1.8 87.8 18.5-4.6 4.1-14.2 0.3-15.9 8.9-0.9 1.8-1.1 3.9-1.1 6 5.5 5.4 15.6 14.9 11.9 24.6-9.4 1.6-23.6-9.2-38.3-6.4-2.2-0.8-2.2-1.1-4.8 1l-12.9 8.3c0.9 3.3 11-1 13.2 2.3l-8.1 10.2 0.4 0.9 15.8-2.2c1.8 2.7 0.5 7.1 2.3 9.7l24.7-6.7c13.7-4.3 20.9 0 30.3 0.4 4.2-2.1 5.1-8 5.5-12.5-2.1-8-16.2-12.9-11.1-24.2l2.7-6.8-20.2-20.8c15.7 15.8 57.3 35.1 83.8 34.2 3 0.8 6.8 1.2 8 5.1 0.5 3.7 0 8-3.4 10.7-11 2.2-22.5-1-30.4 9.9 0.9 2.2 2.3 2.7 4.1 3.5 3.5 2.1-1 6.3 1.6 9.6 3.3 0 6.8-7.2 11.5-3.3 0.4 1.1 1.7 5 2.2 6.8l23.1-16.9c1.1-11.3 12.7-22.8 7.7-34.6-9.5-4.2-24.1-0.4-27.9-13.3-4.7-9.2-5.5-19.8 3.5-28.5 7.3-4.8 9-21.3 6.9-31.7-1.8-12.5-9.5-17.3-10.9-30.3-9.3-13.9-15-35.3-3-46.6 15.2-16.7 36.5 33.4 33.7 19.8-5.3-11.2-8.4-28.1-25.8-26 1.3 3.1 6.5 4.3 9.9 6.4 6.4 10.9 13.6 17.5 20.3 27.6l-2.1 23.7c-7.3-4.9-11.9-10-16.7-18.3 0-6.3 0.3-42.9-13.7-33.3-10 1.8-10.6 9.5-10.5 31.2 9.2 19.1 32.3 47 22.5 68.4l-10.6 13.3c0.3 4.6 1.2 9.1-0.9 14.3-3.1 5 1.2 10.2 4.1 14.4 8.2 6.2 24.5 1 24.9 16.5-3 10.4-2.1 23.7-9.8 32.6-9.5 3.6-18.8 7.4-23.8 15.4zm0.9-0.9c-0.9-0.5 0-1.6 0.8-2 1.8 0.4 0 1.2-0.8 2zm13.6-10.9c2.2-0.7 4.3-2.5 6.8-2.7-2.1 1.1-4.3 1.1-6.8 2.7zm-16.7-4.5l-0.4-0.9c2.2-3.3 8.2-3.6 11.1-3.3zm-102.5-1.3c-0.3-2.6 3-5 6.5-5.9 4.7-0.9 9.3-0.4 14.4-0.4-5.9 1.7-14.8 0.4-20.3 6.3zm48.5-5l-0.9-10.2c3.5 1.8 3.5 7.2 0.9 10.2zm49.3 0l0.3-1.3c2.1-1.2 5.7-2.1 7.9-0.5-1.8 0.9-5.3 0.9-7.9 1.8zm-105.4-3c0.3-2.9 4.6-2.9 6.4-5.4l-0.4-0.9c-2.6-2.9-6.9-0.3-10.7 0.5v-1.4c6.4-4.5 13.6 1.8 20.5 2.7zm137.2-14.1c-0.9-2.1 0.4-4.7-1.4-7.6l1.4 0.5c1.3 2 1.5 5 0.4 7.1zm-98.8-9.7c-1.6-1.3-4.7-2.8-4.7-5.8l0.9-0.5c2.2 1.4 3.4 2.9 5 5.5zm15.5-2.5l1.3-1.1zm39.2-7.4c-7.6-2.8-15.2-20.9-18.3-27.2l19.2 26.7zm-68.4-7.2l0.5-2.5c0.4 0 1.3-0.5 2.6-1.3-0.9 0.8-2.2 1.7-3.1 3.5zm15.5-8l1.3-2.2c0.9 0.5 0 1.8-0.9 2.2zm21.8-4.9c-0.4-3 3.2-7.4 2.8-9.9-2.4 1.2-1.1 11.5 0.1 13.2zm-10.7-5.5c-24.8-17.8 7.1-12.6 9.5-13.7 0 2.5-9 10.9-9 13.7zm-125.9-3.7l-1.8-0.9c-0.4-1.1 7.3-3.9 7.3-5.6 0.8 3.3-3.7 6.5-0.4 6-1.8 0.9-2.9-0.4-5.1 0.5zm180.9 2.9c-4.6-6.9-11.4-12.8-19.8-18 6.7 4 14.8 6.3 20.3 12.2zm-88.5-8.8l-16.5-8.8 7.4-1.2c0.6 1.2 5.6 4.6 7.3 5.5l0.9-0.5c1.6-1.2 0-6.1 0.9-8.3 3.1-2.7 8.8 2.5 12.7 1.7 0.3-1.8 0.3-3.3 0-5.4l1.2-0.9c2.5 0 3.8 2.1 6.8 3.4l0.5-1.3c0-1.7-3-2.5-1.8-4.5l12.6 2.4c0.6-1.8-0.9-3.3-1.8-5.4 1.8-1.7 5.1 1.3 8.2 1.6l0.6-1.2c-0.4-1.6-2.8-3-2.4-5.4 1.1 0.4 3.3 0 4.2 1.8l-2.4 0.2c-0.9 2.5 2.8 2.5 3.3 5.5-0.5 2.5-4.7 0-7.3-0.9-3.1 1.7 8.4 6.9 7.2 9.9-4-1.2-14.5-6.1-18.7-6.5-1.7 2.2 4.3 5.5 3.5 8l-11.6-4.6c0 2 1.5 6.3 2.4 8.7-3.3 0-9.3-5.8-12.9-4.6-3.1 2.4-2.7 6.7-3.1 10.4zm101.5-0.8c0.9-1.5 2.4-2.8 4.2-4.5-0.5 1.7-2.1 3.2-4.2 4.5zm-211.3-6.7c-0.9-0.2-1.5-0.9-2.2-2 0-2.1 2.8-4.2 1.6-6.6-3-2.2-5.9-0.9-9.4-3l6.4-10.4c0-3-3.8-3.9-5.9-5.9v-2.2c0.9-0.3 2.5-1.2 3.7-1.7-1.2 0-1.6 1.7-2.5 3 1.3 2.6 5.2 3.3 6.5 6.3l-7.3 9.2c1.7 2.9 6.4 2.5 9.7 4.2 1.4 2.6-4.6 6.2-0.6 9.1zm91.6-6l18.2-10.3c0.6-2.7 0.3-6.2 1.1-9.9 2.6 0.3 3 1.4 3.9 3.8 2.6 1.7 4.1 2 7.9 2.8 4-4.2-5-17.2-4.6-22.6 3.6 3.3 7.7 16.3 8.1 21 1.3 1.3 4.2 1.6 6.4 0.4 0.9-11.4-5.9-23.4 2.7-34.2h1.2c-8.1 11.7 2.1 22.7 1.5 34.6-12.2 1.5-45-0.3-46.4 14.4zm-52.6-6.8l15.6-4.2c2.5-2 1.6-6.4 0.8-9.7-0.8-1.6-2.6-1.6-3.5-3.7 0-2-0.7-4.2 0.9-6.7-0.4-0.3-0.4-1.5-1.6-2l0.4-0.9c0.8 0.5 2.4-0.3 3.3 0.9-1.2 2.9-3.7 5.8-1.6 9 3.4 3.1 2.9 6.7 3.8 11.1 1.2 0.6 3 2 5.1 1.5-5.5 2.6-15.3 3.4-23.2 4.7zm70.8-2.1c0.6-1.4-0.3-6.1 0.6-7.6 1.8 0.6 4.4 4.6 6.3 4.6-2.3 0-4.9 1.3-6.9 3zm13.3-3.9c0.9-0.2 1.4-2 2.2-3.2l0.9 2.4zm42-2.1c-0.5 0-2.1-2.1-0.5-2.6zm-85.5-9.6c-2.5-4.9-6.2-9.6-4.1-15.1 0.4-0.7 6.3-2.9 8-3.6-3.4 5.8-2.5 12.9-3.9 18.7zm10.5-1.3l2.6-33.2c0.4 5.8 10.3 26.9-2.6 33.2zm-49.3-8.6l-1.8-0.9c0.5-0.4 5.3 1.2 1.8 0.9zm-3.3-1.8c-2.2-0.7-3.5-1.6-5.2-3.2 1.2 0.8 3.4 2 5.2 3.2zm122-0.7c-0.4-0.9-2.6-2-2.2-3.8 1.4-0.9 3.1 0 4.8-0.4 0.3-0.9 2.1-2.6 1.6-4.1l0.9-0.5c1.3 0 0.9 1.6 2.1 2-1.2 0-1.6 2.6-3 4.3-0.8 0.5-2.5-0.9-3.7 0zm12-0.9c-0.9-0.5-1.4-0.8-2.1-2l1.2-0.9c3.4-3-1.2-7.5-0.5-11.3 1.4 0.5 2.7 1.1 4.3 2l1.8-1.2c1.8 0 0.3 1.7 0.9 3-0.9 0.8-1.8 0-3.1-0.5l-1.7 0.8c-0.8 2.9 1.4 6.8-0.4 10.1zm-143.5-4.7l-8.5-9.9zm211.9-4.9l-1.8-0.8c0.4-0.9 0.9-1.3 2.2-2.2 1.3 0.9-0.4 1.7-0.4 3zm-220.7-8l-0.9-2.1-21.4-15.4c0.9-1.6 3-2.5 5.5-3.7 0 1.2-3 1.2-3 3.7l15.8 13.8h1.8c0.8 0.5 1.3 0.8 2.2 2zm38.7-5.4c-2.5-0.5-6.7-1.3-8.1-5 2.1 2.9 6.9 4.1 10.6 3.7l8.6-5.9c-1.2 3.9-5.9 5.4-10.2 7.2zm114.9-1.8c-1.2-1.5-2.6-3.6-3.9-5.7l0.9-0.9c2.2-0.5 3 1.2 5.1 2.1 2.6-0.9 1.7-5 0.4-7.5-0.4-1.4-1.3-1.8-2.2-3.4 0.9-2.1 3.5 0 5.6-0.4l0.6 2.9-1.8 0.4 0.5 10.5c-1.4 0.5-3.1-2.1-4.9-0.9 0 0.6-1.1 1.4-0.3 2.6zm-96.5-5.1c-0.3-1.2 3.4-3.2 4.8-5.7l8.9-3.8c-0.3-1.2-1.2-1.2-2.5-2.1l-10-1.6c0.5-2 3.1-4.2 2.2-6.8l-13.2-5c-0.4-1.1-5.2 1.7-4.3 0 5.2-2.8 14.5 0.2 19.3-3-1.2-1.3-7.3-4.9-9-7 7.7 4.2 11.5 0.7 18.8 5.3 0.4 0.8 4.8 1.9 3.9 3-10.4 5.2-19.9-6.8-28.9 1.6l1.4 0.6 12.9 3.2c2.1 2.5 0.5 5.6 0.5 8.4 3.7 2.5 7.2-0.3 11.4 0l0.5 2.5c-1.8 3.8-6.9 5.1-11.2 4.7-1.6 1.6-2.1 4.5-5.5 5.7zm148.1-0.7c-0.3-0.9 0-1.6-0.3-2.9zm-109.1 4.5c-1.1-4.1-3-14.1-1.8-18.8 0.9 3.4 3.1 14.2 1.8 18.8zm13.9-6.1c-3-2.2-4.6-7.5-4.6-11.4 1.6 3 3.8 7.5 4.6 11.4zm-101.5-1.3c-3.9-2.6-7.8-1.2-12.1-3.4v-1.3c2.7-1.2 5.2 0 8.2-0.4-0.4-1.6-2.5-2-3.9-4.5 2.6-2 6 2.5 8.2 4.5 0.9 0.4 2.1 2.5 1.8 4.2zm-0.9-1.7c-0.9-0.4-2.1-0.4-3.4-1.3 0.4-1.2 1.3-1.2 2.5-2.1l0.9 0.4c0 0.9 1.2 1.7 0.3 3zm70.9-2.1c2.2-4.2 5.5-8.3 3.1-13.4 2-1.6 3.8-4.6 6.4-6.3-0.9 5.6-4.4 8.9-4.4 15.2-1.1 1.6-2 3-4.2 4.5zm56.4-1.3l-6.5-11.6c3.4 0.8 8.6 7.5 7 11.6zm-118.3-2l-9.5-12.2 0.5-1.2c4.8 1.7 9.5 7.5 9.5 13.4zm-27.8-0.9c-1.3-0.8 0.5-3 1.8-1.6zm94.1-0.9c-0.9-1.2 0.8-2.5 0.8-4.1 0 1.4 0 2.5-0.8 4.1zm76.8 0c-0.8-1.2-1.3-2.7-1.3-4.5l2.9-0.4 0.9 2.4zm-146.3-5.4c-1.3-1.6-3.1-3-4.8-4.5 2.2 0.4 3.5 2 5 4.5zm-29.6-0.4l-1.3-1.2c4-4.6 12.8-6.8 18.9-5.5 2.1-0.8 1.2-3.3 1.6-5.4 1.8-2.1 5.2 0 7.8 1.2-1.4 0.9-3.5-1.6-5.1-1.2l-0.9 0.5c-1.8 1.2-0.9 4.1-0.9 6.3l-1.3 0.7c-5.1-2.5-10.6-0.4-16.1 1.6-1.3 0-1.3 2.5-2.7 3zm228.7 0c0-0.5-0.7-1.2-1.4-2.6zm-106.2-1.2c0-1.4 0-2.9 0-4.7 1.8-1.2 3.6 0.9 5.2 1.8l0.9-0.5c2.1-1.3 0-4.5 2.1-7l2.1-0.9c1.3-1.3-1.2-2.6 0-4.2 2.5 2.1 1.8 6.3 2.5 9.2 0-0.5-1.2-0.9-2.5-1.6-2.1 0.7-1.7 4.5-3.4 7l-1.2 0.4c-1.4-0.4-1.4-1.3-2.6-2-1.7-0.4-1.3 1.6-2.6 2zm-22.5-0.9c0.9-2 3.1-2 3.1-4.2-0.9 2.2-3.9 3.1-3.4 4.6zm77.7-1.2c0 0-1.7-1.3-0.9-2.6l2.7-0.4v-2.6c-1.4-1.1-3.5-1.1-4.8-3.3 0.9-1.2 3.4-3.2 2.1-5.4l1.3 1.8c-0.7 1.5-1.6 3.6-0.4 5.8 1.8 1.1 3.5 2 4.7 5-1.2 0.9-3.4-0.4-4.7 1.7zm-144.2-3c-2.2-0.5-2.2-2.1-4.2-2.9 1.5 0 2.4 1.7 4.2 2.9zm47.3-2.6l-3.3-0.6c3.7-0.5 8-2.2 12.3-1.8l0.5 1.3c-3 1.1-6 0.8-9.5 1.1zm50.4-0.3c0.5-1.2 1.4-1.2 2.5-2.1l0.4 1.3c-0.9-0.4-1.5 0.5-2.9 0.8zm-49.1-0.3c1.8-0.5 4.3-1.8 6.4-1.4-0.9 2-3.7 0.5-5.5 1.4zm83.2-5.7c-2.9-3.6-7.6-1.1-12-3.2 1.8-1.7 10.7-1.3 13.8 3zm-99-1.2c-1.3-0.8-2.6-3.3-2.2-5.5 0.5 1.8 1.8 3.4 2.7 5.5zm11.2-1.6c-1.3-0.5-2.7 0-4.3-1.4-0.5-0.7-1.2-2.1-0.9-3.2 3.9 4.1 11.6 2.5 18 3.2-1.3 0.9-9.1 0-12.8 1.4zm96.4-0.5l-0.8-0.4c-1.4-1.7-0.5-3 0.4-5 0.4 1.3-1.3 3.8 0.9 5zm-31.2-0.8l-9.5-5.8 0.9-0.9 9.5 6.3zm-77.1-5.4c0-0.9 0.3-2.1 1.2-3.3 0 0.8-0.9 2-1.2 3.3zm37.1-4.1c-1.8-0.9-3.4-1.7-4.7-3.8-6-4.6-17.4 2.4-24.8 2.8 4.8-6.3 18-4.2 23.9-6.6 0-2.5-2.2-2.5-3.1-5l0.5-1.6c1.7-2.1 8.6-2.9 11-3.3l-2.8 2.8c-0.9 0.5-2.7 0.5-2.9 2.1 0.2 1.2 3.6 2.2 4.5 4.3-0.4 0.4-3 1.1-3.9 2.5 0 2.4 2.3 3.6 4.9 4.5zm-35.9-1.2c-0.5-0.9 0-2.2 0.9-3.4l1.5-0.9c-0.3 1.3-1.5 2.1-2.4 4.3zm75.5-0.4l0.4-1.4c2.9-2.8 9.3-2.5 12.8 0-4.2-0.4-8.6 0-13.2 1.4zm-42.3-0.9c-0.8-0.5-2.1-1.7-2.9-3l0.8-2.9c-0.3-1.2-0.8-2.1-2.5-3v-2.4c1.3-0.9 3.4-1.7 5-0.9-0.4 0-0.7 1.3-1.6 2.7 0.4 1.5 3.4 2.4 1.6 4.9-1.2 1.3 0 2.9-0.4 4.6zm25.6-3c-3-2-5.9-1.1-9.5-1.6-0.3-2.5 1.5-4.9 0.9-7.9l0.9 0.3c0.9 1.8 0.9 2.9 0 5.1 1.8 1.2 5.2-0.4 7.7 1.7 0 0.4 1.2 1.3 0.5 2.4zm54.6 0c0.6-0.3 0-1.6 0.6-2.4zm-108.3-1.6c0.7 0.5 1.6-0.8 2.8-0.8zm104.6-1.6l-1.8-0.9c0.5-0.3 0.5-1.7 1.8-2.1 0.2 0 1.5 2.5 0 3zm-25.3-1.2l-2.6-1.4c1.7-1.2 6.5-1.2 8.6 0l0.4 0.8c-1.6 0-3.8 0.6-5.9 0.6zm25.3-3.4c-1.3-0.4-1.8-1.3-3.5-2.2l1.3-1.6c1.7 0 0.9 1.6 2.2 3.4zm-34.2-1.6c-6.5-6.3-14.7 1.6-21.5-4.2-1.6 0-3.8 0.4-6 0.4-0.9-1.3-0.4-2.5-1.5-4.3-0.8 0-2.6 0.5-3-0.8 1.3-1.5 4.1-3.3 5.8-5.4l0.9 0.5c-0.4 1.6-3.1 1.6-2.2 4.2 1.3 0.3 2.7 1.5 2.2 3.3 6.9 1.6 13.7 2.5 21 1.2 1.2 1.3 3.4 2.4 5.9 3.8zm-15.5-1.7c-2.8-3.7-7-2.1-11.9-3.3l-0.4-2.5-1.9-1.8 0.8-0.7c1.5 0.7 2.8 2 3.3 4.6 6.8 1.3 13.2 2.8 20.5 1.6-3.1-0.3-6.8 2.6-10.4 2.1zm40.6-2.9c0-1.3 1.8-3.4 1.4-4.9-0.8 0-2.1-1.8-3.5-0.9-1.3-1.2 0.9-2.6-0.4-4.3-0.3 0-1.2-0.5-2.5-1.1 2.9-0.5 4.3 2.4 7.2 3.3 1.4 1.6 0 2.5-0.8 4.1 0.4 0.9 0.8 2.1 1.6 2.5zm-75.5-0.4c9-8 21.7-10.7 29-21.3h1.6c1.8 1.3 2.7 2.5 4.3 2.9 2.1-0.7 3.5-2.5 3.9-4.2-0.9 2.1-3 3-4.6 3-2.7-0.9-3.1-3-5.2-3.4l-1.2 0.4c-1.4 2.6-0.5 5.6-2.7 6.7-12.2 1.3-16.1 11.4-25.5 15.9zm64.1-10.4c-2.7-0.8 1.7-5.1-1.4-6.3h2.2c0.9 1.2 0 2.5 0.5 4.2 0.9 0.4 2 0.9 3.3 1.8-1.3 0-2.9 0-4.6 0.3zm-6.9-4.6c0-2 0.5-4.1-0.4-6.8-3.1-3.6-6.4 3.9-10.7 2.2 0-0.9-1.2-2.5-1.2-3.7-0.5-0.8-2.2-1.7-3.6-1.3l2.2-1.7c0.9 0.9 1.8 3.3 2.9 5.4 4 2.1 7.3-4.1 11.3-2.9-0.5 2.5 2.4 7.1-0.5 8.8z"/>
	<path id="Path 8" class="s5" d="m55.6 44.8l11.2-16.9 10.3 3.6c3.8-4.6 9.2-6.9 15-8l1-9.8c7.9-0.9 15.7-0.4 23.3 1.2l-0.6 9.7c5.6 2.3 10.1 5.3 13.6 8.8l9.3-3.9c4.7 5.6 7.5 11 9.4 16.7l-8.1 5.1c1 5.5 1.5 10.7 0.5 16.2l8.7 4.2c-1.8 6.6-5 13-9.3 18.6l-8.7-4.8c-4.9 4.1-11.9 7.9-17 10.1l1.5 9.4c-8.2 3.1-15.2 3.1-23.8 1.6l0.2-9.8c-5.1-1-12-3.8-15.8-7.7l-8.3 4.6c-6.1-5.7-8-8.8-11.4-17.4l7.4-4.9c-1.5-6.4-1.5-13 0-20.3z"/>
	<path id="Path 9" class="s6" d="m79.1 60.2c0-12.2 10.2-22.2 22.7-22.2 12.5 0 22.7 10 22.7 22.2 0 12.3-10.2 22.3-22.7 22.3-12.5 0-22.7-10-22.7-22.3z"/>
</svg>