<svg version="1.2" xmlns="http://www.w3.org/2000/svg" viewBox="0 0 1572 2070" width="1572" height="2070">
	<title>Dve-Mogili-cdr</title>
	<style>
		.s0 { fill: #0b649b } 
		.s1 { fill: #ffeb3d } 
		.s2 { fill: #ff2e17 } 
	</style>
	<path id="Object 3" class="s0" d="m103.7 472.6c223.3-119.9 423.7-137.4 682.5-137.4 258.7 0 459.1 17.5 682.5 137.4 0 342.5 0 674.8 0 1017.3-1.4 179.1-83.1 361.9-230.1 427.8-182.5 81.9-371.8 25-451.8 151.5h-0.6-0.7c-80-126.5-269.3-69.6-451.8-151.5-146.9-65.9-228.7-248.7-230-427.8 0-342.5 0-674.8 0-1017.3z"/>
	<path id="Object 4" fill-rule="evenodd" class="s1" d="m126.4 487c216-116 409.6-132.8 659.8-132.9 250.1 0.1 443.8 16.9 659.7 132.9q0 496.5 0 993.1c-1.3 173.1-80.3 349.8-222.4 413.5-176.4 79.2-359.4 20.9-436.7 143.2h-1.3c-77.3-122.3-260.3-64-436.7-143.2-142.1-63.7-221-240.4-222.4-413.5q0-496.6 0-993.1zm678.6 470.6h216.4v176.7h386.7v-627.1c-198-106.3-376.3-124.3-603.1-125.2zm216.4 214.5v147.3c-0.5 61.7-28.7 131.7-79.3 154.4-51.4 23.1-104.4 12.1-137.1 31.1v460.4c80.8-83.6 239.9-37.7 393.4-106.6 134-60 208.5-231.6 209.7-394.8v-291.8zm-254.1 332.9c-32.7-19.1-85.7-8.1-137.1-31.2-50.6-22.7-78.8-92.7-79.2-154.4v-147.3h-386.8v291.8c1.3 163.2 75.7 334.8 209.7 394.8 153.6 68.9 312.6 23 393.4 106.6zm-603.1-370.6h386.8v-176.7h216.3v-575.6c-226.7 1-405 19-603.1 125.3z"/>
	<path id="Object 5" class="s2" d="m588.7 1002.9h394.9c0 99.1 0 204.6 0 303.7-0.4 51.9-24 110.6-66.5 129.7-52.8 23.7-107.6 4.6-130.7 41.2h-0.2-0.2c-23.2-36.6-78-17.5-130.8-41.2-42.5-19.1-66.1-77.8-66.5-129.7z"/>
	<path id="Object 6" fill-rule="evenodd" class="s1" d="m380.6 1470.7h212.4l49.9 44.9h-306.3zm-72.7 73.4v-18.9h373v18.9zm14.6 9.1h343.3v156.9h-63.1v-127.1h-13.9v127.1h-9.8c0-40.9 0-85.8 0-126.7-14.5-12.9-28.5-12.3-42.1-0.4v127.1h-20.9c0-40.9 0-85.8 0-126.7-14.5-12.9-28.5-12.3-42.1-0.4v127.1h-21.4c0-40.9 0-85.8 0-126.7-14.5-12.9-28.6-12.3-42.2-0.4v127.1h-10.3v-127.1h-13.8v127.1h-63.7zm-14.6 188.7v-16.7h373v16.7zm-11.8 23.7l11.8-16.8h373l11.8 16.8zm47.9-96.3h22.9v-29.9h-22.9zm0-56.4h22.9v-29.9h-22.9zm277.4 56.4h22.9v-29.9h-22.9zm0-56.4h22.9v-29.9h-22.9z"/>
	<path id="Object 7" fill-rule="evenodd" class="s1" d="m978.3 1485.9c1.3 0 0-0.7 1.3-0.7v-2.6c1.4 0 0-0.7 1.4-0.7 0-0.7 0.6-1.3 1.3-2 0-1.3 0.7-2 0-1.3l0.7-0.7c0.6 0 1.3 0 1.3-0.7 0.6 0 1.3 0 1.3-0.6 1.3 0 2-1.4 1.3 0l0.7-1.4 1.3-0.6c0.7-0.7 1.2-0.7 1.4-0.5 0.2-0.4 0.6 0.2 0.6-0.9 0.7 0 2-0.6 2-1.3 1.4 0 2.7-0.7 1.4 0l1.3-0.7 0.7-1.3 1.3-0.7c0.8 0 1.4-0.1 1.8-0.2q-0.2 0.1-0.5 0.2c0.7 0 1.3-0.6 1.3-1.3 0.7 0 1.4 0 1.4-0.6 2 0 4.6-1.4 6-2 2 0 14.6 0 14.6 0.6 0.7 0 4.6 0 4.6-0.6 0.7 0 2.7 0 2.7-0.7 1.3 0 2.7-1.3 1.3 0l1.4-1.3 1.3-0.7c0.7 0 2 0 2-0.7 1.3 0 2-0.6 1.3 0l0.7-0.6c0-1.4 2-2 2-3.4l0.6-0.6c1.5-0.8 2.6-1.5 2.8-1.6q0.1-0.2 0.1-0.2c0.8-0.5 1.4-1.1 1.8-1.5h2l0.7-1.4c1.3 0 2-0.6 2.6-1.3 0.7 0 1.4-0.7 2-0.7 1.3 0 6.7-1.3 6.7-2.6 2 0 5.3 0 7.3 0.6 2.7 1 5.5 1.5 6.4 1.5 3.2 0.5 6.6 0.5 9.5 0.5 0.7 0 2 0.7 2 1.4 0.7 0 2.7 0 2.7 0.6 0.5 1.2 2.7 1.9 4.7 2.2 4.3 1 11.3 1.1 11.3 2.5 0.6 0 6 0 6 0.6h5.9c3.4-1.3 9.3-1.3 12.7-2.6 0.6 0 5.3-1.3 5.3-2h4c1.3-0.7 15.3-1.3 15.3 0h2.6c0 0.7 0.7 0.7 1.4 0.7 0 0.6 3.3 1.9 4 1.9 1.2 0.5 2.8 1.2 2.9 1.1 1 0.6 2.3 1.2 3 1.6 1.4 0 2.7 1.3 1.4 0l1.3 1.3c0.9 0.5 1.5 1 1.6 0.8 0.2 0.3 0.7 0.6 1.1 0.6h2c0 0.6 3.3 2.6 4 2.6 1.3 0 2 1.4 1.3 0l0.7 1.4c0.6 0 1.3 0.6 1.9 0.6l0.7 0.7 0.7 0.7 0.6 0.6c0 0.7 0.7 1.3 1.4 1.3l0.6 0.7c0.5 0.9 0.9 1.5 0.8 1.6 0.3 0.3 0.6 0.7 0.6 1.1 0.6 0 1.3 0.6 1.3 1.3 0.7 0 2 1.3 2.7 1.3 0 1.4 1.3 2.7 0 1.4l1.3 1.3c2 0.7 3.3 2 1.3 0l2.7 2.7c1.3 0 4 2.6 5.3 2.6 0.4 0.8 1 1.6 1.1 1.8 0.5 0.4 1.2 0.9 1.6 0.9 0.6 0.6 1.3 1.7 1.5 2.2 0.8 0.7 1.6 1.8 2.4 1.8l1.4 1.3c0 1.3 0.6 2 0 1.3l0.6 0.7c0.7 0 2 1.3 2 2 1.4 0 0 0.7 1.4 0.7 0 0.6 0.6 1.9 1.3 1.9 0 0.7 1.3 3.4 2 3.4 0 0.6 0.7 1.3 1.3 2 0 0.6 0.7 2 1.4 2 0 0.6 0.6 1.3 1.3 1.3v2l1.3 0.7c0 0.6 1.3 1.9 1.3 2.6 0.4 1.2 0.8 2.1 0.8 2.3 0.4 0.5 0.8 1 1.2 1v2c1.4 0 0 1.4 1.4 1.4 0.4 0.8 0.8 1.4 0.7 1.5 0.4 0.3 0.8 0.7 1.3 1.1v2.7c1.3 0 0 0.7 1.3 0.7 0 0.6 0.7 1.9 1.3 1.9 0 0.7 0.7 3.4 1.4 3.4 0.6 2.6 2 4.6 0 1.3 0.6 1.3 2 3.3 2 4.7 0.8 0.4 1.3 0.8 1.5 0.7 0.2 0.4 0.4 0.8 0.4 1.3 1.4 0.6 2.7 2.6 4 3.9 0 1.4 1.4 2.7 2 3.4 0.9 0.4 1.5 0.9 1.6 0.7 0.3 0.3 0.7 0.6 1.1 0.6l0.7 0.7 0.6 0.6c0 1.4 0.7 2.7 0 1.4l0.7 1.3c1.3 0 0 0.7 1.3 0.7l0.7 1.3c0 0.6 0.6 2 0.6 2.6 0 6-1.9 18 0.7 23.3v5.3c0 0.7 1.3 1.4 1.3 2 0 0.9 0.3 1.5 0.5 1.8q-0.2-0.1-0.5-0.4c0 0.6 1.4 1.3 1.4 2v2c0.6 0.6 1.3 1.3 1.3 2l1.3 1.3c0.7 2 1.4 2.6 0 1.3 0.7 0.7 1.4 1.3 1.4 2 1.3 0 0 0.7 1.3 0.7v2c0.7 0 1.3 0.6 1.3 1.3 1.4 0 2 0.7 1.4 0l0.6 0.7c0 1.3 1.4 2 0 1.3l1.4 0.7c0.8 0.4 1.2 0.7 1.4 0.9 0-0.2-0.1-0.5-0.1-0.9 0.6 0.6 0.6 1.1 0.5 1.4 0.4 0.1-0.3 0.6 0.8 0.6l0.7 0.6c0 0.7 0 1.4 0.6 1.4 0 0.8 0.2 1.4 0.3 1.7q-0.1-0.1-0.3-0.4c0 0.6 0.7 1.3 1.4 1.3 0.8 1.2 1.3 1.9 1.2 2q0.2 0.1 0.3 0.1c0.2 0.4 0.5 0.8 0.5 1.2 0 0.7 0 2.7 0.6 2.7 0 0.7 0.7 1.3 0.7 2v2c0.7 0 1.3 0.7 1.3 1.3 0 0.7 0 1.3 0.7 1.3 0 0.7 0 2.7 0.7 2.7 0 2 0 4 0.6 5.3 0 7.3 3.3 22 0 28.6 0 2 0 16 0.7 16 0 2 0 6 0.7 8 0 1.3 0 9.9-0.7 9.9 0 0.7 0 3.4-0.7 3.4v2l-0.6 0.6-0.7 0.7-0.7 0.7-1.3 1.3c-1 0.6-1.8 1-2.1 1-0.4 0.3-0.5 0.3 0.8 0.3h-2.7c0 0.7-0.7 1.4-0.7 2-1.3 0 0 0.7-1.3 0.7l-0.7 1.3c0 1.3 0 9.3-0.6 9.3 0 0.7 0 2-0.7 2 0 1.4-0.6 2.7 0 1.4l-0.6 1.3c-1.4 0 0 0.6-1.4 0.6 0 0.7-0.6 1.4-0.6 2 0 0.7 0 1.4-0.7 1.4 0 0.8-0.1 1.4-0.2 1.8q0-0.2 0.2-0.5c0 0.7-0.7 1.3-1.3 1.3 0 2 0 4.7-0.7 6v4.7c0 0.6-0.7 1.3-0.7 2 0 0.6-0.6 1.3-1.3 1.3v2.7c-0.7 0-1.3 1.3-1.3 2 0 0.6-0.7 1.3-1.4 1.3v2c-0.6 0-1.3 0-1.3 0.6h-2c0 0.7-2 2-2.6 2.7h-2c-0.7 0-1.4 0.7-1.4 1.3-0.6 0.7-1.1 0.7-1.4 0.5-0.1 0.5-0.6-0.2-0.6 0.9-0.7 0.3-1.6 0.7-1.9 0.7-0.6 0.4-1.4 0.8-1.4 1.3-0.7 0-1.3 0-1.3 0.6-1.4 0-2.7 0-4 0.7-0.7 0-1.3 0-1.3 0.7-1.4 0-2.7 0-4 0.6-0.7 0-2.7 0-2.7 0.7-0.7 0-4 0-4 0.7-0.8 0.4-1.4 0.8-1.5 0.7-0.2 0.4-0.5 0.8-0.5 1.2-1.3 0 0 0.7-1.3 0.7l-0.7 0.7c-0.5 1-1.7 2-1.2 1.8-0.7 0.6-1.4 1.4-1.4 2.2l-0.7 0.6h-2.7c-0.6 0.7-1.3 1.4-2.6 1.4l-0.7 1.3c-2.6 0-5.3 0.7-8 0.7-0.6 1.3-3.3 1.3-5.3 1.3-6.6-3.3-23.3-0.7-31.2-0.7-9.4 0-28 3.3-36-0.6-2 0-11.9 0-11.9-0.7-2 0-23.3 0-23.3-1.3-2.7 0-8 0.6-10.7-0.7-3.9 0-10.6 0.7-13.9-0.7-0.7 0-6 0-6 0.7h-2c0 1.3-0.7 0-0.7 1.3l-1.3 1.4c-0.9 0-1.5 0.1-1.8 0.2q0.2-0.1 0.5-0.2c-0.7 0-1.4 0.6-1.4 1.3-0.6 0-2 0.7-2 1.3h-3.3c-0.6 0-1.3-1.3-2-1.3-0.6 0-1.3-0.7-1.3-0.7-3.3 0-8-1.3-11.3 0-0.7 0-2 0-2 0.7-0.7 0-2.7 0-2.7 0.7-0.6 0-1.3 0-1.3 0.6-0.7 0.3-1.3 0.5-1.6 0.5-0.4 0.3-1.1 0.6-1.1 1.5-0.6 0-1.3 0-1.3 0.7-0.6 0-1.3 0-1.3 0.6-0.7 0-1.3 0.7-2 0.7-1.3 0-2 0.7-2.7 0.7-2 0-5.3 0-7.3-0.7-0.7 0-3.3 0-3.3-0.7-0.7 0-1.3 0-1.3-0.6-0.7 0-4 0-4-0.7-1.4 0-2-1.3-1.4 0l-0.6-1.3-0.7-0.7c-0.8-0.4-1.4-0.8-1.5-0.7-0.2-0.5-0.5-0.9-0.5-1.3 0-0.8-0.1-1.4-0.2-1.8q0.1 0.2 0.2 0.5c0-0.7-0.7-1.3-1.3-1.3-0.7-1.4-3.3-1.4 0-1.4-0.7 0-3.3 0-3.3-0.6-0.7 0-2 0-2 0.6-0.7 0-5.4 0-5.4 0.7h-2c0 0.7-0.6 1.3-1.3 2h-2.6c-0.7 0-1.4 0.7-1.4 1.3-0.6 0-1.3 0.7-2 1.4l-0.6 0.6c-0.9 0.5-1.5 0.9-1.6 0.7-0.3 0.4-0.7 0.6-1.1 0.6-0.7 0-2-0.6-2.7-0.6-0.6 0-2-1.3-2.6-1.3-0.7 0-2-0.7-2.7-0.7-2.6 0-6-0.7-8.6-0.7-0.7-0.6-2.7-2.6-2.7-3.3-4.6 0-12 0.7-16.6-0.7-2 0-4.7 0-6-0.6-1.3 0-2-0.7-2.7-0.7-0.6 0-2.6 0-2.6-0.7h-2c0-0.6-1.3-0.6-1.3-2-1.4 0 0-0.6-1.4-0.6 0-0.7-0.6-1.4-0.6-2 0-0.7 0-3.3-0.7-3.3 0-0.9-0.1-1.5-0.2-1.8q0.1 0.1 0.2 0.4c0-0.6-0.7-1.3-1.3-1.3 0-0.7 0-1.3-0.7-1.3 0-0.7 0-4-0.7-4 0-0.7 0-2-0.6-2 0-0.7 0-4-0.7-4 0-0.7 0-2.7-0.7-2.7 0-0.6 0-5.3-0.6-5.3 0-0.7 0-4-0.7-4 0-0.8-0.2-1.4-0.4-1.8q0.1 0.2 0.4 0.5c0-0.7-1.3-1.3-1.3-2l-0.7-1.3c0-2 0-5.4 0.7-6.7 0-0.7 0-1.3 0.6-1.3 0-0.9 0.2-1.5 0.3-1.8q-0.1 0.2-0.3 0.5c0-0.7 0.7-1.4 1.4-1.4 0-0.6 0-5.3-0.7-5.3 0-1.3-0.7-2-0.7-2.7 0-0.8-0.2-1.4-0.4-1.7q0.2 0.1 0.4 0.4c0-0.7-1.3-1.3-1.3-2 0-0.7-0.6-1.3-0.6-2 0 0-1.4-1.3-2-1.3 0-1.3-0.7-2-0.7-2.7 0.7 0 0.7-17.3 0-17.3 0-0.6 0-1.3-0.7-1.3v-2.7c0-0.6-0.6-1.3-1.3-1.3 0-0.6 0-1.3-0.7-1.3 0-0.7 0-1.3-0.6-1.3 0-1.4 0-3.4-0.7-4.7 0-1.3-0.7-2-0.7-2.7v-7.9c0-0.7 0.7-1.4 1.4-1.4l0.6-1.3 0.7-1.3c0-0.7 0-3.4-0.7-3.4 0-1.3 0-2.6-0.6-3.9 0-1.4 0-7.4 0.6-7.4v-2l1.4-0.6c0-0.7 0.6-1.4 0.6-2 0.7 0 1.4-0.7 2-1.3 0-0.7 0.7-2 1.4-2 0-3.4-0.7-10 0.6-13.3 0-0.7 0-1.4 0.7-1.4 0-0.6 0-1.3 0.6-1.3v-2c0-0.7 1.4-1.3 1.4-2 0-1.3 0.6-2 0.6-2.7 0-1.3 0.7-2 0.7-2.6 0-5.3-1.3-15.3 0.7-20 0-1.3 0.6-2 0-1.3l2-2 0.6-0.7c0.7 0 2.7-2 2.7-2.6 1.3 0 2-0.7 1.3 0l1.4-1.4c0.6-0.6 0.6-1.1 0.5-1.3 0.4-0.2-0.3-0.6 0.8-0.6l0.6-0.7 0.7-0.7c0.8-1.2 1.4-1.9 1.3-2q0.2-0.1 0.3-0.1c0.2-0.4 0.4-0.8 0.4-1.2 1.3 0 0-0.7 1.3-0.7 0.7-0.6 0.7-1.1 0.5-1.4 0.5-0.1-0.2-0.6 0.9-0.6l0.6-0.6c0.7-0.7 0.7-1.2 0.5-1.4 0.5-0.2-0.2-0.6 0.9-0.6l0.6-0.7 0.7-0.7 0.7-0.6c0-1.3 0.6-2 0.6-2.7 0-0.6 0.7-1.3 0.7-2v-6l0.7-1.3 0.6-1.3c0.7 0 1.3-0.7 2-0.7 0-1.3 0.7 0 0.7-1.3 1.3 0 2-0.7 1.3 0l0.7-0.7c0-0.6 0.6-1.3 0.6-2 0-0.6 0-2.6 0.7-2.6 0-0.7 0-1.4 0.7-1.4 0.6-0.6 0.6-1.1 0.5-1.4 0.4-0.1-0.3-0.6 0.8-0.6v-2c1.3 0 0-0.6 1.3-0.6l0.7-1.4c0-0.6 0-1.3 0.7-1.3 0-2 0-5.3 0.6-6.6 0-0.7 0-1.4 0.7-1.4 0-0.6 0-1.3 0.7-1.3 0-0.7 0-1.3 0.6-1.3v-2.7c0.7 0 1.4-0.6 1.4-1.3 0-1.3 1.3-2 0-1.3l1.3-0.7c0-0.7 0-1.3 0.6-1.3 0-0.7 0-2 0.7-2 0-1.4 0.7-2 0-1.4l0.7-0.6c1.1-0.8 2-1.5 2.2-1.6q0.1-0.1 0.2-0.2c0.5-0.4 1.2-0.9 1.6-0.9 0-0.7 1.3-2 1.3-2.7l1.3-0.6c0-1.3 1.4-2 0-1.3l1.4-0.7c0-0.7 0.6-1.3 1.3-2 0.4-0.9 0.9-1.5 0.7-1.6 0.4-0.2 0.9-0.6 1.3-1.1l0.6-1.3c0.4-0.8 1.1-1.6 1.1-1.8 0.6-0.4 1.2-0.9 1.6-0.9l0.7-0.6c0-1.4 1.3-2 0-1.4l1.3-0.6 0.7-0.7c0-0.6 0.6-1.3 0.6-2l0.7-1.3c1.3 0 0-0.7 1.3-0.7l0.7-0.6v-2.7c1.3 0 2-2 2-3.3zm-8.7 15.3c0.9-0.6 1.1-0.7 1.1-0.5-0.4 0.3-0.8 0.5-1.1 0.5zm-2.6 4c0.4-0.3 0.7-0.3 0.7-0.3q-0.3 0.3-0.7 0.3zm-8 9.9c0.8-0.5 1.1-0.6 1.1-0.4-0.4 0.2-0.8 0.4-1.1 0.4zm0 1.4c0.9-1.2 1.1-1.6 0.9-1.6-0.2 0.4-0.6 1-0.9 1.6zm-12.6 27.9c0-0.3 0.3-0.3 0.5-0.1q-0.2 0.1-0.5 0.1zm-12.7 25.9c0-0.3 0.4-0.3 0.5 0q-0.1 0-0.5 0zm-2 2.7c0-0.3 0.4-0.3 0.5-0.1q-0.1 0.1-0.5 0.1zm-2 4c0.3-0.5 0.4-0.7 0.3-0.8-0.2 0.3-0.3 0.5-0.3 0.8zm-1.3 0c0.8-0.5 1.2-0.8 1.3-0.7-0.3 0.2-0.8 0.4-1.3 0.7zm-2.7 3.3c0-0.3 0.4-0.3 0.6 0q-0.2 0-0.6 0zm49.9 196.2c-0.2 0.4-0.3 0.7-0.2 0.7q0.2-0.3 0.2-0.7zm24 0c-0.3-0.5-0.3-0.7-0.2-0.7 0.1 0.2 0.2 0.5 0.2 0.7zm28.6 0c-0.7 0.4-0.7 0.5-0.3 0.5 0.1-0.1 0.3-0.3 0.3-0.5zm189.5-9.3c-0.6 0.3-1 0.5-1.2 0.5 0.5-0.3 1-0.5 1.2-0.5zm2.7-4.6c-0.3 0.5-0.3 0.7-0.2 0.7 0.1-0.2 0.2-0.5 0.2-0.7zm20.6-6c-0.9 0.6-1 0.8-0.6 0.7 0.3-0.2 0.6-0.5 0.6-0.7zm2-1.4c-0.3 0-0.3 0.4-0.1 0.5q0.1-0.1 0.1-0.5zm27.3-52.5c-1.1 0.7-1.2 1-0.8 1 0.2-0.2 0.5-0.5 0.8-1zm-0.7-90.5c0.3 0.6 0.3 0.8 0.2 0.8-0.1-0.2-0.2-0.5-0.2-0.8zm-1.3 0c0.8 0.6 1.1 0.8 1.2 0.7-0.3-0.1-0.7-0.4-1.2-0.7zm-4-6.6c0 0.3 0.3 0.3 0.5 0.1q-0.1-0.1-0.5-0.1zm-20.6-60.5c0.2 0.4 0.2 0.6 0.2 0.7q-0.2-0.3-0.2-0.7zm-8-9.3c0.2 0.5 0.3 0.7 0.2 0.7-0.1-0.2-0.2-0.5-0.2-0.7zm-9.3-16c0.4 0.2 0.6 0.3 0.7 0.2q-0.4-0.2-0.7-0.2zm-3.4-6.7c0.6 0.9 0.8 1.1 0.8 1-0.2-0.3-0.5-0.7-0.8-1zm-19.2-25.9c1.3 1.3 1.6 1.3 1.5 0.9-0.5-0.5-1-0.9-1.5-0.9zm-2.7-2.7c0.8 0.6 1.1 0.7 1 0.5-0.4-0.2-0.7-0.5-1-0.5zm-16-13.3c0.4 0.3 0.7 0.3 0.8 0.3q-0.4-0.2-0.8-0.3zm-15.3-11.3c0.2 0.5 0.3 0.7 0.3 0.8q-0.3-0.4-0.3-0.8zm-8.6-4c1.2 0.8 1.6 1.1 1.6 1.1-0.7-0.4-1.3-0.8-1.6-1.1zm-73.2-3.3c9.3 1.7 6.8 2.6 3.4 2.2-2-0.5-3.4-1.1-3.4-2.2zm-20.6-4c5 1 6 1.5 5.1 1.5-1.9-0.3-3.6-0.7-5.1-1.5zm-25.9 7.3c1-0.5 1.4-0.6 1.5-0.4-0.5 0.2-1 0.4-1.5 0.4zm0 1.4c1.1-1.2 1.5-1.6 1.4-1.6-0.3 0.4-0.8 1-1.4 1.6zm-51.2 17.3c0.3 0 0.3-0.4 0-0.5q0 0.1 0 0.5zm84 19.7c-0.4 0-2 1.3-2 1.3l-0.4 0.8c0.4-0.8 0 0 0 0.8-0.8 0.8-3.7 3.3-3.7 4.1l-0.8 0.4c0 0.4-0.4 1.2-0.8 1.2v1.2c0 0.5-0.4 0.9-0.8 0.9v1.2c-0.8 0 0 0.4-0.8 0.4v1.2l-0.9 0.4c0 0.3-0.1 0.7-0.3 0.9 0 0.2-0.2 0.7-0.5 1.2l-0.4 0.4c-0.4 0-1.2 0.4-1.2 0.8h-1.2l-0.8-0.4c0-0.4-0.5-0.8-0.9-0.8 0-0.8-0.4 0-0.4-0.8-0.8 0-2-0.9-2.8-0.9l-0.8-0.8q-0.6 0-1.3 0c-0.8-0.4-2-0.4-2.4-0.8h-2.9c-0.8-0.4-2-0.4-2.8-0.4-0.4 0-1.2 0.4-2.1 0.4 0 0.4-1.6 0.4-2 0.4l-0.8 0.8c-0.3 0-0.6 0.2-0.9 0.4-0.1-0.1-0.6 0.2-1.1 0.5l-0.9 0.4-0.4 0.4c0.3-0.3 0.2-0.2 0.2 0-0.2 0-0.5 0.3-1 0.8l-0.4 0.4-0.4 0.4c0.4-0.4 0 0 0 0.8l-0.4 0.4c-0.4 0.4-0.8 1.3-1.2 1.3v1.2c-0.7 0-0.3 0.3-0.5 0.4 0.1 0.1 0 0.4-0.3 0.8-0.5 0-0.5 0.8-0.5 1.2-0.4 0-0.4 0.9-0.4 1.3-0.4 0-0.8 0.4-0.8 0.8q0.1-0.2 0.1-0.3c0 0.2-0.1 0.6-0.1 1.1-0.4 0-0.8 0.4-0.8 0.8v1.3c-0.4 0-0.4 0.8-0.4 1.2 0 0.4-0.4 0.8-0.4 1.2l-0.4 0.4-0.4 0.4c0.4-0.4 0 0-0.8 0l-0.4 0.8v1.3c0 0.4-0.5 0.8-0.5 1.6-0.4 0-0.4 0.4-0.4 0.8 0 0.4-1.2 2.5-1.6 2.5 0 0.8 0 4.5-0.4 4.5v2.4c-0.4 0-0.4 1.7-0.4 2.1-0.4 0-0.4 0.8-0.4 1.2-0.4 0-0.4 0.8-0.4 1.2-0.4 0-0.4 0.4-0.4 0.9-0.4 0.8-0.4 2.4-0.4 3.6-0.5 0-0.5 1.3-0.5 1.7l-0.4 0.4c-0.4 0-1.2-0.8-1.6-1.2-0.4 0-0.8-0.5-1.2-0.5l-0.4-0.4c0-0.8-0.4 0-0.4-0.8-0.4 0-0.8-0.4-0.8-0.8l-0.5-0.4-0.4-0.4h-1.6c0-0.4-0.4-0.8-0.8-0.8q0.2 0 0.3 0.1c-0.2-0.1-0.6-0.1-1.1-0.1 0-0.4-3.3-0.4-3.7-0.4-0.4 0-0.8 0.4-1.2 0.4-0.4 0-0.8 0.4-1.2 0.4-0.4 0-0.9 0.8-1.3 0.8q0.2-0.2 0.3-0.3c-0.2 0.1-0.6 0.3-1.1 0.3 0 0.5-0.4 0.7-0.6 0.9-0.2 0-0.6 0.1-1 0.3v1.2c-0.4 0-0.4 1.3-0.4 1.7-0.4 0-0.4 1.6-0.4 2 0 0.4-0.8 1.3-0.8 1.3v2.4c-0.4 0-0.4 5.7-0.4 6.5 0 0.5-0.5 0.9-0.5 1.3 0 0.4-0.4 0.8-0.8 0.8v1.6c-0.8 0 0 0.4-0.8 0.4 0 0.4-0.4 0.9-0.4 1.3l-0.4 0.4c-0.7 0-0.3 0.2-0.5 0.3 0.1 0.2 0.1 0.5-0.3 0.9l-0.4 0.4c0.4-0.4 0 0-0.8 0v1.2c0 0.4-0.4 0.9-0.9 0.9v1.6c-0.4 1.2-0.4 3.7-0.4 5.3 0 0.4-0.4 0.8-0.4 1.2 0 0.4-0.8 1.3-0.8 1.7l-0.8 0.4v1.2c0 0.4-1.2 1.6-1.2 2.1v2.4c-0.4 0.8-0.4 2.1-0.4 3.3-0.4 0-0.4 0.4-0.4 0.8 0-0.8 0-0.4-0.9 0l-0.4 0.8c-0.8 0-2 1.2-2.4 1.2h-1.2c0 0.5-0.4 0.9-0.8 0.9q0.1-0.1 0.2-0.2c-0.2 0.1-0.5 0.2-1.1 0.2-0.4 0-0.8 0.4-1.6 0.4-0.4 0-1.2 0.8-1.6 0.8l-0.4 0.8c0.4-0.8 0 0-0.9 0 0 0.4-0.4 0.8-0.4 1.2 0 0.4-0.4 0.9-0.8 0.9v4.9c0.4 0 0.4 1.6 0.4 2 0.4 0.8 0.4 2.1 0.4 2.9-0.4 0-0.4 1.2-0.4 1.6-0.4 0-0.4 0.4-0.4 0.8l-0.4 0.4c0.4-0.4 0 0-0.8 0-1.2 0.4-3.3 0.9-4.5 0.9 0-0.5-0.4-0.5-0.8-0.5 0-0.2-0.5-0.5-0.8-0.7-0.3-0.1-0.8-0.3-1.2-0.5-0.4-0.4-1.7-1.2-1.7-1.6-0.8 0-1.2-0.4-1.6-0.4h-4.9c0 0.4-0.4 0.8-0.8 0.8 0 0.8 0.8 1.6 0.8 2v7.4c-0.8 1.6-0.4 4.9-0.4 6.5 0 0.5-0.4 1.3-0.4 2.1-0.4 0-0.4 1.2-0.4 1.6 0 0.4-0.8 0.8-0.8 1.2v1.3c0 0.4-0.8 1.2-0.8 1.6v1.2c0 0.4-0.5 1.3-0.5 2.1 0 0.4-0.8 0.8-0.8 1.2q0.2-0.2 0.3-0.3c-0.1 0.2-0.3 0.6-0.3 1.1-0.4 0-0.4 1.7-0.4 2.1 0 0.4-0.4 0.8-0.4 1.2l-0.8 0.8-0.4 0.8v1.3c0 0.4-0.4 0.8-0.4 1.6-0.4 0.8-0.4 2-0.4 2.9 0 0.4-0.8 2-0.8 2.4v2.9c-0.4 0-0.4 0.4-0.4 0.8l-0.5 0.8-0.8 0.8c0.8-0.8 0 0 0 0.9l-0.8 0.4-0.4 0.4-0.4 0.4c0.4-0.4 0 0 0 0.8l-0.8 0.4c0 0.4-0.4 0.8-0.4 1.2-0.7 0-0.3 0.3-0.5 0.4 0.1 0.2 0.1 0.5-0.3 0.9l-1.7 1.6q0 0.6 0 1.2c-0.2 0.3-0.8 1.2-1.4 1.9-0.1 0.3-0.8 1.3-1 1.8-0.8 0 0 0.4-0.8 0.4 0 0.4-0.8 1.2-0.8 1.7q0.1-0.3 0.2-0.5c-0.1 0.3-0.2 0.7-0.2 1.3 0 0.4-0.5 0.8-0.5 1.2-0.4 0-0.8 0.8-0.8 1.2-0.4 0-0.8 0.4-0.8 0.8v2.5c0 0.4-0.4 1.2-0.4 2 0 0.5-0.4 0.9-0.4 1.7 0 0.4-0.8 0.8-0.8 1.2v2.5c0 0.4-0.4 0.8-0.4 1.6l-0.8 0.8-0.4 0.8v7c0.2 0 0.5 0.5 0.7 0.8 0 0.3 0.3 0.8 0.5 1.2 0.4 0 0.4 0.4 0.4 0.8l0.4 0.9c0.2 0 0.5 0.1 0.7 0.2 0 0.1 0.3 0.5 0.5 1l0.8 0.4h1.3c0.4 0 1.6 1.2 2 1.2q-0.4-0.2-0.5-0.4c0.3 0.2 0.8 0.4 1.3 0.4 0.8 0.4 1.6 0.4 2.5 0.4 0.4 0 2.8 0.4 2.8 0.9h15.5c0.4 0 0.8-0.5 1.6-0.5 0-0.4 1.7-0.4 2.1-0.4l0.8-0.4 0.8-0.8c0.4 0 0.8-0.4 1.2-0.4 0.4-0.4 0.8-0.8 1.2-0.8l0.5-0.8c0.4 0 0.8-0.9 0.8-1.3l0.4-0.4 0.8-0.4v-1.2c0.4 0 0.8-0.4 0.8-0.8v-2.9c0-0.4-0.4-0.8-0.4-1.6-0.8-2.1-0.4-6.2-0.4-8.2 0-0.4 0.4-0.8 0.4-1.2 0.4 0 1.2-0.4 1.2-0.8h2.5c0.4 0 0.8 0.4 1.2 0.4v1.2l0.8 0.4c-0.8-0.4 0 0 0 0.8l0.8 0.8c-0.8-0.8 0 0 0 0.9 0 0.4 0.8 1.2 0.8 1.6 0.5 0 0.9 0.4 0.9 0.8q-0.1-0.2-0.2-0.3c0.1 0.2 0.2 0.6 0.2 1.1 0 0.4 0.4 0.8 0.4 1.3 0.5 0 0.7 0.3 0.9 0.6 0 0.2 0.1 0.6 0.3 1 0.4 0 0.8 0.8 0.8 1.2l0.4 0.4c0.8 0 0 0.4 0.8 0.4v1.3c0.4 0 0.4 0.4 0.4 0.8l0.4 0.8c0.5 0 0.9 0.4 0.9 0.8v2.1c0.4 0 0.4 0.4 0.4 0.8 0 0.4 0.4 0.8 0.4 1.6 0 0.4 0.8 0.8 0.8 1.2q-0.2-0.1-0.3-0.2c0.1 0.2 0.3 0.5 0.3 1.1 0 0.4 0.4 0.8 0.4 1.2 0 0.4 0.4 0.8 0.4 1.2 0.4 0.4 0.8 1.6 0.8 2.5 0.4 0 0.4 0.4 0.4 0.8 0.6 0 0.8 0.4 0.9 0.6 0.1 0.2 0.2 0.6 0.4 1l0.8 0.4c0.4 0.4 1.2 0.8 1.2 1.3 0.4 0 1.6 0 1.6 0.4h2.5c0.8 0.4 1.6 0.4 2.4 0.4 0-0.4 0.8-0.4 1.2-0.4 0-0.4 1.7-0.4 2.1-0.4 0.2 0 0.5-0.2 0.6-0.4 0.1 0.1 0.5-0.2 1-0.5 0-0.6 0.3-0.2 0.4-0.5 0.1 0.1 0.4 0.1 0.8-0.3 0-0.4 0.4-0.4 0.8-0.4 0 0.3 0.5 0.8 0.9 1.2 0-0.1 0.8 0.6 1.6 0.9l0.8 0.4 0.4 0.7c0.1 0.1 0.4 0.5 0.8 0.9 0.3 0.2 0.7 0.6 0.9 1 0.1 0 0.7 0.4 1.2 0.6 0 0.4 0.4 0.9 0.4 1.3l0.8 0.4c0.3 0.2 0.5 0.5 0.7 0.7 0 0 0.4 0.2 0.9 0.5l0.4 0.4c-0.4-0.4 0 0 0 0 0.3 0.2 1 0.9 1.7 1.5 0.2 0 1.1 0.7 1.6 1 0 0.4 2 0.4 2.4 0.4 0-0.4 0.5-0.4 0.9-0.4 0.8-0.4 1.6-0.4 2.4-0.4 0.4 0 0.8 0.4 1.2 0.4 0-0.4 0.8-0.4 1.3-0.4 0-0.5 0.4-0.5 0.8-0.5l0.4-0.4c-0.4 0.4 0 0 0-0.8 0.4 0 0.8-0.8 0.8-1.2 0.8 0 0-0.4 0.8-0.4v-1.7c0.8 0 0-0.4 0.8-0.4 0-0.4 0.4-0.8 0.8-1.2-0.8 0.8-0.4 0.4 0-0.8 0-0.3 0.2-0.5 0.4-0.7-0.1 0 0.2-0.4 0.5-0.9 0.4 0 0.4-0.5 0.4-0.9 0-0.4 0.8-0.8 0.8-1.2q-0.2 0.2-0.3 0.3c0.1-0.2 0.3-0.6 0.3-1.1 0-0.3 0.1-0.5 0.3-0.7-0.1 0 0.2-0.4 0.5-0.9 0.4 0 0.8-0.5 0.8-0.9v-1.6c0.4 0 0.4-0.4 0.4-0.8 0.3 0 0.6-0.2 0.8-0.4-0.2 0.1 0.1-0.4 0.4-1.3h1.3l0.8-0.8c0.4 0 1.2-0.4 1.2-0.8h1.6c0-0.4 0.4-0.4 0.8-0.4 0-0.4 2.5-0.4 2.9-0.4 0 0.8 2.9 4.1 3.7 4.1l0.4 0.4c0 0.4 0 1.2 0 1.6 0.4 0.4 1.2 1.7 1.6 1.7v1.2l0.8 0.8c0 0.4 0.4 1.2 0.8 1.2v1.3l0.4 0.8 0.5 0.4c-0.5-0.4 0 0 0.8 0l0.4 0.8c0.4 0 1.2 0.8 1.6 1.2l0.8 0.4c-0.8-0.4 0 0 0.8 0 0 0.5 2.1 0.5 2.5 0.5 2 0.8 5.7 0.8 8.1 0.8 0-0.4 0.9-0.4 1.3-0.4-1.3 0-0.4 0 0-0.9l0.4-0.4c-0.4 0.4 0 0 0.8 0l0.4-0.8c-0.4 0.8 0 0 0-0.8 0.8 0 0-0.4 0.8-0.4 0-0.4 0.4-0.8 0.4-0.8 0-0.3 0.5-0.9 0.7-1.3 0.2-0.2 0.6-0.6 1-1.2l0.4-0.8c-0.4 0.8 0 0 0-0.8h1.2l0.4-0.4c-0.4 0.4 0 0 0-0.8l0.8-0.5 0.8-0.8v-1.2c0 1.2 0 0 0.8 0 0-0.4 0.4-0.8 0.9-1.2v-1.7l0.8-0.8c-0.8 0.8 0 0 0-0.8 0-0.4 0.4-0.8 0.4-1.2 0.4-0.8 0.4-2.1 0.4-3.3 0.4-0.8 0.4-2 0.4-2.9 0-0.4 0.8-1.2 0.8-1.6 0.8 0 0-0.4 0.8-0.4 0-0.8 0.8-0.8 0.8-1.2h1.3l0.8-0.4 0.4-0.9 0.8-0.4v-1.2c0.4 0 0.8-1.2 0.8-1.6v-4.9c0.4-0.9 0.4-1.7 0.4-2.5 0.4 0 0.4-1.2 0.4-1.6 0.4 0 0.4-0.8 0.4-1.3 0.4-0.8 0.4-2.8 0.4-4-0.4 0-0.4-0.9-0.4-1.3-0.4-0.4-0.8-1.2-1.2-1.2v-1.2c0-0.4-1.2-1.7-1.2-2.1v-2.4l0.4-0.8c0.4 0 0.8-0.9 0.8-1.3h1.2c0-0.4 1.3-0.4 1.7-0.4 0-0.4 0.4-0.4 0.8-0.4 0-0.4 0.4-0.4 0.8-0.4 0 0.4 0 1.2 0.4 1.2v1.7c1.2 2.4 0.4 7.3 0.4 10.2 0.4 0.8 0.4 2 0.4 3.3 0.4 0 0.4 4.9 0.4 5.7 0.4 1.2 0.4 3.7 0.4 5.3 0.5 1.2 0.5 3.3 0.5 4.9 0 0.4 0.4 0.8 0.4 1.2 0 0.5 0.4 0.9 0.4 1.7 0.8 0 0 0.4 0.8 0.4 0 0.4 0 1.6 0.4 1.6v1.2c1.2 2.9 0.8 7.4 0.8 10.7-0.4 0-0.4 0.8-0.4 1.2-0.4 0-0.4 2.1-0.4 2.5l0.8 0.4 0.4 0.8c0.4 0 0.8 0.8 0.8 1.2l0.4 0.4c0.9 0 0 0.4 0.9 0.4v1.3c0 0.2 0.1 0.5 0.3 0.6-0.1 0.1 0.2 0.4 0.5 1 0.8 0 0 0.4 0.8 0.4v1.2c0-1.2 0 0 0.8 0 0 0.4 0.8 1.3 0.8 1.7q-0.2-0.3-0.2-0.4c0.1 0.2 0.2 0.7 0.2 1.2l0.4 0.4 0.4 0.4c0.4 0 1.7 1.2 1.7 1.2h2.8c0 0.7 0.3 0.3 0.4 0.5 0.1-0.1 0.4 0 0.8 0.4 0 0.2 0.2 0.5 0.3 0.7 0.1 0 0.5 0.2 1 0.5 0 0.4 2.4 0.4 2.8 0.4 0.4 0 0.8-0.4 1.2-0.4 0-0.3 0.5-0.5 0.9-0.8 0.2 0 0.7-0.2 1.2-0.4 0-0.5 1.2-1.7 1.6-1.7l0.4-0.4 0.4-0.8c-0.4 0.8 0 0 0.8 0 0-0.4 0.9-1.2 1.3-1.6 0-0.5 0.8-1.3 0.8-1.7q-0.2 0.3-0.3 0.4c0.1-0.2 0.3-0.7 0.3-1.2 0.4 0 1.2-1.2 1.2-1.6v-1.3c0.4-0.4 0.8-0.8 0.8-1.2 0.4 0 1.2-1.6 1.2-2l0.9-0.9c-0.9 0.9 0 0 0-0.8 0-0.4 0.4-0.8 0.4-1.6 0-0.4 0.4-0.8 0.4-1.2 0.4-0.9 0.4-2.1 0.4-3.3 0.4-0.8 0.4-1.2 0.4-2.1 0.4-0.8 0.4-2.4 0.4-3.6 0.4-1.3 0.8-4.9 0.8-6.6l0.4-0.8 0.8-0.8c-0.8 0.8 0 0 0-0.8 0.4 0 0.8-0.4 1.7-0.4 0-0.7 0.2-0.3 0.3-0.5 0.2 0.1 0.5 0 0.9-0.4 0.8-0.4 1.6-0.4 2.4-0.4 0-0.4 0.4-0.4 0.8-0.4 0 0.4 2.9 2.1 3.3 2.1h1.2c0.4 0 0.9 0.4 1.7 0.4 0-0.4 0.4-0.4 0.8-0.4-0.8 0-0.4 0 0-0.8l0.4-0.9c0.8 0 0-0.4 0.8-0.4l0.4-0.8c-0.4 0.8 0 0 0-0.8 0-0.4 0.4-0.8 0.4-1.2 0-0.4 0.4-0.9 0.4-1.7 0-0.4 0.8-0.8 0.8-1.2q-0.1 0.2-0.2 0.3c0.1-0.2 0.2-0.6 0.2-1.1 0.5 0 0.9-0.8 0.9-1.2l0.8-0.5c-0.8 0.5 0 0 0-0.8 0.2 0 0.5-0.1 0.6-0.3 0.1 0.1 0.4-0.2 1-0.5l0.4-0.4c-0.4 0.4 0 0 0-0.8 0.4 0 0.4-0.4 0.4-0.8 0 0.5 0 0.5 0.2 0.3 0-0.1 0.2-0.5 0.6-1.2 0-0.4 0.9-0.8 0.9-1.2q-0.2 0.2-0.3 0.3c0.1-0.2 0.3-0.6 0.3-1.1l0.8-0.8v-1.2c0.4 0 0.4-4.1 0.4-5 0-0.4 0.4-1.2 0.4-2 0.4 0 1.2-1.2 1.2-1.6q-0.2 0.3-0.2 0.5c0.1-0.3 0.2-0.8 0.2-1.4l0.4-0.8c0.4 0 0.8-0.8 0.8-1.2l0.4-0.4h1.3c0-0.4 1.2-0.4 1.6-0.4 0.4 0.4 1.6 2 2.4 2 0 0.4 0.9 1.3 0.9 1.7l0.8 0.4v1.2c0.6 0 0.2 0.3 0.5 0.4-0.1 0.1-0.1 0.4 0.3 0.8 0 0.4 0.4 0.8 0.4 1.7 0.4 0 0.4 4.9 0.4 5.7 0 0.2 0.3 0.7 0.6 1.1-0.1 0.1 0.4 0.8 0.6 1.3 0 0.5 0.4 1.3 0.4 2.1 0.4 0.4 1.7 2.9 2.1 2.9v1.6c0 0.4 0.4 0.8 0.4 1.6 0.4 0 0.4 0.8 0.4 1.3 0.4 0.8 0.4 1.6 0.4 2.4 0 0.4 0.4 0.8 0.4 1.6 0.4 0.9 0.4 2.1 0.4 2.9 0 0.4 0.4 0.8 0.4 1.2 0.4 0.9 0.4 2.5 0.8 3.3v1.6c0.4 0.9 0.4 2.5 0.4 3.7 0.4 0 0.4 1.7 0.4 2.1 0.5 0 0.5 0.8 0.5 1.2 0 0.4 0.4 0.8 0.4 1.6 0.4 0 0.4 0.8 0.4 1.3 0 0.4 0.4 0.8 0.4 1.2 0 0.4 0.4 0.8 0.4 1.2 0 0.4 0.8 0.8 0.8 1.2v1.3c0 0.4 0.4 0.8 0.4 1.2 0.4 0 0.8 0.8 0.8 1.2l0.8 0.8c-0.8-0.8 0 0 0 0.9l0.9 0.4c1.2 0 2.8 0 4 0 0-0.4 0.4-0.9 0.8-0.9q-0.1 0.1-0.2 0.2c0.2-0.1 0.5-0.2 1.1-0.2l0.4-0.8c-0.4 0.8 0 0 0.8 0l0.4-0.8c0.4-0.4 1.2-1.2 1.6-1.6l0.4-0.8c0-0.5 0.4-1.7 0.4-2.1 0-0.4 0.9-1.6 1.3-1.6 0-0.8 0.4-2.5 0.4-3.3 0.2-0.5 0.5-1.2 0.7-1.7 0-0.1 0.2-1.1 0.5-2.4 0-0.4 0.4-0.8 0.4-1.2l0.4-0.8 0.8-0.9 0.4-0.8v-1.2l0.4-0.4c0.5 0 0.9-0.4 1.3-0.4 0-0.8 0.4 0 0.4-0.8 0.4 0 0.8-0.4 1.2-0.4l0.8-0.9c0.4 0 0.8-0.4 1.2-0.4 0-0.4 0.4-0.8 0.4-1.2l0.5-0.4 0.4-0.4c0.6 0 0.2-0.3 0.5-0.4-0.1-0.1-0.1-0.4 0.3-0.8 0.4 0 0.4-0.4 0.4-0.9l0.4-0.4 0.8-0.4c0-0.4 0.4-0.8 0.4-1.2h1.2l0.4-0.4 0.5-0.8 0.4-0.4c-0.4 0.4 0 0 0.8 0l0.4-0.4 0.4-0.5c-0.4 0.5 0 0 0-0.8 0.4 0 0.4-0.4 0.4-0.8l0.8-0.4c0-0.4 0.4-0.8 0.8-1.2v-2.1l0.4-0.8c0.4 0 0.9-0.4 0.9-0.8v-2.9c0-0.4 0.4-1.2 0.8-1.2v-8.6l-0.4-0.4-0.4-0.4c0.4 0.4 0 0-0.9 0 0-0.4-0.4-0.8-0.4-1.2 0.4 0 1.3-0.4 2.1-0.4 0-0.5 0.4-0.5 0.8-0.5 0.4 0 0.8-0.4 0.8-0.8 0.8 0 1.6 0 2.4-0.4h5.8c0-0.8 0.4 0 0.4-0.8 0.4 0 1.2-0.8 1.2-1.2l0.4-0.4c0.2 0 0.5-0.2 0.7-0.4 0 0.1 0.4-0.2 0.9-0.5 0-0.4 0.4-0.4 0.8-0.4 0-0.4 0.9-1.6 0.9-2 0.4-0.4 0.8-0.8 0.8-1.2 0.4 0 0.8-0.4 0.8-0.9q-0.1 0.2-0.1 0.3c0-0.2 0.1-0.5 0.1-1.1 0.4 0 0.4-2 0.4-2.4 0.4-0.8 0.4-2.1 0.4-2.9 0.4 0 0.4-1.2 0.4-1.6 0.4 0 0.4-1.3 0.4-1.7 0.4 0 2.1-2.8 2.1-3.2q-0.4 0.7-0.6 1c0.3-0.5 0.6-1.3 0.6-1.9 0-0.4 0.4-0.8 0.4-1.2 0.4 0 1.2-1.2 1.2-1.6q-0.2 0.3-0.3 0.5c0.1-0.3 0.3-0.8 0.3-1.3 0-0.3 0.1-0.5 0.4-0.7-0.2 0 0.1-0.4 0.4-1 0.4-0.8 0.4-1.6 0.4-2.4 0.8-2.1 0.8-6.2 0.8-8.6-0.4 0-0.4-0.4-0.4-0.8l-0.4-0.4c-0.8 0 0-0.5-0.8-0.5v-1.2c0-0.4-1.2-1.6-1.2-2 0-0.4-0.4-0.8-0.4-1.2 0-1.1 0-2.3-0.2-3.4 0-0.3-0.2-1.5-0.6-2.8 0-0.4-1.3-1.6-1.3-2v-1.3l-0.4-0.8c-0.4 0-1.2-1.2-1.2-1.6v-1.2l-0.4-0.9c-0.3 0-0.6-0.5-1-1.1-0.1-0.2-0.4-1-0.6-1.7-0.4-0.4-0.9-0.8-1.3-0.8l-0.4-0.4c0.4 0.4 0 0 0-0.9l-0.4-0.4c-4.1 0-11 0.8-14.7-0.8h-3.2c0 0-3.3-0.4-3.3-0.8h-2.8c-0.9-0.4-2.5-0.4-3.7-0.4 0-0.8-0.4 0-0.4-0.8-0.4 0-0.8-0.4-1.2-0.4 0-0.5-0.9-0.9-1.3-0.9l-0.4-0.4-0.4-0.8c0.4 0.8 0 0 0-0.8l-0.4-0.8c-0.4 0-0.8-0.8-0.8-1.3l-0.8-0.8c0-0.8 0-1.6-0.8-2 0-0.8-0.8-1.7-0.8-2.1 0-1.6-0.9-3.6-0.9-5.3l-1.2-1.2c0-0.4-0.4-0.8-0.4-1.2l-0.4-0.4c-0.4-0.5-0.8-0.9-1.2-0.9l-0.4-0.4c-0.4-0.4-1.3-1.2-1.7-1.2 0-0.2-0.3-0.6-0.5-1q0 0-0.2-0.1c0-0.1-0.4-0.7-0.9-1.4-0.3-0.2-0.5-0.5-0.7-0.7 0 0.1-0.4-0.2-0.9-0.5v-1.2c-0.8 0 0-0.4-0.8-0.4 0-0.3-0.2-0.5-0.4-0.7 0.1 0-0.2-0.4-0.5-1-0.4 0-1.6-1.2-1.6-1.6-0.4 0-0.8-0.8-0.8-1.2-0.7 0-0.3-0.3-0.5-0.4 0.1-0.1 0.1-0.4-0.3-0.8l-0.8-0.5c0-0.4-0.4-0.8-0.9-0.8 0-0.4-0.4-0.8-0.4-1.2-0.6 0-0.2-0.3-0.5-0.4 0.1-0.1 0.1-0.4-0.3-0.8 0-0.4-0.4-0.8-0.8-0.8v-1.7c-0.4 0-0.4-0.8-0.4-1.2l-0.8-0.8c0.8 0.8 0 0 0-0.8-0.4 0-0.4-0.9-0.4-1.3l-0.8-0.4c0.8 0.4 0 0-0.9 0 0-0.4-0.8-0.4-1.2-0.4l-0.4-0.8c-0.4 0-1.6-0.8-2-1.2 0-0.4-0.4-0.8-0.4-1.3l-0.8-0.4c0.8 0.4 0 0 0-0.8 0-0.4-0.5-1.2-0.5-2l-0.8-0.8v-1.3c-0.4 0-0.4-1.2-0.4-1.6-0.4 0-0.4-0.8-0.4-1.2l-0.4-0.4c0.4 0.4 0 0-0.8 0l-0.8-0.5c0-0.6-0.3-0.2-0.4-0.5-0.1 0.1-0.4 0.1-0.8-0.3 0-0.4-1.3-0.4-1.7-0.4l-1.2 1.2-0.8 0.5c0.8-0.5 0 0-0.8 0 0 0.4-0.4 0.8-0.8 0.8 0 0.4-0.5 0.8-0.9 0.8 0 0.4-0.4 0.8-0.8 1.2 0.8-0.8 0.4-0.4 0 0.8-0.4 0.4-0.8 0.9-0.8 1.3-0.2 0-0.5 0.4-0.8 0.8 0 0.2-0.2 0.8-0.4 1.2 0 0.4-0.4 0.8-0.4 1.2 0 0.4-0.8 0.9-0.8 1.3v1.2c-0.9 1.6-0.4 5.7-0.4 7.8-0.5 0-0.5 2.8-0.5 3.6 0.5 0 0.5 2.1 0.5 2.5l0.4 0.8c0.4 0 0.8 0.4 0.8 0.8q-0.1-0.1-0.2-0.2c0.1 0.1 0.2 0.5 0.2 1 0.4 1.3 0.4 3.7 0.4 5.4-0.4 0-0.4 0.4-0.4 0.8l-0.4 0.4-0.8 0.8c0.8-0.8 0 0 0 0.8l-0.5 0.4c0.5-0.4 0 0-0.8 0 0 0.4-0.4 0.9-0.4 1.3l-0.8 0.4-0.8 0.8c0.4-0.5 0.4-0.4 0.3-0.1-0.2 0-0.7 0.5-1.1 0.9 0 0.4-0.4 0.8-0.4 1.2l-0.4 0.4c-0.4 0-1.3 0-1.7 0 0 0.5-2 0.5-2.4 0.5 0-0.5-0.4-0.5-0.8-0.5 0-0.4-0.4-0.8-0.4-1.6-0.5 0-0.5-0.4-0.5-0.8 0-0.4-0.4-0.8-0.8-0.8 0-1.7-0.4-4.1-0.4-5.8-0.4 0-0.4-3.6-0.4-4.5-0.4 0-0.4-0.4-0.4-0.8 0-0.4-0.4-0.8-0.8-0.8v-1.6c-0.4 0-0.8-0.8-0.8-1.3l-0.4-0.4-0.4-0.4c-0.4 0-0.9-0.4-1.3-0.4l-0.4-0.4-0.8-0.8c0.8 0.8 0 0-0.8 0l-0.8-0.8c-0.8 0-1.2-0.8-1.6-0.8 0-0.3-0.3-0.7-0.6-1q0 0-0.1-0.1c-0.1-0.2-0.5-0.7-1-1.4l-0.4-0.8c-0.4 0-1.2-1.2-1.2-1.6v-1.3c-0.7 0-0.3-0.2-0.5-0.3 0.1-0.2 0.1-0.5-0.3-0.9-0.4 0-0.4-0.4-0.4-0.8-0.4 0-0.8-0.8-0.8-1.2-0.5 0-0.9-0.5-0.9-0.9-0.4 0-0.8-0.4-0.8-0.8-0.4 0-0.8-0.4-0.8-0.8l-0.8-0.4c0-0.4-0.8-1.2-0.8-1.6v-1.3c-0.4 0-0.4-2.8-0.4-3.2 0.4 0 0.4-0.9 0.4-1.3 0-0.4 0.8-0.8 0.8-1.2 0-0.4 0-1.6 0.4-1.6 0-0.4 0.4-1.3 0.4-1.3v-5.3c0.4 0 0.4-2.8 0.4-3.3 0-0.4-1.2-1.6-1.2-2q0.3 0.3 0.4 0.5c-0.2-0.3-0.4-0.8-0.4-1.3l-0.4-0.8c-0.4 0-0.8-0.4-1.2-0.9v-1.2l-0.9-0.8c0-0.4-0.8-1.2-0.8-1.6q0.2 0.2 0.3 0.4c-0.1-0.3-0.3-0.7-0.3-1.3-0.8 0-0.8-2-1.6-2v-1.2c-0.4-0.4-0.8-0.8-1.2-0.8l-0.4-0.5c0.2 0.3 0.2 0.2 0.1 0-0.1 0.1-0.5-0.3-0.9-0.8-0.5-0.4-1.3-1.2-1.3-1.6h-1.2c0-0.4-0.4-0.4-0.8-0.4 0-0.4-1.6-0.4-2-0.4-0.9-0.4-1.7-0.4-2.5-0.4-0.4-0.4-2.4-0.4-3.7-0.4-0.2 0.2-0.6 0.5-0.9 0.7-0.1 0-0.6 0.2-1.1 0.5 0 0.4-0.4 0.4-0.8 0.4l-0.4 0.4c0 0.4-0.8 1.2-1.2 1.2l-0.5 0.4-0.4 0.4c0 0.7-0.2 0.3-0.3 0.6-0.2-0.1-0.5-0.1-0.9 0.3q0.4 0 0.6-0.1c-0.1 0.1-0.3 0.4-0.6 0.9l-0.4 0.4c-0.2 0-0.6 0.1-0.9 0.3-0.1 0-0.6 0.3-1.1 0.5l-0.9 0.4c0 0.4-0.4 0.8-0.8 0.8h-2l-0.4-0.4c0.4 0.4 0 0 0-0.8l-0.8-0.4c-0.4-0.4-1.3-1.2-1.3-1.6l-0.8-0.4c0-0.5-0.4-1.3-0.8-1.3v-3.2c-0.4 0-0.4-2.9-0.4-3.3-0.4 0-0.4-2.9-0.4-3.3 0-0.4-0.4-0.8-0.4-1.2 0-0.4-0.4-1.2-0.4-2.1l-0.8-0.8c0-0.4-0.4-1.2-0.8-1.2v-1.2l-0.9-0.4h-2.4c-0.4 0-0.8-0.4-1.6-0.4 0-0.5-0.4-0.9-0.9-0.9h-1.2c0-0.4-0.4-0.4-0.8-0.4 0-0.4-1.6-0.4-2-0.4l-0.4 0.4c0.2-0.2 0.2-0.2 0.1 0.1-0.1-0.1-0.5 0.3-1 0.7zm-10.5 14.9c0-0.1-0.2 0-0.5 0.3 0.2 0 0.4-0.2 0.5-0.3zm-24.2-0.6c0.1 0 0 0.2-0.3 0.5 0-0.2 0.1-0.4 0.3-0.5zm-2.2 1.3c0 0.1 0 0.3-0.2 0.8 0-0.3 0.1-0.6 0.2-0.8zm-3.9 5.7c-0.1-0.2-0.3-0.2-0.3 0q0.2 0 0.3 0zm-28.7 32c0.2 0 0.2 0.1-0.2 0.3 0-0.1 0.1-0.2 0.2-0.3zm-6.4 21.6c-0.1-0.2-0.3-0.2-0.3 0q0.2 0 0.3 0zm-26.4 42.6c0.2 0 0.2-0.1-0.4-0.5 0 0.2 0.2 0.3 0.4 0.5zm-22.1 50.6c-0.1-0.2-0.3-0.2-0.3 0.1q0.2 0 0.3-0.1zm-3.4 5.6c0.1-0.2-0.2 0-1 1 0.2 0 0.6-0.4 1-1zm-7.2 28.8c0-0.2 0.1-0.2 0.5 0.4-0.2 0-0.3-0.2-0.5-0.4zm2.1 3.2c0-0.1 0.1-0.1 0.4 0.1q-0.2 0-0.4-0.1zm46.2-9.5c0-0.2 0.1-0.2 0.3 0.2-0.1 0-0.2-0.1-0.3-0.2zm8.6 19.6c0-0.2 0.1-0.2 0.3 0.2-0.2 0-0.3-0.1-0.3-0.2zm12.7 2.3q0-0.1 0.2-0.5 0 0.3-0.2 0.5zm1.4-1c-0.2-0.1-0.2-0.3 0-0.3q0 0.3 0 0.3zm3.3 1.4q-0.1-0.1-0.2-0.2 0.1 0.1 0.2 0.2zm2 1.1q0 0 0 0 0 0 0 0.1zm-0.1 0c0 0 0 0.3 0.2 0.9 0-0.3-0.1-0.7-0.2-0.9zm1.9 1.9c-0.1 0 0 0.2 0.3 0.6 0-0.1-0.1-0.4-0.3-0.6zm3 3.1q0 0 0.2 0.4 0-0.2-0.2-0.4zm3 2.3c-0.1-0.1 0 0.2 0.8 1 0-0.2-0.3-0.6-0.8-1zm14.7-7.5q0 0.1 0.4-0.1-0.2 0-0.4 0.1zm2-4.5q0.1 0.1 0.4-0.1-0.2 0-0.4 0.1zm2.5-4.6q0.1-0.1 0.4-0.4-0.2 0.2-0.4 0.4zm37 7.7q-0.1 0.1-0.2 0.1c-0.1 0.2-0.1 0.2 0 0-0.1 0-0.1-0.4 0.3-1.3 0 0.6-0.2 1-0.3 1.3q0.1-0.2 0.3-0.5 0 0.2-0.1 0.4zm27.4 6q0 0 0.4 0.2-0.2 0-0.4-0.2zm8.5 7.7c-0.1 0.1-0.1 0.3 0.1 0.3q0-0.3-0.1-0.3zm1.2 1c-0.1 0-0.1 0.2 0.1 0.5q0-0.2-0.1-0.5zm5.8-0.3c-0.2 0.1-0.2 0 0.4-0.4 0 0.1-0.2 0.3-0.4 0.4zm16.7-36.9c-0.2-0.1-0.2-0.3 0-0.3q0 0.2 0 0.3zm16.6-10.5q0-0.1 0.1-0.5 0 0.3-0.1 0.5zm2-2.1q0 0.1 0.6-0.4c-0.3 0.1-0.5 0.3-0.6 0.4zm13.3-11.9c0.1-0.2 0.3-0.2 0.3 0q-0.2 0-0.3 0zm1.7 9.3c0.1 0 0.2 0.1 0.7 0.5-0.2 0-0.4-0.2-0.7-0.5zm25.1 29.5c0 0.1 0.2-0.1 0.5-0.7-0.2 0.1-0.4 0.4-0.5 0.7zm9.5-13c0.1 0.2 0.3 0.2 0.3 0q-0.2 0-0.3 0zm23-32.7q0-0.1 0.2-0.4 0 0.2-0.2 0.4zm9.9-22.8q0.1 0.1 0.5-0.1-0.3 0-0.5 0.1zm-1.8-21.5c0 0.3-0.2-0.2-0.6-2q0.4 1 0.6 2zm-4.8-11.7c0 0.2-0.1 0-0.7-0.9 0.2 0.2 0.4 0.5 0.7 0.9zm-44.4-28.9c0.1 0 0-0.1-0.3-0.6 0 0.1 0.1 0.4 0.3 0.6zm-0.2-0.1c0 0.2-0.2 0-0.9-0.5 0.3 0.2 0.7 0.4 0.9 0.5zm-1.6-2.1q0-0.1-0.2-0.5 0.1 0.3 0.2 0.5zm-2.2-2.8q0 0.1-0.4-0.1 0.2 0 0.4 0.1zm-3.4-4.2c-0.1 0.2-0.3 0.2-0.3 0q0.3 0 0.3 0zm-2.8-3.7c-0.1 0.2-0.3 0.2-0.3 0q0.2 0 0.3 0zm-13.7-20.9c0.1-0.1 0.1-0.4-0.1-0.4q0 0.3 0.1 0.4zm-9.4 6.6c0-0.2-0.1-0.2-0.5 0.4 0.2 0 0.4-0.2 0.5-0.4zm-5.1 32.2c0.1 0 0.1 0.2-0.3 0.9 0-0.3 0.2-0.7 0.3-0.9zm-18.3-20.5c0.1 0 0-0.2-0.3-0.7 0 0.2 0.1 0.4 0.3 0.7zm-0.2-0.1c0 0.1-0.2 0-0.9-0.6 0.3 0.2 0.7 0.5 0.9 0.6zm-3.1-5.4c-0.1 0.1-0.3 0.1-0.3-0.1q0.3 0 0.3 0.1zm-11.2-39.4c0.1 0 0.1-0.3-0.1-0.8 0 0.4 0.1 0.6 0.1 0.8zm-13.2-3.3c0.1 0 0 0.2-0.3 0.5 0-0.2 0.1-0.3 0.3-0.5zm-4.8 3.9c0.2 0.1 0.2 0.3 0 0.3q0-0.3 0-0.3zm-2.1 1.9c0 0-0.1 0.1-0.4 0.4 0-0.1 0.2-0.3 0.4-0.4zm-22.3-21.6c0.1 0 0.1 0.3-0.1 0.8 0-0.4 0.1-0.6 0.1-0.8zm-62.2 218.6c-0.2-0.2-0.4-0.4-0.6-0.6 0 0 0.2 0.2 0.6 0.6zm2.1 1.3c-0.1-0.4-0.1-0.3-0.1 0q0.1 0 0.1 0zm63.8-1.5q0 0 0 0 0 0 0 0 0 0 0 0z"/>
	<path id="Object 8" class="s1" d="m211.2 791.3c79.8-17 108.2-113.1 166.5-115.3 33.6-1.2 67.2 48.5 100.9 83-14.5 14.6-29 31.2-44.6 47.4h-222.8c0-4.5 0-11.3 0-15.1zm159.3 72.2c88.4-18.8 119.9-125.1 184.3-127.5 56.9-2.2 114 127.5 171 127.5q0 8.3 0 16.7-177.7 0-355.3 0c0-5 0-12.5 0-16.7z"/>
	<path id="Object 9" fill-rule="evenodd" class="s1" d="m1086.2 620c5-3.8 9.4-6.2 14.9-7.7 5.6-1.5 9.6 0 13.9 3.6 4.4 3.6 10.8 10.8 13.1 13.7 2.3 2.8 5.2 7.4 6.7 9.8 1.5 2.5 0.5 3.8 0.4 5.9-0.2 2.1 0.5 6.7 0.5 9.7 0 3 0.2 2.1 2.1 2.1 1.9 0 1 1.9 1.2 3.2 0.1 1.4 1.5 1 2.6 0.4 1.1-0.6 15.8-1.5 17.3-1.9 1.5-0.3 2.5-0.4 2.5-3.8 0-3.4 2.4-5.7 4.3-7.2 1.9-1.5 2.7-1.7 4-11.4 1.4-9.6 4.4-16.5 5.7-20.1 1.4-3.6 1-5.9-0.9-9.7-1.9-3.8-15.8-36.3-17.5-40.1-1.7-3.8-2.5-4.6-4.2-5.3-1.7-0.8-1.9-3.8-4.7-3.7-2.9 0.2-2.9 0.2-6.5-2.4-3.6-2.7-3.6-6.3-3.6-8.8 0-2.4 0.8-7.3 0.9-10.4 0.2-3 1-2.8-1.5-3.8-2.5-0.9-2.3-2.7-2.3-4.6 0-1.9 0.8-4.2 4.4-4.2 3.4 0 2.7-0.4 1.1-2-0.7-0.7-0.4-3.8-1.9-3.8-1.3 0-2.2-1.3-2.4-2.3-0.5-2.2 0-5.4 1.3-6.7 1.3-1.3 0.6-3.8-1.7-7.6-2.3-3.8-3-8.3-3-10.8 0-2.5 0.5-4.2-1.4-8.2-1.9-4-17.5-38.7-19.2-43.3-1.7-4.5-1.1-6.6 1.4-7.8 2.4-1.1 4 1 5.3 3.4 1.3 2.5 6 12 9.7 19.2 3.6 7.2 15 30 19 36.7 4 6.7 6.2 12.1 7 15.4 0.8 3.2 1.2 8.5 2.9 10.2 1.7 1.7 2.6 2.5 3.8 8.4 1.1 5.9 2.6 16.2 3.6 20.3 0.9 4.2 1.5 3.8 5.1 6.7 3.6 2.9 7.2 7.6 8.5 10.4 1.4 2.9 6.3 6.9 10.5 12.9 4.2 6.1 8.2 16.2 10.8 22.3 2.7 6.1 3.4 8.1 3.6 13.3 0.2 5.1 0.6 3.8 1 14.2 0.4 10.5-1.5 28.1-1.5 32.1 0 4 0.7 5.4 3.8 7.1 3 1.7 15 9.9 17.6 12.5 2.7 2.7 4.4 3.3 12.9 3.3 8.6 0 12.4 2.6 17.8 5.8 5.5 3.1 6.6 7.3 6.4 9.5-0.2 2.3-3.8 8-8 12.4-4.2 4.4-6.5 4-10.6 4-4.2 0-3.6 0-6.3 6-2.7 6.1-10.3 14.7-12.9 17.2-2.7 2.4-2.9 2.1-3.1 5.1-0.2 3 2.9 16.9 4.2 25.6 1.3 8.8 5.9 19.2 8 24 2.1 4.7 3.4 6.6 8.4 10 4.9 3.4 4.7 5 6.6 7.6 1.9 2.7-1.9 5.5-4.6 5.5-2.6 0-0.1 3.3 1.6 6.3 1.7 3 1.3 35.9 2.6 45.8 1.3 9.9 5.2 31.3 5.5 35 0.2 3.6 1.4 7-2 10-3.5 3.1 0 11.6 0.5 15.8 0.6 4.2 3.4 41.9 6.7 42.3 3.2 0.4 4.5-29.9 6.4-26 1.9 4 1.6 50.5 2.3 60.4 0.8 9.9 3.2 7.4 5.5 10.8 2.3 3.4 3.4 3.3 3.4 6.3 0 3 0.4 9.7 0 12.9-0.3 3.2 2.1 11.8-0.9 12.9-3 1.2-5 1.5-5.5 3.1l-0.2 0.6h56v29q-129.2 0-258.3 0v-29h31.5c0.2-1.1-0.2-2.5-0.4-4.6-0.4-3.8-0.4-4.8 0.6-5 0.9-0.2 0-1.5 0-4.7 0-3.3 2.6-1.4 6.8-1.4 4.2 0 9.9-2.6 12.6-5.3 2.6-2.6-0.4-4.5-1.2-8.1-0.7-3.7-3.2-12.8-4.3-18.9-1.2-6.1-0.4-57.4-0.4-62 0-4.5-1-6.4-3.1-8.3-2.1-1.9-0.3-6.5 1.9-8.4 2.3-1.9 3.5-2.1 3.5-8 0-5.9 0-12.4 2.4-23 2.5-10.6 9.3-25.1 14.1-32.1 4.7-7.1 9.5-42.5 12.9-46.5 3.4-4-1.7-4-5.9-1.7-4.2 2.2-8.9 3.2-12.2 3.6-3.2 0.3-8.5 0.5-12.1-2.1-3.6-2.7 3.8-3.6 6.8-4 3.1-0.4 10.3-5 12.6-6.7 2.3-1.7 4.5-0.9 4.5-6 0-5.2-1.7-6.5-5.5-11.1-3.8-4.5-5.3-6.8-5.5-8.5-0.2-1.7-0.8-3.1-3.2-3.1-2.5 0-5.5-0.3-9.3-1.9-3.8-1.5-5-4.1-6.3-7.2-1.3-3-4-1.7-4.2 0.6-0.2 2.3-1.5 4.2-2.1 6.5-0.5 2.3-4.7 12.9-6.6 17.1-1.9 4.1-3.4 6.4-7.4 15-4 8.5-9.2 9.7-14.7 10.6-5.5 1-11.7-3.2-15.3-5.3-3.7-2.1-14.5-10.3-16.8-11.8-2.3-1.5-2.8-2.3-5.3-2.3-2.5 0-5.3-1.5-5.9-2.5-0.6-0.9-2.1-2.4-3.2-2.2-1.1 0.2-3.1-0.6-4.2-1.5-1.1-1-2.1-3.1-2.1-4.4 0-1.3-0.7-2.3-1.9-2.3-1.1 0-1.5-1.3-0.7-3 0.7-1.8 0.1-2.7-1-3.4-1.1-0.8-1.5-3.5-0.2-4.8 1.4-1.3-1.9-3.4-4.7-5.1-2.9-1.8-3.1-4.4-2.3-6.9 0.7-2.4 1.5-3.4 0.4-3.4-1.2 0-2.9-2.3-4.6-4.4-1.7-2.1-5.7-5.7-8-6.8-2.2-1.2-3-2.8-3.4-5.5-0.4-2.7-7.4-6.1-10.8-8.9-3.5-2.9-12.8-10.5-15.8-13.3-3-2.9-3.4-5.4-1.9-7.5 1.5-2.1 4.2-0.1 7.8 2.7 3.6 2.9 36.5 26.8 42.2 31.5 5.7 4.8 10.6 9.9 12.3 12.8 1.7 2.8 3.8 4.3 6.5 2.4 2.6-1.9 5.3-2.3 7.6-3.4 2.3-1.1 2.1 3.8 2.1 6.6 0 2.9 0.4 1.4 1.5 3.7 1.1 2.3 1.5 6.1 2.5 8.3 0.9 2.3 2.6 1.8 4.3 2 1.7 0.1 4 2.6 9 4 4.9 1.3 5.3-1.4 5.5-5.4 0.2-4 1.5-6.8 2.3-8.7 0.7-1.9 1.7-10.1 3-17.3 1.3-7.2 2.5-13.7 5.1-20.7 2.7-7 6.9-8.2 8.8-10.5 1.9-2.3 2.6-1.3 2.8-2.6 0.2-1.4 1-3.3 3.8-5.2 2.9-1.9 6.3-7 8.6-9.6 2.2-2.7 1.3-3.3 2.2-8.2 1-5 1.6-5.7 3.1-7.1 1.5-1.3 0.4-2.2 0.4-2.2 0 0-1.2-0.6-1-1.7 0.2-1.2-1.3-1.2-3.8-1.4-2.4-0.2-3.4-1.1-5.3-2.6-1.9-1.5-2.7-3.1-2.7-4.4 0-1.3-0.9-2.3-2.8-2.1-1.9 0.2-2.9-0.8-4.9-2.5-2.1-1.7-0.4-1.9 1.9-0.9 2.2 0.9 1.9-1.4 1.9-1.4 0 0-0.4-1.3-0.4-3.4 0-2.1-0.6-3-1.7-3.6-1.2-0.5-2.7-3.6-4.4-6.4-1.7-2.9-3.6-3.6-6.3-8-2.6-4.4-0.7-9.3 1.3-12.6 0 0 3.1-6 8.1-9.7zm86.8 296.1c-4.5-2.9-12.3-7.6-15.8-2.7-3.5 5-2.6 8.2-3.3 11.3-0.6 3.1-1.6 37.7 1.1 39.1q0.6 0.4 1.3 1.1c-1.1-9.7-1.3-27.6-0.7-23.9 0.4 2.3 0.8 13.1 1.2 24.6 1.7 2.4 2.6 6 0.9 5.2-0.3-0.1-0.6-0.8-0.8-1.8 0.3 11.6 0.5 23.2 0.5 27.2 0 8.4-1 13.2 0 15.2 1.1 2.1 1.5 3.7-0.4 6.4-1.8 2.7-3.7 7.2-2.2 10.2 1.4 3.1 0.6 4.2 5.5 3.7 4.9-0.4-0.5 16.4 3.9 16.4h50.5c0 0 1.6-20.5 1-25-0.6-4.5-3.1-19.9-5.3-24-2.3-4.1-6.4-44-6.2-48.1 0.2-4.1-0.2-13.3-2.6-17.7-2.5-4.3-5-8.6-5.4-12.3-0.4-3.6 0.4-3.5-2-6.3-2.5-2.9-3.1-4.9-4.1-1.7-1.1 3.3-0.7 4.6-3.5 4-2.9-0.7-2.5-0.7-4.9 0.6-2.5 1.2-8.7-1.5-8.7-1.5zm-16.1 52.9q-0.1-1.7-0.1-3.4-0.3-0.4-0.5-0.7c0.1 1.6 0.3 3.1 0.6 4.1z"/>
	<path id="Object 10" class="s0" d="m786.2 246.7c-171.3 0-313.3 88.6-384 42.7l-8.5-5.6 0.9-10.1c1.3-13.8 0.1-28.6-2.2-43.3q-6.5 1.4-12.9 2.9c-38.1 8.7-88.9 21.9-122.8 41.4-68.6 39.4-137.4 61.9-217 54.5l-16.8-1.6 1.6-16.8c2.5-28-4.9-59.9-11.3-87.2-8.2-34.9-21.7-82.9-2-118.1 17.1-30.2 114.2-14.3 164.9 1.3 27.5-8.7 51.2-18 62.9-22.5 16.3-6.3 32.6-14.2 48.5-21.5 22.4-10.3 44.8-20.2 67.8-28.9 53.7-20.5 111.5-35.4 169.4-33 31.3 0 25.9 30.2 23.1 50.7 18.4-2.9 38.2-8 60.3-16.5 93.9-36.1 262.3-36.1 356.1 0 22.1 8.5 41.9 13.6 60.3 16.5-2.7-20.5-8.2-50.7 23.1-50.7 57.9-2.4 115.7 12.5 169.4 33 23 8.7 45.5 18.6 67.8 28.9 15.9 7.3 32.2 15.2 48.5 21.5 11.7 4.5 35.4 13.8 62.9 22.5 50.7-15.6 147.9-31.5 164.9-1.3 19.8 35.2 6.3 83.2-2 118.1-6.4 27.3-13.8 59.2-11.3 87.2l1.6 16.8-16.8 1.6c-79.6 7.4-148.4-15.1-217-54.5-33.9-19.5-84.7-32.7-122.7-41.4q-6.5-1.5-13-2.9c-2.3 14.7-3.5 29.5-2.2 43.3l0.9 10.1-8.5 5.6c-70.7 45.9-212.7-42.7-383.9-42.7z"/>
	<path id="Object 11" fill-rule="evenodd" class="s1" d="m22.8 125.3c30.9 22.7 110.9 17.6 222.3-25.3 101-38.8 168.7-84.6 282.8-80.1 3.3 11.4 2.3 22.9-0.1 34.3-9.1 0.7-19.4 1-27.9 0.9-39.9-0.1-72.2-3.8-111 1.8-16.1 2.4-20.7 19.2-21.3 35.7-44.6 11.2-86.5 31-127.7 50.4-71.9 34-141.5 66.9-216.9 48.5-6.2-27.4-7.4-42.7-0.2-66.2zm345.4-15.5c0.3 3.5 0.7 6.6 1 9.2 1.3 9.9 3.2 19.7 5.3 29.5-47.3 10.9-91.3 31.7-134.6 52.1-67.5 31.9-133.1 62.9-203.3 51.3-2.7-14-6.1-28.1-9.4-42.2 77.7 15.7 147.7-17.4 219.9-51.5 39.3-18.5 79.3-37.4 121.1-48.4zm10 55.1c1.7 7.4 3.5 14.6 5.1 21.6 2.1 8.7 4.2 17.9 6.1 27.3-53.8 11.6-108.6 27.6-141.1 46.3-86.8 49.9-151.5 57.4-207 52.3 1.2-13.7 0.3-28.2-1.8-43 72.8 10.1 139.3-21.3 207.6-53.5 42.4-20.1 85.7-40.5 131.1-51zm1171.2 26.6c-75.5 18.4-145.1-14.5-217-48.5-41.2-19.4-83-39.2-127.7-50.4-0.6-16.5-5.1-33.3-21.3-35.7-38.8-5.6-71.1-1.9-111-1.8-8.5 0.1-18.8-0.2-27.9-0.9-2.4-11.4-3.4-22.9 0-34.3 114-4.5 181.7 41.3 282.7 80.1 111.4 42.9 191.4 48 222.4 25.3 7.1 23.5 6 38.8-0.2 66.2zm-224.2-33.3c72.2 34.1 142.2 67.2 219.9 51.5-3.3 14.1-6.7 28.2-9.4 42.2-70.2 11.6-135.8-19.4-203.3-51.3-43.3-20.4-87.3-41.2-134.6-52.1 2.1-9.8 4-19.6 5.3-29.5 0.3-2.6 0.7-5.7 1-9.2 41.8 11 81.8 29.9 121.1 48.4zm0 57.7c68.4 32.2 134.8 63.6 207.6 53.5-2.1 14.8-3 29.3-1.8 43-55.5 5.1-120.2-2.4-207-52.3-32.4-18.7-87.3-34.7-141.1-46.3 1.9-9.4 4-18.6 6.1-27.3 1.6-7 3.4-14.2 5.1-21.6 45.4 10.5 88.7 30.9 131.1 51zm-940.3-139c26.7 40.1 117.9 16.9 229.3-26 89.6-34.6 254.3-34.6 344 0 111.4 42.9 202.5 66.1 229.3 26 6.5 58.4-32.4 135.8-26.6 198.3-63.1 41-169.7-45.4-374.7-45.4-205.1 0-311.7 86.4-374.8 45.4 5.8-62.5-33.1-139.9-26.5-198.3zm66.6 71.8q0 24.4-1.5 40.4-1.4 16.2-5.9 28.8l-6.2 0.8v36.2l12.2-1.6v-20.5l46.1-6.2v20.5l12.3-1.6v-36.2l-6.5 0.8v-78l-50.5 6.7zm35.8 1.1v62.3l-27.8 3.7c4-13.6 6-34.6 6-63.1zm31.8 72l24.4-7.2q13.8-4.2 17.4-5.8 5.8-2.5 9.8-7.3 3.9-4.8 6.2-11.5 2.2-6.7 2.2-13.1 0-8.1-3.5-13.1-3.5-5-10.1-5.5 4.7-4.1 7.4-10.5 2.7-6.3 2.7-12.9 0-6-2.2-10.3-2.2-4.2-5.5-6.2-3.3-2-7.5-1.7-4.1 0.3-12.7 2.8l-28.6 8.5zm22.8-84.9q10.2-3 12.4-3.3 3.6-0.5 5.4 1.6 1.8 2.2 1.8 6.6 0 4.5-2.1 7.9-2.1 3.5-5.8 5.1-2.1 0.9-10.5 3.4l-9.5 2.8v-21.7zm3.4 36.3q9.8-2.9 12.8-2.4 2.9 0.5 4.5 3 1.6 2.4 1.6 6.7 0 5-2.1 8.5c-1.3 2.4-3.1 4.2-5.2 5.3q-2.1 1.2-9.9 3.5l-13.4 4v-25.1zm102.3 14.3v-15.8l-40.3 10v-25.5l36.2-9v-15.8l-36.2 9v-20.8l38.9-9.7v-15.8l-53.5 13.2v93.8zm60.5-7.4v-73.8l14.5 72.5 14.3-1.2 14.6-75.2v73.9l13.7-1.3v-93.8l-22.2 2-13.2 65.2-13.3-62.8-22.1 2v93.8zm80.1-16.6q9.7 13.2 26.1 14 16.1 0.7 25.8-11.7 9.7-12.4 9.7-35.1 0-22.9-9.7-36.2-9.8-13.3-26-14.1-9-0.4-15.9 3.1-5.1 2.5-9.5 8-4.3 5.5-6.8 12.5-3.4 9.6-3.4 23.9 0 22.4 9.7 35.6zm11.2-59.5q5.6-7.8 14.8-7.4 9.2 0.4 14.7 8.6 5.6 8.2 5.6 24.3 0 16.3-5.7 24.2-5.7 8-14.6 7.6-8.9-0.4-14.6-8.9-5.8-8.5-5.8-24.4 0-16.2 5.6-24zm64.1 75.3l14.8 2.3v-78.1l34.7 5.5v-15.8l-49.5-7.7zm59.1 8.3l14.6 3.2 29.3-54.6v61.2l13.7 3.1v-93.8l-14.6-3.3-29.3 55.9v-62.5l-13.7-3.1zm79.1-21.2l0.1 16.1q0 6.3-1.6 7.4-1.6 1.2-6.1-0.2l-3.2-1v14.7q6.7 2.6 9.2 3.3 7.2 2.2 10.6-0.6 3.4-2.8 4.3-9.4 0.9-6.6 0.9-23.8v-40l21.5 6.3v78l14.5 4.2v-93.8l-50.2-14.8zm66.7 59.9l14.7 2 29.6-57.3v61.3l13.8 1.8v-93.8l-14.7-1.9-29.6 58.4v-62.4l-13.8-1.9z"/>
	<path id="Object 12" fill-rule="evenodd" class="s1" d="m676.7 1315.3c-11.3-0.1-22.5 2.9-31.1 6.2-9.4 3.5-14.4 9.6-24 11.2-6.4 1-9.5-4.1-10.7-7.8-1.2-3.6-2.1-10.8-3.7-14-1.7-3.2-3-7.6-2.5-9.4 0.4-1.8-0.8-4.1-0.8-4.1-1.3-2.8-1.5-5.1 0-7.9l0.3-3.4c13.5-2.2 20.2 5.8 28.1 15.3 13.1-4.7 24.4-7.1 31.7-25.6 0 0 3.2-18.1 20.9-31.3 17.8-13.2 32.1-14.7 39.2-11.7 7.2 3.1 9.1 11.3 8.7 21.3-0.5 9.9-0.9 26.6-6.7 32.4-5.9 5.9-13.7 6.3-19.3 9.6-5.6 3.2-16.3 19.5-16.3 19.5zm31.1-13.4c6.3-3.6 15.1-4.1 21.6-10.6 6.5-6.6 7-28.5 7.5-39.6 0.5-11.2-1.7-20.4-9.7-23.7-8-3.4-24-1.7-43.8 13-12.3 9.1-18.3 20.3-21.1 27.5-5.9-28 2-54.1 24.4-70.5 9.4 0.1 21.4-1.9 27.2-8.1 6.1-6.7 4.2-17.1 9.5-22.1 5.2-5.1 14.4-9.9 17.1-14 2.8-4.2 6.8-15.8 4.3-24.9-1.5-5.6-3.6-9.6-6.8-12.8 1.1-9.3 0.8-11.9 0.4-18.7-5.2 9.7-6.4 11.2-7.2 13.6 0 0 5.6 1.7 9.8 15 4.1 13.4-2.5 26.9-9.2 31.5-6.8 4.6-14.1 9-15.9 14.2-1.9 5.3-3.6 13.7-8.9 16.6-5.4 2.9-12 4.4-12 4.4-8.5-1.1-13.7-4.5-16-10.5-16.3 3.5-26.9-11.1-15.9-28.6-4.7-14-3.9-25.1 0.5-40.4 0 0-3.8-17.5-3.8-19.4 0-1.9 3.1-2.9 3.1-2.9l19.2 12.2c11.4-1.2 16.2 2.2 23.3 7.2 3.1-0.7 10.4-2.2 14.7-2.2 3.1-0.1 11.6-10.5 19.3-15.1 2.1-1.3 3.1-1.5 5.1-1.4l1.4 21.4c39.1 28.4 34.7 69.1 6.3 109.6 17.9 13.2 49.4 6.2 80.6-6.4 31.3-12.6 59.7-3.7 73.6 21.3 13.9 25-0.8 48.4-11.9 58.1-11.2 9.6-18.1 14.4-18.4 19.3-0.3 4.8 12.4 13 12.4 13-25.1 14.2-31.2 31.2-38.3 58.1-4.2 16-7.2 11.4-13.6 12.3-3.2 0.8-9.8 3.3-14 2-4.6 1.5-8.6 1.7-10.4 0.5-3.4 1-5.1 0.8-5.7 0.3-8.9-6.9-2.3-19.7 4.1-23.9 6.4-4.3 13.7-3.3 17.8-1.8 8.6-14.5 8-32.2 15.2-48.5-38.4-8.6-44.5-59-27.6-85.9-5.4 7.5-12.8 17.2-12.4 47.5-36.7 10.1-85.3 34.6-111 30.9 4-5.7 10.9-15 15.2-17.5zm110.5-64.2q-1.2 1.6-2.3 3.3c0.8-1.1 1.6-2.2 2.3-3.3zm-162.8 4.1c-3-2.1-7.8-4.7-10.4-6.6-5.3-4.1-20.4-12-20.4-12-7.5 1.9-13.2 1.6-18.2-2.5-2-1.6-4.8-5.6-0.5-10.2 0.7-0.6-4.7-9.4 0.6-13.4-1.6-5-1.6-9.5 1.6-11.1-1.2-1.6-2.2-8 1.4-8.9 14.6-3.8 14.2 20.3 22.3 22.8 3.1 0.9 7.2-0.3 13.7 1.2 4.3 0.9 15.4 7.3 21.4 11.4-8.7 13.2-11.5 29.3-11.5 29.3zm259.3 27.9c0 0 33.3 32.3 36.6 34.8 3.4 2.4 4 6.1 1.6 9.1-2.5 3.1-5.2 32.7-5.2 45.8 0 13.1 4.2 23.2 4.2 29 0 5.8-1.2 12.5-6.4 12.5-5.2 0-10.9 0-10.9 0-4.7 2-8.3 1.5-10.1-0.3-1.3 1.7-3.6 3-7.2 1.7-4.6 1.6-6.4-1.9-6.8-4.4-7.9-7.5 6.7-21.7 16.4-21.7 0 0-1.2-14-3.5-22.3-2.3-8.3-6.3-21.5-6.9-24.6-0.5-3-0.5-5.3-7.4-7.9-6.8-2.7-25.1-10.7-25.1-10.7 14.4-10.6 25.3-22.8 30.7-41zm-10.2-40c30.1-32.3 5.7-64.4-19.2-75.5-9-4-17.7-4.8-28.9-9.5-20.8-8.8-21.7-29.2 0.2-39.2 15.5-22.4 63.1-17.3 64.4 9.4 0 0-6.1-1.6-13.4 0-17.7 3.9-23.9 10.6-46.2 0-23 19.9 7.6 22.3 16.8 25.4 24 8 41.8 19.7 48.4 33.7 14 29.7-4.2 66.3-11.2 80.9-1.7-12.6-7.7-22-10.9-25.2zm-230.2-123.2l-10.2-9.5 5.2 12.9c0.9-1.8 5-3.4 5-3.4zm-7.3 18.9q-0.1 0.3-0.2 0.7 0.1-0.4 0.2-0.7zm25.3 1.3c0.6 3-1.3 16-4.9 20.6-3.6 4.7-7.4 9.7-1.2 11.8 4.9 1.6 9.3 0.9 9.7-5.4 0-0.9 0.2-2 0.5-3.3 0.7-3.9 2.1-9.1 2.8-13.1 1.1-5.4 5.6-9.5 10.7-10 12.2-1 15.7 5.5 18.7 13.2 3.3-14.9-18.7-21.1-29.3-14.5-7-10.6-26.9-13.3-32.3-0.6 4.2-9.2 23.3-5.9 25.3 1.3zm31.6 15.4c-1.1-7.5-10.4-16.8-20.1-8 4.7 16.4 20.1 8 20.1 8zm-34.5-10.7c-2-7.1-13.1-12.8-19.8-3.9 6.9 13.2 19.8 3.9 19.8 3.9zm-22.6-12.8c7.5-12.1 26.9-8.4 34.3 2.2 14.4-6.6 30.5-2.6 32.1 12.4 2.3-17.5-15.6-22.1-31.2-17-0.9-2.8-24.9-16.2-35.2 2.4zm15.8 52.5c-14.2 2.8-19.1-2.5-19.6-12.1-2.6 9.5 3.9 15.6 11.7 15.2-0.3 1.4 0.9 4.1 2.6 5.2 2.6 1.6 4.9 1.4 7.9 1 4.6 4.9 12 7.2 18.1 3.3-9-0.2-18.3-4.3-20.7-12.6zm1.3-2.6c0.9 9.5 21.2 14.6 25.2 3.6-9.7 5.7-21.9 2.7-24-6.9-12.2 3.4-18.6 1.8-19.4-9.4-2.5 12.1 9 16.8 18.2 12.7z"/>
</svg>