<svg version="1.2" xmlns="http://www.w3.org/2000/svg" viewBox="0 0 400 452" width="400" height="452">
	<title>Pomorie-pdf</title>
	<style>
		.s0 { fill: #2e3192 } 
		.s1 { fill: #ed1c24 } 
		.s2 { fill: #fff200;stroke: #ffffff;stroke-width: 1.6 } 
		.s3 { fill: #00adef } 
		.s4 { fill: #f47216 } 
	</style>
	<path id="Path 1" fill-rule="evenodd" class="s0" d="m36.7 50.4h143.8l8.5-25.2 8.7-25.7 8.6 25.7 8.6 25.2h150.6l8.6-25.2 8.7-25.7 8.6 25.7 8.7 25.4h-13.9v364.9c0 20.3-16.7 36.9-37 36.9h-296c-20.4 0-37.1-16.6-37.1-36.9v-364.9h-13.9l8.7-25.4 8.6-25.7 8.7 25.7zm-11.6 142.3c2.4 17.3 17.2 30.7 35 30.7h133.8l0.2-163.2h-169zm320.9 39.4h-289.7c-13.2 0-24.8-6.9-31.2-17.3v64.7h174v163h142.8c19.4 0 35.2-15.8 35.2-35.2v-192.5c-6.3 10.3-17.9 17.3-31.1 17.3zm-243.3 89.7l-32.7 33-32.8 32.9h131.1l-32.8-32.9zm184.3-217.2l-4.1 0.7-3.9 1-3.7 1.4-3.6 1.7-3.3 2-3.2 2.4-2.9 2.6-2.6 2.9-2.4 3.1-2 3.4-1.7 3.6-1.4 3.7-1 3.9-0.6 4-0.3 4.2 0.3 4.2 0.6 4 1 3.9 1.4 3.7 1.7 3.6 2 3.3 2.4 3.2 2.6 2.9 2.9 2.6 3.2 2.4 3.3 2 3.6 1.7 3.7 1.4 3.9 1 4.1 0.6 4.1 0.2 4.2-0.2 4-0.6 3.9-1 3.8-1.4 3.5-1.7 3.4-2 3.2-2.4 2.8-2.6 2.7-2.9 2.3-3.2 2.1-3.3 1.7-3.6 1.4-3.7 1-3.9 0.6-4 0.2-4.2-0.2-4.2-0.6-4-1-3.9-1.4-3.7-1.7-3.6-2.1-3.4-2.3-3.1-2.7-2.9-2.8-2.6-3.2-2.4-3.4-2-3.5-1.7-3.8-1.4-3.9-1-4-0.7-4.2-0.2zm27.5 2l2 1.3 2 1.4 2.6 2.2 24.3-30.4-2.5-6.1-14.5 0.4-16.9 29.5zm11.8 10.4q1 1.2 1.9 2.4 1.1 1.7 2.1 3.4l48.2-26.4v-23.6l-54.1 41.9zm6.9 11.8q0.5 1.4 1 2.9l0.6 2.1 0.7 2.8 42.9-2.6v-27.2l-46 20.2zm2.9 12.5q0.2 1.6 0.2 3.3 0 2.2-0.2 4.4l-0.2 2.2 42.6 7.5v-21.2l-42.5 2.3zm-1.8 16.8l-0.6 1.9c-0.3 1-0.7 1.9-1.1 2.9l-1.3 2.7 47.1 24.2v-18l-43.5-15.7zm-6.5 13.2l-1 1.3-1 1.2-1.1 1.2-1 1.2-1.1 1.1-1.2 1.2-1.9 1.6 36.5 42.9 15.7-25.5-42.5-28.3zm-12.3 11.7l-1.9 1.2-2 1.1-2 1-1.9 0.8 14.8 35.3h22.8l-28.1-40.5zm-17.9 6.7l-1.8 0.2q-1.3 0.1-2.7 0.2h-2.7l-1 32.2h12.8l-2.7-32.9zm-16.3-0.7l-1.3-0.3-1.3-0.4-2.6-0.8-1.3-0.5-1.3-0.5-2.1-0.9-16.1 36.7h25.2l3.1-32.8zm-18.3-8.8l-2.4-2.1-1.6-1.5-2.1-2.3-57.2 47.9h30.5l34.4-40.8zm-9.7-10.8q-1.1-1.6-2-3.3l-1.1-2.2-40.2 19.6 13.1 8.7 31.1-21.3zm-5.2-11.3q-0.5-1.5-0.8-3l-0.5-2-0.4-3-44.9 6.9v19.2l47.2-16.2zm-1.9-16.6q0.3-2.2 0.6-4.3l0.5-2.7-34.1-4.8 2.1 8.7 4.5 5 26.3-0.1zm2.2-10.8q0.6-1.7 1.2-3.3l1-2-20.2-11.7h-13.1l3 9.6 27.6 8.9zm-47-62.1v13l52.4 38.3 1.4-2.1q1-1.2 2.1-2.5l1.7-1.8-45-45.3zm22.7-7.5l38.3 49.1 1.6-1.2q1.3-1 2.6-1.8l1.9-1.2 2.7-1.5-18.4-43.4zm53.9 0l5.7 39.4 2.6-0.3q1.6-0.2 3.2-0.3c1.1 0 2.2 0 3.2 0 1.2 0.1 2.5 0.2 3.7 0.3l2.4-39.1zm21.1 39.5c1.2 0.2 2.5 0.5 3.7 0.8q1.4 0.4 2.8 0.9l2.7 0.9 15.7-42.1h-18.3z"/>
	<path id="Path 2" class="s1" d="m69 128c-9 0-16.4-7.3-16.4-16.4 0-9.1 7.4-16.4 16.4-16.4 9.1 0 16.4 7.3 16.4 16.4 0 9.1-7.3 16.4-16.4 16.4zm19.1 38.2c-9 0-16.3-7.3-16.3-16.4 0-9.1 7.3-16.4 16.3-16.4 9.1 0 16.4 7.3 16.4 16.4 0 9.1-7.3 16.4-16.4 16.4zm19.1-38.2c-9 0-16.3-7.3-16.3-16.4 0-9.1 7.3-16.4 16.3-16.4 9.1 0 16.4 7.3 16.4 16.4 0 9.1-7.3 16.4-16.4 16.4zm19.2 38.2c-9.1 0-16.4-7.3-16.4-16.4 0-9.1 7.3-16.4 16.4-16.4 9 0 16.4 7.3 16.4 16.4 0 9.1-7.4 16.4-16.4 16.4zm-19.2 38.2c-9 0-16.3-7.3-16.3-16.4 0-9.1 7.3-16.4 16.3-16.4 9.1 0 16.4 7.3 16.4 16.4 0 9.1-7.3 16.4-16.4 16.4zm38.3-76.4c-9.1 0-16.4-7.3-16.4-16.4 0-9.1 7.3-16.4 16.4-16.4 9.1 0 16.4 7.3 16.4 16.4 0 9.1-7.3 16.4-16.4 16.4zm-41.8-60.1h7.1v22.3h-7.1z"/>
	<path id="Path 3" fill-rule="evenodd" class="s2" d="m291.2 185.2c-22.1 0-39.9-17.8-39.9-39.8 0-22 17.8-39.8 39.9-39.8 22 0 39.8 17.8 39.8 39.8 0 22-17.8 39.8-39.8 39.8zm21.6-80.4l16.1-28.3 13.3-0.4 2.1 5-23.4 29.2c-2.5-2.1-5.2-4-8.1-5.5zm12.9 10.2l51.8-40.1v21.1l-46.9 25.7q-2.1-3.6-4.9-6.7zm7.9 12.7l43.9-19.2v24.8l-41.3 2.6c-0.6-2.8-1.4-5.6-2.6-8.2zm3.4 13.3l40.5-2.3v19.1l-40.6-7.1q0.3-2.6 0.3-5.3 0-2.3-0.2-4.4zm-1.5 16.6l42 15.1v15.8l-44.9-23.1c1.2-2.5 2.2-5.1 2.9-7.8zm-6 13.2l40.9 27.2-14.5 23.7-35-41.2c3.3-2.8 6.2-6.1 8.6-9.7zm-12.6 12.7l26.5 38.2h-20.3l-14.2-33.9q4.3-1.8 8-4.3zm-18.3 7.3l2.5 30.9h-10.8l1-30.3q3.7 0 7.3-0.6zm-16.1-0.2l-2.9 31.1h-22.9l15.2-34.6c3.3 1.6 6.9 2.7 10.6 3.5zm-19.2-8.6l-33.5 39.7h-27.4l54.5-45.7q2.9 3.3 6.4 6zm-10.4-11.1l-29.8 20.5-11.2-7.5 37.9-18.4q1.4 2.8 3.1 5.4zm-5.5-11.1l-45 15.4v-17l43.1-6.6c0.4 2.8 1.1 5.5 1.9 8.2zm-2.2-17.1l-25 0.2-4.1-4.6-1.7-7 31.7 4.5q-0.7 3.4-0.9 6.9zm2.1-11.2l-26.2-8.5-2.5-7.9h11.6l19.1 11.1c-0.8 1.7-1.5 3.5-2 5.3zm10.4-17.6c-1.5 1.6-2.9 3.2-4.2 5l-51.1-37.4v-11.6l11.2-0.4zm12.3-9.3c-2.6 1.4-5.1 3-7.4 4.8l-36.6-46.9h26.2zm25.5-5c-1.4-0.1-2.8-0.2-4.3-0.2-2.2 0-4.4 0.2-6.6 0.5l-5.4-37.4h18.7zm27.2-37.1l-15 40c-2.4-1-4.9-1.7-7.5-2.2l6.3-37.8z"/>
	<path id="Path 4" fill-rule="evenodd" class="s0" d="m335.8 276.2v-34.9h26.3v4.1h-20.1v10.7h18.3v4.1h-18.3v11.9h21.1v4.1zm-47.5-34.9h5.6v27.6l24.9-27.6h6.2v34.9h-5.6v-27.6l-24.9 27.6h-6.2zm-36.7 34.9v-34.9h14.1c2.5 0 4.4 0.1 5.7 0.3 1.9 0.3 3.4 0.9 4.7 1.7 1.2 0.8 2.2 1.9 2.9 3.3 0.8 1.5 1.2 5 1.2 6.7 0 2.9-1 5.5-3.1 7.5-2 2.1-5.7 3.1-10.9 3.1h-9.6v12.3zm5-16.4h9.6q4.8 0 6.8-1.7c1.4-1.1 2-2.7 2-4.7 0-1.4-0.4-4.6-1.1-5.6q-1.2-1.6-3.2-2.1-1.2-0.3-4.6-0.3h-9.5zm-58.3-0.6q0-8.7 6-13.6c4-3.3 9.2-4.9 15.5-4.9q6.2 0 11.2 2.3 5 2.3 7.6 6.5 2.6 4.1 2.6 9.3c0 3.5-0.9 6.7-2.8 9.5q-2.7 4.2-7.8 6.3-5 2.2-10.9 2.2-6.3 0-11.3-2.4-4.9-2.4-7.5-6.5c-1.7-2.7-2.6-5.6-2.6-8.7zm6.1 0.1c0 4.2 1.5 7.5 4.4 9.9 2.9 2.4 6.5 3.6 10.9 3.6q6.7 0 11.1-3.6c2.8-2.5 4.3-5.9 4.3-10.4 0-2.9-0.7-5.3-1.9-7.4q-1.8-3.2-5.4-5c-2.4-1.1-5-1.7-8-1.7-4.2 0-7.8 1.1-10.8 3.4-3 2.2-4.6 5.9-4.6 11.2zm-65.1 16.9v-34.9h9.3l11.1 24.7c1 2.3 1.7 4 2.2 5.2q0.8-2 2.5-5.6l11.2-24.3h8.3v34.9h-5.9v-27.3l-13.6 27.3h-5.6l-13.6-27.8v27.8zm-53.3-17q0-8.7 6-13.6c4-3.3 9.2-4.9 15.6-4.9 4.1 0 7.9 0.8 11.2 2.3q5 2.3 7.7 6.5 2.6 4.1 2.6 9.3c0 3.5-0.9 6.7-2.8 9.5q-2.7 4.2-7.8 6.3-5.1 2.2-11 2.2-6.3 0-11.4-2.4-5-2.4-7.5-6.5-2.6-4.1-2.6-8.7zm6.1 0.1q0 6.3 4.4 9.9c2.9 2.4 6.6 3.6 11 3.6q6.8 0 11.1-3.6 4.3-3.7 4.4-10.4c0-2.9-0.7-5.3-1.9-7.4-1.2-2.2-3.1-3.8-5.4-5q-3.6-1.7-8.1-1.7c-4.2 0-7.9 1.1-10.9 3.4-3 2.2-4.6 5.9-4.6 11.2zm-56.7-18h43.3v4.2h-5.6v30.7h-5.4v-30.8h-21.2v30.8h-5.4v-30.6l-5.7-0.1z"/>
	<path id="Path 5" class="s3" d="m252.8 408.4c-10.9-1.6-18.7-18.1-18.7-18.1 0 0 15 5.1 21.9 5.5 6.9 0.4 20.3-0.8 20.4-1.1 0.6 2.2-15.6 15.7-23.6 13.7zm71.6 3.8c-10.9-1.6-18.6-18.1-18.6-18.1 0 0 14.9 5 21.8 5.5 6.9 0.4 20.3-0.8 20.4-1.1 0.7 2.2-15.6 15.7-23.6 13.7zm-34.5 18.4c-10.9-1.6-18.6-18.1-18.6-18.1 0 0 14.9 5.1 21.8 5.5 6.9 0.4 20.3-0.8 20.4-1.1 0.6 2.2-15.6 15.7-23.6 13.7z"/>
	<path id="Path 6" class="s4" d="m344.2 385.5h-62.8c0 0 3.2-4.8 8.4-5.9 5.1-1.2 3.2-3.6 6.3-4.8 3.2-1.2 11.2-0.4 11.2-0.4 0 0 1.6-6-2.8-9.5-4.4-3.6-6.8-6.8-6.8-6.8 0 0-7.9 1.2-9.9-0.8-2-2-3.6-6.4-3.6-6.4l-4.4-0.3c0 0-3.5 10.3-5.5 12.3-2 2-19.5 25-23.5 21.4-4-3.6 17.5-23.8 16.7-28.2-0.8-4.3-0.4-6.7-0.4-6.7 0 0 12.7-25.5 16.3-25.5 3.6 0 4.8 1.6 7.5 0.8 2.8-0.8 4-2 6-1.6 2 0.4 11.6 7.6 21.5 19.1 9.9 11.5 7.6 19.1 10.3 21.5 2.8 2.4 6.4 3.1 10 9.5 3.6 6.4 5.5 12.3 5.5 12.3zm-56.6-88.2c2.8 4.4-7.4 28.2-19.3 25.4-11.9-2.7-9.9-15.5-9.2-17.8 0.9-2.4 3.6-8 8.4-8.4 5.3-1.2 21.8-1.7 20.1 0.8z"/>
</svg>