<svg version="1.2" xmlns="http://www.w3.org/2000/svg" viewBox="0 0 750 1016" width="750" height="1016">
	<title>Nedelino_1-pdf</title>
	<style>
		.s0 { fill: #cfa550 } 
		.s1 { fill: #f5e8cf } 
		.s2 { fill: #66ccce } 
		.s3 { fill: #00a650 } 
		.s4 { fill: #003010 } 
		.s5 { fill: #fbc707 } 
		.s6 { fill: #f03b6d } 
		.s7 { fill: #d71920 } 
	</style>
	<path id="Path 1" class="s0" d="m20.2 123.5h150.5l204.9-122.3 211 122.3h144.4c10.3 0 18.7 8.4 18.7 18.8v747.8c0 47.6-38.7 86.6-86.1 86.6h-213.1c-58.4 0-61 37.3-75.8 37.7-23.8 0.7-5.9-37.7-85.2-37.7h-202c-47.3 0-86-39-86-86.6v-747.8c0-10.4 8.4-18.8 18.7-18.8z"/>
	<path id="Path 2" class="s1" d="m733.5 136.1c3 1.7 3.7 3.4 4.1 6.8l-0.1 751c-0.3 3.8-0.8 7.4-1.4 11.2-1.4 6.1-3.3 11.5-5.8 17.2-1.7 3.3-3.4 6.3-5.4 9.4-4.3 6-8.8 11-14.4 15.9-2.8 2.2-5.6 4.3-8.7 6.2-6.4 3.8-12.6 6.4-19.8 8.5-4.9 1.1-9.5 1.8-14.6 2.2l-217.1 0.1-11.1 0.5-10.3 1.3-9.1 2.1-8.2 2.8-7.3 3.4-6.3 3.8-5.4 4-8.6 8.1c-3.3 3.7-6.5 7.6-10 11.2l-0.6 0.5c-1.3-0.2-2.4-2.3-3.1-3.3-1.6-2.3-3.2-4.6-4.8-6.9-4.1-5.2-8.2-9.2-13.6-13.2-3.5-2.3-6.8-4.1-10.6-5.9-4.5-1.8-8.9-3.2-13.6-4.5-5.7-1.2-11.3-2.1-17-2.9-7.1-0.6-14-0.9-21.1-1l-205.9-0.1c-3.7-0.3-7.3-0.7-11-1.4-6.1-1.4-11.4-3.2-17.1-5.8-5.4-2.8-10.2-5.9-15-9.7-4.6-4.1-8.5-8.1-12.3-13-2.1-3-3.9-5.9-5.8-9.1-2.8-5.5-4.9-10.8-6.6-16.8-1.1-5-1.8-9.7-2.2-14.8l-0.1-751c0.4-3.8 1.5-5.9 5.3-7.1l155.1-0.2 201.7-120.3 207.7 120.3 148.9 0.2z"/>
	<path id="Path 3" fill-rule="evenodd" class="s0" d="m403.1 101.9c16.4 1.1 32.5 3.4 48.2 6.8l7-15.3c2.2-4.7 13.3-4.6 15.6 0.1l11.7 24.3c66.5 21.5 124.5 62.5 167.1 116.1l10.4-2.4c4.3-1 12.7 3.9 10.6 7.8l-7 13.6c36.6 53.1 59 116.6 61.5 185.1h21.2v13.7h-84.2q0-0.3 0.1-0.6c0-47.7-11.8-92.6-32.5-132.2l-42 81.8 126.1 119.3c3.1 3 1.3 11.4-2.9 12.8l-112.8 36.1 93.9 146.2c1.9 2.9-1.4 9.2-4.9 9.2l-123.2-1.9 1.4 7.6 24 89.3h-52.9q0 0 0 0.1l-71.8 0.5c-5.9 0-7.9-6.5-7.8-17.7l2.3-204.7c0-10.4-1.3-20.1 1.8-30 10.9-32.6 23.4-64.6 34.4-97.1 1.3-3.9 2.3-7.8 3.1-11.8 1-5.5 2.2-11 0.8-16.4-2.4-8.7-4.1-17.5-6.1-26.3-2.6-12.1-5.4-24.1-7.9-36.2l-3.3-9.7-13-12.4-37.3-26.9c-15.9-11.3-31.9-22.6-47.9-34l-0.1-61.4-19.6 0.4v30.9q0.6 12.8 1.1 25.5c-25.8 16-52 31.4-77.4 47.9-6.3 4.1-12.7 8.2-17.4 14.1-4.3 6.2-6.6 13.3-9.1 20.2-7 19.3-13.3 39-18.7 58.8-0.9 3.6-1.6 7.2-2 10.9-0.3 7.4 1.1 13.9 3.3 20.9l2.4 6.2c14.9 37.9 32 74.8 48.1 112.2 2.1 4.8 4.5 9.6 6.2 14.6 1.1 4.3 3.5 7.9 2.3 12.2v191.5c0 5.8-8 15.7-13.8 15.7h-82q0-0.1 0.1-0.3h-42.4c9-26.5 18.4-53.1 26.9-79.7 0.6-2 0.3-4.9-0.4-6.8q-1.9-4.9-3.7-9.8l-106.6 1.2c-9.8 0.1-19.7-3.6-8.8-18.2l85.4-114-116.4-48.2c-11.5-4.8-11.8-13.8-1.7-23.2l110.2-103.7-35.8-80.8c-15.6 34.5-24.5 72.7-25.1 112.9v5h-82.4v-13.7h19.3c2.4-65 22.7-125.6 56.1-176.9l-11.2-25.1c-3.7-8.5-2.4-13.9 8.8-11.4l24.9 5.5c43.2-52.8 101.5-93 168.2-113.6l9.4-21.9 9.3 16.7c17-4.2 34.5-7.2 52.4-8.8l14.6-31.6c19.5-42.3 24.3-17.6 30.8 0.4zm179.8 148.3c-16.4-16.6-34.7-31.2-54.7-43.5l24.4 50.6zm-343.4-49.8c-22.4 12.5-42.9 27.8-61.1 45.6l39.4 8.8q1.1-5.7 3.2-11.4zm436.5 237.6h41.2c-2.4-64-22.8-123.6-56.2-173.9l-22.1 43c21.8 39.1 35 83.6 37.1 130.9zm-183.8-306.3l27.6 57.5c28.2 15.2 53.7 35 75.5 58.2l45.5-10.7c-38.7-47.3-90-84-148.6-105zm-85-18.4l15.8 43.4q2.9 0.4 5.8 0.9l17.8-38.6c-12.9-2.7-26-4.6-39.4-5.7zm-107.4 8l20.9 37.7 20.6-44.9c-14.1 1.6-28 4-41.5 7.2zm-180.4 111.6l46.3 10.3c23.3-23.9 50.6-43.9 80.7-58.9l23.3-54.3c-59 20.1-110.8 56.1-150.3 102.9zm-79.7 205.1h41.3c1.9-42 12.5-81.8 30-117.5l-20.9-47.3c-29.9 48.3-48.1 104.6-50.4 164.8z"/>
	<path id="Path 4" class="s2" d="m355.2 271.2q0.3 7.2 0.6 14.4c-23.9 14.8-48.1 28.9-71.6 44.3-6.8 4.4-13.7 8.9-18.9 15-4.5 5.2-7.3 11.7-9.8 18.2-7.1 18.8-13.3 38-18.9 57.3-2.4 8.5-5.2 17.2-5.2 26.1 0 8.6 2.1 17.3 5.2 25.4 15.2 39.3 33.1 77.5 49.7 116.2 1.4 3.3 3 6.5 4.3 9.8 0.7 1.8 1.7 3.6 1.7 5.5 0 2.2-1 4.4-1.7 6.5-5.1 16.4-10.5 32.7-15.7 49.1-0.8 2.2-1.6 4.5-2.3 6.8-0.3 1.1-0.7 2.2-0.7 3.3 0 2.1 0.1 4.2 0.7 6.2 0.4 1.7 1.7 3.1 2.3 4.8 5.3 15 10.2 30.2 15.2 45.3 0.5 1.5 1.2 3 1.4 4.5 0.2 1.7 0.3 3.5 0 5.2-0.3 1.5-1.2 2.9-1.7 4.4-7 21.9-13.8 43.8-20.7 65.7q-20.9 0-41.9 0c8-22.9 16.4-45.7 24.1-68.8 0.5-1.6 0.7-3.4 0.7-5.1-0.1-1.8-0.6-3.5-1.1-5.2-0.7-2.6-1.5-5.3-2.4-7.9-3.6-11.2-7.3-22.5-11-33.7-0.5-1.5-1.4-2.9-1.7-4.4-0.3-2-0.3-4 0-5.9 0.4-2.1 1.4-4.1 2.1-6.2q9.1-27.2 18.2-54.3c0.6-1.7 1.4-3.4 1.7-5.2 0.3-1.8 0.3-3.7 0-5.5-0.4-1.9-1.3-3.7-2.1-5.5-18-41.4-36.5-82.6-54.3-124.1-0.7-1.6-0.9-3.4-1-5.2-0.2-1.9-0.2-3.9 0-5.8 0.3-3 1-6 1.7-8.9 0.6-2.7 1.5-5.3 2.4-7.9 12.5-36.2 25-72.3 37.8-108.4 1.2-3.2 2.5-6.3 4.2-9.2 2-3.5 4-7.1 6.8-10 2.8-2.8 6.1-5.2 9.7-6.9 30.4-14 61.4-26.6 92.2-39.9zm-0.3-36.6q0 13.7 0 27.4c-28.9 11.7-58.1 22.7-86.8 35-5.3 2.3-10.2 5.4-15 8.7-4 2.7-8.1 5.4-11.3 9-3.6 4.2-6.8 9-8.8 14.2-15.2 39.5-28.8 79.6-42.8 119.5-0.7 2-0.9 4.2-1.4 6.2-0.4 2.1-1.1 4.2-1.4 6.3-0.2 2.5-0.2 5.1 0 7.6 0.4 3.3 0.8 6.7 1.8 10 1.1 3.9 2.8 7.7 4.4 11.4 15.6 36 31.5 71.7 47 107.7 0.7 1.5 1.3 3 1.6 4.7 0.2 1.4 0.3 2.9 0 4.3-0.8 3.7-2 7.3-3.1 10.9-5.4 17.4-11 34.7-16.4 52.1-0.3 1.2-0.7 2.5-0.8 3.7-0.1 1.8 0 3.7 0.3 5.5 0.2 1.8 0.5 3.7 1.1 5.4 4.3 13.2 9.2 26.2 13.6 39.4 0.3 1.2 0.4 2.5 0.5 3.8 0.2 1.5 0.5 3.1 0.3 4.7-0.2 2-0.8 3.9-1.4 5.8-6.8 22.4-13.8 44.7-20.7 67q-15.4 0-30.9 0c7.2-21.4 14.7-42.6 21.6-64.1 0.6-1.9 0.7-3.8 0.7-5.8 0.1-1.9 0-3.9-0.5-5.8-0.4-2-1.2-3.9-2-5.8-5-13.1-10-26.3-15.2-39.4-0.5-1.4-1.7-2.6-1.9-4-0.2-1.9 0.3-3.8 0.7-5.7 0.4-2.5 1-5 1.8-7.5 6.4-19.2 13.3-38.3 19.8-57.4 0.8-2.2 1.8-4.3 1.9-6.5 0.1-2.1-0.7-4.1-1.2-6.1-0.8-2.5-1.7-5.1-2.8-7.5-15-34.1-30.7-68-45.7-102.2-1-2.2-2-4.4-2.4-6.8-0.6-3.5-0.9-7.2-0.9-10.8 0-3.3 0.1-6.7 0.8-9.9 1.3-6.2 2.9-12.4 5-18.4 16.5-46 33.9-91.7 50.6-137.7 1.1-2.8 1.3-6.1 2.9-8.7 1.4-2.1 3.8-3.3 5.9-4.7 2.2-1.4 4.6-2.5 6.9-3.5 41.4-17.5 82.8-34.7 124.2-52z"/>
	<path id="Path 5" class="s3" d="m328.9 170.1l43.1-93.6c3.5-7.8 7.6-3.8 8.8-0.6l53.1 146.2-75.2 1.7z"/>
	<path id="Path 6" class="s4" d="m344 226l-114.7 47.6c-1.3-8.3 0-19 3.6-27.4l53.4-124.2z"/>
	<path id="Path 7" class="s5" d="m87.9 238.2l128.8 28.7q0 3.2 0.4 6.5l0.9 6.7-5.9 3.3-7.6 12.6-0.9 3.6c-12.8 34.9-25.8 69.7-38.6 104.6l-2.1 3.6z"/>
	<path id="Path 8" class="s6" d="m153 437.2l-4.9 17.4-0.2 29.4c1 4 2.7 7.5 4.3 11.2 10 22.7 20.3 45.2 30.4 67.8l-1.5 1.3-12.2 15.8-121.1-50.2 108.6-102.2q-1.7 4.7-3.4 9.5z"/>
	<path id="Path 9" class="s7" d="m85.8 709.8l101.7-135.9q0.7 1.5 1.4 3l10.6 25.6c-4.1 12-13.2 37.6-17.4 49.6-2.8 8.4-6.1 17-6.8 26 0 4.2 0.8 7.1 2.9 10.7q3.9 9.9 7.7 19.8z"/>
	<path id="Path 10" class="s2" d="m483.5 315.8c5 3.5 10.2 6.8 15.1 10.5 4.6 3.6 9.3 7.1 13.2 11.4 2.7 2.8 4.9 6.2 6.4 9.8 1.4 3.3 1.5 7.1 2.3 10.6 7.5 32.6 15.4 65.1 22.7 97.8 0.6 2.9 1.5 5.8 1.1 8.7-0.4 2.7-2.5 4.9-3.4 7.5-11.8 33.2-23.2 66.5-34.8 99.8-1 3-2.2 5.9-3 9-0.7 3.1-1.7 6.3-1.5 9.5 0.2 4 1.5 7.9 2.6 11.7 4.4 14.3 9.8 28.3 14 42.7 1 3.4 1.6 7 1.5 10.6 0 2.5-1.1 5-1.9 7.5-3.6 12.3-7.3 24.7-11.2 36.9-1.1 3.6-3.1 7-3.8 10.7-0.7 3.4-0.8 7.1-0.5 10.6 0.2 2.7 1.3 5.2 1.9 7.8q9.9 39.2 19.8 78.4-19.8 0-39.6 0-6.4-26.2-12.8-52.3c0-20.9-1-41.8 0-62.6 0.3-4.4 2.8-8.4 3.9-12.7 1.1-4.7 1.5-9.4 2.5-14.1 1.1-4.7 3.6-9.2 3.9-14 0.1-3.5-1.5-6.9-2.6-10.2-1.5-4.8-4.1-9.2-5.1-14-1.5-7.2-2.1-14.5-2.6-21.7-0.3-5.6-0.6-11.1 0-16.6 0.7-6.1 1.9-12.1 3.9-17.9 10.8-32.5 23.4-64.5 34.4-97 1.7-5 3-10.1 3.9-15.3 0.8-4.6 1.5-9.3 1.2-14-0.2-3.9-1.7-7.7-2.5-11.5-3.4-15.3-6.7-30.7-10.2-45.9-1.6-6.9-2.4-14-5.1-20.5-1.7-3.9-4.8-7.1-7.7-10.2-3.1-3.3-6.6-6.2-10.2-8.9-26.6-19.5-53.6-38.3-80.4-57.4q0-16.6 0-33.2c28.2 19.5 56.4 38.9 84.6 58.5zm-85.3-74.2q0.1-3.9 0.2-7.9 18.5 0 36.9 0c34.3 23.8 68.7 47.4 102.9 71.3 4.3 2.9 8.6 5.9 12.7 9.2 1.9 1.5 3.8 3.1 5.1 5.1 1.2 2 1.6 4.3 2 6.5 2.1 9.9 3.4 19.9 5.5 29.8 7.5 35.5 15.6 70.8 23.1 106.2 0.5 2.3 1.1 4.6 0.9 6.9-0.3 2.8-1.3 5.6-2.2 8.2-10.6 31.3-21.6 62.4-32.4 93.6-0.9 2.5-2.2 5-2.6 7.6-0.3 2.2 0.2 4.4 0.6 6.6 0.4 2.7 0.9 5.4 1.7 8.1 5.1 17.3 10.9 34.4 15.8 51.7 0.4 1.4 0.1 2.9 0 4.3-0.2 2.1-0.3 4.3-0.9 6.3-3.3 11.6-7.1 23.1-10.8 34.6-1 2.9-2.2 5.8-3.2 8.8-0.6 1.7-1.4 3.4-1.6 5.2-0.5 5.7 0.6 13.1 2 18.7 7.3 28.3 15.1 56.5 22.7 84.7q-20.7 0-41.5 0c-6.1-27.3-12.1-54.6-18.3-81.9-1.4-5.8-1.9-6.5-0.4-12.7 0.7-3.3 1.8-6.5 2.7-9.6 4.3-14.2 8.7-28.2 12.8-42.4 0.8-2.6 2-5.2 2-8 0.1-2.4-0.9-4.8-1.6-7.2-5.2-17.2-11.1-34.3-16.3-51.5-0.6-2-1.4-4-1.2-6 0.1-2.5 1.1-4.9 2-7.2 2.2-6.1 5-11.9 7.1-18 10.2-28.3 20.1-56.7 30-85.1 1-2.9 2.1-5.8 2.8-8.8 0.7-2.8 1.4-5.8 1.2-8.8-0.3-3.7-2-7.1-2.8-10.7-7.6-33.1-14.7-66.2-22.4-99.1-0.6-2.6-1.3-5.2-2.4-7.6-1-2.4-2.5-4.6-4-6.8-2.5-3.9-4.2-8.8-7.9-11.6-39.2-28.7-80.2-55-120.2-82.5z"/>
	<path id="Path 11" class="s4" d="m540.2 259.7l-33.3 8.7c-19.3-13.3-38.6-26.6-57.9-39.9l-17.4-48.2 0.4-0.9 33.6-73.1z"/>
	<path id="Path 12" class="s7" d="m519.8 277.4l137.2-32.1-73.9 143.7q-3.9-17.9-7.7-35.8c-2-9.9-3.5-19.9-5.5-29.8-1.2-5.8-2.7-10-6.8-14.6-3-2.9-6.4-5.4-9.7-7.9q-2.5-1.8-5-3.6-14.3-10-28.6-19.9z"/>
	<path id="Path 13" class="s5" d="m566.9 567.2c9-25.8 18-51.7 26.9-77.6 2.5-7.5 6-15.2 5.8-23.3-0.2-2.4-0.6-4.7-1.1-7-3.1-14.6-6.3-29.1-9.5-43.6l113.9 107.7z"/>
	<path id="Path 14" class="s6" d="m564.9 710.3l-0.9-5.2 1.3-3.6c5.2-14.2 9.7-28.6 13.9-43.1 0.4-1.7 0.7-3.3 0.9-5 0.5-4 0.9-7.9 0-11.9-3.7-13.2-7.9-26.3-12-39.4-2.1-6.8-4.6-13.7-5.6-20.8l26.7-8.6 89.6 139.3z"/>
	<path id="Path 15" fill-rule="evenodd" class="s0" d="m428.8 433.5c-2.7-0.3-5.7 0.5-7.7-1.8-2.1-2.3-1.9-6.7 1-8.3 5.3-3.1 11.1-5.5 16.8-7.9 5.5-2.4 11.3-2.1 16.9 0.3q7.8 3.4 15.5 7.1c5.2 2.6 5.5 9.3-0.4 9.6-1.9 0.2-4.4 0.3-6.3 0.4-3.3 0.3-8.1 4.2-10.6 5.5-4 2.3-11.8 1.2-15.9 0.6-2.4-0.3-4.4-2.5-6.2-4-1.1-1-1.6-1.3-3.1-1.5zm-142.6 0c-2.7-0.3-5.7 0.5-7.7-1.8-2.1-2.3-1.9-6.7 1-8.3 5.3-3.1 11.1-5.5 16.8-7.9 5.5-2.4 11.3-2.1 16.9 0.3q7.8 3.4 15.5 7.1c5.2 2.6 5.5 9.3-0.4 9.6-1.9 0.2-4.4 0.3-6.4 0.4-3.2 0.3-8 4.2-10.5 5.5-4 2.3-11.8 1.2-15.9 0.6-2.4-0.3-4.4-2.5-6.2-4-1.1-1-1.6-1.3-3.1-1.5zm94.2 54.9c1.4-5.1 0.8-13.8 0.5-19.3-0.4-9.6-1.7-19.2-2.2-28.8-0.5-12.2-2.1-31.9 5.8-42.1 4.1-5.3 16.7-11.7 23.1-13.8 13.7-4.5 33.1-2.3 47.5-2.5 3.8 0 7.7-0.4 11.5 0 7.1 0.9 8.9 10.1 1.1 9.1-4.9-0.6-6.8-1.6-12.6-1.6-14.1 0-27.5-0.8-41.5 2.2-13.6 2.8-25 9.2-27.7 23.6-1.7 9.1-0.4 23 0.5 32.2 0.8 7.4 2.5 14.7 3.3 22 0.7 5.9 1.4 11.7 1.4 17.6 0 10.1-2.3 14.3-12.4 15.7-2.6 0.4-5.3 0.6-7.9 0-4.8-1.1-5.6-3.4-1.1-5.8 5.4-2.9 8.5-0.5 10.7-8.5zm-22.1 31c6-0.4 12 0 18-0.2 8.3-0.1 14.6-0.7 22.8 0.8 3.1 0.6 9 1 11 4 1.1 1.8 1.4 5.4-1.1 6.4-1.6 0.6-9.1 1.9-10.7 1.9-3.2 0-8.9 1.7-11.8 0.2-2.5-1.2-8-1.5-10.7-1.8-2.7-0.4-6.8 0.9-9.4 1.7-2.3 0.7-10.3 1.8-12.2 0.5-1.4-0.9-3.2-2.4-4.6-2.9-2.4-0.8-6.9-0.9-6.9-4.6 0-4.4 12.6-5.8 15.6-6zm-81.6-128.7c4.4-2.9 15.4-5.1 20.6-5.5 5.5-0.6 11.1-0.2 16.6-0.3 5-0.1 10-0.5 15-0.5 5.3 0.1 11.7-1.2 10.8 6.6-0.5 4.5-5.2 5.6-8.9 5.8-4.5 0.3-9.5-1-13.9-1.7-4.7-0.7-8.4-1.1-13.1-0.4-5.1 0.6-8.2 1.6-13.7 1.4-2.1-0.1-13.2-0.3-14.5-1.8-0.8-0.9 0-2.9 1.1-3.6zm-118 541.7h-2.6c-1.6 0-2.9-1.3-2.9-2.9v-21.2c-0.7-2.3-1.5-5.8-2.6-7.3-3.3-4.5-9.6-4.3-14.6-5.1-6.7-1.1-11.8-4.6-17.4-8v41.6c0 1.6-1.3 2.9-2.9 2.9h-2.7c-1.6 0-2.9-1.3-2.9-2.9v-58.6c-2.3-0.7-3.9-2.5-3.9-4.7 0-2.7 2.8-4.9 6.2-4.9 3.1 0 5.7 1.8 6.1 4.3q0 0 0 0 0 0 0 0.1 0 0 0.1 0 0 0 0 0 0 0.1 0 0.1 0 0.1 0 0.2 0 0 0 0 0 0.1 0 0.1 0 0 0 0 0 0 0 0.1v12.3c0.6 0.9 1.3 1.7 2.2 2.3 2.6 1.9 5.6 3.3 8.7 4.4 3.5 1.2 6.8 2.5 10.9 2.6 3.7 0.1 10.6 3.7 12.8 0.4 0-0.1 0-22.1 0-22.1q0 0 0 0 0 0 0-0.1 0 0 0 0 0-0.1 0-0.2 0 0 0-0.1 0 0 0 0 0 0 0 0 0-0.1 0-0.1 0 0 0 0c0.4-2.5 3-4.3 6.2-4.3 3.4 0 6.2 2.2 6.2 4.9 0 2.2-1.7 4-4 4.7v58.6c0 1.6-1.3 2.9-2.9 2.9zm425.3 0h-2.9c-1.8 0-3.3-1.3-3.3-2.9v-17.7c-0.7-2.4-1.6-5.8-2.9-7.3-3.7-4.5-10.7-4.3-16.3-5.1-7.5-1.1-13.2-4.6-19.4-8v38.1c0 1.6-1.5 2.9-3.3 2.9h-2.9c-1.8 0-3.3-1.3-3.3-2.9v-58.6c-2.6-0.7-4.4-2.5-4.4-4.7 0-2.7 3.1-4.9 6.9-4.9 3.5 0 6.4 1.8 6.9 4.3q0 0 0 0 0 0 0 0.1 0 0 0 0 0 0 0 0 0 0.1 0 0.1 0 0.1 0 0.2 0 0 0 0 0.1 0.1 0 0.1 0 0 0 0 0.1 0 0.1 0.1v15.8c0.7 0.9 1.4 1.7 2.4 2.3 3 1.8 6.3 3.3 9.7 4.4 4 1.2 7.7 2.5 12.2 2.6 4.2 0.1 11.9 3.7 14.3 0.3v-25.4q0-0.1 0-0.1 0 0 0 0 0 0 0-0.1 0 0 0 0 0-0.1 0.1-0.2-0.1 0 0-0.1 0 0 0 0 0 0 0 0 0-0.1 0-0.1 0 0 0 0c0.5-2.5 3.4-4.3 6.9-4.3 3.8 0 6.9 2.2 6.9 4.9 0 2.2-1.8 4-4.4 4.7v58.6c0 1.6-1.5 2.9-3.3 2.9zm-135-2.9v-58.6c-2.5-0.7-4.3-2.5-4.3-4.7 0-2.7 3-4.9 6.7-4.9 3.4 0 6.3 1.8 6.7 4.3q0 0 0 0 0 0 0 0.1 0.1 0 0.1 0 0 0 0 0 0 0.1 0 0.1 0 0.1 0 0.2 0 0 0 0 0 0.1 0 0.1 0 0 0 0 0 0 0 0.1v24.7c2.4 3.3 9.9-0.3 13.9-0.4 4.4-0.1 8.1-1.4 11.9-2.6 3.4-1 6.6-2.5 9.5-4.4 0.9-0.6 1.7-1.4 2.4-2.3v-15q0-0.1 0-0.1 0 0 0 0 0 0 0-0.1 0 0 0 0 0-0.1 0-0.2 0 0 0-0.1 0 0 0 0 0 0 0 0 0-0.1 0-0.1 0 0 0 0c0.5-2.5 3.3-4.3 6.7-4.3 3.8 0 6.8 2.2 6.8 4.9 0 2.2-1.8 4-4.3 4.7v58.6c0 1.6-1.5 2.9-3.2 2.9h-2.9c-1.7 0-3.1-1.3-3.1-2.9v-38.9c-6.1 3.4-11.7 7-19 8-5.5 0.8-12.3 0.6-15.9 5.1-1.2 1.5-2.1 5-2.8 7.3v18.5c0 1.6-1.4 2.9-3.2 2.9h-2.8c-1.8 0-3.2-1.3-3.2-2.9zm-83.2-3.5v1.1c0 2.9-2.3 5.3-5.2 5.3h-30.6c-3.2 0-8.9-4.7-8.9-7.7v-53.8c0-2.9 5.7-7.7 8.9-7.7h30.6c2.9 0 5.2 2.4 5.2 5.4v1.1c0 2.3-1.9 4.3-4.2 4.3h-31.1v16.6h31c1.3 0 2.3 1 2.3 2.3v3.4c0 3.1-2.6 5.6-5.7 5.6h-17.3c-3.9 0-10.3 2.6-10.3 6.5v13.3h31.1c2.3 0 4.2 1.9 4.2 4.3zm-138.9 0v1.1c0 2.9-2.3 5.3-5.2 5.3h-30.6c-3.2 0-8.8-4.7-8.8-7.7v-53.8c0-2.9 5.6-7.7 8.8-7.7h30.6c2.9 0 5.2 2.4 5.2 5.4v1.1c0 2.3-1.8 4.3-4.1 4.3h-31.2v16.6h31.1c1.2 0 2.2 1 2.2 2.3v3.4c0 3.1-2.5 5.6-5.6 5.6h-17.4c-3.8 0-10.3 2.6-10.3 6.5v13.3h31.2c2.3 0 4.1 1.9 4.1 4.3zm410.6-70.7c21.6-0.2 32 17.8 32 39.7 0 21.8-13 39.6-32 39.6-19 0-32-17.8-32-39.6 0-21.9 10.4-39.5 32-39.7zm-5.6 9.2l-4.7 1.6-3.8 2.6-3.2 3.4c-1.5 2.3-2.6 4.4-3.6 7l-1.7 5.8c-0.5 3.4-0.8 6.6-0.9 10.1l0.5 6.7 1.4 6.1 2.3 5.4 2.9 4.6 3.4 3.6 3.9 2.6 4.3 1.6 4.8 0.5 4.9-0.5 4.3-1.6 3.8-2.6 3.5-3.6 2.9-4.6 2.2-5.4 1.4-6.1c0.4-3.5 0.5-6.7 0.4-10.2l-0.8-6.7c-0.7-3-1.5-5.6-2.7-8.4l-2.6-4.5-3.2-3.4-3.7-2.5-4.6-1.6-5.7-0.6zm-223.9 3.5l24.2 59.5c1.1 2.7-0.2 4.8-2.8 4.8h-1.4c-2.7 0-5.9-2.2-7-5l-18.1-44.6q-0.4 0-0.7 0.1c-0.5 0.1-1.1 0.3-1.5 0.7-1.9 1.4-3.7 2.8-5.3 4.5-2.3 2.5-4.6 5-6.3 7.9-1.9 3.3-3.3 6.9-4.4 10.6-1.3 4.6-1.4 10.5-0.5 15.2 0.2 1.3 0.8 2.5 1.4 3.7 0.7 1.5 2.8 3.4 1.1 5.3-1.2 1.3-3.1 2.6-4.8 2.3-2.2-0.5-4.4-2.2-5.4-4.2-3.2-6.6-3-21.3-0.9-27.9 1.7-5.4 5.2-10 8.6-14.4 2.6-3.4 6.4-5.8 9.5-8.8 0.9-1 2.1-1.8 2.8-3 0.3-0.5 0.3-1.3 0.1-1.9-0.1-0.8-0.5-1.5-1-2.1-0.6-0.8-1.5-1.3-2.3-2-1-0.8-3.6-2.2-3.3-3.8 0.1-0.7 0.6-1.3 1.2-1.6 0.8-0.4 4.6-0.7 5.6-0.4q0.1 0.1 0.1 0.1h4.1c2.7 0 5.9 2.2 7 5zm-128.7 0l21.3 52.2c3.1 0.3 5.6 2.9 5.6 6.1v6.1h-0.1q0.1 0.7 0.1 1.4c0 5.4-2.1 9.9-4.7 9.9-2.6 0-4.7-4.5-4.7-9.9q0-0.7 0.1-1.4h-52.7q0 0.7 0 1.4c0 5.4-2.1 9.9-4.7 9.9-2.5 0-4.6-4.5-4.6-9.9q0-1.9 0.3-3.6v-3.9c0-3.3 2.7-6.1 6.1-6.1h5.9q-0.1-0.2-0.2-0.5c-0.5-2.7-0.2-5.9 0.7-8.7 1.7-5.3 5.2-10 8.6-14.4 2.6-3.4 8.4-9.8 11.5-12.7 2.6-3.3 1.6-10.1-0.9-13.2-0.6-0.8-1.5-1.3-2.3-2-1-0.8-3.6-2.2-3.3-3.8 0.1-0.7 0.6-1.3 1.2-1.6 0.9-0.4 4.6-0.7 5.6-0.4q0.1 0.1 0.1 0.1h4.1c2.7 0 5.9 2.2 7 5zm10.2 52.2l-12.7-31.9q-0.3 0-0.6 0c-0.5 0.1-1.1 0.4-1.5 0.7-1.9 1.4-2.8 4.3-4.3 6-2.3 2.5-7.5 8.2-9.2 11.1-1.9 3.3-4 5.7-5 9.4-0.4 1.4 0.9 3.3 1.8 4.7z"/>
</svg>