<svg version="1.2" xmlns="http://www.w3.org/2000/svg" viewBox="0 0 410 474" width="410" height="474">
	<title>Byala(varna)-pdf</title>
	<style>
		.s0 { fill: #233a8b } 
	</style>
	<path id="Path 1" fill-rule="evenodd" class="s0" d="m92.5 80.4h27.5c3 0 7.6 0.2 13.7-0.9 0.5 0 1.1-0.2 1.7-0.2 1.8 0 3 1 2.8 2.5-0.1 0.6-0.4 1.1-0.7 1.7-0.6 1.2-1.4 2.4-1.8 3.7-0.2 0.8-0.4 1.7-0.5 2.5-0.1 0.9-0.1 1.9-0.6 2.7-0.2 0.6-0.7 1.3-2.1 1.4-1.4 0.1-1.8-0.7-2.2-1.3-0.3-0.6-0.5-1.3-0.8-1.9-3.6-8.6-9.1-7.6-13.5-7.6h-3.3v15.6c5.8 3.6 13.6 4.9 18.5 4.9 1.2 0 2.4 0 3.5-0.1 0.9 0 1.9-0.1 2.8 0.1 3.3 0.6 2.5 3.3 2.5 5.8v8.7c0 2.1 0.7 5.3-3 5.9-0.7 0.1-1.4 0.1-2.2 0.1-1.3 0-2.7 0.1-4 0-0.6 0-1.1 0-1.6 0h-36.7v-2.6h7.1v-38.5h-7.1zm26.4 41c4.4 0 7.9 0.4 7.9-4.3v-6.7c0-0.3 0-0.7-0.1-1 0-0.4 0-0.9-0.1-1.3-0.2-1.1-0.8-1.7-2.1-2.1-0.7-0.2-1.5-0.4-2.2-0.5-6.1-1.4-8.7-3.1-9.6-3.7v19.6zm82.4-41v2.6h-7.1v38.4h7.1v2.6h-24.3v-2.6h4.1v-19.1c-8.9-0.1-18.4 4.9-17.6 19.1h3.3v2.6h-22v-2.6h4c0.5-15.2 15.7-19.5 26.5-19.8v-0.9c-19.6-2-25.5-9.2-25-14.7 0.5-5.8 5.7-5.5 12.7-5.5 1.7-0.1 3.3 0 5 0 4.8 0 9.7 0 14.6 0zm-20.2 17.2v-14.6c-10.6-0.2-15.7-0.7-16.1 3.8-0.4 5.3 6.3 10.9 16.1 10.8zm49.3-8.7q-0.8 0.7-1.5 1.5c-1.3 1.3-2.3 2.9-3.3 4.4-1.2 1.5-2.3 3.1-3.2 4.7-2 3.4-3.4 7.5-3.3 10.9 0 5.1 3.2 10.3 4.1 11.6 0.2 0.4 0.4 0.7 0.4 1.1 0.1 0.6-0.3 1.1-1 1.3-1.5 0.5-3.3 0.2-4.9 0-1.7-0.1-3.3-0.1-5 0.1-0.9 0-2 0.1-2.8-0.2-2.1-0.6-2-2.5-1.9-4.3 0.3-4.5 2.4-8.9 4.6-12.6 1.1-1.7 2.3-3.4 3.4-5.2 1.4-2.1 2.9-4.3 4.4-6.5 1.1-1.4 2.2-2.8 3.2-4.3 1-1.4 4-6.3 4.1-7.9 0.1-1.4-1.1-1.5-2.9-1.5q-1.5 0-3 0.1c-0.7 0-1.5 0-2.1 0q-0.4 0-0.8 0v-2.6h28.2v2.6h-5.3c0.4 1.9 1.2 6.5 2.6 11.6 0.8 2.8 1.7 5.6 2.6 8.4 0.8 2.6 1.7 5.3 2.6 7.9 0.6 1.9 1.3 3.8 2.1 5.7 0.6 1.5 1.2 2.9 1.7 4.3 0.1 0.5 0.3 0.9 0.4 1.4h6.2v2.6h-25v-2.6h5.6c-1.3-2.8-5.4-12.4-9.2-28.9-0.2-0.9-0.4-1.8-0.7-2.6-0.1-0.4-0.2-0.7-0.3-1zm54.4-6.8h-6.6v-2.6h26.5v2.6h-6.7l15.7 39.3h5.9v2.6h-25.6v-2.6h6.5l-6.4-16.2c-2.4 8.1-10.3 19.4-20.1 19.6-4.8 0.1-9.5-2.1-9.6-7.5-0.1-7.4 7.8-16.6 14.4-23.9 1.4-1.5 2.7-3 4.1-4.6 1.2-1.5 2.8-3.6 1.9-6.7zm-11.2 28.4c-0.5 3.4 2.2 4.8 4.9 4.7 6.9-0.3 12.2-10.8 13.2-15.9l-3.9-9.9c-5.1 5-13.4 15-14.2 21.1zm-69.4 38.4c71.9 0 130.5 60.1 130.5 133.9q0 6.4-0.5 12.6h-44.1v0.7q0 2.3-0.4 4.5h43.9q-0.7 5.1-1.7 10.1h-46.4c-2.7 3.8-6.6 7.3-11.5 10.3h55.3q-1.4 4.8-3.1 9.4h-75.7c-16.4 4.2-37.3 6.3-61.2 6.3h-22.9v-6.3h-84.3q-1.7-4.6-3.1-9.4h87.4v-10.3h-90q-1-5-1.7-10.1h91.7v-5.2h-92.2q-0.6-6.2-0.6-12.6c0-36 13.9-68.7 36.5-92.8-3.9-0.6-7.9-1.2-11.8-1.8-4.3-0.6-8.6-1.3-12.8-2l-1-0.2-0.1-1v-0.9l-0.1-1.3 1.3-0.1c3.7 0 7.5-0.2 11.2-0.4 7.2-0.3 14.4-0.6 21.6-0.3 23-20.6 53-33.1 85.8-33.1zm-39.3 63q3.9-3.5 7.8-6.9l-2.2-1.4c-10.7-6.6-21.4-13.2-33.4-16.4-13-3.5-26.6-2.9-40.2-2.3l-2.4 0.1 4.2 0.6c12.2 1.8 24.4 3.7 35.9 8.1 11.1 4.3 20.5 11.2 30 18zm20 4.3c-3.5 3.4-6.9 6.9-10.3 10.4l-5.6 5.6v101.9h20.3c30.4 0 55.7-3.4 73.1-10.3 16-6.3 25.1-15.5 25.1-27.7 0-9.5-6.3-18.1-16.8-24.4-10.6-6.4-25.4-10.4-42.4-10.7-7.2-0.1-15.7 0.3-23.8 1.4-6.2 0.9-12.2 2.2-17 4v11.1c4-1.3 7.7-2.4 11.2-3.3 4.1-0.9 8-1.4 11.6-1.4 9.2 0 16.9 2.1 22.2 6 5.3 4 8.4 9.7 8.4 16.8 0 9.3-5.2 16.3-14.5 21-9.5 4.8-23.3 7.1-40.2 7.2h-1.3v-55.2-3l-0.1-0.9h0.1zm-20-0.9c-3.8 3.3-7.6 6.7-11.4 9.9l9.1 9.7c3.5-3.4 6.8-6.8 10.1-10.2 17.8-18 35.8-36.2 60.4-45 8.3-3 16.9-4.6 25.5-6.2l2.1-0.4c-9.9-0.5-19.8-1.1-29.3 1-26.3 5.6-46.7 23.7-66.5 41.2zm73.4 80h-50.8v5.2h50.2q0.6-2.3 0.6-5zm-50.8 15.3v10.4h7.1c12.7-0.7 23.1-2.9 30.7-6.7q3.2-1.7 5.6-3.7zm133.2 32.7q-2.1 4.2-4.5 8.2v-0.2h-224.1q-2.3-3.9-4.3-8z"/>
	<path id="Path 2" fill-rule="evenodd" class="s0" d="m199.5 467.1c-20.1-22.2-48.5-33-75.8-43.3-48.4-18.3-93.5-35.4-93.5-107.9 0-25.5 8.3-49.3 16.4-72.7 7.5-21.3 14.8-42.3 14.8-63 0-17.9-5.6-46.1-17.3-69.8-8.3-17.1-19.8-31.7-34.4-37.9l-8.1-3.5 4.4-7.6 31.2-53.7 3.9-6.7 6.7 3.9c15.2 8.7 31 15.9 47.4 20.9 16.3 5 33.4 7.8 51.2 7.8 25 0 38.6-13.1 52-26.1l1.4-1.3 5.4-5.3 5.5 5.3 1.4 1.3c13.4 13 26.9 26.1 52 26.1 17.8 0 34.8-2.8 51.1-7.8 16.4-5 32.2-12.2 47.4-20.9l6.7-3.9 3.9 6.7 31.2 53.7 4.5 7.6-8.2 3.5c-14.5 6.2-26 20.8-34.4 37.9-11.7 23.7-17.2 51.9-17.2 69.8 0 20.7 7.3 41.7 14.7 63 8.2 23.4 16.4 47.2 16.4 72.7 0 72.5-45.1 89.6-93.5 107.9-27.2 10.3-55.6 21.1-75.7 43.3l-5.8 6.3zm-70.2-57.8c26.6 10.1 54.1 20.5 76 41.5 21.9-21 49.4-31.4 76-41.5 43.2-16.4 83.4-31.6 83.4-93.4 0-23-7.8-45.4-15.5-67.5-7.9-22.6-15.7-44.9-15.7-68.2 0-19.7 6.1-50.6 18.9-76.6 8.5-17.2 19.9-32.4 34.5-41.4l-23.2-40c-14 7.6-28.6 13.9-43.9 18.6-17.8 5.4-36.4 8.5-55.7 8.5-28.6 0-44.3-12.8-58.8-26.7-14.5 13.9-30.2 26.7-58.8 26.7-19.3 0-37.9-3.1-55.7-8.5-15.3-4.7-29.9-11-43.9-18.6l-23.2 40c14.6 9 26.1 24.2 34.5 41.4 12.8 26 18.9 56.9 18.9 76.6 0 23.3-7.8 45.6-15.7 68.2-7.7 22.1-15.5 44.5-15.5 67.5 0 61.8 40.2 77 83.4 93.4z"/>
</svg>