<svg version="1.2" xmlns="http://www.w3.org/2000/svg" viewBox="0 0 494 796" width="494" height="796">
	<title>Sevlievo-pdf</title>
	<style>
		.s0 { fill: #231f20 } 
	</style>
	<path id="Path 1" fill-rule="evenodd" class="s0" d="m19.8 603.2l231-108.4 235.2 97.6c-40.5 105.9-110.9 176.8-227 202.7-122.3-18.5-201.4-96.9-239.2-191.9zm239.5 183c110.1-23.6 174.1-91.9 215.2-189l-222.9-93.4-219.6 103.5c35.1 85.8 110.1 159.7 227.3 178.9zm-250.4-784.8h97.8v31.8h88.9v-31.8h89.7v31.8h92.1v-31.8h103.6v154.1h-472.1zm9 146.2h454.4v-138.1h-87.5v33.5h-108.5v-33.5h-70.9v33.5h-108.5v-33.5h-79zm75.1-47.6h13q-0.5 4.2-1.8 6.7-1.6 3-4.3 5.2-2.6 2.1-6.3 3.2-3.7 1-8.2 1-5 0-9.1-1.4-4-1.4-6.9-4.1-2.9-2.7-4.4-6.6-1.5-3.8-1.5-8.6 0-4.6 1.5-8.4 1.6-3.8 4.5-6.5 2.9-2.7 7-4.2 4.1-1.4 9-1.4 3.6 0 6.9 0.8 3.3 0.7 5.7 2.2 3 1.7 4.9 4.6 1.1 1.7 1.7 3.5 0.6 1.7 1.1 4.8h-13.2q-0.3-1.9-1-3.1-1.9-3-6.2-3-3.9 0-6 2.7-2.1 2.8-2.1 8 0 5.4 2.1 8.2 2.2 2.9 6.1 2.9 2.9 0 4.7-1.3 0.9-0.7 1.5-1.7 0.8-1.2 1.3-3.5zm19 15.2v-39.3h34.1v9.5h-20.4v5.6h17.3v8.6h-17.3v6h21.3v9.6zm41.3 0v-39.3h16.2q6 0 9.3 0.4 3.4 0.4 5.9 1.4 2.5 0.9 4 3.1 1.5 2.3 1.5 5.2 0 1.9-0.8 3.7-0.6 1.4-1.2 2.1-0.7 0.7-1.8 1.3-1.1 0.5-3.3 1.1 2.3 0.5 3.4 0.9 1.2 0.5 2.3 1.3 2.9 2.4 2.9 7.1 0 4.6-2.8 7.5-1.5 1.6-3.5 2.5-2 0.9-5.2 1.3-3.2 0.4-8 0.4zm13.4-23.6h4.9q3 0 4.1-0.5 1.8-0.8 1.8-2.9 0-1.6-1.2-2.5-1.1-0.8-3.3-0.8h-6.3zm0 14.3h6.3q3 0.1 4.4-0.8 1.4-0.9 1.4-2.7 0-1.9-1.4-2.8-1.4-0.9-4.5-0.9h-6.2zm58.3 9.2v-29.3h-10.2v14.5q0 3.4-0.7 6.3-0.7 3-1.9 4.6-0.6 1-2.1 2.1-2.1 1.4-3.7 1.8-1.6 0.4-5 0.4-3.3 0-6.3-1v-9.3q2.1 1 3.7 1 1.9 0 2.8-1.5 0.9-1.5 0.9-4.8v-24.1h36.3v39.3zm21.8 0v-39.3h13.7l-0.4 31.2 0.2 0.1 8.7-31.3h19.9v39.3h-13.7l0.4-29.5-0.3-0.1-8.3 29.6zm50.2 0v-39.3h34.2v9.4h-20.5v5.7h17.3v8.6h-17.3v6h21.3v9.6zm41.4 0v-39.3h16.1q6 0 9.4 0.4 3.3 0.4 5.8 1.4 2.5 0.9 4 3.1 1.5 2.3 1.5 5.2 0 1.9-0.8 3.7-0.6 1.4-1.2 2.1-0.6 0.7-1.8 1.2-1.1 0.6-3.3 1.2 2.3 0.5 3.5 0.9 1.1 0.5 2.2 1.3 3 2.4 3 7.1 0 4.6-2.8 7.5-1.5 1.6-3.6 2.5-2 0.9-5.2 1.3-3.1 0.4-7.9 0.4zm13.3-23.6h5q3 0 4.1-0.5 1.7-0.8 1.7-2.9 0-1.6-1.2-2.5-1.1-0.8-3.3-0.9h-6.3zm0 14.4h6.3q3 0 4.5-0.8 1.4-0.9 1.4-2.7 0-1.9-1.5-2.8-1.4-0.9-4.5-0.9h-6.2zm29.8-10.8q0-4.5 1.6-8.2 1.6-3.8 4.6-6.5 3-2.7 7.1-4.2 4.1-1.4 9-1.4 5 0 9.1 1.4 4.1 1.5 7 4.2 2.9 2.7 4.5 6.6 1.5 3.9 1.5 8.6 0 4.6-1.5 8.4-1.6 3.8-4.5 6.5-2.9 2.7-7 4.2-4.2 1.4-9.2 1.4-5 0-9.1-1.5-4.2-1.4-7.1-4.1-2.9-2.8-4.4-6.7-1.6-3.9-1.6-8.7zm13.9 0.5q0 10.7 8.3 10.7 4.3 0 6.3-2.6 2.1-2.7 2.1-8.1 0-11.1-8-11.1-8.7 0-8.7 11.1zm-394.9 71.1h242.1v323.1l-226.1 107.6c-8.5-15.9-13.7-32.9-16-51.3zm9.9 380.9c1.7 12.1 6.1 27.7 12.1 37.2l211.1-101.4v-307.3h-223.5zm481.9 19c-1.5 10.6-3.8 18.2-7.6 18.5l-233-97.9v-320.5h240.6zm-7.6-390.5h-224v305.2l220.8 92.6c2.3-2.4 3.2-6.7 3.2-10.1zm-382.9 16.3l9.4-0.2-0.1 15.8 3.3 2.4c8.6 1.7 17 4.8 24.4 17.9 5.9 2.5 8.9 6.1 11.4 9.8v15.5h-6.6v104.9c4.8 1.3 7.7 5 9.1 9.4v83.8c1.8 8 7.9 13 18.7 14.8v37.2l-124.1 57.8v-92.4c8.2-0.4 17.4-8 17.4-17.4v-84c1.6-3 4.2-6.3 8.1-8.2v-105.7l-10.7-0.2-0.2-14q2.4-6.7 12.4-11.7c4.5-10.2 12.7-16.1 24.6-17.3l3-3.1zm24.3 36.1c-6.9-13.2-36.4-14.1-42 1.5 1.2 0 6.3 0.3 9.5 3.4 5.3-6.6 17.6-7.2 25.3-0.4 3.4-3 6.5-1.7 7.2-4.5zm-37.1 12.3c-3.6-7.2-14-7.2-17.6 0.1v3.5h17.6zm26.7-1.4c-5.5-6.3-15.1-5.9-19.1 1.1v3.9h19.1zm26.5 0c-5.2-6.3-14.1-5.9-17.8 1.1v3.9h17.8zm-53.5 14.2h-6.6v26.6h6.6zm8.2 26.9h18.5v-26.9h-18.5zm28-0.1h7.9v-26.7h-7.9zm-43 76.4c6 0.7 9.9 3.3 13.3 7.4q12.2-13.5 26.9-1.5c2.3-3.6 6.1-5.1 12.1-5.8v-68.4h-52.3zm-7.9 86.6h69.6v-72c-0.7-11-16.6-9.6-17.5 0v12.1h-9.1v-12.1c-1.4-9.9-14.7-8.4-16.4 0v12.1h-9.2v-12.1c-4.8-9.3-14.8-7.8-17.4 0zm-17.4 34.1v70.7l105.8-50.1-0.2-24.1c-9.2-3.9-15.4-10.6-18.8-21.1h-68.7c-2.3 11.5-8.4 19.8-18.1 24.6zm24.3 135.4l152.2-30.2-0.1-6.2c6.2-20.9 33.2-18.6 38.3-1.2l-0.1 8.3 155.3 23.7v65.9h-36.9l-0.2-18.6c-4-21.5-42.3-34.5-58.6 0v18.6h-38.6v-22c-11.3-35.7-64.6-34.6-76.2-0.6v22.6h-37.8v-18.8c-14-26.5-46-28.2-59.1 1v17.8h-38.2zm8.8 54.1h20.2v-13.1c13.6-39.2 65.3-35.8 77.5-1.8v11.3h20l0.2-13.5c15.7-50.4 85.6-39.7 93.4-0.1v13.6h21v-11.4c14.9-38 69.3-32.3 77-0.8v15.8h18.4v-53l-154.7-24.1v-14.3c-1.1-7.3-17.9-9.3-21.1 0.4v13.5l-151.9 30.8zm205-49.5c5.7-16.1 36.5-16.4 39.7 1.1v9.3h-39.7zm9.1 4.4h20.3l0.1-3.1c-1.6-7.2-17.4-6.9-20.4-0.2zm-129.5-4.6c5.7-16.2 36.5-16.5 39.7 1.1v9.5h-39.7zm9.1 4.3h20.3l0.1-3.1c-1.6-7.2-17.4-6.8-20.4-0.2zm-34.7 85.2h23.2c7-1.2 17.8-3.9 27.8-8 47.9-30 81.2-14.8 109.6 1.7 5.6 2 11.5 4.9 25.5 6.1h26.2v8.1h-30.1c-14.9-1.8-22-4.8-31.2-8.6-29.2-18.5-60.7-21.4-94.4-0.1-8.1 4.2-18.9 7.3-30.8 8.9h-25.8zm15.6 16.2h13.6c6.6-1.1 16.6-3.6 25.9-7.4 44.8-28 74.9-14.4 102.3 1.6 5.3 1.9 10.8 4.5 23.8 5.7h11.3v7.6h-14.9c-13.9-1.7-20.5-4.6-29.1-8.1-27.3-17.2-56.7-19.9-88.1-0.1-7.6 3.9-17.6 6.8-28.8 8.4h-16zm18.8 14.8c11.5 0.3 15.1-0.1 25.7-5.9 41.1-25.7 67.7-14.2 92.9 0.5 1.8 0.5 4.2 3.5 12.7 4l12.2 0.7v7l-13.9-0.7c-12.7-1.6-11.2-3-19.1-6.2-25.1-15.8-51.1-17.8-80 0.4-12.3 6.3-9.5 7.2-30.5 7.2zm235.8-199.5l-54.3-23.7v-30.3c0-10.4-6.7-14.9-12.3-15.3l0.1-10.2 12.2 0.1v-37.7c-1.9-4.3-3.1-8.7-3.2-13.6q-4.5-0.5-5.5-8.3l-4.3-5-1-5.1-2.3-2.7 1.6-3.1 3.6-9.9c-2.2-7-2.7-14.5-2.5-22.1 1.9-6.7 5.3-13.9 9.6-21.3q-2-8.2 0.5-17.4c0.3-1.8 3-5.1 6.2-5.9l-0.6-8.9c-4.7-2.8-6.5-8.5-7-15.6-21.8-6-38.3-16.1-48.4-30-3.3 6.1-9.2 5.7-17.7 6.6-1.4-1.6-1.4-1.9-0.4-6.1 0.2-3.1 12.6 0.4 17.4-3.3-3.3-4.5 0.4-6-3.5-10.5-2-1.4 0.4-5.3 0.6-6.9-1.2-2.5-5.7-1.5-7-8.5-1.5-3.2-15.5-5.1-17.1-6.2-1.6 1.8-10.2 8.2-12.8 5.1l10.4-22.8c1.9-5.4 6.8 7.6 5.2 10.1l31.2 11.1 40.7 13.8-1 5.3c-7-3.8-15.2-6.5-24-8.5l-0.3 8.4c5.7 3.2 7.2 4.8 11.7 9.7 3.5 1.6 8.2 2.9 11.7 2.6 8.5 0.8 15 1.9 21.1 5.7q2.9-1.1 5.5-2.3c-10-6-10.3-16.9-10.5-26.9q0 0 0.1 0 0 0 0 0 1.2-4.4 3.7-7.4-0.1 0-0.1 0c-2.7 2.5-5 6.8-3.6 7.4q0.3 0.1 1-0.1c8.1-4.9 17.2-3.8 28 1.6l0.9 2.7c4.5-0.6 4 5.2 0.5 5.1l-3.9 8.4-0.4 2.5q2.8 3.3 2.9 12.9c8.2 0.7 15.1 2.9 19.1 8.4 4.8 4.8 9.9 14.3 17.7 34.2 6.8-1 8.5 4.5 11.5 12.4q7.8-3.5 11.9 3.9 7 3.5 8.5 7c0 3.6-1.1 6.5-4.2 7.7q2.8 5.7-5.4 9.7c-3.4 5-7.2 8.9-11.9 10.3l-19.9-16.2-1.3-8.4-2.4-4.5q1.1 4.2-5 8.4c0.8 10.5 6.8 16.1 7.5 28.5l0.3 40.3c-1.1 10.6-4.2 19.3-10.2 26.2v28.8h11.7l0.1 7.3c-4.9 2.6-8.8 6.7-10.7 12.4zm-41.7-318c0.4-7.7 3.1-6.1 4.7-7.4l9.7-0.4c4.7 4.2 8.7 8.2 9 13.3-6.3-6.6-13.8-8.2-24.3-4.5q0.4-0.5 0.9-1zm23.4 5.5q0.6 0.6 1.1 1.2c0.4 1.7 0.6 1.8 0.6 1.8 0 0.1 0 0.5 0 1.7q-0.4-0.2-0.7-0.4l-1-3q0.1-0.7 0-1.3zm-117-8.4c0.3-0.3 0.4-0.4 0.3-0.5-0.5 0.2-0.5 0.3-0.3 0.5zm110.1 32q2.7-4.6 2.7-9.2-2.1-8.1-7.9-9.7l-11.7 0.8-1.2 3.8c-0.9 7.3 1.2 13.8 7.4 20.5q6.5-2.9 10.7-6.2zm-10.7 6.2q0 0 0 0 0.1 0.1 0.2 0.2-0.1-0.1-0.2-0.2zm8.5-18.9c0 0.8-1.1 1.4-2.5 1.4q-0.3 0-0.7 0l-1-2.5q0 0 0 0c0.4-0.2 1-0.4 1.7-0.4 1.4 0 2.5 0.7 2.5 1.5zm-3.2 1.4l0.1 0.1c-1.8-0.2-1.9 2.7-1.8 7.6-1.5 0.2-2.2-1.3-3.1-2.7l-0.6-5.7c-0.5-1.2 0.5-2.8 4.4-1.8-0.5 0.3-0.8 0.7-0.8 1.1 0 0.6 0.8 1.2 1.8 1.4zm-78.3-9.5c2.8 1.3 3.7 5 2.5 14 4 0.8 0.6 0.5 6.3 0.5 5.2-5.3 3.8-7.3 3.8-14.2-5.7 0.7-7.1-6.2-13.2-4.5 0 2.2-0.7 3.6 0.6 4.2zm63.8 251.1l0.1 30.7 35.7 15.2v-50.7q1-4.1 5.7-7.3l-48-0.2q4.6 5.3 6.5 12.3zm-1.7-21.2h36.4l0.1-29.6c6.2-7.2 6.7-14.1 1.4-21.3h-9.7c-9.7 15.4-18.1 28.4-28.3 36.4zm-50.4-206.9c-0.1 6.9 14 13.2 17.6 17 7 6.9 24.3 3.6 28.8 5.9-2.6 6.1-1.5 10.2 0.3 14.2 0.9 2.1 5.5 2.2 5 5.2 0.7 3.3-1.3 6.7-0.9 8.3 0.4 1 5.1 1 3.6 2.9 0.2 3.7-2.9 2.2-2.7 5-1.3 4.2-6.6 3.6-6.7 7.3 0 7.2 1 10.4 1.1 15.7-2.6 5.4-6.4 11.7-8.7 18.1-2.2 6.3 0.9 22.3 3.5 25.1-10.9 18-0.8 10.7 1.3 26.1 1 0 1.6 0 2.6 0 0.8-4.2 9.5-36.7 14.8-40.3 2.6-1.1 3.9 0.9 3.3 3.6-0.8 4-3.6 19.2-12.6 40.1v26c8.4-2.8 22.1-31.4 21.2-49.7 1.4-4.3 2.7-10.5 3.8-12.8-0.6-2.6-3.9-26.1 3-24.9 3.5 0.6 1.8 1.4 2.8 2.4 2.4 5-4.3 54.7-2.3 55.1 8.9 0.2 11.4 1.5 12.4 3 3.2-0.1 6 0.3 7.3-1.1v-39.3c0-1.3-8.2-21.2-9.5-29.8 1.4-5.3 6.9-4.6 7.3-9.7-0.4-1.4-11.5-16.5-10.4-18.6 1-2 2.7-3.1 3.8-5 2.2-1.2 13.4 19.8 14 20.9 1.3 5.3 8 14.8 22 25.4 2.3 0 4.5-1.2 5.2-3.7 0.5-1.6-4.3-5.5-5.2-7.6-0.4-0.9 0.6-3.8-1.1-4.7-1.8-1.8-6.5-11.7-7.2-17-0.2-3.2-6.8-3.1-7-4.3-4.2-9-12.5-29-16.1-34.8-9-5.9-15.8-7.3-19-11.5-1.1-5.2 0.1-8.3-1.2-11.4-1.2 0-2.6 0-3.8 0-1.6 4.4-14.2 11-18.4 9.9-8.9-2.6-17.9-2.6-23-3.9-13.7-5.2-9.7-11.3-22-15.6-0.7 2.6-6.9 5.1-6.9 8.5zm103.7 70.6q0.1 0.1 0 0.1 0-0.1 0-0.1zm27.7 10.3c1.7 0.1 1.5 3.2 4.6 2.7 3.4-2 3.4-4.2 4-7.8-3-2.9-6.1-2.7-9.1-2.7-1.2 3.6-0.3 6 0.5 7.8z"/>
</svg>