<svg version="1.2" xmlns="http://www.w3.org/2000/svg" viewBox="0 0 1280 708" width="1280" height="708">
	<title>Tryavna-ai</title>
	<style>
		.s0 { fill: #009edd;stroke: #2c2e35;stroke-linecap: round;stroke-linejoin: round;stroke-width: 4.8 } 
		.s1 { fill: #ff2e17;stroke: #2c2e35;stroke-linecap: round;stroke-linejoin: round;stroke-width: 4.8 } 
		.s2 { fill: #ffeb3d;stroke: #2c2e35;stroke-linecap: round;stroke-linejoin: round;stroke-width: 4.8 } 
		.s3 { fill: #ffffff;stroke: #2c2e35;stroke-linecap: round;stroke-linejoin: round;stroke-width: 4.8 } 
		.s4 { fill: none;stroke: #2c2e35;stroke-linecap: round;stroke-linejoin: round;stroke-width: 4.8 } 
		.s5 { fill: #ffffff } 
		.s6 { fill: #ffeb3d } 
		.s7 { fill: #2c2e35;stroke: #2c2e35;stroke-linecap: round;stroke-linejoin: round;stroke-width: 4.8 } 
		.s8 { fill: #00ab4f;stroke: #2c2e35;stroke-linecap: round;stroke-linejoin: round;stroke-width: 4.8 } 
	</style>
	<g id="Layer 1">
		<g id="&lt;Group&gt;">
			<g id="&lt;Group&gt;">
				<path id="&lt;Path&gt;" class="s0" d="m642.8 263v-0.1-200.5l205.2 1c-4.2 65.5-7.2 131.7-11.8 197.2q-0.1 1.2-0.2 2.4 0 0 0 0z"/>
				<path id="&lt;Path&gt;" class="s1" d="m449.2 263q0-0.2 0-0.3-0.2-2.8-0.3-5.6l-11.9-195.7 205.8 1v200.5 0.1h193.2-193.2z"/>
				<path id="&lt;Path&gt;" class="s0" d="m642.8 496.8c-96.3-1.8-156.4-61.3-180.3-134.5-10.4-31.7-11.4-66.4-13.3-99.3h193.6z"/>
				<path id="&lt;Path&gt;" class="s1" d="m644.9 496.9q-0.9 0-1.8-0.1-0.2 0-0.3 0v-233.8h193.2c-1.8 28.8-0.7 64.5-12 98-23.8 70.5-81.6 136.9-179.1 135.9z"/>
				<path id="&lt;Path&gt;" class="s2" d="m569 355.2c0 0 0.1 1.9-3.5 7-3.5 5.1-10.1 12.2-10.1 12.2 0 0-6.2 16.1-3.7 23.8 2.4 7.8 4.4 10.5 7.5 12.6 3.1 1.9 10.3 6.3 12.2 12.7 1.8 6.5-2.2 7.7-4.9 12.2 2.3 2.2 7.8 9.3 11.4 10.6 3.5 1.4 8.9 3.4 9.9 1.2 0.5-1.3-0.6-5.2-0.4-8.3 0.2-2.2 1.4-3.9 3.1-4.1 2-0.2 0.2 2.5 2.3 4 1.1 0.8 3.5 0.4 5.1 1.7 1.3 1.2 2 3.7-0.5 5.8-2.1 1.9-2.3 2.3-2.3 2.3 0 0-0.7 0.8 1.8-0.1 2.4-0.9 5.7-2.5 7.3-1.7 1.5 0.8 1.6 1.1 1.6 1.1 0 0-2.3 2.4-2.3 4.4 0 2 1.1 3.1 1.4 4.2 0.3 1-0.8 3.7-0.8 3.7 0 0-2.1-3.3-4.4-4.1-2.4-0.7-6.2-0.1-7.1-0.4-1-0.3-2.7-0.9-2.7-0.9 4 3.7 6.5 0.2 10.4 2.5 2.2 1.4 3.2 5 3.2 5 0 0-3.9 0.1-4.7 3.2-0.8 3-4.5 3.4-6.2 2.2-1.7-1.2-3.2-5-3.2-5 0 0-2-0.6-2.6-1.9-0.4-0.9-2.3-3.6-3.6-4.9-0.5-0.5-1.2-0.4-1.2-0.4-0.1 0 3.1 3.4 3.3 5 0.1 1.5-2 1.2-3.1 2.4-1.1 1.2-2.9 3.7-2.9 3.7-2.7 1.1-8.6-2-8-5.2 0.1-1.1 0.1-1.7 0.2-2.6 0.4-2.3 0.6-1.3 1-3-1.1 2.3-1.6 4.6-1.7 7.2 0 0-4.3-0.8-5.9-2.9-0.7-1-1.9-2.2-2.5-3.8-0.9-2-1-4.4-0.8-5.4 0.5-1.9 1.5-3 1.5-3-3 1.1-0.4 7.6-1.2 9.5-3.8 0.1-9-6.6-9-10.3 0-1.3 0.3-2.4 0.8-3.3 0.3-0.6 0.5-0.9 0.7-1.8 0 0-0.9 1.7-1.4 3.6-0.4 1.6-0.5 3.4-0.4 4 0.3 3-8.7-3.4-5.8-12.5 2.4-7.8 1.1-13.7-2.1-17.5-4.4-5.1-11.8-7.1-12.1-12.4-0.2-2.8-1.8-5.7-1.8-5.7 0 0-1.6 4.3-1.4 7.6 0.5 11.8 7.5 12.6 17.2 13.8 0 0 0.4 1.2 0.9 2.6 0.4 1.4 0.2 0.6 0.5 4.4-7.5 2.2-16-0.6-21.3-6.8-4.8-5.6-6.1-13.4-3.9-19.9 2-6.2 7.2-19.7 8.4-25.3 1.2-5.5 2.8-17.7 2.8-17.7 0 0 3.2-2.5 4.4-4.3 1.3-1.9 1.6-5 1-6.7-0.6-1.6-6.2-6.3-6.2-6.3-0.2-1.2-1.5-5.2-1.6-9.1-0.1-4.9 0.3-11.8 1-11.8l5.8-0.2c0 0 1.3 3.4 3.6 5.1 2.3 1.7 5.7 4.3 5.7 4.3l7.5-10c0 0 7.1 1.7 9.2 3.7 6.8 6.3 9.9 11 14.9 13.1 3.4 1.4 9.1 2.3 14.4 1.7 0.6 3.2-3.7 9-9.9 8.8 1.8 6.1 1.6 6.8 1.1 9.1-0.4 2.3-4 7.2-4 7.2-2.4-2.4-5-6.2-7.3-8.3-1.2-1-3.1-0.6-3.9-1.1-3.2-1.8-9.3-3.4-13-5-3.2-1.3-6.9-3.3-8.6-6.7 0 0 0.7 2.2 4.2 4.3 3.5 2.2 16.7 6.9 16.7 6.9z"/>
				<path id="&lt;Path&gt;" class="s2" d="m570.1 419.7c0 0 2.3-0.5 5.2-0.5 2.8 0 7.1 0.4 11.4 2.5 4 1.9 8.1 4.2 12.2 6.1 3.8 1.8 9.7 3.4 14.1 2.8 9.2-1.4 13.9-3.8 18.6-11.8 0 0 0.7-0.4 0.4 4.5-0.2 2.6-2.5 5.5-5 7.3-2.2 1.6-4.9 2.3-3.3 2.9l4.5-1.7c0 0 0.7 1.2-1.1 3.4-1.7 2.2-3.9 4.2-9.4 4.2-5.5 0-11.8-2.4-15.9-5.1-4-2.6-13.1-7.2-18.4-9-5.3-1.7-6.9-1.1-7.8-0.9-1 0.1-3.4 3-3.4 3z"/>
				<path id="&lt;Path&gt;" class="s2" d="m556.9 389.8c0 0-1.7 3.7-1.8 6.5-0.2 2.8 2.5 12.4 2.5 12.4 0 0-5.2-6.2-5.2-12.9 0-4.6 4.5-6 4.5-6z"/>
				<path id="&lt;Path&gt;" class="s2" d="m557.9 409.2c0 0-1.9-6.4-1.9-9.2 0-2.8-0.9-7.5 1.4-10.6 2.4-3.1 4.3-5.8 7.7-7.4 3.4-1.5 5.6-3.2 8.6-3.6 3-0.3 6.4-0.2 9.3 1.7 2.8 1.8 5.1 5.4 3.4 9.4-1.4 3.3-1.3 3.2-1.3 3.2-0.5 0.6 0.6 2.5 1.7 3.5 2.8 2.7 9.8 6.1 12.2 4.4 3.1-2.2 3.1-3.3 2.4-4.6-0.8-1.2-2.8-3.1-2-5.9 0.8-2.8 1.7-4.3 3.1-4.2 1.4 0.2 0.7 1.1 2.6 2.2 1.9 1.1 5.3 1.7 5.3 1.7 0 0 0.6 3-0.4 4.3-1.1 1.2-2.2 3.1-2.2 3.1 0 0 1.2-0.3 0.1 1.9-1.1 2.2-2.6 4.7-2.6 4.7 0.9 1.2 1.8 1 4-0.5 3-2 3.3-2.2 3.3-2.2 0 0-0.4-2.8 1.7-5 2.2-2.2 4.4-1.5 5.1-0.7 0.7 0.8-0.6 2.1 0 4.1 0.6 2.1 2.3 3 2.3 3 0 0 0 3.8-2.3 4.3-2.3 0.5-6.6-0.2-6.6-0.2-0.1-0.1 0.6 1.3 3.1 1.5 2.5 0.3 3.7 0.4 4.4 1.1 0.6 0.8 1.5 2.4 0.3 3-1.3 0.6-2.9 1.8-2.6 3.2 0.3 1.4-0.1 1.7-0.1 1.7 0 0-0.7 3.9-4.1 2-3.5-1.9-3.1-5.5-3.1-5.5 0 0-0.3 0.4-1.5-0.2-1.3-0.6-2.8-1.1-2.8-1.1 0 0-1.6-1.7-3-2-1.4-0.3-1.1-0.6 0.5 1.1 0.5 0.6 1.2 1.4 1.3 2.3 0.2 1.2-0.3 2.4-0.5 3.3 0 0-1.6-0.3-2.6 0.7-0.9 0.9-3.9 3.6-5.2 2.9-0.6-0.3-1.1-1.9-2.1-3.5-0.9-1.6-2.2-2.6-2.7-2.7-1.1-0.4 0.4-7.6-1.5-0.1-0.2 0.9 0 2.6-0.3 4-0.4 1.6-3.3 0-5.1-2-1.1-1.2-1.5-2.8-1.6-3.3-0.3-2.4 0.6-4.9 0.6-4.9v-2.8c0 0-1 6.2-1.3 7.8-0.3 1.5-1.6 1.2-3.1-0.2-0.5-0.5-2.5-2-2.6-4-0.3-4 1.5-9 1.5-9-0.6 0.3-0.4 0.5-1 0.8l-2 8.8c0 0-3.7-2.2-4.8-5.1-1.1-2.9 1.8-9.8 1.8-9.8l-0.7-0.2-2.1 6.4c0 0-2.8-0.6-5.8 1.2-2.9 1.9-6.2 7.2-6.2 7.2z"/>
				<g id="&lt;Group&gt;">
					<path id="&lt;Path&gt;" class="s3" d="m592.2 436.1c0 0 0.6-1.2 2.3-1.6 1.6-0.4 3.9-0.2 3.9-0.2 0 0-0.7 0.6-1.3 1.8-0.5 1.2-0.5 3.2-0.5 3.2 0 0-2-0.2-3.2-1.1-1.2-0.9-1.2-2.1-1.2-2.1z"/>
					<path id="&lt;Path&gt;" class="s3" d="m585.9 466.6c-1 4.2-1.5 3.6-1.5 3.6 0 0-0.4-1.7-1.4-2.7-0.9-1-2.4-0.9-2.4-0.9 0 0 0-0.5 0.3-1 0.2-0.5 0.8-1.3 1.5-1.8 1-0.9 2.3-1.3 2.9-0.5 0.4 0.4 0.9 1.7 0.6 3.3z"/>
					<path id="&lt;Path&gt;" class="s3" d="m606.3 450c0 0 2.4-0.4 3.7 1 1.2 1.4 2.2 3.4 2.2 3.4 0 0-1-0.5-2.8-0.6-1.8-0.1-4.4 0.6-4.4 0.6 0 0-0.6-2 0-3.4 0.6-1.5 1.3-1 1.3-1z"/>
					<path id="&lt;Path&gt;" class="s3" d="m603.2 463.6c0 0 1.3 0.6 1.8 2.2 0.5 1.5 0.2 3.3 0.2 3.3 0 0-0.6-0.7-2.1-1.4-1.4-0.8-3.7-1-3.7-1 0 0 0.4-1.6 1.4-2.6 1-0.9 2.4-0.5 2.4-0.5z"/>
					<path id="&lt;Path&gt;" class="s3" d="m600.3 419.8c0 0 1.7-2.3 2.4-2.3 0.7 0 1.2-0.7 1.4 0.7 0.3 1.5 0.3 5 0.3 5 0 0-1.2-0.2-2-1.2-0.9-1-2.1-2.2-2.1-2.2z"/>
					<path id="&lt;Path&gt;" class="s3" d="m618.3 416.9c0 0-0.2-2.7 0.3-3.2 0.5-0.5 1.5-1.5 2.6-0.5 1.1 1 2.8 3.4 2.2 5-0.9 0.5-0.9-0.7-2.2-0.9-1.3-0.2-2.9-0.4-2.9-0.4z"/>
					<path id="&lt;Path&gt;" class="s3" d="m620.2 401.4c0 0-0.8-3.4-0.3-3.8 0.5-0.5 1.5-0.8 2.7-0.7 1.1 0.1 3.8 1.1 3.2 3-0.9 0.5-1.6-0.3-3 0.5-1.9 0.7-2.6 1-2.6 1z"/>
					<path id="&lt;Path&gt;" class="s3" d="m610.8 382.8c0 0-1 2-1.6 3.1-0.5 1.1-0.3 2.9-0.3 2.9 0 0-1-0.1-2.5-0.5-1.5-0.4-1.7-1.2-1.9-1.9-0.3-0.7 1.3-1.5 2.6-2.5 1.4-1 3.2-1 3.2-1z"/>
				</g>
				<path id="&lt;Path&gt;" class="s3" d="m598.2 330.1c0.2-2.1 2.6-3.1 4-3.1 1.5 0.1 2.1 0.8 1.9 3.2 0 0-0.1 3.4-0.5 6.6-0.4 2.8-0.8 5.5-0.9 6.5-0.3 2.3-1.5 2.5-2.2 0.5-0.4-1.5-1.2-4.3-1.6-6.5-0.4-2.3-0.6-4.9-0.7-7.2z"/>
				<path id="&lt;Path&gt;" class="s2" d="m583.9 348.8c0 0 2.8 0.3 4.2-0.4 1.4-0.8 2.5-2.2 2.5-2.2l10.6 7.5c0 0 3.2-4.4 5.4-7.1 2.2-2.6 5.6-3.6 5.6-3.6v7h7.2v-7.2c0 0 4.4 0.1 5.4 3.6 1 3.5 0.9 7.4-1 8.7-1.9 1.2-3.3 1.1-3.3 1.1l-9 0.4 0.2 0.4c0 0 9.7 0 11.5-0.6 1.7-0.6 2.8-3 2.8-3 1.9 3.5 1.1 6.3-1.4 9.7-0.7 1.1-2.5 0.8-2.5 0.8l-10.4 0.2-0.2 0.4c0 0 10.3 0 11.6 0.2 1.2 0.2 1.7-1 1.7-1 0 0 0 2.2-0.6 4.5-0.7 2.6-1.7 3.6-3.6 4.1-3.2 1-7.4 0.5-10.6 0.4l-24.5-16.5z"/>
				<path id="&lt;Path&gt;" class="s3" d="m612.2 373.1l5.9-0.1c0 0 0 4.4-0.5 7.6-0.3 2.8-0.7 5.6-0.9 6.5-0.3 2.1-1.6 2.3-1.9 0.4-0.6-1.4-1.4-4.2-1.8-6.4-0.5-2.3-0.7-5.7-0.8-8z"/>
				<path id="&lt;Path&gt;" class="s3" d="m612.5 340.5c-0.3-4.6 0.7-6.5 2.7-6.3q2 0 4 0v14.9h-6.7z"/>
				<path id="&lt;Path&gt;" class="s3" d="m613.2 327q2.9 0.7 5.6 0v6.4h-5.6z"/>
				<path id="&lt;Path&gt;" class="s3" d="m614.8 290.4c0 0 5.4 2.2 6.9 8.3 1.5 6.1 2.4 13.4 1.3 18.1-1 4.7-3.6 8.9-3.6 8.9l-3.4 1.3c0 0 2.1-4.8 2.8-8 0.6-3.2 0.6-7.3-0.3-9.9-0.9-2.7-2-4.3-1.1-1.2 0.9 3.1 1.3 6.9 0.2 10.8-1 3.9-2.1 8.2-2.1 8.2l-2.1-0.8c0 0-1.5-1.2-1.9-3.4-0.9-5.1-1.7-10.1-0.1-15.2 0.8-2.4 2.6-5.1 3.3-8.3 0.8-3.9 0.1-8.8 0.1-8.8z"/>
				<path id="&lt;Path&gt;" class="s2" d="m583.8 320.5c1.2 2.1 0.5 5.5 0.3 7.3-0.3 1.8-1.3 4.1-1.3 4.1 0 0 4.8 1.4 6.5 2.8 1.7 1.4 2.5 4.4 2.5 4.4-7.1 0.5-10.8 0-17-4.4-1.8-1.2-3.9-4.3-3.9-4.3 0 0 4.9-3.7 6.7-6 1.9-2.3 3.4-7.6 3.4-7.6 0 0 1.7 1.6 2.8 3.7z"/>
				<path id="&lt;Path&gt;" class="s2" d="m590.1 319.7l3.4 2.2c0 0-1.5 1.5-2.5 2.6-1 1-2.7 2.8-2.7 2.8 0 0 1.8 1.1 4.5 2.3 2.7 1.2 2.7 0.8 2.7 0.8 0 0-3.2 1.4-4.2 2.1-1 0.7-1.6 2.1-1.6 2.1 0 0-2.5-1.8-4.2-2.4-1.7-0.6-2.6-0.7-2.6-0.7 0 0 0.7-1.2 1.4-2.9 0.7-1.6 0.4-5 0.5-5 0.1 0 5.3-3.9 5.3-3.9z"/>
				<path id="&lt;Path&gt;" class="s2" d="m589.7 312.1c0 0 0.4-1 2.8-3.4 1.4-1.5 3.3-3.6 6.5-4.4 3.7-0.9 7.1 1 7.3 3.3 0.1 1.5-0.9 4.6-1 4.5-1.9-0.9-4.3-1.5-6.2-0.8-3.4 1.4-5.5 3.6-6.4 4.4z"/>
				<path id="&lt;Path&gt;" class="s2" d="m589.8 319.3c0 0 0.5-1 2.8-3.4 1.5-1.5 3.5-3.3 6.5-4.4 3.4-1.3 5.8-0.9 6.7 2.8 0.4 1.4-0.2 5-0.2 5-0.7-0.9-2.7-0.7-3.9-0.6-2.9 0.3-6.2 2-7.5 3.2z"/>
				<path id="&lt;Path&gt;" class="s2" d="m588.8 327.2c0 0 2-1.9 4.4-4.4 1.3-1.3 4.3-3.2 7.4-3.9 3.3-0.8 7.1 0.1 6.3 3.7-0.2 1.4-2.3 4.2-2.3 4.2-1.7-1.5-4.8-0.8-6.6 1.1-0.8 0.9-1.5 2-2.1 2.5z"/>
				<path id="&lt;Path&gt;" class="s3" d="m598.5 293.5l5.1-0.2 1 10.4c0 0-0.7-0.5-2.3-0.6-1.5-0.1-4.3 0.5-4.3 0.5z"/>
				<path id="&lt;Path&gt;" class="s3" d="m596.6 270.3l3.9 5.2 0.1 7.9 0.6 0.3 0.4-8.4 3.7-5.8-0.1 12.2c0 0-1.2 1.3-1.8 3.6-0.6 2.3-1.1 6.7-1.1 6.7l-3.1-0.1c0 0 0.3-2.9-1.1-6.1-1.4-3.1-1.7-3.9-1.7-3.9z"/>
				<path id="&lt;Path&gt;" class="s3" d="m596.8 268.5h7.5l-3.4 5.5z"/>
				<path id="&lt;Path&gt;" class="s2" d="m738.6 278.4c0 0-0.4-0.7 0.2-1.6 0.7-0.9 2-2.2 4.9-1.9 2.8 0.2 6.9 0.2 9.5 0.7 2.6 0.5 9.8 3.2 10.9 3.6 0.8-0.4 2-2.1 4.7-2.5 0 0 3.9-0.1 5.5 1.4 3.9 3.7 2.3 5.8-0.2 9.5 0 0 1.5 0.3 1.5 4.9 0 4.1 0 8.4-0.5 12.6-0.7 5-2.1 9.8-3.6 14.9-3.1 11.2-8.6 23.6-10.2 35.1 0 0 1.3-1.6-2.7-0.3-4.1 1.2-15 6.6-15 6.6 0 0-6.2 5.4-13.4 4.8-7.2-0.6-8.1-5.1-8.1-5.1 0 0 3.2-3.2 5.3-4.7 2.1-1.5 7.2-5.8 10.8-7.5 3.6-1.7 5.5-3.3 7.3-3.6 1.8-0.2 2.1-0.5 2.1-0.5 0 0 0.8-0.3-1.5 0.4-2.3 0.7-2.7 0.7-7.5 3.2-6.4 3.3-10.6 8.8-17.8 12-2.5 1.2-4.9 1.1-6.2 1.2-4.5 0.4-7.6-5.2-7.6-5.2 0 0 0.7 0.6 2.4-0.2 1.8-0.8 10.7-8.9 10.7-8.9 4.4-3 9.3-7.5 14.2-9.5l6.9-2.8c0 0 0.3-0.5-0.9-0.3-1.2 0.1-7.9 3.1-7.9 3.1l-11 8c0 0-9.7 8.1-12.4 9.1-3.8 1.3-8 0-10.3-1.9-1.5-1.2-2.3-2.2-3.6-4.1-1.3-1.9 14.6-9.5 15.8-10.5 4.9-4.1 8.6-7.3 12.4-9.2 2-1 3.8-1.7 6.7-2.3 1.3-0.2 3.3 0.4 4.8 0.1 0 0 2.2-0.8-0.6-0.8-5.5 0-10.1 1.7-14.3 4.4-6.6 4.2-18.6 17.8-27.2 16.8-2.8-0.4-9.6-4.9-8.1-5.8 0 0 0.6 0.4 4-0.7 5.5-2 11.1-7.3 17.1-12.3 9.1-7.9 10.2-8.2 15.7-9 8.7-1.2 20.9-1.1 20.9-1.1 2.6-1.1 5.3-1.8 8.1-2.2 3.1-0.4 6.1-0.6 8.7-4.1 2.8-3.8 4.5-9.4 2.7-12.1-0.3-0.5 0.9-0.7 1 1.6 0.2 2.2-1.4 7.8-3.4 10.2-2 2.4-5.7 3.3-11 2.7-4-0.4-10.3-2.4-14.2-1.3 0 0-1 1.4-2.4 1.2-1.4-0.3-2.4-0.4-3.3-2.3-0.9-1.8-0.1-4.7-0.1-4.7 0 0 1 0.7 2.4 0.8 1.3 0.1 3.8-0.2 3.8-0.2 0 0 0 0.5 2.9 0.9 2.8 0.4 4.6 0 5.5-0.7 0.9-0.6 2.1-2.6 2.6-5.1 0.8-4.2-0.1-9-5.2-9.7-2.9-0.4-7 1.2-7.7 1.7-0.7 0.6-1.7 0-3.1 0.5-1.4 0.5-3.2 1.8-3.2 1.8 0 0-2.1-1.5-3.2-2.7-1.2-1.6-2.3-7.4 1.2-9.4 2.1-1.1 4.4-1.2 4.4-1.2 0 0 0.6-1-0.9-0.8-1.4 0.3-3.9 1.1-3.9 1.1l-0.1-3.7c0-1.9 12.8-0.3 13.9-0.6l1.5-0.5 7.8 0.4c0 0-2.1 1.5-2 3.2 0.2 4.1 3.1 7 7.6 6.4 3.6-0.4 4.8-4.8 5.4-4.3l3.4 2.6 0.3-0.6c0 0-2.2-2.1-5.2-4.6-3-2.4-16.3-5.6-18-4.4z"/>
				<path id="&lt;Path&gt;" class="s3" d="m754.6 282.6c4.5 1.2 2.7 4-0.2 5.6-5.7 3-10.6-4.3-7-7.2 0.4-0.3 0.6-0.5 1.3-0.6 0.5-0.1 1.4 0.6 1.4 0.6-0.2 0.5-0.6 0.9-0.7 1.1-1.2 3.1 2.1 4.2 4.1 3.4 1.8-0.8 3.5-3.6-0.3-0.6-1.1 0.8-3.1-0.5-3.1-1.7 0-0.7 1.1-2.2 1.1-2.2 0 0 2.5 1.2 3.4 1.6z"/>
				<path id="&lt;Path&gt;" class="s3" d="m727.9 297.8c0 0 0.5-1.1 1.9-1.2 0.4-0.1 1.3-0.4 1.5 0.1 0.4 1.1-0.2 3.6-0.2 3.6 0 0-1.4-0.3-2.2-1-0.7-0.7-1-1.5-1-1.5z"/>
				<path id="&lt;Path&gt;" class="s3" d="m729.9 305.2c0.6-0.8 1.9-1.4 1.9-1.4-0.4 0.1 0.4 2.7 0.9 3.5 0.3 0.5-1 0.4-1.5 0.4-1.3 0.2-2-0.8-2-0.8 0 0 0.1-0.8 0.7-1.7z"/>
				<path id="&lt;Path&gt;" class="s2" d="m744 305.8c-0.9 0.9-1.9 1.6-1.9 1.6-0.1 0.1-2.8-3.9-6.8-4.5-4-0.6-7.5 0.5-10.3 1.5-2.8 0.9-6.3 2-9.7 0.2-3.5-1.8-6.8-3.3-7.7-5.7-1-2.3-1.4-7.4-1.2-9.4 0.1-2.1 0.3-2.7-0.7-4.6-0.9-1.8-2.7-3.8-2.7-3.8 2.6-1.3 8.7 1.4 9.5 4.1 0.7 2 1 4 1.8 8 0.6 3.5 1.6 7.2 5.7 8.1 2.8 0.6 5.4 0.4 7.6 0.5 2.3 0.1 4.7-0.4 4.7-0.4 0 0 0.1-0.8 2-1 1.9-0.1 3.5-0.1 5.9 0.9 0.4-0.6 7.2 1.1 3.8 4.5z"/>
				<path id="&lt;Path&gt;" class="s2" d="m679.4 290.1c0 0-0.5-1.5 0.7-3.5 0.8-1.3 1.6-2.5 2.8-2.9 1.2-0.5 3.1-1.1 4.3 0.1-0.3 0.3 1.5 3.1 5.2 3.6 0 0 1.9 3.9 1.2 5.7-1.5 4.1-3.6 5-5.5 5.2 1.4 8.7 24.5 23.2 24.4 23.2l-12.5 10.2-11.2-10.7 0.6-3.1c0 0-3.2 5.1-5.9 4.3-2.7-0.8-4.9-0.2-4.9-0.2 0 0 0.1-4.1 0-6.7-0.2-2.5-3-7.9-3-7.9 0 0-1.9 3.6-4.6 4.1-2.6 0.5-4.7 0.7-5.3-0.5-0.6-1.2-0.5-1-1.2-2.2-0.6-1.1-3.2-2-3.2-2 0 0-0.9-3.4 0.8-6.1 1.7-2.7 8-4.6 7.6-4.7-4.2-1-9.8-5.5-6.5-10.2 0.5-0.7 1.9-1.3 2.8-1.9 1.5-1.2 2.7-2.4 4.5-2.8 2.8-0.6 5.5 0.2 6.6 2.8 0.6 1.5 0.7 5.1 0.7 5.1z"/>
				<path id="&lt;Path&gt;" class="s3" d="m672.1 320.5c0 0 0.4-1.5 2.2-2 1.7-0.5 3.3-0.6 3.3-0.6v2.8z"/>
				<path id="&lt;Path&gt;" class="s3" d="m663 344.9c0 0 0.9-0.2 3 0.3 2.1 0.6 3.5 2.1 3.5 2.1l-4.5 2.9c0-1.9-0.8-3.6-2-5.3z"/>
				<path id="&lt;Path&gt;" class="s3" d="m661.6 307.6l2.8 3.3c0 0-0.9 1-2.8 1.5-1.8 0.5-5.1-0.4-5.1-0.4 0 0 0.2-0.2 1.8-1.2 1.6-1 3.3-3.2 3.3-3.2z"/>
				<path id="&lt;Path&gt;" class="s3" d="m652.4 375.9c-1.3 1.4-1.6 1.6-1.6 1.6 0-0.4-0.1-1.7 0.3-2.9 0.7-1.8 2.4-3.4 3.4-2.9l1.9 2.8c0 0-2.7 0.1-4 1.4z"/>
				<path id="&lt;Path&gt;" class="s3" d="m661.1 278.8c0 0 2.5-0.6 3.9 0.4 1.3 1 2.7 2.2 2.7 2.2l-3.8 2.8c0 0-0.1-1.1-0.7-2.4-0.6-1.2-2.1-3-2.1-3z"/>
				<path id="&lt;Path&gt;" class="s3" d="m691.8 278.6c0 0 1.3 2.3 1.2 4-0.1 1.6-0.3 2.4-0.9 3.5-1.5-0.3-2.9-1-4.1-2.2 1.5-1.5 1.2-0.7 1.9-1.9 0.7-1.1 1.9-3.4 1.9-3.4z"/>
				<path id="&lt;Path&gt;" class="s2" d="m696 351.9c0 0 0.5 1.5 3.1 3 2.7 1.4 6.9 1.4 6.9 1.4 0 0 1.4 4.2 3.9 5 2.6 0.9 7.8 1.5 7.8 1.5 0 0 1.9 3.9-2.1 8-4 4.1-9.7 3.4-9.7 3.4l1.3-7.9c0 0-0.3 3.3-2.4 6.9-2.1 3.7-6.8 4.2-6.8 4.2 0 0-1.3-3.1-5.1-4.5-3.7-1.5-9.8-0.8-11 0.2 0.5 1.5 1.2 3.5 1 5.5-0.2 1.9-3 5.3-3 5.3 0 0-1.6-1.8-3.3-1.3-1.8 0.6-2.6 0.7-3.4 1.1-0.8 0.3-4.1-2.5-4.8-5-0.7-2.5 1.7-5.5 1.7-7.4-1.3 0.4-3.2 4.4-5.2 4.9-1.9 0.5-5.7 0.3-6.6-0.7-0.9-1.1-1.5-2.6-2.4-3.5-0.9-0.9-1.6-1.8-1.6-1.8 0 0-0.5-1.6 0.2-3.2 0.7-1.6 2.1-4 3.9-4.3 1.8-0.4 8.3-1.5 8.3-1.5 0 0-1.2 0-2.8-2.5-2.1-3.2-2.4-6.3 1.6-7.9 2.6-1.1 4.4-3.2 4.4-3.2 0 0 0.9-1.1 4.1 0.3 3.3 1.5 4.3 2.5 3.6 5.4-0.7 2.9-1.6 4.5 0.2 4.7 1.8 0.1 7.5-0.4 11.1-2 3.5-1.6 7.1-4.1 7.1-4.1z"/>
				<path id="&lt;Path&gt;" class="s3" d="m674.6 384.4c0 0 0.5-0.3 1.7-0.4 1.2 0 2.7 0.3 2.7 0.3 0 0-0.7-0.2-0.9 1.5-0.2 1.6-0.3 3.3-0.3 3.3 0 0-2.2-0.9-2.6-2.1-0.5-1.7-0.6-2.6-0.6-2.6z"/>
				<path id="&lt;Path&gt;" class="s3" d="m674.5 405c0 0-1 0.9-2.9 1.1-1.9 0.1-2.9 0-2.9 0 0 0 0.7-0.5 1.1-2.1 0.3-1.6-0.2-4.5-0.2-4.5 0 0 3.2 2.1 3.6 3.3 0.8 1.2 1.3 2.2 1.3 2.2z"/>
				<path id="&lt;Path&gt;" class="s3" d="m653.4 423.6c0 0 0.7 0.7 0.9 2.4 0.1 1.7-0.2 2.4-0.2 2.4 0 0-0.5-0.4-1.9-0.6-1.5-0.3-4 0.7-4 0.7 0 0 2.1-2.8 2.9-3.5 1.1-1 2.3-1.4 2.3-1.4z"/>
				<path id="&lt;Path&gt;" class="s3" d="m670.2 442.8c0 0 0.9-0.6 2.6-0.5 1.7 0.1 2.4 0.4 2.4 0.4 0 0-0.5 0.7-0.9 2.2-0.5 1.5-0.1 3.7-0.1 4-0.3-0.2-2.5-2.4-3.1-3.4-0.7-1.2-0.9-2.7-0.9-2.7z"/>
				<path id="&lt;Path&gt;" class="s3" d="m692.8 373.9l3.1 2.1c0 0-0.8 1.3-2.8 2-2.1 0.8-2.5 0.8-2.5 0.8 1-1.5 1.7-3.1 2.2-4.9z"/>
				<path id="&lt;Path&gt;" class="s2" d="m721 361.7c0 0 1 0.6 1.8 1.5 2.2 3 8.6 4 12 2.7 2.3-0.8 14.7-7.2 21.1-10 1.9-0.8 5.2-1 5.2-1-1.1 8.5-1.1 30 11.4 30.3 22 0.6 5.9-34.2 5.3-47-0.3-5.6-0.2-12.4 0.8-18.1 0.4-2.3 3.3-17.5 13.2-22.7 7.7-4.1 18.5-5.7 25.6 1 4.4 4.2 6.8 7.4 7.5 13.6 1.2 11-0.8 21.6-8.3 30.1-3.7 4.1-8.3 6.6-8.3 6.6 0 0-0.2-1.2-0.8-2.7-0.6-1.5-1.5-4.2-1.5-4.2 6.9-5 9.2-10.6 9.5-18.8 0.2-4-0.1 0.9-1.4 5.4-0.5 1.9-1.5 3.6-2.2 4.8-2.3 3.9-6.6 8.3-6.9 7.9l-4.3-6.6c4-3.6 8.8-10.4 7.8-16.1 0 0-0.7 3.8-2.5 6.9-0.5 0.8-1 2-1.7 3-1.7 2.6-3.8 5-3.8 5-3.8-1.9-4.6-8.5-3.7-14.3 0.8-4.6 2.7-8.2 5.3-10.1 2.6-1.9 8.1-3.6 8.1-3.6 0 0 1.6-0.1-1.4-1.2-9.4-3.2-15.4 1.6-19.1 10.3-3.3 7.7-3.3 13.6-2.5 22 0.8 8.4 2.3 11.8 4 22.1 1.6 10.3 3.5 12.5 1.9 19-1.5 6.5-4.3 11.8-6.8 13.2-3.7 1.9-9.1 2.9-11.9 2.8-3.9-0.1-5.1-2.2-9.9-4.7 0 0 0.6 2.4 0.4 4.2-0.1 1.8-0.3 4-0.8 6.5-0.5 2.6-0.5 4.5 1.2 6.8 1.6 2.3 3.1 4.1 4.6 6.1 1.6 2 2.3 3.8 2.1 5.6-0.1 1.8-1.9 5-3.1 5.5-1.1-2.6 0 0.1-1.3-2-1.3-2.1-3.6-3.1-3.6-3.1 0 0 0.6 1.2 1.6 2 1.1 0.8 2.1 2.3 2.6 5 0.5 2.8-2.9 7.4-3.6 7.3-1.2-2.2-3-4.4-4.9-5.7-0.4-0.3-0.3 0.6-0.7 0.3-0.1-0.1 3.4 2.7 4.3 6.3 0.4 1.5 0.2 3.6-0.7 4.9-1.8 2.4-2.9 3-2.9 3-1-2.8-2.9-4.3-5.3-5.2q-2.5 3.7-5.5 6.3l-0.2 5.3c0 0-4.4-1.2-7.6-0.7-3.3 0.6-5.7 2.5-5.7 2.5 3.9 4.6-0.1 9.2-2.3 11.6 0 0-1.3-0.3-3.2-0.3-1.8 0-4 0.7-4 0.7 0 0-3.1 0.2-3.5-2.9-0.5-3.2 0.3-7.5 0.3-7.5l-1.2 1.1c0 0-1.5 4.5-5.4 5.3-3.8 0.8-7-1.6-7.6-3.2-0.5-1.7-0.6-1.4-1.2-2.6-1.7-3.5-1.3-9.2 4-9.2 2.7 0 8 0.1 8 0.1 0 0-0.8-0.3-1.9-3.6-0.3-0.7-1.6-0.5-1.8-2.5-0.3-2.7 1.1-6.8 4.8-5.4 2.1 0.8 4.2-0.9 5.6-0.7 1.4 0.1 3.1-0.2 3.6 2.3 0.5 2.4-0.1 5.4-0.1 5.4 0 0 0.8 0.9 3.6-1.5 2.8-2.3 7-5 8.8-6.9 1.7-2 4.3-5.4 3.7-7.6-0.6-2.2-6.7-7.9-7.3-9.5-0.6-1.6-1.7-3.7 0.4-9.2 2.1-5.7 4.3-8.4 4.4-11.2 0.1-2.8 0.9-7.6-2.6-10.9-3.5-3.4-11.2-6.8-14.9-9.6-3.6-2.8-6.5-8.8-5.8-9.2z"/>
				<path id="&lt;Path&gt;" class="s2" d="m735.2 381.6c0 0 2.5-0.6 4.5 1.9 2.1 2.5 2.7 3.7 2.4 6.8-0.2 3.2-2 6.8-2 6.8 0 0-1.6-2.4-2-3.8-0.5-1.4 0.4-3.2 0.4-5.3-0.1-3.1-3.3-6.4-3.3-6.4z"/>
				<path id="&lt;Path&gt;" class="s2" d="m737.2 394.2c0.6 3.7 3.4 3.4 3.4 3.4l-1.8 2.5c0 0-12-3.6-15.5-3-3.4 0.6-2.4 1.7-2.4 1.4 0-0.2 4.6 4.2 3.9 7.3-0.7 3.1-2.7 4.1-2.7 4.1-1.2-2.3-2.4-4.2-4.9-5.3 0 0 3.6 4.2 4.1 5.6 0.6 1.3-2.4 6.9-4.3 6.7 0 0-1-2-1.9-4.1-0.9-2.1-7.1-5-3.4-2.5 4.2 2.8 5.7 9.4 0.4 12.3q-2-4-5.5-5.2l-2.3 3.2-3.3 2.4c0 0 0.3 4.6-0.9 6.2-1.1 1.7-4.5 3.2-4.5 3.2 0 0-2.1-3.2-6.8-3.7-4.7-0.5-8.7 1.4-8.8 2.2 0 0.9 1.6 2.2 0.5 5.8-1.2 3.5-2.6 4.5-4.4 4.8-1.7 0.4-2.7-0.6-4.6 0.1-3.3 1.3-6.4-3.3-6.7-5.8-0.2-2.4 1.3-3.1 2.5-6 0.6-1.3-4.8 4.1-8 3.2-3.2-0.9-4.3-4.1-4.3-4.1 0 0 1-4.2-0.6-5.6-2.8-2.4 4-5.9 5.5-5.8 3.2 0.2 5.9 1 8.2 1.8 0.6 0.1-2.8-3.8-3.5-6.6-0.7-2.8 3.7-5.8 3.7-5.8h5.2c0 0 2.2-1.4 5 0 2.8 1.4 1 6.6 1 6.6 0 0-1.5 3.4-0.4 4.6 2.1 2.6 17.4-5.8 17.7-11.9 0 0-2.8-4.2-1.5-9.4 1.1-4.5 4.8-10.5 9.3-12.8 10.8-5.3 22.8-2.8 33.2 2.2 0 0-1.2 4.3-0.6 8z"/>
				<g id="&lt;Group&gt;">
					<path id="&lt;Path&gt;" class="s4" d="m600.8 124.1l-4.7 0.5c-0.6-2.6-3-12.9-12.2-21-4.9-4.2-12.8-4.4-27.7-4.4h-5.4l-1.6 112.4c-0.3 17.2 1 27.2 17.7 27.1l0.5 4.5-54 0.4v-5c1.6-0.2 3.2 0.6 6.4-0.6 10.1-3.4 12.8-14.6 12.8-26.3v-112.5h-5c-7.7 0-15.1-0.2-22.5 1.4-8.6 1.9-15.5 10.1-17.1 23.5l-5 0.4 5.6-32.8h105.5z"/>
					<path id="&lt;Path&gt;" class="s4" d="m472.1 146.6v18.5 0.4q0 1.4 0.6 2.1c0.7 0.8 3.4 1.4 5.1 1.4l-0.1 2.2h-15.8v-2.2c4.1 0 5.7-1.9 5.8-5.6l-0.1-7.5c0-1-0.7-2.5-1.4-3.1-0.9-0.7-2.2-0.8-3.9-0.7l0.1-1.8c3.8-0.7 6.2-2.5 9.7-3.7z"/>
					<path id="&lt;Path&gt;" class="s4" d="m499 146.2l16.4 0.4c0 0-1.4 4.6-2.3 4.8-1 0-12.9 0.2-12.9 0.2l-2.2 7.7c7.2 0.8 14.4 4 14.2 10.3-0.2 8.7-4.5 14-13.2 15.2-2.2 0.3-4.6 0.3-6.2-0.5-1.1-0.5-2.4-1.4-2.4-2.6 0-1.7 1.6-3.3 3-3 1.4 0.2 3.1 2.4 3.5 2.9 0.3 0.6 1.3 1.5 2.7 1.1 1.5-0.5 3.5-0.8 5.2-2.9 1.7-2.2 2.6-3.7 2.8-7.1 0.3-3.4-1.1-5-3.4-6.9-2.3-2-9.7-2.3-9.7-2.3z"/>
					<path id="&lt;Path&gt;" class="s4" d="m615.4 145c5.1 1.3 10.4 1.8 16 0.4 0.2 2.7-2.4 6.2-5 6.5-1.3 0.2-3.5-0.2-5.9-0.5-2.4-0.3-4.5-0.6-4.6-0.3l-2.5 7c7.1 0.8 13.8 4 13.4 10.3-0.7 8.7-4.7 14-13.4 15.2-2.3 0.3-4.5-0.3-6.2-1.1-1-0.5-2.2-2.7-2.1-3.9 0-1.7 1.9-2.2 3.3-2 4.5 0.9 1.4 3.7 4 5 1.6 0.9 6.2-0.4 8-2.5 5.2-6.4 2.7-12-2.3-14.8-2.5-1.4-5.6-1.6-8.5-1.8 1.7-5.7 4-11.7 5.8-17.5z"/>
					<path id="&lt;Compound Path&gt;" fill-rule="evenodd" class="s4" d="m583.2 131.2l1 1.8c-3.3 1.6-10 11.4-9.9 16.6 3.5-1.5 7.3-2.5 10.6-1.8 4 0.9 8.1 4.4 8.4 8.6 0.4 6.8-5.5 13.7-11.9 13.9-7.1 0.2-12.5-3-13.5-10.8-0.5-4.4-0.1-8 1.6-12.1 1.4-3.4 3.1-6.1 5.7-9 2.7-2.9 4.6-5.2 8-7.2zm-11.1 28.1c0 4.9 3.9 8.9 8.5 8.9 4.7 0 8.6-4 8.6-8.9 0-4.8-3.9-8.8-8.6-8.8-4.6 0-8.5 4-8.5 8.8z"/>
					<path id="&lt;Path&gt;" class="s5" d="m600.4 123.4l-4.7 0.6c-0.6-2.7-3-13-12.2-21.1-4.9-4.2-12.8-4.3-27.7-4.3h-5.4l-1.6 112.3c-0.3 17.2 1 27.2 17.7 27.2l0.5 4.4-54 0.4v-5c1.6-0.2 3.2 0.6 6.4-0.5 10-3.5 12.8-14.7 12.8-26.4v-112.4h-5c-7.7 0-15.1-0.4-22.4 1.3-8.7 1.9-15.6 10.1-17.2 23.5l-5 0.4 5.6-32.8h105.5z"/>
					<path id="&lt;Path&gt;" class="s6" d="m471.7 145.9v18.5 0.4c0 1 0.2 1.7 0.6 2.1 0.7 0.8 3.4 1.4 5.1 1.4l-0.1 2.3h-15.9l0.1-2.3c4.1 0 5.7-1.9 5.8-5.6l-0.1-7.5c0-1-0.7-2.5-1.4-3.1-0.9-0.7-2.2-0.8-3.9-0.7v-1.8c3.9-0.7 6.3-2.5 9.8-3.7z"/>
					<path id="&lt;Path&gt;" class="s6" d="m498.6 145.5l16.4 0.4c0 0-1.4 4.7-2.3 4.8-1 0.1-12.9 0.2-12.9 0.2l-2.2 7.7c7.2 0.8 14.4 4 14.2 10.3-0.3 8.7-4.5 14-13.2 15.2-2.3 0.3-4.6 0.3-6.2-0.5-1.1-0.5-2.4-1.4-2.4-2.6 0-1.7 1.6-3.3 3-3 1.3 0.2 3.1 2.4 3.5 2.9 0.3 0.6 1.2 1.6 2.7 1.1 1.5-0.5 3.5-0.8 5.2-2.9 1.7-2.2 2.6-3.7 2.8-7.1 0.3-3.4-1.1-5-3.4-6.9-2.3-1.9-9.7-2.3-9.7-2.3z"/>
					<path id="&lt;Path&gt;" class="s6" d="m615 144.4c5.1 1.2 10.4 1.7 16 0.3 0.2 2.7-2.4 6.2-5 6.5-1.3 0.2-3.5-0.2-5.9-0.5-2.4-0.3-4.5-0.6-4.6-0.3l-2.5 7c7.1 0.8 13.8 4 13.3 10.3-0.6 8.7-4.6 14-13.3 15.2-2.3 0.3-4.5-0.3-6.2-1.1-1.1-0.5-2.2-2.7-2.2-3.9 0.1-1.7 2-2.2 3.3-2 4.6 1 1.5 3.7 4 5 1.7 0.9 6.3-0.4 8.1-2.5 5.2-6.4 2.6-12-2.3-14.8-2.5-1.4-5.6-1.6-8.5-1.8 1.7-5.7 4-11.7 5.8-17.4z"/>
					<path id="&lt;Compound Path&gt;" fill-rule="evenodd" class="s6" d="m582.8 130.6l1 1.7c-3.3 1.6-10 11.4-9.9 16.6 3.5-1.5 7.3-2.5 10.6-1.8 4 0.9 8.1 4.4 8.4 8.6 0.4 6.9-5.5 13.7-11.9 13.9-7.1 0.2-12.5-3-13.5-10.8-0.5-4.4-0.2-8 1.6-12.1 1.4-3.4 3-6.1 5.7-9 2.7-2.8 4.6-5.2 8-7.1zm-2.6 19.2c-4.7 0-8.5 4-8.5 8.8 0 4.9 3.8 8.9 8.5 8.9 4.7 0 8.5-4 8.5-8.9 0-4.8-3.8-8.8-8.5-8.8z"/>
				</g>
				<g id="&lt;Group&gt;">
					<path id="&lt;Compound Path&gt;" fill-rule="evenodd" class="s6" d="m561 293.5c-0.5 4-0.3 8.8 0.5 12.3 1.7 6.8 8.1 13.3 8.1 13.3 0 0-4.8 2.7-8.2 3.2-3.3 0.4-6.2-1.4-6.2-1.4 0 0-2.8 4.8-3.7 6.1-0.9 1.3-3.9 4.5-3.9 4.5 0 0-3.9-3.7-5.3-4.9-1.4-1.2-3.7-5.5-3.7-5.5 0 0-8.7 2.2-12.4 1.1-3.7-1.1-4.6-3.6-4.6-3.6 0 0 4.4-2.3 5.6-3.2 1.2-0.9 2.3-3.8 3.4-5.8 1.1-2 0.6-5.5 0.6-5.5 0 0-0.4-10.7-0.2-13 0.4-2.3 1.6-3.9 2.4-4.1-3.2-0.5-6.2-1.9-7.6-5.3-1.7-4.3-1.3-7.4-1.3-7.4 0 0 3.3 3.8 6.7 4 3.4 0.3 8.5-1.6 12.7-3.7 4.2-2.1 9.6-3.2 14.9-2.7 5.2 0.5 6.7 5.3 6.9 6.8 0.9-0.1 3-1.2 6.6-0.9 3.6 0.3 7.4 4.7 7.5 7.7 0 3-1.8 8.7-1.8 8.7 0 0-3.3-4.8-6.1-4.8-2.4 0-4.4 0.6-6.4 2-2.6 2-4.4 2.5-4.5 2.1l0.7-6.7c0 0-0.5 2.9-0.7 6.7q0 0 0 0zm0 0.1v-0.1q0 0 0 0 0 0 0 0.1z"/>
					<path id="&lt;Compound Path&gt;" fill-rule="evenodd" class="s4" d="m561 293.5c-0.5 4-0.3 8.8 0.5 12.3 1.7 6.8 8.1 13.3 8.1 13.3 0 0-4.8 2.7-8.2 3.2-3.3 0.4-6.2-1.4-6.2-1.4 0 0-2.8 4.8-3.7 6.1-0.9 1.3-3.9 4.5-3.9 4.5 0 0-3.9-3.7-5.3-4.9-1.4-1.2-3.7-5.5-3.7-5.5 0 0-8.7 2.2-12.4 1.1-3.7-1.1-4.6-3.6-4.6-3.6 0 0 4.4-2.3 5.6-3.2 1.2-0.9 2.3-3.8 3.4-5.8 1.1-2 0.6-5.5 0.6-5.5 0 0-0.4-10.7-0.2-13 0.4-2.3 1.6-3.9 2.4-4.1-3.2-0.5-6.2-1.9-7.6-5.3-1.7-4.3-1.3-7.4-1.3-7.4 0 0 3.3 3.8 6.7 4 3.4 0.3 8.5-1.6 12.7-3.7 4.2-2.1 9.6-3.2 14.9-2.7 5.2 0.5 6.7 5.3 6.9 6.8 0.9-0.1 3-1.2 6.6-0.9 3.6 0.3 7.4 4.7 7.5 7.7 0 3-1.8 8.7-1.8 8.7 0 0-3.3-4.8-6.1-4.8-2.4 0-4.4 0.6-6.4 2-2.6 2-4.4 2.5-4.5 2.1l0.7-6.7c0 0-0.5 2.9-0.7 6.7q0 0 0 0zm0 0.1v-0.1q0 0 0 0 0 0 0 0.1z"/>
				</g>
				<path id="&lt;Path&gt;" class="s2" d="m572.6 303.2c1.2 1.2 1.4 5.1 1.5 6.9 0 0-1-0.9-1.7-1.6-0.8-0.6-3.1-1.6-5.6-1.1-2.4 0.4-3.8 2-3.8 2-1.6-1.1-1-5.1 0.4-6.6 1.1-1.3 1.3-1.9 4.9-1.8 0.1 0 2.8 0.7 4.3 2.2z"/>
				<path id="&lt;Path&gt;" class="s3" d="m560.6 299.6c0 0 1.2-2.4 3.9-3.2 2.7-0.7 4.1-0.1 6.4 0.8 0.7 0.4 1.5 0.7 2.3 1.1 1.7 0.7 3.5 1.4 6 1.4 1.5 0 3.7-0.7 5.1-2.1 1.4-1.3 2-3.5 1.5-5.1 0 0 2.6 2.7 2.3 5.1-0.4 2.9-1.2 5.4-3.7 7.1-1.4 0.9-3.7 1.8-5.7 1.3-2.7-0.7-3.8-1.9-5.5-2.7-1.7-0.8-3.3-2.4-5.6-2.3-1 0.1-2.9 0.6-4 1.9-1.3 1.6-1.7 4.2-1.7 4.2z"/>
				<path id="&lt;Path&gt;" class="s3" d="m559.5 277.1c2.1 0 3.4 2 3.4 4 0 2.1-3 4.6-5.1 4.6-2.1-0.1-3.4-1.4-3.5-4.5 0-3.1 3.2-4 5.2-4.1z"/>
				<path id="&lt;Path&gt;" class="s7" d="m560.7 281.2c-0.4 1.6-1.2 2.8-1.8 2.8-0.7 0-0.8-1.2-0.4-2.8 0.3-1.5 1.1-2.7 1.8-2.7 0.6 0 0.8 1.2 0.4 2.7z"/>
				<path id="&lt;Path&gt;" class="s4" d="m559.1 277c0 0-2.2-0.1-4.3 1.6-2.2 1.6-11.6 8.6-17.2 8.5-1.2 0-3.2-0.2-4.3-0.4"/>
				<path id="&lt;Path&gt;" class="s2" d="m506.4 297.7l7.6 31.4 6.6 18.5c0 0-23.6 29.1-33.6 29.6-10.1 0.5-12.4-6.5-12.4-6.5 0 0 2.2-0.1 7.1-2 4.9-1.8 29.9-29.5 29.9-29.5-1.3 0.9-3.2 2.3-5.3 4-6.2 4.9-14.8 12-21.7 15.7-4.6 2.5-8.7 3.1-12.3 1.7-5.6-2.3-7.1-8.4-7.1-8.4 0 0 3.7 0.5 7.7-0.7 4.1-1.2 34.3-22 34.1-22.2-6.2 2.2-18.5 10.5-28.7 13.3-4.4 1.2-8.7 1.5-12.2-1.1-1.9-1.5-4.5-4.1-4.6-7.4 2.1 0.9 3.4 0.6 7.7-0.1 4.2-0.7 35.3-16.7 35.3-17.1-6.3 1-18.9 7-29.4 8.5-4.5 0.6-8.8 0.4-11.9-2.6-1.8-1.8-4.3-5.1-4-8.5 2 1.3 3.2 1.1 7.5 0.9 4.3-0.1 36.4-11.7 36.4-11.9-6.5 0.3-21.6 3.8-32.1 3.7-4.6 0-8.9-0.9-11.5-4.4-1.5-1.9-3.5-5.6-2.6-8.9 1.7 1.5 2.9 1.5 7.2 2 4.2 0.5 40-6.1 40-6.1z"/>
				<path id="&lt;Compound Path&gt;" class="s4" d="m510.6 374.3l11.4-15.4c0 0 2.3 0.9 5.3 1.3m-21.4-83.8c-3.1 2.5-2 6.2-2 6.2l-20.1-1"/>
				<g id="&lt;Group&gt;">
					<path id="&lt;Path&gt;" class="s4" d="m513.2 346.8l-14.4 15.3"/>
					<path id="&lt;Path&gt;" class="s4" d="m505.5 337.5l-17.3 11.6"/>
					<path id="&lt;Path&gt;" class="s4" d="m501.2 325.6l-18.4 9.4"/>
					<path id="&lt;Path&gt;" class="s4" d="m499.4 311.8l-17.7 5.8"/>
					<path id="&lt;Path&gt;" class="s4" d="m498.9 297.2l-18 3.4"/>
				</g>
				<path id="&lt;Path&gt;" class="s2" d="m513 346.6c-1.8-2.1 0.4-4.9 0.1-8.1-2.5-0.5-6.3 1.1-7.6-1.1-1.4-2.6 1.3-5.8 1.9-8.7-2.1-1-5.6-1.1-6-3.3-0.7-3.4 3-7.7 3.7-9.3 0.6-1.6-4.6-1.5-6-4.5-1.4-3 4.7-8.8 4.7-8.8 0 0-3.5-2.9-4.8-5.7-0.3-3.1 6-7.6 6.1-7.7-0.5 0-1.1-0.3-1.7-0.3-7.6-0.6-24-0.3-33.5-2.2-4.5-1-8.5-2.7-10.4-6.6-1-2.2-2.3-6.2-0.8-9.2 1.4 1.8 2.6 2 6.7 3.3 4.1 1.4 39.9 2.1 40.2 2 6.3-4.9 10.9-1.5 12.5 0.1 3 3 5.9 10.6-4.1 14.5 0 0-2.4 16.2 0.2 24.7 2.6 8.4 7 21.7 12.3 25.3 5.2 3.7 10 2.2 11.8 7.4 1.9 5.3-0.3 10.8-5.5 11.7-1.9 0.4-3.6 0-5.5 0.1-3.6 5.9-10.5 19.1-16.9 27.6-3.1 4.2-6.9 6.7-10.7 6.9-6 0.3-10.1-4.9-10.1-4.9 0 0 3.8-2 6.3-4.1 2.4-2.2 25.3-38 25.2-38.1-2.5-1.7-5.9 0.4-8.1-1z"/>
				<path id="&lt;Path&gt;" class="s3" d="m724.3 429.8c0 0-0.8 0.8-2.3 0.9-1.5 0.2-2.2 0.1-2.2 0.1 0 0 0.5-0.4 0.8-1.9 0.2-1.5-0.1-4-0.1-4 0 0 2.5 1.9 2.7 2.9 0.7 1.1 1.1 2 1.1 2z"/>
				<path id="&lt;Path&gt;" class="s3" d="m705.1 451.6c0 0 1 0.6 1.6 1.9 0.6 1.4 0.7 2.2 0.7 2.2 0 0-0.6-0.4-2-0.2-1.5 0.2-3.8 1.3-3.8 1.3 0 0 1-2.9 1.9-3.5 0.8-1 1.6-1.7 1.6-1.7z"/>
				<path id="&lt;Path&gt;" class="s3" d="m726.8 462.2c0 0 1.2-0.3 2.6-0.2 1.3 0.1 2 0 1.8 0.5-0.5 0.9-1.1 1-1.9 2-0.7 1-1.4 2.8-1.4 2.8 0 0-1.1-2.5-0.9-3.4-0.2-1-0.2-1.7-0.2-1.7z"/>
				<path id="&lt;Path&gt;" class="s3" d="m747.2 450.7c-0.1 0.9-2.3 2.7-2.3 2.7 0 0 0.2-2-0.1-3.2-0.3-1.3-0.7-1.7-0.9-2.7 0-0.6 0.4-0.4 1.9 0.1 1.4 0.5 2.2 0.3 2.2 0.3 0 0-0.2 1.9-0.8 2.8z"/>
				<g id="&lt;Group&gt;">
					<path id="&lt;Path&gt;" class="s3" d="m709.4 239.3h-24.9c0.8 0-1.6-21.3-19.6-19.5-18.1 1.7-16.8 19.6-16.8 19.6h-5c-0.3-5.6-0.2-11 0-16.8 4.8-6 10.3-12 20.8-12.5 10.4-0.5 17.7 3.6 23.4 9.5 0.6-6.7 3.5-12.7 12.2-12.5 4.8 0.1 8.2 3 9.6 6.1 0.6 1.2 0.5 3.4 0.5 5.7 0 3.9 0 8 0.1 8z"/>
					<path id="&lt;Path&gt;" class="s3" d="m709.7 160.3l-3.3-7.7 13.3-5.1v-28.5l41-0.1v28.5l13.7 4.9-3.7 9v96.8h-61z"/>
					<path id="&lt;Path&gt;" class="s3" d="m730.4 114.2h20.2l13.4 4.6h-47.5c-0.1 0 13.9-4.6 13.9-4.6z"/>
					<path id="&lt;Path&gt;" class="s4" d="m730.4 104.3h20.1"/>
					<g id="&lt;Group&gt;">
						<path id="&lt;Path&gt;" class="s3" d="m730.3 104.3h5.1v9.9h-5.1z"/>
						<path id="&lt;Path&gt;" class="s3" d="m735.4 104.3h5v9.9h-5z"/>
						<path id="&lt;Path&gt;" class="s3" d="m740.4 104.3h5.1v9.9h-5.1z"/>
						<path id="&lt;Path&gt;" class="s3" d="m745.5 104.3h5v9.9h-5z"/>
					</g>
					<g id="&lt;Group&gt;">
						<path id="&lt;Path&gt;" class="s3" d="m730.3 94.7h5.1v9.6h-5.1z"/>
						<path id="&lt;Path&gt;" class="s3" d="m735.4 94.7h5v9.6h-5z"/>
						<path id="&lt;Path&gt;" class="s3" d="m740.4 94.7h5.1v9.6h-5.1z"/>
						<path id="&lt;Path&gt;" class="s3" d="m745.5 94.7h5v9.6h-5z"/>
					</g>
					<path id="&lt;Path&gt;" class="s4" d="m730.4 104.4l5.1 9.9"/>
					<path id="&lt;Path&gt;" class="s4" d="m735.4 104.3l5.1 9.8"/>
					<path id="&lt;Path&gt;" class="s4" d="m740.5 104.4l5 9.7"/>
					<path id="&lt;Path&gt;" class="s4" d="m745.5 104.2l5 9.8"/>
					<path id="&lt;Path&gt;" class="s4" d="m735.4 104.5l-5.1 9.8"/>
					<path id="&lt;Path&gt;" class="s4" d="m740.5 104.4l-5.1 9.7"/>
					<path id="&lt;Path&gt;" class="s4" d="m745.5 104.4l-5.1 9.8"/>
					<path id="&lt;Path&gt;" class="s4" d="m750.5 104.3l-5.1 9.8"/>
					<path id="&lt;Path&gt;" class="s3" d="m733.5 90.7h13.6l5.6 3.8-24.6 0.1z"/>
					<path id="&lt;Path&gt;" class="s3" d="m733.8 90.7l5.6-19c0 0 0.2-0.3-0.8-0.7-1.1-0.4-2-2.6-2-2.6l-1.4-0.6c0 0 0.8-0.3 1.1-0.7 0.4-0.4 0.5-1 1.4-0.8 0.8 0.1 1.2 1.3 1.2 1.2-0.1-0.1 0.3 0.9 1.8 0.8 1.5-0.1 3.2-0.6 3.1-0.2-0.2 0.4-0.7 1.6-1.2 2.3-0.4 0.5-0.9 0.7-1.5 1.1l6 19.2z"/>
					<path id="&lt;Path&gt;" class="s4" d="m719.6 125.7h41.1"/>
					<path id="&lt;Path&gt;" class="s4" d="m733.5 147.7v-28.8"/>
					<path id="&lt;Path&gt;" class="s4" d="m747 147.4v-28.8"/>
					<path id="&lt;Path&gt;" class="s4" d="m719.6 133.2h41.1"/>
					<path id="&lt;Path&gt;" class="s4" d="m719.6 147.5h41"/>
					<path id="&lt;Path&gt;" class="s4" d="m706.5 152.7h67.6"/>
					<path id="&lt;Path&gt;" class="s4" d="m710.1 161.4h60.7"/>
					<path id="&lt;Path&gt;" class="s4" d="m709.5 169.9h60.6"/>
					<path id="&lt;Path&gt;" class="s4" d="m709.6 178.3h60.7"/>
					<path id="&lt;Path&gt;" class="s4" d="m760.5 133.1l-5.7 14.4h-0.8l-6.2-14.3h-1.7l-5.2 14.3h-0.7l-6-14.2h-1.4l-5.3 14.2h-1.5l-5.7-14.1"/>
					<path id="&lt;Path&gt;" class="s4" d="m723.4 133.2h6.6v7.3h-6.6z"/>
					<path id="&lt;Path&gt;" class="s4" d="m739.5 162.9h2.7v5.2h-2.7z"/>
					<path id="&lt;Path&gt;" class="s4" d="m746.7 247.5h10.8v10.5h-10.8z"/>
					<path id="&lt;Path&gt;" class="s3" d="m770.8 218.7c0.2 9.7-0.6-1.5 0.2-5.2 1.7-3.1 4.8-6.1 9.6-6.2 8.8-0.2 11.6 5.8 12.3 12.6 5.6-6 12.5-9.9 23.4-9.6 10.8 0.3 20.3 8.7 21.4 16.2l0.4 2.8-0.6 10.4h-5.4c-0.5 0 1.2-18-16.8-19.7-18-1.8-20.5 19.5-19.6 19.5h-25z"/>
					<g id="&lt;Group&gt;">
						<path id="&lt;Path&gt;" class="s3" d="m837 205.6l-8.2-0.8v-7.4l8.2 0.7z"/>
						<path id="&lt;Path&gt;" class="s3" d="m828.8 204.8l-8.3-0.7v-7.4l8.3 0.7z"/>
						<path id="&lt;Path&gt;" class="s3" d="m820.5 204.1l-8.2-0.8v-7.4l8.2 0.8z"/>
						<path id="&lt;Path&gt;" class="s3" d="m812.3 203.3l-8.3-0.7v-7.4l8.3 0.7z"/>
						<path id="&lt;Path&gt;" class="s3" d="m804 202.6l-8.2-0.7v-7.5l8.2 0.8z"/>
						<path id="&lt;Path&gt;" class="s3" d="m795.8 201.9l-8.3-0.8v-7.4l8.3 0.7z"/>
						<path id="&lt;Path&gt;" class="s3" d="m787.5 201.1l-8.3-0.7v-7.4l8.3 0.7z"/>
						<path id="&lt;Path&gt;" class="s3" d="m779.2 200.4l-8.2-0.8v-7.4l8.2 0.8z"/>
					</g>
					<path id="&lt;Path&gt;" class="s3" d="m836.8 208.9l-66-6.1v-3.2l66 6.1z"/>
					<path id="&lt;Path&gt;" class="s4" d="m792.4 226.1c0 0 7.8-13.3 22.9-12.4 15.1 0.8 19.8 12.6 19.8 12.6l-4.9 3.3-3.1-4.1 4.8-4.3-2.5-2.2-2-1.3-3.3 4.9-2.7-1.1-2.2-0.8 2.9-5.7-3.3-0.9-3.8-0.4 0.3 6.3-2.2-0.1-2.5 0.1-1.1-6-3.1 0.9-2.1 1 2.7 5.1-1.9 1-1.7 1.2-3.6-5-2 1.8-2 1.8 4.8 4-2.3 3.4z"/>
					<g id="&lt;Group&gt;">
						<path id="&lt;Path&gt;" class="s3" d="m825.9 240.6l-11.2 7.3-11.8-7.6v-6.2h23z"/>
						<path id="&lt;Path&gt;" class="s4" d="m825.9 234.3l-11.1 5.6-11.9-5.8"/>
						<path id="&lt;Path&gt;" class="s4" d="m814.8 240v7.8"/>
					</g>
					<g id="&lt;Group&gt;">
						<path id="&lt;Path&gt;" class="s4" d="m770.9 239.7v-4h2.3c0 0 0-15.5 0-16.8 0-1.4 0.9-8.3 8.6-8 7.6 0.2 8.2 9.2 8.2 9.2v15.5h6.1"/>
						<path id="&lt;Path&gt;" class="s4" d="m776.9 235.6v-16c-0.2-2.5 1.8-4.5 4.3-4.4 2.6 0.1 4 1.9 4 4.4 0 2.7 0 10.8 0 16z"/>
						<path id="&lt;Path&gt;" class="s4" d="m789.9 219h-4.7"/>
						<path id="&lt;Path&gt;" class="s4" d="m783.5 211.1l-1.1 4.2"/>
						<path id="&lt;Path&gt;" class="s4" d="m778.4 211.3l1.2 4.1"/>
						<path id="&lt;Path&gt;" class="s4" d="m776.9 219.1h-3.8"/>
					</g>
					<path id="&lt;Path&gt;" class="s4" d="m709.8 187.3h60.7"/>
					<path id="&lt;Path&gt;" class="s4" d="m709.7 195.6h60.7"/>
					<path id="&lt;Path&gt;" class="s4" d="m710.1 204.3h60.7"/>
					<path id="&lt;Path&gt;" class="s4" d="m709.8 212.9h60.7"/>
					<path id="&lt;Path&gt;" class="s4" d="m709.8 221.7h60.7"/>
					<path id="&lt;Path&gt;" class="s4" d="m709.7 230.5h60.7"/>
					<path id="&lt;Path&gt;" class="s4" d="m709.8 238.5h60.7"/>
					<path id="&lt;Path&gt;" class="s4" d="m710 247.4h60.6"/>
					<path id="&lt;Path&gt;" class="s4" d="m739.5 188.7h2.7v5.2h-2.7z"/>
					<path id="&lt;Path&gt;" class="s4" d="m739.5 214.8h2.7v5.2h-2.7z"/>
					<g id="&lt;Group&gt;">
						<path id="&lt;Path&gt;" class="s3" d="m643.1 197.9l8.3-0.7v7.4l-8.3 0.8z"/>
						<path id="&lt;Path&gt;" class="s3" d="m651.4 197.2l8.2-0.8v7.5l-8.2 0.7z"/>
						<path id="&lt;Path&gt;" class="s3" d="m659.6 196.4l8.3-0.7v7.4l-8.3 0.8z"/>
						<path id="&lt;Path&gt;" class="s3" d="m667.9 195.7l8.2-0.7v7.4l-8.2 0.7z"/>
						<path id="&lt;Path&gt;" class="s3" d="m676.1 195l8.3-0.8v7.4l-8.3 0.8z"/>
						<path id="&lt;Path&gt;" class="s3" d="m684.4 194.2l8.3-0.7v7.4l-8.3 0.7z"/>
						<path id="&lt;Path&gt;" class="s3" d="m692.7 193.5l8.2-0.8v7.5l-8.2 0.7z"/>
						<path id="&lt;Path&gt;" class="s3" d="m700.9 192.7l8.2-0.7v7.4l-8.2 0.8z"/>
					</g>
					<path id="&lt;Path&gt;" class="s3" d="m643.3 205.5l66.1-6.1v3.2l-66.1 6.1z"/>
					<path id="&lt;Path&gt;" class="s3" d="m654.3 233.3h22.9v6.3l-11.8 7.5-11.1-7.3z"/>
					<path id="&lt;Path&gt;" class="s4" d="m677.2 233.3l-11.9 5.8-11-5.6"/>
					<path id="&lt;Path&gt;" class="s4" d="m665.3 239.2v7.9"/>
					<g id="&lt;Group&gt;">
						<path id="&lt;Path&gt;" class="s4" d="m681.8 229l-2.2-3.4 4.7-4-1.9-1.8-2-1.8-3.7 5-1.6-1.2-1.9-1 2.7-5.1-2.2-1-3.1-0.9-1.1 6-2.4-0.1h-2.3l0.3-6.2-3.7 0.4-3.3 0.9 2.8 5.7-2.2 0.8-2.6 1.1-3.3-4.9-2.1 1.3-2.4 2.2 4.7 4.3-3 4.1-5-3.4c0 0 4.7-11.7 19.9-12.6 15.1-0.8 22.9 12.5 22.9 12.5z"/>
						<path id="&lt;Path&gt;" class="s4" d="m684 235.4h6.1v-15.5c0 0 0.7-9 8.3-9.2 7.6-0.3 8.5 6.5 8.5 7.9 0 1.4 0 16.9 0 16.9h2.4v3.9"/>
						<path id="&lt;Path&gt;" class="s4" d="m695 235.3c0-5.2 0-13.3 0-15.9 0-2.6 1.4-4.4 3.9-4.4 2.6-0.1 4.5 1.9 4.4 4.4v15.9z"/>
						<path id="&lt;Path&gt;" class="s4" d="m690.3 218.8h4.6"/>
						<path id="&lt;Path&gt;" class="s4" d="m696.7 210.9l1.1 4.2"/>
						<path id="&lt;Path&gt;" class="s4" d="m701.7 211.1l-1.1 4.1"/>
						<path id="&lt;Path&gt;" class="s4" d="m703.2 218.9h3.8"/>
					</g>
					<path id="&lt;Path&gt;" class="s4" d="m737.8 129.1c0-1.1 1-2.1 2.2-2.1 1.1 0 2.1 1 2.1 2.1 0 1.2-1 2.2-2.1 2.2-1.2 0-2.2-1-2.2-2.2z"/>
				</g>
			</g>
			<path id="&lt;Path&gt;" class="s3" d="m1034.5 138.8c-1 1.8 5.1 19.9 1.2 40.6-5.3 27.8-17.9 62.2-6.4 72.1q0.3 0.3 0.7 0.7-3 1.8-5.9 3.6c-25.6 15.1-42.6 23.6-44.5 33.1-1.9 9.4-6.6 27.4-1.9 36.9 4.7 9.5 17 23.7 32.2 27.5 15.1 3.7 30.3 9.4 51.1 7.5 15.2-1.4 31.7-1.6 48.9-5.5 5.5 5.7 31.7 31.6 62.6 46.5 30.7 14.8 67.4 15.8 73.6 15.3 13.2-0.9 29.3-6.1 29.3-6.1 0 0 6.5 29.1-4.2 40.7-7.1 7.6-34.1 9-34.1 9 0 0 27.4 17.5 14.2 31.2-13.3 13.8-25.6 4.3-25.6 4.3 0 0 9.5 26.5-2.4 34.6-11.8 8-29.1 1.1-29.1 1.1-0.6 7.6 2 17.6-1.6 22.7-3.6 5-14.7 4.1-22.3 2.2-7.5-1.9-10.8-15.2-10.8-15.2 0 0 9.4 34.1-23.7 37.9-10.5 1.2-16.1-0.9-16.1-0.9 0 0 5.2-8.1 3.3-26.5-0.8-8.4-9.3-37.9-21.8-62.5-15.1-29.8-34.6-54.5-36.4-52.1 0 0-21.8 20.4-27.4 38.8-5.7 18.5-2.4 29.8-2.4 29.8 0 0-16.6-1.4-25.1-9.9-8.5-8.5-11.4-18-11.4-18 0 0-23.2 8.5-32.6 8.5-9.5 0-13.8-3.8-13.8-3.8 0 0 16.1-28.8 8.6-47.8-7.6-18.9-27.5-33.6-27.5-33.6 0 0-39.3-30.7-50.2-65.3-10.9-34.5-0.4-46.8 1.5-61.1 1.9-14.1 16.1-56.6 25-68.6 9-12 19.8-49.4 20.9-64.4 1-14.9-4.8-21.8-4.8-33.1 0-11.3-1.8-13.2 5.7-26.5 7.6-13.3 22.7-10.4 35.1-3.8 7.1 3.8 32.7 20 52.5 27.9 14.5 5.8 24 4.1 30.8 5.2 16.1 2.9 21.2-3.7 21.2-3.7-7.7 14.6-18.6 26.1-36.4 30.7z"/>
			<path id="&lt;Path&gt;" class="s3" d="m1210.5 93.2c26.5-12.4 26.2 23 20.9 37.6-3.8 10.4-16.1 23.6-16.1 23.6 0 0 10.4-13.2 20.9-16 10.3-2.9 19.8 8.5 23.6 19.8 5.2 15.6-33.8 36.6-44.7 41.2 0 0 30-9.4 35.9-1.7 6 7.8 0 17.7-7.6 28.1-7.6 10.4-23.4 16.7-23.4 16.7 0 0-31.2 15.1-21.7 10.4 9.5-4.7 38.7-4.1 35.9 12.7-2.9 16.8-36.5 23.6-46 27.4-6 2.4-0.2 3.1 5.7 5.5 9.9 4 21.5 11.6-12.1 31.2-25.8 15.1-38.4 15.9-63.8 23.5-20.2 6-39.4 6-57 7.6-20.8 1.9-36-3.8-51.1-7.5-15.2-3.8-27.5-18-32.2-27.5-4.7-9.5-3.1-20 1.3-35.1 4.4-15 19.5-19.8 45.1-34.9 25.6-15.2 62.5-41.7 95.6-67.3 33.1-25.5 58.7-64.3 58.7-64.3 0 0 17.9-24.4 32.1-31z"/>
			<path id="&lt;Path&gt;" class="s2" d="m928 153.5c0 0-25.8-13.7-39.5-12.1-13.7 1.7-16.8 11.2-16.8 11.2 0 0-1.7 5-1-6.2 0.7-11.2 12.1-20.4 23-27.4 10.9-7.1 33.4-5.7 33.4-5.7z"/>
			<path id="&lt;Path&gt;" class="s2" d="m890.1 141.1c5.7-1.6 14.2 0.8 23.9 4.1 9.7 3.3 15.1 8 15.1 8 0 0-2.3 17.6-7.1 17.6-3.1 0-14.4-1.9-23-5.7-4.3-1.9-8.4-6.1-10.4-7.6-5.9-4.5-9.4-12.1-9.4-12.1 0 0 5.2-2.6 10.9-4.3z"/>
			<path id="&lt;Path&gt;" class="s3" d="m933.2 401.5c0 0 19.9 14.7 27.5 33.6q0.1 0.3 0.2 0.6l-5.2-0.1c0 0-31.9-9.8-56.4-9.8-24.6 0-25.8 7.3-25.8 7.3 0 0 3.7-14.1 10.4-24.5 6.8-10.4 21.5-12.2 21.5-12.2 0 0-6.8-12.9-8-19.7-0.9-5.1-0.1-10.2 0.4-12.4 15.4 21.5 35.4 37.2 35.4 37.2z"/>
			<path id="&lt;Path&gt;" class="s2" d="m836.1 293.9c0 0 14.1 1.2 19 0.6 4.9-0.6 8.6 0 9.8 5.5 1.2 5.6-1.2 38.7-1.2 38.7 0 0-5.5 12.9-2.5 20.2 3.1 7.4 34.4 17.8 34.4 17.8l7.3 19-0.7 1.3c-2.8 0.7-7 2-10.9 4.5-4.5-3.5-11.2-8-17.8-10.1-11.7-3.6-20.2-4.3-20.2-4.3l-19.7 28.9c0 0-11 23.3-17.2 25.7-6.1 2.5-12.2 0-12.2 0l-16.6-17.1 19.6-4.3c0 0 10.5-8.6 13.5-13.5 3.1-4.9 13.5-22.1 17.2-28.2 3.7-6.2 8.6-20.3 9.2-25.8 0.6-5.5 0.6-39.3 0.6-39.3l-17.1-19z"/>
			<path id="&lt;Path&gt;" class="s4" d="m1113.3 485.9c0 0 3.7 4.9 12.9 22.7 9.2 17.8 11.7 53.4 11.7 53.4"/>
			<path id="&lt;Path&gt;" class="s4" d="m1091.9 436.2c0 0 11.6 14.7 22.7 30.7 11 15.9 30.6 47.8 35.6 55.8 4.9 8 8.6 21.5 8.6 21.5"/>
			<path id="&lt;Path&gt;" class="s4" d="m1133 471.2l44.2 66.8"/>
			<path id="&lt;Path&gt;" class="s4" d="m1110.9 426.4l78.5 100.6"/>
			<path id="&lt;Path&gt;" class="s4" d="m1153.8 457.7l53.4 55.2"/>
			<path id="&lt;Path&gt;" class="s4" d="m1125.6 414.8l98.2 82.2"/>
			<path id="&lt;Path&gt;" class="s4" d="m1174.1 439.3l61.9 40.5"/>
			<path id="&lt;Path&gt;" class="s4" d="m1137.3 400.6l98.1 56.7"/>
			<path id="&lt;Path&gt;" class="s4" d="m1260 434.4c0 0-14.8 4.3-30.7 1.2-16-3.1-45.4-19.6-45.4-19.6"/>
			<g id="&lt;Group&gt;">
				<path id="&lt;Path&gt;" class="s4" d="m1176.5 312.3c0 0-19.7 7.1-25.8 12-6.1 4.9-26.3 7.6-26.3 7.6"/>
				<path id="&lt;Path&gt;" class="s4" d="m1210.3 265.7c0 0-41.1 18.4-49.1 21.5-8 3-38 15.3-38 15.3"/>
				<path id="&lt;Path&gt;" class="s4" d="m1227.4 214.8c0 0-50.9 31.9-61.9 37.4-11.1 5.5-49.7 23.9-49.7 23.9"/>
				<path id="&lt;Path&gt;" class="s4" d="m1236 162.6c0 0-52.1 35.6-66.8 48.5-14.8 12.9-58.3 36.8-58.3 36.8"/>
				<path id="&lt;Path&gt;" class="s4" d="m1214 117.8c0 0-46.7 50.3-60.8 64.4-14.1 14.2-55.2 43-55.2 43"/>
			</g>
			<path id="&lt;Path&gt;" class="s4" d="m946.5 105c0 0 0 0.6 5.5-1.3 5.5-1.8 11.7 1.9 16.6 6.2 4.9 4.2 7.9 13.5 16.5 14.1 8.6 0.6 12.3-0.6 12.3-0.6"/>
			<path id="&lt;Compound Path&gt;" fill-rule="evenodd" class="s2" d="m974.4 113.9c0 0 5.5 8.1 4 11.5-1.5 3.3-6.5 4.4-9.8 4.7-3.4 0.3-4.6 0-8.6-2.4-4-2.5-4-7.1-4.3-11.7-0.3-4.6 4.6-11 4.6-11zm-10 5.5c0 1.6 1.3 2.9 3 2.9 1.6 0 2.9-1.3 2.9-2.9 0-1.6-1.3-2.9-2.9-2.9-1.7 0-3 1.3-3 2.9z"/>
			<path id="&lt;Path&gt;" class="s8" d="m564 576.1l129.2-72.6c50.7-28.6 73.7-37.5 134.8-33.6 64.9 4.2 160.6 75.5 160.6 75.5l64.2 48.8c0 0 26.5 21.7 64.3 24.5 37.7 2.8 80.2-32.9 80.2-32.9 0 0-4.8 33.6-27.2 55.9-22.3 22.4-40.5 42.6-82.4 32.1-41.9-10.4-62.8-37.7-71.2-51.6-8.4-14-25.1-48.9-25.1-48.9 10 28.3 32.4 56.6 30.9 74.5-1.5 17.9-15.5 40.6-26.7 54 0 0-23.8-12.6-36.4-32.2-12.5-19.5-11.8-43.2-11.8-43.2-3.9 18.6-14.2 37.6-30.8 48.9-18.9 12.9-45.2 16.5-68.4 9.7-14-4.1-38.4-34.9-38.4-34.9 0 0 38.4 4.2 51-11.2 12.5-15.3 24.1-43.2 21.6-57.2-4.7-26.4-13.7-46-34-58.4-34.9-21.5-95-19.2-130.8 2.5-20.9 12.6-126.4 80.3-131.3 81-4.9 0.7-16 2.1-22.3-11.2-1.4-12.5 0-19.5 0-19.5z"/>
			<path id="&lt;Path&gt;" class="s4" d="m564.8 575.2l35.6 2.8-17.4 25.8"/>
			<path id="&lt;Path&gt;" class="s4" d="m601.1 575.9l50.3-33.5c0 0 62.1-33.5 85.8-41.9 23.8-8.4 44.7-7 44.7-7"/>
			<path id="&lt;Path&gt;" class="s4" d="m913.9 585.7c0 0 8 16.8-2.1 46-10.2 29.3-40.8 38.8-55.2 34.9"/>
			<path id="&lt;Path&gt;" class="s4" d="m972.5 603.8c0 0 9.1 9.1 13.9 25.8 4.9 16.8 5.6 38.4 5.6 38.4"/>
			<path id="&lt;Path&gt;" class="s4" d="m1154 635.2c0 0-35.7 14-54.5 11.2-18.8-2.8-39.8-23-39.8-23"/>
			<path id="&lt;Path&gt;" class="s2" d="m998.5 478.2c0 0 2.4 7.9 9.3 15.8-4.3 7-18.4 30.4-18.4 36.7 0 7.3 7.4 9.8 7.4 9.8 0 0 55.2 33.7 57 39.9 1.9 6.1-4.2 11-4.2 11l-16 16-0.6-20.9-27.6-23.9c0 0-26.4-14.1-33.8-14.7-7.3-0.6 0 0-15.9 1.8-16 3.2-37.4 8-47.2 19.6-9.9 11.7-9.2 16.6-9.2 16.6 0 0-1.9-33.7 2.4-38.6 4.3-4.9 20.3-4.3 36.2-7.4 16-3.1 20.2-6.8 20.2-6.8-15.3-9.5-25.7-17.2-39.4-28.4-4.6-3.8-13.3-8.1-17.6-7.7-8.6 0.6-23.3 1.8-23.3 1.8 0 0 12.3-19.6 19.6-23.3 7.4-3.7 14.7 4.3 14.7 4.3l52.8 38c0 0 9.2-12.3 14.1-23.3 1.5-3.3 2.1-7.1 2.3-10.7 8.8-2.5 17.2-5.6 17.2-5.6z"/>
			<g id="&lt;Group&gt;">
				<path id="&lt;Path&gt;" class="s3" d="m209.3 111.6c0 0 5.2 6.7 21.3 3.8 6.8-1.2 16.3 0.5 30.7-5.2 19.9-7.9 45.5-24.1 52.6-27.9 12.3-6.6 27.5-9.5 35.1 3.8 7.5 13.2 5.6 15.2 5.6 26.5 0 11.3-5.7 18.2-4.7 33.1 1 15 11.9 52.4 20.8 64.4 8.9 12 23.2 54.4 25.1 68.6 1.9 14.2 12.3 26.5 1.4 61.1-10.8 34.6-50.1 65.3-50.1 65.3 0 0-19.9 14.7-27.5 33.6-7.6 18.9 8.5 47.8 8.5 47.8 0 0-4.2 3.8-13.7 3.8-9.4 0-32.7-8.5-32.7-8.5 0 0-2.8 9.4-11.3 18-8.5 8.5-25.1 9.9-25.1 9.9 0 0 3.3-11.3-2.4-29.8-5.6-18.5-27.4-38.8-27.4-38.8-1.8-2.4-21.4 22.3-36.4 52-12.5 24.7-21 54.2-21.9 62.5-1.8 18.5 3.4 26.5 3.4 26.5 0 0-5.6 2.2-16.1 1-33.2-3.8-23.7-37.9-23.7-37.9 0 0-3.3 13.3-10.9 15.2-7.5 1.9-18.7 2.8-22.2-2.2-3.6-5.1-1-15.2-1.6-22.7 0 0-17.3 6.9-29.2-1.2-11.8-8-2.4-34.5-2.4-34.5 0 0-12.3 9.4-25.5-4.3-13.3-13.7 14.2-31.2 14.2-31.2 0 0-27.1-1.4-34.1-9-10.7-11.7-4.3-40.7-4.3-40.7 0 0 16.1 5.2 29.4 6.1 6.2 0.5 42.9-0.5 73.6-15.3 30.9-14.9 57.1-40.8 62.6-46.5 17.2 3.9 33.6 4.1 48.9 5.5 20.8 1.9 35.9-3.8 51.1-7.6 15.1-3.8 27.4-17.9 32.2-27.4 4.7-9.5 0-27.5-1.9-36.9-1.9-9.5-19-18-44.5-33.2q-2.9-1.7-6-3.6 0.4-0.3 0.8-0.6c11.5-9.9-1.1-44.3-6.4-72.2-3.9-20.6 2.1-38.7 1.2-40.5-17.8-4.6-28.7-16.1-36.5-30.8z"/>
				<path id="&lt;Path&gt;" class="s3" d="m101.9 127.7c0 0 25.5 38.8 58.7 64.4 33.1 25.6 70 52.1 95.6 67.2 25.5 15.2 40.7 19.9 45.1 35 4.4 15.1 6 25.6 1.3 35.1-4.8 9.5-17.1 23.6-32.2 27.4-15.2 3.8-30.3 9.5-51.1 7.6-17.6-1.6-36.8-1.6-57-7.6-25.4-7.6-38-8.5-63.8-23.5-33.6-19.6-22.1-27.2-12.2-31.2 6-2.4 11.8-3.1 5.8-5.5-9.5-3.8-43.2-10.6-46-27.4-2.9-16.9 26.4-17.4 35.9-12.7 9.5 4.7-21.8-10.4-21.8-10.4 0 0-15.8-6.3-23.4-16.7-7.5-10.5-13.5-20.4-7.5-28.1 5.9-7.7 35.9 1.7 35.9 1.7-10.9-4.7-49.9-25.7-44.7-41.2 3.7-11.3 13.2-22.7 23.6-19.9 10.4 2.9 20.9 16.1 20.9 16.1 0 0-12.3-13.2-16.1-23.6-5.3-14.6-5.6-50 20.9-37.6 14.2 6.6 32.1 30.9 32.1 30.9z"/>
				<path id="&lt;Path&gt;" class="s2" d="m353.2 116.9c0 0 22.5-1.4 33.4 5.6 10.9 7 22.2 16.3 22.9 27.5 0.8 11.2-0.9 6.1-0.9 6.1 0 0-3.1-9.4-16.8-11.1-13.7-1.6-39.5 12.1-39.5 12.1z"/>
				<path id="&lt;Path&gt;" class="s2" d="m401.1 149c0 0-3.5 7.6-9.5 12.1-1.9 1.5-6.1 5.7-10.3 7.6-8.6 3.8-19.9 5.7-23 5.7-4.8 0-7.1-17.6-7.1-17.6 0 0 5.4-4.7 15.1-8 9.7-3.4 18.2-5.7 23.9-4.1 5.7 1.7 10.9 4.3 10.9 4.3z"/>
				<path id="&lt;Path&gt;" class="s3" d="m382.5 367.9c0.5 2.2 1.3 7.3 0.4 12.4-1.3 6.7-8 19.6-8 19.6 0 0 14.7 1.9 21.4 12.3 6.8 10.4 10.5 24.5 10.5 24.5 0 0-1.2-7.3-25.8-7.3-24.5 0-56.4 9.8-56.4 9.8l-5.2 0.1q0.1-0.3 0.2-0.6c7.6-18.9 27.5-33.6 27.5-33.6 0 0 20-15.7 35.4-37.2z"/>
				<path id="&lt;Path&gt;" class="s2" d="m449.7 298.1l-17.1 19c0 0 0 33.7 0.6 39.3 0.6 5.5 5.5 19.6 9.2 25.7 3.6 6.2 14.1 23.4 17.1 28.2 3.1 5 13.5 13.6 13.5 13.6l19.7 4.2-16.6 17.2c0 0-6.1 2.5-12.3 0-6.1-2.4-17.1-25.7-17.1-25.7l-19.7-28.9c0 0-8.6 0.6-20.2 4.3-6.7 2.1-13.3 6.6-17.8 10.1-4-2.5-8.2-3.9-10.9-4.5l-0.8-1.3 7.4-19c0 0 31.3-10.4 34.3-17.8 3.1-7.4-2.4-20.2-2.4-20.2 0 0-2.5-33.2-1.2-38.7 1.2-5.5 4.9-6.1 9.8-5.5 4.9 0.6 19-0.6 19-0.6z"/>
				<path id="&lt;Path&gt;" class="s4" d="m142.4 565.6c0 0 2.4-35.6 11.6-53.4 9.2-17.8 12.9-22.7 12.9-22.7"/>
				<path id="&lt;Path&gt;" class="s4" d="m121.5 547.8c0 0 3.7-13.5 8.6-21.5 4.9-8 24.6-39.9 35.6-55.8 11-16 22.7-30.7 22.7-30.7"/>
				<path id="&lt;Path&gt;" class="s4" d="m147.3 474.8l-44.2 66.8"/>
				<path id="&lt;Path&gt;" class="s4" d="m169.4 430l-78.5 100.6"/>
				<path id="&lt;Path&gt;" class="s4" d="m126.4 461.3l-53.3 55.2"/>
				<path id="&lt;Path&gt;" class="s4" d="m154.7 418.3l-98.2 82.2"/>
				<path id="&lt;Path&gt;" class="s4" d="m106.2 442.9l-62 40.5"/>
				<path id="&lt;Path&gt;" class="s4" d="m143 404.2l-98.1 56.7"/>
				<path id="&lt;Path&gt;" class="s4" d="m96.4 419.6c0 0-29.5 16.5-45.4 19.6-16 3-30.7-1.2-30.7-1.2"/>
				<g id="&lt;Group&gt;">
					<path id="&lt;Path&gt;" class="s4" d="m155.9 335.5c0 0-20.2-2.7-26.3-7.6-6.1-4.9-25.9-12-25.9-12"/>
					<path id="&lt;Path&gt;" class="s4" d="m157.1 306.1c0 0-30-12.3-38-15.4-8-3-49.1-21.4-49.1-21.4"/>
					<path id="&lt;Path&gt;" class="s4" d="m164.5 279.7c0 0-38.7-18.4-49.7-23.9-11.1-5.6-62-37.5-62-37.5"/>
					<path id="&lt;Path&gt;" class="s4" d="m169.4 251.5c0 0-43.6-23.9-58.3-36.8-14.7-12.9-66.9-48.5-66.9-48.5"/>
					<path id="&lt;Path&gt;" class="s4" d="m182.3 228.8c0 0-41.1-28.9-55.2-43-14.2-14.1-60.8-64.4-60.8-64.4"/>
				</g>
				<path id="&lt;Path&gt;" class="s4" d="m171.8 179.1c0 0-8.6-9.2-14.1-19-5.5-9.9-19-46.7-19-46.7"/>
				<path id="&lt;Path&gt;" class="s4" d="m282.9 126.9c0 0 3.7 1.3 12.2 0.7 8.6-0.7 11.7-9.9 16.6-14.2 4.9-4.2 11-7.9 16.6-6.1 5.5 1.9 5.5 1.3 5.5 1.3"/>
				<path id="&lt;Compound Path&gt;" fill-rule="evenodd" class="s2" d="m320 108.6c0 0 4.9 6.4 4.6 11-0.3 4.6-0.3 9.2-4.3 11.6-4 2.5-5.2 2.8-8.6 2.5-3.4-0.3-8.3-1.4-9.8-4.8-1.5-3.3 4-11.5 4-11.5zm-7.1 11.6c-1.6 0-2.9 1.3-2.9 2.9 0 1.6 1.3 2.9 2.9 2.9 1.6 0 3-1.3 3-2.9 0-1.6-1.4-2.9-3-2.9z"/>
				<path id="&lt;Path&gt;" class="s8" d="m716.3 599.2c-6.3 13.3-17.5 11.9-22.3 11.2-4.9-0.7-110.4-68.4-131.3-81-35.9-21.7-96-24-130.8-2.5-20.3 12.4-29.3 32-34 58.3-2.6 14.1 9 41.9 21.6 57.3 12.6 15.4 51 11.2 51 11.2 0 0-24.4 30.8-38.4 34.9-23.2 6.8-49.5 3.1-68.4-9.7-16.6-11.3-27-30.3-30.8-49 0 0 0.7 23.8-11.9 43.3-12.5 19.6-36.3 32.2-36.3 32.2-11.3-13.5-25.2-36.1-26.7-54-1.5-17.9 20.8-46.2 30.9-74.5 0 0-16.7 34.9-25.1 48.8-8.4 14-29.4 41.2-71.2 51.7-41.9 10.5-60.1-9.8-82.5-32.1-22.3-22.4-27.2-55.9-27.2-55.9 0 0 42.6 35.6 80.3 32.8 37.7-2.7 64.3-24.4 64.3-24.4l64.2-48.9c0 0 95.7-71.2 160.6-75.4 61.1-3.9 84.1 5 134.8 33.5l129.2 72.6c0 0 1.4 7 0 19.6z"/>
				<path id="&lt;Path&gt;" class="s4" d="m697.3 607.4l-17.5-25.8 35.6-2.8"/>
				<path id="&lt;Path&gt;" class="s4" d="m498.4 497.1c0 0 20.9-1.4 44.6 7 23.8 8.4 85.9 41.9 85.9 41.9l50.2 33.5"/>
				<path id="&lt;Path&gt;" class="s4" d="m423.7 670.2c-14.4 3.9-45.1-5.6-55.2-34.9-10.1-29.2-2.1-46.1-2.1-46.1"/>
				<path id="&lt;Path&gt;" class="s4" d="m288.3 671.6c0 0 0.7-21.6 5.5-38.4 4.9-16.7 14-25.8 14-25.8"/>
				<path id="&lt;Path&gt;" class="s4" d="m220.6 626.9c0 0-21 20.3-39.8 23.1-18.9 2.8-54.5-11.2-54.5-11.2"/>
				<path id="&lt;Path&gt;" class="s2" d="m299 487.4c0.1 3.6 0.8 7.4 2.3 10.7 4.9 11 14.1 23.3 14.1 23.3l52.7-38c0 0 7.4-8 14.8-4.3 7.3 3.6 19.6 23.3 19.6 23.3 0 0-14.7-1.3-23.3-1.9-4.3-0.3-13.1 4-17.7 7.8-13.6 11.2-24.1 18.9-39.4 28.4 0 0 4.3 3.7 20.3 6.8 15.9 3.1 31.9 2.4 36.2 7.3 4.3 4.9 2.4 38.7 2.4 38.7 0 0 0.6-4.9-9.2-16.6-9.8-11.6-31.3-16.4-47.2-19.6-16-1.8-8.6-2.5-16-1.8-7.3 0.6-33.7 14.7-33.7 14.7l-27.6 23.9-0.6 20.9-16-16c0 0-6.1-4.9-4.3-11 1.9-6.2 57.1-39.9 57.1-39.9 0 0 7.3-2.5 7.3-9.8 0-6.3-14.1-29.7-18.4-36.7 7-7.9 9.3-15.8 9.3-15.8 0 0 8.5 3.1 17.3 5.6z"/>
				<path id="&lt;Path&gt;" class="s3" d="m251 255.1q-0.4 0.3-0.8 0.6c-15.5-9.6-34.5-22.6-53.9-36.8q-3-2.4-5.5-4.5c-22.9-19.5-44.4-36.4-51.1-42.4-6.8-6.1-22.3-46.4-23.6-55.9-1.3-9.4 6.1-24.9 11.4-30.9 5.4-6.1 13.5-2 19.6 1.3 6 3.4 7.4 19.6 10.1 28.3 2.6 8.7 20.1 41.7 24.8 51.8 4.8 10.1 18.9 23.5 27.6 33 8.8 9.4 28.3 28.9 35 34.3 3.3 2.6 7.5 3.5 11 3.7 0.4 7.8-0.7 14.1-4.6 17.5z"/>
				<path id="&lt;Compound Path&gt;" fill-rule="evenodd" class="s2" d="m320.6 37.5c1.1 7.2 1.6 16.8-1.2 21.5-2.8 4.7-6.3 11.3-6.3 11.3l-52.4 17.1c0 0-15-9.6-19.7-14.2-4.7-4.5-11.3-22.1-11.3-23.5 0-1.4 7.3-0.1 13.1 1.1 5.7 1.2 21.4 10.8 21.4 10.8 0 0 1.7-20.6 2.9-25.6 0.6-2.6 3.1-4.9 3.3-6.5 0.1-1.1 0.2-1.5-0.1-2.5l-1.7-6.3-8 2.5-1.3-5.9 7.3-2.2-1.6-7.2 5.9-1.8 1.7 7.1 7.3-2.2 1.3 5.8-7.8 2.4 1.5 6.9c-0.7 1.3 7.8 8.2 8.8 9.2 5.9 5.5 10.6 16.7 10.6 16.7 0 0 0.3-10.1 6.5-16.2 6-6.1 16.3-11 16.3-11 0 0 2.5 5.6 3.5 12.7zm-37.7 29.3c-0.4-7.8-2.3-14.2-5.3-19.2 1.1 6.3 2.5 12.9 5.3 19.2zm27.1-25q0.1 1.1 0.1 2.2c0.2-1.6-0.1-2.2-0.1-2.2zm0.1 2.2c-0.2 1.2-0.7 3-2 5.6-2.9 5.9-2.2 9.8-2.2 9.8 3.9-7.1 4.3-11.4 4.2-15.4zm-49.5 30.5c-5.9-8.1-11.8-9.6-16-15.5 0.2 1.6 13.6 17.3 16 15.5z"/>
			</g>
			<path id="&lt;Compound Path&gt;" fill-rule="evenodd" class="s2" d="m963.2 21.2c0 0 10.2 4.9 16.3 11 6.1 6.1 6.5 16.2 6.5 16.2 0 0 4.7-11.1 10.6-16.7 1-1 9.5-7.9 8.8-9.2l1.5-6.9-7.9-2.4 1.4-5.8 7.3 2.3 1.6-7.2 6 1.9-1.6 7.1 7.3 2.3-1.3 5.8-8.1-2.5-1.6 6.3c-0.4 1-0.2 1.4-0.1 2.5 0.2 1.6 2.6 4 3.2 6.5 1.3 5.1 3 25.6 3 25.6 0 0 15.7-9.6 21.4-10.8 5.8-1.2 13.1-2.4 13.1-1.1 0 1.4-6.6 19-11.3 23.6-4.7 4.5-19.7 14.1-19.7 14.1l-52.4-17.1c0 0-3.5-6.6-6.3-11.3-2.8-4.7-2.3-14.3-1.2-21.4 1-7.2 3.5-12.8 3.5-12.8zm39.5 22.8c-2.9 6-5 12.3-5.3 19.3 3.6-6.4 5.1-12.9 5.3-19.3zm-32.6-4.5q0.1-0.6 0.1-1.3c0 0-0.2 0.3-0.1 1.3zm4.3 16.3c0 0 0.6-4.9-2.2-10.8-1.4-2.9-1.9-4.5-2.1-5.5-0.3 4.3-0.4 8.7 4.3 16.3zm61.2-0.4c-4.6 5.1-11.3 5.5-15.9 15.5 2.4 1.9 15.8-13.9 15.9-15.5z"/>
			<g id="&lt;Group&gt;">
				<path id="&lt;Path&gt;" class="s3" d="m1024.7 234c3.5-0.2 7.7-1.1 11-3.7 6.7-5.4 26.2-24.9 35-34.3 8.7-9.4 22.8-22.9 27.5-33 4.7-10.1 22.2-43 24.9-51.8 2.7-8.7 4.1-24.9 10.1-28.2 6-3.4 14.1-7.4 19.5-1.4 5.4 6.1 12.8 21.5 11.5 31-1.4 9.4-16.9 49.8-23.6 55.8-6.7 6.1-28.2 22.9-51.1 42.4-1.7 1.4-3.6 2.9-5.5 4.5-19.5 14.2-38.4 27.2-54 36.9q-0.4-0.4-0.7-0.7c-3.9-3.4-5.1-9.6-4.6-17.5z"/>
				<path id="&lt;Path&gt;" class="s4" d="m1141.6 109.9c0 0-13.5 36.8-19.1 46.6-5.5 9.8-14.1 19-14.1 19"/>
			</g>
		</g>
	</g>
</svg>