<svg version="1.2" xmlns="http://www.w3.org/2000/svg" viewBox="0 0 230 429" width="230" height="429">
	<title>Topolovgrad-cdr</title>
	<style>
		.s0 { fill: none } 
		.s1 { fill: #102694 } 
		.s2 { fill: #00ab4f } 
		.s3 { fill: #ffffff } 
		.s4 { fill: #d8e0e8 } 
		.s5 { fill: #ddad67 } 
	</style>
	<path id="Object 3" class="s0" d="m-62-22h354.3v472.4h-354.3z"/>
	<g id="Group 5">
		<path id="Object 6" class="s1" d="m177 22.7h47.6v246.3h-18.6c-3.3 0-12.3 1.3-16-5.8v-23.8c37-68.2 15.8-164.9-2.3-204.9-18 39.8-39.1 136-2.7 204.1v24.6c0.3 5.9 8 10.7 17.3 10.7q11.2 0 22.3 0v43l0.1 0.2q0.4 6.3-0.4 12.5c-6.8 53.6-55.8 93.5-109.3 93.5-49.6 0-97.6-35.9-107.9-85.1q-0.9-4.1-1.3-8.3c-0.5-4-0.5-8-0.2-12v-0.2-43.6c6.1 0 18.2 0 20.2 0 4.9 0 13.4-0.4 17.4-10.6v-24.2c36.8-68.2 15.6-164.7-2.4-204.6-18.1 39.9-39.2 136.3-2.6 204.4v23.6c0.1 0-6 7.4-15.7 6.5h-16.9v-246.3h48.4q-1.7 1.8-3.3 3.5c19.3 0.3 39.4 1.6 53.1-1.2q-1.3 1.2-2.7 2.6c21.2 2.8 46.8 0.8 75.9-4.9z"/>
		<path id="Object 7" fill-rule="evenodd" class="s2" d="m84 232.1c16 14.9 29.4 33.5 29.3 70.8-3.9 38.7-16 53.6-29.3 64.7zm-7.2 135.6c-15.7-11.1-30-25.9-34.5-64.9-0.2-37.4 15.6-56 34.5-71zm70.7-0.4c-11.3-11.1-21.6-26-24.9-64.4-0.1-37 11.2-55.6 24.9-70.5zm6.5-135.3c16.3 14.9 29.9 33.5 29.8 70.9-3.9 39.1-16.2 53.8-29.8 64.9zm46.8-134.4c4.6 26.4 6.1 54.2 2.8 80.9-2.1 16.4-6.1 32.7-12.8 48q-1.4 3.4-3.1 6.7c-8.5-17.1-13.5-35.8-15.9-54.7-3.3-26.7-1.8-54.5 2.8-80.9 2.9-16.2 7.1-33.7 13.1-49.7 6 16 10.2 33.5 13.1 49.7zm-147 0c4.7 26.4 6.2 54.2 2.8 80.9-2 16.4-6.1 32.7-12.7 48q-1.5 3.4-3.1 6.7c-8.6-17.1-13.5-35.8-15.9-54.7-3.3-26.7-1.8-54.5 2.8-80.9 2.8-16.2 7.1-33.7 13.1-49.7 5.9 16 10.2 33.5 13 49.7z"/>
		<path id="Object 8" fill-rule="evenodd" class="s3" d="m118.3 303.1v0.2c1.4 16 4.3 33.1 11.3 47.2 4.8 9.6 8.8 15.9 16.2 22.6-21.1 9-39.5 9.7-60.5-0.2 8.7-6.9 14.2-12.6 19.9-22.4 8.1-14.1 11.4-31.2 13.1-47.2v-0.2-0.3zm-34.3-184.7h24v-5h-10.1v-16.8h35.6v16.8h-10.5v5h24.6v107.3c-8.3 8.4-15.3 17.3-20.4 28.8-6.6 14.6-8.8 30.8-8.9 47.2 0-16.4-2.6-32.6-10.3-47.2-6-11.6-14.3-20.6-24-29.2zm41.5-26.8v-24.4c-0.1-10-21.5-10.4-21.5 0v24.4h-6.1v-36.9l17.7-5 17.9 5.3v36.6zm22.1 14v7.9h-9.1v-16.6zm-63.6 7.9v-7.9l8.9-8.8v16.7z"/>
		<path id="Object 9" class="s1" d="m109 67.1c0-3.7 11.5-3.3 11.5 0.1 0 6.4 0 17.9 0 24.3h-11.5z"/>
		<path id="Object 10" fill-rule="evenodd" class="s4" d="m108.8 162.9h14.1v77h-14.1zm7.1-33.4c4.8 0 8.6 3.8 8.6 8.6 0 4.8-3.8 8.7-8.6 8.7-4.8 0-8.7-3.9-8.7-8.7 0-4.8 3.9-8.6 8.7-8.6zm-21-108.3c-10.5 1-21.7 0.6-32.5 0.3 7.2-7 15.8-13.8 24.7-15.4 10.2-1.8 18.6 3.4 25.3 10.3-4.7 3.3-12.7 4.4-17.5 4.8zm49.5-15.8c7.2 0.7 15.6 7.8 22.3 14.2-17.6 3-36.4 5.1-54.2 4 9.3-8.7 22.1-19.2 31.9-18.2z"/>
		<path id="Object 11" fill-rule="evenodd" class="s5" d="m0.7 17.7h58.3c15.1-14.5 35.2-27.6 57.6-4.3 24.1-20.1 34.6-15.8 55.3 4.3h57.8v299c0.4 4.5 0.3 9-0.3 13.6-6.9 53.6-55.7 97.8-114.3 97.8-58.5 0-108.4-45.6-114.3-97.8q-0.7-6.6-0.1-13zm100.5 9.8q1.4-1.3 2.7-2.6c-13.8 2.9-33.8 1.5-53.2 1.3q1.6-1.7 3.3-3.5h-48.3v246.2h16.8c9.7 0.9 15.8-6.4 15.8-6.4v-23.6c-36.7-68.2-15.5-164.6 2.5-204.5 18.1 40 39.2 136.5 2.5 204.6v24.3c-4 10.1-12.5 10.5-17.4 10.5-2.1 0-14.2 0-20.2 0v43.6 0.2c-0.4 4-0.3 8.1 0.1 12.1q0.5 4.1 1.4 8.3c10.3 49.2 58.3 85.1 107.9 85.1 53.4 0 102.5-39.9 109.3-93.5q0.8-6.3 0.3-12.5v-0.2-43.1q-11.2 0-22.3 0c-9.4 0-17-4.7-17.3-10.6l-0.1-24.6c-36.4-68.2-15.3-164.3 2.7-204.2 18.1 40 39.3 136.7 2.3 204.9v23.9c3.8 7 12.7 5.7 16.1 5.7h18.6v-246.2h-47.7c-29 5.7-54.7 7.7-75.8 4.8zm-23.4 346.9c-10-6.7-18.3-13.5-25.1-23.7-9.4-13.9-13.5-30.9-15.4-47.4v-0.2-0.3c-0.2-35.7 12.6-57.1 40.3-77.9l1.4-1.1v-118.4h-2.7l16.6-15.8v-35.1h-7.6l28.6-9.7v-2.4h-7.1v-3.6h7.1v-7.1h3.5v7.1h7.1v3.6h-7.1v2.4l28.6 9.7h-7.4v35.3l16.7 15.5h-2.7v118.9l0.8 0.7c23.8 20.8 34.9 42.2 34.7 77.9v0.3 0.2c-1.6 16.5-5.2 33.5-13.2 47.4-5.9 10.2-13 17-21.6 23.7-26.5 15.7-51.4 14.2-75.5 0zm6.2-149.2c9.7 8.6 18 17.6 24 29.2 7.7 14.6 10.3 30.8 10.3 47.2 0.1-16.4 2.3-32.6 8.9-47.2 5.1-11.5 12.1-20.4 20.4-28.8v-107.3h-24.6v-5h10.5v-16.8h-35.6v16.8h10.1v5h-24zm19.8-67.5h24.2v87.1h-24.2zm5 82h14.2v-77h-14.2zm-68-192.2c-5.9 16-10.2 33.5-13 49.7-4.7 26.4-6.2 54.2-2.8 80.9 2.3 18.9 7.3 37.6 15.8 54.7q1.7-3.3 3.1-6.7c6.7-15.2 10.7-31.6 12.8-48 3.3-26.7 1.8-54.5-2.8-80.9-2.9-16.2-7.1-33.7-13.1-49.7zm146.9 0c-5.9 16-10.2 33.5-13 49.7-4.6 26.4-6.2 54.2-2.8 80.9 2.4 18.9 7.3 37.6 15.8 54.7q1.7-3.3 3.2-6.7c6.6-15.2 10.6-31.6 12.7-48 3.4-26.7 1.8-54.5-2.8-80.9-2.8-16.2-7.1-33.7-13.1-49.7zm-177.2 245.2h18.1v-4h3.9v12.2h-3.9v-4.1h-18.1zm22.2 34.1q0.3 3.2-0.9 6.1-1.3 2.8-3.8 4.6-2.4 1.8-5.6 2.2-3.1 0.3-5.9-1-2.8-1.2-4.6-3.7-1.8-2.5-2.1-5.6-0.3-3.1 0.9-5.9 1.3-2.8 3.7-4.6 2.5-1.8 5.6-2.1 3.1-0.3 5.9 0.9 2.8 1.3 4.6 3.7 1.8 2.4 2.2 5.4zm-3.9 0.8q-0.3-2.1-1.4-3.7-1.2-1.6-3-2.4-1.8-0.8-3.9-0.6-2 0.2-3.6 1.4-1.7 1.2-2.5 3-0.9 1.8-0.7 3.7 0.2 2 1.4 3.6 1.2 1.6 3.1 2.4 1.9 0.8 3.9 0.6 1.9-0.2 3.6-1.4 1.6-1.1 2.4-2.9 0.9-1.8 0.7-3.7zm-10.3 31.2l19.1-11.1 8 13.9-19.1 11.1-2-3.6 15.6-9.1-3.9-6.8-15.7 9.1zm42.5 17.9q2.5 2 3.7 4.8 1.2 2.9 0.8 5.9-0.5 3.1-2.4 5.6-1.9 2.4-4.8 3.6-2.8 1.1-5.9 0.7-3-0.4-5.4-2.4-2.5-1.9-3.6-4.7-1.2-2.9-0.8-5.9 0.4-3 2.3-5.5 2-2.4 4.8-3.6 2.9-1.1 5.9-0.8 3 0.4 5.4 2.3zm-2.2 3.3q-1.6-1.3-3.6-1.6-2-0.2-3.8 0.5-1.9 0.7-3.1 2.4-1.3 1.6-1.6 3.6-0.3 2 0.4 3.8 0.7 1.9 2.3 3.1 1.6 1.2 3.5 1.5 2 0.2 3.9-0.6 1.9-0.7 3.1-2.3 1.3-1.6 1.5-3.5 0.3-2-0.4-3.9-0.7-1.8-2.2-3zm27.1 18.1l0.1-0.7-0.3 0.7-9.9 13.2-4.2-1.4 14.7-18.4 3 0.9 1.1 23.6-4.2-1.4zm31.4-2.2q3.2-0.2 6 1.2 2.7 1.4 4.4 3.9 1.7 2.6 1.9 5.8 0.1 3.1-1.3 5.8-1.4 2.7-4 4.4-2.5 1.7-5.6 1.8-3.1 0.2-5.9-1.2-2.7-1.4-4.4-3.9-1.7-2.6-1.8-5.7-0.2-3.1 1.2-5.8 1.4-2.8 3.9-4.5 2.6-1.7 5.6-1.8zm0.5 3.9q-2 0.1-3.7 1.2-1.7 1.1-2.6 2.8-0.9 1.8-0.8 3.9 0.1 2 1.2 3.7 1.1 1.7 2.9 2.6 1.7 1 3.7 0.9 1.9-0.1 3.6-1.2 1.7-1.2 2.6-3 0.9-1.8 0.8-3.8-0.1-2-1.2-3.7-1.1-1.6-2.8-2.6-1.7-0.9-3.7-0.8zm30.5 12.7l-8.9-20.2 3.6-1.6q2-0.9 3.1-1.3 1.4-0.4 2.6-0.3 1.6 0 2.9 0.9 1.4 0.9 2 2.3 0.6 1.4 0.4 2.8-0.2 1.3-1.2 2.2 1.2-0.3 2.3 0 1.2 0.3 2.1 1.1 0.9 0.8 1.5 2.1 0.6 1.4 0.5 3 0 1.5-0.8 2.9-1.3 2.1-5 3.8zm2.1-5.3l1.5-0.6q4.1-1.9 2.9-4.6-0.4-0.8-1.1-1.1-0.5-0.3-1.1-0.3-0.6-0.1-1.2 0.1-0.6 0.2-1.7 0.6l-1.6 0.8zm-3.9-8.8l0.7-0.3q1.8-0.8 2.4-1.5 0.4-0.4 0.5-1.1 0.1-0.6-0.2-1.2-0.3-0.8-1.1-1.1-0.4-0.2-0.9-0.1-0.5 0-1 0.2-0.1 0-1.6 0.7l-0.7 0.3zm30.9-1.8l-13.6-17.4 8.8-6.9 2.5 3.1-5.7 4.4 11.2 14.3zm23.4-24.6l-2.3 3.4-18.3-12.4 2.9-4.3q1.2-1.7 1.9-2.5 0.9-1.2 2.4-1.8 1.5-0.6 3.2-0.4 1.7 0.2 3.1 1.1 1.4 1 2.2 2.4 0.8 1.4 0.9 3 0.1 0.8-0.1 1.8-0.4 1.3-2.4 4.4l-0.5 0.6zm-10.2-6.9l0.4-0.6 0.3-0.3 0.2-0.3q0.9-1.4 1.1-2.2 0.3-0.9 0-1.7-0.3-0.9-1.1-1.4-0.8-0.6-1.7-0.5-0.9 0.1-1.7 0.8-0.6 0.5-1.4 1.7l-0.2 0.3-0.3 0.4-0.4 0.6zm22.7-16.5l-19.7-13.6 0.7-3.1 23.5-4.5-1 4.4-6 1.1-1.6 7.7 5 3.6zm-7.4-9.8l1.2-5.3-7.3 1.1h-0.8l0.7 0.2zm11.2-46.2v14.3h4.6v3.9h-8.5v-2.4l-18.1-7v-3.2l18.1-7.1v-2.3h8.5v3.8zm-3.9 11.5v-8.7l-12.4 4.4zm-97.1-180c7.5 0 13.7 6.2 13.7 13.7 0 7.6-6.2 13.7-13.7 13.7-7.6 0-13.7-6.1-13.7-13.7 0-7.5 6.1-13.7 13.7-13.7zm17.6-32.8v-36.6l-17.9-5.4-17.7 5v37h6.1v-24.4c0-10.4 21.4-10.1 21.5 0v24.4zm-26.3 46.5c0 4.8 3.9 8.7 8.7 8.7 4.8 0 8.7-3.9 8.7-8.7 0-4.8-3.9-8.6-8.7-8.6-4.8 0-8.7 3.8-8.7 8.6zm11.1 164.7v0.3 0.2c-1.6 16-5 33.1-13.1 47.2-5.6 9.8-11.1 15.5-19.8 22.4 20.9 9.8 39.2 9.3 60.4 0.3-7.4-6.8-11.4-13.1-16.2-22.7-7-14.1-9.9-31.2-11.3-47.2v-0.2zm35.8 64.9c13.5-11.1 25.8-25.9 29.7-64.9 0.2-37.5-13.4-56.1-29.7-71zm-6.5-135.3c-13.7 14.8-25.1 33.4-25 70.4 3.4 38.4 13.6 53.3 25 64.4zm-9.1-135.6v16.6h9.1v-7.9zm-45.7 16.5v-16.7l-8.9 8.8v7.9zm-16 118.5c-18.9 14.9-34.8 33.5-34.6 71 4.6 39 18.9 53.7 34.6 64.9zm7.2 135.6c13.3-11.1 25.4-25.9 29.3-64.7 0.1-37.2-13.3-55.8-29.3-70.7zm24.9-276h11.6c0-6.4 0-17.9 0-24.3-0.1-3.5-11.5-3.8-11.6-0.1zm3.5-75.2c-6.8-6.8-15.2-12.1-25.3-10.2-9 1.6-17.5 8.3-24.8 15.3 10.8 0.3 22 0.7 32.6-0.2 4.7-0.5 12.8-1.5 17.5-4.9zm0 7.3c17.8 1 36.7-1 54.2-4.1-6.6-6.4-15.1-13.4-22.3-14.1-9.7-1-22.6 9.5-31.9 18.2z"/>
	</g>
</svg>