<svg version="1.2" xmlns="http://www.w3.org/2000/svg" viewBox="0 0 1196 1477" width="1196" height="1477">
	<title>riffData-cdr</title>
	<style>
		.s0 { fill: #1f1a17;stroke: #000000;stroke-width: .1 } 
		.s1 { fill: #ffffff;stroke: #000000;stroke-width: .1 } 
		.s2 { fill: #db291d;stroke: #000000;stroke-width: .1 } 
		.s3 { fill: #008538;stroke: #000000;stroke-width: .1 } 
		.s4 { fill: #353b85;stroke: #000000;stroke-width: .1 } 
	</style>
	<path id="Object 2" fill-rule="evenodd" class="s0" d="m184.8 299.2h55.8l-3.6-2.1-3.5-2.1-3.5-2.3-3.4-2.3-3.3-2.4-3.2-2.5-3.3-2.7-3-2.6-3.1-2.9-3-2.9-2.9-3.1-2.8-3-2.7-3.2-2.5-3.2-2.5-3.2-2.3-3.3-2.2-3.5-2.1-3.4-2-3.5-2-3.5-1.8-3.6-1.7-3.6-1.6-3.6-1.5-3.7-1.5-3.8-1.3-3.8-1.2-3.9-1.1-3.8-1.1-3.9-0.9-4-0.8-3.9-0.8-4.1-0.6-4-0.6-4-0.4-4.2-0.5-4-0.3-4.2-0.1-4.1-0.1-4.2-0.1-4.1v-3.2l0.1-3.3 0.1-3.2 0.2-3.2 0.3-3.3 0.3-3.2 0.4-3.2 0.4-3.2 0.6-3.2 0.5-3.2 0.6-3.1 0.6-3.3 0.8-3.1 0.8-3.1 0.8-3.2 0.9-3 1-3.1 1-3.1 2.2-6.1 1.2-2.9 1.2-3.1 1.3-2.9 1.4-2.9 1.4-2.9 3-5.7 1.6-2.8 1.6-2.9 1.8-2.6 1.7-2.8 1.9-2.7 2.8-3.9 2.9-3.8 3-3.7 3.2-3.6 3.1-3.4 3.3-3.3 3.3-3.2 3.5-3.1 3.5-3 3.6-2.7 3.7-2.7 3.8-2.6 3.8-2.5 3.8-2.3 4-2.2 4.1-2 4.1-1.9 4.2-1.9 4.1-1.6 4.3-1.6 4.4-1.5 4.3-1.3 4.4-1.2 4.6-1.1 4.5-0.9 4.6-0.8 4.6-0.8 4.7-0.5 4.7-0.5 4.7-0.3 4.8-0.2h4.8 550.7 4.8l4.8 0.2 4.7 0.3 4.7 0.5 4.7 0.5 4.6 0.8 4.6 0.8 4.5 0.9 4.5 1.1 4.5 1.2 4.3 1.3 4.3 1.5 4.4 1.6 4.1 1.6 4.2 1.9 4.1 1.9 4.1 2 3.9 2.2 3.9 2.3 3.8 2.5 3.8 2.6 3.6 2.7 3.6 2.7 3.5 3 3.5 3.1 3.4 3.2 3.3 3.3 3.1 3.4 3.2 3.6 3 3.7 2.9 3.8 2.8 3.9 1.9 2.7 1.7 2.8 1.8 2.6 1.5 2.9 1.7 2.8 2.9 5.7 1.5 2.9 1.4 2.9 1.3 2.9 1.2 3.1 1.2 2.9 2.2 6.1 1 3.1 0.9 3.1 1 3 0.8 3.2 0.8 3.1 0.8 3.1 0.6 3.3 0.6 3.1 0.5 3.2 0.6 3.2 0.3 3.2 0.5 3.2 0.3 3.2 0.2 3.3 0.2 3.2 0.2 3.2 0.1 3.3v3.2l-0.1 4.1-0.1 4.2-0.2 4.1-0.2 4.2-0.5 4-0.5 4.2-0.5 4-0.7 4-0.7 4.1-0.8 3.9-1 4-1.1 3.9-1.1 3.8-1.2 3.9-1.3 3.8-1.4 3.8-1.5 3.7-1.7 3.6-1.6 3.6-1.9 3.6-1.9 3.5-2 3.5-2.2 3.4-2.2 3.5-2.3 3.3-2.5 3.2-2.4 3.2-2.7 3.2-2.8 3-2.9 3.1-3 2.9-3.1 2.9-3.1 2.6-3.2 2.7-3.2 2.5-3.3 2.4-3.4 2.3-3.6 2.3-3.5 2.1-3.6 2.1h55.9v604.9l-0.2 5.8-0.2 5.7-0.4 5.7-0.6 5.5-0.5 5.6-0.8 5.4-0.7 5.4-0.9 5.3-1 5.2-1.1 5.1-1.2 5.1-1.3 5.1-1.4 4.9-1.5 4.8-1.5 4.9-1.7 4.7-1.8 4.7-1.9 4.6-1.9 4.7-2.1 4.5-2.1 4.4-2.2 4.3-2.3 4.4-2.4 4.3-2.4 4.1-2.6 4.3-2.6 4-2.7 4.1-2.8 4.1-2.8 3.9-3 3.9 234.7-149.8v214.5l-70.6 44.5 46.6 74 0.2 0.3 0.7 1.3 0.6 1.2 0.7 1.2 0.6 1.2 1.1 2.6 1.1 2.7 0.9 2.7 0.6 2.7 0.6 2.8 0.4 2.8 0.2 2.8 0.1 2.9-0.1 2.8-0.2 2.8-0.4 2.8-0.5 2.6-0.7 2.8-0.9 2.6-0.9 2.6-1.1 2.6-1.3 2.4-1.3 2.4-1.5 2.4-1.7 2.2-1.7 2.1-1.9 2.1-2 1.9-2.1 1.9-0.4 0.4-0.5 0.5-1.2 0.8-2.5 1.8-15.6 10.3-15.7 10.1-16 9.7-16 9.4-16.1 9.1-16.3 8.7-16.6 8.5-16.5 8.1-16.8 7.9-16.9 7.4-17 7.2-17.1 6.9-17.3 6.6-17.3 6.2-17.4 5.9-17.6 5.5-17.6 5.3-17.8 4.8-17.9 4.6-17.9 4.2-18.1 4-18 3.5-18.2 3.2-18.3 2.9-18.3 2.6-18.4 2.2-18.5 1.9-18.4 1.5-18.6 1.2-18.6 1-18.7 0.4-18.6 0.2h-0.1l-18.6-0.2-18.7-0.4-18.6-1-18.6-1.2-18.4-1.5-18.5-1.9-18.4-2.2-18.4-2.6-18.2-2.9-18.2-3.2-18.1-3.5-18-4-17.9-4.2-17.9-4.6-17.8-4.8-17.6-5.3-17.6-5.5-17.4-5.9-17.4-6.2-17.2-6.6-17.2-6.9-16.9-7.2-16.9-7.4-16.8-7.9-16.6-8.1-16.5-8.5-16.3-8.7-16.1-9.1-16.1-9.4-15.9-9.7-15.7-10.1-15.6-10.3-2.6-1.8-1.2-0.8-0.4-0.5-0.4-0.4-2.1-1.9-2-1.9-1.9-2.1-1.7-2.1-1.7-2.2-1.6-2.4-1.3-2.4-1.2-2.4-1.1-2.6-1-2.6-0.8-2.6-0.7-2.8-0.5-2.6-0.5-2.8-0.1-2.8-0.1-2.8 0.1-2.9 0.1-2.8 0.5-2.8 0.6-2.8 0.6-2.7 0.9-2.7 1-2.7 1.1-2.6 0.7-1.2 0.6-1.2 0.7-1.2 0.7-1.3 0.2-0.3 46.6-74-70.7-44.5v-214.5l234.8 149.8-3-3.9-2.8-3.9-2.8-4.1-2.8-4.1-2.6-4-2.5-4.3-2.4-4.1-2.4-4.3-2.3-4.4-2.2-4.3-2.2-4.4-2-4.5-3.9-9.3-1.7-4.7-1.7-4.7-1.5-4.9-1.5-4.8-1.4-4.9-1.3-5.1-1.2-5.1-1.1-5.1-1-5.2-0.9-5.3-0.9-5.4-0.6-5.4-0.6-5.6-0.5-5.5-0.4-5.7-0.3-5.7-0.1-5.8zm710.6 816.8l-6.6 5-6.8 5-7 4.9-7.1 4.8-7.2 4.7-7.2 4.7-7.4 4.6-7.6 4.6-6.9 4.1-6.9 4.1-7 4.1-7 3.8-7 3.9-7.1 3.9-7.1 3.8-7.1 3.6-7.2 3.7-7.1 3.6-7.2 3.6-7.3 3.6-14.5 6.9-14.5 6.9-14.6 6.8-14.7 6.6-14.7 6.6-14.7 6.4-14.7 6.5-14.8 6.4-14.7 6.5-14.8 6.4-9 4-9-4-14.7-6.4-14.8-6.5-14.7-6.4-14.8-6.5-14.6-6.4-14.8-6.6-14.6-6.6-14.6-6.8-14.6-6.9-14.4-6.9-7.3-3.6-7.2-3.6-7.1-3.6-7.2-3.7-7.1-3.6-7.1-3.8-7.1-3.9-7-3.9-7-3.8-7-4.1-6.9-4.1-7-4.1-7.5-4.6-7.4-4.6-7.3-4.7-7.2-4.7-7.1-4.8-6.9-4.9-6.8-5-6.6-5-0.1 1.1-0.2 1-0.3 1.2-0.2 1-0.2 0.8-0.2 0.8-0.5 1.4-0.5 1.5-0.4 1.4-0.6 1.4-0.1 0.3-37.1 88.2 9.8 4.4 10 4.3 10.1 4.3 10 4 10.1 3.9 10.2 3.8 10.1 3.7 10.4 3.5 10.2 3.3 10.4 3.2 10.3 3.1 10.5 3 10.5 2.8 10.5 2.6 10.6 2.6 10.6 2.4 10.6 2.2 10.7 2.1 10.7 2 10.7 1.8 10.7 1.7 10.8 1.6 10.8 1.3 10.9 1.2 10.9 1.1 10.9 1.1 10.9 0.7 10.9 0.7 11 0.5 11 0.4 11 0.2h22.1l11-0.2 11-0.4 11-0.5 10.8-0.7 11-0.7 10.9-1.1 10.9-1.1 10.9-1.2 10.7-1.3 10.8-1.6 10.8-1.7 10.7-1.8 10.7-2 10.7-2.1 10.6-2.2 10.6-2.4 10.6-2.6 10.5-2.6 10.4-2.8 10.5-3 10.4-3.1 10.4-3.2 10.2-3.3 10.3-3.5 10.2-3.7 10.1-3.8 10.2-3.9 10-4 10.1-4.3 9.9-4.3 9.9-4.4-37.2-88.2-0.1-0.3-0.5-1.4-0.5-1.4-0.4-1.5-0.5-1.4-0.3-0.8-0.2-0.8-0.1-1-0.3-1.2-0.2-1z"/>
	<path id="Object 3" fill-rule="evenodd" class="s1" d="m873.3 19.1l8.3 0.1 8 0.7 7.8 1 7.6 1.4 7.4 1.7 7.1 2.2 6.8 2.4 6.6 2.7 6.4 3.1 6.1 3.4 5.8 3.6 5.6 3.9 5.4 4.3 5 4.4 4.8 4.7 4.5 4.9 4.4 5.2 3.9 5.3 3.8 5.5 3.5 5.7 3.3 5.9 2.9 6 2.7 6.1 2.4 6.3 2.1 6.5 1.8 6.4 1.6 6.6 1.3 6.7 1 6.7 0.7 6.7 0.4 6.9 0.2 6.9-0.2 8.7-0.6 8.5-0.9 8.1-1.4 7.9-1.7 7.5-2 7.2-2.4 6.9-2.6 6.7-2.9 6.3-3.3 6-3.5 5.8-3.7 5.5-3.9 5.1-4.2 4.9-4.4 4.5-4.5 4.4-4.7 4-4.9 3.8-5.1 3.4-5.1 3.3-5.3 2.9-5.3 2.7-5.5 2.5-5.5 2.1-5.6 1.8-5.6 1.7-5.6 1.4-5.6 1.1-5.6 0.9-5.7 0.6-5.5 0.4-5.5 0.2-6-0.2-6-0.3-5.8-0.6-5.7-0.8-5.8-1.1-5.5-1.3-5.3-1.5-5.4-1.8-5.1-2-5-2.2-4.8-2.4-4.8-2.6-4.5-2.8-4.4-3.1-4.2-3.2-4.1-3.4-3.8-3.7-3.6-3.8-3.5-4-3.3-4.2-3-4.3-2.8-4.5-2.6-4.7-2.4-4.9-2.1-5.1-1.8-5.2-1.7-5.3-1.4-5.5-1.1-5.7-0.8-5.8-0.6-5.9-0.1-6.1v-5.3l0.1-5.2 0.6-5.1 0.6-5.1 1-4.9 1.2-4.8 1.3-4.7 1.5-4.6 1.9-4.4 1.9-4.4 2.2-4.1 2.4-4.1 2.6-3.8 2.8-3.7 2.9-3.6 3.1-3.4 3.4-3.3 3.5-3 3.7-2.8 3.8-2.6 4.1-2.5 4.1-2.2 4.4-2.1 4.5-1.8 4.7-1.7 4.9-1.3 5-1.2 5-0.9 5.4-0.6 5.3-0.4 5.6-0.2 5.7 0.1 3.7 0.3 3.7 0.4 3.7 0.5 3.7 0.7 3.5 1 3.5 1 3.4 1.2 3.4 1.4 3.3 1.4 3.2 1.6 3.1 1.8 3 1.9 2.9 2 2.8 2.1 2.8 2.3 2.5 2.4 2.5 2.5 2.3 2.7 2.3 2.8 2.1 2.8 2 3 1.8 3 1.7 3.2 1.5 3.2 1.4 3.3 1.3 3.5 1 3.5 0.8 3.6 0.7 3.6 0.6 3.8 0.4 3.9v3.8 3.4l-0.1 3.4-0.4 3.3-0.5 3.3-0.6 3.2-0.8 3.2-1 3-1.1 3-1.2 3-1.4 2.9-1.4 2.8-1.6 2.7-1.7 2.6-1.9 2.5-1.9 2.4-2.1 2.3-2.2 2.4-2.3 2.1-2.3 1.9-2.5 1.9-2.5 1.8-2.7 1.7-2.7 1.4-2.9 1.4-2.8 1.2-3 1.1-3 0.9-3.1 0.9-3.2 0.6-3.2 0.5-3.3 0.3-3.3 0.1h-2.8l-2.7-0.1-2.6-0.3-2.5-0.4-2.5-0.5-2.4-0.6-2.3-0.6-2.3-0.9-2.2-0.9-2.2-0.9-2-1.1-1.9-1.2-2-1.3-1.8-1.3-1.8-1.5-1.6-1.5-1.6-1.5-1.6-1.7-1.3-1.7-1.4-1.8-1.3-1.8-1.2-1.9-1.1-1.9-0.9-2-1.1-2.1-0.8-2-0.7-2.1-0.7-2.1-0.5-2.2-0.5-2.3-0.4-2.2-0.2-2.3-0.2-2.1-0.1-2v-2.1l0.2-2.2 0.2-2.1 0.3-2.1 0.4-2 1.1-4.1 0.7-2 0.9-1.9 0.8-1.9 1-1.8 1.1-1.7 1.2-1.7 1.3-1.5 0.8-1 1-1.1 1-0.9 1-0.8 1.1-0.8 1-0.9 1.2-0.7 1.1-0.7 1.2-0.7 1.2-0.5 1.3-0.7 1.3-0.5 1.3-0.4 1.3-0.4 1.3-0.4 1.4-0.3 1.3-0.2 2.8-0.4 1.4-0.1h2.8l1.4 0.1 1.4 0.2 1.5 0.2 1.4 0.3 1.4 0.2 2.8 1 1.4 0.4 1.4 0.6 1.4 0.6h-1.5l-1.6 0.1-1.5 0.1-1.4 0.2-1.4 0.2-2.8 0.7-1.4 0.4-1.3 0.5-1.2 0.6-1.2 0.6-1.2 0.7-1.2 0.7-1.1 0.8-1.1 0.8-1 0.9-1 0.9-0.9 1-0.8 1-0.9 1.1-0.7 1.1-0.8 1.2-0.6 1.2-0.5 1.2-0.6 1.3-0.4 1.4-0.4 1.2-0.3 1.4-0.3 1.5-0.2 1.4-0.1 1.6-0.1 1.4 0.1 1.5 0.1 1.6 0.2 1.4 0.3 1.4 0.3 1.5 0.4 1.4 0.5 1.4 0.5 1.3 0.6 1.3 0.6 1.2 0.8 1.3 0.7 1.2 0.8 1.1 0.9 1.1 1 1.2 0.9 1 1 1 1.1 0.9 1.1 0.8 1.2 0.9 1.2 0.8 1.2 0.6 1.3 0.7 1.3 0.6 1.3 0.6 1.4 0.4 1.4 0.4 1.4 0.4 3 0.3 1.5 0.2h3.3l1.7-0.2 1.8-0.2 1.7-0.3 1.6-0.5 1.6-0.4 1.6-0.6 1.4-0.6 1.5-0.8 1.4-0.8 1.4-0.9 1.3-0.9 1.2-1.1 1.2-1 1.2-1.1 1.1-1.2 1.1-1.3 0.9-1.2 0.9-1.3 0.9-1.4 0.8-1.4 0.7-1.4 0.7-1.6 0.6-1.4 0.6-1.6 0.4-1.6 0.5-1.5 0.2-1.6 0.3-1.7 0.2-1.5 0.2-1.7v-1.6l-0.1-2.4-0.2-2.4-0.3-2.2-0.4-2.2-0.6-2.1-0.6-2.1-0.8-2-1-2.1-0.9-1.9-1.1-1.9-1.2-1.7-1.3-1.8-1.3-1.6-1.5-1.7-1.4-1.5-1.7-1.4-3.3-2.8-1.9-1.2-1.8-1.1-1.9-1.1-2-1-2-0.9-2-0.8-2.1-0.7-2.2-0.7-2.1-0.5-2.2-0.5-2.2-0.3-2.2-0.2-2.2-0.2-2.3-0.1-3.2 0.1-3 0.3-3 0.3-2.9 0.5-2.9 0.6-2.7 0.9-2.7 0.9-2.6 1-2.5 1.1-2.5 1.3-2.3 1.4-2.2 1.6-2.1 1.6-2 1.7-2.1 1.8-1.7 2-1.8 2-1.6 2.1-1.5 2.3-1.5 2.3-1.3 2.4-1.1 2.5-1.1 2.5-0.9 2.7-0.8 2.6-0.7 2.8-0.5 2.9-0.4 2.9-0.3 3-0.2 3v3l0.1 3.2 0.4 3.3 0.5 3.2 0.5 3.3 0.7 3.1 1 3.1 1 3 1.1 2.9 1.3 2.9 1.5 2.7 1.4 2.7 1.7 2.6 1.8 2.6 1.9 2.4 2 2.3 2.1 2.2 2.2 2.2 2.3 2 2.5 1.9 2.5 1.8 2.7 1.7 2.7 1.6 2.7 1.4 2.9 1.3 3 1.3 3 1 3.1 0.9 3.2 0.9 3.3 0.6 3.3 0.6 3.3 0.3 3.4 0.3h3.5l4.5-0.1 4.3-0.3 4.2-0.5 4.2-0.7 4-0.9 4-1.1 3.9-1.3 3.7-1.4 3.6-1.7 3.5-1.8 3.5-2 3.3-2.2 3.1-2.3 3.1-2.4 2.8-2.7 2.8-2.7 2.7-2.9 2.4-3 2.3-3.2 2.3-3.3 2-3.4 1.8-3.5 1.8-3.7 1.5-3.8 1.3-3.8 1.2-3.9 1.1-4.1 0.8-4.1 0.7-4.3 0.5-4.3 0.3-4.4v-4.5l-0.1-4.7-0.4-4.7-0.6-4.6-0.9-4.5-1-4.4-1.3-4.2-1.4-4.3-1.6-4-1.9-4.1-2-3.8-2.1-3.8-2.4-3.6-2.5-3.5-2.7-3.4-2.7-3.2-3-3-3.1-3-3.3-2.9-3.3-2.5-3.4-2.6-3.5-2.3-3.7-2.2-3.7-2.1-3.8-1.8-3.9-1.7-4-1.4-4-1.4-4.1-1.1-4.1-1-4.3-0.8-4.2-0.5-4.3-0.4-4.3-0.2-4.3-0.1h-4.4l-4.2 0.1-8.5 0.6-4.1 0.4-4.3 0.6-4.1 0.5-4.1 0.8-4.1 0.7-4.2 0.8-4 1-4.1 0.9-4.1 1-4.1 1.1-8.2 2.4-8.2 2.5-8.3 2.6-8.3 2.7-8.5 2.8-8.5 2.9-8.7 2.8-8.9 2.8-8.5 2.6-8.3 2.5-8.3 2.3-8.3 2.1-8.2 2-8.2 1.9-8.3 1.6-8.3 1.6-4.2 0.6-4.1 0.7-4.3 0.6-4.3 0.6-4.4 0.5-4.3 0.5-4.4 0.4-4.5 0.4-4.5 0.4-9.3 0.5-4.7 0.2-4.8 0.2-4.9 0.1-4.8 0.1-5 0.1h-0.1l-5-0.1-4.9-0.1-4.9-0.1-4.8-0.2-4.7-0.2-9.2-0.5-4.5-0.4-4.5-0.4-4.4-0.4-4.4-0.5-4.3-0.5-4.3-0.6-4.3-0.6-4.1-0.7-4.3-0.6-8.3-1.6-8.3-1.6-8.2-1.9-8.2-2-8.2-2.1-8.3-2.3-8.4-2.5-8.5-2.6-8.8-2.8-8.8-2.8-8.4-2.9-8.5-2.8-8.3-2.7-8.3-2.6-8.2-2.5-8.2-2.4-4.1-1.1-4.1-1-4.1-0.9-4-1-4.2-0.8-4.1-0.7-4.1-0.8-4.2-0.5-4.2-0.6-4.1-0.4-8.5-0.6-4.3-0.1h-4.3l-4.3 0.1-4.4 0.2-4.2 0.4-4.2 0.5-4.3 0.8-4.1 1-4.1 1.1-4.1 1.4-3.9 1.4-3.9 1.7-3.9 1.8-3.6 2.1-3.7 2.2-3.5 2.3-3.5 2.6-3.3 2.5-3.2 2.9-3.1 3-3 3-2.7 3.2-2.7 3.4-2.5 3.5-2.4 3.6-2.1 3.8-2.1 3.8-1.8 4.1-1.7 4-1.3 4.3-1.3 4.2-1 4.4-0.9 4.5-0.6 4.6-0.4 4.7-0.1 4.7v4.5l0.3 4.4 0.5 4.3 0.7 4.3 0.8 4.1 1 4.1 1.2 3.9 1.4 3.8 1.5 3.8 1.7 3.7 1.9 3.5 2 3.4 2.2 3.3 2.3 3.2 2.5 3 2.7 2.9 2.8 2.7 2.8 2.7 3.1 2.4 3.1 2.3 3.3 2.2 3.4 2 3.5 1.8 3.7 1.7 3.7 1.4 3.9 1.3 3.9 1.1 4.1 0.9 4.1 0.7 4.3 0.5 4.3 0.3 4.4 0.1h3.6l3.4-0.3 3.3-0.3 3.3-0.6 3.2-0.6 3.3-0.9 3.1-0.9 2.9-1 3.1-1.3 2.8-1.3 2.8-1.4 2.7-1.6 2.7-1.7 2.4-1.8 2.5-1.9 2.3-2 2.3-2.2 2.1-2.2 2-2.3 1.8-2.4 1.9-2.6 1.6-2.6 1.5-2.7 1.5-2.7 1.3-2.9 1.1-2.9 1-3 0.9-3.1 0.8-3.1 0.5-3.3 0.5-3.2 0.4-3.3v-3.2-3l-0.1-3-0.3-3-0.4-2.9-0.5-2.9-0.7-2.8-0.8-2.6-0.9-2.7-1.1-2.5-1.1-2.5-1.3-2.4-1.5-2.3-1.5-2.3-1.6-2.1-1.8-2-1.8-2-2-1.8-2-1.7-2.1-1.6-2.2-1.6-2.3-1.4-2.5-1.3-2.5-1.1-2.6-1-2.7-0.9-2.7-0.9-2.9-0.6-3-0.5-2.9-0.3-3-0.3-3.2-0.1-2.3 0.1-2.2 0.2-2.2 0.2-2.2 0.3-2.2 0.5-2.2 0.5-2.1 0.7-2.1 0.7-2 0.8-2.1 0.9-1.9 1-1.9 1.1-1.9 1.1-1.8 1.2-3.3 2.8-1.7 1.4-1.5 1.5-1.4 1.7-1.3 1.6-1.3 1.8-1.2 1.7-1.1 1.9-1 1.9-0.9 2.1-0.8 2-0.7 2.1-0.5 2.1-0.5 2.2-0.2 2.2-0.2 2.4-0.1 2.4v1.6l0.2 1.7 0.1 1.5 0.3 1.7 0.3 1.6 0.5 1.5 0.4 1.6 0.6 1.6 0.5 1.4 0.8 1.6 0.7 1.4 0.7 1.4 1 1.4 0.9 1.3 0.9 1.2 1.1 1.3 1 1.2 1.2 1.1 1.2 1 1.3 1.1 1.3 0.9 1.4 0.9 1.4 0.8 1.4 0.8 1.5 0.6 1.6 0.6 1.6 0.4 1.6 0.5 1.7 0.3 1.7 0.2 1.8 0.2h3.3l1.5-0.2 2.9-0.3 1.5-0.4 1.4-0.4 1.4-0.4 1.3-0.6 1.2-0.6 1.3-0.7 1.2-0.6 1.2-0.8 1.2-0.9 1.1-0.8 1.1-0.9 1.1-1 0.9-1 1-1.2 0.8-1.1 0.9-1.1 0.7-1.2 0.7-1.3 0.7-1.2 0.5-1.3 0.6-1.3 0.4-1.4 0.5-1.4 0.3-1.5 0.3-1.4 0.1-1.4 0.1-1.6 0.1-1.5-0.1-1.4-0.1-1.6-0.1-1.4-0.3-1.5-0.3-1.4-0.5-1.2-0.3-1.4-0.6-1.3-0.5-1.2-0.7-1.2-0.7-1.2-0.8-1.1-0.8-1.1-0.8-1-0.9-1-1-0.9-1.1-0.9-1.1-0.8-1.1-0.8-1.1-0.7-1.2-0.7-1.2-0.6-1.3-0.6-1.3-0.5-1.3-0.4-2.8-0.7-1.4-0.2-1.5-0.2-1.4-0.1-1.6-0.1h-1.5l1.4-0.6 1.4-0.6 1.4-0.4 2.7-1 1.5-0.2 1.4-0.3 1.5-0.2 1.3-0.2 1.4-0.1h2.9l1.4 0.1 2.7 0.4 1.4 0.2 1.4 0.3 1.3 0.4 1.3 0.4 1.3 0.4 1.3 0.5 1.3 0.7 1.2 0.5 1.2 0.7 1.1 0.7 1.2 0.7 1 0.9 1.1 0.8 1 0.8 1 0.9 0.9 1.1 0.9 1 1.3 1.5 1.2 1.7 1.1 1.7 1 1.8 0.8 1.9 0.8 1.9 0.8 2 1.1 4.1 0.3 2 0.4 2.1 0.2 2.1 0.2 2.2v2.1l-0.1 2-0.2 2.1-0.3 2.3-0.3 2.2-0.5 2.3-0.6 2.2-0.6 2.1-0.7 2.1-0.9 2-1 2.1-0.9 2-1.1 1.9-1.2 1.9-1.3 1.8-1.4 1.8-1.4 1.7-1.5 1.7-1.6 1.5-1.7 1.5-1.7 1.5-1.9 1.3-1.9 1.3-1.9 1.2-2.1 1.1-2.1 0.9-2.2 0.9-2.3 0.9-2.3 0.6-2.4 0.6-2.5 0.5-2.6 0.4-2.5 0.3-2.7 0.1h-2.8l-3.3-0.1-3.3-0.3-3.3-0.5-3.1-0.6-3.1-0.9-3.1-0.9-2.9-1.1-2.9-1.2-2.8-1.4-2.7-1.4-2.7-1.7-2.6-1.8-2.5-1.9-2.3-1.9-2.3-2.1-2.2-2.4-2-2.3-1.9-2.4-1.9-2.5-1.7-2.6-1.6-2.7-1.5-2.8-1.4-2.9-1.2-3-1.1-3-0.9-3-0.8-3.2-0.7-3.2-0.4-3.3-0.4-3.3-0.2-3.4v-3.4l0.1-3.8 0.4-3.9 0.5-3.8 0.8-3.6 0.8-3.6 1-3.5 1.3-3.5 1.4-3.3 1.5-3.2 1.6-3.2 1.9-3 2-3 2-2.8 2.3-2.8 2.3-2.7 2.5-2.5 2.6-2.4 2.8-2.3 2.7-2.1 3-2 2.9-1.9 3.2-1.8 3.2-1.6 3.2-1.4 3.4-1.4 3.5-1.2 3.5-1 3.5-1 3.6-0.7 3.7-0.5 3.7-0.4 3.8-0.3 5.6-0.1 5.7 0.2 5.3 0.4 5.3 0.6 5.1 0.9 5 1.2 4.9 1.3 4.7 1.7 4.5 1.8 4.3 2.1 4.2 2.2 4 2.5 3.9 2.6 3.7 2.8 3.5 3 3.3 3.3 3.2 3.4 2.9 3.6 2.8 3.7 2.6 3.8 2.4 4.1 2.2 4.1 1.9 4.4 1.8 4.4 1.6 4.6 1.3 4.7 1.2 4.8 0.9 4.9 0.7 5.1 0.5 5.1 0.2 5.2v5.3l-0.2 6.1-0.5 5.9-0.9 5.8-1.1 5.7-1.3 5.5-1.7 5.3-1.9 5.2-2.1 5.1-2.3 4.9-2.6 4.7-2.8 4.5-3.1 4.3-3.2 4.2-3.5 4-3.6 3.8-3.9 3.7-4 3.4-4.3 3.2-4.3 3.1-4.5 2.8-4.8 2.6-4.8 2.4-5.1 2.2-5 2-5.4 1.8-5.3 1.5-5.6 1.3-5.7 1.1-5.7 0.8-5.8 0.6-6 0.3-6 0.2-5.5-0.2-5.6-0.4-5.6-0.6-5.6-0.9-5.6-1.1-5.6-1.4-5.7-1.7-5.5-1.8-5.5-2.1-5.5-2.5-5.3-2.7-5.3-2.9-5.1-3.3-5.1-3.4-4.9-3.8-4.7-4-4.5-4.4-4.4-4.5-4.2-4.9-4-5.1-3.6-5.5-3.6-5.8-3.2-6-2.9-6.3-2.6-6.7-2.4-6.9-2-7.2-1.7-7.5-1.4-7.9-0.9-8.1-0.6-8.5-0.2-8.7 0.2-6.9 0.3-6.9 0.8-6.7 1-6.7 1.3-6.7 1.5-6.6 1.9-6.4 2.1-6.5 2.4-6.3 2.7-6.1 2.9-6 3.2-5.9 3.6-5.7 3.7-5.5 4-5.3 4.3-5.2 4.5-4.9 4.8-4.7 5.1-4.4 5.4-4.3 5.6-3.9 5.8-3.6 6.1-3.4 6.3-3.1 6.7-2.7 6.8-2.4 7.1-2.2 7.4-1.7 7.5-1.4 7.9-1 8-0.7 8.3-0.1zm-220.9 125.3h66.3v0.6l0.1 2.3 0.1 2.4v4.7l-0.1 2.4-0.1 2.3-0.2 2.4-0.2 2.4-0.3 3-0.4 3.2-0.5 3-0.5 3.2-0.6 3.1-0.6 3.1-0.9 3.2-0.8 3.1-0.9 3-1 3.1-1.1 3-2.4 5.9-1.4 2.9-1.5 2.7-1.5 2.7-1.1 1.8-1.1 1.7-1.2 1.8-1.4 1.7-1.4 1.8-1.4 1.6-3.2 3.2-1.7 1.4-1.8 1.2-1.8 1.2-1.9 1-1.1 0.3-0.9 0.4-1 0.4-1 0.3-1.1 0.1-1 0.2-1.1 0.1h-2.2l-1-0.1-1.1-0.2-1-0.2-0.9-0.2-0.9-0.4-1-0.3-0.8-0.4-1.7-1-1.6-1-1.5-1.2-1.5-1.3-1.2-1.4-1.3-1.6-1.1-1.6-1.2-1.6-1-1.8-0.9-1.7-0.9-1.8-0.7-1.7-0.8-1.8-0.6-1.7-1-2.7-0.7-2.8-0.7-2.7-0.7-2.8-0.5-2.9-0.4-2.8-0.4-3-0.3-2.8-0.2-3-0.2-2.8v-8.8l0.1-2.9 0.2-2.7 0.3-2.9 0.1-2.3 0.3-2.4 0.4-2.4 0.3-2.4 0.4-2.3 0.5-2.4 0.4-2.3 0.6-2.4zm-108.8 0.4l0.6 2.4 0.4 2.3 0.5 2.4 0.3 2.3 0.4 2.4 0.4 2.4 0.3 2.4 0.1 2.3 0.3 2.8 0.2 2.8 0.1 2.9v8.7l-0.2 2.9-0.2 2.9-0.3 2.9-0.4 2.9-0.4 2.9-0.5 2.9-0.7 2.7-0.7 2.8-0.8 2.8-0.9 2.6-0.6 1.8-0.8 1.7-0.7 1.8-0.9 1.7-0.9 1.8-1.1 1.7-1.1 1.7-1.1 1.6-1.3 1.5-1.2 1.4-1.5 1.4-1.5 1.2-1.6 1-1.7 0.9-0.8 0.5-1 0.3-0.9 0.3-0.9 0.2-1 0.3-1.1 0.2-1 0.1h-2.2l-1.1-0.1-1-0.2-1.1-0.2-1-0.3-1-0.3-0.9-0.4-1.1-0.4-1.9-1-1.8-1.1-1.8-1.3-1.7-1.4-3.2-3.1-1.5-1.7-1.3-1.7-1.4-1.8-1.2-1.7-1.1-1.8-1.1-1.7-1.5-2.7-1.5-2.8-1.4-2.8-2.4-5.9-1.1-3.1-1-3-0.9-3-0.8-3.2-0.9-3.1-0.6-3.1-0.7-3.2-0.4-3.1-0.5-3.1-0.4-3.1-0.3-3-0.2-2.4-0.2-2.4-0.1-2.3-0.1-2.4v-4.7l0.1-2.4 0.1-2.3v-0.6h66.3zm230.3 118.2l2 2.8 2.2 2.7 2.2 2.6 2.3 2.6 2.3 2.5 2.5 2.5 2.5 2.4 2.5 2.3 2.6 2.2 2.8 2.1 2.8 2.1 2.7 2.1 2.9 1.9 2.9 1.9 3.1 1.7 3 1.7h-434.5l3-1.7 3.1-1.7 2.9-1.9 2.9-1.9 2.8-2.1 2.7-2.1 2.8-2.1 2.6-2.2 2.5-2.3 2.5-2.4 2.5-2.5 2.3-2.5 2.3-2.6 2.3-2.6 2.1-2.7 2-2.8zm-177.5-30.7l-0.8-0.1h-0.7l-1.1-0.2-1-0.1-1-0.3-0.9-0.3-0.9-0.4-1-0.3-0.9-0.5-0.9-0.5-1.8-1-1.6-1.3-1.6-1.3-1.5-1.4-1.3-1.6-1.4-1.7-1.2-1.6-1.2-1.8-1.1-1.7-1-1.9-1.1-1.7-0.8-1.8-1.2-2.6-1.1-2.8-1-2.8-1-2.9-0.8-2.9-0.8-2.9-0.7-3.1-0.6-2.9-0.5-3.1-0.5-3-0.4-3.1-0.2-3-0.3-2.9-0.2-3.1-0.1-2.9v-5.4l0.1-2.3 0.1-2.4 0.2-2.4 0.2-2.3 0.2-2.4 0.2-2.3 0.3-2.4 0.1-0.5h68.7l0.1 0.5 0.3 2.4 0.2 2.3 0.2 2.4 0.2 2.3 0.2 2.4 0.1 2.4 0.1 2.3v5.4l-0.1 2.9-0.2 3.1-0.3 2.9-0.3 3-0.3 3.1-0.5 3-0.5 3.1-0.6 2.9-0.7 3.1-0.8 2.9-0.8 2.9-1 2.9-1 2.8-1.1 2.8-1.2 2.6-0.9 1.8-1 1.7-1 1.9-1.1 1.7-1.2 1.8-1.2 1.6-1.4 1.7-1.4 1.6-1.4 1.4-1.6 1.3-1.7 1.3-1.7 1-0.9 0.5-1 0.5-0.9 0.3-0.9 0.4-0.9 0.3-1 0.3-1.1 0.1-1 0.2h-0.7l-0.8 0.1zm123.1-104.4l3.2-0.9 3.1-0.9 3.1-0.8 3.2-1 3.1-0.9 3.2-1 3.3-1 5.2-1.6 5.3-1.7 5.2-1.8 5.3-1.7 5.3-1.9 5.4-1.7 5.2-1.8 5.5-1.7-2.5 2.4-2.3 2.4-2.2 2.6-2.2 2.5-2.1 2.7-1.9 2.8-1.9 2.8-1.9 3h-50.7zm0.3 89.2l0.4 1.3 0.6 1.8 0.6 1.7 0.8 1.8 0.7 1.7 0.8 1.7 1 1.6 0.9 1.6 0.9 1.6 1.1 1.5 1.1 1.4 1.2 1.5 1.3 1.4 1.3 1.3 1.4 1.2 1.6 1.2 1.5 1.1 1.5 0.9 1.5 0.9 1.5 0.8 1.6 0.7 1.7 0.6 1.6 0.6 1.7 0.5 1.7 0.3 0.4 0.1 0.1 0.5h-65.6v-0.5l0.4-0.1 1.4-0.2 1.3-0.4 1.3-0.5 1.3-0.4 1.3-0.6 1.3-0.5 1.2-0.6 1.1-0.6 2.4-1.4 2.3-1.6 2.1-1.7 2.1-1.7 2-1.9 2-2 1.8-2.1 1.8-2.1 1.6-2.2 1.6-2.2 1.5-2.3 1.4-2.4 0.7-1.1 0.5-1zm-113.2 30.7l2.8-0.7 1.4-0.5 1.3-0.4 2.5-1.1 1.2-0.7 1.2-0.7 1.2-0.7 1.2-0.8 1.1-0.7 1.1-0.9 2.3-1.8 2-1.9 1.9-2.1 1.9-2.1 1.7-2.2 1.7-2.3 1.5-2.3 1.5-2.5 1.3-2.4 1.3-2.5 0.6-1.2 0.5 1.2 1 2.5 1.2 2.5 1.3 2.4 1.4 2.3 1.5 2.3 1.5 2.2 1.7 2 1.8 2.1 1.9 1.9 2 1.8 1 0.8 1.1 0.7 1.1 0.8 1.1 0.7 1.2 0.7 1.2 0.7 1.2 0.5 1.2 0.6 1.3 0.4 1.3 0.5 1.3 0.5 1.4 0.3 1 0.2v0.5h-64.3v-0.5zm131.4-103.3h21.3l-1 2.6-0.9 2.8-0.9 2.8-0.9 2.7-0.7 2.9-0.7 2.9-0.7 3-0.5 2.9-0.5 3.1-0.5 3-0.2 3.1-0.3 3.1-0.3 3.1-0.1 3.2v6.4l0.1 2.7 0.1 2.7 0.2 2.7 0.2 2.5 0.3 2.7 0.3 2.5 0.4 2.6 0.4 2.5 0.4 2.6 0.6 2.3 0.4 2.5 1.3 4.8 0.7 2.4 0.7 2.4 0.8 2.3h-0.8l-2.2-0.2-1.9-0.3-2-0.5-1.7-0.6-1.7-0.9-1.6-0.9-1.4-1.1-1.3-1.2-1.3-1.3-1.1-1.4-1.1-1.5-1-1.7-0.9-1.6-0.8-1.8-0.7-1.8-0.7-1.9-0.5-1.9-0.6-2-0.5-2-0.3-2-0.4-2.1-0.3-2.1-0.2-2-0.2-2-0.3-4.1-0.2-3.8-0.1-3.7v-3.4l0.1-2.4v-2.3l0.2-2.4 0.2-2.4 0.2-2.3 0.2-2.4 0.3-2.3 0.3-2.3 0.4-2.4 0.4-2.4 0.5-2.3 0.4-2.4 0.6-2.4 0.6-2.3 0.6-2.4 0.6-2.3zm-258.7-15.7h-50.7l-1.8-3-1.9-2.8-2-2.8-2.1-2.7-2.1-2.6-2.2-2.5-2.3-2.4-2.5-2.4 5.4 1.7 5.3 1.8 5.3 1.7 5.4 1.9 5.2 1.7 5.3 1.8 5.2 1.7 5.3 1.6 3.2 1 3.2 1 3.2 0.9 3.1 1 3.1 0.8 3.2 0.9 3.1 0.8zm-2.8 89.7l0.6 1 0.6 1.1 1.5 2.3 1.5 2.3 1.6 2.2 1.6 2.2 1.8 2.1 1.8 2.2 1.9 1.9 2.1 1.9 2.1 1.8 2.1 1.6 2.3 1.6 2.3 1.4 1.2 0.6 1.2 0.6 1.3 0.5 1.3 0.6 1.3 0.5 1.3 0.4 1.3 0.4 1.4 0.3 0.3 0.1 0.1 0.4h-65.6l0.1-0.4 0.3-0.1 1.8-0.4 1.6-0.5 1.7-0.5 1.7-0.7 1.5-0.7 1.6-0.7 1.5-1 1.5-0.9 1.5-1.1 1.6-1.2 1.4-1.2 1.3-1.3 1.3-1.4 1.1-1.4 1.2-1.4 1.1-1.6 0.9-1.6 0.9-1.5 0.9-1.7 0.9-1.6 0.7-1.8 0.7-1.7 0.7-1.8 0.5-1.8 0.5-1.2zm113 29.6v0.4h-64.3v-0.4l1-0.2 1.4-0.4 1.3-0.5 1.3-0.4 1.2-0.5 1.2-0.5 1.3-0.6 1.1-0.6 1.2-0.8 1.1-0.7 1.1-0.7 1.2-0.8 1-0.8 2-1.8 1.8-1.9 1.9-2 1.6-2.1 1.6-2.2 1.5-2.3 1.4-2.3 1.3-2.4 1.2-2.5 1-2.5 0.5-1.2 0.6 1.2 1.3 2.5 1.3 2.4 1.4 2.5 1.6 2.3 1.7 2.3 1.7 2.2 1.9 2.2 1.9 2 2 1.9 2.2 1.9 1.1 0.8 1.1 0.7 1.2 0.9 1.2 0.6 1.2 0.7 1.2 0.7 2.6 1.1 1.3 0.5 1.4 0.4 1.4 0.4 1.4 0.4zm-131.8-103.1l0.7 2.3 0.6 2.4 0.6 2.3 0.5 2.4 0.5 2.4 0.4 2.3 0.5 2.4 0.4 2.4 0.2 2.3 0.3 2.3 0.3 2.4 0.2 2.3 0.2 2.3 0.1 2.4v2.3l0.1 2.4v3.4l-0.1 3.7-0.1 3.9-0.3 4-0.2 2.1-0.3 2-0.3 2-0.3 2.1-0.4 2.1-0.5 1.9-0.5 2-0.6 2-0.6 1.8-0.7 1.9-0.9 1.7-0.9 1.7-0.9 1.6-1.1 1.5-1.1 1.5-1.3 1.3-1.3 1.2-1.5 1.1-1.6 0.9-1.6 0.8-1.8 0.7-1.9 0.4-1.9 0.4-2.2 0.2h-0.9l0.9-2.3 0.7-2.4 0.6-2.4 1.3-4.8 0.5-2.5 0.5-2.4 0.5-2.6 0.4-2.5 0.3-2.6 0.4-2.4 0.3-2.7 0.2-2.6 0.2-2.7v-2.6l0.1-2.7v-6.5l-0.1-3.1-0.2-3.1-0.3-3.2-0.3-3-0.4-3.1-0.5-3-0.6-3-0.6-2.9-0.7-3-0.8-2.8-0.8-2.8-0.9-2.7-1-2.8-1-2.7h21.3z"/>
	<path id="Object 4" fill-rule="evenodd" class="s1" d="m597.9 1306.2h0.1l17.3-0.2 17.3-0.5 17.1-0.9 17.1-1.2 16.9-1.6 17-1.9 16.7-2.2 16.7-2.6 16.6-3 16.4-3.2 16.3-3.6 16.2-3.9 16.1-4.2 15.9-4.5 15.8-4.8 15.7-5.2 15.5-5.4 15.4-5.7 15.2-6 15.2-6.4 14.9-6.6 14.7-6.9 14.7-7.2 14.5-7.4 14.3-7.8 14.1-8 13.9-8.2 13.8-8.6 13.6-8.7 13.4-9.1 13.2-9.3 13-9.6 64.5 102.4 0.5 1 0.6 1 0.5 0.9 0.5 1 0.7 1.8 0.8 1.7 0.5 1.8 0.5 1.8 0.4 2 0.2 1.8 0.2 2 0.1 2-0.1 1.9-0.2 2-0.2 1.9-0.4 1.8-0.5 1.9-0.5 1.8-0.7 1.8-0.8 1.6-0.8 1.7-1 1.6-1 1.5-1.1 1.5-1.2 1.5-1.2 1.3-1.3 1.3-1.3 1.2-0.5 0.3-0.7 0.7-1.1 0.7-1 0.8-14.7 9.7-15.1 9.6-15.1 9.3-15.3 9.1-15.5 8.7-15.6 8.5-15.9 8.2-16 7.9-16.2 7.7-16.3 7.3-16.5 7.1-16.7 6.7-16.8 6.5-16.9 6.1-17.1 5.9-17.2 5.6-17.4 5.2-17.5 4.9-17.6 4.6-17.8 4.3-17.9 4-17.9 3.6-18.1 3.3-18.3 3.1-18.3 2.6-18.5 2.3-18.5 1.9-18.7 1.7-18.7 1.2-18.9 0.9-18.9 0.5-19 0.2h-0.1l-19-0.2-18.9-0.5-18.9-0.9-18.7-1.2-18.7-1.7-18.6-1.9-18.4-2.3-18.4-2.6-18.2-3.1-18.1-3.3-18-3.6-17.8-4-17.8-4.3-17.6-4.6-17.6-4.9-17.3-5.2-17.2-5.6-17.1-5.9-17-6.1-16.7-6.5-16.7-6.7-16.5-7.1-16.3-7.3-16.2-7.7-16-7.9-15.9-8.2-15.7-8.5-15.4-8.7-15.4-9.1-15.1-9.3-15-9.6-14.8-9.7-1-0.8-1-0.7-0.7-0.7-0.5-0.3-1.4-1.2-1.3-1.3-1.2-1.3-1.1-1.5-1.2-1.5-1-1.5-0.9-1.6-0.8-1.7-0.9-1.6-0.6-1.8-0.6-1.8-0.4-1.9-0.4-1.8-0.3-1.9-0.1-2-0.1-1.9 0.1-2 0.1-2 0.3-1.8 0.4-2 0.4-1.8 0.6-1.8 0.7-1.7 0.8-1.8 0.4-1 0.6-0.9 0.5-1 0.6-1 64.4-102.4 13 9.6 13.2 9.3 13.5 9.1 13.5 8.7 13.9 8.6 13.9 8.2 14.1 8 14.3 7.8 14.5 7.4 14.6 7.2 14.8 6.9 14.9 6.6 15.1 6.4 15.2 6 15.4 5.7 15.6 5.4 15.7 5.2 15.8 4.8 15.9 4.5 16.1 4.2 16.2 3.9 16.3 3.6 16.4 3.2 16.6 3 16.7 2.6 16.7 2.2 16.9 1.9 17 1.6 17.1 1.2 17.1 0.9 17.3 0.5zm-493.8-44.4l1 0.7 0.9 0.8 1.1 0.9 1.3 0.9 1.4 1 1.5 1 1.7 1.2 1.8 1.2 2.2 1.2 2.1 1.2 2 1.1 1.9 0.9 1.8 0.7 1.7 0.7 1.7 0.4 1.5 0.4 1.5 0.3 2.7 0.2 1.3-0.1 1-0.2 1-0.2 2.1-0.7 0.9-0.4 0.9-0.6 0.9-0.5 0.9-0.7 0.8-0.7 0.8-0.8 0.7-1 0.7-0.9 0.7-1.5 0.7-1.4 0.2-0.8 0.2-0.7 0.1-0.7 0.1-0.9v-1.4l-0.1-1.4-0.2-1.5-0.5-1.4-0.6-1.4-0.8-1.3-0.8-1.2-1-1.2v-0.1l1.5 0.2 1.5 0.1h1.4l1.4-0.2 1.2-0.2 1.2-0.4 1.1-0.6 1-0.5 0.9-0.7 0.9-0.9 0.7-0.8 0.7-1 0.6-1 0.4-1.1 0.4-1.1 0.2-1 0.2-1.1v-2.1l-0.2-1-0.3-1-0.3-0.9-0.4-1.1-0.5-0.9-0.5-1-0.7-0.9-0.6-0.9-0.8-0.9-0.8-0.9-0.9-0.8-1-0.9-1.1-0.9-1.1-0.9-1.3-0.9-1.4-0.9-1.6-1-0.9-0.6-1-0.6-0.9-0.5-1-0.6-1-0.5-1-0.6-0.9-0.5-1.9-0.9-0.8-0.5-0.8-0.5-0.8-0.3-1.5-0.7-1.3-0.5zm33.6-31.3l0.9 0.4 1 0.4 1.2 0.7 1.6 0.9 0.8 0.6 0.7 0.5 0.7 0.7 0.6 0.5 0.6 0.6 0.3 0.6 0.4 0.6 0.4 0.6 0.2 0.7 0.1 0.6v1.2l-0.1 0.6-0.1 0.7-0.3 0.6-0.4 0.7-0.5 0.8-0.8 0.7-0.7 0.4-0.7 0.5-1 0.2-1 0.1h-1l-1.1-0.1-1.1-0.3-1.3-0.5-1.2-0.6-1.4-0.8-3.3-2.1zm-11.2 17.8l3.5 2.2 1 0.7 0.9 0.6 0.8 0.7 0.8 0.6 0.6 0.7 0.6 0.8 0.5 0.7 0.5 0.8 0.3 0.8 0.2 0.7 0.2 0.9v0.8l-0.1 0.8-0.2 0.8-0.3 0.9-0.5 0.8-0.6 0.8-0.6 0.8-0.6 0.5-0.8 0.5-0.7 0.4-0.8 0.2-1.7 0.2h-0.8l-0.9-0.1-0.9-0.3-0.8-0.1-0.9-0.4-1-0.5-0.8-0.4-0.9-0.5-1.2-0.7-1-0.8-0.9-0.5-0.8-0.6zm34.1 46.7l1.2-0.8 0.9-0.8 0.9-0.7 0.9-0.9 0.6-0.5 0.8-0.7 0.6-0.7 0.8-0.6 0.7-0.8 0.7-0.7 0.9-0.7 0.7-0.8 0.8-0.6 0.9-0.7 0.8-0.6 0.8-0.6 0.9-0.5 0.8-0.5 0.8-0.4 0.8-0.2 1.5-0.2h0.8l0.7 0.1 0.7 0.1 0.8 0.2 0.8 0.3 0.7 0.4 2.6 1.4-10 18.5 10.5 5.7 25.1-46.3-0.8-0.6-0.9-0.6-0.9-0.7-1-0.6-1.1-0.8-1.1-0.6-1.1-0.8-1.1-0.7-1.2-0.7-1.3-0.7-1.2-0.7-1.2-0.8-1.5-0.7-1.6-0.7-1.5-0.8-1.4-0.5-1.5-0.6-1.5-0.4-1.5-0.5-1.4-0.3-1.4-0.2-1.4-0.1h-1.4l-1.3 0.2-1 0.2-1 0.3-0.9 0.4-1 0.3-1 0.5-0.9 0.5-0.8 0.7-0.9 0.7-0.7 0.9-0.7 0.8-0.7 1-0.6 1-0.7 1.3-0.4 1.2-0.4 1.2-0.2 1.3-0.1 1.1 0.1 1.2 0.1 1.1 0.3 1.1 0.4 1 0.4 1 0.5 1 0.6 1 0.7 0.9 0.7 0.8 0.8 0.8 0.9 0.7-0.1 0.3-1.4-0.1h-1.3l-1.3 0.1-1.3 0.3-0.9 0.3-1 0.4-0.9 0.5-1 0.4-0.9 0.7-0.9 0.6-0.8 0.6-1 0.8-0.8 0.7-0.8 0.8-0.9 0.8-0.9 0.8-0.8 0.9-0.9 0.8-0.8 0.8-1 0.8-2.5 2.3-1.3 0.9-1.4 0.8zm29.1-18.3l-0.8-0.3-1-0.5-1-0.4-1.2-0.6-0.8-0.5-0.8-0.6-0.7-0.6-0.8-0.6-0.6-0.6-0.6-0.8-0.4-0.6-0.5-0.8-0.3-0.7-0.3-0.8-0.1-0.8v-1.5l0.1-0.9 0.3-0.8 0.4-0.7 0.6-1.1 0.9-1 0.3-0.3 0.5-0.4 0.5-0.3 0.4-0.3 0.9-0.3 1-0.2 1.2-0.1 1.1 0.1 1.1 0.3 1.1 0.2 1.2 0.5 1.1 0.7 1.5 0.8 1.1 0.7 0.9 0.7 0.6 0.5zm16.8 41l10.9 5 8-17.3 0.8 0.5 0.9 0.4 0.9 0.6 1.1 0.4 2.4 1.1 2.4 0.9 1.1 0.2 1.2 0.3 1.2 0.3 1.1 0.2 1.2 0.1 1.1 0.1h1.1l1-0.1 1.1-0.1 1-0.2 1.2-0.2 1-0.3 0.7-0.3 0.7-0.3 0.8-0.4 0.7-0.4 1.4-1 1.3-1.1 1.2-1.3 1.1-1.3 0.9-1.6 0.9-1.7 0.5-1.2 0.5-1.2 0.2-1.2 0.4-2.4v-2.3l-0.4-2.2-0.2-1.1-0.4-1-0.5-1-0.4-0.8-0.5-0.7-0.5-0.7-0.5-0.8-1.3-1.3-1.6-1.4-1.6-1.3-2-1.3-2.2-1.3-2.4-1.2-2.4-1.1-2.3-0.9-2.1-1-1.9-0.7-1.9-0.6-1.6-0.7-1.6-0.4-1.4-0.4zm29.5-35l0.9 0.1 1 0.4 0.6 0.2 0.7 0.3 0.8 0.3 0.7 0.4 1 0.5 1 0.5 0.8 0.6 0.6 0.5 0.7 0.7 0.5 0.6 0.5 0.7 0.4 0.7 0.3 0.7 0.2 0.8 0.1 0.7v0.8l-0.1 0.8-0.1 0.8-0.3 0.8-0.3 0.9-0.7 1.1-0.7 1-0.4 0.4-0.4 0.5-0.5 0.4-0.5 0.3-1 0.5-1.1 0.4-1.1 0.2-1.2 0.1-1.3-0.1-1.4-0.3-1.3-0.5-1.5-0.5-1.1-0.6-0.9-0.4-0.9-0.5-0.6-0.6zm47.4 52.7l-1.2 14.2 12.1 4.8 4.1-55.7-14.7-5.8-34.7 43.6 11.6 4.6 8.6-11.3zm-9.3-13.4l7.1-9.4 0.5-0.7 0.5-0.6 0.4-0.7 0.6-0.8 0.5-0.7 0.5-0.7 0.6-0.9 0.4-0.7 0.6-0.8 0.4-0.7 0.6-0.6 0.4-0.8 0.2 0.1-0.2 0.8v0.9l-0.1 0.8-0.1 0.9-0.2 1-0.1 0.9-0.1 0.9-0.1 0.9-0.1 0.8-0.1 1-0.1 0.8-0.1 0.8-1.1 11.8zm88.2-2.5l-12.9 51.9 11.8 2.9 5.3-21.7 19.3 4.8-5.4 21.7 11.7 2.9 12.9-51.8-11.7-2.9-4.9 19.9-19.3-4.8 5-19.9zm77 58.1l1.4 14.2 12.9 2.4-6.6-55.4-15.6-3-25.7 49.5 12.3 2.3 6.2-12.8zm-11.7-11.3l5.2-10.5 0.4-0.8 0.3-0.8 0.4-0.7 0.4-0.9 0.7-1.6 0.4-0.9 0.3-0.8 0.3-0.8 0.4-0.9 0.4-0.8 0.3-0.7h0.1l0.1 0.8v0.9l0.1 0.9 0.1 0.9v0.9l0.1 0.9 0.1 0.9v0.9l0.1 0.9 0.1 0.9v0.8l0.1 0.9 1.2 11.8zm52.9-22.4l-1.6 14.1-0.4 2.4-0.2 2.3-0.5 2.3-0.5 2.1-0.5 2.2-0.7 2.1-0.6 2-0.7 1.9-0.7 1.6-0.7 1.4-0.8 1.4-0.7 1.4-1.7 2.8-0.9 1.4-0.9 1.3-4.4-0.2-2.2 22.6 9.2 1.1 2.1-13.4 31 3.5-1 13.5 9.2 1.1 3.1-22.5-5.2-0.9 4.9-43.7zm10 11l11.6 1.3-3.9 33.6-17.6-2.1 0.7-0.9 0.6-1 0.7-1 0.6-1.1 0.6-1.1 0.5-1.1 0.6-1.2 0.5-1.2 0.8-2 0.7-2 0.6-2 0.6-2.1 0.5-2.3 0.4-2.2 0.4-2.2 0.4-2.3zm75.5 17.3l-19.6-1.1 0.6-11 20.7 1.1 0.6-9.9-32.9-1.7-2.8 53.3 34 1.7 0.5-9.9-21.9-1.1 0.7-12.6 19.6 1zm14.2-19.7l18.6 23.5-1.7 0.4-1.6 0.6-0.7 0.3-0.7 0.4-0.6 0.4-0.7 0.5-1.2 0.9-1 1.1-0.9 1.3-0.8 1.3-0.9 1.5-0.6 1.4-0.7 1.7-0.5 1.7-0.4 1.3-0.3 1.3-0.5 1.4-0.4 1.4-0.3 1.4-0.5 1.4-0.5 1.4-0.3 1.3-0.5 1.4-0.5 1.3-0.5 1.4-0.6 1.3 12.2-0.2 0.4-0.9 0.3-0.9 0.4-1.1 0.3-1 0.3-0.9 0.2-1 0.4-1 0.2-1.1 0.3-1 0.3-1 0.5-2 0.3-1 0.4-1 0.3-1 0.4-1 0.4-1 0.5-0.8 1.1-1.7 0.7-0.6 0.6-0.7 0.8-0.5 0.9-0.5 0.8-0.3 1-0.3 1.1-0.2 1.2-0.1h2l0.3 22.3 11.6-0.2-0.4-22.3 1.9-0.1 1.2 0.1 1.1 0.1 1 0.3 1 0.4 0.8 0.3 0.7 0.6 0.8 0.5 0.6 0.8 0.6 0.7 0.6 0.8 0.6 0.9 0.4 0.9 0.4 0.9 0.4 1 0.4 1 0.4 1.1 0.3 1 0.2 0.9 0.6 2 0.4 1 0.2 1.1 0.4 1 0.3 1 0.4 0.9 0.3 1 0.4 0.9 0.4 1 12.2-0.3-0.5-1.3-0.6-1.3-0.5-1.4-0.5-1.4-0.5-1.3-0.9-2.8-0.4-1.4-0.4-1.4-0.5-1.4-0.4-1.3-0.5-1.4-0.6-1.7-0.7-1.6-0.8-1.5-0.8-1.4-0.9-1.4-1-1.1-1.1-1.1-1.2-0.9-0.6-0.4-0.8-0.4-0.6-0.3-0.8-0.3-0.8-0.2-0.8-0.3-0.9-0.1h-0.8l17.7-24.2-13.9 0.3-12.9 22.3-1.1 0.1-0.5-22.2-11.5 0.1 0.4 22.3h-1.1l-13.6-22zm85.7-2.5l1.2 14.2 0.1 2.4 0.1 2.3 0.1 2.3v2.2l-0.1 2.3-0.1 2.2-0.3 2.1-0.4 2-0.4 1.7-0.3 1.5-0.5 1.5-0.5 1.6-0.5 1.6-1.1 2.9-0.8 1.5-4.3 0.7 2.4 22.6 9.2-0.8-0.5-13.6 31.1-2.6 1.7 13.4 9.1-0.8-1.4-22.7-5.3 0.2-3.8-43.7zm12 8.7l11.5-1 3 33.7-17.6 1.5 0.4-1.1 0.4-1 0.5-1.2 0.3-1.1 0.4-1.3 0.3-1.2 0.3-1.3 0.2-1.2 0.4-2.1 0.4-2.1 0.2-2.1 0.1-2.2v-4.5l-0.1-2.4-0.1-2.3zm72.7 19.8l6.2 12.9 12.8-2-24.5-50.2-15.7 2.5-7.8 55.2 12.3-1.9 1.7-14.1zm-14.8-6.9l1.4-11.7 0.1-0.7 0.1-0.9 0.1-0.8v-1l0.1-0.9 0.1-0.9 0.1-0.8v-1l0.1-1.8v-0.8l0.1-0.9h0.2l0.3 0.8 0.4 0.8 0.3 0.7 0.3 0.9 0.4 0.9 0.3 0.8 0.4 0.8 0.4 0.9 0.4 0.8 0.3 0.8 0.4 0.8 0.4 0.8 4.9 10.6zm78.6-47l-3.5 56.1 12.3-3.3 0.7-23.8 0.1-2.4v-9.7l-0.1-2.3-0.2-5h0.3l1.1 2.2 1.1 2.2 1.1 2.2 1.2 2.1 1.2 2.2 1.3 2.1 1.2 2 1.3 2.1 12.1 20.1 12.8-3.4-30.4-47.1zm41.8-11.3l17.4 50.4 11.4-3.9-7.3-21.2 5.7-2 1.2 2.3 1.2 2.1 0.6 1 0.8 0.9 0.6 1 0.8 0.8 2.4 2.4 0.9 0.7 0.8 0.7 0.9 0.5 1 0.7 0.9 0.4 0.9 0.5 1 0.5 0.9 0.3 1.1 0.3 1 0.3 1.1 0.2 1 0.1 2.2 0.2h1.1l1.1-0.1 2.2-0.3 1.2-0.2 1.1-0.4 1.2-0.3 1.3-0.5 1.1-0.5 1.2-0.5 1.1-0.7 1-0.6 1.1-0.7 1-0.7 0.8-0.8 0.9-0.9 0.9-0.8 0.7-0.9 0.6-0.9 0.7-1 0.6-1.1 0.6-1.1 0.4-1.1 0.5-1.1 0.4-1.1 0.2-1.2 0.3-1.3 0.2-1.2 0.1-1.3 0.1-1.3v-2.7l-0.1-1.5-0.2-1.4-0.5-2.9-0.4-1.5-0.5-1.6-0.4-1.5-0.9-2.1-0.8-1.9-1-1.9-1-1.8-1.2-1.7-1.2-1.5-1.4-1.5-1.4-1.4-1.5-1.2-1.5-1.1-1.7-0.9-1.6-0.7-1.8-0.7-1.8-0.4-1.9-0.3-1.9-0.2h-1l-1 0.1-1.1 0.1-1 0.1-2 0.4-2.1 0.7-1.1 0.3-1 0.5-1.1 0.5-1 0.5-0.9 0.6-0.9 0.5-0.8 0.7-0.9 0.6-0.8 0.8-0.7 0.7-0.7 0.7-0.6 0.9-0.7 0.8-0.5 0.8-0.6 0.9-0.5 0.9-0.5 1-0.4 0.9-0.3 1-0.4 1-0.6 2.1-0.3 2.1-0.2 2.3v2.2l0.1 2.4 0.4 2.3-6.1 2.1-6.8-19.6zm53.8 28.8l-1.3 0.3-1.3 0.2h-1.3l-0.6-0.1-0.6-0.2-1.2-0.3-1.2-0.5-1.2-0.7-1.1-0.9-1-1-1-1.1-1-1.2-1-1.4-0.8-1.4-0.8-1.5-0.7-1.7-0.7-1.7-0.5-1.8-0.4-1.7-0.4-1.7-0.3-1.8-0.1-1.5v-1.6l0.1-1.6 0.3-1.4 0.3-1.3 0.5-1.3 0.6-1.2 0.7-1 0.5-0.6 0.4-0.4 0.5-0.4 0.5-0.5 0.5-0.2 0.6-0.4 0.6-0.3 0.7-0.3 1.3-0.3 0.6-0.1h1.9l0.7 0.1 0.6 0.2 1.2 0.3 1.2 0.6 1.1 0.7 1.2 0.8 1 1.1 1 1.1 1 1.2 0.8 1.3 0.9 1.4 0.8 1.6 0.6 1.6 0.7 1.6 0.5 1.9 0.5 1.8 0.4 1.8 0.2 1.6 0.1 1.7v1.5l-0.1 1.5-0.2 1.5-0.3 1.4-0.6 1.2-0.5 1.2-0.8 1-0.3 0.5-0.5 0.4-0.5 0.4-0.4 0.4-1.1 0.7-1.3 0.4zm21.4-56.1l21.2 48.7 1-0.4 1.2-0.4 1.4-0.3 1.5-0.6 1.5-0.5 1.8-0.7 1.8-0.8 2-0.8 1.9-0.9 1.7-0.9 1.9-0.9 1.6-1 1.7-1.1 1.6-1.2 1.4-1.2 1.4-1.3 1.3-1.4 1.1-1.4 0.9-1.5 0.9-1.5 0.6-1.4 0.4-1.6 0.3-1.5 0.1-1.6v-0.8l-0.1-1-0.1-0.8-0.2-0.8-0.5-1.8-0.6-1.7-0.7-1.3-0.6-1.2-0.7-1.1-0.9-1-0.8-0.9-0.9-0.8-0.9-0.7-1.1-0.7-1-0.4-1-0.5-1.1-0.4-1.1-0.2-1.2-0.3-1.3-0.2h-4l-1.2 0.2-1.3 0.3-1.4 0.2-1.3 0.3-1.3 0.5-1.3 0.4-1.2 0.5-1 0.5-1 0.5-1 0.5-1 0.5-1 0.5-0.8 0.4-3.6-8.3 21.5-9.3-4-9.1zm22.2 20.7l0.9-0.5 0.9-0.6 1-0.4 0.9-0.5 2.1-0.7 1-0.2 1-0.3 1.1-0.1h1l1 0.1 1 0.2 0.9 0.3 0.7 0.3 0.7 0.4 0.7 0.5 0.6 0.6 0.6 0.7 0.4 0.7 0.5 0.9 0.3 1 0.3 0.8 0.1 0.9v0.8 0.9l-0.1 0.8-0.2 0.7-0.4 0.8-0.5 0.9-0.5 0.9-0.7 0.7-0.7 0.9-0.8 0.6-0.9 0.7-1 0.5-0.9 0.5-1.2 0.4-1.1 0.5-1.1 0.4-1 0.3zm46.7-54.2l-1.3 0.8-1.2 0.7-1.2 0.8-1 0.9-1.1 0.9-0.9 0.9-0.9 0.9-0.8 1-0.8 1.1-0.7 1.1-0.7 1.1-0.6 1.1-0.5 1.1-0.4 1.2-0.5 1.2-0.4 1.2-0.2 1.2-0.2 1.3-0.1 1.3-0.1 1.2-0.1 1.3 0.1 1.3 0.1 1.3 0.2 1.3 0.1 1.4 0.3 1.3 0.4 1.4 0.4 1.3 0.5 1.3 0.6 1.3 0.5 1.4 0.7 1.3 1.2 1.9 1.2 1.9 1.3 1.7 1.3 1.6 1.5 1.5 1.6 1.4 1.5 1.2 1.7 1.1 1.8 0.9 1.8 0.7 1.8 0.7 1.9 0.3 2 0.3 2 0.2 2-0.1 2-0.3 2-0.3 1.1-0.3 1.1-0.4 2-0.8 2.1-1 1.3-0.8 1.2-0.7 1.1-0.7 1.1-0.9 1-0.8 1-0.9 1-0.9 0.8-1 0.8-1 0.8-1.1 0.6-1 0.6-1.1 0.6-1.1 0.5-1.1 0.4-1.2 0.4-1.2 0.3-1.2 0.2-1.3 0.2-1.2 0.1-1.3v-2.7l-0.1-1.3-0.3-2.7-0.3-1.4-0.4-1.4-0.4-1.4-0.6-1.3-0.6-1.5-0.6-1.4-0.7-1.5-1.1-1.9-1.2-1.8-1.3-1.7-1.3-1.6-1.5-1.5-1.6-1.3-1.5-1.2-1.7-1.1-1.7-0.9-1.9-0.7-1.8-0.7-1.9-0.4-2-0.3-1.9-0.1-2.1 0.1-2.1 0.2-1 0.2-1 0.2-1.1 0.3-1 0.4-2.2 0.8zm4.1 8.7l0.7-0.4 0.8-0.3 0.6-0.2 0.8-0.2 0.6-0.1 0.7-0.1 0.7-0.1h0.7l1.4 0.2 1.3 0.3 1.4 0.4 1.3 0.7 1.3 0.7 1.2 0.9 1.2 1 1.2 1.1 1.1 1.3 1 1.4 0.9 1.5 0.9 1.5 0.9 1.7 0.7 1.8 0.5 1.6 0.5 1.7 0.4 1.7 0.2 1.5v3.1l-0.3 1.3-0.4 1.4-0.5 1.2-0.7 1.2-0.7 1.1-1 1-1.1 1-1.3 0.7-1.3 0.7-1.4 0.4-1.4 0.3h-1.4l-1.3-0.1-1.3-0.2-1.3-0.4-1.3-0.6-1.3-0.7-1.3-0.9-1.2-1-1.2-1.2-1.1-1.3-1-1.4-1-1.5-1.1-1.7-0.8-1.7-0.7-1.7-0.6-1.7-0.4-1.7-0.4-1.6-0.2-1.5v-1.6l0.1-1.5 0.2-1.5 0.4-1.3 0.5-1.2 0.7-1.2 0.8-1.1 1-1.1 1.1-0.9zm60 18l1-0.5 1.1-0.5 1.3-0.7 1.4-0.7 1.5-0.8 1.6-1 1.7-1.1 1.9-1.2 2.1-1.3 1.9-1.4 1.8-1.4 1.6-1.4 1.5-1.3 1.3-1.3 1.1-1.3 1-1.2 0.8-1.2 0.8-1.2 0.5-1.2 0.5-1.2 0.3-1 0.2-1.1 0.2-2 0.1-1.1-0.1-1-0.2-1.1-0.1-1-0.4-1.1-0.4-1.1-0.5-1-0.7-1-0.9-1.4-1.7-1.6-0.6-0.5-0.6-0.5-0.6-0.3-1.4-0.7-1.3-0.5-1.4-0.3-1.4-0.2-1.6-0.1-1.5 0.2-1.5 0.3-1.5 0.4-0.1-0.1 0.9-1.3 0.7-1.3 0.6-1.3 0.4-1.3 0.2-1.2 0.2-1.3v-1.2l-0.1-1.2-0.2-1.1-0.4-1.1-0.5-1.1-0.6-1-0.7-0.9-0.8-1-0.7-0.7-0.9-0.6-0.9-0.6-1-0.5-0.9-0.3-1-0.4-1-0.2-1.1-0.1-1.1-0.1-1 0.1-1.1 0.1-2.2 0.4-1.2 0.3-1.1 0.3-1.2 0.5-1.2 0.5-1.2 0.7-1.3 0.6-1.4 0.9-1.4 0.8-1.5 1-0.9 0.6-1 0.6-1 0.7-0.9 0.6-0.9 0.6-0.9 0.7-0.9 0.6-0.8 0.7-0.8 0.6-0.8 0.6-0.7 0.5-0.7 0.7-1.2 1-1 0.9zm-14.1-43.7l0.7-0.5 0.8-0.8 1.2-0.8 1.5-0.9 0.8-0.6 0.8-0.4 0.9-0.4 0.7-0.3 0.7-0.3 0.8-0.1 0.7-0.1h1.4l0.6 0.2 0.6 0.2 0.6 0.3 0.5 0.4 0.5 0.4 0.4 0.6 0.5 0.5 0.4 1 0.3 0.8 0.2 0.9v0.8l-0.1 1-0.4 0.9-0.4 1-0.6 0.9-0.8 0.9-0.9 0.9-1 0.9-1.3 0.9-3.3 2.1zm11.4 17.6l3.4-2.2 1-0.5 0.9-0.6 1-0.4 0.9-0.4 1-0.3 0.8-0.3 1-0.1h1.7 0.8l0.8 0.3 0.7 0.3 0.7 0.5 0.7 0.5 0.6 0.7 0.6 0.7 0.5 0.9 0.4 0.8 0.2 0.9 0.2 0.9v0.8l-0.1 0.8-0.2 0.8-0.4 0.8-0.3 0.8-0.5 0.7-0.5 0.7-1.3 1.3-0.8 0.7-0.8 0.6-0.8 0.6-1.2 0.8-1 0.7-1 0.5-0.8 0.4zm117.1-144.9l-63 39.6-18.2-29.2-3.9-5.9-0.8-1.3-1-1.2-1-1.1-1.1-1.1-1.1-1.1-1.2-0.9-1.2-0.8-1.3-0.7-1.4-0.8-1.3-0.6-1.5-0.6-1.5-0.4-1.6-0.3-1.4-0.3-1.7-0.2h-3.9l-1 0.1-1.8 0.4-129.7 25.9-2.4 0.4-2.6 0.4-2.9 0.3-2.6 0.1-0.3-0.1h-0.4l-1.2-0.2-1.2-0.2-1.1-0.3-1.1-0.3-0.1-0.1h-0.2l-0.1-0.1h-0.1l-0.1-0.1h-0.1l-1.1-0.5-1-0.5-0.9-0.8-1-0.6-0.8-0.8-0.9-0.9-0.7-0.9-0.7-0.9-0.6-1-0.6-1-0.5-1.1-0.4-1.1-0.5-2.4-0.1-1.2-0.1-1.3 0.1-1.1 0.1-1 0.1-1.2 0.2-1 0.3-1 0.3-0.9 0.5-1 0.4-0.9 0.5-0.9 0.5-0.8 0.7-0.8 0.6-0.8 0.8-0.7 0.7-0.7 0.8-0.5 0.9-0.6 259.5-165.6zm-1161.6-175.3l259.5 165.7 0.9 0.5 0.8 0.6 0.7 0.6 0.8 0.8 0.6 0.7 0.7 0.8 0.5 0.9 0.5 0.8 0.4 0.9 0.5 1 0.3 1 0.2 1 0.3 1 0.2 1.1 0.1 1v1.1l-0.1 1.3-0.1 1.2-0.5 2.4-0.4 1.1-0.6 1.1-0.4 1-0.7 1-0.7 1-0.7 0.9-0.9 0.8-0.8 0.8-1 0.7-0.9 0.7-1.1 0.6-1.1 0.4h-0.1v0.1h-0.1l-0.1 0.1h-0.2v0.1l-1.2 0.4-1.1 0.3-1.2 0.1-1.2 0.2h-0.4l-0.4 0.1-2.5-0.1-2.9-0.3-2.7-0.3-2.3-0.5-129.6-25.9-1.9-0.4-1-0.1h-3.9l-1.6 0.2-1.6 0.3-1.5 0.4-1.5 0.3-1.5 0.6-1.4 0.6-1.2 0.8-1.4 0.7-1.2 0.9-1.2 0.9-1.1 1-1.1 1.1-1.1 1.1-0.9 1.2-0.8 1.3-3.8 6-18.3 29.1-63-39.5z"/>
	<path id="Object 5" fill-rule="evenodd" class="s2" d="m272.1 1145.2l-27 63.8-8.3-4.1-8.2-4.1-8.1-4.3-8.1-4.3-8.1-4.4-8-4.6-7.9-4.6-8-4.8-7.9-4.8-7.8-4.9-7.8-4.9-7.7-5.2-7.7-5.2-7.6-5.2-7.6-5.5-7.6-5.4v-0.1l-0.8-0.5-0.7-0.7-0.7-0.7-0.5-0.9-0.5-1-0.4-0.9-0.1-1-0.1-1.1 0.1-0.8 0.1-0.9 0.1-0.7 0.3-0.7 0.4-0.7 0.4-0.7 0.4-0.6 0.6-0.5 0.5-0.6 0.7-0.4 0.6-0.4 0.7-0.4 0.7-0.3 0.8-0.1 0.8-0.2h1.8l0.9 0.2 129.5 25.8 2.1 0.4 2.2 0.4 2.3 0.3 4.8 0.3 2.2 0.1 2.2-0.1zm651.8 0l26.9 63.8 8.3-4 8.2-4.2 8.1-4.2 8.1-4.3 8.1-4.5 8.1-4.5 7.9-4.6 7.9-4.8 7.9-4.8 7.9-4.9 7.7-4.9 7.8-5.2 7.6-5.2 7.7-5.2 7.5-5.5 7.6-5.4v-0.1l0.8-0.5 0.8-0.7 0.6-0.7 0.6-0.9 0.4-1 0.4-0.9 0.2-1 0.1-1.1-0.1-0.8-0.1-0.9-0.2-0.7-0.3-0.7-0.3-0.7-0.4-0.7-0.5-0.6-0.5-0.5-0.6-0.6-0.6-0.5-0.7-0.3-0.6-0.4-0.8-0.3-0.8-0.1-0.7-0.2h-1.9l-0.9 0.2-129.4 25.8-2.2 0.4-2.2 0.4-2.3 0.3-2.4 0.2-2.4 0.1-2.2 0.1-2.2-0.1z"/>
	<path id="Object 6" fill-rule="evenodd" class="s2" d="m202.5 573.6v-256.8h790.9v256.7h-1.2l-4.2 0.1-4.1 0.2-3.9 0.5-3.7 0.5-3.7 0.7-3.6 0.9-3.4 1-3.4 1.1-3.4 1.3-3.4 1.4-3.3 1.6-3.3 1.7-3.4 1.8-3.3 2-3.5 2-3.5 2.2-5.1 3.2-4.8 2.8-2.3 1.3-2.3 1.2-2.4 1.1-2.3 1-2.4 1-2.5 0.7-2.5 0.7-2.6 0.6-2.7 0.4-2.8 0.4-3.1 0.2h-6.2l-3-0.2-2.8-0.4-2.7-0.4-2.6-0.6-2.6-0.7-2.4-0.7-2.4-1-2.4-1-2.3-1.1-2.3-1.2-2.4-1.3-4.8-2.8-5-3.2-3.5-2.2-3.4-2-3.5-2-6.6-3.5-3.3-1.6-3.3-1.4-3.4-1.3-3.5-1.1-3.5-1-3.5-0.9-3.7-0.7-3.7-0.5-4-0.5-4.1-0.2-4.2-0.1-4.2 0.1-4.1 0.2-3.9 0.5-3.8 0.5-3.6 0.7-3.6 0.9-3.5 1-3.4 1.1-3.4 1.3-3.3 1.4-3.3 1.6-3.3 1.7-3.4 1.8-3.3 2-3.6 2-3.5 2.2-5 3.2-4.8 2.8-2.3 1.3-2.4 1.2-2.3 1.1-2.3 1-2.4 1-2.5 0.7-2.5 0.7-2.6 0.6-2.8 0.4-2.8 0.4-3 0.2h-6.2l-3-0.2-2.8-0.4-2.7-0.4-2.7-0.6-2.5-0.7-2.4-0.7-2.4-1-2.4-1-2.3-1.1-2.3-1.2-2.4-1.3-4.8-2.8-5-3.2-3.1-1.9-2.9-1.9-3-1.6-2.9-1.7-5.8-2.9-2.9-1.3-2.9-1.3-0.5-18.1 120.4-17.1 1.7 1.7 1.8 1.7 1.9 1.6 3.9 2.7 2.1 1.2 2.1 1.2 2.3 1 2.3 1 2.3 0.7 2.3 0.7 2.4 0.6 2.4 0.4 2.5 0.3 2.4 0.2 2.5 0.1 2.4-0.1 2.5-0.2 2.4-0.3 2.3-0.3 2.3-0.6 2.3-0.6 2.3-0.8 2.2-0.9 2.1-0.9 2-1 2-1.2 2-1.2 1.8-1.4 1.9-1.4 3.3-3.1 1.6-1.7 1.5-1.7 1.4-1.8 1.4-1.9 1.2-2 1.2-1.9 1-2.1 1-2.1 0.8-2.2 0.8-2.2 0.6-2.3 0.6-2.3 0.3-2.3 0.4-2.4 0.2-2.5v-4.9l-0.2-2.3-0.4-2.4-0.3-2.4-0.6-2.3-0.6-2.4-0.8-2.2-0.8-2.1-1-2.1-1-2.1-1.2-2-1.2-1.9-1.4-1.9-1.4-1.8-1.5-1.7-1.6-1.7-3.3-3.1-1.9-1.4-1.8-1.3-2-1.3-4-2.2-2.1-0.9-2.2-1-2.3-0.7-2.3-0.6-2.3-0.5-2.3-0.5-2.4-0.2-2.5-0.2-2.4-0.1h-1.5l-3.2 0.2-1.4 0.2-1.6 0.2-1.5 0.3-1.5 0.3-2.9 0.7-1.4 0.5-1.5 0.5-1.3 0.5-1.4 0.6-1.3 0.7-1.4 0.6-1.3 0.7-1.3 0.7-1.3 0.8-1.2 0.9-1.3 0.8-1.1 0.9-1.2 1-1.1 1-1.1 0.9-1.1 1.1-1 1-1 1.1-0.9 1.2-1.1 1.1-0.8 1.2-0.9 1.3-0.8 1.2h-94.6l1.7-1.5 1.8-1.5 1.6-1.6 1.7-1.7 1.6-1.7 1.5-1.7 1.5-1.8 1.5-1.8 1.4-1.8 1.3-1.9 1.3-2 1.2-1.9 1.2-2 1.2-2.1 1-2 1.2-2.1 0.9-2.1 0.9-2.3 0.9-2.2 0.8-2.2 0.8-2.2 0.6-2.3 0.7-2.3 0.5-2.3 0.5-2.3 0.5-2.4 0.3-2.4 0.4-2.4 0.2-2.5 0.2-2.5v-2.4l0.1-2.5-0.1-4.5-0.3-4.4-0.6-4.4-0.7-4.2-1-4.2-1.2-4.1-1.3-4-1.6-4-1.7-3.8-2-3.8-2.1-3.6-2.2-3.6-2.4-3.3-2.6-3.3-2.7-3.1-2.9-3.1-3-2.8-3.2-2.8-3.2-2.6-3.4-2.4-3.6-2.2-3.6-2.1-3.8-1.9-3.8-1.8-3.9-1.5-4.1-1.4-4.1-1.2-4.2-0.9-4.2-0.8-4.4-0.6-4.4-0.2-4.5-0.2-4.4 0.2-4.5 0.2-4.3 0.6-4.2 0.8-4.3 0.9-4 1.2-4.1 1.4-4 1.5-3.7 1.8-3.8 1.9-3.6 2.1-3.6 2.2-3.4 2.4-3.2 2.6-3.2 2.8-3 2.8-2.9 3.1-2.7 3.1-2.6 3.3-2.4 3.3-2.2 3.6-2.2 3.6-1.9 3.8-1.7 3.8-1.6 4-1.3 4-1.2 4.1-1 4.2-0.8 4.2-0.5 4.4-0.3 4.4-0.2 4.5 0.1 2.5 0.1 2.4 0.2 2.5 0.2 2.5 0.4 2.4 0.3 2.4 0.5 2.4 0.4 2.3 0.6 2.3 0.6 2.3 0.7 2.3 0.8 2.2 0.8 2.2 0.9 2.2 0.9 2.3 0.9 2.1 1.1 2.1 1 2 1.2 2.1 1.2 2 1.2 1.9 1.4 2 1.3 1.9 1.4 1.8 1.5 1.8 1.4 1.8 1.6 1.7 1.6 1.7 1.6 1.7 1.7 1.6 1.8 1.5 1.7 1.5h-94.6l-0.8-1.2-0.9-1.3-0.9-1.2-1-1.1-0.9-1.2-1-1.1-1-1-1.1-1.1-1.1-0.9-1.2-1-1.2-1-1.1-0.9-1.3-0.8-1.1-0.9-1.3-0.8-1.3-0.7-1.3-0.7-1.4-0.6-1.3-0.7-1.4-0.6-1.4-0.5-1.4-0.5-1.4-0.5-3-0.7-1.4-0.3-1.5-0.3-1.6-0.2-1.5-0.2-3.1-0.2h-1.6l-2.4 0.1-2.5 0.2-2.3 0.2-2.4 0.5-2.3 0.5-2.3 0.6-2.2 0.7-2.2 1-2.1 0.9-2 1.1-2.1 1.1-1.9 1.3-1.8 1.3-1.9 1.4-3.3 3.1-1.7 1.7-1.4 1.7-1.4 1.8-1.4 1.9-1.2 1.9-1.2 2-1 2.1-1 2.1-0.9 2.1-0.7 2.2-0.6 2.4-0.6 2.3-0.4 2.4-0.3 2.4-0.2 2.3v4.9l0.2 2.5 0.3 2.4 0.4 2.3 0.6 2.3 0.6 2.3 0.7 2.2 0.9 2.2 1 2.1 1 2.1 1.2 1.9 1.2 2 1.4 1.9 1.4 1.8 1.4 1.7 1.7 1.7 3.3 3.1 1.9 1.4 1.8 1.4 1.9 1.2 2.1 1.2 2 1 2.1 0.9 2.2 0.9 2.2 0.8 2.3 0.6 2.3 0.6 2.4 0.3 2.3 0.3 2.5 0.2 2.4 0.1 2.5-0.1 2.5-0.2 2.5-0.3 2.4-0.4 2.4-0.6 2.3-0.7 2.3-0.7 2.3-1 2.2-1 2.1-1.2 2.1-1.2 2-1.4 1.9-1.3 2-1.6 1.7-1.7 1.8-1.7 120.4 17.1-0.7 20.1-2.3 1.1-2.3 1.2-2.3 1.2-2.3 1.3-2.4 1.4-2.3 1.4-2.5 1.5-2.4 1.5-5 3.2-4.8 2.8-2.3 1.3-2.4 1.2-2.3 1.1-2.4 1-2.4 1-2.4 0.7-2.5 0.7-2.7 0.6-2.7 0.4-2.8 0.4-3 0.2h-6.2l-3-0.2-2.9-0.4-2.7-0.4-2.6-0.6-2.5-0.7-2.5-0.7-2.4-1-2.3-1-2.3-1.1-2.4-1.2-2.3-1.3-4.8-2.8-5.1-3.2-3.5-2.2-3.5-2-3.3-2-3.4-1.8-3.3-1.7-3.3-1.6-3.3-1.4-3.4-1.3-3.4-1.1-3.5-1-3.6-0.9-3.6-0.7-3.8-0.5-3.9-0.5-4.1-0.2-4.2-0.1-4.3 0.1-4 0.2-4 0.5-3.8 0.5-3.6 0.7-3.5 0.9-3.6 1-3.4 1.1-3.4 1.3-3.3 1.4-3.3 1.6-6.7 3.5-3.4 2-3.4 2-3.5 2.2-5 3.2-4.8 2.8-2.4 1.3-2.3 1.2-2.3 1.1-2.4 1-2.4 1-2.4 0.7-2.6 0.7-2.6 0.6-2.7 0.4-2.8 0.4-3 0.2h-6.3l-3-0.2-2.8-0.4-2.7-0.4-2.6-0.6-2.5-0.7-2.5-0.7-2.4-1-2.3-1-2.4-1.1-2.3-1.2-2.3-1.3-4.9-2.8-5-3.2-3.6-2.2-3.4-2-3.4-2-6.6-3.5-6.7-3-3.4-1.3-3.4-1.1-3.4-1-3.6-0.9-3.7-0.7-3.8-0.5-3.8-0.5-4.2-0.2-4.2-0.1h-2.8l-1.5 0.1zm396.5-173h1l1 0.2 0.9 0.1 1 0.2 0.9 0.3 0.9 0.3 0.9 0.3 1.7 0.9 1.6 0.9 1.5 1.2 1.4 1.2 1.3 1.4 1.1 1.5 0.9 1.6 0.9 1.7 0.3 0.9 0.3 0.9 0.3 0.9 0.2 1 0.1 0.9 0.2 1 0.1 1v1.9l-0.1 1.1-0.2 1-0.1 0.9-0.2 0.9-0.3 0.9-0.3 1-0.3 0.9-0.9 1.6-0.9 1.7-1.1 1.5-1.3 1.4-1.4 1.3-1.5 1.1-1.6 0.9-1.7 0.8-0.9 0.4-0.9 0.3-0.9 0.2-1 0.3-0.9 0.1-1 0.2-1 0.1h-1.9l-1.1-0.1-1-0.2-0.9-0.1-0.9-0.3-0.9-0.2-1-0.3-0.9-0.4-1.6-0.8-1.7-0.9-1.5-1.1-1.4-1.3-1.3-1.4-1.1-1.5-0.9-1.7-0.8-1.6-0.4-0.9-0.3-1-0.2-0.9-0.2-0.9-0.2-0.9-0.2-1-0.1-1.1v-1.9l0.1-1 0.2-1 0.2-0.9 0.2-1 0.2-0.9 0.3-0.9 0.4-0.9 0.8-1.7 0.9-1.6 1.1-1.5 1.3-1.4 1.4-1.2 1.5-1.2 1.7-0.9 1.6-0.9 0.9-0.3 1-0.3 0.9-0.3 0.9-0.2 0.9-0.1 1-0.2h1.1l0.9-0.1z"/>
	<path id="Object 7" class="s3" d="m993.4 855.7v42.5l-0.2 10.7-0.5 10.6-1 10.2-1.4 9.9-1.7 9.7-2.1 9.4-2.4 9.3-2.9 8.9-3.1 8.7-3.4 8.4-3.8 8.3-4.1 8.1-4.4 7.8-4.8 7.7-4.9 7.5-5.3 7.3-5.6 7.1-5.8 6.9-6.2 6.8-6.4 6.7-6.6 6.5-6.8 6.4-7.2 6.2-7.3 6.1-7.6 6.1-7.8 5.9-7.9 5.8-8.2 5.7-8.4 5.7-8.6 5.6-8.7 5.5-8.9 5.5-6.8 4-6.8 4.1-7 3.9-6.9 3.9-7 3.8-7 3.8-7 3.8-7.1 3.6-7.1 3.6-7.1 3.6-7.1 3.6-7.2 3.5-14.4 6.9-14.4 6.9-14.5 6.6-14.6 6.6-14.6 6.5-14.6 6.5-14.7 6.3-14.5 6.5-14.6 6.3-14.6 6.4-1.9 0.8-1.9-0.8-14.5-6.4-14.6-6.3-14.6-6.5-14.6-6.3-14.6-6.5-14.6-6.5-14.6-6.6-14.5-6.6-14.5-6.9-14.3-6.9-7.2-3.5-7.1-3.6-7.1-3.6-7.1-3.6-7.1-3.6-7-3.8-7-3.8-7-3.8-7-3.9-6.9-3.9-6.8-4.1-6.8-4-9-5.5-8.6-5.5-8.6-5.6-8.4-5.7-8.2-5.7-7.9-5.8-7.9-5.9-7.5-6.1-7.3-6.1-7.2-6.2-6.8-6.4-6.7-6.5-6.3-6.7-6.2-6.8-5.8-6.9-5.6-7.1-5.3-7.3-5-7.5-4.8-7.7-4.3-7.8-4.1-8.1-3.8-8.3-3.5-8.4-3.1-8.7-2.8-8.9-2.4-9.3-2.1-9.4-1.7-9.7-1.4-9.9-1-10.2-0.6-10.6-0.1-10.7v-42.4l0.9-0.1h1.2 1.2 1.2 1.1 3.6l3.4 0.2 3.2 0.4 3.2 0.5 3.1 0.6 2.9 0.7 2.9 0.9 2.9 1 2.7 1.1 2.8 1.2 2.7 1.4 2.8 1.5 2.9 1.4 2.8 1.7 2.9 1.7 2.9 1.9 3.2 2 3 1.9 3.1 1.7 2.9 1.7 2.9 1.5 2.8 1.4 3 1.3 2.8 1.2 3.1 1.1 2.9 0.9 3.2 0.8 3.2 0.7 3.3 0.5 3.5 0.3 3.6 0.3 3.9 0.1 3.8-0.1 3.6-0.3 3.5-0.3 3.3-0.5 3.2-0.7 3.1-0.8 3.1-0.9 2.9-1.1 3-1.2 2.8-1.3 2.9-1.5 2.9-1.4 3-1.7 2.9-1.7 3.1-1.9 3.1-2 3-1.9 2.9-1.7 2.8-1.7 2.9-1.5 2.7-1.4 2.8-1.4 2.7-1.2 2.8-1.1 2.9-1 2.8-0.9 3.1-0.7 3-0.6 3.2-0.5 3.2-0.4 3.4-0.2h3.6 3.5l3.4 0.2 3.3 0.4 3.2 0.5 3 0.6 2.9 0.7 2.9 0.9 2.9 1 2.8 1.1 2.8 1.2 2.8 1.4 2.7 1.5 2.8 1.4 2.8 1.7 2.9 1.7 3 1.9 3.2 2 3 1.9 3 1.7 2.9 1.7 2.9 1.4 2.9 1.5 2.9 1.3 2.9 1.2 3 1.1 3 0.9 3.1 0.8 3.2 0.7 3.3 0.5 3.5 0.3 3.7 0.3 3.8 0.1 3.6-0.1 3.3-0.2 3.3-0.3 3.2-0.5 3-0.6 2.9-0.7 2.8-0.7 2.9-0.9 2.6-1.2 2.8-1.1 2.7-1.3 2.7-1.2 2.7-1.5 2.7-1.6 2.8-1.6 2.8-1.8-0.2 4.6-0.4 4.6-0.3 4.5-0.4 4.7-0.3 4.5-0.4 4.6-0.4 4.5-0.3 4.6-0.4 4.5-0.4 4.6-0.3 4.6-0.5 4.6-0.4 4.5-0.4 4.5-0.5 4.6-0.5 4.5-0.4 4.3-0.7 4.3-0.7 4.3-0.9 4.3-0.6 2.1-0.6 2.1-0.6 2-0.7 2.2-0.8 2-0.7 2-0.9 2-0.8 1.9-1.1 1.9-1 1.9-1.1 1.8-1.1 1.8-1.2 1.7-1.3 1.7-1.4 1.6-1.3 1.6-1.6 1.5-1.6 1.5-1.6 1.3-1.7 1.3-1.8 1.2-2 1.1-1.9 1.1-2.1 1.1-1.8 0.7-1.8 0.6-1.9 0.7-1.8 0.5-1.9 0.6-2 0.4-1.9 0.3-2 0.4-2 0.2-2 0.2-1.9 0.2h-2.1-4-4.2l-4-0.4-4.1-0.5-4.1-0.5-3.9-0.8-4-0.8-3.9-1-3.7-1-3.6-1.1-5.3-1.7-5.3-2-5.5-2.1-5.5-2.4-2.8-1.3-2.6-1.4-2.8-1.4-2.8-1.4-2.6-1.5-2.7-1.4-2.6-1.6-2.6-1.6 3.7-2.3 3.7-2.5 3.6-2.4 3.4-2.6 1.6-1.4 1.6-1.4 1.6-1.4 1.5-1.4 1.3-1.3 1.4-1.5 1.4-1.4 1.2-1.5 0.1-0.1v-0.1l0.7-0.7 0.5-0.8 0.6-0.9 0.4-0.9 0.4-0.8 0.4-0.9 0.2-1 0.3-1 0.2-0.9 0.1-1v-0.9-1l-0.1-1.1-0.1-1-0.3-1-0.3-0.9-0.3-1.1-0.5-1-0.5-0.9-0.6-1-0.6-0.9-0.8-0.8-0.7-0.8-0.7-0.6-1-0.7-0.8-0.6-0.9-0.5-1-0.4-1-0.5-1-0.3-1.1-0.2-1-0.2h-0.3l-0.2-0.1-8.5-1.2-8.4-1.3-8.4-1.4-8.3-1.5-8.2-1.6-8.2-1.8-8.1-1.7-8-2-8.2-2.1-8-2.2-8-2.3-7.9-2.5-8.1-2.6-8-2.6-8-2.9-8.1-3-1-0.4-1-0.4-1.1-0.2-1.1-0.1-1.1-0.2h-1.1-1l-1.1 0.1-1 0.1-1.1 0.3-1 0.3-1 0.4-1.1 0.5-0.9 0.6-1 0.6-0.9 0.8-0.9 0.8-0.8 0.9-0.7 0.8-0.7 1-0.5 0.9-0.5 1-0.3 1-0.3 0.9-0.3 1.1-0.2 1.1-0.1 1v1.1l0.1 1.1 0.1 1 0.1 1.1 0.3 1.1v0.1 0.1l0.1 0.2 1.2 5 1.2 4.9 1.3 4.9 1.3 4.9 1.4 4.9 1.5 4.9 1.5 4.8 1.5 4.8 1.6 4.8 1.6 4.7 1.7 4.7 1.8 4.7 1.8 4.7 1.9 4.6 1.9 4.6 2 4.5 2.1 4.6 2.2 4.4 2.1 4.6 2.3 4.4 2.4 4.4 2.4 4.3 2.5 4.4 2.6 4.3 2.6 4.3 2.7 4.2 2.9 4.2 2.8 4.2 3 4.1 3.1 4.2 3.2 4 3.2 4 0.2 0.3 0.2 0.3 0.6 0.5 0.5 0.7 1.4 1.2 1.3 0.9 1.4 0.6 1.3 0.6 1.5 0.4 1.4 0.3 1.4 0.2 1.5 0.1 1.4-0.2 1.5-0.2 1.3-0.3 1.4-0.6 1.3-0.6 1.3-0.8 1.2-0.8 1.1-1 1-1.2 1-1.3 0.7-1.2 0.6-1.4 0.6-1.3 0.4-1.5 0.9-2.7 0.8-2.8 0.7-2.8 0.7-2.7 0.5-2.8 0.7-2.8 0.4-2.6 0.6-2.8 5.1 3.6 5.1 3.4 5.2 3.3 5.2 3.3 5.2 3.1 5.4 3 5.3 3 5.5 2.8 5.4 2.9 5.5 2.7 5.6 2.6 5.7 2.5 5.8 2.5 5.8 2.4 5.9 2.4 6 2.3 5.5 2 5.5 2 5.6 1.9 5.5 2 5.5 1.9 5.6 1.8 5.6 2 5.5 2 4.5 1.7 4.7 1.7 4.6 1.8 4.5 1.9 4.5 1.9 4.4 2.2 4.4 2.2 4.3 2.3 3.8 2.3 3.7 2.4 3.5 2.5 3.4 2.5 3.2 2.6 3 2.8 3.1 2.9 2.8 3 2.7 3 2.7 3.3 2.6 3.2 2.4 3.4 2.4 3.5 2.3 3.7 2.2 3.8 2.1 3.8 0.2 0.3 0.2 0.4 0.2 0.5 0.1 0.2 0.6 1 0.6 0.9 0.6 0.8 0.6 0.8 0.8 0.8 0.8 0.6 0.8 0.7 0.9 0.5 0.9 0.6 0.9 0.4 1 0.4 1 0.4 1.1 0.2 1 0.1 1.1 0.2h1 1l1-0.1 1-0.2 1-0.1 0.9-0.3 0.9-0.4 0.8-0.4 1-0.4 0.8-0.5 0.7-0.5 0.8-0.7 0.7-0.6 0.7-0.7 0.7-0.7 0.5-0.7 0.6-0.9 0.5-0.8 0.5-1.1 0.2-0.4 0.2-0.3 2.1-3.8 2.2-3.8 2.3-3.7 2.4-3.5 2.4-3.4 2.6-3.2 2.7-3.3 2.6-3 2.9-3 3-2.9 3.1-2.8 3.2-2.6 3.4-2.5 3.5-2.5 3.7-2.4 3.8-2.3 4.3-2.3 4.3-2.2 4.5-2.2 4.5-1.9 4.5-1.9 4.6-1.8 4.6-1.7 4.5-1.7 5.6-2 5.6-2 5.5-1.8 5.6-1.9 5.5-2 5.5-1.9 5.6-2 5.5-2 6-2.3 5.9-2.4 5.8-2.4 5.8-2.5 5.6-2.5 5.7-2.6 5.5-2.7 5.4-2.9 5.5-2.8 5.3-3 5.4-3 5.2-3.1 5.2-3.3 5.1-3.3 5.2-3.4 5.1-3.6 0.5 2.8 0.5 2.6 0.6 2.8 0.6 2.8 0.7 2.7 0.7 2.8 0.8 2.8 0.8 2.7 0.5 1.4 0.5 1.4 0.7 1.4 0.7 1.2 0.9 1.3 1.1 1.2 1.1 1 1.2 0.8 1.3 0.8 1.2 0.6 1.4 0.6 1.4 0.3 1.5 0.2 1.4 0.2 1.4-0.1 1.5-0.2 1.4-0.3 1.5-0.4 1.3-0.6 1.4-0.6 1.2-0.9 1.4-1.2 0.6-0.7 0.5-0.5 0.3-0.3 0.2-0.3 3.2-4 3.2-4 3.1-4.2 2.9-4.1 2.9-4.2 2.9-4.2 2.6-4.2 2.7-4.3 2.6-4.3 2.5-4.4 2.4-4.3 2.4-4.4 2.2-4.4 2.2-4.6 2.2-4.4 2-4.6 2.1-4.5 1.9-4.6 1.8-4.6 1.9-4.7 1.7-4.7 1.8-4.7 1.6-4.7 1.6-4.8 1.5-4.8 1.5-4.8 1.4-4.9 1.4-4.9 1.4-4.9 1.3-4.9 1.2-4.9 1.2-5 0.1-0.2v-0.1-0.1l0.3-1.1 0.1-1.1 0.1-1v-1.1-1.1-1l-0.2-1.1-0.3-1.1-0.3-0.9-0.4-1-0.4-1-0.6-0.9-0.6-1-0.8-0.9-0.8-0.8-0.9-0.8-0.9-0.8-0.9-0.6-1-0.6-1-0.5-1-0.4-1-0.4-1.1-0.2-1-0.1-1.1-0.1h-1.1-1.1l-1.1 0.2-1 0.1-1.1 0.2-1 0.4-1 0.4-8.1 3-8 2.9-8.1 2.6-8 2.6-7.9 2.5-8 2.3-8.1 2.2-8.1 2.1-8 2-8.1 1.7-8.2 1.8-8.2 1.6-8.3 1.5-8.4 1.4-8.4 1.3-8.6 1.2-0.2 0.1h-0.2l-1 0.2-1.2 0.2-1 0.3-0.9 0.5-1 0.4-0.9 0.5-1 0.6-0.8 0.7-0.7 0.6-0.8 0.8-0.7 0.8-0.6 0.9-0.6 1-0.5 0.9-0.5 1-0.4 1.1-0.3 0.9-0.2 1-0.1 1-0.1 1.1v1 0.9l0.1 1 0.2 0.9 0.2 1 0.3 1 0.4 0.9 0.4 0.8 0.4 0.9 0.6 0.9 0.5 0.8 0.7 0.7v0.1l0.1 0.1 1.2 1.5 1.3 1.4 1.4 1.5 1.4 1.3 1.5 1.4 1.6 1.4 1.6 1.4 1.7 1.4 3.4 2.6 3.5 2.4 3.7 2.5 3.8 2.3-3 1.8-2.9 1.7-3.2 1.8-3.1 1.7-3.2 1.6-3.3 1.7-3.3 1.4-3.4 1.5-3.4 1.5-3.5 1.4-3.5 1.3-3.5 1.2-3.5 1.1-3.6 1.1-3.6 0.9-3.5 0.9-3.6 0.8-3.5 0.7-3.6 0.6-3.5 0.4-3.5 0.4-3.4 0.3-3.4 0.1h-3.4l-3.3-0.1-3.2-0.2-3.2-0.4-3.2-0.5-2.9-0.7-3-0.8-2.8-1-2.8-1.1-2.1-1.1-2-1.1-1.9-1.1-1.8-1.2-1.7-1.3-1.7-1.3-1.5-1.5-1.6-1.5-1.4-1.6-1.4-1.6-1.2-1.7-1.2-1.7-1.2-1.8-1.1-1.8-1-1.9-1-1.9-0.8-1.9-0.9-2-0.8-2-0.7-2-0.7-2.2-0.6-2-0.6-2.1-0.6-2.1-0.9-4.3-0.8-4.3-0.6-4.3-0.5-4.3-0.4-4.7-0.5-4.8-0.5-4.7-0.4-4.7-0.5-4.8-0.3-4.7-0.4-4.8-0.5-4.7-0.3-4.8-0.4-4.7-0.4-4.8-0.3-4.7-0.4-4.8-0.3-4.7-0.4-4.8-0.2-4.7 1.3 0.8 3.1 2 3 1.9 3 1.7 2.9 1.7 3 1.4 2.8 1.5 2.9 1.3 2.9 1.2 3 1.1 3 0.9 3.2 0.8 3.2 0.7 3.3 0.5 3.4 0.3 3.7 0.3 3.8 0.1 3.9-0.1 3.6-0.3 3.5-0.3 3.3-0.5 3.2-0.7 3.1-0.8 3-0.9 3-1.1 2.9-1.2 2.9-1.3 2.9-1.5 2.9-1.4 2.9-1.7 3-1.7 3-1.9 3.1-2 3.1-1.9 2.8-1.7 2.9-1.7 2.8-1.4 2.7-1.5 2.8-1.4 2.8-1.2 2.8-1.1 2.9-1 2.8-0.9 3-0.7 3-0.6 3.2-0.5 3.3-0.4 3.4-0.2h3.5 3.6l3.4 0.2 3.2 0.4 3.2 0.5 3 0.6 3.1 0.7 2.8 0.9 2.9 1 2.7 1.1 2.8 1.2 2.8 1.4 2.7 1.5 2.9 1.4 2.8 1.7 2.9 1.7 3 1.9 3.1 2 3 1.9 3.1 1.7 2.8 1.7 3 1.4 2.9 1.5 2.8 1.3 3 1.2 2.9 1.1 3.1 0.9 3.1 0.8 3.2 0.7 3.3 0.5 3.5 0.3 3.6 0.3 3.8 0.1 3.9-0.1 3.6-0.3 3.5-0.3 3.3-0.5 3.2-0.7 3.2-0.8 2.9-0.9 3.1-1.1 2.8-1.2 3-1.3 2.8-1.5 2.9-1.4 2.9-1.7 3.1-1.7 3-1.9 3.2-2 2.9-1.9 2.9-1.7 2.8-1.7 2.8-1.4 2.8-1.5 2.8-1.4 2.8-1.2 2.7-1.1 2.9-1 2.9-0.9 2.9-0.7 3-0.6 3.2-0.5 3.3-0.4 3.4-0.2h3.5z"/>
	<path id="Object 8" class="s4" d="m306.2 799l4-0.1 3.9-0.3 3.8-0.5 3.5-0.5 3.4-0.9 3.2-0.8 3.2-1 2.9-1.2 3-1.2 2.7-1.3 2.7-1.4 2.7-1.4 5.1-3.1 5-3.1 5.1-3.2 5.1-3 2.6-1.5 2.7-1.4 2.8-1.3 2.8-1.2 3-1.1 3.1-1.1 3.2-0.9 3.4-0.7 3.5-0.7 3.7-0.4 3.8-0.3 4.1-0.1 4 0.1 3.9 0.3 3.6 0.4 3.6 0.7 3.3 0.7 3.3 0.9 3 1.1 2.9 1.1 2.9 1.2 2.8 1.3 2.7 1.4 2.6 1.5 5.2 3 5 3.2 5 3.1 5.1 3.1 2.7 1.4 2.6 1.4 2.9 1.3 2.9 1.2 3 1.2 3 1 3.3 0.8 3.4 0.9 3.6 0.5 3.7 0.5 3.8 0.3 4.2 0.1h2.2l2.2-0.1 2.1-0.1 2.1-0.2 2-0.3 1.9-0.3 2-0.3 1.8-0.4 1.8-0.4 1.8-0.4 1.7-0.5 1.7-0.5 3.2-1.2 3.2-1.3 3-1.4 3-1.4 2.8-1.6 2.8-1.6 5.5-3.3 5.4-3.4-0.2 3.8-0.2 3.8-0.2 3.9-0.2 3.7-0.1 3.8-0.3 3.9-0.2 3.8-0.2 3.8-0.3 5.3-0.2 5.3-0.3 5.3-0.4 5.3-0.3 5.2-0.2 5.4-0.4 5.2-0.3 5.4-1.7 1-1.8 1-1.7 1.1-1.9 1.1-5.1 3.2-4.8 2.9-2.4 1.3-2.3 1.2-2.4 1.1-2.4 1-2.3 0.9-2.5 0.9-2.5 0.6-2.7 0.6-2.7 0.5-2.8 0.3-3.1 0.2-3.1 0.1-3.1-0.1-3.1-0.2-2.8-0.3-2.7-0.5-2.7-0.6-2.5-0.6-2.5-0.9-2.4-0.9-2.4-1-2.4-1.1-2.3-1.2-2.4-1.3-4.8-2.9-5-3.2-3.5-2.1-3.5-2.1-3.4-2-3.3-1.7-3.3-1.7-3.3-1.5-3.3-1.5-3.4-1.3-3.4-1.1-3.4-1-3.6-0.9-3.6-0.7-3.7-0.6-3.9-0.3-4.1-0.3-4.2-0.1-4.3 0.1-4 0.3-3.9 0.3-3.8 0.6-3.7 0.7-3.5 0.9-3.5 1-3.3 1.1-3.4 1.3-3.3 1.5-3.2 1.5-3.4 1.7-3.3 1.7-3.4 2-3.4 2.1-3.5 2.1-5.1 3.2-4.9 2.9-2.3 1.3-2.4 1.2-2.3 1.1-2.4 1-2.4 0.9-2.4 0.9-2.6 0.6-2.6 0.6-2.8 0.5-2.8 0.3-3 0.2-3.1 0.1-3.2-0.1-3-0.2-2.9-0.3-2.7-0.5-2.6-0.6-2.6-0.6-2.5-0.9-2.4-0.9-2.3-1-2.4-1.1-2.3-1.2-2.4-1.3-4.9-2.9-5-3.2-3.5-2.1-3.4-2.1-3.4-2-3.3-1.7-3.3-1.7-3.3-1.5-3.3-1.5-3.4-1.3-3.4-1.1-3.5-1-3.5-0.9-3.7-0.7-3.7-0.6-3.9-0.3-4.1-0.3-4.2-0.1h-1.4l-1.4 0.1h-1.5l-1.3 0.1v-73.2h1.3l1.4-0.1h1.5l1.4-0.1 4 0.1 3.9 0.3 3.7 0.4 3.5 0.7 3.4 0.7 3.1 0.9 3.2 1.1 2.9 1.1 2.9 1.2 2.8 1.3 2.6 1.4 2.7 1.5 5.1 3 5 3.2 5 3.1 5.2 3.1 2.7 1.4 2.6 1.4 2.8 1.3 3 1.2 2.9 1.2 3.1 1 3.3 0.8 3.4 0.9 3.5 0.5 3.8 0.5 3.8 0.3zm335.3-21.5l6 3.7 5.9 3.7 3 1.8 3.1 1.8 3.2 1.7 3.2 1.7 3.4 1.4 3.5 1.4 1.8 0.7 1.9 0.5 1.9 0.6 2 0.4 2 0.5 2.1 0.5 2.1 0.2 2.2 0.3 2.3 0.3 2.3 0.2 2.4 0.1h2.5l4.1-0.1 3.9-0.3 3.7-0.5 3.6-0.5 3.4-0.8 3.2-0.9 3.1-1 3-1.2 2.8-1.2 2.9-1.3 2.7-1.4 2.6-1.4 5.1-3.1 5.1-3.1 5-3.2 5.1-3 2.6-1.5 2.8-1.4 2.7-1.2 2.9-1.3 2.9-1.1 3.1-1.1 3.2-0.9 3.4-0.7 3.5-0.7 3.6-0.4 3.9-0.3 4.1-0.1 4 0.1 3.9 0.3 3.7 0.4 3.5 0.7 3.3 0.7 3.2 0.9 3.2 1.1 2.9 1.1 2.9 1.3 2.7 1.2 2.7 1.4 2.6 1.5 5.2 3 5 3.2 5 3.1 5.2 3.1 2.6 1.4 2.7 1.4 2.8 1.3 2.8 1.2 3.1 1.2 3.1 1 3.2 0.9 3.5 0.8 3.5 0.5 3.6 0.5 4 0.3 4.1 0.1 4.1-0.1 3.9-0.3 3.8-0.5 3.5-0.5 3.4-0.8 3.2-0.9 3.1-1 3-1.2 2.8-1.2 2.9-1.3 2.7-1.4 2.7-1.4 5.1-3.1 5-3.1 5.1-3.2 5-3 2.7-1.5 2.7-1.4 2.8-1.2 2.8-1.3 3-1.1 3.1-1.1 3.1-0.9 3.4-0.7 3.5-0.7 3.7-0.4 3.8-0.3 4.1-0.1h1.2v73.2h-1.2l-4.2 0.1-4 0.3-4 0.4-3.7 0.5-3.7 0.7-3.5 0.9-3.5 1-3.4 1.1-3.3 1.3-3.3 1.5-3.4 1.5-3.3 1.7-3.3 1.7-3.3 2-3.4 2.1-3.5 2.1-5.2 3.2-4.8 2.9-2.4 1.3-2.3 1.2-2.4 1.1-2.3 1-2.5 0.9-2.4 0.9-2.6 0.6-2.5 0.7-2.8 0.4-2.9 0.3-2.9 0.2-3.2 0.1-3.2-0.1-2.9-0.2-2.9-0.3-2.7-0.4-2.7-0.7-2.5-0.6-2.5-0.9-2.4-0.9-2.4-1-2.3-1.1-2.4-1.2-2.3-1.3-4.9-2.9-5.1-3.2-3.5-2.1-3.4-2.1-3.4-2-3.3-1.7-3.3-1.7-3.2-1.5-3.4-1.5-3.4-1.3-3.3-1.1-3.5-1-3.5-0.9-3.7-0.7-3.8-0.5-3.8-0.4-4.1-0.3-4.2-0.1-4.3 0.1-4 0.3-3.9 0.4-3.8 0.5-3.6 0.7-3.6 0.9-3.4 1-3.4 1.1-3.3 1.3-3.3 1.5-3.4 1.5-3.3 1.7-3.3 1.7-3.3 2-3.5 2.1-3.4 2.1-5.2 3.2-4.8 2.9-2.4 1.3-2.3 1.2-2.4 1.1-2.4 1-2.4 0.9-2.4 0.9-2.6 0.6-2.5 0.7-2.8 0.4-2.9 0.3-3 0.2-3.1 0.1-3.2-0.1-3-0.2-2.9-0.3-2.7-0.4-2.6-0.7-2.5-0.6-2.5-0.9-2.4-0.9-2.4-1-2.3-1.1-2.4-1.2-2.4-1.3-4.8-2.9-5.1-3.2-3-1.8-3-1.8-2.8-1.7-3-1.6-0.2-5-0.3-5-0.3-4.9-0.3-4.9-0.3-5-0.2-5-0.3-5-0.3-4.9-0.3-4.2-0.1-4.1-0.2-4.2-0.3-4.1-0.2-4.3-0.2-4.1-0.2-4.2zm-335.2-153.2l4.1-0.1 3.8-0.3 3.8-0.4 3.5-0.6 3.4-0.8 3.3-0.8 3.1-1.1 3-1.2 2.9-1.2 2.8-1.2 2.6-1.4 2.7-1.5 5.2-3 5-3.2 5-3.1 5.1-3.1 2.7-1.4 2.6-1.4 2.8-1.3 2.9-1.3 2.9-1.1 3.2-1 3.2-0.9 3.3-0.8 3.5-0.6 3.7-0.5 3.9-0.3 4-0.1 4.1 0.1 3.8 0.3 3.6 0.5 3.6 0.6 3.4 0.8 3.2 0.9 3 1 3 1.1 2.8 1.3 2.8 1.3 2.8 1.4 2.6 1.4 5.1 3.1 5 3.1 5.1 3.2 5 3 2.7 1.4 2.7 1.5 2.8 1.2 2.9 1.2 3 1.2 3.1 1 3.2 0.9 3.4 0.7 3.6 0.7 3.7 0.4 3.9 0.3 4.1 0.1h2.6l2.5-0.1 2.4-0.2 2.4-0.3 2.2-0.3 2.2-0.4 2.2-0.4 2.1-0.5 2-0.5 2-0.6 2-0.7 1.8-0.6 1.8-0.7 1.9-0.8 1.7-0.8 1.8-0.8 3.3-1.7 3.3-1.8 3.2-2 3.1-1.9 6.3-3.9 6.3-3.8-0.2 6.1-0.2 6.1-0.2 6.1-0.2 6.1-0.2 6.1-0.2 6-0.2 6.1-0.2 6.1-0.1 2.5-0.1 2.6-0.1 2.6-0.1 2.5-0.1 2.6-0.1 2.6-0.1 2.6-0.1 2.6-1.9 1-1.9 1-2 1.1-1.9 1.1-2 1.2-2.1 1.2-2 1.2-2 1.3-5.1 3.1-4.8 2.9-2.3 1.3-2.4 1.2-2.3 1.1-2.4 1-2.4 0.9-2.4 0.8-2.5 0.7-2.7 0.6-2.6 0.5-2.9 0.3-2.9 0.2-3.2 0.1-3.1-0.1-3-0.2-2.8-0.3-2.8-0.5-2.6-0.6-2.5-0.7-2.4-0.8-2.4-0.9-2.3-1-2.3-1.1-2.4-1.2-2.4-1.3-4.7-2.9-5.1-3.1-3.5-2.2-3.5-2-3.3-2-3.5-1.8-3.3-1.7-3.3-1.6-3.3-1.3-3.3-1.3-3.4-1.2-3.5-1-3.6-0.9-3.6-0.7-3.8-0.6-4-0.3-4-0.3-4.3-0.1-4.2 0.1-4.1 0.3-3.9 0.3-3.8 0.6-3.7 0.7-3.5 0.9-3.5 1-3.4 1.2-3.4 1.3-3.4 1.3-3.3 1.6-3.3 1.7-3.3 1.8-3.4 2-3.4 2-3.5 2.2-5.1 3.1-4.8 2.9-2.4 1.3-2.3 1.2-2.3 1.1-2.4 1-2.4 0.9-2.4 0.8-2.6 0.7-2.6 0.6-2.6 0.5-2.9 0.3-3 0.2-3.1 0.1-3.1-0.1-3.1-0.2-2.7-0.3-2.8-0.5-2.6-0.6-2.5-0.7-2.5-0.8-2.4-0.9-2.3-1-2.4-1.1-2.3-1.2-2.3-1.3-4.8-2.9-5-3.1-3.6-2.2-3.4-2-3.4-2-3.4-1.8-3.3-1.7-3.3-1.6-3.3-1.3-3.4-1.3-3.4-1.2-3.5-1-3.6-0.9-3.6-0.7-3.8-0.6-3.9-0.3-4.1-0.3-4.3-0.1h-1.4l-1.3 0.1h-1.5l-1.4 0.1v-70.3l1.4-0.1h1.4l1.4-0.1h1.4l4.1 0.1 3.8 0.3 3.7 0.5 3.5 0.6 3.4 0.8 3.2 0.9 3.1 1 3 1.1 2.8 1.3 2.8 1.3 2.7 1.4 2.6 1.4 5.1 3.1 5.1 3.1 5 3.2 5.1 3 2.7 1.5 2.7 1.4 2.7 1.2 3 1.2 2.9 1.2 3.2 1.1 3.2 0.8 3.4 0.8 3.5 0.6 3.8 0.4 3.9 0.3zm328.3-25.3l3.6 1.9 3.5 2 3.4 2.1 3.4 2.2 3.4 2.1 3.4 2.1 3.5 2 3.6 2 1.9 1 1.8 0.8 1.9 0.9 2 0.9 1.9 0.7 2.1 0.7 2.2 0.8 2.1 0.5 2.2 0.7 2.3 0.4 2.4 0.5 2.5 0.4 2.5 0.2 2.6 0.2 2.7 0.2h2.8l4.1-0.1 3.9-0.3 3.7-0.4 3.6-0.7 3.4-0.7 3.2-0.9 3.2-1 2.9-1.1 2.9-1.2 2.8-1.3 2.7-1.5 2.7-1.4 5.1-3 5-3.2 5-3.1 5.2-3 2.5-1.5 2.8-1.4 2.8-1.3 2.8-1.3 3-1.1 3-1 3.3-0.9 3.4-0.8 3.5-0.6 3.6-0.5 3.8-0.3h4.1 4.1l3.8 0.3 3.7 0.5 3.5 0.6 3.3 0.8 3.3 0.9 3.1 1 2.9 1.1 2.9 1.3 2.8 1.3 2.6 1.4 2.6 1.5 5.2 3 5.1 3.1 4.9 3.2 5.2 3 2.7 1.4 2.6 1.5 2.8 1.3 2.9 1.2 3 1.1 3.1 1 3.3 0.9 3.4 0.7 3.5 0.7 3.7 0.4 3.9 0.3 4.1 0.1 4.1-0.1 3.9-0.3 3.8-0.4 3.5-0.7 3.4-0.7 3.2-0.9 3.2-1 2.9-1.1 2.9-1.2 2.8-1.3 2.7-1.5 2.7-1.4 5.2-3 4.9-3.2 5.1-3.1 5.1-3 2.6-1.5 2.7-1.4 2.8-1.3 2.8-1.3 3-1.1 3.1-1 3.2-0.9 3.4-0.8 3.5-0.6 3.7-0.5 3.7-0.3h4.1 1.2v70.2h-1-0.2l-4.2 0.1-4.1 0.3-3.9 0.3-3.7 0.6-3.7 0.7-3.6 0.9-3.4 1-3.5 1.2-3.4 1.3-3.3 1.4-3.3 1.5-3.3 1.7-3.4 1.8-3.3 2-3.6 2-3.5 2.2-5 3.1-4.8 2.9-2.3 1.3-2.3 1.2-2.4 1.1-2.3 1-2.4 0.9-2.5 0.9-2.5 0.6-2.6 0.6-2.8 0.5-2.7 0.3-3.1 0.2-3.1 0.1-3.1-0.1-3-0.2-2.8-0.3-2.7-0.5-2.6-0.6-2.6-0.6-2.4-0.9-2.4-0.9-2.4-1-2.3-1.1-2.3-1.2-2.4-1.3-4.8-2.9-5-3.1-3.5-2.2-3.5-2-3.4-2-3.3-1.8-3.3-1.7-3.3-1.5-3.3-1.4-3.5-1.3-3.4-1.2-3.5-1-3.5-0.9-3.7-0.7-3.7-0.6-4-0.3-4.1-0.3-4.2-0.1-4.2 0.1-4.1 0.3-3.9 0.3-3.8 0.6-3.6 0.7-3.6 0.9-3.5 1-3.5 1.2-3.3 1.3-3.3 1.4-3.3 1.5-3.3 1.7-3.4 1.8-3.4 2-3.5 2-3.5 2.2-5 3.1-4.8 2.9-2.3 1.3-2.4 1.2-2.3 1.1-2.3 1-2.4 0.9-2.5 0.9-2.5 0.6-2.6 0.6-2.8 0.5-2.8 0.3-3 0.2-3.1 0.1-3.1-0.1-3-0.2-2.9-0.3-2.6-0.5-2.7-0.6-2.5-0.6-2.4-0.9-2.4-0.9-2.4-1-2.3-1.1-2.3-1.2-2.4-1.3-4.8-2.9-5.1-3.1-2.6-1.7-2.6-1.5-2.6-1.6-2.6-1.5-2.5-1.4-2.5-1.2-2.5-1.2-2.5-1.2-0.1-2.3-0.1-2.3-0.1-2.4-0.1-2.3-0.1-2.3-0.1-2.3v-2.3l-0.1-2.2-0.2-6.4-0.2-6.4-0.2-6.5-0.3-6.3-0.2-6.4-0.2-6.4-0.1-6.4zm-328.4 112.8l4.1-0.1 3.9-0.3 3.8-0.5 3.5-0.6 3.4-0.7 3.2-1 3.1-1 3-1.1 2.9-1.3 2.8-1.3 2.7-1.4 2.6-1.4 5.2-3.1 5-3.1 5.1-3.1 5-3.1 2.7-1.4 2.7-1.4 2.7-1.3 2.9-1.2 2.9-1.1 3.2-1.1 3.2-0.9 3.3-0.7 3.5-0.7 3.7-0.4 3.9-0.3 4-0.1 4.1 0.1 3.9 0.3 3.6 0.4 3.6 0.7 3.3 0.7 3.2 0.9 3.1 1.1 2.9 1.1 2.9 1.2 2.7 1.3 2.8 1.4 2.6 1.4 5.1 3.1 5 3.1 5.1 3.1 5.1 3.1 2.6 1.4 2.7 1.4 2.9 1.3 2.8 1.3 3.1 1.1 3 1 3.2 1 3.4 0.7 3.6 0.6 3.7 0.5 3.9 0.3 4.2 0.1 2.4-0.1 2.3-0.1 2.4-0.1 2.2-0.3 2.1-0.3 2.1-0.2 2-0.5 2.1-0.4 1.9-0.5 1.8-0.5 1.9-0.6 1.8-0.6 3.4-1.4 3.5-1.4 3.2-1.6 3-1.7 3.1-1.7 3-1.8 5.9-3.7 5.8-3.6-0.1 4.4-0.2 4.3-0.1 4.3-0.2 4.4-0.2 4.3-0.2 4.3-0.1 4.4-0.2 4.3-0.2 4.3-0.1 4.4-0.2 4.3-0.2 4.3-0.2 4.4-0.2 4.3-0.3 4.3-0.1 4.4-3 1.6-3 1.8-3.2 1.8-3.1 2.1-5.1 3.1-4.8 2.9-2.3 1.2-2.4 1.2-2.3 1.1-2.4 1.1-2.4 0.9-2.4 0.7-2.5 0.8-2.6 0.5-2.7 0.5-2.9 0.3-2.9 0.2-3.1 0.1-3.2-0.1-2.9-0.2-2.9-0.3-2.8-0.5-2.5-0.5-2.5-0.8-2.5-0.7-2.4-0.9-2.3-1.1-2.3-1.1-2.4-1.2-2.3-1.2-4.8-2.9-5.1-3.1-3.5-2.3-3.5-2-3.3-1.9-3.4-1.9-3.3-1.7-3.4-1.5-3.3-1.5-3.3-1.3-3.4-1.1-3.5-1-3.6-0.9-3.6-0.6-3.8-0.6-4-0.5-4-0.1-4.3-0.1-4.2 0.1-4 0.1-4 0.5-3.8 0.6-3.7 0.6-3.5 0.9-3.5 1-3.4 1.1-3.4 1.3-3.3 1.5-3.3 1.5-3.4 1.7-3.3 1.9-3.4 1.9-3.4 2-3.5 2.3-5.1 3.1-4.8 2.9-2.4 1.2-2.3 1.2-2.3 1.1-2.4 1.1-2.4 0.9-2.4 0.7-2.6 0.8-2.5 0.5-2.7 0.5-2.9 0.3-2.9 0.2-3.2 0.1-3.1-0.1-3-0.2-2.8-0.3-2.8-0.5-2.5-0.5-2.5-0.8-2.5-0.7-2.4-0.9-2.3-1.1-2.4-1.1-2.3-1.2-2.3-1.2-4.9-2.9-5-3.1-3.6-2.3-3.4-2-3.4-1.9-3.3-1.9-3.4-1.7-3.3-1.5-3.3-1.5-3.4-1.3-3.4-1.1-3.4-1-3.6-0.9-3.7-0.6-3.8-0.6-3.9-0.5-4.1-0.1-4.3-0.1h-1.3-1.4l-1.5 0.1h-1.4v-70.2l1.4-0.1 1.4-0.1h1.5 1.3l4.1 0.1 3.9 0.3 3.7 0.4 3.5 0.7 3.4 0.7 3.1 0.9 3.1 1.1 3 1.1 2.9 1.2 2.7 1.3 2.7 1.4 2.7 1.4 5 3.1 5.1 3.1 5 3.1 5.2 3.1 2.6 1.4 2.7 1.4 2.8 1.3 2.9 1.3 3 1.1 3.1 1 3.2 1 3.4 0.7 3.5 0.6 3.8 0.5 3.9 0.3zm331.4-23.7l3.4 1.8 3.2 2 3.2 2 3.2 2 3.3 2 3.2 2 3.3 1.9 3.4 1.8 1.9 0.9 1.7 0.8 1.9 0.8 1.8 0.8 1.9 0.6 2.1 0.8 2 0.5 2 0.7 2.2 0.4 2.2 0.5 2.3 0.4 2.3 0.3 2.4 0.3 2.5 0.2 2.5 0.1 2.7 0.1 4.2-0.1 3.8-0.3 3.7-0.5 3.6-0.6 3.4-0.7 3.3-1 3.1-1 2.9-1.1 2.9-1.3 2.9-1.3 2.6-1.3 2.7-1.5 5.1-3.1 5-3.1 5-3.1 5.2-3.1 2.6-1.4 2.7-1.4 2.8-1.3 2.9-1.2 2.9-1.1 3.1-1 3.2-1 3.4-0.7 3.5-0.7 3.6-0.4 3.9-0.3 4-0.1 4.1 0.1 3.9 0.3 3.6 0.4 3.5 0.7 3.4 0.7 3.2 1 3.1 1 3 1.1 2.8 1.2 2.8 1.3 2.7 1.4 2.6 1.4 5.1 3.1 5.1 3.1 5 3.1 5.1 3.1 2.7 1.5 2.7 1.3 2.7 1.3 2.9 1.3 3 1.1 3.2 1 3.2 1 3.4 0.7 3.5 0.6 3.7 0.5 4 0.3 4 0.1 4.2-0.1 3.8-0.3 3.8-0.5 3.5-0.6 3.4-0.7 3.3-1 3.1-1 3-1.1 2.8-1.3 2.9-1.3 2.6-1.3 2.7-1.5 5.2-3.1 5-3.1 5-3.1 5.1-3.1 2.7-1.4 2.6-1.4 2.8-1.3 2.9-1.2 2.9-1.1 3.2-1 3.1-1 3.4-0.7 3.5-0.7 3.7-0.4 3.8-0.3 4-0.1h1.2v70.3h-1-0.2l-4.2 0.1-4.1 0.2-3.8 0.4-3.8 0.6-3.7 0.6-3.6 0.9-3.4 1-3.4 1.2-3.4 1.2-3.4 1.5-3.3 1.5-3.3 1.7-3.4 1.9-3.3 1.9-3.5 2.1-3.5 2.2-5.1 3.1-4.8 2.9-2.3 1.3-2.3 1.1-2.4 1.2-2.3 1-2.4 0.9-2.5 0.7-2.5 0.8-2.6 0.5-2.7 0.5-2.8 0.3-3 0.2-3.2 0.1-3.1-0.1-3-0.2-2.8-0.3-2.7-0.5-2.6-0.5-2.6-0.8-2.4-0.7-2.3-0.9-2.4-1-2.3-1.2-2.4-1.1-2.4-1.3-4.7-2.9-5.1-3.1-3.5-2.2-3.4-2.1-3.4-1.9-3.4-1.9-3.3-1.7-3.3-1.5-3.3-1.5-3.4-1.2-3.4-1.2-3.5-1-3.5-0.9-3.7-0.6-3.8-0.6-4-0.4-4-0.2-4.3-0.1-4.2 0.1-4.1 0.2-3.8 0.4-3.9 0.6-3.6 0.6-3.6 0.9-3.5 1-3.4 1.2-3.3 1.2-3.4 1.5-3.3 1.5-3.3 1.7-3.4 1.9-3.3 1.9-3.5 2.1-3.5 2.2-5.1 3.1-4.8 2.9-2.3 1.3-2.4 1.1-2.3 1.2-2.3 1-2.4 0.9-2.5 0.7-2.5 0.8-2.6 0.5-2.7 0.5-2.9 0.3-2.9 0.2-3.2 0.1-3.1-0.1-3-0.2-2.8-0.3-2.7-0.5-2.7-0.5-2.5-0.8-2.4-0.7-2.4-0.9-2.4-1-2.3-1.2-2.3-1.1-2.4-1.3-4.8-2.9-5-3.1-2.2-1.4-2.2-1.4-2.1-1.2-2.1-1.3-2.1-1.2-2.1-1.1-2.1-1.1-2.1-1-0.2-4.3-0.2-4.4-0.1-4.4-0.2-4.3-0.2-4.4-0.2-4.3-0.2-4.4-0.2-4.4-0.2-4.3-0.1-4.3-0.1-4.4-0.2-4.4-0.2-4.3-0.2-4.4-0.2-4.3z"/>
	<path id="Object 9" fill-rule="evenodd" class="s1" d="m597.9 349.1l3.7 0.1 3.6 0.3 3.5 0.5 3.5 0.6 3.4 0.8 3.4 1 3.3 1.1 3.2 1.2 3.2 1.4 3 1.6 3 1.8 2.8 1.8 2.8 1.9 2.7 2.2 2.6 2.2 2.4 2.3 2.4 2.5 2.2 2.5 2.1 2.7 2 2.8 1.9 2.8 1.6 3 1.6 3.1 1.4 3.2 1.3 3.1 1.1 3.3 1 3.4 0.7 3.4 0.7 3.5 0.4 3.5 0.3 3.6 0.1 3.7-0.1 3.1-0.2 3-0.3 3-0.4 2.9-0.6 3-0.7 2.8-0.8 2.9-0.9 2.7-1.1 2.8-1.1 2.7-1.2 2.6-1.4 2.5-1.4 2.5-1.5 2.4-1.7 2.4-1.6 2.3-1.9 2.2-1.8 2.2-2.1 2-2 2-2.1 2-2.2 1.7-2.3 1.8-2.4 1.6-2.4 1.5-2.5 1.5-2.6 1.3-2.6 1.3-2.6 1.1-2.8 1-2.8 0.9-2.8 0.8 0.3 13.3h141.7l0.9-2.4 0.5-1.1 0.6-1.2 0.5-1.1 0.7-1 0.7-1.1 0.7-1 0.8-1.1 0.7-0.9 0.9-0.9 0.9-0.9 0.8-0.9 0.9-0.9 1-0.7 1.1-0.7 1-0.8 1-0.7 1.1-0.7 1.1-0.5 1.1-0.6 1.2-0.5 1.1-0.5 1.2-0.4 1.3-0.4 1.2-0.3 1.3-0.3 1.3-0.2 1.3-0.2 2.6-0.2 1.3-0.1 3.4 0.2 1.5 0.3 1.7 0.2 1.6 0.4 1.4 0.4 1.6 0.5 1.5 0.6 1.4 0.6 1.4 0.8 1.3 0.7 1.4 0.9 1.2 0.8 1.3 1.1 1.1 1 1.2 1.1 1 1.1 1 1.2 1 1.2 1 1.3 0.8 1.3 0.7 1.3 0.8 1.4 0.6 1.5 0.7 1.5 0.4 1.5 0.5 1.5 0.3 1.6 0.3 1.6 0.2 1.6 0.1 1.6 0.1 1.7-0.2 3.4-0.2 1.5-0.3 1.7-0.3 1.6-0.5 1.4-0.4 1.6-0.7 1.5-0.6 1.4-0.8 1.3-0.7 1.4-0.8 1.3-1 1.3-1 1.3-1 1.1-1 1.2-1.2 1-1.1 1-1.3 1-1.2 1-1.4 0.8-1.3 0.7-1.4 0.8-1.4 0.6-1.5 0.6-1.6 0.5-1.4 0.5-1.6 0.3-1.7 0.3-1.5 0.2-1.7 0.1-1.7 0.1-2.2-0.1-2.2-0.3-2.2-0.3-2-0.5-2.1-0.7-2-0.7-1.9-0.9-1.9-1-1.7-1.1-3.3-2.6-3-3-1.3-1.6-1.2-1.7-1.1-1.8-143 20.3 0.9 26.5 0.8 26.8 0.8 27 0.9 27.1 1 27 1.1 26.9 1.1 26.6 1.1 26.4 1.3 25.9 1.3 25.3 1.3 24.7 1.5 24 1.6 23 1.6 22 1 10.7 0.9 10.4 0.9 10 0.9 9.8 1.5 11 2.2 9.9 2.8 9.1 3.3 8.1 3.9 7.2 4.3 6.3 4.9 5.6 5.2 4.7 5.7 4 6 3.3 6.3 2.6 6.6 2 6.8 1.4 7 0.8 7.1 0.2 7.3-0.2 7.4-0.8 7.3-1.1 7.4-1.5 7.4-2 7.3-2.2 7.2-2.5 7.1-2.8 6.8-3 6.6-3.2 6.4-3.3 6-3.5 5.7-3.5 5.3-3.6 5-3.6 4.4-3.6 4-3.6-3-1.2-3.2-1.4-3-1.5-3.1-1.6-3.1-1.6-3.1-1.7-3-1.7-2.9-1.9-2.8-1.8-2.8-2-2.5-1.9-2.5-1.9-2.3-2.1-2.2-1.9-1.9-2-1.7-2h-0.1l-0.2-0.3-0.1-0.1 0.1-0.1 0.3-0.1h0.1l9.4-1.3 9.1-1.4 9-1.5 8.8-1.6 8.6-1.7 8.4-1.8 8.3-1.9 8.2-2 8.2-2.1 8-2.3 8-2.3 7.9-2.5 8-2.6 8-2.7 7.9-2.9 8-3 0.7-0.2 0.3-0.1v0.3l-0.1 0.7v0.1h-0.1l-2.1 8.5-2.3 8.5-2.4 8.7-2.6 8.8-1.5 4.3-3 8.8-4.9 13.3-1.9 4.4-1.8 4.5-2 4.3-2 4.4-2.1 4.5-2.2 4.4-2.3 4.4-2.3 4.3-2.5 4.4-2.5 4.4-2.7 4.3-2.7 4.3-2.8 4.3-3 4.3-2.9 4.2-3.2 4.2-3.2 4.3-3.4 4.1-0.4 0.4v0.1l-0.1-0.1-0.2-0.6-0.3-0.8-0.8-2.8-0.8-2.8-0.7-2.8-0.7-2.7-0.6-2.7-0.6-2.8-0.5-2.8-0.5-2.8-0.3-2.8-0.4-2.9-0.3-2.9-0.5-6.1-0.1-3.1-0.2-3.3-0.1-3.3-10.3 8.2-10.3 7.5-9.9 6.8-9.8 6.3-9.6 5.7-9.5 5.3-9.2 4.7-9 4.2-8.9 4-8.7 3.6-8.4 3.3-8.3 3.1-16.1 5.6-15.3 5.2-7.4 2.7-7.2 2.7-7.1 2.7-6.8 2.9-6.6 3-6.6 3.5-6.2 3.6-6.2 3.8-6 4.4-5.7 4.8-5.6 5.1-5.5 5.8-5.2 6.3-5.1 6.9-4.9 7.6-4.8 8.3-0.4 0.7-0.4 0.9-0.1 0.1v-0.1l-0.5-0.9-0.3-0.7-4.8-8.3-4.9-7.6-5.1-6.9-5.2-6.3-5.5-5.8-5.6-5.1-5.8-4.8-5.9-4.4-6.2-3.8-6.3-3.6-6.5-3.5-6.6-3-6.9-2.9-7-2.7-7.3-2.7-7.3-2.7-15.3-5.2-16.1-5.6-8.3-3.1-8.5-3.3-8.6-3.6-8.9-4-9-4.2-9.2-4.7-9.5-5.3-9.6-5.7-9.8-6.3-10-6.8-10.2-7.5-10.3-8.2-0.1 3.3-0.2 3.3-0.1 3.1-0.5 6.1-0.3 2.9-0.4 2.9-0.3 2.8-0.5 2.8-0.6 2.8-0.5 2.8-0.7 2.7-0.6 2.7-0.7 2.8-0.8 2.8-0.8 2.8-0.3 0.8-0.3 0.6-0.1 0.1v-0.1l-0.3-0.4-3.4-4.1-3.3-4.3-3.1-4.2-5.9-8.5-2.9-4.3-2.6-4.3-2.7-4.3-2.5-4.4-2.5-4.4-2.3-4.3-2.3-4.4-2.2-4.4-2.1-4.5-2.1-4.4-1.9-4.3-1.8-4.5-1.9-4.4-5-13.3-2.9-8.8-1.5-4.3-2.7-8.8-2.4-8.7-2.3-8.5-2-8.5h-0.1v-0.1l-0.2-0.7v-0.3l0.4 0.1 0.6 0.2 8.1 3 7.9 2.9 8 2.7 8 2.6 7.9 2.5 8 2.3 8 2.3 8.1 2.1 8.2 2 8.3 1.9 8.5 1.8 8.6 1.7 8.8 1.6 9 1.5 9.1 1.4 9.4 1.3h0.1l0.3 0.1 0.1 0.1-0.1 0.1-0.2 0.3h-0.1l-1.7 2-2 2-2.1 1.9-2.3 2.1-2.5 1.9-2.6 1.9-2.7 2-2.8 1.8-3 1.9-3 1.7-6.1 3.3-3.1 1.6-3.1 1.5-3.1 1.4-3 1.2 3.9 3.6 4.5 3.6 4.9 3.6 5.4 3.6 5.7 3.5 6 3.5 6.4 3.3 6.6 3.2 6.8 3 7.1 2.8 7.2 2.5 7.3 2.2 7.4 2 7.3 1.5 7.4 1.1 7.4 0.8 7.3 0.2 7.1-0.2 7-0.8 6.8-1.4 6.5-2 6.4-2.6 6-3.3 5.6-4 5.3-4.7 4.9-5.6 4.3-6.3 3.9-7.2 3.3-8.1 2.8-9.1 2.2-9.9 1.4-11 1-9.8 0.9-10 0.9-10.4 0.9-10.7 1.7-22 1.6-23 1.4-24 1.4-24.7 1.3-25.3 1.2-25.9 1.2-26.4 1.1-26.6 1-26.9 1-27 1-27.1 0.8-27 0.8-26.8 0.9-26.5-143-20.3-1.2 1.8-1.1 1.7-1.3 1.6-3 3-3.3 2.6-1.8 1.1-1.8 1-1.9 0.9-2 0.7-2.1 0.7-2 0.5-2.2 0.3-2.3 0.3-2.2 0.1-1.6-0.1-1.7-0.1-1.6-0.2-1.6-0.3-1.6-0.3-1.5-0.5-1.5-0.5-1.5-0.6-1.4-0.6-1.5-0.8-1.2-0.7-1.4-0.8-1.2-1-1.3-1-1.1-1-1.2-1-1-1.2-1.1-1.1-1-1.3-0.9-1.3-0.8-1.3-0.8-1.4-0.7-1.3-0.6-1.4-0.7-1.5-0.4-1.6-0.5-1.4-0.4-1.6-0.3-1.7-0.1-1.5-0.2-3.4 0.1-1.7 0.1-1.6 0.1-1.6 0.3-1.6 0.4-1.6 0.5-1.5 0.4-1.5 0.7-1.5 0.6-1.5 0.7-1.4 0.8-1.3 0.8-1.3 0.9-1.3 1-1.2 1.1-1.2 1-1.1 1.2-1.1 1.1-1 1.3-1.1 1.2-0.8 1.4-0.9 1.2-0.7 1.5-0.8 1.4-0.6 1.5-0.6 1.5-0.5 1.5-0.4 1.6-0.4 1.6-0.2 1.6-0.3 3.3-0.2 1.4 0.1 2.6 0.2 1.3 0.2 1.3 0.2 1.3 0.3 1.2 0.3 1.3 0.4 1.2 0.4 1.1 0.5 1.2 0.5 1.1 0.6 1.1 0.5 1.1 0.7 1 0.7 1 0.8 1 0.7 1 0.7 1 0.9 0.8 0.9 0.9 0.9 0.8 0.9 0.8 0.9 0.8 1.1 0.7 1 0.7 1.1 0.6 1 0.6 1.1 0.5 1.2 0.6 1.1 0.9 2.4h141.5l0.5-13.3-2.9-0.8-2.7-0.9-2.8-1-2.7-1.1-2.5-1.3-2.6-1.3-2.5-1.5-2.4-1.5-2.4-1.6-2.3-1.8-2.2-1.8-2.1-1.9-2.1-2-2-2-1.8-2.2-1.9-2.2-1.6-2.3-1.7-2.4-1.6-2.4-1.4-2.5-1.3-2.5-1.2-2.6-1.1-2.7-1.2-2.8-0.8-2.7-0.8-2.9-0.7-2.8-0.6-3-0.5-2.9-0.2-3-0.2-3-0.1-3.1 0.1-3.7 0.3-3.6 0.4-3.5 0.7-3.5 0.7-3.4 1-3.4 1.1-3.3 1.3-3.1 1.4-3.2 1.6-3.1 1.6-3 1.9-2.8 2-2.8 2.1-2.7 2.2-2.5 2.3-2.5 2.5-2.3 2.6-2.2 2.7-2.2 2.7-1.9 2.9-1.8 2.9-1.8 3.1-1.6 3.1-1.4 3.3-1.2 3.3-1.1 3.4-1 3.4-0.8 3.5-0.6 3.5-0.5 3.6-0.3zm-1.8 35.5l-1.8 0.1-1.8 0.3-1.7 0.3-1.7 0.4-1.7 0.5-1.7 0.5-1.5 0.7-1.6 0.6-1.6 0.9-1.5 0.8-1.3 0.9-1.4 1-1.4 1-1.3 1.1-1.2 1.2-1.2 1.2-1.1 1.3-1 1.4-1 1.4-0.9 1.4-0.9 1.5-0.8 1.5-0.6 1.6-0.7 1.6-0.5 1.6-0.6 1.8-0.4 1.6-0.2 1.8-0.3 1.7-0.2 3.7 0.1 1.8 0.1 1.8 0.3 1.8 0.2 1.7 0.4 1.8 1.1 3.3 0.7 1.6 0.6 1.5 0.8 1.6 0.9 1.5 0.9 1.3 1 1.4 1 1.4 1.1 1.3 1.2 1.2 1.2 1.2 1.3 1.1 1.4 1 1.4 1 1.3 1 1.5 0.8 1.6 0.8 1.6 0.8 1.5 0.5 1.7 0.6 1.7 0.5 1.7 0.4 1.7 0.3 1.8 0.2 1.8 0.1 1.8 0.1 3.7-0.2 1.7-0.2 1.8-0.3 1.6-0.4 1.8-0.5 1.7-0.6 1.5-0.5 1.6-0.8 1.6-0.8 1.4-0.8 1.4-1 1.4-1 1.4-1 1.3-1.1 1.2-1.2 1.2-1.2 1.1-1.3 1-1.4 1-1.4 0.9-1.3 0.9-1.5 0.8-1.6 0.6-1.5 0.7-1.6 1.1-3.3 0.4-1.8 0.2-1.7 0.3-1.8 0.1-1.8 0.1-1.8-0.2-3.7-0.3-1.7-0.2-1.8-0.4-1.6-0.6-1.8-0.5-1.6-0.7-1.6-0.6-1.6-0.8-1.5-0.9-1.5-0.9-1.4-1-1.4-1-1.4-1.1-1.3-1.2-1.2-1.2-1.2-1.3-1.1-1.4-1-1.4-1-1.4-0.9-1.4-0.8-1.6-0.9-1.6-0.6-1.5-0.7-1.7-0.5-1.8-0.5-1.6-0.4-1.8-0.3-1.7-0.3-3.7-0.2z"/>
</svg>