<svg version="1.2" xmlns="http://www.w3.org/2000/svg" viewBox="0 0 288 352" width="288" height="352">
	<title>Stara-Zagora-pdf</title>
	<style>
		.s0 { fill: #fbc707 } 
		.s1 { fill: #1d6c28 } 
		.s2 { fill: #ed1c24 } 
	</style>
	<path id="Path 1" class="s0" d="m1.7 0.4h74.6l-0.2 12.9 0.9 1.2h36l1.3-1.7v-12.4l60.9-0.2v13.1l1 1.3 35.6-0.1 1.6-1.3-0.3-12.5 73.5 0.1-1.8 291.9c0.4 18.1-24.2 48.2-51 48.2h-73c-4.3 0.8-10.7 5.5-11.1 10.7l-15.8 0.1c-1.2-5.6-3.6-9.3-10.5-10.5l-71-0.6c-27.4-0.2-52.5-28.3-52-52.4z"/>
	<path id="Path 2" class="s1" d="m279.4 287.5c0.3 23.3-20.8 47.1-47 47.3l-70.9 0.1c-6.8 1.1-13.2 4.7-14.2 10.2h-9.4c-0.3-5.2-8.9-9.9-13.3-10.6l-69.2-0.2c-27.8 0-48.8-23.2-48.4-45.1l0.4-283.2 63.1 0.3v7.9c0.3 4.5 3.5 5.2 6.2 5.2h37.9c3.3 0.1 5.3-1.7 6-5.5l-0.1-7.6 49.8 0.1v7.7c0.6 4 3.3 5.7 6 5.7l37.8 0.2c2.3 0 5-3.1 5.2-5.9l0.7-7.5 58.7 0.3z"/>
	<path id="Path 3" fill-rule="evenodd" class="s0" d="m15.9 58.4l255.9-0.6-0.1 228.3c-1 18.8-21.3 40.6-36.3 40.6l-71.2 0.1c-10.8 0-17 5.4-21.3 11.1-3.4-6.5-11.8-10.2-18.8-11.5l-71-0.3c-12.7 0-36.6-13.7-36.7-39.7zm5.9 154.6l243.2 0.5v-149.1l-242.7-0.3c-0.5 0-0.5 148.9-0.5 148.9z"/>
	<path id="Path 4" class="s2" d="m22.4 64.2h242.6v149.3h-242.6z"/>
	<path id="Path 5" fill-rule="evenodd" class="s1" d="m32.9 219.1h6.8l-17.2 13.4v-5.3c0 0 10.4-7.8 10.4-8.1zm232.1 8.1v5.3l-17.1-13.4h6.8c0 0.3 10.3 8.1 10.3 8.1zm-237.6-8.2l-4.9 3.6v-3.6zm237.6 0v3.6l-5-3.6zm-125 0.7h6.4l4.3 100.6c-2.8 0.5-5.8 2.1-7.5 4.1-1.9-1.8-4.5-3.5-7.8-4.1 0 0 4.9-100.6 4.6-100.6zm-11.9-0.3l6.3 0.1-11.1 100.6h-15zm51.2 100.6h-15l-11.1-100.5 6.3-0.1zm-62.8-100.4h6.2l-25.6 100.4-15.4 0.1zm89.4 100.5l-15.4-0.1-25.6-100.4h6.3zm-101.1-100.8l6.1 0.1-41.2 100.6h-14.6zm127.6 100.6h-14.4l-41.2-100.5 6.1-0.1zm-139.8-100.7l6.9-0.1-55 97.7c-4.3-1.1-7.9-3.6-11-6.7zm161.6 90.8c-3 3.2-6.8 5.6-11.1 6.8l-55-97.8 6.9 0.2zm-172.9-91h6.4l-60.6 84.1c-2-2.8-3.6-6.5-4-10.4 0 0 58.5-73.7 58.2-73.7zm183.4 73.7c-0.4 3.9-2.1 7.6-4.2 10.4l-60.4-84.1h6.3c-0.1 0 58.3 73.7 58.3 73.7zm-195.1-73.6h6.2l-53.6 62.6 0.2-11.8zm195.8 50.9v11.8l-53.6-62.7h6.2zm-220-50.9l5.8 0.1-28.7 25.1 0.2-6.8c0 0 22.7-18.2 22.7-18.4zm219.8 18.4v6.8l-28.7-25.1 5.8-0.1c0 0.2 22.9 18.4 22.9 18.4zm-207.8-18.3h6.7l-41.9 42.1v-9.8zm208.1 32.2v9.8l-41.9-42h6.8z"/>
	<path id="Path 6" fill-rule="evenodd" class="s0" d="m125.3 153.6c3.1 2.3-0.5 3.4-1 5.5-0.7 6.8 5.8 0.6 5-0.7q0.1 0.1 0.2 0.2l1.3-2.3c-0.3-6.6-12.7-12.5-23.4-15.4 0.5-4-0.5-11.6-4.9-15-1 8-1.4 9.1-4.1 14.3-0.9 1.2-2.2 5.8-5.3 6.7-6.1 1.5-9.4 4-9.4 4.7 0 3.7 0.7 5.7 0.8 9.5-4.6-0.9-8-1.4-12.2-2l-5.4-4.5c-1.8-2-1.5-1.8-0.7-4.9 0.9-2.4 3.2-3.1 2-9.3-9.3-14.9-4.2-25.6 4.9-33.4-5.3-5-9.4-21 0.9-27.4 6.1-3.8 17.7-3.4 25.6 0 3.9 1.7 20.5 7.9 29.2 10.8 13-0.5 20.2 1 21.9 8 2.1 2.7 3.6 4 3.8 5.2-4.3 1.7-8.9 1.4-15.7 0.9-2.5-0.3-4.5-1.4-6-3.8 2.4-0.9 8.7-1.6 1.1-4.2l-23.8-8.3c-6-2-16.9-6.2-25.7-5.7-7.9 0.6-14.5 5.8-9.2 14.7 7.2 12.1 21.8 12.4 36.9 14.3 19 5.8 38.1 13.7 40.2 5.4 3.3-10 5.1-12.7 9.5-19.4 2.1-3.4 6.6-8.4 10.7-7.8 0.5 7.2 3.5 7.6 4.2 13.4l1.5 11.8c2 6.6 5.1 6.6 7.8 9.9 0.1 6.8-2.1 18.7-3.7 23.3-0.4 1.6-1.4 3.1-3.8 1.4l-9.8-8.6c-10.4 18.5 44.3 25.9 53 45.9 11.7 1.7 18.5 7.5 17.6 12.6h-3.2c-1.1-5.3-11.7-11.4-8.6-5.5 1.6 1.7 2.7 3.1 2.7 5l-3-0.1c-2.8-3.5-8.4-8.6-5.2 0.1h-3.2c-3.4-13.6-18.7-20.8-27.2-23.2-9.1-2.7-23.9-3.2-30.2-4.2l-2.4-0.9c-1.4-6.4-1.6-14.3-11.3-18.3 3.2 5.4 3.2 10.3 2.4 14.1-2.4-1.8-5.2-1.1-9.4 0.2 1.2-3.6-6.1-11.6-9.6-5.9-0.2 3.4-1.7 4.3-4.1 5.2-5.2 3.1-4.5 6.1-6.2 7.7-5.2-0.7-7.7 1.3-6.5 3.2l5.5 3c8.6-3.1 17.2-1.1 21.1-0.2 0.6-2.1 2.6-5.3 5.1-5.3-1.3 1.1-2.4 2.4-1.8 3.9l2.4 0.5c-2.4 1.7-2.4 3.6 0 3.9 0 0-0.3 0.8-0.4 1.1l-4.8 0.2c-3.5-1.4-7.5-1.6-10.9 0.1-2.8 0.6-5.7 4.4-9 5.6-1.9-0.4-7.3-1.8-9.3-4.3l-2.8-3.7c-3.1 1.3-2.7 3.1-3.2 5.7-6.8-2.4-11.4-8.1-18.9-5.7-3.4-5.9-3.9 0.6-5.2 3.1-1.3 2.7-2.9 4.4-3.9 5.1-4.7 3.2-2.3 7.6-0.5 11.5 0.5 1.1 1.5 1.6 2.4 1.7 6.5 0.9 7.6 2.4 7.4 4.8 0 0.6-1.9-2-3-2.4-0.4-0.3-1 0-1 0.1 0 0.5 0.2 2.3 0.2 2.7h-1c-1.6-0.8-2.4-1.9-2.7-1.1-1.8 0 0.3 1.5-2.4 1.5-1-5.4-2.9-8.1-8.6-13.2-0.3-3.1 1-3.5 0.4-7.4-2.6-3-4.2-7.9-4.3-8.1-0.3-1.9-0.2-4.9-2.1-6.3-1.3 1.3-2.6 3.8-2.3 6v20.9l2.8 0.4c0.5 2.5-0.8 9.4-1.8 9.4-2.7-2.1-2.8-5.2-2.8-7.7l0.1-26.6c0.3-3.1 2.3-7.8 5.2-9.2 2.9-1.4 9.9-2.2 20 0 5.9 1.4 14.1 4.1 19.6 3.7 2.8-0.4 6.3-1.3 7.2-4.6l1-10.5c0.1-1.5 1.5-1.5 1.5-1.5 0.6-0.1 3.7 2 3.9-1zm-8.1 39.1l1.4 1.6 1.1 2.7c0 0 1.1 1.9 1.1 3.1l2.2 1.6 3.6 1.5 4.9 3-0.1 1.2c-2.3-1.2-3-3.1-3.9 0.5l-1 0.2c-1.4-2.4-3-1.4-4 0.5l-2.4-0.8c-0.4-2.4-0.9-4.9-3-7.2l-5-6.5 0.4-1.6zm-29.9 7.8c3.9 2 4.7 1.4 5.6 4.7l-1.6 0.8c-0.5-2.1-1.8-2.9-4-5.5zm-19.5-92.9c-7.3 6.1-10.1 14.3-9.4 22.7l1.4 8.3c0.9 4.1 0.2 15.3-0.4 16.2l-1.3 2.1c-4.3 7.3-9.8 13.5-13.2 21.7-0.4 1.9-0.2 3.2 1 3.5 5.5 1.3 8.6 3.8 11.1 7.5l0.1 3.9-1.9-0.3c-1.4-2.7-2.6-5-5.7-6.6-1.5-0.8-3.3-1.7-2.8 1.3l3.1 4.2-0.8 1.3-4.1-4.8c-1.1-1.2-3.5-0.2-3.1 0.8l1.3 2.1-0.6 1.9-6.2-0.3 0.6-37.3c-0.3-2.4 2.2-5.1 3.5-5.4 4.1-1 11.2-9.1 12.8-17.1 1-4.5-2.4-21.3 14.2-26.6zm15.8 92l-2.1 0.1c-0.7-2.8-4.1-5.7 2.1-9.7-3.4 5-0.6 6.7 0 9.6zm3.6-7.7c1.4-1.2 3-3.4 3.3-6.6l4.1 0.2c6.6 1.2 10.8 6.6 11.4 11.2h-0.7c-1.6-2.7-3.1-5-6.1-6.9l-2.4 0.1 0.3 2c1.3 1.4 1.7 3.1 1.5 4.6h-1.5c-0.9-2.2-2-4.5-3.8-6.3l-2.5 0.1v2.8c1.1 1.3 0.9 2.4 0.7 3.6h-4.1zm105.4-96.3l-0.1 2.5-3.7 7.6c1.8 1.7 5.1 1.3 6.9 2.6v1.6l-2.4 2.7v1.4l3 3.5c-2.6 2.1-6.4 3-10.2 0.3-4.2-5.5-1.9-14.6-6.9-20.9l-1.2-5 0.1-10.3c0.3-4.2 1.8-7.4 4.1-10.7 1.5-2.2 2.2-1.2 3.4-0.2l5.4 7h3.3c1.2-4.9 3.5-8 7.6-10.8h2.9v4.3c1 5.4 2.9 8.8 6.5 10.6 2.3 1.1 2 2.9 1.8 4.8h-2.3l0.2-2.6c-3.3-2.1-5-3.8-10.4-0.8l-5.1 0.3c-4.2-1-8-3.4-12.9 1v1.2l3.7 0.6v1.1c-2.3 0.3-4.3 0.9-6.5 2.8v2c1.7 2.3 3.5 3.5 5.8 3.9zm14.2-5.6c1.2 0 2.2 0.4 2.2 1 0 0.6-1 1-2.2 1-1.3 0-2.3-0.4-2.3-1 0-0.6 1-1 2.3-1zm-1.9-3.5c-5.2 5.1-4.7 6.3-5.2 9.6v4c0.6 1.3 1.6 3.1-1.1 3.8-0.8 0-3.1-0.5-2-3.9 1.4-1.8 3.1-4.2-1.2-11.7 3.4 0 6.2-1.4 9.5-1.8zm-1.2 8.2h7.4l-0.5 17.8c-0.6 2.1-1.7 4-4.1 4.7l-5.4-0.2-0.1-0.8 1.8-3.1-3.5-5.1 6.9-3.1 0.3-1.8-3-5.9zm-15.7-4.2c1.1 0 1.9 0.4 1.9 1 0 0.4-0.8 0.8-1.9 0.8-1 0-1.9-0.4-1.9-0.8 0-0.6 0.9-1 1.9-1zm-6.8-11.4c2.3 1 4.2 0.3 5.5-0.7v-3.1c-2.2-3-4.1-3.3-5.3 0.8zm17.4-1.3l4.4-0.1c1.4-0.7 1.4-3.5-1.3-5.5l-1.5-0.1c-3.3 1.8-3 5.2-1.6 5.7zm-8.7 54.9c15-8.7 24.3-6.3 36.2-7.8 0.7-11 8-15.7 11.5-14.5l-0.1 2.4c-10 8.5-6 11.4-1.5 6.8l1.6 0.3v1.7c-6.6 4.7-5.5 6.8 0 5.4l-0.1 4.9c-16.2-1.1-37.6 4.4-47.1 24.6l-5-1.4c2-6.6 3.8-13.2 4.5-22.4zm-129.4-107.2v11.6l-4.7 0.1v-7.1h-4.8v23.4h-5l-0.2-23.4h-4.7v7h-4.8v-7c-7 0.6-7.9 5.8-7.9 9.8 0 5.2 5.8 9.4 12 9v4.3c-9.4 0.6-16.9-4.8-17-13.4-0.2-7.8 4.7-14.4 11.3-14.4zm19.5 0.6v27.6h-4.6v-11.6l-8.8-0.2v11.8h-5.2v-18c0.2-3.4 3.8-9.8 8.5-9.8zm-8.3 4.2c-3.1 0-5.1 3.3-5.1 5.3v1.9h8.8v-7.1zm51.4-4.1v27.6h-4.6v-11.6l-8.8-0.2v11.8h-5v-18c0-3.4 3.6-9.8 8.5-9.8zm-8.4 4.2c-3 0-5 3.3-5 5.3v1.9h8.8v-7.1zm60.9-4.1v27.6h-4.6v-11.6l-8.8-0.2v11.8h-5.2v-18c0.1-3.4 3.7-9.8 8.5-9.8zm-8.4 4.2c-3.1 0-5 3.3-5 5.3v1.9h8.8v-7.1zm95.3-4.1v27.6h-4.6v-11.6l-8.8-0.2v11.8h-5v-18c0-3.4 3.6-9.8 8.5-9.8zm-8.4 4.2c-3 0-5 3.3-5 5.3v1.9h8.8v-7.1zm-158.3-4.1c4.5 0 6.6 5.7 6.6 8.6v3.5c0 3.4-3.7 7.7-7 7.7h-5.9v7.8h-4.8v-27.6zm-6.2 4.3v11.1h4.6c2.3-0.2 3.6-1.9 3.8-3.9v-2.3c-0.2-1.4-0.5-4.8-3.6-4.9zm145.9-4.3c4.4 0 6.6 5.7 6.6 8.6v3.5c0 3.4-3.8 7.7-7.1 7.7h-6v7.8h-4.6v-27.6zm-6.2 4.3v11.1h4.6c2.3-0.2 3.6-1.9 3.6-3.9v-2.3c0-1.4-0.3-4.8-3.5-4.9zm-81.9-4.8c3.7 0.2 5.7 3.8 5.6 5.2v3.9c0.1 2-1 3.8-3.6 4.6 2.3 0.7 3.5 2.3 3.7 4.9v3.8c-0.1 3-2.7 5.6-5.3 5.4h-9.6v-4.4h7.4c3.2-0.3 3.2-6.8-0.1-7.8h-7.6v-4.2h8.2c3.3-0.7 2.9-6.8-0.3-6.9h-7.9v-4.2zm34 0.6h16.1v11.8h-4.5v-7.3h-6.9v23h-4.7zm25.7-1.3h5.5c3.6 0 7.2 4.6 7.5 8.9v11.6c0.1 3.9-4.5 8.3-7.5 8.3h-5.2c-4.2 0-7.6-4.7-7.8-8.3v-11.6c0-3.8 4.7-8.9 7.5-8.9zm-2.6 10.8v7.5c0.2 2.9 1.9 5.6 4.1 5.6h2.7c1.6 0 3.9-2.6 3.9-5.6v-7.5c-0.1-2.7-1.9-5.9-3.9-5.9h-2.9c-1.8-0.1-3.9 3.5-3.9 5.9z"/>
</svg>