<svg version="1.2" xmlns="http://www.w3.org/2000/svg" viewBox="0 0 876 1213" width="876" height="1213">
	<title>isperih-coat-of-arms-ai</title>
	<style>
		.s0 { fill: #6c2c25 } 
		.s1 { fill: #6c2d26 } 
		.s2 { fill: #ffcc00 } 
		.s3 { fill: #ef7d00;stroke: #ef7d00;stroke-width: .8 } 
		.s4 { fill: #f4a119;stroke: #ef7d00;stroke-width: .8 } 
		.s5 { fill: #e30613 } 
		.s6 { fill: #ffcc00;stroke: #ffffff;stroke-width: 1.8 } 
	</style>
	<g id="Layer 1">
		<g id="&lt;Group&gt;">
			<path id="&lt;Path&gt;" class="s0" d="m219 0.2v70.4h131.2v-67.2h174.4v70.4l128-1.6v-65.6h174.4v180.8h-777.6v-187.2z"/>
			<path id="&lt;Path&gt;" class="s1" d="m217.6 971.4c16 25.6 6.4 44.8-24 30.4l-54.4-72c-20.8-17.6-41.6-4.8-30.4 19.2 81.6 83.2 185.6 139.2 337.6 136 137.6-9.6 244.8-49.6 316.8-121.6 17.6-30.4-8-40-20.8-25.6-20.8 14.4-24 51.2-43.2 67.2-51.2 24-65.6-8-20.8-49.6 28.8-28.8 88-40 116.8-123.2l80 115.2c-1.6 14.4-20.8 43.2-59.2 83.2l24 36.8c-99.2 97.6-233.6 147.2-403.2 145.6-147.2 0-280-54.4-400-153.6l27.2-40c-41.6-38.4-64-67.2-64-84.8l86.4-105.6c19.2 64 91.2 96 131.2 142.4z"/>
			<path id="&lt;Compound Path&gt;" fill-rule="evenodd" class="s2" d="m633 1062.6c9.6-3.2 25.6-6.4 36.8-3.2 4.8-9.6 14.4-17.6 27.2-25.6 6.4 1.6 9.6 6.4 11.2 14.4-16 11.2-25.6 22.4-24 35.2l9.6 25.6c11.2 9.6 24 11.2 36.8 9.6q7.2 4.8 4.8 14.4c-14.4 6.4-27.2 6.4-41.6 0-1.6 12.8-14.4 22.4-28.8 28.8-4.8-4.8-6.4-11.2-4.8-17.6 16-8 22.4-19.2 17.6-33.6l-8-24c-8-11.2-20.8-11.2-33.6-6.4-3.2-4.8-4.8-11.2-3.2-17.6zm-64 20.8l14.4 56 22.4-68.8 17.6-4.8 25.6 97.6-17.6 4.8-14.4-56-28.8 67.2-16 1.6-25.6-89.6zm-40 9.6c11.2 1.6 19.2 11.2 24 25.6 3.2 27.2-19.2 43.2-46.4 40l3.2 30.4-19.2 1.6-6.4-68.8c-11.2-11.2-11.2-19.2 1.6-24zm-28.8 22.4l4.8 32c17.6 0 28.8-4.8 27.2-20.8-3.2-11.2-14.4-14.4-32-11.2zm-33.6-14.4c3.2 4.8 4.8 11.2 1.6 16h-28.8c-8 0-11.2 6.4-11.2 16 3.2 3.2 24 3.2 35.2 4.8q7.2 7.2 0 14.4h-28.8c-8 17.6 0 27.2 30.4 30.4 4.8 3.2 4.8 8 1.6 12.8-11.2 1.6-22.4 1.6-35.2-1.6-14.4-11.2-22.4-24-19.2-41.6h-11.2l1.6-16h6.4c0-22.4 4.8-36.8 20.8-35.2zm-97.6-6.4c14.4 4.8 22.4 14.4 22.4 27.2l-1.6 67.2-17.6-1.6 3.2-62.4c0-8-3.2-12.8-9.6-16l-27.2-4.8-8 80-17.6-3.2 9.6-81.6-8-3.2 9.6-11.2zm-121.6 65.6c-9.6-6.4-12.8-16-9.6-30.4l19.2-64 46.4 12.8-4.8 16-32-9.6-11.2 48c0 8 3.2 12.8 9.6 16l27.2 8-1.6 16zm-59.2-120l-14.4 49.6 54.4-27.2 16 4.8-32 81.6-19.2-6.4 19.2-48-57.6 32-16-8 32-86.4z"/>
			<path id="&lt;Path&gt;" class="s3" d="m68.8 616.2v-384h732.8v388.8c-11.2 232-128 353.6-374.4 430.4-262.4-76.8-348.8-214.4-358.4-435.2z"/>
			<path id="&lt;Path&gt;" class="s4" d="m48 616.2v-403.2h780.8v404.8c-9.6 241.6-150.4 388.8-400 456-275.2-80-382.4-236.8-380.8-457.6z"/>
			<path id="&lt;Path&gt;" class="s1" d="m227.2 928.2l59.2-124.8h16l46.4 124.8z"/>
			<path id="&lt;Path&gt;" class="s1" d="m505.6 933l57.6-126.4h17.6l46.4 126.4z"/>
			<path id="&lt;Path&gt;" class="s1" d="m344 995.4l83.2-185.6h22.4l65.6 185.6z"/>
			<g id="&lt;Group&gt;">
				<path id="&lt;Path&gt;" class="s1" d="m233.6 309c3.2-22.4 16-46.4 41.6-56 20.8 14.4 35.2 33.6 40 54.4-27.2-3.2-54.4-3.2-81.6 1.6z"/>
				<path id="&lt;Compound Path&gt;" fill-rule="evenodd" class="s1" d="m201.6 449.8l4.8-19.2c-25.6-1.6-49.6 0-75.2-11.2 1.6-14.4 8-25.6 19.2-35.2-38.4-3.2-62.4-16-70.4-38.4 1.6-12.8 11.2-17.6 22.4-24-24-33.6-27.2-54.4-11.2-65.6 24-24 46.4-4.8 65.6 33.6 14.4-19.2 27.2-19.2 41.6 1.6 1.6 17.6-3.2 33.6-4.8 49.6 16-9.6 30.4-8 40 4.8 1.6 17.6-1.6 33.6-3.2 51.2l19.2-11.2c25.6 41.6 52.8 52.8 80 33.6-35.2 4.8-59.2-6.4-67.2-41.6-19.2-12.8-30.4-38.4-25.6-60.8 25.6-3.2 52.8-3.2 78.4 0-1.6 24-11.2 46.4-36.8 56 9.6 36.8 30.4 46.4 64 33.6-41.6 62.4-89.6 78.4-140.8 43.2zm59.2-8l6.4-8-8 3.2c-54.4-35.2-96-76.8-123.2-126.4l-4.8 11.2c38.4 59.2 78.4 92.8 129.6 120z"/>
			</g>
			<g id="&lt;Group&gt;">
				<path id="&lt;Path&gt;" class="s1" d="m558.4 304.2c4.8-20.8 19.2-40 40-54.4 25.6 9.6 38.4 33.6 41.6 56-27.2-6.4-54.4-6.4-81.6-1.6z"/>
				<path id="&lt;Compound Path&gt;" fill-rule="evenodd" class="s1" d="m531.2 403.4c33.6 12.8 54.4 3.2 64-33.6-25.6-9.6-35.2-32-36.8-56 25.6-3.2 52.8-3.2 78.4 0 4.8 22.4-6.4 48-25.6 60.8-8 35.2-32 46.4-67.2 41.6 27.2 19.2 54.4 8 80-33.6l19.2 11.2c-1.6-17.6-4.8-33.6-3.2-51.2 9.6-12.8 24-14.4 40-4.8-1.6-16-6.4-32-4.8-49.6 14.4-20.8 27.2-20.8 41.6-1.6 19.2-38.4 41.6-57.6 65.6-33.6 16 11.2 12.8 32-11.2 65.6 11.2 6.4 20.8 11.2 22.4 24-8 22.4-32 35.2-70.4 38.4 11.2 9.6 17.6 20.8 19.2 35.2-25.6 11.2-49.6 9.6-75.2 11.2l4.8 19.2c-51.2 33.6-99.2 17.6-140.8-43.2zm211.2-86.4l-4.8-11.2c-27.2 49.6-68.8 91.2-123.2 126.4l-8-3.2 6.4 8c51.2-27.2 91.2-60.8 129.6-120z"/>
			</g>
			<path id="&lt;Path&gt;" class="s1" d="m377.6 440.2l-25.6-27.2 17.6-19.2-11.2-20.8h-17.6v-32h16l16-25.6-14.4-16 27.2-27.2 19.2 12.8 16-9.6v-20.8h36.8v19.2l20.8 12.8 14.4-11.2 25.6 27.2-14.4 12.8 11.2 22.4 16 1.6-1.6 40-20.8-1.6-9.6 17.6 12.8 17.6-22.4 22.4-17.6-14.4-19.2 14.4v17.6h-33.6v-17.6l-20.8-11.2z"/>
			<path id="&lt;Path&gt;" class="s5" d="m48 470.6h780.8c4.8 139.2-1.6 254.4-33.6 313.6h-720c-28.8-57.6-32-177.6-27.2-313.6z"/>
			<path id="&lt;Compound Path&gt;" fill-rule="evenodd" class="s6" d="m552 590.6l4.8 1.6v4.8h-1.6l-1.6 1.6c0 0-1.6 0-1.6 1.6-1.6 0-3.2 1.6-3.2 1.6-16 4.8-33.6 4.8-49.6 11.2l-27.2 9.6c-3.2 1.6-6.4 4.8-9.6 6.4-11.2 4.8-22.4 14.4-32 16-1.6 3.2-8 8-12.8 9.6-11.2 4.8-24 11.2-32 19.2h-1.6c-8 1.6-12.8 1.6-20.8-1.6-3.2-1.6-6.4-4.8-6.4-8l-1.6-1.6c0-3.2 0-9.6 3.2-12.8 0-4.8 1.6-11.2 1.6-16v-1.6c0-1.6-1.6-4.8-3.2-4.8v-1.6l-1.6-1.6c0-1.6 0-6.4 0-8 1.6 0 4.8-4.8 4.8-4.8 4.8 0 9.6-4.8 12.8-4.8 1.6-4.8 19.2-4.8 24-6.4 17.6-6.4 38.4-4.8 57.6-9.6 14.4-4.8 32-1.6 46.4-4.8 8-1.6 27.2 0 35.2 1.6 1.6 0 8 0 11.2 0l1.6 1.6zm-177.6 20.8l-3.2 3.2q0 0 0 0c-1.6 1.6-1.6 3.2-1.6 4.8l1.6 1.6c0 4.8 0 11.2 3.2 16l1.6 1.6c0 1.6 4.8 4.8 6.4 4.8 4.8 0 8 3.2 12.8-1.6 4.8-4.8 6.4-6.4 6.4-12.8-3.2-1.6-6.4-4.8-8-6.4 0-1.6-1.6-6.4-1.6-6.4l-1.6-1.6c0-1.6-1.6-1.6-1.6-1.6-3.9-2.6-11-2-15.2 0zm-3.2 3.2c0.6-0.6 1.4-1.2 2.4-1.6l-2.4 4.8v-3.2q0 0 0 0zm0-62.4c1.6 0 4.8 1.6 6.4 1.6 0 0 1.6 0 1.6 1.6l3.2 3.2c1.6 0 3.2 1.6 4.8 1.6l14.4 3.2c12.8 3.2 30.4-6.4 40 3.2v1.6c1.6 0 3.2 3.2 6.4 3.2 0 1.6 4.8 3.2 4.8 6.4 1.6 0 1.6 4.8 3.2 4.8v3.2c-1.6 0-3.2 0-4.8 1.6-6.4 1.6-14.4-1.6-19.2 1.6-9.6 0-17.6 1.6-25.6 4.8-9.6 3.2-24 1.6-33.6 6.4l-1.6 1.6c-4.8 0-8 4.8-12.8 4.8 0 1.6-6.4 3.2-6.4 3.2-1.6 1.6-12.8 1.6-14.4 1.6l-3.2 3.2c-1.6 0-3.2 1.6-4.8 1.6 0 1.6-1.6 1.6-3.2 1.6l-4.8-9.6-1.6-3.2c0-1.6-1.6-3.2-1.6-4.8 1.6 0 3.2 0 6.4 0 0-1.6 0-1.6 0-3.2l1.6-1.6q2.4 0 4.8 0v1.6c1.6 0 3.2 1.6 3.2 3.2h4.8v-1.6c-1.6-1.6-1.6-3.2-1.6-3.2-1.6 0-4.8-6.4-6.4-6.4v-1.6h-1.6c0-1.6-4.8-3.2-4.8-4.8v-4.8c0 0 1.6 0 1.6-1.6 1.6 0 4.8 0 6.4 0 3.2 3.2 1.6 6.4 1.6 9.6l3.2 3.2c1.6 0 4.8 0 6.4-1.6 0-4.8-4.8-8-4.8-12.8h1.6c1.6-1.6 3.2 0 4.8 0v-4.8c0 0-3.2-1.6-3.2-3.2l-1.6-1.6c0-1.6 1.6-3.2 1.6-3.2 0 0 0-1.6 1.6-1.6 0 0 0-1.6 1.6-1.6v-3.2c-3.2 0-6.4-4.8-6.4-6.4l1.6-9.6c3.2-1.6 9.6 8 11.2 8 0 1.6 0 0 0 1.6 0 0 1.6 0 1.6 1.6l1.6 1.6c6.4 3.2 14.4 11.2 19.2 16 4.8 4.8 14.4 12.8 14.4 19.2-1.6 1.6-19.2 4.8-19.2-1.6-1.6 0-1.6-3.2-3.2-3.2v-3.2c1.6 0 3.2 1.6 6.4 1.6 0-6.4-6.4-9.6-6.4-16-1.6 0-4.8 0-6.4 0l-1.6 1.6c0 3.2 1.6 17.6 6.4 17.6 0 1.6 1.6 3.2 1.6 3.2 0 0 0 1.6 1.6 1.6 0 0 1.6 3.2 3.2 3.2v1.6c6.4 0 20.8 6.4 25.6-1.6 3.2-3.2-3.2-9.6-4.8-11.2-1.6-3.2-9.6-11.2-14.4-11.2l-3.2-3.2v-1.6zm-30.4-30.4c4.8 1.6 9.6 4.8 12.8 8 1.6 0 4.8 3.2 6.4 3.2 17.6 6.4 38.4 1.6 52.8 12.8l1.6 3.2c1.6 0 1.6 1.6 1.6 1.6q0 2.4 0 4.8c-3.2 0-9.6-1.6-11.2 1.6-3.2 0-6.4 0-9.6-1.6-17.6-6.4-35.2-12.8-51.2-20.8-3.2-1.6-4.8-3.2-6.4-6.4 3.2-1.6 3.2-4.8 3.2-6.4zm89.6 78.4c0 0-1.6 0-3.2 0 0 0 0 1.6-1.6 1.6v1.6c1.6 0 4.8 4.8 4.8 4.8l3.2 3.2c1.6 0 0 0 1.6 0 0 0 0 1.6 1.6 1.6 0 1.6 1.6 1.6 1.6 1.6l1.6-1.6v-1.6c0 0-1.6 0-1.6-1.6h-1.6c0-1.6-1.6-6.4-3.2-6.4v-1.6c0 0-1.6 0-1.6-1.6 0 0 0 0-1.6 0zm-4.8 8c-1.6 0-1.6 0-3.2 0q0 2.4 0 4.8 0 0 0 0zm0 11.2l3.2 4.8c0 0 1.6 0 1.6 1.6h1.6c0 0 0-1.6 1.6-1.6v-3.2l-1.6-1.6c-1.6 0 0 0-1.6 0l-3.2-1.6c0 0-1.6 0-1.6-1.6-1.5 0-0.3 0-1.3 0 0.7 1.2 1.3 2.5 1.3 3.2zm-1.3-3.2q-0.1-0.3-0.3-0.6v0.6q0.2 0 0.3 0zm-0.3-1.6c0 0 0-1.6-1.6-1.6 0 0 0.8 1.2 1.6 2.6zm-1.6-1.6q0 0 0 0 0 0 0 0zm-16 4.8c0 0-1.6-1.6 0-3.2 0 0 1.6-1.6 0-1.6 1.6 0 3.2 0 3.2 1.6 0 1.6 0 0 0 1.6 3.2 0 6.4 8 9.6 8 0 0 1.6 1.6 3.2 1.6l1.6-1.6v-1.6l-1.6-1.6c0 0-1.6 0-1.6-1.6l-17.6-14.4c-3.2 0-8-1.6-9.6 0h-1.6v6.4c3.2 8 9.6 17.6 17.6 20.8 1.6 0 6.4 3.2 6.4 3.2h3.2c0-1.6 0-4.8-1.6-4.8 0 0-1.6-3.2-3.2-3.2l-1.6-1.6c0 0 0-1.6-1.6-1.6v-1.6c-1.6 0-3.2-3.2-4.8-4.8zm-22.4 3.2c1.6 0 1.6 0 4.8-1.6v1.6c1.6 0 1.6 1.6 1.6 3.2 1.6 3.2 0 6.4 0 9.6 0 1.6-1.6 1.6-1.6 1.6-1.6 1.6-4.8 1.6-4.8 0 0 0-1.6-1.6-3.2-1.6 0-3.2 0-8 1.6-9.6v-1.6zm-136-24c1.6-1.6 6.4-12.8 8-12.8 0-6.4 9.6-1.6 11.2-1.6l1.6 1.6c0 4.8 16 8 19.2 8 0-3.2-3.2-8-3.2-9.6l-1.6-1.6c0-6.4 1.6-9.6 4.8-14.4l1.6-1.6c0 0 1.6 0 1.6-1.6 0-3.2 4.8-6.4 6.4-4.8 3.2 1.6 6.4 4.8 11.2 4.8l3.2-3.2q0-0.5 0-1.2c2.6 5.2 4.8 7.6 4.8 15.6 0 1.6-1.6 1.6-1.6 3.2l-1.6 1.6c-1.6 0-1.6 1.6-1.6 1.6l-1.6 1.6c0 0-8 0-9.6 0 0-1.6 0 0 0-1.6-1.6 0-1.6 0-1.6 0-6.4 3.2 3.2-3.2-1.6 0h-1.6v1.6c0 1.6-1.6 6.4-1.6 8 1.6 0 1.6 1.6 1.6 1.6v3.2c3.2 4.8-4.8 12.8-6.4 14.4h-1.6c-3.2 1.6-11.2 4.8-14.4 3.2-1.6 0-3.2-3.2-4.8-3.2l-1.6-1.6c-3.2 0-3.2-3.2-4.8-3.2v-1.6c-1.6 0-1.6 0-3.2 0-1.6 0-6.4 4.8-6.4 4.8 0 3.2-1.6 9.6-3.2 12.8-3.2 3.2-8 6.4-9.6 9.6-3.2 0-4.8-1.6-6.4-1.6 0 0-1.6-3.2-3.2-3.2q0-2.4 0-4.8c0-1.6 1.6-3.2 1.6-3.2v-1.6c-1.6-1.6-3.2-4.8-4.8-4.8 1.6-3.2 8-8 20.8-14.4zm62.4-41.6c-0.9-3.4-1.7-5.9-1.8-8.5 1.6 2.3 3.4 4.5 3.4 5.3 0 1.3 0 4.7 0 6.8-0.5-1.1-1.1-2.2-1.6-3.6zm-1.8-8.5c-1.6-2.1-3-4.4-3-5.9h-1.6v-3.2c0 0 1.6 0 1.6-1.6l1.6-1.6c0 0 1.4 0 1.6-1.3-1.7 0.5-3.7 1.3-4.8 1.3v-1.6c-1.6-1.6-4.8-4.8-6.4-4.8 0-3.2-1.6-4.8-3.2-6.4v-4.8l1.6-1.6c0-3.2-1.6-4.8-1.6-8l1.6-1.6h1.6c0 1.6 1.6 1.6 1.6 1.6l1.6 1.6c0 1.6 1.6 1.6 1.6 1.6l1.6 1.6c1.6 1.6 3.2 1.6 4.8 4.8l3.2 3.2c1.6 0 0 0 1.6 0v1.6l3.2 3.2 1.6 1.6c1.6 1.6 0 3.2 0 4.8-1.6 0-1.6 1.6-1.6 1.6l-3.2 3.2c-1.6 0-1.6 3.2-3.2 3.2-1.5 3-1.9 5.3-1.8 7.5zm1.8-13.9c0 0 0-0.2 0.1-0.4-0.6 0.2-1.2 0.4-1.7 0.4q0 0.2 0 0.3c0.6-0.2 1.1-0.3 1.6-0.3zm0.1-0.4c1-0.5 2-1.2 3.1-1.2 0-0.8 0.4-1.2 0.8-1.4-0.8 0.2-1.6 0.6-2.4 1.4-1.1 0-1.4 0.7-1.5 1.2zm6.3-2.8v-1.6l-1.6 1.6c0 0-0.4 0-0.8 0.2 0.8-0.2 1.6-0.2 2.4-0.2zm-54.4 140.8h4.8c1.6-1.6 6.4-9.6 9.6-9.6v-1.6c1.6 0 1.6 0 3.2 0l3.2 3.2c4.8 6.4 8 14.4 12.8 20.8l1.6 1.6c1.6 0 1.6 1.6 3.2 1.6 0 1.6 1.6 9.6-1.6 9.6 0 1.6-1.6 1.6-1.6 1.6 0 0-1.6 0-1.6 1.6-1.6 0-1.6 1.6-1.6 1.6h-1.6c0 1.6-3.2 9.6-4.8 11.2-3.2 4.8 3.2 9.6 3.2 12.8 1.6 0 0 0 1.6 0 0 1.6 3.2 3.2 3.2 4.8 1.6 0 1.6 1.6 1.6 1.6 1.6 0 4.8 0 6.4-1.6 0-1.6 6.4-3.2 6.4-4.8 1.6-1.6 4.8-6.4 6.4-6.4l6.4-8 1.6-1.6c1.6-1.6 1.6-6.4 3.2-6.4 0-3.2 4.8-4.8 4.8-8 6.4-3.2 6.4-11.2 6.4-17.6-3.2-3.2-6.4-9.6-11.2-11.2-8-3.2-11.2 4.8-17.6 6.4-4.8 3.2-8-4.8-11.2-4.8 0-8-12.8-14.4-6.4-24 4.8-6.4 19.2-12.8 27.2-17.6l1.6-1.6c1.6 0 1.6-1.6 3.2-1.6 3.2-1.6 9.6 0 14.4 0l1.6 1.6v-3.2c0 1.6 1.6 6.4 3.2 8 0 1.6-1.6 4.8-1.6 8 0 0-1.6 1.6-1.6 3.2-1.6 0-4.8 3.2-8 3.2 0-1.6-1.6-4.8-1.6-6.4h-1.6c0 1.6-1.6 3.2-1.6 3.2 0 1.6 0 4.8 0 6.4 1.6 1.6 4.8 4.8 4.8 6.4 6.4 0 11.2 8 14.4 11.2 0 6.4 4.8 11.2 3.2 17.6-4.8 11.2-12.8 24-22.4 33.6-4.8 4.8-11.2 9.6-14.4 16-4.8 9.6-4.8 17.6-4.8 27.2-1.6 0-14.4 6.4-14.4 1.6-1.6 0-1.6-1.6-1.6-1.6-1.6 0-1.6-1.6-1.6-1.6l-1.6-1.6h-1.6c0 0-1.6-3.2-3.2-3.2 0-1.6-3.2-3.2-4.8-3.2 0 1.6 1.6 1.6 1.6 3.2l1.6 1.6q0 2.4 0 4.8c-1.6 0 0 0-1.6 0v1.6l-1.6 1.6h-1.6c-1.6 0-4.8-1.6-6.4-1.6 0 0 0-4.8 1.6-4.8 0-1.6 0-3.2 0-3.2-1.6 0-4.8-1.6-6.4-1.6-1.6-1.6-4.8-3.2-6.4-4.8h-1.6c-1.6 0-1.6 0-3.2-1.6-1.6 0-4.8-1.6-6.4-1.6 0-1.6-1.6-1.6-1.6-1.6v-3.2c0 0 0-1.6 1.6-1.6 0-1.6 1.6-1.6 1.6-1.6 1.6 0 3.2 0 3.2-1.6 1.6 0 3.2-3.2 4.8-3.2 0-1.6 0 0 0-1.6 1.6 0 6.4-4.8 6.4-6.4 0-4.8 0-9.6 1.6-14.4 3.2-4.8 4.8-9.6 9.6-14.4v-6.4l-3.2-4.8c-1.6-1.6-1.6-3.2-3.2-3.2l-3.2-3.2c0-1.6-3.2-4.8-4.8-4.8zm-20.8 84.8l-1.6 3.2-3.2 3.2h-6.4c-1.6 0-3.2-1.6-3.2-1.6l3.2-1.6h1.6l1.6-1.6c0 0 1.6 0 1.6-1.6 1.6 0 1.6 0 3.2 0 1.6-1.6 3.2-1.6 3.2 0zm19.2 1.6l1.6 1.6c0 1.6 0 1.6 0 3.2-1.6 0-3.2 3.2-4.8 4.8-1.6 0-3.2-1.6-3.2-1.6 0 0-4.8-6.4-6.4-6.4v-3.2h9.6zm51.2-80c1.6 0 4.8-3.2 4.8-3.2h1.6c0 0 1.6 0 1.6-1.6h3.2c0 1.6 1.6 1.6 1.6 1.6l3.2 3.2c0 1.6 1.6 1.6 1.6 1.6 0 1.6 0 4.8-1.6 4.8v1.6c-1.6 0-1.6 1.6-1.6 1.6-1.6 0-3.2 3.2-4.8 1.6h-1.6l-1.6-1.6c0-1.6-3.2-3.2-3.2-3.2l-1.6-3.2zm-4.8 25.6h1.6l6.4 3.2q0 2.4 0 4.8h-1.6l-1.6 1.6c-1.6 0-3.2 4.8-4.8 4.8 0 1.6 0 0 0 1.6-1.6 0-6.4 3.2-6.4 3.2h-3.2l-1.6-1.6c0-1.6 0 0 0-1.6 0 0 0-1.6-1.6-1.6v-4.8l3.2-3.2c0 0 0-1.6 1.6-1.6 0-1.6 4.8-4.8 6.4-4.8-1.6 0 1.6-1.6 1.6 0zm-20.8-81.6l3.2 1.6h1.6l1.6 1.6h1.6c0 1.6 1.6 4.8 1.6 6.4-1.6 0-3.2-1.6-4.8-1.6 0-1.6-6.4-4.8-4.8-8zm-28.8 56c3.2 4.8 6.4 8 6.4 14.4l-3.2 3.2c-1.6 1.6-3.2 0-4.8 0l-4.8-4.8c0 0 0-1.6-1.6-1.6 0 0 0-1.6-1.6-1.6v-1.6c0-1.6 1.6-1.6 3.2-1.6 0-1.6 0 0 0-1.6h1.6l1.6-1.6zm64-185.6c1.6 0 1.6 1.6 3.2 1.6 1.6 1.6 3.2 1.6 4.8 3.2l1.6 3.2c11.2 4.8 20.8 9.6 30.4 17.6 0 0 4.8 3.2 6.4 3.2 0 0 1.6 0 1.6 1.6 1.6 0 3.2 1.6 3.2 1.6v1.6c-3.2 0-8-1.6-9.6 0-4.8-3.2-12.8-6.4-17.6-8-4.8-1.6-14.4-9.6-19.2-9.6 0-1.6-4.8-6.4-4.8-8h-1.6c0-1.6-1.6-1.6-1.6-1.6l-1.6-1.6v-4.8c1.6 0 1.6-1.6 1.6-1.6h1.6c0 1.6 0 0 1.6 1.6zm-27.2-6.4l1.6 1.6c0 0 1.6 0 1.6 1.6 1.6 0 3.2 3.2 4.8 3.2l1.6 1.6v1.6c0-1.6-3.2-1.6-3.2-1.6-1.6 0-17.6 1.6-17.6-1.6-1.6 0-1.6-1.6-1.6-1.6l-1.6-1.6c0-3.2 1.6-4.8 1.6-6.4h1.6c4.8 0 9.6 0 11.2 3.2zm3.2 124.8l17.6-1.5v3.1c0 1.6 0 3.2-1.6 3.2v1.6c-1.6 0-3.2 1.6-4.8 1.6v1.6c-1.6 0-1.6 0-3.2 0l-1.6-1.6c0-3.2-4.8-6.4-6.4-8zm17.6-1.6h1.6l-1.6 0.1zm-49.6 43.2v-1.6c-1.6 0 0-4.8 0-4.8 1.6-3.2 1.6-6.4 1.6-9.6-1.6 0-1.6-1.6-1.6-1.6-1.6 0-1.6-1.6-1.6-1.6 0 0 0-3.2 1.6-3.2 0-1.6 0 0 0-1.6 1.6 0 6.4 0 8 1.6h1.6c1.6 1.6 4.8 3.2 6.4 3.2 0 1.6-1.6 1.6-1.6 1.6 0 1.6-1.6 1.6-1.6 1.6 0 1.6-3.2 4.8-3.2 6.4-3.2 0-6.4 8-9.6 9.6zm-14.4-9.6c0 1.6 1.6 1.6 1.6 1.6h1.6c1.6 0 1.6 1.6 3.2 3.2 0 0 0 1.6 1.6 1.6v1.6h-4.8c0-1.6 0 0 0-1.6l-1.6-1.6c-1.6 0 0 0-1.6 0l-1.6-1.6c0-1.6 0-1.6-1.6-3.2zm-32 20.8v-17.6l1.6-1.6c0 0 1.6 0 1.6-1.6h1.6c0 0 1.6 0 1.6-1.6l3.2-3.2c0 6.4 1.6 12.8-3.2 17.6 0 1.6-3.2 3.2-3.2 4.8l-1.6 1.6zm9.6 46.4c-1.6 0-9.6-9.6-11.2-9.6l-1.6-1.6v-1.6c0 0 0-1.6 1.6-1.6 0-1.6 1.6-1.6 1.6-1.6 0-1.6 1.6-1.6 1.6-1.6 0-1.6 1.6-1.6 1.6-1.6 0 0 4.8-4.8 4.8-6.4 3.2-11.2 6.4-19.2 12.8-28.8 0-1.6-3.2-6.4-1.6-8v-1.6h1.6c1.6 1.6 4.8 6.4 6.4 6.4v1.6h1.6c0 3.2 8 6.4 8 9.6 1.6 0 1.6 3.2 3.2 3.2v3.2c-1.6 0-1.6 1.6-1.6 1.6-1.6 0-3.2 1.6-4.8 1.6-4.8 1.6-9.6 14.4-12.8 14.4l-4.8 9.6v1.6c0 0-4.8 9.6-4.8 11.2zm-75.2-166.4c1.6 0 4.8 1.6 4.8 3.2l1.6 1.6c1.6 0 1.6 1.6 3.2 1.6 0 1.6 0 0 0 1.6 6.4 0 11.2 6.4 19.2 3.2 3.2-1.6 8-1.6 11.2-1.6 3.2-1.6 14.4-1.6 16-6.4v-3.2l-1.6-1.6c-1.6 0-4.8 0-6.4 0-1.6-3.2-1.6-3.2-1.6-6.4l3.2-3.2c0-1.6 8-6.4 9.6-9.6 1.6 0 12.8-9.6 12.8-12.8 1.6 0 3.2-1.6 3.2-3.2 1.6 0 1.6-1.6 1.6-1.6 4.8 0 6.4-4.8 11.2-1.6h3.2c1.6-1.6 4.8-3.2 4.8-6.4 1.6 0 4.8-3.2 4.8-4.8l1.6-1.6c0 0 1.6-1.6 3.2-1.6h1.6c1.6 0 8 0 8 1.6 1.6 0 3.2 9.6 1.6 9.6q0 2.4 0 4.8h3.2l1.6 1.6h3.2c0 1.6 4.8 11.2 4.8 12.8v1.6c1.6 0-1.6 11.2-1.6 12.8 0 1.6-1.6 6.4-1.6 6.4l-1.6 1.6c0 1.6-1.6 3.2-1.6 4.8l-3.2 3.2q-2.4 0-4.8 0c0-1.6-1.6-3.2-1.6-4.8v-1.6h-1.6c0 0 0-1.6-1.6-1.6 0-1.6-1.6-1.6-1.6-1.6-1.6-1.6-4.8-1.6-4.8-3.2-4.8-3.2-11.2 0-16-1.6-3.2-1.6-6.4-1.6-9.6-1.6 0 1.6 1.6 3.2 1.6 4.8 3.2 0 4.8 8 3.2 9.6 0 0 0 1.6 0 3.2l1.6 1.6c0 1.6 1.6 6.4 1.6 8 0 0 0 3.2-1.6 3.2l-1.6 6.4h-4.8c-1.6 4.8-12.8 6.4-17.6 3.2-1.6-1.6-4.8-1.6-6.4-1.6l-1.6-1.6v-6.4c1.6 0 0 0 1.6 0l1.6-1.6c0-1.6 0 0 0-1.6l3.2-1.6c0-1.6 0 0 0-1.6l1.6-1.6c1.6-1.6 1.6-1.6 1.6-4.8q-2.4 0-4.8 0c-1.6 1.6-3.2 1.6-4.8 1.6l-1.6 1.6c0 1.6-1.6 1.6-1.6 1.6-1.6 0-1.6 1.6-3.2 1.6 0 1.6-4.8 1.6-4.8 3.2h-1.6l-1.6 1.6c-6.4 0-19.2 1.6-25.6-1.6-1.6 0-4.8-1.6-6.4-1.6 0-1.6-1.6-1.6-1.6-1.6l-1.6-1.6c0-1.6-1.6-1.6-1.6-1.6-1.6-1.6-3.2-4.8-4.8-6.4-1.6-1.6-1.6-4.8-3.2-6.4 0-1.6-1.6-3.2-1.6-4.8zm96 12.8h1.6v1.6c1.6 0 1.6 1.6 1.6 1.6v4.8h-4.8v-1.6h-1.6v-3.2c-1.6 0-1.6-3.2-1.6-3.2v-1.6h-1.6c0-1.6 0-1.6 1.6-3.2zm-97.6 28.8c9.6-3.2 19.2 4.8 28.8 1.6 3.2 0 6.4-1.6 9.6-1.6 4.8 1.6 12.8-1.6 17.6 0 1.6 1.6 4.8 3.2 6.4 3.2 0 1.6 1.6 1.6 1.6 3.2 1.6 0 1.6 1.6 1.6 1.6 0 0 0 1.6 1.6 1.6 0 1.6 1.6 1.6 1.6 1.6 0 1.6 1.6 1.6 1.6 3.2 1.6 0 3.2 3.2 3.2 4.8-1.6 0-11.2 1.6-11.2 3.2-4.8 0-14.4 3.2-20.8 1.6-9.6-3.2-22.4 1.6-30.4-4.8 0 0-1.6 0-1.6-1.6-1.6 0-1.6-1.6-1.6-1.6l-1.6-1.6c0-1.6-3.2-4.8-3.2-4.8 0-1.6-1.6-6.4-3.2-8zm12.8 28.8c1.6 0 1.6 0 3.2 0 6.4 3.2 16 0 22.4 1.6 1.6 0 17.6 4.8 17.6 6.4 1.6 0 3.2 1.6 3.2 1.6l1.6 1.6v4.8l-1.6 1.6h-1.6c-9.6 6.4-25.6-3.2-35.2-3.2 0-1.6-3.2-1.6-3.2-3.2-1.6 0-1.6-1.6-1.6-3.2l-1.6-1.6c0 0-1.6-1.6-1.6-3.2 0 0 1.6-1.6-1.6-3.2zm182.4 88c1.6 0 3.2-1.6 4.8-1.6 0-1.6 0 0 0-1.6 3.2 0 12.8-8 16-9.6 0 0 1.6 0 1.6-1.6 1.6 0 1.6 0 1.6-1.6 14.4 0 28.8-14.4 40-20.8 8-3.2 14.4-9.6 22.4-14.4 1.6 0 3.2-1.6 4.8-1.6 3.2-3.2 6.4-1.6 9.6-1.6l6.4 3.2c0 0 0 1.6 1.6 1.6v6.4h-1.6c0 1.6-1.6 1.6-1.6 1.6 0 0-1.6 0-1.6 1.6l-1.6 1.6c0 1.6 0 0 0 1.6-1.6 0-6.4 4.8-8 4.8-1.6 0-4.8 1.6-6.4 1.6-6.4 1.6-16 8-20.8 12.8-1.6 1.6-12.8 9.6-16 9.6l-1.6 1.6c-6.4 1.6-11.2 3.2-17.6 8l1.6 1.6h-6.4v-1.6q-2.4 0-4.8 0l-1.6 1.6c-3.2 0-9.6 4.8-12.8 4.8v-1.6c-1.6 0-1.6-1.6-1.6-1.6 0 0 0-1.6-1.6-1.6 0 0 0-1.6-1.6-1.6-1.6 0-3.2-1.6-3.2-1.6zm120-64c0.7-0.7 0.8-1.1 0.6-1.2 1.4-2.3 2.6-3.3 2.6-2 3.2-1.6 8-4.8 9.6-4.8 1.6-1.6 6.4-4.8 8-4.8 4.8-6.4 16-8 24-11.2 1.6 0 4.8-3.2 6.4-3.2 1.6-1.6 4.8-1.6 6.4-1.6 11.2-3.2 24-4.8 36.8-4.8v1.6c4.8 0 0 17.6 0 19.2-6.4 6.4-12.8 9.6-19.2 12.8-11.2 4.8-24 6.4-36.8 9.6-1.6 1.6-6.4 1.6-8 1.6-6.4 1.6-9.6 3.2-16 3.2h-1.6c-3.2-3.2-12.8-6.4-12.8-14.4zm0 0c0-0.8 0.4-1.2 0.6-1.2q-0.3 0.6-0.6 1.2zm4.8 115.2c1.6 0 3.2 1.6 3.2 3.2 1.6 0 1.6 1.6 3.2 1.6 0 0 0 1.6 1.6 1.6 0 0 0 3.2 0 4.8l-1.6 1.6c0 0-8 0-9.6 0 0-1.6-1.6-3.2-1.6-4.8 0 0 1.6-1.6 1.6-3.2 1.6 0 1.6-3.2 3.2-3.2 0 0 1.6-1.6 0-1.6zm20.9-94.4l4.7-1.6c0 1.2 0 1.5-4.7 1.6zm-0.1 0l-1.6 1.6c0 1.6 0 0 0 1.6q-0.4 0-1 0.3c-0.6-0.8-1.4-1.4-2.2-1.9 0 0 0-1.6-1.6-1.6-1.3 0-0.5 0-1 0 3.3 0 5.7 0 7.5 0zm-2.6 3.4c1.8 2.1 3 5 4.2 6.2 0 0 0 1.6 1.6 1.6 0 3.2 8 6.4 8 8 1.6 0 4.8 3.2 6.4 3.2v1.6c1.6 1.6 4.8 3.2 6.4 3.2l1.6 1.6c4.8 4.8 3.2 9.6 3.2 14.4 0 3.2-9.6 12.8-9.6 16-1.6 0 0 0-1.6 0 0 1.6-1.6 4.8-1.6 4.8 0 4.8-1.6 11.2-1.6 17.6 1.6 0 0 0 1.6 0 0 1.6 1.6 1.6 1.6 1.6 0 6.4 11.2-3.2 12.8-3.2l1.6-1.6v-1.6c1.2-1.2 3.3-6.8 6.2-9.6q0.1 0 0.2 0l0.8-0.8c0.7-0.5 1.5-0.8 2.4-0.8 0-1.6 3.2-3.2 4.8-4.8q0.4-1.2 1.1-2.4c0.6-0.4 1.3-0.8 2.1-0.8 0 0 1.6 0 1.6-1.6v-1.6q-0.2-0.5-0.6-0.9c1.5-2.1 3-4 3.8-5.5 0 0 1.6-3.2 3.2-3.2 1.6-1.6 4.8-3.2 4.8-3.2 1.5 0 3.2 0 3.2 0 0-1.6 0-1.6 0-1.6l-3.2-3.2q0 0 0 0l-1.6-3.2c-1.6 0-1.6-1.6-1.6-1.6l-4.8-4.8c-1.6 0-3.2-4.8-4.8-4.8-0.6-1.2-1.9-2.9-3.3-4.8-0.4-6.8-1.7-16.7-3.1-20.8h-1.6c0-1.6 0 0 0-1.6-0.7 0-1.5-1.3-2-2.9 0.2-1 0.4-1.6 0.4-1.9l1.6-1.6c1.6 0 4.8-3.2 6.4-3.2 0 9.6 0 22.4 9.6 28.8 0 6.4 12.8 12.8 14.4 19.2 1.6 4.8 0 9.6-3.2 12.8-3.2 4.8-9.6 11.2-12.8 16l-1.6 1.6c-1.6 0-3.2 3.2-3.2 4.8l-1.6 1.6v1.6l-9.6 11.2c-1.6 1.6-3.2 6.4-3.2 9.6 1.6 0 1.6 1.6 1.6 1.6 1.6 0 0 0 1.6 0 0 1.6 1.6 4.8 1.6 8-1.6 0-1.6 1.6-1.6 1.6-1.6 0-4.8 1.6-4.8 1.6-3.2 0-16 1.6-16-1.6 0 0-1.6 0-1.6-1.6 0 0-6.4 0-8 0 0-1.6 0-4.8 0-6.4-1.6 1.6-4.8 3.2-6.4 3.2 0 1.6-1.6 1.6-1.6 1.6l-1.6 1.6c0 1.6-1.6 3.2-1.6 3.2q-2.4 0-4.8 0l-1.6-1.6v-1.6l1.6-1.6c1.6 0 0 0 1.6 0v-3.2c0 0 0 0-1.6 0l-1.6 1.6h-4.8l-3.2-1.6-1.6-1.6c0-1.6-1.6-1.6-1.6-3.2-1.6 0 0 0-1.6 0v-3.2l3.2-3.2c1.6 0 4.8-3.2 4.8-4.8 1.6 0 1.6-1.6 3.2-1.6 3.2-1.6 6.4 0 9.6 0v-1.6c1.6 0 0 0 1.6 0 0-1.6 8-8 9.6-9.6 0-1.6 4.8-8 4.8-8 0-1.6 3.2-6.4 3.2-8l1.6-1.6c0-1.6 1.6-6.4 1.6-8 0-1.6-6.4-6.4-6.4-6.4-1.6 0-9.6-4.8-11.2-6.4-3.2 0-12.8-8-12.8-11.2l-1.6-3.2v-1.6l-1.6-1.6c0-1.6 0-1.6 0-3.2 1.6 0 1.6-1.6 3.2-1.6 0-1.3 3.4-3.8 5.4-4.6zm65 38.2c-0.6 0-1.2 0-1.6 0 0-1.6-1.6-1.6-1.6-1.6 0-1.6-1.6-1.6-1.6-3.2-3.2 0-1.6-4.8-1.6-6.4 1.6 1.6 4.8 4.8 4.8 4.8l1.6 1.6q0 2.4 0 4.8 0 0 0 0zm-16.1-24q0.1 1.8 0.1 3.2l-1.6 1.6h-1.6c-1.6 0-3.2 0-3.2-1.6-1.6 0-1.6-1.6-3.2-1.6l-3.2-3.2c-4.8-6.4-9.6-14.4-16-19.2 0 0 0-1.6 0 0 0-1.6 1.6-1.6 4.8-6.4 0-1.6 0 0 0-1.6 4.8 0 9.6-4.8 16-1.6 0 0.9 0.5 3.2 1.2 5.1-1.3 4.6-4.7 15.7 2 15.7 0 3 2.5 6.6 4.7 9.6zm-53.7-17.6q-0.3 0-0.6 0 0.4 0 0.6 0zm156 47.5q1 0.2 1.8 0.5c-0.6 0-1.2 0-1.8-0.5zm-17.4-1.1c-4.8-1.6-9.6-4.8-14.4-4.8 0 0-3.2-3.2-4.8-3.2 0-1.6-6.4-3.2-8-4.8h-1.6c-1.6-1.6-12.8-4.8-12.8-9.6-1.6 0-4.8-6.4-6.4-6.4v-1.6c0-4.8-6.4-12.8-8-17.6 0-1.6 0-6.4 0-9.6-1.6-3.2-3.2-16-1.6-19.2 1.6-3.2-1.6-6.4 1.6-9.6 0-8 3.2-16 8-22.4 1.6-3.2 6.4-6.4 6.4-9.6 3.2-1.6 6.4-8 8-9.6 4.8-6.4 20.8-6.4 27.2-12.8 9.6-6.4 27.2-6.4 38.4-9.6 6.4-1.6 20.8-1.6 25.6-6.4 1.6 0 3.2-1.6 4.8-1.6v-1.6c3.2-1.6-1.6-6.4-1.6-6.4h-1.6c0-3.2-8-4.8-9.6-6.4-1.6 0-6.4 0-6.4-1.6-8 0-14.4 1.6-20.8 3.2-12.8 4.8-28.8 4.8-41.6 9.6-19.2 8-40 11.2-60.8 16-6.4 1.6-19.2 1.6-25.6 0-4.8 0-9.6 0-12.8-1.6l-1.6-1.6v-1.6l-3.2-1.6h-1.6c0 0 0-1.6-1.6-1.6 0 0 0-1.6-1.6-1.6l-1.6-1.6c1.6 0 6.4-1.6 8 0 12.8 3.2 32 1.6 44.8-1.6 19.2-3.2 36.8-4.8 56-11.2 6.4-3.2 14.4-8 22.4-9.6 16-4.8 36.8-9.6 54.4-9.6 6.4-1.6 17.6 0 20.8 6.4 1.6 0 1.6 1.6 3.2 1.6 0 1.6 3.2 4.8 3.2 6.4 4.8 6.4 6.4 17.6 1.6 24-1.6 1.6-6.4 6.4-6.4 6.4-1.6 0-4.8 1.6-6.4 1.6-8 1.6-19.2 1.6-27.2 3.2-24 6.4-48 14.4-68.8 25.6 0 1.6-4.8 3.2-4.8 4.8-1.6 1.6-3.2 4.8-4.8 8l-1.6 1.6c-6.4 12.8-6.4 25.6-6.4 40l1.6 1.6c0 6.4 6.4 19.2 11.2 24 0 1.6 3.2 3.2 4.8 3.2l1.6 1.6c1.6 1.6 6.4 8 9.6 8 0 1.6 11.2 6.4 12.8 6.4l3.2 1.6c1.6 1.6 3.2 1.6 4.8 1.6h1.6c0 0 3.2 1.6 3.2 3.2h1.6c1 6 2 8.3 3 9.1-4.8-1.1-11.7-1.1-17.4-1.1zm-88 1.6c1.4 1.4 5.5 2.9 7.4 5.5-1.1 1.5-2.3 3.2-3.1 4.9-0.7 0.4-1.1 0.8-1.1 0.8l-1.6 1.6c-1.6 0 0 0-1.6 0l-1.6 3.2c0 1.6-1.6 1.6-1.6 1.6l-0.8 0.8q-0.5 0.4-1 0.8c-1.4-0.1-1.4-1.6-1.4-1.6v-4.8c0 0 1.6-3.2 3.2-3.2v-1.6c1.6-1.6 1.6-3.2 1.6-4.8v-1.6c1.6 1.6 1.6-1.6 1.6-1.6zm142.4-94.4v-1.6c-1.6 0-1.6-1.6-3.2-1.6 0-1.6 0 0 0-1.6h-1.6c-1.6 0-3.2-1.6-4.8-1.6-8-4.8-24-3.2-33.6 0-1.6 0-3.2 1.6-4.8 1.6 0 1.6-1.6 1.6-1.6 1.6 0 0-1.6 0-1.6 1.6-1.6 0-1.6 1.6-1.6 1.6v1.6c-1.6 3.2-3.2 8-6.4 9.6 0 0-1.6 0-1.6 1.6-3.2 8 0 20.8 1.6 28.8 0 1.6 4.8 8 4.8 9.6l1.6 1.6c0 0 1.6 0 1.6 1.6 1.6 0 3.2 3.2 3.2 3.2l6.4 4.8c3.2 0 4.8 4.8 6.4 4.8 0 1.6 1.6 1.6 1.6 1.6 1.6 1.6 6.4 3.2 8 4.8 0 0 1.6 1.6 3.2 1.6 3.2 0 8 3.2 9.6 4.8q2 0.7 3.9 1.2c-11.9-1.8-26.3-8.5-35.9-14-1.6-1.6-6.4-4.8-6.4-4.8 0 0-4.8-1.6-6.4-1.6 0-1.6-1.6-1.6-1.6-3.2-1.6 0-1.6-1.6-1.6-1.6 0 0-3.2-3.2-3.2-4.8 0 0 0-1.6-1.6-1.6l-1.6-1.6c0-1.6-1.6-3.2-1.6-4.8-8-11.2-3.2-27.2-3.2-40 1.6 0 0 0 1.6 0 0-1.6 3.2-4.8 3.2-8 3.2-4.8 4.8-11.2 9.6-14.4 1.6-1.6 3.2-1.6 4.8-3.2 0-1.6 9.6-4.8 11.2-4.8 0 0 1.6-1.6 3.2-1.6 4.8-3.2 20.8-3.2 25.6-1.6 4.8 1.6 12.8 4.8 17.6 8 1.6 1.6 4.8 1.6 4.8 3.2 3.2 0 4.8 4.8 6.4 4.8 0 0 0 1.6 1.6 1.6 0 3.2 4.8 6.4 6.4 9.6 1.6 3.2 6.4 9.6 6.4 12.8 1.6 0 1.6 1.6 1.6 1.6 0 4.8 3.2 19.2-1.6 24 0 1.6-1.6 3.2-1.6 4.8-1.6 1.6-1.6 4.8-1.6 6.4v1.6c-1.6 1.6-1.6 3.2-1.6 4.8 0 1.6 0 8 0 9.6l3.2 1.6h4.8c0 0 1.6 0 1.6 1.6 0 0 0 1.6 1.6 1.6 1.6 0 1.6 1.6 1.6 1.6v3.2c-1.6 0-1.6 1.6-1.6 1.6l-1.6 1.6c-17.6 0-32-1.6-46.4-8-4.8-1.6-20.8-6.4-22.4-11.2-1.6 0-1.6-1.6-3.2-1.6 0 0-3.2-3.2-4.8-3.2 0-1.6-1.6-1.6-1.6-1.6l-3.2-3.2v-3.2l-1.6-1.6c-1.6 0 0 0-1.6 0 0-1.6-1.6-11.2-3.2-12.8-1.6-3.2 0-8 1.6-11.2l1.6-1.6c1.6 0 1.6-1.6 1.6-1.6 1.6 0 0 0 1.6 0 0-1.6 1.6-4.8 1.6-4.8 1.6-1.6 3.2-4.8 4.8-4.8 4.8-6.4 12.8-8 19.2-9.6 1.6 0 12.8 0 12.8 1.6 1.6 0 1.6 0 3.2 0l1.6 1.6c0 1.6 1.6 1.6 3.2 1.6zm-3.2 81.6l1 1c-2.2-0.4-4.4-0.9-6.7-1.4q3 0.4 5.7 0.4zm1 1c5.9 1 11.6 1.8 16.6 3.8 1.6 0 1.6 0 3.2 0 0 0 12.8 6.4 14.4 6.4 0 1.6 1.6 3.2 1.6 3.2 0 1.6 1.6 4.8 1.6 6.4l3.2 3.2c0 1.6 1.6 14.4 3.2 14.4l1.6 1.6c0 1.6 1.6 3.2 1.6 3.2 1.6 0 4.8 9.6 9.6 6.4h1.6c0-1.6 1.6-1.6 1.6-1.6l3.2-3.2v-1.6c0 0-1.6-1.6-1.6-3.2 0 0-3.2-4.8-3.2-6.4 0 0 0-1.6-1.6-1.6 0-1.6-1.6-1.6-1.6-1.6 0-1.6 0-1.6 0-3.2l3.2-9.6h1.6c0 3.2 14.4 6.4 14.4 11.2 1.6 0 0 0 1.6 0l1.6 3.2c0 1.6 0 3.2 0 3.2-1.6 1.6-4.8 4.8-6.4 4.8 0 1.6-6.4 8-8 8l-1.6 1.6c-1.6 0-3.2 1.6-3.2 1.6 0 0 0 1.6-1.6 1.6-1.6 3.2-8 8-8 9.6h-1.6c-4.8-3.2-11.2-3.2-16-4.8-1.6-1.6-17.6-3.2-17.6-6.4h-1.6c0-1.6 1.6-1.6 1.6-1.6 0 0 3.2-3.2 4.8-3.2 0-1.6 1.6-1.6 1.6-1.6l1.6-1.6c0 1.6 0 1.6 0 1.6 0-1.6 1.6-1.6 1.6-1.6 0-1.6 0 0 0-1.6l1.6-1.6c1.6 0 1.6-1.6 1.6-1.6l1.6-1.6c0 0 1.6 0 1.6-1.6 1.6 0 0 0 1.6 0l1.6-1.6c0-8-4.8-14.4-11.2-20.8 0 0-3.2-3.2-4.8-3.2-1.6-3.2-11.2-8-16-8zm58.2-13.8c1.6 0 1.6 0 3.2 0l1.6 1.6c0 0 0 3.2 1.6 3.2 0 1.6-1.6 4.8-1.6 4.8l-1.6 3.2h-3.2c0-1.6-1.6-1.6-1.6-1.6 0-1.6-3.2-3.2-4.8-3.2 0 0-4.8-3.2-4.8-4.8 0 0-3.2-4.8-4.8-4.8 3.2 0 14.4-1.6 16 1.6zm-6.4 44.8c0 1.6 1.6 1.6 1.6 1.6l1.6 3.2 1.6 1.6v3.2h-1.6c0 0-1.6 0-1.6-1.6-1.6 0-1.6-1.6-1.6-1.6 0 0 0-1.6-1.6-1.6 0-1.6-1.6-1.6-1.6-3.2 1.6-1.6 3.2 0 3.2-1.6zm-22.4-121.6v0.4c-0.3-0.2-0.5-0.4 0-0.4zm0 0.4c0.8 0.5 2.7 1.2 1.6 1.2h1.6l1.6 1.6c1.6 1.6 1.6 3.2 3.2 3.2 0 1.6 1.6 3.2 1.6 3.2 1.6 0 1.6 1.6 1.6 1.6 1.6 0 0 0 1.6 0l1.6 1.6c0 0 1.6 3.2 1.6 4.8 1.6 3.2 1.6 11.2 0 14.4-3.2 6.4-1.6 17.6-1.6 25.6l-1.6 3.2-3.2 3.2c-1.6 0-3.2-1.6-4.8-1.6v-6.4l1.6-1.6c0-1.6 1.6-4.8 1.6-8-1.6 0-1.6-1.6-1.6-1.6v-1.6c0-1.6 1.6-11.2 1.6-12.8 1.6-3.2 0-11.2 0-16-1.6-1.6-3.2-4.8-4.8-6.4l-1.6-1.6c0 0 0-1.6-1.6-1.6zm-214.4-75.5l1.6 1.6 1.6 6.4v1.6l-1.6 1.6c-1.6 1.6-9.6 1.6-11.2 1.6l-1.6 1.6c0 1.6 1.6 4.8 3.2 4.8 1.6 1.6 6.4 8 9.6 8v1.6c1.6 1.6 1.6 3.2 1.6 6.4-4.8 0-11.2-3.2-16-3.2-4.8-8-19.2-9.6-25.6-16v-1.6c-1.6-1.6-4.8-1.6-6.4-4.8v-1.6c0 0 1.6 0 1.6-1.6 4.8 0 16 1.6 19.2-1.6 1.6-1.6 3.2-1.6 4.8-1.6 3.2-1.6 11.2 0 16-1.6 0-1.6 3.2-1.6 3.2-1.6zm19.2 4.8c0 1.6 0 3.2-1.6 4.8-1.6 0-4.8-4.8-6.4-4.8 0-3.2 1.6-4.8 1.6-6.4 3.2 1.6 4.8 4.8 6.4 6.4zm12.8-11.2l3.2 3.2c1.6 0 1.6 1.6 1.6 3.2-1.6 1.6-3.2 4.8-4.8 6.4-1.6 0-1.6 0-3.2 0 0-1.6 0-1.6 0-3.2-1.6 0-1.6-1.6-1.6-1.6 0 0-3.2-3.2-1.6-4.8v-1.6c1.6-1.6 3.2-3.2 3.2-3.2 1.6 0 1.6-1.6 1.6-1.6zm14.4 3.2l3.2 1.6h1.6v1.6c0 0 0 1.6 1.6 1.6 0 0 1.6 1.6 3.2 1.6 0 1.6 6.4 3.2 6.4 6.4h-16c0-1.6 0 0 0-1.6l-1.6-1.6q0-2.4 0-4.8l1.6-1.6c0-1.6 0-4.8-1.6-4.8 0-1.6 0-1.6 0-3.2 0 0 1.6 0 1.6 4.8zm-291.2-11.2h-4.8c0 1.6 0 0 0 1.6 0 1.6 1.6 3.2 1.6 4.8l1.6 1.6h3.2c1.6-3.2 0-8-1.6-8zm6.4 27.2l3.2 1.6c0 1.6 3.2 3.2 3.2 4.8l1.6 1.6c1.6 0 1.6 1.6 1.6 1.6v3.2l1.6 1.6c0 1.6 0 3.2 0 6.4h-3.2l-1.6-1.6c0-1.6-1.6-1.6-1.6-3.2 0 0-1.6-1.6-3.2-1.6-1.6-1.6-3.2-3.2-4.8-6.4 0-1.6 1.6-6.4 3.2-8zm-145.6 36.8l1.6-3.2v-4.8l3.2-1.6h-1.6c4.8-3.2 12.8 0 17.6 1.6 1.6 1.6 11.2 12.8 12.8 14.4 1.6 1.6 1.6 3.2 1.6 3.2 0 1.6 1.6 4.8 0 6.4 0 0 0 3.2-1.6 3.2 0 0-1.6 0-1.6 1.6l-1.6 1.6h-4.8c-1.6-1.6-3.2-4.8-4.8-6.4l-1.6-1.6-6.4-9.6c-1.6 0-11.2 0-11.2 0zm0 22.4c0-1.6 6.4-3.2 6.4 0 1.6 0 0 0 1.6 0v1.6c-1.6 1.6-6.4-1.6-8-1.6zm24-73.6c1.6 1.6 1.6 4.8 3.2 6.4v8l-1.6 1.6c-3.2 0-9.6 0-9.6-3.2-1.6 0 0 0-1.6 0 0-1.6-1.6-3.2-1.6-3.2q0-2.4 0-4.8c1.6 0 1.6-1.6 3.2-1.6 0-1.6 1.6-3.2 1.6-3.2 1.6 1.6 1.6 3.2 6.4 0zm-16 17.6h1.6c0 1.6 1.6 1.6 1.6 3.2l1.6 1.6c1.6 0 4.8 1.6 8 1.6l1.6-1.6v-3.2c0 0 1.6 0 1.6-1.6h4.8c0 1.6 1.6 8 0 9.6v3.2c0 0-1.6 1.6-1.6 3.2h-1.6v1.6l-6.4-1.6h-3.2-1.6c-1.6 0-1.6-1.6-3.2-1.6l-1.6-1.6v-1.6l-1.6-1.6c-1.6 0-3.2-3.2-3.2-4.8-1.6 0-3.2-1.6-3.2-3.2 1.6-1.6 4.8-3.2 6.4-1.6zm-27.2 60.8h67.2l3.2 12.8h-75.2zm17.6 20.8h35.2l-16 22.4zm33.6 91.2c-1.6 17.6-8 28.8-16 36.8l1.6-92.8 12.8-12.8zm-38.4-68.8l12.8 12.8 1.6 92.8c-8-8-14.4-19.2-16-36.8z"/>
			<path id="&lt;Compound Path&gt;" fill-rule="evenodd" class="s2" d="m428.8 414.6l9.6 11.2 8-11.2 6.4 6.4-11.2 11.2v22.4h-9.6v-20.8l-9.6-12.8zm46.4-46.4v24l-9.6-9.6zm-67.2 16l-9.6 9.6v-24zm51.2-57.6l12.8-33.6v51.2zm-32 56l12.8-16 11.2 14.4-11.2 12.8zm16 27.2l12.8-16 11.2 14.4-11.2 12.8zm-36.8 1.6l12.8-16 11.2 14.4-11.2 12.8zm36.8-49.6l12.8-16 11.2 14.4-11.2 12.8zm-36.8 0l12.8-16 11.2 14.4-11.2 12.8zm-4.8-72l20.8 33.6-20.8 20.8zm38.4-12.8l14.4 57.6-14.4 16-16-17.6z"/>
		</g>
	</g>
</svg>