<svg version="1.2" xmlns="http://www.w3.org/2000/svg" viewBox="0 0 664 988" width="664" height="988">
	<title>Parvomay-pdf</title>
	<style>
		.s0 { fill: #32902d } 
	</style>
	<path id="Path 1" fill-rule="evenodd" class="s0" d="m1.5 177.4h661.5v456.6c0.5 213.6-156.1 350.9-330.8 354-174.7-3.1-331.2-140.4-330.7-354zm332.8 311.9l49.9-38.2-0.5-20.4-49.4 35.5zm-50-140.2l-0.5 20.4 49.9 38.2 50-38.2-0.6-20.4-49.4 35.5zm358.8 240.3q2.3 1.7 4.5 3.4v-4.9zm-44.5-28.9q6.3 3.5 12.4 7.2l36.6-11.8v-19.4zm-42.4-20.5q4 1.7 7.9 3.4l83.5-40.9v-24.8zm-38.8-14.4q1.9 0.6 3.8 1.3l126.4-86.2v-34.3zm-35-10.1q0.3 0.1 0.6 0.2l164.5-150.8v-51zm-25.8-16.7l190.9-233.2v-74.5h-5.1zm-26.4-15.4l176.4-292.3h-52.8zm-28.1-11.9l118.5-280.3h-44.9zm-6.3-96.1l48.4-184.1h-48.4zm-377.5 288.7c3.5 39 12.2 74.8 25.2 106.9 7.7-16.4 16.8-32.1 27.2-46.9l-23.7-28.6 42.7-48.2 31.4 20.1c15-13.3 31.2-25.3 48.6-35.6l-9.8-36.7 58.9-26 20.3 31.7c18.2-5.7 37.1-9.8 56.6-12.1l5.7-36.6h61.4l5.7 36.6c19.4 2.3 38.3 6.4 56.6 12.1l20.2-31.7 58.9 26-9.7 36.7c17.3 10.3 33.6 22.3 48.6 35.6l31.3-20.1 42.7 48.2-23.6 28.6c10.3 14.8 19.4 30.5 27.2 46.9 13.3-33.2 22.1-70.2 25.4-110.7-14.2-19.7-33.1-37.8-55.7-53.8q-0.5-0.4-1-0.7-1.3-0.9-2.5-1.8-0.8-0.5-1.5-1-1.4-0.9-2.8-1.8-0.8-0.6-1.7-1.2-1.3-0.9-2.7-1.7-0.7-0.5-1.4-0.9-1.6-1-3.2-2-0.7-0.4-1.3-0.8-1.8-1.1-3.7-2.2-0.3-0.2-0.5-0.3-2-1.2-4-2.4-0.4-0.2-0.8-0.4-2-1.1-4-2.2-0.4-0.2-0.8-0.5-4.5-2.4-9.1-4.7-0.2-0.2-0.4-0.3-2.3-1.1-4.6-2.2-0.2-0.1-0.3-0.2-2.3-1.1-4.5-2.2-0.2-0.1-0.4-0.1-2.2-1.1-4.5-2.1-0.3-0.2-0.7-0.4-2.2-1-4.4-1.9-0.4-0.2-0.8-0.4-2.1-0.9-4.3-1.8-0.6-0.3-1.1-0.5-2.1-0.8-4.1-1.7-0.7-0.3-1.4-0.5-1.9-0.8-3.9-1.6-0.9-0.3-1.7-0.6-1.9-0.7-3.8-1.4-0.9-0.4-1.8-0.7-1.9-0.7-3.8-1.4-0.9-0.3-1.9-0.7-1.7-0.6-3.4-1.2-1.1-0.3-2.2-0.7-1.5-0.5-3.1-1-1.3-0.5-2.7-0.9-1.4-0.5-2.8-0.9-1.5-0.5-3.2-1-1.1-0.3-2.2-0.7-2-0.6-3.9-1.1-1-0.3-1.9-0.6-2.1-0.6-4.2-1.2-0.8-0.2-1.7-0.4-2.4-0.7-4.9-1.3-0.5-0.2-1-0.3c-34.2-8.8-71.1-14.3-109.7-15.8q-10.1-0.3-20.4-0.4v-13.8l-0.1 0.1-0.2-0.1v13.8q-10.3 0.1-20.4 0.4c-38.6 1.5-75.5 7-109.7 15.8q-0.5 0.1-1 0.3-2.5 0.6-4.9 1.3-0.8 0.2-1.7 0.4-2.1 0.6-4.2 1.2-0.9 0.3-1.9 0.6-1.9 0.5-3.9 1.1-1.1 0.4-2.2 0.7-1.6 0.5-3.2 1-1.4 0.4-2.8 0.9-1.4 0.4-2.7 0.9-1.6 0.5-3.1 1-1.1 0.4-2.2 0.7-1.7 0.6-3.4 1.2-1 0.4-1.9 0.7-1.9 0.7-3.8 1.4-0.9 0.3-1.8 0.7-1.9 0.7-3.8 1.4-0.8 0.3-1.7 0.6-1.9 0.8-3.9 1.6-0.7 0.2-1.3 0.5-2.1 0.9-4.1 1.7-0.6 0.2-1.2 0.5-2.1 0.9-4.3 1.8-0.4 0.2-0.8 0.4-2.2 0.9-4.4 1.9-0.3 0.2-0.7 0.4-2.3 1-4.5 2.1-0.2 0-0.4 0.1-2.2 1.1-4.5 2.2-0.1 0.1-0.3 0.2-2.3 1.1-4.6 2.2-0.2 0.1-0.4 0.3-4.6 2.3-9.1 4.7-0.4 0.3-0.8 0.5-2 1.1-4 2.2-0.4 0.2-0.8 0.4-2 1.2-4 2.4-0.2 0.1-0.5 0.3-1.9 1.1-3.7 2.2-0.6 0.4-1.2 0.8-1.7 1-3.3 2-0.7 0.4-1.4 0.9-1.4 0.8-2.7 1.7-0.9 0.6-1.7 1.2-1.4 0.9-2.8 1.8-0.7 0.5-1.5 1-1.2 0.9-2.5 1.8-0.5 0.3-1 0.7c-24.1 17-43.9 36.4-58.4 57.6zm-1.6-77v8.3q3.6-3 7.4-5.9zm0-51.9v19.8l39.6 12.8q6.1-3.7 12.4-7.1zm0-59.5v25.4l86.4 42.4q4-1.7 8-3.4zm0-72v35l129.3 88.2q1.9-0.6 3.8-1.2zm0-93.4v52l167.5 153.4q0.3 0 0.6-0.1zm8.1-119.1h-8.1v70.9l193.8 236.7zm88.5 0h-52.8l176.4 292.3zm78 0h-44.9l118.5 280.2zm80 0h-48.4l48.4 184.1zm60.8 128.9c-17.9-9.3-26.1-26.5-28.3-51.5-0.1-30.6 21.2-48.3 28.3-77.4 7 29.1 28.4 46.8 28.2 77.4-2.1 25-10.3 42.2-28.2 51.5zm-10.7-128.9v21.6h-9.7v-21.6h-10.2v52.2h-10.2v-52.2h-8.1l1 93 49.4 47.7 49.4-47.7 0.9-93h-11.1v52.2h-10.2v-52.2h-10.2v21.6h-9.6v-21.6zm10.6 783.1c65.3-3.2 127.3-24.4 179-61.9-1.6-1-2.9-1.9-3.9-2.8-3-2.7-4.9-6.1-13.2-6.1-8.4 0-10.2 3.4-13.3 6.1-3 2.6-8.1 6.1-17.8 6.2-9.7-0.1-15-3.6-18-6.2-3.1-2.7-4.9-6.1-13.3-6.1-8.4 0-10.2 3.4-13.3 6.1-3 2.6-8.1 6.1-17.8 6.2-9.6-0.1-15-3.6-18-6.2-3.1-2.7-4.9-6.1-13.3-6.1-8.3 0-10.2 3.4-13.2 6.1-3.1 2.6-8.2 6.1-17.8 6.2-9.7-0.1-15-3.6-18.1-6.2-3-2.7-4.8-6.1-13.2-6.1-8.4 0-10.2 3.4-13.3 6.1-3 2.6-8.1 6.1-17.8 6.2-9.7-0.1-15-3.6-18-6.2-3.1-2.7-4.9-6.1-13.3-6.1-8.4 0-10.2 3.4-13.2 6.1-3.1 2.6-8.2 6.1-17.9 6.2-9.6-0.1-14.9-3.6-18-6.2-3-2.7-4.9-6.1-13.2-6.1-8.4 0-10.3 3.4-13.3 6.1-2.3 2-5.9 4.5-11.7 5.6 50.8 35.8 111.3 56 174.9 59.1zm-182.1-64.2q0.5 0 1.1 0c9.6 0 13.5-3.8 16.5-6.5 3.1-2.6 5.8-5.7 14.8-5.7 8.9 0 11.7 3.1 14.7 5.7 3.1 2.7 6.7 6.5 16.3 6.5 9.7 0 13.5-3.8 16.6-6.5 3-2.6 5.8-5.7 14.7-5.7 9 0 11.7 3.1 14.8 5.7 3 2.7 6.6 6.5 16.3 6.5 9.7 0 13.5-3.8 16.5-6.5 3.1-2.6 5.8-5.7 14.8-5.7 9 0 11.7 3.1 14.7 5.7 3.1 2.7 6.7 6.5 16.4 6.5 9.6 0 13.4-3.8 16.5-6.5 3-2.6 5.8-5.7 14.7-5.7 9 0 11.7 3.1 14.8 5.7 3 2.7 6.7 6.5 16.3 6.5 9.7 0 13.5-3.8 16.6-6.5 3-2.6 5.7-5.7 14.7-5.7 9 0 11.7 3.1 14.8 5.7 3 2.7 6.6 6.5 16.3 6.5 9.7 0 13.5-3.8 16.5-6.5 3.1-2.6 5.8-5.7 14.8-5.7 8.9 0 11.7 3.1 14.7 5.7 1.9 1.6 3.9 3.6 7.3 5q4.7-3.5 9.2-7.2-0.1 0-0.2 0c-9.6-0.1-14.9-3.6-18-6.2-3-2.7-4.9-6.1-13.2-6.1-8.4 0-10.2 3.4-13.3 6.1-3 2.6-8.1 6.1-17.8 6.2-9.7-0.1-15-3.6-18-6.2-3.1-2.7-4.9-6.1-13.3-6.1-8.4 0-10.2 3.4-13.3 6.1-3 2.6-8.1 6.1-17.8 6.2-9.6-0.1-15-3.6-18-6.2-3.1-2.7-4.9-6.1-13.3-6.1-8.3 0-10.2 3.4-13.2 6.1-3.1 2.6-8.2 6.1-17.8 6.2-9.7-0.1-15-3.6-18.1-6.2-3-2.7-4.8-6.1-13.2-6.1-8.4 0-10.2 3.4-13.3 6.1-3 2.6-8.1 6.1-17.8 6.2-9.7-0.1-15-3.6-18-6.2-3.1-2.7-4.9-6.1-13.3-6.1-8.4 0-10.2 3.4-13.2 6.1-3.1 2.6-8.2 6.1-17.9 6.2-9.6-0.1-14.9-3.6-18-6.2-3-2.7-4.9-6.1-13.2-6.1-8.4 0-10.3 3.4-13.3 6.1-3.1 2.6-8.2 6.1-17.8 6.2-9.7-0.1-15-3.6-18.1-6.2-2.1-1.9-3.7-4.2-7.4-5.3q11.8 10.8 24.4 20.2zm-38.3-33.7q3.5 3.6 7.1 7.1 0.6 0 1.2 0c9 0 11.7 3.1 14.7 5.7 3.1 2.7 6.7 6.5 16.4 6.5 9.6 0 13.5-3.8 16.5-6.5 3.1-2.6 5.8-5.7 14.8-5.7 8.9 0 11.7 3.1 14.7 5.7 3.1 2.7 6.7 6.5 16.3 6.5 9.7 0 13.5-3.8 16.6-6.5 3-2.6 5.8-5.7 14.7-5.7 9 0 11.7 3.1 14.8 5.7 3 2.7 6.6 6.5 16.3 6.5 9.7 0 13.5-3.8 16.5-6.5 3.1-2.6 5.8-5.7 14.8-5.7 9 0 11.7 3.1 14.7 5.7 3.1 2.7 6.7 6.5 16.4 6.5 9.6 0 13.4-3.8 16.5-6.5 3-2.6 5.8-5.7 14.7-5.7 9 0 11.7 3.1 14.8 5.7 3 2.7 6.7 6.5 16.3 6.5 9.7 0 13.5-3.8 16.6-6.5 3-2.6 5.7-5.7 14.7-5.7 9 0 11.7 3.1 14.8 5.7 3 2.7 6.6 6.5 16.3 6.5 9.7 0 13.5-3.8 16.5-6.5 3.1-2.6 5.8-5.7 14.8-5.7 8.9 0 11.7 3.1 14.7 5.7 3.1 2.7 6.7 6.5 16.3 6.5 3.5 0 6.2-0.5 8.3-1.2q10.7-9.3 20.6-19.7c-6.5 0.6-8.3 3.6-11 6-3.1 2.6-8.2 6.1-17.9 6.2-9.6-0.1-14.9-3.6-18-6.2-3-2.7-4.9-6-13.2-6.1-8.4 0.1-10.2 3.4-13.3 6.1-3 2.6-8.1 6.1-17.8 6.2-9.7-0.1-15-3.6-18-6.2-3.1-2.7-4.9-6-13.3-6.1-8.4 0.1-10.2 3.4-13.3 6.1-3 2.6-8.1 6.1-17.8 6.2-9.6-0.1-15-3.6-18-6.2-3.1-2.7-4.9-6-13.3-6.1-8.3 0.1-10.2 3.4-13.2 6.1-3.1 2.6-8.2 6.1-17.8 6.2-9.7-0.1-15-3.6-18.1-6.2-3-2.7-4.8-6-13.2-6.1-8.4 0.1-10.2 3.4-13.3 6.1-3 2.6-8.1 6.1-17.8 6.2-9.7-0.1-15-3.6-18-6.2-3.1-2.7-4.9-6-13.3-6.1-8.4 0.1-10.2 3.4-13.2 6.1-3.1 2.6-8.2 6.1-17.9 6.2-9.6-0.1-14.9-3.6-18-6.2-3-2.7-4.9-6-13.2-6.1-8.4 0.1-10.3 3.4-13.3 6.1-3.1 2.6-8.2 6.1-17.8 6.2-9.7-0.1-15-3.6-18.1-6.2-3-2.7-4.8-6-13.2-6.1-3.8 0-6.2 0.7-8.1 1.7zm-5.2-10c-0.7 0.6-1.5 1.2-2.4 1.9q1.9 2.1 3.9 4.2c2.4-1.9 5.6-3.4 12-3.4 9 0 11.7 3.1 14.7 5.7 3.1 2.6 6.7 6.5 16.4 6.5 9.6 0 13.5-3.9 16.5-6.5 3.1-2.6 5.8-5.7 14.8-5.7 8.9 0 11.7 3.1 14.7 5.7 3.1 2.6 6.7 6.5 16.3 6.5 9.7 0 13.5-3.9 16.6-6.5 3-2.6 5.8-5.7 14.7-5.7 9 0 11.7 3.1 14.8 5.7 3 2.6 6.6 6.5 16.3 6.5 9.7 0 13.5-3.9 16.5-6.5 3.1-2.6 5.8-5.7 14.8-5.7 9 0 11.7 3.1 14.7 5.7 3.1 2.6 6.7 6.5 16.4 6.5 9.6 0 13.4-3.9 16.5-6.5 3-2.6 5.8-5.7 14.7-5.7 9 0 11.7 3.1 14.8 5.7 3 2.6 6.7 6.5 16.3 6.5 9.7 0 13.5-3.9 16.6-6.5 3-2.6 5.7-5.7 14.7-5.7 9 0 11.7 3.1 14.8 5.7 3 2.6 6.6 6.5 16.3 6.5 9.7 0 13.5-3.9 16.5-6.5 3.1-2.6 5.8-5.7 14.8-5.7 8.9 0 11.7 3.1 14.7 5.7 3.1 2.6 6.7 6.5 16.3 6.5 9.7 0 13.5-3.9 16.6-6.5 3-2.6 5.8-5.7 14.7-5.7q1.5 0 2.8 0.1 3-3.3 5.9-6.7c-1.9-1.2-4.5-2.2-8.9-2.2-8.3 0.1-10.2 3.4-13.2 6.1-3.1 2.6-8.2 6.1-17.9 6.2-9.6-0.1-14.9-3.6-18-6.2-3-2.7-4.9-6-13.2-6.1-8.4 0.1-10.2 3.4-13.3 6.1-3 2.6-8.1 6.1-17.8 6.2-9.7-0.1-15-3.6-18-6.2-3.1-2.7-4.9-6-13.3-6.1-8.4 0.1-10.2 3.4-13.3 6.1-3 2.6-8.1 6.1-17.8 6.2-9.6-0.1-15-3.6-18-6.2-3.1-2.7-4.9-6-13.3-6.1-8.3 0.1-10.2 3.4-13.2 6.1-3.1 2.6-8.2 6.1-17.8 6.2-9.7-0.1-15-3.6-18.1-6.2-3-2.7-4.8-6-13.2-6.1-8.4 0.1-10.2 3.4-13.3 6.1-3 2.6-8.1 6.1-17.8 6.2-9.7-0.1-15-3.6-18-6.2-3.1-2.7-4.9-6-13.3-6.1-8.4 0.1-10.2 3.4-13.2 6.1-3.1 2.6-8.2 6.1-17.9 6.2-9.6-0.1-14.9-3.6-18-6.2-3-2.7-4.9-6-13.2-6.1-8.4 0.1-10.3 3.4-13.3 6.1-3.1 2.6-8.2 6.1-17.8 6.2-9.7-0.1-15-3.6-18.1-6.2-3-2.7-4.8-6-13.2-6.1-8.4 0.1-10.2 3.4-13.3 6.1zm479.2-30.3q-0.6-1.9-1.2-3.9h-496.3c13.4-20.4 71.9-46.6 105.2-31.6 5.6-16.1 111.2-69.1 133.4-63.4 22.3 5.8 56.6 28.3 88.3 46.4 24.8-15.8 24-18.9 53.1-10.2 28.8 8.7 75.6 32.8 116 57.8-32.6-109.1-132.6-189-252.1-189-121.2 0-222.4 82.3-253.5 193.9q5.9 8.4 12.1 16.3c8.2-0.5 11.7-3.9 14.5-6.4 3.1-2.6 5.8-5.7 14.8-5.7 9 0 11.7 3.1 14.7 5.7 3.1 2.6 6.7 6.5 16.4 6.5 9.6 0 13.5-3.9 16.5-6.5 3.1-2.6 5.8-5.7 14.8-5.7 8.9 0 11.7 3.1 14.7 5.7 3.1 2.6 6.7 6.5 16.3 6.5 9.7 0 13.5-3.9 16.6-6.5 3-2.6 5.8-5.7 14.7-5.7 9 0 11.7 3.1 14.8 5.7 3 2.6 6.6 6.5 16.3 6.5 9.7 0 13.5-3.9 16.5-6.5 3.1-2.6 5.8-5.7 14.8-5.7 9 0 11.7 3.1 14.7 5.7 3.1 2.6 6.7 6.5 16.4 6.5 9.6 0 13.4-3.9 16.5-6.5 3-2.6 5.8-5.7 14.7-5.7 9 0 11.7 3.1 14.8 5.7 3 2.6 6.7 6.5 16.3 6.5 9.7 0 13.5-3.9 16.6-6.5 3-2.6 5.7-5.7 14.7-5.7 9 0 11.7 3.1 14.8 5.7 3 2.6 6.6 6.5 16.3 6.5 9.7 0 13.5-3.9 16.5-6.5 3.1-2.6 5.8-5.7 14.8-5.7 8.9 0 11.7 3.1 14.7 5.7 3.1 2.6 6.7 6.5 16.3 6.5 9.7 0 13.5-3.9 16.6-6.5 3-2.6 5.8-5.7 14.7-5.7 9 0 11.7 3.1 14.8 5.7 1.3 1.1 2.6 2.4 4.5 3.6q5.1-6.6 9.9-13.5zm-479.2 15.9c-2.3 2-5.8 4.5-11.6 5.6q2.7 3.3 5.5 6.5c2.1-1.2 3.5-2.5 4.8-3.7 3.1-2.6 5.8-5.7 14.8-5.7 9 0 11.7 3.1 14.7 5.7 3.1 2.6 6.7 6.5 16.4 6.5 9.6 0 13.5-3.9 16.5-6.5 3.1-2.6 5.8-5.7 14.8-5.7 8.9 0 11.7 3.1 14.7 5.7 3.1 2.6 6.7 6.5 16.3 6.5 9.7 0 13.5-3.9 16.6-6.5 3-2.6 5.8-5.7 14.7-5.7 9 0 11.7 3.1 14.8 5.7 3 2.6 6.6 6.5 16.3 6.5 9.7 0 13.5-3.9 16.5-6.5 3.1-2.6 5.8-5.7 14.8-5.7 9 0 11.7 3.1 14.7 5.7 3.1 2.6 6.7 6.5 16.4 6.5 9.6 0 13.4-3.9 16.5-6.5 3-2.6 5.8-5.7 14.7-5.7 9 0 11.7 3.1 14.8 5.7 3 2.6 6.7 6.5 16.3 6.5 9.7 0 13.5-3.9 16.6-6.5 3-2.6 5.7-5.7 14.7-5.7 9 0 11.7 3.1 14.8 5.7 3 2.6 6.6 6.5 16.3 6.5 9.7 0 13.5-3.9 16.5-6.5 3.1-2.6 5.8-5.7 14.8-5.7 8.9 0 11.7 3.1 14.7 5.7 3.1 2.6 6.7 6.5 16.3 6.5 9.7 0 13.5-3.9 16.6-6.5 3-2.6 5.8-5.7 14.7-5.7 6.6 0 9.9 1.6 12.3 3.6q1.8-2.1 3.5-4.3c-1.1-0.7-2-1.4-2.7-2-3.1-2.7-4.9-6.1-13.3-6.1-8.3 0-10.2 3.4-13.2 6.1-3.1 2.6-8.2 6.1-17.9 6.2-9.6-0.1-14.9-3.6-18-6.2-3-2.7-4.9-6.1-13.2-6.1-8.4 0-10.2 3.4-13.3 6.1-3 2.6-8.1 6.1-17.8 6.2-9.7-0.1-15-3.6-18-6.2-3.1-2.7-4.9-6.1-13.3-6.1-8.4 0-10.2 3.4-13.3 6.1-3 2.6-8.1 6.1-17.8 6.2-9.6-0.1-15-3.6-18-6.2-3.1-2.7-4.9-6.1-13.3-6.1-8.3 0-10.2 3.4-13.2 6.1-3.1 2.6-8.2 6.1-17.8 6.2-9.7-0.1-15-3.6-18.1-6.2-3-2.7-4.8-6.1-13.2-6.1-8.4 0-10.2 3.4-13.3 6.1-3 2.6-8.1 6.1-17.8 6.2-9.7-0.1-15-3.6-18-6.2-3.1-2.7-4.9-6.1-13.3-6.1-8.4 0-10.2 3.4-13.2 6.1-3.1 2.6-8.2 6.1-17.9 6.2-9.6-0.1-14.9-3.6-18-6.2-3-2.7-4.9-6.1-13.2-6.1-8.4 0-10.3 3.4-13.3 6.1-3.1 2.6-8.2 6.1-17.8 6.2-9.7-0.1-15-3.6-18.1-6.2-3-2.7-4.8-6.1-13.2-6.1-8.4 0-10.2 3.4-13.3 6.1zm-106.6-852.4h663.5v156.3h-663.5zm17.6 142.8h628.4v-129.2h-628.4zm571.5-107.9q0 1.9 1.6 3 1.5 1.1 4.3 1.1 5.6 0 5.9-4.1h9.9q-0.2 2.4-0.7 3.6-0.5 1.2-1.9 2.6-4.4 4.2-13.2 4.2-8.8 0-13.1-4.2-1.4-1.3-1.9-2.4-0.5-1.2-0.8-3.8zm-72.2 10.8h16.9l25.7 72.3h-15.7l-4.9-14.6h-27.6l-4.6 14.6h-15zm7.4 13.2l-9.3 32.5h19.7zm-99.7 59h-13.8v-71h23.6l13.7 56.2 0.3 3.9h0.7l0.3-3.8 11.9-56.3h23.7v71h-13.7v-55.4l0.2-4.5h-0.3l-1 4.5-13.3 55.4h-17.7l-13.4-54.6-0.9-5.3h-0.5l0.2 5.2zm-60.4-73q8.2 0 14.8 2.5 6.5 2.6 11.2 7.5 4.6 4.9 7 11.9 2.5 7 2.5 15.6 0 8.5-2.4 15.4-2.5 7-7.1 11.9-4.6 4.9-11 7.5-6.4 2.6-14.3 2.6-7.8 0-14.2-2.6-6.4-2.6-11-7.6-4.6-4.9-7.1-11.8-2.4-6.9-2.4-15.4 0-8.3 2.4-15.3 2.5-6.9 7-11.9 4.5-5 10.8-7.6 6.3-2.7 13.8-2.7zm-19.2 37.5q0 5.6 1.4 10.2 1.4 4.6 4 7.9 2.7 3.2 6.3 5 3.7 1.7 8.1 1.7 6.2 0 10.8-3 4.5-3 6.9-8.7 2.4-5.7 2.4-13.5 0-5.6-1.4-10.1-1.4-4.6-4.1-7.8-2.6-3.2-6.3-4.9-3.7-1.7-8.3-1.7-4.4 0-8.1 1.7-3.7 1.8-6.3 5.1c-1.8 2.2-3.1 4.8-4 7.9q-1.4 4.6-1.4 10.2zm-35.6-2.8q3.4 1.1 5.2 2 1.9 0.9 3.6 2.4 4.6 4 4.6 12.8 0 6.6-3.1 11.3-3 4.8-8.9 7.3-5.8 2.5-13.9 2.5h-30.9v-71h32q7-0.1 12.1 2 5 2.1 7.7 6.2 2.6 4 2.6 9.7 0 7-4.1 11.4-1.5 1.4-2.8 2.1-1.4 0.7-4.1 1.3zm-28.8 6.9v18.9h15.2q4.3 0 7.1-1.3 2.6-1.2 3.6-3 1-1.8 1-5.2 0-4.9-2.8-7.1-2.8-2.3-9-2.3zm0-12.1h14.6q10.4 0 10.4-7.8 0-4-2.5-5.7-2.4-1.8-8-1.8h-14.5zm-64.3 18.3v25.3h-14.6v-71.1h30.5q5.5 0 10 1.6 4.4 1.5 7.5 4.5 3.1 3.1 4.8 7.3 1.6 4.2 1.6 9.4 0 6.8-3 12.1-2.9 5.2-8.3 8-5.5 2.9-12.7 2.9zm0-12.9h13.5q6 0 8.7-2.5 2.8-2.5 2.8-7.7 0-10.4-10.7-10.4h-14.3zm-65.1-6.9h15.9q5.4 0 9.9 1.5c2.9 1.1 5.4 2.6 7.5 4.5q3.1 2.9 4.8 7.1 1.7 4.2 1.7 9.3 0 5.2-1.7 9.4-1.7 4.2-4.8 7.1-3.2 3-7.6 4.6-4.5 1.5-9.8 1.5h-30.6v-58.7h-14.7v-12.4h29.4zm0 12.7v20h14.2q5.4 0 8.3-2.6 2.8-2.6 2.8-7.6 0-5-2.8-7.4-2.9-2.4-8.9-2.4zm-37.5-38.7v71.1h-14.5v-58.1h-29.5v58.1h-14.6v-71.1zm511 0v71.1h-14.6v-53.2l0.3-3.4h-0.3l-23.7 56.6h-20.4v-71.1h14.6v54.6l-0.2 2.6h0.5l23.8-57.2zm-291.7 419.6l-49.4-35.5-0.5 20.4 49.9 38.2z"/>
</svg>