<svg version="1.2" xmlns="http://www.w3.org/2000/svg" viewBox="0 0 899 1025" width="899" height="1025">
	<title>Cherven-Bryag-pdf</title>
	<style>
		.s0 { fill: #b83c1d } 
		.s1 { fill: #fff5b2 } 
		.s2 { fill: #4c8a45 } 
		.s3 { fill: #fd9a4d } 
		.s4 { fill: #ffc83b } 
	</style>
	<path id="Path 7" class="s0" d="m450.4 1022.8c-225.8 0-446.6-108.1-446.6-364.3v-657.2h893.1v657.2c0 256.2-220.7 364.3-446.5 364.3z"/>
	<path id="Path 8" class="s1" d="m449.8 818.5c-101.7 2.6-228.8-36.3-228.8-156.1v-207.5l-102.5 104.2-117.7-109.8c0-665.4 0.1-45.8 0-198l239.4-250h205.8 213.5l239.4 250c-0.1 140.7 0-444.9 0 198l-117.7 109.8-102.5-104.2v207.5c0 119.8-127.1 158.7-228.9 156.1z"/>
	<path id="Path 9" class="s2" d="m497 1.3q0.1 0.8 0.1 1.5c0 27-22 48.9-49.2 48.9-27.1 0-49.1-21.9-49.1-48.9q0-0.7 0-1.5zm134 0q0 0.8 0.1 1.5c0 100.6-82.1 182.2-183.2 182.2-101.1 0-183.1-81.6-183.1-182.2q0-0.7 0-1.5h90.8q0 0.8 0 1.5c0 50.7 41.3 91.9 92.3 91.9 51 0 92.4-41.2 92.4-91.9q0-0.7-0.1-1.5zm260.1 364.6l-257.2-249.6 19.1-38 238.4 226.7zm-886.7-55.5l231.7-231.9 20 40.2-251 250.7zm279.2-160.9l29.1 30.1-256 263.3-31.4-30.1zm294.5 29.6l30.2-29.1 264.7 254.8-30.2 31.2z"/>
	<path id="Path 10" fill-rule="evenodd" class="s3" d="m350.5 201.1l34.1 28 7.6 181.9c-19.6 5.3-42.7 0.3-49.1-32.1l-0.9-107.7-39.3 39.8 3.5 89.5c19 42.5 28.1 42.9 89.5 61.3 7.2-16 17.7-27.6 33.5-34.9l-4.8-207.3 40.3 0.9-0.2 206.5c13.2 4.2 20.6 17.7 28.3 36.2 43.7-4.8 75.7-19.1 99.1-64l-3.8-94.9-39.1-35.3 0.3 108.5q-11.9 36.8-41.2 35.1l-4.7-182.9 38.1-29.7 273.3 268-32 32.2-145-143.3-1.7 113c-25.5 112.1-99 115.3-176.5 111 16.4 16.2 28.9 34.4 39.6 53.4 22.5-10.5 45.9-18.9 71.2-20.8 22.1-6.7 44.2-19.6 66.4-43.6 9.3 149.6-45.6 186.9-183.5 186.7-111.6-0.2-195.4-17.4-186.5-187.3l36.3 27c8.1 11.7 40.3 21.6 64.8 23.8 14.5 1.2 24.6 9 34.6 12.9 10-19.3 25-36 40.7-52.4-129.4 9-176.1-47.9-181.4-126.4-1.9-29-1.2-61.4-2.2-96.4l-146 141.3-27.3-28.1zm72.7 507.8c-13.3-23.5-30-34.7-43.7-38.9-22.1-6.7-46-13.4-69.1-28.6 8.1 51.6 44 73.7 112.8 67.5zm4.7-54.8l21.5 26.3 20.1-26.2-20.6-27zm162.4-13.1c-23.2 15.1-47.1 21.8-69.2 28.5-13.7 4.2-30.4 15.5-43.7 38.9 68.8 6.2 104.7-15.8 112.9-67.4zm-167.1-103.8c-13.3-23.5-30-34.8-43.7-38.9-22.1-6.7-46-13.4-69.2-28.6 8.2 51.6 44.1 73.7 112.9 67.5zm4.7-54.8l21.5 26.3 20.1-26.2-20.6-27zm162.3-13.1c-23.1 15.1-47 21.8-69.1 28.5-13.7 4.2-30.4 15.5-43.7 38.9 68.8 6.2 104.7-15.9 112.8-67.4z"/>
	<path id="Path 11" class="s2" d="m259.8 357.8l-145.5 141.7-27.8-28.5 264-269.9 34.1 28z"/>
	<path id="Path 12" class="s1" d="m135.7 700.9l38.5-11.7c1.7-0.5 3-0.7 3.6-0.5 1.3 0.4 2.2 1.7 2.9 3.9l3.4 10.9q1 3.3 0.1 4.5-1 1.3-3.5 2l-33.5 10.3c-3.8 1.1-6.1 2.8-7.1 5.2-0.8 1.8-0.8 3.9-0.1 6.3 1.1 3.4 3.1 5.4 6.2 5.9 2.2 0.3 4.8 0 7.8-0.9l31.9-9.8q2.6-0.8 3.6-0.5c1.3 0.5 2.3 1.8 2.9 4l3.4 11c0.7 2.1 0.7 3.6 0.1 4.4q-1 1.2-3.5 2l-89.2 27.2c-2.1 0.7-3.6 0.7-4.4 0.1q-1.2-1-2-3.4l-3.4-11.1c-0.7-2.1-0.7-3.6-0.1-4.4q0.9-1.2 3.5-2l28.1-8.6q1.5-0.4 1.2-1.3c-1.4-1.6-2.9-3.6-4.5-6-1.6-2.4-2.7-4.9-3.5-7.5q-2.9-9.3 0-16.4 3.9-9.4 17.6-13.6zm-11.5 119.1l72.5-58.4q2.1-1.6 3.1-1.7 2-0.1 4.1 2.5l30.6 37.6q2.1 2.6 1.7 4.1-0.4 1.5-2.5 3.1l-8.1 6.6c-0.9 0.7-1.8 0.9-2.8 0.7-0.9-0.1-1.9-0.8-2.9-2l-18.7-23q-1.7-2.1-3.5-0.6l-12.1 9.7q-2.1 1.7-1.1 3l14.7 18c0.7 0.8 1 1.6 1 2.4 0 0.8-0.3 1.5-1 2l-10.5 8.4q-2.3 1.9-4.1-0.4l-14.8-18.2q-1.2-1.5-3.2 0.1l-16.3 13.2c-1 0.7-1.1 1.5-0.4 2.3l21 25.8q1.5 1.9 1.3 3.1-0.3 1.2-1.7 2.3l-8.1 6.5q-2 1.6-3.1 1.7-2 0.1-4.2-2.5l-31.7-39q-1.7-2.1-1.8-3.1c-0.1-1.4 0.8-2.8 2.6-4.2z"/>
	<path id="Path 13" fill-rule="evenodd" class="s1" d="m249.9 810.8l23.4 13.3q19.3 10.9 21.3 25.5c0.9 6.4-0.7 13.1-4.7 20.2q-7.5 13-19.8 14.7-12.3 1.7-26.2-6.2l-8.2-4.7c-1.3-0.7-2.3-0.5-3.1 0.8l-17 29.7c-1.1 1.9-2.2 3-3.2 3.1q-1.6 0.1-3.9-1.2l-10-5.7c-1.5-0.9-2.5-1.6-2.8-2.3-0.6-1.2-0.3-2.8 0.9-4.7l46.2-80.6q1.4-2.3 2.3-2.8 1.9-0.8 4.8 0.9zm-5.2 45.9l7.5 4.2q4.9 2.8 9.9 1.8 5.1-0.9 7.7-5.5 2.5-4.3 1.5-8.3-1.2-4.9-7.5-8.5l-7.1-4c-1.1-0.7-2-0.4-2.6 0.7l-10.1 17.5q-0.7 1.3 0.7 2.1z"/>
	<path id="Path 14" fill-rule="evenodd" class="s1" d="m278.5 933.4l28.6-89.5q0.7-2.4 1.9-2.9c0.9-0.3 2-0.2 3.5 0.3l27.3 8.5q16.2 5.2 22 15.2c3.4 5.9 4 12.5 1.7 19.7-1.5 4.4-3.9 8.1-7.2 10.8-3.4 2.8-7.6 4.3-12.6 4.8l-0.1 0.5c4.8 3.5 8 7.9 9.6 13.2q2.5 8.1-0.3 17.1c-2.7 8.2-7.1 14-13.4 17.4q-11 5.9-28.1 0.5l-30.2-9.5c-2.8-0.8-3.7-2.9-2.7-6.1zm46-47.4q6.6 2.1 10.8 0.4c2.7-1.2 4.5-3.1 5.4-5.8 0.8-2.6 0.6-5-0.5-7.1q-2.4-4.2-9.8-6.5l-4.5-1.5q-2.5-0.7-3.2 1.2l-4.8 15.3c-0.4 1.1 0.3 2 2.1 2.6zm-19 41.1l6.5 2.1q7.5 2.3 12.3 0.1c3.3-1.5 5.5-4 6.6-7.5q1.7-5.1-0.6-9.6c-1.9-3.4-5.4-6-10.5-7.6l-6.1-1.9q-1.5-0.5-2.1 0.1c-0.4 0.4-0.7 0.9-0.9 1.5l-6.5 20.5c-0.4 1.2 0 1.9 1.3 2.3zm63.3 26.8l10.1-92.2q0.3-2.7 1-3.5c0.9-1 2.5-1.3 4.7-1.1l48.3 5.3q3.4 0.3 4.2 1.7c0.4 0.9 0.6 2.2 0.4 4l-1.1 10.3q-0.2 1.6-1.4 2.5c-0.8 0.5-2 0.7-3.6 0.6l-29.6-3.3q-2.6-0.3-2.9 2.1l-1.7 15.4q-0.3 2.6 1.4 2.8l23.2 2.5q1.5 0.2 2.4 1 0.9 0.9 0.7 2.1l-1.5 13.4q-0.3 2.9-3.2 2.6l-23.4-2.6q-2-0.2-2.2 2.3l-2.3 20.8q-0.2 1.7 1.4 1.9l33.1 3.6q2.6 0.3 3.2 1.3 0.6 1.1 0.4 2.8l-1.1 10.3c-0.2 1.7-0.5 2.9-1 3.4q-1.3 1.5-4.7 1.1l-50.2-5.4c-1.8-0.2-2.9-0.5-3.5-1q-1.5-1.3-1.1-4.7zm88.3-91.5l11.5-0.8q3.4-0.2 4.4 0.9 0.9 1.3 1.2 3.9l2 28.3q0.1 1.4 0.5 2.1c0.4 0.4 1 0.6 2 0.5l16-1.1q0.8-0.1 1.1-0.2 1.3-0.9 1.1-3.1l-2.1-28q-0.2-2.7 0.4-3.6 1-1.7 4.4-1.9l11.5-0.9q3.4-0.2 4.4 1 1 1.1 1.2 3.8l6.8 92.5q0.2 2.7-0.4 3.6-1 1.7-4.4 2l-11.5 0.8c-2.3 0.2-3.7-0.2-4.4-0.9q-1-1.2-1.2-3.9l-2.8-38.5c-0.1-1.5-1-2.2-2.5-2.2l-16.1 1.2q-2.2 0.2-2.1 2.4l2.9 38.6c0.1 2.3-0.2 3.7-1 4.4q-1.2 1-3.8 1.1l-11.6 0.9c-1.7 0.1-2.9 0-3.6-0.3-1.1-0.8-1.7-2.2-1.9-4.5l-6.8-92.5q-0.2-2.7 0.4-3.6 1-1.7 4.4-2zm153.8-28.6q1.9-0.6 2.5 0.2c0.4 0.6 0.7 1.2 0.9 1.8l4.1 12.6c0.7 1.9 0.1 3.1-1.6 3.6l-32.9 10.7c-1.3 0.4-1.8 1.1-1.5 2.2l4.4 13.3c0.4 1.3 1.1 1.8 2.1 1.4l6.5-2.1q21.6-6.9 34.6 1.7c5.9 3.9 10.1 9.8 12.7 17.7q4.5 13.9-2.1 25.9-6.6 12-23.3 17.4l-25.2 8.1c-2.2 0.7-3.8 0.6-4.9-0.3-0.6-0.4-1.1-1.4-1.7-3l-28.8-88.2c-0.5-1.5-0.6-2.8-0.4-3.8 0.3-1.1 1.5-2 3.8-2.7zm-17 66.2l7.5 23.1q0.6 1.8 2.4 1.2l7.1-2.3c3.8-1.2 6.7-3.5 8.5-6.8q2.7-4.9 0.9-10.6-1.9-5.9-6.8-8.6c-3.2-1.8-7-2-11.3-0.6l-7 2.3q-1.9 0.6-1.3 2.3z"/>
	<path id="Path 15" fill-rule="evenodd" class="s1" d="m629.1 826l22.5-14.6c12.5-8 23.3-10.4 32.6-7.1q9.2 3.2 15.9 13.4 8.2 12.6 4 24.3-4.1 11.6-17.5 20.3l-8 5.1c-1.2 0.8-1.4 1.8-0.6 3.1l18.7 28.6q1.8 2.8 1.3 4.3-0.6 1.4-2.8 2.8l-9.7 6.3q-2.3 1.5-3.3 1.4c-1.4-0.1-2.6-1-3.9-2.9l-50.8-77.8c-1-1.5-1.4-2.6-1.4-3.3 0.1-1.4 1-2.6 3-3.9zm38.5 25.6l7.3-4.6c3.1-2 5.2-4.7 6.1-8 1-3.2 0.6-6.4-1.4-9.3-1.8-2.8-4-4.5-6.7-5.1q-5-1.2-11.1 2.7l-6.8 4.4c-1.1 0.7-1.2 1.6-0.6 2.7l11.1 16.9q0.8 1.2 2.1 0.3z"/>
	<path id="Path 16" fill-rule="evenodd" class="s1" d="m697 760.5l12.5-24.3q1.5-2.9 3.1-3.2 1.5-0.2 3.9 1l82.9 42.5q3 1.5 3.2 3.1c0.2 1-0.2 2.3-0.9 3.8l-5.3 10.2q-1.6 3.1-3.1 3.2-1.6 0.3-3.9-0.9l-32.6-16.7q-1.6-0.8-2.4 0.6l-1.3 2.5q-0.9 1.8 0.4 3.7l26.2 33.1q1.2 1.4 1.4 2.6 0.2 1.2-1.2 3.8l-7 13.6q-1.7 3.1-4.7 1.6c-0.4-0.3-0.9-0.7-1.5-1.3l-26.8-35.1q-1-1.3-1.8-1.7-0.8-0.4-2.4 0.8-2.7 2-3.8 2.6c-4.7 2.2-9.5 3.2-14.3 2.8-3.8-0.3-7.6-1.4-11.3-3.3-6.7-3.4-11.3-8.7-13.6-15.6-2.8-8.6-1.4-18.4 4.3-29.4zm39.5 8.3l-15.6-8c-1.5-0.8-2.6-0.4-3.4 1.1l-2.9 5.8c-2.2 4.2-2.7 7.8-1.6 11.1q1.4 4 5.5 6.1c3 1.6 6.1 1.7 9 0.5 3-1.2 5.4-3.7 7.3-7.4l3.1-5.8q1.1-2.1-1.4-3.4zm-22-50l6.1-48q0.3-2.4 1.2-3.6 0.9-1.2 2.1-1l13.2 1.6q3.6 0.5 3.1 3.8l-3.9 30.9q-0.3 1.9 1.7 2.1l76 9.6q3.7 0.5 4.5 1.5 0.7 1 0.4 3.2l-1.7 13.6q-0.2 1.7-1.4 2.8-1.2 1-3.7 0.7l-93.8-11.9q-2.2-0.3-3.1-2c-0.6-1.2-0.8-2.3-0.7-3.3z"/>
	<path id="Path 17" class="s4" d="m450.4 1024.1c-113.1 0-225-27-308.7-86.3-83.7-59.3-139.2-150.9-139.1-279.3v-658.5h895.7v658.5c0 128.4-55.5 220-139.2 279.3-83.7 59.3-195.6 86.3-308.7 86.3v-1.3-1.3c112.7 0 224.1-27 307.2-85.8 83.1-58.9 138-149.5 138.1-277.2v-655.9h-890.6v655.9c0.1 127.7 55 218.3 138.1 277.2 83.1 58.8 194.5 85.8 307.2 85.8v1.3z"/>
	<path id="Path 18" class="s2" d="m503.6 229.7l38.1-29.8 273.7 268.2-32.3 32-146.3-144.3z"/>
</svg>