<svg version="1.2" xmlns="http://www.w3.org/2000/svg" viewBox="0 0 537 818" width="537" height="818">
	<title>Aksakovo-cdr</title>
	<defs>
		<linearGradient id="g1" x1="691.8" y1="1009.1" x2="691.8" y2="474.9" gradientUnits="userSpaceOnUse">
			<stop offset="0" stop-color="#c2e5e9"/>
			<stop offset="1" stop-color="#ffffff"/>
		</linearGradient>
		<linearGradient id="g2" x1="3309.5" y1="4654.3" x2="3309.5" y2="4193.8" gradientUnits="userSpaceOnUse">
			<stop offset="0" stop-color="#067ac2"/>
			<stop offset="1" stop-color="#c1e4e9"/>
		</linearGradient>
	</defs>
	<style>
		.s0 { fill: url(#g1);stroke: #0646a5;stroke-width: 1.2 } 
		.s1 { fill: #0646a5 } 
		.s2 { fill: url(#g2);stroke: #0646a5;stroke-width: 1.2 } 
		.s3 { fill: #ffeb3d } 
		.s4 { fill: #b42a24;stroke: #ffffff;stroke-width: .9 } 
		.s5 { fill: #00ab4f;stroke: #ffffff;stroke-width: .9 } 
		.s6 { fill: #ffea3d } 
	</style>
	<g id="Group 1">
		<g id="Group 2">
			<path id="Object 3" class="s0" d="m379.4 473.9c-7.1-78-46.7-110-109.2-111.7-65.1-0.4-118.3 51-112.4 112.1-5.3-2.8-10.8-4.4-16.1-5.4q1.5-0.9 2.5-2c-9.8-13.1-71.2-9.7-141.4-3.5v-280.7l530.6 0.1-0.4 278.9c-70.2-6.2-131.8-9.6-141.5 3.5q1.8 2.1 5.7 3.6c-6.1 0.7-12.1 2.3-17.8 5.1z"/>
			<path id="Object 4" fill-rule="evenodd" class="s1" d="m-0.1 0.3h61.1l0.1 38.4h58.1v-38.4h61v38.7l58.2-0.3v-38.4h61v38.7l58.5-0.3-0.3-38.4h61l0.7 38 57.1-0.7v-37.3h60.3v171.8h-536.8zm87.4 137.4l-29.9-68.4-29.7 68.4h10.5l7.1-17h24.3l7 17zm-30.9-43.8q0.4-1.5 0.8-3.1 0.1-0.3 0.2-0.7 0.1-0.4 0.2-0.8 0.5 1.9 1 3.8 0.5 2 1.2 3.8l6.4 15h-17.1l6.2-15q0.6-1.5 1.1-3zm47.6 43.8v-33.6l24.4 33.6h13l-27.4-36.6 24.5-29.2h-12.4l-22.1 27.2v-27.2h-10v65.8zm95.2-60.5q-4.7-3.2-9.5-5-4.7-1.7-10-1.7-0.7 0-1.6 0-0.8 0-1.7 0.1-0.2 0-0.5 0.1-0.3 0-0.6 0-12.6 1.4-20.6 11.3-8.1 9.9-8.1 22.9 0 0.5 0 0.9 0 0.4 0.1 0.7 0 0.5 0 0.9 0 0.4 0 0.8 1.3 14.6 11.1 22.8 9.7 8.2 21.6 8.2 1.5 0 3.1-0.2 1.6-0.1 3.2-0.3 3.3-0.7 6.7-2 3.3-1.3 6.3-3.5v-12.1q-4.3 3.6-9.2 6.1-4.9 2.4-10.3 2.4-0.8 0-1.6-0.1-0.8-0.1-1.6-0.2-0.9-0.2-1.7-0.4-0.8-0.1-1.6-0.3-7.4-2.4-11.3-8.8-3.9-6.3-4.3-13.6 0-0.3 0-0.6 0-0.3 0-0.7 0-0.3 0-0.5 0-0.3 0-0.6 0.3-7.8 4.8-14.6 4.5-6.9 12.9-8.5 1.4-0.2 2.6-0.3 1.3-0.1 2.5-0.1 5.2 0 9.8 1.9 4.7 2 9 5.7zm65.2 60.5l-29.9-68.3-29.7 68.3h10.5l7.2-17h24.3l6.9 17zm-30.9-43.8q0.5-1.5 0.8-3.1 0.1-0.3 0.2-0.6 0.1-0.4 0.2-0.8 0.5 1.9 1 3.8 0.5 1.9 1.2 3.7l6.4 15h-17.1l6.3-15q0.6-1.5 1-3zm47.6 43.8v-33.6l24.4 33.6h13l-27.3-36.5 24.4-29.3h-12.4l-22.1 27.2v-27.2h-10v65.8zm107.3-25.9q0.6-3.2 0.6-6.5 0-8.5-3.9-16.4-3.8-7.9-10.7-12.7-2.7-1.9-5.7-3.2-3.1-1.2-6.3-1.8-1.5-0.3-3.1-0.5-1.6-0.2-3.1-0.2-8.8 0-16.7 4.7-7.9 4.7-12.4 13.4-1.1 2.4-2 5-0.9 2.6-1.3 5.1-0.3 1.5-0.4 3-0.2 1.5-0.2 3 0 9.3 4.7 17.6 4.6 8.3 12.8 13 2.8 1.6 5.9 2.5 3.1 0.9 6.3 1.2 0.8 0.1 1.6 0.2 0.7 0 1.5 0 9.6 0 18.2-5.5 8.6-5.5 12.5-15.6 1.1-3.1 1.7-6.3zm-54.4-2.6q0-0.3-0.1-0.6 0-0.3-0.1-0.6 0-0.2 0-0.6-0.1-0.5-0.2-1 0-0.6 0-1.1 0-9 5.8-16.5 5.7-7.5 14.5-8.5h2.1q9.4 0 16 7.4 6.6 7.3 6.6 17.3 0 9.8-6.5 17.1-6.4 7.4-15.9 7.4-8 0-14.2-5.7-6.3-5.7-7.9-14.1 0-0.2-0.1-0.5zm81.8 28.5q1.3 0 2.7 0 1.4-0.1 2.8-0.2 2.7-0.2 5.2-0.9 2.6-0.7 4.7-2.1 3.3-2.3 4.9-6 1.7-3.6 2-7.6 0-0.3 0-0.6 0-0.3 0-0.6 0-0.4 0-0.6 0-0.3 0-0.6-0.3-5.2-3.2-9.9-2.8-4.7-8.2-5.8 4.4-1.7 6.5-5.8 2.1-4 2.1-8.6 0-0.2 0-0.4 0-0.1 0-0.3-0.2-3.7-1.6-7-1.5-3.3-4.3-5.5-2-1.7-4.5-2.3-2.4-0.7-5-0.9-1.1-0.1-2.2-0.1c-0.7 0-18.2 0-18.9 0v65.8zm11.9-19.3q0 6.3-3.9 8.2-3.8 2-8.5 2.2-0.7 0.1-1.4 0.1-0.6 0-1.3 0-0.4 0-0.9 0-0.4 0-0.9 0-0.1 0-0.2 0 0 0-0.1-0.1-0.5 0-1 0-0.5 0-1 0v-21c0.4 0 5.4 0 5.8 0q0.7 0 1.3 0 4.6 0.2 8.3 2.1 3.8 1.9 3.8 8.2zm-5.6-20.6q-3.2 1.6-7 1.9-0.7 0.1-1.4 0.1-0.7 0-1.4 0-0.5 0-1 0-0.5 0-0.9-0.1-0.5 0-1 0-0.4 0-0.9 0v-18.9c0.1 0 3.9 0 4 0q0.2 0 0.4 0 4.7 0.1 8.6 1.7 3.8 1.6 3.8 7.8v1.1q-0.1 4.7-3.2 6.4zm88.9 14q0.6-3.2 0.6-6.5 0-8.5-3.9-16.4-3.8-8-10.7-12.7-2.7-2-5.8-3.2-3.1-1.2-6.2-1.8-1.5-0.4-3.1-0.5-1.6-0.2-3.1-0.2-8.8 0-16.7 4.7-7.9 4.7-12.4 13.4-1.1 2.3-2 4.9-0.9 2.6-1.3 5.2-0.3 1.5-0.5 3-0.1 1.5-0.1 3 0 9.3 4.6 17.6 4.7 8.3 12.8 13 2.9 1.6 6 2.5 3.1 0.9 6.3 1.2 0.8 0.1 1.5 0.2 0.8 0 1.6 0 9.5 0 18.2-5.5 8.6-5.5 12.5-15.6 1.1-3.1 1.7-6.3zm-54.4-2.6q0-0.3-0.1-0.6 0-0.3-0.1-0.6 0-0.3 0-0.6-0.1-0.5-0.2-1 0-0.6 0-1.1 0-9 5.7-16.5 5.8-7.5 14.6-8.5h2.1q9.3 0 16 7.3 6.6 7.4 6.6 17.4 0 9.8-6.5 17.1-6.5 7.3-15.9 7.3-8 0-14.3-5.7-6.2-5.6-7.8-14 0-0.3-0.1-0.5z"/>
			<path id="Object 5" class="s2" d="m3.9 484.1c4.6 1.4 13.2 1.1 22.2 5.1 11.2 5.1 25 13.7 43.3 16.7 11.4-1.7 22.4-5.6 32.9-11 10.9-5.6 21.7-9 32.6-10.8q17.3 1.4 36.1 11.3c9.4 5.4 20.2 8.1 31.5 9.8 11.1-1.4 21.7-4.7 31.9-9.9 12.4-7 23.7-10.1 34.2-10.5q16 1.7 33.4 10.4c12.2 6.3 22.7 9.3 32.1 10q13.7-1 34.4-10.5c10.8-5.5 21.7-9.1 32.5-9.9 9.2 0.1 21.2 4.1 35.1 10.8 11.8 6.2 22 9 31.1 9.6 8.7 0 21-4.2 36.3-11.7 12-5.3 23.2-8.8 30.6-9.4l-0.7 140.1c-0.1 12.7-19.9 85.7-116.9 114.8-64.9 17-116.1 41.6-147.2 77.4-34.7-38.9-111.7-69.2-173.9-86.6-53.4-21.5-84.8-64.8-91.5-115.5z"/>
			<path id="Object 6" class="s3" d="m533 464.8v3.1c-7.4 0.6-18.5 4.1-30.6 9.4-15.3 7.5-27.6 11.6-36.3 11.7-9-0.6-19.2-3.4-31.1-9.6-5.8-2.8-11.2-5.1-16.3-6.9 24.1 1.5 62.7-1.2 114.3-7.7z"/>
			<g id="Group 7">
				<path id="Object 8" class="s3" d="m501.7 376.1l2.5 9.2c-19.4 6.5-32.8 7-41.8 2.4z"/>
				<path id="Object 9" class="s3" d="m472.9 423.3c4.9-8.8 16.4-15.3 36.2-20.5l2.5 9z"/>
				<path id="Object 10" class="s3" d="m515.3 425.6l-96.7 26.1c-17.3-2.8-30.2-9.7-37.9-21.6 1.3-21.4 13-34.7 31.9-42.7l85.5-24.7 2.3 8.9-70.7 20.5q-1.9 14.9-22.3 31 21.3-0.8 36.5 13.3l68.7-20.1z"/>
				<path id="Object 11" class="s3" d="m481.2 405.5c-16.6 20.9-36.2 23.1-57.8 12.4q22.8-32.3 54.9-20.8l26.6-8 2.6 9.3z"/>
				<path id="Object 12" class="s3" d="m75.1 389.9c-9 4.6-22.4 4.1-41.8-2.4l2.5-9.1z"/>
				<path id="Object 13" class="s3" d="m25.9 414l2.5-9c19.8 5.2 31.3 11.8 36.2 20.5z"/>
				<path id="Object 14" class="s3" d="m24.9 418.5l68.7 20.1q15.2-14.1 36.5-13.3-20.4-16-22.3-31l-70.7-20.5 2.3-8.9 85.5 24.8c18.9 7.9 30.6 21.3 31.9 42.7-7.7 11.9-20.6 18.8-37.9 21.5l-96.7-26z"/>
				<path id="Object 15" class="s3" d="m29.9 400.7l2.7-9.4 26.6 8q32.1-11.5 54.9 20.8c-21.6 10.7-41.2 8.5-57.8-12.4z"/>
				<path id="Object 16" class="s3" d="m313.2 220.9l9.3 2.7c-4.6 19.7-11.2 31.2-19.8 36.4z"/>
				<path id="Object 17" class="s3" d="m338.9 269.7c-4.9-8.7-4.6-21.8 1.2-41.2l9.1 2.7z"/>
				<path id="Object 18" class="s3" d="m363.1 235.3l-28 95c-11.4 13-24.1 20.3-38.4 20.5-17.9-12.2-23.3-29-20.3-49.1l23.3-84.8 8.9 2.7-19.2 70.1q11.9 9.5 15.2 35 10.4-18.3 30.5-23.8l18.6-68.2z"/>
				<path id="Object 19" class="s3" d="m327.9 253.4c9.4 24.9 1 42.5-19.5 55.2q-16-36.1 10.7-57.1l7-26.6 9.4 2.7z"/>
				<path id="Object 20" class="s3" d="m430.7 272.9l6.8 6.7c-13.7 15.1-25.2 22-35.3 22.4z"/>
				<path id="Object 21" class="s3" d="m429 327.9c0-10 6.7-21.3 21.4-35.4l6.6 6.7z"/>
				<path id="Object 22" class="s3" d="m467.1 309.5l-68.1 66.3c25-15.7 66.8-34.7 111.5-54.3-73.8 54.3-120.7 81.7-134.9 76.8 0.7-5.1 6.8-11.3 17-18.3-15.1 4.8-28.7 4.6-40.5-1.6-9.6-19.2-6-36.6 6.5-52.6l62.3-62.9 6.4 6.6-51.4 52.1q5.7 14-4 37.8 18.1-11 38.4-6.1l49.9-50.7z"/>
				<path id="Object 23" class="s3" d="m427.4 308.3c-4 26.3-20 37.7-44.2 38.9q3.8-39.3 37.5-44.7l19.3-19.9 6.9 6.9z"/>
				<path id="Object 24" class="s3" d="m134.6 304.1c-10.1-0.4-21.5-7.3-35.2-22.3l6.7-6.8z"/>
				<path id="Object 25" class="s3" d="m79.8 301.3l6.6-6.7c14.7 14.1 21.4 25.4 21.4 35.4z"/>
				<path id="Object 26" class="s3" d="m76.6 304.7l49.9 50.8q20.3-5 38.5 6-9.8-23.8-4.1-37.8l-51.4-52 6.5-6.6 62.2 62.9c12.5 16 16.1 33.3 6.5 52.6-11.8 6.2-25.3 6.4-40.4 1.6 10.2 7 16.3 13.2 17 18.4-14.2 4.9-61-22.6-134.9-76.9 44.7 19.6 86.5 38.6 111.4 54.2l-68.1-66.3z"/>
				<path id="Object 27" class="s3" d="m89.9 291.6l7-6.9 19.2 19.9q33.7 5.5 37.5 44.7c-24.1-1.2-40.1-12.5-44.2-38.8z"/>
				<path id="Object 28" class="s3" d="m232.8 260c-8.7-5.2-15.3-16.7-19.8-36.5l9.2-2.6z"/>
				<path id="Object 29" class="s3" d="m186.3 231.2l9-2.7c5.9 19.4 6.2 32.5 1.3 41.2z"/>
				<path id="Object 30" class="s3" d="m181.8 232.7l18.5 68.2q20.2 5.5 30.6 23.8 3.2-25.5 15.1-35l-19.2-70.1 9-2.7 23.2 84.8q0.4 2.4 0.6 4.6c-1.2-26.2 1.5-66.9 7.7-120.4 8.2 74.8 14.2 143.1 0.4 153.6-4.3-3.6-6.9-13.4-7.9-29 0.4 16.2-5.9 29.9-21.1 40.3-14.3-0.2-27-7.5-38.4-20.5l-28-95z"/>
				<path id="Object 31" class="s3" d="m199.9 227.6l9.5-2.7 7 26.6q26.7 21 10.7 57.1c-20.6-12.7-29-30.3-19.5-55.2z"/>
				<path id="Object 32" class="s3" d="m410.2 218.1c-36.8 83.3-63.6 130-78.4 132.7-6.6-15.9 33.2-72 78.4-132.7z"/>
				<path id="Object 33" class="s3" d="m127.9 223.1c36.8 83.3 63.6 130 78.4 132.8 6.6-15.9-33.3-72.1-78.4-132.8z"/>
			</g>
			<path id="Object 35" class="s3" d="m2.8 466.6c47.1 5.8 83.3 8.6 107.6 7.9q-4.6 1.8-9.2 4.2c-10.5 5.4-21.4 9.3-32.9 11-18.3-3.1-32.1-11.6-43.3-16.7-9-4-17.6-3.7-22.2-5.1z"/>
			<path id="Object 36" fill-rule="evenodd" class="s4" d="m285.7 626.3c2.6-0.9 5.4-1.4 8.3-1.4 14.3 0 26 11.7 26 26.1 0 14.3-11.7 26-26 26q-2.8 0-5.3-0.5c4.1 4.6 6.7 10.7 6.7 17.4 0 14.4-11.7 26.1-26.1 26.1-14.3 0-26-11.7-26-26.1 0-6.9 2.7-13.2 7.1-17.9-2.2 0.7-4.6 1-7.1 1-14.4 0-26.1-11.7-26.1-26 0-9.4 5-17.6 12.4-22.2-3.7 2-7.9 3.1-12.4 3.1-14.3 0-26-11.7-26-26 0-7.8 3.5-14.9 9-19.7-2.6 0.9-5.4 1.4-8.3 1.4-14.4 0-26.1-11.7-26.1-26.1 0-14.3 11.7-26 26.1-26 12.3 0 22.6 8.6 25.3 20 2.8-11.4 13.1-20 25.4-20 8.3 0 15.7 3.9 20.4 9.9v-30.3h11.6v29.8c4.8-5.7 12-9.4 20.1-9.4 12.3 0 22.6 8.6 25.3 20 2.8-11.4 13.1-20 25.4-20 14.3 0 26 11.7 26 26 0 14.4-11.7 26.1-26 26.1q-3.7 0-7.1-1c4.8 4.7 7.8 11.3 7.8 18.6 0 14.3-11.7 26-26.1 26-12.6 0-23.2-9.1-25.5-21.1-0.9 6.4-4.1 12.1-8.8 16.2zm27.2-46.2c2.3-0.6 4.7-1 7.1-1 2.5 0 4.9 0.4 7.2 1-3.5-3.4-6-7.7-7.2-12.5-1.1 4.8-3.6 9.1-7.1 12.5zm-30.5 4.4c6 3.8 10.4 9.9 11.8 17.2 0.8-5.9 3.6-11.1 7.6-15.1-2.2 0.6-4.6 1-7.1 1-4.5 0-8.7-1.1-12.3-3.1zm-26.1-0.8c3.7-2 7.9-3.2 12.3-3.2 4.5 0 8.7 1.2 12.4 3.2-7.4-4.6-12.4-12.8-12.4-22.2 0 9.4-4.9 17.6-12.3 22.2zm-22 2.5c4.6 4 7.8 9.5 8.7 15.8 1.3-7.4 5.8-13.7 11.9-17.5-3.7 2-7.9 3.1-12.3 3.1-2.9 0-5.7-0.5-8.3-1.4zm-25.4-5c2.7-0.9 5.4-1.4 8.3-1.4 2.9 0 5.7 0.5 8.3 1.4-4-3.5-7-8.3-8.3-13.6-1.2 5.3-4.2 10.1-8.3 13.6zm55.8-33.4c2.5 4 3.9 8.7 3.9 13.7 0-5 1.5-9.7 4-13.7zm-21.8 62.7c-1.3 7.4-5.8 13.7-11.9 17.5 3.7-2 7.9-3.1 12.3-3.1 2.9 0 5.7 0.5 8.3 1.4-4.6-4-7.8-9.5-8.7-15.8zm25.8 34.4c1.2-5.3 4.2-10.1 8.2-13.6-2.6 0.9-5.4 1.4-8.2 1.4-2.9 0-5.7-0.5-8.3-1.4 4 3.5 7 8.3 8.3 13.6zm0.7 23q2.7 0 5.3 0.5c-2.9-3.2-5-7.1-6-11.4-1.1 4.5-3.4 8.6-6.5 11.9 2.3-0.7 4.7-1 7.2-1z"/>
			<path id="Object 37" class="s5" d="m99 623.6l49-29.7 40.1 8.9-7.1 74.4-40.1-39.7 1.9 38.6-37.3 11.9 4.5-57.6-20.2 25.5h-55l28.5-49.1 31.2-5.3-54-22.6 30.4-26.5 33.3 21-17-55.2 66.8 31.6-10.7 38.1-48 27.8z"/>
			<path id="Object 38" class="s5" d="m442 616.4l-47.9-27.8-10.8-38.1 66.9-31.6-17.1 55.2 33.3-21 30.4 26.5-54 22.6 31.2 5.3 28.6 49.1h-55.1l-20.1-25.5 4.4 57.6-37.2-11.9 1.8-38.6-40.1 39.7-7.1-74.4 40.1-8.9 49.1 29.7z"/>
			<path id="Object 39" class="s6" d="m364.6 473.6c-33.4 28.5-65.8 0.2-98.7 0.3-32.9 0.1-70.7 29.8-98.7 0.4 6.6 7.9-11-18.2 21.8-65.4 32.9-47.2 112.5-44.6 143.7-16.1 31.2 28.5 34.7 68.7 31.9 80.8z"/>
		</g>
	</g>
</svg>