<svg version="1.2" xmlns="http://www.w3.org/2000/svg" viewBox="0 0 612 617" width="612" height="617">
	<title>Lukovit-pdf</title>
	<style>
		.s0 { fill: #231f20 } 
		.s1 { fill: #d284b3 } 
		.s2 { fill: #3b5e6b;stroke: #231f20;stroke-width: 1 } 
		.s3 { fill: #fbca8e } 
		.s4 { fill: #796046 } 
		.s5 { fill: #f8a68e } 
		.s6 { fill: #ffffff } 
		.s7 { fill: #7b7f82 } 
		.s8 { fill: #ffffff;stroke: #231f20;stroke-width: .4 } 
		.s9 { fill: #d5253e } 
		.s10 { fill: #287146 } 
	</style>
	<path id="Path 1" class="s0" d="m308.3 578.9c-8.5-7.1-27-12.6-37.3-17.8-169.5-86.7-161.8-309.8-161.7-475.2 0-0.9 0.3-1.8 0.5-2.7 23.1 0 47-0.3 69.8-0.2 5.5-1.5 9.6-11.2 13.6-15.3 7 0 14.7 4.2 21.3 3.3 2.2-2.2 4.7-5.7 6.2-8.4-1.7-7.8-8.1-13.9-9.7-21.1 4.8-6.3 23.5-23 30.9-24 4.3 4 5.5 5.2 8.1 7.8 2.2 2.2 5.7 7.6 8.2 8.3 5.7-2 13.2-3.2 18.3-6.2 1.4-7.1-2-19.9 3.1-24.4 11.5-1.3 37-4.1 47.6-0.6 2.2 8.4-0.4 17.2 1.1 25.5 4.5 1.8 9.8 4 14.4 4.6 19.7-31.8 28.5-7 54 9.9 0 2.4-3.7 5.9-5.5 7.7-1.6 2.6-6.9 8.2-6.9 11.8 3 3.4 6.1 7.5 8.2 11.5 8.1 0.6 15.2-6.2 23.4-7.3 2.5 0.8 8.5 12.5 10.1 16 0.4 0.4 0.8 0.8 1.3 1.2 23.5 1.1 47.3 0.6 70.9 0.7-0.1 35.8 0.1 70.5 0.5 104.2 2.4 165.4-28 321.2-188.8 390.4-0.5 0-1 0.1-1.6 0.3z"/>
	<path id="Path 2" class="s1" d="m310.9 557.5c-171.3-67.1-189.6-262.7-183.3-410.4l354.6 0.1c0.6 69.6 3.3 210.2-51.7 303.2-31.7 53.3-74.2 95-119.6 107.1z"/>
	<path id="Path 3" class="s2" d="m328.2 509c-12.7-6.3-23.9-6.1-36.5-0.8l-67.3-68.1c15 0.4 22.5 3.2 37.2 5.5 23.4 3.7 37.8-7.2 72.3 0.2 36.4 7.8 38.2-8.8 59.8-9.8 1.5 3.3-56.8 68.6-65.5 73z"/>
	<path id="Path 4" class="s3" d="m284.5 495c-2-0.7-7.8-5.1-8.3-7.4 1.8 0.2 10.6-0.4 21.7-2.5 17.1-3.2 30.5 2.8 46.7 3.3 0 4.2-7.4 8.1-10.7 9.1-16.6-6.2-32-4.4-49.4-2.5zm-29.3-28.1c19.8 3.9 34.4 1 49.8-1.9 15.4-2.9 36.2 12.3 58.3 2.9-1.5 12.7-23.8 12-30.2 9.5-9.7-3.7-20-6.5-30.4-4.5-18.7 3.4-38 9-47.5-6zm-7.2-12.4c-6.4-3.7-13.7-7.5-15.2-11.4 9.1 1.2 19.7 5.3 26.2 7.4 20.2 6.4 36.3-6.2 55.1-2.5 9.2 1.8 20.2 4.8 26.2 5.3 19.8 1.7 30.2-6.6 46.8-13.7-17 21-33.7 26-49 22.8-15.2-3.2-24.9-6-34.3-4.5-22.2 3.5-36.5 7.8-55.8-3.4z"/>
	<path id="Path 5" class="s0" d="m259.6 423.5c-14.9-5.9-49.2 1.5-59.9-15.9 1.7-26.9 7.8-67.6 12.8-95.5-0.4-0.5-0.6-0.9-0.9-1.3-5.4 0.8-16.4 9.7-20.6 13.1q-0.8-0.3-1.6-0.6c-3.2-8.1-6-16.4-9.5-24.3 0-5.8 23.9-12.1 28.4-19.9 2.7-20.4 5.5-53 12.9-72.5 3.9-1.3 7.8-2.2 10.8-5.2 6-12.2 1.6-25.4 11.9-37.8 1.6-1.9 3.4-3.6 5.6-4.8 6.7-3.7 15.9 0 20.2 5.7 6.5 8.6 5.1 22.9 5.9 34.7 3.1 0 5.9-1.7 8.7-3 0.6-20.9 4.7-41.7 19.5-43.5 22.6-2.7 20.1 25.3 22.5 41.2 2.3 1.1 5.2 4.2 9.5 3.1 1.6-14.8 2.3-37.1 17.8-38.4 20.7-1.7 22.4 32 23.2 46.9 2 5.3 12.1 5 16.3 9.2 3 16.2 4.2 32.6 7.4 48.6 0.1 1.7 0.1 3.5 0.3 5.2 3.2 16.2 16.6 16.4 24.9 28-0.6 5.7-8.4 23.6-10.1 29.5-5.5-0.9-8.2-8.2-13.8-9.8 1.6 29.9 7.1 61 8.4 88.7-3.7 9.2-34.2 12.4-44.2 13.2-15.6 26.8-96.2 16.3-106.4 5.4z"/>
	<path id="Path 6" class="s4" d="m273.8 408.5c2.8-15.1 5.1-87.1 8.8-95.4 1.9 1.5 6.1 3.5 8.2 5.3-4.1 26.2-4.6 53.6-5.9 80.1 10.2 3.8 40.4 6.2 49.2-0.8-1.9-25.5-3.5-52.6-4.1-79 1.9-0.9 5.8-3.8 8-3.3 4.2 26.1 3.6 67.9 7.1 94-25.5 8.6-56.1 3.6-71.3-0.9zm-18.8-0.4c-20.9-5.9-43.8 1.5-38.1-21.7l5.1-30.5 6.8-45.5c2.7-0.5 5.3 0.3 8 0.8-1.1 26.3-7.7 52.1-10.5 78.2 3.1 5.7 21.5 5.7 26.6 5.5 6.5-22.5 8.1-70.1 11.8-93 3.1 0 5.7 1.6 7.5 4.2-3.6 15.3-2.9 101.5-17.2 102zm102.1-4.1c-1.6-2.7-7.5-81.4-10.7-93.1 1.6-2.2 4-6.9 7.4-6.1 6.1 20.7 9.1 71.6 11 87.6 7.4-1.8 15-3.3 22-6.1 2.4-13.1-7.3-57.5-7.3-74.8 2.4-0.8 4.7-2.3 7.3-2.3 4.4 28.2 7.1 57.4 8.7 84.8-12.7 6.1-25.8 5.6-38.4 10z"/>
	<path id="Path 7" class="s3" d="m258 292c-5.2-2.2-19.2-2.5-23-2.4 0.9-6.7 2.8-12.6 4.5-18.9 31.8-12 46.9 33.5 82.9 19.5 16.3-5.8 30.3-24.8 48.4-24.8 2.6 6.8 2.7 16.7 3.4 24.2 0.3-1.4-15 4-25.1 10.6-25.6 16.6-67.1 15-91.1-8.2zm154.3 25c-5.7-2.9-13.3-9.9-17.9-14.7 2.7-5.4 6-11 6.2-17.6 5.2 0 16.1 9.1 19.3 12.8-0.8 6.4-3.6 13.5-6.5 19.3-0.4 0-0.8 0.1-1.1 0.2zm-219.5-0.4c-2.6-1.7-7-14.7-7-17.6 6.2-3 14.4-9.2 21.1-10.1 1.8 2.3 2.2 6.2 3.5 9 1.1 1.7 2.3 3.4 3.6 5.1-0.2 0.3-0.4 0.6-0.5 0.9-7.1 3.9-14 8.2-20.7 12.7z"/>
	<path id="Path 8" class="s5" d="m377 307.6c3.3-6 4.9-13.4 4.8-20 3.3-1.3 10.4-4.9 13.7-3.8 0.4 8.7-8.2 25-18.5 23.8zm-164.9-16.9c10.2-1.2 24.3 6.9 24.9 17.8-8.4 1.9-23.8-8.9-24.9-17.8z"/>
	<path id="Path 9" class="s3" d="m229.5 291.1c-3.5-1.3-13.2-4.2-14.8-7 0-22.7 9.4-46.9 11.3-69.7 1.5-5.3 5.5-5.1 9.2-6.5 3-1.1 5.5-4.5 9-3.3-0.2 8.8-0.9 13.4-0.8 13.8 6.1 2.2 14.4 2.8 21 3.1 0.9-7.9 1.4-8.9 2.1-13.9 4.1-1 6.6-0.8 7.1 3.4-1.4 6.7-2 13.4-2.8 20-0.2 0-0.5 0-0.7 0.1-2.5 9-8.8 10.3-12.1 1.5-0.9 0-1.9 1.6-3.3 2.7-7.3 5.9-10.2 0-13.9-3-4 7.8-7.7 55.6-11.3 58.8z"/>
	<path id="Path 10" class="s5" d="m326.6 270.2c3.3 0 13.6-0.8 16.1 0.9 0 13.4-36.3 19.4-16.1-0.9z"/>
	<path id="Path 11" class="s3" d="m378.5 284.3c-3.3-16.3-3.1-34.4-5.2-51.1-5.8 1-9.9 4.7-14.6-3.5-4 2.3-7.3 9.9-14.6 5.5-1.2-9.8-2.1-19.6-2.5-29.4 9.6-1.4 5 7.1 6.7 13.6 6.4 3.5 13.7 2.2 20.1 0.1 0.7-2.5 0.3-5.2 0.1-7.8 1.9-0.6 7.3 1 7.9 2.8 4 1.3 8.3 2.2 11.3 5.2 1.4 6.7 4 24.1 5.7 38.7 1.1 8.7 2.8 16.4 0.7 20.1-5 1.9-10.7 3.9-15.6 5.8z"/>
	<path id="Path 12" class="s5" d="m271.8 270.2c1.2-0.3 1.2-0.3 16.8 0 1.4 3.9 5.6 8.7 4.8 12.6-5.3 0.4-22.9-6.9-21.6-12.6z"/>
	<path id="Path 13" class="s3" d="m291.9 271.7c-0.2-0.5-0.4-1.1-0.2-1.6 5.9 0 18.4 0.3 30.1 0.3-5.6 16-27.5 9.5-29.9 1.3zm33.3-7.1c-0.5-1.6-0.9-8-2.1-17.1q-0.3-7.7-0.7-15.4c-0.4-0.1-0.7-0.2-0.9-0.3-3.3 6-14.7 0-14.9-4.6q-0.7 0-1.4 0c-4 7.6-7.8 6.6-14.2 6.8-0.8 10.5-0.8 21-3.2 31.3-5.7 1.5-11 1.1-17 0.2-0.6-17.3 6.7-41.8 8.6-59.8 4.7-2.7 9.6-5.3 14.8-6.8 1.9 1.5 1.5 7.7 1.7 10.4 6.8-0.1 14.3 0.3 20.9-0.1 1.8-1.8 0.7-8.1 1.2-11.2 4.8 0 10.3 2.8 14.9 4.1 5.5 8.2 7.1 52.8 8.1 63.6-2.7 2.1-13.4 1.4-15.8-1.1zm-34.6 0.7c4.5-16.3 26.7-14.3 31.1-1.8 0.3 1 1.2 2.2 0.3 2.2-10.3-0.1-21.8-0.4-31.4-0.4z"/>
	<path id="Path 14" class="s5" d="m355.3 207.8c-5.6-2.8-8.2-7.5-7.8-13.8q0.6-0.2 1.1-0.3c6 5.1 9.8 5.6 16.4 1.1 0.2 1.1 0.4 2.4 0.5 3.6-1.3 4-2.2 6.5-5.7 8.8-1.5 0.2-3 0.3-4.6 0.6zm-90.8-12.4c-9.7 3.8-12.6 1.1-15.7-1.3-0.8-0.7-1.1-2.1-2.3-2.4-2.7 11 15.3 19.4 18 3.7zm32.9-3.6c-1.3-6.6-1.3-6.6-1-7.1 0.2 0 0.5 0 0.9 0 5.6 5.6 10.7 7.8 17.7 2.6 0.4-0.1 0.9-0.2 1.3-0.2-1.3 14.1-13.6 13.6-18.9 4.7zm53.6-0.1c-15.3-19.1 12.1-37 13.7-14.7 0.6 8 0.8 17.2-6 17.6-3.5 0.3-6.1-1.3-7.7-2.9zm-96.2 1.5c-16.7-5.9-5.5-37.1 8.6-23.6 7.8 7.4 3.1 23-8.6 23.6z"/>
	<path id="Path 15" class="s0" d="m356.8 189.8c-1.3-1.2-2.1-3.1-0.9-4.7 2.5 0 2.5 0 2.9 0.4 0 2.2 0.3 3.9-2 4.3zm-100.6-0.8c-1.6-1.6-0.8-2.6 0.1-4.7q0.8 0 1.6 0c0.8 1.7 0.3 2.2-0.1 4.1-0.5 0.2-1.1 0.3-1.6 0.6z"/>
	<path id="Path 16" class="s5" d="m307.6 186.8c-10.9-1.7-14.9-22.3-6.1-27 17.1-9 21.5 25 6.1 27z"/>
	<path id="Path 17" class="s0" d="m306.8 181.1c-0.9-0.9-0.5-2.7-0.5-3.9 1-1 1.8-0.6 3.2-0.5-0.2 2-0.5 4.1-2.7 4.4zm44.7-1.9c-1.2-1.2-1-2-1-3.9 3.2-1.2 6.9-2.1 10.3-1.3 0.6 1.6 0.6 1.6 0.6 3.8-2 1.3-7.1 0.7-9.9 1.4zm-99.7-2.8c0-0.9 0-1.7 0-2.5 2.1-0.1 2.1-0.1 10.8 0.9 0.4 1.5 0.4 1.5 0.2 3-3.4 0-8 0.3-11-1.4zm49-6q-0.3-1.5-0.5-2.9c3.7-1.3 7.6-0.6 11.5-0.4 0 1.5 0 2.7-0.6 4-0.8-0.3-8.3-0.6-10.4-0.7z"/>
	<path id="Path 18" class="s6" d="m352.6 136.9c-9.1-0.6-35.7-0.6-56.7-1-15.8 1.1-32-0.3-47.9 0.4-27.1-0.4-27.1-0.4-76.7-0.4-0.9 0.1-1.8 0.2-2.7 0.4-9-1.4-18.4 0.5-27.3-1.2-0.9-5.7-0.5-12-0.6-17.8 0.1-0.1 0.4-0.2 0.7-0.3-0.4-5.9 0.1-12-0.7-17.6q0.3-0.9 0.6-1.7c8.3-0.4 10.2 0 32.2-0.4 4.7 0.4 149.1 0.4 217.4 0.7 5.4 0.4 5.4 0.4 31.5-0.2q0 0.4 0 0.8c4.6-0.2 9.2-0.5 13.9-0.8q0 0.4 0 0.8c9-0.1 18-0.3 27-0.4 0.2 12.1 2.1 25.9 0.1 38-1 0.5-1 0.5-8.3 0.5-2.7-0.4-13.9 0-49.6-0.4-2.5 0.4-12.4 0-21 0.4-0.3 0-29.2-1.7-31.9 0.2z"/>
	<path id="Path 19" class="s7" d="m355.4 83.7c-36.3-38.1-83.2-20.7-97.1 0-11.7-0.3-35.6 0.1-36.1-0.1 3.4-10.7 12.7-12.7 10.8-21.7-1.1-5.2-4.1-10.9-6-15.9 3-4.7 10.5-10.3 15.6-11.8 2.6 2.2 11.1 10.1 11.8 12.9 5.5 3 29-8.9 34.2-11.5 2.6-23.2-2-19.3 23.5-20.2 4.1 4.8 2.7 13.8 4 20.9 4.2 4.3 25.1 8.1 31.4 9.9 6.6-1.1 8-13 12.1-15.7 4.3 0.6 18.2 11.7 18 17.1-0.1 3.2-2.7 7.1-8.7 13.3 3.5 3.4 18.5 18.2 17.3 23.2-10 0.5-20.6-0.4-30.8-0.4z"/>
	<path id="Path 20" class="s8" d="m125.3 96.4h357.1v42.7h-357.1z"/>
	<path id="Path 21" class="s6" d="m303.5 128.3c-1.5-0.7-2.9-1.3-4.2-1.9-3.4-5.7-3.3-10.4-1.7-16.8 5.1-6.7 14.1-3.3 16.1 3.9 0.1 2.2 0.3 4.3 0.5 6.4-2.8 5.7-4 8-10.7 8.4zm42-14c-1.6-1.6-1.4-5.4-0.4-7.3 3.8 0 7.7-0.9 10.6 1.6-0.9 6.7-3.3 5.6-10.2 5.7zm-69.1-29.9l-1.5-0.4c4.8-20.5 58.6-19.2 62.8-0.3-19.9 1.2-40.9 0.4-61.3 0.7z"/>
	<path id="Path 22" class="s7" d="m399.9 84.4c-0.3-0.2-0.6-0.3-0.8-0.4 0-0.3 0.1-0.7 0.2-1 4.6-1.5 7.6-3 9.6-3.3 1.9 0.6 3.7 2.5 3.4 4.7-4.2 0-8.4 0-12.4 0zm-198.9-0.4c-2.1-0.8-2.1-0.8-2.5-1.5 0.9-2.5 0.9-2.5 1.3-2.8 5.3 1 5.3 1 12.1 3.2 0 0.1 0 0.4 0 0.7-3.7 0.1-7.3 0.2-10.9 0.4z"/>
	<path id="Path 23" class="s4" d="m256.8 240.5c3.2 5.4 4.9 5.1 9.8 2.2l-2.1 21.6c-8.3-4.6-13.5-4.9-22.1-2.7l1.8-21.1c6.3 3.4 7.6 1.7 12.6 0zm50.6-6.8c3.4 4.8 3.5 4.1 9.4 4.8l0.7 15.7c-8.5-6.8-11.9-7.1-21.4-0.1l0.9-15.3c4.4-0.7 8.6-1.8 10.4-5.1zm50.3 1.7c3 5.5 5.2 4.5 10.9 2.2l1.1 23.9c-8-1.5-11.9-1.7-20.6 4.1l-1.6-25.2c6.6-0.6 6.2-0.1 10.2-5z"/>
	<path id="Path 24" class="s9" d="m330.2 346.1l0.2 4.2c-16.8 1.7-25.1 3.2-42.3-0.7l0.3-3.9c15.1 3.6 26 3.7 41.8 0.4zm1.3 17.6l0.3 3.8c-16.6 2.5-27.9 3-44.6 0l0.3-4.1c14.9 3.2 28.7 3.4 44 0.3zm-0.5-8.7l0.2 2c-15.9 2.7-26.7 3.1-44.1 0.3l0.2-1.8c15.2 2.1 28.6 2 43.7-0.5zm-72-14.2v3.9c-9-1.3-14.5-0.8-23.9-5.1l0.3-3.8c8 3.9 14.6 5.3 23.6 5zm-0.7 15.7l-0.3 3.1c-9 0.6-16-0.8-25.4-3.9l0.9-3.4c7.6 3.7 15.1 5.4 24.8 4.2zm-0.1-7l0.1 1.7c-9.1-0.2-14.9-0.4-24.2-4l0.2-1.8c8.2 3.6 15.4 5.1 23.9 4.1zm124.1-7.4l0.5 3.1c-7.6 1.3-13.1 3.5-21.7 2.5l-0.3-2.7c7.3 1.3 14.3 0.1 21.5-2.9zm1.8 13l0.6 2.6c-7.1 2.9-14 3.1-22.3 3.2l-0.2-2.7c7.1 0.9 14.4 0.5 21.9-3.1zm-1-6l0.4 1.5c-7.4 2.2-13.4 4-21.8 3.5v-1.5c7.5 0.7 14.9-0.5 21.4-3.5z"/>
	<path id="Path 25" class="s3" d="m347.3 416l0.3 2c-27.1 6.4-45.6 7-75.6-0.5l0.4-1.9c26.1 6.8 49 7 74.9 0.4zm-90.8-4.8l-0.1 1.9c-17.6 0.8-27.7-1-42.4-8.3l0.5-1.8c13.7 6.7 26.5 9.4 42 8.2zm139.7-13.8l0.7 1.8c-14.5 8-23.8 10.6-39.1 10.1l-0.2-1.9c14.1 0.5 26-2.5 38.6-10z"/>
	<path id="Path 26" class="s10" d="m35.2 210.6c-22.8-39.8-14.8-74.9 13.9-110.9 23.9 39.8 17.4 77.3-13.9 110.9z"/>
	<path id="Path 27" class="s6" d="m45 114.5c-20 25.6-25 62.2-8.8 91.1z"/>
	<path id="Path 28" class="s10" d="m35.5 207.2c9-15.5 18.4-25.5 33.3-36.7 0.7 9.6 0.3 19.4 2.2 28.9 0.5 2.6 8.7-1 10-1.4 0.5 11.8 3.8 24.3 1.7 35-1.2 5.4-8.8 9.9-7.2 15.2 8 26.1 14.4 46-0.6 71.6-2 3.4-4.9 6.2-6.8 9.6-2.1 3.7 1.1 5.8 3.4 8.7 3.3-5.3 5.5-9 10.1-13.2 18.3 27 21.4 36.5 11.6 64.1-3.6 10 0.4 19.7-7.2 28.5-2.4 2.8-4.7 6.1-5 9.8l-0.7 6.4c5.2-1.5 4.8-4.6 6.8-9.8 3.2 2.4 4 2.8 8.1 3.4-0.7-12.4 0.6-15.6 11.5-6.4 27.6 23 46.9 42.2 36 79 4.3 4.2 5.2 6.2 5.4 11.9 14.3 3.7 14.5 10.3 21.2 22.8 11.5 21.8 38.9 46 62.6 51.4-0.8 11.2 2.3 20.2-0.7 31.1-18.5-16.4-56.8-45.5-81.9-45.7-42.9-0.3-52.3-4.6-71.9-46.3-2.4-5.1-9.8-8.4-15.2-12.7-9.9-7.7-15.7-35-5.7-43.4-3.1-9.7-1.2-16.8 10.6-19.3-30.3-19.5-45.7-26.2-51.6-66.9-1.3-8.8-3.2-14.5-2.6-23.5 0.5-6.2 0.7-6.6 7.1-5.7-3.9-13.5-6.8-13.7-1.2-21.1 0.8-1.1-0.1-2.9 0.5-4.1 1.6-2.9 8.2-5.8 5.6-10.3-11.6-20-11.6-26.2-5.2-49.6 0.9-3.4-3-11.1-5.2-13.7-15-18.6-21.8-51.7-1.4-80.6l2-2.8c8.6 11.8 16.3 20.1 20.4 35.8z"/>
	<path id="Path 29" class="s6" d="m12.4 189.5c-10.1 26.7-4.1 43.4 7.8 66.5-0.9-22.9-5.2-43.8-7.8-66.5zm29.6 39.4l2.3 0.7c7.4-4.6 12.1-13.2 19.4-18.7 2.2-1.7 4.7-2.9 7.1-4.4-5.7 10.1-11 31.9-23.1 27.5-1.1-0.5-2.6-0.6-3.7 0-1.6 0.9-2.5 2.7-3.7 4l-7.5-9.8 5.8-1c-4.8-15.4 7.4-24.8 16.2-36-3.2 14.6-4.7 25.2-12.8 37.7zm2.5 11.6c3.7 4.1 2.9 8.5 3.3 14 12.8-9.5-1.1-20.5-3.3-14zm-17.6 23c-6.5 28-7.1 43.1 16.4 60.7zm33.6-8.8l-2.7 77.7c-10.9-25-20.4-55.6 2.7-77.7zm-36.6 77.7c-0.3 1.1 2.1 2.3 3.2 1.6 1.6-0.9 1.2-3.7 2.5-5 0.5-0.6 3 0.1 3.2 0.8 0.6 2.2-3.4 6.4-1.2 6.1 17.7-2.4-3.2-22.4-7.7-3.5zm-1.1 10.9c2.5 11.6 3.6 17.5 17.8 16.9-6.2-7-9.9-11.9-17.8-16.9zm12 32.2c-0.3 1.2 2.2 2.3 3.2 1.7 1.6-0.9 1.2-3.7 2.6-5 0.5-0.6 2.9 0.1 3.2 0.8 0.6 2.2-3.4 6.4-1.2 6.1 17.7-2.4-3.3-22.4-7.8-3.6zm29-19l8.8 68.6c-25.8-20.5-24.4-41.1-8.8-68.6zm-40.5 20.3c10.7 25.3 22.6 42.5 44.4 62.7-28.8-13.9-45.2-26.2-44.4-62.7zm75.9 45.1l2.1 5.4 1.7 6.8-4.8-4.1zm-18.8 17.7c1.6 0 2.9 1.5 2.9 3.4 0 1.8-1.3 3.4-2.9 3.4-1.6 0-2.9-1.6-2.9-3.4 0-1.9 1.3-3.4 2.9-3.4zm-19.1 27.6c0.3 1.1 3 1.1 3.7 0 1-1.5-0.6-3.8-0.1-5.6 0.3-0.8 2.8-1.3 3.3-0.7 1.5 1.7-0.2 7.2 1.7 6 14.7-10.2-13-18.6-8.6 0.3zm11.1 7.3l13.2 4.4c-3.9-5.5-6-10-13.2-4.4zm11.2-16.6c-0.7 10-2.2 8.5 5.8 15.6-1.8-5.3-3.8-10.4-5.8-15.6zm7.2-23.3l32.9 66.6c-33-11.5-36.9-54.4-32.9-66.6zm-29.2 50.8c22.6 30.2 51.1 31.7 79.3 50.1-31.5-3.9-78.8-8.4-79.3-50.1zm84.4 44.1c0.2 1.3 4.4 2.6 3.4 7.4l-10.2-10.2c-0.6-2.3 5.1-7.3 6.8 2.8zm-21.7-20.4c8.9 1.5 5.2 3.4 6.1 11.9 31.2-6.3-4.3-35-6.1-11.9zm40.7 56c0.5-11.3-11.4-31.6-14.2-43.8 10.4 11.6 17.1 31.7 29.8 44.1 13.3 13.1 28.2 22.4 44.4 30.5l-2.7 7.5c-22.6-15.9-35.8-31-63.9-36.1-34.6-6.3-47.3 1.8-68.3-29.7 23.7 14.2 49 19.6 74.9 27.5z"/>
	<path id="Path 30" class="s10" d="m576.2 210.6c22.8-39.8 14.8-74.9-13.9-110.9-23.9 39.8-17.4 77.3 13.9 110.9z"/>
	<path id="Path 31" class="s6" d="m566.4 114.5c20 25.6 25 62.2 8.8 91.1z"/>
	<path id="Path 32" class="s10" d="m596.3 171.4l2 2.8c20.4 28.9 13.7 62-1.4 80.6-2.2 2.6-6.1 10.3-5.2 13.7 6.4 23.4 6.5 29.6-5.2 49.6-2.6 4.5 4 7.4 5.6 10.3 0.6 1.2-0.3 3 0.5 4.1 5.6 7.4 2.7 7.6-1.2 21.1 6.4-0.9 6.6-0.5 7.1 5.7 0.6 9-1.3 14.7-2.5 23.5-6 40.7-21.4 47.4-51.7 66.9 11.8 2.5 13.7 9.6 10.5 19.3 10.1 8.4 4.2 35.7-5.6 43.4-5.4 4.3-12.8 7.6-15.2 12.7-19.6 41.7-29.1 46-72 46.3-25.1 0.2-63.4 29.3-81.9 45.7-3-10.9 0.1-19.9-0.7-31.1 23.7-5.4 51.1-29.6 62.6-51.4 6.7-12.5 6.9-19.1 21.2-22.9 0.3-5.6 1.1-7.6 5.4-11.8-10.9-36.8 8.4-56 36-79 11-9.2 12.3-6 11.6 6.4 4-0.6 4.8-1 8.1-3.4 2 5.2 1.6 8.3 6.8 9.8l-0.7-6.4c-0.4-3.7-2.7-7-5.1-9.8-7.6-8.8-3.5-18.5-7.1-28.5-9.8-27.6-6.7-37.1 11.5-64.1 4.6 4.2 6.8 7.9 10.2 13.2 2.2-2.9 5.5-5 3.4-8.7-1.9-3.4-4.8-6.2-6.8-9.6-15.1-25.6-8.7-45.5-0.7-71.6 1.7-5.3-6-9.8-7.1-15.2-2.2-10.8 1.2-23.2 1.7-35 1.3 0.4 9.5 4 10 1.4 1.9-9.5 1.5-19.3 2.2-28.9 14.9 11.2 24.2 21.2 33.3 36.7 4.1-15.7 11.8-24 20.4-35.8z"/>
	<path id="Path 33" class="s6" d="m599 189.5c10.1 26.7 4.1 43.4-7.8 66.5 0.9-22.9 5.2-43.8 7.8-66.5zm-42.5 1.7c8.9 11.2 21.1 20.6 16.3 36l5.8 1-7.5 9.8c-1.2-1.3-2.1-3.1-3.7-4-1.1-0.6-2.6-0.5-3.7 0-12.1 4.4-17.4-17.4-23.1-27.5 2.4 1.5 4.9 2.7 7.1 4.4 7.3 5.5 12 14.1 19.4 18.7l2.3-0.7c-8.1-12.5-9.6-23.1-12.9-37.7zm10.4 49.3c-3.8 4.1-2.9 8.5-3.4 14-12.7-9.5 1.2-20.5 3.4-14zm17.6 23c6.5 28 7.1 43.1-16.4 60.7zm-33.6-8.8l2.7 77.7c10.9-25 20.4-55.6-2.7-77.7zm28.9 81.2c2.2 0.3-1.8-3.9-1.2-6.1 0.2-0.7 2.6-1.4 3.2-0.8 1.3 1.3 0.9 4.1 2.5 5 1.1 0.7 3.5-0.5 3.2-1.6-4.5-18.9-25.5 1.1-7.7 3.5zm8.8 7.4c-2.5 11.6-3.6 17.5-17.8 16.9 6.1-7 9.9-11.9 17.8-16.9zm-19.8 35.8c2.2 0.3-1.8-3.9-1.2-6.1 0.2-0.7 2.7-1.4 3.2-0.8 1.4 1.3 0.9 4.1 2.6 5 1 0.6 3.5-0.5 3.2-1.7-4.5-18.8-25.5 1.2-7.8 3.6zm-21.3-22.6l-8.7 68.6c25.8-20.5 24.4-41.1 8.7-68.6zm40.6 20.3c-10.7 25.3-22.6 42.5-44.4 62.7 28.8-13.9 45.2-26.2 44.4-62.7zm-75 53.2l-4.7 4.1 1.7-6.8 2-5.4zm20.7 12.9c0 1.9-1.3 3.4-2.9 3.4-1.6 0-2.9-1.5-2.9-3.4 0-1.9 1.3-3.4 2.9-3.4 1.6 0 2.9 1.5 2.9 3.4zm7.7 23.9c1.8 1.3 0.1-4.3 1.6-6 0.6-0.6 3 0 3.3 0.7 0.6 1.8-1.1 4.1 0 5.7 0.6 1 3.3 1.1 3.6-0.1 4.4-18.8-23.3-10.4-8.5-0.3zm-2.6 7.6l-13.2 4.4c3.9-5.5 6-9.9 13.2-4.4zm-11.2-16.6c0.7 10 2.3 8.5-5.8 15.6 1.8-5.3 3.8-10.4 5.8-15.6zm-7.2-23.3l-32.9 66.6c33-11.5 36.9-54.4 32.9-66.6zm29.2 50.9c-22.6 30.1-51.1 31.6-79.3 50 31.5-3.9 78.9-8.4 79.3-50zm-77.7 41.3l-10.1 10.1c-1-4.8 3.1-6.1 3.4-7.4 1.6-10.1 7.4-5 6.7-2.7zm15-17.7c-8.9 1.5-5.2 3.5-6.1 11.9-31.2-6.2 4.3-35 6.1-11.9zm34.3 28.5c-21.1 31.5-33.8 23.4-68.4 29.7-28.2 5.1-41.4 20.2-64 36.1l-2.7-7.4c16.3-8.2 31.1-17.5 44.4-30.6 12.7-12.4 19.5-32.4 29.9-44.1-2.8 12.2-14.8 32.5-14.2 43.8 25.9-7.9 51.2-13.3 75-27.5z"/>
	<path id="Path 34" fill-rule="evenodd" class="s0" d="m 162.3 103.8 h 19.5 v 27.9 h -5.6 v -23.2 h -8.4 v 11.9 q 0 5.1 -0.3 7.2 q -0.4 2 -1.7 3.1 q -1.3 1.2 -4.2 1.2 q -0.9 0 -3.5 -0.2 v -4.4 h 1.2 q 1.8 0 2.4 -0.4 q 0.6 -0.5 0.6 -2.4 v -4.8 z m 40.5 0 h 6.3 l 6.5 14.5 l 5.5 -14.5 h 5.9 l -9.4 21.2 q -1.5 3.4 -3.1 5.2 q -1.6 1.8 -4.2 1.8 q -2.5 0 -3.9 -0.3 v -4.2 q 1.2 0.1 2.2 0.1 q 2 0 2.8 -0.7 q 0.9 -0.7 1.6 -3.1 z m 45.2 0 h 5.6 v 11.9 q 1.9 -0.2 2.6 -1 q 0.6 -0.8 2 -4.3 q 1.8 -4.5 3.6 -5.6 q 1.7 -1.2 5.6 -1.1 q 0.2 0 0.8 -0.1 v 4.2 h -0.8 q -1.7 0 -2.5 0.4 q -0.8 0.4 -1.3 1.3 q -0.5 0.9 -1.5 3.6 q -0.5 1.4 -1.1 2.4 q -0.6 1 -2.1 1.8 q 1.9 0.6 3.1 2.2 q 1.2 1.6 2.7 4.6 l 3.8 7.6 h -6.6 l -3.3 -7.2 q -0.1 -0.2 -0.4 -0.6 q -0.1 -0.2 -0.7 -1.3 q -1 -2.1 -1.7 -2.6 q -0.7 -0.5 -2.2 -0.5 v 12.2 h -5.6 z m 40.6 14.1 q 0 -4.3 1.2 -7.1 q 1 -2.2 2.6 -3.9 q 1.7 -1.7 3.6 -2.5 q 2.6 -1.1 6 -1.1 q 6.2 0 9.9 3.8 q 3.7 3.9 3.7 10.7 q 0 6.7 -3.7 10.5 q -3.7 3.8 -9.8 3.8 q -6.2 0 -9.9 -3.7 q -3.6 -3.8 -3.6 -10.5 z m 5.8 -0.2 q 0 4.8 2.1 7.2 q 2.2 2.4 5.6 2.4 q 3.4 0 5.5 -2.4 q 2.2 -2.4 2.2 -7.3 q 0 -4.7 -2.1 -7.1 q -2.1 -2.4 -5.6 -2.4 q -3.5 0 -5.6 2.4 q -2.1 2.4 -2.1 7.2 z m 43.6 -13.9 h 11.2 q 3.3 0 4.9 0.3 q 1.6 0.2 2.9 1.1 q 1.3 0.9 2.1 2.4 q 0.9 1.4 0.9 3.2 q 0 2 -1.1 3.6 q -1 1.6 -2.8 2.5 q 2.5 0.7 3.9 2.5 q 1.4 1.8 1.4 4.2 q 0 1.9 -0.9 3.7 q -0.9 1.8 -2.4 2.9 q -1.6 1 -3.8 1.3 q -1.4 0.1 -6.8 0.2 h -9.5 z m 5.7 4.6 v 6.5 h 3.6 q 3.3 0 4.1 -0.1 q 1.5 -0.2 2.3 -1 q 0.8 -0.9 0.8 -2.2 q 0 -1.3 -0.7 -2.1 q -0.7 -0.8 -2.1 -1 q -0.9 -0.1 -4.8 -0.1 z m 0 11.1 v 7.4 h 5.2 q 3 0.1 3.8 -0.1 q 1.3 -0.2 2.1 -1.1 q 0.8 -0.9 0.8 -2.4 q 0 -1.3 -0.6 -2.1 q -0.6 -0.9 -1.8 -1.3 q -1.1 -0.4 -5 -0.4 z m 40.6 -15.7 h 5.2 v 18.5 l 11.3 -18.5 h 5.6 v 27.8 h -5.2 v -18.2 l -11.3 18.2 h -5.6 z m 52.2 27.9 v -23.1 h -8.3 v -4.8 h 22.2 v 4.8 h -8.3 v 23.1"/>
</svg>