<svg version="1.2" xmlns="http://www.w3.org/2000/svg" viewBox="0 0 814 1078" width="814" height="1078">
	<title>Shipka-pdf</title>
	<style>
		.s0 { fill: none;stroke: #215938;stroke-width: 56.8 } 
		.s1 { fill: #1f6e3f } 
		.s2 { fill: none;stroke: #cfa550;stroke-width: 28.4 } 
		.s3 { fill: #215938 } 
		.s4 { fill: none;stroke: #215938;stroke-linejoin: round;stroke-width: 28.3 } 
		.s5 { fill: #cfa550 } 
	</style>
	<path id="Path 1" class="s0" d="m30.3 29.1h752.5v1018.8h-752.5z"/>
	<path id="Path 2" class="s1" d="m30.3 29.1h752.5v1018.8h-752.5z"/>
	<path id="Path 3" class="s2" d="m30.3 29.1h752.5v1018.8h-752.5z"/>
	<path id="Path 4" class="s3" d="m30.3 29.1h752.5v1018.8h-752.5z"/>
	<path id="Path 5" class="s4" d="m284 700.9v-285.5c-80.1-17.7-114.6-131.3 17-188.9 58.3-27 101-58.2 95-102.8-9.8-3.8-15.9-12.4-15.9-21.5 0-10.7 8.4-20.1 20.4-23l1.2-21.9h12.4l1.2 21.9c12 2.9 20.4 12.3 20.4 23 0 9.1-6.1 17.7-15.9 21.5-6 44.6 36.7 75.8 95 102.8 131.6 57.6 97.1 171.1 17.1 188.9l-0.1 285.5z"/>
	<path id="Path 6" class="s5" d="m284 700.9v-285.5c-80.1-17.7-114.6-131.3 17-188.9 58.3-27 101-58.2 95-102.8-9.8-3.8-15.9-12.4-15.9-21.5 0-10.7 8.4-20.1 20.4-23l1.2-21.9h12.4l1.2 21.9c12 2.9 20.4 12.3 20.4 23 0 9.1-6.1 17.7-15.9 21.5-6 44.6 36.7 75.8 95 102.8 131.6 57.6 97.1 171.1 17.1 188.9l-0.1 285.5z"/>
	<path id="Path 7" class="s4" d="m89.1 701.7v-186.8c-48.8-16.7-66.3-88.2 18.3-125.2 39.3-18.1 68-39.1 64-69.1-6.6-2.6-10.8-8.4-10.8-14.5 0-7.2 5.7-13.5 13.8-15.5l0.8-14.7h8.4l0.7 14.7c8.1 2 13.8 8.3 13.8 15.5 0 6.1-4.2 11.9-10.7 14.5-4.1 30 24.7 51 63.9 69.1 84.5 37 67.2 108.4 18.5 125.1v186.9z"/>
	<path id="Path 8" class="s5" d="m89.1 701.7v-186.8c-48.8-16.7-66.3-88.2 18.3-125.2 39.3-18.1 68-39.1 64-69.1-6.6-2.6-10.8-8.4-10.8-14.5 0-7.2 5.7-13.5 13.8-15.5l0.8-14.7h8.4l0.7 14.7c8.1 2 13.8 8.3 13.8 15.5 0 6.1-4.2 11.9-10.7 14.5-4.1 30 24.7 51 63.9 69.1 84.5 37 67.2 108.4 18.5 125.1v186.9z"/>
	<path id="Path 9" class="s4" d="m546 701.7v-186.8c-48.8-16.7-66.3-88.2 18.3-125.2 39.3-18.1 68-39.1 64-69.1-6.6-2.6-10.7-8.4-10.7-14.5 0-7.2 5.6-13.5 13.7-15.5l0.8-14.7h8.4l0.7 14.7c8.1 2 13.8 8.3 13.8 15.5 0 6.1-4.2 11.9-10.7 14.5-4.1 30 24.7 51 63.9 69.1 84.5 37 67.2 108.4 18.5 125.1v186.9z"/>
	<path id="Path 10" class="s5" d="m546 701.7v-186.8c-48.8-16.7-66.3-88.2 18.3-125.2 39.3-18.1 68-39.1 64-69.1-6.6-2.6-10.7-8.4-10.7-14.5 0-7.2 5.6-13.5 13.7-15.5l0.8-14.7h8.4l0.7 14.7c8.1 2 13.8 8.3 13.8 15.5 0 6.1-4.2 11.9-10.7 14.5-4.1 30 24.7 51 63.9 69.1 84.5 37 67.2 108.4 18.5 125.1v186.9zm-396.8 20.6h36.1v70.4c0.2 6.3 5.6 11.4 12.1 11.4 6.3 0 11.5-4.9 11.9-11.1v-70.7h36.2v67.8q0 1 0 2c0 26.5-21.6 48.1-48.1 48.1-11.4 0-21.9-3.9-30.1-10.6-8.3 6.7-18.8 10.6-30.1 10.6-26.6 0-48.2-21.6-48.2-48.1q0-0.3 0-0.5v-0.1-69.2h36.1v70.4c0.2 6.3 5.7 11.4 12.1 11.4 6.3 0 11.5-4.9 12-11.1zm180.7 108.7c-5 5-12.9 8.3-24.9 9.3-26.6 0-35.2-21.7-35.2-48.2q0-0.2 0-0.5v-69.3h36.1v70.4c0.2 6.4 5.6 11.4 12.1 11.4 6.2 0 11.4-4.8 11.9-10.9v-70.9h36.2v115.2h-36.2zm97.5-102.2c5-5 12.9-8.3 24.9-9.3 26.6 0 35.2 21.7 35.2 48.2q0 0.2 0 0.5v69.2h-36.1v-70.3c-0.2-6.4-5.6-11.4-12.1-11.4-6.2 0-11.4 4.8-11.9 10.9v70.8h-36.2v-115.1h36.2z"/>
	<path id="Path 11" fill-rule="evenodd" class="s5" d="m691.3 814.3h-24v23.1h-36.2v-69.2-0.1q0-0.2 0-0.4c0-26.6 21.7-48.2 48.2-48.2 26.5 0 48.1 21.6 48.1 48.2q0 1 0 1.9v67.8h-36.1zm-24-32.8h24v-14.7c-0.5-6.2-5.7-11.1-12-11.1-6.4 0-11.9 5.1-12 11.4zm-154.3 55.9v-5.3-16.6-0.1q0-0.2 0-0.4 0-0.5 0-0.9v-65.9-15-10.9h36.2v44.1h12c6.3 0 11.5-4.9 12-11.1v-33h36.1v30.1c0 0.6 0 0.4 0 1 0 13.8-5.8 23.2-15.1 29 9.3 4.8 15.1 13.1 15.1 26.8 0-0.5 0-3.2 0-3.6v31.8h-36.1v-29.1c-0.5-6.1-5.7-11-12-11l-12-0.1v40.2zm96.3-28.2q0 0.2 0 0.1 0 0 0-0.1zm0-3.6q0-0.1 0 0zm-520.9 53h639v63.8q-319.5 161.4-639 0z"/>
	<path id="Path 12" fill-rule="evenodd" class="s3" d="m319.9 963.7h-22.5v-61.7h-10.2v-17h32.7zm73.4-23.9q0 1 0 1.9c-0.2 1.9-0.5 3.6-0.9 5.4-0.4 1.1-0.8 2.2-1.2 3.3q-0.8 1.6-1.7 3c-0.8 1.2-1.6 2.3-2.5 3.3-1 1.1-2 2-3.1 2.9q-1.1 0.9-2.3 1.6c-1.3 0.8-2.5 1.4-3.9 2q-1.7 0.7-3.5 1.2-2 0.4-3.9 0.7-1.3 0.2-2.5 0.3-3.6 0.3-7.1 0.1c-1.5-0.1-2.9-0.3-4.3-0.6q-2-0.5-4-1.2c-1.3-0.5-2.5-1.1-3.7-1.8l-1.1-0.7c-2-1.3-3.8-2.8-5.3-4.6q-1.3-1.5-2.4-3-1-1.6-1.8-3.3c-0.7-1.5-1.2-2.9-1.6-4.5l-0.3-1.2c-0.4-2.3-0.6-4.6-0.5-7 0.1-1.1 0.2-2.2 0.4-3.3l0.4-1.3c0.5-2 1.3-3.9 2.4-5.8q0.5-0.8 1.1-1.7c0.6-0.8 1.3-1.6 2.1-2.3q0.8-0.7 1.5-1.2c1.4-0.9 2.9-1.7 4.4-2.5l-3.2-1.8-1-0.8-1-1.2-1-1.5-0.7-1.4c-0.6-1.3-1-2.5-1.3-3.9-0.2-1-0.4-2-0.4-3.1q0-1.3 0.1-2.5c0.1-1 0.2-1.9 0.4-2.9l0.6-1.8 0.6-1.6 0.9-1.6 1-1.6c0.8-0.9 1.5-1.7 2.4-2.5 0.7-0.6 1.5-1.2 2.3-1.8 1.2-0.8 2.4-1.5 3.8-2q1.5-0.6 3-1.1c1.6-0.4 3.2-0.8 4.8-1q1.1-0.1 2.3-0.2c2.3-0.1 4.6-0.1 7 0.1q2.1 0.2 4.2 0.6 1.6 0.3 3.2 0.8c1.3 0.5 2.6 1.1 4 1.8q1.3 0.7 2.5 1.6 0.7 0.5 1.4 1.1 0.9 0.8 1.7 1.8l1.2 1.4 1 1.6 0.7 1.6 0.7 1.7 0.4 1.8 0.3 1.9q0.1 1.2 0.1 2.5c-0.1 1.4-0.3 2.8-0.7 4.2q-0.4 1.2-0.9 2.4c-0.3 0.7-0.8 1.4-1.2 2.1-0.5 0.8-1 1.5-1.6 2.2l-1.2 1.2-2.6 2.2c1.2 0.6 2.5 1.3 3.7 2.1q0.7 0.5 1.4 1c0.7 0.8 1.4 1.6 2 2.4q0.6 0.9 1.1 1.8c1.5 3 2.7 6.4 3.1 9.8q0.2 1.4 0.2 2.9zm-22.2-30.5l-0.1-1.5-0.4-1.4-0.6-1.3-0.9-1.2-0.5-0.6-0.5-0.5-0.6-0.4-0.6-0.3-0.6-0.3-0.7-0.2-0.7-0.2h-0.7-0.6l-0.7 0.1-0.6 0.2-1.3 0.6-1.1 0.8-0.5 0.5-0.5 0.7-0.4 0.6-0.3 0.6-0.5 1.5-0.2 1.5v1.5l0.3 1.5 0.1 0.7 0.3 0.6 0.3 0.6 0.4 0.6 0.5 0.6 1 0.7c0.6 0.3 1.1 0.6 1.7 0.8 0.6 0.2 1.3 0.3 2 0.4l1.4-0.1 1.3-0.3 1.1-0.6 1.1-0.8 0.5-0.6 0.4-0.5 0.4-0.7 0.3-0.6 0.2-0.7 0.2-0.8zm1 29.8v-0.9l-0.2-0.8-0.2-0.9-0.2-0.8-0.4-0.8-0.4-0.7-0.5-0.7-0.6-0.6-0.6-0.6-0.7-0.5-0.7-0.4-0.7-0.3-0.7-0.3-0.8-0.2-0.8-0.1-0.9-0.1-2.5 0.5-2.5 1.7-0.5 0.6-0.5 0.6-0.5 0.6-0.3 0.8-0.3 0.7-0.1 0.8-0.1 0.8q-0.1 1.1 0 2.3c0 0.7 0.1 1.4 0.3 2.1l0.3 0.7 0.3 0.6 0.4 0.6 0.4 0.5 1 0.9 1.1 0.6 1.3 0.4 1.4 0.3 2-0.1 1.4-0.2 1.4-0.4 1.3-0.7 0.6-0.5 0.6-0.5 0.5-0.5 0.4-0.7 0.4-0.7 0.3-0.7 0.1-0.8 0.2-0.8zm86.3-44.2l-0.1 2.7-0.7 3-21.7 63.2h-23.2l22.2-59.9h-28.4v-18.7h34.4q2.5 0 5 0.3 1.8 0.3 3.5 0.6l1.6 0.5c1.4 0.4 2.7 0.9 3.9 1.7 0.5 0.3 1 0.6 1.4 1 0.4 0.4 0.7 0.8 1 1.2 0.3 0.5 0.5 0.9 0.7 1.5l0.3 1q0.1 1 0.1 1.9zm70.2 45q0 0.9 0 1.9c-0.2 1.8-0.4 3.6-0.9 5.4-0.3 1.1-0.7 2.2-1.2 3.2-0.5 1.1-1 2.1-1.7 3.1-0.7 1.2-1.6 2.3-2.5 3.3-1 1-2 2-3 2.8q-1.2 0.9-2.4 1.7c-1.2 0.7-2.5 1.4-3.8 1.9-1.2 0.5-2.4 0.9-3.6 1.2q-1.9 0.5-3.9 0.8-1.3 0.2-2.5 0.3-3.6 0.2-7.1 0c-1.4-0.1-2.9-0.3-4.3-0.6-1.4-0.3-2.6-0.7-4-1.2-1.2-0.5-2.4-1.1-3.6-1.7l-1.2-0.8c-2-1.3-3.8-2.8-5.3-4.5-0.9-1-1.6-2-2.3-3.1q-1-1.5-1.8-3.2c-0.7-1.5-1.3-3-1.7-4.6l-0.3-1.2c-0.4-2.3-0.6-4.6-0.5-6.9 0.1-1.2 0.3-2.2 0.5-3.3l0.3-1.3c0.6-2.1 1.3-4 2.4-5.8q0.5-0.9 1.1-1.7c0.7-0.9 1.4-1.6 2.2-2.4q0.7-0.6 1.5-1.2c1.4-0.9 2.8-1.6 4.3-2.4l-3.2-1.9-0.9-0.8-1-1.1-1-1.6-0.8-1.3c-0.6-1.3-1-2.6-1.3-3.9-0.2-1.1-0.3-2.1-0.4-3.1q0-1.3 0.1-2.6c0.1-0.9 0.3-1.9 0.5-2.8l0.5-1.8 0.7-1.7 0.8-1.6 1.1-1.5c0.7-0.9 1.4-1.7 2.3-2.5q1.1-1 2.3-1.9c1.2-0.7 2.5-1.4 3.8-2q1.5-0.6 3.1-1.1c1.6-0.4 3.1-0.7 4.8-0.9q1.1-0.2 2.2-0.2 3.5-0.3 7 0 2.1 0.2 4.2 0.6 1.6 0.4 3.2 0.9c1.4 0.5 2.7 1.1 4 1.7q1.3 0.8 2.5 1.6 0.7 0.6 1.4 1.2 0.9 0.8 1.8 1.7l1.1 1.5 1 1.5 0.8 1.6 0.6 1.8 0.4 1.8 0.3 1.9q0.1 1.2 0.1 2.4c-0.1 1.5-0.3 2.8-0.7 4.2q-0.4 1.2-0.9 2.4c-0.3 0.8-0.7 1.5-1.2 2.2q-0.7 1.2-1.6 2.2l-1.2 1.2-2.6 2.1c1.3 0.7 2.6 1.3 3.8 2.1q0.7 0.5 1.3 1.1c0.8 0.8 1.4 1.5 2 2.4q0.6 0.8 1.1 1.7c1.6 3.1 2.7 6.4 3.2 9.8q0.1 1.5 0.1 3zm-22.2-30.6l-0.1-1.4-0.4-1.4-0.6-1.4-0.8-1.2-0.5-0.5-0.5-0.5-0.6-0.4-0.6-0.4-0.7-0.3-0.6-0.2-0.7-0.1h-0.7-0.7l-0.7 0.1-0.6 0.2-1.2 0.6-1.1 0.7-0.6 0.6-0.5 0.6-0.4 0.6-0.3 0.7-0.4 1.4-0.2 1.5v1.6l0.2 1.4 0.2 0.7 0.2 0.7 0.4 0.6 0.3 0.6 0.5 0.6 1 0.7c0.6 0.3 1.1 0.5 1.7 0.7 0.7 0.2 1.3 0.4 2 0.5l1.5-0.1 1.2-0.4 1.2-0.6 1-0.8 0.5-0.5 0.5-0.6 0.3-0.6 0.3-0.7 0.2-0.7 0.2-0.7zm1 29.8v-0.9l-0.1-0.9-0.2-0.8-0.3-0.8-0.3-0.8-0.5-0.7-0.5-0.7-0.6-0.6-0.6-0.6-0.6-0.5-0.7-0.4-0.7-0.4-0.8-0.3-0.8-0.2-0.7-0.1h-1l-2.5 0.5-2.4 1.7-0.6 0.5-0.5 0.7-0.4 0.6-0.4 0.7-0.2 0.8-0.2 0.7-0.1 0.8q-0.1 1.2 0 2.3c0 0.8 0.2 1.5 0.4 2.2l0.2 0.7 0.3 0.6 0.4 0.6 0.4 0.5 1 0.8 1.2 0.6 1.2 0.5 1.4 0.2h2l1.5-0.2 1.4-0.5 1.2-0.7 0.6-0.4 0.6-0.5 0.5-0.6 0.5-0.6 0.3-0.7 0.3-0.8 0.2-0.7 0.1-0.8zm38.5-424.5h180.8v14.1h-180.8zm-456.9 0h180.8v14.2h-180.8zm214.4-99.3h209v14.2h-209z"/>
</svg>