<svg version="1.2" xmlns="http://www.w3.org/2000/svg" viewBox="0 0 258 336" width="258" height="336">
	<title>Chepelare-pdf</title>
	<style>
		.s0 { fill: #ed1c24;stroke: #231f20;stroke-width: 3 } 
		.s1 { fill: #00a650;stroke: #231f20;stroke-width: 3 } 
		.s2 { fill: #231f20 } 
		.s3 { fill: #ffffff;stroke: #231f20;stroke-width: 3 } 
		.s4 { fill: #fddd04;stroke: #231f20;stroke-width: 3 } 
	</style>
	<path id="Path 1" class="s0" d="m23.1 288.8v-206.5h86.3v241.6c-83.7 0-86.3-35.1-86.3-35.1z"/>
	<path id="Path 2" class="s1" d="m149 323.9v-241.6h86.3v206.5c0 0-2.6 35.1-86.3 35.1z"/>
	<path id="Path 3" fill-rule="evenodd" class="s2" d="m237.6 279.1h-90.5l22.4-51.2 21.3-48.8v-9.3l-7.5 5.9-1.8-2.4 9.3-7.3 0.1-17.4-14.9 8.6-1.6 11.8-3-0.4 1.3-9.5-8.4 4.8-1.4-2.6 8.3-4.8-8.9-3.6 1.1-2.8 11.1 4.5 14.9-8.6-14.9-8.6-11.1 4.5-1.1-2.8 8.9-3.6-8.3-4.9 1.5-2.6 8.3 4.9-1.3-9.5 3-0.5 1.6 11.9 14.9 8.6v-17.2l-9.4-7.4 1.8-2.3 7.6 5.9v-9.7h3v9.7l7.6-5.9 1.9 2.3-9.5 7.4v17.2l15-8.6 1.7-12 3 0.5-1.4 9.6 8.3-4.8 1.5 2.6-8.2 4.7 8.9 3.6-1.1 2.8-11.1-4.5-15.1 8.7 15 8.7 11.2-4.5 1.1 2.8-9 3.6 8.2 4.8-1.5 2.6-8.1-4.7 1.3 9.4-3 0.4-1.7-11.8-15-8.7-0.1 17.3 9.6 7.4-1.9 2.4-7.7-6v9.2l21.4 49zm-4.6-3l-20.5-47.1-20.2-46-20.1 46-20.5 47.1h9.6l8.2-18.8 22.8-52.2 22.9 52.2 8.2 18.8zm-12.9 0l-7.7-17.6-20.1-46-20.1 46-7.7 17.6h9.7l18.1-41.5 18.1 41.5zm-12.9 0l-14.8-34-14.9 34zm-95.5 3h-90.5l22.4-51.3 21.1-48.3-9.8-11.1-0.1-0.1c-4.2-5.5-6-10.2-6-14.6 0-8.4 6.3-14.3 11.7-22 2.6-3.7 3.4-7.1 3.4-10.2 0-4.5-1.9-8.1-2.9-9.6q0-0.1-0.1-0.1-0.4-0.7-0.4-0.7l2.4-1.8c0 0 0.2 0.3 0.5 0.8 1.9 2.7 9.3 13.1 19.2 25.7 2.5 3.2 3.5 6.8 3.5 10.3-0.1 9.2-6.3 17.3-6.4 17.4l-11.6 15.9 12.7 29h24l0.2 1.2q0.5 2.6 0.5 5.1c0 9-4.8 17.3-12.4 21.9zm-45.7-102.6l0.3 0.2 0.5-0.5 10.5-14.5c0-0.1 1.5-1.9 2.9-4.9 1.5-2.9 2.9-6.9 2.9-10.8 0-2.9-0.8-5.8-2.8-8.4-5.4-6.8-10-13-13.5-17.7q0.1 0.8 0.1 1.6c0 3.6-1 7.7-4 11.9-5.6 7.9-11.2 13.6-11.1 20.3 0 3.5 1.4 7.5 5.4 12.7zm41.1 99.6l-20.5-47-20.2-46.1-20.1 46.1-20.5 47zm-25-64.6l7.2 16.4 2.5 5.9c6.6-4.1 10.7-11.2 10.7-19q0-1.7-0.3-3.3zm-15.6-6.4l20 45.8-2.8 1.2-17.2-39.5-20.4 46.6h27.8l-8.8-20.2 2.7-1.2 10.7 24.4h-37zm-0.2-93.5l-1-7.1 3-0.4 1 7.1zm13.6 4.4l-2.6-1.5 4.3-7.2 2.6 1.6zm9.2 9.6l-2.3-1.9 5.2-6.5 2.4 1.9zm2.6 7.4l7.8-3.1 1.1 2.8-7.8 3.1zm10.4 14.8h-8.4v-3h8.4zm-9.5 9.9l1.1-2.7 7.8 3.1-1.2 2.8zm-0.6 17.8l-5.3-6.5 2.4-1.9 5.2 6.5zm-12.9 0.3l4.7 6.9-2.4 1.7-4.8-6.9zm-24 0.7l-4.5 7-2.5-1.6 4.5-7zm-13.7-1.3l-2.3-1.9 5.4-6.5 2.3 1.9zm-1.1-20l1.4 2.6-7.5 3.8-1.4-2.6zm-9.4-6l-0.2-3 8.3-0.6 0.2 3zm9.7-12.8l-7.8-3.2 1.2-2.8 7.7 3.2zm5.5-10.4l-6.2-5.6 2-2.2 6.2 5.6zm8.6-10l-4.7-6.9 2.5-1.7 4.7 7z"/>
	<path id="Path 4" class="s3" d="m149 65.7v268.8h-19.8v-262.3c0-4.8 2.9-12.6 8.6-16l15.8-9 5.1 2.2c-9.6 4-9.7 16.3-9.7 16.3z"/>
	<path id="Path 5" class="s3" d="m99.7 49.4l5.1-2.2 15.8 9c5.7 3.4 8.6 11.2 8.6 16v262.3h-19.8v-268.8c0 0-0.1-12.3-9.7-16.3z"/>
	<path id="Path 6" class="s4" d="m256.3 42.3l-24.6 39.5c-71-39.7-102.5-35.8-102.5-35.8 0 0-31.5-3.9-102.5 35.8l-24.7-39.5c63.4-41.7 115.5-40.5 127.2-40.5 11.2 0 66.4 0.6 127.1 40.5z"/>
	<path id="Path 7" fill-rule="evenodd" class="s2" d="m22.5 41.5l3.7 6.9c1.3 2.3 3.4 2.3 5.4 1.2 1.6-0.9 3.2-1.9 4.7-3l-5.3-9.7 4.9-2.7 12.8 23.6-4.9 2.7-5.3-9.9c-1.9 1.5-3.9 2.6-6 3.8-3.8 2-8.3 1.9-11.2-3.4l-3.7-6.9zm41.3-18.8l1.6 4.3-13.2 5.2 2 5.1 12.2-4.7 1.6 4.3-12.1 4.8 2.7 6.9 13.8-5.4 1.7 4.3-19 7.4-9.8-25zm30.4-8l6.2 26.1-5.4 1.3-5.1-21.6-10.2 2.4 5.1 21.6-5.4 1.3-6.2-26.1zm29.7-2.9l0.4 4.6-14.3 1 0.4 5.5 13.1-0.9 0.3 4.6-13 1 0.5 7.4 14.8-1.1 0.3 4.6-20.4 1.5-1.8-26.8zm31.1 1.8l-2.4 26.8-5.5-0.5 1.9-22.1-7.6-0.7-1 11.4c-0.6 7-2.6 11.3-7.9 10.9-1.3-0.1-2.4-0.4-3.4-0.7l0.4-4.3c0.3 0.1 0.9 0.3 1.6 0.4 2.5 0.2 3.3-1.5 3.8-7.3l1.4-15.5zm23.8 5l2.9 28.4-5.9-1.4-0.4-5.8-9.6-2.4-3.1 5-5.8-1.4 15.6-23.9zm-10.5 14.7l7 1.7-1.1-11.2v-0.1zm23.1 17.4l-5.2-2 9.7-25 11.5 4.4c4.8 1.9 6.5 6.1 4.6 11-0.9 2.3-4.3 7.5-11.1 4.9l-6-2.3zm5.2-13.4l4.9 1.9c3.4 1.4 4.8-0.8 5.4-2.4 0.9-2.4 0-4-3.2-5.2l-4.2-1.6zm44.5 7.1l-2.2 4.1-12.6-6.8-2.6 4.9 11.5 6.2-2.2 4.1-11.5-6.2-3.5 6.5 13 7.1-2.1 4-18-9.7 12.7-23.6z"/>
</svg>