<svg version="1.2" xmlns="http://www.w3.org/2000/svg" viewBox="0 0 499 725" width="499" height="725">
	<title>Knezha-pdf</title>
	<style>
		.s0 { fill: #fbc707;stroke: #fbc707;stroke-width: 8.7 } 
		.s1 { fill: #82cd2e;stroke: #fbc707;stroke-width: 8.8 } 
		.s2 { fill: #fbc707;stroke: #fbc707;stroke-width: 3.6 } 
		.s3 { fill: #ffffff;stroke: #fbc707;stroke-width: 3.6 } 
		.s4 { fill: #99d420;stroke: #fbc707;stroke-width: 12.6 } 
		.s5 { fill: #00a650;stroke: #fbc707;stroke-width: 12.7 } 
		.s6 { fill: #00a650;stroke: #fbc707;stroke-width: 7.8 } 
		.s7 { fill: #00a650;stroke: #fbc707;stroke-width: 11.7 } 
		.s8 { fill: #fbc707;stroke: #00a650;stroke-width: 3.6 } 
		.s9 { fill: #00a650;stroke: #fbc707;stroke-width: 9.7 } 
		.s10 { fill: #00a650;stroke: #fbc707;stroke-width: 11.4 } 
		.s11 { fill: #231f20;stroke: #fbc707;stroke-width: 3.6 } 
	</style>
	<path id="Path 1" class="s0" d="m494.3 182.8l-0.3 366.6c1.8 221.2-489.4 221.3-489.5 2v-367.8c196.1-81.2 313.7-80.2 489.8-0.8z"/>
	<path id="Path 2" class="s1" d="m484.2 549.5c1.8 208.1-470 208.1-470 1.9v-361.2c83.6-34.2 171.3-61.4 262.7-57 72.9 3.5 141.5 26.5 207.6 55.9z"/>
	<path id="Path 3" fill-rule="evenodd" class="s2" d="m54.3 468.3l112.5 49v26.8l-136-58.6v-289.5l117.6 51.5c13.5 5.9 18.2 18.4 18.1 34.8v47.2l-44.7-19.5c-16-6-26.3-15-25.7-38v-20.5l-41.9-18.7zm88.5-175.9v-10.8c0.3-5.3-1.7-11-8.6-13.5l-15-6.5v13.1c0.6 5.6 2.3 7.4 6.6 10.3z"/>
	<path id="Path 4" fill-rule="evenodd" class="s3" d="m125.1 302.1l-0.2-0.2c-15.2-5.6-20.6-13-20.2-29.7v-26.3l-59.1-26.4 0.1 254.4 112.5 49v8.1l-118.8-51.2v-270.6l105.6 46.2c11 4.8 12.9 15.9 12.9 26.9v34.1zm-14.4-53.6v26.7 0.4c0.9 8.1 3.8 12.2 10.4 16.6l0.6 0.4 29.7 12.9v-23.6c0.6-9.9-4.6-18.2-13.9-21.8z"/>
	<path id="Path 5" fill-rule="evenodd" class="s2" d="m66.9 385.3l81.6 35.4c13.4 5.9 18.2 18.5 18.1 34.8v47.3l-44.7-19.5c-16.4-6.6-26.4-15.2-25.7-38v-20.6l-29.3-12.7zm76 80.3v-10.8c0.4-5.3-1.6-10.9-8.6-13.4l-14.9-6.6v13.1c0.6 5.6 2.2 7.4 6.5 10.3z"/>
	<path id="Path 6" fill-rule="evenodd" class="s3" d="m75.6 398.3l69.5 30.3c11 4.8 12.9 16 12.9 26.9v34.1l-32.8-14.3h-0.1c-15.2-6.1-20.8-12.8-20.3-29.8v-26.4l-29.2-12.8zm35.2 23.3v27.2c0.9 8 3.8 12.2 10.4 16.6l0.6 0.3 29.8 13v-23.6c0.5-10-4.7-18.3-14.1-21.8z"/>
	<path id="Path 7" fill-rule="evenodd" class="s2" d="m66.9 297.9l81.6 35.5c13.4 5.9 18.2 18.4 18.1 34.8v47.2l-44.7-19.5c-16.4-6.5-26.4-15.2-25.7-38v-20.5l-29.3-12.8zm76 80.3v-10.7c0.4-5.4-1.6-11-8.6-13.5l-14.9-6.5v13.1c0.6 5.6 2.2 7.4 6.5 10.3z"/>
	<path id="Path 8" fill-rule="evenodd" class="s3" d="m75.6 311l69.5 30.3c11 4.7 12.9 15.9 12.9 26.9v34.1l-32.8-14.3-0.1-0.1c-15.2-6-20.8-12.8-20.3-29.7v-26.5l-29.2-12.7zm35.2 23.3v27.1c0.9 8.1 3.8 12.3 10.4 16.6l0.6 0.4 29.8 12.9v-23.6c0.5-9.9-4.7-18.2-14.1-21.7z"/>
	<path id="Path 9" fill-rule="evenodd" class="s2" d="m443.2 232.8l-41.9 18.7v20.5c0.6 23-9.8 32-25.7 38l-44.7 19.5v-47.2c-0.1-16.4 4.6-28.9 18.1-34.8l117.5-51.5v289.5l-135.8 58.6-0.1-26.8 112.4-49zm-71.6 52.1c4.3-2.8 5.9-4.6 6.6-10.2v-13.1l-15 6.5c-6.9 2.5-9 8.2-8.6 13.5v10.7z"/>
	<path id="Path 10" fill-rule="evenodd" class="s3" d="m451.7 473.9l0.2-254.4-59.2 26.4v26.3c0.4 16.7-5 24.1-20.2 29.7l-0.2 0.2-32.8 14.3v-34.1c0-11 1.9-22.1 12.9-26.9l105.6-46.2v270.6l-118.8 51.2v-8.1zm-105.8-168.5l29.7-12.9 0.7-0.4c6.6-4.3 9.5-8.4 10.3-16.5l0.1-0.5v-26.6l-26.8 11.6c-9.3 3.5-14.5 11.9-14 21.8z"/>
	<path id="Path 11" fill-rule="evenodd" class="s2" d="m430.5 412l-29.3 12.7v20.6c0.7 22.8-9.4 31.4-25.8 38l-44.7 19.5v-47.3c0-16.3 4.7-28.9 18.2-34.8l81.6-35.4zm-59 46.2c4.3-2.9 5.9-4.7 6.5-10.3v-13.1l-14.9 6.6c-7 2.5-9 8.1-8.6 13.4v10.8z"/>
	<path id="Path 12" fill-rule="evenodd" class="s3" d="m392.6 419.1v26.4c0.5 17-5.1 23.7-20.3 29.8h-0.1l-32.9 14.3v-34.1c0-10.9 2-22.1 13-26.9l69.5-30.3v8zm-46.8 59.6l29.7-13 0.6-0.3c6.7-4.4 9.6-8.5 10.5-16.6v-0.5-26.7l-26.7 11.7c-9.5 3.5-14.6 11.8-14.1 21.8z"/>
	<path id="Path 13" fill-rule="evenodd" class="s2" d="m430.5 324.6l-29.3 12.8v20.5c0.7 22.8-9.4 31.5-25.8 38l-44.7 19.5v-47.2c0-16.4 4.7-28.9 18.2-34.8l81.6-35.5zm-59 46.3c4.3-2.9 5.9-4.7 6.5-10.3v-13.1l-14.9 6.5c-7 2.5-9 8.1-8.6 13.5v10.7z"/>
	<path id="Path 14" fill-rule="evenodd" class="s3" d="m392.6 331.7v26.5c0.5 16.9-5.1 23.7-20.3 29.7l-0.1 0.1-32.9 14.3v-34.1c0-11 2-22.2 13-26.9l69.5-30.3v8zm-46.8 59.6l29.7-12.9 0.6-0.4c6.7-4.4 9.6-8.6 10.5-16.6v-0.5-26.6l-26.7 11.6c-9.5 3.6-14.6 11.8-14.1 21.8z"/>
	<path id="Path 15" class="s4" d="m6.3 187.8l0.1-124.5c160.9-77.7 329-72.8 485.5 0.7l0.3 123.3c-193-73.6-273.9-74.1-485.9 0.5z"/>
	<path id="Path 16" class="s5" d="m11.7 66.7c155.5-74 319.5-71.2 474.8 0.8l0.3 112c-37.4-14.1-75.4-27.4-114.1-37.2-34.1-8.7-68.4-14.5-103.6-15.5-40.3-1.3-79.4 3.7-118.6 12.3-22.9 5-45.5 11.1-67.9 17.9-23.8 7.2-47.4 15.1-70.9 23.2z"/>
	<path id="Path 17" class="s6" d="m313.3 278.2v224.2c0 29.3-24.9 41.3-65.2 38-44.6 2.1-62.9-8.6-62.7-40.6l1.7-223.5c0.7-76.3 124.8-77.2 126.2 1.9z"/>
	<path id="Path 18" class="s7" d="m309.2 502.4c0 33.2-35.3 36-60.8 33.9h-0.5c-15.2 0.7-40.7 1-51.5-11.9-5.7-6.6-7-16-6.9-24.5l1.8-223.5c0.1-16.1 6.1-30.3 18.8-40.4 11.8-9.4 27.3-13.5 42.2-13 11.9 0.6 24 4 33.9 10.7 15.3 10.4 22.7 26.3 23 44.6z"/>
	<path id="Path 19" class="s8" d="m243.5 237h13.2c2.2 0 4.1 3.3 4.1 7.4 0 4.1-1.9 7.4-4.1 7.4h-13.2c-2.3 0-4.2-3.3-4.2-7.4 0-4.1 1.9-7.4 4.2-7.4z"/>
	<path id="Path 20" class="s8" d="m274.6 306.5h18.1c3.1 0 5.7 3.2 5.7 7 0 3.8-2.6 6.9-5.7 6.9h-18.1c-3.1 0-5.7-3.1-5.7-6.9 0-3.8 2.6-7 5.7-7z"/>
	<path id="Path 21" class="s8" d="m208.9 497.7h18.1c3.1 0 5.7 3.1 5.7 6.9 0 3.8-2.6 7-5.7 7h-18.1c-3.2 0-5.7-3.2-5.7-7 0-3.8 2.5-6.9 5.7-6.9z"/>
	<path id="Path 22" class="s8" d="m242.2 497.7h18.1c3.1 0 5.7 3.1 5.7 6.9 0 3.8-2.6 7-5.7 7h-18.1c-3.1 0-5.7-3.2-5.7-7 0-3.8 2.6-6.9 5.7-6.9z"/>
	<path id="Path 23" class="s8" d="m242.2 515.1h18.1c3.1 0 5.7 3.1 5.7 6.8 0 3.9-2.6 7-5.7 7h-18.1c-3.1 0-5.7-3.1-5.7-7 0-3.7 2.6-6.8 5.7-6.8z"/>
	<path id="Path 24" class="s8" d="m275.5 497.7h18.1c3.1 0 5.7 3.1 5.7 6.9 0 3.8-2.6 7-5.7 7h-18.1c-3.1 0-5.7-3.2-5.7-7 0-3.8 2.6-6.9 5.7-6.9z"/>
	<path id="Path 25" class="s8" d="m274.4 515.5h12.3c2.2 0 3.9 2.6 3.9 5.7 0 3.2-1.7 5.8-3.9 5.8h-12.3c-2.2 0-3.9-2.6-3.9-5.8 0-3.1 1.7-5.7 3.9-5.7z"/>
	<path id="Path 26" class="s8" d="m215.1 514.8h12.8c2.3 0 4.1 2.7 4.1 6 0 3.3-1.8 6-4.1 6h-12.8c-2.3 0-4.1-2.7-4.1-6 0-3.3 1.8-6 4.1-6z"/>
	<path id="Path 27" class="s8" d="m208.9 480.4h18.1c3.1 0 5.7 3.1 5.7 6.9 0 3.8-2.6 6.9-5.7 6.9h-18.1c-3.2 0-5.7-3.1-5.7-6.9 0-3.8 2.5-6.9 5.7-6.9z"/>
	<path id="Path 28" class="s8" d="m242.2 480.4h18.1c3.1 0 5.7 3.1 5.7 6.9 0 3.8-2.6 6.9-5.7 6.9h-18.1c-3.1 0-5.7-3.1-5.7-6.9 0-3.8 2.6-6.9 5.7-6.9z"/>
	<path id="Path 29" class="s8" d="m275.5 480.4h18.1c3.1 0 5.7 3.1 5.7 6.9 0 3.8-2.6 6.9-5.7 6.9h-18.1c-3.1 0-5.7-3.1-5.7-6.9 0-3.8 2.6-6.9 5.7-6.9z"/>
	<path id="Path 30" class="s8" d="m208.9 463h18.1c3.1 0 5.7 3.1 5.7 7 0 3.8-2.6 6.9-5.7 6.9h-18.1c-3.2 0-5.7-3.1-5.7-6.9 0-3.9 2.5-7 5.7-7z"/>
	<path id="Path 31" class="s8" d="m242.2 463h18.1c3.1 0 5.7 3.1 5.7 7 0 3.8-2.6 6.9-5.7 6.9h-18.1c-3.1 0-5.7-3.1-5.7-6.9 0-3.9 2.6-7 5.7-7z"/>
	<path id="Path 32" class="s8" d="m275.5 463h18.1c3.1 0 5.7 3.1 5.7 7 0 3.8-2.6 6.9-5.7 6.9h-18.1c-3.1 0-5.7-3.1-5.7-6.9 0-3.9 2.6-7 5.7-7z"/>
	<path id="Path 33" class="s8" d="m208.9 445.7h18.1c3.1 0 5.7 3.1 5.7 6.9 0 3.8-2.6 6.9-5.7 6.9h-18.1c-3.2 0-5.7-3.1-5.7-6.9 0-3.8 2.5-6.9 5.7-6.9z"/>
	<path id="Path 34" class="s8" d="m242.2 445.7h18.1c3.1 0 5.7 3.1 5.7 6.9 0 3.8-2.6 6.9-5.7 6.9h-18.1c-3.1 0-5.7-3.1-5.7-6.9 0-3.8 2.6-6.9 5.7-6.9z"/>
	<path id="Path 35" class="s8" d="m275.5 445.7h18.1c3.1 0 5.7 3.1 5.7 6.9 0 3.8-2.6 6.9-5.7 6.9h-18.1c-3.1 0-5.7-3.1-5.7-6.9 0-3.8 2.6-6.9 5.7-6.9z"/>
	<path id="Path 36" class="s8" d="m208.9 428.4h18.1c3.1 0 5.7 3.1 5.7 6.9 0 3.8-2.6 6.9-5.7 6.9h-18.1c-3.2 0-5.7-3.1-5.7-6.9 0-3.8 2.5-6.9 5.7-6.9z"/>
	<path id="Path 37" class="s8" d="m242.2 428.4h18.1c3.1 0 5.7 3.1 5.7 6.9 0 3.8-2.6 6.9-5.7 6.9h-18.1c-3.1 0-5.7-3.1-5.7-6.9 0-3.8 2.6-6.9 5.7-6.9z"/>
	<path id="Path 38" class="s8" d="m275.5 428.4h18.1c3.1 0 5.7 3.1 5.7 6.9 0 3.8-2.6 6.9-5.7 6.9h-18.1c-3.1 0-5.7-3.1-5.7-6.9 0-3.8 2.6-6.9 5.7-6.9z"/>
	<path id="Path 39" class="s8" d="m208.9 411h18.1c3.1 0 5.7 3.2 5.7 6.9 0 3.9-2.6 7-5.7 7h-18.1c-3.2 0-5.7-3.1-5.7-7 0-3.7 2.5-6.9 5.7-6.9z"/>
	<path id="Path 40" class="s8" d="m242.2 411h18.1c3.1 0 5.7 3.2 5.7 6.9 0 3.9-2.6 7-5.7 7h-18.1c-3.1 0-5.7-3.1-5.7-7 0-3.7 2.6-6.9 5.7-6.9z"/>
	<path id="Path 41" class="s8" d="m275.5 411h18.1c3.1 0 5.7 3.2 5.7 6.9 0 3.9-2.6 7-5.7 7h-18.1c-3.1 0-5.7-3.1-5.7-7 0-3.7 2.6-6.9 5.7-6.9z"/>
	<path id="Path 42" class="s8" d="m208.9 393.7h18.1c3.1 0 5.7 3.2 5.7 6.9 0 3.8-2.6 7-5.7 7h-18.1c-3.2 0-5.7-3.2-5.7-7 0-3.7 2.5-6.9 5.7-6.9z"/>
	<path id="Path 43" class="s8" d="m242.2 393.7h18.1c3.1 0 5.7 3.2 5.7 6.9 0 3.8-2.6 7-5.7 7h-18.1c-3.1 0-5.7-3.2-5.7-7 0-3.7 2.6-6.9 5.7-6.9z"/>
	<path id="Path 44" class="s8" d="m275.5 393.7h18.1c3.1 0 5.7 3.2 5.7 6.9 0 3.8-2.6 7-5.7 7h-18.1c-3.1 0-5.7-3.2-5.7-7 0-3.7 2.6-6.9 5.7-6.9z"/>
	<path id="Path 45" class="s8" d="m208.9 376.4h18.1c3.1 0 5.7 3.1 5.7 6.9 0 3.8-2.6 6.9-5.7 6.9h-18.1c-3.2 0-5.7-3.1-5.7-6.9 0-3.8 2.5-6.9 5.7-6.9z"/>
	<path id="Path 46" class="s8" d="m242.2 376.4h18.1c3.1 0 5.7 3.1 5.7 6.9 0 3.8-2.6 6.9-5.7 6.9h-18.1c-3.1 0-5.7-3.1-5.7-6.9 0-3.8 2.6-6.9 5.7-6.9z"/>
	<path id="Path 47" class="s8" d="m275.5 376.4h18.1c3.1 0 5.7 3.1 5.7 6.9 0 3.8-2.6 6.9-5.7 6.9h-18.1c-3.1 0-5.7-3.1-5.7-6.9 0-3.8 2.6-6.9 5.7-6.9z"/>
	<path id="Path 48" class="s8" d="m208.9 359.1h18.1c3.1 0 5.7 3 5.7 6.9 0 3.8-2.6 6.8-5.7 6.8h-18.1c-3.2 0-5.7-3-5.7-6.8 0-3.9 2.5-6.9 5.7-6.9z"/>
	<path id="Path 49" class="s8" d="m242.2 359.1h18.1c3.1 0 5.7 3 5.7 6.9 0 3.8-2.6 6.8-5.7 6.8h-18.1c-3.1 0-5.7-3-5.7-6.8 0-3.9 2.6-6.9 5.7-6.9z"/>
	<path id="Path 50" class="s8" d="m275.5 359.1h18.1c3.1 0 5.7 3 5.7 6.9 0 3.8-2.6 6.8-5.7 6.8h-18.1c-3.1 0-5.7-3-5.7-6.8 0-3.9 2.6-6.9 5.7-6.9z"/>
	<path id="Path 51" class="s8" d="m208.9 341.7h18.1c3.1 0 5.7 3.1 5.7 6.9 0 3.9-2.6 6.9-5.7 6.9h-18.1c-3.2 0-5.7-3-5.7-6.9 0-3.8 2.5-6.9 5.7-6.9z"/>
	<path id="Path 52" class="s8" d="m242.2 341.7h18.1c3.1 0 5.7 3.1 5.7 6.9 0 3.9-2.6 6.9-5.7 6.9h-18.1c-3.1 0-5.7-3-5.7-6.9 0-3.8 2.6-6.9 5.7-6.9z"/>
	<path id="Path 53" class="s8" d="m275.5 341.7h18.1c3.1 0 5.7 3.1 5.7 6.9 0 3.9-2.6 6.9-5.7 6.9h-18.1c-3.1 0-5.7-3-5.7-6.9 0-3.8 2.6-6.9 5.7-6.9z"/>
	<path id="Path 54" class="s8" d="m208.9 324.4h18.1c3.1 0 5.7 3.1 5.7 6.9 0 3.8-2.6 6.9-5.7 6.9h-18.1c-3.2 0-5.7-3.1-5.7-6.9 0-3.8 2.5-6.9 5.7-6.9z"/>
	<path id="Path 55" class="s8" d="m242.2 324.4h18.1c3.1 0 5.7 3.1 5.7 6.9 0 3.8-2.6 6.9-5.7 6.9h-18.1c-3.1 0-5.7-3.1-5.7-6.9 0-3.8 2.6-6.9 5.7-6.9z"/>
	<path id="Path 56" class="s8" d="m275.5 324.4h18.1c3.1 0 5.7 3.1 5.7 6.9 0 3.8-2.6 6.9-5.7 6.9h-18.1c-3.1 0-5.7-3.1-5.7-6.9 0-3.8 2.6-6.9 5.7-6.9z"/>
	<path id="Path 57" class="s8" d="m208.9 307h18.1c3.1 0 5.7 3.2 5.7 7 0 3.8-2.6 6.9-5.7 6.9h-18.1c-3.2 0-5.7-3.1-5.7-6.9 0-3.8 2.5-7 5.7-7z"/>
	<path id="Path 58" class="s8" d="m242.2 307h18.1c3.1 0 5.7 3.2 5.7 7 0 3.8-2.6 6.9-5.7 6.9h-18.1c-3.1 0-5.7-3.1-5.7-6.9 0-3.8 2.6-7 5.7-7z"/>
	<path id="Path 59" class="s8" d="m208.9 289.7h18.1c3.1 0 5.7 3.1 5.7 6.9 0 3.8-2.6 7-5.7 7h-18.1c-3.2 0-5.7-3.2-5.7-7 0-3.8 2.5-6.9 5.7-6.9z"/>
	<path id="Path 60" class="s8" d="m242.2 289.7h18.1c3.1 0 5.7 3.1 5.7 6.9 0 3.8-2.6 7-5.7 7h-18.1c-3.1 0-5.7-3.2-5.7-7 0-3.8 2.6-6.9 5.7-6.9z"/>
	<path id="Path 61" class="s8" d="m275.5 289.7h18.1c3.1 0 5.7 3.1 5.7 6.9 0 3.8-2.6 7-5.7 7h-18.1c-3.1 0-5.7-3.2-5.7-7 0-3.8 2.6-6.9 5.7-6.9z"/>
	<path id="Path 62" class="s8" d="m208.9 272.4h18.1c3.1 0 5.7 3.1 5.7 6.9 0 3.8-2.6 6.9-5.7 6.9h-18.1c-3.2 0-5.7-3.1-5.7-6.9 0-3.8 2.5-6.9 5.7-6.9z"/>
	<path id="Path 63" class="s8" d="m242.2 272.4h18.1c3.1 0 5.7 3.1 5.7 6.9 0 3.8-2.6 6.9-5.7 6.9h-18.1c-3.1 0-5.7-3.1-5.7-6.9 0-3.8 2.6-6.9 5.7-6.9z"/>
	<path id="Path 64" class="s8" d="m275.5 272.4h18.1c3.1 0 5.7 3.1 5.7 6.9 0 3.8-2.6 6.9-5.7 6.9h-18.1c-3.1 0-5.7-3.1-5.7-6.9 0-3.8 2.6-6.9 5.7-6.9z"/>
	<path id="Path 65" class="s8" d="m209.9 255h18.3c3.1 0 5.7 2.9 5.7 6.6 0 3.6-2.6 6.6-5.7 6.6h-18.3c-3.2 0-5.7-3-5.7-6.6 0-3.7 2.5-6.6 5.7-6.6z"/>
	<path id="Path 66" class="s8" d="m276 256.2h15.9c2.8 0 5 2.9 5 6.3 0 3.6-2.2 6.3-5 6.3h-15.9c-2.8 0-5.1-2.7-5.1-6.3 0-3.4 2.3-6.3 5.1-6.3z"/>
	<path id="Path 67" class="s8" d="m242.2 255.1h18.1c3.1 0 5.7 3.1 5.7 6.9 0 3.8-2.6 6.9-5.7 6.9h-18.1c-3.1 0-5.7-3.1-5.7-6.9 0-3.8 2.6-6.9 5.7-6.9z"/>
	<path id="Path 68" class="s8" d="m220 238.9h12.7c2.2 0 4 2.9 4 6.4 0 3.6-1.8 6.5-4 6.5h-12.7c-2.2 0-3.9-2.9-3.9-6.5 0-3.5 1.7-6.4 3.9-6.4z"/>
	<path id="Path 69" class="s8" d="m269.5 238.9h12.7c2.3 0 4 2.9 4 6.4 0 3.6-1.7 6.5-4 6.5h-12.7c-2.2 0-4-2.9-4-6.5 0-3.5 1.8-6.4 4-6.4z"/>
	<path id="Path 70" class="s2" d="m127.3 170.6l68.9 50.7-7.8 7-84.6-51z"/>
	<path id="Path 71" class="s2" d="m242.1 153.4l4.6 52.7-8.4 0.5-12.2-52.2z"/>
	<path id="Path 72" class="s2" d="m206.8 156.5l24.5 51-9.7 1.8-33.5-50.4z"/>
	<path id="Path 73" class="s2" d="m82.5 183.7l100.2 52-4.9 9.8-121.3-53.6z"/>
	<path id="Path 74" class="s2" d="m168.7 162.1l45.3 50.4-9.4 3.9-57.7-50.4z"/>
	<path id="Path 75" class="s2" d="m400.1 178.3l-85.2 49.9-7.7-7 69.6-49.8z"/>
	<path id="Path 76" class="s2" d="m278.1 153.8l-12.8 52.1-8.4-0.7 5.2-52.7z"/>
	<path id="Path 77" class="s2" d="m316.1 158.8l-34.1 50-9.7-1.9 25.1-50.7z"/>
	<path id="Path 78" class="s2" d="m447.4 193.6l-122.2 51.9-4.7-9.8 101-50.6z"/>
	<path id="Path 79" class="s2" d="m357.3 166.4l-58.4 49.7-9.4-4.1 45.9-49.7z"/>
	<path id="Path 80" class="s9" d="m6.3 555c3.4 218.7 483.9 221.8 487.2-0.3z"/>
	<path id="Path 81" class="s10" d="m16.5 564.8c17.4 192.8 449.8 195.6 466.7-0.3z"/>
	<path id="Path 82" fill-rule="evenodd" class="s11" d="m167.1 641.8c4.6 2.5 12.4 8.2 15.4 12.4 3.2 4.7 7.9 11.1 5.1 17-3.1 6.4-8.5 7-14.9 4.9 14.5-1.7 4.6-17.4-1.9-22 0.4 0.4 0.7 0.8 1 1.3 2.2 3.2 4.9 10.3 1.6 13.6-1.9 2.1-5.4 1.3-7.7 0.3 1.6-0.7 4.2-2 4.5-4 0.5-4.1-8.8-9.7-11.5-11.4-3.4-2.2-7.2-4-10.8-6-4-2.4-8.1-5-11.5-8.1-9.1-8.2-12.3-18.3-11.1-30.4 1.1-7.4 4.6-13.8 10.5-18.4 10.4-8.2 25.8-9.1 37.9-4.2 11.2 4.7 18.5 13.7 25.3 23.3 2.9 4 5.5 8.2 8.7 11.9 2.3 2.7 5.2 5.5 8.8 6.4 0.9 0.2 1.8 0.3 2.7 0.2 3.9-0.2 6.9-1.7 10.6-2.6l-2-6.1-12-10.3 2.2-30.7 21.3 22.6-1.8 14.8 2.1 4.3c2 0.2 4.3 0.7 5.1 2.9 0.8 2.3-0.4 5.2-1.3 7.4l8.2 21.5 8.2-21.5c-0.5-1.4-1.1-2.7-1.3-4.1-0.5-3.9 1.9-5.5 5.6-5.7l1.6-4.4-1.4-15.2 20.9-22.6 2.2 31.1-12 9.9-2 6.1c3.7 0.9 6.6 2.4 10.6 2.6 0.9 0.1 1.8 0 2.7-0.2 3.6-0.9 6.5-3.7 8.8-6.4 3.2-3.7 5.8-7.9 8.7-11.9 6.7-9.6 14.1-18.6 25.3-23.3 1.3-0.5 2.7-1 4-1.3 18.9-5.6 41.2 2.7 44.3 23.9 1.3 12.1-1.9 22.2-11 30.4-3.5 3.1-7.5 5.7-11.5 8.1-3.6 2-7.3 3.8-10.8 6-2.7 1.7-12.1 7.3-11.5 11.4 0.3 2 2.9 3.3 4.5 4-2.3 1-5.8 1.8-7.7-0.3-3.3-3.3-0.6-10.4 1.6-13.6 0.3-0.5 0.6-0.9 1-1.3-6.5 4.6-16.4 20.3-1.9 22-6.4 2.1-11.8 1.5-15-4.9-2.7-5.9 2-12.3 5.2-17 3-4.2 10.8-9.9 15.4-12.4-9 1.1-17.7 6.1-23.7 13-2.5 2.9-4.7 6.3-5.9 10-0.9 3-1.1 6.3 0.1 9.3 1 2.1 2.6 3.8 4.8 4.9 0.9 0.3 1.7 0.8 2.7 1.1 1.2 0.5 2.7 0.8 3.9 1.1-0.8 0.1-1.6 0.2-2.4 0.3-0.1 0.1-0.4 0.2-0.6 0.2-0.4 0-2.9-0.3-3.4-0.3-6-1.7-11.6-5.2-13.9-11.2-2.9-7.8 1.1-16.4 6.2-22.3 8.4-9.9 21.6-16.3 33.7-20.2 2.6-2 4-5.4 2.8-8.6-1.2-3.5-4.7-4.9-8.2-4.7-6.3 0.3-12.7 5.3-17.1 9.5-6.9 7.4-15.5 13.3-25.8 14.1-6.1 0.5-11.2-0.8-16.9-3l-3.1-1.8-12.6 32.4 11 26.4-10.3 2.7-5.8-15.6-5.8 15.6-10.3-2.2 11-26.9-12.6-32.4-3.2 1.8c-5.6 2.2-10.7 3.5-16.8 3-10.4-0.8-18.9-6.7-25.8-14.1-4.4-4.2-10.8-9.2-17.1-9.5-3.5-0.2-7 1.2-8.3 4.7-1.1 3.2 0.3 6.6 2.8 8.6 12.2 3.9 25.4 10.3 33.8 20.2 5 5.9 9.2 14.5 6.2 22.3-2.3 6-7.9 9.5-13.9 11.2-0.5 0-3 0.3-3.5 0.3-0.1 0-0.4-0.1-0.6-0.2-0.7-0.1-1.5-0.2-2.3-0.3 1.2-0.3 2.7-0.6 3.9-1.1 0.9-0.3 1.8-0.8 2.7-1.1 2.2-1.1 3.8-2.8 4.7-4.9 1.3-3 1-6.3 0.1-9.3-1.1-3.7-3.3-7.1-5.8-10-5.9-6.9-14.7-11.9-23.7-13zm0 0c-0.2 0-1.6-0.7-0.8 0 0.3 0 0.5 0 0.8 0zm169 0c0.3 0 0.6 0 0.8 0 0.7-0.7-0.6 0-0.8 0z"/>
	<path id="Path 83" class="s2" d="m269.3 633.2l-12.6 32.4 11 26.4-10.3 2.6-5.8-15.5-5.8 15.5-10.3-2.1 11-26.9-12.6-32.4-3.2 1.8c-6.8 2.7-23.9 9-42.6-11.1-20.6-19.9-31.6-3.6-22.6 3.9 44.5 13.9 52 46.3 26.1 53.6-5.7 0.5-1.3 0.4-6.4-0.2 4.6-1 3.1-0.9 6.6-2.2 14.9-8.1-2.2-35-25.5-37.2-2.2-2.1 11.7 6 16.2 12.5 4.4 6.3 7.6 11.5 5.1 16.8-2.5 5.3-7.1 7.6-14.9 5 14.8-1.7 4.2-17.7-1.9-22 6 7.2 6.4 19.8-5.1 15.2 8.2-3.6 5-7.9-7-15.4-12-7.5-36.3-15.3-33.4-44.5 3.5-23 29.1-30.5 48.4-22.6 24.9 10.4 30.8 42.6 45.5 41.8 4.2-0.2 7.1-1.7 10.6-2.6l-2-6.1-12-10.3 2.2-30.7 21.3 22.6-1.8 14.8 2.1 4.3c8.3 0.6 4.7 8 3.8 10.3l8.2 21.5 8.2-21.5c-0.9-2.3-4.1-9.3 4.3-9.8l1.6-4.4-1.4-15.2 20.9-22.6 2.2 31.1-12 9.9-2 6.1c3.5 0.9 6.4 2.4 10.6 2.6 14.7 0.8 20.6-31.4 45.5-41.8 19.2-7.9 44.9-0.4 48.4 22.6 2.9 29.2-21.4 37-33.4 44.5-12 7.5-15.2 11.8-7 15.4-11.5 4.6-11.1-8-5.1-15.2-6.2 4.3-16.7 20.3-1.9 22-7.8 2.6-12.4 0.3-15-5-2.4-5.3 0.8-10.5 5.2-16.8 4.5-6.5 18.4-14.6 16.2-12.5-23.3 2.2-40.4 29.1-25.6 37.2 3.5 1.3 2.1 1.2 6.7 2.2-5.1 0.6-0.7 0.7-6.4 0.2-25.9-7.3-18.4-39.7 26.1-53.6 9-7.5-2-23.8-22.6-3.9-18.7 20.1-35.9 13.8-42.6 11.1z"/>
	<path id="Path 84" class="s2" d="m223.9 100.9l-3.3-63.2c15.5-1.7 31.7-1.3 48.8-1.3l0.3 15.9-28.6 0.8 0.2 8.6 24.2-0.7 0.4 13.2-24.3 0.7 0.3 9.2 29.8-0.8 0.2 16.8c-16.1-0.2-31.3-0.1-48 0.8z"/>
	<path id="Path 85" class="s2" d="m59.2 137.1l-20.8-54.3 18.3-7.3 8.7 23.5 7.5-29.5 20.4-6.9-10.4 29.8 34.9 25.4-21.9 6.8-23.2-19.8-2.7 6.3 7.7 19z"/>
	<path id="Path 86" class="s2" d="m139.1 114.3l-12.2-59.4 18.7-4.2 4.5 20.8 17.6-3.6-4.1-20.9 18.9-3.4 12 60.5-18.7 2.7-4.9-22.9-17.6 3.5 4.7 23c-5.7 0.8-12.1 2-18.9 3.9z"/>
	<path id="Path 87" class="s2" d="m358.7 48.3l-5.4 26.1 20.6-22.6 20.5 5.3-24.9 21.6 19 39.3c-8-2.7-16.1-4.3-24.1-5.9l-8.9-29.6-4.3 3.3-4.1 23.1-17.3-2.8 5-23.3-2.8-4.6-19.8 25.8c-8.6-1.6-16.1-2.6-23-2.9l31.2-31.5-16.4-30.6 22.1 2.9 10.8 29.5 4.9-26.3z"/>
	<path id="Path 88" fill-rule="evenodd" class="s2" d="m400.2 120.5l41.1-50.2 20.6 8.2-2.5 62.2-18.1-6.9 0.2-7.1-18.1-6.7-4.1 6zm30.3-11.7l11.8 4.2 2-23.3z"/>
</svg>