<svg version="1.2" xmlns="http://www.w3.org/2000/svg" viewBox="0 0 1124 1488" width="1124" height="1488">
	<title>Pazardzhik-pdf</title>
	<style>
		.s0 { fill: #37a848;stroke: #f6c21f;stroke-width: 32 } 
		.s1 { fill: #f6c21f } 
		.s2 { fill: #ffffff } 
		.s3 { fill: #ffffff;stroke: #ffffff;stroke-width: 1 } 
	</style>
	<path id="Path 1" class="s0" d="m18 16.6h73.6c197.2 0 134.6 160.1 230.5 167.1 92.8 6.8 127.4-156.3 237.7-165.8 104.2-8.9 131.4 147.7 231.7 165.2 97.2 16.9 55.8-166.5 233-166.5h81.8v694.1c0 243.1-10.4 382.5-137 508.3-45.8 45.5-343.6 251.1-403 251.1-52.7 0-337.1-180.8-378.6-218.3-112.6-101.5-169.7-217.3-169.7-426.8z"/>
	<path id="Path 2" class="s1" d="m663.3 614.4c-12.3 9.7-13.6 8.2-32.8 11.7-12.2-7.6-23.9-8.2-48.5 4.8-31.8 16.8-44.7 30.5-89.6 95.1-22.5 32.2-28.7 36-59.2 36-26.4 0-38.3 5.1-53.1 22.7-44.8 53.3-48.6 55.5-88 51.6-22.2-2.3-46.7 0.9-59.8 7.7-30 15.5-33.3 14.8-53.6-10.9-18.9-24.1-19.9-34.3-19.5-208.5 0.2-116.9 5.2-159.1 23.3-197.2 22.4-47 32.6-48.9 243.6-45.9 191.2 2.7 191.5 2.7 225.8 25.3 61.1 40.4 84.2 121 49.6 173.6-9.6 14.7-24.4 23.1-38.2 34z"/>
	<path id="Path 3" fill-rule="evenodd" class="s2" d="m398.7 593.8l7-34.5-41.2 10h-58.2c-20 0-24.4 13.1-41.6 24.3l1-45.9 40.6-19.1h-41.6l0.9-35.6 65.6 19.4c-1.9-22.9 0.2-32.5-24.9-32.5h-33.2l1.2-35 56.9 26.9c-11.9-43.8-35.6-12.7-49.8-65 20.6 13.5 87.6 73.1 108 73.1h33.3v-16.3h-16.6v-24.3c0-13.3 4.9-24.4 16.6-24.4 19 0 9.7 2.7 32.1 8.3l9.5 24.2c-14.5 30.6-15.5 15.4 6.6 31.8l18.3-48.1c40.8 9.3 87.5 18.3 91 65.7l-15.8-6.6-41.3 5.6 26.8 52.8c2.7 5.5 0.5 23.5-2.5 28.8 23.9-5.5 48.3-24.4 49.9-24.4 7.1 0 66.5 45.5 66.5 56.9 0 16.6-17.1 14.9-33.3 16.2-1.6-19.1-7.5-40.6-24.9-40.6-16.5 0-48.8 35.3-71.9 47l-19.6-22.6c5.4 21.8 8.4 15.3 8.4 32.5 0 12.9-45.3 56.5-58.2 65v40.6c-7.6-5-25-13.2-25-24.4 0-26.4 7.2-6.1 16.6-40.6-53.1 4.3-31.6 58.1-114.5 65.5l-10.2 32v16.3c0 18.6 2.9 9.4 8.4 32.5-0.2 0.1-15.6 8.1-16.7 8.1-11.6 0-16.6-11.1-16.6-24.4l-0.7-16.7 9-15.8v-40.6c0-29 18.3-21.6 41.6-32.5-19.9-29-16.4-22.5-33.1-56.4l-21.5 8.2c-15.5 6-3.6 31.9-3.6 48.2 0 24.8-8 32.8-16.6 48.7v32.5c-14-9.5-16.7-1.1-16.7-24.3v-81.3c0-31.1 2.6-2.9-8.3-24.4l33.3-32.5c10.1 5.6 8.9 8.2 24.9 8.2h8.3c14.5 0 38.8-28.2 49.8-24.1l41.7 15.9h16.6zm59.6-22.1l-10.6-10.5 3.3 21.3 13.3 3zm-60.5-51.1h-58.2c23.4 19.9 17.4 16.3 58.2 16.3zm-24.8-33l-26.6-7.1 9.4 24zm109.4 152.2l-26.5-13.6h-24.9zm-13.4-121.5l-15.9 24.8z"/>
	<path id="Path 4" class="s1" d="m18.1 210.4h1092.8v156.2h-1092.8z"/>
	<path id="Path 5" class="s3" d="m87.6 340.3h-25.9v-106.9h76.7v106.9h-25.9v-81.9h-24.9z"/>
	<path id="Path 6" fill-rule="evenodd" class="s3" d="m248.9 233.4v106.9h-26v-23.3h-24.8v23.3h-26v-81.8c0-12.5 12-25.1 26.1-25.1zm-25.9 60.7v-35.7h-24.9v35.7z"/>
	<path id="Path 7" class="s3" d="m334.2 233.4c16.6 0 25.6 7.7 25.6 24v15c0 5.3-5.2 10.6-11.1 13.9 5.5 3.1 11.1 4.1 11.1 14v15.3c0 16.2-9 23.9-25.6 23.9h-51.1v-25.2l50.8 0.3v-15.5h-41.5v-25.2h41.5v-15.5l-50.8 0.2v-25.2z"/>
	<path id="Path 8" fill-rule="evenodd" class="s3" d="m468.9 233.4v106.9h-26v-23.3h-24.9v23.3h-25.9v-81.8c0-12.5 12-25.1 26.1-25.1zm-50.8 60.7h24.9v-35.7h-24.9z"/>
	<path id="Path 9" fill-rule="evenodd" class="s3" d="m556.6 233.4c14.1 0 29 12.3 29 24.8v36.2c0 15.9-8.7 22.6-25.9 22.6h-24.9v23.3h-25.9v-106.9zm-21.8 60.7h24.9v-35.7h-24.9z"/>
	<path id="Path 10" fill-rule="evenodd" class="s3" d="m670.9 233.4h26l0.3 106.9h-77.6l0.5-65.9c0-19.5 20.1-41 50.8-41zm-24.8 42v44.4h24.8v-61.4c-17.5 0-24.8 3.9-24.8 17z"/>
	<path id="Path 11" class="s3" d="m758.5 282.8h25.9l-2.2 3.8-2.2 3.7-4.8 8-24.9 41.5h-25.9l31.9-53.2z"/>
	<path id="Path 12" class="s3" d="m775.2 233.4h25.9v42.3l-4.3 7.1h-4.5l2.3 3.8-2.3 3.7h4.5l4.3 7.2v42.8h-25.9v-42l4.8-8h4.4l-2.2-3.7 2.2-3.8h-4.4l-4.8-8z"/>
	<path id="Path 13" class="s3" d="m758.5 282.8l-2.2 3.8-31.9-53.2h25.9l24.9 41.4 4.8 8z"/>
	<path id="Path 14" class="s3" d="m852.4 233.4l-31.9 53.2-2.3-3.8h-21.4l4.3-7.1 25.3-42.3z"/>
	<path id="Path 15" class="s3" d="m820.5 286.6l31.9 53.2h-26l-25.3-42.3-4.3-7.2-2.2-3.7-2.3-3.8h25.9z"/>
	<path id="Path 16" class="s3" d="m932.7 233.4h25.9v106.9h-52c-15.2 0-24.7-7.7-24.7-26.1v-80.8h25.9v81.9h24.9z"/>
	<path id="Path 17" class="s3" d="m1018.3 233.4v42.3l-4.2 7.1h-4.5l2.2 3.8-2.2 3.7h4.5l4.2 7.2v42.8h-25.9v-106.9z"/>
	<path id="Path 18" class="s3" d="m1035.5 282.8l2.2 3.8 31.9 53.2h-25.9l-25.4-42.3-4.2-7.2-2.3-3.7-2.2-3.8z"/>
	<path id="Path 19" class="s3" d="m1043.7 233.4h25.9l-31.9 53.2-2.2-3.8h-21.4l4.2-7.1z"/>
	<path id="Path 20" class="s1" d="m1059.7 416.2l0.5 79.8-5.6 311.4-1.3 71.4c-7.1 1.7-18.8 10.4-29.5 13.7-9 2.8-19.1 5.5-31 5.5h-2.3c-25 0-42.9-9-60-17.7-21.8-11.2-29.9-14.4-60.4-16.3-48.4-3-73.6 34-119.4 34h-2.2c-24.4 0-43.1-9.2-60-17.7-21.4-10.8-30.6-14.5-60.5-16.3-23.7-1.5-44.9 8.6-60.7 15.9-19.1 8.8-30.3 18.1-58.6 18.1h-5.5l-14.8-2.6z"/>
	<path id="Path 21" class="s2" d="m503.8 896.8h5.5c28.3 0 39.4-9.3 58.5-18.1 15.8-7.3 36.9-17.4 60.7-15.9 29.8 1.8 39 5.5 60.3 16.3 16.9 8.5 35.6 17.7 60.1 17.7h2.2c45.7 0 70.8-37 119.2-34 30.5 1.8 38.5 5.1 60.3 16.2 17.1 8.8 35 17.8 60 17.8h2.3c11.9 0 22-2.7 31-5.5 10.7-3.4 22.4-12 29.4-13.7l-0.7 17.3c-0.3 8.5-1.6 21.3-2.8 27.5-12.7 1.1-30.7 11.7-53.6 11.7h-12.2c-48 0-70.8-32.8-108.2-32.8h-11c-40.6 0-60 32.8-111.5 32.8h-11.1c-48.2 0-70.8-32.8-108.2-32.8h-12.1c-39.7 0-57.2 32.8-110.4 32.8h-10c-18.1 0-31.8-5.5-46.3-9l-1.1 1.1-2.2 1.2-1.1 1.1-1.2 1.1-2.2 2.3 2.2-2.3 1.2-1.1 1.1-1.1 2.2-1.2 1.1-1.1 34.2-30.6zm-46.7 84c15.3 6.4 26.6 12.9 48 12.9 46.1 0 66.5-35.1 118.8-35.1 54.1 0 72.6 35.1 121.1 35.1 48.2 0 66.4-35.1 119.9-35.1 53.9 0 72.3 35.1 121 35.1 7.2 0 20.4-1.6 25.5-3.2 6.8-2.1 15.7-6.9 20.7-8.1l9.3-5.5c-0.4 8.3-2.9 16.7-4.7 24.9-1.6 7.3-4.8 16-8.4 22.6l-12.8 3.8c-2.9 0.8-29.9 2-32.9 1.8-19.4-1.6-45.3-7-58.3-13.6-13.2-6.8-32.5-19.3-51.7-19.3h-14.3c-12.2 0-19.8 4.3-29.1 7.5-11 3.7-15.3 9-23.6 11.9-18.5 6.6-31 13.5-57.3 13.5h-6.6c-53.1 0-75.5-32.9-110.1-32.9h-16.5c-9.6 0-20.6 5.1-27.6 7.8-10.2 3.9-16.2 9.6-23.4 12.1-19.7 6.8-31.2 13-57.9 13h-2.2c-24.6 0-40.7-6.2-58.7-13.3-8.1-3.1-14.1-8.2-24.2-12.4-7.5-3.2-18.3-7.2-28.2-7.2h-5.5l-15.4 2.3 44-37.4c9.2 6.6 30.1 14.2 41.1 18.8zm-171.8 105.2c14.6 0 38.3-12.6 49.1-18.5 14.5-7.8 33-13.2 54.3-13.2h3.3c50.7 0 72.3 34 117.7 34 50.2 0 65.7-34 121.1-34h1.1c54.1 0 71 34 119.9 34 47.9 0 65-34 119.9-34h1.1c31.8 0 46.3 9 67.9 19.6 9.8 4.8 20.2 9.4 31.4 11.8 8.1 1.8 32.3 3.8 39.4 0.3l-22.7 40.2c-1.3-0.8-26.3-4-31-5.3-6.8-1.9-20.9-7.1-27.4-10.4-16.5-8.4-33.8-18.9-57.6-18.9-46.2 0-63.1 34-118.8 34h-2.2c-54.3 0-82.7-36.4-121-34-51.4 3.2-61.3 34-120 34h-1.1c-53.4 0-82.8-36.9-121-34-28.8 2.2-38.1 8.9-58.3 19.3-12.6 6.5-41.1 17.1-61.6 14.7l-29.8-3.4 44.1-36.2h1.1z"/>
	<path id="Path 22" class="s1" d="m269.4 1125.2c20.5 2.3 49-8.3 61.6-14.8 20.2-10.3 29.6-17 58.3-19.2 38.2-3 67.6 34 121.1 34h1.1c58.7 0 68.5-30.8 119.9-34.1 38.3-2.3 66.8 34.1 121 34.1h2.2c55.7 0 72.6-34.1 118.9-34.1 23.8 0 41.1 10.5 57.6 18.9 6.4 3.4 20.5 8.6 27.3 10.4 4.7 1.3 29.3 4.5 30.5 5.3-83.1 109.3-307.7 237.9-422.4 297.3-5.7 2.9-345-182.2-388.2-248.9l61.4-52.3z"/>
</svg>