<svg version="1.2" xmlns="http://www.w3.org/2000/svg" viewBox="0 0 1018 1248" width="1018" height="1248">
	<title>Montana-pdf</title>
	<style>
		.s0 { fill: #ed1c24 } 
		.s1 { fill: #0994dc } 
		.s2 { fill: #fff200 } 
	</style>
	<path id="Path 1" fill-rule="evenodd" class="s0" d="m990.8 469.8c-0.5-10.9-9.4-19.4-20.3-19.4-0.7 0-1.5 0-2.4 0-0.8 0.1-1.6 0-2.3 0-4.2 0-8.5 0-12.8 0-8.5 0-17.2 0-25-0.1v-181.1l43.8 40.5 44.1-40.5c-2.5 91.8 0 255.7 0 275.9 0 12.8 0 26.5 0 39.3 0 6.5-1.8 11.8-7.5 13.2-1.3 0.4-2.4 0.6-3.5 0.6-1.7 0-3.3-0.3-4.9-1-5.1-2-8.9-6.8-8.9-12.8 0-11 0-22.6 0-33.6v-81zm-20.4-11.2c6.6 0 12.2 5.6 12.2 12.3 0 1.1 0.3 2.1 0.1 3.2v123.4h-24.6c0-41.3 0.1-83.5 0.1-123.8 0-0.5 0-0.9 0-1.4 0-0.4-0.1-1-0.1-1.4 0-6.7 5.3-12.3 12.3-12.3zm-16.8 0.4c-2 3.1-3.3 6.7-3.6 10.6l-0.3 3.6 0.2 49.9c0 103.6 1.4 208.9 0 312.8 0 10.3-6 41.3-8.9 50.8-0.4 2.9-2 9.2-5.2 18.1-1.2 4.5-2.9 8.7-5.6 15.1-6.5 13.2-7.2 14.9-9.6 20.6-0.1 0.1-0.1 0.1-0.1 0.1-1 2.4-1.5 5-1.5 7.9 0 2.8 0.5 5.5 1.5 7.8l-66.2-29.6c-7.7-2.2-13.3-9.5-13.3-18.1 0.5-7.5 9.3-21.7 12.7-34.8 3.3-9.8 4.1-15.4 6.2-25.7 3.6-22.7 3.1-44.7 3.2-67 0.2-22.2-0.1-45.8 0-67.8 0-21.8 0-45.1 0-67.1l0.4-68-0.4-105.2c0-7.8 6.6-14 14.1-14 25.2 0 51 0 76.4 0zm-2.9 494.8c-0.4 1.2-1.7 2.7-2.8 3.7-1.1 0.9-2.9 2.2-3.9 2.3-0.9 0.2-3 1.1-4.7 1.1-6.7 0-12.3-5.5-12.3-12.2 0-0.8 0.3-2 0.5-2.7 0.1-0.7 0.2-2.1 0.5-2.1 0.4-0.1 1-1.6 1.1-2 1.7-3.5 3.2-7.4 4.9-10.8 1.1-1.8 2.7-6.1 3.8-7.9 6.2-16.2 8.5-22.6 13.3-42.9 4.8-16.7 8.1-52.8 8.3-89.1 0-17.8-0.2-22.7-0.2-39.2 0-16.4-0.3-31-0.3-41.3 0 0 35 33 57.7 54.3-3.5-2.4-7.5-3.8-12.1-3.8-11.2 0-20.6 9.2-20.6 20.7 0 1.3 0 3 0 4.3v43.7c-1 9.5-2.1 23.1-4.2 32.6-2.2 15-5.4 29.2-9.8 44.3l-7.6 21.4c-2.8 6.7-4.8 11.2-5.6 13.5-1.7 4.1-4.3 8.2-6 12.1zm12.1-6.1c3.6-7.8 2-3.9 5.6-12 3.9-10 5.6-15.8 9.2-25.9 6.4-20.9 10-39.8 12.2-63.2 2.3-23.1 2.3-46.8 2.3-65.2 0-6.9 5.8-12.5 12.5-12.5 6.7 0 12 5.6 12 12.5 0 16.5 1.4 27 0 43.5-3.1 38.7-3.9 39.8-7 57.6-1.9 10.1-4.4 20.1-7.2 29.6-5.3 15.8-4.5 15.6-10.3 29.5l-8.1 18.4c-5.3 10.3-8.4 17.8-15.6 28.6l-9.2 14.5c-26.7 41-50.1 63.5-95.5 95.3-0.3 0.3-0.6 0.5-0.6 0.8-4.7 3.9-7.8 9.8-7.8 16.2 0 4.2 1.1 8.1 3.4 11.1-14.8-17.8-38.5-48.7-50.2-63.2-0.4-0.7-0.7-1.4-1.1-2.1-4-3.8-6.4-9.2-6.4-15.2 0-7.6 4.2-14.3 10.5-17.8 0.1-0.1 0.2-0.3 0.4-0.3 8.9-5.5 28.4-21.4 36.7-28.4 19.3-16.4 32.3-37.4 41.5-49.7 14.5 7.1 27.6 12.7 42.2 18.2 2.1 0.7 4.6 1.3 7 1.3 9.3 0 17.3-6.1 19.8-14.6 1.2-2.4 2.5-4.9 3.7-7zm-265.1 300.1c-6.1-1-10.6-6.1-10.6-12.1 0-5.8 3.8-10.4 9-11.8 1.3-0.7 3.5-1.4 4.1-1.4 1.2-0.2 2.9-1 4-1.1 1.1-0.2 2.9-1 3.9-1.2 10.5-2.6 21.2-6.5 31.5-10.1 19.9-7 39.5-15.1 58.8-24q0.4-0.3 0.9-0.5 0.4-0.3 0.7-0.7c5.1-3.8 8.1-9.6 8.1-16.3 0-4.3-1.2-8.2-3.5-11.6v-0.5l-17.2-36.2 19.9-9.9 8.2-4.1c3.5-1.6 5.6-6.4 5.6-10.4 0-1.5-0.2-2.9-0.7-4.3l6.8 8.9c0.1 0 2.8 3.5 5.4 6.8 5.3 6.7 10.2 13 14.8 18.9 4.4 5.9 12.8 14.8 14.7 19 0 0 0.3 0.5 0.9 1.2 3.7 4.2 6.9 9.4 6.9 15.5 0 6.7-3.3 12.7-8.3 16.4 0 1.4-23.5 14.8-26.3 15.9-5.9 2.2-15.5 8.2-23.3 12.1-7.8 3.9-15.6 7.8-23.2 11.2-18.1 7.9-35.3 14.4-51.9 19.7-8 2.5-17.2 5.7-25.7 7.8-1.8 0.5-7.1 3.1-13.5 2.8zm101.6-62.2c-1.8 1.9-2.2 2.3 1.3-0.6q-0.7 0.3-1.3 0.6zm-127.4 32.6c-0.4-1.9-1.9-5.2-2.8-8-1.9-5.6-4-11.5-4.2-11.7 39.6-10 75.5-22.8 112.9-38.7 4.4-2.1 5.2-3.2 9.6-3.2 6.8 0 12.4 5.7 12.4 12.4 0 5.7-4.1 10.6-9.4 12.1-7.8 3.4-23.9 10.2-30.1 12.5-10 3.9-20.3 7.6-29.8 10.9-10.5 3.8-10.8 3.9-32.8 10.5-10.5 2.3-19 10.1-19 21 0 1.4 0.3 2.8 0.5 4-2.3-6.4-7-20.5-7.3-21.8zm118.1-70.1c-0.8-0.1-1.8-0.1-2.8-0.1-5.5 0-16.3 5.5-21.8 8-2.5 1.2-5.2 2.6-7.7 3.5-2.4 1-5.1 2.3-7.8 3.2-2.6 1-5.3 2.3-7.9 3.2-2.5 1-5.3 2.3-8 3.2-2.6 1-5.3 2.3-8.1 3.1-2.3 0.8-5.4 2.1-7.9 2.8-2.5 0.7-5.7 2.1-8.2 2.8-2.5 0.7-5.4 1.6-8.2 2.5-2.8 0.8-5.7 1.9-8.5 2.6-2.5 0.7-5.7 1.8-8.4 2.4-2.6 0.5-5.8 1.8-8.5 2.4-2.6 0.5-5.8 1.5-8.5 2-2.6 0.6-5.8 1.7-8.7 2.3-2.7 0.5-5.7 1.2-8.5 1.8-2.8 0.5-5.9 1.4-8.8 1.8-2.6 0.4-6 1.3-8.8 1.7-2.8 0.4-6.1 1.2-8.9 1.6-2.8 0.3-6 1-8.8 1.3-2.8 0.3-6.1 1-9 1.4-2.9 0.3-6 0.8-9.1 1.2-3 0.5-6.4 0.9-9.3 1.2-2.9 0.1-6.1 0.6-9.1 0.8-2.9 0.1-6.4 0.7-9.3 0.8-2.9 0-6.2 0.6-9.3 0.6-3.1 0-6.4 0.7-9.6 0.7-2.9 0-6.4 0.3-9.5 0.3-3.1 0-6.4 0.4-9.6 0.4-3.1 0-6.4 0.1-9.6 0.1-3.2 0-6.7 0.3-10 0.3q-1.3 0-2.5 0-1.3 0-2.6 0c-3.3 0-6.8-0.3-10-0.3-3.2 0-6.5-0.1-9.6-0.1-3.2 0-6.5-0.4-9.6-0.4-3.1 0-6.5-0.3-9.5-0.3-3.2 0-6.5-0.7-9.6-0.7-3 0-6.4-0.6-9.3-0.6-2.9-0.1-6.4-0.7-9.3-0.8-3-0.2-6.2-0.7-9.1-0.8-2.9-0.3-6.3-0.7-9.3-1.2-3.1-0.4-6.1-0.9-9.1-1.2-2.9-0.4-6.2-1.1-9-1.4-2.8-0.3-6-1-8.8-1.3-2.8-0.4-6.1-1.2-8.9-1.6-2.8-0.4-6.1-1.3-8.8-1.7-2.9-0.4-6-1.3-8.8-1.8-2.7-0.6-5.8-1.3-8.4-1.8-3-0.6-6.2-1.7-8.8-2.3-2.7-0.5-5.9-1.5-8.5-2-2.7-0.6-5.9-1.9-8.5-2.4-2.7-0.6-5.9-1.7-8.4-2.4-2.8-0.7-5.7-1.8-8.5-2.6-2.7-0.9-5.7-1.8-8.2-2.5-2.5-0.7-5.7-2.1-8.2-2.8-2.5-0.7-5.6-2-7.9-2.8-2.8-0.8-5.5-2.1-8.1-3.1-2.7-0.9-5.4-2.2-7.9-3.2-2.7-0.9-5.3-2.2-8-3.2-2.6-0.9-5.4-2.2-7.8-3.2-2.5-0.9-5.1-2.3-7.6-3.5-5.6-2.5-16.3-8-21.9-8-1 0-2 0-2.8 0.1l8.4-18 6.8-14.7 6.9-14.9 6.9-14.8c3.2-7.4 12.1-12.7 20.4-12.7 4.1 0 8.7 1.9 12.2 3.2 2.7 1.2 6.1 2.8 9.1 3.9 3.1 1.2 6.5 2.6 9.5 3.7 2.8 0.8 6.4 2.5 9.2 3.3 3.1 1.1 6.7 2.5 9.5 3.4 3 0.8 6.4 2.2 9.4 3.3 3.1 0.8 6.7 2.2 9.8 3.1 3.1 0.8 6.4 2.2 9.5 3 42.3 10.9 84.1 17.6 127.8 19.5 8.4 0.3 17 0.3 25.4 0.3 8.3 0 16.9 0 25.3-0.3 43.7-1.9 85.5-8.6 127.8-19.5 3.1-0.8 6.4-2.2 9.5-3 3.1-0.9 6.7-2.3 9.8-3.1 3-1.1 6.4-2.5 9.4-3.3 2.8-0.9 6.4-2.3 9.5-3.4 2.8-0.8 6.4-2.5 9.2-3.3 3.1-1.1 6.4-2.5 9.5-3.7 3-1.1 6.4-2.7 9.2-3.9 3.4-1.3 8-3.2 12.1-3.2 8.3 0 17.2 5.3 20.4 12.7l6.9 14.8 6.9 14.9 6.9 14.7zm-450.7 92c0.1-1.3 0.4-2.7 0.4-4.1 0-10.9-8.5-18.7-18.9-21-22-6.6-22.3-6.7-32.9-10.5-9.5-3.3-19.8-6.9-29.8-10.8-6.1-2.4-22.3-9.2-30.1-12.6-5.3-1.5-9.3-6.4-9.3-12.1 0-6.7 5.6-12.4 12.4-12.4 4.3 0 5.1 1.1 9.6 3.2 37.3 15.9 73.3 28.7 112.8 38.8-0.1 0.1-2.2 6.1-4.2 11.6-0.8 2.8-2.3 6.2-2.8 8-0.2 1.4-5 15.4-7.2 21.9zm-32 5c-8.5-2.1-17.7-5.3-25.8-7.8-16.6-5.3-33.7-11.9-51.8-19.8-7.7-3.4-15.5-7.3-23.3-11.2-7.8-3.8-17.4-9.8-23.2-12.1-2.8-1.1-26.3-14.5-26.3-15.8-5-3.8-8.4-9.8-8.4-16.5 0-6.1 3.2-11.3 7-15.4 0.5-0.7 0.8-1.3 0.8-1.3 2-4.2 10.3-13.1 14.8-18.9 4.6-6 9.4-12.3 14.7-19 2.7-3.3 5.3-6.8 5.5-6.8l6.8-8.9c-0.6 1.4-0.7 2.8-0.7 4.3 0 4.1 2.1 8.8 5.6 10.5l8.2 4 19.9 9.9-8.6 18.1-8.7 18.1v0.5c-2.2 3.4-3.5 7.3-3.5 11.6 0 6.7 3.1 12.5 8.1 16.3q0.4 0.4 0.7 0.7 0.5 0.3 1 0.6c19.2 8.9 38.8 16.9 58.8 23.9 10.3 3.6 21 7.5 31.4 10.2 1 0.1 2.8 0.9 3.9 1.1 1.1 0.1 2.8 1 4.1 1.1 0.5 0 2.8 0.7 4 1.4 5.3 1.4 9.1 6 9.1 11.8 0 6-4.5 11.2-10.6 12.1-6.4 0.3-11.7-2.3-13.5-2.7zm-89.4-60.1c3.4 2.9 3 2.5 1.2 0.6q-0.6-0.2-1.2-0.6zm-158.5-230.3c2.5 8.5 10.4 14.6 19.8 14.6 2.3 0 4.8-0.5 6.9-1.2 14.6-5.6 27.7-11.2 42.2-18.3 9.2 12.3 22.3 33.3 41.5 49.7 8.4 7 27.9 22.9 36.8 28.5 0.1 0 0.3 0.1 0.4 0.2 6.3 3.5 10.4 10.2 10.4 17.9 0 5.9-2.3 11.4-6.4 15.1-0.4 0.7-0.7 1.4-1.1 2.1-11.7 14.5-35.3 45.4-50.1 63.3 2.2-3.1 3.3-7 3.3-11.2 0-6.4-3-12.2-7.8-16.1 0-0.3-0.2-0.6-0.5-0.9-45.4-31.7-68.8-54.3-95.6-95.2l-9.2-14.5c-7.2-10.9-10.3-18.4-15.5-28.7l-8.1-18.4c-5.9-13.9-5-13.6-10.3-29.5-2.8-9.5-5.3-19.5-7.3-29.5-3-17.9-3.9-19-6.9-57.7-1.4-16.4 0-27 0-43.4 0-7 5.3-12.6 11.9-12.6 6.7 0 12.6 5.6 12.6 12.6 0 18.3 0 42 2.2 65.1 2.2 23.4 5.9 42.4 12.3 63.3 3.6 10 5.2 15.8 9.1 25.9 3.7 8 2 4.1 5.6 11.9 1.3 2.1 2.5 4.6 3.8 7zm2.3-13c-0.8-2.3-2.7-6.8-5.5-13.5l-7.7-21.4c-4.3-15-7.5-29.2-9.7-44.3-2.1-9.5-3.2-23.1-4.2-32.6 0-1.2 0-46.6 0-48 0-11.4-9.5-20.6-20.6-20.6-4.6 0-8.7 1.4-12.1 3.7 22.7-21.3 57.6-54.3 57.6-54.3 0 10.3-0.3 24.9-0.3 41.4 0 16.4-0.1 21.3-0.1 39.1 0.1 36.4 3.5 72.4 8.2 89.1 4.9 20.4 7.1 26.8 13.4 42.9 1.1 1.8 2.6 6.2 3.7 8 1.7 3.3 3.2 7.2 4.9 10.7 0.2 0.4 0.7 1.9 1.1 2.1 0.3 0 0.5 1.4 0.6 2.1 0.1 0.7 0.4 1.8 0.4 2.6 0 6.7-5.6 12.3-12.2 12.3-1.7 0-3.8-1-4.8-1.1-1-0.2-2.8-1.4-3.9-2.4-1.1-1-2.3-2.5-2.8-3.6-1.6-3.9-4.3-8.1-6-12.2zm79.6-482.6c7.5 0 14 6.1 14 13.9l-0.4 105.3 0.4 67.9c0 22 0 45.3 0 67.2 0.2 22-0.1 45.5 0 67.8 0.2 22.3-0.4 44.3 3.2 67 2.1 10.3 3 15.8 6.3 25.6 3.3 13.1 12.1 27.3 12.7 34.8 0 8.6-5.6 15.9-13.4 18.1l-66.1 29.7c0.9-2.4 1.5-5 1.5-7.8 0-3-0.6-5.6-1.5-8 0 0 0 0-0.2-0.1-2.3-5.7-3.1-7.4-9.6-20.6-2.6-6.4-4.3-10.6-5.6-15.1-3.2-8.9-4.7-15.1-5.1-18.1-2.9-9.4-8.9-40.5-8.9-50.8-1.4-103.9 0-209.2 0-312.8l0.1-49.8-0.3-3.6c-0.2-4-1.5-7.6-3.6-10.6 25.5 0 51.3 0 76.5 0zm-113.9 10.7c0 11 0 103.6 0 114.6 0 6-3.8 10.9-9 12.8-1.5 0.7-3.2 1-4.8 1-1.2 0-2.3-0.1-3.5-0.6-5.7-1.4-7.5-6.6-7.5-13.2 0-12.8 0-26.5 0-39.3 0-20.2 2.5-184.1 0-275.9l44.1 40.6 43.7-40.6v181.1c-7.8 0.1-16.4 0.1-24.9 0.1-4.3 0-8.6 0-12.8 0-0.7 0-1.5 0.2-2.4 0-0.8 0-1.6 0-2.3 0-10.9 0-19.8 8.5-20.4 19.4zm33 1.1c0 0.4-0.1 1-0.1 1.4 0 0.6 0 1 0 1.4 0 40.4 0.1 82.6 0.1 123.8h-24.6v-123.4c-0.2-1.1 0.1-2.1 0.1-3.2 0-6.7 5.6-12.3 12.3-12.3 6.9 0 12.2 5.6 12.2 12.3zm42.2 327.3c-0.4 0.1-1.4 0.4-1.9 0.3-1.2-0.3-1.7-2.2-1.6-3.7h-2.6v1.9c0.6 4.1 0.6 8.3 0 12.4v2.3h2.5c0.3-2.2 1.2-3.1 1.7-3.5q0.5-0.4 1-0.6c0.3-0.1 0.6-0.3 0.9-0.4l37.5-13.5c1.6-0.6 1.3-2.5-0.1-3.1l-37.4-15.5c-2.4-1.1-3.1-2.4-3.6-5.1h-2.5v2c0.6 3.7 0.6 7.4 0 11.2v1.9h2.5c0.1-0.2 0.1-0.4 0.1-0.6 0.1-0.4 0.2-0.8 0.2-1.2 0.6-1.9 1.6-2.4 2.4-2.5 0.2 0 1.4-0.1 4 0.6 1.2 0.4 2.4 0.8 3.6 1.2 0.5 0.1 1 0.3 1.5 0.4v12.7zm12.1-4.1v-10.1l13.8 5.4zm1.5-56.6c0 2.1 0.2 6 0.3 8.1h-13.8c-2.9 0-3.5-1.8-3.7-4.5h-2.5v1.9q0.9 6.3 0 12.9v1.9h2.5c0.2-2.7 0.8-4.5 3.7-4.5h29.1c2.9 0 3.5 1.8 3.6 4.5h2.5v-1.9c-0.5-4.2-0.5-8.5 0-12.9v-1.9h-2.5c-0.1 2.9-0.8 4.5-3.6 4.5h-11.4c0-1.5 0-2.9-0.1-4.4q-0.1-1.9-0.1-3.7c0-1.2 0-2.5 0.1-3.7 0.1-1.5 0.1-3 0.1-4.5h11.4c0.3 0 0.6 0 0.9 0.1 0.4 0 0.7 0 1 0.2 0.9 0.5 1.6 1.7 1.7 4.3h2.5v-2q-0.8-6.5 0-12.9v-1.9h-2.5c-0.1 2.8-0.8 4.5-3.6 4.5h-29.1c-2.9 0-3.5-1.8-3.7-4.5h-2.5v1.9c0.6 4.3 0.6 8.6 0 12.9v2h2.5c0.2-2.2 0.8-3.8 1.8-4.3q0.4-0.1 1-0.2 0.5-0.1 0.9-0.1h13.8c-0.1 2.3-0.3 6.1-0.3 8.2zm-13.6-45.5c-0.4 0.1-1.4 0.4-1.9 0.3-1.2-0.3-1.7-2.2-1.6-3.7h-2.6v1.9c0.6 4.1 0.6 8.3 0 12.4v2.3h2.5c0.3-2.1 1.2-3.1 1.7-3.5q0.5-0.4 1-0.6c0.3-0.1 0.6-0.3 0.9-0.4l37.5-13.5c1.6-0.5 1.3-2.5-0.1-3.1l-37.4-15.5c-2.4-1-3.1-2.4-3.6-5h-2.5v1.9c0.6 3.7 0.6 7.5 0 11.2v1.9h2.5c0.1-0.2 0.1-0.4 0.1-0.6 0.1-0.4 0.2-0.8 0.2-1.2 0.6-1.9 1.6-2.4 2.4-2.4 0.2-0.1 1.4-0.2 4 0.5 1.2 0.4 2.4 0.8 3.6 1.2 0.5 0.2 1 0.3 1.5 0.5v12.6zm12.1-4.1v-10l13.8 5.3zm17.1-65.2c2.8 0 3.5 1.7 3.6 4.6h2.5v-1.9q-0.8-6.3 0-12.6v-1.9h-2.5c0 0.1 0 0.3 0 0.5-0.1 0.5-0.2 0.9-0.3 1.2-0.5 2-1.5 2.4-3.3 2.4h-29.1c-1.8 0-2.8-0.4-3.3-2.4-0.1-0.3-0.2-0.7-0.3-1.2 0-0.2 0-0.4-0.1-0.5h-2.5v1.9c0.6 2.9 0.6 5.8 0 8.6l31.7 18.1h-25.5c-2.9 0-3.6-1.9-3.7-4.9h-2.5v1.9c0.6 4.4 0.6 8.8 0 13.4v1.9h2.5c0.2-2.9 0.9-4.6 3.7-4.6h29.1c0.3 0 0.6 0.1 0.8 0.2 0.4 0 0.8 0.1 1.2 0.3 0.9 0.4 1.2 1.2 1.4 1.9 0.1 0.4 0.1 1 0.2 1.4 0 0.2 0 0.5 0 0.8h2.5v-1.9c-0.7-2.9-0.6-5.6 0-8.3l-33-18.9zm-44-26c1.7 0.5 3.4 1 5.1 1.5 2 0.6 3.9 1.4 6 1 0.6-0.1 1.5-0.4 1.3-1.7 0-0.4-0.2-0.8-0.2-1.2-0.2-1.5 1.1-1.8 2.4-2.2l37.4-12c1.8-0.6 1.8-2.5 0-3.2l-33.2-12.9c-6-2.3-6.4-4.1-6.5-4.5 0-0.3 0-0.5 0.1-0.7 0.1-0.4 0.3-0.9 0.2-1.3 0-1.1-0.7-1-1.4-0.9l-15.1 1.2v3.1q1.3 0.2 2.6 0.4c1.4 0.1 2.7 0.2 4 0.5 5.8 1.1 6 4.6 6 6.4v16.4c0 1.8-0.2 6-5.5 6.3-2.1 0.1-5.4-0.5-7.1-0.9v3.3q1.9 0.8 3.9 1.4zm12.6-10.3v-14.7c0-2.5 0.9-2.6 3.2-1.9l25 7.8zm631.5 545.9c0.3 0.4 0.9 1.2 1 1.6 0.2 1.3-1.4 2.4-2.8 2.9l0.9 2.4 1.8-0.7c3.6-2 7.5-3.5 11.5-4.4l2.2-0.8-0.9-2.4c-2.1 0.5-3.3 0.1-3.9-0.3q-0.5-0.3-0.9-0.7c-0.3-0.3-0.5-0.5-0.7-0.7l-26.1-30.2c-1.1-1.3-2.8-0.3-2.8 1.2l-1.1 40.5c-0.1 2.6-1.1 3.8-3.4 5.2l0.9 2.3 1.8-0.7c3.2-1.9 6.7-3.2 10.4-4l1.8-0.7-0.9-2.3c-0.2 0-0.4 0-0.6 0.1-0.4 0.1-0.8 0.1-1.2 0.2-2 0.1-2.8-0.6-3.1-1.4-0.1-0.1-0.6-1.2-0.9-3.9-0.1-1.2-0.2-2.5-0.2-3.7 0-0.6-0.1-1-0.1-1.6l11.8-4.5zm-8.2-9.8l-9.3 3.6v-14.8zm-17.8 24.1l-0.6-2.1c-0.6 0.4-1.4 0.8-2.1 0.9-4.2 0.7-20.4-12.2-24-15.3 2.5-4.5 5.2-8.9 7.8-13.4 0.2-0.3 0.4-0.8 0.7-1.1 0.5-0.9 1.6-2.6 3.9-3.7 0.4-0.3 0.9-0.5 1.3-0.7 0.1-0.1 0.3-0.2 0.4-0.2l-0.8-2.4-1.8 0.6q-5.8 2.6-12.5 3.8l-1.8 0.5 0.7 2.4c1-0.4 2.1-0.6 3.1-0.9 0.3 0 0.7-0.1 1-0.1 0.7 0.1 1.1 0.6 1.1 1.4-0.1 2-5.8 11.8-7 13.8-0.6 0.8-1.2 1.7-1.5 2.6-0.2 0.4-0.3 0.7-0.2 1 0.6 2.7 21.5 20.6 27.9 16.2l4.5-3.2zm-43.9-22.2l8.5 27.8c0.4 1.3 1.2 3.3-2.9 4.7l0.7 2.4 1.7-0.5q5.9-2.7 12.3-3.8l1.6-0.5-0.7-2.3c-2.8 0.8-4.5 0.4-5.3-2.3l-8.5-27.8c-0.9-2.9 0.4-3.9 3.1-4.8l-0.7-2.4-1.6 0.5c-3.9 1.8-8.1 3.1-12.4 3.8l-1.6 0.5 0.7 2.3c2.8-0.5 4.2-0.5 5.1 2.4zm-9.6 32.4c0.2 0.4 0.7 1.4 0.7 1.9 0 0.4-0.2 1.1-1.3 1.7-0.3 0.2-0.7 0.3-1 0.5-0.2 0-0.3 0.1-0.5 0.2l0.5 2.4 1.9-0.4c3.7-1.4 7.7-2.2 11.6-2.5l1.9-0.4-0.5-2.4c-2.5 0-3.9-0.5-5.2-2.7l-19.7-32.8c-0.8-1.2-2.3-1-2.5 0.5l-7.4 38.6c-0.3 1.9-1 3.2-3 4.1-0.3 0.2-0.8 0.3-1.2 0.5-0.1 0-0.2 0.1-0.2 0.1l0.5 2.5 1.8-0.4q5-2 10.4-2.2l1.9-0.4-0.5-2.5c-1.4 0.3-3.6 0.5-4.2-0.9-0.1-0.2-0.3-0.7-0.1-1.9l3.2-26.5zm-37.5 9.7c-1.3 0.5-2.7 0.6-4 0.9-1.5 0.3-3 0.7-4.7 0.7-1.7 0-2.8-0.4-3.1-2.1l-1.9-13.7c5.7-1 9.4-0.9 10.7 4.8l2.3-0.4q-2-7.3-2.1-14.9l-2.3 0.4c0.7 5.6-3.7 6.5-9 7l-2-14c7.7-0.9 12.2-1.3 14.2 0.3 0.7 0.6 1.1 1.3 1.7 2.1 0.2 0.3 0.5 0.7 0.7 1.1l2.1-0.2c-1.1-3.5-1.9-6.9-2.5-10.5-0.7 0.2-7.7 2.2-15.4 3.5-3.9 0.6-7.5 1-11.9 1.2l-1.9 0.2 0.4 2.5c2.8-0.3 4.9 0 5.3 3l4 28.7c0.5 3-1.4 3.9-4.3 4.4l0.4 2.5 1.9-0.3c8.5-2.2 11.2-1.6 15.8-2.2l12.6-1.8 1-11.6-2.6 0.3c-0.5 5.9-3.7 7.5-5.4 8.1zm-37.4 9.2l2-0.2-0.3-2.5c-3 0.2-5-0.4-5.3-3.4l-3.2-30.9c2.2-0.3 6-0.9 7.9 1.1 0.9 1.1 1.2 2.8 1.5 4.3 0.2 1 0.4 1.9 0.4 2.8l2.9-0.3c-0.1-4.6 0.3-9.4 0.8-14.1-1.9 0.4-7 1.5-8.8 1.7l-16.8 1.8c-1.9 0.2-5.9 0.1-7.9 0 0.1 4.6 0 9.4-0.6 14.1l2.8-0.3c1.4-6.8 3.5-9.7 10.2-10.3l3.2 30.9c0.3 2.4-0.5 3.2-1.7 3.7-0.6 0.3-1.2 0.3-1.9 0.5-0.3 0-0.5 0.1-0.8 0.2l0.2 2.5 1.9-0.2q6.7-1.6 13.5-1.4zm-57.7-30.7c-0.1-2.9 1.6-3.6 4.5-3.9l-0.1-2.5-2 0.1q-6.3 1.2-12.6 0.7l-1.9 0.1 0.1 2.5c0.2-0.1 0.4 0 0.6 0 0.4 0.1 0.8 0.1 1.2 0.2 2 0.4 2.4 1.4 2.5 3.2l1.6 29c0.1 1.8-0.3 2.8-2.2 3.5-0.4 0.1-0.8 0.2-1.2 0.3-0.2 0-0.4 0.1-0.6 0.1l0.2 2.5 1.9-0.1q4.3-1.1 8.6-0.4l16.4-32.7 1.4 25.5c0.1 2.9-1.7 3.8-4.8 4l0.2 2.5 1.9-0.1c4.3-0.8 8.7-1 13.3-0.7l1.9-0.1-0.1-2.5c-2.9-0.1-4.6-0.6-4.7-3.5l-1.5-29c-0.1-0.3 0-0.6 0-0.8 0.1-0.4 0.1-0.8 0.3-1.2 0.3-0.9 1.2-1.3 1.8-1.5 0.5-0.1 1-0.2 1.4-0.3 0.3 0 0.6-0.1 0.8-0.1l-0.1-2.5-2 0.1c-2.8 0.9-5.5 1-8.2 0.5l-17.1 34zm-15.4 3.3c0-9.1-9.8-9.8-12.7-9.8-2.7-0.1-5.4 0-8.1 0.1-2.1 0-4.2 0-6.3 0h-1.9l-0.1 2.5c3.9 0.2 4.6 1.6 4.6 4.2l-0.5 28.6c-0.1 2.9-1.9 3.5-4.7 3.6l-0.1 2.5 1.9 0.1c2.2-0.3 4.5-0.4 6.7-0.4 2.8 0.1 5.6 0.6 8.5 0.6 11.8 0.2 15.3-7.2 15.1-12.4-0.4-6.4-5.2-9-10.2-10.8 3.6-0.8 7.7-3.4 7.8-8.8zm-17.2 7.8l0.3-13.9c4.6-0.5 8.7 0.8 8.8 6.8 0.1 6-5 7.7-9.1 7.1zm0 3.1c3.6-0.1 11.2 1 11.1 9.9-0.1 5-3 8-6.9 8-2.6-0.1-4.5-1.5-4.5-4zm-35.8 19.9c11.1 0.2 20.6-8.8 21.3-21.3 0.6-13.1-9-21.7-19-21.7-10.2-0.2-20.1 8.2-20.9 20.8-0.8 12.6 7.6 21.9 18.6 22.2zm-9.3-25c1.3-11.7 7.3-14.7 11.7-14.3 6.1 0.5 10.3 7.1 9.7 18.2-0.8 15.4-8.1 17.3-11.4 17.3-4.9-0.1-11.8-5-10-21.2zm-11.5-6.4c0.8-5.5-1.1-13.3-13.4-15.2-2.4-0.4-4.9-0.6-7.4-0.7-2.6-0.2-5.3-0.5-8-0.6l-1.8-0.3-0.4 2.5c3.2 0.7 4.3 1.5 3.9 4.5l-4 28.4c-0.4 3-2.1 3.3-4.9 3.2l-0.4 2.4 1.9 0.3q6.6 0.1 13.1 1.8l1.9 0.3 0.4-2.5c-3.5-0.6-4.7-1.8-4.3-4.4l1.3-9.7c17.3 4 21.3-5.1 22.1-10zm-21.5 6q0 0 0 0v0.1zm0 0l2.1-15.3c0.1-0.9 0.5-2.8 4.8-1.9 7.1 1.3 6.5 8.1 6.3 9.8-1.3 9.9-9.5 8.8-13.2 7.4zm-17.1 17l0.5-2.2c-0.7 0.1-1.6 0-2.2-0.2-4.1-1.5-12-20.5-13.7-25 4.4-2.7 8.9-5.3 13.3-8 0.4-0.2 0.8-0.4 1.2-0.6 0.9-0.5 2.7-1.4 5.2-1.4 0.5 0 1 0.1 1.5 0 0.1 0.1 0.3 0.1 0.4 0.1l0.5-2.5-1.8-0.4q-6.4-0.5-12.9-2.7l-1.8-0.4-0.5 2.5c1.1 0.1 2.1 0.4 3.2 0.7 0.2 0.1 0.6 0.2 0.8 0.4 0.7 0.4 0.8 1 0.3 1.7-1 1.7-10.7 7.5-12.8 8.6-0.9 0.5-1.8 1-2.6 1.6q-0.4 0.4-0.6 0.8c-0.8 2.7 8.8 28.4 16.5 27.7l5.5-0.6zm-27.6-40.8l-6 28.5c-0.3 1.3-0.6 3.4-4.9 2.7l-0.5 2.5 1.7 0.3q6.4 0.5 12.6 2.7l1.7 0.4 0.5-2.5c-2.8-0.6-4.2-1.7-3.6-4.5l6-28.5c0.7-2.9 2.3-3.2 5.2-2.7l0.5-2.3-1.7-0.4c-4.3-0.3-8.5-1.2-12.6-2.7l-1.7-0.3-0.5 2.3c2.7 0.9 3.9 1.6 3.3 4.5zm-34 28.7c10.8 2.3 21.9-4.7 24.9-16.9 3.1-12.7-4.7-23-14.5-24.9-10-2.1-21.3 4.2-24.5 16.4-3.1 12.3 3.4 23 14.1 25.4zm-4.4-26.3c3.6-11.3 9.9-13.1 14.2-11.8 5.9 1.6 8.8 8.9 6.1 19.7-3.7 15-11.3 15.4-14.5 14.8-4.8-1.1-10.7-7.2-5.8-22.7zm-42.7 2.2l9.5-25c1.2-2.9 1.3-4.3 9.1-1.3 8.3 3.1 7.1 4.3 6 7.1l-9.6 25c-1 2.7-2.8 2.6-5.4 1.9l-0.9 2.3 1.8 0.7q6.3 1.5 12 4.6l1.8 0.7 0.9-2.3c-2.6-1.2-4-2.4-3-5.1l10.4-27.2c1.1-2.7 3-2.6 5.6-1.7l0.9-2.4-1.8-0.7c-7.5-1.8-9.3-3.5-12.8-4.9l-8.8-3.4c-3.5-1.3-6-1.2-12.8-4.9l-1.8-0.7-0.9 2.4c2.6 1.1 4 2.3 3 5l-10.5 27.2c-1 2.7-2.8 2.6-5.5 1.8l-0.9 2.3 1.7 0.7c4.3 1 8.3 2.5 12.1 4.6l1.8 0.7 0.9-2.3c-2.5-1.2-3.9-2.4-2.8-5.1zm635.1-300.5l1.8 0.1c0.8 0 1.5 1 1.5 2.4 0 0.1 0 1.8-0.2 2.8h2l0.4-2.5c0 0 0.3-4.3 0.2-5.5-0.2-1.1 0.8-5.1 0.8-5.1l0.1-2.7-1.9-0.4c-0.2 2.7-1.7 4.5-3.9 5l-37.3 10.1c-0.9 0.2-1.4 1.1-1.4 1.1 0 0.4 1.2 1 1.2 1l34.4 17.5c0 0 2.1 1.4 2.1 1.5 0 0 1 1.2 1 2 0 0.4 0.1 1.9 0.1 3.3h2l0.1-2.6c0 0 0.1-3.8 0.1-5.2 0-1.6 0.9-5.1 0.9-5.1l0.3-2.5-1.8-0.6c-0.2 1-0.6 2.9-0.5 4.1l-0.9 1.5-1.1 0.5c-0.3 0-1.4-0.4-1.9-0.4l-9.7-4.1 1.2-13.6zm-13.3 14.7c0 0.2-0.4 0.2-0.9 0.2l-15.7-7.3 17.4-4.2zm13.9-356.1c0.4 0 1.3-0.3 1.7-0.3 1 0 1.8 0.8 1.8 2.4 0 0.7 0.1 1.8 0.1 2.6h2v-2.6c0-1.6-0.3-3.5-0.3-5.2 0-1.8 0.3-3.9 0.3-5.4v-2.8h-2c0 2.7-1.2 4.5-3.4 5.3l-36.2 13.4c-0.9 0.2-1.3 0.7-1.3 1.1 0 0.4 0.6 0.8 1.3 1.1l36 14.3c0.7 0.3 1.7 1 2 1.2 0.3 0.1 0.8 1.1 1.1 1.8 0.1 0.7 0.5 1.9 0.5 3.3h2v-2.8c0-1.5-0.3-3.5-0.3-5.1 0-1.7 0.3-3.7 0.3-5.2v-2.8h-2c0 1-0.1 2.4-0.1 3.8 0 0.7-0.4 1.4-0.5 1.8-0.2 0.1-0.7 0.6-1.3 0.6-0.6 0-1.3-0.2-1.7-0.2l-10-3.3v-13.7zm-12.3 15.6c0 0.3-0.2 0.5-0.7 0.5l-16.2-5.9 16.9-6zm-2.2 39.6c0-2.4-0.3-5.6-0.5-9.5h15c1 0 2.1 0.4 2.5 0.8 0.3 0.3 1 1.1 1 1.8 0 0.6 0.1 2 0.1 3.4h2v-2.8c0-1.7-0.3-3.9-0.3-6 0-1.9 0.3-4.2 0.3-6v-2.6h-2c0 1.2-0.3 2.3-0.3 3 0 0.6-0.5 1.4-0.8 1.9-0.3 0.2-1 0.7-1.8 0.7h-30.8c-1.1 0-2.1-0.6-2.4-1.4-0.2-0.9-0.6-2.3-0.6-4.2h-2v2.6c0 2 0.6 4.1 0.6 6 0 2.1-0.6 4.2-0.6 6v2.8h2c0-2.1 0.5-3.8 0.8-4.6 0.3-0.7 1.5-1.4 2.9-1.4h12.1c0 0.8 0.4 2.5 0.4 4.7 0 2.1 0.2 3.9 0.2 4.8 0 1.5-0.3 4.7-0.6 9.2h-12.1c-1.5 0-2.6-0.6-2.9-1.3-0.2-0.7-0.7-2.4-0.8-4.6h-2v2.8c0 2.2 0.6 4.3 0.6 6 0 1.7-0.6 3.7-0.6 6v2.8h2c0-2 0.5-3.7 0.8-4.5 0.3-0.7 1.5-1.4 2.9-1.4h29.4c1 0 2.1 0.4 2.5 0.8 0.3 0.3 1 1.2 1 1.9 0 0.4 0.1 1.8 0.1 3.2h2v-2.8c0-1.8-0.3-4.1-0.3-6 0-2 0.3-4.2 0.3-6v-2.8h-2c0 1.4-0.1 2.7-0.3 3.5-0.1 0.8-0.7 1.7-0.9 1.8-0.3 0.1-1.3 0.6-2.4 0.6h-15c0.2-3.8 0.5-7 0.5-9.2zm14.5 36c0.4 0 1.3-0.2 1.7-0.2 0.9 0 1.8 0.8 1.8 2.3 0 0.7 0.1 1.8 0.1 2.7h2v-2.7c0-1.5-0.3-3.5-0.3-5.1 0-1.8 0.3-3.9 0.3-5.5v-2.7h-2c0 2.6-1.2 4.4-3.5 5.3l-36.2 13.3c-0.8 0.3-1.2 0.7-1.2 1.1 0 0.4 0.5 0.9 1.2 1.2l36.1 14.3c0.7 0.3 1.7 1 1.9 1.1 0.3 0.1 0.9 1.1 1.2 1.8 0.1 0.7 0.5 2 0.5 3.4h2v-2.8c0-1.6-0.3-3.5-0.3-5.2 0-1.6 0.3-3.6 0.3-5.1v-2.8h-2c0 1-0.1 2.4-0.1 3.7 0 0.7-0.4 1.4-0.6 1.8-0.1 0.2-0.7 0.6-1.2 0.6-0.6 0-1.3-0.1-1.7-0.1l-10-3.4v-13.6zm-12.3 15.6c0 0.3-0.3 0.4-0.7 0.4l-16.3-5.8 17-6zm15.9 27c0 1.4-0.4 2.6-0.4 3.2 0 0.4-0.6 1.4-0.9 1.6-0.1 0.2-0.9 0.6-1.6 0.6h-33v-6.8c0-1.3 0.5-2.7 0.9-3.4 0.4-0.7 2-1.2 3.9-1.2 0.9 0 2.1 0.1 3.4 0.4v-1.9l-11.7-2.7c0.4 2.1 0.7 4.5 0.7 6.8v19c0 2.8-0.3 5.5-0.7 7.8l11.7 3.3v-2.1c-2.3-0.4-4.2-1.4-5.3-2.1-1.1-0.8-2.1-1.9-2.4-2.8-0.1-0.8-0.5-2.2-0.5-3.1v-5.3h33c1.4 0 2.6 1.1 2.7 3.2 0 0.8 0.2 1.9 0.2 2.6h1.9v-2.8c0-1.7-0.2-3.9-0.2-5.8 0-2 0.2-4.2 0.2-5.7v-3zm-18.1 51.6c0-2.4-0.2-5.6-0.5-9.5h15c1 0 2.1 0.4 2.5 0.8 0.3 0.3 1 1.1 1 1.8 0 0.6 0.1 2 0.1 3.4h2v-2.8c0-1.7-0.3-3.9-0.3-6 0-1.9 0.3-4.2 0.3-6v-2.6h-2c0 1.2-0.2 2.3-0.2 3 0 0.6-0.6 1.4-0.9 1.8-0.3 0.3-0.9 0.7-1.8 0.7h-30.8c-1.1 0-2-0.5-2.3-1.4-0.3-0.8-0.7-2.2-0.7-4.1h-2v2.6c0 2 0.6 4.1 0.6 6 0 2.1-0.6 4.2-0.6 6v2.8h2c0-2.1 0.5-3.8 0.8-4.6 0.3-0.7 1.5-1.4 2.9-1.4h12.1c0 0.8 0.5 2.5 0.5 4.7 0 2.1 0.1 3.9 0.1 4.8 0 1.5-0.3 4.7-0.6 9.2h-12.1c-1.5 0-2.6-0.6-2.9-1.3-0.1-0.7-0.7-2.4-0.8-4.6h-2v2.8c0 2.2 0.6 4.3 0.6 6 0 1.6-0.6 3.7-0.6 6v2.8h2c0-2 0.5-3.7 0.8-4.5 0.3-0.7 1.5-1.4 2.9-1.4h29.4c1 0 2.1 0.4 2.5 0.8 0.3 0.3 1 1.1 1 1.8 0 0.5 0.1 1.9 0.1 3.3h2v-2.8c0-1.8-0.3-4.1-0.3-6 0-2 0.3-4.2 0.3-6v-2.8h-2c0 1.4-0.1 2.6-0.2 3.5-0.2 0.8-0.7 1.7-1 1.8-0.3 0.1-1.3 0.6-2.4 0.6h-15c0.3-3.8 0.5-7 0.5-9.2zm9 64.2c2.2-0.9 4.5-2.4 6.4-4.2 1.5-1.6 3.3-3.9 4.1-6.4 0.9-2.3 1.4-5.2 1.4-8 0-3-0.7-6.1-1.8-8.3-1-2.2-2.9-4.5-4.9-5.9-1.8-1.4-4.1-2.7-6.6-3.4-2.4-0.7-5.1-1.2-7.4-1.2-2.5 0-5.2 0.5-7.5 1.2-2.4 0.5-4.8 2-7 3.4-2 1.4-3.9 3.7-5.2 5.9-1.1 2.2-1.9 5.1-1.9 8.2 0 3.9 1.1 7.5 2.9 10.6 1.8 2.9 4.6 5.7 7.8 7.2 3.2 1.6 7.3 2.5 11.4 2.5 3 0 5.7-0.8 8.3-1.6zm-11.5-4.5q0.1 0 0.1 0 0 0 0.1 0zm0 0c-3.4 0-6.5-0.7-8.9-1.8-2.6-1.1-4.6-2.7-5.8-4.5-1.1-1.6-1.8-3.7-1.8-5.7 0-1.9 0.6-4.3 1.4-6.4 0.7-2.1 3-4.2 5.6-5.8 2.7-1.6 6.7-2.5 11.7-2.5 5.7 0 10.4 1.2 13.6 3 3.2 1.8 5.1 4.6 5.1 7.8 0 1.8-0.5 3.8-1 5.6-0.6 1.8-1.8 3.8-3.2 5.2-1.4 1.3-3.9 2.9-6.6 3.7-2.6 0.7-6 1.4-10.1 1.4zm-18.1 49.6c0.2 1.1 0.5 2.5 0.5 3.9 0 1.4-0.5 2.8-0.5 3.9v2.6h1.9c0-1.9 0.4-3.6 0.6-4.4 0.1-0.9 1.4-1.6 2.5-1.6l30.1 1.7c1.1 0 2.2 0.6 2.7 1.3 0.6 0.7 0.9 2.1 0.9 3.7v0.4h1.9v-2.6c0-1.3-0.2-2.9-0.2-4.6 0-1.4 0.2-3.2 0.2-4.5v-2.6h-1.9c0 1.4-0.2 2.5-0.3 3.2-0.1 0.7-0.6 1.5-1.1 1.8-0.3 0.3-1.3 0.6-2.2 0.6l-26.6-0.6 31.2-12.5c0.4-0.2 0.9-0.9 0.9-1.4 0-0.6-0.4-1.1-0.9-1.3l-31.7-11.9 27.1-0.7c1.1 0 2.3 0.4 2.6 0.9 0.3 0.5 0.8 1.4 0.8 2.3 0 0.7 0.2 1.6 0.2 2.2h1.9v-2.7c0-1.6-0.2-3.7-0.2-5.5 0-2 0.2-4.1 0.2-5.6v-2.6h-1.9c0 0.7-0.2 1.2-0.2 1.4 0 1.2-0.4 2.3-0.7 2.9-0.2 0.5-1.1 0.9-2 0.9l-30.1 0.7c-1.4 0-2.5-0.2-2.8-0.8-0.3-0.4-0.7-1.4-0.7-2.2 0-0.9-0.3-1.8-0.3-2.5h-1.9v2.8c0 1.4 0.5 2.7 0.5 3.9 0 1.2-0.3 2.6-0.5 3.9l32.4 12.8zm11.9 95.1c0.1-1.8 1.1-5.4 1.9-9.3l14.5 4c0.1 0.1 2.2 1 2.2 1.4 0 0.1 0.4 1.5 0.4 2.1 0 0.7-0.4 1.9-0.7 3.2l1.8 0.5 0.9-2.6c0.1-0.8 0.8-4.1 1.2-5.9 0.5-1.8 1.7-4.8 1.8-5.7l0.7-2.6-1.8-0.4c-0.2 1.1-1.1 2.3-1.1 2.8 0 0.4-1 1.3-1.2 1.5-0.3 0.1-1.1 0.4-2 0.3l-29.6-8.3c-1.2-0.1-2-1.1-2-1.9 0-0.7 0-2.4 0.4-4.2l-1.8-0.5-0.7 2.5c-0.6 1.9-0.7 4.1-1.1 6-0.4 1.8-1.7 3.7-2.1 5.5l-0.7 2.7 1.8 0.5c0.6-1.9 2-3.9 2.1-4.1 0-0.2 2.7-0.7 3.2-0.6l11.7 3.2c-0.3 0.8-1 2.9-1 4.6-0.1 1.7-1.1 4.3-1.1 4.7 0 1.1-1.5 4.5-2.9 8.7l-11.7-3.2c-1.5-0.3-2.5-1.2-2.5-2 0-0.7 0-2.5 0.4-4.7l-1.8-0.4-0.8 2.6c-0.7 2.1-1 4.7-1 5.9 0 1.2-1.4 3.6-2.1 5.7l-0.8 2.6 1.9 0.6c0.4-2 2-3.8 2-4.1 0.1-0.3 2.6-0.8 3.2-0.7l28.2 8c0.2 0.1 2.3 0.9 2.3 1.4 0 0.1 0.4 1.4 0.4 1.9 0 0.4-0.3 1.8-0.7 3.2l1.9 0.6 0.7-2.8c0.2-0.9 1.4-4.3 1.4-5.9 0-1.2 1.7-4.7 1.8-5.7l0.7-2.6-1.8-0.6c-0.4 1.4-1.2 2.8-1.2 3.4 0 0.4-1 1.4-1.4 1.5-0.4 0.1-1.4 0-2.5-0.1l-14.5-4.1c1.2-3.5 2.9-6.9 3.1-8.6z"/>
	<path id="Path 2" fill-rule="evenodd" class="s1" d="m576.8 1057c-12.5 6.6-29.6 15.6-38.3 26.9l-29.2 35.8-29-35.5c-8.6-11.3-25.8-20.3-38.3-26.9-8.3-3.8-17.3-8.2-25.7-11.4-30.8-13.7-63.4-24.1-94.1-37.6-25-10.9-48.3-25.2-71.8-38.7-21-11.9-38.3-29.6-53.4-48.2-13.9-20.3-24-41.8-29.5-65.9-7.5-38.7-4.1-81.9 0.3-120.6 1.3-16.3 5-33.3 5.6-49.4 2.3-17.9 5.5-36.2 8.2-53.9 2.5-21.6 5.7-44.3 6.5-66.2 2.4-27.4 0.9-56.5-3.3-83.5-5.2-26.5-15.7-53.5-28.8-76.9-9.9-15.5-20.9-30.6-31.4-45.8 12.2-8.6 24.7-17.3 36.5-26.2 27.2-19.8 55.6-38.4 82.9-57.8l11.8 11.8 5.2 4.8c10.7 10.7 26.3 14.2 40.8 15.9 12.6 1.5 23.5-0.7 36.2-3.9 30.2-8.1 61.3-15.9 91.6-22.9 20.9-3.7 42.4-5.1 63.9-5.5q0-0.2 0-0.3 8.8 0 17.7 0 7.1 0 14.1 0 0 0.1 0 0.2c21.5 0.4 43 1.6 63.9 5.3 30.4 7 61.4 14.8 91.6 22.9 12.7 3.2 23.6 5.4 36.3 3.9 14.4-1.7 30-5.2 40.8-15.9l5.1-4.7 11.9-11.9c27.2 19.4 55.7 38.1 82.8 57.8 11.8 8.9 24.4 17.6 36.5 26.2-10.4 15.2-21.4 30.4-31.3 45.8-13.1 23.4-23.7 50.4-28.9 76.9-4.1 27-5.7 56.1-3.3 83.6 0.8 21.8 4 44.5 6.5 66.1 2.7 17.7 5.9 36.1 8.3 53.9 0.5 16.2 4.3 33.1 5.5 49.4 4.5 38.8 7.8 81.9 0.3 120.6-5.4 24.1-15.6 45.6-29.5 65.9-15.1 18.7-32.3 36.4-53.4 48.2-23.5 13.5-46.8 27.8-71.8 38.7-30.7 13.5-63.2 24-94 37.6-8.5 3.2-17.4 7.7-25.8 11.4zm231.7-145.6c13-18.1 21.6-37.8 26.8-59.5 5-24.7 3.9-51.4 3.1-76.2-1.3-18.9-3.5-38.4-5.5-57.4-3-18.3-4-37.8-7.2-56.1-3.9-18.9-6-38.3-7.8-57.5-4.3-33.8-6.1-68.9-2.9-102.9 1.9-31.1 12.2-61.1 25.3-89.3 8.1-18.2 19.9-33 31.2-49.6-31.2-22.7-63.1-44.8-94.8-66.5-5.3 5.1-10.1 9.6-15.9 14-15.9 10.2-37.6 14.1-56.4 14.1-16.6-1.2-32.7-6.5-48.8-10.9-21.4-5-43.4-10.3-64.7-15.7-26.5-6-54.6-7.6-81.6-7.6-26.9 0-54.9 1.9-81.4 7.9-21.3 5.4-43.3 10.7-64.7 15.7-16 4.3-32.2 9.6-48.8 10.9-18.8 0-40.5-3.9-56.4-14.1-5.8-4.4-10.5-8.9-15.8-14-31.8 21.7-63.7 43.8-94.9 66.5 11.3 16.6 23.2 31.4 31.2 49.6 13.1 28.1 23.4 58.2 25.4 89.3 3.2 33.9 1.4 69-2.9 102.9-1.9 19.2-4 38.6-7.9 57.5-3.2 18.2-4.1 37.7-7.2 56.1-1.9 19-4.2 38.5-5.4 57.4-0.9 24.8-2 51.5 3 76.2 5.2 21.7 13.8 41.3 26.8 59.4 15.6 19.8 33.8 37.2 56.7 48.2 23.9 15.2 50 29.1 76.7 39.7 25.6 11.2 53.5 19.6 79 31.2 17.6 7.8 35.9 15.1 51.5 26.6 6.4 4.3 14.3 10.3 18.9 16.6l16.2 19.3q0 0 0 0l0.3 0.3q0-0.3 0-0.6l16.1-19.3c4.6-6.3 12.5-12.3 18.9-16.6 15.6-11.5 33.9-18.8 51.6-26.6 25.5-11.5 53.3-20 78.9-31.2 26.8-10.6 52.8-24.5 76.8-39.7 22.8-11 41.1-28.4 56.6-48.1zm22.2-99.5c0 2 0 4.1 0 6.3 0 9.2-0.8 18.3-2.4 27q-1.3 7.7-3.6 15c-4.8 16.3-12.2 31.5-21.9 45q-0.4 0.7-0.8 1.3-0.4 0.5-0.9 1.1c-13.9 18.8-32.2 34.2-53.3 44.8-39.9 26.1-85.8 44.3-130.3 60.3l-21.5 8.8c-12.5 5.5-23.7 10.4-34.8 15.9-6.9 3.7-13.6 7.6-20 11.9l-1.1 0.9c-1.4 0.9-3 2-4.8 3.4-4.6 3.6-10.7 9.4-16.2 15-0.8 1.3-1.4 2.5-1.5 3.5 0-0.6 0-1.3 0-1.9-3.4 3.6-6.4 7-8.3 9.4-5.7-7.1-20.4-22.2-27.9-27.3-22.4-16.2-49.7-27.3-75.2-37.5-47.1-17.7-92.9-34.8-135.2-62.2-21.9-10.6-38.7-27-54.2-45.8-13.6-21.1-25-44.2-27.3-69.5-5-55.3 4.1-112 10.6-166.7 3.5-21.5 7.4-43.1 9.1-64.8 4.4-34.5 5.8-69.5 2.9-104.4-2.2-33.3-13.4-65.6-27.7-95.4-6.7-14.6-16.7-27.7-25.8-41 23.4-16.5 47.2-33.1 70.5-49.4 3.5-2.4 8.8-6.7 12.2-8.4l1.2 1c19.4 18.8 45.9 24.8 72.4 24.8 9.6-0.7 19.6-3.1 29.1-5.3 25.9-6.8 52.1-13.2 78-19.5 25.2-6.9 60.8-9.6 87.3-9.6q4.3 0 8.9 0.1c0-0.3 0-0.6 0-0.9 19.8 1.2 46.5 2.9 66.6 7.2q1.4 0.3 2.9 0.7 3.6 0.8 7.1 1.7c19.2 4.6 38.1 9.4 58.8 14.2l25.4 6.8c7.2 1.7 14.7 3.3 22 4.1q2.4 0.2 4.7 0.2 2.1 0 4.2-0.1 1.1 0 2.1-0.2c9.5-0.9 18.9-2 28.8-4.4 13.1-3.8 25.3-10.1 35.6-20.1l1.1-0.9q0 0 0.1 0 0 0 0 0 0.2 0.1 0.4 0.2c3.5 1.8 8.4 5.9 11.8 8.1q0.6 0.5 1.3 1c18.5 12.8 36.7 25.5 55.2 38.6q7 4.9 13.9 9.9 0 0-0.1 0.1 0.1 0 0.1 0l-9.9 14.3q-0.5 0.7-1.1 1.4c-5.5 8.1-10.7 16.3-14.7 25.1q-1.8 3.7-3.6 7.5c-3.9 8.9-7.4 17.8-10.3 25.3q-1 2.7-1.9 5.4l-5.5 18.5c-3.3 12.7-5.6 25.6-6.5 38.7q-0.5 6.6-0.9 13.2-0.3 6.6-0.5 13.3c-0.6 26.1 1 52.1 4.4 77.9q0 0.3 0 0.6c0.9 8.6 1.6 15.1 2.2 20.6 1.7 13.1 4 26.2 6.1 39.3q0.3 1.4 0.6 2.9 0 0.7 0.1 1.4c2.5 20.6 5.3 41.6 7.6 62.6 2.2 18.4 3.9 37.1 4.2 55.6q0.4 11.7 0.2 23.4z"/>
	<path id="Path 3" class="s2" d="m710.6 119.5l13.8-41.5 13.2 4.4 6.4 2.3 6.3 2.3 6.4 2.3 6.3 2.4 6.3 2.5 6.2 2.5 6.3 2.6 6.2 2.6 6.1 2.7 6.2 2.8 6.1 2.8 6.1 2.9 6 2.9 6 3 6 3 5.8 3 0.3 0.1 5.8 3.1 5.9 3.2 5.8 3.3 5.8 3.3 5.8 3.4 5.8 3.4 5.7 3.4 5.7 3.5 5.6 3.6 5.6 3.6 5.6 3.7 5.5 3.7 5.5 3.8 5.5 3.8 11.3 8-25.4 35.3 0.3 0.2-25.5 35.7-4.3 5.9-4 5.7-25.5 35.5-10.2-7.2-4.3-3-4.4-3-4.4-3-4.4-2.9-4.5-2.9-4.4-2.8-4.6-2.8-4.5-2.7-4.6-2.8-4.5-2.6-4.7-2.6-4.6-2.6-4.7-2.5-3.7-2v0.1l-8.8-4.5-2.3-1.2-2.4-1.1-2.3-1.2-2.4-1.2-2.4-1.1-2.4-1.1-2.4-1.2-2.4-1.1-2.4-1.1-2.4-1.1-2.4-1-2.4-1.1-2.5-1-2.4-1.1-2.4-1-2.5-1-2.4-1-2.5-1-2.5-1-2.4-1-2.5-1-2.5-0.9-2.5-1-2.5-0.9-2.5-0.9-2.5-0.9-2.5-0.9-2.6-0.9-2.5-0.9-2.5-0.9-2.3-0.7-5.2-1.8-0.5-0.1-1.4-0.5-1.4-0.4-1.4-0.5-2.8-0.8-1.4-0.4-2.8-0.9-1.5-0.4-1.4-0.4-1.4-0.4-1.4-0.4-1.4-0.4-1.5-0.4-4.3-1.2-1.4-0.4-1.4-0.4-1.5-0.3-1.4-0.4-1.5-0.4-1.4-0.4-1.4-0.3-4.4-1.1-6-1.4-3.7-0.9-4-0.9-3.9-0.8-4-0.8-4-0.8-4-0.8h-0.4l-9.9-1.7-2.9-0.5-3-0.5-2.9-0.4-2.9-0.4-2.9-0.5-5.9-0.8-2.9-0.4-3-0.3-3-0.4-2.9-0.3-3-0.3-2.9-0.3-3-0.3-3-0.3-3-0.2-2.9-0.2-3-0.3-3-0.2-3-0.2-3-0.1-3-0.2-3-0.1-3-0.2-3-0.1-3.1-0.1h-3l-2.4-0.1h-0.7-1.6-2.6l-0.9-0.1h-3.9-3.5l-2 0.1h-1.3-2.5l-3.1 0.1h-3.1l-3.1 0.1-3.1 0.2-3.1 0.1-3.1 0.1-3 0.2-3.1 0.2-3.1 0.2-3.1 0.2-3 0.2-3.1 0.3-3 0.2-3.1 0.3-3 0.3-3.1 0.3-3 0.3-3 0.4-3 0.3-3.1 0.4-3 0.4-3 0.4-3 0.4-3 0.5-3 0.4-3 0.5-2.9 0.5-3 0.5-9.3 1.5-0.4 0.1-4 0.8-4.1 0.8-4 0.8-4 0.9-4 0.8-4 1-10.9 2.5h-0.1l-1.5 0.4-1.4 0.4-1.5 0.4-1.4 0.3-2.9 0.8-2.8 0.8-1.5 0.4-2.8 0.8-2.8 0.8-2.9 0.8-2.8 0.9-1.4 0.4-2.8 0.8-1.5 0.5-2.8 0.9-0.3 0.1-5 1.7-2.6 0.8-2.6 0.9-2.5 0.9-2.5 0.9-2.5 0.9-2.5 0.9-2.5 0.9-2.5 0.9-2.5 1-2.5 0.9-2.5 1-2.5 1-2.4 1-2.5 1-2.4 1-2.5 1-2.4 1-2.5 1.1-2.4 1-2.4 1.1-2.4 1-2.4 1.1-2.5 1.1-2.4 1.1-2.3 1.2-2.4 1.1-4.8 2.3-2.4 1.2-2.3 1.1-2.4 1.2-8.7 4.5-0.1-0.1-3.6 1.9-4.7 2.6-4.7 2.6-4.6 2.6-4.6 2.6-4.5 2.8-4.6 2.7-4.5 2.8-4.5 2.8-4.4 2.9-4.4 2.9-4.4 3-4.4 3-4.3 3-10.2 7.2-25.5-35.5-4.1-5.7-4.2-5.9-25.5-35.7 0.3-0.2-25.4-35.3 11.3-8 5.4-3.8 5.5-3.8 5.6-3.7 5.5-3.7 5.6-3.6 5.7-3.6 5.7-3.5 5.7-3.4 5.7-3.4 5.8-3.4 5.8-3.3 5.9-3.3 5.9-3.2 5.9-3.1 5.9-3.1 6-3 6-3 6.1-2.9 6.1-2.9 6.1-2.8 6.1-2.8 6.2-2.7 6.2-2.6 6.2-2.6 6.3-2.5 6.3-2.5 6.3-2.4 6.3-2.3 6.4-2.3 6.4-2.3 13.2-4.4 13.8 41.5 0.6-0.2 1.7-0.5 1.6-0.5 1.7-0.5 1.7-0.5 1.7-0.5 1.6-0.6 1.7-0.5 3.3-0.9 3.4-1 1.7-0.5 1.7-0.5 1.7-0.4 3.3-0.9 1.7-0.5 1.7-0.5 1.7-0.4 1.7-0.4 1.7-0.5 1.7-0.4 1.3-0.3-8.5-36-12-49.5 12.3-2.9 5.3-1.2 5.4-1.2 5.3-1.2 5.4-1.1 5.4-1.1 5.4-1 5.4-1 5.4-0.9 5.4-1 5.5-0.8 5.5-0.9 5.4-0.8 5.5-0.8 5.5-0.7 5.6-0.7 5.5-0.6 5.5-0.6 5.6-0.6 5.6-0.5 5.5-0.5 5.6-0.4 5.6-0.4 5.7-0.4 5.6-0.3 5.6-0.3 5.7-0.2 5.6-0.2 5.7-0.1 5.7-0.1 2.8-0.1h0.3 2.6 1 0.4 2.2 4.1 2 1.2 0.4 0.4 2 0.8l2.4 0.1 5.6 0.1 5.6 0.1 5.6 0.2 5.6 0.2 5.6 0.3 5.5 0.3 5.6 0.4 5.5 0.4 5.6 0.4 3.4 0.3h0.5l1.6 0.2 5.5 0.5 5.5 0.5 5.5 0.6 5.5 0.7 5.4 0.6 5.5 0.7 5.4 0.8 5.4 0.8 5.5 0.8 5.4 0.9 5.4 0.9 5.3 0.9 5.4 1 5.3 1 5.4 1.1 5.3 1.1 5.3 1.1 5.3 1.2 5.3 1.2 12.2 2.9-10.2 42.8h0.1l-10.3 42.5 0.2 0.1v0.3l3.5 0.8 1.7 0.5 1.7 0.4 1.6 0.4 1.7 0.5 1.7 0.5 1.7 0.4 1.7 0.5 1.7 0.4 1.7 0.5 1.7 0.5 1.6 0.5 1.7 0.5 1.7 0.5 1.7 0.4 1.6 0.5 1.7 0.6 1.7 0.5 1.7 0.5 1.6 0.5 1.7 0.5 1.6 0.5z"/>
	<path id="Path 4" fill-rule="evenodd" class="s1" d="m710.6 119.5l13.8-41.5 13.2 4.4 6.4 2.3 6.3 2.3 6.4 2.3 6.3 2.4 6.3 2.5 6.2 2.5 6.3 2.6 6.2 2.6 6.1 2.7 6.2 2.8 6.1 2.8 6.1 2.9 6 2.9 6 3 6 3 5.8 3 0.3 0.1 5.8 3.1 5.9 3.2 5.8 3.3 5.8 3.3 5.8 3.4 5.8 3.4 5.7 3.4 5.7 3.5 5.6 3.6 5.6 3.6 5.6 3.7 5.5 3.7 5.5 3.8 5.5 3.8 11.3 8-25.4 35.3 0.3 0.2-25.5 35.7-4.3 5.9-4 5.7-25.5 35.5-10.2-7.2-4.3-3-4.4-3-4.4-3-4.4-2.9-4.5-2.9-4.4-2.8-4.6-2.8-4.5-2.7-4.6-2.8-4.5-2.6-4.7-2.6-4.6-2.6-4.7-2.5-3.7-2v0.1l-8.8-4.5-2.3-1.2-2.4-1.1-2.3-1.2-2.4-1.2-2.4-1.1-2.4-1.1-2.4-1.2-2.4-1.1-2.4-1.1-2.4-1.1-2.4-1-2.4-1.1-2.5-1-2.4-1.1-2.4-1-2.5-1-2.4-1-2.5-1-2.5-1-2.4-1-2.5-1-2.5-0.9-2.5-1-2.5-0.9-2.5-0.9-2.5-0.9-2.5-0.9-2.6-0.9-2.5-0.9-2.5-0.9-2.3-0.7-5.2-1.8-0.5-0.1-1.4-0.5-1.4-0.4-1.4-0.5-2.8-0.8-1.4-0.4-2.8-0.9-1.5-0.4-1.4-0.4-1.4-0.4-1.4-0.4-1.4-0.4-1.5-0.4-4.3-1.2-1.4-0.4-1.4-0.4-1.5-0.3-1.4-0.4-1.5-0.4-1.4-0.4-1.4-0.3-4.4-1.1-6-1.4-3.7-0.9-4-0.9-3.9-0.8-4-0.8-4-0.8-4-0.8h-0.4l-9.9-1.7-2.9-0.5-3-0.5-2.9-0.4-2.9-0.4-2.9-0.5-5.9-0.8-2.9-0.4-3-0.3-3-0.4-2.9-0.3-3-0.3-2.9-0.3-3-0.3-3-0.3-3-0.2-2.9-0.2-3-0.3-3-0.2-3-0.2-3-0.1-3-0.2-3-0.1-3-0.2-3-0.1-3.1-0.1h-3l-2.4-0.1h-0.7-1.6-2.6l-0.9-0.1h-3.9-3.5l-2 0.1h-1.3-2.5l-3.1 0.1h-3.1l-3.1 0.1-3.1 0.2-3.1 0.1-3.1 0.1-3 0.2-3.1 0.2-3.1 0.2-3.1 0.2-3 0.2-3.1 0.3-3 0.2-3.1 0.3-3 0.3-3.1 0.3-3 0.3-3 0.4-3 0.3-3.1 0.4-3 0.4-3 0.4-3 0.4-3 0.5-3 0.4-3 0.5-2.9 0.5-3 0.5-9.3 1.5-0.4 0.1-4 0.8-4.1 0.8-4 0.8-4 0.9-4 0.8-4 1-10.9 2.5h-0.1l-1.5 0.4-1.4 0.4-1.5 0.4-1.4 0.3-2.9 0.8-2.8 0.8-1.5 0.4-2.8 0.8-2.8 0.8-2.9 0.8-2.8 0.9-1.4 0.4-2.8 0.8-1.5 0.5-2.8 0.9-0.3 0.1-5 1.7-2.6 0.8-2.6 0.9-2.5 0.9-2.5 0.9-2.5 0.9-2.5 0.9-2.5 0.9-2.5 0.9-2.5 1-2.5 0.9-2.5 1-2.5 1-2.4 1-2.5 1-2.4 1-2.5 1-2.4 1-2.5 1.1-2.4 1-2.4 1.1-2.4 1-2.4 1.1-2.5 1.1-2.4 1.1-2.3 1.2-2.4 1.1-4.8 2.3-2.4 1.2-2.3 1.1-2.4 1.2-8.7 4.5-0.1-0.1-3.6 1.9-4.7 2.6-4.7 2.6-4.6 2.6-4.6 2.6-4.5 2.8-4.6 2.7-4.5 2.8-4.5 2.8-4.4 2.9-4.4 2.9-4.4 3-4.4 3-4.3 3-10.2 7.2-25.5-35.5-4.1-5.7-4.2-5.9-25.5-35.7 0.3-0.2-25.4-35.3 11.3-8 5.4-3.8 5.5-3.8 5.6-3.7 5.5-3.7 5.6-3.6 5.7-3.6 5.7-3.5 5.7-3.4 5.7-3.4 5.8-3.4 5.8-3.3 5.9-3.3 5.9-3.2 5.9-3.1 5.9-3.1 6-3 6-3 6.1-2.9 6.1-2.9 6.1-2.8 6.1-2.8 6.2-2.7 6.2-2.6 6.2-2.6 6.3-2.5 6.3-2.5 6.3-2.4 6.3-2.3 6.4-2.3 6.4-2.3 13.2-4.4 13.8 41.5 0.6-0.2 1.7-0.5 1.6-0.5 1.7-0.5 1.7-0.5 1.7-0.5 1.6-0.6 1.7-0.5 3.3-0.9 3.4-1 1.7-0.5 1.7-0.5 1.7-0.4 3.3-0.9 1.7-0.5 1.7-0.5 1.7-0.4 1.7-0.4 1.7-0.5 1.7-0.4 1.3-0.3-8.5-36-12-49.5 12.3-2.9 5.3-1.2 5.4-1.2 5.3-1.2 5.4-1.1 5.4-1.1 5.4-1 5.4-1 5.4-0.9 5.4-1 5.5-0.8 5.5-0.9 5.4-0.8 5.5-0.8 5.5-0.7 5.6-0.7 5.5-0.6 5.5-0.6 5.6-0.6 5.6-0.5 5.5-0.5 5.6-0.4 5.6-0.4 5.7-0.4 5.6-0.3 5.6-0.3 5.7-0.2 5.6-0.2 5.7-0.1 5.7-0.1 2.8-0.1h0.3 2.6 1 0.4 2.2 4.1 2 1.2 0.4 0.4 2 0.8l2.4 0.1 5.6 0.1 5.6 0.1 5.6 0.2 5.6 0.2 5.6 0.3 5.5 0.3 5.6 0.4 5.5 0.4 5.6 0.4 3.4 0.3h0.5l1.6 0.2 5.5 0.5 5.5 0.5 5.5 0.6 5.5 0.7 5.4 0.6 5.5 0.7 5.4 0.8 5.4 0.8 5.5 0.8 5.4 0.9 5.4 0.9 5.3 0.9 5.4 1 5.3 1 5.4 1.1 5.3 1.1 5.3 1.1 5.3 1.2 5.3 1.2 12.2 2.9-10.2 42.8h0.1l-10.3 42.5 0.2 0.1v0.3l3.5 0.8 1.7 0.5 1.7 0.4 1.6 0.4 1.7 0.5 1.7 0.5 1.7 0.4 1.7 0.5 1.7 0.4 1.7 0.5 1.7 0.5 1.6 0.5 1.7 0.5 1.7 0.5 1.7 0.4 1.6 0.5 1.7 0.6 1.7 0.5 1.7 0.5 1.6 0.5 1.7 0.5 1.6 0.5zm-522.3 18.4l-5.6 3-5.8 3.1-5.7 3.2-5.7 3.2-5.7 3.3-5.6 3.4-5.6 3.4-5.6 3.4-5.5 3.5-5.5 3.5-5.5 3.6-5.4 3.7-5.4 3.7-4.8 3.3 17 23.7 4.1-2.8 5.1-3.5 5.2-3.5 5.2-3.5 5.3-3.4 5.3-3.3 5.3-3.3 5.4-3.2 5.3-3.2 5.5-3.2 5.4-3.1 5.5-3 5.5-3 5.5-2.9zm96.6-41.7l-0.3 0.1-3.1 1.1-3.1 1.1-3.1 1.1-3.1 1.1-3.1 1.1-3 1.2-3.1 1.1-3 1.2-3.1 1.2-3 1.2-3 1.2-3.1 1.3-3 1.2-3 1.3-3 1.2-3 1.3-3 1.3-2.9 1.3-3 1.4-3 1.3-2.9 1.4-3 1.3-2.9 1.4-3 1.4-2.9 1.4-2.9 1.4-2.9 1.5-2.3 1.1 13.2 26 4.1-2 5.7-2.8 5.7-2.7 5.7-2.6 5.8-2.6 5.8-2.5 5.8-2.5 5.8-2.4 5.9-2.4 5.9-2.3 5.9-2.3 5.9-2.2 6-2.1 5.7-2zm-123.3 107.8l-0.5 0.3-5.1 3.3-5.1 3.4-5.1 3.4-5 3.5-4.5 3.1 16.9 23.7 3.7-2.6 4.8-3.3 4.8-3.3 4.9-3.2 4.9-3.2 0.3-0.1zm148.9-24.2l-2.8 1-2.7 0.9-2.7 1-2.7 1-2.6 1-2.7 1.1-2.7 1-5.3 2.1-2.7 1.1-2.6 1-2.7 1.1-2.6 1.1-2.7 1.1-2.6 1.2-2.6 1.1-2.6 1.2-2.6 1.1-2.6 1.2-2.6 1.2-2.6 1.2-2.6 1.2-2.6 1.2-2.6 1.3-2.5 1.2-2.6 1.3-1.3 0.6 13.4 26.1 2.7-1.4 4.9-2.3 5-2.4 5-2.3 5-2.2 5-2.2 5-2.1 5.1-2.1 5.1-2.1 5.1-2 5.2-1.9 5.1-1.9 5.2-1.9 3.6-1.2-0.5-1.4-0.9-2.7-0.9-2.6-0.8-2.6-0.9-2.6-0.8-2.6-0.9-2.6-0.8-2.5-1.7-5.1-0.9-2.6-0.2-0.7zm-13.9-41.3l-2.9 1-2.9 1.1-2.9 1-2.9 1.1-2.9 1.1-2.9 1.1-2.9 1.1-2.9 1.1-2.8 1.1 10.2 27.4 5.4-2.2 5.6-2.1 5.5-2.1 5.6-2 4.3-1.5-0.3-0.7-0.8-2.6-0.8-2.5-0.9-2.6-0.8-2.5-0.9-2.6-0.8-2.6-0.9-2.6-0.9-2.6-0.9-2.7-0.8-2.6-0.4-1.1zm106.3 47.3l-5-29.1-0.3 0.1-4.4 0.8-4.3 0.9-4.4 0.9-4.3 0.9-4.3 0.9-1.3 0.4 0.2 0.8 1.2 5.2 0.7 2.7 0.6 2.6 0.6 2.6 0.7 2.7 0.6 2.7 0.6 2.6 0.7 2.7 0.6 2.7 0.4 1.4 1-0.3 4.1-0.9 4.1-0.9 4.1-0.8 4.1-0.8zm36.5-138.2l-2.5-29.5-4.4 0.5-5.5 0.6-5.4 0.6-5.4 0.7-5.4 0.7-5.4 0.7-5.4 0.8-5.3 0.8-5.4 0.9-5.3 0.9-5.3 0.9-5.4 1-5.3 1-5.2 1.1-5.3 1.1-5.2 1.1-5.3 1.2-3.4 0.8 6.9 28.6 3-0.7 5.1-1.1 5-1 5.1-1.1 5-1 5.1-1 5.1-0.9 5.1-0.9 5.1-0.9 5.1-0.8 5.2-0.8 5.1-0.7 5.2-0.8 5.2-0.6 5.2-0.7 5.2-0.6 5.2-0.5zm141.9-29.6l-2.1 29.4 4.1 0.5 5.1 0.5 5.2 0.6 5.1 0.7 5.2 0.6 5.1 0.7 5.1 0.8 5.1 0.8 5.1 0.8 5 0.8 5.1 0.9 5 0.9 5.1 1 5 1 5 1 5 1.1 5 1.1 3 0.7 6.8-28.7-3.4-0.8-5.2-1.1-5.2-1.2-5.2-1-5.2-1.1-5.3-1-5.2-0.9-5.3-1-5.3-0.9-5.3-0.8-5.3-0.8-5.3-0.8-5.4-0.7-5.3-0.7-5.4-0.7-5.4-0.6-5.3-0.6zm-65.4 128.3v29.5h0.3l1.5 0.1h0.9 0.5 0.2 1.1l2.5 0.1 4.3 0.1 4.2 0.1 4.3 0.2 4.3 0.2 4.2 0.2 4.3 0.3 4.2 0.3 4.2 0.3 4.2 0.4 4.3 0.4 4.2 0.4 4.2 0.5 4.1 0.5 4.2 0.5 4.2 0.5 4.1 0.6 4.2 0.6 4.1 0.6 1.8 0.3 5.1-29-2.4-0.3-3.1-0.5-3.2-0.5-3.2-0.4-3.1-0.5-3.2-0.4-3.2-0.4-3.2-0.4-3.2-0.4-3.2-0.3-3.2-0.4-3.2-0.3-3.2-0.3-3.2-0.3-3.2-0.3-3.2-0.2-3.3-0.3-3.2-0.2-3.2-0.2-3.3-0.2-3.2-0.2-3.3-0.1-3.2-0.2-3.3-0.1-3.2-0.1-3.3-0.1h-3.2l-2.8-0.1zm-14.3 29.6v-29.5h-1.8-3.5l-1.8 0.1h-1.7l-2.7 0.1h-0.9l-2.7 0.2-3.4 0.1-3.3 0.1-3.3 0.2-3.3 0.2-3.3 0.2-3.3 0.2-3.3 0.3-3.3 0.3-3.3 0.2-3.2 0.3-3.3 0.4-3.3 0.3-3.2 0.3-3.3 0.4-3.2 0.4-3.3 0.4-3.2 0.4-3.3 0.5-3.2 0.4-3.2 0.5-3.2 0.5-3.2 0.5-2.6 0.4 5.1 29 2.7-0.4 4.2-0.7 4.2-0.6 4.2-0.6 4.3-0.5 4.2-0.5 4.2-0.5 4.3-0.5 4.3-0.4 4.2-0.4 4.3-0.4 4.3-0.3 4.3-0.4 4.3-0.2 4.4-0.3 4.3-0.2 4.3-0.2 4.4-0.1 4.4-0.1 4.3-0.1zm118.2-19.5l-5.1 29.1 0.6 0.1 4.1 0.8 4 0.8 4.1 0.8 4.1 0.9 4 0.9 1.1 0.2 6.9-28.7-1.5-0.3-4.3-1-4.3-0.9-4.3-0.9-4.3-0.8-4.3-0.8zm-252.3 37.1l-10.3-42.6h0.2l-0.2-1-0.6-2.6-0.7-2.6-0.6-2.7-0.6-2.6-0.7-2.7-0.6-2.6-0.7-2.7-0.6-2.7-0.7-2.7-0.6-2.7-0.3-1.1-1.4 0.3-1.7 0.4-1.6 0.4-1.7 0.5-1.6 0.4-1.7 0.5-1.6 0.4-5 1.4-1.6 0.4-3.3 1-3.3 0.9-1.6 0.5-1.7 0.5-1.6 0.5-1.6 0.5-1.7 0.5-3.2 1-1.6 0.5-0.5 0.2-0.2 0.1v0.1l-0.4 0.1 13.7 41.4 9.3 28h0.2l1.4-0.5 2.9-0.9 1.5-0.4 1.4-0.5 1.5-0.4 2.9-0.9 1.5-0.4 1.4-0.4 1.5-0.4 4.4-1.2 2.9-0.8 1.5-0.4 1.4-0.4 1.5-0.4 1.5-0.4 1.5-0.4 1.4-0.3zm148.6-105.6h1.3l3.5 0.1 3.6 0.1h3.6l3.6 0.2 3.6 0.1 3.5 0.1 3.6 0.2 3.5 0.2 3.6 0.2 3.5 0.2 3.6 0.2 3.5 0.3 3.5 0.3 3.6 0.3 3.5 0.3 3.5 0.3 3.5 0.4 3.5 0.4 3.5 0.3 3.5 0.5 3.5 0.4 3.5 0.4 3.4 0.5 3.5 0.5 3.5 0.5 3.4 0.5 3.5 0.5 3.2 0.5 5.1-29-3.7-0.6-3.7-0.6-3.6-0.5-3.6-0.5-3.6-0.5-3.7-0.5-3.6-0.5-3.7-0.4-3.6-0.5-3.7-0.4-3.7-0.4-3.6-0.3-3.7-0.4-3.7-0.3-3.7-0.3-3.7-0.3-3.7-0.3-3.7-0.3-3.7-0.2-3.7-0.2-3.7-0.2-3.7-0.2-3.8-0.1-3.7-0.2-3.7-0.1-3.8-0.1h-3.7l-2.7-0.1h-2.1-0.4zm-81.8-25.4l-3.7 0.4-3.7 0.4-3.7 0.5-3.7 0.5-3.7 0.5-3.7 0.5-3.7 0.5-3.7 0.6-3.6 0.6-3.7 0.6h-0.2l5 29.1 4.1-0.7 4.8-0.8 4.9-0.7 4.8-0.6 4.9-0.7 4.9-0.6 4.9-0.5 4.9-0.6 4.9-0.5 4.9-0.4 5-0.5 4.9-0.4 5-0.3 4.9-0.3 5-0.3 5-0.3 5-0.2 5-0.1 5-0.2h3.2 0.9 0.1l0.9-0.1h1.6v-29.5h-1.6-0.7l-5 0.1-5.3 0.1-5.2 0.2-5.2 0.2-5.2 0.3-5.2 0.3-5.2 0.3-4.7 0.3-0.8 0.1-4.8 0.4h-0.3l-4 0.4-2.6 0.2-0.8 0.1-3.3 0.3-3.7 0.4zm10.2 43l-1.9 0.2-3.5 0.4-3.5 0.4-3.5 0.4-3.5 0.4-3.5 0.5-3.5 0.4-3.4 0.5-0.6 0.1-4.2 0.6-4.7 0.8-4.7 0.7-4.7 0.8-4.7 0.8-4.7 0.9-4.7 0.9-4.6 0.9-4.7 1-4.6 1-4.6 1-2.3 0.5 7 28.7 1.8-0.4 4.4-1 4.4-0.9 4.5-0.9 4.4-0.9 4.5-0.9 4.5-0.8 4.5-0.8 4.5-0.7 4.5-0.8 4.5-0.7 4.5-0.6 4.6-0.7 4.5-0.6 4.6-0.5 4.5-0.6 4.6-0.5 2-0.2zm114.7-1.4h-0.3l-3.5-0.3-3.5-0.2-3.4-0.2-3.5-0.2-3.5-0.2-3.4-0.2-7-0.2-3.5-0.1-3.5-0.1-3.6-0.1h-2.2l-2.5-0.1h-1.5-3.9-0.4-4.5-0.8l-2.7 0.1h-1.1-1.8l-1.9 0.1h-1.8-1.8l-3.7 0.2h-1.8l-3.7 0.2h-1.8l-1.9 0.1-3.6 0.2-3.7 0.2-1.8 0.1-1.8 0.1-5.5 0.4-1.8 0.2-1.8 0.1-2 0.1 2.7 29.4 2.2-0.2 4.6-0.3 4.6-0.3 4.7-0.3 4.7-0.2 4.6-0.2 4.7-0.2 4.7-0.1 4.7-0.1h3.4 0.6 0.7 0.4 0.7l1.8-0.1h3.5l1.6 0.1h0.6 0.7 4.6l4.7 0.1 4.6 0.1 4.6 0.2 4.6 0.2 4.6 0.2 4.5 0.2 4.6 0.3 4.6 0.4h0.3zm64.7 8.2l-7.1-1.2-3.4-0.5-3.3-0.6-3.4-0.5-3.4-0.5-3.4-0.5-3.4-0.4-3.4-0.5-3.4-0.4-3.4-0.4-3.4-0.4-3.4-0.4-3.4-0.4-2.7-0.3-2.6 29.4 3.6 0.4 4.5 0.5 4.5 0.5 4.5 0.5 4.5 0.6 4.5 0.6 4.5 0.7 4.4 0.7 4.5 0.7 4.4 0.7 4.5 0.8 4.4 0.8 4.4 0.9 4.4 0.8 4.4 1 4.4 0.9 4.4 1 1.7 0.4 6.8-28.7-2.4-0.5-4.6-1-4.6-1-4.6-1-4.6-0.9-4.6-0.9-4.6-0.8zm10.9-42.6l-5.1 29.3 1.4 0.3 4.8 0.9 4.8 0.9 4.7 1 4.8 1 4.5 1c0.9 0.2 1.7 0.4 2.5 0.6l7-28.9-2.8-0.7-4.9-1-4.9-1.1-4.9-1-4.9-1-5-0.9zm-148.3-25.4h0.9l1.1-0.1h1 0.9l2.5-0.1h0.9 0.2 0.3l3.9-0.1h0.5 0.5 1 1.9l1.2-0.1h0.6 0.6 0.7 0.6 0.2 2 1.8 0.2 2 1.9 0.9 0.5 0.6l1.2 0.1h0.5 0.9 2.1l5.3 0.1 5.3 0.1 5.2 0.2 5.3 0.2 5.2 0.3 5.3 0.3 5.2 0.3 5.2 0.4 1.9 0.1 2.5-29.4h-0.9l-1.9-0.2-3.9-0.3-3.8-0.2-1.9-0.1-2-0.1-1.9-0.1-1.9-0.2-2-0.1-1.9-0.1h-1.9l-2-0.1-3.8-0.2-2-0.1h-1.9l-2-0.1h-1.9l-2-0.1h-1.9l-2-0.1h-3.8l-0.9-0.1h-2.9-0.1-0.8-5.1-4.6-1.6-1.5-0.9l-1.8 0.1h-2l-4.2 0.1h-2l-2.1 0.1-6.2 0.2-2.1 0.1-2 0.1-2.1 0.1-2 0.1-2.1 0.1-2 0.1-2.1 0.1-2 0.1-4.1 0.3-2.1 0.1-4.1 0.3-2 0.2-2 0.1-1.1 0.1 2.6 29.3 2.8-0.2 5.3-0.4 5.3-0.3zm-98.5 54.8l-5.1-29.2-1.3 0.3-5 0.9-4.9 1-5 1-4.9 1.1-5 1.1-2.8 0.6 6.8 28.8 2.4-0.5 4.8-1.1 4.7-1 4.7-1 4.8-0.9 4.8-1zm389.9 110.1l-1.2-0.6-2.6-1.3-2.5-1.2-2.6-1.3-2.6-1.2-2.6-1.2-5.2-2.4-2.6-1.2-2.6-1.1-2.6-1.2-2.6-1.1-2.6-1.2-2.7-1.1-2.6-1.1-2.7-1.1-2.6-1.1-2.7-1-2.6-1.1-2.7-1-2.7-1.1-2.7-1-2.7-1-2.6-1-2.7-1-2.7-0.9-2.8-1-1.2-0.4-0.2 0.7-0.9 2.5-0.8 2.6-0.8 2.5-0.9 2.6-0.9 2.5-0.8 2.6-0.9 2.6-0.8 2.7-0.9 2.6-0.9 2.7-0.5 1.4 3.6 1.2 5.1 1.9 5.2 1.9 5.2 1.9 5.1 2 5.1 2.1 5.1 2.1 5 2.1 5 2.2 5 2.2 5 2.3 5 2.4 4.9 2.3 2.7 1.4zm-0.5 32.6l3.9 2.1 4.8 2.6 4.7 2.6 4.8 2.7 4.7 2.7 4.7 2.8 4.6 2.8 4.6 2.9 4.6 2.9 4.6 2.9 4.6 3 4.5 3.1 4.4 3 3 2.1 17.2-23.8-3.5-2.5-4.7-3.2-4.8-3.2-4.7-3.1-4.8-3.1-4.9-3.1-4.8-3-4.9-2.9-5-2.9-4.9-2.9-5-2.8-5-2.8-5-2.8-4.4-2.3zm-0.6-129.3l-3-1.2-3-1.3-3-1.2-3.1-1.2-3-1.2-3.1-1.2-3-1.2-3.1-1.2-3-1.1-3.1-1.1-3.1-1.2-3-1.1-3.1-1-3.1-1.1-0.4-0.1-9.1 27.7 5.7 2 6 2.2 5.9 2.2 6 2.2 5.8 2.4 5.9 2.3 5.8 2.4 5.9 2.5 5.7 2.6 5.8 2.5 5.7 2.7 5.7 2.7 5.7 2.7 4.1 2 13.2-26-2.3-1.1-2.9-1.4-2.9-1.4-2.9-1.5-3-1.3-2.9-1.4-2.9-1.4-3-1.3-3-1.4-2.9-1.3-3-1.3-3-1.3-3-1.3zm40.3 51.2l5.5 3 5.5 3 5.5 3 5.4 3.1 5.4 3.1 5.4 3.2 5.4 3.3 5.3 3.3 5.3 3.3 5.2 3.4 5.3 3.4 5.2 3.5 5.1 3.5 4.1 2.9 17-23.7-4.9-3.4-5.3-3.7-5.5-3.6-5.4-3.6-5.5-3.5-5.6-3.5-5.5-3.5-5.6-3.4-5.7-3.3-5.6-3.3-5.7-3.2-5.8-3.2-5.8-3.2-5.5-2.9zm-575.7 78l-13.4-26.1-4.3 2.3-5 2.7-5.1 2.8-4.9 2.9-5 2.8-4.9 2.9-4.9 3-4.9 3-4.8 3.1-4.8 3.1-4.8 3.1-4.7 3.2-4.7 3.2-3.5 2.4 17.1 23.9 3-2.1 4.5-3.1 4.5-3 4.6-3 4.5-2.9 4.6-2.9 4.6-2.9 4.7-2.8 4.7-2.8 4.7-2.7 4.7-2.7 4.8-2.7 4.8-2.6zm464.9-108.8h0.1l-0.5-0.2-1.7-0.5-1.6-0.5-1.6-0.5-1.6-0.5-1.7-0.5-1.6-0.5-3.3-1-3.3-1-3.2-0.9-1.7-0.5-3.3-0.9-1.6-0.4-1.7-0.4-1.6-0.5-1.7-0.4-3.3-0.9-1.7-0.4-1.4-0.4-0.3 1.2-0.6 2.7-0.7 2.7-1.2 5.4-0.7 2.6-0.6 2.7-1.3 5.3-0.6 2.6-0.7 2.6-1.2 5.3-0.7 2.6-1.2 5.2-0.7 2.7-0.6 2.6-1.3 5.2-0.6 2.7-0.6 2.6-0.7 2.7-0.6 2.6-0.6 2.7-0.7 2.7-0.6 2.7-0.3 1.2 0.4 0.2 1.5 0.3 1.4 0.4 1.5 0.4 1.5 0.4 1.5 0.4 1.4 0.4 1.5 0.4 1.5 0.4 2.9 0.8 1.5 0.4 1.4 0.4 1.5 0.4 1.4 0.4 1.5 0.5 1.4 0.4 1.5 0.4 1.4 0.5 2.9 0.9 1.5 0.4 1.4 0.5h0.3l13.8-41.7 9.1-27.7-0.4-0.1v-0.1zm31.6 42.5l10.2-27.4-2.9-1.1-2.9-1.1-2.8-1.1-2.9-1.1-2.9-1.1-2.9-1.1-2.9-1-2.9-1.1-3-1-1.3-0.5-0.4 1.1-0.9 2.7-2.4 7.3-1.1 3.2-0.8 2.5-0.9 2.6-1.7 5.1-0.8 2.5-0.2 0.8 4.3 1.5 5.5 2 5.6 2 5.5 2.1zm92 45.8l15-25-3-1.8-5.2-3.1-5.3-3.1-5.4-3-5.4-3-5.4-2.9-4.7-2.6v0.1l-9.2-4.7-2.7-1.4-2.8-1.3-2.7-1.4-2.8-1.3-2.7-1.4-2.8-1.3-2.8-1.3-2.8-1.3-2.8-1.3-2.8-1.2-2.8-1.3-2.8-1.2-2.8-1.2-2.8-1.3-1-0.4-10.2 27.4 3.1 1.3 5.4 2.4 5.4 2.4 5.4 2.5 5.3 2.5 5.3 2.5 5.2 2.6 5.3 2.7 5.2 2.7 5.2 2.7 5.1 2.8 5.1 2.9 5.1 2.9 5.1 2.9 5 3zm27.2-17.4l-15 25 0.3 0.1 4.9 3.2 4.9 3.2 4.8 3.3 4.9 3.3 3.6 2.6 16.9-23.7-4.4-3.1-5.1-3.5-5.1-3.4-5.1-3.4-5.1-3.3zm-648.7-27v-0.1l-4.8 2.6-5.4 2.9-5.3 3-5.4 3-5.3 3.1-5.2 3.2-3 1.8 15 24.9 2.4-1.5 5.1-3 5-2.9 5.1-2.9 5.2-2.9 5.1-2.8 5.2-2.7 5.2-2.7 5.2-2.7 5.3-2.6 5.3-2.5 5.3-2.5 5.4-2.5 5.3-2.4 5.5-2.4 3.1-1.3-10.2-27.4-1 0.5-2.8 1.2-2.8 1.2-2.8 1.2-2.9 1.3-2.7 1.2-2.8 1.3-2.8 1.3-2.8 1.3-2.8 1.3-2.7 1.4-2.8 1.3-2.7 1.4-2.8 1.3-2.7 1.4z"/>
	<path id="Path 5" fill-rule="evenodd" class="s2" d="m489.2 441.3c-4.9 0-10.2-2.7-14.1-6.3-2-3.7-5.6-5.6-8.3-8l-5.8-11c-1-1.2-2.2-3.6-2.4-5.3 0.7-1.2 0.7-2.7-0.3-4.1-1.7-6.6 2.2-13.1 3.9-19.9 2.2-0.8 2.7-4.2 5.1-5.4l6.6-6.3 10.2-3.9c0.7-1 1.7-0.2 2.9-1 0-1.9 2.2-2.1 3.4-3.6 1 0 0.7-1.9 2.4-2.2l0.7 0.3c0.3 0.7 0.3 1.7 1 2.2 4.9 4.3 12.4 5.5 17.5 9.9 4.8 1 7 5.8 10.7 9.2 1.2 1 0.7 2.7 1.4 4.2 2.2 11.4 1.7 25.9-6.5 35.4-0.8 1.2-2.7 1-2.7 2.9-0.7 0.7-2.4 1.5-3.2 2-0.4 1.6-0.9 3.3-3.1 4.6-0.5 0-1.2 0-2 0.2-3.8 3.4-9.2 5.3-14.5 6.1-0.7 0-1.5 0-2.9 0zm7.2-24.8c3.9-4.1 0.3-10.2 2.2-14.1 1-0.9 2.5-0.9 2.9-1.4 3.7 1.4 8.1 1.4 11.7 1.4l4.8-4.6c1.7-3.1 1.5-5.6 1-8.5-0.7-1.7-2.2-1.2-2.4-2.6-3.4-3.9-9.2-3.2-13.6-4.7-1.5 1-2.7 2-4.4 2.2l-5.1 9-1.4 18.5c-1 0.4-1.5 0-2.2 0 0.5-3.7-1-7.3 0-10.2l-0.7-9c-1.2-2-0.8-4.9-2.2-6.6l-7.5-3.4c-1 0.5-2-0.2-3-0.2-5.1 1.7-10.6 5.3-10.6 10.7-1.5 3.6 2.1 6.8 3.8 9.2 4.7-0.7 9.3 1.7 13.6-0.7l0.8 1.7c-0.5 0.7-0.8 1.2-0.8 1.7 3 3.6-1.4 11.1 5.1 12.3 2.7-0.7 5.4 0 8-0.7zm-64 76.7l-4.6-2.2c-2.2-2.9-6.8-2.6-10-5.1-0.7 0 0.5-0.7-0.2-1.4-0.8-0.5-1.5-0.5-2.5 0l-3.8-2.2v-1.2c-0.8-0.5-1-1-2-1.5-3.9 0-9.5-2.9-12.9-6l-8.7-5.1c-7.3-4.7-15-8.5-21.6-14.6-0.7-0.5-1.2-0.7-2.2-1.2-0.7-0.5-0.2-1 0-1.7-0.2-0.8-1 0-1.7-0.8-2.4-4.3-8.2-6.7-12.1-10.1 0-1.5 2.4-3.2 1-5.1l3.8-12.7 5.6-15.3c-0.7-4.6 2.4-8.2 3.9-12.8 8-14.6 14.1-32.5 26-43.7l8.5-5.8c9.4-5.1 20.8-7.3 31.3-6.8 0.7 0.5 0.7 0.7 1.7 0.9 1.2-1.4 3.4-1.9 5.6-0.4l6.5-1c3.7 4.6 5.6 12.1 10.5 16.2 0 0.5 0.4 1.5 1.2 1.5 0.2-0.2 0.9-0.2 1.9-1 0-1.4 1-1.2 1.7-2.4l-0.5-0.7 12.2-8c4.3-3.2 9.9-3.7 14.8-2.7l4.6 2.9-1.2 10.7-4.4 5.3-20.6 9c-3.7 1.9-5.6 5.6-8.3 9.5-1.7 2.6-3.1 6-3.9 9.4l-0.9-0.2-1.3-19.4c0.8-4.4 3.7-6.1 5.6-9.7 0-0.8-0.9-0.8-1.2-1.5l-10.4 2.2-11.7-0.5c-0.5-0.2-0.7-1.2-1.2-1.9-2.2 0.2-4.6 1.9-6.8-0.3-1 0-1.4 1.2-2.7 0.5v-1.2c-3.1 1.2-6.5-1.5-10.1-1.7-2.7 0.5-3.9-2.2-6.1-3.4-0.7 0.2-1.2 0.5-1.5 1.5l-1.7 11.6-2.2 10c-0.7 7.7-2.9 15-2.9 22.3l-4.6 16.3c-1.4 2.9-1.4 7.2-5.1 9.4l-6.5 4.4c0 0.2 0 1.2 0.7 1.7 10.9 5.1 23.1 10.2 35.2 15l16 10c1.7 0.2 2.7 1 4.4 1.2l0.5 1-1.2 10.4-1.8 15.3c-2.4 2.2-0.7 4.9-1.9 7.5l-0.2 0.3c-1 1.7 0.7 2.9 0.2 4.8zm98.8 25.5c-5.6-1.7-5.8-9.7-10-12.8l-6.5-9.3c0-1.2-1.5-2.2-1.5-3.9-0.9-0.2-1.2-0.4-1.9-0.9-2.7-6.8-8-13.9-9.7-20.7l-4.1-4.6c-0.3-1.7 1.2-2.9 2.6-4.1l10.9-2.2 0.8 0.5c4.4-0.5 9.9-2.4 14.1 0l-6.1 10c-3.2 1.9-3.6 5.3-5.1 8.9 0 1-0.7 0.5-1.2 1.5h-0.3c-1.2 0.5 0 2.4-0.7 3.9l3.7 3.4c0.4 0.2 1.2 0.7 2.1 0.5l7.1-7.6c0.5-0.7 1.7-1.2 3.1-1.7 0.5-0.5 0.5-1.4 0.5-1.9l6.3-9c0.5-1.4 1.5-3.1 1.2-4.8 2.2-2.5 4.9-0.8 7.3 0 1.2 4.6-5.1 6.8-4.8 11.9-2.5 1.9-5.1 4.8-4.9 8.5 4.1 1.6 7.3 4.3 9.2 8.4 3.7 4.7 1.5 10 1.2 15.1-2.9 5.1-6.5 9.5-13.1 10.9zm-29.6 3.4l-6.5-14.6c-3.9-6.7-7.3-16.5-11.7-24l-3.1-8.7c-1.2-0.5-2.7-2-2.7-3.4 0-0.7 0.2-1.5-0.2-2.2-3.4-2.9-4.7-9-6.8-13.3-2-0.8-4.2 0-6.1-0.8-0.7 0.5-1.7 2-1.2 3.2 0.7 0.2 1.9 2.2 1.9 3.6 0.7 1.2 2 2.9 1.2 5.1l5.4 10.9c3.6 6.6 5.8 13.1 9.4 19.9-1.7 6.8-8.5 10.7-15.3 11.5-2.6-0.8-5.8-0.3-8.7-1.8-6.1-3.6-11.9-10.9-10.9-18.6 1.9-4.6 3.1-9.8 7.3-12.4 1.4-1.5 3.6-1.7 5.5-2.9l1.5-8c-0.5-0.3-1.2-0.8-1.9-0.8l-2-11.4 12.2-0.7 1.4-0.2 0.5-10.7c7 4.3 16.3 8.2 24.3 6.5 5.3-0.2 10.9-3.1 16-6l0.2 11.1c-2.4-0.2-4.6 0-7 0.3l-19.4 1.4c-1.2 2.7 1.7 5.4 2.2 8 0.2 1.2 1.4 1.7 2.1 3.2l8.1 17 7 14.5c0 5.6 5.6 10.2 6.5 15.1l1.3 1v1.9c0.4 1.5 3.4 2.9 3.6 5.6-1.2 1-2.4-0.5-4.4 0-2.4 1-6 0-9.2 0.7zm-42.2 1.7c-1.5-0.7-2.9 0.3-4.9-0.7 0-0.7-0.9 0-0.9-1 1.4-0.5 1.4-2.4 1.4-3.4 7.8 1.7 16.8 1.7 24.8-2.4 0.7-3.4 5.1-2 6.8-5.1l1.2-0.5 3.9 11.2-30.1 1.9c-0.5 0-1.5 0-2.2 0zm89.6-39.3c-1-1-2.2-2-3-3.4v-1c2.2-0.5 2.2-3.9 4.4-5.3l2.9-6.3c2.4 0 4.4 2.2 5.6 3.6l-6.6 8.5c-0.9 1-1.9 3.2-3.3 3.9zm29.6 61.4l-10.2-9-8.5-9-7.3-6.5-0.7-0.7c-0.5-1 0-2-0.3-3.4l4.9-8.3c0-5.6 1.2-11.4-0.3-17l9.5-9c1-0.7 1.5-1.9 3.1-2.4l10.7 10.4-0.7 1.3c6.6 1.4 9 8.7 13.8 13.3 0.8 0 1 0 1.5 0.7-1.7 10.7-2.2 21.6-2.4 32.1 0.7 1.7 0.5 3.4 0.9 5.8zm28.9 1l-0.9-13.1 0.9-20.9c1.9-21.8 9.5-43.3 8-65.3 0-6.7-1.6-13.2-3.1-19.7-0.9-7.8-4.7-13.7-8.7-19.7-1.9-2.9-3.6-5.1-5.8-7.6-3.6-4.3-9.5-14.6-10.8-16.4-4.6-6.4-8.2-21.7-4.8-27.4l6.5-10.9c1-0.2 1-2.2 2.5-2.7 1.4 0 3.4 0 5.1-1.4h0.4c1.2 2.3-4.5 11.6-6 13.1-6.1 14.6 5.8 27.6 12.8 39.3 7.6 8.3 17.2 18.3 19.7 27.9l4.9 18.7c0.7 7.3 1.4 14.6 0 22.3l-1.3 13.4c-1.3 10.7-3.6 21.7-3.6 32.5l-0.7 16v1.2c-0.8 0-8.9 11.1-9 12.9zm-39.6 100.3l-0.5-1c-3.1 0-4.6-2.2-6.5-4.6-1-1.7-0.5-3.7-1-5.8 4.9-8.8 17.5-9 23.8-15.3 0.3-0.5 1-0.5 1.7-1 0.7-0.5 1-1.7 0.2-2.4 3.7-3.2 4.2-7.8 4.9-12.4l-1.7-12.2c-1.9-6.5-1.9-13.3-0.5-20.3 2.2-0.8 2.4-3 5.1-3.9 0.3 0.5 1.7 0.2 2.4 0.2-1.4 7-4.3 15.1-2.1 23.1l3.4 15.7-0.8 9.8c-0.7 1.4 0 3.4-1.4 4.3 0.7 4.9-3.4 10.2-6.1 15.1-1.9 3.9-5.8 6.8-10.2 9l-1.2 0.2c0 1.2-1.7 0.5-2.4 1.2-1 0-0.8-0.7-1.5-0.7-1.4 1.9-3.9 0-5.6 1zm-6.5-24.3c-1.5-0.5 0-2.4-0.5-3.7 9.2-6 7.5-19.1 8-29.1-1-10.2-1.7-20.4 4.1-30.3 2.9-4.6 9.2-5.4 14.6-4.9 1.2-1.7 2.9-0.7 4.4-0.5 0.7 0.8 2.4 2.2 2.4 4.2-0.3 0.4-0.7 1.2-0.7 1.7l-10 2.4c-0.5 0.5-0.7 0.5-1.5 1.4-0.4 0.5-1.2 0-1.9 0.5-8 15.3 5.6 32.8-2.7 46.9l-1.7 4.6c-3.6 3.4-8.7 6.8-14.5 6.8zm51.7 215.3l-3.4-3.7c-1.2-2.4-3.2-4.6-4.7-7.3-1.2-2-1.7-2.9-3.3-4.6-3.2-3.4-5.2-8.6-7.1-13.3-2.6-6.6-3.4-13.4-4.3-19.7-2.5-7.2 0.3-14.5 2.4-21.8 3.6-12.7 12.3-25.2 20.3-38 19.7-31.5 13.3-68.9 3.7-102.5l-2.9-9.5c-0.5-1.2-0.2-2.2-1.4-3.9-1.3-7-3.7-13.6-3-20.1 0-1-0.9-1-0.9-1.7 0.7-3.4 5.1-2.7 8.2-4.2 0.5 0.3 1.5 1.2 2.4 1.5 2 3.1 2.5 7.5 2.5 11.4 0 0.2 0.9 0.7 1.7 1.2 0.7-1 1.7-2.7 1.7-3.9 1.4-2.2 1.2-4.6 2.2-7 4.1-6.8 5.5-14.8 7-22.6 0-2.2 0.7-5.3-1.7-6.8-2.9-0.2-7.8-1.4-10 2.2-5.3 3.9-7 14.3-15.3 13.8-0.7 0.3-1.6-0.7-2.4-0.7q0-0.4-0.7-1.5c10.9-5 8-21.1 17.5-28.6l4.8-6.5c6.8-2 14.1-0.5 18.7 5.1 5.6 9.2 3.9 19.1 2.2 28.4l0.5 16.7-8.3 5.1c-5.1 2.4-8.9 8.5-14.5 7.8-0.3-0.3-1-1-1.7-0.3 5.6 21.2 11.1 42 15.7 63.4 2.2 9.7 2 19.2 0 29.1-3.3 16.2-13.3 38-25.1 50.8-8.6 9.4-14.2 26.6-15.6 39-1.2 10 3.1 18.9 5.8 28.6 2.7 5.2 11.2 16.2 11.2 21.7-0.8 0.4-0.8 1.6-2 2.4zm-158.5-286.2c0.5-3.6 0.5-7.8-0.2-12.1q0-1.1 0-2.9c17.5-5.4 37.1-2 55.8-2.2 11.2 0 23.5-0.5 35.2 0l0.7 14.1c-13.1 4.3-27.6-0.3-41.7 2.9zm-12.7 327.2l-34.2-1.7c-3.9-36.7 14.1-74.1 33-106.1l1.2-0.5c0-1.7-1.6-2.4-1.6-4.1-0.5-0.5-1.3-0.8-1.7-1.7-2.2-7.1-3.9-14.8-0.3-22.6 0-4.6 4.9-9 7.8-12.9 3.6-3.6 6-8.7 10.7-11.1l8.5-8.3c2.9-2.2 4.1-4.4 8.2-4.8 1-1.2 2.7-2.5 4.4-2.7l7.7-5.8c3.7-2.7 5.6-5.6 9.5-7.6l7.3-7 5.6-7.8c0.2-1.9 0.7-2.9 1.9-4.6-1-1.7 0.5-3.1 0.5-5.1 3.9-1.9 1.9-7 3.2-11.1 0.9-9.3 3.1-19 1.9-28.4 0.7-2.5-1.5-2.7-2.2-4.6l-9 1.4-0.2 0.5c0 1 1.2 1 1.7 1.2 2.9 5.1 0.2 11.7-0.5 17.5l-4.9 16.5-1.2 1c-0.5 6.3-6 11.9-8.5 17.9-2.9 4.1-6.5 7.3-10.6 10.7l-8.3 5.3-6.1 4.2c-5.1 1.2-6.8 6.3-12.1 6.8-7.3 5.1-15.3 9.7-21.6 16-5.3 4.1-8.7 10.4-11.7 17.5-2.4 4.8-0.9 9.2-0.9 13.3-0.7 4.1 1.9 6.8 2.9 10.9 0.5 0 0.5 1.2 1.2 1.2l2.2 7.6c-3.4 2.2-7.8 0.9-11.9 0.7-0.2-0.5-1-1-1.7-1-0.7-0.5-1.2-0.9-1.7-2.2 0-2.9-3.4-4.3-4.1-7.2-0.8-0.8-0.8-2.5-1.7-2.9 0-2.2 0.2-4.2-1.2-6.1v-2c0-0.4-0.5-0.7-1.3-1.2-0.2-0.2 0-1.2 0-1.7l4.2-13.6c0.7-0.9 1.4-1.4 2.6-1.9 1.7-6.1 7.8-9.5 11.9-14.8l10.7-8.3 0.5-0.9c2.9 0 6.3-2 8.7-4.2l7.8-4.8 12.6-7.8 8.3-8 8.2-8.7c4.9-7.3 9.3-15.6 11.4-23.3 1.7-6.6 1.5-13.6 0.8-20.2 0-2.4 0.7-5.8-2.5-7.3-0.9-1.4-3.1-0.7-4.8-0.9-1 0.5-1.7 0.7-2.2 1.7 0.2 1.4 0.2 2.4-0.2 3.6 0.2 8-2.5 14.1-2.5 20.9-2.2 7.3-6.5 13.3-10.7 20.1-0.9 0.5-1.6 0-2.4 0.8-0.5 0.9-1.4 1.9-2.9 2.4-0.5 1 0 2.2-1 3.1-4.6 1.5-6 6.3-10.9 7.3l-13.1 7.1-11.4 4.8c-5.3 2-9 7.1-14.8 8.5l-10 8.8-1.2 0.2-6.3 7.8c-3.9 9.4-9.2 19.9-5.6 29.8l3.7 10.2c1.9 4.9 8 5.6 9.9 10.9l-0.5 0.3c-5.1 1.9-10.9-2.7-16.5-3.4-8.2-4.9-16.2-12.6-17.2-23.1l-0.5-14.1c1.5-0.4 1.5-1.4 1.5-2.1-2.2-1.5 0-4.7 0-7.1 1.4-2.2 1-6.3 4.4-8.2l4.1-7.8 10.4-9.7 0.7-1.5 6.6-6.8c2.4-4.3 6.1-6.5 9-10.2l12.1-10.9 5.8-6.3c8.3-8.5 13.1-21.6 11.9-33.7 3.7-3.2 8.5-2.5 12.4-2.5l1.2-0.2c2.4-6.6 2-13.8 5.8-20.9l8.1-7.5c0.9-0.5 0.9-1.7 1.7-3.2 8-5.1 18.6-8.5 27.9-13.8 3.9-3.6 10.4-7.5 9.7-14.3 1.7-3.2 5.8-5.4 9.2-4.1 0.5-0.3 2.2 0.2 2.4 0.9l-8.7 12.2-6.1 6.8c-5.8 4.1-9.7 8.9-16.7 11.6-5.6 2.7-11.2 6.8-14.3 12.2-2.7 1.9-1.5 5.3-3.7 8.2 0 4.1-2.7 10 1.5 14.1l9.7-1.5c2.6-4.1 2.6-8.2 4.1-12.6l6.1-11.4 7.5-6.8c1-0.5 2.2-0.2 3.4-1l6.5-5.1 8.3-7.3c2.4-1.4 3.6-2.9 5.3-5.3l4.4-5.3c0.7-0.5 1.5-0.8 1.7-1.5 1.2-2.2 1.5-3.9 1.5-6.1 2.9 0 6-1.2 9 0.3l-3.4 9.9-11 11.4c-1.4 3.4-5.8 3.9-8 6.8-7.8 2.2-12.1 8.1-17 13.9 0 0.7-0.5 1.7-1.4 1.9-0.5 2.9-2.7 5.4-2 8.8 0 2.6-1.9 5.3 0.3 8 0.5 0 0.9 0.2 1.2 0.7 2.9 1 4.8 0 7.3 0.7 1.2 0 1.7-0.9 2.9-1.9 0-6.6 2.4-15.1 7.7-20.4 2.7-0.7 3.9-2.9 4.9-5.1l12.9-7.5c5.1-4.2 9.2-9.5 13.8-14.6l2.7-9c1.4-2.2 4.6-1.7 6.5-1.2l1.7 9.5c-0.7 4.6 2.2 8 3.4 12.1 2.9 8.8 8.3 18.2 2.7 28.2-2.7 1.4-4.1 5.1-8.3 4.3-0.4 0.8-0.4 1.3-0.7 2.2-2.9 0.8-5.8 2.5-8.7 2-4.2 3.9 0 10.4-3.4 14.8l-2.5 12.4-2.1 4.3c-0.3 10-9.5 17.5-15.1 24.8 0 0-0.5 0.2-1.4 1 0 0.7-1 1.2-1 1.9-0.3 0.5-1.2 1-1.7 0.7l-5.6 7.3c-1 0.7-1.7 1.5-2.4 2.2l-12.2 11.4c-8.2 9-18.2 16.3-25.4 27.2-6.4 9-7.3 20.4-8.3 30.6 1.9 4.6 3.6 9.4 8.3 11.6l10.1 0.7c2 8.1-3.6 18-8.2 25.5l-5.3 9.3c0.9 1.6-0.3 2.6-1.3 4.1l-1.7 28.1c-1.9 1.7-0.2 4.6-2.9 7.1l-6.5 20.6c-2.9 4.4-2.2 9.5-6.8 11.7zm-14.3-259.3c-1 0-1-1.4-2-1.7-2.6 1-5.3 0-8.5-1.7-2.9-3.1-5.3-6.5-4.8-11.6l0.5-11.2 5.1-7.3c3.8-6.5 12.1-9.9 18.2-14.5l5.1-4.4c0.2-0.2 0.7-0.7 1.7-0.7l6.5-6.6 7.3-1.2h28.9c2.2 2.4 0 7-1.2 10.7-11 11.4-31.3 6.8-42.8 19.6-0.4 0.8-1.2 0.8-1.9 1-5.1 8.3-8.3 18.7-6.6 28.4-1.7 0.7-3.1 0.5-5.3 1.2zm103.4 151.2l-18.4-1.2c-5.6-7-6.6-18.4-5.1-27.6 1.2-4.7 1.4-10.2 5.1-13.1v-1.5c2.9-4.4 6.5-8 11.1-12.1l9.3-6.8 8-8.3 5.1-4.8 10.4-19 2.4-8.5c0.5-0.5 2 0 2.5 0.5l5.1 11.7 3.6 9.4 5.8 13.4 5.8 21.8c0.5 8.8 5.6 18 5.1 26.7l1 8.8c-1 1.4-0.5 3.6-1.4 5.3-6.8 5.3-15.1 1.7-22.1 3.2-8.5-1.3-16.8 1.9-25.3 0.2zm-34.4 1.2c-4.4-2.9-8.8 0-13.2-1.2 0-1.2-2.1-1.9-3.3-1.9l-1-1.5-1.5-0.2c-0.9-1.5-2.2-3.2-2.4-4.9-1-0.7-2.4-1.2-2.7-2.9-0.7-7.5-0.5-18.2 6.1-24l7.8-9c0.7-0.5 0.7-2 2.2-2 0.4-0.9 0-1.4 0.4-2.6l7.6-6.8c0.7-0.8 1.7-0.8 2.1-2v-1.4l8.1-6.1 5.5-4.6c2.7-3.2 6.8-5.3 8.8-9.2l7.3-8c0.2-1.3 0.9-2.7 1.4-3.7 2.4-1.4 4.1-3.9 5.4-6.8l0.7-0.7c4.6-10 7-20.2 8.7-30.1 1.5-1.5 3.4-1.7 5.8-1.5 0 1.5 0.5 3.2 1.3 4.7 0.7 8.9-2.7 18.4-5.4 28.6-0.2 1-1.4 2.2-1.2 3.6-2.9 1.3-3.6 5.9-6.3 8.3l-13.8 14.3-7.8 7.3-12.9 10.2c-8.5 7.8-14.3 20.9-14.3 32.5 0 6.6 2.2 12.1 5.8 18.7 0.5 0.7 1.5 0.7 2.7 1.5v1.2zm-102 211.4c-12.1-3.4-25 1.7-37.6-2.9 1.2-2 4.9-4.6 7.6-5.6 10.9-2.9 22.8-11.4 34.7-12.9 1.9-2.6 1.2-6.5 1.7-9.9l5.3-62.7c6.1 0.8 13.1 1 19.4 0l12.9-0.7 1.2 1.5-1.5 6.5c0 0.5-0.4 0.8-1.4 1.2l-1.5 5.4-6.8 20.6-3.4 7.3-4.8 14.8c-0.5 0.5-1 1.2-1.7 1.9 1.2 1.3 0 3.7-0.7 4.4-1.7 8.7-7.1 17-9.5 26.2 0.5 1.5-0.7 2.5-0.7 3.9l-11.2-0.2c-0.2 0.2-1 0.7-2 1.2zm146.9 0.2l-18.7-1.2c1.5-7.8 0-16 0.7-24.5-1.4-20.6 0-41.8-0.5-62.9l27.5-1.7c1.4 0 2.9 0 5.1 1-2.5 20.4-11.7 41.7-15.6 62.9-0.2 2.2-1.2 4.8 0.5 7.2 5.9 5.6 15.1 5.9 22.4 10.2 3.6 1.3 6 1.7 8 3.9 2.1 0 4.1 1.5 5.3 2.9v1l-1.2 1c-7-2.7-14.8 0.2-22.3-0.5zm15.5-99c-10.9-3.7-22.1 0.2-33.5-1.5 0.7-10.4-1-21.8-0.5-32.5 2-15.3 7.8-30.8 15.8-45.6 4.6-4.9 8.2-11.7 9.5-18.7 0.7-0.8 1.1-2.3 1.2-2.5 0-1.2 0-1.9 0-3.4l28.6-0.4c0.7 0 0.7 0.9 2.2 1.4 0.2-0.2 1 0 1.7 0.5 0 13.1-3.6 26.9-6.3 39.8-3.4 6.1-2.7 12.6-4.9 18.7-2.9 9.2-3.9 18.4-8 27.2l-3.6 11.9-1.5 4.8zm-139.8-326.9c-5.1-1.5-10.2-2.9-13.1-8-0.2-6.6-2.9-13.1-1.7-19.7l0.3-38.3 5.8 3.6c0 0.5 0 0.7 0.5 1.7 0.9 0 1.9-0.5 3.4 0.2 0.4 0.5 0.9 1.5 1.9 2.2 3.4-0.7 5.6 2.2 9.2 2.9 6.3 4.9 15.1 3.4 20.4 9.5l0.3 28.4c-1.3 5.1-0.3 11.4-5.9 14.6-6.3 4.6-13.8 1.4-20.4 2.9zm25.8-112.4c-1.5-0.5-2.7-1-3.7-2.7-0.7-0.2-0.9-1.2-1.9-0.2l-12.1-6.6-8.1-4.1 0.8-0.7h24.7c0.5 0.7 0.3 1.7 0.5 2.9l-1.2 0.7c2.2 2.2 1.7 8 1 10.7zm-0.3 24l-0.7-0.5 3.4-11.9c1-0.4 1.7-0.4 2.9 0l1.5 9c0 0.3-1.2 1-2 0.8-1.2 0.2-0.7 0.7-1.7 1.4h-1.4l-0.8 1.2zm35.7-71.6l-5.8-0.9c-0.7-1.5 0.7-2.7 1.9-3.7l9-0.5c1 1.5-0.7 2.7-1.4 4.2-1 0.4-2.5 0.7-3.7 0.9zm30.4-0.5l-7.1-3.4c-0.5-1.7 1.2-2.1 2.2-3.1l8.3 1.7c-0.8 0.5-0.3 1.7-1 2.9-1 0.2-1.5 1-2.4 1.9zm24.2-17.9l-8.7-10c-5.1-5.3-13.1-7.5-19.9-9-1 0-2.2 0-3.4-0.7-0.5-1.4-1.7-1.7-2.2-3.1-0.5-0.8 1-2-0.2-2.7v-10.7c0-0.5 0.2-1.7 0.9-2.4 4.4-1.5 9.7-1 13.9 2.2 5.8 1.2 10.4 5.8 13.8 11.6 5.8 6.6 6.8 16 5.8 24.8zm-91 38.6c-0.7-0.3-1.4 0-2.2-0.3l0.5-15.5c-0.9-1.5-1.2-2.4-0.9-4.6l0.4-19v-9.7c0.8-1.2 2.2-0.4 3.4-0.9v10.2l-0.5 24 1 1.4v14.1zm-13.1 0c-3.6-14.5 0.5-33.5-1.4-49-0.3 0-1 0-1-1l0.2-0.7c1.5-0.2 2.7 1.2 4.4 0.2v9.3l0.5 17.9v10.7c0.5 0.2 0 1-0.3 1.7h-1.4c-0.7 1 0.7 1.2 1.2 2.2zm-13.6 0.7c2.9-13.3 0-29.1 1.7-43.4 0-0.3-0.7-1-0.2-1.2l0.4 0.2c0-1.9-1.4-4.6 0-6.3 0.8 1 1.5-0.3 2.2 0l0.5 23.8c0 8-1.2 16.5-0.5 24.7-0.7 0.5-0.7 1-0.7 1.7-0.7 0.5-1.9 0.5-2.9 0.5zm-8.3 0.5c0-0.5-1.2-0.5-1.2-1 1.2-9.9 0-20.4 0.5-29.8 1.7-5.1 0-12.4 0.7-18.7v-1.2c0.3-0.8 1.5-0.8 2.2-0.5 2.2 5.6-0.7 12.1 1.2 18l-1.2 12.6 0.5 20.1c-0.7 0.5-1.7 0-2.7 0.5zm84.3 15.5c3.8-0.7 8.2-0.4 10.6-4.3 1.3-3.4-0.2-6.6-2.4-8.8-0.7-0.7-1.2-0.7-1.7-0.7-1-0.2-1-0.7-1.7-1.2-1.9-0.2-3.4 0.5-4.8 0-3.2-1-6.3 1.5-8.5 3.4-1.5 2.2-1.5 5.1-0.8 7.3 1.7 3.1 5.9 4.3 8.8 4.3zm-0.8-5.5l-1.4-0.3c0-0.7-0.5-0.7-1.7-1.4 1.2-3 6.3-2.2 9-1.7l0.2 1.7c-1.4 1.4-4.3 1.7-6.1 1.7z"/>
</svg>