<svg version="1.2" xmlns="http://www.w3.org/2000/svg" viewBox="0 0 669 964" width="669" height="964">
	<title>Glavinitsa-pdf</title>
	<style>
		.s0 { fill: #918f90;stroke: #231f20;stroke-width: 4 } 
		.s1 { fill: #ffffff;stroke: #231f20;stroke-width: 4 } 
		.s2 { fill: #00a650 } 
		.s3 { fill: #fff200 } 
		.s4 { fill: #231f20 } 
		.s5 { fill: none;stroke: #fff200;stroke-width: 4 } 
		.s6 { fill: #a7a5a6;stroke: #231f20;stroke-width: 4 } 
		.s7 { fill: #ffffff } 
		.s8 { fill: none;stroke: #00adef;stroke-width: 16 } 
		.s9 { fill: #ed1c24 } 
		.s10 { fill: none;stroke: #231f20;stroke-width: 8 } 
		.s11 { fill: #231f20;stroke: #ffffff;stroke-width: 4 } 
	</style>
	<path id="Path 1" class="s0" d="m83.2 4.7v37.6h120.4v-39.5h80.9v39.6h114.1v-39.7h82.9v39.7h99.6v-37.4h85.2v757.3c0 0-101.7 195.1-329.9 199.2-228.3 4.2-334.1-199.2-334.1-199.2v-757.3z"/>
	<path id="Path 2" class="s1" d="m647.6 65.6v681c0 0-96 184-311.4 188-215.4 3.9-315.2-188-315.2-188v-681c238.9-0.7 392.9 0 626.6 0z"/>
	<path id="Path 3" class="s2" d="m633.1 249.7v485.4c0 0-91.5 175.6-297 179.3-205.4 3.7-300.6-179.3-300.6-179.3v-485.4c227.8-0.7 374.7 0 597.6 0z"/>
	<path id="Path 4" class="s3" d="m349.7 585.8l35.2-47.1 1.7 50.6 42-24.9-18 47.2 52.3-6.9-34.3 40.3 57.4 5.1-50.6 26.6 49.7 30.9-60 4.3 41.2 43.7-51.4-15.5 18 50.6-48.9-30.8 3.4 60-38.5-45.5-17.2 47.2-14.6-48-34.3 43.7 1.8-56.6-47.2 30.9 24-53.2-58.3 12.9 41.2-42-59.2-3.5 54-30.8-53.1-24 60.8-4.3-46.2-42 60.8 17.1-24-56.5 48.9 31.7-3.5-53.2 36 42.9 15.5-54.9z"/>
	<path id="Path 5" class="s4" d="m333.4 584.1c51.6 0 93.5 41.9 93.5 93.5 0 51.6-41.9 93.4-93.5 93.4-51.6 0-93.4-41.8-93.4-93.4 0-51.6 41.8-93.5 93.4-93.5z"/>
	<path id="Path 6" class="s3" d="m333.4 650.5c15 0 27.1 12.1 27.1 27.1 0 14.9-12.1 27-27.1 27-14.9 0-27-12.1-27-27 0-15 12.1-27.1 27-27.1z"/>
	<path id="Path 7" class="s5" d="m291.3 594.1c34.7 11.9 59.6 44.8 59.6 83.5 0 38.6-24.9 71.5-59.6 83.4m29-176c22.2 16.1 36.7 42.1 36.7 71.6 0 48.7-39.5 88.2-88.2 88.2h-0.2m90.3-157.2c7.7 13.1 12.1 28.3 12.1 44.5 0 48.8-39.5 88.3-88.2 88.3-12.8 0-25-2.8-36-7.7m138.7-112.7c1.3 6.1 2.1 12.5 2.1 19.1 0 48.7-39.5 88.1-88.2 88.1-22.8 0-43.5-8.6-59.2-22.7m171.3-58.3c-4.9 44.1-42.3 78.4-87.7 78.4-35.8 0-66.6-21.3-80.4-52m181.8 7.6c-15.3 26-43.6 43.6-76.1 43.6-47.7 0-86.5-37.9-88.1-85.3m165.5 66.8c-15.5 13.7-35.9 21.9-58.2 21.9-48.7 0-88.2-39.4-88.2-88.1 0-6.8 0.8-13.5 2.3-19.8m139.5 108.4c-10.3 4.2-21.6 6.5-33.5 6.5-48.7 0-88.2-39.5-88.2-88.2 0-13.9 3.3-27 9-38.7m95.6 150.5q-0.3 0-0.7 0c-48.7 0-88.1-39.5-88.1-88.2 0-25.6 10.9-48.7 28.4-64.8m36.5 173.2c-37-10.5-64.1-44.5-64.1-84.8 0-36.6 22.3-67.9 54-81.3m26.4 20.2q1.4 0 2.9 0m-56.4 158.3c-21.1-16.1-34.7-41.5-34.7-70.1 0-48.7 39.5-88.2 88.2-88.2m-11.4 21.8c11.8 0 23.1 2.3 33.4 6.5m-108.6 127.8c-8.2-13.4-13-29.2-13-46.1 0-48.7 39.5-88.2 88.2-88.2m-19.2 12.2c23.1 0 44.2 8.9 59.9 23.5m-145.7 85.2c-1.6-6.6-2.4-13.4-2.4-20.5 0-48.7 39.5-88.2 88.2-88.2m-21 5.3c34.3 0 64.1 19.5 78.6 48.1m-166.5 32.9c3.7-45.4 41.7-81 87.9-81m-24.4 3.5c45.2 0 82.5 34 87.6 77.9m-165.6-30.9c14.8-28 44.2-47 78-47m-21-6.2c48.7 0 88.2 39.5 88.2 88.2 0 6-0.6 11.8-1.7 17.4m-146.6-81.9c15.8-14.7 36.9-23.7 60.1-23.7m-18.3-12.2c48.7 0 88.2 39.5 88.2 88.2 0 15.5-4 30.1-11 42.7m-112.9-123.3c10.9-4.9 23-7.6 35.7-7.6m-14.8-21.8c48.7 0 88.1 39.5 88.1 88.2 0 27.1-12.2 51.4-31.5 67.6m-59.4-155.8q1.4 0 2.8 0"/>
	<path id="Path 8" fill-rule="evenodd" class="s3" d="m282.8 307.2c0 0 43.8 19.8 46.3 33.5 2.6 13.7 4.3 31.7-6 34.3-10.3 2.5-32.5-7.7-38.5-18-6-10.3-1.8-49.8-1.8-49.8zm60.9-48.8h4.3v67.7h-4.3zm20.6 0h4.3v55.7h-4.3zm18 0h4.3v46.3h-4.3zm-60.9 0h4.3v67.7h-4.3zm-19.7 0h4.3v55.8h-4.3zm-19.7 0h4.3v46.2h-4.3zm102.5 228.1c-6 10.3-28.3 20.5-38.6 18-10.3-2.6-8.6-20.6-6-34.3 2.6-13.7 46.3-33.5 46.3-33.5 0 0 4.3 39.5-1.7 49.8zm0-64.3c-6 10.3-28.3 20.5-38.6 18-10.3-2.6-8.6-20.6-6-34.3 2.6-13.7 46.3-33.4 46.3-33.4 0 0 4.3 39.4-1.7 49.7zm0-65.2c-6 10.3-28.3 20.6-38.6 18-10.3-2.5-8.6-20.5-6-34.3 2.6-13.7 46.3-33.4 46.3-33.4 0 0 4.3 39.4-1.7 49.7zm-101.7 79.7c0 0 43.8 19.8 46.3 33.5 2.6 13.7 4.3 31.7-6 34.3-10.3 2.5-32.5-7.7-38.5-18-6-10.3-1.8-49.8-1.8-49.8zm0-64.2c0 0 43.8 19.7 46.3 33.4 2.6 13.7 4.3 31.7-6 34.3-10.3 2.5-32.5-7.7-38.5-18-6-10.3-1.8-49.7-1.8-49.7z"/>
	<path id="Path 9" fill-rule="evenodd" class="s6" d="m363.4 498.5c11.9 2.1 23.4 5.3 34.4 9.5l9.6-16.7 50.5 29.2-9.8 17c9.1 7.5 17.4 15.9 24.9 25l17.1-9.8 29.1 50.4-17 9.9c4.2 10.9 7.2 22.3 9.2 34.1h19.6v58.3h-19.8c-2 11.8-5.1 23.1-9.3 34l17.3 10-29.1 50.5-17.6-10.2c-7.4 9.1-15.7 17.3-24.8 24.8l10.2 17.6-50.5 29.1-10-17.4c-10.9 4.2-22.3 7.3-34 9.4v19.8h-58.3v-19.1c-11.9-1.8-23.6-4.8-34.7-8.8l-9.2 16.1-50.5-29.1 8.8-15.3c-9.6-7.6-18.5-16.1-26.4-25.4l-14.6 8.5-29.2-50.5 13.8-7.9c-4.6-11.5-8-23.6-10.1-36.1h-15.5v-58.3h15.4c2-12.5 5.4-24.6 9.9-36.2l-13.5-7.8 29.2-50.4 14.1 8.2c8-9.5 16.9-18.1 26.5-25.8l-8.4-14.6 50.5-29.2 8.8 15.4c11.3-4.1 23-7.1 35.1-8.9v-18.3h58.3zm-182.6 177.4c0 82.6 68 150 151.3 150 83.4 0 151.3-67.4 151.3-150 0-82.6-67.9-150-151.3-150-83.3 0-151.3 67.4-151.3 150z"/>
	<path id="Path 10" class="s7" d="m79.1 795.9c9.8 3.3 41.2 13.7 65.8 19.9 29.5 7.3 41.8 22.1 82.4 8.6 40.6-13.5 84.8-30.8 109.4-29.5 24.6 1.2 99.6 38.1 129.2 35.6 29.5-2.4 97.1-39.3 116.8-38.1 2 0.1 3.9 1.6 5.6 4.1-46 51.1-128.4 115.7-252.2 117.9-125.9 2.3-210.4-65.6-257-118.5z"/>
	<path id="Path 11" class="s8" d="m591 793.5c-4.1-0.2-9.4-0.4-15.9-0.4-22.2 0-80 38.8-117.1 38.8-37.1 0-80.8-38.8-123.7-38.8-42.9 0-108.1 38.8-137.8 38.8-29.7 0-94.8-38.8-108-38.8h-11.8m452.6 56.6c-23.7 10.7-50.7 22.6-71.3 22.6-37.1 0-80.8-38.7-123.7-38.7-42.9 0-108.1 38.7-137.8 38.7-11.7 0-28.8-6-46.2-13.3m87.7 42.1c30.9-11.5 68.3-28 96.3-28 29.1 0 58.5 17.9 86.1 29.4m-116.9 10.9c10.9-2.9 21.4-4.8 30.8-4.8 9 0 18 1.7 27.1 4.4"/>
	<path id="Path 12" class="s1" d="m34.4 77.6h598.1v146.5h-598.1z"/>
	<path id="Path 13" class="s2" d="m34.4 233.6h598.1v9.5h-598.1z"/>
	<path id="Path 14" class="s9" d="m34.4 241.4h598.1v9.5h-598.1z"/>
	<path id="Path 15" class="s10" d="m72.5 182.7v-61.8h36.4v11h-23.6v50.8zm79 0v-51.2h-19v17.3q0 15.5-1.4 23.2-0.5 2.4-1.9 5-1.5 2.6-3.1 3.9-1.5 1.1-3.8 1.8-2.3 0.7-4.6 0.7-1.4 0-3.1-0.2-2.4-0.3-4.4-1.3v-9.9q2.9 1.7 5.3 1.6 2 0 3.7-1.4 0.7-0.7 1-1.8 0.8-2.6 0.8-7.4v-42.1h43.3v61.8zm40.8-62.8h14.8l22.6 62.8h-13.8l-4.4-12.7h-24.1l-4.1 12.7h-13.2zm6.6 11.6l-8.3 28.2h17.4zm74.7 18q3 0.9 4.6 1.7 1.6 0.8 3.1 2 4.1 3.6 4.1 11.2 0 5.7-2.7 9.9-2.7 4.1-7.8 6.3-5.2 2.2-12.3 2.2h-27.1v-61.8h28.1q6.2 0 10.6 1.8 4.5 1.8 6.8 5.3 2.3 3.5 2.3 8.5-0.1 6.1-3.6 9.9-1.3 1.3-2.5 1.8-1.2 0.6-3.6 1.2zm-25.3 6v16.4h13.4q3.7 0 6.2-1.1 2.3-1.1 3.2-2.7 0.9-1.6 0.9-4.4 0-4.3-2.5-6.3-2.5-1.9-7.9-1.9zm0-10.6h12.8q9.1 0 9.1-6.8 0-3.4-2.1-4.9-2.2-1.6-7.1-1.6h-12.7zm98-23.9v61.8h-12.9v-46.2l0.3-3h-0.3l-20.8 49.2h-17.9v-61.8h12.8v47.5l-0.2 2.3h0.5l20.9-49.8zm25.5 0v23.1h26v-23.1h12.8v61.8h-12.8v-27.3h-26v27.3h-12.8v-61.8zm103.1 0v61.8h-12.8v-46.2l0.2-3h-0.2l-20.8 49.2h-18v-61.8h12.8v47.5l-0.1 2.3h0.4l20.9-49.8zm63.8 0v50.9h6.7v24h-7.4l-3.4-13.1h-46.9v-61.8h12.8v51.1h25.4v-51.1zm29.5-1h14.8l22.5 62.8h-13.7l-4.4-12.7h-24.2l-4 12.7h-13.2zm6.5 11.5l-8.2 28.2h17.3z"/>
	<path id="Path 16" fill-rule="evenodd" class="s11" d="m72.5 182.7v-61.8h36.4v11h-23.6v50.8zm79 0v-51.2h-19v17.3q0 15.5-1.4 23.2-0.5 2.4-1.9 5-1.5 2.6-3.1 3.9-1.5 1.1-3.8 1.8-2.3 0.7-4.6 0.7-1.4 0-3.1-0.2-2.4-0.3-4.4-1.3v-9.9q2.9 1.7 5.3 1.6 2 0 3.7-1.4 0.7-0.7 1-1.8 0.8-2.6 0.8-7.4v-42.1h43.3v61.8zm40.8-62.8h14.8l22.6 62.8h-13.8l-4.4-12.7h-24.1l-4.1 12.7h-13.2zm6.6 11.6l-8.3 28.2h17.4zm74.7 18q3 0.9 4.6 1.7 1.6 0.8 3.1 2 4.1 3.6 4.1 11.2 0 5.7-2.7 9.9-2.7 4.1-7.8 6.3-5.2 2.2-12.3 2.2h-27.1v-61.8h28.1q6.2 0 10.6 1.8 4.5 1.8 6.8 5.3 2.3 3.5 2.3 8.5-0.1 6.1-3.6 9.9-1.3 1.3-2.5 1.8-1.2 0.6-3.6 1.2zm-25.3 6v16.4h13.4q3.7 0 6.2-1.1 2.3-1.1 3.2-2.7 0.9-1.6 0.9-4.4 0-4.3-2.5-6.3-2.5-1.9-7.9-1.9zm0-10.6h12.8q9.1 0 9.1-6.8 0-3.4-2.1-4.9-2.2-1.6-7.1-1.6h-12.7zm98-23.9v61.8h-12.9v-46.2l0.3-3h-0.3l-20.8 49.2h-17.9v-61.8h12.8v47.5l-0.2 2.3h0.5l20.9-49.8zm25.5 0v23.1h26v-23.1h12.8v61.8h-12.8v-27.3h-26v27.3h-12.8v-61.8zm103.1 0v61.8h-12.8v-46.2l0.2-3h-0.2l-20.8 49.2h-18v-61.8h12.8v47.5l-0.1 2.3h0.4l20.9-49.8zm63.8 0v50.9h6.7v24h-7.4l-3.4-13.1h-46.9v-61.8h12.8v51.1h25.4v-51.1zm29.5-1h14.8l22.5 62.8h-13.7l-4.4-12.7h-24.2l-4 12.7h-13.2zm6.5 11.5l-8.2 28.2h17.3z"/>
	<path id="Path 17" fill-rule="evenodd" class="s4" d="m72.5 182.7v-61.8h36.4v11h-23.6v50.8zm79 0v-51.2h-19v17.3q0 15.5-1.4 23.2-0.5 2.4-1.9 5-1.5 2.6-3.1 3.9-1.5 1.1-3.8 1.8-2.3 0.7-4.6 0.7-1.4 0-3.1-0.2-2.4-0.3-4.4-1.3v-9.9q2.9 1.7 5.3 1.6 2 0 3.7-1.4 0.7-0.7 1-1.8 0.8-2.6 0.8-7.4v-42.1h43.3v61.8zm40.8-62.8h14.8l22.6 62.8h-13.8l-4.4-12.7h-24.1l-4.1 12.7h-13.2zm6.6 11.6l-8.3 28.2h17.4zm74.7 18q3 0.9 4.6 1.7 1.6 0.8 3.1 2 4.1 3.6 4.1 11.2 0 5.7-2.7 9.9-2.7 4.1-7.8 6.3-5.2 2.2-12.3 2.2h-27.1v-61.8h28.1q6.2 0 10.6 1.8 4.5 1.8 6.8 5.3 2.3 3.5 2.3 8.5-0.1 6.1-3.6 9.9-1.3 1.3-2.5 1.8-1.2 0.6-3.6 1.2zm-25.3 6v16.4h13.4q3.7 0 6.2-1.1 2.3-1.1 3.2-2.7 0.9-1.6 0.9-4.4 0-4.3-2.5-6.3-2.5-1.9-7.9-1.9zm0-10.6h12.8q9.1 0 9.1-6.8 0-3.4-2.1-4.9-2.2-1.6-7.1-1.6h-12.7zm98-23.9v61.8h-12.9v-46.2l0.3-3h-0.3l-20.8 49.2h-17.9v-61.8h12.8v47.5l-0.2 2.3h0.5l20.9-49.8zm25.5 0v23.1h26v-23.1h12.8v61.8h-12.8v-27.3h-26v27.3h-12.8v-61.8zm103.1 0v61.8h-12.8v-46.2l0.2-3h-0.2l-20.8 49.2h-18v-61.8h12.8v47.5l-0.1 2.3h0.4l20.9-49.8zm63.8 0v50.9h6.7v24h-7.4l-3.4-13.1h-46.9v-61.8h12.8v51.1h25.4v-51.1zm29.5-1h14.8l22.5 62.8h-13.7l-4.4-12.7h-24.2l-4 12.7h-13.2zm6.5 11.5l-8.2 28.2h17.3z"/>
</svg>