<svg version="1.2" xmlns="http://www.w3.org/2000/svg" viewBox="0 0 400 551" width="400" height="551">
	<title>Nikopol-pdf</title>
	<style>
		.s0 { fill: #2c2e35 } 
	</style>
	<path id="Path 4" fill-rule="evenodd" class="s0" d="m3.2 277.7c-0.1-9.8 0-19.6-0.1-29.3-0.2-9.6 0.2-19.6 0.2-29.4l-0.1-183.5c0-8-1.9-5.8 12.5-9.6 14.4-3.9 56.9-14.2 72.5-16l52.7-5.9c2.3-0.2 4.8 0 7.1-0.2 2.3-0.1 4.5-0.5 6.8-0.6 5.1-0.2 9.4-0.2 14.4-0.7l28.7-0.6c25.8-0.2 58.6 1.4 83.8 4.2 8.2 0.9 17.2 2.6 25.5 3.7 32.3 4.2 54.2 9.2 85 17.8 8 2.2 5.4 0.8 5.4 9.6l1 351.7c0 16.8-0.5 11.8-2.5 26.9-1.5 10.9-10.1 32.7-16.3 42.9-5.6 9.1-4.6 8.8-11.6 17.6-4.7 6-8.6 11.1-13.7 15.7-20.1 18.3-28.7 23.8-53.7 34.7-10.5 4.5-10.3 4.4-21.3 8-14.5 4.7-19.5 7.1-35.3 9-1.6 0.1-4.6 0.6-6.3 0.9l-19.5 2.3c-4.8 0.3-9.5 0.6-14.5 0.6-13.8 0.1-27-1.6-40.6-3.3-14.9-1.8-22.2-3.2-36.4-7.7-27.9-8.7-55-21.6-76.1-41.6-2.7-2.5-4.3-4-7.5-7-4.5-4.3-16.1-19.8-19.2-25-8.4-13.9-13-26.3-16.9-42.2-3.1-12.5-2.7-12.9-3.3-25.8-0.8-16.6-0.4-41.2-0.4-58.6 0-9.1 0.6-20.8-0.3-29.3zm97.5 234.8c11.2 6.3 13.1 6.7 25.3 6.3 6.7-0.2 19-4.1 25.4-6.2 33.3-10.9 53.5-14.1 89.2-2.9 14.3 4.4 28.5 9.9 43.3 9.6 4.7 0 4.9-0.5 8.4-2 5-2 9.6-4.4 14.2-6.7 3.5-1.8 23.7-13.7 25.4-17-2.6 0.3-11.7 4.6-14.3 5.7-33.3 13.5-49 7.7-80.7-2.3-67.4-21.1-79 17.7-132.5 8.1-5.7-1-10.1-1.9-15.9-3.6l-14.5-5.1c1.1 2.2 24.2 14.7 26.7 16.1zm-51-38.5c2.4 3 4.1 5.6 6.7 5.8 21.4 1.7 24.9 14.3 62.4 17.8 13.3 1.2 29.7-5.8 40.7-9 13.2-3.8 26.6-8 42-7.3 38.5 1.7 55.7 17.1 82.8 16.5 22.8-0.4 40.9-15.4 57.1-17.3 6.4-0.8 5 0.5 8.8-3.7 1.3-1.3 4.9-5.1 5.5-6.8-3.6-7.7-20.2-0.3-26.5 2.3-8.8 3.6-16.1 7.3-26 9.9-44.7 11.8-72.4-22.9-122-12-9.6 2.1-18.7 5.4-27.5 8.2-8.2 2.6-19.6 6-29.3 6-12.8 0-29-3-39.5-7.1-18.9-7.5-14-9.2-37.4-7-0.3 1.4 1.5 2.9 2.2 3.7zm317.8-21.3l6.5-13.5c8.6-19.8 10.8-41.5 10.8-63.1-0.4-107.2-0.1-214.9-0.1-322.1 0-4.5-0.1-9.1 0-13.6 0.1-3.5 0.5-2.5-8.3-4.8-14.2-3.7-29.6-7.2-44.1-9.8-12.8-2.2-34.4-5.8-46.9-6.8-8.2-0.7-16.3-1.9-24.8-2.3-17.1-0.9-33.4-2.2-51-2.3-52.3-0.2-96.8 2.6-148.5 12.9-12.3 2.4-21 4.6-32.7 7.6-2.1 0.5-8.4 2.1-10.1 3.1-0.4 18.4 0 37.3 0 55.8v279c0.1 19.1 0.1 33.7 4.9 50.9 2.4 8.4 4.5 13.5 7.4 20.3 1.9 4.5 4.5 9.2 7.4 13.6 0.9 1.5 1.6 3 2.5 4.3 3.3-0.1 7.1-1.3 10.6-1.7 24.6-2.7 26.9 6 48.7 11.8 5.8 1.5 15.2 3 21.4 3.2 23 0.7 49.8-17.7 81.9-16.4 15.4 0.7 28.3 3.8 41.5 8 36.1 11.3 43.6 13 78.8-2.7 28.5-12.7 34.8-3.1 38.9-3 1.5-1.8 4-6.3 5.2-8.4zm-200.4 80.2c10.9 1.6 22.7 2.2 34 2.3 11.6 0 23.1-0.9 34.1-2.3 5.1-0.7 26.2-4.3 29.3-6.2-4.9-1.7-10.2-2.8-15.3-4.4-4.9-1.6-10.1-3.4-14.9-4.7-26.7-7.2-40.2-8.3-67.2 0-4.6 1.4-9.9 3.2-14.9 4.7l-14.7 4.3c2.7 1.8 24.7 5.5 29.6 6.3zm-53.6-164.2c8 0 21-1.1 28-4.8 2-1.1 2.6-2.6 3.8-3 3.2 2.3 0.3 2.7 8.6 3.4 1 3.2 0.1 25.2 0.3 30.5l92.7 0.2 0.1-11.2c1.9-1.3 4.2-2.8 6.1-4.4 2.1-1.8 4-3.4 6.2-4.6 9-5 19-2.9 16.8-15-0.3-1.5-0.3-3.3-0.7-4.5-1.5-4.4-2.5-2.8 5.3-3.3l14.5-2c0.4 5.1 0 11.9 0 17.2 0 3.3-0.4 14.7 0.3 17 2.9 0.4 10.5 0.2 13.8 0.1 3.2-0.1 1.7-3.7 1.9-11.9 3.2 0.2 3.2 1.9 13.2 2.9l0.2 32.5c-2.9 2.9-8.5 3.9-9.5 17.2-0.4 4.4-0.8 7.8-0.8 12.5 0 3.5 0.4 9.8-0.1 13-3.5 0.6-110.5 0.2-113.9 0.2-11.6 0-111.8 0.6-113.7-0.4-0.8-1.3 0-3.8 0.1-5.6 0.5-8.8 0.3-21.7-4.2-29.3-2.8-4.8-6.2-5.7-6.6-6.5-0.5-3.6-0.6-33.9 0.2-35.3 1.3-0.8 4.9-0.5 6.7-0.9 1.7-0.5 4.4-1.4 6.2-1.5l0.2 13 14.8 0.2 0.2-11.7c1.3-1 2.1-1.5 3.5-2.8 1.7-1.7 3.2-1.2 5.8-1.2zm-4.4-56.5c-0.9 0-2.6-0.2-3.6-0.4-1.5-0.2-1.7-0.2-1.8-1.6-0.4-4.2 0-10.8 0-15.3 0-17.7-0.8-44.6-0.1-61 1.6-42.7 36.2-69.4 77.4-74.1 2-0.2 1.2-0.4 3.2-0.6 1.2 0 2.2 0 3.4-0.1 14.7-1.5 33.4 0.5 47.1 4.7 7.1 2.3 15.2 5.5 21.5 9.1 10.1 5.8 18.3 12.2 24.7 20.7 1.3 1.7 2 2.5 3.2 4.4 12.1 19.1 12 34 11.7 56.8-0.1 4.3 0 27.8-0.5 29.9-3.3 0.4-7.8-0.7-11.8-0.7-4.3 0-8.5-0.1-12.8 0-4.4 0.1-7.9 0.5-12.1 0.8-3.2 0.2-8.7 1.6-11.5 1.3-1-14.9 2.4-42.3-2.7-54-14.7-34.1-79.2-32.5-88.9 3.3-2.1 7.8-1.1 17.7-1.3 26.7-2.7-0.3-3.4-1.4-6.9-1.4-3.2 0-4.3-0.5-6.9-0.7-8.9-0.8-9.6 2-12.8 2.3-2.8-2.3-9-10.8-11-11.7-0.9 5.5-1.4 11.2-2.4 16.3-2.4 11.5-0.8 5.5-3.6 10.6-5 9.1 2.4 12.9 1.3 18.6-2.3 11.5 1.7 10.3 3 14.3-1.9 1.3-2.7 2-5.8 1.8zm21.3-271.9c0.7-1.1 38.6-3.4 44.6-3.7 2.5-0.2 4.5-0.4 7.2-0.5 3.2 0 5.8-1.1 5.9 1.8 0.3 5.6-0.7 28.7 0.4 32l23.8-0.1 0.1-32.3c8.3-1.2 22.4 0.6 30.9 0.8l28.6 2.9c0.7 1.9 0.3 21.8 0.3 25.7 0.1 8-1.2 5.5 6.9 6.4 1.8 0.3 10.6 0.9 11.9 0.6 0.8-5.2-0.7-26.5 0.6-29 0.6-0.5-0.2-0.1 0.9-0.4 1-0.3 2.1 0 2.7 0.2 2.1 0.5 10.6 1 15 1.8 1.3 0.2 2.5 0.1 3.8 0.3l29.8 4.1c2.3 0.3 4.4 0.2 6.4 1.2l0.5 94c-7.1 5.4-18 8.2-23.6 19.3-3 6.1-2.5 11.1-2.5 18.7 0 12.6 0.5 105.8-0.2 106.7-0.9 0.4-2.4 1.1-3.4 1.5-2.1 0.8-2.1 0.4-3.7-0.5-2.1-1.3-4.8-2.2-6.3-3.4-0.4-14.4-0.1-29.5-0.1-44-0.1-14.6-0.1-28.9-0.3-43.4-0.2-13.6-1.7-29.5 3.8-40.2 2.5-4.9 6.4-9.2 9.9-12.2 2.1-1.7 4.2-3.3 6.2-4.7 1.8-1.3 4.8-2.9 6.5-4.3 0.5-8.5 0-29.1 0-39 0-6.1 0.7-35.1-0.2-38.8-6.2-0.4-27.1-4.8-31.8-3.6l-0.5 28.9c-1.3 0.2-44.3-2.9-45.1-3.1-0.5-0.6-0.2-0.3-0.5-1-0.8-2.1-0.4-4.7-0.4-6.9l-0.5-23.9c-4.1-1-11.3-1.5-15.5-1.7-2.7-0.2-4.6-0.7-7.6-0.7-1.4 0-3 0-4.4-0.1-0.6 0-1.6-0.2-2.1-0.2l-1.4 0.2c-0.1-0.1-0.3 0.1-0.4 0.1-0.8 2.5 0.7 30.8-0.6 31.9-1.6 0.8-46 0.5-51.7 0.3-1.7-5.8 0.9-26-0.3-33.4-1.3-0.3-13.5 0.5-15.2 0.9-2.2 0.4-4.9 0.2-7.3 0.6-2.3 0.4-5.7 0.1-7.3 0.7-1.2 2.1 0 29.3-1.5 32.5l-23.2 1.8c-1 0-21.2 2.2-22 1.4-1.3-1.3 0.9-30.2-1-30.7l-0.7-0.2c-3.8-0.4-11.4 2-15.2 2.5-2.9 0.3-13.4 2.3-15.7 3.2-0.7 4.5-0.2 50.7-0.2 59.4 0 24-2.3 17.1 6.4 24.3 5.7 4.7 10.8 10.3 14.3 17.1 3.2 6.1 4 8.9 4 17.2 0 15.3 0.5 103.3-0.6 104.6-0.3 0.4 0.6 0.7-1-0.1-5-2.6-5.9-3-12-3.7-0.7-5.5-0.2-72-0.2-79.5q0-10 0.1-20.1c0-7.1-0.7-10.2-4-15.6-3.1-4.9-7.7-9.5-12.1-12.8-2.7-2.1-6.6-3.8-8.9-5.7-0.4-7.7 0-16.3-0.1-24.1q0-11.8 0-23.7 0.1-11.8 0.1-23.7c0-30-3.8-22.5 14.7-26.4 7.3-1.5 22.7-4.3 29.6-4.9 4.3-0.4 11.4-2 15.6-1.5 1.2 5.8-0.7 28.9 0.9 32 0.6 0.6 1 0.2 2-0.1 4-1.1 12.7-1 15.7-2.3 1.3-2.6-0.1-29.5 1.2-31.4z"/>
	<path id="Path 5" fill-rule="evenodd" class="s0" d="m324.2 305.2c2 3.4 6.8 8.5-0.7 15.3-2.2 1.9-3.8 3-7 4.3-6.9 2.7-11.8 2-18.3-0.1-3.9-1.2-14.4-6.2-17.1-2.9 0.6 1.8 2 1.7 4 2.4 4.9 1.9 8.8 3.3 13.1 6.2 7.3 4.9 11.2 4.2 20.3 2.3 11.6-2.3 10.2-3 13.7 2.3 0.7 1.1 2.3 2.6 1.7 4.3-0.4 1.2-2.3 2.4-1.6 4.4 0.4 1.4 7.3 4.6 6.9 12.2-4.5 0.4-4.5-0.8-4.3 4.5 0.2 4.3-0.5 3-1.4 5.4l-0.6 1.7c-5.2-3.8-2.1-5.6-4.4-8.4-1.2 0.1-2 0.1-2.3 3.4-0.1 2.1 0.7 2.5 0.3 5.2-7-1.1-3-6-6.1-8.5-2.3 0.9-1.3 1.5-1 3.7 0.7 5.4 0.8 3.1 1.1 5.1-5-0.3-9.5-4.5-8.5-10.8 3.1-1.9 5.8-3.3 8.3-6.2 2.9-3.5 2.9-6.9-1.4-8.8-6.9-3-19.5-0.6-26 1.1-8 2-17.7 3.1-26 1.1-10.8-2.7-12-6.6-15.7-13.6-5.3-1.2-18.1 2.8-23 5.3-12.8 6.5-27.6 13.1-42.1 15.4-7.8 1.2-18.8 2.8-26.2 0.7-0.1-4 6.2-7.2 2.1-8.1-0.6-0.2-0.9-0.2-1.4-0.1-3.3 0.4-3.7 3.2-4.2 5.5-0.3 1.8-1.6 10.1-4.1 7.4-2-1.8 2.8-8 0.8-10-1.7-1.6-2.6 1.7-4.8 2.4 0.1-1.5 1.7-6.3-2-4.7-2.4 1-0.7 4.1-4 4.2-0.2-2 1.4-6.2-2.4-4.5-2.1 0.9-1.7 4.3-1.5 6.4 0.5 7.8 0.3 7.4-6.4 9.3-12 3.4-20.3 1.1-29.2 2.2-1 1.8-0.8 3.6-2.6 4.5-2.4 1.2-4 0.4-5.8-0.4l-0.4-3.3c-3.9-0.4-13.5 4.6-16.9 3.3-1.4-0.5-5-7.3-11.7-0.6-1.2 1.3-0.2 0.9-1.9 1.2-2-5.6 1.7-6.8 4.2-9.3-1.8-0.4-2.9 0.6-4.1 1.6-0.6 0.5-1 1-1.6 1.6-1.1 1.1-0.4 1-2 1.3-2.7-6.2 3.9-7.8 4.9-11.1-3.7 0.3-3.8 3.2-6.6 3.9-2.2-6.7 3.8-8.1 9.8-8.1 9.2 0.1 5.7 3.2 10.3 8 3.5 0.1 0.9-1 8.5-1.2 3.6-0.1 5.9-0.7 9.3-0.8 10-0.3 11.3-4.5 22.2-7.7 5.5-1.6 5.6-5 11.6-8.4 7-4 4.6 0.1 6.8 0.2 2.9-1.1 2.1-3.8 4.4-5.5 3.8 0 3.3 4.4 7.5 4.3 1.4-1.9 1.5-4.5 2.9-6.1 3 0.1 3.6 3.2 6.7 2.9 1.1-2.7-0.2-3.7 1.2-6.5 4.4-0.5 5.7 7.2 7.2 0.3 0.2-1.1 0.4-1.4 0.8-2.2 3.3 0.4 1.8 2.4 5 2.5 1-1.7 0.3-2.6 1.4-4.2 2.8-0.8 1.7 1.6 4.7 1.4 1.1-1.8-0.2-2.2 1.6-4.6 2.1 0.2 2.8 1.1 5 1.5l0.5-3.6c3.4-0.6 0.2 1.3 7.7 1.1 3.1-0.1 6-0.6 8.9-0.6 5.6 0 26.3-2.6 32.7-3.6 5-0.8 11.4-1.3 16.7-1.8 14-1 16.6 0.4 30.8 4.9 6.2 2 16.7 5.1 23.5 4.2 5.4-0.6 21.2-13.9-3.5-22.1-18.2-5.9-63.7-3.7-82.6 2.9-4 1.4-9.9 4-14.7 3.6l-0.1-2.6c-4.6-0.9-9-3.9-11.3-7.4-2-3.2 6.9-14.9 11.5-14.4 2.9 0.3 5.8 0.8 8.6 0.9 6.1 0.3 12.3-0.6 18-1.2-0.6 3.5-8.3 12.4-12.2 13.7-6.2 2.2-19.8-5.3-20.3 2.3-0.8 10 35.6-1.6 40.7-2.5 15.3-3 30.1-4.8 47-3.9 6.2 0.3 15.9 2.2 21.2 4.4 3.8 1.5 5.6 2.9 8.5 4.4 4.1 2.2 6.3-1.6 9.8-1.8-0.7 2.7-3.8 5.2-2.4 7.6zm-131.8 26.6c0.7 1.4 1.6 2.5 2.6 3.7 1.3 1.5 1.9 2.5 3.9 2.3 0.3-3-3.7-5.4-4.3-8.4-0.6-3-0.3-8.5-3.5-8.7-1.8 3-0.1 8.5 1.3 11.1zm10.7-3.5c-1.3-3 0.7-7.3-3.2-8.9-3.4 2.5-0.8 9.9 2.5 14.3 1 1.3 1.8 2.7 4.3 2.6-0.2-1.8-2.8-6-3.6-8zm8-40c5.5-0.1 12.1-1.3 16.7-3.6-0.6-0.6 0.9-0.9-2.1-0.6-0.5 0-1.6 0.4-2.3 0.5-9.8 1.6-26.1-1.5-26.4 10.4 3.5-1.8 0.5-6.4 14.1-6.7zm-19.4 51c-0.3-2.9-3.3-4.9-3.7-8.3-0.6-3.7 0.8-8.3-3.3-8.6-3.7 5.7 2.2 17.4 7 16.9zm58.1 33.6c-1.9 1.6-5.4 5-8.6 5.5-7.6 1.4-5.6-1.7-8.8-5.1-2.8-1.3-8 5.4-9.6 7.2-1.1 1.4-1.2 2.4-2 3.5-1.6-0.5-3-2.5-2.6-4.6 0.3-2.1 2.1-2.5 1.3-5.4-2 0.4-3.1 2.1-4.6 3.4-0.5 0.4-4.1 3.2-4.7 3.3-1-7.8 4.2-8.8 3.6-11.8-2-0.2-3 0.6-4.3 1.9l-2.4 2.4c-1.2 1.1 0 0.4-1.4 1-3.3-10.7 8.8-11.1 13-11.9 8-1.5 2 6.9 20.8 2.3 4.4-1 10.4-2.4 9.3-8.1-4.3-2.9-12.6-0.4-18.4-1.1-2.3-0.3-5.3-1.8-6-3.9-1.1-3.3 1.8-6 3.2-7.2 4.3-3.9 2.8-1.1 4.2-5.9 0.6-2 3.5-4.9 5.8-3.6 1.9 1.1 1.8 4 6.4 3.4 3.2-0.4 5.5-1.7 8.1 0.1 0.6 5.3-5.6 7.6 6.3 13.4 7.8 3.7 11 2.9 10 12.2-5.2 2.7-10.6 2.4-18.6 9z"/>
	<path id="Path 6" fill-rule="evenodd" class="s0" d="m180.3 305c-0.5 1.8-1.1 2.9-0.7 5 0.2 1.3 0.9 3.7 0.9 5-2.1-0.2-1.1-0.6-2.7-1-1 0.8-1.3 1.8-2.1 2.9-0.9 1.3-1.7 2-2.5 3-3.9 0-3-1.7-6.8-1.3-0.7 1.4-1.4 4.3-3 4.9-2.2 0.9-3.8-1.3-6.1-1.2-1.2 0.9-1.7 2.2-2.4 3.6-3.4 0.1-2.4-2.1-5.7-2-1.9 2.6-0.5 4.7-3.6 5.9-2.3-1.1-1.8-3.4-4.4-4.1-2.1 1.3-1.7 3.4-4 4.4-2.1-1.2-1.7-2-3.2-3.4-2.5 0.1-2.7 2.1-4.9 3.1-2.4-0.5-1.9-2-4.8-2.4-1.5 1-1.6 2.4-3.2 3.3-2-0.6-3-3.3-5.6-1.2-1 0.9-4.2 5.3-3.6-0.3 0.9-7.5 5.1-11.9 10.7-15.5 4.2-2.7 2.8-3.4 4.7-4.1 4.4-1.7 7.6 4.8 12.3 5.1 13.2 0.9 7.8-0.5 19.5-11.1 0.9-0.8 1.4-1.1 2.4-2 1.7-1.5 3.2-2.5 5-3.9 1.4-1.2 2.4-3.7 3.3-5.5 1-1.9 2.5-3.6 3.4-5.4 1.8-3.7-0.2-5.2 0-8 4.4 0.3 8.6 10.6 8.8 15.7 0.1 3.3-0.9 7.7-1.7 10.5zm-9.3 3.2l-1.6 2.8c-2.4 0-0.7-0.6-3.4-0.8l-1.4 2c-1.9-0.3-1.1-0.8-3.3-0.3l-1.5 3c-2.9 0.1-1.9-1.6-4.9-1.4-1.5 1.7-1 2.9-2 4.2-2.8-0.8-3-3.6-5.4-0.4-1.2 1.6-0.7 1.2-1.9 2-2.2-0.7-2-1.7-4-2.2-2 0.6-1.4 1.3-3.2 2.1-2.3-0.7-1-1.5-4-1.9-2.8 1.1-1.7 2.8-4.6 1.1-2.8-1.6-1.8 0.9-4.3 1.9-1.5-0.7-1.3-1.7-2.9-1.1-0.8 0.3-1.5 1.5-2.3 2.2-1.3-0.7-0.6-0.8-2-1.2-1.1 1-1.6 1.8-2.2 3.5l-0.8 3.7c0 0.1 0.1 0.2 0.1 0.3 0 0.1 0 0.2 0.1 0.3 2.4-1.3 3.4-4.7 6.8-5.7 1.6 0.1 2.2 4 4.7 0.7 1.2-1.5 0.1-1 1.7-1.8 1.8 1 0.3 0.7 2 1.6 2.3-0.7 1.1-1.4 3.3-2.5 2 0.9 1.5 2.3 3.2 3.9 2.5-0.5 2.1-2.8 4.4-3.9 2.5 0.9 1.9 3.1 5.2 2.7l2-4c3 0.1 2.2 1.9 5.4 2.2 0.8-2.1 0.2-2.7 1.9-4.2 2.4 0.4 2.6 2.5 5.6 2l0.6-3.7c2.5 0.4 0.8 1.4 3.8 1.4l0.6-3.6c2 0 0.8 0.7 3.5 0.7 0.8-1.3 0.9-2 2.3-2.9 1.7 0.5 1.4 1.3 3.3 1 0.8-3.2 0.2-8.7-1.6-10.2-0.3 2.9 0.3 4.9-1.3 7.2z"/>
	<path id="Path 7" fill-rule="evenodd" class="s0" d="m131.5 284.1c-3.3-0.9-7.4-1-8.2-3.2 1.9-2.6 9.7-3.3 12.2-2.1 0.3 3.3-0.8 10.1-2 12.5-1.1 2.3-1.8 0.8-1.1 4.4 1.5 0.3 2.2 1.5 5.2 1.7 3.4 0.1 4.2-0.4 5.9-1.8 1.8-3.2-8.9-19.4 10.8-13.7 2.4 0.7 5.2 1.6 4.8 4.5-2.3 1.4-3.8 1.1-7 0.8-1.3-0.2-2.5-0.2-3.8-0.6-1.1-0.3-2.7-0.9-3.8-0.1 1.9 1.2 5.9 1.9 8.4 2.3 4.1 0.6 6.7 0.3 9-1.9 0.7-4.7-2.8-5.5-6.5-6.6-2.1-0.7-9.3-1.6-10.5-2.6 3.5-2.7 13 1.4 15.2 2.7 2.4 1.4 3.8 2.5 3.6 6.5-0.5 8.2-5.4 8.3-8.1 11.6-3.3 4-4.7 10.7-6.9 13.1-1.5 1.7-9 0.9-9.1 0.9l-1.1-1.2c-7.1-7.5-10.6-2.1-15.9-4.6-8.1-3.9-0.7-11.1-3.9-17.4-1.1-2.2-4.8-5.6-0.1-10.5 2.1-2.1 5.8-4.4 9.5-5.9 5.4-2.2 6.8-2.2 12.6-0.7 5.2 1.4 8.4-1.5 13.5 0.9 2.3 1.2 8.3 4.2 8.9 6.2-1.4 0.8-5-1.5-6.5-2.1-1.9-0.9-5-2.1-7.4-2.3-3-0.1-6.7 0.3-9.6 0-3.1-0.2-4.8-1.1-8.8-0.7-3.8 0.4-12.4 4.2-10.6 8 0.7 1.4 5 2.4 6.7 2.9 5.5 1.7 5.6 2.4 6.6 0.6-0.4-1.1-0.7-1.2-2-1.6zm25 8c-1.2-0.7-2.9 0-4.8 0.1-1.9 0-3.8-0.4-5.1-0.3-0.2 1.7 0.6 5.7 1.2 6.8 1.1-0.4 8.3-5.7 8.7-6.6zm-24.7-3.2c-2-0.6-3.2-0.5-5.5-1.5-1.2-0.5-3.9-1.9-4.9-2-0.1 1.5 1.6 3.2 2.4 4.4 1.7 2.4 1.6 3.4 2.9 4.4 1.8-0.5 0.9-0.9 2.8-2.5 1.2-1.1 2.2-1 2.3-2.8zm22.3-2.8c1.6-0.2 1.8-0.4 2-2-1.5-2-6.3-2.2-5.5 1.5 1.3 0.6 1.8 0.7 3.5 0.5zm-19.8-6c-2-1.4-5.4-1.6-5.5 1.6 1.6 1.3 5.8 1.8 5.5-1.6zm-11.4 19.2c-0.4-1.6-0.2-1.4-1-2-0.6 1.1-0.5 3.7-0.1 5 0.5 1.2 1.8 2.4 3.3 2.6 1.9 0.2 4.2-0.5 6 0.1 2.1 0.6 1.1 1.9 4.8 1.2 6.1-1.2 5 2.7 8.5 2.9 3.5 0.3 5.5-3.2 6.3-5.6-3-0.3-3.2 4.5-7.4 2.2-5.7-3-3.1-1.4-9.4-1.5-3.5-4.2-2.8-1.1-7.1-1.6-1.2-0.1-2.7-0.9-3.3-1.6-0.5-0.7-0.3-0.8-0.6-1.7zm-35.5-5.2c1.7 5.7-5.5 9.9-2.8 14.8 4.5 7.8 15.1 9.4 23.6 10 2.6 0.2 3-0.2 5-0.4-0.5 3.1-3.4 3.1-3.5 10.2-0.1 6.4 2.1 5.5-1.2 10.6-8.5 0.7-7.9 0.2-11.4-5.2-1.8-2.6-10.1-9.2-13.4-11.8-1.8-1.4-3.6-2.2-5.3-3.2-13.1-7.6-8.5-7.6-7.2-9.8 1.6-2.7-1.8-6.1 2.2-7.4 0.1 0 0.2 0 0.3 0l1.4-0.5c-1.2-4.1-5.8-4.6-10.2-4.5 0-4 5-3 8.6-3.4-0.3-0.9-0.9-1.1-2.2-1.4-1-0.3-2.5-0.2-3.3-0.8 3.6-4.1 7.7-1.7 8.9-1.7 0.8-0.1 0.5-0.1 0.9-0.3-0.9-1.2-0.2-0.2-1.4-1.1-1.2-1-0.6-0.7-1.1-1.3 4.8-0.7 10.7 3 12.1 7.2zm46.1-197.8l6.5-0.2c5.3 0 7.3-0.9 7.4 1.5l-4.3 0.1v29.2c1.7 0.1 3.3-0.4 4.3 0.6-0.6 1.8-2.6 1.2-7.4 1.2q-2 0.1-4 0.2c-0.3 0-2 0.1-2.1 0.1l-1.8-0.7c1-1.5 0.1-0.3 3.2-1.1 0.3-2 0.3-19.6-0.1-20.8-1.1 0.4-6.4 6.9-7.9 8.5-3.8 4-4.7 4.2-3.7 12.7l3.3 0.3c0 2.1-1.9 1.4-7 1.5-2 0-7.3 0.5-8.4-0.3 0.8-1.8 1.9-0.6 3.8-1.4l0.2-1q0.1-0.2 0.1-0.3 0-0.1 0-0.5c0.2-4.9 0.2-25-0.2-26.8l-0.8-0.2q-0.2 0-0.4 0c-0.4-0.1-0.7-0.1-1.2-0.1-1 0-0.7 0.3-1.7-0.2 0.2-1.7 1.4-1.1 3.3-1.3 1.2-0.1 2.6-0.3 4.1-0.3 1.5-0.1 2.9-0.1 4.4-0.1 3.4-0.1 3.3-0.2 3.8 0.9-1.1 1.3-1.2 0.2-3.2 1-0.7 2.1-0.7 14.5 0.1 17.1 1.3-0.3 7.2-7.7 8.2-8.9 1.4-1.6 3.3-2.6 3.5-5.2 0.4-6.9-2.4-2.1-3.5-4.8 0.8-0.5-1-0.4 1.5-0.7zm-34.5 1.9c1.5-0.1 2.5-0.3 4-0.4 4.4-0.6 3.5 0.3 3.8 0.8-0.9 1.1-2.4 0.6-4.2 0.9-0.2 3-1 28.3 0.6 28.7 0.1 0 0.2 0 0.3 0.1q0.2 0 0.4 0l1.9 0.2c1.1 0.2 0.8-0.1 1.1 1.2-1.8 0.7-5.9 0.4-8.3 0.4-1.5 0.1-3 0.1-4.4 0.3-2 0.2-2.4 0.7-2.8-0.9 1.3-1 1.4-0.3 3.5-0.9l-0.1-13c-2-1.6-3.3-1.4-5.6-0.3-3.1 1.5-2.4 1.4-6.1 0.7v13.2l3.3 0.3c-0.2 1.7-1.2 1.3-3.5 1.3-4.7 0.1-11 1.7-12-0.1 0.8-1.2 0.3-0.6 2-0.8 2.1-0.3 1.4 0 1.9-0.6 0.7-0.9 0.8-25.1 0.3-27.7-1.8-0.4-3.4 0.5-4.2-1 0.8-1.2 14.1-2 15.5-1.2-0.3 1.8-1.3 1.1-3.3 1.4-0.2 2-0.3 10.9 0.3 12.1 1.9 1.9 3.9 0.7 5.9-0.3 3.2-1.5 3.3-0.8 5.5 0.2l-0.1-12.7c-0.5-0.1-1.4 0-1.7-0.1l-1.4-0.4c-0.1-0.2-0.2-0.1-0.3-0.2 0.9-1.6 3.9-1 7.7-1.2zm125.4-2.8c2.8-0.3 24.4 0.9 30.5 0.7 4.1-0.1 3.3 0.1 3.8 0.9-0.2 0.4 0.1 0.6-1.7 0.8-0.7 0.1-1.6 0-2.5 0.1l0.2 29.3c1.8-0.4 3.7-0.7 4 1.1-1.1 0.8-6.4 0.4-8.2 0.3-1.5 0-3 0-4.4 0-2.1 0-2.3 0.4-2.8-1.1 1.3-0.9 1.7-0.5 3.4-0.7 0.1-0.5 0.7-24.7 0.1-28.1 0-0.1-0.1-0.3-0.1-0.3-0.4-2.2-9.9-1.4-11.8-1.1-0.3 4.8-0.6 26 0.2 29.6 1.7-0.1 2.3-0.3 3.3 0.6-0.7 1.5-1.5 1.1-3.5 1-1.7 0-3.3 0-4.9 0-6 0-7.2 0.5-7-1.9h4l-0.1-29.7c-1.6 0.1-3.3 0.6-4.1-0.7 0.6-0.5-1-0.5 1.6-0.8zm-60.5 13.9c0.3 0.8 0.8 1.4 2 0.8 0.8-0.4 2.7-4.4 3.3-5.6 2.8-5.2 5.8-11.7 13.7-9.4 0.1 1.1-0.8 5.4-1.1 6.2-1.6 0.2-2.9-0.8-5.2-0.6-1.9 0.1-2.6 1.2-3.6 2.3-8.8 9.8-2 7.6 2 9.6 4 2.1 6.5 5.3 7.2 9.7 0.9 6.2 0.8 3.4 3.4 4.4-0.1 2.2-1.3 1.4-6.2 1.5-1.9 0-6.1 0.6-7.5-0.3 0.3-1.5 0.7-0.8 1.9-1.6 0.4-5.1-0.5-13.3-7-14.4-0.2-0.1-1.3-0.1-1.5-0.1-1 0-0.5 0-1.1 0.2-0.7 2.3-0.3 6.3-0.3 9.1 0 8.5-0.1 4.1 3.3 6-0.2 1.8-0.7 1.5-2.7 1.5l-12.6-0.2c-0.1-1.2 0-1.3 1-1.5l2.7-0.2c0.1-0.2 0.2-0.1 0.5-0.1 0.2-7.9 0.4-21.4-0.2-29.4-1.5 0-2.9 0.2-4-0.6 0.3-0.4 0.1-0.6 1.7-0.8 0.4-0.1 1.5-0.1 2-0.1 2.6-0.2 10.7-1.2 11.7 0.5-0.9 1.5-1.3 0.4-3.3 1-0.2 1.3-0.3 11.5-0.1 12.1z"/>
	<path id="Path 8" fill-rule="evenodd" class="s0" d="m201.3 100.1c2.4 5.9 21.8 16.4 5.8 23.3-0.7-0.6-1.4-2.2-5-5.3-1.9-1.7-3.5-3.4-5.1-5.4-2.8-3.3-3.9-7.7-0.2-11.1 1.4-1.3 2.3-1.6 4.5-1.5zm6.4-3.3c3.8 3.1 9.7 6.8 10.5 13.1 1 7.5-4.6 11.4-8.6 15.2-0.9 0.9-3 2.9-4.1 3.6-1.9 1.1-2.5 0.5-5.4-1.8-5-4-9.7-6.9-10.2-13.4-0.6-6.2 1.6-8.4 4.3-11.7 1.4-1.7 2.4-2.6 4.1-4 1.3-1.1 3.3-2.2 4.5-3.1 2.1-1.7 3.3 0.6 4.9 2.1zm61 26.9c-6.8-6.2-7-14.7-0.4-21 1.4-1.3 2.3-2.2 4.4-3.6 5.8-4 4.1-4.4 9.6 0.3 1 0.8 1.2 1.2 2.1 1.9 3.4 2.8 7.7 6.2 7.7 12.1 0 5-2.8 8.1-5.4 10.5-2.7 2.4-6 5.4-8.9 6.8-2.6-1-7.4-5.4-9.1-7zm-0.3-16.3c-0.5 7.2 7.7 11 10.8 15.5 1.2 1.6 1 2.4 3 1.4 2.4-1 4.7-2.8 4.9-5.7 0.3-2.7-1.6-5.1-3.3-7l-7.7-8c-1-1.4-0.9-2.5-2.7-1.9-2.7 0.9-4.8 2.4-5 5.7zm51.5-8c-0.7 1.9-0.8 0-2.7 1.2-0.2 4.6 5.6 25 7.4 29.2 3.8 0.5 2.8-0.4 3.6 0.9-0.7 1.1 0.4 0.6-1.7 0.9l-10.1-0.6c-2-0.1-2.1 0.2-2.9-1.1 0.1-0.1 0.2-0.1 0.3-0.2l1.8-0.5c1.2-0.3 1.2 0.4-0.2-3.5l-3.5-13.8c-0.3-1.4-0.5-1.9-0.7-3.6-0.4-2.2-1-2.5-1-2.7-0.1-0.2-0.1-0.2-0.2-0.3-2.3 1.4-5.4 8-6.3 11.1-2.2 7.3 1.8 9.7 1.9 14.3-8 1-11.4-0.5-7.7-9.2 3-7 10.7-16.9 10.7-21.5-4.5-1.5-4.7 0.4-5.3-1.8 1-0.7 15.2 0.3 16.6 1.2zm-24.8 205.2l0.2 1.6c0.1 0.6 0 1.7 0 2.4 0 1.7 0 3.2-0.1 4.9-5.2 0-21.4-7.2-32.7-8.3-5-0.5-8.7 0.5-13.2 0.6-1.5 0-2 0.3-2.3-0.9-0.4-1.4 0.7-1.5 1.9-1.6 11.8-1.3 35.9-1.4 46.1 1 0 0.1 0 0.2 0.1 0.3zm-219.4 24.5c3.2-0.1 6.8 2.6 8.5 3 0.5 0.2 1.5 0.4 2 0.5 1.8 0.7 0.2 0 2.2 1.5 0.1 0 0.2 0.1 0.2 0.2l0.5 12.2c-4.2 0.1-8.8 0.1-12-2.7-1-0.9-0.2-0.4-1.5-1.1zm49 1.9c2.4 0.6 1.4 2.1 3.9 1.6 1.8-0.3 1.7-2 3.8-2.2 1.6 3.7-5.7 5.8-7.8 7.4-1.7 1.2-2.6 2.8-4 4-1.7 1.2-3.7 0.6-6.2 1.9-10.9 5.6 0.4-12.8 4.2-11.9 1.8 0.5 0.4 1.2 2.5 2.2 2.2-1.1 1.5-2 3.6-3zm40.4-40.4c4.8-14.3-2.9-12.8-4-17.2 2.6-1 2.9-0.4 4.4-2.3 0.9-1.1 2.3-2.8 3.7-2.9 0.6 2-0.9 3.5-1.8 4.8-3 4.5 5.3 3.1 1.1 16.3-2.5 7.5-4.7 7.1-9.3 11.6-1.3 1.2-2.3 2.7-4.2 3.4 0.6-4.5 7.8-6.7 10.1-13.7zm-19.9-23.3c3.7 0 3.1-0.1 5.9 1.3 1.3 0.7 3.7 1.5 4.5 2.2-0.7 0.4-3.7-0.3-5.4-0.6-7.5-1.2-7.5 2-12-0.8-3-1.8-2.3-0.8-4.2-1.4l-0.7-0.4c-0.1-0.1-0.2-0.1-0.3-0.2 6.3-1.9 6.5-0.1 12.2-0.1zm-23.3 0c0.8 0.7 1.5 1.5 2.3 2.4 0.8 0.8 1.8 1.8 2 2.7-1.5 0.9-4.7 2.7-6.1 3.1 0.1-1.8 1-7.1 1.8-8.2zm123.9 65c2.1-0.6 4.1-0.2 4.1 2.4-1.8 1-7.2 2.3-9 0 0.8-1.6 3.1-1.9 4.9-2.4z"/>
</svg>