<svg version="1.2" xmlns="http://www.w3.org/2000/svg" viewBox="0 0 400 528" width="400" height="528">
	<title>Sozopol-pdf</title>
	<style>
		.s0 { fill: #254aa5 } 
	</style>
	<path id="Path 2" fill-rule="evenodd" class="s0" d="m3.6 378.5v-376.3l395.8-0.1 0.1 378.5-0.1 0.6c-11.8 194.3-380.5 190.3-395.8-1.9zm32.6-464.7c4.8 0 9.1 0.7 12.9 2 3.9 1.4 7.1 3.3 9.8 5.8 2.6 2.5 4.6 5.6 6 9.2 1.4 3.6 2.1 7.6 2.1 12.2q0 7.1-2.2 12.7-2.2 5.7-6.4 9.6-4.2 3.9-10.4 6-6.1 2-13.8 2-7.3 0-13-1.9-5.7-1.9-9.8-5.7-4-3.8-6.1-9.1-2-5.4-2.1-12.2c0-4.6 0.8-8.8 2.3-12.7 1.5-3.7 3.7-7 6.6-9.6q4.3-4 10.4-6.1c4.1-1.4 8.7-2.2 13.7-2.2zm-1 4.9q-4.2 0-7.6 1.7-3.4 1.7-5.8 4.9-2.3 3.2-3.6 7.7-1.3 4.5-1.3 10.1 0 6 1.2 10.7 1.2 4.8 3.5 8.1c1.6 2.2 3.5 3.9 5.7 5 2.3 1.1 4.8 1.7 7.7 1.7q5.7 0 9.8-2.9 4.2-3 6.4-8.6 2.2-5.6 2.2-13.3 0-5.9-1.2-10.5-1.3-4.7-3.6-7.9-2.4-3.2-5.8-5-3.3-1.7-7.6-1.7zm76-3.9v7.8c-4.1-0.9-9.8-1.4-17-1.4q-1.6 0-4.4 0.3-0.2 3.6-0.2 7.7v11c1.8-0.2 3.8-0.2 5.7-0.2 14.2 0 21.3 5.2 21.3 15.6q0 5-2.5 8.9-2.5 3.8-7 5.9-4.6 2.1-10.5 2.1-0.8 0-1.2-0.1l-10.6-0.3h-1q-3.1 0-7.5 0.7 0.4-2.9 0.6-7.7 0.3-4.9 0.3-9.4v-24.6q0-0.9-0.3-8.2-0.2-5.7-0.6-8.1c1.8 0.2 4.4 0.4 8 0.5l11 0.2 6-0.2c3.8-0.1 6.4-0.2 7.8-0.3q0.3 0 2.1-0.2zm-21.3 52.5q2.5 0.6 3.7 0.6 4.3 0 7-3.4 2.7-3.5 2.7-8.8c0-3.6-0.9-6.4-2.7-8.3q-2.7-2.8-8-2.8-0.9 0-3 0.3v12.7l0.2 4.7v4zm116.7-52.2c0 0.9-0.1 1.4-0.1 1.4 0 0.4-0.1 1.3-0.2 2.9q-0.1 2.3-0.2 4.5l-0.3 7.5v20.6l0.2 7.8q0.2 5.4 0.3 6 0 0.1 0.2 1.6l9.2-0.8-0.1 23.1h-5.9q0.8-2.7 0.8-5.7 0-6.6-3.9-9.5-1.6-1.2-4.4-1.7-2.9-0.5-9.5-0.7l-12.6-0.3h-13.9-13.5l-10.7 0.4-13.5 0.4-2 0.3q0.3-1.2 0.3-1.6 0.1-0.6 0.4-6.7l0.2-7.2v-28l-0.3-7q-0.1-3-0.3-5.8 0-0.3-0.3-1.3h14c-0.2 1.1-0.3 1.7-0.3 1.9q0-0.3-0.1 6.3l-0.3 6.6v25.3l0.3 5.3 0.1 4.6 0.1 1q3.6 0.3 9.1 0.2 5.8 0 9.8-0.3h0.7q0-0.3 0.1-0.8 0-0.4 0-0.7c0.1-0.8 0.2-2.1 0.3-3.7q0-1 0-2.3 0.1-1.4 0.1-1.8v-25.9l-0.3-7.5c-0.1-3.7-0.2-5.9-0.3-6.7q0-0.3-0.3-1.7h14.2c-0.1 0.3-0.2 0.7-0.3 1.1q-0.1 0.7-0.1 0.8c-0.1 0.9-0.2 3.2-0.3 7l-0.2 6.9v25.7l0.2 5.6q0.2 3.5 0.2 2.9 0 0.7 0.1 1.2l1.3 0.1 10.1 0.2h1.3c2.6 0 4.8-0.1 6.8-0.3l0.1-1.4 0.2-3.8 0.2-4v-27.1q0-2.1-0.3-7.6-0.1-3.9-0.6-7.3zm68.6 0q0 0.4 0 0.8-0.1 0.4-0.1 0.6-0.2 2.5-0.4 8-0.3 6.5-0.3 9.2v22.4q0 0 0.3 8c0.3 4 0.3 6.1 0.4 6.4q0 0.2 0.1 0.9 0 0.6 0 0.9h-13.8q0.1-0.6 0.1-1.3 0.2-3.9 0.3-6.1c0.1-2.2 0.1-4.5 0.1-7v-35l-15.5 34.4-3.1 6.8q-2.5 5.4-3.1 6.9 0 0.2-0.5 1.3h-16.3c0.2-0.7 0.4-1.2 0.4-1.5q0.1-0.3 0.2-5.7l0.3-7.4v-23c0-3.3-0.1-6.5-0.2-9.8q-0.3-6.9-0.7-9.8h14q-0.2 1.7-0.3 2 0-1.5-0.2 7.8l-0.2 8.1v25l0.3 5.1-0.1 1.5 13.1-29.1 4.6-9.9 3.8-9.2 0.6-1.3zm64.7 0q-0.2 1.7-0.2 2-0.2 2.3-0.5 10.6-0.2 4-0.2 8.2v16.3c0 2.2 0.1 4.5 0.2 7q0.2 7.4 0.5 11 0 0.5 0.1 1 0 0.4 0.1 1.1h-14q0.3-1 0.3-1.5l0.1-4.5 0.3-5.1v-16.6l-1.3-0.1q-11.7-0.2-12.2-0.2-3.5 0-10.3 0.2l-1.4 0.1v16.4q0 2.5 0.2 4.9c0.1 3 0.3 5.1 0.4 6.4h-13.9l0.1-1.8 0.5-11.1 0.3-7.4v-15.9q0 0.1-0.2-6.8-0.3-7.3-0.5-12.2-0.1-0.3-0.1-0.9c-0.1-0.5-0.1-0.9-0.1-1.1h13.9l-0.1 1.2c-0.3 3.7-0.5 6.8-0.5 9.2v12.9q0.8 0 1.3 0 3.6 0.2 9.9 0.2h1.6q7.3 0 10.9-0.2 0.5 0 1.5 0v-13.6q0-1.1-0.3-4.3-0.1-3.7-0.4-5.4zm35.4-1.4q0.2 0.7 0.2 1l2.2 5.6 3.6 9.6 8.7 21.5 5.7 13.9 2.3 5.5 0.7 1.5h-14.6l-5.5-16.9q-0.5-0.1-0.9-0.1 0.2 0-3 0-3.3-0.1-6.7-0.1h-1.2q-2.3 0-4.5 0.1-2.3 0-2.3 0c-0.3 0-0.7 0-1.2 0.1l-6.1 16.9h-7.5l15.1-35.5q2.7-6.7 6.3-16.5 1.6-4.3 2.2-6.6zm-6.1 15.5l-8 20.6q0.7 0.1 1.2 0.1 1.1 0.1 5.8 0.1 5.5 0 6.6-0.1 0.6 0 1.4-0.1zm-355.1 449.3c14.3 179.4 364.1 183.4 375.1 2.1v-0.4l-0.1-367.7-375 0.1v365.5zm10.4-0.9v-354.7h354.2l0.1 357c-10.2 168.4-341.1 164.3-354.3-2.3zm42.5-341.1l-32.8 39 29.1 40.7 13.3-12.4-20.9-30.4 22.9-23.9zm137.1 373.3c-7.7 19.8-12.7 32.3-45.2 41.2-0.8 4.2-1.7 7.4-2.6 11.6 33.3-5.7 64.4-3.8 94.6 2.1-0.6-3.9-0.7-8.1-1.3-11.9-32-9.6-40.3-21.9-45.5-43zm-123.5-224.2c-2.9 0.3-4.8 2.2-5 6-0.1 3.8-0.1 7.6-0.2 11.4 0.3 2.7 0.7 4.7 3.3 5.4 30.9-0.1 63.9-0.4 94.9-0.5 15.7 42.8 17.6 94.8 7.2 123.3-13.5 23.4-36.1 21.4-54.8 3.7-24.9-35.5-58.1-63.4-73.7-55-3.8 2.7-3.4 5.8 2 8.9 28.9 23.1 31.5 46.6 39.1 85.6 7.2 44.7 34.3 75.7 72.5 67.8 23.7-8.6 34.6-28.2 38.8-54.4 2.7 29.2 14.2 49 37.9 55.8 31.8 6.8 50.5-7.5 59.1-33.7 20.2-83.3 36-115.2 48.4-119.6 7.5-3 8-7 1.4-10.1-16.5-2.3-36.4 7.2-62.4 44.7-17.4 26.9-42.8 30.1-55.6 4.9-14.6-32.5-15.8-72.5-0.7-121.4q46.7 0 93.4 0 3.2 0.1 3.5-4.4c0.2-5 0.4-9.9 0.7-14.9-0.1-2.1-1.3-3-3.3-3.5-29.6 0.1-59.3 0.1-89 0.1l13.8-41.4q1.5-2.2-2.8-5.6l-8.4-7.6c-2.1-1.8-2.9-0.8-5.8 0-21.4 6-42.9 7.4-68 0.1-2.6-0.4-2.1-0.6-4.2 0.8l-8.3 7.3c-1.4 0.9-1.5 2.1-1.1 3.5l14.1 42.8zm114.3 20.7c6 1.5 11.8 1.4 17.4 0-3.6 8.8-5.8 18.8-7.7 30-2.3-11.7-6-21.7-9.7-30zm-14.7-49.1c8.1-5.5 37.2-5.3 44 0.8l-7.4 28.6c-4.7-1.1-23.1-1.3-28.1 0zm-97.7-54.1c7.6 10.7 19.5 10.9 30.6 2.3 16.5-13.7 20.3-39.2 7.1-59-7.2-9.4-18.8-12.6-33.2-0.4-15 13.8-17.6 41.6-4.5 57.1zm190.2-0.3c7.6 10.7 19.4 10.8 30.6 2.3 16.5-13.7 20.3-39.2 7.1-59.1-7.2-9.3-18.8-12.6-33.3-0.4-14.9 13.8-17.6 41.6-4.4 57.2zm-103.3 0c7.5 10.7 19.4 10.8 30.5 2.3 16.5-13.7 20.4-39.2 7.2-59.1-7.2-9.3-18.8-12.6-33.3-0.4-14.9 13.8-17.6 41.6-4.4 57.2zm22.3-45.9c5.9 1.1 8.6 9.5 7.5 18.8-1.1 9.3-7.7 17.7-14.7 16.9-6.7-3.4-7.3-9.8-7-18.5 0.7-8.6 7.2-18.9 14.2-17.2zm-86.8 0.3c5.9 1.1 8.6 9.5 7.5 18.9-1.1 9.3-7.8 17.7-14.7 16.9-6.7-3.5-7.4-9.8-7-18.6 0.7-8.6 7.2-18.9 14.2-17.2zm208.3 49l13.7 9.5 14.3-46.2 13.2 45.2 14.5-11.1c-6.9-20.1-13.1-41.4-18.7-64h-16zm-96.1 9.2l16-11.2 0.7-50.6 12.4-0.7-0.8 60.8 15.4-12.6c0.2-20-0.1-39.6 2.1-61.5l-44.8 0.4zm78-58.6c5.9 1.1 8.6 9.5 7.5 18.9-1.1 9.3-7.8 17.7-14.7 16.9-6.7-3.5-7.4-9.8-7-18.6 0.7-8.6 7.2-18.9 14.2-17.2zm-156-22.1l-11.6 12 12.4 13.5-9.3 13.8 8.9 13.1q-7.4 8.8-16.4 16l11.9 14.3 26.4-27.3-12-17.8 11.3-16.7z"/>
</svg>