<svg version="1.2" xmlns="http://www.w3.org/2000/svg" viewBox="0 0 2532 3688" width="2532" height="3688">
	<title>Momchilgrad-pdf</title>
	<style>
		.s0 { fill: #231f20 } 
	</style>
	<path id="Path 1" fill-rule="evenodd" class="s0" d="m1265.6 3686.9l-874.6-600.3c-31.5-22.7-61.8-46.2-91.7-71-24.3-20.9-47.7-42.2-70.7-64.5-22.7-23-44.4-46.3-65.6-70.8-15.4-18.7-30-37.4-44.4-56.9-13.7-19.7-26.6-39.4-39-60l-22.5-41.5c-10.2-21.4-19.2-42.6-27.6-64.7l-13.7-44.5-9.6-45.6-4.9-46.5-0.6-2518.7h2529.9l-0.7 2518.7-4.9 46.5-9.6 45.6-13.7 44.5c-8.4 22.1-17.4 43.3-27.6 64.7-10.9 21.1-22.4 41.5-34.8 61.9-13.1 20.1-26.7 39.6-40.9 58.9-14.9 19.1-30.1 37.6-46 55.9-27.1 29.9-55.1 58-84.7 85.6-23.6 21.1-47.5 41.3-72.3 61.1-24.1 18.7-48.5 36.6-73.5 54zm0-84.1l534.7-367v-820.6h-1060.1v826.9zm391.7-1145.6v746c-0.2 8-0.8 15.7-1.9 23.6-5.8 31.9-18.3 58.1-36.7 84.6l-9.3 12.1c-22.1 26.9-47 49.3-75.3 69.7l-266.9 183.2-261.4-179.4c-7.6-5.3-15.1-10.8-22.4-16.5-25.7-20.5-48.1-42.7-67.6-69.1-18.4-26.5-30.9-52.7-36.8-84.6l-1.7-15.9-0.2-753.7zm-745.5 34.7v710.8c0 66.9 58.5 128 113.7 165.8l241.7 165.8 241.7-165.8c55.2-37.8 113.7-98.9 113.7-165.8v-710.8zm1468 255.7c7.8-12.4 15.2-24.9 22.4-37.8 9.7-18.7 18.5-37.3 26.9-56.7 7.2-19.2 13.5-38.1 19.1-57.8l8.2-39.1 4.2-39.3 0.6-2445.6h-2391.2l0.6 2445.6 4.2 39.3c3.6 20 8.1 38.9 13.6 58.4l13.7 38.5c8.3 19.4 17.1 38 26.8 56.7 10.2 18 20.7 35.2 31.8 52.5v-2292.1h58.9v2355.3h-11.9c17.3 20.7 35.1 40.5 53.7 60.2 23.6 23.8 47.7 46.4 72.9 68.4v-2483.9h58.8v2531.5c12.5 9.6 25.2 19 38 28.3l76.7 52.6v-2612.4h58.9v2652.8l117.6 80.8v-2733.6h55.9v796.8h1060.1v-796.8h55.9v2727.3l117.7-80.8v-2646.5h58.8v2606.2l49.7-34.2c22.2-15.4 43.8-31.3 65-47.7v-2524.3h58.9v2475.7c16.1-14.4 31.9-29.1 47.5-44.2 24.4-24.6 47.4-49.7 69.6-76.2h-2.4v-2355.3h58.8zm-1099.8-76.3c31.8-24.5 55.1-46.9 52.9-63.3-0.3-8.7 15.1-21.8 21.5-15.8 12.9 6.3 26 27.1 28.2 43.5 0.7 7.3-15.6 18.7-21.5 15.7-12.9-6.3-39 6.8-72.1 31zm-20.9-5c0-41.6-3.9-73.5-18-81.8-6.4-4.1-6.4-24.9 0-27.7 12.8-6.9 36-6.9 50.1 0 6.4 4.2 6.4 25 0 27.7-11.6 7-16.7 37.5-16.7 80.5zm-6.4 26.9h25.6v780.6h-25.6zm-512.5-312.9h1060.2v-1078.8h-1060.2zm621.1-55.2c-13.3-4.1-17.5-18.3-23.7-27.9-7.1-3.7-14.6-6.7-19.2-14.2-1.7-2.9-1.7-6.6 0.4-10.4 2.9-10-5-12.9-7.9-20.8-1.2-14.6 8.8-25 20-35.8 16.3-5.9 23.8-22.1 42.9-24.6 25-5.8 35.4 23.3 59.2 17.9 5.8-3.8 9.6-7.9 15.4-13.7 6.7-22.5 5.8-46.3-4.6-69.6-16.6-35-67.1-11.3-94.1-33.4-17.5-12.9-25.5-30.8-28.4-50.4 0 0-1.6-1.2-2.9-1.2-19.2 2.5-42.5-1.7-57.9 11.7-11.2 14.5 0.8 30.8 6.7 45.8 1.6 15 11.2 29.1 16.6 44.6-2 17-24.5 22.5-35.8 37.9-13.7 13.3-28.7 27.9-40.8 42.9-3.8 12.9 2.1 26.6-4.2 38.3l-20.8 3.8c-2.9 2.5-2.1 6.6-4.6 9.5-2.5 8.4-6.3 15-11.7 21.7-7.5 12.5-22.9 6.7-33.3 12.9-2.9-1.2-6.7-1.6-10.4-2.9-17.1 5.8-34.2-5-50.4 1.3-8.4 0-14.6 3.3-21.7 2.9l-12.5-12.9c-14.1-1.7-26.2 12.9-41.6 7-4.6-2.5-10-6.2-10.5-11.2l3-8.3c-0.9-2.1-2.5-3.8-4.2-4.2-2.9 0.4-4.6-1.3-7.5-1.7-7.9-5.8-12.1-12.1-14.6-21.6 5.8-8 7.1-20 0-28.4 5.4-8.7-4.6-18.3 2.5-27.1 2.9-15.4 16.7-20.8 25.8-29.9 8.4-3.8 17.1-9.2 28.4-10 23.7-6.3 39.5 12.9 58.7 18.7 18.8 4.6 28.3-17.5 42.5-29.2 11.7-17 5.8-41.6-5.4-56.2-6.7-8.3-13.3-15.8-19.2-25.8-5.8-17.9-21.6-28.4-30-45-5.4-16.3-2.9-33.4 9.2-44.6l3.3-7.5c5.4-2.9 9.2-7.1 16.7-9.6 7.5-9.2 21.7-9.6 30.4-17.1 20.8-9.1 39.2-18.7 62.5-25.4 21.7-17.5 52.5-22.1 75.4-37.1 0.8-7.5 7.1-11.2 10.4-15.4-0.4-1.6-0.4-3.3-0.4-5-32.5-34.1-75-46.2-110-79.5-13.3-15.5-34.6-20-48.3-38 0 0-2.1 0-2.9-0.8-12.9-0.8-17.1 14.2-27.9 17.5-9.2 0.4-15 8.3-25 8.3-10.5-2-16.7-12.5-24.2-18.3-16.2 2.1-23.7 15.8-40 18.8-12.1-3-20.4-12.1-29.6-20.5-15.4-4.5-31.6-3.3-47.5-9.1-9.1-5.9-7.9-16.7-7.9-27.1-0.4-3.8-2.5-6.3-5.4-7.5-6.7-1.7-14.2-3.7-17.1-9.2-5.8-22.9 21.3-33.7 22.5-54.1-1.7-4.6-7.1-5-11.2-9.6-2.1-3.8 0.8-10 2.9-14.2 2.1-2.1 2.9-4.6 5-5.4l28.3-11.7c1.7-1.6 1.7-4.5 0-5.8-2.9-2.5-7.1-3.3-8.3-7.5 0-2.5 1.2-2.9 2.5-5.4 6.2-6.2 16.2-10.4 27.1-10.4 16.6 8.3 31.6 16.2 47.9 23.3 14.6 15 2.5 36.3 5.4 54.2 9.6 12.5 25.8 6.6 40 6.6 7.9-1.6 16.6-2.9 22.9-6.6 1.2-0.4 1.2-0.9 1.2-2.1l-3.3-8.3 3.3-8.4c2.1-2.1 5-2.9 8.8-5.4 3.3-2.9 2.9-7.5 1.7-12.5-8.8-10.4-13.8-25.8-25-35.4-6.7-3.7-14.6-2.9-22.1-5.8-7.5-2.9-15.4-7.5-16.7-15.9l1.7-21.6c-21.3-2.9-38.8-11.7-47.5-29.6-4.6-23.3 1.2-50.8-17.9-68.3 0-2.5 1.2-4.6 2.5-6.3 3.3-2.5 7.5-4.6 12.5-4.6 10.8-5.8 1.2-21.6 8.3-29.1 9.2-7.5 22.5-5 32.9-7.5 1.7-2.9 1.3-7.5 0-10.4 1.3-3 1.7-5.9 4.2-6.3 8.7-7.1 17.5 0 26.6 0 6.3-4.2 8.8-11.2 16.7-12.9 9.2 2.9 15.4 13.3 23.3 16.7l8 11.6c5 1.3 10 3.8 15 5.9 6.2 4.5 4.5 14.5 8.7 20.8-1.2 13.3 1.7 26.7-10.4 35.8-3.3 8.8-12.9 11.7-15 20.8 10.4 24.6 33.3 47.5 55.4 64.2 8.8 4.2 17.9-6.2 28.3-6.2 11.7-2.1 24.6-4.2 35-8.8l2.1-23.7c-1.2-2.1-2.9-3.8-4.6-4.6-8.7 0-16.6 0-25.8-1.7-17.1-5-28.7-13.7-40-26.6-7.5-13.4-5.4-28.4 2.9-38.8l6.3-2.9c10.8 4.2 13.7 15.8 22.5 23.7 4.5 5.5 8.7 9.2 15 11.7 10.4 1.7 19.5 3.3 29.1 1.3 0 0 0-1.3 0.4-1.7 0.5-5-2.5-8.3-5.8-11.7-7.9-13.3 2.5-29.6-2.1-43.3 0.4-0.8 0.4-2.1 0.9-2.9 7.5-8.8 20.8-6.7 31.2-10.4 5.4-0.9 7.5-3 12.9-3 10.4-1.2 20.4-7 30.4-4.5 6.7-5.5 13.8-10 20.4-15.9 29.6-17.9 65 12.1 97.5-5 4.6-3.7 12.1-5.4 18.4-1.2 4.6 6.6 14.6 10.8 17.5 20.8-4.2 20.8 11.6 35.4 14.5 54.2 6.3 26.2 0.5 53.3 4.6 80.4 0.4 2.5 2.9 5.4 5.9 5.4 5.8-1.7 9.5-5.8 12-11.7 7.1-7.9 15.5-17.5 21.3-25 20.4-17 48.3-24.1 77.1-21.2 11.6 2.9 25.8 4.6 35.8 12.9 10 10.4 19.2 20.8 27.9 33.3 13.8 22.1 15 53.8 11.7 81.3-7.1 12-5.9 29.1-14.6 41.6-13.3 22.5-26.3 44.6-35.8 69.2-10.5 15-20 34.1-35.5 45.8-3.3-1.2-5.4-3.3-8.7-5.8-11.7-10.9-16.3-27.9-15.4-42.9-5.9-3.4-11.7-9.2-17.5-15-16.3-15.4 13.3-36.3-2.5-53.4-5-16.6-5.8-39.1 3.7-55.8 5-15.8 24.2-26.2 31.7-42.5 1.7-4.6 2.5-13.7-1.3-18.3-1.6-2.5-5-2.5-9.1-2.5-12.1 1.2-20.4 11.7-27.1 20-29.6 30.4-34.6 81.2-24.2 123.7 8 24.6 18 48.4 28.8 72.1 10 11.2 12.1 30.4 20.4 44.2 9.2 32.9 18.3 65.4 10.8 98.7-6.2 32.9-25.4 56.7-50.8 70.4-0.8 1.2-1.2 1.7-1.7 4.2 0.9 15.8 2.1 30.4 1.7 46.2 21.7 37.9 75.8 7.9 100.4 42.1 5.4 14.6 7.1 30.8 0 45-12.1 17.1-15.8 40-27.5 59.1-27.5 39.6-4.6 86.3-8.7 127.5-3 2.1-7.5 3.4-11.7 3.4 0 0-1.3 0.4-1.7 1.2-4.6 2.1-2.9 7.9-3.3 13.3-2.5 13.8-15.8 24.2-26.3 32.1-22.9 11.7-44.9 20-72.9 15.9-13.3-10.5-30.8 4.1-46.2 0.4-12.1-7.9-27.9-6.3-42.1-6.3zm106.3-12.5c8.3 1.7 14.1-5 22.5-4.1 13.3-8.4 29.5-13.4 34.9-28.4 1.7-10.4-2.9-20.8 2.1-29.6 2.5-5.8 10.4-1.2 15-4.5 3.8-8.4 2.1-18.8-2.1-26.3-9.1-7.5-11.2-17.9-7-28.3 4.5-6.3 4.1-14.2 9.1-20-1.6-11.7 6.7-17.1 7.5-27.9 6.7-7.5 2.1-16.7 5.9-25 0-7.9 6.6-11.7 9.1-17.9 2.5-3.4 5.4-5.9 7.1-9.2 0.8-4.6 2.5-10 3.3-15.8 4.2-5 3-11.3 5.9-16.7 0-7.5-4.6-12.1-7.5-16.7-5-3.3-14.2-3.3-19.6-7-9.2-1.7-16.7 0.8-25-3.4-20-0.4-39.2-2.9-51.2-17.9-14.2-25-4.2-54.6-11.3-80.4 2.1-2.9 5.4-5.4 10-6.2 7.9-8.4 23.8-5.9 29.6-17.5 15-5.9 17.1-22.5 25-34.2 3.3-7.1 2.1-15.4 5-22.9 0-29.2-4.6-57.9-13.8-85-2.5-8.8-10-13.8-9.5-22.9-3.8-6.7-6.3-14.2-9.2-20 0-2.9 0-4.6-0.4-6.3-7.1-10.8-11.7-22-16.3-34.5 0.4-10-7.1-14.6-7.1-23.8-1.6-6.2-2.9-10.4-5.8-15.8 0-16.7-5-34.6-0.4-50 0-10.4 4.6-17.5 5.8-26.7 5-9.6 7.1-19.1 14.6-27.5 4.6-16.2 19.6-30 34.2-39.1 7.5-4.2 14.1-4.2 21.6-9.2 9.6 1.7 17.5 5 22.9 10.8 5 8.8 5 19.2 3.8 28.4-7.5 11.6-17.9 23.3-27.5 34.5-7.5 11.7-16.3 20.9-15.8 36.3 1.2 3.7 0 6.6 1.6 10.4l1.3 5c0.4 0.4 1.2 0.4 2.5 1.2 12.5-2.5 22.9-15 28.7-26.6 3.4-7.5 5.9-16.3 15-18.3 2.9 0.4 5.4 1.6 6.3 5l-3.8 20.8c-13.3 17.5-40 30.8-45.4 52.5-4.6 5-7.9 12.9-5 20.4 0 0.4 0.4 1.7 0.4 1.7 5.9 2.9 12.1-3 17.5-4.6 4.2-5 6.3-9.2 10.4-13.8 0.5-7.1 7.1-11.2 7.1-17.9 1.7-5.4 3.8-8.7 9.6-10.4 2.9-0.8 4.2 1.7 6.7 1.7 1.6 1.2 4.6 5 3.3 8.7-4.2 21.3-19.6 31.7-26.2 51.3-3.4 2.9-3.4 8.3-0.5 10.4 1.7 1.6 6.3 1.2 8-0.9 6.6-7.9 8.7-15.8 17.9-19.1l14.1-23.4 12.5-28.3c1.7-7.1 7.1-13.3 7.1-21.2 5-17.5 6.3-34.2 7.5-51.3-2.9-9.6 2.5-20-2.9-27.1-2.9-9.5-9.2-17.9-13.3-26.6-10.4-11.3-30-16.3-45.9-21.3-10.4-1.2-21.2 2.1-30 2.1-3.3 0.8-4.5 1.3-5.8 2.5-0.8 2.5-3.7 5.8-7.5 7.5-12.5 1.3-21.2 13.8-32.1 24.2-5.8 12.5-10.4 25.8-19.1 35.4-9.6 26.7-14.2 51.6-11.3 78.3 1.7 7.5 1.7 16.3 5.4 24.2-0.8 7.5 5.9 10.8 4.6 17.9 7.1 12.9 8.8 29.6 16.7 41.2 0 2.1-0.4 3.8 1.2 5.9 8 6.2 7.1 17 11.7 25.4 0 2.1 0 4.6 0.4 6.2 10.9 14.6 13.4 36.3 19.2 55 0.4 15 7.9 25.8 4.6 40.8 1.2 8.8-5 14.6-4.2 23-9.6 14.5-19.6 26.6-35.8 32.9-13.4 1.6-25.4-0.4-37.5-2.9-7.9-3-11.7-9.2-17.9-11.7-14.6-6.7-21.7-19.6-31.3-30.8-3.3-10.5-10-15.9-11.6-27.5-4.2-6.3-3.4-13.4-7.1-18.8 0.8-7.9-1.7-14.2-2.5-22.5 3.3-11.6-6.7-25-5.4-37.9-0.5-1.2-1.3-2.5-1.3-2.5-7.5 5.8-17.9 10.4-28.3 12.1-8.8-5.8-14.6-15.4-19.2-25l-3.7-2.1c-6.7 2.1-13 2.1-19.2 4.2-12.9 0-23.7 0.8-35.4-2.5-2.9-1.7-2.9-1.7-5.4-2.9-5.9 10.4-15.4 23.3-25.9 29.1-8.3-0.8-14.5 2.5-21.6 1.7-10.9 0.4-20 0.4-30 0-2.1 0-2.9 2.1-2.1 3.7 3.3 8.4 13.7 14.2 16.7 21.7 13.7 10.4 31.6 20 42 31.7 13 5.8 19.6 17.9 33.8 20.8 11.2 15 28.3 24.6 36.6 39.6l5 2.9c3.4 16.7 15.9 27.9 18.8 45.8 5.4 9.6 1.7 21.3 6.7 31.3 1.2 14.1 4.1 27.5 5.8 42 5.8 17.5 4.2 34.6 9.2 52.1 4.5 8.8 15 10 22.9 16.3 10.4-1.3 20 7.9 30.8 2.5 15.4 2.5 29.6 8.3 42.5 16.6 10.4 15.4 20 30.4 25 47.9-1.3 13 2.9 25.5-1.3 37.1 1.3 10-1.2 18.4-2.9 28.3-3.3 4.6-3.3 9.2-4.6 14.6-10.4 15.4-25 25.9-44.5 22.1-11.7-3.7-22.5 0-32.1-5.8-6.3-0.9-11.3 0-16.7 1.6-4.6 1.7-5 6.7-7.1 11.7 0 0.8 0 2.1 0.9 3.3l21.2-5.4c15 2.9 31.3 2.5 45.4 10 2.1 1.3 4.6 3.4 6.3 4.2 1.2 1.2 1.6 3.3 1.6 5.8l-2.9 3.8c-7.5 3.7-18.3 2.1-22 10l1.6 3.3c7.9 2.5 13.4-1.7 20.4-4.6 7.5 4.6 20.9 6.3 23.8 16.7 0.4 6.7-1.3 14.6 4.1 18.3zm-97.9-4.1c0.9 0 1.3 0 2.5-0.9 1.3-0.8 0.5-4.6 0-5.4-0.4-0.8-1.2-0.8-2.5-1.2-0.4 0-0.8 0.4-2 1.2 0 0-0.9 0.8-0.9 1.7l2.1 3.7c0 0 0.4 0 0.8 0.9zm22.1-16.7c1.3 0 1.7 0 3.8-0.8l5.4-23.8-15.4-0.4c-2.9 1.7-5.9 4.6-6.3 8.7 0.9 7.5 6.3 12.5 11.3 15.5 0.8 0.8 1.2 0.8 1.2 0.8zm-327.4-1.3l10.4-3.7c0.8-0.8 0.8-3.8 0.4-6.3-1.3-0.4-1.7-1.6-3.3-1.6-4.2 1.2-7.5 4.6-10 7.9 0 1.2 0 2.1 0.8 2.9 0.4 0 0.8 0 1.7 0.8zm38.7-2.5c10.4 0 19.2-2 30-2.9 11.7-3.3 18.3-11.6 23.3-21.2 0.5-7.1-2.5-14.6-2.9-20.9 1.7-5.4 4.6-8.7 9.6-10.4 7.1-0.8 15 2.9 19.6-3.3 0.8-1.3 1.2-2.1 1.2-2.1 1.3-9.6 0.9-20 10-25.8 9.6-11.7 20.9-17.9 30.4-29.2 3.8-7.5 11.7-7.9 14.6-15.4 4.2-4.2 5.4-7.5 8.4-11.7 2.9-12 2-26.6-3.8-38.3-3.7-12.9-11.2-24.2-15.4-36.2-5.4-11.7 0.4-20.9 4.2-30.9 2.5-7.5 10.8-10.4 15.8-15.4 8.3-6.2 18.7-9.1 27.9-11.6 7.1-4.6 15.4 2.9 21.7-3 5.8-1.2 11.6 0 16.6-2 1.7-0.9 3.4-2.5 4.2-5 0 0 0-0.9-0.8-1.7-8.4-2.9-17.9-7.9-20-17.9-1.7-8.8 1.6-14.2 2.9-22.5 7.5-14.6-2.9-25.9-7.5-37.5-4.6-3.8-6.7-8.3-8.3-11.7-13-1.6-28.4 3.4-40.5 10-8.7-4.1-15.8 3.4-25 3.8-10 2.9-17.9 6.6-25.4 11.2-10 0-13.7 7.5-22.5 7.9-10.4 10.4-26.6 12.9-38.7 22.5-14.2 2.1-20 15.9-31.3 19.2-5.8 8.3-10 19.6-5 29.6 5.5 10.4 14.2 20.4 19.2 29.6 4.6 7.5 11.7 14.5 14.6 20.8 1.2 9.1 6.2 15.4 11.7 20.8 2.9 0.4 2.9 1.7 4.5 2.1 1.3 6.7 3 14.2 4.6 20.4 3.4 13.3 4.6 26.3 0.4 37.5-6.2 15.8-21.2 25-30 37.1-6.2 11.7-20 12.1-25 23.3-3.7 3.3-9.5 2.1-12.9 5-17.5 4.2-35-5.8-51.2-1.2-4.6 2-9.6 0.8-12.1 3.7-1.7 5-7.5 9.2-5.8 15.4 0.8 1.3 1.2 1.7 1.2 1.7 10.4-0.4 17.9-10.8 30.8-9.2 2.1-1.2 3.4-1.6 5-2.1 11.3 1.7 25.5-1.2 35 5.9 0.9 5 0.9 11.2 5.5 15.4 0.8 1.2 0.8 2.5 0.8 2.5-1.3 3.7-5.8 5.8-10.4 6.7-1.7 0-2.5-0.5-3.8-0.5-5.4 3.4-15.8 5-18.3 13.4 1.7 2.9 7.1 2.1 10 1.6 7.9-1.6 15 1.7 20 3.4l12.1 19.1zm-90.4-2l5.4-0.9-2.5-13.3c-1.3-0.8-2.9 0-4.2 0.8-1.6 2.1-4.6 7.9-2.1 10.9 1.3 1.6 1.3 2.5 3 2.5zm335.3-9.6c4.6-2.9 0-9.6-0.8-14.2 0-0.8-0.4-1.2-1.7-1.2-3.3 0-6.2 4.1-7.9 7.5 0 3.3 0.4 6.2 3.3 7.9zm-309.1-12.5c0.4 0 1.7 0 2.1-1.3 4.2-9.1 10-19.1 22.1-22.1 0.4-0.4 1.2-2 0.4-3.3-8.8 0-19.6-2.9-26.7 4.6-2.5 4.6-7.9 9.2-3.7 15 2.1 2.5 2.1 5.8 5 7.1zm-47.5-12.9c0.4 0 1.7 0 2.1 0 2.5-2.1 0.8-5.9 1.2-9.2-0.4-1.3-0.4-2.1-2.5-1.7-0.4 0-0.8 0.4-1.6 1.3-1.7 0.8-2.1 4.6-2.1 6.6 0.4 1.3 1.2 3 2.9 3zm349.1-10.5c3.8-1.6 0.4-7.5 0.4-11.2 0 0-0.4-0.8-1.6-0.8-3 2.5-4.6 5.4-6.3 9.1l2.9 2.9zm29.2-22.9l20-1.2-14.6-3.4-5.8 3c-0.4 0-0.4 2 0.4 1.6zm-351.6-23.3h21.6c0.9 0 0.9-1.2 0.9-1.7-3-2.9-8.8-1.6-12.1-5-5 0-9.6 2.1-12.5 3.8-0.4 0.8 0 1.7 0 2.9 0.8 0 1.2 0 2.1 0zm187.4-47.9c0-2.9-0.8-4.6 0.5-7.5 7-7.1 10-18.8 17.9-25 2.9-0.4 7.1 0.8 7.5 2.9-1.3 6.3 0.8 12.9-1.3 19.6-6.2 7.1-12.5 11.7-21.6 12.9-2.5 0-3-2.5-3-2.9zm332.1-32.9c-2.1-1.3-4.6-2.9-4.6-5.4 3.3-14.2-1.7-32.5 7.5-43.8l4.2-2.5c4.5 1.7 9.1 1.7 10.4 6.3-0.9 2.9-0.9 5.4-0.9 8.7-5 11.3-5.4 27.9-15 35.8l-0.8 0.9zm-219.1-144.2h0.4l0.8-10.4q-1.8 0-2.5 0c-1.2 2.1-1.2 7.1-0.4 10.4 0.4 0 0.8 0 1.7 0zm146.2-82.9c10 0 22.1 1.7 29.2-7.5 9.1-9.1 8.3-23.7 11.2-36.6 2.1-18-3.3-34.6-5-52.5-10.4-20.9-18.3-41.7-30-60.9-6.6-15-7.1-30.4-12.9-46.2-4.2-5-4.2-13.3-7.9-17.9-0.8-10.4-2.5-19.2-1.3-28.3-0.4-1.3-1.2-2.5-2.5-1.7-0.8 0.4-2.9 1.7-3.3 3.3 1.3 11.7-1.7 22.1-3.3 34.2-10 34.6-4.6 74.6-20 104.6-5.4 2.5-13.8-1.7-19.6 2.5-1.2 1.2-1.7 2.5-1.7 2.5 1.3 3.7 1.7 9.1 3.4 12.9-0.4 17 7.5 26.2 12.5 40 13.3 17.5 18.7 35.4 36.2 48.3zm-167.1-71.2c3.4-7.5 12.1-12.5 9.2-22.1-0.4-2.1-2.9-4.6-5-4.6-10.4 0.8-20 11.2-28.3 3.7-0.9-0.8-0.9-2.5-0.9-3.7 1.7-6.3 9.2-6.3 13.8-9.2 0.8-0.4 1.2-1.2 2.1-2.9 3.7-6.2-0.9-12.1-2.5-16.7 2.9-7.5 10.4-11.2 16.6-13.3 7.5 2.1 11.7 10.8 15 19.2 5.5 9.6 6.7 20.8 5.5 34.1-4.6 5-4.6 14.2-10 18l-11.3 0.4c-2.5 0-4.2-1.3-4.2-2.9zm-234.5-73.4c18.3 2.9 26.7-20.8 45-18.7 14.2 2.9 28.3 4.1 41.2 0.8 22.9 5 50.4 6.7 74.6 3.3 15-6.2 13.3-25.4 19.6-38.3 0.8-1.7 0.8-2.1 0.8-3.3-7.1-2.5-18.7 0-27.5-4.2-5.8-0.4-10.4-1.7-11.2-6.2 0-2.5 0.4-5.4-1.3-7.5-8.3-3.4-16.6 0-25.4-1.7-11.2 2.9-20.8 1.7-31.2 1.3-3.8-1.3-5.9-5.9-10-6.7-17.5-1.3-34.6 3.7-49.2 12.1-13.3 0-24.2 5-37.5 4.1-6.7 2.5-12.1-0.4-19.2 1.3-9.1 0.4-17.5 0-24.1-3.4-8.8-2-12.9-10.4-17.9-16.2-2.5-5.4-3.8-8.7-4.2-14.2l-7.5-15.4c-5.4-4.1-14.2-3.3-21.7-2.5-3.3 2.5-6.2 6.7-5.8 11.7 0 2.9 0.8 4.6 2.1 5.4l7.5 2.1 17.1 22.1c5.8 5.8 17.5 7.5 20 16.6-0.9 2.9-2.5 4.2-2.5 5.9-8.8 5.8-20.4-4.6-30.9-1.3-7.5-0.8-12.5 3.8-17.9 6.7l-10.4 12.1-5 1.2c-1.2 0.4-2.5 0.8-2.9 3.3l2.9 6.3c10.8 1.7 25.4 0 34.6 9.2l11.7 2.9c7.5 8.7 23.3 8.3 34.1 7.1 10.4-7.1 17.9-15.9 31.3-13.8 5.8 2.9 11.6 5 13.3 11.3 0 2 0.4 3.7 1.2 4.1zm331.3-7.5c0 0 1.2 0 1.6-0.8 2.9-6.3 2.1-14.2 5-21.3 2.5-9.1 3.8-16.6 5-25.4 2.1-8.3 5-15.8 7.9-23.3 0-15.4 9.2-26.7 10-42.1 5.9-26.6 8.4-54.6 9.2-81.2 5.8-9.6 0.4-20.8 2.9-32.9-3.7-10.4 4.6-19.6-1.7-28.8 0-10.4-2.9-19.1-3.7-29.6-1.7-2.9-1.7-5.4-2.9-7.5-9.2-4.1-22.5 5.9-31.7-1.6-2.5-2.5 0-7.1 1.7-10 4.6-4.6 12.9-5 15.8-12.1l-1.2-34.2c-11.3-4.1-21.7 10-32.9 3-12.5-6.3-25-3-39.6-3.4-6.7-3.7-13.8-3.7-20 0-0.9 0-1.3 0.4-1.3 1.7 0 1.2 0 1.7 1.3 2.1 6.6 4.1 18.3 2.5 24.6 9.6 1.6 4.5 4.1 8.3 1.6 12.5-5 6.2-12.9 7.4-17.1 12.9-4.5 2.9-7.5 0-11.6 1.6-9.2-4.1-15-12.9-20.9-20.4-7.5-4.1-17.5-3.3-23.7 1.3l-38.7 7.5c-3.8 1.2-3.8 5.8-3.8 10.4 2.9 5.8 0 12.1 4.6 17.5 2.1 1.6 2.5 2.1 4.2 2.9 11.2 0.8 23.3-6.7 34.5-1.3 6.3-0.8 9.6 4.2 14.2 6.3 5.4 0 10.4 1.2 13.3 5.4 5.9 11.3-2.1 22.9-2.9 34.2-2.9 3.3-5.8 7.9-10.4 7.9-7.5 0.4-13.3 1.7-19.2 4.2l-22.5-7.1-7-4.6-4.6 2.5c-2.9 5-2.1 13.7 0.4 18.7 2.1 2.1 2.5 2.5 4.2 3 8.3-0.9 17.9 1.6 26.2-3 16.2-1.6 30.8 2.1 47.5 4.6 4.2 2.9 8.7 2.9 13.7 2.1 4.2-7.1 16.3-1.2 20.9-8.7 4.6-6.3 2.5-16.3 8.7-20.9 4.2-1.6 7.1-2.9 10.9-3.7 2 0.8 3.7 2.5 4.1 5 0.9 6.2-2.1 11.2-2.1 18.7-5.8 12.5-10 24.6-22 30.4-20.9 9.2-37.5-10-56.7-5.8l-6.3-1.7c-5.8 3-12 3-17.9 6.3-13.3-4.6-21.2 8.7-33.3 3.3-10 4.6-21.7 2.9-28.3 8.4-1.3 2.9 2.1 2.9 4.1 3.7 2.1 1.2 3.8 4.2 2.5 8.3-2.5 6.3-5 10.9-7.9 16.3 0 4.6 4.2 7.5 7.5 9.1 19.6 2.1 35.9-1.6 51.7-10.8l3.7 1.7c2.5 3.3-0.4 7.5-0.4 12.1-5 9.1-16.6 5.8-20.4 15.4l-2.1 12.5c-0.8 0.4-1.2 0.8-2.5 0.8l-3.3-12.5c-1.7-1.7-5-0.8-7.9 0-5.4 2.1-5.4 9.2-5.4 15 0.4 1.7 2.5 3.3 4.5 4.2 7.5-0.9 16.3 0.4 23.8-2.1 7.5-0.8 10.4-7.5 18.7-6.7 2.5-2.5 2.9-2.9 4.2-4.6l5-12.9c0.8-5 4.6-10 8.7-11.6 1.3-0.5 2.5-0.9 2.5-0.9 3.4 0.4 6.3 3.8 8 7.5l-7.1 30c8.7 3.4 17.5-2.5 27.5-1.2 4.6-4.6 8.3-5 13.3-7.9 0.8-0.9 1.7-2.5 0.8-4.2-9.1-4.2-24.1 1.7-30.4-8.8 3.4-13.3 9.6-23.7 17.9-34.1 3.4-1.3 5-1.7 7.5-3.4 1.3 0 2.1 0 3.4 1.3l2.9 20c19.6 0.8 35.4-7.5 51.7-14.6 1.2 0.8 2 2.5 3.3 5-4.6 17.1-25.4 20-35.8 32.1-1.3 14.2-19.2 17.5-20.9 32.1 5.9 3.3 16.3 1.6 23.8 0.8 12.5-5.4 20.4-15.4 31.6-21.2l4.2 2.5 2.5 5c-2.1 8.3-9.6 11.2-14.2 17.9-13.3 11.2-33.3 16.6-51.2 17.5-5.8 5.8-15.4 13.7-22.1 20-7.1 7-16.7 12.5-19.2 23.3 0 3.3 0.5 6.2 2.5 8.7 6.3 3 11.3-4.5 18.8-3.3 18.7-6.7 23.7-26.2 36.7-37.9l4.1 1.7 2.1 5c-2.9 12.5-16.7 22.5-13.3 36.2 1.2 6.3 4.1 10 8.3 13.3l7.9-0.4c3.4-5.4 5.9-12.9 13.8-14.6l6.6 3 17.1 19.1zm-132.1-14.1h0.5l1.2-15.5c-0.8 0-1.2 0-1.7 0l-2.5 12.5c0 0.9 0 2.1 0.9 3 0.4 0 0.4 0 1.6 0zm-102.4-6.7c-10 2.1-19.6-0.8-30 0.4-5.4 0-10-2.5-11.7-6.2 0-0.9 0.4-1.7 0.4-1.7 26.7-11.7 60.8-0.8 90.4-8.3 5-1.3 8.8 1.2 10 4.5 0.4 4.6-2.5 8.4-4.1 11.3l-23.4 3.7c-9.1-4.5-20.8 2.5-31.6-3.7zm-248.3-32.1c1.2 0 1.6 0 3.3 0 1.2 0 2.5-2.1 2.1-3.7-2.1-0.9-5 0.4-5.9 1.6-0.8 0.4-0.8 2.9 0.5 2.1zm368.2-1.2c8.8-2.5 16.7-10.4 21.3-19.6 1.2-4.6 0.8-7.9 1.7-11.7-1.7-4.6-6.3-0.8-9.6-0.8-8.8 2.9-5.4 15-12.9 17.1l-1.7 15zm95.4-7.5l2.5-3.8c1.7-1.2 6.2-2.9 7.9-1.2l1.3 4.6c-0.9 1.6-2.5 3.3-4.2 4.1-1.7 0-2.5 0-3.3 0-1.7-0.8-3.8-1.2-4.2-3.7zm-429.9-0.4c2.9 0 6.2 0 7.9-2.5 1.2-0.9 0-2.5-0.4-3.8l-5.5-2.9c-0.4 0-1.2 0-2 0.4-1.3 0.8-2.5 1.7-3 4.2l1.7 4.1c0.4 0 0.4 0 1.3 0.5zm289.1-10c7.5-4.6 18.3 2.9 24.1-5.5 7.5-2.5 12.5-7 14.6-12.9 0-2.9-0.4-4.6 0.4-6.2-0.8-4.2-4.5 0-7.5 0.8-2.9 2.1-3.7 2.9-6.2 4.2l-14.6-1.7-12.5 10.8-1.2 7.5c0.8 1.3 1.2 3 2.9 3zm-53.3-14.2c9.1 1.7 14.5-5.8 23.7-5.8 1.3-1.3 2.5-1.7 2.5-1.7 0 0 0-1.3 0-2.5l-15.8-7.9-11.3 0.4c-4.1 1.7-2.9 7.1-3.7 11.7 1.6 2 1.6 2.9 2.9 5 0.8 0 0.8 0 1.7 0.8zm-64.2-14.2c8.3 2.1 15-3.3 24.2-2.9 3.7-1.7 5.8-2.1 8.3-4.6 1.7-1.6 1.7-5.8 0-7.9-7.5-4.2-19.2-8.3-26.3-1.7-4.9 4.6-9.5 9.2-10.4 14.2l3.8 2.9zm-187.5-2.9c1.3 0 2.5-0.4 3.3-0.8 0.9-1.3 2.5-4.6 2.1-7.5-2.9-2.9-8.3 0.4-10.4 2.1-0.8 0-0.8 1.2-1.2 1.6 0.4 2.9 3.3 3.8 6.2 4.6zm332-20l-0.4-3.7c1.3-0.5 2.1-0.5 2.9 0v3.7q-1.2 0-2.5 0zm-76.2-5.4l9.2-0.8c1.6-1.3 1.2-5 0-6.7-4.6-7.9-15.4-3.3-17.9-11.7-2.1-10.8 12-15.8 15-24.6 2.9-4.5 6.6-8.3 5.8-12.9l-13.3-0.4c-16.3 7.9-34.2 15.4-46.7 30-1.3 2.9-2.5 3.3-3.8 5.4 0 2.1 3 3.8 5.5 5l17.9-5 4.1 2.1c3.8 3.3 0.5 8.3-1.2 12.1 0 1.2 0.4 1.7 1.2 2.5zm-80.8-2.1c0.4 0 1.7-0.8 2.1-1.7l-8.7-12.9 17-25.4 7.5-4.2c0.9-1.2 0.4-3.3 0.9-5l-11.3-14.1c-12.9-10.8-20.8-26.7-35-36.3-13.3-15-10.4-36.6-4.6-54.5 4.6-10.5 5.5-20 3.4-31.3-0.4-0.4-1.7-1.7-3.4-1.7-1.6 0-3.3 1.7-4.1 4.2-10.9 20.8 5.8 49.6-13.4 65.8-7.5-0.4-10.4-5.8-13.7-10.8-6.3-9.2-4.2-22.1-9.2-30.8-8.3-5.9-20.8-1.3-30.8-0.4l-8.8-3.8c0 0-0.4 0.8-0.8 0.8 10.8 16.3 0 40.5 15.4 55 4.2 8.8 10.4 12.5 16.3 20 1.2 0.9 2.5 0.9 2.5 0.9 7.9-0.9 15.4 1.2 20 7.5 1.6 3.3 5.4 7.1 4.6 10.4-3.4 4.6-6.3 8.7-8 13.7l1.7 4.2 25.4 5c9.2 5 8.4 18.7 15.9 25.8l13.7 19.6zm-149.6-5.8l1.3-0.9c0.4-0.4 1.2-2 0.4-3.7-0.4-1.3-2.1-1.3-3.7-0.8 0 0-0.9 0.8-1.3 2l2.9 3.4zm214.2-130.4c0.8-0.4 0.8-1.7 0-2.9-0.5 0-1.3-0.9-2.1-0.5-0.9 1.7 0 3 0.8 3.4 0.8 1.2 0.8 0.8 1.3 0zm-120.9-33.4c1.3-4.1 0-10-4.1-11.6-2.9-1.7-5-4.6-7.9-3.4-0.9 0-0.9 0.5-1.3 1.7l12.5 13.8zm44.6-0.9c0.4 0 1.2 0 2.1-0.4 1.2-4.6 1.6-13.3-2.1-17.5-0.9 0-1.3 0.9-2.5 1.3l-0.4 13.3c0 1.3 0.4 3.3 2.9 3.3zm-84.2-15c2.1-2 0.9-7.5-0.8-10.4-0.8 0-1.3-0.4-2.5-0.8-0.4 0-1.3 0.4-2.5 0.8-1.7 1.7-0.4 5.4 0.8 7.5 1.7 2.1 1.7 2.5 2.9 2.9zm385-15.4c2.1-4.1 3.7-7.5 8.3-8.3 2.9 0.8 5.9 2.9 5.9 6.7l-3 6.6-4.1 2.5c-4.2-1.2-7.1-4.1-7.1-7.5zm-356.6-7.5c0.8 0 2.1 0.4 2.5 0 1.2-0.8 0-1.6 0.4-2.9l-2.9-4.2c-0.9 0-1.7 0-2.1 1.3-0.4 0-0.4 0.4-1.3 1.7l1.7 4.1c0.8 0 0.8 0 1.7 0zm31.2-0.8l1.3-0.4c2.5-2.5 0.8-7.5-1.3-10.4 0 0-0.8-0.5-1.7-0.5-2.9 0.5-2.9 5.5-1.6 8 1.2 1.6 1.6 2.5 2.9 3.3zm-245.9-898.4h889.7v725.5h-889.7zm34.7 690.9h820.3v-656.2h-820.3zm157 1815c75.8 97.8 227.3 146.1 227.3 292.3-188.8-75.6-303-78.1-227.3-292.3zm96.3-247.5c56.5 89.1 131 126.3 131 259.3-142.5-68.8-188.8-64.3-131-259.3zm196-1643.6c-27.1 4.3-56.9 4-83.3 0l8.3-50.7c-32.9-5.4-63.3-18.5-89.1-37.5l-30.9 42.7c-22.2-16.1-43.1-37.4-58.9-58.9l43.2-31c-18.3-25.6-31-55.5-36.1-87.8l-49.7 8c-4.4-27.1-4-57 0-83.3l50 8.2c5.4-32.1 18.2-61.8 36.6-87.2l-41-29.7c16.1-22.2 37.5-43 58.9-58.8l29.6 41.2c26-18.7 56.4-31.5 89.3-36.5l-8.2-51.3c27.1-4.4 57-4 83.3 0l-8.5 51.8c31.7 5.5 61.1 18.2 86.2 36.3l30-41.3c22.2 16 43 37.4 58.8 58.9l-41.4 29.8c18.3 25.3 31 54.9 36.4 87l50.8-8.2c4.3 27.1 4 57 0 83.3l-50.6-8.3c-5.2 33.3-18.5 64.1-37.8 90.3l43.9 31.7c-16.1 22.2-37.5 43-58.9 58.8l-31.8-44.3c-25.4 18.2-55.1 30.9-87.2 36.1zm-41.2-150.6c57.6 0 104.7-47 104.7-104.7 0-57.7-47.1-104.7-104.7-104.7-57.7 0-104.7 47-104.7 104.7 0 57.7 47 104.7 104.7 104.7zm-1149.3-604.9v-201.4h63.4l41.4 153.4 41.2-153.4h63.6v201.4h-40.2v-157.2l0.6-10.6-2.1 10.6-40.8 157.2h-44.1l-40.7-154.7-2.7-13.1 0.6 12.8v155zm467.1-100.4c0 31.2-9 56.5-27 76.1q-27.1 29.7-75.2 29.7-47.5 0-74.4-29.7c-18.2-19.6-27.3-44.9-27.3-76.1 0-31.3 9.1-56.8 27.3-76.6q26.9-29.6 74.4-29.6 48.1 0 75.2 29.3c18 19.8 27 45.5 27 76.9zm-160.2 0c0 19.3 4.9 35.6 14.6 49.2q14.4 20.8 43.7 20.8 29.5 0 43.9-20.2c9.7-13.2 14.6-29.8 14.6-49.8 0-21.6-5.2-38.8-15.7-51.5-10.5-12.6-25-19-43.7-19q-26.1 0.1-41.8 19.3-15.6 19.3-15.6 51.2zm206.9 100.4v-201.4h63.4l41.4 153.4 41.2-153.4h63.6v201.4h-40.2v-157.2l0.6-10.6-2.1 10.6-40.7 157.2h-44.1l-40.8-154.7-2.7-13.1 0.6 12.8v155zm395-79.2c-6.8 3.8-14.7 6.6-24 8.5-9.4 2-21 3-34.8 3-17.7 0-32.3-5-43.7-15q-17.1-15.2-17.1-41.1v-77.6h43.2v71.7c0 10.2 3.2 17.7 9.9 22.7q9.7 7.2 24.3 7.2 13.5 0 23.4-2.9 9.8-2.4 18.8-8v-90.7h43.5v201.4h-43.5zm156.7 79.2h-46.1v-201.4h43.2v138.5l87.7-138.5h46.1v201.4h-43.1v-138.2zm318.2 0l-53.6-158.8-52.8 158.8h-45.1l74.1-201.4h49.5l74.6 201.4zm84.3-201.4h148.7v37h-105.6v164.4h-43.1zm193.2 201.5v-201.5h89.4c20.5 0 37.3 5.5 50.5 16.5 13.1 11.3 19.6 27.4 19.6 48.5 0 20.7-6.6 36.7-19.9 47.8-13.4 11.4-30.2 17.1-50.5 17.1h-46.2v71.6zm116.6-136.7c0-10.1-2.8-17.6-8.3-22.5-5.7-4.8-13.6-7.3-23.8-7.3h-41.4v58.4h39.3q16 0 25.2-6.9c6-4.5 9-11.7 9-21.7zm227 136.7l-14.6-41.4h-80.8l-13.7 41.4h-45.1l74.1-201.5h49.5l75.4 201.5zm-26.2-75.3l-29-85.9-28.9 85.9zm110.8 38.4h11.8c7.9-3.2 13.6-8.6 16.9-16.3q5-11.4 5-31.9v-116.4h158.2v164.6h20.3v75.5h-32.8l-3.4-38.6h-139.8l-3.6 38.6h-32.6zm148.7 0v-127.5h-71.8v68.8q0 20.6-6.4 36.1c-4.4 10.1-9.9 17.7-16.4 22.6zm-1062.6 2695.3c0-133.1 74.4-170.3 130.9-259.3 56.5 195 11.6 190.5-130.9 259.3zm137.6-704.8c4.2 0 10 1.7 12.1-2.9 0.8-1.3 1.2-2.1 1.2-2.1l-0.4-5.4c-3.7-2.1-8.7-1.7-11.7 0.8-2.9 2.1-3.3 3.8-4.5 5.4l1.6 4.2c0.4 0 1.3 0 1.7 0zm-187.4 374.8c-31.8-24.5-58.6-40.3-73.7-32-6.7 4.7-22.2-8.4-21.5-15.7 2.6-15.1 15.7-35.8 28.3-43.5 7-3.3 23.4 8.1 21.5 15.8-0.2 14.4 20.7 37.5 53.7 61.7zm49.8 610.4c0-146.1 151.5-194.4 227.2-292.2 75.8 214.2-38.5 216.7-227.2 292.2z"/>
</svg>