<svg version="1.2" xmlns="http://www.w3.org/2000/svg" viewBox="0 0 126 125" width="126" height="125">
	<title>Kardzhali-pdf</title>
	<style>
		.s0 { fill: #8b8441 } 
		.s1 { fill: #1a5dad } 
		.s2 { fill: #ffffff } 
	</style>
	<path id="Path 1" fill-rule="evenodd" class="s0" d="m101 0.7v90.1c-0.8 8.3-4.6 12.1-11.1 12.7h-18.9c-7.8 0-7.5 6.4-7.8 6.4-0.1 0 0-6.4-7.5-6.4h-19c-6.4-0.6-10.3-4.4-11-12.7v-90.1zm-74.3 1v88.7c0.8 8.1 4.3 11.6 10.8 12.2h19.7c6.3 0.3 5.9 3.9 6 3.8 0.3 0.1-0.1-3.5 5.9-3.8h20c6.4-0.6 10-4.1 10.6-12.2v-88.7z"/>
	<path id="Path 2" fill-rule="evenodd" class="s1" d="m99.7 1.7v88.7c-0.6 8.1-4.2 11.6-10.6 12.2h-20c-6 0.3-5.6 3.9-5.9 3.8-0.1 0.1 0.3-3.5-6-3.8h-19.7c-6.5-0.6-10-4.1-10.8-12.2v-88.7zm6.3 70.5c-0.1-1.4 0-3.4 0.4-5 0.5-1.6 1.5-2.5 3.3-2.7h7.6c1.4 0 2.4 0.1 2.9 0.7-0.4-0.5-1.5-0.4-1.8 0.1-0.8 0.8-0.7 3.1-0.6 5.3 0 0.7 0 1.3 0 1.9l0.1 4.9c0 5.3 0 11.9-0.7 17.1-2.1 14.9-7.4 23.3-24 24.1l-9 0.3-11.6 0.1v-5.4c0-0.6-0.8-1.2-2.4-1.4-1.1-0.1-2.3-0.1-3.4-0.2-3.4-0.3-2.7-2.2-0.4-2.9 2.3-0.8 4-0.4 7-0.5h10.8c9.5-0.1 14.9-1.6 18-5.5 3-3.9 3.7-6 4-15.6zm14.3-7.1q0 0.1 0 0.1 0 0 0-0.1zm-55.8 51v-4.3q0.6 0.5 2.4 0.7c1.8 0.1 4 0.1 4.6 0.5 0.8 0.5 0.3 0.9-0.3 1.2-2.1 1.1-4.4 1.6-6.7 1.9zm61-66.6v21c0 1.2-0.3 2-0.8 2.5-0.2 0.2-0.4 0.4-0.6 0.4-0.2 0.1-0.5 0-0.8-0.1-0.6-0.3-1.3-1.3-1.6-2.8 0-0.3 0-0.6 0-0.9 0-1 0-2-0.1-2.7-0.3-1.8-0.8-3.2-4.2-3.2h-4.8v-14.1l6.5 5.5zm-7.2 23q0-1-0.1-1.9c0-2.1-0.1-4.4 0.5-5.1 0.6-0.7 2.2 0.1 2.3 1.1q0.3 1.4 0.2 3.2 0 0.5 0 1c0.3 1.5 0.9 2.4 1.5 2.9h-4.4zm-55.7 51.8c-3.7-0.1-7.2-0.9-8.1-2.6v-7.4c0.4 0.5 1.6 0.9 2.6 1.3 2 0.7 4.1 1.1 6.2 1.1q3.2 0 6.3-1.1c0.9-0.4 2.1-0.8 2.5-1.3v7.4c-0.9 1.7-4.4 2.5-8 2.6-0.7 0-0.8 0-1.5 0zm-42.2-36.8c0.3 9.6 1 11.7 4 15.6 3.1 3.9 8.5 5.5 18 5.5h10.8c3 0.1 4.8-0.3 7 0.5 2.4 0.7 3 2.6-0.4 2.9-1.1 0.1-2.3 0.1-3.4 0.2-1.6 0.2-2.4 0.8-2.4 1.5v5.3h-11.5l-9.1-0.4c-16.6-0.8-21.9-9.2-24-24.1-0.7-5.2-0.7-6.3-0.7-11.6 0.1-10.7 0.3-0.2 0.1-10.9 0-0.5 0.1-1.2 0.1-1.9 0-2.2 0.1-4.4-0.7-5.3-0.3-0.5-1.4-0.5-1.9 0 0.6-0.6 1.6-0.8 3-0.8h7.6c1.9 0.3 2.8 1.2 3.3 2.7 0.4 1.7 0.5 3.6 0.4 5.1zm-14-22.7q0 0 0 0 0 0 0 0zm49.2 49.5c-0.7-0.3-1.2-0.8-0.4-1.2 0.6-0.4 2.8-0.4 4.6-0.5q1.8-0.2 2.4-0.7v4.3c-2.3-0.3-4.6-0.8-6.6-1.9zm-47.9-59.1l6.4-5.6v13.9h-4.8c-3.3 0-3.9 1.4-4.2 3.1-0.1 0.8-0.1 1.7-0.1 2.8 0 0.3 0 0.5 0 0.8-0.3 1.6-0.9 2.6-1.6 2.9q-0.4 0.2-0.8 0.1c-0.2-0.1-0.4-0.2-0.6-0.4-0.5-0.5-0.8-1.3-0.8-2.5v-20.8zm0.8 18.1h-4.5c0.7-0.5 1.2-1.4 1.5-2.9q0-0.5 0-1c0-1.2 0-2.2 0.2-3.2 0.2-1 1.7-1.8 2.3-1.1 0.6 0.7 0.6 3 0.5 5.1q-0.1 0.9 0 1.9z"/>
	<path id="Path 3" fill-rule="evenodd" class="s0" d="m49 59.9c3.9 1.1 5.2 1.8 7.9 5.4 5.5 0.7 11.3 0.7 17.4-1.2 7.9-0.7 10.6 2.8 15.5 7.2 2.7 2.5 7-1.5 2.7-5.7-4.3-2.6-14.9-4.2-22.3-7.2-2.6-1.7-6.3-7.6 1-9.6h18.7c-2 2-3.5 3.8-7.5 3.5-0.7 2.4-0.7 4.1-4.5 3.1-3-0.9-6-6.7-9.1-2.5-1.2 6.4 16.4 5.9 24.8 10.5 6.2 5.1 2.4 14.6-5.8 10 0.1 3.6 1.2 6.2 5.6 5.8 1.7 0 2.3-0.1 2.3 3.1l1.2 8.9-2 4.9h-8.2c-0.1-2.4 1.7-4.4 6.1-4.6-0.1-1.6 0-7.2-3.3-7.2-13.7 3.6-12.2-13-19-11.6 2.1 1.4 2.6 1.4 3 3.2-7.9 0-11.4 10.1-20.4 8.4 4.1-1.7 4.4-2.6 4.9-6.4-0.6-1.9-2-1.2-1.7-6l-1.2 2.6c2.4 2.3 2.6 7-2.7 8.1l-11.3 13.5h-8.2c-0.1-2.9 2.1-4.9 5.9-4.6l8-12.6c-2.7-2.2-1.7-2.4-2.5-5.3-0.4 2-0.2 3.4 0.9 5.6l-1.2 2c-9-11.9-4.7-24.6 0.9-29.3-0.6-2.7-0.6-5.1 1.9-3.1 0.4 0.8 2.1-0.4 4.3 0 2.2-0.6 1.7 0.6 2.3 0.9 4.3 0.6 5.5 0.2 5.5 4.5 0.8 0.4 2.4 0.1 3.8 0.1-0.3 2.1-2.4 1.1-5.3 1.5v2.8c-0.9 1.9-2.2 2.2-3.2 0.1-2.3 0-3.8-0.9-5.2-2.5l0.5 1.4zm14.9 56.4v-5c-0.6-1 0.6-2.3 2.3-2.8 1.8-0.5 4.3-0.3 7.2-0.3h10.7c9.4-0.1 14.7-1.6 17.6-5.4 3-3.8 3.7-5.7 4-15.3-0.2-12.3-0.4-3.1-0.3-15.3 0-1.5 0-3.4 0.5-5.1 0.5-1.8 1.6-2.8 3.7-3.1 0.8-0.1 1.6 0 2.4 0v-15.4l7 6 6.8-6v22.2c0 1.3-0.3 2.2-0.8 2.7q-0.4 0.5-1 0.7 0 0-0.1 0h-5.7l0.2 3.2c0 5.2-0.1 11.9-0.8 17.3-2.3 15.3-7.3 23.2-24.5 24.4l-9 0.3-11.6 0.2v2.5c-1.5 1.8-5.4 2.7-9.3 2.7-3.9 0-7.8-0.9-9.2-2.7v-2.5l-11.7-0.2-9-0.3c-17.2-1.2-22.1-9.1-24.4-24.4-0.9-6.7-0.8-14-0.6-20.9h-5.1c-0.6 0-1.3-0.2-1.7-0.7-0.5-0.5-0.9-1.4-0.9-2.7v-22l7 6.2 6.8-6.1v15.1c0.9 0 1.7-0.1 2.5 0 2.1 0.3 3.1 1.3 3.7 3 0.5 1.7 0.5 3.7 0.5 5.2 0.1 12.2-0.2 3.4-0.4 15.7 0.4 9.6 1 11.5 4 15.3 3 3.8 8.2 5.3 17.7 5.4h10.7c2.9 0 5.3-0.2 7.2 0.3 1.7 0.5 2.8 1.8 2.3 2.8v5c0.3 0 0.4 0 0.6 0 0.2 0 0.3 0 0.7 0zm-6.6-60.5c-0.3-1.9-3-0.9-3-0.9 0 0-0.1 3.8 3 0.9zm-4.5-3.5c-0.3-0.5 0.1-2.8-2-1 0.4 1 1.3 0.5 2 1zm0.1 0.1q-0.1-0.1-0.1-0.1 0 0.1 0.1 0.1zm-21.8-47.8v3.6l3.3-3.6h2.2l-3.4 3.6 3.7 5.7h-2.1l-2.7-4.1-1 0.9v3.2h-1.6v-9.3zm9.6 3.5h1.5c2 0 3.2 0.9 3.2 2.9 0 1.8-1.2 2.9-3.2 2.9h-3.1v-7.6h-1.9v-1.7h3.5zm0 1.6v2.3h1.5c0.9 0 1.6-0.1 1.6-1.1 0-0.9-0.7-1.2-1.6-1.2zm5.5 4.1v-9.2h3.6c1.4 0 2.9 0.7 2.9 3 0 1.8-1.5 3.1-2.9 3.1h-1.8v3.1zm4.7-6.2c0-1.2-0.6-1.5-1.2-1.5h-1.7v2.7h1.4c0.9 0 1.5-0.5 1.5-1.2zm1.9 4.4h0.4c0.6-0.1 0.8-0.9 0.8-2.1v-5.3h6.5v7.4h0.8v3.5h-1.4l-0.1-1.7h-5.5l-0.3 1.7h-1.2zm5.9 0v-5.7h-2.9v3c0 1.5-0.4 2.4-0.9 2.7zm2.9 1.9l3.3-5.5-2.9-3.8h2l2.8 3.6v-3.6h1.6v3.6l2.6-3.6h2l-2.9 3.8 3.5 5.5h-2.1l-2.6-4.1-0.5 0.6v3.5h-1.6v-3.5l-0.8-0.6-2.4 4.1zm18.4 0l-0.5-2h-3.3l-0.5 2h-1.9l3-9.3h2l3 9.3zm-1.3-3.5l-1.2-4.1-1.1 4.1zm9.4 3.5l-2.4-7.5-2 7.5h-1.7l2.7-9.3h2l3.1 9.3zm4.3 0h-2v-9.3h1.8v6.4l3.5-6.4h1.8v9.3h-1.7v-6.5zm5.2 25.7l-8.1 1.7-0.1-1.3 8.2-2.9zm-8.4-0.4l-0.6-1.5 9-4.3v2.9zm-59.6-2.9v-2.9l8.9 4.3-0.5 1.5zm0 0.9l8.2 2.9-0.5 1.2-7.7-1.7zm0 3.4l7.6 1.5-0.3 1.4h-7.3zm68 2.8h-7.5l-0.5-1.3 8-1.5zm-50.8-16.7l-1.5 1.2-9-10.8h4.2zm-8.2 16.7c4.7-27.2 44.9-27.2 49.8 0zm47-26.3h3.9l-8.3 10.2-1.7-1.1zm-8.2 7.8l3.8-7.8h3.2l-5.3 8.6zm-2.9-1.6l2.6-6.2h3.1l-3.7 7.1zm-24.6 1.2l-3.8-7.4h3l2.5 6.8zm6.2-2.4l-2 0.8-2-5.8h2.8zm2.7-0.3l-1.9 0.3-1.1-5h2.4zm12.5-4.8h2.8l-2 5.3-2-0.4zm-3.3 0h2.4l-1 4.8-2-0.4zm-3.4 0h2.5l-0.6 4.3-1.9-0.2zm-2.9 4.3l-2 0.1-0.5-4.4h2.5zm-21.5 12.7l-0.9 1.7-9.7-5.3v-3.9zm-10.7-12.6l12.3 10.1-1.1 1.7-11.2-8.1zm68.1 5.1v3.9l-9.9 5.4-0.9-1.8zm0-1.2l-11.3 8.1-1.1-1.7 12.4-10.2zm0-5l-12.9 10.9-1.4-1.8 11.7-12.3h2.6zm-68.1-3.2h2.6l11.7 12.3-1.6 1.8-12.7-10.9zm17.9 9.2l-5.8-9.2h3.4l4.1 8.1zm-18 32.1v-8.1c2.3-0.3 4.4 2.1 4.2 6.4l4.1 9c0 7.2 1.6 10.9 3.1 13.3-3.2-0.7-5.9-2.9-6.1-8.9zm46.1 19.9l3 4.8c-0.3 2.1-1.3 3.2-1.2 5.5 0 1.4-0.8 1.2-1.8 1.1l-5.2 6.5h-8.2c-0.2-1.3 0.5-4.9 5.9-4.6l3.5-4.4c-0.3-3.1-0.4-6.2 0-9 0.9-1.6 2.5-1.4 4 0.1zm43.3-23l-6.4-5.5v14.1h4.8c3.3 0 3.8 1.4 4.2 3.2 0.1 0.7 0.1 1.7 0.1 2.7 0 0.3 0 0.5 0 0.9 0.3 1.5 0.9 2.5 1.6 2.8 0.3 0.1 0.5 0.2 0.8 0.1 0.2 0 0.4-0.2 0.6-0.4 0.4-0.5 0.8-1.3 0.8-2.5v-21zm-0.8 18.6h4.5c-0.7-0.6-1.3-1.5-1.5-3q0-0.5 0-1 0-1.7-0.3-3.2c-0.1-1-1.7-1.8-2.3-1.1-0.6 0.8-0.5 3-0.5 5.1q0.1 0.9 0.1 1.9zm-12 13.7c-0.3 9.6-1 11.7-4.1 15.6-3.1 4-8.4 5.5-17.9 5.5h-10.8c-3 0.2-4.8-0.3-7.1 0.5-2.3 0.7-2.9 2.6 0.5 2.9 1 0.1 2.2 0.1 3.3 0.2 1.7 0.2 2.4 0.8 2.4 1.5v5.3h11.6l9-0.4c16.7-0.8 22-9.2 24-24.1 0.7-5.2 0.8-11.8 0.8-17.1l-0.1-4.9c0-0.5-0.1-1.2-0.1-1.9-0.1-2.2-0.1-4.4 0.6-5.3 0.4-0.5 1.4-0.5 1.9-0.1-0.6-0.6-1.6-0.7-2.9-0.7h-7.7c-1.8 0.3-2.7 1.2-3.2 2.7-0.5 1.7-0.5 3.6-0.5 5.1zm14.1-22.2q0-0.1-0.1-0.1 0.1 0 0.1 0.1zm-49.2 49c0.6-0.3 1.1-0.8 0.4-1.2-0.6-0.4-2.8-0.4-4.6-0.5q-1.8-0.2-2.5-0.8v4.4c2.4-0.3 4.7-0.8 6.7-1.9zm-50.5-42.5c0.1-1.5 0-3.4-0.4-5.1-0.5-1.5-1.5-2.4-3.3-2.7h-7.6c-1.4 0-2.4 0.2-3 0.8 0.5-0.5 1.5-0.5 1.9 0 0.8 0.9 0.7 3.1 0.6 5.3 0 0.7 0 1.4 0 1.9 0.2 10.7 0 0.2-0.2 10.9 0 5.3 0.1 6.4 0.8 11.6 2.1 14.9 7.4 23.3 24 24.1l9 0.4h11.6v-5.3c0-0.7 0.8-1.3 2.4-1.5 1.1-0.1 2.3-0.1 3.4-0.2 3.4-0.3 2.7-2.2 0.4-2.9-2.3-0.8-4-0.4-7.1-0.5h-10.7c-9.5 0-14.9-1.6-18-5.5-3-3.9-3.7-6-4-15.6zm-14.3-7q0 0 0 0 0 0 0 0zm57.7 59.5c3.6-0.1 7.1-1 8.1-2.6v-7.4c-0.5 0.5-1.7 0.9-2.6 1.2q-3.1 1.2-6.3 1.2c-2.1 0-4.2-0.4-6.2-1.2-1-0.3-2.2-0.7-2.6-1.2v7.4c0.9 1.6 4.4 2.5 8.1 2.6 0.7 0 0.9 0 1.5 0zm-1.9-8.1v-4.4q-0.7 0.6-2.5 0.8c-1.7 0.1-3.9 0.1-4.6 0.5-0.7 0.4-0.2 0.9 0.4 1.2 2 1 4.4 1.6 6.7 1.9zm-53.8-44.2q0-0.9 0-1.9c0.1-2 0.2-4.3-0.5-5.1-0.5-0.7-2.1 0.2-2.2 1.2-0.2 0.9-0.3 2-0.3 3.2q0 0.5 0 0.9c-0.2 1.5-0.8 2.5-1.5 3h4.5zm-7.2-22.6v20.8c0 1.2 0.3 2 0.7 2.5 0.2 0.2 0.5 0.4 0.7 0.4q0.4 0.1 0.7-0.1c0.7-0.3 1.4-1.3 1.7-2.8 0-0.4 0-0.6 0-0.9 0-1 0-2 0.1-2.7 0.3-1.8 0.8-3.2 4.2-3.2h4.7v-13.8l-6.3 5.5z"/>
	<path id="Path 4" fill-rule="evenodd" class="s2" d="m46 112.2q0.7 0 1.2 0.3 0.5 0.3 0.8 0.8 0.3 0.5 0.3 1.1 0 0.6-0.3 1.1-0.3 0.5-0.8 0.8-0.5 0.3-1.1 0.3-0.6 0-1.2-0.3-0.5-0.3-0.8-0.8-0.3-0.5-0.3-1.1 0-0.6 0.3-1.1 0.3-0.5 0.8-0.8 0.5-0.3 1.1-0.3zm0.1 0.7q-0.4 0-0.8 0.2-0.3 0.2-0.5 0.5-0.2 0.4-0.2 0.8 0 0.4 0.2 0.7 0.2 0.4 0.5 0.6 0.4 0.2 0.8 0.2 0.3 0 0.7-0.2 0.3-0.2 0.5-0.6 0.2-0.3 0.2-0.7 0-0.4-0.2-0.7-0.2-0.4-0.5-0.6-0.3-0.2-0.7-0.2zm-4.1 3.6l0.1-3.5h-0.8v-0.8h2.4v0.8h-0.8l-0.1 3.5zm-3.1-4.5q0.7 0 1.2 0.4 0.5 0.3 0.7 0.8 0.3 0.6 0.3 1.2-0.1 0.6-0.4 1.1-0.4 0.5-0.9 0.7-0.5 0.3-1.1 0.3-0.6-0.1-1.1-0.4-0.5-0.4-0.8-0.9-0.3-0.5-0.2-1.1 0-0.6 0.4-1.1 0.3-0.5 0.8-0.8 0.6-0.3 1.1-0.2zm0.1 0.8q-0.4-0.1-0.8 0.1-0.3 0.2-0.6 0.5-0.2 0.3-0.2 0.7 0 0.4 0.1 0.8 0.2 0.3 0.5 0.5 0.3 0.3 0.7 0.3 0.4 0 0.8-0.2 0.3-0.1 0.5-0.5 0.2-0.3 0.3-0.7 0-0.4-0.2-0.7-0.1-0.4-0.5-0.6-0.3-0.2-0.6-0.2zm-4.4 0.1v-0.1 0.1l-1.3 3-0.8-0.1 2-4.1h0.6l1.2 4.5-1-0.1zm-6.6 1.9l2.6-3.9 0.6 0.1 1 4.6-0.9-0.2-0.3-1.2-1.5-0.2-0.6 0.9zm1.8-1.4l1.1 0.2-0.3-1.4v-0.2 0.2zm-5.4 0.1l1.7-4 0.7 0.3-0.6 1.6 1.4 0.6 0.6-1.6 0.8 0.3-1.6 4-0.8-0.3 0.7-1.7-1.4-0.6-0.7 1.7zm-3.3-1.8l-0.7-0.5 2.3-3.6 0.7 0.4-1.7 2.7 0.1-0.1 3-1.7 0.7 0.5-2.3 3.6-0.6-0.4 1.6-2.7-0.1 0.1zm-5.1-5l3.3-2.8 0.7 0.8-1.7 2.9-0.1 0.2 0.2-0.1 3.1-1.2 0.7 0.8-3.3 2.8-0.5-0.6 2.5-2.1-3.2 1.2-0.4-0.5 1.7-2.9-2.5 2.1zm2.5-7.5l0.2 0.6q-0.2 0.2-0.2 0.4 0.1 0.3 0.4 0.3l0.2 0.6q-0.8 0.1-1.1-0.7-0.2-0.8 0.5-1.2zm-4.8 1.5l-0.2-0.8 4.1-1.1 0.2 0.7-3 0.9h0.1l3.4 0.8 0.2 0.8-4.1 1.2-0.2-0.8 3-0.9h-0.2zm-1.2-5.3l4.6 1 0.1 0.6-3.9 2.5-0.2-0.8 1-0.7-0.2-1.5-1.2-0.3zm2 1.3l0.2 1 1.2-0.7 0.2-0.1h-0.2zm-2.2-2.9l3.5-0.5-0.1-0.7 0.8-0.1 0.3 2.3-0.7 0.1-0.2-0.8-3.5 0.5zm-0.3-3.5l-0.1-0.8 4.3-0.4 0.1 0.8-3.2 0.3h0.2l3.1 1.4 0.1 0.8-4.3 0.4-0.1-0.8 3.2-0.3h-0.2zm-0.1-1.6v-0.8l1.8-0.1-0.1-0.1q-0.2-0.1-0.3-0.3-0.1-0.2-0.1-0.5 0-0.6 0.4-1 0.2-0.2 0.5-0.3 0.3 0 0.7-0.1h1.2l0.1 0.8h-1.3q-0.2 0-0.3 0.1-0.1 0-0.2 0-0.4 0.2-0.4 0.7 0 0.2 0.1 0.3 0.1 0.1 0.3 0.2 0.1 0.1 0.2 0.1 0.1 0 0.4 0l1.3-0.1v0.8zm4.1-5.9q0.1 0.6-0.2 1.1-0.3 0.6-0.8 0.9-0.6 0.3-1.2 0.3-0.6 0-1.1-0.3-0.5-0.3-0.8-0.8-0.3-0.5-0.4-1.1 0-0.6 0.3-1.1 0.3-0.6 0.8-0.9 0.5-0.3 1.1-0.3 0.6 0 1.2 0.3 0.5 0.3 0.8 0.8 0.3 0.5 0.3 1.1zm-0.7 0.1q0-0.5-0.2-0.8-0.2-0.3-0.6-0.5-0.3-0.2-0.7-0.2-0.4 0-0.8 0.2-0.3 0.2-0.5 0.6-0.2 0.3-0.2 0.7 0 0.4 0.2 0.7 0.2 0.3 0.6 0.5 0.3 0.2 0.7 0.2 0.4 0 0.7-0.2 0.4-0.2 0.6-0.5 0.2-0.4 0.2-0.7zm-3.7-6l4.3-0.1v3.1l-4.3 0.1v-0.8l3.5-0.1v-1.5l-3.5 0.1zm66.9 39.8l0.1-4.3h2.1v0.8l-1.4-0.1v3.6zm4.5 0h-0.8l-0.1-4.3h1q0.4 0 0.6 0 0.3 0 0.5 0.2 0.3 0.1 0.5 0.4 0.1 0.3 0.1 0.6 0.1 0.4-0.1 0.6-0.1 0.3-0.3 0.5-0.2 0.1-0.3 0.2-0.3 0.1-1 0.1l-0.2 0.1zm0-2.4l0.1-0.1h0.2q0.3 0 0.4 0 0.2-0.1 0.3-0.2 0.1-0.2 0.1-0.4 0-0.2-0.1-0.3-0.2-0.1-0.3-0.2-0.2 0-0.5 0h-0.1-0.2zm3.1 2.4l1.6-4.4h0.6l2.1 4.2h-0.9l-0.5-1h-1.6l-0.4 1.2zm1.5-1.9l1-0.1-0.5-1.3-0.1-0.1v0.1zm10.3 0.5l-0.8 0.2-1.1-4.2 0.8-0.2 0.8 3.1v-0.2l0.9-3.3 0.7-0.2 1.1 4.1-0.7 0.2-0.8-3-0.1 0.2zm6.3-6.7l0.7 0.7 0.2-0.2q0.6-0.6 1-0.7 0.3 0 0.6 0.1 0.3 0 0.5 0.3 0.2 0.2 0.3 0.5 0.1 0.3 0.1 0.6-0.1 0.4-0.7 1l-0.7 0.8-3.1-3.1 1.7-1.6 0.5 0.5zm1.9 2l0.3-0.2q0.1-0.2 0.2-0.3 0.1-0.1 0.1-0.3 0.1-0.3-0.1-0.5-0.2-0.1-0.4-0.1-0.1 0-0.3 0.1-0.1 0-0.3 0.3l-0.2 0.2zm0.3-4.4l-0.5 0.7-0.6-0.5 0.9-1.3 1.4 1 0.1-0.3q0.5-0.6 0.9-0.8 0.3-0.1 0.6 0 0.3 0 0.6 0.2 0.2 0.1 0.4 0.4 0.1 0.3 0.1 0.6 0 0.4-0.4 1.1l-0.6 0.9zm2.7 0.9l0.2-0.3q0.5-0.7 0-1-0.2-0.2-0.4-0.1-0.1 0-0.3 0.2 0 0-0.2 0.3l-0.2 0.3zm4-7.9l-4.2-0.7 0.3-2.3 0.8 0.2-0.3 1.5 1 0.1 0.2-1.4 0.8 0.1-0.2 1.4 1 0.2 0.2-1.5 0.8 0.1zm-0.1-4.7l0.1-1.2-3.5-0.3 0.1-0.8 3.5 0.3 0.1-1.1-3.5-0.3 0.1-0.8 3.5 0.3v-0.4l1.6 0.2v0.7h-0.9l-0.4 4.2-4.2-0.3v-0.8zm1.3-5.8l-4.3-0.1 0.1-2.3h0.8l-0.1 1.5h1l0.1-1.4h0.7v1.5h1v-1.5h0.8zm0.2-4.4l-3.6-0.1v0.8h-0.7v-2.4h0.8v0.8l3.5 0.1zm-4.4-4.9q0-0.7 0.3-1.2 0.3-0.5 0.8-0.8 0.6-0.3 1.2-0.3 0.6 0 1.1 0.3 0.5 0.3 0.8 0.8 0.3 0.5 0.3 1.1 0 0.6-0.3 1.2-0.3 0.5-0.8 0.8-0.5 0.3-1.1 0.3-0.6 0-1.1-0.3-0.6-0.3-0.9-0.8-0.3-0.5-0.3-1.1zm0.8-0.1q0 0.4 0.2 0.8 0.2 0.3 0.5 0.5 0.4 0.2 0.8 0.2 0.4 0 0.7-0.2 0.3-0.2 0.5-0.5 0.2-0.4 0.2-0.8 0-0.4-0.2-0.7-0.2-0.3-0.5-0.5-0.3-0.2-0.7-0.2-0.4 0-0.8 0.2-0.3 0.2-0.5 0.5-0.2 0.3-0.2 0.7z"/>
	<path id="Path 5" fill-rule="evenodd" class="s2" d="m91.3 115.4l0.2-0.1c0.3-0.1 0.3-0.4 0.2-1l-0.5-2.4 3-0.6 0.7 3.4 0.3-0.1 0.3 1.6-0.6 0.2-0.2-0.8-2.5 0.5v0.8l-0.6 0.1zm2.7-0.5l-0.5-2.7-1.3 0.3 0.3 1.4c0.1 0.7 0 1.1-0.2 1.3zm16.7-10.9l0.1-0.2c0-0.3-0.3-0.4-0.8-0.6l-2.4-0.8 1-2.9 3.3 1.1 0.1-0.3 1.6 0.5-0.3 0.6-0.7-0.2-0.8 2.4 0.7 0.4-0.2 0.6zm0.9-2.7l-2.6-0.8-0.4 1.3 1.3 0.4c0.7 0.2 1 0.6 1.1 0.8z"/>
</svg>