<svg version="1.2" xmlns="http://www.w3.org/2000/svg" viewBox="0 0 1191 1194" width="1191" height="1194">
	<title>Brazigovo-pdf</title>
	<style>
		.s0 { fill: #ed1c24 } 
		.s1 { fill: #11a6d8 } 
		.s2 { fill: #00a650 } 
		.s3 { fill: none;stroke: #f9b114;stroke-linecap: round;stroke-linejoin: round;stroke-width: 6 } 
		.s4 { fill: #fab213 } 
		.s5 { fill: none;stroke: #cfd1ce;stroke-linecap: round;stroke-linejoin: round;stroke-width: 6 } 
	</style>
	<path id="Path 1" class="s0" d="m326.4 261.7h538.1v447.6h-538.1zm443-21.4l26.4 5.4h-400.7l26.4-5.4 26.5-4.6 26.7-3.8 26.7-3.1 26.8-2.3 26.9-1.5 26.9-0.8h26.9l26.9 0.8 26.9 1.5 26.8 2.3 26.7 3.1 26.7 3.8zm-236-36.1l-19.7-176.5 16.2-3 16.3-2.3 16.4-1.7 16.4-1 16.4-0.4 16.5 0.4 16.4 1 16.4 1.7 16.3 2.3 16.2 3-19.7 176.5-24.8-1.5-24.8-0.7h-24.9l-24.8 0.7zm-59.2 6.7l-19-103.6 50.4-7.8 11.8 106.1-21.6 2.4zm-142.1 34.7l-63.3-163.2 14.7-7.6 14.9-7 15.3-6.4 15.4-5.8 15.7-5.1 15.9-4.4 16.1-3.8 16.2-3.2 16.3-2.5 16.4-1.8 32.9 178.6-21.4 3.9-21.3 4.6-21.2 5.1-21 5.6-20.9 6.2zm341.3-40l11.8-106.1 50.2 7.8-19.1 103.6-21.4-3zm58.8 7.9l32.8-178.6 16.4 1.8 16.4 2.5 16.2 3.1 16 3.9 15.9 4.4 15.7 5.1 15.5 5.8 15.2 6.4 15 7 14.6 7.6-63.2 163.2-20.7-6.8-20.9-6.2-21-5.6-21.2-5.1-21.3-4.6z"/>
	<path id="Path 2" class="s1" d="m326.4 725.4h261v259.4l-4.2-2.3-4.5-2.1-9.4-3.5-9.6-2.8-9.7-2.3-9.9-1.6-9.9-1-10-0.4-10 0.2-38.8 1.1-38.7 0.7-38.8 0.4-9.9-0.3-10-1.1-9.8-1.8-9.6-2.6-9.4-3.3-4.2-2.7-3.8-3.3-3.3-3.7-2.8-4.2-2.2-4.5-1.6-4.7-1-5h0.1zm538.2 208.7l-1 4.9-1.5 4.8-2.2 4.5-2.8 4.1-3.4 3.8-3.8 3.3-4.2 2.7-9.4 3.3-9.6 2.5-9.8 1.9-9.9 1-10 0.4-38.8-0.4-38.7-0.7-38.7-1.1-10-0.2-10 0.3-10 1.1-9.9 1.6-9.7 2.3-9.6 2.8-9.4 3.5-4.4 2-4.3 2.4v-259.5h261v208.7z"/>
	<path id="Path 3" class="s2" d="m1190.7 649.7l-0.1 0.9-0.5 0.9-1.4 1.6-3.6 4.2-7.5 8.9-7 9.3-6.6 9.6-5 7.8-5.6 7.3-6.2 6.9-6.7 6.4-7.2 5.9-7.6 5.3-8.1 4.7-8.3 4-8.7 3.3-8.8 2.7-9.5 2.5-9.3 3.2-9.1 3.7-8.8 4.3-8.5 4.8-7.1 4-7.3 3.7-5.8 2.9-5.6 3.3-4.2 2.9-3.7 3.5-1.1 1.3h0.2l3.5-0.1 2.6-0.1 4.5-0.7 4.4-1.2 4.2-1.9 3.8-2.5 8.1-5.3 8.5-4.6 8.8-3.9 9.2-3.1 9.3-2.4 9.5-1.7 9.7-0.8h9.6l6.1-0.1 6.1-0.6 5.9-1.3 16.3-3.9 12.6-2.9 12.3-3.5 1.3-0.4 1-0.2 0.5 0.3 0.2 0.6-0.2 0.6-0.5 1.1-1.6 3.1-1.8 3-4.5 5.9-4.8 5.8-5.1 5.4-6.3 6.2-6.7 5.6-7.2 5-7.6 4.4-7.9 3.7-8.3 3.1-8.4 2.4-8.6 1.7-8.7 0.9-8.8 0.2-8.7-0.5-8.7-1.2-8.6-2-8.3-2.7-8.4-3-8.7-2.3-8.8-1.6-11.9-0.5-12-0.1-11.9 0.4-12 0.9-3.6 0.3-5.5 0.4-2.7 0.5-2.6 0.8-2.9 1.5-2.5 2.1-1.3 1.6-1.1 1.8-0.7 2 0.1 0.8 0.4 0.7 0.9 0.5 2.6 0.6 2.7 0.3h6l5.9-0.6 11.1-1.3 11-1.6 8.8-1.2 8.9-0.5 8.8 0.2 8.9 0.9 8.7 1.6 8.6 2.2 8.4 2.8 8.1 3.6 7.9 4.1 7.5 4.7 7.1 5.3 9 7.2 9.3 6.6 9.8 5.9 10.2 5.2 4.4 2 4.2 2.3 3.9 2.8-0.3 0.5-0.9 0.6-1.1 0.4-1.5 0.4-8 2.1-8.1 1.5-8.2 1.1-8.2 0.5-8.6 0.1-8.6-0.6-5.5-1.2-5.3-1.9-4.8-1.8-1.8-0.4-1.8-0.1h-1.1l1.6 1.9 1.8 1.4 2 1.3 6.1 3.5 9.6 5.7 3.3 2 0.5 0.3 0.3 0.3 0.3 0.4-0.1 0.3-0.5 0.4-0.6 0.2-3.3 0.6-3.1 0.9-7.2 1.5-7.2 0.9-7.2 0.3-7.3-0.3-7.2-0.9-7.1-1.4-7-2.1-6.7-2.4-6.6-2.9-6.3-3.4-5.9-4-5.7-4.4-7.3-6.9-7.1-7.2-6.6-7.5-7-8-1.9-2-5.9-6.3-3.1-2.8-3.5-2.3-3.2-1.4-3.3-0.8-1.5 0.1-1.4 0.6-1 0.9-0.8 1.1-1.4 2.5-5 9.3-5.4 9.1-5.9 8.8-4.3 6.4-4.2 6.5-3.8 6.1-0.1 0.7 0.5 0.5h0.7l4.6-1.8 4.8-1.3 4.8-0.7 5-0.2 4.9 0.4 8.4 1.2 8.3 2 8.1 2.5 7.8 3.2 7.6 3.9 13.5 8.1 7.5 4.8 3.2 2.5 2.8 2.9 0.8 0.9-0.1 0.5-0.7 0.9-0.5 0.5-3.4 2.3-2.7 1.3-2.8 0.8-2.9 0.4-4.4-0.1-4.3-0.6-5.5-0.7h-1l-1 0.4-0.7 0.6-0.5 1v0.9l0.2 0.8 1 1.4 1.4 1 1.4 0.9 4.8 2.2 5.7 2.7 5.6 3 5.3 3.5 6 3.8 2.8 1.9 1.2 1.1 1 1.3 0.8 1.8-0.2 0.1-4.6 2.6-5 1.9-8.2 2.1-8.4 1.4-8.4 0.6h-8.4l-9.8-0.8-9.7-1.5-9.6-2.2-9.3-3-9.1-3.8-8.7-4.4-8.4-5.2-7.9-5-8-4.8v-171.5l2.8-6.2 2.3-4.4 2.7-4.1 3.2-3.8 2-2.1 1.2-1.2 1.2-0.8 0.7-0.1 0.7 0.1 0.7 0.4 0.3 0.5v0.8l-0.4 1.6-0.4 3.2 0.1 3.1 0.2 3.2-0.4 3.3-0.5 2.4 0.2 2.1 0.3 0.8 0.5 0.7 0.6 0.2 0.7 0.1 0.7-0.3 0.7-0.4 2.4-2.9 1.7-3.4 0.9-3.6 0.2-3.7-0.6-3.7-0.2-0.9v-0.3l0.2-0.3 0.2-0.2h0.3l0.4 0.1 0.5 0.3 0.6 0.6 1.4 2.5 1.9 3.5 2.5 4.9 2 5 1.7 5.1 1.1 5.3 1.4 5.5 0.9 2.2 1.4 2.1 0.6 0.6 0.8 0.2 0.7-0.3 0.5-0.5 2.6-3.6 2.2-3.6 1.1-1.9 2.5-4.5 2-4.8 1.2-5 0.7-5.2-0.1-9.6-0.9-9.6-0.5-6-0.2-6-0.1-4-0.3-4-0.4-2.2-0.7-1.5-1.2-1-1.5-0.6-2.2-1.2-1-1.2-0.6-1.4-0.3-2.2 0.2-2.1 0.8-2.1 1-1.9 1.4-1.6 1.7-1.3 2.2-1.1 2.4-0.4 2.4 0.3 2.4 1 2 1.6 1.6 2 1 2.4 0.3 2.6-0.4 2.5-1 2.4-1.6 2-2.1 1.6-1 0.5-0.8 0.7-0.5 0.8-0.3 0.9-0.5 3-0.1 3 0.1 5.4 0.5 5.4 0.9 9.4 0.6 9.3v2.2l-0.3 2.1-0.3 1.8-0.1 1.3v0.4 0.2l0.1 0.1h0.1 0.2l0.1-0.1 0.3-0.4 0.2-0.4 1.8-2.3 3.5-4.3 3.1-4.6 5.2-7.5 12.9-16.6 4.7-6.2 5.1-5.8 2.7-2.9 1.1-1.5 0.8-1.8 0.5-1.9 0.1-2.1-0.3-2-0.6-1.7-0.9-1.6-2.6-3.2-2.9-2.9-3.9-4.1-3.6-4.3-4.2-4.7-4.7-4.2-5.2-3.5-5.5-2.9-4.1-1.9-3.9-2.3-1.6-1.1-1.7-0.7-1.1-0.1-1 0.2-1.1 0.6-0.9 1-0.8 1.1-1.2 1.5-1.6 1.2-1.8 0.8-1.9 0.4-2.3-0.3-2.1-0.9-3.5-2.6-1.6-1.2-1.5-1.5-0.9-1.8-0.5-2 0.1-2 0.6-1.9 1.2-1.7 1.1-1.3 2.1-1.7 2.5-1 2.7-0.5 2.7 0.3 2.5 1 2.2 1.6 1.8 2.1 3.3 4.1 4 3.5 4.4 2.9 4.7 2.3 6 2.6 5.6 3.3 5.1 3.9 4.6 4.6 4.1 5 2.3 3.4 1.2 1.3 1.2 1.1 1.6 1 0.1-2.2 0.1-4.6-0.9-15.7-0.8-5.2-1.2-3.6-1.9-3.4-1.6-1.8-1.8-1.6-2-1.3-3.7-1.4-3.8-1.1-6.5-1.9-6.3-2.5-5.9-3.2-5.6-3.9-3.2-2.2-3.5-1.8-3.8-1.4-5-1.9-4.6-2.5-4.3-3.2-3.9-3.7-3.2-4.2-3-4.7-2.5-5-2-5.3-2.2-7.9-1.6-8.1-1.1-5.6-0.8-5.6-0.3-5.6v-1.9-0.7-0.2l0.2-0.6 0.3-0.6 0.7 0.5 0.2 0.2 0.6 0.8 1.6 1.6 2.9 3.3 2.8 3.4 4.7 5.4 4.9 5.2 5.4 4.5 5.6 4.1 6 3.7 6.2 3.3 6.7 3.5 6.3 4 6.1 4.5 5.7 4.9 5.3 5.3 3.8 5.1 3.2 5.5 2.7 5.7 2.1 6 1.5 6.2 1.4 6.2 1.9 6.1 1.2 3.4 0.8 3.5 0.1-4.2 0.6-4.3 0.4-4.4 0.1-4.3-0.4-4.4-0.1-1.2-1.3-6.5-1.9-6.3-2.6-6.1-3.3-5.8-3.8-5.4-4.4-4.9-4.9-4.5-5.3-3.9-5.8-3.3-6.1-3.7-5.9-4.2-5.5-4.7-5.1-5.1-4.8-5.4-0.2-0.3-4.9-6.3-4.3-6.6-3.8-6.9-3.3-7.2-2.8-7.4-2.1-7.6-2-7.9-0.3-1.4-0.1-0.3 0.1-0.1v-0.1h0.1 0.1l0.3 0.2 0.1 0.1 0.3 0.4 1.3 1 2.5 1.2 5.2 2.7 4.9 3.2 4.4 2.8 4.8 2.1 5 1.4 5.2 0.6 4.5 0.5 4.5 1.1 4.1 1.9 3.8 2.5 5.2 4.5 4.7 5 4.2 5.5 3.6 5.9 3 6.1 2.4 6.5 1.6 6.7 1 6.8 0.6 5.2 0.9 5.2 1.2 5.1 1 3.6 0.6 3.6v0.5l0.1 0.1v-0.1l0.1-0.2 0.1-0.4 0.3-2 0.1-1.2 0.5-6.7 0.2-6.8-0.3-6.7-0.3-6.4v-6.5-5.7l-0.4-5.6-1-5.6-1.5-4-2-3.7-1.6-2.7-2.8-4.7-3.4-4.3-3.8-3.9-4.2-3.5-4.5-3-4.9-2.5-7.5-3.8-7.1-4.4-6.7-5.1-6.2-5.7-5.6-6.1-5.1-6.7-4.5-7.1-3.8-7.5-3.1-7.8-2.4-8-1.6-8.2-1-8.4-0.6-4.7-1.4-4.5-0.8-2.1-0.2-1 0.1-0.8 0.4-0.4 0.5 0.1 0.4 0.3 0.4 0.4 1.6 1.4 5 4.7 4.6 5.2 3.2 3.6 3.3 3.4 3.1 2.5 3.3 2.1 2.8 1.2 3 0.7 3 0.3 2.8 0.3 2.4 0.8 1.7 1.2 3.8 3.2 5.9 6 5.5 6.5 4.9 6.9 4.5 7.2 3.9 7.5 3.4 7.7 0.6 1.3 2.2 5.1 1.8 5.3 1.5 5.4 0.5 2.1 0.7 2 1 1.5 0.4 0.3 0.1 0.1 0.2 0.1 0.2 0.1 0.1-0.1v-0.2-0.2l-0.4-1.2-1.2-5.5-0.7-5.6-1.3-9.3-1.9-9.2-1.3-4.6-1.8-4.5-2.2-4.3-2.6-4h-0.1l-8.3-11.4-8.6-11.2-5-6.3-4.7-6.5-2.9-4-3.2-3.7-3.6-3.3-3.9-2.9-4.2-3.2-3.8-3.6-3.5-3.9-3.1-4.3-3.3-4.6-3.7-6.2-3.1-6.5-2.4-6.7-1.7-7-1-7.2-0.2-7.2 0.5-7.1 1.3-7.1 2-10.1 1.4-10.1 0.6-10.2 0.2-4.9 0.7-4.9 1.8 2 1.4 2.3 2.3 4.8 1.7 5 1.5 6.2 1.2 6.4 1.8 8.4 2.3 8.4 3 8.1 3.5 7.9 3.1 7.9 2.6 8 1.9 8.1 1.5 8.3 0.8 8.4 0.2 8.4 0.1 3 0.4 2.9 0.7 2.1 1 1.9 4.1 6.1 4.5 5.8 4.8 5.5 6.1 7.1 5.5 7.5 2.1 3.1 2.4 2.9 2.7 2.7-0.2-2.3-0.2-3.5-1.4-5.4-0.7-2.2-1.1-2.8-1.7-2.5-6.3-7-5.7-7.5-5.2-7.9-4.5-8.3-2.4-7-1.8-7.2-1-7.4-0.3-7.4v-17.7l0.5-17.6 0.2-13.7-0.1-0.8 0.1-0.7 0.3-0.6 0.5-0.2 0.6 0.2 0.5 0.3 1.2 1.1 1 1.2 0.7 1.4 0.6 1.5 1 3.8 1.8 6.3 2.3 6.1 2.9 6 3.5 7.6 3 7.9 1.7 5 2.3 4.7 2.7 4.5 1.5 2 1.2 2.2 0.8 2.6v0.2-0.1l0.1-0.1v-0.3l0.1-1.3 0.4-4.3 0.1-5.3-0.5-5.2-1.1-5.1-1.7-5-2.2-4.8-3.1-7.3-2.5-7.5-1.9-7.7-1.1-7.9-0.5-7.9 0.2-7.9 0.8-7.9 1.2-8.4 1-8.4 1.2-9.8 1-4.7 1.6-4.6 1.8-3.4 2.2-3.2 2.4-3 3.6-4.7 0.8-0.7 1.1-0.1 1 0.4 0.7 0.9 0.1 0.4 3.2 11 2.6 11.1 1.8 11.3 1.1 11.4 0.3 11.4-0.3 11.5-1.1 11.4-1.8 11.3-2.6 11.1-3.2 11-1.9 7.1-1.4 7.2-0.8 7.3-0.4 7.3 0.5 16.2v9l0.3 11 1 11.1 1.7 10.9 2.4 10.9 2.9 11.5 2.1 11.7 1.5 11.9 0.8 11.9 0.7 5.8 1.3 5.7-0.5-3.6v-3.6l0.5-3.6 1.6-9.9 1.9-9.8 2.1-10 1.5-10.1 0.8-10.2-0.7-6.7-1.4-6.6-2.2-6.4-2.9-6.1-2.8-6.1-2.1-6.4-1.5-6.5-0.7-6.6-0.1-6.7 0.7-6.7 2-8.3 2.6-8.2 3.5-7.8 4.1-7.5 3.3-6.2 2.8-6.5 2.3-6.6 1.7-5.5 2.3-5.2 2.7-5.1 2.3-4.3 1.6-4.6 0.9-4.9 0.3-3.5 0.9-3.5 1.7 1.8 1.6 2.5 1.3 2.7 1.8 6 1.3 6.2 2 10.3 1.3 10.5 0.7 10.5-0.1 10.6-0.8 10.5-1.4 10.4-2.2 10.4-2.9 10.1-3.5 10-4.2 9.6-5.2 11.2-4.5 11.4-3.8 11.7-3.1 11.9-2.3 12-1.6 12.2-0.8 12.3-0.1 12.3 0.6 12.2 0.6 10.1 0.3 10 0.1 9.6 0.1 1 0.2 0.5 0.2 0.2v0.1h0.2v-0.1l0.1-0.2 0.1-0.9 1.2-4.5 1.9-4.3 2.2-5.8 1.8-5.9 1.2-6 2.1-10.6 1.6-8.5 1-8.7 0.5-8.6v-5.8-3l-0.6-8.6-0.2-9.5 0.6-9.4 1.4-9.4 2.1-9.2 2.9-9 3.7-8.7 4.4-8.4 5.8-12.5 5.3-12.8 4.8-12.9 4.2-13.2 3.6-13.3 1.1-5.8 0.4-5.8 0.3-1.7 0.4 0.2 0.3 0.2 0.7 0.8 0.8 2.2 2 7.3 3 11.9 2.5 12.2 1.8 12.2 1.3 12.3 0.7 12.3 0.1 7.5-0.6 7.5-1.3 7.4-2 7.2-2.7 7-3.3 6.6-4 6.4-4.6 5.9-6.9 8.2-6.4 8.6-5.9 8.9-5.4 9.2-4.9 9.5-3 7.2-2.2 7.4-1.6 7.6-2 8.9-2.5 8.7-2.4 8.1-2 8.2-2.1 8.5-2.6 8.4-0.9 3.3-0.1 1.7 0.3 1.5 0.6 1.2 1 0.7h1.2l1.3-0.6 1.1-0.9 1.9-2.6 1.6-2.6 2.2-4 1.6-4.3 0.9-4.6 0.2-4.6-0.1-3.9 0.5-3.8 0.6-2.1 1.1-1.8 1.4-1.6 1.9-1.2 2.2-0.8 2.3-0.2 3.2 0.2 3 1 2.8 1.6 2 2.1 1.5 2.6 0.7 2.9v2.7l-0.5 2.6-0.8 2.5-1.6 2.6-2.1 2.1-2.6 1.6-2.8 1-3 0.3-3.5 0.3-2.3 0.7-1.6 1.2-1.2 1.5-2.6 4.1-3 5-2.2 4.2-1.5 4.5-0.9 4.6-0.2 4.7-0.1 12.1-0.6 12.1-1.1 12.1-0.3 3.5 0.1 1.7 0.4 1.7 0.5 1.1 0.7-0.3 0.5-0.6 0.3-0.8 3.3-7.3 4-7 4.7-6.5 5.2-6.1 5.9-5.9 6.3-5.4 6.5-5.1 6.9-4.6 7.2-4.1 10-6.2 9.8-6.5 13.7-9 6.4-4.1 6-4.7 5.5-5.3 3-3.1 3.4-2.8 0.3 0.7 0.3 1 0.1 1.1-0.2 2.3-0.1 0.8-1.7 9.3-2.3 9.1-3.1 8.9-3.7 8.7-4.5 8.3-5 7.9-5.7 7.5-7.9 8.9-8.3 8.4-8.8 8-9.2 7.4-9.7 6.8-10 6.4-10.4 5.7-10.6 5.1-11 4.6-11.2 3.9-1.3 0.5-0.6 0.4-0.3 0.5-0.1 0.7v0.6 2.2l-0.4 2.3-0.7 5.9-0.3 5.9-0.7 10.3-1.4 10.2-2.3 10-2.9 9.9-3.8 9.6-4.4 9.3-5.2 8.9-4 5.4-4.7 5-5.1 4.3-5.7 3.8-6 3.2-4.2 2.2-4 2.7-3.7 3.2-3.2 3.6-2.8 4-3.9 6.5-3.3 6.8-2.8 7.1-2.2 7.3-1.6 7.4-0.4 5.2 0.2 5.1 0.5 1.6 1 0.8 1.4 0.2 1.7-0.5 1.4-1.2 1.2-1.6 0.9-1.8 3.8-5.9 4.5-5.5 5.8-7.2 5.4-7.5 4.9-7.8 4.3-8.2 5-9.7 1.9-3.6 1.6-3.7 1.2-2.9 1.5-2.6 1.5-1.6 1.8-1.2 3.6-2 3.8-1.7 4.3-2.5 4-3.2 3.3-3.8 2.8-4.2 4.6-8.4 5.3-8.1 5.8-7.7 6.3-7.3 6.8-6.8 7.2-6.4 7.7-5.8 8.1-5.2 8.4-4.7 8.8-4 9-3.5 7.6-2.3 7.4-2.8 7.3-3.2 10.6-5.9 4.3-2.4 4.4-2 4.5-2 1.1-0.6 0.4-0.2 0.4-0.2 1.3-0.1 0.1 1.1-0.7 3.9-2 6.9-2.7 6.6-4.2 7.2-4.6 7-5.1 6.5-5.5 6.3-6 5.8-7.8 7.1-8.2 6.6-8.6 6.1-9 5.5-9.3 4.9-9.6 4.3-9.9 3.7-10.1 3-10.3 2.4-5.1 1.1-5 1.7-2.7 1.4-0.5 0.4-0.1 0.4 0.3 0.4 0.4 0.1h0.5l6.1 0.4 7.8 0.1 7.7-0.6 7.6-1.3 7.5-1.9 7.3-2.6 7-3.3 6.7-3.9 14.1-8.1 14.3-7.7 5-2.9 4.7-3.4 4.3-3.9 3.9-4.3 3.4-4.7 2.9-5 4.3-7.8 4.9-7.5 5.4-7.2 5.9-6.7 6.3-6.4 6.8-5.9 7.2-5.4 7.5-4.9 10-5.6 10.3-5 10.6-4.4 10.8-3.9 11.1-3.3 10.1-3 1.2-0.3h0.5l0.5 0.1 0.4 0.3zm-138.4-126.7l6.6-8.6 7.1-8.1 7.8-7.6 8.3-6.9 8.8-6.4 2.2-1.5 2.1-1.6 1.3-1.5 1-1.8 0.4-0.8 0.2-0.2 0.1-0.1h0.1l0.1 0.1 0.1 0.1 0.1 0.2 0.1 0.4v0.4 0.8l-0.3 5.2-0.6 9.5-1.4 9.3-1.9 9.3-2.5 9.2-3.2 8.9-3.7 8.7-3.6 7.4-4.1 7.1-4.8 6.7-5.2 6.3-5.8 5.9-6.2 5.3-6.7 4.8-7 4.3-7.4 3.6-7.6 3.1-1 0.2-0.9-0.2-0.3-0.5v-0.5l0.4-1.1 1.6-4.9 1.1-5 2.2-10.6 3.1-10.4 3.8-10.1 4.5-9.8 5.2-9.5zm45.3 0.7l1.3-2.6 1.8-2.2 2.4-1.6 2.7-1 2.8-0.2 2.8 0.5 2.6 1.1 2.2 1.8 1.7 2.3 1 2.7 0.3 2.8-0.4 2.9-1.1 2.6-1.7 2.2-2.3 1.7-2.6 1.1-2.9 0.4-2.8-0.3-2.6-1.1-2.3-1.7-1.8-2.2-1-2.2-0.5-2.3-0.1-2.4zm-185.9 402.7l0.4 3.3-0.4 3.2-1.2 3-1.8 2.7-2.4 2.1-2.8 1.6-3.1 0.8-3.3 0.1-3.1-0.7-3-1.4-2.5-2-1.9-2.6-1.3-2.9-0.6-3.2 0.2-3.3 0.9-3.1 1.7-2.7 2.2-2.4 2.3-1.5 2.6-1 2.8-0.5 3.2 0.1 3.1 0.9 2.8 1.6 2.4 2.2 1.8 2.7zm68.6-78.1l0.8 2.2-0.8 0.4-1.8 0.2-2.2-0.3-2-0.2-3.3-0.9-3-1.4-2.8-2.1-2.3-2.5-1.7-2.9-1.2-3.2-0.5-3.3 0.1-3.4 0.1-1.4 0.2-1v-0.1-0.2l0.3-0.3 0.3-0.2h0.2l0.2 0.1 0.5 0.1 1.8 0.5 1.6 1.2 1.4 1.5 1.2 1.7 2.9 3.7 3.2 3.4 2.7 2.9 2.6 3.1zm-233.1 153l0.1 0.5-0.2 0.6-0.2 0.1-0.2 0.2-1.5 0.5-1.9 0.2-1.8-0.1h-3.9l-5.3-0.2-5.3-0.7-0.9-0.2h-0.8l-0.5 0.2-0.3 0.3-0.2 0.4v0.7l0.1 0.6 1.1 2 2.4 2.9 3.6 3.6 4 3.1 4.3 2.7 0.9 0.5 0.6 0.4 0.2 0.3v0.2l-0.1 0.1-0.3 0.2-0.7 0.1-7.6 0.6-7.6 0.4-13 0.3-13.1-0.1-13.1-0.7-11-0.6-4.8-0.2-4.9-0.6-3.3-0.9-3.2-1.4-2.7-1.2-3-0.7 0.3 0.4 0.9 0.9 1.3 0.9 2 1.4 1.9 1.8 1.3 1.8 0.9 2.2 0.2 1.3-0.2 1.4-0.4 1-0.7 0.9-1.8 1.5-3.2 3.1-1.6 1.7-1.8 1.5-1.4-2.1-3.1-4.2-3.5-3.8-4-3.3-3.1-2.6-2.8-3-1.2-1.3-1.5-1-1.8-0.5h-1.8l-5.6 0.3h-5.6l-10.7 0.2-10.8 0.8 2.6-4.6 3.1-4.4 3.7-3.9 4.1-3.4 4.5-2.9 4.8-2.3 9.9-3.6 10.2-2.9 10.3-2.1 10.5-1.3 10.5-0.6 10.6 0.3 52.8 1.4 2.7 1.2 1.3 1 1.1 1.2 4.6 6.5 3.1 3.4 1.2 1.1zm-154.5 10.7l2.6 4.7-10.8-0.8-10.8-0.2h-5.6l-5.6-0.4-1.8 0.1-1.7 0.5-1.6 0.9-1.2 1.4-2.7 3-3.1 2.5-4 3.4-3.6 3.8-3 4.2-1.4 2.1-1.9-1.5-1.6-1.7-3.1-3.1-1.8-1.6-0.7-0.9-0.5-1-0.1-1.3 0.2-1.4 0.9-2.1 1.3-1.9 1.8-1.7 2.1-1.5 1.3-0.8 0.9-0.9 0.3-0.5-3 0.7-2.7 1.3-3.2 1.3-3.4 1-4.8 0.6-4.8 0.2-11 0.6-13.1 0.6-13.1 0.2-13.1-0.4-7.5-0.3-7.6-0.7-0.7-0.1-0.3-0.1-0.1-0.1v-0.3l0.2-0.2 0.6-0.5 0.9-0.5 4.3-2.6 4-3.2 3.6-3.5 2.3-3 1.1-1.9 0.2-0.6v-0.7l-0.2-0.4-0.3-0.4-0.5-0.2h-0.8l-1 0.2-5.2 0.8-5.4 0.1-3.8 0.1h-1.9l-1.8-0.2-1.5-0.5-0.2-0.2-0.2-0.1-0.3-0.5 0.1-0.5 0.4-0.6 1.1-1.1 3.1-3.3 4.6-6.5 1.2-1.2 1.3-1 2.6-1.3 52.9-1.4 10.5-0.2 10.6 0.6 10.4 1.3 10.4 2.1 10.1 2.8 10 3.7 4.8 2.3 4.5 2.9 4.1 3.4 3.6 3.9zm-285.4-290.3l2.9 6.2v171.5l-8.1 4.7-7.9 5.1-8.3 5.1-8.8 4.5-9 3.7-9.4 3-9.5 2.3-9.7 1.5-9.8 0.7-8.4 0.1-8.5-0.6-8.3-1.4-8.2-2.1-5-1.9-4.7-2.6-0.1-0.1 0.8-1.8 1-1.3 1.1-1.1 2.9-1.9 6-3.9 5.3-3.4 5.5-3 5.7-2.7 4.9-2.2 1.4-0.9 1.4-1.1 1-1.3 0.2-0.9-0.1-0.9-0.4-0.9-0.8-0.7-0.9-0.3h-1l-5.6 0.7-4.3 0.5-4.3 0.2-2.9-0.4-2.8-0.9-2.7-1.2-3.4-2.4-0.5-0.5-0.7-0.8-0.2-0.5 0.8-1 2.9-2.8 3.2-2.6 7.5-4.7 13.4-8.2 7.6-3.8 7.9-3.2 8.1-2.6 8.3-1.9 8.4-1.3 4.9-0.3 4.9 0.2 4.9 0.7 4.8 1.3 4.6 1.8h0.7l0.5-0.5-0.1-0.8-3.8-6-4.2-6.5-4.4-6.4-5.8-8.8-5.5-9.1-4.9-9.3-1.4-2.6-0.8-1.1-1-0.9-1.4-0.5-1.5-0.1-3.4 0.7-3.1 1.5-3.5 2.3-3.2 2.7-5.9 6.3-1.8 2.1-7 8-6.7 7.5-7 7.2-7.4 6.8-5.6 4.5-6 3.9-6.2 3.5-6.6 2.9-6.7 2.4-7 2-7.1 1.5-7.2 0.9-7.3 0.3-7.3-0.3-7.2-0.9-7.1-1.5-3.2-0.9-3.2-0.7-0.7-0.1-0.5-0.4v-0.4l0.2-0.3 0.4-0.3 0.5-0.3 3.3-2 9.6-5.7 6.1-3.6 1.9-1.2 1.8-1.5 1.7-1.9h-1.1l-1.8 0.2-1.8 0.4-4.9 1.8-5.3 1.9-5.5 1.2-8.5 0.6-8.6-0.1-8.3-0.5-8.2-1.1-8.1-1.6-8-2-1.4-0.4-1.1-0.4-0.9-0.7-0.4-0.5 4-2.7 4.2-2.3 4.3-2 10.2-5.2 9.8-6 9.4-6.5 8.9-7.3 7.2-5.2 7.5-4.8 7.8-4.1 8.2-3.5 8.4-2.9 8.6-2.2 8.7-1.5 8.8-0.9 8.9-0.2 8.9 0.5 8.8 1.2 11 1.6 11.1 1.3 5.9 0.6h5.9l2.7-0.3 2.7-0.7 0.8-0.4 0.5-0.7 0.1-0.9-0.7-1.9-1.1-1.8-1.3-1.6-2.5-2.1-2.9-1.5-2.6-0.8-2.7-0.5-5.5-0.5-3.7-0.2-11.9-0.9-11.9-0.4h-12l-11.9 0.6-8.8 1.6-8.7 2.3-8.4 3-8.4 2.7-8.5 1.9-8.7 1.3-8.7 0.5-8.8-0.2-8.7-1-8.6-1.6-8.5-2.4-8.2-3.1-7.9-3.7-7.6-4.5-7.2-5-6.7-5.6-6.3-6.1-5.1-5.5-4.8-5.7-4.5-6-1.8-3-1.6-3-0.5-1.1-0.2-0.6 0.1-0.6 0.6-0.3 1 0.2 1.2 0.4 12.4 3.5 12.5 2.9 16.3 3.8 6 1.3 6.1 0.7h6l9.7 0.1 9.6 0.8 9.6 1.6 9.3 2.4 9.1 3.2 8.9 3.9 8.5 4.6 8.1 5.3 3.8 2.4 4.2 1.9 4.3 1.3 4.5 0.7 2.7 0.1 3.5 0.1h0.2l-1.2-1.3-3.7-3.5-4.1-3-5.6-3.2-5.8-2.9-7.3-3.7-7.1-4-8.6-4.9-8.8-4.2-9-3.8-9.3-3.1-9.5-2.5-8.9-2.7-8.6-3.4-8.4-4-8-4.6-7.6-5.3-7.2-5.9-6.7-6.4-6.2-6.9-5.6-7.4-5-7.8-6.6-9.5-7.1-9.3-7.4-8.9-3.7-4.3-1.3-1.6-0.5-0.8-0.2-0.9 0.3-0.5 0.3-0.3 0.5-0.1 0.6 0.1 1.1 0.3 10.2 3 11 3.2 10.8 3.9 10.6 4.5 10.3 5 10.1 5.6 7.5 4.9 7.2 5.4 6.7 5.9 6.4 6.3 5.9 6.8 5.4 7.1 4.9 7.6 4.3 7.8 2.9 5 3.4 4.7 3.9 4.3 4.3 3.9 4.7 3.4 5 2.9 14.3 7.7 14.1 8.1 6.7 3.9 7 3.2 7.3 2.7 7.5 1.9 7.6 1.3 7.7 0.5 7.7-0.1 6.2-0.3h0.5l0.4-0.1 0.3-0.4-0.1-0.5-0.5-0.4-2.7-1.3-5-1.7-5.2-1.1-10.2-2.4-10.1-3-9.9-3.7-9.6-4.3-9.4-4.9-8.9-5.5-8.7-6.1-8.2-6.6-7.7-7.1-6-5.9-5.5-6.2-5.1-6.6-4.7-6.9-4.1-7.3-2.7-6.6-2-6.8-0.8-3.9 0.2-1.1 1.3 0.1 0.4 0.1 0.4 0.2 1.1 0.6 4.4 2 4.5 2.1 4.3 2.4 10.6 5.9 7.3 3.2 7.4 2.8 7.6 2.3 9 3.4 8.7 4.1 8.5 4.7 8.1 5.2 7.6 5.8 7.3 6.3 6.8 6.8 6.3 7.3 5.8 7.7 5.2 8.1 4.7 8.5 2.7 4.2 3.4 3.8 3.9 3.1 4.4 2.6 3.8 1.7 3.6 1.9 1.8 1.3 1.5 1.6 1.5 2.6 1.2 2.8 1.6 3.7 1.9 3.6 5 9.8 4.3 8.2 4.9 7.8 5.3 7.5 5.9 7.2 4.4 5.4 3.8 6 1 1.7 1.2 1.7 1.4 1.2 1.7 0.5 1.4-0.2 1-0.9 0.5-1.5 0.2-5.2-0.5-5.1-1.6-7.4-2.1-7.3-2.8-7.1-3.4-6.8-3.9-6.6-2.7-3.9-3.2-3.6-3.7-3.2-4-2.7-4.3-2.3-6-3.1-5.6-3.8-5.2-4.4-4.6-4.9-4.1-5.4-5.1-8.9-4.5-9.3-3.7-9.6-3-9.9-2.2-10.1-1.4-10.2-0.7-10.3-0.3-5.9-0.8-5.9-0.3-2.2v-2.3-0.5l-0.1-0.7-0.4-0.5-0.5-0.4-1.4-0.6-11.1-3.9-11-4.5-10.7-5.1-10.3-5.8-10-6.3-9.7-6.9-9.2-7.4-8.8-7.9-8.4-8.4-7.8-8.9-5.7-7.5-5.1-8-4.4-8.3-3.7-8.6-3.1-8.9-2.4-9.1-1.6-9.3-0.1-0.9-0.2-2.2 0.1-1.1 0.3-1.1 0.3-0.7 3.4 2.8 3 3.2 5.5 5.3 5.9 4.7 6.4 4 13.8 9.1 9.8 6.5 10 6.1 7.2 4.2 6.8 4.6 6.6 5.1 6.3 5.4 5.8 5.9 5.3 6 4.7 6.6 4 6.9 3.3 7.3 0.3 0.8 0.5 0.7 0.7 0.3 0.5-1.1 0.4-1.7 0.1-1.7-0.3-3.6-1.1-12.1-0.7-12.1-0.1-12.1-0.2-4.7-0.9-4.6-1.5-4.4-2.1-4.2-3.1-5-2.5-4.1-1.2-1.5-1.6-1.2-2.3-0.8-3.5-0.2-3-0.3-2.8-1-2.6-1.6-2.1-2.1-1.6-2.6-0.9-2.5-0.4-2.7v-2.6l0.7-2.9 1.4-2.6 2.1-2.1 2.7-1.6 3.1-1 3.1-0.3 2.3 0.3 2.2 0.7 2 1.3 1.4 1.6 1.1 1.8 0.6 2 0.5 3.9-0.1 3.9 0.2 4.6 0.9 4.5 1.6 4.4 2.2 4 1.6 2.5 1.8 2.7 1.1 0.9 1.4 0.5h1.1l1.1-0.7 0.6-1.1 0.3-1.6-0.1-1.6-1-3.3-2.5-8.4-2.1-8.5-2.1-8.2-2.4-8.1-2.5-8.8-1.9-8.9-1.6-7.5-2.3-7.4-2.9-7.2-4.9-9.5-5.4-9.3-5.9-8.9-6.4-8.6-6.9-8.2-4.6-5.9-4-6.3-3.4-6.7-2.7-7-2-7.2-1.3-7.3-0.6-7.5 0.2-7.5 0.7-12.3 1.2-12.3 1.9-12.3 2.5-12.1 3-12 2-7.2 0.8-2.2 0.7-0.9 0.2-0.1 0.4-0.2 0.4 1.6 0.3 5.9 1.1 5.8 3.7 13.3 4.2 13.1 4.8 13 5.3 12.7 5.8 12.5 4.4 8.4 3.6 8.8 3 9 2.1 9.2 1.4 9.3 0.6 9.5-0.2 9.4-0.6 8.7v8.7l0.5 8.7 1 8.6 1.6 8.6 2.1 10.5 1.2 6.1 1.7 5.9 2.3 5.7 1.8 4.3 1.2 4.6 0.2 0.8 0.1 0.3h0.1 0.1l0.2-0.3 0.1-0.4 0.1-1 0.2-9.6 0.2-10.1 0.6-10 0.7-12.3-0.1-12.3-0.8-12.2-1.6-12.2-2.4-12.1-3-11.9-3.8-11.6-4.6-11.5-5.2-11.1-4.2-9.7-3.5-9.9-2.8-10.2-2.2-10.3-1.5-10.4-0.7-10.6-0.1-10.5 0.6-10.6 1.4-10.4 2-10.4 1.3-6.1 1.8-6 1.3-2.8 1.6-2.5 1.7-1.8 0.8 3.5 0.4 3.6 0.9 4.8 1.6 4.7 2.3 4.3 2.7 5 2.3 5.3 1.7 5.4 2.3 6.7 2.8 6.4 3.3 6.2 4.1 7.5 3.4 7.9 2.7 8.1 2 8.4 0.6 6.6v6.7l-0.7 6.7-1.5 6.5-2.1 6.4-2.8 6-2.9 6.1-2.2 6.4-1.4 6.7-0.7 6.7 0.8 10.2 1.5 10.1 2.1 10 1.9 9.8 1.6 9.8 0.5 3.6-0.1 3.7-0.5 3.6 1.4-5.7 0.7-5.9 0.8-11.9 1.4-11.8 2.2-11.7 2.8-11.6 2.4-10.8 1.8-11 1-11 0.3-11.1v-8.9l0.4-16.2-0.3-7.4-0.9-7.2-1.3-7.2-1.9-7.1-3.3-11-2.5-11.2-1.8-11.3-1.1-11.4-0.4-11.4 0.4-11.4 1.1-11.4 1.8-11.3 2.6-11.2 3.2-10.9 0.1-0.4 0.6-0.9 1.1-0.5 1 0.2 0.9 0.7 3.6 4.6 2.4 3 2.1 3.3 1.8 3.4 1.6 4.5 1.1 4.7 1.2 9.9 1 8.4 1.1 8.3 0.9 7.9 0.2 7.9-0.5 8-1.2 7.8-1.8 7.7-2.5 7.6-3.1 7.3-2.2 4.7-1.7 5-1.1 5.2-0.5 5.2 0.1 5.2 0.4 4.3 0.1 1.3v0.4 0.1 0.1h0.1v-0.1-0.2l0.8-2.5 1.2-2.2 1.5-2 2.7-4.5 2.3-4.8 1.7-4.9 3-7.9 3.5-7.7 2.8-5.9 2.4-6.1 1.8-6.3 0.9-3.8 0.6-1.5 0.8-1.4 1-1.3 1.2-1 0.5-0.4 0.6-0.1 0.5 0.2 0.2 0.6 0.1 0.7v0.8l0.2 13.7 0.5 17.6v17.6l-0.3 7.5-1 7.3-1.8 7.3-2.4 7-4.6 8.3-5.1 7.9-5.7 7.5-6.4 7-1.7 2.5-1.1 2.7-0.6 2.3-1.4 5.4-0.2 3.4-0.3 2.3 2.8-2.6 2.4-2.9 2.1-3.1 5.5-7.5 6-7.2 4.9-5.5 4.5-5.8 4.1-6 0.9-2 0.7-2 0.5-3 0.1-2.9 0.2-8.4 0.8-8.4 1.4-8.3 2-8.2 2.6-8 3.1-7.8 3.5-7.9 2.9-8.2 2.4-8.3 1.8-8.5 1.2-6.3 1.5-6.2 1.7-5.1 2.3-4.7 1.4-2.3 1.8-2 0.7 4.8 0.1 4.9 0.7 10.3 1.3 10.1 2.1 10.1 1.2 7 0.6 7.2-0.3 7.2-0.9 7.1-1.7 7-2.4 6.8-3.1 6.5-3.8 6.1-3.3 4.7-3 4.3-3.5 3.9-3.8 3.6-4.2 3.2-3.9 2.9-3.6 3.3-3.2 3.7-2.9 3.9-4.7 6.5-5 6.4-8.6 11.2-8.4 11.3v0.1l-2.6 4-2.2 4.3-1.8 4.5-1.4 4.6-1.9 9.1-1.2 9.3-0.7 5.7-1.3 5.5-0.3 1.2-0.1 0.2v0.1l0.2 0.1h0.2l0.1-0.1 0.2-0.1 0.3-0.3 1-1.5 0.8-2.1 0.5-2 1.4-5.4 1.9-5.3 2.2-5.2 0.5-1.2 3.4-7.8 4-7.5 4.4-7.2 5-6.8 5.5-6.5 5.9-6.1 3.7-3.2 1.8-1.2 2.3-0.8 2.9-0.2 3-0.3 3-0.7 2.7-1.2 3.4-2.1 3.1-2.6 3.3-3.4 3.2-3.6 4.6-5.1 5-4.7 1.5-1.5 0.4-0.4 0.4-0.2 0.6-0.1 0.4 0.4 0.1 0.8-0.2 1-0.8 2.1-1.4 4.5-0.7 4.7-0.9 8.3-1.7 8.3-2.4 8-3.1 7.8-3.8 7.5-4.4 7.1-5.1 6.6-5.7 6.2-6.2 5.7-6.6 5-7.1 4.5-7.5 3.8-4.9 2.5-4.6 3-4.2 3.4-3.8 4-3.3 4.3-2.9 4.7-1.5 2.7-2 3.7-1.5 4-1 5.5-0.5 5.7 0.1 5.7v6.4l-0.3 6.5-0.3 6.7 0.2 6.7 0.5 6.8 0.1 1.2 0.3 1.9 0.1 0.5v0.2h0.1v0.1-0.1-0.1l0.1-0.4 0.5-3.7 1-3.5 1.3-5.1 0.9-5.2 0.5-5.2 1-6.8 1.7-6.7 2.4-6.5 2.9-6.2 3.6-5.8 4.2-5.5 4.7-5 5.2-4.5 3.9-2.5 4.1-1.9 4.4-1.2 4.6-0.4 5.2-0.6 5-1.4 4.8-2.1 4.4-2.8 4.8-3.3 5.3-2.6 2.5-1.2 1.3-1.1 0.2-0.3 0.2-0.1 0.3-0.2h0.1 0.1v0.2 0.2l-0.3 1.5-2 7.9-2.2 7.6-2.7 7.4-3.3 7.2-3.8 6.9-4.4 6.6-4.8 6.2-0.3 0.4-4.7 5.4-5.1 5.1-5.5 4.6-5.9 4.3-6.2 3.7-5.7 3.3-5.3 3.9-4.9 4.4-4.4 5-3.9 5.4-3.2 5.7-2.6 6.1-2 6.4-1.2 6.4-0.1 1.2-0.4 4.4 0.1 4.4 0.4 4.4 0.5 4.2 0.2 4.3 0.8-3.5 1.1-3.4 1.9-6.1 1.5-6.2 1.5-6.2 2.1-6 2.6-5.8 3.3-5.4 3.8-5.1 5.3-5.4 5.7-4.9 6-4.4 6.4-4 6.7-3.6 6.2-3.2 5.9-3.7 5.7-4.1 5.4-4.6 4.9-5.1 4.7-5.4 2.8-3.5 2.9-3.2 1.5-1.6 0.7-0.9 0.1-0.2 0.8-0.5 0.3 0.7 0.2 0.6v0.2 0.7 1.8l-0.4 5.7-0.7 5.6-1.1 5.6-1.7 8-2.1 8-2 5.2-2.5 5-3 4.8-3.3 4.2-3.8 3.7-4.3 3.2-4.7 2.5-4.9 1.9-3.8 1.3-3.5 1.8-3.3 2.3-5.5 3.8-5.9 3.3-6.3 2.5-6.5 1.9-3.8 1-3.7 1.5-2 1.3-1.9 1.5-1.5 1.9-1.9 3.3-1.2 3.6-0.9 5.2-0.8 15.7 0.1 4.7 0.1 2.2 1.5-1 1.3-1.2 1.1-1.2 2.4-3.4 4-5.1 4.7-4.5 5.1-4 5.6-3.3 5.9-2.6 4.8-2.2 4.4-3 3.9-3.5 3.4-4 1.7-2.1 2.2-1.6 2.6-1 2.7-0.3 2.7 0.4 2.5 1.1 2.1 1.7 1.1 1.3 1.2 1.6 0.6 2 0.1 2-0.5 2-1 1.8-1.4 1.4-1.6 1.3-3.5 2.5-2.1 0.9-2.3 0.3-1.9-0.3-1.9-0.8-1.5-1.2-1.2-1.5-0.8-1.2-1-0.9-1.1-0.6-1-0.2-1 0.1-1.7 0.7-1.6 1.1-3.9 2.3-4.1 1.9-5.6 2.8-5.1 3.6-4.8 4.1-4.1 4.7-3.6 4.4-4 4.1-2.8 2.8-2.6 3.2-0.9 1.7-0.6 1.7-0.4 2 0.1 2 0.5 2 0.9 1.7 1.1 1.6 2.7 2.9 5.1 5.8 4.7 6.1 12.8 16.6 5.3 7.6 3 4.6 3.5 4.2 1.9 2.3 0.2 0.5 0.3 0.3 0.1 0.2h0.1l0.2-0.1v-0.1l0.1-0.1v-0.5l-0.1-1.2-0.3-1.8-0.3-2.2-0.1-2.1 0.7-9.4 0.9-9.3 0.5-5.4 0.1-5.5-0.1-3-0.5-2.9-0.3-0.9-0.5-0.8-0.9-0.7-0.9-0.6-2.1-1.5-1.6-2-1-2.4-0.4-2.6 0.3-2.5 1-2.4 1.6-2.1 2-1.5 2.4-1 2.4-0.3 2.4 0.4 2.2 1 1.7 1.3 1.4 1.7 1 1.9 0.7 2 0.3 2.2-0.3 2.2-0.6 1.4-1.1 1.2-2.2 1.1-1.4 0.7-1.2 0.9-0.8 1.6-0.4 2.2-0.3 4v4l-0.2 6-0.6 5.9-0.8 9.6-0.1 9.7 0.6 5.1 1.3 5 1.9 4.8 2.5 4.6 1.1 1.8 2.3 3.7 2.6 3.5 0.5 0.6 0.7 0.3 0.8-0.3 0.6-0.6 1.4-2 0.9-2.3 1.3-5.4 1.2-5.3 1.6-5.2 2.1-5 2.4-4.8 2-3.5 1.4-2.5 0.6-0.7 0.4-0.3 0.5-0.1 0.2 0.1 0.3 0.2 0.1 0.2v0.4l-0.1 0.8-0.7 3.7 0.2 3.8 1 3.6 1.7 3.3 2.4 2.9 0.6 0.5 0.8 0.2h0.6l0.6-0.3 0.6-0.6 0.3-0.8 0.1-2.1-0.4-2.5-0.4-3.2 0.2-3.2 0.1-3.2-0.5-3.1-0.4-1.7 0.1-0.7 0.3-0.6 0.7-0.3 0.7-0.1 0.6 0.1 1.3 0.8 1.1 1.2 2.1 2.1 3.2 3.8 2.7 4.1zm-215.3-241.9v-0.8-0.4l0.1-0.4 0.1-0.2 0.1-0.1 0.1-0.1h0.1l0.1 0.1 0.2 0.2 0.5 0.8 1 1.8 1.3 1.5 2 1.6 2.3 1.5 8.7 6.4 8.3 6.9 7.8 7.6 7.1 8.1 6.6 8.6 5.9 9.1 5.2 9.5 4.6 9.8 3.7 10.1 3.1 10.4 2.2 10.6 1.1 5 1.6 4.9 0.4 1.1v0.5l-0.3 0.5-0.9 0.2-1-0.2-7.6-3.1-7.4-3.6-7-4.3-6.7-4.8-6.2-5.3-5.8-5.9-5.2-6.3-4.8-6.7-4.1-7.1-3.6-7.4-3.7-8.7-3.2-8.9-2.5-9.2-1.9-9.3-1.3-9.3-0.7-9.5zm120.1 371.2l-1.9-0.2-0.8-0.3 0.8-2.3 1.6-2.4 2.5-3 2.7-2.9 3.2-3.5 2.9-3.6 1.3-1.7 1.4-1.6 1.5-1.1 1.8-0.6 0.5-0.1h0.2 0.2l0.4 0.1 0.2 0.3v0.2 0.2l0.2 1 0.2 1.4 0.1 3.3-0.6 3.4-1.1 3.2-1.8 2.9-2.3 2.5-2.7 2-3.1 1.5-3.3 0.8-1.9 0.3zm-140.3-321l-0.4-2.8 0.3-2.8 1-2.7 1.7-2.3 2.2-1.8 2.6-1.2 2.8-0.4 2.9 0.2 2.7 1 2.3 1.6 1.8 2.2 1.3 2.5 0.5 2.4v2.4l-0.6 2.3-1 2.2-1.7 2.2-2.3 1.7-2.7 1-2.8 0.4-2.8-0.4-2.7-1.1-2.2-1.7-1.8-2.3zm234 397l0.1 3.2-0.5 3.2-1.3 3-2 2.5-2.5 2.1-2.9 1.4-3.2 0.7-3.2-0.1-3.1-0.9-2.9-1.5-2.4-2.2-1.8-2.6-1.2-3.1-0.4-3.2 0.4-3.2 1.1-3 1.8-2.7 2.3-2.2 2.8-1.6 3.1-0.9 3.3-0.2 2.7 0.5 2.6 1.1 2.3 1.5 2.3 2.3 1.6 2.8z"/>
	<path id="Path 4" class="s3" d="m771.5 825.6v-35.7m14 46v-46m14 56v-56m-104.3 46v-46m-14 56v-56m66.2 73.5v-73.5m-14.2 73.5v-73.5m-24 35.7v-35.7m38.2 0c1.4-3.3 3.9-5.8 7.2-7.2 6.6-2.7 14.2 0.5 16.9 7.2m-31.2-30.6c4.5-2.4 9.3-4 14.3-4.6 22.1-2.7 42.2 13.1 44.9 35.2m-59.2-13.4c3.9-4 8.9-6.7 14.3-7.8 14.4-2.7 28.2 6.8 30.9 21.2m-76.3 0c1.3-3.3 3.9-5.8 7.1-7.2 6.7-2.7 14.2 0.5 16.9 7.2m-52 0c0.6-5 2.1-9.8 4.5-14.3 10.6-19.6 35-26.9 54.6-16.3m-45.1 30.6c1-5.4 3.7-10.4 7.7-14.3 10.6-10.1 27.3-9.7 37.4 0.9"/>
	<path id="Path 5" class="s4" d="m658.5 394.6l-0.4 3.6v3.7l-0.1 3.7-0.5 3.5-1 3.5-1.4 3.4-1.5 3.1-1.9 3.7-1.1 1.5-1.4 1.3-1.5 0.7-0.3 0.1-0.7-0.1-0.5-0.4-0.2-0.6-0.1-0.6-0.1-1.9 0.6-6.4 1.3-6.3 1.9-6.1 2.6-5.8 3.3-5.6 0.5-0.6 0.9-0.5 1 0.1 0.6 0.5 0.2 0.7v0.9zm4.2 14.8l1-0.4 0.4 0.1 0.4 0.2 0.1 0.3 0.1 0.5-0.1 1.1-0.3 1.3-0.8 4-0.2 3.9 0.2 4-0.2 0.8-0.7 0.5h-0.9l-0.6-0.6-0.6-1.8-0.5-2.4-0.1-2.4 0.1-2.6 0.3-2.5 0.8-2.3 0.7-1zm1.9-25.1l-0.1-8.3 0.1-4.2 0.2-9.9 1.1-9.9 0.6-4.8 0.2-4.8-0.4-4.9-0.5-5.8 0.1-5.9 0.5-5.9 0.7-4.4 0.9-1.9 1.3-1.6 0.4-0.4 0.2-0.2 0.1-0.1 0.5-0.1 0.3 0.2 0.1 0.1 0.1 0.1 0.8 2.1 0.2 2.3 0.2 5.3 0.5 5.2 0.5 9.2-0.1 9.2-0.2 6.4-0.3 6.5-0.8 6.5-1.1 6.5-1 5-1.5 10.5-0.5 2-0.8 1.9-0.5 1-0.8-1.3-0.5-1.3-0.4-2.2zm-3.7-48.9l-0.3 4.4 0.1 4.4-0.2 7.6-0.8 7.6-1.4 7.6-2.1 7.3-2.6 7.2-3.2 7-2.2 4.4-1.9 3.8-1.2 1.5-1.4 1.3-0.9 0.6-0.3-3 0.3-3 0.2-6.9-0.2-6.9-0.4-7.2 0.2-7.1 0.8-7.1 1-3 2.2-3.8 2.8-3.5 3.5-4.5 3.2-4.9 2.7-5 0.4-0.6 0.4-0.4 0.8 0.1 0.5 0.7 0.1 0.7zm-33.5 38.7l3.5-3.5 3.1-3.8 0.9-1.3 0.1-0.2 0.2-0.2h0.4l0.1 0.2 0.1 0.2 0.1 0.1v0.3l0.1 0.8v1.8 3.8l0.1 3.9 0.1 5.3-0.6 5.3-1.3 5.3-1.8 5-2.5 4.8-1 1.8-2 3.1-1.2 1.1-1.6 0.7-0.5 0.2-0.2 0.1h-0.2l-0.4-0.1-0.2-0.3-0.1-0.1v-0.2l-0.1-0.4v-0.1l-0.1-0.3-0.3-0.8-0.6-3.2-0.6-6-0.3-3.2-0.5-3.2-0.4-2.3-0.2-2.3 0.3-1.8 0.5-1.8 1.1-2.1 1.5-2 2.2-2.4zm9.5 35.9v1.1 4.7l0.3 4.7 0.3 5.3-0.1 5.2-0.7 5.2-0.8 2.7-1 2.7-0.9 1.7-1.1 1.4-1 0.7-1.1 0.3h-0.4l-0.7-0.2-0.6-0.5-0.5-1.2-0.4-1.6-0.6-2.4-0.8-2.3-1-3.3-0.7-3.4-0.2-3.5-0.1-3.2-0.1-1.8 0.1-1.9 0.3-1.1 0.6-1.1 0.8-1 1.8-1.8 1.8-1.7 1.5-1.9 1.3-1.7 1.5-1.3 1.1-0.4 0.7 0.2 0.5 0.5zm-41.8 9.3l0.2-7.1-0.5-7.1-0.3-2.1v-2.1l0.4-1.3 0.7-1.1 1-0.8 2.6-1.2 3.1-1.6 2.6-2.2 1.7-1.6 1.8-1.4 1.2-0.6 1.3-0.5 1.3-0.1 0.8 0.5 0.3 0.9-0.1 1.2-0.2 1.3-0.2 3.9 0.3 4 0.1 3.8-0.5 3.7-1.1 3.6-1.7 3.4-2.8 4.9-3 4.8-3.6 4.4-2.6 3-0.8 0.9-1 0.6-0.9-0.1-0.6-0.6-0.1-0.7v-0.9l0.3-5.2zm17 6.4l1.5-1.6 0.6-0.2 0.9 1.2 0.4 1.4v2l-0.2 1.9-0.3 2.1-0.6 3.5-0.6 3.2-1.1 3.1-1.5 2.9-1.9 2.6-1.7 2-1.4 2.2-0.7 1.1-0.7 0.7-1 0.1-0.7-0.3-0.8-0.6-0.5-0.8-0.6-2-1-2.3-1.4-2.2-1.4-2.2-0.5-1.3-0.1-1.1 0.5-1.2 1.1-1.4 1.2-1.2 3.7-2.7 2.7-2 2.5-2.3 2.1-2.6zm-47.5-2.2v22.7l-0.2-1-0.4-6.1 0.3-6.2zm1.3 22.9l-1.3-0.2v-26.9l0.3-4.2 0.3-1.5 0.6-0.7 0.8-0.4 1-0.1 2.5-0.7 2.3-1 5.5-2.4 5.9-2.7 1.3-0.6 1.4-0.3 0.8 0.2 0.7 0.5 0.7 1 0.5 1.1 0.5 2.5 0.1 2.7 0.1 2-0.4 4.8-1.1 4.7-1.7 4.4-2.4 4.2-3 3.8-3.5 3.3-3.1 2.5-3.4 2.2-2 1-2.1 0.7zm-18.7-33.8h3.8l3.7 0.5 1.5 0.4 1.7 0.4 1.5 0.6 1.1 1.2 0.5 1.4 0.1 1.6-0.1 2.4-0.4 3.4-0.7 3.5-1.4 4.8-2.1 4.7-2.5 4.4-3 4.1-3.5 3.7-3.3 3.4-3 2.9-1 0.7-0.2 0.1-0.8 0.1-0.5-0.4-0.3-0.7-0.4-1.9-0.8-3.4-1.4-3.2-1.5-3.8-1.1-3.9-0.7-4-0.5-4-0.7-5.3 0.1-2.3 0.4-2.4 0.7-1.7 1-1.5 1.4-1.4 1.7-1 3.4-1.7 3.6-1.1zm-17.6 49.3l0.2-3-0.2-3-0.1-1.1 0.2-0.5 0.3-0.4 0.9-0.1 0.8 0.2 0.6 0.5 1 1.4 1.6 3.5 0.9 2.1 0.6 1.4 0.9 1.2 1.3 0.8 0.6 0.1 0.6-0.2 0.4-0.4 0.6-1.1 1.6-2.2 2.2-1.6 2.3-1.2 1.1-0.3h0.9l0.6 0.3 0.4 0.7 0.2 1-0.4 2.5-1.3 3.2-1.6 3.8-1.8 3.9-2.4 3.5-2.9 3.1-1.4 1.3-1.3 1-1 0.4h-0.6l-0.5-0.2-0.8-0.9-0.4-1.1-1.5-3.2-1.5-3.7-0.9-3.8-0.4-3.9zm110.3-15.3l3.5-4.2 0.4-0.3 0.5-0.3 0.7 0.1 0.6 0.5 0.4 0.9 1 3.5 0.6 5.2-0.1 5.2-0.5 6.3-1.2 6.2-1.8 6-1 2.2-1.4 2-1.6 1.8-2.2 1.4-2.5 0.9-3.6 0.2-3.6-0.3-3.4-0.9-6.1-2.1-5.8-2.8-5.4-3.5-4.9-4.1-4.4-4.7-2.3-2.8-2.8-2.4-1.7-1.4-0.5-0.8-0.3-0.9v-0.7l0.3-0.7 0.8-0.7 1-0.3 0.8 0.2 0.7 0.3 1.2 1.4 1.9 1.9 2.2 1.6 2 1.3 1.7 1.6 0.9 0.9 1 0.6h1.1l1.6-0.8 1.7-1.4 1.5-1.6 2.5-2.7 1.8-1.9 1.7-2 1.5-2.4 1-2.7 0.2-0.6 0.2-0.5 0.3-0.3 0.4 0.1 0.3 0.2 0.3 0.4 1.8 2.1 2.1 1.8 2.4 1.4 0.9 0.5 1.8 0.8 1 0.1 0.9-0.1 1.7-1 1.5-1.6 1.4-1.7zm-51.2 19l1.9 0.4 1.5 1.1 1.1 1.6 0.4 1.8-0.3 1.9-1 1.7-1.5 1.1-1.7 0.9-1.9 0.6-0.9 0.1-0.8-0.4-0.7-0.9-0.3-1.1 0.1-1.5 0.7-1.9 0.9-2.5 0.4-1.6 0.4-0.6 0.6-0.5zm8.6 19.4l-0.6-1.1-0.1-1.9 0.6-1.7 1.1-1.4 1.1-0.8 0.3-0.2 0.4-0.2 0.9-0.5 1-0.2 0.7 0.1 0.6 0.4 1.1 1.2 0.1 0.1 0.6 1.3v1.4l-0.6 1.4-1.1 0.9-1.3 0.8-1.9 1-0.9 0.1-0.9-0.1zm11.3 5.3l-0.5-1.2-0.2-1.2 0.6-1 1-0.8 1.2-1.1 0.9-0.6 1-0.2 1.1 0.4 0.8 0.5 1.1 1 0.5 1.3-0.1 1.5-0.7 1.3-1.1 0.9-1.4 0.4-1.5 0.1-1.4-0.3-0.7-0.4zm-48.5-10.9l3.1 4 1 1.1 0.8 0.8 1 0.4 1.2 0.1 1.3-0.7 1.1-1.3 0.9-1.2 1.1-1.1 3.4-2.2 1-0.6 1.4-0.4 1.4 0.2 1.2 0.8 0.9 0.9 1.1 0.7 3.1 1.2 2.8 1 2.6 1.4 1.5 1.4 1.3 1.6 1.3 1.6 1.6 1.1 1.9 0.8 1.9 0.2 1.9 0.2 1.8 0.7 1.5 1 2.2 1.4 2.5 0.9 2.6 0.4 1.6-0.1 1.5-0.2 2.3-0.9 2.1-1.2 2.4-1 2.4-0.4 2.6 0.2 2.4 0.7 2.2 1.3 1.8 1.7 2.6 2.8 2.4 2.7 2 3 1.5 3.2 1.1 3.4 0.6 2.9-0.2 2.9-0.7 2.8-1.4 2.6-1.8 2.2-2 2-0.8 1.9-0.2 0.7-0.4 0.6-0.6 0.2-0.6-0.2-0.4-0.4-0.2-0.5v-1.5l-0.3-2.6-1.1-2.5-1.5-3-2.2-3.5-2.6-3.2-3.2-2.8-3.4-2.3-3.8-1.7-6-2.2-6.1-1.5-6.3-0.9-6.3-0.2h-7.9l-7.9-0.2-3.5-0.2-5-0.5-4.8-1.2-4.6-1.7-4.3-2.4-4-2.9-2.8-2.3-0.9-0.7-0.6-0.9-0.3-1.5 0.5-1.6 1-1.2 1.9-1.5 1.4-1.1 1.2-1.3 0.7-1.3 0.4-1.4 0.4-1.3 0.3-0.5 0.5-0.3 0.6-0.1 0.6 0.1 1.6 0.7 1.4 1zm73.3 66.8l-0.6 2.4-0.5 0.7-0.6 0.5-1 0.2-0.7-0.3-0.7-0.6-1.3-1.2-1.1-1.2-0.6-1.4-0.1-1.6 0.5-1.4 1-1.2 1.3-1.5 0.9-1.7 0.3-1.9-0.2-2.3-0.7-2.3-1.8-4.3-1.3-2.9-1.6-2.9-2-2.5-2-2.2-1.8-1.9-1.4-1.5-1-1.7-0.3-1.2 0.2-1.3 0.4-0.8 0.7-0.5 0.9-0.1 0.8 0.4 0.8 0.8 0.7 0.9 1.6 1.8 1.8 1.7 2.6 2.9 2.2 3.3 1.5 3.5 1.4 3.4 1.4 4.9 0.8 5 0.1 5zm-5.8 13.2l0.1 0.5-0.1 1.8-0.7 1.7-1.2 1.4-1.2 1.3-0.8 1.6-0.2 1.8-0.1 2-0.6 1.9-0.9 1.2-1.2 0.8-1.8 0.7-1.9 0.4-3.1 0.8-2.6 0.5-2.7 0.2h-2.1l-2 0.5-2.4 1.2-2.2 1.5-0.1 0.2-2.1 1.7-1.7 2.2-1.2 2.4-0.7 2.7-0.2 2.7 0.4 2.7 1.9 4.7 2.4 4.5 3.1 4 3.5 3.6 0.4 0.3 2.3 2.2 2 2.5 0.8 1.7 0.6 1.7 0.3 2.2-0.2 2.2-0.8 2-1.3 1.8-1.7 1.5-7.6 5-13.3 8.8-8.3 5.5-8.1 5.9-4.3 3.2-2.6 1.7-1.6 0.3-1.6-0.1-1-0.6-0.5-1.1 0.1-1.2 0.8-0.9 1.7-1.1 1.6-1.4 1.3-1.3 0.9-1.6 0.2-0.6v-0.6l-0.2-0.5-0.5-0.3h-1l-1.1 0.4-1.6 0.6-1.6 0.3-2.3 0.6-2.2 1-1.9 1.4-3.9 2.8-3.1 2.6-2.6 3-2.1 3.5-1.5 3.7-2.1 5.2-1.3 2.3-1.7 2-2.4 1.9-2.7 1.2-3 0.6h-1.7l-1.7-0.2-0.4-0.2-0.4-0.3-0.2-0.5 0.1-0.4 0.1-0.5 0.6-1 1.2-2.7 0.8-3 0.3-3-0.3-3.1-0.8-3-1.1-2.9-1.5-2.8-2.1-3.3-2.5-3-2.9-2.8-2.5-2.2-0.7-1-0.4-0.8 0.1-0.7 0.4-0.5 0.4-0.2 1.1-0.6 0.8-0.9 0.7-0.9 1.6-2 1.9-1.7 2.2-1.3 2.3 0.7 2.5 0.4h2.4 2.7l2.3-0.2 2.2-0.7 1.9-1.2 1.6-1.6 3.4-3.4 3.8-2.9 2.9-2.1 2.7-2.3 1.7-2 1.4-2.3 0.8-2.2 0.4-2.3-0.1-4v-1l-0.6-3.5-1.1-3.4-1.6-3.1-2.1-2.9-6.1-7.8-5.4-8.2-4.7-8.7-2.7-5.5-0.8-2.4-0.5-2.4-0.1-2.4 0.6-2.3 1.3-2.9 1.7-2.7 2-2.6 2.3-2.4 2.5-2.2 4.4-2.8 4.6-2.4 8.2-4.3 8.5-3.8 8.8-3.2 8.9-2.6 9.1-2.1 9.2-1.4 6.7-0.8 6.7-1.1h0.1l1.4-0.3h1.3l2.4 0.8 2.1 1.5 1.6 1.9 1 2.4 0.3 2.5-0.4 2.6-1.1 2.3-1.6 1.9-1.7 2.1-0.9 2.5-0.2 2.6 0.6 2.6 1.3 2.3 1.9 1.8 2.1 1.9 1.5 2.3 1.1 2.6zm-63.8 114.8l0.4 1.7-0.1 1.7-0.8 1.4-1.2 1-1.5 0.5-1 0.1-1.1-0.2-1.4-0.4-1.4-0.5-1.4-0.2 0.3 0.8 0.3 0.5 0.5 0.4 0.2 0.2 1.3 1 1 1.2 0.2 0.7-0.1 1-0.5 0.4-0.5 0.2-1.5 0.2-3.5 0.7-2.8 0.6-2.9 0.2h-2l-2 0.2 0.7-2.9 0.7-4.2-0.1-4.2-0.3-2.7 0.3-2 1.1-1.9 0.7-0.9 0.6-1.1 1.4-1.7 1.8-1.1 2.2-0.4 2.1 0.3 2.8 1 2.4 1.6 2.2 2 1.7 2.2zm-45.6-5.8l0.1 3.7-0.6 3.7-1.3 3.4-1.6 2.7-2.3 2.1-2.6 1.6-3 0.9-3.1 0.1h-4.7l-1.2-0.1-1.1-0.4-0.9-0.8-1.1-1.1-1.4-0.8-1.7-0.3-2 0.4-2.9 0.4-2.9-0.2-1.2-0.1-1-0.1-1-0.3-0.4-0.7-0.1-0.7 0.2-0.8 0.4-0.8 1-2.1 0.5-1 1.9-3.1 1.2-1.4 0.6-0.3 0.7-0.1 1.2 0.4 1.2 0.8 1.1 0.9 1.2 0.5 0.9 0.1 0.9-0.3 0.4-0.3 0.1-0.5v-0.4l-0.4-0.3-0.5-0.3-0.6-0.1-1.1-0.4-1-0.7-0.6-0.9-0.1-1.1 0.4-0.9 0.1-0.1 1.2-2.6 1.5-2.7 1.8-2.4 2.2-2.1 2.1-1.8 2.2-1.5 2.2-0.9 2.3-0.5h1.8l1.8 0.5 1.6 0.8 1.4 1.3 1.6 1.8 2.2 3 1.5 3.3zm-37.7 1l-2.8-0.1-2.9 0.3-2.8 0.6-2.2 0.2-2.2-0.4-2-0.8-1.8-1.4-1.3-1.8-0.9-2-1-2.3-1.7-2-2.1-1.3-2.4-0.7-1.1-0.2-1-0.3-0.4-0.5-0.3-0.6 0.1-1.2 0.5-1 0.7-1 1.8-3.1 1.3-2.4 0.9-1.1 1.1-0.9 1-0.4 1.1-0.2 1.2 0.1 0.7 0.1 1.2 0.2 0.6 0.4 0.4 0.5 0.3 1.4 0.1 2.2-0.1 2.3-0.2 2.7 0.1 2.7 0.2 2.9 1.1-0.3 0.6-0.4 0.5-0.5 0.7-1.8 1-2.1 1.4-1.8 1.1-2 0.5-2.3-0.3-2.3-1-2.1-1.6-1.7-2-1.2-1.4-0.5-1-0.7-0.3-0.7 0.1-0.8 0.7-1.1 2.4-2.2 5-3.3 2.3-1.3 2.4-0.8h1.9l1.9 0.4 2.5 1 2.4 1.5 2.7 2.2 2.3 2.6 1.9 2.9 1.1 2.6 0.6 2.8v2.8l-0.5 2.8-0.9 1.8-1.2 1.5-1.6 1.3-1.7 1.3-1.4 1.7-1 2.6-0.5 2.8-0.2 1.5-0.5 1.5-0.8 1-0.9 0.5-1.2 0.1zm18.5-53.4l0.2-1-0.2-1-0.8-1.2-0.7-0.8-0.8-0.9-0.9-0.8-0.8-0.5-0.4-0.7 0.1-0.5 0.3-0.4 0.9-0.6 2.9-1.1 3-0.4 3 0.4 2.9 0.9 2.6 1.7 2.1 2.1 1.6 2.6 0.9 1.6 1.4 3.6 0.6 3.8v3.9l-0.2 2.3-0.6 3.2-1.4 3-2 2.6-2.6 2.1-2.9 1.4-1.9 0.5-1.8 0.3-1.5 0.1-1.6-0.3-1.2-0.5-1-0.9-1.4-1.8-1.9-2.8-2.2-2.6-2.7-2.1-2.9-1.8-2.3-1.4-2-1.8-0.4-0.6v-0.6l0.4-0.4 0.7-0.2 1-0.2 1.9-0.3 1.9-0.6 4.2-2.2 1.5-0.8 1.7-0.9 1.6-1.1 1-1.1zm-7.5-6.1l0.2 0.9-0.1 1.9-0.1 0.8-0.4 1.8-1 1.6-1.5 1.2-1.8 0.7-2.3 0.3-2.3-0.1-0.2-0.4-0.3-0.8-0.1-1.6-0.2-1.3-0.5-1.3-0.9-1-1.8-1.2 0.1-0.6 0.5-0.6 0.7-0.4 0.9-0.2 1-0.1 2.8-0.2 2.7-0.4 0.3-0.1 2-0.2 0.9 0.1 0.8 0.4zm218.1 65.2l0.1 1.7-0.4 1.6-1.5 3.6-1.5 2.1-1.9 1.9-2.3 1.4-1.3 0.7-1.1 1-0.5 1.2-0.1 1v0.6l-0.2 0.6-0.4 0.6-0.3 0.2-2.2-3.2-1.4-2.1-1.3-2.3-1-1.8-1.3-2.5-0.9-2.6-0.3-0.8-1 0.2-0.2 0.7-0.1 0.5 0.2 1.7 0.1 2.3-0.3 2.2-0.1 0.3-0.3 0.5-0.3 0.2-0.3-0.1-0.4-0.3-0.4-0.4-1.3-1.2-1.9-1.1-2.2-1.5-1.6-2-1-2.4-0.3-2.6 0.4-2.6 1.2-2.3 1.8-2 2.3-1.3 2.5-0.6 1.9-0.1 4.7 0.4 4.6 1.2 4.3 1.9 2.9 1.6 2.8 1.7 1.1 1zm20.5-8.2l0.3 2.4-0.5 3.1-0.9 3-0.8 2.9-0.3 3 0.2 3 0.3 2.4-0.1 2.4-0.3 0.4-3-0.4-2.5-0.6-2.2-1.2-1.9-1.7-1.5-2.1-1.5-3.6-0.8-3.8v-3.9l0.6-3.8 1.4-3.6 0.7-1.2 0.8-0.6 0.9-0.3 2-0.2 1.2-0.1 2.2-0.1 2.1 0.4 1.4 0.8 1.2 1.2zm-98.8-360.6l-0.6-2.8-0.1-2.9 0.8-3.4 1.6-3.1 2.2-2.7 1.3-1.1 2.2-1 2.4-0.2 2.3 0.5 1.4 0.7 1.1 1 1.9 2.4 1.4 2.9 0.8 3 0.1 3.2-0.5 3.1-1.2 3-1.8 2.6-2.2 2.2-1.7 1.5-1.4 1.8-0.9 1.1-1.1 0.7-1.5 0.1-0.3-0.4-1.3-1.5-1-1.7-1.7-3.5-1.2-2.7zm-10 43.5l0.1 2.2-0.2 2.5-0.8 2.3-1.3 2.7-1.6 2.6-3.3 6-2.5 4.3-3 4.1-3.5 3.6-1.6 1.1-1.5 0.4h-0.5l-0.5-0.5-0.3-1 0.3-1.3 0.6-3-0.2-3.1-0.2-0.9-0.1-0.2-0.2-0.2h-0.1-0.1v0.1l-0.1 0.3-0.1 0.6-0.5 1.8-0.8 1.7-2.7 3.4-3.2 4-2.8 4.2-2.4 4.4-2.5 4.6-0.4 0.5-0.3 0.3-0.3 0.2-0.5-0.2-0.1-0.3-0.1-0.4v-0.8l0.2-6.1v-0.9l-0.1-0.6-0.3-0.3-0.4-0.1-0.6 0.4-0.5 0.6-1.9 3.2-1.7 2.8-2.2 2.5-2.5 2.2-2.8 1.7-1.6 0.8-1.3 0.7-1.3 0.4-1 0.1-0.9-0.2-0.5-0.3-0.4-0.5v-0.7l0.2-0.7 0.2-0.9v-0.3l-0.3-0.8-0.7-0.1-0.6 0.1-0.9 0.7-0.8 1.2-1.1 1.3-1.4 1-1.5 0.6-3 1.2-1.7 0.8-1.3 0.3h-0.3l-0.2-1.4 0.3-1.1 0.5-1 1.7-1.8 1.8-2.1 1.4-2.5 0.8-2.7 0.4-2.3 0.5-1.3 0.9-1 1.1-0.7 1.2-0.2 2.8 0.1 2.5 0.1 2.4-0.3 2.4-0.6 4.1-2 4-2.2 4.1-2.3 3.9-2.4 3.7-2.8 3.3-3.1 3-3.5 3.4-4.4 3.8-4.1 4.1-3.7 4.5-3.3 3.5-2.2 2-0.9 1.1-0.3 1.1-0.1zm-125.1-2.7l1 0.2 1 0.6 0.9 1 0.8 1.2 4.4 5.4 4.9 5.1 5.4 4.5 6.3 5.5 5.9 6 5.4 6.5 2 1.9 2.5 1.3 2.7 0.6 2.8-0.1h0.1l2.4-0.2h2.3l1.4 0.2 1.3 0.6 0.7 0.6 0.3 0.9-0.1 0.6-0.3 0.7-1 1.2-1.6 2.4-1.4 2.5-2.5 3.9-3.1 3.5-3.7 2.9-4 2.3-4.3 1.8-4.6 1.2-6.9 0.8-6.9 0.3h-0.9l-7.9 0.4-7.7 1.2-3.6 0.8-3.6 0.2-1.5-0.1-1.4-0.3-1.2-0.5-0.9-0.7-0.9-1.1-0.7-1.3-1-2.8-1.6-3.7-2-3.5-1.6-2.5-1.3-2.6-0.6-1.9-0.1-1.9 0.2-1.6 0.6-1.5 1.3-1.9 1.9-1.9 2-2.2 1.3-2.7 0.7-2.8v-3l-0.8-2.8-1.4-2.6-2-2.1-2.4-1.7-2.8-0.9-2.7-0.5-2.7-0.8-1.8-0.9-1.7-1.2-1.9-1.7-1.6-1.9-1.2-2.1-0.9-2.1-0.4-2.1v-2.2l0.3-1.6 0.7-1.3 1-1.2 1.1-0.9 2-1.3 1-0.4 1.2-0.1 1.9 0.3 1.8 1 3.1 3.1 2.1 2 2.4 1.6 2.8 1.1 2.9 0.5 3.3 0.1 3.3-0.3 2.8-1.1 2.3-1.7 1.4-1.1 1.5-0.9zm-33.8-20l-0.1-3.8 0.5-3.7 0.9-2.4 1.6-2.1 2-1.7 2.1-1.4 3.1-2.2 2.1-2.1 0.8-1.3 0.5-1.4 0.1-2.5-0.3-2.4-0.2-1.3 0.1-1 0.4-0.5 0.4-0.1 0.6 0.1 0.9 0.5 1.4 0.9 3.8 3.4 3.5 3.8 3.1 4.1 2.1 2.9 2.9 4.6 1.1 2.3 0.7 2.5 0.2 3.5-0.5 3.5-1.3 3.3-2.1 3.4-2.3 3.1-2.7 2.8-1.6 1.3-1.8 1-1.9 0.5h-2.1l-3.8-0.7-3.7-1.4-3.3-2.2-2.8-2.7-2.2-3.3-1.5-3.7zm-46.5-9.9l-0.4-1.1 3.4-3.1 2-1.9 3.3-2.6 1.7-0.8 1.9-0.4 2.1 0.2 2 1 1.6 1.5 1.3 2.2 0.6 2.5 0.1 2.6-0.3 1.4-0.7 1.4-1.2 1-1.5 0.6-1.7 0.8-0.6 0.5-0.4 0.6-0.2 0.7 0.2 0.8 0.5 0.5 1.3 0.3 1.5 0.1 1.5-0.1 2.4-0.3 2.3-1.1 1.8-1.7 1.3-2.1 0.6-2.4-0.1-2.5-0.8-2.3-1.4-2.1-1.4-1.5-1.3-1.8-0.4-1.1v-1.1l0.7-0.9 1.2-0.6 3.2-1.2 3.3-0.4 3.4 0.2 3.2 1 3 1.7 2.5 2.3 2.8 3.4 1.2 2.1 0.3 0.9v1l-0.2 0.8-0.5 0.7-1.3 1.2-1.2 1.1-0.9 1.2-0.4 1.3v1.2l0.3 1.3 0.4 1.3 1.4 2.5 0.9 1.8 0.8 1.8 0.3 1.5v1.6l-0.4 2.1-1.2 1.8-1.7 1.3-1.9 0.8-2 0.1-2-0.4-1.9-0.9-1.5-1.4-0.6-0.9-1.3-1.1-1.2-0.4-1.2-0.2-2.6-0.1-3.3-0.1-2.6 0.1-2.5 0.8-1.6 0.7-1.5 0.4-1.3-0.1-1.2-0.5-1-0.9-0.7-1-2.8-7.3-1.8-3.3-2.5-2.9-2-2.2zm17.1 89.2l0.2-1.2-0.4-1.1-1.4-1.7-0.9-1-0.3-0.5-0.2-0.4v-0.4l0.3-0.4 0.3-0.2 0.5-0.1 1.3 0.1 1.4 0.4 2.5 0.4 2.5-0.1 3.4 0.1 3.4 0.8 3.2 1.4 3.2 1.8 3 2.2 2.5 2 2.1 2.3 1 1.9 0.7 2 0.3 2.1-0.2 3.2-0.7 3.2-0.9 2.8-1.5 2.5-1.2 1.4-1.4 1.1-3.2 2-3.8 2.5-3.3 2.1-1.8 0.8-1.8 0.5h-1.3l-1.3-0.3-1.1-0.7-0.8-1-1.1-2.7-1.4-3.1-2.1-2.8-2.8-2.3-3-2.1-2.4-1.7-2.2-2-2-2.3 2.2-2.8 2.7-2.5 2.9-2 3.3-2.1 1-1zm-43.3 47.2l-0.2-0.6 0.1-0.7 0.5-0.9 0.8-0.9 2.9-4 2.5-4.1 2.3-4.1 2.8-3.7 3.1-3.6 3.3-2.8 3.8-2.2 2-0.7 2.2-0.3 1.6 0.3 1.6 0.5 2.4 1.3 2.3 1.4 2.7 2 2.4 2.4 2.1 2.7 1.7 3 1.9 3.5 1.5 1.8 0.8 0.5 1 0.3 1.6 0.1 4.1-0.2 2.1-0.4 2-0.7 1.7-1.1 1.7-1.3 2.2-2.1 2-2.3 3.3-3.2 3.6-2.8 4-2.4 4.2-1.8 6.4-2 6.6-1.3 6.7-0.7h6.7 10.3l10.2-0.3 1.9-0.1 1.9 0.1 0.9 0.3 0.4 0.2 0.4 0.9v1l-0.3 9.5-0.3 6.8v6.8l0.5 6.7v1l-0.5 0.8-0.7 0.6-2.9 1-4.6 0.6-2.7 0.3-2.7 0.5-0.5 0.2-0.4 0.3-0.3 0.8 0.2 0.5 0.3 0.4 1.2 0.4h1.4 3l3.1 0.7 2.8 1.2 1.8 1.5 1.4 2 0.7 2.2 0.3 1.4v1.2l-0.3 0.6-0.6 0.5-0.9 0.2-2.6 0.2-2.5-0.1-6-0.1h-4.5l-4.4-0.3-2.2-0.4-2.1-0.9-0.9-0.7-0.6-0.8-0.4-0.9-0.1-0.9 0.2-2.1 0.1-2.5-0.4-2.4-0.8-2.4-1.5-2.6-1.9-2.4-2.1-2-2.2-1.9-1.8-1.4-2.1-1.1-1.7-0.6-1.9-0.4-1.7 0.2-1.6 0.6-1.8 1.4-1.5 1.9-2.8 3.2-1.5 2-0.9 2.2-0.4 2.4 0.2 2.4 0.3 2.4-0.1 1.1-0.4 1-0.6 0.5-0.7 0.4-1.3 0.2-1.7-0.4-1.4-0.9-0.6-0.8-0.5-0.9-0.3-1.6v-1.6l-0.1-1.8-0.5-1.8-0.9-1.7-2.4-2.7-2.8-2.5-2.4-1.5-2.8-1-2.8-0.5-2.9 0.1-2.9 0.6-2.5 0.7-2.9 1.1-2.6 1.6-2.4 1.9-2 2.4-1.5 2.7-3.9 7.7-1.2 1.8-0.6 0.5-0.7 0.4-1.4 0.1-1.7-0.6-1.5-1.1-3-1.8-1.9-1-0.7-0.7-0.6-0.8-0.4-1.5 0.3-1.5 0.6-1.4 1.4-1.6 1.5-1.5 2.1-2.3 1.6-2.8 0.9-3.1 0.2-3.2-0.5-3.1-1.2-3-1.9-2.6-1.3-1-1.5-0.5-1.7 0.2-0.6 0.2-0.4 0.5-0.2 0.5 0.1 0.5 0.3 0.5 0.5 0.5 0.7 0.9 0.5 1.1 0.2 2.7v2 3.1l-0.5 2.9-0.5 1.3-0.8 1.2-0.7 0.6-0.9 0.3-1.9-0.1-4-0.4-4.1 0.1-4 0.5-0.9 0.1-0.8-0.1-0.5-0.3zm98.2 16v2.7l-0.5 2.7-1 2.5-1.5 2.3-1.9 2-1 0.7-1.1 0.5-0.7 0.2-0.7-0.2-0.5-0.3-0.2-0.4-0.1-0.6 0.1-0.5 0.2-0.7 0.3-1.6-0.4-1.6-0.8-1.5-3.7-4-1.6-1.7-0.8-1-0.6-1.2-0.5-2.2 0.1-2.2 0.4-2.3 0.7-2.2 0.7-1.9 0.8-1.8 1.2-1.5 1.6-1.2 2.1-0.7 2.3-0.1 0.4-0.1h1.7l1.6 0.3 1 0.6 0.8 0.9 0.6 1.9 0.6 4.2 0.2 4.2zm-43.8 10.7v1.4l-0.5 3-0.6 3.7 0.1 3.7 0.1 1.2-0.1 0.5-0.4 0.4-0.5 0.3h-1.3l-1.3-0.5-1.5-1.2-1.6-2-2.1-2.7-1.4-1.6-0.4-0.8-0.2-0.9 0.2-1.1 0.4-0.9 0.7-1.2 0.3-0.5 1-1.7 1.7-2.8 0.9-1 1.1-0.7 1-0.1 0.8 0.3 0.7 0.7 0.7 0.8 1 1 0.8 1.4zm8.3 0.3l-2.1 0.3-2.1-0.4-1.8-1.1-1.3-1.6-0.7-2v-2.1l-1.3-1.8-1.7-1.2-2.1-0.5-2.1 0.1-2 0.8-1.6 1.4-1.1 1.8-0.5 2.1 0.3 2.1 0.1 1.6-0.1 0.7-0.4 0.6-0.7 0.4h-0.8l-1.2-0.4-1-1-0.7-1.3-0.4-1.5-0.2-1.8v-1.8l0.4-3.8 0.2-1.8v-3l0.7-3 1.3-2.7 1.9-2.4 2.3-1.8 2.8-1.3 3-0.6h3l2.9 0.7 10.2 6.7 1.7 2.7 1.1 3 0.2 3.2-0.5 3.2-1.3 2.9-1.9 2.6zm10.1-95.4h-3.8l-3.8 0.6-0.7 0.1h-0.2l-0.1-0.1-0.1-0.1v-0.2l0.3-0.5 0.4-0.7 1.2-2.6 0.5-2.8-0.1-2.8-0.3-2.9 0.1-1.4 0.4-1.3 0.9-1.6 1.2-1.3 1.5-0.9 2.1-0.6 2.2-0.1 2.7 0.3 2.6 1 2.2 1.7 1.6 2.2 0.9 2.6 0.2 2.8-0.7 2.7-1.3 2.4-2 1.9-2.4 1.3-2.7 0.6zm-49-23.6l-0.1-1.6 0.6-1.4 1.2-1.1 1.7-2.7 1.6-2.8 1.9-3.3 2.6-2.8 3-2.3 3.5-1.6 3.6-1 3.8-0.2 3.8 0.5 3.6 1.3 3.3 1.9 2.3 3.4 1.6 3.7 0.9 3.9 0.2 4.1-0.6 4-1.2 3.8-1.9 3.6-2.6 3.1-3.1 2.7-3.4 2h-1.8l-1.7-0.3-3.3-1.2-0.7-0.3-3.1-1.3-2.8-1.7-1.9-1.9-1.5-2.3-2.4-2.8-3-2.3-3.3-1.7z"/>
	<path id="Path 6" fill-rule="evenodd" class="s4" d="m532.3 362.3l-0.3-2.6v-2.6-1l0.3-3.5 0.7-3.5 1-3.4 1.1-3.3 0.4-1.1 0.6-1 1.1-0.7 0.5-0.1 0.5 0.2 0.4 0.5v0.3l0.1 2.9 0.1 3.4 0.1 1.7-0.2 1.7v1.4l0.5 1.2 0.9 1 1.2 0.6 1.8 0.7 1.7 0.6 1.5 0.1 1.4-0.6 1.6-0.8 2.4-1.2 2.6-0.7 2.7-0.4 2.3-0.3 1.1-0.2 1-0.5 0.7-0.9 0.1-1.3-0.4-1.2-1.5-2-2-1.8-2.1-1.6-2-0.9-2.1-0.3-2.2 0.4-0.9 0.2-0.9 0.1-0.8-0.1-0.7-0.4-1-1.2-0.8-2.1-0.6-1.4-0.9-1.3-1.2-1-1.2-1-0.7-1.4-0.1-1.5v-2.8l0.2-2.1 0.7-2 1.4-1.6 1.5-1.7 1.1-2 0.5-2.3-0.1-2.3-0.8-2.1-0.8-1.7-0.5-1.8v-1.1l0.4-1.1 0.7-0.8 4.4-2.8 4.6-2.3 7.2-2.6 7.4-2.1 4-1 3.9-1.6 1.5-1.1 1.2-1.4 1.4-1.3 1.7-0.8 1.8-0.3 9-0.3 10.9-0.3 10.8 0.4 4.4 0.4 4.5 0.1 3.5-0.7 3.3-1.2 4-1.4 4.1-0.9 4.3-0.3 3 0.2 2.9 0.5 2.8 0.5 2.7 1 2.5 1.3 1.8 1.4 1.4 1.7 1.2 1.9 1.3 3 0.9 3.1 0.5 3.5-0.2 3.5-1.3 4.1-1.7 3.9-2 4.2-2.9 6-3.5 5.8-4 5.4-2.9 3.9-2.7 4-2.3 4.2-1.4 2.9-1.7 2.7-1.3 1.5-1.6 1.1-1.8 0.9-0.8 0.1-0.1-3.5 0.1-4.4 0.5-4.3 1.2-4.2 1.6-4.1 1.2-2.6 2.7-5.3 3.2-4.9 3.6-4.7 3.2-3.9 2.9-4.2 1.4-3 0.8-3.3 0.1-4.2-0.8-4.2-1.5-3.9-0.9-1.5-1.3-1.2-1.5-1-3-0.9-3.1-0.2-3.6 0.3-3.5 1.1-3.1 1.7-1.7 1.2-2 1.6-1.6 2-1.2 2.2-0.7 2.5-0.1 2.2 0.1 2.2 0.6 2.8 0.7 2.7 1.6 5.7 1.3 5.7 0.3 3v3.1l-0.4 3-0.4 2.1-0.9 3.2-1.5 2.9-2 2.7-2.4 2.2-2.8 1.7-3.9 2.3-3.7 2.8-2.6 2.1-2.7 1.9-2.9 2.1-2.6 2.5-2.3 2.8-2.9 3.5-3.2 3-4.8 4.4-4 3.8-4.1 3.5-2.4 1.4-2.6 0.9-2.7 0.5h-0.8l-2.3 0.2-2.1-0.2-1.1-0.5-1.1-0.7-0.6-0.7-0.5-0.8-0.3-0.9v-1l0.1-2.1 0.3-2.5-0.1-2.6-0.1-0.9 0.1-0.4 0.1-0.4 0.6-0.4 1.2-0.2h2.6l4.7-0.4 4.5-1 4.4-1.6 4.1-2.1 1.1-0.6 3.9-2.6 0.7-0.6 0.4-0.8-0.1-0.6-0.3-0.4h-0.7l-0.4 0.2-0.3 0.3-2.6 1.7-4 2.4-2.5 1.5-2.6 1.3-1.4 0.4-1.5 0.1-2.6-0.3h-0.4l-3.2-0.5-2.2-0.8-0.8-0.8-0.4-1v-1.1l0.3-1.1 0.7-0.9 1.1-0.3 1.1 0.3 0.8 0.9 1 1.2 1.3 0.8 1.6 0.2 2.2-0.4 2.2-0.7 1.9-1 2.7-1.4 0.8-0.4 0.3-0.2 0.2-0.3-0.1-0.5-0.2-0.3-1.4-0.9-1.8-0.6-1.8-0.2-1.6-0.3-3.6-0.3-3.6 0.2-3.6 0.8-3.3 1.3-3.2 1.8-3.3 2.1-3.4 1.9-3.5 1.8-3.2 1.5-3.5 0.7-3.5 0.1-0.4-0.1-1.5-0.1-1.5-0.5-1.4-1-0.6-1zm59.2-61.5l0.2 0.4 0.4 0.2h0.6l0.7-0.1h1.7l1.7 0.6 1.4 1 1.1 1.4 0.9 1.4 1.4 1.2 1.8 0.7 2 0.4 2.7 0.5h1.3l1.3-0.1 1.1-0.5 0.9-0.6 2.3-2.5 1-0.7 1-0.5-3.1-2.2-3-2.1-3.3-1.5-3.5-1-3.6-0.2-3.1 0.3-3.1 0.8-1.5 0.8-0.7 0.6-0.5 0.7zm-27.6 154.9l2.2-0.3 3.5-0.7 3.3-1.4 3.1-2.1 2.9-2.5 3-2.6 3.3-2.2 0.1 0.1 0.5 1.5 0.3 1.5v1.9l-0.2 1.8-0.6 3.2-1.7 4.7-2.3 4.4-2.9 4-1.4 1.8-2.1 2.9-2.5 2.6-3 2.1-2.7-2-2.3-2.5-1.7-3-1-3.3-0.8-2.9-0.6-2-0.1-1 0.1-1 0.6-1.3 1-0.9 1-0.5z"/>
	<path id="Path 7" fill-rule="evenodd" class="s4" d="m672.4 376.2l0.9-5.7 1.6-5.6 2.3-5.3 3-5 3.6-4.5 4.1-4.1 4.6-3.2 5-2.6 5.2-2 5.5-1.2 5.6-0.6 5.6 0.2 5.5 1 5.4 1.6 5.1 2.3 4.8 3 4.3 3.5 3.9 4.1 3.3 4.5 2.6 5 1.1 1.4 1.4 1 1.6 0.5h1.7l1.7-0.5 3.4-1.5 3.6-1 3.6-0.6 3.5-0.1 3.5 0.6 3.2 1.1 3.1 1.8 2.6 2.3 2.3 2.7 1.9 3.1 1.4 3.3 0.9 3.6 0.3 3.6-0.2 3.6-1.3 6.6-1.9 6.4-2.5 6.1-2.4 6.2-2.1 6.3-1 4.8-0.5 5 0.1 5 0.4 3.8 0.8 3.7 1.2 3.6 0.9 1.7 1.3 1.5 1.4 1.2 0.8 0.5 0.4 0.5 0.1 0.2v0.2l-0.1 0.2-0.3 0.1-0.8 0.2-7.5-3.7-7.3-4.2-7-4.6-5.7-5.2-8.8-8.1-4.7-4.6-5.1-4.1-5.4-3.7-2.9-2.1-2.4-2.6-1.8-3-1.3-3.3-0.7-3.4v-3.6l0.3-3.6 0.9-3.6 1.6-3.2 2.1-2.8 2.9-2.8 3-2.6 1.7-1.9 1.3-2.3 0.6-2.5 0.1-2.5-0.6-2.6-1.1-2.3-2.8-3.5-3.2-3-3.7-2.5-4-1.9-4.3-1.1-5.2-0.5-5.2 0.4-5 1.1-4.8 1.9-4.1 2.1-3.8 2.7-3.2 3.3-2.8 3.7-2.1 4-1.5 4.4-0.8 4.5-0.1 4.6 0.7 4.6 1.7 5 2.5 4.7 3.1 4.2 3.7 3.8 4.3 3.2 7.7 4.7 8.1 4.1 8.4 3.4 9.4 4 9.1 4.7 8.7 5.3 4.5 3.4 4.3 3.6 3 2.8 2.7 3.2 2.4 3.4 2.1 4.3 1.4 4.6 0.8 4.7 0.2 4.7-0.5 4.8-1.2 4.6-1.8 4.4-2.4 4.2-2.9 3.7-7 7.1-7.4 6.5-8 5.9-8.4 5.3-8.7 4.6-9.1 3.9-6.9 2.8-2 0.8-1.2 0.4h-1.2l-0.8-0.2-0.7-0.5-0.5-0.9-0.1-1.2 0.2-2.6 0.1-1.8v-1.9l-0.4-1.5-1-1.1-0.9-0.4h-0.9l-0.9 0.3-0.6 0.7-0.3 1-0.3 3-0.3 7v7.1 7.5l-0.5 7.5-1.1 7.4-0.8 4.5-0.4 4.5-0.1 1.2-0.2 0.5v0.2l-0.2 0.1h-0.3l-0.3-0.1-0.3-0.3-0.2-0.3-0.5-1.3-0.1-2.5 0.3-2.6 0.6-7.9-0.2-7.9-0.3-10.1 0.1-10.1-0.1-1.6-0.2-0.7-0.5-0.6-0.9-0.3-1 0.2-0.8 0.6-0.6 0.8-0.4 1.1-0.3 1.3-2.1 27.5-0.6 7.5-0.4 5 0.1 5.1 0.2 2.4 0.5 2.2 0.3 0.7 1 0.9 0.8 0.1 1-0.1 2.1-0.7 5.9-2 6.3-2.1 6.1-2.5 5.9-3 4.3-2.5 3.8-3.1 3.4-3.6 1.6-1.9 1.9-1.6 2.1-1.3 2.4-0.7 3.1-0.5 1.2 0.2 1.1 0.6 0.7 1.1 0.5 1.3 1.6 6.8 1 6.9 0.7 10.1 0.1 10.2-0.4 10.1-0.2 10.8v3.3l0.3 3.3 0.6 1.9 1.1 1.6 0.9 0.7 1 0.5 2.2 0.7 4.3 1.7 3.9 2.4 2 1.7 1.5 2.1 1 2.5 0.3 2.6v2.1l0.4 2.1-0.1 0.8-0.6 0.6-0.9-0.2-1.6-0.8-1.7-0.4h-1.8l-2.7 0.4-2.6 0.9-2.8 0.7-2.9 0.2-1.7 0.3-1.5 0.8-1.2 1.3-0.5 1.6v1.8l0.6 1.6 1 1.3 1.6 1 2.3 1.2 2.7 1.6 2.2 2.2 1.6 2.6 0.9 2.9 0.2 3.1-0.6 3.1-0.8 2.1-1.4 3-1.9 2.6-2.3 2.2-2.8 1.7-3 1.1-3.2 0.5-1.5-0.1-1.3-0.5-0.8-0.8-0.5-1.1-0.3-2.1 0.5-3.6 0.4-2.5v-2.6l-0.5-2.5-1-2.3-1.4-1.6-1.7-1.1-2-0.6h-2l-2.2 0.2-1.6-0.1-1.5-0.4-1.4-0.7-1.1-1-0.8-1.3-0.5-1.4-0.7-1.6-0.9-1.3-1.2-0.7-1.1-0.1-1 0.4-0.7 0.7-0.4 1-1 3.2-0.3 2.4 0.3 2.5 0.9 2.4 0.5 0.9 0.2 0.9-0.1 0.5-0.4 0.4-0.4 0.3-1.7 0.6-1.8 0.1-3.7-0.7-3.5-1.3-3.2-1.9-1.4-1.2-1-1.5-0.6-1.7-0.1-2.7v-1.9l-0.1-0.6-0.2-0.6-0.6-0.4-0.8 0.1-0.8 0.5-0.9 1.3-0.6 1.5-0.8 1.9-1.1 1.8-1.4 1.5-1.7 1.2-1.4 0.4-1.4 0.1-1.4-0.4-1.9-1.1-1.5-1.5-1-1.9-1.2-3-0.5-3.3 0.3-3.3 1-3.2 1.6-2.8 2.2-2.5 2.7-1.9 3.1-1.3 3.2-0.5 3.3 0.1 4.1 0.8 4.1 0.3 4.1-0.3 4-0.6 2.2-0.8 1.9-1.3 1.5-1.8 0.8-1.8 0.4-1.9 0.3-4.1 0.2-3.5 0.2-3.6-0.1-1.8-0.3-1.7-0.8-2.1-1.4-1.9-1.8-1.4-2.2-1-2.3-0.5h-2.8l-2.7 0.5-3.4 1.1-3.4 1.4-8 3.8-7.7 4.2-7.5 4.6-4 2.6-4.1 2.1-4.4 1.6-4.5 1.1-3.6 0.4-3.5 0.2-3.2-0.3-3.1-0.9-2.3-1.3-1.9-1.7-1.6-2.1-0.8-1.5-0.5-1.6-0.7-4.3-0.1-4.3-0.1-5.6 0.3-18.5 1-18.5 0.5-6.6 0.7-7.8 1.3-7.7 2.2-7.6 2.8-7.3 3.5-6.9 2.3-3.6 1.9-3.8 1.6-3.9 0.5-2.6v-2.7l-0.5-2.6-1.7-3.7-2.1-3.4-2.7-3.1-3-2.7-1-0.8-0.3-0.4-0.2-0.5v-0.5l0.3-0.4 0.5-0.4 0.6-0.2h0.6l1.2-0.2 1.1-0.4 2.7-1.8 2.5-2.2 2.4-2.5 1.5-2.4 1.2-3.7 0.4-3.8 0.3-13.1-0.3-13.2-0.1-8.2v-3.6l-0.6-3.5-0.2-1-0.1-0.9 0.1-0.8 0.4-0.7 0.6-0.4h0.8l0.5 0.5 0.4 1 0.5 1.6 1.5 7 1.2 7.1 1.6 9.5 2.3 9.4 2.9 9.2 1.4 3.3 1.8 3.2 2.1 3.1 3 3.2 3.3 2.9 7.3 5.1 5.9 4.1 2.5 1.6 2.7 1.1 2.9 0.6 2.9 0.1 2.9-0.4 8.1-1.8 6.7-1.5 6.6-2 3.9-1.7 3.7-2.1 3.4-2.6 3.1-2.9 3-3.7 2.6-4 2.1-4.4 1.4-4.5 0.8-4.8v-3.4l-0.7-3.4-1.4-3.2-2.1-3.4-2.6-3.1-2.9-2.7-6-4.6-6.3-4.1-10.8-6.5-17.8-10.2-6.7-4.2-5.7-4.1-5.2-4.8-2.9-3.4-2.5-3.7-2.1-4.1-1.5-4.2-1-4.4-0.6-5.8zm103.8 57.1v-0.3l-0.2-3.9-0.4-2.7-1.1-2.5-1.5-2.3-1.9-1.9-2.3-1.5-2.5-1-2.7-0.4-2.8 0.2-1.2 0.4-0.4 0.4-0.1 0.5 0.4 0.6 0.6 0.5 3.6 2.9 2.6 2.1 2.7 2.4 2.6 2.6 1.6 1.8 2 1.5zm-17.8-50.4l0.1 2.8 0.9 2.6 1.5 2.3 1.7 1.5 2.1 1.1 2.1 0.6 2.2 0.3 2.9 0.7 2.7 1.3 2.3 2 1.7 2.4 1 2.8 0.3 2 0.2 1.1 0.7 2.1 0.6 0.8 0.8 0.6 0.1-0.5 0.1-0.4-0.1-0.4-0.2-2.4 0.1-2.4-0.1-3.3-0.8-3.2-1.5-2.9-2-2.6-2.4-2.2-2.9-1.5-3.7-1.8-2.1-1.7-1-1.6-0.4-1.8 0.3-1.6 0.7-1.4 2.2-2.9 2.4-2.8 0.7-1.1v-1.2l-0.6-1.1-1.7-0.4-1.7 0.3-1.4 1-2.9 3-2.5 3.4-1.1 2-0.9 2.2zm-14 5.9l-0.2 3.2 0.6 3.1 1.4 2.9 2 2.5 2.6 1.8 2.9 1.2 3.2 0.4 4.5 0.1 4 0.1 2.1 0.1 2 0.5 1.9 1 1.8 1.2 2.2 1.6 1.9 1.8 0.7 1.4 0.3 1.7 0.1 0.9 0.2 0.5 0.1 0.2 0.1 0.1v0.1h0.1 0.1v-0.1h0.1v-0.2l0.1-0.4v-1.8l-0.6-2.9-1.4-2.8-2-2.3-1-0.9-2.5-2.1-2.7-1.7-3.1-1.1-3.1-0.6-3.3-0.3-3.1-1-2.4-1.4-2-1.8-1.8-2.4-1.5-2.6-0.8-2.2-0.1-2.4 0.1-0.5v-0.3l-0.4-0.5h-0.6l-0.3 0.2h0.4l-1.7 2.7zm-286.7 416.2l-82.9 133.4v-28.6l0.4-5.5 1.1-5.5 1.9-5.2 2.6-4.9 61-98.1zm-70-23.9l-0.5-7.7h15.5l0.5 6.6 1.1 6.5 1.8 6.3 2.4 6.1 3 5.8 3.5 5.5 4.1 5.2-8.4 13.6-5.2-5.7-4.6-6.2-4-6.6-3.3-7-2.7-7.3-2-7.4zm94.7 133.6l0.2 1.5-14.2 22.3-14.2-22.3 0.2-1.5 0.7-1.4 1.3-1 1.6-0.3 1.5 0.4 1.3 0.9 1.8 1.7 2.2 1.2 2.4 0.6h2.4l2.4-0.6 2.2-1.2 1.8-1.7 1.3-0.9 1.5-0.4 1.6 0.3 1.2 1z"/>
	<path id="Path 8" fill-rule="evenodd" class="s4" d="m443.3 778.7l-0.8-4.5v-4.5l0.8-4.4 1.6-4.3 2.2-3.9 2.9-3.4 3.5-2.9 3.9-2.2 4.2-1.6 4.5-0.7v-5.3l0.5-1.6 1-1.2 1.5-0.8 1.7-0.1 59.6 8 1.9 0.9 1.6 1.5 1 1.9 0.5 2.2v30.1l0.6 1.5 1.1 1.2 1.4 0.8 1.6 0.3 1.6-0.3 1.4-0.9 13.9-6.6 2.4-0.7h2.4l2.4 0.5 2.1 1.2 1.7 1.7 1.3 2.1 0.7 2.4v2.4 4.2l-0.8 4.1-1.5 3.9-2.3 3.6-0.9 1.4-0.3 1.6 0.3 1.7 0.9 1.4 1.3 1 0.9 0.7 0.3 1-0.2 1.1-0.7 0.8-1 0.4-1-0.1-2-1.3-1.6-1.7-1-2.1-0.5-2.3 0.2-2.3 0.7-2.2 1.4-1.9 1.8-3 1.2-3.2 0.6-3.4-0.1-3.5v-1.8l-0.6-1.7-1.2-1.4-1.5-0.9-1.8-0.2-1.8 0.4-13.4 6.4-2.3 1.2-2.6 0.5-2.6-0.2-2.5-1-2-1.7-1.5-2.1-0.8-2.6v-30.4l-0.3-1-0.6-0.9-0.8-0.5-59-7.9v4.7l4.2 0.7 4 1.4 3.8 2 3.3 2.6 2.9 3.2 2.3 3.5 1.7 4 1.1 4.1 0.3 4.3-0.4 4.2-1 4.1-1.7 3.9 64.8 104.4 2.6 4.9 1.9 5.3 1.2 5.4 0.4 5.6v28.5l-87.9-141.3-3.5 0.6v39.9l6.6-0.6 6.5-1.2 6.4-1.8 7.8 13.6-6.6 2.3-6.8 1.6-6.9 1.1-7 0.5v40.3l1.5 1.1 0.9 1.5 0.4 1.8-0.4 1.9-0.9 1.5-1.5 1.1v7.2l2.3 1.3-1.6 1.3-1.9 0.7h-2l-1.9-0.7-1.6-1.3 2.4-1.3v-7.2l-1.5-1.1-1-1.5-0.4-1.9 0.4-1.8 1-1.5 1.5-1.1v-40.3l-7-0.5-6.9-1.1-6.8-1.6-6.7-2.3 8.4-13.5 6.2 1.8 6.3 1.2 6.5 0.5v-39.9l-4.5-0.8-4.2-1.5-3.9-2.3-3.5-2.9-2.9-3.4-2.2-3.9zm27-22.4v8.7l2.1 1 1.6 1.7 1.1 2 0.4 2.3-0.4 2.3-1.1 2-1.6 1.7-2.1 1v8.7l3.4-0.8 3.1-1.6 2.7-2.2 2.2-2.8 1.5-3.1 0.7-3.4v-3.5l-0.7-3.5-1.5-3.1-2.2-2.8-2.7-2.2-3.1-1.6zm-3.4 139.4l-1 0.9-0.3 1.3 0.3 1.3 1 1 1.3 0.3 1.3-0.3 0.9-1 0.4-1.3-0.4-1.3-0.9-0.9-1.3-0.4zm-14.5-125.3v3.5l0.8 3.4 1.4 3.1 2.2 2.8 2.7 2.2 3.1 1.6 3.4 0.8v-8.7l-2.1-1-1.6-1.7-1.1-2-0.4-2.3 0.4-2.3 1.1-2 1.6-1.7 2.1-1v-8.7l-3.4 0.8-3.1 1.6-2.7 2.2-2.2 2.8-1.4 3.1zm395.7 106.7l0.3 2.9-0.2 2.8-0.6 2.5-1.3 2.3-1.8 1.9-1.7 1.1-1.9 0.6h-2l-1.8-0.6-1.4-1.1-0.6-1.2-0.1-1.2 0.4-1.3 0.8-0.9 1.2-1.7 0.5-1.9-0.2-2.1-1-1.8h-192.5l-1.5 0.9-1.1 1.4-0.7 1.7v1.8l0.7 1.7 1.1 1.3 1.5 0.9h185.2l-4.9 7.4-5.5 6.8-6 6.4-6.6 5.9-7 5.3-7.5 4.7-7.8 4.1-8.1 3.4-8.4 2.7-8.6 2-8.7 1.2-8.8 0.6-8.8-0.2-8.8-1-8.6-1.6-8.5-2.4-8.3-3.1-7.9-3.8-7.7-4.4-7.2-5-6.8-5.6-6.3-6.2-5.7-6.7-5.2-7.1h-10.1l-1.2-0.4-1.2-0.8-0.9-1-0.7-1.2-0.9-2.4-0.2-2.6 0.5-3.2 1-3.1 1.6-2.8 2.1-2.5 2.5-2.1 3.1-1.8 3.2-1.5 3.5-1 3.5-0.5h177l3.3 1.1 3 1.7 2.6 2.3 2.2 2.7 1.6 3z"/>
	<path id="Path 9" fill-rule="evenodd" class="s4" d="m880.6 249.3v686l-1.1 6.4-1.9 6.2-2.6 6-3.3 5.6-4 5.1-4.5 4.6-5.1 4.1-5.6 3.4-8.9 3.2-9.1 2.7-9.3 2-9.3 1.5-9.5 0.9-9.5 0.2-38.9-0.3-38.9-0.8-38.9-1.1-10.5-0.2-10.6 0.6-10.4 1.3-10.4 2.1-10.1 2.9-10 3.6-4.8 2.3-4.5 2.9-4.1 3.4-3.6 3.9-3.2 4.3-2.5 4.7-2.6-4.7-3.2-4.3-3.6-3.9-4.1-3.4-4.5-2.9-4.8-2.3-10-3.6-10.1-2.9-10.4-2.1-10.4-1.3-10.6-0.6-10.5 0.2-38.9 1.1-38.9 0.8-38.9 0.3-9.5-0.2-9.4-0.9-9.4-1.5-9.3-2-9.1-2.7-8.9-3.2-5.6-3.4-5.1-4.1-4.5-4.6-4-5.1-3.3-5.6-2.6-6-1.9-6.2-1.1-6.4v-686l4.7-3.7-66.5-171.5 15.9-8.9 16.3-8.2 16.6-7.5 16.9-6.8 17.2-6 17.4-5.3 17.7-4.5 17.8-3.7 18-3 18.1-2.2 18.1-1.4 13.8 74.9 51.5-7.9-7.6-68.4 17.8-3.9 17.9-3.2 18.1-2.4 18.1-1.6 18.3-0.7h18.2l18.2 0.7 18.1 1.6 18.1 2.4 17.9 3.2 17.8 3.9-7.6 68.4 51.3 7.9 13.5-73.7 18.2 1.4 18.1 2.2 18 3 17.8 3.7 17.6 4.5 17.5 5.3 17.2 6 16.9 6.8 16.6 7.5 16.3 8.2 15.8 8.9-66 170.3zm-148.3-35.9l21.4 4 21.3 4.5 21.2 5.1 21 5.7 20.9 6.2 20.7 6.8 63.2-163.3-14.6-7.6-15-7-15.2-6.4-15.5-5.7-15.7-5.1-15.9-4.5-16-3.8-16.2-3.2-16.4-2.4-16.4-1.8zm63.6 32.2l-26.4-5.4-26.5-4.6-26.7-3.8-26.7-3.1-26.8-2.3-26.9-1.5-26.9-0.8h-26.9l-26.9 0.8-26.9 1.5-26.8 2.3-26.7 3.1-26.7 3.8-26.5 4.6-26.4 5.4zm-110.4-146.1l-11.9 106 21.5 2.4 21.5 2.9 19-103.6zm-171.5-71.8l19.7 176.5 24.8-1.5 24.8-0.8h24.8l24.8 0.8 24.8 1.5 19.8-176.5-16.2-3-16.3-2.4-16.4-1.7-16.4-1-16.5-0.3-16.4 0.3-16.5 1-16.3 1.7-16.3 2.4zm-58.6 79.6l19.1 103.6 21.6-3 21.6-2.3-11.8-106.1zm-186.3-24.9l63.3 163.2 20.6-6.7 20.9-6.3 21-5.6 21.2-5.1 21.3-4.5 21.4-4-32.8-178.6-16.4 1.8-16.4 2.5-16.2 3.2-16 3.8-15.9 4.4-15.7 5.2-15.5 5.7-15.2 6.4-15 7zm318.6 642.9h-261.1v208.7h-0.1l1 4.9 1.6 4.8 2.2 4.5 2.8 4.2 3.3 3.7 3.8 3.3 4.2 2.7 9.4 3.3 9.6 2.5 9.9 1.9 9.9 1.1 9.9 0.3 38.8-0.4 38.7-0.7 38.8-1.1 10-0.2 10 0.3 9.9 1.1 9.9 1.6 9.7 2.3 9.6 2.8 9.4 3.5 4.5 2 4.3 2.4zm277.1 208.7v-208.7h-261.1v259.5l4.3-2.4 4.4-2 9.4-3.5 9.6-2.8 9.8-2.3 9.8-1.6 10-1.1 10-0.3 10 0.2 38.7 1.1 38.8 0.7 38.7 0.4 10-0.4 9.9-1 9.8-1.9 9.6-2.5 9.4-3.3 4.3-2.7 3.8-3.3 3.3-3.7 2.8-4.2 2.2-4.5 1.6-4.8zm-0.1-672.3h-538.1v447.6h538.1z"/>
	<path id="Path 10" class="s5" d="m248.5 74.1l66.5 171.5m137.3-154.1l51.5-7.9m-65.3-67l13.8 74.9m43.9-76.3l7.6 68.4m-193.5 165.7l4.7-3.7m-4.7 689.7v-686m570.3 686v-686m-185.9-234.1l-7.6 68.4m51.5 7.9l-51.5-7.9m64.8-65.8l-13.5 73.7m142.2 157.8l-4.7-3.7m-480.8 0h400.7m146.1-170.3l-66 170.3m-437.4-229c-67 3.7-132.2 23.4-190 57.5m369.8 921.2c-10.1 4-18.2 11.7-22.8 21.5m84.7-31.8q58.4 1.9 116.7 2.2m55.6-10.5c15.7-8.3 26.2-23.8 28.1-41.4m-200.4 49.7c-21.1-1.2-42.3 2.3-61.9 10.3m-279.9-18.6c17.7 7 36.6 10.6 55.6 10.5m0 0q58.4-0.3 116.7-2.2m-200.4-49.7c1.9 17.6 12.5 33.1 28.1 41.4m234.3 18.6c-19.7-8-40.9-11.5-62-10.3m84.8 31.8c-4.7-9.8-12.8-17.5-22.8-21.5m122-980.1c-65.2-15.9-133.3-15.9-198.5 0m445.7 60.1c-57.8-34.1-122.9-53.8-190-57.5m43.9 227.8c-132-28.8-268.7-28.8-400.7 0m401.8 741.6c19.1 0.1 37.9-3.5 55.6-10.5"/>
	<path id="Path 11" fill-rule="evenodd" class="s4" d="m303.6 1011.7q-2.2 4.4-4.4 8.9-19.2-9.7-37.9-20.7-6.2 10.6-12.5 21.2c3 1.3 8.5 4.2 11.5 5.8 8.5 4.9 16.1 11.1 20.7 18.1 4.9 7.6 6.7 16.5 2 26-3.8 7.8-9.9 12.1-17 13.9-11.3 2.5-26.1-2-39.4-9.7-8.8-5-15.1-9.5-19-12.5q23.9-39 47.7-77.9 23.8 14.5 48.3 26.9zm-79.1 50.9c2.6 2.1 5.8 4.1 10.1 6.5 7.8 4.4 16.8 6.7 23.8 5 4.8-1.2 8.9-4.2 11.5-9.2 3.2-6.3 2.3-12.1-0.8-17.3-3.1-5.4-8.8-10-15.3-13.7-2.6-1.4-6.5-3.4-9.6-4.9q-9.8 16.8-19.7 33.6z"/>
	<path id="Path 12" fill-rule="evenodd" class="s4" d="m324.8 1023.1c5.9 1.7 13.5 4.2 22.8 8.1 11.5 4.7 18.9 10.4 22.7 17.1 3.4 5.8 4.4 13.3 1.6 20.9-2.7 7.9-7.5 13.1-14 15.8-9.1 3.8-21.2 2.8-33.4-2.3-3.8-1.6-7.2-3.2-9.8-5.1q-7.3 16.8-14.7 33.6-6.5-2.8-13.1-5.8 19-41.2 37.9-82.3zm-6.2 45.6c2.4 1.8 5.7 3.6 9.8 5.3 15.1 6.3 26.8 3 31.1-8.6 4.2-11.5-2.4-20.1-15.2-25.5-5.2-2.1-9.2-3.4-11.4-3.8q-7.2 16.3-14.3 32.6z"/>
	<path id="Path 13" fill-rule="evenodd" class="s4" d="m380.8 1111q-9.6 12-19.7 23.9-6.9-2.4-13.9-4.9c22.2-24.5 43-49.8 62.3-75.8q7.2 2.1 14.3 4.1c2.3 32.4 6.2 64.9 11.5 97.5q-7.4-1.7-14.7-3.5-2.2-15.4-3.9-30.8-18.1-4.8-35.9-10.5zm35.7 0.9q-1.5-14.1-2.7-28.1c-0.5-6.4-0.4-12-0.3-17.5q-0.2-0.1-0.3-0.1c-2.9 4.7-5.9 9.7-9.5 14.4q-8.6 11.3-17.4 22.4 15 4.8 30.2 8.9zm65.1-40.1q-7.5 40.1-15 80.3 24.3 4.5 48.8 7.4 4.8-40.5 9.6-81.1 6.2 0.7 12.4 1.3-4.1 40.8-8.1 81.6 4.6 0.6 9.3 1.2-1.8 15.6-3.7 31.3-5.7-0.5-11.3-1.1 0.7-11 1.3-22.1c-24.8-2.6-49.5-6.4-74.1-11.5q9.3-44.9 18.5-89.7 6.1 1.2 12.3 2.4zm91.2 10.5q-0.9 19.3-1.8 38.6c-0.7 14.4-1.5 26.5-3.1 38.6q0.3 0.1 0.5 0.2c5.7-9.3 12.6-18.9 20.2-29.6q17.1-23.3 31.9-47.3 6.2-0.1 12.4-0.4 2 45.8 4 91.6-6.6 0.2-13.2 0.4-0.6-19.5-1.1-39c-0.4-14.8-0.5-25.7 0.2-37.3q-0.2 0-0.4-0.1c-4.5 10.2-11.2 20.9-18.1 31q-16 22.9-34 44.9-7.5-0.3-15-0.8 2.9-45.7 5.9-91.4 5.8 0.3 11.6 0.6zm132.1-7q0.7 4.9 1.5 9.8-19.4 3-38.8 4.8 3.9 40.7 7.7 81.4-7 0.7-14.1 1.2-3.5-45.7-7-91.4 25.4-1.9 50.7-5.8zm98.2 24.1c9.1 30-8.2 52.9-35.8 59-28.7 6.2-51.4-9.7-55.4-37.1-4.1-28.9 11.5-50.3 36.2-55.8 25.4-5.6 47.1 7.7 55 33.9zm-77.4 19.4c3.2 19.4 18.5 34.7 40.3 30 21.8-4.9 29.3-25.1 23.7-45.1-4.9-17.7-19.7-33.2-39.9-28.7-20.2 4.5-27.4 24-24.1 43.8z"/>
	<path id="Path 14" fill-rule="evenodd" class="s4" d="m806.4 1052.9c4.9-2.8 12.9-6.3 21-9.2 11.7-4.2 20-5.3 27.2-3.2 6 1.3 11.1 5.1 13.9 11.8 3.5 8.2 0.3 18-8.5 25.1q0.1 0.2 0.2 0.3c9.8-1.6 23.3 0.6 28.7 13.1 3 7.2 2 14.3-1.6 20.5-4.7 8.2-15.3 15.4-32.3 21.4-9.3 3.3-16.6 5.1-21.3 6q-13.6-42.9-27.3-85.8zm24 31.6q5.6-1.9 11.3-3.9c13.1-4.7 18.2-14 15-22.2-4-9.9-13.5-10.7-25.6-6.4-5.4 2-8.5 3.4-10.3 4.5q4.8 14 9.6 28zm14 41.5c2.9-0.5 6.6-1.7 11.3-3.4 13.8-4.8 24.6-14.1 19.6-26.4-4.6-11.5-17.9-11.8-31.6-6.9q-5.3 1.8-10.5 3.6 5.6 16.6 11.2 33.1z"/>
	<path id="Path 15" fill-rule="evenodd" class="s4" d="m975.5 1023c16.6 26.6 5.3 53.6-20.3 67-26.6 13.8-53.1 4.4-64-21-11.4-26.8-1.6-51.6 21.3-63.7 23.6-12.4 48.4-5.5 63 17.7zm-71.4 39.9c8.2 17.9 27.2 28.7 47.4 18.1 20.2-10.6 22.5-32.2 11.8-50.1-9.4-15.8-27.9-26.7-46.7-16.8-18.8 9.8-20.8 30.5-12.5 48.8z"/>
</svg>