<svg version="1.2" xmlns="http://www.w3.org/2000/svg" viewBox="0 0 341 290" width="341" height="290">
	<title>Suhindol-pdf</title>
	<style>
		.s0 { fill: #b20d35 } 
	</style>
	<path id="Path 16" fill-rule="evenodd" class="s0" d="m285.9 87.3c0 0 3.2-0.2 4.8-0.2 1.6 0 5.4 2.4 7.4 2.4 2.1 0 4.2-2.2 6-3.6 5.4-0.9 3.4 3.1 1.7 4-1.7 1-3.8 2.5-6.9 2.4-3.1-0.2-6.3-3.4-8-3.6-1.8-0.2-5.2 0.5-5.2 0.5zm-227.9 2.6c0 0-3.6-0.7-5.4-0.5-1.7 0.1-5.1 3.4-8.3 3.6-3.3 0.1-5.4-1.5-7.1-2.4-1.8-0.9-3.9-4.9 1.7-4 1.8 1.4 4.1 3.6 6.2 3.6 2.1 0 6.1-2.4 7.7-2.4 1.6 0 5 0.2 5 0.2zm209.6-62.9c-22.1 20-34.7 56-34.7 56 0 0-18.5-10-58.8-9.7-43.8 0.4-56 8-61.6 10.3-18.7-46.2-34.7-56-34.7-56l9.5 2.6 1 2 2.3-0.5 1.8 2.2-0.5 4.3 1.9 0.8 1.1-5.3 2.8 1.3 1-2.6 1.5 2.1 3.1-0.6-1.2 3 0.8 1.5 1.1 1.5-2.8 0.1-4.4 0.5c0 0-2.8 2.2-0.4 4.7 0.6 1 3.9 3.5 10.1 3 9.5-0.8 27.1-9.2 27.1-9.2 0 0 15.3 1.3 24.8-4.5 11.1-6.8 12.3-15.4 12.3-15.4l-1.4-2c0 0-4 1.6-5 2-0.9 0.5-3.9 1.8-3.8-2.7 0-0.5-2-0.6-1.7-1.5 0.4-1.3 0.9-1.5 0.9-1.5 0 0 0.2-0.2 1-0.8 0.6-0.6 3 0.3 3 0.3v-2c0 0 1.7-1.4 2.4-0.4 0.6 1.1 3.2 3.4 3.2 3.4l2.1 0.2 0.2-2.3c0 0-8.6-4.3-0.9-6.2-0.5-0.8-1.8-2.8-1.8-2.8h2.7l1.6-2.8 1.4 2.8h2.8c0 0-1.4 1.9-1.6 3 7.3 1.3-0.6 6-0.6 6l0.5 2 2.3 0.1 2.8-3.8c0 0 1.5-0.5 1.9 0.5 0.4 1 0.4 2.3 0.4 2.3 0 0 1.2-0.5 2.2-0.3 1.1 0.2 1.2 0.9 1.2 0.9 0 0 0.3 0.4 0.4 1.4 0.2 1-1.6 1.2-1.6 1.2 0 0 1.1 0.8 0.6 1.6-0.6 0.9-1.1 2.3-3.4 1.7-0.8-0.2-4.4-2.3-4.4-2.3l-1.9 2.1c0 0 4.6 12.7 14.3 17 9.7 4.3 23.9 2 23.9 2 0 0 28.9 17.5 35.4 4.9 0.2-2.3-1.2-3.2-1.2-3.2l-7.2-0.4 1.9-3.2-1.2-3 3.1 0.7 1.5-2.2 1.2 2.6 2.8-1.3 0.9 5.3 1.9-0.8-0.5-4.3 1.8-2.2 2.2 0.5 1.1-2c0 0 8.2-2.5 9.5-2.6zm-116.1 41c-0.1-1.2-3.3-20.5-3.5-21.8-20.9 0.8-41.2 9.5-41.2 9.5l9.5 20.8c0 0 21.4-7.4 35.2-8.5zm39.8-23.3l-6.5-0.3c0 0 0-10.5-11.6-10.5-11.3-0.7-12 10.5-12 10.5l-6.5 0.3 4.8 22.6 27.8-0.2zm47.2 10.5c0 0-19.7-8.6-40.1-9.5-0.1 1.4-3.2 20.7-3.4 21.8 13.5 1.2 34.2 8.5 34.2 8.5zm-90.1 159.6c0 0 15 14 25.6 13.7 10.6-0.2 26.9-13.9 26.9-13.9 0 0-3.4 21.4-26.6 20.9-23.3-0.5-25.9-20.7-25.9-20.7zm91.6-104.7c0 1.1-4.4 3.8-6.1 0.8-1.7-3 0.8-7.2 0.8-7.2 0 0-2.7-3.3-3.2-4.8-0.5-1.5 2.6-3.3 2.6-3.3 0 0-2.8-3.7-3.1-5-0.3-1.3 0.1-5.8 5.4-3.8 1.6 0.1 5.3 7 5.3 7.6 0 0.7-2.4 7.5-1.7 15.7zm0.9 3.8q0 0 0 0 0 0 0 0zm0 0c0 0.4 1.3 7.3 6.9 13.6 0.4 0.7-4.4 3.8-6.9 0.4-0.2-1.2-1.2-7.2-1.2-7.2 0 0-2.1-3.8-3.9-3.7-1.9 0.2-3.3-2.1 0-2.8 1-0.1 2.9 0.3 4 0.3 1.1 0 1.1-0.5 1.1-0.6zm29.9 17c5.6-1.7 3.6 4.1 3.6 4.1 0 0-4.8 4.2-8.2 4.8-9.2 1.5-20.9-1.6-23.8-1.3-3.7 1.5-6.5 4.6-8.9 4.5-10-1.7-3.7-9.3-3.7-9.3 0 0-7.8-6 0.9-10-2.6-9.5 5.9-4.8 5.6-3.7 0.4 14.7 10.6 11.3 12 10.8 1.1-0.7 8.1-5.3 9.4-7.8 2.6 6.4 14.1 7.5 13.1 7.9zm-22.5 0c0.2-0.1 0.2-0.1 0-0.1-0.2 0.2-0.2 0.2 0 0.1zm43.1 7.6c2.6 3.3 13.3 3.5 13.3 3.5 0 0 13.4 27.1 28.2 16.8 1.1-1 6.7-5.8-11.3-24.8-2.4-3-17-13.6-18.9-24.1 0.4-8.4 1.7-16.8 15.1-17.8 13.4-1 21.3 17.3 21.3 17.3 0 0 1.7 8.1-1.5 7.3-1.6-0.4-2.3-1.7-2.6-2.9 0.2 3.3 0.1 8.7-1.9 9.1-2.9 0.5-4.4-11.5-4.4-11.5l-0.9 5.1c0 0-1.3 2.9-3 1.9-5.5-2.7 0-14.7 0-14.7 0 0 2-4.8-1.5-6.3-13-3.8-15.4 7.3-15 8.5-0.9 11.5 13.6 22.1 16.8 25.3 15.7 12.3 15.8 24.3 15.8 24.3 0 0 1.3 12.6-13.2 12.9 0.6 1.5-0.2 14-5.5 21.3-1.1 3.8 6 4.2 6 4.2 0 0-2.2 12.8-5.5 15.8-4.7 3.6-9.8 15.3-10 17.4-0.8 3.9 1.4 8.2 2.4 10.5-0.9 9-9.6 3.8-9.6 3.8 0 0-6.3 7.5-9-1.8-6.4 1.5-8-0.2-8-0.2 0 0-4.9-6.1 1.6-8.8 14.8-4 19.2-12.5 19.2-12.5 0 0 8.8-16.6-13.1-27.4-9.7-6.6-1-30.6-1-30.6 0 0-4.3-16.6-25.4-18.9 3.1-2.4 7.5-5.2 7.5-5.2 0 0 9.4 3 14.1 2.5zm43.4-27.3c0 0-0.1 1.3 0.2 2.6-0.1-1.5-0.2-2.6-0.2-2.6zm-45.9 43.4l2.4 2.2c0 0-4.3 2.7-4.1 4.8 0.1 2.2 1.2 3.2 1.5 5.8-1.5 1.7-4.9 3.2-4.8 5.5 0.2 2.4 3.9 5 5.5 5.8 1.5 0.9-0.2 2.7-0.2 2.7 0 0-14 0.3-14.5 7.3-1.2 8 5.8 9.3 5.8 9.3 0 0 2.9 9.2-8.5 11.8-13.6 2.4-15.8 5.5-16 6.5-2.7 4.4 5.5 9.8 5.5 9.8 0 0-0.9 4.9-4.8 5.7-3.9 0.8-5.1-1.7-5.1-1.7 0 0-2.4 4.4-6.8 4.5-4.5 0.2-5.8-2.8-5.8-2.8 0 0-2 3-4.6 3-10.9-3 0.8-11.8 5.6-12.1 14.8-13.7 18.7-23 18.9-24.5 1-6.7-5.1-22.8-4.9-22 0.1 0.9-2.4-8.4 9.7-12.1 18.9-5 25.2-9.5 25.2-9.5zm3.6 3.8c0 0-0.4 6.2-0.9 7.5-0.5 1.4-1.9-1.5-2.4-4.1-0.5-2.7 3.3-3.4 3.3-3.4zm-3 17.7c-2-1.2-2.8-2.3-3-3.8-0.2-1.5 4.1-2.9 4.1-2.9 0 0 0 8.7-1.1 6.7zm-67.5-36.4l9.8 5.5 0.7 59.2c0 0-8.7-4.3-13.5-6.8-3.6-0.5-6.9-5.5-6.9-5.5zm7.7 66.8c1.1 0.7 5.3 5.3-3.7 5.5-2-0.8-24.4 4.1-24.4 4.1 0 0-0.3-4.1 2.8-6.8 1.5-1 10.7-10.4 10.7-10.4 0 0 13.6 6.9 14.6 7.6zm-0.1-105.1c1.2 0.3 2.9 2 1.7 3.7-1.2 1.6-3.8 1.8-3.8 1.8l-0.1 2.3 4.2 2.5c0 0 1.5 2.5-0.2 3.8-0.6 1-6.3 0.7-6.3 0.7l0.9-15.6c0 0 2.4 0.5 3.6 0.8zm-2.1 21c-0.5 2.3-3.4 1.6-3.4 1.6l0.4-4.5c0 0 3.5 0.5 3 2.9zm-1 12.1c-0.7 2-3.6 1.8-3.6 1.8l0.9-6.3c0 0 3.4 2.5 2.7 4.5zm-10.4-35.1l-0.1-5.2h-29c0 0-12.8-14.7-12.2-18.6 2.8 0 10.2-0.1 10.2-0.1 0 0 6.8 15.3 19.6 16.2 12.7 1.1 20.7-1.9 20.7-1.9 0 0 4.6 1.9 5.1 3.6 0.5 1.7-5.9 4.8-8.3 6.2-2.4 1.3-6-0.2-6-0.2zm11.6-14.6c0 0-6.8 7.7-21.6 5.1-14.8-2.7-15.7-13.8-15.7-13.8l3.8 0.2c0 0 1.7 8.2 11.9 10.9 10.3 2.7 18.4-3.4 18.4-3.4zm-104.8 17.5l6.1 0.3 0.3 14-3 1.9c0 0 10.6 97.1 47.9 94.3 37.2-2.7 44.6-96.2 44.6-96.2l-3.2-0.5 1.1-14.3 5.8-0.2c0 0-1.3 46.4-13 89 0.3 1.3 2.7 6 2.7 6 0 0-20.3 29-37.8 28.5-17.4-0.5-41.4-28.5-41.4-28.5 0 0 2.6-2.5 3.7-4-15.5-73-13.8-90.3-13.8-90.3zm32.1 55.7c-4.6 0-8.3-3.4-8.3-7.5 0-4.1 3.7-7.5 8.3-7.5 4.6 0 8.3 3.4 8.3 7.5 0 4.1-3.7 7.5-8.3 7.5zm16.9 0c-4.6 0-8.3-3.4-8.3-7.5 0-4.1 3.7-7.5 8.3-7.5 4.6 0 8.3 3.4 8.3 7.5 0 4.1-3.7 7.5-8.3 7.5zm16.7 0c-4.6 0-8.4-3.4-8.4-7.5 0-4.1 3.8-7.5 8.4-7.5 4.5 0 8.3 3.4 8.3 7.5 0 4.1-3.8 7.5-8.3 7.5zm-24.9 13.3c-4.6 0-8.3-3.3-8.3-7.5 0-4.1 3.7-7.5 8.3-7.5 4.6 0 8.3 3.4 8.3 7.5 0 4.2-3.7 7.5-8.3 7.5zm16.9 0c-4.6 0-8.3-3.3-8.3-7.5 0-4.1 3.7-7.5 8.3-7.5 4.6 0 8.3 3.4 8.3 7.5 0 4.2-3.7 7.5-8.3 7.5zm-8.2 13.1c-4.6 0-8.3-3.4-8.3-7.5 0-4.1 3.7-7.4 8.3-7.4 4.6 0 8.4 3.3 8.4 7.4 0 4.1-3.8 7.5-8.4 7.5zm0.7-102.5l8.4 11.7h-17.4zm22.9 31.6l0.5 6.6c0 0 7.8 0.5 4.4 7.5-0.6 0-9.1 0-9.1 0 0 0-3.1-3.6 0-7 0-0.6 0-7.1 0-7.1zm14.5-11.2v11.9l-3 13.3c0 0-0.4 0-0.6 0.1 0-8.1-7.9-19.9-7.9-19.9l-0.1-5.4zm-75.6 0h2.3v3.5l3 1.6v-5.1h1.9v5.3l2.9-1.8v-3.5h2.1l0.5 8.8-1.4 2.1 1.9 0.1v1.8l-1.6 1.6v1.5h1.6l0.1 2.2-1.7 0.2v1.1h1.7v2.1l-6.8 3.6-7.7-3.8v-2h1.9l-0.1-1.2-1.9-0.2v-2l2-0.1-0.1-1.4-1.8-1.2v-2.2l2.1-0.1-0.9-1.9zm35.4 4.7c0 0-0.7-4.2 1.9-4.2 2.9 0 2 4.3 2 4.3v4.3c0 0 5.3-3.4 5.8-5.7 1.2 0 11.8 0 11.8 0 0 0 0.2 0.8 0 2.2-8.7 10.6-18.3 13.1-18.3 13.1v2.5h2.3v-1.7l5.1-1.1c0 0-2.7 7.3-8.8 7.5-6.2 0.1-9.5-7.4-9.5-7.4l4.7 1v1.5h2.7v-2.3c0 0-15-6-17.8-13 0-1.3 0-2.1 0-2.1 0 0 10.5 0 12.1 0 0.7 3.1 5.8 5.5 5.8 5.5zm-37.2-38.9c-2.6 0.9-5.9-1.3-7.4-5-1.5-3.7-0.6-7.4 2-8.3 2.6-1 5.9 1.2 7.4 5 1.5 3.6 0.6 7.4-2 8.3zm80.5-0.3c-2.7-0.8-3.8-4.5-2.6-8.3 1.2-3.7 4.4-6.2 7-5.4 2.7 0.8 3.8 4.5 2.6 8.2-1.3 3.8-4.4 6.2-7 5.5zm-40.2-5.9c-2.8 0-5-3.3-4.9-7.2 0.1-4 2.4-7.1 5.2-7.1 2.7 0.1 4.9 3.3 4.8 7.3-0.1 3.9-2.4 7.1-5.1 7zm-70 32.4c0-0.7 3.9-7.5 5.5-7.7 5.4-2 6 2.5 5.6 3.9-0.3 1.3-3.2 5-3.2 5 0 0 3.2 1.8 2.7 3.3-0.6 1.5-3.4 4.8-3.4 4.8 0 0 2.7 4.2 0.9 7.2-1.8 3-6.3 0.3-6.3-0.9 0.7-8.1-1.8-14.9-1.8-15.6zm0.9 19.5q0 0 0 0 0 0 0 0zm1 0.6c1.3 0 3.2-0.5 4.3-0.3 3.3 0.7 1.9 3 0 2.8-2-0.1-4.1 3.7-4.1 3.7 0 0-1 6-1.2 7.1-2.7 3.5-7.6 0.4-7.3-0.3 5.9-6.3 7.2-13.3 7.3-13.6-0.1 0.1-0.1 0.6 1 0.6zm-18.4 8.5c1.3 2.4 8.6 7 9.7 7.8 1.4 0.5 12 3.8 12.4-10.8-0.3-1.1 8.5-5.8 5.9 3.7 8.9 4 0.8 10 0.8 10 0 0 6.6 7.6-3.8 9.3-2.5 0.1-5.3-3-9.2-4.5-3-0.4-15.1 2.8-24.7 1.3-3.5-0.7-8.4-4.8-8.4-4.8 0 0-2.1-5.8 3.7-4.2-1.1-0.3 10.9-1.5 13.6-7.8zm9.7 7.8c-0.2-0.1-0.3-0.1-0.1 0 0.3 0.1 0.2 0.1 0.1 0zm-30 5.2c0 0 4.6 2.8 7.8 5.1-21.9 2.4-26.3 19-26.3 19 0 0 9 23.9-1.1 30.6-22.7 10.8-13.5 27.4-13.5 27.4 0 0 4.6 8.5 19.9 12.5 6.7 2.7 1.6 8.8 1.6 8.8 0 0-1.6 1.7-8.3 0.2-2.8 9.3-9.3 1.8-9.3 1.8 0 0-9 5.2-9.9-3.8 1.1-2.3 3.4-6.7 2.5-10.5-0.2-2.1-5.5-13.8-10.4-17.4-3.4-3-5.6-15.8-5.6-15.8 0 0 7.3-0.4 6.1-4.2-5.4-7.3-6.3-19.8-5.6-21.3-15-0.3-13.7-13-13.7-13 0 0 0.1-11.9 16.3-24.2 3.4-3.2 18.3-13.8 17.5-25.3 0.3-1.2-2.2-12.3-15.5-8.5-3.7 1.5-1.6 6.3-1.6 6.3 0 0 5.6 12 0 14.7-1.8 1-3.2-1.9-3.2-1.9l-0.9-5.1c0 0-1.6 11.9-4.6 11.4-2-0.3-2.1-5.7-1.9-9-0.3 1.2-1 2.5-2.6 2.9-3.4 0.8-1.6-7.3-1.6-7.3 0 0 8.3-18.3 22.2-17.3 13.9 1 15.1 13.6 14.3 18.5-0.5 7-16.4 20.8-18.9 23.8-18.6 19-12.3 23.4-11.3 24.4 15.3 10.3 29.2-16.8 29.2-16.8 0 0 11.1-0.2 13.8-3.5 4.9 0.5 14.6-2.5 14.6-2.5zm-59.7-22.2c0.3-1.3 0.2-2.6 0.2-2.6 0 0-0.1 1.1-0.2 2.6zm73.8 50.3c12.5 3.6 9.8 13 10 12.1 0.2-0.8-6.1 15.3-5.1 22 0.2 1.5 4.2 10.8 19.6 24.4 4.9 0.4 17.1 9.2 5.8 12.2-2.7 0-4.8-3-4.8-3 0 0-1.4 3-6 2.8-4.6-0.2-7-4.5-7-4.5 0 0-1.2 2.5-5.3 1.7-4-0.9-4.9-5.7-4.9-5.7 0 0 8.4-5.5 5.6-9.8-0.2-1-2.5-4.1-16.5-6.5-11.8-2.6-8.8-11.8-8.8-11.8 0 0 7.2-1.3 5.9-9.3-0.5-7-14.9-7.3-14.9-7.3 0 0-1.8-1.9-0.2-2.7 1.6-0.8 5.5-3.5 5.6-5.8 0.2-2.3-3.3-3.8-4.9-5.5 0.3-2.7 1.4-3.7 1.6-5.8 0.2-2.2-4.2-4.8-4.2-4.8l2.4-2.2c0 0 6.5 4.5 26.1 9.5zm-26.4-2.3c-0.6 2.6-2 5.4-2.5 4.1-0.5-1.3-0.9-7.5-0.9-7.5 0 0 3.9 0.7 3.4 3.4zm-1.4 7.6c0 0 4.4 1.3 4.2 2.8-0.2 1.5-1.1 2.7-3.2 3.9-1 1.9-1-6.7-1-6.7zm81.1 22.7c0 0-3.4 5-7.1 5.5-5 2.5-14 6.7-14 6.7l0.8-59.1 10-5.5zm-3.1 6.8c0 0 9.5 9.4 11.1 10.4 3.1 2.7 2.8 6.8 2.8 6.8 0 0-23.1-4.9-25.2-4.1-9.3-0.2-4.9-4.8-3.9-5.5 1.1-0.7 15.2-7.6 15.2-7.6zm-11.3-98.3l0.9 15.6c0 0-5.8 0.3-6.5-0.7-1.8-1.3-0.2-3.8-0.2-3.8l4.4-2.5-0.2-2.3c0 0-2.6-0.2-3.8-1.8-1.3-1.7 0.5-3.4 1.7-3.7 1.3-0.3 3.7-0.8 3.7-0.8zm1.6 18.9l0.4 4.5c0 0-3 0.7-3.6-1.7-0.5-2.3 3.2-2.8 3.2-2.8zm0.7 10.5l0.9 6.3c0 0-3 0.2-3.7-1.8-0.7-2 2.8-4.5 2.8-4.5zm1.8-30.4c-2.5-1.4-9.2-4.5-8.7-6.2 0.6-1.7 5.3-3.7 5.3-3.7 0 0 8.3 3 21.5 2 13.2-0.9 20.2-16.2 20.2-16.2 0 0 7.6 0.1 10.6 0.1 0.6 3.8-12.7 18.6-12.7 18.6h-29.9l-0.2 5.2c0 0-3.7 1.5-6.1 0.2zm-2.5-15.8c0 0 7.7 5.9 18.3 3.3 10.5-2.7 13.1-10.8 13.1-10.8l3.9-0.2c0 0-1.7 11-17 13.6-15.3 2.7-21.6-4.9-21.6-4.9zm7.8-2.3l16.6-2.8c0 0-2.9 4.5-7.4 5.5-4.5 1-9.2-2.7-9.2-2.7zm77.6 1.9c-4.5-1-7.4-5.5-7.4-5.5l16.7 2.8c0 0-4.8 3.7-9.3 2.7z"/>
	<path id="Path 17" fill-rule="evenodd" class="s0" d="m95 125.7c-1.6 1.9-6.2-3-6-4.8-0.7-1.5 1.5-5.3 3-7.5 1.4-2.2 0.7-1.3-1.8-0.8-2.5 0.5-5.3 12.5-11.3 14.3-1.7 1-5.8 2.8-6.8 0.8-1.1-2 4-8.6 3.6-10.3-0.3-1.7-3 1.9-3 1.9 0 0-5.2 13.2-7.3 14.6-3.9 4.3-11.8 3.4-12.5 2.5-2.3-3 5.1-9.7 6-11.3 0.8-1.7-0.4-1-3-0.7-2.7 0.3-7.1 15.1-12.7 14.9-2.6 0.9-4.1 0.4-4.1 0.4 0 0-5.6-2.7-0.9-12.6 1.5-3 11.7-26.7 17.1-31.6 3.6-1.1 13.8-1.2 16.4-2.7 2.7-1.5 3.5-5.5 3.5-8.2 0-2.6-2.1-4.9-2.1-4.9 0 0-2.3-0.7-2.1 0.8 0.2 1.5 2.3 7.3 0.2 9-2.5 3.1-9.7 2.3-12 2.6-2.3 0.4-4.1 1.8-6.7 2.2-2.6 0.3-5.1-1.3-4-2 12.6-1.3 8.1-9 8.1-9 0 0-0.9-4.2-8-2.8-1.9 0.7-3.7 3.3-4.7 3.5-2.8-1.2-2.8-8.5-2.8-8.5 0 0-2.1-0.5-2-2.5 0.2-2 1.3-1.8 3.7-2.5 2.5-0.7 8.5-1.8 9.5-2.7 1.1-0.8 1.4-1.6 2.7-2.3 1.9-0.3 6 0.5 10.9 0.3 4.9-0.1 7.2-2.6 10.6-0.8 6.8 2.8 1.9 6.3 1.9 6.3 0 0 2.1 0.4 4.2-0.1 35.9 29.9 13.9 52.7 12.4 54.5zm-38.5-55.4c-0.8-0.3-4.5 0.4-4.5 0.4 0 0-0.6 2.2 0 2.7 0.7 0.5 2.7 0.3 2.7 0.3 0 0 2.9-2.4 1.8-3.4zm247.3 69.4c0 0-1.4 0.5-3.9-0.4-5.5 0.2-9.8-14.6-12.3-14.9-2.6-0.3-3.8-1-2.9 0.7 0.9 1.6 8 8.3 5.8 11.3-0.7 0.9-8.3 1.8-12.1-2.5-2-1.4-7-14.6-7-14.6 0 0-2.7-3.6-3-1.9-0.4 1.7 4.6 8.3 3.5 10.3-1 2-4.9 0.2-6.6-0.8-5.8-1.8-8.5-13.8-10.9-14.3-2.4-0.5-3.1-1.4-1.7 0.8 1.4 2.2 3.5 6 2.9 7.5 0.2 1.8-4.3 6.7-5.8 4.8-1.5-1.8-22.8-24.6 11.9-54.5 2.1 0.5 4.1 0.1 4.1 0.1 0 0-4.8-3.5 1.9-6.3 3.2-1.8 5.4 0.7 10.2 0.8 4.8 0.2 8.7-0.6 10.5-0.3 1.2 0.7 1.6 1.5 2.6 2.3 1 0.9 6.8 2 9.2 2.7 2.4 0.7 3.4 0.5 3.6 2.5 0.1 2-1.9 2.5-1.9 2.5 0 0 0 7.3-2.7 8.5-1.1-0.2-2.8-2.8-4.6-3.5-6.8-1.4-7.7 2.8-7.7 2.8 0 0-4.4 7.7 7.9 9 1 0.7-1.4 2.3-4 2-2.5-0.4-4.2-1.8-6.4-2.2-2.2-0.3-9.2 0.5-11.6-2.6-2-1.7 0-7.5 0.2-9 0.1-1.5-2.1-0.8-2.1-0.8 0 0-2 2.3-2 4.9 0 2.7 0.8 6.7 3.4 8.2 2.5 1.5 12.4 1.6 15.8 2.7 5.3 4.9 15.2 28.6 16.5 31.6 4.6 9.9-0.8 12.6-0.8 12.6zm-15.3-65.7c0 0 2 0.3 2.6-0.2 0.7-0.5 0-2.7 0-2.7 0 0-3.7-0.7-4.5-0.4-1 1 1.9 3.3 1.9 3.3zm-153.7-28l-9.2-2.2c0 0 7.4-1.5 5.4-6.9-0.6-3.1-3.4 1.9-3.4 1.9l-3.7 0.4-1.4-1.1-1.9-1.9c0 0 0.6-0.5 1.1-2.4 0.5-1.8 3.9-2.7 3.9-2.7l-0.6-2.7 1.3-1.2-0.7-2.7 2.1 0.5c0 0 0.5-4.1 0.9-4.6 0.4-0.5 3.3 2.9 3.3 2.9l1.4-0.9 0.4 2.7 1.9 0.1 0.8 2.6c0 0 1.6-0.8 4.1 0.7 2.2 0.9 2.6 1.1 2.6 1.1l-0.2 1.7-0.8 1.9-2.1 2.2c0 0-4.8-2.3-4.9 0.8 0.1 3.4 7.5 3.6 7.9 3.6zm78.3-0.8l-7.1-6.1c0 0 7.3 2 8-3.7 0.9-3-3.9 0.1-3.9 0.1l-3.5-1.4-0.6-1.6-0.8-2.5c0 0 0.7-0.2 2-1.6 1.2-1.5 4.7-0.7 4.7-0.7l0.7-2.6 1.8-0.5 0.6-2.7 1.7 1.4c0 0 2.3-3.4 2.9-3.6 0.5-0.3 1.6 4.1 1.6 4.1l1.5-0.1-0.8 2.6 1.6 1-0.5 2.6c0 0 1.9 0 3.3 2.5 1.6 1.9 1.8 2.3 1.8 2.3l-1 1.3-1.6 1.4-2.8 0.9c0 0-3.2-4.3-4.7-1.6-1.5 3.1 4.9 6.6 5.3 6.9zm98.1 208.3c-0.3 1.6 1.1 5.8 2.2 8.4l0.8 1.9h-2.1c-17.3 0.1-38.1 0.2-39.1-0.1h-0.2l-0.2-0.1c-2.2-1.4-3.5-5.6-4.3-9.8-3.8 0.2-18.3 1.5-21.9 10.3l-0.1 0.2-1.1 1.4c-4 5.3-16.2 21.6-24.5 23.5-9 2-28.4-3.4-29.2-3.7l-0.9-0.2-0.1-0.9c-0.4-2.8-0.2-4.4 0.2-5.3l2.5-12.7c-14.4-2.3-27.7-1.7-38.9 0l2.6 12.9c0.5 1.4 0.3 3.7 0.1 5.1l-0.1 0.9-0.9 0.2c-0.8 0.3-20.8 5.7-30.2 3.7-8.5-1.9-21.1-18.1-25.3-23.5l-1.1-1.4-0.1-0.2c-3.7-8.9-18.9-10.1-22.8-10.3-0.8 3.3-2.1 6.7-4.4 9.5l-0.3 0.4-0.6 0.1c-1.7 0.2-38 0-42.2 0h-2.1l0.9-2c1.2-2.5 2.6-6.7 2.3-8.2-0.5-2.3-4.4-4.5-8.2-6.4h-1.1l0.8-2.6c1-1.2 3.5-1.5 4.6-1.5l0.6-0.1 0.5 0.5c1.1 1.3 3.2 3.2 4.2 3.4 0.4 0.1 0.7-0.3 1.4-1.2 0.6-0.7 1.2-1.5 2.2-1.8 1.2-0.3 2.4 0.6 3.9 1.7 0.9 0.6 2.3 1.7 2.9 1.6 0.6 0 2.4-1.6 3.3-2.5 1.5-1.4 2.4-2.2 3.4-2.3 1-0.1 2.2 0.3 3.6 0.7l3 0.8c1 0.1 2-1.2 2.3-1.7l0.4-0.7 4.9 0.2-2.6-6c-0.5-0.1-0.8-0.2-0.8-0.2l1.8-2.7 0.3-0.2c0.4-0.2 10-5.4 18.2-3.8 3.2 1 5.1 4.6 6 6.9 1.5-1 3.5-2.2 4.9-2.3 1.8-0.1 5 2.5 7.6 5 3-2 5.1-3 6.1-2.8 1.4 0.2 3.2 2.1 4.4 3.6 1-0.1 2.8-0.3 2.8-0.3 0.5 0 1.6 0 7.5 5.3l1.6 1.5c0 0-12.7 5.7-15 6.7 1.3 2.4 14.4 25.4 14.6 25.9 0.4 0.3 1.1 0.8 1.9 1.3-1.1-2.1-1.5-4.1-1.6-4.9-0.9-1.5-4.1-7.6-10.2-19.5l-1.4-2.8 1.4-0.6c59.5-23.6 89.5-14.6 125.3 0.8l1.4 0.6-1.3 2.5c-5.5 10.9-8.6 16.9-9.7 18.9 0.3 0.6 0.6 1.5 0.7 2.6 2.6-4.8 12.4-22.8 13.6-24.8-2.2-1-14.6-6.7-14.6-6.7l1.5-1.4c5.8-5.4 6.9-5.4 7.4-5.4 0 0 1.7 0.2 2.6 0.3 1.3-1.7 3-3.4 4.3-3.6 1-0.2 3 0.8 5.9 2.8 2.5-2.6 5.6-5.1 7.3-5 1.4 0.1 3.4 1.3 4.8 2.2 0.9-2.2 2.8-5.8 5.9-6.8 7.8-1.6 17.1 3.6 17.5 3.8l0.3 0.2 1.8 2.7c0 0-0.3 0.1-0.7 0.2l-1.2 5.9h1.6l0.9-0.1 0.4 0.8c0.3 0.5 1.2 1.7 1.9 1.6l2.8-0.8c1.3-0.4 2.5-0.8 3.4-0.7 1 0.1 1.8 0.9 3.2 2.4 0.8 0.7 2.4 2.4 3 2.4 0.4 0.1 1.8-1 2.5-1.6 1.3-1.1 2.5-2 3.8-1.7 0.9 0.3 1.5 1.1 2.1 1.9 0.3 0.5 0.8 1.2 1.1 1.1 0.8-0.1 2.6-1.8 3.8-3.3l0.4-0.6 0.7 0.1c1 0 3.3 0.2 4.3 1.4l0.5 1.6 0.3 0.5-1 0.6c-3.7 1.9-7.2 4.1-7.6 6.3zm3.9-7.4q0.1-0.1 0.3-0.2c-0.1 0-0.1 0-0.2 0 0 0.1 0 0.1-0.1 0.2zm-289.1 0.1c-0.2-0.1-0.2-0.2-0.3-0.3q-0.1 0-0.3 0 0.3 0.2 0.6 0.3zm255.3-9.8c-4.1 1.1-10.3 2.6-11.6 3 0.1 0.4 0.1 1.4 0.2 2.6l10.4-0.3zm-215.4 5.3l9.1 0.3c0.1-1.3 0.1-2.2 0.2-2.7-1.3-0.3-7.4-1.8-11.6-2.8zm8.5 8.2c0.1-1.5 0.2-3.3 0.4-5q0-0.1 0-0.2c-2.2 0-14.2-0.4-15.4-0.4-0.8 0.9-2.3 2.5-4.4 2.3l-3.6-0.9c-0.8-0.3-2.1-0.7-2.3-0.6-0.4 0.1-1.4 1-2 1.6-1.6 1.5-3.3 3.1-5 3.2-1.6 0.1-3.2-1-4.7-2.1-0.5-0.4-1.3-1-1.7-1.1-0.1 0.2-0.6 0.7-0.6 0.7-0.8 1-1.9 2.5-4 2.2-0.2-0.1-0.3-0.2-0.5-0.2 1.1 1.1 2 2.2 2.3 3.5q0.1 0.5 0.1 1c0 2.2-1 5.1-1.8 7.1 15 0 35.5 0.1 39.1 0 2.5-3.3 3.6-7.6 4.1-11.1zm80.1 31.5c0-0.4-0.1-0.6-0.1-0.9-1.6 0.2-6.7 0.7-11.5 1.2-9.6 1-16.6 1.7-18.1 1.7-3-0.3-6.2-2.9-6.5-3.2l-0.2-0.2-16.4-29c0 0 11-4.9 13.9-6.2-1.9-1.6-3.7-3-4.1-3.2l-4 0.4-0.5-0.6c-1.1-1.5-2.6-3-2.9-3.1-0.6 0-3 1.4-5.2 2.9l-0.9 0.6-0.8-0.8c-2.6-2.5-5.5-4.8-6.3-4.9-0.8 0.1-3.3 1.5-5 2.8l-1.6 1.1-0.5-1.9c-0.5-1.6-2.4-5.9-4.7-6.7-5-0.9-11 1.2-14.1 2.6 3.8 0.9 13.1 3.2 13.1 3.2 0 0-0.3 3.9-0.5 7.6 0 1.4-0.1 3.5-0.5 6q0 0.1 0 0.2c4.8 0.2 20.3 1.8 24.7 11.7l1 1.3c10.7 13.8 18.7 21.3 23.7 22.4 7.6 1.7 23.9-2.3 27.9-3.4 0-0.5 0.1-1.1 0.1-1.6zm-2.9-14.6c-14.8 2.5-25.2 6.8-28.2 8.2 0.3 1.3 1 3.7 3 5.5 3.2-0.2 10.6-1 16.2-1.6 6.3-0.6 9.6-1 11.2-1.1zm72.3 5.9c1-1.8 3.5-6.6 9.3-18.2-35.3-15-63.5-23-120.4-0.7 0 0 0 0.1 0 0.1 6 11.7 8.6 16.6 9.6 18.5 7.9-3.5 53.2-21.4 101.5 0.3zm43.7-24.6c-0.1-1-0.1-1.8-0.1-2.6-0.3-3.9-0.6-8.3-0.6-8.3 0 0 9-2.3 12.7-3.2-3-1.4-8.7-3.5-13.5-2.6-2.4 0.8-4.1 5.1-4.6 6.8l-0.6 1.9-1.5-1.2c-1.7-1.3-4-2.7-4.8-2.8-0.8 0.2-3.6 2.5-6 5l-0.9 0.8-0.9-0.7c-2.1-1.5-4.4-2.8-4.8-2.9-0.5 0.2-1.9 1.6-3 3.1l-0.5 0.6c0 0-3.4-0.3-3.7-0.3-0.6 0.2-2.3 1.6-4.1 3.2 2.8 1.3 13.4 6.2 13.4 6.2l-15.8 28.9-0.2 0.2c-0.2 0.2-1.1 1-2.4 1.8q0 0-0.1 0.1v-0.1c-1.1 0.7-2.5 1.3-3.8 1.4-1.5 0.1-7.9-0.6-17.6-1.7-4.6-0.5-9.5-1-11-1.1 0 0.2-0.1 0.4-0.1 0.9 0 0.5 0.1 1 0.1 1.6 3.9 1 19.6 5 27 3.4 4.8-1.1 12.5-8.7 22.9-22.5l0.9-1.2c4.2-10 19.1-11.5 23.9-11.7-0.1-0.6-0.2-1.7-0.3-3zm-71.6 18.7l-2.2 11c1.6 0.2 4.7 0.5 10.7 1.2 6.6 0.7 15.8 1.7 17.1 1.6 0.6 0 1.3-0.3 2-0.7 0.8-1.6 0.2-3.6-0.1-4.4-9.4-4.3-18.6-7-27.5-8.7zm112.4-12.8q0-0.6 0.1-1c0.3-1.3 1-2.4 2.1-3.5-0.1 0-0.2 0.1-0.3 0.1-2 0.4-3.2-1.3-3.9-2.3 0 0-0.3-0.4-0.4-0.6-0.4 0.2-1 0.7-1.5 1.1-1.4 1.1-2.9 2.3-4.4 2.2-1.6-0.2-3.2-1.8-4.7-3.3-0.6-0.6-1.5-1.5-1.6-1.6-0.3 0-1.4 0.4-2.2 0.6l-3.4 0.9c-2 0.2-3.4-1.3-4.1-2.3-1.2 0.1-11.7 0.4-13.9 0.4 0.3 6.3 1.6 14.6 3.8 16.3 2.5 0.2 22 0.1 36.1 0-0.7-2-1.7-4.9-1.7-7zm-148.9 3.7q0.8-0.1 1-0.3 0.3-0.3 0.3-1.3l-0.2-8.3c0-0.7-0.1-1.1-0.3-1.3-0.2-0.1-0.5-0.2-1.1-0.2v-0.4l5.7-0.1v0.4q-0.8 0-1 0.2-0.3 0.4-0.3 1.4l0.2 7 3.8-7.5q-0.1-0.7-0.4-1-0.3-0.1-1-0.2v-0.4l5.7-0.1v0.4q-0.8 0.1-1 0.3-0.3 0.3-0.3 1.3l0.1 8.3c0 0.7 0.2 1.1 0.4 1.3 0.1 0.2 0.5 0.2 1 0.2v0.4l-5.7 0.2v-0.4q0.8-0.1 1.1-0.3 0.3-0.3 0.2-1.3l-0.1-7.1-3.8 7.5q0 0.7 0.4 1 0.2 0.2 1 0.2v0.4l-5.7 0.1zm-32.1-1.2l-0.4 0.2q-0.9-1.1-2.1-1.7c-1-0.4-1.8-0.4-2.6-0.1q-1.4 0.5-1.4 2.2 0 1.4 1 3.9 1 2.4 2 3.4 1.2 1.2 2.6 0.7 2.3-1 2.9-3.9l0.5 1.1q-0.3 1.2-1.2 2.3-0.8 0.9-2 1.4-2.4 1-4.6-0.1c-1.4-0.7-2.5-1.9-3.2-3.6q-1-2.5-0.2-4.8 0.8-2.3 3.2-3.2 0.8-0.4 1.8-0.4 1.1 0 1.4-0.2c0.3-0.1 0.4-0.4 0.4-0.9l0.4-0.1zm13.8-7.4q-0.4 0.1-0.6 0.4-0.4 0.4-0.6 1.6l-1.6 7.9q-0.4 1.8-0.7 2.5-0.6 1.1-1.6 1.3-0.7 0.2-1.4-0.1-0.8-0.4-1-1.3-0.2-0.5 0.1-1 0.2-0.5 0.7-0.6 0.5-0.1 0.9 0.1 0.3 0.3 0.4 0.7 0.1 0.2 0.1 0.5 0 0.3 0 0.5 0.1 0.3 0.4 0.2 0.8-0.2 1.3-2.7l-6.5-6.7q-0.6-0.7-1.7-0.4l-0.1-0.4 6.1-1.5 0.1 0.4-0.3 0.1q-0.9 0.2-0.7 0.7 0.1 0.4 0.9 1.2l2.9 3.1 0.8-3.9q0.1-0.8 0-1.3-0.2-0.7-1.4-0.4l-0.1-0.4 3.5-0.9zm3.7 10.4q0.6-0.1 0.8-0.2 0.6-0.5 1.3-1.8l1.9-3.6-4.2-5.2q-0.3-0.4-0.5-0.5-0.2 0-0.7 0l-0.1-0.4 6-0.8 0.1 0.4q-1.3 0.1-1.2 0.7 0.1 0.4 0.5 0.9l1.8 2.1 1.2-2.4q0.3-0.8 0.3-1.1-0.1-0.5-1.3-0.4l-0.1-0.4 4.3-0.5v0.4q-0.7 0.1-1.3 0.5-0.4 0.4-0.9 1.2l-1.8 3.3 4.4 5.2q0.5 0.6 0.7 0.8 0.4 0.3 0.9 0.2v0.4l-6 0.8v-0.4q1.2-0.2 1.1-0.7 0-0.3-0.3-0.6l-2.3-2.9-1.4 2.7q-0.4 0.8-0.3 1.2 0 0.4 0.4 0.5 0.2 0.1 0.9 0l0.1 0.4-4.2 0.6zm30.2-2.3q0.9 0 1.1-0.2 0.4-0.3 0.4-1.3l0.4-8.3q0.1-1-0.2-1.3-0.3-0.2-1.1-0.3v-0.4l5.7 0.3v0.4q-0.8 0-1.1 0.2-0.3 0.3-0.3 1.3l-0.2 3.5 4 0.1 0.2-3.5q0-1-0.3-1.3-0.2-0.2-1.1-0.3l0.1-0.4 5.7 0.3v0.4q-0.9 0-1.1 0.2-0.3 0.3-0.4 1.3l-0.4 8.3q0 1 0.3 1.3 0.2 0.2 1 0.3v0.4l-5.7-0.3v-0.4q0.8 0 1.1-0.2 0.3-0.3 0.3-1.3l0.2-3.9-3.9-0.2-0.2 3.9q-0.1 1 0.2 1.4 0.2 0.2 1.1 0.3l-0.1 0.4-5.7-0.3z"/>
	<path id="Path 18" fill-rule="evenodd" class="s0" d="m192.1 246.7l9.8 0.9v0.4q-0.9 0-1.1 0.2-0.3 0.4-0.4 1.6l-0.8 7.6q-0.1 0.9 0.1 1.2 0.1 0.5 1 0.5l-0.1 0.3q-0.1 1.6-0.2 3.4l-0.5-0.1c0-1-0.3-1.8-0.7-2.3q-0.6-0.8-2-0.9l-3.5-0.3q-1.7-0.2-2.6 0.5-0.8 0.5-1.3 2h-0.4l0.5-3.5q1.1 0.1 1.7-0.8 0.6-0.8 1.2-3.5 0.5-2.4 0.7-5 0.1-0.9-0.2-1.3-0.4-0.4-1.2-0.5zm5.3 2.1q0-0.5-0.4-0.7-0.2-0.2-0.9-0.2-1.2-0.1-1.5 0.2-0.3 0.4-0.6 2.3-0.2 2.1-0.8 4.5-0.7 2.4-1.2 3.3l3.6 0.3q0.5 0 0.7-0.1 0.2-0.2 0.2-1zm13.3 0.3q2.4 0.6 3.6 2.7 1.2 2.1 0.5 4.8-0.6 2.7-2.7 4c-1.3 1-2.8 1.2-4.4 0.8q-2.5-0.5-3.7-2.7-1.1-2.1-0.5-4.7 0.6-2.7 2.7-4.1 2-1.4 4.5-0.8zm-2.9 11.8q1.6 0.4 2.7-1.5 0.6-1.1 1.1-3.4 0.6-2.3 0.6-3.6-0.1-2.3-1.7-2.7-1.6-0.4-2.7 1.6-0.6 1.2-1.2 3.5-0.6 2.3-0.5 3.6 0.1 2.1 1.7 2.5zm11.6 4.6l0.4-0.9 0.3 0.1q0.5 0.2 0.7-0.2c0-0.1 0-0.2 0.1-0.5l1-8.4-5.1 7c-0.1 0.3-0.1 0.3-0.2 0.4-0.1 0.2 0 0.4 0.3 0.5l0.5 0.2-0.4 0.9-3.1-1.3 0.3-0.8 0.3 0.1c0.6 0.1 0.8 0 1.3-0.7l5-6.8c0.2-0.2 0.3-0.3 0.3-0.4 0.2-0.4 0.1-0.5-0.5-0.8l-0.3-0.1 0.3-0.9 4.7 1.8-1 10.7c-0.1 0.7 0 0.9 0.5 1.1l0.2 0.1-0.3 0.9z"/>
</svg>