<svg version="1.2" xmlns="http://www.w3.org/2000/svg" viewBox="0 0 298 334" width="298" height="334">
	<title>Kazanlak-pdf</title>
	<style>
		.s0 { fill: #231f20 } 
		.s1 { fill: #ffffff } 
	</style>
	<path id="Path 1" class="s0" d="m296.4 1.1l-25.2 237.7c-1 31.7-11.2 55.1-40.1 67-18.4 7.9-36.7 16.7-56.5 20.4-9.5 1.7-16 4.5-25.8 6.8-9.5-2.3-16-5.1-25.5-6.8-19.8-3.7-38.1-12.5-56.5-20.4-29.2-11.9-39.1-35.3-40.1-67l-25.2-237.7z"/>
	<path id="Path 2" class="s1" d="m155.5 61.8c0.1-0.6 0.3-1.2 0.3-1.2-0.1-0.2-0.6-1.1-0.6-1.1 0 0-0.2-0.3-0.3-0.5 0.3-0.4 0.8-0.8 0.8-0.8l0.6-0.6c0 0 0.4 0 0.8 0 0 0.6 0 2 0 2-0.7 0.2-1.1 1.1-1.2 2.2zm98.2-29.6h-6.8v-25.5h7.1c0 0.9 0 9.4 0 9.4l0.9-1.1 6.8-8.5c0 0 5.3 0.1 6.8 0.2-1 1.3-7.8 10.7-7.8 10.7 0 0 8.3 12.7 9.2 14.1-1.5 0-7.9 0-7.9 0l-7.4-10.7-0.9-1.2c0 0 0 11.7 0 12.6z"/>
	<path id="Path 3" fill-rule="evenodd" class="s1" d="m211.3 15.8c-0.1 0-1.5-0.1-2.2-0.2v-9.3h14c0 0.9 0 7.5 0 7.5h5.6c4.7 1.9 7.7 5.7 7.5 9.5-0.1 3.6-2.9 6.5-7.6 7.9 0 0-10 0-10.9 0 0-1 0-18.7 0-18.7h-2.9c-2.1 0.4-2.9 1.9-3.6 3.3zm11.9 10.3h5.3c1.5-1.2 2.1-2.2 2.1-3.4 0.1-1.2-0.5-2.4-1.8-3.6l-5.1-0.2h-0.5zm-38.1 85.4l-0.5 0.4c0-0.1 0-0.3 0.1-0.4zm8.5-53.9c0 1.2 0 11.5 0 11.5l14.6-2.2-0.7-5.4c0 0-0.5-3.7-0.6-4.5 0.5-0.1 1.7-0.2 1.7-0.2l1.9-0.1 1.8-1.1c0 0 0.3-0.2 0.6-0.5 0 1.6 0 9.8 0 9.8l10.4 0.3c1-0.4 1.9-0.8 1.9-1.8v-0.7q0-0.1 0.1-0.1l1 2.1c0 0 0.6 1.2 0.6 1.2 0 0-0.2 1.7-0.2 1.7 0 0-0.1 0.9-0.1 1.4-0.8 0.1-13.7 0.7-13.7 0.7v0.5l2.8 52.4 2 30.3c0 0 0.3 2.7 0.3 3.3-0.3 0.1-1.7 0.6-1.7 0.6l0.2 1c0 0 3 0.2 3.6 0.3 0 0.6 0.1 2 0.1 2 0 0-0.1 5.8-0.1 6.7-0.8-0.1-6.2-1.3-6.2-1.3l-0.2 0.3c-1.4 2.3-3.4 2.7-5.5 3.1 0-1.2 0.1-6.9 0.1-6.9 0 0-0.1-2.7-0.1-3.3 0.4-0.1 1.9-0.4 1.9-0.4l4.5-1-2-0.5c0 0-1.5-0.5-2.1-0.6 0-0.7-0.3-7.2-0.3-7.2-0.4-0.6-0.9-0.5-1.5-0.5 0 0-0.6 0-0.6 0q0 0 0-0.2c0-0.4-0.1-1.2-0.1-1.2-0.1-1-0.1-1.7-0.6-1.8-0.5-0.2-0.9 0.2-1.1 0.4-0.2 0.4 0.2 14.6 0.2 14.6l0.3 26.9h1c0 0 0-6.5 0-7.2 0.5-0.2 2.4-1 2.4-1 0 0 0.3-7.1 0.3-8h8.6c0 1 1.3 36.3 1.3 37.4-1 0-11-0.5-12.1-0.6 1.1-3.4 2.1-6.9 2.1-10.7q0-1.4-0.2-2.8v-0.4l-3.4-0.9c0 0 0 2.5 0 3.5-4.5-2.5-10.1-5.5-15.5-7.5 0.9-0.9 1.7-1.9 1.7-3q0-0.5-0.1-1l-0.1-0.4h-0.4c-1 0-1.6 0.6-2.2 1.1v-5.1c0.7 0.2 2.6 0.5 3.1 0.6 0.1 0.5 0.4 2.2 0.4 2.2l0.4-0.1c1.2 0 2.5-1.9 3.1-3 0.1-0.4-0.6-3.1-0.6-3.1l-0.7-2.7v-6.2l-0.2-0.3-2-2-0.1 1.1c0 0 0 9.6 0 11.1-1.2-0.7-5.4-3-5.4-3 0 0-3.7-3-3.7-3q0 0 0 0c0-0.3-1.9-5.9-1.9-5.9v-0.3l-0.4-0.1-2.2-0.4v0.7c0 0 0.2 4.6 0.3 5.1-0.3 0.1-1.7 1-1.7 1l-0.1 0.4 0.1 1.4c0-0.2 0.2 4.9 0.2 4.9l0.2 5.7 0.5-0.1 2.7-0.3 3.2-0.4v-0.5-1.8h-0.4-2.4c0 0-1 0-1.6 0 0.1-0.8 0.5-6.1 0.6-6.8h2.6c0 0.1 3.3 2.8 3.4 2.9 0 0-0.1 0.5-0.1 1.2 0 1.3 0.1 3.2 0.1 3.2l0.2 4.7c0 0.2 0.7 2.3 0.7 2.3l0.6 2c0.3 0.3 4.8 2.3 4.8 2.3 0.6 0.4 0.9 0.9 0.9 1.4 0 0.6-0.3 1.1-1 1.5-0.1 0-7.9 1.7-7.9 1.7l-8 1.7v0.5l0.8 7.7c0 0 0.1 2.5 0.2 3.3h-12.5c0.2-1.1 3.7-22.9 3.7-22.9 0-0.4-0.2-6.7-0.2-6.7l-0.2-6.7c0 0-0.6-10.4-0.6-11.1 0.6-0.2 3.7-0.8 3.7-0.8l3.7-0.8c0 0 3.5 0.3 3.5 0.3 1.1 0.8 2.5 1.8 4.1 1l0.3-0.1 0.3-14.7c0-0.2-1.1-2.4-1.1-2.4l-1-2.2c-0.2-0.2-0.7-0.6-0.7-0.6-0.2-0.3-0.5-0.7-1.1-0.7-2.5-0.6-6-0.1-6.6 1 0.2 0.1-0.5-0.3-0.5-0.3 0 0-9.4-0.3-9.9-0.4-0.3-0.5-1.5-2.8-1.5-2.8 0 0-0.3-0.5-0.5-0.9 1.4-0.1 2.7-0.5 3.7-1.5l26.2 0.1c2.4 0.7 2.6 1.4 2.6 1.5 0.1 0.3-0.3 0.7-1.5 1.3l0.2 1h12.3c0.3-0.1 2.3-1.5 2.3-1.5l2.1-1.3c0.2-0.4 0.5-19.8 0.5-19.8v-0.6l-0.3 0.1-1.3 0.1c-0.3 0.1-0.4 0.1-0.5 0q0 0 0-0.3c0-0.2 0-3.9 0-3.9 0.9-0.4 1.5-0.6 1.8-1.4 0-0.5-0.4-4.5-0.4-4.5l-0.3-4.2c0 0-0.2-5.2-0.2-5.2l-0.2-5.1h-0.4c0 0-4.8 0-5.2 0-0.5-0.9-1-1.6-1.6-2.3 0 0 0-0.1 0-0.1q-1.5-1.9-3.5-3.5c1.5-0.1 10.1-0.6 10.1-0.6v-0.5l-0.4-17-0.6 0.2-12.2 3.1-0.1 0.4c0 0-0.3 12.5-0.3 13.4-0.9-0.1-2.8-0.2-2.8-0.2 0 0-2.2-0.1-2.3-0.1 0-0.3 0.3-12.8 0.3-12.8l-0.3-0.1c0 0-2.6-0.3-2.7-0.3q0 0 0-0.3c0-0.9-0.3-3.2-0.3-3.7 0.9-0.3 2.5-0.9 3-2.2 0-0.1 0.5-8.5 0.6-9.7 0.2 0 1.6 0.2 1.6 0.2l1.6-0.4c0 0 0.2-0.1 0.3-0.1zm-17.1 104.6q0 0 0 0zm7.9-50.2v0.1-0.1z"/>
	<path id="Path 4" fill-rule="evenodd" class="s1" d="m154.2 71.3c0.1 0.3 0.2 0.7 0.2 0.7 0 0.1 0.5 3.8 0.5 3.8l0.5 4.2c0 0.1 1.3 2.8 1.3 2.8l1.2 2.7 0.4 0.1c0 0 1.5 0 2.2 0 0 0.6 0 2.3 0 2.3l1.5 0.3c0.2 0.1 0.9 0.4 0.9 0.4l0.5 0.2c0.5 0.6 0.9 1 0.9 1.3q0 0.1 0 0.2c0 0.2-0.4 1.2-0.4 1.2l-0.3 0.5c0 0.2-0.2 2.4-0.2 2.4l-0.2 2.2 0.4 3.1c0.1 0.4 0.9 1.5 0.9 1.5l0.9 1.3 2.2 1.1c0.5 0 1.4-0.3 1.4-0.3l1.1-0.4c0 0 1.7 0 1.8 0q0 0 0 0c0 0.3 2.4 3.3 2.4 3.3 0.3 0.1 2.1-0.3 2.1-0.3l0.7-0.3-0.8-0.5c0 0-2.6-2.9-2.8-3.2 0.1-0.5 0.4-1.9 0.4-1.9l-0.5-0.1c0 0-1.6-0.7-2-0.9v-0.1c0.7 0.2 2 0.4 2 0.4l0.1-0.9c-0.1 0-0.2 0.1-0.2 0.1l0.1-1-2.3-0.3-2.7-0.5-0.1 0.6v1.1c0 0 0.5 0.8 0.7 1.3-0.2 0.3-0.3 0.5-0.3 0.5 0 0-0.2 0.4-0.2 0.5-0.2 0-0.9 0.1-0.9 0.1-0.5 0.1-1.1-0.4-1.1-0.4 0-0.4-0.2-1.4-0.2-1.4-0.2-0.3-0.8-1-0.8-1 0 0 0.1-2.2 0.1-2.3 0.1-0.1 0.3-0.6 0.3-0.6l0.1-0.2 0.1-1-0.2-0.5-0.3-0.7c0.1-0.1 0.4-0.8 0.4-0.8 0.2 0.1 0.8-0.3 0.8-0.3 1 0.1 1.5-1.2 1.8-2.2 0.1 0.2 3-0.4 3-0.4l0.4-0.1 0.1-0.4c0 0 0-1.3 0-1.4 0 0.2 2.2-1.2 2.2-1.2l1.3-0.7c0-0.1 3.5-0.6 3.5-0.6l0.9-0.2-0.8-0.9c-0.3-0.4-0.8-1-1.9-1-1-0.4-2.2 0.4-2.3 0.5-0.4 0.2-1.5 1.2-1.5 1.2 0.1-0.2-3.9 2.8-3.9 2.8q-1.3 0.9-2.7 0.6c-1.5-0.4-3.2-1.9-4.4-4 0.2 0 0.8-0.7 0.8-0.7l0.3-0.5-0.7-0.2c-0.3-0.2-0.6 0-1 0.3-0.2-1.1-0.6-2.3-1.6-2.3-1.1 0.5-1.4 0.3-1.4 0.3-0.1 0-0.1-0.2-0.1-0.5 0-0.5 0.2-1.2 0.2-1.7 0 0 0.1-0.6 0.1-0.6 0-1.6-0.4-3-1.4-4.5-1.4-2.1-1.9-4-1.9-5.7 0-1.9 0.7-3.5 1.4-5.1 1.3 1 2.5 1.5 3.7 1.7 2 0.1 3.5 0.5 5 1.4 2 0.6 3.2 1.6 3.9 2.8l0.1 0.3h4l-2-1.8-2-2.1c-1-0.4-2-1.3-2.7-2.3l-2.1-2.8-1-0.2h-0.6c0 0 0.2 1.4 0.3 2h-0.6c0-0.6 0-1.8 0-1.8 0-0.2-0.3-1.2-0.3-1.2l-0.5-1.3-0.4-0.1-0.2-0.1c0 0-0.1 0-0.2 0 0-0.3 0.1-0.5 0.1-0.8 6.7 0.7 8.7 3.7 12.1 9.8 0.1 0.1 4.1 6.5 4.1 6.5l1.1 0.3h0.6v-12.8c-0.1-0.2-3.9-6-3.9-6-0.2-0.2-4.5-2.9-4.5-2.9l-1-0.6 0.2 1 0.4 1.9c0.2 0.3 1.5 0.7 1.5 0.7 0 0 0.9 0.2 1.1 0.3q0 0 0 0c0 0.2 0.2 0.9 0.2 0.9l0.6 1.2c0 0.1 1 1.6 1 1.6l2.8 3.9c0 0-0.1 4.3-0.1 6.1-0.2-0.2-0.4-0.5-0.4-0.5-0.1 0-1.1-1.8-1.1-1.8-3.8-6.2-6.8-11.1-16.4-11.1l-2 0.4c0.1-0.1 0.1-0.4 0.1-0.7 0-0.1 0-0.1 0-0.2 0.1 0 0.5-0.1 0.5-0.1l0.7-0.9v0.1c-0.3 0.1 1.1 0.2 1.1 0.2l1.6 0.2c0.4-0.1 3.5-2.6 3.5-2.6l2-1.6c2.1-0.5 4.3-0.2 6.7 0.1 0 0.1 1.8 1.9 1.8 1.9 0 0 2.8 0.1 3.6 0.2 0 0.6 0 1.9 0 1.9 0 0.2 5.1 12.7 5.1 12.7v17.5c0 0-0.4 4.9-0.4 4.9l-0.4 5.5h0.6 2.2c0 0 0.3-5.8 0.3-5.9 0.1 0.2 1.5-0.4 1.8-0.5 0 0.3 0.3 2.5 0.3 2.5v10.3l2.5-1.1 0.2-0.4 0.3-7.5c-0.3 0-0.5-1.6-0.5-1.6 0 0 0-0.5-0.1-0.9h0.1c0 0.2 1.7 2.2 1.7 2.2 0 0 0 0.5 0 1.2 0 3.5 0.2 13.8 0.2 13.8v0.5h0.5 1.5c0 0 0-13.3 0-14.3 0.8 0.1 4.7 0.3 5.3 0.3 0.1 0.7 3.3 12.2 3.3 12.2 0 0.1 1.7 7.1 1.7 7.1 0 0 0.3 8.1 0.3 8.1 0 0 1.1 0.4 1.1 0.4 0 0 0 0.4 0 1.1 0 1.8 0.1 4.8 0.1 4.8 0 0 0.2 6.3 0.2 6.3-0.1 0-0.5 1.6-0.5 1.6l-0.5 1.6c-5.8 4.4-11.3 3.7-15.8-2.1 0-0.1-2.9-5.7-2.9-5.7l-2.9-5.8-0.9 0.2v3.7c0 0.2 3.4 6.5 3.4 6.5 0 0 0.8 1.4 1.3 2.2-1.7 0-25.3 0-25.3 0-0.4 0.2-1.9 2-2.2 2.3-0.2 0-0.4-0.1-0.4-0.1 0 0-0.1 0-0.2-0.1q0 0 0 0c0-0.5-0.6-2.9-0.6-2.9 0 0-0.5-2-0.7-2.7 0.9-0.1 5.9-0.9 5.9-0.9 0 0 12.9-2.1 12.9-2.1 1.9 0 3.2-0.8 3.2-2.2v-0.4l-2.3-0.2c-1.8-0.1-3.7-0.2-5.6 0.9-0.1 0-8.6 1.6-8.6 1.6l-9.2 1.8 0.2 0.5c1.1 4.7 1.7 8.1 1.7 11.1 0.1 0.4 2 2 2 2l4 3.2c0.1 0.1 5.4 1.2 6.5 1.4v0.9c-0.1 0-2.2 2.4-2.2 2.4l-2.4 2.7c0 0-4 2.7-4 2.7 0 0-4.3 1.3-4.3 1.3l-3 1c-2.8 2-3.9 3.4-3.4 4.7l0.1 0.5 0.5-0.1c3-0.7 6.4-2.4 10-4.9 0 0 6.1-4.7 8.1-6.2v7.8c-0.5 0.2-3.1 1.4-3.1 1.4v0.3 31l-1.7 15.6c0 0-0.2 2.6-0.2 2.6l-0.1 4c0 0.1 0.6 23.5 0.6 24.5-0.9 0-5-0.2-6-0.3 0 0 0.2-0.8 0.2-0.8 0.1 0.2 4-4.1 4-4.1 0.1-0.5-0.6-12.6-0.6-12.6h-1l-0.1 0.9c0 0-0.5 8.4-0.5 8.6-0.2 0-1.6 1.3-1.6 1.3 0 0-0.6 0.7-0.7 0.7 0-0.1-3.3 0.1-3.3 0.1 0 0-1.9 0.1-2.6 0.1 0-1-0.7-29.1-0.7-29.1h-1c0 0-2.9 26.2-3 27.1h-22.3q0 0 0 0c0-0.1-0.5-0.4-0.9-0.8 0.7-0.4 1.8-1 1.8-1 0.1-0.1 9.9-9.2 9.9-9.2 0.2-0.2 3.4-7 3.4-7 0 0 3.1-6.6 3.2-6.7 0 0.1 0.7-0.1 0.7-0.1 0 0 0.2-0.1 0.2-0.1-0.4 4.5-1.8 9.5-4.5 15.7l-0.4 8.2h3.6l2.2-10.3 1.3-13-0.3-7.9c-0.2-0.3-2.2-3.9-2.2-3.9 0 0-0.2-0.6-0.4-1 0.5-0.3 4.4-2.8 4.4-2.8 0 0 0.8-0.6 0.8-0.6l3.9-2.8c0.3-0.3 0.6-1.1 0.6-1.1 0.8-2.6 1.7-5.3 1.7-7.7 0-2.1-0.6-4-2.5-5.6l-0.9-0.8v1.2q0.1 1.6 0.1 3.2c0 3.4-0.5 6.7-2.1 10.5-0.1 0-1.5 0.8-1.5 0.8 0 0-0.4 0.3-0.7 0.5 0.1-1 0.8-5.4 0.8-5.4 0-0.1-0.7-4.6-0.7-4.6v-0.5l-0.5 0.1h-1.5l-0.3 10c-0.9 2.4-1.9 3.1-2.8 3.8l-1.2 1-0.1 13.2-6.1 11c0 0-5 6.7-5 6.7 0 0-3.7 3-3.7 3 0 0-2.9 2.4-3.4 2.8-0.3-0.2-1.1-0.9-1.4-1.1 0.4-0.7 9-16 9-16q0-0.1 0-0.4c0-1.1-0.1-4.1-0.1-4.1l-0.2-4.6-1-0.3-1.6-0.4 0.2 0.8q0.1 1.2 0.1 2.4c0 2.4-0.3 4.6-1.1 6.9 0 0-4 6.6-4 6.6-1.7 4.1-3.6 6-5.8 7.9-0.6-0.4-18-10.2-18.7-10.5 2.5-10.8 5.6-22.9 10.7-30.1l8.4-9.7-0.5-0.9-0.6-1.6-0.6 0.3-8.5 7.1c-4.1 5.5-6.9 13-8.6 23.1 0 0-3.4 9.2-4 10.7-0.8-1.8-4.3-9.5-4.3-9.5-0.9-8.2-1.9-16.9-5-24.4 0 0 0-8.6 0-8.6 0.1 0 2.3-2.5 2.3-2.5l2.3 0.2h7.2c0 0 1.1-3.4 1.1-3.4 0.1 0.2 32.6-10.2 32.6-10.2l5.2-1.7c6.1-2.9 9.8-6.1 11.5-9.8 0 0 0.6-1.9 0.7-2.1 0 0.4-0.1 0.7-0.1 1.1 0 3.1 0.7 6.5 1.9 9.8 1.2 2.4 2.5 2.1 3.8 1.7 2-1.7 4.6-2.7 8.3-3.1 1-0.8 1.3-1.6 1.2-2.3q-0.1-0.7-0.7-1c-0.4 0-2.9 0.7-2.9 0.7 0 0-6.8 2-7.6 2.2-0.2-0.6-1.2-3.6-1.2-3.6v-8.4c-0.1-0.3-1-0.8-1-0.8 3-7.7 4.9-14 5.8-20.2 0.1 0 0.1-0.1 0.2-0.1v0.5l26.3 0.7 0.4-0.5v-2.7c-0.1-0.3-0.9-1.5-0.9-1.5l-1.6-2.5-0.9 0.5c0 0 0.3 1.6 0.3 1.7-0.1 0-0.7 0.6-0.7 0.6l-0.8 0.8-9.2-0.1c-1-1.2-2-3.4-2.9-5.5 0 0.1-1-5.7-1-5.7v-4.6c-0.2-0.4-1.5-0.9-1.5-0.9l-0.8-0.2 0.3 0.8 0.6 9.9c0 0 1.8 5.8 1.8 5.8-0.1 0.1-0.1 0.2-0.2 0.4-0.5 0-6.8 0-6.8 0 0 0-1.1 1.7-1.3 2h-0.9c0.3-0.5 0.6-1.3 0.6-1.3l0.7-2.1c0-0.1 0.2-1.3 0.2-1.3 0.2-1.3 0.3-2.7 0.3-4.1 0-1.2-0.1-2.5-0.5-3.7-1.8-3.4-4.8-5.1-7.4-6.5 0 0-2.4 0-3.1 0v-0.2c0 0.2 3.8-3.3 3.8-3.3 0.1 0 6.5-5.1 6.5-5.1 0.2-0.3 0.6-3.8 0.6-3.8v-0.6l-0.6 0.1c0 0-0.1 0-0.1 0 0-0.9 0-5.7 0-5.7-0.4-0.1-1.3-2.3-1.3-2.3l-0.9-2.8-0.4-0.1h-1c-0.2 0.1-0.4 0.2-0.5 0.4 0-0.4 0.2-1.1 0.2-1.1l0.1-0.6c0-0.1 0.4-3.7 0.4-3.7 0.4-0.3 0.6-0.8 0.8-1.5zm11.4 41.8q0 0 0 0 0 0 0 0zm7.8 13.4q0 0 0 0 0 0 0 0zm-10.9-43q0 0 0 0.1 0-0.1 0-0.1zm-63.6 102.3l-0.6 0.5-1.6 1.1-1.1 0.9c-0.1 0.1-1.2-0.1-1.2-0.1l-1.1-0.2-3.2-0.3-0.5 0.8c0 0 2.2 1.4 2.6 1.7 0 0.3 0.4 2.6 0.4 2.6l0.5-0.1c1.4-0.3 2.5-0.7 4-2.2 1.2-0.5 1.8-1.8 1.8-3.7zm7.5-5.3l-0.2-1c-2.5 0.3-5.8 0.4-8.2-1-3.4 1.6-6.4 0.6-8.9-0.7l-0.9-0.4 0.2 1c0.2 1.4 0.8 4.7 4.2 5.2 0.1 0 4.3-0.4 4.3-0.4l4.3-0.3c0.2-0.1 2.3-1.1 2.3-1.1zm37.5 5.5l-2.9-2.4-0.2 0.6-2.4 5.1-4.1 6.1-6.2 2.2-5.2 4.5-0.5 5.8-4.1 6.9 0.9 0.6 5.4-5.8 2.2-7.7 8.9-4.1 4.9-5.5zm51.6-71.6l0.7 3.1 3.8 5.6 0.2 3.2 1.5 2.6 0.7 1.2c0 0 0.4-2.6 0.5-3.1 0.4-0.1 1.7-0.4 1.7-0.4l-8.2-12.5zm-29.8-42.7l-0.2-0.5-0.8-0.1-1.4 0.6-0.1 0.1-0.2 0.4q-0.1 0.2-0.2 0.4c-0.3 0.7-0.6 1.4-0.1 1.9 0.1 0 0.7-0.2 1.3-0.5 0.1 0 0.1 0 0.2 0l0.9-0.5c0.6-0.6 0.8-1.3 0.6-1.8zm2.9-2.9l-1-0.3c-4.1-1.1-6.6-0.1-7.7 2.9q0 0.1-0.1 0.1l-0.7 1.6 1.5-0.9c1.7-1.1 3.7-1.7 5.5-1.7h0.3l0.2-0.3 1.1-0.8zm10.4 26.1q0 0 0 0.1c0 0.7 0.3 3.4 0.3 3.4 0 0-0.1 1.6-0.1 1.6 0 0-0.5 1.6-0.5 1.6l-0.4 1.6c-0.1 0.2-0.3 4.6-0.3 4.6l-0.1 5 0.5-0.1h1.8v-5.9l0.3-0.8c0 0 0.4-1.2 0.4-1.2v-0.1c0.1-0.2 0.2-1.1 0.2-1.1l0.4-1.6c0.1-0.3 0.5-1.3 0.5-1.3l0.2-0.5c0.2-0.7 0.4-0.9 0.5-0.9 0.1-0.1 0.4 0 0.8 0.4-0.2 0-0.2 5.9-0.2 5.9v6.8h0.5 1.2l0.8-7.2c0 0 0.1-1.7 0.2-2.7 1 0.5 1.9 1.5 2.5 2.8l3.7 8.1c0.5 0.6 0.8 0.9 1.2 0.8 0.4 0 0.6-0.3 1.1-1-2.1-5.9-4.8-10.3-9.3-15.6 0 0-2.9-0.1-3-0.2q0 0 0-0.1c0-0.3-0.5-1.7-0.5-1.7-0.6-1.4-1.1-2.9-2.3-3.8 0 0-1-2.3-1-2.3l-0.2-0.6c-0.4-0.3-1.1-0.5-1.1-0.5-1.1-0.3-2.1-0.7-3.4 0.3l-0.5 0.4 1.1 1 0.9 0.9c0 0 1.2 1.4 1.2 1.4l0.6 0.5zm0.3-3.2q0 0 0 0 0 0 0 0zm1.6 13.2v-0.2q0 0 0 0zm-1.9-10q0 0 0 0zm-11.7 21.8l1.1-0.9c0.3-0.1 0.6-0.4 0.6-1.2 0.1-0.1 1.2-5.2 1.2-5.2l0.2-1.1c0-0.1 1.1-3.3 1.1-3.3l-0.9-0.4-0.6-0.4-0.3 0.5q-0.6 2.9-2.1 3.7l-0.3 0.1zm1.7-2q0 0 0 0 0 0 0 0zm-12.2-15.1l1 2.4 0.5 0.9 2.5-4.6 0.1-4.5h-1.9l-0.8 2zm-36-67.7c-0.8 0-4.4-0.2-5.4-0.3 0.3-1.1 6.7-23.8 6.9-24.5h6.3c0.2 0.7 6.9 23.3 7.2 24.5h-6c-0.1-0.7-0.7-4.8-0.7-4.8h-7.7c0 0-0.5 4.3-0.6 5.1zm1.1-8.1h7.1l-3.3-12.6-0.6 1.7zm-59.9 8.1c-0.7 0-4.4-0.2-5.4-0.2 0.3-1.2 6.4-23.9 6.6-24.6h6.3c0.2 0.7 7.2 23.3 7.5 24.5h-6c-0.1-0.7-0.6-4.7-0.6-4.7h-7.7c0 0-0.6 4.3-0.7 5zm0.7-8.1h7.5l-3.3-12.5-0.5 1.6zm123.8 7.2h-5.4c0.4-1.3 8.3-23.9 8.5-24.5h5c0.2 0.7 6.2 23.6 6.5 24.8h-5.7c-0.1-0.8-3.3-16.3-3.3-16.3h-1c0 0-4.4 15.3-4.6 16zm-98.1-17.7h-3.4v-6.5h17c0 0.9 0 6.7 0 6.7l-3.3 3-0.1 3.7 1.9 1.8-0.2 1.7 1.4 2-0.1 2.4-1.9 1.7c0 0 0 1.2-0.1 1.8h-6.7c0.5-0.8 1.2-1.9 1.2-1.9l0.1-4-2.5-4.3 0.1-4.6 2.5-2.3 0.2-3.4v-0.4l-2.7-1.1-1.6-0.1-1.7 1.9c0 0-0.1 1.2-0.1 1.9zm-59.6 19h-6.8v-25.5h6.8c0 0.9 0 9.5 0 9.5l1-1.2 6.8-8.5c0 0 5.6 0.2 7.1 0.2-1 1.4-7.8 10.7-7.8 10.7 0 0 8.3 12.7 9.2 14.1-1.5 0-7.9 0-7.9 0l-7.4-10.6-1-1.3c0 0 0 11.7 0 12.6zm127.6-0.7h-6.1v-24.4h6.1c0 0.9 0 8.8 0 8.8h5.8c0 0 0-7.9 0-8.8h5.8v24.4h-5.5c0-0.9 0-10.2 0-10.2h-6.1c0 0 0 9.3 0 10.2zm-24.2 35.9c-0.1 0.4-0.4 1.6-0.4 1.6h7.9c0 0 0.3-13.1 0.4-14.4 1 0.4 4.6 1.8 5.1 2 0 0.6 0 12.3 0 12.3 0 0 5.1 0.3 6 0.4-0.1 0.8-0.4 3.8-0.5 4.4-0.8 0-6.9 0-6.9 0v11.8l4.7 3.1c0 0 0 2.7 0.1 3.5-0.9 0.1-7.5 0.4-7.5 0.4 0 0-0.3 17.8-0.3 18.9-0.9-0.1-4.3-0.7-4.3-0.7 0 0-0.3 0.8-0.4 1.1 0.4-15.1 0.9-38.4 0.9-38.4 0 0-8.5-0.3-9.3-0.3-0.1-0.7-0.9-4.7-0.9-4.7 0 0 1.1-2.3 1.4-3 0.7 0.3 3.4 1.7 4 2zm3.8 48.8c0 0 2.7 0.3 3.4 0.3 0 0.7 0 2.6 0 2.6 0 0-2.9 8.5-4 11.6-0.2-2-0.4-4.5-0.4-4.5l0.8-0.2c0 0 0.1-6.8 0.2-9.8zm-88.6-18.5c-2.4-3.7-3.7-8.2-3.7-12.6 0-3.5 0.8-7 2.5-10.1 2.9-5.6 8.3-8.9 14.9-9.3-3.8 5.8-5.8 11.6-5.8 17.3 0 8.4 4.2 16.5 12.4 24.4-8.9 0.3-16.1-3.1-20.3-9.7zm103.9-8.8c0 0 1-3.2 1.7-5.2 0.6 2.4 1.7 8 1.7 8 0 0 0.2 0.6 0.3 1-0.6 0.4-4.5 2.9-4.5 2.9l0.1-1.3 0.6-0.7c0 0 0.1-4.7 0.1-4.7zm-75.2 165.5c-1.4-0.3-2.3-0.7-3-1.5 4.7-2.4 8.6-5.6 11.5-9.7 1.7 0 2.9 0.8 4.5 3.1q0 0 0 0.2c0 0.7 0.1 2.5 0.1 2.5 0 0 0.1 2.2 0.2 3-0.9 0-4.6 0-4.6 0 0 0-2.3 2.1-2.4 2.1 0-0.1-1.3 0.2-1.3 0.2-1.7 0.3-3.3 0.6-5 0.1zm-7.8-113.5c-2.6-3.2-4.1-6-4.1-8.4q0-0.6 0.2-1.2c0.8-4.7 6.8-7.8 13.1-11-3.4 6.7-6.9 13.6-9.2 20.6zm-0.8 4.3c-0.8 3.7-2.1 7.4-4.2 11.4 0 0 1 10.2 1.2 11.7-1.2-0.5-4.7-2-4.7-2-1.9-10-2.6-19.8-2.6-28.4 0-15.7 2.3-27.3 3.5-28.5 0 0.4 0.1 1 0.1 1 0.4 2.6 0.6 5.2 0.6 7.8 0 3.3-0.3 6.7-0.5 9.9-0.2 3.3-0.4 6.6-0.4 9.9 0 4.5 0.4 8.9 1.7 13.2l0.2 0.7 0.6-0.4c1.9-1.4 3.2-3.8 4.4-6 0 0 0.1-0.3 0.1-0.3zm2.8-3.3c0.6-1.2 10-19.2 11-21.1 0.9 2.5 1.5 5.4 1.5 8.4 0 3.9-0.9 7.6-3 10.2-2.2 2.6-5.5 3.3-9.5 2.5zm41.4 13.5c7.6-6 14.3-10.4 20.6-13.7 2.8-1 4.2-4.4 5.4-7.8 0 0 9.6-26.9 9.8-27.4q0.9-1.6 2.2-1.7c1.4-0.1 3.3 1.2 5.5 3.8q0.2 1.4 0.2 2.9 0 2.5-0.7 5.5c-3.4 8.6-5.8 16.7-7.1 24.8 0 0-0.6 1.1-0.6 1.1-2 4.1-4 8.1-7.1 8.4-0.2 0-6.8 2.4-6.8 2.4-6.8 2.4-13.9 4.9-20.7 8.5 0.1 0-2.7 1.2-2.7 1.2l-2.6 1.2c-1.8-1.1-3.1 0.2-3.8 0.9 0 0.1-0.7 0-0.7 0-0.5-0.1-1.3-0.4-2.1 0.1-0.2 0.2-0.6 0.3-0.9 0.4 0-0.1 0-0.3 0-0.3 0-0.2 0.6-0.6 0.6-0.6l2.2-1.6h-1.6-1.4c-2.7 2.2-3.8 4-4.2 6.2 0-2.4 0.6-3.4 2.2-5.3l0.3-0.4-0.6-0.5c-0.1-0.2-0.5-0.7-1.3-0.3-2 1.2-4.1 4.1-4.2 7.5-0.6 0.2-0.9 0.1-1.4-0.1 1.1-4.1 2.5-7.2 6.5-10.6 0.3-0.6 1.3-1.6 5.9-2.3 3.1-1.7 6-2 9.1-2.3zm-92-118.1h250.6v3.1h-250.6zm28.2 236.7h192.5v2.7c-1 0-49 0-49 0 0 0 0 4.7 0 5.5-0.9 0-9.3 0-9.3 0l-0.2 0.3c-2 4.9-4 8.6-6.3 11.4l-0.3 0.4c0 0 3.7 4 4.3 4.7-0.7 0.6-11.1 9.6-11.8 10.2-0.6-0.6-4.7-5-4.7-5l-0.3 0.2c-3.3 1.8-6.7 3-10.1 3.6l-0.4 0.1c0 0 0 4.5 0 5.4h-15c0-0.9 0-5.7 0-5.7l-0.3-0.1c-4.5-1.1-8-2.5-11.1-4.4l-0.3-0.1c0 0-4.4 3.7-5 4.3-0.7-0.7-9.6-10.5-10.3-11.2 0.7-0.5 3.7-3.3 3.7-3.3l-0.2-0.4c-1.9-2.8-3.6-6.1-5.1-9.7l-0.1-0.4c0 0-6.4 0-7.3 0 0-0.8 0-5.8 0-5.8 0 0-52.4 0-53.4 0zm67.5 2.8l0.2 0.6c3.6 15.3 16 25.6 30.8 25.6 14.8 0 28.1-10.8 31.7-25.6l0.2-0.6h-4.8l-0.1 0.3c-3.5 12.6-13.9 21.1-26 21.1-12.6 0-23.7-8.9-26.4-21l-0.1-0.4zm15.2 0l0.3 0.6c2.5 6.8 8.8 11.3 15.8 11.3 7.3 0 13.6-4.4 16.1-11.3l0.3-0.6zm-60.2-184.7c-2.7 0-5.3-3.4-5.3-7 0-3.8 2.3-7 5-7 2.7 0 5.9 3.1 5.9 7 0 3.5-2.8 7-5.6 7zm14.6-19.3c0.7 1.1 1.3 2.7 1.3 4.7 0 3.3-2 7.6-8.3 12.7 0.4-1.6 0.8-3.2 0.8-4.6 0-3.3-1.1-6-3.2-8-2.6-2.3-6.3-2.9-9.3-1.5-2.8 1.3-4.3 4.2-4.8 7.8-0.8-2.7-1.3-5-1.3-7 0-6 3.2-8.6 5.6-9.7 6.2-3 15.7-0.2 19.2 5.6zm3.8 4.3c2 4.3 3.2 8.4 3.2 12.1 0 4-1.2 7.5-3.6 10.4-3.9 4.8-10.7 6.7-16.7 4.9-6-1.8-10-7-11.1-14.3 6.3 4.5 11.9 6.1 16.5 4.5 5.3-1.9 9.2-7.9 11.7-17.6zm100.9 144.9l-0.1 27.7c0 0 1.2 3.9 1.5 5h-6c0.3-1.1 1.4-4.8 1.4-4.8l0.1-27.7c0 0-3-7.2-3.5-8.4h9.7c-0.5 1.2-3.1 8.2-3.1 8.2zm7.4-27.4c0.4 0.2 0.9 0.3 0.9 0.3 2.5 0.8 5.2 1.7 8.5 3.9-0.2 0-0.2 3.5-0.2 3.5-0.6 2-2 3-4.3 3 0 0-4.5-0.2-5.2-0.3 0-0.9 0.3-9.2 0.3-10.4zm17.2 63.5h4.1c-0.2 0.8-1.3 5.2-1.8 7.4-0.7-2.2-2-6.5-2.3-7.4z"/>
	<path id="Path 5" fill-rule="evenodd" class="s1" d="m154.6 254.6l-0.7 0.3 0.3 0.6c2 2.4 3 4.7 3 6.8q0 0.5-0.1 1.1c-0.4 2.6-2.5 5.2-6.2 7.7 0-0.1-47.4 0.7-47.4 0.7l-13.9 0.2c-4.3-1.4-7.3-4.8-7.6-8.9-0.3-3.7 1.8-7.1 5.4-8.8h43.7l0.2-1-1.8-0.4c0 0-1.1-0.2-1.4-0.2-0.1-0.3-0.1-0.5-0.2-0.8 0.2-0.2 2.5-3.1 2.5-3.1l4.9-6.3q0 0 0-0.1c0-0.5-0.3-1.6-0.3-1.6l-0.5-1.8h-0.4-1.1v2.9c-2.7 3.3-6.2 6.7-10.4 9.8 0 0-3.1-0.1-5.1-0.1 0.4-0.2 4.5-2.8 4.5-2.8l-1.8 0.1h-5.8c-2.2-4.3-5.6-6.3-8.3-7.5-1-4-3.4-7.6-6.7-10.1l-0.4-0.4-0.6 1-0.5 1.5c4 7.7 8.7 13.6 14.3 18.2h-19.7c0-0.9 0-7.3 0-7.3l-0.4-0.2c-3.4-1.2-5.3-2.6-5.6-4.2q0-0.2 0-0.4 0-1.9 2.8-4.4c0 0 6.6-11.3 7-12 8.8 2.4 17.9 6.2 28.4 12.1l23.7 0.1c0 0 0.5-0.2 0.7-0.2 0 0.2 0.2 1.3 0.2 1.3 0.2 0.4 0.4 0.7 0.4 0.7 0.1 0.3 0.2 0.9 0.8 0.9 2.1 0.2 4.6-0.5 7-1.3 0 0 0.4-0.1 0.5-0.1-0.5 0.4-1.1 0.8-1.1 0.8l-0.1 4.8v0.5c0 0 2.9 0.3 3.7 0.3 0 1-0.3 7.7-0.3 7.7-1.6 1.7-3.2 2.7-4.9 3.7-0.5 0.1-0.7 0.2-0.7 0.2zm-37.1-11.8l-0.9-1.8c-0.9-2.9-2.8-5.5-6-7.7l-3-2.4-7.8-4.4-0.2 0.7-0.4 2.3 4 2.9 3.1 2.4 4.7 3.7 5 5zm22.2 7.8l0.3 0.3h2.3l1.1-0.8 0.5-0.2c0 0 0.3-0.5 0.5-0.7 0.3-0.1 0.8-0.2 0.8-0.2l0.3-0.7c0 0 0-0.9 0.1-1.4 0 0 0.7 0 0.7 0v-2.6l0.3-6.5v-0.4l-2.4-0.6v3.8l-0.3 2-2.6 3.5-0.1 1.6-0.9 0.7-0.5 1.6zm8.3 9.5h-57.5v5.1h57.5zm6.3-13.8l0.4-0.7 0.1-5.1v-0.5h-3.4v3.9q-2.8 3.1-3.4 7.5v0.3l0.8 0.2c0.2 0.1 0.7 0.3 1.1-0.1 1.5-1.2 3.1-3.5 4.4-5.5zm1.9 7.3c2-1.7 2.8-5 2-8.1l-0.2-0.9-0.6 0.7c-2.2 2.2-4.4 5.2-5.9 8.3l-0.3 0.4 0.5 0.3c1.6 0.7 3.2 0.4 4.5-0.7zm61.6-33.6v27.7c0 0 0.5 4 0.6 4.9h-4.6c0.2-0.9 0.9-4.8 0.9-4.8v-27.7c0 0-3-6.8-3.5-8h9.4c-0.4 1.2-2.8 7.9-2.8 7.9zm-62.3-164.7c0 0 0.4 0 0.8 0 0 0.1-0.2 0.7-0.3 0.8 0-0.1-1.3-0.3-1.3-0.3 0 0-0.1 0-0.2 0 0.3-0.1 0.4-0.3 1-0.5zm4.8 1.7c0 0.6 0 2.2 0 2.2 0 0 0.3 1.2 0.5 1.9h-1.6c0-0.7-0.2-3.4-0.3-4.3 0.6 0 1 0.1 1.4 0.2zm19.4 87.1c0 0.7 0 2.2 0 2.2l2.5 3.1c0 0-0.1 7.7-0.2 8.7h-8.1v-11.1c1.4-0.3 2.9-0.9 3.4-2.9zm-7.9 113.7c1 0 3.8 0.2 4.7 0.2-0.2 0.9-1.5 5.4-2.1 7.4-0.7-2-2.2-6.6-2.6-7.6zm3.2-31.7v21.9c0 0 1.1 6 1.2 7h-5.5c0.1-1 1.2-6.9 1.2-6.9v-21.9c0 0-3.8-10.8-4.2-12h11.2c-0.4 1.2-3.9 11.9-3.9 11.9zm13.4 39.8c-0.7-1.8-2.6-6.8-3-7.8h5.7c-0.3 1-2.1 6-2.7 7.8zm4.9-54.8h-10.1c0.2-1 1.3-9.6 1.3-9.6 1.5-0.9 4.6-1.5 8.5-1.6 0.1 1 0.3 10.3 0.3 11.2z"/>
</svg>