<svg version="1.2" xmlns="http://www.w3.org/2000/svg" viewBox="0 0 974 1219" width="974" height="1219">
	<title>Kazanlak-pdf</title>
	<style>
		.s0 { fill: #2c2e35;stroke: #2c2e35 } 
		.s1 { fill: #d8d9da;stroke: #2c2e35 } 
		.s2 { fill: #f5f6f6;stroke: #2c2e35 } 
		.s3 { fill: #2c2e35;stroke: #2c2e35;stroke-width: .4 } 
		.s4 { fill: #2c2e35;stroke: #2c2e35;stroke-width: 8 } 
		.s5 { fill: #67c8e6 } 
		.s6 { fill: #f92c16 } 
		.s7 { fill: #2c2e35 } 
		.s8 { fill: #ffeb3d;stroke: #2c2e35;stroke-width: 4 } 
		.s9 { fill: #f92c16;stroke: #2c2e35;stroke-width: 4 } 
		.s10 { fill: #ffeb3d } 
		.s11 { fill: #ffeb3d;stroke: #2c2e35;stroke-width: 2 } 
		.s12 { fill: #ffeb3d;stroke: #2c2e35;stroke-width: .4 } 
		.s13 { fill: none;stroke: #2c2e35;stroke-width: .4 } 
		.s14 { fill: #ffee64 } 
	</style>
	<path id="Path 1" class="s0" d="m750.8 97.9c-5 24.4-11.1 52.4-6.9 65.1-191.4-46.3-328.2-42.5-516.3-1 0-15.7-2.3-41.2-4-63.8 142.3-51.4 393.3-65.2 527.2-0.3z"/>
	<path id="Path 2" class="s1" d="m749.1 98.5c-11.6 21-10.2 40.7-5.2 58.4-200.4-44.4-334-40.2-513-1.2 0.1-20.9 9-40.8 1.9-61 106.5-37.4 357-72.5 516.3 3.8z"/>
	<path id="Path 3" class="s0" d="m787.1 63.1l-5.7 22.8c-34 14.7-32.5 41.6-38.6 73.2-61.3-19.9-38.6-8.9-106.8-23.4 6.5-31.3 25.5-54.5 3.5-85.5l5.2-26.5c49.1 9 89.4 20.4 142.4 39.4z"/>
	<path id="Path 4" class="s2" d="m781.3 64.3l-6.7 22.1c-34.7 13.5-31.7 46.5-36.1 72.2-42-10.8-42.8-9.2-94.4-20.7 4.7-24.1 23.5-64.8 2.4-86.6l4.8-22.6c44.1 7.7 90.3 21.9 130 35.6z"/>
	<path id="Path 5" class="s3" d="m739.8 70.3l-3.1-0.9 7.5-19.4 3.1 0.9z"/>
	<path id="Path 6" class="s3" d="m687.4 53.7l-3.2-0.6 6.1-19.6 3.2 0.6z"/>
	<path id="Path 7" class="s3" d="m729.9 113.6l-3.1-1 8.3-21.6 3.1 1z"/>
	<path id="Path 8" class="s3" d="m708 79.7l-3.2-0.8 7.1-18.3 3.1 0.8z"/>
	<path id="Path 9" class="s3" d="m751.4 97.8l-3-1.3 10.2-20 3 1.3z"/>
	<path id="Path 10" class="s3" d="m678.8 98.2l-3.2-0.7 6.1-21.4 3.2 0.8z"/>
	<path id="Path 11" class="s3" d="m662.1 69.4l-3.2-0.5 4.5-19 3.2 0.5z"/>
	<path id="Path 12" class="s4" d="m828.1 173.9l-0.6 58.3c-77.7 54.5-13.5 187.4 30.4 230.5l3.1 124c-107.2 71.8-35.6 260.9-8.4 298.2-12.1 116.6-102.7 147.1-195.2 164.5-39.9 7.6-139.8 19.3-171.4 47.3q-0.4-0.2-0.7-0.5-0.4 0.3-0.7 0.5c-31.7-28-131.6-39.7-171.5-47.3-92.5-17.4-181.8-47.9-193.9-164.5 27.2-37.3 97.5-226.4-9.7-298.2l3.1-124c43.9-43.1 108.2-174.2 30.4-228.6l-0.6-58.3c89.5-13.3 226.7-20.8 342.9-18.4 116.1-2.4 253.4 3.3 342.8 16.5z"/>
	<path id="Path 13" class="s0" d="m586.5 5.7l-0.9 31.6c-27 33.2-16.1 42-17.2 92.5-62.8-3.8-105-7.6-162.9 0.3-2.5-40.1 6.2-58.3-21-92.2v-30.5c76.5-7.8 121.2-9 202-1.7z"/>
	<path id="Path 14" class="s2" d="m578.6 9.1l-0.9 29.4c-25.7 31.3-15.3 39.5-16.4 86.9-60.1-3.5-92.8-6.3-148.2 1.1-2.4-37.6 5.9-54.7-20.1-86.4l-0.9-29.5c74.4-5.9 110.5-7.5 186.5-1.5z"/>
	<path id="Path 15" class="s5" d="m820 184.7l-2.5 45.3c-75.9 53.1-11.3 194.5 31.6 236.6l3 121.1c-104.7 70-34.7 262.3-8.2 298.8-11.8 113.8-100.3 139.8-190.6 156.8-38.9 7.3-136.4 18.8-167.4 46.2q-0.3-0.3-0.6-0.6-0.4 0.3-0.7 0.6c-30.9-27.4-128.4-38.9-167.4-46.2-90.3-17-177.5-43-189.3-156.8 26.5-36.5 95.2-228.8-9.5-298.8l3.1-121.1c42.8-42.1 103.6-181.7 27.7-234.8l1.3-45.3c87.4-13 221.4-20.3 334.8-18 113.3-2.3 247.3 3.3 334.7 16.2z"/>
	<path id="Path 16" class="s6" d="m821.2 180.8l-0.6 51.1c-52.5 36.6-38.9 119.3-11.4 174.9-219.1-25.4-435.1-26.3-647.7 0 27.4-55 40.8-136.6-11.6-173.1l-0.5-51.1c87.6-12.9 222.1-20.3 335.9-17.9 113.7-2.4 248.2 3.2 335.9 16.1z"/>
	<path id="Path 17" class="s7" d="m103.2 857.3c-35.2 17.8-63.7-27.1-74 51.7l-5.4-68.8c-3.2-47.3 54.9-19.7 79.9-33.6zm22.1 114.5c-14.5-51.5-92.5 7.8-97.1-62.8l-4-78.5c1.6 85.7 73.5 29.1 89.6 66.8zm-121.7 74.5c-9.6-117.6 127.9-12.6 110.1-144.7l16 80.6c7.1 43.3-15.1 53.9-31.2 59.2-36.1 12.9-93.3 0-86.8 87.6zm870.2-243.5c25 13.9 83-13.7 79.9 33.6l-5.4 68.8c-10.3-78.7-38.8-33.8-74-51.7zm-10.1 90.7c16.1-37.7 88 18.9 89.6-66.8l-4 78.5c-4.7 70.6-82.6 11.3-97.1 62.8zm-5.7 130.3l8.6-32.3v4.6l-7.8 29.2zm107.8 101.4c6.6-87.6-50.7-74.7-86.7-87.6-16.1-5.3-38.4-15.8-31.2-59.2l15.9-80.6c-17.8 132.1 119.7 27.2 110.2 144.7zm-962.2-96.1c4.1 77.9 50 54 61.2 33.4 23.3-45.2 51.7-72.8 96.1-38.6 181.1 152 444.3 170.9 651.2 8 46.8-37.4 68.5-21.7 99.1 30.6 11.2 20.6 56.1 36 62.9-34l-5.4 90.7c-5.5 38.9-34.1 45.9-58.9 37.5-16.7-6.7-24.3-30.3-29.6-47.7-6.4-25.9-16.1-40.3-54.9 0.3-153 151-512.5 138-662.9 7-31.1-27.3-46.8-48.4-67.5-3.6-8.3 18-19.3 35.3-34.3 44.3-24.9 12-46.9 0-52.4-38.9z"/>
	<path id="Path 18" class="s8" d="m102.4 848.4c-35 17.7-63.4-26.7-73.7 51.1l-5.3-68c-3.1-46.7 54.6-19.4 79.5-33.1z"/>
	<path id="Path 19" class="s9" d="m124.4 961.5c-14.4-50.8-92 7.8-96.6-62l-4-77.6c1.6 84.8 73.2 28.8 89.2 66.1z"/>
	<path id="Path 20" class="s7" d="m46.4 929.8l-1.3-44 1.4 4.8 1.4 41.4zm-9-5.1l-2.7-63.1 2.1 0.4 2.9 65.2zm-4.9-4.9l-2.6-63.6 1.9-3.3 2.9 68.3zm35.2 16.4l-0.7-12.6 0.8 2.3 1 9.8zm6.6 1.3l-1.4-19.1 0.9 0.3 1.6 18.8zm9.9-0.1l-0.8-35.2 0.9-1.8 0.9 37.3zm24 2.9l-4.1-64.7 3.4 2.1 4.2 63.3zm-11.4-137.8l1 48.9-1.9 0.4-0.5-46.4zm-4.8 6.3l0.4 44.7-1.4 0.8v-42.9zm-6 6l0.1 37.8h-1.3l0.1-35.3zm31.6 203.3l-7.7-29v-4.4l8.5 31.8zm-7.6-8l-3.7-14.6-0.1-3.8 4.9 18.4zm-68.2-81.1l-2.6-64.4 1.5 1.6 2.8 64zm4.3 0.7l-1.3-44.1 1.4 4.8 1.4 41.5zm21.4 6.4l-0.8-12.6 0.9 2.3 0.9 9.8zm27.8 1.4l-1.8-56 2.2-4.5 1.7 60.1zm-5.7-1.1l-0.8-41.9 1.4-6.3 1.2 48.5zm-5.4 0.9l-0.8-35.2 0.9-1.9 0.9 37.4zm-4.7-1.5l-1.6-25.7 1-2.4 1.6 28.1zm21.8 2.1l-2.8-63.2 2.7-0.8 2.9 64.1zm12.6 4.7l-4.4-64 2.6 1.6 4.3 63.1zm-69.2-89.1l-1.1-50.8 1.2-0.4 1.8 49.3zm-15.6-0.2l-2.2-39 2-2.8 1.9 42.5zm4 8.5l-1.5-53.5 2-2.1 2.1 58.7zm18.6-10l-1.6-50.2 1.4 1.2 1.3 48.4zm14.4 1.4l-1.2-45.6 0.9 0.9 1.2 44.2zm-26.4 4.6l-2.2-52.9 1.9-0.2 2.2 51.8zm18.8-6.7l-1.1-48.5 1.4 1.1 0.8 46.7z"/>
	<path id="Path 21" class="s8" d="m3.2 1035.1c-9.5-116.1 127.4-12.5 109.7-142.9l15.9 79.6c7.1 42.8-15 53.2-31.1 58.4-35.9 12.8-92.9 0.1-86.4 86.6z"/>
	<path id="Path 22" class="s7" d="m115.9 923.2l14.6 76.1-0.3 5.3-15.9-80zm-7.9 85.2l-7.6-37.6 0.2-4.5 8.3 40.6zm-8.6-2.5l-4.7-26.2 0.1-3.8 5.7 30zm-88.1 57.8l-8-59 1.8-3.7 8.1 63.4zm4.2 3.6l-8.4-71.2 1.9 1.1 9.2 68.4zm16.5-18.7l-7.5-61 1.6 1.2 7 58.9zm14.8-4.7l-6.2-53.7 1 1 6 52zm-26.2 18.7l-9-72.6 1.5-0.8 9.3 70.3zm4.6-7.8l-7.8-70.3 1.7 1.7 7.9 69.8zm13.9-9.3l-6.8-57.7 1.6 1.3 6.3 55.4zm79.2-46.1l-10.6-59.1 1-1.8 11 57.9zm-5.6 0.2l-8.5-46.4 1.1-2.8 9.2 49.1zm-101.3 64.1l-8-59.1 1.8-3.7 8.1 63.4zm4.6 5.2l-8.8-72.7 1.9 1 9.1 68.4zm16.2-20.2l-7.5-61.1 1.6 1.2 7 58.9zm14.8-4.7l-6.2-53.6 1 0.9 6 52zm-26.2 18.7l-9-72.5 1.5-0.8 9.3 70.3zm18.5-17.2l-6.8-57.6 1.6 1.2 6.3 55.4zm73.7-113l12.6 64-1 1.1-13.2-63.7z"/>
	<path id="Path 23" class="s8" d="m869.6 794.6c24.9 13.8 82.7-13.5 79.5 33.2l-5.3 68c-10.2-77.8-38.7-33.5-73.7-51.1z"/>
	<path id="Path 24" class="s9" d="m859.5 884.2c16.1-37.2 87.7 18.7 89.3-66l-4 77.6c-4.6 69.8-82.2 11.2-96.7 62z"/>
	<path id="Path 25" class="s7" d="m924.7 928.3l1.4-41.5 1.3-4.8-1.2 44.1zm8.2-4.8l2.9-65.2 2.1-0.4-2.7 63.1zm5-6l2.8-68.2 2 3.2-2.7 63.7zm-34.1 14.6l1-9.9 0.8-2.3-0.8 12.6zm-6.6 1.8l1.5-18.8 0.9-0.3-1.4 19.1zm-9.9 0.3l1-37.3 0.8 1.8-0.8 35.2zm-26.4 3.4l4.2-63.3 3.3-2.2-4.1 64.8zm16.3-135.7l-0.6 46.4-1.9-0.4 1-48.9zm4.4 6l-0.1 42.9-1.4-0.8 0.5-44.6zm6 5.9l0.1 35.3h-1.3l0.1-37.8zm-33.5 199.2l8.5-31.9v4.5l-7.7 29zm7.3-6.5l4.9-18.4-0.1 3.8-3.7 14.6zm67.6-79.8l2.8-64 1.5-1.7-2.6 64.5zm-4.1 1.7l1.4-41.5 1.4-4.8-1.3 44.1zm-20.9 3.8l0.9-9.9 0.9-2.3-0.8 12.6zm-28.9 1.5l1.7-60 2.2 4.4-1.8 56zm6.1-0.4l1.2-48.4 1.5 6.3-0.9 41.9zm6.3 1l1-37.4 0.8 1.9-0.8 35.2zm4.8-1.8l1.6-28 1 2.4-1.6 25.6zm-23.5 2.2l2.8-64 2.8 0.7-2.9 63.2zm-12.5 5.4l4.2-59.1 2.6-1.6-4.2 59.9zm69.9-91.7l1.8-49.3 1.2 0.4-1 50.8zm15.8 2.3l2-42.5 2 2.8-2.3 39zm-4.8 10.9l2-58.7 2.1 2.2-1.5 53.4zm-17.1-13.6l1.3-48.5 1.4-1.1-1.6 50.2zm-14.2 1.6l1.3-44.2 0.8-0.9-1.2 45.6zm25.4 3.8l2.2-51.9 2 0.3-2.3 52.8zm-18-6.2l0.8-46.6 1.4-1.1-1.1 48.4z"/>
	<path id="Path 26" class="s8" d="m961.2 1113c6.6-86.4-50.4-73.7-86.4-86.5-16-5.2-38.1-15.6-31-58.4l15.9-79.6c-17.8 130.4 119.1 26.8 109.6 142.9z"/>
	<path id="Path 27" class="s7" d="m858.2 920.9l-15.8 80-0.3-5.3 14.5-76.1zm5.5 82.3l8.2-40.5 0.3 4.5-7.7 37.6zm8.4-1l5.7-30 0.1 3.8-4.7 26.2zm87.3 58.4l8.1-63.4 1.8 3.7-8 59.1zm-5 1.2l9.2-68.4 1.9-1-8.4 71.2zm-15.1-17.9l7.1-58.9 1.6-1.2-7.6 61.1zm-14.4-4.4l6-52 1-1-6.2 53.7zm25.3 16.3l9.3-70.3 1.5 0.8-9 72.6zm-4.5-3.5l7.8-69.8 1.7-1.8-7.7 70.3zm-13.2-11.5l6.3-55.5 1.5-1.2-6.7 57.6zm-79.5-48.1l11-57.9 1 1.8-10.6 59.1zm5.3 3.1l9.2-49.2 1.1 2.9-8.5 46.4zm101.1 64.8l8.2-63.4 1.7 3.7-8 59zm-4.9 1.3l9.1-68.4 1.9-1-8.7 72.7zm-15.1-17.8l7.1-58.9 1.6-1.2-7.6 61zm-14.4-4.4l6-52 1-1-6.2 53.7zm25.3 16.3l9.3-70.2 1.5 0.7-9 72.6zm-17.7-15.1l6.2-55.4 1.6-1.2-6.7 57.6zm-71-110.7l-13.2 63.8-1-1.1 12.6-64z"/>
	<path id="Path 28" class="s9" d="m3.2 1018.1c4.1 77 49.8 53.4 60.9 33 23.3-44.7 51.5-72 95.7-38.2 180.3 150.2 442.4 168.9 648.4 7.9 46.6-36.9 68.2-21.3 98.7 30.3 11.2 20.3 57 35.6 63.8-33.6l-5.4 89.6c-5.5 38.4-35.1 48.8-59.8 37-13.1-11.2-17.2-31.1-22.5-48.3-11-24.3-21.9-36.3-60.5 3.8-152.3 151.3-511.5 135.1-661.2 4.7-31-27-46.6-47.9-67.2-3.6-8.3 17.8-19.2 34.8-34.2 43.7-24.7 11.8-46.7 0-52.1-38.4z"/>
	<path id="Path 29" class="s7" d="m62.9 1139.1l-5.6-77.8 2 1.9 5.8 77.3zm-5.9 5.1l-3.7-55.5 1.9 5.9 3.7 52.3zm-5 3.9l-4-44 1.3 2 3.9 41.4zm-5.5 1.2l-3.3-28.7 1.2 0.3 3.3 28.3zm22.2-16.2l-5.4-82.2 2.3-4.6 5.6 86.5zm9.2-7.9l-6.5-84.4 2.7-4.8 6.2 86.7z"/>
	<path id="Path 30" fill-rule="evenodd" class="s10" d="m179.6 1083.2l1.5 1.5-8.5 8.5-1.5-1.5 1.2-2.8q-2.9-0.6-4.2-1-1.4-0.5-3-1.4-2-1.1-3.7-2.8-2.7-2.6-4.2-5.7-1.4-3.2-1.4-6.5-0.1-3.3 1.3-6.4 1.3-3.2 4-5.8 3.7-3.7 8.5-5.1 4.8-1.4 9.6-0.2 4.8 1.1 8.5 4.6 1.7 1.7 2.7 3.7 1 1.9 2.1 5.7l2.7-1.4 1.6 1.5-7.6 8.1-1.6-1.5q1-2.1 1.4-3.4 0.4-1.2 0.5-2.7 0.2-4.2-2.7-7-2.3-2.2-5.4-2.5-3.1-0.3-6.5 1.3-3.4 1.6-6.7 4.9-2.5 2.4-3.9 4.8-1.5 2.5-1.9 4.8-0.4 2.4 0.3 4.4 0.7 2.1 2.5 3.8 3.1 3.1 7.4 2.6 1.6-0.1 3.1-0.6 1.4-0.5 3.9-1.9zm42.1 2.5q5.3 4 5.4 4 1.6 1.2 2.3 1.7 1.1 0.7 3.8 2.5l-1.3 1.7q-1.7-1.2-2.8-1.4-1-0.3-1.9 0.2-0.9 0.5-2 2l-12.6 16.6q-0.8 1.1-1.2 2-0.4 0.9-0.3 1.6 0.1 0.7 0.7 1.5 0.5 0.7 1.7 1.7l-1.2 1.6q-1.9-1.4-4-2.9-2-1.5-3.2-2.4-1.3-0.9-3.4-2.4-2-1.4-3.9-2.8l1.2-1.6q2.2 1.3 3.1 1.5 0.9 0.1 1.7-0.4 0.9-0.6 2.1-2.2l10.1-13.3 1-1.4q0.7-0.8 1.3-1.5 0.7-0.9 1.1-1.3l0.6-0.6q0.1-0.1 0.3-0.3 0.1-0.1 0.2-0.1 0-0.1 0-0.1l0.2-0.2q0.1-0.1 0-0.2-0.2-0.1-1.2 0.5-0.4 0.3-0.5 0.4-0.1 0.1-0.2 0.1-0.6 0.4-1.5 0.9l-27.2 14.3q-2.7-2-5.4-4l-2.3-1.7q-2.6-1.7-3.8-2.5l1.3-1.6q1.7 1.1 2.7 1.4 1.1 0.2 2-0.3 0.9-0.5 2-1.9l12.6-16.7q1.2-1.5 1.5-2.6 0.3-1-0.3-2-0.6-0.9-2.1-2.1l1.2-1.7q3.3 2.5 7.2 5.3 4 2.9 7.3 5.2l-1.2 1.6q-2-1.2-3.1-1.5-1.7-0.3-3.9 2.6l-10 13.3-0.8 1q-1.7 2.3-2.6 3.2l-0.6 0.5-0.3 0.4q-0.1 0.1-0.3 0.2l-0.1 0.2q-0.1 0.1 0.1 0.2 0.2 0.1 1.1-0.5 0.5-0.4 0.7-0.5 0.4-0.3 1.5-0.9zm18.7 21.3l-15.3 12.6q-0.6 0.5-1 1.2-0.8 1.4-0.2 2.5 0.5 1.1 2.5 2.4l-1 1.8q-4.9-2.7-5.4-3-0.9-0.5-2.5-1.3-1.6-0.8-3-1.5l1-1.8q2 0.6 3.4 0.4 1.5-0.3 2.9-1.5l0.8-0.7 23.8-19.3 2.3 1.2-3.3 30.8 0.1 1.9q0 1.1 0.1 1.6 0.2 0.5 0.6 1.2 0.5 0.7 1.7 1.5l0.3-0.5q2 0.5 3.5 0.1 1.4-0.3 2.9-1.6l23.8-21.3 2.3 1.1-1.5 31q0 0.7 0 1.4 0.1 1.1 0.2 1.7 0.4 1.3 2.9 2.7l-0.9 1.9-3.2-1.5q-1.7-0.8-5.7-2.6l-1.3-0.6q-1.1-0.4-2.8-1.2-1.8-0.7-3.4-1.4l0.8-1.9 0.5 0.2q2 0.9 2.9 0.9 1 0 1.5-0.9l0.1-0.1q0.3-0.6 0.3-0.9 0.4-0.9 0.6-4.5 0-1 0-1.5l-10.6-4.7q-1.8 1.5-2.1 1.8-1.6 1.4-2.2 2.7-0.5 1.1 0.1 2.1 0.7 1.1 2.7 2.1l-0.9 1.9q-5.1-2.4-5.7-2.6-0.9-0.5-2.6-1.2-1.4-0.6-2.8-1.2l-0.3 0.7-3.2-1.8q-1.6-0.9-5.4-2.9l-1.3-0.7q-1-0.5-2.7-1.4-1.7-0.8-3.3-1.6l1-1.8 0.4 0.2q2.1 1 3 1 1 0 1.6-1 0.2-0.4 0.2-0.5 0.2-0.7 0.2-1.5zm22.8 24l8.8 3.9 0.8-12.7zm42.2-2.7q-2.4-0.8-3.3-1.1-3.2-0.8-5.2-0.1-1.1 0.4-2.1 1.4-0.9 0.9-2.2 3l-1.9-0.7 3.6-9.2q2 0.8 3.4 1.3 1.5 0.5 2.5 0.9 5.1 1.8 8.8 3 2.7 0.8 4.1 1.2 4.6 1.6 13.3 4.2l-2.8 9.4-1.9-0.6q0.2-2.4 0.1-3.7-0.2-1.3-0.9-2.4-0.5-0.8-1.3-1.4-1.5-1.1-5.5-2.4l-0.8-0.2-8.2 23.9q-0.7 2-0.2 3.2 0.4 0.7 1.1 1.2 0.8 0.5 2.9 1.2l-0.7 2q-0.5-0.2-1.7-0.6-1.2-0.5-1.7-0.6-0.6-0.2-2.2-0.8-1.7-0.6-2.6-0.9l-2.3-0.7q-1.3-0.4-3.7-1.2-2.4-0.7-3.7-1.1l0.7-1.9q2.5 0.6 3.5 0.5 1.8-0.1 2.7-2.9zm11.6 36.9l0.5-2q2.1 0.1 3.5-0.4 1.3-0.6 2.6-2.2l19.6-24.9 2.5 0.6 4 30.8q0.1 0.7 0.3 1.4 0.2 1 0.5 1.6 0.6 1.2 3.3 2.3l-0.5 1.9-3.5-0.9q-1.8-0.5-6-1.6l-1.4-0.3q-1.1-0.3-3-0.7-1.8-0.5-3.6-0.9l0.5-2 0.5 0.2q2.1 0.4 3 0.3 1-0.2 1.3-1.1l0.1-0.1q0.2-0.7 0.2-0.9 0.2-1-0.3-4.6-0.2-1-0.2-1.5l-11.3-2.9q-1.5 1.9-1.7 2.2-1.4 1.6-1.8 3-0.3 1.2 0.6 2.1 0.8 0.9 3 1.6l-0.6 2q-5.4-1.5-6-1.6-1-0.3-2.8-0.7-1.7-0.4-3.3-0.7zm14.3-10l9.3 2.3-1.4-12.6zm37.5 22.1l0.4-2.1q3 0.4 4.2-0.4 0.7-0.5 1-1.5 0.4-1 0.9-3.7l3.5-18.5q0.4-1.9 0.1-3-0.2-1.1-1.1-1.7-0.9-0.6-2.9-1.1l0.4-1.9q3.8 0.8 5.2 1.1 4.3 0.9 7.4 1.4l4 0.8q4.8 0.8 11.7 1.8l-1.6 8.8-2.1-0.4q-0.3-2.9-1.1-4.3-0.8-1.3-2.1-2-1.3-0.7-4.1-1.3-0.2-0.1-0.4-0.1-0.7-0.2-2-0.5-1.9-0.3-2.4 0.1-0.1 0-0.2 0.2 0 0 0 0.1-0.1 0.1-0.1 0.1l-0.1 0.5v0.1l-2.1 11.1q3 0.5 4.4 0.2 1.2-0.3 1.9-1.2 0.8-0.9 2-3.3l2.2 0.4q-1 3.5-1.5 6.4-0.6 2.9-1.1 7.1l-2.1-0.4q-0.1-2.9-0.8-4.1-0.5-1.1-1.7-1.7-1.1-0.6-3.7-1.2l-1.7 9q-0.4 1.8 0.1 3 0.4 1.2 1.8 2 1.4 0.7 3.8 1.1 4.9 0.9 7.6-1.4 1.3-1.1 2.8-4.4l1.9 0.3-1.9 10.1-6.1-1.2q-7-1.5-11.3-2.3-3.7-0.6-5.4-0.9-3.4-0.5-7.7-1.1zm48.6 7.4l0.2-2.1q2 0.1 3.1-0.3 1.9-0.6 2.2-3.9l2.1-21q0.2-2.4-0.5-3.5-0.5-0.5-1.3-0.8-0.8-0.3-2.6-0.5l0.2-2.1q1.4 0.3 2.3 0.3 1.3 0.3 4.5 0.6l2.9 0.2 2.4 0.2q1.6 0.1 3.6 0.3 14 1.3 13.2 9.3-0.3 3.7-3.8 5.5-0.6 0.3-1.6 0.6-1.7 0.5-4.8 0.8 0.6 0.2 0.9 0.2 0.2 0.1 0.6 0.2 0.4 0.1 0.7 0.2 3.2 0.9 5.4 2.4 3.7 2.8 3.3 7.1-0.3 2.7-1.9 4.6-1.6 1.8-4.5 2.8-3.4 1.1-9.5 0.5l-1.8-0.2-3.1-0.3q-1.6-0.2-5-0.5l-3.4-0.4q-0.7 0-2-0.1-1.3 0-1.8-0.1zm14.6-15.6l-0.9 8.4q-0.2 2.7 0.1 4 0.7 2.1 3.5 2.3 2.8 0.3 4.5-1.4 1.7-1.7 2-5 0.4-3.8-1.4-5.8-1.8-2-6-2.4-0.2 0-0.8-0.1-0.6 0-1 0zm0.2-2.5q0.2 0.1 0.7 0.1 0.5 0.1 0.8 0.1 2.3 0.3 3.9-0.3 1.6-0.5 2.4-1.9 0.9-1.4 1.1-3.7 0.6-5.9-5.8-6.5-0.9-0.1-1.6 0-0.2 0.1-0.3 0.3v0.3 0.1h-0.1zm66.9 9.7h2.2l0.1 11.9h-2.1l-1.2-2.9q-2.5 1.6-3.8 2.2-1.2 0.6-3 1.1-2.3 0.5-4.7 0.6-3.8 0-7.1-1.2-3.3-1.3-5.7-3.6-2.4-2.3-3.8-5.5-1.3-3.1-1.3-6.9-0.1-5.1 2.3-9.4 2.4-4.3 6.6-6.8 4.2-2.5 9.3-2.5 2.5 0 4.7 0.7 2.1 0.6 5.6 2.6l0.8-2.9h2.3l0.5 11h-2.3q-0.7-2.2-1.4-3.4-0.6-1.1-1.6-2.2-2.9-3.2-7-3.1-3.2 0-5.6 1.9-2.4 2-3.6 5.4-1.3 3.5-1.3 8.1 0.1 3.4 0.8 6.1 0.8 2.8 2.2 4.7 1.4 2 3.4 3 1.9 1 4.4 0.9 4.5 0 7.2-3.2 1.1-1.2 1.7-2.6 0.6-1.4 1.4-4zm26.3-20.9q-2.3 0.3-3.3 0.8-1.8 0.9-1.6 4l0.7 9.1q2.9-0.3 4.5-0.4 3-0.2 4.7-0.1 3.6 0.2 6.1 2.1 3.2 2.2 3.6 6.6 0.2 3-1.3 5.2-1.2 1.7-3.3 2.8-1.8 1-4.2 1.5-2.4 0.5-6.7 0.8l-1.4 0.1q-2.3 0.2-5.2 0.4-5 0.4-8.2 0.7l-0.2-2q2.4-0.5 3.2-0.9 0.7-0.4 1.1-1.4 0.3-1 0.2-2.2l-2-24.3q-0.1-1.2-0.2-1.5-0.2-0.3-0.7-0.2-2 0.1-4.1 1.9-1.2 1.1-1.9 2.3-0.6 1.2-0.9 3.2l-2.2 0.2-0.3-9.1q0.6 0 0.5 0 0.2 0 1.1 0 0.9 0 1.4 0l1.3-0.1 3.4-0.3 5.5-0.4 0.9-0.1 9.3-0.7zm-4.1 16.4l1 12.4q0.1 0.7 0.6 1 0.6 0.2 2.1 0.1 3.4-0.2 4.9-2.2 1.5-1.9 1.2-5.6-0.2-2.1-1-3.4-0.8-1.4-2.2-2.1-1.3-0.6-3.2-0.5-0.2 0-0.9 0.1-0.7 0.1-1.2 0.1zm23.3 14.7l-0.3-2q2.3-0.4 3.3-1 1-0.6 1.3-1.7 0.2-1.1-0.1-3.5l-2.3-19.4q-0.3-2.9-1.5-3.8-1-0.9-4.2-0.7l-0.2-2.1q2.6-0.2 3.5-0.2 0.9-0.1 1.9-0.2 5.4-0.5 8.8-0.8l2.7-0.3q4.9-0.6 11.9-1.6l1.3 8.8-2.1 0.3q-0.5-1.2-1-2.2-1.1-2-3.3-2.8-0.8-0.3-1.5-0.3-0.9-0.1-5.5 0.1-0.1 0-0.4 0-0.2 0-0.3 0-1.5 0.2-2 0.7-0.5 0.4-0.4 1.5l2.6 22.3q0.4 3.4 1.4 4.3 1 0.7 4.7 0.5l0.2 2.1q-2.3 0.2-2.2 0.1-1.3 0.1-5 0.5l-1.8 0.2q-2.6 0.3-3.8 0.5zm38.9-30.2l-4 19.1q-0.2 0.8 0 1.5 0.2 1.6 1.4 2.2 1.1 0.5 3.5 0.3l0.4 2.1q-5.6 0.8-6.2 0.8-1 0.2-2.8 0.5-1.8 0.4-3.4 0.7l-0.3-2.1q2-0.6 3-1.7 1-1.1 1.3-3l0.2-1 6.5-29.5 2.7-0.4 16.8 26.3 1.2 1.4q0.7 0.9 1.2 1.2 0.4 0.3 1.2 0.6 0.9 0.3 2.7 0.2v0.1q1.8-0.8 2.6-1.9 0.9-1.1 1.3-3l5.3-31 2.5-0.6 18.4 25.3q0.4 0.6 0.9 1.1 0.7 0.9 1.2 1.2 1.1 0.8 4 0.5l0.5 2-3.5 0.8q-1.9 0.3-6.1 1.3l-1.4 0.3q-1.1 0.3-3 0.8-1.8 0.4-3.6 0.9l-0.5-2 0.5-0.1q2.1-0.5 2.8-1.1 0.8-0.6 0.7-1.6v-0.1q-0.2-0.7-0.3-0.9-0.3-1-2.4-3.9-0.7-0.8-0.9-1.2l-11.4 2.6q-0.4 2.3-0.5 2.7-0.4 2.1 0 3.5 0.3 1.2 1.4 1.6 1.2 0.4 3.4 0.1l0.5 1.9q-5.5 1.2-6.1 1.4-1 0.2-2.7 0.6-1.8 0.5-3.3 0.9l-0.1-0.2-3.4 0.5q-1.9 0.3-6.1 0.9l-1.5 0.3q-1.1 0.2-3 0.5-1.9 0.4-3.6 0.7l-0.4-2 0.5-0.1q2.2-0.4 3-1 0.8-0.6 0.6-1.7-0.1-0.5-0.2-0.6-0.3-0.6-0.7-1.3zm33.4 6.1l9.3-2.2-7.3-10.5zm55.6-13.9l2.1-0.7 3.7 11.4-2 0.6-2-2.4q-1.9 2.2-2.9 3.2-1.1 0.9-2.6 1.9-2 1.2-4.3 1.9-3.7 1.1-7.2 0.8-3.5-0.2-6.5-1.7-3-1.6-5.2-4.2-2.2-2.7-3.4-6.2-1.6-4.9-0.6-9.7 1-4.8 4.3-8.4 3.3-3.6 8.1-5.1 2.4-0.7 4.6-0.6 2.3 0 6.2 0.9v-3l2.2-0.7 3.7 10.4-2.1 0.7q-1.5-2-2.4-2.9-1-0.9-2.3-1.7-3.7-2.1-7.6-0.9-3 0.9-4.7 3.4-1.7 2.5-1.9 6.3-0.2 3.7 1.3 8 1 3.3 2.5 5.7 1.6 2.4 3.5 3.8 1.9 1.5 4.1 1.9 2.2 0.4 4.6-0.4 4.3-1.3 5.9-5.1 0.6-1.5 0.8-3 0.2-1.5 0.1-4.2zm22.4-32.4q6.2-2.5 6.2-2.5 1.8-0.7 2.6-1.1 1.2-0.6 4.1-1.9l0.9 1.9q-1.9 0.8-2.6 1.6-0.8 0.8-0.8 1.8 0 1 0.8 2.6l8.5 19q0.5 1.3 1.1 2 0.6 0.8 1.3 1.1 0.7 0.3 1.7 0.2 0.9-0.2 2.3-0.7l0.9 1.9q-2.2 0.9-4.6 1.9-2.4 0.9-3.8 1.5-1.4 0.6-3.7 1.6-2.3 1.1-4.5 2l-0.8-1.9q2.2-1.1 2.8-1.8 0.6-0.7 0.6-1.7-0.1-1-1-2.9l-6.7-15.1-0.7-1.6q-0.5-1-0.8-1.9-0.4-1-0.5-1.5l-0.3-0.8q0-0.2-0.1-0.4 0-0.1-0.1-0.2 0-0.1 0-0.1l-0.1-0.2q0-0.2-0.2-0.1-0.2 0.1-0.1 1.2 0 0.4 0.1 0.6 0 0.2 0 0.2 0.1 0.8 0.1 1.8l-1 30.1q-3 1.2-6.2 2.5l-2.6 1.2q-2.8 1.3-4.1 1.9l-0.8-1.9q1.8-0.9 2.6-1.6 0.7-0.8 0.7-1.8 0-1-0.7-2.7l-8.5-18.9q-0.8-1.8-1.6-2.6-0.8-0.8-1.9-0.8-1.1 0-3 0.7l-0.8-1.8q3.8-1.6 8.3-3.5 4.5-1.9 8.2-3.5l0.8 1.8q-2 1-2.8 1.8-1.1 1.3 0.4 4.7l6.8 15 0.5 1.2q1.2 2.7 1.5 3.9l0.1 0.7 0.2 0.4q0 0.2 0.1 0.4l0.1 0.1q0.1 0.2 0.2 0.1 0.2-0.1 0.1-1.2-0.1-0.5 0-0.8-0.1-0.5-0.1-1.7zm34.9 22.2l-1-1.9q2.5-1.5 3-2.9 0.2-0.8-0.1-1.8-0.4-1-1.7-3.4l-8.9-16.7q-1-1.8-1.8-2.5-0.8-0.7-2-0.6-1.1 0.1-2.9 0.9l-1-1.8q3.6-1.6 4.9-2.3 3.9-1.8 6.7-3.3l3.6-1.8q4.2-2.2 10.4-5.5l4.2 7.9-1.9 0.9q-2-2.1-3.6-2.7-1.4-0.6-2.8-0.3-1.5 0.2-4.1 1.4-0.2 0.1-0.4 0.1-0.6 0.3-1.8 0.9-1.7 0.8-1.9 1.4 0 0.1 0 0.3 0 0.1 0 0.2 0 0 0 0.1l0.3 0.4v0.1l5.4 10q2.7-1.4 3.5-2.5 0.8-0.9 0.8-2.1 0.1-1.2-0.6-3.8l2-1q1.5 3.4 2.9 6 1.4 2.6 3.7 6.2l-1.9 1q-2-2.2-3.2-2.8-1.2-0.5-2.4-0.3-1.3 0.2-3.7 1.4l4.3 8.1q0.9 1.6 2 2.3 1.1 0.6 2.6 0.4 1.6-0.2 3.7-1.4 4.5-2.2 5.1-5.7 0.3-1.6-0.6-5.1l1.7-0.9 4.9 9.1-5.5 2.7q-6.5 3.1-10.4 5-3.3 1.7-4.8 2.5-3 1.6-6.7 3.8zm22.4-48.1q-2.1 1.4-2.8 2-2.6 2-3.1 4-0.4 1.2-0.2 2.5 0.3 1.3 1.2 3.5l-1.7 1.1-5.5-8.2q1.8-1.1 3.1-2 1.3-0.8 2.2-1.4 4.5-3 7.6-5.2 2.3-1.6 3.5-2.5 4-2.7 11.2-8l6.2 7.7-1.6 1.1q-1.9-1.5-3-2.2-1.2-0.6-2.5-0.7-1-0.1-1.9 0.2-1.9 0.6-5.2 2.9l-0.8 0.5 15.1 20.6q1.3 1.7 2.6 2 0.7 0.1 1.6-0.2 0.9-0.3 2.7-1.5l1.2 1.7q-0.4 0.3-1.5 1-1.1 0.7-1.4 0.9-0.6 0.4-2 1.4-1.4 0.9-2.3 1.5l-1.9 1.4q-1.1 0.8-3.2 2.2-2 1.5-3 2.3l-1.2-1.7q2-1.6 2.5-2.5 0.9-1.5-0.8-3.8z"/>
	<path id="Path 31" fill-rule="evenodd" class="s10" d="m780 1088.5q-2.6-3-3.7-6.4-1.1-3.5-0.7-7 0.4-3.5 2.3-6.8 1.9-3.3 5.2-6.1 4.4-3.6 9.3-4.7 5-1.2 9.6 0.3 4.6 1.5 8.1 5.5 2.6 2.9 3.7 6.4 1.1 3.4 0.6 7-0.4 3.5-2.4 6.9-1.9 3.3-5.2 6.1-3.3 2.7-6.8 4-3.6 1.3-7.3 1.1-3.6-0.2-6.9-1.8-3.2-1.6-5.8-4.5zm7.3-5.9q10.3 11.4 18.2 4.9 7.7-6.5-2.4-18.1-5.2-5.8-9.9-7.1-4.6-1.3-8.7 2.1-1.7 1.4-2.6 3.3-0.9 1.9-0.7 3.9 0.1 2.3 1.4 4.8 1.4 2.4 4.2 5.6z"/>
	<path id="Path 32" class="s7" d="m892.4 1122.8l6.2-86.7 2.7 4.7-6.5 84.4zm15.1 17.7l5.8-77.2 2-1.9-5.7 77.7zm6.1 6.5l3.7-52.3 1.9-5.9-3.7 55.5zm5.8 0.7l3.9-41.5 1.3-2-3.9 44zm5.5 1.5l3.3-28.2 1.2-0.3-3.3 28.7zm-23.4-16.4l5.6-86.5 2.4 4.6-5.4 82.2z"/>
	<path id="Path 33" class="s11" d="m240.3 272.8c8.7 5.3 29.6 25.9 36.3-5.2-17.6-8-25.9-4.4-36.3 5.2z"/>
	<path id="Path 34" class="s7" d="m241 272.8c4.5-3.3 30.1 1.2 27.3 3.4 2.1 0.7-23.1-4.9-27.3-3.4z"/>
	<path id="Path 35" class="s11" d="m265.2 343.6c6.1-2.8 37.2-12.8 13.5-34.1-15.7 11.3-13.5 20.6-13.5 34.1z"/>
	<path id="Path 36" class="s11" d="m339.1 343.5c-7.9-5.2-33.3-9.2-13.7-29.2 14.3 9.1 14.6 15.3 13.7 29.2z"/>
	<path id="Path 37" class="s11" d="m370.4 267.1c-8.4 10.9-16.8 35.6-35.5 9.7 13-14.3 20-11.7 35.5-9.7z"/>
	<path id="Path 38" class="s11" d="m306.2 221.8c6.5 10 24 25.9-3.4 34.9-9.2-15.7-4.7-24.2 3.4-34.9z"/>
	<path id="Path 39" class="s3" d="m261.8 255.6c4.8-15.4 26.5-23.8 37.1-17.7 10.2 12.1 2.2 16.8 5 19.6 4.4 1.7 2.3-3.3 1.8-7.8-1.5-23.6 45.9-8.2 45.2 17.9-0.6 6.7-4.2 8.5-7.7 9.3-3 0.2-10.4-1.1-10.1 2.4 0.4 1 1 2.4 3.9 2.3 10.2-5.6 15.2-2.9 20.2 2 7 9.7-0.2 47.6-22.8 43.4-8-2.2-5.9-14.3-12.3-13-0.6 5.3 5.3 2.5 5.3 14.2-0.9 20.1-53 23.4-48.7-3.1 1.3-3.9 3.9-5 5.9-6.1 2.3-0.8 4.5-1.5 2.5-4.9-4.7-1.9-4 5.4-8.1 8.2-14.1 11.7-31.2-11.9-30.8-29.1 0.8-8.9 5.9-17.9 14.4-19.2 3-1 6.2 1.4 8.6 3.1 3.7 2.8 9.3-0.2 3.6-3.2-7.6 0.2-17.8 1.5-13-18.3z"/>
	<path id="Path 40" class="s12" d="m263.9 257.3c4.1-14.7 23.3-23.5 34.4-15 5.7 6-6.8 16.6 4.1 20.1 10.2 1.6 7.3-8.1 6.8-12.5-1.3-20.3 40-5 39.4 18.8-2.3 8.8-13.4 6-16.1 7.4-4.9-0.7-7 9.7-0.6 10 6 2.6 9.2-8.7 20.8-2.8 8.4 4.6 2.4 44.2-16.2 42-12.5-5.3-5.9-20-18.7-15.3-7.5 8 3.3 10.5 6.8 18.3-0.8 19.2-47.9 22-43.9-3.1 1.3-3.5 4.2-4.1 6.8-5.4 3-1 4.8-4.9 1.4-8.7-10.7-5-7.7 11.4-17.2 12-11.3 1.2-21.6-16.3-20.8-30.1 0.8-8.4 3.2-14.7 11.3-15.9 2.8-1 7.5 4 9.8 5.6 7 3.8 13.3-7.5 4.1-10.6-7.3-0.9-16.8 2.9-12.2-14.8z"/>
	<path id="Path 41" class="s3" d="m271.7 320.1c-4.7 0.8-8.7-0.9-10.6-6.3-1.6-6 0-8.3-1.5-12.8-1.9-6.7-2.7-6-4.4-10.7-1.2-4.6 0.3-8.9 4.1-10.5-2.1 3.8-3.1 6.1-2.4 9.3 1.6 6.1 3.1 4.9 5.3 10.1 1.7 5-1.1 7.7 1.3 15.4 1.3 3.7 4.7 5 8.2 5.5z"/>
	<path id="Path 42" class="s3" d="m347.5 282.7c3.7 2.6 5.7 6.7 4.3 12.1-1.8 5.7-4.1 6.3-5.3 10.7-1.3 7.7-0.2 7-1.5 11.4-1.5 4.4-5.4 6.1-8.9 4.7 3.5-0.9 5.3-1.8 6.5-4.7 1.9-5.7 0.6-6.7 1.6-12.1 1.2-4.9 3.3-4.8 5.5-12.2 0.9-3.7 0-7.1-2.2-9.9z"/>
	<path id="Path 43" class="s3" d="m289.4 335.1c7.7 0.4 8.9-2.8 14-2.4 5.3 0.8 5.1 2.5 11.1 2.6 3.2-0.1 5-1.4 7.9-3.9-0.4 3.5-3.9 5.7-8.5 5.6-4.7-0.4-4.3-1.2-11-1.4-4.5-0.4-6.1 1.4-12.1 1.3-5.5-0.5-8.1-3.5-8.7-7.6 1.4 2.9 3.6 5.5 7.3 5.8z"/>
	<path id="Path 44" class="s3" d="m266.5 270c-2.5-3.8-2.7-8.1 1-11.8 4.2-3.7 6.6-3.2 9.7-6.2 4.7-4.2 3.8-4.6 6.9-7.9 3.3-2.9 7.4-3.1 10.2-0.3-3.9-0.4-6.2-0.4-8.5 1.4-4.3 3.7-3.3 4-6.6 7.9-3.3 3.4-6.1 2.5-11.5 7.5-2.4 2.5-2.2 6.1-1.2 9.4z"/>
	<path id="Path 45" class="s3" d="m310 247.7c3.8-3.5 8.4-4.7 13.1-1.7 4.9 3.6 4.8 6.3 8.6 8.8 7 3.6 6.7 2.2 10.5 4.9 3.8 2.8 4.3 7.7 1.8 11.3 0.2-4.2 0-7.1-2.5-9.2-4.9-3.7-6.3-2.6-11.1-5.2-4.4-2.7-3.1-4.8-9.6-9.3-3.2-2.1-7.3-1.4-10.8 0.4z"/>
	<path id="Path 46" class="s3" d="m300.8 312.8c-3.8-16.2-15.1-21.1-37.5-12.8-0.9 0.3-1.3-0.2-0.8-0.6 28.9-9.6 36.3-20.7 16.6-46.1-0.4-1.1 0-0.5 1.3 0.7 15.7 22 30.1 26.6 47 2.1 1-1.1 1.2-1.2 1.1-0.6-6.5 7.9-10.5 13.8-10.9 21.3-0.8 10.8 8 19.4 27.6 25.9 1.5 0.7-0.4 0.8-2.2-0.1-6.6-2.5-12.9-5.4-19-5.6-9.7 0.1-16.5 4.3-19.6 14.3-1.6 5-1.8 11.7-1.5 19.6-0.1 2.4-0.6 2.1-0.7 0.9 0.1-7.4-0.4-13.9-1.4-19z"/>
	<path id="Path 47" class="s12" d="m279 294.4c8.8-3.4 17.1-11.5 11.5-25.9 8.7 7.8 16.5 9.7 26.1 2.1-3.1 11.9-0.4 19.6 9.6 25-10.5-1.9-20 2.2-23.9 16.3-2.2-13-10.6-18.3-23.3-17.5z"/>
	<path id="Path 48" class="s7" d="m313.1 287.8c0 5.7-4.6 10.3-10.2 10.3-5.7 0-10.2-4.6-10.2-10.3 0-5.6 4.5-10.2 10.2-10.2 5.6 0 10.2 4.6 10.2 10.2z"/>
	<path id="Path 49" fill-rule="evenodd" class="s10" d="m311.5 289c0.3 0.3 0.3 0.9 0 1.2-0.2 0.2-0.6 0.3-0.9 0.2q0 0 0 0.1 0.2 0 0.3 0.2c0.3 0.3 0.3 0.8 0 1.1-0.2 0.3-0.7 0.3-1 0.1q0 0.1 0 0.1 0.1 0.1 0.2 0.2c0.3 0.3 0.3 0.8 0 1.1-0.2 0.2-0.7 0.3-1 0.1 0.3 0.2 0.2 0.7 0 0.9-0.3 0.3-0.8 0.3-1.1 0q-0.1 0-0.1-0.1 0 0-0.1 0.1 0.1 0 0.1 0c0.3 0.3 0.3 0.8 0 1.1-0.3 0.3-0.8 0.3-1.1 0q-0.1-0.1-0.1-0.2c0.1 0.3 0 0.6-0.2 0.8-0.3 0.3-0.8 0.3-1.1 0-0.1-0.1-0.2-0.2-0.3-0.4 0.2 0.3 0.1 0.7-0.1 0.9-0.3 0.3-0.8 0.3-1.1 0q-0.3-0.3-0.2-0.6 0 0-0.1 0 0.1 0.1 0.1 0.1c0 0.4-0.4 0.8-0.8 0.8-0.8 0-0.7-0.6-0.8-0.8 0 0.5-0.4 0.8-0.9 0.7-0.5-0.1-0.7-0.7-0.6-1 0 0-0.1 0.1-0.2 0.3-0.3 0.3-0.8 0.3-1.1 0-0.9-0.7-0.7 0.2-1.4-0.9-0.4-0.6-0.4 0-1.2-0.7-0.9-1.1 0.5-0.7-0.9-1-1.5-1.5 0-1.5-1-1.9-0.2-0.6 0.1-0.7-0.4-1.3-0.3-0.3-0.3-0.8 0-1.1 0.4-0.9-0.5 0.4-0.5-1.2 0-0.5 0.2-2.2 0.5-2.4 0.3-0.4 0.6-0.3 0.7-0.3q0 0-0.3-0.2c-0.3-0.3-0.3-0.8 0-1.1 1.2-1.1 0-0.4 0.9-1.4 1-0.7-0.3 0.1 1-1.2 1-1 0.1 0.2 1.2-1 0.3-0.3 0.8-0.3 1.1 0q0.1 0.1 0.1 0.2c-0.1-0.3 0-0.6 0.2-0.8 0.3-0.3 0.8-0.3 1.1 0q0.1 0.2 0.2 0.4 0 0 0.1 0c-0.2-0.3-0.1-0.7 0.1-0.9 0.3-0.3 0.8-0.3 1.1 0q0.2 0.3 0.2 0.6 0 0 0 0 0-0.1 0-0.1c0-0.5 0.4-0.8 0.8-0.8 0.4 0 0.8 0.3 0.8 0.8q0 0-0.1 0.1 0.1 0 0.1 0-0.1-0.3 0.2-0.6c0.3-0.3 0.8-0.3 1.1 0 0.2 0.2 0.2 0.6 0.1 0.9q0.1 0 0.1 0 0.1-0.2 0.2-0.4c0.3-0.3 0.8-0.3 1.1 0 0.2 0.2 0.3 0.5 0.2 0.8q0-0.1 0.1-0.2c0.3-0.3 0.8-0.3 1.1 0 0.3 0.3 0.3 0.8 0 1.1q0 0-0.1 0 0.1 0 0.1 0 0 0 0.1-0.1c0.3-0.3 0.8-0.3 1.1 0 0.3 0.3 0.3 0.8 0 1.1q-0.1 0-0.1 0.1 0 0 0.1 0.1 0-0.1 0-0.1c0.3-0.3 0.8-0.3 1.1 0 0.3 0.3 0.3 0.8 0 1.1q-0.1 0.1-0.3 0.1 0 0.1 0.1 0.1c0.3-0.2 0.7-0.1 0.9 0.1 0.3 0.4 0.3 0.9 0 1.2q-0.1 0.1-0.3 0.2 0 0 0.1 0.1c0.2-0.1 0.5 0 0.8 0.2 0.3 0.3 0.3 0.9 0 1.2q-0.2 0.2-0.5 0.2 0 0.1 0 0.1 0 0 0.1 0c0.4 0 0.8 0.4 0.8 0.8 0 0.5-0.4 0.8-0.8 0.8q-0.1 0-0.1 0 0 0.1 0 0.1 0.3 0 0.5 0.2zm-4.9 6.1q0 0 0-0.1 0 0 0 0.1 0 0 0 0zm-7.4-14.5q0 0 0 0 0 0 0 0 0 0 0 0zm7.4 0q0 0 0 0 0 0 0 0 0 0 0 0z"/>
	<path id="Path 50" class="s3" d="m296.1 287.1c0-0.3 0.2-0.6 0.5-0.6 0.3 0 0.5 0.3 0.5 0.6 0 0.3-0.2 0.5-0.5 0.5-0.3 0-0.5-0.2-0.5-0.5z"/>
	<path id="Path 51" class="s3" d="m299.6 282.8c-0.2-0.3-0.2-0.6 0-0.9 0.3-0.2 0.6-0.2 0.8 0 0.2 0.3 0.2 0.6 0 0.9-0.2 0.2-0.5 0.2-0.8 0z"/>
	<path id="Path 52" class="s3" d="m297.9 283.9c-0.2-0.2-0.2-0.5 0-0.7 0.2-0.2 0.5-0.2 0.7 0 0.2 0.2 0.2 0.5 0 0.7-0.2 0.1-0.5 0.1-0.7 0z"/>
	<path id="Path 53" class="s3" d="m296.8 285.6c-0.2-0.2-0.2-0.6 0-0.8 0.2-0.2 0.5-0.2 0.7 0 0.2 0.2 0.2 0.6 0 0.8-0.2 0.2-0.5 0.2-0.7 0z"/>
	<path id="Path 54" class="s3" d="m296.1 289.1c0-0.3 0.2-0.5 0.5-0.5 0.3 0 0.5 0.2 0.5 0.5 0 0.3-0.2 0.5-0.5 0.5-0.3 0-0.5-0.2-0.5-0.5z"/>
	<path id="Path 55" class="s3" d="m296.9 291.1c0-0.3 0.2-0.5 0.5-0.5 0.3 0 0.5 0.2 0.5 0.5 0 0.3-0.2 0.5-0.5 0.5-0.3 0-0.5-0.2-0.5-0.5z"/>
	<path id="Path 56" class="s3" d="m298.2 292.6c0-0.3 0.2-0.5 0.5-0.5 0.3 0 0.5 0.2 0.5 0.5 0 0.3-0.2 0.5-0.5 0.5-0.3 0-0.5-0.2-0.5-0.5z"/>
	<path id="Path 57" class="s3" d="m299.8 293.7c0-0.3 0.2-0.5 0.5-0.5 0.2 0 0.4 0.2 0.4 0.5 0 0.2-0.2 0.5-0.4 0.5-0.3 0-0.5-0.3-0.5-0.5z"/>
	<path id="Path 58" class="s7" d="m301.8 281c-0.1 0.2 0 0.5 0.2 0.5 0.6-0.7 1.8 0.1 1.6 1 0.1-0.2 0.8-0.7 1.4-0.2 0.3 0.3 0.3 0.7 0.1 1 0.3-0.4 0.9-0.5 1.3-0.1 0.4 0.3 0.3 0.9-0.1 1.2 0.3-0.3 0.9-0.3 1.2 0 0.5 0.5 0.2 1.1-0.4 1.3-0.2 0.2 0.1 0.1 0.2 0.1 0.3-0.1 0.6 0 0.8 0.2 0.4 0.3 0.4 0.8 0 1.1q-0.2 0.2-0.5 0.2c0-0.1 0 0-0.1 0 0 0.1 0.1 0.1 0.1 0.1q0 0 0 0c0.5-0.1 1.1 0.3 1.1 0.8 0 0.5-0.6 0.9-1.1 0.7q0 0.1-0.1 0.2c0.5 0 0.8 0.3 0.8 0.7 0 0.7-0.8 1-1.4 0.7 0 0 0 0 0 0.1 0.3 0.1 0.6 0.4 0.6 0.7 0 0.5-0.4 0.8-0.9 0.8-0.3 0-0.5-0.1-0.7-0.3 0-0.1-0.1-0.1 0 0q0 0 0 0c0.2 0.2 0.3 0.4 0.3 0.6 0 0.8-1 1-1.5 0.4 0.4 0.8-0.8 1.5-1.4 0.2 0 0.7-0.1 1.5-0.9 1.6-0.1 0-0.5-0.4-0.6-0.5-0.1-0.1 0.2 0.4 0.2 0.7 4.4 0.1 7.6-2.9 7.7-6.8 0.1-4-3.8-7.6-7.9-7zm-0.3 13.2c0-0.3 0.2-0.5 0.5-0.5 0.2 0 0.5 0.2 0.5 0.5 0 0.3-0.3 0.5-0.5 0.5-0.3 0-0.5-0.2-0.5-0.5z"/>
	<path id="Path 59" class="s13" d="m301.5 294.2c0-0.3 0.2-0.5 0.5-0.5 0.2 0 0.5 0.2 0.5 0.5 0 0.3-0.3 0.5-0.5 0.5-0.3 0-0.5-0.2-0.5-0.5z"/>
	<path id="Path 60" class="s3" d="m301.4 281.5c0-0.3 0.2-0.5 0.5-0.5 0.3 0 0.5 0.2 0.5 0.5 0 0.3-0.2 0.5-0.5 0.5-0.3 0-0.5-0.2-0.5-0.5z"/>
	<path id="Path 61" class="s3" d="m306.5 287.8c0 2.2-1.8 4-3.9 4-1.4 0-3-0.7-3.3-1.7h2.7v-4.6h-2.6c0.7-1 1.9-1.6 3.2-1.6 2.1 0 3.9 1.8 3.9 3.9z"/>
	<path id="Path 62" class="s10" d="m305.8 287.9c0 1.6-1.3 2.9-3 2.9-1.6 0-3-1.3-3-2.9 0-1.7 1.4-3 3-3 1.7 0 3 1.3 3 3zm-0.5 2.5c-0.3 0-0.5-0.1-0.7-0.3 0.5-0.3 0.8-0.7 1-1.2 0.3 0.1 0.6 0.4 0.6 0.7 0 0.5-0.4 0.8-0.9 0.8zm0.6-1.5q-0.1-0.1-0.3-0.1 0.2-0.4 0.2-0.9 0-0.4-0.1-0.7 0.1 0 0.2 0c0.5 0 0.9 0.4 0.9 0.8 0 0.5-0.4 0.9-0.9 0.9zm-0.2-1.8c-0.2-0.5-0.5-1-0.9-1.4 0.2-0.1 0.4-0.3 0.7-0.3 0.5 0 0.8 0.4 0.8 0.9 0 0.4-0.2 0.7-0.6 0.8zm-0.9-1.4q-0.6-0.5-1.4-0.7c0.1-0.4 0.4-0.7 0.8-0.7 0.4 0 0.8 0.4 0.8 0.8q0 0.4-0.2 0.6zm-1.4-0.7q-0.3 0-0.5 0c-1.7 0-3 1.3-3 2.9 0 1.1 0.7 2.1 1.6 2.5-0.1 0.3-0.4 0.6-0.8 0.6-0.4 0-0.8-0.4-0.8-0.9q0-0.4 0.2-0.6-0.1 0-0.2 0c-0.5 0-0.9-0.4-0.9-0.9 0-0.5 0.4-0.9 0.8-0.9-0.4-0.1-0.7-0.4-0.7-0.9 0-0.4 0.4-0.8 0.9-0.8q0.2 0 0.3 0-0.2-0.2-0.2-0.6c0-0.4 0.4-0.8 0.9-0.8 0.3 0 0.6 0.1 0.7 0.4q0-0.1 0-0.1c0-0.5 0.4-0.9 0.9-0.9 0.4 0 0.8 0.4 0.8 0.9q0 0 0 0.1zm-1.2 6.7c-0.4 0-0.8-0.4-0.8-0.8q0-0.3 0.1-0.4 0.6 0.3 1.4 0.3 0 0 0.1 0 0 0 0 0.1c0 0.4-0.3 0.8-0.8 0.8zm1.7-0.1c-0.4 0-0.8-0.4-0.8-0.8 0.5-0.1 1.1-0.3 1.5-0.6q0.2 0.2 0.2 0.5c0 0.5-0.4 0.9-0.9 0.9z"/>
	<path id="Path 63" class="s3" d="m302.3 287.8c0-0.3 0.3-0.5 0.6-0.5 0.3 0 0.6 0.2 0.6 0.5 0 0.4-0.3 0.6-0.6 0.6-0.3 0-0.6-0.2-0.6-0.6z"/>
	<path id="Path 64" class="s7" d="m266.8 342.1c-0.7-5.6 15.6-25.7 16.2-22.3 1.6-1.5-15.5 17.9-16.2 22.3zm72-0.1c0.1-4.6-14.2-22.3-14.2-19.5-2-0.7 13.1 16.2 14.2 19.5zm27.2-72c-5.2-2.2-29 7.9-25.8 9.4-2 1.2 21.4-9.9 25.8-9.4zm-59.4-45.5c-3.8 3.8-3.1 28.3-0.6 26 0.3 2.1-1.4-22.3 0.6-26z"/>
	<path id="Path 65" class="s11" d="m418.2 262.3c8.7 5.3 29.6 25.9 36.4-5.3-17.6-7.9-26-4.3-36.4 5.3z"/>
	<path id="Path 66" class="s7" d="m418.9 262.3c4.6-3.4 30.1 1.2 27.3 3.4 2.1 0.7-23.1-4.9-27.3-3.4z"/>
	<path id="Path 67" class="s11" d="m443.1 333.1c6.1-2.8 37.2-12.8 13.5-34.2-15.6 11.4-13.5 20.7-13.5 34.2z"/>
	<path id="Path 68" class="s11" d="m517 333c-7.8-5.2-33.2-9.2-13.7-29.2 14.3 9.1 14.6 15.3 13.7 29.2z"/>
	<path id="Path 69" class="s11" d="m548.3 256.6c-8.4 10.9-16.8 35.5-35.5 9.6 13.1-14.2 20-11.7 35.5-9.6z"/>
	<path id="Path 70" class="s11" d="m484.1 211.3c6.5 10 24 25.9-3.4 34.9-9.2-15.8-4.6-24.2 3.4-34.9z"/>
	<path id="Path 71" class="s3" d="m439.8 245.1c4.7-15.4 26.4-23.9 37-17.7 10.2 12 2.2 16.8 5 19.5 4.4 1.8 2.4-3.2 1.8-7.7-1.4-23.6 45.9-8.2 45.2 17.9-0.6 6.7-4.2 8.5-7.7 9.3-3 0.2-10.4-1.1-10 2.4 0.4 0.9 0.9 2.3 3.8 2.3 10.2-5.6 15.2-2.9 20.2 2 7 9.6-0.1 47.6-22.7 43.4-8.1-2.2-6-14.3-12.3-13.1-0.7 5.4 5.2 2.6 5.2 14.3-0.9 20.1-52.9 23.3-48.7-3.1 1.3-4 3.9-5.1 5.9-6.1 2.3-0.9 4.6-1.5 2.5-4.9-4.6-1.9-4 5.3-8 8.1-14.2 11.7-31.2-11.8-30.9-29.1 0.8-8.8 6-17.8 14.5-19.1 2.9-1.1 6.1 1.4 8.6 3.1 3.7 2.8 9.2-0.2 3.5-3.2-7.6 0.2-17.8 1.5-12.9-18.3z"/>
	<path id="Path 72" class="s12" d="m441.8 246.8c4.2-14.7 23.3-23.5 34.4-15.1 5.8 6.1-6.8 16.7 4.1 20.2 10.2 1.6 7.3-8.1 6.8-12.5-1.3-20.4 40-5 39.4 18.8-2.2 8.8-13.4 5.9-16.1 7.4-4.8-0.7-7 9.7-0.6 10 6 2.6 9.2-8.7 20.8-2.8 8.4 4.6 2.4 44.2-16.2 41.9-12.5-5.2-5.9-19.9-18.7-15.3-7.4 8 3.3 10.6 6.8 18.4-0.8 19.1-47.9 22-43.9-3.1 1.3-3.5 4.3-4.1 6.8-5.4 3-1 4.8-5 1.4-8.7-10.7-5-7.7 11.3-17.2 11.9-11.3 1.3-21.6-16.2-20.7-30 0.7-8.5 3.1-14.7 11.2-15.9 2.8-1 7.5 4 9.8 5.6 7 3.8 13.3-7.5 4.1-10.6-7.3-0.9-16.8 2.9-12.2-14.8z"/>
	<path id="Path 73" class="s3" d="m449.6 309.6c-4.6 0.8-8.7-0.9-10.5-6.4-1.7-6-0.1-8.2-1.6-12.7-1.9-6.8-2.7-6-4.4-10.7-1.2-4.6 0.4-8.9 4.1-10.5-2 3.7-3 6.1-2.4 9.3 1.7 6.1 3.1 4.9 5.3 10 1.8 5-1 7.7 1.3 15.5 1.3 3.6 4.7 5 8.2 5.5z"/>
	<path id="Path 74" class="s3" d="m525.4 272.1c3.7 2.7 5.7 6.8 4.3 12.2-1.8 5.7-4.1 6.3-5.3 10.7-1.3 7.7-0.2 7-1.5 11.4-1.5 4.4-5.4 6.1-8.9 4.7 3.5-0.9 5.4-1.8 6.5-4.7 1.9-5.7 0.6-6.7 1.6-12.1 1.3-5 3.3-4.8 5.5-12.3 0.9-3.6 0-7-2.2-9.9z"/>
	<path id="Path 75" class="s3" d="m467.3 324.5c7.8 0.4 8.9-2.8 14-2.3 5.3 0.7 5.1 2.5 11.2 2.6 3.1-0.1 4.9-1.4 7.8-3.9-0.4 3.5-3.9 5.7-8.5 5.6-4.7-0.5-4.2-1.3-11-1.5-4.5-0.3-6.1 1.5-12 1.4-5.5-0.5-8.2-3.5-8.8-7.6 1.4 2.8 3.6 5.4 7.3 5.7z"/>
	<path id="Path 76" class="s3" d="m444.5 259.5c-2.5-3.9-2.8-8.1 0.9-11.8 4.2-3.8 6.7-3.2 9.7-6.2 4.7-4.3 3.8-4.7 6.9-7.9 3.3-2.9 7.4-3.1 10.2-0.4-3.9-0.4-6.2-0.4-8.5 1.4-4.3 3.8-3.3 4.1-6.6 7.9-3.3 3.5-6.1 2.6-11.4 7.6-2.5 2.5-2.2 6.1-1.2 9.4z"/>
	<path id="Path 77" class="s3" d="m487.9 237.2c3.8-3.5 8.4-4.7 13.1-1.7 4.9 3.6 4.8 6.3 8.7 8.8 6.9 3.6 6.6 2.2 10.5 4.8 3.7 2.8 4.2 7.8 1.7 11.4 0.2-4.2 0-7.1-2.4-9.2-5-3.7-6.4-2.6-11.2-5.2-4.4-2.8-3.1-4.9-9.6-9.3-3.2-2.1-7.3-1.4-10.8 0.4z"/>
	<path id="Path 78" class="s3" d="m478.8 302.2c-3.9-16.2-15.2-21-37.6-12.7-0.9 0.2-1.3-0.2-0.8-0.7 28.9-9.5 36.3-20.7 16.6-46-0.3-1.2 0-0.6 1.4 0.7 15.6 22 30 26.6 46.9 2.1 1.1-1.1 1.2-1.2 1.1-0.6-6.5 7.9-10.4 13.8-10.8 21.3-0.9 10.8 7.9 19.3 27.5 25.9 1.5 0.7-0.3 0.7-2.2-0.1-6.5-2.5-12.8-5.5-19-5.6-9.6 0-16.4 4.3-19.6 14.2-1.6 5.1-1.8 11.8-1.5 19.7-0.1 2.4-0.5 2.1-0.7 0.8 0.1-7.3-0.4-13.8-1.3-19z"/>
	<path id="Path 79" class="s12" d="m456.9 283.8c8.8-3.3 17.1-11.5 11.5-25.9 8.7 7.9 16.5 9.7 26.1 2.2-3.1 11.9-0.3 19.6 9.6 25-10.5-1.9-19.9 2.2-23.8 16.3-2.2-13-10.7-18.3-23.4-17.6z"/>
	<path id="Path 80" class="s7" d="m491 277.3c0 5.7-4.5 10.2-10.2 10.2-5.6 0-10.2-4.5-10.2-10.2 0-5.6 4.6-10.2 10.2-10.2 5.7 0 10.2 4.6 10.2 10.2z"/>
	<path id="Path 81" fill-rule="evenodd" class="s10" d="m489.4 278.5c0.3 0.3 0.3 0.8 0 1.2-0.2 0.2-0.6 0.3-0.8 0.1q-0.1 0.1-0.1 0.2 0.2 0 0.4 0.2c0.3 0.3 0.3 0.8 0 1.1-0.3 0.3-0.7 0.3-1 0.1q-0.1 0-0.1 0.1 0.1 0.1 0.3 0.2c0.3 0.3 0.3 0.8 0 1-0.3 0.3-0.7 0.3-1 0.1 0.2 0.3 0.2 0.7-0.1 1-0.3 0.3-0.8 0.3-1.1 0q0 0-0.1-0.1 0 0 0 0 0 0 0 0.1c0.3 0.3 0.3 0.7 0 1-0.3 0.3-0.8 0.3-1.1 0q0 0-0.1-0.1c0.1 0.3 0 0.6-0.2 0.8-0.3 0.3-0.8 0.3-1.1 0-0.1-0.2-0.1-0.2-0.2-0.4 0.1 0.3 0 0.6-0.2 0.9-0.3 0.3-0.8 0.3-1.1 0q-0.2-0.3-0.2-0.6 0 0 0 0 0 0 0 0.1c0 0.4-0.4 0.8-0.8 0.8-0.8 0-0.7-0.6-0.8-0.8 0 0.4-0.4 0.8-0.9 0.6-0.5-0.1-0.6-0.6-0.5-0.9-0.1 0-0.1 0.1-0.3 0.3-0.3 0.3-0.8 0.3-1.1 0-0.9-0.7-0.7 0.1-1.4-0.9-0.4-0.6-0.4 0-1.2-0.7-0.9-1.2 0.5-0.7-0.9-1.1-1.5-1.5 0-1.4-1-1.8-0.2-0.7 0.1-0.7-0.4-1.3-0.3-0.3-0.3-0.8 0-1.1 0.4-0.9-0.5 0.4-0.5-1.2 0-0.5 0.2-2.2 0.5-2.4 0.4-0.4 0.7-0.3 0.7-0.3q0 0-0.2-0.2c-0.3-0.3-0.3-0.8 0-1.1 1.1-1.1-0.1-0.5 0.8-1.4 1-0.7-0.2 0 1-1.2 1-1 0.1 0.1 1.2-1 0.3-0.3 0.8-0.3 1.1 0q0.1 0.1 0.1 0.1c-0.1-0.2 0-0.5 0.2-0.7 0.3-0.3 0.8-0.3 1.1 0q0.2 0.1 0.2 0.4 0-0.1 0.1-0.1c-0.1-0.3-0.1-0.6 0.1-0.8 0.3-0.3 0.8-0.3 1.1 0q0.3 0.2 0.2 0.6 0.1 0 0.1 0-0.1-0.1-0.1-0.2c0-0.4 0.4-0.7 0.8-0.7 0.4 0 0.8 0.3 0.8 0.7q0 0.1 0 0.2 0 0 0 0 0-0.4 0.2-0.6c0.3-0.3 0.8-0.3 1.1 0 0.2 0.2 0.3 0.5 0.1 0.8q0.1 0 0.1 0.1 0.1-0.3 0.2-0.4c0.3-0.3 0.8-0.3 1.1 0 0.2 0.2 0.3 0.5 0.2 0.7q0.1 0 0.1-0.1c0.3-0.3 0.8-0.3 1.1 0 0.3 0.3 0.3 0.8 0 1.1q0 0 0 0 0 0 0 0 0.1-0.1 0.1-0.1c0.3-0.3 0.8-0.3 1.1 0 0.3 0.3 0.3 0.7 0 1q-0.1 0.1-0.1 0.1 0 0.1 0.1 0.1 0 0 0 0c0.3-0.3 0.8-0.3 1.1 0 0.3 0.3 0.3 0.8 0 1q-0.1 0.2-0.3 0.2 0.1 0.1 0.1 0.1c0.3-0.2 0.7-0.1 1 0.1 0.3 0.3 0.3 0.8 0 1.1q-0.2 0.2-0.4 0.2 0.1 0.1 0.1 0.2c0.3-0.1 0.6 0 0.8 0.2 0.3 0.3 0.3 0.8 0 1.2q-0.2 0.2-0.5 0.2 0 0 0 0.1 0.1 0 0.1 0c0.4 0 0.8 0.3 0.8 0.8 0 0.4-0.4 0.8-0.8 0.8q0 0-0.1 0 0 0 0 0.1 0.3 0 0.5 0.2zm-4.9 6q0 0 0 0 0 0 0 0 0 0 0 0zm-7.4-14.4q0 0 0 0 0 0 0 0 0 0 0 0zm7.4 0q0 0 0 0 0 0 0 0 0 0 0 0z"/>
	<path id="Path 82" class="s3" d="m474 276.5c0-0.3 0.2-0.5 0.5-0.5 0.3 0 0.5 0.2 0.5 0.5 0 0.3-0.2 0.6-0.5 0.6-0.3 0-0.5-0.3-0.5-0.6z"/>
	<path id="Path 83" class="s3" d="m477.6 272.2c-0.3-0.2-0.3-0.6 0-0.8 0.2-0.2 0.5-0.2 0.7 0 0.3 0.2 0.3 0.6 0 0.8-0.2 0.3-0.5 0.3-0.7 0z"/>
	<path id="Path 84" class="s3" d="m475.9 273.3c-0.2-0.2-0.2-0.5 0-0.7 0.1-0.2 0.4-0.2 0.6 0 0.2 0.2 0.2 0.5 0 0.7-0.2 0.2-0.5 0.2-0.6 0z"/>
	<path id="Path 85" class="s3" d="m474.7 275.1c-0.2-0.3-0.2-0.6 0-0.8 0.2-0.2 0.5-0.2 0.7 0 0.2 0.2 0.2 0.5 0 0.8-0.2 0.2-0.5 0.2-0.7 0z"/>
	<path id="Path 86" class="s3" d="m474 278.6c0-0.3 0.3-0.5 0.5-0.5 0.3 0 0.5 0.2 0.5 0.5 0 0.3-0.2 0.5-0.5 0.5-0.2 0-0.5-0.2-0.5-0.5z"/>
	<path id="Path 87" class="s3" d="m474.8 280.6c0-0.3 0.2-0.6 0.5-0.6 0.3 0 0.5 0.3 0.5 0.6 0 0.3-0.2 0.5-0.5 0.5-0.3 0-0.5-0.2-0.5-0.5z"/>
	<path id="Path 88" class="s3" d="m476.1 282.1c0-0.3 0.2-0.5 0.5-0.5 0.3 0 0.5 0.2 0.5 0.5 0 0.3-0.2 0.5-0.5 0.5-0.3 0-0.5-0.2-0.5-0.5z"/>
	<path id="Path 89" class="s3" d="m477.7 283.1c0-0.2 0.2-0.5 0.5-0.5 0.2 0 0.5 0.3 0.5 0.5 0 0.3-0.3 0.5-0.5 0.5-0.3 0-0.5-0.2-0.5-0.5z"/>
	<path id="Path 90" class="s7" d="m479.7 270.4c-0.1 0.3 0.1 0.6 0.2 0.6 0.6-0.7 1.8 0.1 1.6 1 0.1-0.2 0.9-0.8 1.4-0.2 0.3 0.2 0.3 0.6 0.1 0.9 0.3-0.3 1-0.4 1.3-0.1 0.4 0.4 0.3 1-0.1 1.3 0.4-0.3 0.9-0.3 1.2 0 0.5 0.4 0.2 1.1-0.4 1.3-0.2 0.1 0.1 0.1 0.2 0.1 0.3-0.1 0.6 0 0.9 0.2 0.3 0.3 0.3 0.8 0 1.1q-0.3 0.2-0.6 0.2c0-0.1 0-0.1 0 0-0.1 0.1 0 0.1 0 0.1q0 0 0 0c0.6-0.1 1.1 0.2 1.1 0.7 0 0.6-0.6 0.9-1.1 0.8q0 0.1 0 0.1c0.4 0.1 0.7 0.4 0.7 0.8 0 0.6-0.8 1-1.3 0.7-0.1 0-0.1 0-0.1 0.1 0.4 0.1 0.6 0.4 0.6 0.7 0 0.4-0.4 0.8-0.9 0.8-0.2 0-0.5-0.2-0.7-0.4 0 0-0.1 0 0 0.1q0 0 0 0c0.2 0.1 0.3 0.3 0.3 0.6 0 0.8-1 1-1.5 0.4 0.4 0.8-0.8 1.5-1.3 0.2-0.1 0.6-0.2 1.5-0.9 1.5-0.2 0.1-0.6-0.3-0.7-0.5-0.1 0 0.2 0.5 0.2 0.8 4.5 0.1 7.6-2.9 7.7-6.9 0.1-3.9-3.8-7.5-7.9-7zm-0.3 13.3c0-0.3 0.2-0.5 0.5-0.5 0.3 0 0.5 0.2 0.5 0.5 0 0.2-0.2 0.5-0.5 0.5-0.3 0-0.5-0.3-0.5-0.5z"/>
	<path id="Path 91" class="s13" d="m479.4 283.7c0-0.3 0.2-0.5 0.5-0.5 0.3 0 0.5 0.2 0.5 0.5 0 0.2-0.2 0.5-0.5 0.5-0.3 0-0.5-0.3-0.5-0.5z"/>
	<path id="Path 92" class="s3" d="m479.4 271c0-0.3 0.2-0.5 0.4-0.5 0.3 0 0.5 0.2 0.5 0.5 0 0.3-0.2 0.5-0.5 0.5-0.2 0-0.4-0.2-0.4-0.5z"/>
	<path id="Path 93" class="s3" d="m484.4 277.3c0 2.2-1.8 4-3.9 4-1.4 0-2.9-0.7-3.2-1.8h2.6v-4.5h-2.6c0.7-1 1.9-1.6 3.2-1.6 2.1 0 3.9 1.7 3.9 3.9z"/>
	<path id="Path 94" class="s10" d="m483.7 277.3c0 1.7-1.3 3-3 3-1.6 0-2.9-1.3-2.9-3 0-1.6 1.3-2.9 2.9-2.9 1.7 0 3 1.3 3 2.9zm-0.5 2.6c-0.2 0-0.5-0.1-0.6-0.3 0.4-0.3 0.7-0.7 0.9-1.2 0.4 0.1 0.6 0.4 0.6 0.7 0 0.4-0.4 0.8-0.9 0.8zm0.7-1.6q-0.2 0-0.4 0 0.2-0.5 0.2-1 0-0.3-0.1-0.6 0.1 0 0.3 0c0.4 0 0.8 0.3 0.8 0.8 0 0.5-0.4 0.8-0.8 0.8zm-0.3-1.7c-0.1-0.5-0.4-1-0.8-1.4 0.1-0.2 0.3-0.3 0.6-0.3 0.5 0 0.9 0.4 0.9 0.9 0 0.4-0.3 0.7-0.7 0.8zm-0.9-1.4q-0.6-0.5-1.4-0.7c0.1-0.4 0.4-0.7 0.8-0.7 0.5 0 0.8 0.4 0.8 0.8q0 0.3-0.2 0.6zm-1.4-0.7q-0.2-0.1-0.5-0.1c-1.6 0-2.9 1.3-2.9 2.9 0 1.2 0.6 2.1 1.5 2.6-0.1 0.3-0.4 0.5-0.8 0.5-0.4 0-0.8-0.4-0.8-0.8q0-0.4 0.3-0.6-0.1 0-0.3 0c-0.5 0-0.9-0.4-0.9-0.9 0-0.5 0.4-0.9 0.9-0.9-0.4-0.1-0.7-0.5-0.7-0.9 0-0.5 0.4-0.9 0.8-0.9q0.2 0 0.4 0.1-0.3-0.2-0.3-0.6c0-0.5 0.4-0.8 0.9-0.8 0.3 0 0.6 0.1 0.7 0.4q0-0.1 0-0.2c0-0.4 0.4-0.8 0.9-0.8 0.5 0 0.8 0.4 0.8 0.8q0 0.1 0 0.2zm-1.2 6.6c-0.4 0-0.8-0.3-0.8-0.8q0-0.2 0.2-0.4 0.6 0.3 1.3 0.3 0.1 0 0.1 0 0 0.1 0 0.1c0 0.5-0.3 0.8-0.8 0.8zm1.8-0.1c-0.5 0-0.9-0.3-0.9-0.8 0.6 0 1.1-0.2 1.5-0.6q0.2 0.3 0.2 0.6c0 0.5-0.4 0.8-0.8 0.8z"/>
	<path id="Path 95" class="s3" d="m480.2 277.3c0-0.3 0.3-0.6 0.6-0.6 0.3 0 0.6 0.3 0.6 0.6 0 0.3-0.3 0.6-0.6 0.6-0.3 0-0.6-0.3-0.6-0.6z"/>
	<path id="Path 96" class="s7" d="m444.7 331.5c-0.7-5.6 15.6-25.7 16.2-22.2 1.6-1.5-15.5 17.9-16.2 22.2zm72.1 0c0-4.6-14.3-22.3-14.3-19.5-2-0.8 13.1 16.2 14.3 19.5zm27.1-72c-5.2-2.2-29 7.9-25.8 9.4-1.9 1.2 21.4-9.9 25.8-9.4zm-59.4-45.5c-3.8 3.8-3 28.3-0.6 26 0.3 2.1-1.4-22.3 0.6-26z"/>
	<path id="Path 97" class="s11" d="m597.2 271.8c8.7 5.2 29.6 25.9 36.3-5.3-17.6-7.9-25.9-4.4-36.3 5.3z"/>
	<path id="Path 98" class="s7" d="m597.9 271.8c4.5-3.4 30.1 1.2 27.3 3.3 2.1 0.7-23.1-4.8-27.3-3.3z"/>
	<path id="Path 99" class="s11" d="m622.1 342.6c6.1-2.9 37.1-12.8 13.4-34.2-15.6 11.4-13.4 20.6-13.4 34.2z"/>
	<path id="Path 100" class="s11" d="m696 342.4c-7.9-5.1-33.3-9.1-13.7-29.1 14.3 9 14.6 15.2 13.7 29.1z"/>
	<path id="Path 101" class="s11" d="m727.3 266c-8.4 10.9-16.8 35.6-35.5 9.7 13-14.3 20-11.7 35.5-9.7z"/>
	<path id="Path 102" class="s11" d="m663.1 220.7c6.5 10.1 24 26-3.4 35-9.2-15.8-4.7-24.2 3.4-35z"/>
	<path id="Path 103" class="s3" d="m618.7 254.6c4.8-15.4 26.5-23.9 37-17.8 10.3 12.1 2.3 16.8 5.1 19.6 4.4 1.7 2.3-3.3 1.8-7.7-1.5-23.6 45.9-8.2 45.2 17.8-0.6 6.7-4.2 8.6-7.7 9.4-3 0.1-10.4-1.1-10.1 2.4 0.4 0.9 1 2.3 3.9 2.2 10.2-5.5 15.1-2.9 20.2 2.1 7 9.6-0.2 47.6-22.8 43.4-8-2.2-5.9-14.3-12.3-13.1-0.6 5.4 5.3 2.5 5.3 14.3-0.9 20.1-53 23.3-48.8-3.2 1.4-3.9 4-5 6-6 2.2-0.9 4.5-1.5 2.5-4.9-4.7-1.9-4.1 5.3-8.1 8.1-14.1 11.7-31.2-11.8-30.8-29.1 0.8-8.9 5.9-17.9 14.4-19.1 3-1.1 6.2 1.4 8.6 3.1 3.7 2.7 9.3-0.2 3.6-3.2-7.6 0.2-17.8 1.5-13-18.3z"/>
	<path id="Path 104" class="s12" d="m620.8 256.3c4.1-14.7 23.3-23.5 34.4-15.1 5.7 6-6.8 16.6 4.1 20.1 10.2 1.7 7.3-8 6.8-12.5-1.3-20.3 40-4.9 39.4 18.9-2.3 8.7-13.4 5.9-16.1 7.4-4.9-0.7-7 9.6-0.6 10 6 2.6 9.2-8.7 20.8-2.8 8.4 4.6 2.3 44.1-16.2 41.9-12.5-5.2-5.9-19.9-18.7-15.3-7.5 8 3.3 10.6 6.8 18.4-0.9 19.1-47.9 22-43.9-3.2 1.3-3.4 4.2-4.1 6.7-5.3 3-1.1 4.9-5 1.5-8.7-10.7-5-7.7 11.3-17.2 11.9-11.3 1.3-21.6-16.2-20.8-30 0.8-8.5 3.2-14.7 11.3-15.9 2.8-1 7.5 3.9 9.8 5.6 7 3.7 13.3-7.5 4-10.7-7.2-0.8-16.7 2.9-12.1-14.7z"/>
	<path id="Path 105" class="s3" d="m628.6 319c-4.7 0.9-8.7-0.8-10.6-6.3-1.6-6 0-8.3-1.5-12.7-1.9-6.8-2.7-6.1-4.4-10.7-1.2-4.7 0.3-9 4.1-10.6-2.1 3.8-3.1 6.1-2.4 9.4 1.6 6.1 3.1 4.9 5.3 10 1.7 5-1.1 7.7 1.3 15.4 1.3 3.7 4.7 5.1 8.2 5.5z"/>
	<path id="Path 106" class="s3" d="m704.3 281.6c3.8 2.7 5.8 6.8 4.4 12.2-1.8 5.7-4.1 6.3-5.3 10.7-1.3 7.6-0.2 7-1.5 11.4-1.5 4.3-5.4 6.1-8.9 4.7 3.5-0.9 5.3-1.8 6.5-4.7 1.9-5.7 0.5-6.7 1.6-12.1 1.2-5 3.3-4.8 5.5-12.3 0.9-3.6 0-7-2.3-9.9z"/>
	<path id="Path 107" class="s3" d="m646.3 334c7.7 0.4 8.9-2.8 14-2.4 5.2 0.8 5.1 2.6 11.1 2.7 3.2-0.1 5-1.4 7.9-4-0.4 3.5-3.9 5.8-8.5 5.7-4.7-0.5-4.3-1.3-11-1.5-4.5-0.3-6.1 1.5-12.1 1.3-5.5-0.4-8.2-3.5-8.7-7.6 1.4 2.9 3.6 5.5 7.3 5.8z"/>
	<path id="Path 108" class="s3" d="m623.4 269c-2.5-3.9-2.7-8.1 1-11.8 4.2-3.8 6.6-3.2 9.7-6.2 4.7-4.3 3.8-4.7 6.9-7.9 3.3-2.9 7.4-3.1 10.1-0.4-3.8-0.4-6.1-0.4-8.5 1.4-4.2 3.8-3.2 4-6.5 7.9-3.3 3.4-6.1 2.6-11.5 7.6-2.4 2.5-2.2 6-1.2 9.4z"/>
	<path id="Path 109" class="s3" d="m666.9 246.6c3.8-3.5 8.3-4.6 13.1-1.6 4.9 3.6 4.8 6.3 8.6 8.8 7 3.5 6.7 2.2 10.5 4.8 3.8 2.8 4.3 7.8 1.8 11.4 0.2-4.2 0-7.2-2.5-9.2-4.9-3.7-6.3-2.6-11.1-5.2-4.4-2.8-3.1-4.9-9.6-9.4-3.2-2-7.3-1.4-10.8 0.4z"/>
	<path id="Path 110" class="s3" d="m657.7 311.7c-3.8-16.2-15.2-21.1-37.5-12.7-0.9 0.2-1.3-0.2-0.8-0.7 28.9-9.5 36.3-20.7 16.6-46-0.4-1.2 0-0.6 1.3 0.6 15.7 22 30.1 26.7 47 2.1 1-1 1.2-1.1 1.1-0.5-6.5 7.9-10.5 13.8-10.9 21.2-0.8 10.9 8 19.4 27.6 26 1.5 0.7-0.4 0.7-2.2-0.1-6.6-2.5-12.9-5.5-19-5.7-9.7 0.1-16.5 4.4-19.6 14.3-1.6 5-1.8 11.7-1.5 19.7-0.1 2.3-0.6 2.1-0.7 0.8 0.1-7.4-0.4-13.8-1.4-19z"/>
	<path id="Path 111" class="s12" d="m635.9 293.3c8.8-3.4 17.1-11.5 11.5-25.9 8.7 7.8 16.5 9.7 26.1 2.1-3.1 11.9-0.4 19.7 9.6 25.1-10.5-1.9-20 2.2-23.9 16.2-2.2-12.9-10.6-18.3-23.3-17.5z"/>
	<path id="Path 112" class="s7" d="m670 286.8c0 5.6-4.6 10.2-10.2 10.2-5.7 0-10.2-4.6-10.2-10.2 0-5.7 4.5-10.2 10.2-10.2 5.6 0 10.2 4.5 10.2 10.2z"/>
	<path id="Path 113" fill-rule="evenodd" class="s10" d="m668.4 288c0.3 0.3 0.3 0.8 0 1.1-0.2 0.3-0.6 0.3-0.9 0.2q0 0.1 0 0.1 0.2 0.1 0.3 0.2c0.3 0.3 0.3 0.9 0 1.2-0.2 0.2-0.7 0.3-1 0.1q0 0 0 0.1 0.1 0 0.2 0.2c0.3 0.2 0.3 0.7 0 1-0.2 0.3-0.7 0.3-1 0.1 0.3 0.3 0.2 0.7 0 1-0.3 0.3-0.8 0.3-1.1 0q-0.1-0.1-0.1-0.1 0 0-0.1 0 0.1 0 0.1 0c0.3 0.3 0.3 0.8 0 1.1-0.3 0.3-0.8 0.3-1.1 0q-0.1-0.1-0.1-0.1c0.1 0.2 0 0.5-0.2 0.8-0.3 0.2-0.8 0.2-1.1 0-0.1-0.2-0.2-0.2-0.3-0.4 0.2 0.3 0.1 0.6-0.1 0.8-0.3 0.3-0.8 0.3-1.1 0q-0.3-0.2-0.2-0.6-0.1 0.1-0.1 0.1 0 0 0 0.1c0 0.4-0.3 0.7-0.7 0.7-0.8 0-0.7-0.5-0.8-0.7 0 0.4-0.4 0.7-0.9 0.6-0.6-0.1-0.7-0.6-0.6-0.9 0 0-0.1 0.1-0.2 0.3-0.3 0.2-0.8 0.2-1.1 0-0.9-0.7-0.7 0.1-1.4-1-0.4-0.5-0.4 0.1-1.2-0.7-0.9-1.1 0.5-0.6-0.9-1-1.5-1.5-0.1-1.4-1-1.8-0.3-0.7 0.1-0.7-0.4-1.3-0.4-0.3-0.4-0.9 0-1.2 0.4-0.8-0.5 0.5-0.5-1.1 0-0.5 0.2-2.2 0.5-2.5 0.3-0.3 0.6-0.2 0.7-0.2q0 0-0.3-0.2c-0.3-0.3-0.3-0.8 0-1.1 1.2-1.2 0-0.5 0.9-1.4 1-0.7-0.3 0 1-1.3 1-0.9 0.1 0.2 1.2-0.9 0.3-0.3 0.8-0.3 1.1 0q0.1 0 0.1 0.1c-0.1-0.3 0-0.6 0.2-0.8 0.3-0.3 0.8-0.3 1.1 0q0.1 0.2 0.2 0.4 0 0 0.1 0c-0.2-0.3-0.1-0.6 0.1-0.9 0.3-0.3 0.8-0.3 1.1 0q0.2 0.3 0.2 0.6 0 0 0 0 0 0 0-0.1c0-0.4 0.4-0.8 0.8-0.8 0.4 0 0.7 0.4 0.7 0.8q0 0.1 0 0.1 0 0 0.1 0-0.1-0.3 0.2-0.6c0.3-0.3 0.8-0.3 1.1 0 0.2 0.3 0.2 0.6 0.1 0.9q0.1 0 0.1 0 0-0.2 0.2-0.4c0.3-0.3 0.8-0.3 1.1 0 0.2 0.2 0.3 0.5 0.2 0.8q0-0.1 0.1-0.1c0.3-0.3 0.8-0.3 1.1 0 0.3 0.3 0.3 0.7 0 1q0 0.1-0.1 0.1 0.1 0 0.1 0 0-0.1 0.1-0.2c0.3-0.3 0.8-0.3 1.1 0 0.3 0.3 0.3 0.8 0 1.1q-0.1 0.1-0.1 0.1 0 0.1 0.1 0.1 0 0 0-0.1c0.3-0.2 0.8-0.2 1.1 0 0.3 0.3 0.3 0.8 0 1.1q-0.1 0.1-0.3 0.2 0 0 0.1 0.1c0.3-0.2 0.7-0.2 0.9 0.1 0.3 0.3 0.3 0.8 0 1.1q-0.1 0.2-0.3 0.2 0 0.1 0.1 0.1c0.2 0 0.5 0.1 0.8 0.3 0.3 0.3 0.3 0.8 0 1.1q-0.2 0.2-0.5 0.3 0 0 0 0 0 0 0.1 0c0.4 0 0.8 0.4 0.8 0.9 0 0.4-0.4 0.8-0.8 0.8q-0.1 0-0.1 0 0 0 0 0 0.3 0.1 0.5 0.3zm-4.9 6q0 0 0 0 0 0 0 0 0 0 0 0zm-7.4-14.4q0 0 0 0 0 0 0 0 0 0 0 0zm7.4 0q0 0 0 0 0 0 0 0 0 0 0 0z"/>
	<path id="Path 114" class="s3" d="m653 286c0-0.3 0.2-0.5 0.5-0.5 0.3 0 0.5 0.2 0.5 0.5 0 0.3-0.2 0.6-0.5 0.6-0.3 0-0.5-0.3-0.5-0.6z"/>
	<path id="Path 115" class="s3" d="m656.5 281.7c-0.2-0.2-0.2-0.6 0-0.8 0.3-0.2 0.6-0.2 0.8 0 0.2 0.2 0.2 0.6 0 0.8-0.2 0.2-0.5 0.2-0.8 0z"/>
	<path id="Path 116" class="s3" d="m654.8 282.8c-0.2-0.2-0.2-0.5 0-0.7 0.2-0.2 0.5-0.2 0.7 0 0.2 0.2 0.2 0.5 0 0.7-0.2 0.2-0.5 0.2-0.7 0z"/>
	<path id="Path 117" class="s3" d="m653.7 284.5c-0.3-0.2-0.3-0.5 0-0.7 0.2-0.2 0.5-0.2 0.7 0 0.2 0.2 0.2 0.5 0 0.7-0.2 0.2-0.5 0.2-0.7 0z"/>
	<path id="Path 118" class="s3" d="m653 288.1c0-0.3 0.2-0.6 0.5-0.6 0.3 0 0.5 0.3 0.5 0.6 0 0.2-0.2 0.5-0.5 0.5-0.3 0-0.5-0.3-0.5-0.5z"/>
	<path id="Path 119" class="s3" d="m653.8 290.1c0-0.3 0.2-0.6 0.5-0.6 0.3 0 0.5 0.3 0.5 0.6 0 0.3-0.2 0.5-0.5 0.5-0.3 0-0.5-0.2-0.5-0.5z"/>
	<path id="Path 120" class="s3" d="m655.1 291.6c0-0.3 0.2-0.6 0.5-0.6 0.3 0 0.5 0.3 0.5 0.6 0 0.2-0.2 0.5-0.5 0.5-0.3 0-0.5-0.3-0.5-0.5z"/>
	<path id="Path 121" class="s3" d="m656.7 292.6c0-0.3 0.2-0.5 0.5-0.5 0.2 0 0.4 0.2 0.4 0.5 0 0.3-0.2 0.5-0.4 0.5-0.3 0-0.5-0.2-0.5-0.5z"/>
	<path id="Path 122" class="s7" d="m658.7 279.9c-0.2 0.3 0 0.5 0.2 0.6 0.6-0.8 1.8 0 1.6 0.9 0.1-0.2 0.8-0.7 1.4-0.1 0.3 0.2 0.3 0.6 0.1 0.9 0.3-0.4 0.9-0.4 1.3-0.1 0.4 0.4 0.3 1-0.1 1.2v0.1c0.3-0.3 0.9-0.3 1.2 0 0.5 0.4 0.2 1.1-0.4 1.3-0.3 0.1 0.1 0 0.2 0 0.3 0 0.6 0 0.8 0.2 0.4 0.3 0.4 0.8 0 1.1q-0.2 0.2-0.5 0.3c0-0.1 0-0.1-0.1 0 0 0.1 0 0 0.1 0.1q0 0 0 0c0.5-0.2 1.1 0.2 1.1 0.7 0 0.5-0.6 0.9-1.1 0.8q0 0-0.1 0.1c0.5 0.1 0.8 0.4 0.8 0.8 0 0.6-0.8 1-1.4 0.6 0 0 0 0.1 0 0.1 0.3 0.1 0.6 0.4 0.6 0.8 0 0.4-0.4 0.8-0.9 0.8-0.3 0-0.5-0.2-0.7-0.4 0 0-0.1 0-0.1 0.1q0.1 0 0.1 0c0.2 0.1 0.3 0.3 0.3 0.6 0 0.7-1 1-1.5 0.3 0.4 0.8-0.8 1.6-1.4 0.2 0 0.7-0.1 1.6-0.9 1.6-0.1 0-0.5-0.3-0.6-0.5-0.1-0.1 0.2 0.4 0.2 0.7 4.4 0.1 7.6-2.8 7.7-6.8 0.1-3.9-3.8-7.6-7.9-7zm-0.3 13.2c0-0.2 0.2-0.5 0.5-0.5 0.2 0 0.5 0.3 0.5 0.5 0 0.3-0.3 0.5-0.5 0.5-0.3 0-0.5-0.2-0.5-0.5z"/>
	<path id="Path 123" class="s13" d="m658.4 293.1c0-0.2 0.2-0.5 0.5-0.5 0.2 0 0.5 0.3 0.5 0.5 0 0.3-0.3 0.5-0.5 0.5-0.3 0-0.5-0.2-0.5-0.5z"/>
	<path id="Path 124" class="s3" d="m658.3 280.5c0-0.3 0.2-0.5 0.5-0.5 0.3 0 0.5 0.2 0.5 0.5 0 0.2-0.2 0.5-0.5 0.5-0.3 0-0.5-0.3-0.5-0.5z"/>
	<path id="Path 125" class="s3" d="m663.3 286.8c0 2.2-1.7 3.9-3.9 3.9-1.3 0-2.9-0.7-3.2-1.7h2.7v-4.5h-2.6c0.7-1 1.8-1.7 3.1-1.7 2.2 0 3.9 1.8 3.9 4z"/>
	<path id="Path 126" class="s10" d="m662.7 286.8c0 1.6-1.3 3-3 3-1.6 0-3-1.4-3-3 0-1.6 1.4-2.9 3-2.9 1.7 0 3 1.3 3 2.9zm-0.5 2.6c-0.3 0-0.5-0.1-0.7-0.3 0.5-0.3 0.8-0.8 1-1.3 0.3 0.1 0.6 0.4 0.6 0.8 0 0.4-0.4 0.8-0.9 0.8zm0.6-1.6q-0.1 0-0.3-0.1 0.2-0.4 0.2-0.9 0-0.3-0.1-0.6 0.1-0.1 0.2-0.1c0.5 0 0.9 0.4 0.9 0.9 0 0.4-0.4 0.8-0.9 0.8zm-0.2-1.7c-0.2-0.6-0.5-1-0.9-1.4 0.2-0.2 0.4-0.3 0.7-0.3 0.5 0 0.8 0.4 0.8 0.8 0 0.5-0.2 0.8-0.6 0.9zm-0.9-1.5q-0.6-0.5-1.4-0.6c0.1-0.4 0.4-0.7 0.8-0.7 0.4 0 0.8 0.4 0.8 0.8q0 0.3-0.2 0.5zm-1.4-0.6q-0.3-0.1-0.6-0.1c-1.6 0-2.9 1.3-2.9 2.9 0 1.1 0.7 2.1 1.6 2.6-0.1 0.3-0.4 0.5-0.8 0.5-0.4 0-0.8-0.4-0.8-0.8q0-0.4 0.2-0.7-0.1 0.1-0.2 0.1c-0.5 0-0.9-0.4-0.9-0.9 0-0.5 0.4-0.9 0.8-1-0.4 0-0.7-0.4-0.7-0.8 0-0.5 0.4-0.9 0.9-0.9q0.2 0 0.3 0.1-0.2-0.3-0.2-0.6c0-0.5 0.4-0.9 0.9-0.9 0.3 0 0.6 0.2 0.7 0.4q0 0 0-0.1c0-0.5 0.4-0.8 0.9-0.8 0.4 0 0.8 0.3 0.8 0.8q0 0.1 0 0.2zm-1.2 6.6c-0.4 0-0.8-0.3-0.8-0.8q0-0.2 0.1-0.4 0.6 0.3 1.3 0.3 0.1 0 0.2 0 0 0.1 0 0.1c0 0.5-0.3 0.8-0.8 0.8zm1.7-0.1c-0.4 0-0.8-0.3-0.8-0.8 0.5 0 1.1-0.2 1.5-0.6q0.2 0.2 0.2 0.6c0 0.4-0.4 0.8-0.9 0.8z"/>
	<path id="Path 127" class="s3" d="m659.2 286.8c0-0.3 0.3-0.6 0.6-0.6 0.3 0 0.6 0.3 0.6 0.6 0 0.3-0.3 0.6-0.6 0.6-0.3 0-0.6-0.3-0.6-0.6z"/>
	<path id="Path 128" class="s7" d="m623.7 341c-0.7-5.6 15.6-25.7 16.2-22.2 1.6-1.5-15.5 17.8-16.2 22.2zm72 0c0.1-4.7-14.2-22.3-14.2-19.5-2-0.8 13.1 16.2 14.2 19.5zm27.2-72c-5.2-2.3-29 7.9-25.9 9.4-1.9 1.1 21.5-9.9 25.9-9.4zm-59.4-45.6c-3.8 3.8-3.1 28.3-0.6 26 0.3 2.1-1.4-22.3 0.6-26z"/>
	<path id="Path 129" class="s13" d="m1326.8 1968.5h-1683.8v-2377.6h1683.8z"/>
	<path id="Path 130" class="s0" d="m324.9 23.7l5.2 26.5c-22 31-3 54.2 3.5 85.5-68.3 14.5-45.5 3.5-106.8 23.4-6.1-31.6-4.6-58.5-38.7-73.2l-5.7-22.8c53-19 93.4-30.4 142.5-39.4z"/>
	<path id="Path 131" class="s2" d="m318.3 28.7l4.8 22.6c-21.1 21.8-2.3 62.5 2.3 86.6-51.5 11.5-52.4 9.9-94.3 20.7-4.5-25.7-1.5-58.7-36.1-72.2l-6.7-22.1c39.6-13.7 85.8-27.9 130-35.6z"/>
	<path id="Path 132" class="s0" d="m758.7 98.6l-1.7 2.9c-191.1-79.8-418.2-41.3-540.7 0.8l-1.6-3.6c166.9-57.6 385.7-68.2 544-0.1z"/>
	<path id="Path 133" class="s0" d="m744.5 142.8l-1.6 2.8c-173.6-68.5-392.5-39.8-516.2 0.7l-2.1-3.4c181-54.3 360.7-61.6 519.9-0.1z"/>
	<path id="Path 134" class="s3" d="m408.5 32.9h3.3v24.2h-3.3z"/>
	<path id="Path 135" class="s3" d="m483.8 28.3h3.3v25.4h-3.3z"/>
	<path id="Path 136" class="s3" d="m443.4 54.8l3.2-0.2 1.1 23.4-3.3 3.3z"/>
	<path id="Path 137" class="s3" d="m483.1 60h3.3v22.6h-3.3z"/>
	<path id="Path 138" class="s3" d="m526.9 52h3.3v24l-3.3-0.1z"/>
	<path id="Path 139" class="s3" d="m387.3 106.6l3.3-0.3 2.8 22.4-3.3 0.4z"/>
	<path id="Path 140" class="s3" d="m630.6 111.6l3.2 0.6-4.4 22.7-3.2-0.5z"/>
	<path id="Path 141" class="s3" d="m360.6 88.5l3.3-0.3 2.5 21.3-3.3 0.3z"/>
	<path id="Path 142" class="s3" d="m482.5 103.4h3.3v20.6h-3.3z"/>
	<path id="Path 143" class="s3" d="m217.7 51.5l3.2-0.9 6.5 25.1-3.2 0.9z"/>
	<path id="Path 144" class="s3" d="m276.1 34.2l3.2-0.7 6 22.7-3.2 0.7z"/>
	<path id="Path 145" class="s3" d="m232.4 96.1l3.3-0.5 4.8 18.9-3.2 0.5z"/>
	<path id="Path 146" class="s3" d="m328.9 68.5l3.3-0.4 3.6 26.1-3.2 0.5z"/>
	<path id="Path 147" class="s3" d="m383.7 60.9l3.2-0.4 2.9 24.5-3.2 0.4z"/>
	<path id="Path 148" class="s3" d="m341.1 115.5l3.2-0.3 3.3 20-3.2 0.4z"/>
	<path id="Path 149" class="s3" d="m584.7 104.4l3.3 0.3-2.3 25.4-3.3-0.3z"/>
	<path id="Path 150" class="s3" d="m607.7 107.7l-3.2-0.3 3-22.2 3.3 0.4z"/>
	<path id="Path 151" class="s3" d="m636.4 87l-3.2-0.4 3.6-21.5 3.3 0.3z"/>
	<path id="Path 152" class="s3" d="m582.8 80l-3.2-0.4 2.9-21.5 3.3 0.4z"/>
	<path id="Path 153" class="s0" d="m161.5 401.1c223.6-16.6 443.9-17.1 649.8 1.9v5c-220.9-20.1-460.6-16-649.8-2.1z"/>
	<path id="Path 154" class="s0" d="m747.5 118.9l-1.6 2.8c-173.6-70.3-395.5-40.4-519.2 0.8l-2.1-3.5c182.5-53.7 364.9-62.1 522.9-0.1z"/>
	<path id="Path 155" class="s0" d="m486.3 58c38.4 1.2 43.3 47.1 44.5 65.8-29.5-2.1-61.4-1.8-90.9-0.5 4.5-22.7 10.2-65.1 46.4-65.3z"/>
	<path id="Path 156" class="s1" d="m486.5 61.3c31.6 1.2 35.6 45.6 36.6 63.7-24.3-2-50.5-1.7-74.7-0.5 3.6-22 8.4-63 38.1-63.2z"/>
	<path id="Path 157" class="s0" d="m267.4 103.5c23.5-4.8 35 29.4 39 41.1-18.5 3.6-38.4 3.9-55.6 9.3-1.4-15.2-5.4-44.9 16.6-50.4z"/>
	<path id="Path 158" class="s1" d="m267.8 106.7c18.8-4.1 28.5 26.5 31.7 36.6-14.8 3-30.5 6.2-44.3 10.9-1-13.1-5-42.8 12.6-47.5z"/>
	<path id="Path 159" class="s3" d="m445.6 5.9h3.3v24.2h-3.3z"/>
	<path id="Path 160" class="s3" d="m521.9 5.9h3.3v24.5h-3.3z"/>
	<path id="Path 161" class="s3" d="m561.1 32.3l3.2 0.3-2 20.6-3.3-0.2z"/>
	<path id="Path 162" class="s3" d="m255.8 66.2l3.3-0.5 4.4 19.1-3.2 0.4z"/>
	<path id="Path 163" class="s3" d="m209.7 80.2l3.2-0.5 4.5 19-3.2 0.5z"/>
	<path id="Path 164" class="s3" d="m287.5 79.5l3.2-0.7 5.4 23.6-3.2 0.7z"/>
	<path id="Path 165" class="s3" d="m303 54.1l3.2-0.5 4.5 19.1-3.2 0.4z"/>
	<path id="Path 166" class="s3" d="m423.5 80.8l3.2-0.1 1.1 23.1-3.3 0.2z"/>
	<path id="Path 167" class="s3" d="m543.9 78l3.3-0.1-0.1 23.2-3.3 0.1z"/>
	<path id="Path 168" class="s0" d="m718.8 153.9c-17.2-5.4-37.1-5.7-55.7-9.3 4.1-11.7 15.5-45.9 39.1-41.1 22 5.5 17.9 35.2 16.6 50.4z"/>
	<path id="Path 169" class="s1" d="m714.3 154.2c-13.7-4.7-29.4-7.9-44.3-10.9 3.3-10.1 12.9-40.7 31.8-36.6 17.6 4.7 13.6 34.4 12.5 47.5z"/>
	<path id="Path 170" class="s0" d="m326.9 44.8v4.4c-49 9.4-94.7 22.7-134.5 39l-2.4-4c44.8-17.1 90.6-30.2 136.9-39.4zm62.4-10.1c65-8.1 130.3-8.6 194-1.8v4.5q-0.2-0.1-0.4-0.1c-64.8-6.4-130.9-5.2-193.6 2.2zm256.4 7.5c47 8.8 92.7 21.8 136.4 38.9l-2.1 4.8c-41.6-17.9-86.5-30.9-133-39.4q-0.6-0.2-1.3-0.3z"/>
	<path id="Path 171" fill-rule="evenodd" class="s14" d="m582.7 867.6c-40.2 3.7-40.8 1.7-76.8 2.5 0-4.7-4.8-8.9-3.9-12.4 6.9-29.4-2.3-22.7-6.3-24-4.7-1.6-2.7-1.9-9.5-3.2 1.4 11.7 0.4 73 0.7 87.9-11.9 9.4 18.7 66.6 21.2 73.3 8.6 10.7-16.3 17-23.4 12.1-19.3-2.1-54.4-5.5-75-14.3-0.4-0.2-29.7-1-30.7-1.1-20-2-64.3-25-86.1-37.8-1.1 1.5-2.4 2.7-3.8 3.1l-16.3 1.4c-22.8 14.1-53.9-1.9-27.5-7.9l12.9-7.6 12-10.8c1.3 0 2.7-7.7 4.2-7.4 2.9-6.2 22.1-32.7 22.5-41.2-1.3-12.6-11.3-35.1-15.8-47-2.8-19.6-2.8-33.3-5.6-52.9-1.9-12.5-0.3-23.3 6-31.8 21.8-15.9 45.5-30.2 50.8-33 18.6-8.9 28.3-10.8 59.7-20.6l15.5-6.9q0.2-1.4 0.4-3.2l-7.7 4.1 6.9-54.2-5-0.7c-27.5-6.9-59.9-37-73.5-46.2-3.3 1-8.1 2.3-12.3 2.7-3.7-0.5-6.6-1-9.4-1.2-3.5 0-6.8 0.8-11.3 2.1-1.9 0.3-7.4 2.2-8.3 1.7-2.2-3.8 4-6 8-6.9 4-2.1 9.5-3.5 12-4.5-9.5 1.5-19.1 2.5-28 5.9-5.2 2-10.5 4.8-13.3 3-2.3-1.7 13.3-9.1 27.9-13.4-5.9 0.8-15.1 5-22.2 6.4-8.3 3.3-11.6 4.3-11.9 1.8-0.6-3 16.5-8 21.2-10.4 6.2-1.8 16.3-3.9 22.5-4.8 31 1.3 49.5 9.4 78.3 19.8 8.5 2.8 20 7.7 28.4 10.4-3.2 1.1-6.9 2.6-4.9 12.2q1-5.5 5.9-10.1l14.9-116.4-25.2-1.4-9.1 2.2 4-7.9-7.1-4.7 6.3-3.6 3-9 6.7 7.4 28.6 0.1 0.5-26.4-0.1-10.4 7.3 4.5 5.4-7.8 1.6 9.7 7.1-1.8-3.2 9.5-0.1 25.1 22.9 0.2-2.2 13q0.2 0 0.4-0.1c0.7-3.5 6-26.3 5.9-26.4-4.2-5.5-1.7-24.4 2.4-32.5 2.4-0.5 4.3-2.2 6.2-3.1 6.6-2.4 17.1-10 25.8-7 46.8-7.4 59.8 39 56.6 73.9 9 16.4-17.4 0.4 23.6 33.8q1.6 0.9 3 1.9c-2.2-2.3-4-4.3-5-5.6h-1.5l-12.8-12.4 2-17.8-6.6 0.8 0.1-20.5 6.1 1.8v-24.9l-1.3-8.1 5.4 1.4 3.7-5.9 0.9 3.6 1.3 1.8 5-0.9 0.9 32 29.9-4.8-4-23.4-2.1-10 9.3 4.3 2.8-8.6 2.2 6.3 4.6 0.5 5.4-2.7-1.3 5.8 0.8 23.7 27.7-4.5 7.7-3.1 1.3 6.2 6.6 0.5-6.3 5.8 4.4 4.3-39.3 11.6 1.5 8.6c4.5 69.3 12.8 165.7 14.3 230.3 1.7 71-5.8 55.4 3.3 110.2 0.7 4.3 4.8 10.6 5.7 15.8 0.6 3.4-2.5 10.8-1.8 14.6-2.3 1.7-43.2-0.6-43.2-0.7-2.1-6.1-14.6-5.1-26.6-8.1-11.9-3-4.9 13.7-14.8 14.4zm-110.2-382.8c-0.2 0.1-0.3 0.2-0.6 0.5 0 0.5-0.4 2-0.6 3.3h0.6zm-24.4 3.1l-3.9 27.6 21.9 1.5-2.5 19.7-20-1.1c-0.9 4.9-4.3 14-2.2 16.9 6.5 2.2 19-6.3 21.7-12.1 1.3-2.8 4.9-11.6 4.7-19.9v-0.9c-0.1-3.4 1.6-6.1 1.3-13.2-0.2-6.7 0.8-10.9 2-17.3q0.1-0.2 0.1-0.5zm164.7 62.4c3.5 11.8 7.6 35.1 8.4 48.5l7.1-0.9-2.6-54.6-13 0.1c-1.7-2.4-4.1-5.2-6.7-7.9 2.7 4.1 4.7 8.9 6.8 14.8zm8.4 48.5l0.2 4.9q0-2.1-0.2-4.9zm-29.8-79.1l6.6-0.2v-0.1l-7-0.3q0.2 0.3 0.4 0.6zm35.7 1.1l-2.1-36.8-27.8 4.8 0.8 30.6zm-21.1 14.7c-2.5-3.9-5.5-7.2-9.7-10.1 2.9 3 6.4 6.6 9.7 10.1zm8 185.9c3.4 0 22.1-0.2 22.1-3 0-23.9-25.6-20.9-25.6-17.2 0 6.2 3.3 20.2 3.5 20.2zm8.1 142l42.2 2c-12.6 37.5-12.6 77.3-7.1 116l-25.2 0.7c1.4-40.5 4.2-79.7-9.9-118.7zm2.2-247.7c-0.6 1.5-1 3.6-0.6 6.6 0.4 3.8 1.8 29.6-0.6 30.6-0.5 3-4.2 7.7-4.2 15.1 1.9 0.2 0.9 1.8 7.9 2.5q0.5 0.1 1.1 0.2l2.1-0.4 0.4-1.4 0.1-53.3zm8.4 371c5.7 0 18.5-0.7 24.2-0.7-4.1 7.3-8.5 16-9.9 25l-3.7 0.5c-2.1-9-5.6-17.5-10.6-24.8zm-49.2-116.2c-13.2 32.9-5.6 61.6-6.5 101.9-6.3 0-12.6-1.5-18.9-1.6-2.6-35.2-4.3-64.6-12.8-98.5zm-75.9 3l34.2-1.3c-7.4 38.4-6.2 69.9-3 110.1l-25.9-1.3c0.4-10.7 3.2-17.3 3.3-26.2 0.4-26.7-3.2-50.6-8.6-81.3zm6 113c7.3 0 16.3-0.8 23.5-0.8-6.6 10-9 19.9-10.1 29.8l-3.3 0.8c-1.9-11.1-4.5-21.6-10.1-29.8zm42.5-11.7c6.8 0 15.1 0 21.8 0-5 8.5-4.3 19.1-6.8 29l-6.2-0.2c-1.7-10.2-4.3-20-8.8-28.8z"/>
	<path id="Path 172" fill-rule="evenodd" class="s7" d="m263.8 580.6c5.4-2.6 12.2-5.3 18.4-7.7 6.7-2.3 12.4-2.7 21.7-4.2 39.3 0 81.4 21.6 106.7 28.6l13.9-110.6-18.9-0.3-15.4 3.4 4.2-11.4-8.1-5 7.3-5.6 4.5-9.8 8 8.8 22.2 0.7 4.5-24.8-1.9-13.6 9.5 6.6 6.7-9.8 3.4 11.5 8.8-2.9-4 12.6-2.4 21.9 22.4 1 2.2-11.7c-2.4-1.7-4.2-4.9-3-13.8q0 0-0.1 0l0.5-2.9q0.1 0 0.2 0c0.3-2.3-0.8-4 1-7.8 1.6-1.9 0.6-2.9 1.2-6.2 1.9-4.8 4.1-4.6 7.2-2.1q0 0 0 0c0.3-2.7-1.1-2.5 1.8-4.8 10.3-4.7 19.1-8.4 27.4-7.1 43.2-2.2 55.7 25 60.2 55.6l2.1-0.1-1.1-22.7-1.6-13.3 7.6 3.2 5.1-8 4.3 7.9 6.1-2.9 1.5 33.2 22.5-3.1-2.3-21.3-2.9-13 10.8 4.2 4.3-11.5 7.2 10 9-5.5-1.3 11.9 0.3 20.3 22.4-4.4 12.4-3.7 2 6.5 9.4 2.5-8.1 7.7 3.2 7.6h-6.5l-17.1 3.7-17.1 5 14.7 229.4 3.8 7.1-3.7 31.9q-1.6 38.6 3.6 77.3c0.7 5 4.9 12.3 5.8 17.3 1 6.1-1.2 13.6-2.3 19.9-12.8 35.4-13.8 73.9-7.5 114.4q-0.3 3.4-0.6 6.9c-6.5 7.6-9.5 17.5-12.3 27.5l-3.1-0.2c-3.9-8.6-10.6-26.5-13.5-27.9 0.1-0.2-1.4-5.5-1.8-7.5 6.2-23.3-1.2-92.7-11.2-117.3-0.4-0.9-0.5-1.8-0.4-2.7-5.6-5-25.4 1.6-26-5.1-1.1 4.1-1 15.2-4 16.3-11.3 19.7-8.3 63.1-7.4 99.6 0 2.1 0.5 3.5 0.7 5.6-2.1 5.1-7.3 15.8-9.1 31.1l-7.7-0.7c-1.1-13.4-3.6-14.8-8.6-30.3-0.4-2.4 0-5.1 0.6-7.1 1-40.9-8.9-81.3-12.1-95.4q-0.3 0.3-0.6 0.7c-5.1 28.8-10 64.9-3.5 106.2 0.1 2.1-0.5 5.9-0.1 6.6-2.5-0.9-10 17.2-10.8 31-0.9 0.8-4.2-0.2-5.1 0.2-0.2-8.1-8.9-30.3-13.2-33.3-1.2 0.1-0.6-0.7-0.8 1.8 1.7 3.3 0.2 4.6 3.1 13.1-10.9 13.6-44.8 7.3-75.9 0.2-12.2-2.7-36.2-10.5-42.5-8-25.7 6.8-75.7-22.2-99.9-35.5-3.9-0.9-14.7 0.2-19 1.1-13.5 7.1-30.4 7.6-40.6-0.3-3.6-10 4-9.6 9.1-12.8 13.1-5 15.1-8.9 24.2-17.7 8-15.1 22.5-34.4 25.7-47.7-3-15-13.2-35-15-47.5-1.3-16.6-2-33.3-5.1-53.3-1.5-18.5 2.8-28.5 7.8-34.1 17.4-11.1 33-21.4 50.4-32.5 34.6-15.6 46.7-18 60.6-20.9l11.2-5.1-4.6 1.3 6.4-51.3c-11.1-2.8-30.6-10.6-75.3-46.8-3.7 0.6-7.3 3-12.6 2.5-2.9-0.5-5.9-1-9.4-1.2-1.7-0.3-6.8 0.8-10.5 2.1-4.2 0.6-6.6 1.3-9.5 1.8-4.7-6.9 5.2-9.1 9.7-10.1-2.1-0.3-9.4 2.9-16.2 4.3-3.9 2-8 3.1-10 3.4-5.1 1.2-7.3-2.3-4.6-4 2.3-1.5 5.4-3.1 5.9-3.5-0.5 0.4-5.2 2.6-6.2 2.7-9.6 2.5-7.7-4.2-3.3-6.3zm378.3-99.5l1.8-0.4-0.3-0.9 30.9-7.5 4.8-0.2 3.7-0.9-3.8-4.6 6.3-5.8-6.6-0.5-1.3-6.2-7.7 3.1-27.7 4.5-0.8-23.7 1.3-5.8-8 3-4.2-7.1-2.8 8.6-7.7-1.9 2.3 6.8 2.2 24.2-29.9 4.8-0.9-32-5 0.9-2.2-5.4-3.7 5.9-5.4-1.4 1.3 8.1v24.9l-5.2 0.5-0.8 17.1 6.4 0.3 0.9 18.3-2.9-1.4-0.6-14.4-4.2-0.2 1 10.9 3.8 3.9 11.9 10.5 4.8 3.1-1.7-0.1c7.6 4.3 16 13.8 22 21.9l12.9 0.1 3 55.9-7 0.6c0.3 4.9 0.6 11.2 0.8 16.4l0.1 1.3 6.8-0.4 2.2 52.3-0.6 0.1-0.4 1.2-21.2 4.3 0.5 21.9c15.7-1.1 26 11.1 26.7 19.4 6.7-2.2 12.2-1.5 18.8 0.2l1 4.6c-12.4-4.1-27.3 0.3-40.3 3.6l2.3 25.5c11-3.1 24.7-1.9 36.3-1.1v0.3l-0.5 4c-9.6-2.5-19.9-1.5-31 2.6 0.9 7.5-0.9 9.8 0 17.3l-1.5 9.2 1.5 34.4c8.4 0 4.1 10.9 4.1 16.3l-0.1 0.6c6 0.1 11.8 0.2 17.5 0.2 5.5-0.7 11.8-1.6 14.7-1.9-3.1-25-4.4-52.2-4.1-78.1l3.5-31.4-2.7-6.3zm-234.1 120.2c-8-2.9-16.7-7.8-24.7-10.4-28.8-10.5-48.8-18.9-79.9-20.2-6.2 0.9-14.4 2-20.7 3.8-4.6 2.5-21.7 7.2-21.2 10.4 0.3 2.5 3.6 1.4 11.9-1.9 7.1-2.2 14.7-5.8 22.3-6.5-14.7 4.4-30 11.7-27.7 13.3 2.8 1.9 7.9-1.2 13-3.2 8.9-3.4 19-4.7 28-5.6-2.5 1.1-8 2.5-12 4.7-3.9 0.9-10.1 3-8 6.9 1 0.5 6.1-1.6 8.1-1.9 4.4-1.4 7.8-2.8 11.2-2.7 2.8 0.1 6 0.5 9.7 0.9 3.2-0.3 6.8-1.6 9.8-2.6 3-1 3-0.3 5.5 1.1 15 11 45.5 37.8 71.4 44.4 1.6 0.2 4.8 1.1 6.1 2.4h0.3v0.2l7.1 1.8c4.8-1.8 9.5-4.2 14.3-6.6v-0.3l1.9-0.6q0.7-0.4 1.3-0.8 0 0 0 0.1 1-0.5 2-1c19.6-12 28.5-20.6 35.8-24.8 0-1.7-0.4-2.9-1-4.7-4.3-12.7-18.9-22.5-24.9-21.6l-11.3 8.2v-0.6q-0.1 0.5-0.1 0.9l-21.2 15.8c-4 2.9-8.2 7.2-9.5 10.9-1-4.6 0.7-8.1 2.5-9.8zm28.3-17.8c1.2-9.5 1.7-19.5 3-29 0-0.1 0.2 0 0.2 0l2.2-20.8 19.7 0.8 3.3-17.1-22-2.1 4.5-28.2 23.2 0.5 2.6-14.4-24-1.8 2.9-24.9 3.3-7.7-6.9 2-1.6-9.7-5.4 7.8-7.1-4.5 2.8 7.5-4.3 28.5-28.2-0.9-5.8-7.4-1.9 7.8-7 3.6 8.8 4.7-5.6 8 12.1-2.3 24.4 1.4-13.8 111.5 13.9-10.4c-0.6 0.4-1.4 0.6-2.2 0.6q-0.3 0-0.7 0-0.5 0.1-1.1 0.1c-2.5 0-4.5-2-4.5-4.4 0-2.5 2-4.5 4.5-4.5q0.3 0 0.7 0 0.5-0.1 1.1-0.1c2.4 0 4.3 2 4.3 4.5 0 1.3-0.6 2.5-1.5 3.3l6.1-4.5zm247.2-111.6zm-278.7 213.3l22.5-10.4 3.1-40.1c-4.4 1-7.4 3.4-12.4 4.7-1.3-0.3-4.9-1.4-7.3-2.2zm36.9-129.7q0.3 0.1 0.7 0.2c-0.9 4.8-1.8 16.5-2.2 20.5-0.2 2.1 5.7-4.3 7.9-5 14.1 3.1 28.6 20.3 28.3 33.3 9.5 1.7 19.2-0.1 28.3 0.2l-5.4-19.6-1.2-22.6 2.1-0.9 6.7 32.5 1.7 10.2c10.8 1.7 21.7 2 33.4 2.8-4.2-20.8-4.3-30 5.4-51.7l-4.5-9.5-8.3-12.9c-2.1-2.6-6.2-2.5-8.7-3.3-2.3-0.4-8.2-0.1-10.4 0.3l-8.9 3.1c-2.4 1.6-8.3 3.9-6.3 5.5 5.3 1.4 10.2-1.9 15.1-4.1l10.2 0.1 2.7 1.7-9.7 0.2c-3.4 0.1-5.9 0.6-8.3 2.1-2.8 1.2-4 4-6.1 7.2-0.5 1-2.7 3.3-3.7 5.6-0.2 1.4 2.1 1.8 4.5 0.6 5.8-7.2 5.4-7.3 8.1-9.4 4-1.2 8.8-1.8 13.2-0.3l1 0.9c-2.9 0-9.6-0.7-13.9 1.1l-5 5.8-3.2 6.7c2.7 2.7 4.2-0.5 6-1.8l-1.4 5.3c-0.4 2.6 6-0.5 5.9-4.7 2 0.3 4.1-1.3 6.1-2.4 2 4.3 4.2 12 8.4 15.5 4 3.1 6.9 1.4 9.1 3.7l-0.8 6.2c-2.9-1.7-9.2-2.1-11.2-8.2-1.8-3.4-4.5-10.6-6.4-13.9-0.3 0.8-2.9 0.8-3.3 1.3-1.1 1.8-3.2 3.9-7.8 5-2.6-2.5-0.8-2.6-1.2-4.4-3.6 0.7-4.2 0.3-4.8-0.8-0.5-1 0.5-2.2 0.4-3.1-3.5-0.6-4.3-0.7-5-3.6 1.5-4.1 5.2-8.4 6.2-10.5-6.4-0.1-9.2-2-5.1-5.1 4.2-2.2 7.5-4.2 11.7-6 2.9-0.5 6.7-1 10-1.7 5.4 0.6 7.4 0.8 13.4 3.1 2.6 2 5.5 6.3 7.7 9.9l-3.9-62.2q-0.4-0.7-0.7-1.4c-0.4-3.8-0.9-7.5-1.5-10.5l0.5 0.6c-1.2-3.6-5-24.5-14.4-33.8-3.7-1.6-10.4-9.8-10.4-14.2 5.3 3.6 6.4 5.2 11.7 8.9 2.3 3 7.7 11.2 9.9 14.2 1.2 4.2 5.1 9.2 6.2 13.4 0.4 25.3 5.3 52.8 5.7 78.1l4.2 17.6 9.7 3.7 11.4 14.4 11.8 25.3 6.9 25.2-7.8-16.5c-2.3-4-9.3-25.6-14.4-29.7 0.9 21.2-14.9 36.8-7.3 57.2 5.8 19 15.4 31.2 33.2 34.4 17.7-0.9 29.5-5.9 28.6-24.9l-1.7-21.2c-0.9-8.3-0.9-16.9-1.6-25.1-1.5-15.1-6.7-46.9-10.1-51.1-4.9-9.3-12.1-17.4-20.3-22.3l-15.2 41.6-3-4.4 14-39.3 2.2-0.4-18-14.1 0.8-13.5c2.6-34.8-10.6-81.5-55.3-74.5-8.7-2.9-18.5 3.3-25.2 5.7-2.4 1.3-2.4 3.3-1.5 5.3 0.9 0.9 2.5 1.8 4.7 2.5-0.5 0.4-0.8 0.9-1.2 1.3q2.9-0.1 5.9-0.3 3.4-0.8 6.9-1.6 6.7 0.9 13.3 1.7l2.3 5c-3.3-2.5-7.3-3.9-12.2-3.5 0.8 5.7 0.2 13.3 1 19.1 0.3 2.8 4.1 3.6 6.8 3.2-0.3-3.8-1.8-9.2-2.1-13 0.4-0.1 1.9-0.6 2.4-0.6 1 5.1 2 9.8 4.2 15.1 2.8 4.5 7 10.1 9.8 14.7q3.3 3.4 6.7 6.7-0.3 1.2-0.5 2.3-4.4-3.7-8.8-7.3-5.2-7.1-10.3-14.1-1.7 0.1-3.4 0.2-8.3-4.1-16.7-8.2l-3.1-5.5-6.9 5.1c-0.3 0.8-0.7 1.7-1.4 2.7-1.3 5.9-0.4 11.5 1 16.8 0.6 2.1 1.3 3.4 0.8 5.5l-3.8 15.2c-0.9 4 4.2 3.7 6.7 4.2 1.2 9.3-2.5 4.8 0.3 8.7 1.7 1.2 2.6 0.9 4.1 0.7 0.5-0.1 3.1-0.1 3.5-0.1-0.4 0.2-2.4 1.6-2.7 1.8-3.5 2.6-0.8 6.1 2.4 5.3 1.1 0.3 2.4 0.6 1.9 1.9-0.7 2.3 0.2 4.6 1.7 6.2 4.2 3.2 6.6 1.2 13.5-1.4l10.3-5.5 3.7 0.9-13.2 7.9c-4.3 2.1-7.6 3.1-10.7 3.1-12.9-2.7-6.7-11.1-11-11.8-1.6-0.3-3.1-3.5-2.6-5.5-0.7-1.2-4.4-1.9-4.4-3.2 0.2-2 1.4-5 0.3-6.5-2.4-0.8-4.6-1.4-6.2-2.4-1.1-0.8-1.4-2.2-1.3-3.8l3.9-15.4c0.3-2.2 0.4-2.5-0.3-4.8-1-2.7-1.8-5.6-2.2-9.2l-6.8 29-3.6 25.2-5.8 25.9c3.8-1.7 7.8-3.1 11.7-4.2l5-27.7 3.4-0.4-4.2 26.8 15.1-8 0.9 3.1c-16.1 7.7-33.2 15.2-47.5 22.3-1.7-0.6-3.7-0.3-7.1 1.9q0.4-1.8 0.8-3.7c2.2-0.7 5.2-2.6 7.8-1.5 3.1-2.5 6.3-4.6 9.5-6.4l0.9-6.2-16.2-0.2q-1.6 9.1-2.9 18.4zm95.8-88.4q0.2 0.6 0.3 0.4zm-67.2 48.3l-3.9-0.3-0.1 0.2zm0.1-24.4l-20.3-0.8-3.3 23.1 19.6 1.7zm116.5 27.2l2.2-0.5v-0.7zm28.3 27.3c3.9 16.8 6.5 33.5 7.6 50.2l4.2-0.4-3.1-49.7zm8.9 73.7l0.5 5.7c0 4 1.3 10.4 1.2 14.4-0.3 9.3-1.3 17.9-5.6 22.6l0.3 4.6 9-0.9-1.4-46.5zm-7.2 45.1c-2.1 1-4.6 1.4-7.7 1-27 0.2-74.9 0.9-80.4-0.1 2.1 3.9 1.7 8.6-1.7 14.1 16.3 0.2 12.3 17.4 1.5 14.3-0.2 1.2 1.6 1.8 1.5 2.9 22.9 3.5 32.9 32 39.7 37.8-5.5 0.9-13.1 0.8-22.1-1.7-2-0.7 0.6 20.8 0.1 27.7 4.1 0.2 6.3-0.1 10.6 0.9 5.2 8.1 13.9 16.8 19.7 18.7 4.8 2.9 4.4 5.9 3.9 11.2-0.1 35.3 2.6 26.5 2.4 41.6-0.7 2.1-6.1 2.2-4.6 11.4 11.1 11.2 28.2 1.1 40.6 11.8 2.4-11.5 5-32.5 5.7-34.8-2.4-2.9-3.3-0.3-5.3-4.5-0.8-14.2-6.1-63.3-9-90.3-0.2-0.2-0.4-0.8-0.4-1.9 0-4-2.7-5.9-2.7-9.7 0-4 0-8.1 0-12.1q-0.1 0-0.2 0c-1.1-10.2-2.3-20.6-1.9-32.2l11-0.9-0.3-1.1zm-164.2 52.3c13.4 5.8 29.4 1.9 32.7 1.8 9.6-4 14-10.4 26.5-17.3-8.3-5.7 0.2-11.2 10.4-10.7 3.1-10.9 0.8-8.2-8.4-6.9-24 1.7-45 4.9-49.1-28.3 1.7-16.3 3.4-32.5 6.4-46.6-5.9 5.5-10.7 9.2-18.1 13.7l-2.8 1.6q0 0 0 0.1c-2.6 1.4-5.4 3-8.7 4.8-0.6 0.2-1.2 0.5-1.7 0.9q-2 1.1-4.2 2.3c-0.7 14.9-1.1 29.8-1.6 44.4l-1.4 0.5c1.3 15.1 5 33.2 20 39.7zm31.9-288.1c-2.8-1.6-6.7-3-5.2 1.6 3.9 1.8 2.5 2.3 6.4 4.1-1.5 1.7-1.2 1.1-2 1.4-2.5-0.3-2.7-3.2-5.1-3.5-0.7 2-2 5.6-1 8.5 3.3-1 3.1-0.9 6.4-1.9q1.1-0.5 2.1-1v0.1q2.1-1.1 4.2-2.1l1.1-0.1q0 0.1 0 0.2 0.1 1.8 0.1 3.2-0.1-0.4-0.2-0.7c-1 0.7-3.4 1.6-4.4 2.4-0.2 2-0.2 3.6-0.1 4.9 2.8-1.9 5.7-3.2 8.2-6.1 0.3-1.5 0.3-3.2 0.5-5.9-2.7 0.4-6.8-0.4-9.3 0.2l1.1-2.7q0.3 0 0.6-0.1c-1-0.8-2.2-1.7-3.4-2.5zm-0.5 15.6c-0.2-0.4-0.4-0.9-0.5-1.6q-0.1-0.2-0.2-0.5c-1.5 0.7-3.7 1-5.7 1.4q-0.4 0.3-0.7 0.7c-2.8 7.2 0.9 12.1 3.7 12.9 0.4-3.3 0.8-9.2 2.8-8.5q0.1-0.2 0.3-0.3l0.7-3.1q-0.2-0.4-0.4-1zm143.2 48.6l0.6 28.1-2.6 0.3-0.8-34.9-24.8 3 1 27.6 24.2 1.1 0.1 3.2-28.2-1.3-0.4-32.2 30.6-4.5zm8.2-26.7c2 0 3.7 1.3 4.3 3q0.2 0.7 0.2 1.5c0 2.5-2 4.5-4.4 4.5-2 0-3.7-1.3-4.3-3q0 0 0 0 0-0.1 0-0.1-0.2-0.7-0.2-1.5c0-2.4 2-4.4 4.4-4.4zm-48.5 9.2c2.4 0 4.4 2 4.4 4.5 0 2.4-2 4.4-4.4 4.4-2.5 0-4.5-2-4.5-4.4 0-2.5 2-4.5 4.5-4.5zm-146.9-0.7c2.4 0 4.3 2 4.3 4.5 0 2.4-1.9 4.4-4.3 4.4q-0.2 0-0.4 0-0.5 0.1-1 0.1c-2.5 0-4.5-2-4.5-4.4 0-2.5 2-4.5 4.5-4.5q0.2 0 0.4 0 0.5-0.1 1-0.1zm-4.5 46.4c2.4 0 4.3 2 4.3 4.4 0 2.5-1.9 4.5-4.3 4.5q-0.3 0-0.5-0.1-0.5 0.2-1 0.2c-2.5 0-4.5-2-4.5-4.5 0-2.4 2-4.4 4.5-4.4q0.2 0 0.5 0 0.5-0.1 1-0.1zm63.8-87.9c-1 3-1.9 7.2-2.9 10.2 1.8 5.9 4.6 7.1 8.2 6.4-0.6-5.6 0.2-12.3-0.4-18-1.2 0.6-3.7 0.9-4.9 1.4zm28.8 76.6c1.2-2.5 3.6-9.5 4.2-12.2 1.1-4.6-0.1-3.4 1-8.1q1.3-1.9 2.6-3.7c0.7 4.1 0.6 6.6 0.2 10.1-0.5 3.6-2.8 9.5-8 13.9zm-19.4-39.8c-8.2-2.3-15.4-0.6-19.6 1.5-0.3-0.7-1.1-1.5-1.3-1.9 0.1-0.2 0.5-0.2 0.7-0.4 2.1-2.9 13.2-3.4 20.2 0.8zm-2 5.1c1.2 1.1-1.1 2.2-2.9 2.3-1.1 0.1-2.5 0.3-3.6 0.7 0 0-6.3 4.1-7.5-0.5-0.4-1.5-0.8-2.4-1.3-3.3 4-2.4 10.3 1.4 15.3 0.8zm109 244.6c5.7-1 14.6-2.4 17.8-3.2-0.5-11.6-10.5-14.8-14.4-16.3-3.5 0.2-4.2 1.1-7 1.9 0.7 1.1 1.1 2.4 1.6 3.6 0.3 1.1 0 3 0.3 4 0.3 1.8 1.5 6.4 1.7 10zm7.7 141.2q0 0.3 0 0.5l41.9 0.6c1-6.3 2.1-9.1 1.8-14.9-0.4-2.6-3.3-8.1-5.6-11.8-4.9 0.4-9.1 0.4-10.1 0.4q-11.6 0-23.2 0-0.1 0-0.3 0l-3.9 25.7zm0.3 4.3c0.1 0.5 0.1 0.7 0.1 0.8 9.9 23.1 14.6 97.4 10 115q0 0.1 0.1 0.3h22.6c-6.7-40.8-2.5-79 7.3-116zm10.8 120.6q0 0.2 0 0.3 0 0 0 0c2.5 1.3 9.6 18.6 10.6 24.5l1.9 0.3c2.1-8.8 4-17.5 8.7-25-5.4-0.1-16.7-0.1-21.2-0.1zm-204.5-307.1v0.1q0-0.5 0-0.9l-27.4 12.3v-0.1l-8.8 4c-34.5 9.1-41.2 14.1-59.8 20.6-5.3 2.7-29 17.1-50.8 32.9-6.3 8.6-7.9 19.3-6 31.9 2.9 19.5 2.8 33.2 5.7 52.8q1.2 0.4 2.5 0.8l1.3 3.9q-1.6-0.4-3.3-0.9 7.1 20.5 14.2 41.1 0.2 0 0.4 0l0.1 3.2c-7 19.9-18.9 30-24.9 42.9 15.1 4.8 24.7 8.6 27 15.2 1.3 3.8 0.2 8.5-3.6 14.9 15.7 9.9 82.5 43.4 97.4 34.1 10.4-2.1 27.3 7.4 43.7 8.8 39.3 8.7 64.9 10.9 69.2 1.4 0.5 0.5-1.7-3.7-5.8-10.8l1.1-3c-4.5-11.1-11.2-26-15.9-34.9-1.2 6.6 2.4 21 2.8 29.8 17.1 30.3 4.3 21-3.7 1.4-3.4-1.2-0.4-23.4-3.8-24.6-0.9-1-14.1 18.9-14.9 17.8 0.6-11.8 9.5-21.9 6.7-33 3.9-12.7 2.6-15.6-15.3-15.7-0.1-5-1.8-3.6-1.9-8.6 2.4-27.2 17.2-99.5 19.6-126.6-5.6 0.5-3 1.3-9.4 2.4-4 14.4-10.1 57.9-11.8 78.8-5.3 16.8-3.1 25.1-4.5 42.4-1-0.5-4.5 5.7-5.5 5.3 0-5.9-1.6-12.7-1.6-18.6 5.3-18.3 5.1-10.1 6.4-29.1-4.3-1.1-3.6 0.2-11.1-2.8-3.4 17.5-6.2 7.3-11.9 25-8.2 7.2-13.5 4.6-21.7 11.8-3.3 2.3-6.7 3.6-10.1 5.8-3.8-2.4 0.5-4.3 3-7.2 6.4-5.8 17.5-5.8 23.4-11.6 5.4-7.9 11.1-15.5 13.3-23.8-8.9 0-25.2-11.4-37.5-9.6-5.6 8.5-10.4 15.8-15.9 24.4-20.5 12-38.4-1.5-38.8-2.2 11.9 1.1 19.4 3.3 31.4-0.9 10.5-3.6 16.4-19.3 18.2-21.9 1.8-4.4-25.2-11.8-31.3-19.2-10.9-5.3-21.8-10.7-42.3-3.1-8.5 3.2-17.9 5-30.8 1.8l-1.6-4c18.4 4.9 30.2-0.9 42.1-6.1l5.6-38.4q7-14.4 13.9-28.7 4-1.5 8.1-2.9l-9.8 15q-4.6 12.5-9.2 24.9c-0.5 8.6-2.5 22.1-3.1 30.7 29.6-0.9 29.3 14.2 46.9 16.4 39.6 14.5 6.5 6.9 53.5 18.8 9.8 2.1 12.4 2.6 16.7 5.3l10.3-78c7.6-5.6 27.2-6.8 40.7-14.7-8.1-17.7-1.7-31.4-3.1-37.9-1.1-3.4-2.1-5.7-3.7-7.9 2.4-5.1-3.3-10-7.1-7.5-2.1 2.3-25.3 3.6-28.7 0.1-28.9-4.3-28.8-36.6-28.8-43.6zm74.9 297.5c1.4 2.7 2.6 4 3.4 2.7 8.9-2.6 4.7-22.2 5.6-33.5 0-9.6-7.2-58.7-7.2-68.3-3.6-9.5-5.4-8.5-7.2-18.5 2.1-6.7 1.2-12.6 1.1-18.2-2.4-1.4-4.9-1.2-7.3-1.2-2.9-4.3-0.9-24.2-1.1-36.1-0.1-15.6 0.8-15.1 7.6-21.7-3.3 2.1-17.6 4.6-18.5 6.9-6.2 30.3-16.9 99.2-22 128.6 14.8 8.3 8.9-9.9 18.9-6.7 11.1-2.6 2.3-55.1 8.4-121.4q1.1 0 2.2 0c-2.5 25.2 4.1 129.7 3.1 141.9-2.3 1.4-1.4 11.3-3.6 12.7 0.1 0.7 2.8 4.6 2.9 5.4 4.1 0 9.8 19.5 13.7 27.4zm-5.1-194.8q0.5-0.3 0.7-0.6-0.4 0.3-0.7 0.6zm3.6 77c0.5 3.3 0.5 4.8 2.4 10.9q18.5-0.4 36.9-0.9c-0.3-2.5 1.9-8.6 1.2-11.8l-4.2-11.1c-10-0.9-24.4 1.5-33.1 0.8zm44.4-1.4c0.1 5.7-1.9 7.5-1.5 10.9 12.1-2.6 30.3-1.1 36.3-2.7 4-1.3 5.5-9 3.5-12.3-9.7-0.2-13.7-6.2-10.9-15.6l-33 1.6zm32.6 13.5v0.1l-33.3 0.9q0 0 0 0c8.4 33.8 10 62.7 12.6 98 6.4 0 10.9 0.8 17.3 0.8 0.9-40.3-6.8-67 6.5-99.9q-1.6 0-3.1 0.1zm-70.9 2.2c7 40.2 8.7 63.8 7.4 105.6q0 0.9-0.1 1.8 9.6 0 19.1 0c-4.1-52-3.2-66.6 3.8-102.4q0.5-2.7 1-5.5zm16.1 142.6q0.7 0 1.4 0c1.2-9.9 3.5-19.8 10.2-29.7q-2.2 0-4.3 0v0.1q-6.5-0.1-13-0.1v-0.1q-2.2 0-4.4 0c5.5 8.2 8.1 18.8 10.1 29.8zm41.1-10.7q1.3 0 2.5 0c2.4-9.9 4.1-20.3 9.1-28.7q-1.7 0-3.3 0v0.1q-6.7 0-13.4 0v-0.1q-1.8 0-3.6 0c4.4 8.8 7.1 18.5 8.7 28.7zm14.4-489.5l-13.8 34.4-4.2-0.3 13.1-36.9zm-9.8-5.3c-2.3 8.4-4.8 17.7-7.1 26.1h-3.3l6.6-27.1zm-53 15.7l1.2-6.9 2.5 0.3-1 6.5zm-218.8 354.9v-3.1q10.9 0 21.7 0c9.9 7.1 14.4 8.7 24.3 15.7 16.3 7.6 13.1 14.9 26.1 18.4 10.8-20.1 24.7-23.1 32-46.5l4.5 0.8c-6 23.8-21.7 25-32.9 45l28.1 7.5c19.6 0.1 25.2 3.9 44.7 5.9 4.4 0.8 5.2 2.2 9.2 7.4-15.7-0.1-26.7-8.3-42.5-8.4-6.5-0.7-12.3-1.8-18.8-2.6-6.9-2.6-21.4-3.5-28.3-6.1-7.9-4.2-19.3-15.1-27.2-19.4-5.9-2.1-12.5-9.7-19.6-12.7l-16.2-1.8c-1.3 0.3-3.5-0.1-5.1-0.1zm225.8-190.8c12.9 5.3 13.7-8 1.2-7.6zm109.5-164.2c2.4 0 4.4 2 4.4 4.4 0 2.5-2 4.5-4.4 4.5-2.5 0-4.5-2-4.5-4.5 0-2.4 2-4.4 4.5-4.4zm5.3 74.5c2.5 0 4.5 2 4.5 4.4 0 2.5-2 4.5-4.5 4.5-2.4 0-4.4-2-4.4-4.5 0-2.4 2-4.4 4.4-4.4zm2.5 80.2c2.5 0 4.5 2 4.5 4.4 0 2.5-2 4.5-4.5 4.5-2.4 0-4.4-2-4.4-4.5 0-2.4 2-4.4 4.4-4.4zm-88.1 112.2l-11.8 1.3-0.5 40.6 36.4-3.3-1-33 1.3-9.4zm-59.6 2.8l-0.2 38.5 4.8 0.1 1.5-38.2zm60.6-29.9l-9.2-0.5-3.4 24.8 36.3-5.3c-18.4-8.4-12.3-10-23.7-19zm-53.2-2.4l2.5 9.6 1.5 70c11.1-0.3 21.3-1.7 32.5-0.8-1-25.6 0.8-51.3 2.8-70.8 0.5-4.2 1.6-7.9 3.1-10.1-0.2-2.4-24.4-6.9-42.4 2.1zm-0.4-32.8l-0.4 29.1c13.5-5.8 28.1-6.5 42-3.4l-0.5-25.6c-15-5.5-25.7-3.6-41.1-0.1zm-27.4-122l-2.4 15.4c28.5-1.5 49.3-2.3 63.7-1.6-1.9 2.3-31.9 2.7-64.8 5.2-1.3 11.8-2.3 20.2-2.5 28.7 2.8 16.9 7.6 29.3 44.4 25.1-13.4-5.3-3.5-19.3 4.4-18.9 6 0.8 27.5 2.7 35.4-1 0.5-2.2 1-8.9 1.3-11.1 1.5-4.2-77.5 7.5-77 6.7 12.3-7.3 74.7-12.3 77.1-9.1-0.1-4.3-0.7-8.6-2.1-12.8-25.2-0.9-52 4-70.5 4.9 27-6.2 46.1-7 69.3-8.2-3.8-12.8-3.4-11.4-8.2-20.2-5.2-0.9-58.8-3.5-68.1-3.1zm79.6 39.8q0.2-0.3 0-0.4 0 0.2 0 0.4zm-39.2 46.4l-2.6 3.6 4.5 3.4c-19.2 14-25.9 15.4-16.9 26.1l17.6-4 3.4-21.6 0.9 20.9c7.7 0 9.6-1.1 20.7 3.3 4.9 2.4 9.1 5.4 21.1 5.8l-15.8-21.7c-14.7-14.5-21.8-6.6-25.1-16zm-177.6 266.8c14.1 4.7 42.1 3.8 46.1-16.2 1.2-2.9 17.8-28.3 17.8-18.5 0 11.2-6.1 17.5-10.5 26.7-6.1 12.4-11.5 18.8-26.1 18.8-6 0-15.2-3.5-20.3-6.1-3.5-1.6-18.1-4.7-7-4.7zm90.2-28c4.7 9.3 11.8 55.6 8.9 57.2-8.5 4.7-11.4-32.8-11.1-37.8 2-10.4-0.2-12.7-6.7-21.9-0.3-7.7 8.6 1.6 8.9 2.5zm-10-64.7c2.2 4.9 2.6 9.7-2.9 16.3-3.8 6.9-6.5 7.3-12.9 11.4 4-7.5 7.3-10.2 11.3-17.7zm-119.9 29.7c10 3.3 27.4 18.2 28.6 39.7-3.2-12.2-28.6-38.9-28.6-39.7zm-6.8 8.2c16 9.4 17.4 34.7 32.4 44.6 8.5 3 18.9-1.2 27.8-1.2q-1 1.6-2.1 3.1c-8.4 2.1-17.7 3.9-26.1 2.3-15.9-6.1-16.6-31.5-40.2-36.3 3.2-4.5 3.8-7 8.2-12.5zm53.3-2.6c1 0.3 2.6-0.3 4.8 1.9 2.3 3.8 6.1 11.3 5.8 15.1 2.8 7.5-4.5 8.7-5 1.5 1.8-7.5-7.5-10.9-5.6-18.5zm245-305.9l22.3 37.9-5.5-4.6 0.4 6.8-3.4-11.3-13.9-22.6zm-13.7 64c-9.4-1.3-19.5-27.8-20.3-39.4l0.4-10.6c3.9-14.8 8.8-26.6 9.9-41.4-1.6-7.3-6.3-12.8-13.3-14-9.7 17.6-10.3 25.1-7.4 45.5l5.4 15.4c4.8 16 10.7 28 5.6 44.7 6.8-0.6 8.8 3.9 19.7-0.2zm-59.1-113.5c1.4 0.3 4.4-0.6 5.8-0.3-3.8 0.1-7.1 3.2-9.9 4.2zm-1.5 50.6c-0.2-6-2-6.9-1.3-13 1-5.5 2-8.2 6.3-13.8 0 11.3-2.6 14.6-5 26.8zm-20.4-53.6c-8.3 9.8-15 39.6-15.6 48.4-6.1-20.2 6.7-43.5 15.6-48.4zm-44.1 78.9q1.4-0.9 2.8-1.7l1.5-0.8c-4.8 16.9-8.6 37-1.6 51.9 12.8 22.1 31.1 20 53.8 18.5-9.4 6.9-24 5.7-31.1 5-36.9-11-32.8-44.2-25.4-72.9zm-10.5 5.7q0.9-0.4 1.8-0.9c1-0.4 2.1-0.6 3-1.4 0 1.5-7 38.8-1.6 55.4 2.5 15.5 11.8 22.9 29.9 30.6-42.9 2.6-37.1-56.2-33.1-83.6q0 0 0-0.1zm71.4 42.3c0 4.2 3.5 7.7 7.7 7.7 4.3 0 7.7-3.5 7.7-7.7 0-4.3-3.4-7.7-7.7-7.7-4.2 0-7.7 3.4-7.7 7.7zm74 117c2.7 0 8.7-0.7 10 2.5 3.9 4.8-4.1 15.7-7.4 14.1-1.4-0.5 3.5-5.1 3.5-6.9 0-4.9 2.3-5.5-6.1-9.7zm19.5-2c-4.6 11.2 9 18.6 7.4 27.7-0.7 3.9-3.5 5.2-3.2 9.6 0.5 6.7 3.3 23.8 0.1 22.8-0.3-1.6-7.1-6-6.1-9.6-4.7-12.5 12.3-25.1-0.3-37.5-3.7-7.8-4-4.2-1.7-12 3-8.9 7.5-16.2 3.8-1zm-10.2 45.9c-1.1 1.1-4.5 10.3-6.4 10.3 1.5-5.8-0.4-30.4-1.6-32 1.7 1 9.7 8.6 8 21.7zm-26.7-68.1c15.5-22.4 42.5-9.8 32.5 7.8-4.1 4.1-14.6 5.9-14.6-3.2 0-19.3-5.2-9.6-17.9-4.6zm-33-94.9c5 0 17-0.6 17 2 0 2.1-4 1.9-5.5 1.9-0.4 0 1.3 11.9 2.8 11.9 2.4 5.3-0.5 9.1-3.7 10-1.4 0-4.1 0.5-4.6-0.9-0.4-1.4-0.3-4.3 0.2-4.7 3-3.1 0.9-8.3-1.3-11.6-2.7-1.3-7-1.3-7.3-3.8-2.5-2.1 1.2-4.4 2.4-4.8zm37.3 14.5c-1.4 13.5-19.4 31.9-18.7 21.5 9.9-13.2 11-7.2 16.6-21.9-0.9 0.9 2.1-8 2.1 0.4zm10-0.9l-1.5 19.4c2.2 5.7-1.1 11.5-3.2 22.4l-0.5-13.9c-5.3-5.3-4.9 10.6-3.7 19.2-12.3-5.7 0.1-16.4-1.5-28.2 1.8-7.8 5.3-15.4 5.3-23.6 5.9-6.9 6.4-5.4 5.1 4.7zm-8.6 47.2q0 0.7-0.1 1.3-0.1-0.7-0.2-1.4 0.2 0.1 0.3 0.1zm-0.1 1.3c0.4 2.1 0.7 3.5 1 3.6-2.7 8.7-2 15.5-7 22.8-5.1 7.8-5-3.3-2.3-7.3 5-4.6 7.6-10.5 8.3-19.1zm24.6-48.8c-3.7 15.2-1.2 30.7 3.4 46.8 3.2 11.1 16.3 34.9 2.3 43.6 7.6-14.4-6-38.9-9.9-53.3-4.4-16.5-8-34.7-0.8-45.1 8.7 0.9 5-0.7 5 8zm-265.7 106.9c-0.9 11-31 45.6-41.7 27.4-2.3-12.1-5.2-27.8-5.3-41.3 7.1 44.9 11.2 49.6 47 13.9zm144.2-14.2c1.2-10.3-5.6-39.3-14.6-50.2 7.2 5.8 21.1 23.9 14.6 50.2zm-0.8 2.8q0.5-1.4 0.8-2.8-0.2 1.8-0.8 2.8zm-5.3-0.8c1-15.7-9.2-44.5-24.1-53.2 19.4 9.4 26 27 24.1 53.2zm-0.1 0.4q0-0.2 0.1-0.4-0.1 0.2-0.1 0.4zm17.2-10.4c1.8-14.1-2.2-31.2-11.3-40.5 4.9 3.8 19.4 14.3 11.3 40.5zm-79.5-30.7c29-1.7 53.8 33 44.9 54.1 1-10.3-7.5-48.9-44.9-54.1zm44.9 54.1c-0.1 1.8-0.6 2.8-1.2 2.6q0.7-1.3 1.2-2.6zm-51.1-51.8c29 1.5 50.3 33.3 39.3 52.9 1.8-9.5-3.2-43.8-39.3-52.9zm39.3 52.9c-0.3 1.8-0.9 2.8-1.6 2.4q0.9-1.1 1.6-2.4zm-46.9-40.2c6.9 2.7 27.3 23.6 20.7 42.8-0.4-20.4-15.5-35.4-20.7-42.8zm16.9 45.4c-3.8-0.9-18.9-7.2-8.7-20.6-3.1 15.1 8.1 13.6 8.7 20.6zm-24.7 0.2c6.4 7.4 9.4 12.5 26.1 12.8-23.8 7.5-23.6-6-26.1-12.8zm34.1 1.1c3.6-5.3-0.1-31.5-2.7-36.6 9 4.1 11.1 27.7 2.7 36.6zm13-22.4c4.4 16.1-3.4 23.6-12.1 26.4 7.9-8.8 11.8-19.1 12.1-26.4zm8.5 82.8c-1 0-8.8 0.5-5.4-3 7.5-7.5 15.3-37.4 15.3-49.3 1.7 19.2-3.7 52.3-9.9 52.3zm-67.5-116.4l9.9-0.4-16.6 7.7-8.2 0.5zm-33.4 18.2c-17.8 23.8-51.5 15.4-56.1-2.4 14.5 8.4 39.2 8.8 56.1 2.4zm-10.7 24.9c-31.8 13.1-30.1 20.7-42.7-12.6 14.1 24.6 15.8 18.2 42.7 12.6zm118.6 14c-1.1 17.4-22.7 35-33 39.5l-26.7-7.3c27.4 1.1 44.7-13.7 59.7-32.2zm-26.1-75.9c14.1 0.6 33.3 13.2 35.8 27.8-12.8-18.5-27.4-22.4-35.8-27.8z"/>
</svg>