<svg version="1.2" xmlns="http://www.w3.org/2000/svg" viewBox="0 0 364 418" width="364" height="418">
	<title>Veliki-Preslav-pdf</title>
	<style>
		.s0 { fill: #231f20 } 
		.s1 { fill: #fab20b } 
		.s2 { fill: #d3d2d2 } 
		.s3 { fill: #ed1c24 } 
		.s4 { fill: #ffffff } 
		.s5 { fill: #4dc6f4 } 
		.s6 { fill: #fff200 } 
	</style>
	<path id="Path 1" fill-rule="evenodd" class="s0" d="m328.5 262.1q-1.6 3.3-3.2 6.5-2.2 4.1-3.6 6.9l24 19.7q0.1 0 0.2 0.1c1.7 0.8 2.1 2.9 1.5 6.1-0.5 2.4-1.5 5.7-3.1 9.4-3.7 9.3-10.3 21.9-18.1 33.9-8.2 12.5-17.6 24.4-25 32-3 3.1-5.6 5.5-7.8 7.1-2.7 2-4.9 2.6-6.4 1.4v-0.1h-0.1l-8.8-4.4c-12.7 10.9-28.1 20-45.2 26.3-16.5 6-34.6 9.5-53.4 9.5-18.8 0-36.9-3.5-53.4-9.5-17.1-6.3-32.5-15.4-45.2-26.3l-8.8 4.4q-0.1 0-0.1 0.1c-1.4 1.2-3.7 0.6-6.4-1.4-2.2-1.6-4.8-4-7.8-7.1-7.4-7.6-16.8-19.5-25-32-7.8-12-14.4-24.6-18.1-33.9-1.5-3.7-2.6-7-3.1-9.4-0.6-3.2-0.2-5.3 1.5-6.1q0.1-0.1 0.2-0.1l18.6-15.2q-3.4-5.7-6.5-12.4-3.5-7.4-6.6-16c-0.4-1 0.1-2 1.1-2.4q0.5-0.2 1 0l4.7 0.9c-7.2-8.7-11.9-19.1-14.9-30.7-3.5-13.2-4.9-27.9-5.3-43.3l-2.2-0.9c-0.6-0.2-1.1-0.8-1.2-1.5-0.7-5.7-1.2-12.2-0.8-18.7 0.5-6.5 1.8-13.1 4.8-18.9l0.1-0.1c0.5-0.9 1.6-1.2 2.5-0.8l11.8 6.4c5-4.3 9.1-9.6 12.5-15.9 3.5-6.3 6.2-13.4 8.5-21.1l-12.8-6.1-0.1-0.1c-0.9-0.4-1.2-1.5-0.8-2.4 13.9-28.6 35.6-52.6 62.4-69.4 26-16.2 56.6-25.6 89.4-25.6 32.8 0 63.5 9.4 89.4 25.6 26.8 16.8 48.6 40.8 62.4 69.4 0.4 0.9 0 2-0.9 2.4l-12.8 6.2c2.3 7.7 5 14.8 8.4 21.1 3.5 6.3 7.6 11.6 12.6 15.9l11.8-6.4h0.1c0.9-0.4 2-0.1 2.4 0.8 3 5.9 4.4 12.5 4.9 19 0.4 6.5-0.1 13-0.8 18.7-0.1 0.6-0.5 1.2-1.1 1.5l-2.7 1.1c1.9 0.5 3.7 1.5 5.2 2.8 2.4 2.1 4.1 5.3 4.3 8.8 0.2 3.5-1 6.8-3.2 9.3-2 2.2-4.8 3.8-8 4.2-4.2 7.5-8.2 15-11.7 22.5-3.4 7.3-6.3 14.5-8.4 21.5l1.7 1.1c7 4.5 13.9 8.9 19.6 14.5 0.6 0.6 0.7 1.6 0.2 2.3-2.3 3.3-4.1 6.6-5.5 9.8-1.5 3.2-2.7 6.5-3.8 9.7-0.3 1-1.3 1.5-2.2 1.2-0.7-0.2-1.1-0.7-1.3-1.3-1-4.5-2.6-8.5-4.8-12.1-1.9-3.1-4.2-5.9-6.8-8.5zm-143.2-185.4c18.1 2.7 32.4 17.6 34 36 0.8-0.4 1.6-0.7 2.5-0.7 3 0 5.5 3.1 5.5 6.8 0 3.8-2.5 6.8-5.5 6.8-1.2 0-2.2-0.4-3.1-1.2-3.4 16.1-16.4 28.7-32.7 31.4q0.5 0.6 0.9 1.4c13-0.2 24-2.4 34.1-6 10.3-3.7 19.7-9 29-15.3 0.9-0.5 2-0.3 2.5 0.5l0.1 0.1 25.4 38.6q0.3 0.5 0.3 1v59.9q1.3 0.3 2.5 0.7 1.3 0.3 2.5 0.7 1.3-2.3 2.9-4.2 2-2.6 4.4-4.7c0.5-0.5 1.2-0.6 1.8-0.4l0.6 0.3c1.8-3.4 3.3-6.8 4.7-10.4 1.5-3.7 3-7.8 4.5-12.2q-0.5-0.9-0.9-2-0.6-1.4-0.7-3.1c-0.2-3.1 0.9-5.9 2.8-8 0.9-1.1 2-1.9 3.2-2.6-7.9-4.4-16.6-13.1-24.6-24.5-9.1-13.1-17.4-29.9-23-48.5q0-0.1-0.1-0.2c-0.4-2.2-0.3-3.8 0.2-5.1q0.4-1.2 1.2-1.9 0.9-0.8 2-1 0.6-0.1 1.2-0.1 1.7-1.5 3.6-2.9 1.7-1.3 3.5-2.5c-10.2-14.1-23.7-25.7-39.2-33.8v-0.1c-15.6-8-33.2-12.6-51.9-12.6-18.8 0-36.5 4.6-52.1 12.7-15.6 8.2-29 20-39.3 34.2q1.6 1.1 3.1 2.2 1.9 1.4 3.6 3 1-0.3 1.9-0.1 0.9 0.1 1.7 0.7 0.7 0.6 1.2 1.5c0.7 1.3 0.9 3.2 0.5 5.7q-0.1 0.2-0.1 0.3c-5.7 18.9-14.2 36-23.5 49.1-9.9 14.1-20.8 23.8-30.2 26.5-0.4 0.2-0.9 0.2-1.3 0l-0.6-0.2c5.7 5 11.5 10.7 17.2 17.1 6.5 7.2 12.8 15.1 19.1 23.5v-57c0-0.4 0.1-0.8 0.4-1.1l25.3-38.6c0.6-0.8 1.7-1 2.6-0.5 9.3 6.3 18.6 11.6 29 15.3 10.1 3.6 21.1 5.8 34.1 6q0.4-0.8 0.9-1.4c-16.3-2.7-29.3-15.3-32.7-31.4-0.9 0.8-1.9 1.2-3.1 1.2-3 0-5.5-3-5.5-6.8 0-3.7 2.5-6.8 5.5-6.8 0.9 0 1.7 0.3 2.4 0.7 1.7-18.4 16-33.3 34.1-36-0.6-0.8-1-1.8-1-2.9 0-3 3-5.5 6.8-5.5 3.7 0 6.8 2.5 6.8 5.5 0 1.1-0.4 2.1-1 2.9zm5.4 4.1q-2 7.2-3.2 14.4-1.2 7.3-1.6 14.7 7.4-0.4 14.7-1.6 7.2-1.2 14.4-3.2c-3.6-11.5-12.8-20.7-24.3-24.3zm24.3 46.7q-7.2-2-14.4-3.2-7.4-1.2-14.8-1.6 0.3 7.4 1.5 14.8 1.2 7.2 3.2 14.4c11.6-3.6 20.9-12.8 24.5-24.4zm-46.5 24.4q2-7.2 3.2-14.5 1.2-7.4 1.5-14.8-7.4 0.3-14.8 1.5-7.3 1.2-14.5 3.2c3.6 11.7 12.9 21 24.6 24.6zm-24.6-46.6q7.2 2 14.5 3.2 7.3 1.2 14.7 1.5-0.4-7.4-1.6-14.8-1.2-7.2-3.2-14.4c-11.6 3.6-20.8 12.9-24.4 24.5zm174.2 85.7q1.1 0.7 2 1.7c1.5 1.8 2.5 4.1 2.7 6.6 0.1 2.8-0.7 5.4-2.3 7.4-1.4 1.9-3.4 3.3-5.7 4-2.2 4.1-3.8 8.2-5 12.3-1.2 3.9-2 7.6-2.6 11l9.3 4.7q7.1-9.9 12.7-20.5 5.7-10.9 9.9-22.6-0.7-1.1-1.2-2.4-0.7-1.8-0.8-3.7c-0.1-2.6 0.5-5.1 1.7-7.2zm-305.2-11.7c7.7 9.2 15.5 19.5 23.2 30.7q1.4 2 2.8 4.1c-2-7.6-2.5-15.6-1.4-23.7q0-0.4 0.2-0.7zm255 142.2c0.5-3.8 0.8-7.6 0.8-11.5q0.1-2.4 0-4.8c-8.2 15.4-19.2 28.6-32.7 38.1-14.3 10-31.3 15.9-50.4 15.9h-12.3c-21.2 0-39.7-7.2-54.9-19.3-8.6-6.8-16.1-15.3-22.4-24.9 5.1 10.5 9.9 21 14.4 31.3 9.1 7.1 20.3 13.1 32.3 17.2 11.7 4 24.3 6.3 36.8 6.3 16.8 0 33.6-4.1 48.3-11 15.2-7.1 28-17 35.9-28.2l0.1-0.1c2.2-2.8 3.4-5.8 4.1-9zm-213.5-81.6l4.8 8.1c0.2-0.2 0.4-0.2 0.7-0.2l4.7 0.8q-5.7-3.9-10.2-8.7z"/>
	<path id="Path 2" fill-rule="evenodd" class="s1" d="m229 361.3c15.3-7.2 28.3-17.2 36.5-28.4 8.1 5.2 14.4 10.4 21.1 16.1 3 2.5 6.1 5.2 9.7 8-11.8 16.6-29.2 31.1-49.9 41.2-19.9 9.8-42.8 15.5-66.9 15.5-24.1 0-47-5.7-66.9-15.5-20.7-10.1-38.1-24.6-49.9-41.2 3.5-2.8 6.7-5.4 9.7-8 6.7-5.7 12.9-10.9 21-16.1 8.3 11.2 21.3 21.2 36.6 28.3 15 7.1 32.3 11.3 49.5 11.3 17.2 0 34.5-4.2 49.5-11.3zm-168.1-5.1c-0.4 0.3-0.5 0.9-0.2 1.3 2.3 4.3 5.5 11.6 7.6 17.4 1.5 4.2 2.5 7.6 2 8.3-0.4 0.2-1.5-0.3-3.1-1.5-2-1.5-4.6-3.8-7.5-6.8-7.2-7.5-16.6-19.2-24.6-31.6-7.7-11.8-14.2-24.3-17.9-33.4-1.4-3.6-2.4-6.7-2.9-8.9-0.3-1.8-0.4-2.9 0-3.2 5.2 0.6 21.3 23.1 29.6 34.7l0.5 0.7c0.3 0.5 0.9 0.6 1.3 0.3q0.1-0.1 0.2-0.3c3.1-4.8 7.7-9.4 13.9-13.9q0.7-0.5 1.4-1c3.9 2.7 7.8 5.6 11.7 8.4 4.3 3.2 8.6 6.3 12.9 9.3-5.2 3.8-9.7 7.6-14.6 11.7-3.2 2.7-6.6 5.5-10.3 8.5zm-1.6-104.4c16 27.3 31.1 56.8 43.9 84.9-23.1-34.5-45.7-71.2-68.4-107.5 11.1 20.7 24 42.6 34.5 60.7-4.9-0.3-10.3-2.2-16.1-5 6.7 4.2 13.3 8.1 19.9 10.2 9.6 16.6 20.5 32.7 32.3 48.2-4.2-3.8-8-7.8-11-12.1-0.2-0.4-0.8-0.5-1.2-0.2q-3.1 1.9-5.8 3.8c-4.5-3-9-6.3-13.4-9.5-4-3-8-5.9-12-8.7l12.5-1.9c0.9-0.2 1-1.6 0.1-1.8-11-3.2-21-9.5-29.9-19.7-8.6-9.8-16.3-23.3-22.8-40.9l8.6 1.7c0.8 0.2 1.4-0.9 0.8-1.5-8.9-9.1-14.5-20.6-18-33.7-3.3-12.4-4.6-26.2-5.1-40.7 17 19.6 34.6 45.4 51.1 73.7zm10.5 117.1q4.5 5 9.7 9.6l-7.4 3.7c-0.2-1.9-0.9-4.8-2.1-7.9-1-3.1-2.4-6.5-3.8-9.7q1.7 2.2 3.6 4.3zm0.6-55.4l-1.7 0.2q0.5-0.2 1-0.5 0.4 0.1 0.7 0.3zm-10.8-102c7.4 8.3 14.8 17.6 22 27.5v16.2c-8.8-12.5-17.7-24.9-26.5-37.4 10 16.4 18.3 30.4 26.5 43.3v20.7c0 0.1 0 0.3 0 0.3q0.4 1 0.7 2.1-1.3-1.1-2.5-2.4-2.3-2.4-4.5-5.3-2.7-4.9-5.5-10-2.9-5.2-5.5-9.8-0.9-2-1.8-4-0.6-1.3-1.2-2.7l7.4 1.2c0.9 0.2 1.4-1.2 0.6-1.7-10.6-6.3-18.7-15.1-23.7-25.2-4.8-9.7-6.8-20.7-5.6-31.9 6.5 5.4 13.1 11.9 19.6 19.1zm-16.2 82.9c7.3 8.4 15.3 14.2 24.1 17.9q-4.8 2.7-8.8 5.5c-5.9 4.3-10.4 8.7-13.6 13.3-4.1-5.8-10-14.1-15.7-21.1-5.1-6.4-10-11.8-13.4-13.5l18.1-14.7q4.4 7.1 9.3 12.6zm130.8-215.3q2.6-0.4 5.3-0.4c0 0 0.4-0.1 0.4-0.1l0.4-0.2c1.2 0.3 2.8 0.4 4.4 0.7q2.2 0.3 4.3 0.8-2 7.6-3.3 15.1-1.3 8-1.7 16c0 0.5 0.4 1 0.9 0.9q8-0.4 16-1.7 7.5-1.3 15.1-3.3 0.5 2.1 0.8 4.2 0.4 2.6 0.4 5.3c0 0.1 0 0.2 0.1 0.3-0.1 1.6-0.2 3.3-0.5 5q-0.3 2.1-0.8 4.2-7.6-2-15.1-3.3-8-1.3-16-1.7c-0.5 0-1 0.5-1 1q0.3 7.9 1.6 15.9 1.2 7.6 3.4 15.1-2.1 0.6-4.2 0.9-2.5 0.3-5.2 0.3 0 0-0.1 0-2.6 0-5.1-0.3-2.1-0.3-4.2-0.9 2.2-7.5 3.4-15.1 1.3-8 1.6-16c0-0.5-0.5-1-1-1q-8 0.3-16 1.6-7.6 1.2-15.1 3.4-0.6-2.1-0.9-4.2-0.3-2.5-0.3-5.2 0 0 0 0 0-2.7 0.3-5.2 0.3-2.1 0.9-4.2 7.5 2.2 15.1 3.4 8 1.3 16 1.6c0.5 0 0.9-0.5 0.9-1q-0.4-7.9-1.7-16-1.3-7.5-3.3-15.1 2.1-0.5 4.2-0.8zm5.3 76.7c2.9 0 5.2 1.8 5.2 4 0 2.2-2.3 4-5.2 4-2.9 0-5.2-1.8-5.2-4 0-2.2 2.3-4 5.2-4zm5.2 162.4v38.3h-10.5v-38.3zm-10.5-154.5q5.3 3.4 10.5 0v145.2h-10.5zm-143.7-67.3c13.7-27.7 34.9-51 61-67.4 25.6-16 55.7-25.2 88-25.2 32.2 0 62.4 9.3 87.9 25.2 26.1 16.4 47.4 39.7 61 67.4l-45.7 22c-9.4-19.2-24.1-35.3-42.2-46.6-17.7-11.1-38.6-17.6-61-17.6-22.5 0-43.4 6.4-61.1 17.5-18 11.4-32.7 27.5-42.2 46.7zm45.3 23.9c3.8 2.5 7 2.1 9.8 0.4 2.6-1.6 4.7-4.3 6.5-6.6 0 0 0.1-0.1 0.1-0.1 0.8-1.3 1.8-2.1 2.7-2.4q0.6-0.2 1.1 0 0.4 0.2 0.7 0.6c0.4 0.8 0.6 2.2 0.2 4.2-5.5 18.5-13.9 35.3-23.1 48.2-9.2 13.1-19.1 22.2-27.7 25.2-0.3-6.6-0.2-12.5 0.4-17.7 0.6-5.4 1.8-9.9 3.6-13.3 0.2-0.4 0-1.1-0.4-1.3l-27.9-13.9c5.3-4.5 9.6-10.1 13.1-16.6 3.6-6.6 6.5-14 8.9-22.1zm238.9-15.3c2.4 8 5.2 15.5 8.8 22.1 3.6 6.5 7.9 12.1 13.2 16.5l-27.9 14c-0.3 0.2-0.6 0.8-0.3 1.2 1.7 3.5 2.8 8 3.5 13.4 0.6 5.1 0.7 11.1 0.4 17.6-8.6-2.9-18.5-12-27.7-25.1-9.2-12.9-17.6-29.7-23.1-48.3-0.4-2-0.3-3.3 0.1-4.1q0.3-0.5 0.8-0.6 0.5-0.2 1.1 0c0.9 0.3 1.9 1.1 2.7 2.4l0.1 0.1c1.8 2.3 3.9 5 6.6 6.6 2.7 1.6 5.9 2.1 9.7-0.5zm-0.6 84.7c0.3-6.5 0.2-12.5-0.4-17.7-0.6-5.2-1.6-9.6-3.3-13.1l28.3-14.2 12-6.5c2.6 5.3 3.8 11.2 4.2 17.1 0.4 6.1-0.1 12.2-0.7 17.7zm-236.2-70.7q1.7-3.5 3.7-7 2-3.4 4.2-6.6 1.9 1.3 3.8 2.7 1.7 1.3 3.3 2.7-0.3 0.2-0.6 0.5-0.6 0.7-1.2 1.6c-1.8 2.1-3.8 4.7-6.1 6.1-2 1.3-4.4 1.6-7.1 0zm195.8 0.2c-2.3-1.4-4.3-4-6-6.1q-0.6-1-1.3-1.6-0.3-0.3-0.5-0.5c1-1 2.2-1.9 3.3-2.8q1.8-1.3 3.7-2.7 2.2 3.3 4.2 6.7c1.3 2.3 2.6 4.6 3.8 7-2.8 1.6-5.2 1.2-7.2 0zm-269.5 53.8c-0.7-5.5-1.1-11.6-0.7-17.7 0.4-5.9 1.6-11.8 4.2-17.1l12 6.5 28.3 14.2c-1.7 3.5-2.7 7.9-3.3 13.1-0.6 5.2-0.7 11.2-0.4 17.7zm312.8 20.9c1.6 1.4 2.7 3.4 2.8 5.7 0.2 2.3-0.6 4.4-2 6-1.4 1.6-3.5 2.7-5.8 2.9-2.3 0.1-4.4-0.7-6-2.1-1.6-1.4-2.7-3.5-2.8-5.7-0.2-2.4 0.6-4.5 2-6.1 1.5-1.6 3.5-2.7 5.8-2.8 2.3-0.2 4.4 0.6 6 2.1zm39.4-12.6c1.9 1.7 3.2 4.1 3.4 6.9 0.1 2.7-0.8 5.3-2.5 7.3-1.7 1.9-4.2 3.2-7 3.4-2.7 0.1-5.3-0.8-7.2-2.5-2-1.8-3.3-4.2-3.4-7-0.2-2.7 0.8-5.3 2.5-7.3 1.7-1.9 4.1-3.2 6.9-3.3 2.8-0.2 5.3 0.8 7.3 2.5zm-69.7 200.9l-7.4-3.7q5.4-4.8 10-10 1.7-1.9 3.4-3.9c-1.4 3.2-2.8 6.7-3.9 9.7-1.1 3.2-1.9 6-2.1 7.9zm-3.4-140.7c8 1.7 15.5 3.7 22.3 6.2q0 0 0 0-1.7 4.2-3.4 8.2-1.6 3.9-3.4 8c-3-1.9-6.3-3.6-9.9-5.1-3.3-1.4-6.8-2.7-10.4-3.8v-15.9q0.7 0.1 1.4 0.3 1.4 0.4 2.8 0.9c-0.2 0.5 0.1 1.1 0.6 1.2zm61.4-41.9c1.2 0.6 2.6 0.9 4 1.1-4.2 7.4-8.1 14.8-11.6 22.2-3.6 7.8-6.7 15.6-8.9 23.2-0.1 0.3 0.1 0.8 0.4 1 1.3 0.8 2 1.3 2.9 1.8 6.6 4.3 13.2 8.5 18.5 13.6-2.1 3.2-3.9 6.4-5.3 9.6q-1.6 3.6-2.9 7.1c-3.3-10.9-10.1-19.1-19.6-25.3-10-6.5-22.8-10.8-37.3-13.9q1.4-2.6 3-4.7 1.8-2.4 3.9-4.3 6.5 2.2 12.5 4.9 6.3 2.8 12.1 6c0.4 0.2 1 0.1 1.2-0.3q7.7-10.5 13.8-22 5.7-10.8 9.9-22.4c1 1 2.1 1.8 3.4 2.4zm-37.5 9.8c1.4 0.6 3 0.9 4.5 0.9-2 4-3.5 8.1-4.7 12-1.2 4-2.1 7.9-2.7 11.6q-2.2-1-4.5-1.9-2.3-0.9-4.8-1.8c1.9-3.6 3.5-7.2 5.1-11 1.4-3.7 2.8-7.6 4.3-11.8q1.3 1.2 2.8 2zm-18.5 81.1c6.6-14 12.9-28 18.6-42.1q3.1 1.3 5.9 2.7c1.6 5.6-4.1 16.3-8.6 25.4-2.6 5.4-5 10.5-6.6 14.3l1.2 0.7c10.7-25.9 17.7-34.7 22.1-35.9q2.8 1.8 5.3 4c-8.1 16-15.8 30.6-23.2 44.3-7.4 13.6-14.6 26.4-21.6 39-2.1-1.8-4.2-3.4-6.4-5.1-2.2-1.7-4.6-3.4-7.2-5.1 7-14.1 13.9-28.1 20.5-42.2zm16.3 14.3c4.7-8.7 9.5-17.8 14.5-27.3l23.3 19.1c-3.4 1.7-8.3 7-13.4 13.4-5.7 7-11.6 15.3-15.7 21.1-3.2-4.6-7.7-9-13.6-13.2q-0.8-0.6-1.7-1.2 3.3-5.9 6.6-11.9zm-21.8 39.3v-0.1c4.7-8.4 9.5-16.9 14.3-25.7q0.8 0.5 1.6 1.1c6.2 4.4 10.8 9 13.8 13.8q0.1 0.2 0.2 0.3c0.4 0.3 1 0.2 1.3-0.2l0.5-0.8c8.3-11.6 24.4-34.1 29.6-34.7 0.4 0.3 0.3 1.4 0 3.2-0.4 2.3-1.4 5.3-2.9 8.9-3.6 9.1-10.2 21.6-17.9 33.4-8 12.4-17.4 24.1-24.6 31.6-2.9 3-5.5 5.4-7.5 6.8-1.6 1.2-2.7 1.7-3 1.5h-0.1c-0.4-0.7 0.5-4 2-8.3 2.1-5.8 5.3-13 7.6-17.4 0.2-0.4 0.2-1-0.2-1.3-3.7-2.9-7-5.7-10.3-8.5q-2.2-1.8-4.4-3.6zm-12.1-28.3c0.3-4.8 0.3-9.8 0.1-14.7l7.2-18.1 0.2-26.1c3.3 1.1 6.6 2.3 9.6 3.5 3.6 1.6 6.9 3.2 9.9 5.2q-5.6 12.6-11.5 25.2c-4.1 8.6-8.3 17.3-12.6 26q-1.9 3.5-3.9 7 0.7-3.9 1-8z"/>
	<path id="Path 3" class="s2" d="m168.3 80.8q2 7.2 3.2 14.4 1.2 7.4 1.6 14.8-7.4-0.3-14.7-1.5-7.3-1.2-14.5-3.2c3.6-11.6 12.8-20.9 24.4-24.5zm-24.4 46.5q7.2-2 14.5-3.2 7.4-1.2 14.8-1.5-0.3 7.4-1.5 14.8-1.2 7.3-3.2 14.5c-11.7-3.6-21-12.9-24.6-24.6zm46.6 24.6q-2-7.2-3.2-14.4-1.2-7.4-1.5-14.8 7.4 0.4 14.8 1.6 7.2 1.2 14.4 3.2c-3.6 11.6-12.9 20.8-24.5 24.4zm24.5-46.8q-7.2 2-14.4 3.2-7.3 1.2-14.7 1.6 0.4-7.4 1.6-14.7 1.2-7.2 3.2-14.4c11.5 3.6 20.7 12.8 24.3 24.3z"/>
	<path id="Path 4" class="s3" d="m221.9 153.8c10.3-3.7 19.6-8.9 28.9-15.1l24.7 37.7v105.2c-6.9 22.1-19 41.4-35.1 54.9-14.8 12.3-33 19.7-53.8 19.9v-196.5c13.5-0.2 24.9-2.4 35.3-6.1z"/>
	<path id="Path 5" class="s4" d="m261 174.4c-3.8 10.7-5.8 22.2-5.8 34.1 0 11.9 2 23.4 5.8 34.1-10.7-3.8-22.2-5.8-34.1-5.8-11.9 0-23.4 2-34.1 5.8 3.8-10.7 5.8-22.2 5.8-34.1 0-11.9-2-23.4-5.8-34.1 10.7 3.8 22.2 5.8 34.1 5.8 11.9 0 23.4-2 34.1-5.8z"/>
	<path id="Path 6" class="s5" d="m172.4 356.4c-20.8-0.2-39-7.6-53.8-19.9-16.2-13.5-28.2-32.8-35.2-54.9v-105.2l24.8-37.7c9.3 6.2 18.6 11.4 28.9 15.1 10.4 3.7 21.8 5.9 35.3 6.1z"/>
	<path id="Path 7" fill-rule="evenodd" class="s0" d="m78.6 89.6l-5.2 6.8-20.9-15.9 4.9-6.3q0.9-1.3 2.2-2.1 1.2-0.8 2.6-0.9 1.4 0 2.6 0.9l2.1 1.6q1.7 1.3 2 3.3 0.4 2-1 3.8-1.2 1.5-2.6 1.4 0.1 0.5 0.8 0.5 0.7 0 1.5-0.4 0.8-0.4 1.2-0.9l3-3.9 5.6 4.3q2.2 1.6 2.4 3.7 0.2 2.2-1.2 4.1zm-2.2 0.3q0.6-0.8 0.6-1.6-0.1-0.9-0.9-1.6l-5.9-4.5q-0.8 1.1-2.7 1.6-1.8 0.5-3.3-0.6-0.9-0.7-1.2-1.4-0.3-0.6-0.1-1.7 0.2-0.2 0.6-0.1 0.5 0.1 0.5 0.5 0.3 0.6 0.9 0.6 0.6 0 0.9-0.4 0.9-1.1-0.7-2.3l-3.8-2.9q-0.7-0.6-1.7-0.4-0.9 0.1-1.5 0.9l-1.3 1.7 18.3 14zm-3.6-18.9q-3.7-3.9-4.1-7.3-0.5-3.3 2.8-6.4 3.2-2.9 5.8-2.5 2.6 0.4 5.5 3.5l-3.6 3.3q-4.5-4.9-6.5-3.1-0.9 0.8-0.7 2.1 0.1 1.2 1 2.2l6 6.5q-1.3-4.4 1.5-7 1.7-1.5 3.7-1.2 2.1 0.4 3.6 2.1l-3.2 2.9q-1.6-1-2.9-0.5-1.3 0.6-1.4 2.2-0.1 1.6 1.3 3.3 1.6 0.8 2.5 1.4 0.8 0.6 2.2 1.9 0.5 0.5 0.7 1 0.2 0.4 0.4 1.7 1.7-1.5 1.9-2.9 0.2-1.3-0.6-2.6-0.8-1.3-2.6-3.2l3.5-3.3q2.1 2.4 3.1 4.1 0.9 1.8 0.5 3.8-0.5 2.1-3 4.3-1.1 1-2.5 1.9-1.5 0.8-2.9 1-1.4 0.2-2.3-0.7-0.3-0.3-0.3-0.8 0.1-0.5 0.4-0.7 0.4-0.2 0.7 0.2-0.2 0.3 0.6 0.6 0.8 0.2 1.5-0.1 0.5-0.6 0.4-1.5 0-0.8-1.1-1.4-1.1-0.6-3.5-0.4-2.6 0.4-4.4-0.7-1.7-1.1-4-3.7zm16.7-25.9q-1 0.7-1.5 0.1-0.3-0.5 0-1 0.2-0.6 0.7-0.9 0.9-0.6 2-0.6 1.2 0 2.2 0.8l-1.3-1.8 3.9-2.9 15.3 21.3-3.9 2.8-12.9-17.9q0.4 1.3 0.5 2.7 0 1.4-0.2 3.9-0.3 2.6 0.8 5.4 1.1 2.8 2.4 4.7 2.4 3.2 4.8 4.5l-4.4 3.2q-0.9-0.4-1.9-1.4-1-1-1.6-1.8-4-5.6-2.4-13.2 0.6-3 0.6-5 0-2-0.6-2.8-0.4-0.6-1.1-0.6-0.6-0.1-1.4 0.5zm24.2-4.1q0.8-2.4 0.2-3.6-0.2-0.4-0.8-0.6-0.6-0.3-1.2-0.2-0.4 0-0.7-0.7-0.3-0.6 0.3-0.9 0.5-0.2 1.5 0.2 1.2 0.4 1.8 1.3l-3-6.1 4.2-2.2 11.8 23.4-4.3 2.2-7.6-15.3q0.1 1.7-0.8 4-0.4 1.2-0.4 2 0 0.8 0.4 1.7 0.4 0.8 0.9 0.9 0.5 0.2 1.2 0 0.5-0.1 0.8 0.5 0.1 0.3 0 0.7-0.1 0.3-0.5 0.6-0.7 0.3-1.6 0-1-0.3-1.8-1.3l4.4 8.7-4.3 2.2-11.7-23.4 4.2-2.2 6.1 12.1q0.3-1.9 0.9-4zm9.5-15.8l4.6-1.5 3.3 10.6q2.1-0.6 2.5-2.5 0.4-1.9-0.3-3.9l-1.7-5.4 4.6-1.5 1.8 5.9q1.2 3.7-2.1 6.6 5.1 0.3 6.7 5.4l2.2 6.9-4.6 1.4-2.5-8.1q-0.9-2-2.5-2.9-1.6-0.9-3.5-0.3l4 12.8-4.6 1.4zm29.5 2.5q1.5-2.1 1.3-3.4-0.1-0.4-0.6-0.8-0.5-0.5-1.1-0.6-0.4-0.1-0.5-0.8-0.1-0.7 0.6-0.8 0.5 0 1.4 0.6 1 0.7 1.3 1.8l-1.1-6.7 4.7-0.9 4.4 25.9-4.7 0.8-2.9-16.9q-0.3 1.7-1.8 3.7-0.8 1-1 1.7-0.3 0.8-0.1 1.8 0.1 0.8 0.6 1.1 0.4 0.3 1.1 0.4 0.5 0 0.6 0.6 0.1 0.3-0.2 0.7-0.2 0.3-0.6 0.4-0.8 0.1-1.6-0.4-0.8-0.6-1.3-1.8l1.7 9.6-4.8 0.8-4.4-25.8 4.8-0.8 2.2 13.4q0.8-1.8 2-3.6zm25.8 13.1l1.5-26.2 15.1 0.9-1.5 26.1-4.8-0.2 1.4-24.3-5.5-0.3-1.4 24.2zm23.7-24.3l9.8 1.8q1.4 0.2 2.2 1.1 0.9 0.9 1.2 2.1 0.4 1.2 0.1 2.5l-1.5 8.4q-0.1 0.5-0.6 0.7-0.6 0.2-2.2-0.1-2.5-0.5-3.9 0.1-1.4 0.7-1.6 1.8-0.2 1.1 0.3 1.5 0.8 0.6 0.7 1.2-0.1 0.2-0.3 0.4-0.3 0.2-0.6 0.1-1.4-0.3-2.2-2.4l-1.4 7.4-4.7-0.9zm4.5 2.3l-2.7 15q1.7-2.6 5.2-2.6l1.6-9.1q0.2-0.8-0.2-1.7-0.4-0.9-1.3-1.1zm12.8 11.8q1.7-5.1 4.4-7.1 2.7-2 7-0.6 4 1.3 5 3.8 0.9 2.5-0.4 6.5l-4.6-1.5q2.1-6.4-0.5-7.2-1.1-0.4-2.1 0.3-1.1 0.7-1.5 2l-2.8 8.4q3.3-3.2 6.8-2 2.3 0.7 2.9 2.6 0.7 2 0 4.1l-4.2-1.4q0.2-1.8-0.9-2.7-1.1-0.9-2.6-0.2-1.5 0.7-2.3 2.7 0.1 1.9 0 2.9-0.1 1.1-0.6 2.9-0.2 0.6-0.5 1-0.3 0.4-1.3 1.3 2.1 0.7 3.4 0.2 1.3-0.5 2.1-1.8 0.7-1.3 1.5-3.8l4.5 1.5q-1 3-2.1 4.7-1.1 1.6-3.1 2.2-2 0.6-5.2-0.5-1.3-0.5-2.8-1.3-1.4-0.8-2.3-2-0.9-1.2-0.5-2.4 0.1-0.4 0.6-0.6 0.5-0.2 0.8 0 0.3 0.2 0.2 0.7-0.4-0.1-0.3 0.8 0.2 0.8 0.8 1.2 0.8 0.2 1.5-0.3 0.7-0.5 0.7-1.7 0-1.2-1.4-3.2-1.5-2.1-1.4-4.2 0.1-2.1 1.2-5.3zm18.9 9.2l2-3.9q4.1-7.9 12.1-3.8 2.6 1.3 3.5 3.1 0.9 1.8 0.6 3.8-0.4 2-1.6 4.5l-4.4-2.3q1.3-2.5 1.5-5.2 0.2-2.1-1.2-2.8-1.1-0.6-2.4-0.1-1.3 0.5-1.9 1.7l-5.4 10.4q-0.5 1-0.4 1.7 0.1 0.6 0.7 2.7 0.3 1-0.5 2.4-0.7 1.5-2.1 1.8 1.9 0.9 3.3 0.5 1.8-0.5 2.5-1.8l2.9-5.6 4.4 2.3-2 3.9q-1 1.8-2.6 2.9-1.7 1-3.9 0.9-2.1 0-4.5-1.3-2.6-1.3-3.7-2.7-1.1-1.3-0.2-3 0.2-0.4 0.8-0.1 0.4 0.2 0.2 0.6 0.2 1.8 1.3 2.1 1.1 0.3 1.7-0.9 0.4-0.9 0.4-2 0.1-1.1-0.8-2.2-1.4-1.7-1.4-3.5-0.1-1.8 1.1-4.1zm31.2 5.9q-1-0.7-0.6-1.4 0.3-0.4 0.9-0.4 0.6 0.1 1.1 0.4 0.9 0.6 1.3 1.7 0.4 1.2 0 2.4l1.3-1.9 3.9 2.7-14.8 21.7-3.9-2.7 12.5-18.3q-1.1 0.8-2.4 1.3-1.3 0.5-3.8 1.2-2.5 0.7-4.8 2.6-2.3 2-3.6 3.9-2.2 3.3-2.6 6.1l-4.5-3.1q0.1-0.9 0.7-2.2 0.6-1.3 1.1-2.1 3.9-5.8 11.6-6.9 3.1-0.4 4.9-1.1 1.9-0.7 2.4-1.5 0.4-0.6 0.3-1.2-0.2-0.7-1-1.2zm13.5 18.3q3.9 0.3 4.9-0.8 0.5-0.5 0.4-1.9-0.3 0-0.6-0.2-0.2-0.3-0.3-0.7 0-0.5 0.2-0.7 0.4-0.4 0.9-0.3 0.6 0.1 1.1 0.6 0.7 0.7 0.8 1.4 0.1 0.7-0.2 2l1.1-1.2 3.6 3.5-18.4 18.7-3.5-3.4 8.7-8.9q-0.8 0.3-2.4 0.4-1.1 0.1-3-0.2-1-0.2-1.5 0.3-0.4 0.4-0.5 1.2 0 0.2 0.1 0.7-0.1 0.1-0.3 0.3-0.6 0.6-1.2 0-0.5-0.5-0.2-2.1-2.1 2.1-3.6 4.5l-3.4-3.4q-0.2-0.7 0.7-2.1 0.9-1.4 2-2.4 2.3-2.4 4.9-3.6 2.5-1.2 5-1.5 2.4-0.4 4.7-0.2zm-3.2 6.7q1.6 0.3 2.3-0.5 0.6-0.5 0.4-1.3-0.3-1.2 0.6-1.3 0.8-0.1 1.3 1.7l4.3-4.4q-1.1 1-4.8 1.7-1.5 0.3-2.9 0.7-1.5 0.5-2.8 1.2-1.3 0.7-2.4 1.8 0.5 0 1.9 0.1 0.4 0 2.1 0.3zm4.2 23.3l-5.2-6.9 21-15.7 4.8 6.4q1 1.3 1.4 2.7 0.5 1.4 0.1 2.8-0.3 1.3-1.5 2.3l-2.2 1.5q-1.7 1.3-3.7 1.1-1.9-0.3-3.3-2.1-1.1-1.5-0.7-2.9-0.5 0-0.7 0.7-0.1 0.6 0 1.5 0.1 0.9 0.5 1.5l3 3.9-5.7 4.2q-2.1 1.6-4.3 1.3-2.1-0.4-3.5-2.3zm0.3-2.1q0.5 0.7 1.4 0.9 0.9 0.2 1.7-0.5l6-4.4q-0.8-1-0.8-3 0-1.9 1.5-3 0.9-0.7 1.6-0.8 0.7-0.1 1.7 0.4 0.2 0.3 0 0.7-0.2 0.4-0.7 0.3-0.7 0.1-0.8 0.7-0.2 0.5 0.1 1 0.9 1.1 2.5-0.1l3.8-2.8q0.7-0.6 0.9-1.5 0.1-1-0.5-1.8l-1.3-1.7-18.5 13.7zm-142.3 294.5q-0.1-1.7 1.4-3.4 1.4-1.7 3.4-2.9 2-1.1 2.9-1.1 0.7 0 2 0.6 1.2 0.6 2.3 1.5 1.2 1 1.9 2.1 0.8 1.1 0.8 2.2 0 1.5-0.9 2.5-0.8 1.1-2.9 2.6 2.6 1.3 3.9 2.8 1.4 1.5 1 3.8-0.4 2.3-3.4 4.3-0.8 0.5-1.3 0.8-0.4 0.3-0.6 0.4-1.1 0.6-1.7 1-1.2 0.6-1.8 0.6-0.9-0.1-2.8-1.4-2-1.2-3.5-3-1.4-1.8-1.5-3.4-0.1-3.1 4-5.5-3.1-1.9-3.2-4.5zm10.2 14.8q0.4-0.1 0.7-0.4 0.2-0.1 0.4-0.3 0.2-0.2 0.4-0.4 0.6-0.6 0.7-1.6 0.1-2-3.1-4.1-0.5-0.3-1.1-0.7-0.7-0.3-1-0.5-1-0.6-1.9-1-0.6-0.4-1.1-0.4-0.6 0-1.2 0.7-0.6 0.7-0.7 1.5-0.1 1.6 1.1 2.7 1.3 1.2 3.6 2.6 0.5 0.3 1.1 0.7 0.7 0.4 0.9 0.6 0.9 0.6 1.2 0.6zm-0.4-11.5q0.7-0.3 1.3-0.9 0.7-0.6 0.6-1.5 0-1.4-1.1-2.4-1-1-2.3-1.6-0.3-0.2-0.6-0.3-0.4-0.2-0.7-0.3-0.4-0.2-0.7-0.4-0.5-0.2-0.7-0.3-0.1-0.1-0.3-0.1-0.2-0.1-0.5 0-0.6 0-1.2 0.6-0.7 0.6-0.7 1.3-0.2 1.7 1.7 3 1.9 1.3 5.2 2.9zm10.9 14.7l-1.1-1.2q1.9-1.6 3.8-3.7 1.9-2.2 3.2-4.5 1.3-2.2 1.4-4.2 0.1-3.4-3.1-6-0.6-0.4-2.3-1.5-0.1-0.1-0.6-0.5-0.6-0.4-0.8-0.5-1.4 1.2-2 2.1-0.5 0.9-0.5 1.8 0 1.9 2 3.9 2 2 3.9 2.3 0.6 0.1 1.1-0.1l0.7 0.6q-0.9 1.3-2.1 2.4-1.2 1-2.2 1-0.9 0-2.4-1.2-1.5-1.2-2.5-3-1.1-1.8-1-3.4 0-0.9 0.5-2.5 0.6-1.6 2.3-3.4 0.7-0.7 1.9-1.7 1-0.8 1.6-1.2 0.9-0.7 1.6-0.7 0.7-0.1 2.1 0.8 1.3 0.8 2.7 2.1 1.3 1.4 2.2 3.1 1 1.7 1 3.4 0.1 2.7-1.7 5.5-1.7 2.9-3.9 5-2.1 2.1-5.8 5.3zm14.2-18.7l-1.8-1.1q3.1-5.5 8.9-5.5 2.4 0 4 1.1 1.6 1.2 1.6 3.1 0 1.5-1 2.9-0.9 1.4-2.5 2.8l0.2 0.2q2.4 0.3 3.5 1.6 1.1 1.3 1.1 2.8 0 1.5-0.8 3.2-0.9 1.6-2.6 3.2-1.8 1.6-4.3 2.9-2.5 1.2-5.5 1.8l-0.8-1.8q4.3-1.1 6.5-3 2.2-1.9 2.2-4.3 0-1.6-0.9-2.6-1-1-2.5-1.1-1.3 0-3.1 0.9l-0.7-1.3q3-1.1 4.7-3 1.7-1.9 1.6-3.5-0.1-0.9-0.9-1.6-0.8-0.7-2.1-0.7-1.4 0-2.7 0.8-1.3 0.8-2.1 2.2zm28.5 18v-17.4h12.1v6.7h-1.6q0-2.6-0.4-3.8-0.4-1.1-1.9-1.1h-4.4v15.6z"/>
	<path id="Path 8" fill-rule="evenodd" class="s6" d="m194.9 240.6c2.4-6.1 6.2-20.6 10.2-24.6 4-4 10.5-4 14.4 0 4 3.9 4 10.4 0 14.4-4 4-18.5 7.8-24.6 10.2zm64 0c-6.1-2.4-20.6-6.2-24.6-10.2-4-4-4-10.5 0-14.4 4-4 10.4-4 14.4 0 4 4 7.8 18.5 10.2 24.6zm-39.4-54c4 4 4 10.4 0 14.4-3.9 4-10.4 4-14.4 0-4-4-7.8-18.5-10.2-24.6 6.1 2.4 20.6 6.2 24.6 10.2zm29.2 14.4c-4 4-10.4 4-14.4 0-4-4-4-10.4 0-14.4 4-4 18.5-7.8 24.6-10.2-2.4 6.1-6.2 20.6-10.2 24.6z"/>
	<path id="Path 9" fill-rule="evenodd" class="s0" d="m220.2 231c-3.1 3.1-11.9 6-18.7 8.3-2.5 0.8-4.7 1.5-6.2 2.1-0.7 0.3-1.5-0.5-1.2-1.2 0.6-1.5 1.3-3.7 2.1-6.2 2.3-6.8 5.2-15.6 8.3-18.7 4.3-4.3 11.4-4.3 15.7 0 4.3 4.3 4.3 11.4 0 15.7zm-1.3-1.3c3.6-3.6 3.6-9.5 0-13.1-3.6-3.6-9.5-3.6-13.1 0-2.8 2.8-5.6 11.3-7.8 18-0.6 1.6-1.1 3.1-1.5 4.4 1.3-0.4 2.8-0.9 4.4-1.5 6.7-2.2 15.2-5 18-7.8zm30.4-14.4c3.1 3.1 6 11.9 8.3 18.7 0.8 2.5 1.5 4.7 2.1 6.2 0.3 0.7-0.4 1.5-1.1 1.2-1.6-0.6-3.8-1.3-6.2-2.1-6.9-2.3-15.7-5.2-18.8-8.3-4.3-4.3-4.3-11.4 0-15.7 4.4-4.3 11.4-4.3 15.7 0zm-1.3 1.3c-3.6-3.6-9.5-3.6-13.1 0-3.6 3.6-3.6 9.5 0 13.1 2.8 2.8 11.4 5.6 18 7.8 1.6 0.6 3.1 1.1 4.5 1.5-0.5-1.3-1-2.8-1.5-4.4-2.3-6.7-5.1-15.2-7.9-18zm-27.8-30.6c4.3 4.3 4.3 11.3 0 15.7-4.3 4.3-11.4 4.3-15.7 0-3.1-3.1-6-11.9-8.3-18.8-0.8-2.4-1.5-4.6-2.1-6.2-0.3-0.7 0.5-1.4 1.2-1.1 1.5 0.6 3.7 1.3 6.2 2.1 6.8 2.3 15.6 5.2 18.7 8.3zm-1.3 1.3c-2.8-2.8-11.3-5.7-18-7.9q-2.4-0.8-4.4-1.5 0.7 2 1.5 4.5c2.2 6.6 5 15.2 7.8 18 3.6 3.6 9.5 3.6 13.1 0 3.6-3.6 3.6-9.5 0-13.1zm30.4 14.4c-4.3 4.3-11.3 4.3-15.7 0-4.3-4.4-4.3-11.4 0-15.7 3.2-3.1 11.9-6 18.8-8.3 2.4-0.8 4.6-1.5 6.2-2.1 0.7-0.3 1.4 0.4 1.1 1.1-0.6 1.6-1.3 3.8-2.1 6.2-2.3 6.9-5.2 15.6-8.3 18.8zm-1.3-1.3c2.8-2.8 5.6-11.4 7.9-18q0.8-2.5 1.5-4.5c-1.4 0.5-2.9 1-4.5 1.5-6.6 2.2-15.2 5.1-18 7.9-3.6 3.6-3.6 9.5 0 13.1 3.6 3.6 9.5 3.6 13.1 0z"/>
	<path id="Path 10" fill-rule="evenodd" class="s0" d="m262.1 174.8q-2.9 8-4.3 16.6-1.4 8.3-1.4 17.1 0 8.8 1.4 17.1 1.4 8.6 4.3 16.6c0.3 0.8-0.6 1.7-1.5 1.4-5.3-1.8-10.9-3.3-16.6-4.2q-8.3-1.5-17.1-1.5-8.7 0-17.1 1.5c-5.7 0.9-11.2 2.4-16.6 4.2-0.8 0.3-1.7-0.6-1.4-1.4 1.8-5.4 3.3-10.9 4.2-16.6 1-5.6 1.5-11.3 1.5-17.1q0-8.8-1.5-17.1c-0.9-5.7-2.4-11.3-4.2-16.6-0.3-0.9 0.6-1.8 1.4-1.5 5.4 1.9 10.9 3.3 16.6 4.3q8.4 1.4 17.1 1.4 8.8 0 17.1-1.4 8.6-1.4 16.6-4.3c0.9-0.3 1.8 0.6 1.5 1.5zm-2.9 1.4q-7.2 2.4-14.8 3.7c-5.7 0.9-11.5 1.4-17.5 1.4-5.9 0-11.8-0.5-17.5-1.4q-7.6-1.3-14.7-3.7 2.3 7.2 3.6 14.8 1.4 8.6 1.5 17.5c0 5.9-0.6 11.8-1.5 17.5q-1.3 7.6-3.6 14.7 7.1-2.3 14.7-3.6c5.7-1 11.6-1.5 17.5-1.5 6 0 11.8 0.5 17.5 1.5q7.6 1.3 14.8 3.6-2.4-7.1-3.7-14.7c-0.9-5.7-1.4-11.6-1.4-17.5 0-6 0.5-11.8 1.4-17.5q1.3-7.6 3.7-14.8z"/>
	<path id="Path 11" class="s2" d="m226.9 198c5.8 0 10.5 4.7 10.5 10.5 0 5.8-4.7 10.5-10.5 10.5-5.8 0-10.5-4.7-10.5-10.5 0-5.8 4.7-10.5 10.5-10.5z"/>
	<path id="Path 12" fill-rule="evenodd" class="s0" d="m226.9 197.1c6.3 0 11.4 5.1 11.4 11.4 0 6.3-5.1 11.4-11.4 11.4-6.3 0-11.4-5.1-11.4-11.4 0-6.3 5.1-11.4 11.4-11.4zm0 1.8c-5.3 0-9.6 4.3-9.6 9.6 0 5.3 4.3 9.6 9.6 9.6 5.3 0 9.6-4.3 9.6-9.6 0-5.3-4.3-9.6-9.6-9.6zm-22.9 48.1l29.2 12.8-0.8 2-11.6-5-5.2 5.2c-0.6-5.2-2.2-7.9-4.7-9.2l-7.8-3.8z"/>
	<path id="Path 13" class="s4" d="m222.1 264.9c3.8 0 6.9 3.1 6.9 6.9 0 3.8-3.1 6.8-6.9 6.8-3.8 0-6.9-3-6.9-6.8 0-3.8 3.1-6.9 6.9-6.9zm21.5 0c3.8 0 6.8 3.1 6.8 6.9 0 3.8-3 6.8-6.8 6.8-3.8 0-6.9-3-6.9-6.8 0-3.8 3.1-6.9 6.9-6.9zm-43 0c3.8 0 6.9 3.1 6.9 6.9 0 3.8-3.1 6.8-6.9 6.8-3.8 0-6.9-3-6.9-6.8 0-3.8 3.1-6.9 6.9-6.9zm10.4 18.4c3.8 0 6.9 3.1 6.9 6.9 0 3.8-3.1 6.8-6.9 6.8-3.8 0-6.9-3-6.9-6.8 0-3.8 3.1-6.9 6.9-6.9zm21.5 0c3.7 0 6.8 3.1 6.8 6.9 0 3.8-3.1 6.8-6.8 6.8-3.8 0-6.9-3-6.9-6.8 0-3.8 3.1-6.9 6.9-6.9zm-31.1 16.3c3.8 0 6.8 3 6.8 6.8 0 3.8-3 6.9-6.8 6.9-3.8 0-6.9-3.1-6.9-6.9 0-3.8 3.1-6.8 6.9-6.8zm21.4 0c3.8 0 6.9 3 6.9 6.8 0 3.8-3.1 6.9-6.9 6.9-3.8 0-6.8-3.1-6.8-6.9 0-3.8 3-6.8 6.8-6.8zm-12.7 17.2c3.8 0 6.9 3.1 6.9 6.9 0 3.8-3.1 6.9-6.9 6.9-3.8 0-6.9-3.1-6.9-6.9 0-3.8 3.1-6.9 6.9-6.9z"/>
	<path id="Path 14" fill-rule="evenodd" class="s0" d="m222.1 264c4.3 0 7.8 3.5 7.8 7.8 0 4.3-3.5 7.8-7.8 7.8-4.3 0-7.8-3.5-7.8-7.8 0-4.3 3.5-7.8 7.8-7.8zm0 1.8c-3.3 0-6 2.7-6 6 0 3.3 2.7 5.9 6 5.9 3.3 0 6-2.6 6-5.9 0-3.3-2.7-6-6-6zm21.5-1.8c4.3 0 7.8 3.5 7.8 7.8 0 4.3-3.5 7.8-7.8 7.8-4.3 0-7.8-3.5-7.8-7.8 0-4.3 3.5-7.8 7.8-7.8zm0 1.8c-3.3 0-6 2.7-6 6 0 3.3 2.7 5.9 6 5.9 3.3 0 5.9-2.6 5.9-5.9 0-3.3-2.6-6-5.9-6zm-43-1.8c4.3 0 7.8 3.5 7.8 7.8 0 4.3-3.5 7.8-7.8 7.8-4.3 0-7.8-3.5-7.8-7.8 0-4.3 3.5-7.8 7.8-7.8zm0 1.8c-3.3 0-6 2.7-6 6 0 3.3 2.7 5.9 6 5.9 3.3 0 6-2.6 6-5.9 0-3.3-2.7-6-6-6zm10.4 16.6c4.3 0 7.8 3.5 7.8 7.8 0 4.3-3.5 7.8-7.8 7.8-4.3 0-7.8-3.5-7.8-7.8 0-4.3 3.5-7.8 7.8-7.8zm0 1.8c-3.3 0-6 2.7-6 6 0 3.3 2.7 5.9 6 5.9 3.3 0 5.9-2.6 5.9-5.9 0-3.3-2.6-6-5.9-6zm21.5-1.8c4.2 0 7.8 3.5 7.8 7.8 0 4.3-3.6 7.8-7.8 7.8-4.3 0-7.9-3.5-7.9-7.8 0-4.3 3.6-7.8 7.9-7.8zm0 1.8c-3.3 0-6 2.7-6 6 0 3.3 2.7 5.9 6 5.9 3.2 0 5.9-2.6 5.9-5.9 0-3.3-2.7-6-5.9-6zm-31.1 14.4c4.3 0 7.8 3.5 7.8 7.8 0 4.3-3.5 7.8-7.8 7.8-4.3 0-7.8-3.5-7.8-7.8 0-4.3 3.5-7.8 7.8-7.8zm0 1.9c-3.3 0-6 2.6-6 5.9 0 3.3 2.7 6 6 6 3.2 0 5.9-2.7 5.9-6 0-3.3-2.7-5.9-5.9-5.9zm21.4-1.9c4.3 0 7.8 3.5 7.8 7.8 0 4.3-3.5 7.8-7.8 7.8-4.3 0-7.8-3.5-7.8-7.8 0-4.3 3.5-7.8 7.8-7.8zm0 1.9c-3.3 0-5.9 2.6-5.9 5.9 0 3.3 2.6 6 5.9 6 3.3 0 6-2.7 6-6 0-3.3-2.7-5.9-6-5.9zm-12.7 15.4c4.3 0 7.8 3.5 7.8 7.8 0 4.3-3.5 7.8-7.8 7.8-4.3 0-7.8-3.5-7.8-7.8 0-4.3 3.5-7.8 7.8-7.8zm0 1.8c-3.3 0-6 2.7-6 6 0 3.3 2.7 6 6 6 3.3 0 6-2.7 6-6 0-3.3-2.7-6-6-6z"/>
	<path id="Path 15" class="s2" d="m174.2 310.6h10.5v5.7h-10.5z"/>
	<path id="Path 16" class="s4" d="m147.2 347.4q-1.3 1.5-2.8 2.6-1.5 1.1-3.2 1.8c-0.1 0.1-0.6 0.1-0.7 0q-0.7-0.3-1.5-0.6-0.6-0.2-1.4-0.6 0 0 0 0-6.1-2.8-11.7-6.5-5.7-3.7-10.8-8.3c-0.2-0.2-0.3-0.5-0.3-0.7v-130.2c-0.7-0.1-1.2-0.5-1.6-0.9-0.4-0.5-0.7-1.2-0.9-1.9-0.1-0.6-0.2-1.3-0.2-2 0.1-1.3 0.5-2.6 1.1-3.4-0.6-1.6-1.6-3.3-2.9-5-1.4-2-3.2-4-5.3-6.1 0-0.1-0.2-0.3-0.2-0.3q0-0.1-0.1-0.3c-1-3.1 4.2-6.8 6.1-7.4 1.7-0.5 2.8-0.2 3.7 0.6 0-1.3 0.5-2.3 1.2-3.1 0.8-0.9 2-1.5 3.2-1.9 1.1-0.3 2.4-0.4 3.7-0.3 2 0.2 3.9 1 4.7 2.4v-0.1q0.7 1 1.3 2.2c-0.2-2 0-3.6 0.5-4.9 0.5-1.2 1.3-2 2.2-2.6 0.9-0.6 1.9-0.9 3-1 2-0.2 4.1 0.3 5.7 0.9q3.1 0.8 5.7 1.9 2.3 1 4.3 2.4 0.4-0.1 0.9-0.3c0.7-0.3 1.4 0.5 1.1 1.2q-0.1 0.2-0.1 0.3l10.9 8q0.6 0.4 1 0.7 0 0 0 0 0 0 0 0.1c0.4 0.3 0.3 1.1-0.1 1.4-3.1 2-5.6 4.2-7.5 6.5-1.9 2.3-3.4 4.6-4.5 7q-0.1 1.7-0.7 2.9-0.5 1.1-1.5 1.7-0.9 0.5-2.1 0.5v142.7c0 0.1-0.1 0.5-0.2 0.6z"/>
	<path id="Path 17" fill-rule="evenodd" class="s0" d="m147.2 347.4q-1.3 1.5-2.8 2.6-1.5 1.1-3.2 1.8c-0.1 0.1-0.6 0.1-0.7 0q-0.7-0.3-1.5-0.6-0.6-0.2-1.4-0.6 0 0 0 0-6.1-2.8-11.7-6.5-5.7-3.7-10.8-8.3c-0.2-0.2-0.3-0.5-0.3-0.7v-130.2c-0.7-0.1-1.2-0.5-1.6-0.9-0.4-0.5-0.7-1.2-0.9-1.9-0.1-0.6-0.2-1.3-0.2-2 0.1-1.3 0.5-2.6 1.1-3.4-0.6-1.6-1.6-3.3-2.9-5-1.4-2-3.2-4-5.3-6.1 0-0.1-0.2-0.3-0.2-0.3q0-0.1-0.1-0.3c-1-3.1 4.2-6.8 6.1-7.4 1.7-0.5 2.8-0.2 3.7 0.6 0-1.3 0.5-2.3 1.2-3.1 0.8-0.9 2-1.5 3.2-1.9 1.1-0.3 2.4-0.4 3.7-0.3 2 0.2 3.9 1 4.7 2.4v-0.1q0.7 1 1.3 2.2c-0.2-2 0-3.6 0.5-4.9 0.5-1.2 1.3-2 2.2-2.6 0.9-0.6 1.9-0.9 3-1 2-0.2 4.1 0.3 5.7 0.9q3.1 0.8 5.7 1.9 2.3 1 4.3 2.4 0.4-0.1 0.9-0.3c0.7-0.3 1.4 0.5 1.1 1.2q-0.1 0.2-0.1 0.3l10.9 8q0.6 0.4 1 0.7 0 0 0 0 0 0 0 0.1c0.4 0.3 0.3 1.1-0.1 1.4-3.1 2-5.6 4.2-7.5 6.5-1.9 2.3-3.4 4.6-4.5 7q-0.1 1.7-0.7 2.9-0.5 1.1-1.5 1.7-0.9 0.5-2.1 0.5v142.7c0 0.1-0.1 0.5-0.2 0.6zm-32.3-151.5q5.9-1.3 12-1.6 6-0.3 12.2 0.5 0-5.7-0.1-11.5-0.1-6-0.2-11.9c-1.3-0.5-2.9-0.8-4.4-0.7-0.8 0.1-1.5 0.3-2.1 0.7-0.6 0.4-1.1 1-1.5 1.8-0.4 1-0.5 2.4-0.4 4.2q0.4 1.8 0.9 3.7c0.8 3.2 1.7 6.7 1.6 9.8 0 0.4-0.4 0.9-0.8 0.9-1.7 0.1-2.1-0.8-2.3-2.2 0-0.5 0-1 0-1.6 0.1-0.8 0.1-1.7-0.1-2.4-0.5-1.8-1.1-3.7-1.8-5.4-0.6-1.5-1.4-2.9-2.1-3.9v-0.1c-0.5-0.8-1.9-1.3-3.4-1.5-1-0.1-2.1 0-3 0.3-0.9 0.2-1.8 0.7-2.3 1.3-0.6 0.6-0.9 1.5-0.8 2.6 0.6 1.4 1.1 2.8 1.6 4.1 0.6 1.5 1.2 2.9 1.7 4.3 0.3 0.8-0.7 1.6-1.4 1.1-1.5-1.1-2.2-3.1-3-5-0.8-2.4-1.6-4.7-3.9-4.1-1.5 0.6-5.5 3.1-4.9 5.1 2.1 2.1 3.9 4.2 5.4 6.2 1.3 1.8 2.4 3.6 3.1 5.3zm22.1 152.4v-145.9c-4.1-0.5-7.2-0.6-10.1-0.2-3.1 0.4-6.2 1.3-10.3 2.7v129.8q4.9 4.3 10.3 7.9 4.9 3.2 10.1 5.7zm8.6-1.8v-142.7q-0.1 0-0.3-0.1-0.3-0.1-0.7-0.3c-1 0.2-2.4-0.1-4-0.4q-0.8-0.2-1.7-0.3v146.5q0.4 0.1 0.9 0.3 0.5 0.3 1 0.5 1.3-0.6 2.5-1.4 1.2-0.9 2.3-2.1zm4.7-148.9c1.2-2.3 2.6-4.6 4.5-6.8 1.8-2.1 4.1-4.2 6.8-6.1-0.9-0.6-2.1-1.1-3.3-1.3-1.2-0.3-2.4-0.2-3.3 0.4-3.1 2.3-4.9 6.6-6.7 10.9-0.1 0.2-0.2 0.4-0.6 1.3-0.1 0.3-0.3 0.4-0.6 0.5q0.6 0.2 1.3 0.4 0.9 0.3 1.9 0.7zm-34.3 5.6l0.1-0.1q0 0 0.1 0c4.1-1.3 7.2-2.3 10.4-2.7q0.5-0.1 1.1-0.1 0 0 0 0 0 0 0.1 0 0 0 0.1 0 0 0 0 0 0.1 0 0.1-0.1 0 0 0 0 0 0 0 0 0 0 0.1 0 0 0 0 0 1.1-0.1 2.3-0.1 0 0 0 0 0 0 0.1 0 1.2 0 2.5 0.1 0.1 0 0.1 0 0 0 0 0 0 0 0 0 0 0 0.1 0 1.7 0.1 3.6 0.4 0 0 0 0 0.1 0 0.1 0 0 0 0.1 0l0.9 0.1q0 0 0 0h0.1c0.9-0.1 1.5-0.4 1.8-0.7 0.2-0.3 0.4-0.7 0.4-1.1 0.1-0.4 0.1-0.8-0.1-1.2-0.1-0.5-0.2-0.8-0.3-0.9q-6.6-1-12.9-0.7-6.3 0.3-12.3 1.7c-0.3 0.2-0.6 1.3-0.6 2.4 0 0.5 0 1 0.1 1.5 0.1 0.4 0.3 0.8 0.5 1.1 0.3 0.3 0.6 0.5 1.2 0.4q0 0 0 0 0 0 0 0 0 0 0.1 0 0 0 0 0 0 0 0.1 0 0 0 0 0 0 0 0 0 0 0 0 0zm25-7.7l4.6 0.5q0.3 0.1 0.6 0.2-0.3-0.2-0.3-0.6c0.1-1.1 0.2-2 0.2-3 0.3-4.6 0.6-9.2 3.3-16.1-0.6 0.4-1.1 0.9-1.6 1.3-0.7 0.7-1.4 1.2-2.3 1.7-1 0.5-2 0.8-2.8 1.1-1.2 0.5-1.9 0.7-1.9 0.9q0 0.9 0 1.8 0.1 6.1 0.2 12.2zm4 2.2l-3.1-0.4c0.2 0.6 0.2 1.2 0.1 1.9-0.1 0.7-0.3 1.4-0.8 2q-0.1 0-0.1 0.1c1.5 0.2 2.7 0.5 3.4 0.3 0.6-0.2 1-0.7 1.1-1.2q0.1-0.5 0.1-0.9 0-0.5-0.2-0.9c-0.1-0.5-0.3-0.8-0.5-0.9zm6.1-20.7c-2.1 5.6-2.7 9.6-3 13.4 1.7-3.6 4.3-9 9.1-9zm-3-1.9q-1.5-1-3.3-1.8-1.9-0.8-4.3-1.4l0.2 7.5q0.5-0.2 1.3-0.5c0.7-0.3 1.7-0.6 2.6-1.1 0.7-0.3 1.3-0.8 1.9-1.3 0.5-0.5 1-1 1.6-1.4zm1.6 24.3q-1-0.4-2-0.8-0.2-0.1-0.4-0.1 0.1 0.4 0.1 0.9 0.1 0.7-0.1 1.5-0.2 0.7-0.7 1.3 0.3 0.1 0.6 0.1 0.8 0 1.3-0.3 0.5-0.3 0.8-1 0.3-0.6 0.4-1.6zm-33.1 5.5h-0.1z"/>
</svg>