<?xml version="1.0" encoding="UTF-8" standalone="no"?>
<!DOCTYPE svg PUBLIC "-//W3C//DTD SVG 1.1//EN" "http://www.w3.org/Graphics/SVG/1.1/DTD/svg11.dtd">
<svg xmlns="http://www.w3.org/2000/svg" version="1.1" viewBox="0 0 1040 1848">
<g stroke-width="2.00" fill="none" stroke-linecap="butt">
<path stroke="#5d5143" vector-effect="non-scaling-stroke" d="
  M 152.44 451.81
  Q 154.32 453.94 152.88 456.21
  Q 151.44 458.47 148.76 458.50
  Q 82.88 459.27 17.00 458.97
  Q 14.58 458.95 12.28 459.66
  A 0.88 0.86 87.8 0 0 11.70 460.30
  Q 11.00 463.42 11.00 468.00
  Q 11.00 547.63 11.00 627.25
  Q 11.00 632.09 15.14 631.85
  Q 16.76 631.75 16.88 631.75
  Q 113.31 632.10 209.75 632.21
  Q 221.60 632.22 232.32 631.74
  A 1.76 1.76 -1.4 0 0 234.00 629.98
  Q 234.00 563.63 233.85 498.75
  Q 233.79 472.12 234.71 445.50
  Q 235.53 421.64 238.00 407.00
  Q 253.18 317.07 317.15 252.66
  Q 345.26 224.36 379.94 204.70
  Q 448.60 165.77 527.27 168.27
  Q 537.29 168.59 547.21 169.49
  Q 617.68 175.87 676.31 214.94
  Q 744.73 260.52 779.50 335.75
  Q 796.39 372.30 801.85 413.07
  Q 802.96 421.37 803.61 432.99
  Q 805.04 458.33 805.00 480.75
  Q 804.85 555.50 805.25 629.88
  Q 805.26 631.75 807.12 631.75
  L 1025.93 632.00
  A 1.84 1.83 -89.7 0 0 1027.76 630.18
  Q 1028.37 564.00 1027.88 497.00
  Q 1027.75 479.00 1027.75 460.99
  A 1.74 1.73 90.0 0 0 1026.02 459.25
  Q 958.80 459.06 891.36 458.51
  Q 889.69 458.50 888.75 458.00
  Q 887.45 457.31 886.73 456.07
  Q 885.73 454.34 886.78 452.57
  Q 887.95 450.60 890.25 450.50
  Q 922.80 449.02 966.50 450.79
  Q 968.39 450.87 970.07 450.54
  A 1.22 1.22 -16.2 0 0 970.97 448.91
  Q 953.85 403.14 949.78 354.90
  A 1.60 1.59 85.8 0 0 948.09 353.44
  Q 937.76 354.14 928.25 353.92
  Q 925.53 353.86 923.62 352.29
  Q 922.00 350.97 922.08 349.08
  Q 922.18 346.82 924.50 345.75
  Q 926.90 344.65 930.76 344.80
  Q 939.25 345.14 946.93 344.79
  Q 948.75 344.70 948.75 342.87
  Q 948.71 308.68 952.31 275.81
  Q 952.60 273.14 950.70 272.76
  Q 950.60 272.74 947.80 272.76
  Q 916.89 272.98 885.98 272.00
  Q 882.57 271.89 883.00 268.50
  Q 883.25 266.51 885.47 265.27
  Q 886.84 264.51 889.19 264.46
  Q 918.34 263.91 947.29 263.75
  Q 948.67 263.74 947.94 262.57
  L 920.21 217.88
  Q 919.05 216.01 916.82 216.00
  L 836.33 215.50
  Q 833.18 215.48 832.83 212.34
  Q 832.55 209.78 834.08 208.52
  Q 835.07 207.70 837.51 207.62
  Q 845.68 207.33 853.84 207.37
  Q 865.99 207.44 870.15 207.39
  Q 891.45 207.13 912.76 207.25
  Q 915.24 207.26 914.17 205.03
  Q 901.49 178.64 894.01 150.60
  Q 893.39 148.28 891.01 148.00
  Q 870.63 145.63 850.54 141.54
  Q 845.66 140.54 843.13 139.41
  Q 839.47 137.77 836.56 135.19
  Q 828.87 128.36 819.02 126.88
  Q 749.58 116.43 679.75 109.00
  Q 675.09 108.50 672.58 105.50
  Q 671.08 103.70 669.91 98.59
  Q 665.11 77.67 660.45 56.53
  Q 659.96 54.29 657.66 54.22
  Q 652.34 54.05 646.32 53.85
  Q 642.18 53.72 640.47 52.49
  Q 637.66 50.49 637.89 46.24
  Q 638.12 41.87 637.77 37.50
  Q 637.04 28.61 632.03 22.03
  Q 627.83 16.51 620.64 13.11
  Q 613.82 9.87 606.25 9.50
  Q 596.58 9.02 586.69 12.11
  Q 583.71 13.04 583.24 13.37
  Q 581.69 14.46 581.50 17.00
  Q 580.67 28.37 580.00 39.75
  Q 579.87 41.88 580.78 43.05
  Q 581.50 43.98 583.57 44.07
  Q 591.58 44.39 599.61 44.27
  Q 599.66 44.26 601.39 44.14
  Q 604.69 43.89 606.44 46.56
  Q 608.31 49.41 606.36 50.93
  Q 605.38 51.69 602.94 51.94
  Q 589.18 53.34 583.75 53.00
  Q 579.14 52.71 576.61 55.11
  Q 576.18 55.51 572.88 60.87
  Q 561.79 78.85 560.06 82.81
  Q 558.93 85.41 558.94 88.25
  Q 559.00 102.50 558.96 116.75
  Q 558.94 121.72 554.06 123.56
  Q 539.91 128.92 525.83 134.45
  Q 521.35 136.21 515.75 134.75
  Q 498.96 130.36 482.70 122.09
  Q 480.78 121.12 480.75 118.95
  L 480.25 87.24
  Q 480.21 84.55 478.60 82.36
  Q 469.42 69.83 463.16 54.55
  A 2.13 2.12 -10.6 0 0 461.24 53.24
  Q 447.50 52.90 433.25 52.75
  Q 431.08 52.73 429.44 52.26
  Q 427.45 51.70 426.71 49.93
  Q 425.57 47.20 428.34 45.27
  A 1.87 1.44 20.4 0 1 429.25 44.99
  L 455.77 44.25
  Q 459.05 44.16 458.94 40.97
  L 458.04 15.74
  Q 457.97 13.73 455.93 13.06
  Q 439.61 7.71 423.28 11.69
  Q 412.80 14.24 406.87 22.16
  Q 402.80 27.62 401.32 35.15
  Q 399.99 41.97 400.94 49.56
  Q 401.25 52.07 399.42 53.28
  Q 398.32 54.00 395.93 54.00
  Q 388.76 54.00 381.04 54.00
  Q 378.91 54.00 378.42 56.08
  Q 373.80 75.93 369.34 96.10
  Q 367.82 102.98 367.21 104.16
  Q 365.01 108.41 359.50 109.00
  Q 282.04 117.28 213.54 128.47
  Q 209.87 129.07 207.32 131.83
  Q 201.60 138.02 193.45 140.04
  Q 172.27 145.28 150.60 147.77
  Q 147.79 148.09 146.60 148.91
  Q 144.77 150.17 144.13 152.58
  Q 137.44 177.93 126.50 201.75
  Q 126.46 201.85 125.83 203.10
  Q 123.76 207.17 128.33 207.04
  Q 129.59 207.00 129.68 207.00
  Q 173.36 207.19 217.04 207.49
  Q 219.59 207.50 220.72 208.44
  Q 222.40 209.82 222.19 212.45
  Q 221.94 215.49 218.91 215.50
  L 121.97 216.00
  Q 119.98 216.01 118.95 217.67
  L 91.66 261.56
  Q 90.17 263.96 93.01 264.00
  L 130.56 264.48
  Q 133.53 264.51 134.52 267.35
  Q 135.71 270.74 133.81 272.15
  Q 132.76 272.93 129.88 272.95
  Q 109.78 273.05 89.08 273.00
  Q 86.62 272.99 86.76 275.45
  Q 88.67 308.37 90.50 341.50
  Q 90.73 345.58 94.19 345.35
  Q 95.75 345.25 95.82 345.25
  Q 115.44 345.30 135.06 345.52
  Q 138.36 345.56 139.44 347.81
  Q 140.75 350.56 138.47 352.20
  A 4.73 4.70 24.6 0 1 136.13 353.06
  Q 113.37 354.90 92.11 353.18
  Q 89.14 352.94 88.94 355.91
  Q 85.72 402.84 67.63 447.54
  Q 66.75 449.72 69.11 449.77
  Q 107.75 450.50 147.25 450.17
  Q 150.95 450.14 152.44 451.81"
/>
<path stroke="#46271b" vector-effect="non-scaling-stroke" d="
  M 750.94 393.20
  Q 750.29 390.16 752.05 388.26
  Q 753.14 387.08 756.47 386.11
  Q 769.28 382.39 782.24 378.43
  A 1.85 1.85 75.3 0 0 783.50 376.27
  Q 777.25 347.38 761.77 322.45
  A 1.83 1.83 59.6 0 0 759.32 321.81
  Q 747.50 328.35 735.65 334.83
  Q 732.73 336.42 731.10 336.48
  Q 728.35 336.58 726.33 334.38
  A 1.24 1.21 -65.6 0 1 726.01 333.50
  Q 726.22 329.65 729.44 327.69
  Q 741.36 320.42 753.45 313.43
  Q 756.13 311.88 754.49 309.25
  Q 740.00 286.05 721.47 265.46
  Q 720.11 263.94 719.09 263.56
  Q 717.26 262.87 715.81 264.31
  Q 706.29 273.79 696.81 283.31
  Q 694.58 285.55 692.13 285.49
  Q 689.63 285.43 688.11 283.26
  Q 686.82 281.40 687.50 279.12
  Q 687.94 277.66 689.61 275.82
  Q 691.57 273.67 693.78 271.78
  Q 701.36 265.33 708.26 258.17
  Q 709.74 256.63 709.82 255.26
  Q 709.93 253.34 708.35 251.90
  Q 688.02 233.48 664.68 219.07
  Q 661.23 216.93 659.35 220.39
  Q 653.08 231.97 646.82 243.57
  Q 644.80 247.32 640.97 247.04
  Q 638.73 246.88 637.65 245.37
  Q 636.34 243.53 637.75 241.00
  Q 644.87 228.21 651.91 215.36
  Q 653.87 211.77 650.29 210.24
  Q 624.02 199.01 597.76 188.69
  Q 595.38 187.75 594.75 190.24
  Q 591.34 203.82 587.42 217.25
  Q 586.21 221.40 584.06 222.81
  Q 580.30 225.28 579.00 221.25
  Q 577.93 217.91 579.20 213.74
  Q 580.45 209.61 580.45 209.59
  Q 582.92 199.57 585.38 189.54
  Q 585.41 189.44 585.83 188.10
  Q 586.63 185.58 584.24 185.24
  Q 582.54 185.00 582.40 184.97
  Q 556.31 178.65 529.46 177.78
  Q 529.35 177.78 527.55 177.61
  Q 523.65 177.27 523.89 181.09
  Q 524.00 182.84 524.00 182.92
  Q 524.07 194.73 524.77 206.51
  Q 525.04 211.00 522.50 213.00
  Q 518.79 215.92 516.37 213.54
  Q 515.06 212.25 515.08 209.40
  Q 515.15 194.95 515.18 180.50
  Q 515.18 177.45 512.42 177.66
  Q 511.16 177.75 511.07 177.75
  Q 482.53 178.00 454.98 185.50
  Q 452.90 186.07 453.34 188.19
  Q 456.40 202.65 460.75 217.25
  Q 461.46 219.63 460.21 221.66
  Q 459.05 223.55 456.97 223.48
  Q 454.47 223.39 453.57 220.48
  Q 449.31 206.71 445.06 192.94
  Q 444.06 189.69 441.52 189.20
  Q 440.15 188.94 437.07 189.98
  Q 412.14 198.39 388.80 210.60
  Q 384.96 212.61 387.06 215.94
  Q 395.38 229.11 399.81 240.03
  Q 400.76 242.36 400.99 243.93
  Q 401.74 249.03 397.06 246.99
  Q 395.22 246.18 393.83 244.03
  Q 386.28 232.31 379.05 220.40
  Q 377.10 217.19 373.78 219.30
  Q 350.71 234.04 330.49 252.49
  Q 327.56 255.17 330.36 257.89
  Q 338.03 265.37 346.11 272.38
  Q 351.72 277.25 350.44 284.69
  Q 349.60 289.58 346.00 286.25
  Q 341.59 282.16 326.39 267.11
  Q 324.31 265.05 322.00 263.96
  Q 320.20 263.11 318.82 264.55
  Q 300.08 284.16 285.44 306.99
  Q 282.27 311.93 287.44 314.81
  Q 297.87 320.63 308.26 326.53
  Q 311.82 328.54 312.65 332.57
  Q 313.84 338.31 309.63 337.40
  Q 308.30 337.10 305.67 335.61
  Q 292.84 328.32 280.31 321.27
  Q 278.33 320.16 277.21 322.13
  Q 262.60 347.77 254.85 375.69
  Q 254.27 377.76 256.33 378.37
  Q 269.17 382.18 281.78 385.96
  Q 281.87 385.99 283.73 386.42
  Q 286.46 387.05 288.10 389.41
  Q 290.31 392.61 286.92 394.19
  Q 284.79 395.19 282.68 394.68
  L 254.83 387.95
  Q 251.86 387.24 250.89 390.03
  Q 249.65 393.55 248.63 398.48
  Q 243.86 421.56 243.02 445.12
  Q 243.02 445.18 242.91 446.37
  Q 242.74 448.20 243.87 449.21
  Q 244.71 449.97 246.85 450.09
  Q 262.64 450.94 278.62 451.06
  Q 282.73 451.09 280.58 454.60
  Q 277.77 459.16 271.00 458.92
  Q 257.87 458.47 244.91 459.24
  A 1.77 1.76 -1.6 0 0 243.25 460.99
  Q 242.87 543.78 243.00 626.56
  Q 243.00 629.84 243.02 629.92
  Q 243.41 632.32 246.24 632.13
  Q 248.17 632.01 248.27 632.01
  Q 276.74 632.18 304.16 631.77
  Q 306.00 631.74 306.00 629.90
  Q 306.00 562.50 306.09 496.00
  Q 306.13 471.12 306.63 446.25
  Q 306.91 432.65 308.00 424.50
  Q 317.57 352.94 369.31 302.06
  Q 416.93 255.25 481.42 243.84
  Q 491.19 242.11 501.27 241.33
  Q 534.74 238.73 566.75 245.75
  Q 624.75 258.46 668.03 299.97
  Q 715.75 345.74 728.34 410.26
  Q 729.67 417.11 730.63 426.32
  Q 731.69 436.51 732.00 442.50
  Q 733.35 468.71 733.22 503.00
  Q 733.00 564.38 733.00 625.75
  Q 733.00 629.18 733.34 631.07
  A 0.74 0.73 89.9 0 0 733.93 631.67
  Q 735.57 631.98 739.00 632.00
  Q 766.75 632.19 794.52 631.75
  A 1.27 1.27 3.1 0 0 795.76 630.64
  Q 796.09 628.26 796.07 625.75
  Q 795.59 544.91 795.43 462.64
  Q 795.43 459.84 792.64 459.69
  Q 779.34 458.95 765.06 458.11
  Q 762.66 457.97 761.53 457.41
  Q 759.80 456.56 758.81 454.85
  Q 757.72 452.98 759.55 451.82
  Q 762.38 450.03 765.75 450.02
  Q 779.25 450.00 792.75 449.98
  Q 795.99 449.97 795.94 446.94
  Q 795.40 418.01 788.21 389.83
  A 2.12 2.12 83.5 0 0 786.21 388.24
  Q 784.59 388.19 782.48 388.64
  Q 771.02 391.10 759.56 393.56
  Q 754.68 394.61 751.55 393.83
  A 0.84 0.83 1.2 0 1 750.94 393.20"
/>
<path stroke="#5d5143" vector-effect="non-scaling-stroke" d="
  M 316.37 631.80
  Q 339.47 632.32 361.49 631.76
  A 1.23 1.23 -87.6 0 0 362.69 630.65
  Q 363.13 626.13 363.12 622.25
  Q 363.01 560.71 363.00 499.16
  Q 363.00 499.08 362.93 483.84
  Q 362.78 453.64 365.00 431.50
  Q 366.70 414.51 372.31 399.31
  Q 387.75 357.49 423.31 330.06
  Q 452.06 307.89 485.71 300.80
  Q 494.96 298.85 505.51 298.11
  Q 525.49 296.71 544.50 299.50
  Q 584.56 305.38 616.05 330.36
  Q 623.92 336.60 631.02 343.62
  Q 656.12 368.42 667.57 402.00
  Q 670.10 409.42 671.82 417.66
  Q 673.65 426.48 674.25 433.75
  Q 676.30 458.78 676.11 488.25
  Q 675.99 506.66 675.99 506.74
  Q 675.96 567.44 676.07 629.41
  Q 676.07 631.72 678.38 631.78
  Q 700.12 632.37 721.98 631.78
  Q 724.00 631.72 724.00 629.71
  Q 724.01 545.75 723.82 462.50
  Q 723.78 443.09 721.75 426.75
  Q 716.89 387.63 697.13 353.35
  Q 692.27 344.91 686.23 336.59
  Q 664.10 306.09 633.56 284.94
  Q 584.96 251.26 524.82 249.77
  Q 472.21 248.46 426.94 271.69
  Q 379.89 295.83 349.77 339.93
  Q 344.06 348.30 339.45 357.04
  Q 317.95 397.81 315.92 444.50
  Q 315.00 465.75 315.00 505.50
  Q 315.00 566.62 315.06 627.75
  Q 315.06 629.55 315.36 630.96
  A 1.07 1.06 84.4 0 0 316.37 631.80"
/>
<path stroke="#46271b" vector-effect="non-scaling-stroke" d="
  M 373.31 631.34
  Q 376.70 632.12 380.25 632.06
  Q 383.19 632.01 383.26 632.01
  Q 399.88 632.16 416.41 631.75
  A 1.35 1.34 1.9 0 0 417.72 630.53
  Q 418.13 626.38 418.12 622.50
  Q 418.00 557.12 417.77 491.75
  Q 417.69 470.74 418.65 449.75
  Q 419.42 432.84 423.25 420.50
  Q 427.48 406.87 436.56 394.37
  Q 442.41 386.32 449.87 379.47
  Q 469.18 361.73 494.71 355.28
  Q 504.43 352.81 514.47 352.44
  Q 542.34 351.41 567.59 364.38
  Q 594.11 378.01 608.18 404.31
  Q 619.62 425.69 620.52 450.00
  Q 621.00 462.95 621.00 490.25
  Q 621.00 559.25 621.00 628.25
  Q 621.00 632.10 624.65 631.85
  Q 626.30 631.74 626.36 631.74
  Q 643.81 631.60 661.25 631.76
  Q 663.47 631.78 665.49 631.69
  A 1.31 1.31 2.0 0 0 666.75 630.52
  Q 667.14 626.76 667.13 623.00
  Q 667.00 559.76 667.00 496.53
  Q 667.00 496.45 667.05 487.98
  Q 667.16 469.34 665.50 441.75
  Q 663.17 403.03 642.25 372.50
  Q 621.20 341.78 588.07 323.41
  Q 579.11 318.44 569.94 315.01
  Q 534.84 301.86 498.06 307.56
  Q 455.51 314.17 422.06 343.31
  Q 389.06 372.07 378.06 412.27
  Q 375.81 420.47 374.42 431.92
  Q 372.35 448.98 372.25 462.50
  Q 371.63 546.25 372.25 630.02
  A 1.37 1.36 -83.8 0 0 373.31 631.34"
/>
<path stroke="#808080" vector-effect="non-scaling-stroke" d="
  M 428.42 636.81
  Q 516.47 637.14 604.50 637.19
  Q 607.94 637.19 610.41 636.73
  A 1.94 1.94 85.0 0 0 612.00 634.83
  Q 612.17 551.73 611.79 469.84
  Q 611.75 461.02 611.56 454.65
  Q 611.22 442.78 610.75 439.50
  Q 606.12 406.92 581.14 385.84
  Q 567.29 374.15 551.69 367.56
  Q 522.09 355.06 491.34 366.14
  Q 467.22 374.82 451.06 392.56
  Q 435.40 409.76 429.63 433.06
  Q 428.28 438.54 427.81 446.08
  Q 427.27 454.73 427.25 459.25
  Q 426.82 543.62 426.83 628.00
  Q 426.83 632.01 427.22 635.73
  A 1.21 1.21 86.8 0 0 428.42 636.81"
/>
<path stroke="#36626a" vector-effect="non-scaling-stroke" d="
  M 331.70 891.04
  Q 333.72 891.20 335.27 890.88
  Q 337.00 890.52 337.00 888.75
  Q 337.00 833.25 337.13 779.00
  Q 337.16 764.97 338.50 754.00
  Q 340.51 737.55 348.45 722.01
  Q 356.88 705.51 370.95 694.15
  Q 378.37 688.15 387.91 683.64
  Q 406.92 674.66 427.25 674.00
  Q 469.35 672.63 497.56 701.85
  Q 504.11 708.63 509.34 717.03
  Q 514.47 725.28 518.21 734.20
  Q 519.06 736.23 519.93 734.20
  Q 525.40 721.45 533.81 710.65
  Q 539.93 702.79 547.62 696.25
  Q 574.49 673.39 610.27 673.53
  Q 620.43 673.57 630.09 675.75
  Q 661.58 682.87 681.69 707.81
  Q 701.50 732.39 701.73 764.25
  Q 702.18 825.87 702.00 888.87
  Q 701.99 890.71 703.83 890.78
  Q 709.20 890.99 714.95 891.36
  Q 721.68 891.79 726.01 892.59
  Q 746.49 896.37 764.56 909.44
  Q 790.90 928.48 798.72 958.21
  Q 800.74 965.87 801.62 977.96
  Q 803.00 996.98 803.00 1022.50
  Q 803.00 1104.88 802.84 1187.25
  Q 802.82 1194.50 802.74 1201.75
  Q 802.66 1208.61 807.03 1204.03
  Q 813.44 1197.31 820.21 1190.96
  Q 910.08 1106.59 965.73 996.88
  Q 970.38 987.71 974.41 978.87
  Q 1013.39 893.31 1023.75 801.25
  Q 1027.17 770.90 1027.67 735.63
  Q 1027.91 718.59 1027.92 718.37
  Q 1028.57 680.32 1027.75 642.37
  A 1.13 1.12 -87.7 0 0 1026.74 641.27
  Q 1022.63 640.87 1018.75 640.87
  Q 516.77 641.00 14.79 641.00
  Q 14.71 641.00 13.72 640.95
  Q 10.94 640.80 10.94 643.75
  Q 11.00 687.37 11.13 731.00
  Q 11.51 861.54 65.57 979.37
  Q 69.61 988.20 74.28 997.38
  Q 133.64 1114.29 231.14 1202.33
  Q 231.24 1202.43 232.44 1203.58
  Q 236.17 1207.18 236.02 1201.35
  Q 236.00 1200.26 236.00 1200.15
  Q 235.29 1091.03 236.95 981.91
  Q 237.00 978.51 237.41 975.10
  Q 237.82 971.72 238.22 968.33
  Q 240.40 950.14 250.22 934.73
  Q 262.82 914.98 283.25 903.50
  Q 305.08 891.24 328.16 890.83
  Q 328.99 890.81 331.70 891.04"
/>
<path stroke="#36626a" vector-effect="non-scaling-stroke" d="
  M 613.94 728.06
  Q 637.17 730.44 648.34 749.94
  Q 651.16 754.86 652.53 760.59
  Q 653.83 766.03 654.25 772.00
  Q 655.23 785.87 655.22 797.50
  Q 655.00 990.25 654.76 1183.00
  Q 654.76 1186.67 654.75 1194.75
  Q 654.70 1253.84 654.81 1312.23
  Q 654.81 1313.73 656.09 1312.95
  Q 672.41 1303.00 688.52 1293.16
  Q 691.26 1291.48 691.45 1291.32
  Q 693.00 1289.99 693.00 1288.00
  Q 692.96 1048.50 693.46 809.00
  Q 693.54 771.92 693.00 763.75
  Q 690.35 723.72 660.08 700.81
  Q 651.75 694.51 643.15 690.21
  Q 619.89 678.60 594.00 684.00
  Q 563.93 690.27 544.81 712.56
  Q 528.72 731.33 524.99 756.05
  Q 524.02 762.48 523.93 776.00
  Q 523.46 847.75 523.93 919.49
  Q 524.00 930.20 524.00 939.50
  Q 524.00 1157.63 524.00 1375.87
  Q 524.00 1379.36 527.18 1377.92
  L 559.54 1363.23
  Q 562.00 1362.12 562.00 1359.40
  Q 562.00 1087.55 562.00 815.85
  Q 562.00 815.79 561.94 806.16
  Q 561.83 788.43 563.29 770.75
  Q 564.14 760.36 567.56 752.56
  Q 574.95 735.72 593.28 730.34
  Q 604.40 727.08 613.94 728.06"
/>
<path stroke="#36626a" vector-effect="non-scaling-stroke" d="
  M 348.44 1291.56
  Q 359.63 1299.28 378.96 1310.97
  Q 379.05 1311.02 380.84 1312.24
  Q 384.21 1314.54 384.06 1310.10
  Q 384.00 1308.47 384.00 1308.39
  Q 384.00 1056.03 384.00 803.68
  Q 384.00 803.62 383.88 787.81
  Q 383.78 774.16 384.50 766.00
  Q 385.20 758.06 389.20 750.81
  Q 392.81 744.26 399.31 738.98
  Q 417.15 724.48 440.94 729.06
  Q 461.08 732.94 470.04 749.92
  Q 473.84 757.12 475.56 768.64
  Q 477.02 778.36 477.02 788.25
  Q 477.00 1072.63 477.00 1357.00
  Q 477.00 1359.52 477.84 1361.24
  Q 478.54 1362.70 480.95 1363.84
  Q 496.42 1371.18 512.12 1377.70
  Q 514.25 1378.58 514.25 1376.27
  Q 513.93 1077.38 513.84 778.50
  Q 513.84 765.59 512.75 755.00
  Q 510.14 729.54 492.48 710.76
  Q 478.06 695.41 460.19 688.31
  Q 430.47 676.50 399.94 688.94
  Q 380.77 696.75 367.44 711.19
  Q 354.99 724.67 349.83 742.40
  Q 347.72 749.62 346.94 760.31
  Q 346.27 769.39 346.19 778.50
  Q 345.85 818.37 345.88 858.25
  Q 346.00 1072.25 345.98 1286.25
  Q 345.98 1289.87 348.44 1291.56"
/>
<path stroke="#36626a" vector-effect="non-scaling-stroke" d="
  M 632.31 745.94
  Q 626.40 740.90 619.56 738.50
  Q 612.80 736.12 605.24 737.08
  Q 596.03 738.24 588.38 743.27
  Q 580.84 748.22 576.43 755.96
  Q 571.27 765.01 571.25 776.00
  Q 570.84 1017.75 570.81 1351.25
  Q 570.81 1354.00 571.16 1355.88
  A 1.15 1.15 70.9 0 0 572.82 1356.69
  Q 608.45 1338.33 643.32 1320.34
  Q 646.00 1318.96 646.00 1315.50
  Q 646.00 1058.00 646.00 800.50
  Q 646.00 786.03 645.77 776.83
  Q 645.53 767.15 643.63 761.92
  Q 640.29 752.73 632.31 745.94"
/>
<path stroke="#36626a" vector-effect="non-scaling-stroke" d="
  M 394.58 1319.75
  L 465.52 1356.54
  Q 468.00 1357.82 468.00 1355.01
  Q 468.11 1071.50 467.76 788.00
  Q 467.74 772.43 466.87 768.06
  Q 463.86 752.97 450.55 743.25
  Q 439.98 735.51 427.75 737.00
  Q 401.26 740.22 394.90 764.62
  Q 393.73 769.12 393.35 775.99
  Q 393.02 781.74 393.02 787.50
  Q 393.00 1052.37 393.00 1317.13
  Q 393.00 1318.94 394.58 1319.75"
/>
<path stroke="#36626a" vector-effect="non-scaling-stroke" d="
  M 303.88 952.65
  Q 311.29 947.83 320.32 946.11
  Q 327.47 944.74 334.75 944.75
  Q 336.70 944.75 336.74 942.80
  Q 337.14 924.13 337.19 905.75
  Q 337.21 899.75 331.00 900.00
  Q 309.92 900.86 292.06 909.31
  Q 273.10 918.29 260.41 936.69
  Q 244.81 959.32 244.79 987.00
  Q 244.71 1099.88 245.25 1212.48
  A 2.78 2.77 -67.4 0 0 246.05 1214.43
  Q 262.47 1231.09 282.16 1244.21
  A 0.35 0.35 22.8 0 0 282.70 1243.99
  Q 283.16 1241.90 283.16 1240.00
  Q 283.00 1128.44 283.00 1016.88
  Q 283.00 1016.76 282.94 1009.63
  Q 282.82 997.01 284.25 985.25
  Q 285.61 974.01 291.64 964.88
  Q 296.57 957.41 303.88 952.65"
/>
<path stroke="#36626a" vector-effect="non-scaling-stroke" d="
  M 703.35 943.85
  Q 705.68 944.41 708.24 944.58
  Q 715.70 945.07 722.78 947.13
  Q 730.42 949.36 736.13 953.08
  Q 746.92 960.11 751.75 972.09
  Q 754.05 977.81 754.73 986.72
  Q 755.23 993.14 755.50 1001.75
  Q 756.00 1017.42 756.00 1022.00
  Q 756.00 1132.50 756.00 1243.51
  Q 756.00 1245.96 757.91 1244.42
  Q 772.94 1232.32 788.44 1219.97
  Q 793.92 1215.61 793.92 1208.50
  Q 794.00 1113.12 794.11 1017.75
  Q 794.14 993.04 793.75 983.00
  Q 792.22 943.57 761.99 919.00
  Q 736.58 898.34 704.04 900.22
  A 1.94 1.90 -1.4 0 0 702.21 902.11
  L 702.06 942.24
  A 1.68 1.65 6.9 0 0 703.35 943.85"
/>
<path stroke="#36626a" vector-effect="non-scaling-stroke" d="
  M 726.67 958.76
  Q 717.92 953.56 706.75 954.50
  Q 702.85 954.83 702.12 957.78
  Q 702.00 958.24 702.00 962.73
  Q 702.00 1121.24 701.84 1279.75
  Q 701.84 1281.65 702.15 1283.05
  A 0.76 0.76 66.2 0 0 703.33 1283.51
  Q 721.70 1270.67 739.82 1257.70
  Q 739.90 1257.64 742.40 1256.07
  Q 746.11 1253.73 746.91 1249.75
  Q 746.98 1249.39 747.03 1241.24
  Q 747.74 1121.37 746.30 1001.51
  Q 746.25 996.79 746.08 992.99
  Q 745.77 986.09 745.50 984.50
  Q 744.09 976.25 738.70 969.47
  Q 733.33 962.72 726.67 958.76"
/>
<path stroke="#36626a" vector-effect="non-scaling-stroke" d="
  M 293.43 1253.19
  L 334.76 1282.51
  Q 337.00 1284.10 337.00 1281.34
  Q 337.00 1121.83 337.00 962.15
  Q 337.00 962.05 337.09 959.85
  Q 337.16 957.94 336.71 956.60
  Q 336.06 954.71 334.05 954.73
  Q 325.99 954.85 319.23 956.68
  Q 303.68 960.88 297.21 973.80
  Q 294.01 980.21 292.76 992.69
  Q 291.78 1002.43 291.90 1012.24
  Q 292.00 1020.71 292.00 1020.76
  Q 291.95 1135.84 292.06 1250.54
  Q 292.06 1252.23 293.43 1253.19"
/>
<path stroke="#5d5143" vector-effect="non-scaling-stroke" d="
  M 839.9402 170.4356
  A 4.36 4.36 0.0 0 0 835.5878 166.0680
  L 757.6479 165.9320
  A 4.36 4.36 0.0 0 0 753.2803 170.2844
  L 753.2798 170.5844
  A 4.36 4.36 0.0 0 0 757.6322 174.9520
  L 835.5721 175.0880
  A 4.36 4.36 0.0 0 0 839.9397 170.7356
  L 839.9402 170.4356"
/>
<path stroke="#5d5143" vector-effect="non-scaling-stroke" d="
  M 353.78 172.09
  A 4.09 4.09 0.0 0 0 349.69 168.00
  L 278.09 168.00
  A 4.09 4.09 0.0 0 0 274.00 172.09
  L 274.00 172.91
  A 4.09 4.09 0.0 0 0 278.09 177.00
  L 349.69 177.00
  A 4.09 4.09 0.0 0 0 353.78 172.91
  L 353.78 172.09"
/>
</g>
<path fill="#010101" d="
  M 826.06 1197.81
  Q 786.17 1235.11 748.57 1262.58
  Q 642.21 1340.28 521.16 1390.47
  Q 519.53 1391.15 517.90 1390.47
  Q 426.60 1352.15 343.75 1299.82
  Q 334.94 1294.25 326.98 1288.90
  Q 255.31 1240.65 194.81 1180.19
  Q 167.00 1152.39 141.36 1120.12
  Q 87.69 1052.59 52.80 973.86
  Q 48.70 964.61 45.05 955.42
  Q 1.06 844.55 1.50 725.50
  Q 2.21 532.85 2.00 457.00
  Q 1.98 449.87 8.75 449.90
  Q 28.07 449.99 47.39 450.00
  Q 52.63 450.00 53.10 449.91
  Q 55.26 449.47 56.75 447.84
  Q 57.69 446.83 58.71 444.30
  Q 92.73 360.32 76.25 271.50
  Q 75.54 267.68 77.46 265.18
  Q 118.71 211.26 137.12 145.83
  Q 138.27 141.77 141.52 140.05
  Q 143.25 139.14 148.15 138.76
  Q 173.27 136.80 194.00 130.25
  Q 195.67 129.72 197.06 127.87
  Q 199.26 124.96 199.28 124.93
  Q 203.76 120.31 210.23 119.57
  Q 214.02 119.14 214.13 119.12
  Q 291.10 106.58 356.25 100.25
  Q 358.80 100.00 359.74 98.42
  Q 359.99 98.00 360.61 95.01
  Q 364.87 74.62 369.27 54.27
  Q 370.47 48.70 370.71 48.15
  Q 372.20 44.63 376.15 44.07
  Q 377.41 43.89 381.29 44.59
  Q 383.86 45.05 386.50 44.99
  Q 391.34 44.87 392.25 40.25
  Q 392.52 38.86 392.56 34.63
  Q 392.59 31.40 393.20 29.07
  Q 398.80 7.67 420.50 3.00
  Q 441.30 -1.48 462.06 5.44
  Q 467.76 7.34 467.25 13.25
  Q 466.84 18.04 467.15 27.24
  Q 467.83 47.13 477.69 64.06
  Q 479.19 66.63 481.94 70.40
  Q 483.44 72.46 484.94 74.52
  Q 486.69 76.92 487.45 78.89
  Q 489.26 83.60 489.28 88.75
  Q 489.34 101.12 489.49 112.79
  Q 489.52 115.33 491.88 116.27
  Q 503.32 120.82 514.35 125.23
  Q 514.40 125.25 515.99 126.00
  Q 518.62 127.24 521.43 126.17
  Q 534.42 121.23 547.66 115.92
  A 2.67 2.66 83.3 0 0 549.31 113.82
  Q 550.64 104.63 550.20 95.15
  Q 549.75 85.73 550.23 83.38
  Q 551.27 78.20 554.54 73.90
  Q 558.05 69.31 558.07 69.27
  Q 574.78 43.69 572.00 11.50
  Q 571.80 9.15 573.46 7.38
  Q 574.55 6.21 577.02 5.36
  Q 597.19 -1.60 617.69 2.81
  Q 624.32 4.24 630.37 7.77
  Q 636.64 11.43 640.61 16.42
  Q 647.47 25.03 647.59 36.61
  Q 647.64 41.38 648.36 42.76
  Q 650.10 46.11 655.00 45.50
  Q 659.51 44.93 663.25 45.75
  Q 668.01 46.79 669.15 52.52
  Q 673.65 75.04 679.58 97.54
  Q 680.12 99.59 682.22 99.83
  Q 722.15 104.41 762.75 109.50
  Q 790.12 112.93 828.53 119.41
  Q 833.24 120.21 835.25 121.30
  Q 838.42 123.02 840.52 126.22
  Q 842.35 129.00 845.52 130.06
  Q 866.79 137.19 893.25 139.00
  Q 897.65 139.30 900.10 142.73
  Q 901.19 144.27 902.83 149.50
  Q 922.30 211.94 959.56 263.44
  Q 960.99 265.41 961.81 266.75
  Q 962.79 268.33 962.52 270.48
  Q 962.20 273.00 961.79 275.51
  Q 947.18 364.49 981.00 446.00
  Q 982.40 449.37 985.86 449.96
  Q 986.06 449.99 991.66 450.01
  Q 1009.68 450.09 1027.70 449.86
  Q 1032.17 449.80 1033.98 450.84
  Q 1037.15 452.68 1037.14 457.25
  Q 1037.14 462.87 1037.16 468.50
  Q 1037.80 600.91 1037.25 704.50
  Q 1037.13 727.19 1036.26 761.50
  Q 1035.96 773.34 1035.36 781.48
  Q 1030.56 846.29 1009.06 911.81
  Q 954.67 1077.57 826.06 1197.81
  Z
  M 152.44 451.81
  Q 154.32 453.94 152.88 456.21
  Q 151.44 458.47 148.76 458.50
  Q 82.88 459.27 17.00 458.97
  Q 14.58 458.95 12.28 459.66
  A 0.88 0.86 87.8 0 0 11.70 460.30
  Q 11.00 463.42 11.00 468.00
  Q 11.00 547.63 11.00 627.25
  Q 11.00 632.09 15.14 631.85
  Q 16.76 631.75 16.88 631.75
  Q 113.31 632.10 209.75 632.21
  Q 221.60 632.22 232.32 631.74
  A 1.76 1.76 -1.4 0 0 234.00 629.98
  Q 234.00 563.63 233.85 498.75
  Q 233.79 472.12 234.71 445.50
  Q 235.53 421.64 238.00 407.00
  Q 253.18 317.07 317.15 252.66
  Q 345.26 224.36 379.94 204.70
  Q 448.60 165.77 527.27 168.27
  Q 537.29 168.59 547.21 169.49
  Q 617.68 175.87 676.31 214.94
  Q 744.73 260.52 779.50 335.75
  Q 796.39 372.30 801.85 413.07
  Q 802.96 421.37 803.61 432.99
  Q 805.04 458.33 805.00 480.75
  Q 804.85 555.50 805.25 629.88
  Q 805.26 631.75 807.12 631.75
  L 1025.93 632.00
  A 1.84 1.83 -89.7 0 0 1027.76 630.18
  Q 1028.37 564.00 1027.88 497.00
  Q 1027.75 479.00 1027.75 460.99
  A 1.74 1.73 90.0 0 0 1026.02 459.25
  Q 958.80 459.06 891.36 458.51
  Q 889.69 458.50 888.75 458.00
  Q 887.45 457.31 886.73 456.07
  Q 885.73 454.34 886.78 452.57
  Q 887.95 450.60 890.25 450.50
  Q 922.80 449.02 966.50 450.79
  Q 968.39 450.87 970.07 450.54
  A 1.22 1.22 -16.2 0 0 970.97 448.91
  Q 953.85 403.14 949.78 354.90
  A 1.60 1.59 85.8 0 0 948.09 353.44
  Q 937.76 354.14 928.25 353.92
  Q 925.53 353.86 923.62 352.29
  Q 922.00 350.97 922.08 349.08
  Q 922.18 346.82 924.50 345.75
  Q 926.90 344.65 930.76 344.80
  Q 939.25 345.14 946.93 344.79
  Q 948.75 344.70 948.75 342.87
  Q 948.71 308.68 952.31 275.81
  Q 952.60 273.14 950.70 272.76
  Q 950.60 272.74 947.80 272.76
  Q 916.89 272.98 885.98 272.00
  Q 882.57 271.89 883.00 268.50
  Q 883.25 266.51 885.47 265.27
  Q 886.84 264.51 889.19 264.46
  Q 918.34 263.91 947.29 263.75
  Q 948.67 263.74 947.94 262.57
  L 920.21 217.88
  Q 919.05 216.01 916.82 216.00
  L 836.33 215.50
  Q 833.18 215.48 832.83 212.34
  Q 832.55 209.78 834.08 208.52
  Q 835.07 207.70 837.51 207.62
  Q 845.68 207.33 853.84 207.37
  Q 865.99 207.44 870.15 207.39
  Q 891.45 207.13 912.76 207.25
  Q 915.24 207.26 914.17 205.03
  Q 901.49 178.64 894.01 150.60
  Q 893.39 148.28 891.01 148.00
  Q 870.63 145.63 850.54 141.54
  Q 845.66 140.54 843.13 139.41
  Q 839.47 137.77 836.56 135.19
  Q 828.87 128.36 819.02 126.88
  Q 749.58 116.43 679.75 109.00
  Q 675.09 108.50 672.58 105.50
  Q 671.08 103.70 669.91 98.59
  Q 665.11 77.67 660.45 56.53
  Q 659.96 54.29 657.66 54.22
  Q 652.34 54.05 646.32 53.85
  Q 642.18 53.72 640.47 52.49
  Q 637.66 50.49 637.89 46.24
  Q 638.12 41.87 637.77 37.50
  Q 637.04 28.61 632.03 22.03
  Q 627.83 16.51 620.64 13.11
  Q 613.82 9.87 606.25 9.50
  Q 596.58 9.02 586.69 12.11
  Q 583.71 13.04 583.24 13.37
  Q 581.69 14.46 581.50 17.00
  Q 580.67 28.37 580.00 39.75
  Q 579.87 41.88 580.78 43.05
  Q 581.50 43.98 583.57 44.07
  Q 591.58 44.39 599.61 44.27
  Q 599.66 44.26 601.39 44.14
  Q 604.69 43.89 606.44 46.56
  Q 608.31 49.41 606.36 50.93
  Q 605.38 51.69 602.94 51.94
  Q 589.18 53.34 583.75 53.00
  Q 579.14 52.71 576.61 55.11
  Q 576.18 55.51 572.88 60.87
  Q 561.79 78.85 560.06 82.81
  Q 558.93 85.41 558.94 88.25
  Q 559.00 102.50 558.96 116.75
  Q 558.94 121.72 554.06 123.56
  Q 539.91 128.92 525.83 134.45
  Q 521.35 136.21 515.75 134.75
  Q 498.96 130.36 482.70 122.09
  Q 480.78 121.12 480.75 118.95
  L 480.25 87.24
  Q 480.21 84.55 478.60 82.36
  Q 469.42 69.83 463.16 54.55
  A 2.13 2.12 -10.6 0 0 461.24 53.24
  Q 447.50 52.90 433.25 52.75
  Q 431.08 52.73 429.44 52.26
  Q 427.45 51.70 426.71 49.93
  Q 425.57 47.20 428.34 45.27
  A 1.87 1.44 20.4 0 1 429.25 44.99
  L 455.77 44.25
  Q 459.05 44.16 458.94 40.97
  L 458.04 15.74
  Q 457.97 13.73 455.93 13.06
  Q 439.61 7.71 423.28 11.69
  Q 412.80 14.24 406.87 22.16
  Q 402.80 27.62 401.32 35.15
  Q 399.99 41.97 400.94 49.56
  Q 401.25 52.07 399.42 53.28
  Q 398.32 54.00 395.93 54.00
  Q 388.76 54.00 381.04 54.00
  Q 378.91 54.00 378.42 56.08
  Q 373.80 75.93 369.34 96.10
  Q 367.82 102.98 367.21 104.16
  Q 365.01 108.41 359.50 109.00
  Q 282.04 117.28 213.54 128.47
  Q 209.87 129.07 207.32 131.83
  Q 201.60 138.02 193.45 140.04
  Q 172.27 145.28 150.60 147.77
  Q 147.79 148.09 146.60 148.91
  Q 144.77 150.17 144.13 152.58
  Q 137.44 177.93 126.50 201.75
  Q 126.46 201.85 125.83 203.10
  Q 123.76 207.17 128.33 207.04
  Q 129.59 207.00 129.68 207.00
  Q 173.36 207.19 217.04 207.49
  Q 219.59 207.50 220.72 208.44
  Q 222.40 209.82 222.19 212.45
  Q 221.94 215.49 218.91 215.50
  L 121.97 216.00
  Q 119.98 216.01 118.95 217.67
  L 91.66 261.56
  Q 90.17 263.96 93.01 264.00
  L 130.56 264.48
  Q 133.53 264.51 134.52 267.35
  Q 135.71 270.74 133.81 272.15
  Q 132.76 272.93 129.88 272.95
  Q 109.78 273.05 89.08 273.00
  Q 86.62 272.99 86.76 275.45
  Q 88.67 308.37 90.50 341.50
  Q 90.73 345.58 94.19 345.35
  Q 95.75 345.25 95.82 345.25
  Q 115.44 345.30 135.06 345.52
  Q 138.36 345.56 139.44 347.81
  Q 140.75 350.56 138.47 352.20
  A 4.73 4.70 24.6 0 1 136.13 353.06
  Q 113.37 354.90 92.11 353.18
  Q 89.14 352.94 88.94 355.91
  Q 85.72 402.84 67.63 447.54
  Q 66.75 449.72 69.11 449.77
  Q 107.75 450.50 147.25 450.17
  Q 150.95 450.14 152.44 451.81
  Z
  M 750.94 393.20
  Q 750.29 390.16 752.05 388.26
  Q 753.14 387.08 756.47 386.11
  Q 769.28 382.39 782.24 378.43
  A 1.85 1.85 75.3 0 0 783.50 376.27
  Q 777.25 347.38 761.77 322.45
  A 1.83 1.83 59.6 0 0 759.32 321.81
  Q 747.50 328.35 735.65 334.83
  Q 732.73 336.42 731.10 336.48
  Q 728.35 336.58 726.33 334.38
  A 1.24 1.21 -65.6 0 1 726.01 333.50
  Q 726.22 329.65 729.44 327.69
  Q 741.36 320.42 753.45 313.43
  Q 756.13 311.88 754.49 309.25
  Q 740.00 286.05 721.47 265.46
  Q 720.11 263.94 719.09 263.56
  Q 717.26 262.87 715.81 264.31
  Q 706.29 273.79 696.81 283.31
  Q 694.58 285.55 692.13 285.49
  Q 689.63 285.43 688.11 283.26
  Q 686.82 281.40 687.50 279.12
  Q 687.94 277.66 689.61 275.82
  Q 691.57 273.67 693.78 271.78
  Q 701.36 265.33 708.26 258.17
  Q 709.74 256.63 709.82 255.26
  Q 709.93 253.34 708.35 251.90
  Q 688.02 233.48 664.68 219.07
  Q 661.23 216.93 659.35 220.39
  Q 653.08 231.97 646.82 243.57
  Q 644.80 247.32 640.97 247.04
  Q 638.73 246.88 637.65 245.37
  Q 636.34 243.53 637.75 241.00
  Q 644.87 228.21 651.91 215.36
  Q 653.87 211.77 650.29 210.24
  Q 624.02 199.01 597.76 188.69
  Q 595.38 187.75 594.75 190.24
  Q 591.34 203.82 587.42 217.25
  Q 586.21 221.40 584.06 222.81
  Q 580.30 225.28 579.00 221.25
  Q 577.93 217.91 579.20 213.74
  Q 580.45 209.61 580.45 209.59
  Q 582.92 199.57 585.38 189.54
  Q 585.41 189.44 585.83 188.10
  Q 586.63 185.58 584.24 185.24
  Q 582.54 185.00 582.40 184.97
  Q 556.31 178.65 529.46 177.78
  Q 529.35 177.78 527.55 177.61
  Q 523.65 177.27 523.89 181.09
  Q 524.00 182.84 524.00 182.92
  Q 524.07 194.73 524.77 206.51
  Q 525.04 211.00 522.50 213.00
  Q 518.79 215.92 516.37 213.54
  Q 515.06 212.25 515.08 209.40
  Q 515.15 194.95 515.18 180.50
  Q 515.18 177.45 512.42 177.66
  Q 511.16 177.75 511.07 177.75
  Q 482.53 178.00 454.98 185.50
  Q 452.90 186.07 453.34 188.19
  Q 456.40 202.65 460.75 217.25
  Q 461.46 219.63 460.21 221.66
  Q 459.05 223.55 456.97 223.48
  Q 454.47 223.39 453.57 220.48
  Q 449.31 206.71 445.06 192.94
  Q 444.06 189.69 441.52 189.20
  Q 440.15 188.94 437.07 189.98
  Q 412.14 198.39 388.80 210.60
  Q 384.96 212.61 387.06 215.94
  Q 395.38 229.11 399.81 240.03
  Q 400.76 242.36 400.99 243.93
  Q 401.74 249.03 397.06 246.99
  Q 395.22 246.18 393.83 244.03
  Q 386.28 232.31 379.05 220.40
  Q 377.10 217.19 373.78 219.30
  Q 350.71 234.04 330.49 252.49
  Q 327.56 255.17 330.36 257.89
  Q 338.03 265.37 346.11 272.38
  Q 351.72 277.25 350.44 284.69
  Q 349.60 289.58 346.00 286.25
  Q 341.59 282.16 326.39 267.11
  Q 324.31 265.05 322.00 263.96
  Q 320.20 263.11 318.82 264.55
  Q 300.08 284.16 285.44 306.99
  Q 282.27 311.93 287.44 314.81
  Q 297.87 320.63 308.26 326.53
  Q 311.82 328.54 312.65 332.57
  Q 313.84 338.31 309.63 337.40
  Q 308.30 337.10 305.67 335.61
  Q 292.84 328.32 280.31 321.27
  Q 278.33 320.16 277.21 322.13
  Q 262.60 347.77 254.85 375.69
  Q 254.27 377.76 256.33 378.37
  Q 269.17 382.18 281.78 385.96
  Q 281.87 385.99 283.73 386.42
  Q 286.46 387.05 288.10 389.41
  Q 290.31 392.61 286.92 394.19
  Q 284.79 395.19 282.68 394.68
  L 254.83 387.95
  Q 251.86 387.24 250.89 390.03
  Q 249.65 393.55 248.63 398.48
  Q 243.86 421.56 243.02 445.12
  Q 243.02 445.18 242.91 446.37
  Q 242.74 448.20 243.87 449.21
  Q 244.71 449.97 246.85 450.09
  Q 262.64 450.94 278.62 451.06
  Q 282.73 451.09 280.58 454.60
  Q 277.77 459.16 271.00 458.92
  Q 257.87 458.47 244.91 459.24
  A 1.77 1.76 -1.6 0 0 243.25 460.99
  Q 242.87 543.78 243.00 626.56
  Q 243.00 629.84 243.02 629.92
  Q 243.41 632.32 246.24 632.13
  Q 248.17 632.01 248.27 632.01
  Q 276.74 632.18 304.16 631.77
  Q 306.00 631.74 306.00 629.90
  Q 306.00 562.50 306.09 496.00
  Q 306.13 471.12 306.63 446.25
  Q 306.91 432.65 308.00 424.50
  Q 317.57 352.94 369.31 302.06
  Q 416.93 255.25 481.42 243.84
  Q 491.19 242.11 501.27 241.33
  Q 534.74 238.73 566.75 245.75
  Q 624.75 258.46 668.03 299.97
  Q 715.75 345.74 728.34 410.26
  Q 729.67 417.11 730.63 426.32
  Q 731.69 436.51 732.00 442.50
  Q 733.35 468.71 733.22 503.00
  Q 733.00 564.38 733.00 625.75
  Q 733.00 629.18 733.34 631.07
  A 0.74 0.73 89.9 0 0 733.93 631.67
  Q 735.57 631.98 739.00 632.00
  Q 766.75 632.19 794.52 631.75
  A 1.27 1.27 3.1 0 0 795.76 630.64
  Q 796.09 628.26 796.07 625.75
  Q 795.59 544.91 795.43 462.64
  Q 795.43 459.84 792.64 459.69
  Q 779.34 458.95 765.06 458.11
  Q 762.66 457.97 761.53 457.41
  Q 759.80 456.56 758.81 454.85
  Q 757.72 452.98 759.55 451.82
  Q 762.38 450.03 765.75 450.02
  Q 779.25 450.00 792.75 449.98
  Q 795.99 449.97 795.94 446.94
  Q 795.40 418.01 788.21 389.83
  A 2.12 2.12 83.5 0 0 786.21 388.24
  Q 784.59 388.19 782.48 388.64
  Q 771.02 391.10 759.56 393.56
  Q 754.68 394.61 751.55 393.83
  A 0.84 0.83 1.2 0 1 750.94 393.20
  Z
  M 316.37 631.80
  Q 339.47 632.32 361.49 631.76
  A 1.23 1.23 -87.6 0 0 362.69 630.65
  Q 363.13 626.13 363.12 622.25
  Q 363.01 560.71 363.00 499.16
  Q 363.00 499.08 362.93 483.84
  Q 362.78 453.64 365.00 431.50
  Q 366.70 414.51 372.31 399.31
  Q 387.75 357.49 423.31 330.06
  Q 452.06 307.89 485.71 300.80
  Q 494.96 298.85 505.51 298.11
  Q 525.49 296.71 544.50 299.50
  Q 584.56 305.38 616.05 330.36
  Q 623.92 336.60 631.02 343.62
  Q 656.12 368.42 667.57 402.00
  Q 670.10 409.42 671.82 417.66
  Q 673.65 426.48 674.25 433.75
  Q 676.30 458.78 676.11 488.25
  Q 675.99 506.66 675.99 506.74
  Q 675.96 567.44 676.07 629.41
  Q 676.07 631.72 678.38 631.78
  Q 700.12 632.37 721.98 631.78
  Q 724.00 631.72 724.00 629.71
  Q 724.01 545.75 723.82 462.50
  Q 723.78 443.09 721.75 426.75
  Q 716.89 387.63 697.13 353.35
  Q 692.27 344.91 686.23 336.59
  Q 664.10 306.09 633.56 284.94
  Q 584.96 251.26 524.82 249.77
  Q 472.21 248.46 426.94 271.69
  Q 379.89 295.83 349.77 339.93
  Q 344.06 348.30 339.45 357.04
  Q 317.95 397.81 315.92 444.50
  Q 315.00 465.75 315.00 505.50
  Q 315.00 566.62 315.06 627.75
  Q 315.06 629.55 315.36 630.96
  A 1.07 1.06 84.4 0 0 316.37 631.80
  Z
  M 373.31 631.34
  Q 376.70 632.12 380.25 632.06
  Q 383.19 632.01 383.26 632.01
  Q 399.88 632.16 416.41 631.75
  A 1.35 1.34 1.9 0 0 417.72 630.53
  Q 418.13 626.38 418.12 622.50
  Q 418.00 557.12 417.77 491.75
  Q 417.69 470.74 418.65 449.75
  Q 419.42 432.84 423.25 420.50
  Q 427.48 406.87 436.56 394.37
  Q 442.41 386.32 449.87 379.47
  Q 469.18 361.73 494.71 355.28
  Q 504.43 352.81 514.47 352.44
  Q 542.34 351.41 567.59 364.38
  Q 594.11 378.01 608.18 404.31
  Q 619.62 425.69 620.52 450.00
  Q 621.00 462.95 621.00 490.25
  Q 621.00 559.25 621.00 628.25
  Q 621.00 632.10 624.65 631.85
  Q 626.30 631.74 626.36 631.74
  Q 643.81 631.60 661.25 631.76
  Q 663.47 631.78 665.49 631.69
  A 1.31 1.31 2.0 0 0 666.75 630.52
  Q 667.14 626.76 667.13 623.00
  Q 667.00 559.76 667.00 496.53
  Q 667.00 496.45 667.05 487.98
  Q 667.16 469.34 665.50 441.75
  Q 663.17 403.03 642.25 372.50
  Q 621.20 341.78 588.07 323.41
  Q 579.11 318.44 569.94 315.01
  Q 534.84 301.86 498.06 307.56
  Q 455.51 314.17 422.06 343.31
  Q 389.06 372.07 378.06 412.27
  Q 375.81 420.47 374.42 431.92
  Q 372.35 448.98 372.25 462.50
  Q 371.63 546.25 372.25 630.02
  A 1.37 1.36 -83.8 0 0 373.31 631.34
  Z
  M 428.42 636.81
  Q 516.47 637.14 604.50 637.19
  Q 607.94 637.19 610.41 636.73
  A 1.94 1.94 85.0 0 0 612.00 634.83
  Q 612.17 551.73 611.79 469.84
  Q 611.75 461.02 611.56 454.65
  Q 611.22 442.78 610.75 439.50
  Q 606.12 406.92 581.14 385.84
  Q 567.29 374.15 551.69 367.56
  Q 522.09 355.06 491.34 366.14
  Q 467.22 374.82 451.06 392.56
  Q 435.40 409.76 429.63 433.06
  Q 428.28 438.54 427.81 446.08
  Q 427.27 454.73 427.25 459.25
  Q 426.82 543.62 426.83 628.00
  Q 426.83 632.01 427.22 635.73
  A 1.21 1.21 86.8 0 0 428.42 636.81
  Z
  M 331.70 891.04
  Q 333.72 891.20 335.27 890.88
  Q 337.00 890.52 337.00 888.75
  Q 337.00 833.25 337.13 779.00
  Q 337.16 764.97 338.50 754.00
  Q 340.51 737.55 348.45 722.01
  Q 356.88 705.51 370.95 694.15
  Q 378.37 688.15 387.91 683.64
  Q 406.92 674.66 427.25 674.00
  Q 469.35 672.63 497.56 701.85
  Q 504.11 708.63 509.34 717.03
  Q 514.47 725.28 518.21 734.20
  Q 519.06 736.23 519.93 734.20
  Q 525.40 721.45 533.81 710.65
  Q 539.93 702.79 547.62 696.25
  Q 574.49 673.39 610.27 673.53
  Q 620.43 673.57 630.09 675.75
  Q 661.58 682.87 681.69 707.81
  Q 701.50 732.39 701.73 764.25
  Q 702.18 825.87 702.00 888.87
  Q 701.99 890.71 703.83 890.78
  Q 709.20 890.99 714.95 891.36
  Q 721.68 891.79 726.01 892.59
  Q 746.49 896.37 764.56 909.44
  Q 790.90 928.48 798.72 958.21
  Q 800.74 965.87 801.62 977.96
  Q 803.00 996.98 803.00 1022.50
  Q 803.00 1104.88 802.84 1187.25
  Q 802.82 1194.50 802.74 1201.75
  Q 802.66 1208.61 807.03 1204.03
  Q 813.44 1197.31 820.21 1190.96
  Q 910.08 1106.59 965.73 996.88
  Q 970.38 987.71 974.41 978.87
  Q 1013.39 893.31 1023.75 801.25
  Q 1027.17 770.90 1027.67 735.63
  Q 1027.91 718.59 1027.92 718.37
  Q 1028.57 680.32 1027.75 642.37
  A 1.13 1.12 -87.7 0 0 1026.74 641.27
  Q 1022.63 640.87 1018.75 640.87
  Q 516.77 641.00 14.79 641.00
  Q 14.71 641.00 13.72 640.95
  Q 10.94 640.80 10.94 643.75
  Q 11.00 687.37 11.13 731.00
  Q 11.51 861.54 65.57 979.37
  Q 69.61 988.20 74.28 997.38
  Q 133.64 1114.29 231.14 1202.33
  Q 231.24 1202.43 232.44 1203.58
  Q 236.17 1207.18 236.02 1201.35
  Q 236.00 1200.26 236.00 1200.15
  Q 235.29 1091.03 236.95 981.91
  Q 237.00 978.51 237.41 975.10
  Q 237.82 971.72 238.22 968.33
  Q 240.40 950.14 250.22 934.73
  Q 262.82 914.98 283.25 903.50
  Q 305.08 891.24 328.16 890.83
  Q 328.99 890.81 331.70 891.04
  Z
  M 613.94 728.06
  Q 637.17 730.44 648.34 749.94
  Q 651.16 754.86 652.53 760.59
  Q 653.83 766.03 654.25 772.00
  Q 655.23 785.87 655.22 797.50
  Q 655.00 990.25 654.76 1183.00
  Q 654.76 1186.67 654.75 1194.75
  Q 654.70 1253.84 654.81 1312.23
  Q 654.81 1313.73 656.09 1312.95
  Q 672.41 1303.00 688.52 1293.16
  Q 691.26 1291.48 691.45 1291.32
  Q 693.00 1289.99 693.00 1288.00
  Q 692.96 1048.50 693.46 809.00
  Q 693.54 771.92 693.00 763.75
  Q 690.35 723.72 660.08 700.81
  Q 651.75 694.51 643.15 690.21
  Q 619.89 678.60 594.00 684.00
  Q 563.93 690.27 544.81 712.56
  Q 528.72 731.33 524.99 756.05
  Q 524.02 762.48 523.93 776.00
  Q 523.46 847.75 523.93 919.49
  Q 524.00 930.20 524.00 939.50
  Q 524.00 1157.63 524.00 1375.87
  Q 524.00 1379.36 527.18 1377.92
  L 559.54 1363.23
  Q 562.00 1362.12 562.00 1359.40
  Q 562.00 1087.55 562.00 815.85
  Q 562.00 815.79 561.94 806.16
  Q 561.83 788.43 563.29 770.75
  Q 564.14 760.36 567.56 752.56
  Q 574.95 735.72 593.28 730.34
  Q 604.40 727.08 613.94 728.06
  Z
  M 348.44 1291.56
  Q 359.63 1299.28 378.96 1310.97
  Q 379.05 1311.02 380.84 1312.24
  Q 384.21 1314.54 384.06 1310.10
  Q 384.00 1308.47 384.00 1308.39
  Q 384.00 1056.03 384.00 803.68
  Q 384.00 803.62 383.88 787.81
  Q 383.78 774.16 384.50 766.00
  Q 385.20 758.06 389.20 750.81
  Q 392.81 744.26 399.31 738.98
  Q 417.15 724.48 440.94 729.06
  Q 461.08 732.94 470.04 749.92
  Q 473.84 757.12 475.56 768.64
  Q 477.02 778.36 477.02 788.25
  Q 477.00 1072.63 477.00 1357.00
  Q 477.00 1359.52 477.84 1361.24
  Q 478.54 1362.70 480.95 1363.84
  Q 496.42 1371.18 512.12 1377.70
  Q 514.25 1378.58 514.25 1376.27
  Q 513.93 1077.38 513.84 778.50
  Q 513.84 765.59 512.75 755.00
  Q 510.14 729.54 492.48 710.76
  Q 478.06 695.41 460.19 688.31
  Q 430.47 676.50 399.94 688.94
  Q 380.77 696.75 367.44 711.19
  Q 354.99 724.67 349.83 742.40
  Q 347.72 749.62 346.94 760.31
  Q 346.27 769.39 346.19 778.50
  Q 345.85 818.37 345.88 858.25
  Q 346.00 1072.25 345.98 1286.25
  Q 345.98 1289.87 348.44 1291.56
  Z
  M 632.31 745.94
  Q 626.40 740.90 619.56 738.50
  Q 612.80 736.12 605.24 737.08
  Q 596.03 738.24 588.38 743.27
  Q 580.84 748.22 576.43 755.96
  Q 571.27 765.01 571.25 776.00
  Q 570.84 1017.75 570.81 1351.25
  Q 570.81 1354.00 571.16 1355.88
  A 1.15 1.15 70.9 0 0 572.82 1356.69
  Q 608.45 1338.33 643.32 1320.34
  Q 646.00 1318.96 646.00 1315.50
  Q 646.00 1058.00 646.00 800.50
  Q 646.00 786.03 645.77 776.83
  Q 645.53 767.15 643.63 761.92
  Q 640.29 752.73 632.31 745.94
  Z
  M 394.58 1319.75
  L 465.52 1356.54
  Q 468.00 1357.82 468.00 1355.01
  Q 468.11 1071.50 467.76 788.00
  Q 467.74 772.43 466.87 768.06
  Q 463.86 752.97 450.55 743.25
  Q 439.98 735.51 427.75 737.00
  Q 401.26 740.22 394.90 764.62
  Q 393.73 769.12 393.35 775.99
  Q 393.02 781.74 393.02 787.50
  Q 393.00 1052.37 393.00 1317.13
  Q 393.00 1318.94 394.58 1319.75
  Z
  M 303.88 952.65
  Q 311.29 947.83 320.32 946.11
  Q 327.47 944.74 334.75 944.75
  Q 336.70 944.75 336.74 942.80
  Q 337.14 924.13 337.19 905.75
  Q 337.21 899.75 331.00 900.00
  Q 309.92 900.86 292.06 909.31
  Q 273.10 918.29 260.41 936.69
  Q 244.81 959.32 244.79 987.00
  Q 244.71 1099.88 245.25 1212.48
  A 2.78 2.77 -67.4 0 0 246.05 1214.43
  Q 262.47 1231.09 282.16 1244.21
  A 0.35 0.35 22.8 0 0 282.70 1243.99
  Q 283.16 1241.90 283.16 1240.00
  Q 283.00 1128.44 283.00 1016.88
  Q 283.00 1016.76 282.94 1009.63
  Q 282.82 997.01 284.25 985.25
  Q 285.61 974.01 291.64 964.88
  Q 296.57 957.41 303.88 952.65
  Z
  M 703.35 943.85
  Q 705.68 944.41 708.24 944.58
  Q 715.70 945.07 722.78 947.13
  Q 730.42 949.36 736.13 953.08
  Q 746.92 960.11 751.75 972.09
  Q 754.05 977.81 754.73 986.72
  Q 755.23 993.14 755.50 1001.75
  Q 756.00 1017.42 756.00 1022.00
  Q 756.00 1132.50 756.00 1243.51
  Q 756.00 1245.96 757.91 1244.42
  Q 772.94 1232.32 788.44 1219.97
  Q 793.92 1215.61 793.92 1208.50
  Q 794.00 1113.12 794.11 1017.75
  Q 794.14 993.04 793.75 983.00
  Q 792.22 943.57 761.99 919.00
  Q 736.58 898.34 704.04 900.22
  A 1.94 1.90 -1.4 0 0 702.21 902.11
  L 702.06 942.24
  A 1.68 1.65 6.9 0 0 703.35 943.85
  Z
  M 726.67 958.76
  Q 717.92 953.56 706.75 954.50
  Q 702.85 954.83 702.12 957.78
  Q 702.00 958.24 702.00 962.73
  Q 702.00 1121.24 701.84 1279.75
  Q 701.84 1281.65 702.15 1283.05
  A 0.76 0.76 66.2 0 0 703.33 1283.51
  Q 721.70 1270.67 739.82 1257.70
  Q 739.90 1257.64 742.40 1256.07
  Q 746.11 1253.73 746.91 1249.75
  Q 746.98 1249.39 747.03 1241.24
  Q 747.74 1121.37 746.30 1001.51
  Q 746.25 996.79 746.08 992.99
  Q 745.77 986.09 745.50 984.50
  Q 744.09 976.25 738.70 969.47
  Q 733.33 962.72 726.67 958.76
  Z
  M 293.43 1253.19
  L 334.76 1282.51
  Q 337.00 1284.10 337.00 1281.34
  Q 337.00 1121.83 337.00 962.15
  Q 337.00 962.05 337.09 959.85
  Q 337.16 957.94 336.71 956.60
  Q 336.06 954.71 334.05 954.73
  Q 325.99 954.85 319.23 956.68
  Q 303.68 960.88 297.21 973.80
  Q 294.01 980.21 292.76 992.69
  Q 291.78 1002.43 291.90 1012.24
  Q 292.00 1020.71 292.00 1020.76
  Q 291.95 1135.84 292.06 1250.54
  Q 292.06 1252.23 293.43 1253.19
  Z"
/>
<path fill="#b8a085" d="
  M 152.44 451.81
  Q 150.95 450.14 147.25 450.17
  Q 107.75 450.50 69.11 449.77
  Q 66.75 449.72 67.63 447.54
  Q 85.72 402.84 88.94 355.91
  Q 89.14 352.94 92.11 353.18
  Q 113.37 354.90 136.13 353.06
  A 4.73 4.70 24.6 0 0 138.47 352.20
  Q 140.75 350.56 139.44 347.81
  Q 138.36 345.56 135.06 345.52
  Q 115.44 345.30 95.82 345.25
  Q 95.75 345.25 94.19 345.35
  Q 90.73 345.58 90.50 341.50
  Q 88.67 308.37 86.76 275.45
  Q 86.62 272.99 89.08 273.00
  Q 109.78 273.05 129.88 272.95
  Q 132.76 272.93 133.81 272.15
  Q 135.71 270.74 134.52 267.35
  Q 133.53 264.51 130.56 264.48
  L 93.01 264.00
  Q 90.17 263.96 91.66 261.56
  L 118.95 217.67
  Q 119.98 216.01 121.97 216.00
  L 218.91 215.50
  Q 221.94 215.49 222.19 212.45
  Q 222.40 209.82 220.72 208.44
  Q 219.59 207.50 217.04 207.49
  Q 173.36 207.19 129.68 207.00
  Q 129.59 207.00 128.33 207.04
  Q 123.76 207.17 125.83 203.10
  Q 126.46 201.85 126.50 201.75
  Q 137.44 177.93 144.13 152.58
  Q 144.77 150.17 146.60 148.91
  Q 147.79 148.09 150.60 147.77
  Q 172.27 145.28 193.45 140.04
  Q 201.60 138.02 207.32 131.83
  Q 209.87 129.07 213.54 128.47
  Q 282.04 117.28 359.50 109.00
  Q 365.01 108.41 367.21 104.16
  Q 367.82 102.98 369.34 96.10
  Q 373.80 75.93 378.42 56.08
  Q 378.91 54.00 381.04 54.00
  Q 388.76 54.00 395.93 54.00
  Q 398.32 54.00 399.42 53.28
  Q 401.25 52.07 400.94 49.56
  Q 399.99 41.97 401.32 35.15
  Q 402.80 27.62 406.87 22.16
  Q 412.80 14.24 423.28 11.69
  Q 439.61 7.71 455.93 13.06
  Q 457.97 13.73 458.04 15.74
  L 458.94 40.97
  Q 459.05 44.16 455.77 44.25
  L 429.25 44.99
  A 1.87 1.44 20.4 0 0 428.34 45.27
  Q 425.57 47.20 426.71 49.93
  Q 427.45 51.70 429.44 52.26
  Q 431.08 52.73 433.25 52.75
  Q 447.50 52.90 461.24 53.24
  A 2.13 2.12 -10.6 0 1 463.16 54.55
  Q 469.42 69.83 478.60 82.36
  Q 480.21 84.55 480.25 87.24
  L 480.75 118.95
  Q 480.78 121.12 482.70 122.09
  Q 498.96 130.36 515.75 134.75
  Q 521.35 136.21 525.83 134.45
  Q 539.91 128.92 554.06 123.56
  Q 558.94 121.72 558.96 116.75
  Q 559.00 102.50 558.94 88.25
  Q 558.93 85.41 560.06 82.81
  Q 561.79 78.85 572.88 60.87
  Q 576.18 55.51 576.61 55.11
  Q 579.14 52.71 583.75 53.00
  Q 589.18 53.34 602.94 51.94
  Q 605.38 51.69 606.36 50.93
  Q 608.31 49.41 606.44 46.56
  Q 604.69 43.89 601.39 44.14
  Q 599.66 44.26 599.61 44.27
  Q 591.58 44.39 583.57 44.07
  Q 581.50 43.98 580.78 43.05
  Q 579.87 41.88 580.00 39.75
  Q 580.67 28.37 581.50 17.00
  Q 581.69 14.46 583.24 13.37
  Q 583.71 13.04 586.69 12.11
  Q 596.58 9.02 606.25 9.50
  Q 613.82 9.87 620.64 13.11
  Q 627.83 16.51 632.03 22.03
  Q 637.04 28.61 637.77 37.50
  Q 638.12 41.87 637.89 46.24
  Q 637.66 50.49 640.47 52.49
  Q 642.18 53.72 646.32 53.85
  Q 652.34 54.05 657.66 54.22
  Q 659.96 54.29 660.45 56.53
  Q 665.11 77.67 669.91 98.59
  Q 671.08 103.70 672.58 105.50
  Q 675.09 108.50 679.75 109.00
  Q 749.58 116.43 819.02 126.88
  Q 828.87 128.36 836.56 135.19
  Q 839.47 137.77 843.13 139.41
  Q 845.66 140.54 850.54 141.54
  Q 870.63 145.63 891.01 148.00
  Q 893.39 148.28 894.01 150.60
  Q 901.49 178.64 914.17 205.03
  Q 915.24 207.26 912.76 207.25
  Q 891.45 207.13 870.15 207.39
  Q 865.99 207.44 853.84 207.37
  Q 845.68 207.33 837.51 207.62
  Q 835.07 207.70 834.08 208.52
  Q 832.55 209.78 832.83 212.34
  Q 833.18 215.48 836.33 215.50
  L 916.82 216.00
  Q 919.05 216.01 920.21 217.88
  L 947.94 262.57
  Q 948.67 263.74 947.29 263.75
  Q 918.34 263.91 889.19 264.46
  Q 886.84 264.51 885.47 265.27
  Q 883.25 266.51 883.00 268.50
  Q 882.57 271.89 885.98 272.00
  Q 916.89 272.98 947.80 272.76
  Q 950.60 272.74 950.70 272.76
  Q 952.60 273.14 952.31 275.81
  Q 948.71 308.68 948.75 342.87
  Q 948.75 344.70 946.93 344.79
  Q 939.25 345.14 930.76 344.80
  Q 926.90 344.65 924.50 345.75
  Q 922.18 346.82 922.08 349.08
  Q 922.00 350.97 923.62 352.29
  Q 925.53 353.86 928.25 353.92
  Q 937.76 354.14 948.09 353.44
  A 1.60 1.59 85.8 0 1 949.78 354.90
  Q 953.85 403.14 970.97 448.91
  A 1.22 1.22 -16.2 0 1 970.07 450.54
  Q 968.39 450.87 966.50 450.79
  Q 922.80 449.02 890.25 450.50
  Q 887.95 450.60 886.78 452.57
  Q 885.73 454.34 886.73 456.07
  Q 887.45 457.31 888.75 458.00
  Q 889.69 458.50 891.36 458.51
  Q 958.80 459.06 1026.02 459.25
  A 1.74 1.73 90.0 0 1 1027.75 460.99
  Q 1027.75 479.00 1027.88 497.00
  Q 1028.37 564.00 1027.76 630.18
  A 1.84 1.83 -89.7 0 1 1025.93 632.00
  L 807.12 631.75
  Q 805.26 631.75 805.25 629.88
  Q 804.85 555.50 805.00 480.75
  Q 805.04 458.33 803.61 432.99
  Q 802.96 421.37 801.85 413.07
  Q 796.39 372.30 779.50 335.75
  Q 744.73 260.52 676.31 214.94
  Q 617.68 175.87 547.21 169.49
  Q 537.29 168.59 527.27 168.27
  Q 448.60 165.77 379.94 204.70
  Q 345.26 224.36 317.15 252.66
  Q 253.18 317.07 238.00 407.00
  Q 235.53 421.64 234.71 445.50
  Q 233.79 472.12 233.85 498.75
  Q 234.00 563.63 234.00 629.98
  A 1.76 1.76 -1.4 0 1 232.32 631.74
  Q 221.60 632.22 209.75 632.21
  Q 113.31 632.10 16.88 631.75
  Q 16.76 631.75 15.14 631.85
  Q 11.00 632.09 11.00 627.25
  Q 11.00 547.63 11.00 468.00
  Q 11.00 463.42 11.70 460.30
  A 0.88 0.86 87.8 0 1 12.28 459.66
  Q 14.58 458.95 17.00 458.97
  Q 82.88 459.27 148.76 458.50
  Q 151.44 458.47 152.88 456.21
  Q 154.32 453.94 152.44 451.81
  Z
  M 839.9402 170.4356
  A 4.36 4.36 0.0 0 0 835.5878 166.0680
  L 757.6479 165.9320
  A 4.36 4.36 0.0 0 0 753.2803 170.2844
  L 753.2798 170.5844
  A 4.36 4.36 0.0 0 0 757.6322 174.9520
  L 835.5721 175.0880
  A 4.36 4.36 0.0 0 0 839.9397 170.7356
  L 839.9402 170.4356
  Z
  M 353.78 172.09
  A 4.09 4.09 0.0 0 0 349.69 168.00
  L 278.09 168.00
  A 4.09 4.09 0.0 0 0 274.00 172.09
  L 274.00 172.91
  A 4.09 4.09 0.0 0 0 278.09 177.00
  L 349.69 177.00
  A 4.09 4.09 0.0 0 0 353.78 172.91
  L 353.78 172.09
  Z"
/>
<rect fill="#010101" x="-43.33" y="-4.51" transform="translate(796.61,170.51) rotate(0.1)" width="86.66" height="9.02" rx="4.36"/>
<rect fill="#010101" x="274.00" y="168.00" width="79.78" height="9.00" rx="4.09"/>
<path fill="#8a4d35" d="
  M 751.55 393.83
  Q 754.68 394.61 759.56 393.56
  Q 771.02 391.10 782.48 388.64
  Q 784.59 388.19 786.21 388.24
  A 2.12 2.12 83.5 0 1 788.21 389.83
  Q 795.40 418.01 795.94 446.94
  Q 795.99 449.97 792.75 449.98
  Q 779.25 450.00 765.75 450.02
  Q 762.38 450.03 759.55 451.82
  Q 757.72 452.98 758.81 454.85
  Q 759.80 456.56 761.53 457.41
  Q 762.66 457.97 765.06 458.11
  Q 779.34 458.95 792.64 459.69
  Q 795.43 459.84 795.43 462.64
  Q 795.59 544.91 796.07 625.75
  Q 796.09 628.26 795.76 630.64
  A 1.27 1.27 3.1 0 1 794.52 631.75
  Q 766.75 632.19 739.00 632.00
  Q 735.57 631.98 733.93 631.67
  A 0.74 0.73 89.9 0 1 733.34 631.07
  Q 733.00 629.18 733.00 625.75
  Q 733.00 564.38 733.22 503.00
  Q 733.35 468.71 732.00 442.50
  Q 731.69 436.51 730.63 426.32
  Q 729.67 417.11 728.34 410.26
  Q 715.75 345.74 668.03 299.97
  Q 624.75 258.46 566.75 245.75
  Q 534.74 238.73 501.27 241.33
  Q 491.19 242.11 481.42 243.84
  Q 416.93 255.25 369.31 302.06
  Q 317.57 352.94 308.00 424.50
  Q 306.91 432.65 306.63 446.25
  Q 306.13 471.12 306.09 496.00
  Q 306.00 562.50 306.00 629.90
  Q 306.00 631.74 304.16 631.77
  Q 276.74 632.18 248.27 632.01
  Q 248.17 632.01 246.24 632.13
  Q 243.41 632.32 243.02 629.92
  Q 243.00 629.84 243.00 626.56
  Q 242.87 543.78 243.25 460.99
  A 1.77 1.76 -1.6 0 1 244.91 459.24
  Q 257.87 458.47 271.00 458.92
  Q 277.77 459.16 280.58 454.60
  Q 282.73 451.09 278.62 451.06
  Q 262.64 450.94 246.85 450.09
  Q 244.71 449.97 243.87 449.21
  Q 242.74 448.20 242.91 446.37
  Q 243.02 445.18 243.02 445.12
  Q 243.86 421.56 248.63 398.48
  Q 249.65 393.55 250.89 390.03
  Q 251.86 387.24 254.83 387.95
  L 282.68 394.68
  Q 284.79 395.19 286.92 394.19
  Q 290.31 392.61 288.10 389.41
  Q 286.46 387.05 283.73 386.42
  Q 281.87 385.99 281.78 385.96
  Q 269.17 382.18 256.33 378.37
  Q 254.27 377.76 254.85 375.69
  Q 262.60 347.77 277.21 322.13
  Q 278.33 320.16 280.31 321.27
  Q 292.84 328.32 305.67 335.61
  Q 308.30 337.10 309.63 337.40
  Q 313.84 338.31 312.65 332.57
  Q 311.82 328.54 308.26 326.53
  Q 297.87 320.63 287.44 314.81
  Q 282.27 311.93 285.44 306.99
  Q 300.08 284.16 318.82 264.55
  Q 320.20 263.11 322.00 263.96
  Q 324.31 265.05 326.39 267.11
  Q 341.59 282.16 346.00 286.25
  Q 349.60 289.58 350.44 284.69
  Q 351.72 277.25 346.11 272.38
  Q 338.03 265.37 330.36 257.89
  Q 327.56 255.17 330.49 252.49
  Q 350.71 234.04 373.78 219.30
  Q 377.10 217.19 379.05 220.40
  Q 386.28 232.31 393.83 244.03
  Q 395.22 246.18 397.06 246.99
  Q 401.74 249.03 400.99 243.93
  Q 400.76 242.36 399.81 240.03
  Q 395.38 229.11 387.06 215.94
  Q 384.96 212.61 388.80 210.60
  Q 412.14 198.39 437.07 189.98
  Q 440.15 188.94 441.52 189.20
  Q 444.06 189.69 445.06 192.94
  Q 449.31 206.71 453.57 220.48
  Q 454.47 223.39 456.97 223.48
  Q 459.05 223.55 460.21 221.66
  Q 461.46 219.63 460.75 217.25
  Q 456.40 202.65 453.34 188.19
  Q 452.90 186.07 454.98 185.50
  Q 482.53 178.00 511.07 177.75
  Q 511.16 177.75 512.42 177.66
  Q 515.18 177.45 515.18 180.50
  Q 515.15 194.95 515.08 209.40
  Q 515.06 212.25 516.37 213.54
  Q 518.79 215.92 522.50 213.00
  Q 525.04 211.00 524.77 206.51
  Q 524.07 194.73 524.00 182.92
  Q 524.00 182.84 523.89 181.09
  Q 523.65 177.27 527.55 177.61
  Q 529.35 177.78 529.46 177.78
  Q 556.31 178.65 582.40 184.97
  Q 582.54 185.00 584.24 185.24
  Q 586.63 185.58 585.83 188.10
  Q 585.41 189.44 585.38 189.54
  Q 582.92 199.57 580.45 209.59
  Q 580.45 209.61 579.20 213.74
  Q 577.93 217.91 579.00 221.25
  Q 580.30 225.28 584.06 222.81
  Q 586.21 221.40 587.42 217.25
  Q 591.34 203.82 594.75 190.24
  Q 595.38 187.75 597.76 188.69
  Q 624.02 199.01 650.29 210.24
  Q 653.87 211.77 651.91 215.36
  Q 644.87 228.21 637.75 241.00
  Q 636.34 243.53 637.65 245.37
  Q 638.73 246.88 640.97 247.04
  Q 644.80 247.32 646.82 243.57
  Q 653.08 231.97 659.35 220.39
  Q 661.23 216.93 664.68 219.07
  Q 688.02 233.48 708.35 251.90
  Q 709.93 253.34 709.82 255.26
  Q 709.74 256.63 708.26 258.17
  Q 701.36 265.33 693.78 271.78
  Q 691.57 273.67 689.61 275.82
  Q 687.94 277.66 687.50 279.12
  Q 686.82 281.40 688.11 283.26
  Q 689.63 285.43 692.13 285.49
  Q 694.58 285.55 696.81 283.31
  Q 706.29 273.79 715.81 264.31
  Q 717.26 262.87 719.09 263.56
  Q 720.11 263.94 721.47 265.46
  Q 740.00 286.05 754.49 309.25
  Q 756.13 311.88 753.45 313.43
  Q 741.36 320.42 729.44 327.69
  Q 726.22 329.65 726.01 333.50
  A 1.24 1.21 -65.6 0 0 726.33 334.38
  Q 728.35 336.58 731.10 336.48
  Q 732.73 336.42 735.65 334.83
  Q 747.50 328.35 759.32 321.81
  A 1.83 1.83 59.6 0 1 761.77 322.45
  Q 777.25 347.38 783.50 376.27
  A 1.85 1.85 75.3 0 1 782.24 378.43
  Q 769.28 382.39 756.47 386.11
  Q 753.14 387.08 752.05 388.26
  Q 750.29 390.16 750.94 393.20
  A 0.84 0.83 1.2 0 0 751.55 393.83
  Z"
/>
<path fill="#b8a085" d="
  M 316.37 631.80
  A 1.07 1.06 84.4 0 1 315.36 630.96
  Q 315.06 629.55 315.06 627.75
  Q 315.00 566.62 315.00 505.50
  Q 315.00 465.75 315.92 444.50
  Q 317.95 397.81 339.45 357.04
  Q 344.06 348.30 349.77 339.93
  Q 379.89 295.83 426.94 271.69
  Q 472.21 248.46 524.82 249.77
  Q 584.96 251.26 633.56 284.94
  Q 664.10 306.09 686.23 336.59
  Q 692.27 344.91 697.13 353.35
  Q 716.89 387.63 721.75 426.75
  Q 723.78 443.09 723.82 462.50
  Q 724.01 545.75 724.00 629.71
  Q 724.00 631.72 721.98 631.78
  Q 700.12 632.37 678.38 631.78
  Q 676.07 631.72 676.07 629.41
  Q 675.96 567.44 675.99 506.74
  Q 675.99 506.66 676.11 488.25
  Q 676.30 458.78 674.25 433.75
  Q 673.65 426.48 671.82 417.66
  Q 670.10 409.42 667.57 402.00
  Q 656.12 368.42 631.02 343.62
  Q 623.92 336.60 616.05 330.36
  Q 584.56 305.38 544.50 299.50
  Q 525.49 296.71 505.51 298.11
  Q 494.96 298.85 485.71 300.80
  Q 452.06 307.89 423.31 330.06
  Q 387.75 357.49 372.31 399.31
  Q 366.70 414.51 365.00 431.50
  Q 362.78 453.64 362.93 483.84
  Q 363.00 499.08 363.00 499.16
  Q 363.01 560.71 363.12 622.25
  Q 363.13 626.13 362.69 630.65
  A 1.23 1.23 -87.6 0 1 361.49 631.76
  Q 339.47 632.32 316.37 631.80
  Z"
/>
<path fill="#8a4d35" d="
  M 373.31 631.34
  A 1.37 1.36 -83.8 0 1 372.25 630.02
  Q 371.63 546.25 372.25 462.50
  Q 372.35 448.98 374.42 431.92
  Q 375.81 420.47 378.06 412.27
  Q 389.06 372.07 422.06 343.31
  Q 455.51 314.17 498.06 307.56
  Q 534.84 301.86 569.94 315.01
  Q 579.11 318.44 588.07 323.41
  Q 621.20 341.78 642.25 372.50
  Q 663.17 403.03 665.50 441.75
  Q 667.16 469.34 667.05 487.98
  Q 667.00 496.45 667.00 496.53
  Q 667.00 559.76 667.13 623.00
  Q 667.14 626.76 666.75 630.52
  A 1.31 1.31 2.0 0 1 665.49 631.69
  Q 663.47 631.78 661.25 631.76
  Q 643.81 631.60 626.36 631.74
  Q 626.30 631.74 624.65 631.85
  Q 621.00 632.10 621.00 628.25
  Q 621.00 559.25 621.00 490.25
  Q 621.00 462.95 620.52 450.00
  Q 619.62 425.69 608.18 404.31
  Q 594.11 378.01 567.59 364.38
  Q 542.34 351.41 514.47 352.44
  Q 504.43 352.81 494.71 355.28
  Q 469.18 361.73 449.87 379.47
  Q 442.41 386.32 436.56 394.37
  Q 427.48 406.87 423.25 420.50
  Q 419.42 432.84 418.65 449.75
  Q 417.69 470.74 417.77 491.75
  Q 418.00 557.12 418.12 622.50
  Q 418.13 626.38 417.72 630.53
  A 1.35 1.34 1.9 0 1 416.41 631.75
  Q 399.88 632.16 383.26 632.01
  Q 383.19 632.01 380.25 632.06
  Q 376.70 632.12 373.31 631.34
  Z"
/>
<path fill="#ffffff" d="
  M 428.42 636.81
  A 1.21 1.21 86.8 0 1 427.22 635.73
  Q 426.83 632.01 426.83 628.00
  Q 426.82 543.62 427.25 459.25
  Q 427.27 454.73 427.81 446.08
  Q 428.28 438.54 429.63 433.06
  Q 435.40 409.76 451.06 392.56
  Q 467.22 374.82 491.34 366.14
  Q 522.09 355.06 551.69 367.56
  Q 567.29 374.15 581.14 385.84
  Q 606.12 406.92 610.75 439.50
  Q 611.22 442.78 611.56 454.65
  Q 611.75 461.02 611.79 469.84
  Q 612.17 551.73 612.00 634.83
  A 1.94 1.94 85.0 0 1 610.41 636.73
  Q 607.94 637.19 604.50 637.19
  Q 516.47 637.14 428.42 636.81
  Z"
/>
<path fill="#6ac2d3" d="
  M 328.16 890.83
  Q 305.08 891.24 283.25 903.50
  Q 262.82 914.98 250.22 934.73
  Q 240.40 950.14 238.22 968.33
  Q 237.82 971.72 237.41 975.10
  Q 237.00 978.51 236.95 981.91
  Q 235.29 1091.03 236.00 1200.15
  Q 236.00 1200.26 236.02 1201.35
  Q 236.17 1207.18 232.44 1203.58
  Q 231.24 1202.43 231.14 1202.33
  Q 133.64 1114.29 74.28 997.38
  Q 69.61 988.20 65.57 979.37
  Q 11.51 861.54 11.13 731.00
  Q 11.00 687.37 10.94 643.75
  Q 10.94 640.80 13.72 640.95
  Q 14.71 641.00 14.79 641.00
  Q 516.77 641.00 1018.75 640.87
  Q 1022.63 640.87 1026.74 641.27
  A 1.13 1.12 -87.7 0 1 1027.75 642.37
  Q 1028.57 680.32 1027.92 718.37
  Q 1027.91 718.59 1027.67 735.63
  Q 1027.17 770.90 1023.75 801.25
  Q 1013.39 893.31 974.41 978.87
  Q 970.38 987.71 965.73 996.88
  Q 910.08 1106.59 820.21 1190.96
  Q 813.44 1197.31 807.03 1204.03
  Q 802.66 1208.61 802.74 1201.75
  Q 802.82 1194.50 802.84 1187.25
  Q 803.00 1104.88 803.00 1022.50
  Q 803.00 996.98 801.62 977.96
  Q 800.74 965.87 798.72 958.21
  Q 790.90 928.48 764.56 909.44
  Q 746.49 896.37 726.01 892.59
  Q 721.68 891.79 714.95 891.36
  Q 709.20 890.99 703.83 890.78
  Q 701.99 890.71 702.00 888.87
  Q 702.18 825.87 701.73 764.25
  Q 701.50 732.39 681.69 707.81
  Q 661.58 682.87 630.09 675.75
  Q 620.43 673.57 610.27 673.53
  Q 574.49 673.39 547.62 696.25
  Q 539.93 702.79 533.81 710.65
  Q 525.40 721.45 519.93 734.20
  Q 519.06 736.23 518.21 734.20
  Q 514.47 725.28 509.34 717.03
  Q 504.11 708.63 497.56 701.85
  Q 469.35 672.63 427.25 674.00
  Q 406.92 674.66 387.91 683.64
  Q 378.37 688.15 370.95 694.15
  Q 356.88 705.51 348.45 722.01
  Q 340.51 737.55 338.50 754.00
  Q 337.16 764.97 337.13 779.00
  Q 337.00 833.25 337.00 888.75
  Q 337.00 890.52 335.27 890.88
  Q 333.72 891.20 331.70 891.04
  Q 328.99 890.81 328.16 890.83
  Z"
/>
<path fill="#6ac2d3" d="
  M 613.94 728.06
  Q 604.40 727.08 593.28 730.34
  Q 574.95 735.72 567.56 752.56
  Q 564.14 760.36 563.29 770.75
  Q 561.83 788.43 561.94 806.16
  Q 562.00 815.79 562.00 815.85
  Q 562.00 1087.55 562.00 1359.40
  Q 562.00 1362.12 559.54 1363.23
  L 527.18 1377.92
  Q 524.00 1379.36 524.00 1375.87
  Q 524.00 1157.63 524.00 939.50
  Q 524.00 930.20 523.93 919.49
  Q 523.46 847.75 523.93 776.00
  Q 524.02 762.48 524.99 756.05
  Q 528.72 731.33 544.81 712.56
  Q 563.93 690.27 594.00 684.00
  Q 619.89 678.60 643.15 690.21
  Q 651.75 694.51 660.08 700.81
  Q 690.35 723.72 693.00 763.75
  Q 693.54 771.92 693.46 809.00
  Q 692.96 1048.50 693.00 1288.00
  Q 693.00 1289.99 691.45 1291.32
  Q 691.26 1291.48 688.52 1293.16
  Q 672.41 1303.00 656.09 1312.95
  Q 654.81 1313.73 654.81 1312.23
  Q 654.70 1253.84 654.75 1194.75
  Q 654.76 1186.67 654.76 1183.00
  Q 655.00 990.25 655.22 797.50
  Q 655.23 785.87 654.25 772.00
  Q 653.83 766.03 652.53 760.59
  Q 651.16 754.86 648.34 749.94
  Q 637.17 730.44 613.94 728.06
  Z"
/>
<path fill="#6ac2d3" d="
  M 348.44 1291.56
  Q 345.98 1289.87 345.98 1286.25
  Q 346.00 1072.25 345.88 858.25
  Q 345.85 818.37 346.19 778.50
  Q 346.27 769.39 346.94 760.31
  Q 347.72 749.62 349.83 742.40
  Q 354.99 724.67 367.44 711.19
  Q 380.77 696.75 399.94 688.94
  Q 430.47 676.50 460.19 688.31
  Q 478.06 695.41 492.48 710.76
  Q 510.14 729.54 512.75 755.00
  Q 513.84 765.59 513.84 778.50
  Q 513.93 1077.38 514.25 1376.27
  Q 514.25 1378.58 512.12 1377.70
  Q 496.42 1371.18 480.95 1363.84
  Q 478.54 1362.70 477.84 1361.24
  Q 477.00 1359.52 477.00 1357.00
  Q 477.00 1072.63 477.02 788.25
  Q 477.02 778.36 475.56 768.64
  Q 473.84 757.12 470.04 749.92
  Q 461.08 732.94 440.94 729.06
  Q 417.15 724.48 399.31 738.98
  Q 392.81 744.26 389.20 750.81
  Q 385.20 758.06 384.50 766.00
  Q 383.78 774.16 383.88 787.81
  Q 384.00 803.62 384.00 803.68
  Q 384.00 1056.03 384.00 1308.39
  Q 384.00 1308.47 384.06 1310.10
  Q 384.21 1314.54 380.84 1312.24
  Q 379.05 1311.02 378.96 1310.97
  Q 359.63 1299.28 348.44 1291.56
  Z"
/>
<path fill="#6ac2d3" d="
  M 632.31 745.94
  Q 640.29 752.73 643.63 761.92
  Q 645.53 767.15 645.77 776.83
  Q 646.00 786.03 646.00 800.50
  Q 646.00 1058.00 646.00 1315.50
  Q 646.00 1318.96 643.32 1320.34
  Q 608.45 1338.33 572.82 1356.69
  A 1.15 1.15 70.9 0 1 571.16 1355.88
  Q 570.81 1354.00 570.81 1351.25
  Q 570.84 1017.75 571.25 776.00
  Q 571.27 765.01 576.43 755.96
  Q 580.84 748.22 588.38 743.27
  Q 596.03 738.24 605.24 737.08
  Q 612.80 736.12 619.56 738.50
  Q 626.40 740.90 632.31 745.94
  Z"
/>
<path fill="#6ac2d3" d="
  M 394.58 1319.75
  Q 393.00 1318.94 393.00 1317.13
  Q 393.00 1052.37 393.02 787.50
  Q 393.02 781.74 393.35 775.99
  Q 393.73 769.12 394.90 764.62
  Q 401.26 740.22 427.75 737.00
  Q 439.98 735.51 450.55 743.25
  Q 463.86 752.97 466.87 768.06
  Q 467.74 772.43 467.76 788.00
  Q 468.11 1071.50 468.00 1355.01
  Q 468.00 1357.82 465.52 1356.54
  L 394.58 1319.75
  Z"
/>
<path fill="#6ac2d3" d="
  M 291.64 964.88
  Q 285.61 974.01 284.25 985.25
  Q 282.82 997.01 282.94 1009.63
  Q 283.00 1016.76 283.00 1016.88
  Q 283.00 1128.44 283.16 1240.00
  Q 283.16 1241.90 282.70 1243.99
  A 0.35 0.35 22.8 0 1 282.16 1244.21
  Q 262.47 1231.09 246.05 1214.43
  A 2.78 2.77 -67.4 0 1 245.25 1212.48
  Q 244.71 1099.88 244.79 987.00
  Q 244.81 959.32 260.41 936.69
  Q 273.10 918.29 292.06 909.31
  Q 309.92 900.86 331.00 900.00
  Q 337.21 899.75 337.19 905.75
  Q 337.14 924.13 336.74 942.80
  Q 336.70 944.75 334.75 944.75
  Q 327.47 944.74 320.32 946.11
  Q 311.29 947.83 303.88 952.65
  Q 296.57 957.41 291.64 964.88
  Z"
/>
<path fill="#6ac2d3" d="
  M 703.35 943.85
  A 1.68 1.65 6.9 0 1 702.06 942.24
  L 702.21 902.11
  A 1.94 1.90 -1.4 0 1 704.04 900.22
  Q 736.58 898.34 761.99 919.00
  Q 792.22 943.57 793.75 983.00
  Q 794.14 993.04 794.11 1017.75
  Q 794.00 1113.12 793.92 1208.50
  Q 793.92 1215.61 788.44 1219.97
  Q 772.94 1232.32 757.91 1244.42
  Q 756.00 1245.96 756.00 1243.51
  Q 756.00 1132.50 756.00 1022.00
  Q 756.00 1017.42 755.50 1001.75
  Q 755.23 993.14 754.73 986.72
  Q 754.05 977.81 751.75 972.09
  Q 746.92 960.11 736.13 953.08
  Q 730.42 949.36 722.78 947.13
  Q 715.70 945.07 708.24 944.58
  Q 705.68 944.41 703.35 943.85
  Z"
/>
<path fill="#6ac2d3" d="
  M 738.70 969.47
  Q 744.09 976.25 745.50 984.50
  Q 745.77 986.09 746.08 992.99
  Q 746.25 996.79 746.30 1001.51
  Q 747.74 1121.37 747.03 1241.24
  Q 746.98 1249.39 746.91 1249.75
  Q 746.11 1253.73 742.40 1256.07
  Q 739.90 1257.64 739.82 1257.70
  Q 721.70 1270.67 703.33 1283.51
  A 0.76 0.76 66.2 0 1 702.15 1283.05
  Q 701.84 1281.65 701.84 1279.75
  Q 702.00 1121.24 702.00 962.73
  Q 702.00 958.24 702.12 957.78
  Q 702.85 954.83 706.75 954.50
  Q 717.92 953.56 726.67 958.76
  Q 733.33 962.72 738.70 969.47
  Z"
/>
<path fill="#6ac2d3" d="
  M 293.43 1253.19
  Q 292.06 1252.23 292.06 1250.54
  Q 291.95 1135.84 292.00 1020.76
  Q 292.00 1020.71 291.90 1012.24
  Q 291.78 1002.43 292.76 992.69
  Q 294.01 980.21 297.21 973.80
  Q 303.68 960.88 319.23 956.68
  Q 325.99 954.85 334.05 954.73
  Q 336.06 954.71 336.71 956.60
  Q 337.16 957.94 337.09 959.85
  Q 337.00 962.05 337.00 962.15
  Q 337.00 1121.83 337.00 1281.34
  Q 337.00 1284.10 334.76 1282.51
  L 293.43 1253.19
  Z"
/>
<path fill="#000000" d="
  M 280.31 1475.94
  Q 282.51 1477.66 284.58 1480.02
  Q 286.40 1482.10 287.92 1484.85
  Q 291.53 1491.40 293.48 1498.57
  Q 295.05 1504.32 296.40 1512.97
  Q 298.93 1529.14 296.19 1546.19
  Q 294.34 1557.69 289.73 1567.61
  Q 285.11 1577.53 278.65 1582.78
  Q 270.82 1589.15 260.46 1590.05
  Q 251.90 1590.80 245.12 1588.97
  Q 237.74 1586.99 231.31 1581.19
  Q 225.49 1575.93 221.93 1570.16
  Q 218.89 1565.21 216.66 1556.90
  Q 211.37 1537.24 214.05 1516.76
  Q 216.45 1498.38 224.31 1484.56
  Q 229.92 1474.70 239.98 1470.33
  Q 249.08 1466.37 259.54 1467.44
  Q 270.92 1468.60 280.31 1475.94
  Z
  M 262.91 1482.58
  Q 254.13 1479.11 245.72 1483.51
  Q 240.72 1486.12 237.67 1490.97
  Q 234.79 1495.56 233.44 1501.44
  Q 229.83 1517.06 229.55 1530.75
  Q 229.31 1542.71 231.75 1553.75
  Q 234.12 1564.49 241.91 1571.21
  Q 248.42 1576.82 255.25 1577.40
  Q 263.65 1578.12 269.95 1570.47
  Q 275.03 1564.30 277.06 1556.52
  Q 283.71 1531.04 278.25 1505.49
  Q 276.95 1499.36 276.30 1497.41
  Q 274.97 1493.33 272.46 1489.93
  Q 268.75 1484.89 262.91 1482.58
  Z"
/>
<path fill="#000000" d="
  M 529.49 1573.82
  Q 531.48 1575.34 534.25 1574.99
  Q 536.38 1574.71 537.59 1575.97
  Q 538.45 1576.88 538.36 1578.91
  Q 537.36 1601.53 538.00 1607.50
  Q 538.25 1609.88 537.26 1611.39
  Q 536.27 1612.89 534.13 1613.07
  Q 532.38 1613.21 530.82 1612.45
  Q 529.50 1611.80 528.54 1610.19
  Q 526.11 1606.13 525.96 1601.25
  Q 525.87 1598.40 525.45 1595.59
  Q 524.94 1592.27 523.17 1590.62
  Q 520.58 1588.21 516.64 1588.37
  Q 513.94 1588.48 513.84 1588.48
  Q 470.92 1587.80 428.03 1587.50
  Q 425.55 1587.48 425.50 1585.01
  Q 424.45 1537.26 424.90 1489.52
  Q 424.93 1487.04 424.54 1483.14
  Q 424.22 1479.95 424.22 1476.74
  Q 424.23 1472.58 425.59 1470.67
  Q 427.69 1467.73 432.23 1468.21
  Q 437.10 1468.73 438.19 1469.56
  Q 440.32 1471.19 440.13 1473.81
  Q 440.01 1475.66 440.01 1475.69
  Q 440.29 1524.34 440.99 1572.53
  A 1.75 1.75 89.5 0 0 442.74 1574.25
  L 466.72 1574.25
  A 1.28 1.28 -89.1 0 0 468.00 1573.01
  Q 469.33 1531.72 469.03 1490.42
  Q 469.01 1486.90 468.47 1482.11
  Q 467.76 1475.80 468.25 1473.75
  Q 469.70 1467.72 475.98 1468.23
  Q 480.40 1468.59 482.19 1469.56
  Q 484.31 1470.72 484.12 1473.53
  Q 484.00 1475.33 484.01 1475.49
  Q 484.26 1523.39 485.02 1572.39
  Q 485.05 1574.25 486.91 1574.25
  L 510.72 1574.25
  A 1.28 1.28 -89.1 0 0 512.00 1573.01
  Q 513.39 1530.64 512.97 1488.26
  Q 512.95 1485.80 512.44 1481.41
  Q 511.99 1477.46 512.25 1474.50
  Q 512.84 1467.77 520.00 1468.00
  Q 521.50 1468.05 525.50 1469.25
  Q 528.33 1470.10 528.12 1473.30
  Q 528.00 1475.11 528.00 1475.21
  Q 527.95 1523.07 528.06 1570.95
  Q 528.07 1572.74 529.49 1573.82
  Z"
/>
<path fill="#000000" d="
  M 677.17 1587.06
  Q 675.00 1586.40 675.00 1584.14
  L 675.00 1471.57
  A 2.28 2.28 -8.9 0 1 676.58 1469.40
  Q 679.83 1468.33 683.46 1468.66
  Q 686.83 1468.97 688.00 1469.51
  Q 690.26 1470.55 690.08 1473.67
  Q 689.99 1475.26 689.99 1475.34
  Q 689.86 1496.30 690.50 1517.26
  A 1.28 1.27 89.5 0 0 691.75 1518.50
  Q 707.81 1518.81 723.88 1518.93
  Q 725.89 1518.94 726.78 1518.14
  Q 728.01 1517.04 728.00 1515.00
  Q 727.91 1502.50 728.06 1472.32
  A 1.67 1.33 68.3 0 1 728.34 1471.40
  Q 730.00 1469.10 733.00 1468.99
  Q 736.08 1468.88 739.75 1469.75
  Q 742.31 1470.36 742.87 1472.42
  Q 743.00 1472.90 743.00 1476.11
  Q 743.00 1531.17 743.00 1585.81
  Q 743.00 1588.00 740.81 1588.00
  L 730.35 1588.00
  Q 728.27 1588.00 728.24 1585.92
  L 727.50 1533.75
  A 1.27 1.26 90.0 0 0 726.26 1532.50
  L 693.25 1532.01
  Q 690.00 1531.96 690.00 1535.23
  L 690.00 1584.02
  Q 690.00 1586.22 687.91 1586.87
  Q 682.35 1588.62 677.17 1587.06
  Z"
/>
<path fill="#000000" d="
  M 346.01 1511.86
  A 2.14 2.13 81.2 0 0 347.90 1513.25
  Q 356.13 1513.64 364.27 1514.55
  Q 373.95 1515.63 378.79 1518.15
  Q 387.64 1522.74 391.31 1532.44
  Q 397.44 1548.61 393.56 1564.56
  Q 391.72 1572.13 386.34 1577.50
  Q 381.76 1582.06 374.11 1584.89
  Q 366.98 1587.52 359.34 1587.98
  Q 358.96 1588.00 347.17 1588.00
  Q 341.08 1588.00 334.99 1588.00
  Q 334.92 1588.00 333.51 1588.09
  Q 330.00 1588.31 330.00 1584.25
  Q 330.00 1527.38 330.00 1471.09
  Q 330.00 1469.00 332.09 1469.00
  Q 356.09 1468.96 379.72 1469.05
  Q 382.26 1469.06 383.26 1470.23
  Q 384.24 1471.36 384.19 1473.07
  Q 384.18 1473.55 383.96 1475.95
  Q 383.64 1479.51 380.98 1481.29
  Q 379.23 1482.46 375.65 1482.29
  Q 362.53 1481.66 347.80 1482.34
  Q 345.29 1482.45 345.33 1484.97
  Q 345.48 1495.16 345.72 1506.37
  Q 345.72 1506.42 345.64 1509.11
  Q 345.59 1510.75 346.01 1511.86
  Z
  M 347.49 1574.03
  Q 351.14 1575.03 355.22 1574.91
  Q 359.49 1574.78 362.88 1574.07
  Q 369.70 1572.63 373.67 1567.36
  Q 376.81 1563.19 377.84 1556.56
  Q 378.75 1550.73 377.80 1544.74
  Q 375.57 1530.82 361.96 1527.69
  Q 355.44 1526.19 348.76 1526.03
  Q 345.00 1525.94 345.00 1529.25
  Q 345.00 1550.00 345.00 1570.76
  Q 345.00 1573.35 347.49 1574.03
  Z"
/>
<path fill="#000000" d="
  M 621.62 1497.75
  Q 621.76 1494.81 620.69 1497.55
  Q 604.46 1539.34 589.13 1579.07
  Q 587.03 1584.51 586.78 1584.86
  Q 584.93 1587.47 580.75 1588.00
  Q 576.93 1588.48 574.28 1588.34
  Q 570.72 1588.14 569.25 1587.54
  Q 566.69 1586.48 566.89 1583.03
  Q 567.00 1581.06 567.00 1580.96
  Q 567.00 1528.45 567.00 1475.94
  Q 567.00 1475.88 566.88 1474.07
  Q 566.72 1471.45 568.55 1470.14
  Q 569.79 1469.26 572.25 1469.09
  Q 576.32 1468.81 580.11 1470.12
  Q 582.01 1470.78 582.00 1472.77
  L 581.51 1560.74
  A 1.08 0.85 -75.7 0 0 581.88 1561.58
  Q 582.72 1562.20 582.94 1561.02
  Q 583.07 1560.31 583.18 1560.01
  Q 599.43 1516.28 615.75 1471.82
  Q 616.69 1469.25 619.43 1469.25
  Q 625.00 1469.25 631.75 1469.25
  Q 633.98 1469.25 635.13 1470.37
  Q 636.00 1471.21 636.00 1473.40
  Q 636.00 1528.96 636.00 1585.26
  Q 636.00 1587.22 634.10 1587.68
  Q 628.88 1588.96 623.64 1587.68
  Q 620.99 1587.03 621.00 1584.30
  Q 621.23 1549.50 621.27 1514.00
  Q 621.28 1505.15 621.62 1497.75
  Z"
/>
<path fill="#000000" d="
  M 772.69 1587.06
  Q 770.85 1586.27 770.53 1584.18
  Q 770.35 1583.02 770.96 1580.88
  Q 787.66 1521.29 800.56 1472.31
  Q 801.51 1468.72 805.00 1468.92
  Q 806.43 1469.00 806.49 1469.00
  Q 809.24 1469.00 811.99 1469.00
  Q 816.97 1469.00 817.49 1469.12
  Q 820.76 1469.90 821.81 1473.94
  Q 836.15 1528.92 850.31 1583.94
  Q 851.41 1588.19 847.25 1588.17
  Q 842.37 1588.15 838.05 1587.79
  Q 835.65 1587.60 835.00 1585.26
  L 828.00 1559.98
  A 2.06 2.04 -7.2 0 0 826.06 1558.49
  L 795.50 1558.00
  Q 792.62 1557.95 792.06 1560.56
  Q 789.76 1571.33 787.31 1582.06
  Q 786.81 1584.25 785.86 1585.56
  Q 784.99 1586.77 782.83 1587.42
  Q 777.34 1589.07 772.69 1587.06
  Z
  M 799.14 1544.11
  Q 808.36 1544.63 818.46 1544.51
  Q 818.56 1544.51 820.54 1544.60
  Q 824.06 1544.75 823.96 1541.93
  Q 823.94 1541.54 823.09 1537.95
  Q 817.50 1514.43 811.81 1490.94
  Q 811.45 1489.42 810.97 1488.57
  Q 810.14 1487.08 809.75 1488.74
  L 797.49 1541.93
  Q 797.01 1544.00 799.14 1544.11
  Z"
/>
<path fill="#000000" d="
  M 406.69 1825.81
  Q 398.82 1818.96 393.66 1807.71
  Q 377.73 1773.00 380.55 1734.75
  Q 382.16 1712.83 390.26 1692.70
  Q 394.47 1682.22 399.47 1675.01
  Q 416.65 1650.24 448.50 1647.00
  Q 480.26 1643.77 504.69 1663.90
  Q 506.43 1665.33 506.58 1666.60
  Q 506.78 1668.28 505.31 1670.06
  Q 499.23 1677.46 492.37 1685.34
  Q 490.81 1687.13 488.66 1686.12
  Q 483.29 1683.58 477.90 1680.89
  Q 470.56 1677.22 466.93 1676.20
  Q 447.84 1670.82 434.06 1686.06
  Q 428.68 1692.02 425.37 1699.86
  Q 422.85 1705.82 421.06 1715.40
  Q 417.17 1736.25 419.22 1757.34
  Q 420.32 1768.75 422.22 1777.10
  Q 424.86 1788.67 430.06 1797.69
  Q 436.23 1808.38 447.00 1813.00
  Q 451.24 1814.82 456.13 1815.08
  Q 460.34 1815.31 465.28 1814.08
  Q 473.12 1812.12 480.06 1807.81
  Q 485.02 1804.74 489.87 1801.92
  Q 492.04 1800.67 493.68 1802.55
  Q 499.49 1809.21 505.27 1815.89
  Q 507.59 1818.57 507.96 1820.13
  Q 508.42 1822.08 507.47 1823.92
  Q 506.83 1825.16 504.98 1826.57
  Q 498.00 1831.87 489.31 1836.31
  Q 476.27 1842.99 462.24 1844.41
  Q 452.52 1845.39 442.35 1843.33
  Q 422.08 1839.23 406.69 1825.81
  Z"
/>
<path fill="#000000" d="
  M 91.76 1765.80
  Q 77.59 1800.06 63.16 1835.07
  Q 62.05 1837.76 60.73 1839.75
  A 2.80 2.80 -73.2 0 1 58.40 1841.00
  L 25.81 1841.00
  Q 21.83 1841.00 23.55 1837.41
  Q 46.60 1789.36 69.50 1741.75
  Q 70.55 1739.57 70.02 1737.60
  Q 69.93 1737.28 68.29 1734.05
  Q 47.91 1693.87 27.40 1653.36
  Q 26.24 1651.08 28.79 1651.06
  Q 45.65 1650.91 62.72 1651.05
  Q 64.85 1651.06 65.90 1651.93
  Q 67.15 1652.96 67.94 1654.81
  Q 79.97 1683.28 91.91 1711.54
  Q 93.45 1715.17 95.06 1711.58
  L 121.26 1652.98
  Q 122.14 1651.00 124.31 1651.00
  L 156.77 1651.00
  Q 160.21 1651.00 158.63 1654.05
  Q 138.17 1693.60 117.66 1733.27
  Q 117.61 1733.38 116.61 1735.03
  Q 115.01 1737.68 116.25 1740.25
  Q 139.60 1788.81 162.82 1837.45
  Q 164.00 1839.91 161.27 1840.05
  Q 146.96 1840.75 131.79 1840.75
  Q 128.45 1840.75 126.87 1839.91
  Q 124.52 1838.65 123.35 1835.92
  Q 108.37 1800.88 93.43 1765.80
  Q 92.58 1763.80 91.76 1765.80
  Z"
/>
<path fill="#000000" d="
  M 242.98 1790.59
  L 293.53 1652.65
  A 2.44 2.43 9.9 0 1 295.80 1651.06
  L 335.77 1651.00
  Q 338.00 1651.00 338.00 1653.24
  Q 338.00 1743.81 338.00 1834.86
  Q 338.00 1838.53 337.98 1838.63
  Q 337.48 1840.99 334.25 1841.00
  Q 319.66 1841.05 305.93 1840.94
  Q 303.87 1840.93 303.78 1838.87
  Q 300.70 1770.71 305.25 1703.25
  Q 305.32 1702.24 304.98 1701.83
  Q 304.62 1701.40 304.39 1702.04
  Q 280.19 1768.93 255.66 1835.71
  Q 254.41 1839.11 254.31 1839.26
  Q 253.17 1841.00 250.50 1841.00
  Q 231.50 1841.00 212.48 1841.00
  Q 209.00 1841.00 209.00 1837.52
  Q 209.03 1746.96 209.49 1655.69
  Q 209.50 1653.35 210.10 1652.44
  Q 211.02 1651.04 213.06 1651.17
  Q 214.38 1651.25 214.45 1651.25
  Q 227.98 1651.25 241.50 1651.25
  Q 243.89 1651.25 244.38 1653.22
  Q 244.46 1653.52 244.56 1656.28
  Q 246.95 1723.44 242.58 1790.51
  A 0.22 0.14 -90.0 0 0 242.74 1790.75
  L 242.84 1790.74
  A 0.27 0.14 -73.6 0 0 242.98 1790.59
  Z"
/>
<path fill="#000000" d="
  M 536.33 1840.82
  A 1.43 1.42 -81.4 0 1 535.00 1839.01
  Q 560.52 1746.09 586.56 1653.31
  Q 587.30 1650.67 590.28 1650.87
  Q 592.18 1651.00 592.23 1651.00
  Q 608.99 1651.00 625.75 1651.00
  Q 629.71 1651.00 629.73 1651.01
  Q 631.98 1651.47 632.75 1654.25
  Q 658.23 1746.26 683.75 1838.26
  Q 684.51 1841.00 681.67 1841.00
  L 647.53 1841.00
  A 1.51 1.51 77.2 0 1 646.17 1840.14
  Q 644.46 1836.49 643.64 1832.35
  Q 642.74 1827.80 642.71 1827.68
  Q 639.33 1813.22 636.00 1798.74
  A 1.61 1.60 -6.0 0 0 634.46 1797.50
  Q 612.95 1797.18 591.40 1797.02
  Q 585.45 1796.98 585.12 1797.05
  Q 581.50 1797.89 580.75 1802.75
  Q 579.59 1810.24 571.57 1840.21
  A 0.68 0.68 6.4 0 1 570.94 1840.71
  Q 553.44 1841.37 536.33 1840.82
  Z
  M 591.64 1768.33
  L 627.31 1768.45
  Q 629.53 1768.46 629.02 1766.27
  L 610.18 1684.55
  Q 609.87 1683.20 609.49 1684.53
  Q 597.96 1724.57 589.88 1766.14
  Q 589.45 1768.32 591.64 1768.33
  Z"
/>
<path fill="#000000" d="
  M 730.67 1840.61
  Q 728.00 1840.48 728.00 1837.81
  Q 728.00 1747.25 727.84 1657.25
  Q 727.84 1655.35 728.57 1652.06
  A 1.35 1.35 6.1 0 1 729.89 1651.00
  Q 754.00 1651.00 778.25 1650.99
  Q 790.09 1650.99 801.78 1652.82
  Q 817.72 1655.32 830.22 1664.46
  Q 838.76 1670.70 843.65 1679.05
  Q 850.61 1690.95 851.00 1706.00
  Q 851.26 1716.22 849.80 1725.33
  Q 848.16 1735.55 844.09 1743.67
  Q 834.69 1762.45 814.74 1769.30
  Q 807.10 1771.93 795.20 1773.51
  Q 782.08 1775.26 768.01 1774.48
  Q 765.74 1774.36 765.41 1776.61
  Q 765.07 1778.89 765.09 1782.25
  Q 765.26 1810.97 764.95 1838.70
  Q 764.92 1840.93 762.69 1840.97
  Q 745.33 1841.29 730.67 1840.61
  Z
  M 766.59 1746.21
  Q 768.86 1747.08 771.75 1747.13
  Q 778.32 1747.25 784.81 1746.48
  Q 792.86 1745.53 797.41 1743.40
  Q 805.69 1739.53 809.15 1731.06
  Q 811.28 1725.85 812.50 1717.85
  Q 813.55 1710.97 812.51 1704.07
  Q 811.41 1696.78 809.66 1692.94
  Q 807.14 1687.42 801.56 1684.19
  Q 787.31 1675.94 770.80 1678.15
  Q 767.26 1678.63 767.08 1678.70
  Q 765.00 1679.47 765.00 1682.50
  Q 765.00 1712.75 765.00 1743.92
  A 2.46 2.44 10.4 0 0 766.59 1746.21
  Z"
/>
<path fill="#000000" d="
  M 910.64 1754.62
  Q 901.13 1746.21 897.23 1734.74
  Q 894.66 1727.17 893.70 1715.08
  Q 892.64 1701.82 895.56 1690.31
  Q 900.31 1671.61 915.31 1662.06
  Q 926.78 1654.77 940.25 1652.72
  Q 951.43 1651.01 962.75 1651.01
  Q 987.50 1651.00 1012.25 1651.01
  Q 1015.36 1651.01 1015.92 1653.37
  Q 1016.00 1653.72 1016.00 1657.14
  Q 1016.00 1748.19 1016.00 1838.81
  Q 1016.00 1841.00 1013.81 1841.00
  L 982.98 1841.00
  Q 980.07 1841.00 980.06 1838.09
  Q 979.95 1806.34 980.01 1774.25
  Q 980.02 1769.19 975.00 1769.21
  Q 968.89 1769.24 962.78 1769.25
  Q 958.44 1769.25 958.23 1769.30
  Q 955.91 1769.78 955.04 1772.28
  Q 954.55 1773.69 954.49 1773.81
  Q 940.50 1806.76 926.64 1839.21
  Q 925.88 1841.00 923.93 1841.00
  Q 906.38 1841.00 889.50 1841.00
  Q 885.88 1841.00 887.47 1837.70
  Q 904.74 1801.84 921.94 1765.94
  Q 923.41 1762.86 920.56 1761.39
  Q 915.17 1758.63 910.64 1754.62
  Z
  M 938.69 1734.06
  Q 946.15 1740.16 956.50 1741.75
  Q 967.60 1743.45 976.75 1742.23
  Q 979.93 1741.80 979.94 1738.50
  Q 980.00 1710.37 979.79 1682.25
  Q 979.77 1678.95 977.00 1678.50
  Q 966.39 1676.77 955.52 1679.04
  Q 946.64 1680.90 941.61 1684.55
  Q 935.04 1689.32 932.75 1697.50
  Q 929.86 1707.82 932.08 1719.28
  Q 933.29 1725.50 933.89 1727.21
  Q 935.31 1731.31 938.69 1734.06
  Z"
/>
</svg>
