<svg version="1.2" xmlns="http://www.w3.org/2000/svg" viewBox="0 0 953 1592" width="953" height="1592">
	<title>Berkovitsa-pdf</title>
	<style>
		.s0 { fill: #231f20;stroke: #0b0c0b;stroke-width: .4 } 
		.s1 { fill: #00a650 } 
		.s2 { fill: #fff200 } 
		.s3 { fill: #231f20 } 
		.s4 { fill: #ffffff } 
		.s5 { fill: none;stroke: #231f20;stroke-width: .4 } 
		.s6 { fill: #53bd74 } 
		.s7 { fill: #231f20;stroke: #231f20;stroke-width: .4 } 
		.s8 { fill: #ed1c24 } 
		.s9 { fill: #9c1116 } 
	</style>
	<path id="Path 1" class="s0" d="m951.8 460.3v817.7c0 61.7-25.5 110.7-77.2 144.1-29.8 19.3-60.9 30.2-87.9 39.4-26.9 9.2-52.5 16.5-82 24.6-28.5 7.7-61.3 16.5-90.1 24.3-26.8 7.2-63.5 19.9-76.6 27.9-14.4 8.3-34.3 21.5-43 30.1-5.1 4.4-8.6 8.1-11.1 11-1.8 2.3-3.5 4.6-5 7.1l-2.4 4.1-0.3 0.5-0.3-0.5-2.4-4.1c-1.5-2.5-3.1-4.8-4.9-7.1-2.6-2.9-6.1-6.6-11.1-11-8.8-8.6-28.6-21.8-43-30.1-13.2-8-49.9-20.7-76.7-27.9-28.8-7.8-61.6-16.6-90.1-24.3-29.5-8.1-55-15.4-82-24.6-26.9-9.2-58-20.1-87.9-39.4-51.7-33.4-77.1-82.4-77.1-144.1v-817.7-23.3h951.1v23.3z"/>
	<path id="Path 2" class="s1" d="m687.9 1470l-2.8 0.7-2.8 0.8-2.8 0.7-2.8 0.8-2.8 0.8-2.9 0.7-2.8 0.8-2.9 0.8-5.7 1.5-2.9 0.8-2.9 0.8-2.8 0.8-2.9 0.7-5.8 1.6-5.7 1.5-2.9 0.8-5.6 1.5-2.9 0.8-2.8 0.7-2.8 0.8-2.7 0.7-2.8 0.8-2.7 0.7-2.7 0.7-2.7 0.8-2.7 0.7-2.7 0.8-2.8 0.8-2.9 0.8-2.8 0.9-2.9 0.9-2.9 0.9-2.8 0.9-2.9 0.9-2.9 1-2.9 0.9-2.9 1-2.8 1-2.8 1-2.8 1-2.8 1-2.7 1-2.7 1-2.6 1-2.6 1-2.5 1-2.4 1-2.4 1-2.3 1-2.3 1-2.1 1-2.1 1-2.1 1-2 1.1-1.9 1-1.5 0.9-1.3 0.8-1.5 0.8-1.5 0.9-1.6 1-1.5 0.9-1.6 1-1.6 1-1.6 1-1.6 1-1.6 1-1.6 1.1-1.7 1-1.6 1.1-1.6 1.1-1.6 1-3.1 2.2-1.6 1.1-1.5 1.1-1.6 1.1-1.5 1.1-1.4 1.1-1.5 1.1-1.4 1.1-1.4 1.1-0.3 0.2v-567.6h441.3v301l-0.1 5.2-0.2 5.1-0.3 5-0.5 4.9-0.6 4.8-0.7 4.7-0.9 4.6-0.9 4.5-1.1 4.4-1.3 4.4-1.3 4.3-1.5 4.2-1.6 4.1-1.7 4-1.9 4-2 3.8-2.1 3.8-2.2 3.8-2.4 3.7-2.5 3.6-2.6 3.5-2.8 3.5-2.9 3.4-3 3.3-3.2 3.3-3.3 3.2-3.5 3.1-3.6 3.1-3.8 3.1-3.9 2.9-4.1 2.9-4.3 2.9-2.5 1.5-2.6 1.6-2.5 1.6-2.6 1.5-2.6 1.4-2.6 1.5-2.6 1.3-2.6 1.4-2.6 1.3-2.6 1.3-2.6 1.3-2.6 1.2-2.6 1.2-2.6 1.2-2.7 1.1-2.6 1.1-2.6 1.1-2.6 1.1-2.6 1-2.7 1.1-2.6 1-2.6 1-2.6 0.9-2.6 1-2.6 0.9-2.5 1-2.6 0.9-2.6 0.9-2.5 0.9-2.6 0.8-2.5 0.9-2.5 0.9-2.5 0.8-2.4 0.8-2.5 0.8-2.4 0.8-2.5 0.8-2.4 0.8-2.5 0.8-2.4 0.8-2.4 0.8-2.5 0.7-4.9 1.5-2.4 0.8-2.5 0.7-2.4 0.8-2.5 0.7-2.5 0.7-2.5 0.8-2.5 0.7-2.5 0.7-2.5 0.8-2.6 0.7-5.1 1.4-2.6 0.8-2.6 0.7-2.6 0.7-2.7 0.8-2.6 0.7-2.7 0.7-2.7 0.8-2.8 0.7-2.6 0.8-3 0.8zm-200.1-513v-494.2h441.2v494.2zm-22.9 590.6l-0.4-0.3-1.4-1.1-1.4-1.1-1.5-1.1-1.4-1.1-1.5-1.1-1.5-1.1-1.6-1.1-1.6-1.1-1.5-1.1-1.6-1.1-1.6-1.1-1.6-1-1.6-1.1-1.6-1.1-1.7-1-1.6-1-1.6-1-1.6-1.1-1.6-0.9-1.5-1-1.6-1-1.6-0.9-1.5-0.9-1.5-0.9-1.3-0.7-1.5-0.9-1.9-1.1-2-1-2-1-2.1-1-2.2-1-2.3-1-2.3-1-2.4-1-2.4-1-2.5-1-2.6-1-2.6-1-2.7-1.1-2.7-1-2.8-1-2.7-1-2.9-0.9-2.8-1-2.9-1-2.9-1-2.9-0.9-2.8-0.9-2.9-0.9-2.9-0.9-2.9-0.9-2.8-0.9-2.8-0.8-2.8-0.8-2.8-0.8-2.7-0.8-2.6-0.7-2.8-0.7-2.7-0.7-2.8-0.8-2.7-0.7-2.8-0.8-2.8-0.7-2.9-0.8-2.8-0.8-2.8-0.7-2.9-0.8-5.7-1.5-2.9-0.8-5.7-1.6-2.9-0.7-2.9-0.8-5.7-1.6-2.9-0.7-2.9-0.8-2.8-0.8-2.9-0.8-2.8-0.7-2.8-0.8-2.8-0.7-2.8-0.8-2.8-0.7-5.2-1.5-2.9-0.8-2.7-0.7-2.7-0.7-2.8-0.8-2.7-0.7-2.6-0.8-2.7-0.7-2.6-0.7-2.6-0.8-2.6-0.7-2.6-0.7-2.5-0.7-2.6-0.8-2.5-0.7-5-1.4-2.5-0.8-2.5-0.7-2.4-0.8-2.5-0.7-2.5-0.7-2.4-0.8-2.5-0.7-2.4-0.8-2.5-0.8-2.4-0.7-2.4-0.8-2.5-0.8-2.4-0.8-2.5-0.8-2.4-0.8-2.4-0.8-2.5-0.8-2.5-0.9-2.5-0.8-2.5-0.9-2.6-0.9-2.5-0.9-2.6-0.9-2.5-0.9-2.6-0.9-2.6-0.9-2.6-1-2.6-0.9-2.6-1-2.6-1-2.6-1.1-2.7-1-2.6-1.1-2.6-1.1-2.6-1.1-2.6-1.1-2.7-1.2-2.6-1.2-2.6-1.3-2.6-1.2-2.6-1.3-2.6-1.3-2.6-1.4-2.6-1.4-2.6-1.4-2.6-1.5-2.6-1.5-2.5-1.5-2.6-1.6-2.5-1.6-4.3-2.8-4-2.9-4-3-3.7-3-3.7-3.1-3.5-3.1-3.3-3.2-3.2-3.3-3-3.4-2.9-3.4-2.8-3.4-2.6-3.6-2.5-3.6-2.4-3.6-2.2-3.8-2.1-3.8-2-3.9-1.9-3.9-1.7-4.1-1.6-4.1-1.5-4.1-1.3-4.3-1.2-4.4-1.1-4.4-1-4.6-0.9-4.6-0.7-4.7-0.6-4.8-0.4-4.8-0.4-5-0.2-5.1v-5.3-818h441.3z"/>
	<path id="Path 3" class="s2" d="m0.4 208.1h951.7v229.2h-951.7z"/>
	<path id="Path 4" class="s3" d="m259.5 582.2q0 0.2 0 0.5c34.3 96.7 34.8 99.5 52.2 145.8 18.7 12.3 18.7 12.3 26.1 16 0 0.9 0 2.1 0 3.2-5.8 0.2-11.6 0.5-17.4 0.8-0.8 48.8-1.5 97.7-0.3 146.5 0.3 1.2 0.8 2.3 1.3 3.4 28 10.8 56.1 21.8 84.3 32.7-0.2 1.3-0.2 2.6-0.2 4.1-7.7 0-15.3 0.1-22.9 0.3q0.3 234.5 0.5 469.1c-84.3 0.2-168.5 0.5-252.6 0.8 2.6-450.2 2.6-450.2 2.1-469.6-8.1 0.2-16.3 1.3-24-0.9-0.4-0.9-0.5-1.7-0.7-2.3 47.3-17.7 47.3-17.7 86.1-34.2q0.7-1.2 1.5-2.4c0.9-116.1 0.9-116.1 0.4-148.3-6.6-0.2-13.2-0.3-19.6-0.3 0-0.8 0-1.5 0-2.1 25.1-16.5 28.8-18.1 31.7-21 15.5-47.4 31-94.8 46.5-142q0-0.1-0.1-0.1h0.2v-4.4c-2.5-0.9-4.2-3.3-4.2-6.1 0-2.7 1.7-5.1 4.2-6v-3.5c-2.5-0.9-4.2-3.3-4.2-6.1 0-2.8 1.7-5.1 4.2-6.1v-2.8c-2.5-0.9-4.2-3.3-4.2-6.1 0-2.7 1.7-5.1 4.2-6v-15.5h4.7v15.5c2.4 1 4 3.3 4 6 0 2.7-1.6 5.1-4 6v3c2.4 1 4 3.3 4 6 0 2.7-1.6 5-4 6v3.6c2.4 1 4 3.3 4 6 0 2.8-1.6 5.1-4 6v4.5z"/>
	<path id="Path 5" class="s4" d="m146.5 1318.8h106.9v-74.6h-106.9v-72.4h106.9v-83h-106.9v-72.4h106.6v-80.6h9.2v80.6h104.1v72.4h-105v83h105v72.4h-105v74.6h105v72.3h-159.2v-41.9h-40.5v41.9h-20.2zm2.6-387.1c-0.8-1 2.1 0.6 1.5-0.2l65.4-29c-4.7 11.9-4.7 11.9-13.3 28.4zm98.3-0.6c-0.5-9.1-0.9-18.3-1.2-27.4 6.3 0.3 13.6-0.2 20 0.2 2 8.8 3.1 18.4 5.1 27.2-8.1 0-16 0-23.9 0zm79.8-0.1c-8.6-16.5-8.6-16.5-13.3-28.4l65.4 29c-0.6 0.7 2.3-0.9 1.5 0.1zm-44.2-125.9h28.2v82.8h-28.2zm0-53.2h28.2v42.2h-28.2zm-38.9 0h28.2v42.3h-28.2zm-39.3 0h28.2v42.3h-28.2zm68.9-24.9l-14.2-125.7 43.3 125.6zm396.1 292.2c13.9 0 26.8 11 37.1 25.6 10.4-14.6 23.3-25.6 37.3-25.6 33.9 0 61.7 51.4 61.7 114.1v106.2c0 26.1-4.8 50.2-12.9 69.5h-172.1c-8-19.3-12.8-43.4-12.8-69.5v-106.2c0-62.7 27.7-114.1 61.7-114.1z"/>
	<path id="Path 6" class="s5" d="m669.7 1019c13.9 0 26.7 11 37.1 25.5 10.4-14.5 23.3-25.5 37.2-25.5 34 0 61.8 51.3 61.8 114.1v106.2c0 26.1-4.8 50.2-12.9 69.5h-172.1c-8-19.3-12.8-43.4-12.8-69.5v-106.2c0-62.8 27.7-114.1 61.7-114.1z"/>
	<path id="Path 7" fill-rule="evenodd" class="s0" d="m670.2 1014.4c13.5 0 26.1 3.6 36.6 9.9 10.5-6.3 23.1-9.9 36.6-9.9 36 0 65.5 25.8 65.5 57.5v231.2h-18.6v-231.2c0-24.1-21.1-43.9-46.9-43.9-14.8 0-28 6.5-36.6 16.5-8.6-10-21.8-16.5-36.6-16.5-25.8 0-46.9 19.8-46.9 43.9v231.2h-18.6v-231.2c0-31.7 29.5-57.5 65.5-57.5zm174 329.8c-25.4 45.7-77.4 77.1-137.1 77.1-59.8 0-111.7-31.4-137.2-77.1zm-174.6-302.8c15.6 0 28.3 13.6 28.3 30.2v231.6h-18.6v-231.6c0-9.1-4.4-16.5-9.7-16.5-5.3 0-9.7 7.4-9.7 16.5v231.6h-18.6v-231.6c0-16.6 12.7-30.2 28.3-30.2zm102.8 30.2v231.6h-18.6v-231.6c0-9.1-4.4-16.5-9.7-16.5-5.4 0-9.7 7.4-9.7 16.5v231.6h-18.6v-231.6c0-16.6 12.7-30.2 28.3-30.2 15.5 0 28.3 13.6 28.3 30.2zm86.4 232c-1.6 8.9-4.1 17.5-7.5 25.8h-288.4c-3.4-8.3-5.9-16.9-7.5-25.8z"/>
	<path id="Path 8" class="s3" d="m684.2 923.4l7.5-126.4-6.8-1c-7 13.5-16.1 34.5-24.9 46.8-4.2 5.8-10.7 9.9-17.3 12.7-13 5.6-26.4 7.7-40.3 9.6 3.8-20-1-45 16.1-55.9l49-31.3 3.5-5.1c-31.9 6.2-63.4 29.3-96.7 24.6-21.4-3-37.6-19.3-53.5-33.9 9.9-12.4 23.5-25.6 37.9-32.3 34.9-16.2 68.5 4.5 104.1 16.1l2.7-3.1c-35.6-23.6-82.3-32.8-107.5-68.2-11.5-16.3-15.1-42.2-14.2-62 26.2-1.3 64.3 2.4 86 19.3 5.3 4.2 9.1 10.3 12.7 16.3 40.6 67.2 42.2 70 42.7 72.2 0.7 0 1.5 0 2.3 0-11-36.1-21.1-71.7-31-107.9-4.4-28.6-0.3-50 18.1-70.9l32.8-37.3c2.2 3.8 12.7 12 34.9 42.2 14.2 19.4 20 44.6 12.3 67.2l-36.8 107.9c0.6-0.3 1.5-0.7 2.3-1 16.8-27 31.9-55.2 50.7-80.8 9.3-12.5 17.1-20 33.1-24.2 19.3-5 38.5-4.5 58.5-4.2 0 29.1-2.3 52.7-21 75.4-4.3 5.3-12.6 10.3-18.8 13.3l-82.8 39.3c0 1 0.3 3.3 0.3 4.5 2.2-0.2 4.4-1.5 6.7-1.6 36.6-10.1 65.5-24.1 101.1-6.5 5.4 2.6 10.6 5.2 15.8 8.8 6.1 4.3 11.8 8.7 18.1 12.7-17.9 15-34 35.8-57.8 38.3-27.5 3-62.8-15.1-88.8-24l1.7 4.3 42.5 29.3c14.1 9.8 21.2 41.4 20 58.5-18.3-3.5-44.6-9.2-58.1-22.3-12.3-12-15.5-30.3-22.4-46.2-2.3 0-4.7 0.1-6.8 0.3q4.5 63.2 9 126.5c-12.3 0-24.3 0.4-36.9 0z"/>
	<path id="Path 9" class="s4" d="m707.9 514.2c8.5 7.8 14.5 14.8 24.5 28.7 4.5 6.3 11.7 16 15.8 26.3 5.1 12.4 6.6 25.8 4.7 35l-2.6 9.5-37.5 105.8zm-158.9 105c7.7-0.1 9.7-1.6 29.9 1 18.4 2.5 41.4 8.5 49.8 18.6l4.5 5.1 49.2 80.5zm308.2 0.2c-2.4 9.5-2.2 25.9-7.1 39.9-5.2 15-15.2 29.4-23.7 33.5l-85.1 40.9c36.4-32.8 79.5-81.5 115.9-114.3zm-329.3 143.4c11.9-12.4 33.3-36 62.8-33 12.8 0.8 17.5 3.1 27.9 6.2 12.5 3.8 27.8 10.8 40.4 14.6zm347.7-2.8c-9.1 6.1-21.1 21.5-37 28.5-12.3 5.5-22 6.8-34.5 3.7-12.7-1.8-22.5-6.8-32.9-10.2-12.7-4.1-19.3-7.7-31.5-12.4z"/>
	<path id="Path 10" class="s6" d="m742.8 309.9c0-0.3 0-0.6 0-1.1 0.3 0 0.6 0 1.1 0 0 0.3 0 0.6 0 1.1-0.3 0-0.6 0-1.1 0z"/>
	<path id="Path 11" fill-rule="evenodd" class="s7" d="m2.7 247h83.6l8.5 30.7-62.5-12.8v15.3c1 0.1 2.1 0.4 3.1 0.8 16.7 7.2 14.4 5.8 30.9 15.4 12.7 7.5 29.5 29.6 29.5 45.6 0 34.2-27 62.1-60.2 62.1l-5-0.1-27.9 0.1zm57.8 111.6l0.7-2.4 0.6-2.4 0.4-2.6 0.4-2.5 0.3-2.6 0.1-2.6 0.1-2.6v-0.7l-0.1-0.7-0.1-0.8-0.1-0.9-0.3-1.1-0.2-1.1-0.4-1.2-0.4-1.3-0.5-1.3-0.5-1.4-0.6-1.4-0.6-1.4-0.7-1.4-0.7-1.5-0.8-1.4-0.8-1.4-0.8-1.5-0.9-1.4-0.9-1.4-0.9-1.3-0.9-1.3-0.9-1.2-1-1.2-0.9-1.2-0.9-1-0.9-1-0.9-0.9-0.8-0.9-0.8-0.7-0.8-0.6-0.6-0.6-0.8-0.5-1.2-0.9-1.3-0.9-1.2-0.8-1.2-0.8-1-0.7-0.9-0.6-0.9-0.6-0.8-0.6-0.8-0.5-0.7-0.4-0.3-0.3 0.1 92.5 1.3-0.6 1.8-0.8 2-0.9 1.8-1 1.8-1.1 1.7-1.2 1.7-1.4 1.6-1.4 1.6-1.5 1.6-1.6 1.4-1.7 1.4-1.8 1.3-1.9 1.3-2 1.2-2 1.1-2.1 1-2.1 0.9-2.3 0.9-2.2z"/>
	<path id="Path 12" class="s7" d="m193.2 247c-23.5 14-42.1 38-46.1 66h46.8v28.8h-45.8c5.2 27.1 22.2 49.8 45.1 62.1h-29.7c-34.7-9.7-60.3-41.2-60.3-78.4 0-37.3 25.3-68.7 59.8-78.3z"/>
	<path id="Path 13" fill-rule="evenodd" class="s3" d="m206 404.2v-157.1c15.1-0.1 30.2-0.1 45.4-0.1 34.8 3.2 45.7 41.7 43.2 63.1-2.5 21.4-12.7 34.8-18.7 38.7-6.1 4-22.6 11.9-35 15 0 13.4 0 26.8 0 40.4-11.6-0.1-23.3-0.1-34.9 0zm34.8-58.7c12.9-4 22.6-21.3 22.6-41.9 0-20.6-9.7-37.9-22.6-41.9zm124.7-98.7l33.7 0.2c-5.7 11-10.6 22.5-17.2 33l-21.4 34.3q1.6 1.1 3.1 2.4c10.5 8.5 23.2 19.1 29.8 31.1 7.2 12.9 6.3 12.5 7.1 16.7 3.2 15.4 3.6 24.8 3.7 39.5h-31c-1.5-13.6 0.3-15.7-7.7-42.5-3.9-13.2-11.9-25.9-22.3-32v74.6h-33v-156.2h33v54.6z"/>
	<path id="Path 14" class="s5" d="m365.5 246.8l33.7 0.2c-5.7 11.1-10.6 22.5-17.2 33.1l-21.4 34.3q1.6 1.1 3.1 2.3c10.5 8.6 23.2 19.1 29.8 31.1 7.2 13 6.3 12.5 7.1 16.7 3.2 15.5 3.6 24.9 3.7 39.6h-31c-1.5-13.6 0.3-15.8-7.7-42.6-3.9-13.1-11.9-25.8-22.3-31.9v74.5h-33v-156.1h33v54.6z"/>
	<path id="Path 15" fill-rule="evenodd" class="s7" d="m477.4 247c21.2 16.4 36.7 43.5 36.7 76.9 0 33.3-15.6 64.7-38.7 80.3h-28.5c-23-15.6-38.7-47-38.7-80.3 0-33.4 16.3-60.5 37.8-76.9zm6.6 74.9c0-27.7-9.2-48.9-22.2-57.4-13.1 8.5-22.3 29.7-22.3 57.4 0 27.7 9.2 54.1 22.3 64.3 13-10.2 22.2-36.6 22.2-64.3z"/>
	<path id="Path 16" fill-rule="evenodd" class="s7" d="m524.8 247.3h32.4v0.1c31.9 0.8 57.6 18.1 57.6 39.3 0 14.6-12.3 27.4-30.5 34.2 19.5 7.1 33.1 22.1 33.1 39.4 0 24.1-26.3 43.8-58.6 43.8q-0.8 0-1.6 0v0.2h-32.4zm32.4 91.8v51.7c15.4-1.3 27.5-12.4 27.5-25.8 0-13.5-12.1-24.6-27.5-25.9zm0.4-29.3c13.4-3 23.1-11.7 23.1-22 0-10.2-9.7-19-23.1-21.9z"/>
	<path id="Path 17" class="s7" d="m691.2 247.7h32v156.4h-32v-68.2l-27.4 22.3v45.9h-32.1v-156.4h32.1v76.9l27.4-22.3z"/>
	<path id="Path 18" class="s7" d="m804.8 247.7h32.1v130.2h17.8l-5.8 25.9-3.6 15.5-20.3 0.1v-15.3h-79.6v-156.4h32v130.2h27.4z"/>
	<path id="Path 19" fill-rule="evenodd" class="s7" d="m919.2 357.7l-27 21.4v24.7h-28.9v-112.4h0.1c0.7-22.5 21.2-40.9 47.6-44.4h9.8 27.3v156.8h-28.9zm-26.8-66.3q0 0.3 0 0.6h-0.2v57l27-21.4v-68.8c-15.9 6.2-26.8 18.5-26.8 32.6z"/>
	<path id="Path 20" class="s8" d="m31.5 21.9h148.5v82.9h199.8v-78h192.9v78h199.9v-78h149.6v152.7h-890.7z"/>
	<path id="Path 21" class="s3" d="m0.5-0.1h203.4v84.9h151.3v-84.9h242v84.9h151.3v-84.9h203.6v208.3h-951.6z"/>
	<path id="Path 22" class="s9" d="m23.4 22.8h157.6v85h197.1v-85h196.1v85h197.2v-85h157.8v162.5h-905.8z"/>
</svg>