<svg version="1.2" xmlns="http://www.w3.org/2000/svg" viewBox="0 0 400 610" width="400" height="610">
	<title>Kalofer-pdf</title>
	<style>
		.s0 { fill: #009f4c } 
		.s1 { fill: #fddd04 } 
		.s2 { fill: #008e43 } 
	</style>
	<path id="Path 1" class="s0" d="m213.4 0.3h79v29.2h31.5v-29.2h73.3v120.1h-22.7v53h22.7l-0.2 345.6c-0.2 3.2-0.7 6.2-1.3 9.3-0.7 3-1.6 5.9-2.6 8.8-1.2 2.8-2.4 5.5-3.9 8.2-1.5 2.6-3.1 5-4.9 7.5-1.9 2.4-3.8 4.5-5.9 6.7-2.2 2.1-4.4 4-6.8 5.8-2.5 1.8-5 3.4-7.6 4.9-2.8 1.4-5.5 2.6-8.3 3.7-3 1-5.9 1.8-8.9 2.5-3.1 0.5-6.1 0.9-9.3 1.1l-3.7 0.1c-3.1 0.1-6.3 0.4-9.4-0.1l-92.2 0.3c-9.3-0.3-16.6 3.8-22.7 10.7-1.4 1.8-2.5 3.5-3.5 5.6l-6.9 15.6-8.2-16.7c-2.1-3.6-4.5-6.5-7.8-9.1-3.7-2.7-7.5-4.2-11.8-5.3-4.1-0.9-8.2-1.3-12.3-1.4l-88.8 0.7c-2.2 0-4.3-0.1-6.5-0.2-3.4-0.1-6.7-0.4-10.1-0.8-3.1-0.5-6-1.2-9-2.1-2.9-0.9-5.7-2-8.5-3.3-2.7-1.3-5.2-2.8-7.8-4.4-2.5-1.8-4.8-3.6-7.1-5.5-2.2-2.1-4.2-4.2-6.2-6.4-1.9-2.4-3.6-4.8-5.3-7.3-1.5-2.6-2.9-5.2-4.2-8-1.2-2.9-2.2-5.6-3.1-8.6-0.7-3.1-1.3-6-1.7-9.2l-0.3-3.2-0.2-345.5h22.7v-53h-22.7v-120.1h73.4v29.2h31.2v-29.2h79v29.2h29.6z"/>
	<path id="Path 2" class="s1" d="m7.7 180.9h22.7v-68h-22.7v-105.1h58.4v29.2h46.2v-29.2h64v29.2h44.6v-29.2h64v29.2h46.4v-29.2h58.4v105.1h-22.7v68h22.7v334.8c-0.5 30.1-25.2 54.5-55.4 54.5-3.2 0-6.3 0.3-9.4-0.2l-92.3 0.2c-17.3 2.5-28.6 9.3-33.9 21.8-6.7-14.2-19-22-39.7-22.3l-88.4 0.6c-2.5 0.4-5-0.1-7.5-0.1-30.2 0-54.9-24.4-55.4-54.5z"/>
	<path id="Path 3" class="s0" d="m379.1 531.8c-0.9 2.1-1.9 4.1-2.9 6.2-2 3.4-4.1 6.3-6.8 9.2-2.1 2.2-4.3 4.2-6.7 6.1-2.6 1.8-5.1 3.3-7.9 4.7-2.1 1-4.2 1.8-6.4 2.5-5 1.4-9.6 2.1-14.8 2.2-2.7 0-5.4 0.3-8.1-0.2l-93.5 0.2-3.9 0.7c-11.1 2.1-21.8 6.2-29.4 14.8-4.7-5.5-10.4-9.3-17.1-12l-10.6-2.9c-4-0.6-7.9-1-11.9-1.1l-89.9 0.7c-1.6 0.1-3.2-0.1-4.9-0.2-3.7-0.1-7.1-0.4-10.7-1-2.4-0.5-4.5-1.2-6.8-1.9-3.6-1.4-6.9-3.1-10.2-5.2-1.9-1.3-3.6-2.7-5.4-4.2-2.9-2.7-5.2-5.4-7.5-8.5-1.3-2-2.5-3.9-3.5-5.9-1.7-3.7-2.9-7.1-3.9-10.9-0.6-3.3-0.9-6.4-1.1-9.8v-326.9h367v324.2 2.9c-0.2 4.1-0.7 7.9-1.7 11.8z"/>
	<path id="Path 4" fill-rule="evenodd" class="s1" d="m177.4 207.8c1.7-2.8 6.3-2.3 8.9-2.3 2.6 0 6.4-0.2 6.4-0.2l4-3.5 23 2.9c0 0-2 4.9-8.4 4.9-6.3 0 2 1.7 8.1 1.4 6-0.3 5.7 2.4 5.7 2.4l-4.9 1.4 7.5 6.6-5.2 0.6 6.6 8-4.6 1.2c0 0 1.5 4.3 0 9.5-1.4 5.2-4.8 9.5-4.8 12.4 0 2.9-1.8 12.4 1.7 15.3 3.4 2.8 2.3 2.3 2.3 2.3 0 0-6.6-0.4-10.6-3.8-4.1-3.5-3.2-2-3.2-2l1.1 5.2-10-7.2-2.6 5.7c0 0-4.6-1.1-5.2-7.7-0.5-6.7-4.3-1.8-4.3-1.8 0 0 2 8.1 6.6 11.2 4.6 3.2 4.3 2.9 4.3 2.9l2-6.3c0 0 3.8 3.8 7.2 5.2 3.5 1.4 3.8 2.3 5.5 1.4 1.7-0.8 0.6-3.4 0.6-3.4 0 0 3.4 2.3 4.6 4.9 1.1 2.6-0.6 8 1.4 11.8 2 3.7 5.2 11.8 9.2 12.4 4 0.5 5.7 1.4 9.2-0.6 3.4-2 7.2-8.6 5.7-16.4-1.4-7.8-13.7-34.9-11.5-50.4 2.3-15.6 8.4-16.7 12.1-18.4 3.8-1.8 13.8-0.9 17.6 3.1 3.7 4 5.7 10.4 5.7 10.4 0 0 5.7 2.5 6.3 4.6 0.6 2 2.3 7.2-0.2 12.4-2.7 5.2-14.7 21.3-14.7 21.3 0 0-3.2-2-2.9-5.8 0.3-3.7 4.9-10.9 4.9-10.9l5.5-6.9c0 0-6.1 1.1-7.8 4.6-1.7 3.4-4.9 8.9-4.9 8.9 0 0-3.4-1.7-0.3-8.3 3.2-6.7 6.6-11.3 6.6-11.3 0 0-4.6 0.9-6.9 4.9-2.3 4-2.3 4-2.3 4 0 0-2-7.2 0-10.6 2-3.5 4.9-6.3 7.5-6.9 2.6-0.6 4.3-0.9 4.3-0.9 0 0-1.7-6.6-8-8.3-6.4-1.8-15.9 1.1-17 10.6-1.1 9.5 1.1 27.9 8.1 39.5 6.8 11.5 3.4 23 1.4 27.9-2 4.9-10.6 10.3-12.9 10.3-2.3 0-2.6 0-2.6 0l3.4 7.3c0 0 8.4 3.4 13 3.1 4.5-0.2 7.2 0.3 12-1.7 4.9-2 5.8-2.6 5.8-2.6 0 0-2.9 4.6-4.6 6.4-1.8 1.7-1.8 1.7-1.8 1.7 0 0 2.6 0.6 4.9 0.6 2.3 0 2.9 0 2.9 0 0 0-6 4.9-8 4.9-2.1 0 3.2 0.2 5.4 0.2 2.3 0-6.9 5.2-6.9 5.2 0 0-1.7 16.2-1.4 19.6 0.3 3.5 2 10.7 0.8 13.8-1.1 3.2-8 6.1-14 6.4-6.1 0.3-8.9-0.9-8.9-0.9l-2.6-1.1-4.1 1.4c0 0-0.2-2.6 1.2-4 1.4-1.5 6.9-3.2 6.9-3.2 0 0-1.7-0.9-4-0.9-2.3 0-4.1 0.3-4.1 2.3 0 2.1-0.6 2.3-0.6 2.3l-4-2.8-3.4 0.3c0 0 0.6-2.1 2.3-3.2 1.7-1.2 6.9-2 6.9-2l-3.7-1.2-3.5 2-1.7-2.6-2.9-1.4c0 0 2-2.3 4.6-2.3 2.6 0 4.3 0.3 4.3 0.3l3.8-0.6 3.7 0.3 4.3 1.7 1.5-1.7c0 0 1.1-2.3 1.1-5.8 0-3.4-0.6-6.6-1.7-8.6-1.2-2-1.5-2.9-1.5-2.9 0 0-7.4 1.2-10.3 1.2-2.9 0-5.2 1.1-5.2 3.7 0 2.6-2.9-2-3.4-3.7-0.6-1.8-3.2 3.1-2.6 6 0.6 2.9-3.5-0.3-3.5-4.3 0-4 1.2-6.9 1.2-6.9 0 0-4.9-1.4-5.8 2.6-0.8 4-1.1-3.5-1.1-8.4 0-4.9 0.8-11.2-2.3-19.9-3.2-8.6-11.8-8.9-17.5-10-5.8-1.2-10.1-2-14.1-4.1-4.1-2-5.8-3.4-5.8-3.4 0 0 6.6-2 11.5-3.2 4.9-1.1 6.9-1.1 8.4-2.9 1.4-1.7 1.4-2.8 1.4-2.8 0 0-4.3 0.8-10.1 2.5-5.7 1.8-16.9 4.4-16.9 4.4l-0.9 6c0 0-2.3-1.7-3.2-3.5-0.8-1.7-2-0.8-2-0.8l-0.8 3.7-4.4-3.4-6.9 0.3c0 0-2.8 4.3-6.3 4.3-3.4 0-4.6-0.6-9.2-2.9-4.6-2.3-6.6-4.6-8.9-6.3-2.3-1.8-1.7-4.6-3.1-5.2-1.5-0.6 0.5-0.9 3.1-1.5 2.6-0.5 4.1-1.4 5.4-1.1 1.5 0.3 4.1 0.6 4.1 0.6 0 0-2.3-3.2-4.3-3.2-2 0-4.9 1.4-4.9 1.4 0 0-0.9-2.3-2.6-3.7-1.7-1.5-2-3.4-2-3.4 0 0 3.5 0 4.9 0.8 1.4 0.9 4.3 0.9 4.3 0.9l4 0.8-4.6-4-4.3-4.6c0 0 3.2-0.3 6 0.6 2.9 0.8 6.7 2.8 7.8 5.5 1.1 2.5 0.3 5.4 0.3 5.4 0 0 2 2.9 4.6 2.9 2.6 0 9.2 1.7 21-2.3 11.8-4.1 8.3-4.6 8.3-4.6l9.2-9.5c-4.9-1.5-8.3 2.6-11.5 5.4-3.1 2.9-6.3 4.6-11.2 5.8-4.9 1.2-8-0.6-8-0.6 0 0 5.4-4.9 9.2-8.6 3.7-3.8 7.1-8.4 13.2-8.4 6 0 10.9 0 14-0.8 3.2-0.9 3.2-2.1 3.2-2.1 0 0-9.8-0.2-12.9-0.2-3.2 0-8.3 1.4-9.2 2.9-0.8 1.4 2.9-6.4 10.1-7.8 7.1-1.5 12.3-3.5 12.3-3.5 0 0 6-1.7 6.9-3.1 0.9-1.5 2-0.6 2-0.6 0 0 4.6 1.4 7.8 0 3.1-1.5 4.9-3.8 4.9-5.8 0-2-0.3-2.9-0.3-2.9 0 0-3.5 6.4-8.3 6.7-4.9 0.2-7-1.5-8.4-1.8-1.4-0.3-4.6-1.1-5.7 1.2-1.2 2.3-3.7 0.3-3.7-1.7 0-2.1 0.2-5.8 0.2-5.8 0 0 3.2 2.3 6.1 2.6 2.8 0.3 9.1 0 9.1-3.5 0-3.4-6.3-4.9-8.6-3.1-2.3 1.7-8.3 4-14.6 4-6.4 0-8.4-6.1-7.2-8.1 1.1-2 4 0.6 5.7 2 1.8 1.5 4.4 2.9 10.1 0.9 5.8-2 6.3-2.6 9.8-2 3.4 0.6 5.7 3.4 5.7 3.4 0 0 2.3-2.8 0-4-2.3-1.1-8.6-3.7-12.1-1.4-3.4 2.3-5.1 2.3-5.1 2.3 0 0-4.9-11-3.2-13.9zm11.2 0.4c-3.1 1.1 0.3 3.7 2 3.7 1.7 0 0.3-1.7 2.9-2 2.6-0.3 3.4 0 3.4 0 0 0-5.1-2.9-8.3-1.7zm13.8 13.2c0 0 2 3.2 0.6 5.5-1.4 2.3 3.1 0.6 3.1-1.7 0-2.4-3.7-3.8-3.7-3.8zm-57.2 30.5h-3.7l1.7-3.4-1.4 0.2-4.9 4.4v-4l3.4-3.8-1.1-3.2c0 0-2.9 0.3-5.2 0.3-2.3 0-4.9-3.7-4.9-3.7l4-0.9-1.1-2v-4c0 0-0.6-2.6-2-2.6-1.5 0-2.6-2.3-4.1-4.4-1.4-2 0.6-3.1 0-4.8-0.6-1.8-0.8-3.5-0.8-3.5 0 0 2.6 0.9 5.7 2 3.2 1.2 3.5-1.4 2.3-3.7-1.1-2.3-4.6 0.8-4.6-0.9 0-1.7 3.5-2 3.5-2 0 0-4.6-6.4 1.1-2.6 5.8 3.7 6.3 5.5 6.1 2.9-0.3-2.6-3.8-4.4-3.8-4.4l2.9-2.5-1.4-3.8c0 0 1.7 0.3 4.6 1.2 2.8 0.8 5.4 6.3 5.1 9.5-0.2 3.1-0.8 8.6 1.5 13.8 2.3 5.2 15 22.7 15 22.7l-0.6 4.1-13 10.4zm49.8 37.4c0 0 7.1-2.9 8.6-4.6 1.4-1.7 1.2-3.7 1.2-3.7 0 0-1.2 0.5-3.2 2.5-2 2.1-8.4 2.3-10.7 3.8-2.2 1.4 4.1 2 4.1 2zm9.8 0c0.5-3.7-6.4 3.5-6.4 3.5 0 0 5.8 0.3 6.4-3.5zm0.5 30c-0.3 3.7 0.9 8.6-1.4 8.6-2.3 0-5.2-4.9-3.2-6.6 2-1.7 0.3-2.9 0.3-6.4 0-3.4 1.1-5.4 2.9-5.4 0 0 1.7 6 1.4 9.8zm-2.8-12.4l-4.7 6.9 1.8 5.5-2.3 2.6c0 0 2 4.6-0.9 4.6-2.9 0-8 5.4-8 9.5 0 4 11.7 4 9.7 6-2 2-9.2 1.2-9.2 1.2l3.5 3.2-6.6 0.5 2.3 2.9c0 0-2.6 0-4.9 0-2.3 0-7.8 5.5-9.8 10.1-2 4.6-8.3 5.2-10.9 5.4-2.6 0.3-8.9-0.2-11.2-0.2-2.3 0-8.7 2.9-11.5 0.5-2.9-2.3-7.8 0.3-5.8-2.8 2-3.2 9.5-3.8 9.5-3.8l-0.3-1.4-5.2-1.8-3.7 4.1-0.3-2.3-2.8-1.8c0 0 0.2-0.5 2.5-2 2.3-1.4 9.5-0.3 9.5-0.3l-2.3-2h-4.9l-4-1.7c0 0-1.2-0.9 1.5-2.6 2.5-1.7 7.4-0.3 12.6 1.5 5.2 1.7 7.8 3.4 14.7 0.5 6.8-2.8 6.6-13.8 6.6-13.8l-3.2 0.3c0 0 3.8-5.8 0.9-4.9-2.9 0.9-7.5 3.2-5.2 0 2.3-3.2 8.6-8.4 8.6-8.4 0 0-6 3.2-6.3 0.9-0.3-2.3 2.3-5.2 5.8-6.3 3.4-1.2 4.5-1.2 5.1-4.1 0.6-2.8 8.1-2.3 11.8-3.7 3.8-1.4 14.1-4.9 16.1-4.9z"/>
	<path id="Path 5" fill-rule="evenodd" class="s1" d="m181.9 423.3c0 0 85.8-45.2 99.1-51.6 13.3-6.4 42.3-15.6 59.1-18 16.8-2.3 24.9-2.3 24.9-2.3l-18.5 16.3-19.7 0.5 16.2 2.9c0 0-55.7 36-71.3 44.6-15.7 8.7-51.5 27.8-51.5 27.8 0 0 56.1 29.6 68.3 34.2 12.2 4.7 60.8 23.2 60.8 23.2l3.5 2.3c0 0-6.3 4.1-16.2 4.1-9.8 0-36.5-5.8-80.6-26.7-44-20.8-56.1-27.2-56.1-27.2l-26.1-2.9 16.8 9.3c0 0-21.4 14.5-38.8 15.6-17.4 1.2-37.1-2.9-37.1-2.9l58.5-33-3.4-1.7-106.6 56.1-17.4 2.9 117-63.7-45.8-24.9c1.4-5.9 4.6-10.5 9.9-13.9zm11.7 6.2l87.4-48.5-90.9 47.1zm-146.2-71.6c0 0 10.2 2.5 14.9 4 4.7 1.4 12.4 5.4 12.4 5.4 0 0-1.6 3.4-9.2 5-3.1 0.7-7.4 1-8.9 2.8-24.9 14.3 4.4 34.1 5 33.2l-4.4 6.6c0 0-18.1-10.2-16.7-23.6 1.5-13.5 7.6-11.3 4.4-15.3-1.8-2.2-2.6-2.3-3-2zm-5.5 16.2l-0.3 0.9c0 0 0-0.6 0.3-0.9zm3-16.9l-5.5 15.6-2.9-2.5h-2.2c0 0 0.8-10.9 3.3-12.8 2.5-1.8 2.5-0.3 2.5-0.3zm18.6 52.6c0.3-0.6 4.5 1.6 6 4-1.5 2.1-4.2 6.9-4.2 6.9 0 0-5.3-0.5-6.1-4.6 1.4-3.6 4.3-6.3 4.3-6.3zm19.5 10.9c5.1 1.5 8.6 2 16.4-1.8 7.8-3.8 20-26.1 25-32.7 5.1-6.5 9.4-10.8 18.5-11.6 9.1-0.7 10.8 4.1 10.6 7-0.1 2.9-6.3 6.9-9.2 2.9-2.9-4 0.8-4.8-2.8-5.2-3.6-0.4-7.5 0.8-12.7 8-5.2 7.2-13.5 18.3-18.2 25.9-4.8 7.5-12.3 12.6-21.8 13.7-9.4 1.1-20.3-5.1-20.3-5.1l2.9-6.5c0 0 6.5 4 11.6 5.4zm2.2-30.8l6.9-14.3c0.4-0.9 1.5-1.1 2.3-0.6l2.3 1.3c0.8 0.5 1 1.4 0.6 2.3l-6.9 14.3c-0.4 0.8-1.5 1.1-2.3 0.6l-2.3-1.3c-0.8-0.5-1-1.5-0.6-2.3zm6.8 2.9l7.9-13.8c0.4-0.9 1.5-1 2.3-0.5l2.2 1.5c0.8 0.5 0.9 1.5 0.5 2.3l-7.9 13.8c-0.4 0.8-1.5 1-2.2 0.5l-2.3-1.5c-0.7-0.5-0.9-1.5-0.5-2.3zm6.9 3.5l7.8-13.8c0.4-0.9 1.5-1 2.3-0.5l2.2 1.5c0.8 0.5 0.9 1.5 0.5 2.3l-7.8 13.8c-0.5 0.8-1.6 1-2.3 0.5l-2.2-1.5c-0.8-0.5-0.9-1.5-0.5-2.3zm6.8 3.7l7.8-13.8c0.5-0.8 1.5-1 2.3-0.5l2.2 1.5c0.8 0.5 0.9 1.5 0.5 2.3l-7.8 13.8c-0.4 0.8-1.5 1-2.3 0.5l-2.3-1.5c-0.7-0.5-0.8-1.5-0.4-2.3zm-27.2-13.5l6.6-14.5c0.4-0.8 1.5-1.1 2.3-0.6l2.3 1.3c0.8 0.4 1.1 1.4 0.7 2.2l-6.7 14.5c-0.4 0.8-1.5 1.1-2.2 0.6l-2.4-1.3c-0.8-0.4-1-1.4-0.6-2.2zm-7.1-2.4l5.2-15c0.3-0.9 1.3-1.2 2.2-0.9l2.4 1.1c0.9 0.4 1.2 1.3 0.9 2.2l-5.6 14.4c-0.3 0.9-1.2 1.1-2.1 0.9l-2.1-0.5c-0.9-0.2-1.2-1.3-0.9-2.2zm-7.6-3.4l3-6.6c2-0.6 5.5-2.3 8.8-4.8l-6.6 14.3c-0.4 0.8-1.4 1.1-2.2 0.7l-2.4-1.4c-0.8-0.4-1-1.4-0.6-2.2zm-6.9-2.2l0.9-2.4c2.1-0.5 4.4-1 6.1-1.4l-2.5 6.2c-0.4 0.9-1.5 1.3-2.2 0.8l-1.6-1c-0.8-0.5-1.1-1.4-0.7-2.2zm36.6 180.2c0 0 40.2-41.5 47-47.4 6.7-5.9 22.8-16.5 29.2-22.4 6.3-5.9 10.1-5.1 10.1-5.1h5.1l-0.4-15.6h2.1l-0.5 12.7h6l1.2 2.1c0 0 4.3-1.3 10.2-0.5 5.9 0.9 12.3 7.2 22.8 12.3 10.6 5.1 25.8 20.3 35.6 27.1 9.7 6.7 41.8 37.2 41.8 37.2 0 0-71 0-75.7 0.4-4.6 0.4-13.1 2.1-16.1 4.3-2.9 2.1-5 4.2-5 4.2l-0.9-35.1c0 0-5.9-9.3-4.2-16.1 1.7-6.8 2.1-8 6.8-9.3 4.6-1.3 5-3.8 9.3-3.8 4.2 0 5.9-3 5.9-3l3.8-0.8c0 0-14-10.6-17.3-11.8-3.4-1.3-3.8-2.2-12.3-2.2-8.5 0-18.2 1.3-18.2 1.3 0 0-3.8 0.9-7.6 5.1-3.8 4.2-12.3 10.1-12.3 10.1l-13.9 12.3c0 0 5.1-1.7 8.9-2.5 3.7-0.9 8-4.7 11.8-4.7 3.8 0 12.3 4.2 15.7 4.2 3.3 0 12.2 0.9 12.6 5.1 0.4 4.2 5.5 7.2 2.6 25.8-3 18.6-5.1 24.9-5.1 24.9 0 0-16.5-8.4-24.1-8.4-7.6 0-40.6 0-40.6 0zm68.1-31.3c2.1 2.9 1.3 5 5.5 5.4 4.2 0.5 12.7-2.9 15.7-5.9 2.9-2.9 5-9.7 0.8-9.7-4.2 0-7.2 2.6-11.9 3.4-4.6 0.8-7.6-4.2-11.4-1.7-3.8 2.5-0.8 5.5 1.3 8.5zm25.4-41.9l3.8-0.4-0.5-3h-3.8z"/>
	<path id="Path 6" fill-rule="evenodd" class="s2" d="m52.2 98v-1.6c2-0.1 3-0.8 3-2.3 0-1.1-0.4-2.8-1.2-5.1q-1.2-3.4-2.3-5.6-2-4.2-6.4-9.3l-2.3 2.1v13.6c0 2.3 0.4 4 1.1 5 0.6 1.1 1.6 1.6 3 1.6v1.6h-21.3v-1.6q2 0 2.8-1.5c0.6-1 0.8-2.8 0.8-5.1v-27.1q0.1-3.5-0.8-5-0.8-1.6-2.8-1.6v-1.7h20.8l0.1 1.7c-1.3 0-2.2 0.6-2.8 1.7-0.6 1.1-0.9 2.9-0.9 5.3v7.6l7.2-6.4c0.6-0.6 1.2-1.3 1.9-1.9 0.6-0.6 1.2-1.3 1.7-2q0.8-1 0.8-1.9 0-1.1-1-1.7-1-0.6-2.2-0.7v-1.7h19.3v1.7c-3.8 0.6-8 2.8-12.5 6.5l-3.4 2.9c3.4 3.5 6.3 7.3 8.5 11.4 2.2 4.1 4.2 8.9 6.1 14.3 0.6 1.7 1.3 3 1.9 3.9 0.6 0.8 1.4 1.2 2.5 1.3q2.4-0.6 3.6-2.4c0.8-1.2 1.7-3 2.6-5.2l10.4-27.5c0.7-1.8 1.1-3 1.1-3.5 0-1-0.5-1.6-1.5-1.7v-1.7h19.4v1.7q-0.7 0.1-1.2 0.5c-0.2 0.2-0.3 0.6-0.3 1.2 0 0.2 0.5 2 1.7 5.5q1.7 5.2 3.8 11.3c1.3 4.1 3 8.8 4.8 14.3q0.8 2.2 1.3 3.6c0.4 0.9 0.9 1.8 1.6 2.6q1 1.1 2.6 1.3v1.6h-22.8v-1.6c1-0.1 1.9-0.4 2.6-1.1 0.6-0.7 1-1.6 1-2.8q0-1.5-0.8-3.1c-0.6-1-1.3-2-2.2-2.9-0.9-1-1.7-1.7-2.6-2.2-1.4-1-2.9-1.8-4.5-2.2-1.6-0.5-3.5-0.7-5.5-0.7l-2.4 6.7c-0.8 2.6-1.2 4.4-1.2 5.4 0 0.9 0.2 1.6 0.7 2 0.6 0.5 1.3 0.8 2.3 0.9v1.6h-14.6zm43-34.8l-4.2 12.5c3.1 0 6.1 1.1 9.3 3.2zm46.7-1.1q-1.7 2-3.5 5-1.8 3.1-3.2 6.7c-1 2.4-1.7 4.9-2.3 7.5q-0.8 3.9-0.8 8 0 2.6 1.4 4.7c1 1.3 2.5 2.1 4.7 2.3h0.6v1.8h-14.5v-0.6q0-2.7 0.6-6.9 0.6-4.1 2-9.3c0.9-3.4 2.3-7 4-10.7 1.8-3.7 3.9-7.1 6.5-10.2 0.5-0.8 0.8-1.6 0.8-2.5 0-1.2-0.6-1.8-1.7-1.8h-0.6v-1.7h33.2v1.7q-2.4 0-3 1.9c-0.5 1.3-0.7 3.1-0.7 5.4v26.1q0 3.5 0.6 5.2c0.4 1.2 1.5 1.7 3.1 1.7v1.7h-21v-1.6c1.7 0 2.7-0.6 3.2-1.8q0.5-1.8 0.5-5.6v-25.5q0-2.6-0.8-3.9c-0.6-0.7-1.4-1.1-2.7-1.1-2.2 0-4.4 1.1-6.4 3.5zm36.9 31.2q-2.3-2.1-3.8-4.9c-1.1-1.8-1.9-3.8-2.4-5.9q-0.7-3.1-0.7-6.4 0-6.9 3.2-12.1c2.1-3.4 5.1-6.1 8.8-7.9 3.8-1.8 7.9-2.7 12.5-2.7q4.9 0 9.4 1.3c3 1 5.6 2.4 7.7 4.4q2.3 2.1 3.9 4.9 1.6 2.9 2.3 6 0.8 3.3 0.8 6.6c0 1.5-0.2 3-0.4 4.5-0.3 1.4-0.7 2.9-1.2 4.3q-0.9 2.3-2.1 4.2c-0.9 1.3-1.8 2.4-2.9 3.3-2.2 2-4.8 3.6-8 4.6-3.2 1.1-6.4 1.6-9.5 1.6-3.3 0-6.5-0.5-9.6-1.4q-4.7-1.5-8-4.4zm25.7-5.6q1.4-3.2 1.4-8.7 0-7.5-1.9-12.4-1.2-3.1-3.5-5.3c-1.6-1.5-3.3-2.3-5.4-2.3-1.6 0-2.9 0.5-4.2 1.6q-1.8 1.5-2.9 4.1c-1 2.3-1.5 5.3-1.5 8.9q0 7.4 2 12.5c0.9 2.1 2.1 3.9 3.5 5.3q2.2 2.1 5.2 2.1c1.7 0 3.2-0.5 4.5-1.7 1.3-1.1 2.2-2.4 2.8-4.1zm78.8-10.9q0 4.7-3.3 8c-2.3 2.2-5.1 3.8-8.7 5q-5.2 1.7-11.3 2.1-0.1 2.3 0.9 3.4 1 1.1 3.3 1.1v1.7h-22v-1.7c1.7 0 2.8-0.4 3.4-1.2q0.9-1.2 0.9-3.3-6.5-0.4-11.8-2.3-5.2-1.9-8.4-5.3c-2.1-2.3-3.2-4.9-3.2-7.9q0-4.8 3.3-8.2c2.2-2.3 5.1-4.1 8.6-5.3q5.3-1.8 11.5-2.2c0-1.3-0.4-2.3-1-3.2q-1-1.4-3.3-1.4v-1.7h22v1.7q-2.2 0-3.2 1.4-1 1.3-1 3.2 4.4 0.2 8.6 1.3c2.9 0.7 5.4 1.8 7.6 3.1 2.2 1.4 3.9 3 5.2 5 1.3 1.9 1.9 4.2 1.9 6.7zm-36.8-12.2q-4.4 0.3-6.9 2.9-2.4 2.6-2.4 7 0 3 1.1 5.8c0.8 1.8 1.9 3.4 3.3 4.7 1.4 1.3 3.1 2.3 4.9 2.8zm13.5 23.4q4.3-0.4 6.8-2.9 2.5-2.4 2.5-6.7 0-3.4-1.3-6.2c-0.8-1.9-1.9-3.5-3.3-4.7q-2.2-2-4.7-2.8zm25.7 10.2v-1.7q2 0 2.8-1.5 0.8-1.5 0.8-5.1v-27.1q0-3.5-0.8-5.1-0.8-1.5-2.8-1.5v-1.7h31.8q2.9 0 3.9-1l3.3 15.2-1.4 0.5q-1.4-4.7-5.3-7.5c-2.6-1.8-5.6-2.7-8.9-2.7-2.7 0-4.4 0.4-5.1 1.3-0.7 0.8-1.1 2.4-1.1 4.7v3.8h4c2.2 0 4-0.3 5.1-1q1.7-1 1.8-4.4l1.3-0.1 2.9 16.8-1.4 0.1q-1.1-3.1-3.2-4.9c-0.9-0.9-1.9-1.4-3-1.7q-1.5-0.4-3.9-0.4h-3.6v12.8c0 0.4 0 0.9 0 1.5 0 1.7 0.2 2.9 0.7 3.9q0.8 1.4 2.2 1.9c1 0.3 2.1 0.5 3.6 0.5q11.4 0 17.4-12.3l1.4 0.5-5.6 17.2c-0.5-0.5-1-0.7-1.6-0.9q-1-0.1-2.4-0.1zm47.4-35.4q0-3.5-0.8-5.1-0.8-1.5-2.9-1.5v-1.7h27.4q3.2 0 5.7 0.2c1.6 0.1 2.9 0.2 4 0.6q2.3 0.8 3.7 2.5 1.4 1.7 1.4 4.2c0 3.1-1.4 5.7-4.2 7.9-2.8 2.2-5.9 3.8-9.2 5q-5 1.7-11.5 3.3v11.7q0 3.5 1 5 1 1.6 3.1 1.6v1.7h-21.4v-1.7q2 0 2.9-1.5c0.5-1 0.8-2.7 0.8-5.1zm13.6 10.4q4.3-0.9 7.6-3.2c2.2-1.5 3.3-3.5 3.3-5.9q0-2.6-2-3.9-1.9-1.3-4.7-1.3c-1.2 0-2.1 0.1-2.7 0.4q-1 0.5-1.2 1.3-0.3 0.9-0.3 2.5z"/>
	<path id="Path 7" class="s0" d="m38.9 112.8h319.8v68.1h-319.8z"/>
	<path id="Path 8" fill-rule="evenodd" class="s1" d="m75 122.1c2.1 0 4.2 0.1 6.4 0.1q3.2 0 4.3 0c0.1 0 0.6 0 1.5-0.1q1.4 0 3.1 0c0.6 0 1 0.2 1 0.9 0 0.2-0.1 0.4-0.2 0.5-0.1 0.3-0.2 0.5-0.3 0.8-0.3 0.5-0.5 1.1-0.6 1.8q-0.1 1-0.1 1.2c-0.2 0.4-0.4 0.6-0.8 0.6q-0.5 0-0.7-0.3 0-0.1-0.3-0.8c-0.5-1.5-1.1-2.5-1.9-3.1-0.5-0.3-1.3-0.5-2.3-0.5h-1.8v6.7c0.6 0.6 1.1 0.9 1.4 1 0.3 0.1 1 0.4 2.1 0.6 1.5 0.3 2.9 0.6 4.4 0.8 1.2 0.4 1.8 1.6 1.8 3.4v3.4q0 0.9-0.5 1.3-0.7 0.5-1.5 0.5l-15-0.1v-1.1h2.5v-16.5h-2.5zm7.3 17.6c0.4 0 0.8 0 1.3 0.1 0.5 0 1 0 1.5 0q0.7 0 1-0.1c0.6-0.2 0.8-0.4 1-0.5 0.2-0.2 0.2-0.6 0.2-1.3v-3c0-0.4 0-0.7-0.1-0.9q-0.2-0.3-1.2-0.7c-1.1-0.5-1.8-0.9-2.1-1.1q-0.9-0.5-1.6-1.3zm19.3-16.8h-2.3v-1.1h9.4v1.1h-2.3l5.5 16.8h2.1v1.2h-9.1v-1.2h2.3l-2.2-6.9c-0.6 2.1-1.5 3.9-2.7 5.6-1.4 1.9-2.9 2.8-4.6 2.8-0.9 0-1.7-0.2-2.3-0.7q-1.1-0.9-1.1-2.5c0-1.4 0.5-3 1.4-4.8 0.7-1.4 1.8-3 3.3-5 0.6-0.8 1.2-1.6 1.9-2.4 0.5-0.8 0.8-1.6 0.8-2.3q0-0.2-0.1-0.6zm-4.5 13.2c0 0.6 0.2 1.1 0.5 1.4q0.4 0.4 1.2 0.4 0.8 0 1.4-0.6 1-1.1 2.1-2.8c1.1-1.5 1.6-2.7 1.8-3.6l-1.4-4.8c-0.7 0.8-1.4 1.6-2.1 2.4-0.6 0.7-1 1.3-1.3 1.9q-0.7 1-1.4 2.8-0.8 1.9-0.8 2.9zm27.9 3.6h2c-0.7-1.9-1.4-4.1-2-6.5q-0.5-1.9-1-4.8l-0.6-2.2c-0.3 0.3-0.6 0.7-0.9 1-0.2 0.4-0.5 0.8-0.8 1.4-0.8 1.3-1.4 2.5-1.8 3.6-0.4 1-0.6 2-0.6 2.8q0 1.8 0.2 2.2c0.2 0.3 0.3 0.5 0.6 0.5 0.3 0 0.5 0.1 0.6 0.3q0.3 0.5 0.3 2.4c0 0.3-0.1 0.5-0.3 0.6q-0.4 0.1-0.8 0.1c-0.1 0-0.3 0-0.6 0q-0.3-0.1-0.5-0.1-0.2 0-0.4 0-0.3 0-0.4 0c-0.4 0-0.7 0-0.9 0.1-0.2 0-0.4 0-0.6 0-0.3 0-0.5 0-0.7-0.2-0.2-0.1-0.3-0.4-0.4-0.7v-1c0-1 0.2-2 0.5-3q0.6-1.4 2.4-4.4l2-3.4c0.7-1.2 1.1-1.9 1.2-2.1q0.9-1.7 0.9-2.3 0-0.5-0.2-0.6-0.3-0.1-0.8-0.1h-2.1v-1.1h10v1.1h-1.8c0.3 2.3 0.9 4.8 1.6 7.5q0.8 3.5 2.1 7.1 0.1 0.3 0.3 0.9c0.1 0.4 0.2 0.7 0.3 0.9h2.2v1.2h-9zm17.8-9.4h1.2l0.4-0.7 0.5-1 0.7-1.1c1.2-2.2 2-3.4 2.3-3.9 1.1-1.2 2.3-1.9 3.7-1.9q1.5 0 2.6 0.5c-0.2 0.5-0.4 1-0.6 1.5-0.1 0.2-0.1 0.5-0.1 0.9q-0.1 0.6-0.1 1.3h-0.6l-1-0.4c-0.2-0.1-0.4-0.1-0.7-0.2q-0.4-0.1-0.9-0.1-1.8 0-5 5.4 5 1 6.9 3.5c1.1 1.4 1.6 3.2 1.6 5.6h1.8v1.1h-8.2v-1.1h1.1c0-2.7-0.3-4.5-0.9-5.6-0.8-1.5-2.3-2.4-4.7-2.8v8.4h1.9v1.1h-9.1v-1.1h2.5v-16.5h-2.5v-1.1h9.4v1.1h-2.2zm21.9-7.5h-2.4v-1.1h9.5v1.1h-2.4l5.6 16.8h2.1v1.2h-9.1v-1.2h2.3l-2.3-6.9q-0.7 3.1-2.6 5.6-2.2 2.9-4.6 2.9c-1 0-1.8-0.3-2.4-0.8q-1-0.8-1-2.5 0-2.1 1.3-4.8c0.7-1.3 1.9-3 3.4-5 0.6-0.8 1.2-1.6 1.8-2.4 0.5-0.8 0.8-1.6 0.8-2.3q0-0.1 0-0.6zm-4.5 13.2c0 0.6 0.1 1.1 0.5 1.4q0.4 0.4 1.1 0.4c0.6 0 1.1-0.1 1.4-0.5 0.7-0.8 1.5-1.8 2.2-2.9q1.5-2.3 1.7-3.6l-1.4-4.8c-0.7 0.8-1.3 1.6-2 2.4-0.6 0.7-1 1.4-1.4 1.9q-0.6 1-1.3 2.8-0.8 2-0.8 2.9zm25.5-5v8.6h2.1v1.2h-9.3v-1.2h2.5v-16.4h-2.5v-1.1h9.3v1.1h-2.1v6.5h6.7v-6.5h-2v-1.1h9.3v1.1h-2.5v16.4h2.5v1.2h-9.3v-1.2h2v-8.6zm32-8.9v1.1h-2.5v6.6c0.8 0.6 1.8 1.1 3.1 1.5q1.9 0.6 3.5 0.6h1.2q1.3 0 1.7 0.6c0.1 0.2 0.2 0.5 0.2 1.1v5.3q0 1.2-0.5 1.6c-0.3 0.2-0.7 0.3-1.4 0.3h-15.1v-1.2h2.6v-16.4h-2.1q-1.9 0-2.9 1.3c-0.4 0.4-0.8 1.2-1.1 2.3-0.2 0.4-0.3 0.7-0.3 0.7q-0.2 0.4-0.7 0.4-0.6 0-0.8-0.6 0-0.2-0.2-1.2c0-0.9-0.2-1.5-0.6-1.5q-0.5-0.2-0.4-1.8c0-0.3 0-0.5 0.2-0.7q0.3-0.3 0.7-0.3 0.3-0.1 0.5 0c0.1 0 0.3 0.1 0.7 0.1q0.4 0.1 0.8 0.2c0.2 0 0.4 0 0.6 0zm-2.5 17.5h2.7c0.7 0 1.2 0 1.5-0.1q0.8-0.3 0.8-1.3v-3.9q0-0.6-0.2-0.9c-0.2-0.1-0.6-0.3-1.3-0.5-0.7-0.2-1.3-0.4-1.8-0.6-0.6-0.3-1.2-0.7-1.7-1zm20.3 0v-16.5h-1.3c-1.2 0-1.9 0.2-2.2 0.4-0.7 0.5-1.2 1.6-1.8 3.5q-0.2 0.8-0.2 0.8-0.2 0.6-0.8 0.6-0.6 0-0.7-0.3c-0.1-0.3-0.2-0.5-0.2-0.9q0-1.2-0.5-2.4-0.1-0.3-0.6-1.2-0.4-0.6-0.4-0.9c0-0.3 0.2-0.5 0.4-0.7 0.2-0.2 0.6-0.3 1-0.3 0.6 0.1 1.2 0.1 1.8 0.2q1 0.1 2.3 0.1h11.2q1.4 0 2.3-0.1c0.6-0.1 1.2-0.1 1.8-0.2 0.4 0 0.8 0.1 1 0.3q0.3 0.3 0.3 0.7c0 0.2-0.1 0.6-0.4 1.1-0.3 0.5-0.4 0.9-0.5 1q-0.2 0.6-0.4 1.2-0.2 0.6-0.2 1.2c0 0.4 0 0.6-0.1 0.7q-0.1 0.5-0.7 0.5-0.6 0-0.9-0.8-0.1-0.2-0.4-1.5-0.6-1.8-1.4-2.5-0.6-0.5-1.8-0.5h-1.9v16.5h2.6v1.1h-9.8v-1.1zm30.2-16.5v16.5h2.1v1.1h-9.4v-1.1h2.6v-16.5h-2.6v-1.1h21.3v1.1h-2.6v16.5h2.6v1.1h-9.4v-1.1h2.1v-16.5zm26.2 8.2h1q-0.2-0.7-0.8-1.1c-0.4-0.3-0.7-0.5-1.1-0.5q-0.9 0-1.8 0.4-1 0.3-1.6 0.9 0.3 1.6 0.4 1.9 0.1 0.3 0.4 1.1 0.5 1.3 0.6 2.3c0.2 0.5 0.2 1.3 0.2 2.1 0 0.3 0 0.6 0 0.7q-0.1 0.2-0.2 0.7 0.4 0.2 1.1 0.2c1.8 0 3.2-0.5 4.1-1.4q1.2-1 1.6-2.7h-1.6v-1h8v1h-1.1c-0.9 1.5-2.2 2.7-3.8 3.7-1.7 1-3.3 1.5-5.1 1.5-0.9 0-1.7-0.1-2.6-0.2q-1.4-0.1-2.3-0.3 0-0.5 0-0.7c0-0.6-0.2-1.3-0.6-1.9-0.2-0.4-0.7-1-1.3-1.7q-2.1-2.2-2.7-3.3c-0.4-0.8-0.6-1.7-0.6-2.8q0-4.5 3.5-6.8c1.9-1.2 4.2-1.7 6.9-1.7q2.5 0 4.5 0.7 2.9 1.1 3.9 3.4h1.5v1.2h-7.5v-1.2h0.9q-0.3-1.1-1.1-1.9-1.1-1.1-2.9-1.1-2.3 0-3.4 1.9-1 1.6-1 3.9c0 0.5 0 0.9 0.1 1.3 0.8-0.6 1.6-1 2.4-1.3 0.9-0.2 1.8-0.3 2.7-0.3 1.2 0 2.3 0.3 3.4 0.8 1 0.6 1.8 1.3 2.1 2.2h1.3v1.2h-7.5zm21.9 0h1.1q-0.2-0.7-0.8-1.2c-0.4-0.2-0.7-0.4-1.1-0.4q-0.9 0-1.9 0.4-0.9 0.3-1.5 0.9c0.2 1 0.3 1.6 0.4 1.8 0 0.2 0.2 0.6 0.4 1.2 0.3 0.9 0.5 1.6 0.6 2.2q0.2 0.9 0.2 2.1c0 0.4 0 0.6 0 0.8q-0.1 0.2-0.2 0.6 0.4 0.2 1.1 0.2c1.7 0 3.2-0.4 4.1-1.3q1.1-1 1.6-2.7h-1.6v-1.1h8v1.1h-1.1c-1 1.5-2.2 2.7-3.8 3.7-1.7 1-3.3 1.5-5.1 1.5-0.9 0-1.7-0.1-2.6-0.2q-1.4-0.1-2.4-0.3 0-0.5 0-0.7c0-0.7-0.1-1.3-0.5-1.9-0.2-0.4-0.7-1-1.3-1.7q-2.1-2.2-2.7-3.3c-0.4-0.8-0.6-1.7-0.6-2.8q0-4.5 3.5-6.8c1.9-1.2 4.2-1.8 6.9-1.8 1.7 0 3.2 0.3 4.5 0.8q2.9 1.1 3.9 3.4h1.5v1.1h-7.5v-1.1h0.9q-0.3-1.2-1.1-2-1.1-1.1-2.9-1-2.3 0-3.4 1.9-1 1.5-1 3.9c0 0.4 0 0.9 0.1 1.3 0.8-0.6 1.6-1 2.4-1.3 0.9-0.2 1.7-0.3 2.7-0.3 1.2 0 2.3 0.2 3.4 0.8 1 0.5 1.8 1.3 2.1 2.2h1.3v1.2h-7.6zm-254.8 29.4l7 10.6h2.5v1.1h-10.8v-1.1h2.9l-4.8-7.1-1.8 2.9c-0.2 0.5-0.5 1.1-0.8 1.9q-0.4 1.2-0.4 1.6c0 0.3 0.1 0.4 0.4 0.5 0.2 0.1 0.5 0.2 0.9 0.2 0.3 0 0.6 0 0.8 0v1.1h-7.4v-1.2c0.2 0 0.4 0.1 0.5 0.1 1 0 1.9-0.4 2.7-1.2q0.6-0.8 1.9-3.2l0.5-0.8 1.8-3.3-5.4-8h-1.9v-1.1h9.4v1.1h-2.2l3.2 4.6c0.9-1.8 1.7-3.1 2.5-4q1.8-2.1 4-2.1 0.8 0 1.9 0.3c0.7 0.2 1.1 0.3 1.1 0.5q0 0.2-0.3 0.6-0.2 0.5-0.5 0.9l-0.3 1.4q0 0.4-0.1 0.7c-0.1 0-0.2 0-0.5 0q-0.3 0-0.4 0-0.5 0-1.3-0.4c-0.5-0.4-0.9-0.5-1.1-0.5q-0.9 0-1.8 0.7-1 0.9-2.2 3.2zm18.4-6.3h-2.4v-1.1h9.5v1.1h-2.4l5.6 16.8h2.1v1.2h-9.1v-1.2h2.2l-2.2-6.9q-0.8 3.1-2.6 5.6-2.2 2.8-4.6 2.8-1.5 0-2.4-0.7-1-0.8-1-2.5c0-1.4 0.4-3 1.3-4.8q1.1-2 3.3-5c0.6-0.8 1.3-1.6 1.9-2.4 0.5-0.8 0.8-1.6 0.8-2.3q0-0.1 0-0.6zm-4.6 13.2c0 0.6 0.2 1.1 0.5 1.4q0.5 0.4 1.2 0.4c0.6 0 1.1-0.2 1.4-0.5 0.7-0.8 1.4-1.8 2.2-2.9q1.5-2.3 1.7-3.6l-1.4-4.8c-0.7 0.8-1.3 1.6-2.1 2.4-0.5 0.7-1 1.4-1.3 1.9-0.5 0.7-0.9 1.6-1.3 2.8q-0.9 2-0.9 2.9zm32.3-8.2l-6.7 7.2v4.6h2.1v1.2h-9.3v-1.2h2.5v-16.4h-2.5v-1.1h8.9v1.1h-1.7v10.1l6.7-7.3v-2.8h-1.8v-1.1h9v1.1h-2.5v16.4h2.5v1.2h-9.3v-1.2h2.1zm0.2-10.9l1.4 0.5q-0.8 1.7-2.1 2.8c-0.9 0.8-1.8 1.1-2.8 1.1q-1.7 0-3-1.3c-0.6-0.8-1.1-1.8-1.3-3l1.2-0.3q0.4 0.9 0.9 1.4 0.8 0.8 1.9 0.8 1.5 0 2.6-0.7c0.5-0.3 0.9-0.7 1.2-1.3zm24.1 5.2v1.1h-1.7q0.2 2.1 1 6c0.5 2.6 1.1 4.9 1.7 6.9 0.7 2.4 1.2 3.5 1.7 3.5q0.1 0 0.4-0.2c0.2 0 0.5-0.1 0.9-0.1 0.3 0 0.5 0.1 0.7 0.3q0.2 0.2 0.2 0.6c0 0.1 0 0.2 0 0.3-0.1 0.1-0.2 0.4-0.4 0.9-0.2 0.4-0.4 1.1-0.6 1.9-0.2 1-0.3 1.5-0.3 1.5-0.2 0.5-0.5 0.7-0.9 0.7q-0.5 0-0.7-0.3-0.2-0.3-0.2-0.9-0.4-2.3-2.1-3.1c-0.6-0.3-1.6-0.4-3.1-0.4h-3.1c-2.1 0-3.5 0.1-4.2 0.5-0.8 0.4-1.3 1.2-1.6 2.4-0.2 0.4-0.3 0.7-0.4 1.1q-0.3 0.7-0.8 0.7-0.5 0-0.8-0.5c0-0.1-0.1-0.4-0.2-0.9q0-0.7-0.3-1.5-0.2-0.9-0.5-1.6c-0.1-0.1-0.2-0.3-0.3-0.5q-0.1-0.2-0.1-0.4c0-0.3 0.2-0.5 0.4-0.6q0.4-0.2 0.8-0.2c0.2 0 0.4 0 0.6 0.1 0.2 0 0.4 0 0.5 0 0.5 0 0.8-0.2 0.9-0.7q0.1-0.2 0.3-1.3c0.2-1.6 0.7-3.3 1.6-5.1q0.9-1.9 2.3-4c0.5-0.8 0.9-1.4 1.1-1.8 0.4-0.8 0.6-1.5 0.6-2.1q0-0.6-0.5-0.9c-0.3-0.2-0.7-0.3-1.3-0.3h-1.6v-1.1zm-8 17.5h5.3l-0.6-2q-0.7-2.1-1.3-4.2c-0.3-1.5-0.7-2.9-0.9-4.3l-0.4-1.5c-1.3 1.5-2.5 3.4-3.4 5.6q-1.3 3-1.3 4.7 0 1 0.6 1.4 0.5 0.3 2 0.3zm26.2 1.2h-1.6l-0.2 2v1.2c0 0.7 0 1.1 0.1 1.5q0.1 0.4 0.3 1.3 0 0.2 0 0.3 0 0.1 0 0.3l-2.9 0.2q0-1.1 0.2-2.5 0.1-1.4 0.3-2.6l0.2-1.7h-2.8l-4.8-17.6h-1.3v-1.1h8.2v1.1h-2.1l3.9 14.2c0.8-3.5 1.6-6.4 2.2-8.6q0.6-2.1 1.2-3.6 0.5-1.5 1.2-2.2 1-1.3 2.7-1.3 0.7 0 1.5 0.2c0.5 0.2 0.9 0.3 1.1 0.6q-0.1 0.2-0.3 0.8c-0.1 0.2-0.2 0.5-0.3 0.9q-0.1 0.5-0.1 1.9h-0.4l-0.6-0.2c-0.3-0.2-0.5-0.3-0.5-0.3q-0.4-0.1-0.7-0.1-1.5 0-2.6 2-0.8 1.6-1.6 4.3c-0.3 1.3-0.6 2.6-0.9 3.9-0.2 0.9-0.3 1.5-0.4 1.9q-0.2 0.6-0.6 2h1.6zm16.1-1.1h6.1v-16.4h-2.1v-1.1h8.9v1.1h-2.1v16.4h6.2v-16.4h-2.1v-1.1h9.3v1.1h-2.6v16.4h2.6v1.1h-31.5v-1.1h2.5v-16.4h-2.5v-1.1h9.4v1.1h-2.1zm33.7-9.4h1.1l0.5-0.7 0.5-1 0.6-1.1q1.9-3.2 2.4-3.9c1-1.2 2.2-1.9 3.7-1.9 1 0 1.8 0.2 2.6 0.5-0.2 0.5-0.4 1-0.6 1.5q-0.1 0.3-0.1 0.9c-0.1 0.4-0.1 0.8-0.1 1.3h-0.6l-1-0.4q-0.3-0.1-0.7-0.2-0.4-0.1-1-0.1-1.8 0-4.9 5.4 5 1.1 6.9 3.5 1.6 2.1 1.6 5.6h1.8v1.1h-8.3v-1.1h1.2c0-2.7-0.3-4.5-0.9-5.6-0.8-1.5-2.4-2.4-4.7-2.8v8.4h1.9v1.1h-9.1v-1.1h2.5v-16.5h-2.5v-1.1h9.3v1.1h-2.1zm21.8-7.4h-2.3v-1.2h9.4v1.2h-2.3l5.5 16.8h2.2v1.1h-9.1v-1.1h2.2l-2.2-7q-0.8 3.1-2.6 5.6c-1.5 1.9-3 2.8-4.6 2.8-1 0-1.8-0.2-2.4-0.7q-1.1-0.8-1.1-2.5c0-1.4 0.5-3 1.4-4.8q1.1-2 3.3-5c0.6-0.8 1.2-1.6 1.9-2.4 0.5-0.8 0.8-1.6 0.8-2.3q0-0.1-0.1-0.5zm-4.5 13.2c0 0.5 0.2 1 0.5 1.3q0.5 0.5 1.2 0.5 0.9 0 1.4-0.6 1-1.2 2.1-2.9 1.6-2.3 1.8-3.6l-1.4-4.8c-0.7 0.8-1.4 1.6-2 2.4q-0.9 1.1-1.4 1.9c-0.4 0.7-0.9 1.6-1.4 2.8q-0.8 2-0.8 3zm33.2-12.9v16.5h2.1v1.1h-9.4v-1.1h2.5v-16.5h-2.5v-1.1h21.2v1.1h-2.5v16.5h2.5v1.1h-9.3v-1.1h2.1v-16.5zm26.1 8.2h1.2q-0.3-0.7-0.9-1.2c-0.3-0.2-0.7-0.4-1.1-0.4q-0.9 0-1.9 0.4-0.9 0.3-1.5 0.9 0.3 1.5 0.4 1.8c0 0.2 0.2 0.6 0.4 1.2 0.3 0.9 0.5 1.6 0.6 2.2q0.3 0.9 0.3 2.1c0 0.4-0.1 0.6-0.1 0.8 0 0.1-0.1 0.3-0.3 0.6q0.5 0.2 1.2 0.2c1.7 0 3.1-0.4 4.2-1.3 0.7-0.7 1.2-1.6 1.4-2.7h-1.5v-1.1h8v1.1h-1.2c-0.9 1.5-2.1 2.7-3.7 3.7q-2.5 1.4-5.1 1.4c-0.8 0-1.7 0-2.6-0.1q-1.3-0.1-2.3-0.3 0-0.5 0-0.7c0-0.7-0.2-1.3-0.6-2-0.3-0.3-0.7-0.9-1.3-1.6q-2.1-2.2-2.7-3.4-0.6-1.1-0.6-2.7 0-4.6 3.5-6.8c1.9-1.2 4.2-1.8 6.9-1.8 1.7 0 3.2 0.3 4.6 0.8q2.8 1.1 3.8 3.4h1.5v1.1h-7.6v-1.1h1q-0.3-1.2-1-2c-0.8-0.7-1.8-1-3-1q-2.3-0.1-3.4 1.9c-0.7 1-1 2.3-1 3.9q0 0.7 0.1 1.3 1.2-0.9 2.5-1.3 1.2-0.3 2.6-0.3 1.8 0 3.4 0.8c1 0.5 1.7 1.3 2.2 2.2h1.2v1.2h-7.6zm31.2-2.7h-7.9v-1.1h1.3c0-1.8-0.4-3-1.1-3.8q-0.8-1-2.2-1-1.5 0-2.4 1.2c-0.9 0.9-1.3 2.5-1.3 4.6 0 1 0.1 2 0.3 3 0.2 0.9 0.4 2.1 0.9 3.7q0.6 2.2 0.6 3.7c0 0.2 0 0.4-0.1 0.6 0 0.2-0.1 0.3-0.1 0.5l-0.1 0.4c0.1 0.1 0.3 0.1 0.7 0.1 1.1 0 2.2-0.7 3.2-2q1.6-2 1.6-4.4 0-0.6 0-0.7h-1.3v-1.2h7.9v1.2h-1.2q0 3.2-3.4 5.6c-2.2 1.5-4.4 2.2-6.9 2.2q-0.9 0-1.3 0c-0.3-0.1-0.6-0.2-0.9-0.3v-0.4c0-0.5-0.2-1-0.5-1.6q-0.5-0.7-2.2-2.7-1.6-1.7-2.2-3.3-0.3-1-0.3-2.3v-0.7q0-3.8 2.8-6.1 2.6-2.2 6.5-2.2 4.3 0 6.5 2.2 1.4 1.5 1.9 3.7h1.2zm11.9 2.7h1.1q-0.2-0.8-0.8-1.2c-0.4-0.2-0.8-0.4-1.1-0.4q-0.9 0-1.9 0.3-1 0.4-1.5 0.9c0.2 1.1 0.3 1.7 0.3 1.9q0.1 0.3 0.4 1.2 0.5 1.3 0.7 2.2 0.2 0.9 0.2 2.1c0 0.3 0 0.6 0 0.8-0.1 0.1-0.2 0.3-0.3 0.6 0.3 0.2 0.6 0.2 1.1 0.2 1.8 0 3.2-0.4 4.2-1.3q1.1-1 1.5-2.7h-1.5v-1.1h7.9v1.1h-1.1c-0.9 1.5-2.2 2.7-3.7 3.6-1.7 1-3.4 1.5-5.1 1.5-0.9 0-1.8 0-2.7-0.1q-1.3-0.1-2.3-0.3 0-0.5 0-0.7 0-1-0.5-2c-0.3-0.4-0.7-0.9-1.3-1.6q-2.2-2.2-2.8-3.4-0.6-1.1-0.6-2.7 0-4.6 3.6-6.8c1.8-1.2 4.1-1.8 6.9-1.8 1.7 0 3.1 0.3 4.5 0.8q2.8 1 3.9 3.4h1.4v1.1h-7.5v-1.1h1q-0.3-1.2-1.1-2c-0.7-0.7-1.8-1.1-3-1.1q-2.2 0-3.4 2-0.9 1.5-0.9 3.9 0 0.7 0.1 1.3 1.2-0.9 2.4-1.3 1.2-0.3 2.6-0.3 1.9 0 3.4 0.8c1.1 0.5 1.8 1.3 2.2 2.2h1.2v1.2h-7.5zm19.4-0.4v8.6h2.1v1.2h-9.3v-1.2h2.5v-16.4h-2.5v-1.1h9.3v1.1h-2.1v6.5h6.7v-6.5h-2.1v-1.1h9.3v1.1h-2.5v16.4h2.5v1.2h-9.3v-1.2h2.1v-8.6z"/>
</svg>