<svg version="1.2" xmlns="http://www.w3.org/2000/svg" viewBox="0 0 400 439" width="400" height="439">
	<title>Devin-pdf</title>
	<style>
		.s0 { fill: #ed1c24 } 
		.s1 { fill: #ffffff } 
		.s2 { fill: #00a650 } 
		.s3 { fill: #2744a0 } 
		.s4 { fill: #fff200 } 
		.s5 { fill: #00adef } 
		.s6 { fill: #fbc707 } 
		.s7 { fill: #cd7f4b } 
	</style>
	<path id="Path 1" class="s0" d="m401.4 228.4c-0.5 116.1-90.4 210.6-200.7 210.6-110.3 0-200.3-94.5-200.7-210.6v-0.7q0-0.1 0-0.1 0-0.1 0-0.3v-228.8h401.4v229.9z"/>
	<path id="Path 2" class="s1" d="m384.8 227.7c-0.4 108-82.9 196-184.1 196-101.2 0-183.7-88-184.2-196v-0.6q0-0.1 0-0.2 0 0 0-0.1v-32.4h368.3v33.3zm-368.2-211.9h368.3v116.4h-368.3z"/>
	<path id="Path 3" class="s2" d="m149 15.8h20v116.4h-20zm36 0h20v116.5h-20zm36 0h20v116.4h-20zm35.9 0h20v116.4h-20zm36 0h20v116.4h-20zm36 0h20v116.4h-20zm35.9 0h20v116.4h-20z"/>
	<path id="Path 4" fill-rule="evenodd" class="s3" d="m126 105.2l-54.4-46.1c-1.2-1.1-2.5-2-3.6-2.7l6.9-7.3c7.8-8.3 14.9-8 24-0.3l50.1 42.6v13.8zm23.1-20.6l-27.4-23.2 1.7-1.8c6.1-6.5 11.8-6.4 19-0.2l6.7 5.7zm-132.5 20.6v-18.5l26.7-28.1c6.2-6.5 11.9-6.3 19-0.2l55.2 46.8z"/>
	<path id="Path 5" fill-rule="evenodd" class="s4" d="m308.1 180.1v-38.9h19.7v13.3h18.2v-13.3h19.6v38.9h-19.6v-15.1h-18.2v15.1zm-71.9 0v-38.9h19.6l-0.6 31 0.4 0.1 12.5-31.1h28.4v38.9h-19.6l0.5-29.2-0.3-0.1-12 29.3zm-64.4 0v-38.9h23c5.7 0 10.2 0.1 13.4 0.4q4.8 0.4 8.4 1.3 3.6 1 5.7 3.2c1.4 1.5 2.1 3.2 2.1 5.1q0 1.9-1.1 3.7c-0.6 0.9-1.2 1.6-1.7 2-0.6 0.5-1.5 0.9-2.6 1.3-1.1 0.3-2.6 0.8-4.7 1.1 2.2 0.4 3.8 0.7 4.9 0.9q1.7 0.5 3.2 1.3 4.3 2.4 4.3 7 0 4.6-4 7.5-2.2 1.6-5.1 2.5c-1.9 0.5-4.4 1-7.4 1.2q-4.5 0.4-11.4 0.4zm19-23.3h7.1q4.3 0 5.9-0.5c1.7-0.5 2.5-1.5 2.5-2.9q0-1.6-1.7-2.5-1.6-0.8-4.7-0.8h-9.1zm0 14.2h9.1q4.3 0.1 6.3-0.8 2-0.9 2-2.7 0-1.9-2-2.8-2.1-0.8-6.5-0.8h-8.9zm-78.2 9v-38.9h48.8v9.4h-29.2v5.6h24.7v8.5h-24.7v6h30.4v9.4zm-75.8-8.8l3.4-0.1q1.9-0.1 3.6-0.8c1.4-0.7 2.3-1.3 2.8-2.1q0.8-1 0.8-3.3v-23.8h51.8v30.1h5.9v17.1h-10.8l-3.2-8.3h-40.3l-3.1 8.3h-10.9zm20.4 0h22.3v-21.2h-14.6v10.6q0.1 3.7-1.6 6.2-1.3 2-6.1 4.4z"/>
	<path id="Path 6" class="s3" d="m43.2 328.7c-16.8-29.5-26.5-64.1-26.7-101v-0.6q0-0.1 0-0.2 0 0 0-0.1v-32.4h26.7zm39.3 48.9c-9.8-8.8-18.7-18.7-26.6-29.4v-153.8h26.6zm39.3 27c-9.3-4.8-18.2-10.3-26.6-16.6v-193.7h26.6zm12.7 5.9v-216.2h26.7v224.7c-9.2-2.1-18.1-5-26.7-8.5z"/>
	<path id="Path 7" class="s2" d="m161.4 194.4h107.6v98.2h-107.6z"/>
	<path id="Path 8" class="s3" d="m269 292.6h105.2c-17.7 53.3-56.3 96-105.2 117z"/>
	<path id="Path 9" class="s5" d="m199.3 204.9c14.6 0.7 15.5 10.5 15.8 27.6 0.4-17.1 1.3-26.9 15.9-27.6 15.2-0.8 26 19.7 24.9 54.3h-21.2l-0.2-18.1c-0.3-13.7-14.6-18.6-16.3-0.1v18.2h-6.1v-18.2c-1.7-18.5-16.1-13.6-16.4 0.1l-0.1 18.1h-21.2c-1.1-34.6 9.7-55.1 24.9-54.3z"/>
	<path id="Path 10" class="s6" d="m171.7 263.3q43.4 0 86.9 0l-14.2 15.9c-0.6 0.7-1.5 1-2.5 1q-26.8 0-53.5 0c-1 0-1.9-0.3-2.5-1z"/>
	<path id="Path 11" fill-rule="evenodd" class="s2" d="m325.2 233.1v15.3l-27.3 9.9c-12.8 2.6-14.2-5.6-5-11.7 9.3-6.1 20.9-10 32.3-13.5zm0-15.1v10.1l-18 6.5c-8.4 1.8-9.4-3.7-3.3-7.7 6.1-4 13.8-6.6 21.3-8.9zm0-11.2v6.4l-11.5 4.2c-5.5 1.2-6-2.3-2.1-4.9 3.9-2.6 8.8-4.2 13.6-5.7zm35.4 39.8c9.3 6.1 7.8 14.3-5 11.7l-27.3-9.9v-15.3c11.4 3.5 23.1 7.4 32.3 13.5zm-11-19.7c6.1 4 5.1 9.5-3.3 7.7l-18-6.5v-10.1c7.5 2.3 15.2 4.9 21.3 8.9zm-7.6-14.4c3.9 2.6 3.2 6.1-2.1 4.9l-11.6-4.2v-6.4c4.8 1.5 9.8 3.1 13.7 5.7zm24.5 56.7c10.1 6.6 8.5 15.6-5.4 12.7l-32.8-12v-16.6c12.4 3.8 28.2 9.3 38.2 15.9zm-41.3-15.9v16.6l-32.9 12c-13.8 2.9-15.4-6.1-5.4-12.7 10.1-6.6 25.9-12.1 38.3-15.9z"/>
	<path id="Path 12" class="s6" d="m338.2 343.5c-3.9 15.4-15 29.5-29.5 31.5-6.8 1-16.3-0.3-22.7-6.1-2-3.7-6.8-6.6-13.4-8.8q8.3-1.5 15.3-8.1c-1.1 7.2-6.3 9.5 1.6 11.4 7.8 1.9 17.7-0.8 23.4-7.4 5.6-6.7 5.8-9.9 7-16 0.6-4.5-0.7-9.2 1.8-13.5 1.7-1.7 3.6-2.9 5-5 1.9-1.5 3.4-0.7 4.1 3 4.8 5.5 8.6 11.4 7.4 19zm-49.3-12c2.5-15.7 12.3-30.8 26.6-34.2 6.7-1.6 16.2-1.1 23.1 4.1 2.4 3.6 7.3 6 14.1 7.6-5.4 1.5-10.3 4.6-14.5 9.4 0.5-7.2 5.4-10-2.6-11.2-7.9-1.2-17.6 2.4-22.6 9.6-5 7-4.9 10.3-5.5 16.5-0.2 4.6 1.5 9.1-0.7 13.6-1.5 1.8-3.2 3.1-4.4 5.5-1.8 1.6-3.4 0.9-4.4-2.7-5.3-5.1-9.6-10.5-9.1-18.2z"/>
	<path id="Path 13" class="s7" d="m191.3 316.6l-0.1 7.2c-4.3 2.8-7.7 6.8-9.5 12.8-0.1 4.5 2 9.7 5.1 15.4 0.7 1.7 0.3 3.4 1 5.1 0.7 1.5 2.9 2.3 3.5 3.8 2.1 7.9 9.5 12.7 18.9 16.2-0.3 10.7-0.3 21 4.3 25.3 4.6-4.3 4.7-14.6 4.3-25.3 9.4-3.5 16.8-8.3 18.9-16.2 0.6-1.5 2.9-2.3 3.5-3.8 0.8-1.7 0.3-3.4 1-5.1 3.2-5.7 5.3-10.9 5.1-15.4-1.8-6-5.2-10-9.5-12.8l-0.1-7.2c1.2 1.1 2.5 2.2 3.8 3.4 1.3 1.1 2.4 2.4 3.7 3.6l0.3-1.8c0.9-0.5 1.8-1.5 2.6-1.5 0.8 0.1 0.4 1.1 0.5 1.7 0.2 1.6 0.1 3.8 0.4 4.9 0.3 1.2 0.9 1.1 1.3 1.5 0.4 0.4 0.7 1.8 1.1 0.9 0.4-0.8 0.5-2.9 0.6-4.2 0-1.2-0.6-2.2-0.2-3.1 0.4-1 1.3-2.2 2.4-2 1 0.2 1.1 1.6 1.6 2.7 0.5 1.2 1 3.2 1.3 4.1 0.3 0.8-0.2 1.4 0.7 1.3 1-0.1 2.7-2.1 3.9-1.9 1.2 0.2 1 1.7 1.3 2.6 0.3 0.9 0.8 1.7 0.5 2.8-0.2 1-1 1.9-2 2.9-1 1-2.7 2.1-3.8 2.9-1.2 0.9-2.1 1.5-3 2.4-0.9 1-1.8 2.3-2.4 3.2-0.6 0.8-0.6 0.9-1.1 1.8-0.5 0.9-1.5 2.6-1.8 3.9-0.4 1.2-1.6 3.2-0.2 3.5 1.3 0.3 2.7-1.4 4-2.6 1.4-1.2 2.4-4.3 4.1-4.6 1.6-0.3 0.6 2.5 0.3 3.9-0.2 1.4-1.5 3.1-2 4.2-0.5 1.1-0.6 1.8-1.1 2.6-0.5 0.8-0.4 1.6-2 2.2-1.6 0.5-5 0.6-7.3 0.9l-2.1 1.7c-0.1 1-0.6 2.2-0.5 3.1 0.1 0.9 0.2 1.8 1.1 2 0.9 0.2 2.2-1 3.1-1.1 1-0.1 2.6-0.9 2.4 0.5-0.1 0.6-0.1 1.8-0.4 2.6-0.7 1.1-1.9 1.7-2.9 2.6-1.6 1.5-3.2 1.8-5.8 3.1-1.2 0.6-3.5 0.1-4.8 0.7-2 0.9-4 2.4-5.4 3.9-1.3 1.6-2.3 4-2.9 5.9-0.6 2.1-0.3 4.1-0.9 6.1-0.3 2.4-2.6 2.4-3.8 4-1.2 1.5-1.6 2.7-1.9 4.1-0.4 1.4-0.7 3.4-1.8 5.2-1 1.5-2.2 2.9-4.1 4.4-1.9-1.5-3.1-2.9-4-4.4-1.2-1.8-1.5-3.8-1.8-5.2-0.4-1.4-0.7-2.6-2-4.1-1.2-1.6-3.5-1.6-3.8-4-0.6-2-0.2-4-0.9-6.1-0.6-1.9-1.6-4.3-2.9-5.9-1.4-1.5-3.4-3-5.4-3.9-1.3-0.6-3.6-0.1-4.8-0.7-2.6-1.3-4.2-1.6-5.8-3.1-1-0.9-2.2-1.5-2.8-2.6-0.4-0.8-0.4-2-0.5-2.6-0.2-1.4 1.4-0.6 2.4-0.5 0.9 0.1 2.2 1.3 3.1 1.1 0.9-0.2 1-1.1 1.1-2 0.1-0.9-0.4-2.1-0.5-3.1l-2-1.7c-2.4-0.3-5.8-0.4-7.4-0.9-1.6-0.6-1.5-1.4-2-2.2-0.5-0.8-0.6-1.5-1.1-2.6-0.5-1.1-1.7-2.8-2-4.2-0.3-1.4-1.3-4.2 0.3-3.9 1.7 0.3 2.7 3.4 4.1 4.6 1.4 1.2 2.7 2.9 4 2.6 1.4-0.3 0.2-2.3-0.2-3.5-0.3-1.3-1.3-3-1.8-3.9-0.5-0.9-0.5-1-1.1-1.8-0.6-0.9-1.5-2.2-2.4-3.2-0.9-0.9-1.8-1.5-3-2.4-1.1-0.8-2.8-1.9-3.8-2.9-1-1-1.8-1.9-2-2.9-0.3-1.1 0.2-1.9 0.5-2.8 0.3-0.9 0.2-2.4 1.3-2.6 1.2-0.2 2.9 1.8 3.9 1.9 0.9 0.1 0.4-0.5 0.7-1.3 0.3-0.9 0.8-2.9 1.3-4.1 0.5-1.1 0.6-2.5 1.7-2.7 1-0.2 1.9 1 2.3 2 0.4 0.9-0.2 1.9-0.2 3.1 0.1 1.3 0.2 3.4 0.6 4.2 0.4 0.9 0.7-0.5 1.1-0.9 0.4-0.4 1-0.3 1.3-1.5 0.3-1.1 0.2-3.3 0.3-4.9 0.2-0.6-0.2-1.6 0.6-1.7 0.8 0 1.7 1 2.6 1.5l0.4 1.8c1.2-1.2 2.4-2.5 3.6-3.6 1.3-1.2 2.6-2.3 3.8-3.4z"/>
</svg>