<svg version="1.2" xmlns="http://www.w3.org/2000/svg" viewBox="0 0 146 202" width="146" height="202">
	<title>Letnitsa-pdf</title>
	<style>
		.s0 { fill: #231f20 } 
		.s1 { fill: none;stroke: #231f20;stroke-width: .4 } 
	</style>
	<path id="Path 1" fill-rule="evenodd" class="s0" d="m2 1.6h141.7l0.5 153.4c2.1 22.2-10.2 33.4-26.9 35l-20.5 0.3-5.2 0.1c-2.3 0-4.1 0.5-6.3 1.4-5 2-8.3 5.2-9.9 9.7h-3.8c-2.5-5.4-7-8.7-13.1-10.1-1.8-0.5-3.2-0.5-5.1-0.5l-26.1-0.1c-16.2-1.9-23.8-11.5-25.5-25.1zm3.2 158.5c0.4 3 0 6.2 0.7 9 0.7 3.1 2.5 5.8 4.2 8.1 2.4 3.4 5.6 6.1 9.9 7.8 2.6 1 5.7 1.5 8.8 1.8h24.8c1.7 0 3.1 0.1 4.9 0.5 5.7 1.3 12 4.4 14.4 9.5h0.7c1.5-4.3 6.4-7.3 11.1-9.1 2.1-0.8 3.8-1.3 6-1.3l4.9-0.1 19.4-0.4c3.3-0.3 7.1-0.3 10-1.6 3.6-1.7 7.8-3.9 10.3-7.2 1.9-2.4 3.5-5.3 4.3-8.7 0.8-3.5 0.7-7.6 0.8-11.7 0.1-2.1 0.1-4.3-0.2-6.6l-0.4-144.5h-134.3zm2.9-151.7h128.9v32.7h-128.9zm33 26.4l-0.1-3.1h-7.9v-5.2h7v-3l-7-0.1v-4.2h7.3v-3.1h-11.4v18.7zm7.5-15.4l-0.1 15.4h3.7l0.2-15.4h5.8l0.1-3.3h-15.5l-0.1 3.3zm11.8 15.4h3.9v-8.5l7 0.1 0.1 8.4h4l-0.1-18.7h-4.1l-0.1 7.1-6.9 0.1 0.1-7.2h-3.6zm-39.6-18.7h-4l-7.2 18.7h3.8l5.2-13.6 3.7 13.6h4.5zm62.1 13.2l0.2-13.2h-3.9v18.7h4.8l7.7-12.5-0.1 12.4 4.1 0.1v-18.7h-4.2zm20.9-13.2h-4.2l0.2 18.8h17.4l0.3-4.1h-3.2l-0.2-14.7h-3.9l0.1 14.9h-6.4zm20.4 0l-5.9 18.7h3.8l1.7-5.2 5.7 0.1 2 5.1h3.9l-6.9-18.7zm4.5 10.2h-4.2l1.9-6.4 0.3 0.1zm-107.7 141.4c-0.2-3.7 0.5-7.3 3.1-10.7-0.4-2 0.7-3.8 2.5-5.5q3.5-6.3 6.9-12.5c-4.4 0.9-6.1 4.2-7 8.3q-0.6 2-1.3 4c-0.8 1.4-1.5 2.8-2.3 3.4q-5.6 6.6-14.6 2.5c0.7-2.7 2.2-5.2 4.1-7.5q0.5-3.4 2.9-6.7 1.8-5.7 3.6-11.4 1.9-3 4.2-4.4 1.8-1 3.6-1.9c-2.9-0.4-4.7-1.8-6.4-3.3-2.7 1.8-5.6 3-9.2 0.4q0.2-1.9 0.3-3.8 0.7-10 1.3-19.9c0.1-2.4 1.2-4.4 2.7-6.2 0.1-2.5 0.4-4.6 2.6-4.8 7.1-0.5 13.9 0.1 19.9 2.8q-3.3-4.7-6.5-9.5-2.5-0.7-5-1.5c-2.1 1.3-2.9 3.3-3.3 5.7-5.5 1.6-10.4 2-15.1 2.1 2-6.4 6.2-10.8 11.3-14.4q1 0.6 2.1 1.1c-0.5-2 0.1-3.3 2.8-3.2q0.3-2.5 3.2-2.4c0.6-1.3 1.5-2.3 3.8-1.6 1.8-1.9 3.1-0.8 4.3 1.6q0.4 0.1 0.8 0.3 10.7-5 21.4-9.9 0.8 1.1 1.7 2.3c10.8-3 19.1 3.4 20.7 13.3-0.1 1.9-0.5 3.6-3.1 4.1q0 0.8 0.1 1.5 0.6 0.6 1.2 1.2 4.5-0.3 7.5 3.4c-1.1-1.7-2.2-3.3-3.1-5q-0.2-8.9-0.3-17.7c16.9 0.4 29.4 2.7 38 7.8 12.5 7.6 16.9 20.6 16.1 39q-9-1.9-18-3.8c-1.5-0.3-3-0.5-4.2-1-1.5-11.3-4.5-18.2-8.7-21.5-0.6 2.6-1.1 5.2-1.4 7.9 0.8 1.4 1.4 2.8 0.8 4.4-0.1 1 0.3 2 0.8 3 0.4 1 0.4 1.9 0.1 2.9-3.1 1.3-5.9 0.3-8.3-2.2-2.7 3.8-5.9 4.9-9.4 5-0.4 1.2-0.7 2.4-0.8 3.5q3.5-1.5 7-3.1 0.5 0.6 1.1 1.2c8.7-4.3 15.8-2.9 21.5 3.3q13.5-1.2 11.7 16.1c0.2 2.1 1.2 4.2 3.2 6.4q4.5 2.7 5.3 6.7 0.5 3.3 1 6.6c-8 5.4-20.4 2.4-20.6-12.6-2.1 3.8-2.7 7.9-1.2 12.4q0.8 3.4-1.6 5.4-5.7 3.5-11.5 7.1c-1 2.1-2.5 3.2-4.1 3.8q-0.8 0.1-1.6 0.2c-3.2 1.4-7.6 1.8-12.7 1.3q0-1.8 0-3.6c0.9-3.8 4-6.4 6.9-8.3 0.3-0.2-0.2-0.4 0.1-0.6-2.7 0.5-5.7 3.5-8.8 7.2q-1.4 0.3-2.7 0.5c-3.9 1.9-7.6 1.9-11.3 1.7q0.1-2.4 0.1-4.9c0.6-4.5 3.6-7 7.5-8.9q1.3-1.8 5.4-2.7 3.7-2.9 7.5-5.7 0-0.3 0-0.6-0.7 0-1.4 0-11.2 3.8-22.3 7.5-0.1 5.3-0.3 10.7c-2.6 7.4-16.8 12.5-26.5 0.6q-0.2-0.1-0.4-0.1-0.6 0.7-1.2 1.4c-0.1 2.8-0.8 5.3-3.2 6.7 0.3 2.5-2.9 4.9-6.7 5.1q-3.3 0-6.6 0zm43.9-52.7c0 1.5-0.6 2.4-1.8 2.9l-9.9 4.6q-3.5 1.8-2.6 6.5l2.7 22.1c0.1 8.5 11.1 8.3 10.3-0.9-0.2-1.3-0.2-2.5-0.2-3.8l-0.2-11.1c-0.4-3.1 0.6-4.3 2.3-4.7l14.6-6.2c3.7-1.5 5.2-4 5.5-7l-0.1-8.8-15.4 2.2c-2.8 1.1-4.8 2.4-5.2 4.2zm0.5 19.5q0.2 3.5 0.4 7.1 5.2-1.6 10.4-3.3-1.9-1.8-0.3-3.3 5.7-3 11.4-5.9c2.1-0.8 3.9-0.9 5.1 0.2 1.1 1 1.8 2.7 1.6 4.1-0.2 0.8-0.6 1.8-1.6 2.8q-4.4 3.5-8.8 7.1 1.1 2 2.2 3.9c5.5-2.8 10.7-6.3 16-9.6q-0.6-1.9-1.3-3.7c2.1-0.1 4.9 3.1 4.3 6.8-0.2 1-0.2 1.1-1 1.7-2 1.7-4 3.5-6.2 5.2 1.6 1.4 3.1 2.9 3.9 4.4q5.1-3.4 10.2-6.8c1.2-1.1 2.1-2.3 2.2-3.8-0.1-2.7 0.1-5.1 1.1-6.9 5.2-13 7.1-24.4-4.6-29.4-4.7-1.7-9.4-1.4-13.9 1.2q-0.6 0.7 0.5 1.2c1.5-1.5 2.8-0.5 1.8 1.1-7.5 8.2 2.7 20.1 13.2 12.8 0.7-1.2 3.2-1.2 2.8 1.1q-0.6 2.4-1.1 4.8c-0.4 2.6-2.6 2.1-2.1 0.2q0.1-1 0.2-2c0.4-1.2-0.1-1.5-1-0.8-8.1 3.5-16.2-1.3-17-10.9q-2.9 1.5-5.7 3c-0.1 3.5-1.6 6.6-5.1 8.9q-8.2 3.5-16.4 7-1.5 0.6-1.2 1.8zm24.6-0.5q1 1.3 1.7-0.1c1.4-2.4-1.5-3.9-4.4-2.5q-4.6 2.1-9.1 4.1c-1.5 0.9-1.3 1.5 1.3 1.8q4.6-1.6 9.2-3.2 0.7-0.1 1.3-0.1zm-64.1-22.4q-0.3 1.3 1.5 1.3 1.4-1.6 2.8-3.1 1.2-1.2 2.1-0.2 0.9 1.6 1.8 3.2c4.8-1.8 9.6-2.7 14.2-2.7q1.2-1 2.3-2c-4.7-7-10.8-12-19-13.9 1 2.3 0.9 4.2-1.6 5.4q-2.1 6-4.1 12zm21.3 2.1q0.3-1 0.6-2c-6.9-0.6-11.6 3.3-21.8 2.8q-0.9 0.9-0.7 1.8c8.3 1.9 15.9-2.4 21.9-2.6zm9.3 4c-1.6-0.4-3.1-0.3-4.5 0.1-1.3 0.1-2.5 0-3.2-0.8q-1.9-0.1-2.5-1.7c-2.9 0.1-6.9 1.1-11.4 2.5q-1.8 0.3-0.6 2.5c4.4 2.2 9 4 14.4 4.2 0.8-1.3 1.6-2.5 3-2.9q2.7-1.4 5.4-2.8c1.1-1 1.2-1.1-0.6-1.1zm-36.5 16.2c-1.2 3-2.3 6.2-3.5 9.2 1.7 1 3.2 1.7 4.9 2.6 2-9 8.4-14.9 14.7-7.2-3.1 4.1-5.7 8.3-7.6 12.8q2.4 1.1 4.8 2.2 3.5-8.8 17.5-9-0.9-7.4-1.9-14.8c-3-0.3-6.3-0.8-9.7-1.4 0.1 9.1-11.5 2.8-4.5-2q-1.7-0.7-3.4-1.3-3.5 1.4-7 2.8-3.8 2.1-4.3 6.1zm31.4 15.7c-5-0.6-9.1 1.3-11.3 3.8 1.8 2.9 3.8 4.5 6.1 4.7 2.4-0.9 4.3-2.2 5.8-4q-0.3-2.3-0.6-4.5zm-3.9 9.4c3.1 1.3 6.6 1.2 10.4 0-2.5-0.8-4.5-1.8-5.4-3.2-1.3 1.3-2.8 2.5-5 3.2zm-13.3-29.5c0 1 0.7 1.8 1.7 1.8 0.9 0 1.7-0.8 1.7-1.8 0-0.9-0.8-1.7-1.7-1.7-1 0-1.7 0.8-1.7 1.7zm-11.7 23.5c1.1-0.8 1.7-1.9 1.2-3.4-2.3-2-4.5-3.3-6.8-4.3-1.4-0.4-2.2 0.7-2.8 2.6q4.6 1.8 8.4 5.1zm4.2 0.7c-0.3 0.5-0.7 0.9-0.9 1.4-0.6 1.1 0.1 1 1.1 1.6 2.4 1.2 4.8 2.6 7.5 4.4 0.5-1.4 1.5-2.9 0.5-3.6q-2.3-2.8-6.4-4c-0.6-0.2-1.2-0.3-1.8 0.2zm-16.4 2.3c3.4 3.3 10.5 0.2 10.5-1.9-1.3-2.1-4.1-3.1-7-4-1.5 1.5-2.5 3.6-3.5 5.9zm22.7 6.5q-2.9-2.9-8-4.2c-1.4 2.6-2.4 5.2-2.4 7.7 5.4 0.5 9.6-0.1 10.4-3.5zm-2-39.1q0.3-0.1 0.5-0.1c0.9-1.7 1.3-3.3 1.1-5q-2.1 0.1-4.2 0.3 0.5 2.8 2.6 4.8zm-0.5-12.4c-1.1 0.5-1.5 1.3-1.9 2.1q2.4 0.3 3.6-0.2-0.3-0.9-0.5-1.8c-0.4-0.3-0.8-0.6-1.2-0.1zm-2.8 10.8c-3.5 0.8-5.2-1.1-6.8-3.1-2.5 1.7-5.1 2.8-7.9 1.1q-0.9 0.8 0 1.9c3 2.3 5.3 0.3 7.6-1.1 2.4 2.6 4.8 3.7 7.3 2.7 1.1-0.1 1.2-1.4-0.2-1.5zm-7.7-5.3c-2.2-0.1-4.5-0.6-6.5-1.6-2.1 4.3 4.5 5.7 6.5 1.6zm6.6 1.7q-1.9-0.4-3.8-0.7c-0.4 1.5 0.6 2.5 4.3 2.4q-0.3-0.8-0.5-1.7zm0.6-18.4q-1.7 5-3.4 10c-0.9 1.5 0.6 2 0.9 0.2 1.2-3.2 2.3-6.4 3.4-9.6 0.4-0.8-0.5-1.5-0.9-0.6zm-12.3-3.4q-0.4 5.7-0.7 11.4c2.1 2.2 4.6 3 7.3 3.2q0.8-2.4 1.6-4.7c-3 0.5-5.3-0.2-6.7-2.2-2.8-3.9 2.9-5.9 8.4-2.6 0.3-0.7 0.7-2 1-2.8-0.6-3.2-0.2-4.5 1.2-5.3q0-0.3 0-0.6-1.5 0-3.1 0c-1.2 4.2-5 5.6-7.6 2.1q-0.7 0.7-1.4 1.5zm3.3-1.8c1.9 1.3 3.2 1.1 3.6-1.2 0.2-1.9-1.4-3-3.8-3.7-0.9 1.5-1.3 3 0.2 4.9zm0.9 7.1c-2.3-0.2-1.1 3.7 3.5 2.5 2-1.1-1-2.8-3.5-2.5zm-5.4 11c1.1 1 2.8 1.6 5.4 1.6q0.2-0.8 0.4-1.6c-2.3-0.5-4.1-1.5-5.6-2.5-0.1 0.7-0.3 1.8-0.2 2.5zm13.2-16.4c0 1 0.8 1.7 1.8 1.7 0.9 0 1.7-0.7 1.7-1.7 0-0.9-0.8-1.7-1.7-1.7-1 0-1.8 0.8-1.8 1.7zm-6.1 17.9c0 0.7 0.8 1.3 1.6 1.3 0.9 0 1.6-0.6 1.6-1.3 0-0.8-0.8-1.4-1.6-1.4-0.9 0-1.6 0.6-1.6 1.4zm37.1-52.6c-0.2-0.3-0.6-0.9-0.9-1.2-14 6.7-27.9 13.7-41.8 20.4q3.2-2.4 6.5-4.9 0.6-0.9-1-1.5-0.8 0.3-1.7 0.6c-6.5 4.8-8.5 8.2-9.9 11.3 4.2 0.1 8-0.8 11.7-1.8 1.3-0.5 1.8-1.8 2-3.6q-3.7 1.5-7.3 3.1-1.8 0.4-3.5 0.8 23-11.6 45.9-23.2zm-15.9 9.9q-6.7 3.2-13.4 6.5-1.2 0.7 0.5 1.3c2.8 0.3 4.4-0.9 5.7-2.4 6.1-0.4 5.8-4 7.2-5.4zm13.5 15.7c-5.5 0.4-10.5-2.8-15.2-9.8-2.7 0.6-5.4 1.4-7.6 3 6.8 13.1 15.7 18.4 25.5 17.9-2-3.7-3-7.4-2.7-11.1zm15.3 22.1c3.4-0.3 6.7-0.8 9.8-1.9q1.9-1.6 3.8-3.3 1.4-1.2 1.4-2.5 0-5.3 0-10.5c-0.6-1.1-1.4-2.1-3.5-2.3-1.7 0.8-3.9 1.6-5.5 2.4 0.2 3.8-0.1 7.2-2.2 9.7-2.2 2.5-6.2 4-10.8 5.4q-2.7 0.1-5.4 0.1-3.2 1.4-6.5 2.7-1.7 0.4-2.6 2.5-0.5 1.4-1.1 2.7c-0.2 0.7 0.1 2.4 1.3 0.5q0.5-1.2 1-2.4 0.3-1.2 1-1.3 1.9-1.1 3.7-2.1c1.5-0.8 1.8 0.4 0.8 0.9q-1.5 0.7-2.9 1.5c-0.4 0.4-0.8 0.6-1.1 1-0.6 0.9-1.2 2-1.7 2.9-0.9 1.7 0.6 1.3 1.1 0.6q0.6-1 1.1-1.9c0.1-0.9 0.6-1.3 1.2-1.6q1.4-1.1 3-1.9c1.3-1.2 1.8 0.3 0.6 0.6q-1.3 1-2.6 2-0.8 1.2-1.6 2.4c-0.5 1.1 1.1 1.9 1.5 0q0.6-1.1 1.2-2.2 0.6-0.4 1.2-0.7 0.7-0.6 1.4-1.1c0.7-0.8 2.1-0.2 1 0.7-1.2 1.1-2.5 2.2-3.2 3.3q-0.1 1.8 1.6-0.1c1.1-1.8 3.6-1.8 6.1-1.8 1.8-2.2 3.9-4 6.9-4.3zm15.2-20.8c-1.4-4.8-4.4-7.4-10.6-5.1q1.3 4.4-3.9 4.1-2.1 2-5.1 1.4c-1.7 1.6-3 1.4-4.3 0.9q-2.1 1.8-4.7 1.1c0.4 4 1.5 7.2 4.4 8.4q2.1 1 2.9 4.9c5.5-0.8 9.6-3.2 10.3-9.1q0-1.5 0-3c-0.1-1.3 0-2.5 2.3-3q2.1-0.8 4.2-1.7c1.8-1 3.2-0.1 4.5 1.1zm-14.7-2.8c2 1.6 3.9-0.3 2.3-1.9q-8.1 1.6-16.3 3.2c-0.2 2.2 2.8 3.9 4.1 0.7q0.6-1 1.4-0.2c0.9 1.6 2.3 1.3 3.2-0.7q0.3-1 1.2-0.2c0.6 1.6 2.5 1.5 2.8-0.5q0.6-1.1 1.3-0.4zm-29.6-10.9q-1.2 1.7 0.6 2.8c1.3 2.3 3.7 4.7 6.4 7 3.2 1.3 5.6 1.2 7.9 1q4.2-0.8 8.4-1.6-0.5-0.6-1-1.2-2.6 0.2-5.2 0.3-1.2-1.2-2.5-2.3 0.1-0.9 0.2-1.9-0.3-0.5-0.6-1-0.1-0.7-0.2-1.4-0.7-0.5-1.4-1.1 0.3-1.9 0.5-3.9c1.2-2.9 0.7-4.9 0.4-7.1q-4.7 2.6-9.5 5.1-1 0.8-1.9 1.6c-0.8 1.1-1.6 2.2-2.1 3.7zm20.9 40.2c-1.2-0.1-2.4-0.1-3.3 0.6-1.3 1.2 0.9 2 3.3 0.5q0-0.5 0-1.1zm0.9-10.2c0.2-5.1-7.1-5.5-14.5-6.7 2.7 2.4 5.1 4.9 6.5 7.5 2.5-0.7 5.1-1.1 8-0.8zm-7-39.7c-0.3 0.4-0.3 0.8 0 1.2 5-1.3 8.5 0.2 11.3 2.7q-0.1-1.1-0.1-2.2c2.1 0.5 4 1.7 5.9 3.3-1.5-2.6-3.8-4.6-7.4-5.5q-1.8-1.1-0.2-1.4c6.4 1.6 10.5 5.4 11.1 12.3q0 1.8 1.5 0.3c0.8-4.9-2.9-9.8-7.6-12.4-3.1-1.8-6.4-2.4-9.3-1.8-2.1 0.4-4.2 1.4-5.2 3.5zm16.4 6.6c-0.8-0.6-1.9-1.4-3.2-2 0.2 1.2 0.5 2.5 0.6 3.6 0.5 2.2 4.2 1.2 2.6-1.6zm2.4 2.1c-0.9 1.2-1.9 2.2-3.4 2.6 1.5 2.3 3.7 1.5 3.4-2.6zm-0.6 7.9l1.7-0.7-0.3-2.4-1.6 0.4zm-2-1.9c-0.7-1.5-1.6-2.2-2.7-1.7-0.7 0.5-1.3 1.1-2.3 1.4-1.1-0.2-1.7 0.2-2.1 0.8q-0.3 0.6-0.5 1.1c0 0.3-0.2 0.5 0.2 0.8q0.6 0.6 1.2 1.2 3.1-0.7 6.2-1.4 0-1.1 0-2.2zm-10.7 2.2c0.3-0.3 1-0.5 1.2-0.7 1-1 0.9-1.9 1.7-2.4 1.6-1.2 3.8-1.6 5-3.1-1-1.2-1.6-2.6-2.1-3.9-2.2 3.5-5 6.6-9.4 9.1q-0.2 0.8 1 1.3 1.3-0.2 2.6-0.3zm-5-13.9c-0.6 2.3-1.2 4.5-1.6 6.9q0.7 0.5 1.3 1 0 0.6 0 1.2 0.3 0.4 0.7 0.9 0 0.8 0 1.5c5.8-3 7.9-6 9-9-2.1-3.2-5.3-4.1-9.4-2.5zm6 3.9c-1.6 0.4-3.4 0.7-5.5 0.7q0.2-1 0.3-2.1c0.9-3.4 5.2-2.3 5.2 1.4zm-3.7-0.6l1.8-0.2c0.8-1.9-3.1-1.3-1.8 0.2zm18 74.7c-3.5 1.4-6.6 4-6.7 10.8 4.1 0.7 7.2-0.3 9.5-1.8 0.9-3.8 0.2-6.9-2.8-9zm7.5 7c0.4-4-0.9-7-3.5-9.5q-1.2-0.2-2.3 0.9c2.1 1.9 3.3 5.3 3.3 10.6 0.8-0.3 1.6-1 2.5-2zm12.1 6q-0.3-5.9-4.9-7.7c-4.2 2.1-6.9 6.6-5.3 8.9 3.6 0.5 7.1 0.2 10.2-1.2zm4.1-1.2c0.2-4.1-1.5-7.2-5.6-9.4q-0.9 0.7-1.8 1.4c3.2 2.2 5.3 5.1 5.5 9q0.9-0.5 1.9-1zm19.9-18.2c3.6 3.8 7.6 5.6 11.1 5.6 1.7-0.1 3.4-0.3 4.8-1.3 0.4-0.2-0.4-0.5-0.1-0.8-10.1 1.2-19.8-5.9-13.1-17.3 0-0.7 0.4-1.3 1.5-1.9-0.1-1.3 0.8-1.4 2.1-1.1l0.2-5.3c-0.9-6.1-4.4-8.2-9.2-8.1l1.7 3.8c2 0.3 3.3 1.8 2.8 5.1-2 10.3-5.3 16.5-1.8 21.3zm15.4 1.5c-8.9-0.8-11.9-5.6-12.8-10.9-1 3.1-2.2 9.7 8.8 11.7 1.2 0.2 2.5 0 4.1 0.1q-0.1-0.5-0.1-0.9zm-0.7-4.5c-0.7-2.7-5.7-5.6-8.5-11-0.8 4.5 1 8.3 8.5 11zm-0.4 2.9c1.4 0.5 1.5-0.8 0.3-1.3-6.3-1.7-9.5-5.5-9.7-11.2q-0.4-1.5-0.8 0.5c-0.2 6.9 3 10.7 10.2 12zm-31.5-70.3q-1 1.2-1.9 2.3c2.1 1 3.3 2.1 3.1 4.1 10.4 4.7 15 15 15.4 28.7q5.4 1.1 10.8 2.2c1.5-20.3-7.3-33-27.4-37.3zm0.9 7.8l-2.8 1.1-0.4 11.3h1l1.6-11 1.6 0.9 0.8-0.9zm-5.5 18.6c-0.4 2.8 1.2 4.3 5.3 4q-0.2-1.4-0.5-2.7c0-1.3-0.6-1.6-1.5-1.5q-1.6 0.1-3.3 0.2zm-10.5 5.8c5.2 0 7.1-1.7 7.6-4.1-2.5 1.6-5 2.1-7.6 2.1q0 1 0 2zm7.3-6.6q-3.3 0.2-6.6 0.4-0.2 1.1-0.5 2.2c4.4 0.4 6.1-0.9 7.1-2.6zm-0.7-1.6l0.3-2.3-5.8-0.4-0.2 2.9zm4.3-16.4q-1.2-1.3-0.9-3.8c-5.3-1.8-10-1-13.3 4.3q-1 0.8 0 2.6 2 4.3 3.9 8.5c4 1.4 7.4 1.1 10.5 0.3q0-3.4 0-6.9c-1.5 1-2.4 2-3.5 2.4-3 1.1-5.5 0.2-6.9-1.1-1.1-0.9-2.2-1.8-2.1-3.2 0-1.7 1.8-3.2 3.5-4.2 2.2-1.3 4.9-1.4 8.8 2q0-0.4 0-0.9zm-4.3-6.3c-0.5-2.5 0.5-4.3 3.4-5.2q-7.3-1.8-14.7-1.7 0.2 5.8 0.3 11.6c1.2-1 2.8-2.2 4-3.1-1.8-2.1-3.4-3.9-3.2-6.3q9.3-1.9 8.8 4.9 0.7-0.1 1.4-0.2zm-3.8-2.9c-1.5-0.6-3.1-0.7-4.6-0.6 0.2 1.2 0.8 2.4 2 3.4 1.7 1.5 4.7-0.1 2.6-2.8zm6.5-0.1c-2.2 1.5-0.7 5.3 2.4 3.3 1.1-1.5 1.9-3 2.7-4.5-1.7-0.2-3.4 0.3-5.1 1.2zm2 7.1c0 1 0.8 1.7 1.8 1.7 0.9 0 1.7-0.7 1.7-1.7 0-0.9-0.8-1.7-1.7-1.7-1 0-1.8 0.8-1.8 1.7zm-2.9 17.5c0 1.1 0.9 1.9 2 1.9 1 0 1.9-0.8 1.9-1.9 0-1-0.9-1.9-1.9-1.9-1.1 0-2 0.9-2 1.9zm5-0.9l0.4 2.6c2.1-0.6 1.4-3.7-0.4-2.6zm-13.4-11.3c0.1 1.9 2.3 3.6 5 3.6 1.6 0 3-0.8 3.9-1.6 0.7-0.6 1.1-1.2 1.1-2 0-0.9-0.6-1.6-1.3-2.3-0.9-0.8-2.1-1.4-3.7-1.4-2.8 0.2-5 1.8-5 3.7zm5.2-2.2c1-0.1 1.8 0.3 2.4 0.8 0.5 0.4 0.9 0.8 0.9 1.4 0 0.5-0.3 0.8-0.8 1.2-0.6 0.5-1.5 1-2.5 1-1.9 0-3.4-1.1-3.4-2.2 0-1.2 1.5-2.2 3.4-2.2zm-1.9 2.2c0 0.6 0.8 1.2 1.9 1.2 0.5 0 1.1-0.2 1.4-0.5 0.3-0.2 0.4-0.4 0.4-0.7 0-0.3-0.2-0.6-0.5-0.8-0.3-0.3-0.7-0.5-1.3-0.5-1.1 0.1-2 0.6-1.9 1.3zm-3.9 34.1c3.4-0.9 6.1-2.2 6.5-4.7q0-1.2 0-2.4c0-2.8-3.5-0.4-6.4 1q0 3-0.1 6.1zm-61.8-42.5c0.6 0.6 1.4 0.8 1.8 0.5 0.5-0.3 0.3-1.1-0.3-1.7-0.6-0.6-1.4-0.8-1.8-0.5-0.5 0.3-0.3 1.1 0.3 1.7zm-3 1.8c0.5 0.4 1.2 0.6 1.6 0.4 0.3-0.3 0.2-0.8-0.3-1.3-0.5-0.4-1.2-0.6-1.6-0.3-0.4 0.2-0.2 0.8 0.3 1.2zm6.1-3.4c0.5 0.6 1.3 1 1.8 0.7 0.4-0.3 0.4-1-0.2-1.7-0.5-0.7-1.3-1-1.7-0.7-0.5 0.2-0.4 1 0.1 1.7zm3.1-1.3c0.5 0.7 1.3 1 1.8 0.7 0.4-0.3 0.4-1-0.1-1.7-0.6-0.7-1.4-1-1.8-0.7-0.5 0.2-0.4 1 0.1 1.7z"/>
	<path id="Path 2" class="s1" d="m2 1.6h141.7l0.5 153.4c2.1 22.2-10.2 33.4-26.9 35l-20.5 0.3-5.2 0.1c-2.3 0-4.1 0.5-6.3 1.4-5 2-8.3 5.2-9.9 9.7h-3.8c-2.5-5.4-7-8.7-13.1-10.1-1.8-0.5-3.2-0.5-5.1-0.5l-26.1-0.1c-16.2-1.9-23.8-11.5-25.5-25.1zm3.5 4h134.3l0.4 144.5c0.3 2.3 0.3 4.5 0.2 6.6-0.1 4.1 0 8.2-0.8 11.7-0.8 3.4-2.4 6.3-4.3 8.7-2.5 3.3-6.7 5.5-10.3 7.2-2.9 1.3-6.7 1.3-10 1.6l-19.4 0.4-4.9 0.1c-2.2 0-3.9 0.5-6 1.3-4.7 1.8-9.6 4.8-11.1 9.1h-0.7c-2.4-5.1-8.7-8.2-14.4-9.5-1.8-0.4-3.2-0.5-4.9-0.5h-24.8c-3.1-0.3-6.2-0.8-8.8-1.8-4.3-1.7-7.5-4.4-9.9-7.8-1.7-2.3-3.5-5-4.2-8.1-0.7-2.8-0.3-6-0.7-9zm2.6 2.8h129v32.7h-129zm33 26.4v-3.1h-7.9v-5.2l7 0.1v-3.1l-7.1-0.1v-4.2l7.4 0.1-0.1-3.2h-11.3l-0.1 18.7m19.7-15.4l-0.2 15.4h3.8l0.2-15.4h5.8v-3.3h-15.5v3.4zm12-3.4h3.6v7.2l6.9-0.1 0.1-7.1h4.1v18.7h-4v-8.4l-7-0.1v8.5h-4zm-33.9 18.8h-4.5l-3.6-13.6-5.2 13.6h-3.9l7.2-18.8h4.1zm56.2-5.5l0.1-13.2h-3.8v18.7h4.8l7.7-12.5-0.1 12.5h4.1v-18.7h-4.2zm20.9-13.2h-4.2l0.2 18.8h17.4l0.3-4.1h-3.2l-0.2-14.7h-3.9l0.1 14.9h-6.4zm20.4 0l-5.9 18.7h3.8l1.7-5.2 5.7 0.1 2 5.1h3.8l-6.8-18.7zm4.5 10.2h-4.2l1.9-6.3h0.3zm-107.7 141.4c-0.2-3.7 0.4-7.3 3.1-10.7-0.5-2 0.7-3.8 2.5-5.5q3.4-6.3 6.9-12.5c-4.4 0.9-6.1 4.2-7 8.3q-0.7 2-1.3 4c-0.8 1.4-1.6 2.8-2.3 3.4q-5.6 6.6-14.6 2.5c0.7-2.7 2.2-5.2 4-7.5q0.6-3.4 3-6.7 1.8-5.7 3.6-11.4 1.9-3 4.2-4.4 1.8-0.9 3.6-1.9c-2.9-0.4-4.7-1.8-6.4-3.3-2.7 1.8-5.6 3-9.2 0.4q0.2-1.9 0.3-3.8 0.7-9.9 1.3-19.9c0.1-2.4 1.2-4.4 2.7-6.2 0.1-2.5 0.4-4.6 2.6-4.8 7.1-0.4 13.9 0.1 19.9 2.8q-3.3-4.7-6.5-9.5-2.5-0.7-5-1.4c-2.1 1.2-3 3.3-3.3 5.7-5.6 1.5-10.4 1.9-15.1 2 2-6.4 6.1-10.8 11.3-14.4q1 0.6 2.1 1.1c-0.5-1.9 0.1-3.3 2.8-3.2q0.3-2.5 3.2-2.4c0.6-1.3 1.5-2.3 3.8-1.5 1.8-2 3.1-0.9 4.3 1.5q0.3 0.1 0.7 0.3 10.7-5 21.5-9.9 0.8 1.1 1.7 2.3c10.8-3 19 3.4 20.7 13.4-0.1 1.8-0.5 3.5-3.1 4q0 0.8 0.1 1.5 0.6 0.6 1.1 1.2 4.6-0.3 7.6 3.4c-1.1-1.7-2.2-3.3-3.2-5q-0.1-8.8-0.2-17.7c16.8 0.4 29.4 2.7 38 7.9 12.5 7.5 16.9 20.6 16.1 39q-9-2-18-3.9c-1.5-0.3-3-0.5-4.2-1-1.6-11.3-4.5-18.2-8.7-21.5-0.6 2.6-1.1 5.3-1.4 7.9 0.8 1.4 1.4 2.8 0.7 4.4 0 1 0.4 2 0.9 3 0.4 1 0.4 2 0.1 2.9-3.2 1.3-5.9 0.3-8.3-2.2-2.7 3.8-5.9 5-9.4 5-0.4 1.2-0.7 2.4-0.8 3.6q3.5-1.6 7-3.2 0.5 0.7 1.1 1.3c8.7-4.4 15.8-3 21.5 3.2q13.5-1.1 11.7 16.1c0.2 2.1 1.2 4.3 3.2 6.4q4.5 2.7 5.2 6.7 0.6 3.3 1.1 6.6c-8 5.4-20.4 2.4-20.6-12.6-2.1 3.8-2.7 7.9-1.2 12.4q0.8 3.4-1.6 5.4-5.7 3.5-11.5 7.1c-1 2.1-2.5 3.2-4.1 3.8q-0.8 0.1-1.7 0.2c-3.1 1.5-7.5 1.8-12.6 1.3q0-1.8 0-3.6c0.8-3.8 4-6.4 6.9-8.3 0.3-0.2-0.2-0.3 0.1-0.6-2.7 0.5-5.7 3.5-8.8 7.3q-1.4 0.2-2.7 0.4c-3.9 1.9-7.6 1.9-11.3 1.7q0.1-2.4 0.1-4.9c0.5-4.5 3.6-7 7.5-8.9q1.3-1.8 5.4-2.7 3.7-2.8 7.4-5.7 0.1-0.3 0.1-0.6-0.7 0-1.5 0.1-11.1 3.7-22.2 7.4-0.1 5.3-0.3 10.7c-2.6 7.4-16.8 12.5-26.5 0.6q-0.2 0-0.4-0.1-0.6 0.8-1.2 1.5c-0.1 2.7-0.8 5.2-3.2 6.6 0.3 2.5-3 4.9-6.7 5.1q-3.3 0-6.6 0zm49.1-56.9l15.3-2.2 0.1 8.8c-0.2 3-1.7 5.5-5.4 7l-14.6 6.2c-1.7 0.4-2.7 1.6-2.3 4.7l0.2 11.1c0 1.3 0 2.5 0.1 3.8 0.9 9.2-10.1 9.4-10.2 0.9l-2.7-22.1q-1-4.7 2.6-6.5l9.9-4.6c1.1-0.5 1.8-1.4 1.8-2.9 0.4-1.8 2.4-3.1 5.2-4.2zm-4.7 23.7q0.2 3.5 0.4 7.1 5.2-1.6 10.4-3.3-1.9-1.8-0.3-3.3 5.7-2.9 11.4-5.9c2.1-0.8 3.8-0.9 5.1 0.2 1.1 1 1.8 2.7 1.6 4.1-0.2 0.9-0.6 1.8-1.6 2.8q-4.4 3.6-8.8 7.1 1.1 2 2.2 3.9c5.5-2.8 10.7-6.3 16-9.6q-0.6-1.8-1.3-3.7c2.1-0.1 4.9 3.1 4.3 6.8-0.2 1-0.2 1.1-1 1.7-2.1 1.7-4.1 3.5-6.2 5.2 1.6 1.5 3.1 2.9 3.9 4.4q5.1-3.4 10.2-6.8c1.2-1.1 2.1-2.2 2.2-3.8-0.1-2.6 0.1-5.1 1.1-6.9 5.2-13 7.1-24.4-4.6-29.4-4.8-1.6-9.4-1.4-13.9 1.2q-0.6 0.8 0.5 1.2c1.5-1.5 2.8-0.5 1.7 1.1-7.4 8.2 2.8 20.1 13.3 12.8 0.7-1.2 3.2-1.2 2.8 1.1q-0.6 2.4-1.1 4.8c-0.4 2.6-2.7 2.1-2.2 0.2q0.2-1 0.3-2c0.3-1.2-0.1-1.5-1-0.8-8.1 3.5-16.2-1.2-17-10.9q-2.9 1.5-5.7 3c-0.1 3.6-1.6 6.6-5.1 8.9q-8.2 3.5-16.4 7-1.5 0.6-1.2 1.8zm23.3-0.4q-4.6 1.6-9.3 3.2c-2.5-0.3-2.7-0.9-1.2-1.7q4.5-2.1 9-4.2c3-1.3 5.9 0.2 4.5 2.6q-0.7 1.3-1.7 0-0.6 0.1-1.3 0.1zm-58.7-34.4c2.5-1.3 2.6-3.2 1.6-5.5 8.2 2 14.3 6.9 19 13.9q-1.1 1-2.3 2c-4.6 0-9.4 0.9-14.2 2.7q-0.9-1.6-1.8-3.1-0.9-1-2.1 0.1-1.4 1.5-2.8 3.1-1.8 0-1.5-1.3 2-5.9 4.1-11.9zm-4.7 16.6q-0.2-0.9 0.7-1.8c10.2 0.5 14.9-3.4 21.8-2.8q-0.3 1-0.7 2c-5.9 0.2-13.5 4.6-21.8 2.6zm31.8 2.5q-2.7 1.4-5.4 2.8c-1.4 0.4-2.2 1.6-3 2.9-5.4-0.2-10-2-14.4-4.2q-1.2-2.2 0.6-2.5c4.5-1.4 8.5-2.4 11.3-2.4q0.7 1.5 2.5 1.6c0.8 0.8 2 0.9 3.3 0.9 1.4-0.4 2.9-0.6 4.5-0.2 1.8 0 1.6 0.1 0.6 1.1zm-32.8 9q3.5-1.4 7-2.8 1.7 0.7 3.4 1.3c-7.1 4.8 4.6 11.1 4.5 2 3.4 0.6 6.7 1.1 9.7 1.4q0.9 7.4 1.9 14.9-14 0.1-17.5 8.9-2.4-1.1-4.8-2.2c1.9-4.4 4.5-8.7 7.6-12.8-6.3-7.7-12.7-1.8-14.7 7.2-1.7-0.9-3.2-1.6-4.9-2.6 1.2-2.9 2.2-6.2 3.4-9.2q0.6-4 4.4-6.1zm27.1 21.9c-5-0.7-9.1 1.2-11.3 3.7 1.8 2.9 3.8 4.5 6 4.7 2.5-0.8 4.4-2.2 5.9-4q-0.3-2.2-0.6-4.4zm1.1 6.1c0.9 1.4 2.9 2.4 5.4 3.2-3.8 1.2-7.3 1.3-10.4 0 2.1-0.7 3.6-1.9 5-3.2zm-16.6-27.9c0.9 0 1.7 0.7 1.7 1.7 0 0.9-0.8 1.7-1.7 1.7-1 0-1.7-0.8-1.7-1.7 0-1 0.7-1.7 1.7-1.7zm-21.8 20c0.6-1.9 1.4-3 2.8-2.6 2.2 1 4.5 2.4 6.8 4.4 0.5 1.4-0.1 2.5-1.2 3.3q-3.8-3.3-8.4-5.1zm12.6 5.9c-0.3 0.4-0.7 0.9-0.9 1.3-0.7 1.1 0.1 1.1 1.1 1.6 2.4 1.2 4.8 2.6 7.5 4.4 0.5-1.3 1.5-2.9 0.5-3.6q-2.3-2.7-6.4-4c-0.6-0.2-1.2-0.3-1.8 0.3zm-12.9-3.7c2.9 0.9 5.7 1.9 7 4 0 2.1-7.2 5.2-10.5 1.9 1-2.2 2-4.4 3.5-5.9zm8.8 16c0-2.5 1-5.1 2.4-7.8q5.1 1.3 8 4.2c-0.8 3.4-5 4-10.4 3.6zm5.7-47.5q2.2-0.1 4.3-0.3c0.2 1.7-0.2 3.3-1.1 5q-0.2 0-0.5 0.1-2.1-2-2.7-4.8zm2.2-7.6c-1.1 0.5-1.6 1.3-1.9 2.2q2.3 0.2 3.6-0.3-0.3-0.9-0.6-1.7c-0.3-0.4-0.7-0.7-1.1-0.2zm-2.8 10.8c-3.6 0.8-5.2-1.1-6.8-3.1-2.5 1.7-5.1 2.8-7.9 1.1q-0.9 0.8 0 1.9c3 2.3 5.3 0.3 7.6-1 2.4 2.5 4.8 3.6 7.3 2.6 1.1-0.1 1.2-1.4-0.2-1.5zm-7.7-5.3c-2.2-0.1-4.5-0.6-6.5-1.6-2.1 4.4 4.4 5.7 6.5 1.6zm6.6 1.7q-1.9-0.4-3.8-0.7c-0.4 1.5 0.5 2.5 4.3 2.5q-0.3-0.9-0.5-1.8zm1.5-17.8c-1.1 3.2-2.2 6.5-3.4 9.6-0.3 1.8-1.8 1.3-0.9-0.1q1.7-5.1 3.4-10.1c0.4-0.9 1.3-0.2 0.9 0.6zm-13.2-4q-0.4 5.7-0.7 11.4c2.1 2.2 4.6 3 7.3 3.2q0.8-2.3 1.6-4.6c-3.1 0.4-5.4-0.2-6.7-2.2-2.8-4 2.9-6 8.4-2.6 0.3-0.8 0.7-2.1 1-2.9-0.7-3.2-0.2-4.5 1.2-5.3q0-0.3 0-0.6-1.6 0-3.1 0c-1.2 4.3-5 5.6-7.7 2.1q-0.6 0.8-1.3 1.5zm3.3-1.8c1.9 1.3 3.2 1.1 3.6-1.2 0.2-1.9-1.4-3-3.8-3.7-0.9 1.5-1.3 3 0.2 4.9zm4.3 9.6c-4.5 1.2-5.8-2.7-3.4-2.5 2.5-0.3 5.4 1.4 3.4 2.5zm-8.6 6c1.5 1 3.2 2 5.6 2.5q-0.2 0.8-0.4 1.6c-2.6 0-4.3-0.6-5.4-1.6-0.1-0.7 0.1-1.8 0.2-2.5zm14.7-15.6c1 0 1.8 0.8 1.8 1.7 0 1-0.8 1.7-1.8 1.7-0.9 0-1.7-0.7-1.7-1.7 0-0.9 0.8-1.7 1.7-1.7zm-6.2 18.2c0.8 0 1.6 0.6 1.6 1.4 0 0.7-0.7 1.4-1.6 1.4-0.8 0-1.6-0.7-1.6-1.4 0-0.8 0.7-1.4 1.6-1.4zm-10.4-28q1.7-0.4 3.5-0.8 3.6-1.5 7.3-3.1c-0.2 1.8-0.7 3.1-2 3.6-3.7 1-7.5 1.9-11.7 1.8 1.4-3.1 3.4-6.4 9.9-11.3q0.8-0.3 1.7-0.6 1.6 0.6 1 1.5-3.3 2.5-6.5 5c13.9-6.8 27.8-13.8 41.8-20.5 0.3 0.3 0.6 0.9 0.9 1.2q-22.9 11.6-45.9 23.2zm30-13.3q-6.7 3.3-13.4 6.5-1.2 0.7 0.5 1.3c2.7 0.3 4.4-0.8 5.7-2.3 6.1-0.5 5.7-4 7.2-5.5zm13.4 15.8c-5.4 0.3-10.4-2.9-15.1-9.9-2.7 0.6-5.4 1.4-7.6 3 6.8 13.1 15.7 18.4 25.5 17.9-2-3.6-3-7.4-2.8-11zm8.5 26.3c-2.5 0-5 0-6.1 1.8q-1.7 1.9-1.6 0.1c0.7-1.1 2-2.2 3.2-3.3 1.1-0.9-0.3-1.5-1-0.7q-0.7 0.6-1.4 1.1-0.6 0.3-1.2 0.7-0.6 1.1-1.2 2.2c-0.4 1.9-2 1.1-1.5 0q0.8-1.2 1.6-2.4 1.3-1 2.6-2c1.2-0.3 0.7-1.8-0.6-0.6q-1.6 0.8-3 1.9c-0.6 0.3-1.1 0.7-1.2 1.7q-0.6 0.9-1.1 1.8c-0.5 0.7-2 1.1-1.1-0.6 0.5-0.9 1.1-2 1.6-2.9 0.4-0.4 0.8-0.6 1.2-1q1.4-0.7 2.8-1.5c1.1-0.5 0.8-1.7-0.7-0.9q-1.8 1.1-3.7 2.1-0.7 0.1-1 1.3-0.5 1.2-1 2.4c-1.2 1.9-1.5 0.2-1.3-0.5q0.5-1.3 1.1-2.7 0.9-2.1 2.6-2.5 3.2-1.3 6.5-2.7 2.7 0 5.3-0.1c4.7-1.4 8.7-2.9 10.9-5.4 2.1-2.5 2.4-5.9 2.1-9.7 1.7-0.8 3.9-1.6 5.6-2.4 2.1 0.2 2.9 1.2 3.5 2.3q0 5.3 0 10.5 0 1.3-1.4 2.5-1.9 1.7-3.8 3.3c-3.1 1.1-6.4 1.6-9.8 1.9-3 0.3-5.1 2.1-6.9 4.3zm22-25c-1.4-4.9-4.3-7.5-10.5-5.2q1.3 4.4-3.9 4.2-2.1 1.9-5.2 1.3c-1.6 1.6-2.9 1.4-4.2 0.9q-2.2 1.9-4.7 1.1c0.3 4 1.5 7.2 4.4 8.4q2.1 1 2.8 4.9c5.6-0.8 9.7-3.2 10.4-9.1q0-1.5-0.1-3c-0.1-1.3 0.1-2.5 2.3-2.9q2.2-0.9 4.3-1.8c1.8-1 3.2-0.1 4.4 1.2zm-14.7-2.8c2 1.5 4-0.4 2.4-2q-8.1 1.6-16.3 3.2c-0.2 2.2 2.8 3.9 4.1 0.7q0.6-1 1.4-0.2c0.9 1.7 2.3 1.3 3.2-0.7q0.3-1 1.2-0.2c0.6 1.7 2.5 1.6 2.8-0.5q0.6-1 1.2-0.3zm-27.4-14.7q0.9-0.8 1.9-1.5 4.7-2.6 9.5-5.2c0.2 2.2 0.8 4.3-0.4 7.1q-0.3 2-0.5 3.9 0.7 0.6 1.4 1.1 0.1 0.7 0.2 1.4 0.3 0.5 0.6 1-0.1 1-0.2 1.9 1.3 1.2 2.5 2.3 2.6-0.1 5.2-0.2 0.5 0.5 1 1.1-4.2 0.8-8.4 1.6c-2.3 0.2-4.7 0.3-7.9-1-2.7-2.3-5.1-4.7-6.4-7q-1.8-1.1-0.6-2.8c0.5-1.5 1.3-2.6 2.1-3.7zm18.7 44c-1.1-0.2-2.3-0.1-3.2 0.5-1.3 1.2 0.9 2 3.2 0.5q0-0.5 0-1zm-7-9.5c-1.4-2.6-3.8-5.1-6.5-7.4 7.4 1.1 14.7 1.5 14.5 6.6-2.9-0.3-5.5 0.1-8 0.8zm1-40.5c-0.3 0.4-0.3 0.8 0 1.3 5-1.4 8.4 0.1 11.3 2.6q-0.1-1.1-0.1-2.2c2.1 0.5 4 1.8 5.9 3.3-1.5-2.6-3.8-4.5-7.4-5.4q-1.8-1.2-0.2-1.5c6.4 1.6 10.5 5.4 11.1 12.3q0 1.9 1.5 0.3c0.8-4.9-2.9-9.7-7.6-12.4-3.1-1.7-6.4-2.4-9.3-1.8-2.1 0.4-4.2 1.4-5.2 3.5zm13.8 8.3c-0.1-1.2-0.5-2.5-0.6-3.7 1.3 0.7 2.4 1.4 3.2 2 1.6 2.8-2.1 3.8-2.6 1.7zm4.9 0.4c-0.8 1.2-1.8 2.2-3.3 2.6 1.5 2.3 3.7 1.5 3.3-2.6zm-0.5 7.9l1.7-0.6-0.3-2.4-1.6 0.3zm-2 0.3q-3.1 0.7-6.2 1.4-0.6-0.6-1.2-1.2c-0.4-0.3-0.3-0.5-0.2-0.8q0.2-0.5 0.4-1.1c0.5-0.5 1.1-1 2.2-0.8 1-0.3 1.6-0.9 2.2-1.4 1.2-0.5 2.1 0.3 2.8 1.7q0 1.1 0 2.2zm-13.3 0.3q-1.2-0.5-1-1.3c4.4-2.5 7.2-5.6 9.4-9.1 0.5 1.4 1.1 2.7 2.1 3.9-1.2 1.6-3.4 1.9-5 3.1-0.8 0.5-0.7 1.4-1.7 2.4-0.2 0.2-0.9 0.5-1.2 0.7q-1.3 0.2-2.6 0.3zm-2.4-14.2c-0.6 2.3-1.2 4.5-1.6 6.9q0.7 0.5 1.3 1 0 0.6 0 1.2 0.3 0.4 0.7 0.9 0 0.8 0 1.6c5.7-3 7.9-6 9-9-2.1-3.3-5.3-4.2-9.4-2.6zm0.8 2.6q-0.2 1-0.3 2.1c2.1 0 3.8-0.4 5.5-0.8 0-3.7-4.3-4.8-5.2-1.3zm3.3 0.6l-1.8 0.1c-1.3-1.5 2.6-2.1 1.8-0.1zm19 83.8c-2.3 1.5-5.4 2.6-9.5 1.8 0.1-6.8 3.2-9.4 6.7-10.8 3 2.1 3.7 5.2 2.8 9zm4.6-2c0.5-4-0.8-7-3.4-9.4q-1.2-0.2-2.3 0.8c2.1 1.9 3.2 5.3 3.3 10.6 0.8-0.3 1.6-1 2.4-2zm2 7.2c-1.6-2.3 1.1-6.8 5.3-8.9q4.6 1.8 4.9 7.8c-3.1 1.3-6.6 1.6-10.2 1.1zm12.4-1.4c-0.2-3.9-2.3-6.8-5.5-9q0.9-0.7 1.7-1.4c4.1 2.2 5.9 5.4 5.7 9.4q-1 0.5-1.9 1zm21.8-19.2c3.6 3.8 7.5 5.6 11.1 5.6 1.7 0 3.4-0.3 4.8-1.2 0.4-0.3-0.5-0.6-0.1-0.9-10.1 1.2-19.8-5.9-13.1-17.3 0-0.7 0.3-1.3 1.5-1.9-0.1-1.2 0.8-1.4 2.1-1.1l0.2-5.3c-0.9-6.1-4.4-8.2-9.2-8.1l1.7 3.8c2 0.3 3.3 1.8 2.8 5.2-2 10.2-5.3 16.4-1.8 21.2zm15.5 2.4c-1.6-0.1-2.9 0.1-4.1-0.1-11-2-9.8-8.6-8.8-11.7 0.9 5.3 3.9 10.1 12.8 10.9q0 0.4 0.1 0.9zm-0.8-5.4c-0.7-2.7-5.7-5.6-8.5-10.9-0.8 4.4 0.9 8.2 8.5 10.9zm-10.6-9.1q0.4-1.9 0.8-0.5c0.2 5.8 3.4 9.5 9.6 11.2 1.3 0.5 1.1 1.8-0.2 1.3-7.2-1.2-10.4-5.1-10.2-12zm-21.3-58.3q-1 1.2-1.9 2.3c2.1 1 3.3 2.1 3 4.1 10.5 4.7 15.1 15 15.5 28.7q5.4 1.1 10.8 2.3c1.5-20.4-7.3-33.1-27.4-37.4zm0.9 7.9l-2.8 1-0.4 11.3h1l1.5-11 1.7 0.9 0.8-0.9zm-5.5 18.6c-0.4 2.8 1.2 4.3 5.3 4q-0.2-1.3-0.5-2.7c0-1.3-0.6-1.6-1.5-1.5q-1.6 0.1-3.3 0.2zm-10.5 3.8c2.6 0 5.1-0.5 7.6-2.1-0.5 2.4-2.4 4.1-7.6 4.1q0-1 0-2zm7.3-4.5q-3.3 0.2-6.6 0.3-0.2 1.1-0.5 2.2c4.4 0.4 6.1-0.9 7.1-2.5zm-6.4-1.5l0.2-2.9 5.8 0.4-0.3 2.3zm10-15.6c-3.9-3.4-6.6-3.3-8.8-2-1.7 0.9-3.5 2.4-3.6 4.2 0 1.3 1.1 2.3 2.1 3.2 1.4 1.3 3.9 2.2 6.9 1.1 1.2-0.5 2.1-1.4 3.6-2.4q0 3.4 0 6.9c-3.2 0.8-6.5 1.1-10.5-0.3q-2-4.3-3.9-8.5-1.1-1.8 0-2.6c3.3-5.3 7.9-6.1 13.3-4.3q-0.4 2.5 0.8 3.8 0.1 0.4 0.1 0.9zm-4.4-7.2c-0.4-2.5 0.6-4.3 3.4-5.3q-7.3-1.7-14.6-1.7 0.1 5.9 0.2 11.7c1.3-1 2.9-2.2 4.1-3.1-1.8-2.1-3.4-4-3.3-6.3q9.3-1.9 8.9 4.9 0.7-0.1 1.3-0.2zm-6.4-0.1c-1.1-1-1.7-2.2-2-3.4 1.6-0.2 3.1 0 4.7 0.6 2 2.7-0.9 4.3-2.7 2.8zm14.3-4.1c-0.8 1.5-1.6 3-2.7 4.5-3.1 2-4.6-1.8-2.5-3.3 1.7-0.9 3.5-1.4 5.2-1.2zm-1.4 6.6c1 0 1.7 0.8 1.7 1.7 0 1-0.7 1.7-1.7 1.7-0.9 0-1.7-0.7-1.7-1.7 0-0.9 0.8-1.7 1.7-1.7zm-2.7 17.3c1.1 0 2 0.9 2 1.9 0 1.1-0.9 1.9-2 1.9-1 0-1.9-0.8-1.9-1.9 0-1 0.9-1.9 1.9-1.9zm3.4 3.6l-0.3-2.6c1.8-1.1 2.4 2 0.3 2.6zm-8.7-17.6c1.6-0.1 2.8 0.6 3.7 1.4 0.7 0.6 1.3 1.4 1.3 2.3 0 0.8-0.4 1.4-1.1 2-1 0.8-2.4 1.6-3.9 1.6-2.8 0-5-1.8-5-3.6-0.1-1.9 2.2-3.5 5-3.7zm0.1 1.4c1.1 0 1.9 0.4 2.5 0.9 0.5 0.4 0.9 0.8 0.9 1.4 0 0.5-0.3 0.8-0.8 1.2-0.6 0.5-1.5 1-2.6 1-1.8 0-3.3-1.1-3.3-2.2-0.1-1.2 1.4-2.2 3.3-2.3zm0 1c0.6 0 1.1 0.2 1.4 0.5 0.3 0.2 0.5 0.5 0.5 0.7 0 0.4-0.1 0.5-0.4 0.8-0.4 0.2-0.9 0.5-1.5 0.5-1 0-1.8-0.6-1.9-1.3 0-0.6 0.9-1.1 1.9-1.2zm-5.6 29.3c2.8-1.4 6.4-3.8 6.4-1q0 1.2-0.1 2.4c-0.3 2.5-3.1 3.8-6.4 4.6q0-3 0.1-6zm-62.3-38.1c0.4-0.3 1.3-0.1 1.9 0.5 0.6 0.6 0.7 1.4 0.3 1.7-0.4 0.3-1.2 0.1-1.8-0.5-0.6-0.6-0.8-1.4-0.4-1.7zm-2.9 2.3c0.3-0.3 1-0.1 1.5 0.3 0.6 0.5 0.7 1 0.3 1.3-0.3 0.2-1 0-1.5-0.4-0.6-0.5-0.7-1-0.3-1.2zm6.2-3.9c0.5-0.3 1.3 0 1.8 0.7 0.5 0.6 0.6 1.4 0.1 1.7-0.4 0.2-1.2-0.1-1.7-0.7-0.6-0.7-0.6-1.5-0.2-1.7zm3.1-1.3c0.5-0.3 1.3 0 1.8 0.7 0.5 0.7 0.6 1.4 0.1 1.7-0.4 0.3-1.2-0.1-1.7-0.7-0.6-0.7-0.6-1.5-0.2-1.7z"/>
</svg>