<svg version="1.2" xmlns="http://www.w3.org/2000/svg" viewBox="0 0 144 204" width="144" height="204">
	<title>Malko-Tarnovo-svg</title>
	<style>
		.s0 { fill: #ffffff } 
		.s1 { fill: #009966 } 
	</style>
	<g id="Layer_x0020_1">
		<g id="_39183400">
			<path id="_38560992" class="s0" d="m8.2 8.9h127.8v24.4h-127.8z"/>
			<path id="_23953464" class="s0" d="m25.2 57.6h7.3v7.3h-7.3z"/>
			<path id="_39300152" class="s0" d="m37.4 57.6h7.3v7.3h-7.3z"/>
			<path id="_40672552" class="s0" d="m99.5 57.6h7.3v7.3h-7.3z"/>
			<path id="_39817936" class="s0" d="m111.6 57.6h7.3v7.3h-7.3z"/>
			<path id="_39075504" fill-rule="evenodd" class="s1" d="m17.9 51.5h34.1v19.5h-34.1zm7.3 13.4h7.3v-7.3h-7.3zm12.2 0h7.3v-7.3h-7.3z"/>
			<path id="_40673224" fill-rule="evenodd" class="s1" d="m92.2 51.5h34v19.5h-34zm7.3 13.4h7.3v-7.3h-7.3zm12.1 0h7.3v-7.3h-7.3z"/>
			<path id="_40673400" class="s1" d="m61.7 51.5h20.7v28h28v28h-76.7v-28h28z"/>
			<path id="_39816784" fill-rule="evenodd" class="s0" d="m44.7 136.7c3 1.7 6.1 2.8 6.1 7.4 0 2.7-2.3 4.1-4.9 4.8v-3.6h-2.4v3.6c-3.2-0.8-4.9-2.3-4.9-6.1 0-3.3 3.9-4.9 6.1-6.1z"/>
			<path id="_40673456" fill-rule="evenodd" class="s0" d="m99.5 136.7c3 1.7 6 2.8 6 7.4 0 2.7-2.2 4.1-4.8 4.8v-3.6h-2.5v3.6c-3.1-0.8-4.8-2.3-4.8-6.1 0-3.3 3.9-4.9 6.1-6.1z"/>
			<path id="_39817840" fill-rule="evenodd" class="s0" d="m72.7 139.2c3 1.6 6.1 2.7 6.1 7.3 0 2.7-2.3 4.2-4.9 4.9v-3.7h-2.4v3.7c-3.2-0.9-4.9-2.4-4.9-6.1 0-3.4 3.9-5 6.1-6.1z"/>
			<path id="_39297056" fill-rule="evenodd" class="s0" d="m36.3 154.6h14.6c-0.1 4.2 0 5.6 0 9.5-4-2.8-9.6-6.2-14.6-9.5z"/>
			<path id="_40674464" fill-rule="evenodd" class="s0" d="m93.7 154.3l15-0.1c-4.1 3.1-10.8 7.4-15 10.2z"/>
			<path id="_39172656" fill-rule="evenodd" class="s0" d="m8.2 153.8v-112h127.8v112c-9.4 6.3-55.9 37.2-63.9 41.8-22.4-13.8-43.2-27.2-63.9-41.8zm53.5-74.3h-28v28h76.7v-28h-28v-28h-20.7zm30.5-8.5h34v-19.5h-34zm-74.3 0h34.1v-19.4h-34.1zm54.8 113.2c1.6-1.3 43.1-26.2 53.5-34.1v-70.6h-6v67.1c-4.4 3.1-5.2 3.4-9.9 6.5l0.1-24.9c0-7.3-2.5-12.2-9.7-12.2h-1.2c-5.9 0-10 5-9.9 12.2 0.1 12.3 0.2 29 0.2 38.4l-7.2 4.2c-0.1-10.8-0.3-30.7-0.6-43.8-0.2-7.4-0.8-11-9.3-11-9.7 0-9.7 4.3-9.7 11l-0.6 43.9-8-4.8c0-9.5 0.5-26 0.1-38.5-0.2-6.9-2.7-11.5-9.5-11.6-6.9-0.5-10.3 3.1-10.5 9.2-0.3 9-0.5 19-0.8 28l-9.5-5.9-0.2-67.8h-6.1v70.6c5.4 2.8 53 33 54.8 34.1z"/>
			<path id="_40674520" fill-rule="evenodd" class="s0" d="m66.6 156.2l12-0.2 0.3 16.7c-3 2.2-2 1.5-6.2 4.2-2.6-1.7-2.6-1.6-6.2-3.9z"/>
			<path id="_39814768" fill-rule="evenodd" class="s1" d="m17.9 79.5h6.1l0.2 67.9 9.5 5.8c0.3-9.2 0.6-19.4 0.7-28.3 0.1-5.7 3.1-8.8 10.3-8.8 7.6 0.1 9.8 4.3 9.7 11-0.1 15.3 0.1 29.2 0 39l8 4.9 0.6-44c0.1-5.8 0.5-10.9 9.7-10.9 8-0.3 9.2 4.1 9.3 11 0.2 14.7 0.6 37.7 0.6 43.7l7.2-4.2c0-9.3-0.1-26.5-0.2-38.3-0.1-7.3 2.8-12.4 10.6-12.2 6.8-0.2 10.2 3.7 10.2 12.1l-0.1 24.9c4.8-3.1 4.2-2.7 9.9-6.5v-67.1h6v70.6c-9.7 7.7-49.8 31.9-53.5 34.1-4.5-2.6-49.4-30.6-54.8-34.1zm75.8 84.9c5.2-3.4 8.7-5.5 15-10.2l-15 0.1zm-42.8-9.8h-14.6c5.4 3.5 10.8 6.8 14.6 9.5zm21.8-15.5c-2.2 1.2-6.1 2.7-6.1 6.1 0 3.7 1.7 5.2 4.9 6.1v-3.7h2.4v3.7c2.6-0.7 4.9-2.1 4.9-4.9 0-4.5-3.1-5.7-6.1-7.3zm26.8-2.4c-2.2 1.1-6.1 2.7-6.1 6.1 0 3.7 1.6 5.2 4.8 6.1v-3.7h2.5v3.7c2.6-0.7 4.8-2.1 4.8-4.9 0-4.6-3-5.7-6-7.3zm-54.8 0c-2.2 1.1-6.1 2.7-6.1 6.1 0 3.7 1.7 5.2 4.9 6.1v-3.7h2.4v3.7c2.6-0.7 4.9-2.1 4.9-4.9 0-4.6-3.1-5.7-6.1-7.3zm21.8 36.3c3.5 2.2 3.6 2.1 6.2 3.9 4.7-3.1 2.3-1.5 6.2-4.2l-0.3-16.7-12 0.2z"/>
			<path id="_40674688" fill-rule="evenodd" class="s1" d="m0.9 157.4v-157h142.4v157c-12.7 8.7-65 42.7-70.6 46.3-25-14.8-44.2-27.5-71.8-46.3zm7.3-124.1h127.8v-24.4h-127.8zm0 8.6v111.9c21 14.8 42.1 28.4 63.9 41.9 7.8-4.5 51.9-33.7 63.9-41.9v-111.9z"/>
		</g>
		<path id="Layer" fill-rule="evenodd" class="s1" d="m13.9 27.5v-11.6h1.9l2.3 8.2 0.4 1.8q0.2-0.7 0.5-1.9l2.3-8.1h1.7v11.6h-1.2v-9.7l-2.8 9.7h-1.1l-2.8-9.9v9.9zm10.2 0l3.6-11.6h1.4l3.9 11.6h-1.4l-1.1-3.5h-4l-1.1 3.5zm2.8-4.8h3.2l-1-3.2q-0.4-1.5-0.7-2.4-0.1 1.1-0.5 2.2zm7.9-6.9h6v11.7h-1.2v-10.3h-3.5v6q0 1.8-0.1 2.7-0.2 0.8-0.6 1.3-0.5 0.5-1.2 0.5-0.4 0-1-0.2l0.2-1.4q0.3 0.2 0.6 0.2 0.4 0 0.6-0.4 0.2-0.4 0.2-1.8zm8.1 0h1.3v5.1q0.9 0 1.2-0.4 0.4-0.4 0.9-2 0.4-1.2 0.7-1.7 0.3-0.5 0.8-0.8 0.5-0.3 1.3-0.3 0.2 0 0.4 0.1v1.3h-0.2-0.3q-0.5 0-0.8 0.3-0.3 0.3-0.8 1.6-0.4 1.4-0.8 1.8-0.3 0.4-0.8 0.7 1 0.3 1.9 2l1.9 3.9h-1.5l-1.6-3.1q-0.8-1.5-1.3-1.9-0.4-0.4-0.9-0.4 0 0-0.1 0v5.4h-1.3zm7.4 6q0-3 1.4-4.6 1.3-1.6 3.2-1.6 1.3 0 2.3 0.7 1.1 0.8 1.7 2.1 0.6 1.4 0.6 3.3 0 2.6-1.2 4.2-1.3 1.8-3.4 1.8-2.1 0-3.4-1.8-1.2-1.7-1.2-4.1zm1.3 0q0 2.2 1 3.4 1 1.2 2.3 1.2 1.4 0 2.4-1.2 0.9-1.2 0.9-3.5 0-1.6-0.5-2.7-0.4-1-1.1-1.5-0.8-0.5-1.7-0.5-1.4 0-2.3 1.2-1 1.1-1 3.6zm15.7 5.7v-10.3h-3.2v-1.4h7.6v1.4h-3.1v10.3zm4.6-11.7h4.2v5h2.3q1.3 0 2 0.3 0.8 0.3 1.2 1.1 0.5 0.8 0.5 1.9 0 1.4-0.8 2.4-0.7 1-2.8 1h-3.7v-10.3h-2.9zm4.2 10.4h2.3q1.2 0 1.8-0.5 0.5-0.5 0.5-1.6 0-0.7-0.3-1.2-0.3-0.5-0.8-0.6-0.5-0.2-1.8-0.2h-1.7zm7.5 1.3v-11.6h3.6q1.3 0 1.9 0.2 0.8 0.3 1.3 1.1 0.5 0.8 0.5 2 0 1.6-0.8 2.6-0.8 1-2.8 1h-2.5v4.7zm1.3-6.1h2.5q1.2 0 1.7-0.5 0.5-0.5 0.5-1.6 0-0.7-0.2-1.2-0.3-0.5-0.7-0.7-0.4-0.2-1.3-0.2h-2.5zm7.7 6.2v-11.7h1.2v4.8h5v-4.8h1.3v11.7h-1.3v-5.5h-5v5.5zm9.3-5.7q0-3 1.3-4.6 1.4-1.6 3.3-1.6 1.3 0 2.3 0.7 1.1 0.7 1.7 2.1 0.6 1.3 0.6 3.2 0 2.6-1.2 4.3-1.3 1.8-3.4 1.8-2.1 0-3.4-1.9-1.2-1.7-1.2-4zm1.3 0q0 2.2 1 3.4 0.9 1.1 2.3 1.1 1.4 0 2.3-1.2 1-1.2 1-3.5 0-1.5-0.5-2.7-0.4-0.9-1.1-1.4-0.8-0.6-1.7-0.6-1.4 0-2.3 1.2-1 1.2-1 3.7zm9.5 5.7v-11.7h3.5q1.1 0 1.8 0.3 0.6 0.4 1 1.1 0.4 0.7 0.4 1.6 0 0.8-0.3 1.4-0.4 0.7-1 1.1 0.8 0.3 1.3 1 0.5 0.7 0.5 1.8 0 1-0.4 1.8-0.5 0.8-1.2 1.2-0.7 0.4-2 0.4zm1.3-6.8h2q0.9 0 1.2-0.1 0.5-0.2 0.8-0.6 0.2-0.4 0.2-1 0-0.7-0.2-1.1-0.3-0.4-0.7-0.6-0.4-0.1-1.4-0.1h-1.9zm0 5.4h2.4q0.7 0 1.1-0.2 0.6-0.2 0.8-0.7 0.3-0.4 0.3-1.2 0-0.6-0.2-1.1-0.3-0.4-0.8-0.6-0.4-0.3-1.4-0.3h-2.2zm7.3-4.3q0-3 1.3-4.6 1.3-1.6 3.3-1.6 1.3 0 2.3 0.8 1.1 0.7 1.7 2 0.6 1.4 0.6 3.3 0 2.6-1.2 4.2-1.3 1.8-3.4 1.8-2.1 0-3.4-1.8-1.2-1.7-1.2-4.1zm1.3 0.1q0 2.1 1 3.3 0.9 1.2 2.3 1.2 1.4 0 2.3-1.2 1-1.2 1-3.5 0-1.5-0.5-2.7-0.4-0.9-1.1-1.5-0.8-0.5-1.7-0.5-1.4 0-2.3 1.2-1 1.2-1 3.7z"/>
	</g>
</svg>