<svg version="1.2" xmlns="http://www.w3.org/2000/svg" viewBox="0 0 500 331" width="500" height="331">
	<title>Plovdiv_City-pdf</title>
	<style>
		.s0 { fill: #f8a03d } 
		.s1 { fill: none;stroke: #231f20;stroke-width: 1 } 
		.s2 { fill: #003c33 } 
		.s3 { fill: none;stroke: #ffffff;stroke-width: 1 } 
		.s4 { fill: #ffffff } 
		.s5 { fill: #005c4e } 
		.s6 { fill: #a91938 } 
		.s7 { fill: #00adef } 
		.s8 { fill: #231f20 } 
	</style>
	<path id="Path 2" class="s0" d="m499.3 194.9l-0.2 34.8c0 0-25.6 19-54 17.7 0 0 0 29.2 0 32.2-15.2 15.5-37.7 24.4-37.7 24.4l-0.5 0.2c-32.6 13.6-48 15.3-70.9 19-1.5 0.2-2.8 0.5-4 0.5-23.5 3.3-51.6 5.3-81.8 5.3-30.4 0-58.7-2-82.4-5.3-0.8-0.1-1.8-0.3-2.7-0.4-5.3-0.8-10.4-1.7-15.2-2.6-16.1-3-30.9-7-56-17.6l-0.6-0.2c0 0-22.5-8.9-37.8-24.3 0-3.1 0-32.2 0-32.2-28.3 1.2-53.9-17.7-53.9-17.7l-0.2-34.8c1.2 1 10.9 9.9 24.6 13.9 1.7 0.1 14.8 4.9 31.3 0.2 6-1.6 25.9-10.1 37-10.7 2.3-0.1 18.9 0.9 20 13.7 0 1.3 0.2 36.4 0.2 36.4-1.1 1.5-1.3 6.6-14.8 6.6-2.2-0.4-8.9-1.7-17.8-4-1.5 0-6.7-2.5-6.5 5.8 1.2 1.1 14.7 10.2 22 13.3l-0.5-0.2c9.9 4.5 18.5 8.1 28.2 10.8 0 0.1 0.1 0.1 0.3 0.1 0 0 0 0 0 0 26.7 8.6 72.6 14.3 124.8 14.3 52.1 0 98-5.7 124.7-14.3 0.1 0 0.2 0 0.3 0 0 0 0.1 0 0.2 0 9.7-2.8 18.5-5.4 28.4-9.8l-0.4 0.1c7.2-3 20.8-12.2 21.9-13.3 0.2-8.2-4.9-5.8-6.5-5.8-9 2.3-15.7 3.7-17.7 4-13.6 0-13.8-5.1-14.9-6.6 0 0 0.2-35 0.2-36.4 1.1-12.8 17.7-13.8 20-13.7 11.1 0.7 31 9.1 37.1 10.8 16.4 4.6 29.5-0.1 31.2-0.3 13.8-4 23.5-12.9 24.6-13.9z"/>
	<path id="Path 3" class="s1" d="m499.3 194.9l-0.2 34.8c0 0-25.6 19-54 17.7 0 0 0 29.2 0 32.2-15.2 15.5-37.7 24.4-37.7 24.4l-0.5 0.2c-32.6 13.6-48 15.3-70.9 19-1.5 0.2-2.8 0.5-4 0.5-23.5 3.3-51.6 5.3-81.8 5.3-30.4 0-58.7-2-82.4-5.3-0.8-0.1-1.8-0.3-2.7-0.4q-8-1.2-15.2-2.6c-16.1-3-30.9-7-56-17.6l-0.6-0.2c0 0-22.5-8.9-37.8-24.3 0-3.1 0-32.2 0-32.2-28.3 1.2-53.9-17.7-53.9-17.7l-0.2-34.8c1.2 1 10.9 9.8 24.6 13.9 1.7 0.1 14.8 4.9 31.3 0.2 6-1.6 25.9-10.1 37-10.7 2.3-0.1 18.9 0.9 20 13.7 0 1.3 0.2 36.4 0.2 36.4-1.1 1.5-1.3 6.6-14.8 6.6-2.2-0.4-8.9-1.7-17.8-4-1.5 0-6.7-2.5-6.5 5.8 1.2 1.1 14.7 10.2 22 13.3l-0.5-0.2c9.9 4.5 18.5 8.1 28.2 10.8 0 0 0.1 0 0.3 0.1 0 0 0 0 0-0.1 26.7 8.7 72.6 14.4 124.8 14.4 52.1 0 98-5.7 124.7-14.4 0.1 0.1 0.2 0.1 0.3 0.1 0 0 0.1-0.1 0.2-0.1 9.7-2.7 18.5-5.3 28.4-9.7l-0.4 0.1c7.2-3 20.8-12.2 21.9-13.3 0.2-8.2-4.9-5.8-6.5-5.8-9 2.3-15.7 3.7-17.7 4-13.6 0-13.8-5.1-14.9-6.6 0 0 0.2-35 0.2-36.4 1.1-12.8 17.7-13.8 20-13.7 11.1 0.7 31 9.1 37.1 10.8 16.4 4.6 29.5-0.1 31.2-0.3 13.8-4 23.5-12.9 24.6-13.9z"/>
	<path id="Path 4" class="s2" d="m57.4 280.6c0 0-1.3-47-1.3-48.1 0.4 1.3 3.2 6.6 3.2 6.6l-0.8 42.5zm4.6-38l-0.6 41.5-0.9-0.6-1.2-44.4c0 0 2.3 2.9 2.7 3.5zm2.5 3l-0.4 41-0.6-0.6-1.2-42.9c0 0 1.7 1.9 2.2 2.5zm2.6 2.8l-0.5 39.9-0.5-0.5-1-41.3zm2.6 2.6l-0.5 39-0.5-0.1-0.9-40.5zm2.5 2.4l-0.5 38.4-1.2-39.9zm2.5 2.3l-0.5 37.5-0.9-38.7zm2.5 2.1l-0.4 37.3-0.8-38.2zm2.7 1.8l-0.5 36.3-0.7-37.1zm2.6 1.7l-0.3 35.9-0.6-36.5zm2.7 1.9l-0.2 30.6-0.6-31zm2.3 19.7c0 0 0-17.8 0-18.2l0.6 0.3zm2.8-4.8c0 0-0.2-11.5-0.2-12 0 0 0.2 0.1 0.4 0.3v9.9zm-49.8-68.1v35.3h-0.2v-35.4zm-2.9 34.8h-0.2l-0.2-34.9h0.3zm-2.5-0.6l-0.5-0.1-0.1-34.6h0.4zm-2.8-34.8v34.2l-0.5-0.2v-34.1zm-2.5-0.4v33.8l-0.7-0.1v-33.8zm-2.8-0.5v33.6l-0.7-0.3v-33.5zm-2.5-0.5l0.1 33.2-1.1-0.4-0.1-33.2zm-2.5-0.8v33l-1.3-0.6v-32.9zm-2.3-0.9v32.8l-1.6-0.6v-33zm-2.7-1.3v32.9l-1.6-0.7-0.1-33.1zm-2.4-1.3l0.2 33.1-2.2-1.2v-33zm-2.5-1.4l0.1 33.1-2.3-1.4v-33.2zm-5.1 29.8v-32.9l2.5 1.4v33.1zm-2.7-1.8v-33.1l2.4 1.6v33.2zm-2.5-1.9l-0.2-33.5 2.4 1.9v33.3zm70.6-25h0.2v12.9h-0.1zm2.9-0.5l0.4-0.2v13.8h-0.3zm2.5-0.8l0.6-0.2v15.2l-0.5-0.1zm2.6-0.9l0.7-0.2v16.6l-0.6-0.1zm2.6-1l0.9-0.3v18.5l-0.9-0.3zm2.7-0.9l0.8-0.3 0.2 20.2-1-0.3zm2.6-0.7l1.1-0.3 0.1 22-1.2-0.5zm2.5-0.5l1.3-0.1v23.3l-1.3-0.5zm2.4-0.3h1.6l0.1 24.4-1.7-0.5zm2.6-0.1l1.8 0.2v24.9l-1.8-0.4zm2.4 0.2l2.1 0.5c0 0 0.2 24.2 0.2 24.5-0.5 0.1-2.3 0-2.3 0zm2.6 0.4l2.4 0.6c0 0 0 23 0 23.5-0.4 0.3-2.1 0.4-2.3 0.5 0 0.3-0.1-24.6-0.1-24.6zm2.8 0.8l2.3 0.9c0 0 0 21.3 0 21.6 0 0.2 0.1 0 0 0.1-0.4 0.3-2.3 0.7-2.3 0.7zm2.6 1.1l2.2 1.5c0 0 0.2 18.3 0.2 18.7-0.5 0.3-2.3 1.2-2.3 1.2zm2.5 1.5l2.5 2.2c0 0 0.1 13.1 0 13.6-0.4 0.8-2.5 2.3-2.5 2.3zm2.8 2.4c0.6 0.5 2.8 5.7 2.8 6.6 0 3.3-2.8 6.8-2.8 6.8 0 0 0.1-12.9 0-13.4zm-14.4 49.2h-0.2v-30.5h0.2zm2.8-30.5h0.3v30.7h-0.3zm2.5 30.7c0 0 0-30.9 0-30.9l0.7-0.2v31.1zm2.7-31.8h0.7v31.5l-0.6 0.1zm2.9-0.9l0.5-0.5v32.3h-0.8zm2.3-1.9l1.1-1v33.1l-1 0.8zm3.2-3.4c0.3-0.5 0.8-3.4 0.8-3.4v35.3l-0.8 1.7c0 0-0.3-33.2 0-33.6zm-57.4 13.4c-0.1-1.9 0.9-4.3 0.9-4.3v7.9c-0.6-0.9-0.9-2.6-0.9-3.6zm2-6.6c0.3-0.6 1.1-1.6 1.5-2.1 0 0 0.2 17.2 0.1 18.1-0.5-0.6-1.6-2.7-1.6-2.7 0 0 0-12.4 0-13.3zm2.8-3c0.7-0.7 1.2-0.8 1.2-0.8 0 0 0.1 21.5 0.1 23.5-0.4-0.3-1.3-1.8-1.3-1.8 0 0 0-20.5 0-20.9zm2.7-1.6c0.5-0.4 0.9-0.4 0.9-0.4 0 0 0.3 26.7 0.3 27.7l-1.2-1.3c0 0-0.1-25.2 0-26zm2.8-1l0.9-0.2c0 0 0.2 30.7 0.1 31.2l-1-0.6zm2.6-0.5l0.8-0.1 0.1 34.2-0.6-0.5zm2.7-0.2h0.6l0.3 36.8-0.7-0.6zm3 38.8l-0.1-38.6h0.5c0 0 0.2 39.1 0.1 38.9-0.1 0-0.5-0.3-0.5-0.3zm2.7-4.6l-0.1-33.6h0.3v33.6zm2.9-0.5v-32.5h0.3v32.6z"/>
	<path id="Path 5" class="s3" d="m75.4 255.8c0 0-18.8-14.7-19.8-25.6-0.1-1.5 0.1-10.3 9-13.3 1.3-0.3 8.2-2.2 16 0.4 1.9 0.6 13.8 5.6 19.4 5.4 6.5 0.8 15.5-5.4 14.5-12.6"/>
	<path id="Path 6" class="s2" d="m338.1 55.6v191c0 5.1-2.1 7.9-3.8 9.2-3.4 3-8 2.3-8.5 2.3h0.6-57.5c-5.5 0-13.8 7-16.5 9.3l-2.4 2-2.4-2c-2.7-2.3-10.8-9.3-16.2-9.3h-59c-1.1 0-4.2 0.1-6.8-2.3-2.1-2.1-3.2-5.4-3.2-9.9v-194.1h175.7z"/>
	<path id="Path 7" class="s4" d="m333.7 57.6v187.3c0 3.4-1 6-3 7.6-2.8 2.4-6.6 1.8-6.8 1.8h0.4-55.9c-7.3 0-17.2 8.3-17.2 8.3l-1.2 1-1.2-1c-0.1 0-9.8-8.3-16.9-8.3h-57.2q-0.1 0-0.2 0c-0.9 0-3.2 0.1-5.1-1.8-1.8-1.7-2.6-4.4-2.6-8.2v-188.5h166.9z"/>
	<path id="Path 8" class="s0" d="m329.4 151.6c0 0 0 83.2 0 91.9 0 7.5-6.9 7.3-6.9 7.3 0 0-46.6 0-54.4 0-7.8 0-18 8.5-18 8.5 0 0-9.9-8.5-17.5-8.5-7.6 0-55.9 0-55.9 0-2.1 0.1-5.5-1.3-5.5-7.3 0-8.7 0-91.9 0-91.9z"/>
	<path id="Path 9" class="s2" d="m252.3 59.2h77.1v88.5h-77.1zm-81.1 0h76.5v88.4h-76.7z"/>
	<path id="Path 10" class="s5" d="m241.1 217c0 0 13.3-18.7 14.8-20.9 1.9-3.2 10.9-8.6 19-0.4 0.5 0.7 11 12 16.2 17.9 2.2 2.5 3.8 3.4 3.8 3.4zm39.1-19.2c1-1.1 3.8-6.5 10.2-6.5 1.8 0.1 5.1 1.8 7.8 5 1.5 1.6 14.2 14.8 14.2 14.8h-20.2zm-42.4 19.4l-29.7-0.2c0 0 16.1-19.5 16.9-20.9 5.6-5.7 10-4.6 11.5-4.6 4.6 0 12 8.8 12.9 9.7zm-28-6.2h-21.6c0 0 12.4-13.3 13.8-14.9 2.8-3.3 6.1-4.5 7.9-4.5 4.7 0 9.6 5.2 10.7 6.2zm68.3-28.1c2.9 3 4.8 4.2 4.8 4.2h-65.8l20.1-22.4c1-0.8 5.3-6.3 11.3-6 0.1 0 0.6 0 0.6 0 5.9-0.1 10.4 5.3 11.5 6.2 0 0 11 11.2 17.5 18zm1.3-2l-17.3-17.8c8.9-10.3 17.7-0.1 18.5 0.8l16.3 17zm-78 0l15.5-17.3c0.9-0.8 8-9.1 18.2-0.2-4 4.9-15.7 17.5-15.7 17.5z"/>
	<path id="Path 11" class="s2" d="m249.9 120.4c0 0-2-2.8-6.1-3.9-2.6-1-6-1.1-10.6-1.6-2.3 0-2.6-3.1-2.6-3.1v-40.3c0-0.7 0.1-1.2-1.1-2.9 1.2 0.6 3.2 1.1 4.8 1.1 6.8 0 31.2 0 31.2 0 0 0 2.7 0 4.7-1.1-0.1 0.1-0.7 1.5-0.7 2.9 0 12.2 0 40.3 0 40.3 0 0-0.1 3.1-3.5 3-0.8 0-8.3 0.8-11.1 1.8-2.2 0.8-5 3.8-5 3.8z"/>
	<path id="Path 12" class="s4" d="m249.9 119.5c0 0-2-2.9-6.1-4.1-2.6-0.9-6.5-1.5-9.5-1.5-3.8 0-3.8-4.9-3.8-4.9v-38.4c0-0.7 0.2-1.2-1-2.9 1.2 0.6 3.2 1 4.8 1 6.8 0 31.2 0 31.2 0 0 0 2.7 0 4.7-1-0.1 0-0.8 1.5-0.8 2.9 0 12.2 0 38.4 0 38.4 0 0-0.7 4.9-4.5 4.9-0.8 0-7.2 0.7-10 1.7-2.2 0.7-5 3.9-5 3.9z"/>
	<path id="Path 13" class="s6" d="m267.2 104.9c0.2 6.8-5.7 7.5-6.3 7.5-0.6 0.2-4.5 0.9-5.7 1.2-1.9 0.5-5.3 3.5-5.3 3.5 0 0-3.9-3.2-5.4-3.5-1.6-0.3-6.3-0.9-6.5-0.9-5.3-0.1-5.6-3.4-5.6-3.4v-38.7h34.8c0 0 0 34.9 0 34.3z"/>
	<path id="Path 14" class="s0" d="m256.8 104.3c-0.2 0.4-1.2 2-1.2 2-0.2-0.2-3-1.7-6.3-1.7-3.4 0-6.2 1.5-6.5 1.7 0 0-0.9-1.6-1.1-2 1.1-1.6 6.6-2.5 7.5-2.6h0.1c0.9 0.1 6.4 1 7.5 2.6z"/>
	<path id="Path 15" fill-rule="evenodd" class="s0" d="m261.4 93.7h-0.1q-0.2-0.1-0.4-0.2c-0.1-0.1-0.1-0.3-0.1-0.5 0-0.1 0-0.3 0.1-0.3q0.2-0.3 0.5-0.3c0 0 0 0 0.1 0 0.3 0 0.6 0.4 0.6 0.8-0.1 0.2-0.4 0.5-0.7 0.5zm-0.3-3.1c0-0.5 0-1-0.2-1.2-0.1-0.3-0.2-0.4-0.3-0.5-0.3-0.4-0.7-0.5-0.9-0.5-0.1 0-0.1 0-0.2 0-0.2 0-0.1 0.3-0.2 0.5 0.2 1.3-1.7 5.3-1.9 5.8-0.1 0.2-0.3 0.6-0.5 1.2-0.5 1.1-1.2 2.6-1.5 3.1 0 0.1-0.1 0.2-0.1 0.2 0 0 0 0-0.1 0 0 0.1 0 0.3 0 0.4-0.1 0.3 0 0.7 0 0.8q0 0 0 0.1c0 0 0 0 0 0 0.1 0.1 0.2 0.1 0.2 0.2 0.3 0.2 0.8 0.1 0.9 0 0-0.4 0-1 0-1.3q0.2-0.4 0.6-0.6c0.3-0.3 0.8-0.3 1.1-0.5 0.3-0.6 1-2.3 1.7-3.9 0.3-0.9 0.6-1.7 0.9-2.4 0.1-0.3 0.2-0.6 0.3-0.9 0.1-0.2 0.2-0.4 0.2-0.5zm-5.9 6.9c0 0 0-0.1 0-0.2-0.1-0.4-0.5-0.8-1-0.8-0.5 0-1 0.5-1 1 0 0.5 0.5 1 1 1 0.5 0 0.9-0.3 1-0.8 0 0 0-0.1 0-0.2zm0-1.6c0.1 0 0.2 0 0.2 0 0.4-0.1 0.8-0.5 0.8-1 0-0.4-0.4-0.7-0.8-0.8 0 0-0.1 0-0.2 0 0 0 0 0 0 0-0.5 0.1-0.8 0.4-0.8 0.8 0 0.5 0.3 0.9 0.8 1 0 0 0 0 0 0zm0-6.1c0.1-0.2 0.2-0.4 0.2-0.6 0.1-0.2 0.1-0.4 0.1-0.5 0-0.4 0-0.8-0.1-1.1 0-0.2-0.1-0.3-0.2-0.4 0-0.1 0-0.1 0-0.1-0.2-0.5-0.6-0.7-1-0.9-0.5-0.2-1-0.3-1.3-0.3-1.2 0-1.4 0.4-1.4 0.5 0 0-0.1 9.6-0.1 9.8 0.2 0.5 0.2 1 0.2 1.3 0 1-1 1.7-1.1 1.7 0.3 0.3 0.4 0.3 0.7 0.3 1.1-0.5 1.5-2.4 1.6-2.6 0.5-1 1-2.3 1.4-3.6 0.4-1.1 0.8-2.3 1-3.1 0-0.2 0-0.3 0-0.4zm0-6.2c0 0 0 0 0 0 0.1 0 0.2 0 0.2 0 0.3 0.1 0.6 0.2 0.9 0.4 0.1 0 0.3 0.1 0.6 0.3 0.6 0.3 1.5 1.1 2.1 2.1 0.1 0 0.3 0.1 0.7 0.2 0.3 0 0.6 0.1 0.9 0.3 0.1 0 0.2 0 0.3 0.1 0.2 0.1 0.4 0.1 0.5 0.2 1 0.6 2 1.5 2 3.1 0 0.3-0.3 3.1-2 5.9v0.1c-0.1 0.2-0.3 0.6-0.5 0.9-0.1 0.3-0.2 0.5-0.3 0.7-0.4 0.7-0.8 1.4-0.8 1.4 0.2 0.2 0.5 0.7 0.4 1.5 0 0.2-0.1 0.5-0.5 0.9-0.3 0.2-0.7 0.3-1.4 0.6-0.3 0.2-0.8 0.2-0.8 1.7-0.1-0.1-0.4-0.4-0.6-0.7q-0.4-0.5-0.4-1.1c0 0-0.1-0.2-0.7-0.1q-0.1 0-0.4 0c0 0-0.1 0-0.2 0 0 0 0 0 0 0-0.2-0.1-0.6-0.1-1-0.3-0.4-0.2-0.8-0.6-1.3-1-0.2 0.1-1.3 0.2-1.8 0.2-0.2 0-1.3-0.4-1.6-0.7-0.1 0-0.1 0-0.1 0 0 0-0.1 0-0.2 0-0.3 0.3-1.4 0.7-1.6 0.7-0.5 0-1.6-0.1-1.8-0.2-0.5 0.4-1 0.8-1.4 1-0.3 0.2-0.6 0.2-0.9 0.3-0.3 0-0.6 0-0.7 0 0 0-0.2-0.1-0.3-0.1-0.2 0-0.2 0.2-0.3 0.2q-0.1 0.6-0.4 1.1c-0.3 0.3-0.6 0.6-0.7 0.7 0.1-1.5-0.5-1.5-0.7-1.7-0.7-0.3-1.2-0.4-1.4-0.6-0.5-0.4-0.5-0.7-0.6-0.9-0.1-0.8 0.3-1.3 0.5-1.5 0 0-0.5-0.7-0.8-1.4-0.1-0.2-0.2-0.3-0.3-0.4-0.2-0.5-0.4-1-0.6-1.2v-0.1c-1.6-2.8-1.8-5.6-1.8-5.9-0.1-1.6 0.8-2.5 1.8-3 0.2-0.2 0.5-0.2 0.6-0.3 0.1-0.1 0.2-0.1 0.3-0.1 0.3-0.2 0.6-0.3 0.9-0.3 0.3-0.1 0.6-0.2 0.7-0.2 0.6-1 1.5-1.8 2.1-2.1 0.2-0.2 0.5-0.3 0.5-0.3 0.1-0.1 0.2-0.1 0.2-0.2 0.4-0.1 0.8-0.2 1-0.2q0.5-0.1 0.9 0c1.4 0.1 2.6 0.6 2.8 0.7 1.2 0.5 0.9-0.2 0.9-0.3-1.4-0.5-1.5-2.1-1.4-2.2 0-1.5 1.7-2.4 1.9-2.5 0.2-0.3 0-0.5 0-0.5-0.7 0-1.5 0.4-1.6 0.4-0.3-0.2-0.4-0.9-0.3-1 0-0.6 0.1-0.9 0.2-1.1 0.7 0.4 1.6 0.4 1.7 0.3 0-0.1 0-0.3 0-0.4-0.4-0.7-0.4-1.5-0.4-1.6 0.2 0 0.7 0 1.3 0 0.5 0 0.9 0 0.9 0 0 0.1 0 0.9-0.3 1.6 0 0.1 0 0.3 0 0.4 0.1 0.1 0.9 0.1 1.6-0.3 0.1 0.2 0.3 0.5 0.3 1.1 0 0.1-0.1 0.8-0.3 1-0.2 0-0.9-0.4-1.6-0.4 0 0-0.2 0.2 0 0.5 0.2 0.1 1.9 1 1.9 2.5 0 0.1 0 1.7-1.4 2.2 0 0.1-0.2 0.8 0.8 0.3 0.2-0.1 1.5-0.6 2.8-0.7 0.3 0 0.7 0 1 0zm-17.9 10.1c0.3 0 0.4-0.2 0.5-0.3 0.1-0.2 0.1-0.2 0.1-0.4 0-0.1 0-0.1-0.1-0.2-0.1-0.2-0.3-0.4-0.6-0.4-0.3 0-0.6 0.4-0.5 0.8 0 0.2 0.2 0.5 0.5 0.5 0.1 0 0.1 0 0.1 0zm0.8 2.3c0 0 0 0 0.1 0 0.3 0 0.6-0.4 0.6-0.8-0.1-0.4-0.4-0.7-0.7-0.7q0 0 0 0c-0.1 0-0.1 0-0.1 0-0.1 0-0.1 0.1-0.2 0.1-0.3 0.1-0.5 0.4-0.4 0.7 0 0.3 0.2 0.5 0.4 0.7 0.1 0 0.2 0 0.3 0zm0.9-2.1c0.7 1.8 1.5 3.7 1.9 4.4 0.2 0.1 0.6 0.2 0.9 0.4 0.3 0.1 0.6 0.3 0.7 0.6 0 0 0 0.1 0.1 0.1 0 0.3 0 0.9 0 1.3 0.1 0.1 0.6 0.2 0.9-0.2 0.1 0 0.1 0 0.2-0.1 0-0.1 0.1-0.8-0.2-1.2 0-0.2-0.5-1.1-1-2.1 0 0.6 0 0 0 0-0.2-0.6-0.5-1.1-0.7-1.7 0 0.7 0 0 0 0-0.2-0.3-0.3-0.6-0.3-0.7-0.3-0.5-2.2-4.5-2-5.8 0-0.2 0-0.5-0.2-0.5-0.1 0-0.2 0-0.3 0-0.3 0.1-0.7 0.3-0.9 0.7-0.2 0.1-0.2 0.3-0.3 0.5-0.1 0.3-0.1 0.6 0 1q0 0 0 0.1c0.1 0.2 0.1 0.5 0.3 0.8 0.2 0.7 0.5 1.5 0.9 2.4zm0 4.3c0.5-0.1 0.8-0.5 0.7-0.9 0-0.4-0.3-0.7-0.7-0.7 0 0 0 0-0.1 0-0.5 0-0.7 0.4-0.7 0.9 0 0.3 0.4 0.7 0.8 0.7 0 0 0 0 0 0zm4.4-2.3c0.1 0 0.1 0 0.1-0.1 0.5-0.1 0.8-0.4 0.8-0.9 0-0.3-0.3-0.7-0.8-0.8 0 0 0 0-0.1 0-0.4 0-0.8 0.3-0.9 0.6q0 0.2 0 0.2 0 0.1 0 0.3c0.1 0.4 0.5 0.7 0.9 0.7zm-0.1-3.1c0-0.4-0.3-0.8-0.8-0.8-0.3 0-0.6 0.3-0.7 0.6q0 0.1 0 0.2 0 0 0 0.2c0.1 0.4 0.4 0.6 0.7 0.6 0-0.4 0 0 0 0 0.5 0 0.8-0.4 0.8-0.8zm-1.3-1.1c0.3 0 0.4-0.1 0.5-0.3 0.2-0.1 0.3-0.2 0.3-0.5 0-0.1-0.1-0.3-0.3-0.5-0.1-0.1-0.2-0.2-0.5-0.2 0 0-0.2 0-0.2 0.1-0.3 0.1-0.5 0.4-0.5 0.6 0 0.3 0.2 0.6 0.5 0.7 0 0.1 0.2 0.1 0.2 0.1zm0.4-2.8c0-0.4-0.3-0.7-0.6-0.7-0.3 0-0.6 0.3-0.6 0.7 0 0.3 0.3 0.6 0.6 0.6 0.3 0 0.6-0.3 0.6-0.6zm2 9.6c0.6 0 1-0.5 1-1 0-0.5-0.4-1-1-1-0.4 0-0.6 0.2-0.9 0.5 0 0.2 0 0.3 0 0.5 0 0.2 0 0.3 0 0.5 0.3 0.3 0.5 0.5 0.9 0.5zm1.7-1.6c0 0.2 0.5 2.1 1.5 2.6 0.3 0 0.5 0 0.8-0.3-0.1 0-1.2-0.7-1.2-1.7 0-0.3 0-0.8 0.2-1.3 0-0.2-0.1-9.8-0.1-9.8 0-0.1-0.2-0.5-1.4-0.5-0.3 0-0.9 0.1-1.5 0.4-0.3 0.2-0.6 0.5-0.9 0.9-0.1 0.4-0.2 0.9-0.1 1.5q0 0.3 0.1 1.1 0.4 1.2 0.9 2.9c0.5 1.5 1.1 3 1.7 4.2zm4.3-2.1c0-0.6-0.4-1-0.9-1.1h-0.1c-0.5 0-1 0.5-1 1.1 0 0.5 0.5 1 1 1h0.1c0.5-0.1 0.9-0.5 0.9-1zm-0.1-2.6c0-0.5-0.4-1-0.8-1q0 0 0 0 0 0 0 0h-0.1c-0.5 0-0.9 0.5-0.9 1 0 0.5 0.4 0.8 0.9 0.8h0.1c0.4 0 0.8-0.4 0.8-0.8zm-0.1-2.6c0-0.4-0.3-0.7-0.7-0.7h-0.1c-0.4 0-0.8 0.3-0.8 0.7 0 0.6 0.4 0.9 0.8 0.9h0.1c0.4-0.1 0.7-0.4 0.7-0.9zm0-2.2c0-0.5-0.3-0.8-0.7-0.8-0.4 0-0.7 0.3-0.7 0.8 0 0.3 0.3 0.7 0.7 0.7 0.4 0 0.7-0.4 0.7-0.7zm5.9 6.2c0.4 0 0.7-0.2 0.8-0.6q0-0.2 0-0.2 0 0 0-0.2c-0.1-0.3-0.4-0.6-0.8-0.6-0.3 0-0.6 0.2-0.7 0.4 0 0.2-0.1 0.3-0.1 0.4 0 0.1 0.1 0.3 0.1 0.4 0.1 0.2 0.4 0.4 0.7 0.4zm1.2-2.7c0-0.2-0.1-0.5-0.4-0.6-0.1-0.1-0.1-0.1-0.2-0.1-0.4 0-0.7 0.4-0.7 0.7 0 0.5 0.3 0.8 0.7 0.8 0.1 0 0.1 0 0.2-0.1 0-0.4 0 0 0 0 0.3-0.1 0.4-0.4 0.4-0.7zm0.2-2c0-0.4-0.3-0.7-0.6-0.7-0.4 0-0.6 0.3-0.6 0.7 0 0.3 0.2 0.6 0.6 0.6 0.3 0 0.6-0.3 0.6-0.6zm3 8.6c0-0.5-0.3-0.9-0.7-0.9h-0.1c-0.4 0-0.8 0.3-0.8 0.7-0.1 0.4 0.3 0.8 0.7 0.9h0.1c0.3 0 0.7-0.4 0.8-0.7zm0.4-1.6c0.2-0.1 0.4-0.3 0.4-0.6 0-0.3-0.1-0.6-0.4-0.7-0.1 0-0.1 0-0.2-0.1-0.1 0-0.1 0-0.1 0-0.3 0-0.7 0.3-0.7 0.7-0.1 0.4 0.2 0.8 0.6 0.8 0 0 0 0 0.1 0 0.1 0 0.2 0 0.3-0.1z"/>
	<path id="Path 16" class="s2" d="m229.1 83c0 0 1.1-0.1 2.9 1.2 1.6 0.6 0.2 3 3 3.2-0.2 0.5-0.5 2.2-3.1 3-1.1 0.2-1.7-1.3-2.4-1.3-0.2 0-0.2 1.8-0.4 1.8-0.1-0.6 0-7.9 0-7.9zm41.5 5.6c-0.9 0.4-1.2 0.9-1.9 1.2-0.8 0.1-1.2-0.2-1.8-0.3-2.8 0.1-2.7-1.6-2.9-2.1 0.2 0 1.2-0.3 2.3-1 0.1-0.1 0.4-1.3 0.4-1.3 1.7-1.3 3.2-2.1 3.2-2.1 0 0 0.8 4.9 0.7 5.6zm-0.6 19.7c0.2 6.3-1.3 5.6-1.8 6.2-3.7-0.1-6.2-1.4-6.6-1.9-0.6-0.4-1.1-1.9-1-2.5 0.2-0.3 1.7 0.3 2.2 0.4q0.6 0.1 0.3-0.4c-0.8-0.8-0.5-2.6-0.4-3.3 0 0 1.2 0.6 1.6 0.8 0.9 0.5 0.9 0.5 1 0.1-1.7-1.6-1.4-3.7-1.3-4.1 0.9 0.4 2.7 1.3 3.2 1.3 0 0 0-0.6 0.6-0.8 0.1-0.1 0.8 0.2 0.9-0.1 0.1-0.1-0.2-0.6-0.2-0.7 0.2-1.3-2.1-2.7-2.5-3.3 1.4-1.3 3.9-0.1 3.9-0.1 0 0 0.1 7.9 0.1 8.4zm-40-8.1c0 0-0.2-0.2 0.6-0.1 0.9 0.1 1.9-0.3 3-0.1-0.2 1-1 2.5-1.3 3.1-0.3 0.3-1 0.4-1 0.7 0.1 0.3 1.2 0.5 1.4 0.8 0.4 0.4 0.6 0.8 0.6 0.8 0.3-0.3-0.3 0.1 0.1-0.3 0.7-0.5 1.3-1.5 2.2-1.8 0.1 0.5 0.6 2.6-0.6 3.9 0 0.3-0.3 0.8 0.6 0.4 0.4-0.3 1.8-1 1.8-1 0.4 1-0.2 2-0.7 3 0 0.2 0.1 0.2 0.3 0.2 0.4-0.1 0.9 0 1.5-0.2 0.1 0.6-0.5 2.3-0.8 3-0.4 0.5-1.2 2.2-6.2 1.3-0.4-0.5-1.7 0.6-1.5-5.6 0-0.6 0-8.1 0-8.1z"/>
	<path id="Path 17" class="s4" d="m267.1 134.2c-2.2 1.2-2.4 2-2.5 2.4-0.1 0.5-0.2 0.5-0.5 0.6-0.2-4 2.5-4.4 2.8-4.4 0-0.2 0.3 1 0.2 1.4zm28 4.6c-1.2-0.1-1.6 0.9-1.8 1.3 0.1 0.8-0.3 0.5-0.3 0.5-0.4-0.7-0.1-1.5-0.1-1.9 0.4-1.4 2-1.7 2.1-1.7 0.1 0.5 0.2 1.5 0.1 1.8zm-15.1 0.6c0 0.2 0 0.5-0.1 1-1 1.8-2.7 1.3-3.1 1.3-0.5 0-0.2-0.2-0.2-0.4 0.5 0 0.7-0.2 1-0.2 0.7-0.2 0.7-1.4 0.7-1.7 0.4 0.1 1.5 0 1.7 0zm-10.4 1.6c-0.3 0.2-0.4 0.5-0.7 0.7-0.5 0.7-0.2 1.3 0 1.5 0.3 0.4 0.3 0.6 0 0.6-0.7-0.3-1.4-0.6-1.5-0.9 0-1.6 1.2-2.9 1.4-3 0.4 0.1 0.8 0.7 0.8 1.1zm-4.2-0.6c-0.5 0.6 0 1.5 0 1.7 0 0.4 0 0.3-0.1 0.3-0.9-0.5-0.9-1.7-0.9-2.2 0-1.6 0.5-1.8 0.8-1.8 0.3 0.2 0.5 1.1 0.5 1.1 0 0.7-0.1 0.7-0.3 0.9zm2-39.8c-0.5-0.3-0.3-0.5-0.3-0.5 1 0 2.1-0.1 2.1 0.7 0 0.5 0.1 1.2-0.3 1.2-0.5-0.8-1-1.1-1.5-1.4zm-2.6 5.2c-0.3-0.6-0.4-1.1-0.3-1.3l1.1 0.7c0.5 0.1 0.7 0.3 0.8 0.7 0 0.4 0 0.9-0.3 1.2-0.5-0.1-1-0.8-1.3-1.3zm30.3 34.5c0.2 0.4 0.6 1.6 0.8 1.8-0.6 0.4-1.7 1.2-0.6 2.6-0.2 0.2-0.4 0.7-0.8 0.1-0.5-0.6-0.8-1.8-0.6-2.8 0.3-1.6 0.5-1.7 1.2-1.7zm6.4 8.4c-0.8 0-1.1-0.2-2.3-2-1.6-2-0.6-2.9-0.3-3.4 0 0 1.3 0.6 1.8 1.4-1 0.6-0.8 2.9 0.8 4zm9.7-7.6c0.2 2.1-2.5 3.4-3.4 4.1-0.9 0.6-0.9 0-0.9 0 1-0.7 1.7-1.6 1.2-3.2 1.9-1.1 3.1-0.9 3.1-0.9zm-46.3-53.4c0.2 0 0.3 0.2 1.1-0.3l0.4-0.2c0.3 0.2 0.5 0.3 0.5 0.9 0 0.2 0 0.6-0.8 0.6-0.2 0-0.9-0.1-1.2-1zm-0.6 22c-0.1 0-0.6 0.1-0.7-0.4-0.1-0.1-0.7-0.4-0.4-1.6 0.1 0.1 0.4 0.2 0.8 0.4l0.4 0.2 0.4 0.3c-0.1 0.1-0.4 0.2-0.5 1.1zm-1.5 1.8c0 0.1 0 0.7-0.7 0.6-0.1 0-0.5-0.2-0.7-1l0.2-0.5c0.1 0.1 0.7 0.6 1.2 0.9zm-29.7-22.7c-0.8 0-0.8-0.4-0.8-0.7 0.1-0.5 0.3-0.5 0.5-0.8 0.2 0 0.3 0.1 0.4 0.1 0.8 0.6 0.9 0.4 1.2 0.4-0.4 0.9-1.1 1-1.3 1zm-1.3 51.8c1.3 1.3 1.1 2.7 1 3.1-0.1 1-0.5 0.7-0.7 0.6-0.2-0.2-0.1-0.2-0.2-0.6-0.1-0.7-0.8-1.4-1-1.5-0.6-0.1-0.6-0.3-0.6-0.5 0.5-0.3 0.6-1 0.8-1.3 0.4-0.1 0.5 0 0.7 0.2zm-25.5 1.8c0.4 1 0.1 1.8 0.1 2.5-0.1 0.8-0.6 0.8-0.7 0.5 0.3-2-0.8-2.3-1.3-2.7 0.1-0.3 0.3-1.5 0.5-2 0.5 0.2 1 0.9 1.4 1.7zm1.3-1.8c0.1 0.3-0.2 0.4-0.4 0.3-0.3-1.2-1.8-1.5-2.2-1.8 0.1-0.7 0-1.2-0.1-1.7 0.9 0 1.8 1 2 1.2 0 0.5 0.6 1.8 0.7 2zm-15.1 4.9c0 0 0 0.6-0.8-0.1-0.9-0.5-2.2-2-2.2-3.4 0 0 0.7-0.6 2.4 0.7 0.2 0.3-0.3 2.1 0.6 2.8zm31.4-3.1c-0.6 0.4 0.1 0.4-1.8 0-1.9-0.3-2-2-2-2.3 0.6 0.4 1.8 0.8 1.8 0.8 0.6 1.2 1.5 1.2 2 1.5zm-22.8 1.8c0.3 0.5 0.4 0.4-0.2 2.6-0.6 2.3-2.1 2-2.3 1.9 1.7-1.2 1.4-3.5 1.2-3.8 0.5-0.2 1.3-0.7 1.3-0.7zm36.5-33.4c-0.1 0.8-0.4 0.9-0.6 0.9-0.6 0.1-0.8-0.5-0.8-0.6 0.6 0 1.2-0.7 1.3-0.7 0.2 0.2 0.2 0.3 0.1 0.4zm-1.7 26.6c-0.3-0.1-0.4-0.2-0.5-0.8-0.1-0.3 0-1.1-2.1-2.3 0-0.3-0.2-1.7-0.1-1.5 0.3 0 2.9 0.5 2.7 4.6zm-0.6 0.8c0.5 1.3 0.3 2.4 0.3 2.7-0.1 0.6-0.2 1.8-0.4 1.8-0.4-0.3-0.3-0.8-0.1-1 0.3-0.8-0.7-1.4-1-1.7-0.2-0.3 0.2-0.8 0.2-0.8 0.3-0.4 0.4-1.2 0.4-1.5 0.5-0.1 0.5 0.3 0.6 0.5zm-0.4-33.6c0.2 0.2 0.2 0.5 0.1 1.1-0.1 0.6-0.8 1.5-1.2 1.5-0.4-0.2-0.4-0.7-0.4-1.1 0.5 0 1.3-1.8 1.5-1.5zm-4.8-3.7c0.4-0.1 2.3-0.2 2.7-0.4 0 0-0.7 1.5-1.5 1.7-0.5-0.3-0.9-1-1.2-1.3zm6.2 8.4c-0.1 0.5-0.4 0.5-0.4 0.4-0.4-0.1-0.5-0.6-0.6-0.7 0-0.1 0.2-0.3 0.2-0.4 0.1 0 0.1 0 0.3 0 0.4-0.3 0.9-0.9 0.9-1 0.2 0.7-0.3 1.5-0.4 1.7z"/>
	<path id="Path 18" class="s0" d="m221.3 73.1c-0.1-0.4-0.1-0.6 0-0.9 0.3 0.1 0.9 1.1 1.6 1.3 0.2 0.1 1.6 0.6 1.5 2.5 0 0.3-0.1 1.4-1.8 2.7-0.2 0.2-1.2 1-3 1.1-0.4 0-3.3-0.2-3.8-0.1-0.7-0.3-1.4 0.2-1.4 0.2 0.1-0.1 0.1-0.1 0.2-0.3v0.1-0.2-0.1l0.1-0.1c0.1-0.3 0.4-0.7 1-0.7 0.4 0 2.4 0 2.9 0 0.4 0 1.8 0.1 2.7-0.9 1-1 1.1-1.8 0.9-2.5 0-0.3-0.8-1.5-0.9-2.1z"/>
	<path id="Path 19" fill-rule="evenodd" class="s0" d="m196.4 94c-0.5-0.4 1-0.3 1.1-1.1 0.3-0.6 1.2-2.1 1.4-2.5 0.3-0.2 2-1.4 2.6-1.7 0.4-0.3 1.1-1.1 1.6-1.8 0.3-0.4 0.5-0.8 0.5-1 0.1-0.5 0.1-1.6-0.5-1.6 0 0 0 0-0.1 0.1-0.3 0.2-1.2 2-1.9 2.7-0.7 0.5-2.5 2.3-3.2 2.4-0.2 0-0.6-0.1 0.1-0.9 0.3-0.2 0.5-1.9 0.6-2.5 0.1-0.2 0-0.5 1-1 0.8-0.3 2.9-2.3 3.3-4 0.1-0.5 0.5-1.4-0.4-1.6-0.3 0.1-0.7 0.3-0.9 1.9-0.1 0.8-2.6 2.7-3.6 3.5-0.2 0.1-0.5 0-0.3-0.5 0.3-0.3 1.2-2 1.2-4.3-0.1-2.5 0.1-4.1 0.6-5 0.3-0.5 1.4-1.6 1.5-2.3 0-0.4-0.1-1.6-0.2-1.9-0.2-0.3-0.4-0.9-0.8-0.9 0.2-0.1 1.6-0.6 3.1 0 0.3 0.1 0.6 0.3 1 0.5 0.3 0.6 1.3 2 1.5 1.8 0.2-0.1 0.1-0.8-0.3-1.6-0.1-0.3-0.1-1 0.7-1.1 0.8-0.1 3-0.3 3.7-0.2 0.1 0 0.6 0 1.2 0 0.9 0.1 1.9 0.1 2.1 0.2 0.4 0.2 1 1.1 1.6 1.3 0.8 0.1 1 0.3 1.8 0.4 1.1 0.2 1.4 0.1 2.1 0.4 0.4 0.2 0.8 0.4 0.6 1.5 0 0.6 0 0.7-0.5 0.6-0.2-0.1-1-0.7-1.3-0.4 0.1-0.1-0.4 0.1-0.5 0.3-0.1 0.3 0.1 0.6 0.8 0.9 0.3 0.1 0.6 0.1 1 0.3 0.4 0.1 0.4 0.6 0.3 0.9 0 0.7-0.3 1.4-1 1.7-0.2 0-0.6 0.2-0.6 0.2l-0.1 0.7-1.1-0.1c0 0 0.2-0.8-0.8-1-0.2-0.1-0.5-0.2-0.9-0.1-0.9 0.1-1.3 0.5-1.3 1.8 0 1.2 1.1 1.8 1.7 1.8 0.4 0 1.3 0 1.4-1h0.9c0.2 0.2 0.1 0.8 0.8 0.9 0.3 0.1 0.8 0.4 0.7 1.3 0 0.3 0.4 1.6-1.2 1.5-0.6 0-1.3 0-2.1-0.4-1.2 0.2-3.7-0.2-4.4-0.3-0.1 0-0.1-0.1-0.2-0.1-0.4-0.1-1.5-1.1-2-1.8-0.2-0.1-1.5-0.8-1.5-0.1 0.2 0.5 1.2 2 3.3 2.5q0.2 0 0.4 0.1c1.2 0.4 3.4 1 4.4 2.1 1.1 1.2 2.9 2.8 3.7 3.2 0.1 0.2 0 0.4-0.5 0.4-0.6 0-3.4 0.2-4.5-0.1-0.4-0.1-1.3-0.3-1.8-2.1-0.2-0.4-0.4-1.5-1.3-1.9-0.2-0.1-0.5-0.2-0.7-0.2 0 0.6 0 1.1 0.6 2.1 0 0.1 0 0.2 0.1 0.2 0.6 1.2 1.9 3.8 1.9 5.7 0 1.9 0.2 2.5-0.3 3.1 0 0.3 0 0.8-0.3 0.8-0.2 0-0.7-0.2-1.3-0.5-0.5-0.2-1-0.5-1.4-0.8-0.8-0.7-1.6-1.4-2-1.9 0-0.2 0-1 0.2-1.3 0.2-0.4 0.8-1.5 0.8-2.3-0.1-0.8-0.6-1.8-0.9-2.2-0.4-0.3 0-1.6 0-1.8 0-0.3-0.6-1.1-1.1-0.5-0.5 0.6-0.6 1.2-0.6 1.5-0.1 0.2 1 1.4 1.2 1.9 0.2 0.5 0.4 2.4-0.3 3-0.1 0.3-1.7 2.8-3.2 3.6-0.2 0-0.3 0.2-0.5 0.3-1 0.5-1.3 0.5-2.7 0.8-0.4 0.1-1.6 0.5-2.1 0.9-0.3 0.1-1-0.2-0.7-0.5 0.3-0.2 1-0.7 1.5-1.7 0.2-0.3 2.1-2.2 2.8-2.8 0.2-0.2 0.8-0.6 1.2-1.2 0.2-0.3 0.3-0.7 0.4-1.2-0.1-0.1-0.2-0.4-0.4-0.6-0.2-0.3-0.6-0.3-1 0.6 0 0.4-0.5 1.5-2 2.2-1.5 0.7-2.1 1.6-2.6 1.8-0.5 0.2-0.8 0-1.1 0zm12.1-19.7c0.2 0.2 1.1 0.4 2.4 0.1 0.4-0.1 0.8-0.4 1.2-0.6 0.4-0.2 1.2-1.3 1.2-1.6 0-0.3 0-0.5 0-0.5-0.1-0.1-0.1-0.3-0.6-0.4-0.4 0-0.6-0.5-1.7-0.3h-0.1c-0.6 0.1-1.7 0.2-2.2 1.8-0.1 0.2-0.5 1-0.2 1.5zm-4.5-1.3c-0.1-0.5-0.5-1-0.9-1.3-0.5-0.5-1-0.7-1-0.7 0 0.9 0.3 2 0.5 2.2q0.3 0 0.5 0c0.4 0 0.8-0.1 0.9-0.2zm1.4 55c-0.2 0.4-2.2 0.2-4-0.7-0.3-0.1-0.7-0.2-0.7 0.2 0 0.6 0.5 1.5 1.3 2.1-0.2 0.1-2.4 0.6-4.5-1.1-0.9 0-2.8 0.5-2.8 0.5 0.2 0.8 0.2 2 0.5 3 0.6 1.6 0.6 3 0.6 3 0.6 0.4 2.2 1.2 2.2 1.2 1.4-0.7 4.7-1.7 6 1.2 0.2 0.5 0.2 1.5-0.1 1.7-0.2 0.1-0.5 0.3-2.3-0.5-0.2 0-1.6 0.5 0.1 1.1 0.5 0.3 2.2 0.2 2.2 1.2-0.2 0.6-0.6 1.4-0.9 2-0.4 0.3-0.9 0.7-1.8-0.1-0.9-0.9-1.5-1.7-2.4-1.9-0.5 0-1 0.5-0.2 1 0.3 0.1 1.2 0.5 1.7 1.2-0.7 0.1-1.8 1.1-2.2 2.1-0.4 0.2-0.7 0.5-2.3-0.5-0.6-0.5-0.8-0.6-1-1 0.1-0.5 0.9-1.3 0.8-2 0-0.3 0.3-0.9-0.9-1.7-0.2-0.1-0.2 0.1-0.4 0.1 0 0 0.2 0.3 0.4 1 0 0.3 0 1.6-0.8 1.8-0.3 0-0.5-0.1-0.9-0.8-0.4-0.2-1.3-1.1-3.3-0.9-0.6 0.1-1 0-0.9-0.9 0.2-0.4 1.1-1.5 2.1-1.6 0.6 0.1 1.2-0.1 1.2-0.8 0-0.3 0.1-0.9-1.2-0.5-0.5 0-0.7 0.5-1 0.8-0.4 0.4-0.5 0.9-1.5 0.9-0.8 0.3-0.7 0.3-0.9 0 0.5-0.7 1.2-1.3 1.7-2.1 0.3-0.8 1.1-1.6 1.2-1.9 0.3-0.4-0.2-1.2-1-0.4-0.2 0.4-0.5 1.3-1 1.9-0.3 0.5-1.3 1.8-2.5 1.9-1.1 0.1-1.1 0.2-1.7 0.9-0.2 0-0.6-0.1-0.2-1 0.4-0.4 2.1-2.6 3.1-3.3 0.5-0.7 1.3-1.8 0.3-2.2-0.7 0.1-1.2 0.7-1.4 1.7-0.2 0.8 0 0.8-0.6 1.3-0.6 0.6-1.9 1.2-2.3 1.8-0.3 0.4-0.3 0.3-0.7 0.3 0.2-0.2 0.4-0.4 0.4-1.7-0.1-1.1 0.1-1.5 0.2-2.1 0.1-0.8 0.5-1.4 1.5-1.8 0.6-0.3 1.6-0.4 2.4-1.5 0.7-1.1 0.7-1.2 0.6-1.7-0.4-0.4-1.2-0.4-1.9 1.6-0.3 0.3-2.3 0.5-3 1.3-0.4 0.2-0.3 0.3-0.8 0.8-0.3 0.3-0.5 0.4-0.9 0.2 0-0.3 0.4-0.3 0.6-1 0-0.4-0.4-2.2 0.4-3.1 0.4-0.7 0.9-1.5 2.4-1.7 0.4 0.1 1.5 0.3 2.2-0.9 0.3-0.7-0.1-1.4-0.7-0.9-0.7 0.6-0.3 1-1.9 1.3-1.6 0.2-1.1 0.1-1.7 0.5-0.2 0.2-1.3 1-1.4 0.2 0 0 0.3-0.2 0.7-0.6 0.5-0.4 1-2.4 3.6-4.2 0.7-0.2 1.2-1.1 4.6-0.2 0.7 0.2 1.8 1.5 3.3-0.8 0.5-0.6 1.1-1 1.7-6.6-1.7 0.4-3.8-0.5-5.1-2-0.6-0.7-2.4-2-1.7-6.4 0.1-1.7 3.9-15.1 4.1-16.4 0.2-1.2 1.3-6.5 1-7.7-0.2-0.8-0.7-3.4-3.7-3.4-1.2 0.1-2.4 0.6-3.7 2.1-0.6 0.5-2.3 1.1-3.3 0.1-0.1-0.3-1-1.6 0.5-2.4 0.4-0.2 1.2-0.2 1.5-0.5-0.5-0.4-2-1-2-2.7 0-0.6 0-1.8 1-2.1 0.2 0.4 0.4 1.4 1.8 1.9 1.4 0.5 1.5 0.7 2.1 0.6-0.2-0.4-1.6-0.8-1.4-2.5 0-0.4 0.2-1.8 1.8-2.2 0.1 0.7 0.1 3.2 4 4.3 0.3 0.1 4.8 1.5 4.4 7-0.5 5.2-2.3 11.2-2.7 12.7-0.1 0.6-2.6 9.3-2.5 11.4 0.1 0.7 0.2 5.5 4.7 3.1 0.5-0.2 6.9-5.4 7.9-9.9 0.3 0.6 1.2 3 1.2 3 0.3-0.1 2.6-1.6 3.1-2.2l0.3 0.1c0.2 0.4-0.2 1.7 0.2 2.3 0.7 0.5 2.5 0.4 4 0.7 3.4 0.8 5.7 2.6 7.4 3-0.2 0.3-3.3 1.8-6 1.6-0.9 0-4.9-0.6-7.7 2.5-0.3 0.6-1.4 1.6-1.7 4.9 0 0.5 0 4.7-0.6 7.1 0 0.5-0.4 0.8-0.5 1.2-0.2 0.6-1.2-0.3-0.9 0.4 1.6 1.1 1.5 2.2 2.2 2.8 0.4 0.3 1 0.3 1 0.5zm6.4-18.2c0.2 0.2 0.4 0 0.1 0.6-0.3 0.4-1.1 0.5-1.4 0.5-0.8 0.3-1.5 1.5-1.9 1.8-1.9 1.9-2.1 0.7-2.2 0.4 0.3-0.7 0.8-1.3 1.1-1.7 1.9-1.6 2.8-1.7 4.3-1.6zm24.6 2.7c-0.9 0.9-2.6 0.5-3 0.4-2.3-0.4-3.6-1.9-3.9-2.3-0.8-0.9-1.7-1.4-2.2-1.5-3.2-1.2-4.1-2.9-4.9-3.7-1.2 0.2-1.2-0.1-2.3-0.3-0.8 0-3.2-0.9-4.4-1.5-1.3-0.5-3.8-0.9-4.2-1-1.7 0.3-2.2-0.6-2.2-0.8 0 0-0.2-4.9 0.2-4.8 1.1 0.1 3.5 1.4 3.8 1.4 0.5-0.3 0.4-1.7 0.5-2 2.4 2.4 5.3 3.4 5.6 3.5 0.2-0.4 0.2-2.5 0.2-2.7 0-0.7 0.1-0.7 0.3-0.7 2.8 1.6 4.4 4.3 5.3 5.1 0.8 0.9 1 0.7 1.1 0.4 0.9-1.5 2-1 2.4-1 0.2 0.4 1.1 1.8 1.4 2.2-0.3 0.5-0.8 0.7-1.1 0.8 0 0 0.1 0.3 0.3 0.4 2.3 0.5 2.3 1 2.6 1.2 0.5 0.3 0.8 1.9 1 2.4 0.6 0.2 1.5 1.2 1.6 1.6 0.1 1.1 0.8 2 1.1 2.1 0.8 0.3 0.8 0.6 0.8 0.8zm-2.6 24.9c0.1 0.7-0.7 1.5-1 1.7-0.6 1-1.5 0.3-2 0-0.7-0.3-1.3-1.5-1.5-1.7-1.2-0.9-1.2 0.2-1.1 0.5 0.4 0.7 1.2 0.7 1.7 0.9 0.5 0.3 0.4 1.1 0 1.6-0.4 0.4-0.5 0.3-0.9 1-0.4 0.5-0.1 1.2-0.2 1.4-0.6 0.2-1.7-0.1-2-0.3-0.7-0.6-1.1-0.9-2.1-1.6-0.6-0.4-1.1-1-1.1-1.4 0.3-0.5 0.5-1.7 0.1-1.8-0.2-0.1-0.4-0.4-0.8 0.9-0.5 1.4-1.5 1.1-2.8 0.3-1.4-0.8-0.4-2.6-0.2-3-1.3-0.6-2.3-1.9-2.3-3.1-1.3 0.8-3.2 0.1-3.9-0.1-3-0.1-2.9 0.9-3 1.2 0.5 0.9-0.2 0.9-0.4 0.7-0.6-2.3 0.9-3.1 1.2-3.7 1.3-1.1 1.6-0.4 2.4-1.3 0.1-0.3-0.1-1-0.1-2.3 0-0.7 0.4-1.7 0.2-2.2-0.5-1.1-1-3.1-1.4-3.6-1.1-0.9-2.1-0.3-3.4-0.8-1.5-0.5-2.2 0-3.2-0.4 0-1.1 0.1-1.5 0-2.2-0.1-1.2-0.2-2.2 0-2.9 2.2 0.1 4.8-3.1 5.4-3.6 0.4 0.1 1.2-0.2 1.9-0.6 6.8 0.8 9.3 3 9.8 3.6 1.2 0.2 1.6 0.2 2.3 0 0 2-1.4 3.1-2.2 3.7-0.2 0.1-0.4 0.3-0.4 0.4 0.2 0.3 0.1 0.2 0.2 0.5 0.6 0 1.4-0.6 1.7 0-0.3 2 1.7 4.1 1.9 4.7-1.6-0.1-3.1-1.1-3.6-1.4 0.2 2 2.1 3.9 2.8 4.8-1.3 0-1.8-0.2-2.3-0.5-0.5-0.3-0.9-0.8-1.1-0.7 0.7 2.4 3 5.9 3.5 6 0.6 0 0.9-0.1 1.6-0.3 1.3-0.2 1.6-1.1 3.4-0.7 0.9 0.3 1.7 1.2 1.8 1.5-0.3 0.5-0.3 1.5-0.3 1.9-0.2 0.5-0.8 0.2-1.2 0.1-0.6-0.2-1.2-1-1.6-1-0.4 0.3-0.2 0.9 0.2 1.2 1.4 1.1 2.7 0.4 2.9 0.8 0.9 0 0.9 1 1.1 1.8zm-12.6-52.8c0.5-0.3 5.4-3.5 6-4.3 0.1-0.5-0.1-4.4 3.3-6v8.3c-0.2 0.3-0.5 0.6-0.3 0.9 0.1 0.3 1.4 1.1 1.7 1.5 0.5 0.3 0.7 0.9 0.2 1.4-0.2 0.3-0.8 1.8-0.2 2.9 0.2 0.3-0.1 0.3-0.7 0.2-0.5-0.1-1-1-1.1-1.4-0.2-0.5-0.4-1.8-1.1-1.8-0.4 0-0.9 0.4-0.4 1.3 0.2 0.3 0.4 0.7 0.2 0.8-0.2 0.3-1.4 1.1-1.7 1.5-0.3-0.1-2.1-1.9-3.1-2.6-0.5-0.4-2.1-1.9-3.1-1.9-0.2-0.2-0.4-0.3 0.3-0.8zm5.3 10.6c-0.3 0-1.4-0.3-1.8-0.5-0.3-0.4-2.2-3.3-2.9-3.9-0.3-0.1-1.3-1.6-1.6-2-0.5-0.5-2.2-2.8-2.5-2.9-0.3-0.2-1.3-0.8-1.4-1-0.2-0.1-0.2-0.3 0-0.3 0.3 0 6.1 2.2 7.9 4.7 0.5 1.1 2.3 4.7 2.8 5.2 0.3 0 0.6 0.3 0.5 0.6 0 0.1-0.2 0.3-1 0.1zm-10.3-3.8c-0.4 0.3-0.1 1.2 0.1 1.5 0.2 0.3 0.8 0.8 1.1 1 0.4 0.1 0.7 0.5 0.9 1.8 0.2 1.3-0.1 2.1-0.2 2.3-0.3-0.3-1-0.5-1.8-1-0.7-0.4-1.6-1.6-1.6-2.1-0.4-0.1-0.5-0.2-0.6-0.4 0.3-1.3-1-5-0.8-5 0.3 0 0.7 0 1.5 0.6 0.9 0.6 2 0.6 2.3 0.6 0.9-0.2 2.3 0.2 3 0.3 1.6 0.4 2.8 2.9 3 3.2 0.6 0.8 1.3 2.8 1.4 3.2 0.5 0 0.7 0.3 0.7 0.5 0 0.7-0.5 0.5-0.7 0.3-0.3-0.5-1.8-1.9-3.3-2.6-1.6-0.7-2.5-2.1-2.8-2.5-0.8-2.2-2-1.8-2.2-1.7zm-35.9 14c-0.9-0.1-0.7-1.9-0.7-2.4 0.5-0.3 0.4-1.7 0.4-2 0-1 0.1-1.3-0.4-1.6 0.2-0.6 0.8-1.1 1.2-1.4 1.6-2.3 1-4.9 1-5.6 1.3 1 1.8 2.3 2.2 3 0.4 0.8 0.8 3.1 0.2 4.1-0.6 0.9-3.4 3.6-3.8 4-0.3 0.4 0.4 1.6-0.1 1.9zm25.3-7.9c-2.2 0.7-2.5 0.9-3.7 2.6-0.9 1.3-1.2 2-1.6 2.2-2 1.7-2.3 0.8-2.3 0.6 1.5-1 2.1-4.5 2.1-5 2.8-0.4 6.1-3.2 6.4-3.4 0.4 0.2 0.6 0.4 1.3 1 0.7 0.7 0.1 2.6 0 3.2-0.4 1.6-1.9 2.2-2.6 2.5 0-0.4-0.6-1.7-0.7-2.3 0.9-0.6 1.1-1.1 1.1-1.4zm-25.8-0.7c-1.3 2.4-2.7 1.4-3.3 1.2-0.6-0.3-0.5-0.8-0.2-0.9 0.4 0.4 0.4 0.3 1-0.1 0.7-0.3 0.6-2.1 0.5-2.6-0.8-2.5-1.6-6.5-1.3-8 0.5-3.8 3.7-4.2 4.3-4.3 2.5 2.6 5.5 0.7 6.2 0.3 0.6 0.4 0.6 0.1 1.9 1.4 1.3 1.4 1.3 3.1 1.4 3.8 0.1 1.1-0.4 2.4-0.7 3.3-0.4 0.9-0.1 1.4-0.2 2.1-0.3-0.6-0.7-0.9-1.2-1.4-1.6-0.7-2.2-2.6-2.4-3.4-0.2-0.8 0.2-1.5 0.4-1.6 0.2-1.3-0.7-1.2-1.4-1-0.6 0.4 0 1.5 0 2.4 0 1.7 1 3.1 1.6 3.7 1.4 1.6 1.5 2.8 1.5 3.5 0 1.3-0.1 2.5 0.2 3.6-1 0.2-2.3-0.1-2.6-0.5 0.3-0.3 0-2.1 0-2.6-0.1-1.7-1.4-2.8-2-3.3-2-1-3.2-2.9-3.3-3.7-0.1-1.1 0.7-2.1 0.9-2.6-0.1-1.5-1.3-0.2-1.6 0.3-0.4 0.6-0.2 1.7-0.3 2.3 0 1.5 1.6 3.3 1.4 4 0.2 2.4-0.5 3.6-0.8 4.1zm23.9-31.4c0.7-1 1.7-1 2-1q0.2 0 0.2 0c1-0.7 1.8-0.6 2-0.5 0.1 0 0.1 0 0.2 0 0.4-0.3 1-1.1 0.9-1.2-0.2-0.1-0.6 0-1.1 0.1-0.2 0.1-0.5 0.1-0.7 0.1 0.2-0.4 0.2-0.9 0-1.3 0.3 0 0.5 0.1 0.7 0.1 0.4 0 0.8 0 1.1-0.1 0-0.5-0.3-1.2-0.4-1.5 0.4 0.1 0.6 0 0.9 0l0.1-0.1v0.1c0.4 0 0.4 0.1 0.9 0 0 0.3-0.3 1-0.3 1.5 0.3 0.1 0.6 0.1 1 0.1 0.3 0 0.5-0.1 0.7-0.1-0.2 0.4-0.1 0.9 0 1.3-0.1 0-0.4 0-0.7-0.1-0.4-0.1-0.9-0.2-1.2-0.1 0 0.1 0.6 0.9 1 1.2 0.1 0 0.1 0 0.2 0 0.3-0.1 1-0.2 2.1 0.5q0 0 0.1 0c0.4 0 1.3 0.1 2 1 0.1 0.2 0.7 1.2-1 2.4-0.1 0.2-0.6 0.4-0.8 0.8q0 0-0.2 0c-0.4-0.1-1.4-0.1-2.2-0.2-0.7 0-1.2 0-1.7 0-0.3 0-0.9 0-1.6 0-0.8 0.1-1.7 0.1-2.2 0.2-0.1 0-0.2 0-0.3 0-0.1-0.4-0.6-0.6-0.7-0.8-1.6-1.2-1.1-2.2-1-2.4zm8.7 2.2h0.7l0.3-0.3 0.9-0.7c0.4-1.1-0.6-1-0.8-1 0 0.1 0 0.3-0.1 0.5-0.3 0.6-0.9 1.3-1 1.5zm-2.1-0.4c0.2 0.1 0.5 0.1 0.6 0l1-1c0.6-1-0.4-1.3-0.6-1.3-0.1 0-0.1 0-0.1 0-0.6 0-0.7 0.4-0.9 0.5 0 0.1 0 1.6 0 1.8zm-3.1-1l1 1c0.2 0.1 0.4 0.1 0.6 0 0-0.2 0.1-1.7 0-1.8-0.1-0.1-0.3-0.5-0.9-0.5-0.3 0-1.2 0.3-0.7 1.3zm-2.3 0.4l0.8 0.7 0.4 0.3c0.1 0 0.4 0 0.6 0 0-0.2-0.6-0.9-1-1.5 0-0.2-0.1-0.4-0.1-0.5-0.2 0-1.2-0.1-0.7 1zm4.8 6.9c0-0.4 0-0.7 0.6-1.5 0 0 0.3-0.4 1-0.3 0.2 0 0.6 0.1 0.6 0.5 0 0.3 0.1 0.8-1.3 1.3-0.1 0-0.6 0.1-0.9 0zm65.6 2.2c0-1.9 1.1-2.5 1.3-2.5 0.7-0.2 1.3-1 1.6-1.2 0.1 0.5 0.1 0.4 0 0.7-0.2 0.8-0.7 2.2-0.8 2.5-0.2 0.8 0.1 1.4 0.7 2.2 0.8 0.9 2.3 0.9 2.8 0.9 0.5 0 2.3-0.1 2.8 0 1 0.2 1 1.6 0.7 1.5-0.2-0.3-0.5-0.3-0.7-0.4-0.5-0.1-3.1 0.1-3.6 0.1-1.7-0.1-3-0.9-3.3-1.1-1.6-1.3-1.5-2.4-1.5-2.7z"/>
	<path id="Path 20" fill-rule="evenodd" class="s0" d="m297.6 92.2c0.7 0.5 1.8 1.2 2.1 1.5 0.4 1 1.4 2 1.6 2.2 0.4 0.3-0.2 0.7-0.5 0.6-0.6-0.4-1.4-0.5-1.8-0.6-1.3-0.2-1.6-0.4-2.4-0.8-0.2-0.1-0.4-0.2-0.7-0.4-1.4-0.7-2.6-2.7-2.6-2.9-0.8-0.7-1.1-2.8-0.9-3.3 0.2-0.5 1-1.6 1.2-1.9 0.2-0.5 0-1-0.5-1.5-0.6-0.6-1 0.4-1 0.7 0 0.3 0.2 1.6-0.2 1.9-0.3 0.4-0.7 1.4-0.8 2.2 0 0.8 0.5 1.6 0.7 2 0.2 0.3 0.3 1.1 0.2 1.3-0.5 0.5-1.2 1.3-2.1 1.9-0.4 0.3-0.8 0.6-1.2 0.9v-8.9c0.1-0.1 0.1-0.2 0.1-0.3 0.6-1 1-1.7 0.7-2.2q-0.5 0-0.8 0.2c-0.8 0.6-1.2 1.6-1.3 2-0.5 1.7-1.6 1.8-1.9 1.9-1.2 0.3-3.6 0.3-4.3 0.3-0.5 0-0.8-0.1-0.7-0.3 0.8-0.4 2.9-2.3 4-3.5 1-1.1 3-1.5 4.2-1.8 0.1-0.1 0.3-0.1 0.5-0.1 2.1-0.5 3.1-2.2 3.3-2.7-0.1-0.8-0.9-0.6-1.4-0.1-0.4 0.7-1.3 1.7-2.3 1.9h-0.1c-1 0.3-3 0.2-4 0.2-1 0.6-1.6 0.7-2 0.7-1.5 0-1.6-1.2-1.6-1.5-0.1-0.9 0.4-1.1 0.8-1.2 0.3-0.1 0.5-0.1 0.5-0.7v-0.3l0.9-0.1 0.1 0.4c0 0-0.1 0.7 1.6 0.4 0.5 0 1.2-0.4 1.2-1.7 0-1.2-0.7-1.6-1.1-1.7-1.2-0.3-1.6 0.4-1.7 0.8l-0.1 0.1h0.1v0.2h-0.9l0.1-0.5c0 0-2.3 0-2.2-1.9 0.1-0.3 0-0.9 0.5-1 0.3-0.1 0.7-0.2 1-0.3 0.7-0.3 0.9-0.6 0.8-0.8-0.1-0.3-0.6-0.5-0.5-0.4-0.3-0.3-1 0.3-1.3 0.4-0.5 0.1-0.6 0-0.6-0.5-0.1-1.2 0.3-1.4 0.7-1.6 0.7-0.3 1.3-0.1 2.4-0.3 0.8-0.1 1-0.3 1.9-0.4 0.4-0.3 1-1 1.5-1.3 0.2 0 0.4-0.7 1.9-0.9 0.3-0.1 0.6-0.1 1.1-0.1 0.7 0 3.1 0.6 3.9 1.1 0.9 0.5 0.7 0.7 0.6 1-0.4 0.7-0.7 1.1-0.6 1.2 0.2 0.1 1.2-0.7 1.5-1.3 0.5-0.3 1-0.5 1.4-0.7 1.5-0.7 2.3-0.8 2.6-0.6 0 0-0.7 2.4-0.3 3.6 0 0.7 1 1.8 1.3 2.3 0.5 0.9 0.4 2.3 0.4 4.7-0.1 2.4 0.3 3.7 1.2 4-0.1 0.8-0.8 0.9-1.2 0.4-1.5-0.3-2.7-2.2-2.8-3-0.2-1.8-0.5-1.8-0.8-1.9-0.1 0-0.3 0.1-0.4 0.1-0.5 0.4-0.3 1-0.2 1.5q0 0.3 0.2 0.7c0.7 1.5 2.6 3 3.4 3.3 0.8 0.4 1 0.7 1.1 0.9 0 2.4 0.9 2.4 1.1 2.7 0.4 0.3-0.2 0.7-0.5 0.5-0.9-0.4-1.3-0.5-1.5-0.5-0.6-0.2-1.3-0.8-2-1.4-0.6-0.6-0.6-1.5-0.8-1.9-0.2-0.5-0.5-0.8-0.8-1 0 0-0.1 0-0.2-0.1-0.6-0.1-0.6 1.1-0.5 1.6 0 0.3 0.4 0.8 0.7 1.3 0.5 0.7 1 1.2 1.4 1.5 0.6 0.3 2.2 1.3 2.7 1.7 0.2 0.3 1.1 1.7 1.4 2.2 0.1 0.8 1.5 1 0.9 1.4-0.2 0-0.5 0.1-1 0-0.5-0.3-1.1-0.8-2.6-1.5-1.5-0.7-1.7-2.2-1.8-2.6-0.3-0.9-0.7-0.8-1-0.5-0.2 0.3-0.3 0.6-0.3 0.8 0 0.5 0.1 0.9 0.3 1.3 0.3 0.5 0.8 0.7 1 1zm-7-18c0.3-0.2 0.4-0.7 0.3-0.8-0.1-1.9-0.8-2-1.1-2.2-0.4-0.2-0.8-0.3-1.1-0.3-0.7 0-1.2 0.3-1.4 0.4-0.3 0.4-0.5-0.1-0.8 0.3-0.2 0.7 0.3 0.9 0.3 1.1 0.5 0.9 1 1.1 1.5 1.3 0.1 0 0.2 0.1 0.4 0.1 0.8 0.2 1.7 0.1 1.9 0.1zm6.3-1.2c0.3-1.3 0.3-1.5 0.7-2.3 0 0-0.4 0-1 0.3-0.4 0.2-0.9 0.7-1 1.7 0.3 0.1 0.6 0.3 1 0.3q0.2 0 0.3 0zm-8.2 14.1v8.9c-0.6 0.4-1.2 0.7-1.3 0.7-0.4 0-0.4-0.8-0.4-1.1-0.5-0.6-0.3-1.1-0.3-3.1 0-1.8 1.3-4.2 2-5.4zm5.6 10c-0.4 0.4 0 1.1 0.9 1.6-0.1 0.7-0.6 1.6-0.6 2.1-0.7-0.4-2.3-1.4-2.8-3.1-0.1-0.5-0.2-1.2 0.1-2.1 0.5-1.1 0.9-1.7 1.5-1.8 0.3 0.3 1.7 2.9 6.3 3.9 0 0.5 0.8 5.1 3.4 5.2 0 0.1 0.1 0.6-0.1 0.6-0.5 0.3-1.8 0.1-3.4-1.2-0.4-0.3-0.4-0.6-1.3-1.9-1.3-1.7-1.8-2.5-4-3.3zm-8.7-3c-0.1 0.2-0.3 0.6-0.6 0.7 0 0.5-1 1.5-1.7 1.9-0.7 0.5-1.4 0.7-1.8 1-0.1-0.2-0.2-0.7 0-2 0.2-1.3 0.7-1.7 1.1-1.9 0.3-0.1 0.7-0.8 0.8-1.1 0.3-0.3 0.3-1-0.1-1.4-0.2-0.1-1.4-0.6-2.2 1.4-0.8 2.3-1.4 1.1-2.5 2.3-1.5 1.6-3 2.5-3.3 3-0.1 0.2-0.6 0.4-0.6-0.3 0-0.2 0.1-0.5 0.6-0.5 0.2-0.4 0.7-2.2 1.3-3 0.8-1.3 1.8-3.1 3.4-3.6 0.6-0.1 1.9-0.4 2.7-0.3 0.3 0.1 1.1 0.1 2-0.5 0.8-0.6 1.1-0.3 1.4-0.3 0.3 0-0.7 3.3-0.5 4.6zm-10.1 0.1c-0.4 0.2-1.6 0.5-1.9 0.6-0.8 0.2-1.2 0.7-1.3 0.6 0-0.2 0.2-0.6 0.5-1 0.4-0.5 2.2-4.2 2.7-5.3 3-3.8 7.5-4.8 7.9-4.7 0.2 0 0.1 0.1 0 0.3-0.1 0.1-1.2 0.9-1.4 1.1-0.3 0.2-2.1 2.1-2.5 3.1-0.4 0.5-1.4 1.7-1.7 1.8-0.7 0.6-2 3-2.3 3.5zm-8.4-8.1c-0.5-0.5 0.4-1 0.8-1.3 0.4-0.3 1.3-1 1.5-1.2 0.2-0.3-0.2-0.6-0.3-0.8v-8.9c2.9 1.4 3.2 5.9 3.2 6.3 0.6 0.9 5.3 3.9 5.8 4.1 0.7 0.5 0.9 0.5 0.1 1.1-0.9 0-2.4 1.1-2.9 1.5-1 0.7-1.8 2.9-2.8 2.5-0.3-0.4-1.2-1.1-1.3-1.3-0.2-0.2 0-0.5 0.1-0.9 0.6-0.8 0-1.3-0.3-1.3-0.8 0-1.6 1.5-1.8 1.9-0.1 0.4-0.3 1.1-0.8 1.3-0.5 0.1-0.9 0.1-0.7-0.2 0.6-1-0.4-2.4-0.6-2.8zm20.9 23.7c-0.3-0.5-0.3-0.4 0-0.5 1.5-0.2 2.3 0.3 4.1 1.5 0.3 0.3 1.2 1.2 1.4 1.8 0 0.3-0.3 1.6-2.2-0.4-0.4-0.3-0.8-1.2-1.6-1.6-0.3 0-1.4-0.2-1.7-0.8zm30.5 16.2c0.5 0.4 0.7 0.7 0.7 0.7-0.2 0.7-1 0-1.2-0.2-0.6-0.5 0.1-0.6-1.5-0.9-1.6-0.3-1.1-0.4-1.8-1-0.6-0.5-1.3 0.4-1 1.1 0.7 1.2 1.9 1 2.3 0.9 1.5 0.2 2 0.8 2.3 1.5 0.8 0.9 0.4 2.7 0.5 3.2 0 0.4 0.1 0.4 0.1 0.4-0.4 0.2-1.1-0.3-1.4-0.6-0.4-0.5-0.6-0.4-1.1-0.6-0.4-0.5-1.5-0.2-1.8-0.6-0.7-2-1.4-2.1-1.8-1.6-0.1 0.5-0.2 0.8 0.6 1.9 0.8 1.1 1.8 1.2 2.4 1.5 1.5 0.6 1.5 1.8 1.7 2.6 0 0.6 0 0.3-0.1 1.4 0 1.2-0.1 0.8 0 1-0.3 0-0.7-0.4-1-0.7-0.4-0.6-0.5-0.4-1.1-0.9-0.6-0.6-0.6-0.5-0.7-1.3-0.2-1-1-1.7-1.7-1.7-1 0.3-0.2 1.5 0.4 2.2 1 0.7 2.2 2.5 2.7 2.9 0.3 0.9 0.5 0.7 0 1-0.6-0.7-0.6-0.3-2.2-0.8-1.2-0.3-1.4-0.7-1.7-1.1-0.5-0.7-0.8-1.9-1-2.3-0.8-0.8-1.5 0.3-1.2 0.7 0.1 0.3 0.7 0.8 1 1.6 0.5 0.8 0.8 0.7 1.3 1.5-0.1 0.2 0 0.6-0.7 0.3-1-0.1-0.7-0.4-1-0.7-0.5-0.8-0.9-0.8-1.3-0.9-1.4-0.4-1.1 0.3-1.1 0.6 0 0.7 0.5 0.8 1 0.8 1 0 2 1 2.2 1.3 0.1 0.9-0.1 1.1-1.1 1-1.6 0.2-2.5 0.7-2.8 1.1-0.5 0.6-0.6 0.8-0.9 0.8-1-0.3-0.9-1.6-0.8-1.9 0.1-0.7 0.3-1 0.3-1-0.2 0.1-0.2-0.2-0.4-0.1-1.2 0.8-0.8 1.4-0.9 1.6 0 0.8 0.8 1.6 0.8 2-0.2 0.5-0.6 0.7-1.2 1.3-1.5 1-1.5 0.5-2 0.4-0.3-1.1-1.4-1.9-2.2-2 0.6-0.7 0.7-0.7 1.1-1 0.7-0.5 1.3-1.2 0.8-1.2-0.9-0.1-0.8-0.1-2.1 1-1 0.7-1.1 1.5-2.4 1.1-0.3-0.6-0.7-1.3-0.9-1.9-0.2-1.5 1.7-1.1 2.2-1.4 1.7-0.5 0.3-1.3 0-1.3-1.8 0.9-2.1 0.7-2.3 0.6-0.4-0.9-0.1-1.4-0.1-1.9 1.7-2.3 4.5-1.6 5.9-0.9 0 0 1.7-0.7 2.2-1.2 0 0 0.1-1.5 0.7-3 0.3-1 0.2-2.2 0.3-3 0 0-1.9-0.5-2.7-0.5-2.6 2.1-4.4 1-4.6 0.9 1-0.6 1.2-1.2 1.2-1.9 0-0.4-0.7-0.1-1 0-1.8 1-3.5 1-3.6 0.7-0.2-0.3 0.8-0.5 1.2-0.8 0.7-0.6 0.4-1.4 1.9-2.5 0.3-0.7-1 0.2-1.1-1-0.1-0.4-0.5-1.6-0.6-2-0.5-2.5-0.2-4.8-0.1-5.4-0.3-3.2-1.4-4.3-1.7-4.9-2.8-3.1-7.2-2.8-8-2.8-2.7 0.2-5.5-1.1-5.8-1.5 1.8-0.3 3.3-2.1 6.7-2.9 1.5-0.3 3.7-0.2 4.3-0.7 0.5-0.6 0.1-1.8 0.2-2.1h0.8c0.5 0.6 2.8 1.5 3.1 1.6 0 0 0.4-1.5 0.7-2 1 4.4 7.6 8.6 8.1 8.9 4.5 2.3 4.8-2.6 4.8-3.3 0.2-2.1-3-10.3-3.1-10.9-0.4-1.5-2.3-7.5-2.7-12.6-0.4-5.6 4.1-7 4.4-7.1 3.9-1 3.9-3.6 3.9-4.3 1.6 0.4 1.9 1.8 1.9 2.1 0.1 1.8-1.2 2.2-1.4 2.6 0.6 0.1 0.7-0.1 2.1-0.6 1.4-0.6 1.6-1.6 1.8-1.8 1 0.2 1 1.4 1 2 0 1.7-1.5 2.3-2 2.7 0.2 0.2 1.1 0.4 1.5 0.5 1.5 0.8 0.6 2.1 0.5 2.4-1 1-2.7 0.3-3.3-0.1-1.2-1.5-2.5-2-3.7-2.1-3 0-3.5 2.7-3.7 3.3-0.4 1.3 0.8 6.6 1 7.8 0.2 1.3 4.6 14.8 4.7 16.4 0.7 4.5-1.5 6-2 6.8-1.4 1.5-3 1.7-4.9 1.2 0.7 5.6 1.4 6 1.8 6.7 1.5 2.2 2.6 1 3.3 0.9 3.4-1 4-0.2 4.6 0 2.7 1.8 3 3.5 3.5 4zm-24.6-11.2c0.2 0.6 0.2 1.6 0 2.7 0 0.7 0 1.1 0 2.2-0.9 0.4-1.6-0.1-3.1 0.5-1.4 0.4-2.3-0.2-3.5 0.8-0.3 0.5-0.8 2.3-1.3 3.5-0.2 0.5 0.2 1.5 0.2 2.2-0.1 1.3-0.3 2.1-0.1 2.3 0.8 0.7 0.2 0 1.7 0.8 0.5 0.5 1 0.2 1.7 2.2-0.2 0.3 0.4 1-0.8 0.3-0.2-0.2-1.2-0.8-2.8-0.1-0.7 0.2-1.6 0.4-3.2 0.1-0.3 0.8-1.3 2.4-2.6 3 0.2 0.4 1.6 2.2 0.2 2.8-1.2 0.6-2.4 1.2-2.8-0.2-0.5-1.3-0.7-1.1-1-1-0.3 0.2-0.2 1.4 0 1.9 0 0.3-0.5 0.9-1.2 1.3-0.9 1.1-1.3 1.1-2 1.6-0.3 0.2-1.5 0.4-2.1 0.2-0.1-0.2 0.3-0.7 0-1.3-0.5-0.6-0.3-0.5-0.7-0.9-0.3-0.5-0.8-0.8-0.3-1.3 0.5-0.7 1.4-0.2 1.8-1 0.2-0.2 0.4-1.1-1.4-0.2-0.1 0.2-0.7 1-1.4 1.3-0.5 0.2-1.5 1.6-2.1 0.6-0.2-0.2-1-0.9-0.8-1.7 0.1-0.7 0.1-1.6 1-1.7 0.2-0.3 1.6-0.1 2.9-1.3 0.5-0.3 0.9-0.8 0.5-1.2-0.4 0-0.7 0.4-1.2 0.6-0.6 0-1.6 1.3-1.6 0.8 0-0.4-0.2-1.9-0.3-2.3 0.1-0.3 0.6-1.5 1.5-1.8 1.8-0.4 2.1 0.6 3.4 0.8 0.7 0.1 1 0.3 1.6 0.3 0.4-0.2 2.7-3.1 3.5-5.4-0.2-0.1-0.6-0.3-1.1 0-0.5 0.3-1.1 0.4-2.3 0.4 0.6-0.8 2.6-2.7 2.9-4.6-0.7 0.2-2.1 1.2-3.8 1.3 0.3-0.6 2.4-2.1 2-4.2 0.4-0.6 1.2 0.1 1.8 0 0-0.2 0-0.2 0.1-0.4v-0.5c-1.3-1.1-2.4-2.2-2.3-4.2 0.7 0.1 0.9 0.4 2.2 0.1 0.5-0.5 3-2.7 9.9-3.5 0.7 0.5 1.1 0.7 1.5 0.6 0.6 0.4 3.2 3.7 5.4 3.6zm29.3-17.1c-0.7 0.3-1.8 0.5-3.5-1l-0.5-1.9c-0.3-0.5-0.2-0.6 0-2.9 0.3-2.2 1.3-1.7 1.6-3.4-0.1-0.6 0.1-2.1-0.3-2.7-0.2-0.6-1.6-1.7-1.7-0.3 0.2 0.5 0.9 1.8 0.8 2.9-0.2 0.8-1.8 2.5-3.8 3.5-0.6 0.5-1.7 1.8-1.8 3.5 0 0.5 0.1 2 0.4 2.3-0.4 0.3-1.4 0.8-2.4 0.5 0.4-1 0.2-2.1 0.1-3.4 0-0.7 0-1.8 1.3-3.4 0.6-0.6 1.5-2.1 1.7-3.8 0-0.9 0.5-2-0.2-2.5-0.5-0.1-1.5-0.2-1.2 1 0.2 0.2 0.9 0.5 0.7 1.3-0.2 0.8-1.6 2.6-2.5 3.4-0.5 0.6-1 0.8-1.3 1.4-0.1-0.6 0.2-1.2-0.1-2-0.4-1-0.8-2-0.7-3.1 0.1-0.6-0.2-1.8 1-3.1 1.3-1.4 2.1-1.6 2.7-1.9 0.7 0.2 3 2.2 5.5-0.5 0.6 0.2 3.8 0.6 4.3 4.5 0.3 1.5-0.6 4.8-1 7.9 0 0.4-0.2 2.2 0.4 2.5 0.6 0.4 0.9 0.2 1.1 0.4 0.3 0.1 0 0.6-0.6 0.8zm-2.9 4.7c0 0.6 0.4 2.2-0.6 2.3-0.4-0.4 0.1-1.4-0.2-1.9-0.4-0.3-3.3-3.1-3.9-4-0.6-1-0.5-2.8-0.2-3.6 0.5-0.8 1.1-1.5 2.5-2.5-0.1 0.7-0.5 2.5 1.2 4.8 0.3 0.4 0.9 0.8 1.2 1.4-0.6 0.3-0.5 0.6-0.5 1.6 0 0.3 0 1.5 0.5 1.9zm-53.8 10.5c-0.4 0.1-2 0.5-3.4-0.3 0-0.2 0-0.5 1.2-1 0.3-0.2 0.9-1 0.9-2.1 0.2-0.4 1.1-1.2 1.7-1.5 0.2-0.7 0.5-1.7 0.9-2.2 0.2-0.4-0.6-0.5 1.7-1 0.9-0.4 0.8-0.5 0.8-0.5-0.4-0.5-0.6-0.3-0.9-0.8 0.3-0.6 0.6-2.7 0.8-3.4 0.2-0.3 1.1-0.2 1.8 0.9 0.1 0.3 0.3 0.8 1.4 1 0.3 0.2 0.5 0.2 1.4-0.7 0.8-0.8 1.4-3.3 5-4.8 0.2 0 0.1 0.3-0.1 1 0 0.2 0.2 2 0.4 2.4 0.3-0.1 2.1-1.1 3.8-1.6 0.6-0.2 1.4-1.7 1.9-2.3 0.5 0.2 0.4 1.9 0.8 2.2 0.4 0 3-1.6 4.1-1.8-0.1 0.1-0.6 0.5-0.5 1.4 0.2 1.9 0.2 3.7 0.2 3.7-0.1 0.2-0.7 1.1-2.4 0.8-0.4 0.1-2.9 0.5-4.2 1-1.3 0.6-3.6 1.5-4.4 1.5-1 0.2-1.1 0.5-2.3 0.3-0.8 0.8-1.3 2.5-4.4 3.5-0.5 0.7-2.4 1.1-3.6 2-0.4 0.5-1.1 2-2.6 2.3zm24.3-16.5q0 0-0.1 0 0.1 0 0.1 0zm-3.2-24.6c0.3-0.1 1.5-0.4 1.9 0.7 0 0.1 0.1 0.2 0.2 0.3 0.1 0.2 0.2 0.2 0.1 0.4 0 0.2-0.6 0.5-1.3-0.1-0.2-0.2-1.1-0.4-0.9-1.3z"/>
	<path id="Path 21" class="s7" d="m171.1 227.9v-2.4c7.1 1.9 21.3 3.9 34.4-3.9 2.5 1.4 22.7 13.3 44.3-0.5 1 0.8 24.4 14.5 44.3 0.6 1.5 0.7 20.8 11.6 35.3 4.2 0 0.4 0 2.3 0 2.3-14.4 7.5-33.8-3.5-35.3-4.1-19.9 13.8-43.2 0.1-44.2-0.6-21.6 13.8-41.9 1.8-44.3 0.4-13.1 7.9-27.4 5.9-34.5 4zm0 4.4v-2.3c7.1 1.8 21.3 3.8 34.4-4 2.5 1.4 22.7 13.4 44.3-0.5 1 0.8 24.4 14.5 44.3 0.7 1.5 0.5 20.8 11.6 35.3 4.1 0 0.5 0 2.3 0 2.3-14.4 7.5-33.8-3.5-35.3-4.1-19.9 13.9-43.2 0.2-44.2-0.7-21.6 13.9-41.9 2-44.3 0.5-13.1 7.8-27.4 5.8-34.5 4zm0 4.2v-2.3c7.1 1.9 21.3 3.9 34.4-4 2.5 1.4 22.7 13.4 44.3-0.4 1 0.7 24.4 14.4 44.3 0.6 1.5 0.6 20.8 11.6 35.3 4.1 0 0.5 0 2.3 0 2.3-14.4 7.6-33.8-3.5-35.3-4.1-19.9 13.9-43.2 0.2-44.2-0.6-21.6 13.8-41.9 1.9-44.3 0.4-13.1 7.9-27.4 5.8-34.5 4z"/>
	<path id="Path 22" fill-rule="evenodd" class="s8" d="m305.1 313.1c0.1 0.2 1 4.1-3.1 7.4-0.2 0.2-1.5 1.5-4.2 2.2-0.1 0-0.2 0-0.2 0-0.7 0.1-3 0.2-3.8 0.1-0.3 0.1-2.3 0.1-3.3 0.4-0.1-0.2-0.2-0.4-0.2-0.4 0.2-0.1 1-1 0.8-4.7 0-0.2-0.3-6.4-0.5-8.4 0-0.7-0.6-8.5-0.8-9.6-0.1-0.3-0.2-0.9-1.9-0.9 0-0.2-0.1-1.1 0-1 0.6 0.1 5.2 0.2 7.4-0.3 0.3 0 1.2-0.1 2.3-0.1 1.2 0 2.6 0.1 3.5 1 0.3 0.3 1.9 1.5 1.7 3.9-0.1 0.4-0.3 3.2-3.3 5.4 0 0.1-0.3 0.4 0.1 0.4 0.2 0 4.9 0.5 5.5 4.6zm-5.1 6.9c0.5-0.3 3.3-1.4 2.9-6.1-0.1-0.6-0.9-3.9-5.3-4.3-0.2 0-0.5 0-0.7 0-0.2 0-1.6 0-2.3 0 0.1 0 1.1-1.2 1.3-1.3 0.1 0 0.8-0.2 1.7-0.6 1.2-0.6 2.6-1.7 2.8-3.7 0.1-0.2 0.2-1.4-0.3-2.8-0.1-0.2-0.7-1.7-2.5-2.2 0 0 0 0-0.1 0-0.1-0.1-0.3-0.3-2.4-0.2 0 0-2.6 0.3-2.8 0.2 0 0.4 0.5 9.8 0.5 11.1 0 0.3 0.6 9.8 0.7 10.3 0.3 0.1 2.2 0.4 4.1 0.3 0.8-0.1 1.7-0.3 2.4-0.7zm-188.8-16c0.1 0 2 0.8 2 0.8 0 0.1-0.9 2.8-0.9 2.8-0.1-0.1-0.5-0.1-0.5-0.1 0-0.3 0-1.9-0.7-2.2-0.3-0.1-5.6-2.3-10.8-4.5-5.1-2.1-10-4.2-10-4.2-0.3-0.2-1.9-0.7-3 0.9-0.4-0.2-0.7-0.5-0.7-0.5 0.1-0.3 1.7-2.7 1.7-2.7 0.4 0.1 1.5 0.5 1.5 0.5 0.2-0.1 4.5-3.7 10.5-9 2.8-2.4 6-5.3 9.2-8.3 0 0 1.4 14.4 1.7 26.5zm-2.3-1.2q0 0.1 0 0c0-0.5-0.1-14.2-1.3-21.7 0 0-3.6 3-7.3 6.3-3.8 3.4-7.7 7.1-8.5 8.2 0.2 0.1 4.4 1.9 8.5 3.6 4.2 1.8 8.6 3.6 8.6 3.6zm26.6-11.7c-0.1 0.8-1.2 5.5-6.1 6.4-4 0.4-5-0.8-5-0.9 0 0 0-0.4 0-0.4 0 0 1.4 0.6 3 0.5 0 0 2.9-0.3 4.5-2.6 0.1-0.1 1.1-1.7 1.1-3.3 0-0.2 0.2-1.8-1.4-3-0.1-0.1-1.1-1-4.9-1.7-0.3 0-0.6 0.4-0.8 1 0 0.4-2.1 7.1-2.5 8.9 0 0.5-2.2 8-2.6 9.2 0 0.5-0.6 2 0.2 2.4 0.3 0.2 1.3 0.7 1.3 0.7 0 0.1-0.5 0.8-0.5 0.8 0 0-2.1-1.1-3.2-1.2 0 0-2.4-0.5-2.6-0.5 0-0.1 0.1-0.7 0.1-0.7 0.1 0 1.7-0.2 1.9-0.3 0.2-0.2 3.1-10.5 3.4-11.5 0.1-0.2 2.4-8.1 2.2-9.7-0.1-0.2-0.8-0.8-1.5-0.9 0.1-0.1 0.3-0.8 0.3-0.8 0.4 0.3 3.2 1.3 5.4 1.6 1.1 0.2 8.5 0.7 7.7 6zm134.7 8.4c0 0 0 0.7 0 0.7-0.2 0-1.7 0-1.9 0.6 0 0.5-0.3 8.6-0.3 10.9 0 0.2-0.2 9.8 0.2 11.1 0.2 0.2 0.8 0.6 1.5 0.6 0.1 0.2 0 0.7 0 0.7-0.2 0-5.4-0.2-6.1-0.1 0-0.2 0-0.7 0-0.7 0.4-0.1 1.6 0 1.9-0.9 0.1-0.5 0.4-8.5 0.5-10.7 0-0.6 0.1-8.7 0.1-9-0.2 0.3-13.6 18.6-14.8 21.2-0.3 0-3.8 0-4.1 0 0-0.2 0-0.7 0-0.7 0.4 0 1.2 0.2 1.7-0.5 0.1-0.4 0.5-9.6 0.4-11 0-0.4 0.1-8.8-0.1-10.5-0.1-0.2-0.3-1-1.7-1.1l0.1-0.6c0.2 0 5.4 0 5.9-0.1q0 0.5 0 0.5c-0.4 0.2-1.8 0.3-1.9 1.3 0 0.5-0.3 9.6-0.2 10.6 0 0.3 0 8.3 0 8.7 0.2-0.1 5.9-7.6 8.2-10.8 0.6-0.8 6.8-10.2 6.8-10.2 0.4 0 3.2 0.1 3.8 0z"/>
	<path id="Path 23" fill-rule="evenodd" class="s8" d="m172.1 305.2c0.3 0.1 4.8 1.5 4.5 5.7 0 0.2 0.1 4.2-4.5 6.5-0.2 0.2-1.3 0.8-3.3 1.2-0.4 0-0.8 0-1.4 0-0.3 0.1-3-0.4-3.9-0.6-0.3 0-2.3-0.4-3.3-0.4 0-0.1 0-0.3 0-0.3 0-0.1 1.1-0.8 1.6-4.5 0.1-0.2 1.1-6.3 1.4-8.3 0-0.6 1.1-8.5 1.1-9.6-0.1-0.2 0-0.8-1.6-1.2 0-0.2 0.1-1.1 0.1-0.9 0.4 0.1 3.7 0.8 6 1.1 0.6 0 1 0.1 1.3 0.1 0.8 0.1 4.2 0.1 5.6 2 0.2 0.4 1.5 1.9 0.7 4.2-0.1 0.3-0.8 3.1-4.2 4.6-0.1 0.1-0.4 0.2-0.1 0.4zm-2.1 11.9c0.6-0.2 3.6-0.7 4.2-5.3 0-0.8 0-4.4-5.1-5.6 0 0-0.1 0-0.3-0.1v-1.3c1.2-0.1 4.1-0.6 5-3.3 0.1-0.2 0.4-1.3 0.2-2.8-0.1-0.2-0.3-1.9-2-2.7-0.1-0.1-0.2-0.3-2.2-0.7-0.1 0-0.4 0-1-0.1-0.7 0-1.8-0.2-2-0.3 0 0.3-1.5 9.7-1.7 11.1-0.1 0.2-1.5 9.6-1.5 10.1 0.3 0.2 3 1.3 5.2 1.2 0.5-0.1 0.8-0.1 1.2-0.2zm-1.2-12.3v1.3c-0.4-0.1-1.3-0.2-1.8-0.3 0.1-0.1 1.3-1 1.4-1q0.1 0 0.4 0zm55.8-6.2c0.2 0.1 4.6 0.3 5.7 0.3 0 0.1 0 0.8 0 0.8-0.2-0.1-1.6 0-1.9 0.6-0.1 0.4-0.6 5.6-0.7 9.5-0.2 3.8-0.5 10.7-0.4 11.9 0.1 0.6 0.8 1.2 1.8 1.2 0 0.2 0 0.6 0 0.6-0.4 0-5.1-0.3-5.9-0.2 0-0.3 0-0.6 0-0.6 0.3-0.1 1.4 0.2 1.7-1.1 0.1-0.3 0.6-8.1 0.7-10.6-2.1-0.1-13.8-0.5-16.4-0.7-0.1 3.9-0.4 9.3-0.2 10.4 0.1 0.6 0.7 1.2 1.7 1.2 0.1 0.2 0 0.6 0 0.6-0.4 0-5-0.3-5.9-0.3 0-0.2 0-0.6 0-0.6 0.3-0.1 1.5 0.2 1.8-1 0-0.4 0.6-8.3 0.7-10.7 0-0.4 0.4-9.3 0.4-10.7-0.2-0.3-0.5-0.9-1.6-1 0 0 0-0.6 0-0.6q0 0 0.1 0c0.2 0 4.6 0.3 5.8 0.3 0 0-0.1 0.7-0.1 0.7-0.1 0-1.6 0-1.9 0.7 0 0.4-0.5 5.5-0.7 9.4 0 0.1 0 0.1 0 0.1 1.7 0.1 9.8 0.5 16.4 0.7 0.1-2.7 0.3-8.2 0.3-9.2-0.1-0.3-0.5-1-1.5-1.1 0 0 0-0.6 0-0.6q0 0 0.1 0zm187.3-0.5c-0.4 0.1-4.7 1.7-5.5 2.1-0.1-0.3-0.2-0.6-0.2-0.6 0.2-0.1 1.4-0.4 1.1-1.6-0.1-0.3-2.7-7.7-3.6-10.1-1.9 0.8-12.9 5.1-15.3 6 1.5 3.6 3.4 8.6 3.9 9.6 0.4 0.5 1.2 0.7 2.1 0.4 0.1 0.1 0.2 0.6 0.2 0.6-0.3 0.1-4.7 1.7-5.5 2 0-0.2-0.2-0.5-0.2-0.5 0.2-0.3 1.4-0.5 1.2-1.7-0.1-0.3-2.7-7.7-3.6-10-0.1-0.4-3.3-8.8-4-10-0.2-0.2-0.7-0.6-1.7-0.2-0.1-0.1-0.3-0.7-0.3-0.7q0 0 0.1 0c0.2-0.1 4.4-1.6 5.4-2 0 0.1 0.2 0.6 0.2 0.6-0.1 0.1-1.4 0.7-1.4 1.4 0.1 0.4 1.7 5.4 3.1 9 0 0 0 0 0 0 1.6-0.5 9.3-3.4 15.3-5.8-0.9-2.5-2.9-7.6-3.4-8.6-0.3-0.3-0.8-0.7-1.8-0.3-0.1-0.1-0.3-0.7-0.3-0.7q0 0 0.1 0c0.3 0 4.4-1.5 5.4-2 0 0.1 0.2 0.7 0.2 0.7-0.1 0-1.4 0.6-1.3 1.4 0 0.4 1.6 5.3 3 8.9 1.4 3.6 3.8 10.1 4.5 11.2 0.3 0.4 1.1 0.7 2 0.3 0.2 0.2 0.3 0.6 0.3 0.6zm-257-6.7q0.2 0.1 0.2 0.1c0 0-0.8 2.9-0.9 3 0 0-0.4-0.1-0.6-0.1 0.1-1.1-1.2-2-1.4-2.1-1.1-0.4-6.4-1.4-6.7-1.5-0.3 1.3-1.9 8.4-2.1 8.7 0.4 0.2 8.1 1.9 8.4 1.9 0 0-0.5 1.3-0.8 1.6-0.6-0.3-7.7-1.8-7.9-1.9 0 0-0.1 0.3-0.1 0.4 0 0-1.3 5.9-1.3 6.1-0.3 1.2-0.6 3.9-0.5 4.1 1.2 0.3 5 1.1 5.3 1.1 2.2 0.5 3.5 0.8 3.9 0.6 0.7-0.3 1.2-1.8 1.3-2.1 0 0 0.5 0.6 0.6 1-0.1 0.6-1.2 3.2-1.4 3.6 0 0-0.8-0.3-0.9-0.3-0.3-0.1-8.1-2-8.5-2.2-0.6-0.1-3.7-0.8-3.9-0.8 1.2-1.4 2.6-9.4 3-10.7 0.6-2.2 2.3-9.6 2.4-11.5 0.1-0.8-1.2-1.2-1.4-1.3 0 0 0.3-0.8 0.3-0.8 0 0 0.7 0.2 0.9 0.3 0.6 0.2 4.2 1 4.4 1.1 0.3 0.1 3.3 0.6 3.5 0.6 2.6 0.4 4 1 4.2 1.1zm44.3 26.9c-0.1 0.6-0.9 3.3-0.9 3.7 0 0-0.9-0.1-1-0.1-0.3-0.1-8.3-1-8.7-1-0.7 0-3.8-0.2-4-0.2 1-1.6 1.3-9.6 1.5-11.1 0.2-2.2 0.9-9.8 0.8-11.7-0.1-0.8-1.4-1-1.6-1 0 0 0.1-0.8 0.1-0.9 0 0 0.9 0.1 0.9 0.1 0.7 0.2 4.4 0.6 4.6 0.6 0.3 0 3.3 0 3.6 0.1 2.6-0.1 4.1 0.4 4.3 0.4 0.1 0 0.2 0.1 0.2 0.1 0 0-0.4 2.9-0.5 3.2 0 0-0.4 0-0.6-0.1-0.1-1.2-1.5-1.8-1.7-1.9-1.2-0.3-6.5-0.6-6.8-0.6-0.1 1.4-0.7 8.6-0.8 9 0.3 0.1 8.2 0.7 8.5 0.7 0 0-0.3 1.4-0.6 1.7-0.6-0.2-7.8-0.8-8.1-0.8 0 0 0 0.3 0 0.4 0 0-0.4 6-0.5 6.2-0.1 1.3 0.1 4 0.2 4.1 1.1 0.2 5 0.5 5.3 0.5 2.3 0.2 3.6 0.2 4 0 0.6-0.5 0.9-2.1 0.9-2.3 0 0 0.6 0.5 0.9 0.9zm131.3-2.9c0 0.7-0.1 3.5-0.2 3.9 0 0-0.8 0.1-1 0.1-0.3 0-8.3 0.7-8.6 0.7-0.7 0.1-3.8 0.6-4 0.6 0.7-1.8-0.7-9.7-0.7-11.1-0.2-2.3-1.1-9.8-1.6-11.7-0.2-0.7-1.6-0.7-1.7-0.7 0 0-0.1-0.8-0.1-0.8 0 0 0.8-0.1 0.9-0.1 0.7 0 4.4-0.4 4.5-0.4 0.4 0 3.3-0.5 3.6-0.6 2.6-0.5 4-0.4 4.3-0.4 0.2 0 0.2 0 0.2 0 0 0 0.2 3 0.2 3.2 0 0-0.4 0.1-0.7 0.1-0.2-1.1-1.8-1.5-2-1.5-1.1-0.1-6.4 0.8-6.7 0.8 0.1 1.3 0.9 8.5 0.9 9 0.4 0 8.3-1 8.6-1.1 0 0-0.1 1.5-0.3 1.8-0.6-0.1-7.9 0.8-8.1 0.8 0 0 0 0.3 0 0.4 0 0 0.8 6 0.9 6.2 0.1 1.2 0.8 3.9 0.9 4 1.2 0 5-0.5 5.3-0.6 2.3-0.3 3.6-0.6 4-0.8 0.5-0.6 0.4-2.2 0.4-2.4 0 0 0.7 0.3 1 0.6zm50.5-10.4c0.2 0.7 0.4 3.4 0.4 3.8 0 0-0.8 0.2-0.9 0.2-0.3 0-8.1 2-8.5 2.1-0.7 0.2-3.7 1-3.9 1.1 0.4-1.8-2.1-9.5-2.3-11-0.5-2-2.5-9.4-3.3-11.2-0.4-0.7-1.6-0.4-1.8-0.4 0 0-0.2-0.7-0.3-0.8 0 0 0.9-0.2 1-0.2 0.7-0.2 4.3-1 4.4-1.1 0.3-0.1 3.2-1.1 3.4-1.1 2.5-0.9 4-1.1 4.2-1.1 0.2 0 0.3 0 0.3 0 0 0 0.6 3 0.6 3.2 0 0-0.4 0.1-0.7 0.1-0.3-1-1.9-1.2-2.2-1.2-1.1 0.2-6.2 1.7-6.5 1.8 0.3 1.3 2.1 8.3 2.3 8.7 0.3 0 8-2.2 8.2-2.2 0 0 0.2 1.5 0 1.8-0.6 0-7.6 2-7.9 2 0 0 0.1 0.2 0.2 0.4 0 0 1.6 5.7 1.7 6 0.3 1.1 1.4 3.7 1.5 3.8 1.2-0.2 5-1.3 5.2-1.4 2.2-0.6 3.4-1.1 3.8-1.4 0.4-0.6 0.1-2.2 0.1-2.4 0 0 0.7 0.3 1 0.5zm-24.7 9.3c0.1 0.3 0.1 0.7 0.1 0.7-0.4 0.1-5.4 1.1-6.4 1.4 0-0.3-0.2-0.8-0.2-0.8 0.4-0.2 1.5-0.2 1.7-1.4-0.1-0.3-1.5-8.5-2-11.4-0.3 1.1-2.7 3.6-7 3.8-0.3 0-4.6 0.6-6.8-4.2-0.1-0.2-1.5-5-1.5-6.2-0.1-0.3 0-1.3-2-0.9-0.1-0.2-0.3-1.2-0.2-0.9 0.2-0.1 5.8-0.9 6.3-1.1 0.1 0.2 0.2 1 0.2 1-0.2 0.1-1.3 0.1-1.9 1.6 0 0.3 0.2 7 4.1 8.3 0.2 0.2 3.7 1.5 7-1 0.2-0.2 1-0.7 1.3-2.2-0.4-2.1-1.5-7.1-1.9-7.9-0.3-0.4-0.9-0.5-1.9-0.5 0 0-0.2-0.7-0.2-0.7 0.6-0.1 5.8-1 6.5-1.3 0.1 0.4 0.2 0.8 0.2 0.8-0.2 0.2-1.7 0.3-1.9 1.5 0.1 0.3 1.4 7.8 1.6 8.8 0.1 0.5 2.1 9.9 2.4 11.2 0.1 0.4 0.4 1.6 2.5 1.4z"/>
	<path id="Path 24" class="s2" d="m442.2 282.7l-0.8-42.6c0 0 2.8-5.3 3.1-6.5 0 1-1.2 48-1.2 48zm-0.8-42.5l-1.1 44.3-1 0.7-0.5-41.5c0.3-0.6 2.6-3.5 2.6-3.5zm-2.9 4.1l-1.2 42.7-0.6 0.6-0.4-41c0.5-0.6 2.2-2.3 2.2-2.3zm-2.7 3.2l-1.2 41.3-0.4 0.6-0.6-39.9zm-2.8 2.8l-0.9 40.5-0.5 0.2-0.6-39zm-2.7 2.5l-1.3 40-0.5-38.5zm-2.9 2.6l-1 38.7-0.4-37.5zm-2.7 2.4l-0.8 38.3-0.5-37.4zm-2.7 1.9l-0.7 37.1-0.5-36.4zm-2.8 1.9l-0.7 30.4-0.3-29.8zm-2.9 2l-0.6 16.7-0.3-16.3zm-3.6 2.2l0.6-0.3c0 0.4 0 8.5 0 8.5zm47.5-55h0.1v35.3h-0.1zm3-0.1h0.2l-0.2 34.9h-0.1zm2.6-0.3h0.3v34.7h-0.5zm3.1-0.2v34.2l-0.4 0.1v-34.3zm2.8-0.4v33.7l-0.7 0.3v-33.9zm2.8-0.6v33.4l-0.8 0.4v-33.6zm2.8-0.9l-0.1 33.2-1.1 0.5 0.2-33.4zm2.6-0.8v32.9l-1.3 0.5 0.1-33zm2.7-1.3v33.1l-1.6 0.6 0.1-32.9zm2.8-1.3l-0.1 33-1.6 0.8v-33zm2.7-1.5v33l-2.1 1.2v-33.1zm2.7-1.7v33.1l-2.2 1.3 0.1-33zm0.5 32.8v-33.1l2.5-1.5v33zm2.8-1.7v-33.2l2.5-1.6v33.2zm2.7-1.8v-33.4l2.5-1.9-0.2 33.5zm-68.3-14l-0.2 0.1v-12.9h0.3zm-3 0.3h-0.2v-13.8l0.3 0.1zm-2.5 0.4l-0.5 0.2v-15.3l0.6 0.3zm-2.7 0.6l-0.5 0.1v-16.6l0.6 0.2zm-2.6 0.7l-0.8 0.2v-18.4l0.9 0.3zm-2.5 0.8l-1 0.2 0.1-20 0.9 0.2zm-2.7 0.9l-1.1 0.4v-21.9l1.1 0.2zm-2.5 0.9l-1.3 0.6v-23.4l1.3 0.2zm-2.4 0.9l-1.6 0.6 0.1-24.5 1.5 0.1zm-2.5 0.8l-1.8 0.3v-24.9l1.8-0.2zm-2.5 0.4c0 0-1.8 0.1-2.2 0.1 0-0.3 0.1-24.5 0.1-24.5l2.2-0.5zm-2.7 0.2c-0.2-0.1-1.8-0.2-2.3-0.6 0-0.4 0-23.3 0-23.3l2.4-0.7c0 0-0.1 24.9-0.1 24.6zm-2.6-0.6c0 0-2-0.3-2.4-0.7-0.1-0.1-0.1 0.1-0.1-0.1 0-0.2 0.1-21.6 0.1-21.6l2.4-0.9zm-2.7-0.8c0 0-1.9-0.8-2.3-1.2 0-0.3 0.1-18.6 0.1-18.6l2.2-1.5zm-2.4-1.6c0 0-2.1-1.6-2.5-2.3-0.1-0.6 0-13.7 0-13.7l2.5-2.2zm-2.8-2.4c0 0-2.8-3.6-2.8-6.7 0-1 2.2-6.3 2.7-6.7 0 0.5 0.1 13.4 0.1 13.4zm14.4 5.2h0.1v30.5h-0.1zm-2.8 30.9h-0.2v-30.7h0.4zm-3 0v-31.1l0.5 0.1c0 0.1 0 31 0 31zm-2.1-0.2l-0.7-0.1v-31.5h0.7zm-2.6-0.7h-0.8v-32.3l0.6 0.5zm-2.6-0.8l-0.9-0.7v-33.2l1 1.1zm-3-2.6l-0.9-1.8v-35.3c0 0 0.6 3 0.9 3.4 0.3 0.5 0 33.7 0 33.7zm56.4-16.6v-8c0 0 1.1 2.5 1 4.3-0.1 1.1-0.3 2.7-1 3.7zm-1 3c0 0-1.1 2.2-1.6 2.8-0.1-1 0-18.2 0-18.2 0.5 0.5 1.2 1.6 1.6 2.2 0 0.8 0 13.2 0 13.2zm-2.8 4.6c0 0-0.9 1.5-1.4 1.9 0-2 0.2-23.6 0.2-23.6 0 0 0.4 0.2 1.1 0.8 0 0.5 0.1 20.9 0.1 20.9zm-2.7 3.6l-1.2 1.2c0-0.9 0.2-27.7 0.2-27.7 0 0 0.5 0 1 0.4 0.1 0.8 0 26.1 0 26.1zm-2.8 3.3l-1.1 0.7c-0.1-0.5 0.2-31.3 0.2-31.3l0.9 0.2zm-2.9 2.8l-0.6 0.5v-34.2l0.9 0.1zm-2.7 2.3l-0.7 0.6 0.2-36.7h0.8zm-3.3 2.9c-0.1 0.1 0.1-39 0.1-39h0.5l-0.1 38.6c0 0-0.5 0.3-0.5 0.4zm-2.4-5v-33.6h0.3l-0.2 33.6zm-3-0.4v-32.6h0.2v32.5z"/>
	<path id="Path 25" class="s3" d="m386.3 211.1c-1 7.2 7.9 13.4 14.4 12.7 5.5 0.1 17.4-4.9 19.4-5.5 7.8-2.6 14.8-0.6 16-0.4 8.9 3 9.1 11.8 9 13.3-1 10.9-19.8 25.6-19.8 25.6"/>
	<path id="Path 26" class="s2" d="m343.1 12.1c-1.3 6.3-2.5 12.4-3.8 18.7-1.2-0.3-2.5-0.6-3.7-1-1.6 8.2-3.2 15.9-4.8 24-56.8-12.4-104.5-12.4-160.5 0-2-8.1-3.8-15.8-5.8-24-1.2 0.4-2.5 0.7-3.7 1-1.6-6.3-3.1-12.4-4.7-18.7 11.6-3 22.6-5.4 34.2-7.3 0.9 5.8 1.9 11.3 2.9 17 5.6-0.8 10.8-1.6 16.3-2.2 0-0.1 0.1 0 0.1-0.1-0.6-5.8-1.4-11.4-2-17.2 11.5-1.4 22.6-2.2 34.2-2.4 0.1 5.9 0.2 11.5 0.3 17.4 5.5-0.1 10.8-0.1 16.4 0 0.1-5.9 0.3-11.5 0.4-17.4 11.6 0.2 22.5 1 33.9 2.4-0.7 5.8-1.3 11.4-2 17.2 5.6 0.7 10.9 1.5 16.4 2.3 0.9-5.7 1.7-11.2 2.6-17 11.3 1.9 22.1 4.3 33.3 7.3z"/>
	<path id="Path 27" class="s0" d="m266.2 18.8c5.6 0.2 11 0.6 16.6 1.2-0.6 7.3-1.4 14.3-2 21.7-5.3-0.5-10.3-0.8-15.6-1.1 0.3-7.4 0.7-14.4 1-21.8zm17.5-13.2c1.5 0.1 2.8 0.2 4.3 0.4-0.4 3.8-0.8 7.4-1.2 11.1-8.2-0.9-16-1.4-24-1.7 0.1-3.8 0.3-7.4 0.4-11.1 1.4 0 2.8 0 4.2 0.1 0 0.9-0.1 1.7-0.1 2.6 1.5 0.1 2.9 0.1 4.4 0.3 0.1-0.9 0.1-1.7 0.2-2.6 2.5 0.1 4.9 0.3 7.4 0.5q-0.1 1.3-0.2 2.6c1.5 0.1 2.9 0.2 4.4 0.4 0.1-0.9 0.2-1.7 0.2-2.6zm31.2 18.8c5.6 1.1 11 2.2 16.6 3.5-1.3 7.1-2.6 13.8-4.1 21-5.4-1.2-10.7-2.2-16.1-3.2 1.2-7.2 2.4-14.1 3.6-21.3zm23.1-9.4c-0.7 3.6-1.5 7-2.2 10.7-8.2-2-15.9-3.7-24.1-5.1 0.6-3.6 1.2-7.2 1.8-10.9 1.4 0.2 2.7 0.5 4.2 0.8-0.2 0.8-0.3 1.7-0.5 2.5 1.6 0.3 3 0.6 4.5 0.9 0.1-0.9 0.3-1.7 0.4-2.5 2.5 0.5 4.8 1 7.3 1.5-0.2 0.9-0.3 1.7-0.5 2.5 1.5 0.4 3.1 0.8 4.4 1 0.2-0.7 0.4-1.6 0.5-2.5 1.3 0.4 2.7 0.8 4.2 1.1zm-80.4 6.5c1.7 0 3.2 0.1 4.8 0.2-0.3 6.3-0.5 12.4-0.7 18.7-7.7-0.2-15.2-0.2-23 0-0.2-6.3-0.4-12.4-0.6-18.7 1.6-0.1 3.4-0.2 5-0.2 0 0.9 0 1.7 0 2.5 1.3 0 2.5 0 3.7 0q0-1.3 0-2.5c2.3 0 4.7 0 7.1 0q0 1.2 0 2.5c1.2 0 2.4 0 3.6 0 0-0.8 0.1-1.6 0.1-2.5zm48.3 4.4c1.7 0.3 3.2 0.6 4.9 0.9-1 6.1-2 12.1-3 18.3-8.1-1.3-15.7-2.3-23.5-3.1 0.7-6.3 1.3-12.4 2-18.7 1.7 0.2 3.2 0.4 5 0.6-0.1 0.9-0.2 1.6-0.3 2.5q1.8 0.2 3.7 0.4c0.1-0.8 0.2-1.6 0.3-2.5 2.4 0.3 4.7 0.7 7.2 1-0.1 0.9-0.2 1.7-0.4 2.5 1.2 0.2 2.5 0.4 3.7 0.6 0.2-0.9 0.3-1.6 0.4-2.5zm-88.3-5.9c5.7-0.5 11.1-1 16.7-1.2 0.4 7.4 0.6 14.4 1 21.8-5.2 0.2-10.3 0.6-15.5 1.1-0.7-7.4-1.4-14.4-2.2-21.7zm15.6-15.6c1.5-0.1 2.8-0.1 4.2-0.1 0.2 3.7 0.3 7.3 0.4 11.1-8 0.3-15.9 0.8-24.1 1.7-0.4-3.7-0.8-7.3-1.2-11.1 1.4-0.2 2.8-0.3 4.2-0.4 0.1 0.9 0.1 1.7 0.3 2.6 1.5-0.2 2.9-0.3 4.4-0.4q-0.1-1.3-0.2-2.6c2.5-0.2 5-0.4 7.5-0.5 0 0.9 0.1 1.7 0.1 2.6 1.5-0.2 3-0.2 4.5-0.3 0-0.9-0.1-1.7-0.1-2.6zm-23.7 19.4c1.6-0.2 3.2-0.3 4.8-0.5 0.8 6.3 1.4 12.3 2 18.6-7.8 0.9-15.4 1.8-23.3 3.2-1.1-6.2-2.1-12.2-3.3-18.4 1.7-0.3 3.3-0.6 5.1-0.9 0.2 0.9 0.2 1.7 0.4 2.5 1.2-0.1 2.5-0.3 3.7-0.5-0.1-0.8-0.2-1.7-0.3-2.5 2.3-0.3 4.7-0.7 7.1-1 0.2 0.8 0.3 1.7 0.4 2.5 1.2-0.1 2.4-0.3 3.7-0.5q-0.2-1.2-0.3-2.5zm-40.9 4.1c5.7-1.3 11.2-2.4 16.8-3.5 1.4 7.2 2.7 14.1 4 21.3-5.3 1-10.5 2-16 3.2-1.6-7.1-3.2-13.9-4.8-21zm13.7-17.4c1.5-0.3 2.8-0.6 4.3-0.8 0.6 3.7 1.3 7.2 1.9 10.9-8.2 1.4-16.1 3.1-24.4 5.1-0.9-3.6-1.7-7.1-2.6-10.7q2.3-0.5 4.3-1.1c0.2 0.9 0.4 1.7 0.6 2.5 1.5-0.3 3-0.7 4.5-1-0.2-0.8-0.4-1.6-0.6-2.5 2.6-0.5 5-1 7.5-1.5 0.2 0.8 0.3 1.6 0.5 2.5 1.5-0.3 3-0.6 4.5-0.9-0.2-0.8-0.3-1.6-0.5-2.5z"/>
</svg>