<svg version="1.2" xmlns="http://www.w3.org/2000/svg" viewBox="0 0 441 507" width="441" height="507">
	<title>Ardino-pdf</title>
	<style>
		.s0 { fill: #231f20 } 
		.s1 { fill: #ffffff } 
		.s2 { fill: #00a650 } 
		.s3 { fill: #ed1c24 } 
	</style>
	<path id="Path 1" class="s0" d="m0.5 0.6h440.2c0 187.1 0.3 413.1-220.1 506.5-220.1-93.4-220.1-319.4-220.1-506.5z"/>
	<path id="Path 2" fill-rule="evenodd" class="s1" d="m220.3 83.1c90.9 0 165 74.2 165 165.3 0 91.2-74.1 165.3-165 165.3-90.8 0-164.9-74.1-164.9-165.3 0-91.2 74.1-165.3 164.9-165.3zm-156.8 165.3c0 86.4 70.7 156.9 156.8 156.9 86.2 0 156.9-70.5 156.9-156.9 0-86.4-70.7-156.9-156.9-156.9-86.1 0-156.8 70.5-156.8 156.9z"/>
	<path id="Path 3" fill-rule="evenodd" class="s1" d="m429.8 55.7c0 148.8-10.9 358-209.2 439.4-198.2-81.4-209.1-290.6-209.1-439.4zm-11 11.2h-396.5c0 142.9 16.5 346.8 198.3 415.6 181.7-68.8 198.2-272.7 198.2-415.6zm-204.7 160.3c-8.1-1.4-14.8-2-17 1.1-0.6 1.4-4.8 0.5-5-0.9-1.2-3.3-0.3-8.4 1.9-10.9 0.9-1.4 5-0.5 5 0.9 1.4 2.8 7.3 5 15.7 6.4zm1.1-3.9c-5.3-6.4-10-10.9-13.7-10.1-1.7 0.6-4.2-2.8-3.6-4.2 1.4-2.8 5.3-6.1 8.4-7 1.7-0.2 4.5 2.8 3.6 4.2-0.8 2.8 2.3 8.4 7.8 14.9zm9.8 0.5c8.1-1.7 14.6-3.3 15.7-7 0.6-1.4 4.5-2.2 5.3-0.5 2 2.5 2.8 7.5 2 10.6-0.6 1.4-4.8 1.9-5.3 1.1-2.3-2.5-8.4-2.5-16.8-1.4zm-2.5-2.5c5.3-6.4 8.9-12 7.5-15.1-0.5-1.7 2-5 3.7-4.2 3 0.6 6.9 3.9 8.3 7 0.6 1.4-2.2 4.5-3.6 4.2-3.1-0.6-7.8 3.3-13.4 9.8zm-3.6-0.3c0-8.4-0.9-14.8-4-16.5-1.4-0.8-1.4-5 0-5.6 2.8-1.4 7.9-1.4 10.9 0 1.4 0.8 1.4 5 0 5.6-2.5 1.4-3.6 7.5-3.6 16.2z"/>
	<path id="Path 4" class="s2" d="m215 347.4c0-33-33-43.9-49.5-66-16.5 48.4 8.4 48.9 49.5 66zm0-45c0-33-16.2-42.2-28.5-64.3-12.6 48.3-2.5 47.2 28.5 64.3zm10.9 0c0-33 16.3-42.2 28.6-64.3 12.3 48.3 2.5 47.2-28.6 64.3zm0 45c0-33 33-43.9 49.5-66 16.5 48.4-8.4 48.9-49.5 66zm-8.4-121.1h5.6v121.1h-5.6z"/>
	<path id="Path 5" class="s1" d="m77.4 221c49.5-16.5 115.5-49.5 143.2-49.5 27.7 0 93.4 33 142.9 49.5 5.6 20.1 5.6 40.8 0 60.4l-10.9 5.6c0-88.1-49.5-88.1-49.5 22.1l-11.2 5.3c0-93.4-23.2-126.4-71.3-126.4-48.1 0-71.6 33-71.6 126.4l-11.2-5.3c0-110.2-49.4-110.2-49.4-22.1l-11-5.6c-5.5-20.1-5.5-39.4 0-60.4zm-65.9-209.4h71.5v7.8h-71.5zm346.4 0h71.9v7.8h-71.9z"/>
	<path id="Path 6" class="s2" d="m11.5 26.9h71.5v7.9h-71.5zm346.4-0.3h71.9v7.8h-71.9z"/>
	<path id="Path 7" class="s3" d="m11.5 42h71.5v7.9h-71.5zm346.4 0h71.9v7.8h-71.9z"/>
	<path id="Path 8" fill-rule="evenodd" class="s1" d="m123.3 12.1l15.1 31.1h-8.9l-3.7-5.9h-15.4l-2.5 5.9h-8.4l14.3-31.1zm-10.1 19.9h10.9l-5.8-14.3zm37.4 11.2h-8.4v-30.5h17.4c8.7 0 13.7 3.9 13.7 9.8 0 6.1-5.6 10.1-13.7 10.1h-9zm7.6-16.3c4.7 0 6.7-1.6 6.7-4.4 0-2.8-2-4.2-6.7-4.2h-7.6v8.6zm17.1 11.2c0.6 0 1.4 0 2 0 0.5 0 1.9-0.8 2.5-1.4 1.9-0.8 2.5-2.8 2.5-6.1v-17.9h29.3v25.4h3.7v12h-5.1l-1.9-6.9h-26l-2 6.9h-5zm28 0v-19.8h-13.2v10.6c0 2.5-0.8 4.5-2 6.4-0.5 1.2-1.3 1.4-2.5 2.8zm50.4 5.1h-8.4v-24.1l-13.4 24.1h-12.1v-30.5h8.4v24.6l14-24.6h11.5zm17-19h16.5v-11.5h8.4v30.5h-8.4v-13.1h-16.5v13.1h-8.6v-30.5h8.6zm71.1 3.9c0 10.1-7.6 16.2-19.6 16.2-12 0-19.9-6.1-19.9-16.2 0-9.8 7.9-16.2 19.3-16.2 12.6 0 20.2 6.4 20.2 16.2zm-19.6 10.9c7.2 0 11.2-4.2 11.2-10.9 0-6.4-4.8-10.9-11.2-10.9-7 0-11.5 4.5-11.5 10.9 0 6.5 4.5 10.9 11.5 10.9z"/>
</svg>