<svg version="1.2" xmlns="http://www.w3.org/2000/svg" viewBox="0 0 1146 1340" width="1146" height="1340">
	<title>Dryanovo-ai</title>
	<style>
		.s0 { fill: #ffb032 } 
		.s1 { fill: #007ec7 } 
		.s2 { fill: #2c2e35 } 
		.s3 { fill: #ff2e17 } 
	</style>
	<g id="Layer 1">
		<path id="&lt;Path&gt;" class="s0" d="m1115.3 155.6l-0.1 1.2-0.1 2.1-0.1 2.1-0.1 2.1-0.1 2.2v2.1l-0.1 2.1-0.1 2.2-0.1 2.1-0.1 2.2-0.1 2.1-0.2 2.2-0.2 2.1-0.2 2.2-0.2 2.2-0.3 2.2-0.3 2.2-0.4 2.2-0.4 2.2-0.4 2.2-0.5 2.2-0.6 2.2-0.7 2.3-0.7 2.2-0.8 2.2-0.8 2.2-1 2.2-1 2.3-1.2 2.2-1.2 2.1-1.3 2.2-1.5 2.3-1 1.4-1 1.3-0.9 1.3-1 1.3-0.9 1.2-1 1.2-1 1.3-1 1.2-1 1.1-1 1.2-1 1.2-1 1.1-1 1.2-1.1 1.1-1 1.1-1.1 1.1-1.1 1.1-1.1 1.1-1.2 1-1.1 1.1-1.1 1-1.2 1.1-1.1 1-1.2 1-1.2 1-1.3 1-1.2 1-1.3 1-1.3 0.9-1.3 1-1.3 0.9-1.6 1.2-0.9 0.4-0.5 0.4-0.5 0.3-0.6 0.3-0.5 0.3-0.6 0.3-0.5 0.3-0.6 0.3-0.5 0.3-0.5 0.4-0.6 0.3-0.5 0.2-0.6 0.3-0.5 0.3-0.6 0.3-0.5 0.3-0.5 0.3-0.6 0.3-0.6 0.2-0.5 0.3-0.6 0.3-0.5 0.3-0.6 0.2-0.6 0.3-0.5 0.3-0.6 0.2-0.6 0.3-0.5 0.3-0.6 0.2-0.6 0.3-0.6 0.3-0.8 0.3-1.5 0.5-1.1 0.4-1.1 0.4-1.1 0.4-1.1 0.4-1.2 0.3-1.1 0.4-1.1 0.3-1.1 0.3-1.2 0.3-1.1 0.3-1.1 0.3-1.1 0.3-1.1 0.2-1.1 0.3-1.2 0.2-1.1 0.3-1.1 0.2-1.1 0.2-1.2 0.2-1.1 0.2-1.1 0.2-1.2 0.1-1.1 0.2-1.2 0.1-1.1 0.2-1.2 0.1-1.2 0.1-1.2 0.2-1.1 0.1-1.2 0.1-1.5 0.1h-2.3-2.2-2.1l-2.2-0.1h-0.4v681.4h-0.8v1.3l-1.8 20.4-2.9 20.1-4 19.8-5 19.5-6 19-7.1 18.7-8 18.2-8.8 17.8-9.9 17.3-10.6 16.7-11.5 16.3-12.4 15.7-13.1 15.1-13.8 14.5-14.6 13.9-15.3 13.3-15.9 12.5-16.6 11.9-17.2 11.1-17.8 10.4-18.3 9.6-18.9 8.8-19.4 8-19.8 7.1-20.3 6.3-20.7 5.3-21.1 4.5-21.6 3.5-21.8 2.6-22.1 1.5-22.4 0.5-22.4-0.5-22.2-1.6-21.9-2.5-21.5-3.6-21.2-4.4-20.7-5.4-20.4-6.3-19.9-7.2-19.4-8-18.9-8.9-18.4-9.6-17.8-10.5-17.2-11.1-16.6-11.9-16-12.6-15.2-13.3-14.6-13.9-13.9-14.6-13.1-15.2-12.3-15.8-11.5-16.3-10.7-16.9-9.7-17.3-8.9-17.9-8-18.3-6.9-18.7-6-19.2-5-19.5-3.9-19.9-2.8-20.1-1.8-20.5-0.5-20.5v-0.6-0.3-0.3-0.3-0.3-0.3-0.6-0.3-0.3-0.2-0.3-0.2-0.2-0.3-0.1-657.3l-0.6-0.1-1.4-0.3-1.3-0.2-1.4-0.3-1.4-0.3-1.3-0.3-1.4-0.3-1.3-0.3-1.4-0.4-1.3-0.4-1.3-0.3-1.3-0.4-1.3-0.4-1.4-0.5-1.3-0.4-1.3-0.5-1.3-0.4-1.3-0.5-1.3-0.5-1.2-0.6-1.3-0.5-1.3-0.6-1.3-0.6-1.3-0.5-1.3-0.7-1.3-0.6-1.3-0.6-1.6-0.8-0.8-0.6-0.6-0.3-0.5-0.3-0.6-0.4-0.5-0.3-0.6-0.3-0.5-0.4-0.6-0.3-0.5-0.4-0.5-0.3-0.6-0.4-0.5-0.3-0.5-0.4-0.5-0.4-0.6-0.3-0.5-0.4-0.5-0.3-0.5-0.4-0.5-0.4-0.6-0.3-0.5-0.4-0.5-0.4-0.5-0.4-0.5-0.3-0.5-0.4-0.5-0.4-0.6-0.4-0.5-0.4-0.5-0.4-0.5-0.4-0.5-0.4-0.7-0.6-1.1-0.9-0.9-0.8-0.8-0.8-0.9-0.8-0.8-0.8-0.8-0.8-0.8-0.8-0.8-0.8-0.8-0.8-0.8-0.8-0.8-0.8-0.8-0.8-0.7-0.8-0.8-0.8-0.7-0.9-0.8-0.8-0.7-0.8-0.7-0.9-0.8-0.8-0.7-0.9-0.7-0.8-0.7-0.9-0.7-0.8-0.7-0.9-0.7-0.9-0.7-0.9-0.7-0.9-0.6-0.9-0.7-0.9-0.7-0.9-0.7-1-0.8-1.1-1.6-2.5-1.4-2.4-1.3-2.2-1.1-2.3-1.1-2.3-1-2.2-0.9-2.2-0.9-2.2-0.7-2.2-0.7-2.2-0.6-2.2-0.5-2.1-0.5-2.2-0.4-2.1-0.3-2.1-0.3-2.1-0.3-2.1-0.1-2.1-0.2-2.1-0.1-2.1-0.1-2.1-0.1-2.1-0.1-2.2v-2.1l-0.1-2.2v-2.1l-0.1-2.3v-2.2-2.3l-0.1-2.4-0.1-2.4v-1.4l19.5-0.4v1.2l0.1 2.5 0.1 2.4v2.4 2.3l0.1 2.2v2.2 2.1l0.1 2 0.1 2v2l0.1 1.8 0.1 1.8 0.2 1.8 0.1 1.8 0.2 1.7 0.3 1.6 0.2 1.7 0.3 1.6 0.4 1.6 0.4 1.6 0.4 1.6 0.5 1.6 0.6 1.7 0.6 1.6 0.7 1.7 0.7 1.7 0.9 1.7 0.9 1.8 1 1.8 1.1 1.9 1.2 1.8 0.4 0.6 0.6 0.8 0.6 0.9 0.6 0.8 0.6 0.8 0.7 0.8 0.6 0.8 0.6 0.8 0.6 0.8 0.6 0.7 0.7 0.8 0.6 0.7 0.6 0.8 0.6 0.7 0.7 0.8 0.6 0.7 0.7 0.7 0.6 0.7 0.7 0.8 0.6 0.7 0.7 0.7 0.7 0.7 0.7 0.7 0.7 0.7 0.7 0.7 0.7 0.7 0.7 0.7 0.7 0.7 0.7 0.6 0.8 0.7 0.7 0.7 0.6 0.5 0.2 0.2 0.5 0.4 0.4 0.3 0.5 0.3 0.4 0.4 0.5 0.3 0.4 0.4 0.5 0.3 0.4 0.3 0.5 0.4 0.4 0.3 0.5 0.3 0.5 0.4 0.4 0.3 0.5 0.3 0.4 0.3 0.5 0.3 0.4 0.3 0.5 0.4 0.4 0.3 0.5 0.3 0.5 0.3 0.4 0.3 0.5 0.3 0.5 0.3 0.5 0.3 0.4 0.3 0.5 0.3 0.5 0.3 0.5 0.3 0.5 0.3 0.2 0.1 0.9 0.5 1.1 0.5 1.1 0.6 1.1 0.5 1.1 0.5 1.1 0.5 1.1 0.5 1.1 0.4 1.1 0.5 1.1 0.4 1.1 0.4 1 0.4 1.1 0.4 1.1 0.3 1.1 0.4 1.1 0.4 1.1 0.3 1 0.3 1.2 0.3 1.1 0.3 1.1 0.3 1.1 0.2 1.1 0.3 1.2 0.2 1.2 0.2 1.1 0.3 1.2 0.2 1.2 0.2 1.2 0.2 1.3 0.1 1.2 0.2 1 0.1 10.1 0.5h0.1 0.5 0.5 0.4 0.5l0.4-0.1h0.5 0.5 0.4 0.5l0.5-0.1h0.4 0.5 0.4 0.5l0.4-0.1h0.5 0.5l0.4-0.1h0.5 0.4 0.5l0.4-0.1h0.5l0.5-0.1h0.4 0.5l0.4-0.1h0.5 0.5l0.4-0.1h0.3l1.4-0.2 1.5-0.2 1.5-0.2 1.5-0.3 1.5-0.2 1.5-0.3 1.6-0.2 1.5-0.3 1.5-0.3 1.5-0.3 1.5-0.3 1.4-0.3 1.5-0.3 1.5-0.4 1.5-0.3 1.5-0.3 1.5-0.4 1.5-0.4 1.5-0.4 1.5-0.3 1.5-0.4 1.5-0.4 1.4-0.4 1.5-0.5 1.5-0.4 1.5-0.4 1.5-0.5 1.5-0.4 1.5-0.5 1.5-0.4 1.4-0.5 1.5-0.5 2-0.6 2-0.6 2-0.7 2-0.7 2-0.6 2-0.7 2-0.7 2.1-0.6 2-0.7 2.1-0.7 2-0.6 2.1-0.7 2.1-0.6 2.1-0.6 2.1-0.6 2.1-0.6 2.1-0.5 2.2-0.6 2.1-0.5 2.2-0.5 2.2-0.4 2.2-0.5 2.2-0.4 2.2-0.4 2.2-0.3 2.3-0.3 2.2-0.3 2.3-0.2 2.3-0.2 2.3-0.1 2.4-0.1 2.3-0.1h2.2l2 0.1h2.1 2l2.1 0.1h2l2 0.1h2l2.1 0.1h2l2 0.1h2l2 0.1 2 0.1h2l1.9 0.1h2 2l2 0.1h2 1.9 2 2 1.9 2 1.9l2-0.1h1.9l1.9-0.1 2-0.1 1.9-0.1 1.9-0.1 0.8-0.1h0.9l1-0.1 0.9-0.1 0.9-0.1 0.9-0.1 1-0.1 0.9-0.1 0.9-0.1 0.9-0.2 0.9-0.1 0.9-0.1 0.9-0.1 0.9-0.2 0.9-0.1 0.9-0.1 0.9-0.2 0.9-0.1 0.9-0.2 0.9-0.2 0.9-0.1 0.9-0.2 0.9-0.2 0.9-0.2 0.9-0.2 0.9-0.1 0.9-0.3 0.9-0.2 0.9-0.2 0.9-0.2 0.9-0.2 0.7-0.2 1.9-0.6 2.2-0.6 2.1-0.7 2.1-0.6 2.1-0.7 2.1-0.6 2.1-0.7 2.1-0.6 2-0.7 2.1-0.7 2.1-0.7 2.1-0.7 2-0.6 2.1-0.7 2.1-0.7 2-0.7 2.1-0.7 2.1-0.8 2-0.7 2.1-0.7 2-0.7 2.1-0.8 2-0.7 2.1-0.8 2-0.8 2.1-0.7 2-0.8 2.1-0.8 2-0.8 2-0.8 2.1-0.8 2-0.8 1.3-0.6 1.4-0.5 1.3-0.6 1.4-0.6 1.4-0.6 1.4-0.5 1.4-0.6 2.7-1.2 1.4-0.5 1.4-0.6 1.4-0.6 2.8-1.2 1.3-0.5 1.4-0.6 1.4-0.6 1.4-0.6 1.4-0.6 1.4-0.6 1.4-0.5 1.4-0.6 1.4-0.6 1.4-0.5 1.4-0.6 1.4-0.6 1.4-0.6 1.4-0.5 1.4-0.6 1.4-0.6 1.4-0.5 1.5-0.6 2.8-1.1 2.8-1 2.9-1.1 2.8-1 2.9-1 2.8-0.9 2.9-1 2.9-0.9 2.9-0.9 2.9-0.9 2.9-0.9 2.9-0.8 3-0.9 2.9-0.8 2.9-0.7 3-0.8 3-0.7 3-0.6 3-0.7 3-0.6 3-0.6 3-0.5 3-0.5 3-0.5 3.1-0.4 3-0.4 3.1-0.4 3.1-0.3 3-0.3 3.1-0.2 3.1-0.2 3.1-0.2h0.5 0.6 0.5 0.5 0.5 0.6 0.5 0.5 0.5 0.6 0.5 0.5 0.5 0.6 0.5l0.6 0.1 3.8 0.2 3.9 0.3 3.9 0.4 3.8 0.4 3.8 0.5 3.8 0.5 3.7 0.6 3.7 0.6 3.8 0.7 3.7 0.8 3.7 0.8 3.6 0.8 3.7 0.9 3.6 0.9 3.6 1 3.6 1 3.6 1 3.5 1.1 3.6 1.2 3.6 1.1 3.5 1.2 3.5 1.2 3.5 1.2 3.5 1.3 3.5 1.3 3.4 1.3 3.5 1.4 3.4 1.3 3.5 1.4 3.4 1.4 3.5 1.4 3.4 1.4 2.5 1.1 2.4 1 2.5 1 2.4 1 2.5 1.1 2.5 1 2.4 1 2.5 1 2.4 1 2.5 1 2.4 1 2.5 0.9 2.4 1 2.5 1 2.4 0.9 2.5 0.9 2.5 1 2.4 0.9 2.5 0.9 2.4 0.9 2.5 0.8 2.4 0.9 2.5 0.8 2.5 0.9 2.5 0.8 2.5 0.8 2.5 0.8 2.5 0.8 2.5 0.7 2.5 0.8 2.5 0.7 2.9 0.8 1.9 0.7 1.4 0.5 1.4 0.5 1.4 0.5 1.5 0.4 1.4 0.4 1.4 0.4 1.4 0.4 1.5 0.4 1.5 0.3 1.5 0.3 1.4 0.3 1.5 0.3 1.5 0.3 1.5 0.3 1.5 0.2 1.5 0.2 1.5 0.2 1.5 0.2 1.6 0.2 1.5 0.2 1.6 0.1 1.5 0.2 1.6 0.1 1.5 0.1 1.6 0.2h1.5l1.6 0.2h1.6l1.5 0.1 1.6 0.1h1.6 1.5l1.6 0.1h1.6 1.7 1.6 1.6 1.6l1.7-0.1h1.6 1.7 1.6l1.7-0.1h1.6l1.7-0.1h1.6l1.7-0.1h1.6l3.4-0.1 1.6-0.1h1.7l1.6-0.1h1.7 1.7l1.7-0.1h1.7l1.6-0.1h1.8 1.7 1.7l1.7-0.1h1.8l2.6 0.1 2.6 0.1 2.6 0.2 2.6 0.2 2.5 0.3 2.5 0.3 2.6 0.4 2.4 0.4 2.5 0.5 2.5 0.5 2.4 0.5 2.5 0.5 2.4 0.6 2.4 0.7 2.3 0.6 2.4 0.7 2.4 0.7 2.3 0.7 2.3 0.7 2.3 0.7 2.3 0.7 2.3 0.8 2.3 0.7 2.2 0.8 2.3 0.7 2.3 0.8 2.2 0.7 2.2 0.7 2.3 0.8 2.1 0.7 2.3 0.7 2.1 0.6 1.9 0.6 1.8 0.5 1.9 0.5 1.8 0.5 1.9 0.6 1.9 0.4 1.8 0.5 1.9 0.5 1.9 0.4 1.8 0.4 1.8 0.4 1.9 0.4 1.9 0.4 1.8 0.4 1.8 0.3 1.9 0.3 1.8 0.4 1.9 0.2 1.8 0.3 1.9 0.3 1.9 0.2 1.8 0.2 1.8 0.2 1.9 0.1 1.9 0.2 1.9 0.1 1.8 0.1 1.9 0.1h1.9 1.9 1.9 1.6l0.9-0.1 1-0.1 1-0.1h1.1l1-0.2 1-0.1 1-0.1 0.9-0.1 1-0.2 1-0.1 1-0.2 0.9-0.1 1-0.2 0.9-0.2 1-0.1 0.9-0.2 1-0.2 0.9-0.3 0.9-0.2 1-0.2 0.9-0.3 1-0.2 0.9-0.3 0.9-0.2 1-0.3 0.9-0.3 1-0.3 1-0.3 1-0.3 0.9-0.4 1-0.3 0.7-0.3 0.2-0.1 0.6-0.2 0.5-0.2 0.5-0.3 0.5-0.2 0.5-0.2 0.4-0.3 0.6-0.2 0.4-0.2 0.5-0.2 0.5-0.3 0.5-0.2 0.5-0.3 0.4-0.2 0.5-0.3 0.5-0.2 0.5-0.3 0.5-0.2 0.5-0.3 0.4-0.2 0.5-0.3 0.5-0.2 0.4-0.3 0.5-0.3 0.5-0.2 0.4-0.3 0.5-0.3 0.5-0.2 0.5-0.3 0.5-0.3 0.5-0.3 0.2-0.1 0.9-0.7 1.1-0.8 1.2-0.8 1.1-0.9 1.1-0.8 1.1-0.8 1-0.9 1.1-0.9 1-0.8 1-0.9 1-0.9 0.9-0.8 1-0.9 0.9-0.9 1-1 0.9-0.9 0.9-0.9 0.9-1 0.9-0.9 0.9-1 0.9-1 0.9-1 0.9-1 0.8-1.1 0.9-1 0.8-1.1 0.9-1.1 0.8-1.1 0.9-1.1 0.9-1.2 0.8-1.2 0.8-1 1-1.5 0.9-1.6 0.9-1.6 0.9-1.6 0.7-1.6 0.7-1.7 0.7-1.6 0.5-1.7 0.6-1.7 0.5-1.6 0.4-1.8 0.5-1.7 0.3-1.8 0.3-1.7 0.3-1.8 0.3-1.9 0.2-1.9 0.2-1.8 0.2-1.9 0.2-2 0.1-1.9 0.1-2 0.1-2 0.1-2.1 0.1-2.1 0.1-2.1 0.1-2.1v-2.1l0.1-2.2 0.1-2.2 0.1-2.2 0.2-2z"/>
		<path id="&lt;Path&gt;" class="s1" d="m980.8 939.3h-0.1c-1 210-189.2 381.1-419.8 381.1-231.3 0-419.9-171.9-419.9-382.8 0-1.4 0-2.7 0.1-4.2v-655.9h0.2 0.5l0.5-0.1h0.5 0.5 0.5 0.5 0.5l0.5-0.1h0.5 0.5 0.5 0.5l0.5-0.1h0.6 0.4l0.6-0.1h0.5 0.5l0.5-0.1h0.5 0.5l0.5-0.1h0.5l0.5-0.1h0.5 0.5l0.5-0.1h0.5l0.5-0.1 0.7-0.1 1.8-0.2 1.7-0.2 1.6-0.3 1.7-0.2 1.6-0.3 1.7-0.3 1.6-0.2 1.6-0.3 1.6-0.4 1.7-0.3 1.6-0.3 1.6-0.3 1.6-0.4 1.6-0.3 1.6-0.4 1.6-0.4 1.6-0.4 1.6-0.4 1.6-0.4 1.6-0.4 1.6-0.4 1.6-0.4 1.6-0.5 1.5-0.4 1.6-0.5 1.6-0.4 1.6-0.5 1.5-0.5 1.6-0.4 1.5-0.5 1.6-0.5 1.6-0.5 2.1-0.7 2-0.7 2-0.6 2-0.7 2-0.6 2-0.7 2-0.7 2-0.6 1.9-0.7 2-0.6 2-0.6 1.9-0.6 2-0.6 1.9-0.6 2-0.5 2-0.5 1.9-0.6 1.9-0.4 2-0.5 1.9-0.4 1.9-0.5 1.9-0.3 2-0.4 1.9-0.3 1.9-0.3 1.9-0.3 2-0.2 1.9-0.2 1.9-0.1 1.9-0.2h1.9l2-0.1h1.8 2l2 0.1h2 1.9l2 0.1h2l2 0.1 2 0.1h2l2 0.1h2l2 0.1h2l2 0.1h2.1l2 0.1h2l2.1 0.1h2 2 2.1 2.1 2 2.1 2.1l2-0.1h2.1l2.1-0.1 2.1-0.1 2.1-0.1 2.2-0.2h1.1l1-0.1 1-0.1 1-0.1 1.1-0.1 1-0.1 1-0.2 1-0.1 1-0.1 1-0.1 1-0.2 1-0.1 1-0.1 1-0.2 1-0.1 1.1-0.2 1-0.2 1-0.1 1-0.2 1-0.2 1-0.2 1-0.2 1-0.2 1-0.2 1-0.2 1-0.2 1.1-0.3 1-0.2 1-0.2 1-0.3 1-0.3 1.2-0.2 2.3-0.7 2.1-0.7 2.2-0.6 2.1-0.7 2.2-0.7 2.1-0.6 2.1-0.7 2.2-0.7 2.1-0.7 2.1-0.7 2.2-0.6 2.1-0.7 2.1-0.8 2.1-0.7 2.1-0.7 2.2-0.7 2.1-0.7 2.1-0.8 2.1-0.7 2.1-0.8 2.1-0.7 2.2-0.8 2.1-0.7 2.1-0.8 2.1-0.8 2.1-0.8 2.1-0.8 2.1-0.8 2.1-0.8 2.1-0.9 2.1-0.8 2.1-0.9 1.5-0.6 1.3-0.6 1.4-0.5 1.4-0.6 1.4-0.6 1.4-0.6 1.4-0.5 2.8-1.2 1.4-0.6 1.3-0.6 1.4-0.5 2.8-1.2 1.4-0.6 1.3-0.5 1.4-0.6 1.4-0.6 1.4-0.6 1.4-0.6 1.3-0.5 1.4-0.6 1.4-0.6 1.4-0.5 1.3-0.6 1.4-0.5 1.4-0.6 1.4-0.6 1.3-0.5 1.4-0.6 1.4-0.5 1.3-0.5 2.7-1 2.7-1 2.7-1 2.7-1 2.7-0.9 2.7-1 2.8-0.9 2.7-0.9 2.8-0.8 2.7-0.9 2.8-0.8 2.7-0.8 2.8-0.8 2.8-0.7 2.7-0.7 2.8-0.7 2.8-0.7 2.8-0.6 2.8-0.6 2.7-0.6 2.8-0.5 2.8-0.5 2.8-0.5 2.8-0.4 2.8-0.4 2.8-0.4 2.8-0.3 2.8-0.3 2.9-0.3 2.8-0.2 2.8-0.2 2.8-0.1h0.4 0.4l0.4-0.1h0.4 0.5 0.4 0.4 0.4 0.4 0.4 0.4l0.5 0.1h0.4 0.4 0.4 0.4l3.6 0.2 3.5 0.3 3.6 0.4 3.5 0.3 3.5 0.5 3.5 0.5 3.4 0.5 3.5 0.6 3.4 0.7 3.5 0.6 3.4 0.8 3.5 0.8 3.4 0.8 3.3 0.9 3.4 0.9 3.4 0.9 3.4 1 3.4 1.1 3.4 1 3.3 1.1 3.4 1.1 3.3 1.2 3.4 1.2 3.3 1.2 3.4 1.2 3.3 1.3 3.4 1.3 3.3 1.3 3.4 1.4 3.3 1.3 3.4 1.4 3.4 1.4 2.4 1 2.5 1.1 2.4 1 2.5 1 2.5 1.1 2.5 1 2.5 1 2.5 1 2.5 1.1 2.5 1 2.5 1 2.5 1 2.5 1 2.5 0.9 2.5 1 2.6 1 2.5 0.9 2.5 1 2.6 0.9 2.5 0.9 2.6 0.9 2.5 0.9 2.6 0.9 2.6 0.9 2.6 0.8 2.6 0.9 2.6 0.8 2.6 0.8 2.7 0.8 2.6 0.8 2.6 0.8 2.3 0.6 1.2 0.4 1.7 0.6 1.7 0.6 1.6 0.6 1.7 0.5 1.7 0.5 1.7 0.4 1.7 0.5 1.7 0.4 1.7 0.4 1.7 0.4 1.7 0.3 1.8 0.4 1.7 0.3 1.7 0.3 1.7 0.2 1.7 0.3 1.7 0.2 1.7 0.3 1.7 0.2 1.7 0.2 1.7 0.1 1.7 0.2 1.8 0.1 1.6 0.2 1.7 0.1 1.7 0.1 1.7 0.1 1.7 0.1 1.7 0.1h1.7l1.7 0.1h1.8l1.7 0.1h1.7 1.7 0.1 1.7 1.7 1.7l1.7-0.1h1.7 1.6l1.7-0.1h1.7 1.7l1.7-0.1h1.7l1.6-0.1h1.7l3.3-0.1 1.7-0.1h1.7l1.6-0.1h1.7l1.6-0.1h1.7l1.6-0.1h1.7 1.6 1.6l1.6-0.1h1.7 1.5l2.2 0.1 2.1 0.1 2.2 0.1 2.1 0.2 2.2 0.2 2.1 0.3 2.2 0.3 2.1 0.4 2.2 0.4 2.1 0.4 2.2 0.5 2.2 0.5 2.1 0.5 2.3 0.6 2.1 0.6 2.2 0.6 2.2 0.7v-0.1l-2.2-0.6 2.2 0.7 2.2 0.6 2.2 0.7 2.2 0.7 2.2 0.7 2.3 0.7 2.2 0.7 2.2 0.8 2.3 0.7 2.2 0.8 2.3 0.7 2.3 0.8 2.3 0.7 2.3 0.7 2.2 0.8 2.4 0.7 2 0.6 2 0.6 2 0.5 1.9 0.5 2 0.6 2 0.5 2 0.5 2 0.5 2 0.5 2 0.4 2 0.5 2 0.4 2 0.4 2 0.4 2.1 0.4 2 0.4 2.1 0.3 2 0.3 1 0.2z"/>
		<path id="&lt;Path&gt;" class="s2" d="m889.2 952.6l-3 15.1-3.7 14.9-4.6 14.5-5.2 14.3-5.9 14-6.7 13.6-7.3 13.2-8 12.8-8.5 12.5-9.2 12-9.8 11.6-10.4 11.1-10.8 10.6-11.4 10.1-11.9 9.6-12.4 9.1-12.8 8.5-13.3 8-13.7 7.3-14.1 6.8-14.5 6.1-14.8 5.4-15.1 4.9-15.5 4.1-15.8 3.4-16 2.7-16.3 1.9-16.5 1.2-16.8 0.4-16.7-0.4-16.6-1.2-16.3-2-16.1-2.7-15.8-3.4-15.5-4.1-15.2-4.8-14.9-5.5-14.5-6.2-14.1-6.8-13.7-7.3-13.3-8-12.8-8.6-12.4-9.1-12-9.7-11.4-10.1-10.9-10.7-10.3-11.2-9.8-11.6-9.1-12.1-8.6-12.4-8-12.9-7.3-13.3-6.6-13.7-5.9-14-5.2-14.3-4.5-14.6-3.7-15-2.9-15.2-2.1-15.4-1.3-15.6-0.4-15.7v-0.5-0.2-0.2-0.3-0.2-0.2-0.2-0.3-0.2-0.4-0.2-0.2-0.3-0.1-475.7h655.9v497.3h-0.6l-1.3 14.4z"/>
		<path id="&lt;Path&gt;" class="s0" d="m887.9 917.9l-0.1 3.4-1.3 15.3-2.2 15.2-2.9 14.8-3.6 14.7-4.5 14.3-5.1 14-5.9 13.8-6.5 13.3-7.2 13-7.8 12.7-8.5 12.2-9 11.8-9.7 11.4-10.1 11-10.7 10.4-11.3 10-11.7 9.5-12.2 8.9-12.6 8.4-13.1 7.8-13.5 7.3-13.9 6.6-14.3 6.1-14.6 5.4-14.9 4.7-15.3 4-15.5 3.4-15.8 2.6-16.1 2-16.3 1.1-16.5 0.4-16.5-0.4-16.3-1.1-16.1-2-15.9-2.6-15.6-3.4-15.2-4.1-15-4.8-14.7-5.4-14.3-6-13.9-6.7-13.5-7.3-13.1-7.8-12.7-8.5-12.2-9-11.7-9.5-11.2-10-10.8-10.5-10.1-11-9.7-11.4-9-11.9-8.4-12.3-7.9-12.7-7.1-13.1-6.6-13.4-5.8-13.8-5.1-14-4.4-14.4-3.6-14.7-2.9-14.9-2-15.2-1.3-15.4-0.4-15.5v-0.3-0.3-0.2-0.2-0.2-0.3-0.2-0.2-0.2-0.4-0.2-0.2-0.3-0.1-470.9h646.1v487.5z"/>
		<path id="&lt;Path&gt;" class="s3" d="m515.6 40.3c-13.8 3.3-27.4 8-40.6 14.3-36.4 17.8-72.9 36-112.3 46.2-14.8 3.5-29.1 5.7-44.2 6.9-22.8 1.4-45.2 0.8-67.9-0.4-6.7 0.2-13.2 0.7-19.8 1.5-90.2 13.8-71.6 51-230.1 40.5l1-50.3c50.5 13 102.2 13.1 151.5-4.1 16.5-5.7 32.9-11.2 49.9-15.5 16.1-3.6 31.3-5.7 47.8-6.3 29.3 1.6 58.6 2.5 87.6-2 21.6-3.9 41.2-10.7 61.4-19.1 20.4-8.8 40.4-18.4 60.3-28.1 12.8-6.1 25.7-11 39.2-14.8 24.4-6.5 49.1-9.4 73.9-9.2 24.8-0.2 49.5 2.7 73.9 9.2 13.5 3.8 26.4 8.7 39.2 14.8 19.9 9.7 39.9 19.3 60.3 28.1 20.2 8.4 39.8 15.2 61.3 19.1 29.1 4.5 58.4 3.6 87.7 2 16.5 0.6 31.7 2.7 47.8 6.3 17 4.3 33.4 9.8 49.9 15.5 49.3 17.2 101 17.1 151.5 4.1l1 50.3c-158.5 10.5-139.9-26.7-230.1-40.5-6.7-0.8-13.1-1.3-19.8-1.5-22.7 1.2-45.2 1.8-67.9 0.4-15.1-1.2-29.5-3.4-44.2-6.9-39.4-10.2-75.9-28.4-112.3-46.2-13.2-6.3-26.8-11-40.6-14.3v0.2c-19.1-4-38.4-6.3-57.7-6.6-19.3 0.3-38.6 2.6-57.7 6.6z"/>
		<path id="&lt;Path&gt;" class="s0" d="m571.9 77.6c20.7-0.6 40.6 2.3 60.4 7.1 44.4 9.2 83.7 30.9 125.7 46.6 47.8 16.4 85.1 10.8 132.5 15.2 84.9-0.6 94.5 40.3 183.4 31.1-29.2 63.9-71.4 58.1-112.3 46.7-24.7-6.8-51.8-19.6-85.5-20.5-29.8-0.4-68.6 5.1-96-6.1-72.1-19.2-112.4-54.8-201.2-61.1-4.8-0.3-9.2-0.3-14 0-88.8 6.3-129.1 41.9-201.2 61.1-27.4 11.2-66.2 5.7-96 6.1-33.8 0.9-60.8 13.7-85.5 20.5-40.9 11.4-83.1 17.2-112.4-46.7 89 9.2 98.5-31.7 183.5-31.1 47.4-4.4 84.7 1.2 132.5-15.2 42-15.7 81.3-37.4 125.7-46.6 19.7-4.8 39.7-7.7 60.4-7.1z"/>
		<path id="&lt;Compound Path&gt;" fill-rule="evenodd" class="s0" d="m754 342.8q0-6.8 2.3-15.5 2.4-8.8 10.3-16.3 8-7.6 23.1-7.6 15.5 0 23.4 7.8 7.9 7.8 10.1 16.6 2.3 8.9 2.3 15 0 6.5-2.2 15.1-2.2 8.6-10.1 16.4-7.9 7.8-23.5 7.8-15.2 0-23.1-7.5-7.9-7.4-10.3-16.2-2.3-8.8-2.3-15.6zm35.7 26.7q9.6 0 13.2-8 3.7-8 3.7-18.7c0-7.3-1.3-13.6-3.6-18.9q-3.6-7.8-13.3-7.8c-6.3 0-10.7 2.6-13.2 7.9-2.4 5.4-3.6 11.6-3.6 18.8 0 7.2 1.2 13.4 3.6 18.7 2.5 5.3 6.9 8 13.2 8zm-102.4 10.8v-75.1h24.1q13 0 21.7 3.1 8.7 3 8.7 15.3c0 4.7-1.3 8.6-3.9 11.8q-3.8 4.7-9.8 4.7v1.2c5.2 0 9.5 1.7 12.9 5 3.3 3.3 5 7.5 5 12.5 0 7-2.2 12.4-6.8 16q-6.8 5.5-20.4 5.5zm16.4-45.4h9q6 0 8.6-2.1 2.7-2.1 2.7-6.7c0-3.5-1.2-5.9-3.5-6.9q-3.5-1.7-8.7-1.7h-8.1zm0 33.1h10.5c3.6 0 6.7-0.6 9.2-1.7q3.8-1.6 3.8-7.9 0-6.3-3.9-8.5-3.9-2.1-10.1-2.1h-9.5zm-101-25.2q0.1-6.7 2.4-15.5 2.4-8.8 10.3-16.3 7.9-7.5 23.1-7.5c10.3 0 18.1 2.6 23.4 7.8q7.9 7.8 10.1 16.6 2.3 8.8 2.3 14.9c0 4.4-0.8 9.4-2.2 15.2-1.5 5.7-4.9 11.2-10.1 16.4q-7.9 7.8-23.5 7.8-15.2 0-23.2-7.5c-5.2-5-8.6-10.4-10.2-16.3q-2.3-8.7-2.4-15.6zm35.8 26.7q9.5 0 13.2-7.9 3.7-8 3.7-18.8-0.1-10.9-3.7-18.8-3.6-7.9-13.2-7.9c-6.4 0-10.7 2.7-13.2 8q-3.6 8-3.6 18.7 0 10.9 3.6 18.8c2.5 5.3 6.8 7.9 13.2 7.9zm-92-23.6v34.5h-16.3v-75.1h16.3v28.1h27.1v-28.1h16.3v75.1h-16.3v-34.5zm-93.7 35v-12.5q3.4 0 4.7-1.5 1.1-1.5 1.7-2.6 0.6-1.2 2.4-5.1 1.8-3.9 4.5-7 2.7-3.2 7.9-5.2-6.4-1.4-11.9-6-5.4-4.6-5.4-14.2 0-8.5 5.8-15 5.9-6.5 21.3-6.5h29v75.1h-16.2v-29.6h-3.8q-2.1 0-3.9 0.4-1.7 0.5-3.2 1.6-1.5 1.2-2.3 2.3-0.7 1.2-4.9 9.9-4.3 8.8-9 13-4.8 4.2-10.5 4.2-1.9 0-3.3-0.4-1.4-0.3-2.9-0.9zm36.1-63.3q-7.8 0-11 2.5-3.2 2.4-3.3 7.7 0 4 2.6 6.9 2.6 3 9.8 3h9.6v-20.1zm-81.8 38.4v24.4h-16.3v-75.1h22.9q15.7 0 24.3 5.7 8.7 5.6 8.7 20 0 12.1-7.5 18.6-7.4 6.4-23.1 6.4zm7.2-13q6.6 0 10.2-2.8 3.6-2.8 3.6-9.5 0-6.2-3.1-9.6-3.1-3.5-10.7-3.5h-7.2v25.4zm-41.2 25h6.3v30.2h-14.6v-17.8h-42.4v17.8h-14.6v-30.2h6.6q5.4-9.6 7.8-18.9 2.4-9.2 2.9-17.9 0.5-8.7 0.5-25.9h47.5zm-41.2 0h24.8v-50.2h-14.6c0 10.5-0.7 19.3-1.9 26.5q-1.9 10.8-8.3 23.7z"/>
		<path id="&lt;Path&gt;" class="s2" d="m876.1 905.7c-0.7 159.6-140.1 289.5-310.9 289.5-171.2 0-310.9-130.6-310.9-290.7 0-1 0.1-2.1 0.1-3.1v-458.8h621.8v463.1z"/>
		<path id="&lt;Path&gt;" class="s3" d="m867.2 963.4l-3.6 13.9-4.1 13.6-4.9 13.4-5.6 13-6.2 12.7-6.8 12.3-7.5 12.1-8 11.6-8.6 11.3-9.2 10.8-9.7 10.4-10.2 10-10.7 9.5-11.2 9.1-11.6 8.5-12.1 8-12.5 7.5-12.9 6.9-13.3 6.4-13.6 5.8-14 5.1-14.3 4.5-14.6 3.9-14.9 3.2-15.1 2.6-15.4 1.8-15.6 1.1-15.8 0.4-15.8-0.4-15.7-1.1-15.4-1.8-15.1-2.6-14.9-3.2-14.7-3.9-14.3-4.6-14-5.1-13.6-5.9-13.3-6.3-13-7-12.5-7.5-12.1-8.1-11.6-8.5-11.2-9.1-10.8-9.6-10.2-10-9.7-10.5-9.1-10.9-8.7-11.3-8-11.6-7.4-12.2-6.8-12.4-6.2-12.7-5.6-13.1-4.8-13.4-4.2-13.7-3.4-13.9-2.7-14.1-2-14.4-1.2-14.6-0.4-14.8v-0.2-0.2-0.2-0.1-0.2-0.2-0.2-0.2-0.2-0.4-0.2-0.2-0.2-0.2-0.2-456.4h617v458.4l-0.6 17.1-1.3 14.5-2 14.3z"/>
		<path id="&lt;Path&gt;" class="s2" d="m699.7 1035.6l68.3 66.5-5.4 4.8-10.6 8.6-11.1 8.1-11.5 7.7-12 7.1-12.5 6.8-8.7-14.9c-11 5.5-22.3 10.4-34 14.3l6.6 15.9-2.6 1-13.7 4.3-13.9 3.7-14.2 3.1-14.5 2.4-14.7 1.8-8.8 0.7-1.6-17c-15.6 0.9-31.5 0.8-47.7-0.7l-1.6 17.1-15.1-1.9-14.5-2.4-14.2-3.1-14-3.8-13.6-4.3-8.8-3.2 6.5-15.6c-16.2-6.3-31.3-13.7-42.8-20.7l-9.2 14.6-9.1-5.5-11.5-7.6-11.1-8.2-10.7-8.6-9.5-8.6 68.2-66.4 2.9 2.6 7.2 5.8 7.5 5.5 7.8 5.3 8.2 4.8 8.4 4.6 8.7 4.1 8.9 3.8 9.2 3.4 9.5 3 9.6 2.6 9.9 2.2 10 1.6 10.3 1.2 10.4 0.8 10.6 0.2 10.6-0.2 10.4-0.8 10.3-1.2 10-1.6 9.8-2.2 9.6-2.5 9.5-3 9.1-3.4 9-3.8 8.6-4.1 8.5-4.5 8.1-4.9 7.8-5.2 7.5-5.5z"/>
		<path id="&lt;Path&gt;" class="s0" d="m702.3 1055.2l41.3 45.1-2 1.7-10.5 7.6-10.9 7.2-11.2 6.8-3.8 2-9.3-14.3c-15.6 7.9-36.4 16.4-52.7 21.8l5.7 16-1.1 0.3-13.2 3.5-13.4 2.9-13.7 2.3-11.9 1.4-2.4-16.9c-25.7 2.6-42.1 2.1-64.6-1.1l-2.2 17-3.6-0.4-13.7-2.3-13.4-2.9-13.2-3.5-7.6-2.4 5.3-16c-18.5-6.7-41.2-16.4-61.9-29l-10.1 13.5-9.2-6.1-10.5-7.7-6.7-5.5 41.2-44.9 2.8 2.2 8.1 6 8.5 5.6 8.8 5.3 9.2 5 9.4 4.5 9.7 4.1 9.9 3.7 10.2 3.2 10.4 2.8 10.6 2.3 10.9 1.8 11 1.3 11.3 0.8 11.4 0.3 11.4-0.3 11.3-0.8 11-1.3 10.8-1.8 10.6-2.3 10.4-2.7 10.2-3.3 9.9-3.6 9.7-4.1 9.4-4.5 9.1-4.9 8.8-5.3 8.5-5.6z"/>
		<path id="&lt;Path&gt;" class="s0" d="m256.8 812.2l1.7-0.7 2.6-1 2.6-0.9 2.6-0.9 2.7-1 2.8-0.9 2.8-0.9 2.8-0.8 2.9-0.8 2.9-0.9 3-0.7 3-0.7 3.1-0.6 3.1-0.7 3.1-0.5 3.2-0.5 3.2-0.4 3.2-0.4 3.3-0.3 3.3-0.2 3.3-0.2 3.4-0.1 3.4 0.1 3.4 0.1 3.4 0.2 3.5 0.3 3.5 0.4 3.5 0.5 3.5 0.6 3.4 0.7 1.7 0.4 1.5 0.3 1.6 0.3 1.6 0.4 1.5 0.3 1.6 0.3 1.6 0.3 1.5 0.3 1.6 0.3 1.5 0.3 1.6 0.3 1.5 0.3 1.5 0.3 1.6 0.2 1.5 0.3 1.5 0.2 1.5 0.3 1.6 0.2 1.5 0.2 1.5 0.2 1.5 0.3 1.5 0.1 1.4 0.2 1.5 0.2 1.5 0.2 1.5 0.1 1.4 0.2 1.5 0.2 1.4 0.1 1.5 0.1 1.4 0.1 1.4 0.1 1.5 0.1 1.4 0.1 1.4 0.1 1.4 0.1h1.4 1.3l1.4 0.1h1.4 1.3 1.4 1.3l1.3-0.1h1.3 1.3l1.3-0.1 1.3-0.1 1.3-0.1 1.3-0.1 1.2-0.1 1.2-0.1 1.3-0.1 1.2-0.2 1.2-0.1 1.2-0.2 1.2-0.2 1.1-0.2 1.2-0.2 1.1-0.3 1.2-0.2 1.1-0.3 1.1-0.2 1.2-0.4 6-1.4 5.9-1.3 5.6-1.1 5.4-0.9 5.2-0.7 5-0.6 4.8-0.3 4.7-0.2 4.4-0.1 4.4 0.1 4.1 0.3 4.1 0.3 3.9 0.4 3.7 0.6 3.7 0.6 3.5 0.6 3.5 0.8 3.3 0.7 3.3 0.7 3.2 0.8 3.1 0.7 3.2 0.7 3 0.8 3.1 0.6 3.1 0.6 3.1 0.6 3.2 0.5 3.2 0.4 3.3 0.4 3.4 0.2 3.5 0.2h3.7 3.6l3.6-0.2 3.4-0.2 3.3-0.4 3.2-0.4 3.1-0.5 3.1-0.6 3.1-0.6 3.1-0.6 3.1-0.8 3.1-0.7 3.2-0.7 3.2-0.8 3.3-0.7 3.3-0.7 3.4-0.8 3.6-0.6 3.6-0.6 3.8-0.6 3.9-0.4 4-0.3 4.2-0.3 4.3-0.1 4.5 0.1 4.6 0.2 4.9 0.3 5 0.6 5.2 0.7 5.4 0.9 5.6 1.1 5.9 1.3 5.9 1.4 1.2 0.4 1.1 0.2 1.2 0.3 1.1 0.2 1.1 0.3 1.2 0.2 1.2 0.2 1.2 0.2 1.2 0.2 1.2 0.1 1.2 0.2 1.2 0.1 1.3 0.1 1.2 0.1 1.3 0.1 1.2 0.1 1.3 0.1 1.3 0.1h1.3 1.3l1.4 0.1h1.3 1.3 1.4 1.3l1.4-0.1h1.4 1.4l1.4-0.1 1.4-0.1 1.4-0.1 1.4-0.1 1.4-0.1 1.5-0.1 1.4-0.1 1.5-0.1 1.4-0.2 1.5-0.2 1.4-0.1 1.5-0.2 1.5-0.2 1.5-0.2 1.5-0.1 1.5-0.3 1.5-0.2 1.5-0.2 1.5-0.2 1.5-0.3 1.6-0.2 1.5-0.3 1.5-0.2 1.6-0.3 1.5-0.3 1.5-0.3 1.6-0.3 1.5-0.3 1.6-0.3 1.6-0.3 1.5-0.3 1.6-0.3 1.6-0.4 1.5-0.3 1.6-0.3 1.7-0.4 3.4-0.7 3.5-0.6 3.5-0.5 3.4-0.4 3.5-0.3 3.5-0.2 3.4-0.1 3.3-0.1 3.4 0.1 3.3 0.2 3.4 0.2 3.2 0.3 3.3 0.4 3.2 0.4 3.2 0.5 3.1 0.5 3.1 0.7 3 0.6 3 0.7 3 0.7 3 0.9 2.9 0.8 2.8 0.8 2.8 0.9 2.7 0.9 2.7 1 2.7 0.9 2.6 0.9 2.5 1 2.5 1h0.1v27.8l-5.8-3.8-1.1-0.5-2.3-0.9-2.2-0.9-2.3-0.8-2.4-0.9-2.3-0.9-2.4-0.8-2.5-0.8-2.5-0.8-2.5-0.8-2.5-0.7-2.6-0.7-2.6-0.6-2.6-0.6-2.6-0.6-2.7-0.5-2.6-0.5-2.7-0.4-2.7-0.3-2.7-0.4-2.7-0.2-2.8-0.2-2.8-0.1-2.7-0.1h-2.8l-2.8 0.1-2.7 0.2-2.8 0.2-2.8 0.4-2.8 0.3-2.8 0.5-2.9 0.6-1.5 0.4-1.6 0.3-1.7 0.4-1.6 0.3-1.7 0.3-1.6 0.4-1.7 0.3-1.6 0.3-1.7 0.4-1.6 0.3-1.6 0.3-1.6 0.3-1.7 0.3-1.6 0.3-1.7 0.2-1.6 0.3-1.6 0.2-1.7 0.3-1.6 0.2-1.6 0.3-1.6 0.2-1.6 0.2-1.7 0.2-1.5 0.2-1.7 0.2-1.6 0.2-1.6 0.1-1.6 0.2-1.6 0.2-1.6 0.1-1.6 0.1-1.6 0.1-1.6 0.2h-1.6l-1.5 0.1-1.6 0.1-1.6 0.1h-1.6-1.5l-1.6 0.1h-1.5-1.6l-1.5-0.1h-1.6-1.5l-1.6-0.1-1.5-0.1-1.5-0.1-1.5-0.1-1.5-0.1-1.6-0.1-1.5-0.2-1.5-0.2-1.5-0.1-1.5-0.2-1.4-0.3-1.5-0.2-1.5-0.2-1.4-0.3-1.5-0.3-1.5-0.3-1.4-0.4-1.4-0.3-1.3-0.3-5.7-1.4-5.2-1.2-5-1-4.7-0.8-4.4-0.6-4.3-0.4-4.1-0.3-3.8-0.2h-3.7l-3.6 0.1-3.4 0.2-3.3 0.2-3.2 0.4-3.2 0.4-3.1 0.6-3.1 0.5-3 0.7-3.1 0.6-3.1 0.7-3.1 0.8-3.2 0.7-3.2 0.8-3.3 0.7-3.4 0.8-3.5 0.7-3.6 0.6-3.7 0.6-3.9 0.5-3.9 0.4-4.1 0.3-4.3 0.3h-4.4-4.4l-4.3-0.3-4.1-0.3-4-0.4-3.8-0.5-3.7-0.6-3.6-0.6-3.5-0.7-3.4-0.8-3.3-0.7-3.3-0.8-3.1-0.7-3.1-0.8-3.1-0.7-3.1-0.6-3.1-0.7-3-0.5-3.1-0.6-3.2-0.4-3.2-0.4-3.4-0.2-3.4-0.2-3.5-0.1h-3.7l-3.9 0.2-4 0.3-4.3 0.4-4.5 0.6-4.7 0.8-4.9 1-5.3 1.2-5.6 1.4-1.3 0.3-1.4 0.3-1.5 0.4-1.4 0.3-1.5 0.3-1.5 0.3-1.4 0.2-1.5 0.2-1.5 0.3-1.5 0.2-1.5 0.1-1.5 0.2-1.5 0.2-1.5 0.1-1.5 0.1-1.5 0.1-1.6 0.1-1.5 0.1-1.5 0.1h-1.6-1.5l-1.5 0.1h-1.6-1.6l-1.5-0.1h-1.6-1.6l-1.5-0.1-1.6-0.1-1.6-0.1h-1.6l-1.6-0.2-1.5-0.1-1.7-0.1-1.5-0.1-1.6-0.2-1.7-0.2-1.6-0.1-1.6-0.2-1.6-0.2-1.6-0.2-1.6-0.2-1.6-0.2-1.7-0.2-1.6-0.3-1.6-0.2-1.6-0.3-1.7-0.2-1.6-0.3-1.6-0.2-1.7-0.3-1.6-0.3-1.6-0.3-1.7-0.3-1.6-0.3-1.6-0.4-1.7-0.3-1.6-0.3-1.7-0.4-1.6-0.3-1.7-0.3-1.6-0.4-1.6-0.3-1.6-0.4-2.9-0.6-2.8-0.5-2.8-0.3-2.7-0.4-2.8-0.2-2.8-0.2-2.8-0.1h-2.7l-2.8 0.1-2.7 0.1-2.8 0.2-2.7 0.2-2.7 0.4-2.7 0.3-2.7 0.4-2.7 0.5-2.6 0.5-2.7 0.6-2.6 0.6-2.6 0.6-2.5 0.7-2.6 0.7-2.5 0.8-2.4 0.8-2.5 0.8-2.4 0.8-2.4 0.9-2.3 0.9-2.3 0.8-2.3 0.9-2.2 0.9-1.2 0.5-4.9 3.3z"/>
		<path id="&lt;Path&gt;" class="s2" d="m620.4 705.3c-3.6-1.3-6.8-4.4-5-7.1 1.1-1.6 6.2-2.6 7.9-4.4-9-2.9-9.2-8.4-1.6-12.5 5-4.6 20.2-6.8 25.4-5.9-5.5-3.6-10.5-7.6-15.6-11.6-4.1 4.7-10.4 7.6-16 10.1-2.1 6.1-5.5 12.1-14.2 8.2l-14.4 14.4-7.6-7.7-6.2 6.2-6-6.1-7.6 7.6-14.4-14.4c-8.7 3.9-12-2.1-14.2-8.2-5.6-2.5-11.8-5.4-15.9-10.1-5.2 4-10.2 8-15.6 11.6 5.2-0.9 20.4 1.3 25.4 5.9 7.6 4.1 7.3 9.6-1.6 12.5 1.6 1.8 6.8 2.8 7.9 4.4 1.8 2.7-1.4 5.8-5 7.1-3.8-1-20.8-4.2-27.9-5.6l-33.2 0.4c-4.4-2.8-12-2.4-13.4-7.4-0.7-3.5 0.3-6.8 2.1-9.8-16.7 6.5-29 5.7-45.9 0.2-8.8-3.3-21-4.3-27.8-10.9-2.5 2.6-4.4 4.4-8.1 4.6l2.7 4.5c9.3 0.7 24.8 5.8 27.7 12.6l6.7 4.7c-2.2 1-3.4 1.7-5.2 3.2l3 7.4-5 3.2c-1.8 2.9-11.5-2.4-14.7-2.2-12.3 0.5-22.3-4.8-34.5-3.9-15.5-3.5-21.9 8.2-22.3-4.9-7.6-3.5 2.2-23.7 5-27.9-3.8 0-3.7-0.1-6.3-2.7-18.9-14-23.4-43.1 2-54.5 6.3-7.4 22.1-11.9 31.4-5.6 1.3 1.3 2.9 1.5 4.4 2.3 3.4 2.7 4.9 7.5 5.6 11.7 0.8 0 3.7-0.9 4.5-0.6 2 1.2 9.5 5.9 10.8 7.2 4.6 1.8 5.1-5.8 0.7-6.4-10-3.8-10.5-13.1-13.9-14.7-2.2-1 4.3-4.2 7.9-5.4 5 0.5 7.4-0.8 7.7-3.4 0.3-1.8-1.8-0.1-1.7-7 2.8-3.8 10.7-3.3 16-2.4l22.4 3.9h1.1l1.7 0.2 1.6 0.2 1.6 0.3 1.6 0.4 1.6 0.5 1.5 0.6 1.4 0.6c3.6 1.9 6.8 4.1 9.6 7 4.5-3.6 8.5-5.3 14.4-3.9 12.3 3.6 16.1 18.7 11.5 29.6l-0.1 0.4-0.2 0.4-0.1 0.2h0.1 0.2l0.2 0.1h0.1 0.1 0.1 0.1l0.4-0.1 0.5-0.2 0.5-0.2 0.5-0.1 0.5-0.3 0.5-0.2 0.4-0.2c4-2.3 7.3-5.6 10-9.3l-3.4-6.3c4.2-3.2 11.5-8.4 11.7-16.2l10.9 8.1 4.4-3.8 8.5 5.4 2.7-2.6c1.2-1.1 1.9-2.7 3-2.8 1.9-0.2 3.3 0.3 5.7 1 0.7 4.7 6.7 13.4 10 13.7l3.3-1.4c0.6-0.5 1.1-1 1.7-1.4-1-2-0.7-4.2 0.1-6.1 3-5.8 9.3-8 14.8-4.3 3.4 2.9 4.7 6.6 4.8 10.8-0.9 10.2-9.3 12.3-17.3 15.1-0.9 4.7-1.4 10.1-2.6 14.7 2.8 0.3 4.7 2.6 4.4 5.4l1.9-2.2 3.1 1.2q-2.3 3.9-1.5 5.3l5.1-5.1 8.9 8.9 4.7-4.8 4.9 4.9 8.9-9 5.2 5.1q0.7-1.4-1.6-5.3l3.2-1.2 1.8 2.2c-0.3-2.8 1.7-5.1 4.5-5.4-1.3-4.6-1.8-10-2.7-14.7-7.9-2.8-16.3-4.9-17.2-15.1 0-4.2 1.3-7.9 4.7-10.8 5.5-3.7 11.8-1.5 14.9 4.3 0.7 1.9 1 4.1 0 6.1 0.6 0.4 1.2 0.9 1.7 1.4l3.4 1.4c3.3-0.3 9.2-9 10-13.7 2.4-0.7 3.7-1.2 5.7-1 1 0.1 1.8 1.7 2.9 2.8l2.7 2.6 8.5-5.4 4.4 3.8 10.9-8.1c0.2 7.8 7.5 13 11.7 16.2l-3.4 6.3c2.7 3.7 6 7 10 9.3l0.5 0.2 0.5 0.2 0.5 0.3 0.5 0.1 0.4 0.2 0.5 0.2 0.4 0.1h0.1 0.1 0.1 0.2l0.2-0.1h0.1 0.2l-0.2-0.2-0.1-0.4-0.2-0.4c-4.6-10.9-0.8-26 11.5-29.6 5.9-1.4 9.9 0.3 14.5 3.9 2.8-2.9 5.9-5.1 9.5-7l1.5-0.6 1.5-0.6 1.5-0.5 1.6-0.4 1.6-0.3 1.6-0.2 1.7-0.2h1.2l22.4-3.9c5.3-0.9 13.1-1.4 15.9 2.4 0.2 6.9-2 5.2-1.7 7 0.4 2.6 2.7 3.9 7.8 3.4 3.6 1.2 10 4.4 7.8 5.4-3.4 1.6-3.9 10.9-13.9 14.7-4.3 0.6-3.8 8.2 0.7 6.4 1.4-1.3 8.8-6 10.9-7.2 0.7-0.3 3.7 0.6 4.5 0.6 0.6-4.2 2.2-9 5.6-11.7 1.5-0.8 3.1-1 4.3-2.3 9.3-6.3 25.1-1.8 31.5 5.6 25.3 11.4 20.8 40.5 2 54.5-2.6 2.6-2.6 2.7-6.4 2.7 2.8 4.2 12.6 24.4 5.1 27.9-0.5 13.1-6.9 1.4-22.3 4.9-12.2-0.9-22.3 4.4-34.5 3.9-3.3-0.2-13 5.1-14.7 2.2l-5.1-3.2 3.1-7.4c-1.9-1.5-3.1-2.2-5.3-3.2l6.8-4.7c2.8-6.8 18.4-11.9 27.6-12.6l2.7-4.5c-3.7-0.2-5.5-2-8.1-4.6-6.7 6.6-18.9 7.6-27.7 10.9-17 5.5-29.2 6.3-45.9-0.2 1.7 3 2.7 6.3 2.1 9.8-1.5 5-9.1 4.6-13.5 7.4l-33.1-0.4c-7.1 1.4-24.2 4.6-27.9 5.6z"/>
		<path id="&lt;Path&gt;" class="s0" d="m256.8 865.9l1.7-0.6 2.6-1 2.6-1 2.6-0.9 2.7-1 2.8-0.9 2.8-0.8 2.8-0.9 2.9-0.8 2.9-0.8 3-0.7 3-0.8 3.1-0.6 3.1-0.6 3.1-0.6 3.2-0.5 3.2-0.4 3.2-0.4 3.3-0.3 3.3-0.2 3.3-0.1 3.4-0.1h3.4l3.4 0.1 3.4 0.2 3.5 0.3 3.5 0.4 3.5 0.5 3.5 0.6 3.4 0.7 1.7 0.4 1.5 0.3 1.6 0.3 1.6 0.4 1.5 0.3 1.6 0.3 1.6 0.3 1.5 0.4 1.6 0.3 1.5 0.2 1.6 0.3 1.5 0.3 1.5 0.3 1.6 0.2 1.5 0.3 1.5 0.3 1.5 0.2 1.6 0.2 1.5 0.2 1.5 0.3 1.5 0.2 1.5 0.2 1.4 0.2 1.5 0.1 1.5 0.2 1.5 0.2 1.4 0.1 1.5 0.2 1.4 0.1 1.5 0.1 1.4 0.2 1.4 0.1h1.5l1.4 0.2h1.4l1.4 0.1h1.4l1.3 0.1h1.4 1.4 1.3 1.4 1.3 1.3l1.3-0.1h1.3l1.3-0.1h1.3l1.3-0.2h1.3l1.2-0.2 1.2-0.1 1.3-0.1 1.2-0.2 1.2-0.1 1.2-0.2 1.2-0.2 1.1-0.2 1.2-0.2 1.1-0.3 1.2-0.2 1.1-0.2 1.1-0.3 1.2-0.3 6-1.5 5.9-1.3 5.6-1.1 5.4-0.9 5.2-0.7 5-0.5 4.8-0.4 4.7-0.2h4.4 4.4l4.1 0.3 4.1 0.3 3.9 0.5 3.7 0.5 3.7 0.6 3.5 0.7 3.5 0.7 3.3 0.7 3.3 0.7 3.2 0.8 3.1 0.8 3.2 0.7 3 0.7 3.1 0.6 3.1 0.7 3.1 0.5 3.2 0.5 3.2 0.4 3.3 0.4 3.4 0.3 3.5 0.1 3.7 0.1 3.6-0.1 3.6-0.1 3.4-0.3 3.3-0.4 3.2-0.4 3.1-0.5 3.1-0.5 3.1-0.7 3.1-0.6 3.1-0.7 3.1-0.7 3.2-0.8 3.2-0.8 3.3-0.7 3.3-0.7 3.4-0.7 3.6-0.7 3.6-0.6 3.8-0.5 3.9-0.5 4-0.3 4.2-0.3h4.3 4.5l4.6 0.2 4.9 0.4 5 0.5 5.2 0.7 5.4 0.9 5.6 1.1 5.9 1.3 5.9 1.5 1.2 0.3 1.1 0.3 1.2 0.2 1.1 0.2 1.1 0.3 1.2 0.2 1.2 0.2 1.2 0.2 1.2 0.2 1.2 0.1 1.2 0.2 1.2 0.1 1.3 0.1 1.2 0.2h1.3l1.2 0.2h1.3l1.3 0.1h1.3l1.3 0.1h1.4 1.3 1.3 1.4 1.3 1.4l1.4-0.1h1.4l1.4-0.1h1.4l1.4-0.2h1.4l1.4-0.1 1.5-0.2 1.4-0.1 1.5-0.1 1.4-0.2 1.5-0.1 1.4-0.2 1.5-0.2 1.5-0.1 1.5-0.2 1.5-0.2 1.5-0.2 1.5-0.3 1.5-0.2 1.5-0.2 1.5-0.2 1.6-0.3 1.5-0.3 1.5-0.2 1.6-0.3 1.5-0.3 1.5-0.3 1.6-0.2 1.5-0.3 1.6-0.4 1.6-0.3 1.5-0.3 1.6-0.3 1.6-0.4 1.5-0.3 1.6-0.3 1.7-0.4 3.4-0.7 3.5-0.6 3.5-0.5 3.4-0.4 3.5-0.3 3.5-0.2 3.4-0.1h3.3l3.4 0.1 3.3 0.1 3.4 0.2 3.2 0.3 3.3 0.4 3.2 0.4 3.2 0.5 3.1 0.6 3.1 0.6 3 0.6 3 0.8 3 0.7 3 0.8 2.9 0.8 2.8 0.9 2.8 0.8 2.7 0.9 2.7 1 2.7 0.9 2.6 1 2.5 1 2.5 1h0.1v27.8l-5.8-3.9-1.1-0.4-2.3-0.9-2.2-0.9-2.3-0.9-2.4-0.9-2.3-0.8-2.4-0.9-2.5-0.8-2.5-0.8-2.5-0.7-2.5-0.8-2.6-0.6-2.6-0.7-2.6-0.6-2.6-0.6-2.7-0.5-2.6-0.4-2.7-0.5-2.7-0.3-2.7-0.4-2.7-0.2-2.8-0.2-2.8-0.1h-2.7-2.8l-2.8 0.1-2.7 0.1-2.8 0.3-2.8 0.3-2.8 0.4-2.8 0.5-2.9 0.5-1.5 0.4-1.6 0.4-1.7 0.3-1.6 0.3-1.7 0.4-1.6 0.3-1.7 0.4-1.6 0.3-1.7 0.3-1.6 0.3-1.6 0.3-1.6 0.3-1.7 0.3-1.6 0.3-1.7 0.2-1.6 0.3-1.6 0.2-1.7 0.3-1.6 0.3-1.6 0.2-1.6 0.2-1.6 0.2-1.7 0.3-1.5 0.1-1.7 0.2-1.6 0.2-1.6 0.2-1.6 0.1-1.6 0.2-1.6 0.1-1.6 0.1-1.6 0.2-1.6 0.1-1.6 0.1-1.5 0.1h-1.6l-1.6 0.1h-1.6l-1.5 0.1h-1.6-1.5-1.6-1.5l-1.6-0.1h-1.5l-1.6-0.1h-1.5l-1.5-0.1-1.5-0.1-1.5-0.2-1.6-0.1-1.5-0.2-1.5-0.1-1.5-0.2-1.5-0.2-1.4-0.2-1.5-0.3-1.5-0.2-1.4-0.3-1.5-0.3-1.5-0.3-1.4-0.3-1.4-0.4-1.3-0.3-5.7-1.4-5.2-1.2-5-0.9-4.7-0.8-4.4-0.6-4.3-0.5-4.1-0.3-3.8-0.1-3.7-0.1-3.6 0.1-3.4 0.2-3.3 0.2-3.2 0.4-3.2 0.5-3.1 0.5-3.1 0.6-3 0.6-3.1 0.7-3.1 0.7-3.1 0.7-3.2 0.8-3.2 0.7-3.3 0.8-3.4 0.7-3.5 0.7-3.6 0.6-3.7 0.6-3.9 0.6-3.9 0.4-4.1 0.3-4.3 0.2-4.4 0.1-4.4-0.1-4.3-0.2-4.1-0.3-4-0.4-3.8-0.6-3.7-0.6-3.6-0.6-3.5-0.7-3.4-0.7-3.3-0.8-3.3-0.7-3.1-0.8-3.1-0.7-3.1-0.7-3.1-0.7-3.1-0.6-3-0.6-3.1-0.5-3.2-0.5-3.2-0.4-3.4-0.2-3.4-0.2-3.5-0.1-3.7 0.1-3.9 0.1-4 0.3-4.3 0.5-4.5 0.6-4.7 0.8-4.9 0.9-5.3 1.2-5.6 1.4-1.3 0.3-1.4 0.4-1.5 0.3-1.4 0.3-1.5 0.3-1.5 0.3-1.4 0.2-1.5 0.3-1.5 0.2-1.5 0.2-1.5 0.2-1.5 0.1-1.5 0.2-1.5 0.1-1.5 0.2-1.5 0.1-1.6 0.1h-1.5l-1.5 0.1h-1.6l-1.5 0.1h-1.5-1.6-1.6-1.5l-1.6-0.1h-1.6l-1.5-0.1h-1.6l-1.6-0.1-1.6-0.1-1.6-0.1-1.5-0.2-1.7-0.1-1.5-0.1-1.6-0.2-1.7-0.1-1.6-0.2-1.6-0.2-1.6-0.2-1.6-0.1-1.6-0.3-1.6-0.2-1.7-0.2-1.6-0.2-1.6-0.3-1.6-0.3-1.7-0.2-1.6-0.3-1.6-0.2-1.7-0.3-1.6-0.3-1.6-0.3-1.7-0.3-1.6-0.3-1.6-0.3-1.7-0.3-1.6-0.4-1.7-0.3-1.6-0.4-1.7-0.3-1.6-0.3-1.6-0.4-1.6-0.4-2.9-0.5-2.8-0.5-2.8-0.4-2.7-0.3-2.8-0.3-2.8-0.1-2.8-0.1h-2.7-2.8l-2.7 0.1-2.8 0.2-2.7 0.2-2.7 0.4-2.7 0.3-2.7 0.5-2.7 0.4-2.6 0.5-2.7 0.6-2.6 0.6-2.6 0.7-2.5 0.6-2.6 0.8-2.5 0.7-2.4 0.8-2.5 0.8-2.4 0.9-2.4 0.8-2.3 0.9-2.3 0.9-2.3 0.9-2.2 0.9-1.2 0.4-4.9 3.3z"/>
		<path id="&lt;Compound Path&gt;" fill-rule="evenodd" class="s0" d="m349.1 628c-0.4 3.3 3.6 6.7 4.5 7.2 12.1 6.9 15.6-1.6 18.3-5.7 1.4-2.1 3.4-1.7 5.3 1.8-1.4 1.5-2.4 3.3 0.9 7.4 1.9 2.3 3 9.7-1.6 15-3.7 4.4-8.6 9.3-10.3 11.2-1.7 2-3.8 7.6-6.7 9.7-5.6 19.7 5.8 18.5 16.3 19.4 2.9 0.3 10.7 2.2 13.3 3.9 3 1.8 2.8 5.2 1.5 5.7-4.1 1.9-26.7-5.5-29.3-4.9-5.4 1.4-9.6 2-15.3 0.7-5.7-1.2-6.9-0.2-8.1-4.4q-0.7-2.3-1.4-4.6c-2.7-4.2 6.7-12.1 9.2-20.2 0.7-2.2 0.5-3.4-1.8-4.7-23.8-14.7-17.5-34.3-17.5-34.3 6.8-9.4 21.5-7.2 21-6.7 0.7-0.5 2.1 0.6 1.7 3.5zm13.6-9.7c-1.4-1.2 1-4.2 3.4-2.5 2.2 1.6 3.7 8.1 3.7 10.3 0 3.5-4.7 8-7.9 7.9-6.3 0-9.2-3.4-9.5-6.7-0.8-9.1 10.4-9.6 10.4-4.7 0 1.6-1.3 2.9-2.9 2.9-2.4 0-2.4-1.7-3.8-1.7l-0.2 0.1c-0.5 0-1.6 1.8-1.8 2.4 1.1 1.8 3.6 3.1 5.8 3.1 3.3 0 6.7-1.6 6-6.8 0-1.5-2.3-3.2-3.2-4.3zm-4.2-6.3c5.7 1.4 3.4 4 0.3 4-5.2-2-5.1 1.8-9.6 2.2-6.3 0-6.7-0.8-10.2 1.1-2.1 1.1-4.1 0.4-2.1-1.7 3.5-3.7 9.7-5.6 15.1-6.3 2.3 0 4.5 0.2 6.5 0.7zm-35.7 19.8c4.6-8.6-10.3 12.7 18.4 34.8q0 4.6-4.6 3.7c-4.7 0.3-26.7-31.3-13.8-38.5zm61.6 3.1c2.5 2.2 11.1 15.7-7.2 32.4-3 1.6-2.9-0.5-6.4 2.5-0.3 4.2-5.8 3-3.2-0.3 8.9-11.3 19.1-10.6 11.9-33.9-0.4-1.8 0.3-4 4.9-0.7zm-6.2 51.8c0 0 25.4 5.9 18.1 10.9 2.4 1.4-6.4-2.4-14.5-5-2.6-0.9-5.2-3.5-6.8-3.3-3.6-2.2-5.6-4 3.2-2.6zm81-80.5c6.8 0 12.3 7 12.3 15.7 0 4-1.2 7.6-3.1 10.4q0 0 0 0c-2 2.4 4.1 5.8 7.6 4.9 7.1-1.7 13.4-8.3 17-13.7l0.5-10 5.2-4c1.1-0.8 2.2-1 3-0.4l5.6 5 2.8 0.3 3.8-3.2c0 0 3.4 1.9 4.4 2.4 1 0.5 3.7 0.8 3.7 0.8 0 0 4.3-4.3 4.8-4.8 0.5-0.5 3.3 2.8 3.3 3.7 0.1 1 4.9 8.4 10.7 9.9 5.9 1.5 9.3-6 12.2-5.3 10.6-1.5 5.4-7.8 0.3-4.6-2.5 2-2.9-0.9-1.7-2.4 7.3-9.2 15.9 7.8 4 12.6-3 1.2-6.6 2.5-10.5 3.8-3.4 1.6-8.4 4.7-8.1 5.1-2.5 0.7-3.4 8.6-2.1 15 0.8 3.7 2.7 6.1 4.8 8 4.1 3.6 9.6 2.8 11.5 2.9l1.2-1.4 1.6 2.2-8 14-0.6 2.8c-3 3.2-5.9 2.6-7.5 1.3-1.7-1.6-1.9-4.4-3.2-7 0 0-19.1-8-17-12.6 0.5-1.1-0.9-1.2-3.3 0.5-6.7 5-22.7 19.3-34.6 20.7 0 0-11.7 2.7-3.7 4.3 8 1.5 11.7 1.2 11.7 1.2l15.4 4.2c0 0 16.8 3.4 14.9 8.8-2.2 6.2-17-1.1-18.5-2.6l-33.2 0.5-5.7-3.5c-2.8-3 1-9.8 4.5-12.6l-4.6-4.6c-44.2 21.4-74.3-10-74.3-10 5.5-7.8 6.3-16.9 5.1-26.8 11.3 3.9 25.9 11.1 25.9 4.8-0.4-2.7-2.9-4.3-5.4-4.3q0 0-0.1 0-0.1 0-0.1 0c-4.7-1.6-2.5-6.5-6.4-8.7q0 0 0 0-0.2-0.1-0.4-0.2-0.2-0.1-0.3-0.1l-0.1-0.1q0 0-0.1 0 0 0 0 0-0.1 0-0.1 0-0.8-0.3-1.8-0.3-0.1 0-0.1 0-0.1-0.1-0.2 0c-5.4-3.6-1.2-4.3-4.4-7.1l-4.1-1.5c-4.7 0.2-10.1-7.5-8.8-9.2 3.4-1.8 6.9-1.4 12.9-0.5 12.1 0.4 7.1 8.9 14.6 14.1l2.7 1.8c7.2 0.3-1.7 3.8 10.2 11.4 2.2 0 4.5 0 6.7 0.3 4.4 0.4 4.6-1.9 3.1-3q-0.4-0.2-0.9-0.4h-0.1q0 0 0 0v-0.1q-0.1 0-0.1 0 0 0 0 0 0 0-0.1 0 0 0 0 0h-0.1q0 0 0 0-1-0.3-2.1-0.4 0 0-0.1 0-0.1 0-0.2 0c-3.8-1.5-4.6-3.6-4.9-7.1-0.2-3.8-3.5-6.4-7-6.6q-0.1 0-0.2 0-0.1 0-0.2 0c-3.3-2.4-4.7-3.4-4.8-8-0.1-2.7-1.8-5.1-4.3-6.2q-0.1-0.1-0.1-0.1 0 0-0.1 0-0.1-0.1-0.1-0.1 0 0-0.1 0-1.1-0.4-2.4-0.5 0 0 0 0-0.1 0-0.2 0c0 0-0.1 0-0.2 0-6.3 0.1-11.9-6.3-10-8.7 2.2-1.1 4.2-0.5 6.7-0.1l22.8 3.9c15 0 27.1 13.7 27.1 30.5q0 1.4-0.2 2.7c3.3 0 5.9 0.1 7.1-1 2.7-2.6 0.4-9.1-5.4-20.4l-0.8-1.5-0.9-1.4-0.6-0.9c1.9-1.6 4.2-2.5 6.6-2.5zm75.4 51.2c9 6.1 2.6-3.7 1.5-0.9 0 0-12.9-8.3-5-22.8 8.9-11 1-3.8-1.2-1.8-3.1 2.7-8.5 16.7 4.7 25.5zm7.8-16.4c0.7 0 1.2 1.1 1.2 2.5 0 1.4-0.5 2.5-1.2 2.5-0.7 0-1.3-1.1-1.3-2.5 0-1.4 0.6-2.5 1.3-2.5zm3.7 7.9c0.9 0 1.7 0.8 1.7 1.7 0 0.9-0.8 1.6-1.7 1.6-1 0-1.8-0.7-1.8-1.6 0-0.9 0.8-1.7 1.8-1.7zm-1.3-12.3l-2.3-5 3.8-2.3zm-46.7 42.5c0.6 0.2 1.7-1.4 5.4-0.2 6 0.6 15.9 5.8 16.7 7.7 0.9 1.8-4.5 4-10.8 0.7-5.2-2.7-13.3-4.3-13.3-4.3-1.8-0.6-0.5-4.5 2-3.9zm10.7-45c0.4 4.4-0.5 2.1-1.9 3.9 0 1.1 1 1.9 2.3 1.9 2.8 1.5 11.7-3.2 9.8-5.8 0-2.4-2.3-4.3-5.1-4.3-2.8 0-5.1 1.9-5.1 4.3zm-10.7-8.3c-0.4 1.4 0.9 1.7 2.4 1.8 2.3 0.3 9.2-7.3 14.3-1.4 15.8 5.7 7.1-6.6 2.7-6-12.2-0.6-15.8 2.1-19.4 5.6zm41.7 6.7c-0.1 0.1 0 4.6 0 4.6l-2.5-2c0 0 2.7-2.8 2.5-2.6z"/>
		<path id="&lt;Compound Path&gt;" fill-rule="evenodd" class="s0" d="m799 624.5c-0.4-0.5 14.2-2.7 21.1 6.7 0 0 6.3 19.6-17.6 34.3-2.3 1.3-2.5 2.5-1.8 4.7 2.5 8.1 11.9 16 9.2 20.2q-0.7 2.3-1.4 4.6c-1.2 4.2-2.3 3.2-8 4.4-5.7 1.3-9.9 0.7-15.3-0.7-2.7-0.6-25.2 6.8-29.4 4.9-1.2-0.5-1.5-3.9 1.5-5.7 2.7-1.7 10.5-3.6 13.4-3.9 10.5-0.9 21.8 0.3 16.2-19.4-2.9-2.1-4.9-7.7-6.6-9.7-1.8-1.9-6.7-6.8-10.4-11.2-4.5-5.3-3.5-12.7-1.6-15 3.4-4.1 2.4-5.9 0.9-7.4 1.9-3.5 3.9-3.9 5.3-1.8 2.8 4.1 6.2 12.6 18.4 5.7 0.8-0.5 4.8-3.9 4.5-7.2-0.4-2.9 1-4 1.6-3.5zm-18.5-1.9c-0.7 5.2 2.7 6.8 6 6.8 2.3 0 4.7-1.3 5.8-3.1-0.2-0.6-1.3-2.4-1.8-2.4l-0.1-0.1c-1.4 0-1.4 1.7-3.8 1.7-1.6 0-2.9-1.3-2.9-2.9 0-4.9 11.1-4.4 10.4 4.7-0.3 3.3-3.2 6.7-9.6 6.7-3.2 0.1-7.9-4.4-7.9-7.9 0-2.2 1.5-8.7 3.7-10.3 2.5-1.7 4.9 1.3 3.5 2.5-1 1.1-3.3 2.8-3.3 4.3zm13.9-11.3c5.5 0.7 11.6 2.6 15.1 6.3 2 2.1 0 2.8-2.1 1.7-3.4-1.9-3.9-1.1-10.1-1.1-4.5-0.4-4.5-4.2-9.7-2.2-3.1 0-5.3-2.6 0.4-4 1.9-0.5 4.1-0.7 6.4-0.7zm15.4 59q-4.6 0.9-4.6-3.7c28.8-22.1 13.8-43.4 18.5-34.8 12.9 7.2-9.1 38.8-13.9 38.5zm-42.9-34.7c-7.1 23.3 3.1 22.6 11.9 33.9 2.7 3.3-2.8 4.5-3.2 0.3-3.5-3-3.4-0.9-6.3-2.5-18.4-16.7-9.8-30.2-7.3-32.4 4.6-3.3 5.3-1.1 4.9 0.7zm4.6 53.7c-1.7-0.2-4.3 2.4-6.9 3.3-8.1 2.6-16.9 6.4-14.4 5-7.4-5 18.1-10.9 18.1-10.9 8.7-1.4 6.7 0.4 3.2 2.6zm-77.6-80.6l-0.6 0.9-0.9 1.4-0.9 1.5c-5.8 11.3-8 17.8-5.3 20.4 1.2 1.1 3.7 1 7 1q-0.1-1.3-0.1-2.7c0-16.8 12-30.5 27.1-30.5l22.7-3.9c2.6-0.4 4.6-1 6.7 0.1 2 2.4-3.6 8.8-10 8.7 0 0-0.1 0-0.2 0q-0.1 0-0.1 0-0.1 0-0.1 0c-0.8 0-1.6 0.2-2.4 0.5q0 0 0 0-0.1 0-0.2 0.1 0.1 0 0 0c0 0 0 0-0.1 0 0 0 0 0 0 0.1-2.6 1.1-4.2 3.5-4.3 6.2-0.2 4.6-1.6 5.6-4.8 8q-0.2 0-0.3 0-0.1 0-0.1 0c-3.6 0.2-6.8 2.8-7.1 6.6-0.3 3.5-1.1 5.6-4.9 7.1q-0.1 0-0.2 0 0 0-0.1 0-1.1 0.1-2.1 0.4 0 0 0 0h-0.1c0 0 0 0 0 0h-0.1q0 0 0 0 0 0.1 0 0.1c0 0-0.1 0-0.1 0q0 0 0 0-0.1 0 0 0c0 0 0 0-0.1 0q-0.5 0.2-0.9 0.4c-1.5 1.1-1.3 3.4 3.1 3 2.3-0.3 4.5-0.3 6.7-0.3 12-7.6 3.1-11.1 10.3-11.4l2.6-1.8c7.5-5.2 2.5-13.7 14.6-14.1 6.1-0.9 9.5-1.3 12.9 0.5 1.4 1.7-4.1 9.4-8.8 9.2l-4 1.5c-3.2 2.8 0.9 3.5-4.5 7.1q-0.1-0.1-0.2 0 0 0-0.1 0c-0.6 0-1.2 0.1-1.8 0.3-0.1 0-0.1 0-0.1 0q0 0-0.1 0v0.1q-0.2 0-0.4 0.1-0.2 0.1-0.3 0.2 0 0-0.1 0c-3.9 2.2-1.6 7.1-6.3 8.7-0.1 0-0.1 0-0.2 0q0 0-0.1 0c-2.5 0-5 1.6-5.4 4.3 0 6.3 14.7-0.9 25.9-4.8-1.2 9.9-0.3 19 5.1 26.8 0 0-30 31.4-74.2 10l-4.7 4.6c3.6 2.8 7.3 9.6 4.5 12.6l-5.6 3.5-33.2-0.5c-1.6 1.5-16.3 8.8-18.5 2.6-2-5.4 14.8-8.8 14.8-8.8l15.4-4.2c0 0 3.7 0.3 11.7-1.2 8-1.6-3.7-4.3-3.7-4.3-11.8-1.4-27.8-15.7-34.6-20.7-2.4-1.7-3.7-1.6-3.3-0.5 2.2 4.6-16.9 12.6-16.9 12.6-1.3 2.6-1.5 5.4-3.3 7-1.5 1.3-4.5 1.9-7.4-1.3l-0.6-2.8-8-14 1.5-2.2 1.2 1.4c1.9-0.1 7.4 0.7 11.5-2.9 2.2-1.9 4.1-4.3 4.8-8 1.3-6.4 0.4-14.3-2.1-15 0.3-0.4-4.7-3.5-8.1-5.1-3.9-1.3-7.5-2.6-10.5-3.8-11.9-4.8-3.2-21.8 4-12.6 1.2 1.5 0.8 4.4-1.6 2.4-5.1-3.2-10.4 3.1 0.3 4.6 2.9-0.7 6.3 6.8 12.1 5.3 5.9-1.5 10.6-8.9 10.7-9.9 0.1-0.9 2.8-4.2 3.3-3.7 0.6 0.5 4.8 4.8 4.8 4.8 0 0 2.7-0.3 3.7-0.8 1.1-0.5 4.5-2.4 4.5-2.4l3.7 3.2 2.8-0.3 5.6-5c0.8-0.6 1.9-0.4 3 0.4l5.2 4 0.5 10c3.6 5.4 9.9 12 17.1 13.7 3.5 0.9 9.5-2.5 7.5-4.9 0 0 0 0 0 0-1.9-2.8-3-6.4-3-10.4 0-8.7 5.5-15.7 12.2-15.7 2.5 0 4.8 0.9 6.7 2.5zm-77.3 23.2c-2.3-2-10.2-9.2-1.3 1.8 8 14.5-5 22.8-5 22.8-1-2.8-7.5 7 1.6 0.9 13.1-8.8 7.7-22.8 4.7-25.5zm-11.3 11.6c0 1.4-0.5 2.5-1.2 2.5-0.7 0-1.3-1.1-1.3-2.5 0-1.4 0.6-2.5 1.3-2.5 0.7 0 1.2 1.1 1.2 2.5zm-3.2 7.1c0 0.9-0.8 1.6-1.7 1.6-1 0-1.8-0.7-1.8-1.6 0-0.9 0.8-1.7 1.8-1.7 0.9 0 1.7 0.8 1.7 1.7zm-1.9-21.3l3.7 2.3-2.3 5zm50.1 53.6c0 0-8.1 1.6-13.4 4.4-6.3 3.3-11.6 1.1-10.7-0.8 0.8-1.8 10.7-7.1 16.7-7.7 3.7-1.2 4.8 0.4 5.4 0.3 2.5-0.7 3.8 3.3 2 3.8zm-17.8-53.1c-2.8 0-5.1 1.9-5.1 4.2-1.9 2.7 6.9 7.3 9.8 5.9 1.2 0 2.3-0.9 2.3-2-1.4-1.8-2.3 0.5-1.9-3.9 0-2.3-2.3-4.2-5.1-4.2zm-3.6-9.7c-4.4-0.6-13.1 11.7 2.7 6 5-5.8 12 1.8 14.3 1.5 1.5-0.2 2.8-0.4 2.3-1.8-3.6-3.5-7.1-6.3-19.3-5.7zm-19.9 14.9l-2.5 2.1c0 0 0.2-4.5 0-4.7-0.1-0.2 2.5 2.6 2.5 2.6z"/>
		<path id="&lt;Compound Path&gt;" fill-rule="evenodd" class="s0" d="m578 666.3l8.9-9 10.7 21.6-10.7 10.7-7.6-7.7-6.2 6.2-6-6.1-7.6 7.6-10.5-10.5 10.5-21.8 8.9 8.9 4.7-4.8zm-4.8 15.7l7.2-7.2-7.2-7.2-7.2 7.2zm-3.8-7.2l3.8-3.8 3.7 3.8-3.7 3.8z"/>
	</g>
</svg>