<svg version="1.2" xmlns="http://www.w3.org/2000/svg" viewBox="0 0 787 928" width="787" height="928">
	<title>Varna-pdf</title>
	<style>
		.s0 { fill: #4998d9 } 
	</style>
	<path id="Path 1" fill-rule="evenodd" class="s0" d="m66.9 777c-50.6-20.8-67-51.6-66.9-99l0.1-509.1h67v-168.7h140.6v51.3h107.2v-51.3h157.1v51.3h107.2v-51.3h140.7v168.7h67l0.1 509.1c0 47.4-16.3 78.2-66.9 99l-326.3 151zm653.2-17.7c38.5-15.1 50.6-51.4 50.5-81.3 0 0 0-491.5 0-491.5h-67.8v-168.8h-107.2v50.3h-140.7v-50.3h-122.8v50.3h-140.7v-50.3h-107.2v168.8h-67.7v491.5c-0.2 29.9 11.9 66.2 50.5 81.3l326.6 152.4zm-596.6-608.5h56.3c17.7 0 27.4 5.3 27.4 14.8 0 3.5-1.2 6.3-3.7 8.5-1.3 1.1-2.9 2-4.9 2.9-3.4 1.5-6.5 2.1-14 3.1 7.7 0.9 11.1 1.5 15.2 3 7.7 3 11.8 7.5 11.8 13.4 0 10.3-12.1 16.2-33.1 16.2h-55v-4.9c1.9-0.1 3.3-0.2 4.3-0.2 3.6 0 4.4-0.1 5.5-0.8 0.6-0.4 1.1-1.5 1.1-3v-44.8c0-2.4-1.7-3.2-7.1-3.2h-3.8zm38.1 51.8c0 3.7 1.9 4.8 8 4.8 9.1 0 13.6-4.1 13.6-12.1 0-7.5-5.8-11.5-16.7-11.5-1.4 0-2.5 0-4.9 0.2zm0-24.8c1.8 0.1 3.3 0.2 4.3 0.2 8.5 0 14.3-4.7 14.3-11.5 0-6.8-4.5-10.4-13.1-10.4-1.6 0-2.8 0.1-5.5 0.6zm96.9 16.9l-1.8 3.8c-1.1 2.3-1.7 4-1.7 5 0 0.9 0.4 1.6 1.4 2.3 2 1.5 4.6 2 10.9 2v4.9h-31.1v-4.9c2-0.2 2.7-0.3 3.6-0.7 2-0.9 4.4-4 7.4-9.9l24.3-47.3h15.1l27.8 52.9c0.3 0.5 0.7 1.3 1.5 2.2 0.5 0.7 1 1.1 1.3 1.5 1.1 0.8 2.4 1.2 5.2 1.3v4.9h-46v-4.9c6.5 0 8.8-0.6 8.8-2.1 0-0.5-0.3-1.4-1-2.9l-3.8-8.1zm18.9-6.5l-7.6-17.3-8.3 17.3zm104.8 16c0 1.1 0.2 1.8 1 2.4q0.5 0.4 1.1 0.5c1.3 0.4 1.6 0.4 6.9 0.5 1 0.1 2.4 0.1 4.3 0.2v4.9h-51.4v-4.9c1.9-0.1 3.2-0.1 4.1-0.2 5.8-0.1 6.8-0.7 6.8-3.5v-44.6c0-1.7-0.9-2.7-2.5-3.2-1-0.2-3-0.4-8.4-0.5v-5h59.7c18 0 28.6 6.7 28.6 17.8 0 5.1-2.1 9.6-6 12.8-2.4 2.1-5.4 3.5-8.8 4.2-6.7 1.6-17.4 2.7-25.5 2.7-1.3 0-2.5 0-3.7-0.1l-4-0.2h-2.2zm2.5-22h1.5c11.9 0 17.4-4.2 17.4-13.4 0-8.3-5.1-12.7-15-12.7-1.7 0-3 0.1-6.4 0.5v25.5zm173 30.6h-49.2v-5c1.7 0 3.1-0.1 4-0.1 6.2 0 7-0.5 7-5v-18.4h-25.7v19.5c0 3.4 0.8 3.9 7 3.9 0.9 0 2.3 0.1 4.2 0.1v5h-49.3v-5l3.3-0.1 3.1-0.1c3.4-0.1 4.5-0.9 4.5-3v-44c0-3.4-1-4.4-4.5-4.5-0.2 0-1.2 0-2.9-0.1-0.7 0-2-0.1-3.5-0.1v-5h49.3v5c-5.2 0.1-7.5 0.2-8.7 0.4-2 0.4-2.5 1.4-2.5 4.9v16h25.7v-15.8c0-3.8-0.5-4.7-2.4-5.1-1.1-0.1-3.1-0.3-8.6-0.4v-5h49.2v5l-4.1 0.1-2.3 0.1c-3.9 0.2-4.7 1.1-4.7 4.7v42.9c0 3.4 0.7 3.8 7.5 4l3.6 0.1zm44-18l-1.7 3.8c-1.2 2.4-1.8 4-1.8 5.1 0 0.9 0.4 1.5 1.4 2.3 2 1.5 4.6 1.9 10.9 1.9v4.9h-31.1v-4.9c2-0.2 2.8-0.3 3.6-0.6 2.1-1 4.4-4 7.4-10l24.3-47.3h15.1l27.8 52.9c0.4 0.6 0.7 1.3 1.5 2.2 0.5 0.7 1 1.2 1.4 1.5 1 0.9 2.3 1.2 5.1 1.3v4.9h-46v-4.9c6.5 0 8.8-0.5 8.8-2.1 0-0.5-0.3-1.4-1-2.9l-3.8-8.1zm19-6.5l-7.7-17.3-8.3 17.3zm-226.8 41.1c24.5 0 44.5 20 44.5 44.6 0 19-12 35.4-28.9 41.7l0.1 5.4 35.2-0.4v19.1l58.4 54.7 38.3-24.2h-6.9v-34.7h19.1c9.6 0 10.6-14 0-14.4h-19.9v-37.3l48.8-19.6h71.6v12.8c16.8 4.1 31.8 13.7 38.5 32.8 5.3 18.5 2.4 40.7-3.4 64.2l-39.7 145.5 47.9 45.3c13.4 0 29.7 0.9 36.2-13.8 5-11.2 3.4-28.8-2.4-47.5l-26.8-89.9c-5.9-20.8-6.3-38.3 0-51.8 10.9-19.9 24.3-33.8 48.8-39.2v97.9c-21.5-20.2-28.8-44.5-15.3-74.7-19.7 12.3-25.6 32.6-19.8 59.4l29.1 95.5c8.7 29.2 8.6 47.5-2.3 62.3-7 10.6-18.9 17.2-32.8 17.5h-14.7v45c-0.1 10.7 5.2 16.1 22.3 15.6v72.9c-16.6-0.1-22.5 2.6-22.9 15.1v25.2h-196.2v-27.8c-0.1-15.9 16.1-22 35.7-22.4 16.9-1.1 25.5-7.9 26.3-26.7-0.4-18.1-15.4-25.1-44.9-25v-87.6h22.1l-79.3-68.9h-52.6v204c16.4-1.3 27-7.3 28.4-27.9v-107.3h53.2v105.8c1 27.8-4.5 50.3-38.4 76.7-17.5 14.2-22.9 25.3-22.7 39.9q-34.9 0-69.7 0c0.2-14.6-5.2-25.7-22.8-39.9-33.8-26.4-39.4-48.9-38.3-76.7v-105.8h53.2v107.3c1.4 20.6 11.9 26.6 28.3 27.9v-204h-52.6l-79.3 68.9h22.1v87.6c-29.5-0.1-44.5 6.9-44.9 25 0.8 18.8 9.5 25.6 26.3 26.7 19.6 0.4 35.8 6.5 35.8 22.4v27.8h-196.3v-25.2c-0.4-12.5-6.3-15.2-22.8-15.1v-72.9c17 0.5 22.4-4.9 22.2-15.6v-45h-14.6c-14-0.3-25.9-6.9-32.9-17.5-10.9-14.8-11-33.1-2.3-62.3l29.1-95.5c5.8-26.8 0-47.1-19.8-59.4 13.5 30.2 6.2 54.5-15.3 74.7v-97.9c24.5 5.4 38 19.3 48.8 39.2 6.3 13.5 6 31 0 51.8l-26.8 89.9c-5.8 18.7-7.4 36.3-2.4 47.5 6.6 14.7 22.8 13.8 36.2 13.8l47.9-45.3-39.6-145.5c-5.9-23.5-8.8-45.7-3.5-64.2 6.8-19.1 21.8-28.7 38.5-32.8v-12.8h71.7l48.7 19.6v37.3h-19.8c-10.7 0.4-9.7 14.4-0.1 14.4h19.2v34.7h-6.9l38.2 24.2 58.4-54.7v-19.1l35.3 0.4 0.1-5.6c-16.7-6.4-28.5-22.7-28.5-41.5 0-24.6 20-44.6 44.6-44.6zm-17.1 207.9v18.4h-27.4l-134.8-85.4h-32c-14.7-0.2-25.1-4.6-25.2-15.3v-12.2h15.3l0.1 6.2c0.3 2.6 2.9 4.6 5.8 4.7h58.6v-4.8h-8.1c-8.2 0.1-17.2-10.3-17.3-20.6 0.3-14.2 12-21 25.2-20.2v-13.6l-35.9-14.9h-52.8c-0.6 12 4.2 20.1 20.9 20.9v13.4c-17 0.3-30.6-4-35.4-21-13.1 3.4-21.9 11-24.4 22.5-3.3 19-0.1 41.5 6.1 65.5l41.2 143.3-51.9 48.8v58.7c-0.3 11.8-6.5 20.6-21.3 23.5v42.8c13.4 4.5 21.3 12.5 21.3 25.9v13.9h76.9v-9.3c-0.4-5.5-3-7.1-7.9-7.6-23.1-1.1-45.2-10.1-45-41.2 0.3-27.8 16.1-40.8 45.3-42.9v-31.8l146.5-124.9q73 0 146 0l146.6 124.9v31.8c29.1 2.1 44.9 15.1 45.2 42.9 0.3 31.1-21.9 40.1-45 41.2-4.8 0.5-7.4 2.1-7.8 7.6v9.3h76.8v-13.9c0-13.4 8-21.4 21.3-25.9v-42.8c-14.7-2.9-21-11.7-21.3-23.5v-58.7l-51.8-48.8 41.1-143.3c6.2-24 9.4-46.5 6.1-65.5-2.5-11.5-11.3-19.1-24.4-22.5-4.8 17-18.3 21.3-35.4 21v-13.4c16.7-0.8 21.5-8.9 21-20.9h-52.9l-35.9 14.9v13.6c13.2-0.8 24.9 6 25.2 20.2 0 10.3-9.1 20.7-17.2 20.6h-8.2l0.1 4.8h58.6c2.8-0.1 5.4-2.1 5.7-4.7l0.2-6.2h15.2v12.2c0 10.7-10.5 15.1-25.1 15.3h-32l-134.9 85.4h-27.4v-18.4q-16.8 0-33.6 0zm-11.6-163.3c0 15.8 12.9 28.7 28.7 28.7 15.8 0 28.7-12.9 28.7-28.7 0-15.8-12.9-28.7-28.7-28.7-15.8 0-28.7 12.9-28.7 28.7zm-6.8 63.4v9.9l-59.9 56.2 16.7 11 41.9-42q36.5 0 73 0l42 42 16.7-11-60-56.2v-9.9q-35.2 0-70.4 0zm15.4 378.1c-20.7-0.4-38.8-20-38.9-41.2v-92.2h-21.4v93c1 18.8 5.4 34.5 15.9 43.8 29.6 25.9 42 39.4 42.2 52.3h7.8v-34.8h28.5v34.8h7.8c0.1-12.9 12.5-26.4 42.1-52.3 10.5-9.3 14.9-25 16-43.8v-93h-21.4v92.2c-0.2 21.2-18.3 40.8-39 41.2q-19.8 0-39.6 0zm-120-393.6h37.1l-14.2 13.8h-22.9zm6.5 398.8l-13.3-0.5c-21.4-0.9-37.3-14.7-38.6-38.3-0.3-29.2 16.3-43 45.5-45.3v-55.8h-25.6l-38.6 31.9v40.1h-13.8c-19 0.6-31.7 10.5-31.7 27.4 1.7 18.8 13 24.1 27.8 24.5 16.5 0.6 25.7 7.8 26.1 21.5v12.2h71.8c0.7-14.5-2.5-17.4-9.6-17.7zm104.1-332l-35 34.8 30.8 20.1v-22.3h17.9v-32.6zm-210.9 20.2c11.2 4.3 19.7 23.4 24 46.6h-24zm29.3 0c11.1 4.3 19.7 23.4 24 46.6h-24zm29.2 0c11.2 4.3 19.7 23.4 24 46.6h-24zm29.3 0c11.2 4.3 19.7 23.4 24 46.6h-24zm292-73.2h-22.9l-14.2-13.8h37.1zm-16 402.9h71.8v-12.3c0.3-13.7 9.5-20.9 26.1-21.4 14.8-0.5 26.1-5.8 27.7-24.6 0.1-16.9-12.7-26.8-31.7-27.4h-13.7v-40.1l-38.7-31.9h-25.5v55.8c29.2 2.3 45.8 16.1 45.5 45.3-1.3 23.6-17.2 37.4-38.7 38.4l-13.2 0.4c-7.2 0.3-10.4 3.2-9.6 17.8zm-108.2-349.8v32.6h17.9v22.3l30.8-20.1-35.1-34.8zm224.5 66.8h-24c4.3-23.2 12.8-42.3 24-46.6zm-29.3 0h-24c4.3-23.2 12.9-42.3 24-46.6zm-29.2 0h-24c4.3-23.2 12.8-42.4 24-46.6zm-29.3 0h-24c4.3-23.3 12.8-42.4 24-46.7z"/>
</svg>