<svg version="1.2" xmlns="http://www.w3.org/2000/svg" viewBox="0 0 724 858" width="724" height="858">
	<title>Rudozem-Full-svg</title>
	<defs>
		<clipPath clipPathUnits="userSpaceOnUse" id="cp1">
			<path d="m-110-43h944.88v944.88h-944.88z"/>
		</clipPath>
	</defs>
	<style>
		.s0 { fill: #e0e447 } 
		.s1 { fill: #373535 } 
	</style>
	<g id="g10">
		<g id="g12">
			<path id="path14" fill-rule="evenodd" class="s0" d="m17.6 143.3l141.1-63.2 55.2 18.5 0.5-0.3 128.5 42 104.9 34.3h-431z"/>
		</g>
		<g id="g16">
			<path id="path18" fill-rule="evenodd" class="s0" d="m233 88.5l133.9-71.1 127.6 58.2-149.6 49.5z"/>
		</g>
		<g id="g20">
			<path id="path22" fill-rule="evenodd" class="s0" d="m369.2 133l145.6-48.2 2.3 1.1 53.4-18.3 136.3 74.1 0.5 32.9h-210.8z"/>
		</g>
		<g id="g24">
			<g id="Clip-Path: g26" clip-path="url(#cp1)">
				<g id="g26">
					<g id="g32">
						<path id="path34" fill-rule="evenodd" class="s0" d="m457.8 320.3v-6.9h-79.4v30.7h-280.7v24.6h-69.6c-8-59.5-11.6-119.2-11.4-179.1h690.6c-0.1 45.5-2.1 90.2-6.2 134.2h-167.4v56l-75.8-59.6zm-16.8-96q-4.5 0.8-6.6 2-1.6 0.8-4.3 3.6-4.8 5.2-5.5 11.9-0.2 3.4-0.2 5.9h17.7q0.3-6.1 2-8.6 1.8-2.6 5.6-2.6 3.5 0 5.4 2.4 1.8 2.3 1.8 6.6 0 4-1.5 6.8-1.5 2.9-3.9 3.8-2.2 0.7-10.9 0.7v11.1h2.5q8.6 0 11.4 1.8 3.4 2.4 3.4 9 0 7.5-2.4 9.8-2 2.3-5.6 2.3-7.9 0-7.9-11.8v-2.1h-18.7v2.4q0 4.8 0.5 7.5 0.5 2.7 1.7 5.3 2.1 4.3 6 7.1 6.4 4.5 18.5 4.5 8.5 0 13.5-1.3 5-1.3 8.1-4.3 5.9-5.9 5.9-17.7 0-6.3-1.3-9.7-1.3-3.5-4.3-5.4-2.2-1.4-4.5-2.1-2.2-0.8-7.1-1.8 4.4-0.6 6.5-1.3 2.1-0.7 4-2.3 5-4 5-13-0.1-12.5-7.2-17.1-6.8-4.1-18.2-4.1-4.9 0-9.4 0.7zm-98 0.4q-5.2 1.4-8.8 4.5-3.4 2.8-5.2 6.9-1.9 4.1-2.7 10.7-0.8 6.7-0.8 17.5 0 9.4 0.8 15.7 0.8 6.4 2.7 10.6 1.8 4.1 4.9 6.9 6.8 6.2 20.5 6.2 7 0 12-1.3 5.1-1.4 8.7-4.2 3.5-2.9 5.6-7.2 2.1-4.1 2.9-9.3c0.6-3.4 0.9-8 0.9-13.6q0-3.2-0.1-4.7-0.8-16.8-1.5-21.5-0.4-2.8-2-6.1-6.4-12.4-24.7-12.4-8.1 0-13.2 1.3zm-116.4 0.2v44.7q0 9.3-1.8 13-1.9 3.7-6.4 3.7h-1.4v32.2h12.6l3.9-16.3h38l4 16.3h12.6v-32.2h-8v-61.4zm-61 0l-4.5 24.7q-0.7 3.7-1.8 13.3l-0.3 2.3q-0.1 1.3-0.3 3.1h-0.5q-1.2-11-2.6-18.4l-5.2-25h-22.3l18.1 59.6q0.6 1.8 0.6 3 0 3-5.6 3-2.3 0-5.4-0.4v11.4q5.2 2.3 13.3 2.3 11.8 0 15.8-7.9 0.8-1.3 2.3-5.1 1.3-3.2 1.8-5.1l16.1-60.8zm-71.1 23.6q0-16.3-12.8-21-7.2-2.6-22.6-2.6h-20.2v77.3h20.6v-29.6h3.2q8.2 0 12.5-0.7 4.3-0.6 8-2.4 5.4-3 8.4-8.4 2.9-5.3 2.9-12.6zm473.5 53.7v-15.7h-27.2v-16.8h24.4v-15.6h-24.4v-14.1h27.2v-15.1h-47.7v77.3zm62.6 0v-30.1q0-5.4-0.5-12.9-0.5-8.9-0.9-19.4l0.6-0.2 12.1 62.6h20.3l12.3-62.6 0.5 0.3-0.3 8.5-0.3 5.5-0.3 5.3q-0.5 7.7-0.5 12.9v30.1h19.4v-77.3h-31l-6.8 44.4-1.2 5.6-0.2 2.1q-0.3 1.9-0.6 4.1-0.2 2.7-0.8 6.3-0.6-3.5-0.8-6.3l-0.9-6.2-1.1-5.6-7.4-44.4h-31v77.3z"/>
					</g>
					<g id="g36">
						<path id="path38" fill-rule="evenodd" class="s0" d="m346.6 280.7q-0.2-2.4-0.2-10.4v-13.9q0-7.3 0.3-10 0.3-2.7 1.2-4.9 0.4-1.1 1.8-2.6 1.7-1.6 5-1.6 6 0 7.5 3.8 1.3 3.4 1.3 15.3v13.9q0 8.4-0.6 12-0.7 3.6-2.5 5.2-2.1 1.8-5.6 1.8-5.3 0-7.1-4.1-0.9-2.2-1.1-4.5z"/>
					</g>
					<g id="g40">
						<path id="path42" fill-rule="evenodd" class="s0" d="m239.1 283.7q1.2-1.1 2.2-3.1 3.1-6.3 3.1-17.8v-21.9h15.2v45.4h-24.4q2.7-1.4 3.9-2.6z"/>
					</g>
					<g id="g44">
						<path id="path46" fill-rule="evenodd" class="s0" d="m59.4 258.2v-19.2q8.3 0.3 10.1 1.1 1.1 0.7 2.1 1.8 2.3 2.5 2.3 6.3 0 5.4-2.9 7.8-2.9 2.3-9.6 2.3-1.3 0-2-0.1z"/>
					</g>
					<g id="g48">
						<path id="path50" fill-rule="evenodd" class="s0" d="m542.8 332.2h157.5q-0.8 8.1-1.7 16.1h-73v24.5h-82.8z"/>
					</g>
					<g id="g52">
						<path id="path54" fill-rule="evenodd" class="s0" d="m625.6 381.2v59.3h-15.7l0.5-0.5-74.9-58.8z"/>
					</g>
					<g id="g56">
						<path id="path58" fill-rule="evenodd" class="s0" d="m634.6 356.7h63q-2.8 23.5-6.5 46.7c-2.3 14.4-5.1 29.5-8.3 45v-7.9h-48.2zm42.6 38.6h-13.1v12h13.1zm-19.9 0h-13v12h13zm19.9-22.4h-13.1v11.9h13.1zm-19.9 0h-13v12h13z"/>
					</g>
					<g id="g60">
						<path id="path62" fill-rule="evenodd" class="s0" d="m457.8 366.3v-35.3l139.4 109.5h-43zm88.4 44.6h-13v12h13zm-14.2-12.5h-13v12h13zm-15.3-13.1h-13v12h13zm-14.1-12.5h-13.1v12h13.1zm-15.9-13h-13v12h13z"/>
					</g>
					<g id="g64">
						<path id="path66" fill-rule="evenodd" class="s0" d="m457.8 377.1l82.3 63.4h-82.3z"/>
					</g>
					<path id="path68" fill-rule="evenodd" class="s0" d="m391.1 465h-7.3v21.4h-39.4v-109.5h85.6v-5h-323.2v-19.4h280.7v-30.7h61.2v127.1h234c-2.5 12.3-5.3 24.8-8.3 37.5h-283.3zm34-71.6h-26v64.5h26zm-44.2 0h-26v64.5h26zm59.3-36h-13.1v6.7h13.1zm3.4-24.3h-13.1v12h13.1zm-285.2 24.3h-14.5v6.6h14.5zm-21.8 0h-14.5v6.7h14.5zm283.2 0h-14.5v6.7h14.5zm-21.8 0h-14.5v6.7h14.5zm-21.8 0h-14.5v6.6h14.5zm-21.8 0h-14.5v6.7h14.5zm-21.7 0h-14.6v6.7h14.6zm-21.8 0h-14.5v6.6h14.5zm-21.8 0h-14.5v6.7h14.5zm-21.8 0h-14.5v6.7h14.5zm-21.8 0h-14.5v6.6h14.5zm-21.7 0h-14.6v6.7h14.6zm-21.8 0h-14.5v6.7h14.5zm-21.8 0h-14.5v6.6h14.5zm246.9-24.2h-13v11.9h13zm-18.1 0h-13v12h13z"/>
					<path id="path70" fill-rule="evenodd" class="s0" d="m362.2 400.1h11.4v51.2h-11.4z"/>
					<path id="path72" fill-rule="evenodd" class="s0" d="m406.4 400.1h11.4v51.2h-11.4z"/>
					<g id="g74">
						<path id="path76" fill-rule="evenodd" class="s0" d="m43.4 457.7h291.9v28.7h-285.5q-3.3-14.4-6.4-28.7z"/>
					</g>
					<path id="path78" fill-rule="evenodd" class="s0" d="m32.8 401q-1.9-12-3.6-24h77.6v-0.1h228.5v72.5h-293.6c-3.3-16.5-6.3-32.7-8.9-48.4zm228.1 44.9h28v-27.9h-28zm-35.1-31.2h28v-27.9h-28zm35.1 0h28v-27.8h-28zm32.9 0h28v-27.8h-28zm0 31.2h28v-27.8h-28zm-68 0h28v-27.8h-28zm-5.5-59.1h-28v27.8h28zm-36.2 0h-28.1v27.9h28.1zm-33.5 0h-28v27.8h28zm-33.4 0h-28.1v27.8h28.1zm-28.1 59.1h28.1v-27.8h-28.1zm-5.4-59.1h-28v27.8h28zm-28 59.1h28v-27.8h-28zm136.6 0h28v-27.8h-28zm-36.3 0h28.1v-27.9h-28.1zm-33.4 0h28v-27.8h-28z"/>
					<path id="path80" fill-rule="evenodd" class="s0" d="m59.3 390.1h20.8v21.2h-20.8z"/>
					<path id="path82" fill-rule="evenodd" class="s0" d="m59.3 421.4h20.8v21.1h-20.8z"/>
					<path id="path84" fill-rule="evenodd" class="s0" d="m92.7 390.1h20.8v21.2h-20.8z"/>
					<path id="path86" fill-rule="evenodd" class="s0" d="m126.2 390.1h20.7v21.2h-20.7z"/>
					<path id="path88" fill-rule="evenodd" class="s0" d="m159.7 390.1h20.7v21.2h-20.7z"/>
					<path id="path90" fill-rule="evenodd" class="s0" d="m196 390.1h20.7v21.2h-20.7z"/>
					<path id="path92" fill-rule="evenodd" class="s0" d="m229.4 390.1h20.8v21.2h-20.8z"/>
					<path id="path94" fill-rule="evenodd" class="s0" d="m285.3 411.3h-20.8v-21.2h20.8z"/>
					<path id="path96" fill-rule="evenodd" class="s0" d="m297.4 390.1h20.8v21.2h-20.8z"/>
					<path id="path98" fill-rule="evenodd" class="s0" d="m297.4 421.4h20.8v21.1h-20.8z"/>
					<path id="path100" fill-rule="evenodd" class="s0" d="m264.5 421.4h20.8v21.1h-20.8z"/>
					<path id="path102" fill-rule="evenodd" class="s0" d="m229.4 421.4h20.8v21.1h-20.8z"/>
					<path id="path104" fill-rule="evenodd" class="s0" d="m196 421.4h20.7v21.1h-20.7z"/>
					<path id="path106" fill-rule="evenodd" class="s0" d="m159.7 421.4h20.7v21.1h-20.7z"/>
					<path id="path108" fill-rule="evenodd" class="s0" d="m126.2 421.4h20.7v21.1h-20.7z"/>
					<path id="path110" fill-rule="evenodd" class="s0" d="m113.5 442.5h-20.7v-21.1h20.7z"/>
					<g id="g112">
						<path id="path114" fill-rule="evenodd" class="s0" d="m102 558.1l0.1 0.1v22.3q-0.1 0-0.1 0h0.1v21.4q-7.7-1.1-15.1-1.5l-5.3-0.3c-11.4-34.7-21.6-71-30.3-107.1h621.4c-9 36.7-19.7 73.6-31 107.2l-4.4 0.2q-6.4 0.3-13 1.2v-44.3h-0.2c-11.5-12.1-22.2-16.7-33-16.5-9.8 0.2-19.3 4.5-29.3 11.1-8.9-7.5-18.3-11.5-28.3-11.5-9.6 0-19.5 3.7-29.7 11.4-9.6-7.7-19.2-11.6-29.2-11.1-8.3 0.4-16.6 3.7-25.2 10.4v-40.8h-0.2c-10.9-12.1-21-16.8-31.2-16.5-9.2 0.2-18.2 4.5-27.5 11-8.4-7.5-17.3-11.4-26.7-11.4-9 0-18.3 3.6-27.8 11.3-9.1-7.7-18.1-11.5-27.6-11-10.2 0.5-20.5 6.1-31.4 17.5h0.1v22.4h-0.1 0.1v16.8c-8.7-7-17.1-9.8-25.5-9.6-9.8 0.2-19.3 4.5-29.3 11.1-8.7-7.4-17.9-11.3-27.7-11.5-9.7-0.2-19.8 3.5-30.3 11.4-9.6-7.7-19.2-11.6-29.2-11.1-10.8 0.5-21.7 6.1-33.2 17.4z"/>
					</g>
					<g id="g116">
						<path id="path118" fill-rule="evenodd" class="s0" d="m363.9 515.8c-9 0-18.3 3.6-27.8 11.3-9.1-7.7-18.1-11.5-27.6-11-7.9 0.4-15.8 3.8-24.1 10.7v-13.1c8.8-8.7 16.8-13 24.5-13.4 8.1-0.4 16.2 3.6 24.5 11.3l2.5 2.3 2.6-2.3c9-7.8 17.5-11.5 25.4-11.5 8.2 0 16.1 3.9 23.7 11.4l2.3 2.2 2.6-1.9c9.2-6.6 17.6-11.2 25.8-11.3 7.5-0.2 15.3 3.3 24 12.4v12.9c-8.3-7-16.2-9.8-24.2-9.6-9.2 0.2-18.2 4.5-27.5 11-8.4-7.5-17.3-11.4-26.7-11.4z"/>
					</g>
					<g id="g120">
						<path id="path122" fill-rule="evenodd" class="s0" d="m363.9 539.5q-0.8 0-1.6 0.1l-1.2-2.2-1.7 2.4c-7.6 1.1-15.4 4.6-23.3 11-9.1-7.6-18.1-11.5-27.6-11-7.9 0.4-15.8 3.9-24.1 10.7v-14.4c8.8-8.7 16.8-12.9 24.5-13.3 8.1-0.5 16.2 3.5 24.5 11.2l2.5 2.3 2.6-2.3c9-7.8 17.5-11.5 25.4-11.5 8.2 0 16.1 3.9 23.7 11.4l2.3 2.2 2.6-1.9c9.2-6.6 17.6-11.1 25.8-11.3 7.5-0.2 15.3 3.4 24 12.4v14.2c-8.3-6.9-16.2-9.7-24.2-9.6-9.2 0.3-18.2 4.5-27.5 11-8.4-7.4-17.3-11.4-26.7-11.4z"/>
					</g>
					<g id="g124">
						<path id="path126" fill-rule="evenodd" class="s0" d="m366 546.3c7.5 0.6 14.7 4.5 21.6 11.3l2.3 2.3 2.6-1.9c9.2-6.7 17.6-11.2 25.8-11.4 7.3-0.1 14.9 3.2 23.3 11.8v22.1h-0.1l0.1 0.1v23.6l-0.1 0.1h0.1v4.9h7.2v-2.3c9.4-8.7 18-13 26.3-13.4 8.7-0.4 17.4 3.5 26.3 11.3l2.4 2.1 2.5-2c9.6-7.9 18.7-11.7 27.3-11.7 8.8 0 17.3 4 25.4 11.5l2.2 2.1 2.5-1.8c9.8-6.6 18.8-11.2 27.7-11.4 7.2-0.1 14.6 2.7 22.6 9.7-46.8 8.8-101.3 35.5-148.5 73.2-17.5 14-34 29.5-48.8 46.2q0.3-11.5-0.5-23.1c-3.3-50.3-20.9-100.4-48.7-150.6z"/>
					</g>
					<g id="g128">
						<path id="path130" fill-rule="evenodd" class="s0" d="m222.4 598c-8.7-7.3-17.9-11.3-27.7-11.4-9.7-0.2-19.8 3.4-30.3 11.3-9.6-7.7-19.2-11.5-29.2-11.1-8.5 0.5-17 4-25.9 11v-14.6c9.4-8.7 18-13 26.3-13.4 8.7-0.5 17.4 3.5 26.3 11.3l2.4 2.1 2.5-2.1c9.8-8 19.1-11.8 27.8-11.6 8.6 0.1 16.9 4.1 25 11.5l2.2 2 2.5-1.7c9.8-6.7 18.8-11.2 27.6-11.4 8.1-0.2 16.5 3.4 25.8 12.6v14.4c-8.9-7.2-17.4-10.1-26-9.9-9.8 0.2-19.3 4.5-29.3 11z"/>
					</g>
					<g id="g132">
						<path id="path134" fill-rule="evenodd" class="s0" d="m222.4 574.3c-8.7-7.3-17.9-11.3-27.7-11.5-9.7-0.1-19.8 3.5-30.3 11.4-9.6-7.7-19.2-11.6-29.2-11.1-8.5 0.4-17 3.9-25.9 10.9v-13.2c9.4-8.7 18-13 26.3-13.5 8.7-0.4 17.4 3.6 26.3 11.3l2.4 2.1 2.5-2c9.8-8.1 19.1-11.8 27.8-11.6 8.6 0.1 16.9 4.1 25 11.5l2.2 2 2.5-1.7c9.8-6.7 18.8-11.2 27.6-11.4 8-0.2 16.2 3.3 25.3 12.1v2.6h0.5v11c-8.9-7.3-17.4-10.2-26-10-9.8 0.2-19.3 4.6-29.3 11.1z"/>
					</g>
					<g id="g136">
						<path id="path138" fill-rule="evenodd" class="s0" d="m474.7 563.1c-8.5 0.4-17 3.9-25.9 10.9v-12.8h0.7v-1.1c9.1-8.3 17.5-12.4 25.6-12.8 8.7-0.4 17.4 3.6 26.3 11.3l2.4 2.1 2.5-2c9.6-7.9 18.7-11.6 27.3-11.6 8.8 0 17.3 4 25.4 11.5l2.2 2 2.5-1.7c9.8-6.7 18.8-11.2 27.7-11.4 8.1-0.2 16.5 3.4 25.7 12.5v13.2c-8.9-7.3-17.4-10.1-25.9-10-9.8 0.2-19.3 4.6-29.3 11.1-8.9-7.5-18.3-11.5-28.3-11.5-9.6 0-19.5 3.7-29.7 11.4-9.6-7.7-19.2-11.6-29.2-11.1z"/>
					</g>
					<g id="g140">
						<path id="path142" fill-rule="evenodd" class="s0" d="m474.7 586.8c-8.5 0.4-17 4-25.9 11v-14.6c9.4-8.7 18-13 26.3-13.4 8.7-0.5 17.4 3.5 26.3 11.3l2.4 2.1 2.5-2.1c9.6-7.9 18.7-11.6 27.3-11.6 8.8 0 17.3 4 25.4 11.5l2.2 2 2.5-1.7c9.8-6.7 18.8-11.2 27.7-11.4 8.1-0.2 16.5 3.4 25.7 12.6v14.4c-8.9-7.2-17.4-10.1-25.9-9.9-9.8 0.2-19.3 4.5-29.3 11.1-8.9-7.6-18.3-11.5-28.3-11.5-9.6 0-19.5 3.6-29.7 11.3-9.6-7.7-19.2-11.5-29.2-11.1z"/>
					</g>
					<g id="g144">
						<path id="path146" fill-rule="evenodd" class="s0" d="m313.9 730.8c-16.4-19.8-35.3-38.1-55.5-54.3-46.2-37-99.4-63.5-145.5-72.7 8-6.6 15.5-9.9 22.7-10.3 8.7-0.4 17.4 3.5 26.3 11.3l2.4 2.1 2.5-2c9.8-8.1 19.1-11.8 27.8-11.7 8.6 0.2 16.9 4.2 25 11.5l2.2 2.1 2.5-1.8c9.8-6.6 18.8-11.2 27.6-11.4 8.1-0.1 16.5 3.5 25.8 12.6v2h7.2v-48.8c8.6-8.4 16.5-12.5 24-12.9 8.1-0.4 16.2 3.5 24.5 11.2l2.5 2.3 2.6-2.2c5.1-4.5 10.1-7.6 14.8-9.5-25.2 35.4-40.3 92.5-40.6 151.7 0 10.2 0.4 20.5 1.2 30.8z"/>
					</g>
					<g id="g148">
						<path id="path150" fill-rule="evenodd" class="s0" d="m339.4 729.5l20.5 24.8v53.5c-6.5-17.4-15.5-34.2-26.1-50.3-3.3-18.9-4.8-38.3-4.8-57.5 0.3-50.2 11.5-98.6 30.6-131.9 23 44.3 37.4 88.4 40.3 132.4 1 14.8 0.6 29.5-1.1 44.3-13.7 18.5-25.2 38.2-33.4 58.5v-50.3l18.7-21.8-4.2-3.1-14.5 16.8v-54.3l18.7-22-4.2-3-14.5 16.9v-36.9l14.3-11.7-3.6-3.7-10.7 8.8v-30.1h-5.5v30.3l-11.1-11-4 3.4 15.1 14.9v36.5l-16.3-17.5-4.1 3.2 20.4 21.9v55.5l-16.2-19.6z"/>
					</g>
					<g id="g152">
						<path id="path154" fill-rule="evenodd" class="s0" d="m101.5 668c83.5 11.6 178.2 65.4 229.2 140.8 6.8 10.2 12.9 20.7 18 31.5q-1.7-0.1-3.3-0.2-0.3 0-0.5 0-2-0.1-4-0.2c-117-8.2-197.9-71.7-259.3-173.7l14.2 1.1q0.6 0 1.2 0.1 0.3 0 0.5 0.1 2 0.2 4 0.5zm68.5 86.7l0.3 5 38.3-1.7 39.3 25.1 3.2-4.1-39.4-25.1v-0.2l-0.1-0.1-12.6-32.4-5.1 1.7 11.8 30.2zm-18.8-52.1l5.9 21.7-24.6 2.2 0.5 5 27.8-2.6 20.4 12.9 3.1-4.1-21.6-13.6-6.2-22.7zm-33.3-0.6l22.7 14.3 3.1-4.2-22.8-14.3z"/>
					</g>
					<g id="g156">
						<path id="path158" fill-rule="evenodd" class="s0" d="m457.8 764.1l-12.6 32.3v0.1l-0.1 0.3-54.8 33.7q8.8-18.5 14.6-36.9c19.1-23.5 42.7-44.6 68.4-62.7 47.7-33.6 102.6-56.3 149.4-62.9q0.1 0 0.1 0 2.3-0.3 4.6-0.6l1.2-0.1 14.3-1.1c-61.1 101.2-141.5 164.4-257.2 173.4q0.2-0.2 0.3-0.5l62.2-38.3 38.3 1.8 0.3-5-35.6-1.6 11.7-30.2zm56.3-10.5l-0.1 0.2v0.1l-39.3 25.1 3.1 4.1 39.4-25.1 38.2 1.7 0.3-5-35.6-1.6 11.8-30.2-5.2-1.7-12.6 32.4zm30.3-11.9l20.5-12.9 27.8 2.6 0.5-5-24.7-2.2 6-21.7-5.3-1.2-6.2 22.7-21.6 13.6zm63.3-39.9l-3-4.1-22.8 14.3 3.1 4.2z"/>
					</g>
					<g id="g160">
						<path id="path162" fill-rule="evenodd" class="s0" d="m471 695.9c-16.5 12.4-32.3 26.2-46.7 41.1 15.1-17.7 32.3-34.2 50.7-48.9 48.3-38.6 104.3-65.1 150.5-71.5l-0.9 1.9q-2.3 4.8-4.7 9.6c-18.9 2.8-39.3 8.7-60 17.1-29.9 12-60.6 29.4-88.9 50.7z"/>
					</g>
					<g id="g164">
						<path id="path166" fill-rule="evenodd" class="s0" d="m606.7 645.8q10.4-2.3 20.3-3.6l-0.7 1.5q-2.2 4.5-4.5 8.9c-0.8 0.1-1.4 0.3-1.8 0.6-42.3 6-86.6 22-127.2 45.6 37.4-25.9 77.7-44.7 113.9-53z"/>
					</g>
					<g id="g168">
						<path id="path170" fill-rule="evenodd" class="s0" d="m99.8 618.5l-0.9-1.9c46 6.4 101.9 32.9 150 71.5 18.3 14.7 35.5 31.2 50.6 48.9-14.4-14.9-30.1-28.7-46.6-41.1-28.2-21.3-58.8-38.6-88.6-50.7-20.6-8.4-40.9-14.3-59.8-17.1q-2.4-4.8-4.7-9.6z"/>
					</g>
					<g id="g172">
						<path id="path174" fill-rule="evenodd" class="s0" d="m102.6 652.6q-2.3-4.4-4.5-8.9l-0.7-1.5q10 1.3 20.6 3.7c35.9 8.4 76.1 27 113.2 52.9-40.5-23.6-84.7-39.7-126.8-45.6-0.5-0.3-1-0.5-1.8-0.6z"/>
					</g>
					<g id="g176">
						<path id="path178" class="s1" d="m27.4 368.7h70.3v-24.6h280.7v-30.7h79.4v127.1h225v8.4h-234.1v-127.1h-61.2v30.7h-280.7v24.5h-79.4z"/>
					</g>
					<g id="g180">
						<path id="path182" class="s1" d="m457.9 320.2l152.5 119.8-5.9 6.3-152.5-119.8z"/>
					</g>
					<g id="g184">
						<path id="path186" class="s1" d="m702.1 332.2h-159.3v40.6h89v8.4h-98.1v-57.4h168.4z"/>
					</g>
					<g id="g188">
						<path id="path190" class="s1" d="m702.7 356.7h-68.1v88h-9v-96.4h77.1z"/>
					</g>
					<path id="path192" class="s1" d="m101.7 371.9h328.3v5h-328.3z"/>
					<path id="path194" class="s1" d="m344.4 490h-9.1v-115.1h9.1z"/>
					<g id="g196">
						<path id="path198" class="s1" d="m456.7 365.5l98.1 75.5-5.8 6.4-98.1-75.6z"/>
					</g>
					<path id="path200" class="s1" d="m39.4 449.4h302.1v8.3h-302.1z"/>
					<path id="path202" class="s1" d="m45.6 486.4h632.7v6.6h-632.7z"/>
					<path id="path204" class="s1" d="m391.1 491.6h-7.3v-26.6h7.3z"/>
					<path id="path206" fill-rule="evenodd" class="s1" d="m136.6 364.2h-14.5v-6.7h14.5zm303.6 0h-13.1v-6.7h13.1zm-20.4 0h-14.5v-6.6h14.5zm-21.8 0h-14.5v-6.7h14.5zm-21.8 0h-14.5v-6.7h14.5zm-21.8 0h-14.5v-6.7h14.5zm-21.7 0h-14.6v-6.6h14.6zm-21.8 0h-14.5v-6.7h14.5zm-21.8 0h-14.5v-6.7h14.5zm-21.8 0h-14.5v-6.6h14.5zm-21.8 0h-14.5v-6.7h14.5zm-21.7 0h-14.6v-6.7h14.6zm-21.8 0h-14.5v-6.7h14.5zm-21.8 0h-14.5v-6.6h14.5zm-21.8 0h-14.5v-6.7h14.5z"/>
					<path id="path208" fill-rule="evenodd" class="s1" d="m354.9 393.4h26v64.5h-26zm7.3 57.9h11.4v-51.2h-11.4z"/>
					<path id="path210" fill-rule="evenodd" class="s1" d="m399.1 393.4h26v64.5h-26zm7.3 57.9h11.4v-51.2h-11.4z"/>
					<path id="path212" fill-rule="evenodd" class="s1" d="m55.7 386.8h28v27.8h-28zm3.6 24.5h20.8v-21.2h-20.8z"/>
					<path id="path214" fill-rule="evenodd" class="s1" d="m89.1 386.8h28.1v27.8h-28.1zm3.6 24.5h20.8v-21.2h-20.8z"/>
					<path id="path216" fill-rule="evenodd" class="s1" d="m122.6 386.8h28v27.8h-28zm3.6 24.5h20.7v-21.2h-20.7z"/>
					<path id="path218" fill-rule="evenodd" class="s1" d="m156 386.8h28.1v27.8h-28.1zm3.7 24.5h20.7v-21.2h-20.7z"/>
					<path id="path220" fill-rule="evenodd" class="s1" d="m192.3 386.8h28v27.8h-28zm3.7 24.5h20.7v-21.2h-20.7z"/>
					<path id="path222" fill-rule="evenodd" class="s1" d="m225.8 386.8h28v27.8h-28zm3.6 24.5h20.8v-21.2h-20.8z"/>
					<path id="path224" fill-rule="evenodd" class="s1" d="m260.9 386.8h28v27.8h-28zm3.6 24.5h20.8v-21.2h-20.8z"/>
					<path id="path226" fill-rule="evenodd" class="s1" d="m293.8 386.8h28v27.8h-28zm3.6 24.5h20.8v-21.2h-20.8z"/>
					<path id="path228" fill-rule="evenodd" class="s1" d="m55.7 418h28v27.9h-28zm3.6 24.4h20.8v-21.1h-20.8z"/>
					<path id="path230" fill-rule="evenodd" class="s1" d="m89.1 418h28.1v27.9h-28.1zm3.6 24.4h20.8v-21.1h-20.8z"/>
					<path id="path232" fill-rule="evenodd" class="s1" d="m122.6 418h28v27.9h-28zm3.6 24.4h20.7v-21.1h-20.7z"/>
					<path id="path234" fill-rule="evenodd" class="s1" d="m156 418h28.1v27.9h-28.1zm3.7 24.4h20.7v-21.1h-20.7z"/>
					<path id="path236" fill-rule="evenodd" class="s1" d="m192.3 418h28v27.9h-28zm3.7 24.4h20.7v-21.1h-20.7z"/>
					<path id="path238" fill-rule="evenodd" class="s1" d="m225.8 418h28v27.9h-28zm3.6 24.4h20.8v-21.1h-20.8z"/>
					<path id="path240" fill-rule="evenodd" class="s1" d="m260.9 418h28v27.9h-28zm3.6 24.4h20.8v-21.1h-20.8z"/>
					<path id="path242" fill-rule="evenodd" class="s1" d="m293.8 418h28v27.9h-28zm3.6 24.4h20.8v-21.1h-20.8z"/>
					<g id="g244">
						<path id="path246" fill-rule="evenodd" class="s1" d="m379 852l-3.4 5.7-6.6-2.2c-1.1-0.3-2.2-0.7-3.1-1.1-1.4-0.5-1.3-0.4-4.8 0.5l-6.1 1.7-3.3-5c-27.4-42.7-39.2-98.1-39-151.6 0.3-59.2 15.4-116.4 40.7-151.7l7.7-10.9 6.4 11.6c27.8 50.2 45.4 100.3 48.7 150.6 3.4 50.6-7.7 101.2-37.2 152.4zm-11.2-12.9c25.6-46.5 35.1-92.6 32.1-138.6-2.9-44-17.3-88.1-40.3-132.4-19.1 33.3-30.3 81.7-30.5 131.9-0.3 49 10 99.5 33.6 138.9 2-0.3 3.2-0.3 5.1 0.2z"/>
					</g>
					<g id="g248">
						<path id="path250" class="s1" d="m121 697.8l22.8 14.3-3 4.2-22.8-14.3z"/>
					</g>
					<g id="g252">
						<path id="path254" class="s1" d="m132.6 726.5l24.6-2.2-5.9-21.7 5.3-1.2 6.2 22.7 21.6 13.6-3.1 4.1-20.5-12.9-27.7 2.6z"/>
					</g>
					<g id="g256">
						<path id="path258" class="s1" d="m170 754.7l35.7-1.6-11.8-30.2 5.1-1.7 12.6 32.4 0.1 0.1v0.2l39.4 25.1-3.2 4.1-39.3-25.1-38.3 1.7z"/>
					</g>
					<g id="g260">
						<path id="path262" class="s1" d="m238.9 797.6l35.7-1.6-11.8-30.2 5.1-1.7 12.6 32.3 0.1 0.1v0.3l66.5 40.9-3 4.1-66.6-41-38.3 1.8z"/>
					</g>
					<g id="g264">
						<path id="path266" class="s1" d="m607.7 702l-22.7 14.3-3.1-4.2 22.8-14.3z"/>
					</g>
					<g id="g268">
						<path id="path270" class="s1" d="m592.6 731.5l-27.7-2.6-20.5 12.9-3.1-4.1 21.6-13.6 6.2-22.7 5.3 1.2-5.9 21.7 24.6 2.2z"/>
					</g>
					<g id="g272">
						<path id="path274" class="s1" d="m555.4 759.7l-38.3-1.7-39.3 25.1-3.1-4.1 39.3-25.1 0.1-0.3 12.6-32.4 5.1 1.7-11.7 30.2 35.6 1.6z"/>
					</g>
					<g id="g276">
						<path id="path278" class="s1" d="m486.5 802.6l-38.3-1.8-66.6 41-3-4.1 66.5-40.9 0.1-0.3v-0.1l12.6-32.3 5.1 1.7-11.7 30.2 35.6 1.6z"/>
					</g>
					<path id="path280" class="s1" d="m365.4 807.8h-5.5v-198.9h5.5z"/>
					<g id="g282">
						<path id="path284" class="s1" d="m348.8 628.2l13.5 13.3 13.8-11.3 3.6 3.7-15.8 13-2 1.6-1.8-1.8-15.3-15.1z"/>
					</g>
					<g id="g286">
						<path id="path288" class="s1" d="m343.6 665.5l19 20.3 17.3-20.3 4.2 3.1-19.3 22.7-2.1 2.4-2.1-2.3-21.1-22.7z"/>
					</g>
					<g id="g290">
						<path id="path292" class="s1" d="m343.7 726.5l18.4 22.2 17.8-20.6 4.2 3.1-19.9 23.1-2.2 2.6-2.1-2.6-20.5-24.8z"/>
					</g>
					<g id="g294">
						<path id="path296" fill-rule="evenodd" class="s1" d="m707.3 189.6h-690.6c-0.3 70.8 4.9 141.3 16.1 211.4 11.7 72.6 32.7 154.7 58.4 226.6l-15.5 1.1c-26-72.8-47.2-152.1-59-225.5-11.8-73.5-17-147.2-16.3-221.2v0.1q0-0.4 0-0.7 0-0.2 0-0.3 0.1-10.8 0.4-21.4 0.3-11 0.7-21.5l0.1-4.5 4.5-1.9 148.5-66.5 3.1-1.4 3.2 1.1 51.4 17.1 150.2-79.7 3.8-2 3.9 1.8 147.9 67.4 50.4-17.2 3.6-1.3 3.3 1.8 143.6 78 3.9 2.1 0.1 4.2q0.3 11.1 0.5 22.5 0.1 11.1 0.2 22.4c0.1 76.4-5 151-16.5 223.4-11.4 72.5-35.2 161.7-60.5 229.2l-15.4-4.9c24.9-66.7 48.5-154.9 59.8-226.4 11-69.2 16.1-140.6 16.2-213.8zm-210.8-15h210.8q-0.1-7.3-0.2-14.7-0.1-9-0.3-18.2l-136.3-74.1-50 17.1-3.4 1.2-2.3-1.1-145.6 48.2zm-479.6 0h431l-105.1-34.3h0.2l-0.6-0.2h-0.1l-127.8-41.8-0.5 0.3-3.6-1.2-51.7-17.3-141 63.2q-0.3 8.5-0.5 16.7-0.2 7.3-0.3 14.6zm328.1-49.5l149.6-49.5-127.6-58.2-134 71.1z"/>
					</g>
					<g id="g298">
						<path id="path300" class="s1" d="m102 604.3c11.5-11.4 22.4-16.9 33.2-17.5 10-0.4 19.6 3.4 29.2 11.1 10.5-7.9 20.6-11.5 30.3-11.3 9.8 0.1 19 4.1 27.7 11.5 10-6.6 19.5-10.9 29.3-11.1 10.8-0.3 21.6 4.4 33.1 16.6l-5.4 4.4c-10-10.5-18.9-14.5-27.5-14.4-8.8 0.2-17.8 4.8-27.6 11.4l-2.5 1.8-2.2-2.1c-8.1-7.3-16.4-11.3-25-11.5-8.7-0.1-18 3.6-27.8 11.7l-2.5 2-2.4-2.1c-8.9-7.8-17.6-11.7-26.3-11.3-8.9 0.4-18.1 5.3-28.3 15.3z"/>
					</g>
					<g id="g302">
						<path id="path304" class="s1" d="m102 580.5c11.5-11.3 22.4-16.9 33.2-17.4 10-0.5 19.6 3.4 29.2 11.1 10.5-7.9 20.6-11.5 30.3-11.4 9.8 0.2 19 4.2 27.7 11.5 10-6.5 19.5-10.9 29.3-11.1 10.8-0.2 21.6 4.5 33.1 16.6l-5.4 4.4c-10-10.4-18.9-14.5-27.5-14.3-8.8 0.2-17.8 4.7-27.6 11.4l-2.5 1.7-2.2-2c-8.1-7.4-16.4-11.4-25-11.5-8.7-0.2-18 3.6-27.8 11.6l-2.5 2.1-2.4-2.1c-8.9-7.8-17.6-11.8-26.3-11.3-8.9 0.4-18.1 5.3-28.3 15.3z"/>
					</g>
					<g id="g306">
						<path id="path308" class="s1" d="m102 558.1c11.5-11.3 22.4-16.9 33.2-17.4 10-0.5 19.6 3.4 29.2 11.1 10.5-7.9 20.6-11.6 30.3-11.4 9.8 0.2 19 4.1 27.7 11.5 10-6.6 19.5-10.9 29.3-11.1 10.8-0.2 21.6 4.5 33.1 16.6l-5.4 4.4c-10-10.4-18.9-14.5-27.5-14.3-8.8 0.2-17.8 4.7-27.6 11.4l-2.5 1.7-2.2-2c-8.1-7.4-16.4-11.4-25-11.5-8.7-0.2-18 3.5-27.8 11.6l-2.5 2-2.4-2.1c-8.9-7.7-17.6-11.7-26.3-11.3-8.9 0.5-18.1 5.4-28.3 15.4z"/>
					</g>
					<path id="path310" class="s1" d="m109.3 609.2h-7.2v-51h7.2z"/>
					<path id="path312" class="s1" d="m284.9 608.2h-7.2v-50.9h7.2z"/>
					<g id="g314">
						<path id="path316" class="s1" d="m441.5 604.3c11.5-11.4 22.4-16.9 33.2-17.5 10-0.4 19.6 3.4 29.2 11.1 10.2-7.7 20.1-11.3 29.7-11.3 10 0 19.4 3.9 28.3 11.5 10-6.6 19.5-10.9 29.3-11.1 10.8-0.3 21.6 4.4 33.1 16.6l-5.5 4.4c-9.9-10.5-18.8-14.5-27.4-14.4-8.9 0.2-17.9 4.8-27.7 11.4l-2.5 1.8-2.2-2.1c-8.1-7.5-16.6-11.5-25.4-11.5-8.6 0-17.7 3.8-27.3 11.7l-2.5 2-2.4-2.1c-8.9-7.8-17.6-11.7-26.3-11.3-8.9 0.4-18.2 5.3-28.3 15.3z"/>
					</g>
					<g id="g318">
						<path id="path320" class="s1" d="m441.5 580.5c11.5-11.3 22.4-16.9 33.2-17.4 10-0.5 19.6 3.4 29.2 11.1 10.2-7.7 20.1-11.4 29.7-11.4 10 0 19.4 4 28.3 11.5 10-6.5 19.5-10.9 29.3-11.1 10.8-0.2 21.6 4.5 33.1 16.6l-5.5 4.4c-9.9-10.4-18.8-14.5-27.4-14.3-8.9 0.2-17.9 4.7-27.7 11.4l-2.5 1.7-2.2-2c-8.1-7.5-16.6-11.5-25.4-11.5-8.6 0-17.7 3.7-27.3 11.6l-2.5 2.1-2.4-2.1c-8.9-7.8-17.6-11.8-26.3-11.3-8.9 0.4-18.2 5.3-28.3 15.3z"/>
					</g>
					<g id="g322">
						<path id="path324" class="s1" d="m441.5 558.1c11.5-11.3 22.4-16.9 33.2-17.4 10-0.5 19.6 3.4 29.2 11.1 10.2-7.7 20.1-11.4 29.7-11.4 10 0 19.4 4 28.3 11.5 10-6.6 19.5-10.9 29.3-11.1 10.8-0.2 21.6 4.5 33.1 16.6l-5.5 4.4c-9.9-10.4-18.8-14.5-27.4-14.3-8.9 0.2-17.9 4.7-27.7 11.4l-2.5 1.7-2.2-2c-8.1-7.5-16.6-11.5-25.4-11.5-8.6 0-17.7 3.7-27.3 11.6l-2.5 2-2.4-2.1c-8.9-7.7-17.6-11.7-26.3-11.3-8.9 0.5-18.2 5.4-28.3 15.4z"/>
					</g>
					<path id="path326" class="s1" d="m448.8 609.2h-7.2v-51h7.2z"/>
					<path id="path328" class="s1" d="m624.4 608.2h-7.3v-50.9h7.3z"/>
					<g id="g330">
						<path id="path332" class="s1" d="m277.1 557.3c10.9-11.3 21.2-17 31.4-17.5 9.5-0.5 18.5 3.4 27.6 11 9.5-7.6 18.8-11.3 27.8-11.3 9.4 0 18.3 4 26.7 11.4 9.3-6.5 18.3-10.7 27.5-10.9 10.3-0.3 20.5 4.4 31.4 16.6l-5.6 4.2c-9.3-10.3-17.6-14.4-25.6-14.2-8.2 0.2-16.6 4.7-25.8 11.4l-2.6 1.9-2.3-2.3c-7.6-7.4-15.5-11.4-23.7-11.4-7.9 0-16.4 3.7-25.4 11.6l-2.6 2.2-2.5-2.3c-8.3-7.7-16.4-11.6-24.5-11.2-8.2 0.4-16.8 5.3-26.3 15.2z"/>
					</g>
					<g id="g334">
						<path id="path336" class="s1" d="m277.1 533.6c10.9-11.4 21.2-17 31.4-17.5 9.5-0.5 18.5 3.3 27.6 11 9.5-7.7 18.8-11.3 27.8-11.3 9.4 0 18.3 3.9 26.7 11.4 9.3-6.5 18.3-10.8 27.5-11 10.3-0.2 20.5 4.5 31.4 16.7l-5.6 4.2c-9.3-10.4-17.6-14.4-25.6-14.2-8.2 0.2-16.6 4.7-25.8 11.3l-2.6 1.9-2.3-2.2c-7.6-7.5-15.5-11.4-23.7-11.4-7.9 0-16.4 3.7-25.4 11.5l-2.6 2.3-2.5-2.3c-8.3-7.7-16.4-11.7-24.5-11.2-8.2 0.4-16.8 5.3-26.3 15.2z"/>
					</g>
					<g id="g338">
						<path id="path340" class="s1" d="m277.1 511.2c10.9-11.4 21.2-17 31.4-17.5 9.5-0.5 18.5 3.3 27.6 11 9.5-7.7 18.8-11.3 27.8-11.3 9.4 0 18.3 3.9 26.7 11.4 9.3-6.5 18.3-10.8 27.5-11 10.3-0.3 20.5 4.5 31.4 16.7l-5.6 4.2c-9.3-10.4-17.6-14.4-25.6-14.2-8.2 0.1-16.6 4.7-25.8 11.3l-2.6 1.9-2.3-2.2c-7.6-7.5-15.5-11.4-23.7-11.4-7.9 0-16.4 3.7-25.4 11.5l-2.6 2.3-2.5-2.3c-8.3-7.7-16.4-11.7-24.5-11.3-8.2 0.5-16.8 5.3-26.3 15.3z"/>
					</g>
					<path id="path342" class="s1" d="m284.4 562.2h-7.2v-51h7.2z"/>
					<path id="path344" class="s1" d="m449.5 561.2h-7.2v-50.9h7.2z"/>
					<path id="path346" fill-rule="evenodd" class="s1" d="m396 333.2h13v12h-13z"/>
					<path id="path348" fill-rule="evenodd" class="s1" d="m414.1 333.2h13v12h-13z"/>
					<path id="path350" fill-rule="evenodd" class="s1" d="m430.6 333.2h13v12h-13z"/>
					<path id="path352" fill-rule="evenodd" class="s1" d="m473.6 359.8h13.1v12h-13.1z"/>
					<path id="path354" fill-rule="evenodd" class="s1" d="m489.5 372.8h13.1v12h-13.1z"/>
					<path id="path356" fill-rule="evenodd" class="s1" d="m503.7 385.3h13v12h-13z"/>
					<path id="path358" fill-rule="evenodd" class="s1" d="m533.2 410.8h13v12h-13z"/>
					<path id="path360" fill-rule="evenodd" class="s1" d="m644.3 372.8h13v12h-13z"/>
					<path id="path362" fill-rule="evenodd" class="s1" d="m664.1 372.8h13.1v12h-13.1z"/>
					<path id="path364" fill-rule="evenodd" class="s1" d="m644.3 395.2h13v12h-13z"/>
					<path id="path366" fill-rule="evenodd" class="s1" d="m664.1 395.2h13.1v12h-13.1z"/>
					<path id="path368" fill-rule="evenodd" class="s1" d="m519 398.3h13v12h-13z"/>
					<g id="g370">
						<path id="path372" fill-rule="evenodd" class="s1" d="m38.9 302.2v-77.2h20.1q15.5 0 22.6 2.5 12.9 4.7 12.9 21 0 7.3-3 12.6-2.9 5.4-8.4 8.4-3.6 1.8-7.9 2.4-4.4 0.7-12.5 0.7h-3.3v29.6zm20.6-63.2q8.2 0.3 10 1.1 1.2 0.7 2.1 1.8 2.4 2.5 2.4 6.3-0.1 5.4-2.9 7.8-2.9 2.3-9.7 2.3-1.3 0-1.9-0.1zm89.6 64.8q11.7 0 15.7-7.9 0.8-1.3 2.4-5.1 1.3-3.1 1.7-5l16.1-60.8h-19.5l-4.4 24.6q-0.7 3.7-1.9 13.3 0 0.9-0.2 2.3-0.2 1.3-0.3 3.1h-0.5q-1.2-10.9-2.7-18.3l-5.1-25h-22.3l18.1 59.6q0.5 1.7 0.5 2.9 0 3-5.6 3-2.3 0-5.3-0.4v11.4q5.1 2.3 13.3 2.3zm77.5-34.2q0 9.3-1.8 13-1.8 3.7-6.4 3.7h-1.4v32.2h12.6l4-16.3h38l3.9 16.3h12.6v-32.2h-7.9v-61.3h-53.6zm8.6 16.7q2.7-1.4 4-2.6 1.2-1.2 2.1-3.1 3.2-6.3 3.2-17.8v-21.9h15.1v45.4zm91.2-6.3q0.8 6.4 2.6 10.5 1.8 4.2 5 7 6.8 6.1 20.4 6.2 7 0 12.1-1.4 5.1-1.3 8.6-4.1 3.6-2.9 5.7-7.2 2-4.1 2.9-9.3 0.8-5.2 0.8-13.7 0-3.1-0.1-4.7-0.8-16.7-1.5-21.4-0.4-2.8-2-6.1-6.4-12.5-24.6-12.5-8.1 0-13.3 1.4-5.2 1.4-8.8 4.5-3.3 2.8-5.2 6.9-1.9 4.1-2.7 10.7-0.7 6.7-0.7 17.5 0 9.4 0.8 15.7zm20.1-23.6q0-7.3 0.2-10.1 0.3-2.7 1.3-4.9 0.3-1 1.7-2.5 1.7-1.6 5-1.6 6 0 7.5 3.8 1.3 3.4 1.3 15.3v13.9q0 8.4-0.6 12-0.6 3.5-2.4 5.2-2.2 1.8-5.6 1.8-5.4 0-7.2-4.1-0.8-2.2-1.1-4.5-0.2-2.4-0.1-10.4zm120.3 3.7q2.1-0.7 4.1-2.3 4.9-4 4.9-13 0-12.5-7.1-17.1-6.9-4.1-18.2-4.1-5 0-9.5 0.7-4.4 0.8-6.5 2.1-1.7 0.8-4.4 3.5-4.7 5.2-5.4 11.9-0.3 3.4-0.3 5.9h17.8q0.3-6.1 2-8.6 1.7-2.5 5.6-2.5 3.4 0 5.3 2.3 1.9 2.3 1.9 6.7 0 3.9-1.5 6.7-1.5 2.9-4 3.8-2.2 0.7-10.8 0.7v11.1h2.4q8.7 0 11.4 1.8 3.4 2.4 3.4 9 0 7.6-2.3 9.9-2.1 2.2-5.6 2.2-7.9 0-7.9-11.8v-2.1h-18.7v2.5q0 4.8 0.5 7.4 0.4 2.7 1.6 5.3 2.2 4.3 6.1 7.1 6.4 4.5 18.4 4.5 8.6 0 13.6-1.3 4.9-1.3 8-4.3 5.9-5.9 5.9-17.7 0-6.2-1.2-9.7-1.3-3.5-4.3-5.4c-1.5-0.9-3-1.6-4.5-2.1q-2.3-0.7-7.1-1.7 4.3-0.6 6.4-1.4zm101.2 42.1v-15.7h-27.2v-16.8h24.4v-15.6h-24.4v-14.1h27.2v-15h-47.7v77.2zm106.4-62.5l0.6 0.2q-0.2 5.4-0.4 8.5-0.1 3.1-0.2 5.5-0.2 2.4-0.3 5.3-0.5 7.7-0.5 13v30h19.4v-77.2h-31l-6.8 44.3-1.2 5.7q0 0.1-0.2 2-0.3 2-0.6 4.2-0.2 2.6-0.8 6.2-0.6-3.5-0.8-6.2-0.9-6.2-0.9-6.2l-1.1-5.7-7.4-44.3h-31v77.2h19.3v-30q0-5.4-0.4-13-0.5-8.9-1-19.4l0.6-0.1 12.2 62.5h20.3z"/>
					</g>
					<g id="g374">
						<path id="path376" fill-rule="evenodd" class="s1" d="m93.1 666.9c-7.2-13.5-14.2-28.6-18.7-42l10.8 1.3c50.6 2 115.3 29.5 170.6 71.9 49.6 38.1 91.9 88.4 109.9 143.4l-14.1 5.2c-19.5-44.9-57.1-84.9-100.9-115.8-49.3-34.7-106.1-57.8-153.7-63.5zm9.8-13.9c45.1 6.2 97.4 26.8 144.3 57.4q-0.2-0.2-0.5-0.4c-48.3-37.1-103.7-62.2-149.3-67.8q0.4 0.8 0.8 1.5 2.3 4.7 4.7 9.3z"/>
					</g>
					<g id="g378">
						<path id="path380" fill-rule="evenodd" class="s1" d="m365.5 840.7c0.2 0.5 0.5 1.2 1 2.4 0.2 0.5 0.5 1.3 0.9 2.3l4.3 10.5-11.4-0.2c-70.2-1.2-128.3-20.6-177.2-54.3-48.7-33.5-88.1-81.1-121.2-139l-6.1-10.6 12.3-0.6q7.3-0.3 14.9 0 7.3 0.3 15.3 1.3c3.3 0 5.1 0 6.1 0.7 52.1 7.4 107.5 30.2 154.9 63.6 46.3 32.7 85.1 75.5 106.2 123.9zm-2.1 0.9l-4.6 1.7-0.2 0.2q2-0.8 4.8-1.9zm-14.7-1.3c-20.4-43.2-56-81.6-98.1-111.3-47.1-33.2-102.2-55.5-153.6-61.6l-1.2-0.1q-6.7-0.8-13.4-1.1-0.4 0-0.8 0c30.6 50.9 66.6 92.9 110.1 122.9 43.7 30.1 95.3 48.2 157 51.2z"/>
					</g>
					<g id="g382">
						<path id="path384" fill-rule="evenodd" class="s1" d="m368.3 834.3l-11.2-1.3c0 0-1.3-0.2-3.5-0.5-1.8-0.2-2.9-0.3-3.4-0.4l-4.2-0.6-1.7-3.8c-20.2-45.8-57.6-87.5-100.6-119.8-47.2-35.6-100.8-59.8-145.2-65.5l-3.9-0.5-1.8-3.6q-3.5-6.7-6.7-13.5-3.4-7.1-6.4-13.9l-5-11.2 12.3 0.7c51.1 2.8 116.3 31.9 171.4 76.1 49.2 39.4 90.5 91.1 106.8 146.9zm-68.9-97.3c-15-17.7-32.2-34.1-50.6-48.8-48.1-38.6-103.9-65.2-149.9-71.5q0.4 0.9 0.8 1.8 2.3 4.9 4.7 9.7c46.2 6.9 100.6 31.7 148.4 67.8 16.5 12.4 32.3 26.2 46.6 41z"/>
					</g>
					<g id="g386">
						<path id="path388" fill-rule="evenodd" class="s1" d="m627.4 667.4c-47.8 5.7-104.8 28.8-154.1 63.5-44 30.9-81.8 70.9-101.3 115.8l-14.2-5.2c18.1-55 60.5-105.3 110.3-143.4 55.5-42.4 120.4-69.9 171.1-71.9l10.9-1.3c-4.6 14.7-11.5 28.4-18.7 42zm-1.1-23.6q0.4-0.8 0.7-1.5c-45.6 5.5-101.2 30.6-149.7 67.7q-0.3 0.2-0.5 0.4c47-30.6 99.5-51.1 144.8-57.3q2.4-4.7 4.7-9.3z"/>
					</g>
					<g id="g390">
						<path id="path392" fill-rule="evenodd" class="s1" d="m464.6 716.8c47.5-33.4 103.1-56.2 155.4-63.6 1-0.7 2.8-0.7 6.1-0.7q8-1 15.3-1.3 7.7-0.3 15 0l12.4 0.6-6.2 10.6c-33.2 57.9-72.7 105.5-121.6 139-49 33.7-107.3 53.1-177.8 54.3l-11.4 0.2 4.3-10.5c0.4-1 0.8-1.8 1-2.3 0.5-1.2 0.8-1.9 1-2.4 21.1-48.4 60-91.2 106.5-123.9zm-99.7 126.7l-0.1-0.2-4.6-1.7q2.8 1.1 4.7 1.9zm167.5-54.4c43.7-30 79.7-72 110.5-122.9q-0.4 0-0.8 0-6.8 0.3-13.5 1.1l-1.2 0.1c-51.5 6.1-106.8 28.4-154.1 61.6-42.2 29.7-77.9 68.1-98.4 111.3 61.9-3 113.6-21.1 157.5-51.2z"/>
					</g>
					<g id="g394">
						<path id="path396" fill-rule="evenodd" class="s1" d="m358.4 823.4c16.3-55.8 57.8-107.5 107.1-146.9 55.3-44.2 120.6-73.3 171.9-76.1l12.4-0.7-5 11.2q-3.1 6.8-6.5 13.9-3.2 6.8-6.6 13.5l-1.8 3.6-4 0.5c-44.6 5.7-98.3 29.9-145.7 65.5-43.1 32.3-80.7 74-100.9 119.8l-1.7 3.8-4.2 0.6c-0.5 0.1-1.6 0.2-3.4 0.4-2.2 0.3-3.5 0.5-3.5 0.5l-11.3 1.3zm112.6-127.6c48-36 102.6-60.8 148.9-67.8q2.4-4.7 4.8-9.6 0.4-0.9 0.8-1.8c-46.1 6.3-102.2 32.9-150.4 71.5-18.4 14.7-35.7 31.1-50.8 48.8 14.4-14.9 30.2-28.6 46.7-41.1z"/>
					</g>
				</g>
			</g>
		</g>
	</g>
</svg>