<svg version="1.2" xmlns="http://www.w3.org/2000/svg" viewBox="0 0 725 857" width="725" height="857">
	<title>Rudozem-Line-svg</title>
	<defs>
		<clipPath clipPathUnits="userSpaceOnUse" id="cp1">
			<path d="m-110-44h944.88v944.88h-944.88z"/>
		</clipPath>
	</defs>
	<style>
		.s0 { fill: #bb9b38 } 
	</style>
	<g id="g10">
		<path id="path12" class="s0" d="m122.1 357.7h14.6v6.7h-14.6z"/>
		<path id="path14" class="s0" d="m362.1 357.7h14.6v6.7h-14.6z"/>
		<path id="path16" class="s0" d="m340.3 357.7h14.6v6.7h-14.6z"/>
		<path id="path18" class="s0" d="m209.4 357.7h14.6v6.7h-14.6z"/>
		<path id="path20" class="s0" d="m231.2 357.7h14.6v6.7h-14.6z"/>
		<path id="path22" class="s0" d="m318.5 357.7h14.5v6.7h-14.5z"/>
		<path id="path24" class="s0" d="m144 357.7h14.5v6.7h-14.5z"/>
		<path id="path26" class="s0" d="m253 357.7h14.6v6.7h-14.6z"/>
		<path id="path28" class="s0" d="m384 357.7h14.5v6.7h-14.5z"/>
		<path id="path30" class="s0" d="m274.9 357.7h14.5v6.7h-14.5z"/>
		<path id="path32" class="s0" d="m405.8 357.7h14.5v6.7h-14.5z"/>
		<path id="path34" class="s0" d="m440.7 364.4h-13.1v-6.7h13.1z"/>
		<path id="path36" class="s0" d="m187.6 357.7h14.5v6.7h-14.5z"/>
		<path id="path38" class="s0" d="m165.8 357.7h14.5v6.7h-14.5z"/>
		<path id="path40" class="s0" d="m296.7 357.7h14.5v6.7h-14.5z"/>
		<path id="path42" fill-rule="evenodd" class="s0" d="m381.3 458.3h-26v-64.6h26zm-18.7-6.7h11.5v-51.2h-11.5z"/>
		<path id="path44" fill-rule="evenodd" class="s0" d="m425.6 458.3h-26v-64.6h26zm-7.2-57.9h-11.5v51.2h11.5z"/>
		<path id="path46" fill-rule="evenodd" class="s0" d="m83.6 414.9h-28v-27.9h28zm-3.6-24.5h-20.8v21.2h20.8z"/>
		<path id="path48" fill-rule="evenodd" class="s0" d="m117.2 414.9h-28.1v-27.9h28.1zm-3.7-24.5h-20.8v21.2h20.8z"/>
		<path id="path50" fill-rule="evenodd" class="s0" d="m150.6 414.9h-28v-27.9h28zm-3.6-24.5h-20.8v21.2h20.8z"/>
		<path id="path52" fill-rule="evenodd" class="s0" d="m184.2 414.9h-28.1v-27.9h28.1zm-3.7-24.5h-20.8v21.2h20.8z"/>
		<path id="path54" fill-rule="evenodd" class="s0" d="m220.5 414.9h-28v-27.9h28zm-3.6-24.5h-20.8v21.2h20.8z"/>
		<path id="path56" fill-rule="evenodd" class="s0" d="m254 414.9h-28v-27.9h28zm-3.6-24.5h-20.8v21.2h20.8z"/>
		<path id="path58" fill-rule="evenodd" class="s0" d="m289.2 414.9h-28v-27.9h28zm-3.6-24.5h-20.8v21.2h20.8z"/>
		<path id="path60" fill-rule="evenodd" class="s0" d="m322.2 414.9h-28.1v-27.9h28.1zm-3.7-24.5h-20.8v21.2h20.8z"/>
		<path id="path62" fill-rule="evenodd" class="s0" d="m83.6 446.2h-28v-27.9h28zm-3.6-24.5h-20.8v21.2h20.8z"/>
		<path id="path64" fill-rule="evenodd" class="s0" d="m117.2 446.2h-28.1v-27.9h28.1zm-3.7-24.5h-20.8v21.2h20.8z"/>
		<path id="path66" fill-rule="evenodd" class="s0" d="m150.6 446.2h-28v-27.9h28zm-3.6-24.5h-20.8v21.2h20.8z"/>
		<path id="path68" fill-rule="evenodd" class="s0" d="m184.2 446.2h-28.1v-27.9h28.1zm-3.7-24.5h-20.8v21.2h20.8z"/>
		<path id="path70" fill-rule="evenodd" class="s0" d="m220.5 446.2h-28v-27.9h28zm-3.6-24.5h-20.8v21.2h20.8z"/>
		<path id="path72" fill-rule="evenodd" class="s0" d="m254 446.2h-28v-27.9h28zm-3.6-24.5h-20.8v21.2h20.8z"/>
		<path id="path74" fill-rule="evenodd" class="s0" d="m289.2 446.2h-28v-27.9h28zm-3.6-24.5h-20.8v21.2h20.8z"/>
		<path id="path76" fill-rule="evenodd" class="s0" d="m322.2 446.2h-28.1v-27.9h28.1zm-3.7-24.5h-20.8v21.2h20.8z"/>
		<g id="g78">
			<path id="path80" class="s0" d="m140.8 717.1l-22.8-14.4 3.1-4.1 22.8 14.4z"/>
		</g>
		<g id="g82">
			<path id="path84" class="s0" d="m181.4 742.6l-20.5-12.8-27.8 2.5-0.5-4.9 24.7-2.3-5.9-21.7 5.3-1.3 6.2 22.8 21.6 13.6z"/>
		</g>
		<g id="g86">
			<path id="path88" class="s0" d="m248.2 784l-39.5-25.1-38.3 1.7-0.3-5 35.7-1.6-11.8-30.3 5.2-1.7 12.6 32.5 0.1 0.1v0.2l39.4 25.1z"/>
		</g>
		<g id="g90">
			<path id="path92" class="s0" d="m605.5 698.6l3.1 4.2-22.8 14.3-3.1-4.1z"/>
		</g>
		<g id="g94">
			<path id="path96" class="s0" d="m569.3 725.1l24.7 2.3-0.6 4.9-27.7-2.5-20.6 12.8-3-4.1 21.6-13.6 6.2-22.8 5.3 1.3z"/>
		</g>
		<g id="g98">
			<path id="path100" class="s0" d="m520.8 754l35.6 1.6-0.2 5-38.4-1.7-39.4 25.1-3.1-4.1 39.4-25.1v-0.1l0.1-0.2 12.6-32.5 5.1 1.7z"/>
		</g>
		<g id="g102">
			<g id="Clip-Path: g104" clip-path="url(#cp1)">
				<g id="g104">
					<g id="g110">
						<path id="path112" fill-rule="evenodd" class="s0" d="m647.6 635.3c-2.2 5.7-4.7 11.3-7.3 16.7q1 0 2-0.1 7.7-0.3 15 0l12.4 0.6-6.1 10.6c-33.3 58-72.9 105.7-121.8 139.3-45.9 31.5-99.9 50.5-164.3 53.9l-2.6 0.3-4.3 0.2h-8.4l-3.8 0.1-2.7-0.1-0.9-0.1-2.1-0.2h-0.3c-66.6-2.5-122.1-21.7-169.2-54.1-48.7-33.6-88.2-81.3-121.4-139.3l-6.1-10.6 12.4-0.6q7.2-0.3 14.9 0 1.1 0.1 2.2 0.1c-3.6-7.6-6.9-15.3-9.5-22.6h-0.1c-26-72.9-47.2-152.4-59.1-226-11.8-73.5-17-147.4-16.3-221.5v0.1q0-0.4 0-0.7 0-0.2 0-0.3 0.1-10.8 0.4-21.4 0.3-11 0.7-21.5l0.2-4.5 4.4-2 148.8-66.6 3.1-1.4 3.2 1.1 51.4 17.1 150.6-79.8 3.7-2 4 1.8 148.1 67.5 50.4-17.3 3.7-1.2 3.3 1.8 143.8 78.1 3.9 2.2 0.1 4.1q0.3 11.2 0.5 22.6 0.2 11.1 0.2 22.4c0.2 76.5-4.9 151.2-16.4 223.8-11.6 72.6-35.3 161.9-60.7 229.6zm-455.7 154.7c41.9 28.8 91 46.7 149.4 50.8l-63.5-39.1-38.4 1.7-0.2-5 35.7-1.6-11.8-30.2 5.1-1.7 12.6 32.4 0.1 0.1 0.1 0.2 61.3 37.8c-4-7.8-7.6-16-10.7-24.3-20.7-30.2-49.1-57.2-80.7-79.4-49.2-34.8-106.1-57.9-153.7-63.6q-0.1 0-0.2 0v-0.1l-1.3-0.1q-6.7-0.8-13.3-1-0.4-0.1-0.8-0.1c30.7 51 66.7 93.1 110.3 123.2zm-159.2-388.8c2.6 15.8 5.6 32 8.9 48.5h294.1v-72.7h-228.9v0.1h-77.7q1.7 12.1 3.6 24.1zm-4.7-32.4h69.8v-24.6h281.1v-30.7h79.5v6.8l0.1-0.1 76 59.7v-56h167.6c4.2-44.1 6.2-88.9 6.3-134.5h-691.8c-0.3 60 3.4 119.8 11.4 179.4zm-11.3-194.4h431.7l-105.2-34.4h0.1l-0.5-0.1-0.1-0.1-128.1-41.8-0.5 0.3-3.6-1.2-51.7-17.3-141.3 63.2q-0.3 8.6-0.5 16.8-0.2 7.3-0.3 14.6zm216.5-86.3l112.2 36.7 149.8-49.6-127.8-58.2zm282.3-3.7l-145.8 48.2 127.4 41.7h211.3q-0.1-7.3-0.2-14.7-0.2-9-0.4-18.2l-136.5-74.2-50.1 17.1-3.3 1.2zm176.6 319.1q3.7-23.3 6.5-46.8h-63.1v84h48.3v7.8c3.2-15.5 6-30.6 8.3-45zm-69.5 249.6q2.3-4.4 4.6-8.9 0.3-0.7 0.7-1.5-4.1 0.5-8.4 1.3-0.2 0-0.4 0-1.8 0.3-3.6 0.7-0.5 0.1-0.9 0.2-1.5 0.2-3 0.6-0.8 0.1-1.6 0.3-1.1 0.2-2.2 0.5-1.2 0.3-2.4 0.5-0.6 0.2-1.2 0.3c-35.4 8.7-74.5 27.1-110.8 52.3 40.7-23.7 85.1-39.7 127.5-45.6 0.4-0.4 1-0.6 1.7-0.7zm-525.3-10.4q0.4 0.8 0.8 1.5 2.2 4.5 4.5 8.9c0.8 0.1 1.3 0.3 1.7 0.7 42.3 5.9 86.6 21.9 127.1 45.6-36.2-25.2-75.2-43.6-110.4-52.2q-0.6-0.2-1.2-0.4-1.2-0.2-2.4-0.5-1.1-0.3-2.2-0.5-0.8-0.2-1.6-0.3-1.5-0.4-3-0.6-0.4-0.1-0.9-0.2-1.8-0.4-3.6-0.7-0.2 0-0.4 0-4.2-0.8-8.4-1.3zm-46-149.4c8.7 36.1 18.9 72.5 30.4 107.2l5.3 0.3q7.3 0.4 15 1.5v-21.4q0 0 0 0v-22.3h0.1l-0.1-0.1c11.5-11.4 22.4-17 33.2-17.5 10.1-0.5 19.7 3.4 29.3 11.1 10.5-7.9 20.6-11.5 30.3-11.4 9.8 0.2 19.1 4.2 27.8 11.5 10-6.5 19.5-10.9 29.4-11.1 8.4-0.2 16.7 2.6 25.4 9.6v-16.8q0 0 0 0v-22.4-0.1c10.9-11.3 21.2-17 31.5-17.5 9.4-0.5 18.5 3.4 27.5 11 9.6-7.6 18.9-11.3 27.9-11.3 9.5 0 18.4 4 26.7 11.4 9.4-6.5 18.4-10.8 27.6-11 10.2-0.2 20.4 4.5 31.2 16.5h0.3v40.9c8.6-6.6 16.9-10 25.2-10.4 10-0.5 19.7 3.4 29.3 11.1 10.2-7.7 20.1-11.4 29.7-11.4 10 0 19.4 4 28.4 11.5 10-6.5 19.5-10.9 29.3-11.1 10.8-0.2 21.5 4.5 33 16.5h0.2v44.5q6.7-0.9 13.1-1.3l4.4-0.2c11.4-33.6 22-70.6 31-107.3zm233.4 57.5c8.3-6.8 16.2-10.3 24.2-10.7 9.4-0.4 18.5 3.4 27.5 11 8-6.3 15.8-9.9 23.4-10.9l1.7-2.4 1.2 2.1q0.8 0 1.6 0c9.5 0 18.4 3.9 26.8 11.4 9.3-6.5 18.3-10.8 27.5-11 8-0.2 15.9 2.6 24.2 9.6v-14.2c-8.6-9.1-16.4-12.7-24-12.5-8.2 0.2-16.6 4.7-25.8 11.3l-2.6 1.9-2.3-2.2c-7.7-7.5-15.6-11.4-23.8-11.4-7.9 0-16.4 3.7-25.4 11.5l-2.6 2.3-2.5-2.3c-8.4-7.7-16.4-11.7-24.5-11.3-7.7 0.4-15.8 4.7-24.6 13.4zm158.1-37.6c-8.6-9.1-16.4-12.7-24-12.5-8.2 0.2-16.6 4.7-25.8 11.4l-2.6 1.9-2.3-2.2c-7.7-7.5-15.6-11.5-23.8-11.5-7.9 0-16.4 3.7-25.4 11.6l-2.6 2.2-2.5-2.3c-8.4-7.7-16.4-11.6-24.5-11.2-7.7 0.4-15.8 4.7-24.6 13.3v13.2c8.3-6.9 16.2-10.3 24.2-10.7 9.4-0.5 18.5 3.3 27.5 10.9 9.6-7.6 18.9-11.2 27.9-11.2 9.5 0 18.4 3.9 26.8 11.4 9.3-6.5 18.3-10.8 27.5-11 8-0.2 15.9 2.6 24.2 9.6zm175.2 47.2c-9.3-9.2-17.6-12.8-25.8-12.6-8.9 0.2-17.9 4.7-27.7 11.4l-2.5 1.7-2.2-2c-8.2-7.5-16.7-11.5-25.5-11.5-8.6 0-17.7 3.7-27.3 11.6l-2.5 2.1-2.4-2.1c-9-7.8-17.7-11.8-26.4-11.3-8.1 0.4-16.5 4.5-25.6 12.8v1.1h-0.7v12.8c8.9-7 17.4-10.5 25.9-11 10-0.4 19.7 3.5 29.3 11.2 10.2-7.8 20.1-11.4 29.7-11.4 10 0 19.4 4 28.4 11.5 10-6.6 19.5-10.9 29.3-11.1 8.6-0.2 17.1 2.7 26 9.9zm0 22.5c-9.3-9.2-17.6-12.8-25.8-12.6-8.9 0.2-17.9 4.7-27.7 11.4l-2.5 1.7-2.2-2c-8.2-7.5-16.7-11.5-25.5-11.5-8.6 0-17.7 3.7-27.3 11.7l-2.5 2-2.4-2.1c-9-7.8-17.7-11.8-26.4-11.3-8.3 0.4-17 4.7-26.3 13.4v14.6c8.9-7 17.4-10.5 25.9-10.9 10-0.5 19.7 3.4 29.3 11.1 10.2-7.7 20.1-11.4 29.7-11.4 10 0 19.4 4 28.4 11.5 10-6.6 19.5-10.9 29.3-11.1 8.6-0.2 17.1 2.7 26 9.9zm-200.8 140.6c14.8-16.8 31.4-32.4 48.9-46.4 47.2-37.7 101.8-64.5 148.8-73.3-8.1-7-15.5-9.8-22.7-9.7-8.9 0.2-17.9 4.8-27.7 11.5l-2.5 1.7-2.2-2c-8.2-7.6-16.7-11.6-25.5-11.6-8.6 0-17.7 3.8-27.3 11.7l-2.5 2-2.4-2.1c-9-7.7-17.7-11.7-26.4-11.3-8.3 0.4-17 4.7-26.3 13.4v2.3h-7.3v-4.9q0 0 0 0v-23.8q0 0 0 0v-22.2c-8.4-8.5-15.9-11.9-23.3-11.8-8.2 0.2-16.6 4.8-25.8 11.4l-2.6 1.9-2.3-2.2c-7-6.8-14.2-10.7-21.6-11.4l1.4 2.7c27.9 50.3 45.5 100.5 48.8 150.9q0.8 11.6 0.5 23.2zm-55 90.2q0.9-2.5 1.9-5.1h-3.7q0.9 2.6 1.8 5.1zm38.2-112.5c-2.9-44.1-17.4-88.2-40.4-132.6-19.1 33.4-30.3 81.8-30.6 132.1-0.1 19.2 1.4 38.7 4.7 57.6 10.8 16.1 19.7 33 26.2 50.3v-53.5l-20.6-24.9 4.4-3 16.2 19.6v-55.5l-20.5-21.9 4.2-3.3 16.3 17.5v-36.5l-15.1-14.9 4-3.4 11.1 11v-30.4h5.5v30.2l10.8-8.8 3.6 3.7-14.4 11.7v37l14.5-17 4.3 3.1-18.8 22v54.4l14.5-16.9 4.3 3.1-18.8 21.8v50.5c8.3-20.4 19.7-40.1 33.5-58.6 1.7-14.8 2.1-29.6 1.1-44.4zm-122.5-92.4v-2.1c-9.2-9.1-17.6-12.7-25.8-12.6-8.8 0.2-17.8 4.8-27.6 11.5l-2.5 1.7-2.2-2c-8.1-7.4-16.4-11.4-25.1-11.6-8.7-0.1-17.9 3.6-27.8 11.7l-2.5 2-2.4-2.1c-9-7.7-17.6-11.7-26.4-11.3-7.2 0.4-14.7 3.7-22.7 10.3 46.2 9.3 99.5 35.8 145.7 72.8 20.3 16.3 39.2 34.6 55.7 54.5-0.9-10.3-1.3-20.7-1.2-31 0.2-59.2 15.4-116.4 40.6-151.9-4.7 1.9-9.7 5-14.8 9.5l-2.6 2.3-2.5-2.3c-8.4-7.8-16.4-11.7-24.5-11.3-7.6 0.4-15.5 4.6-24.1 12.9v49zm-168.6-34.3c8.9-7 17.4-10.5 25.9-11 10-0.4 19.7 3.4 29.3 11.2 10.4-7.9 20.5-11.6 30.3-11.4 9.8 0.2 19.1 4.1 27.8 11.5 10-6.6 19.5-10.9 29.4-11.1 8.5-0.2 17 2.7 25.9 9.9v-11h-0.5v-2.6c-9-8.8-17.3-12.3-25.3-12.1-8.8 0.2-17.9 4.7-27.7 11.4l-2.5 1.7-2.2-2c-8-7.4-16.4-11.3-25-11.5-8.7-0.1-18 3.6-27.8 11.6l-2.5 2.1-2.5-2.1c-8.9-7.8-17.6-11.8-26.3-11.3-8.3 0.4-16.9 4.7-26.3 13.4zm76.6 80.8c22.8 11.1 45.7 25 67.2 41.3 16.5 12.4 32.3 26.2 46.7 41.1-15.1-17.7-32.3-34.2-50.7-48.9-48.2-38.7-104.2-65.3-150.2-71.6q0.4 0.9 0.8 1.8 2.4 4.9 4.7 9.6c17.3 2.6 35.8 7.8 54.7 15q0.1 0.1 0.2 0.1 2.2 0.9 4.5 1.8 0.2 0.1 0.4 0.2 2 0.8 4 1.6 0.3 0.2 0.6 0.3 1.9 0.8 3.7 1.6 0.8 0.3 1.6 0.7 1.6 0.7 3.2 1.4 1 0.5 2.1 0.9 0.8 0.5 1.7 0.9 1.9 0.8 3.7 1.7 0.6 0.3 1.1 0.5zm440.4-38.1c-46.2 6.3-102.3 32.9-150.7 71.6-18.4 14.7-35.7 31.2-50.8 48.9 14.4-14.9 30.2-28.7 46.8-41.1 21.6-16.2 44.5-30.2 67.4-41.2q0.6-0.3 1.2-0.6 1.7-0.9 3.5-1.7 1-0.4 1.9-0.9 1-0.4 2-0.9 1.7-0.7 3.3-1.5 0.8-0.3 1.5-0.6 1.9-0.8 3.8-1.6 0.2-0.1 0.5-0.2 2.1-0.9 4.1-1.7 0.2-0.1 0.4-0.2 2.3-0.9 4.6-1.8 0 0 0.1 0c18.9-7.3 37.5-12.5 54.9-15.1q2.3-4.7 4.7-9.6 0.4-0.9 0.8-1.8zm-517-18.9c8.9-7 17.4-10.6 25.9-11 10-0.5 19.7 3.4 29.3 11.1 10.4-7.9 20.5-11.5 30.3-11.3 9.8 0.1 19.1 4.1 27.8 11.5 10-6.6 19.5-10.9 29.4-11.2 8.5-0.1 17 2.8 25.9 10v-14.5c-9.3-9.1-17.6-12.7-25.8-12.5-8.8 0.1-17.9 4.7-27.7 11.4l-2.5 1.7-2.2-2c-8-7.4-16.4-11.4-25-11.6-8.7-0.1-18 3.6-27.8 11.7l-2.5 2-2.5-2.1c-8.9-7.7-17.6-11.7-26.3-11.3-8.3 0.4-16.9 4.7-26.3 13.4zm226.4-140.3h-292.4q3 14.3 6.4 28.7h286zm9-80.9v109.6h39.6v-21.4h7.2v21.4h283.8c3-12.6 5.8-25.2 8.4-37.5h-234.5v-127.4h-61.3v30.8h-281.1v19.4h323.7v5.1zm113.6-46v35.3l96.6 74.4h43zm77.9 50.2l75 58.9-0.5 0.6h15.7v-59.5zm165.1-49.1h-157.8v40.8h82.9v-24.6h73.1q1-8 1.8-16.2zm-243 108.6h82.5l-82.5-63.5zm171.3 227.1l-1.3 0.1-0.1 0.1q0 0-0.1 0c-47.8 5.7-104.8 28.8-154.2 63.6-25.8 18.1-49.4 39.3-68.5 62.7q-5.8 18.5-14.7 37l54.9-33.8 0.1-0.2v-0.1l12.7-32.4 5.1 1.7-11.8 30.2 35.7 1.6-0.3 5-38.3-1.7-62.4 38.4q-0.1 0.2-0.2 0.5c57.2-4.5 105.6-22.2 146.9-50.6 43.8-30.1 79.9-72.2 110.7-123.2q-0.4 0-0.8 0.1-6.7 0.2-13.4 1z"/>
					</g>
					<path id="path114" class="s0" d="m409.5 345.4h-13v-12h13z"/>
					<path id="path116" class="s0" d="m427.7 345.4h-13.1v-12h13.1z"/>
					<path id="path118" class="s0" d="m444.2 345.4h-13.1v-12h13.1z"/>
					<path id="path120" class="s0" d="m487.3 372h-13v-12h13z"/>
					<path id="path122" class="s0" d="m503.2 385h-13v-12h13z"/>
					<path id="path124" class="s0" d="m517.4 397.6h-13v-12h13z"/>
					<path id="path126" class="s0" d="m546.9 423.1h-13v-12h13z"/>
					<path id="path128" class="s0" d="m645.2 373h13.1v12h-13.1z"/>
					<path id="path130" class="s0" d="m665.1 373h13v12h-13z"/>
					<path id="path132" class="s0" d="m645.2 395.5h13.1v12h-13.1z"/>
					<path id="path134" class="s0" d="m665.1 395.5h13v12h-13z"/>
					<path id="path136" class="s0" d="m532.7 410.6h-13v-12h13z"/>
					<g id="g138">
						<path id="path140" fill-rule="evenodd" class="s0" d="m59.3 302.3h-20.6v-77.4h20.3q15.4 0 22.5 2.6 12.9 4.6 12.9 21.1 0 7.2-2.9 12.6-3 5.4-8.4 8.3-3.7 1.8-8 2.5-4.3 0.7-12.5 0.7h-3.3zm0-44.1q0.7 0.1 2 0.1 6.8 0 9.6-2.3 2.9-2.4 2.9-7.8 0-3.8-2.3-6.3-1-1.1-2.1-1.9-1.8-0.8-10.1-1z"/>
					</g>
					<g id="g142">
						<path id="path144" class="s0" d="m568.8 302.3h-47.9v-77.4h47.9v15.1h-27.3v14.2h24.4v15.5h-24.4v16.9h27.3z"/>
					</g>
					<g id="g146">
						<path id="path148" class="s0" d="m631.4 302.3h-19.4v-77.4h31.1l7.4 44.4 1.1 5.7q0 0 0.9 6.2 0.2 2.8 0.8 6.3 0.6-3.6 0.8-6.3 0.3-2.2 0.6-4.1 0.2-1.9 0.2-2.1l1.2-5.7 6.8-44.4h31.1v77.4h-19.4v-30.1q0-5.3 0.5-13 0.1-2.9 0.2-5.3 0.2-2.3 0.3-5.5 0.1-3.1 0.4-8.5l-0.6-0.2-12.3 62.6h-20.3l-12.2-62.6-0.6 0.1q0.4 10.5 0.9 19.4 0.5 7.6 0.5 13z"/>
					</g>
					<g id="g150">
						<path id="path152" class="s0" d="m424.4 286.9q-0.5-2.7-0.5-7.5v-2.5h18.7v2.2q0 11.8 7.9 11.8 3.6 0 5.6-2.3 2.4-2.3 2.4-9.8-0.1-6.6-3.4-9.1-2.8-1.8-11.5-1.8h-2.4v-11.1q8.7 0 10.8-0.7 2.5-0.9 4-3.8 1.5-2.8 1.5-6.7 0-4.4-1.8-6.7-1.9-2.4-5.4-2.4-3.8 0-5.6 2.6-1.7 2.5-2 8.6h-17.8q0-2.5 0.3-5.9 0.7-6.7 5.4-11.9 2.7-2.8 4.4-3.6 2.1-1.2 6.6-2 4.4-0.8 9.4-0.8 11.4 0 18.2 4.2 7.2 4.6 7.2 17.1 0 9-4.9 13-2 1.6-4.1 2.4-2.1 0.7-6.5 1.3 4.9 1 7.1 1.7c1.5 0.5 3 1.2 4.5 2.1q3 2 4.3 5.4 1.3 3.5 1.3 9.8 0 11.8-5.9 17.7-3.1 3-8.1 4.3-5 1.3-13.6 1.3-12 0-18.4-4.5-3.9-2.8-6.1-7.1-1.2-2.6-1.6-5.3z"/>
					</g>
					<g id="g154">
						<path id="path156" fill-rule="evenodd" class="s0" d="m229.8 318.6h-12.6v-32.2h1.4q4.5 0 6.4-3.7 1.8-3.7 1.8-13.1v-44.7h53.6v61.5h8v32.2h-12.6l-4-16.3h-38zm5.6-32.2h24.4v-45.5h-15.2v21.9q0 11.6-3.1 17.9-1 1.9-2.2 3.1-1.2 1.1-3.9 2.6z"/>
					</g>
					<g id="g158">
						<path id="path160" fill-rule="evenodd" class="s0" d="m326.7 280.1q-0.8-6.4-0.8-15.7 0-10.8 0.8-17.5 0.8-6.7 2.6-10.8 1.9-4.1 5.3-6.9 3.6-3.1 8.8-4.5 5.2-1.4 13.3-1.4 18.3 0 24.6 12.5 1.7 3.3 2 6.1 0.8 4.7 1.5 21.5 0.1 1.5 0.1 4.7 0 8.5-0.8 13.7-0.9 5.2-2.9 9.3-2.1 4.3-5.7 7.2-3.5 2.8-8.6 4.2-5.1 1.3-12.1 1.3-13.7 0-20.5-6.2-3.1-2.8-5-7-1.8-4.1-2.6-10.5zm20.1-9.7q0 8 0.2 10.4 0.2 2.3 1.1 4.5 1.8 4.1 7.2 4.1c2.3 0 4.1-0.6 5.6-1.8q1.7-1.6 2.4-5.2 0.6-3.6 0.6-12v-14q0-11.9-1.3-15.3-1.5-3.8-7.5-3.8-3.3 0-5 1.6-1.4 1.5-1.8 2.6-0.9 2.2-1.2 4.9-0.3 2.7-0.3 10z"/>
					</g>
					<g id="g162">
						<path id="path164" class="s0" d="m146.2 284.6l-18.1-59.7h22.3l5.2 25.1q1.4 7.4 2.6 18.3h0.5q0.2-1.8 0.3-3.1 0.2-1.3 0.3-2.2 1.1-9.7 1.9-13.4l4.4-24.7h19.5l-16.1 60.9q-0.5 1.9-1.8 5.1-1.5 3.8-2.3 5.1-4 7.9-15.8 7.9-8.1 0-13.3-2.3v-11.4q3 0.4 5.4 0.4 5.6 0 5.6-3.1 0-1.1-0.6-2.9z"/>
					</g>
				</g>
			</g>
		</g>
	</g>
</svg>