<svg version="1.2" xmlns="http://www.w3.org/2000/svg" viewBox="0 0 290 371" width="290" height="371">
	<title>Gotse-Delchev-pdf</title>
	<style>
		.s0 { fill: #231f20 } 
		.s1 { fill: none;stroke: #231f20;stroke-width: 1.7 } 
		.s2 { fill: #00a650 } 
		.s3 { fill: none;stroke: #00a650;stroke-width: 1.7 } 
		.s4 { fill: #ffffff } 
		.s5 { fill: #fbc707 } 
		.s6 { fill: none;stroke: #ffffff;stroke-width: 1.7 } 
	</style>
	<path id="Path 1" class="s0" d="m146.5 352.5c-49.5-21.1-86.4-48.3-107-93l213.1 0.2c-22.1 42.9-55.3 67.8-106.1 92.8z"/>
	<path id="Path 2" class="s1" d="m146.5 352.5c-49.5-21.1-86.4-48.3-107-93l213.1 0.2c-22.1 42.9-55.3 67.8-106.1 92.8z"/>
	<path id="Path 3" class="s0" d="m146.4 369.6c-77.8-31.8-134.8-76.9-145.2-162l0.1-206.5h73.1v32.3h26.9v-32h88v33.1h31v-33.2h68.8v206.4c-12.6 84.8-65.3 131.4-142.7 161.9z"/>
	<path id="Path 4" class="s1" d="m146.4 369.6c-77.8-31.8-134.8-76.9-145.2-162l0.1-206.5h73.1v32.3h26.9v-32h88v33.1h31v-33.2h68.8v206.4c-12.6 84.8-65.3 131.4-142.7 161.9z"/>
	<path id="Path 5" class="s2" d="m146.6 364.6c-76.3-31-132.2-74-142.4-156.7v-202.5h65.4v32.1h35v-31.8h81v32.9h38.3v-33h62.2c-0.6 65.6-0.2 137.2-0.8 202.8-6.7 87.9-95.4 143.7-138.7 156.2z"/>
	<path id="Path 6" class="s3" d="m146.6 364.6c-76.3-31-132.2-74-142.4-156.7v-202.5h65.4v32.1h35v-31.8h81v32.9h38.3v-33h62.2c-0.6 65.6-0.2 137.2-0.8 202.8-6.7 87.9-95.4 143.7-138.7 156.2z"/>
	<path id="Path 7" class="s4" d="m148.2 350c-49.5-21.1-86.4-48.3-107-93l213.1 0.2c-22.1 42.9-55.3 67.8-106.1 92.8z"/>
	<path id="Path 8" class="s2" d="m70.2 298.5c0.9-2.4 8.4-8.8 16.2-14.1 7.7-5.4 15.8-9.4 17.9-8.4-0.8 5.1-2.4 11.5-5.1 21.1q-1.8 3.6-3.5 7.3c17.6-17 30.4-31.8 42.2-37.9 2.5-1.3 5-2.5 7-3.5 13.8 8.2 27 21.9 39.9 36q-1.6-3.3-3.2-6.6c-4-7.6-5.6-14.9-5.6-21.2 16.8 6.3 31.4 15.1 44.4 26.6-5.6 4.5-12.8 11.6-22.1 18-17.3 11.7-37.2 24.6-51.1 29.9-43.2-17.7-68.7-39.2-77-47.2z"/>
	<path id="Path 9" class="s3" d="m70.2 298.5c0.9-2.4 8.4-8.8 16.2-14.1 7.7-5.4 15.8-9.4 17.9-8.4-0.8 5.1-2.4 11.5-5.1 21.1q-1.8 3.6-3.5 7.3c17.6-17 30.4-31.8 42.2-37.9 2.5-1.3 5-2.5 7-3.5 13.8 8.2 27 21.9 39.9 36q-1.6-3.3-3.2-6.6c-4-7.6-5.6-14.9-5.6-21.2 16.8 6.3 31.4 15.1 44.4 26.6-5.6 4.5-12.8 11.6-22.1 18-17.3 11.7-37.2 24.6-51.1 29.9-43.2-17.7-68.7-39.2-77-47.2z"/>
	<path id="Path 10" class="s5" d="m115.9 282.7c-5.7 5.3-11.8 11.7-17.7 18.4 3.3-8.1 5.1-16.2 7-24.4q5.5 3.6 10.7 6zm58.7-10.7c1.1 8.3 1.8 12.4 5.3 20.4-5.9-6.7-10.9-11.4-16.6-16.8 3.9-1 9.1-2.6 11.3-3.6z"/>
	<path id="Path 11" class="s0" d="m142.9 32c1.6 0 3.1-0.1 4.6 0 0.2 0.1 0.4 0.3 0.4 0.5 0.1 0.2 0.1 0.4 0 0.7l-0.4 0.8c0.6 0 1.2-0.5 1.8 0l0.2 1.9-0.4 0.4 0.7 1.2-0.1 1.7-2.3 0.1-0.4-0.5-0.6 0.5 0.3 0.8 0.2 0.7 5.7-0.1 1.9 0.9 0.7-0.4 1 0.3 0.9 1v2l0.5 0.6v0.5l1.8 1.9-0.1 1.9-1.2 1.1-0.2 1.2-0.5 0.4c0 1.3 0.4 3.4 0 3.7-0.8 0.6-1.3 1.3-2.2 2l-0.2 1.2-0.2 1.8c0 0.9 0.1 1.8 0 2.7-0.2 0.8-0.8 1.4-1.6 1.9-4.8 1.2-10 1.8-14.9-0.1-1-0.3-1.5-1-2.2-2l-0.6-4.6-2.8-2.7v-2c0 0-0.2-0.1-0.2-0.1v-0.1c-0.1 0-0.1 0-0.1 0v-0.1l-0.1-0.1c0-0.4-0.1-0.8-0.1-1.3 0 0 0 0 0-0.1-0.5-0.6-2-1.1-1.7-1.9 0.8-2.6 1.5-5.1 2.5-7.6 0.2-0.4 0.6-0.8 1-0.8l2.7-0.4 1.1-0.8h3.3l1.1 0.6 0.5-0.7 0.2-2c-0.6 0.3-1.2 0.9-2 0.9-0.5 0-1.1-0.6-1-1.1v-3.2l0.5-0.5h1.1l0.7 0.7h0.3l-0.1-1.2-0.4-0.6c0-0.2-0.2-0.4-0.1-0.5 0.3-0.4 0.5-1.1 1-1.1z"/>
	<path id="Path 12" class="s5" d="m144.7 34c0.2 0 0.3-0.2 0.4-0.2 0.2 0.2 0.4 0.1 0.6 0.7 0.1 0.1-0.2 0.5-0.4 0.6v1.2c0.5 0 1.9-0.8 2.5-0.3l0.2 1.5-0.2 0.3-0.5-0.4-1.4-0.3-0.9 0.5 0.3 4 1.2 0.9 1.1-0.4h4.7l1.3 0.9h0.7l0.4-0.3 0.4 0.4v1.3l1 1.2 0.1 1.6 1.2 1-0.9 1.2 0.1 1v1.2l-1.5 1.7c-0.2 0.7 1.4 1.3 1 1.6-0.6 0.5-1.2 0.5-2.1 1.1l-0.6 2.7c-0.1 1.1-0.1 2.1-0.3 3.2-0.1 0.6-0.2 1.1-0.8 1.6-4.4 1.2-9.3 1.8-13.6 0-0.9-0.4-0.2-1.3-0.8-2.2l-1-3.9-2.1-1.6 0.8-1c-0.2-0.4-1.1-1.7-2-2.8 0.4-1.2-1-1.8-1-1.8 0.2-0.5 0.8-0.6 0.9-1.1 0.5-1.8 0.3-2.5 1.2-4 0.2-0.3-0.2-1.7 0.1-1.7q0.8 0.1 1.6 0.1c0.3-0.7 0.9-1.1 1.7-1.3 1.7-0.3 2.4-0.3 4.8 0.8l1.3-1.4 0.1-4.3c-1.4-0.6-1.4 0.4-2.1 0.4-0.7 0-0.8-1.2-0.5-1.5 0.3-0.2 0.6-0.2 1-0.1l1.5 0.3v-1.4c-0.7-0.3-0.5-1 0.1-1.2 0.1 0 0.3 0.2 0.4 0.2z"/>
	<path id="Path 13" class="s0" d="m145.9 60.1c3.7 0 6.8 0.7 6.8 1.6 0 0.9-3.2 2-6.9 2-3.8 0-7-0.7-7-1.6 0-0.9 3.3-2 7.1-2zm-0.8-3.4c4 0 7.2 0.7 7.2 1.3 0 0.6-3.4-0.2-7.4-0.2-3.9 0-7 1.4-7 0.7-0.1-0.7 3.3-1.8 7.2-1.8zm-17.2 109.7c2.5-5.8 4.2-12.3 6.1-17.9 0.5-1.4 1.7-1.1 2.4-1.9 0.2-0.3-0.1-1 0.2-1.3q0.8-0.8 1.5-1.6c4.2-2 13.1-0.2 13.5 0.9 0.3 0.6 0.5 1.6 1.1 1.8 1.3 0.3 2.6 0.2 3.5 0.9 1.1 1 1.9 2.3 1.5 3.7-0.3 1.6-1.8 2.9-3.3 3.6-0.6 0.3-0.3-1.1-0.9-1.4-0.7-0.4-1.5 0.3-1.2 1.1 0.5 1.7 1.1 3.7 2.2 5.5 1.4 2.5 3.2 5 4.3 7.6 0.1 0.3-1.5 0.2-1.5 0.6-0.1 1 1 2.6 1.9 2.1 6.8 0.7 22.5-8.2 31.6-17.7-1-1-1.5-3.6 1-4.8 3.6-2.4 20.9-7.9 28.8-14.2q0.2 1.9 0.4 3.8c9.3-3.1 18.5-6.2 27.5-10.5l-1.3 5.9q1.9-0.3 3.9-0.6-1.7 5.4-5.2 10c2.8-1.1 5.6-2.4 8.2-4.3-2.4 4-5.2 8-8.5 12l5.5-1.3q-3.3 4.6-8.3 8.6 2.4-0.1 4.8-0.2c-3.2 3.7-8 6.3-13.8 8.1q3.2 0.5 6.4 1.1c-2.3 2.4-5.5 3.4-8.6 4.7l5 0.8c-3.3 2.5-7.8 4-12.5 5.4l4.6 1.7c-3.4 2.8-9.7 3.2-16.2 3.4l2.4 2c-3.8 1.4-7.1 1.7-10.9 1.8l3.4 4.8-10.1 0.5 0.9 6.4-5.3-1.3 0.1 4.8-4.8-2.1 0.4 7.6-7.1-3.5-0.8 5.4-6.7-4.4-0.8 4.1-6.4-5.5-1.8 3.7q-1.4-0.9-2.8-1.9c0.9 4.6 1.3 9.6 1 14.2 2.2 2.3 3.8 4.8 6.4 6.7l-4.3 4 2.1 2.1-5.4 3.3c-0.4 0.8-0.1 1.5 0.7 2.2 1.4 0.2 2.3 1 3 1.9 2.2-0.3 3 0.5 3.6 2.4 1.8 0.9 2.6 2.8 3.2 5.1l-4.5-1.9-1.3-0.1c-0.7 1.1-1.8 4-2.4 2.9l-1.5-2.6-2.3 0.4c-0.3 0.9-0.7 3.1-1.4 2.4l-2-2.1q-2.8-0.3-5.6 0.6c-1.2 0.3-3.4 1.7-3.4 0.5 0-1.5 0.6-2.6 1.6-3.4-0.1-1.2 0.4-2.1 1.5-2.7 0.8-1.1 3.5-0.5 3.5-1.5 0.1-1.1-1-2.7-2.2-1.8l-3.4 2.6-1.4-1.3-3.1 2.2-3.4-2.7-1.4 1.8c-1.1-0.6-2.1-1.9-3.4-1.8-0.6 0-1 2.1-0.3 1.9 1.4-0.3 2.6 0 3.3 1.2l0.5 0.8-0.3 0.4c1.1 0.7 2.3 2.5 1.8 4.2-3.4-1.1-6.5-1.8-9.9-1.8-1 0.2-0.8 1.8-2.5 2.8-0.4-0.9-0.1-2.7-1.3-2.5l-2.4 0.1c0.2 0.9-0.1 1.9-0.5 2.9-1.4-0.8-2.4-1.7-2.7-2.9-1.7-0.3-3.4 0.5-4.3 2.3-1.6-1.7-1.3-2.8 0.4-5.1l0.8-0.5c0.7-2.8 2.5-3.2 5.1-2.9 1.3-0.9 2.7-1.4 4.1-1.4 0.2-0.5 1.4-1.3 0.9-1.6-3.1-1.7-6.7-3.4-9.4-5.3 0.9-1 2.5-2 2.9-3q-1.6-2-4.1-3.7c2.6-2.4 5-4.8 6.9-7.5-0.3-2.7-0.4-5.6-0.1-8.1l0.6-2.8-9.7 3.4 0.2-2.8-6.5 2.5-0.1-3c-2.4 1.3-5.2 1.8-8.3 2-0.1-1.3 0.5-2.3 0.6-3.4-1.9 0.8-3.9 1.3-6 1.7-0.3-1.6 0.4-3.2 0.4-4.5l-6.2 0.4c0-2.7 1-4.9 1.5-6.6l-7.5-0.2c0.5-2 1.9-2.9 2.7-4.6-5.7-0.5-10.6-0.7-11.4-1.8 0-1.3 2-2.2 3-3.3-2.4 0-4.8-0.2-6.9-0.7l3.2-3c-7.9 0.6-14-0.4-18.8-2.5 1.1-1.2 3.3-1.4 4.8-2.3-4.8-0.7-8.8-3.1-12.7-6l3.5-1.1c-3.8-1.6-6.8-3.6-8-6.3 0.7-0.4 2.3-0.2 3.5-0.4l-6.9-6c1.1-0.7 3.2-0.5 4.7-0.8-4.1-3.5-8.4-8.4-8.9-11.2 1.1-0.1 3.5 1.5 3 0.7-1.8-2.8-4.3-5.8-3.9-8.2 1.4-0.2 4.8 2.6 3.8 0.8-1.1-2.2-2.5-4.4-2.3-6.8 2.2 0 6.4 3.2 5.4 1.4-1.2-2.2-2-4.5-2.1-6.9 7.5 3.5 16.9 6.8 26.9 10 0.3-0.9 0.3-2.9 1.1-2.5 7.1 4.9 20.1 9.6 25.9 14.1 1.8 1.7 2.3 3.1 0.9 4.1 3.8 3.8 8.3 7.5 13.8 10.5 5.2 3.4 11.1 6.2 18.9 7.2 3.4 0.2 3.1-0.8 0.4-2.8z"/>
	<path id="Path 14" class="s1" d="m127.9 166.4c2.5-5.8 4.2-12.3 6.1-17.9 0.5-1.4 1.7-1.1 2.4-1.9 0.2-0.3-0.1-1 0.2-1.3q0.8-0.8 1.5-1.6c4.2-2 13.1-0.2 13.5 1 0.3 0.5 0.5 1.5 1.1 1.7 1.3 0.3 2.6 0.2 3.5 0.9 1.1 1 1.9 2.3 1.5 3.7-0.3 1.6-1.8 2.9-3.3 3.6-0.6 0.3-0.3-1.1-0.9-1.4-0.7-0.4-1.5 0.3-1.2 1.1 0.5 1.7 1.1 3.7 2.2 5.5 1.4 2.5 3.2 5 4.3 7.6l-1.5 0.6c0 1 1 2.6 1.9 2.1 6.8 0.7 22.5-8.2 31.6-17.7-1-1-1.5-3.6 1-4.8 3.6-2.4 20.9-7.9 28.8-14.2 0 1.3 0.4 2.5 0.4 3.8 9.3-3.1 18.5-6.2 27.5-10.5l-1.3 5.9q1.9-0.3 3.9-0.6-1.7 5.4-5.2 10c2.8-1.1 5.6-2.4 8.2-4.3-2.4 4-5.2 8-8.5 12l5.5-1.3q-3.3 4.6-8.3 8.6 2.4-0.1 4.8-0.2c-3.2 3.7-8 6.3-13.8 8.1q3.2 0.5 6.4 1.1c-2.3 2.4-5.5 3.4-8.6 4.7l5 0.8c-3.3 2.5-7.8 4-12.5 5.4l4.6 1.7c-3.4 2.8-9.7 3.2-16.2 3.4l2.4 2c-3.8 1.4-7.1 1.7-10.9 1.8l3.4 4.8-10.1 0.5 0.9 6.4-5.3-1.3 0.1 4.8-4.8-2.1 0.5 7.6-7.2-3.5-0.8 5.4-6.8-4.4-0.7 4.1-6.4-5.5-1.8 3.7q-1.4-0.9-2.8-1.9c0.9 4.6 1.3 9.6 1 14.2 2.2 2.3 3.8 4.8 6.4 6.7l-4.3 4 2.1 2.1-5.4 3.3c-0.4 0.8-0.1 1.5 0.7 2.2 1.4 0.2 2.3 1 3 1.9 2.2-0.3 3.1 0.5 3.6 2.4 1.8 0.9 2.6 2.8 3.2 5.1l-4.5-1.9-1.3-0.1c-0.7 1.1-1.8 4-2.4 2.9l-1.5-2.6-2.3 0.4c-0.3 0.9-0.7 3.1-1.4 2.4l-2-2.1q-2.8-0.3-5.6 0.6c-1.2 0.3-3.4 1.7-3.4 0.5 0-1.5 0.6-2.6 1.6-3.4 0-1.2 0.4-2.1 1.5-2.7 0.8-1.1 3.5-0.5 3.5-1.5 0-1.1-1-2.7-2.2-1.8l-3.4 2.6-1.4-1.3-3.1 2.2-3.4-2.7-1.4 1.8c-1.1-0.6-2.1-1.9-3.4-1.8-0.6 0-1 2.1-0.3 1.9 1.4-0.3 2.6 0 3.3 1.2l0.5 0.8-0.3 0.4c1.1 0.7 2.3 2.5 1.8 4.2-3.4-1.1-6.5-1.8-9.9-1.8-1 0.2-0.8 1.8-2.5 2.8-0.4-0.9-0.1-2.7-1.3-2.5l-2.4 0.1c0.2 0.9-0.1 1.9-0.5 2.9-1.4-0.8-2.4-1.7-2.7-2.9-1.7-0.3-3.4 0.5-4.3 2.3-1.6-1.7-1.3-2.8 0.4-5.1l0.8-0.5c0.7-2.8 2.5-3.2 5.1-2.9 1.3-0.9 2.7-1.4 4.1-1.4 0.2-0.5 1.4-1.3 0.9-1.6-3.1-1.7-6.7-3.4-9.4-5.3 0.9-1 2.5-2 2.9-3q-1.6-2-4.1-3.7c2.6-2.4 5-4.8 6.9-7.5-0.3-2.7-0.4-5.6-0.1-8.1l0.6-2.8-9.7 3.4 0.2-2.8-6.5 2.5-0.1-3c-2.4 1.3-5.2 1.8-8.3 2 0-1.3 0.6-2.3 0.6-3.4-1.9 0.8-3.9 1.3-6 1.7-0.3-1.6 0.4-3.2 0.4-4.5l-6.2 0.4c0-2.7 1-4.9 1.5-6.6l-7.5-0.2c0.5-2 1.9-2.9 2.7-4.6-5.7-0.5-10.6-0.7-11.4-1.8 0-1.3 2-2.2 3-3.3-2.4 0-4.8-0.2-6.9-0.7l3.2-3c-7.9 0.6-14-0.4-18.8-2.5 1.1-1.2 3.3-1.4 4.8-2.3-4.8-0.7-8.8-3.1-12.7-6l3.5-1.1c-3.8-1.6-6.8-3.6-8-6.3 0.7-0.4 2.3-0.2 3.5-0.4l-6.9-6c1.1-0.7 3.2-0.5 4.7-0.8-4.1-3.5-8.4-8.4-8.9-11.2 1.1-0.1 3.5 1.5 3 0.7-1.8-2.8-4.3-5.8-3.8-8.2 1.3-0.2 4.7 2.6 3.7 0.8-1.1-2.2-2.5-4.4-2.2-6.8 2.1 0 6.3 3.2 5.3 1.4-1.2-2.2-2.1-4.5-2.1-6.9 7.5 3.5 16.9 6.8 26.9 10 0.3-0.9 0.3-2.9 1.1-2.5 7.1 4.9 20.1 9.6 25.9 14.1 1.8 1.7 2.3 3.1 0.9 4.1 3.8 3.8 8.3 7.5 13.8 10.5 5.2 3.4 11.1 6.2 18.9 7.2 3.4 0.2 3.1-0.8 0.4-2.8z"/>
	<path id="Path 15" class="s0" d="m130.3 212.1l2.8 5 1.3-1.2c-1-2.2-1.5-4.4-1.6-6.6q0.8-0.2 1.5-0.4c0.3 4 2.1 7.8 4.5 11.6q-1.3 0.4-2-0.6l-1.2-1.9c-0.8 0.4-1.4 1.1-2.2 1.6-1.9-2.2-3.5-4.5-4.7-6.9zm29.6 0.5c-1.1 2.4-1.8 5.5-2.8 7.5-0.8-0.5-2.1-1.7-2.9-2.1l-1.5 2.5c-0.4 0.6-0.4-0.3-1.3-0.6 2.8-3.4 3.9-7.3 3.7-11.6 0.5 0.1 1-0.2 1.5-0.1 0.5 2.2-0.4 5.7-1.2 8.1-0.2 0.5 0.9 1.4 1.2 1 1-1.5 1.1-3.2 1.7-4.9z"/>
	<path id="Path 16" class="s4" d="m24.9 78.8h237.7v39.3h-237.7z"/>
	<path id="Path 17" class="s6" d="m24.9 78.8h237.7v39.3h-237.7z"/>
	<path id="Path 18" fill-rule="evenodd" class="s5" d="m228.8 9.4h50.2v114.6 83.1c-8.1 78-71.9 131.5-131.4 153.5-70.3-29.5-126.9-74.6-136.3-153.6v-197.5h55v32.1h43.5v-32.1h72v33.1h47zm23.5 247.7l-213.1-0.2c20.6 44.7 57.5 71.8 107 93 50.8-25 84-50 106.1-92.8zm-228.9-139.6h242.5v-39.5l-242.5 0.7q0 19.4 0 38.8zm0-44.9h242.5v-50.7h-26.7v31.9h-67.1v-32.3h-50.7v31.8h-67.6v-32.2h-30.4c0 17.6 0 34 0 51.5zm11.8 178.2h219.4c5.5-13.3 10.9-27.8 11.3-43.7v-83.5h-242.5q0 41.7 0 83.4c1.9 16.2 6.5 30.7 11.8 43.8z"/>
	<path id="Path 19" fill-rule="evenodd" class="s0" d="m39.7 85.4h12.2l2.9 5.6c1.3-2.2 3.4-3.9 5.7-5l0.5-0.2c2.7-1.1 5.6-1.3 8.4-0.6l0.6 0.2c2.9 1 5.4 2.8 7.2 5.4q0.2 0.4 0.5 0.8c1.9 3.6 2 8.1 0.4 11.8q-0.2 0.5-0.4 0.9c-1.3 2.5-3.4 4.4-5.9 5.7l-0.6 0.2c-3.3 1.3-7 1.2-10.3 0-1.3-0.6-2.5-1.3-3.6-2.2-0.8-0.8-1.5-1.5-2.1-2.4-0.4-0.6-0.8-1.2-1.1-1.8-0.3-0.6-0.6-1.2-0.8-1.9-0.3-1.1-0.5-2.1-0.6-3.3v-1.3c0.2-1.9 0.6-3.7 1.5-5.3h-6.8v19h-7.7zm26.3 6.6q-0.5 0-0.9 0.1c-2.4 0.3-4.4 2-4.9 4.3-0.3 1.1-0.3 2.4 0.1 3.5 0.7 2.1 2.7 3.7 4.9 3.9q1.1 0.2 2.1-0.1c2.2-0.4 4-2.1 4.5-4.2 0.3-1.1 0.3-2.3 0-3.4-0.7-2.2-2.7-3.8-5.1-4q-0.3-0.1-0.7-0.1zm14.2-6.6h7.2v18.1h4.2v-18.1h7.4v18.3h3.4v-18.3h13.8l2.7 7h-9.4v2.6h4.7v6.9l-4.7 0.1v2.1h11.3l-4.9 6.5h-13.5v-6.4l-3.5 6.4h-18.7zm61.7 0.2h6.9l5.9 18.2h2.4v-18.5h14.4l3.5 6.6h-9.9v2.7l5.2 0.2v7.2h-5.3v1.7h9.6l-3 6.9h-14.5v-2.6l-1.4 2.8h-23.1l-3.1-7.2h6.1zm4.6 18.1l-1.5-4.7-1.6 4.7zm34.2-18.1h7.4l8.5 24.9h-7.8l-4.1-12.5-4 12.5h-7.6zm25 12.2v-12.3h7.4v25.2h-7.6v-4.8c-1 0.4-2 0.8-3 1-0.6 0.1-1.2 0-1.8 0-0.9-0.2-1.6-0.5-2.5-1l-0.6-0.4c-1.5-1.2-2.5-2.6-3.2-4.3-0.3-0.7-0.5-1.5-0.5-2.3q0-2.3 0-4.6c-0.1-2.9 0-5.8 0-8.8h7.7l0.1 13.1c0.1 0.7 0.5 0.9 1.2 1 1.3 0.2 2.6-0.5 2.8-1.8zm8.7-12.3l13.4 0.2 4 5.3v-5.1h10c1.2 0 2.3 0.2 3.4 0.6l0.6 0.3c1.2 0.6 2 1.3 2.6 2.4 0.9 1.6 1.1 3.5 0.6 5.2-0.2 0.8-0.6 1.4-1.1 2.1-0.2 0.3-0.4 0.5-0.7 0.7 0.9 0.6 1.5 1.2 2.1 1.9l0.5 0.7c0.5 1 0.7 1.8 0.7 3v0.8c-0.2 1.2-0.6 2.1-1.2 3.1l-0.5 0.6c-1.2 1.3-2.6 2.2-4.3 2.7-0.8 0.3-1.6 0.4-2.5 0.5h-10.2v-5.9l-2.7 6.1h-14.7zm17.4 6.5h-9.5v2.9h4.3v6.7l-4.5 0.1v2.5h9.7zm11.3 10.7c0-0.4-0.1-0.5-0.4-0.7-0.9-0.5-1.9-0.6-2.9-0.6h-1v2.6c0.5 0.1 1 0.1 1.5 0.1q1.3 0 2.4-0.6c0.4-0.2 0.4-0.4 0.4-0.8zm-3.6-8.5q0.8 0 1.6-0.3c0.5-0.2 1-0.4 0.8-1 0-0.2-0.3-0.3-0.4-0.3q-1.4-0.4-2.8-0.5l0.1 2q0.3 0 0.7 0.1z"/>
	<path id="Path 20" fill-rule="evenodd" class="s5" d="m41.6 87.3c6 0 3.4 0 9.1 0l1.5 2.8h-6.7v19h-3.9zm24.4-0.6c2.9 0 5.5 1 7.6 2.9 2.5 2.2 3.7 4.9 3.7 8.4 0 3.2-1.1 6-3.3 8.1-2.1 2.1-4.7 3.2-7.8 3.2q-4.7 0-7.8-2.9c-5-4.5-5-12.4 0-16.8q3.4-2.9 7.6-2.9zm16.2 0.7h3.3v18h8v-18h3.6v18.2h2.4l-1.7 3.2h-15.6zm22.1 0h10.5l1.3 3.3h-8.5v6.2h4.7v3.3l-4.7 0.1-0.1 5.8h9.5l-2.1 2.8h-10.6zm39 0.2h4.1l5.9 18.3h2.9l-1.7 3.2c-7.7 0-12.9 0-20.6 0l-1.5-3.4h4.5zm5.9 18l-4.1-12.7-4.2 12.7zm9.9-18.3h11.3l1.5 2.9h-8.7v6.3l5.2 0.2v3.6h-5.3v5.4h8.6l-1.4 3.1h-11.2zm23.1 0.3h4.6l7.2 21.1h-3.7l-5.6-16.7-5.4 16.7h-3.6zm13.7 0h3.9v11.2c0.5 4.2 7.4 3.7 7.9-0.7v-10.5h3.6v21.4h-3.8v-6.4c-0.9 1-3.7 2.4-5.4 2.6-3.6 0.2-6.2-3.9-6.2-6.2 0-6.2-0.1-3.8 0-11.4zm20.5 0l10.5 0.1 2 2.7h-8.4v6.6h4.3v3l-4.5 0.1v6.1h8.8l-1.2 2.8h-11.5zm17.4 0.3h7.7c3.2 0 6 1.2 6 5 0 1.2-0.5 1.9-1.2 2.8-0.5 0.7-2.3 1.2-2.7 1.8 0.9 0.6 5.1 1.8 5.1 5.5 0.1 3.4-3.7 5.8-6.7 5.8h-8.2zm11.3 15q0-1.7-1.6-2.4-1.6-0.8-3.8-0.8h-2.8v6.2l2.7 0.3c1.6 0.1 2.9-0.3 3.9-0.8q1.6-0.7 1.6-2.5zm-8.2-6.9l1.8 0.2c1.6 0.2 2.8-0.2 3.6-0.5q1.7-0.7 1.7-2.4 0-1.7-1.8-2.3-1.8-0.6-4-0.6h-1.3zm-170.9-5.6q-3.2 0-5.6 2.2-2.3 2.2-2.3 5.6 0 3.4 2.3 5.6 2.4 2.2 5.6 2.2 3.2 0 5.6-2.2 2.3-2.2 2.3-5.6 0-3.4-2.3-5.6-2.4-2.2-5.6-2.2zm64.6 75.9c1.3-5.6 3.2-12.6 5.7-17.6 0.5-1.3 1.3-0.4 1.9-1.1 0.3-0.3-0.1-0.8 0.2-1.1 0.5-0.5 1.8-1.4 2.3-1.8 5-0.8 9.3 0.5 9.5 1.5 0.3 0.5-0.1 1.7 0.5 1.9 1.2 0.3 3.4 0.1 4.5 0.5 1.6 0.7 1 2.5 0 3.9-2.1-1.3-4.3-0.9-4.9 1.6 0.2 1.7 2.2 6.2 3.3 7.8 0.8 1.5 2.1 3.9 2.7 5-0.3 0.2-1 1.2-0.9 1.8 0.1 0.9 1.3 2.9 2.3 3 2.6 2.2 15.6-2.8 25.8-10.2 3.7-3.2 7.4-7 10.1-9.8-1.3-0.8-2.6-1.8-0.3-2.8 3.4-2.2 18.1-6.6 25.6-12.4 0.1 1.2 0.6 1.9 0.7 3.1 8.8-2.9 17.5-5.6 26-9.6q-0.4 1.9-0.8 3.7c0 0.8-23.5 7.2-23 7.7-3.5 4 25.8-7 26.6-7.2-1.1 3.3-3.5 6.1-6.2 9-4.3 0.2-10.5 1.2-15.4 1.6-4.5 0.5-7.9 0.4-7.9 1-1.3 3 23.7-0.5 29.7-2.6-1.2 2.4-3.6 4.8-6.7 7q-12.3 0.4-24.5-0.5c-3.7 2.9 20.7 2.8 28.9 1.7-0.8 1.2-3 4.6-6.4 5.5-3 0.8-23.8-3.6-25.3-2.7-1.7 1.1 5.2 2 12.7 2.9 7.3 0.9 15 1.8 15.8 1.8-1.4 1.5-6 3.8-12 5-2.3 2.8-15.9-6.6-18.9-5.7-0.9 1.8 21.6 8.6 23.6 8.9-2.2 2.3-4.1 1.9-7 2.9-5.8-1.6-16.7-5.7-19.6-6.7-1-0.2-1.8 0.7-1 1.5l22.7 7.9c-3.1 2.3-5.7 2.4-10.1 3-2.6-1.3-5.2-2.5-7.8-3.9-2.4-1.3-4.6-2.7-7.2-3.8-0.4-0.2-1 1.1-0.5 1.3 5.3 3.7 11.8 6.9 18.9 9.7-1.4 0.8-9 2.2-13.6 0.9-4.3-2-7.2-8-8.5-8-0.7-0.4-1.6 0.5-1 1.2 2.7 3.4 6.1 6.8 10.1 10.3-4.7 1.5-6 0.8-8.3 0.6q-2.7-3.7-5.3-7.5-2-0.8-1.3 1.4l7.7 11.1-6.7 0.3c-0.7-3.5-1.1-7-2.5-10.3-0.6-0.8-1.2-0.9-1.5 0.7 1.4 5 2.3 10.4 3 16-1.3-0.1-2.6-0.5-4-1.6-0.2-4.2-1-8.4-2.4-12.4q-1-1.8-1.4 0.3c1.1 5.3 1.9 10.7 2.6 16-1.2 0-2.2-0.7-3.1-1.8-0.4-1.9-0.3-3.9-0.7-5.8-0.3-1.9-1.1-3.8-1.4-5.7q-1-2-1.5 0.2c1.6 5.9 2.1 12.3 2.3 18.8-1.8-0.4-3.5-1.4-5-3 0.1-4.6 0.1-9-0.6-13.6-0.1-1-1.3-1.7-1.3 0.2 0 6.1 0.3 12.2-0.7 18-1.9-0.7-3.3-1.6-4.3-3.3q0.1-6.4 0.2-12.7c-0.6-1.4-1.3-1.7-2 0.3-0.3 5.1 0.5 10.3-1.2 15.1-1.7-0.9-2.8-2-4-3.5q1-5.6 2-11.1-1.1-2.2-2 0.6c-0.6 4.4-1.6 8.7-3.6 12.7-1.3-0.3-3.3-2.2-3.8-3 0.4 0.5 2.9-8.8 2.6-9-0.7-0.5-1.5-1.3-1.5 0 0.1 3.3-3.5 9.7-5 12.7-0.3 0.6-0.1 1.4 1 0.9 1.1-0.4 1.9-3.4 2.3-2.6 0.8 1.9 3.3 8.7 1.6 15.1-0.7 3.8-2.1 7.5-5.8 9.8 1 3.2 2.9 6.5 5.1 9.7-0.4 0.7-1.8 1.3-0.7 1.6 0.2-0.1 0.6 0 0.9-0.1 1.8-0.9 3.4-0.4 3.3 1.4 0 0.2 0.4 0.7 0.6 0.6 2.7-1.5 3.3 0.8 3.1 1.8 1.7 0.8 1.5 0 2.3 1.7-0.6 0-1.3-0.4-2-0.8-1 0.1-1.7-0.1-2-1.3-0.1 0.1-0.5-0.1-0.6 0.1-0.8 1.3-0.7 4.2-1 3.4q-0.7-1.5-1.8-3l-0.5 0.2-0.1 0.8c-0.2 0.4-0.7 0.4-1.3 0.3-0.6-0.2-1-2-1.4-1.7l-0.3 0.3q0.2 1.6-0.1 3.2c-0.6 0-1.5-2.6-2.4-2.7-1.2-0.1 0.1 1.1-0.3 1.3-0.3 0.1-2.8 0.1-4.5 0.4-1.5 0.3-2.3 1.2-2.2 0.6 0.2-1.1 0.9-0.7 1.9-1.5-0.1-1.1-0.8-0.4 0-1.9 0.6-1 2.2 0.7 3-0.1-0.3-0.7 2-2 2.2-2.3-1.1-2.4-3.1-6.3-7.5-10 1.2-3.9 0.8-6.5-1.9-7.3l-0.6-6.6h-3.5q-0.2 0.6-1.6 0.8l0.2 5.4c0.5 1.8-2.6-0.5-1.8 7.6-3 1.9-6.3 8.6-6.3 11 0.2 0.7 0.8 1.2 1.9 1.3 0.4-0.2 0.7-0.4 1.1-0.6 0.3-0.2 1 0.4 1 2 0 0.3 0.3 0.6 0.6 0.5 0.8-0.1 1.9 1.2 1.4 1.3-1.6-0.5-2.8-0.8-3.4-1-0.8 0-1.7-0.2-3.3-0.3q-2.1 0.8-0.4-1.2l-1.4-0.2c-0.9 0.5-1.5 1.4-1.9 2.5-0.7-0.9 0-1.7 0-2.6q-0.3-0.6-0.9-0.1l-0.4 1.7q-0.8 0.1-1.6 0.2c-0.1-0.4 0.1-0.7 0.3-1-0.1-0.3-0.4-0.4-0.8-0.3-0.8 0.2-1.5 2.5-2.1 3.4-0.8 0.4 0.3-3.1 0.2-3.5-0.5-0.1-1.7-0.3-1.7 0l-0.1 1.4c-0.4-0.1-3.5 0.3-4.2 0.8 0.2-1.8 0.5-0.1 2.1-2.2-1.1-0.2 0.4-1.5 1.9-2 1.2 0.3 1.2 0.9 2.3 1.1 0.9 0.1 0.8-2 1.6-2 1.2-0.7 2.5 0.2 3.8 1 0-0.2 0.7-0.6 0.3-0.8-1-0.6 0.8-2.6 1.1-3.2l2.4-7.3q0-1.5-1.2-1c-1.9-2-4.7-5.3-5-9.6-0.5-2.4-0.6-5.1-0.3-7.4 0-2.6 1.2-5.5-0.2-7.9-3.7 1.9-6.8 3.2-8.9 3.2 0.2-4.9 1.3-9.2 3.4-12.6q0.2-2-1.8-0.3c-1.8 2.8-2.9 6.4-3.4 10.4l-4.3 1.8c0.3-6.5 1.9-11.1 4.6-14.7 0.3-1.7-0.5-1.3-1.5-0.7-2.5 1.2-4.7 12.1-4.7 12.8 0 1-4.4 2-6.2 2.1 0.2-4.2 6.8-18.6 6.7-16.5 0.2-0.2-0.5-1.6-1.4-0.8-2.1 1.8-6.4 12.2-6.8 14.4q-2.3 1-4.5 1.1c1.4-5.7 3-11.3 7-16q0.7-2.1-1.7-0.8c-2.2 2.6-4.4 7.3-6.6 13-1.5 0.3-3.9 0.8-4.4 0.4 1.4-6.3 4.1-11.6 7.7-16.3 0.1-0.8 0-1.5-1.8-0.8-2.3 3.5-4.8 9-6.2 10.6l-5.1-0.2c0.5-1.9 6.3-10 7.1-11.6 0.3-1.3-0.8-1.9-1.6-0.6-0.9 0.4-4.3 7.6-4.7 7.6l-8.8-0.8c-0.1-1.3 11.4-9.6 12.3-10.6 0.8-0.5 0.8-1.5-1.9-1-0.3-0.1-7.9 7-8.2 7l-5.3-0.1c-0.6 0 8.2-8 10.5-10 0.5-0.9-1.5-1.2-2.6-0.1-0.2 0.5-6 5.8-6.6 5.9-4.6 1.1-11.9 1-15.3-0.4 1.1-1.1 17.7-7.3 19.2-8.1 0.6-0.3 1-1.7-1.5-0.9-0.3 0.1-15 5.7-15.3 5.7-4.1-0.3-8.8-1.8-11.2-3.8l23.7-6.2c0.8-0.6-0.1-1.1-1-1.2-1.4-0.2-14.7 4.3-20.6 4.8-4.6-0.9-7.7-3.3-8.1-4.2 0.7 0 27.6-3.8 25.6-4.5 0.5-0.6 0.7-1.2-0.9-1.3l-21.2 3.7c-2.5-1.4-4.4-3.1-6.6-4.6 1-0.6 28.5-2.8 26.3-3.3 0.4-4.1-21.4 2.7-22.7 0.8-1.3-0.4-8.6-5.7-8.1-7.9 0.2 0.8 27.2 4.8 27.1 3.3 1.1-2.7-8.8-1.2-22.8-3.9-3.8-1.2-5.8-6.1-5.8-6.8 2.2 0.7 28.3 9.1 27.3 6.8-1-2.6-15.5-4.2-22.3-6.7-2.8-1.7-4-5.9-4.1-6.7 1.6 1.3 26.2 9.2 27 8.8 1.3-2.2-11.5-5-20.6-7.9-1.7-1.7-3.4-5.7-2.9-5.5 6.3 1.8 20.1 7.7 25.8 9.5 0.2-0.8 0.2-2.7 1-2.3 6.7 4.6 16.9 7.7 22.4 11.8 1.7 1.5 2.2 2.8 0.8 3.8 3.6 3.5 14.9 12 20 14.8 5.5 2.4 9.1 4.4 16.2 4.4 3.5 0.4 4.9-2.8 2-4.7zm25.7 0.6q0.1-0.1 0.1-0.1c0.4 0.9 0.3 0.8-0.1 0.1zm-12.3-17.9c-1.5 0.9-0.3 1.8 0.9 0.4 0.6-0.2 0.3 1 0.8 1 0.9 0 1.9 0 2.7-0.4 0.3-0.1 0.3-0.4 0.1-0.8-0.2-0.2-0.1-0.6-0.1-0.8 0-0.2 0.7-0.1 1.1-0.2 0.2 0 0.3-0.7 0.1-0.8-0.6-0.5-1.8-0.1-3.1-0.1-2 0.1-4.4 0.7-2.5 1.7zm2.6-1.2c0.4 0 0.8 0.3 0.8 0.7 0 0.4-0.4 0.7-0.8 0.7-0.4 0-0.8-0.3-0.8-0.7 0-0.4 0.3-0.7 0.8-0.7zm63.7-2.6c3.1 7-10.2 7.9-15.4 8.9-0.8 0.3-1.2 0.9-0.7 1.5 3.4 0.2 6.3-0.7 8.7-1.2 1.8-0.7 5-1.2 3.9 1.9-2.1 6-12.2 5.6-21.6 6-0.3 0.8 0.1 1.4 0.9 1.8 4-0.2 8-0.4 11.6-1.1 2.1-0.2 3.1 0.4 1.4 3-1.9 3-9.5 2.8-18.6 1.7-0.9 0.5-1 0.9-0.2 1.5l11.3 0.8c3.4-0.1 0.6 3.6-2.6 4-5.2 0.8-10.5-0.6-15.6-1.5-2.2 0.5-1.5 1.1-0.5 1.8 4.1 0.5 8.2 1 12.1 1.8-0.8 1.9-3 2.6-6.3 2.5-3.2 0-7.6-1-12.5-2.3-1.9 0.2-1.4 0.8-0.4 1.5l10.6 2.5c0.3 1.5-0.8 2.5-4.1 2.9q-7.2-1.3-14.3-2.6c-1.2 0.3-0.8 0.9-0.1 1.6l11 2.2q0.3 1.7-4 2.4c-3.8-0.7-7.2-1.8-10.8-2.8-0.9 0-1 0.5-0.3 1.6 8.1 3.2 14.7 4.4 17.2-0.6 4.3 0 7.2 0 7.5-4.3 4-0.1 7.2-1.1 8.3-4.6 5.5-0.7 9.5-2.5 8-5.7 4.7-1.5 7.9-3.7 6.3-7.5 3.8-1.2 9.8-4.6 6.8-9.7 2.2-1.5 5.2-3 5.2-5.7-0.9-3-1.8-3.3-2.8-2.3zm-139.9 1.1c0.1 2.7 3.1 4.3 5.4 5.9-2.9 5 3.2 8.5 7 9.8-1.6 3.7 1.7 6.1 6.4 7.7-1.4 3.1 2.6 5 8.1 5.9 1.2 3.5 4.5 4.6 8.5 4.7 0.4 4.4 3.3 4.4 7.5 4.5 2.7 5.1 9.3 4 17.2 1 0.7-1.1 0.6-1.6-0.3-1.6-3.6 0.9-6.9 2-10.7 2.6q-4.3-0.8-4-2.6l10.9-1.9c0.6-0.7 1-1.3-0.2-1.6q-7.1 1.2-14.2 2.3c-3.3-0.5-4.4-1.6-4.1-3l10.5-2.3c0.9-0.7 1.5-1.3-0.5-1.5-4.8 1.2-9.2 2.1-12.4 2.1-3.3 0-5.5-0.8-6.3-2.7 3.8-0.7 7.9-1.1 12-1.6 1-0.6 1.6-1.2-0.6-1.8-5 0.9-10.2 2.1-15.5 1.2-3.2-0.5-6.1-4.3-2.7-4.1l11.3-0.5c0.8-0.6 0.7-1-0.3-1.5-9 0.9-16.6 1-18.6-2.1-1.7-2.6-0.7-3.3 1.4-3.1 3.6 0.9 7.6 1.2 11.6 1.5 0.8-0.4 1.2-1 0.8-1.9-9.4-0.5-19.4-0.4-21.7-6.4-1.2-3.2 2.1-2.5 3.8-1.8 2.5 0.5 5.4 1.4 8.8 1.4 0.4-0.7 0.1-1.3-0.8-1.6-5.2-1-18.5-2.3-15.5-9.2-1-1-2-0.8-2.8 2.2zm58.8 58.5c1.4 0 1.5-0.5 1.5-1-2.5-3.9-4.2-7.9-4.5-12.3q-0.7-1.1-1.7-0.3c0.2 4.5 2 9 4.7 13.6zm16.3-16c-0.9-0.5-1.3-0.6-1.5-0.2q0.6 3.9 1.2 7.9l-2.5 2.7-2.5-2.4 3-7.5c-0.1-0.8-0.6-0.9-1.3-0.4-1.2 3.4-2.5 6.4-4.7 9-2.4-3.8-3.6-4.9-3.9-8.8q-0.8 0.2-1.6 0.4c0.1 2.2 0.5 3.7 1.5 5.8l-1.2 0.9c-1.6-1.9-2.6-3.8-2.9-5.9l-1.3 0.2c0.2 2.2 1.2 5.5 3.9 7.8 0.7-0.5 1.7-1 2.5-1.5l0.4 1.2 2 2.1 2.7-2.2 3.3 3.5 3.8-3.7 1.6 3 1.5 0.3 2.8-2.9c0.7 0.6 1.9 0.6 2.5 1.2 1.8-1.7 3.7-5.3 4.7-7.5q-0.7-1.1-1.9-0.2c-0.9 1.6-1.5 4.1-2.9 5.4-0.4 0.3-1.8 0.1-1.5-0.3 1.2-2.2 1.8-3.5 2.2-5.8-0.1-0.6-0.4-0.6-1.2-0.4-1.7 3.6-1.8 5.2-5 8.3-2.2-2.8-3.3-6.2-3.7-10zm12.3 39.4l2.4-2.5 4.1 5.6-3.6 2.8zm3.3-4.6q1.3-1.1 1.3-3.2c1.5 1.7 3.4 3.4 4.6 5.1l-2.8 2.7zm-31.2 10.5c-2.4-1.5-5-2.9-7.8-4.1 1.6-1.6 4.1-3.9 5-5.8 1 0.7 3 4.3 3.8 5.2-0.1 1.6-0.4 3.2-1 4.7zm-6.3-7.7l-2.7-2.7c1.2-1.7 3.1-3 4.6-4.7 0 1.4 1.2 2.2 0.7 3.8zm27.7-76.5c1 1.8 4.3 1 3.2 0-0.9-0.9-4-1.5-3.2 0zm-6.8 88.6l-2.4-1.8 2-1.7 2 1.7zm-1.6-21.3h2.3v1.1c0.5 1.3 0.6 2.6 0.3 4-0.1 0.4 0.2 0.7 0.7 1.1 2.6-0.7 1.7 3.1 1.3 4.5-0.2 0.6-0.9 1.5-0.4 1.9 2.1 1.3 3.5 3.2 5.2 5-0.6 1.2-2.1 1.7-3.2 2.5l-3.8-3.8h-1.7c-1.6 0.7-3.2 3.3-5 4.3-1.3-0.9-0.3-0.9-2-1.2 0-0.9 1.2-3.1 2.6-4.8 0.7-0.8 1.4-1.4 2-1.8 0.6-0.5 1-0.8 0.9-1.2-0.7-1.5-0.7-2.9-0.8-4.2 0-0.6 1.2-1.5 2.1-1.7q1.1-0.5-0.1-1.4v-2.4l-0.3-0.1z"/>
	<path id="Path 21" class="s1" d="m130.6 166.1c1.3-5.6 3.3-12.6 5.7-17.6 0.5-1.3 1.3-0.4 1.9-1.1 0.3-0.3-0.1-0.8 0.2-1.1 0.5-0.5 1.8-1.3 2.3-1.8 5-0.8 9.3 0.5 9.5 1.5 0.3 0.5-0.1 1.8 0.5 1.9 1.2 0.3 3.4 0.1 4.5 0.5 1.6 0.7 1 2.5 0 3.9-2.1-1.3-4.3-0.9-4.9 1.6 0.2 1.7 2.2 6.2 3.3 7.9 1.3 2.3 3.9 7.2 2.8 4.8 0 0-1 1.2-1 1.9 0.1 0.9 1.3 3 2.3 3 2.6 2.2 15.7-2.8 25.8-10.2 3.7-3.2 7.4-7 10.1-9.8-1.3-0.8-2.6-1.8-0.3-2.8 3.4-2.2 18.1-6.6 25.6-12.4 0 1.2 0.7 1.9 0.7 3.1 8.8-2.8 17.5-5.6 26-9.6q-0.4 1.9-0.8 3.7c0 0.9-23.5 7.2-23 7.8-3.5 4 25.8-7.1 26.6-7.3-1.1 3.4-3.5 6.1-6.2 9-4.3 0.2-10.5 1.2-15.4 1.7-4.5 0.4-7.9 0.9-7.9 0.9-1.3 3 23.7-0.5 29.7-2.6-1.2 2.4-3.5 4.8-6.7 7q-12.2 0.5-24.5-0.5c-3.7 2.9 20.7 2.8 28.9 1.7-0.8 1.2-3 4.7-6.4 5.5-3 0.8-23.8-3.6-25.3-2.7-1.7 1.1 5.2 2 12.7 3 7.3 0.8 15 1.7 15.8 1.7-1.4 1.5-6 3.8-12 5-2.3 2.8-15.9-6.6-18.9-5.7-0.9 1.9 21.6 8.6 23.6 9-2.2 2.2-4.1 1.8-7 2.8-5.8-1.6-16.7-5.7-19.6-6.7-1-0.1-1.8 0.7-1 1.5l22.7 7.9c-3.1 2.4-5.7 2.4-10.1 3.1-2.6-1.4-5.2-2.6-7.8-4-2.4-1.3-4.6-2.7-7.2-3.8-0.4-0.2-1 1.1-0.5 1.3 5.3 3.7 11.8 6.9 18.9 9.8-1.4 0.7-9 2.1-13.6 0.8-4.3-2-7.2-8-8.5-8-0.7-0.4-1.6 0.5-1 1.2 2.7 3.4 6.1 6.9 10.1 10.4-4.7 1.4-6 0.7-8.3 0.5q-2.7-3.7-5.3-7.4-2-0.9-1.3 1.3l7.7 11.1-6.7 0.3c-0.7-3.5-1.1-7-2.5-10.3-0.6-0.8-1.2-0.8-1.5 0.7 1.4 5 2.3 10.4 3 16-1.3-0.1-2.6-0.5-3.9-1.6-0.3-4.2-1.1-8.4-2.5-12.4q-1-1.8-1.4 0.4c1.1 5.2 1.9 10.6 2.6 16-1.2-0.1-2.2-0.8-3.1-1.9-0.4-1.9-0.3-3.9-0.7-5.8-0.3-1.9-1.1-3.8-1.4-5.7q-1-2-1.5 0.2c1.6 5.9 2.1 12.3 2.3 18.8-1.8-0.4-3.4-1.4-5-3 0-4.6 0.1-9-0.6-13.6 0-1-1.3-1.7-1.3 0.2 0 6.1 0.3 12.2-0.7 18.1-1.9-0.8-3.3-1.7-4.3-3.4 0-4.2 0.2-8.5 0.2-12.7-0.6-1.4-1.3-1.7-2 0.3-0.3 5.1 0.5 10.3-1.2 15.1-1.7-0.8-2.8-2-4-3.5q1-5.5 2-11.1-1.1-2.2-2 0.6c-0.6 4.4-1.6 8.7-3.6 12.7-1.3-0.3-3.3-2.2-3.8-3 0.4 0.5 2.9-8.7 2.6-9-0.7-0.5-1.5-1.3-1.5 0 0 3.3-3.5 9.7-5 12.7-0.3 0.6-0.1 1.4 1 0.9 1.1-0.4 1.9-3.4 2.3-2.6 0.8 1.9 3.3 8.7 1.6 15.1-0.7 3.8-2.1 7.5-5.8 9.8 1 3.2 2.9 6.5 5.1 9.7-0.3 0.7-1.8 1.3-0.7 1.6 0 0 0.6 0 0.9-0.1 1.8-0.9 3.3-0.4 3.3 1.4l0.6 0.6c2.7-1.5 3.3 0.8 3.1 1.8 1.7 0.8 1.5 0 2.4 1.7-0.7 0-1.4-0.4-2.1-0.8-1 0.1-1.7-0.1-2-1.3l-0.6 0.1c-0.8 1.3-0.7 4.2-1 3.4q-0.7-1.5-1.8-2.9l-0.5 0.1-0.1 0.8c0 0-0.7 0.4-1.3 0.3-0.6-0.2-1-2-1.4-1.6l-0.3 0.2c0 1.1 0.1 2.2-0.1 3.2-0.6 0-1.5-2.6-2.4-2.7-1.2-0.1 0.1 1.1-0.3 1.3 0 0-2.8 0.1-4.5 0.4-1.5 0.3-2.2 1.2-2.2 0.7 0.2-1.2 0.9-0.8 1.9-1.6 0-1.1-0.8-0.4 0-1.9 0.6-1 2.2 0.7 3-0.1-0.3-0.7 2-2 2.3-2.3-1.2-2.4-3.2-6.3-7.6-10 1.2-3.9 0.8-6.5-1.9-7.3l-0.6-6.6h-3.5q-0.2 0.6-1.6 0.8l0.2 5.4c0.5 1.8-2.6-0.5-1.8 7.6-3 1.9-6.3 8.6-6.3 11 0.2 0.7 0.8 1.2 1.9 1.3 0.4-0.2 0.7-0.4 1.1-0.6 0.3-0.2 1 0.4 1 2l0.6 0.5c0.8-0.1 1.4 1.3 1.4 1.3-1.6-0.5-2.8-0.8-3.4-1-0.8 0-1.7-0.2-3.3-0.3q-2.1 0.8-0.4-1.2l-1.4-0.2c-0.9 0.5-1.4 1.4-1.9 2.5-0.7-0.9 0-1.6 0-2.6q-0.3-0.6-0.9-0.1l-0.4 1.8-1.6 0.1c0 0 0.1-0.7 0.3-1-0.1-0.3-0.8-0.3-0.8-0.3-0.8 0.2-1.5 2.5-2.1 3.4-0.8 0.4 0.2-3.5 0.2-3.5h-1.7l-0.1 1.4c0 0-3.5 0.3-4.2 0.8 0-1.8 0.5-0.1 2.1-2.1-1.1-0.3 0.4-1.6 1.9-2.1 1.2 0.3 1.2 0.9 2.3 1.1 0.9 0.1 0.8-2 1.6-1.9 1.2-0.8 2.5 0.1 3.8 0.9 0 0 0.7-0.6 0.3-0.8-1-0.6 0.8-2.6 1.1-3.2l2.4-7.3q0-1.5-1.2-1c-1.9-2-4.7-5.3-5-9.6-0.5-2.4-0.5-5.1-0.3-7.4 0-2.6 1.2-5.5-0.2-7.8-3.7 1.8-6.8 3.1-8.9 3.1 0.3-4.9 1.3-9.2 3.4-12.6 0-1.3-0.5-1.4-1.8-0.3-1.8 2.8-2.9 6.4-3.4 10.5l-4.3 1.7c0.3-6.5 1.9-11 4.6-14.7 0.3-1.7-0.5-1.3-1.5-0.7-2.5 1.2-4.7 12.1-4.7 12.8 0 1-4.4 2-6.2 2.1 0.2-4.2 6.8-18.6 6.7-16.5 0.2-0.2-0.5-1.6-1.4-0.8-2.1 1.8-6.4 12.2-6.8 14.5q-2.3 1-4.5 1c1.4-5.7 3-11.3 7-16q0.7-2.1-1.7-0.8c-2.2 2.6-4.4 7.3-6.6 13-1.5 0.3-3.9 0.8-4.4 0.4 1.4-6.3 4.1-11.6 7.7-16.3 0.2-0.8 0-1.5-1.8-0.8-2.3 3.6-4.8 9-6.2 10.6l-5.1-0.2c0.5-1.8 6.3-10 7.1-11.6 0.3-1.2-0.8-1.9-1.6-0.6-0.9 0.4-4.7 7.6-4.7 7.6l-8.8-0.8c0-1.3 11.4-9.6 12.3-10.6 0.8-0.5 0.8-1.5-1.9-1l-8.2 7-5.3-0.1c-0.6 0 8.2-8 10.5-10 0.5-0.9-1.5-1.2-2.6-0.1-0.2 0.5-6 5.8-6.6 6-4.6 1-11.8 1-15.3-0.5 1.1-1.1 17.7-7.3 19.2-8.1 0.6-0.3 1-1.7-1.5-0.9l-15.3 5.7c-4.1-0.2-8.8-1.7-11.2-3.8l23.7-6.2c0.8-0.6-0.1-1.1-1-1.2-1.4-0.2-14.7 4.3-20.6 4.9-4.6-1-7.7-3.4-8.1-4.3 0.7 0 27.5-3.8 25.6-4.5 0.5-0.6 0.7-1.2-0.9-1.3l-21.2 3.7c-2.5-1.4-4.4-3-6.6-4.6 1-0.6 28.5-2.8 26.3-3.3 0.4-4.1-21.4 2.7-22.7 0.8-1.3-0.4-8.6-5.7-8.1-7.9 0.3 0.8 27.1 4.8 27.1 3.4 1.1-2.8-8.8-1.3-22.8-3.9-3.8-1.2-5.8-6.2-5.8-6.9 2.2 0.7 28.3 9.1 27.3 6.8-1-2.6-15.5-4.2-22.3-6.7-2.8-1.7-4.1-5.9-4.1-6.7 1.6 1.3 26.2 9.2 27 8.8 1.3-2.2-11.5-4.9-20.6-7.9-1.7-1.7-2.9-5.5-2.9-5.5 6.3 1.8 20.1 7.7 25.8 9.5 0.2-0.8 0.2-2.7 1-2.3 6.7 4.6 16.9 7.7 22.4 11.8 1.7 1.5 2.2 2.9 0.8 3.8 3.6 3.5 14.9 12.1 20 14.8 5.5 2.4 9.1 4.4 16.2 4.5 3.5 0.3 4.9-2.9 2-4.8zm15.9-18.9c1.4-0.1 2.5-0.5 3.1 0l-0.1 0.8-1.1 0.2 0.1 0.8c0.2 0.4 0.2 0.7-0.1 0.8-0.8 0.4-1.8 0.4-2.7 0.5-0.5 0-0.2-1.3-0.8-1.1-1.2 1.4-2.4 0.6-0.9-0.4-1.9-0.9 0.5-1.6 2.5-1.6zm0.1 0.4l0.8 0.7-0.8 0.7-0.8-0.7zm63.7-2.6c3.1 7-10.2 8-15.3 8.9-0.8 0.3-1.2 0.9-0.7 1.6 3.4 0.1 6.2-0.8 8.7-1.2 1.7-0.7 5-1.3 3.8 1.8-2.1 6-12.2 5.7-21.6 6-0.3 0.8 0.1 1.5 0.9 1.9 4-0.3 8-0.4 11.6-1.2 2.1-0.2 3.1 0.5 1.5 3-2 3.1-9.5 2.9-18.6 1.7-1 0.6-1.1 1-0.3 1.6l11.3 0.7c3.4-0.1 0.7 3.6-2.6 4.1-5.2 0.7-10.5-0.6-15.6-1.6-2.1 0.5-1.5 1.2-0.5 1.8 4.2 0.5 8.2 1.1 12.1 1.8-0.8 1.9-3 2.6-6.3 2.6-3.2 0-7.6-1-12.5-2.3-1.9 0.1-1.3 0.7-0.4 1.4l10.6 2.6c0.3 1.4-0.8 2.4-4.1 2.9q-7.1-1.3-14.3-2.7c-1.2 0.3-0.7 1-0.1 1.7l11 2.1q0.3 1.8-4 2.5c-3.8-0.7-7.2-1.9-10.7-2.8-1 0-1.1 0.5-0.4 1.5 8.1 3.2 14.7 4.5 17.2-0.6 4.3 0 7.2 0.1 7.5-4.3 4 0 7.3-1 8.4-4.6 5.5-0.7 9.5-2.5 8-5.7 4.6-1.4 7.9-3.7 6.2-7.5 3.8-1.2 9.8-4.6 6.8-9.6 2.2-1.6 5.3-3.1 5.3-5.8-0.9-3-1.9-3.3-2.9-2.3zm-137.1-1.1c-2.9 6.9 10.4 8.2 15.6 9.3 0.8 0.3 1.2 0.9 0.7 1.5-3.4 0.1-6.3-0.8-8.7-1.4-1.8-0.7-5-1.4-3.9 1.8 2.3 6 12.4 5.9 21.8 6.4 0.3 0.9-0.1 1.5-0.8 1.9-4-0.3-8.1-0.5-11.7-1.4-2.1-0.3-3 0.4-1.3 3 2 3.1 9.5 3 18.6 2.1 0.9 0.6 1 1 0.2 1.5l-11.3 0.5c-3.4-0.1-0.5 3.6 2.7 4.2 5.3 0.8 10.5-0.4 15.6-1.2 2.2 0.5 1.6 1.2 0.5 1.8-4.1 0.4-8.1 0.9-12 1.5 0.8 1.9 3.1 2.7 6.3 2.7 3.2 0.1 7.6-0.8 12.5-2 1.9 0.1 1.4 0.8 0.4 1.5l-10.5 2.2c-0.3 1.5 0.9 2.5 4.2 3q7.1-1.1 14.2-2.3c1.2 0.3 0.7 1 0.1 1.6l-10.9 1.9q-0.3 1.8 4 2.6c3.8-0.6 7.1-1.7 10.7-2.6 0.9 0.1 1 0.6 0.4 1.6-8 3-14.6 4.1-17.2-1-4.3-0.1-7.2-0.1-7.6-4.5-4-0.1-7.3-1.1-8.5-4.7-5.5-0.8-9.5-2.8-8.1-5.9-4.7-1.6-7.9-3.9-6.4-7.6-3.8-1.3-9.9-4.9-7-9.9-2.2-1.6-5.4-3.2-5.4-5.9 0.9-3 1.8-3.2 2.8-2.2zm51.3 47.1q1-0.7 1.7 0.4c0.3 4.4 2.1 8.4 4.5 12.2 0 0-0.1 1-1.5 1-2.7-4.6-4.4-9.1-4.7-13.6zm24.7 7.6c3.2-3.1 3.3-4.7 5-8.3 0.8-0.2 1.1-0.2 1.2 0.4-0.4 2.3-1 3.7-2.2 5.8-0.3 0.5 1.2 0.7 1.6 0.3 1.3-1.2 1.9-3.8 2.9-5.3q1.2-0.9 1.8 0.1c-1 2.2-2.8 5.9-4.6 7.5-0.7-0.6-1.9-0.6-2.6-1.2l-2.8 2.9-1.5-0.3-1.5-3-3.9 3.8-3.3-3.5-2.6 2.1-2.1-2.1-0.4-1.1c-0.8 0.5-1.8 1-2.5 1.5-2.7-2.4-3.6-5.7-3.8-7.9l1.3-0.2c0.2 2.1 1.3 4.1 2.8 5.9l1.2-0.8c-1-2.2-1.4-3.7-1.4-5.9l1.5-0.4c0.3 3.9 1.5 5 3.9 8.8 2.2-2.6 3.5-5.5 4.7-8.9 0.7-0.6 1.3-0.4 1.3 0.4l-2.9 7.5 2.4 2.4 2.5-2.8q-0.6-3.9-1.2-7.9c0.2-0.4 0.6-0.3 1.5 0.2 0.5 3.8 1.5 7.2 3.7 10zm8.7 29.5l2.4-2.6 4.1 5.6-3.7 2.8zm3.4-4.5c0.8-0.8 1.2-1.9 1.2-3.3 1.6 1.7 3.4 3.4 4.6 5.1l-2.8 2.7zm-30.2 5.8c-0.8-0.9-2.8-4.5-3.7-5.2-1 1.9-3.5 4.3-5.1 5.9 2.8 1.2 5.4 2.6 7.8 4 0.6-1.5 1-3 1-4.7zm-4.7-6.5c0.5-1.6-0.7-2.5-0.7-3.9-1.5 1.8-3.3 3-4.5 4.8l2.6 2.6zm28.5-73c1 1-2.3 1.8-3.3 0-0.8-1.5 2.3-0.9 3.3 0zm-10.1 88.6l-2.4-1.8 2-1.6 2 1.7zm-1.5-21.4h2.3v1.2c0.4 1.2 0.6 2.5 0.2 3.9 0 0 0.3 0.8 0.7 1.1 2.7-0.6 1.7 3.1 1.4 4.5-0.3 0.6-1 1.5-0.5 1.9 2.1 1.3 3.6 3.2 5.3 5.1-0.6 1.1-2.2 1.6-3.3 2.5l-3.8-3.9h-1.7c-1.6 0.7-3.1 3.4-4.9 4.3-1.3-0.9-0.3-0.9-2-1.2 0-0.9 1.1-3.1 2.5-4.8 0.7-0.8 1.5-1.4 2-1.8 0.6-0.5 0.9-1.2 0.9-1.2-0.7-1.5-0.7-2.9-0.7-4.2 0-0.6 1.1-1.5 2-1.7q1.1-0.5 0-1.4l-0.1-2.4-0.3-0.1z"/>
	<path id="Path 22" fill-rule="evenodd" class="s0" d="m140 43.9c1.7 0.3 2.9 2.7 1.9 5.6-0.9 2.9-3.5 4.2-5.1 3.4-1.6-0.9-2.2-3.7-1.4-6.1 0.9-2.4 3.3-3.4 4.6-2.9zm-3.9 2.1c0.4 0.8 1.7 1.4 1.6 2.3-0.1 1.2-1.7 1.3-2 2.5-0.1 0.5 0.6 1.6 1 1.3 1-1 0.2-2.9 1.6-3.1 1.3-0.2 0.6 1.8 1.6 2.6 0.4 0.3 1.2-0.6 1.1-1.1-0.4-1.2-2.2-1.7-2.1-2.9 0.1-1.1 1.9-1.1 2.4-2.1 0.2-0.4-0.6-1.2-1.1-0.9-1 0.5-1 2.2-2.1 2.5-0.8 0.2-0.8-1.3-1.5-1.7-0.2-0.1-0.6 0.4-0.5 0.6zm16.9-2c1.7 0.3 3.3 2.6 2.8 5.5-0.5 2.8-2.9 4.1-4.6 3.3-1.8-0.9-2.8-3.7-2.4-6 0.5-2.3 2.7-3.3 4.2-2.8zm-3.2 1.6c0.5 0.7 1.5 1.8 1.5 2.7 0.1 1.1-1.4 1.3-1.5 2.4-0.1 0.5 0.9 1.6 1.2 1.3 0.8-1-0.3-2.9 1.1-3.1 1.2-0.1 0.9 1.8 2 2.6 0.4 0.3 1.1-0.6 0.9-1.1-0.5-1.1-2.2-1.1-2.3-2.3-0.1-1.1 1.8-1.1 2.1-2.1 0.2-0.4-0.9-1.2-1.2-0.9-1 0.5-0.8 1.6-1.9 1.8-0.8 0.2-0.7-1.5-1.5-2-0.2-0.1-0.6 0.4-0.4 0.7z"/>
</svg>